<?xml version="1.0" encoding="UTF-8" standalone="no"?>
<!-- This is a Stata 16.1 generated SVG file (http://www.stata.com) -->

<svg version="1.1" width="3.58in" height="2.60in" viewBox="0 0 2574 1872" xmlns="http://www.w3.org/2000/svg" xmlns:xlink="http://www.w3.org/1999/xlink">
	<desc>Stata Graph - msaj_23_jun_22</desc>
	<rect x="0" y="0" width="2574" height="1872" style="fill:#F0F0F0;stroke:none"/>
	<rect x="0.00" y="0.00" width="2573.92" height="1872.00" style="fill:#FFFFFF"/>
	<rect x="1.87" y="1.87" width="2570.18" height="1868.26" style="fill:none;stroke:#FFFFFF;stroke-width:3.74"/>
	<rect x="227.96" y="139.97" width="2280.40" height="1442.61" style="fill:#FFFFFF"/>
	<rect x="229.83" y="141.84" width="2276.66" height="1438.87" style="fill:none;stroke:#FFFFFF;stroke-width:3.74"/>
	<line x1="227.96" y1="1541.39" x2="2508.36" y2="1541.39" style="stroke:#E8E8E8;stroke-width:5.62"/>
	<line x1="227.96" y1="1405.37" x2="2508.36" y2="1405.37" style="stroke:#E8E8E8;stroke-width:5.62"/>
	<line x1="227.96" y1="1269.34" x2="2508.36" y2="1269.34" style="stroke:#E8E8E8;stroke-width:5.62"/>
	<line x1="227.96" y1="1133.32" x2="2508.36" y2="1133.32" style="stroke:#E8E8E8;stroke-width:5.62"/>
	<line x1="227.96" y1="997.30" x2="2508.36" y2="997.30" style="stroke:#E8E8E8;stroke-width:5.62"/>
	<line x1="227.96" y1="861.27" x2="2508.36" y2="861.27" style="stroke:#E8E8E8;stroke-width:5.62"/>
	<line x1="227.96" y1="725.25" x2="2508.36" y2="725.25" style="stroke:#E8E8E8;stroke-width:5.62"/>
	<line x1="227.96" y1="589.22" x2="2508.36" y2="589.22" style="stroke:#E8E8E8;stroke-width:5.62"/>
	<line x1="227.96" y1="453.20" x2="2508.36" y2="453.20" style="stroke:#E8E8E8;stroke-width:5.62"/>
	<line x1="227.96" y1="317.17" x2="2508.36" y2="317.17" style="stroke:#E8E8E8;stroke-width:5.62"/>
	<line x1="1472.57" y1="1246.34" x2="1472.57" y2="1220.11" style="stroke:#707070;stroke-width:5.62"/>
	<line x1="1472.57" y1="1208.93" x2="1472.57" y2="1195.74" style="stroke:#707070;stroke-width:5.62"/>
	<line x1="1458.25" y1="1195.74" x2="1484.47" y2="1195.74" style="stroke:#707070;stroke-width:5.62"/>
	<line x1="1458.25" y1="1246.34" x2="1484.47" y2="1246.34" style="stroke:#707070;stroke-width:5.62"/>
	<line x1="368.08" y1="1541.39" x2="368.08" y2="1541.39" style="stroke:#707070;stroke-width:5.62"/>
	<line x1="353.76" y1="1541.39" x2="379.99" y2="1541.39" style="stroke:#707070;stroke-width:5.62"/>
	<line x1="353.76" y1="1541.39" x2="379.99" y2="1541.39" style="stroke:#707070;stroke-width:5.62"/>
	<line x1="670.29" y1="1413.57" x2="670.29" y2="1387.35" style="stroke:#707070;stroke-width:5.62"/>
	<line x1="655.97" y1="1380.67" x2="682.19" y2="1380.67" style="stroke:#707070;stroke-width:5.62"/>
	<line x1="655.97" y1="1413.57" x2="682.19" y2="1413.57" style="stroke:#707070;stroke-width:5.62"/>
	<line x1="670.29" y1="1413.57" x2="670.29" y2="1387.35" style="stroke:#707070;stroke-width:5.62"/>
	<line x1="655.97" y1="1380.67" x2="682.19" y2="1380.67" style="stroke:#707070;stroke-width:5.62"/>
	<line x1="655.97" y1="1413.57" x2="682.19" y2="1413.57" style="stroke:#707070;stroke-width:5.62"/>
	<line x1="1472.57" y1="1246.34" x2="1472.57" y2="1220.11" style="stroke:#707070;stroke-width:5.62"/>
	<line x1="1472.57" y1="1208.93" x2="1472.57" y2="1195.74" style="stroke:#707070;stroke-width:5.62"/>
	<line x1="1458.25" y1="1195.74" x2="1484.47" y2="1195.74" style="stroke:#707070;stroke-width:5.62"/>
	<line x1="1458.25" y1="1246.34" x2="1484.47" y2="1246.34" style="stroke:#707070;stroke-width:5.62"/>
	<line x1="670.29" y1="1413.57" x2="670.29" y2="1387.35" style="stroke:#707070;stroke-width:5.62"/>
	<line x1="655.97" y1="1380.67" x2="682.19" y2="1380.67" style="stroke:#707070;stroke-width:5.62"/>
	<line x1="655.97" y1="1413.57" x2="682.19" y2="1413.57" style="stroke:#707070;stroke-width:5.62"/>
	<line x1="670.29" y1="1413.57" x2="670.29" y2="1387.35" style="stroke:#707070;stroke-width:5.62"/>
	<line x1="655.97" y1="1380.67" x2="682.19" y2="1380.67" style="stroke:#707070;stroke-width:5.62"/>
	<line x1="655.97" y1="1413.57" x2="682.19" y2="1413.57" style="stroke:#707070;stroke-width:5.62"/>
	<line x1="368.08" y1="1541.39" x2="368.08" y2="1541.39" style="stroke:#707070;stroke-width:5.62"/>
	<line x1="353.76" y1="1541.39" x2="379.99" y2="1541.39" style="stroke:#707070;stroke-width:5.62"/>
	<line x1="353.76" y1="1541.39" x2="379.99" y2="1541.39" style="stroke:#707070;stroke-width:5.62"/>
	<line x1="2271.55" y1="1222.85" x2="2271.55" y2="1196.63" style="stroke:#707070;stroke-width:5.62"/>
	<line x1="2271.55" y1="1185.44" x2="2271.55" y2="1159.22" style="stroke:#707070;stroke-width:5.62"/>
	<line x1="2257.24" y1="1157.45" x2="2283.46" y2="1157.45" style="stroke:#707070;stroke-width:5.62"/>
	<line x1="2257.24" y1="1222.85" x2="2283.46" y2="1222.85" style="stroke:#707070;stroke-width:5.62"/>
	<line x1="368.08" y1="1541.39" x2="368.08" y2="1541.39" style="stroke:#707070;stroke-width:5.62"/>
	<line x1="353.76" y1="1541.39" x2="379.99" y2="1541.39" style="stroke:#707070;stroke-width:5.62"/>
	<line x1="353.76" y1="1541.39" x2="379.99" y2="1541.39" style="stroke:#707070;stroke-width:5.62"/>
	<line x1="685.73" y1="1410.76" x2="685.73" y2="1383.49" style="stroke:#000000;stroke-width:5.62"/>
	<line x1="671.41" y1="1383.49" x2="700.05" y2="1383.49" stroke-linecap="round" style="stroke:#000000;stroke-width:5.62"/>
	<line x1="671.41" y1="1410.76" x2="700.05" y2="1410.76" stroke-linecap="round" style="stroke:#000000;stroke-width:5.62"/>
	<line x1="685.73" y1="1410.76" x2="685.73" y2="1383.49" style="stroke:#000000;stroke-width:5.62"/>
	<line x1="671.41" y1="1383.49" x2="700.05" y2="1383.49" stroke-linecap="round" style="stroke:#000000;stroke-width:5.62"/>
	<line x1="671.41" y1="1410.76" x2="700.05" y2="1410.76" stroke-linecap="round" style="stroke:#000000;stroke-width:5.62"/>
	<line x1="685.73" y1="1410.76" x2="685.73" y2="1383.49" style="stroke:#000000;stroke-width:5.62"/>
	<line x1="671.41" y1="1383.49" x2="700.05" y2="1383.49" stroke-linecap="round" style="stroke:#000000;stroke-width:5.62"/>
	<line x1="671.41" y1="1410.76" x2="700.05" y2="1410.76" stroke-linecap="round" style="stroke:#000000;stroke-width:5.62"/>
	<line x1="685.73" y1="1410.76" x2="685.73" y2="1383.49" style="stroke:#000000;stroke-width:5.62"/>
	<line x1="671.41" y1="1383.49" x2="700.05" y2="1383.49" stroke-linecap="round" style="stroke:#000000;stroke-width:5.62"/>
	<line x1="671.41" y1="1410.76" x2="700.05" y2="1410.76" stroke-linecap="round" style="stroke:#000000;stroke-width:5.62"/>
	<line x1="1488.01" y1="1229.69" x2="1488.01" y2="1187.54" style="stroke:#000000;stroke-width:5.62"/>
	<line x1="1473.70" y1="1187.54" x2="1502.33" y2="1187.54" stroke-linecap="round" style="stroke:#000000;stroke-width:5.62"/>
	<line x1="1473.70" y1="1229.69" x2="1502.33" y2="1229.69" stroke-linecap="round" style="stroke:#000000;stroke-width:5.62"/>
	<line x1="383.45" y1="1541.39" x2="383.45" y2="1541.39" style="stroke:#000000;stroke-width:5.62"/>
	<line x1="369.13" y1="1541.39" x2="397.76" y2="1541.39" stroke-linecap="round" style="stroke:#000000;stroke-width:5.62"/>
	<line x1="369.13" y1="1541.39" x2="397.76" y2="1541.39" stroke-linecap="round" style="stroke:#000000;stroke-width:5.62"/>
	<line x1="2292.47" y1="1181.91" x2="2292.47" y2="1128.98" style="stroke:#000000;stroke-width:5.62"/>
	<line x1="2278.15" y1="1128.98" x2="2306.79" y2="1128.98" stroke-linecap="round" style="stroke:#000000;stroke-width:5.62"/>
	<line x1="2278.15" y1="1181.91" x2="2306.79" y2="1181.91" stroke-linecap="round" style="stroke:#000000;stroke-width:5.62"/>
	<line x1="685.73" y1="1410.76" x2="685.73" y2="1383.49" style="stroke:#000000;stroke-width:5.62"/>
	<line x1="671.41" y1="1383.49" x2="700.05" y2="1383.49" stroke-linecap="round" style="stroke:#000000;stroke-width:5.62"/>
	<line x1="671.41" y1="1410.76" x2="700.05" y2="1410.76" stroke-linecap="round" style="stroke:#000000;stroke-width:5.62"/>
	<line x1="1488.01" y1="1229.69" x2="1488.01" y2="1187.54" style="stroke:#000000;stroke-width:5.62"/>
	<line x1="1473.70" y1="1187.54" x2="1502.33" y2="1187.54" stroke-linecap="round" style="stroke:#000000;stroke-width:5.62"/>
	<line x1="1473.70" y1="1229.69" x2="1502.33" y2="1229.69" stroke-linecap="round" style="stroke:#000000;stroke-width:5.62"/>
	<line x1="383.45" y1="1541.39" x2="383.45" y2="1541.39" style="stroke:#000000;stroke-width:5.62"/>
	<line x1="369.13" y1="1541.39" x2="397.76" y2="1541.39" stroke-linecap="round" style="stroke:#000000;stroke-width:5.62"/>
	<line x1="369.13" y1="1541.39" x2="397.76" y2="1541.39" stroke-linecap="round" style="stroke:#000000;stroke-width:5.62"/>
	<line x1="2292.47" y1="1181.91" x2="2292.47" y2="1128.98" style="stroke:#000000;stroke-width:5.62"/>
	<line x1="2278.15" y1="1128.98" x2="2306.79" y2="1128.98" stroke-linecap="round" style="stroke:#000000;stroke-width:5.62"/>
	<line x1="2278.15" y1="1181.91" x2="2306.79" y2="1181.91" stroke-linecap="round" style="stroke:#000000;stroke-width:5.62"/>
	<line x1="685.73" y1="1410.76" x2="685.73" y2="1383.49" style="stroke:#000000;stroke-width:5.62"/>
	<line x1="671.41" y1="1383.49" x2="700.05" y2="1383.49" stroke-linecap="round" style="stroke:#000000;stroke-width:5.62"/>
	<line x1="671.41" y1="1410.76" x2="700.05" y2="1410.76" stroke-linecap="round" style="stroke:#000000;stroke-width:5.62"/>
	<line x1="368.00" y1="1541.39" x2="368.00" y2="1541.39" style="stroke:#707070;stroke-width:5.62"/>
	<line x1="368.00" y1="1541.39" x2="368.00" y2="1541.39" style="stroke:#707070;stroke-width:5.62"/>
	<line x1="368.00" y1="1541.39" x2="391.65" y2="1530.13" style="stroke:#707070;stroke-width:5.62"/>
	<line x1="401.70" y1="1525.30" x2="425.43" y2="1514.04" style="stroke:#707070;stroke-width:5.62"/>
	<line x1="435.49" y1="1509.14" x2="459.14" y2="1497.87" style="stroke:#707070;stroke-width:5.62"/>
	<line x1="469.27" y1="1493.05" x2="492.92" y2="1481.79" style="stroke:#707070;stroke-width:5.62"/>
	<line x1="502.98" y1="1476.96" x2="526.62" y2="1465.62" style="stroke:#707070;stroke-width:5.62"/>
	<line x1="536.76" y1="1460.79" x2="560.41" y2="1449.53" style="stroke:#707070;stroke-width:5.62"/>
	<line x1="570.54" y1="1444.70" x2="594.19" y2="1433.44" style="stroke:#707070;stroke-width:5.62"/>
	<line x1="604.33" y1="1428.61" x2="627.98" y2="1417.27" style="stroke:#707070;stroke-width:5.62"/>
	<line x1="638.11" y1="1412.45" x2="661.76" y2="1401.18" style="stroke:#707070;stroke-width:5.62"/>
	<line x1="671.97" y1="1396.76" x2="697.63" y2="1391.13" style="stroke:#707070;stroke-width:5.62"/>
	<line x1="708.57" y1="1388.72" x2="734.15" y2="1383.09" style="stroke:#707070;stroke-width:5.62"/>
	<line x1="745.09" y1="1380.67" x2="770.75" y2="1375.12" style="stroke:#707070;stroke-width:5.62"/>
	<line x1="781.69" y1="1372.63" x2="807.27" y2="1367.08" style="stroke:#707070;stroke-width:5.62"/>
	<line x1="818.21" y1="1364.66" x2="843.87" y2="1359.03" style="stroke:#707070;stroke-width:5.62"/>
	<line x1="854.73" y1="1356.62" x2="880.39" y2="1350.99" style="stroke:#707070;stroke-width:5.62"/>
	<line x1="891.33" y1="1348.58" x2="916.91" y2="1342.95" style="stroke:#707070;stroke-width:5.62"/>
	<line x1="927.85" y1="1340.53" x2="953.51" y2="1334.90" style="stroke:#707070;stroke-width:5.62"/>
	<line x1="964.45" y1="1332.49" x2="990.02" y2="1326.86" style="stroke:#707070;stroke-width:5.62"/>
	<line x1="1000.96" y1="1324.44" x2="1026.62" y2="1318.81" style="stroke:#707070;stroke-width:5.62"/>
	<line x1="1037.48" y1="1316.40" x2="1063.14" y2="1310.77" style="stroke:#707070;stroke-width:5.62"/>
	<line x1="1074.08" y1="1308.36" x2="1099.66" y2="1302.73" style="stroke:#707070;stroke-width:5.62"/>
	<line x1="1110.60" y1="1300.31" x2="1136.26" y2="1294.68" style="stroke:#707070;stroke-width:5.62"/>
	<line x1="1147.20" y1="1292.27" x2="1172.78" y2="1286.64" style="stroke:#707070;stroke-width:5.62"/>
	<line x1="1183.72" y1="1284.31" x2="1209.38" y2="1278.67" style="stroke:#707070;stroke-width:5.62"/>
	<line x1="1220.24" y1="1276.26" x2="1245.90" y2="1270.71" style="stroke:#707070;stroke-width:5.62"/>
	<line x1="1256.84" y1="1268.30" x2="1282.42" y2="1262.67" style="stroke:#707070;stroke-width:5.62"/>
	<line x1="1293.35" y1="1260.25" x2="1319.01" y2="1254.70" style="stroke:#707070;stroke-width:5.62"/>
	<line x1="1329.95" y1="1252.29" x2="1355.53" y2="1246.66" style="stroke:#707070;stroke-width:5.62"/>
	<line x1="1366.47" y1="1244.25" x2="1392.13" y2="1238.70" style="stroke:#707070;stroke-width:5.62"/>
	<line x1="1402.99" y1="1236.28" x2="1428.65" y2="1230.73" style="stroke:#707070;stroke-width:5.62"/>
	<line x1="1439.59" y1="1228.32" x2="1465.17" y2="1222.69" style="stroke:#707070;stroke-width:5.62"/>
	<line x1="1476.27" y1="1220.92" x2="1502.49" y2="1219.87" style="stroke:#707070;stroke-width:5.62"/>
	<line x1="1513.67" y1="1219.47" x2="1539.90" y2="1218.42" style="stroke:#707070;stroke-width:5.62"/>
	<line x1="1551.08" y1="1218.02" x2="1577.30" y2="1216.98" style="stroke:#707070;stroke-width:5.62"/>
	<line x1="1588.48" y1="1216.49" x2="1614.70" y2="1215.53" style="stroke:#707070;stroke-width:5.62"/>
	<line x1="1625.88" y1="1215.05" x2="1652.11" y2="1214.08" style="stroke:#707070;stroke-width:5.62"/>
	<line x1="1663.29" y1="1213.60" x2="1689.51" y2="1212.63" style="stroke:#707070;stroke-width:5.62"/>
	<line x1="1700.77" y1="1212.23" x2="1726.91" y2="1211.19" style="stroke:#707070;stroke-width:5.62"/>
	<line x1="1738.09" y1="1210.70" x2="1764.32" y2="1209.74" style="stroke:#707070;stroke-width:5.62"/>
	<line x1="1775.58" y1="1209.34" x2="1801.80" y2="1208.29" style="stroke:#707070;stroke-width:5.62"/>
	<line x1="1812.98" y1="1207.89" x2="1839.12" y2="1206.84" style="stroke:#707070;stroke-width:5.62"/>
	<line x1="1850.38" y1="1206.44" x2="1876.53" y2="1205.39" style="stroke:#707070;stroke-width:5.62"/>
	<line x1="1887.79" y1="1204.99" x2="1914.01" y2="1203.95" style="stroke:#707070;stroke-width:5.62"/>
	<line x1="1925.19" y1="1203.54" x2="1951.41" y2="1202.58" style="stroke:#707070;stroke-width:5.62"/>
	<line x1="1962.59" y1="1202.10" x2="1988.82" y2="1201.05" style="stroke:#707070;stroke-width:5.62"/>
	<line x1="2000.00" y1="1200.65" x2="2026.22" y2="1199.68" style="stroke:#707070;stroke-width:5.62"/>
	<line x1="2037.40" y1="1199.20" x2="2063.62" y2="1198.15" style="stroke:#707070;stroke-width:5.62"/>
	<line x1="2074.80" y1="1197.75" x2="2101.03" y2="1196.79" style="stroke:#707070;stroke-width:5.62"/>
	<line x1="2112.21" y1="1196.30" x2="2138.43" y2="1195.34" style="stroke:#707070;stroke-width:5.62"/>
	<line x1="2149.61" y1="1194.94" x2="2175.83" y2="1193.89" style="stroke:#707070;stroke-width:5.62"/>
	<line x1="2187.10" y1="1193.41" x2="2213.24" y2="1192.44" style="stroke:#707070;stroke-width:5.62"/>
	<line x1="2224.42" y1="1192.04" x2="2250.64" y2="1190.99" style="stroke:#707070;stroke-width:5.62"/>
	<line x1="2261.82" y1="1190.51" x2="2271.55" y2="1190.19" style="stroke:#707070;stroke-width:5.62"/>
	<path d="" stroke-linejoin="round" style="fill:none;stroke:#707070;stroke-width:5.62"/>
	<circle cx="368.00" cy="1541.39" r="14.47" style="fill:#707070"/>
	<circle cx="368.00" cy="1541.39" r="11.66" style="fill:none;stroke:#707070;stroke-width:5.62"/>
	<circle cx="368.00" cy="1541.39" r="14.47" style="fill:#707070"/>
	<circle cx="368.00" cy="1541.39" r="11.66" style="fill:none;stroke:#707070;stroke-width:5.62"/>
	<circle cx="368.00" cy="1541.39" r="14.47" style="fill:#707070"/>
	<circle cx="368.00" cy="1541.39" r="11.66" style="fill:none;stroke:#707070;stroke-width:5.62"/>
	<circle cx="670.29" cy="1397.16" r="14.47" style="fill:#707070"/>
	<circle cx="670.29" cy="1397.16" r="11.66" style="fill:none;stroke:#707070;stroke-width:5.62"/>
	<circle cx="670.29" cy="1397.16" r="14.47" style="fill:#707070"/>
	<circle cx="670.29" cy="1397.16" r="11.66" style="fill:none;stroke:#707070;stroke-width:5.62"/>
	<circle cx="670.29" cy="1397.16" r="14.47" style="fill:#707070"/>
	<circle cx="670.29" cy="1397.16" r="11.66" style="fill:none;stroke:#707070;stroke-width:5.62"/>
	<circle cx="670.29" cy="1397.16" r="14.47" style="fill:#707070"/>
	<circle cx="670.29" cy="1397.16" r="11.66" style="fill:none;stroke:#707070;stroke-width:5.62"/>
	<circle cx="1472.57" cy="1221.08" r="14.47" style="fill:#707070"/>
	<circle cx="1472.57" cy="1221.08" r="11.66" style="fill:none;stroke:#707070;stroke-width:5.62"/>
	<circle cx="1472.57" cy="1221.08" r="14.47" style="fill:#707070"/>
	<circle cx="1472.57" cy="1221.08" r="11.66" style="fill:none;stroke:#707070;stroke-width:5.62"/>
	<circle cx="2271.55" cy="1190.19" r="14.47" style="fill:#707070"/>
	<circle cx="2271.55" cy="1190.19" r="11.66" style="fill:none;stroke:#707070;stroke-width:5.62"/>
	<path d=" M383.45 1541.39 L383.45 1541.39 L685.65 1397.16 L685.65 1397.16 L685.65 1397.16 L685.65 1397.16 L685.65 1397.16 L685.65 1397.16 L1487.93 1208.61 L1487.93 1208.61 L2292.47 1155.52 L2292.47 1155.52" stroke-linejoin="round" style="fill:none;stroke:#000000;stroke-width:5.62"/>
	<circle cx="383.45" cy="1541.39" r="14.47" style="fill:#000000"/>
	<circle cx="383.45" cy="1541.39" r="11.66" style="fill:none;stroke:#000000;stroke-width:5.62"/>
	<circle cx="383.45" cy="1541.39" r="14.47" style="fill:#000000"/>
	<circle cx="383.45" cy="1541.39" r="11.66" style="fill:none;stroke:#000000;stroke-width:5.62"/>
	<circle cx="685.65" cy="1397.16" r="14.47" style="fill:#000000"/>
	<circle cx="685.65" cy="1397.16" r="11.66" style="fill:none;stroke:#000000;stroke-width:5.62"/>
	<circle cx="685.65" cy="1397.16" r="14.47" style="fill:#000000"/>
	<circle cx="685.65" cy="1397.16" r="11.66" style="fill:none;stroke:#000000;stroke-width:5.62"/>
	<circle cx="685.65" cy="1397.16" r="14.47" style="fill:#000000"/>
	<circle cx="685.65" cy="1397.16" r="11.66" style="fill:none;stroke:#000000;stroke-width:5.62"/>
	<circle cx="685.65" cy="1397.16" r="14.47" style="fill:#000000"/>
	<circle cx="685.65" cy="1397.16" r="11.66" style="fill:none;stroke:#000000;stroke-width:5.62"/>
	<circle cx="685.65" cy="1397.16" r="14.47" style="fill:#000000"/>
	<circle cx="685.65" cy="1397.16" r="11.66" style="fill:none;stroke:#000000;stroke-width:5.62"/>
	<circle cx="685.65" cy="1397.16" r="14.47" style="fill:#000000"/>
	<circle cx="685.65" cy="1397.16" r="11.66" style="fill:none;stroke:#000000;stroke-width:5.62"/>
	<circle cx="1487.93" cy="1208.61" r="14.47" style="fill:#000000"/>
	<circle cx="1487.93" cy="1208.61" r="11.66" style="fill:none;stroke:#000000;stroke-width:5.62"/>
	<circle cx="1487.93" cy="1208.61" r="14.47" style="fill:#000000"/>
	<circle cx="1487.93" cy="1208.61" r="11.66" style="fill:none;stroke:#000000;stroke-width:5.62"/>
	<circle cx="2292.47" cy="1155.52" r="14.47" style="fill:#000000"/>
	<circle cx="2292.47" cy="1155.52" r="11.66" style="fill:none;stroke:#000000;stroke-width:5.62"/>
	<circle cx="2292.47" cy="1155.52" r="14.47" style="fill:#000000"/>
	<circle cx="2292.47" cy="1155.52" r="11.66" style="fill:none;stroke:#000000;stroke-width:5.62"/>
	<line x1="227.96" y1="1582.58" x2="227.96" y2="139.97" style="stroke:#000000;stroke-width:3.74"/>
	<line x1="227.96" y1="1541.39" x2="201.98" y2="1541.39" style="stroke:#000000;stroke-width:3.74"/>
	<text x="173.32" y="1541.39" style="font-family:'Helvetica';font-size:51.96px;fill:#000000" transform="rotate(-90 173.32,1541.39)" text-anchor="middle">0</text>
	<line x1="227.96" y1="1405.37" x2="201.98" y2="1405.37" style="stroke:#000000;stroke-width:3.74"/>
	<text x="173.32" y="1405.37" style="font-family:'Helvetica';font-size:51.96px;fill:#000000" transform="rotate(-90 173.32,1405.37)" text-anchor="middle">.1</text>
	<line x1="227.96" y1="1269.34" x2="201.98" y2="1269.34" style="stroke:#000000;stroke-width:3.74"/>
	<text x="173.32" y="1269.34" style="font-family:'Helvetica';font-size:51.96px;fill:#000000" transform="rotate(-90 173.32,1269.34)" text-anchor="middle">.2</text>
	<line x1="227.96" y1="1133.32" x2="201.98" y2="1133.32" style="stroke:#000000;stroke-width:3.74"/>
	<text x="173.32" y="1133.32" style="font-family:'Helvetica';font-size:51.96px;fill:#000000" transform="rotate(-90 173.32,1133.32)" text-anchor="middle">.3</text>
	<line x1="227.96" y1="997.30" x2="201.98" y2="997.30" style="stroke:#000000;stroke-width:3.74"/>
	<text x="173.32" y="997.30" style="font-family:'Helvetica';font-size:51.96px;fill:#000000" transform="rotate(-90 173.32,997.30)" text-anchor="middle">.4</text>
	<line x1="227.96" y1="861.27" x2="201.98" y2="861.27" style="stroke:#000000;stroke-width:3.74"/>
	<text x="173.32" y="861.27" style="font-family:'Helvetica';font-size:51.96px;fill:#000000" transform="rotate(-90 173.32,861.27)" text-anchor="middle">.5</text>
	<line x1="227.96" y1="725.25" x2="201.98" y2="725.25" style="stroke:#000000;stroke-width:3.74"/>
	<text x="173.32" y="725.25" style="font-family:'Helvetica';font-size:51.96px;fill:#000000" transform="rotate(-90 173.32,725.25)" text-anchor="middle">.6</text>
	<line x1="227.96" y1="589.22" x2="201.98" y2="589.22" style="stroke:#000000;stroke-width:3.74"/>
	<text x="173.32" y="589.22" style="font-family:'Helvetica';font-size:51.96px;fill:#000000" transform="rotate(-90 173.32,589.22)" text-anchor="middle">.7</text>
	<line x1="227.96" y1="453.20" x2="201.98" y2="453.20" style="stroke:#000000;stroke-width:3.74"/>
	<text x="173.32" y="453.20" style="font-family:'Helvetica';font-size:51.96px;fill:#000000" transform="rotate(-90 173.32,453.20)" text-anchor="middle">.8</text>
	<line x1="227.96" y1="317.17" x2="201.98" y2="317.17" style="stroke:#000000;stroke-width:3.74"/>
	<text x="173.32" y="317.17" style="font-family:'Helvetica';font-size:51.96px;fill:#000000" transform="rotate(-90 173.32,317.17)" text-anchor="middle">.9</text>
	<line x1="227.96" y1="181.15" x2="201.98" y2="181.15" style="stroke:#000000;stroke-width:3.74"/>
	<text x="173.32" y="181.15" style="font-family:'Helvetica';font-size:51.96px;fill:#000000" transform="rotate(-90 173.32,181.15)" text-anchor="middle">1</text>
	<text x="114.84" y="861.27" style="font-family:'Helvetica';font-size:51.96px;fill:#000000" transform="rotate(-90 114.84,861.27)" text-anchor="middle">Transition Probabilities</text>
	<line x1="227.96" y1="1582.58" x2="2508.36" y2="1582.58" style="stroke:#000000;stroke-width:3.74"/>
	<line x1="269.14" y1="1582.58" x2="269.14" y2="1608.56" style="stroke:#000000;stroke-width:3.74"/>
	<text x="269.14" y="1657.84" style="font-family:'Helvetica';font-size:51.96px;fill:#000000" text-anchor="middle">0</text>
	<line x1="670.29" y1="1582.58" x2="670.29" y2="1608.56" style="stroke:#000000;stroke-width:3.74"/>
	<text x="670.29" y="1657.84" style="font-family:'Helvetica';font-size:51.96px;fill:#000000" text-anchor="middle">365</text>
	<line x1="1071.43" y1="1582.58" x2="1071.43" y2="1608.56" style="stroke:#000000;stroke-width:3.74"/>
	<text x="1071.43" y="1657.84" style="font-family:'Helvetica';font-size:51.96px;fill:#000000" text-anchor="middle">730</text>
	<line x1="1472.57" y1="1582.58" x2="1472.57" y2="1608.56" style="stroke:#000000;stroke-width:3.74"/>
	<text x="1472.57" y="1657.84" style="font-family:'Helvetica';font-size:51.96px;fill:#000000" text-anchor="middle">1095</text>
	<line x1="1873.71" y1="1582.58" x2="1873.71" y2="1608.56" style="stroke:#000000;stroke-width:3.74"/>
	<text x="1873.71" y="1657.84" style="font-family:'Helvetica';font-size:51.96px;fill:#000000" text-anchor="middle">1460</text>
	<line x1="2274.85" y1="1582.58" x2="2274.85" y2="1608.56" style="stroke:#000000;stroke-width:3.74"/>
	<text x="2274.85" y="1657.84" style="font-family:'Helvetica';font-size:51.96px;fill:#000000" text-anchor="middle">1825</text>
	<text x="1368.16" y="1716.40" style="font-family:'Helvetica';font-size:51.96px;fill:#000000" text-anchor="middle">Time since entering the study</text>
	<rect x="2048.66" y="1374.00" width="437.26" height="186.06" style="fill:#FFFFFF"/>
	<rect x="2050.53" y="1375.87" width="433.51" height="182.31" style="fill:none;stroke:#000000;stroke-width:3.74"/>
	<line x1="2076.74" y1="1428.05" x2="2102.96" y2="1428.05" style="stroke:#707070;stroke-width:5.62"/>
	<line x1="2114.14" y1="1428.05" x2="2140.36" y2="1428.05" style="stroke:#707070;stroke-width:5.62"/>
	<line x1="2151.62" y1="1428.05" x2="2167.71" y2="1428.05" style="stroke:#707070;stroke-width:5.62"/>
	<line x1="2076.74" y1="1442.29" x2="2076.74" y2="1416.07" style="stroke:#707070;stroke-width:5.62"/>
	<line x1="2167.71" y1="1442.29" x2="2167.71" y2="1416.07" style="stroke:#707070;stroke-width:5.62"/>
	<line x1="2076.74" y1="1506.00" x2="2167.71" y2="1506.00" style="stroke:#000000;stroke-width:5.62"/>
	<line x1="2076.74" y1="1520.32" x2="2076.74" y2="1491.68" style="stroke:#000000;stroke-width:5.62"/>
	<line x1="2167.71" y1="1520.32" x2="2167.71" y2="1491.68" style="stroke:#000000;stroke-width:5.62"/>
	<text x="2186.45" y="1446.26" style="font-family:'Helvetica';font-size:51.96px;fill:#000000">Ambulatory</text>
	<text x="2186.45" y="1524.21" style="font-family:'Helvetica';font-size:51.96px;fill:#000000">Residential</text>
	<text x="239.22" y="1783.52" style="font-family:'Helvetica';font-style:italic;font-size:39.01px;fill:#000000">Note. Means and 95% CI's; for Ambulatory, we selected time _t 1822 because there were missing values at _t 1827</text>
	<text x="1368.16" y="113.07" style="font-family:'Helvetica';font-size:51.96px;fill:#000000" text-anchor="middle">Transition Probabilities from Readmission to Second Readmission with confidence intervals</text>
</svg>
