<?xml version="1.0" encoding="UTF-8" standalone="no"?>
<!-- This is a Stata 16.1 generated SVG file (http://www.stata.com) -->

<svg version="1.1" width="5.50in" height="4.00in" viewBox="0 0 3960 2880" xmlns="http://www.w3.org/2000/svg" xmlns:xlink="http://www.w3.org/1999/xlink">
	<desc>Stata Graph - diff_los_mod11_3y_rp_tc_22</desc>
	<rect x="0" y="0" width="3960" height="2880" style="fill:#EAF2F3;stroke:none"/>
	<rect x="0.00" y="0.00" width="3959.88" height="2880.00" style="fill:#FFFFFF"/>
	<rect x="2.88" y="2.88" width="3954.12" height="2874.24" style="fill:none;stroke:#FFFFFF;stroke-width:5.76"/>
	<rect x="390.80" y="419.90" width="3468.22" height="2089.34" style="fill:#FFFFFF"/>
	<rect x="393.68" y="422.78" width="3462.46" height="2083.58" style="fill:none;stroke:#FFFFFF;stroke-width:5.76"/>
	<line x1="390.80" y1="2445.87" x2="3859.02" y2="2445.87" style="stroke:#EAF2F3;stroke-width:8.64"/>
	<line x1="390.80" y1="1791.71" x2="3859.02" y2="1791.71" style="stroke:#EAF2F3;stroke-width:8.64"/>
	<line x1="390.80" y1="1137.42" x2="3859.02" y2="1137.42" style="stroke:#EAF2F3;stroke-width:8.64"/>
	<line x1="390.80" y1="483.26" x2="3859.02" y2="483.26" style="stroke:#EAF2F3;stroke-width:8.64"/>
	<line x1="390.80" y1="483.26" x2="3859.02" y2="483.26" style="stroke:#1A476F;stroke-width:8.64"/>
	<defs>
		<path id="path_trljhAef" d="M618.87 485.98 L618.87 485.98 L636.57 485.98 L636.57 486.72 L654.27 486.72 L654.27 487.59 L672.09 487.59 L672.09 488.58 L689.78 488.58 L689.78 489.69 L707.60 489.69 L707.60 491.06 L725.30 491.06 L725.30 492.54 L743.00 492.54 L743.00 494.15 L760.82 494.15 L760.82 496.01 L778.51 496.01 L778.51 497.99 L796.33 497.99 L796.33 500.21 L814.03 500.21 L814.03 502.56 L831.72 502.56 L831.72 505.04 L849.54 505.04 L849.54 507.76 L867.24 507.76 L867.24 510.61 L885.06 510.61 L885.06 513.58 L902.76 513.58 L902.76 516.80 L920.45 516.80 L920.45 520.01 L938.27 520.01 L938.27 523.48 L955.97 523.48 L955.97 527.07 L973.66 527.07 L973.66 530.90 L991.49 530.90 L991.49 534.74 L1009.18 534.74 L1009.18 538.82 L1027.00 538.82 L1027.00 543.16 L1044.70 543.16 L1044.70 547.61 L1062.39 547.61 L1062.39 552.19 L1080.21 552.19 L1080.21 556.89 L1097.91 556.89 L1097.91 561.72 L1115.73 561.72 L1115.73 566.79 L1133.43 566.79 L1133.43 571.87 L1151.12 571.87 L1151.12 577.19 L1168.94 577.19 L1168.94 582.51 L1186.64 582.51 L1186.64 588.08 L1204.46 588.08 L1204.46 593.77 L1222.15 593.77 L1222.15 599.59 L1239.85 599.59 L1239.85 605.53 L1257.67 605.53 L1257.67 611.59 L1275.37 611.59 L1275.37 617.78 L1293.19 617.78 L1293.19 624.21 L1310.88 624.21 L1310.88 630.77 L1328.58 630.77 L1328.58 637.33 L1346.40 637.33 L1346.40 644.02 L1364.10 644.02 L1364.10 650.82 L1381.92 650.82 L1381.92 657.75 L1399.61 657.75 L1399.61 664.68 L1417.31 664.68 L1417.31 671.86 L1435.13 671.86 L1435.13 679.04 L1452.83 679.04 L1452.83 686.46 L1470.64 686.46 L1470.64 693.89 L1488.34 693.89 L1488.34 701.44 L1506.04 701.44 L1506.04 709.11 L1523.86 709.11 L1523.86 716.78 L1541.55 716.78 L1541.55 724.70 L1559.37 724.70 L1559.37 732.62 L1577.07 732.62 L1577.07 740.67 L1594.77 740.67 L1594.77 748.83 L1612.59 748.83 L1612.59 757.00 L1630.28 757.00 L1630.28 765.42 L1648.10 765.42 L1648.10 773.83 L1665.80 773.83 L1665.80 782.25 L1683.49 782.25 L1683.49 790.91 L1701.32 790.91 L1701.32 799.70 L1719.01 799.70 L1719.01 808.48 L1736.83 808.48 L1736.83 817.39 L1754.53 817.39 L1754.53 826.43 L1772.22 826.43 L1772.22 835.46 L1790.04 835.46 L1790.04 844.50 L1807.74 844.50 L1807.74 853.65 L1825.56 853.65 L1825.56 862.94 L1843.26 862.94 L1843.26 872.22 L1860.95 872.22 L1860.95 881.50 L1878.77 881.50 L1878.77 890.90 L1896.47 890.90 L1896.47 900.43 L1914.29 900.43 L1914.29 909.84 L1931.98 909.84 L1931.98 919.37 L1949.68 919.37 L1949.68 928.90 L1967.50 928.90 L1967.50 938.55 L1985.20 938.55 L1985.20 948.20 L2003.02 948.20 L2003.02 957.98 L2020.71 957.98 L2020.71 967.76 L2038.41 967.76 L2038.41 977.66 L2056.23 977.66 L2056.23 987.68 L2073.93 987.68 L2073.93 997.58 L2091.75 997.58 L2091.75 1007.73 L2109.44 1007.73 L2109.44 1017.88 L2127.14 1017.88 L2127.14 1028.02 L2144.96 1028.02 L2144.96 1038.17 L2162.66 1038.17 L2162.66 1048.44 L2180.47 1048.44 L2180.47 1058.71 L2198.17 1058.71 L2198.17 1069.11 L2215.87 1069.11 L2215.87 1079.50 L2233.69 1079.50 L2233.69 1090.02 L2251.38 1090.02 L2251.38 1100.54 L2269.20 1100.54 L2269.20 1111.19 L2286.90 1111.19 L2286.90 1121.83 L2304.60 1121.83 L2304.60 1132.47 L2322.42 1132.47 L2322.42 1143.11 L2340.11 1143.11 L2340.11 1153.88 L2357.93 1153.88 L2357.93 1164.65 L2375.63 1164.65 L2375.63 1175.54 L2393.32 1175.54 L2393.32 1186.43 L2411.14 1186.43 L2411.14 1197.44 L2428.84 1197.44 L2428.84 1208.46 L2446.66 1208.46 L2446.66 1219.59 L2464.36 1219.59 L2464.36 1230.73 L2482.05 1230.73 L2482.05 1241.87 L2499.87 1241.87 L2499.87 1253.13 L2517.57 1253.13 L2517.57 1264.27 L2535.39 1264.27 L2535.39 1275.53 L2553.09 1275.53 L2553.09 1286.92 L2570.78 1286.92 L2570.78 1298.30 L2588.60 1298.30 L2588.60 1309.69 L2606.30 1309.69 L2606.30 1321.20 L2624.12 1321.20 L2624.12 1332.71 L2641.82 1332.71 L2641.82 1344.21 L2659.51 1344.21 L2659.51 1355.85 L2677.33 1355.85 L2677.33 1367.48 L2695.03 1367.48 L2695.03 1379.24 L2712.85 1379.24 L2712.85 1390.87 L2730.54 1390.87 L2730.54 1402.63 L2748.24 1402.63 L2748.24 1414.51 L2766.06 1414.51 L2766.06 1426.26 L2783.76 1426.26 L2783.76 1438.27 L2801.58 1438.27 L2801.58 1450.15 L2819.27 1450.15 L2819.27 1462.15 L2836.97 1462.15 L2836.97 1474.16 L2854.79 1474.16 L2854.79 1486.16 L2872.49 1486.16 L2872.49 1498.29 L2890.18 1498.29 L2890.18 1510.29 L2908.00 1510.29 L2908.00 1522.42 L2925.70 1522.42 L2925.70 1534.67 L2943.52 1534.67 L2943.52 1546.80 L2961.21 1546.80 L2961.21 1559.05 L2978.91 1559.05 L2978.91 1571.30 L2996.73 1571.30 L2996.73 1583.68 L3014.43 1583.68 L3014.43 1596.05 L3032.25 1596.05 L3032.25 1608.43 L3049.94 1608.43 L3049.94 1620.80 L3067.64 1620.80 L3067.64 1633.30 L3085.46 1633.30 L3085.46 1645.80 L3103.16 1645.80 L3103.16 1658.30 L3120.97 1658.30 L3120.97 1670.92 L3138.67 1670.92 L3138.67 1683.42 L3156.37 1683.42 L3156.37 1696.05 L3174.19 1696.05 L3174.19 1708.67 L3191.88 1708.67 L3191.88 1721.29 L3209.70 1721.29 L3209.70 1733.92 L3227.40 1733.92 L3227.40 1746.66 L3245.10 1746.66 L3245.10 1759.41 L3262.92 1759.41 L3262.92 1772.16 L3280.61 1772.16 L3280.61 1784.90 L3298.43 1784.90 L3298.43 1797.65 L3316.13 1797.65 L3316.13 1810.52 L3333.82 1810.52 L3333.82 1823.27 L3351.64 1823.27 L3351.64 1836.14 L3369.34 1836.14 L3369.34 1849.01 L3387.16 1849.01 L3387.16 1861.88 L3404.86 1861.88 L3404.86 1874.75 L3422.55 1874.75 L3422.55 1887.74 L3440.37 1887.74 L3440.37 1900.61 L3458.07 1900.61 L3458.07 1913.61 L3475.89 1913.61 L3475.89 1926.48 L3493.59 1926.48 L3493.59 1939.47 L3511.28 1939.47 L3511.28 1952.46 L3529.10 1952.46 L3529.10 1965.46 L3546.80 1965.46 L3546.80 1978.58 L3564.62 1978.58 L3564.62 1991.57 L3582.32 1991.57 L3582.32 2004.69 L3600.01 2004.69 L3600.01 2017.68 L3617.83 2017.68 L3617.83 2030.80 L3635.53 2030.80 L3635.53 2043.92 L3653.35 2043.92 L3653.35 2057.04 L3671.04 2057.04 L3671.04 2070.15 L3688.74 2070.15 L3688.74 2083.40 L3706.56 2083.40 L3706.56 2096.51 L3724.26 2096.51 L3724.26 2109.63 L3742.08 2109.63 L3742.08 2122.87 L3759.77 2122.87 L3759.77 2135.99 L3777.47 2135.99 L3777.47 2149.23 L3795.29 2149.23 L3795.29 2162.48 L3795.29 1739.73 L3795.29 1729.83 L3777.47 1729.83 L3777.47 1719.93 L3759.77 1719.93 L3759.77 1710.03 L3742.08 1710.03 L3742.08 1700.25 L3724.26 1700.25 L3724.26 1690.35 L3706.56 1690.35 L3706.56 1680.45 L3688.74 1680.45 L3688.74 1670.55 L3671.04 1670.55 L3671.04 1660.78 L3653.35 1660.78 L3653.35 1650.88 L3635.53 1650.88 L3635.53 1640.98 L3617.83 1640.98 L3617.83 1631.20 L3600.01 1631.20 L3600.01 1621.42 L3582.32 1621.42 L3582.32 1611.65 L3564.62 1611.65 L3564.62 1601.75 L3546.80 1601.75 L3546.80 1591.97 L3529.10 1591.97 L3529.10 1582.19 L3511.28 1582.19 L3511.28 1572.54 L3493.59 1572.54 L3493.59 1562.76 L3475.89 1562.76 L3475.89 1552.99 L3458.07 1552.99 L3458.07 1543.33 L3440.37 1543.33 L3440.37 1533.56 L3422.55 1533.56 L3422.55 1523.91 L3404.86 1523.91 L3404.86 1514.13 L3387.16 1514.13 L3387.16 1504.48 L3369.34 1504.48 L3369.34 1494.82 L3351.64 1494.82 L3351.64 1485.17 L3333.82 1485.17 L3333.82 1475.52 L3316.13 1475.52 L3316.13 1465.86 L3298.43 1465.86 L3298.43 1456.34 L3280.61 1456.34 L3280.61 1446.68 L3262.92 1446.68 L3262.92 1437.03 L3245.10 1437.03 L3245.10 1427.50 L3227.40 1427.50 L3227.40 1417.97 L3209.70 1417.97 L3209.70 1408.44 L3191.88 1408.44 L3191.88 1398.91 L3174.19 1398.91 L3174.19 1389.51 L3156.37 1389.51 L3156.37 1379.98 L3138.67 1379.98 L3138.67 1370.57 L3120.97 1370.57 L3120.97 1361.05 L3103.16 1361.05 L3103.16 1351.64 L3085.46 1351.64 L3085.46 1342.23 L3067.64 1342.23 L3067.64 1332.95 L3049.94 1332.95 L3049.94 1323.55 L3032.25 1323.55 L3032.25 1314.27 L3014.43 1314.27 L3014.43 1304.86 L2996.73 1304.86 L2996.73 1295.70 L2978.91 1295.70 L2978.91 1286.42 L2961.21 1286.42 L2961.21 1277.26 L2943.52 1277.26 L2943.52 1268.11 L2925.70 1268.11 L2925.70 1258.95 L2908.00 1258.95 L2908.00 1249.91 L2890.18 1249.91 L2890.18 1240.76 L2872.49 1240.76 L2872.49 1231.72 L2854.79 1231.72 L2854.79 1222.69 L2836.97 1222.69 L2836.97 1213.65 L2819.27 1213.65 L2819.27 1204.62 L2801.58 1204.62 L2801.58 1195.71 L2783.76 1195.71 L2783.76 1186.68 L2766.06 1186.68 L2766.06 1177.89 L2748.24 1177.89 L2748.24 1168.98 L2730.54 1168.98 L2730.54 1160.07 L2712.85 1160.07 L2712.85 1151.28 L2695.03 1151.28 L2695.03 1142.50 L2677.33 1142.50 L2677.33 1133.83 L2659.51 1133.83 L2659.51 1125.05 L2641.82 1125.05 L2641.82 1116.38 L2624.12 1116.38 L2624.12 1107.72 L2606.30 1107.72 L2606.30 1099.06 L2588.60 1099.06 L2588.60 1090.52 L2570.78 1090.52 L2570.78 1081.98 L2553.09 1081.98 L2553.09 1073.56 L2535.39 1073.56 L2535.39 1065.03 L2517.57 1065.03 L2517.57 1056.61 L2499.87 1056.61 L2499.87 1048.20 L2482.05 1048.20 L2482.05 1039.90 L2464.36 1039.90 L2464.36 1031.49 L2446.66 1031.49 L2446.66 1023.07 L2428.84 1023.07 L2428.84 1014.78 L2411.14 1014.78 L2411.14 1006.61 L2393.32 1006.61 L2393.32 998.45 L2375.63 998.45 L2375.63 990.28 L2357.93 990.28 L2357.93 982.23 L2340.11 982.23 L2340.11 974.19 L2322.42 974.19 L2322.42 966.15 L2304.60 966.15 L2304.60 958.10 L2286.90 958.10 L2286.90 950.18 L2269.20 950.18 L2269.20 942.14 L2251.38 942.14 L2251.38 934.22 L2233.69 934.22 L2233.69 926.42 L2215.87 926.42 L2215.87 918.62 L2198.17 918.62 L2198.17 910.83 L2180.47 910.83 L2180.47 903.16 L2162.66 903.16 L2162.66 895.48 L2144.96 895.48 L2144.96 887.81 L2127.14 887.81 L2127.14 880.26 L2109.44 880.26 L2109.44 872.59 L2091.75 872.59 L2091.75 865.04 L2073.93 865.04 L2073.93 857.61 L2056.23 857.61 L2056.23 850.07 L2038.41 850.07 L2038.41 842.76 L2020.71 842.76 L2020.71 835.34 L2003.02 835.34 L2003.02 828.04 L1985.20 828.04 L1985.20 820.86 L1967.50 820.86 L1967.50 813.68 L1949.68 813.68 L1949.68 806.50 L1931.98 806.50 L1931.98 799.45 L1914.29 799.45 L1914.29 792.27 L1896.47 792.27 L1896.47 785.22 L1878.77 785.22 L1878.77 778.16 L1860.95 778.16 L1860.95 771.11 L1843.26 771.11 L1843.26 764.18 L1825.56 764.18 L1825.56 757.25 L1807.74 757.25 L1807.74 750.32 L1790.04 750.32 L1790.04 743.51 L1772.22 743.51 L1772.22 736.83 L1754.53 736.83 L1754.53 730.02 L1736.83 730.02 L1736.83 723.34 L1719.01 723.34 L1719.01 716.66 L1701.32 716.66 L1701.32 710.10 L1683.49 710.10 L1683.49 703.66 L1665.80 703.66 L1665.80 697.23 L1648.10 697.23 L1648.10 690.92 L1630.28 690.92 L1630.28 684.73 L1612.59 684.73 L1612.59 678.54 L1594.77 678.54 L1594.77 672.48 L1577.07 672.48 L1577.07 666.41 L1559.37 666.41 L1559.37 660.47 L1541.55 660.47 L1541.55 654.66 L1523.86 654.66 L1523.86 648.97 L1506.04 648.97 L1506.04 643.15 L1488.34 643.15 L1488.34 637.58 L1470.64 637.58 L1470.64 632.01 L1452.83 632.01 L1452.83 626.57 L1435.13 626.57 L1435.13 621.12 L1417.31 621.12 L1417.31 615.80 L1399.61 615.80 L1399.61 610.60 L1381.92 610.60 L1381.92 605.53 L1364.10 605.53 L1364.10 600.45 L1346.40 600.45 L1346.40 595.50 L1328.58 595.50 L1328.58 590.68 L1310.88 590.68 L1310.88 585.85 L1293.19 585.85 L1293.19 581.02 L1275.37 581.02 L1275.37 576.45 L1257.67 576.45 L1257.67 571.99 L1239.85 571.99 L1239.85 567.54 L1222.15 567.54 L1222.15 563.20 L1204.46 563.20 L1204.46 559.00 L1186.64 559.00 L1186.64 554.91 L1168.94 554.91 L1168.94 550.95 L1151.12 550.95 L1151.12 546.99 L1133.43 546.99 L1133.43 543.28 L1115.73 543.28 L1115.73 539.57 L1097.91 539.57 L1097.91 535.98 L1080.21 535.98 L1080.21 532.51 L1062.39 532.51 L1062.39 529.17 L1044.70 529.17 L1044.70 525.83 L1027.00 525.83 L1027.00 522.61 L1009.18 522.61 L1009.18 519.64 L991.49 519.64 L991.49 516.80 L973.66 516.80 L973.66 514.07 L955.97 514.07 L955.97 511.35 L938.27 511.35 L938.27 508.88 L920.45 508.88 L920.45 506.40 L902.76 506.40 L902.76 504.17 L885.06 504.17 L885.06 501.95 L867.24 501.95 L867.24 499.84 L849.54 499.84 L849.54 497.86 L831.72 497.86 L831.72 496.01 L814.03 496.01 L814.03 494.27 L796.33 494.27 L796.33 492.79 L778.51 492.79 L778.51 491.30 L760.82 491.30 L760.82 490.07 L743.00 490.07 L743.00 488.95 L725.30 488.95 L725.30 487.84 L707.60 487.84 L707.60 486.97 L689.78 486.97 L689.78 486.23 L672.09 486.23 L672.09 485.61 L654.27 485.61 L654.27 485.12 L636.57 485.12 L636.57 484.62 L618.87 484.62 L618.87 485.98 Z" stroke-linejoin="round"/>
	</defs>
	<defs>
		<clipPath id="clipPath_IEvTjRxp">
			<use xlink:href="#path_trljhAef"/>
		</clipPath>
	</defs>
	<use xlink:href="#path_trljhAef" style="stroke:none;fill:#999999;fill-opacity:0.65"/>
	<use xlink:href="#path_trljhAef" style="fill:none;stroke:#808080;stroke-opacity:0.65;stroke-width:17.28" clip-path="url(#clipPath_IEvTjRxp)"/>
	<path d=" M618.75 485.36 L636.45 485.36 L636.45 485.98 L654.27 485.98 L654.27 486.72 L671.96 486.72 L671.96 487.47 L689.78 487.47 L689.78 488.46 L707.48 488.46 L707.48 489.57 L725.17 489.57 L725.17 490.81 L743.00 490.81 L743.00 492.17 L760.69 492.17 L760.69 493.78 L778.51 493.78 L778.51 495.51 L796.21 495.51 L796.21 497.37 L813.90 497.37 L813.90 499.35 L831.72 499.35 L831.72 501.57 L849.42 501.57 L849.42 503.80 L867.24 503.80 L867.24 506.28 L884.94 506.28 L884.94 508.88 L902.63 508.88 L902.63 511.60 L920.45 511.60 L920.45 514.57 L938.15 514.57 L938.15 517.54 L955.97 517.54 L955.97 520.63 L973.66 520.63 L973.66 523.85 L991.36 523.85 L991.36 527.19 L1009.18 527.19 L1009.18 530.78 L1026.88 530.78 L1026.88 534.49 L1044.70 534.49 L1044.70 538.45 L1062.39 538.45 L1062.39 542.41 L1080.09 542.41 L1080.09 546.50 L1097.91 546.50 L1097.91 550.70 L1115.61 550.70 L1115.61 555.04 L1133.43 555.04 L1133.43 559.49 L1151.12 559.49 L1151.12 564.07 L1168.82 564.07 L1168.82 568.77 L1186.64 568.77 L1186.64 573.60 L1204.34 573.60 L1204.34 578.55 L1222.15 578.55 L1222.15 583.62 L1239.85 583.62 L1239.85 588.82 L1257.55 588.82 L1257.55 594.02 L1275.37 594.02 L1275.37 599.46 L1293.06 599.46 L1293.06 605.03 L1310.88 605.03 L1310.88 610.73 L1328.58 610.73 L1328.58 616.42 L1346.28 616.42 L1346.28 622.36 L1364.10 622.36 L1364.10 628.17 L1381.79 628.17 L1381.79 634.24 L1399.61 634.24 L1399.61 640.30 L1417.31 640.30 L1417.31 646.61 L1435.01 646.61 L1435.01 652.80 L1452.83 652.80 L1452.83 659.24 L1470.52 659.24 L1470.52 665.80 L1488.34 665.80 L1488.34 672.35 L1506.04 672.35 L1506.04 679.04 L1523.73 679.04 L1523.73 685.84 L1541.55 685.84 L1541.55 692.65 L1559.25 692.65 L1559.25 699.58 L1577.07 699.58 L1577.07 706.63 L1594.77 706.63 L1594.77 713.69 L1612.46 713.69 L1612.46 720.99 L1630.28 720.99 L1630.28 728.29 L1647.98 728.29 L1647.98 735.59 L1665.80 735.59 L1665.80 743.02 L1683.49 743.02 L1683.49 750.57 L1701.19 750.57 L1701.19 758.24 L1719.01 758.24 L1719.01 765.91 L1736.71 765.91 L1736.71 773.83 L1754.53 773.83 L1754.53 781.63 L1772.22 781.63 L1772.22 789.55 L1789.92 789.55 L1789.92 797.47 L1807.74 797.47 L1807.74 805.51 L1825.44 805.51 L1825.44 813.56 L1843.26 813.56 L1843.26 821.73 L1860.95 821.73 L1860.95 829.89 L1878.65 829.89 L1878.65 838.18 L1896.47 838.18 L1896.47 846.48 L1914.16 846.48 L1914.16 854.77 L1931.86 854.77 L1931.86 863.06 L1949.68 863.06 L1949.68 871.35 L1967.38 871.35 L1967.38 879.77 L1985.20 879.77 L1985.20 888.18 L2002.89 888.18 L2002.89 896.72 L2020.59 896.72 L2020.59 905.26 L2038.41 905.26 L2038.41 913.92 L2056.11 913.92 L2056.11 922.71 L2073.93 922.71 L2073.93 931.37 L2091.62 931.37 L2091.62 940.16 L2109.32 940.16 L2109.32 949.07 L2127.14 949.07 L2127.14 957.98 L2144.84 957.98 L2144.84 966.89 L2162.66 966.89 L2162.66 975.80 L2180.35 975.80 L2180.35 984.83 L2198.05 984.83 L2198.05 993.87 L2215.87 993.87 L2215.87 1003.03 L2233.56 1003.03 L2233.56 1012.18 L2251.38 1012.18 L2251.38 1021.46 L2269.08 1021.46 L2269.08 1030.75 L2286.78 1030.75 L2286.78 1040.03 L2304.60 1040.03 L2304.60 1049.31 L2322.29 1049.31 L2322.29 1058.71 L2340.11 1058.71 L2340.11 1068.12 L2357.81 1068.12 L2357.81 1077.52 L2375.51 1077.52 L2375.51 1087.05 L2393.32 1087.05 L2393.32 1096.58 L2411.02 1096.58 L2411.02 1106.24 L2428.84 1106.24 L2428.84 1115.89 L2446.54 1115.89 L2446.54 1125.67 L2464.23 1125.67 L2464.23 1135.32 L2482.05 1135.32 L2482.05 1145.09 L2499.75 1145.09 L2499.75 1154.87 L2517.57 1154.87 L2517.57 1164.77 L2535.27 1164.77 L2535.27 1174.55 L2552.96 1174.55 L2552.96 1184.57 L2570.78 1184.57 L2570.78 1194.47 L2588.48 1194.47 L2588.48 1204.50 L2606.30 1204.50 L2606.30 1214.52 L2623.99 1214.52 L2623.99 1224.54 L2641.69 1224.54 L2641.69 1234.69 L2659.51 1234.69 L2659.51 1244.84 L2677.21 1244.84 L2677.21 1255.11 L2695.03 1255.11 L2695.03 1265.26 L2712.72 1265.26 L2712.72 1275.53 L2730.42 1275.53 L2730.42 1285.93 L2748.24 1285.93 L2748.24 1296.20 L2765.94 1296.20 L2765.94 1306.59 L2783.76 1306.59 L2783.76 1316.99 L2801.45 1316.99 L2801.45 1327.51 L2819.15 1327.51 L2819.15 1337.90 L2836.97 1337.90 L2836.97 1348.42 L2854.66 1348.42 L2854.66 1359.06 L2872.49 1359.06 L2872.49 1369.58 L2890.18 1369.58 L2890.18 1380.23 L2907.88 1380.23 L2907.88 1390.75 L2925.70 1390.75 L2925.70 1401.39 L2943.39 1401.39 L2943.39 1412.16 L2961.21 1412.16 L2961.21 1422.80 L2978.91 1422.80 L2978.91 1433.56 L2996.61 1433.56 L2996.61 1444.33 L3014.43 1444.33 L3014.43 1455.22 L3032.12 1455.22 L3032.12 1465.99 L3049.94 1465.99 L3049.94 1477.00 L3067.64 1477.00 L3067.64 1487.89 L3085.34 1487.89 L3085.34 1498.78 L3103.16 1498.78 L3103.16 1509.80 L3120.85 1509.80 L3120.85 1520.81 L3138.67 1520.81 L3138.67 1531.70 L3156.37 1531.70 L3156.37 1542.84 L3174.06 1542.84 L3174.06 1553.85 L3191.88 1553.85 L3191.88 1564.87 L3209.58 1564.87 L3209.58 1576.01 L3227.40 1576.01 L3227.40 1587.14 L3245.10 1587.14 L3245.10 1598.28 L3262.79 1598.28 L3262.79 1609.42 L3280.61 1609.42 L3280.61 1620.68 L3298.31 1620.68 L3298.31 1631.82 L3316.13 1631.82 L3316.13 1643.08 L3333.82 1643.08 L3333.82 1654.34 L3351.52 1654.34 L3351.52 1665.60 L3369.34 1665.60 L3369.34 1676.86 L3387.04 1676.86 L3387.04 1688.13 L3404.86 1688.13 L3404.86 1699.39 L3422.55 1699.39 L3422.55 1710.65 L3440.25 1710.65 L3440.25 1722.04 L3458.07 1722.04 L3458.07 1733.30 L3475.77 1733.30 L3475.77 1744.68 L3493.59 1744.68 L3493.59 1756.07 L3511.28 1756.07 L3511.28 1767.45 L3528.98 1767.45 L3528.98 1778.84 L3546.80 1778.84 L3546.80 1790.22 L3564.49 1790.22 L3564.49 1801.61 L3582.32 1801.61 L3582.32 1813.12 L3600.01 1813.12 L3600.01 1824.50 L3617.71 1824.50 L3617.71 1836.01 L3635.53 1836.01 L3635.53 1847.40 L3653.22 1847.40 L3653.22 1858.91 L3671.04 1858.91 L3671.04 1870.42 L3688.74 1870.42 L3688.74 1881.93 L3706.44 1881.93 L3706.44 1893.43 L3724.26 1893.43 L3724.26 1904.94 L3741.95 1904.94 L3741.95 1916.58 L3759.77 1916.58 L3759.77 1928.09 L3777.47 1928.09 L3777.47 1939.59 L3795.16 1939.59 L3795.16 1951.10" stroke-linejoin="round" style="fill:none;stroke:#000000;stroke-width:8.64"/>
	<line x1="390.80" y1="2509.23" x2="390.80" y2="419.90" style="stroke:#000000;stroke-width:5.76"/>
	<line x1="390.80" y1="2445.87" x2="350.83" y2="2445.87" style="stroke:#000000;stroke-width:5.76"/>
	<text x="300.72" y="2445.87" style="font-family:'Helvetica';font-size:99.99px;fill:#000000" transform="rotate(-90 300.72,2445.87)" text-anchor="middle">-150</text>
	<line x1="390.80" y1="1791.71" x2="350.83" y2="1791.71" style="stroke:#000000;stroke-width:5.76"/>
	<text x="300.72" y="1791.71" style="font-family:'Helvetica';font-size:99.99px;fill:#000000" transform="rotate(-90 300.72,1791.71)" text-anchor="middle">-100</text>
	<line x1="390.80" y1="1137.42" x2="350.83" y2="1137.42" style="stroke:#000000;stroke-width:5.76"/>
	<text x="300.72" y="1137.42" style="font-family:'Helvetica';font-size:99.99px;fill:#000000" transform="rotate(-90 300.72,1137.42)" text-anchor="middle">-50</text>
	<line x1="390.80" y1="483.26" x2="350.83" y2="483.26" style="stroke:#000000;stroke-width:5.76"/>
	<text x="300.72" y="483.26" style="font-family:'Helvetica';font-size:99.99px;fill:#000000" transform="rotate(-90 300.72,483.26)" text-anchor="middle">0</text>
	<text x="190.71" y="1464.63" style="font-family:'Helvetica';font-size:99.99px;fill:#000000" transform="rotate(-90 190.71,1464.63)" text-anchor="middle">Difference in Lengths</text>
	<line x1="390.80" y1="2509.23" x2="3859.02" y2="2509.23" style="stroke:#000000;stroke-width:5.76"/>
	<line x1="454.16" y1="2509.23" x2="454.16" y2="2549.21" style="stroke:#000000;stroke-width:5.76"/>
	<text x="454.16" y="2625.15" style="font-family:'Helvetica';font-size:79.94px;fill:#000000" text-anchor="middle">0</text>
	<line x1="654.64" y1="2509.23" x2="654.64" y2="2549.21" style="stroke:#000000;stroke-width:5.76"/>
	<text x="654.64" y="2625.15" style="font-family:'Helvetica';font-size:79.94px;fill:#000000" text-anchor="middle">.3</text>
	<line x1="855.11" y1="2509.23" x2="855.11" y2="2549.21" style="stroke:#000000;stroke-width:5.76"/>
	<text x="855.11" y="2625.15" style="font-family:'Helvetica';font-size:79.94px;fill:#000000" text-anchor="middle">.6</text>
	<line x1="1055.59" y1="2509.23" x2="1055.59" y2="2549.21" style="stroke:#000000;stroke-width:5.76"/>
	<text x="1055.59" y="2625.15" style="font-family:'Helvetica';font-size:79.94px;fill:#000000" text-anchor="middle">.9</text>
	<line x1="1256.06" y1="2509.23" x2="1256.06" y2="2549.21" style="stroke:#000000;stroke-width:5.76"/>
	<text x="1256.06" y="2625.15" style="font-family:'Helvetica';font-size:79.94px;fill:#000000" text-anchor="middle">1.2</text>
	<line x1="1456.66" y1="2509.23" x2="1456.66" y2="2549.21" style="stroke:#000000;stroke-width:5.76"/>
	<text x="1456.66" y="2625.15" style="font-family:'Helvetica';font-size:79.94px;fill:#000000" text-anchor="middle">1.5</text>
	<line x1="1657.14" y1="2509.23" x2="1657.14" y2="2549.21" style="stroke:#000000;stroke-width:5.76"/>
	<text x="1657.14" y="2625.15" style="font-family:'Helvetica';font-size:79.94px;fill:#000000" text-anchor="middle">1.8</text>
	<line x1="1857.61" y1="2509.23" x2="1857.61" y2="2549.21" style="stroke:#000000;stroke-width:5.76"/>
	<text x="1857.61" y="2625.15" style="font-family:'Helvetica';font-size:79.94px;fill:#000000" text-anchor="middle">2.1</text>
	<line x1="2058.09" y1="2509.23" x2="2058.09" y2="2549.21" style="stroke:#000000;stroke-width:5.76"/>
	<text x="2058.09" y="2625.15" style="font-family:'Helvetica';font-size:79.94px;fill:#000000" text-anchor="middle">2.4</text>
	<line x1="2258.56" y1="2509.23" x2="2258.56" y2="2549.21" style="stroke:#000000;stroke-width:5.76"/>
	<text x="2258.56" y="2625.15" style="font-family:'Helvetica';font-size:79.94px;fill:#000000" text-anchor="middle">2.7</text>
	<line x1="2459.04" y1="2509.23" x2="2459.04" y2="2549.21" style="stroke:#000000;stroke-width:5.76"/>
	<text x="2459.04" y="2625.15" style="font-family:'Helvetica';font-size:79.94px;fill:#000000" text-anchor="middle">3</text>
	<line x1="2659.64" y1="2509.23" x2="2659.64" y2="2549.21" style="stroke:#000000;stroke-width:5.76"/>
	<text x="2659.64" y="2625.15" style="font-family:'Helvetica';font-size:79.94px;fill:#000000" text-anchor="middle">3.3</text>
	<line x1="2860.11" y1="2509.23" x2="2860.11" y2="2549.21" style="stroke:#000000;stroke-width:5.76"/>
	<text x="2860.11" y="2625.15" style="font-family:'Helvetica';font-size:79.94px;fill:#000000" text-anchor="middle">3.6</text>
	<line x1="3060.59" y1="2509.23" x2="3060.59" y2="2549.21" style="stroke:#000000;stroke-width:5.76"/>
	<text x="3060.59" y="2625.15" style="font-family:'Helvetica';font-size:79.94px;fill:#000000" text-anchor="middle">3.9</text>
	<line x1="3261.06" y1="2509.23" x2="3261.06" y2="2549.21" style="stroke:#000000;stroke-width:5.76"/>
	<text x="3261.06" y="2625.15" style="font-family:'Helvetica';font-size:79.94px;fill:#000000" text-anchor="middle">4.2</text>
	<line x1="3461.53" y1="2509.23" x2="3461.53" y2="2549.21" style="stroke:#000000;stroke-width:5.76"/>
	<text x="3461.53" y="2625.15" style="font-family:'Helvetica';font-size:79.94px;fill:#000000" text-anchor="middle">4.5</text>
	<line x1="3662.01" y1="2509.23" x2="3662.01" y2="2549.21" style="stroke:#000000;stroke-width:5.76"/>
	<text x="3662.01" y="2625.15" style="font-family:'Helvetica';font-size:79.94px;fill:#000000" text-anchor="middle">4.8</text>
	<line x1="3862.61" y1="2509.23" x2="3862.61" y2="2549.21" style="stroke:#000000;stroke-width:5.76"/>
	<text x="3862.61" y="2625.15" style="font-family:'Helvetica';font-size:79.94px;fill:#000000" text-anchor="middle">5.1</text>
	<text x="2124.91" y="2729.16" style="font-family:'Helvetica';font-size:99.99px;fill:#000000" text-anchor="middle">Time (years)</text>
	<rect x="425.33" y="2148.24" width="993.22" height="326.46" style="fill:#FFFFFF"/>
	<rect x="428.21" y="2151.12" width="987.46" height="320.70" style="fill:none;stroke:#000000;stroke-width:5.76"/>
	<rect x="468.52" y="2191.43" width="374.47" height="99.99" style="fill:#999999;fill-opacity:0.65"/>
	<rect x="472.84" y="2195.75" width="365.83" height="91.35" style="fill:none;stroke:#808080;stroke-opacity:0.65;stroke-width:8.64"/>
	<line x1="468.52" y1="2381.52" x2="842.99" y2="2381.52" style="stroke:#000000;stroke-width:8.64"/>
	<text x="902.88" y="2276.46" style="font-family:'Helvetica';font-size:99.99px;fill:#000000">CI95%</text>
	<text x="902.88" y="2416.55" style="font-family:'Helvetica';font-size:99.99px;fill:#000000">Difference</text>
	<text x="2124.91" y="369.63" style="font-family:'Helvetica';font-size:110.01px;fill:#000000" text-anchor="middle">from Admission</text>
	<text x="2124.91" y="215.98" style="font-family:'Helvetica';font-size:139.96px;fill:#1E2D53" text-anchor="middle">Difference in Lengths of Stay (2nd patient)</text>
</svg>
