<?xml version="1.0" encoding="UTF-8" standalone="no"?>
<!-- This is a Stata 16.1 generated SVG file (http://www.stata.com) -->

<svg version="1.1" width="5.50in" height="4.00in" viewBox="0 0 3960 2880" xmlns="http://www.w3.org/2000/svg" xmlns:xlink="http://www.w3.org/1999/xlink">
	<desc>Stata Graph - diff_mod45_rp_3y</desc>
	<rect x="0" y="0" width="3960" height="2880" style="fill:#EAF2F3;stroke:none"/>
	<rect x="0.00" y="0.00" width="3959.88" height="2880.00" style="fill:#FFFFFF"/>
	<rect x="2.88" y="2.88" width="3954.12" height="2874.24" style="fill:none;stroke:#FFFFFF;stroke-width:5.76"/>
	<rect x="559.10" y="419.90" width="3299.92" height="2089.34" style="fill:#FFFFFF"/>
	<rect x="561.98" y="422.78" width="3294.16" height="2083.58" style="fill:none;stroke:#FFFFFF;stroke-width:5.76"/>
	<line x1="559.10" y1="2249.60" x2="3859.02" y2="2249.60" style="stroke:#EAF2F3;stroke-width:8.64"/>
	<line x1="559.10" y1="2053.32" x2="3859.02" y2="2053.32" style="stroke:#EAF2F3;stroke-width:8.64"/>
	<line x1="559.10" y1="1857.05" x2="3859.02" y2="1857.05" style="stroke:#EAF2F3;stroke-width:8.64"/>
	<line x1="559.10" y1="1660.78" x2="3859.02" y2="1660.78" style="stroke:#EAF2F3;stroke-width:8.64"/>
	<line x1="559.10" y1="1464.63" x2="3859.02" y2="1464.63" style="stroke:#EAF2F3;stroke-width:8.64"/>
	<line x1="559.10" y1="1268.35" x2="3859.02" y2="1268.35" style="stroke:#EAF2F3;stroke-width:8.64"/>
	<line x1="559.10" y1="1072.08" x2="3859.02" y2="1072.08" style="stroke:#EAF2F3;stroke-width:8.64"/>
	<line x1="559.10" y1="875.81" x2="3859.02" y2="875.81" style="stroke:#EAF2F3;stroke-width:8.64"/>
	<line x1="559.10" y1="679.53" x2="3859.02" y2="679.53" style="stroke:#EAF2F3;stroke-width:8.64"/>
	<line x1="559.10" y1="1464.63" x2="3859.02" y2="1464.63" style="stroke:#1A476F;stroke-width:8.64"/>
	<defs>
		<path id="path_dRpjsZZK" d="M778.76 1494.58 L778.76 1494.58 L795.59 1494.58 L795.59 1496.68 L812.54 1496.68 L812.54 1498.29 L829.37 1498.29 L829.37 1501.13 L846.20 1501.13 L846.20 1505.34 L863.03 1505.34 L863.03 1510.42 L879.86 1510.42 L879.86 1515.49 L896.82 1515.49 L896.82 1518.09 L913.65 1518.09 L913.65 1523.16 L930.48 1523.16 L930.48 1527.49 L947.31 1527.49 L947.31 1531.08 L964.14 1531.08 L964.14 1533.93 L981.09 1533.93 L981.09 1538.14 L997.92 1538.14 L997.92 1541.48 L1014.75 1541.48 L1014.75 1545.69 L1031.58 1545.69 L1031.58 1548.66 L1048.41 1548.66 L1048.41 1552.24 L1065.36 1552.24 L1065.36 1556.45 L1082.19 1556.45 L1082.19 1561.65 L1099.02 1561.65 L1099.02 1564.74 L1115.85 1564.74 L1115.85 1569.08 L1132.68 1569.08 L1132.68 1573.90 L1149.64 1573.90 L1149.64 1579.84 L1166.47 1579.84 L1166.47 1583.43 L1183.30 1583.43 L1183.30 1588.26 L1200.13 1588.26 L1200.13 1592.22 L1216.96 1592.22 L1216.96 1597.41 L1233.91 1597.41 L1233.91 1601.99 L1250.74 1601.99 L1250.74 1606.45 L1267.57 1606.45 L1267.57 1611.65 L1284.40 1611.65 L1284.40 1617.71 L1301.23 1617.71 L1301.23 1621.67 L1318.18 1621.67 L1318.18 1626.87 L1335.02 1626.87 L1335.02 1631.94 L1351.85 1631.94 L1351.85 1634.66 L1368.67 1634.66 L1368.67 1638.62 L1385.51 1638.62 L1385.51 1643.20 L1402.34 1643.20 L1402.34 1646.05 L1419.29 1646.05 L1419.29 1649.76 L1436.12 1649.76 L1436.12 1655.08 L1452.95 1655.08 L1452.95 1659.04 L1469.78 1659.04 L1469.78 1663.50 L1486.61 1663.50 L1486.61 1666.47 L1503.56 1666.47 L1503.56 1668.33 L1520.39 1668.33 L1520.39 1672.16 L1537.22 1672.16 L1537.22 1672.66 L1554.05 1672.66 L1554.05 1675.38 L1570.88 1675.38 L1570.88 1677.11 L1587.84 1677.11 L1587.84 1677.11 L1604.67 1677.11 L1604.67 1679.46 L1621.50 1679.46 L1621.50 1682.43 L1638.33 1682.43 L1638.33 1685.78 L1655.16 1685.78 L1655.16 1688.50 L1672.11 1688.50 L1672.11 1692.83 L1688.94 1692.83 L1688.94 1695.18 L1705.77 1695.18 L1705.77 1700.13 L1722.60 1700.13 L1722.60 1703.60 L1739.43 1703.60 L1739.43 1706.07 L1756.38 1706.07 L1756.38 1708.92 L1773.21 1708.92 L1773.21 1710.40 L1790.04 1710.40 L1790.04 1713.25 L1806.87 1713.25 L1806.87 1714.98 L1823.70 1714.98 L1823.70 1717.33 L1840.66 1717.33 L1840.66 1718.69 L1857.49 1718.69 L1857.49 1719.44 L1874.32 1719.44 L1874.32 1721.29 L1891.15 1721.29 L1891.15 1722.04 L1907.98 1722.04 L1907.98 1723.40 L1924.93 1723.40 L1924.93 1723.77 L1941.76 1723.77 L1941.76 1725.01 L1958.59 1725.01 L1958.59 1726.37 L1975.42 1726.37 L1975.42 1728.59 L1992.25 1728.59 L1992.25 1729.96 L2009.20 1729.96 L2009.20 1731.32 L2026.04 1731.32 L2026.04 1731.44 L2042.87 1731.44 L2042.87 1732.55 L2059.70 1732.55 L2059.70 1734.29 L2076.53 1734.29 L2076.53 1735.90 L2093.48 1735.90 L2093.48 1737.13 L2110.31 1737.13 L2110.31 1737.38 L2127.14 1737.38 L2127.14 1738.37 L2143.97 1738.37 L2143.97 1739.86 L2160.80 1739.86 L2160.80 1739.24 L2177.75 1739.24 L2177.75 1740.60 L2194.58 1740.60 L2194.58 1741.46 L2211.41 1741.46 L2211.41 1742.83 L2228.24 1742.83 L2228.24 1745.42 L2245.07 1745.42 L2245.07 1748.02 L2262.03 1748.02 L2262.03 1748.64 L2278.86 1748.64 L2278.86 1749.88 L2295.69 1749.88 L2295.69 1751.12 L2312.52 1751.12 L2312.52 1750.50 L2329.35 1750.50 L2329.35 1751.24 L2346.30 1751.24 L2346.30 1752.11 L2363.13 1752.11 L2363.13 1751.98 L2379.96 1751.98 L2379.96 1753.10 L2396.79 1753.10 L2396.79 1754.33 L2413.62 1754.33 L2413.62 1756.07 L2430.57 1756.07 L2430.57 1756.44 L2447.40 1756.44 L2447.40 1757.30 L2464.23 1757.30 L2464.23 1758.29 L2481.06 1758.29 L2481.06 1759.16 L2497.89 1759.16 L2497.89 1759.66 L2514.85 1759.66 L2514.85 1760.15 L2531.68 1760.15 L2531.68 1760.40 L2548.51 1760.40 L2548.51 1760.52 L2565.34 1760.52 L2565.34 1761.27 L2582.17 1761.27 L2582.17 1761.64 L2599.00 1761.64 L2599.00 1760.89 L2615.95 1760.89 L2615.95 1761.76 L2632.78 1761.76 L2632.78 1763.49 L2649.61 1763.49 L2649.61 1764.11 L2666.44 1764.11 L2666.44 1766.46 L2683.27 1766.46 L2683.27 1767.45 L2700.22 1767.45 L2700.22 1768.44 L2717.05 1768.44 L2717.05 1768.94 L2733.89 1768.94 L2733.89 1770.05 L2750.72 1770.05 L2750.72 1770.67 L2767.55 1770.67 L2767.55 1771.54 L2784.50 1771.54 L2784.50 1771.91 L2801.33 1771.91 L2801.33 1773.15 L2818.16 1773.15 L2818.16 1773.15 L2834.99 1773.15 L2834.99 1774.51 L2851.82 1774.51 L2851.82 1775.62 L2868.77 1775.62 L2868.77 1775.37 L2885.60 1775.37 L2885.60 1776.36 L2902.43 1776.36 L2902.43 1777.11 L2919.26 1777.11 L2919.26 1776.98 L2936.09 1776.98 L2936.09 1776.73 L2953.05 1776.73 L2953.05 1776.24 L2969.88 1776.24 L2969.88 1776.86 L2986.71 1776.86 L2986.71 1776.61 L3003.54 1776.61 L3003.54 1777.11 L3020.37 1777.11 L3020.37 1777.23 L3037.32 1777.23 L3037.32 1776.24 L3054.15 1776.24 L3054.15 1776.61 L3070.98 1776.61 L3070.98 1776.36 L3087.81 1776.36 L3087.81 1776.98 L3104.64 1776.98 L3104.64 1777.11 L3121.59 1777.11 L3121.59 1776.73 L3138.42 1776.73 L3138.42 1776.86 L3155.25 1776.86 L3155.25 1777.11 L3172.08 1777.11 L3172.08 1777.35 L3188.91 1777.35 L3188.91 1777.11 L3205.87 1777.11 L3205.87 1777.11 L3222.70 1777.11 L3222.70 1777.72 L3239.53 1777.72 L3239.53 1777.48 L3256.36 1777.48 L3256.36 1778.71 L3273.19 1778.71 L3273.19 1778.59 L3290.14 1778.59 L3290.14 1779.33 L3306.97 1779.33 L3306.97 1780.20 L3323.80 1780.20 L3323.80 1780.45 L3340.63 1780.45 L3340.63 1781.44 L3357.46 1781.44 L3357.46 1781.07 L3374.41 1781.07 L3374.41 1780.69 L3391.24 1780.69 L3391.24 1781.56 L3408.07 1781.56 L3408.07 1781.93 L3424.91 1781.93 L3424.91 1782.18 L3441.74 1782.18 L3441.74 1782.67 L3458.69 1782.67 L3458.69 1782.67 L3475.52 1782.67 L3475.52 1782.67 L3492.35 1782.67 L3492.35 1782.55 L3509.18 1782.55 L3509.18 1783.17 L3526.01 1783.17 L3526.01 1783.42 L3542.96 1783.42 L3542.96 1783.17 L3559.79 1783.17 L3559.79 1783.29 L3576.62 1783.29 L3576.62 1783.91 L3593.45 1783.91 L3593.45 1784.28 L3610.28 1784.28 L3610.28 1784.90 L3627.24 1784.90 L3627.24 1785.15 L3644.07 1785.15 L3644.07 1785.03 L3660.90 1785.03 L3660.90 1785.77 L3677.73 1785.77 L3677.73 1786.02 L3694.56 1786.02 L3694.56 1786.51 L3711.51 1786.51 L3711.51 1787.01 L3728.34 1787.01 L3728.34 1786.76 L3745.17 1786.76 L3745.17 1787.01 L3762.00 1787.01 L3762.00 1787.13 L3778.83 1787.13 L3778.83 1787.38 L3795.66 1787.38 L3795.66 1788.00 L3795.66 1080.12 L3795.66 1080.00 L3778.83 1080.00 L3778.83 1080.50 L3762.00 1080.50 L3762.00 1080.99 L3745.17 1080.99 L3745.17 1081.36 L3728.34 1081.36 L3728.34 1082.10 L3711.51 1082.10 L3711.51 1082.23 L3694.56 1082.23 L3694.56 1082.48 L3677.73 1082.48 L3677.73 1082.85 L3660.90 1082.85 L3660.90 1082.85 L3644.07 1082.85 L3644.07 1083.59 L3627.24 1083.59 L3627.24 1083.96 L3610.28 1083.96 L3610.28 1084.08 L3593.45 1084.08 L3593.45 1084.46 L3576.62 1084.46 L3576.62 1084.46 L3559.79 1084.46 L3559.79 1084.95 L3542.96 1084.95 L3542.96 1086.06 L3526.01 1086.06 L3526.01 1086.44 L3509.18 1086.44 L3509.18 1086.56 L3492.35 1086.56 L3492.35 1087.30 L3475.52 1087.30 L3475.52 1088.04 L3458.69 1088.04 L3458.69 1088.79 L3441.74 1088.79 L3441.74 1089.03 L3424.91 1089.03 L3424.91 1089.53 L3408.07 1089.53 L3408.07 1089.78 L3391.24 1089.78 L3391.24 1089.53 L3374.41 1089.53 L3374.41 1090.64 L3357.46 1090.64 L3357.46 1091.88 L3340.63 1091.88 L3340.63 1091.76 L3323.80 1091.76 L3323.80 1092.25 L3306.97 1092.25 L3306.97 1092.25 L3290.14 1092.25 L3290.14 1092.50 L3273.19 1092.50 L3273.19 1093.37 L3256.36 1093.37 L3256.36 1092.99 L3239.53 1092.99 L3239.53 1094.11 L3222.70 1094.11 L3222.70 1094.48 L3205.87 1094.48 L3205.87 1095.22 L3188.91 1095.22 L3188.91 1096.34 L3172.08 1096.34 L3172.08 1097.08 L3155.25 1097.08 L3155.25 1097.94 L3138.42 1097.94 L3138.42 1098.69 L3121.59 1098.69 L3121.59 1099.92 L3104.64 1099.92 L3104.64 1100.79 L3087.81 1100.79 L3087.81 1101.29 L3070.98 1101.29 L3070.98 1102.52 L3054.15 1102.52 L3054.15 1103.27 L3037.32 1103.27 L3037.32 1105.25 L3020.37 1105.25 L3020.37 1106.24 L3003.54 1106.24 L3003.54 1106.85 L2986.71 1106.85 L2986.71 1108.09 L2969.88 1108.09 L2969.88 1108.71 L2953.05 1108.71 L2953.05 1110.44 L2936.09 1110.44 L2936.09 1111.80 L2919.26 1111.80 L2919.26 1112.92 L2902.43 1112.92 L2902.43 1113.29 L2885.60 1113.29 L2885.60 1113.54 L2868.77 1113.54 L2868.77 1115.02 L2851.82 1115.02 L2851.82 1115.27 L2834.99 1115.27 L2834.99 1115.15 L2818.16 1115.15 L2818.16 1116.51 L2801.33 1116.51 L2801.33 1116.63 L2784.50 1116.63 L2784.50 1117.62 L2767.55 1117.62 L2767.55 1118.12 L2750.72 1118.12 L2750.72 1118.98 L2733.89 1118.98 L2733.89 1119.11 L2717.05 1119.11 L2717.05 1119.97 L2700.22 1119.97 L2700.22 1120.47 L2683.27 1120.47 L2683.27 1120.84 L2666.44 1120.84 L2666.44 1120.22 L2649.61 1120.22 L2649.61 1120.96 L2632.78 1120.96 L2632.78 1120.84 L2615.95 1120.84 L2615.95 1121.71 L2599.00 1121.71 L2599.00 1123.93 L2582.17 1123.93 L2582.17 1125.05 L2565.34 1125.05 L2565.34 1125.91 L2548.51 1125.91 L2548.51 1127.52 L2531.68 1127.52 L2531.68 1128.88 L2514.85 1128.88 L2514.85 1130.00 L2497.89 1130.00 L2497.89 1131.23 L2481.06 1131.23 L2481.06 1132.22 L2464.23 1132.22 L2464.23 1132.97 L2447.40 1132.97 L2447.40 1134.08 L2430.57 1134.08 L2430.57 1135.81 L2413.62 1135.81 L2413.62 1135.94 L2396.79 1135.94 L2396.79 1136.68 L2379.96 1136.68 L2379.96 1137.42 L2363.13 1137.42 L2363.13 1139.65 L2346.30 1139.65 L2346.30 1141.01 L2329.35 1141.01 L2329.35 1142.37 L2312.52 1142.37 L2312.52 1145.22 L2295.69 1145.22 L2295.69 1146.21 L2278.86 1146.21 L2278.86 1147.20 L2262.03 1147.20 L2262.03 1149.05 L2245.07 1149.05 L2245.07 1148.93 L2228.24 1148.93 L2228.24 1148.81 L2211.41 1148.81 L2211.41 1149.80 L2194.58 1149.80 L2194.58 1151.65 L2177.75 1151.65 L2177.75 1152.89 L2160.80 1152.89 L2160.80 1156.11 L2143.97 1156.11 L2143.97 1157.35 L2127.14 1157.35 L2127.14 1159.08 L2110.31 1159.08 L2110.31 1161.80 L2093.48 1161.80 L2093.48 1163.29 L2076.53 1163.29 L2076.53 1164.65 L2059.70 1164.65 L2059.70 1166.01 L2042.87 1166.01 L2042.87 1168.11 L2026.04 1168.11 L2026.04 1171.08 L2009.20 1171.08 L2009.20 1173.06 L1992.25 1173.06 L1992.25 1174.92 L1975.42 1174.92 L1975.42 1176.03 L1958.59 1176.03 L1958.59 1178.26 L1941.76 1178.26 L1941.76 1180.49 L1924.93 1180.49 L1924.93 1183.95 L1907.98 1183.95 L1907.98 1186.43 L1891.15 1186.43 L1891.15 1189.40 L1874.32 1189.40 L1874.32 1191.25 L1857.49 1191.25 L1857.49 1194.72 L1840.66 1194.72 L1840.66 1197.69 L1823.70 1197.69 L1823.70 1199.55 L1806.87 1199.55 L1806.87 1202.15 L1790.04 1202.15 L1790.04 1203.63 L1773.21 1203.63 L1773.21 1206.48 L1756.38 1206.48 L1756.38 1208.46 L1739.43 1208.46 L1739.43 1210.93 L1722.60 1210.93 L1722.60 1212.66 L1705.77 1212.66 L1705.77 1212.91 L1688.94 1212.91 L1688.94 1215.51 L1672.11 1215.51 L1672.11 1216.62 L1655.16 1216.62 L1655.16 1219.59 L1638.33 1219.59 L1638.33 1221.82 L1621.50 1221.82 L1621.50 1224.92 L1604.67 1224.92 L1604.67 1228.38 L1587.84 1228.38 L1587.84 1234.32 L1570.88 1234.32 L1570.88 1238.78 L1554.05 1238.78 L1554.05 1242.37 L1537.22 1242.37 L1537.22 1248.43 L1520.39 1248.43 L1520.39 1251.52 L1503.56 1251.52 L1503.56 1256.60 L1486.61 1256.60 L1486.61 1260.68 L1469.78 1260.68 L1469.78 1263.28 L1452.95 1263.28 L1452.95 1266.50 L1436.12 1266.50 L1436.12 1268.48 L1419.29 1268.48 L1419.29 1272.81 L1402.34 1272.81 L1402.34 1277.51 L1385.51 1277.51 L1385.51 1280.85 L1368.67 1280.85 L1368.67 1284.81 L1351.85 1284.81 L1351.85 1289.89 L1335.02 1289.89 L1335.02 1292.98 L1318.18 1292.98 L1318.18 1296.32 L1301.23 1296.32 L1301.23 1300.90 L1284.40 1300.90 L1284.40 1303.38 L1267.57 1303.38 L1267.57 1306.96 L1250.74 1306.96 L1250.74 1311.17 L1233.91 1311.17 L1233.91 1315.63 L1216.96 1315.63 L1216.96 1319.34 L1200.13 1319.34 L1200.13 1324.17 L1183.30 1324.17 L1183.30 1328.13 L1166.47 1328.13 L1166.47 1333.32 L1149.64 1333.32 L1149.64 1336.67 L1132.68 1336.67 L1132.68 1341.00 L1115.85 1341.00 L1115.85 1345.82 L1099.02 1345.82 L1099.02 1351.89 L1082.19 1351.89 L1082.19 1355.72 L1065.36 1355.72 L1065.36 1360.55 L1048.41 1360.55 L1048.41 1366.00 L1031.58 1366.00 L1031.58 1372.06 L1014.75 1372.06 L1014.75 1376.76 L997.92 1376.76 L997.92 1382.33 L981.09 1382.33 L981.09 1386.79 L964.14 1386.79 L964.14 1392.60 L947.31 1392.60 L947.31 1397.92 L930.48 1397.92 L930.48 1402.13 L913.65 1402.13 L913.65 1405.72 L896.82 1405.72 L896.82 1411.29 L879.86 1411.29 L879.86 1414.38 L863.03 1414.38 L863.03 1417.60 L846.20 1417.60 L846.20 1421.56 L829.37 1421.56 L829.37 1426.51 L812.54 1426.51 L812.54 1432.95 L795.59 1432.95 L795.59 1438.27 L778.76 1438.27 L778.76 1494.58 Z" stroke-linejoin="round"/>
	</defs>
	<defs>
		<clipPath id="clipPath_BMfsKcnU">
			<use xlink:href="#path_dRpjsZZK"/>
		</clipPath>
	</defs>
	<use xlink:href="#path_dRpjsZZK" style="stroke:none;fill:#999999;fill-opacity:0.65"/>
	<use xlink:href="#path_dRpjsZZK" style="fill:none;stroke:#808080;stroke-opacity:0.65;stroke-width:17.28" clip-path="url(#clipPath_BMfsKcnU)"/>
	<path d=" M778.76 1466.48 L795.59 1466.48 L795.59 1464.87 L812.42 1464.87 L812.42 1462.52 L829.25 1462.52 L829.25 1461.41 L846.08 1461.41 L846.08 1461.53 L863.03 1461.53 L863.03 1462.40 L879.86 1462.40 L879.86 1463.51 L896.69 1463.51 L896.69 1462.03 L913.52 1462.03 L913.52 1462.77 L930.35 1462.77 L930.35 1462.77 L947.31 1462.77 L947.31 1461.90 L964.14 1461.90 L964.14 1460.42 L980.97 1460.42 L980.97 1460.30 L997.80 1460.30 L997.80 1459.18 L1014.63 1459.18 L1014.63 1458.93 L1031.58 1458.93 L1031.58 1457.45 L1048.41 1457.45 L1048.41 1456.46 L1065.24 1456.46 L1065.24 1456.21 L1082.07 1456.21 L1082.07 1456.83 L1098.90 1456.83 L1098.90 1455.35 L1115.85 1455.35 L1115.85 1455.10 L1132.68 1455.10 L1132.68 1455.35 L1149.51 1455.35 L1149.51 1456.58 L1166.34 1456.58 L1166.34 1455.84 L1183.17 1455.84 L1183.17 1456.21 L1200.13 1456.21 L1200.13 1455.84 L1216.96 1455.84 L1216.96 1456.58 L1233.79 1456.58 L1233.79 1456.71 L1250.62 1456.71 L1250.62 1456.71 L1267.45 1456.71 L1267.45 1457.57 L1284.40 1457.57 L1284.40 1459.31 L1301.23 1459.31 L1301.23 1459.06 L1318.06 1459.06 L1318.06 1459.92 L1334.89 1459.92 L1334.89 1461.04 L1351.72 1461.04 L1351.72 1459.80 L1368.67 1459.80 L1368.67 1459.80 L1385.51 1459.80 L1385.51 1460.42 L1402.34 1460.42 L1402.34 1459.43 L1419.16 1459.43 L1419.16 1459.18 L1435.99 1459.18 L1435.99 1460.79 L1452.95 1460.79 L1452.95 1461.16 L1469.78 1461.16 L1469.78 1462.15 L1486.61 1462.15 L1486.61 1461.53 L1503.44 1461.53 L1503.44 1459.92 L1520.27 1459.92 L1520.27 1460.30 L1537.22 1460.30 L1537.22 1457.57 L1554.05 1457.57 L1554.05 1457.08 L1570.88 1457.08 L1570.88 1455.72 L1587.71 1455.72 L1587.71 1452.75 L1604.54 1452.75 L1604.54 1452.25 L1621.50 1452.25 L1621.50 1452.13 L1638.33 1452.13 L1638.33 1452.62 L1655.16 1452.62 L1655.16 1452.50 L1671.99 1452.50 L1671.99 1454.23 L1688.82 1454.23 L1688.82 1453.98 L1705.77 1453.98 L1705.77 1456.46 L1722.60 1456.46 L1722.60 1457.33 L1739.43 1457.33 L1739.43 1457.33 L1756.26 1457.33 L1756.26 1457.70 L1773.09 1457.70 L1773.09 1457.08 L1790.04 1457.08 L1790.04 1457.70 L1806.87 1457.70 L1806.87 1457.20 L1823.70 1457.20 L1823.70 1457.57 L1840.53 1457.57 L1840.53 1456.71 L1857.36 1456.71 L1857.36 1455.35 L1874.32 1455.35 L1874.32 1455.35 L1891.15 1455.35 L1891.15 1454.23 L1907.98 1454.23 L1907.98 1453.74 L1924.81 1453.74 L1924.81 1452.13 L1941.64 1452.13 L1941.64 1451.63 L1958.59 1451.63 L1958.59 1451.26 L1975.42 1451.26 L1975.42 1451.76 L1992.25 1451.76 L1992.25 1451.51 L2009.08 1451.51 L2009.08 1451.14 L2025.91 1451.14 L2025.91 1449.78 L2042.74 1449.78 L2042.74 1449.28 L2059.70 1449.28 L2059.70 1449.41 L2076.53 1449.41 L2076.53 1449.53 L2093.36 1449.53 L2093.36 1449.41 L2110.18 1449.41 L2110.18 1448.17 L2127.01 1448.17 L2127.01 1447.80 L2143.97 1447.80 L2143.97 1447.92 L2160.80 1447.92 L2160.80 1446.06 L2177.63 1446.06 L2177.63 1446.06 L2194.46 1446.06 L2194.46 1445.57 L2211.29 1445.57 L2211.29 1445.82 L2228.24 1445.82 L2228.24 1447.18 L2245.07 1447.18 L2245.07 1448.54 L2261.90 1448.54 L2261.90 1447.92 L2278.73 1447.92 L2278.73 1448.04 L2295.56 1448.04 L2295.56 1448.17 L2312.52 1448.17 L2312.52 1446.44 L2329.35 1446.44 L2329.35 1446.06 L2346.18 1446.06 L2346.18 1445.82 L2363.01 1445.82 L2363.01 1444.70 L2379.84 1444.70 L2379.84 1444.83 L2396.79 1444.83 L2396.79 1445.07 L2413.62 1445.07 L2413.62 1445.82 L2430.45 1445.82 L2430.45 1445.20 L2447.28 1445.20 L2447.28 1445.07 L2464.11 1445.07 L2464.11 1445.20 L2481.06 1445.20 L2481.06 1445.07 L2497.89 1445.07 L2497.89 1444.83 L2514.72 1444.83 L2514.72 1444.46 L2531.55 1444.46 L2531.55 1443.84 L2548.38 1443.84 L2548.38 1443.22 L2565.34 1443.22 L2565.34 1443.09 L2582.17 1443.09 L2582.17 1442.72 L2599.00 1442.72 L2599.00 1441.24 L2615.83 1441.24 L2615.83 1441.24 L2632.66 1441.24 L2632.66 1442.10 L2649.61 1442.10 L2649.61 1442.10 L2666.44 1442.10 L2666.44 1443.59 L2683.27 1443.59 L2683.27 1443.96 L2700.10 1443.96 L2700.10 1444.08 L2716.93 1444.08 L2716.93 1443.96 L2733.89 1443.96 L2733.89 1444.46 L2750.72 1444.46 L2750.72 1444.33 L2767.55 1444.33 L2767.55 1444.58 L2784.38 1444.58 L2784.38 1444.21 L2801.20 1444.21 L2801.20 1444.70 L2818.16 1444.70 L2818.16 1444.08 L2834.99 1444.08 L2834.99 1444.83 L2851.82 1444.83 L2851.82 1445.20 L2868.65 1445.20 L2868.65 1444.46 L2885.48 1444.46 L2885.48 1444.70 L2902.43 1444.70 L2902.43 1444.95 L2919.26 1444.95 L2919.26 1444.33 L2936.09 1444.33 L2936.09 1443.47 L2952.92 1443.47 L2952.92 1442.48 L2969.75 1442.48 L2969.75 1442.35 L2986.71 1442.35 L2986.71 1441.61 L3003.54 1441.61 L3003.54 1441.61 L3020.37 1441.61 L3020.37 1441.11 L3037.20 1441.11 L3037.20 1439.63 L3054.03 1439.63 L3054.03 1439.38 L3070.98 1439.38 L3070.98 1438.64 L3087.81 1438.64 L3087.81 1438.76 L3104.64 1438.76 L3104.64 1438.39 L3121.47 1438.39 L3121.47 1437.52 L3138.30 1437.52 L3138.30 1437.28 L3155.13 1437.28 L3155.13 1437.03 L3172.08 1437.03 L3172.08 1436.78 L3188.91 1436.78 L3188.91 1436.04 L3205.74 1436.04 L3205.74 1435.67 L3222.57 1435.67 L3222.57 1435.79 L3239.40 1435.79 L3239.40 1435.05 L3256.36 1435.05 L3256.36 1435.92 L3273.19 1435.92 L3273.19 1435.30 L3290.02 1435.30 L3290.02 1435.67 L3306.85 1435.67 L3306.85 1436.04 L3323.68 1436.04 L3323.68 1435.92 L3340.63 1435.92 L3340.63 1436.41 L3357.46 1436.41 L3357.46 1435.67 L3374.29 1435.67 L3374.29 1434.93 L3391.12 1434.93 L3391.12 1435.54 L3407.95 1435.54 L3407.95 1435.54 L3424.91 1435.54 L3424.91 1435.42 L3441.74 1435.42 L3441.74 1435.54 L3458.57 1435.54 L3458.57 1435.17 L3475.39 1435.17 L3475.39 1434.80 L3492.22 1434.80 L3492.22 1434.43 L3509.18 1434.43 L3509.18 1434.55 L3526.01 1434.55 L3526.01 1434.55 L3542.84 1434.55 L3542.84 1433.94 L3559.67 1433.94 L3559.67 1433.69 L3576.50 1433.69 L3576.50 1434.06 L3593.45 1434.06 L3593.45 1433.94 L3610.28 1433.94 L3610.28 1434.31 L3627.11 1434.31 L3627.11 1434.18 L3643.94 1434.18 L3643.94 1433.69 L3660.77 1433.69 L3660.77 1434.18 L3677.73 1434.18 L3677.73 1434.06 L3694.56 1434.06 L3694.56 1434.18 L3711.39 1434.18 L3711.39 1434.31 L3728.22 1434.31 L3728.22 1433.81 L3745.05 1433.81 L3745.05 1433.81 L3762.00 1433.81 L3762.00 1433.56 L3778.83 1433.56 L3778.83 1433.56 L3795.66 1433.56 L3795.66 1433.81" stroke-linejoin="round" style="fill:none;stroke:#000000;stroke-width:8.64"/>
	<line x1="559.10" y1="2509.23" x2="559.10" y2="419.90" style="stroke:#000000;stroke-width:5.76"/>
	<line x1="559.10" y1="2445.87" x2="519.13" y2="2445.87" style="stroke:#000000;stroke-width:5.76"/>
	<text x="499.08" y="2480.90" style="font-family:'Helvetica';font-size:99.99px;fill:#000000" text-anchor="end">-0.25</text>
	<line x1="559.10" y1="2249.60" x2="519.13" y2="2249.60" style="stroke:#000000;stroke-width:5.76"/>
	<text x="499.08" y="2284.63" style="font-family:'Helvetica';font-size:99.99px;fill:#000000" text-anchor="end">-0.20</text>
	<line x1="559.10" y1="2053.32" x2="519.13" y2="2053.32" style="stroke:#000000;stroke-width:5.76"/>
	<text x="499.08" y="2088.35" style="font-family:'Helvetica';font-size:99.99px;fill:#000000" text-anchor="end">-0.15</text>
	<line x1="559.10" y1="1857.05" x2="519.13" y2="1857.05" style="stroke:#000000;stroke-width:5.76"/>
	<text x="499.08" y="1892.08" style="font-family:'Helvetica';font-size:99.99px;fill:#000000" text-anchor="end">-0.10</text>
	<line x1="559.10" y1="1660.78" x2="519.13" y2="1660.78" style="stroke:#000000;stroke-width:5.76"/>
	<text x="499.08" y="1695.81" style="font-family:'Helvetica';font-size:99.99px;fill:#000000" text-anchor="end">-0.05</text>
	<line x1="559.10" y1="1464.63" x2="519.13" y2="1464.63" style="stroke:#000000;stroke-width:5.76"/>
	<text x="499.08" y="1499.66" style="font-family:'Helvetica';font-size:99.99px;fill:#000000" text-anchor="end">0.00</text>
	<line x1="559.10" y1="1268.35" x2="519.13" y2="1268.35" style="stroke:#000000;stroke-width:5.76"/>
	<text x="499.08" y="1303.38" style="font-family:'Helvetica';font-size:99.99px;fill:#000000" text-anchor="end">0.05</text>
	<line x1="559.10" y1="1072.08" x2="519.13" y2="1072.08" style="stroke:#000000;stroke-width:5.76"/>
	<text x="499.08" y="1107.11" style="font-family:'Helvetica';font-size:99.99px;fill:#000000" text-anchor="end">0.10</text>
	<line x1="559.10" y1="875.81" x2="519.13" y2="875.81" style="stroke:#000000;stroke-width:5.76"/>
	<text x="499.08" y="910.83" style="font-family:'Helvetica';font-size:99.99px;fill:#000000" text-anchor="end">0.15</text>
	<line x1="559.10" y1="679.53" x2="519.13" y2="679.53" style="stroke:#000000;stroke-width:5.76"/>
	<text x="499.08" y="714.56" style="font-family:'Helvetica';font-size:99.99px;fill:#000000" text-anchor="end">0.20</text>
	<line x1="559.10" y1="483.26" x2="519.13" y2="483.26" style="stroke:#000000;stroke-width:5.76"/>
	<text x="499.08" y="518.29" style="font-family:'Helvetica';font-size:99.99px;fill:#000000" text-anchor="end">0.25</text>
	<text x="190.71" y="1464.63" style="font-family:'Helvetica';font-size:99.99px;fill:#000000" transform="rotate(-90 190.71,1464.63)" text-anchor="middle">Difference in Probabilities</text>
	<line x1="559.10" y1="2509.23" x2="3859.02" y2="2509.23" style="stroke:#000000;stroke-width:5.76"/>
	<line x1="622.46" y1="2509.23" x2="622.46" y2="2549.21" style="stroke:#000000;stroke-width:5.76"/>
	<text x="622.46" y="2625.15" style="font-family:'Helvetica';font-size:79.94px;fill:#000000" text-anchor="middle">0</text>
	<line x1="812.79" y1="2509.23" x2="812.79" y2="2549.21" style="stroke:#000000;stroke-width:5.76"/>
	<text x="812.79" y="2625.15" style="font-family:'Helvetica';font-size:79.94px;fill:#000000" text-anchor="middle">.3</text>
	<line x1="1003.12" y1="2509.23" x2="1003.12" y2="2549.21" style="stroke:#000000;stroke-width:5.76"/>
	<text x="1003.12" y="2625.15" style="font-family:'Helvetica';font-size:79.94px;fill:#000000" text-anchor="middle">.6</text>
	<line x1="1193.44" y1="2509.23" x2="1193.44" y2="2549.21" style="stroke:#000000;stroke-width:5.76"/>
	<text x="1193.44" y="2625.15" style="font-family:'Helvetica';font-size:79.94px;fill:#000000" text-anchor="middle">.9</text>
	<line x1="1383.77" y1="2509.23" x2="1383.77" y2="2549.21" style="stroke:#000000;stroke-width:5.76"/>
	<text x="1383.77" y="2625.15" style="font-family:'Helvetica';font-size:79.94px;fill:#000000" text-anchor="middle">1.2</text>
	<line x1="1574.10" y1="2509.23" x2="1574.10" y2="2549.21" style="stroke:#000000;stroke-width:5.76"/>
	<text x="1574.10" y="2625.15" style="font-family:'Helvetica';font-size:79.94px;fill:#000000" text-anchor="middle">1.5</text>
	<line x1="1764.43" y1="2509.23" x2="1764.43" y2="2549.21" style="stroke:#000000;stroke-width:5.76"/>
	<text x="1764.43" y="2625.15" style="font-family:'Helvetica';font-size:79.94px;fill:#000000" text-anchor="middle">1.8</text>
	<line x1="1954.63" y1="2509.23" x2="1954.63" y2="2549.21" style="stroke:#000000;stroke-width:5.76"/>
	<text x="1954.63" y="2625.15" style="font-family:'Helvetica';font-size:79.94px;fill:#000000" text-anchor="middle">2.1</text>
	<line x1="2144.96" y1="2509.23" x2="2144.96" y2="2549.21" style="stroke:#000000;stroke-width:5.76"/>
	<text x="2144.96" y="2625.15" style="font-family:'Helvetica';font-size:79.94px;fill:#000000" text-anchor="middle">2.4</text>
	<line x1="2335.29" y1="2509.23" x2="2335.29" y2="2549.21" style="stroke:#000000;stroke-width:5.76"/>
	<text x="2335.29" y="2625.15" style="font-family:'Helvetica';font-size:79.94px;fill:#000000" text-anchor="middle">2.7</text>
	<line x1="2525.61" y1="2509.23" x2="2525.61" y2="2549.21" style="stroke:#000000;stroke-width:5.76"/>
	<text x="2525.61" y="2625.15" style="font-family:'Helvetica';font-size:79.94px;fill:#000000" text-anchor="middle">3</text>
	<line x1="2715.94" y1="2509.23" x2="2715.94" y2="2549.21" style="stroke:#000000;stroke-width:5.76"/>
	<text x="2715.94" y="2625.15" style="font-family:'Helvetica';font-size:79.94px;fill:#000000" text-anchor="middle">3.3</text>
	<line x1="2906.27" y1="2509.23" x2="2906.27" y2="2549.21" style="stroke:#000000;stroke-width:5.76"/>
	<text x="2906.27" y="2625.15" style="font-family:'Helvetica';font-size:79.94px;fill:#000000" text-anchor="middle">3.6</text>
	<line x1="3096.60" y1="2509.23" x2="3096.60" y2="2549.21" style="stroke:#000000;stroke-width:5.76"/>
	<text x="3096.60" y="2625.15" style="font-family:'Helvetica';font-size:79.94px;fill:#000000" text-anchor="middle">3.9</text>
	<line x1="3286.92" y1="2509.23" x2="3286.92" y2="2549.21" style="stroke:#000000;stroke-width:5.76"/>
	<text x="3286.92" y="2625.15" style="font-family:'Helvetica';font-size:79.94px;fill:#000000" text-anchor="middle">4.2</text>
	<line x1="3477.25" y1="2509.23" x2="3477.25" y2="2549.21" style="stroke:#000000;stroke-width:5.76"/>
	<text x="3477.25" y="2625.15" style="font-family:'Helvetica';font-size:79.94px;fill:#000000" text-anchor="middle">4.5</text>
	<line x1="3667.58" y1="2509.23" x2="3667.58" y2="2549.21" style="stroke:#000000;stroke-width:5.76"/>
	<text x="3667.58" y="2625.15" style="font-family:'Helvetica';font-size:79.94px;fill:#000000" text-anchor="middle">4.8</text>
	<line x1="3857.91" y1="2509.23" x2="3857.91" y2="2549.21" style="stroke:#000000;stroke-width:5.76"/>
	<text x="3857.91" y="2625.15" style="font-family:'Helvetica';font-size:79.94px;fill:#000000" text-anchor="middle">5.1</text>
	<text x="2209.06" y="2729.16" style="font-family:'Helvetica';font-size:99.99px;fill:#000000" text-anchor="middle">Time (years)</text>
	<rect x="593.63" y="454.42" width="993.34" height="326.46" style="fill:#FFFFFF"/>
	<rect x="596.51" y="457.30" width="987.58" height="320.70" style="fill:none;stroke:#000000;stroke-width:5.76"/>
	<rect x="636.82" y="497.74" width="374.47" height="99.99" style="fill:#999999;fill-opacity:0.65"/>
	<rect x="641.14" y="502.06" width="365.83" height="91.35" style="fill:none;stroke:#808080;stroke-opacity:0.65;stroke-width:8.64"/>
	<line x1="636.82" y1="687.70" x2="1011.28" y2="687.70" style="stroke:#000000;stroke-width:8.64"/>
	<text x="1071.30" y="582.76" style="font-family:'Helvetica';font-size:99.99px;fill:#000000">CI95%</text>
	<text x="1071.30" y="722.73" style="font-family:'Helvetica';font-size:99.99px;fill:#000000">Difference</text>
	<text x="2209.06" y="369.63" style="font-family:'Helvetica';font-size:110.01px;fill:#000000" text-anchor="middle">from 3rd Readmission to 4th Readmission (RP)</text>
	<text x="2209.06" y="215.98" style="font-family:'Helvetica';font-size:139.96px;fill:#1E2D53" text-anchor="middle">Difference in Probabilities at 3 years</text>
</svg>
