<?xml version="1.0" encoding="UTF-8" standalone="no"?>
<!-- This is a Stata 16.1 generated SVG file (http://www.stata.com) -->

<svg version="1.1" width="5.50in" height="4.00in" viewBox="0 0 3960 2880" xmlns="http://www.w3.org/2000/svg" xmlns:xlink="http://www.w3.org/1999/xlink">
	<desc>Stata Graph - diff_mod34</desc>
	<rect x="0" y="0" width="3960" height="2880" style="fill:#EAF2F3;stroke:none"/>
	<rect x="0.00" y="0.00" width="3959.88" height="2880.00" style="fill:#FFFFFF"/>
	<rect x="2.88" y="2.88" width="3954.12" height="2874.24" style="fill:none;stroke:#FFFFFF;stroke-width:5.76"/>
	<rect x="559.10" y="419.90" width="3299.92" height="2089.34" style="fill:#FFFFFF"/>
	<rect x="561.98" y="422.78" width="3294.16" height="2083.58" style="fill:none;stroke:#FFFFFF;stroke-width:5.76"/>
	<line x1="559.10" y1="2249.60" x2="3859.02" y2="2249.60" style="stroke:#EAF2F3;stroke-width:8.64"/>
	<line x1="559.10" y1="2053.32" x2="3859.02" y2="2053.32" style="stroke:#EAF2F3;stroke-width:8.64"/>
	<line x1="559.10" y1="1857.05" x2="3859.02" y2="1857.05" style="stroke:#EAF2F3;stroke-width:8.64"/>
	<line x1="559.10" y1="1660.78" x2="3859.02" y2="1660.78" style="stroke:#EAF2F3;stroke-width:8.64"/>
	<line x1="559.10" y1="1464.63" x2="3859.02" y2="1464.63" style="stroke:#EAF2F3;stroke-width:8.64"/>
	<line x1="559.10" y1="1268.35" x2="3859.02" y2="1268.35" style="stroke:#EAF2F3;stroke-width:8.64"/>
	<line x1="559.10" y1="1072.08" x2="3859.02" y2="1072.08" style="stroke:#EAF2F3;stroke-width:8.64"/>
	<line x1="559.10" y1="875.81" x2="3859.02" y2="875.81" style="stroke:#EAF2F3;stroke-width:8.64"/>
	<line x1="559.10" y1="679.53" x2="3859.02" y2="679.53" style="stroke:#EAF2F3;stroke-width:8.64"/>
	<line x1="559.10" y1="1464.63" x2="3859.02" y2="1464.63" style="stroke:#1A476F;stroke-width:8.64"/>
	<defs>
		<path id="path_ufOuFUOM" d="M778.88 1490.24 L778.88 1490.24 L795.71 1490.24 L795.71 1493.46 L812.54 1493.46 L812.54 1495.07 L829.37 1495.07 L829.37 1497.79 L846.20 1497.79 L846.20 1498.78 L863.16 1498.78 L863.16 1500.89 L879.99 1500.89 L879.99 1505.22 L896.82 1505.22 L896.82 1506.33 L913.65 1506.33 L913.65 1507.20 L930.48 1507.20 L930.48 1509.05 L947.31 1509.05 L947.31 1510.04 L964.26 1510.04 L964.26 1511.41 L981.09 1511.41 L981.09 1512.15 L997.92 1512.15 L997.92 1511.41 L1014.75 1511.41 L1014.75 1513.51 L1031.58 1513.51 L1031.58 1512.77 L1048.53 1512.77 L1048.53 1513.88 L1065.36 1513.88 L1065.36 1513.51 L1082.19 1513.51 L1082.19 1514.50 L1099.02 1514.50 L1099.02 1513.76 L1115.85 1513.76 L1115.85 1514.13 L1132.68 1514.13 L1132.68 1515.86 L1149.64 1515.86 L1149.64 1517.84 L1166.47 1517.84 L1166.47 1518.34 L1183.30 1518.34 L1183.30 1519.45 L1200.13 1519.45 L1200.13 1522.42 L1216.96 1522.42 L1216.96 1524.65 L1233.79 1524.65 L1233.79 1524.90 L1250.74 1524.90 L1250.74 1525.14 L1267.57 1525.14 L1267.57 1525.39 L1284.40 1525.39 L1284.40 1525.39 L1301.23 1525.39 L1301.23 1526.88 L1318.06 1526.88 L1318.06 1530.59 L1334.89 1530.59 L1334.89 1530.71 L1351.85 1530.71 L1351.85 1532.44 L1368.67 1532.44 L1368.67 1535.29 L1385.51 1535.29 L1385.51 1535.91 L1402.34 1535.91 L1402.34 1536.78 L1419.16 1536.78 L1419.16 1538.26 L1436.12 1538.26 L1436.12 1538.63 L1452.95 1538.63 L1452.95 1536.90 L1469.78 1536.90 L1469.78 1536.53 L1486.61 1536.53 L1486.61 1536.65 L1503.44 1536.65 L1503.44 1537.89 L1520.27 1537.89 L1520.27 1539.13 L1537.22 1539.13 L1537.22 1541.60 L1554.05 1541.60 L1554.05 1542.72 L1570.88 1542.72 L1570.88 1544.32 L1587.71 1544.32 L1587.71 1545.31 L1604.54 1545.31 L1604.54 1548.78 L1621.37 1548.78 L1621.37 1549.40 L1638.33 1549.40 L1638.33 1552.00 L1655.16 1552.00 L1655.16 1551.87 L1671.99 1551.87 L1671.99 1552.24 L1688.82 1552.24 L1688.82 1552.99 L1705.65 1552.99 L1705.65 1555.09 L1722.48 1555.09 L1722.48 1555.34 L1739.43 1555.34 L1739.43 1557.44 L1756.26 1557.44 L1756.26 1558.06 L1773.09 1558.06 L1773.09 1558.56 L1789.92 1558.56 L1789.92 1557.69 L1806.75 1557.69 L1806.75 1558.68 L1823.70 1558.68 L1823.70 1559.17 L1840.53 1559.17 L1840.53 1558.18 L1857.36 1558.18 L1857.36 1559.30 L1874.19 1559.30 L1874.19 1558.06 L1891.02 1558.06 L1891.02 1559.05 L1907.85 1559.05 L1907.85 1560.04 L1924.81 1560.04 L1924.81 1560.78 L1941.64 1560.78 L1941.64 1561.16 L1958.47 1561.16 L1958.47 1561.77 L1975.30 1561.77 L1975.30 1562.64 L1992.13 1562.64 L1992.13 1562.76 L2008.96 1562.76 L2008.96 1562.27 L2025.91 1562.27 L2025.91 1562.39 L2042.74 1562.39 L2042.74 1562.89 L2059.57 1562.89 L2059.57 1563.14 L2076.40 1563.14 L2076.40 1563.75 L2093.23 1563.75 L2093.23 1563.26 L2110.18 1563.26 L2110.18 1562.76 L2127.01 1562.76 L2127.01 1563.26 L2143.84 1563.26 L2143.84 1565.49 L2160.68 1565.49 L2160.68 1564.74 L2177.51 1564.74 L2177.51 1563.63 L2194.34 1563.63 L2194.34 1564.50 L2211.29 1564.50 L2211.29 1564.62 L2228.12 1564.62 L2228.12 1566.72 L2244.95 1566.72 L2244.95 1568.33 L2261.78 1568.33 L2261.78 1569.57 L2278.61 1569.57 L2278.61 1571.67 L2295.44 1571.67 L2295.44 1571.55 L2312.39 1571.55 L2312.39 1572.66 L2329.22 1572.66 L2329.22 1575.39 L2346.05 1575.39 L2346.05 1576.75 L2362.88 1576.75 L2362.88 1578.85 L2379.71 1578.85 L2379.71 1579.47 L2396.54 1579.47 L2396.54 1580.83 L2413.50 1580.83 L2413.50 1580.46 L2430.33 1580.46 L2430.33 1582.44 L2447.16 1582.44 L2447.16 1582.32 L2463.99 1582.32 L2463.99 1584.17 L2480.82 1584.17 L2480.82 1583.31 L2497.77 1583.31 L2497.77 1584.67 L2514.60 1584.67 L2514.60 1586.52 L2531.43 1586.52 L2531.43 1586.65 L2548.26 1586.65 L2548.26 1587.14 L2565.09 1587.14 L2565.09 1589.25 L2581.92 1589.25 L2581.92 1589.62 L2598.87 1589.62 L2598.87 1590.61 L2615.70 1590.61 L2615.70 1590.36 L2632.53 1590.36 L2632.53 1590.98 L2649.36 1590.98 L2649.36 1590.48 L2666.19 1590.48 L2666.19 1592.59 L2683.02 1592.59 L2683.02 1591.47 L2699.98 1591.47 L2699.98 1592.84 L2716.81 1592.84 L2716.81 1594.07 L2733.64 1594.07 L2733.64 1593.83 L2750.47 1593.83 L2750.47 1594.20 L2767.30 1594.20 L2767.30 1595.43 L2784.25 1595.43 L2784.25 1595.68 L2801.08 1595.68 L2801.08 1597.66 L2817.91 1597.66 L2817.91 1599.02 L2834.74 1599.02 L2834.74 1600.01 L2851.57 1600.01 L2851.57 1599.64 L2868.40 1599.64 L2868.40 1600.63 L2885.36 1600.63 L2885.36 1600.76 L2902.18 1600.76 L2902.18 1600.63 L2919.01 1600.63 L2919.01 1601.13 L2935.84 1601.13 L2935.84 1601.87 L2952.68 1601.87 L2952.68 1603.73 L2969.51 1603.73 L2969.51 1604.47 L2986.46 1604.47 L2986.46 1604.47 L3003.29 1604.47 L3003.29 1604.72 L3020.12 1604.72 L3020.12 1605.95 L3036.95 1605.95 L3036.95 1608.06 L3053.78 1608.06 L3053.78 1609.05 L3070.61 1609.05 L3070.61 1610.78 L3087.56 1610.78 L3087.56 1610.29 L3104.39 1610.29 L3104.39 1611.40 L3121.22 1611.40 L3121.22 1613.01 L3138.05 1613.01 L3138.05 1613.13 L3154.88 1613.13 L3154.88 1614.86 L3171.84 1614.86 L3171.84 1614.49 L3188.67 1614.49 L3188.67 1613.50 L3205.50 1613.50 L3205.50 1614.12 L3222.33 1614.12 L3222.33 1613.87 L3239.16 1613.87 L3239.16 1613.75 L3255.99 1613.75 L3255.99 1615.48 L3272.94 1615.48 L3272.94 1614.74 L3289.77 1614.74 L3289.77 1614.74 L3306.60 1614.74 L3306.60 1616.10 L3323.43 1616.10 L3323.43 1617.09 L3340.26 1617.09 L3340.26 1617.09 L3357.09 1617.09 L3357.09 1615.85 L3374.04 1615.85 L3374.04 1617.34 L3390.87 1617.34 L3390.87 1617.34 L3407.70 1617.34 L3407.70 1617.34 L3424.53 1617.34 L3424.53 1617.59 L3441.36 1617.59 L3441.36 1617.22 L3458.19 1617.22 L3458.19 1619.07 L3475.15 1619.07 L3475.15 1620.19 L3491.98 1620.19 L3491.98 1621.55 L3508.81 1621.55 L3508.81 1622.78 L3525.64 1622.78 L3525.64 1623.77 L3542.47 1623.77 L3542.47 1624.52 L3559.42 1624.52 L3559.42 1624.89 L3576.25 1624.89 L3576.25 1626.37 L3593.08 1626.37 L3593.08 1626.87 L3609.91 1626.87 L3609.91 1627.61 L3626.74 1627.61 L3626.74 1627.61 L3643.57 1627.61 L3643.57 1629.84 L3660.53 1629.84 L3660.53 1630.70 L3677.36 1630.70 L3677.36 1628.48 L3694.18 1628.48 L3694.18 1627.98 L3711.01 1627.98 L3711.01 1629.71 L3727.84 1629.71 L3727.84 1630.95 L3744.68 1630.95 L3744.68 1630.46 L3761.63 1630.46 L3761.63 1630.83 L3778.46 1630.83 L3778.46 1628.97 L3795.29 1628.97 L3795.29 1628.85 L3795.29 1276.89 L3795.29 1277.39 L3778.46 1277.39 L3778.46 1279.74 L3761.63 1279.74 L3761.63 1279.99 L3744.68 1279.99 L3744.68 1280.98 L3727.84 1280.98 L3727.84 1280.36 L3711.01 1280.36 L3711.01 1278.87 L3694.18 1278.87 L3694.18 1279.74 L3677.36 1279.74 L3677.36 1282.71 L3660.53 1282.71 L3660.53 1282.34 L3643.57 1282.34 L3643.57 1280.61 L3626.74 1280.61 L3626.74 1281.10 L3609.91 1281.10 L3609.91 1280.98 L3593.08 1280.98 L3593.08 1280.85 L3576.25 1280.85 L3576.25 1279.86 L3559.42 1279.86 L3559.42 1279.86 L3542.47 1279.86 L3542.47 1279.61 L3525.64 1279.61 L3525.64 1279.12 L3508.81 1279.12 L3508.81 1278.38 L3491.98 1278.38 L3491.98 1277.63 L3475.15 1277.63 L3475.15 1277.14 L3458.19 1277.14 L3458.19 1276.03 L3441.36 1276.03 L3441.36 1277.02 L3424.53 1277.02 L3424.53 1277.14 L3407.70 1277.14 L3407.70 1277.63 L3390.87 1277.63 L3390.87 1278.13 L3374.04 1278.13 L3374.04 1277.14 L3357.09 1277.14 L3357.09 1279.00 L3340.26 1279.00 L3340.26 1279.74 L3323.43 1279.74 L3323.43 1279.24 L3306.60 1279.24 L3306.60 1278.75 L3289.77 1278.75 L3289.77 1279.61 L3272.94 1279.61 L3272.94 1280.85 L3255.99 1280.85 L3255.99 1279.86 L3239.16 1279.86 L3239.16 1280.61 L3222.33 1280.61 L3222.33 1281.35 L3205.50 1281.35 L3205.50 1281.47 L3188.67 1281.47 L3188.67 1283.08 L3171.84 1283.08 L3171.84 1283.82 L3154.88 1283.82 L3154.88 1282.71 L3138.05 1282.71 L3138.05 1283.08 L3121.22 1283.08 L3121.22 1282.09 L3104.39 1282.09 L3104.39 1281.60 L3087.56 1281.60 L3087.56 1282.71 L3070.61 1282.71 L3070.61 1281.72 L3053.78 1281.72 L3053.78 1281.10 L3036.95 1281.10 L3036.95 1279.49 L3020.12 1279.49 L3020.12 1278.87 L3003.29 1278.87 L3003.29 1279.37 L2986.46 1279.37 L2986.46 1280.11 L2969.51 1280.11 L2969.51 1280.11 L2952.68 1280.11 L2952.68 1279.00 L2935.84 1279.00 L2935.84 1279.12 L2919.01 1279.12 L2919.01 1279.24 L2902.18 1279.24 L2902.18 1279.86 L2885.36 1279.86 L2885.36 1280.61 L2868.40 1280.61 L2868.40 1280.36 L2851.57 1280.36 L2851.57 1281.60 L2834.74 1281.60 L2834.74 1281.35 L2817.91 1281.35 L2817.91 1280.73 L2801.08 1280.73 L2801.08 1279.61 L2784.25 1279.61 L2784.25 1279.74 L2767.30 1279.74 L2767.30 1279.37 L2750.47 1279.37 L2750.47 1279.86 L2733.64 1279.86 L2733.64 1280.73 L2716.81 1280.73 L2716.81 1280.11 L2699.98 1280.11 L2699.98 1279.61 L2683.02 1279.61 L2683.02 1281.47 L2666.19 1281.47 L2666.19 1280.23 L2649.36 1280.23 L2649.36 1281.60 L2632.53 1281.60 L2632.53 1281.97 L2615.70 1281.97 L2615.70 1283.20 L2598.87 1283.20 L2598.87 1282.83 L2581.92 1282.83 L2581.92 1283.20 L2565.09 1283.20 L2565.09 1281.97 L2548.26 1281.97 L2548.26 1282.21 L2531.43 1282.21 L2531.43 1283.20 L2514.60 1283.20 L2514.60 1282.34 L2497.77 1282.34 L2497.77 1281.72 L2480.82 1281.72 L2480.82 1283.33 L2463.99 1283.33 L2463.99 1282.34 L2447.16 1282.34 L2447.16 1282.96 L2430.33 1282.96 L2430.33 1281.84 L2413.50 1281.84 L2413.50 1283.33 L2396.54 1283.33 L2396.54 1282.59 L2379.71 1282.59 L2379.71 1282.83 L2362.88 1282.83 L2362.88 1281.72 L2346.05 1281.72 L2346.05 1281.10 L2329.22 1281.10 L2329.22 1279.00 L2312.39 1279.00 L2312.39 1278.87 L2295.44 1278.87 L2295.44 1279.61 L2278.61 1279.61 L2278.61 1278.38 L2261.78 1278.38 L2261.78 1278.01 L2244.95 1278.01 L2244.95 1277.51 L2228.12 1277.51 L2228.12 1276.64 L2211.29 1276.64 L2211.29 1277.39 L2194.34 1277.39 L2194.34 1277.39 L2177.51 1277.39 L2177.51 1279.37 L2160.68 1279.37 L2160.68 1281.10 L2143.84 1281.10 L2143.84 1279.74 L2127.01 1279.74 L2127.01 1279.86 L2110.18 1279.86 L2110.18 1281.22 L2093.23 1281.22 L2093.23 1282.46 L2076.40 1282.46 L2076.40 1282.83 L2059.57 1282.83 L2059.57 1283.58 L2042.74 1283.58 L2042.74 1283.70 L2025.91 1283.70 L2025.91 1284.94 L2008.96 1284.94 L2008.96 1286.30 L1992.13 1286.30 L1992.13 1287.29 L1975.30 1287.29 L1975.30 1287.41 L1958.47 1287.41 L1958.47 1287.91 L1941.64 1287.91 L1941.64 1288.40 L1924.81 1288.40 L1924.81 1288.77 L1907.85 1288.77 L1907.85 1288.90 L1891.02 1288.90 L1891.02 1289.27 L1874.19 1289.27 L1874.19 1291.50 L1857.36 1291.50 L1857.36 1291.50 L1840.53 1291.50 L1840.53 1293.72 L1823.70 1293.72 L1823.70 1294.59 L1806.75 1294.59 L1806.75 1294.71 L1789.92 1294.71 L1789.92 1296.82 L1773.09 1296.82 L1773.09 1297.44 L1756.26 1297.44 L1756.26 1298.05 L1739.43 1298.05 L1739.43 1297.44 L1722.48 1297.44 L1722.48 1298.43 L1705.65 1298.43 L1705.65 1297.56 L1688.82 1297.56 L1688.82 1298.30 L1671.99 1298.30 L1671.99 1299.17 L1655.16 1299.17 L1655.16 1300.41 L1638.33 1300.41 L1638.33 1299.17 L1621.37 1299.17 L1621.37 1299.54 L1604.54 1299.54 L1604.54 1297.68 L1587.71 1297.68 L1587.71 1298.18 L1570.88 1298.18 L1570.88 1298.05 L1554.05 1298.05 L1554.05 1298.67 L1537.22 1298.67 L1537.22 1297.81 L1520.27 1297.81 L1520.27 1298.30 L1503.44 1298.30 L1503.44 1298.67 L1486.61 1298.67 L1486.61 1300.41 L1469.78 1300.41 L1469.78 1302.51 L1452.95 1302.51 L1452.95 1305.85 L1436.12 1305.85 L1436.12 1307.46 L1419.16 1307.46 L1419.16 1307.83 L1402.34 1307.83 L1402.34 1308.82 L1385.51 1308.82 L1385.51 1310.18 L1368.67 1310.18 L1368.67 1309.07 L1351.85 1309.07 L1351.85 1309.56 L1334.89 1309.56 L1334.89 1311.79 L1318.06 1311.79 L1318.06 1310.31 L1301.23 1310.31 L1301.23 1311.05 L1284.40 1311.05 L1284.40 1313.28 L1267.57 1313.28 L1267.57 1315.26 L1250.74 1315.26 L1250.74 1317.73 L1233.79 1317.73 L1233.79 1320.08 L1216.96 1320.08 L1216.96 1320.83 L1200.13 1320.83 L1200.13 1320.58 L1183.30 1320.58 L1183.30 1322.31 L1166.47 1322.31 L1166.47 1325.28 L1149.64 1325.28 L1149.64 1326.64 L1132.68 1326.64 L1132.68 1328.25 L1115.85 1328.25 L1115.85 1331.59 L1099.02 1331.59 L1099.02 1335.92 L1082.19 1335.92 L1082.19 1339.02 L1065.36 1339.02 L1065.36 1343.10 L1048.53 1343.10 L1048.53 1345.95 L1031.58 1345.95 L1031.58 1351.02 L1014.75 1351.02 L1014.75 1353.25 L997.92 1353.25 L997.92 1358.57 L981.09 1358.57 L981.09 1362.65 L964.26 1362.65 L964.26 1366.37 L947.31 1366.37 L947.31 1370.45 L930.48 1370.45 L930.48 1374.53 L913.65 1374.53 L913.65 1379.48 L896.82 1379.48 L896.82 1384.19 L879.99 1384.19 L879.99 1386.29 L863.16 1386.29 L863.16 1390.87 L846.20 1390.87 L846.20 1397.06 L829.37 1397.06 L829.37 1401.64 L812.54 1401.64 L812.54 1407.58 L795.71 1407.58 L795.71 1412.53 L778.88 1412.53 L778.88 1490.24 Z" stroke-linejoin="round"/>
	</defs>
	<defs>
		<clipPath id="clipPath_moeZPPgM">
			<use xlink:href="#path_ufOuFUOM"/>
		</clipPath>
	</defs>
	<use xlink:href="#path_ufOuFUOM" style="stroke:none;fill:#999999;fill-opacity:0.65"/>
	<use xlink:href="#path_ufOuFUOM" style="fill:none;stroke:#808080;stroke-opacity:0.65;stroke-width:17.28" clip-path="url(#clipPath_moeZPPgM)"/>
	<path d=" M778.76 1451.39 L795.59 1451.39 L795.59 1450.64 L812.54 1450.64 L812.54 1448.42 L829.37 1448.42 L829.37 1447.43 L846.20 1447.43 L846.20 1444.95 L863.03 1444.95 L863.03 1443.71 L879.86 1443.71 L879.86 1444.83 L896.69 1444.83 L896.69 1442.97 L913.65 1442.97 L913.65 1440.87 L930.48 1440.87 L930.48 1439.75 L947.31 1439.75 L947.31 1438.27 L964.14 1438.27 L964.14 1437.15 L980.97 1437.15 L980.97 1435.42 L997.80 1435.42 L997.80 1432.33 L1014.75 1432.33 L1014.75 1432.33 L1031.58 1432.33 L1031.58 1429.36 L1048.41 1429.36 L1048.41 1428.61 L1065.24 1428.61 L1065.24 1426.39 L1082.07 1426.39 L1082.07 1425.27 L1099.02 1425.27 L1099.02 1422.67 L1115.85 1422.67 L1115.85 1421.19 L1132.68 1421.19 L1132.68 1421.31 L1149.51 1421.31 L1149.51 1421.56 L1166.34 1421.56 L1166.34 1420.32 L1183.17 1420.32 L1183.17 1420.08 L1200.13 1420.08 L1200.13 1421.68 L1216.96 1421.68 L1216.96 1422.43 L1233.79 1422.43 L1233.79 1421.31 L1250.62 1421.31 L1250.62 1420.20 L1267.45 1420.20 L1267.45 1419.46 L1284.28 1419.46 L1284.28 1418.22 L1301.23 1418.22 L1301.23 1418.71 L1318.06 1418.71 L1318.06 1421.19 L1334.89 1421.19 L1334.89 1420.20 L1351.72 1420.20 L1351.72 1420.82 L1368.55 1420.82 L1368.55 1422.67 L1385.51 1422.67 L1385.51 1422.43 L1402.34 1422.43 L1402.34 1422.30 L1419.16 1422.30 L1419.16 1422.92 L1435.99 1422.92 L1435.99 1422.18 L1452.83 1422.18 L1452.83 1419.70 L1469.65 1419.70 L1469.65 1418.47 L1486.61 1418.47 L1486.61 1417.72 L1503.44 1417.72 L1503.44 1418.10 L1520.27 1418.10 L1520.27 1418.47 L1537.10 1418.47 L1537.10 1420.20 L1553.93 1420.20 L1553.93 1420.45 L1570.76 1420.45 L1570.76 1421.19 L1587.71 1421.19 L1587.71 1421.44 L1604.54 1421.44 L1604.54 1424.16 L1621.37 1424.16 L1621.37 1424.28 L1638.20 1424.28 L1638.20 1426.26 L1655.03 1426.26 L1655.03 1425.52 L1671.86 1425.52 L1671.86 1425.27 L1688.82 1425.27 L1688.82 1425.27 L1705.65 1425.27 L1705.65 1426.76 L1722.48 1426.76 L1722.48 1426.39 L1739.31 1426.39 L1739.31 1427.75 L1756.14 1427.75 L1756.14 1427.75 L1773.09 1427.75 L1773.09 1427.62 L1789.92 1427.62 L1789.92 1426.26 L1806.75 1426.26 L1806.75 1426.63 L1823.58 1426.63 L1823.58 1426.51 L1840.41 1426.51 L1840.41 1424.78 L1857.24 1424.78 L1857.24 1425.52 L1874.19 1425.52 L1874.19 1423.66 L1891.02 1423.66 L1891.02 1423.91 L1907.85 1423.91 L1907.85 1424.41 L1924.68 1424.41 L1924.68 1424.65 L1941.51 1424.65 L1941.51 1424.53 L1958.34 1424.53 L1958.34 1424.65 L1975.30 1424.65 L1975.30 1425.03 L1992.13 1425.03 L1992.13 1424.53 L2008.96 1424.53 L2008.96 1423.66 L2025.79 1423.66 L2025.79 1423.05 L2042.62 1423.05 L2042.62 1423.17 L2059.45 1423.17 L2059.45 1423.05 L2076.40 1423.05 L2076.40 1423.05 L2093.23 1423.05 L2093.23 1422.30 L2110.06 1422.30 L2110.06 1421.31 L2126.89 1421.31 L2126.89 1421.56 L2143.72 1421.56 L2143.72 1423.29 L2160.68 1423.29 L2160.68 1422.06 L2177.51 1422.06 L2177.51 1420.45 L2194.34 1420.45 L2194.34 1420.94 L2211.16 1420.94 L2211.16 1420.69 L2227.99 1420.69 L2227.99 1422.06 L2244.82 1422.06 L2244.82 1423.17 L2261.78 1423.17 L2261.78 1424.04 L2278.61 1424.04 L2278.61 1425.64 L2295.44 1425.64 L2295.44 1425.27 L2312.27 1425.27 L2312.27 1425.89 L2329.10 1425.89 L2329.10 1428.24 L2345.93 1428.24 L2345.93 1429.23 L2362.88 1429.23 L2362.88 1430.84 L2379.71 1430.84 L2379.71 1431.09 L2396.54 1431.09 L2396.54 1432.08 L2413.37 1432.08 L2413.37 1431.09 L2430.20 1431.09 L2430.20 1432.70 L2447.16 1432.70 L2447.16 1432.33 L2463.99 1432.33 L2463.99 1433.81 L2480.82 1433.81 L2480.82 1432.57 L2497.65 1432.57 L2497.65 1433.56 L2514.48 1433.56 L2514.48 1434.93 L2531.31 1434.93 L2531.31 1434.43 L2548.26 1434.43 L2548.26 1434.55 L2565.09 1434.55 L2565.09 1436.16 L2581.92 1436.16 L2581.92 1436.29 L2598.75 1436.29 L2598.75 1436.91 L2615.58 1436.91 L2615.58 1436.16 L2632.41 1436.16 L2632.41 1436.29 L2649.36 1436.29 L2649.36 1435.42 L2666.19 1435.42 L2666.19 1437.03 L2683.02 1437.03 L2683.02 1435.54 L2699.85 1435.54 L2699.85 1436.41 L2716.68 1436.41 L2716.68 1437.40 L2733.51 1437.40 L2733.51 1436.91 L2750.47 1436.91 L2750.47 1436.78 L2767.30 1436.78 L2767.30 1437.65 L2784.13 1437.65 L2784.13 1437.65 L2800.96 1437.65 L2800.96 1439.26 L2817.79 1439.26 L2817.79 1440.25 L2834.74 1440.25 L2834.74 1440.87 L2851.57 1440.87 L2851.57 1440.00 L2868.40 1440.00 L2868.40 1440.62 L2885.23 1440.62 L2885.23 1440.25 L2902.06 1440.25 L2902.06 1440.00 L2918.89 1440.00 L2918.89 1440.12 L2935.84 1440.12 L2935.84 1440.50 L2952.68 1440.50 L2952.68 1441.98 L2969.51 1441.98 L2969.51 1442.35 L2986.34 1442.35 L2986.34 1441.86 L3003.16 1441.86 L3003.16 1441.73 L3019.99 1441.73 L3019.99 1442.72 L3036.95 1442.72 L3036.95 1444.58 L3053.78 1444.58 L3053.78 1445.45 L3070.61 1445.45 L3070.61 1446.68 L3087.44 1446.68 L3087.44 1445.94 L3104.27 1445.94 L3104.27 1446.81 L3121.10 1446.81 L3121.10 1448.04 L3138.05 1448.04 L3138.05 1447.92 L3154.88 1447.92 L3154.88 1449.41 L3171.71 1449.41 L3171.71 1448.91 L3188.54 1448.91 L3188.54 1447.55 L3205.37 1447.55 L3205.37 1447.80 L3222.33 1447.80 L3222.33 1447.30 L3239.16 1447.30 L3239.16 1446.81 L3255.99 1446.81 L3255.99 1448.17 L3272.82 1448.17 L3272.82 1447.30 L3289.65 1447.30 L3289.65 1446.81 L3306.48 1446.81 L3306.48 1447.67 L3323.43 1447.67 L3323.43 1448.42 L3340.26 1448.42 L3340.26 1448.17 L3357.09 1448.17 L3357.09 1446.56 L3373.92 1446.56 L3373.92 1447.80 L3390.75 1447.80 L3390.75 1447.55 L3407.58 1447.55 L3407.58 1447.30 L3424.53 1447.30 L3424.53 1447.30 L3441.36 1447.30 L3441.36 1446.56 L3458.19 1446.56 L3458.19 1448.17 L3475.02 1448.17 L3475.02 1448.91 L3491.85 1448.91 L3491.85 1450.02 L3508.81 1450.02 L3508.81 1451.01 L3525.64 1451.01 L3525.64 1451.76 L3542.47 1451.76 L3542.47 1452.25 L3559.30 1452.25 L3559.30 1452.38 L3576.13 1452.38 L3576.13 1453.61 L3592.96 1453.61 L3592.96 1453.98 L3609.91 1453.98 L3609.91 1454.36 L3626.74 1454.36 L3626.74 1454.11 L3643.57 1454.11 L3643.57 1456.21 L3660.40 1456.21 L3660.40 1456.71 L3677.23 1456.71 L3677.23 1454.11 L3694.06 1454.11 L3694.06 1453.49 L3711.01 1453.49 L3711.01 1455.10 L3727.84 1455.10 L3727.84 1455.96 L3744.68 1455.96 L3744.68 1455.22 L3761.51 1455.22 L3761.51 1455.35 L3778.34 1455.35 L3778.34 1453.24 L3795.16 1453.24 L3795.16 1452.87" stroke-linejoin="round" style="fill:none;stroke:#000000;stroke-width:8.64"/>
	<line x1="559.10" y1="2509.23" x2="559.10" y2="419.90" style="stroke:#000000;stroke-width:5.76"/>
	<line x1="559.10" y1="2445.87" x2="519.13" y2="2445.87" style="stroke:#000000;stroke-width:5.76"/>
	<text x="499.08" y="2480.90" style="font-family:'Helvetica';font-size:99.99px;fill:#000000" text-anchor="end">-0.25</text>
	<line x1="559.10" y1="2249.60" x2="519.13" y2="2249.60" style="stroke:#000000;stroke-width:5.76"/>
	<text x="499.08" y="2284.63" style="font-family:'Helvetica';font-size:99.99px;fill:#000000" text-anchor="end">-0.20</text>
	<line x1="559.10" y1="2053.32" x2="519.13" y2="2053.32" style="stroke:#000000;stroke-width:5.76"/>
	<text x="499.08" y="2088.35" style="font-family:'Helvetica';font-size:99.99px;fill:#000000" text-anchor="end">-0.15</text>
	<line x1="559.10" y1="1857.05" x2="519.13" y2="1857.05" style="stroke:#000000;stroke-width:5.76"/>
	<text x="499.08" y="1892.08" style="font-family:'Helvetica';font-size:99.99px;fill:#000000" text-anchor="end">-0.10</text>
	<line x1="559.10" y1="1660.78" x2="519.13" y2="1660.78" style="stroke:#000000;stroke-width:5.76"/>
	<text x="499.08" y="1695.81" style="font-family:'Helvetica';font-size:99.99px;fill:#000000" text-anchor="end">-0.05</text>
	<line x1="559.10" y1="1464.63" x2="519.13" y2="1464.63" style="stroke:#000000;stroke-width:5.76"/>
	<text x="499.08" y="1499.66" style="font-family:'Helvetica';font-size:99.99px;fill:#000000" text-anchor="end">0.00</text>
	<line x1="559.10" y1="1268.35" x2="519.13" y2="1268.35" style="stroke:#000000;stroke-width:5.76"/>
	<text x="499.08" y="1303.38" style="font-family:'Helvetica';font-size:99.99px;fill:#000000" text-anchor="end">0.05</text>
	<line x1="559.10" y1="1072.08" x2="519.13" y2="1072.08" style="stroke:#000000;stroke-width:5.76"/>
	<text x="499.08" y="1107.11" style="font-family:'Helvetica';font-size:99.99px;fill:#000000" text-anchor="end">0.10</text>
	<line x1="559.10" y1="875.81" x2="519.13" y2="875.81" style="stroke:#000000;stroke-width:5.76"/>
	<text x="499.08" y="910.83" style="font-family:'Helvetica';font-size:99.99px;fill:#000000" text-anchor="end">0.15</text>
	<line x1="559.10" y1="679.53" x2="519.13" y2="679.53" style="stroke:#000000;stroke-width:5.76"/>
	<text x="499.08" y="714.56" style="font-family:'Helvetica';font-size:99.99px;fill:#000000" text-anchor="end">0.20</text>
	<line x1="559.10" y1="483.26" x2="519.13" y2="483.26" style="stroke:#000000;stroke-width:5.76"/>
	<text x="499.08" y="518.29" style="font-family:'Helvetica';font-size:99.99px;fill:#000000" text-anchor="end">0.25</text>
	<text x="190.71" y="1464.63" style="font-family:'Helvetica';font-size:99.99px;fill:#000000" transform="rotate(-90 190.71,1464.63)" text-anchor="middle">Difference in Probabilities</text>
	<line x1="559.10" y1="2509.23" x2="3859.02" y2="2509.23" style="stroke:#000000;stroke-width:5.76"/>
	<line x1="622.46" y1="2509.23" x2="622.46" y2="2549.21" style="stroke:#000000;stroke-width:5.76"/>
	<text x="622.46" y="2625.15" style="font-family:'Helvetica';font-size:79.94px;fill:#000000" text-anchor="middle">0</text>
	<line x1="812.91" y1="2509.23" x2="812.91" y2="2549.21" style="stroke:#000000;stroke-width:5.76"/>
	<text x="812.91" y="2625.15" style="font-family:'Helvetica';font-size:79.94px;fill:#000000" text-anchor="middle">.3</text>
	<line x1="1003.24" y1="2509.23" x2="1003.24" y2="2549.21" style="stroke:#000000;stroke-width:5.76"/>
	<text x="1003.24" y="2625.15" style="font-family:'Helvetica';font-size:79.94px;fill:#000000" text-anchor="middle">.6</text>
	<line x1="1193.69" y1="2509.23" x2="1193.69" y2="2549.21" style="stroke:#000000;stroke-width:5.76"/>
	<text x="1193.69" y="2625.15" style="font-family:'Helvetica';font-size:79.94px;fill:#000000" text-anchor="middle">.9</text>
	<line x1="1384.02" y1="2509.23" x2="1384.02" y2="2549.21" style="stroke:#000000;stroke-width:5.76"/>
	<text x="1384.02" y="2625.15" style="font-family:'Helvetica';font-size:79.94px;fill:#000000" text-anchor="middle">1.2</text>
	<line x1="1574.47" y1="2509.23" x2="1574.47" y2="2549.21" style="stroke:#000000;stroke-width:5.76"/>
	<text x="1574.47" y="2625.15" style="font-family:'Helvetica';font-size:79.94px;fill:#000000" text-anchor="middle">1.5</text>
	<line x1="1764.80" y1="2509.23" x2="1764.80" y2="2549.21" style="stroke:#000000;stroke-width:5.76"/>
	<text x="1764.80" y="2625.15" style="font-family:'Helvetica';font-size:79.94px;fill:#000000" text-anchor="middle">1.8</text>
	<line x1="1955.25" y1="2509.23" x2="1955.25" y2="2549.21" style="stroke:#000000;stroke-width:5.76"/>
	<text x="1955.25" y="2625.15" style="font-family:'Helvetica';font-size:79.94px;fill:#000000" text-anchor="middle">2.1</text>
	<line x1="2145.58" y1="2509.23" x2="2145.58" y2="2549.21" style="stroke:#000000;stroke-width:5.76"/>
	<text x="2145.58" y="2625.15" style="font-family:'Helvetica';font-size:79.94px;fill:#000000" text-anchor="middle">2.4</text>
	<line x1="2336.03" y1="2509.23" x2="2336.03" y2="2549.21" style="stroke:#000000;stroke-width:5.76"/>
	<text x="2336.03" y="2625.15" style="font-family:'Helvetica';font-size:79.94px;fill:#000000" text-anchor="middle">2.7</text>
	<line x1="2526.48" y1="2509.23" x2="2526.48" y2="2549.21" style="stroke:#000000;stroke-width:5.76"/>
	<text x="2526.48" y="2625.15" style="font-family:'Helvetica';font-size:79.94px;fill:#000000" text-anchor="middle">3</text>
	<line x1="2716.81" y1="2509.23" x2="2716.81" y2="2549.21" style="stroke:#000000;stroke-width:5.76"/>
	<text x="2716.81" y="2625.15" style="font-family:'Helvetica';font-size:79.94px;fill:#000000" text-anchor="middle">3.3</text>
	<line x1="2907.26" y1="2509.23" x2="2907.26" y2="2549.21" style="stroke:#000000;stroke-width:5.76"/>
	<text x="2907.26" y="2625.15" style="font-family:'Helvetica';font-size:79.94px;fill:#000000" text-anchor="middle">3.6</text>
	<line x1="3097.59" y1="2509.23" x2="3097.59" y2="2549.21" style="stroke:#000000;stroke-width:5.76"/>
	<text x="3097.59" y="2625.15" style="font-family:'Helvetica';font-size:79.94px;fill:#000000" text-anchor="middle">3.9</text>
	<line x1="3288.04" y1="2509.23" x2="3288.04" y2="2549.21" style="stroke:#000000;stroke-width:5.76"/>
	<text x="3288.04" y="2625.15" style="font-family:'Helvetica';font-size:79.94px;fill:#000000" text-anchor="middle">4.2</text>
	<line x1="3478.36" y1="2509.23" x2="3478.36" y2="2549.21" style="stroke:#000000;stroke-width:5.76"/>
	<text x="3478.36" y="2625.15" style="font-family:'Helvetica';font-size:79.94px;fill:#000000" text-anchor="middle">4.5</text>
	<line x1="3668.82" y1="2509.23" x2="3668.82" y2="2549.21" style="stroke:#000000;stroke-width:5.76"/>
	<text x="3668.82" y="2625.15" style="font-family:'Helvetica';font-size:79.94px;fill:#000000" text-anchor="middle">4.8</text>
	<line x1="3859.14" y1="2509.23" x2="3859.14" y2="2549.21" style="stroke:#000000;stroke-width:5.76"/>
	<text x="3859.14" y="2625.15" style="font-family:'Helvetica';font-size:79.94px;fill:#000000" text-anchor="middle">5.1</text>
	<text x="2209.06" y="2729.16" style="font-family:'Helvetica';font-size:99.99px;fill:#000000" text-anchor="middle">Time (years)</text>
	<rect x="593.63" y="454.42" width="993.34" height="326.46" style="fill:#FFFFFF"/>
	<rect x="596.51" y="457.30" width="987.58" height="320.70" style="fill:none;stroke:#000000;stroke-width:5.76"/>
	<rect x="636.82" y="497.74" width="374.47" height="99.99" style="fill:#999999;fill-opacity:0.65"/>
	<rect x="641.14" y="502.06" width="365.83" height="91.35" style="fill:none;stroke:#808080;stroke-opacity:0.65;stroke-width:8.64"/>
	<line x1="636.82" y1="687.70" x2="1011.28" y2="687.70" style="stroke:#000000;stroke-width:8.64"/>
	<text x="1071.30" y="582.76" style="font-family:'Helvetica';font-size:99.99px;fill:#000000">CI95%</text>
	<text x="1071.30" y="722.73" style="font-family:'Helvetica';font-size:99.99px;fill:#000000">Difference</text>
	<text x="2209.06" y="369.63" style="font-family:'Helvetica';font-size:110.01px;fill:#000000" text-anchor="middle">from 2nd Readmission to 3rd Readmission</text>
	<text x="2209.06" y="215.98" style="font-family:'Helvetica';font-size:139.96px;fill:#1E2D53" text-anchor="middle">Difference in Probabilities</text>
</svg>
