<?xml version="1.0" encoding="UTF-8" standalone="no"?>
<!-- This is a Stata 16.1 generated SVG file (http://www.stata.com) -->

<svg version="1.1" width="5.50in" height="4.00in" viewBox="0 0 3960 2880" xmlns="http://www.w3.org/2000/svg" xmlns:xlink="http://www.w3.org/1999/xlink">
	<desc>Stata Graph - diff_mod34_3y</desc>
	<rect x="0" y="0" width="3960" height="2880" style="fill:#EAF2F3;stroke:none"/>
	<rect x="0.00" y="0.00" width="3959.88" height="2880.00" style="fill:#FFFFFF"/>
	<rect x="2.88" y="2.88" width="3954.12" height="2874.24" style="fill:none;stroke:#FFFFFF;stroke-width:5.76"/>
	<rect x="559.10" y="419.90" width="3299.92" height="2089.34" style="fill:#FFFFFF"/>
	<rect x="561.98" y="422.78" width="3294.16" height="2083.58" style="fill:none;stroke:#FFFFFF;stroke-width:5.76"/>
	<line x1="559.10" y1="2249.60" x2="3859.02" y2="2249.60" style="stroke:#EAF2F3;stroke-width:8.64"/>
	<line x1="559.10" y1="2053.32" x2="3859.02" y2="2053.32" style="stroke:#EAF2F3;stroke-width:8.64"/>
	<line x1="559.10" y1="1857.05" x2="3859.02" y2="1857.05" style="stroke:#EAF2F3;stroke-width:8.64"/>
	<line x1="559.10" y1="1660.78" x2="3859.02" y2="1660.78" style="stroke:#EAF2F3;stroke-width:8.64"/>
	<line x1="559.10" y1="1464.63" x2="3859.02" y2="1464.63" style="stroke:#EAF2F3;stroke-width:8.64"/>
	<line x1="559.10" y1="1268.35" x2="3859.02" y2="1268.35" style="stroke:#EAF2F3;stroke-width:8.64"/>
	<line x1="559.10" y1="1072.08" x2="3859.02" y2="1072.08" style="stroke:#EAF2F3;stroke-width:8.64"/>
	<line x1="559.10" y1="875.81" x2="3859.02" y2="875.81" style="stroke:#EAF2F3;stroke-width:8.64"/>
	<line x1="559.10" y1="679.53" x2="3859.02" y2="679.53" style="stroke:#EAF2F3;stroke-width:8.64"/>
	<line x1="559.10" y1="1464.63" x2="3859.02" y2="1464.63" style="stroke:#1A476F;stroke-width:8.64"/>
	<defs>
		<path id="path_cvsoYutR" d="M778.88 1477.99 L778.88 1477.99 L795.71 1477.99 L795.71 1477.00 L812.54 1477.00 L812.54 1478.36 L829.37 1478.36 L829.37 1477.99 L846.20 1477.99 L846.20 1479.35 L863.16 1479.35 L863.16 1481.21 L879.99 1481.21 L879.99 1484.43 L896.82 1484.43 L896.82 1485.91 L913.65 1485.91 L913.65 1484.06 L930.48 1484.06 L930.48 1483.44 L947.31 1483.44 L947.31 1486.66 L964.26 1486.66 L964.26 1488.14 L981.09 1488.14 L981.09 1490.12 L997.92 1490.12 L997.92 1492.72 L1014.75 1492.72 L1014.75 1491.11 L1031.58 1491.11 L1031.58 1492.72 L1048.53 1492.72 L1048.53 1493.83 L1065.36 1493.83 L1065.36 1492.97 L1082.19 1492.97 L1082.19 1494.70 L1099.02 1494.70 L1099.02 1495.81 L1115.85 1495.81 L1115.85 1497.05 L1132.68 1497.05 L1132.68 1496.43 L1149.64 1496.43 L1149.64 1498.16 L1166.47 1498.16 L1166.47 1498.78 L1183.30 1498.78 L1183.30 1498.29 L1200.13 1498.29 L1200.13 1498.78 L1216.96 1498.78 L1216.96 1499.15 L1233.79 1499.15 L1233.79 1500.27 L1250.74 1500.27 L1250.74 1499.77 L1267.57 1499.77 L1267.57 1500.52 L1284.40 1500.52 L1284.40 1501.63 L1301.23 1501.63 L1301.23 1502.74 L1318.06 1502.74 L1318.06 1503.61 L1334.89 1503.61 L1334.89 1505.84 L1351.85 1505.84 L1351.85 1506.70 L1368.67 1506.70 L1368.67 1507.45 L1385.51 1507.45 L1385.51 1509.05 L1402.34 1509.05 L1402.34 1510.66 L1419.16 1510.66 L1419.16 1511.53 L1436.12 1511.53 L1436.12 1513.14 L1452.95 1513.14 L1452.95 1514.87 L1469.78 1514.87 L1469.78 1516.60 L1486.61 1516.60 L1486.61 1518.95 L1503.44 1518.95 L1503.44 1519.33 L1520.27 1519.33 L1520.27 1518.83 L1537.22 1518.83 L1537.22 1521.06 L1554.05 1521.06 L1554.05 1520.56 L1570.88 1520.56 L1570.88 1522.17 L1587.71 1522.17 L1587.71 1522.92 L1604.54 1522.92 L1604.54 1524.52 L1621.37 1524.52 L1621.37 1525.51 L1638.33 1525.51 L1638.33 1525.89 L1655.16 1525.89 L1655.16 1526.26 L1671.99 1526.26 L1671.99 1526.38 L1688.82 1526.38 L1688.82 1526.38 L1705.65 1526.38 L1705.65 1527.49 L1722.48 1527.49 L1722.48 1526.01 L1739.43 1526.01 L1739.43 1528.11 L1756.26 1528.11 L1756.26 1528.24 L1773.09 1528.24 L1773.09 1528.36 L1789.92 1528.36 L1789.92 1529.85 L1806.75 1529.85 L1806.75 1530.71 L1823.70 1530.71 L1823.70 1531.08 L1840.53 1531.08 L1840.53 1534.55 L1857.36 1534.55 L1857.36 1536.65 L1874.19 1536.65 L1874.19 1535.41 L1891.02 1535.41 L1891.02 1537.02 L1907.85 1537.02 L1907.85 1540.12 L1924.81 1540.12 L1924.81 1540.36 L1941.64 1540.36 L1941.64 1542.59 L1958.47 1542.59 L1958.47 1543.71 L1975.30 1543.71 L1975.30 1544.94 L1992.13 1544.94 L1992.13 1545.81 L2008.96 1545.81 L2008.96 1547.67 L2025.91 1547.67 L2025.91 1548.66 L2042.74 1548.66 L2042.74 1550.02 L2059.57 1550.02 L2059.57 1549.03 L2076.40 1549.03 L2076.40 1548.66 L2093.23 1548.66 L2093.23 1547.67 L2110.18 1547.67 L2110.18 1547.05 L2127.01 1547.05 L2127.01 1548.16 L2143.84 1548.16 L2143.84 1549.65 L2160.68 1549.65 L2160.68 1550.39 L2177.51 1550.39 L2177.51 1552.86 L2194.34 1552.86 L2194.34 1551.25 L2211.29 1551.25 L2211.29 1551.25 L2228.12 1551.25 L2228.12 1551.75 L2244.95 1551.75 L2244.95 1552.00 L2261.78 1552.00 L2261.78 1552.74 L2278.61 1552.74 L2278.61 1552.49 L2295.44 1552.49 L2295.44 1554.84 L2312.39 1554.84 L2312.39 1553.61 L2329.22 1553.61 L2329.22 1552.12 L2346.05 1552.12 L2346.05 1552.00 L2362.88 1552.00 L2362.88 1553.23 L2379.71 1553.23 L2379.71 1553.23 L2396.54 1553.23 L2396.54 1553.98 L2413.50 1553.98 L2413.50 1555.21 L2430.33 1555.21 L2430.33 1554.22 L2447.16 1554.22 L2447.16 1555.96 L2463.99 1555.96 L2463.99 1556.33 L2480.82 1556.33 L2480.82 1556.33 L2497.77 1556.33 L2497.77 1556.95 L2514.60 1556.95 L2514.60 1557.69 L2531.43 1557.69 L2531.43 1558.18 L2548.26 1558.18 L2548.26 1557.19 L2565.09 1557.19 L2565.09 1558.93 L2581.92 1558.93 L2581.92 1558.31 L2598.87 1558.31 L2598.87 1560.41 L2615.70 1560.41 L2615.70 1561.40 L2632.53 1561.40 L2632.53 1562.15 L2649.36 1562.15 L2649.36 1562.27 L2666.19 1562.27 L2666.19 1561.28 L2683.02 1561.28 L2683.02 1563.01 L2699.98 1563.01 L2699.98 1565.12 L2716.81 1565.12 L2716.81 1564.13 L2733.64 1564.13 L2733.64 1564.99 L2750.47 1564.99 L2750.47 1567.22 L2767.30 1567.22 L2767.30 1569.08 L2784.25 1569.08 L2784.25 1569.94 L2801.08 1569.94 L2801.08 1570.44 L2817.91 1570.44 L2817.91 1572.05 L2834.74 1572.05 L2834.74 1573.41 L2851.57 1573.41 L2851.57 1574.52 L2868.40 1574.52 L2868.40 1575.63 L2885.36 1575.63 L2885.36 1576.01 L2902.18 1576.01 L2902.18 1577.37 L2919.01 1577.37 L2919.01 1578.85 L2935.84 1578.85 L2935.84 1581.08 L2952.68 1581.08 L2952.68 1581.82 L2969.51 1581.82 L2969.51 1581.57 L2986.46 1581.57 L2986.46 1581.20 L3003.29 1581.20 L3003.29 1582.32 L3020.12 1582.32 L3020.12 1582.44 L3036.95 1582.44 L3036.95 1581.95 L3053.78 1581.95 L3053.78 1583.55 L3070.61 1583.55 L3070.61 1584.42 L3087.56 1584.42 L3087.56 1584.79 L3104.39 1584.79 L3104.39 1585.41 L3121.22 1585.41 L3121.22 1587.39 L3138.05 1587.39 L3138.05 1589.12 L3154.88 1589.12 L3154.88 1589.62 L3171.84 1589.62 L3171.84 1588.75 L3188.67 1588.75 L3188.67 1591.60 L3205.50 1591.60 L3205.50 1592.84 L3222.33 1592.84 L3222.33 1592.22 L3239.16 1592.22 L3239.16 1593.21 L3255.99 1593.21 L3255.99 1593.58 L3272.94 1593.58 L3272.94 1594.20 L3289.77 1594.20 L3289.77 1595.81 L3306.60 1595.81 L3306.60 1596.92 L3323.43 1596.92 L3323.43 1598.03 L3340.26 1598.03 L3340.26 1599.02 L3357.09 1599.02 L3357.09 1599.39 L3374.04 1599.39 L3374.04 1598.78 L3390.87 1598.78 L3390.87 1598.78 L3407.70 1598.78 L3407.70 1599.77 L3424.53 1599.77 L3424.53 1599.89 L3441.36 1599.89 L3441.36 1601.00 L3458.19 1601.00 L3458.19 1602.61 L3475.15 1602.61 L3475.15 1601.99 L3491.98 1601.99 L3491.98 1602.24 L3508.81 1602.24 L3508.81 1603.48 L3525.64 1603.48 L3525.64 1605.09 L3542.47 1605.09 L3542.47 1605.46 L3559.42 1605.46 L3559.42 1604.96 L3576.25 1604.96 L3576.25 1605.58 L3593.08 1605.58 L3593.08 1606.94 L3609.91 1606.94 L3609.91 1607.44 L3626.74 1607.44 L3626.74 1608.68 L3643.57 1608.68 L3643.57 1610.41 L3660.53 1610.41 L3660.53 1611.52 L3677.36 1611.52 L3677.36 1611.77 L3694.18 1611.77 L3694.18 1613.75 L3711.01 1613.75 L3711.01 1615.61 L3727.84 1615.61 L3727.84 1616.47 L3744.68 1616.47 L3744.68 1617.22 L3761.63 1617.22 L3761.63 1617.46 L3778.46 1617.46 L3778.46 1618.33 L3795.29 1618.33 L3795.29 1618.21 L3795.29 1285.06 L3795.29 1285.56 L3778.46 1285.56 L3778.46 1285.31 L3761.63 1285.31 L3761.63 1285.43 L3744.68 1285.43 L3744.68 1284.94 L3727.84 1284.94 L3727.84 1284.57 L3711.01 1284.57 L3711.01 1283.20 L3694.18 1283.20 L3694.18 1281.84 L3677.36 1281.84 L3677.36 1281.97 L3660.53 1281.97 L3660.53 1281.47 L3643.57 1281.47 L3643.57 1280.36 L3626.74 1280.36 L3626.74 1279.61 L3609.91 1279.61 L3609.91 1279.61 L3593.08 1279.61 L3593.08 1278.87 L3576.25 1278.87 L3576.25 1279.00 L3559.42 1279.00 L3559.42 1279.86 L3542.47 1279.86 L3542.47 1279.99 L3525.64 1279.99 L3525.64 1278.87 L3508.81 1278.87 L3508.81 1278.38 L3491.98 1278.38 L3491.98 1278.50 L3475.15 1278.50 L3475.15 1279.74 L3458.19 1279.74 L3458.19 1278.62 L3441.36 1278.62 L3441.36 1278.01 L3424.53 1278.01 L3424.53 1278.50 L3407.70 1278.50 L3407.70 1278.38 L3390.87 1278.38 L3390.87 1278.75 L3374.04 1278.75 L3374.04 1279.86 L3357.09 1279.86 L3357.09 1279.99 L3340.26 1279.99 L3340.26 1279.37 L3323.43 1279.37 L3323.43 1278.87 L3306.60 1278.87 L3306.60 1278.38 L3289.77 1278.38 L3289.77 1277.51 L3272.94 1277.51 L3272.94 1277.76 L3255.99 1277.76 L3255.99 1277.76 L3239.16 1277.76 L3239.16 1277.39 L3222.33 1277.39 L3222.33 1278.62 L3205.50 1278.62 L3205.50 1278.01 L3188.67 1278.01 L3188.67 1275.78 L3171.84 1275.78 L3171.84 1277.39 L3154.88 1277.39 L3154.88 1277.76 L3138.05 1277.76 L3138.05 1276.52 L3121.22 1276.52 L3121.22 1275.04 L3104.39 1275.04 L3104.39 1275.04 L3087.56 1275.04 L3087.56 1275.28 L3070.61 1275.28 L3070.61 1275.16 L3053.78 1275.16 L3053.78 1274.17 L3036.95 1274.17 L3036.95 1275.16 L3020.12 1275.16 L3020.12 1275.65 L3003.29 1275.65 L3003.29 1275.28 L2986.46 1275.28 L2986.46 1276.27 L2969.51 1276.27 L2969.51 1277.26 L2952.68 1277.26 L2952.68 1277.26 L2935.84 1277.26 L2935.84 1275.78 L2919.01 1275.78 L2919.01 1274.91 L2902.18 1274.91 L2902.18 1274.05 L2885.36 1274.05 L2885.36 1274.66 L2868.40 1274.66 L2868.40 1274.29 L2851.57 1274.29 L2851.57 1273.80 L2834.74 1273.80 L2834.74 1273.30 L2817.91 1273.30 L2817.91 1272.31 L2801.08 1272.31 L2801.08 1272.68 L2784.25 1272.68 L2784.25 1272.44 L2767.30 1272.44 L2767.30 1271.20 L2750.47 1271.20 L2750.47 1269.71 L2733.64 1269.71 L2733.64 1269.59 L2716.81 1269.59 L2716.81 1271.20 L2699.98 1271.20 L2699.98 1269.71 L2683.02 1269.71 L2683.02 1268.72 L2666.19 1268.72 L2666.19 1270.33 L2649.36 1270.33 L2649.36 1270.95 L2632.53 1270.95 L2632.53 1270.95 L2615.70 1270.95 L2615.70 1270.58 L2598.87 1270.58 L2598.87 1269.22 L2581.92 1269.22 L2581.92 1270.46 L2565.09 1270.46 L2565.09 1269.71 L2548.26 1269.71 L2548.26 1271.45 L2531.43 1271.45 L2531.43 1271.69 L2514.60 1271.69 L2514.60 1271.32 L2497.77 1271.32 L2497.77 1271.32 L2480.82 1271.32 L2480.82 1272.07 L2463.99 1272.07 L2463.99 1272.31 L2447.16 1272.31 L2447.16 1271.57 L2430.33 1271.57 L2430.33 1273.43 L2413.50 1273.43 L2413.50 1273.18 L2396.54 1273.18 L2396.54 1273.18 L2379.71 1273.18 L2379.71 1273.92 L2362.88 1273.92 L2362.88 1273.55 L2346.05 1273.55 L2346.05 1274.17 L2329.22 1274.17 L2329.22 1276.52 L2312.39 1276.52 L2312.39 1278.62 L2295.44 1278.62 L2295.44 1277.02 L2278.61 1277.02 L2278.61 1278.25 L2261.78 1278.25 L2261.78 1278.25 L2244.95 1278.25 L2244.95 1278.62 L2228.12 1278.62 L2228.12 1278.87 L2211.29 1278.87 L2211.29 1279.99 L2194.34 1279.99 L2194.34 1282.59 L2177.51 1282.59 L2177.51 1280.85 L2160.68 1280.85 L2160.68 1280.85 L2143.84 1280.85 L2143.84 1280.23 L2127.01 1280.23 L2127.01 1279.99 L2110.18 1279.99 L2110.18 1281.60 L2093.23 1281.60 L2093.23 1283.45 L2076.40 1283.45 L2076.40 1284.69 L2059.57 1284.69 L2059.57 1286.55 L2042.74 1286.55 L2042.74 1286.17 L2025.91 1286.17 L2025.91 1286.05 L2008.96 1286.05 L2008.96 1285.31 L1992.13 1285.31 L1992.13 1285.31 L1975.30 1285.31 L1975.30 1285.18 L1958.47 1285.18 L1958.47 1284.94 L1941.64 1284.94 L1941.64 1283.95 L1924.81 1283.95 L1924.81 1284.57 L1907.85 1284.57 L1907.85 1282.59 L1891.02 1282.59 L1891.02 1282.34 L1874.19 1282.34 L1874.19 1284.44 L1857.36 1284.44 L1857.36 1283.45 L1840.53 1283.45 L1840.53 1280.98 L1823.70 1280.98 L1823.70 1281.84 L1806.75 1281.84 L1806.75 1282.46 L1789.92 1282.46 L1789.92 1282.21 L1773.09 1282.21 L1773.09 1282.96 L1756.26 1282.96 L1756.26 1284.07 L1739.43 1284.07 L1739.43 1283.08 L1722.48 1283.08 L1722.48 1285.68 L1705.65 1285.68 L1705.65 1285.93 L1688.82 1285.93 L1688.82 1287.16 L1671.99 1287.16 L1671.99 1288.40 L1655.16 1288.40 L1655.16 1289.52 L1638.33 1289.52 L1638.33 1290.51 L1621.37 1290.51 L1621.37 1291.00 L1604.54 1291.00 L1604.54 1290.88 L1587.71 1290.88 L1587.71 1291.87 L1570.88 1291.87 L1570.88 1291.74 L1554.05 1291.74 L1554.05 1293.85 L1537.22 1293.85 L1537.22 1293.48 L1520.27 1293.48 L1520.27 1295.70 L1503.44 1295.70 L1503.44 1296.94 L1486.61 1296.94 L1486.61 1296.20 L1469.78 1296.20 L1469.78 1296.57 L1452.95 1296.57 L1452.95 1296.94 L1436.12 1296.94 L1436.12 1296.94 L1419.16 1296.94 L1419.16 1298.30 L1402.34 1298.30 L1402.34 1299.04 L1385.51 1299.04 L1385.51 1299.66 L1368.67 1299.66 L1368.67 1301.27 L1351.85 1301.27 L1351.85 1302.51 L1334.89 1302.51 L1334.89 1302.76 L1318.06 1302.76 L1318.06 1304.24 L1301.23 1304.24 L1301.23 1305.73 L1284.40 1305.73 L1284.40 1307.34 L1267.57 1307.34 L1267.57 1309.19 L1250.74 1309.19 L1250.74 1312.78 L1233.79 1312.78 L1233.79 1314.64 L1216.96 1314.64 L1216.96 1317.11 L1200.13 1317.11 L1200.13 1319.59 L1183.30 1319.59 L1183.30 1323.18 L1166.47 1323.18 L1166.47 1325.90 L1149.64 1325.90 L1149.64 1327.51 L1132.68 1327.51 L1132.68 1331.59 L1115.85 1331.59 L1115.85 1333.82 L1099.02 1333.82 L1099.02 1336.29 L1082.19 1336.29 L1082.19 1338.15 L1065.36 1338.15 L1065.36 1343.22 L1048.53 1343.22 L1048.53 1346.19 L1031.58 1346.19 L1031.58 1349.16 L1014.75 1349.16 L1014.75 1355.23 L997.92 1355.23 L997.92 1357.33 L981.09 1357.33 L981.09 1360.43 L964.26 1360.43 L964.26 1363.89 L947.31 1363.89 L947.31 1365.87 L930.48 1365.87 L930.48 1371.81 L913.65 1371.81 L913.65 1379.11 L896.82 1379.11 L896.82 1383.44 L879.99 1383.44 L879.99 1385.92 L863.16 1385.92 L863.16 1390.62 L846.20 1390.62 L846.20 1395.57 L829.37 1395.57 L829.37 1402.75 L812.54 1402.75 L812.54 1408.20 L795.71 1408.20 L795.71 1416.36 L778.88 1416.36 L778.88 1477.99 Z" stroke-linejoin="round"/>
	</defs>
	<defs>
		<clipPath id="clipPath_JBmnXvGd">
			<use xlink:href="#path_cvsoYutR"/>
		</clipPath>
	</defs>
	<use xlink:href="#path_cvsoYutR" style="stroke:none;fill:#999999;fill-opacity:0.65"/>
	<use xlink:href="#path_cvsoYutR" style="fill:none;stroke:#808080;stroke-opacity:0.65;stroke-width:17.28" clip-path="url(#clipPath_JBmnXvGd)"/>
	<path d=" M778.76 1447.30 L795.59 1447.30 L795.59 1442.60 L812.54 1442.60 L812.54 1440.62 L829.37 1440.62 L829.37 1436.78 L846.20 1436.78 L846.20 1435.05 L863.03 1435.05 L863.03 1433.56 L879.86 1433.56 L879.86 1434.06 L896.69 1434.06 L896.69 1432.57 L913.65 1432.57 L913.65 1428.00 L930.48 1428.00 L930.48 1424.65 L947.31 1424.65 L947.31 1425.27 L964.14 1425.27 L964.14 1424.28 L980.97 1424.28 L980.97 1423.79 L997.80 1423.79 L997.80 1424.04 L1014.75 1424.04 L1014.75 1420.20 L1031.58 1420.20 L1031.58 1419.46 L1048.41 1419.46 L1048.41 1418.59 L1065.24 1418.59 L1065.24 1415.62 L1082.07 1415.62 L1082.07 1415.50 L1099.02 1415.50 L1099.02 1414.88 L1115.85 1414.88 L1115.85 1414.26 L1132.68 1414.26 L1132.68 1411.91 L1149.51 1411.91 L1149.51 1412.03 L1166.34 1412.03 L1166.34 1411.04 L1183.17 1411.04 L1183.17 1408.94 L1200.13 1408.94 L1200.13 1407.95 L1216.96 1407.95 L1216.96 1406.96 L1233.79 1406.96 L1233.79 1406.59 L1250.62 1406.59 L1250.62 1404.48 L1267.45 1404.48 L1267.45 1403.99 L1284.28 1403.99 L1284.28 1403.62 L1301.23 1403.62 L1301.23 1403.49 L1318.06 1403.49 L1318.06 1403.25 L1334.89 1403.25 L1334.89 1404.24 L1351.72 1404.24 L1351.72 1403.99 L1368.55 1403.99 L1368.55 1403.62 L1385.51 1403.62 L1385.51 1404.11 L1402.34 1404.11 L1402.34 1404.48 L1419.16 1404.48 L1419.16 1404.24 L1435.99 1404.24 L1435.99 1405.10 L1452.83 1405.10 L1452.83 1405.72 L1469.65 1405.72 L1469.65 1406.46 L1486.61 1406.46 L1486.61 1407.95 L1503.44 1407.95 L1503.44 1407.58 L1520.27 1407.58 L1520.27 1406.22 L1537.10 1406.22 L1537.10 1407.45 L1553.93 1407.45 L1553.93 1406.22 L1570.76 1406.22 L1570.76 1407.08 L1587.71 1407.08 L1587.71 1406.96 L1604.54 1406.96 L1604.54 1407.70 L1621.37 1407.70 L1621.37 1407.95 L1638.20 1407.95 L1638.20 1407.70 L1655.03 1407.70 L1655.03 1407.33 L1671.86 1407.33 L1671.86 1406.83 L1688.82 1406.83 L1688.82 1406.09 L1705.65 1406.09 L1705.65 1406.59 L1722.48 1406.59 L1722.48 1404.48 L1739.31 1404.48 L1739.31 1406.09 L1756.14 1406.09 L1756.14 1405.60 L1773.09 1405.60 L1773.09 1405.35 L1789.92 1405.35 L1789.92 1406.09 L1806.75 1406.09 L1806.75 1406.34 L1823.58 1406.34 L1823.58 1406.09 L1840.41 1406.09 L1840.41 1408.94 L1857.24 1408.94 L1857.24 1410.55 L1874.19 1410.55 L1874.19 1408.94 L1891.02 1408.94 L1891.02 1409.80 L1907.85 1409.80 L1907.85 1412.28 L1924.68 1412.28 L1924.68 1412.16 L1941.51 1412.16 L1941.51 1413.76 L1958.34 1413.76 L1958.34 1414.51 L1975.30 1414.51 L1975.30 1415.13 L1992.13 1415.13 L1992.13 1415.50 L2008.96 1415.50 L2008.96 1416.86 L2025.79 1416.86 L2025.79 1417.48 L2042.62 1417.48 L2042.62 1418.22 L2059.45 1418.22 L2059.45 1416.86 L2076.40 1416.86 L2076.40 1415.99 L2093.23 1415.99 L2093.23 1414.63 L2110.06 1414.63 L2110.06 1413.52 L2126.89 1413.52 L2126.89 1414.26 L2143.72 1414.26 L2143.72 1415.25 L2160.68 1415.25 L2160.68 1415.62 L2177.51 1415.62 L2177.51 1417.72 L2194.34 1417.72 L2194.34 1415.62 L2211.16 1415.62 L2211.16 1415.00 L2227.99 1415.00 L2227.99 1415.13 L2244.82 1415.13 L2244.82 1415.13 L2261.78 1415.13 L2261.78 1415.50 L2278.61 1415.50 L2278.61 1414.75 L2295.44 1414.75 L2295.44 1416.73 L2312.27 1416.73 L2312.27 1415.00 L2329.10 1415.00 L2329.10 1413.15 L2345.93 1413.15 L2345.93 1412.77 L2362.88 1412.77 L2362.88 1413.64 L2379.71 1413.64 L2379.71 1413.27 L2396.54 1413.27 L2396.54 1413.52 L2413.37 1413.52 L2413.37 1414.38 L2430.20 1414.38 L2430.20 1412.90 L2447.16 1412.90 L2447.16 1414.14 L2463.99 1414.14 L2463.99 1414.14 L2480.82 1414.14 L2480.82 1413.76 L2497.65 1413.76 L2497.65 1414.14 L2514.48 1414.14 L2514.48 1414.75 L2531.31 1414.75 L2531.31 1414.88 L2548.26 1414.88 L2548.26 1413.39 L2565.09 1413.39 L2565.09 1414.75 L2581.92 1414.75 L2581.92 1413.76 L2598.75 1413.76 L2598.75 1415.50 L2615.58 1415.50 L2615.58 1416.12 L2632.41 1416.12 L2632.41 1416.61 L2649.36 1416.61 L2649.36 1416.24 L2666.19 1416.24 L2666.19 1415.00 L2683.02 1415.00 L2683.02 1416.36 L2699.85 1416.36 L2699.85 1418.22 L2716.68 1418.22 L2716.68 1416.86 L2733.51 1416.86 L2733.51 1417.35 L2750.47 1417.35 L2750.47 1419.21 L2767.30 1419.21 L2767.30 1420.69 L2784.13 1420.69 L2784.13 1421.31 L2800.96 1421.31 L2800.96 1421.44 L2817.79 1421.44 L2817.79 1422.67 L2834.74 1422.67 L2834.74 1423.66 L2851.57 1423.66 L2851.57 1424.41 L2868.40 1424.41 L2868.40 1425.15 L2885.23 1425.15 L2885.23 1425.03 L2902.06 1425.03 L2902.06 1426.14 L2918.89 1426.14 L2918.89 1427.38 L2935.84 1427.38 L2935.84 1429.23 L2952.68 1429.23 L2952.68 1429.48 L2969.51 1429.48 L2969.51 1428.86 L2986.34 1428.86 L2986.34 1428.24 L3003.16 1428.24 L3003.16 1428.99 L3019.99 1428.99 L3019.99 1428.74 L3036.95 1428.74 L3036.95 1428.00 L3053.78 1428.00 L3053.78 1429.36 L3070.61 1429.36 L3070.61 1429.85 L3087.44 1429.85 L3087.44 1429.98 L3104.27 1429.98 L3104.27 1430.22 L3121.10 1430.22 L3121.10 1431.96 L3138.05 1431.96 L3138.05 1433.44 L3154.88 1433.44 L3154.88 1433.44 L3171.71 1433.44 L3171.71 1432.33 L3188.54 1432.33 L3188.54 1434.80 L3205.37 1434.80 L3205.37 1435.79 L3222.33 1435.79 L3222.33 1434.80 L3239.16 1434.80 L3239.16 1435.42 L3255.99 1435.42 L3255.99 1435.67 L3272.82 1435.67 L3272.82 1435.92 L3289.65 1435.92 L3289.65 1437.15 L3306.48 1437.15 L3306.48 1437.90 L3323.43 1437.90 L3323.43 1438.76 L3340.26 1438.76 L3340.26 1439.50 L3357.09 1439.50 L3357.09 1439.63 L3373.92 1439.63 L3373.92 1438.76 L3390.75 1438.76 L3390.75 1438.64 L3407.58 1438.64 L3407.58 1439.13 L3424.53 1439.13 L3424.53 1439.01 L3441.36 1439.01 L3441.36 1439.88 L3458.19 1439.88 L3458.19 1441.24 L3475.02 1441.24 L3475.02 1440.25 L3491.85 1440.25 L3491.85 1440.37 L3508.81 1440.37 L3508.81 1441.24 L3525.64 1441.24 L3525.64 1442.60 L3542.47 1442.60 L3542.47 1442.72 L3559.30 1442.72 L3559.30 1441.98 L3576.13 1441.98 L3576.13 1442.23 L3592.96 1442.23 L3592.96 1443.34 L3609.91 1443.34 L3609.91 1443.47 L3626.74 1443.47 L3626.74 1444.58 L3643.57 1444.58 L3643.57 1445.94 L3660.40 1445.94 L3660.40 1446.81 L3677.23 1446.81 L3677.23 1446.81 L3694.06 1446.81 L3694.06 1448.54 L3711.01 1448.54 L3711.01 1450.15 L3727.84 1450.15 L3727.84 1450.77 L3744.68 1450.77 L3744.68 1451.39 L3761.51 1451.39 L3761.51 1451.39 L3778.34 1451.39 L3778.34 1452.00 L3795.16 1452.00 L3795.16 1451.63" stroke-linejoin="round" style="fill:none;stroke:#000000;stroke-width:8.64"/>
	<line x1="559.10" y1="2509.23" x2="559.10" y2="419.90" style="stroke:#000000;stroke-width:5.76"/>
	<line x1="559.10" y1="2445.87" x2="519.13" y2="2445.87" style="stroke:#000000;stroke-width:5.76"/>
	<text x="499.08" y="2480.90" style="font-family:'Helvetica';font-size:99.99px;fill:#000000" text-anchor="end">-0.25</text>
	<line x1="559.10" y1="2249.60" x2="519.13" y2="2249.60" style="stroke:#000000;stroke-width:5.76"/>
	<text x="499.08" y="2284.63" style="font-family:'Helvetica';font-size:99.99px;fill:#000000" text-anchor="end">-0.20</text>
	<line x1="559.10" y1="2053.32" x2="519.13" y2="2053.32" style="stroke:#000000;stroke-width:5.76"/>
	<text x="499.08" y="2088.35" style="font-family:'Helvetica';font-size:99.99px;fill:#000000" text-anchor="end">-0.15</text>
	<line x1="559.10" y1="1857.05" x2="519.13" y2="1857.05" style="stroke:#000000;stroke-width:5.76"/>
	<text x="499.08" y="1892.08" style="font-family:'Helvetica';font-size:99.99px;fill:#000000" text-anchor="end">-0.10</text>
	<line x1="559.10" y1="1660.78" x2="519.13" y2="1660.78" style="stroke:#000000;stroke-width:5.76"/>
	<text x="499.08" y="1695.81" style="font-family:'Helvetica';font-size:99.99px;fill:#000000" text-anchor="end">-0.05</text>
	<line x1="559.10" y1="1464.63" x2="519.13" y2="1464.63" style="stroke:#000000;stroke-width:5.76"/>
	<text x="499.08" y="1499.66" style="font-family:'Helvetica';font-size:99.99px;fill:#000000" text-anchor="end">0.00</text>
	<line x1="559.10" y1="1268.35" x2="519.13" y2="1268.35" style="stroke:#000000;stroke-width:5.76"/>
	<text x="499.08" y="1303.38" style="font-family:'Helvetica';font-size:99.99px;fill:#000000" text-anchor="end">0.05</text>
	<line x1="559.10" y1="1072.08" x2="519.13" y2="1072.08" style="stroke:#000000;stroke-width:5.76"/>
	<text x="499.08" y="1107.11" style="font-family:'Helvetica';font-size:99.99px;fill:#000000" text-anchor="end">0.10</text>
	<line x1="559.10" y1="875.81" x2="519.13" y2="875.81" style="stroke:#000000;stroke-width:5.76"/>
	<text x="499.08" y="910.83" style="font-family:'Helvetica';font-size:99.99px;fill:#000000" text-anchor="end">0.15</text>
	<line x1="559.10" y1="679.53" x2="519.13" y2="679.53" style="stroke:#000000;stroke-width:5.76"/>
	<text x="499.08" y="714.56" style="font-family:'Helvetica';font-size:99.99px;fill:#000000" text-anchor="end">0.20</text>
	<line x1="559.10" y1="483.26" x2="519.13" y2="483.26" style="stroke:#000000;stroke-width:5.76"/>
	<text x="499.08" y="518.29" style="font-family:'Helvetica';font-size:99.99px;fill:#000000" text-anchor="end">0.25</text>
	<text x="190.71" y="1464.63" style="font-family:'Helvetica';font-size:99.99px;fill:#000000" transform="rotate(-90 190.71,1464.63)" text-anchor="middle">Difference in Probabilities</text>
	<line x1="559.10" y1="2509.23" x2="3859.02" y2="2509.23" style="stroke:#000000;stroke-width:5.76"/>
	<line x1="622.46" y1="2509.23" x2="622.46" y2="2549.21" style="stroke:#000000;stroke-width:5.76"/>
	<text x="622.46" y="2625.15" style="font-family:'Helvetica';font-size:79.94px;fill:#000000" text-anchor="middle">0</text>
	<line x1="812.91" y1="2509.23" x2="812.91" y2="2549.21" style="stroke:#000000;stroke-width:5.76"/>
	<text x="812.91" y="2625.15" style="font-family:'Helvetica';font-size:79.94px;fill:#000000" text-anchor="middle">.3</text>
	<line x1="1003.24" y1="2509.23" x2="1003.24" y2="2549.21" style="stroke:#000000;stroke-width:5.76"/>
	<text x="1003.24" y="2625.15" style="font-family:'Helvetica';font-size:79.94px;fill:#000000" text-anchor="middle">.6</text>
	<line x1="1193.69" y1="2509.23" x2="1193.69" y2="2549.21" style="stroke:#000000;stroke-width:5.76"/>
	<text x="1193.69" y="2625.15" style="font-family:'Helvetica';font-size:79.94px;fill:#000000" text-anchor="middle">.9</text>
	<line x1="1384.02" y1="2509.23" x2="1384.02" y2="2549.21" style="stroke:#000000;stroke-width:5.76"/>
	<text x="1384.02" y="2625.15" style="font-family:'Helvetica';font-size:79.94px;fill:#000000" text-anchor="middle">1.2</text>
	<line x1="1574.47" y1="2509.23" x2="1574.47" y2="2549.21" style="stroke:#000000;stroke-width:5.76"/>
	<text x="1574.47" y="2625.15" style="font-family:'Helvetica';font-size:79.94px;fill:#000000" text-anchor="middle">1.5</text>
	<line x1="1764.80" y1="2509.23" x2="1764.80" y2="2549.21" style="stroke:#000000;stroke-width:5.76"/>
	<text x="1764.80" y="2625.15" style="font-family:'Helvetica';font-size:79.94px;fill:#000000" text-anchor="middle">1.8</text>
	<line x1="1955.25" y1="2509.23" x2="1955.25" y2="2549.21" style="stroke:#000000;stroke-width:5.76"/>
	<text x="1955.25" y="2625.15" style="font-family:'Helvetica';font-size:79.94px;fill:#000000" text-anchor="middle">2.1</text>
	<line x1="2145.58" y1="2509.23" x2="2145.58" y2="2549.21" style="stroke:#000000;stroke-width:5.76"/>
	<text x="2145.58" y="2625.15" style="font-family:'Helvetica';font-size:79.94px;fill:#000000" text-anchor="middle">2.4</text>
	<line x1="2336.03" y1="2509.23" x2="2336.03" y2="2549.21" style="stroke:#000000;stroke-width:5.76"/>
	<text x="2336.03" y="2625.15" style="font-family:'Helvetica';font-size:79.94px;fill:#000000" text-anchor="middle">2.7</text>
	<line x1="2526.48" y1="2509.23" x2="2526.48" y2="2549.21" style="stroke:#000000;stroke-width:5.76"/>
	<text x="2526.48" y="2625.15" style="font-family:'Helvetica';font-size:79.94px;fill:#000000" text-anchor="middle">3</text>
	<line x1="2716.81" y1="2509.23" x2="2716.81" y2="2549.21" style="stroke:#000000;stroke-width:5.76"/>
	<text x="2716.81" y="2625.15" style="font-family:'Helvetica';font-size:79.94px;fill:#000000" text-anchor="middle">3.3</text>
	<line x1="2907.26" y1="2509.23" x2="2907.26" y2="2549.21" style="stroke:#000000;stroke-width:5.76"/>
	<text x="2907.26" y="2625.15" style="font-family:'Helvetica';font-size:79.94px;fill:#000000" text-anchor="middle">3.6</text>
	<line x1="3097.59" y1="2509.23" x2="3097.59" y2="2549.21" style="stroke:#000000;stroke-width:5.76"/>
	<text x="3097.59" y="2625.15" style="font-family:'Helvetica';font-size:79.94px;fill:#000000" text-anchor="middle">3.9</text>
	<line x1="3288.04" y1="2509.23" x2="3288.04" y2="2549.21" style="stroke:#000000;stroke-width:5.76"/>
	<text x="3288.04" y="2625.15" style="font-family:'Helvetica';font-size:79.94px;fill:#000000" text-anchor="middle">4.2</text>
	<line x1="3478.36" y1="2509.23" x2="3478.36" y2="2549.21" style="stroke:#000000;stroke-width:5.76"/>
	<text x="3478.36" y="2625.15" style="font-family:'Helvetica';font-size:79.94px;fill:#000000" text-anchor="middle">4.5</text>
	<line x1="3668.82" y1="2509.23" x2="3668.82" y2="2549.21" style="stroke:#000000;stroke-width:5.76"/>
	<text x="3668.82" y="2625.15" style="font-family:'Helvetica';font-size:79.94px;fill:#000000" text-anchor="middle">4.8</text>
	<line x1="3859.14" y1="2509.23" x2="3859.14" y2="2549.21" style="stroke:#000000;stroke-width:5.76"/>
	<text x="3859.14" y="2625.15" style="font-family:'Helvetica';font-size:79.94px;fill:#000000" text-anchor="middle">5.1</text>
	<text x="2209.06" y="2729.16" style="font-family:'Helvetica';font-size:99.99px;fill:#000000" text-anchor="middle">Time (years)</text>
	<rect x="593.63" y="454.42" width="993.34" height="326.46" style="fill:#FFFFFF"/>
	<rect x="596.51" y="457.30" width="987.58" height="320.70" style="fill:none;stroke:#000000;stroke-width:5.76"/>
	<rect x="636.82" y="497.74" width="374.47" height="99.99" style="fill:#999999;fill-opacity:0.65"/>
	<rect x="641.14" y="502.06" width="365.83" height="91.35" style="fill:none;stroke:#808080;stroke-opacity:0.65;stroke-width:8.64"/>
	<line x1="636.82" y1="687.70" x2="1011.28" y2="687.70" style="stroke:#000000;stroke-width:8.64"/>
	<text x="1071.30" y="582.76" style="font-family:'Helvetica';font-size:99.99px;fill:#000000">CI95%</text>
	<text x="1071.30" y="722.73" style="font-family:'Helvetica';font-size:99.99px;fill:#000000">Difference</text>
	<text x="2209.06" y="369.63" style="font-family:'Helvetica';font-size:110.01px;fill:#000000" text-anchor="middle">from 2nd Readmission to 3rd Readmission</text>
	<text x="2209.06" y="215.98" style="font-family:'Helvetica';font-size:139.96px;fill:#1E2D53" text-anchor="middle">Difference in Probabilities at 3 years</text>
</svg>
