<?xml version="1.0" encoding="UTF-8" standalone="no"?>
<!-- This is a Stata 16.1 generated SVG file (http://www.stata.com) -->

<svg version="1.1" width="5.50in" height="4.00in" viewBox="0 0 3960 2880" xmlns="http://www.w3.org/2000/svg" xmlns:xlink="http://www.w3.org/1999/xlink">
	<desc>Stata Graph - diff_mod45</desc>
	<rect x="0" y="0" width="3960" height="2880" style="fill:#EAF2F3;stroke:none"/>
	<rect x="0.00" y="0.00" width="3959.88" height="2880.00" style="fill:#FFFFFF"/>
	<rect x="2.88" y="2.88" width="3954.12" height="2874.24" style="fill:none;stroke:#FFFFFF;stroke-width:5.76"/>
	<rect x="559.10" y="419.90" width="3299.92" height="2089.34" style="fill:#FFFFFF"/>
	<rect x="561.98" y="422.78" width="3294.16" height="2083.58" style="fill:none;stroke:#FFFFFF;stroke-width:5.76"/>
	<line x1="559.10" y1="2249.60" x2="3859.02" y2="2249.60" style="stroke:#EAF2F3;stroke-width:8.64"/>
	<line x1="559.10" y1="2053.32" x2="3859.02" y2="2053.32" style="stroke:#EAF2F3;stroke-width:8.64"/>
	<line x1="559.10" y1="1857.05" x2="3859.02" y2="1857.05" style="stroke:#EAF2F3;stroke-width:8.64"/>
	<line x1="559.10" y1="1660.78" x2="3859.02" y2="1660.78" style="stroke:#EAF2F3;stroke-width:8.64"/>
	<line x1="559.10" y1="1464.63" x2="3859.02" y2="1464.63" style="stroke:#EAF2F3;stroke-width:8.64"/>
	<line x1="559.10" y1="1268.35" x2="3859.02" y2="1268.35" style="stroke:#EAF2F3;stroke-width:8.64"/>
	<line x1="559.10" y1="1072.08" x2="3859.02" y2="1072.08" style="stroke:#EAF2F3;stroke-width:8.64"/>
	<line x1="559.10" y1="875.81" x2="3859.02" y2="875.81" style="stroke:#EAF2F3;stroke-width:8.64"/>
	<line x1="559.10" y1="679.53" x2="3859.02" y2="679.53" style="stroke:#EAF2F3;stroke-width:8.64"/>
	<line x1="559.10" y1="1464.63" x2="3859.02" y2="1464.63" style="stroke:#1A476F;stroke-width:8.64"/>
	<defs>
		<path id="path_tQOMcqzG" d="M778.88 1552.12 L778.88 1552.12 L795.71 1552.12 L795.71 1557.32 L812.54 1557.32 L812.54 1564.74 L829.37 1564.74 L829.37 1570.44 L846.20 1570.44 L846.20 1576.50 L863.16 1576.50 L863.16 1583.31 L879.99 1583.31 L879.99 1588.26 L896.82 1588.26 L896.82 1595.93 L913.65 1595.93 L913.65 1603.11 L930.48 1603.11 L930.48 1607.32 L947.31 1607.32 L947.31 1613.50 L964.26 1613.50 L964.26 1617.71 L981.09 1617.71 L981.09 1623.53 L997.92 1623.53 L997.92 1628.48 L1014.75 1628.48 L1014.75 1632.93 L1031.58 1632.93 L1031.58 1638.01 L1048.53 1638.01 L1048.53 1642.21 L1065.36 1642.21 L1065.36 1648.15 L1082.19 1648.15 L1082.19 1653.48 L1099.02 1653.48 L1099.02 1656.32 L1115.85 1656.32 L1115.85 1659.54 L1132.68 1659.54 L1132.68 1664.74 L1149.64 1664.74 L1149.64 1667.34 L1166.47 1667.34 L1166.47 1670.31 L1183.30 1670.31 L1183.30 1673.28 L1200.13 1673.28 L1200.13 1674.64 L1216.96 1674.64 L1216.96 1677.73 L1233.79 1677.73 L1233.79 1677.85 L1250.74 1677.85 L1250.74 1678.72 L1267.57 1678.72 L1267.57 1681.44 L1284.40 1681.44 L1284.40 1683.67 L1301.23 1683.67 L1301.23 1686.64 L1318.06 1686.64 L1318.06 1691.59 L1334.89 1691.59 L1334.89 1695.30 L1351.85 1695.30 L1351.85 1697.90 L1368.67 1697.90 L1368.67 1699.39 L1385.51 1699.39 L1385.51 1701.00 L1402.34 1701.00 L1402.34 1702.23 L1419.16 1702.23 L1419.16 1704.71 L1436.12 1704.71 L1436.12 1706.07 L1452.95 1706.07 L1452.95 1707.56 L1469.78 1707.56 L1469.78 1707.31 L1486.61 1707.31 L1486.61 1707.18 L1503.44 1707.18 L1503.44 1708.79 L1520.27 1708.79 L1520.27 1710.53 L1537.22 1710.53 L1537.22 1710.90 L1554.05 1710.90 L1554.05 1711.52 L1570.88 1711.52 L1570.88 1711.89 L1587.71 1711.89 L1587.71 1714.36 L1604.54 1714.36 L1604.54 1714.98 L1621.37 1714.98 L1621.37 1714.61 L1638.33 1714.61 L1638.33 1715.72 L1655.16 1715.72 L1655.16 1715.97 L1671.99 1715.97 L1671.99 1717.58 L1688.82 1717.58 L1688.82 1717.83 L1705.65 1717.83 L1705.65 1718.45 L1722.48 1718.45 L1722.48 1717.95 L1739.43 1717.95 L1739.43 1719.81 L1756.26 1719.81 L1756.26 1720.30 L1773.09 1720.30 L1773.09 1720.18 L1789.92 1720.18 L1789.92 1720.92 L1806.75 1720.92 L1806.75 1721.79 L1823.70 1721.79 L1823.70 1722.16 L1840.53 1722.16 L1840.53 1722.53 L1857.36 1722.53 L1857.36 1724.26 L1874.19 1724.26 L1874.19 1726.86 L1891.02 1726.86 L1891.02 1726.49 L1907.85 1726.49 L1907.85 1726.99 L1924.81 1726.99 L1924.81 1728.72 L1941.64 1728.72 L1941.64 1729.09 L1958.47 1729.09 L1958.47 1729.21 L1975.30 1729.21 L1975.30 1730.45 L1992.13 1730.45 L1992.13 1728.22 L2008.96 1728.22 L2008.96 1727.73 L2025.91 1727.73 L2025.91 1726.00 L2042.74 1726.00 L2042.74 1726.99 L2059.57 1726.99 L2059.57 1726.61 L2076.40 1726.61 L2076.40 1727.60 L2093.23 1727.60 L2093.23 1728.35 L2110.18 1728.35 L2110.18 1729.09 L2127.01 1729.09 L2127.01 1728.22 L2143.84 1728.22 L2143.84 1726.49 L2160.68 1726.49 L2160.68 1726.99 L2177.51 1726.99 L2177.51 1728.35 L2194.34 1728.35 L2194.34 1728.10 L2211.29 1728.10 L2211.29 1729.09 L2228.12 1729.09 L2228.12 1729.96 L2244.95 1729.96 L2244.95 1731.19 L2261.78 1731.19 L2261.78 1730.57 L2278.61 1730.57 L2278.61 1730.70 L2295.44 1730.70 L2295.44 1731.32 L2312.39 1731.32 L2312.39 1731.32 L2329.22 1731.32 L2329.22 1730.82 L2346.05 1730.82 L2346.05 1732.18 L2362.88 1732.18 L2362.88 1731.94 L2379.71 1731.94 L2379.71 1733.67 L2396.54 1733.67 L2396.54 1734.78 L2413.50 1734.78 L2413.50 1735.15 L2430.33 1735.15 L2430.33 1734.41 L2447.16 1734.41 L2447.16 1733.79 L2463.99 1733.79 L2463.99 1734.91 L2480.82 1734.91 L2480.82 1734.16 L2497.77 1734.16 L2497.77 1732.80 L2514.60 1732.80 L2514.60 1731.94 L2531.43 1731.94 L2531.43 1730.08 L2548.26 1730.08 L2548.26 1729.83 L2565.09 1729.83 L2565.09 1727.98 L2581.92 1727.98 L2581.92 1727.98 L2598.87 1727.98 L2598.87 1727.85 L2615.70 1727.85 L2615.70 1727.36 L2632.53 1727.36 L2632.53 1727.98 L2649.36 1727.98 L2649.36 1727.36 L2666.19 1727.36 L2666.19 1727.11 L2683.02 1727.11 L2683.02 1726.74 L2699.98 1726.74 L2699.98 1727.48 L2716.81 1727.48 L2716.81 1727.60 L2733.64 1727.60 L2733.64 1728.97 L2750.47 1728.97 L2750.47 1727.85 L2767.30 1727.85 L2767.30 1728.72 L2784.25 1728.72 L2784.25 1728.72 L2801.08 1728.72 L2801.08 1727.98 L2817.91 1727.98 L2817.91 1728.59 L2834.74 1728.59 L2834.74 1729.34 L2851.57 1729.34 L2851.57 1729.96 L2868.40 1729.96 L2868.40 1729.09 L2885.36 1729.09 L2885.36 1729.58 L2902.18 1729.58 L2902.18 1730.08 L2919.01 1730.08 L2919.01 1730.08 L2935.84 1730.08 L2935.84 1728.97 L2952.68 1728.97 L2952.68 1728.35 L2969.51 1728.35 L2969.51 1728.47 L2986.46 1728.47 L2986.46 1727.85 L3003.29 1727.85 L3003.29 1729.46 L3020.12 1729.46 L3020.12 1730.08 L3036.95 1730.08 L3036.95 1728.59 L3053.78 1728.59 L3053.78 1728.47 L3070.61 1728.47 L3070.61 1728.22 L3087.56 1728.22 L3087.56 1727.98 L3104.39 1727.98 L3104.39 1728.72 L3121.22 1728.72 L3121.22 1729.09 L3138.05 1729.09 L3138.05 1729.83 L3154.88 1729.83 L3154.88 1729.83 L3171.84 1729.83 L3171.84 1730.45 L3188.67 1730.45 L3188.67 1731.81 L3205.50 1731.81 L3205.50 1731.32 L3222.33 1731.32 L3222.33 1731.32 L3239.16 1731.32 L3239.16 1732.06 L3255.99 1732.06 L3255.99 1730.95 L3272.94 1730.95 L3272.94 1730.57 L3289.77 1730.57 L3289.77 1728.72 L3306.60 1728.72 L3306.60 1728.59 L3323.43 1728.59 L3323.43 1727.73 L3340.26 1727.73 L3340.26 1727.98 L3357.09 1727.98 L3357.09 1727.48 L3374.04 1727.48 L3374.04 1726.86 L3390.87 1726.86 L3390.87 1726.74 L3407.70 1726.74 L3407.70 1726.99 L3424.53 1726.99 L3424.53 1725.87 L3441.36 1725.87 L3441.36 1726.49 L3458.19 1726.49 L3458.19 1727.23 L3475.15 1727.23 L3475.15 1726.74 L3491.98 1726.74 L3491.98 1726.99 L3508.81 1726.99 L3508.81 1727.60 L3525.64 1727.60 L3525.64 1728.97 L3542.47 1728.97 L3542.47 1728.97 L3559.42 1728.97 L3559.42 1728.47 L3576.25 1728.47 L3576.25 1728.59 L3593.08 1728.59 L3593.08 1727.73 L3609.91 1727.73 L3609.91 1728.97 L3626.74 1728.97 L3626.74 1728.72 L3643.57 1728.72 L3643.57 1729.09 L3660.53 1729.09 L3660.53 1727.48 L3677.36 1727.48 L3677.36 1726.74 L3694.18 1726.74 L3694.18 1726.24 L3711.01 1726.24 L3711.01 1725.75 L3727.84 1725.75 L3727.84 1725.75 L3744.68 1725.75 L3744.68 1725.87 L3761.63 1725.87 L3761.63 1726.86 L3778.46 1726.86 L3778.46 1727.11 L3795.29 1727.11 L3795.29 1726.86 L3795.29 1106.24 L3795.29 1105.86 L3778.46 1105.86 L3778.46 1105.25 L3761.63 1105.25 L3761.63 1103.64 L3744.68 1103.64 L3744.68 1102.89 L3727.84 1102.89 L3727.84 1102.40 L3711.01 1102.40 L3711.01 1102.40 L3694.18 1102.40 L3694.18 1102.40 L3677.36 1102.40 L3677.36 1102.65 L3660.53 1102.65 L3660.53 1103.88 L3643.57 1103.88 L3643.57 1102.77 L3626.74 1102.77 L3626.74 1102.52 L3609.91 1102.52 L3609.91 1100.91 L3593.08 1100.91 L3593.08 1101.29 L3576.25 1101.29 L3576.25 1100.67 L3559.42 1100.67 L3559.42 1100.79 L3542.47 1100.79 L3542.47 1100.42 L3525.64 1100.42 L3525.64 1098.44 L3508.81 1098.44 L3508.81 1097.45 L3491.98 1097.45 L3491.98 1096.71 L3475.15 1096.71 L3475.15 1096.46 L3458.19 1096.46 L3458.19 1095.22 L3441.36 1095.22 L3441.36 1094.36 L3424.53 1094.36 L3424.53 1094.97 L3407.70 1094.97 L3407.70 1094.48 L3390.87 1094.48 L3390.87 1093.98 L3374.04 1093.98 L3374.04 1094.36 L3357.09 1094.36 L3357.09 1094.48 L3340.26 1094.48 L3340.26 1093.98 L3323.43 1093.98 L3323.43 1094.36 L3306.60 1094.36 L3306.60 1094.11 L3289.77 1094.11 L3289.77 1095.59 L3272.94 1095.59 L3272.94 1095.72 L3255.99 1095.72 L3255.99 1096.46 L3239.16 1096.46 L3239.16 1095.59 L3222.33 1095.59 L3222.33 1095.10 L3205.50 1095.10 L3205.50 1095.22 L3188.67 1095.22 L3188.67 1093.49 L3171.84 1093.49 L3171.84 1092.62 L3154.88 1092.62 L3154.88 1092.25 L3138.05 1092.25 L3138.05 1091.14 L3121.22 1091.14 L3121.22 1090.40 L3104.39 1090.40 L3104.39 1089.28 L3087.56 1089.28 L3087.56 1089.28 L3070.61 1089.28 L3070.61 1089.28 L3053.78 1089.28 L3053.78 1089.16 L3036.95 1089.16 L3036.95 1090.40 L3020.12 1090.40 L3020.12 1089.53 L3003.29 1089.53 L3003.29 1087.55 L2986.46 1087.55 L2986.46 1087.92 L2969.51 1087.92 L2969.51 1087.80 L2952.68 1087.80 L2952.68 1088.04 L2935.84 1088.04 L2935.84 1089.03 L2919.01 1089.03 L2919.01 1088.66 L2902.18 1088.66 L2902.18 1087.92 L2885.36 1087.92 L2885.36 1087.30 L2868.40 1087.30 L2868.40 1087.92 L2851.57 1087.92 L2851.57 1087.18 L2834.74 1087.18 L2834.74 1086.44 L2817.91 1086.44 L2817.91 1085.57 L2801.08 1085.57 L2801.08 1086.19 L2784.25 1086.19 L2784.25 1086.19 L2767.30 1086.19 L2767.30 1085.20 L2750.47 1085.20 L2750.47 1086.31 L2733.64 1086.31 L2733.64 1084.83 L2716.81 1084.83 L2716.81 1084.70 L2699.98 1084.70 L2699.98 1084.08 L2683.02 1084.08 L2683.02 1084.46 L2666.19 1084.46 L2666.19 1084.83 L2649.36 1084.83 L2649.36 1085.45 L2632.53 1085.45 L2632.53 1084.83 L2615.70 1084.83 L2615.70 1085.57 L2598.87 1085.57 L2598.87 1085.69 L2581.92 1085.69 L2581.92 1085.69 L2565.09 1085.69 L2565.09 1087.67 L2548.26 1087.67 L2548.26 1088.04 L2531.43 1088.04 L2531.43 1089.90 L2514.60 1089.90 L2514.60 1091.01 L2497.77 1091.01 L2497.77 1092.62 L2480.82 1092.62 L2480.82 1093.61 L2463.99 1093.61 L2463.99 1092.75 L2447.16 1092.75 L2447.16 1093.74 L2430.33 1093.74 L2430.33 1094.73 L2413.50 1094.73 L2413.50 1094.73 L2396.54 1094.73 L2396.54 1093.98 L2379.71 1093.98 L2379.71 1092.62 L2362.88 1092.62 L2362.88 1093.12 L2346.05 1093.12 L2346.05 1092.13 L2329.22 1092.13 L2329.22 1093.24 L2312.39 1093.24 L2312.39 1093.86 L2295.44 1093.86 L2295.44 1093.74 L2278.61 1093.74 L2278.61 1093.86 L2261.78 1093.86 L2261.78 1094.85 L2244.95 1094.85 L2244.95 1094.23 L2228.12 1094.23 L2228.12 1094.23 L2211.29 1094.23 L2211.29 1093.86 L2194.34 1093.86 L2194.34 1094.60 L2177.51 1094.60 L2177.51 1094.11 L2160.68 1094.11 L2160.68 1094.48 L2143.84 1094.48 L2143.84 1096.95 L2127.01 1096.95 L2127.01 1098.69 L2110.18 1098.69 L2110.18 1098.81 L2093.23 1098.81 L2093.23 1099.06 L2076.40 1099.06 L2076.40 1098.93 L2059.57 1098.93 L2059.57 1100.30 L2042.74 1100.30 L2042.74 1100.54 L2025.91 1100.54 L2025.91 1103.39 L2008.96 1103.39 L2008.96 1105.00 L1992.13 1105.00 L1992.13 1108.46 L1975.30 1108.46 L1975.30 1108.34 L1958.47 1108.34 L1958.47 1109.58 L1941.64 1109.58 L1941.64 1110.44 L1924.81 1110.44 L1924.81 1109.82 L1907.85 1109.82 L1907.85 1110.69 L1891.02 1110.69 L1891.02 1112.42 L1874.19 1112.42 L1874.19 1111.31 L1857.36 1111.31 L1857.36 1111.19 L1840.53 1111.19 L1840.53 1112.67 L1823.70 1112.67 L1823.70 1113.91 L1806.75 1113.91 L1806.75 1114.65 L1789.92 1114.65 L1789.92 1115.89 L1773.09 1115.89 L1773.09 1117.99 L1756.26 1117.99 L1756.26 1119.48 L1739.43 1119.48 L1739.43 1119.72 L1722.48 1119.72 L1722.48 1121.95 L1705.65 1121.95 L1705.65 1123.19 L1688.82 1123.19 L1688.82 1125.29 L1671.99 1125.29 L1671.99 1125.91 L1655.16 1125.91 L1655.16 1128.26 L1638.33 1128.26 L1638.33 1129.75 L1621.37 1129.75 L1621.37 1132.72 L1604.54 1132.72 L1604.54 1134.58 L1587.71 1134.58 L1587.71 1134.82 L1570.88 1134.82 L1570.88 1137.30 L1554.05 1137.30 L1554.05 1139.53 L1537.22 1139.53 L1537.22 1142.25 L1520.27 1142.25 L1520.27 1143.73 L1503.44 1143.73 L1503.44 1145.34 L1486.61 1145.34 L1486.61 1149.30 L1469.78 1149.30 L1469.78 1153.39 L1452.95 1153.39 L1452.95 1155.74 L1436.12 1155.74 L1436.12 1158.21 L1419.16 1158.21 L1419.16 1159.82 L1402.34 1159.82 L1402.34 1162.79 L1385.51 1162.79 L1385.51 1165.51 L1368.67 1165.51 L1368.67 1168.36 L1351.85 1168.36 L1351.85 1170.34 L1334.89 1170.34 L1334.89 1171.70 L1318.06 1171.70 L1318.06 1171.58 L1301.23 1171.58 L1301.23 1173.93 L1284.40 1173.93 L1284.40 1176.78 L1267.57 1176.78 L1267.57 1179.50 L1250.74 1179.50 L1250.74 1184.32 L1233.79 1184.32 L1233.79 1190.14 L1216.96 1190.14 L1216.96 1193.48 L1200.13 1193.48 L1200.13 1198.56 L1183.30 1198.56 L1183.30 1202.39 L1166.47 1202.39 L1166.47 1206.35 L1149.64 1206.35 L1149.64 1211.30 L1132.68 1211.30 L1132.68 1213.78 L1115.85 1213.78 L1115.85 1218.36 L1099.02 1218.36 L1099.02 1223.80 L1082.19 1223.80 L1082.19 1227.39 L1065.36 1227.39 L1065.36 1230.24 L1048.53 1230.24 L1048.53 1235.56 L1031.58 1235.56 L1031.58 1240.01 L1014.75 1240.01 L1014.75 1245.58 L997.92 1245.58 L997.92 1251.40 L981.09 1251.40 L981.09 1256.84 L964.26 1256.84 L964.26 1264.02 L947.31 1264.02 L947.31 1270.09 L930.48 1270.09 L930.48 1278.50 L913.65 1278.50 L913.65 1284.94 L896.82 1284.94 L896.82 1291.50 L879.99 1291.50 L879.99 1301.15 L863.16 1301.15 L863.16 1309.56 L846.20 1309.56 L846.20 1320.08 L829.37 1320.08 L829.37 1331.34 L812.54 1331.34 L812.54 1341.62 L795.71 1341.62 L795.71 1355.23 L778.88 1355.23 L778.88 1552.12 Z" stroke-linejoin="round"/>
	</defs>
	<defs>
		<clipPath id="clipPath_WGJCTkLw">
			<use xlink:href="#path_tQOMcqzG"/>
		</clipPath>
	</defs>
	<use xlink:href="#path_tQOMcqzG" style="stroke:none;fill:#999999;fill-opacity:0.65"/>
	<use xlink:href="#path_tQOMcqzG" style="fill:none;stroke:#808080;stroke-opacity:0.65;stroke-width:17.28" clip-path="url(#clipPath_WGJCTkLw)"/>
	<path d=" M778.76 1453.74 L795.59 1453.74 L795.59 1449.53 L812.54 1449.53 L812.54 1448.17 L829.37 1448.17 L829.37 1445.32 L846.20 1445.32 L846.20 1443.09 L863.03 1443.09 L863.03 1442.35 L879.86 1442.35 L879.86 1439.88 L896.69 1439.88 L896.69 1440.50 L913.65 1440.50 L913.65 1440.87 L930.48 1440.87 L930.48 1438.64 L947.31 1438.64 L947.31 1438.76 L964.14 1438.76 L964.14 1437.28 L980.97 1437.28 L980.97 1437.52 L997.80 1437.52 L997.80 1437.03 L1014.75 1437.03 L1014.75 1436.41 L1031.58 1436.41 L1031.58 1436.78 L1048.41 1436.78 L1048.41 1436.16 L1065.24 1436.16 L1065.24 1437.77 L1082.07 1437.77 L1082.07 1438.64 L1099.02 1438.64 L1099.02 1437.28 L1115.85 1437.28 L1115.85 1436.66 L1132.68 1436.66 L1132.68 1438.02 L1149.51 1438.02 L1149.51 1436.78 L1166.34 1436.78 L1166.34 1436.29 L1183.17 1436.29 L1183.17 1435.92 L1200.13 1435.92 L1200.13 1434.06 L1216.96 1434.06 L1216.96 1433.81 L1233.79 1433.81 L1233.79 1431.09 L1250.62 1431.09 L1250.62 1428.99 L1267.45 1428.99 L1267.45 1429.11 L1284.28 1429.11 L1284.28 1428.74 L1301.23 1428.74 L1301.23 1428.99 L1318.06 1428.99 L1318.06 1431.58 L1334.89 1431.58 L1334.89 1432.70 L1351.72 1432.70 L1351.72 1433.07 L1368.55 1433.07 L1368.55 1432.45 L1385.51 1432.45 L1385.51 1431.71 L1402.34 1431.71 L1402.34 1430.97 L1419.16 1430.97 L1419.16 1431.34 L1435.99 1431.34 L1435.99 1430.84 L1452.83 1430.84 L1452.83 1430.35 L1469.65 1430.35 L1469.65 1428.12 L1486.61 1428.12 L1486.61 1426.14 L1503.44 1426.14 L1503.44 1426.14 L1520.27 1426.14 L1520.27 1426.26 L1537.10 1426.26 L1537.10 1425.15 L1553.93 1425.15 L1553.93 1424.28 L1570.76 1424.28 L1570.76 1423.17 L1587.71 1423.17 L1587.71 1424.28 L1604.54 1424.28 L1604.54 1423.66 L1621.37 1423.66 L1621.37 1422.06 L1638.20 1422.06 L1638.20 1421.81 L1655.03 1421.81 L1655.03 1420.69 L1671.86 1420.69 L1671.86 1421.19 L1688.82 1421.19 L1688.82 1420.32 L1705.65 1420.32 L1705.65 1419.95 L1722.48 1419.95 L1722.48 1418.59 L1739.31 1418.59 L1739.31 1419.46 L1756.14 1419.46 L1756.14 1418.96 L1773.09 1418.96 L1773.09 1417.85 L1789.92 1417.85 L1789.92 1417.60 L1806.75 1417.60 L1806.75 1417.60 L1823.58 1417.60 L1823.58 1417.23 L1840.41 1417.23 L1840.41 1416.61 L1857.24 1416.61 L1857.24 1417.48 L1874.19 1417.48 L1874.19 1419.46 L1891.02 1419.46 L1891.02 1418.34 L1907.85 1418.34 L1907.85 1418.22 L1924.68 1418.22 L1924.68 1419.33 L1941.51 1419.33 L1941.51 1419.09 L1958.34 1419.09 L1958.34 1418.47 L1975.30 1418.47 L1975.30 1419.21 L1992.13 1419.21 L1992.13 1416.36 L2008.96 1416.36 L2008.96 1415.25 L2025.79 1415.25 L2025.79 1413.02 L2042.62 1413.02 L2042.62 1413.39 L2059.45 1413.39 L2059.45 1412.53 L2076.40 1412.53 L2076.40 1413.02 L2093.23 1413.02 L2093.23 1413.27 L2110.06 1413.27 L2110.06 1413.64 L2126.89 1413.64 L2126.89 1412.28 L2143.72 1412.28 L2143.72 1410.18 L2160.68 1410.18 L2160.68 1410.18 L2177.51 1410.18 L2177.51 1411.17 L2194.34 1411.17 L2194.34 1410.67 L2211.16 1410.67 L2211.16 1411.41 L2227.99 1411.41 L2227.99 1411.78 L2244.82 1411.78 L2244.82 1412.65 L2261.78 1412.65 L2261.78 1411.91 L2278.61 1411.91 L2278.61 1411.91 L2295.44 1411.91 L2295.44 1412.28 L2312.27 1412.28 L2312.27 1411.91 L2329.10 1411.91 L2329.10 1411.17 L2345.93 1411.17 L2345.93 1412.40 L2362.88 1412.40 L2362.88 1412.03 L2379.71 1412.03 L2379.71 1413.52 L2396.54 1413.52 L2396.54 1414.51 L2413.37 1414.51 L2413.37 1414.63 L2430.20 1414.63 L2430.20 1413.89 L2447.16 1413.89 L2447.16 1413.02 L2463.99 1413.02 L2463.99 1414.01 L2480.82 1414.01 L2480.82 1413.15 L2497.65 1413.15 L2497.65 1411.66 L2514.48 1411.66 L2514.48 1410.67 L2531.31 1410.67 L2531.31 1408.69 L2548.26 1408.69 L2548.26 1408.44 L2565.09 1408.44 L2565.09 1406.59 L2581.92 1406.59 L2581.92 1406.46 L2598.75 1406.46 L2598.75 1406.34 L2615.58 1406.34 L2615.58 1405.72 L2632.41 1405.72 L2632.41 1406.34 L2649.36 1406.34 L2649.36 1405.72 L2666.19 1405.72 L2666.19 1405.47 L2683.02 1405.47 L2683.02 1405.10 L2699.85 1405.10 L2699.85 1405.72 L2716.68 1405.72 L2716.68 1405.84 L2733.51 1405.84 L2733.51 1407.33 L2750.47 1407.33 L2750.47 1406.09 L2767.30 1406.09 L2767.30 1407.08 L2784.13 1407.08 L2784.13 1407.08 L2800.96 1407.08 L2800.96 1406.46 L2817.79 1406.46 L2817.79 1407.21 L2834.74 1407.21 L2834.74 1407.95 L2851.57 1407.95 L2851.57 1408.69 L2868.40 1408.69 L2868.40 1407.95 L2885.23 1407.95 L2885.23 1408.44 L2902.06 1408.44 L2902.06 1409.06 L2918.89 1409.06 L2918.89 1409.31 L2935.84 1409.31 L2935.84 1408.20 L2952.68 1408.20 L2952.68 1407.70 L2969.51 1407.70 L2969.51 1407.82 L2986.34 1407.82 L2986.34 1407.33 L3003.16 1407.33 L3003.16 1409.19 L3019.99 1409.19 L3019.99 1409.93 L3036.95 1409.93 L3036.95 1408.57 L3053.78 1408.57 L3053.78 1408.57 L3070.61 1408.57 L3070.61 1408.44 L3087.44 1408.44 L3087.44 1408.32 L3104.27 1408.32 L3104.27 1409.31 L3121.10 1409.31 L3121.10 1409.80 L3138.05 1409.80 L3138.05 1410.79 L3154.88 1410.79 L3154.88 1410.92 L3171.71 1410.92 L3171.71 1411.66 L3188.54 1411.66 L3188.54 1413.27 L3205.37 1413.27 L3205.37 1412.90 L3222.33 1412.90 L3222.33 1413.15 L3239.16 1413.15 L3239.16 1414.01 L3255.99 1414.01 L3255.99 1413.02 L3272.82 1413.02 L3272.82 1412.77 L3289.65 1412.77 L3289.65 1411.17 L3306.48 1411.17 L3306.48 1411.17 L3323.43 1411.17 L3323.43 1410.55 L3340.26 1410.55 L3340.26 1410.92 L3357.09 1410.92 L3357.09 1410.67 L3373.92 1410.67 L3373.92 1410.18 L3390.75 1410.18 L3390.75 1410.30 L3407.58 1410.30 L3407.58 1410.67 L3424.53 1410.67 L3424.53 1409.80 L3441.36 1409.80 L3441.36 1410.55 L3458.19 1410.55 L3458.19 1411.54 L3475.02 1411.54 L3475.02 1411.41 L3491.85 1411.41 L3491.85 1411.91 L3508.81 1411.91 L3508.81 1412.77 L3525.64 1412.77 L3525.64 1414.38 L3542.47 1414.38 L3542.47 1414.63 L3559.30 1414.63 L3559.30 1414.26 L3576.13 1414.26 L3576.13 1414.75 L3592.96 1414.75 L3592.96 1414.01 L3609.91 1414.01 L3609.91 1415.50 L3626.74 1415.50 L3626.74 1415.50 L3643.57 1415.50 L3643.57 1416.24 L3660.40 1416.24 L3660.40 1414.88 L3677.23 1414.88 L3677.23 1414.26 L3694.06 1414.26 L3694.06 1414.14 L3711.01 1414.14 L3711.01 1413.76 L3727.84 1413.76 L3727.84 1414.01 L3744.68 1414.01 L3744.68 1414.51 L3761.51 1414.51 L3761.51 1415.87 L3778.34 1415.87 L3778.34 1416.24 L3795.16 1416.24 L3795.16 1416.24" stroke-linejoin="round" style="fill:none;stroke:#000000;stroke-width:8.64"/>
	<line x1="559.10" y1="2509.23" x2="559.10" y2="419.90" style="stroke:#000000;stroke-width:5.76"/>
	<line x1="559.10" y1="2445.87" x2="519.13" y2="2445.87" style="stroke:#000000;stroke-width:5.76"/>
	<text x="499.08" y="2480.90" style="font-family:'Helvetica';font-size:99.99px;fill:#000000" text-anchor="end">-0.25</text>
	<line x1="559.10" y1="2249.60" x2="519.13" y2="2249.60" style="stroke:#000000;stroke-width:5.76"/>
	<text x="499.08" y="2284.63" style="font-family:'Helvetica';font-size:99.99px;fill:#000000" text-anchor="end">-0.20</text>
	<line x1="559.10" y1="2053.32" x2="519.13" y2="2053.32" style="stroke:#000000;stroke-width:5.76"/>
	<text x="499.08" y="2088.35" style="font-family:'Helvetica';font-size:99.99px;fill:#000000" text-anchor="end">-0.15</text>
	<line x1="559.10" y1="1857.05" x2="519.13" y2="1857.05" style="stroke:#000000;stroke-width:5.76"/>
	<text x="499.08" y="1892.08" style="font-family:'Helvetica';font-size:99.99px;fill:#000000" text-anchor="end">-0.10</text>
	<line x1="559.10" y1="1660.78" x2="519.13" y2="1660.78" style="stroke:#000000;stroke-width:5.76"/>
	<text x="499.08" y="1695.81" style="font-family:'Helvetica';font-size:99.99px;fill:#000000" text-anchor="end">-0.05</text>
	<line x1="559.10" y1="1464.63" x2="519.13" y2="1464.63" style="stroke:#000000;stroke-width:5.76"/>
	<text x="499.08" y="1499.66" style="font-family:'Helvetica';font-size:99.99px;fill:#000000" text-anchor="end">0.00</text>
	<line x1="559.10" y1="1268.35" x2="519.13" y2="1268.35" style="stroke:#000000;stroke-width:5.76"/>
	<text x="499.08" y="1303.38" style="font-family:'Helvetica';font-size:99.99px;fill:#000000" text-anchor="end">0.05</text>
	<line x1="559.10" y1="1072.08" x2="519.13" y2="1072.08" style="stroke:#000000;stroke-width:5.76"/>
	<text x="499.08" y="1107.11" style="font-family:'Helvetica';font-size:99.99px;fill:#000000" text-anchor="end">0.10</text>
	<line x1="559.10" y1="875.81" x2="519.13" y2="875.81" style="stroke:#000000;stroke-width:5.76"/>
	<text x="499.08" y="910.83" style="font-family:'Helvetica';font-size:99.99px;fill:#000000" text-anchor="end">0.15</text>
	<line x1="559.10" y1="679.53" x2="519.13" y2="679.53" style="stroke:#000000;stroke-width:5.76"/>
	<text x="499.08" y="714.56" style="font-family:'Helvetica';font-size:99.99px;fill:#000000" text-anchor="end">0.20</text>
	<line x1="559.10" y1="483.26" x2="519.13" y2="483.26" style="stroke:#000000;stroke-width:5.76"/>
	<text x="499.08" y="518.29" style="font-family:'Helvetica';font-size:99.99px;fill:#000000" text-anchor="end">0.25</text>
	<text x="190.71" y="1464.63" style="font-family:'Helvetica';font-size:99.99px;fill:#000000" transform="rotate(-90 190.71,1464.63)" text-anchor="middle">Difference in Probabilities</text>
	<line x1="559.10" y1="2509.23" x2="3859.02" y2="2509.23" style="stroke:#000000;stroke-width:5.76"/>
	<line x1="622.46" y1="2509.23" x2="622.46" y2="2549.21" style="stroke:#000000;stroke-width:5.76"/>
	<text x="622.46" y="2625.15" style="font-family:'Helvetica';font-size:79.94px;fill:#000000" text-anchor="middle">0</text>
	<line x1="812.91" y1="2509.23" x2="812.91" y2="2549.21" style="stroke:#000000;stroke-width:5.76"/>
	<text x="812.91" y="2625.15" style="font-family:'Helvetica';font-size:79.94px;fill:#000000" text-anchor="middle">.3</text>
	<line x1="1003.24" y1="2509.23" x2="1003.24" y2="2549.21" style="stroke:#000000;stroke-width:5.76"/>
	<text x="1003.24" y="2625.15" style="font-family:'Helvetica';font-size:79.94px;fill:#000000" text-anchor="middle">.6</text>
	<line x1="1193.69" y1="2509.23" x2="1193.69" y2="2549.21" style="stroke:#000000;stroke-width:5.76"/>
	<text x="1193.69" y="2625.15" style="font-family:'Helvetica';font-size:79.94px;fill:#000000" text-anchor="middle">.9</text>
	<line x1="1384.02" y1="2509.23" x2="1384.02" y2="2549.21" style="stroke:#000000;stroke-width:5.76"/>
	<text x="1384.02" y="2625.15" style="font-family:'Helvetica';font-size:79.94px;fill:#000000" text-anchor="middle">1.2</text>
	<line x1="1574.47" y1="2509.23" x2="1574.47" y2="2549.21" style="stroke:#000000;stroke-width:5.76"/>
	<text x="1574.47" y="2625.15" style="font-family:'Helvetica';font-size:79.94px;fill:#000000" text-anchor="middle">1.5</text>
	<line x1="1764.80" y1="2509.23" x2="1764.80" y2="2549.21" style="stroke:#000000;stroke-width:5.76"/>
	<text x="1764.80" y="2625.15" style="font-family:'Helvetica';font-size:79.94px;fill:#000000" text-anchor="middle">1.8</text>
	<line x1="1955.25" y1="2509.23" x2="1955.25" y2="2549.21" style="stroke:#000000;stroke-width:5.76"/>
	<text x="1955.25" y="2625.15" style="font-family:'Helvetica';font-size:79.94px;fill:#000000" text-anchor="middle">2.1</text>
	<line x1="2145.58" y1="2509.23" x2="2145.58" y2="2549.21" style="stroke:#000000;stroke-width:5.76"/>
	<text x="2145.58" y="2625.15" style="font-family:'Helvetica';font-size:79.94px;fill:#000000" text-anchor="middle">2.4</text>
	<line x1="2336.03" y1="2509.23" x2="2336.03" y2="2549.21" style="stroke:#000000;stroke-width:5.76"/>
	<text x="2336.03" y="2625.15" style="font-family:'Helvetica';font-size:79.94px;fill:#000000" text-anchor="middle">2.7</text>
	<line x1="2526.48" y1="2509.23" x2="2526.48" y2="2549.21" style="stroke:#000000;stroke-width:5.76"/>
	<text x="2526.48" y="2625.15" style="font-family:'Helvetica';font-size:79.94px;fill:#000000" text-anchor="middle">3</text>
	<line x1="2716.81" y1="2509.23" x2="2716.81" y2="2549.21" style="stroke:#000000;stroke-width:5.76"/>
	<text x="2716.81" y="2625.15" style="font-family:'Helvetica';font-size:79.94px;fill:#000000" text-anchor="middle">3.3</text>
	<line x1="2907.26" y1="2509.23" x2="2907.26" y2="2549.21" style="stroke:#000000;stroke-width:5.76"/>
	<text x="2907.26" y="2625.15" style="font-family:'Helvetica';font-size:79.94px;fill:#000000" text-anchor="middle">3.6</text>
	<line x1="3097.59" y1="2509.23" x2="3097.59" y2="2549.21" style="stroke:#000000;stroke-width:5.76"/>
	<text x="3097.59" y="2625.15" style="font-family:'Helvetica';font-size:79.94px;fill:#000000" text-anchor="middle">3.9</text>
	<line x1="3288.04" y1="2509.23" x2="3288.04" y2="2549.21" style="stroke:#000000;stroke-width:5.76"/>
	<text x="3288.04" y="2625.15" style="font-family:'Helvetica';font-size:79.94px;fill:#000000" text-anchor="middle">4.2</text>
	<line x1="3478.36" y1="2509.23" x2="3478.36" y2="2549.21" style="stroke:#000000;stroke-width:5.76"/>
	<text x="3478.36" y="2625.15" style="font-family:'Helvetica';font-size:79.94px;fill:#000000" text-anchor="middle">4.5</text>
	<line x1="3668.82" y1="2509.23" x2="3668.82" y2="2549.21" style="stroke:#000000;stroke-width:5.76"/>
	<text x="3668.82" y="2625.15" style="font-family:'Helvetica';font-size:79.94px;fill:#000000" text-anchor="middle">4.8</text>
	<line x1="3859.14" y1="2509.23" x2="3859.14" y2="2549.21" style="stroke:#000000;stroke-width:5.76"/>
	<text x="3859.14" y="2625.15" style="font-family:'Helvetica';font-size:79.94px;fill:#000000" text-anchor="middle">5.1</text>
	<text x="2209.06" y="2729.16" style="font-family:'Helvetica';font-size:99.99px;fill:#000000" text-anchor="middle">Time (years)</text>
	<rect x="593.63" y="454.42" width="993.34" height="326.46" style="fill:#FFFFFF"/>
	<rect x="596.51" y="457.30" width="987.58" height="320.70" style="fill:none;stroke:#000000;stroke-width:5.76"/>
	<rect x="636.82" y="497.74" width="374.47" height="99.99" style="fill:#999999;fill-opacity:0.65"/>
	<rect x="641.14" y="502.06" width="365.83" height="91.35" style="fill:none;stroke:#808080;stroke-opacity:0.65;stroke-width:8.64"/>
	<line x1="636.82" y1="687.70" x2="1011.28" y2="687.70" style="stroke:#000000;stroke-width:8.64"/>
	<text x="1071.30" y="582.76" style="font-family:'Helvetica';font-size:99.99px;fill:#000000">CI95%</text>
	<text x="1071.30" y="722.73" style="font-family:'Helvetica';font-size:99.99px;fill:#000000">Difference</text>
	<text x="2209.06" y="369.63" style="font-family:'Helvetica';font-size:110.01px;fill:#000000" text-anchor="middle">from 3rd Readmission to 4th Readmission</text>
	<text x="2209.06" y="215.98" style="font-family:'Helvetica';font-size:139.96px;fill:#1E2D53" text-anchor="middle">Difference in Probabilities</text>
</svg>
