<?xml version="1.0" encoding="UTF-8" standalone="no"?>
<!-- This is a Stata 16.1 generated SVG file (http://www.stata.com) -->

<svg version="1.1" width="5.50in" height="4.00in" viewBox="0 0 3960 2880" xmlns="http://www.w3.org/2000/svg" xmlns:xlink="http://www.w3.org/1999/xlink">
	<desc>Stata Graph - diff_mod_los2435_3y_22</desc>
	<rect x="0" y="0" width="3960" height="2880" style="fill:#EAF2F3;stroke:none"/>
	<rect x="0.00" y="0.00" width="3959.88" height="2880.00" style="fill:#FFFFFF"/>
	<rect x="2.88" y="2.88" width="3954.12" height="2874.24" style="fill:none;stroke:#FFFFFF;stroke-width:5.76"/>
	<rect x="529.90" y="419.90" width="3329.12" height="2089.34" style="fill:#FFFFFF"/>
	<rect x="532.78" y="422.78" width="3323.36" height="2083.58" style="fill:none;stroke:#FFFFFF;stroke-width:5.76"/>
	<line x1="529.90" y1="2203.93" x2="3859.02" y2="2203.93" style="stroke:#EAF2F3;stroke-width:8.64"/>
	<line x1="529.90" y1="1961.99" x2="3859.02" y2="1961.99" style="stroke:#EAF2F3;stroke-width:8.64"/>
	<line x1="529.90" y1="1719.93" x2="3859.02" y2="1719.93" style="stroke:#EAF2F3;stroke-width:8.64"/>
	<line x1="529.90" y1="1477.99" x2="3859.02" y2="1477.99" style="stroke:#EAF2F3;stroke-width:8.64"/>
	<line x1="529.90" y1="1236.05" x2="3859.02" y2="1236.05" style="stroke:#EAF2F3;stroke-width:8.64"/>
	<line x1="529.90" y1="994.11" x2="3859.02" y2="994.11" style="stroke:#EAF2F3;stroke-width:8.64"/>
	<line x1="529.90" y1="752.18" x2="3859.02" y2="752.18" style="stroke:#EAF2F3;stroke-width:8.64"/>
	<line x1="529.90" y1="1464.63" x2="3859.02" y2="1464.63" style="stroke:#1A476F;stroke-width:8.64"/>
	<defs>
		<path id="path_GlWjBTbU" d="M751.16 1464.63 L751.16 1464.63 L768.12 1464.63 L768.12 1464.63 L785.19 1464.63 L785.19 1464.63 L802.15 1464.63 L802.15 1464.63 L819.10 1464.63 L819.10 1464.63 L836.18 1464.63 L836.18 1464.63 L853.13 1464.63 L853.13 1464.63 L870.21 1464.63 L870.21 1464.63 L887.16 1464.63 L887.16 1464.63 L904.12 1464.63 L904.12 1464.63 L921.20 1464.63 L921.20 1464.63 L938.15 1464.63 L938.15 1464.63 L955.23 1464.63 L955.23 1464.63 L972.18 1464.63 L972.18 1464.63 L989.26 1464.63 L989.26 1464.63 L1006.21 1464.63 L1006.21 1464.63 L1023.16 1464.63 L1023.16 1464.63 L1040.24 1464.63 L1040.24 1464.63 L1057.20 1464.63 L1057.20 1464.63 L1074.27 1464.63 L1074.27 1464.63 L1091.23 1464.63 L1091.23 1464.63 L1108.31 1464.63 L1108.31 1464.63 L1125.26 1464.63 L1125.26 1464.63 L1142.21 1464.63 L1142.21 1464.63 L1159.29 1464.63 L1159.29 1464.63 L1176.24 1464.63 L1176.24 1464.63 L1193.32 1464.63 L1193.32 1464.63 L1210.28 1464.63 L1210.28 1464.63 L1227.35 1464.63 L1227.35 1464.63 L1244.31 1464.63 L1244.31 1464.63 L1261.26 1464.63 L1261.26 1464.63 L1278.34 1464.63 L1278.34 1464.63 L1295.29 1464.63 L1295.29 1464.63 L1312.37 1464.63 L1312.37 1464.63 L1329.32 1464.63 L1329.32 1464.63 L1346.40 1464.63 L1346.40 1464.63 L1363.35 1464.63 L1363.35 1464.63 L1380.31 1464.63 L1380.31 1464.63 L1397.38 1464.63 L1397.38 1464.63 L1414.34 1464.63 L1414.34 1464.63 L1431.42 1464.63 L1431.42 1464.63 L1448.37 1464.63 L1448.37 1464.63 L1465.45 1464.63 L1465.45 1464.63 L1482.40 1464.63 L1482.40 1464.63 L1499.36 1464.63 L1499.36 1464.63 L1516.43 1464.63 L1516.43 1464.75 L1533.39 1464.75 L1533.39 1464.75 L1550.46 1464.75 L1550.46 1464.75 L1567.42 1464.75 L1567.42 1464.75 L1584.49 1464.75 L1584.49 1464.75 L1601.45 1464.75 L1601.45 1464.87 L1618.40 1464.87 L1618.40 1464.87 L1635.48 1464.87 L1635.48 1464.87 L1652.43 1464.87 L1652.43 1464.87 L1669.51 1464.87 L1669.51 1465.00 L1686.46 1465.00 L1686.46 1465.00 L1703.54 1465.00 L1703.54 1465.00 L1720.50 1465.00 L1720.50 1465.12 L1737.45 1465.12 L1737.45 1465.12 L1754.53 1465.12 L1754.53 1465.25 L1771.48 1465.25 L1771.48 1465.25 L1788.56 1465.25 L1788.56 1465.37 L1805.51 1465.37 L1805.51 1465.37 L1822.59 1465.37 L1822.59 1465.49 L1839.54 1465.49 L1839.54 1465.62 L1856.50 1465.62 L1856.50 1465.74 L1873.58 1465.74 L1873.58 1465.86 L1890.53 1465.86 L1890.53 1465.99 L1907.61 1465.99 L1907.61 1466.11 L1924.56 1466.11 L1924.56 1466.24 L1941.51 1466.24 L1941.51 1466.36 L1958.59 1466.36 L1958.59 1466.48 L1975.55 1466.48 L1975.55 1466.61 L1992.62 1466.61 L1992.62 1466.85 L2009.58 1466.85 L2009.58 1466.98 L2026.65 1466.98 L2026.65 1467.23 L2043.61 1467.23 L2043.61 1467.35 L2060.56 1467.35 L2060.56 1467.60 L2077.64 1467.60 L2077.64 1467.72 L2094.59 1467.72 L2094.59 1467.97 L2111.67 1467.97 L2111.67 1468.22 L2128.62 1468.22 L2128.62 1468.46 L2145.70 1468.46 L2145.70 1468.59 L2162.66 1468.59 L2162.66 1468.83 L2179.61 1468.83 L2179.61 1469.08 L2196.69 1469.08 L2196.69 1469.33 L2213.64 1469.33 L2213.64 1469.58 L2230.72 1469.58 L2230.72 1469.95 L2247.67 1469.95 L2247.67 1470.20 L2264.75 1470.20 L2264.75 1470.44 L2281.70 1470.44 L2281.70 1470.81 L2298.66 1470.81 L2298.66 1471.06 L2315.73 1471.06 L2315.73 1471.43 L2332.69 1471.43 L2332.69 1471.68 L2349.76 1471.68 L2349.76 1472.05 L2366.72 1472.05 L2366.72 1472.42 L2383.80 1472.42 L2383.80 1472.79 L2400.75 1472.79 L2400.75 1473.17 L2417.70 1473.17 L2417.70 1473.54 L2434.78 1473.54 L2434.78 1473.91 L2451.74 1473.91 L2451.74 1474.28 L2468.81 1474.28 L2468.81 1474.65 L2485.77 1474.65 L2485.77 1475.02 L2502.84 1475.02 L2502.84 1475.52 L2519.80 1475.52 L2519.80 1475.89 L2536.75 1475.89 L2536.75 1476.38 L2553.83 1476.38 L2553.83 1476.75 L2570.78 1476.75 L2570.78 1477.25 L2587.86 1477.25 L2587.86 1477.62 L2604.81 1477.62 L2604.81 1478.12 L2621.89 1478.12 L2621.89 1478.61 L2638.84 1478.61 L2638.84 1478.98 L2655.80 1478.98 L2655.80 1479.48 L2672.88 1479.48 L2672.88 1479.97 L2689.83 1479.97 L2689.83 1480.34 L2706.91 1480.34 L2706.91 1480.84 L2723.86 1480.84 L2723.86 1481.33 L2740.94 1481.33 L2740.94 1481.83 L2757.89 1481.83 L2757.89 1482.32 L2774.85 1482.32 L2774.85 1482.82 L2791.92 1482.82 L2791.92 1483.31 L2808.88 1483.31 L2808.88 1483.81 L2825.95 1483.81 L2825.95 1484.43 L2842.91 1484.43 L2842.91 1484.92 L2859.99 1484.92 L2859.99 1485.42 L2876.94 1485.42 L2876.94 1485.91 L2893.89 1485.91 L2893.89 1486.41 L2910.97 1486.41 L2910.97 1487.03 L2927.93 1487.03 L2927.93 1487.52 L2945.00 1487.52 L2945.00 1488.02 L2961.96 1488.02 L2961.96 1488.51 L2979.03 1488.51 L2979.03 1489.13 L2995.99 1489.13 L2995.99 1489.63 L3012.94 1489.63 L3012.94 1490.12 L3030.02 1490.12 L3030.02 1490.74 L3046.97 1490.74 L3046.97 1491.23 L3064.05 1491.23 L3064.05 1491.85 L3081.00 1491.85 L3081.00 1492.35 L3097.96 1492.35 L3097.96 1492.97 L3115.03 1492.97 L3115.03 1493.46 L3131.99 1493.46 L3131.99 1494.08 L3149.07 1494.08 L3149.07 1494.58 L3166.02 1494.58 L3166.02 1495.19 L3183.10 1495.19 L3183.10 1495.69 L3200.05 1495.69 L3200.05 1496.31 L3217.01 1496.31 L3217.01 1496.93 L3234.08 1496.93 L3234.08 1497.42 L3251.04 1497.42 L3251.04 1498.04 L3268.11 1498.04 L3268.11 1498.66 L3285.07 1498.66 L3285.07 1499.28 L3302.14 1499.28 L3302.14 1499.77 L3319.10 1499.77 L3319.10 1500.39 L3336.05 1500.39 L3336.05 1501.01 L3353.13 1501.01 L3353.13 1501.63 L3370.08 1501.63 L3370.08 1502.25 L3387.16 1502.25 L3387.16 1502.87 L3404.11 1502.87 L3404.11 1503.36 L3421.19 1503.36 L3421.19 1503.98 L3438.15 1503.98 L3438.15 1504.60 L3455.10 1504.60 L3455.10 1505.09 L3472.18 1505.09 L3472.18 1505.71 L3489.13 1505.71 L3489.13 1506.33 L3506.21 1506.33 L3506.21 1506.95 L3523.16 1506.95 L3523.16 1507.45 L3540.24 1507.45 L3540.24 1508.06 L3557.19 1508.06 L3557.19 1508.68 L3574.15 1508.68 L3574.15 1509.30 L3591.22 1509.30 L3591.22 1509.80 L3608.18 1509.80 L3608.18 1510.42 L3625.26 1510.42 L3625.26 1511.03 L3642.21 1511.03 L3642.21 1511.65 L3659.29 1511.65 L3659.29 1512.27 L3676.24 1512.27 L3676.24 1512.89 L3693.20 1512.89 L3693.20 1513.51 L3710.27 1513.51 L3710.27 1514.13 L3727.23 1514.13 L3727.23 1514.75 L3744.30 1514.75 L3744.30 1515.37 L3761.26 1515.37 L3761.26 1515.98 L3778.34 1515.98 L3778.34 1516.60 L3795.29 1516.60 L3795.29 1517.22 L3795.29 1302.01 L3795.29 1303.75 L3778.34 1303.75 L3778.34 1305.60 L3761.26 1305.60 L3761.26 1307.46 L3744.30 1307.46 L3744.30 1309.32 L3727.23 1309.32 L3727.23 1311.17 L3710.27 1311.17 L3710.27 1313.03 L3693.20 1313.03 L3693.20 1314.88 L3676.24 1314.88 L3676.24 1316.74 L3659.29 1316.74 L3659.29 1318.60 L3642.21 1318.60 L3642.21 1320.45 L3625.26 1320.45 L3625.26 1322.31 L3608.18 1322.31 L3608.18 1324.17 L3591.22 1324.17 L3591.22 1326.02 L3574.15 1326.02 L3574.15 1327.88 L3557.19 1327.88 L3557.19 1329.74 L3540.24 1329.74 L3540.24 1331.59 L3523.16 1331.59 L3523.16 1333.57 L3506.21 1333.57 L3506.21 1335.43 L3489.13 1335.43 L3489.13 1337.28 L3472.18 1337.28 L3472.18 1339.14 L3455.10 1339.14 L3455.10 1341.00 L3438.15 1341.00 L3438.15 1342.85 L3421.19 1342.85 L3421.19 1344.71 L3404.11 1344.71 L3404.11 1346.57 L3387.16 1346.57 L3387.16 1348.42 L3370.08 1348.42 L3370.08 1350.15 L3353.13 1350.15 L3353.13 1352.01 L3336.05 1352.01 L3336.05 1353.87 L3319.10 1353.87 L3319.10 1355.60 L3302.14 1355.60 L3302.14 1357.46 L3285.07 1357.46 L3285.07 1359.19 L3268.11 1359.19 L3268.11 1361.05 L3251.04 1361.05 L3251.04 1362.78 L3234.08 1362.78 L3234.08 1364.63 L3217.01 1364.63 L3217.01 1366.37 L3200.05 1366.37 L3200.05 1368.22 L3183.10 1368.22 L3183.10 1369.96 L3166.02 1369.96 L3166.02 1371.69 L3149.07 1371.69 L3149.07 1373.54 L3131.99 1373.54 L3131.99 1375.28 L3115.03 1375.28 L3115.03 1377.01 L3097.96 1377.01 L3097.96 1378.74 L3081.00 1378.74 L3081.00 1380.47 L3064.05 1380.47 L3064.05 1382.21 L3046.97 1382.21 L3046.97 1383.94 L3030.02 1383.94 L3030.02 1385.55 L3012.94 1385.55 L3012.94 1387.28 L2995.99 1387.28 L2995.99 1389.01 L2979.03 1389.01 L2979.03 1390.62 L2961.96 1390.62 L2961.96 1392.35 L2945.00 1392.35 L2945.00 1393.96 L2927.93 1393.96 L2927.93 1395.57 L2910.97 1395.57 L2910.97 1397.18 L2893.89 1397.18 L2893.89 1398.79 L2876.94 1398.79 L2876.94 1400.40 L2859.99 1400.40 L2859.99 1402.01 L2842.91 1402.01 L2842.91 1403.62 L2825.95 1403.62 L2825.95 1405.10 L2808.88 1405.10 L2808.88 1406.71 L2791.92 1406.71 L2791.92 1408.20 L2774.85 1408.20 L2774.85 1409.68 L2757.89 1409.68 L2757.89 1411.17 L2740.94 1411.17 L2740.94 1412.65 L2723.86 1412.65 L2723.86 1414.14 L2706.91 1414.14 L2706.91 1415.62 L2689.83 1415.62 L2689.83 1416.98 L2672.88 1416.98 L2672.88 1418.47 L2655.80 1418.47 L2655.80 1419.83 L2638.84 1419.83 L2638.84 1421.31 L2621.89 1421.31 L2621.89 1422.67 L2604.81 1422.67 L2604.81 1423.91 L2587.86 1423.91 L2587.86 1425.27 L2570.78 1425.27 L2570.78 1426.63 L2553.83 1426.63 L2553.83 1427.87 L2536.75 1427.87 L2536.75 1429.11 L2519.80 1429.11 L2519.80 1430.35 L2502.84 1430.35 L2502.84 1431.58 L2485.77 1431.58 L2485.77 1432.82 L2468.81 1432.82 L2468.81 1433.94 L2451.74 1433.94 L2451.74 1435.17 L2434.78 1435.17 L2434.78 1436.29 L2417.70 1436.29 L2417.70 1437.40 L2400.75 1437.40 L2400.75 1438.51 L2383.80 1438.51 L2383.80 1439.63 L2366.72 1439.63 L2366.72 1440.62 L2349.76 1440.62 L2349.76 1441.73 L2332.69 1441.73 L2332.69 1442.72 L2315.73 1442.72 L2315.73 1443.71 L2298.66 1443.71 L2298.66 1444.70 L2281.70 1444.70 L2281.70 1445.69 L2264.75 1445.69 L2264.75 1446.56 L2247.67 1446.56 L2247.67 1447.43 L2230.72 1447.43 L2230.72 1448.42 L2213.64 1448.42 L2213.64 1449.16 L2196.69 1449.16 L2196.69 1450.02 L2179.61 1450.02 L2179.61 1450.89 L2162.66 1450.89 L2162.66 1451.63 L2145.70 1451.63 L2145.70 1452.38 L2128.62 1452.38 L2128.62 1453.12 L2111.67 1453.12 L2111.67 1453.86 L2094.59 1453.86 L2094.59 1454.48 L2077.64 1454.48 L2077.64 1455.10 L2060.56 1455.10 L2060.56 1455.72 L2043.61 1455.72 L2043.61 1456.34 L2026.65 1456.34 L2026.65 1456.95 L2009.58 1456.95 L2009.58 1457.45 L1992.62 1457.45 L1992.62 1457.94 L1975.55 1457.94 L1975.55 1458.44 L1958.59 1458.44 L1958.59 1458.93 L1941.51 1458.93 L1941.51 1459.43 L1924.56 1459.43 L1924.56 1459.80 L1907.61 1459.80 L1907.61 1460.17 L1890.53 1460.17 L1890.53 1460.54 L1873.58 1460.54 L1873.58 1460.91 L1856.50 1460.91 L1856.50 1461.29 L1839.54 1461.29 L1839.54 1461.53 L1822.59 1461.53 L1822.59 1461.78 L1805.51 1461.78 L1805.51 1462.15 L1788.56 1462.15 L1788.56 1462.40 L1771.48 1462.40 L1771.48 1462.52 L1754.53 1462.52 L1754.53 1462.77 L1737.45 1462.77 L1737.45 1463.02 L1720.50 1463.02 L1720.50 1463.14 L1703.54 1463.14 L1703.54 1463.39 L1686.46 1463.39 L1686.46 1463.51 L1669.51 1463.51 L1669.51 1463.64 L1652.43 1463.64 L1652.43 1463.76 L1635.48 1463.76 L1635.48 1463.88 L1618.40 1463.88 L1618.40 1464.01 L1601.45 1464.01 L1601.45 1464.13 L1584.49 1464.13 L1584.49 1464.13 L1567.42 1464.13 L1567.42 1464.26 L1550.46 1464.26 L1550.46 1464.26 L1533.39 1464.26 L1533.39 1464.38 L1516.43 1464.38 L1516.43 1464.38 L1499.36 1464.38 L1499.36 1464.38 L1482.40 1464.38 L1482.40 1464.50 L1465.45 1464.50 L1465.45 1464.50 L1448.37 1464.50 L1448.37 1464.50 L1431.42 1464.50 L1431.42 1464.50 L1414.34 1464.50 L1414.34 1464.50 L1397.38 1464.50 L1397.38 1464.50 L1380.31 1464.50 L1380.31 1464.50 L1363.35 1464.50 L1363.35 1464.50 L1346.40 1464.50 L1346.40 1464.50 L1329.32 1464.50 L1329.32 1464.50 L1312.37 1464.50 L1312.37 1464.50 L1295.29 1464.50 L1295.29 1464.63 L1278.34 1464.63 L1278.34 1464.63 L1261.26 1464.63 L1261.26 1464.63 L1244.31 1464.63 L1244.31 1464.63 L1227.35 1464.63 L1227.35 1464.63 L1210.28 1464.63 L1210.28 1464.63 L1193.32 1464.63 L1193.32 1464.63 L1176.24 1464.63 L1176.24 1464.63 L1159.29 1464.63 L1159.29 1464.63 L1142.21 1464.63 L1142.21 1464.63 L1125.26 1464.63 L1125.26 1464.63 L1108.31 1464.63 L1108.31 1464.63 L1091.23 1464.63 L1091.23 1464.63 L1074.27 1464.63 L1074.27 1464.63 L1057.20 1464.63 L1057.20 1464.63 L1040.24 1464.63 L1040.24 1464.63 L1023.16 1464.63 L1023.16 1464.63 L1006.21 1464.63 L1006.21 1464.63 L989.26 1464.63 L989.26 1464.63 L972.18 1464.63 L972.18 1464.63 L955.23 1464.63 L955.23 1464.63 L938.15 1464.63 L938.15 1464.63 L921.20 1464.63 L921.20 1464.63 L904.12 1464.63 L904.12 1464.63 L887.16 1464.63 L887.16 1464.63 L870.21 1464.63 L870.21 1464.63 L853.13 1464.63 L853.13 1464.63 L836.18 1464.63 L836.18 1464.63 L819.10 1464.63 L819.10 1464.63 L802.15 1464.63 L802.15 1464.63 L785.19 1464.63 L785.19 1464.63 L768.12 1464.63 L768.12 1464.63 L751.16 1464.63 L751.16 1464.63 Z" stroke-linejoin="round"/>
	</defs>
	<defs>
		<clipPath id="clipPath_vHwqJMTQ">
			<use xlink:href="#path_GlWjBTbU"/>
		</clipPath>
	</defs>
	<use xlink:href="#path_GlWjBTbU" style="stroke:none;fill:#999999;fill-opacity:0.75"/>
	<use xlink:href="#path_GlWjBTbU" style="fill:none;stroke:#808080;stroke-opacity:0.75;stroke-width:17.28" clip-path="url(#clipPath_vHwqJMTQ)"/>
	<path d=" M751.04 1464.63 L768.12 1464.63 L768.12 1464.63 L785.07 1464.63 L785.07 1464.63 L802.02 1464.63 L802.02 1464.63 L819.10 1464.63 L819.10 1464.63 L836.05 1464.63 L836.05 1464.63 L853.13 1464.63 L853.13 1464.63 L870.09 1464.63 L870.09 1464.63 L887.16 1464.63 L887.16 1464.63 L904.12 1464.63 L904.12 1464.63 L921.07 1464.63 L921.07 1464.63 L938.15 1464.63 L938.15 1464.63 L955.10 1464.63 L955.10 1464.63 L972.18 1464.63 L972.18 1464.63 L989.13 1464.63 L989.13 1464.63 L1006.21 1464.63 L1006.21 1464.63 L1023.16 1464.63 L1023.16 1464.63 L1040.12 1464.63 L1040.12 1464.63 L1057.20 1464.63 L1057.20 1464.63 L1074.15 1464.63 L1074.15 1464.63 L1091.23 1464.63 L1091.23 1464.63 L1108.18 1464.63 L1108.18 1464.63 L1125.26 1464.63 L1125.26 1464.63 L1142.21 1464.63 L1142.21 1464.63 L1159.17 1464.63 L1159.17 1464.63 L1176.24 1464.63 L1176.24 1464.63 L1193.20 1464.63 L1193.20 1464.63 L1210.28 1464.63 L1210.28 1464.63 L1227.23 1464.63 L1227.23 1464.63 L1244.31 1464.63 L1244.31 1464.63 L1261.26 1464.63 L1261.26 1464.63 L1278.21 1464.63 L1278.21 1464.63 L1295.29 1464.63 L1295.29 1464.63 L1312.24 1464.63 L1312.24 1464.63 L1329.32 1464.63 L1329.32 1464.63 L1346.28 1464.63 L1346.28 1464.63 L1363.35 1464.63 L1363.35 1464.63 L1380.31 1464.63 L1380.31 1464.63 L1397.26 1464.63 L1397.26 1464.63 L1414.34 1464.63 L1414.34 1464.63 L1431.29 1464.63 L1431.29 1464.63 L1448.37 1464.63 L1448.37 1464.63 L1465.32 1464.63 L1465.32 1464.63 L1482.28 1464.63 L1482.28 1464.63 L1499.36 1464.63 L1499.36 1464.63 L1516.31 1464.63 L1516.31 1464.63 L1533.39 1464.63 L1533.39 1464.63 L1550.34 1464.63 L1550.34 1464.50 L1567.42 1464.50 L1567.42 1464.50 L1584.37 1464.50 L1584.37 1464.50 L1601.33 1464.50 L1601.33 1464.50 L1618.40 1464.50 L1618.40 1464.38 L1635.36 1464.38 L1635.36 1464.38 L1652.43 1464.38 L1652.43 1464.38 L1669.39 1464.38 L1669.39 1464.26 L1686.46 1464.26 L1686.46 1464.26 L1703.42 1464.26 L1703.42 1464.13 L1720.37 1464.13 L1720.37 1464.13 L1737.45 1464.13 L1737.45 1464.01 L1754.40 1464.01 L1754.40 1464.01 L1771.48 1464.01 L1771.48 1463.88 L1788.43 1463.88 L1788.43 1463.76 L1805.51 1463.76 L1805.51 1463.64 L1822.47 1463.64 L1822.47 1463.64 L1839.42 1463.64 L1839.42 1463.51 L1856.50 1463.51 L1856.50 1463.39 L1873.45 1463.39 L1873.45 1463.27 L1890.53 1463.27 L1890.53 1463.14 L1907.48 1463.14 L1907.48 1463.02 L1924.56 1463.02 L1924.56 1462.89 L1941.51 1462.89 L1941.51 1462.65 L1958.47 1462.65 L1958.47 1462.52 L1975.55 1462.52 L1975.55 1462.40 L1992.50 1462.40 L1992.50 1462.15 L2009.58 1462.15 L2009.58 1462.03 L2026.53 1462.03 L2026.53 1461.78 L2043.61 1461.78 L2043.61 1461.66 L2060.56 1461.66 L2060.56 1461.41 L2077.51 1461.41 L2077.51 1461.16 L2094.59 1461.16 L2094.59 1460.91 L2111.55 1460.91 L2111.55 1460.67 L2128.62 1460.67 L2128.62 1460.42 L2145.58 1460.42 L2145.58 1460.17 L2162.66 1460.17 L2162.66 1459.92 L2179.61 1459.92 L2179.61 1459.68 L2196.56 1459.68 L2196.56 1459.31 L2213.64 1459.31 L2213.64 1459.06 L2230.59 1459.06 L2230.59 1458.69 L2247.67 1458.69 L2247.67 1458.44 L2264.63 1458.44 L2264.63 1458.07 L2281.70 1458.07 L2281.70 1457.82 L2298.66 1457.82 L2298.66 1457.45 L2315.61 1457.45 L2315.61 1457.08 L2332.69 1457.08 L2332.69 1456.71 L2349.64 1456.71 L2349.64 1456.46 L2366.72 1456.46 L2366.72 1456.09 L2383.67 1456.09 L2383.67 1455.72 L2400.75 1455.72 L2400.75 1455.35 L2417.70 1455.35 L2417.70 1454.97 L2434.66 1454.97 L2434.66 1454.60 L2451.74 1454.60 L2451.74 1454.23 L2468.69 1454.23 L2468.69 1453.74 L2485.77 1453.74 L2485.77 1453.37 L2502.72 1453.37 L2502.72 1452.99 L2519.67 1452.99 L2519.67 1452.62 L2536.75 1452.62 L2536.75 1452.13 L2553.70 1452.13 L2553.70 1451.76 L2570.78 1451.76 L2570.78 1451.26 L2587.74 1451.26 L2587.74 1450.89 L2604.81 1450.89 L2604.81 1450.40 L2621.77 1450.40 L2621.77 1450.02 L2638.72 1450.02 L2638.72 1449.53 L2655.80 1449.53 L2655.80 1449.03 L2672.75 1449.03 L2672.75 1448.54 L2689.83 1448.54 L2689.83 1448.04 L2706.78 1448.04 L2706.78 1447.55 L2723.86 1447.55 L2723.86 1447.05 L2740.82 1447.05 L2740.82 1446.56 L2757.77 1446.56 L2757.77 1446.06 L2774.85 1446.06 L2774.85 1445.57 L2791.80 1445.57 L2791.80 1445.07 L2808.88 1445.07 L2808.88 1444.58 L2825.83 1444.58 L2825.83 1444.08 L2842.91 1444.08 L2842.91 1443.47 L2859.86 1443.47 L2859.86 1442.97 L2876.82 1442.97 L2876.82 1442.48 L2893.89 1442.48 L2893.89 1441.86 L2910.85 1441.86 L2910.85 1441.36 L2927.93 1441.36 L2927.93 1440.74 L2944.88 1440.74 L2944.88 1440.25 L2961.96 1440.25 L2961.96 1439.63 L2978.91 1439.63 L2978.91 1439.13 L2995.86 1439.13 L2995.86 1438.51 L3012.94 1438.51 L3012.94 1437.90 L3029.89 1437.90 L3029.89 1437.40 L3046.97 1437.40 L3046.97 1436.78 L3063.93 1436.78 L3063.93 1436.16 L3081.00 1436.16 L3081.00 1435.67 L3097.96 1435.67 L3097.96 1435.05 L3114.91 1435.05 L3114.91 1434.43 L3131.99 1434.43 L3131.99 1433.81 L3148.94 1433.81 L3148.94 1433.19 L3166.02 1433.19 L3166.02 1432.57 L3182.97 1432.57 L3182.97 1431.96 L3200.05 1431.96 L3200.05 1431.46 L3217.01 1431.46 L3217.01 1430.84 L3233.96 1430.84 L3233.96 1430.22 L3251.04 1430.22 L3251.04 1429.60 L3267.99 1429.60 L3267.99 1428.99 L3285.07 1428.99 L3285.07 1428.37 L3302.02 1428.37 L3302.02 1427.75 L3319.10 1427.75 L3319.10 1427.25 L3336.05 1427.25 L3336.05 1426.63 L3353.01 1426.63 L3353.01 1426.02 L3370.08 1426.02 L3370.08 1425.40 L3387.04 1425.40 L3387.04 1424.78 L3404.11 1424.78 L3404.11 1424.16 L3421.07 1424.16 L3421.07 1423.54 L3438.15 1423.54 L3438.15 1422.80 L3455.10 1422.80 L3455.10 1422.18 L3472.05 1422.18 L3472.05 1421.56 L3489.13 1421.56 L3489.13 1420.94 L3506.09 1420.94 L3506.09 1420.32 L3523.16 1420.32 L3523.16 1419.58 L3540.12 1419.58 L3540.12 1418.96 L3557.07 1418.96 L3557.07 1418.34 L3574.15 1418.34 L3574.15 1417.72 L3591.10 1417.72 L3591.10 1417.11 L3608.18 1417.11 L3608.18 1416.49 L3625.13 1416.49 L3625.13 1415.87 L3642.21 1415.87 L3642.21 1415.25 L3659.16 1415.25 L3659.16 1414.63 L3676.12 1414.63 L3676.12 1414.01 L3693.20 1414.01 L3693.20 1413.27 L3710.15 1413.27 L3710.15 1412.65 L3727.23 1412.65 L3727.23 1412.03 L3744.18 1412.03 L3744.18 1411.41 L3761.26 1411.41 L3761.26 1410.79 L3778.21 1410.79 L3778.21 1410.18 L3795.16 1410.18 L3795.16 1409.68" stroke-linejoin="round" style="fill:none;stroke:#000000;stroke-width:8.64"/>
	<defs>
		<path id="path_XndVLqBu" d="M751.16 1464.63 L751.16 1464.63 L768.12 1464.63 L768.12 1464.63 L785.19 1464.63 L785.19 1464.63 L802.15 1464.63 L802.15 1464.63 L819.10 1464.63 L819.10 1464.63 L836.18 1464.63 L836.18 1464.63 L853.13 1464.63 L853.13 1464.63 L870.21 1464.63 L870.21 1464.63 L887.16 1464.63 L887.16 1464.63 L904.12 1464.63 L904.12 1464.63 L921.20 1464.63 L921.20 1464.63 L938.15 1464.63 L938.15 1464.63 L955.23 1464.63 L955.23 1464.63 L972.18 1464.63 L972.18 1464.63 L989.26 1464.63 L989.26 1464.63 L1006.21 1464.63 L1006.21 1464.63 L1023.16 1464.63 L1023.16 1464.63 L1040.24 1464.63 L1040.24 1464.63 L1057.20 1464.63 L1057.20 1464.63 L1074.27 1464.63 L1074.27 1464.63 L1091.23 1464.63 L1091.23 1464.63 L1108.31 1464.63 L1108.31 1464.63 L1125.26 1464.63 L1125.26 1464.63 L1142.21 1464.63 L1142.21 1464.63 L1159.29 1464.63 L1159.29 1464.63 L1176.24 1464.63 L1176.24 1464.63 L1193.32 1464.63 L1193.32 1464.63 L1210.28 1464.63 L1210.28 1464.63 L1227.35 1464.63 L1227.35 1464.63 L1244.31 1464.63 L1244.31 1464.63 L1261.26 1464.63 L1261.26 1464.75 L1278.34 1464.75 L1278.34 1464.75 L1295.29 1464.75 L1295.29 1464.75 L1312.37 1464.75 L1312.37 1464.75 L1329.32 1464.75 L1329.32 1464.75 L1346.40 1464.75 L1346.40 1464.75 L1363.35 1464.75 L1363.35 1464.75 L1380.31 1464.75 L1380.31 1464.75 L1397.38 1464.75 L1397.38 1464.75 L1414.34 1464.75 L1414.34 1464.87 L1431.42 1464.87 L1431.42 1464.87 L1448.37 1464.87 L1448.37 1464.87 L1465.45 1464.87 L1465.45 1464.87 L1482.40 1464.87 L1482.40 1464.87 L1499.36 1464.87 L1499.36 1465.00 L1516.43 1465.00 L1516.43 1465.00 L1533.39 1465.00 L1533.39 1465.00 L1550.46 1465.00 L1550.46 1465.00 L1567.42 1465.00 L1567.42 1465.12 L1584.49 1465.12 L1584.49 1465.12 L1601.45 1465.12 L1601.45 1465.12 L1618.40 1465.12 L1618.40 1465.25 L1635.48 1465.25 L1635.48 1465.25 L1652.43 1465.25 L1652.43 1465.25 L1669.51 1465.25 L1669.51 1465.37 L1686.46 1465.37 L1686.46 1465.37 L1703.54 1465.37 L1703.54 1465.49 L1720.50 1465.49 L1720.50 1465.49 L1737.45 1465.49 L1737.45 1465.62 L1754.53 1465.62 L1754.53 1465.62 L1771.48 1465.62 L1771.48 1465.62 L1788.56 1465.62 L1788.56 1465.74 L1805.51 1465.74 L1805.51 1465.74 L1822.59 1465.74 L1822.59 1465.86 L1839.54 1465.86 L1839.54 1465.86 L1856.50 1465.86 L1856.50 1465.86 L1873.58 1465.86 L1873.58 1465.99 L1890.53 1465.99 L1890.53 1465.99 L1907.61 1465.99 L1907.61 1466.11 L1924.56 1466.11 L1924.56 1466.11 L1941.51 1466.11 L1941.51 1466.11 L1958.59 1466.11 L1958.59 1466.24 L1975.55 1466.24 L1975.55 1466.24 L1992.62 1466.24 L1992.62 1466.36 L2009.58 1466.36 L2009.58 1466.36 L2026.65 1466.36 L2026.65 1466.36 L2043.61 1466.36 L2043.61 1466.48 L2060.56 1466.48 L2060.56 1466.61 L2077.64 1466.61 L2077.64 1466.61 L2094.59 1466.61 L2094.59 1466.73 L2111.67 1466.73 L2111.67 1466.73 L2128.62 1466.73 L2128.62 1466.85 L2145.70 1466.85 L2145.70 1466.85 L2162.66 1466.85 L2162.66 1466.98 L2179.61 1466.98 L2179.61 1467.10 L2196.69 1467.10 L2196.69 1467.10 L2213.64 1467.10 L2213.64 1467.23 L2230.72 1467.23 L2230.72 1467.35 L2247.67 1467.35 L2247.67 1467.35 L2264.75 1467.35 L2264.75 1467.47 L2281.70 1467.47 L2281.70 1467.60 L2298.66 1467.60 L2298.66 1467.60 L2315.73 1467.60 L2315.73 1467.72 L2332.69 1467.72 L2332.69 1467.84 L2349.76 1467.84 L2349.76 1467.97 L2366.72 1467.97 L2366.72 1467.97 L2383.80 1467.97 L2383.80 1468.09 L2400.75 1468.09 L2400.75 1468.22 L2417.70 1468.22 L2417.70 1468.34 L2434.78 1468.34 L2434.78 1468.46 L2451.74 1468.46 L2451.74 1468.59 L2468.81 1468.59 L2468.81 1468.59 L2485.77 1468.59 L2485.77 1468.71 L2502.84 1468.71 L2502.84 1468.83 L2519.80 1468.83 L2519.80 1468.96 L2536.75 1468.96 L2536.75 1469.08 L2553.83 1469.08 L2553.83 1469.21 L2570.78 1469.21 L2570.78 1469.33 L2587.86 1469.33 L2587.86 1469.45 L2604.81 1469.45 L2604.81 1469.58 L2621.89 1469.58 L2621.89 1469.70 L2638.84 1469.70 L2638.84 1469.82 L2655.80 1469.82 L2655.80 1469.95 L2672.88 1469.95 L2672.88 1469.95 L2689.83 1469.95 L2689.83 1470.07 L2706.91 1470.07 L2706.91 1470.20 L2723.86 1470.20 L2723.86 1470.32 L2740.94 1470.32 L2740.94 1470.44 L2757.89 1470.44 L2757.89 1470.57 L2774.85 1470.57 L2774.85 1470.69 L2791.92 1470.69 L2791.92 1470.81 L2808.88 1470.81 L2808.88 1470.94 L2825.95 1470.94 L2825.95 1471.06 L2842.91 1471.06 L2842.91 1471.19 L2859.99 1471.19 L2859.99 1471.31 L2876.94 1471.31 L2876.94 1471.43 L2893.89 1471.43 L2893.89 1471.56 L2910.97 1471.56 L2910.97 1471.68 L2927.93 1471.68 L2927.93 1471.93 L2945.00 1471.93 L2945.00 1472.05 L2961.96 1472.05 L2961.96 1472.18 L2979.03 1472.18 L2979.03 1472.30 L2995.99 1472.30 L2995.99 1472.42 L3012.94 1472.42 L3012.94 1472.67 L3030.02 1472.67 L3030.02 1472.79 L3046.97 1472.79 L3046.97 1472.92 L3064.05 1472.92 L3064.05 1473.17 L3081.00 1473.17 L3081.00 1473.29 L3097.96 1473.29 L3097.96 1473.41 L3115.03 1473.41 L3115.03 1473.66 L3131.99 1473.66 L3131.99 1473.78 L3149.07 1473.78 L3149.07 1474.03 L3166.02 1474.03 L3166.02 1474.16 L3183.10 1474.16 L3183.10 1474.28 L3200.05 1474.28 L3200.05 1474.53 L3217.01 1474.53 L3217.01 1474.65 L3234.08 1474.65 L3234.08 1474.90 L3251.04 1474.90 L3251.04 1475.02 L3268.11 1475.02 L3268.11 1475.27 L3285.07 1475.27 L3285.07 1475.39 L3302.14 1475.39 L3302.14 1475.64 L3319.10 1475.64 L3319.10 1475.89 L3336.05 1475.89 L3336.05 1476.01 L3353.13 1476.01 L3353.13 1476.26 L3370.08 1476.26 L3370.08 1476.38 L3387.16 1476.38 L3387.16 1476.63 L3404.11 1476.63 L3404.11 1476.75 L3421.19 1476.75 L3421.19 1477.00 L3438.15 1477.00 L3438.15 1477.25 L3455.10 1477.25 L3455.10 1477.37 L3472.18 1477.37 L3472.18 1477.62 L3489.13 1477.62 L3489.13 1477.74 L3506.21 1477.74 L3506.21 1477.99 L3523.16 1477.99 L3523.16 1478.24 L3540.24 1478.24 L3540.24 1478.36 L3557.19 1478.36 L3557.19 1478.61 L3574.15 1478.61 L3574.15 1478.86 L3591.22 1478.86 L3591.22 1479.11 L3608.18 1479.11 L3608.18 1479.35 L3625.26 1479.35 L3625.26 1479.48 L3642.21 1479.48 L3642.21 1479.72 L3659.29 1479.72 L3659.29 1479.97 L3676.24 1479.97 L3676.24 1480.10 L3693.20 1480.10 L3693.20 1480.34 L3710.27 1480.34 L3710.27 1480.59 L3727.23 1480.59 L3727.23 1480.84 L3744.30 1480.84 L3744.30 1481.09 L3761.26 1481.09 L3761.26 1481.33 L3778.34 1481.33 L3778.34 1481.46 L3795.29 1481.46 L3795.29 1481.71 L3795.29 1368.72 L3795.29 1369.58 L3778.34 1369.58 L3778.34 1370.33 L3761.26 1370.33 L3761.26 1371.19 L3744.30 1371.19 L3744.30 1371.94 L3727.23 1371.94 L3727.23 1372.80 L3710.27 1372.80 L3710.27 1373.67 L3693.20 1373.67 L3693.20 1374.53 L3676.24 1374.53 L3676.24 1375.28 L3659.29 1375.28 L3659.29 1376.14 L3642.21 1376.14 L3642.21 1377.01 L3625.26 1377.01 L3625.26 1377.88 L3608.18 1377.88 L3608.18 1378.62 L3591.22 1378.62 L3591.22 1379.48 L3574.15 1379.48 L3574.15 1380.35 L3557.19 1380.35 L3557.19 1381.22 L3540.24 1381.22 L3540.24 1382.08 L3523.16 1382.08 L3523.16 1382.95 L3506.21 1382.95 L3506.21 1383.69 L3489.13 1383.69 L3489.13 1384.56 L3472.18 1384.56 L3472.18 1385.42 L3455.10 1385.42 L3455.10 1386.29 L3438.15 1386.29 L3438.15 1387.16 L3421.19 1387.16 L3421.19 1388.02 L3404.11 1388.02 L3404.11 1388.89 L3387.16 1388.89 L3387.16 1389.76 L3370.08 1389.76 L3370.08 1390.62 L3353.13 1390.62 L3353.13 1391.49 L3336.05 1391.49 L3336.05 1392.48 L3319.10 1392.48 L3319.10 1393.34 L3302.14 1393.34 L3302.14 1394.21 L3285.07 1394.21 L3285.07 1395.08 L3268.11 1395.08 L3268.11 1395.94 L3251.04 1395.94 L3251.04 1396.81 L3234.08 1396.81 L3234.08 1397.68 L3217.01 1397.68 L3217.01 1398.54 L3200.05 1398.54 L3200.05 1399.41 L3183.10 1399.41 L3183.10 1400.28 L3166.02 1400.28 L3166.02 1401.14 L3149.07 1401.14 L3149.07 1402.01 L3131.99 1402.01 L3131.99 1402.87 L3115.03 1402.87 L3115.03 1403.86 L3097.96 1403.86 L3097.96 1404.73 L3081.00 1404.73 L3081.00 1405.60 L3064.05 1405.60 L3064.05 1406.46 L3046.97 1406.46 L3046.97 1407.33 L3030.02 1407.33 L3030.02 1408.20 L3012.94 1408.20 L3012.94 1409.06 L2995.99 1409.06 L2995.99 1409.93 L2979.03 1409.93 L2979.03 1410.79 L2961.96 1410.79 L2961.96 1411.66 L2945.00 1411.66 L2945.00 1412.53 L2927.93 1412.53 L2927.93 1413.39 L2910.97 1413.39 L2910.97 1414.26 L2893.89 1414.26 L2893.89 1415.13 L2876.94 1415.13 L2876.94 1415.99 L2859.99 1415.99 L2859.99 1416.86 L2842.91 1416.86 L2842.91 1417.72 L2825.95 1417.72 L2825.95 1418.59 L2808.88 1418.59 L2808.88 1419.46 L2791.92 1419.46 L2791.92 1420.32 L2774.85 1420.32 L2774.85 1421.19 L2757.89 1421.19 L2757.89 1421.93 L2740.94 1421.93 L2740.94 1422.80 L2723.86 1422.80 L2723.86 1423.66 L2706.91 1423.66 L2706.91 1424.53 L2689.83 1424.53 L2689.83 1425.40 L2672.88 1425.40 L2672.88 1426.14 L2655.80 1426.14 L2655.80 1427.01 L2638.84 1427.01 L2638.84 1427.75 L2621.89 1427.75 L2621.89 1428.61 L2604.81 1428.61 L2604.81 1429.36 L2587.86 1429.36 L2587.86 1430.22 L2570.78 1430.22 L2570.78 1430.97 L2553.83 1430.97 L2553.83 1431.71 L2536.75 1431.71 L2536.75 1432.57 L2519.80 1432.57 L2519.80 1433.32 L2502.84 1433.32 L2502.84 1434.06 L2485.77 1434.06 L2485.77 1434.80 L2468.81 1434.80 L2468.81 1435.54 L2451.74 1435.54 L2451.74 1436.29 L2434.78 1436.29 L2434.78 1437.03 L2417.70 1437.03 L2417.70 1437.77 L2400.75 1437.77 L2400.75 1438.51 L2383.80 1438.51 L2383.80 1439.26 L2366.72 1439.26 L2366.72 1440.00 L2349.76 1440.00 L2349.76 1440.62 L2332.69 1440.62 L2332.69 1441.36 L2315.73 1441.36 L2315.73 1441.98 L2298.66 1441.98 L2298.66 1442.72 L2281.70 1442.72 L2281.70 1443.34 L2264.75 1443.34 L2264.75 1444.08 L2247.67 1444.08 L2247.67 1444.70 L2230.72 1444.70 L2230.72 1445.32 L2213.64 1445.32 L2213.64 1445.94 L2196.69 1445.94 L2196.69 1446.68 L2179.61 1446.68 L2179.61 1447.30 L2162.66 1447.30 L2162.66 1447.92 L2145.70 1447.92 L2145.70 1448.42 L2128.62 1448.42 L2128.62 1449.03 L2111.67 1449.03 L2111.67 1449.65 L2094.59 1449.65 L2094.59 1450.27 L2077.64 1450.27 L2077.64 1450.77 L2060.56 1450.77 L2060.56 1451.26 L2043.61 1451.26 L2043.61 1451.88 L2026.65 1451.88 L2026.65 1452.38 L2009.58 1452.38 L2009.58 1452.99 L1992.62 1452.99 L1992.62 1453.49 L1975.55 1453.49 L1975.55 1453.98 L1958.59 1453.98 L1958.59 1454.48 L1941.51 1454.48 L1941.51 1454.97 L1924.56 1454.97 L1924.56 1455.47 L1907.61 1455.47 L1907.61 1455.84 L1890.53 1455.84 L1890.53 1456.34 L1873.58 1456.34 L1873.58 1456.83 L1856.50 1456.83 L1856.50 1457.20 L1839.54 1457.20 L1839.54 1457.57 L1822.59 1457.57 L1822.59 1457.94 L1805.51 1457.94 L1805.51 1458.32 L1788.56 1458.32 L1788.56 1458.69 L1771.48 1458.69 L1771.48 1459.06 L1754.53 1459.06 L1754.53 1459.43 L1737.45 1459.43 L1737.45 1459.68 L1720.50 1459.68 L1720.50 1460.05 L1703.54 1460.05 L1703.54 1460.30 L1686.46 1460.30 L1686.46 1460.67 L1669.51 1460.67 L1669.51 1460.91 L1652.43 1460.91 L1652.43 1461.16 L1635.48 1461.16 L1635.48 1461.41 L1618.40 1461.41 L1618.40 1461.66 L1601.45 1461.66 L1601.45 1461.90 L1584.49 1461.90 L1584.49 1462.03 L1567.42 1462.03 L1567.42 1462.28 L1550.46 1462.28 L1550.46 1462.52 L1533.39 1462.52 L1533.39 1462.65 L1516.43 1462.65 L1516.43 1462.89 L1499.36 1462.89 L1499.36 1463.02 L1482.40 1463.02 L1482.40 1463.14 L1465.45 1463.14 L1465.45 1463.27 L1448.37 1463.27 L1448.37 1463.39 L1431.42 1463.39 L1431.42 1463.51 L1414.34 1463.51 L1414.34 1463.64 L1397.38 1463.64 L1397.38 1463.76 L1380.31 1463.76 L1380.31 1463.88 L1363.35 1463.88 L1363.35 1464.01 L1346.40 1464.01 L1346.40 1464.01 L1329.32 1464.01 L1329.32 1464.13 L1312.37 1464.13 L1312.37 1464.26 L1295.29 1464.26 L1295.29 1464.26 L1278.34 1464.26 L1278.34 1464.26 L1261.26 1464.26 L1261.26 1464.38 L1244.31 1464.38 L1244.31 1464.38 L1227.35 1464.38 L1227.35 1464.38 L1210.28 1464.38 L1210.28 1464.50 L1193.32 1464.50 L1193.32 1464.50 L1176.24 1464.50 L1176.24 1464.50 L1159.29 1464.50 L1159.29 1464.50 L1142.21 1464.50 L1142.21 1464.50 L1125.26 1464.50 L1125.26 1464.50 L1108.31 1464.50 L1108.31 1464.50 L1091.23 1464.50 L1091.23 1464.50 L1074.27 1464.50 L1074.27 1464.50 L1057.20 1464.50 L1057.20 1464.50 L1040.24 1464.50 L1040.24 1464.63 L1023.16 1464.63 L1023.16 1464.63 L1006.21 1464.63 L1006.21 1464.63 L989.26 1464.63 L989.26 1464.63 L972.18 1464.63 L972.18 1464.63 L955.23 1464.63 L955.23 1464.63 L938.15 1464.63 L938.15 1464.63 L921.20 1464.63 L921.20 1464.63 L904.12 1464.63 L904.12 1464.63 L887.16 1464.63 L887.16 1464.63 L870.21 1464.63 L870.21 1464.63 L853.13 1464.63 L853.13 1464.63 L836.18 1464.63 L836.18 1464.63 L819.10 1464.63 L819.10 1464.63 L802.15 1464.63 L802.15 1464.63 L785.19 1464.63 L785.19 1464.63 L768.12 1464.63 L768.12 1464.63 L751.16 1464.63 L751.16 1464.63 Z" stroke-linejoin="round"/>
	</defs>
	<defs>
		<clipPath id="clipPath_nzBLjQkN">
			<use xlink:href="#path_XndVLqBu"/>
		</clipPath>
	</defs>
	<use xlink:href="#path_XndVLqBu" style="stroke:none;fill:#999999;fill-opacity:0.35"/>
	<use xlink:href="#path_XndVLqBu" style="fill:none;stroke:#808080;stroke-opacity:0.35;stroke-width:17.28" clip-path="url(#clipPath_nzBLjQkN)"/>
	<path d=" M751.04 1464.63 L768.12 1464.63 L768.12 1464.63 L785.07 1464.63 L785.07 1464.63 L802.02 1464.63 L802.02 1464.63 L819.10 1464.63 L819.10 1464.63 L836.05 1464.63 L836.05 1464.63 L853.13 1464.63 L853.13 1464.63 L870.09 1464.63 L870.09 1464.63 L887.16 1464.63 L887.16 1464.63 L904.12 1464.63 L904.12 1464.63 L921.07 1464.63 L921.07 1464.63 L938.15 1464.63 L938.15 1464.63 L955.10 1464.63 L955.10 1464.63 L972.18 1464.63 L972.18 1464.63 L989.13 1464.63 L989.13 1464.63 L1006.21 1464.63 L1006.21 1464.63 L1023.16 1464.63 L1023.16 1464.63 L1040.12 1464.63 L1040.12 1464.63 L1057.20 1464.63 L1057.20 1464.63 L1074.15 1464.63 L1074.15 1464.63 L1091.23 1464.63 L1091.23 1464.63 L1108.18 1464.63 L1108.18 1464.63 L1125.26 1464.63 L1125.26 1464.63 L1142.21 1464.63 L1142.21 1464.63 L1159.17 1464.63 L1159.17 1464.63 L1176.24 1464.63 L1176.24 1464.63 L1193.20 1464.63 L1193.20 1464.63 L1210.28 1464.63 L1210.28 1464.63 L1227.23 1464.63 L1227.23 1464.63 L1244.31 1464.63 L1244.31 1464.63 L1261.26 1464.63 L1261.26 1464.63 L1278.21 1464.63 L1278.21 1464.50 L1295.29 1464.50 L1295.29 1464.50 L1312.24 1464.50 L1312.24 1464.50 L1329.32 1464.50 L1329.32 1464.50 L1346.28 1464.50 L1346.28 1464.38 L1363.35 1464.38 L1363.35 1464.38 L1380.31 1464.38 L1380.31 1464.38 L1397.26 1464.38 L1397.26 1464.26 L1414.34 1464.26 L1414.34 1464.26 L1431.29 1464.26 L1431.29 1464.26 L1448.37 1464.26 L1448.37 1464.13 L1465.32 1464.13 L1465.32 1464.13 L1482.28 1464.13 L1482.28 1464.01 L1499.36 1464.01 L1499.36 1464.01 L1516.31 1464.01 L1516.31 1463.88 L1533.39 1463.88 L1533.39 1463.76 L1550.34 1463.76 L1550.34 1463.76 L1567.42 1463.76 L1567.42 1463.64 L1584.37 1463.64 L1584.37 1463.51 L1601.33 1463.51 L1601.33 1463.39 L1618.40 1463.39 L1618.40 1463.39 L1635.36 1463.39 L1635.36 1463.27 L1652.43 1463.27 L1652.43 1463.14 L1669.39 1463.14 L1669.39 1463.02 L1686.46 1463.02 L1686.46 1462.89 L1703.42 1462.89 L1703.42 1462.77 L1720.37 1462.77 L1720.37 1462.65 L1737.45 1462.65 L1737.45 1462.52 L1754.40 1462.52 L1754.40 1462.40 L1771.48 1462.40 L1771.48 1462.28 L1788.43 1462.28 L1788.43 1462.15 L1805.51 1462.15 L1805.51 1461.90 L1822.47 1461.90 L1822.47 1461.78 L1839.42 1461.78 L1839.42 1461.66 L1856.50 1461.66 L1856.50 1461.41 L1873.45 1461.41 L1873.45 1461.16 L1890.53 1461.16 L1890.53 1461.04 L1907.48 1461.04 L1907.48 1460.79 L1924.56 1460.79 L1924.56 1460.54 L1941.51 1460.54 L1941.51 1460.42 L1958.47 1460.42 L1958.47 1460.17 L1975.55 1460.17 L1975.55 1459.92 L1992.50 1459.92 L1992.50 1459.68 L2009.58 1459.68 L2009.58 1459.43 L2026.53 1459.43 L2026.53 1459.18 L2043.61 1459.18 L2043.61 1458.93 L2060.56 1458.93 L2060.56 1458.69 L2077.51 1458.69 L2077.51 1458.44 L2094.59 1458.44 L2094.59 1458.19 L2111.55 1458.19 L2111.55 1457.94 L2128.62 1457.94 L2128.62 1457.70 L2145.58 1457.70 L2145.58 1457.45 L2162.66 1457.45 L2162.66 1457.20 L2179.61 1457.20 L2179.61 1456.95 L2196.56 1456.95 L2196.56 1456.58 L2213.64 1456.58 L2213.64 1456.34 L2230.59 1456.34 L2230.59 1456.09 L2247.67 1456.09 L2247.67 1455.84 L2264.63 1455.84 L2264.63 1455.47 L2281.70 1455.47 L2281.70 1455.22 L2298.66 1455.22 L2298.66 1454.85 L2315.61 1454.85 L2315.61 1454.60 L2332.69 1454.60 L2332.69 1454.36 L2349.64 1454.36 L2349.64 1453.98 L2366.72 1453.98 L2366.72 1453.74 L2383.67 1453.74 L2383.67 1453.37 L2400.75 1453.37 L2400.75 1453.12 L2417.70 1453.12 L2417.70 1452.75 L2434.66 1452.75 L2434.66 1452.50 L2451.74 1452.50 L2451.74 1452.13 L2468.69 1452.13 L2468.69 1451.76 L2485.77 1451.76 L2485.77 1451.51 L2502.72 1451.51 L2502.72 1451.14 L2519.67 1451.14 L2519.67 1450.77 L2536.75 1450.77 L2536.75 1450.52 L2553.70 1450.52 L2553.70 1450.15 L2570.78 1450.15 L2570.78 1449.78 L2587.74 1449.78 L2587.74 1449.53 L2604.81 1449.53 L2604.81 1449.16 L2621.77 1449.16 L2621.77 1448.79 L2638.72 1448.79 L2638.72 1448.42 L2655.80 1448.42 L2655.80 1448.04 L2672.75 1448.04 L2672.75 1447.80 L2689.83 1447.80 L2689.83 1447.43 L2706.78 1447.43 L2706.78 1447.05 L2723.86 1447.05 L2723.86 1446.68 L2740.82 1446.68 L2740.82 1446.31 L2757.77 1446.31 L2757.77 1445.94 L2774.85 1445.94 L2774.85 1445.57 L2791.80 1445.57 L2791.80 1445.20 L2808.88 1445.20 L2808.88 1444.83 L2825.83 1444.83 L2825.83 1444.46 L2842.91 1444.46 L2842.91 1444.08 L2859.86 1444.08 L2859.86 1443.71 L2876.82 1443.71 L2876.82 1443.34 L2893.89 1443.34 L2893.89 1442.97 L2910.85 1442.97 L2910.85 1442.60 L2927.93 1442.60 L2927.93 1442.23 L2944.88 1442.23 L2944.88 1441.86 L2961.96 1441.86 L2961.96 1441.49 L2978.91 1441.49 L2978.91 1441.11 L2995.86 1441.11 L2995.86 1440.87 L3012.94 1440.87 L3012.94 1440.50 L3029.89 1440.50 L3029.89 1440.12 L3046.97 1440.12 L3046.97 1439.75 L3063.93 1439.75 L3063.93 1439.38 L3081.00 1439.38 L3081.00 1439.01 L3097.96 1439.01 L3097.96 1438.76 L3114.91 1438.76 L3114.91 1438.39 L3131.99 1438.39 L3131.99 1438.02 L3148.94 1438.02 L3148.94 1437.65 L3166.02 1437.65 L3166.02 1437.28 L3182.97 1437.28 L3182.97 1436.91 L3200.05 1436.91 L3200.05 1436.53 L3217.01 1436.53 L3217.01 1436.29 L3233.96 1436.29 L3233.96 1435.92 L3251.04 1435.92 L3251.04 1435.54 L3267.99 1435.54 L3267.99 1435.17 L3285.07 1435.17 L3285.07 1434.80 L3302.02 1434.80 L3302.02 1434.55 L3319.10 1434.55 L3319.10 1434.18 L3336.05 1434.18 L3336.05 1433.81 L3353.01 1433.81 L3353.01 1433.44 L3370.08 1433.44 L3370.08 1433.19 L3387.04 1433.19 L3387.04 1432.82 L3404.11 1432.82 L3404.11 1432.45 L3421.07 1432.45 L3421.07 1432.20 L3438.15 1432.20 L3438.15 1431.83 L3455.10 1431.83 L3455.10 1431.46 L3472.05 1431.46 L3472.05 1431.21 L3489.13 1431.21 L3489.13 1430.84 L3506.09 1430.84 L3506.09 1430.47 L3523.16 1430.47 L3523.16 1430.22 L3540.12 1430.22 L3540.12 1429.85 L3557.07 1429.85 L3557.07 1429.60 L3574.15 1429.60 L3574.15 1429.23 L3591.10 1429.23 L3591.10 1428.99 L3608.18 1428.99 L3608.18 1428.61 L3625.13 1428.61 L3625.13 1428.37 L3642.21 1428.37 L3642.21 1428.00 L3659.16 1428.00 L3659.16 1427.75 L3676.12 1427.75 L3676.12 1427.38 L3693.20 1427.38 L3693.20 1427.01 L3710.15 1427.01 L3710.15 1426.76 L3727.23 1426.76 L3727.23 1426.51 L3744.18 1426.51 L3744.18 1426.14 L3761.26 1426.14 L3761.26 1425.89 L3778.21 1425.89 L3778.21 1425.52 L3795.16 1425.52 L3795.16 1425.27" stroke-linejoin="round" style="fill:none;stroke:#808080;stroke-width:8.64"/>
	<line x1="529.90" y1="2509.23" x2="529.90" y2="419.90" style="stroke:#000000;stroke-width:5.76"/>
	<line x1="529.90" y1="2445.87" x2="489.93" y2="2445.87" style="stroke:#000000;stroke-width:5.76"/>
	<text x="470.00" y="2480.90" style="font-family:'Helvetica';font-size:99.99px;fill:#000000" text-anchor="end">-365</text>
	<line x1="529.90" y1="2203.93" x2="489.93" y2="2203.93" style="stroke:#000000;stroke-width:5.76"/>
	<text x="470.00" y="2238.96" style="font-family:'Helvetica';font-size:99.99px;fill:#000000" text-anchor="end">-275</text>
	<line x1="529.90" y1="1961.99" x2="489.93" y2="1961.99" style="stroke:#000000;stroke-width:5.76"/>
	<text x="470.00" y="1997.02" style="font-family:'Helvetica';font-size:99.99px;fill:#000000" text-anchor="end">-185</text>
	<line x1="529.90" y1="1719.93" x2="489.93" y2="1719.93" style="stroke:#000000;stroke-width:5.76"/>
	<text x="470.00" y="1754.96" style="font-family:'Helvetica';font-size:99.99px;fill:#000000" text-anchor="end">-95</text>
	<line x1="529.90" y1="1477.99" x2="489.93" y2="1477.99" style="stroke:#000000;stroke-width:5.76"/>
	<text x="470.00" y="1513.02" style="font-family:'Helvetica';font-size:99.99px;fill:#000000" text-anchor="end">-5</text>
	<line x1="529.90" y1="1236.05" x2="489.93" y2="1236.05" style="stroke:#000000;stroke-width:5.76"/>
	<text x="470.00" y="1271.08" style="font-family:'Helvetica';font-size:99.99px;fill:#000000" text-anchor="end">85</text>
	<line x1="529.90" y1="994.11" x2="489.93" y2="994.11" style="stroke:#000000;stroke-width:5.76"/>
	<text x="470.00" y="1029.14" style="font-family:'Helvetica';font-size:99.99px;fill:#000000" text-anchor="end">175</text>
	<line x1="529.90" y1="752.18" x2="489.93" y2="752.18" style="stroke:#000000;stroke-width:5.76"/>
	<text x="470.00" y="787.20" style="font-family:'Helvetica';font-size:99.99px;fill:#000000" text-anchor="end">265</text>
	<line x1="529.90" y1="510.11" x2="489.93" y2="510.11" style="stroke:#000000;stroke-width:5.76"/>
	<text x="470.00" y="545.14" style="font-family:'Helvetica';font-size:99.99px;fill:#000000" text-anchor="end">355</text>
	<text x="190.71" y="1464.63" style="font-family:'Helvetica';font-size:99.99px;fill:#000000" transform="rotate(-90 190.71,1464.63)" text-anchor="middle">Difference in Lengths of Stay</text>
	<line x1="529.90" y1="2509.23" x2="3859.02" y2="2509.23" style="stroke:#000000;stroke-width:5.76"/>
	<line x1="593.26" y1="2509.23" x2="593.26" y2="2549.21" style="stroke:#000000;stroke-width:5.76"/>
	<text x="593.26" y="2625.15" style="font-family:'Helvetica';font-size:79.94px;fill:#000000" text-anchor="middle">0</text>
	<line x1="785.44" y1="2509.23" x2="785.44" y2="2549.21" style="stroke:#000000;stroke-width:5.76"/>
	<text x="785.44" y="2625.15" style="font-family:'Helvetica';font-size:79.94px;fill:#000000" text-anchor="middle">.3</text>
	<line x1="977.63" y1="2509.23" x2="977.63" y2="2549.21" style="stroke:#000000;stroke-width:5.76"/>
	<text x="977.63" y="2625.15" style="font-family:'Helvetica';font-size:79.94px;fill:#000000" text-anchor="middle">.6</text>
	<line x1="1169.68" y1="2509.23" x2="1169.68" y2="2549.21" style="stroke:#000000;stroke-width:5.76"/>
	<text x="1169.68" y="2625.15" style="font-family:'Helvetica';font-size:79.94px;fill:#000000" text-anchor="middle">.9</text>
	<line x1="1361.87" y1="2509.23" x2="1361.87" y2="2549.21" style="stroke:#000000;stroke-width:5.76"/>
	<text x="1361.87" y="2625.15" style="font-family:'Helvetica';font-size:79.94px;fill:#000000" text-anchor="middle">1.2</text>
	<line x1="1554.05" y1="2509.23" x2="1554.05" y2="2549.21" style="stroke:#000000;stroke-width:5.76"/>
	<text x="1554.05" y="2625.15" style="font-family:'Helvetica';font-size:79.94px;fill:#000000" text-anchor="middle">1.5</text>
	<line x1="1746.11" y1="2509.23" x2="1746.11" y2="2549.21" style="stroke:#000000;stroke-width:5.76"/>
	<text x="1746.11" y="2625.15" style="font-family:'Helvetica';font-size:79.94px;fill:#000000" text-anchor="middle">1.8</text>
	<line x1="1938.30" y1="2509.23" x2="1938.30" y2="2549.21" style="stroke:#000000;stroke-width:5.76"/>
	<text x="1938.30" y="2625.15" style="font-family:'Helvetica';font-size:79.94px;fill:#000000" text-anchor="middle">2.1</text>
	<line x1="2130.48" y1="2509.23" x2="2130.48" y2="2549.21" style="stroke:#000000;stroke-width:5.76"/>
	<text x="2130.48" y="2625.15" style="font-family:'Helvetica';font-size:79.94px;fill:#000000" text-anchor="middle">2.4</text>
	<line x1="2322.66" y1="2509.23" x2="2322.66" y2="2549.21" style="stroke:#000000;stroke-width:5.76"/>
	<text x="2322.66" y="2625.15" style="font-family:'Helvetica';font-size:79.94px;fill:#000000" text-anchor="middle">2.7</text>
	<line x1="2514.72" y1="2509.23" x2="2514.72" y2="2549.21" style="stroke:#000000;stroke-width:5.76"/>
	<text x="2514.72" y="2625.15" style="font-family:'Helvetica';font-size:79.94px;fill:#000000" text-anchor="middle">3</text>
	<line x1="2706.91" y1="2509.23" x2="2706.91" y2="2549.21" style="stroke:#000000;stroke-width:5.76"/>
	<text x="2706.91" y="2625.15" style="font-family:'Helvetica';font-size:79.94px;fill:#000000" text-anchor="middle">3.3</text>
	<line x1="2899.09" y1="2509.23" x2="2899.09" y2="2549.21" style="stroke:#000000;stroke-width:5.76"/>
	<text x="2899.09" y="2625.15" style="font-family:'Helvetica';font-size:79.94px;fill:#000000" text-anchor="middle">3.6</text>
	<line x1="3091.15" y1="2509.23" x2="3091.15" y2="2549.21" style="stroke:#000000;stroke-width:5.76"/>
	<text x="3091.15" y="2625.15" style="font-family:'Helvetica';font-size:79.94px;fill:#000000" text-anchor="middle">3.9</text>
	<line x1="3283.34" y1="2509.23" x2="3283.34" y2="2549.21" style="stroke:#000000;stroke-width:5.76"/>
	<text x="3283.34" y="2625.15" style="font-family:'Helvetica';font-size:79.94px;fill:#000000" text-anchor="middle">4.2</text>
	<line x1="3475.52" y1="2509.23" x2="3475.52" y2="2549.21" style="stroke:#000000;stroke-width:5.76"/>
	<text x="3475.52" y="2625.15" style="font-family:'Helvetica';font-size:79.94px;fill:#000000" text-anchor="middle">4.5</text>
	<line x1="3667.58" y1="2509.23" x2="3667.58" y2="2549.21" style="stroke:#000000;stroke-width:5.76"/>
	<text x="3667.58" y="2625.15" style="font-family:'Helvetica';font-size:79.94px;fill:#000000" text-anchor="middle">4.8</text>
	<line x1="3859.76" y1="2509.23" x2="3859.76" y2="2549.21" style="stroke:#000000;stroke-width:5.76"/>
	<text x="3859.76" y="2625.15" style="font-family:'Helvetica';font-size:79.94px;fill:#000000" text-anchor="middle">5.1</text>
	<text x="2194.46" y="2729.16" style="font-family:'Helvetica';font-size:99.99px;fill:#000000" text-anchor="middle">Time (years)</text>
	<rect x="2519.18" y="1868.31" width="1305.32" height="606.39" style="fill:#FFFFFF"/>
	<rect x="2522.06" y="1871.19" width="1299.56" height="600.63" style="fill:none;stroke:#000000;stroke-width:5.76"/>
	<rect x="2562.37" y="1911.50" width="374.34" height="99.99" style="fill:#999999;fill-opacity:0.75"/>
	<rect x="2566.69" y="1915.82" width="365.70" height="91.35" style="fill:none;stroke:#808080;stroke-opacity:0.75;stroke-width:8.64"/>
	<line x1="2562.37" y1="2101.46" x2="2936.71" y2="2101.46" style="stroke:#000000;stroke-width:8.64"/>
	<rect x="2562.37" y="2191.43" width="374.34" height="99.99" style="fill:#999999;fill-opacity:0.35"/>
	<rect x="2566.69" y="2195.75" width="365.70" height="91.35" style="fill:none;stroke:#808080;stroke-opacity:0.35;stroke-width:8.64"/>
	<line x1="2562.37" y1="2381.52" x2="2936.71" y2="2381.52" style="stroke:#808080;stroke-width:8.64"/>
	<text x="2996.73" y="1996.53" style="font-family:'Helvetica';font-size:99.99px;fill:#000000">CI95%</text>
	<text x="2996.73" y="2136.49" style="font-family:'Helvetica';font-size:99.99px;fill:#000000">Difference (TC)</text>
	<text x="2996.73" y="2276.46" style="font-family:'Helvetica';font-size:99.99px;fill:#000000">CI95%</text>
	<text x="2996.73" y="2416.55" style="font-family:'Helvetica';font-size:99.99px;fill:#000000">Difference (TNC)</text>
	<text x="2194.46" y="369.63" style="font-family:'Helvetica';font-size:110.01px;fill:#000000" text-anchor="middle">from First to Second Readmission</text>
	<text x="2194.46" y="215.98" style="font-family:'Helvetica';font-size:139.96px;fill:#1E2D53" text-anchor="middle">Difference in Probabilities at 3 years</text>
</svg>
