<?xml version="1.0" encoding="UTF-8" standalone="no"?>
<!-- This is a Stata 16.1 generated SVG file (http://www.stata.com) -->

<svg version="1.1" width="5.50in" height="4.00in" viewBox="0 0 3960 2880" xmlns="http://www.w3.org/2000/svg" xmlns:xlink="http://www.w3.org/1999/xlink">
	<desc>Stata Graph - diff_mod34_3y_tc</desc>
	<rect x="0" y="0" width="3960" height="2880" style="fill:#EAF2F3;stroke:none"/>
	<rect x="0.00" y="0.00" width="3959.88" height="2880.00" style="fill:#FFFFFF"/>
	<rect x="2.88" y="2.88" width="3954.12" height="2874.24" style="fill:none;stroke:#FFFFFF;stroke-width:5.76"/>
	<rect x="559.10" y="419.90" width="3299.92" height="2089.34" style="fill:#FFFFFF"/>
	<rect x="561.98" y="422.78" width="3294.16" height="2083.58" style="fill:none;stroke:#FFFFFF;stroke-width:5.76"/>
	<line x1="559.10" y1="2249.60" x2="3859.02" y2="2249.60" style="stroke:#EAF2F3;stroke-width:8.64"/>
	<line x1="559.10" y1="2053.32" x2="3859.02" y2="2053.32" style="stroke:#EAF2F3;stroke-width:8.64"/>
	<line x1="559.10" y1="1857.05" x2="3859.02" y2="1857.05" style="stroke:#EAF2F3;stroke-width:8.64"/>
	<line x1="559.10" y1="1660.78" x2="3859.02" y2="1660.78" style="stroke:#EAF2F3;stroke-width:8.64"/>
	<line x1="559.10" y1="1464.63" x2="3859.02" y2="1464.63" style="stroke:#EAF2F3;stroke-width:8.64"/>
	<line x1="559.10" y1="1268.35" x2="3859.02" y2="1268.35" style="stroke:#EAF2F3;stroke-width:8.64"/>
	<line x1="559.10" y1="1072.08" x2="3859.02" y2="1072.08" style="stroke:#EAF2F3;stroke-width:8.64"/>
	<line x1="559.10" y1="875.81" x2="3859.02" y2="875.81" style="stroke:#EAF2F3;stroke-width:8.64"/>
	<line x1="559.10" y1="679.53" x2="3859.02" y2="679.53" style="stroke:#EAF2F3;stroke-width:8.64"/>
	<line x1="559.10" y1="1464.63" x2="3859.02" y2="1464.63" style="stroke:#1A476F;stroke-width:8.64"/>
	<defs>
		<path id="path_YMXyEmAy" d="M778.88 1478.61 L778.88 1478.61 L795.71 1478.61 L795.71 1479.85 L812.54 1479.85 L812.54 1479.72 L829.37 1479.72 L829.37 1482.82 L846.20 1482.82 L846.20 1484.18 L863.16 1484.18 L863.16 1484.55 L879.99 1484.55 L879.99 1485.17 L896.82 1485.17 L896.82 1487.40 L913.65 1487.40 L913.65 1488.88 L930.48 1488.88 L930.48 1488.64 L947.31 1488.64 L947.31 1488.02 L964.26 1488.02 L964.26 1487.40 L981.09 1487.40 L981.09 1490.74 L997.92 1490.74 L997.92 1492.60 L1014.75 1492.60 L1014.75 1494.08 L1031.58 1494.08 L1031.58 1494.58 L1048.53 1494.58 L1048.53 1496.93 L1065.36 1496.93 L1065.36 1495.94 L1082.19 1495.94 L1082.19 1497.17 L1099.02 1497.17 L1099.02 1497.42 L1115.85 1497.42 L1115.85 1498.29 L1132.68 1498.29 L1132.68 1497.30 L1149.64 1497.30 L1149.64 1499.40 L1166.47 1499.40 L1166.47 1500.14 L1183.30 1500.14 L1183.30 1501.51 L1200.13 1501.51 L1200.13 1501.38 L1216.96 1501.38 L1216.96 1501.75 L1233.79 1501.75 L1233.79 1502.62 L1250.74 1502.62 L1250.74 1503.61 L1267.57 1503.61 L1267.57 1504.10 L1284.40 1504.10 L1284.40 1504.48 L1301.23 1504.48 L1301.23 1504.85 L1318.06 1504.85 L1318.06 1505.22 L1334.89 1505.22 L1334.89 1504.48 L1351.85 1504.48 L1351.85 1504.97 L1368.67 1504.97 L1368.67 1505.22 L1385.51 1505.22 L1385.51 1505.71 L1402.34 1505.71 L1402.34 1507.32 L1419.16 1507.32 L1419.16 1509.43 L1436.12 1509.43 L1436.12 1511.28 L1452.95 1511.28 L1452.95 1512.89 L1469.78 1512.89 L1469.78 1513.14 L1486.61 1513.14 L1486.61 1513.14 L1503.44 1513.14 L1503.44 1514.99 L1520.27 1514.99 L1520.27 1515.86 L1537.22 1515.86 L1537.22 1517.22 L1554.05 1517.22 L1554.05 1519.45 L1570.88 1519.45 L1570.88 1520.19 L1587.71 1520.19 L1587.71 1520.56 L1604.54 1520.56 L1604.54 1521.80 L1621.37 1521.80 L1621.37 1523.78 L1638.33 1523.78 L1638.33 1522.92 L1655.16 1522.92 L1655.16 1523.29 L1671.99 1523.29 L1671.99 1521.55 L1688.82 1521.55 L1688.82 1523.16 L1705.65 1523.16 L1705.65 1522.67 L1722.48 1522.67 L1722.48 1524.28 L1739.43 1524.28 L1739.43 1525.14 L1756.26 1525.14 L1756.26 1524.40 L1773.09 1524.40 L1773.09 1527.25 L1789.92 1527.25 L1789.92 1528.98 L1806.75 1528.98 L1806.75 1528.61 L1823.70 1528.61 L1823.70 1528.73 L1840.53 1528.73 L1840.53 1530.34 L1857.36 1530.34 L1857.36 1530.59 L1874.19 1530.59 L1874.19 1530.84 L1891.02 1530.84 L1891.02 1530.59 L1907.85 1530.59 L1907.85 1532.82 L1924.81 1532.82 L1924.81 1533.19 L1941.64 1533.19 L1941.64 1534.30 L1958.47 1534.30 L1958.47 1534.92 L1975.30 1534.92 L1975.30 1536.28 L1992.13 1536.28 L1992.13 1538.26 L2008.96 1538.26 L2008.96 1540.24 L2025.91 1540.24 L2025.91 1541.85 L2042.74 1541.85 L2042.74 1541.73 L2059.57 1541.73 L2059.57 1540.74 L2076.40 1540.74 L2076.40 1541.48 L2093.23 1541.48 L2093.23 1541.85 L2110.18 1541.85 L2110.18 1542.10 L2127.01 1542.10 L2127.01 1543.09 L2143.84 1543.09 L2143.84 1544.45 L2160.68 1544.45 L2160.68 1546.43 L2177.51 1546.43 L2177.51 1545.56 L2194.34 1545.56 L2194.34 1547.42 L2211.29 1547.42 L2211.29 1548.16 L2228.12 1548.16 L2228.12 1548.90 L2244.95 1548.90 L2244.95 1548.28 L2261.78 1548.28 L2261.78 1547.05 L2278.61 1547.05 L2278.61 1548.41 L2295.44 1548.41 L2295.44 1547.91 L2312.39 1547.91 L2312.39 1549.03 L2329.22 1549.03 L2329.22 1550.14 L2346.05 1550.14 L2346.05 1551.38 L2362.88 1551.38 L2362.88 1552.62 L2379.71 1552.62 L2379.71 1553.48 L2396.54 1553.48 L2396.54 1553.36 L2413.50 1553.36 L2413.50 1554.47 L2430.33 1554.47 L2430.33 1554.22 L2447.16 1554.22 L2447.16 1555.21 L2463.99 1555.21 L2463.99 1555.21 L2480.82 1555.21 L2480.82 1555.21 L2497.77 1555.21 L2497.77 1554.72 L2514.60 1554.72 L2514.60 1554.97 L2531.43 1554.97 L2531.43 1554.97 L2548.26 1554.97 L2548.26 1556.70 L2565.09 1556.70 L2565.09 1554.47 L2581.92 1554.47 L2581.92 1553.98 L2598.87 1553.98 L2598.87 1553.85 L2615.70 1553.85 L2615.70 1554.10 L2632.53 1554.10 L2632.53 1553.36 L2649.36 1553.36 L2649.36 1554.35 L2666.19 1554.35 L2666.19 1552.99 L2683.02 1552.99 L2683.02 1554.35 L2699.98 1554.35 L2699.98 1555.09 L2716.81 1555.09 L2716.81 1554.22 L2733.64 1554.22 L2733.64 1552.86 L2750.47 1552.86 L2750.47 1551.13 L2767.30 1551.13 L2767.30 1551.75 L2784.25 1551.75 L2784.25 1552.00 L2801.08 1552.00 L2801.08 1552.86 L2817.91 1552.86 L2817.91 1554.22 L2834.74 1554.22 L2834.74 1554.97 L2851.57 1554.97 L2851.57 1554.60 L2868.40 1554.60 L2868.40 1555.34 L2885.36 1555.34 L2885.36 1557.32 L2902.18 1557.32 L2902.18 1557.32 L2919.01 1557.32 L2919.01 1557.32 L2935.84 1557.32 L2935.84 1557.32 L2952.68 1557.32 L2952.68 1557.69 L2969.51 1557.69 L2969.51 1558.93 L2986.46 1558.93 L2986.46 1559.30 L3003.29 1559.30 L3003.29 1560.17 L3020.12 1560.17 L3020.12 1560.78 L3036.95 1560.78 L3036.95 1562.27 L3053.78 1562.27 L3053.78 1563.51 L3070.61 1563.51 L3070.61 1563.01 L3087.56 1563.01 L3087.56 1563.51 L3104.39 1563.51 L3104.39 1564.50 L3121.22 1564.50 L3121.22 1565.36 L3138.05 1565.36 L3138.05 1567.34 L3154.88 1567.34 L3154.88 1567.96 L3171.84 1567.96 L3171.84 1568.83 L3188.67 1568.83 L3188.67 1569.69 L3205.50 1569.69 L3205.50 1570.31 L3222.33 1570.31 L3222.33 1571.06 L3239.16 1571.06 L3239.16 1571.67 L3255.99 1571.67 L3255.99 1572.54 L3272.94 1572.54 L3272.94 1571.67 L3289.77 1571.67 L3289.77 1571.67 L3306.60 1571.67 L3306.60 1571.30 L3323.43 1571.30 L3323.43 1572.42 L3340.26 1572.42 L3340.26 1572.54 L3357.09 1572.54 L3357.09 1572.54 L3374.04 1572.54 L3374.04 1573.78 L3390.87 1573.78 L3390.87 1575.02 L3407.70 1575.02 L3407.70 1574.52 L3424.53 1574.52 L3424.53 1575.63 L3441.36 1575.63 L3441.36 1576.25 L3458.19 1576.25 L3458.19 1576.75 L3475.15 1576.75 L3475.15 1576.62 L3491.98 1576.62 L3491.98 1576.13 L3508.81 1576.13 L3508.81 1577.37 L3525.64 1577.37 L3525.64 1576.25 L3542.47 1576.25 L3542.47 1573.90 L3559.42 1573.90 L3559.42 1574.27 L3576.25 1574.27 L3576.25 1575.39 L3593.08 1575.39 L3593.08 1575.26 L3609.91 1575.26 L3609.91 1576.38 L3626.74 1576.38 L3626.74 1576.50 L3643.57 1576.50 L3643.57 1577.24 L3660.53 1577.24 L3660.53 1577.12 L3677.36 1577.12 L3677.36 1578.48 L3694.18 1578.48 L3694.18 1579.72 L3711.01 1579.72 L3711.01 1580.71 L3727.84 1580.71 L3727.84 1579.35 L3744.68 1579.35 L3744.68 1581.08 L3761.63 1581.08 L3761.63 1581.33 L3778.46 1581.33 L3778.46 1580.09 L3795.29 1580.09 L3795.29 1579.47 L3795.29 1258.70 L3795.29 1260.06 L3778.46 1260.06 L3778.46 1261.55 L3761.63 1261.55 L3761.63 1261.55 L3744.68 1261.55 L3744.68 1260.56 L3727.84 1260.56 L3727.84 1262.29 L3711.01 1262.29 L3711.01 1261.67 L3694.18 1261.67 L3694.18 1260.93 L3677.36 1260.93 L3677.36 1259.94 L3660.53 1259.94 L3660.53 1260.80 L3643.57 1260.80 L3643.57 1260.68 L3626.74 1260.68 L3626.74 1261.05 L3609.91 1261.05 L3609.91 1260.56 L3593.08 1260.56 L3593.08 1261.18 L3576.25 1261.18 L3576.25 1260.68 L3559.42 1260.68 L3559.42 1260.80 L3542.47 1260.80 L3542.47 1263.90 L3525.64 1263.90 L3525.64 1265.38 L3508.81 1265.38 L3508.81 1264.64 L3491.98 1264.64 L3491.98 1266.00 L3475.15 1266.00 L3475.15 1266.50 L3458.19 1266.50 L3458.19 1266.37 L3441.36 1266.37 L3441.36 1266.37 L3424.53 1266.37 L3424.53 1265.75 L3407.70 1265.75 L3407.70 1266.62 L3390.87 1266.62 L3390.87 1266.13 L3374.04 1266.13 L3374.04 1265.51 L3357.09 1265.51 L3357.09 1266.00 L3340.26 1266.00 L3340.26 1266.37 L3323.43 1266.37 L3323.43 1265.88 L3306.60 1265.88 L3306.60 1266.74 L3289.77 1266.74 L3289.77 1267.36 L3272.94 1267.36 L3272.94 1268.85 L3255.99 1268.85 L3255.99 1268.48 L3239.16 1268.48 L3239.16 1268.48 L3222.33 1268.48 L3222.33 1268.35 L3205.50 1268.35 L3205.50 1268.35 L3188.67 1268.35 L3188.67 1267.98 L3171.84 1267.98 L3171.84 1267.98 L3154.88 1267.98 L3154.88 1267.98 L3138.05 1267.98 L3138.05 1266.50 L3121.22 1266.50 L3121.22 1266.13 L3104.39 1266.13 L3104.39 1265.88 L3087.56 1265.88 L3087.56 1265.88 L3070.61 1265.88 L3070.61 1266.74 L3053.78 1266.74 L3053.78 1266.00 L3036.95 1266.00 L3036.95 1265.38 L3020.12 1265.38 L3020.12 1265.38 L3003.29 1265.38 L3003.29 1265.14 L2986.46 1265.14 L2986.46 1265.26 L2969.51 1265.26 L2969.51 1264.89 L2952.68 1264.89 L2952.68 1264.89 L2935.84 1264.89 L2935.84 1265.63 L2919.01 1265.63 L2919.01 1266.13 L2902.18 1266.13 L2902.18 1266.62 L2885.36 1266.62 L2885.36 1265.14 L2868.40 1265.14 L2868.40 1265.01 L2851.57 1265.01 L2851.57 1265.88 L2834.74 1265.88 L2834.74 1265.75 L2817.91 1265.75 L2817.91 1264.89 L2801.08 1264.89 L2801.08 1264.64 L2784.25 1264.64 L2784.25 1264.89 L2767.30 1264.89 L2767.30 1264.89 L2750.47 1264.89 L2750.47 1267.12 L2733.64 1267.12 L2733.64 1268.97 L2716.81 1268.97 L2716.81 1270.70 L2699.98 1270.70 L2699.98 1270.70 L2683.02 1270.70 L2683.02 1270.33 L2666.19 1270.33 L2666.19 1272.07 L2649.36 1272.07 L2649.36 1271.94 L2632.53 1271.94 L2632.53 1273.30 L2615.70 1273.30 L2615.70 1273.67 L2598.87 1273.67 L2598.87 1274.17 L2581.92 1274.17 L2581.92 1275.16 L2565.09 1275.16 L2565.09 1278.25 L2548.26 1278.25 L2548.26 1277.26 L2531.43 1277.26 L2531.43 1278.25 L2514.60 1278.25 L2514.60 1278.75 L2497.77 1278.75 L2497.77 1280.11 L2480.82 1280.11 L2480.82 1280.73 L2463.99 1280.73 L2463.99 1281.22 L2447.16 1281.22 L2447.16 1281.10 L2430.33 1281.10 L2430.33 1282.09 L2413.50 1282.09 L2413.50 1281.72 L2396.54 1281.72 L2396.54 1282.46 L2379.71 1282.46 L2379.71 1282.34 L2362.88 1282.34 L2362.88 1281.60 L2346.05 1281.60 L2346.05 1281.10 L2329.22 1281.10 L2329.22 1280.85 L2312.39 1280.85 L2312.39 1280.11 L2295.44 1280.11 L2295.44 1281.47 L2278.61 1281.47 L2278.61 1281.22 L2261.78 1281.22 L2261.78 1283.33 L2244.95 1283.33 L2244.95 1284.81 L2228.12 1284.81 L2228.12 1284.81 L2211.29 1284.81 L2211.29 1284.69 L2194.34 1284.69 L2194.34 1283.82 L2177.51 1283.82 L2177.51 1285.68 L2160.68 1285.68 L2160.68 1284.69 L2143.84 1284.69 L2143.84 1284.32 L2127.01 1284.32 L2127.01 1284.07 L2110.18 1284.07 L2110.18 1284.69 L2093.23 1284.69 L2093.23 1285.56 L2076.40 1285.56 L2076.40 1285.80 L2059.57 1285.80 L2059.57 1287.91 L2042.74 1287.91 L2042.74 1288.90 L2025.91 1288.90 L2025.91 1288.28 L2008.96 1288.28 L2008.96 1287.16 L1992.13 1287.16 L1992.13 1286.55 L1975.30 1286.55 L1975.30 1286.42 L1958.47 1286.42 L1958.47 1286.67 L1941.64 1286.67 L1941.64 1286.67 L1924.81 1286.67 L1924.81 1287.66 L1907.85 1287.66 L1907.85 1286.42 L1891.02 1286.42 L1891.02 1287.78 L1874.19 1287.78 L1874.19 1288.77 L1857.36 1288.77 L1857.36 1289.89 L1840.53 1289.89 L1840.53 1289.64 L1823.70 1289.64 L1823.70 1290.75 L1806.75 1290.75 L1806.75 1292.49 L1789.92 1292.49 L1789.92 1291.99 L1773.09 1291.99 L1773.09 1290.38 L1756.26 1290.38 L1756.26 1292.61 L1739.43 1292.61 L1739.43 1293.10 L1722.48 1293.10 L1722.48 1292.98 L1705.65 1292.98 L1705.65 1294.84 L1688.82 1294.84 L1688.82 1294.71 L1671.99 1294.71 L1671.99 1297.68 L1655.16 1297.68 L1655.16 1298.67 L1638.33 1298.67 L1638.33 1300.90 L1621.37 1300.90 L1621.37 1300.78 L1604.54 1300.78 L1604.54 1301.15 L1587.71 1301.15 L1587.71 1302.39 L1570.88 1302.39 L1570.88 1303.38 L1554.05 1303.38 L1554.05 1302.63 L1537.22 1302.63 L1537.22 1303.00 L1520.27 1303.00 L1520.27 1303.75 L1503.44 1303.75 L1503.44 1303.99 L1486.61 1303.99 L1486.61 1305.97 L1469.78 1305.97 L1469.78 1307.58 L1452.95 1307.58 L1452.95 1307.95 L1436.12 1307.95 L1436.12 1308.20 L1419.16 1308.20 L1419.16 1308.33 L1402.34 1308.33 L1402.34 1308.82 L1385.51 1308.82 L1385.51 1310.55 L1368.67 1310.55 L1368.67 1312.53 L1351.85 1312.53 L1351.85 1314.76 L1334.89 1314.76 L1334.89 1318.10 L1318.06 1318.10 L1318.06 1320.21 L1301.23 1320.21 L1301.23 1322.43 L1284.40 1322.43 L1284.40 1324.54 L1267.57 1324.54 L1267.57 1326.77 L1250.74 1326.77 L1250.74 1328.50 L1233.79 1328.50 L1233.79 1330.48 L1216.96 1330.48 L1216.96 1332.95 L1200.13 1332.95 L1200.13 1335.92 L1183.30 1335.92 L1183.30 1337.78 L1166.47 1337.78 L1166.47 1340.38 L1149.64 1340.38 L1149.64 1341.62 L1132.68 1341.62 L1132.68 1346.19 L1115.85 1346.19 L1115.85 1348.92 L1099.02 1348.92 L1099.02 1352.26 L1082.19 1352.26 L1082.19 1354.61 L1065.36 1354.61 L1065.36 1359.44 L1048.53 1359.44 L1048.53 1361.17 L1031.58 1361.17 L1031.58 1364.63 L1014.75 1364.63 L1014.75 1367.48 L997.92 1367.48 L997.92 1370.45 L981.09 1370.45 L981.09 1371.94 L964.26 1371.94 L964.26 1377.26 L947.31 1377.26 L947.31 1382.95 L930.48 1382.95 L930.48 1388.27 L913.65 1388.27 L913.65 1391.98 L896.82 1391.98 L896.82 1395.08 L879.99 1395.08 L879.99 1399.90 L863.16 1399.90 L863.16 1405.35 L846.20 1405.35 L846.20 1409.93 L829.37 1409.93 L829.37 1413.15 L812.54 1413.15 L812.54 1419.46 L795.71 1419.46 L795.71 1424.53 L778.88 1424.53 L778.88 1478.61 Z" stroke-linejoin="round"/>
	</defs>
	<defs>
		<clipPath id="clipPath_JjMXrGvf">
			<use xlink:href="#path_YMXyEmAy"/>
		</clipPath>
	</defs>
	<use xlink:href="#path_YMXyEmAy" style="stroke:none;fill:#999999;fill-opacity:0.65"/>
	<use xlink:href="#path_YMXyEmAy" style="fill:none;stroke:#808080;stroke-opacity:0.65;stroke-width:17.28" clip-path="url(#clipPath_JjMXrGvf)"/>
	<path d=" M778.76 1451.63 L795.59 1451.63 L795.59 1449.78 L812.54 1449.78 L812.54 1446.44 L829.37 1446.44 L829.37 1446.44 L846.20 1446.44 L846.20 1444.83 L863.03 1444.83 L863.03 1442.35 L879.86 1442.35 L879.86 1440.25 L896.69 1440.25 L896.69 1439.75 L913.65 1439.75 L913.65 1438.64 L930.48 1438.64 L930.48 1435.92 L947.31 1435.92 L947.31 1432.70 L964.14 1432.70 L964.14 1429.73 L980.97 1429.73 L980.97 1430.59 L997.80 1430.59 L997.80 1430.10 L1014.75 1430.10 L1014.75 1429.36 L1031.58 1429.36 L1031.58 1427.87 L1048.41 1427.87 L1048.41 1428.24 L1065.24 1428.24 L1065.24 1425.27 L1082.07 1425.27 L1082.07 1424.78 L1099.02 1424.78 L1099.02 1423.17 L1115.85 1423.17 L1115.85 1422.30 L1132.68 1422.30 L1132.68 1419.58 L1149.51 1419.58 L1149.51 1419.95 L1166.34 1419.95 L1166.34 1419.09 L1183.17 1419.09 L1183.17 1418.71 L1200.13 1418.71 L1200.13 1417.23 L1216.96 1417.23 L1216.96 1416.12 L1233.79 1416.12 L1233.79 1415.62 L1250.62 1415.62 L1250.62 1415.25 L1267.45 1415.25 L1267.45 1414.38 L1284.28 1414.38 L1284.28 1413.52 L1301.23 1413.52 L1301.23 1412.53 L1318.06 1412.53 L1318.06 1411.66 L1334.89 1411.66 L1334.89 1409.56 L1351.72 1409.56 L1351.72 1408.81 L1368.55 1408.81 L1368.55 1407.95 L1385.51 1407.95 L1385.51 1407.33 L1402.34 1407.33 L1402.34 1407.82 L1419.16 1407.82 L1419.16 1408.81 L1435.99 1408.81 L1435.99 1409.68 L1452.83 1409.68 L1452.83 1410.18 L1469.65 1410.18 L1469.65 1409.56 L1486.61 1409.56 L1486.61 1408.57 L1503.44 1408.57 L1503.44 1409.31 L1520.27 1409.31 L1520.27 1409.43 L1537.10 1409.43 L1537.10 1409.93 L1553.93 1409.93 L1553.93 1411.41 L1570.76 1411.41 L1570.76 1411.29 L1587.71 1411.29 L1587.71 1410.92 L1604.54 1410.92 L1604.54 1411.29 L1621.37 1411.29 L1621.37 1412.40 L1638.20 1412.40 L1638.20 1410.79 L1655.03 1410.79 L1655.03 1410.42 L1671.86 1410.42 L1671.86 1408.07 L1688.82 1408.07 L1688.82 1408.94 L1705.65 1408.94 L1705.65 1407.82 L1722.48 1407.82 L1722.48 1408.69 L1739.31 1408.69 L1739.31 1408.94 L1756.14 1408.94 L1756.14 1407.45 L1773.09 1407.45 L1773.09 1409.56 L1789.92 1409.56 L1789.92 1410.79 L1806.75 1410.79 L1806.75 1409.68 L1823.58 1409.68 L1823.58 1409.19 L1840.41 1409.19 L1840.41 1410.05 L1857.24 1410.05 L1857.24 1409.68 L1874.19 1409.68 L1874.19 1409.31 L1891.02 1409.31 L1891.02 1408.57 L1907.85 1408.57 L1907.85 1410.18 L1924.68 1410.18 L1924.68 1409.93 L1941.51 1409.93 L1941.51 1410.55 L1958.34 1410.55 L1958.34 1410.67 L1975.30 1410.67 L1975.30 1411.41 L1992.13 1411.41 L1992.13 1412.65 L2008.96 1412.65 L2008.96 1414.26 L2025.79 1414.26 L2025.79 1415.37 L2042.62 1415.37 L2042.62 1414.88 L2059.45 1414.88 L2059.45 1413.27 L2076.40 1413.27 L2076.40 1413.52 L2093.23 1413.52 L2093.23 1413.27 L2110.06 1413.27 L2110.06 1413.02 L2126.89 1413.02 L2126.89 1413.76 L2143.72 1413.76 L2143.72 1414.63 L2160.68 1414.63 L2160.68 1416.12 L2177.51 1416.12 L2177.51 1414.75 L2194.34 1414.75 L2194.34 1415.99 L2211.16 1415.99 L2211.16 1416.49 L2227.99 1416.49 L2227.99 1416.86 L2244.82 1416.86 L2244.82 1415.87 L2261.78 1415.87 L2261.78 1414.14 L2278.61 1414.14 L2278.61 1414.88 L2295.44 1414.88 L2295.44 1414.01 L2312.27 1414.01 L2312.27 1415.00 L2329.10 1415.00 L2329.10 1415.62 L2345.93 1415.62 L2345.93 1416.61 L2362.88 1416.61 L2362.88 1417.48 L2379.71 1417.48 L2379.71 1417.97 L2396.54 1417.97 L2396.54 1417.48 L2413.37 1417.48 L2413.37 1418.22 L2430.20 1418.22 L2430.20 1417.72 L2447.16 1417.72 L2447.16 1418.22 L2463.99 1418.22 L2463.99 1417.97 L2480.82 1417.97 L2480.82 1417.60 L2497.65 1417.60 L2497.65 1416.73 L2514.48 1416.73 L2514.48 1416.61 L2531.31 1416.61 L2531.31 1416.12 L2548.26 1416.12 L2548.26 1417.48 L2565.09 1417.48 L2565.09 1414.75 L2581.92 1414.75 L2581.92 1414.14 L2598.75 1414.14 L2598.75 1413.76 L2615.58 1413.76 L2615.58 1413.64 L2632.41 1413.64 L2632.41 1412.65 L2649.36 1412.65 L2649.36 1413.27 L2666.19 1413.27 L2666.19 1411.66 L2683.02 1411.66 L2683.02 1412.53 L2699.85 1412.53 L2699.85 1412.90 L2716.68 1412.90 L2716.68 1411.66 L2733.51 1411.66 L2733.51 1409.93 L2750.47 1409.93 L2750.47 1407.95 L2767.30 1407.95 L2767.30 1408.32 L2784.13 1408.32 L2784.13 1408.32 L2800.96 1408.32 L2800.96 1408.81 L2817.79 1408.81 L2817.79 1409.93 L2834.74 1409.93 L2834.74 1410.42 L2851.57 1410.42 L2851.57 1409.80 L2868.40 1409.80 L2868.40 1410.18 L2885.23 1410.18 L2885.23 1412.03 L2902.06 1412.03 L2902.06 1411.66 L2918.89 1411.66 L2918.89 1411.54 L2935.84 1411.54 L2935.84 1411.04 L2952.68 1411.04 L2952.68 1411.29 L2969.51 1411.29 L2969.51 1412.03 L2986.34 1412.03 L2986.34 1412.16 L3003.16 1412.16 L3003.16 1412.77 L3019.99 1412.77 L3019.99 1413.02 L3036.95 1413.02 L3036.95 1414.14 L3053.78 1414.14 L3053.78 1415.13 L3070.61 1415.13 L3070.61 1414.51 L3087.44 1414.51 L3087.44 1414.75 L3104.27 1414.75 L3104.27 1415.25 L3121.10 1415.25 L3121.10 1415.87 L3138.05 1415.87 L3138.05 1417.60 L3154.88 1417.60 L3154.88 1417.97 L3171.71 1417.97 L3171.71 1418.34 L3188.54 1418.34 L3188.54 1419.09 L3205.37 1419.09 L3205.37 1419.33 L3222.33 1419.33 L3222.33 1419.70 L3239.16 1419.70 L3239.16 1420.08 L3255.99 1420.08 L3255.99 1420.69 L3272.82 1420.69 L3272.82 1419.58 L3289.65 1419.58 L3289.65 1419.21 L3306.48 1419.21 L3306.48 1418.59 L3323.43 1418.59 L3323.43 1419.33 L3340.26 1419.33 L3340.26 1419.21 L3357.09 1419.21 L3357.09 1419.09 L3373.92 1419.09 L3373.92 1419.95 L3390.75 1419.95 L3390.75 1420.82 L3407.58 1420.82 L3407.58 1420.20 L3424.53 1420.20 L3424.53 1420.94 L3441.36 1420.94 L3441.36 1421.31 L3458.19 1421.31 L3458.19 1421.56 L3475.02 1421.56 L3475.02 1421.31 L3491.85 1421.31 L3491.85 1420.32 L3508.81 1420.32 L3508.81 1421.31 L3525.64 1421.31 L3525.64 1420.08 L3542.47 1420.08 L3542.47 1417.35 L3559.30 1417.35 L3559.30 1417.48 L3576.13 1417.48 L3576.13 1418.22 L3592.96 1418.22 L3592.96 1417.85 L3609.91 1417.85 L3609.91 1418.71 L3626.74 1418.71 L3626.74 1418.59 L3643.57 1418.59 L3643.57 1418.96 L3660.40 1418.96 L3660.40 1418.47 L3677.23 1418.47 L3677.23 1419.70 L3694.06 1419.70 L3694.06 1420.69 L3711.01 1420.69 L3711.01 1421.56 L3727.84 1421.56 L3727.84 1419.95 L3744.68 1419.95 L3744.68 1421.31 L3761.51 1421.31 L3761.51 1421.44 L3778.34 1421.44 L3778.34 1420.08 L3795.16 1420.08 L3795.16 1419.09" stroke-linejoin="round" style="fill:none;stroke:#000000;stroke-width:8.64"/>
	<line x1="559.10" y1="2509.23" x2="559.10" y2="419.90" style="stroke:#000000;stroke-width:5.76"/>
	<line x1="559.10" y1="2445.87" x2="519.13" y2="2445.87" style="stroke:#000000;stroke-width:5.76"/>
	<text x="499.08" y="2480.90" style="font-family:'Helvetica';font-size:99.99px;fill:#000000" text-anchor="end">-0.25</text>
	<line x1="559.10" y1="2249.60" x2="519.13" y2="2249.60" style="stroke:#000000;stroke-width:5.76"/>
	<text x="499.08" y="2284.63" style="font-family:'Helvetica';font-size:99.99px;fill:#000000" text-anchor="end">-0.20</text>
	<line x1="559.10" y1="2053.32" x2="519.13" y2="2053.32" style="stroke:#000000;stroke-width:5.76"/>
	<text x="499.08" y="2088.35" style="font-family:'Helvetica';font-size:99.99px;fill:#000000" text-anchor="end">-0.15</text>
	<line x1="559.10" y1="1857.05" x2="519.13" y2="1857.05" style="stroke:#000000;stroke-width:5.76"/>
	<text x="499.08" y="1892.08" style="font-family:'Helvetica';font-size:99.99px;fill:#000000" text-anchor="end">-0.10</text>
	<line x1="559.10" y1="1660.78" x2="519.13" y2="1660.78" style="stroke:#000000;stroke-width:5.76"/>
	<text x="499.08" y="1695.81" style="font-family:'Helvetica';font-size:99.99px;fill:#000000" text-anchor="end">-0.05</text>
	<line x1="559.10" y1="1464.63" x2="519.13" y2="1464.63" style="stroke:#000000;stroke-width:5.76"/>
	<text x="499.08" y="1499.66" style="font-family:'Helvetica';font-size:99.99px;fill:#000000" text-anchor="end">0.00</text>
	<line x1="559.10" y1="1268.35" x2="519.13" y2="1268.35" style="stroke:#000000;stroke-width:5.76"/>
	<text x="499.08" y="1303.38" style="font-family:'Helvetica';font-size:99.99px;fill:#000000" text-anchor="end">0.05</text>
	<line x1="559.10" y1="1072.08" x2="519.13" y2="1072.08" style="stroke:#000000;stroke-width:5.76"/>
	<text x="499.08" y="1107.11" style="font-family:'Helvetica';font-size:99.99px;fill:#000000" text-anchor="end">0.10</text>
	<line x1="559.10" y1="875.81" x2="519.13" y2="875.81" style="stroke:#000000;stroke-width:5.76"/>
	<text x="499.08" y="910.83" style="font-family:'Helvetica';font-size:99.99px;fill:#000000" text-anchor="end">0.15</text>
	<line x1="559.10" y1="679.53" x2="519.13" y2="679.53" style="stroke:#000000;stroke-width:5.76"/>
	<text x="499.08" y="714.56" style="font-family:'Helvetica';font-size:99.99px;fill:#000000" text-anchor="end">0.20</text>
	<line x1="559.10" y1="483.26" x2="519.13" y2="483.26" style="stroke:#000000;stroke-width:5.76"/>
	<text x="499.08" y="518.29" style="font-family:'Helvetica';font-size:99.99px;fill:#000000" text-anchor="end">0.25</text>
	<text x="190.71" y="1464.63" style="font-family:'Helvetica';font-size:99.99px;fill:#000000" transform="rotate(-90 190.71,1464.63)" text-anchor="middle">Difference in Probabilities</text>
	<line x1="559.10" y1="2509.23" x2="3859.02" y2="2509.23" style="stroke:#000000;stroke-width:5.76"/>
	<line x1="622.46" y1="2509.23" x2="622.46" y2="2549.21" style="stroke:#000000;stroke-width:5.76"/>
	<text x="622.46" y="2625.15" style="font-family:'Helvetica';font-size:79.94px;fill:#000000" text-anchor="middle">0</text>
	<line x1="812.91" y1="2509.23" x2="812.91" y2="2549.21" style="stroke:#000000;stroke-width:5.76"/>
	<text x="812.91" y="2625.15" style="font-family:'Helvetica';font-size:79.94px;fill:#000000" text-anchor="middle">.3</text>
	<line x1="1003.24" y1="2509.23" x2="1003.24" y2="2549.21" style="stroke:#000000;stroke-width:5.76"/>
	<text x="1003.24" y="2625.15" style="font-family:'Helvetica';font-size:79.94px;fill:#000000" text-anchor="middle">.6</text>
	<line x1="1193.69" y1="2509.23" x2="1193.69" y2="2549.21" style="stroke:#000000;stroke-width:5.76"/>
	<text x="1193.69" y="2625.15" style="font-family:'Helvetica';font-size:79.94px;fill:#000000" text-anchor="middle">.9</text>
	<line x1="1384.02" y1="2509.23" x2="1384.02" y2="2549.21" style="stroke:#000000;stroke-width:5.76"/>
	<text x="1384.02" y="2625.15" style="font-family:'Helvetica';font-size:79.94px;fill:#000000" text-anchor="middle">1.2</text>
	<line x1="1574.47" y1="2509.23" x2="1574.47" y2="2549.21" style="stroke:#000000;stroke-width:5.76"/>
	<text x="1574.47" y="2625.15" style="font-family:'Helvetica';font-size:79.94px;fill:#000000" text-anchor="middle">1.5</text>
	<line x1="1764.80" y1="2509.23" x2="1764.80" y2="2549.21" style="stroke:#000000;stroke-width:5.76"/>
	<text x="1764.80" y="2625.15" style="font-family:'Helvetica';font-size:79.94px;fill:#000000" text-anchor="middle">1.8</text>
	<line x1="1955.25" y1="2509.23" x2="1955.25" y2="2549.21" style="stroke:#000000;stroke-width:5.76"/>
	<text x="1955.25" y="2625.15" style="font-family:'Helvetica';font-size:79.94px;fill:#000000" text-anchor="middle">2.1</text>
	<line x1="2145.58" y1="2509.23" x2="2145.58" y2="2549.21" style="stroke:#000000;stroke-width:5.76"/>
	<text x="2145.58" y="2625.15" style="font-family:'Helvetica';font-size:79.94px;fill:#000000" text-anchor="middle">2.4</text>
	<line x1="2336.03" y1="2509.23" x2="2336.03" y2="2549.21" style="stroke:#000000;stroke-width:5.76"/>
	<text x="2336.03" y="2625.15" style="font-family:'Helvetica';font-size:79.94px;fill:#000000" text-anchor="middle">2.7</text>
	<line x1="2526.48" y1="2509.23" x2="2526.48" y2="2549.21" style="stroke:#000000;stroke-width:5.76"/>
	<text x="2526.48" y="2625.15" style="font-family:'Helvetica';font-size:79.94px;fill:#000000" text-anchor="middle">3</text>
	<line x1="2716.81" y1="2509.23" x2="2716.81" y2="2549.21" style="stroke:#000000;stroke-width:5.76"/>
	<text x="2716.81" y="2625.15" style="font-family:'Helvetica';font-size:79.94px;fill:#000000" text-anchor="middle">3.3</text>
	<line x1="2907.26" y1="2509.23" x2="2907.26" y2="2549.21" style="stroke:#000000;stroke-width:5.76"/>
	<text x="2907.26" y="2625.15" style="font-family:'Helvetica';font-size:79.94px;fill:#000000" text-anchor="middle">3.6</text>
	<line x1="3097.59" y1="2509.23" x2="3097.59" y2="2549.21" style="stroke:#000000;stroke-width:5.76"/>
	<text x="3097.59" y="2625.15" style="font-family:'Helvetica';font-size:79.94px;fill:#000000" text-anchor="middle">3.9</text>
	<line x1="3288.04" y1="2509.23" x2="3288.04" y2="2549.21" style="stroke:#000000;stroke-width:5.76"/>
	<text x="3288.04" y="2625.15" style="font-family:'Helvetica';font-size:79.94px;fill:#000000" text-anchor="middle">4.2</text>
	<line x1="3478.36" y1="2509.23" x2="3478.36" y2="2549.21" style="stroke:#000000;stroke-width:5.76"/>
	<text x="3478.36" y="2625.15" style="font-family:'Helvetica';font-size:79.94px;fill:#000000" text-anchor="middle">4.5</text>
	<line x1="3668.82" y1="2509.23" x2="3668.82" y2="2549.21" style="stroke:#000000;stroke-width:5.76"/>
	<text x="3668.82" y="2625.15" style="font-family:'Helvetica';font-size:79.94px;fill:#000000" text-anchor="middle">4.8</text>
	<line x1="3859.14" y1="2509.23" x2="3859.14" y2="2549.21" style="stroke:#000000;stroke-width:5.76"/>
	<text x="3859.14" y="2625.15" style="font-family:'Helvetica';font-size:79.94px;fill:#000000" text-anchor="middle">5.1</text>
	<text x="2209.06" y="2729.16" style="font-family:'Helvetica';font-size:99.99px;fill:#000000" text-anchor="middle">Time (years)</text>
	<rect x="593.63" y="454.42" width="993.34" height="326.46" style="fill:#FFFFFF"/>
	<rect x="596.51" y="457.30" width="987.58" height="320.70" style="fill:none;stroke:#000000;stroke-width:5.76"/>
	<rect x="636.82" y="497.74" width="374.47" height="99.99" style="fill:#999999;fill-opacity:0.65"/>
	<rect x="641.14" y="502.06" width="365.83" height="91.35" style="fill:none;stroke:#808080;stroke-opacity:0.65;stroke-width:8.64"/>
	<line x1="636.82" y1="687.70" x2="1011.28" y2="687.70" style="stroke:#000000;stroke-width:8.64"/>
	<text x="1071.30" y="582.76" style="font-family:'Helvetica';font-size:99.99px;fill:#000000">CI95%</text>
	<text x="1071.30" y="722.73" style="font-family:'Helvetica';font-size:99.99px;fill:#000000">Difference</text>
	<text x="2209.06" y="369.63" style="font-family:'Helvetica';font-size:110.01px;fill:#000000" text-anchor="middle">from 2nd Readmission to 3rd Readmission</text>
	<text x="2209.06" y="215.98" style="font-family:'Helvetica';font-size:139.96px;fill:#1E2D53" text-anchor="middle">Difference in Probabilities at 3 years</text>
</svg>
