<?xml version="1.0" encoding="UTF-8" standalone="no"?>
<!-- This is a Stata 16.1 generated SVG file (http://www.stata.com) -->

<svg version="1.1" width="5.50in" height="4.00in" viewBox="0 0 3960 2880" xmlns="http://www.w3.org/2000/svg" xmlns:xlink="http://www.w3.org/1999/xlink">
	<desc>Stata Graph - diff_mod34_tc</desc>
	<rect x="0" y="0" width="3960" height="2880" style="fill:#EAF2F3;stroke:none"/>
	<rect x="0.00" y="0.00" width="3959.88" height="2880.00" style="fill:#FFFFFF"/>
	<rect x="2.88" y="2.88" width="3954.12" height="2874.24" style="fill:none;stroke:#FFFFFF;stroke-width:5.76"/>
	<rect x="559.10" y="419.90" width="3299.92" height="2089.34" style="fill:#FFFFFF"/>
	<rect x="561.98" y="422.78" width="3294.16" height="2083.58" style="fill:none;stroke:#FFFFFF;stroke-width:5.76"/>
	<line x1="559.10" y1="2249.60" x2="3859.02" y2="2249.60" style="stroke:#EAF2F3;stroke-width:8.64"/>
	<line x1="559.10" y1="2053.32" x2="3859.02" y2="2053.32" style="stroke:#EAF2F3;stroke-width:8.64"/>
	<line x1="559.10" y1="1857.05" x2="3859.02" y2="1857.05" style="stroke:#EAF2F3;stroke-width:8.64"/>
	<line x1="559.10" y1="1660.78" x2="3859.02" y2="1660.78" style="stroke:#EAF2F3;stroke-width:8.64"/>
	<line x1="559.10" y1="1464.63" x2="3859.02" y2="1464.63" style="stroke:#EAF2F3;stroke-width:8.64"/>
	<line x1="559.10" y1="1268.35" x2="3859.02" y2="1268.35" style="stroke:#EAF2F3;stroke-width:8.64"/>
	<line x1="559.10" y1="1072.08" x2="3859.02" y2="1072.08" style="stroke:#EAF2F3;stroke-width:8.64"/>
	<line x1="559.10" y1="875.81" x2="3859.02" y2="875.81" style="stroke:#EAF2F3;stroke-width:8.64"/>
	<line x1="559.10" y1="679.53" x2="3859.02" y2="679.53" style="stroke:#EAF2F3;stroke-width:8.64"/>
	<line x1="559.10" y1="1464.63" x2="3859.02" y2="1464.63" style="stroke:#1A476F;stroke-width:8.64"/>
	<defs>
		<path id="path_AnOIlHhO" d="M778.88 1484.68 L778.88 1484.68 L795.71 1484.68 L795.71 1484.18 L812.54 1484.18 L812.54 1484.43 L829.37 1484.43 L829.37 1484.92 L846.20 1484.92 L846.20 1486.90 L863.16 1486.90 L863.16 1490.62 L879.99 1490.62 L879.99 1490.86 L896.82 1490.86 L896.82 1490.74 L913.65 1490.74 L913.65 1495.81 L930.48 1495.81 L930.48 1497.92 L947.31 1497.92 L947.31 1498.41 L964.26 1498.41 L964.26 1501.26 L981.09 1501.26 L981.09 1500.27 L997.92 1500.27 L997.92 1502.00 L1014.75 1502.00 L1014.75 1505.47 L1031.58 1505.47 L1031.58 1506.08 L1048.53 1506.08 L1048.53 1507.57 L1065.36 1507.57 L1065.36 1510.04 L1082.19 1510.04 L1082.19 1509.05 L1099.02 1509.05 L1099.02 1510.79 L1115.85 1510.79 L1115.85 1513.26 L1132.68 1513.26 L1132.68 1512.15 L1149.64 1512.15 L1149.64 1512.52 L1166.47 1512.52 L1166.47 1510.66 L1183.30 1510.66 L1183.30 1511.65 L1200.13 1511.65 L1200.13 1509.80 L1216.96 1509.80 L1216.96 1512.02 L1233.79 1512.02 L1233.79 1515.98 L1250.74 1515.98 L1250.74 1516.36 L1267.57 1516.36 L1267.57 1518.83 L1284.40 1518.83 L1284.40 1519.57 L1301.23 1519.57 L1301.23 1520.32 L1318.06 1520.32 L1318.06 1522.79 L1334.89 1522.79 L1334.89 1525.14 L1351.85 1525.14 L1351.85 1526.26 L1368.67 1526.26 L1368.67 1526.63 L1385.51 1526.63 L1385.51 1526.01 L1402.34 1526.01 L1402.34 1527.99 L1419.16 1527.99 L1419.16 1528.48 L1436.12 1528.48 L1436.12 1528.11 L1452.95 1528.11 L1452.95 1528.73 L1469.78 1528.73 L1469.78 1531.21 L1486.61 1531.21 L1486.61 1531.33 L1503.44 1531.33 L1503.44 1532.57 L1520.27 1532.57 L1520.27 1532.69 L1537.22 1532.69 L1537.22 1534.30 L1554.05 1534.30 L1554.05 1535.29 L1570.88 1535.29 L1570.88 1533.06 L1587.71 1533.06 L1587.71 1532.32 L1604.54 1532.32 L1604.54 1534.05 L1621.37 1534.05 L1621.37 1536.78 L1638.33 1536.78 L1638.33 1538.76 L1655.16 1538.76 L1655.16 1539.75 L1671.99 1539.75 L1671.99 1539.62 L1688.82 1539.62 L1688.82 1541.97 L1705.65 1541.97 L1705.65 1542.22 L1722.48 1542.22 L1722.48 1544.45 L1739.43 1544.45 L1739.43 1546.55 L1756.26 1546.55 L1756.26 1545.69 L1773.09 1545.69 L1773.09 1547.05 L1789.92 1547.05 L1789.92 1547.67 L1806.75 1547.67 L1806.75 1548.53 L1823.70 1548.53 L1823.70 1552.49 L1840.53 1552.49 L1840.53 1554.60 L1857.36 1554.60 L1857.36 1557.32 L1874.19 1557.32 L1874.19 1557.19 L1891.02 1557.19 L1891.02 1554.84 L1907.85 1554.84 L1907.85 1556.20 L1924.81 1556.20 L1924.81 1556.20 L1941.64 1556.20 L1941.64 1555.34 L1958.47 1555.34 L1958.47 1556.58 L1975.30 1556.58 L1975.30 1558.80 L1992.13 1558.80 L1992.13 1559.42 L2008.96 1559.42 L2008.96 1561.40 L2025.91 1561.40 L2025.91 1563.26 L2042.74 1563.26 L2042.74 1563.14 L2059.57 1563.14 L2059.57 1562.64 L2076.40 1562.64 L2076.40 1563.51 L2093.23 1563.51 L2093.23 1563.88 L2110.18 1563.88 L2110.18 1564.00 L2127.01 1564.00 L2127.01 1565.24 L2143.84 1565.24 L2143.84 1567.10 L2160.68 1567.10 L2160.68 1566.60 L2177.51 1566.60 L2177.51 1564.50 L2194.34 1564.50 L2194.34 1563.75 L2211.29 1563.75 L2211.29 1564.25 L2228.12 1564.25 L2228.12 1564.74 L2244.95 1564.74 L2244.95 1567.34 L2261.78 1567.34 L2261.78 1568.21 L2278.61 1568.21 L2278.61 1568.83 L2295.44 1568.83 L2295.44 1569.69 L2312.39 1569.69 L2312.39 1570.44 L2329.22 1570.44 L2329.22 1570.81 L2346.05 1570.81 L2346.05 1570.93 L2362.88 1570.93 L2362.88 1571.80 L2379.71 1571.80 L2379.71 1572.29 L2396.54 1572.29 L2396.54 1572.66 L2413.50 1572.66 L2413.50 1571.55 L2430.33 1571.55 L2430.33 1572.66 L2447.16 1572.66 L2447.16 1572.29 L2463.99 1572.29 L2463.99 1572.91 L2480.82 1572.91 L2480.82 1572.17 L2497.77 1572.17 L2497.77 1574.64 L2514.60 1574.64 L2514.60 1574.40 L2531.43 1574.40 L2531.43 1573.90 L2548.26 1573.90 L2548.26 1574.64 L2565.09 1574.64 L2565.09 1576.01 L2581.92 1576.01 L2581.92 1577.61 L2598.87 1577.61 L2598.87 1578.36 L2615.70 1578.36 L2615.70 1579.84 L2632.53 1579.84 L2632.53 1580.09 L2649.36 1580.09 L2649.36 1581.20 L2666.19 1581.20 L2666.19 1582.07 L2683.02 1582.07 L2683.02 1583.31 L2699.98 1583.31 L2699.98 1584.79 L2716.81 1584.79 L2716.81 1584.30 L2733.64 1584.30 L2733.64 1585.04 L2750.47 1585.04 L2750.47 1583.31 L2767.30 1583.31 L2767.30 1584.79 L2784.25 1584.79 L2784.25 1585.53 L2801.08 1585.53 L2801.08 1584.30 L2817.91 1584.30 L2817.91 1584.42 L2834.74 1584.42 L2834.74 1585.41 L2851.57 1585.41 L2851.57 1584.92 L2868.40 1584.92 L2868.40 1585.78 L2885.36 1585.78 L2885.36 1584.54 L2902.18 1584.54 L2902.18 1586.28 L2919.01 1586.28 L2919.01 1585.78 L2935.84 1585.78 L2935.84 1585.91 L2952.68 1585.91 L2952.68 1586.40 L2969.51 1586.40 L2969.51 1585.16 L2986.46 1585.16 L2986.46 1586.28 L3003.29 1586.28 L3003.29 1586.65 L3020.12 1586.65 L3020.12 1585.41 L3036.95 1585.41 L3036.95 1586.52 L3053.78 1586.52 L3053.78 1587.89 L3070.61 1587.89 L3070.61 1585.91 L3087.56 1585.91 L3087.56 1587.39 L3104.39 1587.39 L3104.39 1588.75 L3121.22 1588.75 L3121.22 1588.26 L3138.05 1588.26 L3138.05 1588.75 L3154.88 1588.75 L3154.88 1588.88 L3171.84 1588.88 L3171.84 1588.38 L3188.67 1588.38 L3188.67 1588.88 L3205.50 1588.88 L3205.50 1589.12 L3222.33 1589.12 L3222.33 1588.75 L3239.16 1588.75 L3239.16 1589.87 L3255.99 1589.87 L3255.99 1590.24 L3272.94 1590.24 L3272.94 1590.86 L3289.77 1590.86 L3289.77 1591.47 L3306.60 1591.47 L3306.60 1592.84 L3323.43 1592.84 L3323.43 1592.96 L3340.26 1592.96 L3340.26 1593.58 L3357.09 1593.58 L3357.09 1594.57 L3374.04 1594.57 L3374.04 1595.68 L3390.87 1595.68 L3390.87 1595.93 L3407.70 1595.93 L3407.70 1597.66 L3424.53 1597.66 L3424.53 1597.17 L3441.36 1597.17 L3441.36 1596.92 L3458.19 1596.92 L3458.19 1596.55 L3475.15 1596.55 L3475.15 1597.79 L3491.98 1597.79 L3491.98 1599.64 L3508.81 1599.64 L3508.81 1600.39 L3525.64 1600.39 L3525.64 1600.14 L3542.47 1600.14 L3542.47 1599.89 L3559.42 1599.89 L3559.42 1598.90 L3576.25 1598.90 L3576.25 1599.39 L3593.08 1599.39 L3593.08 1599.27 L3609.91 1599.27 L3609.91 1599.15 L3626.74 1599.15 L3626.74 1599.02 L3643.57 1599.02 L3643.57 1600.14 L3660.53 1600.14 L3660.53 1600.76 L3677.36 1600.76 L3677.36 1600.39 L3694.18 1600.39 L3694.18 1602.12 L3711.01 1602.12 L3711.01 1601.99 L3727.84 1601.99 L3727.84 1602.49 L3744.68 1602.49 L3744.68 1604.22 L3761.63 1604.22 L3761.63 1605.09 L3778.46 1605.09 L3778.46 1604.10 L3795.29 1604.10 L3795.29 1603.85 L3795.29 1265.01 L3795.29 1265.51 L3778.46 1265.51 L3778.46 1267.12 L3761.63 1267.12 L3761.63 1266.87 L3744.68 1266.87 L3744.68 1265.88 L3727.84 1265.88 L3727.84 1265.88 L3711.01 1265.88 L3711.01 1266.37 L3694.18 1266.37 L3694.18 1265.26 L3677.36 1265.26 L3677.36 1266.00 L3660.53 1266.00 L3660.53 1266.13 L3643.57 1266.13 L3643.57 1265.38 L3626.74 1265.38 L3626.74 1265.88 L3609.91 1265.88 L3609.91 1266.62 L3593.08 1266.62 L3593.08 1266.99 L3576.25 1266.99 L3576.25 1266.87 L3559.42 1266.87 L3559.42 1268.48 L3542.47 1268.48 L3542.47 1269.22 L3525.64 1269.22 L3525.64 1270.09 L3508.81 1270.09 L3508.81 1269.96 L3491.98 1269.96 L3491.98 1268.48 L3475.15 1268.48 L3475.15 1267.61 L3458.19 1267.61 L3458.19 1268.60 L3441.36 1268.60 L3441.36 1269.47 L3424.53 1269.47 L3424.53 1270.46 L3407.70 1270.46 L3407.70 1269.10 L3390.87 1269.10 L3390.87 1269.47 L3374.04 1269.47 L3374.04 1269.10 L3357.09 1269.10 L3357.09 1268.85 L3340.26 1268.85 L3340.26 1268.97 L3323.43 1268.97 L3323.43 1269.47 L3306.60 1269.47 L3306.60 1268.85 L3289.77 1268.85 L3289.77 1268.72 L3272.94 1268.72 L3272.94 1268.72 L3255.99 1268.72 L3255.99 1269.10 L3239.16 1269.10 L3239.16 1268.60 L3222.33 1268.60 L3222.33 1269.71 L3205.50 1269.71 L3205.50 1270.21 L3188.67 1270.21 L3188.67 1270.46 L3171.84 1270.46 L3171.84 1271.57 L3154.88 1271.57 L3154.88 1272.07 L3138.05 1272.07 L3138.05 1272.07 L3121.22 1272.07 L3121.22 1272.81 L3104.39 1272.81 L3104.39 1272.31 L3087.56 1272.31 L3087.56 1271.45 L3070.61 1271.45 L3070.61 1273.80 L3053.78 1273.80 L3053.78 1272.93 L3036.95 1272.93 L3036.95 1272.56 L3020.12 1272.56 L3020.12 1274.54 L3003.29 1274.54 L3003.29 1274.91 L2986.46 1274.91 L2986.46 1274.29 L2969.51 1274.29 L2969.51 1276.03 L2952.68 1276.03 L2952.68 1276.03 L2935.84 1276.03 L2935.84 1276.64 L2919.01 1276.64 L2919.01 1277.63 L2902.18 1277.63 L2902.18 1276.52 L2885.36 1276.52 L2885.36 1278.25 L2868.40 1278.25 L2868.40 1278.01 L2851.57 1278.01 L2851.57 1279.24 L2834.74 1279.24 L2834.74 1278.75 L2817.91 1278.75 L2817.91 1279.00 L2801.08 1279.00 L2801.08 1280.85 L2784.25 1280.85 L2784.25 1280.85 L2767.30 1280.85 L2767.30 1280.23 L2750.47 1280.23 L2750.47 1282.71 L2733.64 1282.71 L2733.64 1282.59 L2716.81 1282.59 L2716.81 1283.58 L2699.98 1283.58 L2699.98 1282.83 L2683.02 1282.83 L2683.02 1282.34 L2666.19 1282.34 L2666.19 1282.34 L2649.36 1282.34 L2649.36 1282.34 L2632.53 1282.34 L2632.53 1282.71 L2615.70 1282.71 L2615.70 1281.84 L2598.87 1281.84 L2598.87 1281.72 L2581.92 1281.72 L2581.92 1280.73 L2565.09 1280.73 L2565.09 1279.99 L2548.26 1279.99 L2548.26 1279.86 L2531.43 1279.86 L2531.43 1281.22 L2514.60 1281.22 L2514.60 1282.46 L2497.77 1282.46 L2497.77 1280.85 L2480.82 1280.85 L2480.82 1282.46 L2463.99 1282.46 L2463.99 1282.71 L2447.16 1282.71 L2447.16 1284.07 L2430.33 1284.07 L2430.33 1283.82 L2413.50 1283.82 L2413.50 1285.56 L2396.54 1285.56 L2396.54 1285.80 L2379.71 1285.80 L2379.71 1286.42 L2362.88 1286.42 L2362.88 1286.42 L2346.05 1286.42 L2346.05 1287.29 L2329.22 1287.29 L2329.22 1287.78 L2312.39 1287.78 L2312.39 1288.03 L2295.44 1288.03 L2295.44 1288.03 L2278.61 1288.03 L2278.61 1288.40 L2261.78 1288.40 L2261.78 1288.40 L2244.95 1288.40 L2244.95 1286.79 L2228.12 1286.79 L2228.12 1287.16 L2211.29 1287.16 L2211.29 1287.41 L2194.34 1287.41 L2194.34 1288.77 L2177.51 1288.77 L2177.51 1291.87 L2160.68 1291.87 L2160.68 1293.23 L2143.84 1293.23 L2143.84 1291.99 L2127.01 1291.99 L2127.01 1291.62 L2110.18 1291.62 L2110.18 1292.36 L2093.23 1292.36 L2093.23 1292.98 L2076.40 1292.98 L2076.40 1293.10 L2059.57 1293.10 L2059.57 1294.71 L2042.74 1294.71 L2042.74 1295.58 L2025.91 1295.58 L2025.91 1294.59 L2008.96 1294.59 L2008.96 1293.72 L1992.13 1293.72 L1992.13 1294.22 L1975.30 1294.22 L1975.30 1292.98 L1958.47 1292.98 L1958.47 1292.61 L1941.64 1292.61 L1941.64 1294.59 L1924.81 1294.59 L1924.81 1295.58 L1907.85 1295.58 L1907.85 1295.58 L1891.02 1295.58 L1891.02 1299.04 L1874.19 1299.04 L1874.19 1300.41 L1857.36 1300.41 L1857.36 1299.04 L1840.53 1299.04 L1840.53 1297.81 L1823.70 1297.81 L1823.70 1294.96 L1806.75 1294.96 L1806.75 1295.21 L1789.92 1295.21 L1789.92 1295.70 L1773.09 1295.70 L1773.09 1295.70 L1756.26 1295.70 L1756.26 1297.44 L1739.43 1297.44 L1739.43 1296.69 L1722.48 1296.69 L1722.48 1295.83 L1705.65 1295.83 L1705.65 1296.82 L1688.82 1296.82 L1688.82 1295.70 L1671.99 1295.70 L1671.99 1297.19 L1655.16 1297.19 L1655.16 1297.56 L1638.33 1297.56 L1638.33 1297.06 L1621.37 1297.06 L1621.37 1295.83 L1604.54 1295.83 L1604.54 1295.83 L1587.71 1295.83 L1587.71 1298.43 L1570.88 1298.43 L1570.88 1301.77 L1554.05 1301.77 L1554.05 1302.26 L1537.22 1302.26 L1537.22 1302.14 L1520.27 1302.14 L1520.27 1303.62 L1503.44 1303.62 L1503.44 1304.61 L1486.61 1304.61 L1486.61 1306.22 L1469.78 1306.22 L1469.78 1305.60 L1452.95 1305.60 L1452.95 1306.84 L1436.12 1306.84 L1436.12 1309.32 L1419.16 1309.32 L1419.16 1310.68 L1402.34 1310.68 L1402.34 1310.80 L1385.51 1310.80 L1385.51 1313.40 L1368.67 1313.40 L1368.67 1315.26 L1351.85 1315.26 L1351.85 1316.25 L1334.89 1316.25 L1334.89 1316.37 L1318.06 1316.37 L1318.06 1316.25 L1301.23 1316.25 L1301.23 1317.98 L1284.40 1317.98 L1284.40 1319.59 L1267.57 1319.59 L1267.57 1319.96 L1250.74 1319.96 L1250.74 1322.06 L1233.79 1322.06 L1233.79 1320.95 L1216.96 1320.95 L1216.96 1321.69 L1200.13 1321.69 L1200.13 1326.39 L1183.30 1326.39 L1183.30 1328.37 L1166.47 1328.37 L1166.47 1333.57 L1149.64 1333.57 L1149.64 1336.42 L1132.68 1336.42 L1132.68 1340.75 L1115.85 1340.75 L1115.85 1341.86 L1099.02 1341.86 L1099.02 1343.72 L1082.19 1343.72 L1082.19 1348.30 L1065.36 1348.30 L1065.36 1349.91 L1048.53 1349.91 L1048.53 1352.38 L1031.58 1352.38 L1031.58 1355.97 L1014.75 1355.97 L1014.75 1356.59 L997.92 1356.59 L997.92 1359.68 L981.09 1359.68 L981.09 1365.75 L964.26 1365.75 L964.26 1367.98 L947.31 1367.98 L947.31 1372.68 L930.48 1372.68 L930.48 1375.90 L913.65 1375.90 L913.65 1376.51 L896.82 1376.51 L896.82 1382.58 L879.99 1382.58 L879.99 1388.52 L863.16 1388.52 L863.16 1391.12 L846.20 1391.12 L846.20 1395.70 L829.37 1395.70 L829.37 1402.13 L812.54 1402.13 L812.54 1408.69 L795.71 1408.69 L795.71 1416.73 L778.88 1416.73 L778.88 1484.68 Z" stroke-linejoin="round"/>
	</defs>
	<defs>
		<clipPath id="clipPath_NyTgxdvt">
			<use xlink:href="#path_AnOIlHhO"/>
		</clipPath>
	</defs>
	<use xlink:href="#path_AnOIlHhO" style="stroke:none;fill:#999999;fill-opacity:0.65"/>
	<use xlink:href="#path_AnOIlHhO" style="fill:none;stroke:#808080;stroke-opacity:0.65;stroke-width:17.28" clip-path="url(#clipPath_NyTgxdvt)"/>
	<path d=" M778.76 1450.77 L795.59 1450.77 L795.59 1446.56 L812.54 1446.56 L812.54 1443.34 L829.37 1443.34 L829.37 1440.37 L846.20 1440.37 L846.20 1439.01 L863.03 1439.01 L863.03 1439.63 L879.86 1439.63 L879.86 1436.78 L896.69 1436.78 L896.69 1433.69 L913.65 1433.69 L913.65 1435.92 L930.48 1435.92 L930.48 1435.30 L947.31 1435.30 L947.31 1433.19 L964.14 1433.19 L964.14 1433.56 L980.97 1433.56 L980.97 1430.10 L997.80 1430.10 L997.80 1429.36 L1014.75 1429.36 L1014.75 1430.72 L1031.58 1430.72 L1031.58 1429.23 L1048.41 1429.23 L1048.41 1428.86 L1065.24 1428.86 L1065.24 1429.23 L1082.07 1429.23 L1082.07 1426.51 L1099.02 1426.51 L1099.02 1426.39 L1115.85 1426.39 L1115.85 1427.13 L1132.68 1427.13 L1132.68 1424.41 L1149.51 1424.41 L1149.51 1423.05 L1166.34 1423.05 L1166.34 1419.58 L1183.17 1419.58 L1183.17 1419.09 L1200.13 1419.09 L1200.13 1415.74 L1216.96 1415.74 L1216.96 1416.61 L1233.79 1416.61 L1233.79 1419.09 L1250.62 1419.09 L1250.62 1418.22 L1267.45 1418.22 L1267.45 1419.21 L1284.28 1419.21 L1284.28 1418.84 L1301.23 1418.84 L1301.23 1418.34 L1318.06 1418.34 L1318.06 1419.58 L1334.89 1419.58 L1334.89 1420.69 L1351.72 1420.69 L1351.72 1420.82 L1368.55 1420.82 L1368.55 1420.08 L1385.51 1420.08 L1385.51 1418.47 L1402.34 1418.47 L1402.34 1419.33 L1419.16 1419.33 L1419.16 1418.96 L1435.99 1418.96 L1435.99 1417.48 L1452.83 1417.48 L1452.83 1417.11 L1469.65 1417.11 L1469.65 1418.71 L1486.61 1418.71 L1486.61 1417.97 L1503.44 1417.97 L1503.44 1418.22 L1520.27 1418.22 L1520.27 1417.48 L1537.10 1417.48 L1537.10 1418.22 L1553.93 1418.22 L1553.93 1418.59 L1570.76 1418.59 L1570.76 1415.74 L1587.71 1415.74 L1587.71 1414.14 L1604.54 1414.14 L1604.54 1415.00 L1621.37 1415.00 L1621.37 1416.98 L1638.20 1416.98 L1638.20 1418.10 L1655.03 1418.10 L1655.03 1418.47 L1671.86 1418.47 L1671.86 1417.60 L1688.82 1417.60 L1688.82 1419.46 L1705.65 1419.46 L1705.65 1419.09 L1722.48 1419.09 L1722.48 1420.57 L1739.31 1420.57 L1739.31 1422.06 L1756.14 1422.06 L1756.14 1420.69 L1773.09 1420.69 L1773.09 1421.44 L1789.92 1421.44 L1789.92 1421.44 L1806.75 1421.44 L1806.75 1421.68 L1823.58 1421.68 L1823.58 1425.15 L1840.41 1425.15 L1840.41 1426.88 L1857.24 1426.88 L1857.24 1428.86 L1874.19 1428.86 L1874.19 1428.12 L1891.02 1428.12 L1891.02 1425.27 L1907.85 1425.27 L1907.85 1425.89 L1924.68 1425.89 L1924.68 1425.40 L1941.51 1425.40 L1941.51 1423.91 L1958.34 1423.91 L1958.34 1424.78 L1975.30 1424.78 L1975.30 1426.51 L1992.13 1426.51 L1992.13 1426.63 L2008.96 1426.63 L2008.96 1428.00 L2025.79 1428.00 L2025.79 1429.48 L2042.62 1429.48 L2042.62 1428.99 L2059.45 1428.99 L2059.45 1427.87 L2076.40 1427.87 L2076.40 1428.24 L2093.23 1428.24 L2093.23 1428.12 L2110.06 1428.12 L2110.06 1427.87 L2126.89 1427.87 L2126.89 1428.61 L2143.72 1428.61 L2143.72 1430.22 L2160.68 1430.22 L2160.68 1429.23 L2177.51 1429.23 L2177.51 1426.63 L2194.34 1426.63 L2194.34 1425.52 L2211.16 1425.52 L2211.16 1425.77 L2227.99 1425.77 L2227.99 1425.77 L2244.82 1425.77 L2244.82 1427.87 L2261.78 1427.87 L2261.78 1428.24 L2278.61 1428.24 L2278.61 1428.49 L2295.44 1428.49 L2295.44 1428.86 L2312.27 1428.86 L2312.27 1429.11 L2329.10 1429.11 L2329.10 1429.11 L2345.93 1429.11 L2345.93 1428.74 L2362.88 1428.74 L2362.88 1429.11 L2379.71 1429.11 L2379.71 1429.11 L2396.54 1429.11 L2396.54 1429.11 L2413.37 1429.11 L2413.37 1427.75 L2430.20 1427.75 L2430.20 1428.37 L2447.16 1428.37 L2447.16 1427.50 L2463.99 1427.50 L2463.99 1427.75 L2480.82 1427.75 L2480.82 1426.51 L2497.65 1426.51 L2497.65 1428.61 L2514.48 1428.61 L2514.48 1427.87 L2531.31 1427.87 L2531.31 1426.88 L2548.26 1426.88 L2548.26 1427.25 L2565.09 1427.25 L2565.09 1428.37 L2581.92 1428.37 L2581.92 1429.73 L2598.75 1429.73 L2598.75 1430.10 L2615.58 1430.10 L2615.58 1431.21 L2632.41 1431.21 L2632.41 1431.21 L2649.36 1431.21 L2649.36 1431.83 L2666.19 1431.83 L2666.19 1432.20 L2683.02 1432.20 L2683.02 1433.07 L2699.85 1433.07 L2699.85 1434.31 L2716.68 1434.31 L2716.68 1433.44 L2733.51 1433.44 L2733.51 1433.94 L2750.47 1433.94 L2750.47 1431.83 L2767.30 1431.83 L2767.30 1432.82 L2784.13 1432.82 L2784.13 1433.19 L2800.96 1433.19 L2800.96 1431.58 L2817.79 1431.58 L2817.79 1431.58 L2834.74 1431.58 L2834.74 1432.33 L2851.57 1432.33 L2851.57 1431.46 L2868.40 1431.46 L2868.40 1431.96 L2885.23 1431.96 L2885.23 1430.47 L2902.06 1430.47 L2902.06 1431.96 L2918.89 1431.96 L2918.89 1431.21 L2935.84 1431.21 L2935.84 1430.97 L2952.68 1430.97 L2952.68 1431.21 L2969.51 1431.21 L2969.51 1429.73 L2986.34 1429.73 L2986.34 1430.59 L3003.16 1430.59 L3003.16 1430.59 L3019.99 1430.59 L3019.99 1428.99 L3036.95 1428.99 L3036.95 1429.73 L3053.78 1429.73 L3053.78 1430.84 L3070.61 1430.84 L3070.61 1428.61 L3087.44 1428.61 L3087.44 1429.85 L3104.27 1429.85 L3104.27 1430.84 L3121.10 1430.84 L3121.10 1430.22 L3138.05 1430.22 L3138.05 1430.35 L3154.88 1430.35 L3154.88 1430.22 L3171.71 1430.22 L3171.71 1429.36 L3188.54 1429.36 L3188.54 1429.60 L3205.37 1429.60 L3205.37 1429.48 L3222.33 1429.48 L3222.33 1428.74 L3239.16 1428.74 L3239.16 1429.48 L3255.99 1429.48 L3255.99 1429.60 L3272.82 1429.60 L3272.82 1429.85 L3289.65 1429.85 L3289.65 1430.22 L3306.48 1430.22 L3306.48 1431.09 L3323.43 1431.09 L3323.43 1430.97 L3340.26 1430.97 L3340.26 1431.21 L3357.09 1431.21 L3357.09 1431.83 L3373.92 1431.83 L3373.92 1432.57 L3390.75 1432.57 L3390.75 1432.57 L3407.58 1432.57 L3407.58 1434.06 L3424.53 1434.06 L3424.53 1433.32 L3441.36 1433.32 L3441.36 1432.82 L3458.19 1432.82 L3458.19 1432.08 L3475.02 1432.08 L3475.02 1433.07 L3491.85 1433.07 L3491.85 1434.80 L3508.81 1434.80 L3508.81 1435.30 L3525.64 1435.30 L3525.64 1434.68 L3542.47 1434.68 L3542.47 1434.18 L3559.30 1434.18 L3559.30 1432.82 L3576.13 1432.82 L3576.13 1433.19 L3592.96 1433.19 L3592.96 1432.95 L3609.91 1432.95 L3609.91 1432.57 L3626.74 1432.57 L3626.74 1432.20 L3643.57 1432.20 L3643.57 1433.19 L3660.40 1433.19 L3660.40 1433.32 L3677.23 1433.32 L3677.23 1432.82 L3694.06 1432.82 L3694.06 1434.31 L3711.01 1434.31 L3711.01 1433.94 L3727.84 1433.94 L3727.84 1434.18 L3744.68 1434.18 L3744.68 1435.54 L3761.51 1435.54 L3761.51 1436.04 L3778.34 1436.04 L3778.34 1434.80 L3795.16 1434.80 L3795.16 1434.43" stroke-linejoin="round" style="fill:none;stroke:#000000;stroke-width:8.64"/>
	<line x1="559.10" y1="2509.23" x2="559.10" y2="419.90" style="stroke:#000000;stroke-width:5.76"/>
	<line x1="559.10" y1="2445.87" x2="519.13" y2="2445.87" style="stroke:#000000;stroke-width:5.76"/>
	<text x="499.08" y="2480.90" style="font-family:'Helvetica';font-size:99.99px;fill:#000000" text-anchor="end">-0.25</text>
	<line x1="559.10" y1="2249.60" x2="519.13" y2="2249.60" style="stroke:#000000;stroke-width:5.76"/>
	<text x="499.08" y="2284.63" style="font-family:'Helvetica';font-size:99.99px;fill:#000000" text-anchor="end">-0.20</text>
	<line x1="559.10" y1="2053.32" x2="519.13" y2="2053.32" style="stroke:#000000;stroke-width:5.76"/>
	<text x="499.08" y="2088.35" style="font-family:'Helvetica';font-size:99.99px;fill:#000000" text-anchor="end">-0.15</text>
	<line x1="559.10" y1="1857.05" x2="519.13" y2="1857.05" style="stroke:#000000;stroke-width:5.76"/>
	<text x="499.08" y="1892.08" style="font-family:'Helvetica';font-size:99.99px;fill:#000000" text-anchor="end">-0.10</text>
	<line x1="559.10" y1="1660.78" x2="519.13" y2="1660.78" style="stroke:#000000;stroke-width:5.76"/>
	<text x="499.08" y="1695.81" style="font-family:'Helvetica';font-size:99.99px;fill:#000000" text-anchor="end">-0.05</text>
	<line x1="559.10" y1="1464.63" x2="519.13" y2="1464.63" style="stroke:#000000;stroke-width:5.76"/>
	<text x="499.08" y="1499.66" style="font-family:'Helvetica';font-size:99.99px;fill:#000000" text-anchor="end">0.00</text>
	<line x1="559.10" y1="1268.35" x2="519.13" y2="1268.35" style="stroke:#000000;stroke-width:5.76"/>
	<text x="499.08" y="1303.38" style="font-family:'Helvetica';font-size:99.99px;fill:#000000" text-anchor="end">0.05</text>
	<line x1="559.10" y1="1072.08" x2="519.13" y2="1072.08" style="stroke:#000000;stroke-width:5.76"/>
	<text x="499.08" y="1107.11" style="font-family:'Helvetica';font-size:99.99px;fill:#000000" text-anchor="end">0.10</text>
	<line x1="559.10" y1="875.81" x2="519.13" y2="875.81" style="stroke:#000000;stroke-width:5.76"/>
	<text x="499.08" y="910.83" style="font-family:'Helvetica';font-size:99.99px;fill:#000000" text-anchor="end">0.15</text>
	<line x1="559.10" y1="679.53" x2="519.13" y2="679.53" style="stroke:#000000;stroke-width:5.76"/>
	<text x="499.08" y="714.56" style="font-family:'Helvetica';font-size:99.99px;fill:#000000" text-anchor="end">0.20</text>
	<line x1="559.10" y1="483.26" x2="519.13" y2="483.26" style="stroke:#000000;stroke-width:5.76"/>
	<text x="499.08" y="518.29" style="font-family:'Helvetica';font-size:99.99px;fill:#000000" text-anchor="end">0.25</text>
	<text x="190.71" y="1464.63" style="font-family:'Helvetica';font-size:99.99px;fill:#000000" transform="rotate(-90 190.71,1464.63)" text-anchor="middle">Difference in Probabilities</text>
	<line x1="559.10" y1="2509.23" x2="3859.02" y2="2509.23" style="stroke:#000000;stroke-width:5.76"/>
	<line x1="622.46" y1="2509.23" x2="622.46" y2="2549.21" style="stroke:#000000;stroke-width:5.76"/>
	<text x="622.46" y="2625.15" style="font-family:'Helvetica';font-size:79.94px;fill:#000000" text-anchor="middle">0</text>
	<line x1="812.91" y1="2509.23" x2="812.91" y2="2549.21" style="stroke:#000000;stroke-width:5.76"/>
	<text x="812.91" y="2625.15" style="font-family:'Helvetica';font-size:79.94px;fill:#000000" text-anchor="middle">.3</text>
	<line x1="1003.24" y1="2509.23" x2="1003.24" y2="2549.21" style="stroke:#000000;stroke-width:5.76"/>
	<text x="1003.24" y="2625.15" style="font-family:'Helvetica';font-size:79.94px;fill:#000000" text-anchor="middle">.6</text>
	<line x1="1193.69" y1="2509.23" x2="1193.69" y2="2549.21" style="stroke:#000000;stroke-width:5.76"/>
	<text x="1193.69" y="2625.15" style="font-family:'Helvetica';font-size:79.94px;fill:#000000" text-anchor="middle">.9</text>
	<line x1="1384.02" y1="2509.23" x2="1384.02" y2="2549.21" style="stroke:#000000;stroke-width:5.76"/>
	<text x="1384.02" y="2625.15" style="font-family:'Helvetica';font-size:79.94px;fill:#000000" text-anchor="middle">1.2</text>
	<line x1="1574.47" y1="2509.23" x2="1574.47" y2="2549.21" style="stroke:#000000;stroke-width:5.76"/>
	<text x="1574.47" y="2625.15" style="font-family:'Helvetica';font-size:79.94px;fill:#000000" text-anchor="middle">1.5</text>
	<line x1="1764.80" y1="2509.23" x2="1764.80" y2="2549.21" style="stroke:#000000;stroke-width:5.76"/>
	<text x="1764.80" y="2625.15" style="font-family:'Helvetica';font-size:79.94px;fill:#000000" text-anchor="middle">1.8</text>
	<line x1="1955.25" y1="2509.23" x2="1955.25" y2="2549.21" style="stroke:#000000;stroke-width:5.76"/>
	<text x="1955.25" y="2625.15" style="font-family:'Helvetica';font-size:79.94px;fill:#000000" text-anchor="middle">2.1</text>
	<line x1="2145.58" y1="2509.23" x2="2145.58" y2="2549.21" style="stroke:#000000;stroke-width:5.76"/>
	<text x="2145.58" y="2625.15" style="font-family:'Helvetica';font-size:79.94px;fill:#000000" text-anchor="middle">2.4</text>
	<line x1="2336.03" y1="2509.23" x2="2336.03" y2="2549.21" style="stroke:#000000;stroke-width:5.76"/>
	<text x="2336.03" y="2625.15" style="font-family:'Helvetica';font-size:79.94px;fill:#000000" text-anchor="middle">2.7</text>
	<line x1="2526.48" y1="2509.23" x2="2526.48" y2="2549.21" style="stroke:#000000;stroke-width:5.76"/>
	<text x="2526.48" y="2625.15" style="font-family:'Helvetica';font-size:79.94px;fill:#000000" text-anchor="middle">3</text>
	<line x1="2716.81" y1="2509.23" x2="2716.81" y2="2549.21" style="stroke:#000000;stroke-width:5.76"/>
	<text x="2716.81" y="2625.15" style="font-family:'Helvetica';font-size:79.94px;fill:#000000" text-anchor="middle">3.3</text>
	<line x1="2907.26" y1="2509.23" x2="2907.26" y2="2549.21" style="stroke:#000000;stroke-width:5.76"/>
	<text x="2907.26" y="2625.15" style="font-family:'Helvetica';font-size:79.94px;fill:#000000" text-anchor="middle">3.6</text>
	<line x1="3097.59" y1="2509.23" x2="3097.59" y2="2549.21" style="stroke:#000000;stroke-width:5.76"/>
	<text x="3097.59" y="2625.15" style="font-family:'Helvetica';font-size:79.94px;fill:#000000" text-anchor="middle">3.9</text>
	<line x1="3288.04" y1="2509.23" x2="3288.04" y2="2549.21" style="stroke:#000000;stroke-width:5.76"/>
	<text x="3288.04" y="2625.15" style="font-family:'Helvetica';font-size:79.94px;fill:#000000" text-anchor="middle">4.2</text>
	<line x1="3478.36" y1="2509.23" x2="3478.36" y2="2549.21" style="stroke:#000000;stroke-width:5.76"/>
	<text x="3478.36" y="2625.15" style="font-family:'Helvetica';font-size:79.94px;fill:#000000" text-anchor="middle">4.5</text>
	<line x1="3668.82" y1="2509.23" x2="3668.82" y2="2549.21" style="stroke:#000000;stroke-width:5.76"/>
	<text x="3668.82" y="2625.15" style="font-family:'Helvetica';font-size:79.94px;fill:#000000" text-anchor="middle">4.8</text>
	<line x1="3859.14" y1="2509.23" x2="3859.14" y2="2549.21" style="stroke:#000000;stroke-width:5.76"/>
	<text x="3859.14" y="2625.15" style="font-family:'Helvetica';font-size:79.94px;fill:#000000" text-anchor="middle">5.1</text>
	<text x="2209.06" y="2729.16" style="font-family:'Helvetica';font-size:99.99px;fill:#000000" text-anchor="middle">Time (years)</text>
	<rect x="593.63" y="454.42" width="993.34" height="326.46" style="fill:#FFFFFF"/>
	<rect x="596.51" y="457.30" width="987.58" height="320.70" style="fill:none;stroke:#000000;stroke-width:5.76"/>
	<rect x="636.82" y="497.74" width="374.47" height="99.99" style="fill:#999999;fill-opacity:0.65"/>
	<rect x="641.14" y="502.06" width="365.83" height="91.35" style="fill:none;stroke:#808080;stroke-opacity:0.65;stroke-width:8.64"/>
	<line x1="636.82" y1="687.70" x2="1011.28" y2="687.70" style="stroke:#000000;stroke-width:8.64"/>
	<text x="1071.30" y="582.76" style="font-family:'Helvetica';font-size:99.99px;fill:#000000">CI95%</text>
	<text x="1071.30" y="722.73" style="font-family:'Helvetica';font-size:99.99px;fill:#000000">Difference</text>
	<text x="2209.06" y="369.63" style="font-family:'Helvetica';font-size:110.01px;fill:#000000" text-anchor="middle">from 2nd Readmission to 3rd Readmission</text>
	<text x="2209.06" y="215.98" style="font-family:'Helvetica';font-size:139.96px;fill:#1E2D53" text-anchor="middle">Difference in Probabilities</text>
</svg>
