<?xml version="1.0" encoding="UTF-8" standalone="no"?>
<!-- This is a Stata 16.1 generated SVG file (http://www.stata.com) -->

<svg version="1.1" width="5.50in" height="4.00in" viewBox="0 0 3960 2880" xmlns="http://www.w3.org/2000/svg" xmlns:xlink="http://www.w3.org/1999/xlink">
	<desc>Stata Graph - diff_mod45_rp_tc</desc>
	<rect x="0" y="0" width="3960" height="2880" style="fill:#EAF2F3;stroke:none"/>
	<rect x="0.00" y="0.00" width="3959.88" height="2880.00" style="fill:#FFFFFF"/>
	<rect x="2.88" y="2.88" width="3954.12" height="2874.24" style="fill:none;stroke:#FFFFFF;stroke-width:5.76"/>
	<rect x="559.10" y="419.90" width="3299.92" height="2089.34" style="fill:#FFFFFF"/>
	<rect x="561.98" y="422.78" width="3294.16" height="2083.58" style="fill:none;stroke:#FFFFFF;stroke-width:5.76"/>
	<line x1="559.10" y1="2249.60" x2="3859.02" y2="2249.60" style="stroke:#EAF2F3;stroke-width:8.64"/>
	<line x1="559.10" y1="2053.32" x2="3859.02" y2="2053.32" style="stroke:#EAF2F3;stroke-width:8.64"/>
	<line x1="559.10" y1="1857.05" x2="3859.02" y2="1857.05" style="stroke:#EAF2F3;stroke-width:8.64"/>
	<line x1="559.10" y1="1660.78" x2="3859.02" y2="1660.78" style="stroke:#EAF2F3;stroke-width:8.64"/>
	<line x1="559.10" y1="1464.63" x2="3859.02" y2="1464.63" style="stroke:#EAF2F3;stroke-width:8.64"/>
	<line x1="559.10" y1="1268.35" x2="3859.02" y2="1268.35" style="stroke:#EAF2F3;stroke-width:8.64"/>
	<line x1="559.10" y1="1072.08" x2="3859.02" y2="1072.08" style="stroke:#EAF2F3;stroke-width:8.64"/>
	<line x1="559.10" y1="875.81" x2="3859.02" y2="875.81" style="stroke:#EAF2F3;stroke-width:8.64"/>
	<line x1="559.10" y1="679.53" x2="3859.02" y2="679.53" style="stroke:#EAF2F3;stroke-width:8.64"/>
	<line x1="559.10" y1="1464.63" x2="3859.02" y2="1464.63" style="stroke:#1A476F;stroke-width:8.64"/>
	<defs>
		<path id="path_BvjwNRKs" d="M778.76 1500.27 L778.76 1500.27 L795.59 1500.27 L795.59 1504.23 L812.54 1504.23 L812.54 1508.31 L829.37 1508.31 L829.37 1514.99 L846.20 1514.99 L846.20 1519.94 L863.03 1519.94 L863.03 1523.91 L879.86 1523.91 L879.86 1531.21 L896.82 1531.21 L896.82 1535.04 L913.65 1535.04 L913.65 1539.37 L930.48 1539.37 L930.48 1544.45 L947.31 1544.45 L947.31 1547.54 L964.14 1547.54 L964.14 1552.86 L981.09 1552.86 L981.09 1557.81 L997.92 1557.81 L997.92 1562.02 L1014.75 1562.02 L1014.75 1568.33 L1031.58 1568.33 L1031.58 1570.56 L1048.41 1570.56 L1048.41 1577.37 L1065.36 1577.37 L1065.36 1584.30 L1082.19 1584.30 L1082.19 1588.88 L1099.02 1588.88 L1099.02 1594.20 L1115.85 1594.20 L1115.85 1599.89 L1132.68 1599.89 L1132.68 1605.34 L1149.64 1605.34 L1149.64 1611.15 L1166.47 1611.15 L1166.47 1616.84 L1183.30 1616.84 L1183.30 1623.90 L1200.13 1623.90 L1200.13 1629.47 L1216.96 1629.47 L1216.96 1634.66 L1233.91 1634.66 L1233.91 1639.37 L1250.74 1639.37 L1250.74 1644.69 L1267.57 1644.69 L1267.57 1650.13 L1284.40 1650.13 L1284.40 1653.48 L1301.23 1653.48 L1301.23 1661.15 L1318.18 1661.15 L1318.18 1665.60 L1335.02 1665.60 L1335.02 1669.56 L1351.85 1669.56 L1351.85 1672.16 L1368.67 1672.16 L1368.67 1677.36 L1385.51 1677.36 L1385.51 1678.47 L1402.34 1678.47 L1402.34 1681.32 L1419.29 1681.32 L1419.29 1681.32 L1436.12 1681.32 L1436.12 1685.28 L1452.95 1685.28 L1452.95 1689.24 L1469.78 1689.24 L1469.78 1693.08 L1486.61 1693.08 L1486.61 1697.90 L1503.56 1697.90 L1503.56 1703.60 L1520.39 1703.60 L1520.39 1708.42 L1537.22 1708.42 L1537.22 1711.89 L1554.05 1711.89 L1554.05 1714.24 L1570.88 1714.24 L1570.88 1717.46 L1587.84 1717.46 L1587.84 1720.67 L1604.67 1720.67 L1604.67 1722.16 L1621.50 1722.16 L1621.50 1723.89 L1638.33 1723.89 L1638.33 1725.75 L1655.16 1725.75 L1655.16 1727.11 L1672.11 1727.11 L1672.11 1729.58 L1688.94 1729.58 L1688.94 1731.69 L1705.77 1731.69 L1705.77 1732.68 L1722.60 1732.68 L1722.60 1734.66 L1739.43 1734.66 L1739.43 1737.26 L1756.38 1737.26 L1756.38 1738.62 L1773.21 1738.62 L1773.21 1739.61 L1790.04 1739.61 L1790.04 1740.60 L1806.87 1740.60 L1806.87 1741.71 L1823.70 1741.71 L1823.70 1744.19 L1840.66 1744.19 L1840.66 1748.64 L1857.49 1748.64 L1857.49 1750.13 L1874.32 1750.13 L1874.32 1750.75 L1891.15 1750.75 L1891.15 1751.86 L1907.98 1751.86 L1907.98 1752.35 L1924.93 1752.35 L1924.93 1754.09 L1941.76 1754.09 L1941.76 1755.82 L1958.59 1755.82 L1958.59 1757.30 L1975.42 1757.30 L1975.42 1758.54 L1992.25 1758.54 L1992.25 1759.41 L2009.20 1759.41 L2009.20 1760.03 L2026.04 1760.03 L2026.04 1760.28 L2042.87 1760.28 L2042.87 1760.52 L2059.70 1760.52 L2059.70 1762.63 L2076.53 1762.63 L2076.53 1765.84 L2093.48 1765.84 L2093.48 1766.96 L2110.31 1766.96 L2110.31 1768.94 L2127.14 1768.94 L2127.14 1770.05 L2143.97 1770.05 L2143.97 1770.92 L2160.80 1770.92 L2160.80 1773.27 L2177.75 1773.27 L2177.75 1773.64 L2194.58 1773.64 L2194.58 1774.75 L2211.41 1774.75 L2211.41 1773.89 L2228.24 1773.89 L2228.24 1773.76 L2245.07 1773.76 L2245.07 1774.51 L2262.03 1774.51 L2262.03 1773.76 L2278.86 1773.76 L2278.86 1773.89 L2295.69 1773.89 L2295.69 1773.64 L2312.52 1773.64 L2312.52 1773.76 L2329.35 1773.76 L2329.35 1774.14 L2346.30 1774.14 L2346.30 1774.14 L2363.13 1774.14 L2363.13 1775.25 L2379.96 1775.25 L2379.96 1776.61 L2396.79 1776.61 L2396.79 1777.72 L2413.62 1777.72 L2413.62 1776.98 L2430.57 1776.98 L2430.57 1778.22 L2447.40 1778.22 L2447.40 1778.59 L2464.23 1778.59 L2464.23 1778.96 L2481.06 1778.96 L2481.06 1779.70 L2497.89 1779.70 L2497.89 1779.21 L2514.85 1779.21 L2514.85 1780.08 L2531.68 1780.08 L2531.68 1781.19 L2548.51 1781.19 L2548.51 1781.68 L2565.34 1781.68 L2565.34 1782.67 L2582.17 1782.67 L2582.17 1782.43 L2599.00 1782.43 L2599.00 1782.92 L2615.95 1782.92 L2615.95 1783.66 L2632.78 1783.66 L2632.78 1785.15 L2649.61 1785.15 L2649.61 1785.52 L2666.44 1785.52 L2666.44 1785.27 L2683.27 1785.27 L2683.27 1786.14 L2700.22 1786.14 L2700.22 1786.26 L2717.05 1786.26 L2717.05 1787.75 L2733.89 1787.75 L2733.89 1788.86 L2750.72 1788.86 L2750.72 1788.49 L2767.55 1788.49 L2767.55 1788.49 L2784.50 1788.49 L2784.50 1789.48 L2801.33 1789.48 L2801.33 1790.72 L2818.16 1790.72 L2818.16 1791.34 L2834.99 1791.34 L2834.99 1792.57 L2851.82 1792.57 L2851.82 1793.94 L2868.77 1793.94 L2868.77 1794.31 L2885.60 1794.31 L2885.60 1795.05 L2902.43 1795.05 L2902.43 1794.93 L2919.26 1794.93 L2919.26 1795.67 L2936.09 1795.67 L2936.09 1795.67 L2953.05 1795.67 L2953.05 1796.04 L2969.88 1796.04 L2969.88 1796.29 L2986.71 1796.29 L2986.71 1795.17 L3003.54 1795.17 L3003.54 1795.67 L3020.37 1795.67 L3020.37 1796.16 L3037.32 1796.16 L3037.32 1796.41 L3054.15 1796.41 L3054.15 1796.78 L3070.98 1796.78 L3070.98 1795.42 L3087.81 1795.42 L3087.81 1795.05 L3104.64 1795.05 L3104.64 1795.17 L3121.59 1795.17 L3121.59 1796.04 L3138.42 1796.04 L3138.42 1794.68 L3155.25 1794.68 L3155.25 1794.93 L3172.08 1794.93 L3172.08 1795.79 L3188.91 1795.79 L3188.91 1795.54 L3205.87 1795.54 L3205.87 1795.30 L3222.70 1795.30 L3222.70 1794.06 L3239.53 1794.06 L3239.53 1794.80 L3256.36 1794.80 L3256.36 1795.05 L3273.19 1795.05 L3273.19 1796.04 L3290.14 1796.04 L3290.14 1796.29 L3306.97 1796.29 L3306.97 1796.29 L3323.80 1796.29 L3323.80 1796.41 L3340.63 1796.41 L3340.63 1796.78 L3357.46 1796.78 L3357.46 1797.15 L3374.41 1797.15 L3374.41 1797.40 L3391.24 1797.40 L3391.24 1798.14 L3408.07 1798.14 L3408.07 1798.64 L3424.91 1798.64 L3424.91 1799.13 L3441.74 1799.13 L3441.74 1798.64 L3458.69 1798.64 L3458.69 1799.01 L3475.52 1799.01 L3475.52 1799.50 L3492.35 1799.50 L3492.35 1800.25 L3509.18 1800.25 L3509.18 1800.37 L3526.01 1800.37 L3526.01 1799.63 L3542.96 1799.63 L3542.96 1800.37 L3559.79 1800.37 L3559.79 1800.87 L3576.62 1800.87 L3576.62 1800.99 L3593.45 1800.99 L3593.45 1801.61 L3610.28 1801.61 L3610.28 1801.98 L3627.24 1801.98 L3627.24 1801.36 L3644.07 1801.36 L3644.07 1802.48 L3660.90 1802.48 L3660.90 1802.85 L3677.73 1802.85 L3677.73 1803.59 L3694.56 1803.59 L3694.56 1803.71 L3711.51 1803.71 L3711.51 1803.84 L3728.34 1803.84 L3728.34 1803.96 L3745.17 1803.96 L3745.17 1804.58 L3762.00 1804.58 L3762.00 1805.57 L3778.83 1805.57 L3778.83 1804.21 L3795.66 1804.21 L3795.66 1804.08 L3795.66 1060.82 L3795.66 1061.31 L3778.83 1061.31 L3778.83 1062.92 L3762.00 1062.92 L3762.00 1062.43 L3745.17 1062.43 L3745.17 1062.06 L3728.34 1062.06 L3728.34 1062.30 L3711.51 1062.30 L3711.51 1062.67 L3694.56 1062.67 L3694.56 1062.92 L3677.73 1062.92 L3677.73 1062.55 L3660.90 1062.55 L3660.90 1062.55 L3644.07 1062.55 L3644.07 1061.81 L3627.24 1061.81 L3627.24 1062.67 L3610.28 1062.67 L3610.28 1062.92 L3593.45 1062.92 L3593.45 1062.43 L3576.62 1062.43 L3576.62 1062.67 L3559.79 1062.67 L3559.79 1062.67 L3542.96 1062.67 L3542.96 1062.43 L3526.01 1062.43 L3526.01 1063.54 L3509.18 1063.54 L3509.18 1063.91 L3492.35 1063.91 L3492.35 1063.42 L3475.52 1063.42 L3475.52 1063.54 L3458.69 1063.54 L3458.69 1063.54 L3441.74 1063.54 L3441.74 1064.65 L3424.91 1064.65 L3424.91 1064.65 L3408.07 1064.65 L3408.07 1064.53 L3391.24 1064.53 L3391.24 1064.28 L3374.41 1064.28 L3374.41 1064.41 L3357.46 1064.41 L3357.46 1064.53 L3340.63 1064.53 L3340.63 1064.65 L3323.80 1064.65 L3323.80 1065.15 L3306.97 1065.15 L3306.97 1065.64 L3290.14 1065.64 L3290.14 1065.89 L3273.19 1065.89 L3273.19 1065.40 L3256.36 1065.40 L3256.36 1065.64 L3239.53 1065.64 L3239.53 1065.40 L3222.70 1065.40 L3222.70 1067.25 L3205.87 1067.25 L3205.87 1068.00 L3188.91 1068.00 L3188.91 1068.74 L3172.08 1068.74 L3172.08 1068.49 L3155.25 1068.49 L3155.25 1068.99 L3138.42 1068.99 L3138.42 1070.97 L3121.59 1070.97 L3121.59 1070.59 L3104.64 1070.59 L3104.64 1071.09 L3087.81 1071.09 L3087.81 1071.96 L3070.98 1071.96 L3070.98 1074.18 L3054.15 1074.18 L3054.15 1074.55 L3037.32 1074.55 L3037.32 1074.93 L3020.37 1074.93 L3020.37 1075.30 L3003.54 1075.30 L3003.54 1075.54 L2986.71 1075.54 L2986.71 1077.28 L2969.88 1077.28 L2969.88 1077.90 L2953.05 1077.90 L2953.05 1078.39 L2936.09 1078.39 L2936.09 1079.26 L2919.26 1079.26 L2919.26 1079.50 L2902.43 1079.50 L2902.43 1080.50 L2885.60 1080.50 L2885.60 1080.74 L2868.77 1080.74 L2868.77 1081.24 L2851.82 1081.24 L2851.82 1080.74 L2834.99 1080.74 L2834.99 1080.25 L2818.16 1080.25 L2818.16 1080.62 L2801.33 1080.62 L2801.33 1080.25 L2784.50 1080.25 L2784.50 1080.00 L2767.55 1080.00 L2767.55 1080.99 L2750.72 1080.99 L2750.72 1082.23 L2733.89 1082.23 L2733.89 1082.10 L2717.05 1082.10 L2717.05 1081.61 L2700.22 1081.61 L2700.22 1082.48 L2683.27 1082.48 L2683.27 1082.60 L2666.44 1082.60 L2666.44 1084.08 L2649.61 1084.08 L2649.61 1084.58 L2632.78 1084.58 L2632.78 1084.21 L2615.95 1084.21 L2615.95 1084.58 L2599.00 1084.58 L2599.00 1085.45 L2582.17 1085.45 L2582.17 1086.81 L2565.34 1086.81 L2565.34 1087.18 L2548.51 1087.18 L2548.51 1087.92 L2531.68 1087.92 L2531.68 1088.04 L2514.85 1088.04 L2514.85 1088.42 L2497.89 1088.42 L2497.89 1090.40 L2481.06 1090.40 L2481.06 1091.01 L2464.23 1091.01 L2464.23 1092.00 L2447.40 1092.00 L2447.40 1093.12 L2430.57 1093.12 L2430.57 1093.49 L2413.62 1093.49 L2413.62 1095.59 L2396.79 1095.59 L2396.79 1095.96 L2379.96 1095.96 L2379.96 1096.09 L2363.13 1096.09 L2363.13 1096.83 L2346.30 1096.83 L2346.30 1098.32 L2329.35 1098.32 L2329.35 1099.80 L2312.52 1099.80 L2312.52 1101.66 L2295.69 1101.66 L2295.69 1103.64 L2278.86 1103.64 L2278.86 1105.37 L2262.03 1105.37 L2262.03 1108.22 L2245.07 1108.22 L2245.07 1109.45 L2228.24 1109.45 L2228.24 1111.56 L2211.41 1111.56 L2211.41 1114.53 L2194.58 1114.53 L2194.58 1115.39 L2177.75 1115.39 L2177.75 1117.25 L2160.80 1117.25 L2160.80 1117.25 L2143.97 1117.25 L2143.97 1118.49 L2127.14 1118.49 L2127.14 1119.97 L2110.31 1119.97 L2110.31 1120.47 L2093.48 1120.47 L2093.48 1122.08 L2076.53 1122.08 L2076.53 1121.33 L2059.70 1121.33 L2059.70 1121.83 L2042.87 1121.83 L2042.87 1124.43 L2026.04 1124.43 L2026.04 1126.90 L2009.20 1126.90 L2009.20 1129.13 L1992.25 1129.13 L1992.25 1131.48 L1975.42 1131.48 L1975.42 1133.09 L1958.59 1133.09 L1958.59 1134.82 L1941.76 1134.82 L1941.76 1136.18 L1924.93 1136.18 L1924.93 1137.92 L1907.98 1137.92 L1907.98 1140.64 L1891.15 1140.64 L1891.15 1143.11 L1874.32 1143.11 L1874.32 1145.96 L1857.49 1145.96 L1857.49 1148.19 L1840.66 1148.19 L1840.66 1147.45 L1823.70 1147.45 L1823.70 1148.93 L1806.87 1148.93 L1806.87 1152.02 L1790.04 1152.02 L1790.04 1155.37 L1773.21 1155.37 L1773.21 1158.83 L1756.38 1158.83 L1756.38 1162.05 L1739.43 1162.05 L1739.43 1164.15 L1722.60 1164.15 L1722.60 1166.88 L1705.77 1166.88 L1705.77 1170.84 L1688.94 1170.84 L1688.94 1173.68 L1672.11 1173.68 L1672.11 1176.65 L1655.16 1176.65 L1655.16 1180.74 L1638.33 1180.74 L1638.33 1184.70 L1621.50 1184.70 L1621.50 1188.66 L1604.67 1188.66 L1604.67 1193.23 L1587.84 1193.23 L1587.84 1196.20 L1570.88 1196.20 L1570.88 1199.42 L1554.05 1199.42 L1554.05 1203.38 L1537.22 1203.38 L1537.22 1206.60 L1520.39 1206.60 L1520.39 1208.46 L1503.56 1208.46 L1503.56 1210.07 L1486.61 1210.07 L1486.61 1212.42 L1469.78 1212.42 L1469.78 1215.88 L1452.95 1215.88 L1452.95 1219.59 L1436.12 1219.59 L1436.12 1223.43 L1419.29 1223.43 L1419.29 1230.98 L1402.34 1230.98 L1402.34 1236.42 L1385.51 1236.42 L1385.51 1243.60 L1368.67 1243.60 L1368.67 1246.82 L1351.85 1246.82 L1351.85 1252.76 L1335.02 1252.76 L1335.02 1257.83 L1318.18 1257.83 L1318.18 1262.54 L1301.23 1262.54 L1301.23 1264.15 L1284.40 1264.15 L1284.40 1270.58 L1267.57 1270.58 L1267.57 1274.91 L1250.74 1274.91 L1250.74 1279.61 L1233.91 1279.61 L1233.91 1284.69 L1216.96 1284.69 L1216.96 1289.39 L1200.13 1289.39 L1200.13 1294.09 L1183.30 1294.09 L1183.30 1297.56 L1166.47 1297.56 L1166.47 1302.14 L1149.64 1302.14 L1149.64 1307.34 L1132.68 1307.34 L1132.68 1312.78 L1115.85 1312.78 L1115.85 1317.48 L1099.02 1317.48 L1099.02 1323.30 L1082.19 1323.30 L1082.19 1329.36 L1065.36 1329.36 L1065.36 1332.95 L1048.41 1332.95 L1048.41 1337.04 L1031.58 1337.04 L1031.58 1345.45 L1014.75 1345.45 L1014.75 1350.15 L997.92 1350.15 L997.92 1357.08 L981.09 1357.08 L981.09 1363.27 L964.14 1363.27 L964.14 1368.72 L947.31 1368.72 L947.31 1376.76 L930.48 1376.76 L930.48 1382.45 L913.65 1382.45 L913.65 1388.89 L896.82 1388.89 L896.82 1395.94 L879.86 1395.94 L879.86 1399.04 L863.03 1399.04 L863.03 1405.84 L846.20 1405.84 L846.20 1411.04 L829.37 1411.04 L829.37 1414.63 L812.54 1414.63 L812.54 1420.32 L795.59 1420.32 L795.59 1426.26 L778.76 1426.26 L778.76 1500.27 Z" stroke-linejoin="round"/>
	</defs>
	<defs>
		<clipPath id="clipPath_xGzcqkKu">
			<use xlink:href="#path_BvjwNRKs"/>
		</clipPath>
	</defs>
	<use xlink:href="#path_BvjwNRKs" style="stroke:none;fill:#999999;fill-opacity:0.65"/>
	<use xlink:href="#path_BvjwNRKs" style="fill:none;stroke:#808080;stroke-opacity:0.65;stroke-width:17.28" clip-path="url(#clipPath_xGzcqkKu)"/>
	<path d=" M778.76 1463.39 L795.59 1463.39 L795.59 1462.28 L812.42 1462.28 L812.42 1461.53 L829.25 1461.53 L829.25 1463.02 L846.08 1463.02 L846.08 1462.89 L863.03 1462.89 L863.03 1461.53 L879.86 1461.53 L879.86 1463.64 L896.69 1463.64 L896.69 1462.03 L913.52 1462.03 L913.52 1461.04 L930.35 1461.04 L930.35 1460.67 L947.31 1460.67 L947.31 1458.19 L964.14 1458.19 L964.14 1458.07 L980.97 1458.07 L980.97 1457.57 L997.80 1457.57 L997.80 1456.21 L1014.63 1456.21 L1014.63 1456.95 L1031.58 1456.95 L1031.58 1453.86 L1048.41 1453.86 L1048.41 1455.22 L1065.24 1455.22 L1065.24 1456.95 L1082.07 1456.95 L1082.07 1456.09 L1098.90 1456.09 L1098.90 1455.96 L1115.85 1455.96 L1115.85 1456.34 L1132.68 1456.34 L1132.68 1456.34 L1149.51 1456.34 L1149.51 1456.71 L1166.34 1456.71 L1166.34 1457.20 L1183.17 1457.20 L1183.17 1459.06 L1200.13 1459.06 L1200.13 1459.43 L1216.96 1459.43 L1216.96 1459.68 L1233.79 1459.68 L1233.79 1459.55 L1250.62 1459.55 L1250.62 1459.80 L1267.45 1459.80 L1267.45 1460.42 L1284.40 1460.42 L1284.40 1458.81 L1301.23 1458.81 L1301.23 1461.90 L1318.06 1461.90 L1318.06 1461.78 L1334.89 1461.78 L1334.89 1461.29 L1351.72 1461.29 L1351.72 1459.55 L1368.67 1459.55 L1368.67 1460.42 L1385.51 1460.42 L1385.51 1457.45 L1402.34 1457.45 L1402.34 1456.21 L1419.16 1456.21 L1419.16 1452.38 L1435.99 1452.38 L1435.99 1452.50 L1452.95 1452.50 L1452.95 1452.62 L1469.78 1452.62 L1469.78 1452.75 L1486.61 1452.75 L1486.61 1453.98 L1503.44 1453.98 L1503.44 1456.09 L1520.27 1456.09 L1520.27 1457.57 L1537.22 1457.57 L1537.22 1457.70 L1554.05 1457.70 L1554.05 1456.95 L1570.88 1456.95 L1570.88 1456.83 L1587.71 1456.83 L1587.71 1456.95 L1604.54 1456.95 L1604.54 1455.47 L1621.50 1455.47 L1621.50 1454.36 L1638.33 1454.36 L1638.33 1453.24 L1655.16 1453.24 L1655.16 1451.88 L1671.99 1451.88 L1671.99 1451.63 L1688.82 1451.63 L1688.82 1451.26 L1705.77 1451.26 L1705.77 1449.78 L1722.60 1449.78 L1722.60 1449.41 L1739.43 1449.41 L1739.43 1449.65 L1756.26 1449.65 L1756.26 1448.66 L1773.09 1448.66 L1773.09 1447.43 L1790.04 1447.43 L1790.04 1446.19 L1806.87 1446.19 L1806.87 1445.20 L1823.70 1445.20 L1823.70 1445.82 L1840.53 1445.82 L1840.53 1448.42 L1857.36 1448.42 L1857.36 1448.04 L1874.32 1448.04 L1874.32 1446.93 L1891.15 1446.93 L1891.15 1446.19 L1907.98 1446.19 L1907.98 1445.07 L1924.81 1445.07 L1924.81 1445.07 L1941.64 1445.07 L1941.64 1445.32 L1958.59 1445.32 L1958.59 1445.20 L1975.42 1445.20 L1975.42 1444.95 L1992.25 1444.95 L1992.25 1444.21 L2009.08 1444.21 L2009.08 1443.34 L2025.91 1443.34 L2025.91 1442.23 L2042.74 1442.23 L2042.74 1440.99 L2059.70 1440.99 L2059.70 1441.86 L2076.53 1441.86 L2076.53 1443.96 L2093.36 1443.96 L2093.36 1443.59 L2110.18 1443.59 L2110.18 1444.33 L2127.01 1444.33 L2127.01 1444.21 L2143.97 1444.21 L2143.97 1443.96 L2160.80 1443.96 L2160.80 1445.20 L2177.63 1445.20 L2177.63 1444.46 L2194.46 1444.46 L2194.46 1444.58 L2211.29 1444.58 L2211.29 1442.60 L2228.24 1442.60 L2228.24 1441.49 L2245.07 1441.49 L2245.07 1441.24 L2261.90 1441.24 L2261.90 1439.38 L2278.73 1439.38 L2278.73 1438.64 L2295.56 1438.64 L2295.56 1437.52 L2312.52 1437.52 L2312.52 1436.66 L2329.35 1436.66 L2329.35 1436.04 L2346.18 1436.04 L2346.18 1435.30 L2363.01 1435.30 L2363.01 1435.54 L2379.84 1435.54 L2379.84 1436.04 L2396.79 1436.04 L2396.79 1436.53 L2413.62 1436.53 L2413.62 1435.05 L2430.45 1435.05 L2430.45 1435.42 L2447.28 1435.42 L2447.28 1435.17 L2464.11 1435.17 L2464.11 1434.80 L2481.06 1434.80 L2481.06 1434.80 L2497.89 1434.80 L2497.89 1433.56 L2514.72 1433.56 L2514.72 1433.94 L2531.55 1433.94 L2531.55 1434.43 L2548.38 1434.43 L2548.38 1434.31 L2565.34 1434.31 L2565.34 1434.55 L2582.17 1434.55 L2582.17 1433.69 L2599.00 1433.69 L2599.00 1433.56 L2615.83 1433.56 L2615.83 1433.81 L2632.66 1433.81 L2632.66 1434.68 L2649.61 1434.68 L2649.61 1434.55 L2666.44 1434.55 L2666.44 1433.69 L2683.27 1433.69 L2683.27 1434.18 L2700.10 1434.18 L2700.10 1433.69 L2716.93 1433.69 L2716.93 1434.80 L2733.89 1434.80 L2733.89 1435.30 L2750.72 1435.30 L2750.72 1434.55 L2767.55 1434.55 L2767.55 1434.06 L2784.38 1434.06 L2784.38 1434.68 L2801.20 1434.68 L2801.20 1435.54 L2818.16 1435.54 L2818.16 1435.54 L2834.99 1435.54 L2834.99 1436.41 L2851.82 1436.41 L2851.82 1437.40 L2868.65 1437.40 L2868.65 1437.40 L2885.48 1437.40 L2885.48 1437.65 L2902.43 1437.65 L2902.43 1437.03 L2919.26 1437.03 L2919.26 1437.28 L2936.09 1437.28 L2936.09 1436.91 L2952.92 1436.91 L2952.92 1436.78 L2969.75 1436.78 L2969.75 1436.66 L2986.71 1436.66 L2986.71 1435.17 L3003.54 1435.17 L3003.54 1435.30 L3020.37 1435.30 L3020.37 1435.30 L3037.20 1435.30 L3037.20 1435.30 L3054.03 1435.30 L3054.03 1435.30 L3070.98 1435.30 L3070.98 1433.56 L3087.81 1433.56 L3087.81 1432.95 L3104.64 1432.95 L3104.64 1432.70 L3121.47 1432.70 L3121.47 1433.32 L3138.30 1433.32 L3138.30 1431.58 L3155.13 1431.58 L3155.13 1431.46 L3172.08 1431.46 L3172.08 1431.96 L3188.91 1431.96 L3188.91 1431.58 L3205.74 1431.58 L3205.74 1431.09 L3222.57 1431.09 L3222.57 1429.48 L3239.40 1429.48 L3239.40 1429.98 L3256.36 1429.98 L3256.36 1429.98 L3273.19 1429.98 L3273.19 1430.72 L3290.02 1430.72 L3290.02 1430.72 L3306.85 1430.72 L3306.85 1430.47 L3323.68 1430.47 L3323.68 1430.35 L3340.63 1430.35 L3340.63 1430.47 L3357.46 1430.47 L3357.46 1430.59 L3374.29 1430.59 L3374.29 1430.59 L3391.12 1430.59 L3391.12 1431.09 L3407.95 1431.09 L3407.95 1431.46 L3424.91 1431.46 L3424.91 1431.71 L3441.74 1431.71 L3441.74 1430.84 L3458.57 1430.84 L3458.57 1431.09 L3475.39 1431.09 L3475.39 1431.21 L3492.22 1431.21 L3492.22 1431.83 L3509.18 1431.83 L3509.18 1431.71 L3526.01 1431.71 L3526.01 1430.84 L3542.84 1430.84 L3542.84 1431.21 L3559.67 1431.21 L3559.67 1431.58 L3576.50 1431.58 L3576.50 1431.46 L3593.45 1431.46 L3593.45 1431.96 L3610.28 1431.96 L3610.28 1432.08 L3627.11 1432.08 L3627.11 1431.34 L3643.94 1431.34 L3643.94 1432.20 L3660.77 1432.20 L3660.77 1432.57 L3677.73 1432.57 L3677.73 1433.07 L3694.56 1433.07 L3694.56 1432.95 L3711.39 1432.95 L3711.39 1432.82 L3728.22 1432.82 L3728.22 1432.82 L3745.05 1432.82 L3745.05 1433.32 L3762.00 1433.32 L3762.00 1434.06 L3778.83 1434.06 L3778.83 1432.57 L3795.66 1432.57 L3795.66 1432.20" stroke-linejoin="round" style="fill:none;stroke:#000000;stroke-width:8.64"/>
	<line x1="559.10" y1="2509.23" x2="559.10" y2="419.90" style="stroke:#000000;stroke-width:5.76"/>
	<line x1="559.10" y1="2445.87" x2="519.13" y2="2445.87" style="stroke:#000000;stroke-width:5.76"/>
	<text x="499.08" y="2480.90" style="font-family:'Helvetica';font-size:99.99px;fill:#000000" text-anchor="end">-0.25</text>
	<line x1="559.10" y1="2249.60" x2="519.13" y2="2249.60" style="stroke:#000000;stroke-width:5.76"/>
	<text x="499.08" y="2284.63" style="font-family:'Helvetica';font-size:99.99px;fill:#000000" text-anchor="end">-0.20</text>
	<line x1="559.10" y1="2053.32" x2="519.13" y2="2053.32" style="stroke:#000000;stroke-width:5.76"/>
	<text x="499.08" y="2088.35" style="font-family:'Helvetica';font-size:99.99px;fill:#000000" text-anchor="end">-0.15</text>
	<line x1="559.10" y1="1857.05" x2="519.13" y2="1857.05" style="stroke:#000000;stroke-width:5.76"/>
	<text x="499.08" y="1892.08" style="font-family:'Helvetica';font-size:99.99px;fill:#000000" text-anchor="end">-0.10</text>
	<line x1="559.10" y1="1660.78" x2="519.13" y2="1660.78" style="stroke:#000000;stroke-width:5.76"/>
	<text x="499.08" y="1695.81" style="font-family:'Helvetica';font-size:99.99px;fill:#000000" text-anchor="end">-0.05</text>
	<line x1="559.10" y1="1464.63" x2="519.13" y2="1464.63" style="stroke:#000000;stroke-width:5.76"/>
	<text x="499.08" y="1499.66" style="font-family:'Helvetica';font-size:99.99px;fill:#000000" text-anchor="end">0.00</text>
	<line x1="559.10" y1="1268.35" x2="519.13" y2="1268.35" style="stroke:#000000;stroke-width:5.76"/>
	<text x="499.08" y="1303.38" style="font-family:'Helvetica';font-size:99.99px;fill:#000000" text-anchor="end">0.05</text>
	<line x1="559.10" y1="1072.08" x2="519.13" y2="1072.08" style="stroke:#000000;stroke-width:5.76"/>
	<text x="499.08" y="1107.11" style="font-family:'Helvetica';font-size:99.99px;fill:#000000" text-anchor="end">0.10</text>
	<line x1="559.10" y1="875.81" x2="519.13" y2="875.81" style="stroke:#000000;stroke-width:5.76"/>
	<text x="499.08" y="910.83" style="font-family:'Helvetica';font-size:99.99px;fill:#000000" text-anchor="end">0.15</text>
	<line x1="559.10" y1="679.53" x2="519.13" y2="679.53" style="stroke:#000000;stroke-width:5.76"/>
	<text x="499.08" y="714.56" style="font-family:'Helvetica';font-size:99.99px;fill:#000000" text-anchor="end">0.20</text>
	<line x1="559.10" y1="483.26" x2="519.13" y2="483.26" style="stroke:#000000;stroke-width:5.76"/>
	<text x="499.08" y="518.29" style="font-family:'Helvetica';font-size:99.99px;fill:#000000" text-anchor="end">0.25</text>
	<text x="190.71" y="1464.63" style="font-family:'Helvetica';font-size:99.99px;fill:#000000" transform="rotate(-90 190.71,1464.63)" text-anchor="middle">Difference in Probabilities</text>
	<line x1="559.10" y1="2509.23" x2="3859.02" y2="2509.23" style="stroke:#000000;stroke-width:5.76"/>
	<line x1="622.46" y1="2509.23" x2="622.46" y2="2549.21" style="stroke:#000000;stroke-width:5.76"/>
	<text x="622.46" y="2625.15" style="font-family:'Helvetica';font-size:79.94px;fill:#000000" text-anchor="middle">0</text>
	<line x1="812.79" y1="2509.23" x2="812.79" y2="2549.21" style="stroke:#000000;stroke-width:5.76"/>
	<text x="812.79" y="2625.15" style="font-family:'Helvetica';font-size:79.94px;fill:#000000" text-anchor="middle">.3</text>
	<line x1="1003.12" y1="2509.23" x2="1003.12" y2="2549.21" style="stroke:#000000;stroke-width:5.76"/>
	<text x="1003.12" y="2625.15" style="font-family:'Helvetica';font-size:79.94px;fill:#000000" text-anchor="middle">.6</text>
	<line x1="1193.44" y1="2509.23" x2="1193.44" y2="2549.21" style="stroke:#000000;stroke-width:5.76"/>
	<text x="1193.44" y="2625.15" style="font-family:'Helvetica';font-size:79.94px;fill:#000000" text-anchor="middle">.9</text>
	<line x1="1383.77" y1="2509.23" x2="1383.77" y2="2549.21" style="stroke:#000000;stroke-width:5.76"/>
	<text x="1383.77" y="2625.15" style="font-family:'Helvetica';font-size:79.94px;fill:#000000" text-anchor="middle">1.2</text>
	<line x1="1574.10" y1="2509.23" x2="1574.10" y2="2549.21" style="stroke:#000000;stroke-width:5.76"/>
	<text x="1574.10" y="2625.15" style="font-family:'Helvetica';font-size:79.94px;fill:#000000" text-anchor="middle">1.5</text>
	<line x1="1764.43" y1="2509.23" x2="1764.43" y2="2549.21" style="stroke:#000000;stroke-width:5.76"/>
	<text x="1764.43" y="2625.15" style="font-family:'Helvetica';font-size:79.94px;fill:#000000" text-anchor="middle">1.8</text>
	<line x1="1954.63" y1="2509.23" x2="1954.63" y2="2549.21" style="stroke:#000000;stroke-width:5.76"/>
	<text x="1954.63" y="2625.15" style="font-family:'Helvetica';font-size:79.94px;fill:#000000" text-anchor="middle">2.1</text>
	<line x1="2144.96" y1="2509.23" x2="2144.96" y2="2549.21" style="stroke:#000000;stroke-width:5.76"/>
	<text x="2144.96" y="2625.15" style="font-family:'Helvetica';font-size:79.94px;fill:#000000" text-anchor="middle">2.4</text>
	<line x1="2335.29" y1="2509.23" x2="2335.29" y2="2549.21" style="stroke:#000000;stroke-width:5.76"/>
	<text x="2335.29" y="2625.15" style="font-family:'Helvetica';font-size:79.94px;fill:#000000" text-anchor="middle">2.7</text>
	<line x1="2525.61" y1="2509.23" x2="2525.61" y2="2549.21" style="stroke:#000000;stroke-width:5.76"/>
	<text x="2525.61" y="2625.15" style="font-family:'Helvetica';font-size:79.94px;fill:#000000" text-anchor="middle">3</text>
	<line x1="2715.94" y1="2509.23" x2="2715.94" y2="2549.21" style="stroke:#000000;stroke-width:5.76"/>
	<text x="2715.94" y="2625.15" style="font-family:'Helvetica';font-size:79.94px;fill:#000000" text-anchor="middle">3.3</text>
	<line x1="2906.27" y1="2509.23" x2="2906.27" y2="2549.21" style="stroke:#000000;stroke-width:5.76"/>
	<text x="2906.27" y="2625.15" style="font-family:'Helvetica';font-size:79.94px;fill:#000000" text-anchor="middle">3.6</text>
	<line x1="3096.60" y1="2509.23" x2="3096.60" y2="2549.21" style="stroke:#000000;stroke-width:5.76"/>
	<text x="3096.60" y="2625.15" style="font-family:'Helvetica';font-size:79.94px;fill:#000000" text-anchor="middle">3.9</text>
	<line x1="3286.92" y1="2509.23" x2="3286.92" y2="2549.21" style="stroke:#000000;stroke-width:5.76"/>
	<text x="3286.92" y="2625.15" style="font-family:'Helvetica';font-size:79.94px;fill:#000000" text-anchor="middle">4.2</text>
	<line x1="3477.25" y1="2509.23" x2="3477.25" y2="2549.21" style="stroke:#000000;stroke-width:5.76"/>
	<text x="3477.25" y="2625.15" style="font-family:'Helvetica';font-size:79.94px;fill:#000000" text-anchor="middle">4.5</text>
	<line x1="3667.58" y1="2509.23" x2="3667.58" y2="2549.21" style="stroke:#000000;stroke-width:5.76"/>
	<text x="3667.58" y="2625.15" style="font-family:'Helvetica';font-size:79.94px;fill:#000000" text-anchor="middle">4.8</text>
	<line x1="3857.91" y1="2509.23" x2="3857.91" y2="2549.21" style="stroke:#000000;stroke-width:5.76"/>
	<text x="3857.91" y="2625.15" style="font-family:'Helvetica';font-size:79.94px;fill:#000000" text-anchor="middle">5.1</text>
	<text x="2209.06" y="2729.16" style="font-family:'Helvetica';font-size:99.99px;fill:#000000" text-anchor="middle">Time (years)</text>
	<rect x="593.63" y="454.42" width="993.34" height="326.46" style="fill:#FFFFFF"/>
	<rect x="596.51" y="457.30" width="987.58" height="320.70" style="fill:none;stroke:#000000;stroke-width:5.76"/>
	<rect x="636.82" y="497.74" width="374.47" height="99.99" style="fill:#999999;fill-opacity:0.65"/>
	<rect x="641.14" y="502.06" width="365.83" height="91.35" style="fill:none;stroke:#808080;stroke-opacity:0.65;stroke-width:8.64"/>
	<line x1="636.82" y1="687.70" x2="1011.28" y2="687.70" style="stroke:#000000;stroke-width:8.64"/>
	<text x="1071.30" y="582.76" style="font-family:'Helvetica';font-size:99.99px;fill:#000000">CI95%</text>
	<text x="1071.30" y="722.73" style="font-family:'Helvetica';font-size:99.99px;fill:#000000">Difference</text>
	<text x="2209.06" y="369.63" style="font-family:'Helvetica';font-size:110.01px;fill:#000000" text-anchor="middle">from 3rd Readmission to 4th Readmission</text>
	<text x="2209.06" y="215.98" style="font-family:'Helvetica';font-size:139.96px;fill:#1E2D53" text-anchor="middle">Difference in Probabilities (RP)</text>
</svg>
