<?xml version="1.0" encoding="UTF-8" standalone="no"?>
<!-- This is a Stata 16.1 generated SVG file (http://www.stata.com) -->

<svg version="1.1" width="5.50in" height="4.00in" viewBox="0 0 3960 2880" xmlns="http://www.w3.org/2000/svg" xmlns:xlink="http://www.w3.org/1999/xlink">
	<desc>Stata Graph - diff_mod23_tc</desc>
	<rect x="0" y="0" width="3960" height="2880" style="fill:#EAF2F3;stroke:none"/>
	<rect x="0.00" y="0.00" width="3959.88" height="2880.00" style="fill:#FFFFFF"/>
	<rect x="2.88" y="2.88" width="3954.12" height="2874.24" style="fill:none;stroke:#FFFFFF;stroke-width:5.76"/>
	<rect x="559.10" y="419.90" width="3299.92" height="2089.34" style="fill:#FFFFFF"/>
	<rect x="561.98" y="422.78" width="3294.16" height="2083.58" style="fill:none;stroke:#FFFFFF;stroke-width:5.76"/>
	<line x1="559.10" y1="2249.60" x2="3859.02" y2="2249.60" style="stroke:#EAF2F3;stroke-width:8.64"/>
	<line x1="559.10" y1="2053.32" x2="3859.02" y2="2053.32" style="stroke:#EAF2F3;stroke-width:8.64"/>
	<line x1="559.10" y1="1857.05" x2="3859.02" y2="1857.05" style="stroke:#EAF2F3;stroke-width:8.64"/>
	<line x1="559.10" y1="1660.78" x2="3859.02" y2="1660.78" style="stroke:#EAF2F3;stroke-width:8.64"/>
	<line x1="559.10" y1="1464.63" x2="3859.02" y2="1464.63" style="stroke:#EAF2F3;stroke-width:8.64"/>
	<line x1="559.10" y1="1268.35" x2="3859.02" y2="1268.35" style="stroke:#EAF2F3;stroke-width:8.64"/>
	<line x1="559.10" y1="1072.08" x2="3859.02" y2="1072.08" style="stroke:#EAF2F3;stroke-width:8.64"/>
	<line x1="559.10" y1="875.81" x2="3859.02" y2="875.81" style="stroke:#EAF2F3;stroke-width:8.64"/>
	<line x1="559.10" y1="679.53" x2="3859.02" y2="679.53" style="stroke:#EAF2F3;stroke-width:8.64"/>
	<line x1="559.10" y1="1464.63" x2="3859.02" y2="1464.63" style="stroke:#1A476F;stroke-width:8.64"/>
	<defs>
		<path id="path_xoKyKvRK" d="M778.88 1479.85 L778.88 1479.85 L795.71 1479.85 L795.71 1480.47 L812.54 1480.47 L812.54 1481.95 L829.37 1481.95 L829.37 1483.07 L846.20 1483.07 L846.20 1485.54 L863.16 1485.54 L863.16 1486.90 L879.99 1486.90 L879.99 1487.03 L896.82 1487.03 L896.82 1491.48 L913.65 1491.48 L913.65 1491.48 L930.48 1491.48 L930.48 1492.97 L947.31 1492.97 L947.31 1494.95 L964.26 1494.95 L964.26 1494.20 L981.09 1494.20 L981.09 1494.70 L997.92 1494.70 L997.92 1494.70 L1014.75 1494.70 L1014.75 1496.18 L1031.58 1496.18 L1031.58 1496.31 L1048.53 1496.31 L1048.53 1496.31 L1065.36 1496.31 L1065.36 1499.15 L1082.19 1499.15 L1082.19 1500.64 L1099.02 1500.64 L1099.02 1499.90 L1115.85 1499.90 L1115.85 1502.00 L1132.68 1502.00 L1132.68 1503.73 L1149.64 1503.73 L1149.64 1504.10 L1166.47 1504.10 L1166.47 1503.36 L1183.30 1503.36 L1183.30 1506.21 L1200.13 1506.21 L1200.13 1510.29 L1216.96 1510.29 L1216.96 1511.28 L1233.79 1511.28 L1233.79 1513.01 L1250.74 1513.01 L1250.74 1514.13 L1267.57 1514.13 L1267.57 1514.38 L1284.40 1514.38 L1284.40 1514.50 L1301.23 1514.50 L1301.23 1515.74 L1318.06 1515.74 L1318.06 1517.47 L1334.89 1517.47 L1334.89 1520.19 L1351.85 1520.19 L1351.85 1520.19 L1368.67 1520.19 L1368.67 1521.06 L1385.51 1521.06 L1385.51 1520.94 L1402.34 1520.94 L1402.34 1522.79 L1419.16 1522.79 L1419.16 1523.16 L1436.12 1523.16 L1436.12 1523.16 L1452.95 1523.16 L1452.95 1525.27 L1469.78 1525.27 L1469.78 1526.50 L1486.61 1526.50 L1486.61 1526.13 L1503.44 1526.13 L1503.44 1526.38 L1520.27 1526.38 L1520.27 1526.50 L1537.22 1526.50 L1537.22 1525.39 L1554.05 1525.39 L1554.05 1526.75 L1570.88 1526.75 L1570.88 1526.63 L1587.71 1526.63 L1587.71 1524.77 L1604.54 1524.77 L1604.54 1523.53 L1621.37 1523.53 L1621.37 1523.78 L1638.33 1523.78 L1638.33 1525.51 L1655.16 1525.51 L1655.16 1524.03 L1671.99 1524.03 L1671.99 1524.52 L1688.82 1524.52 L1688.82 1523.16 L1705.65 1523.16 L1705.65 1523.04 L1722.48 1523.04 L1722.48 1525.02 L1739.43 1525.02 L1739.43 1525.64 L1756.26 1525.64 L1756.26 1526.75 L1773.09 1526.75 L1773.09 1527.74 L1789.92 1527.74 L1789.92 1529.35 L1806.75 1529.35 L1806.75 1527.99 L1823.70 1527.99 L1823.70 1528.11 L1840.53 1528.11 L1840.53 1530.34 L1857.36 1530.34 L1857.36 1530.71 L1874.19 1530.71 L1874.19 1530.96 L1891.02 1530.96 L1891.02 1532.82 L1907.85 1532.82 L1907.85 1532.07 L1924.81 1532.07 L1924.81 1534.30 L1941.64 1534.30 L1941.64 1536.90 L1958.47 1536.90 L1958.47 1536.65 L1975.30 1536.65 L1975.30 1537.52 L1992.13 1537.52 L1992.13 1537.52 L2008.96 1537.52 L2008.96 1538.14 L2025.91 1538.14 L2025.91 1538.51 L2042.74 1538.51 L2042.74 1540.12 L2059.57 1540.12 L2059.57 1539.75 L2076.40 1539.75 L2076.40 1540.24 L2093.23 1540.24 L2093.23 1541.11 L2110.18 1541.11 L2110.18 1541.35 L2127.01 1541.35 L2127.01 1539.99 L2143.84 1539.99 L2143.84 1539.62 L2160.68 1539.62 L2160.68 1540.98 L2177.51 1540.98 L2177.51 1541.85 L2194.34 1541.85 L2194.34 1542.34 L2211.29 1542.34 L2211.29 1542.84 L2228.12 1542.84 L2228.12 1542.72 L2244.95 1542.72 L2244.95 1542.72 L2261.78 1542.72 L2261.78 1542.22 L2278.61 1542.22 L2278.61 1543.33 L2295.44 1543.33 L2295.44 1543.95 L2312.39 1543.95 L2312.39 1543.46 L2329.22 1543.46 L2329.22 1542.96 L2346.05 1542.96 L2346.05 1543.33 L2362.88 1543.33 L2362.88 1544.20 L2379.71 1544.20 L2379.71 1544.20 L2396.54 1544.20 L2396.54 1544.45 L2413.50 1544.45 L2413.50 1545.56 L2430.33 1545.56 L2430.33 1544.94 L2447.16 1544.94 L2447.16 1546.55 L2463.99 1546.55 L2463.99 1547.67 L2480.82 1547.67 L2480.82 1547.05 L2497.77 1547.05 L2497.77 1548.04 L2514.60 1548.04 L2514.60 1548.41 L2531.43 1548.41 L2531.43 1547.29 L2548.26 1547.29 L2548.26 1547.91 L2565.09 1547.91 L2565.09 1548.28 L2581.92 1548.28 L2581.92 1548.78 L2598.87 1548.78 L2598.87 1549.27 L2615.70 1549.27 L2615.70 1549.52 L2632.53 1549.52 L2632.53 1548.90 L2649.36 1548.90 L2649.36 1549.03 L2666.19 1549.03 L2666.19 1548.90 L2683.02 1548.90 L2683.02 1548.66 L2699.98 1548.66 L2699.98 1550.02 L2716.81 1550.02 L2716.81 1549.65 L2733.64 1549.65 L2733.64 1550.02 L2750.47 1550.02 L2750.47 1548.66 L2767.30 1548.66 L2767.30 1549.65 L2784.25 1549.65 L2784.25 1550.76 L2801.08 1550.76 L2801.08 1550.39 L2817.91 1550.39 L2817.91 1550.88 L2834.74 1550.88 L2834.74 1552.37 L2851.57 1552.37 L2851.57 1553.98 L2868.40 1553.98 L2868.40 1555.71 L2885.36 1555.71 L2885.36 1554.35 L2902.18 1554.35 L2902.18 1554.84 L2919.01 1554.84 L2919.01 1554.47 L2935.84 1554.47 L2935.84 1553.98 L2952.68 1553.98 L2952.68 1554.84 L2969.51 1554.84 L2969.51 1555.71 L2986.46 1555.71 L2986.46 1555.96 L3003.29 1555.96 L3003.29 1556.08 L3020.12 1556.08 L3020.12 1556.20 L3036.95 1556.20 L3036.95 1557.32 L3053.78 1557.32 L3053.78 1558.18 L3070.61 1558.18 L3070.61 1559.92 L3087.56 1559.92 L3087.56 1561.16 L3104.39 1561.16 L3104.39 1561.77 L3121.22 1561.77 L3121.22 1560.91 L3138.05 1560.91 L3138.05 1561.65 L3154.88 1561.65 L3154.88 1561.16 L3171.84 1561.16 L3171.84 1560.78 L3188.67 1560.78 L3188.67 1563.38 L3205.50 1563.38 L3205.50 1563.51 L3222.33 1563.51 L3222.33 1563.38 L3239.16 1563.38 L3239.16 1565.49 L3255.99 1565.49 L3255.99 1567.84 L3272.94 1567.84 L3272.94 1566.85 L3289.77 1566.85 L3289.77 1567.10 L3306.60 1567.10 L3306.60 1566.85 L3323.43 1566.85 L3323.43 1568.70 L3340.26 1568.70 L3340.26 1568.46 L3357.09 1568.46 L3357.09 1568.21 L3374.04 1568.21 L3374.04 1569.08 L3390.87 1569.08 L3390.87 1569.45 L3407.70 1569.45 L3407.70 1570.07 L3424.53 1570.07 L3424.53 1570.07 L3441.36 1570.07 L3441.36 1569.20 L3458.19 1569.20 L3458.19 1568.46 L3475.15 1568.46 L3475.15 1568.09 L3491.98 1568.09 L3491.98 1569.32 L3508.81 1569.32 L3508.81 1570.31 L3525.64 1570.31 L3525.64 1570.44 L3542.47 1570.44 L3542.47 1571.80 L3559.42 1571.80 L3559.42 1572.66 L3576.25 1572.66 L3576.25 1573.41 L3593.08 1573.41 L3593.08 1572.91 L3609.91 1572.91 L3609.91 1573.28 L3626.74 1573.28 L3626.74 1574.03 L3643.57 1574.03 L3643.57 1574.64 L3660.53 1574.64 L3660.53 1574.89 L3677.36 1574.89 L3677.36 1574.27 L3694.18 1574.27 L3694.18 1575.14 L3711.01 1575.14 L3711.01 1575.26 L3727.84 1575.26 L3727.84 1574.27 L3744.68 1574.27 L3744.68 1574.64 L3761.63 1574.64 L3761.63 1573.65 L3778.46 1573.65 L3778.46 1573.78 L3795.29 1573.78 L3795.29 1574.89 L3795.29 1409.06 L3795.29 1408.07 L3778.46 1408.07 L3778.46 1408.07 L3761.63 1408.07 L3761.63 1409.43 L3744.68 1409.43 L3744.68 1409.31 L3727.84 1409.31 L3727.84 1410.67 L3711.01 1410.67 L3711.01 1410.67 L3694.18 1410.67 L3694.18 1410.05 L3677.36 1410.05 L3677.36 1410.67 L3660.53 1410.67 L3660.53 1410.67 L3643.57 1410.67 L3643.57 1410.30 L3626.74 1410.30 L3626.74 1409.80 L3609.91 1409.80 L3609.91 1409.68 L3593.08 1409.68 L3593.08 1410.42 L3576.25 1410.42 L3576.25 1409.80 L3559.42 1409.80 L3559.42 1409.06 L3542.47 1409.06 L3542.47 1407.95 L3525.64 1407.95 L3525.64 1408.32 L3508.81 1408.32 L3508.81 1407.58 L3491.98 1407.58 L3491.98 1406.71 L3475.15 1406.71 L3475.15 1407.21 L3458.19 1407.21 L3458.19 1408.07 L3441.36 1408.07 L3441.36 1409.19 L3424.53 1409.19 L3424.53 1409.56 L3407.70 1409.56 L3407.70 1409.19 L3390.87 1409.19 L3390.87 1408.94 L3374.04 1408.94 L3374.04 1408.20 L3357.09 1408.20 L3357.09 1408.57 L3340.26 1408.57 L3340.26 1409.06 L3323.43 1409.06 L3323.43 1407.70 L3306.60 1407.70 L3306.60 1408.20 L3289.77 1408.20 L3289.77 1408.32 L3272.94 1408.32 L3272.94 1409.43 L3255.99 1409.43 L3255.99 1407.33 L3239.16 1407.33 L3239.16 1405.60 L3222.33 1405.60 L3222.33 1406.09 L3205.50 1406.09 L3205.50 1406.22 L3188.67 1406.22 L3188.67 1403.86 L3171.84 1403.86 L3171.84 1404.48 L3154.88 1404.48 L3154.88 1405.10 L3138.05 1405.10 L3138.05 1404.61 L3121.22 1404.61 L3121.22 1405.72 L3104.39 1405.72 L3104.39 1405.47 L3087.56 1405.47 L3087.56 1404.48 L3070.61 1404.48 L3070.61 1402.87 L3053.78 1402.87 L3053.78 1402.38 L3036.95 1402.38 L3036.95 1401.27 L3020.12 1401.27 L3020.12 1401.39 L3003.29 1401.39 L3003.29 1401.51 L2986.46 1401.51 L2986.46 1401.39 L2969.51 1401.39 L2969.51 1400.77 L2952.68 1400.77 L2952.68 1400.28 L2935.84 1400.28 L2935.84 1401.02 L2919.01 1401.02 L2919.01 1401.64 L2902.18 1401.64 L2902.18 1401.27 L2885.36 1401.27 L2885.36 1402.87 L2868.40 1402.87 L2868.40 1401.27 L2851.57 1401.27 L2851.57 1399.66 L2834.74 1399.66 L2834.74 1398.29 L2817.91 1398.29 L2817.91 1398.17 L2801.08 1398.17 L2801.08 1398.67 L2784.25 1398.67 L2784.25 1397.68 L2767.30 1397.68 L2767.30 1396.93 L2750.47 1396.93 L2750.47 1398.42 L2733.64 1398.42 L2733.64 1398.29 L2716.81 1398.29 L2716.81 1399.04 L2699.98 1399.04 L2699.98 1398.05 L2683.02 1398.05 L2683.02 1398.54 L2666.19 1398.54 L2666.19 1399.28 L2649.36 1399.28 L2649.36 1399.16 L2632.53 1399.16 L2632.53 1400.03 L2615.70 1400.03 L2615.70 1400.28 L2598.87 1400.28 L2598.87 1399.78 L2581.92 1399.78 L2581.92 1399.53 L2565.09 1399.53 L2565.09 1399.41 L2548.26 1399.41 L2548.26 1399.28 L2531.43 1399.28 L2531.43 1400.65 L2514.60 1400.65 L2514.60 1400.52 L2497.77 1400.52 L2497.77 1399.78 L2480.82 1399.78 L2480.82 1400.65 L2463.99 1400.65 L2463.99 1399.66 L2447.16 1399.66 L2447.16 1398.54 L2430.33 1398.54 L2430.33 1399.53 L2413.50 1399.53 L2413.50 1398.29 L2396.54 1398.29 L2396.54 1398.17 L2379.71 1398.17 L2379.71 1398.17 L2362.88 1398.17 L2362.88 1397.30 L2346.05 1397.30 L2346.05 1396.93 L2329.22 1396.93 L2329.22 1397.68 L2312.39 1397.68 L2312.39 1398.29 L2295.44 1398.29 L2295.44 1397.92 L2278.61 1397.92 L2278.61 1397.18 L2261.78 1397.18 L2261.78 1398.05 L2244.95 1398.05 L2244.95 1398.17 L2228.12 1398.17 L2228.12 1398.67 L2211.29 1398.67 L2211.29 1398.29 L2194.34 1398.29 L2194.34 1398.17 L2177.51 1398.17 L2177.51 1397.55 L2160.68 1397.55 L2160.68 1396.44 L2143.84 1396.44 L2143.84 1397.06 L2127.01 1397.06 L2127.01 1398.67 L2110.18 1398.67 L2110.18 1398.79 L2093.23 1398.79 L2093.23 1398.29 L2076.40 1398.29 L2076.40 1397.80 L2059.57 1397.80 L2059.57 1398.54 L2042.74 1398.54 L2042.74 1397.43 L2025.91 1397.43 L2025.91 1397.06 L2008.96 1397.06 L2008.96 1396.69 L1992.13 1396.69 L1992.13 1397.06 L1975.30 1397.06 L1975.30 1396.69 L1958.47 1396.69 L1958.47 1397.30 L1941.64 1397.30 L1941.64 1395.08 L1924.81 1395.08 L1924.81 1393.10 L1907.85 1393.10 L1907.85 1394.21 L1891.02 1394.21 L1891.02 1392.97 L1874.19 1392.97 L1874.19 1392.85 L1857.36 1392.85 L1857.36 1392.48 L1840.53 1392.48 L1840.53 1390.62 L1823.70 1390.62 L1823.70 1390.87 L1806.75 1390.87 L1806.75 1392.48 L1789.92 1392.48 L1789.92 1391.12 L1773.09 1391.12 L1773.09 1390.62 L1756.26 1390.62 L1756.26 1390.13 L1739.43 1390.13 L1739.43 1389.88 L1722.48 1389.88 L1722.48 1388.39 L1705.65 1388.39 L1705.65 1388.77 L1688.82 1388.77 L1688.82 1390.25 L1671.99 1390.25 L1671.99 1390.37 L1655.16 1390.37 L1655.16 1392.11 L1638.33 1392.11 L1638.33 1390.87 L1621.37 1390.87 L1621.37 1390.75 L1604.54 1390.75 L1604.54 1392.60 L1587.71 1392.60 L1587.71 1395.08 L1570.88 1395.08 L1570.88 1395.94 L1554.05 1395.94 L1554.05 1395.08 L1537.22 1395.08 L1537.22 1396.93 L1520.27 1396.93 L1520.27 1397.18 L1503.44 1397.18 L1503.44 1397.43 L1486.61 1397.43 L1486.61 1398.54 L1469.78 1398.54 L1469.78 1397.92 L1452.95 1397.92 L1452.95 1396.31 L1436.12 1396.31 L1436.12 1396.93 L1419.16 1396.93 L1419.16 1397.30 L1402.34 1397.30 L1402.34 1396.19 L1385.51 1396.19 L1385.51 1397.18 L1368.67 1397.18 L1368.67 1397.43 L1351.85 1397.43 L1351.85 1398.29 L1334.89 1398.29 L1334.89 1396.56 L1318.06 1396.56 L1318.06 1395.82 L1301.23 1395.82 L1301.23 1395.57 L1284.40 1395.57 L1284.40 1396.44 L1267.57 1396.44 L1267.57 1397.06 L1250.74 1397.06 L1250.74 1397.43 L1233.79 1397.43 L1233.79 1396.93 L1216.96 1396.93 L1216.96 1397.30 L1200.13 1397.30 L1200.13 1394.58 L1183.30 1394.58 L1183.30 1393.22 L1166.47 1393.22 L1166.47 1395.45 L1149.64 1395.45 L1149.64 1396.44 L1132.68 1396.44 L1132.68 1396.44 L1115.85 1396.44 L1115.85 1395.94 L1099.02 1395.94 L1099.02 1398.29 L1082.19 1398.29 L1082.19 1398.54 L1065.36 1398.54 L1065.36 1397.80 L1048.53 1397.80 L1048.53 1399.66 L1031.58 1399.66 L1031.58 1401.51 L1014.75 1401.51 L1014.75 1402.13 L997.92 1402.13 L997.92 1404.48 L981.09 1404.48 L981.09 1406.22 L964.26 1406.22 L964.26 1409.80 L947.31 1409.80 L947.31 1410.92 L930.48 1410.92 L930.48 1412.28 L913.65 1412.28 L913.65 1415.37 L896.82 1415.37 L896.82 1414.51 L879.99 1414.51 L879.99 1418.47 L863.16 1418.47 L863.16 1420.82 L846.20 1420.82 L846.20 1422.18 L829.37 1422.18 L829.37 1425.77 L812.54 1425.77 L812.54 1428.74 L795.71 1428.74 L795.71 1432.95 L778.88 1432.95 L778.88 1479.85 Z" stroke-linejoin="round"/>
	</defs>
	<defs>
		<clipPath id="clipPath_lDjWEeMc">
			<use xlink:href="#path_xoKyKvRK"/>
		</clipPath>
	</defs>
	<use xlink:href="#path_xoKyKvRK" style="stroke:none;fill:#999999;fill-opacity:0.65"/>
	<use xlink:href="#path_xoKyKvRK" style="fill:none;stroke:#808080;stroke-opacity:0.65;stroke-width:17.28" clip-path="url(#clipPath_lDjWEeMc)"/>
	<path d=" M778.76 1456.46 L795.59 1456.46 L795.59 1454.60 L812.54 1454.60 L812.54 1453.86 L829.37 1453.86 L829.37 1452.62 L846.20 1452.62 L846.20 1453.24 L863.03 1453.24 L863.03 1452.75 L879.86 1452.75 L879.86 1450.77 L896.69 1450.77 L896.69 1453.49 L913.65 1453.49 L913.65 1451.88 L930.48 1451.88 L930.48 1452.00 L947.31 1452.00 L947.31 1452.38 L964.14 1452.38 L964.14 1450.27 L980.97 1450.27 L980.97 1449.65 L997.80 1449.65 L997.80 1448.42 L1014.75 1448.42 L1014.75 1448.91 L1031.58 1448.91 L1031.58 1448.04 L1048.41 1448.04 L1048.41 1447.05 L1065.24 1447.05 L1065.24 1448.91 L1082.07 1448.91 L1082.07 1449.53 L1099.02 1449.53 L1099.02 1448.04 L1115.85 1448.04 L1115.85 1449.28 L1132.68 1449.28 L1132.68 1450.15 L1149.51 1450.15 L1149.51 1449.78 L1166.34 1449.78 L1166.34 1448.29 L1183.17 1448.29 L1183.17 1450.52 L1200.13 1450.52 L1200.13 1453.86 L1216.96 1453.86 L1216.96 1454.11 L1233.79 1454.11 L1233.79 1455.35 L1250.62 1455.35 L1250.62 1455.59 L1267.45 1455.59 L1267.45 1455.47 L1284.28 1455.47 L1284.28 1455.10 L1301.23 1455.10 L1301.23 1455.84 L1318.06 1455.84 L1318.06 1457.08 L1334.89 1457.08 L1334.89 1459.31 L1351.72 1459.31 L1351.72 1458.81 L1368.55 1458.81 L1368.55 1459.18 L1385.51 1459.18 L1385.51 1458.69 L1402.34 1458.69 L1402.34 1460.05 L1419.16 1460.05 L1419.16 1460.05 L1435.99 1460.05 L1435.99 1459.80 L1452.83 1459.80 L1452.83 1461.66 L1469.65 1461.66 L1469.65 1462.52 L1486.61 1462.52 L1486.61 1461.90 L1503.44 1461.90 L1503.44 1461.90 L1520.27 1461.90 L1520.27 1461.78 L1537.10 1461.78 L1537.10 1460.30 L1553.93 1460.30 L1553.93 1461.41 L1570.76 1461.41 L1570.76 1460.91 L1587.71 1460.91 L1587.71 1458.69 L1604.54 1458.69 L1604.54 1457.20 L1621.37 1457.20 L1621.37 1457.45 L1638.20 1457.45 L1638.20 1458.81 L1655.03 1458.81 L1655.03 1457.20 L1671.86 1457.20 L1671.86 1457.45 L1688.82 1457.45 L1688.82 1455.96 L1705.65 1455.96 L1705.65 1455.72 L1722.48 1455.72 L1722.48 1457.57 L1739.31 1457.57 L1739.31 1457.94 L1756.14 1457.94 L1756.14 1458.69 L1773.09 1458.69 L1773.09 1459.55 L1789.92 1459.55 L1789.92 1460.91 L1806.75 1460.91 L1806.75 1459.55 L1823.58 1459.55 L1823.58 1459.43 L1840.41 1459.43 L1840.41 1461.41 L1857.24 1461.41 L1857.24 1461.78 L1874.19 1461.78 L1874.19 1462.03 L1891.02 1462.03 L1891.02 1463.51 L1907.85 1463.51 L1907.85 1462.65 L1924.68 1462.65 L1924.68 1464.75 L1941.51 1464.75 L1941.51 1467.10 L1958.34 1467.10 L1958.34 1466.73 L1975.30 1466.73 L1975.30 1467.35 L1992.13 1467.35 L1992.13 1467.23 L2008.96 1467.23 L2008.96 1467.60 L2025.79 1467.60 L2025.79 1467.97 L2042.62 1467.97 L2042.62 1469.45 L2059.45 1469.45 L2059.45 1468.83 L2076.40 1468.83 L2076.40 1469.33 L2093.23 1469.33 L2093.23 1470.07 L2110.06 1470.07 L2110.06 1470.07 L2126.89 1470.07 L2126.89 1468.59 L2143.72 1468.59 L2143.72 1468.09 L2160.68 1468.09 L2160.68 1469.33 L2177.51 1469.33 L2177.51 1470.07 L2194.34 1470.07 L2194.34 1470.32 L2211.16 1470.32 L2211.16 1470.81 L2227.99 1470.81 L2227.99 1470.57 L2244.82 1470.57 L2244.82 1470.44 L2261.78 1470.44 L2261.78 1469.70 L2278.61 1469.70 L2278.61 1470.69 L2295.44 1470.69 L2295.44 1471.19 L2312.27 1471.19 L2312.27 1470.69 L2329.10 1470.69 L2329.10 1470.07 L2345.93 1470.07 L2345.93 1470.32 L2362.88 1470.32 L2362.88 1471.19 L2379.71 1471.19 L2379.71 1471.31 L2396.54 1471.31 L2396.54 1471.43 L2413.37 1471.43 L2413.37 1472.55 L2430.20 1472.55 L2430.20 1471.80 L2447.16 1471.80 L2447.16 1473.17 L2463.99 1473.17 L2463.99 1474.16 L2480.82 1474.16 L2480.82 1473.54 L2497.65 1473.54 L2497.65 1474.40 L2514.48 1474.40 L2514.48 1474.65 L2531.31 1474.65 L2531.31 1473.29 L2548.26 1473.29 L2548.26 1473.66 L2565.09 1473.66 L2565.09 1474.03 L2581.92 1474.03 L2581.92 1474.40 L2598.75 1474.40 L2598.75 1474.90 L2615.58 1474.90 L2615.58 1474.77 L2632.41 1474.77 L2632.41 1474.16 L2649.36 1474.16 L2649.36 1474.16 L2666.19 1474.16 L2666.19 1473.78 L2683.02 1473.78 L2683.02 1473.41 L2699.85 1473.41 L2699.85 1474.65 L2716.68 1474.65 L2716.68 1474.03 L2733.51 1474.03 L2733.51 1474.28 L2750.47 1474.28 L2750.47 1472.92 L2767.30 1472.92 L2767.30 1473.66 L2784.13 1473.66 L2784.13 1474.77 L2800.96 1474.77 L2800.96 1474.28 L2817.79 1474.28 L2817.79 1474.65 L2834.74 1474.65 L2834.74 1476.01 L2851.57 1476.01 L2851.57 1477.62 L2868.40 1477.62 L2868.40 1479.35 L2885.23 1479.35 L2885.23 1477.87 L2902.06 1477.87 L2902.06 1478.24 L2918.89 1478.24 L2918.89 1477.87 L2935.84 1477.87 L2935.84 1477.13 L2952.68 1477.13 L2952.68 1477.87 L2969.51 1477.87 L2969.51 1478.61 L2986.34 1478.61 L2986.34 1478.86 L3003.16 1478.86 L3003.16 1478.73 L3019.99 1478.73 L3019.99 1478.73 L3036.95 1478.73 L3036.95 1479.97 L3053.78 1479.97 L3053.78 1480.59 L3070.61 1480.59 L3070.61 1482.32 L3087.44 1482.32 L3087.44 1483.44 L3104.27 1483.44 L3104.27 1483.81 L3121.10 1483.81 L3121.10 1482.82 L3138.05 1482.82 L3138.05 1483.44 L3154.88 1483.44 L3154.88 1482.94 L3171.71 1482.94 L3171.71 1482.32 L3188.54 1482.32 L3188.54 1484.92 L3205.37 1484.92 L3205.37 1484.80 L3222.33 1484.80 L3222.33 1484.55 L3239.16 1484.55 L3239.16 1486.53 L3255.99 1486.53 L3255.99 1488.64 L3272.82 1488.64 L3272.82 1487.77 L3289.65 1487.77 L3289.65 1487.77 L3306.48 1487.77 L3306.48 1487.27 L3323.43 1487.27 L3323.43 1489.01 L3340.26 1489.01 L3340.26 1488.64 L3357.09 1488.64 L3357.09 1488.26 L3373.92 1488.26 L3373.92 1489.01 L3390.75 1489.01 L3390.75 1489.38 L3407.58 1489.38 L3407.58 1489.87 L3424.53 1489.87 L3424.53 1489.63 L3441.36 1489.63 L3441.36 1488.64 L3458.19 1488.64 L3458.19 1487.89 L3475.02 1487.89 L3475.02 1487.52 L3491.85 1487.52 L3491.85 1488.51 L3508.81 1488.51 L3508.81 1489.38 L3525.64 1489.38 L3525.64 1489.25 L3542.47 1489.25 L3542.47 1490.49 L3559.30 1490.49 L3559.30 1491.36 L3576.13 1491.36 L3576.13 1491.98 L3592.96 1491.98 L3592.96 1491.36 L3609.91 1491.36 L3609.91 1491.61 L3626.74 1491.61 L3626.74 1492.22 L3643.57 1492.22 L3643.57 1492.72 L3660.40 1492.72 L3660.40 1492.84 L3677.23 1492.84 L3677.23 1492.22 L3694.06 1492.22 L3694.06 1492.97 L3711.01 1492.97 L3711.01 1492.97 L3727.84 1492.97 L3727.84 1491.85 L3744.68 1491.85 L3744.68 1492.10 L3761.51 1492.10 L3761.51 1490.99 L3778.34 1490.99 L3778.34 1490.99 L3795.16 1490.99 L3795.16 1491.98" stroke-linejoin="round" style="fill:none;stroke:#000000;stroke-width:8.64"/>
	<line x1="559.10" y1="2509.23" x2="559.10" y2="419.90" style="stroke:#000000;stroke-width:5.76"/>
	<line x1="559.10" y1="2445.87" x2="519.13" y2="2445.87" style="stroke:#000000;stroke-width:5.76"/>
	<text x="499.08" y="2480.90" style="font-family:'Helvetica';font-size:99.99px;fill:#000000" text-anchor="end">-0.25</text>
	<line x1="559.10" y1="2249.60" x2="519.13" y2="2249.60" style="stroke:#000000;stroke-width:5.76"/>
	<text x="499.08" y="2284.63" style="font-family:'Helvetica';font-size:99.99px;fill:#000000" text-anchor="end">-0.20</text>
	<line x1="559.10" y1="2053.32" x2="519.13" y2="2053.32" style="stroke:#000000;stroke-width:5.76"/>
	<text x="499.08" y="2088.35" style="font-family:'Helvetica';font-size:99.99px;fill:#000000" text-anchor="end">-0.15</text>
	<line x1="559.10" y1="1857.05" x2="519.13" y2="1857.05" style="stroke:#000000;stroke-width:5.76"/>
	<text x="499.08" y="1892.08" style="font-family:'Helvetica';font-size:99.99px;fill:#000000" text-anchor="end">-0.10</text>
	<line x1="559.10" y1="1660.78" x2="519.13" y2="1660.78" style="stroke:#000000;stroke-width:5.76"/>
	<text x="499.08" y="1695.81" style="font-family:'Helvetica';font-size:99.99px;fill:#000000" text-anchor="end">-0.05</text>
	<line x1="559.10" y1="1464.63" x2="519.13" y2="1464.63" style="stroke:#000000;stroke-width:5.76"/>
	<text x="499.08" y="1499.66" style="font-family:'Helvetica';font-size:99.99px;fill:#000000" text-anchor="end">0.00</text>
	<line x1="559.10" y1="1268.35" x2="519.13" y2="1268.35" style="stroke:#000000;stroke-width:5.76"/>
	<text x="499.08" y="1303.38" style="font-family:'Helvetica';font-size:99.99px;fill:#000000" text-anchor="end">0.05</text>
	<line x1="559.10" y1="1072.08" x2="519.13" y2="1072.08" style="stroke:#000000;stroke-width:5.76"/>
	<text x="499.08" y="1107.11" style="font-family:'Helvetica';font-size:99.99px;fill:#000000" text-anchor="end">0.10</text>
	<line x1="559.10" y1="875.81" x2="519.13" y2="875.81" style="stroke:#000000;stroke-width:5.76"/>
	<text x="499.08" y="910.83" style="font-family:'Helvetica';font-size:99.99px;fill:#000000" text-anchor="end">0.15</text>
	<line x1="559.10" y1="679.53" x2="519.13" y2="679.53" style="stroke:#000000;stroke-width:5.76"/>
	<text x="499.08" y="714.56" style="font-family:'Helvetica';font-size:99.99px;fill:#000000" text-anchor="end">0.20</text>
	<line x1="559.10" y1="483.26" x2="519.13" y2="483.26" style="stroke:#000000;stroke-width:5.76"/>
	<text x="499.08" y="518.29" style="font-family:'Helvetica';font-size:99.99px;fill:#000000" text-anchor="end">0.25</text>
	<text x="190.71" y="1464.63" style="font-family:'Helvetica';font-size:99.99px;fill:#000000" transform="rotate(-90 190.71,1464.63)" text-anchor="middle">Difference in Probabilities</text>
	<line x1="559.10" y1="2509.23" x2="3859.02" y2="2509.23" style="stroke:#000000;stroke-width:5.76"/>
	<line x1="622.46" y1="2509.23" x2="622.46" y2="2549.21" style="stroke:#000000;stroke-width:5.76"/>
	<text x="622.46" y="2625.15" style="font-family:'Helvetica';font-size:79.94px;fill:#000000" text-anchor="middle">0</text>
	<line x1="812.91" y1="2509.23" x2="812.91" y2="2549.21" style="stroke:#000000;stroke-width:5.76"/>
	<text x="812.91" y="2625.15" style="font-family:'Helvetica';font-size:79.94px;fill:#000000" text-anchor="middle">.3</text>
	<line x1="1003.24" y1="2509.23" x2="1003.24" y2="2549.21" style="stroke:#000000;stroke-width:5.76"/>
	<text x="1003.24" y="2625.15" style="font-family:'Helvetica';font-size:79.94px;fill:#000000" text-anchor="middle">.6</text>
	<line x1="1193.69" y1="2509.23" x2="1193.69" y2="2549.21" style="stroke:#000000;stroke-width:5.76"/>
	<text x="1193.69" y="2625.15" style="font-family:'Helvetica';font-size:79.94px;fill:#000000" text-anchor="middle">.9</text>
	<line x1="1384.02" y1="2509.23" x2="1384.02" y2="2549.21" style="stroke:#000000;stroke-width:5.76"/>
	<text x="1384.02" y="2625.15" style="font-family:'Helvetica';font-size:79.94px;fill:#000000" text-anchor="middle">1.2</text>
	<line x1="1574.47" y1="2509.23" x2="1574.47" y2="2549.21" style="stroke:#000000;stroke-width:5.76"/>
	<text x="1574.47" y="2625.15" style="font-family:'Helvetica';font-size:79.94px;fill:#000000" text-anchor="middle">1.5</text>
	<line x1="1764.80" y1="2509.23" x2="1764.80" y2="2549.21" style="stroke:#000000;stroke-width:5.76"/>
	<text x="1764.80" y="2625.15" style="font-family:'Helvetica';font-size:79.94px;fill:#000000" text-anchor="middle">1.8</text>
	<line x1="1955.25" y1="2509.23" x2="1955.25" y2="2549.21" style="stroke:#000000;stroke-width:5.76"/>
	<text x="1955.25" y="2625.15" style="font-family:'Helvetica';font-size:79.94px;fill:#000000" text-anchor="middle">2.1</text>
	<line x1="2145.58" y1="2509.23" x2="2145.58" y2="2549.21" style="stroke:#000000;stroke-width:5.76"/>
	<text x="2145.58" y="2625.15" style="font-family:'Helvetica';font-size:79.94px;fill:#000000" text-anchor="middle">2.4</text>
	<line x1="2336.03" y1="2509.23" x2="2336.03" y2="2549.21" style="stroke:#000000;stroke-width:5.76"/>
	<text x="2336.03" y="2625.15" style="font-family:'Helvetica';font-size:79.94px;fill:#000000" text-anchor="middle">2.7</text>
	<line x1="2526.48" y1="2509.23" x2="2526.48" y2="2549.21" style="stroke:#000000;stroke-width:5.76"/>
	<text x="2526.48" y="2625.15" style="font-family:'Helvetica';font-size:79.94px;fill:#000000" text-anchor="middle">3</text>
	<line x1="2716.81" y1="2509.23" x2="2716.81" y2="2549.21" style="stroke:#000000;stroke-width:5.76"/>
	<text x="2716.81" y="2625.15" style="font-family:'Helvetica';font-size:79.94px;fill:#000000" text-anchor="middle">3.3</text>
	<line x1="2907.26" y1="2509.23" x2="2907.26" y2="2549.21" style="stroke:#000000;stroke-width:5.76"/>
	<text x="2907.26" y="2625.15" style="font-family:'Helvetica';font-size:79.94px;fill:#000000" text-anchor="middle">3.6</text>
	<line x1="3097.59" y1="2509.23" x2="3097.59" y2="2549.21" style="stroke:#000000;stroke-width:5.76"/>
	<text x="3097.59" y="2625.15" style="font-family:'Helvetica';font-size:79.94px;fill:#000000" text-anchor="middle">3.9</text>
	<line x1="3288.04" y1="2509.23" x2="3288.04" y2="2549.21" style="stroke:#000000;stroke-width:5.76"/>
	<text x="3288.04" y="2625.15" style="font-family:'Helvetica';font-size:79.94px;fill:#000000" text-anchor="middle">4.2</text>
	<line x1="3478.36" y1="2509.23" x2="3478.36" y2="2549.21" style="stroke:#000000;stroke-width:5.76"/>
	<text x="3478.36" y="2625.15" style="font-family:'Helvetica';font-size:79.94px;fill:#000000" text-anchor="middle">4.5</text>
	<line x1="3668.82" y1="2509.23" x2="3668.82" y2="2549.21" style="stroke:#000000;stroke-width:5.76"/>
	<text x="3668.82" y="2625.15" style="font-family:'Helvetica';font-size:79.94px;fill:#000000" text-anchor="middle">4.8</text>
	<line x1="3859.14" y1="2509.23" x2="3859.14" y2="2549.21" style="stroke:#000000;stroke-width:5.76"/>
	<text x="3859.14" y="2625.15" style="font-family:'Helvetica';font-size:79.94px;fill:#000000" text-anchor="middle">5.1</text>
	<text x="2209.06" y="2729.16" style="font-family:'Helvetica';font-size:99.99px;fill:#000000" text-anchor="middle">Time (years)</text>
	<rect x="593.63" y="454.42" width="993.34" height="326.46" style="fill:#FFFFFF"/>
	<rect x="596.51" y="457.30" width="987.58" height="320.70" style="fill:none;stroke:#000000;stroke-width:5.76"/>
	<rect x="636.82" y="497.74" width="374.47" height="99.99" style="fill:#999999;fill-opacity:0.65"/>
	<rect x="641.14" y="502.06" width="365.83" height="91.35" style="fill:none;stroke:#808080;stroke-opacity:0.65;stroke-width:8.64"/>
	<line x1="636.82" y1="687.70" x2="1011.28" y2="687.70" style="stroke:#000000;stroke-width:8.64"/>
	<text x="1071.30" y="582.76" style="font-family:'Helvetica';font-size:99.99px;fill:#000000">CI95%</text>
	<text x="1071.30" y="722.73" style="font-family:'Helvetica';font-size:99.99px;fill:#000000">Difference</text>
	<text x="2209.06" y="369.63" style="font-family:'Helvetica';font-size:110.01px;fill:#000000" text-anchor="middle">from Readmission to 2nd Readmission</text>
	<text x="2209.06" y="215.98" style="font-family:'Helvetica';font-size:139.96px;fill:#1E2D53" text-anchor="middle">Difference in Probabilities</text>
</svg>
