<?xml version="1.0" encoding="UTF-8" standalone="no"?>
<!-- This is a Stata 16.1 generated SVG file (http://www.stata.com) -->

<svg version="1.1" width="5.50in" height="4.00in" viewBox="0 0 3960 2880" xmlns="http://www.w3.org/2000/svg" xmlns:xlink="http://www.w3.org/1999/xlink">
	<desc>Stata Graph - diff_mod2435_3y_rp_22</desc>
	<rect x="0" y="0" width="3960" height="2880" style="fill:#EAF2F3;stroke:none"/>
	<rect x="0.00" y="0.00" width="3959.88" height="2880.00" style="fill:#FFFFFF"/>
	<rect x="2.88" y="2.88" width="3954.12" height="2874.24" style="fill:none;stroke:#FFFFFF;stroke-width:5.76"/>
	<rect x="559.10" y="419.90" width="3299.92" height="2089.34" style="fill:#FFFFFF"/>
	<rect x="561.98" y="422.78" width="3294.16" height="2083.58" style="fill:none;stroke:#FFFFFF;stroke-width:5.76"/>
	<line x1="559.10" y1="2249.60" x2="3859.02" y2="2249.60" style="stroke:#EAF2F3;stroke-width:8.64"/>
	<line x1="559.10" y1="2053.32" x2="3859.02" y2="2053.32" style="stroke:#EAF2F3;stroke-width:8.64"/>
	<line x1="559.10" y1="1857.05" x2="3859.02" y2="1857.05" style="stroke:#EAF2F3;stroke-width:8.64"/>
	<line x1="559.10" y1="1660.78" x2="3859.02" y2="1660.78" style="stroke:#EAF2F3;stroke-width:8.64"/>
	<line x1="559.10" y1="1464.63" x2="3859.02" y2="1464.63" style="stroke:#EAF2F3;stroke-width:8.64"/>
	<line x1="559.10" y1="1268.35" x2="3859.02" y2="1268.35" style="stroke:#EAF2F3;stroke-width:8.64"/>
	<line x1="559.10" y1="1072.08" x2="3859.02" y2="1072.08" style="stroke:#EAF2F3;stroke-width:8.64"/>
	<line x1="559.10" y1="875.81" x2="3859.02" y2="875.81" style="stroke:#EAF2F3;stroke-width:8.64"/>
	<line x1="559.10" y1="679.53" x2="3859.02" y2="679.53" style="stroke:#EAF2F3;stroke-width:8.64"/>
	<line x1="559.10" y1="1464.63" x2="3859.02" y2="1464.63" style="stroke:#1A476F;stroke-width:8.64"/>
	<defs>
		<path id="path_snrPVsQg" d="M778.88 1471.56 L778.88 1471.56 L795.71 1471.56 L795.71 1472.18 L812.54 1472.18 L812.54 1474.03 L829.37 1474.03 L829.37 1474.77 L846.20 1474.77 L846.20 1475.52 L863.16 1475.52 L863.16 1475.64 L879.99 1475.64 L879.99 1476.51 L896.82 1476.51 L896.82 1477.50 L913.65 1477.50 L913.65 1478.98 L930.48 1478.98 L930.48 1479.23 L947.31 1479.23 L947.31 1480.84 L964.26 1480.84 L964.26 1481.09 L981.09 1481.09 L981.09 1480.96 L997.92 1480.96 L997.92 1480.59 L1014.75 1480.59 L1014.75 1483.56 L1031.58 1483.56 L1031.58 1485.29 L1048.53 1485.29 L1048.53 1484.80 L1065.36 1484.80 L1065.36 1484.43 L1082.19 1484.43 L1082.19 1485.54 L1099.02 1485.54 L1099.02 1487.52 L1115.85 1487.52 L1115.85 1487.77 L1132.68 1487.77 L1132.68 1489.25 L1149.64 1489.25 L1149.64 1488.76 L1166.47 1488.76 L1166.47 1489.38 L1183.30 1489.38 L1183.30 1489.63 L1200.13 1489.63 L1200.13 1491.48 L1216.96 1491.48 L1216.96 1493.34 L1233.79 1493.34 L1233.79 1495.57 L1250.74 1495.57 L1250.74 1493.71 L1267.57 1493.71 L1267.57 1494.70 L1284.40 1494.70 L1284.40 1496.93 L1301.23 1496.93 L1301.23 1499.28 L1318.06 1499.28 L1318.06 1502.12 L1334.89 1502.12 L1334.89 1503.61 L1351.85 1503.61 L1351.85 1504.97 L1368.67 1504.97 L1368.67 1504.60 L1385.51 1504.60 L1385.51 1505.47 L1402.34 1505.47 L1402.34 1506.70 L1419.16 1506.70 L1419.16 1507.69 L1436.12 1507.69 L1436.12 1508.31 L1452.95 1508.31 L1452.95 1511.03 L1469.78 1511.03 L1469.78 1512.52 L1486.61 1512.52 L1486.61 1512.77 L1503.44 1512.77 L1503.44 1513.63 L1520.27 1513.63 L1520.27 1516.48 L1537.22 1516.48 L1537.22 1517.47 L1554.05 1517.47 L1554.05 1517.59 L1570.88 1517.59 L1570.88 1518.83 L1587.71 1518.83 L1587.71 1519.57 L1604.54 1519.57 L1604.54 1522.30 L1621.37 1522.30 L1621.37 1523.41 L1638.33 1523.41 L1638.33 1524.90 L1655.16 1524.90 L1655.16 1525.89 L1671.99 1525.89 L1671.99 1527.00 L1688.82 1527.00 L1688.82 1528.48 L1705.65 1528.48 L1705.65 1527.12 L1722.48 1527.12 L1722.48 1526.88 L1739.43 1526.88 L1739.43 1526.26 L1756.26 1526.26 L1756.26 1527.37 L1773.09 1527.37 L1773.09 1527.00 L1789.92 1527.00 L1789.92 1527.49 L1806.75 1527.49 L1806.75 1527.62 L1823.70 1527.62 L1823.70 1527.00 L1840.53 1527.00 L1840.53 1528.48 L1857.36 1528.48 L1857.36 1528.36 L1874.19 1528.36 L1874.19 1527.25 L1891.02 1527.25 L1891.02 1529.47 L1907.85 1529.47 L1907.85 1529.60 L1924.81 1529.60 L1924.81 1529.47 L1941.64 1529.47 L1941.64 1531.21 L1958.47 1531.21 L1958.47 1528.86 L1975.30 1528.86 L1975.30 1529.60 L1992.13 1529.60 L1992.13 1529.47 L2008.96 1529.47 L2008.96 1528.98 L2025.91 1528.98 L2025.91 1527.25 L2042.74 1527.25 L2042.74 1527.37 L2059.57 1527.37 L2059.57 1527.62 L2076.40 1527.62 L2076.40 1527.74 L2093.23 1527.74 L2093.23 1527.25 L2110.18 1527.25 L2110.18 1527.37 L2127.01 1527.37 L2127.01 1528.24 L2143.84 1528.24 L2143.84 1529.97 L2160.68 1529.97 L2160.68 1529.47 L2177.51 1529.47 L2177.51 1531.83 L2194.34 1531.83 L2194.34 1532.82 L2211.29 1532.82 L2211.29 1533.81 L2228.12 1533.81 L2228.12 1534.67 L2244.95 1534.67 L2244.95 1536.53 L2261.78 1536.53 L2261.78 1536.90 L2278.61 1536.90 L2278.61 1536.40 L2295.44 1536.40 L2295.44 1536.78 L2312.39 1536.78 L2312.39 1536.65 L2329.22 1536.65 L2329.22 1534.30 L2346.05 1534.30 L2346.05 1535.04 L2362.88 1535.04 L2362.88 1535.29 L2379.71 1535.29 L2379.71 1536.78 L2396.54 1536.78 L2396.54 1537.15 L2413.50 1537.15 L2413.50 1538.14 L2430.33 1538.14 L2430.33 1539.37 L2447.16 1539.37 L2447.16 1539.87 L2463.99 1539.87 L2463.99 1540.74 L2480.82 1540.74 L2480.82 1541.73 L2497.77 1541.73 L2497.77 1542.84 L2514.60 1542.84 L2514.60 1543.95 L2531.43 1543.95 L2531.43 1543.95 L2548.26 1543.95 L2548.26 1542.47 L2565.09 1542.47 L2565.09 1542.59 L2581.92 1542.59 L2581.92 1543.46 L2598.87 1543.46 L2598.87 1543.95 L2615.70 1543.95 L2615.70 1543.58 L2632.53 1543.58 L2632.53 1543.46 L2649.36 1543.46 L2649.36 1544.20 L2666.19 1544.20 L2666.19 1545.19 L2683.02 1545.19 L2683.02 1544.70 L2699.98 1544.70 L2699.98 1544.94 L2716.81 1544.94 L2716.81 1544.20 L2733.64 1544.20 L2733.64 1544.45 L2750.47 1544.45 L2750.47 1543.95 L2767.30 1543.95 L2767.30 1543.71 L2784.25 1543.71 L2784.25 1544.20 L2801.08 1544.20 L2801.08 1542.84 L2817.91 1542.84 L2817.91 1541.85 L2834.74 1541.85 L2834.74 1542.96 L2851.57 1542.96 L2851.57 1542.22 L2868.40 1542.22 L2868.40 1542.34 L2885.36 1542.34 L2885.36 1542.34 L2902.18 1542.34 L2902.18 1541.73 L2919.01 1541.73 L2919.01 1541.97 L2935.84 1541.97 L2935.84 1541.35 L2952.68 1541.35 L2952.68 1540.86 L2969.51 1540.86 L2969.51 1541.23 L2986.46 1541.23 L2986.46 1541.35 L3003.29 1541.35 L3003.29 1541.48 L3020.12 1541.48 L3020.12 1542.47 L3036.95 1542.47 L3036.95 1542.59 L3053.78 1542.59 L3053.78 1543.33 L3070.61 1543.33 L3070.61 1543.46 L3087.56 1543.46 L3087.56 1543.71 L3104.39 1543.71 L3104.39 1543.58 L3121.22 1543.58 L3121.22 1544.70 L3138.05 1544.70 L3138.05 1544.94 L3154.88 1544.94 L3154.88 1545.31 L3171.84 1545.31 L3171.84 1544.82 L3188.67 1544.82 L3188.67 1544.08 L3205.50 1544.08 L3205.50 1543.83 L3222.33 1543.83 L3222.33 1544.70 L3239.16 1544.70 L3239.16 1542.84 L3255.99 1542.84 L3255.99 1542.59 L3272.94 1542.59 L3272.94 1542.72 L3289.77 1542.72 L3289.77 1543.21 L3306.60 1543.21 L3306.60 1543.95 L3323.43 1543.95 L3323.43 1544.45 L3340.26 1544.45 L3340.26 1544.32 L3357.09 1544.32 L3357.09 1544.70 L3374.04 1544.70 L3374.04 1544.82 L3390.87 1544.82 L3390.87 1544.82 L3407.70 1544.82 L3407.70 1546.80 L3424.53 1546.80 L3424.53 1547.67 L3441.36 1547.67 L3441.36 1548.16 L3458.19 1548.16 L3458.19 1548.53 L3475.15 1548.53 L3475.15 1548.16 L3491.98 1548.16 L3491.98 1548.90 L3508.81 1548.90 L3508.81 1550.51 L3525.64 1550.51 L3525.64 1551.01 L3542.47 1551.01 L3542.47 1551.13 L3559.42 1551.13 L3559.42 1552.37 L3576.25 1552.37 L3576.25 1552.62 L3593.08 1552.62 L3593.08 1551.87 L3609.91 1551.87 L3609.91 1551.13 L3626.74 1551.13 L3626.74 1551.87 L3643.57 1551.87 L3643.57 1551.01 L3660.53 1551.01 L3660.53 1551.01 L3677.36 1551.01 L3677.36 1551.25 L3694.18 1551.25 L3694.18 1550.64 L3711.01 1550.64 L3711.01 1551.75 L3727.84 1551.75 L3727.84 1552.99 L3744.68 1552.99 L3744.68 1553.98 L3761.63 1553.98 L3761.63 1554.47 L3778.46 1554.47 L3778.46 1555.09 L3795.29 1555.09 L3795.29 1554.22 L3795.29 1101.90 L3795.29 1103.51 L3778.46 1103.51 L3778.46 1103.76 L3761.63 1103.76 L3761.63 1104.01 L3744.68 1104.01 L3744.68 1103.88 L3727.84 1103.88 L3727.84 1103.64 L3711.01 1103.64 L3711.01 1103.27 L3694.18 1103.27 L3694.18 1104.75 L3677.36 1104.75 L3677.36 1105.37 L3660.53 1105.37 L3660.53 1105.99 L3643.57 1105.99 L3643.57 1107.72 L3626.74 1107.72 L3626.74 1107.72 L3609.91 1107.72 L3609.91 1109.21 L3593.08 1109.21 L3593.08 1110.69 L3576.25 1110.69 L3576.25 1111.31 L3559.42 1111.31 L3559.42 1110.81 L3542.47 1110.81 L3542.47 1111.43 L3525.64 1111.43 L3525.64 1111.93 L3508.81 1111.93 L3508.81 1111.06 L3491.98 1111.06 L3491.98 1111.31 L3475.15 1111.31 L3475.15 1112.55 L3458.19 1112.55 L3458.19 1112.92 L3441.36 1112.92 L3441.36 1113.29 L3424.53 1113.29 L3424.53 1113.29 L3407.70 1113.29 L3407.70 1112.18 L3390.87 1112.18 L3390.87 1113.17 L3374.04 1113.17 L3374.04 1114.03 L3357.09 1114.03 L3357.09 1114.65 L3340.26 1114.65 L3340.26 1115.52 L3323.43 1115.52 L3323.43 1115.89 L3306.60 1115.89 L3306.60 1116.14 L3289.77 1116.14 L3289.77 1116.38 L3272.94 1116.38 L3272.94 1117.25 L3255.99 1117.25 L3255.99 1118.36 L3239.16 1118.36 L3239.16 1121.21 L3222.33 1121.21 L3222.33 1121.21 L3205.50 1121.21 L3205.50 1122.32 L3188.67 1122.32 L3188.67 1123.93 L3171.84 1123.93 L3171.84 1125.54 L3154.88 1125.54 L3154.88 1126.04 L3138.05 1126.04 L3138.05 1126.90 L3121.22 1126.90 L3121.22 1126.66 L3104.39 1126.66 L3104.39 1127.77 L3087.56 1127.77 L3087.56 1128.76 L3070.61 1128.76 L3070.61 1129.38 L3053.78 1129.38 L3053.78 1129.87 L3036.95 1129.87 L3036.95 1130.86 L3020.12 1130.86 L3020.12 1130.99 L3003.29 1130.99 L3003.29 1131.85 L2986.46 1131.85 L2986.46 1132.84 L2969.51 1132.84 L2969.51 1133.34 L2952.68 1133.34 L2952.68 1134.95 L2935.84 1134.95 L2935.84 1136.56 L2919.01 1136.56 L2919.01 1137.30 L2902.18 1137.30 L2902.18 1139.03 L2885.36 1139.03 L2885.36 1140.39 L2868.40 1140.39 L2868.40 1141.26 L2851.57 1141.26 L2851.57 1143.11 L2834.74 1143.11 L2834.74 1143.11 L2817.91 1143.11 L2817.91 1145.22 L2801.08 1145.22 L2801.08 1147.69 L2784.25 1147.69 L2784.25 1148.31 L2767.30 1148.31 L2767.30 1149.92 L2750.47 1149.92 L2750.47 1151.53 L2733.64 1151.53 L2733.64 1152.52 L2716.81 1152.52 L2716.81 1154.62 L2699.98 1154.62 L2699.98 1155.61 L2683.02 1155.61 L2683.02 1157.47 L2666.19 1157.47 L2666.19 1157.35 L2649.36 1157.35 L2649.36 1157.72 L2632.53 1157.72 L2632.53 1158.95 L2615.70 1158.95 L2615.70 1160.69 L2598.87 1160.69 L2598.87 1161.31 L2581.92 1161.31 L2581.92 1161.93 L2565.09 1161.93 L2565.09 1162.92 L2548.26 1162.92 L2548.26 1165.64 L2531.43 1165.64 L2531.43 1167.12 L2514.60 1167.12 L2514.60 1167.25 L2497.77 1167.25 L2497.77 1167.74 L2480.82 1167.74 L2480.82 1168.24 L2463.99 1168.24 L2463.99 1168.48 L2447.16 1168.48 L2447.16 1169.23 L2430.33 1169.23 L2430.33 1169.23 L2413.50 1169.23 L2413.50 1169.72 L2396.54 1169.72 L2396.54 1170.59 L2379.71 1170.59 L2379.71 1170.59 L2362.88 1170.59 L2362.88 1171.95 L2346.05 1171.95 L2346.05 1172.69 L2329.22 1172.69 L2329.22 1176.40 L2312.39 1176.40 L2312.39 1178.26 L2295.44 1178.26 L2295.44 1179.37 L2278.61 1179.37 L2278.61 1181.11 L2261.78 1181.11 L2261.78 1182.34 L2244.95 1182.34 L2244.95 1182.10 L2228.12 1182.10 L2228.12 1182.72 L2211.29 1182.72 L2211.29 1183.33 L2194.34 1183.33 L2194.34 1184.08 L2177.51 1184.08 L2177.51 1183.46 L2160.68 1183.46 L2160.68 1185.93 L2143.84 1185.93 L2143.84 1185.93 L2127.01 1185.93 L2127.01 1186.92 L2110.18 1186.92 L2110.18 1188.66 L2093.23 1188.66 L2093.23 1191.01 L2076.40 1191.01 L2076.40 1192.86 L2059.57 1192.86 L2059.57 1194.72 L2042.74 1194.72 L2042.74 1196.70 L2025.91 1196.70 L2025.91 1200.54 L2008.96 1200.54 L2008.96 1203.26 L1992.13 1203.26 L1992.13 1205.73 L1975.30 1205.73 L1975.30 1207.22 L1958.47 1207.22 L1958.47 1211.80 L1941.64 1211.80 L1941.64 1212.66 L1924.81 1212.66 L1924.81 1214.64 L1907.85 1214.64 L1907.85 1217.00 L1891.02 1217.00 L1891.02 1217.24 L1874.19 1217.24 L1874.19 1220.96 L1857.36 1220.96 L1857.36 1223.80 L1840.53 1223.80 L1840.53 1225.04 L1823.70 1225.04 L1823.70 1228.38 L1806.75 1228.38 L1806.75 1231.23 L1789.92 1231.23 L1789.92 1233.33 L1773.09 1233.33 L1773.09 1236.42 L1756.26 1236.42 L1756.26 1238.28 L1739.43 1238.28 L1739.43 1241.99 L1722.48 1241.99 L1722.48 1245.34 L1705.65 1245.34 L1705.65 1249.91 L1688.82 1249.91 L1688.82 1251.89 L1671.99 1251.89 L1671.99 1254.12 L1655.16 1254.12 L1655.16 1256.60 L1638.33 1256.60 L1638.33 1258.70 L1621.37 1258.70 L1621.37 1261.05 L1604.54 1261.05 L1604.54 1262.04 L1587.71 1262.04 L1587.71 1264.76 L1570.88 1264.76 L1570.88 1267.24 L1554.05 1267.24 L1554.05 1270.95 L1537.22 1270.95 L1537.22 1273.80 L1520.27 1273.80 L1520.27 1274.91 L1503.44 1274.91 L1503.44 1278.01 L1486.61 1278.01 L1486.61 1281.60 L1469.78 1281.60 L1469.78 1284.19 L1452.95 1284.19 L1452.95 1285.68 L1436.12 1285.68 L1436.12 1289.39 L1419.16 1289.39 L1419.16 1292.86 L1402.34 1292.86 L1402.34 1296.20 L1385.51 1296.20 L1385.51 1299.42 L1368.67 1299.42 L1368.67 1304.24 L1351.85 1304.24 L1351.85 1307.46 L1334.89 1307.46 L1334.89 1310.31 L1318.06 1310.31 L1318.06 1312.29 L1301.23 1312.29 L1301.23 1314.76 L1284.40 1314.76 L1284.40 1317.11 L1267.57 1317.11 L1267.57 1320.95 L1250.74 1320.95 L1250.74 1327.38 L1233.79 1327.38 L1233.79 1329.86 L1216.96 1329.86 L1216.96 1332.95 L1200.13 1332.95 L1200.13 1335.68 L1183.30 1335.68 L1183.30 1340.38 L1166.47 1340.38 L1166.47 1344.83 L1149.64 1344.83 L1149.64 1350.15 L1132.68 1350.15 L1132.68 1353.87 L1115.85 1353.87 L1115.85 1358.94 L1099.02 1358.94 L1099.02 1362.16 L1082.19 1362.16 L1082.19 1366.12 L1065.36 1366.12 L1065.36 1371.32 L1048.53 1371.32 L1048.53 1377.01 L1031.58 1377.01 L1031.58 1380.10 L1014.75 1380.10 L1014.75 1382.21 L997.92 1382.21 L997.92 1387.65 L981.09 1387.65 L981.09 1392.73 L964.26 1392.73 L964.26 1397.30 L947.31 1397.30 L947.31 1400.77 L930.48 1400.77 L930.48 1405.60 L913.65 1405.60 L913.65 1409.43 L896.82 1409.43 L896.82 1413.39 L879.99 1413.39 L879.99 1417.48 L863.16 1417.48 L863.16 1422.18 L846.20 1422.18 L846.20 1426.39 L829.37 1426.39 L829.37 1430.47 L812.54 1430.47 L812.54 1433.19 L795.71 1433.19 L795.71 1437.15 L778.88 1437.15 L778.88 1471.56 Z" stroke-linejoin="round"/>
	</defs>
	<defs>
		<clipPath id="clipPath_fIlgYrFG">
			<use xlink:href="#path_snrPVsQg"/>
		</clipPath>
	</defs>
	<use xlink:href="#path_snrPVsQg" style="stroke:none;fill:#999999;fill-opacity:0.75"/>
	<use xlink:href="#path_snrPVsQg" style="fill:none;stroke:#808080;stroke-opacity:0.75;stroke-width:17.28" clip-path="url(#clipPath_fIlgYrFG)"/>
	<path d=" M778.76 1454.36 L795.59 1454.36 L795.59 1452.75 L812.54 1452.75 L812.54 1452.25 L829.37 1452.25 L829.37 1450.64 L846.20 1450.64 L846.20 1448.91 L863.03 1448.91 L863.03 1446.56 L879.86 1446.56 L879.86 1444.95 L896.69 1444.95 L896.69 1443.47 L913.65 1443.47 L913.65 1442.35 L930.48 1442.35 L930.48 1440.00 L947.31 1440.00 L947.31 1439.13 L964.14 1439.13 L964.14 1436.91 L980.97 1436.91 L980.97 1434.31 L997.80 1434.31 L997.80 1431.46 L1014.75 1431.46 L1014.75 1431.96 L1031.58 1431.96 L1031.58 1431.21 L1048.41 1431.21 L1048.41 1428.12 L1065.24 1428.12 L1065.24 1425.40 L1082.07 1425.40 L1082.07 1423.91 L1099.02 1423.91 L1099.02 1423.29 L1115.85 1423.29 L1115.85 1420.94 L1132.68 1420.94 L1132.68 1419.70 L1149.51 1419.70 L1149.51 1416.86 L1166.34 1416.86 L1166.34 1414.88 L1183.17 1414.88 L1183.17 1412.65 L1200.13 1412.65 L1200.13 1412.28 L1216.96 1412.28 L1216.96 1411.66 L1233.79 1411.66 L1233.79 1411.54 L1250.62 1411.54 L1250.62 1407.33 L1267.45 1407.33 L1267.45 1405.97 L1284.28 1405.97 L1284.28 1405.84 L1301.23 1405.84 L1301.23 1405.84 L1318.06 1405.84 L1318.06 1406.22 L1334.89 1406.22 L1334.89 1405.47 L1351.72 1405.47 L1351.72 1404.61 L1368.55 1404.61 L1368.55 1402.01 L1385.51 1402.01 L1385.51 1400.77 L1402.34 1400.77 L1402.34 1399.78 L1419.16 1399.78 L1419.16 1398.54 L1435.99 1398.54 L1435.99 1396.93 L1452.83 1396.93 L1452.83 1397.55 L1469.65 1397.55 L1469.65 1397.06 L1486.61 1397.06 L1486.61 1395.45 L1503.44 1395.45 L1503.44 1394.33 L1520.27 1394.33 L1520.27 1395.08 L1537.10 1395.08 L1537.10 1394.21 L1553.93 1394.21 L1553.93 1392.35 L1570.76 1392.35 L1570.76 1391.74 L1587.71 1391.74 L1587.71 1390.75 L1604.54 1390.75 L1604.54 1391.61 L1621.37 1391.61 L1621.37 1390.99 L1638.20 1390.99 L1638.20 1390.75 L1655.03 1390.75 L1655.03 1390.00 L1671.86 1390.00 L1671.86 1389.38 L1688.82 1389.38 L1688.82 1389.14 L1705.65 1389.14 L1705.65 1386.17 L1722.48 1386.17 L1722.48 1384.43 L1739.31 1384.43 L1739.31 1382.21 L1756.14 1382.21 L1756.14 1381.84 L1773.09 1381.84 L1773.09 1380.10 L1789.92 1380.10 L1789.92 1379.36 L1806.75 1379.36 L1806.75 1378.00 L1823.58 1378.00 L1823.58 1375.90 L1840.41 1375.90 L1840.41 1376.02 L1857.24 1376.02 L1857.24 1374.53 L1874.19 1374.53 L1874.19 1372.18 L1891.02 1372.18 L1891.02 1373.17 L1907.85 1373.17 L1907.85 1372.06 L1924.68 1372.06 L1924.68 1370.95 L1941.51 1370.95 L1941.51 1371.44 L1958.34 1371.44 L1958.34 1367.98 L1975.30 1367.98 L1975.30 1367.60 L1992.13 1367.60 L1992.13 1366.24 L2008.96 1366.24 L2008.96 1364.63 L2025.79 1364.63 L2025.79 1361.79 L2042.62 1361.79 L2042.62 1360.92 L2059.45 1360.92 L2059.45 1360.06 L2076.40 1360.06 L2076.40 1359.19 L2093.23 1359.19 L2093.23 1357.83 L2110.06 1357.83 L2110.06 1356.96 L2126.89 1356.96 L2126.89 1356.96 L2143.72 1356.96 L2143.72 1357.83 L2160.68 1357.83 L2160.68 1356.34 L2177.51 1356.34 L2177.51 1357.83 L2194.34 1357.83 L2194.34 1357.95 L2211.16 1357.95 L2211.16 1358.07 L2227.99 1358.07 L2227.99 1358.20 L2244.82 1358.20 L2244.82 1359.19 L2261.78 1359.19 L2261.78 1358.82 L2278.61 1358.82 L2278.61 1357.70 L2295.44 1357.70 L2295.44 1357.46 L2312.27 1357.46 L2312.27 1356.34 L2329.10 1356.34 L2329.10 1353.37 L2345.93 1353.37 L2345.93 1353.25 L2362.88 1353.25 L2362.88 1352.75 L2379.71 1352.75 L2379.71 1353.50 L2396.54 1353.50 L2396.54 1353.25 L2413.37 1353.25 L2413.37 1353.50 L2430.20 1353.50 L2430.20 1354.11 L2447.16 1354.11 L2447.16 1353.99 L2463.99 1353.99 L2463.99 1354.24 L2480.82 1354.24 L2480.82 1354.49 L2497.65 1354.49 L2497.65 1354.86 L2514.48 1354.86 L2514.48 1355.35 L2531.31 1355.35 L2531.31 1354.61 L2548.26 1354.61 L2548.26 1352.51 L2565.09 1352.51 L2565.09 1352.01 L2581.92 1352.01 L2581.92 1352.13 L2598.75 1352.13 L2598.75 1352.13 L2615.58 1352.13 L2615.58 1351.02 L2632.41 1351.02 L2632.41 1350.28 L2649.36 1350.28 L2649.36 1350.53 L2666.19 1350.53 L2666.19 1351.14 L2683.02 1351.14 L2683.02 1349.91 L2699.85 1349.91 L2699.85 1349.54 L2716.68 1349.54 L2716.68 1348.05 L2733.51 1348.05 L2733.51 1347.80 L2750.47 1347.80 L2750.47 1346.69 L2767.30 1346.69 L2767.30 1345.82 L2784.13 1345.82 L2784.13 1345.70 L2800.96 1345.70 L2800.96 1343.72 L2817.79 1343.72 L2817.79 1342.23 L2834.74 1342.23 L2834.74 1342.85 L2851.57 1342.85 L2851.57 1341.49 L2868.40 1341.49 L2868.40 1341.12 L2885.23 1341.12 L2885.23 1340.50 L2902.06 1340.50 L2902.06 1339.26 L2918.89 1339.26 L2918.89 1339.02 L2935.84 1339.02 L2935.84 1337.90 L2952.68 1337.90 L2952.68 1336.79 L2969.51 1336.79 L2969.51 1336.67 L2986.34 1336.67 L2986.34 1336.29 L3003.16 1336.29 L3003.16 1335.92 L3019.99 1335.92 L3019.99 1336.42 L3036.95 1336.42 L3036.95 1335.92 L3053.78 1335.92 L3053.78 1336.05 L3070.61 1336.05 L3070.61 1335.80 L3087.44 1335.80 L3087.44 1335.43 L3104.27 1335.43 L3104.27 1334.81 L3121.10 1334.81 L3121.10 1335.55 L3138.05 1335.55 L3138.05 1335.18 L3154.88 1335.18 L3154.88 1335.06 L3171.71 1335.06 L3171.71 1334.07 L3188.54 1334.07 L3188.54 1332.83 L3205.37 1332.83 L3205.37 1332.21 L3222.33 1332.21 L3222.33 1332.58 L3239.16 1332.58 L3239.16 1330.35 L3255.99 1330.35 L3255.99 1329.61 L3272.82 1329.61 L3272.82 1329.24 L3289.65 1329.24 L3289.65 1329.24 L3306.48 1329.24 L3306.48 1329.61 L3323.43 1329.61 L3323.43 1329.61 L3340.26 1329.61 L3340.26 1329.12 L3357.09 1329.12 L3357.09 1328.99 L3373.92 1328.99 L3373.92 1328.62 L3390.75 1328.62 L3390.75 1328.25 L3407.58 1328.25 L3407.58 1329.74 L3424.53 1329.74 L3424.53 1330.11 L3441.36 1330.11 L3441.36 1330.23 L3458.19 1330.23 L3458.19 1330.23 L3475.02 1330.23 L3475.02 1329.36 L3491.85 1329.36 L3491.85 1329.61 L3508.81 1329.61 L3508.81 1330.85 L3525.64 1330.85 L3525.64 1330.85 L3542.47 1330.85 L3542.47 1330.60 L3559.30 1330.60 L3559.30 1331.47 L3576.13 1331.47 L3576.13 1331.22 L3592.96 1331.22 L3592.96 1330.23 L3609.91 1330.23 L3609.91 1328.99 L3626.74 1328.99 L3626.74 1329.36 L3643.57 1329.36 L3643.57 1328.13 L3660.40 1328.13 L3660.40 1327.76 L3677.23 1327.76 L3677.23 1327.63 L3694.06 1327.63 L3694.06 1326.52 L3711.01 1326.52 L3711.01 1327.26 L3727.84 1327.26 L3727.84 1328.00 L3744.68 1328.00 L3744.68 1328.62 L3761.51 1328.62 L3761.51 1328.75 L3778.34 1328.75 L3778.34 1328.99 L3795.16 1328.99 L3795.16 1327.63" stroke-linejoin="round" style="fill:none;stroke:#000000;stroke-width:8.64"/>
	<defs>
		<path id="path_UahcknKo" d="M778.88 1473.54 L778.88 1473.54 L795.71 1473.54 L795.71 1472.55 L812.54 1472.55 L812.54 1472.79 L829.37 1472.79 L829.37 1472.42 L846.20 1472.42 L846.20 1472.67 L863.16 1472.67 L863.16 1473.78 L879.99 1473.78 L879.99 1475.64 L896.82 1475.64 L896.82 1477.37 L913.65 1477.37 L913.65 1479.23 L930.48 1479.23 L930.48 1481.83 L947.31 1481.83 L947.31 1483.93 L964.26 1483.93 L964.26 1485.91 L981.09 1485.91 L981.09 1484.80 L997.92 1484.80 L997.92 1485.54 L1014.75 1485.54 L1014.75 1487.52 L1031.58 1487.52 L1031.58 1489.75 L1048.53 1489.75 L1048.53 1490.24 L1065.36 1490.24 L1065.36 1491.48 L1082.19 1491.48 L1082.19 1493.71 L1099.02 1493.71 L1099.02 1492.97 L1115.85 1492.97 L1115.85 1496.06 L1132.68 1496.06 L1132.68 1499.03 L1149.64 1499.03 L1149.64 1498.78 L1166.47 1498.78 L1166.47 1502.62 L1183.30 1502.62 L1183.30 1505.22 L1200.13 1505.22 L1200.13 1509.05 L1216.96 1509.05 L1216.96 1510.79 L1233.79 1510.79 L1233.79 1512.52 L1250.74 1512.52 L1250.74 1515.61 L1267.57 1515.61 L1267.57 1516.73 L1284.40 1516.73 L1284.40 1518.83 L1301.23 1518.83 L1301.23 1520.69 L1318.06 1520.69 L1318.06 1523.29 L1334.89 1523.29 L1334.89 1523.16 L1351.85 1523.16 L1351.85 1527.00 L1368.67 1527.00 L1368.67 1528.61 L1385.51 1528.61 L1385.51 1530.46 L1402.34 1530.46 L1402.34 1533.06 L1419.16 1533.06 L1419.16 1534.55 L1436.12 1534.55 L1436.12 1537.77 L1452.95 1537.77 L1452.95 1538.51 L1469.78 1538.51 L1469.78 1539.25 L1486.61 1539.25 L1486.61 1539.62 L1503.44 1539.62 L1503.44 1539.75 L1520.27 1539.75 L1520.27 1541.73 L1537.22 1541.73 L1537.22 1542.22 L1554.05 1542.22 L1554.05 1545.69 L1570.88 1545.69 L1570.88 1547.29 L1587.71 1547.29 L1587.71 1548.90 L1604.54 1548.90 L1604.54 1548.66 L1621.37 1548.66 L1621.37 1550.39 L1638.33 1550.39 L1638.33 1551.75 L1655.16 1551.75 L1655.16 1551.87 L1671.99 1551.87 L1671.99 1553.85 L1688.82 1553.85 L1688.82 1554.47 L1705.65 1554.47 L1705.65 1555.09 L1722.48 1555.09 L1722.48 1555.34 L1739.43 1555.34 L1739.43 1557.07 L1756.26 1557.07 L1756.26 1557.69 L1773.09 1557.69 L1773.09 1557.57 L1789.92 1557.57 L1789.92 1558.43 L1806.75 1558.43 L1806.75 1558.18 L1823.70 1558.18 L1823.70 1558.80 L1840.53 1558.80 L1840.53 1559.67 L1857.36 1559.67 L1857.36 1559.79 L1874.19 1559.79 L1874.19 1558.43 L1891.02 1558.43 L1891.02 1560.66 L1907.85 1560.66 L1907.85 1561.40 L1924.81 1561.40 L1924.81 1564.00 L1941.64 1564.00 L1941.64 1565.98 L1958.47 1565.98 L1958.47 1566.85 L1975.30 1566.85 L1975.30 1568.33 L1992.13 1568.33 L1992.13 1569.20 L2008.96 1569.20 L2008.96 1570.68 L2025.91 1570.68 L2025.91 1573.41 L2042.74 1573.41 L2042.74 1573.65 L2059.57 1573.65 L2059.57 1574.77 L2076.40 1574.77 L2076.40 1574.27 L2093.23 1574.27 L2093.23 1575.39 L2110.18 1575.39 L2110.18 1575.76 L2127.01 1575.76 L2127.01 1574.89 L2143.84 1574.89 L2143.84 1574.89 L2160.68 1574.89 L2160.68 1576.87 L2177.51 1576.87 L2177.51 1577.00 L2194.34 1577.00 L2194.34 1577.24 L2211.29 1577.24 L2211.29 1578.36 L2228.12 1578.36 L2228.12 1579.84 L2244.95 1579.84 L2244.95 1581.08 L2261.78 1581.08 L2261.78 1581.57 L2278.61 1581.57 L2278.61 1582.69 L2295.44 1582.69 L2295.44 1584.17 L2312.39 1584.17 L2312.39 1585.53 L2329.22 1585.53 L2329.22 1586.03 L2346.05 1586.03 L2346.05 1587.51 L2362.88 1587.51 L2362.88 1587.89 L2379.71 1587.89 L2379.71 1587.27 L2396.54 1587.27 L2396.54 1588.13 L2413.50 1588.13 L2413.50 1589.49 L2430.33 1589.49 L2430.33 1589.49 L2447.16 1589.49 L2447.16 1589.25 L2463.99 1589.25 L2463.99 1590.61 L2480.82 1590.61 L2480.82 1590.98 L2497.77 1590.98 L2497.77 1592.46 L2514.60 1592.46 L2514.60 1593.70 L2531.43 1593.70 L2531.43 1593.45 L2548.26 1593.45 L2548.26 1593.21 L2565.09 1593.21 L2565.09 1593.08 L2581.92 1593.08 L2581.92 1592.46 L2598.87 1592.46 L2598.87 1591.97 L2615.70 1591.97 L2615.70 1591.72 L2632.53 1591.72 L2632.53 1593.08 L2649.36 1593.08 L2649.36 1593.45 L2666.19 1593.45 L2666.19 1593.70 L2683.02 1593.70 L2683.02 1594.20 L2699.98 1594.20 L2699.98 1595.43 L2716.81 1595.43 L2716.81 1596.05 L2733.64 1596.05 L2733.64 1596.67 L2750.47 1596.67 L2750.47 1596.18 L2767.30 1596.18 L2767.30 1597.54 L2784.25 1597.54 L2784.25 1598.16 L2801.08 1598.16 L2801.08 1599.39 L2817.91 1599.39 L2817.91 1599.15 L2834.74 1599.15 L2834.74 1599.64 L2851.57 1599.64 L2851.57 1599.64 L2868.40 1599.64 L2868.40 1598.78 L2885.36 1598.78 L2885.36 1598.65 L2902.18 1598.65 L2902.18 1599.39 L2919.01 1599.39 L2919.01 1599.77 L2935.84 1599.77 L2935.84 1599.89 L2952.68 1599.89 L2952.68 1600.51 L2969.51 1600.51 L2969.51 1601.62 L2986.46 1601.62 L2986.46 1602.24 L3003.29 1602.24 L3003.29 1602.37 L3020.12 1602.37 L3020.12 1602.49 L3036.95 1602.49 L3036.95 1603.36 L3053.78 1603.36 L3053.78 1603.97 L3070.61 1603.97 L3070.61 1604.72 L3087.56 1604.72 L3087.56 1604.84 L3104.39 1604.84 L3104.39 1605.58 L3121.22 1605.58 L3121.22 1606.08 L3138.05 1606.08 L3138.05 1606.33 L3154.88 1606.33 L3154.88 1607.44 L3171.84 1607.44 L3171.84 1607.44 L3188.67 1607.44 L3188.67 1607.19 L3205.50 1607.19 L3205.50 1608.31 L3222.33 1608.31 L3222.33 1607.93 L3239.16 1607.93 L3239.16 1608.06 L3255.99 1608.06 L3255.99 1607.32 L3272.94 1607.32 L3272.94 1607.93 L3289.77 1607.93 L3289.77 1608.55 L3306.60 1608.55 L3306.60 1609.54 L3323.43 1609.54 L3323.43 1608.80 L3340.26 1608.80 L3340.26 1608.31 L3357.09 1608.31 L3357.09 1608.18 L3374.04 1608.18 L3374.04 1609.42 L3390.87 1609.42 L3390.87 1610.16 L3407.70 1610.16 L3407.70 1611.28 L3424.53 1611.28 L3424.53 1611.65 L3441.36 1611.65 L3441.36 1611.89 L3458.19 1611.89 L3458.19 1613.26 L3475.15 1613.26 L3475.15 1612.88 L3491.98 1612.88 L3491.98 1612.76 L3508.81 1612.76 L3508.81 1613.26 L3525.64 1613.26 L3525.64 1613.87 L3542.47 1613.87 L3542.47 1614.49 L3559.42 1614.49 L3559.42 1614.37 L3576.25 1614.37 L3576.25 1614.25 L3593.08 1614.25 L3593.08 1614.00 L3609.91 1614.00 L3609.91 1614.25 L3626.74 1614.25 L3626.74 1615.36 L3643.57 1615.36 L3643.57 1615.24 L3660.53 1615.24 L3660.53 1615.85 L3677.36 1615.85 L3677.36 1616.84 L3694.18 1616.84 L3694.18 1617.46 L3711.01 1617.46 L3711.01 1619.07 L3727.84 1619.07 L3727.84 1620.19 L3744.68 1620.19 L3744.68 1620.31 L3761.63 1620.31 L3761.63 1621.18 L3778.46 1621.18 L3778.46 1620.93 L3795.29 1620.93 L3795.29 1620.31 L3795.29 1406.96 L3795.29 1408.07 L3778.46 1408.07 L3778.46 1408.57 L3761.63 1408.57 L3761.63 1408.32 L3744.68 1408.32 L3744.68 1408.32 L3727.84 1408.32 L3727.84 1407.45 L3711.01 1407.45 L3711.01 1406.22 L3694.18 1406.22 L3694.18 1406.09 L3677.36 1406.09 L3677.36 1405.23 L3660.53 1405.23 L3660.53 1405.10 L3643.57 1405.10 L3643.57 1405.47 L3626.74 1405.47 L3626.74 1404.73 L3609.91 1404.73 L3609.91 1404.85 L3593.08 1404.85 L3593.08 1405.47 L3576.25 1405.47 L3576.25 1406.09 L3559.42 1406.09 L3559.42 1406.59 L3542.47 1406.59 L3542.47 1406.22 L3525.64 1406.22 L3525.64 1405.84 L3508.81 1405.84 L3508.81 1405.84 L3491.98 1405.84 L3491.98 1406.22 L3475.15 1406.22 L3475.15 1406.96 L3458.19 1406.96 L3458.19 1405.97 L3441.36 1405.97 L3441.36 1406.22 L3424.53 1406.22 L3424.53 1406.22 L3407.70 1406.22 L3407.70 1405.60 L3390.87 1405.60 L3390.87 1405.10 L3374.04 1405.10 L3374.04 1404.36 L3357.09 1404.36 L3357.09 1404.73 L3340.26 1404.73 L3340.26 1405.72 L3323.43 1405.72 L3323.43 1406.83 L3306.60 1406.83 L3306.60 1406.34 L3289.77 1406.34 L3289.77 1406.22 L3272.94 1406.22 L3272.94 1405.97 L3255.99 1405.97 L3255.99 1407.21 L3239.16 1407.21 L3239.16 1407.45 L3222.33 1407.45 L3222.33 1408.20 L3205.50 1408.20 L3205.50 1407.58 L3188.67 1407.58 L3188.67 1408.20 L3171.84 1408.20 L3171.84 1408.57 L3154.88 1408.57 L3154.88 1407.70 L3138.05 1407.70 L3138.05 1407.82 L3121.22 1407.82 L3121.22 1407.82 L3104.39 1407.82 L3104.39 1407.58 L3087.56 1407.58 L3087.56 1407.82 L3070.61 1407.82 L3070.61 1407.58 L3053.78 1407.58 L3053.78 1407.33 L3036.95 1407.33 L3036.95 1406.83 L3020.12 1406.83 L3020.12 1407.08 L3003.29 1407.08 L3003.29 1407.45 L2986.46 1407.45 L2986.46 1407.21 L2969.51 1407.21 L2969.51 1406.59 L2952.68 1406.59 L2952.68 1406.46 L2935.84 1406.46 L2935.84 1406.83 L2919.01 1406.83 L2919.01 1406.96 L2902.18 1406.96 L2902.18 1406.71 L2885.36 1406.71 L2885.36 1407.45 L2868.40 1407.45 L2868.40 1408.81 L2851.57 1408.81 L2851.57 1409.06 L2834.74 1409.06 L2834.74 1409.06 L2817.91 1409.06 L2817.91 1409.80 L2801.08 1409.80 L2801.08 1409.06 L2784.25 1409.06 L2784.25 1409.06 L2767.30 1409.06 L2767.30 1408.44 L2750.47 1408.44 L2750.47 1409.43 L2733.64 1409.43 L2733.64 1409.31 L2716.81 1409.31 L2716.81 1409.31 L2699.98 1409.31 L2699.98 1408.69 L2683.02 1408.69 L2683.02 1408.81 L2666.19 1408.81 L2666.19 1409.19 L2649.36 1409.19 L2649.36 1409.31 L2632.53 1409.31 L2632.53 1408.69 L2615.70 1408.69 L2615.70 1409.31 L2598.87 1409.31 L2598.87 1410.42 L2581.92 1410.42 L2581.92 1411.41 L2565.09 1411.41 L2565.09 1412.03 L2548.26 1412.03 L2548.26 1412.77 L2531.43 1412.77 L2531.43 1413.52 L2514.60 1413.52 L2514.60 1412.65 L2497.77 1412.65 L2497.77 1411.66 L2480.82 1411.66 L2480.82 1411.91 L2463.99 1411.91 L2463.99 1411.04 L2447.16 1411.04 L2447.16 1411.78 L2430.33 1411.78 L2430.33 1412.53 L2413.50 1412.53 L2413.50 1411.54 L2396.54 1411.54 L2396.54 1411.04 L2379.71 1411.04 L2379.71 1412.28 L2362.88 1412.28 L2362.88 1412.77 L2346.05 1412.77 L2346.05 1411.78 L2329.22 1411.78 L2329.22 1412.03 L2312.39 1412.03 L2312.39 1411.17 L2295.44 1411.17 L2295.44 1410.42 L2278.61 1410.42 L2278.61 1410.05 L2261.78 1410.05 L2261.78 1410.30 L2244.95 1410.30 L2244.95 1409.80 L2228.12 1409.80 L2228.12 1409.06 L2211.29 1409.06 L2211.29 1408.32 L2194.34 1408.32 L2194.34 1408.94 L2177.51 1408.94 L2177.51 1409.43 L2160.68 1409.43 L2160.68 1408.07 L2143.84 1408.07 L2143.84 1408.94 L2127.01 1408.94 L2127.01 1410.42 L2110.18 1410.42 L2110.18 1410.92 L2093.23 1410.92 L2093.23 1410.55 L2076.40 1410.55 L2076.40 1411.91 L2059.57 1411.91 L2059.57 1411.66 L2042.74 1411.66 L2042.74 1412.28 L2025.91 1412.28 L2025.91 1410.05 L2008.96 1410.05 L2008.96 1409.56 L1992.13 1409.56 L1992.13 1409.43 L1975.30 1409.43 L1975.30 1408.69 L1958.47 1408.69 L1958.47 1408.69 L1941.64 1408.69 L1941.64 1407.33 L1924.81 1407.33 L1924.81 1405.60 L1907.85 1405.60 L1907.85 1405.84 L1891.02 1405.84 L1891.02 1404.48 L1874.19 1404.48 L1874.19 1406.71 L1857.36 1406.71 L1857.36 1407.45 L1840.53 1407.45 L1840.53 1407.45 L1823.70 1407.45 L1823.70 1407.82 L1806.75 1407.82 L1806.75 1409.06 L1789.92 1409.06 L1789.92 1409.19 L1773.09 1409.19 L1773.09 1410.42 L1756.26 1410.42 L1756.26 1410.67 L1739.43 1410.67 L1739.43 1409.93 L1722.48 1409.93 L1722.48 1410.92 L1705.65 1410.92 L1705.65 1411.66 L1688.82 1411.66 L1688.82 1412.40 L1671.99 1412.40 L1671.99 1411.78 L1655.16 1411.78 L1655.16 1412.77 L1638.33 1412.77 L1638.33 1412.77 L1621.37 1412.77 L1621.37 1412.40 L1604.54 1412.40 L1604.54 1414.26 L1587.71 1414.26 L1587.71 1414.26 L1570.88 1414.26 L1570.88 1414.14 L1554.05 1414.14 L1554.05 1412.28 L1537.22 1412.28 L1537.22 1413.15 L1520.27 1413.15 L1520.27 1412.90 L1503.44 1412.90 L1503.44 1414.26 L1486.61 1414.26 L1486.61 1415.62 L1469.78 1415.62 L1469.78 1416.49 L1452.95 1416.49 L1452.95 1417.72 L1436.12 1417.72 L1436.12 1416.36 L1419.16 1416.36 L1419.16 1416.61 L1402.34 1416.61 L1402.34 1416.12 L1385.51 1416.12 L1385.51 1416.36 L1368.67 1416.36 L1368.67 1416.73 L1351.85 1416.73 L1351.85 1415.13 L1334.89 1415.13 L1334.89 1417.72 L1318.06 1417.72 L1318.06 1417.35 L1301.23 1417.35 L1301.23 1417.97 L1284.40 1417.97 L1284.40 1418.22 L1267.57 1418.22 L1267.57 1419.70 L1250.74 1419.70 L1250.74 1418.96 L1233.79 1418.96 L1233.79 1419.83 L1216.96 1419.83 L1216.96 1420.94 L1200.13 1420.94 L1200.13 1419.83 L1183.30 1419.83 L1183.30 1420.20 L1166.47 1420.20 L1166.47 1419.09 L1149.64 1419.09 L1149.64 1422.30 L1132.68 1422.30 L1132.68 1422.06 L1115.85 1422.06 L1115.85 1421.81 L1099.02 1421.81 L1099.02 1425.40 L1082.19 1425.40 L1082.19 1425.89 L1065.36 1425.89 L1065.36 1427.87 L1048.53 1427.87 L1048.53 1430.22 L1031.58 1430.22 L1031.58 1430.72 L1014.75 1430.72 L1014.75 1431.34 L997.92 1431.34 L997.92 1433.44 L981.09 1433.44 L981.09 1437.40 L964.26 1437.40 L964.26 1438.27 L947.31 1438.27 L947.31 1439.01 L930.48 1439.01 L930.48 1439.38 L913.65 1439.38 L913.65 1440.25 L896.82 1440.25 L896.82 1441.24 L879.99 1441.24 L879.99 1442.10 L863.16 1442.10 L863.16 1443.47 L846.20 1443.47 L846.20 1445.94 L829.37 1445.94 L829.37 1448.66 L812.54 1448.66 L812.54 1450.77 L795.71 1450.77 L795.71 1454.23 L778.88 1454.23 L778.88 1473.54 Z" stroke-linejoin="round"/>
	</defs>
	<defs>
		<clipPath id="clipPath_hRcEnBAb">
			<use xlink:href="#path_UahcknKo"/>
		</clipPath>
	</defs>
	<use xlink:href="#path_UahcknKo" style="stroke:none;fill:#999999;fill-opacity:0.35"/>
	<use xlink:href="#path_UahcknKo" style="fill:none;stroke:#808080;stroke-opacity:0.35;stroke-width:17.28" clip-path="url(#clipPath_hRcEnBAb)"/>
	<path d=" M778.76 1464.01 L795.59 1464.01 L795.59 1461.78 L812.54 1461.78 L812.54 1460.79 L829.37 1460.79 L829.37 1459.18 L846.20 1459.18 L846.20 1458.07 L863.03 1458.07 L863.03 1458.07 L879.86 1458.07 L879.86 1458.44 L896.69 1458.44 L896.69 1458.81 L913.65 1458.81 L913.65 1459.31 L930.48 1459.31 L930.48 1460.42 L947.31 1460.42 L947.31 1461.16 L964.14 1461.16 L964.14 1461.66 L980.97 1461.66 L980.97 1459.18 L997.80 1459.18 L997.80 1458.56 L1014.75 1458.56 L1014.75 1459.18 L1031.58 1459.18 L1031.58 1460.05 L1048.41 1460.05 L1048.41 1459.06 L1065.24 1459.06 L1065.24 1458.69 L1082.07 1458.69 L1082.07 1459.68 L1099.02 1459.68 L1099.02 1457.45 L1115.85 1457.45 L1115.85 1459.18 L1132.68 1459.18 L1132.68 1460.67 L1149.51 1460.67 L1149.51 1459.06 L1166.34 1459.06 L1166.34 1461.41 L1183.17 1461.41 L1183.17 1462.65 L1200.13 1462.65 L1200.13 1465.12 L1216.96 1465.12 L1216.96 1465.37 L1233.79 1465.37 L1233.79 1465.74 L1250.62 1465.74 L1250.62 1467.72 L1267.45 1467.72 L1267.45 1467.60 L1284.28 1467.60 L1284.28 1468.46 L1301.23 1468.46 L1301.23 1469.08 L1318.06 1469.08 L1318.06 1470.57 L1334.89 1470.57 L1334.89 1469.21 L1351.72 1469.21 L1351.72 1471.93 L1368.55 1471.93 L1368.55 1472.55 L1385.51 1472.55 L1385.51 1473.41 L1402.34 1473.41 L1402.34 1474.90 L1419.16 1474.90 L1419.16 1475.52 L1435.99 1475.52 L1435.99 1477.87 L1452.83 1477.87 L1452.83 1477.62 L1469.65 1477.62 L1469.65 1477.50 L1486.61 1477.50 L1486.61 1477.00 L1503.44 1477.00 L1503.44 1476.38 L1520.27 1476.38 L1520.27 1477.50 L1537.10 1477.50 L1537.10 1477.37 L1553.93 1477.37 L1553.93 1479.97 L1570.76 1479.97 L1570.76 1480.84 L1587.71 1480.84 L1587.71 1481.71 L1604.54 1481.71 L1604.54 1480.59 L1621.37 1480.59 L1621.37 1481.71 L1638.20 1481.71 L1638.20 1482.32 L1655.03 1482.32 L1655.03 1481.95 L1671.86 1481.95 L1671.86 1483.19 L1688.82 1483.19 L1688.82 1483.19 L1705.65 1483.19 L1705.65 1483.07 L1722.48 1483.07 L1722.48 1482.70 L1739.31 1482.70 L1739.31 1483.93 L1756.14 1483.93 L1756.14 1484.18 L1773.09 1484.18 L1773.09 1483.44 L1789.92 1483.44 L1789.92 1483.81 L1806.75 1483.81 L1806.75 1483.07 L1823.58 1483.07 L1823.58 1483.19 L1840.41 1483.19 L1840.41 1483.69 L1857.24 1483.69 L1857.24 1483.31 L1874.19 1483.31 L1874.19 1481.58 L1891.02 1481.58 L1891.02 1483.31 L1907.85 1483.31 L1907.85 1483.56 L1924.68 1483.56 L1924.68 1485.67 L1941.51 1485.67 L1941.51 1487.40 L1958.34 1487.40 L1958.34 1487.89 L1975.30 1487.89 L1975.30 1488.88 L1992.13 1488.88 L1992.13 1489.50 L2008.96 1489.50 L2008.96 1490.49 L2025.79 1490.49 L2025.79 1492.84 L2042.62 1492.84 L2042.62 1492.72 L2059.45 1492.72 L2059.45 1493.46 L2076.40 1493.46 L2076.40 1492.47 L2093.23 1492.47 L2093.23 1493.21 L2110.06 1493.21 L2110.06 1493.21 L2126.89 1493.21 L2126.89 1491.98 L2143.72 1491.98 L2143.72 1491.61 L2160.68 1491.61 L2160.68 1493.21 L2177.51 1493.21 L2177.51 1492.97 L2194.34 1492.97 L2194.34 1492.84 L2211.16 1492.84 L2211.16 1493.71 L2227.99 1493.71 L2227.99 1494.95 L2244.82 1494.95 L2244.82 1495.81 L2261.78 1495.81 L2261.78 1495.81 L2278.61 1495.81 L2278.61 1496.68 L2295.44 1496.68 L2295.44 1497.79 L2312.27 1497.79 L2312.27 1498.91 L2329.10 1498.91 L2329.10 1499.03 L2345.93 1499.03 L2345.93 1500.27 L2362.88 1500.27 L2362.88 1500.14 L2379.71 1500.14 L2379.71 1499.28 L2396.54 1499.28 L2396.54 1499.90 L2413.37 1499.90 L2413.37 1501.13 L2430.20 1501.13 L2430.20 1500.64 L2447.16 1500.64 L2447.16 1500.14 L2463.99 1500.14 L2463.99 1501.38 L2480.82 1501.38 L2480.82 1501.38 L2497.65 1501.38 L2497.65 1502.62 L2514.48 1502.62 L2514.48 1503.61 L2531.31 1503.61 L2531.31 1503.24 L2548.26 1503.24 L2548.26 1502.74 L2565.09 1502.74 L2565.09 1502.37 L2581.92 1502.37 L2581.92 1501.51 L2598.75 1501.51 L2598.75 1500.76 L2615.58 1500.76 L2615.58 1500.27 L2632.41 1500.27 L2632.41 1501.38 L2649.36 1501.38 L2649.36 1501.38 L2666.19 1501.38 L2666.19 1501.26 L2683.02 1501.26 L2683.02 1501.63 L2699.85 1501.63 L2699.85 1502.50 L2716.68 1502.50 L2716.68 1502.74 L2733.51 1502.74 L2733.51 1503.24 L2750.47 1503.24 L2750.47 1502.37 L2767.30 1502.37 L2767.30 1503.36 L2784.13 1503.36 L2784.13 1503.73 L2800.96 1503.73 L2800.96 1504.72 L2817.79 1504.72 L2817.79 1504.10 L2834.74 1504.10 L2834.74 1504.48 L2851.57 1504.48 L2851.57 1504.35 L2868.40 1504.35 L2868.40 1503.11 L2885.23 1503.11 L2885.23 1502.74 L2902.06 1502.74 L2902.06 1503.24 L2918.89 1503.24 L2918.89 1503.36 L2935.84 1503.36 L2935.84 1503.24 L2952.68 1503.24 L2952.68 1503.61 L2969.51 1503.61 L2969.51 1504.48 L2986.34 1504.48 L2986.34 1504.97 L3003.16 1504.97 L3003.16 1504.85 L3019.99 1504.85 L3019.99 1504.72 L3036.95 1504.72 L3036.95 1505.47 L3053.78 1505.47 L3053.78 1505.84 L3070.61 1505.84 L3070.61 1506.33 L3087.44 1506.33 L3087.44 1506.33 L3104.27 1506.33 L3104.27 1506.83 L3121.10 1506.83 L3121.10 1507.07 L3138.05 1507.07 L3138.05 1507.07 L3154.88 1507.07 L3154.88 1508.06 L3171.71 1508.06 L3171.71 1507.94 L3188.54 1507.94 L3188.54 1507.45 L3205.37 1507.45 L3205.37 1508.31 L3222.33 1508.31 L3222.33 1507.82 L3239.16 1507.82 L3239.16 1507.82 L3255.99 1507.82 L3255.99 1506.70 L3272.82 1506.70 L3272.82 1507.20 L3289.65 1507.20 L3289.65 1507.57 L3306.48 1507.57 L3306.48 1508.19 L3323.43 1508.19 L3323.43 1507.32 L3340.26 1507.32 L3340.26 1506.58 L3357.09 1506.58 L3357.09 1506.33 L3373.92 1506.33 L3373.92 1507.32 L3390.75 1507.32 L3390.75 1507.94 L3407.58 1507.94 L3407.58 1508.81 L3424.53 1508.81 L3424.53 1509.05 L3441.36 1509.05 L3441.36 1508.93 L3458.19 1508.93 L3458.19 1510.17 L3475.02 1510.17 L3475.02 1509.67 L3491.85 1509.67 L3491.85 1509.43 L3508.81 1509.43 L3508.81 1509.67 L3525.64 1509.67 L3525.64 1510.17 L3542.47 1510.17 L3542.47 1510.66 L3559.30 1510.66 L3559.30 1510.29 L3576.13 1510.29 L3576.13 1509.92 L3592.96 1509.92 L3592.96 1509.55 L3609.91 1509.55 L3609.91 1509.67 L3626.74 1509.67 L3626.74 1510.54 L3643.57 1510.54 L3643.57 1510.29 L3660.40 1510.29 L3660.40 1510.66 L3677.23 1510.66 L3677.23 1511.53 L3694.06 1511.53 L3694.06 1511.90 L3711.01 1511.90 L3711.01 1513.39 L3727.84 1513.39 L3727.84 1514.38 L3744.68 1514.38 L3744.68 1514.38 L3761.51 1514.38 L3761.51 1514.99 L3778.34 1514.99 L3778.34 1514.62 L3795.16 1514.62 L3795.16 1513.76" stroke-linejoin="round" style="fill:none;stroke:#808080;stroke-width:8.64"/>
	<line x1="559.10" y1="2509.23" x2="559.10" y2="419.90" style="stroke:#000000;stroke-width:5.76"/>
	<line x1="559.10" y1="2445.87" x2="519.13" y2="2445.87" style="stroke:#000000;stroke-width:5.76"/>
	<text x="499.08" y="2480.90" style="font-family:'Helvetica';font-size:99.99px;fill:#000000" text-anchor="end">-0.25</text>
	<line x1="559.10" y1="2249.60" x2="519.13" y2="2249.60" style="stroke:#000000;stroke-width:5.76"/>
	<text x="499.08" y="2284.63" style="font-family:'Helvetica';font-size:99.99px;fill:#000000" text-anchor="end">-0.20</text>
	<line x1="559.10" y1="2053.32" x2="519.13" y2="2053.32" style="stroke:#000000;stroke-width:5.76"/>
	<text x="499.08" y="2088.35" style="font-family:'Helvetica';font-size:99.99px;fill:#000000" text-anchor="end">-0.15</text>
	<line x1="559.10" y1="1857.05" x2="519.13" y2="1857.05" style="stroke:#000000;stroke-width:5.76"/>
	<text x="499.08" y="1892.08" style="font-family:'Helvetica';font-size:99.99px;fill:#000000" text-anchor="end">-0.10</text>
	<line x1="559.10" y1="1660.78" x2="519.13" y2="1660.78" style="stroke:#000000;stroke-width:5.76"/>
	<text x="499.08" y="1695.81" style="font-family:'Helvetica';font-size:99.99px;fill:#000000" text-anchor="end">-0.05</text>
	<line x1="559.10" y1="1464.63" x2="519.13" y2="1464.63" style="stroke:#000000;stroke-width:5.76"/>
	<text x="499.08" y="1499.66" style="font-family:'Helvetica';font-size:99.99px;fill:#000000" text-anchor="end">0.00</text>
	<line x1="559.10" y1="1268.35" x2="519.13" y2="1268.35" style="stroke:#000000;stroke-width:5.76"/>
	<text x="499.08" y="1303.38" style="font-family:'Helvetica';font-size:99.99px;fill:#000000" text-anchor="end">0.05</text>
	<line x1="559.10" y1="1072.08" x2="519.13" y2="1072.08" style="stroke:#000000;stroke-width:5.76"/>
	<text x="499.08" y="1107.11" style="font-family:'Helvetica';font-size:99.99px;fill:#000000" text-anchor="end">0.10</text>
	<line x1="559.10" y1="875.81" x2="519.13" y2="875.81" style="stroke:#000000;stroke-width:5.76"/>
	<text x="499.08" y="910.83" style="font-family:'Helvetica';font-size:99.99px;fill:#000000" text-anchor="end">0.15</text>
	<line x1="559.10" y1="679.53" x2="519.13" y2="679.53" style="stroke:#000000;stroke-width:5.76"/>
	<text x="499.08" y="714.56" style="font-family:'Helvetica';font-size:99.99px;fill:#000000" text-anchor="end">0.20</text>
	<line x1="559.10" y1="483.26" x2="519.13" y2="483.26" style="stroke:#000000;stroke-width:5.76"/>
	<text x="499.08" y="518.29" style="font-family:'Helvetica';font-size:99.99px;fill:#000000" text-anchor="end">0.25</text>
	<text x="190.71" y="1464.63" style="font-family:'Helvetica';font-size:99.99px;fill:#000000" transform="rotate(-90 190.71,1464.63)" text-anchor="middle">Difference in Probabilities</text>
	<line x1="559.10" y1="2509.23" x2="3859.02" y2="2509.23" style="stroke:#000000;stroke-width:5.76"/>
	<line x1="622.46" y1="2509.23" x2="622.46" y2="2549.21" style="stroke:#000000;stroke-width:5.76"/>
	<text x="622.46" y="2625.15" style="font-family:'Helvetica';font-size:79.94px;fill:#000000" text-anchor="middle">0</text>
	<line x1="812.91" y1="2509.23" x2="812.91" y2="2549.21" style="stroke:#000000;stroke-width:5.76"/>
	<text x="812.91" y="2625.15" style="font-family:'Helvetica';font-size:79.94px;fill:#000000" text-anchor="middle">.3</text>
	<line x1="1003.24" y1="2509.23" x2="1003.24" y2="2549.21" style="stroke:#000000;stroke-width:5.76"/>
	<text x="1003.24" y="2625.15" style="font-family:'Helvetica';font-size:79.94px;fill:#000000" text-anchor="middle">.6</text>
	<line x1="1193.69" y1="2509.23" x2="1193.69" y2="2549.21" style="stroke:#000000;stroke-width:5.76"/>
	<text x="1193.69" y="2625.15" style="font-family:'Helvetica';font-size:79.94px;fill:#000000" text-anchor="middle">.9</text>
	<line x1="1384.02" y1="2509.23" x2="1384.02" y2="2549.21" style="stroke:#000000;stroke-width:5.76"/>
	<text x="1384.02" y="2625.15" style="font-family:'Helvetica';font-size:79.94px;fill:#000000" text-anchor="middle">1.2</text>
	<line x1="1574.47" y1="2509.23" x2="1574.47" y2="2549.21" style="stroke:#000000;stroke-width:5.76"/>
	<text x="1574.47" y="2625.15" style="font-family:'Helvetica';font-size:79.94px;fill:#000000" text-anchor="middle">1.5</text>
	<line x1="1764.80" y1="2509.23" x2="1764.80" y2="2549.21" style="stroke:#000000;stroke-width:5.76"/>
	<text x="1764.80" y="2625.15" style="font-family:'Helvetica';font-size:79.94px;fill:#000000" text-anchor="middle">1.8</text>
	<line x1="1955.25" y1="2509.23" x2="1955.25" y2="2549.21" style="stroke:#000000;stroke-width:5.76"/>
	<text x="1955.25" y="2625.15" style="font-family:'Helvetica';font-size:79.94px;fill:#000000" text-anchor="middle">2.1</text>
	<line x1="2145.58" y1="2509.23" x2="2145.58" y2="2549.21" style="stroke:#000000;stroke-width:5.76"/>
	<text x="2145.58" y="2625.15" style="font-family:'Helvetica';font-size:79.94px;fill:#000000" text-anchor="middle">2.4</text>
	<line x1="2336.03" y1="2509.23" x2="2336.03" y2="2549.21" style="stroke:#000000;stroke-width:5.76"/>
	<text x="2336.03" y="2625.15" style="font-family:'Helvetica';font-size:79.94px;fill:#000000" text-anchor="middle">2.7</text>
	<line x1="2526.48" y1="2509.23" x2="2526.48" y2="2549.21" style="stroke:#000000;stroke-width:5.76"/>
	<text x="2526.48" y="2625.15" style="font-family:'Helvetica';font-size:79.94px;fill:#000000" text-anchor="middle">3</text>
	<line x1="2716.81" y1="2509.23" x2="2716.81" y2="2549.21" style="stroke:#000000;stroke-width:5.76"/>
	<text x="2716.81" y="2625.15" style="font-family:'Helvetica';font-size:79.94px;fill:#000000" text-anchor="middle">3.3</text>
	<line x1="2907.26" y1="2509.23" x2="2907.26" y2="2549.21" style="stroke:#000000;stroke-width:5.76"/>
	<text x="2907.26" y="2625.15" style="font-family:'Helvetica';font-size:79.94px;fill:#000000" text-anchor="middle">3.6</text>
	<line x1="3097.59" y1="2509.23" x2="3097.59" y2="2549.21" style="stroke:#000000;stroke-width:5.76"/>
	<text x="3097.59" y="2625.15" style="font-family:'Helvetica';font-size:79.94px;fill:#000000" text-anchor="middle">3.9</text>
	<line x1="3288.04" y1="2509.23" x2="3288.04" y2="2549.21" style="stroke:#000000;stroke-width:5.76"/>
	<text x="3288.04" y="2625.15" style="font-family:'Helvetica';font-size:79.94px;fill:#000000" text-anchor="middle">4.2</text>
	<line x1="3478.36" y1="2509.23" x2="3478.36" y2="2549.21" style="stroke:#000000;stroke-width:5.76"/>
	<text x="3478.36" y="2625.15" style="font-family:'Helvetica';font-size:79.94px;fill:#000000" text-anchor="middle">4.5</text>
	<line x1="3668.82" y1="2509.23" x2="3668.82" y2="2549.21" style="stroke:#000000;stroke-width:5.76"/>
	<text x="3668.82" y="2625.15" style="font-family:'Helvetica';font-size:79.94px;fill:#000000" text-anchor="middle">4.8</text>
	<line x1="3859.14" y1="2509.23" x2="3859.14" y2="2549.21" style="stroke:#000000;stroke-width:5.76"/>
	<text x="3859.14" y="2625.15" style="font-family:'Helvetica';font-size:79.94px;fill:#000000" text-anchor="middle">5.1</text>
	<text x="2209.06" y="2729.16" style="font-family:'Helvetica';font-size:99.99px;fill:#000000" text-anchor="middle">Time (years)</text>
	<rect x="2519.18" y="1868.31" width="1305.32" height="606.39" style="fill:#FFFFFF"/>
	<rect x="2522.06" y="1871.19" width="1299.56" height="600.63" style="fill:none;stroke:#000000;stroke-width:5.76"/>
	<rect x="2562.37" y="1911.50" width="374.34" height="99.99" style="fill:#999999;fill-opacity:0.75"/>
	<rect x="2566.69" y="1915.82" width="365.70" height="91.35" style="fill:none;stroke:#808080;stroke-opacity:0.75;stroke-width:8.64"/>
	<line x1="2562.37" y1="2101.46" x2="2936.71" y2="2101.46" style="stroke:#000000;stroke-width:8.64"/>
	<rect x="2562.37" y="2191.43" width="374.34" height="99.99" style="fill:#999999;fill-opacity:0.35"/>
	<rect x="2566.69" y="2195.75" width="365.70" height="91.35" style="fill:none;stroke:#808080;stroke-opacity:0.35;stroke-width:8.64"/>
	<line x1="2562.37" y1="2381.52" x2="2936.71" y2="2381.52" style="stroke:#808080;stroke-width:8.64"/>
	<text x="2996.73" y="1996.53" style="font-family:'Helvetica';font-size:99.99px;fill:#000000">CI95%</text>
	<text x="2996.73" y="2136.49" style="font-family:'Helvetica';font-size:99.99px;fill:#000000">Difference (TC)</text>
	<text x="2996.73" y="2276.46" style="font-family:'Helvetica';font-size:99.99px;fill:#000000">CI95%</text>
	<text x="2996.73" y="2416.55" style="font-family:'Helvetica';font-size:99.99px;fill:#000000">Difference (TNC)</text>
	<text x="2209.06" y="369.63" style="font-family:'Helvetica';font-size:110.01px;fill:#000000" text-anchor="middle">from First to Second Readmission (RP)</text>
	<text x="2209.06" y="215.98" style="font-family:'Helvetica';font-size:139.96px;fill:#1E2D53" text-anchor="middle">Difference in Probabilities at 2 years</text>
</svg>
