<?xml version="1.0" encoding="UTF-8" standalone="no"?>
<!-- This is a Stata 16.1 generated SVG file (http://www.stata.com) -->

<svg version="1.1" width="5.50in" height="4.00in" viewBox="0 0 3960 2880" xmlns="http://www.w3.org/2000/svg" xmlns:xlink="http://www.w3.org/1999/xlink">
	<desc>Stata Graph - diff_mod34rp_3y</desc>
	<rect x="0" y="0" width="3960" height="2880" style="fill:#EAF2F3;stroke:none"/>
	<rect x="0.00" y="0.00" width="3959.88" height="2880.00" style="fill:#FFFFFF"/>
	<rect x="2.88" y="2.88" width="3954.12" height="2874.24" style="fill:none;stroke:#FFFFFF;stroke-width:5.76"/>
	<rect x="559.10" y="419.90" width="3299.92" height="2089.34" style="fill:#FFFFFF"/>
	<rect x="561.98" y="422.78" width="3294.16" height="2083.58" style="fill:none;stroke:#FFFFFF;stroke-width:5.76"/>
	<line x1="559.10" y1="2249.60" x2="3859.02" y2="2249.60" style="stroke:#EAF2F3;stroke-width:8.64"/>
	<line x1="559.10" y1="2053.32" x2="3859.02" y2="2053.32" style="stroke:#EAF2F3;stroke-width:8.64"/>
	<line x1="559.10" y1="1857.05" x2="3859.02" y2="1857.05" style="stroke:#EAF2F3;stroke-width:8.64"/>
	<line x1="559.10" y1="1660.78" x2="3859.02" y2="1660.78" style="stroke:#EAF2F3;stroke-width:8.64"/>
	<line x1="559.10" y1="1464.63" x2="3859.02" y2="1464.63" style="stroke:#EAF2F3;stroke-width:8.64"/>
	<line x1="559.10" y1="1268.35" x2="3859.02" y2="1268.35" style="stroke:#EAF2F3;stroke-width:8.64"/>
	<line x1="559.10" y1="1072.08" x2="3859.02" y2="1072.08" style="stroke:#EAF2F3;stroke-width:8.64"/>
	<line x1="559.10" y1="875.81" x2="3859.02" y2="875.81" style="stroke:#EAF2F3;stroke-width:8.64"/>
	<line x1="559.10" y1="679.53" x2="3859.02" y2="679.53" style="stroke:#EAF2F3;stroke-width:8.64"/>
	<line x1="559.10" y1="1464.63" x2="3859.02" y2="1464.63" style="stroke:#1A476F;stroke-width:8.64"/>
	<defs>
		<path id="path_RlwaUJTK" d="M778.88 1475.39 L778.88 1475.39 L795.71 1475.39 L795.71 1476.63 L812.54 1476.63 L812.54 1476.63 L829.37 1476.63 L829.37 1477.87 L846.20 1477.87 L846.20 1478.12 L863.16 1478.12 L863.16 1480.22 L879.99 1480.22 L879.99 1482.45 L896.82 1482.45 L896.82 1483.56 L913.65 1483.56 L913.65 1488.51 L930.48 1488.51 L930.48 1488.64 L947.31 1488.64 L947.31 1487.89 L964.26 1487.89 L964.26 1491.48 L981.09 1491.48 L981.09 1493.83 L997.92 1493.83 L997.92 1496.18 L1014.75 1496.18 L1014.75 1497.42 L1031.58 1497.42 L1031.58 1497.05 L1048.53 1497.05 L1048.53 1499.28 L1065.36 1499.28 L1065.36 1502.00 L1082.19 1502.00 L1082.19 1503.61 L1099.02 1503.61 L1099.02 1508.06 L1115.85 1508.06 L1115.85 1511.53 L1132.68 1511.53 L1132.68 1512.52 L1149.64 1512.52 L1149.64 1514.62 L1166.47 1514.62 L1166.47 1517.22 L1183.30 1517.22 L1183.30 1520.81 L1200.13 1520.81 L1200.13 1521.80 L1216.96 1521.80 L1216.96 1523.78 L1233.79 1523.78 L1233.79 1525.14 L1250.74 1525.14 L1250.74 1528.24 L1267.57 1528.24 L1267.57 1531.21 L1284.40 1531.21 L1284.40 1533.81 L1301.23 1533.81 L1301.23 1538.63 L1318.06 1538.63 L1318.06 1540.98 L1334.89 1540.98 L1334.89 1542.10 L1351.85 1542.10 L1351.85 1543.33 L1368.67 1543.33 L1368.67 1543.09 L1385.51 1543.09 L1385.51 1544.45 L1402.34 1544.45 L1402.34 1548.78 L1419.16 1548.78 L1419.16 1550.39 L1436.12 1550.39 L1436.12 1550.02 L1452.95 1550.02 L1452.95 1552.24 L1469.78 1552.24 L1469.78 1553.85 L1486.61 1553.85 L1486.61 1555.21 L1503.44 1555.21 L1503.44 1556.20 L1520.27 1556.20 L1520.27 1557.32 L1537.22 1557.32 L1537.22 1558.18 L1554.05 1558.18 L1554.05 1560.66 L1570.88 1560.66 L1570.88 1561.16 L1587.71 1561.16 L1587.71 1562.02 L1604.54 1562.02 L1604.54 1564.62 L1621.37 1564.62 L1621.37 1564.50 L1638.33 1564.50 L1638.33 1565.49 L1655.16 1565.49 L1655.16 1567.96 L1671.99 1567.96 L1671.99 1570.19 L1688.82 1570.19 L1688.82 1573.41 L1705.65 1573.41 L1705.65 1575.26 L1722.48 1575.26 L1722.48 1575.26 L1739.43 1575.26 L1739.43 1578.11 L1756.26 1578.11 L1756.26 1579.22 L1773.09 1579.22 L1773.09 1580.09 L1789.92 1580.09 L1789.92 1582.07 L1806.75 1582.07 L1806.75 1583.80 L1823.70 1583.80 L1823.70 1585.66 L1840.53 1585.66 L1840.53 1586.52 L1857.36 1586.52 L1857.36 1589.37 L1874.19 1589.37 L1874.19 1588.88 L1891.02 1588.88 L1891.02 1588.26 L1907.85 1588.26 L1907.85 1588.38 L1924.81 1588.38 L1924.81 1588.26 L1941.64 1588.26 L1941.64 1590.11 L1958.47 1590.11 L1958.47 1590.86 L1975.30 1590.86 L1975.30 1590.36 L1992.13 1590.36 L1992.13 1592.34 L2008.96 1592.34 L2008.96 1590.98 L2025.91 1590.98 L2025.91 1593.45 L2042.74 1593.45 L2042.74 1593.95 L2059.57 1593.95 L2059.57 1595.06 L2076.40 1595.06 L2076.40 1596.30 L2093.23 1596.30 L2093.23 1598.53 L2110.18 1598.53 L2110.18 1599.27 L2127.01 1599.27 L2127.01 1600.01 L2143.84 1600.01 L2143.84 1599.02 L2160.68 1599.02 L2160.68 1600.14 L2177.51 1600.14 L2177.51 1601.13 L2194.34 1601.13 L2194.34 1602.37 L2211.29 1602.37 L2211.29 1604.47 L2228.12 1604.47 L2228.12 1605.71 L2244.95 1605.71 L2244.95 1605.83 L2261.78 1605.83 L2261.78 1606.33 L2278.61 1606.33 L2278.61 1607.93 L2295.44 1607.93 L2295.44 1607.69 L2312.39 1607.69 L2312.39 1608.55 L2329.22 1608.55 L2329.22 1608.92 L2346.05 1608.92 L2346.05 1609.05 L2362.88 1609.05 L2362.88 1609.42 L2379.71 1609.42 L2379.71 1609.30 L2396.54 1609.30 L2396.54 1610.16 L2413.50 1610.16 L2413.50 1611.28 L2430.33 1611.28 L2430.33 1612.51 L2447.16 1612.51 L2447.16 1611.65 L2463.99 1611.65 L2463.99 1613.50 L2480.82 1613.50 L2480.82 1614.00 L2497.77 1614.00 L2497.77 1613.26 L2514.60 1613.26 L2514.60 1616.10 L2531.43 1616.10 L2531.43 1617.22 L2548.26 1617.22 L2548.26 1616.60 L2565.09 1616.60 L2565.09 1617.46 L2581.92 1617.46 L2581.92 1619.32 L2598.87 1619.32 L2598.87 1620.19 L2615.70 1620.19 L2615.70 1621.79 L2632.53 1621.79 L2632.53 1623.65 L2649.36 1623.65 L2649.36 1624.52 L2666.19 1624.52 L2666.19 1624.52 L2683.02 1624.52 L2683.02 1626.37 L2699.98 1626.37 L2699.98 1627.36 L2716.81 1627.36 L2716.81 1628.72 L2733.64 1628.72 L2733.64 1629.96 L2750.47 1629.96 L2750.47 1629.84 L2767.30 1629.84 L2767.30 1631.32 L2784.25 1631.32 L2784.25 1632.31 L2801.08 1632.31 L2801.08 1632.19 L2817.91 1632.19 L2817.91 1634.29 L2834.74 1634.29 L2834.74 1636.27 L2851.57 1636.27 L2851.57 1636.89 L2868.40 1636.89 L2868.40 1639.24 L2885.36 1639.24 L2885.36 1639.99 L2902.18 1639.99 L2902.18 1642.34 L2919.01 1642.34 L2919.01 1643.08 L2935.84 1643.08 L2935.84 1642.71 L2952.68 1642.71 L2952.68 1642.21 L2969.51 1642.21 L2969.51 1643.20 L2986.46 1643.20 L2986.46 1645.06 L3003.29 1645.06 L3003.29 1646.30 L3020.12 1646.30 L3020.12 1646.17 L3036.95 1646.17 L3036.95 1647.29 L3053.78 1647.29 L3053.78 1647.91 L3070.61 1647.91 L3070.61 1649.14 L3087.56 1649.14 L3087.56 1650.13 L3104.39 1650.13 L3104.39 1650.51 L3121.22 1650.51 L3121.22 1651.00 L3138.05 1651.00 L3138.05 1651.74 L3154.88 1651.74 L3154.88 1651.87 L3171.84 1651.87 L3171.84 1653.10 L3188.67 1653.10 L3188.67 1653.85 L3205.50 1653.85 L3205.50 1651.99 L3222.33 1651.99 L3222.33 1653.35 L3239.16 1653.35 L3239.16 1652.73 L3255.99 1652.73 L3255.99 1653.23 L3272.94 1653.23 L3272.94 1653.48 L3289.77 1653.48 L3289.77 1654.34 L3306.60 1654.34 L3306.60 1655.83 L3323.43 1655.83 L3323.43 1656.45 L3340.26 1656.45 L3340.26 1656.20 L3357.09 1656.20 L3357.09 1656.07 L3374.04 1656.07 L3374.04 1658.30 L3390.87 1658.30 L3390.87 1659.29 L3407.70 1659.29 L3407.70 1660.03 L3424.53 1660.03 L3424.53 1660.41 L3441.36 1660.41 L3441.36 1661.52 L3458.19 1661.52 L3458.19 1662.88 L3475.15 1662.88 L3475.15 1663.62 L3491.98 1663.62 L3491.98 1664.98 L3508.81 1664.98 L3508.81 1664.24 L3525.64 1664.24 L3525.64 1665.36 L3542.47 1665.36 L3542.47 1665.36 L3559.42 1665.36 L3559.42 1665.60 L3576.25 1665.60 L3576.25 1666.72 L3593.08 1666.72 L3593.08 1666.96 L3609.91 1666.96 L3609.91 1666.59 L3626.74 1666.59 L3626.74 1668.45 L3643.57 1668.45 L3643.57 1669.07 L3660.53 1669.07 L3660.53 1671.30 L3677.36 1671.30 L3677.36 1672.29 L3694.18 1672.29 L3694.18 1673.03 L3711.01 1673.03 L3711.01 1673.77 L3727.84 1673.77 L3727.84 1674.39 L3744.68 1674.39 L3744.68 1674.51 L3761.63 1674.51 L3761.63 1674.51 L3778.46 1674.51 L3778.46 1675.38 L3795.29 1675.38 L3795.29 1676.12 L3795.29 1306.35 L3795.29 1306.47 L3778.46 1306.47 L3778.46 1306.35 L3761.63 1306.35 L3761.63 1306.96 L3744.68 1306.96 L3744.68 1307.58 L3727.84 1307.58 L3727.84 1307.46 L3711.01 1307.46 L3711.01 1307.58 L3694.18 1307.58 L3694.18 1307.58 L3677.36 1307.58 L3677.36 1307.34 L3660.53 1307.34 L3660.53 1305.73 L3643.57 1305.73 L3643.57 1305.85 L3626.74 1305.85 L3626.74 1304.74 L3609.91 1304.74 L3609.91 1305.73 L3593.08 1305.73 L3593.08 1306.22 L3576.25 1306.22 L3576.25 1305.85 L3559.42 1305.85 L3559.42 1306.59 L3542.47 1306.59 L3542.47 1307.34 L3525.64 1307.34 L3525.64 1307.09 L3508.81 1307.09 L3508.81 1308.57 L3491.98 1308.57 L3491.98 1308.08 L3475.15 1308.08 L3475.15 1308.08 L3458.19 1308.08 L3458.19 1307.46 L3441.36 1307.46 L3441.36 1306.96 L3424.53 1306.96 L3424.53 1307.34 L3407.70 1307.34 L3407.70 1307.34 L3390.87 1307.34 L3390.87 1307.09 L3374.04 1307.09 L3374.04 1305.97 L3357.09 1305.97 L3357.09 1306.72 L3340.26 1306.72 L3340.26 1307.83 L3323.43 1307.83 L3323.43 1307.95 L3306.60 1307.95 L3306.60 1307.21 L3289.77 1307.21 L3289.77 1307.21 L3272.94 1307.21 L3272.94 1307.71 L3255.99 1307.71 L3255.99 1307.95 L3239.16 1307.95 L3239.16 1309.44 L3222.33 1309.44 L3222.33 1308.94 L3205.50 1308.94 L3205.50 1311.67 L3188.67 1311.67 L3188.67 1311.91 L3171.84 1311.91 L3171.84 1311.79 L3154.88 1311.79 L3154.88 1312.41 L3138.05 1312.41 L3138.05 1312.53 L3121.22 1312.53 L3121.22 1312.90 L3104.39 1312.90 L3104.39 1313.40 L3087.56 1313.40 L3087.56 1313.52 L3070.61 1313.52 L3070.61 1313.03 L3053.78 1313.03 L3053.78 1313.28 L3036.95 1313.28 L3036.95 1312.90 L3020.12 1312.90 L3020.12 1313.77 L3003.29 1313.77 L3003.29 1313.40 L2986.46 1313.40 L2986.46 1312.16 L2969.51 1312.16 L2969.51 1312.04 L2952.68 1312.04 L2952.68 1313.52 L2935.84 1313.52 L2935.84 1314.88 L2919.01 1314.88 L2919.01 1315.01 L2902.18 1315.01 L2902.18 1313.52 L2885.36 1313.52 L2885.36 1313.65 L2868.40 1313.65 L2868.40 1312.16 L2851.57 1312.16 L2851.57 1312.16 L2834.74 1312.16 L2834.74 1311.17 L2817.91 1311.17 L2817.91 1309.81 L2801.08 1309.81 L2801.08 1310.92 L2784.25 1310.92 L2784.25 1310.92 L2767.30 1310.92 L2767.30 1310.31 L2750.47 1310.31 L2750.47 1311.42 L2733.64 1311.42 L2733.64 1310.92 L2716.81 1310.92 L2716.81 1310.68 L2699.98 1310.68 L2699.98 1310.68 L2683.02 1310.68 L2683.02 1309.81 L2666.19 1309.81 L2666.19 1310.55 L2649.36 1310.55 L2649.36 1310.55 L2632.53 1310.55 L2632.53 1309.81 L2615.70 1309.81 L2615.70 1309.19 L2598.87 1309.19 L2598.87 1309.32 L2581.92 1309.32 L2581.92 1308.45 L2565.09 1308.45 L2565.09 1308.57 L2548.26 1308.57 L2548.26 1310.18 L2531.43 1310.18 L2531.43 1310.06 L2514.60 1310.06 L2514.60 1308.33 L2497.77 1308.33 L2497.77 1310.31 L2480.82 1310.31 L2480.82 1310.68 L2463.99 1310.68 L2463.99 1309.93 L2447.16 1309.93 L2447.16 1311.79 L2430.33 1311.79 L2430.33 1311.54 L2413.50 1311.54 L2413.50 1311.42 L2396.54 1311.42 L2396.54 1311.79 L2379.71 1311.79 L2379.71 1313.03 L2362.88 1313.03 L2362.88 1313.65 L2346.05 1313.65 L2346.05 1314.64 L2329.22 1314.64 L2329.22 1315.13 L2312.39 1315.13 L2312.39 1315.50 L2295.44 1315.50 L2295.44 1316.99 L2278.61 1316.99 L2278.61 1316.49 L2261.78 1316.49 L2261.78 1317.11 L2244.95 1317.11 L2244.95 1318.10 L2228.12 1318.10 L2228.12 1317.85 L2211.29 1317.85 L2211.29 1316.99 L2194.34 1316.99 L2194.34 1317.24 L2177.51 1317.24 L2177.51 1317.48 L2160.68 1317.48 L2160.68 1317.61 L2143.84 1317.61 L2143.84 1319.83 L2127.01 1319.83 L2127.01 1320.33 L2110.18 1320.33 L2110.18 1320.95 L2093.23 1320.95 L2093.23 1320.21 L2076.40 1320.21 L2076.40 1320.21 L2059.57 1320.21 L2059.57 1320.45 L2042.74 1320.45 L2042.74 1321.07 L2025.91 1321.07 L2025.91 1320.08 L2008.96 1320.08 L2008.96 1322.68 L1992.13 1322.68 L1992.13 1322.19 L1975.30 1322.19 L1975.30 1324.04 L1958.47 1324.04 L1958.47 1324.79 L1941.64 1324.79 L1941.64 1324.79 L1924.81 1324.79 L1924.81 1326.64 L1907.85 1326.64 L1907.85 1328.25 L1891.02 1328.25 L1891.02 1330.23 L1874.19 1330.23 L1874.19 1332.09 L1857.36 1332.09 L1857.36 1330.85 L1840.53 1330.85 L1840.53 1331.59 L1823.70 1331.59 L1823.70 1331.22 L1806.75 1331.22 L1806.75 1331.59 L1789.92 1331.59 L1789.92 1331.34 L1773.09 1331.34 L1773.09 1332.33 L1756.26 1332.33 L1756.26 1333.20 L1739.43 1333.20 L1739.43 1332.21 L1722.48 1332.21 L1722.48 1334.19 L1705.65 1334.19 L1705.65 1334.44 L1688.82 1334.44 L1688.82 1333.20 L1671.99 1333.20 L1671.99 1332.95 L1655.16 1332.95 L1655.16 1332.83 L1638.33 1332.83 L1638.33 1334.31 L1621.37 1334.31 L1621.37 1336.42 L1604.54 1336.42 L1604.54 1335.92 L1587.71 1335.92 L1587.71 1337.53 L1570.88 1337.53 L1570.88 1339.51 L1554.05 1339.51 L1554.05 1339.51 L1537.22 1339.51 L1537.22 1341.12 L1520.27 1341.12 L1520.27 1342.73 L1503.44 1342.73 L1503.44 1344.59 L1486.61 1344.59 L1486.61 1345.95 L1469.78 1345.95 L1469.78 1347.31 L1452.95 1347.31 L1452.95 1348.17 L1436.12 1348.17 L1436.12 1351.52 L1419.16 1351.52 L1419.16 1352.88 L1402.34 1352.88 L1402.34 1352.13 L1385.51 1352.13 L1385.51 1353.74 L1368.67 1353.74 L1368.67 1357.33 L1351.85 1357.33 L1351.85 1359.56 L1334.89 1359.56 L1334.89 1362.16 L1318.06 1362.16 L1318.06 1363.40 L1301.23 1363.40 L1301.23 1362.41 L1284.40 1362.41 L1284.40 1363.77 L1267.57 1363.77 L1267.57 1364.76 L1250.74 1364.76 L1250.74 1365.75 L1233.79 1365.75 L1233.79 1368.35 L1216.96 1368.35 L1216.96 1370.82 L1200.13 1370.82 L1200.13 1374.16 L1183.30 1374.16 L1183.30 1375.28 L1166.47 1375.28 L1166.47 1377.13 L1149.64 1377.13 L1149.64 1379.48 L1132.68 1379.48 L1132.68 1383.20 L1115.85 1383.20 L1115.85 1384.31 L1099.02 1384.31 L1099.02 1384.68 L1082.19 1384.68 L1082.19 1388.02 L1065.36 1388.02 L1065.36 1390.25 L1048.53 1390.25 L1048.53 1392.97 L1031.58 1392.97 L1031.58 1398.29 L1014.75 1398.29 L1014.75 1402.01 L997.92 1402.01 L997.92 1404.73 L981.09 1404.73 L981.09 1407.58 L964.26 1407.58 L964.26 1409.43 L947.31 1409.43 L947.31 1415.13 L930.48 1415.13 L930.48 1420.20 L913.65 1420.20 L913.65 1420.45 L896.82 1420.45 L896.82 1424.28 L879.99 1424.28 L879.99 1427.13 L863.16 1427.13 L863.16 1430.10 L846.20 1430.10 L846.20 1434.80 L829.37 1434.80 L829.37 1438.51 L812.54 1438.51 L812.54 1443.22 L795.71 1443.22 L795.71 1446.68 L778.88 1446.68 L778.88 1475.39 Z" stroke-linejoin="round"/>
	</defs>
	<defs>
		<clipPath id="clipPath_wMaaRHQj">
			<use xlink:href="#path_RlwaUJTK"/>
		</clipPath>
	</defs>
	<use xlink:href="#path_RlwaUJTK" style="stroke:none;fill:#999999;fill-opacity:0.65"/>
	<use xlink:href="#path_RlwaUJTK" style="fill:none;stroke:#808080;stroke-opacity:0.65;stroke-width:17.28" clip-path="url(#clipPath_wMaaRHQj)"/>
	<path d=" M778.76 1461.16 L795.59 1461.16 L795.59 1459.92 L812.54 1459.92 L812.54 1457.57 L829.37 1457.57 L829.37 1456.34 L846.20 1456.34 L846.20 1454.11 L863.03 1454.11 L863.03 1453.74 L879.86 1453.74 L879.86 1453.37 L896.69 1453.37 L896.69 1452.13 L913.65 1452.13 L913.65 1454.48 L930.48 1454.48 L930.48 1452.00 L947.31 1452.00 L947.31 1448.79 L964.14 1448.79 L964.14 1449.65 L980.97 1449.65 L980.97 1449.28 L997.80 1449.28 L997.80 1449.16 L1014.75 1449.16 L1014.75 1447.92 L1031.58 1447.92 L1031.58 1445.07 L1048.41 1445.07 L1048.41 1444.83 L1065.24 1444.83 L1065.24 1445.07 L1082.07 1445.07 L1082.07 1444.21 L1099.02 1444.21 L1099.02 1446.19 L1115.85 1446.19 L1115.85 1447.43 L1132.68 1447.43 L1132.68 1446.06 L1149.51 1446.06 L1149.51 1445.94 L1166.34 1445.94 L1166.34 1446.31 L1183.17 1446.31 L1183.17 1447.55 L1200.13 1447.55 L1200.13 1446.31 L1216.96 1446.31 L1216.96 1446.06 L1233.79 1446.06 L1233.79 1445.57 L1250.62 1445.57 L1250.62 1446.56 L1267.45 1446.56 L1267.45 1447.55 L1284.28 1447.55 L1284.28 1448.17 L1301.23 1448.17 L1301.23 1451.01 L1318.06 1451.01 L1318.06 1451.63 L1334.89 1451.63 L1334.89 1450.89 L1351.72 1450.89 L1351.72 1450.40 L1368.55 1450.40 L1368.55 1448.42 L1385.51 1448.42 L1385.51 1448.29 L1402.34 1448.29 L1402.34 1450.89 L1419.16 1450.89 L1419.16 1451.01 L1435.99 1451.01 L1435.99 1449.16 L1452.83 1449.16 L1452.83 1449.78 L1469.65 1449.78 L1469.65 1449.90 L1486.61 1449.90 L1486.61 1449.90 L1503.44 1449.90 L1503.44 1449.53 L1520.27 1449.53 L1520.27 1449.28 L1537.10 1449.28 L1537.10 1448.91 L1553.93 1448.91 L1553.93 1450.15 L1570.76 1450.15 L1570.76 1449.41 L1587.71 1449.41 L1587.71 1449.03 L1604.54 1449.03 L1604.54 1450.64 L1621.37 1450.64 L1621.37 1449.53 L1638.20 1449.53 L1638.20 1449.28 L1655.03 1449.28 L1655.03 1450.52 L1671.86 1450.52 L1671.86 1451.76 L1688.82 1451.76 L1688.82 1453.98 L1705.65 1453.98 L1705.65 1454.73 L1722.48 1454.73 L1722.48 1453.74 L1739.31 1453.74 L1739.31 1455.72 L1756.14 1455.72 L1756.14 1455.84 L1773.09 1455.84 L1773.09 1455.72 L1789.92 1455.72 L1789.92 1456.83 L1806.75 1456.83 L1806.75 1457.57 L1823.58 1457.57 L1823.58 1458.69 L1840.41 1458.69 L1840.41 1458.69 L1857.24 1458.69 L1857.24 1460.79 L1874.19 1460.79 L1874.19 1459.55 L1891.02 1459.55 L1891.02 1458.32 L1907.85 1458.32 L1907.85 1457.57 L1924.68 1457.57 L1924.68 1456.58 L1941.51 1456.58 L1941.51 1457.45 L1958.34 1457.45 L1958.34 1457.57 L1975.30 1457.57 L1975.30 1456.34 L1992.13 1456.34 L1992.13 1457.57 L2008.96 1457.57 L2008.96 1455.59 L2025.79 1455.59 L2025.79 1457.33 L2042.62 1457.33 L2042.62 1457.20 L2059.45 1457.20 L2059.45 1457.70 L2076.40 1457.70 L2076.40 1458.32 L2093.23 1458.32 L2093.23 1459.80 L2110.06 1459.80 L2110.06 1459.92 L2126.89 1459.92 L2126.89 1460.05 L2143.72 1460.05 L2143.72 1458.44 L2160.68 1458.44 L2160.68 1458.81 L2177.51 1458.81 L2177.51 1459.18 L2194.34 1459.18 L2194.34 1459.68 L2211.16 1459.68 L2211.16 1461.16 L2227.99 1461.16 L2227.99 1461.90 L2244.82 1461.90 L2244.82 1461.53 L2261.78 1461.53 L2261.78 1461.41 L2278.61 1461.41 L2278.61 1462.52 L2295.44 1462.52 L2295.44 1461.66 L2312.27 1461.66 L2312.27 1461.90 L2329.10 1461.90 L2329.10 1461.90 L2345.93 1461.90 L2345.93 1461.41 L2362.88 1461.41 L2362.88 1461.29 L2379.71 1461.29 L2379.71 1460.54 L2396.54 1460.54 L2396.54 1460.91 L2413.37 1460.91 L2413.37 1461.41 L2430.20 1461.41 L2430.20 1462.15 L2447.16 1462.15 L2447.16 1460.91 L2463.99 1460.91 L2463.99 1462.15 L2480.82 1462.15 L2480.82 1462.15 L2497.65 1462.15 L2497.65 1460.79 L2514.48 1460.79 L2514.48 1463.14 L2531.31 1463.14 L2531.31 1463.76 L2548.26 1463.76 L2548.26 1462.65 L2565.09 1462.65 L2565.09 1463.02 L2581.92 1463.02 L2581.92 1464.38 L2598.75 1464.38 L2598.75 1464.75 L2615.58 1464.75 L2615.58 1465.86 L2632.41 1465.86 L2632.41 1467.10 L2649.36 1467.10 L2649.36 1467.60 L2666.19 1467.60 L2666.19 1467.23 L2683.02 1467.23 L2683.02 1468.59 L2699.85 1468.59 L2699.85 1469.08 L2716.68 1469.08 L2716.68 1469.95 L2733.51 1469.95 L2733.51 1470.69 L2750.47 1470.69 L2750.47 1470.07 L2767.30 1470.07 L2767.30 1471.19 L2784.13 1471.19 L2784.13 1471.68 L2800.96 1471.68 L2800.96 1471.06 L2817.79 1471.06 L2817.79 1472.79 L2834.74 1472.79 L2834.74 1474.28 L2851.57 1474.28 L2851.57 1474.65 L2868.40 1474.65 L2868.40 1476.51 L2885.23 1476.51 L2885.23 1476.88 L2902.06 1476.88 L2902.06 1478.73 L2918.89 1478.73 L2918.89 1478.98 L2935.84 1478.98 L2935.84 1478.24 L2952.68 1478.24 L2952.68 1477.25 L2969.51 1477.25 L2969.51 1477.74 L2986.34 1477.74 L2986.34 1479.35 L3003.16 1479.35 L3003.16 1480.10 L3019.99 1480.10 L3019.99 1479.60 L3036.95 1479.60 L3036.95 1480.47 L3053.78 1480.47 L3053.78 1480.59 L3070.61 1480.59 L3070.61 1481.46 L3087.44 1481.46 L3087.44 1481.83 L3104.27 1481.83 L3104.27 1481.83 L3121.10 1481.83 L3121.10 1481.95 L3138.05 1481.95 L3138.05 1482.20 L3154.88 1482.20 L3154.88 1481.95 L3171.71 1481.95 L3171.71 1482.57 L3188.54 1482.57 L3188.54 1482.82 L3205.37 1482.82 L3205.37 1480.59 L3222.33 1480.59 L3222.33 1481.46 L3239.16 1481.46 L3239.16 1480.47 L3255.99 1480.47 L3255.99 1480.59 L3272.82 1480.59 L3272.82 1480.47 L3289.65 1480.47 L3289.65 1480.84 L3306.48 1480.84 L3306.48 1481.95 L3323.43 1481.95 L3323.43 1482.20 L3340.26 1482.20 L3340.26 1481.58 L3357.09 1481.58 L3357.09 1481.09 L3373.92 1481.09 L3373.92 1482.82 L3390.75 1482.82 L3390.75 1483.44 L3407.58 1483.44 L3407.58 1483.81 L3424.53 1483.81 L3424.53 1483.81 L3441.36 1483.81 L3441.36 1484.68 L3458.19 1484.68 L3458.19 1485.54 L3475.02 1485.54 L3475.02 1485.91 L3491.85 1485.91 L3491.85 1486.90 L3508.81 1486.90 L3508.81 1485.79 L3525.64 1485.79 L3525.64 1486.41 L3542.47 1486.41 L3542.47 1486.04 L3559.30 1486.04 L3559.30 1485.79 L3576.13 1485.79 L3576.13 1486.53 L3592.96 1486.53 L3592.96 1486.53 L3609.91 1486.53 L3609.91 1485.79 L3626.74 1485.79 L3626.74 1487.27 L3643.57 1487.27 L3643.57 1487.52 L3660.40 1487.52 L3660.40 1489.50 L3677.23 1489.50 L3677.23 1490.00 L3694.06 1490.00 L3694.06 1490.49 L3711.01 1490.49 L3711.01 1490.74 L3727.84 1490.74 L3727.84 1491.11 L3744.68 1491.11 L3744.68 1490.86 L3761.51 1490.86 L3761.51 1490.62 L3778.34 1490.62 L3778.34 1490.99 L3795.16 1490.99 L3795.16 1491.36" stroke-linejoin="round" style="fill:none;stroke:#000000;stroke-width:8.64"/>
	<line x1="559.10" y1="2509.23" x2="559.10" y2="419.90" style="stroke:#000000;stroke-width:5.76"/>
	<line x1="559.10" y1="2445.87" x2="519.13" y2="2445.87" style="stroke:#000000;stroke-width:5.76"/>
	<text x="499.08" y="2480.90" style="font-family:'Helvetica';font-size:99.99px;fill:#000000" text-anchor="end">-0.25</text>
	<line x1="559.10" y1="2249.60" x2="519.13" y2="2249.60" style="stroke:#000000;stroke-width:5.76"/>
	<text x="499.08" y="2284.63" style="font-family:'Helvetica';font-size:99.99px;fill:#000000" text-anchor="end">-0.20</text>
	<line x1="559.10" y1="2053.32" x2="519.13" y2="2053.32" style="stroke:#000000;stroke-width:5.76"/>
	<text x="499.08" y="2088.35" style="font-family:'Helvetica';font-size:99.99px;fill:#000000" text-anchor="end">-0.15</text>
	<line x1="559.10" y1="1857.05" x2="519.13" y2="1857.05" style="stroke:#000000;stroke-width:5.76"/>
	<text x="499.08" y="1892.08" style="font-family:'Helvetica';font-size:99.99px;fill:#000000" text-anchor="end">-0.10</text>
	<line x1="559.10" y1="1660.78" x2="519.13" y2="1660.78" style="stroke:#000000;stroke-width:5.76"/>
	<text x="499.08" y="1695.81" style="font-family:'Helvetica';font-size:99.99px;fill:#000000" text-anchor="end">-0.05</text>
	<line x1="559.10" y1="1464.63" x2="519.13" y2="1464.63" style="stroke:#000000;stroke-width:5.76"/>
	<text x="499.08" y="1499.66" style="font-family:'Helvetica';font-size:99.99px;fill:#000000" text-anchor="end">0.00</text>
	<line x1="559.10" y1="1268.35" x2="519.13" y2="1268.35" style="stroke:#000000;stroke-width:5.76"/>
	<text x="499.08" y="1303.38" style="font-family:'Helvetica';font-size:99.99px;fill:#000000" text-anchor="end">0.05</text>
	<line x1="559.10" y1="1072.08" x2="519.13" y2="1072.08" style="stroke:#000000;stroke-width:5.76"/>
	<text x="499.08" y="1107.11" style="font-family:'Helvetica';font-size:99.99px;fill:#000000" text-anchor="end">0.10</text>
	<line x1="559.10" y1="875.81" x2="519.13" y2="875.81" style="stroke:#000000;stroke-width:5.76"/>
	<text x="499.08" y="910.83" style="font-family:'Helvetica';font-size:99.99px;fill:#000000" text-anchor="end">0.15</text>
	<line x1="559.10" y1="679.53" x2="519.13" y2="679.53" style="stroke:#000000;stroke-width:5.76"/>
	<text x="499.08" y="714.56" style="font-family:'Helvetica';font-size:99.99px;fill:#000000" text-anchor="end">0.20</text>
	<line x1="559.10" y1="483.26" x2="519.13" y2="483.26" style="stroke:#000000;stroke-width:5.76"/>
	<text x="499.08" y="518.29" style="font-family:'Helvetica';font-size:99.99px;fill:#000000" text-anchor="end">0.25</text>
	<text x="190.71" y="1464.63" style="font-family:'Helvetica';font-size:99.99px;fill:#000000" transform="rotate(-90 190.71,1464.63)" text-anchor="middle">Difference in Probabilities</text>
	<line x1="559.10" y1="2509.23" x2="3859.02" y2="2509.23" style="stroke:#000000;stroke-width:5.76"/>
	<line x1="622.46" y1="2509.23" x2="622.46" y2="2549.21" style="stroke:#000000;stroke-width:5.76"/>
	<text x="622.46" y="2625.15" style="font-family:'Helvetica';font-size:79.94px;fill:#000000" text-anchor="middle">0</text>
	<line x1="812.91" y1="2509.23" x2="812.91" y2="2549.21" style="stroke:#000000;stroke-width:5.76"/>
	<text x="812.91" y="2625.15" style="font-family:'Helvetica';font-size:79.94px;fill:#000000" text-anchor="middle">.3</text>
	<line x1="1003.24" y1="2509.23" x2="1003.24" y2="2549.21" style="stroke:#000000;stroke-width:5.76"/>
	<text x="1003.24" y="2625.15" style="font-family:'Helvetica';font-size:79.94px;fill:#000000" text-anchor="middle">.6</text>
	<line x1="1193.69" y1="2509.23" x2="1193.69" y2="2549.21" style="stroke:#000000;stroke-width:5.76"/>
	<text x="1193.69" y="2625.15" style="font-family:'Helvetica';font-size:79.94px;fill:#000000" text-anchor="middle">.9</text>
	<line x1="1384.02" y1="2509.23" x2="1384.02" y2="2549.21" style="stroke:#000000;stroke-width:5.76"/>
	<text x="1384.02" y="2625.15" style="font-family:'Helvetica';font-size:79.94px;fill:#000000" text-anchor="middle">1.2</text>
	<line x1="1574.47" y1="2509.23" x2="1574.47" y2="2549.21" style="stroke:#000000;stroke-width:5.76"/>
	<text x="1574.47" y="2625.15" style="font-family:'Helvetica';font-size:79.94px;fill:#000000" text-anchor="middle">1.5</text>
	<line x1="1764.80" y1="2509.23" x2="1764.80" y2="2549.21" style="stroke:#000000;stroke-width:5.76"/>
	<text x="1764.80" y="2625.15" style="font-family:'Helvetica';font-size:79.94px;fill:#000000" text-anchor="middle">1.8</text>
	<line x1="1955.25" y1="2509.23" x2="1955.25" y2="2549.21" style="stroke:#000000;stroke-width:5.76"/>
	<text x="1955.25" y="2625.15" style="font-family:'Helvetica';font-size:79.94px;fill:#000000" text-anchor="middle">2.1</text>
	<line x1="2145.58" y1="2509.23" x2="2145.58" y2="2549.21" style="stroke:#000000;stroke-width:5.76"/>
	<text x="2145.58" y="2625.15" style="font-family:'Helvetica';font-size:79.94px;fill:#000000" text-anchor="middle">2.4</text>
	<line x1="2336.03" y1="2509.23" x2="2336.03" y2="2549.21" style="stroke:#000000;stroke-width:5.76"/>
	<text x="2336.03" y="2625.15" style="font-family:'Helvetica';font-size:79.94px;fill:#000000" text-anchor="middle">2.7</text>
	<line x1="2526.48" y1="2509.23" x2="2526.48" y2="2549.21" style="stroke:#000000;stroke-width:5.76"/>
	<text x="2526.48" y="2625.15" style="font-family:'Helvetica';font-size:79.94px;fill:#000000" text-anchor="middle">3</text>
	<line x1="2716.81" y1="2509.23" x2="2716.81" y2="2549.21" style="stroke:#000000;stroke-width:5.76"/>
	<text x="2716.81" y="2625.15" style="font-family:'Helvetica';font-size:79.94px;fill:#000000" text-anchor="middle">3.3</text>
	<line x1="2907.26" y1="2509.23" x2="2907.26" y2="2549.21" style="stroke:#000000;stroke-width:5.76"/>
	<text x="2907.26" y="2625.15" style="font-family:'Helvetica';font-size:79.94px;fill:#000000" text-anchor="middle">3.6</text>
	<line x1="3097.59" y1="2509.23" x2="3097.59" y2="2549.21" style="stroke:#000000;stroke-width:5.76"/>
	<text x="3097.59" y="2625.15" style="font-family:'Helvetica';font-size:79.94px;fill:#000000" text-anchor="middle">3.9</text>
	<line x1="3288.04" y1="2509.23" x2="3288.04" y2="2549.21" style="stroke:#000000;stroke-width:5.76"/>
	<text x="3288.04" y="2625.15" style="font-family:'Helvetica';font-size:79.94px;fill:#000000" text-anchor="middle">4.2</text>
	<line x1="3478.36" y1="2509.23" x2="3478.36" y2="2549.21" style="stroke:#000000;stroke-width:5.76"/>
	<text x="3478.36" y="2625.15" style="font-family:'Helvetica';font-size:79.94px;fill:#000000" text-anchor="middle">4.5</text>
	<line x1="3668.82" y1="2509.23" x2="3668.82" y2="2549.21" style="stroke:#000000;stroke-width:5.76"/>
	<text x="3668.82" y="2625.15" style="font-family:'Helvetica';font-size:79.94px;fill:#000000" text-anchor="middle">4.8</text>
	<line x1="3859.14" y1="2509.23" x2="3859.14" y2="2549.21" style="stroke:#000000;stroke-width:5.76"/>
	<text x="3859.14" y="2625.15" style="font-family:'Helvetica';font-size:79.94px;fill:#000000" text-anchor="middle">5.1</text>
	<text x="2209.06" y="2729.16" style="font-family:'Helvetica';font-size:99.99px;fill:#000000" text-anchor="middle">Time (years)</text>
	<rect x="593.63" y="454.42" width="993.34" height="326.46" style="fill:#FFFFFF"/>
	<rect x="596.51" y="457.30" width="987.58" height="320.70" style="fill:none;stroke:#000000;stroke-width:5.76"/>
	<rect x="636.82" y="497.74" width="374.47" height="99.99" style="fill:#999999;fill-opacity:0.65"/>
	<rect x="641.14" y="502.06" width="365.83" height="91.35" style="fill:none;stroke:#808080;stroke-opacity:0.65;stroke-width:8.64"/>
	<line x1="636.82" y1="687.70" x2="1011.28" y2="687.70" style="stroke:#000000;stroke-width:8.64"/>
	<text x="1071.30" y="582.76" style="font-family:'Helvetica';font-size:99.99px;fill:#000000">CI95%</text>
	<text x="1071.30" y="722.73" style="font-family:'Helvetica';font-size:99.99px;fill:#000000">Difference</text>
	<text x="2209.06" y="369.63" style="font-family:'Helvetica';font-size:110.01px;fill:#000000" text-anchor="middle">from 2nd Readmission to 3rd Readmission (RP)</text>
	<text x="2209.06" y="215.98" style="font-family:'Helvetica';font-size:139.96px;fill:#1E2D53" text-anchor="middle">Difference in Probabilities at 3 years</text>
</svg>
