<?xml version="1.0" encoding="UTF-8" standalone="no"?>
<!-- This is a Stata 16.1 generated SVG file (http://www.stata.com) -->

<svg version="1.1" width="5.50in" height="4.00in" viewBox="0 0 3960 2880" xmlns="http://www.w3.org/2000/svg" xmlns:xlink="http://www.w3.org/1999/xlink">
	<desc>Stata Graph - diff_mod12_3y_rp_tc_22</desc>
	<rect x="0" y="0" width="3960" height="2880" style="fill:#EAF2F3;stroke:none"/>
	<rect x="0.00" y="0.00" width="3959.88" height="2880.00" style="fill:#FFFFFF"/>
	<rect x="2.88" y="2.88" width="3954.12" height="2874.24" style="fill:none;stroke:#FFFFFF;stroke-width:5.76"/>
	<rect x="559.10" y="419.90" width="3299.92" height="2089.34" style="fill:#FFFFFF"/>
	<rect x="561.98" y="422.78" width="3294.16" height="2083.58" style="fill:none;stroke:#FFFFFF;stroke-width:5.76"/>
	<line x1="559.10" y1="2249.60" x2="3859.02" y2="2249.60" style="stroke:#EAF2F3;stroke-width:8.64"/>
	<line x1="559.10" y1="2053.32" x2="3859.02" y2="2053.32" style="stroke:#EAF2F3;stroke-width:8.64"/>
	<line x1="559.10" y1="1857.05" x2="3859.02" y2="1857.05" style="stroke:#EAF2F3;stroke-width:8.64"/>
	<line x1="559.10" y1="1660.78" x2="3859.02" y2="1660.78" style="stroke:#EAF2F3;stroke-width:8.64"/>
	<line x1="559.10" y1="1464.63" x2="3859.02" y2="1464.63" style="stroke:#EAF2F3;stroke-width:8.64"/>
	<line x1="559.10" y1="1268.35" x2="3859.02" y2="1268.35" style="stroke:#EAF2F3;stroke-width:8.64"/>
	<line x1="559.10" y1="1072.08" x2="3859.02" y2="1072.08" style="stroke:#EAF2F3;stroke-width:8.64"/>
	<line x1="559.10" y1="875.81" x2="3859.02" y2="875.81" style="stroke:#EAF2F3;stroke-width:8.64"/>
	<line x1="559.10" y1="679.53" x2="3859.02" y2="679.53" style="stroke:#EAF2F3;stroke-width:8.64"/>
	<line x1="559.10" y1="1464.63" x2="3859.02" y2="1464.63" style="stroke:#1A476F;stroke-width:8.64"/>
	<defs>
		<path id="path_UUPHwQsE" d="M778.88 1453.61 L778.88 1453.61 L795.71 1453.61 L795.71 1449.28 L812.54 1449.28 L812.54 1447.05 L829.37 1447.05 L829.37 1444.70 L846.20 1444.70 L846.20 1442.48 L863.16 1442.48 L863.16 1439.38 L879.99 1439.38 L879.99 1436.66 L896.82 1436.66 L896.82 1434.43 L913.65 1434.43 L913.65 1429.48 L930.48 1429.48 L930.48 1427.13 L947.31 1427.13 L947.31 1423.17 L964.26 1423.17 L964.26 1419.95 L981.09 1419.95 L981.09 1416.49 L997.92 1416.49 L997.92 1412.03 L1014.75 1412.03 L1014.75 1409.19 L1031.58 1409.19 L1031.58 1405.60 L1048.53 1405.60 L1048.53 1401.51 L1065.36 1401.51 L1065.36 1397.92 L1082.19 1397.92 L1082.19 1394.33 L1099.02 1394.33 L1099.02 1390.62 L1115.85 1390.62 L1115.85 1387.90 L1132.68 1387.90 L1132.68 1383.69 L1149.64 1383.69 L1149.64 1379.61 L1166.47 1379.61 L1166.47 1377.75 L1183.30 1377.75 L1183.30 1374.16 L1200.13 1374.16 L1200.13 1370.82 L1216.96 1370.82 L1216.96 1365.38 L1233.79 1365.38 L1233.79 1361.17 L1250.74 1361.17 L1250.74 1356.47 L1267.57 1356.47 L1267.57 1352.75 L1284.40 1352.75 L1284.40 1350.77 L1301.23 1350.77 L1301.23 1348.79 L1318.06 1348.79 L1318.06 1346.81 L1334.89 1346.81 L1334.89 1344.96 L1351.85 1344.96 L1351.85 1342.36 L1368.67 1342.36 L1368.67 1340.13 L1385.51 1340.13 L1385.51 1338.27 L1402.34 1338.27 L1402.34 1334.44 L1419.16 1334.44 L1419.16 1330.48 L1436.12 1330.48 L1436.12 1326.89 L1452.95 1326.89 L1452.95 1324.29 L1469.78 1324.29 L1469.78 1321.20 L1486.61 1321.20 L1486.61 1319.34 L1503.44 1319.34 L1503.44 1317.61 L1520.27 1317.61 L1520.27 1316.49 L1537.22 1316.49 L1537.22 1314.64 L1554.05 1314.64 L1554.05 1312.16 L1570.88 1312.16 L1570.88 1309.56 L1587.71 1309.56 L1587.71 1308.82 L1604.54 1308.82 L1604.54 1307.21 L1621.37 1307.21 L1621.37 1305.85 L1638.33 1305.85 L1638.33 1303.13 L1655.16 1303.13 L1655.16 1302.39 L1671.99 1302.39 L1671.99 1300.78 L1688.82 1300.78 L1688.82 1300.78 L1705.65 1300.78 L1705.65 1299.79 L1722.48 1299.79 L1722.48 1299.29 L1739.43 1299.29 L1739.43 1299.79 L1756.26 1299.79 L1756.26 1298.43 L1773.09 1298.43 L1773.09 1296.20 L1789.92 1296.20 L1789.92 1295.08 L1806.75 1295.08 L1806.75 1294.96 L1823.70 1294.96 L1823.70 1292.86 L1840.53 1292.86 L1840.53 1291.37 L1857.36 1291.37 L1857.36 1290.63 L1874.19 1290.63 L1874.19 1290.51 L1891.02 1290.51 L1891.02 1290.13 L1907.85 1290.13 L1907.85 1288.77 L1924.81 1288.77 L1924.81 1288.15 L1941.64 1288.15 L1941.64 1287.16 L1958.47 1287.16 L1958.47 1286.79 L1975.30 1286.79 L1975.30 1286.67 L1992.13 1286.67 L1992.13 1285.93 L2008.96 1285.93 L2008.96 1285.31 L2025.91 1285.31 L2025.91 1284.94 L2042.74 1284.94 L2042.74 1282.59 L2059.57 1282.59 L2059.57 1281.97 L2076.40 1281.97 L2076.40 1281.35 L2093.23 1281.35 L2093.23 1280.85 L2110.18 1280.85 L2110.18 1280.11 L2127.01 1280.11 L2127.01 1279.74 L2143.84 1279.74 L2143.84 1280.11 L2160.68 1280.11 L2160.68 1280.23 L2177.51 1280.23 L2177.51 1280.48 L2194.34 1280.48 L2194.34 1279.86 L2211.29 1279.86 L2211.29 1279.61 L2228.12 1279.61 L2228.12 1279.24 L2244.95 1279.24 L2244.95 1278.87 L2261.78 1278.87 L2261.78 1279.37 L2278.61 1279.37 L2278.61 1279.99 L2295.44 1279.99 L2295.44 1279.99 L2312.39 1279.99 L2312.39 1279.37 L2329.22 1279.37 L2329.22 1280.11 L2346.05 1280.11 L2346.05 1279.24 L2362.88 1279.24 L2362.88 1279.61 L2379.71 1279.61 L2379.71 1279.00 L2396.54 1279.00 L2396.54 1279.99 L2413.50 1279.99 L2413.50 1280.11 L2430.33 1280.11 L2430.33 1279.24 L2447.16 1279.24 L2447.16 1278.50 L2463.99 1278.50 L2463.99 1278.01 L2480.82 1278.01 L2480.82 1278.01 L2497.77 1278.01 L2497.77 1277.26 L2514.60 1277.26 L2514.60 1276.40 L2531.43 1276.40 L2531.43 1275.90 L2548.26 1275.90 L2548.26 1275.78 L2565.09 1275.78 L2565.09 1276.40 L2581.92 1276.40 L2581.92 1276.27 L2598.87 1276.27 L2598.87 1277.02 L2615.70 1277.02 L2615.70 1277.14 L2632.53 1277.14 L2632.53 1275.65 L2649.36 1275.65 L2649.36 1275.53 L2666.19 1275.53 L2666.19 1276.40 L2683.02 1276.40 L2683.02 1276.40 L2699.98 1276.40 L2699.98 1275.16 L2716.81 1275.16 L2716.81 1275.65 L2733.64 1275.65 L2733.64 1276.03 L2750.47 1276.03 L2750.47 1275.90 L2767.30 1275.90 L2767.30 1276.03 L2784.25 1276.03 L2784.25 1276.40 L2801.08 1276.40 L2801.08 1276.89 L2817.91 1276.89 L2817.91 1277.76 L2834.74 1277.76 L2834.74 1276.89 L2851.57 1276.89 L2851.57 1277.88 L2868.40 1277.88 L2868.40 1278.25 L2885.36 1278.25 L2885.36 1278.13 L2902.18 1278.13 L2902.18 1278.87 L2919.01 1278.87 L2919.01 1279.86 L2935.84 1279.86 L2935.84 1280.85 L2952.68 1280.85 L2952.68 1281.10 L2969.51 1281.10 L2969.51 1281.35 L2986.46 1281.35 L2986.46 1281.35 L3003.29 1281.35 L3003.29 1282.09 L3020.12 1282.09 L3020.12 1280.98 L3036.95 1280.98 L3036.95 1280.36 L3053.78 1280.36 L3053.78 1279.74 L3070.61 1279.74 L3070.61 1278.75 L3087.56 1278.75 L3087.56 1279.00 L3104.39 1279.00 L3104.39 1279.24 L3121.22 1279.24 L3121.22 1279.37 L3138.05 1279.37 L3138.05 1280.73 L3154.88 1280.73 L3154.88 1281.22 L3171.84 1281.22 L3171.84 1280.85 L3188.67 1280.85 L3188.67 1280.73 L3205.50 1280.73 L3205.50 1281.22 L3222.33 1281.22 L3222.33 1280.73 L3239.16 1280.73 L3239.16 1280.48 L3255.99 1280.48 L3255.99 1280.73 L3272.94 1280.73 L3272.94 1281.47 L3289.77 1281.47 L3289.77 1280.98 L3306.60 1280.98 L3306.60 1281.10 L3323.43 1281.10 L3323.43 1279.74 L3340.26 1279.74 L3340.26 1278.50 L3357.09 1278.50 L3357.09 1278.13 L3374.04 1278.13 L3374.04 1278.13 L3390.87 1278.13 L3390.87 1278.01 L3407.70 1278.01 L3407.70 1277.76 L3424.53 1277.76 L3424.53 1277.26 L3441.36 1277.26 L3441.36 1277.26 L3458.19 1277.26 L3458.19 1277.26 L3475.15 1277.26 L3475.15 1277.39 L3491.98 1277.39 L3491.98 1277.26 L3508.81 1277.26 L3508.81 1277.51 L3525.64 1277.51 L3525.64 1278.50 L3542.47 1278.50 L3542.47 1277.88 L3559.42 1277.88 L3559.42 1278.25 L3576.25 1278.25 L3576.25 1278.38 L3593.08 1278.38 L3593.08 1278.01 L3609.91 1278.01 L3609.91 1278.01 L3626.74 1278.01 L3626.74 1277.76 L3643.57 1277.76 L3643.57 1276.52 L3660.53 1276.52 L3660.53 1276.40 L3677.36 1276.40 L3677.36 1276.27 L3694.18 1276.27 L3694.18 1277.02 L3711.01 1277.02 L3711.01 1276.03 L3727.84 1276.03 L3727.84 1277.26 L3744.68 1277.26 L3744.68 1277.76 L3761.63 1277.76 L3761.63 1277.14 L3778.46 1277.14 L3778.46 1277.39 L3795.29 1277.39 L3795.29 1277.51 L3795.29 1195.34 L3795.29 1195.34 L3778.46 1195.34 L3778.46 1195.09 L3761.63 1195.09 L3761.63 1195.83 L3744.68 1195.83 L3744.68 1195.46 L3727.84 1195.46 L3727.84 1194.47 L3711.01 1194.47 L3711.01 1195.59 L3694.18 1195.59 L3694.18 1194.97 L3677.36 1194.97 L3677.36 1195.21 L3660.53 1195.21 L3660.53 1195.46 L3643.57 1195.46 L3643.57 1196.70 L3626.74 1196.70 L3626.74 1197.07 L3609.91 1197.07 L3609.91 1197.19 L3593.08 1197.19 L3593.08 1197.69 L3576.25 1197.69 L3576.25 1197.81 L3559.42 1197.81 L3559.42 1197.44 L3542.47 1197.44 L3542.47 1198.43 L3525.64 1198.43 L3525.64 1197.44 L3508.81 1197.44 L3508.81 1197.32 L3491.98 1197.32 L3491.98 1197.69 L3475.15 1197.69 L3475.15 1197.69 L3458.19 1197.69 L3458.19 1197.94 L3441.36 1197.94 L3441.36 1197.94 L3424.53 1197.94 L3424.53 1198.68 L3407.70 1198.68 L3407.70 1199.05 L3390.87 1199.05 L3390.87 1199.42 L3374.04 1199.42 L3374.04 1199.42 L3357.09 1199.42 L3357.09 1199.92 L3340.26 1199.92 L3340.26 1201.40 L3323.43 1201.40 L3323.43 1202.76 L3306.60 1202.76 L3306.60 1202.89 L3289.77 1202.89 L3289.77 1203.51 L3272.94 1203.51 L3272.94 1203.01 L3255.99 1203.01 L3255.99 1202.76 L3239.16 1202.76 L3239.16 1203.26 L3222.33 1203.26 L3222.33 1203.88 L3205.50 1203.88 L3205.50 1203.51 L3188.67 1203.51 L3188.67 1203.63 L3171.84 1203.63 L3171.84 1204.13 L3154.88 1204.13 L3154.88 1204.00 L3138.05 1204.00 L3138.05 1202.76 L3121.22 1202.76 L3121.22 1202.76 L3104.39 1202.76 L3104.39 1202.76 L3087.56 1202.76 L3087.56 1202.76 L3070.61 1202.76 L3070.61 1203.88 L3053.78 1203.88 L3053.78 1204.50 L3036.95 1204.50 L3036.95 1205.36 L3020.12 1205.36 L3020.12 1206.48 L3003.29 1206.48 L3003.29 1206.11 L2986.46 1206.11 L2986.46 1206.23 L2969.51 1206.23 L2969.51 1206.35 L2952.68 1206.35 L2952.68 1206.23 L2935.84 1206.23 L2935.84 1205.49 L2919.01 1205.49 L2919.01 1204.74 L2902.18 1204.74 L2902.18 1204.37 L2885.36 1204.37 L2885.36 1204.62 L2868.40 1204.62 L2868.40 1204.62 L2851.57 1204.62 L2851.57 1203.88 L2834.74 1203.88 L2834.74 1204.87 L2817.91 1204.87 L2817.91 1204.13 L2801.08 1204.13 L2801.08 1203.75 L2784.25 1203.75 L2784.25 1203.51 L2767.30 1203.51 L2767.30 1203.38 L2750.47 1203.38 L2750.47 1203.63 L2733.64 1203.63 L2733.64 1203.38 L2716.81 1203.38 L2716.81 1203.26 L2699.98 1203.26 L2699.98 1204.62 L2683.02 1204.62 L2683.02 1204.99 L2666.19 1204.99 L2666.19 1204.25 L2649.36 1204.25 L2649.36 1204.62 L2632.53 1204.62 L2632.53 1206.35 L2615.70 1206.35 L2615.70 1206.35 L2598.87 1206.35 L2598.87 1205.73 L2581.92 1205.73 L2581.92 1205.98 L2565.09 1205.98 L2565.09 1205.73 L2548.26 1205.73 L2548.26 1205.98 L2531.43 1205.98 L2531.43 1206.60 L2514.60 1206.60 L2514.60 1207.59 L2497.77 1207.59 L2497.77 1208.46 L2480.82 1208.46 L2480.82 1208.70 L2463.99 1208.70 L2463.99 1209.57 L2447.16 1209.57 L2447.16 1210.56 L2430.33 1210.56 L2430.33 1211.55 L2413.50 1211.55 L2413.50 1211.67 L2396.54 1211.67 L2396.54 1211.06 L2379.71 1211.06 L2379.71 1211.80 L2362.88 1211.80 L2362.88 1211.67 L2346.05 1211.67 L2346.05 1212.79 L2329.22 1212.79 L2329.22 1212.42 L2312.39 1212.42 L2312.39 1213.16 L2295.44 1213.16 L2295.44 1213.53 L2278.61 1213.53 L2278.61 1213.04 L2261.78 1213.04 L2261.78 1212.91 L2244.95 1212.91 L2244.95 1213.41 L2228.12 1213.41 L2228.12 1214.03 L2211.29 1214.03 L2211.29 1214.52 L2194.34 1214.52 L2194.34 1215.39 L2177.51 1215.39 L2177.51 1215.26 L2160.68 1215.26 L2160.68 1215.51 L2143.84 1215.51 L2143.84 1215.39 L2127.01 1215.39 L2127.01 1216.13 L2110.18 1216.13 L2110.18 1217.12 L2093.23 1217.12 L2093.23 1217.86 L2076.40 1217.86 L2076.40 1218.85 L2059.57 1218.85 L2059.57 1219.59 L2042.74 1219.59 L2042.74 1222.32 L2025.91 1222.32 L2025.91 1222.81 L2008.96 1222.81 L2008.96 1223.93 L1992.13 1223.93 L1992.13 1225.04 L1975.30 1225.04 L1975.30 1225.53 L1958.47 1225.53 L1958.47 1226.15 L1941.64 1226.15 L1941.64 1227.51 L1924.81 1227.51 L1924.81 1228.63 L1907.85 1228.63 L1907.85 1230.36 L1891.02 1230.36 L1891.02 1231.10 L1874.19 1231.10 L1874.19 1231.60 L1857.36 1231.60 L1857.36 1232.71 L1840.53 1232.71 L1840.53 1234.57 L1823.70 1234.57 L1823.70 1237.04 L1806.75 1237.04 L1806.75 1237.54 L1789.92 1237.54 L1789.92 1238.90 L1773.09 1238.90 L1773.09 1241.38 L1756.26 1241.38 L1756.26 1243.36 L1739.43 1243.36 L1739.43 1243.23 L1722.48 1243.23 L1722.48 1244.22 L1705.65 1244.22 L1705.65 1245.71 L1688.82 1245.71 L1688.82 1245.95 L1671.99 1245.95 L1671.99 1248.18 L1655.16 1248.18 L1655.16 1249.42 L1638.33 1249.42 L1638.33 1252.51 L1621.37 1252.51 L1621.37 1254.49 L1604.54 1254.49 L1604.54 1256.47 L1587.71 1256.47 L1587.71 1257.83 L1570.88 1257.83 L1570.88 1260.80 L1554.05 1260.80 L1554.05 1263.90 L1537.22 1263.90 L1537.22 1266.37 L1520.27 1266.37 L1520.27 1268.11 L1503.44 1268.11 L1503.44 1270.33 L1486.61 1270.33 L1486.61 1272.93 L1469.78 1272.93 L1469.78 1276.52 L1452.95 1276.52 L1452.95 1279.61 L1436.12 1279.61 L1436.12 1283.82 L1419.16 1283.82 L1419.16 1288.15 L1402.34 1288.15 L1402.34 1292.73 L1385.51 1292.73 L1385.51 1295.33 L1368.67 1295.33 L1368.67 1298.67 L1351.85 1298.67 L1351.85 1302.14 L1334.89 1302.14 L1334.89 1304.86 L1318.06 1304.86 L1318.06 1307.58 L1301.23 1307.58 L1301.23 1310.43 L1284.40 1310.43 L1284.40 1313.65 L1267.57 1313.65 L1267.57 1318.23 L1250.74 1318.23 L1250.74 1323.92 L1233.79 1323.92 L1233.79 1328.75 L1216.96 1328.75 L1216.96 1335.30 L1200.13 1335.30 L1200.13 1339.76 L1183.30 1339.76 L1183.30 1344.34 L1166.47 1344.34 L1166.47 1347.18 L1149.64 1347.18 L1149.64 1352.13 L1132.68 1352.13 L1132.68 1357.33 L1115.85 1357.33 L1115.85 1361.17 L1099.02 1361.17 L1099.02 1366.00 L1082.19 1366.00 L1082.19 1370.45 L1065.36 1370.45 L1065.36 1375.15 L1048.53 1375.15 L1048.53 1380.47 L1031.58 1380.47 L1031.58 1385.18 L1014.75 1385.18 L1014.75 1389.14 L997.92 1389.14 L997.92 1394.58 L981.09 1394.58 L981.09 1399.16 L964.26 1399.16 L964.26 1403.49 L947.31 1403.49 L947.31 1408.44 L930.48 1408.44 L930.48 1412.03 L913.65 1412.03 L913.65 1417.97 L896.82 1417.97 L896.82 1421.31 L879.99 1421.31 L879.99 1425.15 L863.16 1425.15 L863.16 1429.11 L846.20 1429.11 L846.20 1432.45 L829.37 1432.45 L829.37 1435.79 L812.54 1435.79 L812.54 1439.13 L795.71 1439.13 L795.71 1444.21 L778.88 1444.21 L778.88 1453.61 Z" stroke-linejoin="round"/>
	</defs>
	<defs>
		<clipPath id="clipPath_nAFbqlWA">
			<use xlink:href="#path_UUPHwQsE"/>
		</clipPath>
	</defs>
	<use xlink:href="#path_UUPHwQsE" style="stroke:none;fill:#999999;fill-opacity:0.65"/>
	<use xlink:href="#path_UUPHwQsE" style="fill:none;stroke:#808080;stroke-opacity:0.65;stroke-width:17.28" clip-path="url(#clipPath_nAFbqlWA)"/>
	<path d=" M778.76 1449.03 L795.59 1449.03 L795.59 1444.21 L812.54 1444.21 L812.54 1441.49 L829.37 1441.49 L829.37 1438.64 L846.20 1438.64 L846.20 1435.92 L863.03 1435.92 L863.03 1432.33 L879.86 1432.33 L879.86 1428.99 L896.69 1428.99 L896.69 1426.26 L913.65 1426.26 L913.65 1420.82 L930.48 1420.82 L930.48 1417.85 L947.31 1417.85 L947.31 1413.39 L964.14 1413.39 L964.14 1409.56 L980.97 1409.56 L980.97 1405.60 L997.80 1405.60 L997.80 1400.65 L1014.75 1400.65 L1014.75 1397.18 L1031.58 1397.18 L1031.58 1393.10 L1048.41 1393.10 L1048.41 1388.39 L1065.24 1388.39 L1065.24 1384.19 L1082.07 1384.19 L1082.07 1380.23 L1099.02 1380.23 L1099.02 1375.90 L1115.85 1375.90 L1115.85 1372.68 L1132.68 1372.68 L1132.68 1367.98 L1149.51 1367.98 L1149.51 1363.40 L1166.34 1363.40 L1166.34 1361.05 L1183.17 1361.05 L1183.17 1356.96 L1200.13 1356.96 L1200.13 1353.12 L1216.96 1353.12 L1216.96 1347.06 L1233.79 1347.06 L1233.79 1342.61 L1250.62 1342.61 L1250.62 1337.41 L1267.45 1337.41 L1267.45 1333.20 L1284.28 1333.20 L1284.28 1330.73 L1301.23 1330.73 L1301.23 1328.25 L1318.06 1328.25 L1318.06 1325.90 L1334.89 1325.90 L1334.89 1323.55 L1351.72 1323.55 L1351.72 1320.58 L1368.55 1320.58 L1368.55 1317.85 L1385.51 1317.85 L1385.51 1315.50 L1402.34 1315.50 L1402.34 1311.30 L1419.16 1311.30 L1419.16 1307.21 L1435.99 1307.21 L1435.99 1303.25 L1452.83 1303.25 L1452.83 1300.41 L1469.65 1300.41 L1469.65 1297.19 L1486.61 1297.19 L1486.61 1294.84 L1503.44 1294.84 L1503.44 1292.98 L1520.27 1292.98 L1520.27 1291.50 L1537.10 1291.50 L1537.10 1289.27 L1553.93 1289.27 L1553.93 1286.55 L1570.76 1286.55 L1570.76 1283.82 L1587.71 1283.82 L1587.71 1282.71 L1604.54 1282.71 L1604.54 1280.85 L1621.37 1280.85 L1621.37 1279.24 L1638.20 1279.24 L1638.20 1276.40 L1655.03 1276.40 L1655.03 1275.28 L1671.86 1275.28 L1671.86 1273.43 L1688.82 1273.43 L1688.82 1273.30 L1705.65 1273.30 L1705.65 1272.07 L1722.48 1272.07 L1722.48 1271.32 L1739.31 1271.32 L1739.31 1271.69 L1756.14 1271.69 L1756.14 1269.96 L1773.09 1269.96 L1773.09 1267.61 L1789.92 1267.61 L1789.92 1266.37 L1806.75 1266.37 L1806.75 1266.00 L1823.58 1266.00 L1823.58 1263.77 L1840.41 1263.77 L1840.41 1262.04 L1857.24 1262.04 L1857.24 1261.18 L1874.19 1261.18 L1874.19 1260.80 L1891.02 1260.80 L1891.02 1260.31 L1907.85 1260.31 L1907.85 1258.70 L1924.68 1258.70 L1924.68 1257.96 L1941.51 1257.96 L1941.51 1256.72 L1958.34 1256.72 L1958.34 1256.23 L1975.30 1256.23 L1975.30 1255.85 L1992.13 1255.85 L1992.13 1254.99 L2008.96 1254.99 L2008.96 1254.12 L2025.79 1254.12 L2025.79 1253.75 L2042.62 1253.75 L2042.62 1251.15 L2059.45 1251.15 L2059.45 1250.53 L2076.40 1250.53 L2076.40 1249.67 L2093.23 1249.67 L2093.23 1249.05 L2110.06 1249.05 L2110.06 1248.18 L2126.89 1248.18 L2126.89 1247.56 L2143.72 1247.56 L2143.72 1247.81 L2160.68 1247.81 L2160.68 1247.81 L2177.51 1247.81 L2177.51 1247.93 L2194.34 1247.93 L2194.34 1247.19 L2211.16 1247.19 L2211.16 1246.82 L2227.99 1246.82 L2227.99 1246.45 L2244.82 1246.45 L2244.82 1245.95 L2261.78 1245.95 L2261.78 1246.33 L2278.61 1246.33 L2278.61 1246.82 L2295.44 1246.82 L2295.44 1246.57 L2312.27 1246.57 L2312.27 1245.95 L2329.10 1245.95 L2329.10 1246.57 L2345.93 1246.57 L2345.93 1245.46 L2362.88 1245.46 L2362.88 1245.71 L2379.71 1245.71 L2379.71 1245.09 L2396.54 1245.09 L2396.54 1245.83 L2413.37 1245.83 L2413.37 1245.83 L2430.20 1245.83 L2430.20 1244.96 L2447.16 1244.96 L2447.16 1244.10 L2463.99 1244.10 L2463.99 1243.36 L2480.82 1243.36 L2480.82 1243.36 L2497.65 1243.36 L2497.65 1242.49 L2514.48 1242.49 L2514.48 1241.62 L2531.31 1241.62 L2531.31 1241.00 L2548.26 1241.00 L2548.26 1240.88 L2565.09 1240.88 L2565.09 1241.25 L2581.92 1241.25 L2581.92 1241.00 L2598.75 1241.00 L2598.75 1241.75 L2615.58 1241.75 L2615.58 1241.75 L2632.41 1241.75 L2632.41 1240.14 L2649.36 1240.14 L2649.36 1240.01 L2666.19 1240.01 L2666.19 1240.76 L2683.02 1240.76 L2683.02 1240.51 L2699.85 1240.51 L2699.85 1239.27 L2716.68 1239.27 L2716.68 1239.64 L2733.51 1239.64 L2733.51 1239.89 L2750.47 1239.89 L2750.47 1239.64 L2767.30 1239.64 L2767.30 1239.77 L2784.13 1239.77 L2784.13 1240.14 L2800.96 1240.14 L2800.96 1240.51 L2817.79 1240.51 L2817.79 1241.38 L2834.74 1241.38 L2834.74 1240.39 L2851.57 1240.39 L2851.57 1241.38 L2868.40 1241.38 L2868.40 1241.50 L2885.23 1241.50 L2885.23 1241.25 L2902.06 1241.25 L2902.06 1241.87 L2918.89 1241.87 L2918.89 1242.74 L2935.84 1242.74 L2935.84 1243.60 L2952.68 1243.60 L2952.68 1243.73 L2969.51 1243.73 L2969.51 1243.85 L2986.34 1243.85 L2986.34 1243.85 L3003.16 1243.85 L3003.16 1244.35 L3019.99 1244.35 L3019.99 1243.23 L3036.95 1243.23 L3036.95 1242.49 L3053.78 1242.49 L3053.78 1241.87 L3070.61 1241.87 L3070.61 1240.76 L3087.44 1240.76 L3087.44 1240.88 L3104.27 1240.88 L3104.27 1241.00 L3121.10 1241.00 L3121.10 1241.13 L3138.05 1241.13 L3138.05 1242.37 L3154.88 1242.37 L3154.88 1242.74 L3171.71 1242.74 L3171.71 1242.37 L3188.54 1242.37 L3188.54 1242.12 L3205.37 1242.12 L3205.37 1242.61 L3222.33 1242.61 L3222.33 1241.99 L3239.16 1241.99 L3239.16 1241.62 L3255.99 1241.62 L3255.99 1241.87 L3272.82 1241.87 L3272.82 1242.49 L3289.65 1242.49 L3289.65 1241.99 L3306.48 1241.99 L3306.48 1241.99 L3323.43 1241.99 L3323.43 1240.63 L3340.26 1240.63 L3340.26 1239.27 L3357.09 1239.27 L3357.09 1238.78 L3373.92 1238.78 L3373.92 1238.78 L3390.75 1238.78 L3390.75 1238.53 L3407.58 1238.53 L3407.58 1238.28 L3424.53 1238.28 L3424.53 1237.66 L3441.36 1237.66 L3441.36 1237.66 L3458.19 1237.66 L3458.19 1237.54 L3475.02 1237.54 L3475.02 1237.66 L3491.85 1237.66 L3491.85 1237.41 L3508.81 1237.41 L3508.81 1237.54 L3525.64 1237.54 L3525.64 1238.53 L3542.47 1238.53 L3542.47 1237.66 L3559.30 1237.66 L3559.30 1238.03 L3576.13 1238.03 L3576.13 1238.03 L3592.96 1238.03 L3592.96 1237.66 L3609.91 1237.66 L3609.91 1237.54 L3626.74 1237.54 L3626.74 1237.29 L3643.57 1237.29 L3643.57 1236.05 L3660.40 1236.05 L3660.40 1235.81 L3677.23 1235.81 L3677.23 1235.68 L3694.06 1235.68 L3694.06 1236.30 L3711.01 1236.30 L3711.01 1235.31 L3727.84 1235.31 L3727.84 1236.42 L3744.68 1236.42 L3744.68 1236.80 L3761.51 1236.80 L3761.51 1236.18 L3778.34 1236.18 L3778.34 1236.42 L3795.16 1236.42 L3795.16 1236.42" stroke-linejoin="round" style="fill:none;stroke:#000000;stroke-width:8.64"/>
	<line x1="559.10" y1="2509.23" x2="559.10" y2="419.90" style="stroke:#000000;stroke-width:5.76"/>
	<line x1="559.10" y1="2445.87" x2="519.13" y2="2445.87" style="stroke:#000000;stroke-width:5.76"/>
	<text x="499.08" y="2480.90" style="font-family:'Helvetica';font-size:99.99px;fill:#000000" text-anchor="end">-0.25</text>
	<line x1="559.10" y1="2249.60" x2="519.13" y2="2249.60" style="stroke:#000000;stroke-width:5.76"/>
	<text x="499.08" y="2284.63" style="font-family:'Helvetica';font-size:99.99px;fill:#000000" text-anchor="end">-0.20</text>
	<line x1="559.10" y1="2053.32" x2="519.13" y2="2053.32" style="stroke:#000000;stroke-width:5.76"/>
	<text x="499.08" y="2088.35" style="font-family:'Helvetica';font-size:99.99px;fill:#000000" text-anchor="end">-0.15</text>
	<line x1="559.10" y1="1857.05" x2="519.13" y2="1857.05" style="stroke:#000000;stroke-width:5.76"/>
	<text x="499.08" y="1892.08" style="font-family:'Helvetica';font-size:99.99px;fill:#000000" text-anchor="end">-0.10</text>
	<line x1="559.10" y1="1660.78" x2="519.13" y2="1660.78" style="stroke:#000000;stroke-width:5.76"/>
	<text x="499.08" y="1695.81" style="font-family:'Helvetica';font-size:99.99px;fill:#000000" text-anchor="end">-0.05</text>
	<line x1="559.10" y1="1464.63" x2="519.13" y2="1464.63" style="stroke:#000000;stroke-width:5.76"/>
	<text x="499.08" y="1499.66" style="font-family:'Helvetica';font-size:99.99px;fill:#000000" text-anchor="end">0.00</text>
	<line x1="559.10" y1="1268.35" x2="519.13" y2="1268.35" style="stroke:#000000;stroke-width:5.76"/>
	<text x="499.08" y="1303.38" style="font-family:'Helvetica';font-size:99.99px;fill:#000000" text-anchor="end">0.05</text>
	<line x1="559.10" y1="1072.08" x2="519.13" y2="1072.08" style="stroke:#000000;stroke-width:5.76"/>
	<text x="499.08" y="1107.11" style="font-family:'Helvetica';font-size:99.99px;fill:#000000" text-anchor="end">0.10</text>
	<line x1="559.10" y1="875.81" x2="519.13" y2="875.81" style="stroke:#000000;stroke-width:5.76"/>
	<text x="499.08" y="910.83" style="font-family:'Helvetica';font-size:99.99px;fill:#000000" text-anchor="end">0.15</text>
	<line x1="559.10" y1="679.53" x2="519.13" y2="679.53" style="stroke:#000000;stroke-width:5.76"/>
	<text x="499.08" y="714.56" style="font-family:'Helvetica';font-size:99.99px;fill:#000000" text-anchor="end">0.20</text>
	<line x1="559.10" y1="483.26" x2="519.13" y2="483.26" style="stroke:#000000;stroke-width:5.76"/>
	<text x="499.08" y="518.29" style="font-family:'Helvetica';font-size:99.99px;fill:#000000" text-anchor="end">0.25</text>
	<text x="190.71" y="1464.63" style="font-family:'Helvetica';font-size:99.99px;fill:#000000" transform="rotate(-90 190.71,1464.63)" text-anchor="middle">Difference in Probabilities</text>
	<line x1="559.10" y1="2509.23" x2="3859.02" y2="2509.23" style="stroke:#000000;stroke-width:5.76"/>
	<line x1="622.46" y1="2509.23" x2="622.46" y2="2549.21" style="stroke:#000000;stroke-width:5.76"/>
	<text x="622.46" y="2625.15" style="font-family:'Helvetica';font-size:79.94px;fill:#000000" text-anchor="middle">0</text>
	<line x1="812.91" y1="2509.23" x2="812.91" y2="2549.21" style="stroke:#000000;stroke-width:5.76"/>
	<text x="812.91" y="2625.15" style="font-family:'Helvetica';font-size:79.94px;fill:#000000" text-anchor="middle">.3</text>
	<line x1="1003.24" y1="2509.23" x2="1003.24" y2="2549.21" style="stroke:#000000;stroke-width:5.76"/>
	<text x="1003.24" y="2625.15" style="font-family:'Helvetica';font-size:79.94px;fill:#000000" text-anchor="middle">.6</text>
	<line x1="1193.69" y1="2509.23" x2="1193.69" y2="2549.21" style="stroke:#000000;stroke-width:5.76"/>
	<text x="1193.69" y="2625.15" style="font-family:'Helvetica';font-size:79.94px;fill:#000000" text-anchor="middle">.9</text>
	<line x1="1384.02" y1="2509.23" x2="1384.02" y2="2549.21" style="stroke:#000000;stroke-width:5.76"/>
	<text x="1384.02" y="2625.15" style="font-family:'Helvetica';font-size:79.94px;fill:#000000" text-anchor="middle">1.2</text>
	<line x1="1574.47" y1="2509.23" x2="1574.47" y2="2549.21" style="stroke:#000000;stroke-width:5.76"/>
	<text x="1574.47" y="2625.15" style="font-family:'Helvetica';font-size:79.94px;fill:#000000" text-anchor="middle">1.5</text>
	<line x1="1764.80" y1="2509.23" x2="1764.80" y2="2549.21" style="stroke:#000000;stroke-width:5.76"/>
	<text x="1764.80" y="2625.15" style="font-family:'Helvetica';font-size:79.94px;fill:#000000" text-anchor="middle">1.8</text>
	<line x1="1955.25" y1="2509.23" x2="1955.25" y2="2549.21" style="stroke:#000000;stroke-width:5.76"/>
	<text x="1955.25" y="2625.15" style="font-family:'Helvetica';font-size:79.94px;fill:#000000" text-anchor="middle">2.1</text>
	<line x1="2145.58" y1="2509.23" x2="2145.58" y2="2549.21" style="stroke:#000000;stroke-width:5.76"/>
	<text x="2145.58" y="2625.15" style="font-family:'Helvetica';font-size:79.94px;fill:#000000" text-anchor="middle">2.4</text>
	<line x1="2336.03" y1="2509.23" x2="2336.03" y2="2549.21" style="stroke:#000000;stroke-width:5.76"/>
	<text x="2336.03" y="2625.15" style="font-family:'Helvetica';font-size:79.94px;fill:#000000" text-anchor="middle">2.7</text>
	<line x1="2526.48" y1="2509.23" x2="2526.48" y2="2549.21" style="stroke:#000000;stroke-width:5.76"/>
	<text x="2526.48" y="2625.15" style="font-family:'Helvetica';font-size:79.94px;fill:#000000" text-anchor="middle">3</text>
	<line x1="2716.81" y1="2509.23" x2="2716.81" y2="2549.21" style="stroke:#000000;stroke-width:5.76"/>
	<text x="2716.81" y="2625.15" style="font-family:'Helvetica';font-size:79.94px;fill:#000000" text-anchor="middle">3.3</text>
	<line x1="2907.26" y1="2509.23" x2="2907.26" y2="2549.21" style="stroke:#000000;stroke-width:5.76"/>
	<text x="2907.26" y="2625.15" style="font-family:'Helvetica';font-size:79.94px;fill:#000000" text-anchor="middle">3.6</text>
	<line x1="3097.59" y1="2509.23" x2="3097.59" y2="2549.21" style="stroke:#000000;stroke-width:5.76"/>
	<text x="3097.59" y="2625.15" style="font-family:'Helvetica';font-size:79.94px;fill:#000000" text-anchor="middle">3.9</text>
	<line x1="3288.04" y1="2509.23" x2="3288.04" y2="2549.21" style="stroke:#000000;stroke-width:5.76"/>
	<text x="3288.04" y="2625.15" style="font-family:'Helvetica';font-size:79.94px;fill:#000000" text-anchor="middle">4.2</text>
	<line x1="3478.36" y1="2509.23" x2="3478.36" y2="2549.21" style="stroke:#000000;stroke-width:5.76"/>
	<text x="3478.36" y="2625.15" style="font-family:'Helvetica';font-size:79.94px;fill:#000000" text-anchor="middle">4.5</text>
	<line x1="3668.82" y1="2509.23" x2="3668.82" y2="2549.21" style="stroke:#000000;stroke-width:5.76"/>
	<text x="3668.82" y="2625.15" style="font-family:'Helvetica';font-size:79.94px;fill:#000000" text-anchor="middle">4.8</text>
	<line x1="3859.14" y1="2509.23" x2="3859.14" y2="2549.21" style="stroke:#000000;stroke-width:5.76"/>
	<text x="3859.14" y="2625.15" style="font-family:'Helvetica';font-size:79.94px;fill:#000000" text-anchor="middle">5.1</text>
	<text x="2209.06" y="2729.16" style="font-family:'Helvetica';font-size:99.99px;fill:#000000" text-anchor="middle">Time (years)</text>
	<rect x="593.63" y="454.42" width="993.34" height="326.46" style="fill:#FFFFFF"/>
	<rect x="596.51" y="457.30" width="987.58" height="320.70" style="fill:none;stroke:#000000;stroke-width:5.76"/>
	<rect x="636.82" y="497.74" width="374.47" height="99.99" style="fill:#999999;fill-opacity:0.65"/>
	<rect x="641.14" y="502.06" width="365.83" height="91.35" style="fill:none;stroke:#808080;stroke-opacity:0.65;stroke-width:8.64"/>
	<line x1="636.82" y1="687.70" x2="1011.28" y2="687.70" style="stroke:#000000;stroke-width:8.64"/>
	<text x="1071.30" y="582.76" style="font-family:'Helvetica';font-size:99.99px;fill:#000000">CI95%</text>
	<text x="1071.30" y="722.73" style="font-family:'Helvetica';font-size:99.99px;fill:#000000">Difference</text>
	<text x="2209.06" y="369.63" style="font-family:'Helvetica';font-size:110.01px;fill:#000000" text-anchor="middle">from Admission to Readmission</text>
	<text x="2209.06" y="215.98" style="font-family:'Helvetica';font-size:139.96px;fill:#1E2D53" text-anchor="middle">Difference in Probabilities at 3 years (TC) (RP)</text>
</svg>
