<?xml version="1.0" encoding="UTF-8" standalone="no"?>
<!-- This is a Stata 16.1 generated SVG file (http://www.stata.com) -->

<svg version="1.1" width="5.50in" height="4.00in" viewBox="0 0 3960 2880" xmlns="http://www.w3.org/2000/svg" xmlns:xlink="http://www.w3.org/1999/xlink">
	<desc>Stata Graph - diff_los_mod44_3y_rp_tc_22</desc>
	<rect x="0" y="0" width="3960" height="2880" style="fill:#EAF2F3;stroke:none"/>
	<rect x="0.00" y="0.00" width="3959.88" height="2880.00" style="fill:#FFFFFF"/>
	<rect x="2.88" y="2.88" width="3954.12" height="2874.24" style="fill:none;stroke:#FFFFFF;stroke-width:5.76"/>
	<rect x="390.80" y="419.90" width="3468.22" height="2089.34" style="fill:#FFFFFF"/>
	<rect x="393.68" y="422.78" width="3462.46" height="2083.58" style="fill:none;stroke:#FFFFFF;stroke-width:5.76"/>
	<line x1="390.80" y1="2445.87" x2="3859.02" y2="2445.87" style="stroke:#EAF2F3;stroke-width:8.64"/>
	<line x1="390.80" y1="1791.71" x2="3859.02" y2="1791.71" style="stroke:#EAF2F3;stroke-width:8.64"/>
	<line x1="390.80" y1="1137.42" x2="3859.02" y2="1137.42" style="stroke:#EAF2F3;stroke-width:8.64"/>
	<line x1="390.80" y1="483.26" x2="3859.02" y2="483.26" style="stroke:#EAF2F3;stroke-width:8.64"/>
	<line x1="390.80" y1="1137.42" x2="3859.02" y2="1137.42" style="stroke:#1A476F;stroke-width:8.64"/>
	<defs>
		<path id="path_KBXgdPLK" d="M618.87 1140.27 L618.87 1140.27 L636.57 1140.27 L636.57 1141.01 L654.27 1141.01 L654.27 1141.75 L672.09 1141.75 L672.09 1142.74 L689.78 1142.74 L689.78 1143.73 L707.60 1143.73 L707.60 1144.85 L725.30 1144.85 L725.30 1145.96 L743.00 1145.96 L743.00 1147.32 L760.82 1147.32 L760.82 1148.68 L778.51 1148.68 L778.51 1150.17 L796.33 1150.17 L796.33 1151.78 L814.03 1151.78 L814.03 1153.51 L831.72 1153.51 L831.72 1155.37 L849.54 1155.37 L849.54 1157.22 L867.24 1157.22 L867.24 1159.33 L885.06 1159.33 L885.06 1161.55 L902.76 1161.55 L902.76 1163.78 L920.45 1163.78 L920.45 1166.13 L938.27 1166.13 L938.27 1168.73 L955.97 1168.73 L955.97 1171.33 L973.66 1171.33 L973.66 1173.93 L991.49 1173.93 L991.49 1176.78 L1009.18 1176.78 L1009.18 1179.62 L1027.00 1179.62 L1027.00 1182.59 L1044.70 1182.59 L1044.70 1185.69 L1062.39 1185.69 L1062.39 1188.78 L1080.21 1188.78 L1080.21 1192.12 L1097.91 1192.12 L1097.91 1195.34 L1115.73 1195.34 L1115.73 1198.80 L1133.43 1198.80 L1133.43 1202.39 L1151.12 1202.39 L1151.12 1206.11 L1168.94 1206.11 L1168.94 1209.82 L1186.64 1209.82 L1186.64 1213.65 L1204.46 1213.65 L1204.46 1217.49 L1222.15 1217.49 L1222.15 1221.45 L1239.85 1221.45 L1239.85 1225.53 L1257.67 1225.53 L1257.67 1229.62 L1275.37 1229.62 L1275.37 1233.83 L1293.19 1233.83 L1293.19 1238.16 L1310.88 1238.16 L1310.88 1242.49 L1328.58 1242.49 L1328.58 1247.07 L1346.40 1247.07 L1346.40 1251.65 L1364.10 1251.65 L1364.10 1256.23 L1381.92 1256.23 L1381.92 1260.93 L1399.61 1260.93 L1399.61 1265.75 L1417.31 1265.75 L1417.31 1270.70 L1435.13 1270.70 L1435.13 1275.65 L1452.83 1275.65 L1452.83 1280.73 L1470.64 1280.73 L1470.64 1285.80 L1488.34 1285.80 L1488.34 1291.12 L1506.04 1291.12 L1506.04 1296.32 L1523.86 1296.32 L1523.86 1301.64 L1541.55 1301.64 L1541.55 1307.09 L1559.37 1307.09 L1559.37 1312.53 L1577.07 1312.53 L1577.07 1317.98 L1594.77 1317.98 L1594.77 1323.55 L1612.59 1323.55 L1612.59 1329.12 L1630.28 1329.12 L1630.28 1334.69 L1648.10 1334.69 L1648.10 1340.38 L1665.80 1340.38 L1665.80 1346.19 L1683.49 1346.19 L1683.49 1352.01 L1701.32 1352.01 L1701.32 1357.83 L1719.01 1357.83 L1719.01 1363.77 L1736.83 1363.77 L1736.83 1369.71 L1754.53 1369.71 L1754.53 1375.77 L1772.22 1375.77 L1772.22 1381.71 L1790.04 1381.71 L1790.04 1387.90 L1807.74 1387.90 L1807.74 1393.96 L1825.56 1393.96 L1825.56 1400.28 L1843.26 1400.28 L1843.26 1406.46 L1860.95 1406.46 L1860.95 1412.77 L1878.77 1412.77 L1878.77 1419.09 L1896.47 1419.09 L1896.47 1425.52 L1914.29 1425.52 L1914.29 1431.83 L1931.98 1431.83 L1931.98 1438.39 L1949.68 1438.39 L1949.68 1444.83 L1967.50 1444.83 L1967.50 1451.39 L1985.20 1451.39 L1985.20 1457.94 L2003.02 1457.94 L2003.02 1464.50 L2020.71 1464.50 L2020.71 1471.19 L2038.41 1471.19 L2038.41 1477.87 L2056.23 1477.87 L2056.23 1484.55 L2073.93 1484.55 L2073.93 1491.36 L2091.75 1491.36 L2091.75 1498.16 L2109.44 1498.16 L2109.44 1504.97 L2127.14 1504.97 L2127.14 1511.78 L2144.96 1511.78 L2144.96 1518.71 L2162.66 1518.71 L2162.66 1525.51 L2180.47 1525.51 L2180.47 1532.44 L2198.17 1532.44 L2198.17 1539.50 L2215.87 1539.50 L2215.87 1546.43 L2233.69 1546.43 L2233.69 1553.48 L2251.38 1553.48 L2251.38 1560.54 L2269.20 1560.54 L2269.20 1567.59 L2286.90 1567.59 L2286.90 1574.77 L2304.60 1574.77 L2304.60 1581.95 L2322.42 1581.95 L2322.42 1589.12 L2340.11 1589.12 L2340.11 1596.30 L2357.93 1596.30 L2357.93 1603.48 L2375.63 1603.48 L2375.63 1610.66 L2393.32 1610.66 L2393.32 1617.96 L2411.14 1617.96 L2411.14 1625.26 L2428.84 1625.26 L2428.84 1632.56 L2446.66 1632.56 L2446.66 1639.86 L2464.36 1639.86 L2464.36 1647.29 L2482.05 1647.29 L2482.05 1654.59 L2499.87 1654.59 L2499.87 1662.01 L2517.57 1662.01 L2517.57 1669.44 L2535.39 1669.44 L2535.39 1676.86 L2553.09 1676.86 L2553.09 1684.29 L2570.78 1684.29 L2570.78 1691.84 L2588.60 1691.84 L2588.60 1699.26 L2606.30 1699.26 L2606.30 1706.81 L2624.12 1706.81 L2624.12 1714.36 L2641.82 1714.36 L2641.82 1721.91 L2659.51 1721.91 L2659.51 1729.46 L2677.33 1729.46 L2677.33 1737.01 L2695.03 1737.01 L2695.03 1744.68 L2712.85 1744.68 L2712.85 1752.35 L2730.54 1752.35 L2730.54 1759.90 L2748.24 1759.90 L2748.24 1767.58 L2766.06 1767.58 L2766.06 1775.25 L2783.76 1775.25 L2783.76 1782.92 L2801.58 1782.92 L2801.58 1790.72 L2819.27 1790.72 L2819.27 1798.39 L2836.97 1798.39 L2836.97 1806.06 L2854.79 1806.06 L2854.79 1813.86 L2872.49 1813.86 L2872.49 1821.53 L2890.18 1821.53 L2890.18 1829.33 L2908.00 1829.33 L2908.00 1837.25 L2925.70 1837.25 L2925.70 1845.05 L2943.52 1845.05 L2943.52 1852.84 L2961.21 1852.84 L2961.21 1860.76 L2978.91 1860.76 L2978.91 1868.68 L2996.73 1868.68 L2996.73 1876.60 L3014.43 1876.60 L3014.43 1884.52 L3032.25 1884.52 L3032.25 1892.44 L3049.94 1892.44 L3049.94 1900.36 L3067.64 1900.36 L3067.64 1908.28 L3085.46 1908.28 L3085.46 1916.33 L3103.16 1916.33 L3103.16 1924.25 L3120.97 1924.25 L3120.97 1932.29 L3138.67 1932.29 L3138.67 1940.21 L3156.37 1940.21 L3156.37 1948.26 L3174.19 1948.26 L3174.19 1956.30 L3191.88 1956.30 L3191.88 1964.22 L3209.70 1964.22 L3209.70 1972.27 L3227.40 1972.27 L3227.40 1980.31 L3245.10 1980.31 L3245.10 1988.35 L3262.92 1988.35 L3262.92 1996.40 L3280.61 1996.40 L3280.61 2004.44 L3298.43 2004.44 L3298.43 2012.61 L3316.13 2012.61 L3316.13 2020.65 L3333.82 2020.65 L3333.82 2028.70 L3351.64 2028.70 L3351.64 2036.86 L3369.34 2036.86 L3369.34 2044.91 L3387.16 2044.91 L3387.16 2053.08 L3404.86 2053.08 L3404.86 2061.24 L3422.55 2061.24 L3422.55 2069.41 L3440.37 2069.41 L3440.37 2077.46 L3458.07 2077.46 L3458.07 2085.62 L3475.89 2085.62 L3475.89 2093.79 L3493.59 2093.79 L3493.59 2101.96 L3511.28 2101.96 L3511.28 2110.13 L3529.10 2110.13 L3529.10 2118.42 L3546.80 2118.42 L3546.80 2126.59 L3564.62 2126.59 L3564.62 2134.75 L3582.32 2134.75 L3582.32 2143.05 L3600.01 2143.05 L3600.01 2151.21 L3617.83 2151.21 L3617.83 2159.50 L3635.53 2159.50 L3635.53 2167.67 L3653.35 2167.67 L3653.35 2175.96 L3671.04 2175.96 L3671.04 2184.26 L3688.74 2184.26 L3688.74 2192.55 L3706.56 2192.55 L3706.56 2200.84 L3724.26 2200.84 L3724.26 2209.25 L3742.08 2209.25 L3742.08 2217.55 L3759.77 2217.55 L3759.77 2225.84 L3777.47 2225.84 L3777.47 2234.25 L3795.29 2234.25 L3795.29 2242.54 L3795.29 635.35 L3795.29 638.94 L3777.47 638.94 L3777.47 642.53 L3759.77 642.53 L3759.77 646.12 L3742.08 646.12 L3742.08 649.71 L3724.26 649.71 L3724.26 653.30 L3706.56 653.30 L3706.56 656.89 L3688.74 656.89 L3688.74 660.60 L3671.04 660.60 L3671.04 664.19 L3653.35 664.19 L3653.35 667.78 L3635.53 667.78 L3635.53 671.36 L3617.83 671.36 L3617.83 674.95 L3600.01 674.95 L3600.01 678.54 L3582.32 678.54 L3582.32 682.13 L3564.62 682.13 L3564.62 685.72 L3546.80 685.72 L3546.80 689.31 L3529.10 689.31 L3529.10 693.02 L3511.28 693.02 L3511.28 696.61 L3493.59 696.61 L3493.59 700.20 L3475.89 700.20 L3475.89 703.79 L3458.07 703.79 L3458.07 707.25 L3440.37 707.25 L3440.37 710.84 L3422.55 710.84 L3422.55 714.43 L3404.86 714.43 L3404.86 718.02 L3387.16 718.02 L3387.16 721.61 L3369.34 721.61 L3369.34 725.20 L3351.64 725.20 L3351.64 728.66 L3333.82 728.66 L3333.82 732.25 L3316.13 732.25 L3316.13 735.84 L3298.43 735.84 L3298.43 739.31 L3280.61 739.31 L3280.61 742.89 L3262.92 742.89 L3262.92 746.36 L3245.10 746.36 L3245.10 749.95 L3227.40 749.95 L3227.40 753.41 L3209.70 753.41 L3209.70 756.88 L3191.88 756.88 L3191.88 760.47 L3174.19 760.47 L3174.19 763.93 L3156.37 763.93 L3156.37 767.40 L3138.67 767.40 L3138.67 770.86 L3120.97 770.86 L3120.97 774.33 L3103.16 774.33 L3103.16 777.79 L3085.46 777.79 L3085.46 781.26 L3067.64 781.26 L3067.64 784.72 L3049.94 784.72 L3049.94 788.19 L3032.25 788.19 L3032.25 791.65 L3014.43 791.65 L3014.43 795.12 L2996.73 795.12 L2996.73 798.46 L2978.91 798.46 L2978.91 801.93 L2961.21 801.93 L2961.21 805.39 L2943.52 805.39 L2943.52 808.73 L2925.70 808.73 L2925.70 812.20 L2908.00 812.20 L2908.00 815.54 L2890.18 815.54 L2890.18 819.00 L2872.49 819.00 L2872.49 822.47 L2854.79 822.47 L2854.79 825.93 L2836.97 825.93 L2836.97 829.40 L2819.27 829.40 L2819.27 832.74 L2801.58 832.74 L2801.58 836.20 L2783.76 836.20 L2783.76 839.67 L2766.06 839.67 L2766.06 843.01 L2748.24 843.01 L2748.24 846.35 L2730.54 846.35 L2730.54 849.82 L2712.85 849.82 L2712.85 853.16 L2695.03 853.16 L2695.03 856.50 L2677.33 856.50 L2677.33 859.84 L2659.51 859.84 L2659.51 863.18 L2641.82 863.18 L2641.82 866.52 L2624.12 866.52 L2624.12 869.87 L2606.30 869.87 L2606.30 873.21 L2588.60 873.21 L2588.60 876.55 L2570.78 876.55 L2570.78 879.89 L2553.09 879.89 L2553.09 883.23 L2535.39 883.23 L2535.39 886.57 L2517.57 886.57 L2517.57 889.91 L2499.87 889.91 L2499.87 893.13 L2482.05 893.13 L2482.05 896.47 L2464.36 896.47 L2464.36 899.81 L2446.66 899.81 L2446.66 903.03 L2428.84 903.03 L2428.84 906.37 L2411.14 906.37 L2411.14 909.59 L2393.32 909.59 L2393.32 912.81 L2375.63 912.81 L2375.63 916.15 L2357.93 916.15 L2357.93 919.37 L2340.11 919.37 L2340.11 922.59 L2322.42 922.59 L2322.42 925.80 L2304.60 925.80 L2304.60 929.02 L2286.90 929.02 L2286.90 932.24 L2269.20 932.24 L2269.20 935.46 L2251.38 935.46 L2251.38 938.67 L2233.69 938.67 L2233.69 941.89 L2215.87 941.89 L2215.87 944.98 L2198.17 944.98 L2198.17 948.20 L2180.47 948.20 L2180.47 951.42 L2162.66 951.42 L2162.66 954.64 L2144.96 954.64 L2144.96 957.73 L2127.14 957.73 L2127.14 960.83 L2109.44 960.83 L2109.44 963.92 L2091.75 963.92 L2091.75 967.14 L2073.93 967.14 L2073.93 970.23 L2056.23 970.23 L2056.23 973.32 L2038.41 973.32 L2038.41 976.42 L2020.71 976.42 L2020.71 979.39 L2003.02 979.39 L2003.02 982.48 L1985.20 982.48 L1985.20 985.58 L1967.50 985.58 L1967.50 988.67 L1949.68 988.67 L1949.68 991.64 L1931.98 991.64 L1931.98 994.73 L1914.29 994.73 L1914.29 997.70 L1896.47 997.70 L1896.47 1000.80 L1878.77 1000.80 L1878.77 1003.77 L1860.95 1003.77 L1860.95 1006.74 L1843.26 1006.74 L1843.26 1009.58 L1825.56 1009.58 L1825.56 1012.55 L1807.74 1012.55 L1807.74 1015.52 L1790.04 1015.52 L1790.04 1018.37 L1772.22 1018.37 L1772.22 1021.34 L1754.53 1021.34 L1754.53 1024.19 L1736.83 1024.19 L1736.83 1027.03 L1719.01 1027.03 L1719.01 1029.88 L1701.32 1029.88 L1701.32 1032.73 L1683.49 1032.73 L1683.49 1035.45 L1665.80 1035.45 L1665.80 1038.29 L1648.10 1038.29 L1648.10 1041.02 L1630.28 1041.02 L1630.28 1043.74 L1612.59 1043.74 L1612.59 1046.34 L1594.77 1046.34 L1594.77 1049.06 L1577.07 1049.06 L1577.07 1051.66 L1559.37 1051.66 L1559.37 1054.26 L1541.55 1054.26 L1541.55 1056.86 L1523.86 1056.86 L1523.86 1059.46 L1506.04 1059.46 L1506.04 1061.93 L1488.34 1061.93 L1488.34 1064.41 L1470.64 1064.41 L1470.64 1066.76 L1452.83 1066.76 L1452.83 1069.23 L1435.13 1069.23 L1435.13 1071.58 L1417.31 1071.58 L1417.31 1074.06 L1399.61 1074.06 L1399.61 1076.29 L1381.92 1076.29 L1381.92 1078.64 L1364.10 1078.64 L1364.10 1080.87 L1346.40 1080.87 L1346.40 1083.22 L1328.58 1083.22 L1328.58 1085.45 L1310.88 1085.45 L1310.88 1087.55 L1293.19 1087.55 L1293.19 1089.78 L1275.37 1089.78 L1275.37 1091.88 L1257.67 1091.88 L1257.67 1093.98 L1239.85 1093.98 L1239.85 1095.96 L1222.15 1095.96 L1222.15 1097.94 L1204.46 1097.94 L1204.46 1099.92 L1186.64 1099.92 L1186.64 1101.78 L1168.94 1101.78 L1168.94 1103.51 L1151.12 1103.51 L1151.12 1105.37 L1133.43 1105.37 L1133.43 1106.98 L1115.73 1106.98 L1115.73 1108.71 L1097.91 1108.71 L1097.91 1110.32 L1080.21 1110.32 L1080.21 1111.93 L1062.39 1111.93 L1062.39 1113.41 L1044.70 1113.41 L1044.70 1114.90 L1027.00 1114.90 L1027.00 1116.38 L1009.18 1116.38 L1009.18 1117.74 L991.49 1117.74 L991.49 1118.98 L973.66 1118.98 L973.66 1120.34 L955.97 1120.34 L955.97 1121.46 L938.27 1121.46 L938.27 1122.70 L920.45 1122.70 L920.45 1123.69 L902.76 1123.69 L902.76 1124.80 L885.06 1124.80 L885.06 1125.79 L867.24 1125.79 L867.24 1126.78 L849.54 1126.78 L849.54 1127.65 L831.72 1127.65 L831.72 1128.64 L814.03 1128.64 L814.03 1129.38 L796.33 1129.38 L796.33 1130.24 L778.51 1130.24 L778.51 1130.99 L760.82 1130.99 L760.82 1131.73 L743.00 1131.73 L743.00 1132.47 L725.30 1132.47 L725.30 1133.09 L707.60 1133.09 L707.60 1133.71 L689.78 1133.71 L689.78 1134.20 L672.09 1134.20 L672.09 1134.70 L654.27 1134.70 L654.27 1135.19 L636.57 1135.19 L636.57 1135.57 L618.87 1135.57 L618.87 1140.27 Z" stroke-linejoin="round"/>
	</defs>
	<defs>
		<clipPath id="clipPath_ACGystmU">
			<use xlink:href="#path_KBXgdPLK"/>
		</clipPath>
	</defs>
	<use xlink:href="#path_KBXgdPLK" style="stroke:none;fill:#999999;fill-opacity:0.65"/>
	<use xlink:href="#path_KBXgdPLK" style="fill:none;stroke:#808080;stroke-opacity:0.65;stroke-width:17.28" clip-path="url(#clipPath_ACGystmU)"/>
	<path d=" M618.75 1137.92 L636.45 1137.92 L636.45 1138.16 L654.27 1138.16 L654.27 1138.29 L671.96 1138.29 L671.96 1138.54 L689.78 1138.54 L689.78 1138.78 L707.48 1138.78 L707.48 1139.03 L725.17 1139.03 L725.17 1139.28 L743.00 1139.28 L743.00 1139.65 L760.69 1139.65 L760.69 1139.90 L778.51 1139.90 L778.51 1140.27 L796.21 1140.27 L796.21 1140.64 L813.90 1140.64 L813.90 1141.13 L831.72 1141.13 L831.72 1141.51 L849.42 1141.51 L849.42 1142.12 L867.24 1142.12 L867.24 1142.62 L884.94 1142.62 L884.94 1143.24 L902.63 1143.24 L902.63 1143.86 L920.45 1143.86 L920.45 1144.48 L938.15 1144.48 L938.15 1145.09 L955.97 1145.09 L955.97 1145.84 L973.66 1145.84 L973.66 1146.58 L991.36 1146.58 L991.36 1147.32 L1009.18 1147.32 L1009.18 1148.06 L1026.88 1148.06 L1026.88 1148.81 L1044.70 1148.81 L1044.70 1149.55 L1062.39 1149.55 L1062.39 1150.42 L1080.09 1150.42 L1080.09 1151.28 L1097.91 1151.28 L1097.91 1152.15 L1115.61 1152.15 L1115.61 1153.01 L1133.43 1153.01 L1133.43 1153.88 L1151.12 1153.88 L1151.12 1154.87 L1168.82 1154.87 L1168.82 1155.86 L1186.64 1155.86 L1186.64 1156.85 L1204.34 1156.85 L1204.34 1157.72 L1222.15 1157.72 L1222.15 1158.71 L1239.85 1158.71 L1239.85 1159.82 L1257.55 1159.82 L1257.55 1160.81 L1275.37 1160.81 L1275.37 1161.80 L1293.06 1161.80 L1293.06 1162.92 L1310.88 1162.92 L1310.88 1164.03 L1328.58 1164.03 L1328.58 1165.14 L1346.28 1165.14 L1346.28 1166.26 L1364.10 1166.26 L1364.10 1167.49 L1381.79 1167.49 L1381.79 1168.73 L1399.61 1168.73 L1399.61 1169.97 L1417.31 1169.97 L1417.31 1171.21 L1435.01 1171.21 L1435.01 1172.57 L1452.83 1172.57 L1452.83 1173.81 L1470.52 1173.81 L1470.52 1175.17 L1488.34 1175.17 L1488.34 1176.53 L1506.04 1176.53 L1506.04 1177.89 L1523.73 1177.89 L1523.73 1179.37 L1541.55 1179.37 L1541.55 1180.74 L1559.25 1180.74 L1559.25 1182.10 L1577.07 1182.10 L1577.07 1183.58 L1594.77 1183.58 L1594.77 1185.07 L1612.46 1185.07 L1612.46 1186.43 L1630.28 1186.43 L1630.28 1187.91 L1647.98 1187.91 L1647.98 1189.40 L1665.80 1189.40 L1665.80 1190.88 L1683.49 1190.88 L1683.49 1192.37 L1701.19 1192.37 L1701.19 1193.98 L1719.01 1193.98 L1719.01 1195.46 L1736.71 1195.46 L1736.71 1197.07 L1754.53 1197.07 L1754.53 1198.56 L1772.22 1198.56 L1772.22 1200.17 L1789.92 1200.17 L1789.92 1201.77 L1807.74 1201.77 L1807.74 1203.38 L1825.44 1203.38 L1825.44 1204.99 L1843.26 1204.99 L1843.26 1206.60 L1860.95 1206.60 L1860.95 1208.33 L1878.65 1208.33 L1878.65 1209.94 L1896.47 1209.94 L1896.47 1211.67 L1914.16 1211.67 L1914.16 1213.41 L1931.86 1213.41 L1931.86 1215.02 L1949.68 1215.02 L1949.68 1216.75 L1967.38 1216.75 L1967.38 1218.48 L1985.20 1218.48 L1985.20 1220.34 L2002.89 1220.34 L2002.89 1222.07 L2020.59 1222.07 L2020.59 1223.80 L2038.41 1223.80 L2038.41 1225.66 L2056.11 1225.66 L2056.11 1227.39 L2073.93 1227.39 L2073.93 1229.25 L2091.62 1229.25 L2091.62 1231.10 L2109.32 1231.10 L2109.32 1232.96 L2127.14 1232.96 L2127.14 1234.82 L2144.84 1234.82 L2144.84 1236.67 L2162.66 1236.67 L2162.66 1238.53 L2180.35 1238.53 L2180.35 1240.39 L2198.05 1240.39 L2198.05 1242.37 L2215.87 1242.37 L2215.87 1244.22 L2233.56 1244.22 L2233.56 1246.08 L2251.38 1246.08 L2251.38 1248.06 L2269.08 1248.06 L2269.08 1250.04 L2286.78 1250.04 L2286.78 1252.02 L2304.60 1252.02 L2304.60 1253.87 L2322.29 1253.87 L2322.29 1255.85 L2340.11 1255.85 L2340.11 1257.83 L2357.81 1257.83 L2357.81 1259.81 L2375.51 1259.81 L2375.51 1261.79 L2393.32 1261.79 L2393.32 1263.90 L2411.02 1263.90 L2411.02 1265.88 L2428.84 1265.88 L2428.84 1267.86 L2446.54 1267.86 L2446.54 1269.84 L2464.23 1269.84 L2464.23 1271.94 L2482.05 1271.94 L2482.05 1273.92 L2499.75 1273.92 L2499.75 1276.03 L2517.57 1276.03 L2517.57 1278.01 L2535.27 1278.01 L2535.27 1280.11 L2552.96 1280.11 L2552.96 1282.21 L2570.78 1282.21 L2570.78 1284.19 L2588.48 1284.19 L2588.48 1286.30 L2606.30 1286.30 L2606.30 1288.40 L2623.99 1288.40 L2623.99 1290.51 L2641.69 1290.51 L2641.69 1292.61 L2659.51 1292.61 L2659.51 1294.71 L2677.21 1294.71 L2677.21 1296.82 L2695.03 1296.82 L2695.03 1298.92 L2712.72 1298.92 L2712.72 1301.15 L2730.42 1301.15 L2730.42 1303.25 L2748.24 1303.25 L2748.24 1305.36 L2765.94 1305.36 L2765.94 1307.46 L2783.76 1307.46 L2783.76 1309.69 L2801.45 1309.69 L2801.45 1311.79 L2819.15 1311.79 L2819.15 1313.89 L2836.97 1313.89 L2836.97 1316.12 L2854.66 1316.12 L2854.66 1318.23 L2872.49 1318.23 L2872.49 1320.33 L2890.18 1320.33 L2890.18 1322.56 L2907.88 1322.56 L2907.88 1324.79 L2925.70 1324.79 L2925.70 1327.01 L2943.39 1327.01 L2943.39 1329.24 L2961.21 1329.24 L2961.21 1331.34 L2978.91 1331.34 L2978.91 1333.70 L2996.61 1333.70 L2996.61 1335.92 L3014.43 1335.92 L3014.43 1338.15 L3032.12 1338.15 L3032.12 1340.38 L3049.94 1340.38 L3049.94 1342.61 L3067.64 1342.61 L3067.64 1344.83 L3085.34 1344.83 L3085.34 1347.18 L3103.16 1347.18 L3103.16 1349.41 L3120.85 1349.41 L3120.85 1351.64 L3138.67 1351.64 L3138.67 1353.87 L3156.37 1353.87 L3156.37 1356.22 L3174.06 1356.22 L3174.06 1358.45 L3191.88 1358.45 L3191.88 1360.67 L3209.58 1360.67 L3209.58 1362.90 L3227.40 1362.90 L3227.40 1365.13 L3245.10 1365.13 L3245.10 1367.48 L3262.79 1367.48 L3262.79 1369.71 L3280.61 1369.71 L3280.61 1371.94 L3298.31 1371.94 L3298.31 1374.29 L3316.13 1374.29 L3316.13 1376.51 L3333.82 1376.51 L3333.82 1378.74 L3351.52 1378.74 L3351.52 1381.09 L3369.34 1381.09 L3369.34 1383.32 L3387.04 1383.32 L3387.04 1385.67 L3404.86 1385.67 L3404.86 1387.90 L3422.55 1387.90 L3422.55 1390.13 L3440.25 1390.13 L3440.25 1392.48 L3458.07 1392.48 L3458.07 1394.71 L3475.77 1394.71 L3475.77 1397.06 L3493.59 1397.06 L3493.59 1399.28 L3511.28 1399.28 L3511.28 1401.64 L3528.98 1401.64 L3528.98 1403.99 L3546.80 1403.99 L3546.80 1406.22 L3564.49 1406.22 L3564.49 1408.57 L3582.32 1408.57 L3582.32 1410.79 L3600.01 1410.79 L3600.01 1413.15 L3617.71 1413.15 L3617.71 1415.50 L3635.53 1415.50 L3635.53 1417.85 L3653.22 1417.85 L3653.22 1420.08 L3671.04 1420.08 L3671.04 1422.43 L3688.74 1422.43 L3688.74 1424.78 L3706.44 1424.78 L3706.44 1427.13 L3724.26 1427.13 L3724.26 1429.48 L3741.95 1429.48 L3741.95 1431.96 L3759.77 1431.96 L3759.77 1434.31 L3777.47 1434.31 L3777.47 1436.66 L3795.16 1436.66 L3795.16 1439.01" stroke-linejoin="round" style="fill:none;stroke:#000000;stroke-width:8.64"/>
	<line x1="390.80" y1="2509.23" x2="390.80" y2="419.90" style="stroke:#000000;stroke-width:5.76"/>
	<line x1="390.80" y1="2445.87" x2="350.83" y2="2445.87" style="stroke:#000000;stroke-width:5.76"/>
	<text x="300.72" y="2445.87" style="font-family:'Helvetica';font-size:99.99px;fill:#000000" transform="rotate(-90 300.72,2445.87)" text-anchor="middle">-200</text>
	<line x1="390.80" y1="1791.71" x2="350.83" y2="1791.71" style="stroke:#000000;stroke-width:5.76"/>
	<text x="300.72" y="1791.71" style="font-family:'Helvetica';font-size:99.99px;fill:#000000" transform="rotate(-90 300.72,1791.71)" text-anchor="middle">-100</text>
	<line x1="390.80" y1="1137.42" x2="350.83" y2="1137.42" style="stroke:#000000;stroke-width:5.76"/>
	<text x="300.72" y="1137.42" style="font-family:'Helvetica';font-size:99.99px;fill:#000000" transform="rotate(-90 300.72,1137.42)" text-anchor="middle">0</text>
	<line x1="390.80" y1="483.26" x2="350.83" y2="483.26" style="stroke:#000000;stroke-width:5.76"/>
	<text x="300.72" y="483.26" style="font-family:'Helvetica';font-size:99.99px;fill:#000000" transform="rotate(-90 300.72,483.26)" text-anchor="middle">100</text>
	<text x="190.71" y="1464.63" style="font-family:'Helvetica';font-size:99.99px;fill:#000000" transform="rotate(-90 190.71,1464.63)" text-anchor="middle">Difference in Lengths</text>
	<line x1="390.80" y1="2509.23" x2="3859.02" y2="2509.23" style="stroke:#000000;stroke-width:5.76"/>
	<line x1="454.16" y1="2509.23" x2="454.16" y2="2549.21" style="stroke:#000000;stroke-width:5.76"/>
	<text x="454.16" y="2625.15" style="font-family:'Helvetica';font-size:79.94px;fill:#000000" text-anchor="middle">0</text>
	<line x1="654.64" y1="2509.23" x2="654.64" y2="2549.21" style="stroke:#000000;stroke-width:5.76"/>
	<text x="654.64" y="2625.15" style="font-family:'Helvetica';font-size:79.94px;fill:#000000" text-anchor="middle">.3</text>
	<line x1="855.11" y1="2509.23" x2="855.11" y2="2549.21" style="stroke:#000000;stroke-width:5.76"/>
	<text x="855.11" y="2625.15" style="font-family:'Helvetica';font-size:79.94px;fill:#000000" text-anchor="middle">.6</text>
	<line x1="1055.59" y1="2509.23" x2="1055.59" y2="2549.21" style="stroke:#000000;stroke-width:5.76"/>
	<text x="1055.59" y="2625.15" style="font-family:'Helvetica';font-size:79.94px;fill:#000000" text-anchor="middle">.9</text>
	<line x1="1256.06" y1="2509.23" x2="1256.06" y2="2549.21" style="stroke:#000000;stroke-width:5.76"/>
	<text x="1256.06" y="2625.15" style="font-family:'Helvetica';font-size:79.94px;fill:#000000" text-anchor="middle">1.2</text>
	<line x1="1456.66" y1="2509.23" x2="1456.66" y2="2549.21" style="stroke:#000000;stroke-width:5.76"/>
	<text x="1456.66" y="2625.15" style="font-family:'Helvetica';font-size:79.94px;fill:#000000" text-anchor="middle">1.5</text>
	<line x1="1657.14" y1="2509.23" x2="1657.14" y2="2549.21" style="stroke:#000000;stroke-width:5.76"/>
	<text x="1657.14" y="2625.15" style="font-family:'Helvetica';font-size:79.94px;fill:#000000" text-anchor="middle">1.8</text>
	<line x1="1857.61" y1="2509.23" x2="1857.61" y2="2549.21" style="stroke:#000000;stroke-width:5.76"/>
	<text x="1857.61" y="2625.15" style="font-family:'Helvetica';font-size:79.94px;fill:#000000" text-anchor="middle">2.1</text>
	<line x1="2058.09" y1="2509.23" x2="2058.09" y2="2549.21" style="stroke:#000000;stroke-width:5.76"/>
	<text x="2058.09" y="2625.15" style="font-family:'Helvetica';font-size:79.94px;fill:#000000" text-anchor="middle">2.4</text>
	<line x1="2258.56" y1="2509.23" x2="2258.56" y2="2549.21" style="stroke:#000000;stroke-width:5.76"/>
	<text x="2258.56" y="2625.15" style="font-family:'Helvetica';font-size:79.94px;fill:#000000" text-anchor="middle">2.7</text>
	<line x1="2459.04" y1="2509.23" x2="2459.04" y2="2549.21" style="stroke:#000000;stroke-width:5.76"/>
	<text x="2459.04" y="2625.15" style="font-family:'Helvetica';font-size:79.94px;fill:#000000" text-anchor="middle">3</text>
	<line x1="2659.64" y1="2509.23" x2="2659.64" y2="2549.21" style="stroke:#000000;stroke-width:5.76"/>
	<text x="2659.64" y="2625.15" style="font-family:'Helvetica';font-size:79.94px;fill:#000000" text-anchor="middle">3.3</text>
	<line x1="2860.11" y1="2509.23" x2="2860.11" y2="2549.21" style="stroke:#000000;stroke-width:5.76"/>
	<text x="2860.11" y="2625.15" style="font-family:'Helvetica';font-size:79.94px;fill:#000000" text-anchor="middle">3.6</text>
	<line x1="3060.59" y1="2509.23" x2="3060.59" y2="2549.21" style="stroke:#000000;stroke-width:5.76"/>
	<text x="3060.59" y="2625.15" style="font-family:'Helvetica';font-size:79.94px;fill:#000000" text-anchor="middle">3.9</text>
	<line x1="3261.06" y1="2509.23" x2="3261.06" y2="2549.21" style="stroke:#000000;stroke-width:5.76"/>
	<text x="3261.06" y="2625.15" style="font-family:'Helvetica';font-size:79.94px;fill:#000000" text-anchor="middle">4.2</text>
	<line x1="3461.53" y1="2509.23" x2="3461.53" y2="2549.21" style="stroke:#000000;stroke-width:5.76"/>
	<text x="3461.53" y="2625.15" style="font-family:'Helvetica';font-size:79.94px;fill:#000000" text-anchor="middle">4.5</text>
	<line x1="3662.01" y1="2509.23" x2="3662.01" y2="2549.21" style="stroke:#000000;stroke-width:5.76"/>
	<text x="3662.01" y="2625.15" style="font-family:'Helvetica';font-size:79.94px;fill:#000000" text-anchor="middle">4.8</text>
	<line x1="3862.61" y1="2509.23" x2="3862.61" y2="2549.21" style="stroke:#000000;stroke-width:5.76"/>
	<text x="3862.61" y="2625.15" style="font-family:'Helvetica';font-size:79.94px;fill:#000000" text-anchor="middle">5.1</text>
	<text x="2124.91" y="2729.16" style="font-family:'Helvetica';font-size:99.99px;fill:#000000" text-anchor="middle">Time (years)</text>
	<rect x="425.33" y="2148.24" width="993.22" height="326.46" style="fill:#FFFFFF"/>
	<rect x="428.21" y="2151.12" width="987.46" height="320.70" style="fill:none;stroke:#000000;stroke-width:5.76"/>
	<rect x="468.52" y="2191.43" width="374.47" height="99.99" style="fill:#999999;fill-opacity:0.65"/>
	<rect x="472.84" y="2195.75" width="365.83" height="91.35" style="fill:none;stroke:#808080;stroke-opacity:0.65;stroke-width:8.64"/>
	<line x1="468.52" y1="2381.52" x2="842.99" y2="2381.52" style="stroke:#000000;stroke-width:8.64"/>
	<text x="902.88" y="2276.46" style="font-family:'Helvetica';font-size:99.99px;fill:#000000">CI95%</text>
	<text x="902.88" y="2416.55" style="font-family:'Helvetica';font-size:99.99px;fill:#000000">Difference</text>
	<text x="2124.91" y="369.63" style="font-family:'Helvetica';font-size:110.01px;fill:#000000" text-anchor="middle">from 3rd Readmission</text>
	<text x="2124.91" y="215.98" style="font-family:'Helvetica';font-size:139.96px;fill:#1E2D53" text-anchor="middle">Difference in Lengths of Stay (2nd patient)</text>
</svg>
