<?xml version="1.0" encoding="UTF-8" standalone="no"?>
<!-- This is a Stata 16.1 generated SVG file (http://www.stata.com) -->

<svg version="1.1" width="5.50in" height="4.00in" viewBox="0 0 3960 2880" xmlns="http://www.w3.org/2000/svg" xmlns:xlink="http://www.w3.org/1999/xlink">
	<desc>Stata Graph - diff_mod2435_3y_rp_22</desc>
	<rect x="0" y="0" width="3960" height="2880" style="fill:#EAF2F3;stroke:none"/>
	<rect x="0.00" y="0.00" width="3959.88" height="2880.00" style="fill:#FFFFFF"/>
	<rect x="2.88" y="2.88" width="3954.12" height="2874.24" style="fill:none;stroke:#FFFFFF;stroke-width:5.76"/>
	<rect x="559.10" y="419.90" width="3299.92" height="2089.34" style="fill:#FFFFFF"/>
	<rect x="561.98" y="422.78" width="3294.16" height="2083.58" style="fill:none;stroke:#FFFFFF;stroke-width:5.76"/>
	<line x1="559.10" y1="2249.60" x2="3859.02" y2="2249.60" style="stroke:#EAF2F3;stroke-width:8.64"/>
	<line x1="559.10" y1="2053.32" x2="3859.02" y2="2053.32" style="stroke:#EAF2F3;stroke-width:8.64"/>
	<line x1="559.10" y1="1857.05" x2="3859.02" y2="1857.05" style="stroke:#EAF2F3;stroke-width:8.64"/>
	<line x1="559.10" y1="1660.78" x2="3859.02" y2="1660.78" style="stroke:#EAF2F3;stroke-width:8.64"/>
	<line x1="559.10" y1="1464.63" x2="3859.02" y2="1464.63" style="stroke:#EAF2F3;stroke-width:8.64"/>
	<line x1="559.10" y1="1268.35" x2="3859.02" y2="1268.35" style="stroke:#EAF2F3;stroke-width:8.64"/>
	<line x1="559.10" y1="1072.08" x2="3859.02" y2="1072.08" style="stroke:#EAF2F3;stroke-width:8.64"/>
	<line x1="559.10" y1="875.81" x2="3859.02" y2="875.81" style="stroke:#EAF2F3;stroke-width:8.64"/>
	<line x1="559.10" y1="679.53" x2="3859.02" y2="679.53" style="stroke:#EAF2F3;stroke-width:8.64"/>
	<line x1="559.10" y1="1464.63" x2="3859.02" y2="1464.63" style="stroke:#1A476F;stroke-width:8.64"/>
	<defs>
		<path id="path_xzMEUjJX" d="M778.88 1373.42 L778.88 1373.42 L795.71 1373.42 L795.71 1368.97 L812.54 1368.97 L812.54 1360.06 L829.37 1360.06 L829.37 1358.45 L846.20 1358.45 L846.20 1353.99 L863.16 1353.99 L863.16 1346.81 L879.99 1346.81 L879.99 1340.01 L896.82 1340.01 L896.82 1334.81 L913.65 1334.81 L913.65 1330.97 L930.48 1330.97 L930.48 1328.50 L947.31 1328.50 L947.31 1324.79 L964.26 1324.79 L964.26 1321.20 L981.09 1321.20 L981.09 1318.23 L997.92 1318.23 L997.92 1313.52 L1014.75 1313.52 L1014.75 1311.17 L1031.58 1311.17 L1031.58 1307.83 L1048.53 1307.83 L1048.53 1303.50 L1065.36 1303.50 L1065.36 1301.40 L1082.19 1301.40 L1082.19 1297.19 L1099.02 1297.19 L1099.02 1293.72 L1115.85 1293.72 L1115.85 1291.25 L1132.68 1291.25 L1132.68 1289.52 L1149.64 1289.52 L1149.64 1287.29 L1166.47 1287.29 L1166.47 1284.07 L1183.30 1284.07 L1183.30 1283.33 L1200.13 1283.33 L1200.13 1281.35 L1216.96 1281.35 L1216.96 1279.24 L1233.79 1279.24 L1233.79 1277.88 L1250.74 1277.88 L1250.74 1277.39 L1267.57 1277.39 L1267.57 1276.40 L1284.40 1276.40 L1284.40 1275.53 L1301.23 1275.53 L1301.23 1274.66 L1318.06 1274.66 L1318.06 1274.17 L1334.89 1274.17 L1334.89 1271.20 L1351.85 1271.20 L1351.85 1270.95 L1368.67 1270.95 L1368.67 1268.48 L1385.51 1268.48 L1385.51 1266.74 L1402.34 1266.74 L1402.34 1265.63 L1419.16 1265.63 L1419.16 1263.16 L1436.12 1263.16 L1436.12 1263.40 L1452.95 1263.40 L1452.95 1261.92 L1469.78 1261.92 L1469.78 1260.19 L1486.61 1260.19 L1486.61 1259.57 L1503.44 1259.57 L1503.44 1258.33 L1520.27 1258.33 L1520.27 1256.72 L1537.22 1256.72 L1537.22 1256.72 L1554.05 1256.72 L1554.05 1254.86 L1570.88 1254.86 L1570.88 1254.99 L1587.71 1254.99 L1587.71 1254.74 L1604.54 1254.74 L1604.54 1253.75 L1621.37 1253.75 L1621.37 1252.39 L1638.33 1252.39 L1638.33 1252.02 L1655.16 1252.02 L1655.16 1250.78 L1671.99 1250.78 L1671.99 1249.30 L1688.82 1249.30 L1688.82 1249.91 L1705.65 1249.91 L1705.65 1249.54 L1722.48 1249.54 L1722.48 1249.30 L1739.43 1249.30 L1739.43 1248.18 L1756.26 1248.18 L1756.26 1246.70 L1773.09 1246.70 L1773.09 1245.95 L1789.92 1245.95 L1789.92 1245.46 L1806.75 1245.46 L1806.75 1244.96 L1823.70 1244.96 L1823.70 1245.21 L1840.53 1245.21 L1840.53 1246.08 L1857.36 1246.08 L1857.36 1245.71 L1874.19 1245.71 L1874.19 1246.45 L1891.02 1246.45 L1891.02 1245.83 L1907.85 1245.83 L1907.85 1244.72 L1924.81 1244.72 L1924.81 1245.71 L1941.64 1245.71 L1941.64 1246.57 L1958.47 1246.57 L1958.47 1246.70 L1975.30 1246.70 L1975.30 1245.46 L1992.13 1245.46 L1992.13 1245.95 L2008.96 1245.95 L2008.96 1246.94 L2025.91 1246.94 L2025.91 1247.81 L2042.74 1247.81 L2042.74 1246.45 L2059.57 1246.45 L2059.57 1246.08 L2076.40 1246.08 L2076.40 1247.56 L2093.23 1247.56 L2093.23 1248.06 L2110.18 1248.06 L2110.18 1248.31 L2127.01 1248.31 L2127.01 1247.81 L2143.84 1247.81 L2143.84 1247.81 L2160.68 1247.81 L2160.68 1248.18 L2177.51 1248.18 L2177.51 1248.43 L2194.34 1248.43 L2194.34 1247.07 L2211.29 1247.07 L2211.29 1247.44 L2228.12 1247.44 L2228.12 1246.08 L2244.95 1246.08 L2244.95 1247.44 L2261.78 1247.44 L2261.78 1247.32 L2278.61 1247.32 L2278.61 1248.92 L2295.44 1248.92 L2295.44 1248.92 L2312.39 1248.92 L2312.39 1249.17 L2329.22 1249.17 L2329.22 1249.54 L2346.05 1249.54 L2346.05 1250.41 L2362.88 1250.41 L2362.88 1251.15 L2379.71 1251.15 L2379.71 1250.90 L2396.54 1250.90 L2396.54 1251.28 L2413.50 1251.28 L2413.50 1250.78 L2430.33 1250.78 L2430.33 1250.53 L2447.16 1250.53 L2447.16 1250.78 L2463.99 1250.78 L2463.99 1250.90 L2480.82 1250.90 L2480.82 1251.28 L2497.77 1251.28 L2497.77 1251.65 L2514.60 1251.65 L2514.60 1251.03 L2531.43 1251.03 L2531.43 1251.03 L2548.26 1251.03 L2548.26 1251.28 L2565.09 1251.28 L2565.09 1251.15 L2581.92 1251.15 L2581.92 1250.41 L2598.87 1250.41 L2598.87 1250.04 L2615.70 1250.04 L2615.70 1249.67 L2632.53 1249.67 L2632.53 1250.41 L2649.36 1250.41 L2649.36 1250.41 L2666.19 1250.41 L2666.19 1249.79 L2683.02 1249.79 L2683.02 1250.16 L2699.98 1250.16 L2699.98 1250.78 L2716.81 1250.78 L2716.81 1250.16 L2733.64 1250.16 L2733.64 1248.92 L2750.47 1248.92 L2750.47 1250.04 L2767.30 1250.04 L2767.30 1249.79 L2784.25 1249.79 L2784.25 1250.04 L2801.08 1250.04 L2801.08 1249.05 L2817.91 1249.05 L2817.91 1248.68 L2834.74 1248.68 L2834.74 1248.92 L2851.57 1248.92 L2851.57 1249.91 L2868.40 1249.91 L2868.40 1250.16 L2885.36 1250.16 L2885.36 1248.43 L2902.18 1248.43 L2902.18 1248.80 L2919.01 1248.80 L2919.01 1248.80 L2935.84 1248.80 L2935.84 1249.42 L2952.68 1249.42 L2952.68 1248.80 L2969.51 1248.80 L2969.51 1248.43 L2986.46 1248.43 L2986.46 1247.69 L3003.29 1247.69 L3003.29 1248.18 L3020.12 1248.18 L3020.12 1246.45 L3036.95 1246.45 L3036.95 1247.07 L3053.78 1247.07 L3053.78 1245.95 L3070.61 1245.95 L3070.61 1245.95 L3087.56 1245.95 L3087.56 1247.93 L3104.39 1247.93 L3104.39 1248.06 L3121.22 1248.06 L3121.22 1248.18 L3138.05 1248.18 L3138.05 1247.81 L3154.88 1247.81 L3154.88 1247.56 L3171.84 1247.56 L3171.84 1248.06 L3188.67 1248.06 L3188.67 1247.32 L3205.50 1247.32 L3205.50 1247.44 L3222.33 1247.44 L3222.33 1247.19 L3239.16 1247.19 L3239.16 1247.32 L3255.99 1247.32 L3255.99 1246.57 L3272.94 1246.57 L3272.94 1246.45 L3289.77 1246.45 L3289.77 1245.83 L3306.60 1245.83 L3306.60 1246.08 L3323.43 1246.08 L3323.43 1246.57 L3340.26 1246.57 L3340.26 1247.32 L3357.09 1247.32 L3357.09 1247.81 L3374.04 1247.81 L3374.04 1247.44 L3390.87 1247.44 L3390.87 1248.31 L3407.70 1248.31 L3407.70 1248.31 L3424.53 1248.31 L3424.53 1249.17 L3441.36 1249.17 L3441.36 1249.30 L3458.19 1249.30 L3458.19 1249.05 L3475.15 1249.05 L3475.15 1248.80 L3491.98 1248.80 L3491.98 1249.42 L3508.81 1249.42 L3508.81 1249.30 L3525.64 1249.30 L3525.64 1249.67 L3542.47 1249.67 L3542.47 1249.30 L3559.42 1249.30 L3559.42 1249.17 L3576.25 1249.17 L3576.25 1249.91 L3593.08 1249.91 L3593.08 1250.66 L3609.91 1250.66 L3609.91 1251.77 L3626.74 1251.77 L3626.74 1253.50 L3643.57 1253.50 L3643.57 1254.25 L3660.53 1254.25 L3660.53 1253.87 L3677.36 1253.87 L3677.36 1253.50 L3694.18 1253.50 L3694.18 1253.38 L3711.01 1253.38 L3711.01 1253.87 L3727.84 1253.87 L3727.84 1254.99 L3744.68 1254.99 L3744.68 1255.48 L3761.63 1255.48 L3761.63 1255.48 L3778.46 1255.48 L3778.46 1257.09 L3795.29 1257.09 L3795.29 1257.96 L3795.29 1048.81 L3795.29 1048.07 L3778.46 1048.07 L3778.46 1046.83 L3761.63 1046.83 L3761.63 1047.08 L3744.68 1047.08 L3744.68 1046.83 L3727.84 1046.83 L3727.84 1046.09 L3711.01 1046.09 L3711.01 1045.84 L3694.18 1045.84 L3694.18 1046.46 L3677.36 1046.46 L3677.36 1047.21 L3660.53 1047.21 L3660.53 1047.82 L3643.57 1047.82 L3643.57 1047.33 L3626.74 1047.33 L3626.74 1045.97 L3609.91 1045.97 L3609.91 1045.10 L3593.08 1045.10 L3593.08 1044.61 L3576.25 1044.61 L3576.25 1044.36 L3559.42 1044.36 L3559.42 1044.85 L3542.47 1044.85 L3542.47 1045.47 L3525.64 1045.47 L3525.64 1045.23 L3508.81 1045.23 L3508.81 1045.97 L3491.98 1045.97 L3491.98 1045.60 L3475.15 1045.60 L3475.15 1046.09 L3458.19 1046.09 L3458.19 1046.71 L3441.36 1046.71 L3441.36 1046.96 L3424.53 1046.96 L3424.53 1046.46 L3407.70 1046.46 L3407.70 1046.83 L3390.87 1046.83 L3390.87 1046.34 L3374.04 1046.34 L3374.04 1047.08 L3357.09 1047.08 L3357.09 1046.96 L3340.26 1046.96 L3340.26 1046.59 L3323.43 1046.59 L3323.43 1046.46 L3306.60 1046.46 L3306.60 1046.46 L3289.77 1046.46 L3289.77 1047.45 L3272.94 1047.45 L3272.94 1047.82 L3255.99 1047.82 L3255.99 1048.94 L3239.16 1048.94 L3239.16 1049.06 L3222.33 1049.06 L3222.33 1049.93 L3205.50 1049.93 L3205.50 1050.18 L3188.67 1050.18 L3188.67 1051.17 L3171.84 1051.17 L3171.84 1051.17 L3154.88 1051.17 L3154.88 1051.66 L3138.05 1051.66 L3138.05 1052.40 L3121.22 1052.40 L3121.22 1052.53 L3104.39 1052.53 L3104.39 1052.77 L3087.56 1052.77 L3087.56 1051.04 L3070.61 1051.04 L3070.61 1051.41 L3053.78 1051.41 L3053.78 1052.90 L3036.95 1052.90 L3036.95 1052.77 L3020.12 1052.77 L3020.12 1054.88 L3003.29 1054.88 L3003.29 1054.75 L2986.46 1054.75 L2986.46 1055.99 L2969.51 1055.99 L2969.51 1056.61 L2952.68 1056.61 L2952.68 1057.60 L2935.84 1057.60 L2935.84 1057.48 L2919.01 1057.48 L2919.01 1057.97 L2902.18 1057.97 L2902.18 1058.22 L2885.36 1058.22 L2885.36 1060.08 L2868.40 1060.08 L2868.40 1060.32 L2851.57 1060.32 L2851.57 1059.83 L2834.74 1059.83 L2834.74 1060.08 L2817.91 1060.08 L2817.91 1060.69 L2801.08 1060.69 L2801.08 1062.06 L2784.25 1062.06 L2784.25 1062.18 L2767.30 1062.18 L2767.30 1062.80 L2750.47 1062.80 L2750.47 1062.18 L2733.64 1062.18 L2733.64 1064.04 L2716.81 1064.04 L2716.81 1064.90 L2699.98 1064.90 L2699.98 1064.78 L2683.02 1064.78 L2683.02 1064.90 L2666.19 1064.90 L2666.19 1065.89 L2649.36 1065.89 L2649.36 1066.26 L2632.53 1066.26 L2632.53 1066.02 L2615.70 1066.02 L2615.70 1066.63 L2598.87 1066.63 L2598.87 1067.38 L2581.92 1067.38 L2581.92 1068.49 L2565.09 1068.49 L2565.09 1068.99 L2548.26 1068.99 L2548.26 1069.36 L2531.43 1069.36 L2531.43 1069.73 L2514.60 1069.73 L2514.60 1070.72 L2497.77 1070.72 L2497.77 1070.84 L2480.82 1070.84 L2480.82 1070.72 L2463.99 1070.72 L2463.99 1071.09 L2447.16 1071.09 L2447.16 1071.21 L2430.33 1071.21 L2430.33 1071.83 L2413.50 1071.83 L2413.50 1072.70 L2396.54 1072.70 L2396.54 1072.45 L2379.71 1072.45 L2379.71 1072.95 L2362.88 1072.95 L2362.88 1072.57 L2346.05 1072.57 L2346.05 1072.08 L2329.22 1072.08 L2329.22 1072.08 L2312.39 1072.08 L2312.39 1072.20 L2295.44 1072.20 L2295.44 1072.57 L2278.61 1072.57 L2278.61 1071.46 L2261.78 1071.46 L2261.78 1071.83 L2244.95 1071.83 L2244.95 1070.84 L2228.12 1070.84 L2228.12 1072.57 L2211.29 1072.57 L2211.29 1072.45 L2194.34 1072.45 L2194.34 1074.06 L2177.51 1074.06 L2177.51 1074.31 L2160.68 1074.31 L2160.68 1074.18 L2143.84 1074.18 L2143.84 1074.55 L2127.01 1074.55 L2127.01 1075.54 L2110.18 1075.54 L2110.18 1075.42 L2093.23 1075.42 L2093.23 1075.42 L2076.40 1075.42 L2076.40 1074.55 L2059.57 1074.55 L2059.57 1075.30 L2042.74 1075.30 L2042.74 1077.40 L2025.91 1077.40 L2025.91 1077.03 L2008.96 1077.03 L2008.96 1076.53 L1992.13 1076.53 L1992.13 1076.53 L1975.30 1076.53 L1975.30 1078.27 L1958.47 1078.27 L1958.47 1078.64 L1941.64 1078.64 L1941.64 1078.39 L1924.81 1078.39 L1924.81 1077.90 L1907.85 1077.90 L1907.85 1079.75 L1891.02 1079.75 L1891.02 1081.11 L1874.19 1081.11 L1874.19 1081.24 L1857.36 1081.24 L1857.36 1082.23 L1840.53 1082.23 L1840.53 1082.35 L1823.70 1082.35 L1823.70 1082.85 L1806.75 1082.85 L1806.75 1084.08 L1789.92 1084.08 L1789.92 1085.32 L1773.09 1085.32 L1773.09 1086.68 L1756.26 1086.68 L1756.26 1088.91 L1739.43 1088.91 L1739.43 1090.77 L1722.48 1090.77 L1722.48 1091.76 L1705.65 1091.76 L1705.65 1092.99 L1688.82 1092.99 L1688.82 1093.24 L1671.99 1093.24 L1671.99 1095.47 L1655.16 1095.47 L1655.16 1097.57 L1638.33 1097.57 L1638.33 1098.93 L1621.37 1098.93 L1621.37 1101.29 L1604.54 1101.29 L1604.54 1103.14 L1587.71 1103.14 L1587.71 1104.38 L1570.88 1104.38 L1570.88 1105.37 L1554.05 1105.37 L1554.05 1108.09 L1537.22 1108.09 L1537.22 1108.96 L1520.27 1108.96 L1520.27 1111.68 L1503.44 1111.68 L1503.44 1113.66 L1486.61 1113.66 L1486.61 1115.27 L1469.78 1115.27 L1469.78 1117.87 L1452.95 1117.87 L1452.95 1120.34 L1436.12 1120.34 L1436.12 1121.09 L1419.16 1121.09 L1419.16 1124.55 L1402.34 1124.55 L1402.34 1126.78 L1385.51 1126.78 L1385.51 1129.38 L1368.67 1129.38 L1368.67 1132.72 L1351.85 1132.72 L1351.85 1134.08 L1334.89 1134.08 L1334.89 1138.16 L1318.06 1138.16 L1318.06 1139.77 L1301.23 1139.77 L1301.23 1141.75 L1284.40 1141.75 L1284.40 1143.86 L1267.57 1143.86 L1267.57 1146.21 L1250.74 1146.21 L1250.74 1147.94 L1233.79 1147.94 L1233.79 1150.79 L1216.96 1150.79 L1216.96 1154.62 L1200.13 1154.62 L1200.13 1158.21 L1183.30 1158.21 L1183.30 1160.69 L1166.47 1160.69 L1166.47 1165.64 L1149.64 1165.64 L1149.64 1169.85 L1132.68 1169.85 L1132.68 1173.56 L1115.85 1173.56 L1115.85 1178.14 L1099.02 1178.14 L1099.02 1183.58 L1082.19 1183.58 L1082.19 1189.89 L1065.36 1189.89 L1065.36 1194.22 L1048.53 1194.22 L1048.53 1200.91 L1031.58 1200.91 L1031.58 1206.60 L1014.75 1206.60 L1014.75 1210.93 L997.92 1210.93 L997.92 1217.99 L981.09 1217.99 L981.09 1223.43 L964.26 1223.43 L964.26 1229.49 L947.31 1229.49 L947.31 1235.81 L930.48 1235.81 L930.48 1240.63 L913.65 1240.63 L913.65 1246.94 L896.82 1246.94 L896.82 1254.86 L879.99 1254.86 L879.99 1264.52 L863.16 1264.52 L863.16 1274.54 L846.20 1274.54 L846.20 1282.21 L829.37 1282.21 L829.37 1287.04 L812.54 1287.04 L812.54 1299.17 L795.71 1299.17 L795.71 1306.84 L778.88 1306.84 L778.88 1373.42 Z" stroke-linejoin="round"/>
	</defs>
	<defs>
		<clipPath id="clipPath_YtayHeDv">
			<use xlink:href="#path_xzMEUjJX"/>
		</clipPath>
	</defs>
	<use xlink:href="#path_xzMEUjJX" style="stroke:none;fill:#999999;fill-opacity:0.75"/>
	<use xlink:href="#path_xzMEUjJX" style="fill:none;stroke:#808080;stroke-opacity:0.75;stroke-width:17.28" clip-path="url(#clipPath_YtayHeDv)"/>
	<path d=" M778.76 1340.25 L795.59 1340.25 L795.59 1334.07 L812.54 1334.07 L812.54 1323.55 L829.37 1323.55 L829.37 1320.33 L846.20 1320.33 L846.20 1314.27 L863.03 1314.27 L863.03 1305.73 L879.86 1305.73 L879.86 1297.44 L896.69 1297.44 L896.69 1290.88 L913.65 1290.88 L913.65 1285.80 L930.48 1285.80 L930.48 1282.21 L947.31 1282.21 L947.31 1277.26 L964.14 1277.26 L964.14 1272.31 L980.97 1272.31 L980.97 1268.23 L997.80 1268.23 L997.80 1262.29 L1014.75 1262.29 L1014.75 1258.95 L1031.58 1258.95 L1031.58 1254.37 L1048.41 1254.37 L1048.41 1248.92 L1065.24 1248.92 L1065.24 1245.71 L1082.07 1245.71 L1082.07 1240.39 L1099.02 1240.39 L1099.02 1235.93 L1115.85 1235.93 L1115.85 1232.34 L1132.68 1232.34 L1132.68 1229.62 L1149.51 1229.62 L1149.51 1226.40 L1166.34 1226.40 L1166.34 1222.32 L1183.17 1222.32 L1183.17 1220.71 L1200.13 1220.71 L1200.13 1217.99 L1216.96 1217.99 L1216.96 1215.02 L1233.79 1215.02 L1233.79 1212.91 L1250.62 1212.91 L1250.62 1211.80 L1267.45 1211.80 L1267.45 1210.07 L1284.28 1210.07 L1284.28 1208.58 L1301.23 1208.58 L1301.23 1207.22 L1318.06 1207.22 L1318.06 1206.23 L1334.89 1206.23 L1334.89 1202.64 L1351.72 1202.64 L1351.72 1201.77 L1368.55 1201.77 L1368.55 1198.80 L1385.51 1198.80 L1385.51 1196.70 L1402.34 1196.70 L1402.34 1195.09 L1419.16 1195.09 L1419.16 1192.12 L1435.99 1192.12 L1435.99 1191.87 L1452.83 1191.87 L1452.83 1189.89 L1469.65 1189.89 L1469.65 1187.67 L1486.61 1187.67 L1486.61 1186.55 L1503.44 1186.55 L1503.44 1184.94 L1520.27 1184.94 L1520.27 1182.72 L1537.10 1182.72 L1537.10 1182.34 L1553.93 1182.34 L1553.93 1180.12 L1570.76 1180.12 L1570.76 1179.62 L1587.71 1179.62 L1587.71 1178.88 L1604.54 1178.88 L1604.54 1177.39 L1621.37 1177.39 L1621.37 1175.54 L1638.20 1175.54 L1638.20 1174.80 L1655.03 1174.80 L1655.03 1173.06 L1671.86 1173.06 L1671.86 1171.21 L1688.82 1171.21 L1688.82 1171.33 L1705.65 1171.33 L1705.65 1170.59 L1722.48 1170.59 L1722.48 1169.97 L1739.31 1169.97 L1739.31 1168.48 L1756.14 1168.48 L1756.14 1166.63 L1773.09 1166.63 L1773.09 1165.64 L1789.92 1165.64 L1789.92 1164.77 L1806.75 1164.77 L1806.75 1163.91 L1823.58 1163.91 L1823.58 1163.78 L1840.41 1163.78 L1840.41 1164.03 L1857.24 1164.03 L1857.24 1163.41 L1874.19 1163.41 L1874.19 1163.78 L1891.02 1163.78 L1891.02 1162.67 L1907.85 1162.67 L1907.85 1161.31 L1924.68 1161.31 L1924.68 1162.05 L1941.51 1162.05 L1941.51 1162.54 L1958.34 1162.54 L1958.34 1162.42 L1975.30 1162.42 L1975.30 1160.94 L1992.13 1160.94 L1992.13 1161.18 L2008.96 1161.18 L2008.96 1161.93 L2025.79 1161.93 L2025.79 1162.54 L2042.62 1162.54 L2042.62 1160.81 L2059.45 1160.81 L2059.45 1160.19 L2076.40 1160.19 L2076.40 1161.43 L2093.23 1161.43 L2093.23 1161.68 L2110.06 1161.68 L2110.06 1161.80 L2126.89 1161.80 L2126.89 1161.18 L2143.72 1161.18 L2143.72 1160.94 L2160.68 1160.94 L2160.68 1161.18 L2177.51 1161.18 L2177.51 1161.18 L2194.34 1161.18 L2194.34 1159.70 L2211.16 1159.70 L2211.16 1159.94 L2227.99 1159.94 L2227.99 1158.34 L2244.82 1158.34 L2244.82 1159.57 L2261.78 1159.57 L2261.78 1159.33 L2278.61 1159.33 L2278.61 1160.69 L2295.44 1160.69 L2295.44 1160.44 L2312.27 1160.44 L2312.27 1160.56 L2329.10 1160.56 L2329.10 1160.69 L2345.93 1160.69 L2345.93 1161.43 L2362.88 1161.43 L2362.88 1161.93 L2379.71 1161.93 L2379.71 1161.55 L2396.54 1161.55 L2396.54 1161.93 L2413.37 1161.93 L2413.37 1161.31 L2430.20 1161.31 L2430.20 1160.69 L2447.16 1160.69 L2447.16 1160.81 L2463.99 1160.81 L2463.99 1160.69 L2480.82 1160.69 L2480.82 1160.94 L2497.65 1160.94 L2497.65 1161.06 L2514.48 1161.06 L2514.48 1160.32 L2531.31 1160.32 L2531.31 1160.07 L2548.26 1160.07 L2548.26 1159.94 L2565.09 1159.94 L2565.09 1159.70 L2581.92 1159.70 L2581.92 1158.83 L2598.75 1158.83 L2598.75 1158.21 L2615.58 1158.21 L2615.58 1157.72 L2632.41 1157.72 L2632.41 1158.21 L2649.36 1158.21 L2649.36 1158.09 L2666.19 1158.09 L2666.19 1157.22 L2683.02 1157.22 L2683.02 1157.35 L2699.85 1157.35 L2699.85 1157.72 L2716.68 1157.72 L2716.68 1156.97 L2733.51 1156.97 L2733.51 1155.49 L2750.47 1155.49 L2750.47 1156.36 L2767.30 1156.36 L2767.30 1155.86 L2784.13 1155.86 L2784.13 1155.86 L2800.96 1155.86 L2800.96 1154.75 L2817.79 1154.75 L2817.79 1154.25 L2834.74 1154.25 L2834.74 1154.25 L2851.57 1154.25 L2851.57 1154.99 L2868.40 1154.99 L2868.40 1154.99 L2885.23 1154.99 L2885.23 1153.14 L2902.06 1153.14 L2902.06 1153.26 L2918.89 1153.26 L2918.89 1153.01 L2935.84 1153.01 L2935.84 1153.39 L2952.68 1153.39 L2952.68 1152.64 L2969.51 1152.64 L2969.51 1152.02 L2986.34 1152.02 L2986.34 1151.03 L3003.16 1151.03 L3003.16 1151.41 L3019.99 1151.41 L3019.99 1149.43 L3036.95 1149.43 L3036.95 1149.92 L3053.78 1149.92 L3053.78 1148.56 L3070.61 1148.56 L3070.61 1148.44 L3087.44 1148.44 L3087.44 1150.17 L3104.27 1150.17 L3104.27 1150.17 L3121.10 1150.17 L3121.10 1150.17 L3138.05 1150.17 L3138.05 1149.55 L3154.88 1149.55 L3154.88 1149.30 L3171.71 1149.30 L3171.71 1149.43 L3188.54 1149.43 L3188.54 1148.56 L3205.37 1148.56 L3205.37 1148.56 L3222.33 1148.56 L3222.33 1147.94 L3239.16 1147.94 L3239.16 1148.06 L3255.99 1148.06 L3255.99 1146.95 L3272.82 1146.95 L3272.82 1146.83 L3289.65 1146.83 L3289.65 1145.96 L3306.48 1145.96 L3306.48 1146.08 L3323.43 1146.08 L3323.43 1146.46 L3340.26 1146.46 L3340.26 1147.07 L3357.09 1147.07 L3357.09 1147.32 L3373.92 1147.32 L3373.92 1146.83 L3390.75 1146.83 L3390.75 1147.45 L3407.58 1147.45 L3407.58 1147.20 L3424.53 1147.20 L3424.53 1147.94 L3441.36 1147.94 L3441.36 1147.82 L3458.19 1147.82 L3458.19 1147.45 L3475.02 1147.45 L3475.02 1146.95 L3491.85 1146.95 L3491.85 1147.57 L3508.81 1147.57 L3508.81 1147.07 L3525.64 1147.07 L3525.64 1147.45 L3542.47 1147.45 L3542.47 1146.95 L3559.30 1146.95 L3559.30 1146.70 L3576.13 1146.70 L3576.13 1147.07 L3592.96 1147.07 L3592.96 1147.82 L3609.91 1147.82 L3609.91 1148.68 L3626.74 1148.68 L3626.74 1150.29 L3643.57 1150.29 L3643.57 1150.91 L3660.40 1150.91 L3660.40 1150.42 L3677.23 1150.42 L3677.23 1149.80 L3694.06 1149.80 L3694.06 1149.43 L3711.01 1149.43 L3711.01 1149.80 L3727.84 1149.80 L3727.84 1150.66 L3744.68 1150.66 L3744.68 1151.16 L3761.51 1151.16 L3761.51 1151.03 L3778.34 1151.03 L3778.34 1152.40 L3795.16 1152.40 L3795.16 1153.26" stroke-linejoin="round" style="fill:none;stroke:#000000;stroke-width:8.64"/>
	<defs>
		<path id="path_MfRrSAPX" d="M778.88 1323.42 L778.88 1323.42 L795.71 1323.42 L795.71 1316.74 L812.54 1316.74 L812.54 1309.19 L829.37 1309.19 L829.37 1303.75 L846.20 1303.75 L846.20 1296.57 L863.16 1296.57 L863.16 1289.27 L879.99 1289.27 L879.99 1284.69 L896.82 1284.69 L896.82 1279.12 L913.65 1279.12 L913.65 1275.16 L930.48 1275.16 L930.48 1269.10 L947.31 1269.10 L947.31 1263.28 L964.26 1263.28 L964.26 1257.34 L981.09 1257.34 L981.09 1254.00 L997.92 1254.00 L997.92 1248.68 L1014.75 1248.68 L1014.75 1245.34 L1031.58 1245.34 L1031.58 1241.62 L1048.53 1241.62 L1048.53 1237.66 L1065.36 1237.66 L1065.36 1233.45 L1082.19 1233.45 L1082.19 1230.48 L1099.02 1230.48 L1099.02 1228.01 L1115.85 1228.01 L1115.85 1224.30 L1132.68 1224.30 L1132.68 1221.33 L1149.64 1221.33 L1149.64 1219.72 L1166.47 1219.72 L1166.47 1219.59 L1183.30 1219.59 L1183.30 1216.38 L1200.13 1216.38 L1200.13 1216.01 L1216.96 1216.01 L1216.96 1210.44 L1233.79 1210.44 L1233.79 1207.96 L1250.74 1207.96 L1250.74 1205.12 L1267.57 1205.12 L1267.57 1202.64 L1284.40 1202.64 L1284.40 1200.78 L1301.23 1200.78 L1301.23 1200.41 L1318.06 1200.41 L1318.06 1199.17 L1334.89 1199.17 L1334.89 1197.44 L1351.85 1197.44 L1351.85 1195.83 L1368.67 1195.83 L1368.67 1196.45 L1385.51 1196.45 L1385.51 1196.08 L1402.34 1196.08 L1402.34 1194.22 L1419.16 1194.22 L1419.16 1191.87 L1436.12 1191.87 L1436.12 1191.87 L1452.95 1191.87 L1452.95 1190.14 L1469.78 1190.14 L1469.78 1188.16 L1486.61 1188.16 L1486.61 1187.67 L1503.44 1187.67 L1503.44 1185.69 L1520.27 1185.69 L1520.27 1186.55 L1537.22 1186.55 L1537.22 1185.44 L1554.05 1185.44 L1554.05 1184.32 L1570.88 1184.32 L1570.88 1183.95 L1587.71 1183.95 L1587.71 1183.83 L1604.54 1183.83 L1604.54 1182.84 L1621.37 1182.84 L1621.37 1182.10 L1638.33 1182.10 L1638.33 1182.84 L1655.16 1182.84 L1655.16 1181.73 L1671.99 1181.73 L1671.99 1179.37 L1688.82 1179.37 L1688.82 1178.88 L1705.65 1178.88 L1705.65 1176.03 L1722.48 1176.03 L1722.48 1175.41 L1739.43 1175.41 L1739.43 1175.04 L1756.26 1175.04 L1756.26 1174.30 L1773.09 1174.30 L1773.09 1174.18 L1789.92 1174.18 L1789.92 1173.56 L1806.75 1173.56 L1806.75 1172.44 L1823.70 1172.44 L1823.70 1173.06 L1840.53 1173.06 L1840.53 1172.32 L1857.36 1172.32 L1857.36 1172.07 L1874.19 1172.07 L1874.19 1170.96 L1891.02 1170.96 L1891.02 1170.71 L1907.85 1170.71 L1907.85 1169.72 L1924.81 1169.72 L1924.81 1169.23 L1941.64 1169.23 L1941.64 1169.72 L1958.47 1169.72 L1958.47 1169.47 L1975.30 1169.47 L1975.30 1169.10 L1992.13 1169.10 L1992.13 1168.98 L2008.96 1168.98 L2008.96 1168.73 L2025.91 1168.73 L2025.91 1169.72 L2042.74 1169.72 L2042.74 1170.46 L2059.57 1170.46 L2059.57 1171.08 L2076.40 1171.08 L2076.40 1171.21 L2093.23 1171.21 L2093.23 1170.96 L2110.18 1170.96 L2110.18 1171.58 L2127.01 1171.58 L2127.01 1172.44 L2143.84 1172.44 L2143.84 1171.33 L2160.68 1171.33 L2160.68 1171.21 L2177.51 1171.21 L2177.51 1172.07 L2194.34 1172.07 L2194.34 1172.94 L2211.29 1172.94 L2211.29 1172.69 L2228.12 1172.69 L2228.12 1172.82 L2244.95 1172.82 L2244.95 1173.06 L2261.78 1173.06 L2261.78 1172.69 L2278.61 1172.69 L2278.61 1171.70 L2295.44 1171.70 L2295.44 1170.84 L2312.39 1170.84 L2312.39 1171.58 L2329.22 1171.58 L2329.22 1172.44 L2346.05 1172.44 L2346.05 1171.21 L2362.88 1171.21 L2362.88 1171.45 L2379.71 1171.45 L2379.71 1172.07 L2396.54 1172.07 L2396.54 1172.20 L2413.50 1172.20 L2413.50 1171.95 L2430.33 1171.95 L2430.33 1171.70 L2447.16 1171.70 L2447.16 1171.70 L2463.99 1171.70 L2463.99 1171.21 L2480.82 1171.21 L2480.82 1170.22 L2497.77 1170.22 L2497.77 1170.46 L2514.60 1170.46 L2514.60 1170.46 L2531.43 1170.46 L2531.43 1171.83 L2548.26 1171.83 L2548.26 1171.58 L2565.09 1171.58 L2565.09 1171.83 L2581.92 1171.83 L2581.92 1170.34 L2598.87 1170.34 L2598.87 1171.21 L2615.70 1171.21 L2615.70 1170.22 L2632.53 1170.22 L2632.53 1170.46 L2649.36 1170.46 L2649.36 1169.72 L2666.19 1169.72 L2666.19 1169.60 L2683.02 1169.60 L2683.02 1168.98 L2699.98 1168.98 L2699.98 1168.48 L2716.81 1168.48 L2716.81 1169.10 L2733.64 1169.10 L2733.64 1169.60 L2750.47 1169.60 L2750.47 1169.60 L2767.30 1169.60 L2767.30 1170.34 L2784.25 1170.34 L2784.25 1170.09 L2801.08 1170.09 L2801.08 1169.97 L2817.91 1169.97 L2817.91 1169.60 L2834.74 1169.60 L2834.74 1169.23 L2851.57 1169.23 L2851.57 1169.35 L2868.40 1169.35 L2868.40 1168.61 L2885.36 1168.61 L2885.36 1168.11 L2902.18 1168.11 L2902.18 1167.49 L2919.01 1167.49 L2919.01 1167.37 L2935.84 1167.37 L2935.84 1167.25 L2952.68 1167.25 L2952.68 1166.63 L2969.51 1166.63 L2969.51 1166.63 L2986.46 1166.63 L2986.46 1167.87 L3003.29 1167.87 L3003.29 1166.63 L3020.12 1166.63 L3020.12 1165.89 L3036.95 1165.89 L3036.95 1165.02 L3053.78 1165.02 L3053.78 1165.27 L3070.61 1165.27 L3070.61 1165.89 L3087.56 1165.89 L3087.56 1165.76 L3104.39 1165.76 L3104.39 1167.25 L3121.22 1167.25 L3121.22 1167.25 L3138.05 1167.25 L3138.05 1166.50 L3154.88 1166.50 L3154.88 1166.50 L3171.84 1166.50 L3171.84 1165.89 L3188.67 1165.89 L3188.67 1166.01 L3205.50 1166.01 L3205.50 1166.26 L3222.33 1166.26 L3222.33 1167.00 L3239.16 1167.00 L3239.16 1166.75 L3255.99 1166.75 L3255.99 1168.48 L3272.94 1168.48 L3272.94 1168.11 L3289.77 1168.11 L3289.77 1169.47 L3306.60 1169.47 L3306.60 1168.98 L3323.43 1168.98 L3323.43 1168.61 L3340.26 1168.61 L3340.26 1169.85 L3357.09 1169.85 L3357.09 1170.59 L3374.04 1170.59 L3374.04 1170.84 L3390.87 1170.84 L3390.87 1170.22 L3407.70 1170.22 L3407.70 1169.23 L3424.53 1169.23 L3424.53 1169.85 L3441.36 1169.85 L3441.36 1170.59 L3458.19 1170.59 L3458.19 1169.47 L3475.15 1169.47 L3475.15 1169.35 L3491.98 1169.35 L3491.98 1170.22 L3508.81 1170.22 L3508.81 1170.46 L3525.64 1170.46 L3525.64 1170.22 L3542.47 1170.22 L3542.47 1170.46 L3559.42 1170.46 L3559.42 1170.71 L3576.25 1170.71 L3576.25 1171.70 L3593.08 1171.70 L3593.08 1171.70 L3609.91 1171.70 L3609.91 1173.19 L3626.74 1173.19 L3626.74 1172.57 L3643.57 1172.57 L3643.57 1173.68 L3660.53 1173.68 L3660.53 1173.19 L3677.36 1173.19 L3677.36 1173.68 L3694.18 1173.68 L3694.18 1173.43 L3711.01 1173.43 L3711.01 1173.81 L3727.84 1173.81 L3727.84 1174.42 L3744.68 1174.42 L3744.68 1174.05 L3761.63 1174.05 L3761.63 1174.92 L3778.46 1174.92 L3778.46 1175.41 L3795.29 1175.41 L3795.29 1176.53 L3795.29 1036.07 L3795.29 1035.20 L3778.46 1035.20 L3778.46 1034.83 L3761.63 1034.83 L3761.63 1034.09 L3744.68 1034.09 L3744.68 1034.58 L3727.84 1034.58 L3727.84 1034.09 L3711.01 1034.09 L3711.01 1033.96 L3694.18 1033.96 L3694.18 1034.33 L3677.36 1034.33 L3677.36 1033.84 L3660.53 1033.84 L3660.53 1034.46 L3643.57 1034.46 L3643.57 1033.47 L3626.74 1033.47 L3626.74 1034.21 L3609.91 1034.21 L3609.91 1032.85 L3593.08 1032.85 L3593.08 1032.97 L3576.25 1032.97 L3576.25 1032.11 L3559.42 1032.11 L3559.42 1031.98 L3542.47 1031.98 L3542.47 1031.98 L3525.64 1031.98 L3525.64 1032.23 L3508.81 1032.23 L3508.81 1032.23 L3491.98 1032.23 L3491.98 1031.49 L3475.15 1031.49 L3475.15 1031.86 L3458.19 1031.86 L3458.19 1032.85 L3441.36 1032.85 L3441.36 1032.23 L3424.53 1032.23 L3424.53 1031.61 L3407.70 1031.61 L3407.70 1032.73 L3390.87 1032.73 L3390.87 1033.34 L3374.04 1033.34 L3374.04 1033.34 L3357.09 1033.34 L3357.09 1032.60 L3340.26 1032.60 L3340.26 1031.61 L3323.43 1031.61 L3323.43 1032.11 L3306.60 1032.11 L3306.60 1032.73 L3289.77 1032.73 L3289.77 1031.36 L3272.94 1031.36 L3272.94 1031.74 L3255.99 1031.74 L3255.99 1030.37 L3239.16 1030.37 L3239.16 1030.75 L3222.33 1030.75 L3222.33 1030.13 L3205.50 1030.13 L3205.50 1030.13 L3188.67 1030.13 L3188.67 1030.13 L3171.84 1030.13 L3171.84 1030.75 L3154.88 1030.75 L3154.88 1030.87 L3138.05 1030.87 L3138.05 1031.74 L3121.22 1031.74 L3121.22 1031.74 L3104.39 1031.74 L3104.39 1030.62 L3087.56 1030.62 L3087.56 1030.99 L3070.61 1030.99 L3070.61 1030.50 L3053.78 1030.50 L3053.78 1030.25 L3036.95 1030.25 L3036.95 1031.24 L3020.12 1031.24 L3020.12 1032.11 L3003.29 1032.11 L3003.29 1033.47 L2986.46 1033.47 L2986.46 1032.35 L2969.51 1032.35 L2969.51 1032.48 L2952.68 1032.48 L2952.68 1032.97 L2935.84 1032.97 L2935.84 1033.10 L2919.01 1033.10 L2919.01 1033.47 L2902.18 1033.47 L2902.18 1034.21 L2885.36 1034.21 L2885.36 1034.95 L2868.40 1034.95 L2868.40 1035.82 L2851.57 1035.82 L2851.57 1035.94 L2834.74 1035.94 L2834.74 1036.31 L2817.91 1036.31 L2817.91 1036.81 L2801.08 1036.81 L2801.08 1036.81 L2784.25 1036.81 L2784.25 1037.30 L2767.30 1037.30 L2767.30 1036.56 L2750.47 1036.56 L2750.47 1036.69 L2733.64 1036.69 L2733.64 1036.19 L2716.81 1036.19 L2716.81 1035.82 L2699.98 1035.82 L2699.98 1036.44 L2683.02 1036.44 L2683.02 1037.06 L2666.19 1037.06 L2666.19 1037.30 L2649.36 1037.30 L2649.36 1038.29 L2632.53 1038.29 L2632.53 1038.17 L2615.70 1038.17 L2615.70 1039.16 L2598.87 1039.16 L2598.87 1038.54 L2581.92 1038.54 L2581.92 1039.90 L2565.09 1039.90 L2565.09 1039.78 L2548.26 1039.78 L2548.26 1040.28 L2531.43 1040.28 L2531.43 1039.04 L2514.60 1039.04 L2514.60 1039.16 L2497.77 1039.16 L2497.77 1039.04 L2480.82 1039.04 L2480.82 1040.15 L2463.99 1040.15 L2463.99 1040.65 L2447.16 1040.65 L2447.16 1040.65 L2430.33 1040.65 L2430.33 1041.02 L2413.50 1041.02 L2413.50 1041.39 L2396.54 1041.39 L2396.54 1041.39 L2379.71 1041.39 L2379.71 1040.77 L2362.88 1040.77 L2362.88 1040.77 L2346.05 1040.77 L2346.05 1042.13 L2329.22 1042.13 L2329.22 1041.27 L2312.39 1041.27 L2312.39 1040.77 L2295.44 1040.77 L2295.44 1041.76 L2278.61 1041.76 L2278.61 1042.87 L2261.78 1042.87 L2261.78 1043.37 L2244.95 1043.37 L2244.95 1043.00 L2228.12 1043.00 L2228.12 1043.12 L2211.29 1043.12 L2211.29 1043.49 L2194.34 1043.49 L2194.34 1042.50 L2177.51 1042.50 L2177.51 1041.88 L2160.68 1041.88 L2160.68 1042.13 L2143.84 1042.13 L2143.84 1043.37 L2127.01 1043.37 L2127.01 1042.50 L2110.18 1042.50 L2110.18 1042.13 L2093.23 1042.13 L2093.23 1042.63 L2076.40 1042.63 L2076.40 1042.87 L2059.57 1042.87 L2059.57 1042.50 L2042.74 1042.50 L2042.74 1042.13 L2025.91 1042.13 L2025.91 1041.27 L2008.96 1041.27 L2008.96 1041.51 L1992.13 1041.51 L1992.13 1041.76 L1975.30 1041.76 L1975.30 1042.26 L1958.47 1042.26 L1958.47 1042.87 L1941.64 1042.87 L1941.64 1042.75 L1924.81 1042.75 L1924.81 1043.49 L1907.85 1043.49 L1907.85 1044.61 L1891.02 1044.61 L1891.02 1045.23 L1874.19 1045.23 L1874.19 1046.59 L1857.36 1046.59 L1857.36 1046.83 L1840.53 1046.83 L1840.53 1047.70 L1823.70 1047.70 L1823.70 1047.33 L1806.75 1047.33 L1806.75 1048.69 L1789.92 1048.69 L1789.92 1049.43 L1773.09 1049.43 L1773.09 1049.43 L1756.26 1049.43 L1756.26 1050.42 L1739.43 1050.42 L1739.43 1051.17 L1722.48 1051.17 L1722.48 1052.16 L1705.65 1052.16 L1705.65 1055.25 L1688.82 1055.25 L1688.82 1055.99 L1671.99 1055.99 L1671.99 1058.47 L1655.16 1058.47 L1655.16 1059.83 L1638.33 1059.83 L1638.33 1059.33 L1621.37 1059.33 L1621.37 1060.32 L1604.54 1060.32 L1604.54 1061.56 L1587.71 1061.56 L1587.71 1062.06 L1570.88 1062.06 L1570.88 1062.67 L1554.05 1062.67 L1554.05 1064.04 L1537.22 1064.04 L1537.22 1065.64 L1520.27 1065.64 L1520.27 1065.15 L1503.44 1065.15 L1503.44 1067.50 L1486.61 1067.50 L1486.61 1068.49 L1469.78 1068.49 L1469.78 1070.84 L1452.95 1070.84 L1452.95 1073.32 L1436.12 1073.32 L1436.12 1073.56 L1419.16 1073.56 L1419.16 1076.29 L1402.34 1076.29 L1402.34 1078.64 L1385.51 1078.64 L1385.51 1079.63 L1368.67 1079.63 L1368.67 1079.88 L1351.85 1079.88 L1351.85 1081.98 L1334.89 1081.98 L1334.89 1084.21 L1318.06 1084.21 L1318.06 1086.19 L1301.23 1086.19 L1301.23 1086.93 L1284.40 1086.93 L1284.40 1089.65 L1267.57 1089.65 L1267.57 1092.87 L1250.74 1092.87 L1250.74 1096.34 L1233.79 1096.34 L1233.79 1099.68 L1216.96 1099.68 L1216.96 1106.11 L1200.13 1106.11 L1200.13 1107.60 L1183.30 1107.60 L1183.30 1111.68 L1166.47 1111.68 L1166.47 1112.67 L1149.64 1112.67 L1149.64 1115.27 L1132.68 1115.27 L1132.68 1119.23 L1115.85 1119.23 L1115.85 1123.93 L1099.02 1123.93 L1099.02 1127.65 L1082.19 1127.65 L1082.19 1131.98 L1065.36 1131.98 L1065.36 1137.42 L1048.53 1137.42 L1048.53 1142.87 L1031.58 1142.87 L1031.58 1148.19 L1014.75 1148.19 L1014.75 1153.01 L997.92 1153.01 L997.92 1160.07 L981.09 1160.07 L981.09 1165.27 L964.26 1165.27 L964.26 1173.31 L947.31 1173.31 L947.31 1181.35 L930.48 1181.35 L930.48 1189.52 L913.65 1189.52 L913.65 1195.83 L896.82 1195.83 L896.82 1203.51 L879.99 1203.51 L879.99 1210.44 L863.16 1210.44 L863.16 1220.34 L846.20 1220.34 L846.20 1230.24 L829.37 1230.24 L829.37 1238.40 L812.54 1238.40 L812.54 1248.68 L795.71 1248.68 L795.71 1258.45 L778.88 1258.45 L778.88 1323.42 Z" stroke-linejoin="round"/>
	</defs>
	<defs>
		<clipPath id="clipPath_dNvJroeh">
			<use xlink:href="#path_MfRrSAPX"/>
		</clipPath>
	</defs>
	<use xlink:href="#path_MfRrSAPX" style="stroke:none;fill:#999999;fill-opacity:0.35"/>
	<use xlink:href="#path_MfRrSAPX" style="fill:none;stroke:#808080;stroke-opacity:0.35;stroke-width:17.28" clip-path="url(#clipPath_dNvJroeh)"/>
	<path d=" M778.76 1291.00 L795.59 1291.00 L795.59 1282.71 L812.54 1282.71 L812.54 1273.92 L829.37 1273.92 L829.37 1266.99 L846.20 1266.99 L846.20 1258.45 L863.03 1258.45 L863.03 1249.91 L879.86 1249.91 L879.86 1244.10 L896.69 1244.10 L896.69 1237.54 L913.65 1237.54 L913.65 1232.34 L930.48 1232.34 L930.48 1225.29 L947.31 1225.29 L947.31 1218.36 L964.14 1218.36 L964.14 1211.30 L980.97 1211.30 L980.97 1206.97 L997.80 1206.97 L997.80 1200.91 L1014.75 1200.91 L1014.75 1196.82 L1031.58 1196.82 L1031.58 1192.24 L1048.41 1192.24 L1048.41 1187.54 L1065.24 1187.54 L1065.24 1182.72 L1082.07 1182.72 L1082.07 1179.13 L1099.02 1179.13 L1099.02 1176.03 L1115.85 1176.03 L1115.85 1171.83 L1132.68 1171.83 L1132.68 1168.36 L1149.51 1168.36 L1149.51 1166.26 L1166.34 1166.26 L1166.34 1165.64 L1183.17 1165.64 L1183.17 1162.05 L1200.13 1162.05 L1200.13 1161.06 L1216.96 1161.06 L1216.96 1154.99 L1233.79 1154.99 L1233.79 1152.15 L1250.62 1152.15 L1250.62 1149.05 L1267.45 1149.05 L1267.45 1146.08 L1284.28 1146.08 L1284.28 1143.86 L1301.23 1143.86 L1301.23 1143.36 L1318.06 1143.36 L1318.06 1141.63 L1334.89 1141.63 L1334.89 1139.65 L1351.72 1139.65 L1351.72 1137.79 L1368.55 1137.79 L1368.55 1138.04 L1385.51 1138.04 L1385.51 1137.30 L1402.34 1137.30 L1402.34 1135.19 L1419.16 1135.19 L1419.16 1132.72 L1435.99 1132.72 L1435.99 1132.60 L1452.83 1132.60 L1452.83 1130.49 L1469.65 1130.49 L1469.65 1128.39 L1486.61 1128.39 L1486.61 1127.52 L1503.44 1127.52 L1503.44 1125.42 L1520.27 1125.42 L1520.27 1126.04 L1537.10 1126.04 L1537.10 1124.68 L1553.93 1124.68 L1553.93 1123.44 L1570.76 1123.44 L1570.76 1122.94 L1587.71 1122.94 L1587.71 1122.70 L1604.54 1122.70 L1604.54 1121.58 L1621.37 1121.58 L1621.37 1120.72 L1638.20 1120.72 L1638.20 1121.33 L1655.03 1121.33 L1655.03 1120.10 L1671.86 1120.10 L1671.86 1117.62 L1688.82 1117.62 L1688.82 1117.00 L1705.65 1117.00 L1705.65 1114.16 L1722.48 1114.16 L1722.48 1113.29 L1739.31 1113.29 L1739.31 1112.79 L1756.14 1112.79 L1756.14 1111.80 L1773.09 1111.80 L1773.09 1111.80 L1789.92 1111.80 L1789.92 1111.06 L1806.75 1111.06 L1806.75 1109.82 L1823.58 1109.82 L1823.58 1110.32 L1840.41 1110.32 L1840.41 1109.58 L1857.24 1109.58 L1857.24 1109.33 L1874.19 1109.33 L1874.19 1108.09 L1891.02 1108.09 L1891.02 1107.60 L1907.85 1107.60 L1907.85 1106.48 L1924.68 1106.48 L1924.68 1105.99 L1941.51 1105.99 L1941.51 1106.24 L1958.34 1106.24 L1958.34 1105.86 L1975.30 1105.86 L1975.30 1105.37 L1992.13 1105.37 L1992.13 1105.25 L2008.96 1105.25 L2008.96 1105.00 L2025.79 1105.00 L2025.79 1105.86 L2042.62 1105.86 L2042.62 1106.48 L2059.45 1106.48 L2059.45 1106.98 L2076.40 1106.98 L2076.40 1106.85 L2093.23 1106.85 L2093.23 1106.48 L2110.06 1106.48 L2110.06 1106.98 L2126.89 1106.98 L2126.89 1107.84 L2143.72 1107.84 L2143.72 1106.73 L2160.68 1106.73 L2160.68 1106.48 L2177.51 1106.48 L2177.51 1107.23 L2194.34 1107.23 L2194.34 1108.22 L2211.16 1108.22 L2211.16 1107.97 L2227.99 1107.97 L2227.99 1107.84 L2244.82 1107.84 L2244.82 1108.22 L2261.78 1108.22 L2261.78 1107.72 L2278.61 1107.72 L2278.61 1106.73 L2295.44 1106.73 L2295.44 1105.74 L2312.27 1105.74 L2312.27 1106.36 L2329.10 1106.36 L2329.10 1107.23 L2345.93 1107.23 L2345.93 1105.99 L2362.88 1105.99 L2362.88 1105.99 L2379.71 1105.99 L2379.71 1106.61 L2396.54 1106.61 L2396.54 1106.73 L2413.37 1106.73 L2413.37 1106.48 L2430.20 1106.48 L2430.20 1106.11 L2447.16 1106.11 L2447.16 1106.11 L2463.99 1106.11 L2463.99 1105.62 L2480.82 1105.62 L2480.82 1104.63 L2497.65 1104.63 L2497.65 1104.75 L2514.48 1104.75 L2514.48 1104.75 L2531.31 1104.75 L2531.31 1105.99 L2548.26 1105.99 L2548.26 1105.62 L2565.09 1105.62 L2565.09 1105.86 L2581.92 1105.86 L2581.92 1104.38 L2598.75 1104.38 L2598.75 1105.12 L2615.58 1105.12 L2615.58 1104.13 L2632.41 1104.13 L2632.41 1104.38 L2649.36 1104.38 L2649.36 1103.51 L2666.19 1103.51 L2666.19 1103.27 L2683.02 1103.27 L2683.02 1102.65 L2699.85 1102.65 L2699.85 1102.15 L2716.68 1102.15 L2716.68 1102.65 L2733.51 1102.65 L2733.51 1103.14 L2750.47 1103.14 L2750.47 1103.02 L2767.30 1103.02 L2767.30 1103.76 L2784.13 1103.76 L2784.13 1103.39 L2800.96 1103.39 L2800.96 1103.39 L2817.79 1103.39 L2817.79 1102.89 L2834.74 1102.89 L2834.74 1102.52 L2851.57 1102.52 L2851.57 1102.52 L2868.40 1102.52 L2868.40 1101.78 L2885.23 1101.78 L2885.23 1101.16 L2902.06 1101.16 L2902.06 1100.42 L2918.89 1100.42 L2918.89 1100.17 L2935.84 1100.17 L2935.84 1100.05 L2952.68 1100.05 L2952.68 1099.43 L2969.51 1099.43 L2969.51 1099.43 L2986.34 1099.43 L2986.34 1100.67 L3003.16 1100.67 L3003.16 1099.31 L3019.99 1099.31 L3019.99 1098.56 L3036.95 1098.56 L3036.95 1097.57 L3053.78 1097.57 L3053.78 1097.82 L3070.61 1097.82 L3070.61 1098.32 L3087.44 1098.32 L3087.44 1098.19 L3104.27 1098.19 L3104.27 1099.43 L3121.10 1099.43 L3121.10 1099.43 L3138.05 1099.43 L3138.05 1098.69 L3154.88 1098.69 L3154.88 1098.56 L3171.71 1098.56 L3171.71 1097.94 L3188.54 1097.94 L3188.54 1098.07 L3205.37 1098.07 L3205.37 1098.19 L3222.33 1098.19 L3222.33 1098.81 L3239.16 1098.81 L3239.16 1098.56 L3255.99 1098.56 L3255.99 1100.05 L3272.82 1100.05 L3272.82 1099.68 L3289.65 1099.68 L3289.65 1101.04 L3306.48 1101.04 L3306.48 1100.54 L3323.43 1100.54 L3323.43 1100.05 L3340.26 1100.05 L3340.26 1101.16 L3357.09 1101.16 L3357.09 1101.90 L3373.92 1101.90 L3373.92 1102.03 L3390.75 1102.03 L3390.75 1101.41 L3407.58 1101.41 L3407.58 1100.30 L3424.53 1100.30 L3424.53 1101.04 L3441.36 1101.04 L3441.36 1101.66 L3458.19 1101.66 L3458.19 1100.67 L3475.02 1100.67 L3475.02 1100.30 L3491.85 1100.30 L3491.85 1101.16 L3508.81 1101.16 L3508.81 1101.29 L3525.64 1101.29 L3525.64 1101.04 L3542.47 1101.04 L3542.47 1101.16 L3559.30 1101.16 L3559.30 1101.41 L3576.13 1101.41 L3576.13 1102.28 L3592.96 1102.28 L3592.96 1102.28 L3609.91 1102.28 L3609.91 1103.64 L3626.74 1103.64 L3626.74 1103.02 L3643.57 1103.02 L3643.57 1104.01 L3660.40 1104.01 L3660.40 1103.39 L3677.23 1103.39 L3677.23 1103.88 L3694.06 1103.88 L3694.06 1103.64 L3711.01 1103.64 L3711.01 1103.88 L3727.84 1103.88 L3727.84 1104.50 L3744.68 1104.50 L3744.68 1104.01 L3761.51 1104.01 L3761.51 1104.87 L3778.34 1104.87 L3778.34 1105.25 L3795.16 1105.25 L3795.16 1106.24" stroke-linejoin="round" style="fill:none;stroke:#808080;stroke-width:8.64"/>
	<line x1="559.10" y1="2509.23" x2="559.10" y2="419.90" style="stroke:#000000;stroke-width:5.76"/>
	<line x1="559.10" y1="2445.87" x2="519.13" y2="2445.87" style="stroke:#000000;stroke-width:5.76"/>
	<text x="499.08" y="2480.90" style="font-family:'Helvetica';font-size:99.99px;fill:#000000" text-anchor="end">-0.25</text>
	<line x1="559.10" y1="2249.60" x2="519.13" y2="2249.60" style="stroke:#000000;stroke-width:5.76"/>
	<text x="499.08" y="2284.63" style="font-family:'Helvetica';font-size:99.99px;fill:#000000" text-anchor="end">-0.20</text>
	<line x1="559.10" y1="2053.32" x2="519.13" y2="2053.32" style="stroke:#000000;stroke-width:5.76"/>
	<text x="499.08" y="2088.35" style="font-family:'Helvetica';font-size:99.99px;fill:#000000" text-anchor="end">-0.15</text>
	<line x1="559.10" y1="1857.05" x2="519.13" y2="1857.05" style="stroke:#000000;stroke-width:5.76"/>
	<text x="499.08" y="1892.08" style="font-family:'Helvetica';font-size:99.99px;fill:#000000" text-anchor="end">-0.10</text>
	<line x1="559.10" y1="1660.78" x2="519.13" y2="1660.78" style="stroke:#000000;stroke-width:5.76"/>
	<text x="499.08" y="1695.81" style="font-family:'Helvetica';font-size:99.99px;fill:#000000" text-anchor="end">-0.05</text>
	<line x1="559.10" y1="1464.63" x2="519.13" y2="1464.63" style="stroke:#000000;stroke-width:5.76"/>
	<text x="499.08" y="1499.66" style="font-family:'Helvetica';font-size:99.99px;fill:#000000" text-anchor="end">0.00</text>
	<line x1="559.10" y1="1268.35" x2="519.13" y2="1268.35" style="stroke:#000000;stroke-width:5.76"/>
	<text x="499.08" y="1303.38" style="font-family:'Helvetica';font-size:99.99px;fill:#000000" text-anchor="end">0.05</text>
	<line x1="559.10" y1="1072.08" x2="519.13" y2="1072.08" style="stroke:#000000;stroke-width:5.76"/>
	<text x="499.08" y="1107.11" style="font-family:'Helvetica';font-size:99.99px;fill:#000000" text-anchor="end">0.10</text>
	<line x1="559.10" y1="875.81" x2="519.13" y2="875.81" style="stroke:#000000;stroke-width:5.76"/>
	<text x="499.08" y="910.83" style="font-family:'Helvetica';font-size:99.99px;fill:#000000" text-anchor="end">0.15</text>
	<line x1="559.10" y1="679.53" x2="519.13" y2="679.53" style="stroke:#000000;stroke-width:5.76"/>
	<text x="499.08" y="714.56" style="font-family:'Helvetica';font-size:99.99px;fill:#000000" text-anchor="end">0.20</text>
	<line x1="559.10" y1="483.26" x2="519.13" y2="483.26" style="stroke:#000000;stroke-width:5.76"/>
	<text x="499.08" y="518.29" style="font-family:'Helvetica';font-size:99.99px;fill:#000000" text-anchor="end">0.25</text>
	<text x="190.71" y="1464.63" style="font-family:'Helvetica';font-size:99.99px;fill:#000000" transform="rotate(-90 190.71,1464.63)" text-anchor="middle">Difference in Probabilities</text>
	<line x1="559.10" y1="2509.23" x2="3859.02" y2="2509.23" style="stroke:#000000;stroke-width:5.76"/>
	<line x1="622.46" y1="2509.23" x2="622.46" y2="2549.21" style="stroke:#000000;stroke-width:5.76"/>
	<text x="622.46" y="2625.15" style="font-family:'Helvetica';font-size:79.94px;fill:#000000" text-anchor="middle">0</text>
	<line x1="812.91" y1="2509.23" x2="812.91" y2="2549.21" style="stroke:#000000;stroke-width:5.76"/>
	<text x="812.91" y="2625.15" style="font-family:'Helvetica';font-size:79.94px;fill:#000000" text-anchor="middle">.3</text>
	<line x1="1003.24" y1="2509.23" x2="1003.24" y2="2549.21" style="stroke:#000000;stroke-width:5.76"/>
	<text x="1003.24" y="2625.15" style="font-family:'Helvetica';font-size:79.94px;fill:#000000" text-anchor="middle">.6</text>
	<line x1="1193.69" y1="2509.23" x2="1193.69" y2="2549.21" style="stroke:#000000;stroke-width:5.76"/>
	<text x="1193.69" y="2625.15" style="font-family:'Helvetica';font-size:79.94px;fill:#000000" text-anchor="middle">.9</text>
	<line x1="1384.02" y1="2509.23" x2="1384.02" y2="2549.21" style="stroke:#000000;stroke-width:5.76"/>
	<text x="1384.02" y="2625.15" style="font-family:'Helvetica';font-size:79.94px;fill:#000000" text-anchor="middle">1.2</text>
	<line x1="1574.47" y1="2509.23" x2="1574.47" y2="2549.21" style="stroke:#000000;stroke-width:5.76"/>
	<text x="1574.47" y="2625.15" style="font-family:'Helvetica';font-size:79.94px;fill:#000000" text-anchor="middle">1.5</text>
	<line x1="1764.80" y1="2509.23" x2="1764.80" y2="2549.21" style="stroke:#000000;stroke-width:5.76"/>
	<text x="1764.80" y="2625.15" style="font-family:'Helvetica';font-size:79.94px;fill:#000000" text-anchor="middle">1.8</text>
	<line x1="1955.25" y1="2509.23" x2="1955.25" y2="2549.21" style="stroke:#000000;stroke-width:5.76"/>
	<text x="1955.25" y="2625.15" style="font-family:'Helvetica';font-size:79.94px;fill:#000000" text-anchor="middle">2.1</text>
	<line x1="2145.58" y1="2509.23" x2="2145.58" y2="2549.21" style="stroke:#000000;stroke-width:5.76"/>
	<text x="2145.58" y="2625.15" style="font-family:'Helvetica';font-size:79.94px;fill:#000000" text-anchor="middle">2.4</text>
	<line x1="2336.03" y1="2509.23" x2="2336.03" y2="2549.21" style="stroke:#000000;stroke-width:5.76"/>
	<text x="2336.03" y="2625.15" style="font-family:'Helvetica';font-size:79.94px;fill:#000000" text-anchor="middle">2.7</text>
	<line x1="2526.48" y1="2509.23" x2="2526.48" y2="2549.21" style="stroke:#000000;stroke-width:5.76"/>
	<text x="2526.48" y="2625.15" style="font-family:'Helvetica';font-size:79.94px;fill:#000000" text-anchor="middle">3</text>
	<line x1="2716.81" y1="2509.23" x2="2716.81" y2="2549.21" style="stroke:#000000;stroke-width:5.76"/>
	<text x="2716.81" y="2625.15" style="font-family:'Helvetica';font-size:79.94px;fill:#000000" text-anchor="middle">3.3</text>
	<line x1="2907.26" y1="2509.23" x2="2907.26" y2="2549.21" style="stroke:#000000;stroke-width:5.76"/>
	<text x="2907.26" y="2625.15" style="font-family:'Helvetica';font-size:79.94px;fill:#000000" text-anchor="middle">3.6</text>
	<line x1="3097.59" y1="2509.23" x2="3097.59" y2="2549.21" style="stroke:#000000;stroke-width:5.76"/>
	<text x="3097.59" y="2625.15" style="font-family:'Helvetica';font-size:79.94px;fill:#000000" text-anchor="middle">3.9</text>
	<line x1="3288.04" y1="2509.23" x2="3288.04" y2="2549.21" style="stroke:#000000;stroke-width:5.76"/>
	<text x="3288.04" y="2625.15" style="font-family:'Helvetica';font-size:79.94px;fill:#000000" text-anchor="middle">4.2</text>
	<line x1="3478.36" y1="2509.23" x2="3478.36" y2="2549.21" style="stroke:#000000;stroke-width:5.76"/>
	<text x="3478.36" y="2625.15" style="font-family:'Helvetica';font-size:79.94px;fill:#000000" text-anchor="middle">4.5</text>
	<line x1="3668.82" y1="2509.23" x2="3668.82" y2="2549.21" style="stroke:#000000;stroke-width:5.76"/>
	<text x="3668.82" y="2625.15" style="font-family:'Helvetica';font-size:79.94px;fill:#000000" text-anchor="middle">4.8</text>
	<line x1="3859.14" y1="2509.23" x2="3859.14" y2="2549.21" style="stroke:#000000;stroke-width:5.76"/>
	<text x="3859.14" y="2625.15" style="font-family:'Helvetica';font-size:79.94px;fill:#000000" text-anchor="middle">5.1</text>
	<text x="2209.06" y="2729.16" style="font-family:'Helvetica';font-size:99.99px;fill:#000000" text-anchor="middle">Time (years)</text>
	<rect x="2519.18" y="1868.31" width="1305.32" height="606.39" style="fill:#FFFFFF"/>
	<rect x="2522.06" y="1871.19" width="1299.56" height="600.63" style="fill:none;stroke:#000000;stroke-width:5.76"/>
	<rect x="2562.37" y="1911.50" width="374.34" height="99.99" style="fill:#999999;fill-opacity:0.75"/>
	<rect x="2566.69" y="1915.82" width="365.70" height="91.35" style="fill:none;stroke:#808080;stroke-opacity:0.75;stroke-width:8.64"/>
	<line x1="2562.37" y1="2101.46" x2="2936.71" y2="2101.46" style="stroke:#000000;stroke-width:8.64"/>
	<rect x="2562.37" y="2191.43" width="374.34" height="99.99" style="fill:#999999;fill-opacity:0.35"/>
	<rect x="2566.69" y="2195.75" width="365.70" height="91.35" style="fill:none;stroke:#808080;stroke-opacity:0.35;stroke-width:8.64"/>
	<line x1="2562.37" y1="2381.52" x2="2936.71" y2="2381.52" style="stroke:#808080;stroke-width:8.64"/>
	<text x="2996.73" y="1996.53" style="font-family:'Helvetica';font-size:99.99px;fill:#000000">CI95%</text>
	<text x="2996.73" y="2136.49" style="font-family:'Helvetica';font-size:99.99px;fill:#000000">Difference (TC)</text>
	<text x="2996.73" y="2276.46" style="font-family:'Helvetica';font-size:99.99px;fill:#000000">CI95%</text>
	<text x="2996.73" y="2416.55" style="font-family:'Helvetica';font-size:99.99px;fill:#000000">Difference (TNC)</text>
	<text x="2209.06" y="369.63" style="font-family:'Helvetica';font-size:110.01px;fill:#000000" text-anchor="middle">from First treatment to Readmission (RP)</text>
	<text x="2209.06" y="215.98" style="font-family:'Helvetica';font-size:139.96px;fill:#1E2D53" text-anchor="middle">Difference in Probabilities at 3 years</text>
</svg>
