<?xml version="1.0" encoding="UTF-8" standalone="no"?>
<!-- This is a Stata 16.1 generated SVG file (http://www.stata.com) -->

<svg version="1.1" width="5.50in" height="4.00in" viewBox="0 0 3960 2880" xmlns="http://www.w3.org/2000/svg" xmlns:xlink="http://www.w3.org/1999/xlink">
	<desc>Stata Graph - diff_mod12</desc>
	<rect x="0" y="0" width="3960" height="2880" style="fill:#EAF2F3;stroke:none"/>
	<rect x="0.00" y="0.00" width="3959.88" height="2880.00" style="fill:#FFFFFF"/>
	<rect x="2.88" y="2.88" width="3954.12" height="2874.24" style="fill:none;stroke:#FFFFFF;stroke-width:5.76"/>
	<rect x="559.10" y="419.90" width="3299.92" height="2089.34" style="fill:#FFFFFF"/>
	<rect x="561.98" y="422.78" width="3294.16" height="2083.58" style="fill:none;stroke:#FFFFFF;stroke-width:5.76"/>
	<line x1="559.10" y1="2200.59" x2="3859.02" y2="2200.59" style="stroke:#EAF2F3;stroke-width:8.64"/>
	<line x1="559.10" y1="1955.19" x2="3859.02" y2="1955.19" style="stroke:#EAF2F3;stroke-width:8.64"/>
	<line x1="559.10" y1="1709.91" x2="3859.02" y2="1709.91" style="stroke:#EAF2F3;stroke-width:8.64"/>
	<line x1="559.10" y1="1464.63" x2="3859.02" y2="1464.63" style="stroke:#EAF2F3;stroke-width:8.64"/>
	<line x1="559.10" y1="1219.22" x2="3859.02" y2="1219.22" style="stroke:#EAF2F3;stroke-width:8.64"/>
	<line x1="559.10" y1="973.94" x2="3859.02" y2="973.94" style="stroke:#EAF2F3;stroke-width:8.64"/>
	<line x1="559.10" y1="728.66" x2="3859.02" y2="728.66" style="stroke:#EAF2F3;stroke-width:8.64"/>
	<line x1="559.10" y1="1464.63" x2="3859.02" y2="1464.63" style="stroke:#1A476F;stroke-width:8.64"/>
	<defs>
		<path id="path_YCMjvdvg" d="M778.88 1468.46 L778.88 1468.46 L795.71 1468.46 L795.71 1468.71 L812.54 1468.71 L812.54 1468.59 L829.37 1468.59 L829.37 1468.59 L846.20 1468.59 L846.20 1468.71 L863.16 1468.71 L863.16 1468.71 L879.99 1468.71 L879.99 1468.96 L896.82 1468.96 L896.82 1469.21 L913.65 1469.21 L913.65 1469.82 L930.48 1469.82 L930.48 1470.07 L947.31 1470.07 L947.31 1469.82 L964.26 1469.82 L964.26 1470.07 L981.09 1470.07 L981.09 1470.81 L997.92 1470.81 L997.92 1471.31 L1014.75 1471.31 L1014.75 1471.43 L1031.58 1471.43 L1031.58 1471.68 L1048.53 1471.68 L1048.53 1471.68 L1065.36 1471.68 L1065.36 1471.80 L1082.19 1471.80 L1082.19 1472.18 L1099.02 1472.18 L1099.02 1472.42 L1115.85 1472.42 L1115.85 1472.92 L1132.68 1472.92 L1132.68 1473.54 L1149.64 1473.54 L1149.64 1474.28 L1166.47 1474.28 L1166.47 1474.77 L1183.30 1474.77 L1183.30 1474.53 L1200.13 1474.53 L1200.13 1475.02 L1216.96 1475.02 L1216.96 1475.64 L1233.79 1475.64 L1233.79 1475.39 L1250.74 1475.39 L1250.74 1475.64 L1267.57 1475.64 L1267.57 1476.26 L1284.40 1476.26 L1284.40 1476.26 L1301.23 1476.26 L1301.23 1477.00 L1318.06 1477.00 L1318.06 1477.87 L1334.89 1477.87 L1334.89 1478.12 L1351.85 1478.12 L1351.85 1478.61 L1368.67 1478.61 L1368.67 1479.11 L1385.51 1479.11 L1385.51 1479.60 L1402.34 1479.60 L1402.34 1479.97 L1419.16 1479.97 L1419.16 1480.84 L1436.12 1480.84 L1436.12 1481.33 L1452.95 1481.33 L1452.95 1481.46 L1469.78 1481.46 L1469.78 1482.57 L1486.61 1482.57 L1486.61 1483.19 L1503.44 1483.19 L1503.44 1483.81 L1520.27 1483.81 L1520.27 1484.43 L1537.22 1484.43 L1537.22 1484.30 L1554.05 1484.30 L1554.05 1484.92 L1570.88 1484.92 L1570.88 1484.68 L1587.71 1484.68 L1587.71 1484.80 L1604.54 1484.80 L1604.54 1484.80 L1621.37 1484.80 L1621.37 1484.80 L1638.33 1484.80 L1638.33 1485.29 L1655.16 1485.29 L1655.16 1485.05 L1671.99 1485.05 L1671.99 1485.54 L1688.82 1485.54 L1688.82 1485.91 L1705.65 1485.91 L1705.65 1486.16 L1722.48 1486.16 L1722.48 1486.90 L1739.43 1486.90 L1739.43 1487.03 L1756.26 1487.03 L1756.26 1487.40 L1773.09 1487.40 L1773.09 1487.52 L1789.92 1487.52 L1789.92 1487.77 L1806.75 1487.77 L1806.75 1488.26 L1823.70 1488.26 L1823.70 1488.39 L1840.53 1488.39 L1840.53 1488.88 L1857.36 1488.88 L1857.36 1489.38 L1874.19 1489.38 L1874.19 1489.63 L1891.02 1489.63 L1891.02 1489.87 L1907.85 1489.87 L1907.85 1489.63 L1924.81 1489.63 L1924.81 1489.75 L1941.64 1489.75 L1941.64 1489.63 L1958.47 1489.63 L1958.47 1489.38 L1975.30 1489.38 L1975.30 1490.00 L1992.13 1490.00 L1992.13 1490.37 L2008.96 1490.37 L2008.96 1490.62 L2025.91 1490.62 L2025.91 1490.49 L2042.74 1490.49 L2042.74 1490.37 L2059.57 1490.37 L2059.57 1490.37 L2076.40 1490.37 L2076.40 1490.62 L2093.23 1490.62 L2093.23 1490.49 L2110.18 1490.49 L2110.18 1490.12 L2127.01 1490.12 L2127.01 1490.49 L2143.84 1490.49 L2143.84 1490.62 L2160.68 1490.62 L2160.68 1490.49 L2177.51 1490.49 L2177.51 1490.62 L2194.34 1490.62 L2194.34 1490.49 L2211.29 1490.49 L2211.29 1490.24 L2228.12 1490.24 L2228.12 1490.12 L2244.95 1490.12 L2244.95 1490.12 L2261.78 1490.12 L2261.78 1489.87 L2278.61 1489.87 L2278.61 1489.87 L2295.44 1489.87 L2295.44 1490.24 L2312.39 1490.24 L2312.39 1490.37 L2329.22 1490.37 L2329.22 1490.37 L2346.05 1490.37 L2346.05 1490.37 L2362.88 1490.37 L2362.88 1490.86 L2379.71 1490.86 L2379.71 1491.11 L2396.54 1491.11 L2396.54 1490.99 L2413.50 1490.99 L2413.50 1490.99 L2430.33 1490.99 L2430.33 1491.11 L2447.16 1491.11 L2447.16 1491.23 L2463.99 1491.23 L2463.99 1491.61 L2480.82 1491.61 L2480.82 1491.61 L2497.77 1491.61 L2497.77 1491.36 L2514.60 1491.36 L2514.60 1491.36 L2531.43 1491.36 L2531.43 1491.48 L2548.26 1491.48 L2548.26 1491.61 L2565.09 1491.61 L2565.09 1491.73 L2581.92 1491.73 L2581.92 1491.73 L2598.87 1491.73 L2598.87 1491.73 L2615.70 1491.73 L2615.70 1491.36 L2632.53 1491.36 L2632.53 1491.61 L2649.36 1491.61 L2649.36 1491.48 L2666.19 1491.48 L2666.19 1491.23 L2683.02 1491.23 L2683.02 1491.48 L2699.98 1491.48 L2699.98 1491.23 L2716.81 1491.23 L2716.81 1491.48 L2733.64 1491.48 L2733.64 1491.98 L2750.47 1491.98 L2750.47 1491.98 L2767.30 1491.98 L2767.30 1492.47 L2784.25 1492.47 L2784.25 1492.35 L2801.08 1492.35 L2801.08 1492.60 L2817.91 1492.60 L2817.91 1492.60 L2834.74 1492.60 L2834.74 1492.72 L2851.57 1492.72 L2851.57 1492.60 L2868.40 1492.60 L2868.40 1492.60 L2885.36 1492.60 L2885.36 1492.47 L2902.18 1492.47 L2902.18 1492.72 L2919.01 1492.72 L2919.01 1492.84 L2935.84 1492.84 L2935.84 1492.84 L2952.68 1492.84 L2952.68 1493.09 L2969.51 1493.09 L2969.51 1493.09 L2986.46 1493.09 L2986.46 1493.34 L3003.29 1493.34 L3003.29 1493.21 L3020.12 1493.21 L3020.12 1492.72 L3036.95 1492.72 L3036.95 1492.97 L3053.78 1492.97 L3053.78 1492.84 L3070.61 1492.84 L3070.61 1492.72 L3087.56 1492.72 L3087.56 1492.72 L3104.39 1492.72 L3104.39 1492.60 L3121.22 1492.60 L3121.22 1492.47 L3138.05 1492.47 L3138.05 1492.60 L3154.88 1492.60 L3154.88 1492.97 L3171.84 1492.97 L3171.84 1492.97 L3188.67 1492.97 L3188.67 1493.21 L3205.50 1493.21 L3205.50 1492.97 L3222.33 1492.97 L3222.33 1492.72 L3239.16 1492.72 L3239.16 1492.72 L3255.99 1492.72 L3255.99 1493.09 L3272.94 1493.09 L3272.94 1493.09 L3289.77 1493.09 L3289.77 1492.97 L3306.60 1492.97 L3306.60 1492.97 L3323.43 1492.97 L3323.43 1492.97 L3340.26 1492.97 L3340.26 1492.84 L3357.09 1492.84 L3357.09 1492.97 L3374.04 1492.97 L3374.04 1493.21 L3390.87 1493.21 L3390.87 1493.09 L3407.70 1493.09 L3407.70 1493.09 L3424.53 1493.09 L3424.53 1492.97 L3441.36 1492.97 L3441.36 1493.21 L3458.19 1493.21 L3458.19 1493.21 L3475.15 1493.21 L3475.15 1493.46 L3491.98 1493.46 L3491.98 1493.71 L3508.81 1493.71 L3508.81 1493.71 L3525.64 1493.71 L3525.64 1494.20 L3542.47 1494.20 L3542.47 1494.33 L3559.42 1494.33 L3559.42 1494.33 L3576.25 1494.33 L3576.25 1494.20 L3593.08 1494.20 L3593.08 1494.33 L3609.91 1494.33 L3609.91 1494.33 L3626.74 1494.33 L3626.74 1494.45 L3643.57 1494.45 L3643.57 1494.45 L3660.53 1494.45 L3660.53 1494.33 L3677.36 1494.33 L3677.36 1494.33 L3694.18 1494.33 L3694.18 1494.45 L3711.01 1494.45 L3711.01 1494.45 L3727.84 1494.45 L3727.84 1494.95 L3744.68 1494.95 L3744.68 1494.82 L3761.63 1494.82 L3761.63 1494.58 L3778.46 1494.58 L3778.46 1494.33 L3795.29 1494.33 L3795.29 1494.33 L3795.29 1439.63 L3795.29 1439.75 L3778.46 1439.75 L3778.46 1440.00 L3761.63 1440.00 L3761.63 1440.25 L3744.68 1440.25 L3744.68 1440.62 L3727.84 1440.62 L3727.84 1440.25 L3711.01 1440.25 L3711.01 1440.25 L3694.18 1440.25 L3694.18 1440.25 L3677.36 1440.25 L3677.36 1440.37 L3660.53 1440.37 L3660.53 1440.62 L3643.57 1440.62 L3643.57 1440.74 L3626.74 1440.74 L3626.74 1440.62 L3609.91 1440.62 L3609.91 1440.74 L3593.08 1440.74 L3593.08 1440.74 L3576.25 1440.74 L3576.25 1440.87 L3559.42 1440.87 L3559.42 1441.11 L3542.47 1441.11 L3542.47 1440.99 L3525.64 1440.99 L3525.64 1440.74 L3508.81 1440.74 L3508.81 1440.62 L3491.98 1440.62 L3491.98 1440.50 L3475.15 1440.50 L3475.15 1440.37 L3458.19 1440.37 L3458.19 1440.50 L3441.36 1440.50 L3441.36 1440.37 L3424.53 1440.37 L3424.53 1440.50 L3407.70 1440.50 L3407.70 1440.62 L3390.87 1440.62 L3390.87 1440.87 L3374.04 1440.87 L3374.04 1440.87 L3357.09 1440.87 L3357.09 1440.87 L3340.26 1440.87 L3340.26 1441.11 L3323.43 1441.11 L3323.43 1441.11 L3306.60 1441.11 L3306.60 1441.36 L3289.77 1441.36 L3289.77 1441.49 L3272.94 1441.49 L3272.94 1441.61 L3255.99 1441.61 L3255.99 1441.24 L3239.16 1441.24 L3239.16 1441.36 L3222.33 1441.36 L3222.33 1441.86 L3205.50 1441.86 L3205.50 1442.10 L3188.67 1442.10 L3188.67 1442.10 L3171.84 1442.10 L3171.84 1442.23 L3154.88 1442.23 L3154.88 1441.98 L3138.05 1441.98 L3138.05 1441.98 L3121.22 1441.98 L3121.22 1442.23 L3104.39 1442.23 L3104.39 1442.60 L3087.56 1442.60 L3087.56 1442.60 L3070.61 1442.60 L3070.61 1442.72 L3053.78 1442.72 L3053.78 1443.09 L3036.95 1443.09 L3036.95 1442.85 L3020.12 1442.85 L3020.12 1443.47 L3003.29 1443.47 L3003.29 1443.71 L2986.46 1443.71 L2986.46 1443.59 L2969.51 1443.59 L2969.51 1443.71 L2952.68 1443.71 L2952.68 1443.71 L2935.84 1443.71 L2935.84 1443.71 L2919.01 1443.71 L2919.01 1443.84 L2902.18 1443.84 L2902.18 1443.84 L2885.36 1443.84 L2885.36 1443.96 L2868.40 1443.96 L2868.40 1444.08 L2851.57 1444.08 L2851.57 1444.33 L2834.74 1444.33 L2834.74 1444.33 L2817.91 1444.33 L2817.91 1444.33 L2801.08 1444.33 L2801.08 1444.33 L2784.25 1444.33 L2784.25 1444.58 L2767.30 1444.58 L2767.30 1444.33 L2750.47 1444.33 L2750.47 1444.46 L2733.64 1444.46 L2733.64 1444.08 L2716.81 1444.08 L2716.81 1443.96 L2699.98 1443.96 L2699.98 1444.33 L2683.02 1444.33 L2683.02 1444.21 L2666.19 1444.21 L2666.19 1444.58 L2649.36 1444.58 L2649.36 1444.83 L2632.53 1444.83 L2632.53 1444.83 L2615.70 1444.83 L2615.70 1445.32 L2598.87 1445.32 L2598.87 1445.57 L2581.92 1445.57 L2581.92 1445.57 L2565.09 1445.57 L2565.09 1445.69 L2548.26 1445.69 L2548.26 1445.69 L2531.43 1445.69 L2531.43 1445.69 L2514.60 1445.69 L2514.60 1445.94 L2497.77 1445.94 L2497.77 1446.31 L2480.82 1446.31 L2480.82 1446.44 L2463.99 1446.44 L2463.99 1446.44 L2447.16 1446.44 L2447.16 1446.44 L2430.33 1446.44 L2430.33 1446.44 L2413.50 1446.44 L2413.50 1446.56 L2396.54 1446.56 L2396.54 1446.81 L2379.71 1446.81 L2379.71 1446.81 L2362.88 1446.81 L2362.88 1446.44 L2346.05 1446.44 L2346.05 1446.56 L2329.22 1446.56 L2329.22 1446.81 L2312.39 1446.81 L2312.39 1446.93 L2295.44 1446.93 L2295.44 1446.56 L2278.61 1446.56 L2278.61 1446.68 L2261.78 1446.68 L2261.78 1447.05 L2244.95 1447.05 L2244.95 1447.30 L2228.12 1447.30 L2228.12 1447.55 L2211.29 1447.55 L2211.29 1448.04 L2194.34 1448.04 L2194.34 1448.17 L2177.51 1448.17 L2177.51 1448.29 L2160.68 1448.29 L2160.68 1448.54 L2143.84 1448.54 L2143.84 1448.79 L2127.01 1448.79 L2127.01 1448.54 L2110.18 1448.54 L2110.18 1449.16 L2093.23 1449.16 L2093.23 1449.53 L2076.40 1449.53 L2076.40 1449.41 L2059.57 1449.41 L2059.57 1449.65 L2042.74 1449.65 L2042.74 1449.90 L2025.91 1449.90 L2025.91 1450.27 L2008.96 1450.27 L2008.96 1450.27 L1992.13 1450.27 L1992.13 1450.15 L1975.30 1450.15 L1975.30 1449.78 L1958.47 1449.78 L1958.47 1450.15 L1941.64 1450.15 L1941.64 1450.40 L1924.81 1450.40 L1924.81 1450.52 L1907.85 1450.52 L1907.85 1451.01 L1891.02 1451.01 L1891.02 1450.89 L1874.19 1450.89 L1874.19 1450.89 L1857.36 1450.89 L1857.36 1450.64 L1840.53 1450.64 L1840.53 1450.40 L1823.70 1450.40 L1823.70 1450.40 L1806.75 1450.40 L1806.75 1450.15 L1789.92 1450.15 L1789.92 1450.15 L1773.09 1450.15 L1773.09 1450.40 L1756.26 1450.40 L1756.26 1450.27 L1739.43 1450.27 L1739.43 1450.27 L1722.48 1450.27 L1722.48 1449.90 L1705.65 1449.90 L1705.65 1450.02 L1688.82 1450.02 L1688.82 1449.90 L1671.99 1449.90 L1671.99 1449.78 L1655.16 1449.78 L1655.16 1450.27 L1638.33 1450.27 L1638.33 1450.02 L1621.37 1450.02 L1621.37 1450.52 L1604.54 1450.52 L1604.54 1450.77 L1587.71 1450.77 L1587.71 1451.01 L1570.88 1451.01 L1570.88 1451.51 L1554.05 1451.51 L1554.05 1451.39 L1537.22 1451.39 L1537.22 1451.76 L1520.27 1451.76 L1520.27 1451.51 L1503.44 1451.51 L1503.44 1451.26 L1486.61 1451.26 L1486.61 1451.01 L1469.78 1451.01 L1469.78 1450.52 L1452.95 1450.52 L1452.95 1450.77 L1436.12 1450.77 L1436.12 1450.77 L1419.16 1450.77 L1419.16 1450.52 L1402.34 1450.52 L1402.34 1450.89 L1385.51 1450.89 L1385.51 1450.77 L1368.67 1450.77 L1368.67 1450.89 L1351.85 1450.89 L1351.85 1450.89 L1334.89 1450.89 L1334.89 1451.26 L1318.06 1451.26 L1318.06 1451.01 L1301.23 1451.01 L1301.23 1451.01 L1284.40 1451.01 L1284.40 1451.39 L1267.57 1451.39 L1267.57 1451.51 L1250.74 1451.51 L1250.74 1451.88 L1233.79 1451.88 L1233.79 1452.75 L1216.96 1452.75 L1216.96 1452.75 L1200.13 1452.75 L1200.13 1452.99 L1183.30 1452.99 L1183.30 1453.86 L1166.47 1453.86 L1166.47 1454.11 L1149.64 1454.11 L1149.64 1453.98 L1132.68 1453.98 L1132.68 1454.23 L1115.85 1454.23 L1115.85 1454.60 L1099.02 1454.60 L1099.02 1454.97 L1082.19 1454.97 L1082.19 1455.35 L1065.36 1455.35 L1065.36 1455.96 L1048.53 1455.96 L1048.53 1456.46 L1031.58 1456.46 L1031.58 1456.95 L1014.75 1456.95 L1014.75 1457.70 L997.92 1457.70 L997.92 1457.94 L981.09 1457.94 L981.09 1457.94 L964.26 1457.94 L964.26 1458.44 L947.31 1458.44 L947.31 1459.43 L930.48 1459.43 L930.48 1459.80 L913.65 1459.80 L913.65 1459.92 L896.82 1459.92 L896.82 1460.30 L879.99 1460.30 L879.99 1460.67 L863.16 1460.67 L863.16 1461.29 L846.20 1461.29 L846.20 1461.78 L829.37 1461.78 L829.37 1462.40 L812.54 1462.40 L812.54 1463.14 L795.71 1463.14 L795.71 1463.51 L778.88 1463.51 L778.88 1468.46 Z" stroke-linejoin="round"/>
	</defs>
	<defs>
		<clipPath id="clipPath_kBXzrKMo">
			<use xlink:href="#path_YCMjvdvg"/>
		</clipPath>
	</defs>
	<use xlink:href="#path_YCMjvdvg" style="stroke:none;fill:#999999;fill-opacity:0.65"/>
	<use xlink:href="#path_YCMjvdvg" style="fill:none;stroke:#808080;stroke-opacity:0.65;stroke-width:17.28" clip-path="url(#clipPath_kBXzrKMo)"/>
	<path d=" M778.76 1465.99 L795.59 1465.99 L795.59 1465.99 L812.54 1465.99 L812.54 1465.62 L829.37 1465.62 L829.37 1465.25 L846.20 1465.25 L846.20 1465.12 L863.03 1465.12 L863.03 1464.75 L879.86 1464.75 L879.86 1464.75 L896.69 1464.75 L896.69 1464.63 L913.65 1464.63 L913.65 1464.87 L930.48 1464.87 L930.48 1464.75 L947.31 1464.75 L947.31 1464.13 L964.14 1464.13 L964.14 1464.01 L980.97 1464.01 L980.97 1464.38 L997.80 1464.38 L997.80 1464.63 L1014.75 1464.63 L1014.75 1464.26 L1031.58 1464.26 L1031.58 1464.13 L1048.41 1464.13 L1048.41 1463.88 L1065.24 1463.88 L1065.24 1463.64 L1082.07 1463.64 L1082.07 1463.64 L1099.02 1463.64 L1099.02 1463.64 L1115.85 1463.64 L1115.85 1463.64 L1132.68 1463.64 L1132.68 1463.76 L1149.51 1463.76 L1149.51 1464.26 L1166.34 1464.26 L1166.34 1464.38 L1183.17 1464.38 L1183.17 1463.76 L1200.13 1463.76 L1200.13 1464.01 L1216.96 1464.01 L1216.96 1464.26 L1233.79 1464.26 L1233.79 1463.76 L1250.62 1463.76 L1250.62 1463.64 L1267.45 1463.64 L1267.45 1463.88 L1284.28 1463.88 L1284.28 1463.76 L1301.23 1463.76 L1301.23 1464.01 L1318.06 1464.01 L1318.06 1464.63 L1334.89 1464.63 L1334.89 1464.50 L1351.72 1464.50 L1351.72 1464.87 L1368.55 1464.87 L1368.55 1465.00 L1385.51 1465.00 L1385.51 1465.37 L1402.34 1465.37 L1402.34 1465.37 L1419.16 1465.37 L1419.16 1465.86 L1435.99 1465.86 L1435.99 1466.11 L1452.83 1466.11 L1452.83 1465.99 L1469.65 1465.99 L1469.65 1466.85 L1486.61 1466.85 L1486.61 1467.23 L1503.44 1467.23 L1503.44 1467.72 L1520.27 1467.72 L1520.27 1468.22 L1537.10 1468.22 L1537.10 1467.97 L1553.93 1467.97 L1553.93 1468.22 L1570.76 1468.22 L1570.76 1467.97 L1587.71 1467.97 L1587.71 1467.84 L1604.54 1467.84 L1604.54 1467.72 L1621.37 1467.72 L1621.37 1467.47 L1638.20 1467.47 L1638.20 1467.84 L1655.03 1467.84 L1655.03 1467.47 L1671.86 1467.47 L1671.86 1467.72 L1688.82 1467.72 L1688.82 1468.09 L1705.65 1468.09 L1705.65 1468.09 L1722.48 1468.09 L1722.48 1468.59 L1739.31 1468.59 L1739.31 1468.71 L1756.14 1468.71 L1756.14 1468.96 L1773.09 1468.96 L1773.09 1468.96 L1789.92 1468.96 L1789.92 1468.96 L1806.75 1468.96 L1806.75 1469.33 L1823.58 1469.33 L1823.58 1469.45 L1840.41 1469.45 L1840.41 1469.82 L1857.24 1469.82 L1857.24 1470.20 L1874.19 1470.20 L1874.19 1470.32 L1891.02 1470.32 L1891.02 1470.44 L1907.85 1470.44 L1907.85 1470.20 L1924.68 1470.20 L1924.68 1470.07 L1941.51 1470.07 L1941.51 1469.95 L1958.34 1469.95 L1958.34 1469.70 L1975.30 1469.70 L1975.30 1470.20 L1992.13 1470.20 L1992.13 1470.32 L2008.96 1470.32 L2008.96 1470.44 L2025.79 1470.44 L2025.79 1470.32 L2042.62 1470.32 L2042.62 1470.07 L2059.45 1470.07 L2059.45 1469.95 L2076.40 1469.95 L2076.40 1470.20 L2093.23 1470.20 L2093.23 1469.95 L2110.06 1469.95 L2110.06 1469.45 L2126.89 1469.45 L2126.89 1469.70 L2143.72 1469.70 L2143.72 1469.58 L2160.68 1469.58 L2160.68 1469.45 L2177.51 1469.45 L2177.51 1469.45 L2194.34 1469.45 L2194.34 1469.33 L2211.16 1469.33 L2211.16 1468.96 L2227.99 1468.96 L2227.99 1468.83 L2244.82 1468.83 L2244.82 1468.71 L2261.78 1468.71 L2261.78 1468.34 L2278.61 1468.34 L2278.61 1468.22 L2295.44 1468.22 L2295.44 1468.71 L2312.27 1468.71 L2312.27 1468.59 L2329.10 1468.59 L2329.10 1468.59 L2345.93 1468.59 L2345.93 1468.46 L2362.88 1468.46 L2362.88 1468.96 L2379.71 1468.96 L2379.71 1469.08 L2396.54 1469.08 L2396.54 1468.83 L2413.37 1468.83 L2413.37 1468.83 L2430.20 1468.83 L2430.20 1468.83 L2447.16 1468.83 L2447.16 1468.96 L2463.99 1468.96 L2463.99 1469.08 L2480.82 1469.08 L2480.82 1469.08 L2497.65 1469.08 L2497.65 1468.71 L2514.48 1468.71 L2514.48 1468.59 L2531.31 1468.59 L2531.31 1468.59 L2548.26 1468.59 L2548.26 1468.71 L2565.09 1468.71 L2565.09 1468.71 L2581.92 1468.71 L2581.92 1468.71 L2598.75 1468.71 L2598.75 1468.59 L2615.58 1468.59 L2615.58 1468.22 L2632.41 1468.22 L2632.41 1468.22 L2649.36 1468.22 L2649.36 1468.09 L2666.19 1468.09 L2666.19 1467.84 L2683.02 1467.84 L2683.02 1467.97 L2699.85 1467.97 L2699.85 1467.60 L2716.68 1467.60 L2716.68 1467.84 L2733.51 1467.84 L2733.51 1468.22 L2750.47 1468.22 L2750.47 1468.22 L2767.30 1468.22 L2767.30 1468.59 L2784.13 1468.59 L2784.13 1468.34 L2800.96 1468.34 L2800.96 1468.59 L2817.79 1468.59 L2817.79 1468.59 L2834.74 1468.59 L2834.74 1468.59 L2851.57 1468.59 L2851.57 1468.46 L2868.40 1468.46 L2868.40 1468.34 L2885.23 1468.34 L2885.23 1468.22 L2902.06 1468.22 L2902.06 1468.34 L2918.89 1468.34 L2918.89 1468.34 L2935.84 1468.34 L2935.84 1468.34 L2952.68 1468.34 L2952.68 1468.46 L2969.51 1468.46 L2969.51 1468.34 L2986.34 1468.34 L2986.34 1468.59 L3003.16 1468.59 L3003.16 1468.46 L3019.99 1468.46 L3019.99 1467.84 L3036.95 1467.84 L3036.95 1468.09 L3053.78 1468.09 L3053.78 1467.84 L3070.61 1467.84 L3070.61 1467.72 L3087.44 1467.72 L3087.44 1467.72 L3104.27 1467.72 L3104.27 1467.47 L3121.10 1467.47 L3121.10 1467.35 L3138.05 1467.35 L3138.05 1467.35 L3154.88 1467.35 L3154.88 1467.72 L3171.71 1467.72 L3171.71 1467.60 L3188.54 1467.60 L3188.54 1467.72 L3205.37 1467.72 L3205.37 1467.47 L3222.33 1467.47 L3222.33 1467.10 L3239.16 1467.10 L3239.16 1466.98 L3255.99 1466.98 L3255.99 1467.47 L3272.82 1467.47 L3272.82 1467.35 L3289.65 1467.35 L3289.65 1467.23 L3306.48 1467.23 L3306.48 1467.10 L3323.43 1467.10 L3323.43 1467.10 L3340.26 1467.10 L3340.26 1466.98 L3357.09 1466.98 L3357.09 1466.98 L3373.92 1466.98 L3373.92 1467.10 L3390.75 1467.10 L3390.75 1466.85 L3407.58 1466.85 L3407.58 1466.85 L3424.53 1466.85 L3424.53 1466.73 L3441.36 1466.73 L3441.36 1466.85 L3458.19 1466.85 L3458.19 1466.85 L3475.02 1466.85 L3475.02 1467.10 L3491.85 1467.10 L3491.85 1467.23 L3508.81 1467.23 L3508.81 1467.23 L3525.64 1467.23 L3525.64 1467.72 L3542.47 1467.72 L3542.47 1467.72 L3559.30 1467.72 L3559.30 1467.72 L3576.13 1467.72 L3576.13 1467.47 L3592.96 1467.47 L3592.96 1467.60 L3609.91 1467.60 L3609.91 1467.47 L3626.74 1467.47 L3626.74 1467.72 L3643.57 1467.72 L3643.57 1467.60 L3660.40 1467.60 L3660.40 1467.35 L3677.23 1467.35 L3677.23 1467.35 L3694.06 1467.35 L3694.06 1467.47 L3711.01 1467.47 L3711.01 1467.47 L3727.84 1467.47 L3727.84 1467.84 L3744.68 1467.84 L3744.68 1467.60 L3761.51 1467.60 L3761.51 1467.35 L3778.34 1467.35 L3778.34 1467.10 L3795.16 1467.10 L3795.16 1466.98" stroke-linejoin="round" style="fill:none;stroke:#000000;stroke-width:8.64"/>
	<line x1="559.10" y1="2509.23" x2="559.10" y2="419.90" style="stroke:#000000;stroke-width:5.76"/>
	<line x1="559.10" y1="2445.87" x2="519.13" y2="2445.87" style="stroke:#000000;stroke-width:5.76"/>
	<text x="499.08" y="2480.90" style="font-family:'Helvetica';font-size:99.99px;fill:#000000" text-anchor="end">-1.00</text>
	<line x1="559.10" y1="2200.59" x2="519.13" y2="2200.59" style="stroke:#000000;stroke-width:5.76"/>
	<text x="499.08" y="2235.62" style="font-family:'Helvetica';font-size:99.99px;fill:#000000" text-anchor="end">-0.75</text>
	<line x1="559.10" y1="1955.19" x2="519.13" y2="1955.19" style="stroke:#000000;stroke-width:5.76"/>
	<text x="499.08" y="1990.22" style="font-family:'Helvetica';font-size:99.99px;fill:#000000" text-anchor="end">-0.50</text>
	<line x1="559.10" y1="1709.91" x2="519.13" y2="1709.91" style="stroke:#000000;stroke-width:5.76"/>
	<text x="499.08" y="1744.94" style="font-family:'Helvetica';font-size:99.99px;fill:#000000" text-anchor="end">-0.25</text>
	<line x1="559.10" y1="1464.63" x2="519.13" y2="1464.63" style="stroke:#000000;stroke-width:5.76"/>
	<text x="499.08" y="1499.66" style="font-family:'Helvetica';font-size:99.99px;fill:#000000" text-anchor="end">0.00</text>
	<line x1="559.10" y1="1219.22" x2="519.13" y2="1219.22" style="stroke:#000000;stroke-width:5.76"/>
	<text x="499.08" y="1254.25" style="font-family:'Helvetica';font-size:99.99px;fill:#000000" text-anchor="end">0.25</text>
	<line x1="559.10" y1="973.94" x2="519.13" y2="973.94" style="stroke:#000000;stroke-width:5.76"/>
	<text x="499.08" y="1008.97" style="font-family:'Helvetica';font-size:99.99px;fill:#000000" text-anchor="end">0.50</text>
	<line x1="559.10" y1="728.66" x2="519.13" y2="728.66" style="stroke:#000000;stroke-width:5.76"/>
	<text x="499.08" y="763.69" style="font-family:'Helvetica';font-size:99.99px;fill:#000000" text-anchor="end">0.75</text>
	<line x1="559.10" y1="483.26" x2="519.13" y2="483.26" style="stroke:#000000;stroke-width:5.76"/>
	<text x="499.08" y="518.29" style="font-family:'Helvetica';font-size:99.99px;fill:#000000" text-anchor="end">1.00</text>
	<text x="190.71" y="1464.63" style="font-family:'Helvetica';font-size:99.99px;fill:#000000" transform="rotate(-90 190.71,1464.63)" text-anchor="middle">Difference in Probabilities</text>
	<line x1="559.10" y1="2509.23" x2="3859.02" y2="2509.23" style="stroke:#000000;stroke-width:5.76"/>
	<line x1="622.46" y1="2509.23" x2="622.46" y2="2549.21" style="stroke:#000000;stroke-width:5.76"/>
	<text x="622.46" y="2625.15" style="font-family:'Helvetica';font-size:79.94px;fill:#000000" text-anchor="middle">0</text>
	<line x1="812.91" y1="2509.23" x2="812.91" y2="2549.21" style="stroke:#000000;stroke-width:5.76"/>
	<text x="812.91" y="2625.15" style="font-family:'Helvetica';font-size:79.94px;fill:#000000" text-anchor="middle">.3</text>
	<line x1="1003.24" y1="2509.23" x2="1003.24" y2="2549.21" style="stroke:#000000;stroke-width:5.76"/>
	<text x="1003.24" y="2625.15" style="font-family:'Helvetica';font-size:79.94px;fill:#000000" text-anchor="middle">.6</text>
	<line x1="1193.69" y1="2509.23" x2="1193.69" y2="2549.21" style="stroke:#000000;stroke-width:5.76"/>
	<text x="1193.69" y="2625.15" style="font-family:'Helvetica';font-size:79.94px;fill:#000000" text-anchor="middle">.9</text>
	<line x1="1384.02" y1="2509.23" x2="1384.02" y2="2549.21" style="stroke:#000000;stroke-width:5.76"/>
	<text x="1384.02" y="2625.15" style="font-family:'Helvetica';font-size:79.94px;fill:#000000" text-anchor="middle">1.2</text>
	<line x1="1574.47" y1="2509.23" x2="1574.47" y2="2549.21" style="stroke:#000000;stroke-width:5.76"/>
	<text x="1574.47" y="2625.15" style="font-family:'Helvetica';font-size:79.94px;fill:#000000" text-anchor="middle">1.5</text>
	<line x1="1764.80" y1="2509.23" x2="1764.80" y2="2549.21" style="stroke:#000000;stroke-width:5.76"/>
	<text x="1764.80" y="2625.15" style="font-family:'Helvetica';font-size:79.94px;fill:#000000" text-anchor="middle">1.8</text>
	<line x1="1955.25" y1="2509.23" x2="1955.25" y2="2549.21" style="stroke:#000000;stroke-width:5.76"/>
	<text x="1955.25" y="2625.15" style="font-family:'Helvetica';font-size:79.94px;fill:#000000" text-anchor="middle">2.1</text>
	<line x1="2145.58" y1="2509.23" x2="2145.58" y2="2549.21" style="stroke:#000000;stroke-width:5.76"/>
	<text x="2145.58" y="2625.15" style="font-family:'Helvetica';font-size:79.94px;fill:#000000" text-anchor="middle">2.4</text>
	<line x1="2336.03" y1="2509.23" x2="2336.03" y2="2549.21" style="stroke:#000000;stroke-width:5.76"/>
	<text x="2336.03" y="2625.15" style="font-family:'Helvetica';font-size:79.94px;fill:#000000" text-anchor="middle">2.7</text>
	<line x1="2526.48" y1="2509.23" x2="2526.48" y2="2549.21" style="stroke:#000000;stroke-width:5.76"/>
	<text x="2526.48" y="2625.15" style="font-family:'Helvetica';font-size:79.94px;fill:#000000" text-anchor="middle">3</text>
	<line x1="2716.81" y1="2509.23" x2="2716.81" y2="2549.21" style="stroke:#000000;stroke-width:5.76"/>
	<text x="2716.81" y="2625.15" style="font-family:'Helvetica';font-size:79.94px;fill:#000000" text-anchor="middle">3.3</text>
	<line x1="2907.26" y1="2509.23" x2="2907.26" y2="2549.21" style="stroke:#000000;stroke-width:5.76"/>
	<text x="2907.26" y="2625.15" style="font-family:'Helvetica';font-size:79.94px;fill:#000000" text-anchor="middle">3.6</text>
	<line x1="3097.59" y1="2509.23" x2="3097.59" y2="2549.21" style="stroke:#000000;stroke-width:5.76"/>
	<text x="3097.59" y="2625.15" style="font-family:'Helvetica';font-size:79.94px;fill:#000000" text-anchor="middle">3.9</text>
	<line x1="3288.04" y1="2509.23" x2="3288.04" y2="2549.21" style="stroke:#000000;stroke-width:5.76"/>
	<text x="3288.04" y="2625.15" style="font-family:'Helvetica';font-size:79.94px;fill:#000000" text-anchor="middle">4.2</text>
	<line x1="3478.36" y1="2509.23" x2="3478.36" y2="2549.21" style="stroke:#000000;stroke-width:5.76"/>
	<text x="3478.36" y="2625.15" style="font-family:'Helvetica';font-size:79.94px;fill:#000000" text-anchor="middle">4.5</text>
	<line x1="3668.82" y1="2509.23" x2="3668.82" y2="2549.21" style="stroke:#000000;stroke-width:5.76"/>
	<text x="3668.82" y="2625.15" style="font-family:'Helvetica';font-size:79.94px;fill:#000000" text-anchor="middle">4.8</text>
	<line x1="3859.14" y1="2509.23" x2="3859.14" y2="2549.21" style="stroke:#000000;stroke-width:5.76"/>
	<text x="3859.14" y="2625.15" style="font-family:'Helvetica';font-size:79.94px;fill:#000000" text-anchor="middle">5.1</text>
	<text x="2209.06" y="2729.16" style="font-family:'Helvetica';font-size:99.99px;fill:#000000" text-anchor="middle">Time (years)</text>
	<rect x="593.63" y="454.42" width="993.34" height="326.46" style="fill:#FFFFFF"/>
	<rect x="596.51" y="457.30" width="987.58" height="320.70" style="fill:none;stroke:#000000;stroke-width:5.76"/>
	<rect x="636.82" y="497.74" width="374.47" height="99.99" style="fill:#999999;fill-opacity:0.65"/>
	<rect x="641.14" y="502.06" width="365.83" height="91.35" style="fill:none;stroke:#808080;stroke-opacity:0.65;stroke-width:8.64"/>
	<line x1="636.82" y1="687.70" x2="1011.28" y2="687.70" style="stroke:#000000;stroke-width:8.64"/>
	<text x="1071.30" y="582.76" style="font-family:'Helvetica';font-size:99.99px;fill:#000000">CI95%</text>
	<text x="1071.30" y="722.73" style="font-family:'Helvetica';font-size:99.99px;fill:#000000">Difference</text>
	<text x="2209.06" y="369.63" style="font-family:'Helvetica';font-size:110.01px;fill:#000000" text-anchor="middle">from Readmission to 2nd Readmission</text>
	<text x="2209.06" y="215.98" style="font-family:'Helvetica';font-size:139.96px;fill:#1E2D53" text-anchor="middle">Difference in Probabilities</text>
</svg>
