<?xml version="1.0" encoding="UTF-8" standalone="no"?>
<!-- This is a Stata 16.1 generated SVG file (http://www.stata.com) -->

<svg version="1.1" width="5.50in" height="4.00in" viewBox="0 0 3960 2880" xmlns="http://www.w3.org/2000/svg" xmlns:xlink="http://www.w3.org/1999/xlink">
	<desc>Stata Graph - diff_los_mod11_3y_rp_tc</desc>
	<rect x="0" y="0" width="3960" height="2880" style="fill:#EAF2F3;stroke:none"/>
	<rect x="0.00" y="0.00" width="3959.88" height="2880.00" style="fill:#FFFFFF"/>
	<rect x="2.88" y="2.88" width="3954.12" height="2874.24" style="fill:none;stroke:#FFFFFF;stroke-width:5.76"/>
	<rect x="390.80" y="419.90" width="3468.22" height="2089.34" style="fill:#FFFFFF"/>
	<rect x="393.68" y="422.78" width="3462.46" height="2083.58" style="fill:none;stroke:#FFFFFF;stroke-width:5.76"/>
	<line x1="390.80" y1="2445.87" x2="3859.02" y2="2445.87" style="stroke:#EAF2F3;stroke-width:8.64"/>
	<line x1="390.80" y1="1791.71" x2="3859.02" y2="1791.71" style="stroke:#EAF2F3;stroke-width:8.64"/>
	<line x1="390.80" y1="1137.42" x2="3859.02" y2="1137.42" style="stroke:#EAF2F3;stroke-width:8.64"/>
	<line x1="390.80" y1="483.26" x2="3859.02" y2="483.26" style="stroke:#EAF2F3;stroke-width:8.64"/>
	<line x1="390.80" y1="483.26" x2="3859.02" y2="483.26" style="stroke:#1A476F;stroke-width:8.64"/>
	<defs>
		<path id="path_ooVtdaZq" d="M618.87 485.73 L618.87 485.73 L636.57 485.73 L636.57 486.35 L654.27 486.35 L654.27 487.22 L672.09 487.22 L672.09 488.09 L689.78 488.09 L689.78 488.95 L707.60 488.95 L707.60 490.07 L725.30 490.07 L725.30 491.30 L743.00 491.30 L743.00 492.54 L760.82 492.54 L760.82 494.03 L778.51 494.03 L778.51 495.63 L796.33 495.63 L796.33 497.37 L814.03 497.37 L814.03 499.35 L831.72 499.35 L831.72 501.45 L849.54 501.45 L849.54 503.80 L867.24 503.80 L867.24 506.15 L885.06 506.15 L885.06 508.75 L902.76 508.75 L902.76 511.60 L920.45 511.60 L920.45 514.44 L938.27 514.44 L938.27 517.41 L955.97 517.41 L955.97 520.63 L973.66 520.63 L973.66 523.97 L991.49 523.97 L991.49 527.56 L1009.18 527.56 L1009.18 531.40 L1027.00 531.40 L1027.00 535.24 L1044.70 535.24 L1044.70 539.32 L1062.39 539.32 L1062.39 543.40 L1080.21 543.40 L1080.21 547.86 L1097.91 547.86 L1097.91 552.31 L1115.73 552.31 L1115.73 557.14 L1133.43 557.14 L1133.43 561.97 L1151.12 561.97 L1151.12 567.04 L1168.94 567.04 L1168.94 572.24 L1186.64 572.24 L1186.64 577.56 L1204.46 577.56 L1204.46 583.00 L1222.15 583.00 L1222.15 588.57 L1239.85 588.57 L1239.85 594.27 L1257.67 594.27 L1257.67 600.08 L1275.37 600.08 L1275.37 606.02 L1293.19 606.02 L1293.19 612.21 L1310.88 612.21 L1310.88 618.40 L1328.58 618.40 L1328.58 624.83 L1346.40 624.83 L1346.40 631.52 L1364.10 631.52 L1364.10 638.20 L1381.92 638.20 L1381.92 645.01 L1399.61 645.01 L1399.61 651.94 L1417.31 651.94 L1417.31 658.99 L1435.13 658.99 L1435.13 666.17 L1452.83 666.17 L1452.83 673.47 L1470.64 673.47 L1470.64 680.89 L1488.34 680.89 L1488.34 688.32 L1506.04 688.32 L1506.04 695.99 L1523.86 695.99 L1523.86 703.66 L1541.55 703.66 L1541.55 711.46 L1559.37 711.46 L1559.37 719.38 L1577.07 719.38 L1577.07 727.30 L1594.77 727.30 L1594.77 735.35 L1612.59 735.35 L1612.59 743.51 L1630.28 743.51 L1630.28 751.68 L1648.10 751.68 L1648.10 759.97 L1665.80 759.97 L1665.80 768.39 L1683.49 768.39 L1683.49 776.80 L1701.32 776.80 L1701.32 785.34 L1719.01 785.34 L1719.01 793.88 L1736.83 793.88 L1736.83 802.67 L1754.53 802.67 L1754.53 811.45 L1772.22 811.45 L1772.22 820.24 L1790.04 820.24 L1790.04 829.15 L1807.74 829.15 L1807.74 838.18 L1825.56 838.18 L1825.56 847.22 L1843.26 847.22 L1843.26 856.38 L1860.95 856.38 L1860.95 865.53 L1878.77 865.53 L1878.77 874.82 L1896.47 874.82 L1896.47 884.22 L1914.29 884.22 L1914.29 893.63 L1931.98 893.63 L1931.98 903.16 L1949.68 903.16 L1949.68 912.81 L1967.50 912.81 L1967.50 922.46 L1985.20 922.46 L1985.20 932.11 L2003.02 932.11 L2003.02 941.89 L2020.71 941.89 L2020.71 951.67 L2038.41 951.67 L2038.41 961.57 L2056.23 961.57 L2056.23 971.47 L2073.93 971.47 L2073.93 981.49 L2091.75 981.49 L2091.75 991.64 L2109.44 991.64 L2109.44 1001.79 L2127.14 1001.79 L2127.14 1011.94 L2144.96 1011.94 L2144.96 1022.08 L2162.66 1022.08 L2162.66 1032.35 L2180.47 1032.35 L2180.47 1042.75 L2198.17 1042.75 L2198.17 1053.15 L2215.87 1053.15 L2215.87 1063.54 L2233.69 1063.54 L2233.69 1074.06 L2251.38 1074.06 L2251.38 1084.58 L2269.20 1084.58 L2269.20 1095.22 L2286.90 1095.22 L2286.90 1105.99 L2304.60 1105.99 L2304.60 1116.63 L2322.42 1116.63 L2322.42 1127.40 L2340.11 1127.40 L2340.11 1138.29 L2357.93 1138.29 L2357.93 1149.05 L2375.63 1149.05 L2375.63 1159.94 L2393.32 1159.94 L2393.32 1170.96 L2411.14 1170.96 L2411.14 1181.97 L2428.84 1181.97 L2428.84 1192.99 L2446.66 1192.99 L2446.66 1204.13 L2464.36 1204.13 L2464.36 1215.26 L2482.05 1215.26 L2482.05 1226.40 L2499.87 1226.40 L2499.87 1237.66 L2517.57 1237.66 L2517.57 1248.92 L2535.39 1248.92 L2535.39 1260.31 L2553.09 1260.31 L2553.09 1271.69 L2570.78 1271.69 L2570.78 1283.08 L2588.60 1283.08 L2588.60 1294.59 L2606.30 1294.59 L2606.30 1306.10 L2624.12 1306.10 L2624.12 1317.73 L2641.82 1317.73 L2641.82 1329.36 L2659.51 1329.36 L2659.51 1341.00 L2677.33 1341.00 L2677.33 1352.63 L2695.03 1352.63 L2695.03 1364.39 L2712.85 1364.39 L2712.85 1376.27 L2730.54 1376.27 L2730.54 1388.02 L2748.24 1388.02 L2748.24 1399.90 L2766.06 1399.90 L2766.06 1411.78 L2783.76 1411.78 L2783.76 1423.66 L2801.58 1423.66 L2801.58 1435.67 L2819.27 1435.67 L2819.27 1447.67 L2836.97 1447.67 L2836.97 1459.80 L2854.79 1459.80 L2854.79 1471.80 L2872.49 1471.80 L2872.49 1483.93 L2890.18 1483.93 L2890.18 1496.18 L2908.00 1496.18 L2908.00 1508.31 L2925.70 1508.31 L2925.70 1520.56 L2943.52 1520.56 L2943.52 1532.82 L2961.21 1532.82 L2961.21 1545.19 L2978.91 1545.19 L2978.91 1557.44 L2996.73 1557.44 L2996.73 1569.82 L3014.43 1569.82 L3014.43 1582.19 L3032.25 1582.19 L3032.25 1594.69 L3049.94 1594.69 L3049.94 1607.07 L3067.64 1607.07 L3067.64 1619.57 L3085.46 1619.57 L3085.46 1632.07 L3103.16 1632.07 L3103.16 1644.57 L3120.97 1644.57 L3120.97 1657.06 L3138.67 1657.06 L3138.67 1669.69 L3156.37 1669.69 L3156.37 1682.19 L3174.19 1682.19 L3174.19 1694.93 L3191.88 1694.93 L3191.88 1707.56 L3209.70 1707.56 L3209.70 1720.18 L3227.40 1720.18 L3227.40 1732.93 L3245.10 1732.93 L3245.10 1745.80 L3262.92 1745.80 L3262.92 1758.54 L3280.61 1758.54 L3280.61 1771.41 L3298.43 1771.41 L3298.43 1784.41 L3316.13 1784.41 L3316.13 1797.28 L3333.82 1797.28 L3333.82 1810.27 L3351.64 1810.27 L3351.64 1823.27 L3369.34 1823.27 L3369.34 1836.26 L3387.16 1836.26 L3387.16 1849.38 L3404.86 1849.38 L3404.86 1862.50 L3422.55 1862.50 L3422.55 1875.61 L3440.37 1875.61 L3440.37 1888.86 L3458.07 1888.86 L3458.07 1901.97 L3475.89 1901.97 L3475.89 1915.21 L3493.59 1915.21 L3493.59 1928.46 L3511.28 1928.46 L3511.28 1941.82 L3529.10 1941.82 L3529.10 1955.06 L3546.80 1955.06 L3546.80 1968.43 L3564.62 1968.43 L3564.62 1981.79 L3582.32 1981.79 L3582.32 1995.16 L3600.01 1995.16 L3600.01 2008.53 L3617.83 2008.53 L3617.83 2022.01 L3635.53 2022.01 L3635.53 2035.50 L3653.35 2035.50 L3653.35 2049.12 L3671.04 2049.12 L3671.04 2062.61 L3688.74 2062.61 L3688.74 2076.22 L3706.56 2076.22 L3706.56 2089.71 L3724.26 2089.71 L3724.26 2103.44 L3742.08 2103.44 L3742.08 2117.06 L3759.77 2117.06 L3759.77 2130.67 L3777.47 2130.67 L3777.47 2144.41 L3795.29 2144.41 L3795.29 2158.14 L3795.29 1777.97 L3795.29 1767.21 L3777.47 1767.21 L3777.47 1756.56 L3759.77 1756.56 L3759.77 1745.80 L3742.08 1745.80 L3742.08 1735.15 L3724.26 1735.15 L3724.26 1724.51 L3706.56 1724.51 L3706.56 1713.99 L3688.74 1713.99 L3688.74 1703.35 L3671.04 1703.35 L3671.04 1692.83 L3653.35 1692.83 L3653.35 1682.31 L3635.53 1682.31 L3635.53 1671.67 L3617.83 1671.67 L3617.83 1661.27 L3600.01 1661.27 L3600.01 1650.75 L3582.32 1650.75 L3582.32 1640.36 L3564.62 1640.36 L3564.62 1629.96 L3546.80 1629.96 L3546.80 1619.57 L3529.10 1619.57 L3529.10 1609.17 L3511.28 1609.17 L3511.28 1598.78 L3493.59 1598.78 L3493.59 1588.50 L3475.89 1588.50 L3475.89 1578.11 L3458.07 1578.11 L3458.07 1567.84 L3440.37 1567.84 L3440.37 1557.57 L3422.55 1557.57 L3422.55 1547.29 L3404.86 1547.29 L3404.86 1537.15 L3387.16 1537.15 L3387.16 1527.00 L3369.34 1527.00 L3369.34 1516.85 L3351.64 1516.85 L3351.64 1506.70 L3333.82 1506.70 L3333.82 1496.56 L3316.13 1496.56 L3316.13 1486.53 L3298.43 1486.53 L3298.43 1476.51 L3280.61 1476.51 L3280.61 1466.48 L3262.92 1466.48 L3262.92 1456.46 L3245.10 1456.46 L3245.10 1446.56 L3227.40 1446.56 L3227.40 1436.66 L3209.70 1436.66 L3209.70 1426.76 L3191.88 1426.76 L3191.88 1416.98 L3174.19 1416.98 L3174.19 1407.08 L3156.37 1407.08 L3156.37 1397.30 L3138.67 1397.30 L3138.67 1387.53 L3120.97 1387.53 L3120.97 1377.88 L3103.16 1377.88 L3103.16 1368.10 L3085.46 1368.10 L3085.46 1358.45 L3067.64 1358.45 L3067.64 1348.79 L3049.94 1348.79 L3049.94 1339.14 L3032.25 1339.14 L3032.25 1329.49 L3014.43 1329.49 L3014.43 1319.83 L2996.73 1319.83 L2996.73 1310.18 L2978.91 1310.18 L2978.91 1300.65 L2961.21 1300.65 L2961.21 1291.00 L2943.52 1291.00 L2943.52 1281.47 L2925.70 1281.47 L2925.70 1271.94 L2908.00 1271.94 L2908.00 1262.54 L2890.18 1262.54 L2890.18 1253.01 L2872.49 1253.01 L2872.49 1243.60 L2854.79 1243.60 L2854.79 1234.20 L2836.97 1234.20 L2836.97 1224.79 L2819.27 1224.79 L2819.27 1215.51 L2801.58 1215.51 L2801.58 1206.23 L2783.76 1206.23 L2783.76 1196.95 L2766.06 1196.95 L2766.06 1187.67 L2748.24 1187.67 L2748.24 1178.51 L2730.54 1178.51 L2730.54 1169.23 L2712.85 1169.23 L2712.85 1160.19 L2695.03 1160.19 L2695.03 1151.03 L2677.33 1151.03 L2677.33 1141.88 L2659.51 1141.88 L2659.51 1132.84 L2641.82 1132.84 L2641.82 1123.81 L2624.12 1123.81 L2624.12 1114.77 L2606.30 1114.77 L2606.30 1105.86 L2588.60 1105.86 L2588.60 1096.83 L2570.78 1096.83 L2570.78 1088.04 L2553.09 1088.04 L2553.09 1079.13 L2535.39 1079.13 L2535.39 1070.35 L2517.57 1070.35 L2517.57 1061.68 L2499.87 1061.68 L2499.87 1052.90 L2482.05 1052.90 L2482.05 1044.24 L2464.36 1044.24 L2464.36 1035.57 L2446.66 1035.57 L2446.66 1026.91 L2428.84 1026.91 L2428.84 1018.37 L2411.14 1018.37 L2411.14 1009.83 L2393.32 1009.83 L2393.32 1001.42 L2375.63 1001.42 L2375.63 992.88 L2357.93 992.88 L2357.93 984.46 L2340.11 984.46 L2340.11 976.17 L2322.42 976.17 L2322.42 967.76 L2304.60 967.76 L2304.60 959.46 L2286.90 959.46 L2286.90 951.17 L2269.20 951.17 L2269.20 942.88 L2251.38 942.88 L2251.38 934.71 L2233.69 934.71 L2233.69 926.55 L2215.87 926.55 L2215.87 918.50 L2198.17 918.50 L2198.17 910.46 L2180.47 910.46 L2180.47 902.41 L2162.66 902.41 L2162.66 894.49 L2144.96 894.49 L2144.96 886.57 L2127.14 886.57 L2127.14 878.65 L2109.44 878.65 L2109.44 870.73 L2091.75 870.73 L2091.75 862.94 L2073.93 862.94 L2073.93 855.14 L2056.23 855.14 L2056.23 847.47 L2038.41 847.47 L2038.41 839.67 L2020.71 839.67 L2020.71 832.12 L2003.02 832.12 L2003.02 824.57 L1985.20 824.57 L1985.20 817.02 L1967.50 817.02 L1967.50 809.60 L1949.68 809.60 L1949.68 802.05 L1931.98 802.05 L1931.98 794.75 L1914.29 794.75 L1914.29 787.45 L1896.47 787.45 L1896.47 780.14 L1878.77 780.14 L1878.77 772.97 L1860.95 772.97 L1860.95 765.91 L1843.26 765.91 L1843.26 758.86 L1825.56 758.86 L1825.56 751.80 L1807.74 751.80 L1807.74 744.87 L1790.04 744.87 L1790.04 737.94 L1772.22 737.94 L1772.22 731.14 L1754.53 731.14 L1754.53 724.33 L1736.83 724.33 L1736.83 717.65 L1719.01 717.65 L1719.01 710.97 L1701.32 710.97 L1701.32 704.41 L1683.49 704.41 L1683.49 697.85 L1665.80 697.85 L1665.80 691.41 L1648.10 691.41 L1648.10 685.10 L1630.28 685.10 L1630.28 678.67 L1612.59 678.67 L1612.59 672.48 L1594.77 672.48 L1594.77 666.29 L1577.07 666.29 L1577.07 660.10 L1559.37 660.10 L1559.37 653.92 L1541.55 653.92 L1541.55 647.98 L1523.86 647.98 L1523.86 642.04 L1506.04 642.04 L1506.04 636.09 L1488.34 636.09 L1488.34 630.28 L1470.64 630.28 L1470.64 624.59 L1452.83 624.59 L1452.83 618.89 L1435.13 618.89 L1435.13 613.45 L1417.31 613.45 L1417.31 608.00 L1399.61 608.00 L1399.61 602.68 L1381.92 602.68 L1381.92 597.36 L1364.10 597.36 L1364.10 592.16 L1346.40 592.16 L1346.40 587.21 L1328.58 587.21 L1328.58 582.14 L1310.88 582.14 L1310.88 577.44 L1293.19 577.44 L1293.19 572.73 L1275.37 572.73 L1275.37 568.15 L1257.67 568.15 L1257.67 563.70 L1239.85 563.70 L1239.85 559.37 L1222.15 559.37 L1222.15 555.16 L1204.46 555.16 L1204.46 551.08 L1186.64 551.08 L1186.64 546.99 L1168.94 546.99 L1168.94 543.16 L1151.12 543.16 L1151.12 539.32 L1133.43 539.32 L1133.43 535.61 L1115.73 535.61 L1115.73 532.02 L1097.91 532.02 L1097.91 528.68 L1080.21 528.68 L1080.21 525.34 L1062.39 525.34 L1062.39 522.24 L1044.70 522.24 L1044.70 519.27 L1027.00 519.27 L1027.00 516.42 L1009.18 516.42 L1009.18 513.58 L991.49 513.58 L991.49 510.98 L973.66 510.98 L973.66 508.50 L955.97 508.50 L955.97 506.15 L938.27 506.15 L938.27 503.93 L920.45 503.93 L920.45 501.95 L902.76 501.95 L902.76 499.97 L885.06 499.97 L885.06 498.11 L867.24 498.11 L867.24 496.38 L849.54 496.38 L849.54 494.77 L831.72 494.77 L831.72 493.28 L814.03 493.28 L814.03 491.92 L796.33 491.92 L796.33 490.68 L778.51 490.68 L778.51 489.69 L760.82 489.69 L760.82 488.70 L743.00 488.70 L743.00 487.84 L725.30 487.84 L725.30 487.10 L707.60 487.10 L707.60 486.48 L689.78 486.48 L689.78 485.86 L672.09 485.86 L672.09 485.36 L654.27 485.36 L654.27 484.87 L636.57 484.87 L636.57 484.50 L618.87 484.50 L618.87 485.73 Z" stroke-linejoin="round"/>
	</defs>
	<defs>
		<clipPath id="clipPath_qJuRjJyG">
			<use xlink:href="#path_ooVtdaZq"/>
		</clipPath>
	</defs>
	<use xlink:href="#path_ooVtdaZq" style="stroke:none;fill:#999999;fill-opacity:0.65"/>
	<use xlink:href="#path_ooVtdaZq" style="fill:none;stroke:#808080;stroke-opacity:0.65;stroke-width:17.28" clip-path="url(#clipPath_qJuRjJyG)"/>
	<path d=" M618.75 485.24 L636.45 485.24 L636.45 485.73 L654.27 485.73 L654.27 486.35 L671.96 486.35 L671.96 486.97 L689.78 486.97 L689.78 487.71 L707.48 487.71 L707.48 488.70 L725.17 488.70 L725.17 489.57 L743.00 489.57 L743.00 490.68 L760.69 490.68 L760.69 491.92 L778.51 491.92 L778.51 493.28 L796.21 493.28 L796.21 494.64 L813.90 494.64 L813.90 496.38 L831.72 496.38 L831.72 498.11 L849.42 498.11 L849.42 500.09 L867.24 500.09 L867.24 502.19 L884.94 502.19 L884.94 504.42 L902.63 504.42 L902.63 506.77 L920.45 506.77 L920.45 509.25 L938.15 509.25 L938.15 511.85 L955.97 511.85 L955.97 514.69 L973.66 514.69 L973.66 517.54 L991.36 517.54 L991.36 520.63 L1009.18 520.63 L1009.18 523.97 L1026.88 523.97 L1026.88 527.32 L1044.70 527.32 L1044.70 530.90 L1062.39 530.90 L1062.39 534.49 L1080.09 534.49 L1080.09 538.33 L1097.91 538.33 L1097.91 542.29 L1115.61 542.29 L1115.61 546.50 L1133.43 546.50 L1133.43 550.70 L1151.12 550.70 L1151.12 555.16 L1168.82 555.16 L1168.82 559.74 L1186.64 559.74 L1186.64 564.32 L1204.34 564.32 L1204.34 569.14 L1222.15 569.14 L1222.15 573.97 L1239.85 573.97 L1239.85 579.04 L1257.55 579.04 L1257.55 584.12 L1275.37 584.12 L1275.37 589.44 L1293.06 589.44 L1293.06 594.88 L1310.88 594.88 L1310.88 600.33 L1328.58 600.33 L1328.58 606.02 L1346.28 606.02 L1346.28 611.96 L1364.10 611.96 L1364.10 617.78 L1381.79 617.78 L1381.79 623.84 L1399.61 623.84 L1399.61 630.03 L1417.31 630.03 L1417.31 636.22 L1435.01 636.22 L1435.01 642.65 L1452.83 642.65 L1452.83 649.09 L1470.52 649.09 L1470.52 655.65 L1488.34 655.65 L1488.34 662.33 L1506.04 662.33 L1506.04 669.01 L1523.73 669.01 L1523.73 675.82 L1541.55 675.82 L1541.55 682.75 L1559.25 682.75 L1559.25 689.80 L1577.07 689.80 L1577.07 696.86 L1594.77 696.86 L1594.77 704.04 L1612.46 704.04 L1612.46 711.21 L1630.28 711.21 L1630.28 718.39 L1647.98 718.39 L1647.98 725.82 L1665.80 725.82 L1665.80 733.12 L1683.49 733.12 L1683.49 740.67 L1701.19 740.67 L1701.19 748.22 L1719.01 748.22 L1719.01 755.89 L1736.71 755.89 L1736.71 763.56 L1754.53 763.56 L1754.53 771.36 L1772.22 771.36 L1772.22 779.15 L1789.92 779.15 L1789.92 787.07 L1807.74 787.07 L1807.74 794.99 L1825.44 794.99 L1825.44 803.04 L1843.26 803.04 L1843.26 811.21 L1860.95 811.21 L1860.95 819.37 L1878.65 819.37 L1878.65 827.54 L1896.47 827.54 L1896.47 835.83 L1914.16 835.83 L1914.16 844.25 L1931.86 844.25 L1931.86 852.66 L1949.68 852.66 L1949.68 861.20 L1967.38 861.20 L1967.38 869.74 L1985.20 869.74 L1985.20 878.40 L2002.89 878.40 L2002.89 887.07 L2020.59 887.07 L2020.59 895.73 L2038.41 895.73 L2038.41 904.52 L2056.11 904.52 L2056.11 913.43 L2073.93 913.43 L2073.93 922.34 L2091.62 922.34 L2091.62 931.25 L2109.32 931.25 L2109.32 940.28 L2127.14 940.28 L2127.14 949.32 L2144.84 949.32 L2144.84 958.35 L2162.66 958.35 L2162.66 967.51 L2180.35 967.51 L2180.35 976.67 L2198.05 976.67 L2198.05 985.82 L2215.87 985.82 L2215.87 995.10 L2233.56 995.10 L2233.56 1004.51 L2251.38 1004.51 L2251.38 1013.79 L2269.08 1013.79 L2269.08 1023.32 L2286.78 1023.32 L2286.78 1032.73 L2304.60 1032.73 L2304.60 1042.26 L2322.29 1042.26 L2322.29 1051.78 L2340.11 1051.78 L2340.11 1061.44 L2357.81 1061.44 L2357.81 1071.09 L2375.51 1071.09 L2375.51 1080.74 L2393.32 1080.74 L2393.32 1090.52 L2411.02 1090.52 L2411.02 1100.17 L2428.84 1100.17 L2428.84 1110.07 L2446.54 1110.07 L2446.54 1119.85 L2464.23 1119.85 L2464.23 1129.75 L2482.05 1129.75 L2482.05 1139.65 L2499.75 1139.65 L2499.75 1149.67 L2517.57 1149.67 L2517.57 1159.70 L2535.27 1159.70 L2535.27 1169.72 L2552.96 1169.72 L2552.96 1179.87 L2570.78 1179.87 L2570.78 1190.02 L2588.48 1190.02 L2588.48 1200.29 L2606.30 1200.29 L2606.30 1210.56 L2623.99 1210.56 L2623.99 1220.83 L2641.69 1220.83 L2641.69 1231.23 L2659.51 1231.23 L2659.51 1241.50 L2677.21 1241.50 L2677.21 1251.89 L2695.03 1251.89 L2695.03 1262.29 L2712.72 1262.29 L2712.72 1272.81 L2730.42 1272.81 L2730.42 1283.33 L2748.24 1283.33 L2748.24 1293.85 L2765.94 1293.85 L2765.94 1304.37 L2783.76 1304.37 L2783.76 1315.01 L2801.45 1315.01 L2801.45 1325.65 L2819.15 1325.65 L2819.15 1336.29 L2836.97 1336.29 L2836.97 1347.06 L2854.66 1347.06 L2854.66 1357.83 L2872.49 1357.83 L2872.49 1368.59 L2890.18 1368.59 L2890.18 1379.36 L2907.88 1379.36 L2907.88 1390.25 L2925.70 1390.25 L2925.70 1401.14 L2943.39 1401.14 L2943.39 1412.03 L2961.21 1412.03 L2961.21 1422.92 L2978.91 1422.92 L2978.91 1433.94 L2996.61 1433.94 L2996.61 1444.95 L3014.43 1444.95 L3014.43 1455.96 L3032.12 1455.96 L3032.12 1466.98 L3049.94 1466.98 L3049.94 1477.99 L3067.64 1477.99 L3067.64 1489.01 L3085.34 1489.01 L3085.34 1500.14 L3103.16 1500.14 L3103.16 1511.28 L3120.85 1511.28 L3120.85 1522.42 L3138.67 1522.42 L3138.67 1533.56 L3156.37 1533.56 L3156.37 1544.70 L3174.06 1544.70 L3174.06 1555.96 L3191.88 1555.96 L3191.88 1567.22 L3209.58 1567.22 L3209.58 1578.48 L3227.40 1578.48 L3227.40 1589.87 L3245.10 1589.87 L3245.10 1601.25 L3262.79 1601.25 L3262.79 1612.64 L3280.61 1612.64 L3280.61 1624.02 L3298.31 1624.02 L3298.31 1635.53 L3316.13 1635.53 L3316.13 1647.04 L3333.82 1647.04 L3333.82 1658.55 L3351.52 1658.55 L3351.52 1670.06 L3369.34 1670.06 L3369.34 1681.69 L3387.04 1681.69 L3387.04 1693.32 L3404.86 1693.32 L3404.86 1704.96 L3422.55 1704.96 L3422.55 1716.71 L3440.25 1716.71 L3440.25 1728.35 L3458.07 1728.35 L3458.07 1740.10 L3475.77 1740.10 L3475.77 1751.86 L3493.59 1751.86 L3493.59 1763.74 L3511.28 1763.74 L3511.28 1775.50 L3528.98 1775.50 L3528.98 1787.38 L3546.80 1787.38 L3546.80 1799.26 L3564.49 1799.26 L3564.49 1811.14 L3582.32 1811.14 L3582.32 1823.02 L3600.01 1823.02 L3600.01 1835.02 L3617.71 1835.02 L3617.71 1846.90 L3635.53 1846.90 L3635.53 1858.91 L3653.22 1858.91 L3653.22 1871.03 L3671.04 1871.03 L3671.04 1883.04 L3688.74 1883.04 L3688.74 1895.17 L3706.44 1895.17 L3706.44 1907.17 L3724.26 1907.17 L3724.26 1919.30 L3741.95 1919.30 L3741.95 1931.55 L3759.77 1931.55 L3759.77 1943.68 L3777.47 1943.68 L3777.47 1955.93 L3795.16 1955.93 L3795.16 1968.06" stroke-linejoin="round" style="fill:none;stroke:#000000;stroke-width:8.64"/>
	<line x1="390.80" y1="2509.23" x2="390.80" y2="419.90" style="stroke:#000000;stroke-width:5.76"/>
	<line x1="390.80" y1="2445.87" x2="350.83" y2="2445.87" style="stroke:#000000;stroke-width:5.76"/>
	<text x="300.72" y="2445.87" style="font-family:'Helvetica';font-size:99.99px;fill:#000000" transform="rotate(-90 300.72,2445.87)" text-anchor="middle">-150</text>
	<line x1="390.80" y1="1791.71" x2="350.83" y2="1791.71" style="stroke:#000000;stroke-width:5.76"/>
	<text x="300.72" y="1791.71" style="font-family:'Helvetica';font-size:99.99px;fill:#000000" transform="rotate(-90 300.72,1791.71)" text-anchor="middle">-100</text>
	<line x1="390.80" y1="1137.42" x2="350.83" y2="1137.42" style="stroke:#000000;stroke-width:5.76"/>
	<text x="300.72" y="1137.42" style="font-family:'Helvetica';font-size:99.99px;fill:#000000" transform="rotate(-90 300.72,1137.42)" text-anchor="middle">-50</text>
	<line x1="390.80" y1="483.26" x2="350.83" y2="483.26" style="stroke:#000000;stroke-width:5.76"/>
	<text x="300.72" y="483.26" style="font-family:'Helvetica';font-size:99.99px;fill:#000000" transform="rotate(-90 300.72,483.26)" text-anchor="middle">0</text>
	<text x="190.71" y="1464.63" style="font-family:'Helvetica';font-size:99.99px;fill:#000000" transform="rotate(-90 190.71,1464.63)" text-anchor="middle">Difference in Lengths</text>
	<line x1="390.80" y1="2509.23" x2="3859.02" y2="2509.23" style="stroke:#000000;stroke-width:5.76"/>
	<line x1="454.16" y1="2509.23" x2="454.16" y2="2549.21" style="stroke:#000000;stroke-width:5.76"/>
	<text x="454.16" y="2625.15" style="font-family:'Helvetica';font-size:79.94px;fill:#000000" text-anchor="middle">0</text>
	<line x1="654.64" y1="2509.23" x2="654.64" y2="2549.21" style="stroke:#000000;stroke-width:5.76"/>
	<text x="654.64" y="2625.15" style="font-family:'Helvetica';font-size:79.94px;fill:#000000" text-anchor="middle">.3</text>
	<line x1="855.11" y1="2509.23" x2="855.11" y2="2549.21" style="stroke:#000000;stroke-width:5.76"/>
	<text x="855.11" y="2625.15" style="font-family:'Helvetica';font-size:79.94px;fill:#000000" text-anchor="middle">.6</text>
	<line x1="1055.59" y1="2509.23" x2="1055.59" y2="2549.21" style="stroke:#000000;stroke-width:5.76"/>
	<text x="1055.59" y="2625.15" style="font-family:'Helvetica';font-size:79.94px;fill:#000000" text-anchor="middle">.9</text>
	<line x1="1256.06" y1="2509.23" x2="1256.06" y2="2549.21" style="stroke:#000000;stroke-width:5.76"/>
	<text x="1256.06" y="2625.15" style="font-family:'Helvetica';font-size:79.94px;fill:#000000" text-anchor="middle">1.2</text>
	<line x1="1456.66" y1="2509.23" x2="1456.66" y2="2549.21" style="stroke:#000000;stroke-width:5.76"/>
	<text x="1456.66" y="2625.15" style="font-family:'Helvetica';font-size:79.94px;fill:#000000" text-anchor="middle">1.5</text>
	<line x1="1657.14" y1="2509.23" x2="1657.14" y2="2549.21" style="stroke:#000000;stroke-width:5.76"/>
	<text x="1657.14" y="2625.15" style="font-family:'Helvetica';font-size:79.94px;fill:#000000" text-anchor="middle">1.8</text>
	<line x1="1857.61" y1="2509.23" x2="1857.61" y2="2549.21" style="stroke:#000000;stroke-width:5.76"/>
	<text x="1857.61" y="2625.15" style="font-family:'Helvetica';font-size:79.94px;fill:#000000" text-anchor="middle">2.1</text>
	<line x1="2058.09" y1="2509.23" x2="2058.09" y2="2549.21" style="stroke:#000000;stroke-width:5.76"/>
	<text x="2058.09" y="2625.15" style="font-family:'Helvetica';font-size:79.94px;fill:#000000" text-anchor="middle">2.4</text>
	<line x1="2258.56" y1="2509.23" x2="2258.56" y2="2549.21" style="stroke:#000000;stroke-width:5.76"/>
	<text x="2258.56" y="2625.15" style="font-family:'Helvetica';font-size:79.94px;fill:#000000" text-anchor="middle">2.7</text>
	<line x1="2459.04" y1="2509.23" x2="2459.04" y2="2549.21" style="stroke:#000000;stroke-width:5.76"/>
	<text x="2459.04" y="2625.15" style="font-family:'Helvetica';font-size:79.94px;fill:#000000" text-anchor="middle">3</text>
	<line x1="2659.64" y1="2509.23" x2="2659.64" y2="2549.21" style="stroke:#000000;stroke-width:5.76"/>
	<text x="2659.64" y="2625.15" style="font-family:'Helvetica';font-size:79.94px;fill:#000000" text-anchor="middle">3.3</text>
	<line x1="2860.11" y1="2509.23" x2="2860.11" y2="2549.21" style="stroke:#000000;stroke-width:5.76"/>
	<text x="2860.11" y="2625.15" style="font-family:'Helvetica';font-size:79.94px;fill:#000000" text-anchor="middle">3.6</text>
	<line x1="3060.59" y1="2509.23" x2="3060.59" y2="2549.21" style="stroke:#000000;stroke-width:5.76"/>
	<text x="3060.59" y="2625.15" style="font-family:'Helvetica';font-size:79.94px;fill:#000000" text-anchor="middle">3.9</text>
	<line x1="3261.06" y1="2509.23" x2="3261.06" y2="2549.21" style="stroke:#000000;stroke-width:5.76"/>
	<text x="3261.06" y="2625.15" style="font-family:'Helvetica';font-size:79.94px;fill:#000000" text-anchor="middle">4.2</text>
	<line x1="3461.53" y1="2509.23" x2="3461.53" y2="2549.21" style="stroke:#000000;stroke-width:5.76"/>
	<text x="3461.53" y="2625.15" style="font-family:'Helvetica';font-size:79.94px;fill:#000000" text-anchor="middle">4.5</text>
	<line x1="3662.01" y1="2509.23" x2="3662.01" y2="2549.21" style="stroke:#000000;stroke-width:5.76"/>
	<text x="3662.01" y="2625.15" style="font-family:'Helvetica';font-size:79.94px;fill:#000000" text-anchor="middle">4.8</text>
	<line x1="3862.61" y1="2509.23" x2="3862.61" y2="2549.21" style="stroke:#000000;stroke-width:5.76"/>
	<text x="3862.61" y="2625.15" style="font-family:'Helvetica';font-size:79.94px;fill:#000000" text-anchor="middle">5.1</text>
	<text x="2124.91" y="2729.16" style="font-family:'Helvetica';font-size:99.99px;fill:#000000" text-anchor="middle">Time (years)</text>
	<rect x="425.33" y="2148.24" width="993.22" height="326.46" style="fill:#FFFFFF"/>
	<rect x="428.21" y="2151.12" width="987.46" height="320.70" style="fill:none;stroke:#000000;stroke-width:5.76"/>
	<rect x="468.52" y="2191.43" width="374.47" height="99.99" style="fill:#999999;fill-opacity:0.65"/>
	<rect x="472.84" y="2195.75" width="365.83" height="91.35" style="fill:none;stroke:#808080;stroke-opacity:0.65;stroke-width:8.64"/>
	<line x1="468.52" y1="2381.52" x2="842.99" y2="2381.52" style="stroke:#000000;stroke-width:8.64"/>
	<text x="902.88" y="2276.46" style="font-family:'Helvetica';font-size:99.99px;fill:#000000">CI95%</text>
	<text x="902.88" y="2416.55" style="font-family:'Helvetica';font-size:99.99px;fill:#000000">Difference</text>
	<text x="2124.91" y="369.63" style="font-family:'Helvetica';font-size:110.01px;fill:#000000" text-anchor="middle">from Admission</text>
	<text x="2124.91" y="215.98" style="font-family:'Helvetica';font-size:139.96px;fill:#1E2D53" text-anchor="middle">Difference in Lengths of Stay (2nd patient)</text>
</svg>
