<?xml version="1.0" encoding="UTF-8" standalone="no"?>
<!-- This is a Stata 16.1 generated SVG file (http://www.stata.com) -->

<svg version="1.1" width="5.50in" height="4.00in" viewBox="0 0 3960 2880" xmlns="http://www.w3.org/2000/svg" xmlns:xlink="http://www.w3.org/1999/xlink">
	<desc>Stata Graph - diff_mod45_3y_rp_tc</desc>
	<rect x="0" y="0" width="3960" height="2880" style="fill:#EAF2F3;stroke:none"/>
	<rect x="0.00" y="0.00" width="3959.88" height="2880.00" style="fill:#FFFFFF"/>
	<rect x="2.88" y="2.88" width="3954.12" height="2874.24" style="fill:none;stroke:#FFFFFF;stroke-width:5.76"/>
	<rect x="559.10" y="419.90" width="3299.92" height="2089.34" style="fill:#FFFFFF"/>
	<rect x="561.98" y="422.78" width="3294.16" height="2083.58" style="fill:none;stroke:#FFFFFF;stroke-width:5.76"/>
	<line x1="559.10" y1="2249.60" x2="3859.02" y2="2249.60" style="stroke:#EAF2F3;stroke-width:8.64"/>
	<line x1="559.10" y1="2053.32" x2="3859.02" y2="2053.32" style="stroke:#EAF2F3;stroke-width:8.64"/>
	<line x1="559.10" y1="1857.05" x2="3859.02" y2="1857.05" style="stroke:#EAF2F3;stroke-width:8.64"/>
	<line x1="559.10" y1="1660.78" x2="3859.02" y2="1660.78" style="stroke:#EAF2F3;stroke-width:8.64"/>
	<line x1="559.10" y1="1464.63" x2="3859.02" y2="1464.63" style="stroke:#EAF2F3;stroke-width:8.64"/>
	<line x1="559.10" y1="1268.35" x2="3859.02" y2="1268.35" style="stroke:#EAF2F3;stroke-width:8.64"/>
	<line x1="559.10" y1="1072.08" x2="3859.02" y2="1072.08" style="stroke:#EAF2F3;stroke-width:8.64"/>
	<line x1="559.10" y1="875.81" x2="3859.02" y2="875.81" style="stroke:#EAF2F3;stroke-width:8.64"/>
	<line x1="559.10" y1="679.53" x2="3859.02" y2="679.53" style="stroke:#EAF2F3;stroke-width:8.64"/>
	<line x1="559.10" y1="1464.63" x2="3859.02" y2="1464.63" style="stroke:#1A476F;stroke-width:8.64"/>
	<defs>
		<path id="path_ErWttaac" d="M778.76 1492.84 L778.76 1492.84 L795.59 1492.84 L795.59 1496.68 L812.54 1496.68 L812.54 1498.29 L829.37 1498.29 L829.37 1501.01 L846.20 1501.01 L846.20 1505.59 L863.03 1505.59 L863.03 1509.43 L879.86 1509.43 L879.86 1514.50 L896.82 1514.50 L896.82 1517.47 L913.65 1517.47 L913.65 1520.44 L930.48 1520.44 L930.48 1527.37 L947.31 1527.37 L947.31 1531.08 L964.14 1531.08 L964.14 1533.31 L981.09 1533.31 L981.09 1537.02 L997.92 1537.02 L997.92 1541.23 L1014.75 1541.23 L1014.75 1543.71 L1031.58 1543.71 L1031.58 1548.16 L1048.41 1548.16 L1048.41 1552.74 L1065.36 1552.74 L1065.36 1553.85 L1082.19 1553.85 L1082.19 1558.68 L1099.02 1558.68 L1099.02 1563.88 L1115.85 1563.88 L1115.85 1565.98 L1132.68 1565.98 L1132.68 1570.81 L1149.64 1570.81 L1149.64 1576.13 L1166.47 1576.13 L1166.47 1581.70 L1183.30 1581.70 L1183.30 1584.79 L1200.13 1584.79 L1200.13 1589.87 L1216.96 1589.87 L1216.96 1593.70 L1233.91 1593.70 L1233.91 1599.27 L1250.74 1599.27 L1250.74 1603.36 L1267.57 1603.36 L1267.57 1607.07 L1284.40 1607.07 L1284.40 1612.02 L1301.23 1612.02 L1301.23 1617.83 L1318.18 1617.83 L1318.18 1622.04 L1335.02 1622.04 L1335.02 1626.00 L1351.85 1626.00 L1351.85 1630.83 L1368.67 1630.83 L1368.67 1634.29 L1385.51 1634.29 L1385.51 1637.63 L1402.34 1637.63 L1402.34 1642.71 L1419.29 1642.71 L1419.29 1646.42 L1436.12 1646.42 L1436.12 1648.28 L1452.95 1648.28 L1452.95 1653.85 L1469.78 1653.85 L1469.78 1658.43 L1486.61 1658.43 L1486.61 1662.01 L1503.56 1662.01 L1503.56 1665.23 L1520.39 1665.23 L1520.39 1668.70 L1537.22 1668.70 L1537.22 1670.18 L1554.05 1670.18 L1554.05 1673.40 L1570.88 1673.40 L1570.88 1673.77 L1587.84 1673.77 L1587.84 1676.37 L1604.67 1676.37 L1604.67 1677.85 L1621.50 1677.85 L1621.50 1678.35 L1638.33 1678.35 L1638.33 1680.21 L1655.16 1680.21 L1655.16 1683.05 L1672.11 1683.05 L1672.11 1685.28 L1688.94 1685.28 L1688.94 1687.76 L1705.77 1687.76 L1705.77 1691.10 L1722.60 1691.10 L1722.60 1694.19 L1739.43 1694.19 L1739.43 1697.66 L1756.38 1697.66 L1756.38 1701.24 L1773.21 1701.24 L1773.21 1705.20 L1790.04 1705.20 L1790.04 1707.06 L1806.87 1707.06 L1806.87 1709.16 L1823.70 1709.16 L1823.70 1710.90 L1840.66 1710.90 L1840.66 1713.50 L1857.49 1713.50 L1857.49 1715.23 L1874.32 1715.23 L1874.32 1716.47 L1891.15 1716.47 L1891.15 1718.20 L1907.98 1718.20 L1907.98 1719.68 L1924.93 1719.68 L1924.93 1720.67 L1941.76 1720.67 L1941.76 1721.79 L1958.59 1721.79 L1958.59 1722.78 L1975.42 1722.78 L1975.42 1723.52 L1992.25 1723.52 L1992.25 1723.77 L2009.20 1723.77 L2009.20 1725.13 L2026.04 1725.13 L2026.04 1726.61 L2042.87 1726.61 L2042.87 1728.72 L2059.70 1728.72 L2059.70 1729.83 L2076.53 1729.83 L2076.53 1730.82 L2093.48 1730.82 L2093.48 1730.95 L2110.31 1730.95 L2110.31 1732.68 L2127.14 1732.68 L2127.14 1733.30 L2143.97 1733.30 L2143.97 1733.92 L2160.80 1733.92 L2160.80 1735.65 L2177.75 1735.65 L2177.75 1736.76 L2194.58 1736.76 L2194.58 1737.26 L2211.41 1737.26 L2211.41 1738.00 L2228.24 1738.00 L2228.24 1739.11 L2245.07 1739.11 L2245.07 1738.62 L2262.03 1738.62 L2262.03 1738.99 L2278.86 1738.99 L2278.86 1740.85 L2295.69 1740.85 L2295.69 1741.71 L2312.52 1741.71 L2312.52 1742.95 L2329.35 1742.95 L2329.35 1745.30 L2346.30 1745.30 L2346.30 1747.90 L2363.13 1747.90 L2363.13 1748.02 L2379.96 1748.02 L2379.96 1749.14 L2396.79 1749.14 L2396.79 1750.00 L2413.62 1750.00 L2413.62 1750.00 L2430.57 1750.00 L2430.57 1749.38 L2447.40 1749.38 L2447.40 1750.99 L2464.23 1750.99 L2464.23 1751.49 L2481.06 1751.49 L2481.06 1751.74 L2497.89 1751.74 L2497.89 1752.35 L2514.85 1752.35 L2514.85 1753.59 L2531.68 1753.59 L2531.68 1755.20 L2548.51 1755.20 L2548.51 1755.32 L2565.34 1755.32 L2565.34 1756.19 L2582.17 1756.19 L2582.17 1756.69 L2599.00 1756.69 L2599.00 1757.92 L2615.95 1757.92 L2615.95 1757.92 L2632.78 1757.92 L2632.78 1758.42 L2649.61 1758.42 L2649.61 1759.53 L2666.44 1759.53 L2666.44 1759.66 L2683.27 1759.66 L2683.27 1759.78 L2700.22 1759.78 L2700.22 1760.15 L2717.05 1760.15 L2717.05 1761.14 L2733.89 1761.14 L2733.89 1760.15 L2750.72 1760.15 L2750.72 1760.77 L2767.55 1760.77 L2767.55 1761.27 L2784.50 1761.27 L2784.50 1762.63 L2801.33 1762.63 L2801.33 1762.87 L2818.16 1762.87 L2818.16 1765.23 L2834.99 1765.23 L2834.99 1766.09 L2851.82 1766.09 L2851.82 1766.96 L2868.77 1766.96 L2868.77 1767.82 L2885.60 1767.82 L2885.60 1767.58 L2902.43 1767.58 L2902.43 1769.31 L2919.26 1769.31 L2919.26 1769.31 L2936.09 1769.31 L2936.09 1770.18 L2953.05 1770.18 L2953.05 1770.55 L2969.88 1770.55 L2969.88 1771.04 L2986.71 1771.04 L2986.71 1771.66 L3003.54 1771.66 L3003.54 1772.40 L3020.37 1772.40 L3020.37 1773.27 L3037.32 1773.27 L3037.32 1773.89 L3054.15 1773.89 L3054.15 1773.64 L3070.98 1773.64 L3070.98 1774.38 L3087.81 1774.38 L3087.81 1774.75 L3104.64 1774.75 L3104.64 1775.37 L3121.59 1775.37 L3121.59 1775.13 L3138.42 1775.13 L3138.42 1774.75 L3155.25 1774.75 L3155.25 1774.01 L3172.08 1774.01 L3172.08 1775.13 L3188.91 1775.13 L3188.91 1774.63 L3205.87 1774.63 L3205.87 1775.00 L3222.70 1775.00 L3222.70 1775.25 L3239.53 1775.25 L3239.53 1774.63 L3256.36 1774.63 L3256.36 1773.64 L3273.19 1773.64 L3273.19 1774.26 L3290.14 1774.26 L3290.14 1774.51 L3306.97 1774.51 L3306.97 1774.63 L3323.80 1774.63 L3323.80 1775.00 L3340.63 1775.00 L3340.63 1774.63 L3357.46 1774.63 L3357.46 1774.63 L3374.41 1774.63 L3374.41 1774.51 L3391.24 1774.51 L3391.24 1774.75 L3408.07 1774.75 L3408.07 1774.88 L3424.91 1774.88 L3424.91 1775.13 L3441.74 1775.13 L3441.74 1774.88 L3458.69 1774.88 L3458.69 1775.37 L3475.52 1775.37 L3475.52 1775.37 L3492.35 1775.37 L3492.35 1776.49 L3509.18 1776.49 L3509.18 1776.73 L3526.01 1776.73 L3526.01 1776.86 L3542.96 1776.86 L3542.96 1777.85 L3559.79 1777.85 L3559.79 1778.10 L3576.62 1778.10 L3576.62 1778.34 L3593.45 1778.34 L3593.45 1779.09 L3610.28 1779.09 L3610.28 1779.58 L3627.24 1779.58 L3627.24 1778.47 L3644.07 1778.47 L3644.07 1778.96 L3660.90 1778.96 L3660.90 1779.70 L3677.73 1779.70 L3677.73 1779.95 L3694.56 1779.95 L3694.56 1779.95 L3711.51 1779.95 L3711.51 1780.20 L3728.34 1780.20 L3728.34 1780.45 L3745.17 1780.45 L3745.17 1780.20 L3762.00 1780.20 L3762.00 1780.32 L3778.83 1780.32 L3778.83 1780.82 L3795.66 1780.82 L3795.66 1780.82 L3795.66 1088.42 L3795.66 1089.03 L3778.83 1089.03 L3778.83 1089.16 L3762.00 1089.16 L3762.00 1089.65 L3745.17 1089.65 L3745.17 1090.40 L3728.34 1090.40 L3728.34 1090.89 L3711.51 1090.89 L3711.51 1091.14 L3694.56 1091.14 L3694.56 1091.63 L3677.73 1091.63 L3677.73 1092.13 L3660.90 1092.13 L3660.90 1091.88 L3644.07 1091.88 L3644.07 1092.00 L3627.24 1092.00 L3627.24 1093.61 L3610.28 1093.61 L3610.28 1093.86 L3593.45 1093.86 L3593.45 1093.86 L3576.62 1093.86 L3576.62 1094.48 L3559.79 1094.48 L3559.79 1094.97 L3542.96 1094.97 L3542.96 1094.73 L3526.01 1094.73 L3526.01 1095.22 L3509.18 1095.22 L3509.18 1095.72 L3492.35 1095.72 L3492.35 1095.47 L3475.52 1095.47 L3475.52 1096.21 L3458.69 1096.21 L3458.69 1096.58 L3441.74 1096.58 L3441.74 1097.45 L3424.91 1097.45 L3424.91 1098.07 L3408.07 1098.07 L3408.07 1098.81 L3391.24 1098.81 L3391.24 1099.31 L3374.41 1099.31 L3374.41 1100.30 L3357.46 1100.30 L3357.46 1100.91 L3340.63 1100.91 L3340.63 1102.28 L3323.80 1102.28 L3323.80 1102.65 L3306.97 1102.65 L3306.97 1103.39 L3290.14 1103.39 L3290.14 1104.01 L3273.19 1104.01 L3273.19 1104.26 L3256.36 1104.26 L3256.36 1106.11 L3239.53 1106.11 L3239.53 1107.60 L3222.70 1107.60 L3222.70 1108.34 L3205.87 1108.34 L3205.87 1108.71 L3188.91 1108.71 L3188.91 1110.20 L3172.08 1110.20 L3172.08 1109.95 L3155.25 1109.95 L3155.25 1111.56 L3138.42 1111.56 L3138.42 1112.92 L3121.59 1112.92 L3121.59 1114.28 L3104.64 1114.28 L3104.64 1114.65 L3087.81 1114.65 L3087.81 1115.02 L3070.98 1115.02 L3070.98 1115.27 L3054.15 1115.27 L3054.15 1116.51 L3037.32 1116.51 L3037.32 1116.88 L3020.37 1116.88 L3020.37 1116.88 L3003.54 1116.88 L3003.54 1117.25 L2986.71 1117.25 L2986.71 1117.62 L2969.88 1117.62 L2969.88 1118.24 L2953.05 1118.24 L2953.05 1118.86 L2936.09 1118.86 L2936.09 1119.11 L2919.26 1119.11 L2919.26 1120.22 L2902.43 1120.22 L2902.43 1119.60 L2885.60 1119.60 L2885.60 1120.96 L2868.77 1120.96 L2868.77 1121.33 L2851.82 1121.33 L2851.82 1121.58 L2834.99 1121.58 L2834.99 1121.95 L2818.16 1121.95 L2818.16 1120.96 L2801.33 1120.96 L2801.33 1121.83 L2784.50 1121.83 L2784.50 1121.83 L2767.55 1121.83 L2767.55 1122.70 L2750.72 1122.70 L2750.72 1123.44 L2733.89 1123.44 L2733.89 1125.79 L2717.05 1125.79 L2717.05 1126.04 L2700.22 1126.04 L2700.22 1127.15 L2683.27 1127.15 L2683.27 1128.51 L2666.44 1128.51 L2666.44 1130.00 L2649.61 1130.00 L2649.61 1130.24 L2632.78 1130.24 L2632.78 1131.36 L2615.95 1131.36 L2615.95 1133.09 L2599.00 1133.09 L2599.00 1133.46 L2582.17 1133.46 L2582.17 1134.45 L2565.34 1134.45 L2565.34 1135.32 L2548.51 1135.32 L2548.51 1136.68 L2531.68 1136.68 L2531.68 1136.93 L2514.85 1136.93 L2514.85 1137.30 L2497.89 1137.30 L2497.89 1138.41 L2481.06 1138.41 L2481.06 1140.14 L2464.23 1140.14 L2464.23 1141.38 L2447.40 1141.38 L2447.40 1141.75 L2430.57 1141.75 L2430.57 1144.10 L2413.62 1144.10 L2413.62 1145.96 L2396.79 1145.96 L2396.79 1147.07 L2379.96 1147.07 L2379.96 1147.94 L2363.13 1147.94 L2363.13 1149.67 L2346.30 1149.67 L2346.30 1149.18 L2329.35 1149.18 L2329.35 1148.93 L2312.52 1148.93 L2312.52 1149.80 L2295.69 1149.80 L2295.69 1151.16 L2278.86 1151.16 L2278.86 1151.53 L2262.03 1151.53 L2262.03 1153.51 L2245.07 1153.51 L2245.07 1156.36 L2228.24 1156.36 L2228.24 1157.59 L2211.41 1157.59 L2211.41 1159.33 L2194.58 1159.33 L2194.58 1161.31 L2177.75 1161.31 L2177.75 1162.79 L2160.80 1162.79 L2160.80 1163.53 L2143.97 1163.53 L2143.97 1165.51 L2127.14 1165.51 L2127.14 1167.49 L2110.31 1167.49 L2110.31 1168.48 L2093.48 1168.48 L2093.48 1171.21 L2076.53 1171.21 L2076.53 1173.19 L2059.70 1173.19 L2059.70 1174.92 L2042.87 1174.92 L2042.87 1175.91 L2026.04 1175.91 L2026.04 1177.64 L2009.20 1177.64 L2009.20 1179.62 L1992.25 1179.62 L1992.25 1182.72 L1975.42 1182.72 L1975.42 1185.44 L1958.59 1185.44 L1958.59 1187.79 L1941.76 1187.79 L1941.76 1190.26 L1924.93 1190.26 L1924.93 1192.74 L1907.98 1192.74 L1907.98 1194.84 L1891.15 1194.84 L1891.15 1196.95 L1874.32 1196.95 L1874.32 1199.55 L1857.49 1199.55 L1857.49 1201.77 L1840.66 1201.77 L1840.66 1203.14 L1823.70 1203.14 L1823.70 1205.73 L1806.87 1205.73 L1806.87 1207.84 L1790.04 1207.84 L1790.04 1210.44 L1773.21 1210.44 L1773.21 1211.06 L1756.38 1211.06 L1756.38 1212.17 L1739.43 1212.17 L1739.43 1213.65 L1722.60 1213.65 L1722.60 1215.26 L1705.77 1215.26 L1705.77 1216.75 L1688.94 1216.75 L1688.94 1218.98 L1672.11 1218.98 L1672.11 1222.07 L1655.16 1222.07 L1655.16 1224.67 L1638.33 1224.67 L1638.33 1228.26 L1621.50 1228.26 L1621.50 1233.45 L1604.67 1233.45 L1604.67 1237.91 L1587.84 1237.91 L1587.84 1241.13 L1570.88 1241.13 L1570.88 1246.70 L1554.05 1246.70 L1554.05 1249.79 L1537.22 1249.79 L1537.22 1254.49 L1520.39 1254.49 L1520.39 1257.59 L1503.56 1257.59 L1503.56 1260.93 L1486.61 1260.93 L1486.61 1264.15 L1469.78 1264.15 L1469.78 1266.74 L1452.95 1266.74 L1452.95 1268.35 L1436.12 1268.35 L1436.12 1273.67 L1419.29 1273.67 L1419.29 1277.39 L1402.34 1277.39 L1402.34 1279.61 L1385.51 1279.61 L1385.51 1284.32 L1368.67 1284.32 L1368.67 1288.40 L1351.85 1288.40 L1351.85 1291.62 L1335.02 1291.62 L1335.02 1295.83 L1318.18 1295.83 L1318.18 1299.79 L1301.23 1299.79 L1301.23 1302.01 L1284.40 1302.01 L1284.40 1305.36 L1267.57 1305.36 L1267.57 1309.81 L1250.74 1309.81 L1250.74 1314.64 L1233.91 1314.64 L1233.91 1317.48 L1216.96 1317.48 L1216.96 1322.56 L1200.13 1322.56 L1200.13 1326.15 L1183.30 1326.15 L1183.30 1331.59 L1166.47 1331.59 L1166.47 1334.93 L1149.64 1334.93 L1149.64 1338.52 L1132.68 1338.52 L1132.68 1342.73 L1115.85 1342.73 L1115.85 1349.78 L1099.02 1349.78 L1099.02 1353.37 L1082.19 1353.37 L1082.19 1357.33 L1065.36 1357.33 L1065.36 1365.01 L1048.41 1365.01 L1048.41 1369.09 L1031.58 1369.09 L1031.58 1373.30 L1014.75 1373.30 L1014.75 1379.48 L997.92 1379.48 L997.92 1384.06 L981.09 1384.06 L981.09 1388.89 L964.14 1388.89 L964.14 1395.32 L947.31 1395.32 L947.31 1400.28 L930.48 1400.28 L930.48 1401.76 L913.65 1401.76 L913.65 1407.45 L896.82 1407.45 L896.82 1412.65 L879.86 1412.65 L879.86 1415.62 L863.03 1415.62 L863.03 1419.95 L846.20 1419.95 L846.20 1423.42 L829.37 1423.42 L829.37 1428.24 L812.54 1428.24 L812.54 1434.31 L795.59 1434.31 L795.59 1437.77 L778.76 1437.77 L778.76 1492.84 Z" stroke-linejoin="round"/>
	</defs>
	<defs>
		<clipPath id="clipPath_BMmvJBiX">
			<use xlink:href="#path_ErWttaac"/>
		</clipPath>
	</defs>
	<use xlink:href="#path_ErWttaac" style="stroke:none;fill:#999999;fill-opacity:0.65"/>
	<use xlink:href="#path_ErWttaac" style="fill:none;stroke:#808080;stroke-opacity:0.65;stroke-width:17.28" clip-path="url(#clipPath_BMmvJBiX)"/>
	<path d=" M778.76 1465.37 L795.59 1465.37 L795.59 1465.49 L812.42 1465.49 L812.42 1463.39 L829.25 1463.39 L829.25 1462.28 L846.08 1462.28 L846.08 1462.77 L863.03 1462.77 L863.03 1462.65 L879.86 1462.65 L879.86 1463.64 L896.69 1463.64 L896.69 1462.52 L913.52 1462.52 L913.52 1461.16 L930.35 1461.16 L930.35 1463.88 L947.31 1463.88 L947.31 1463.27 L964.14 1463.27 L964.14 1461.16 L980.97 1461.16 L980.97 1460.67 L997.80 1460.67 L997.80 1460.42 L1014.63 1460.42 L1014.63 1458.56 L1031.58 1458.56 L1031.58 1458.69 L1048.41 1458.69 L1048.41 1458.93 L1065.24 1458.93 L1065.24 1455.59 L1082.07 1455.59 L1082.07 1456.09 L1098.90 1456.09 L1098.90 1456.95 L1115.85 1456.95 L1115.85 1454.48 L1132.68 1454.48 L1132.68 1454.73 L1149.51 1454.73 L1149.51 1455.59 L1166.34 1455.59 L1166.34 1456.71 L1183.17 1456.71 L1183.17 1455.47 L1200.13 1455.47 L1200.13 1456.34 L1216.96 1456.34 L1216.96 1455.59 L1233.79 1455.59 L1233.79 1456.95 L1250.62 1456.95 L1250.62 1456.58 L1267.45 1456.58 L1267.45 1456.34 L1284.40 1456.34 L1284.40 1457.08 L1301.23 1457.08 L1301.23 1458.81 L1318.06 1458.81 L1318.06 1459.06 L1334.89 1459.06 L1334.89 1458.81 L1351.72 1458.81 L1351.72 1459.68 L1368.67 1459.68 L1368.67 1459.31 L1385.51 1459.31 L1385.51 1458.69 L1402.34 1458.69 L1402.34 1460.17 L1419.16 1460.17 L1419.16 1460.05 L1435.99 1460.05 L1435.99 1458.32 L1452.95 1458.32 L1452.95 1460.30 L1469.78 1460.30 L1469.78 1461.29 L1486.61 1461.29 L1486.61 1461.53 L1503.44 1461.53 L1503.44 1461.41 L1520.27 1461.41 L1520.27 1461.66 L1537.22 1461.66 L1537.22 1460.05 L1554.05 1460.05 L1554.05 1460.05 L1570.88 1460.05 L1570.88 1457.45 L1587.71 1457.45 L1587.71 1457.20 L1604.54 1457.20 L1604.54 1455.72 L1621.50 1455.72 L1621.50 1453.37 L1638.33 1453.37 L1638.33 1452.38 L1655.16 1452.38 L1655.16 1452.62 L1671.99 1452.62 L1671.99 1452.13 L1688.82 1452.13 L1688.82 1452.25 L1705.77 1452.25 L1705.77 1453.24 L1722.60 1453.24 L1722.60 1453.86 L1739.43 1453.86 L1739.43 1454.85 L1756.26 1454.85 L1756.26 1456.21 L1773.09 1456.21 L1773.09 1457.82 L1790.04 1457.82 L1790.04 1457.45 L1806.87 1457.45 L1806.87 1457.45 L1823.70 1457.45 L1823.70 1457.08 L1840.53 1457.08 L1840.53 1457.70 L1857.36 1457.70 L1857.36 1457.45 L1874.32 1457.45 L1874.32 1456.71 L1891.15 1456.71 L1891.15 1456.58 L1907.98 1456.58 L1907.98 1456.21 L1924.81 1456.21 L1924.81 1455.47 L1941.64 1455.47 L1941.64 1454.85 L1958.59 1454.85 L1958.59 1454.11 L1975.42 1454.11 L1975.42 1453.12 L1992.25 1453.12 L1992.25 1451.63 L2009.08 1451.63 L2009.08 1451.39 L2025.91 1451.39 L2025.91 1451.26 L2042.74 1451.26 L2042.74 1451.88 L2059.70 1451.88 L2059.70 1451.51 L2076.53 1451.51 L2076.53 1451.01 L2093.36 1451.01 L2093.36 1449.78 L2110.18 1449.78 L2110.18 1450.02 L2127.01 1450.02 L2127.01 1449.41 L2143.97 1449.41 L2143.97 1448.79 L2160.80 1448.79 L2160.80 1449.16 L2177.63 1449.16 L2177.63 1449.03 L2194.46 1449.03 L2194.46 1448.17 L2211.29 1448.17 L2211.29 1447.80 L2228.24 1447.80 L2228.24 1447.67 L2245.07 1447.67 L2245.07 1446.06 L2261.90 1446.06 L2261.90 1445.20 L2278.73 1445.20 L2278.73 1445.94 L2295.56 1445.94 L2295.56 1445.69 L2312.52 1445.69 L2312.52 1445.94 L2329.35 1445.94 L2329.35 1447.18 L2346.18 1447.18 L2346.18 1448.79 L2363.01 1448.79 L2363.01 1447.92 L2379.84 1447.92 L2379.84 1448.17 L2396.79 1448.17 L2396.79 1447.92 L2413.62 1447.92 L2413.62 1446.93 L2430.45 1446.93 L2430.45 1445.57 L2447.28 1445.57 L2447.28 1446.19 L2464.11 1446.19 L2464.11 1445.82 L2481.06 1445.82 L2481.06 1444.95 L2497.89 1444.95 L2497.89 1444.83 L2514.72 1444.83 L2514.72 1445.20 L2531.55 1445.20 L2531.55 1445.94 L2548.38 1445.94 L2548.38 1445.20 L2565.34 1445.20 L2565.34 1445.32 L2582.17 1445.32 L2582.17 1444.95 L2599.00 1444.95 L2599.00 1445.45 L2615.83 1445.45 L2615.83 1444.58 L2632.66 1444.58 L2632.66 1444.21 L2649.61 1444.21 L2649.61 1444.70 L2666.44 1444.70 L2666.44 1443.96 L2683.27 1443.96 L2683.27 1443.34 L2700.10 1443.34 L2700.10 1442.97 L2716.93 1442.97 L2716.93 1443.34 L2733.89 1443.34 L2733.89 1441.73 L2750.72 1441.73 L2750.72 1441.61 L2767.55 1441.61 L2767.55 1441.49 L2784.38 1441.49 L2784.38 1442.23 L2801.20 1442.23 L2801.20 1441.86 L2818.16 1441.86 L2818.16 1443.59 L2834.99 1443.59 L2834.99 1443.71 L2851.82 1443.71 L2851.82 1444.08 L2868.65 1444.08 L2868.65 1444.33 L2885.48 1444.33 L2885.48 1443.47 L2902.43 1443.47 L2902.43 1444.70 L2919.26 1444.70 L2919.26 1444.08 L2936.09 1444.08 L2936.09 1444.46 L2952.92 1444.46 L2952.92 1444.33 L2969.75 1444.33 L2969.75 1444.21 L2986.71 1444.21 L2986.71 1444.33 L3003.54 1444.33 L3003.54 1444.58 L3020.37 1444.58 L3020.37 1445.07 L3037.20 1445.07 L3037.20 1445.07 L3054.03 1445.07 L3054.03 1444.33 L3070.98 1444.33 L3070.98 1444.70 L3087.81 1444.70 L3087.81 1444.58 L3104.64 1444.58 L3104.64 1444.83 L3121.47 1444.83 L3121.47 1443.96 L3138.30 1443.96 L3138.30 1443.09 L3155.13 1443.09 L3155.13 1441.86 L3172.08 1441.86 L3172.08 1442.60 L3188.91 1442.60 L3188.91 1441.61 L3205.74 1441.61 L3205.74 1441.49 L3222.57 1441.49 L3222.57 1441.36 L3239.40 1441.36 L3239.40 1440.25 L3256.36 1440.25 L3256.36 1438.76 L3273.19 1438.76 L3273.19 1439.01 L3290.02 1439.01 L3290.02 1438.89 L3306.85 1438.89 L3306.85 1438.51 L3323.68 1438.51 L3323.68 1438.51 L3340.63 1438.51 L3340.63 1437.65 L3357.46 1437.65 L3357.46 1437.28 L3374.29 1437.28 L3374.29 1436.78 L3391.12 1436.78 L3391.12 1436.66 L3407.95 1436.66 L3407.95 1436.29 L3424.91 1436.29 L3424.91 1436.16 L3441.74 1436.16 L3441.74 1435.54 L3458.57 1435.54 L3458.57 1435.67 L3475.39 1435.67 L3475.39 1435.30 L3492.22 1435.30 L3492.22 1435.92 L3509.18 1435.92 L3509.18 1435.79 L3526.01 1435.79 L3526.01 1435.67 L3542.84 1435.67 L3542.84 1436.16 L3559.67 1436.16 L3559.67 1436.04 L3576.50 1436.04 L3576.50 1435.92 L3593.45 1435.92 L3593.45 1436.29 L3610.28 1436.29 L3610.28 1436.41 L3627.11 1436.41 L3627.11 1435.05 L3643.94 1435.05 L3643.94 1435.30 L3660.77 1435.30 L3660.77 1435.79 L3677.73 1435.79 L3677.73 1435.67 L3694.56 1435.67 L3694.56 1435.42 L3711.39 1435.42 L3711.39 1435.42 L3728.22 1435.42 L3728.22 1435.30 L3745.05 1435.30 L3745.05 1434.80 L3762.00 1434.80 L3762.00 1434.55 L3778.83 1434.55 L3778.83 1434.68 L3795.66 1434.68 L3795.66 1434.43" stroke-linejoin="round" style="fill:none;stroke:#000000;stroke-width:8.64"/>
	<line x1="559.10" y1="2509.23" x2="559.10" y2="419.90" style="stroke:#000000;stroke-width:5.76"/>
	<line x1="559.10" y1="2445.87" x2="519.13" y2="2445.87" style="stroke:#000000;stroke-width:5.76"/>
	<text x="499.08" y="2480.90" style="font-family:'Helvetica';font-size:99.99px;fill:#000000" text-anchor="end">-0.25</text>
	<line x1="559.10" y1="2249.60" x2="519.13" y2="2249.60" style="stroke:#000000;stroke-width:5.76"/>
	<text x="499.08" y="2284.63" style="font-family:'Helvetica';font-size:99.99px;fill:#000000" text-anchor="end">-0.20</text>
	<line x1="559.10" y1="2053.32" x2="519.13" y2="2053.32" style="stroke:#000000;stroke-width:5.76"/>
	<text x="499.08" y="2088.35" style="font-family:'Helvetica';font-size:99.99px;fill:#000000" text-anchor="end">-0.15</text>
	<line x1="559.10" y1="1857.05" x2="519.13" y2="1857.05" style="stroke:#000000;stroke-width:5.76"/>
	<text x="499.08" y="1892.08" style="font-family:'Helvetica';font-size:99.99px;fill:#000000" text-anchor="end">-0.10</text>
	<line x1="559.10" y1="1660.78" x2="519.13" y2="1660.78" style="stroke:#000000;stroke-width:5.76"/>
	<text x="499.08" y="1695.81" style="font-family:'Helvetica';font-size:99.99px;fill:#000000" text-anchor="end">-0.05</text>
	<line x1="559.10" y1="1464.63" x2="519.13" y2="1464.63" style="stroke:#000000;stroke-width:5.76"/>
	<text x="499.08" y="1499.66" style="font-family:'Helvetica';font-size:99.99px;fill:#000000" text-anchor="end">0.00</text>
	<line x1="559.10" y1="1268.35" x2="519.13" y2="1268.35" style="stroke:#000000;stroke-width:5.76"/>
	<text x="499.08" y="1303.38" style="font-family:'Helvetica';font-size:99.99px;fill:#000000" text-anchor="end">0.05</text>
	<line x1="559.10" y1="1072.08" x2="519.13" y2="1072.08" style="stroke:#000000;stroke-width:5.76"/>
	<text x="499.08" y="1107.11" style="font-family:'Helvetica';font-size:99.99px;fill:#000000" text-anchor="end">0.10</text>
	<line x1="559.10" y1="875.81" x2="519.13" y2="875.81" style="stroke:#000000;stroke-width:5.76"/>
	<text x="499.08" y="910.83" style="font-family:'Helvetica';font-size:99.99px;fill:#000000" text-anchor="end">0.15</text>
	<line x1="559.10" y1="679.53" x2="519.13" y2="679.53" style="stroke:#000000;stroke-width:5.76"/>
	<text x="499.08" y="714.56" style="font-family:'Helvetica';font-size:99.99px;fill:#000000" text-anchor="end">0.20</text>
	<line x1="559.10" y1="483.26" x2="519.13" y2="483.26" style="stroke:#000000;stroke-width:5.76"/>
	<text x="499.08" y="518.29" style="font-family:'Helvetica';font-size:99.99px;fill:#000000" text-anchor="end">0.25</text>
	<text x="190.71" y="1464.63" style="font-family:'Helvetica';font-size:99.99px;fill:#000000" transform="rotate(-90 190.71,1464.63)" text-anchor="middle">Difference in Probabilities</text>
	<line x1="559.10" y1="2509.23" x2="3859.02" y2="2509.23" style="stroke:#000000;stroke-width:5.76"/>
	<line x1="622.46" y1="2509.23" x2="622.46" y2="2549.21" style="stroke:#000000;stroke-width:5.76"/>
	<text x="622.46" y="2625.15" style="font-family:'Helvetica';font-size:79.94px;fill:#000000" text-anchor="middle">0</text>
	<line x1="812.79" y1="2509.23" x2="812.79" y2="2549.21" style="stroke:#000000;stroke-width:5.76"/>
	<text x="812.79" y="2625.15" style="font-family:'Helvetica';font-size:79.94px;fill:#000000" text-anchor="middle">.3</text>
	<line x1="1003.12" y1="2509.23" x2="1003.12" y2="2549.21" style="stroke:#000000;stroke-width:5.76"/>
	<text x="1003.12" y="2625.15" style="font-family:'Helvetica';font-size:79.94px;fill:#000000" text-anchor="middle">.6</text>
	<line x1="1193.44" y1="2509.23" x2="1193.44" y2="2549.21" style="stroke:#000000;stroke-width:5.76"/>
	<text x="1193.44" y="2625.15" style="font-family:'Helvetica';font-size:79.94px;fill:#000000" text-anchor="middle">.9</text>
	<line x1="1383.77" y1="2509.23" x2="1383.77" y2="2549.21" style="stroke:#000000;stroke-width:5.76"/>
	<text x="1383.77" y="2625.15" style="font-family:'Helvetica';font-size:79.94px;fill:#000000" text-anchor="middle">1.2</text>
	<line x1="1574.10" y1="2509.23" x2="1574.10" y2="2549.21" style="stroke:#000000;stroke-width:5.76"/>
	<text x="1574.10" y="2625.15" style="font-family:'Helvetica';font-size:79.94px;fill:#000000" text-anchor="middle">1.5</text>
	<line x1="1764.43" y1="2509.23" x2="1764.43" y2="2549.21" style="stroke:#000000;stroke-width:5.76"/>
	<text x="1764.43" y="2625.15" style="font-family:'Helvetica';font-size:79.94px;fill:#000000" text-anchor="middle">1.8</text>
	<line x1="1954.63" y1="2509.23" x2="1954.63" y2="2549.21" style="stroke:#000000;stroke-width:5.76"/>
	<text x="1954.63" y="2625.15" style="font-family:'Helvetica';font-size:79.94px;fill:#000000" text-anchor="middle">2.1</text>
	<line x1="2144.96" y1="2509.23" x2="2144.96" y2="2549.21" style="stroke:#000000;stroke-width:5.76"/>
	<text x="2144.96" y="2625.15" style="font-family:'Helvetica';font-size:79.94px;fill:#000000" text-anchor="middle">2.4</text>
	<line x1="2335.29" y1="2509.23" x2="2335.29" y2="2549.21" style="stroke:#000000;stroke-width:5.76"/>
	<text x="2335.29" y="2625.15" style="font-family:'Helvetica';font-size:79.94px;fill:#000000" text-anchor="middle">2.7</text>
	<line x1="2525.61" y1="2509.23" x2="2525.61" y2="2549.21" style="stroke:#000000;stroke-width:5.76"/>
	<text x="2525.61" y="2625.15" style="font-family:'Helvetica';font-size:79.94px;fill:#000000" text-anchor="middle">3</text>
	<line x1="2715.94" y1="2509.23" x2="2715.94" y2="2549.21" style="stroke:#000000;stroke-width:5.76"/>
	<text x="2715.94" y="2625.15" style="font-family:'Helvetica';font-size:79.94px;fill:#000000" text-anchor="middle">3.3</text>
	<line x1="2906.27" y1="2509.23" x2="2906.27" y2="2549.21" style="stroke:#000000;stroke-width:5.76"/>
	<text x="2906.27" y="2625.15" style="font-family:'Helvetica';font-size:79.94px;fill:#000000" text-anchor="middle">3.6</text>
	<line x1="3096.60" y1="2509.23" x2="3096.60" y2="2549.21" style="stroke:#000000;stroke-width:5.76"/>
	<text x="3096.60" y="2625.15" style="font-family:'Helvetica';font-size:79.94px;fill:#000000" text-anchor="middle">3.9</text>
	<line x1="3286.92" y1="2509.23" x2="3286.92" y2="2549.21" style="stroke:#000000;stroke-width:5.76"/>
	<text x="3286.92" y="2625.15" style="font-family:'Helvetica';font-size:79.94px;fill:#000000" text-anchor="middle">4.2</text>
	<line x1="3477.25" y1="2509.23" x2="3477.25" y2="2549.21" style="stroke:#000000;stroke-width:5.76"/>
	<text x="3477.25" y="2625.15" style="font-family:'Helvetica';font-size:79.94px;fill:#000000" text-anchor="middle">4.5</text>
	<line x1="3667.58" y1="2509.23" x2="3667.58" y2="2549.21" style="stroke:#000000;stroke-width:5.76"/>
	<text x="3667.58" y="2625.15" style="font-family:'Helvetica';font-size:79.94px;fill:#000000" text-anchor="middle">4.8</text>
	<line x1="3857.91" y1="2509.23" x2="3857.91" y2="2549.21" style="stroke:#000000;stroke-width:5.76"/>
	<text x="3857.91" y="2625.15" style="font-family:'Helvetica';font-size:79.94px;fill:#000000" text-anchor="middle">5.1</text>
	<text x="2209.06" y="2729.16" style="font-family:'Helvetica';font-size:99.99px;fill:#000000" text-anchor="middle">Time (years)</text>
	<rect x="593.63" y="454.42" width="993.34" height="326.46" style="fill:#FFFFFF"/>
	<rect x="596.51" y="457.30" width="987.58" height="320.70" style="fill:none;stroke:#000000;stroke-width:5.76"/>
	<rect x="636.82" y="497.74" width="374.47" height="99.99" style="fill:#999999;fill-opacity:0.65"/>
	<rect x="641.14" y="502.06" width="365.83" height="91.35" style="fill:none;stroke:#808080;stroke-opacity:0.65;stroke-width:8.64"/>
	<line x1="636.82" y1="687.70" x2="1011.28" y2="687.70" style="stroke:#000000;stroke-width:8.64"/>
	<text x="1071.30" y="582.76" style="font-family:'Helvetica';font-size:99.99px;fill:#000000">CI95%</text>
	<text x="1071.30" y="722.73" style="font-family:'Helvetica';font-size:99.99px;fill:#000000">Difference</text>
	<text x="2209.06" y="369.63" style="font-family:'Helvetica';font-size:110.01px;fill:#000000" text-anchor="middle">from 3rd Readmission to 4th Readmission</text>
	<text x="2209.06" y="215.98" style="font-family:'Helvetica';font-size:139.96px;fill:#1E2D53" text-anchor="middle">Difference in Probabilities at 3 years (RP)</text>
</svg>
