<?xml version="1.0" encoding="UTF-8" standalone="no"?>
<!-- This is a Stata 16.1 generated SVG file (http://www.stata.com) -->

<svg version="1.1" width="5.50in" height="4.00in" viewBox="0 0 3960 2880" xmlns="http://www.w3.org/2000/svg" xmlns:xlink="http://www.w3.org/1999/xlink">
	<desc>Stata Graph - diff_mod12</desc>
	<rect x="0" y="0" width="3960" height="2880" style="fill:#EAF2F3;stroke:none"/>
	<rect x="0.00" y="0.00" width="3959.88" height="2880.00" style="fill:#FFFFFF"/>
	<rect x="2.88" y="2.88" width="3954.12" height="2874.24" style="fill:none;stroke:#FFFFFF;stroke-width:5.76"/>
	<rect x="559.10" y="419.90" width="3299.92" height="2089.34" style="fill:#FFFFFF"/>
	<rect x="561.98" y="422.78" width="3294.16" height="2083.58" style="fill:none;stroke:#FFFFFF;stroke-width:5.76"/>
	<line x1="559.10" y1="2200.59" x2="3859.02" y2="2200.59" style="stroke:#EAF2F3;stroke-width:8.64"/>
	<line x1="559.10" y1="1955.19" x2="3859.02" y2="1955.19" style="stroke:#EAF2F3;stroke-width:8.64"/>
	<line x1="559.10" y1="1709.91" x2="3859.02" y2="1709.91" style="stroke:#EAF2F3;stroke-width:8.64"/>
	<line x1="559.10" y1="1464.63" x2="3859.02" y2="1464.63" style="stroke:#EAF2F3;stroke-width:8.64"/>
	<line x1="559.10" y1="1219.22" x2="3859.02" y2="1219.22" style="stroke:#EAF2F3;stroke-width:8.64"/>
	<line x1="559.10" y1="973.94" x2="3859.02" y2="973.94" style="stroke:#EAF2F3;stroke-width:8.64"/>
	<line x1="559.10" y1="728.66" x2="3859.02" y2="728.66" style="stroke:#EAF2F3;stroke-width:8.64"/>
	<line x1="559.10" y1="1464.63" x2="3859.02" y2="1464.63" style="stroke:#1A476F;stroke-width:8.64"/>
	<defs>
		<path id="path_xlRvezMO" d="M778.88 1486.41 L778.88 1486.41 L795.71 1486.41 L795.71 1487.77 L812.54 1487.77 L812.54 1489.63 L829.37 1489.63 L829.37 1491.11 L846.20 1491.11 L846.20 1492.60 L863.16 1492.60 L863.16 1494.33 L879.99 1494.33 L879.99 1495.44 L896.82 1495.44 L896.82 1497.42 L913.65 1497.42 L913.65 1499.15 L930.48 1499.15 L930.48 1500.27 L947.31 1500.27 L947.31 1501.75 L964.26 1501.75 L964.26 1502.87 L981.09 1502.87 L981.09 1504.35 L997.92 1504.35 L997.92 1505.59 L1014.75 1505.59 L1014.75 1506.70 L1031.58 1506.70 L1031.58 1507.94 L1048.53 1507.94 L1048.53 1508.93 L1065.36 1508.93 L1065.36 1510.42 L1082.19 1510.42 L1082.19 1511.78 L1099.02 1511.78 L1099.02 1512.52 L1115.85 1512.52 L1115.85 1513.39 L1132.68 1513.39 L1132.68 1514.62 L1149.64 1514.62 L1149.64 1515.24 L1166.47 1515.24 L1166.47 1515.98 L1183.30 1515.98 L1183.30 1516.73 L1200.13 1516.73 L1200.13 1517.10 L1216.96 1517.10 L1216.96 1517.84 L1233.79 1517.84 L1233.79 1517.96 L1250.74 1517.96 L1250.74 1518.09 L1267.57 1518.09 L1267.57 1518.83 L1284.40 1518.83 L1284.40 1519.33 L1301.23 1519.33 L1301.23 1520.07 L1318.06 1520.07 L1318.06 1521.31 L1334.89 1521.31 L1334.89 1522.30 L1351.85 1522.30 L1351.85 1522.92 L1368.67 1522.92 L1368.67 1523.29 L1385.51 1523.29 L1385.51 1523.66 L1402.34 1523.66 L1402.34 1524.03 L1419.16 1524.03 L1419.16 1524.65 L1436.12 1524.65 L1436.12 1524.90 L1452.95 1524.90 L1452.95 1525.27 L1469.78 1525.27 L1469.78 1525.27 L1486.61 1525.27 L1486.61 1525.27 L1503.44 1525.27 L1503.44 1525.64 L1520.27 1525.64 L1520.27 1526.01 L1537.22 1526.01 L1537.22 1526.13 L1554.05 1526.13 L1554.05 1526.26 L1570.88 1526.26 L1570.88 1526.38 L1587.71 1526.38 L1587.71 1527.00 L1604.54 1527.00 L1604.54 1527.25 L1621.37 1527.25 L1621.37 1527.12 L1638.33 1527.12 L1638.33 1527.37 L1655.16 1527.37 L1655.16 1527.37 L1671.99 1527.37 L1671.99 1527.87 L1688.82 1527.87 L1688.82 1527.87 L1705.65 1527.87 L1705.65 1527.99 L1722.48 1527.99 L1722.48 1527.87 L1739.43 1527.87 L1739.43 1528.36 L1756.26 1528.36 L1756.26 1528.48 L1773.09 1528.48 L1773.09 1528.48 L1789.92 1528.48 L1789.92 1528.61 L1806.75 1528.61 L1806.75 1528.86 L1823.70 1528.86 L1823.70 1528.98 L1840.53 1528.98 L1840.53 1529.10 L1857.36 1529.10 L1857.36 1529.47 L1874.19 1529.47 L1874.19 1530.09 L1891.02 1530.09 L1891.02 1530.09 L1907.85 1530.09 L1907.85 1530.22 L1924.81 1530.22 L1924.81 1530.59 L1941.64 1530.59 L1941.64 1530.71 L1958.47 1530.71 L1958.47 1530.71 L1975.30 1530.71 L1975.30 1531.08 L1992.13 1531.08 L1992.13 1530.46 L2008.96 1530.46 L2008.96 1530.34 L2025.91 1530.34 L2025.91 1529.97 L2042.74 1529.97 L2042.74 1530.22 L2059.57 1530.22 L2059.57 1530.09 L2076.40 1530.09 L2076.40 1530.34 L2093.23 1530.34 L2093.23 1530.46 L2110.18 1530.46 L2110.18 1530.71 L2127.01 1530.71 L2127.01 1530.46 L2143.84 1530.46 L2143.84 1530.09 L2160.68 1530.09 L2160.68 1530.22 L2177.51 1530.22 L2177.51 1530.46 L2194.34 1530.46 L2194.34 1530.46 L2211.29 1530.46 L2211.29 1530.71 L2228.12 1530.71 L2228.12 1530.96 L2244.95 1530.96 L2244.95 1531.21 L2261.78 1531.21 L2261.78 1531.08 L2278.61 1531.08 L2278.61 1531.08 L2295.44 1531.08 L2295.44 1531.21 L2312.39 1531.21 L2312.39 1531.21 L2329.22 1531.21 L2329.22 1531.08 L2346.05 1531.08 L2346.05 1531.45 L2362.88 1531.45 L2362.88 1531.45 L2379.71 1531.45 L2379.71 1531.83 L2396.54 1531.83 L2396.54 1532.07 L2413.50 1532.07 L2413.50 1532.20 L2430.33 1532.20 L2430.33 1532.07 L2447.16 1532.07 L2447.16 1531.83 L2463.99 1531.83 L2463.99 1532.20 L2480.82 1532.20 L2480.82 1531.95 L2497.77 1531.95 L2497.77 1531.58 L2514.60 1531.58 L2514.60 1531.45 L2531.43 1531.45 L2531.43 1530.96 L2548.26 1530.96 L2548.26 1530.84 L2565.09 1530.84 L2565.09 1530.46 L2581.92 1530.46 L2581.92 1530.46 L2598.87 1530.46 L2598.87 1530.46 L2615.70 1530.46 L2615.70 1530.22 L2632.53 1530.22 L2632.53 1530.46 L2649.36 1530.46 L2649.36 1530.22 L2666.19 1530.22 L2666.19 1530.22 L2683.02 1530.22 L2683.02 1530.09 L2699.98 1530.09 L2699.98 1530.34 L2716.81 1530.34 L2716.81 1530.34 L2733.64 1530.34 L2733.64 1530.71 L2750.47 1530.71 L2750.47 1530.34 L2767.30 1530.34 L2767.30 1530.59 L2784.25 1530.59 L2784.25 1530.59 L2801.08 1530.59 L2801.08 1530.46 L2817.91 1530.46 L2817.91 1530.59 L2834.74 1530.59 L2834.74 1530.71 L2851.57 1530.71 L2851.57 1530.96 L2868.40 1530.96 L2868.40 1530.71 L2885.36 1530.71 L2885.36 1530.84 L2902.18 1530.84 L2902.18 1530.96 L2919.01 1530.96 L2919.01 1530.96 L2935.84 1530.96 L2935.84 1530.71 L2952.68 1530.71 L2952.68 1530.46 L2969.51 1530.46 L2969.51 1530.59 L2986.46 1530.59 L2986.46 1530.34 L3003.29 1530.34 L3003.29 1530.84 L3020.12 1530.84 L3020.12 1530.96 L3036.95 1530.96 L3036.95 1530.59 L3053.78 1530.59 L3053.78 1530.59 L3070.61 1530.59 L3070.61 1530.46 L3087.56 1530.46 L3087.56 1530.46 L3104.39 1530.46 L3104.39 1530.59 L3121.22 1530.59 L3121.22 1530.71 L3138.05 1530.71 L3138.05 1530.84 L3154.88 1530.84 L3154.88 1530.96 L3171.84 1530.96 L3171.84 1531.08 L3188.67 1531.08 L3188.67 1531.33 L3205.50 1531.33 L3205.50 1531.21 L3222.33 1531.21 L3222.33 1531.21 L3239.16 1531.21 L3239.16 1531.45 L3255.99 1531.45 L3255.99 1531.21 L3272.94 1531.21 L3272.94 1531.08 L3289.77 1531.08 L3289.77 1530.59 L3306.60 1530.59 L3306.60 1530.59 L3323.43 1530.59 L3323.43 1530.34 L3340.26 1530.34 L3340.26 1530.46 L3357.09 1530.46 L3357.09 1530.34 L3374.04 1530.34 L3374.04 1530.09 L3390.87 1530.09 L3390.87 1530.09 L3407.70 1530.09 L3407.70 1530.22 L3424.53 1530.22 L3424.53 1529.85 L3441.36 1529.85 L3441.36 1530.09 L3458.19 1530.09 L3458.19 1530.22 L3475.15 1530.22 L3475.15 1530.09 L3491.98 1530.09 L3491.98 1530.22 L3508.81 1530.22 L3508.81 1530.34 L3525.64 1530.34 L3525.64 1530.71 L3542.47 1530.71 L3542.47 1530.71 L3559.42 1530.71 L3559.42 1530.59 L3576.25 1530.59 L3576.25 1530.59 L3593.08 1530.59 L3593.08 1530.34 L3609.91 1530.34 L3609.91 1530.71 L3626.74 1530.71 L3626.74 1530.59 L3643.57 1530.59 L3643.57 1530.71 L3660.53 1530.71 L3660.53 1530.34 L3677.36 1530.34 L3677.36 1530.09 L3694.18 1530.09 L3694.18 1529.97 L3711.01 1529.97 L3711.01 1529.85 L3727.84 1529.85 L3727.84 1529.85 L3744.68 1529.85 L3744.68 1529.85 L3761.63 1529.85 L3761.63 1530.22 L3778.46 1530.22 L3778.46 1530.22 L3795.29 1530.22 L3795.29 1530.09 L3795.29 1375.03 L3795.29 1374.91 L3778.46 1374.91 L3778.46 1374.78 L3761.63 1374.78 L3761.63 1374.29 L3744.68 1374.29 L3744.68 1374.16 L3727.84 1374.16 L3727.84 1374.04 L3711.01 1374.04 L3711.01 1374.04 L3694.18 1374.04 L3694.18 1374.04 L3677.36 1374.04 L3677.36 1374.16 L3660.53 1374.16 L3660.53 1374.41 L3643.57 1374.41 L3643.57 1374.16 L3626.74 1374.16 L3626.74 1374.04 L3609.91 1374.04 L3609.91 1373.67 L3593.08 1373.67 L3593.08 1373.79 L3576.25 1373.79 L3576.25 1373.67 L3559.42 1373.67 L3559.42 1373.67 L3542.47 1373.67 L3542.47 1373.54 L3525.64 1373.54 L3525.64 1373.05 L3508.81 1373.05 L3508.81 1372.80 L3491.98 1372.80 L3491.98 1372.55 L3475.15 1372.55 L3475.15 1372.55 L3458.19 1372.55 L3458.19 1372.18 L3441.36 1372.18 L3441.36 1372.06 L3424.53 1372.06 L3424.53 1372.18 L3407.70 1372.18 L3407.70 1372.06 L3390.87 1372.06 L3390.87 1371.94 L3374.04 1371.94 L3374.04 1372.06 L3357.09 1372.06 L3357.09 1372.06 L3340.26 1372.06 L3340.26 1371.94 L3323.43 1371.94 L3323.43 1372.06 L3306.60 1372.06 L3306.60 1371.94 L3289.77 1371.94 L3289.77 1372.31 L3272.94 1372.31 L3272.94 1372.31 L3255.99 1372.31 L3255.99 1372.55 L3239.16 1372.55 L3239.16 1372.31 L3222.33 1372.31 L3222.33 1372.18 L3205.50 1372.18 L3205.50 1372.18 L3188.67 1372.18 L3188.67 1371.81 L3171.84 1371.81 L3171.84 1371.56 L3154.88 1371.56 L3154.88 1371.44 L3138.05 1371.44 L3138.05 1371.19 L3121.22 1371.19 L3121.22 1371.07 L3104.39 1371.07 L3104.39 1370.70 L3087.56 1370.70 L3087.56 1370.70 L3070.61 1370.70 L3070.61 1370.70 L3053.78 1370.70 L3053.78 1370.70 L3036.95 1370.70 L3036.95 1371.07 L3020.12 1371.07 L3020.12 1370.82 L3003.29 1370.82 L3003.29 1370.33 L2986.46 1370.33 L2986.46 1370.45 L2969.51 1370.45 L2969.51 1370.33 L2952.68 1370.33 L2952.68 1370.45 L2935.84 1370.45 L2935.84 1370.70 L2919.01 1370.70 L2919.01 1370.57 L2902.18 1370.57 L2902.18 1370.45 L2885.36 1370.45 L2885.36 1370.20 L2868.40 1370.20 L2868.40 1370.45 L2851.57 1370.45 L2851.57 1370.20 L2834.74 1370.20 L2834.74 1370.08 L2817.91 1370.08 L2817.91 1369.83 L2801.08 1369.83 L2801.08 1369.96 L2784.25 1369.96 L2784.25 1369.96 L2767.30 1369.96 L2767.30 1369.71 L2750.47 1369.71 L2750.47 1369.96 L2733.64 1369.96 L2733.64 1369.58 L2716.81 1369.58 L2716.81 1369.58 L2699.98 1369.58 L2699.98 1369.46 L2683.02 1369.46 L2683.02 1369.58 L2666.19 1369.58 L2666.19 1369.58 L2649.36 1369.58 L2649.36 1369.83 L2632.53 1369.83 L2632.53 1369.58 L2615.70 1369.58 L2615.70 1369.83 L2598.87 1369.83 L2598.87 1369.83 L2581.92 1369.83 L2581.92 1369.83 L2565.09 1369.83 L2565.09 1370.33 L2548.26 1370.33 L2548.26 1370.45 L2531.43 1370.45 L2531.43 1370.95 L2514.60 1370.95 L2514.60 1371.19 L2497.77 1371.19 L2497.77 1371.56 L2480.82 1371.56 L2480.82 1371.81 L2463.99 1371.81 L2463.99 1371.69 L2447.16 1371.69 L2447.16 1371.94 L2430.33 1371.94 L2430.33 1372.06 L2413.50 1372.06 L2413.50 1372.06 L2396.54 1372.06 L2396.54 1371.94 L2379.71 1371.94 L2379.71 1371.56 L2362.88 1371.56 L2362.88 1371.69 L2346.05 1371.69 L2346.05 1371.44 L2329.22 1371.44 L2329.22 1371.69 L2312.39 1371.69 L2312.39 1371.94 L2295.44 1371.94 L2295.44 1371.81 L2278.61 1371.81 L2278.61 1371.94 L2261.78 1371.94 L2261.78 1372.18 L2244.95 1372.18 L2244.95 1372.06 L2228.12 1372.06 L2228.12 1371.94 L2211.29 1371.94 L2211.29 1371.94 L2194.34 1371.94 L2194.34 1372.06 L2177.51 1372.06 L2177.51 1371.94 L2160.68 1371.94 L2160.68 1372.06 L2143.84 1372.06 L2143.84 1372.68 L2127.01 1372.68 L2127.01 1373.05 L2110.18 1373.05 L2110.18 1373.17 L2093.23 1373.17 L2093.23 1373.17 L2076.40 1373.17 L2076.40 1373.17 L2059.57 1373.17 L2059.57 1373.54 L2042.74 1373.54 L2042.74 1373.54 L2025.91 1373.54 L2025.91 1374.29 L2008.96 1374.29 L2008.96 1374.66 L1992.13 1374.66 L1992.13 1375.52 L1975.30 1375.52 L1975.30 1375.52 L1958.47 1375.52 L1958.47 1375.77 L1941.64 1375.77 L1941.64 1376.02 L1924.81 1376.02 L1924.81 1375.90 L1907.85 1375.90 L1907.85 1376.14 L1891.02 1376.14 L1891.02 1376.51 L1874.19 1376.51 L1874.19 1376.27 L1857.36 1376.27 L1857.36 1376.27 L1840.53 1376.27 L1840.53 1376.64 L1823.70 1376.64 L1823.70 1376.89 L1806.75 1376.89 L1806.75 1377.13 L1789.92 1377.13 L1789.92 1377.38 L1773.09 1377.38 L1773.09 1377.88 L1756.26 1377.88 L1756.26 1378.25 L1739.43 1378.25 L1739.43 1378.37 L1722.48 1378.37 L1722.48 1378.87 L1705.65 1378.87 L1705.65 1379.24 L1688.82 1379.24 L1688.82 1379.73 L1671.99 1379.73 L1671.99 1379.86 L1655.16 1379.86 L1655.16 1380.47 L1638.33 1380.47 L1638.33 1380.85 L1621.37 1380.85 L1621.37 1381.59 L1604.54 1381.59 L1604.54 1382.08 L1587.71 1382.08 L1587.71 1382.08 L1570.88 1382.08 L1570.88 1382.70 L1554.05 1382.70 L1554.05 1383.32 L1537.22 1383.32 L1537.22 1383.94 L1520.27 1383.94 L1520.27 1384.43 L1503.44 1384.43 L1503.44 1384.81 L1486.61 1384.81 L1486.61 1385.80 L1469.78 1385.80 L1469.78 1386.79 L1452.95 1386.79 L1452.95 1387.40 L1436.12 1387.40 L1436.12 1388.02 L1419.16 1388.02 L1419.16 1388.39 L1402.34 1388.39 L1402.34 1389.14 L1385.51 1389.14 L1385.51 1389.76 L1368.67 1389.76 L1368.67 1390.50 L1351.85 1390.50 L1351.85 1390.99 L1334.89 1390.99 L1334.89 1391.36 L1318.06 1391.36 L1318.06 1391.36 L1301.23 1391.36 L1301.23 1391.86 L1284.40 1391.86 L1284.40 1392.60 L1267.57 1392.60 L1267.57 1393.34 L1250.74 1393.34 L1250.74 1394.46 L1233.79 1394.46 L1233.79 1395.94 L1216.96 1395.94 L1216.96 1396.81 L1200.13 1396.81 L1200.13 1398.05 L1183.30 1398.05 L1183.30 1399.04 L1166.47 1399.04 L1166.47 1400.03 L1149.64 1400.03 L1149.64 1401.27 L1132.68 1401.27 L1132.68 1401.88 L1115.85 1401.88 L1115.85 1403.00 L1099.02 1403.00 L1099.02 1404.36 L1082.19 1404.36 L1082.19 1405.23 L1065.36 1405.23 L1065.36 1405.97 L1048.53 1405.97 L1048.53 1407.33 L1031.58 1407.33 L1031.58 1408.44 L1014.75 1408.44 L1014.75 1409.80 L997.92 1409.80 L997.92 1411.29 L981.09 1411.29 L981.09 1412.65 L964.26 1412.65 L964.26 1414.38 L947.31 1414.38 L947.31 1415.99 L930.48 1415.99 L930.48 1418.10 L913.65 1418.10 L913.65 1419.70 L896.82 1419.70 L896.82 1421.31 L879.99 1421.31 L879.99 1423.66 L863.16 1423.66 L863.16 1425.77 L846.20 1425.77 L846.20 1428.49 L829.37 1428.49 L829.37 1431.21 L812.54 1431.21 L812.54 1433.81 L795.71 1433.81 L795.71 1437.28 L778.88 1437.28 L778.88 1486.41 Z" stroke-linejoin="round"/>
	</defs>
	<defs>
		<clipPath id="clipPath_LFvdLlqX">
			<use xlink:href="#path_xlRvezMO"/>
		</clipPath>
	</defs>
	<use xlink:href="#path_xlRvezMO" style="stroke:none;fill:#999999;fill-opacity:0.65"/>
	<use xlink:href="#path_xlRvezMO" style="fill:none;stroke:#808080;stroke-opacity:0.65;stroke-width:17.28" clip-path="url(#clipPath_LFvdLlqX)"/>
	<path d=" M778.76 1461.90 L795.59 1461.90 L795.59 1460.91 L812.54 1460.91 L812.54 1460.54 L829.37 1460.54 L829.37 1459.80 L846.20 1459.80 L846.20 1459.18 L863.03 1459.18 L863.03 1459.06 L879.86 1459.06 L879.86 1458.44 L896.69 1458.44 L896.69 1458.56 L913.65 1458.56 L913.65 1458.69 L930.48 1458.69 L930.48 1458.19 L947.31 1458.19 L947.31 1458.19 L964.14 1458.19 L964.14 1457.82 L980.97 1457.82 L980.97 1457.82 L997.80 1457.82 L997.80 1457.70 L1014.75 1457.70 L1014.75 1457.57 L1031.58 1457.57 L1031.58 1457.70 L1048.41 1457.70 L1048.41 1457.57 L1065.24 1457.57 L1065.24 1457.94 L1082.07 1457.94 L1082.07 1458.19 L1099.02 1458.19 L1099.02 1457.82 L1115.85 1457.82 L1115.85 1457.70 L1132.68 1457.70 L1132.68 1457.94 L1149.51 1457.94 L1149.51 1457.70 L1166.34 1457.70 L1166.34 1457.57 L1183.17 1457.57 L1183.17 1457.45 L1200.13 1457.45 L1200.13 1456.95 L1216.96 1456.95 L1216.96 1456.95 L1233.79 1456.95 L1233.79 1456.21 L1250.62 1456.21 L1250.62 1455.72 L1267.45 1455.72 L1267.45 1455.72 L1284.28 1455.72 L1284.28 1455.72 L1301.23 1455.72 L1301.23 1455.72 L1318.06 1455.72 L1318.06 1456.34 L1334.89 1456.34 L1334.89 1456.71 L1351.72 1456.71 L1351.72 1456.71 L1368.55 1456.71 L1368.55 1456.58 L1385.51 1456.58 L1385.51 1456.46 L1402.34 1456.46 L1402.34 1456.21 L1419.16 1456.21 L1419.16 1456.34 L1435.99 1456.34 L1435.99 1456.21 L1452.83 1456.21 L1452.83 1456.09 L1469.65 1456.09 L1469.65 1455.47 L1486.61 1455.47 L1486.61 1454.97 L1503.44 1454.97 L1503.44 1454.97 L1520.27 1454.97 L1520.27 1454.97 L1537.10 1454.97 L1537.10 1454.73 L1553.93 1454.73 L1553.93 1454.48 L1570.76 1454.48 L1570.76 1454.23 L1587.71 1454.23 L1587.71 1454.60 L1604.54 1454.60 L1604.54 1454.36 L1621.37 1454.36 L1621.37 1453.98 L1638.20 1453.98 L1638.20 1453.98 L1655.03 1453.98 L1655.03 1453.61 L1671.86 1453.61 L1671.86 1453.74 L1688.82 1453.74 L1688.82 1453.61 L1705.65 1453.61 L1705.65 1453.49 L1722.48 1453.49 L1722.48 1453.12 L1739.31 1453.12 L1739.31 1453.37 L1756.14 1453.37 L1756.14 1453.24 L1773.09 1453.24 L1773.09 1452.99 L1789.92 1452.99 L1789.92 1452.87 L1806.75 1452.87 L1806.75 1452.87 L1823.58 1452.87 L1823.58 1452.75 L1840.41 1452.75 L1840.41 1452.62 L1857.24 1452.62 L1857.24 1452.87 L1874.19 1452.87 L1874.19 1453.37 L1891.02 1453.37 L1891.02 1453.12 L1907.85 1453.12 L1907.85 1452.99 L1924.68 1452.99 L1924.68 1453.37 L1941.51 1453.37 L1941.51 1453.24 L1958.34 1453.24 L1958.34 1453.12 L1975.30 1453.12 L1975.30 1453.24 L1992.13 1453.24 L1992.13 1452.62 L2008.96 1452.62 L2008.96 1452.25 L2025.79 1452.25 L2025.79 1451.76 L2042.62 1451.76 L2042.62 1451.88 L2059.45 1451.88 L2059.45 1451.63 L2076.40 1451.63 L2076.40 1451.76 L2093.23 1451.76 L2093.23 1451.76 L2110.06 1451.76 L2110.06 1451.88 L2126.89 1451.88 L2126.89 1451.51 L2143.72 1451.51 L2143.72 1451.01 L2160.68 1451.01 L2160.68 1451.01 L2177.51 1451.01 L2177.51 1451.26 L2194.34 1451.26 L2194.34 1451.14 L2211.16 1451.14 L2211.16 1451.26 L2227.99 1451.26 L2227.99 1451.39 L2244.82 1451.39 L2244.82 1451.63 L2261.78 1451.63 L2261.78 1451.51 L2278.61 1451.51 L2278.61 1451.51 L2295.44 1451.51 L2295.44 1451.51 L2312.27 1451.51 L2312.27 1451.51 L2329.10 1451.51 L2329.10 1451.26 L2345.93 1451.26 L2345.93 1451.51 L2362.88 1451.51 L2362.88 1451.51 L2379.71 1451.51 L2379.71 1451.88 L2396.54 1451.88 L2396.54 1452.13 L2413.37 1452.13 L2413.37 1452.13 L2430.20 1452.13 L2430.20 1451.88 L2447.16 1451.88 L2447.16 1451.76 L2463.99 1451.76 L2463.99 1452.00 L2480.82 1452.00 L2480.82 1451.76 L2497.65 1451.76 L2497.65 1451.39 L2514.48 1451.39 L2514.48 1451.14 L2531.31 1451.14 L2531.31 1450.64 L2548.26 1450.64 L2548.26 1450.64 L2565.09 1450.64 L2565.09 1450.15 L2581.92 1450.15 L2581.92 1450.15 L2598.75 1450.15 L2598.75 1450.02 L2615.58 1450.02 L2615.58 1449.90 L2632.41 1449.90 L2632.41 1450.02 L2649.36 1450.02 L2649.36 1449.90 L2666.19 1449.90 L2666.19 1449.90 L2683.02 1449.90 L2683.02 1449.78 L2699.85 1449.78 L2699.85 1449.90 L2716.68 1449.90 L2716.68 1449.90 L2733.51 1449.90 L2733.51 1450.27 L2750.47 1450.27 L2750.47 1450.02 L2767.30 1450.02 L2767.30 1450.27 L2784.13 1450.27 L2784.13 1450.27 L2800.96 1450.27 L2800.96 1450.15 L2817.79 1450.15 L2817.79 1450.27 L2834.74 1450.27 L2834.74 1450.40 L2851.57 1450.40 L2851.57 1450.64 L2868.40 1450.64 L2868.40 1450.40 L2885.23 1450.40 L2885.23 1450.64 L2902.06 1450.64 L2902.06 1450.77 L2918.89 1450.77 L2918.89 1450.77 L2935.84 1450.77 L2935.84 1450.52 L2952.68 1450.52 L2952.68 1450.40 L2969.51 1450.40 L2969.51 1450.40 L2986.34 1450.40 L2986.34 1450.27 L3003.16 1450.27 L3003.16 1450.77 L3019.99 1450.77 L3019.99 1451.01 L3036.95 1451.01 L3036.95 1450.64 L3053.78 1450.64 L3053.78 1450.64 L3070.61 1450.64 L3070.61 1450.64 L3087.44 1450.64 L3087.44 1450.52 L3104.27 1450.52 L3104.27 1450.77 L3121.10 1450.77 L3121.10 1450.89 L3138.05 1450.89 L3138.05 1451.14 L3154.88 1451.14 L3154.88 1451.26 L3171.71 1451.26 L3171.71 1451.39 L3188.54 1451.39 L3188.54 1451.76 L3205.37 1451.76 L3205.37 1451.76 L3222.33 1451.76 L3222.33 1451.76 L3239.16 1451.76 L3239.16 1452.00 L3255.99 1452.00 L3255.99 1451.76 L3272.82 1451.76 L3272.82 1451.63 L3289.65 1451.63 L3289.65 1451.26 L3306.48 1451.26 L3306.48 1451.26 L3323.43 1451.26 L3323.43 1451.14 L3340.26 1451.14 L3340.26 1451.26 L3357.09 1451.26 L3357.09 1451.14 L3373.92 1451.14 L3373.92 1451.01 L3390.75 1451.01 L3390.75 1451.01 L3407.58 1451.01 L3407.58 1451.14 L3424.53 1451.14 L3424.53 1450.89 L3441.36 1450.89 L3441.36 1451.14 L3458.19 1451.14 L3458.19 1451.39 L3475.02 1451.39 L3475.02 1451.39 L3491.85 1451.39 L3491.85 1451.51 L3508.81 1451.51 L3508.81 1451.63 L3525.64 1451.63 L3525.64 1452.13 L3542.47 1452.13 L3542.47 1452.13 L3559.30 1452.13 L3559.30 1452.00 L3576.13 1452.00 L3576.13 1452.13 L3592.96 1452.13 L3592.96 1452.00 L3609.91 1452.00 L3609.91 1452.38 L3626.74 1452.38 L3626.74 1452.38 L3643.57 1452.38 L3643.57 1452.50 L3660.40 1452.50 L3660.40 1452.13 L3677.23 1452.13 L3677.23 1452.00 L3694.06 1452.00 L3694.06 1452.00 L3711.01 1452.00 L3711.01 1451.88 L3727.84 1451.88 L3727.84 1452.00 L3744.68 1452.00 L3744.68 1452.13 L3761.51 1452.13 L3761.51 1452.38 L3778.34 1452.38 L3778.34 1452.50 L3795.16 1452.50 L3795.16 1452.50" stroke-linejoin="round" style="fill:none;stroke:#000000;stroke-width:8.64"/>
	<line x1="559.10" y1="2509.23" x2="559.10" y2="419.90" style="stroke:#000000;stroke-width:5.76"/>
	<line x1="559.10" y1="2445.87" x2="519.13" y2="2445.87" style="stroke:#000000;stroke-width:5.76"/>
	<text x="499.08" y="2480.90" style="font-family:'Helvetica';font-size:99.99px;fill:#000000" text-anchor="end">-1.00</text>
	<line x1="559.10" y1="2200.59" x2="519.13" y2="2200.59" style="stroke:#000000;stroke-width:5.76"/>
	<text x="499.08" y="2235.62" style="font-family:'Helvetica';font-size:99.99px;fill:#000000" text-anchor="end">-0.75</text>
	<line x1="559.10" y1="1955.19" x2="519.13" y2="1955.19" style="stroke:#000000;stroke-width:5.76"/>
	<text x="499.08" y="1990.22" style="font-family:'Helvetica';font-size:99.99px;fill:#000000" text-anchor="end">-0.50</text>
	<line x1="559.10" y1="1709.91" x2="519.13" y2="1709.91" style="stroke:#000000;stroke-width:5.76"/>
	<text x="499.08" y="1744.94" style="font-family:'Helvetica';font-size:99.99px;fill:#000000" text-anchor="end">-0.25</text>
	<line x1="559.10" y1="1464.63" x2="519.13" y2="1464.63" style="stroke:#000000;stroke-width:5.76"/>
	<text x="499.08" y="1499.66" style="font-family:'Helvetica';font-size:99.99px;fill:#000000" text-anchor="end">0.00</text>
	<line x1="559.10" y1="1219.22" x2="519.13" y2="1219.22" style="stroke:#000000;stroke-width:5.76"/>
	<text x="499.08" y="1254.25" style="font-family:'Helvetica';font-size:99.99px;fill:#000000" text-anchor="end">0.25</text>
	<line x1="559.10" y1="973.94" x2="519.13" y2="973.94" style="stroke:#000000;stroke-width:5.76"/>
	<text x="499.08" y="1008.97" style="font-family:'Helvetica';font-size:99.99px;fill:#000000" text-anchor="end">0.50</text>
	<line x1="559.10" y1="728.66" x2="519.13" y2="728.66" style="stroke:#000000;stroke-width:5.76"/>
	<text x="499.08" y="763.69" style="font-family:'Helvetica';font-size:99.99px;fill:#000000" text-anchor="end">0.75</text>
	<line x1="559.10" y1="483.26" x2="519.13" y2="483.26" style="stroke:#000000;stroke-width:5.76"/>
	<text x="499.08" y="518.29" style="font-family:'Helvetica';font-size:99.99px;fill:#000000" text-anchor="end">1.00</text>
	<text x="190.71" y="1464.63" style="font-family:'Helvetica';font-size:99.99px;fill:#000000" transform="rotate(-90 190.71,1464.63)" text-anchor="middle">Difference in Probabilities</text>
	<line x1="559.10" y1="2509.23" x2="3859.02" y2="2509.23" style="stroke:#000000;stroke-width:5.76"/>
	<line x1="622.46" y1="2509.23" x2="622.46" y2="2549.21" style="stroke:#000000;stroke-width:5.76"/>
	<text x="622.46" y="2625.15" style="font-family:'Helvetica';font-size:79.94px;fill:#000000" text-anchor="middle">0</text>
	<line x1="812.91" y1="2509.23" x2="812.91" y2="2549.21" style="stroke:#000000;stroke-width:5.76"/>
	<text x="812.91" y="2625.15" style="font-family:'Helvetica';font-size:79.94px;fill:#000000" text-anchor="middle">.3</text>
	<line x1="1003.24" y1="2509.23" x2="1003.24" y2="2549.21" style="stroke:#000000;stroke-width:5.76"/>
	<text x="1003.24" y="2625.15" style="font-family:'Helvetica';font-size:79.94px;fill:#000000" text-anchor="middle">.6</text>
	<line x1="1193.69" y1="2509.23" x2="1193.69" y2="2549.21" style="stroke:#000000;stroke-width:5.76"/>
	<text x="1193.69" y="2625.15" style="font-family:'Helvetica';font-size:79.94px;fill:#000000" text-anchor="middle">.9</text>
	<line x1="1384.02" y1="2509.23" x2="1384.02" y2="2549.21" style="stroke:#000000;stroke-width:5.76"/>
	<text x="1384.02" y="2625.15" style="font-family:'Helvetica';font-size:79.94px;fill:#000000" text-anchor="middle">1.2</text>
	<line x1="1574.47" y1="2509.23" x2="1574.47" y2="2549.21" style="stroke:#000000;stroke-width:5.76"/>
	<text x="1574.47" y="2625.15" style="font-family:'Helvetica';font-size:79.94px;fill:#000000" text-anchor="middle">1.5</text>
	<line x1="1764.80" y1="2509.23" x2="1764.80" y2="2549.21" style="stroke:#000000;stroke-width:5.76"/>
	<text x="1764.80" y="2625.15" style="font-family:'Helvetica';font-size:79.94px;fill:#000000" text-anchor="middle">1.8</text>
	<line x1="1955.25" y1="2509.23" x2="1955.25" y2="2549.21" style="stroke:#000000;stroke-width:5.76"/>
	<text x="1955.25" y="2625.15" style="font-family:'Helvetica';font-size:79.94px;fill:#000000" text-anchor="middle">2.1</text>
	<line x1="2145.58" y1="2509.23" x2="2145.58" y2="2549.21" style="stroke:#000000;stroke-width:5.76"/>
	<text x="2145.58" y="2625.15" style="font-family:'Helvetica';font-size:79.94px;fill:#000000" text-anchor="middle">2.4</text>
	<line x1="2336.03" y1="2509.23" x2="2336.03" y2="2549.21" style="stroke:#000000;stroke-width:5.76"/>
	<text x="2336.03" y="2625.15" style="font-family:'Helvetica';font-size:79.94px;fill:#000000" text-anchor="middle">2.7</text>
	<line x1="2526.48" y1="2509.23" x2="2526.48" y2="2549.21" style="stroke:#000000;stroke-width:5.76"/>
	<text x="2526.48" y="2625.15" style="font-family:'Helvetica';font-size:79.94px;fill:#000000" text-anchor="middle">3</text>
	<line x1="2716.81" y1="2509.23" x2="2716.81" y2="2549.21" style="stroke:#000000;stroke-width:5.76"/>
	<text x="2716.81" y="2625.15" style="font-family:'Helvetica';font-size:79.94px;fill:#000000" text-anchor="middle">3.3</text>
	<line x1="2907.26" y1="2509.23" x2="2907.26" y2="2549.21" style="stroke:#000000;stroke-width:5.76"/>
	<text x="2907.26" y="2625.15" style="font-family:'Helvetica';font-size:79.94px;fill:#000000" text-anchor="middle">3.6</text>
	<line x1="3097.59" y1="2509.23" x2="3097.59" y2="2549.21" style="stroke:#000000;stroke-width:5.76"/>
	<text x="3097.59" y="2625.15" style="font-family:'Helvetica';font-size:79.94px;fill:#000000" text-anchor="middle">3.9</text>
	<line x1="3288.04" y1="2509.23" x2="3288.04" y2="2549.21" style="stroke:#000000;stroke-width:5.76"/>
	<text x="3288.04" y="2625.15" style="font-family:'Helvetica';font-size:79.94px;fill:#000000" text-anchor="middle">4.2</text>
	<line x1="3478.36" y1="2509.23" x2="3478.36" y2="2549.21" style="stroke:#000000;stroke-width:5.76"/>
	<text x="3478.36" y="2625.15" style="font-family:'Helvetica';font-size:79.94px;fill:#000000" text-anchor="middle">4.5</text>
	<line x1="3668.82" y1="2509.23" x2="3668.82" y2="2549.21" style="stroke:#000000;stroke-width:5.76"/>
	<text x="3668.82" y="2625.15" style="font-family:'Helvetica';font-size:79.94px;fill:#000000" text-anchor="middle">4.8</text>
	<line x1="3859.14" y1="2509.23" x2="3859.14" y2="2549.21" style="stroke:#000000;stroke-width:5.76"/>
	<text x="3859.14" y="2625.15" style="font-family:'Helvetica';font-size:79.94px;fill:#000000" text-anchor="middle">5.1</text>
	<text x="2209.06" y="2729.16" style="font-family:'Helvetica';font-size:99.99px;fill:#000000" text-anchor="middle">Time (years)</text>
	<rect x="593.63" y="454.42" width="993.34" height="326.46" style="fill:#FFFFFF"/>
	<rect x="596.51" y="457.30" width="987.58" height="320.70" style="fill:none;stroke:#000000;stroke-width:5.76"/>
	<rect x="636.82" y="497.74" width="374.47" height="99.99" style="fill:#999999;fill-opacity:0.65"/>
	<rect x="641.14" y="502.06" width="365.83" height="91.35" style="fill:none;stroke:#808080;stroke-opacity:0.65;stroke-width:8.64"/>
	<line x1="636.82" y1="687.70" x2="1011.28" y2="687.70" style="stroke:#000000;stroke-width:8.64"/>
	<text x="1071.30" y="582.76" style="font-family:'Helvetica';font-size:99.99px;fill:#000000">CI95%</text>
	<text x="1071.30" y="722.73" style="font-family:'Helvetica';font-size:99.99px;fill:#000000">Difference</text>
	<text x="2209.06" y="369.63" style="font-family:'Helvetica';font-size:110.01px;fill:#000000" text-anchor="middle">from 3rd Readmission to 4th Readmission</text>
	<text x="2209.06" y="215.98" style="font-family:'Helvetica';font-size:139.96px;fill:#1E2D53" text-anchor="middle">Difference in Probabilities</text>
</svg>
