<?xml version="1.0" encoding="UTF-8" standalone="no"?>
<!-- This is a Stata 16.1 generated SVG file (http://www.stata.com) -->

<svg version="1.1" width="5.50in" height="4.00in" viewBox="0 0 3960 2880" xmlns="http://www.w3.org/2000/svg" xmlns:xlink="http://www.w3.org/1999/xlink">
	<desc>Stata Graph - diff_mod12_tc</desc>
	<rect x="0" y="0" width="3960" height="2880" style="fill:#EAF2F3;stroke:none"/>
	<rect x="0.00" y="0.00" width="3959.88" height="2880.00" style="fill:#FFFFFF"/>
	<rect x="2.88" y="2.88" width="3954.12" height="2874.24" style="fill:none;stroke:#FFFFFF;stroke-width:5.76"/>
	<rect x="559.10" y="419.90" width="3299.92" height="2089.34" style="fill:#FFFFFF"/>
	<rect x="561.98" y="422.78" width="3294.16" height="2083.58" style="fill:none;stroke:#FFFFFF;stroke-width:5.76"/>
	<line x1="559.10" y1="2249.60" x2="3859.02" y2="2249.60" style="stroke:#EAF2F3;stroke-width:8.64"/>
	<line x1="559.10" y1="2053.32" x2="3859.02" y2="2053.32" style="stroke:#EAF2F3;stroke-width:8.64"/>
	<line x1="559.10" y1="1857.05" x2="3859.02" y2="1857.05" style="stroke:#EAF2F3;stroke-width:8.64"/>
	<line x1="559.10" y1="1660.78" x2="3859.02" y2="1660.78" style="stroke:#EAF2F3;stroke-width:8.64"/>
	<line x1="559.10" y1="1464.63" x2="3859.02" y2="1464.63" style="stroke:#EAF2F3;stroke-width:8.64"/>
	<line x1="559.10" y1="1268.35" x2="3859.02" y2="1268.35" style="stroke:#EAF2F3;stroke-width:8.64"/>
	<line x1="559.10" y1="1072.08" x2="3859.02" y2="1072.08" style="stroke:#EAF2F3;stroke-width:8.64"/>
	<line x1="559.10" y1="875.81" x2="3859.02" y2="875.81" style="stroke:#EAF2F3;stroke-width:8.64"/>
	<line x1="559.10" y1="679.53" x2="3859.02" y2="679.53" style="stroke:#EAF2F3;stroke-width:8.64"/>
	<line x1="559.10" y1="1464.63" x2="3859.02" y2="1464.63" style="stroke:#1A476F;stroke-width:8.64"/>
	<defs>
		<path id="path_moGiqkur" d="M778.88 1440.87 L778.88 1440.87 L795.71 1440.87 L795.71 1434.80 L812.54 1434.80 L812.54 1428.49 L829.37 1428.49 L829.37 1423.05 L846.20 1423.05 L846.20 1417.48 L863.16 1417.48 L863.16 1412.53 L879.99 1412.53 L879.99 1405.97 L896.82 1405.97 L896.82 1401.39 L913.65 1401.39 L913.65 1396.81 L930.48 1396.81 L930.48 1391.36 L947.31 1391.36 L947.31 1385.30 L964.26 1385.30 L964.26 1379.24 L981.09 1379.24 L981.09 1374.41 L997.92 1374.41 L997.92 1371.19 L1014.75 1371.19 L1014.75 1367.48 L1031.58 1367.48 L1031.58 1364.63 L1048.53 1364.63 L1048.53 1360.18 L1065.36 1360.18 L1065.36 1356.84 L1082.19 1356.84 L1082.19 1352.88 L1099.02 1352.88 L1099.02 1348.30 L1115.85 1348.30 L1115.85 1344.71 L1132.68 1344.71 L1132.68 1341.49 L1149.64 1341.49 L1149.64 1337.66 L1166.47 1337.66 L1166.47 1335.06 L1183.30 1335.06 L1183.30 1331.59 L1200.13 1331.59 L1200.13 1328.00 L1216.96 1328.00 L1216.96 1323.30 L1233.79 1323.30 L1233.79 1319.09 L1250.74 1319.09 L1250.74 1316.25 L1267.57 1316.25 L1267.57 1313.52 L1284.40 1313.52 L1284.40 1310.06 L1301.23 1310.06 L1301.23 1306.59 L1318.06 1306.59 L1318.06 1304.24 L1334.89 1304.24 L1334.89 1302.76 L1351.85 1302.76 L1351.85 1298.67 L1368.67 1298.67 L1368.67 1295.95 L1385.51 1295.95 L1385.51 1295.21 L1402.34 1295.21 L1402.34 1294.34 L1419.16 1294.34 L1419.16 1292.49 L1436.12 1292.49 L1436.12 1289.76 L1452.95 1289.76 L1452.95 1287.29 L1469.78 1287.29 L1469.78 1285.68 L1486.61 1285.68 L1486.61 1284.19 L1503.44 1284.19 L1503.44 1283.70 L1520.27 1283.70 L1520.27 1282.21 L1537.22 1282.21 L1537.22 1281.97 L1554.05 1281.97 L1554.05 1280.61 L1570.88 1280.61 L1570.88 1279.37 L1587.71 1279.37 L1587.71 1276.52 L1604.54 1276.52 L1604.54 1275.28 L1621.37 1275.28 L1621.37 1274.54 L1638.33 1274.54 L1638.33 1272.19 L1655.16 1272.19 L1655.16 1270.21 L1671.99 1270.21 L1671.99 1269.22 L1688.82 1269.22 L1688.82 1267.49 L1705.65 1267.49 L1705.65 1267.61 L1722.48 1267.61 L1722.48 1265.63 L1739.43 1265.63 L1739.43 1265.75 L1756.26 1265.75 L1756.26 1265.14 L1773.09 1265.14 L1773.09 1263.40 L1789.92 1263.40 L1789.92 1262.66 L1806.75 1262.66 L1806.75 1261.67 L1823.70 1261.67 L1823.70 1260.93 L1840.53 1260.93 L1840.53 1260.19 L1857.36 1260.19 L1857.36 1259.07 L1874.19 1259.07 L1874.19 1257.96 L1891.02 1257.96 L1891.02 1256.10 L1907.85 1256.10 L1907.85 1255.61 L1924.81 1255.61 L1924.81 1255.11 L1941.64 1255.11 L1941.64 1255.48 L1958.47 1255.48 L1958.47 1254.99 L1975.30 1254.99 L1975.30 1255.85 L1992.13 1255.85 L1992.13 1255.24 L2008.96 1255.24 L2008.96 1254.99 L2025.91 1254.99 L2025.91 1254.74 L2042.74 1254.74 L2042.74 1255.24 L2059.57 1255.24 L2059.57 1254.25 L2076.40 1254.25 L2076.40 1253.01 L2093.23 1253.01 L2093.23 1253.26 L2110.18 1253.26 L2110.18 1252.88 L2127.01 1252.88 L2127.01 1253.13 L2143.84 1253.13 L2143.84 1253.01 L2160.68 1253.01 L2160.68 1253.38 L2177.51 1253.38 L2177.51 1252.51 L2194.34 1252.51 L2194.34 1252.14 L2211.29 1252.14 L2211.29 1252.14 L2228.12 1252.14 L2228.12 1252.51 L2244.95 1252.51 L2244.95 1252.39 L2261.78 1252.39 L2261.78 1251.89 L2278.61 1251.89 L2278.61 1252.27 L2295.44 1252.27 L2295.44 1252.88 L2312.39 1252.88 L2312.39 1253.01 L2329.22 1253.01 L2329.22 1253.26 L2346.05 1253.26 L2346.05 1253.13 L2362.88 1253.13 L2362.88 1253.50 L2379.71 1253.50 L2379.71 1254.00 L2396.54 1254.00 L2396.54 1254.49 L2413.50 1254.49 L2413.50 1254.25 L2430.33 1254.25 L2430.33 1254.00 L2447.16 1254.00 L2447.16 1254.49 L2463.99 1254.49 L2463.99 1254.25 L2480.82 1254.25 L2480.82 1254.49 L2497.77 1254.49 L2497.77 1254.37 L2514.60 1254.37 L2514.60 1255.61 L2531.43 1255.61 L2531.43 1255.73 L2548.26 1255.73 L2548.26 1255.73 L2565.09 1255.73 L2565.09 1256.47 L2581.92 1256.47 L2581.92 1255.98 L2598.87 1255.98 L2598.87 1256.60 L2615.70 1256.60 L2615.70 1256.60 L2632.53 1256.60 L2632.53 1256.84 L2649.36 1256.84 L2649.36 1257.71 L2666.19 1257.71 L2666.19 1256.10 L2683.02 1256.10 L2683.02 1256.35 L2699.98 1256.35 L2699.98 1256.10 L2716.81 1256.10 L2716.81 1256.47 L2733.64 1256.47 L2733.64 1257.59 L2750.47 1257.59 L2750.47 1257.09 L2767.30 1257.09 L2767.30 1257.34 L2784.25 1257.34 L2784.25 1257.83 L2801.08 1257.83 L2801.08 1258.70 L2817.91 1258.70 L2817.91 1259.32 L2834.74 1259.32 L2834.74 1258.95 L2851.57 1258.95 L2851.57 1258.95 L2868.40 1258.95 L2868.40 1258.21 L2885.36 1258.21 L2885.36 1258.33 L2902.18 1258.33 L2902.18 1258.95 L2919.01 1258.95 L2919.01 1259.32 L2935.84 1259.32 L2935.84 1258.95 L2952.68 1258.95 L2952.68 1259.69 L2969.51 1259.69 L2969.51 1259.20 L2986.46 1259.20 L2986.46 1258.58 L3003.29 1258.58 L3003.29 1258.33 L3020.12 1258.33 L3020.12 1257.22 L3036.95 1257.22 L3036.95 1257.34 L3053.78 1257.34 L3053.78 1258.70 L3070.61 1258.70 L3070.61 1258.45 L3087.56 1258.45 L3087.56 1258.58 L3104.39 1258.58 L3104.39 1258.45 L3121.22 1258.45 L3121.22 1258.95 L3138.05 1258.95 L3138.05 1259.44 L3154.88 1259.44 L3154.88 1259.32 L3171.84 1259.32 L3171.84 1260.93 L3188.67 1260.93 L3188.67 1259.81 L3205.50 1259.81 L3205.50 1260.19 L3222.33 1260.19 L3222.33 1261.30 L3239.16 1261.30 L3239.16 1262.29 L3255.99 1262.29 L3255.99 1262.66 L3272.94 1262.66 L3272.94 1263.65 L3289.77 1263.65 L3289.77 1263.90 L3306.60 1263.90 L3306.60 1264.27 L3323.43 1264.27 L3323.43 1264.64 L3340.26 1264.64 L3340.26 1265.38 L3357.09 1265.38 L3357.09 1266.00 L3374.04 1266.00 L3374.04 1265.14 L3390.87 1265.14 L3390.87 1266.74 L3407.70 1266.74 L3407.70 1266.87 L3424.53 1266.87 L3424.53 1268.23 L3441.36 1268.23 L3441.36 1267.73 L3458.19 1267.73 L3458.19 1269.10 L3475.15 1269.10 L3475.15 1268.35 L3491.98 1268.35 L3491.98 1268.85 L3508.81 1268.85 L3508.81 1270.46 L3525.64 1270.46 L3525.64 1271.45 L3542.47 1271.45 L3542.47 1272.44 L3559.42 1272.44 L3559.42 1272.68 L3576.25 1272.68 L3576.25 1272.81 L3593.08 1272.81 L3593.08 1272.31 L3609.91 1272.31 L3609.91 1273.92 L3626.74 1273.92 L3626.74 1273.30 L3643.57 1273.30 L3643.57 1273.55 L3660.53 1273.55 L3660.53 1274.17 L3677.36 1274.17 L3677.36 1275.41 L3694.18 1275.41 L3694.18 1274.91 L3711.01 1274.91 L3711.01 1274.79 L3727.84 1274.79 L3727.84 1275.78 L3744.68 1275.78 L3744.68 1276.03 L3761.63 1276.03 L3761.63 1277.26 L3778.46 1277.26 L3778.46 1276.89 L3795.29 1276.89 L3795.29 1276.40 L3795.29 1212.79 L3795.29 1213.41 L3778.46 1213.41 L3778.46 1213.78 L3761.63 1213.78 L3761.63 1212.54 L3744.68 1212.54 L3744.68 1212.29 L3727.84 1212.29 L3727.84 1211.43 L3711.01 1211.43 L3711.01 1211.67 L3694.18 1211.67 L3694.18 1212.29 L3677.36 1212.29 L3677.36 1211.06 L3660.53 1211.06 L3660.53 1210.68 L3643.57 1210.68 L3643.57 1210.56 L3626.74 1210.56 L3626.74 1211.18 L3609.91 1211.18 L3609.91 1209.82 L3593.08 1209.82 L3593.08 1210.31 L3576.25 1210.31 L3576.25 1210.19 L3559.42 1210.19 L3559.42 1210.07 L3542.47 1210.07 L3542.47 1209.20 L3525.64 1209.20 L3525.64 1208.21 L3508.81 1208.21 L3508.81 1206.72 L3491.98 1206.72 L3491.98 1206.23 L3475.15 1206.23 L3475.15 1206.97 L3458.19 1206.97 L3458.19 1205.61 L3441.36 1205.61 L3441.36 1206.23 L3424.53 1206.23 L3424.53 1204.99 L3407.70 1204.99 L3407.70 1204.74 L3390.87 1204.74 L3390.87 1203.26 L3374.04 1203.26 L3374.04 1204.13 L3357.09 1204.13 L3357.09 1203.51 L3340.26 1203.51 L3340.26 1202.76 L3323.43 1202.76 L3323.43 1202.39 L3306.60 1202.39 L3306.60 1202.15 L3289.77 1202.15 L3289.77 1202.02 L3272.94 1202.02 L3272.94 1201.16 L3255.99 1201.16 L3255.99 1200.78 L3239.16 1200.78 L3239.16 1199.67 L3222.33 1199.67 L3222.33 1198.56 L3205.50 1198.56 L3205.50 1198.43 L3188.67 1198.43 L3188.67 1199.42 L3171.84 1199.42 L3171.84 1197.94 L3154.88 1197.94 L3154.88 1198.06 L3138.05 1198.06 L3138.05 1197.57 L3121.22 1197.57 L3121.22 1197.19 L3104.39 1197.19 L3104.39 1197.44 L3087.56 1197.44 L3087.56 1197.44 L3070.61 1197.44 L3070.61 1197.57 L3053.78 1197.57 L3053.78 1196.33 L3036.95 1196.33 L3036.95 1196.33 L3020.12 1196.33 L3020.12 1197.57 L3003.29 1197.57 L3003.29 1197.94 L2986.46 1197.94 L2986.46 1198.68 L2969.51 1198.68 L2969.51 1199.05 L2952.68 1199.05 L2952.68 1198.68 L2935.84 1198.68 L2935.84 1199.30 L2919.01 1199.30 L2919.01 1198.80 L2902.18 1198.80 L2902.18 1198.18 L2885.36 1198.18 L2885.36 1198.18 L2868.40 1198.18 L2868.40 1198.93 L2851.57 1198.93 L2851.57 1198.93 L2834.74 1198.93 L2834.74 1199.42 L2817.91 1199.42 L2817.91 1198.93 L2801.08 1198.93 L2801.08 1198.18 L2784.25 1198.18 L2784.25 1197.81 L2767.30 1197.81 L2767.30 1197.69 L2750.47 1197.69 L2750.47 1198.31 L2733.64 1198.31 L2733.64 1197.19 L2716.81 1197.19 L2716.81 1196.95 L2699.98 1196.95 L2699.98 1197.32 L2683.02 1197.32 L2683.02 1196.95 L2666.19 1196.95 L2666.19 1198.68 L2649.36 1198.68 L2649.36 1197.94 L2632.53 1197.94 L2632.53 1197.81 L2615.70 1197.81 L2615.70 1197.94 L2598.87 1197.94 L2598.87 1197.44 L2581.92 1197.44 L2581.92 1198.06 L2565.09 1198.06 L2565.09 1197.32 L2548.26 1197.32 L2548.26 1197.57 L2531.43 1197.57 L2531.43 1197.44 L2514.60 1197.44 L2514.60 1196.33 L2497.77 1196.33 L2497.77 1196.58 L2480.82 1196.58 L2480.82 1196.45 L2463.99 1196.45 L2463.99 1196.82 L2447.16 1196.82 L2447.16 1196.45 L2430.33 1196.45 L2430.33 1196.70 L2413.50 1196.70 L2413.50 1196.95 L2396.54 1196.95 L2396.54 1196.70 L2379.71 1196.70 L2379.71 1196.45 L2362.88 1196.45 L2362.88 1196.20 L2346.05 1196.20 L2346.05 1196.45 L2329.22 1196.45 L2329.22 1196.45 L2312.39 1196.45 L2312.39 1196.45 L2295.44 1196.45 L2295.44 1195.96 L2278.61 1195.96 L2278.61 1195.59 L2261.78 1195.59 L2261.78 1196.45 L2244.95 1196.45 L2244.95 1196.82 L2228.12 1196.82 L2228.12 1196.58 L2211.29 1196.58 L2211.29 1196.58 L2194.34 1196.58 L2194.34 1197.19 L2177.51 1197.19 L2177.51 1198.18 L2160.68 1198.18 L2160.68 1197.81 L2143.84 1197.81 L2143.84 1198.18 L2127.01 1198.18 L2127.01 1198.06 L2110.18 1198.06 L2110.18 1198.68 L2093.23 1198.68 L2093.23 1198.68 L2076.40 1198.68 L2076.40 1199.92 L2059.57 1199.92 L2059.57 1201.03 L2042.74 1201.03 L2042.74 1200.78 L2025.91 1200.78 L2025.91 1201.16 L2008.96 1201.16 L2008.96 1201.40 L1992.13 1201.40 L1992.13 1202.15 L1975.30 1202.15 L1975.30 1201.40 L1958.47 1201.40 L1958.47 1202.15 L1941.64 1202.15 L1941.64 1202.02 L1924.81 1202.02 L1924.81 1202.76 L1907.85 1202.76 L1907.85 1203.38 L1891.02 1203.38 L1891.02 1205.24 L1874.19 1205.24 L1874.19 1206.48 L1857.36 1206.48 L1857.36 1208.09 L1840.53 1208.09 L1840.53 1208.83 L1823.70 1208.83 L1823.70 1209.94 L1806.75 1209.94 L1806.75 1211.06 L1789.92 1211.06 L1789.92 1212.17 L1773.09 1212.17 L1773.09 1214.15 L1756.26 1214.15 L1756.26 1215.02 L1739.43 1215.02 L1739.43 1215.14 L1722.48 1215.14 L1722.48 1217.24 L1705.65 1217.24 L1705.65 1217.49 L1688.82 1217.49 L1688.82 1219.72 L1671.99 1219.72 L1671.99 1220.96 L1655.16 1220.96 L1655.16 1223.18 L1638.33 1223.18 L1638.33 1225.78 L1621.37 1225.78 L1621.37 1226.90 L1604.54 1226.90 L1604.54 1228.50 L1587.71 1228.50 L1587.71 1231.60 L1570.88 1231.60 L1570.88 1233.08 L1554.05 1233.08 L1554.05 1234.69 L1537.22 1234.69 L1537.22 1235.31 L1520.27 1235.31 L1520.27 1237.04 L1503.44 1237.04 L1503.44 1237.91 L1486.61 1237.91 L1486.61 1239.89 L1469.78 1239.89 L1469.78 1241.75 L1452.95 1241.75 L1452.95 1244.72 L1436.12 1244.72 L1436.12 1247.81 L1419.16 1247.81 L1419.16 1250.16 L1402.34 1250.16 L1402.34 1251.52 L1385.51 1251.52 L1385.51 1252.88 L1368.67 1252.88 L1368.67 1255.98 L1351.85 1255.98 L1351.85 1260.43 L1334.89 1260.43 L1334.89 1262.54 L1318.06 1262.54 L1318.06 1265.38 L1301.23 1265.38 L1301.23 1269.34 L1284.40 1269.34 L1284.40 1273.30 L1267.57 1273.30 L1267.57 1276.52 L1250.74 1276.52 L1250.74 1279.99 L1233.79 1279.99 L1233.79 1284.81 L1216.96 1284.81 L1216.96 1290.13 L1200.13 1290.13 L1200.13 1294.22 L1183.30 1294.22 L1183.30 1298.55 L1166.47 1298.55 L1166.47 1301.89 L1149.64 1301.89 L1149.64 1306.59 L1132.68 1306.59 L1132.68 1310.43 L1115.85 1310.43 L1115.85 1314.88 L1099.02 1314.88 L1099.02 1320.08 L1082.19 1320.08 L1082.19 1325.03 L1065.36 1325.03 L1065.36 1329.12 L1048.53 1329.12 L1048.53 1334.56 L1031.58 1334.56 L1031.58 1338.15 L1014.75 1338.15 L1014.75 1342.61 L997.92 1342.61 L997.92 1346.81 L981.09 1346.81 L981.09 1352.63 L964.26 1352.63 L964.26 1359.93 L947.31 1359.93 L947.31 1367.23 L930.48 1367.23 L930.48 1373.92 L913.65 1373.92 L913.65 1379.73 L896.82 1379.73 L896.82 1385.55 L879.99 1385.55 L879.99 1393.47 L863.16 1393.47 L863.16 1399.90 L846.20 1399.90 L846.20 1406.96 L829.37 1406.96 L829.37 1413.52 L812.54 1413.52 L812.54 1421.44 L795.71 1421.44 L795.71 1429.11 L778.88 1429.11 L778.88 1440.87 Z" stroke-linejoin="round"/>
	</defs>
	<defs>
		<clipPath id="clipPath_ElDtakOq">
			<use xlink:href="#path_moGiqkur"/>
		</clipPath>
	</defs>
	<use xlink:href="#path_moGiqkur" style="stroke:none;fill:#999999;fill-opacity:0.65"/>
	<use xlink:href="#path_moGiqkur" style="fill:none;stroke:#808080;stroke-opacity:0.65;stroke-width:17.28" clip-path="url(#clipPath_ElDtakOq)"/>
	<path d=" M778.76 1435.05 L795.59 1435.05 L795.59 1428.12 L812.54 1428.12 L812.54 1421.07 L829.37 1421.07 L829.37 1415.00 L846.20 1415.00 L846.20 1408.81 L863.03 1408.81 L863.03 1403.00 L879.86 1403.00 L879.86 1395.82 L896.69 1395.82 L896.69 1390.62 L913.65 1390.62 L913.65 1385.42 L930.48 1385.42 L930.48 1379.36 L947.31 1379.36 L947.31 1372.68 L964.14 1372.68 L964.14 1366.00 L980.97 1366.00 L980.97 1360.67 L997.80 1360.67 L997.80 1356.96 L1014.75 1356.96 L1014.75 1352.88 L1031.58 1352.88 L1031.58 1349.66 L1048.41 1349.66 L1048.41 1344.71 L1065.24 1344.71 L1065.24 1341.00 L1082.07 1341.00 L1082.07 1336.54 L1099.02 1336.54 L1099.02 1331.59 L1115.85 1331.59 L1115.85 1327.63 L1132.68 1327.63 L1132.68 1324.04 L1149.51 1324.04 L1149.51 1319.83 L1166.34 1319.83 L1166.34 1316.86 L1183.17 1316.86 L1183.17 1312.90 L1200.13 1312.90 L1200.13 1309.07 L1216.96 1309.07 L1216.96 1304.12 L1233.79 1304.12 L1233.79 1299.66 L1250.62 1299.66 L1250.62 1296.45 L1267.45 1296.45 L1267.45 1293.48 L1284.28 1293.48 L1284.28 1289.76 L1301.23 1289.76 L1301.23 1286.05 L1318.06 1286.05 L1318.06 1283.45 L1334.89 1283.45 L1334.89 1281.72 L1351.72 1281.72 L1351.72 1277.39 L1368.55 1277.39 L1368.55 1274.54 L1385.51 1274.54 L1385.51 1273.43 L1402.34 1273.43 L1402.34 1272.31 L1419.16 1272.31 L1419.16 1270.21 L1435.99 1270.21 L1435.99 1267.24 L1452.83 1267.24 L1452.83 1264.64 L1469.65 1264.64 L1469.65 1262.78 L1486.61 1262.78 L1486.61 1261.05 L1503.44 1261.05 L1503.44 1260.43 L1520.27 1260.43 L1520.27 1258.82 L1537.10 1258.82 L1537.10 1258.33 L1553.93 1258.33 L1553.93 1256.97 L1570.76 1256.97 L1570.76 1255.48 L1587.71 1255.48 L1587.71 1252.64 L1604.54 1252.64 L1604.54 1251.15 L1621.37 1251.15 L1621.37 1250.29 L1638.20 1250.29 L1638.20 1247.81 L1655.03 1247.81 L1655.03 1245.71 L1671.86 1245.71 L1671.86 1244.59 L1688.82 1244.59 L1688.82 1242.49 L1705.65 1242.49 L1705.65 1242.49 L1722.48 1242.49 L1722.48 1240.51 L1739.31 1240.51 L1739.31 1240.39 L1756.14 1240.39 L1756.14 1239.64 L1773.09 1239.64 L1773.09 1237.79 L1789.92 1237.79 L1789.92 1236.92 L1806.75 1236.92 L1806.75 1235.81 L1823.58 1235.81 L1823.58 1234.94 L1840.41 1234.94 L1840.41 1234.20 L1857.24 1234.20 L1857.24 1232.84 L1874.19 1232.84 L1874.19 1231.60 L1891.02 1231.60 L1891.02 1229.74 L1907.85 1229.74 L1907.85 1229.25 L1924.68 1229.25 L1924.68 1228.63 L1941.51 1228.63 L1941.51 1228.88 L1958.34 1228.88 L1958.34 1228.26 L1975.30 1228.26 L1975.30 1229.00 L1992.13 1229.00 L1992.13 1228.38 L2008.96 1228.38 L2008.96 1228.13 L2025.79 1228.13 L2025.79 1227.76 L2042.62 1227.76 L2042.62 1228.26 L2059.45 1228.26 L2059.45 1227.14 L2076.40 1227.14 L2076.40 1225.91 L2093.23 1225.91 L2093.23 1226.03 L2110.06 1226.03 L2110.06 1225.53 L2126.89 1225.53 L2126.89 1225.66 L2143.72 1225.66 L2143.72 1225.53 L2160.68 1225.53 L2160.68 1225.78 L2177.51 1225.78 L2177.51 1224.92 L2194.34 1224.92 L2194.34 1224.42 L2211.16 1224.42 L2211.16 1224.42 L2227.99 1224.42 L2227.99 1224.67 L2244.82 1224.67 L2244.82 1224.54 L2261.78 1224.54 L2261.78 1223.80 L2278.61 1223.80 L2278.61 1224.17 L2295.44 1224.17 L2295.44 1224.67 L2312.27 1224.67 L2312.27 1224.79 L2329.10 1224.79 L2329.10 1224.92 L2345.93 1224.92 L2345.93 1224.67 L2362.88 1224.67 L2362.88 1225.04 L2379.71 1225.04 L2379.71 1225.41 L2396.54 1225.41 L2396.54 1225.78 L2413.37 1225.78 L2413.37 1225.53 L2430.20 1225.53 L2430.20 1225.29 L2447.16 1225.29 L2447.16 1225.66 L2463.99 1225.66 L2463.99 1225.41 L2480.82 1225.41 L2480.82 1225.53 L2497.65 1225.53 L2497.65 1225.41 L2514.48 1225.41 L2514.48 1226.52 L2531.31 1226.52 L2531.31 1226.65 L2548.26 1226.65 L2548.26 1226.52 L2565.09 1226.52 L2565.09 1227.27 L2581.92 1227.27 L2581.92 1226.77 L2598.75 1226.77 L2598.75 1227.39 L2615.58 1227.39 L2615.58 1227.27 L2632.41 1227.27 L2632.41 1227.39 L2649.36 1227.39 L2649.36 1228.26 L2666.19 1228.26 L2666.19 1226.52 L2683.02 1226.52 L2683.02 1226.90 L2699.85 1226.90 L2699.85 1226.52 L2716.68 1226.52 L2716.68 1226.90 L2733.51 1226.90 L2733.51 1228.01 L2750.47 1228.01 L2750.47 1227.39 L2767.30 1227.39 L2767.30 1227.64 L2784.13 1227.64 L2784.13 1228.13 L2800.96 1228.13 L2800.96 1228.75 L2817.79 1228.75 L2817.79 1229.37 L2834.74 1229.37 L2834.74 1229.00 L2851.57 1229.00 L2851.57 1229.00 L2868.40 1229.00 L2868.40 1228.26 L2885.23 1228.26 L2885.23 1228.26 L2902.06 1228.26 L2902.06 1229.00 L2918.89 1229.00 L2918.89 1229.37 L2935.84 1229.37 L2935.84 1228.88 L2952.68 1228.88 L2952.68 1229.49 L2969.51 1229.49 L2969.51 1229.00 L2986.34 1229.00 L2986.34 1228.38 L3003.16 1228.38 L3003.16 1228.01 L3019.99 1228.01 L3019.99 1226.77 L3036.95 1226.77 L3036.95 1226.90 L3053.78 1226.90 L3053.78 1228.13 L3070.61 1228.13 L3070.61 1228.01 L3087.44 1228.01 L3087.44 1228.13 L3104.27 1228.13 L3104.27 1227.89 L3121.10 1227.89 L3121.10 1228.26 L3138.05 1228.26 L3138.05 1228.75 L3154.88 1228.75 L3154.88 1228.63 L3171.71 1228.63 L3171.71 1230.24 L3188.54 1230.24 L3188.54 1229.12 L3205.37 1229.12 L3205.37 1229.49 L3222.33 1229.49 L3222.33 1230.48 L3239.16 1230.48 L3239.16 1231.60 L3255.99 1231.60 L3255.99 1231.97 L3272.82 1231.97 L3272.82 1232.96 L3289.65 1232.96 L3289.65 1233.08 L3306.48 1233.08 L3306.48 1233.33 L3323.43 1233.33 L3323.43 1233.83 L3340.26 1233.83 L3340.26 1234.44 L3357.09 1234.44 L3357.09 1235.19 L3373.92 1235.19 L3373.92 1234.32 L3390.75 1234.32 L3390.75 1235.81 L3407.58 1235.81 L3407.58 1236.05 L3424.53 1236.05 L3424.53 1237.29 L3441.36 1237.29 L3441.36 1236.80 L3458.19 1236.80 L3458.19 1238.03 L3475.02 1238.03 L3475.02 1237.29 L3491.85 1237.29 L3491.85 1237.79 L3508.81 1237.79 L3508.81 1239.39 L3525.64 1239.39 L3525.64 1240.39 L3542.47 1240.39 L3542.47 1241.25 L3559.30 1241.25 L3559.30 1241.50 L3576.13 1241.50 L3576.13 1241.62 L3592.96 1241.62 L3592.96 1241.13 L3609.91 1241.13 L3609.91 1242.61 L3626.74 1242.61 L3626.74 1241.99 L3643.57 1241.99 L3643.57 1242.12 L3660.40 1242.12 L3660.40 1242.74 L3677.23 1242.74 L3677.23 1243.97 L3694.06 1243.97 L3694.06 1243.36 L3711.01 1243.36 L3711.01 1243.11 L3727.84 1243.11 L3727.84 1244.10 L3744.68 1244.10 L3744.68 1244.22 L3761.51 1244.22 L3761.51 1245.58 L3778.34 1245.58 L3778.34 1245.21 L3795.16 1245.21 L3795.16 1244.59" stroke-linejoin="round" style="fill:none;stroke:#000000;stroke-width:8.64"/>
	<line x1="559.10" y1="2509.23" x2="559.10" y2="419.90" style="stroke:#000000;stroke-width:5.76"/>
	<line x1="559.10" y1="2445.87" x2="519.13" y2="2445.87" style="stroke:#000000;stroke-width:5.76"/>
	<text x="499.08" y="2480.90" style="font-family:'Helvetica';font-size:99.99px;fill:#000000" text-anchor="end">-0.25</text>
	<line x1="559.10" y1="2249.60" x2="519.13" y2="2249.60" style="stroke:#000000;stroke-width:5.76"/>
	<text x="499.08" y="2284.63" style="font-family:'Helvetica';font-size:99.99px;fill:#000000" text-anchor="end">-0.20</text>
	<line x1="559.10" y1="2053.32" x2="519.13" y2="2053.32" style="stroke:#000000;stroke-width:5.76"/>
	<text x="499.08" y="2088.35" style="font-family:'Helvetica';font-size:99.99px;fill:#000000" text-anchor="end">-0.15</text>
	<line x1="559.10" y1="1857.05" x2="519.13" y2="1857.05" style="stroke:#000000;stroke-width:5.76"/>
	<text x="499.08" y="1892.08" style="font-family:'Helvetica';font-size:99.99px;fill:#000000" text-anchor="end">-0.10</text>
	<line x1="559.10" y1="1660.78" x2="519.13" y2="1660.78" style="stroke:#000000;stroke-width:5.76"/>
	<text x="499.08" y="1695.81" style="font-family:'Helvetica';font-size:99.99px;fill:#000000" text-anchor="end">-0.05</text>
	<line x1="559.10" y1="1464.63" x2="519.13" y2="1464.63" style="stroke:#000000;stroke-width:5.76"/>
	<text x="499.08" y="1499.66" style="font-family:'Helvetica';font-size:99.99px;fill:#000000" text-anchor="end">0.00</text>
	<line x1="559.10" y1="1268.35" x2="519.13" y2="1268.35" style="stroke:#000000;stroke-width:5.76"/>
	<text x="499.08" y="1303.38" style="font-family:'Helvetica';font-size:99.99px;fill:#000000" text-anchor="end">0.05</text>
	<line x1="559.10" y1="1072.08" x2="519.13" y2="1072.08" style="stroke:#000000;stroke-width:5.76"/>
	<text x="499.08" y="1107.11" style="font-family:'Helvetica';font-size:99.99px;fill:#000000" text-anchor="end">0.10</text>
	<line x1="559.10" y1="875.81" x2="519.13" y2="875.81" style="stroke:#000000;stroke-width:5.76"/>
	<text x="499.08" y="910.83" style="font-family:'Helvetica';font-size:99.99px;fill:#000000" text-anchor="end">0.15</text>
	<line x1="559.10" y1="679.53" x2="519.13" y2="679.53" style="stroke:#000000;stroke-width:5.76"/>
	<text x="499.08" y="714.56" style="font-family:'Helvetica';font-size:99.99px;fill:#000000" text-anchor="end">0.20</text>
	<line x1="559.10" y1="483.26" x2="519.13" y2="483.26" style="stroke:#000000;stroke-width:5.76"/>
	<text x="499.08" y="518.29" style="font-family:'Helvetica';font-size:99.99px;fill:#000000" text-anchor="end">0.25</text>
	<text x="190.71" y="1464.63" style="font-family:'Helvetica';font-size:99.99px;fill:#000000" transform="rotate(-90 190.71,1464.63)" text-anchor="middle">Difference in Probabilities</text>
	<line x1="559.10" y1="2509.23" x2="3859.02" y2="2509.23" style="stroke:#000000;stroke-width:5.76"/>
	<line x1="622.46" y1="2509.23" x2="622.46" y2="2549.21" style="stroke:#000000;stroke-width:5.76"/>
	<text x="622.46" y="2625.15" style="font-family:'Helvetica';font-size:79.94px;fill:#000000" text-anchor="middle">0</text>
	<line x1="812.91" y1="2509.23" x2="812.91" y2="2549.21" style="stroke:#000000;stroke-width:5.76"/>
	<text x="812.91" y="2625.15" style="font-family:'Helvetica';font-size:79.94px;fill:#000000" text-anchor="middle">.3</text>
	<line x1="1003.24" y1="2509.23" x2="1003.24" y2="2549.21" style="stroke:#000000;stroke-width:5.76"/>
	<text x="1003.24" y="2625.15" style="font-family:'Helvetica';font-size:79.94px;fill:#000000" text-anchor="middle">.6</text>
	<line x1="1193.69" y1="2509.23" x2="1193.69" y2="2549.21" style="stroke:#000000;stroke-width:5.76"/>
	<text x="1193.69" y="2625.15" style="font-family:'Helvetica';font-size:79.94px;fill:#000000" text-anchor="middle">.9</text>
	<line x1="1384.02" y1="2509.23" x2="1384.02" y2="2549.21" style="stroke:#000000;stroke-width:5.76"/>
	<text x="1384.02" y="2625.15" style="font-family:'Helvetica';font-size:79.94px;fill:#000000" text-anchor="middle">1.2</text>
	<line x1="1574.47" y1="2509.23" x2="1574.47" y2="2549.21" style="stroke:#000000;stroke-width:5.76"/>
	<text x="1574.47" y="2625.15" style="font-family:'Helvetica';font-size:79.94px;fill:#000000" text-anchor="middle">1.5</text>
	<line x1="1764.80" y1="2509.23" x2="1764.80" y2="2549.21" style="stroke:#000000;stroke-width:5.76"/>
	<text x="1764.80" y="2625.15" style="font-family:'Helvetica';font-size:79.94px;fill:#000000" text-anchor="middle">1.8</text>
	<line x1="1955.25" y1="2509.23" x2="1955.25" y2="2549.21" style="stroke:#000000;stroke-width:5.76"/>
	<text x="1955.25" y="2625.15" style="font-family:'Helvetica';font-size:79.94px;fill:#000000" text-anchor="middle">2.1</text>
	<line x1="2145.58" y1="2509.23" x2="2145.58" y2="2549.21" style="stroke:#000000;stroke-width:5.76"/>
	<text x="2145.58" y="2625.15" style="font-family:'Helvetica';font-size:79.94px;fill:#000000" text-anchor="middle">2.4</text>
	<line x1="2336.03" y1="2509.23" x2="2336.03" y2="2549.21" style="stroke:#000000;stroke-width:5.76"/>
	<text x="2336.03" y="2625.15" style="font-family:'Helvetica';font-size:79.94px;fill:#000000" text-anchor="middle">2.7</text>
	<line x1="2526.48" y1="2509.23" x2="2526.48" y2="2549.21" style="stroke:#000000;stroke-width:5.76"/>
	<text x="2526.48" y="2625.15" style="font-family:'Helvetica';font-size:79.94px;fill:#000000" text-anchor="middle">3</text>
	<line x1="2716.81" y1="2509.23" x2="2716.81" y2="2549.21" style="stroke:#000000;stroke-width:5.76"/>
	<text x="2716.81" y="2625.15" style="font-family:'Helvetica';font-size:79.94px;fill:#000000" text-anchor="middle">3.3</text>
	<line x1="2907.26" y1="2509.23" x2="2907.26" y2="2549.21" style="stroke:#000000;stroke-width:5.76"/>
	<text x="2907.26" y="2625.15" style="font-family:'Helvetica';font-size:79.94px;fill:#000000" text-anchor="middle">3.6</text>
	<line x1="3097.59" y1="2509.23" x2="3097.59" y2="2549.21" style="stroke:#000000;stroke-width:5.76"/>
	<text x="3097.59" y="2625.15" style="font-family:'Helvetica';font-size:79.94px;fill:#000000" text-anchor="middle">3.9</text>
	<line x1="3288.04" y1="2509.23" x2="3288.04" y2="2549.21" style="stroke:#000000;stroke-width:5.76"/>
	<text x="3288.04" y="2625.15" style="font-family:'Helvetica';font-size:79.94px;fill:#000000" text-anchor="middle">4.2</text>
	<line x1="3478.36" y1="2509.23" x2="3478.36" y2="2549.21" style="stroke:#000000;stroke-width:5.76"/>
	<text x="3478.36" y="2625.15" style="font-family:'Helvetica';font-size:79.94px;fill:#000000" text-anchor="middle">4.5</text>
	<line x1="3668.82" y1="2509.23" x2="3668.82" y2="2549.21" style="stroke:#000000;stroke-width:5.76"/>
	<text x="3668.82" y="2625.15" style="font-family:'Helvetica';font-size:79.94px;fill:#000000" text-anchor="middle">4.8</text>
	<line x1="3859.14" y1="2509.23" x2="3859.14" y2="2549.21" style="stroke:#000000;stroke-width:5.76"/>
	<text x="3859.14" y="2625.15" style="font-family:'Helvetica';font-size:79.94px;fill:#000000" text-anchor="middle">5.1</text>
	<text x="2209.06" y="2729.16" style="font-family:'Helvetica';font-size:99.99px;fill:#000000" text-anchor="middle">Time (years)</text>
	<rect x="593.63" y="454.42" width="993.34" height="326.46" style="fill:#FFFFFF"/>
	<rect x="596.51" y="457.30" width="987.58" height="320.70" style="fill:none;stroke:#000000;stroke-width:5.76"/>
	<rect x="636.82" y="497.74" width="374.47" height="99.99" style="fill:#999999;fill-opacity:0.65"/>
	<rect x="641.14" y="502.06" width="365.83" height="91.35" style="fill:none;stroke:#808080;stroke-opacity:0.65;stroke-width:8.64"/>
	<line x1="636.82" y1="687.70" x2="1011.28" y2="687.70" style="stroke:#000000;stroke-width:8.64"/>
	<text x="1071.30" y="582.76" style="font-family:'Helvetica';font-size:99.99px;fill:#000000">CI95%</text>
	<text x="1071.30" y="722.73" style="font-family:'Helvetica';font-size:99.99px;fill:#000000">Difference</text>
	<text x="2209.06" y="369.63" style="font-family:'Helvetica';font-size:110.01px;fill:#000000" text-anchor="middle">from Admission to Readmission</text>
	<text x="2209.06" y="215.98" style="font-family:'Helvetica';font-size:139.96px;fill:#1E2D53" text-anchor="middle">Difference in Probabilities</text>
</svg>
