<?xml version="1.0" encoding="UTF-8" standalone="no"?>
<!-- This is a Stata 16.1 generated SVG file (http://www.stata.com) -->

<svg version="1.1" width="5.50in" height="4.00in" viewBox="0 0 3960 2880" xmlns="http://www.w3.org/2000/svg" xmlns:xlink="http://www.w3.org/1999/xlink">
	<desc>Stata Graph - diff_los_mod22_3y_rp_22</desc>
	<rect x="0" y="0" width="3960" height="2880" style="fill:#EAF2F3;stroke:none"/>
	<rect x="0.00" y="0.00" width="3959.88" height="2880.00" style="fill:#FFFFFF"/>
	<rect x="2.88" y="2.88" width="3954.12" height="2874.24" style="fill:none;stroke:#FFFFFF;stroke-width:5.76"/>
	<rect x="376.69" y="419.90" width="3482.32" height="2089.34" style="fill:#FFFFFF"/>
	<rect x="379.57" y="422.78" width="3476.57" height="2083.58" style="fill:none;stroke:#FFFFFF;stroke-width:5.76"/>
	<line x1="376.69" y1="2301.57" x2="3859.02" y2="2301.57" style="stroke:#EAF2F3;stroke-width:8.64"/>
	<line x1="376.69" y1="1708.30" x2="3859.02" y2="1708.30" style="stroke:#EAF2F3;stroke-width:8.64"/>
	<line x1="376.69" y1="1115.02" x2="3859.02" y2="1115.02" style="stroke:#EAF2F3;stroke-width:8.64"/>
	<line x1="376.69" y1="521.75" x2="3859.02" y2="521.75" style="stroke:#EAF2F3;stroke-width:8.64"/>
	<line x1="376.69" y1="1115.02" x2="3859.02" y2="1115.02" style="stroke:#1A476F;stroke-width:8.64"/>
	<defs>
		<path id="path_YljTEgGx" d="M605.38 1117.00 L605.38 1117.00 L623.21 1117.00 L623.21 1117.62 L641.02 1117.62 L641.02 1118.24 L658.85 1118.24 L658.85 1118.98 L676.66 1118.98 L676.66 1119.85 L694.49 1119.85 L694.49 1120.84 L712.30 1120.84 L712.30 1122.08 L730.13 1122.08 L730.13 1123.31 L747.95 1123.31 L747.95 1124.80 L765.76 1124.80 L765.76 1126.28 L783.59 1126.28 L783.59 1128.02 L801.40 1128.02 L801.40 1130.00 L819.23 1130.00 L819.23 1131.98 L837.04 1131.98 L837.04 1134.20 L854.87 1134.20 L854.87 1136.56 L872.68 1136.56 L872.68 1139.15 L890.50 1139.15 L890.50 1142.00 L908.33 1142.00 L908.33 1144.85 L926.14 1144.85 L926.14 1147.94 L943.97 1147.94 L943.97 1151.16 L961.78 1151.16 L961.78 1154.50 L979.61 1154.50 L979.61 1158.09 L997.42 1158.09 L997.42 1161.80 L1015.25 1161.80 L1015.25 1165.51 L1033.07 1165.51 L1033.07 1169.47 L1050.88 1169.47 L1050.88 1173.68 L1068.70 1173.68 L1068.70 1178.01 L1086.53 1178.01 L1086.53 1182.47 L1104.35 1182.47 L1104.35 1186.92 L1122.16 1186.92 L1122.16 1191.50 L1139.98 1191.50 L1139.98 1196.20 L1157.81 1196.20 L1157.81 1201.03 L1175.63 1201.03 L1175.63 1206.11 L1193.44 1206.11 L1193.44 1211.18 L1211.27 1211.18 L1211.27 1216.50 L1229.09 1216.50 L1229.09 1221.95 L1246.90 1221.95 L1246.90 1227.51 L1264.72 1227.51 L1264.72 1233.21 L1282.55 1233.21 L1282.55 1238.90 L1300.37 1238.90 L1300.37 1244.59 L1318.18 1244.59 L1318.18 1250.29 L1336.01 1250.29 L1336.01 1256.23 L1353.83 1256.23 L1353.83 1262.17 L1371.64 1262.17 L1371.64 1268.11 L1389.46 1268.11 L1389.46 1274.17 L1407.29 1274.17 L1407.29 1280.23 L1425.11 1280.23 L1425.11 1286.30 L1442.92 1286.30 L1442.92 1292.49 L1460.74 1292.49 L1460.74 1298.67 L1478.57 1298.67 L1478.57 1305.11 L1496.38 1305.11 L1496.38 1311.54 L1514.20 1311.54 L1514.20 1317.98 L1532.03 1317.98 L1532.03 1324.41 L1549.85 1324.41 L1549.85 1330.85 L1567.66 1330.85 L1567.66 1337.41 L1585.48 1337.41 L1585.48 1343.97 L1603.31 1343.97 L1603.31 1350.53 L1621.13 1350.53 L1621.13 1357.08 L1638.94 1357.08 L1638.94 1363.77 L1656.77 1363.77 L1656.77 1370.45 L1674.59 1370.45 L1674.59 1377.26 L1692.40 1377.26 L1692.40 1384.19 L1710.22 1384.19 L1710.22 1391.12 L1728.05 1391.12 L1728.05 1398.05 L1745.87 1398.05 L1745.87 1404.98 L1763.68 1404.98 L1763.68 1412.16 L1781.51 1412.16 L1781.51 1419.33 L1799.33 1419.33 L1799.33 1426.63 L1817.14 1426.63 L1817.14 1434.18 L1834.96 1434.18 L1834.96 1441.61 L1852.79 1441.61 L1852.79 1449.16 L1870.61 1449.16 L1870.61 1456.83 L1888.42 1456.83 L1888.42 1464.63 L1906.24 1464.63 L1906.24 1472.30 L1924.07 1472.30 L1924.07 1480.10 L1941.88 1480.10 L1941.88 1488.02 L1959.70 1488.02 L1959.70 1495.94 L1977.53 1495.94 L1977.53 1503.86 L1995.35 1503.86 L1995.35 1511.90 L2013.16 1511.90 L2013.16 1520.07 L2030.98 1520.07 L2030.98 1528.24 L2048.80 1528.24 L2048.80 1536.40 L2066.63 1536.40 L2066.63 1544.57 L2084.45 1544.57 L2084.45 1552.62 L2102.26 1552.62 L2102.26 1560.78 L2120.09 1560.78 L2120.09 1569.08 L2137.91 1569.08 L2137.91 1577.37 L2155.72 1577.37 L2155.72 1585.53 L2173.55 1585.53 L2173.55 1593.95 L2191.36 1593.95 L2191.36 1602.24 L2209.18 1602.24 L2209.18 1610.66 L2227.01 1610.66 L2227.01 1619.07 L2244.82 1619.07 L2244.82 1627.36 L2262.64 1627.36 L2262.64 1635.78 L2280.47 1635.78 L2280.47 1644.19 L2298.28 1644.19 L2298.28 1652.61 L2316.11 1652.61 L2316.11 1661.02 L2334.05 1661.02 L2334.05 1669.56 L2351.87 1669.56 L2351.87 1678.10 L2369.69 1678.10 L2369.69 1686.64 L2387.51 1686.64 L2387.51 1695.18 L2405.33 1695.18 L2405.33 1703.72 L2423.15 1703.72 L2423.15 1712.38 L2440.97 1712.38 L2440.97 1720.92 L2458.79 1720.92 L2458.79 1729.46 L2476.61 1729.46 L2476.61 1738.12 L2494.43 1738.12 L2494.43 1746.91 L2512.25 1746.91 L2512.25 1755.70 L2530.07 1755.70 L2530.07 1764.48 L2547.89 1764.48 L2547.89 1773.27 L2565.71 1773.27 L2565.71 1782.18 L2583.53 1782.18 L2583.53 1791.09 L2601.35 1791.09 L2601.35 1800.00 L2619.17 1800.00 L2619.17 1808.91 L2636.99 1808.91 L2636.99 1817.82 L2654.81 1817.82 L2654.81 1826.73 L2672.63 1826.73 L2672.63 1835.64 L2690.45 1835.64 L2690.45 1844.68 L2708.27 1844.68 L2708.27 1853.59 L2726.09 1853.59 L2726.09 1862.74 L2743.91 1862.74 L2743.91 1871.90 L2761.73 1871.90 L2761.73 1881.06 L2779.55 1881.06 L2779.55 1890.09 L2797.37 1890.09 L2797.37 1899.25 L2815.19 1899.25 L2815.19 1908.41 L2833.01 1908.41 L2833.01 1917.44 L2850.83 1917.44 L2850.83 1926.60 L2868.65 1926.60 L2868.65 1935.76 L2886.47 1935.76 L2886.47 1944.92 L2904.29 1944.92 L2904.29 1954.07 L2922.11 1954.07 L2922.11 1963.23 L2939.93 1963.23 L2939.93 1972.51 L2957.75 1972.51 L2957.75 1981.79 L2975.57 1981.79 L2975.57 1991.08 L2993.39 1991.08 L2993.39 2000.48 L3011.21 2000.48 L3011.21 2009.89 L3029.03 2009.89 L3029.03 2019.42 L3046.85 2019.42 L3046.85 2029.07 L3064.67 2029.07 L3064.67 2038.72 L3082.49 2038.72 L3082.49 2048.37 L3100.31 2048.37 L3100.31 2058.03 L3118.13 2058.03 L3118.13 2067.80 L3135.95 2067.80 L3135.95 2077.46 L3153.77 2077.46 L3153.77 2087.23 L3171.59 2087.23 L3171.59 2096.89 L3189.41 2096.89 L3189.41 2106.66 L3207.23 2106.66 L3207.23 2116.31 L3225.05 2116.31 L3225.05 2125.97 L3242.87 2125.97 L3242.87 2135.50 L3260.69 2135.50 L3260.69 2145.15 L3278.51 2145.15 L3278.51 2154.68 L3296.33 2154.68 L3296.33 2164.33 L3314.15 2164.33 L3314.15 2173.98 L3331.97 2173.98 L3331.97 2183.64 L3349.79 2183.64 L3349.79 2193.29 L3367.61 2193.29 L3367.61 2203.07 L3385.43 2203.07 L3385.43 2212.84 L3403.25 2212.84 L3403.25 2222.62 L3421.07 2222.62 L3421.07 2232.52 L3438.89 2232.52 L3438.89 2242.54 L3456.71 2242.54 L3456.71 2252.44 L3474.53 2252.44 L3474.53 2262.47 L3492.35 2262.47 L3492.35 2272.49 L3510.17 2272.49 L3510.17 2282.64 L3527.99 2282.64 L3527.99 2292.66 L3545.81 2292.66 L3545.81 2302.81 L3563.63 2302.81 L3563.63 2312.96 L3581.45 2312.96 L3581.45 2323.23 L3599.27 2323.23 L3599.27 2333.38 L3617.09 2333.38 L3617.09 2343.53 L3634.91 2343.53 L3634.91 2353.55 L3652.73 2353.55 L3652.73 2363.70 L3670.55 2363.70 L3670.55 2373.85 L3688.37 2373.85 L3688.37 2384.12 L3706.19 2384.12 L3706.19 2394.27 L3724.01 2394.27 L3724.01 2404.54 L3741.83 2404.54 L3741.83 2414.81 L3759.65 2414.81 L3759.65 2425.08 L3777.47 2425.08 L3777.47 2435.48 L3795.29 2435.48 L3795.29 2445.87 L3795.29 483.26 L3795.29 488.09 L3777.47 488.09 L3777.47 492.91 L3759.65 492.91 L3759.65 497.74 L3741.83 497.74 L3741.83 502.56 L3724.01 502.56 L3724.01 507.39 L3706.19 507.39 L3706.19 512.34 L3688.37 512.34 L3688.37 517.17 L3670.55 517.17 L3670.55 522.12 L3652.73 522.12 L3652.73 526.94 L3634.91 526.94 L3634.91 531.89 L3617.09 531.89 L3617.09 536.72 L3599.27 536.72 L3599.27 541.55 L3581.45 541.55 L3581.45 546.25 L3563.63 546.25 L3563.63 551.08 L3545.81 551.08 L3545.81 555.78 L3527.99 555.78 L3527.99 560.61 L3510.17 560.61 L3510.17 565.31 L3492.35 565.31 L3492.35 570.13 L3474.53 570.13 L3474.53 574.84 L3456.71 574.84 L3456.71 579.66 L3438.89 579.66 L3438.89 584.61 L3421.07 584.61 L3421.07 589.44 L3403.25 589.44 L3403.25 594.27 L3385.43 594.27 L3385.43 599.09 L3367.61 599.09 L3367.61 604.17 L3349.79 604.17 L3349.79 608.99 L3331.97 608.99 L3331.97 613.94 L3314.15 613.94 L3314.15 618.89 L3296.33 618.89 L3296.33 623.84 L3278.51 623.84 L3278.51 628.92 L3260.69 628.92 L3260.69 633.87 L3242.87 633.87 L3242.87 638.69 L3225.05 638.69 L3225.05 643.52 L3207.23 643.52 L3207.23 648.35 L3189.41 648.35 L3189.41 653.05 L3171.59 653.05 L3171.59 657.75 L3153.77 657.75 L3153.77 662.45 L3135.95 662.45 L3135.95 667.03 L3118.13 667.03 L3118.13 671.74 L3100.31 671.74 L3100.31 676.31 L3082.49 676.31 L3082.49 680.89 L3064.67 680.89 L3064.67 685.47 L3046.85 685.47 L3046.85 690.05 L3029.03 690.05 L3029.03 694.63 L3011.21 694.63 L3011.21 699.33 L2993.39 699.33 L2993.39 704.04 L2975.57 704.04 L2975.57 708.86 L2957.75 708.86 L2957.75 713.56 L2939.93 713.56 L2939.93 718.39 L2922.11 718.39 L2922.11 723.22 L2904.29 723.22 L2904.29 727.92 L2886.47 727.92 L2886.47 732.75 L2868.65 732.75 L2868.65 737.45 L2850.83 737.45 L2850.83 742.28 L2833.01 742.28 L2833.01 746.85 L2815.19 746.85 L2815.19 751.56 L2797.37 751.56 L2797.37 756.26 L2779.55 756.26 L2779.55 760.84 L2761.73 760.84 L2761.73 765.42 L2743.91 765.42 L2743.91 769.87 L2726.09 769.87 L2726.09 774.45 L2708.27 774.45 L2708.27 779.03 L2690.45 779.03 L2690.45 783.61 L2672.63 783.61 L2672.63 788.19 L2654.81 788.19 L2654.81 792.77 L2636.99 792.77 L2636.99 797.35 L2619.17 797.35 L2619.17 801.68 L2601.35 801.68 L2601.35 806.13 L2583.53 806.13 L2583.53 810.59 L2565.71 810.59 L2565.71 815.04 L2547.89 815.04 L2547.89 819.50 L2530.07 819.50 L2530.07 823.83 L2512.25 823.83 L2512.25 828.28 L2494.43 828.28 L2494.43 832.62 L2476.61 832.62 L2476.61 837.07 L2458.79 837.07 L2458.79 841.53 L2440.97 841.53 L2440.97 845.98 L2423.15 845.98 L2423.15 850.31 L2405.33 850.31 L2405.33 854.64 L2387.51 854.64 L2387.51 858.98 L2369.69 858.98 L2369.69 863.31 L2351.87 863.31 L2351.87 867.51 L2334.05 867.51 L2334.05 871.72 L2316.11 871.72 L2316.11 875.93 L2298.28 875.93 L2298.28 880.14 L2280.47 880.14 L2280.47 884.35 L2262.64 884.35 L2262.64 888.43 L2244.82 888.43 L2244.82 892.51 L2227.01 892.51 L2227.01 896.60 L2209.18 896.60 L2209.18 900.56 L2191.36 900.56 L2191.36 904.52 L2173.55 904.52 L2173.55 908.48 L2155.72 908.48 L2155.72 912.31 L2137.91 912.31 L2137.91 916.27 L2120.09 916.27 L2120.09 920.11 L2102.26 920.11 L2102.26 923.95 L2084.45 923.95 L2084.45 927.78 L2066.63 927.78 L2066.63 931.62 L2048.80 931.62 L2048.80 935.21 L2030.98 935.21 L2030.98 938.80 L2013.16 938.80 L2013.16 942.51 L1995.35 942.51 L1995.35 946.10 L1977.53 946.10 L1977.53 949.69 L1959.70 949.69 L1959.70 953.28 L1941.88 953.28 L1941.88 956.74 L1924.07 956.74 L1924.07 960.33 L1906.24 960.33 L1906.24 963.92 L1888.42 963.92 L1888.42 967.38 L1870.61 967.38 L1870.61 970.85 L1852.79 970.85 L1852.79 974.31 L1834.96 974.31 L1834.96 977.90 L1817.14 977.90 L1817.14 981.37 L1799.33 981.37 L1799.33 984.83 L1781.51 984.83 L1781.51 988.42 L1763.68 988.42 L1763.68 992.01 L1745.87 992.01 L1745.87 995.60 L1728.05 995.60 L1728.05 999.06 L1710.22 999.06 L1710.22 1002.65 L1692.40 1002.65 L1692.40 1006.12 L1674.59 1006.12 L1674.59 1009.46 L1656.77 1009.46 L1656.77 1012.93 L1638.94 1012.93 L1638.94 1016.27 L1621.13 1016.27 L1621.13 1019.61 L1603.31 1019.61 L1603.31 1022.83 L1585.48 1022.83 L1585.48 1026.04 L1567.66 1026.04 L1567.66 1029.14 L1549.85 1029.14 L1549.85 1032.23 L1532.03 1032.23 L1532.03 1035.20 L1514.20 1035.20 L1514.20 1038.05 L1496.38 1038.05 L1496.38 1040.77 L1478.57 1040.77 L1478.57 1043.37 L1460.74 1043.37 L1460.74 1046.09 L1442.92 1046.09 L1442.92 1048.81 L1425.11 1048.81 L1425.11 1051.41 L1407.29 1051.41 L1407.29 1053.89 L1389.46 1053.89 L1389.46 1056.36 L1371.64 1056.36 L1371.64 1058.71 L1353.83 1058.71 L1353.83 1060.94 L1336.01 1060.94 L1336.01 1063.17 L1318.18 1063.17 L1318.18 1065.27 L1300.37 1065.27 L1300.37 1067.38 L1282.55 1067.38 L1282.55 1069.36 L1264.72 1069.36 L1264.72 1071.21 L1246.90 1071.21 L1246.90 1072.95 L1229.09 1072.95 L1229.09 1074.55 L1211.27 1074.55 L1211.27 1076.29 L1193.44 1076.29 L1193.44 1078.02 L1175.63 1078.02 L1175.63 1079.75 L1157.81 1079.75 L1157.81 1081.36 L1139.98 1081.36 L1139.98 1082.97 L1122.16 1082.97 L1122.16 1084.46 L1104.35 1084.46 L1104.35 1086.06 L1086.53 1086.06 L1086.53 1087.43 L1068.70 1087.43 L1068.70 1088.79 L1050.88 1088.79 L1050.88 1090.02 L1033.07 1090.02 L1033.07 1091.26 L1015.25 1091.26 L1015.25 1092.50 L997.42 1092.50 L997.42 1093.74 L979.61 1093.74 L979.61 1094.85 L961.78 1094.85 L961.78 1095.96 L943.97 1095.96 L943.97 1097.08 L926.14 1097.08 L926.14 1098.07 L908.33 1098.07 L908.33 1099.06 L890.50 1099.06 L890.50 1100.05 L872.68 1100.05 L872.68 1100.91 L854.87 1100.91 L854.87 1101.90 L837.04 1101.90 L837.04 1102.89 L819.23 1102.89 L819.23 1103.88 L801.40 1103.88 L801.40 1104.75 L783.59 1104.75 L783.59 1105.62 L765.76 1105.62 L765.76 1106.48 L747.95 1106.48 L747.95 1107.35 L730.13 1107.35 L730.13 1108.22 L712.30 1108.22 L712.30 1108.83 L694.49 1108.83 L694.49 1109.58 L676.66 1109.58 L676.66 1110.32 L658.85 1110.32 L658.85 1111.06 L641.02 1111.06 L641.02 1111.68 L623.21 1111.68 L623.21 1112.18 L605.38 1112.18 L605.38 1117.00 Z" stroke-linejoin="round"/>
	</defs>
	<defs>
		<clipPath id="clipPath_aOnKAbje">
			<use xlink:href="#path_YljTEgGx"/>
		</clipPath>
	</defs>
	<use xlink:href="#path_YljTEgGx" style="stroke:none;fill:#999999;fill-opacity:0.65"/>
	<use xlink:href="#path_YljTEgGx" style="fill:none;stroke:#808080;stroke-opacity:0.65;stroke-width:17.28" clip-path="url(#clipPath_aOnKAbje)"/>
	<path d=" M605.38 1114.65 L623.21 1114.65 L623.21 1114.65 L641.02 1114.65 L641.02 1114.77 L658.85 1114.77 L658.85 1114.77 L676.66 1114.77 L676.66 1114.77 L694.49 1114.77 L694.49 1114.90 L712.30 1114.90 L712.30 1115.15 L730.13 1115.15 L730.13 1115.39 L747.95 1115.39 L747.95 1115.76 L765.76 1115.76 L765.76 1116.01 L783.59 1116.01 L783.59 1116.51 L801.40 1116.51 L801.40 1117.00 L819.23 1117.00 L819.23 1117.50 L837.04 1117.50 L837.04 1118.12 L854.87 1118.12 L854.87 1118.73 L872.68 1118.73 L872.68 1119.60 L890.50 1119.60 L890.50 1120.59 L908.33 1120.59 L908.33 1121.58 L926.14 1121.58 L926.14 1122.57 L943.97 1122.57 L943.97 1123.69 L961.78 1123.69 L961.78 1124.80 L979.61 1124.80 L979.61 1125.91 L997.42 1125.91 L997.42 1127.15 L1015.25 1127.15 L1015.25 1128.39 L1033.07 1128.39 L1033.07 1129.75 L1050.88 1129.75 L1050.88 1131.23 L1068.70 1131.23 L1068.70 1132.84 L1086.53 1132.84 L1086.53 1134.33 L1104.35 1134.33 L1104.35 1135.69 L1122.16 1135.69 L1122.16 1137.30 L1139.98 1137.30 L1139.98 1138.78 L1157.81 1138.78 L1157.81 1140.39 L1175.63 1140.39 L1175.63 1142.12 L1193.44 1142.12 L1193.44 1143.86 L1211.27 1143.86 L1211.27 1145.59 L1229.09 1145.59 L1229.09 1147.45 L1246.90 1147.45 L1246.90 1149.43 L1264.72 1149.43 L1264.72 1151.28 L1282.55 1151.28 L1282.55 1153.26 L1300.37 1153.26 L1300.37 1154.99 L1318.18 1154.99 L1318.18 1156.85 L1336.01 1156.85 L1336.01 1158.58 L1353.83 1158.58 L1353.83 1160.44 L1371.64 1160.44 L1371.64 1162.30 L1389.46 1162.30 L1389.46 1164.03 L1407.29 1164.03 L1407.29 1165.89 L1425.11 1165.89 L1425.11 1167.62 L1442.92 1167.62 L1442.92 1169.35 L1460.74 1169.35 L1460.74 1171.08 L1478.57 1171.08 L1478.57 1172.94 L1496.38 1172.94 L1496.38 1174.80 L1514.20 1174.80 L1514.20 1176.65 L1532.03 1176.65 L1532.03 1178.38 L1549.85 1178.38 L1549.85 1180.12 L1567.66 1180.12 L1567.66 1181.73 L1585.48 1181.73 L1585.48 1183.46 L1603.31 1183.46 L1603.31 1185.19 L1621.13 1185.19 L1621.13 1186.80 L1638.94 1186.80 L1638.94 1188.41 L1656.77 1188.41 L1656.77 1190.02 L1674.59 1190.02 L1674.59 1191.75 L1692.40 1191.75 L1692.40 1193.48 L1710.22 1193.48 L1710.22 1195.21 L1728.05 1195.21 L1728.05 1196.82 L1745.87 1196.82 L1745.87 1198.56 L1763.68 1198.56 L1763.68 1200.29 L1781.51 1200.29 L1781.51 1202.15 L1799.33 1202.15 L1799.33 1204.13 L1817.14 1204.13 L1817.14 1206.11 L1834.96 1206.11 L1834.96 1208.09 L1852.79 1208.09 L1852.79 1210.07 L1870.61 1210.07 L1870.61 1212.17 L1888.42 1212.17 L1888.42 1214.27 L1906.24 1214.27 L1906.24 1216.38 L1924.07 1216.38 L1924.07 1218.48 L1941.88 1218.48 L1941.88 1220.71 L1959.70 1220.71 L1959.70 1222.94 L1977.53 1222.94 L1977.53 1225.04 L1995.35 1225.04 L1995.35 1227.27 L2013.16 1227.27 L2013.16 1229.49 L2030.98 1229.49 L2030.98 1231.85 L2048.80 1231.85 L2048.80 1234.07 L2066.63 1234.07 L2066.63 1236.18 L2084.45 1236.18 L2084.45 1238.40 L2102.26 1238.40 L2102.26 1240.51 L2120.09 1240.51 L2120.09 1242.74 L2137.91 1242.74 L2137.91 1244.84 L2155.72 1244.84 L2155.72 1247.07 L2173.55 1247.07 L2173.55 1249.30 L2191.36 1249.30 L2191.36 1251.52 L2209.18 1251.52 L2209.18 1253.63 L2227.01 1253.63 L2227.01 1255.85 L2244.82 1255.85 L2244.82 1257.96 L2262.64 1257.96 L2262.64 1260.06 L2280.47 1260.06 L2280.47 1262.29 L2298.28 1262.29 L2298.28 1264.39 L2316.11 1264.39 L2316.11 1266.50 L2333.93 1266.50 L2333.93 1268.60 L2351.74 1268.60 L2351.74 1270.70 L2369.57 1270.70 L2369.57 1272.93 L2387.39 1272.93 L2387.39 1275.04 L2405.20 1275.04 L2405.20 1277.14 L2423.03 1277.14 L2423.03 1279.24 L2440.84 1279.24 L2440.84 1281.22 L2458.66 1281.22 L2458.66 1283.33 L2476.49 1283.33 L2476.49 1285.43 L2494.30 1285.43 L2494.30 1287.66 L2512.13 1287.66 L2512.13 1289.89 L2529.95 1289.89 L2529.95 1292.11 L2547.76 1292.11 L2547.76 1294.22 L2565.59 1294.22 L2565.59 1296.45 L2583.41 1296.45 L2583.41 1298.67 L2601.22 1298.67 L2601.22 1300.90 L2619.05 1300.90 L2619.05 1303.13 L2636.86 1303.13 L2636.86 1305.36 L2654.68 1305.36 L2654.68 1307.46 L2672.51 1307.46 L2672.51 1309.69 L2690.32 1309.69 L2690.32 1311.91 L2708.14 1311.91 L2708.14 1314.14 L2725.97 1314.14 L2725.97 1316.37 L2743.78 1316.37 L2743.78 1318.72 L2761.61 1318.72 L2761.61 1320.95 L2779.43 1320.95 L2779.43 1323.30 L2797.24 1323.30 L2797.24 1325.53 L2815.07 1325.53 L2815.07 1327.63 L2832.89 1327.63 L2832.89 1329.98 L2850.70 1329.98 L2850.70 1332.09 L2868.53 1332.09 L2868.53 1334.31 L2886.34 1334.31 L2886.34 1336.42 L2904.16 1336.42 L2904.16 1338.65 L2921.99 1338.65 L2921.99 1340.87 L2939.80 1340.87 L2939.80 1343.10 L2957.63 1343.10 L2957.63 1345.33 L2975.45 1345.33 L2975.45 1347.68 L2993.26 1347.68 L2993.26 1350.03 L3011.09 1350.03 L3011.09 1352.38 L3028.91 1352.38 L3028.91 1354.73 L3046.72 1354.73 L3046.72 1357.33 L3064.55 1357.33 L3064.55 1359.81 L3082.36 1359.81 L3082.36 1362.41 L3100.18 1362.41 L3100.18 1365.01 L3118.01 1365.01 L3118.01 1367.48 L3135.82 1367.48 L3135.82 1369.96 L3153.64 1369.96 L3153.64 1372.55 L3171.47 1372.55 L3171.47 1375.03 L3189.28 1375.03 L3189.28 1377.50 L3207.11 1377.50 L3207.11 1379.98 L3224.93 1379.98 L3224.93 1382.33 L3242.74 1382.33 L3242.74 1384.68 L3260.57 1384.68 L3260.57 1387.03 L3278.39 1387.03 L3278.39 1389.38 L3296.20 1389.38 L3296.20 1391.74 L3314.03 1391.74 L3314.03 1394.09 L3331.84 1394.09 L3331.84 1396.44 L3349.66 1396.44 L3349.66 1398.79 L3367.49 1398.79 L3367.49 1401.14 L3385.30 1401.14 L3385.30 1403.62 L3403.13 1403.62 L3403.13 1406.09 L3420.95 1406.09 L3420.95 1408.69 L3438.76 1408.69 L3438.76 1411.17 L3456.59 1411.17 L3456.59 1413.76 L3474.41 1413.76 L3474.41 1416.36 L3492.22 1416.36 L3492.22 1418.96 L3510.05 1418.96 L3510.05 1421.68 L3527.86 1421.68 L3527.86 1424.28 L3545.68 1424.28 L3545.68 1427.01 L3563.51 1427.01 L3563.51 1429.73 L3581.32 1429.73 L3581.32 1432.45 L3599.14 1432.45 L3599.14 1435.05 L3616.97 1435.05 L3616.97 1437.77 L3634.78 1437.77 L3634.78 1440.37 L3652.61 1440.37 L3652.61 1442.97 L3670.43 1442.97 L3670.43 1445.57 L3688.24 1445.57 L3688.24 1448.29 L3706.07 1448.29 L3706.07 1450.89 L3723.89 1450.89 L3723.89 1453.61 L3741.70 1453.61 L3741.70 1456.34 L3759.53 1456.34 L3759.53 1459.06 L3777.34 1459.06 L3777.34 1461.90 L3795.16 1461.90 L3795.16 1464.63" stroke-linejoin="round" style="fill:none;stroke:#000000;stroke-width:8.64"/>
	<line x1="376.69" y1="2509.23" x2="376.69" y2="419.90" style="stroke:#000000;stroke-width:5.76"/>
	<line x1="376.69" y1="2301.57" x2="336.72" y2="2301.57" style="stroke:#000000;stroke-width:5.76"/>
	<text x="286.62" y="2301.57" style="font-family:'Helvetica';font-size:99.99px;fill:#000000" transform="rotate(-90 286.62,2301.57)" text-anchor="middle">-40</text>
	<line x1="376.69" y1="1708.30" x2="336.72" y2="1708.30" style="stroke:#000000;stroke-width:5.76"/>
	<text x="286.62" y="1708.30" style="font-family:'Helvetica';font-size:99.99px;fill:#000000" transform="rotate(-90 286.62,1708.30)" text-anchor="middle">-20</text>
	<line x1="376.69" y1="1115.02" x2="336.72" y2="1115.02" style="stroke:#000000;stroke-width:5.76"/>
	<text x="286.62" y="1115.02" style="font-family:'Helvetica';font-size:99.99px;fill:#000000" transform="rotate(-90 286.62,1115.02)" text-anchor="middle">0</text>
	<line x1="376.69" y1="521.75" x2="336.72" y2="521.75" style="stroke:#000000;stroke-width:5.76"/>
	<text x="286.62" y="521.75" style="font-family:'Helvetica';font-size:99.99px;fill:#000000" transform="rotate(-90 286.62,521.75)" text-anchor="middle">20</text>
	<text x="190.71" y="1464.63" style="font-family:'Helvetica';font-size:99.99px;fill:#000000" transform="rotate(-90 190.71,1464.63)" text-anchor="middle">Difference in Lengths</text>
	<line x1="376.69" y1="2509.23" x2="3859.02" y2="2509.23" style="stroke:#000000;stroke-width:5.76"/>
	<line x1="440.06" y1="2509.23" x2="440.06" y2="2549.21" style="stroke:#000000;stroke-width:5.76"/>
	<text x="440.06" y="2625.15" style="font-family:'Helvetica';font-size:79.94px;fill:#000000" text-anchor="middle">0</text>
	<line x1="641.40" y1="2509.23" x2="641.40" y2="2549.21" style="stroke:#000000;stroke-width:5.76"/>
	<text x="641.40" y="2625.15" style="font-family:'Helvetica';font-size:79.94px;fill:#000000" text-anchor="middle">.3</text>
	<line x1="842.74" y1="2509.23" x2="842.74" y2="2549.21" style="stroke:#000000;stroke-width:5.76"/>
	<text x="842.74" y="2625.15" style="font-family:'Helvetica';font-size:79.94px;fill:#000000" text-anchor="middle">.6</text>
	<line x1="1044.08" y1="2509.23" x2="1044.08" y2="2549.21" style="stroke:#000000;stroke-width:5.76"/>
	<text x="1044.08" y="2625.15" style="font-family:'Helvetica';font-size:79.94px;fill:#000000" text-anchor="middle">.9</text>
	<line x1="1245.42" y1="2509.23" x2="1245.42" y2="2549.21" style="stroke:#000000;stroke-width:5.76"/>
	<text x="1245.42" y="2625.15" style="font-family:'Helvetica';font-size:79.94px;fill:#000000" text-anchor="middle">1.2</text>
	<line x1="1446.76" y1="2509.23" x2="1446.76" y2="2549.21" style="stroke:#000000;stroke-width:5.76"/>
	<text x="1446.76" y="2625.15" style="font-family:'Helvetica';font-size:79.94px;fill:#000000" text-anchor="middle">1.5</text>
	<line x1="1648.10" y1="2509.23" x2="1648.10" y2="2549.21" style="stroke:#000000;stroke-width:5.76"/>
	<text x="1648.10" y="2625.15" style="font-family:'Helvetica';font-size:79.94px;fill:#000000" text-anchor="middle">1.8</text>
	<line x1="1849.44" y1="2509.23" x2="1849.44" y2="2549.21" style="stroke:#000000;stroke-width:5.76"/>
	<text x="1849.44" y="2625.15" style="font-family:'Helvetica';font-size:79.94px;fill:#000000" text-anchor="middle">2.1</text>
	<line x1="2050.78" y1="2509.23" x2="2050.78" y2="2549.21" style="stroke:#000000;stroke-width:5.76"/>
	<text x="2050.78" y="2625.15" style="font-family:'Helvetica';font-size:79.94px;fill:#000000" text-anchor="middle">2.4</text>
	<line x1="2252.13" y1="2509.23" x2="2252.13" y2="2549.21" style="stroke:#000000;stroke-width:5.76"/>
	<text x="2252.13" y="2625.15" style="font-family:'Helvetica';font-size:79.94px;fill:#000000" text-anchor="middle">2.7</text>
	<line x1="2453.47" y1="2509.23" x2="2453.47" y2="2549.21" style="stroke:#000000;stroke-width:5.76"/>
	<text x="2453.47" y="2625.15" style="font-family:'Helvetica';font-size:79.94px;fill:#000000" text-anchor="middle">3</text>
	<line x1="2654.81" y1="2509.23" x2="2654.81" y2="2549.21" style="stroke:#000000;stroke-width:5.76"/>
	<text x="2654.81" y="2625.15" style="font-family:'Helvetica';font-size:79.94px;fill:#000000" text-anchor="middle">3.3</text>
	<line x1="2856.15" y1="2509.23" x2="2856.15" y2="2549.21" style="stroke:#000000;stroke-width:5.76"/>
	<text x="2856.15" y="2625.15" style="font-family:'Helvetica';font-size:79.94px;fill:#000000" text-anchor="middle">3.6</text>
	<line x1="3057.49" y1="2509.23" x2="3057.49" y2="2549.21" style="stroke:#000000;stroke-width:5.76"/>
	<text x="3057.49" y="2625.15" style="font-family:'Helvetica';font-size:79.94px;fill:#000000" text-anchor="middle">3.9</text>
	<line x1="3258.83" y1="2509.23" x2="3258.83" y2="2549.21" style="stroke:#000000;stroke-width:5.76"/>
	<text x="3258.83" y="2625.15" style="font-family:'Helvetica';font-size:79.94px;fill:#000000" text-anchor="middle">4.2</text>
	<line x1="3460.17" y1="2509.23" x2="3460.17" y2="2549.21" style="stroke:#000000;stroke-width:5.76"/>
	<text x="3460.17" y="2625.15" style="font-family:'Helvetica';font-size:79.94px;fill:#000000" text-anchor="middle">4.5</text>
	<line x1="3661.51" y1="2509.23" x2="3661.51" y2="2549.21" style="stroke:#000000;stroke-width:5.76"/>
	<text x="3661.51" y="2625.15" style="font-family:'Helvetica';font-size:79.94px;fill:#000000" text-anchor="middle">4.8</text>
	<line x1="3862.86" y1="2509.23" x2="3862.86" y2="2549.21" style="stroke:#000000;stroke-width:5.76"/>
	<text x="3862.86" y="2625.15" style="font-family:'Helvetica';font-size:79.94px;fill:#000000" text-anchor="middle">5.1</text>
	<text x="2117.86" y="2729.16" style="font-family:'Helvetica';font-size:99.99px;fill:#000000" text-anchor="middle">Time (years)</text>
	<rect x="411.22" y="2148.24" width="993.34" height="326.46" style="fill:#FFFFFF"/>
	<rect x="414.10" y="2151.12" width="987.58" height="320.70" style="fill:none;stroke:#000000;stroke-width:5.76"/>
	<rect x="454.41" y="2191.43" width="374.47" height="99.99" style="fill:#999999;fill-opacity:0.65"/>
	<rect x="458.73" y="2195.75" width="365.83" height="91.35" style="fill:none;stroke:#808080;stroke-opacity:0.65;stroke-width:8.64"/>
	<line x1="454.41" y1="2381.52" x2="828.88" y2="2381.52" style="stroke:#000000;stroke-width:8.64"/>
	<text x="888.77" y="2276.46" style="font-family:'Helvetica';font-size:99.99px;fill:#000000">CI95%</text>
	<text x="888.77" y="2416.55" style="font-family:'Helvetica';font-size:99.99px;fill:#000000">Difference</text>
	<text x="2117.86" y="369.63" style="font-family:'Helvetica';font-size:110.01px;fill:#000000" text-anchor="middle">from Readmission</text>
	<text x="2117.86" y="215.98" style="font-family:'Helvetica';font-size:139.96px;fill:#1E2D53" text-anchor="middle">Difference in Lengths of Stay (1st patient) (3 years) (RP)</text>
</svg>
