<?xml version="1.0" encoding="UTF-8" standalone="no"?>
<!-- This is a Stata 16.1 generated SVG file (http://www.stata.com) -->

<svg version="1.1" width="5.50in" height="4.00in" viewBox="0 0 3960 2880" xmlns="http://www.w3.org/2000/svg" xmlns:xlink="http://www.w3.org/1999/xlink">
	<desc>Stata Graph - diff_mod12_tc</desc>
	<rect x="0" y="0" width="3960" height="2880" style="fill:#EAF2F3;stroke:none"/>
	<rect x="0.00" y="0.00" width="3959.88" height="2880.00" style="fill:#FFFFFF"/>
	<rect x="2.88" y="2.88" width="3954.12" height="2874.24" style="fill:none;stroke:#FFFFFF;stroke-width:5.76"/>
	<rect x="559.10" y="419.90" width="3299.92" height="2089.34" style="fill:#FFFFFF"/>
	<rect x="561.98" y="422.78" width="3294.16" height="2083.58" style="fill:none;stroke:#FFFFFF;stroke-width:5.76"/>
	<line x1="559.10" y1="2249.60" x2="3859.02" y2="2249.60" style="stroke:#EAF2F3;stroke-width:8.64"/>
	<line x1="559.10" y1="2053.32" x2="3859.02" y2="2053.32" style="stroke:#EAF2F3;stroke-width:8.64"/>
	<line x1="559.10" y1="1857.05" x2="3859.02" y2="1857.05" style="stroke:#EAF2F3;stroke-width:8.64"/>
	<line x1="559.10" y1="1660.78" x2="3859.02" y2="1660.78" style="stroke:#EAF2F3;stroke-width:8.64"/>
	<line x1="559.10" y1="1464.63" x2="3859.02" y2="1464.63" style="stroke:#EAF2F3;stroke-width:8.64"/>
	<line x1="559.10" y1="1268.35" x2="3859.02" y2="1268.35" style="stroke:#EAF2F3;stroke-width:8.64"/>
	<line x1="559.10" y1="1072.08" x2="3859.02" y2="1072.08" style="stroke:#EAF2F3;stroke-width:8.64"/>
	<line x1="559.10" y1="875.81" x2="3859.02" y2="875.81" style="stroke:#EAF2F3;stroke-width:8.64"/>
	<line x1="559.10" y1="679.53" x2="3859.02" y2="679.53" style="stroke:#EAF2F3;stroke-width:8.64"/>
	<line x1="559.10" y1="1464.63" x2="3859.02" y2="1464.63" style="stroke:#1A476F;stroke-width:8.64"/>
	<defs>
		<path id="path_aQYbmUzo" d="M778.76 1433.94 L778.76 1433.94 L795.59 1433.94 L795.59 1426.51 L812.54 1426.51 L812.54 1417.97 L829.37 1417.97 L829.37 1409.93 L846.20 1409.93 L846.20 1403.49 L863.03 1403.49 L863.03 1396.81 L879.86 1396.81 L879.86 1388.39 L896.82 1388.39 L896.82 1381.84 L913.65 1381.84 L913.65 1374.78 L930.48 1374.78 L930.48 1368.84 L947.31 1368.84 L947.31 1363.64 L964.14 1363.64 L964.14 1358.07 L981.09 1358.07 L981.09 1351.39 L997.92 1351.39 L997.92 1346.81 L1014.75 1346.81 L1014.75 1341.24 L1031.58 1341.24 L1031.58 1337.53 L1048.41 1337.53 L1048.41 1331.96 L1065.36 1331.96 L1065.36 1326.52 L1082.19 1326.52 L1082.19 1321.69 L1099.02 1321.69 L1099.02 1317.73 L1115.85 1317.73 L1115.85 1312.53 L1132.68 1312.53 L1132.68 1309.32 L1149.64 1309.32 L1149.64 1306.10 L1166.47 1306.10 L1166.47 1301.40 L1183.30 1301.40 L1183.30 1297.56 L1200.13 1297.56 L1200.13 1295.46 L1216.96 1295.46 L1216.96 1291.74 L1233.91 1291.74 L1233.91 1287.78 L1250.74 1287.78 L1250.74 1285.18 L1267.57 1285.18 L1267.57 1283.20 L1284.40 1283.20 L1284.40 1281.10 L1301.23 1281.10 L1301.23 1280.73 L1318.18 1280.73 L1318.18 1278.87 L1335.02 1278.87 L1335.02 1277.51 L1351.85 1277.51 L1351.85 1275.65 L1368.67 1275.65 L1368.67 1272.81 L1385.51 1272.81 L1385.51 1270.21 L1402.34 1270.21 L1402.34 1267.61 L1419.29 1267.61 L1419.29 1265.26 L1436.12 1265.26 L1436.12 1263.53 L1452.95 1263.53 L1452.95 1263.53 L1469.78 1263.53 L1469.78 1261.79 L1486.61 1261.79 L1486.61 1260.56 L1503.56 1260.56 L1503.56 1260.56 L1520.39 1260.56 L1520.39 1259.94 L1537.22 1259.94 L1537.22 1258.70 L1554.05 1258.70 L1554.05 1256.60 L1570.88 1256.60 L1570.88 1256.84 L1587.84 1256.84 L1587.84 1255.48 L1604.67 1255.48 L1604.67 1253.13 L1621.50 1253.13 L1621.50 1251.40 L1638.33 1251.40 L1638.33 1251.89 L1655.16 1251.89 L1655.16 1251.15 L1672.11 1251.15 L1672.11 1250.53 L1688.94 1250.53 L1688.94 1249.42 L1705.77 1249.42 L1705.77 1247.19 L1722.60 1247.19 L1722.60 1247.81 L1739.43 1247.81 L1739.43 1247.69 L1756.38 1247.69 L1756.38 1245.95 L1773.21 1245.95 L1773.21 1247.32 L1790.04 1247.32 L1790.04 1246.94 L1806.87 1246.94 L1806.87 1247.81 L1823.70 1247.81 L1823.70 1247.07 L1840.66 1247.07 L1840.66 1246.70 L1857.49 1246.70 L1857.49 1247.07 L1874.32 1247.07 L1874.32 1246.20 L1891.15 1246.20 L1891.15 1245.95 L1907.98 1245.95 L1907.98 1246.94 L1924.93 1246.94 L1924.93 1246.70 L1941.76 1246.70 L1941.76 1245.71 L1958.59 1245.71 L1958.59 1245.95 L1975.42 1245.95 L1975.42 1245.21 L1992.25 1245.21 L1992.25 1244.59 L2009.20 1244.59 L2009.20 1244.10 L2026.04 1244.10 L2026.04 1243.23 L2042.87 1243.23 L2042.87 1243.11 L2059.70 1243.11 L2059.70 1243.48 L2076.53 1243.48 L2076.53 1243.48 L2093.48 1243.48 L2093.48 1245.46 L2110.31 1245.46 L2110.31 1245.34 L2127.14 1245.34 L2127.14 1244.22 L2143.97 1244.22 L2143.97 1243.97 L2160.80 1243.97 L2160.80 1243.48 L2177.75 1243.48 L2177.75 1242.49 L2194.58 1242.49 L2194.58 1243.73 L2211.41 1243.73 L2211.41 1243.11 L2228.24 1243.11 L2228.24 1243.36 L2245.07 1243.36 L2245.07 1241.99 L2262.03 1241.99 L2262.03 1241.99 L2278.86 1241.99 L2278.86 1242.86 L2295.69 1242.86 L2295.69 1243.60 L2312.52 1243.60 L2312.52 1243.11 L2329.35 1243.11 L2329.35 1243.23 L2346.30 1243.23 L2346.30 1244.59 L2363.13 1244.59 L2363.13 1244.22 L2379.96 1244.22 L2379.96 1244.84 L2396.79 1244.84 L2396.79 1246.57 L2413.62 1246.57 L2413.62 1247.44 L2430.57 1247.44 L2430.57 1247.07 L2447.40 1247.07 L2447.40 1246.82 L2464.23 1246.82 L2464.23 1247.19 L2481.06 1247.19 L2481.06 1248.80 L2497.89 1248.80 L2497.89 1250.66 L2514.85 1250.66 L2514.85 1252.39 L2531.68 1252.39 L2531.68 1252.51 L2548.51 1252.51 L2548.51 1252.88 L2565.34 1252.88 L2565.34 1252.76 L2582.17 1252.76 L2582.17 1254.62 L2599.00 1254.62 L2599.00 1256.10 L2615.95 1256.10 L2615.95 1255.11 L2632.78 1255.11 L2632.78 1255.36 L2649.61 1255.36 L2649.61 1256.23 L2666.44 1256.23 L2666.44 1257.22 L2683.27 1257.22 L2683.27 1257.71 L2700.22 1257.71 L2700.22 1257.59 L2717.05 1257.59 L2717.05 1257.96 L2733.89 1257.96 L2733.89 1259.07 L2750.72 1259.07 L2750.72 1259.57 L2767.55 1259.57 L2767.55 1259.94 L2784.50 1259.94 L2784.50 1260.80 L2801.33 1260.80 L2801.33 1261.79 L2818.16 1261.79 L2818.16 1262.29 L2834.99 1262.29 L2834.99 1261.42 L2851.82 1261.42 L2851.82 1261.92 L2868.77 1261.92 L2868.77 1262.29 L2885.60 1262.29 L2885.60 1261.42 L2902.43 1261.42 L2902.43 1262.91 L2919.26 1262.91 L2919.26 1263.16 L2936.09 1263.16 L2936.09 1264.15 L2953.05 1264.15 L2953.05 1264.39 L2969.88 1264.39 L2969.88 1264.52 L2986.71 1264.52 L2986.71 1265.75 L3003.54 1265.75 L3003.54 1266.74 L3020.37 1266.74 L3020.37 1266.74 L3037.32 1266.74 L3037.32 1266.99 L3054.15 1266.99 L3054.15 1268.11 L3070.98 1268.11 L3070.98 1268.72 L3087.81 1268.72 L3087.81 1269.59 L3104.64 1269.59 L3104.64 1269.59 L3121.59 1269.59 L3121.59 1268.72 L3138.42 1268.72 L3138.42 1268.97 L3155.25 1268.97 L3155.25 1269.96 L3172.08 1269.96 L3172.08 1270.46 L3188.91 1270.46 L3188.91 1270.09 L3205.87 1270.09 L3205.87 1271.57 L3222.70 1271.57 L3222.70 1272.31 L3239.53 1272.31 L3239.53 1271.94 L3256.36 1271.94 L3256.36 1272.07 L3273.19 1272.07 L3273.19 1273.18 L3290.14 1273.18 L3290.14 1273.80 L3306.97 1273.80 L3306.97 1273.92 L3323.80 1273.92 L3323.80 1273.80 L3340.63 1273.80 L3340.63 1273.67 L3357.46 1273.67 L3357.46 1273.43 L3374.41 1273.43 L3374.41 1273.06 L3391.24 1273.06 L3391.24 1273.43 L3408.07 1273.43 L3408.07 1273.43 L3424.91 1273.43 L3424.91 1273.55 L3441.74 1273.55 L3441.74 1274.29 L3458.69 1274.29 L3458.69 1274.79 L3475.52 1274.79 L3475.52 1275.78 L3492.35 1275.78 L3492.35 1276.15 L3509.18 1276.15 L3509.18 1276.89 L3526.01 1276.89 L3526.01 1277.14 L3542.96 1277.14 L3542.96 1276.52 L3559.79 1276.52 L3559.79 1277.26 L3576.62 1277.26 L3576.62 1277.76 L3593.45 1277.76 L3593.45 1276.64 L3610.28 1276.64 L3610.28 1277.26 L3627.24 1277.26 L3627.24 1277.39 L3644.07 1277.39 L3644.07 1276.64 L3660.90 1276.64 L3660.90 1276.64 L3677.73 1276.64 L3677.73 1276.52 L3694.56 1276.52 L3694.56 1276.64 L3711.51 1276.64 L3711.51 1276.40 L3728.34 1276.40 L3728.34 1277.02 L3745.17 1277.02 L3745.17 1276.77 L3762.00 1276.77 L3762.00 1277.51 L3778.83 1277.51 L3778.83 1278.13 L3795.66 1278.13 L3795.66 1277.76 L3795.66 1211.18 L3795.66 1211.43 L3778.83 1211.43 L3778.83 1210.81 L3762.00 1210.81 L3762.00 1210.07 L3745.17 1210.07 L3745.17 1210.31 L3728.34 1210.31 L3728.34 1209.69 L3711.51 1209.69 L3711.51 1210.07 L3694.56 1210.07 L3694.56 1209.82 L3677.73 1209.82 L3677.73 1209.82 L3660.90 1209.82 L3660.90 1209.82 L3644.07 1209.82 L3644.07 1210.56 L3627.24 1210.56 L3627.24 1210.56 L3610.28 1210.56 L3610.28 1209.94 L3593.45 1209.94 L3593.45 1210.93 L3576.62 1210.93 L3576.62 1210.56 L3559.79 1210.56 L3559.79 1210.07 L3542.96 1210.07 L3542.96 1210.68 L3526.01 1210.68 L3526.01 1210.56 L3509.18 1210.56 L3509.18 1209.82 L3492.35 1209.82 L3492.35 1209.45 L3475.52 1209.45 L3475.52 1208.46 L3458.69 1208.46 L3458.69 1208.09 L3441.74 1208.09 L3441.74 1207.47 L3424.91 1207.47 L3424.91 1207.34 L3408.07 1207.34 L3408.07 1207.47 L3391.24 1207.47 L3391.24 1207.10 L3374.41 1207.10 L3374.41 1207.34 L3357.46 1207.34 L3357.46 1207.84 L3340.63 1207.84 L3340.63 1207.96 L3323.80 1207.96 L3323.80 1208.33 L3306.97 1208.33 L3306.97 1208.21 L3290.14 1208.21 L3290.14 1207.59 L3273.19 1207.59 L3273.19 1206.35 L3256.36 1206.35 L3256.36 1206.35 L3239.53 1206.35 L3239.53 1206.60 L3222.70 1206.60 L3222.70 1205.98 L3205.87 1205.98 L3205.87 1204.62 L3188.91 1204.62 L3188.91 1204.99 L3172.08 1204.99 L3172.08 1204.62 L3155.25 1204.62 L3155.25 1203.75 L3138.42 1203.75 L3138.42 1203.63 L3121.59 1203.63 L3121.59 1204.50 L3104.64 1204.50 L3104.64 1204.62 L3087.81 1204.62 L3087.81 1203.75 L3070.98 1203.75 L3070.98 1203.14 L3054.15 1203.14 L3054.15 1202.15 L3037.32 1202.15 L3037.32 1201.77 L3020.37 1201.77 L3020.37 1201.90 L3003.54 1201.90 L3003.54 1201.16 L2986.71 1201.16 L2986.71 1200.04 L2969.88 1200.04 L2969.88 1200.04 L2953.05 1200.04 L2953.05 1199.79 L2936.09 1199.79 L2936.09 1198.68 L2919.26 1198.68 L2919.26 1198.56 L2902.43 1198.56 L2902.43 1197.19 L2885.60 1197.19 L2885.60 1198.06 L2868.77 1198.06 L2868.77 1197.81 L2851.82 1197.81 L2851.82 1197.32 L2834.99 1197.32 L2834.99 1198.43 L2818.16 1198.43 L2818.16 1198.06 L2801.33 1198.06 L2801.33 1197.44 L2784.50 1197.44 L2784.50 1196.58 L2767.55 1196.58 L2767.55 1196.20 L2750.72 1196.20 L2750.72 1195.96 L2733.89 1195.96 L2733.89 1194.72 L2717.05 1194.72 L2717.05 1194.47 L2700.22 1194.47 L2700.22 1194.60 L2683.27 1194.60 L2683.27 1193.85 L2666.44 1193.85 L2666.44 1192.99 L2649.61 1192.99 L2649.61 1191.87 L2632.78 1191.87 L2632.78 1191.63 L2615.95 1191.63 L2615.95 1192.62 L2599.00 1192.62 L2599.00 1191.25 L2582.17 1191.25 L2582.17 1189.27 L2565.34 1189.27 L2565.34 1189.52 L2548.51 1189.52 L2548.51 1189.15 L2531.68 1189.15 L2531.68 1189.27 L2514.85 1189.27 L2514.85 1187.54 L2497.89 1187.54 L2497.89 1185.93 L2481.06 1185.93 L2481.06 1184.45 L2464.23 1184.45 L2464.23 1184.20 L2447.40 1184.20 L2447.40 1184.45 L2430.57 1184.45 L2430.57 1184.82 L2413.62 1184.82 L2413.62 1184.20 L2396.79 1184.20 L2396.79 1182.59 L2379.96 1182.59 L2379.96 1181.97 L2363.13 1181.97 L2363.13 1182.59 L2346.30 1182.59 L2346.30 1181.23 L2329.35 1181.23 L2329.35 1181.35 L2312.52 1181.35 L2312.52 1181.85 L2295.69 1181.85 L2295.69 1181.23 L2278.86 1181.23 L2278.86 1180.61 L2262.03 1180.61 L2262.03 1180.86 L2245.07 1180.86 L2245.07 1182.10 L2228.24 1182.10 L2228.24 1181.97 L2211.41 1181.97 L2211.41 1182.72 L2194.58 1182.72 L2194.58 1181.48 L2177.75 1181.48 L2177.75 1182.34 L2160.80 1182.34 L2160.80 1182.96 L2143.97 1182.96 L2143.97 1183.21 L2127.14 1183.21 L2127.14 1184.20 L2110.31 1184.20 L2110.31 1184.70 L2093.48 1184.70 L2093.48 1182.84 L2076.53 1182.84 L2076.53 1182.96 L2059.70 1182.96 L2059.70 1182.47 L2042.87 1182.47 L2042.87 1182.84 L2026.04 1182.84 L2026.04 1183.83 L2009.20 1183.83 L2009.20 1184.45 L1992.25 1184.45 L1992.25 1185.31 L1975.42 1185.31 L1975.42 1186.06 L1958.59 1186.06 L1958.59 1185.93 L1941.76 1185.93 L1941.76 1187.05 L1924.93 1187.05 L1924.93 1187.42 L1907.98 1187.42 L1907.98 1186.43 L1891.15 1186.43 L1891.15 1186.92 L1874.32 1186.92 L1874.32 1187.79 L1857.49 1187.79 L1857.49 1187.67 L1840.66 1187.67 L1840.66 1188.16 L1823.70 1188.16 L1823.70 1189.03 L1806.87 1189.03 L1806.87 1188.53 L1790.04 1188.53 L1790.04 1189.03 L1773.21 1189.03 L1773.21 1188.04 L1756.38 1188.04 L1756.38 1189.89 L1739.43 1189.89 L1739.43 1190.39 L1722.60 1190.39 L1722.60 1190.14 L1705.77 1190.14 L1705.77 1192.62 L1688.94 1192.62 L1688.94 1193.98 L1672.11 1193.98 L1672.11 1194.97 L1655.16 1194.97 L1655.16 1196.20 L1638.33 1196.20 L1638.33 1195.83 L1621.50 1195.83 L1621.50 1197.94 L1604.67 1197.94 L1604.67 1200.54 L1587.84 1200.54 L1587.84 1202.02 L1570.88 1202.02 L1570.88 1202.02 L1554.05 1202.02 L1554.05 1204.50 L1537.22 1204.50 L1537.22 1206.23 L1520.39 1206.23 L1520.39 1207.10 L1503.56 1207.10 L1503.56 1207.47 L1486.61 1207.47 L1486.61 1209.08 L1469.78 1209.08 L1469.78 1211.30 L1452.95 1211.30 L1452.95 1211.80 L1436.12 1211.80 L1436.12 1213.90 L1419.29 1213.90 L1419.29 1216.62 L1402.34 1216.62 L1402.34 1219.59 L1385.51 1219.59 L1385.51 1222.81 L1368.67 1222.81 L1368.67 1226.03 L1351.85 1226.03 L1351.85 1228.38 L1335.02 1228.38 L1335.02 1230.11 L1318.18 1230.11 L1318.18 1232.34 L1301.23 1232.34 L1301.23 1233.21 L1284.40 1233.21 L1284.40 1235.81 L1267.57 1235.81 L1267.57 1238.40 L1250.74 1238.40 L1250.74 1241.62 L1233.91 1241.62 L1233.91 1245.95 L1216.96 1245.95 L1216.96 1250.66 L1200.13 1250.66 L1200.13 1253.26 L1183.30 1253.26 L1183.30 1257.96 L1166.47 1257.96 L1166.47 1263.40 L1149.64 1263.40 L1149.64 1267.36 L1132.68 1267.36 L1132.68 1271.45 L1115.85 1271.45 L1115.85 1277.26 L1099.02 1277.26 L1099.02 1282.46 L1082.19 1282.46 L1082.19 1288.03 L1065.36 1288.03 L1065.36 1294.59 L1048.41 1294.59 L1048.41 1301.15 L1031.58 1301.15 L1031.58 1305.85 L1014.75 1305.85 L1014.75 1312.66 L997.92 1312.66 L997.92 1318.47 L981.09 1318.47 L981.09 1326.27 L964.14 1326.27 L964.14 1332.95 L947.31 1332.95 L947.31 1339.51 L930.48 1339.51 L930.48 1346.69 L913.65 1346.69 L913.65 1355.10 L896.82 1355.10 L896.82 1363.27 L879.86 1363.27 L879.86 1373.42 L863.03 1373.42 L863.03 1381.71 L846.20 1381.71 L846.20 1389.76 L829.37 1389.76 L829.37 1399.78 L812.54 1399.78 L812.54 1410.18 L795.59 1410.18 L795.59 1419.70 L778.76 1419.70 L778.76 1433.94 Z" stroke-linejoin="round"/>
	</defs>
	<defs>
		<clipPath id="clipPath_bFCklXYs">
			<use xlink:href="#path_aQYbmUzo"/>
		</clipPath>
	</defs>
	<use xlink:href="#path_aQYbmUzo" style="stroke:none;fill:#999999;fill-opacity:0.65"/>
	<use xlink:href="#path_aQYbmUzo" style="fill:none;stroke:#808080;stroke-opacity:0.65;stroke-width:17.28" clip-path="url(#clipPath_bFCklXYs)"/>
	<path d=" M778.76 1426.88 L795.59 1426.88 L795.59 1418.47 L812.42 1418.47 L812.42 1408.94 L829.25 1408.94 L829.25 1399.90 L846.08 1399.90 L846.08 1392.60 L863.03 1392.60 L863.03 1385.18 L879.86 1385.18 L879.86 1375.90 L896.69 1375.90 L896.69 1368.59 L913.52 1368.59 L913.52 1360.80 L930.35 1360.80 L930.35 1354.24 L947.31 1354.24 L947.31 1348.42 L964.14 1348.42 L964.14 1342.23 L980.97 1342.23 L980.97 1334.93 L997.80 1334.93 L997.80 1329.74 L1014.63 1329.74 L1014.63 1323.55 L1031.58 1323.55 L1031.58 1319.46 L1048.41 1319.46 L1048.41 1313.28 L1065.24 1313.28 L1065.24 1307.34 L1082.07 1307.34 L1082.07 1302.14 L1098.90 1302.14 L1098.90 1297.56 L1115.85 1297.56 L1115.85 1291.99 L1132.68 1291.99 L1132.68 1288.40 L1149.51 1288.40 L1149.51 1284.81 L1166.34 1284.81 L1166.34 1279.74 L1183.17 1279.74 L1183.17 1275.53 L1200.13 1275.53 L1200.13 1273.18 L1216.96 1273.18 L1216.96 1268.85 L1233.79 1268.85 L1233.79 1264.76 L1250.62 1264.76 L1250.62 1261.92 L1267.45 1261.92 L1267.45 1259.57 L1284.40 1259.57 L1284.40 1257.22 L1301.23 1257.22 L1301.23 1256.60 L1318.06 1256.60 L1318.06 1254.62 L1334.89 1254.62 L1334.89 1253.01 L1351.72 1253.01 L1351.72 1250.90 L1368.67 1250.90 L1368.67 1247.81 L1385.51 1247.81 L1385.51 1244.96 L1402.34 1244.96 L1402.34 1242.24 L1419.16 1242.24 L1419.16 1239.64 L1435.99 1239.64 L1435.99 1237.66 L1452.95 1237.66 L1452.95 1237.41 L1469.78 1237.41 L1469.78 1235.43 L1486.61 1235.43 L1486.61 1234.07 L1503.44 1234.07 L1503.44 1233.83 L1520.27 1233.83 L1520.27 1233.08 L1537.22 1233.08 L1537.22 1231.72 L1554.05 1231.72 L1554.05 1229.37 L1570.88 1229.37 L1570.88 1229.49 L1587.71 1229.49 L1587.71 1228.13 L1604.54 1228.13 L1604.54 1225.53 L1621.50 1225.53 L1621.50 1223.68 L1638.33 1223.68 L1638.33 1224.05 L1655.16 1224.05 L1655.16 1223.18 L1671.99 1223.18 L1671.99 1222.32 L1688.82 1222.32 L1688.82 1221.08 L1705.77 1221.08 L1705.77 1218.73 L1722.60 1218.73 L1722.60 1219.10 L1739.43 1219.10 L1739.43 1218.85 L1756.26 1218.85 L1756.26 1217.12 L1773.09 1217.12 L1773.09 1218.23 L1790.04 1218.23 L1790.04 1217.74 L1806.87 1217.74 L1806.87 1218.48 L1823.70 1218.48 L1823.70 1217.61 L1840.53 1217.61 L1840.53 1217.24 L1857.36 1217.24 L1857.36 1217.49 L1874.32 1217.49 L1874.32 1216.62 L1891.15 1216.62 L1891.15 1216.25 L1907.98 1216.25 L1907.98 1217.24 L1924.81 1217.24 L1924.81 1216.87 L1941.64 1216.87 L1941.64 1215.88 L1958.59 1215.88 L1958.59 1216.01 L1975.42 1216.01 L1975.42 1215.26 L1992.25 1215.26 L1992.25 1214.52 L2009.08 1214.52 L2009.08 1214.03 L2025.91 1214.03 L2025.91 1213.04 L2042.74 1213.04 L2042.74 1212.79 L2059.70 1212.79 L2059.70 1213.28 L2076.53 1213.28 L2076.53 1213.28 L2093.36 1213.28 L2093.36 1215.14 L2110.18 1215.14 L2110.18 1214.77 L2127.01 1214.77 L2127.01 1213.78 L2143.97 1213.78 L2143.97 1213.53 L2160.80 1213.53 L2160.80 1212.91 L2177.63 1212.91 L2177.63 1212.05 L2194.46 1212.05 L2194.46 1213.28 L2211.29 1213.28 L2211.29 1212.54 L2228.24 1212.54 L2228.24 1212.79 L2245.07 1212.79 L2245.07 1211.55 L2261.90 1211.55 L2261.90 1211.43 L2278.73 1211.43 L2278.73 1212.17 L2295.56 1212.17 L2295.56 1212.79 L2312.52 1212.79 L2312.52 1212.29 L2329.35 1212.29 L2329.35 1212.29 L2346.18 1212.29 L2346.18 1213.65 L2363.01 1213.65 L2363.01 1213.16 L2379.84 1213.16 L2379.84 1213.78 L2396.79 1213.78 L2396.79 1215.39 L2413.62 1215.39 L2413.62 1216.13 L2430.45 1216.13 L2430.45 1215.76 L2447.28 1215.76 L2447.28 1215.51 L2464.11 1215.51 L2464.11 1215.88 L2481.06 1215.88 L2481.06 1217.37 L2497.89 1217.37 L2497.89 1219.10 L2514.72 1219.10 L2514.72 1220.83 L2531.55 1220.83 L2531.55 1220.83 L2548.38 1220.83 L2548.38 1221.20 L2565.34 1221.20 L2565.34 1221.08 L2582.17 1221.08 L2582.17 1223.06 L2599.00 1223.06 L2599.00 1224.42 L2615.83 1224.42 L2615.83 1223.43 L2632.66 1223.43 L2632.66 1223.68 L2649.61 1223.68 L2649.61 1224.67 L2666.44 1224.67 L2666.44 1225.53 L2683.27 1225.53 L2683.27 1226.15 L2700.10 1226.15 L2700.10 1226.03 L2716.93 1226.03 L2716.93 1226.40 L2733.89 1226.40 L2733.89 1227.51 L2750.72 1227.51 L2750.72 1227.89 L2767.55 1227.89 L2767.55 1228.38 L2784.38 1228.38 L2784.38 1229.12 L2801.20 1229.12 L2801.20 1229.99 L2818.16 1229.99 L2818.16 1230.36 L2834.99 1230.36 L2834.99 1229.49 L2851.82 1229.49 L2851.82 1229.99 L2868.65 1229.99 L2868.65 1230.24 L2885.48 1230.24 L2885.48 1229.37 L2902.43 1229.37 L2902.43 1230.73 L2919.26 1230.73 L2919.26 1230.98 L2936.09 1230.98 L2936.09 1231.97 L2952.92 1231.97 L2952.92 1232.22 L2969.75 1232.22 L2969.75 1232.34 L2986.71 1232.34 L2986.71 1233.58 L3003.54 1233.58 L3003.54 1234.44 L3020.37 1234.44 L3020.37 1234.32 L3037.20 1234.32 L3037.20 1234.57 L3054.03 1234.57 L3054.03 1235.68 L3070.98 1235.68 L3070.98 1236.30 L3087.81 1236.30 L3087.81 1237.17 L3104.64 1237.17 L3104.64 1237.04 L3121.47 1237.04 L3121.47 1236.18 L3138.30 1236.18 L3138.30 1236.42 L3155.13 1236.42 L3155.13 1237.29 L3172.08 1237.29 L3172.08 1237.79 L3188.91 1237.79 L3188.91 1237.41 L3205.74 1237.41 L3205.74 1238.78 L3222.57 1238.78 L3222.57 1239.52 L3239.40 1239.52 L3239.40 1239.15 L3256.36 1239.15 L3256.36 1239.27 L3273.19 1239.27 L3273.19 1240.39 L3290.02 1240.39 L3290.02 1241.00 L3306.85 1241.00 L3306.85 1241.13 L3323.68 1241.13 L3323.68 1240.88 L3340.63 1240.88 L3340.63 1240.88 L3357.46 1240.88 L3357.46 1240.39 L3374.29 1240.39 L3374.29 1240.14 L3391.12 1240.14 L3391.12 1240.51 L3407.95 1240.51 L3407.95 1240.51 L3424.91 1240.51 L3424.91 1240.51 L3441.74 1240.51 L3441.74 1241.25 L3458.57 1241.25 L3458.57 1241.62 L3475.39 1241.62 L3475.39 1242.74 L3492.22 1242.74 L3492.22 1242.98 L3509.18 1242.98 L3509.18 1243.73 L3526.01 1243.73 L3526.01 1243.97 L3542.84 1243.97 L3542.84 1243.36 L3559.67 1243.36 L3559.67 1243.97 L3576.50 1243.97 L3576.50 1244.35 L3593.45 1244.35 L3593.45 1243.36 L3610.28 1243.36 L3610.28 1243.97 L3627.11 1243.97 L3627.11 1244.10 L3643.94 1244.10 L3643.94 1243.36 L3660.77 1243.36 L3660.77 1243.23 L3677.73 1243.23 L3677.73 1243.23 L3694.56 1243.23 L3694.56 1243.36 L3711.39 1243.36 L3711.39 1243.11 L3728.22 1243.11 L3728.22 1243.73 L3745.05 1243.73 L3745.05 1243.48 L3762.00 1243.48 L3762.00 1244.22 L3778.83 1244.22 L3778.83 1244.84 L3795.66 1244.84 L3795.66 1244.47" stroke-linejoin="round" style="fill:none;stroke:#000000;stroke-width:8.64"/>
	<line x1="559.10" y1="2509.23" x2="559.10" y2="419.90" style="stroke:#000000;stroke-width:5.76"/>
	<line x1="559.10" y1="2445.87" x2="519.13" y2="2445.87" style="stroke:#000000;stroke-width:5.76"/>
	<text x="499.08" y="2480.90" style="font-family:'Helvetica';font-size:99.99px;fill:#000000" text-anchor="end">-0.25</text>
	<line x1="559.10" y1="2249.60" x2="519.13" y2="2249.60" style="stroke:#000000;stroke-width:5.76"/>
	<text x="499.08" y="2284.63" style="font-family:'Helvetica';font-size:99.99px;fill:#000000" text-anchor="end">-0.20</text>
	<line x1="559.10" y1="2053.32" x2="519.13" y2="2053.32" style="stroke:#000000;stroke-width:5.76"/>
	<text x="499.08" y="2088.35" style="font-family:'Helvetica';font-size:99.99px;fill:#000000" text-anchor="end">-0.15</text>
	<line x1="559.10" y1="1857.05" x2="519.13" y2="1857.05" style="stroke:#000000;stroke-width:5.76"/>
	<text x="499.08" y="1892.08" style="font-family:'Helvetica';font-size:99.99px;fill:#000000" text-anchor="end">-0.10</text>
	<line x1="559.10" y1="1660.78" x2="519.13" y2="1660.78" style="stroke:#000000;stroke-width:5.76"/>
	<text x="499.08" y="1695.81" style="font-family:'Helvetica';font-size:99.99px;fill:#000000" text-anchor="end">-0.05</text>
	<line x1="559.10" y1="1464.63" x2="519.13" y2="1464.63" style="stroke:#000000;stroke-width:5.76"/>
	<text x="499.08" y="1499.66" style="font-family:'Helvetica';font-size:99.99px;fill:#000000" text-anchor="end">0.00</text>
	<line x1="559.10" y1="1268.35" x2="519.13" y2="1268.35" style="stroke:#000000;stroke-width:5.76"/>
	<text x="499.08" y="1303.38" style="font-family:'Helvetica';font-size:99.99px;fill:#000000" text-anchor="end">0.05</text>
	<line x1="559.10" y1="1072.08" x2="519.13" y2="1072.08" style="stroke:#000000;stroke-width:5.76"/>
	<text x="499.08" y="1107.11" style="font-family:'Helvetica';font-size:99.99px;fill:#000000" text-anchor="end">0.10</text>
	<line x1="559.10" y1="875.81" x2="519.13" y2="875.81" style="stroke:#000000;stroke-width:5.76"/>
	<text x="499.08" y="910.83" style="font-family:'Helvetica';font-size:99.99px;fill:#000000" text-anchor="end">0.15</text>
	<line x1="559.10" y1="679.53" x2="519.13" y2="679.53" style="stroke:#000000;stroke-width:5.76"/>
	<text x="499.08" y="714.56" style="font-family:'Helvetica';font-size:99.99px;fill:#000000" text-anchor="end">0.20</text>
	<line x1="559.10" y1="483.26" x2="519.13" y2="483.26" style="stroke:#000000;stroke-width:5.76"/>
	<text x="499.08" y="518.29" style="font-family:'Helvetica';font-size:99.99px;fill:#000000" text-anchor="end">0.25</text>
	<text x="190.71" y="1464.63" style="font-family:'Helvetica';font-size:99.99px;fill:#000000" transform="rotate(-90 190.71,1464.63)" text-anchor="middle">Difference in Probabilities</text>
	<line x1="559.10" y1="2509.23" x2="3859.02" y2="2509.23" style="stroke:#000000;stroke-width:5.76"/>
	<line x1="622.46" y1="2509.23" x2="622.46" y2="2549.21" style="stroke:#000000;stroke-width:5.76"/>
	<text x="622.46" y="2625.15" style="font-family:'Helvetica';font-size:79.94px;fill:#000000" text-anchor="middle">0</text>
	<line x1="812.79" y1="2509.23" x2="812.79" y2="2549.21" style="stroke:#000000;stroke-width:5.76"/>
	<text x="812.79" y="2625.15" style="font-family:'Helvetica';font-size:79.94px;fill:#000000" text-anchor="middle">.3</text>
	<line x1="1003.12" y1="2509.23" x2="1003.12" y2="2549.21" style="stroke:#000000;stroke-width:5.76"/>
	<text x="1003.12" y="2625.15" style="font-family:'Helvetica';font-size:79.94px;fill:#000000" text-anchor="middle">.6</text>
	<line x1="1193.44" y1="2509.23" x2="1193.44" y2="2549.21" style="stroke:#000000;stroke-width:5.76"/>
	<text x="1193.44" y="2625.15" style="font-family:'Helvetica';font-size:79.94px;fill:#000000" text-anchor="middle">.9</text>
	<line x1="1383.77" y1="2509.23" x2="1383.77" y2="2549.21" style="stroke:#000000;stroke-width:5.76"/>
	<text x="1383.77" y="2625.15" style="font-family:'Helvetica';font-size:79.94px;fill:#000000" text-anchor="middle">1.2</text>
	<line x1="1574.10" y1="2509.23" x2="1574.10" y2="2549.21" style="stroke:#000000;stroke-width:5.76"/>
	<text x="1574.10" y="2625.15" style="font-family:'Helvetica';font-size:79.94px;fill:#000000" text-anchor="middle">1.5</text>
	<line x1="1764.43" y1="2509.23" x2="1764.43" y2="2549.21" style="stroke:#000000;stroke-width:5.76"/>
	<text x="1764.43" y="2625.15" style="font-family:'Helvetica';font-size:79.94px;fill:#000000" text-anchor="middle">1.8</text>
	<line x1="1954.63" y1="2509.23" x2="1954.63" y2="2549.21" style="stroke:#000000;stroke-width:5.76"/>
	<text x="1954.63" y="2625.15" style="font-family:'Helvetica';font-size:79.94px;fill:#000000" text-anchor="middle">2.1</text>
	<line x1="2144.96" y1="2509.23" x2="2144.96" y2="2549.21" style="stroke:#000000;stroke-width:5.76"/>
	<text x="2144.96" y="2625.15" style="font-family:'Helvetica';font-size:79.94px;fill:#000000" text-anchor="middle">2.4</text>
	<line x1="2335.29" y1="2509.23" x2="2335.29" y2="2549.21" style="stroke:#000000;stroke-width:5.76"/>
	<text x="2335.29" y="2625.15" style="font-family:'Helvetica';font-size:79.94px;fill:#000000" text-anchor="middle">2.7</text>
	<line x1="2525.61" y1="2509.23" x2="2525.61" y2="2549.21" style="stroke:#000000;stroke-width:5.76"/>
	<text x="2525.61" y="2625.15" style="font-family:'Helvetica';font-size:79.94px;fill:#000000" text-anchor="middle">3</text>
	<line x1="2715.94" y1="2509.23" x2="2715.94" y2="2549.21" style="stroke:#000000;stroke-width:5.76"/>
	<text x="2715.94" y="2625.15" style="font-family:'Helvetica';font-size:79.94px;fill:#000000" text-anchor="middle">3.3</text>
	<line x1="2906.27" y1="2509.23" x2="2906.27" y2="2549.21" style="stroke:#000000;stroke-width:5.76"/>
	<text x="2906.27" y="2625.15" style="font-family:'Helvetica';font-size:79.94px;fill:#000000" text-anchor="middle">3.6</text>
	<line x1="3096.60" y1="2509.23" x2="3096.60" y2="2549.21" style="stroke:#000000;stroke-width:5.76"/>
	<text x="3096.60" y="2625.15" style="font-family:'Helvetica';font-size:79.94px;fill:#000000" text-anchor="middle">3.9</text>
	<line x1="3286.92" y1="2509.23" x2="3286.92" y2="2549.21" style="stroke:#000000;stroke-width:5.76"/>
	<text x="3286.92" y="2625.15" style="font-family:'Helvetica';font-size:79.94px;fill:#000000" text-anchor="middle">4.2</text>
	<line x1="3477.25" y1="2509.23" x2="3477.25" y2="2549.21" style="stroke:#000000;stroke-width:5.76"/>
	<text x="3477.25" y="2625.15" style="font-family:'Helvetica';font-size:79.94px;fill:#000000" text-anchor="middle">4.5</text>
	<line x1="3667.58" y1="2509.23" x2="3667.58" y2="2549.21" style="stroke:#000000;stroke-width:5.76"/>
	<text x="3667.58" y="2625.15" style="font-family:'Helvetica';font-size:79.94px;fill:#000000" text-anchor="middle">4.8</text>
	<line x1="3857.91" y1="2509.23" x2="3857.91" y2="2549.21" style="stroke:#000000;stroke-width:5.76"/>
	<text x="3857.91" y="2625.15" style="font-family:'Helvetica';font-size:79.94px;fill:#000000" text-anchor="middle">5.1</text>
	<text x="2209.06" y="2729.16" style="font-family:'Helvetica';font-size:99.99px;fill:#000000" text-anchor="middle">Time (years)</text>
	<rect x="593.63" y="454.42" width="993.34" height="326.46" style="fill:#FFFFFF"/>
	<rect x="596.51" y="457.30" width="987.58" height="320.70" style="fill:none;stroke:#000000;stroke-width:5.76"/>
	<rect x="636.82" y="497.74" width="374.47" height="99.99" style="fill:#999999;fill-opacity:0.65"/>
	<rect x="641.14" y="502.06" width="365.83" height="91.35" style="fill:none;stroke:#808080;stroke-opacity:0.65;stroke-width:8.64"/>
	<line x1="636.82" y1="687.70" x2="1011.28" y2="687.70" style="stroke:#000000;stroke-width:8.64"/>
	<text x="1071.30" y="582.76" style="font-family:'Helvetica';font-size:99.99px;fill:#000000">CI95%</text>
	<text x="1071.30" y="722.73" style="font-family:'Helvetica';font-size:99.99px;fill:#000000">Difference</text>
	<text x="2209.06" y="369.63" style="font-family:'Helvetica';font-size:110.01px;fill:#000000" text-anchor="middle">from Admission to Readmission</text>
	<text x="2209.06" y="215.98" style="font-family:'Helvetica';font-size:139.96px;fill:#1E2D53" text-anchor="middle">Difference in Probabilities</text>
</svg>
