<?xml version="1.0" encoding="UTF-8" standalone="no"?>
<!-- This is a Stata 16.1 generated SVG file (http://www.stata.com) -->

<svg version="1.1" width="5.50in" height="4.00in" viewBox="0 0 3960 2880" xmlns="http://www.w3.org/2000/svg" xmlns:xlink="http://www.w3.org/1999/xlink">
	<desc>Stata Graph - diff_los_mod11_3y_22</desc>
	<rect x="0" y="0" width="3960" height="2880" style="fill:#EAF2F3;stroke:none"/>
	<rect x="0.00" y="0.00" width="3959.88" height="2880.00" style="fill:#FFFFFF"/>
	<rect x="2.88" y="2.88" width="3954.12" height="2874.24" style="fill:none;stroke:#FFFFFF;stroke-width:5.76"/>
	<rect x="390.80" y="419.90" width="3468.22" height="2089.34" style="fill:#FFFFFF"/>
	<rect x="393.68" y="422.78" width="3462.46" height="2083.58" style="fill:none;stroke:#FFFFFF;stroke-width:5.76"/>
	<line x1="390.80" y1="2445.87" x2="3859.02" y2="2445.87" style="stroke:#EAF2F3;stroke-width:8.64"/>
	<line x1="390.80" y1="1791.71" x2="3859.02" y2="1791.71" style="stroke:#EAF2F3;stroke-width:8.64"/>
	<line x1="390.80" y1="1137.42" x2="3859.02" y2="1137.42" style="stroke:#EAF2F3;stroke-width:8.64"/>
	<line x1="390.80" y1="483.26" x2="3859.02" y2="483.26" style="stroke:#EAF2F3;stroke-width:8.64"/>
	<line x1="390.80" y1="483.26" x2="3859.02" y2="483.26" style="stroke:#1A476F;stroke-width:8.64"/>
	<defs>
		<path id="path_JiIEOvFV" d="M618.87 491.43 L618.87 491.43 L636.57 491.43 L636.57 493.78 L654.27 493.78 L654.27 496.50 L672.09 496.50 L672.09 499.47 L689.78 499.47 L689.78 502.69 L707.60 502.69 L707.60 506.28 L725.30 506.28 L725.30 509.99 L743.00 509.99 L743.00 513.95 L760.82 513.95 L760.82 518.03 L778.51 518.03 L778.51 522.49 L796.33 522.49 L796.33 527.19 L814.03 527.19 L814.03 532.14 L831.72 532.14 L831.72 537.34 L849.54 537.34 L849.54 542.78 L867.24 542.78 L867.24 548.35 L885.06 548.35 L885.06 554.17 L902.76 554.17 L902.76 560.11 L920.45 560.11 L920.45 566.17 L938.27 566.17 L938.27 572.36 L955.97 572.36 L955.97 578.80 L973.66 578.80 L973.66 585.36 L991.49 585.36 L991.49 592.04 L1009.18 592.04 L1009.18 598.84 L1027.00 598.84 L1027.00 605.78 L1044.70 605.78 L1044.70 612.95 L1062.39 612.95 L1062.39 620.13 L1080.21 620.13 L1080.21 627.56 L1097.91 627.56 L1097.91 634.98 L1115.73 634.98 L1115.73 642.65 L1133.43 642.65 L1133.43 650.33 L1151.12 650.33 L1151.12 658.12 L1168.94 658.12 L1168.94 666.17 L1186.64 666.17 L1186.64 674.21 L1204.46 674.21 L1204.46 682.38 L1222.15 682.38 L1222.15 690.55 L1239.85 690.55 L1239.85 698.84 L1257.67 698.84 L1257.67 707.25 L1275.37 707.25 L1275.37 715.67 L1293.19 715.67 L1293.19 724.21 L1310.88 724.21 L1310.88 732.87 L1328.58 732.87 L1328.58 741.66 L1346.40 741.66 L1346.40 750.32 L1364.10 750.32 L1364.10 759.23 L1381.92 759.23 L1381.92 768.14 L1399.61 768.14 L1399.61 777.05 L1417.31 777.05 L1417.31 786.21 L1435.13 786.21 L1435.13 795.37 L1452.83 795.37 L1452.83 804.52 L1470.64 804.52 L1470.64 813.81 L1488.34 813.81 L1488.34 823.09 L1506.04 823.09 L1506.04 832.37 L1523.86 832.37 L1523.86 841.77 L1541.55 841.77 L1541.55 851.18 L1559.37 851.18 L1559.37 860.71 L1577.07 860.71 L1577.07 870.24 L1594.77 870.24 L1594.77 879.89 L1612.59 879.89 L1612.59 889.54 L1630.28 889.54 L1630.28 899.32 L1648.10 899.32 L1648.10 909.10 L1665.80 909.10 L1665.80 918.87 L1683.49 918.87 L1683.49 928.90 L1701.32 928.90 L1701.32 938.80 L1719.01 938.80 L1719.01 948.70 L1736.83 948.70 L1736.83 958.72 L1754.53 958.72 L1754.53 968.75 L1772.22 968.75 L1772.22 978.89 L1790.04 978.89 L1790.04 989.04 L1807.74 989.04 L1807.74 999.06 L1825.56 999.06 L1825.56 1009.21 L1843.26 1009.21 L1843.26 1019.48 L1860.95 1019.48 L1860.95 1029.76 L1878.77 1029.76 L1878.77 1040.03 L1896.47 1040.03 L1896.47 1050.30 L1914.29 1050.30 L1914.29 1060.57 L1931.98 1060.57 L1931.98 1070.97 L1949.68 1070.97 L1949.68 1081.36 L1967.50 1081.36 L1967.50 1091.76 L1985.20 1091.76 L1985.20 1102.15 L2003.02 1102.15 L2003.02 1112.55 L2020.71 1112.55 L2020.71 1123.07 L2038.41 1123.07 L2038.41 1133.46 L2056.23 1133.46 L2056.23 1143.98 L2073.93 1143.98 L2073.93 1154.50 L2091.75 1154.50 L2091.75 1164.90 L2109.44 1164.90 L2109.44 1175.54 L2127.14 1175.54 L2127.14 1186.06 L2144.96 1186.06 L2144.96 1196.70 L2162.66 1196.70 L2162.66 1207.34 L2180.47 1207.34 L2180.47 1217.86 L2198.17 1217.86 L2198.17 1228.50 L2215.87 1228.50 L2215.87 1239.27 L2233.69 1239.27 L2233.69 1249.91 L2251.38 1249.91 L2251.38 1260.56 L2269.20 1260.56 L2269.20 1271.32 L2286.90 1271.32 L2286.90 1282.09 L2304.60 1282.09 L2304.60 1292.73 L2322.42 1292.73 L2322.42 1303.50 L2340.11 1303.50 L2340.11 1314.27 L2357.93 1314.27 L2357.93 1325.16 L2375.63 1325.16 L2375.63 1335.92 L2393.32 1335.92 L2393.32 1346.81 L2411.14 1346.81 L2411.14 1357.70 L2428.84 1357.70 L2428.84 1368.59 L2446.66 1368.59 L2446.66 1379.48 L2464.36 1379.48 L2464.36 1390.50 L2482.05 1390.50 L2482.05 1401.39 L2499.87 1401.39 L2499.87 1412.40 L2517.57 1412.40 L2517.57 1423.42 L2535.39 1423.42 L2535.39 1434.31 L2553.09 1434.31 L2553.09 1445.32 L2570.78 1445.32 L2570.78 1456.34 L2588.60 1456.34 L2588.60 1467.23 L2606.30 1467.23 L2606.30 1478.24 L2624.12 1478.24 L2624.12 1489.25 L2641.82 1489.25 L2641.82 1500.27 L2659.51 1500.27 L2659.51 1511.41 L2677.33 1511.41 L2677.33 1522.42 L2695.03 1522.42 L2695.03 1533.56 L2712.85 1533.56 L2712.85 1544.57 L2730.54 1544.57 L2730.54 1555.71 L2748.24 1555.71 L2748.24 1566.72 L2766.06 1566.72 L2766.06 1577.86 L2783.76 1577.86 L2783.76 1589.00 L2801.58 1589.00 L2801.58 1600.14 L2819.27 1600.14 L2819.27 1611.28 L2836.97 1611.28 L2836.97 1622.41 L2854.79 1622.41 L2854.79 1633.55 L2872.49 1633.55 L2872.49 1644.69 L2890.18 1644.69 L2890.18 1655.95 L2908.00 1655.95 L2908.00 1667.09 L2925.70 1667.09 L2925.70 1678.35 L2943.52 1678.35 L2943.52 1689.61 L2961.21 1689.61 L2961.21 1700.75 L2978.91 1700.75 L2978.91 1712.01 L2996.73 1712.01 L2996.73 1723.27 L3014.43 1723.27 L3014.43 1734.53 L3032.25 1734.53 L3032.25 1745.80 L3049.94 1745.80 L3049.94 1757.06 L3067.64 1757.06 L3067.64 1768.32 L3085.46 1768.32 L3085.46 1779.58 L3103.16 1779.58 L3103.16 1790.84 L3120.97 1790.84 L3120.97 1802.10 L3138.67 1802.10 L3138.67 1813.49 L3156.37 1813.49 L3156.37 1824.75 L3174.19 1824.75 L3174.19 1836.14 L3191.88 1836.14 L3191.88 1847.65 L3209.70 1847.65 L3209.70 1859.03 L3227.40 1859.03 L3227.40 1870.54 L3245.10 1870.54 L3245.10 1881.93 L3262.92 1881.93 L3262.92 1893.43 L3280.61 1893.43 L3280.61 1904.82 L3298.43 1904.82 L3298.43 1916.33 L3316.13 1916.33 L3316.13 1927.84 L3333.82 1927.84 L3333.82 1939.22 L3351.64 1939.22 L3351.64 1950.73 L3369.34 1950.73 L3369.34 1962.24 L3387.16 1962.24 L3387.16 1973.87 L3404.86 1973.87 L3404.86 1985.38 L3422.55 1985.38 L3422.55 1996.89 L3440.37 1996.89 L3440.37 2008.40 L3458.07 2008.40 L3458.07 2019.91 L3475.89 2019.91 L3475.89 2031.54 L3493.59 2031.54 L3493.59 2043.05 L3511.28 2043.05 L3511.28 2054.56 L3529.10 2054.56 L3529.10 2066.19 L3546.80 2066.19 L3546.80 2077.70 L3564.62 2077.70 L3564.62 2089.21 L3582.32 2089.21 L3582.32 2100.85 L3600.01 2100.85 L3600.01 2112.35 L3617.83 2112.35 L3617.83 2123.99 L3635.53 2123.99 L3635.53 2135.50 L3653.35 2135.50 L3653.35 2147.13 L3671.04 2147.13 L3671.04 2158.64 L3688.74 2158.64 L3688.74 2170.27 L3706.56 2170.27 L3706.56 2181.90 L3724.26 2181.90 L3724.26 2193.41 L3742.08 2193.41 L3742.08 2205.05 L3759.77 2205.05 L3759.77 2216.56 L3777.47 2216.56 L3777.47 2228.19 L3795.29 2228.19 L3795.29 2239.70 L3795.29 1832.42 L3795.29 1823.64 L3777.47 1823.64 L3777.47 1814.73 L3759.77 1814.73 L3759.77 1805.94 L3742.08 1805.94 L3742.08 1797.03 L3724.26 1797.03 L3724.26 1788.12 L3706.56 1788.12 L3706.56 1779.33 L3688.74 1779.33 L3688.74 1770.42 L3671.04 1770.42 L3671.04 1761.51 L3653.35 1761.51 L3653.35 1752.73 L3635.53 1752.73 L3635.53 1743.82 L3617.83 1743.82 L3617.83 1734.91 L3600.01 1734.91 L3600.01 1726.12 L3582.32 1726.12 L3582.32 1717.21 L3564.62 1717.21 L3564.62 1708.42 L3546.80 1708.42 L3546.80 1699.51 L3529.10 1699.51 L3529.10 1690.73 L3511.28 1690.73 L3511.28 1681.82 L3493.59 1681.82 L3493.59 1673.03 L3475.89 1673.03 L3475.89 1664.12 L3458.07 1664.12 L3458.07 1655.33 L3440.37 1655.33 L3440.37 1646.55 L3422.55 1646.55 L3422.55 1637.63 L3404.86 1637.63 L3404.86 1628.85 L3387.16 1628.85 L3387.16 1619.94 L3369.34 1619.94 L3369.34 1611.15 L3351.64 1611.15 L3351.64 1602.37 L3333.82 1602.37 L3333.82 1593.58 L3316.13 1593.58 L3316.13 1584.79 L3298.43 1584.79 L3298.43 1576.01 L3280.61 1576.01 L3280.61 1567.22 L3262.92 1567.22 L3262.92 1558.43 L3245.10 1558.43 L3245.10 1549.65 L3227.40 1549.65 L3227.40 1540.86 L3209.70 1540.86 L3209.70 1532.07 L3191.88 1532.07 L3191.88 1523.41 L3174.19 1523.41 L3174.19 1514.62 L3156.37 1514.62 L3156.37 1505.96 L3138.67 1505.96 L3138.67 1497.30 L3120.97 1497.30 L3120.97 1488.64 L3103.16 1488.64 L3103.16 1480.10 L3085.46 1480.10 L3085.46 1471.43 L3067.64 1471.43 L3067.64 1462.89 L3049.94 1462.89 L3049.94 1454.23 L3032.25 1454.23 L3032.25 1445.69 L3014.43 1445.69 L3014.43 1437.03 L2996.73 1437.03 L2996.73 1428.37 L2978.91 1428.37 L2978.91 1419.83 L2961.21 1419.83 L2961.21 1411.17 L2943.52 1411.17 L2943.52 1402.63 L2925.70 1402.63 L2925.70 1393.96 L2908.00 1393.96 L2908.00 1385.42 L2890.18 1385.42 L2890.18 1376.76 L2872.49 1376.76 L2872.49 1368.22 L2854.79 1368.22 L2854.79 1359.68 L2836.97 1359.68 L2836.97 1351.14 L2819.27 1351.14 L2819.27 1342.61 L2801.58 1342.61 L2801.58 1334.07 L2783.76 1334.07 L2783.76 1325.53 L2766.06 1325.53 L2766.06 1317.11 L2748.24 1317.11 L2748.24 1308.57 L2730.54 1308.57 L2730.54 1300.03 L2712.85 1300.03 L2712.85 1291.50 L2695.03 1291.50 L2695.03 1282.96 L2677.33 1282.96 L2677.33 1274.54 L2659.51 1274.54 L2659.51 1266.00 L2641.82 1266.00 L2641.82 1257.59 L2624.12 1257.59 L2624.12 1249.05 L2606.30 1249.05 L2606.30 1240.63 L2588.60 1240.63 L2588.60 1232.22 L2570.78 1232.22 L2570.78 1223.80 L2553.09 1223.80 L2553.09 1215.39 L2535.39 1215.39 L2535.39 1206.97 L2517.57 1206.97 L2517.57 1198.56 L2499.87 1198.56 L2499.87 1190.14 L2482.05 1190.14 L2482.05 1181.73 L2464.36 1181.73 L2464.36 1173.31 L2446.66 1173.31 L2446.66 1164.90 L2428.84 1164.90 L2428.84 1156.60 L2411.14 1156.60 L2411.14 1148.19 L2393.32 1148.19 L2393.32 1139.90 L2375.63 1139.90 L2375.63 1131.61 L2357.93 1131.61 L2357.93 1123.31 L2340.11 1123.31 L2340.11 1115.02 L2322.42 1115.02 L2322.42 1106.85 L2304.60 1106.85 L2304.60 1098.56 L2286.90 1098.56 L2286.90 1090.27 L2269.20 1090.27 L2269.20 1082.10 L2251.38 1082.10 L2251.38 1073.81 L2233.69 1073.81 L2233.69 1065.64 L2215.87 1065.64 L2215.87 1057.48 L2198.17 1057.48 L2198.17 1049.31 L2180.47 1049.31 L2180.47 1041.14 L2162.66 1041.14 L2162.66 1032.97 L2144.96 1032.97 L2144.96 1024.81 L2127.14 1024.81 L2127.14 1016.64 L2109.44 1016.64 L2109.44 1008.59 L2091.75 1008.59 L2091.75 1000.43 L2073.93 1000.43 L2073.93 992.38 L2056.23 992.38 L2056.23 984.34 L2038.41 984.34 L2038.41 976.29 L2020.71 976.29 L2020.71 968.25 L2003.02 968.25 L2003.02 960.21 L1985.20 960.21 L1985.20 952.16 L1967.50 952.16 L1967.50 944.12 L1949.68 944.12 L1949.68 936.07 L1931.98 936.07 L1931.98 928.15 L1914.29 928.15 L1914.29 920.11 L1896.47 920.11 L1896.47 912.19 L1878.77 912.19 L1878.77 904.27 L1860.95 904.27 L1860.95 896.35 L1843.26 896.35 L1843.26 888.43 L1825.56 888.43 L1825.56 880.63 L1807.74 880.63 L1807.74 872.84 L1790.04 872.84 L1790.04 864.92 L1772.22 864.92 L1772.22 857.12 L1754.53 857.12 L1754.53 849.45 L1736.83 849.45 L1736.83 841.65 L1719.01 841.65 L1719.01 833.98 L1701.32 833.98 L1701.32 826.30 L1683.49 826.30 L1683.49 818.63 L1665.80 818.63 L1665.80 810.96 L1648.10 810.96 L1648.10 803.41 L1630.28 803.41 L1630.28 795.86 L1612.59 795.86 L1612.59 788.44 L1594.77 788.44 L1594.77 781.01 L1577.07 781.01 L1577.07 773.71 L1559.37 773.71 L1559.37 766.28 L1541.55 766.28 L1541.55 758.98 L1523.86 758.98 L1523.86 751.80 L1506.04 751.80 L1506.04 744.63 L1488.34 744.63 L1488.34 737.45 L1470.64 737.45 L1470.64 730.27 L1452.83 730.27 L1452.83 723.22 L1435.13 723.22 L1435.13 716.16 L1417.31 716.16 L1417.31 709.11 L1399.61 709.11 L1399.61 702.18 L1381.92 702.18 L1381.92 695.25 L1364.10 695.25 L1364.10 688.44 L1346.40 688.44 L1346.40 681.76 L1328.58 681.76 L1328.58 674.95 L1310.88 674.95 L1310.88 668.27 L1293.19 668.27 L1293.19 661.71 L1275.37 661.71 L1275.37 655.15 L1257.67 655.15 L1257.67 648.72 L1239.85 648.72 L1239.85 642.28 L1222.15 642.28 L1222.15 635.97 L1204.46 635.97 L1204.46 629.66 L1186.64 629.66 L1186.64 623.35 L1168.94 623.35 L1168.94 617.16 L1151.12 617.16 L1151.12 611.10 L1133.43 611.10 L1133.43 605.16 L1115.73 605.16 L1115.73 599.34 L1097.91 599.34 L1097.91 593.52 L1080.21 593.52 L1080.21 587.83 L1062.39 587.83 L1062.39 582.26 L1044.70 582.26 L1044.70 576.82 L1027.00 576.82 L1027.00 571.50 L1009.18 571.50 L1009.18 566.17 L991.49 566.17 L991.49 560.98 L973.66 560.98 L973.66 556.03 L955.97 556.03 L955.97 551.08 L938.27 551.08 L938.27 546.25 L920.45 546.25 L920.45 541.67 L902.76 541.67 L902.76 537.09 L885.06 537.09 L885.06 532.64 L867.24 532.64 L867.24 528.31 L849.54 528.31 L849.54 524.10 L831.72 524.10 L831.72 520.14 L814.03 520.14 L814.03 516.30 L796.33 516.30 L796.33 512.71 L778.51 512.71 L778.51 509.37 L760.82 509.37 L760.82 506.28 L743.00 506.28 L743.00 503.18 L725.30 503.18 L725.30 500.34 L707.60 500.34 L707.60 497.74 L689.78 497.74 L689.78 495.26 L672.09 495.26 L672.09 493.04 L654.27 493.04 L654.27 490.93 L636.57 490.93 L636.57 489.20 L618.87 489.20 L618.87 491.43 Z" stroke-linejoin="round"/>
	</defs>
	<defs>
		<clipPath id="clipPath_uuTTtxVm">
			<use xlink:href="#path_JiIEOvFV"/>
		</clipPath>
	</defs>
	<use xlink:href="#path_JiIEOvFV" style="stroke:none;fill:#999999;fill-opacity:0.65"/>
	<use xlink:href="#path_JiIEOvFV" style="fill:none;stroke:#808080;stroke-opacity:0.65;stroke-width:17.28" clip-path="url(#clipPath_uuTTtxVm)"/>
	<path d=" M618.75 490.44 L636.45 490.44 L636.45 492.42 L654.27 492.42 L654.27 494.77 L671.96 494.77 L671.96 497.49 L689.78 497.49 L689.78 500.34 L707.48 500.34 L707.48 503.43 L725.17 503.43 L725.17 506.65 L743.00 506.65 L743.00 510.11 L760.69 510.11 L760.69 513.83 L778.51 513.83 L778.51 517.66 L796.21 517.66 L796.21 521.87 L813.90 521.87 L813.90 526.20 L831.72 526.20 L831.72 530.78 L849.42 530.78 L849.42 535.61 L867.24 535.61 L867.24 540.56 L884.94 540.56 L884.94 545.63 L902.63 545.63 L902.63 550.95 L920.45 550.95 L920.45 556.27 L938.15 556.27 L938.15 561.84 L955.97 561.84 L955.97 567.41 L973.66 567.41 L973.66 573.23 L991.36 573.23 L991.36 579.17 L1009.18 579.17 L1009.18 585.23 L1026.88 585.23 L1026.88 591.42 L1044.70 591.42 L1044.70 597.61 L1062.39 597.61 L1062.39 604.04 L1080.09 604.04 L1080.09 610.60 L1097.91 610.60 L1097.91 617.28 L1115.61 617.28 L1115.61 623.97 L1133.43 623.97 L1133.43 630.77 L1151.12 630.77 L1151.12 637.70 L1168.82 637.70 L1168.82 644.76 L1186.64 644.76 L1186.64 651.94 L1204.34 651.94 L1204.34 659.24 L1222.15 659.24 L1222.15 666.54 L1239.85 666.54 L1239.85 673.84 L1257.55 673.84 L1257.55 681.27 L1275.37 681.27 L1275.37 688.81 L1293.06 688.81 L1293.06 696.36 L1310.88 696.36 L1310.88 704.04 L1328.58 704.04 L1328.58 711.71 L1346.28 711.71 L1346.28 719.50 L1364.10 719.50 L1364.10 727.30 L1381.79 727.30 L1381.79 735.22 L1399.61 735.22 L1399.61 743.14 L1417.31 743.14 L1417.31 751.19 L1435.01 751.19 L1435.01 759.35 L1452.83 759.35 L1452.83 767.52 L1470.52 767.52 L1470.52 775.69 L1488.34 775.69 L1488.34 783.86 L1506.04 783.86 L1506.04 792.15 L1523.73 792.15 L1523.73 800.44 L1541.55 800.44 L1541.55 808.86 L1559.25 808.86 L1559.25 817.27 L1577.07 817.27 L1577.07 825.69 L1594.77 825.69 L1594.77 834.22 L1612.46 834.22 L1612.46 842.76 L1630.28 842.76 L1630.28 851.43 L1647.98 851.43 L1647.98 860.09 L1665.80 860.09 L1665.80 868.88 L1683.49 868.88 L1683.49 877.66 L1701.19 877.66 L1701.19 886.45 L1719.01 886.45 L1719.01 895.24 L1736.71 895.24 L1736.71 904.15 L1754.53 904.15 L1754.53 913.06 L1772.22 913.06 L1772.22 921.97 L1789.92 921.97 L1789.92 931.00 L1807.74 931.00 L1807.74 939.91 L1825.44 939.91 L1825.44 948.94 L1843.26 948.94 L1843.26 957.98 L1860.95 957.98 L1860.95 967.01 L1878.65 967.01 L1878.65 976.17 L1896.47 976.17 L1896.47 985.20 L1914.16 985.20 L1914.16 994.36 L1931.86 994.36 L1931.86 1003.64 L1949.68 1003.64 L1949.68 1012.80 L1967.38 1012.80 L1967.38 1021.96 L1985.20 1021.96 L1985.20 1031.24 L2002.89 1031.24 L2002.89 1040.40 L2020.59 1040.40 L2020.59 1049.68 L2038.41 1049.68 L2038.41 1058.96 L2056.11 1058.96 L2056.11 1068.24 L2073.93 1068.24 L2073.93 1077.52 L2091.62 1077.52 L2091.62 1086.81 L2109.32 1086.81 L2109.32 1096.09 L2127.14 1096.09 L2127.14 1105.49 L2144.84 1105.49 L2144.84 1114.90 L2162.66 1114.90 L2162.66 1124.30 L2180.35 1124.30 L2180.35 1133.71 L2198.05 1133.71 L2198.05 1143.11 L2215.87 1143.11 L2215.87 1152.52 L2233.56 1152.52 L2233.56 1161.93 L2251.38 1161.93 L2251.38 1171.33 L2269.08 1171.33 L2269.08 1180.86 L2286.78 1180.86 L2286.78 1190.39 L2304.60 1190.39 L2304.60 1199.92 L2322.29 1199.92 L2322.29 1209.32 L2340.11 1209.32 L2340.11 1218.85 L2357.81 1218.85 L2357.81 1228.38 L2375.51 1228.38 L2375.51 1237.91 L2393.32 1237.91 L2393.32 1247.56 L2411.02 1247.56 L2411.02 1257.22 L2428.84 1257.22 L2428.84 1266.87 L2446.54 1266.87 L2446.54 1276.52 L2464.23 1276.52 L2464.23 1286.17 L2482.05 1286.17 L2482.05 1295.83 L2499.75 1295.83 L2499.75 1305.60 L2517.57 1305.60 L2517.57 1315.26 L2535.27 1315.26 L2535.27 1324.91 L2552.96 1324.91 L2552.96 1334.69 L2570.78 1334.69 L2570.78 1344.34 L2588.48 1344.34 L2588.48 1353.99 L2606.30 1353.99 L2606.30 1363.77 L2623.99 1363.77 L2623.99 1373.42 L2641.69 1373.42 L2641.69 1383.20 L2659.51 1383.20 L2659.51 1392.97 L2677.21 1392.97 L2677.21 1402.75 L2695.03 1402.75 L2695.03 1412.53 L2712.72 1412.53 L2712.72 1422.43 L2730.42 1422.43 L2730.42 1432.20 L2748.24 1432.20 L2748.24 1441.98 L2765.94 1441.98 L2765.94 1451.76 L2783.76 1451.76 L2783.76 1461.53 L2801.45 1461.53 L2801.45 1471.43 L2819.15 1471.43 L2819.15 1481.21 L2836.97 1481.21 L2836.97 1491.11 L2854.66 1491.11 L2854.66 1501.01 L2872.49 1501.01 L2872.49 1510.79 L2890.18 1510.79 L2890.18 1520.69 L2907.88 1520.69 L2907.88 1530.59 L2925.70 1530.59 L2925.70 1540.49 L2943.39 1540.49 L2943.39 1550.39 L2961.21 1550.39 L2961.21 1560.41 L2978.91 1560.41 L2978.91 1570.31 L2996.61 1570.31 L2996.61 1580.21 L3014.43 1580.21 L3014.43 1590.11 L3032.12 1590.11 L3032.12 1600.14 L3049.94 1600.14 L3049.94 1610.04 L3067.64 1610.04 L3067.64 1619.94 L3085.34 1619.94 L3085.34 1629.84 L3103.16 1629.84 L3103.16 1639.86 L3120.85 1639.86 L3120.85 1649.76 L3138.67 1649.76 L3138.67 1659.79 L3156.37 1659.79 L3156.37 1669.81 L3174.06 1669.81 L3174.06 1679.83 L3191.88 1679.83 L3191.88 1689.86 L3209.58 1689.86 L3209.58 1700.01 L3227.40 1700.01 L3227.40 1710.15 L3245.10 1710.15 L3245.10 1720.18 L3262.79 1720.18 L3262.79 1730.33 L3280.61 1730.33 L3280.61 1740.47 L3298.31 1740.47 L3298.31 1750.62 L3316.13 1750.62 L3316.13 1760.77 L3333.82 1760.77 L3333.82 1770.92 L3351.52 1770.92 L3351.52 1781.07 L3369.34 1781.07 L3369.34 1791.21 L3387.04 1791.21 L3387.04 1801.36 L3404.86 1801.36 L3404.86 1811.51 L3422.55 1811.51 L3422.55 1821.78 L3440.25 1821.78 L3440.25 1831.93 L3458.07 1831.93 L3458.07 1842.08 L3475.77 1842.08 L3475.77 1852.35 L3493.59 1852.35 L3493.59 1862.50 L3511.28 1862.50 L3511.28 1872.64 L3528.98 1872.64 L3528.98 1882.92 L3546.80 1882.92 L3546.80 1893.06 L3564.49 1893.06 L3564.49 1903.33 L3582.32 1903.33 L3582.32 1913.48 L3600.01 1913.48 L3600.01 1923.75 L3617.71 1923.75 L3617.71 1933.90 L3635.53 1933.90 L3635.53 1944.17 L3653.22 1944.17 L3653.22 1954.44 L3671.04 1954.44 L3671.04 1964.59 L3688.74 1964.59 L3688.74 1974.86 L3706.44 1974.86 L3706.44 1985.01 L3724.26 1985.01 L3724.26 1995.28 L3741.95 1995.28 L3741.95 2005.56 L3759.77 2005.56 L3759.77 2015.70 L3777.47 2015.70 L3777.47 2025.97 L3795.16 2025.97 L3795.16 2036.12" stroke-linejoin="round" style="fill:none;stroke:#000000;stroke-width:8.64"/>
	<line x1="390.80" y1="2509.23" x2="390.80" y2="419.90" style="stroke:#000000;stroke-width:5.76"/>
	<line x1="390.80" y1="2445.87" x2="350.83" y2="2445.87" style="stroke:#000000;stroke-width:5.76"/>
	<text x="300.72" y="2445.87" style="font-family:'Helvetica';font-size:99.99px;fill:#000000" transform="rotate(-90 300.72,2445.87)" text-anchor="middle">-150</text>
	<line x1="390.80" y1="1791.71" x2="350.83" y2="1791.71" style="stroke:#000000;stroke-width:5.76"/>
	<text x="300.72" y="1791.71" style="font-family:'Helvetica';font-size:99.99px;fill:#000000" transform="rotate(-90 300.72,1791.71)" text-anchor="middle">-100</text>
	<line x1="390.80" y1="1137.42" x2="350.83" y2="1137.42" style="stroke:#000000;stroke-width:5.76"/>
	<text x="300.72" y="1137.42" style="font-family:'Helvetica';font-size:99.99px;fill:#000000" transform="rotate(-90 300.72,1137.42)" text-anchor="middle">-50</text>
	<line x1="390.80" y1="483.26" x2="350.83" y2="483.26" style="stroke:#000000;stroke-width:5.76"/>
	<text x="300.72" y="483.26" style="font-family:'Helvetica';font-size:99.99px;fill:#000000" transform="rotate(-90 300.72,483.26)" text-anchor="middle">0</text>
	<text x="190.71" y="1464.63" style="font-family:'Helvetica';font-size:99.99px;fill:#000000" transform="rotate(-90 190.71,1464.63)" text-anchor="middle">Difference in Lengths</text>
	<line x1="390.80" y1="2509.23" x2="3859.02" y2="2509.23" style="stroke:#000000;stroke-width:5.76"/>
	<line x1="454.16" y1="2509.23" x2="454.16" y2="2549.21" style="stroke:#000000;stroke-width:5.76"/>
	<text x="454.16" y="2625.15" style="font-family:'Helvetica';font-size:79.94px;fill:#000000" text-anchor="middle">0</text>
	<line x1="654.64" y1="2509.23" x2="654.64" y2="2549.21" style="stroke:#000000;stroke-width:5.76"/>
	<text x="654.64" y="2625.15" style="font-family:'Helvetica';font-size:79.94px;fill:#000000" text-anchor="middle">.3</text>
	<line x1="855.11" y1="2509.23" x2="855.11" y2="2549.21" style="stroke:#000000;stroke-width:5.76"/>
	<text x="855.11" y="2625.15" style="font-family:'Helvetica';font-size:79.94px;fill:#000000" text-anchor="middle">.6</text>
	<line x1="1055.59" y1="2509.23" x2="1055.59" y2="2549.21" style="stroke:#000000;stroke-width:5.76"/>
	<text x="1055.59" y="2625.15" style="font-family:'Helvetica';font-size:79.94px;fill:#000000" text-anchor="middle">.9</text>
	<line x1="1256.06" y1="2509.23" x2="1256.06" y2="2549.21" style="stroke:#000000;stroke-width:5.76"/>
	<text x="1256.06" y="2625.15" style="font-family:'Helvetica';font-size:79.94px;fill:#000000" text-anchor="middle">1.2</text>
	<line x1="1456.66" y1="2509.23" x2="1456.66" y2="2549.21" style="stroke:#000000;stroke-width:5.76"/>
	<text x="1456.66" y="2625.15" style="font-family:'Helvetica';font-size:79.94px;fill:#000000" text-anchor="middle">1.5</text>
	<line x1="1657.14" y1="2509.23" x2="1657.14" y2="2549.21" style="stroke:#000000;stroke-width:5.76"/>
	<text x="1657.14" y="2625.15" style="font-family:'Helvetica';font-size:79.94px;fill:#000000" text-anchor="middle">1.8</text>
	<line x1="1857.61" y1="2509.23" x2="1857.61" y2="2549.21" style="stroke:#000000;stroke-width:5.76"/>
	<text x="1857.61" y="2625.15" style="font-family:'Helvetica';font-size:79.94px;fill:#000000" text-anchor="middle">2.1</text>
	<line x1="2058.09" y1="2509.23" x2="2058.09" y2="2549.21" style="stroke:#000000;stroke-width:5.76"/>
	<text x="2058.09" y="2625.15" style="font-family:'Helvetica';font-size:79.94px;fill:#000000" text-anchor="middle">2.4</text>
	<line x1="2258.56" y1="2509.23" x2="2258.56" y2="2549.21" style="stroke:#000000;stroke-width:5.76"/>
	<text x="2258.56" y="2625.15" style="font-family:'Helvetica';font-size:79.94px;fill:#000000" text-anchor="middle">2.7</text>
	<line x1="2459.04" y1="2509.23" x2="2459.04" y2="2549.21" style="stroke:#000000;stroke-width:5.76"/>
	<text x="2459.04" y="2625.15" style="font-family:'Helvetica';font-size:79.94px;fill:#000000" text-anchor="middle">3</text>
	<line x1="2659.64" y1="2509.23" x2="2659.64" y2="2549.21" style="stroke:#000000;stroke-width:5.76"/>
	<text x="2659.64" y="2625.15" style="font-family:'Helvetica';font-size:79.94px;fill:#000000" text-anchor="middle">3.3</text>
	<line x1="2860.11" y1="2509.23" x2="2860.11" y2="2549.21" style="stroke:#000000;stroke-width:5.76"/>
	<text x="2860.11" y="2625.15" style="font-family:'Helvetica';font-size:79.94px;fill:#000000" text-anchor="middle">3.6</text>
	<line x1="3060.59" y1="2509.23" x2="3060.59" y2="2549.21" style="stroke:#000000;stroke-width:5.76"/>
	<text x="3060.59" y="2625.15" style="font-family:'Helvetica';font-size:79.94px;fill:#000000" text-anchor="middle">3.9</text>
	<line x1="3261.06" y1="2509.23" x2="3261.06" y2="2549.21" style="stroke:#000000;stroke-width:5.76"/>
	<text x="3261.06" y="2625.15" style="font-family:'Helvetica';font-size:79.94px;fill:#000000" text-anchor="middle">4.2</text>
	<line x1="3461.53" y1="2509.23" x2="3461.53" y2="2549.21" style="stroke:#000000;stroke-width:5.76"/>
	<text x="3461.53" y="2625.15" style="font-family:'Helvetica';font-size:79.94px;fill:#000000" text-anchor="middle">4.5</text>
	<line x1="3662.01" y1="2509.23" x2="3662.01" y2="2549.21" style="stroke:#000000;stroke-width:5.76"/>
	<text x="3662.01" y="2625.15" style="font-family:'Helvetica';font-size:79.94px;fill:#000000" text-anchor="middle">4.8</text>
	<line x1="3862.61" y1="2509.23" x2="3862.61" y2="2549.21" style="stroke:#000000;stroke-width:5.76"/>
	<text x="3862.61" y="2625.15" style="font-family:'Helvetica';font-size:79.94px;fill:#000000" text-anchor="middle">5.1</text>
	<text x="2124.91" y="2729.16" style="font-family:'Helvetica';font-size:99.99px;fill:#000000" text-anchor="middle">Time (years)</text>
	<rect x="425.33" y="2148.24" width="993.22" height="326.46" style="fill:#FFFFFF"/>
	<rect x="428.21" y="2151.12" width="987.46" height="320.70" style="fill:none;stroke:#000000;stroke-width:5.76"/>
	<rect x="468.52" y="2191.43" width="374.47" height="99.99" style="fill:#999999;fill-opacity:0.65"/>
	<rect x="472.84" y="2195.75" width="365.83" height="91.35" style="fill:none;stroke:#808080;stroke-opacity:0.65;stroke-width:8.64"/>
	<line x1="468.52" y1="2381.52" x2="842.99" y2="2381.52" style="stroke:#000000;stroke-width:8.64"/>
	<text x="902.88" y="2276.46" style="font-family:'Helvetica';font-size:99.99px;fill:#000000">CI95%</text>
	<text x="902.88" y="2416.55" style="font-family:'Helvetica';font-size:99.99px;fill:#000000">Difference</text>
	<text x="2124.91" y="369.63" style="font-family:'Helvetica';font-size:110.01px;fill:#000000" text-anchor="middle">from Admission</text>
	<text x="2124.91" y="215.98" style="font-family:'Helvetica';font-size:139.96px;fill:#1E2D53" text-anchor="middle">Difference in Lengths of Stay (1st patient) (3 years)</text>
</svg>
