<?xml version="1.0" encoding="UTF-8" standalone="no"?>
<!-- This is a Stata 16.1 generated SVG file (http://www.stata.com) -->

<svg version="1.1" width="5.50in" height="4.00in" viewBox="0 0 3960 2880" xmlns="http://www.w3.org/2000/svg" xmlns:xlink="http://www.w3.org/1999/xlink">
	<desc>Stata Graph - diff_mod23_3y_22</desc>
	<rect x="0" y="0" width="3960" height="2880" style="fill:#EAF2F3;stroke:none"/>
	<rect x="0.00" y="0.00" width="3959.88" height="2880.00" style="fill:#FFFFFF"/>
	<rect x="2.88" y="2.88" width="3954.12" height="2874.24" style="fill:none;stroke:#FFFFFF;stroke-width:5.76"/>
	<rect x="559.10" y="419.90" width="3299.92" height="2089.34" style="fill:#FFFFFF"/>
	<rect x="561.98" y="422.78" width="3294.16" height="2083.58" style="fill:none;stroke:#FFFFFF;stroke-width:5.76"/>
	<line x1="559.10" y1="2249.60" x2="3859.02" y2="2249.60" style="stroke:#EAF2F3;stroke-width:8.64"/>
	<line x1="559.10" y1="2053.32" x2="3859.02" y2="2053.32" style="stroke:#EAF2F3;stroke-width:8.64"/>
	<line x1="559.10" y1="1857.05" x2="3859.02" y2="1857.05" style="stroke:#EAF2F3;stroke-width:8.64"/>
	<line x1="559.10" y1="1660.78" x2="3859.02" y2="1660.78" style="stroke:#EAF2F3;stroke-width:8.64"/>
	<line x1="559.10" y1="1464.63" x2="3859.02" y2="1464.63" style="stroke:#EAF2F3;stroke-width:8.64"/>
	<line x1="559.10" y1="1268.35" x2="3859.02" y2="1268.35" style="stroke:#EAF2F3;stroke-width:8.64"/>
	<line x1="559.10" y1="1072.08" x2="3859.02" y2="1072.08" style="stroke:#EAF2F3;stroke-width:8.64"/>
	<line x1="559.10" y1="875.81" x2="3859.02" y2="875.81" style="stroke:#EAF2F3;stroke-width:8.64"/>
	<line x1="559.10" y1="679.53" x2="3859.02" y2="679.53" style="stroke:#EAF2F3;stroke-width:8.64"/>
	<line x1="559.10" y1="1464.63" x2="3859.02" y2="1464.63" style="stroke:#1A476F;stroke-width:8.64"/>
	<defs>
		<path id="path_NDQJECNJ" d="M778.88 1478.86 L778.88 1478.86 L795.71 1478.86 L795.71 1481.95 L812.54 1481.95 L812.54 1483.19 L829.37 1483.19 L829.37 1485.17 L846.20 1485.17 L846.20 1486.66 L863.16 1486.66 L863.16 1488.26 L879.99 1488.26 L879.99 1489.38 L896.82 1489.38 L896.82 1491.23 L913.65 1491.23 L913.65 1492.47 L930.48 1492.47 L930.48 1494.45 L947.31 1494.45 L947.31 1495.81 L964.26 1495.81 L964.26 1494.95 L981.09 1494.95 L981.09 1495.07 L997.92 1495.07 L997.92 1497.30 L1014.75 1497.30 L1014.75 1499.03 L1031.58 1499.03 L1031.58 1498.78 L1048.53 1498.78 L1048.53 1499.90 L1065.36 1499.90 L1065.36 1500.27 L1082.19 1500.27 L1082.19 1499.90 L1099.02 1499.90 L1099.02 1499.90 L1115.85 1499.90 L1115.85 1500.76 L1132.68 1500.76 L1132.68 1500.89 L1149.64 1500.89 L1149.64 1502.99 L1166.47 1502.99 L1166.47 1503.11 L1183.30 1503.11 L1183.30 1504.23 L1200.13 1504.23 L1200.13 1506.46 L1216.96 1506.46 L1216.96 1507.20 L1233.79 1507.20 L1233.79 1507.94 L1250.74 1507.94 L1250.74 1507.69 L1267.57 1507.69 L1267.57 1509.30 L1284.40 1509.30 L1284.40 1509.67 L1301.23 1509.67 L1301.23 1512.15 L1318.06 1512.15 L1318.06 1512.27 L1334.89 1512.27 L1334.89 1512.40 L1351.85 1512.40 L1351.85 1513.51 L1368.67 1513.51 L1368.67 1516.11 L1385.51 1516.11 L1385.51 1515.49 L1402.34 1515.49 L1402.34 1515.37 L1419.16 1515.37 L1419.16 1517.47 L1436.12 1517.47 L1436.12 1519.08 L1452.95 1519.08 L1452.95 1519.94 L1469.78 1519.94 L1469.78 1521.80 L1486.61 1521.80 L1486.61 1523.04 L1503.44 1523.04 L1503.44 1525.76 L1520.27 1525.76 L1520.27 1527.12 L1537.22 1527.12 L1537.22 1528.98 L1554.05 1528.98 L1554.05 1529.10 L1570.88 1529.10 L1570.88 1527.99 L1587.71 1527.99 L1587.71 1529.47 L1604.54 1529.47 L1604.54 1532.07 L1621.37 1532.07 L1621.37 1533.06 L1638.33 1533.06 L1638.33 1531.83 L1655.16 1531.83 L1655.16 1532.69 L1671.99 1532.69 L1671.99 1532.82 L1688.82 1532.82 L1688.82 1533.93 L1705.65 1533.93 L1705.65 1536.28 L1722.48 1536.28 L1722.48 1536.40 L1739.43 1536.40 L1739.43 1537.15 L1756.26 1537.15 L1756.26 1536.28 L1773.09 1536.28 L1773.09 1537.27 L1789.92 1537.27 L1789.92 1539.37 L1806.75 1539.37 L1806.75 1540.86 L1823.70 1540.86 L1823.70 1541.11 L1840.53 1541.11 L1840.53 1540.98 L1857.36 1540.98 L1857.36 1542.47 L1874.19 1542.47 L1874.19 1543.71 L1891.02 1543.71 L1891.02 1543.46 L1907.85 1543.46 L1907.85 1543.71 L1924.81 1543.71 L1924.81 1544.08 L1941.64 1544.08 L1941.64 1544.82 L1958.47 1544.82 L1958.47 1545.69 L1975.30 1545.69 L1975.30 1545.19 L1992.13 1545.19 L1992.13 1544.70 L2008.96 1544.70 L2008.96 1543.95 L2025.91 1543.95 L2025.91 1545.31 L2042.74 1545.31 L2042.74 1544.94 L2059.57 1544.94 L2059.57 1546.30 L2076.40 1546.30 L2076.40 1547.29 L2093.23 1547.29 L2093.23 1547.42 L2110.18 1547.42 L2110.18 1550.14 L2127.01 1550.14 L2127.01 1551.63 L2143.84 1551.63 L2143.84 1551.25 L2160.68 1551.25 L2160.68 1553.11 L2177.51 1553.11 L2177.51 1551.01 L2194.34 1551.01 L2194.34 1550.88 L2211.29 1550.88 L2211.29 1550.88 L2228.12 1550.88 L2228.12 1552.86 L2244.95 1552.86 L2244.95 1553.73 L2261.78 1553.73 L2261.78 1555.34 L2278.61 1555.34 L2278.61 1554.22 L2295.44 1554.22 L2295.44 1554.60 L2312.39 1554.60 L2312.39 1555.83 L2329.22 1555.83 L2329.22 1556.58 L2346.05 1556.58 L2346.05 1556.95 L2362.88 1556.95 L2362.88 1557.94 L2379.71 1557.94 L2379.71 1557.94 L2396.54 1557.94 L2396.54 1558.93 L2413.50 1558.93 L2413.50 1559.55 L2430.33 1559.55 L2430.33 1559.42 L2447.16 1559.42 L2447.16 1562.02 L2463.99 1562.02 L2463.99 1562.39 L2480.82 1562.39 L2480.82 1563.26 L2497.77 1563.26 L2497.77 1562.64 L2514.60 1562.64 L2514.60 1562.39 L2531.43 1562.39 L2531.43 1563.26 L2548.26 1563.26 L2548.26 1563.26 L2565.09 1563.26 L2565.09 1563.88 L2581.92 1563.88 L2581.92 1563.51 L2598.87 1563.51 L2598.87 1563.51 L2615.70 1563.51 L2615.70 1562.76 L2632.53 1562.76 L2632.53 1562.39 L2649.36 1562.39 L2649.36 1561.77 L2666.19 1561.77 L2666.19 1562.52 L2683.02 1562.52 L2683.02 1561.90 L2699.98 1561.90 L2699.98 1562.02 L2716.81 1562.02 L2716.81 1563.14 L2733.64 1563.14 L2733.64 1564.50 L2750.47 1564.50 L2750.47 1563.75 L2767.30 1563.75 L2767.30 1563.38 L2784.25 1563.38 L2784.25 1564.13 L2801.08 1564.13 L2801.08 1563.14 L2817.91 1563.14 L2817.91 1563.63 L2834.74 1563.63 L2834.74 1563.63 L2851.57 1563.63 L2851.57 1563.51 L2868.40 1563.51 L2868.40 1564.87 L2885.36 1564.87 L2885.36 1564.62 L2902.18 1564.62 L2902.18 1566.23 L2919.01 1566.23 L2919.01 1566.97 L2935.84 1566.97 L2935.84 1566.60 L2952.68 1566.60 L2952.68 1565.86 L2969.51 1565.86 L2969.51 1565.98 L2986.46 1565.98 L2986.46 1566.48 L3003.29 1566.48 L3003.29 1566.72 L3020.12 1566.72 L3020.12 1567.10 L3036.95 1567.10 L3036.95 1566.97 L3053.78 1566.97 L3053.78 1566.72 L3070.61 1566.72 L3070.61 1567.84 L3087.56 1567.84 L3087.56 1568.21 L3104.39 1568.21 L3104.39 1567.47 L3121.22 1567.47 L3121.22 1567.10 L3138.05 1567.10 L3138.05 1568.46 L3154.88 1568.46 L3154.88 1569.45 L3171.84 1569.45 L3171.84 1570.19 L3188.67 1570.19 L3188.67 1571.18 L3205.50 1571.18 L3205.50 1571.43 L3222.33 1571.43 L3222.33 1571.06 L3239.16 1571.06 L3239.16 1570.19 L3255.99 1570.19 L3255.99 1572.05 L3272.94 1572.05 L3272.94 1572.42 L3289.77 1572.42 L3289.77 1572.91 L3306.60 1572.91 L3306.60 1572.66 L3323.43 1572.66 L3323.43 1572.54 L3340.26 1572.54 L3340.26 1572.42 L3357.09 1572.42 L3357.09 1573.65 L3374.04 1573.65 L3374.04 1575.02 L3390.87 1575.02 L3390.87 1575.63 L3407.70 1575.63 L3407.70 1575.88 L3424.53 1575.88 L3424.53 1576.25 L3441.36 1576.25 L3441.36 1575.26 L3458.19 1575.26 L3458.19 1575.63 L3475.15 1575.63 L3475.15 1574.77 L3491.98 1574.77 L3491.98 1573.78 L3508.81 1573.78 L3508.81 1574.52 L3525.64 1574.52 L3525.64 1573.41 L3542.47 1573.41 L3542.47 1573.28 L3559.42 1573.28 L3559.42 1573.78 L3576.25 1573.78 L3576.25 1574.77 L3593.08 1574.77 L3593.08 1576.25 L3609.91 1576.25 L3609.91 1577.00 L3626.74 1577.00 L3626.74 1577.99 L3643.57 1577.99 L3643.57 1579.10 L3660.53 1579.10 L3660.53 1579.22 L3677.36 1579.22 L3677.36 1580.09 L3694.18 1580.09 L3694.18 1579.84 L3711.01 1579.84 L3711.01 1579.84 L3727.84 1579.84 L3727.84 1579.10 L3744.68 1579.10 L3744.68 1579.35 L3761.63 1579.35 L3761.63 1580.83 L3778.46 1580.83 L3778.46 1581.08 L3795.29 1581.08 L3795.29 1582.94 L3795.29 1436.91 L3795.29 1434.93 L3778.46 1434.93 L3778.46 1434.93 L3761.63 1434.93 L3761.63 1433.56 L3744.68 1433.56 L3744.68 1433.56 L3727.84 1433.56 L3727.84 1434.18 L3711.01 1434.18 L3711.01 1434.43 L3694.18 1434.43 L3694.18 1434.80 L3677.36 1434.80 L3677.36 1433.94 L3660.53 1433.94 L3660.53 1433.94 L3643.57 1433.94 L3643.57 1432.82 L3626.74 1432.82 L3626.74 1431.83 L3609.91 1431.83 L3609.91 1431.09 L3593.08 1431.09 L3593.08 1429.85 L3576.25 1429.85 L3576.25 1428.99 L3559.42 1428.99 L3559.42 1428.49 L3542.47 1428.49 L3542.47 1428.61 L3525.64 1428.61 L3525.64 1429.73 L3508.81 1429.73 L3508.81 1429.23 L3491.98 1429.23 L3491.98 1430.35 L3475.15 1430.35 L3475.15 1431.21 L3458.19 1431.21 L3458.19 1430.97 L3441.36 1430.97 L3441.36 1432.08 L3424.53 1432.08 L3424.53 1431.58 L3407.70 1431.58 L3407.70 1431.46 L3390.87 1431.46 L3390.87 1430.59 L3374.04 1430.59 L3374.04 1429.60 L3357.09 1429.60 L3357.09 1428.61 L3340.26 1428.61 L3340.26 1428.99 L3323.43 1428.99 L3323.43 1429.11 L3306.60 1429.11 L3306.60 1429.48 L3289.77 1429.48 L3289.77 1429.11 L3272.94 1429.11 L3272.94 1428.86 L3255.99 1428.86 L3255.99 1427.25 L3239.16 1427.25 L3239.16 1428.37 L3222.33 1428.37 L3222.33 1428.61 L3205.50 1428.61 L3205.50 1428.74 L3188.67 1428.74 L3188.67 1427.87 L3171.84 1427.87 L3171.84 1427.38 L3154.88 1427.38 L3154.88 1426.63 L3138.05 1426.63 L3138.05 1425.40 L3121.22 1425.40 L3121.22 1425.77 L3104.39 1425.77 L3104.39 1426.76 L3087.56 1426.76 L3087.56 1426.51 L3070.61 1426.51 L3070.61 1425.27 L3053.78 1425.27 L3053.78 1425.64 L3036.95 1425.64 L3036.95 1426.02 L3020.12 1426.02 L3020.12 1426.14 L3003.29 1426.14 L3003.29 1426.02 L2986.46 1426.02 L2986.46 1425.64 L2969.51 1425.64 L2969.51 1425.64 L2952.68 1425.64 L2952.68 1426.26 L2935.84 1426.26 L2935.84 1426.76 L2919.01 1426.76 L2919.01 1426.39 L2902.18 1426.39 L2902.18 1425.03 L2885.36 1425.03 L2885.36 1425.27 L2868.40 1425.27 L2868.40 1424.04 L2851.57 1424.04 L2851.57 1424.28 L2834.74 1424.28 L2834.74 1424.78 L2817.91 1424.78 L2817.91 1424.53 L2801.08 1424.53 L2801.08 1425.77 L2784.25 1425.77 L2784.25 1425.27 L2767.30 1425.27 L2767.30 1425.77 L2750.47 1425.77 L2750.47 1426.63 L2733.64 1426.63 L2733.64 1425.52 L2716.81 1425.52 L2716.81 1424.65 L2699.98 1424.65 L2699.98 1424.78 L2683.02 1424.78 L2683.02 1425.40 L2666.19 1425.40 L2666.19 1424.90 L2649.36 1424.90 L2649.36 1425.77 L2632.53 1425.77 L2632.53 1426.39 L2615.70 1426.39 L2615.70 1427.25 L2598.87 1427.25 L2598.87 1427.62 L2581.92 1427.62 L2581.92 1428.24 L2565.09 1428.24 L2565.09 1427.62 L2548.26 1427.62 L2548.26 1427.75 L2531.43 1427.75 L2531.43 1427.01 L2514.60 1427.01 L2514.60 1427.38 L2497.77 1427.38 L2497.77 1428.00 L2480.82 1428.00 L2480.82 1427.38 L2463.99 1427.38 L2463.99 1427.13 L2447.16 1427.13 L2447.16 1424.78 L2430.33 1424.78 L2430.33 1425.03 L2413.50 1425.03 L2413.50 1424.65 L2396.54 1424.65 L2396.54 1423.91 L2379.71 1423.91 L2379.71 1424.04 L2362.88 1424.04 L2362.88 1423.29 L2346.05 1423.29 L2346.05 1423.17 L2329.22 1423.17 L2329.22 1422.80 L2312.39 1422.80 L2312.39 1421.81 L2295.44 1421.81 L2295.44 1421.56 L2278.61 1421.56 L2278.61 1422.80 L2261.78 1422.80 L2261.78 1421.81 L2244.95 1421.81 L2244.95 1421.19 L2228.12 1421.19 L2228.12 1419.33 L2211.29 1419.33 L2211.29 1419.58 L2194.34 1419.58 L2194.34 1419.95 L2177.51 1419.95 L2177.51 1422.43 L2160.68 1422.43 L2160.68 1420.82 L2143.84 1420.82 L2143.84 1421.56 L2127.01 1421.56 L2127.01 1420.32 L2110.18 1420.32 L2110.18 1418.22 L2093.23 1418.22 L2093.23 1418.10 L2076.40 1418.10 L2076.40 1417.60 L2059.57 1417.60 L2059.57 1416.36 L2042.74 1416.36 L2042.74 1416.98 L2025.91 1416.98 L2025.91 1415.99 L2008.96 1415.99 L2008.96 1417.11 L1992.13 1417.11 L1992.13 1418.10 L1975.30 1418.10 L1975.30 1418.84 L1958.47 1418.84 L1958.47 1418.47 L1941.64 1418.47 L1941.64 1417.97 L1924.81 1417.97 L1924.81 1417.97 L1907.85 1417.97 L1907.85 1418.10 L1891.02 1418.10 L1891.02 1418.71 L1874.19 1418.71 L1874.19 1417.97 L1857.36 1417.97 L1857.36 1416.86 L1840.53 1416.86 L1840.53 1417.35 L1823.70 1417.35 L1823.70 1417.35 L1806.75 1417.35 L1806.75 1416.49 L1789.92 1416.49 L1789.92 1414.88 L1773.09 1414.88 L1773.09 1414.38 L1756.26 1414.38 L1756.26 1415.62 L1739.43 1415.62 L1739.43 1415.37 L1722.48 1415.37 L1722.48 1415.62 L1705.65 1415.62 L1705.65 1413.76 L1688.82 1413.76 L1688.82 1413.39 L1671.99 1413.39 L1671.99 1413.76 L1655.16 1413.76 L1655.16 1413.39 L1638.33 1413.39 L1638.33 1415.13 L1621.37 1415.13 L1621.37 1414.75 L1604.54 1414.75 L1604.54 1412.90 L1587.71 1412.90 L1587.71 1412.03 L1570.88 1412.03 L1570.88 1413.76 L1554.05 1413.76 L1554.05 1414.14 L1537.22 1414.14 L1537.22 1413.02 L1520.27 1413.02 L1520.27 1412.53 L1503.44 1412.53 L1503.44 1410.55 L1486.61 1410.55 L1486.61 1409.93 L1469.78 1409.93 L1469.78 1408.69 L1452.95 1408.69 L1452.95 1408.81 L1436.12 1408.81 L1436.12 1408.20 L1419.16 1408.20 L1419.16 1406.96 L1402.34 1406.96 L1402.34 1407.82 L1385.51 1407.82 L1385.51 1409.31 L1368.67 1409.31 L1368.67 1407.58 L1351.85 1407.58 L1351.85 1407.70 L1334.89 1407.70 L1334.89 1408.81 L1318.06 1408.81 L1318.06 1409.68 L1301.23 1409.68 L1301.23 1408.44 L1284.40 1408.44 L1284.40 1409.19 L1267.57 1409.19 L1267.57 1408.81 L1250.74 1408.81 L1250.74 1410.30 L1233.79 1410.30 L1233.79 1410.67 L1216.96 1410.67 L1216.96 1411.17 L1200.13 1411.17 L1200.13 1410.30 L1183.30 1410.30 L1183.30 1410.67 L1166.47 1410.67 L1166.47 1412.16 L1149.64 1412.16 L1149.64 1411.29 L1132.68 1411.29 L1132.68 1412.90 L1115.85 1412.90 L1115.85 1413.76 L1099.02 1413.76 L1099.02 1415.62 L1082.19 1415.62 L1082.19 1417.72 L1065.36 1417.72 L1065.36 1419.58 L1048.53 1419.58 L1048.53 1420.57 L1031.58 1420.57 L1031.58 1422.80 L1014.75 1422.80 L1014.75 1423.42 L997.92 1423.42 L997.92 1423.42 L981.09 1423.42 L981.09 1425.89 L964.26 1425.89 L964.26 1429.36 L947.31 1429.36 L947.31 1430.72 L930.48 1430.72 L930.48 1431.71 L913.65 1431.71 L913.65 1433.44 L896.82 1433.44 L896.82 1434.55 L879.99 1434.55 L879.99 1436.66 L863.16 1436.66 L863.16 1438.64 L846.20 1438.64 L846.20 1440.62 L829.37 1440.62 L829.37 1442.48 L812.54 1442.48 L812.54 1445.32 L795.71 1445.32 L795.71 1446.19 L778.88 1446.19 L778.88 1478.86 Z" stroke-linejoin="round"/>
	</defs>
	<defs>
		<clipPath id="clipPath_cgqIIcyV">
			<use xlink:href="#path_NDQJECNJ"/>
		</clipPath>
	</defs>
	<use xlink:href="#path_NDQJECNJ" style="stroke:none;fill:#999999;fill-opacity:0.65"/>
	<use xlink:href="#path_NDQJECNJ" style="fill:none;stroke:#808080;stroke-opacity:0.65;stroke-width:17.28" clip-path="url(#clipPath_cgqIIcyV)"/>
	<path d=" M778.76 1462.52 L795.59 1462.52 L795.59 1463.64 L812.54 1463.64 L812.54 1462.89 L829.37 1462.89 L829.37 1462.89 L846.20 1462.89 L846.20 1462.77 L863.03 1462.77 L863.03 1462.52 L879.86 1462.52 L879.86 1462.03 L896.69 1462.03 L896.69 1462.40 L913.65 1462.40 L913.65 1462.15 L930.48 1462.15 L930.48 1462.65 L947.31 1462.65 L947.31 1462.65 L964.14 1462.65 L964.14 1460.42 L980.97 1460.42 L980.97 1459.31 L997.80 1459.31 L997.80 1460.42 L1014.75 1460.42 L1014.75 1461.04 L1031.58 1461.04 L1031.58 1459.68 L1048.41 1459.68 L1048.41 1459.80 L1065.24 1459.80 L1065.24 1459.06 L1082.07 1459.06 L1082.07 1457.82 L1099.02 1457.82 L1099.02 1456.83 L1115.85 1456.83 L1115.85 1456.83 L1132.68 1456.83 L1132.68 1456.21 L1149.51 1456.21 L1149.51 1457.57 L1166.34 1457.57 L1166.34 1456.95 L1183.17 1456.95 L1183.17 1457.33 L1200.13 1457.33 L1200.13 1458.81 L1216.96 1458.81 L1216.96 1459.06 L1233.79 1459.06 L1233.79 1459.18 L1250.62 1459.18 L1250.62 1458.32 L1267.45 1458.32 L1267.45 1459.31 L1284.28 1459.31 L1284.28 1459.06 L1301.23 1459.06 L1301.23 1461.04 L1318.06 1461.04 L1318.06 1460.54 L1334.89 1460.54 L1334.89 1460.05 L1351.72 1460.05 L1351.72 1460.54 L1368.55 1460.54 L1368.55 1462.77 L1385.51 1462.77 L1385.51 1461.78 L1402.34 1461.78 L1402.34 1461.29 L1419.16 1461.29 L1419.16 1462.89 L1435.99 1462.89 L1435.99 1464.01 L1452.83 1464.01 L1452.83 1464.38 L1469.65 1464.38 L1469.65 1465.86 L1486.61 1465.86 L1486.61 1466.85 L1503.44 1466.85 L1503.44 1469.21 L1520.27 1469.21 L1520.27 1470.20 L1537.10 1470.20 L1537.10 1471.68 L1553.93 1471.68 L1553.93 1471.56 L1570.76 1471.56 L1570.76 1470.07 L1587.71 1470.07 L1587.71 1471.31 L1604.54 1471.31 L1604.54 1473.54 L1621.37 1473.54 L1621.37 1474.16 L1638.20 1474.16 L1638.20 1472.67 L1655.03 1472.67 L1655.03 1473.29 L1671.86 1473.29 L1671.86 1473.17 L1688.82 1473.17 L1688.82 1473.91 L1705.65 1473.91 L1705.65 1476.01 L1722.48 1476.01 L1722.48 1475.89 L1739.31 1475.89 L1739.31 1476.51 L1756.14 1476.51 L1756.14 1475.39 L1773.09 1475.39 L1773.09 1476.14 L1789.92 1476.14 L1789.92 1477.99 L1806.75 1477.99 L1806.75 1479.23 L1823.58 1479.23 L1823.58 1479.35 L1840.41 1479.35 L1840.41 1478.98 L1857.24 1478.98 L1857.24 1480.34 L1874.19 1480.34 L1874.19 1481.33 L1891.02 1481.33 L1891.02 1480.84 L1907.85 1480.84 L1907.85 1480.96 L1924.68 1480.96 L1924.68 1481.09 L1941.51 1481.09 L1941.51 1481.71 L1958.34 1481.71 L1958.34 1482.32 L1975.30 1482.32 L1975.30 1481.71 L1992.13 1481.71 L1992.13 1480.96 L2008.96 1480.96 L2008.96 1480.10 L2025.79 1480.10 L2025.79 1481.21 L2042.62 1481.21 L2042.62 1480.72 L2059.45 1480.72 L2059.45 1482.08 L2076.40 1482.08 L2076.40 1482.82 L2093.23 1482.82 L2093.23 1482.94 L2110.06 1482.94 L2110.06 1485.29 L2126.89 1485.29 L2126.89 1486.66 L2143.72 1486.66 L2143.72 1486.16 L2160.68 1486.16 L2160.68 1487.89 L2177.51 1487.89 L2177.51 1485.54 L2194.34 1485.54 L2194.34 1485.29 L2211.16 1485.29 L2211.16 1485.17 L2227.99 1485.17 L2227.99 1487.03 L2244.82 1487.03 L2244.82 1487.89 L2261.78 1487.89 L2261.78 1489.13 L2278.61 1489.13 L2278.61 1487.89 L2295.44 1487.89 L2295.44 1488.26 L2312.27 1488.26 L2312.27 1489.38 L2329.10 1489.38 L2329.10 1490.00 L2345.93 1490.00 L2345.93 1490.24 L2362.88 1490.24 L2362.88 1490.99 L2379.71 1490.99 L2379.71 1490.99 L2396.54 1490.99 L2396.54 1491.85 L2413.37 1491.85 L2413.37 1492.35 L2430.20 1492.35 L2430.20 1492.10 L2447.16 1492.10 L2447.16 1494.58 L2463.99 1494.58 L2463.99 1494.95 L2480.82 1494.95 L2480.82 1495.69 L2497.65 1495.69 L2497.65 1495.07 L2514.48 1495.07 L2514.48 1494.82 L2531.31 1494.82 L2531.31 1495.57 L2548.26 1495.57 L2548.26 1495.57 L2565.09 1495.57 L2565.09 1496.06 L2581.92 1496.06 L2581.92 1495.69 L2598.75 1495.69 L2598.75 1495.44 L2615.58 1495.44 L2615.58 1494.70 L2632.41 1494.70 L2632.41 1494.08 L2649.36 1494.08 L2649.36 1493.46 L2666.19 1493.46 L2666.19 1494.08 L2683.02 1494.08 L2683.02 1493.46 L2699.85 1493.46 L2699.85 1493.34 L2716.68 1493.34 L2716.68 1494.45 L2733.51 1494.45 L2733.51 1495.69 L2750.47 1495.69 L2750.47 1494.82 L2767.30 1494.82 L2767.30 1494.33 L2784.13 1494.33 L2784.13 1495.07 L2800.96 1495.07 L2800.96 1493.96 L2817.79 1493.96 L2817.79 1494.33 L2834.74 1494.33 L2834.74 1494.08 L2851.57 1494.08 L2851.57 1493.83 L2868.40 1493.83 L2868.40 1495.19 L2885.23 1495.19 L2885.23 1494.95 L2902.06 1494.95 L2902.06 1496.31 L2918.89 1496.31 L2918.89 1496.93 L2935.84 1496.93 L2935.84 1496.56 L2952.68 1496.56 L2952.68 1495.81 L2969.51 1495.81 L2969.51 1495.94 L2986.34 1495.94 L2986.34 1496.31 L3003.16 1496.31 L3003.16 1496.43 L3019.99 1496.43 L3019.99 1496.68 L3036.95 1496.68 L3036.95 1496.43 L3053.78 1496.43 L3053.78 1496.06 L3070.61 1496.06 L3070.61 1497.30 L3087.44 1497.30 L3087.44 1497.55 L3104.27 1497.55 L3104.27 1496.80 L3121.10 1496.80 L3121.10 1496.31 L3138.05 1496.31 L3138.05 1497.67 L3154.88 1497.67 L3154.88 1498.54 L3171.71 1498.54 L3171.71 1499.15 L3188.54 1499.15 L3188.54 1500.02 L3205.37 1500.02 L3205.37 1500.02 L3222.33 1500.02 L3222.33 1499.77 L3239.16 1499.77 L3239.16 1498.78 L3255.99 1498.78 L3255.99 1500.52 L3272.82 1500.52 L3272.82 1500.89 L3289.65 1500.89 L3289.65 1501.26 L3306.48 1501.26 L3306.48 1500.89 L3323.43 1500.89 L3323.43 1500.89 L3340.26 1500.89 L3340.26 1500.64 L3357.09 1500.64 L3357.09 1501.63 L3373.92 1501.63 L3373.92 1502.87 L3390.75 1502.87 L3390.75 1503.61 L3407.58 1503.61 L3407.58 1503.73 L3424.53 1503.73 L3424.53 1504.23 L3441.36 1504.23 L3441.36 1503.24 L3458.19 1503.24 L3458.19 1503.49 L3475.02 1503.49 L3475.02 1502.62 L3491.85 1502.62 L3491.85 1501.63 L3508.81 1501.63 L3508.81 1502.25 L3525.64 1502.25 L3525.64 1501.13 L3542.47 1501.13 L3542.47 1501.01 L3559.30 1501.01 L3559.30 1501.51 L3576.13 1501.51 L3576.13 1502.37 L3592.96 1502.37 L3592.96 1503.73 L3609.91 1503.73 L3609.91 1504.48 L3626.74 1504.48 L3626.74 1505.47 L3643.57 1505.47 L3643.57 1506.58 L3660.40 1506.58 L3660.40 1506.58 L3677.23 1506.58 L3677.23 1507.57 L3694.06 1507.57 L3694.06 1507.32 L3711.01 1507.32 L3711.01 1507.07 L3727.84 1507.07 L3727.84 1506.46 L3744.68 1506.46 L3744.68 1506.46 L3761.51 1506.46 L3761.51 1507.94 L3778.34 1507.94 L3778.34 1508.06 L3795.16 1508.06 L3795.16 1509.92" stroke-linejoin="round" style="fill:none;stroke:#000000;stroke-width:8.64"/>
	<line x1="559.10" y1="2509.23" x2="559.10" y2="419.90" style="stroke:#000000;stroke-width:5.76"/>
	<line x1="559.10" y1="2445.87" x2="519.13" y2="2445.87" style="stroke:#000000;stroke-width:5.76"/>
	<text x="499.08" y="2480.90" style="font-family:'Helvetica';font-size:99.99px;fill:#000000" text-anchor="end">-0.25</text>
	<line x1="559.10" y1="2249.60" x2="519.13" y2="2249.60" style="stroke:#000000;stroke-width:5.76"/>
	<text x="499.08" y="2284.63" style="font-family:'Helvetica';font-size:99.99px;fill:#000000" text-anchor="end">-0.20</text>
	<line x1="559.10" y1="2053.32" x2="519.13" y2="2053.32" style="stroke:#000000;stroke-width:5.76"/>
	<text x="499.08" y="2088.35" style="font-family:'Helvetica';font-size:99.99px;fill:#000000" text-anchor="end">-0.15</text>
	<line x1="559.10" y1="1857.05" x2="519.13" y2="1857.05" style="stroke:#000000;stroke-width:5.76"/>
	<text x="499.08" y="1892.08" style="font-family:'Helvetica';font-size:99.99px;fill:#000000" text-anchor="end">-0.10</text>
	<line x1="559.10" y1="1660.78" x2="519.13" y2="1660.78" style="stroke:#000000;stroke-width:5.76"/>
	<text x="499.08" y="1695.81" style="font-family:'Helvetica';font-size:99.99px;fill:#000000" text-anchor="end">-0.05</text>
	<line x1="559.10" y1="1464.63" x2="519.13" y2="1464.63" style="stroke:#000000;stroke-width:5.76"/>
	<text x="499.08" y="1499.66" style="font-family:'Helvetica';font-size:99.99px;fill:#000000" text-anchor="end">0.00</text>
	<line x1="559.10" y1="1268.35" x2="519.13" y2="1268.35" style="stroke:#000000;stroke-width:5.76"/>
	<text x="499.08" y="1303.38" style="font-family:'Helvetica';font-size:99.99px;fill:#000000" text-anchor="end">0.05</text>
	<line x1="559.10" y1="1072.08" x2="519.13" y2="1072.08" style="stroke:#000000;stroke-width:5.76"/>
	<text x="499.08" y="1107.11" style="font-family:'Helvetica';font-size:99.99px;fill:#000000" text-anchor="end">0.10</text>
	<line x1="559.10" y1="875.81" x2="519.13" y2="875.81" style="stroke:#000000;stroke-width:5.76"/>
	<text x="499.08" y="910.83" style="font-family:'Helvetica';font-size:99.99px;fill:#000000" text-anchor="end">0.15</text>
	<line x1="559.10" y1="679.53" x2="519.13" y2="679.53" style="stroke:#000000;stroke-width:5.76"/>
	<text x="499.08" y="714.56" style="font-family:'Helvetica';font-size:99.99px;fill:#000000" text-anchor="end">0.20</text>
	<line x1="559.10" y1="483.26" x2="519.13" y2="483.26" style="stroke:#000000;stroke-width:5.76"/>
	<text x="499.08" y="518.29" style="font-family:'Helvetica';font-size:99.99px;fill:#000000" text-anchor="end">0.25</text>
	<text x="190.71" y="1464.63" style="font-family:'Helvetica';font-size:99.99px;fill:#000000" transform="rotate(-90 190.71,1464.63)" text-anchor="middle">Difference in Probabilities</text>
	<line x1="559.10" y1="2509.23" x2="3859.02" y2="2509.23" style="stroke:#000000;stroke-width:5.76"/>
	<line x1="622.46" y1="2509.23" x2="622.46" y2="2549.21" style="stroke:#000000;stroke-width:5.76"/>
	<text x="622.46" y="2625.15" style="font-family:'Helvetica';font-size:79.94px;fill:#000000" text-anchor="middle">0</text>
	<line x1="812.91" y1="2509.23" x2="812.91" y2="2549.21" style="stroke:#000000;stroke-width:5.76"/>
	<text x="812.91" y="2625.15" style="font-family:'Helvetica';font-size:79.94px;fill:#000000" text-anchor="middle">.3</text>
	<line x1="1003.24" y1="2509.23" x2="1003.24" y2="2549.21" style="stroke:#000000;stroke-width:5.76"/>
	<text x="1003.24" y="2625.15" style="font-family:'Helvetica';font-size:79.94px;fill:#000000" text-anchor="middle">.6</text>
	<line x1="1193.69" y1="2509.23" x2="1193.69" y2="2549.21" style="stroke:#000000;stroke-width:5.76"/>
	<text x="1193.69" y="2625.15" style="font-family:'Helvetica';font-size:79.94px;fill:#000000" text-anchor="middle">.9</text>
	<line x1="1384.02" y1="2509.23" x2="1384.02" y2="2549.21" style="stroke:#000000;stroke-width:5.76"/>
	<text x="1384.02" y="2625.15" style="font-family:'Helvetica';font-size:79.94px;fill:#000000" text-anchor="middle">1.2</text>
	<line x1="1574.47" y1="2509.23" x2="1574.47" y2="2549.21" style="stroke:#000000;stroke-width:5.76"/>
	<text x="1574.47" y="2625.15" style="font-family:'Helvetica';font-size:79.94px;fill:#000000" text-anchor="middle">1.5</text>
	<line x1="1764.80" y1="2509.23" x2="1764.80" y2="2549.21" style="stroke:#000000;stroke-width:5.76"/>
	<text x="1764.80" y="2625.15" style="font-family:'Helvetica';font-size:79.94px;fill:#000000" text-anchor="middle">1.8</text>
	<line x1="1955.25" y1="2509.23" x2="1955.25" y2="2549.21" style="stroke:#000000;stroke-width:5.76"/>
	<text x="1955.25" y="2625.15" style="font-family:'Helvetica';font-size:79.94px;fill:#000000" text-anchor="middle">2.1</text>
	<line x1="2145.58" y1="2509.23" x2="2145.58" y2="2549.21" style="stroke:#000000;stroke-width:5.76"/>
	<text x="2145.58" y="2625.15" style="font-family:'Helvetica';font-size:79.94px;fill:#000000" text-anchor="middle">2.4</text>
	<line x1="2336.03" y1="2509.23" x2="2336.03" y2="2549.21" style="stroke:#000000;stroke-width:5.76"/>
	<text x="2336.03" y="2625.15" style="font-family:'Helvetica';font-size:79.94px;fill:#000000" text-anchor="middle">2.7</text>
	<line x1="2526.48" y1="2509.23" x2="2526.48" y2="2549.21" style="stroke:#000000;stroke-width:5.76"/>
	<text x="2526.48" y="2625.15" style="font-family:'Helvetica';font-size:79.94px;fill:#000000" text-anchor="middle">3</text>
	<line x1="2716.81" y1="2509.23" x2="2716.81" y2="2549.21" style="stroke:#000000;stroke-width:5.76"/>
	<text x="2716.81" y="2625.15" style="font-family:'Helvetica';font-size:79.94px;fill:#000000" text-anchor="middle">3.3</text>
	<line x1="2907.26" y1="2509.23" x2="2907.26" y2="2549.21" style="stroke:#000000;stroke-width:5.76"/>
	<text x="2907.26" y="2625.15" style="font-family:'Helvetica';font-size:79.94px;fill:#000000" text-anchor="middle">3.6</text>
	<line x1="3097.59" y1="2509.23" x2="3097.59" y2="2549.21" style="stroke:#000000;stroke-width:5.76"/>
	<text x="3097.59" y="2625.15" style="font-family:'Helvetica';font-size:79.94px;fill:#000000" text-anchor="middle">3.9</text>
	<line x1="3288.04" y1="2509.23" x2="3288.04" y2="2549.21" style="stroke:#000000;stroke-width:5.76"/>
	<text x="3288.04" y="2625.15" style="font-family:'Helvetica';font-size:79.94px;fill:#000000" text-anchor="middle">4.2</text>
	<line x1="3478.36" y1="2509.23" x2="3478.36" y2="2549.21" style="stroke:#000000;stroke-width:5.76"/>
	<text x="3478.36" y="2625.15" style="font-family:'Helvetica';font-size:79.94px;fill:#000000" text-anchor="middle">4.5</text>
	<line x1="3668.82" y1="2509.23" x2="3668.82" y2="2549.21" style="stroke:#000000;stroke-width:5.76"/>
	<text x="3668.82" y="2625.15" style="font-family:'Helvetica';font-size:79.94px;fill:#000000" text-anchor="middle">4.8</text>
	<line x1="3859.14" y1="2509.23" x2="3859.14" y2="2549.21" style="stroke:#000000;stroke-width:5.76"/>
	<text x="3859.14" y="2625.15" style="font-family:'Helvetica';font-size:79.94px;fill:#000000" text-anchor="middle">5.1</text>
	<text x="2209.06" y="2729.16" style="font-family:'Helvetica';font-size:99.99px;fill:#000000" text-anchor="middle">Time (years)</text>
	<rect x="593.63" y="454.42" width="993.34" height="326.46" style="fill:#FFFFFF"/>
	<rect x="596.51" y="457.30" width="987.58" height="320.70" style="fill:none;stroke:#000000;stroke-width:5.76"/>
	<rect x="636.82" y="497.74" width="374.47" height="99.99" style="fill:#999999;fill-opacity:0.65"/>
	<rect x="641.14" y="502.06" width="365.83" height="91.35" style="fill:none;stroke:#808080;stroke-opacity:0.65;stroke-width:8.64"/>
	<line x1="636.82" y1="687.70" x2="1011.28" y2="687.70" style="stroke:#000000;stroke-width:8.64"/>
	<text x="1071.30" y="582.76" style="font-family:'Helvetica';font-size:99.99px;fill:#000000">CI95%</text>
	<text x="1071.30" y="722.73" style="font-family:'Helvetica';font-size:99.99px;fill:#000000">Difference</text>
	<text x="2209.06" y="369.63" style="font-family:'Helvetica';font-size:110.01px;fill:#000000" text-anchor="middle">from Readmission to 2nd Readmission</text>
	<text x="2209.06" y="215.98" style="font-family:'Helvetica';font-size:139.96px;fill:#1E2D53" text-anchor="middle">Difference in Probabilities at 3 years</text>
</svg>
