<?xml version="1.0" encoding="UTF-8" standalone="no"?>
<!-- This is a Stata 16.1 generated SVG file (http://www.stata.com) -->

<svg version="1.1" width="5.50in" height="4.00in" viewBox="0 0 3960 2880" xmlns="http://www.w3.org/2000/svg" xmlns:xlink="http://www.w3.org/1999/xlink">
	<desc>Stata Graph - diff_mod_los2435_3y_22</desc>
	<rect x="0" y="0" width="3960" height="2880" style="fill:#EAF2F3;stroke:none"/>
	<rect x="0.00" y="0.00" width="3959.88" height="2880.00" style="fill:#FFFFFF"/>
	<rect x="2.88" y="2.88" width="3954.12" height="2874.24" style="fill:none;stroke:#FFFFFF;stroke-width:5.76"/>
	<rect x="529.90" y="419.90" width="3329.12" height="2089.34" style="fill:#FFFFFF"/>
	<rect x="532.78" y="422.78" width="3323.36" height="2083.58" style="fill:none;stroke:#FFFFFF;stroke-width:5.76"/>
	<line x1="529.90" y1="2203.93" x2="3859.02" y2="2203.93" style="stroke:#EAF2F3;stroke-width:8.64"/>
	<line x1="529.90" y1="1961.99" x2="3859.02" y2="1961.99" style="stroke:#EAF2F3;stroke-width:8.64"/>
	<line x1="529.90" y1="1719.93" x2="3859.02" y2="1719.93" style="stroke:#EAF2F3;stroke-width:8.64"/>
	<line x1="529.90" y1="1477.99" x2="3859.02" y2="1477.99" style="stroke:#EAF2F3;stroke-width:8.64"/>
	<line x1="529.90" y1="1236.05" x2="3859.02" y2="1236.05" style="stroke:#EAF2F3;stroke-width:8.64"/>
	<line x1="529.90" y1="994.11" x2="3859.02" y2="994.11" style="stroke:#EAF2F3;stroke-width:8.64"/>
	<line x1="529.90" y1="752.18" x2="3859.02" y2="752.18" style="stroke:#EAF2F3;stroke-width:8.64"/>
	<line x1="529.90" y1="1464.63" x2="3859.02" y2="1464.63" style="stroke:#1A476F;stroke-width:8.64"/>
	<defs>
		<path id="path_IfmohQEa" d="M751.16 1465.00 L751.16 1465.00 L768.12 1465.00 L768.12 1465.12 L785.19 1465.12 L785.19 1465.25 L802.15 1465.25 L802.15 1465.37 L819.10 1465.37 L819.10 1465.49 L836.18 1465.49 L836.18 1465.62 L853.13 1465.62 L853.13 1465.74 L870.21 1465.74 L870.21 1465.86 L887.16 1465.86 L887.16 1465.99 L904.12 1465.99 L904.12 1466.11 L921.20 1466.11 L921.20 1466.36 L938.15 1466.36 L938.15 1466.48 L955.23 1466.48 L955.23 1466.73 L972.18 1466.73 L972.18 1466.85 L989.26 1466.85 L989.26 1467.10 L1006.21 1467.10 L1006.21 1467.35 L1023.16 1467.35 L1023.16 1467.47 L1040.24 1467.47 L1040.24 1467.72 L1057.20 1467.72 L1057.20 1467.97 L1074.27 1467.97 L1074.27 1468.22 L1091.23 1468.22 L1091.23 1468.46 L1108.31 1468.46 L1108.31 1468.71 L1125.26 1468.71 L1125.26 1468.96 L1142.21 1468.96 L1142.21 1469.21 L1159.29 1469.21 L1159.29 1469.45 L1176.24 1469.45 L1176.24 1469.70 L1193.32 1469.70 L1193.32 1470.07 L1210.28 1470.07 L1210.28 1470.32 L1227.35 1470.32 L1227.35 1470.57 L1244.31 1470.57 L1244.31 1470.94 L1261.26 1470.94 L1261.26 1471.19 L1278.34 1471.19 L1278.34 1471.43 L1295.29 1471.43 L1295.29 1471.80 L1312.37 1471.80 L1312.37 1472.18 L1329.32 1472.18 L1329.32 1472.42 L1346.40 1472.42 L1346.40 1472.79 L1363.35 1472.79 L1363.35 1473.17 L1380.31 1473.17 L1380.31 1473.54 L1397.38 1473.54 L1397.38 1473.78 L1414.34 1473.78 L1414.34 1474.16 L1431.42 1474.16 L1431.42 1474.53 L1448.37 1474.53 L1448.37 1474.90 L1465.45 1474.90 L1465.45 1475.27 L1482.40 1475.27 L1482.40 1475.64 L1499.36 1475.64 L1499.36 1475.89 L1516.43 1475.89 L1516.43 1476.26 L1533.39 1476.26 L1533.39 1476.63 L1550.46 1476.63 L1550.46 1477.00 L1567.42 1477.00 L1567.42 1477.37 L1584.49 1477.37 L1584.49 1477.74 L1601.45 1477.74 L1601.45 1478.12 L1618.40 1478.12 L1618.40 1478.49 L1635.48 1478.49 L1635.48 1478.98 L1652.43 1478.98 L1652.43 1479.35 L1669.51 1479.35 L1669.51 1479.72 L1686.46 1479.72 L1686.46 1480.22 L1703.54 1480.22 L1703.54 1480.59 L1720.50 1480.59 L1720.50 1481.09 L1737.45 1481.09 L1737.45 1481.58 L1754.53 1481.58 L1754.53 1482.08 L1771.48 1482.08 L1771.48 1482.45 L1788.56 1482.45 L1788.56 1482.94 L1805.51 1482.94 L1805.51 1483.44 L1822.59 1483.44 L1822.59 1483.93 L1839.54 1483.93 L1839.54 1484.43 L1856.50 1484.43 L1856.50 1485.05 L1873.58 1485.05 L1873.58 1485.54 L1890.53 1485.54 L1890.53 1486.04 L1907.61 1486.04 L1907.61 1486.53 L1924.56 1486.53 L1924.56 1487.03 L1941.51 1487.03 L1941.51 1487.65 L1958.59 1487.65 L1958.59 1488.14 L1975.55 1488.14 L1975.55 1488.64 L1992.62 1488.64 L1992.62 1489.25 L2009.58 1489.25 L2009.58 1489.75 L2026.65 1489.75 L2026.65 1490.37 L2043.61 1490.37 L2043.61 1490.86 L2060.56 1490.86 L2060.56 1491.36 L2077.64 1491.36 L2077.64 1491.98 L2094.59 1491.98 L2094.59 1492.47 L2111.67 1492.47 L2111.67 1493.09 L2128.62 1493.09 L2128.62 1493.59 L2145.70 1493.59 L2145.70 1494.08 L2162.66 1494.08 L2162.66 1494.70 L2179.61 1494.70 L2179.61 1495.19 L2196.69 1495.19 L2196.69 1495.81 L2213.64 1495.81 L2213.64 1496.43 L2230.72 1496.43 L2230.72 1496.93 L2247.67 1496.93 L2247.67 1497.42 L2264.75 1497.42 L2264.75 1498.04 L2281.70 1498.04 L2281.70 1498.66 L2298.66 1498.66 L2298.66 1499.15 L2315.73 1499.15 L2315.73 1499.77 L2332.69 1499.77 L2332.69 1500.27 L2349.76 1500.27 L2349.76 1500.89 L2366.72 1500.89 L2366.72 1501.38 L2383.80 1501.38 L2383.80 1502.00 L2400.75 1502.00 L2400.75 1502.50 L2417.70 1502.50 L2417.70 1503.11 L2434.78 1503.11 L2434.78 1503.73 L2451.74 1503.73 L2451.74 1504.23 L2468.81 1504.23 L2468.81 1504.85 L2485.77 1504.85 L2485.77 1505.47 L2502.84 1505.47 L2502.84 1505.96 L2519.80 1505.96 L2519.80 1506.58 L2536.75 1506.58 L2536.75 1507.32 L2553.83 1507.32 L2553.83 1507.94 L2570.78 1507.94 L2570.78 1508.56 L2587.86 1508.56 L2587.86 1509.18 L2604.81 1509.18 L2604.81 1509.80 L2621.89 1509.80 L2621.89 1510.42 L2638.84 1510.42 L2638.84 1511.03 L2655.80 1511.03 L2655.80 1511.65 L2672.88 1511.65 L2672.88 1512.27 L2689.83 1512.27 L2689.83 1512.89 L2706.91 1512.89 L2706.91 1513.51 L2723.86 1513.51 L2723.86 1514.13 L2740.94 1514.13 L2740.94 1514.75 L2757.89 1514.75 L2757.89 1515.49 L2774.85 1515.49 L2774.85 1516.11 L2791.92 1516.11 L2791.92 1516.73 L2808.88 1516.73 L2808.88 1517.35 L2825.95 1517.35 L2825.95 1518.09 L2842.91 1518.09 L2842.91 1518.71 L2859.99 1518.71 L2859.99 1519.33 L2876.94 1519.33 L2876.94 1520.07 L2893.89 1520.07 L2893.89 1520.69 L2910.97 1520.69 L2910.97 1521.31 L2927.93 1521.31 L2927.93 1522.05 L2945.00 1522.05 L2945.00 1522.67 L2961.96 1522.67 L2961.96 1523.29 L2979.03 1523.29 L2979.03 1524.03 L2995.99 1524.03 L2995.99 1524.65 L3012.94 1524.65 L3012.94 1525.27 L3030.02 1525.27 L3030.02 1526.01 L3046.97 1526.01 L3046.97 1526.63 L3064.05 1526.63 L3064.05 1527.37 L3081.00 1527.37 L3081.00 1527.99 L3097.96 1527.99 L3097.96 1528.61 L3115.03 1528.61 L3115.03 1529.35 L3131.99 1529.35 L3131.99 1529.97 L3149.07 1529.97 L3149.07 1530.59 L3166.02 1530.59 L3166.02 1531.33 L3183.10 1531.33 L3183.10 1531.95 L3200.05 1531.95 L3200.05 1532.69 L3217.01 1532.69 L3217.01 1533.31 L3234.08 1533.31 L3234.08 1533.93 L3251.04 1533.93 L3251.04 1534.67 L3268.11 1534.67 L3268.11 1535.29 L3285.07 1535.29 L3285.07 1536.03 L3302.14 1536.03 L3302.14 1536.65 L3319.10 1536.65 L3319.10 1537.39 L3336.05 1537.39 L3336.05 1538.01 L3353.13 1538.01 L3353.13 1538.76 L3370.08 1538.76 L3370.08 1539.37 L3387.16 1539.37 L3387.16 1540.12 L3404.11 1540.12 L3404.11 1540.74 L3421.19 1540.74 L3421.19 1541.48 L3438.15 1541.48 L3438.15 1542.10 L3455.10 1542.10 L3455.10 1542.72 L3472.18 1542.72 L3472.18 1543.46 L3489.13 1543.46 L3489.13 1544.20 L3506.21 1544.20 L3506.21 1544.82 L3523.16 1544.82 L3523.16 1545.56 L3540.24 1545.56 L3540.24 1546.18 L3557.19 1546.18 L3557.19 1546.92 L3574.15 1546.92 L3574.15 1547.54 L3591.22 1547.54 L3591.22 1548.28 L3608.18 1548.28 L3608.18 1549.03 L3625.26 1549.03 L3625.26 1549.65 L3642.21 1549.65 L3642.21 1550.39 L3659.29 1550.39 L3659.29 1551.01 L3676.24 1551.01 L3676.24 1551.75 L3693.20 1551.75 L3693.20 1552.49 L3710.27 1552.49 L3710.27 1553.11 L3727.23 1553.11 L3727.23 1553.85 L3744.30 1553.85 L3744.30 1554.60 L3761.26 1554.60 L3761.26 1555.21 L3778.34 1555.21 L3778.34 1555.96 L3795.29 1555.96 L3795.29 1556.58 L3795.29 1209.57 L3795.29 1211.30 L3778.34 1211.30 L3778.34 1212.91 L3761.26 1212.91 L3761.26 1214.64 L3744.30 1214.64 L3744.30 1216.38 L3727.23 1216.38 L3727.23 1218.11 L3710.27 1218.11 L3710.27 1219.72 L3693.20 1219.72 L3693.20 1221.45 L3676.24 1221.45 L3676.24 1223.18 L3659.29 1223.18 L3659.29 1224.92 L3642.21 1224.92 L3642.21 1226.52 L3625.26 1226.52 L3625.26 1228.26 L3608.18 1228.26 L3608.18 1229.99 L3591.22 1229.99 L3591.22 1231.60 L3574.15 1231.60 L3574.15 1233.33 L3557.19 1233.33 L3557.19 1234.94 L3540.24 1234.94 L3540.24 1236.67 L3523.16 1236.67 L3523.16 1238.40 L3506.21 1238.40 L3506.21 1240.01 L3489.13 1240.01 L3489.13 1241.75 L3472.18 1241.75 L3472.18 1243.48 L3455.10 1243.48 L3455.10 1245.09 L3438.15 1245.09 L3438.15 1246.82 L3421.19 1246.82 L3421.19 1248.55 L3404.11 1248.55 L3404.11 1250.16 L3387.16 1250.16 L3387.16 1251.89 L3370.08 1251.89 L3370.08 1253.63 L3353.13 1253.63 L3353.13 1255.24 L3336.05 1255.24 L3336.05 1256.97 L3319.10 1256.97 L3319.10 1258.58 L3302.14 1258.58 L3302.14 1260.31 L3285.07 1260.31 L3285.07 1261.92 L3268.11 1261.92 L3268.11 1263.65 L3251.04 1263.65 L3251.04 1265.26 L3234.08 1265.26 L3234.08 1266.99 L3217.01 1266.99 L3217.01 1268.60 L3200.05 1268.60 L3200.05 1270.33 L3183.10 1270.33 L3183.10 1271.94 L3166.02 1271.94 L3166.02 1273.67 L3149.07 1273.67 L3149.07 1275.28 L3131.99 1275.28 L3131.99 1277.02 L3115.03 1277.02 L3115.03 1278.62 L3097.96 1278.62 L3097.96 1280.36 L3081.00 1280.36 L3081.00 1281.97 L3064.05 1281.97 L3064.05 1283.58 L3046.97 1283.58 L3046.97 1285.31 L3030.02 1285.31 L3030.02 1286.92 L3012.94 1286.92 L3012.94 1288.53 L2995.99 1288.53 L2995.99 1290.13 L2979.03 1290.13 L2979.03 1291.87 L2961.96 1291.87 L2961.96 1293.48 L2945.00 1293.48 L2945.00 1295.08 L2927.93 1295.08 L2927.93 1296.82 L2910.97 1296.82 L2910.97 1298.43 L2893.89 1298.43 L2893.89 1300.03 L2876.94 1300.03 L2876.94 1301.64 L2859.99 1301.64 L2859.99 1303.25 L2842.91 1303.25 L2842.91 1304.86 L2825.95 1304.86 L2825.95 1306.47 L2808.88 1306.47 L2808.88 1308.08 L2791.92 1308.08 L2791.92 1309.69 L2774.85 1309.69 L2774.85 1311.30 L2757.89 1311.30 L2757.89 1312.90 L2740.94 1312.90 L2740.94 1314.51 L2723.86 1314.51 L2723.86 1316.12 L2706.91 1316.12 L2706.91 1317.73 L2689.83 1317.73 L2689.83 1319.34 L2672.88 1319.34 L2672.88 1320.95 L2655.80 1320.95 L2655.80 1322.56 L2638.84 1322.56 L2638.84 1324.17 L2621.89 1324.17 L2621.89 1325.78 L2604.81 1325.78 L2604.81 1327.38 L2587.86 1327.38 L2587.86 1328.99 L2570.78 1328.99 L2570.78 1330.60 L2553.83 1330.60 L2553.83 1332.21 L2536.75 1332.21 L2536.75 1333.70 L2519.80 1333.70 L2519.80 1335.30 L2502.84 1335.30 L2502.84 1336.91 L2485.77 1336.91 L2485.77 1338.52 L2468.81 1338.52 L2468.81 1340.13 L2451.74 1340.13 L2451.74 1341.74 L2434.78 1341.74 L2434.78 1343.35 L2417.70 1343.35 L2417.70 1344.96 L2400.75 1344.96 L2400.75 1346.57 L2383.80 1346.57 L2383.80 1348.17 L2366.72 1348.17 L2366.72 1349.66 L2349.76 1349.66 L2349.76 1351.27 L2332.69 1351.27 L2332.69 1352.88 L2315.73 1352.88 L2315.73 1354.49 L2298.66 1354.49 L2298.66 1355.97 L2281.70 1355.97 L2281.70 1357.58 L2264.75 1357.58 L2264.75 1359.06 L2247.67 1359.06 L2247.67 1360.67 L2230.72 1360.67 L2230.72 1362.16 L2213.64 1362.16 L2213.64 1363.77 L2196.69 1363.77 L2196.69 1365.25 L2179.61 1365.25 L2179.61 1366.86 L2162.66 1366.86 L2162.66 1368.35 L2145.70 1368.35 L2145.70 1369.83 L2128.62 1369.83 L2128.62 1371.32 L2111.67 1371.32 L2111.67 1372.93 L2094.59 1372.93 L2094.59 1374.41 L2077.64 1374.41 L2077.64 1375.90 L2060.56 1375.90 L2060.56 1377.38 L2043.61 1377.38 L2043.61 1378.87 L2026.65 1378.87 L2026.65 1380.35 L2009.58 1380.35 L2009.58 1381.71 L1992.62 1381.71 L1992.62 1383.20 L1975.55 1383.20 L1975.55 1384.68 L1958.59 1384.68 L1958.59 1386.17 L1941.51 1386.17 L1941.51 1387.53 L1924.56 1387.53 L1924.56 1389.01 L1907.61 1389.01 L1907.61 1390.37 L1890.53 1390.37 L1890.53 1391.86 L1873.58 1391.86 L1873.58 1393.34 L1856.50 1393.34 L1856.50 1394.71 L1839.54 1394.71 L1839.54 1396.07 L1822.59 1396.07 L1822.59 1397.55 L1805.51 1397.55 L1805.51 1398.91 L1788.56 1398.91 L1788.56 1400.40 L1771.48 1400.40 L1771.48 1401.76 L1754.53 1401.76 L1754.53 1403.12 L1737.45 1403.12 L1737.45 1404.61 L1720.50 1404.61 L1720.50 1405.97 L1703.54 1405.97 L1703.54 1407.33 L1686.46 1407.33 L1686.46 1408.69 L1669.51 1408.69 L1669.51 1410.18 L1652.43 1410.18 L1652.43 1411.54 L1635.48 1411.54 L1635.48 1412.90 L1618.40 1412.90 L1618.40 1414.26 L1601.45 1414.26 L1601.45 1415.62 L1584.49 1415.62 L1584.49 1416.98 L1567.42 1416.98 L1567.42 1418.34 L1550.46 1418.34 L1550.46 1419.70 L1533.39 1419.70 L1533.39 1421.07 L1516.43 1421.07 L1516.43 1422.43 L1499.36 1422.43 L1499.36 1423.66 L1482.40 1423.66 L1482.40 1425.03 L1465.45 1425.03 L1465.45 1426.39 L1448.37 1426.39 L1448.37 1427.62 L1431.42 1427.62 L1431.42 1428.86 L1414.34 1428.86 L1414.34 1430.10 L1397.38 1430.10 L1397.38 1431.34 L1380.31 1431.34 L1380.31 1432.57 L1363.35 1432.57 L1363.35 1433.81 L1346.40 1433.81 L1346.40 1434.93 L1329.32 1434.93 L1329.32 1436.04 L1312.37 1436.04 L1312.37 1437.28 L1295.29 1437.28 L1295.29 1438.39 L1278.34 1438.39 L1278.34 1439.50 L1261.26 1439.50 L1261.26 1440.62 L1244.31 1440.62 L1244.31 1441.73 L1227.35 1441.73 L1227.35 1442.85 L1210.28 1442.85 L1210.28 1443.84 L1193.32 1443.84 L1193.32 1444.95 L1176.24 1444.95 L1176.24 1445.94 L1159.29 1445.94 L1159.29 1447.05 L1142.21 1447.05 L1142.21 1448.04 L1125.26 1448.04 L1125.26 1449.03 L1108.31 1449.03 L1108.31 1449.90 L1091.23 1449.90 L1091.23 1450.89 L1074.27 1450.89 L1074.27 1451.76 L1057.20 1451.76 L1057.20 1452.62 L1040.24 1452.62 L1040.24 1453.49 L1023.16 1453.49 L1023.16 1454.36 L1006.21 1454.36 L1006.21 1455.10 L989.26 1455.10 L989.26 1455.96 L972.18 1455.96 L972.18 1456.71 L955.23 1456.71 L955.23 1457.45 L938.15 1457.45 L938.15 1458.07 L921.20 1458.07 L921.20 1458.81 L904.12 1458.81 L904.12 1459.43 L887.16 1459.43 L887.16 1460.05 L870.21 1460.05 L870.21 1460.54 L853.13 1460.54 L853.13 1461.16 L836.18 1461.16 L836.18 1461.66 L819.10 1461.66 L819.10 1462.15 L802.15 1462.15 L802.15 1462.52 L785.19 1462.52 L785.19 1462.89 L768.12 1462.89 L768.12 1463.27 L751.16 1463.27 L751.16 1465.00 Z" stroke-linejoin="round"/>
	</defs>
	<defs>
		<clipPath id="clipPath_fpELujPz">
			<use xlink:href="#path_IfmohQEa"/>
		</clipPath>
	</defs>
	<use xlink:href="#path_IfmohQEa" style="stroke:none;fill:#999999;fill-opacity:0.75"/>
	<use xlink:href="#path_IfmohQEa" style="fill:none;stroke:#808080;stroke-opacity:0.75;stroke-width:17.28" clip-path="url(#clipPath_fpELujPz)"/>
	<path d=" M751.04 1464.13 L768.12 1464.13 L768.12 1464.01 L785.07 1464.01 L785.07 1463.88 L802.02 1463.88 L802.02 1463.76 L819.10 1463.76 L819.10 1463.64 L836.05 1463.64 L836.05 1463.39 L853.13 1463.39 L853.13 1463.27 L870.09 1463.27 L870.09 1463.02 L887.16 1463.02 L887.16 1462.77 L904.12 1462.77 L904.12 1462.52 L921.07 1462.52 L921.07 1462.28 L938.15 1462.28 L938.15 1462.03 L955.10 1462.03 L955.10 1461.78 L972.18 1461.78 L972.18 1461.53 L989.13 1461.53 L989.13 1461.16 L1006.21 1461.16 L1006.21 1460.91 L1023.16 1460.91 L1023.16 1460.54 L1040.12 1460.54 L1040.12 1460.30 L1057.20 1460.30 L1057.20 1459.92 L1074.15 1459.92 L1074.15 1459.55 L1091.23 1459.55 L1091.23 1459.31 L1108.18 1459.31 L1108.18 1458.93 L1125.26 1458.93 L1125.26 1458.56 L1142.21 1458.56 L1142.21 1458.19 L1159.17 1458.19 L1159.17 1457.82 L1176.24 1457.82 L1176.24 1457.45 L1193.20 1457.45 L1193.20 1456.95 L1210.28 1456.95 L1210.28 1456.58 L1227.23 1456.58 L1227.23 1456.21 L1244.31 1456.21 L1244.31 1455.84 L1261.26 1455.84 L1261.26 1455.47 L1278.21 1455.47 L1278.21 1454.97 L1295.29 1454.97 L1295.29 1454.60 L1312.24 1454.60 L1312.24 1454.23 L1329.32 1454.23 L1329.32 1453.74 L1346.28 1453.74 L1346.28 1453.37 L1363.35 1453.37 L1363.35 1452.87 L1380.31 1452.87 L1380.31 1452.50 L1397.26 1452.50 L1397.26 1452.00 L1414.34 1452.00 L1414.34 1451.63 L1431.29 1451.63 L1431.29 1451.14 L1448.37 1451.14 L1448.37 1450.64 L1465.32 1450.64 L1465.32 1450.15 L1482.28 1450.15 L1482.28 1449.65 L1499.36 1449.65 L1499.36 1449.28 L1516.31 1449.28 L1516.31 1448.79 L1533.39 1448.79 L1533.39 1448.29 L1550.34 1448.29 L1550.34 1447.67 L1567.42 1447.67 L1567.42 1447.18 L1584.37 1447.18 L1584.37 1446.68 L1601.33 1446.68 L1601.33 1446.31 L1618.40 1446.31 L1618.40 1445.82 L1635.36 1445.82 L1635.36 1445.32 L1652.43 1445.32 L1652.43 1444.83 L1669.39 1444.83 L1669.39 1444.33 L1686.46 1444.33 L1686.46 1443.84 L1703.42 1443.84 L1703.42 1443.34 L1720.37 1443.34 L1720.37 1442.85 L1737.45 1442.85 L1737.45 1442.48 L1754.40 1442.48 L1754.40 1441.98 L1771.48 1441.98 L1771.48 1441.49 L1788.43 1441.49 L1788.43 1440.99 L1805.51 1440.99 L1805.51 1440.62 L1822.47 1440.62 L1822.47 1440.12 L1839.42 1440.12 L1839.42 1439.63 L1856.50 1439.63 L1856.50 1439.26 L1873.45 1439.26 L1873.45 1438.76 L1890.53 1438.76 L1890.53 1438.27 L1907.48 1438.27 L1907.48 1437.90 L1924.56 1437.90 L1924.56 1437.40 L1941.51 1437.40 L1941.51 1436.91 L1958.47 1436.91 L1958.47 1436.53 L1975.55 1436.53 L1975.55 1436.04 L1992.50 1436.04 L1992.50 1435.54 L2009.58 1435.54 L2009.58 1435.05 L2026.53 1435.05 L2026.53 1434.68 L2043.61 1434.68 L2043.61 1434.18 L2060.56 1434.18 L2060.56 1433.69 L2077.51 1433.69 L2077.51 1433.19 L2094.59 1433.19 L2094.59 1432.70 L2111.55 1432.70 L2111.55 1432.20 L2128.62 1432.20 L2128.62 1431.83 L2145.58 1431.83 L2145.58 1431.34 L2162.66 1431.34 L2162.66 1430.84 L2179.61 1430.84 L2179.61 1430.35 L2196.56 1430.35 L2196.56 1429.85 L2213.64 1429.85 L2213.64 1429.36 L2230.59 1429.36 L2230.59 1428.86 L2247.67 1428.86 L2247.67 1428.37 L2264.63 1428.37 L2264.63 1427.87 L2281.70 1427.87 L2281.70 1427.38 L2298.66 1427.38 L2298.66 1426.88 L2315.61 1426.88 L2315.61 1426.39 L2332.69 1426.39 L2332.69 1425.89 L2349.64 1425.89 L2349.64 1425.40 L2366.72 1425.40 L2366.72 1424.78 L2383.67 1424.78 L2383.67 1424.28 L2400.75 1424.28 L2400.75 1423.79 L2417.70 1423.79 L2417.70 1423.29 L2434.66 1423.29 L2434.66 1422.80 L2451.74 1422.80 L2451.74 1422.18 L2468.69 1422.18 L2468.69 1421.68 L2485.77 1421.68 L2485.77 1421.19 L2502.72 1421.19 L2502.72 1420.69 L2519.67 1420.69 L2519.67 1420.20 L2536.75 1420.20 L2536.75 1419.83 L2553.70 1419.83 L2553.70 1419.33 L2570.78 1419.33 L2570.78 1418.84 L2587.74 1418.84 L2587.74 1418.34 L2604.81 1418.34 L2604.81 1417.85 L2621.77 1417.85 L2621.77 1417.35 L2638.72 1417.35 L2638.72 1416.86 L2655.80 1416.86 L2655.80 1416.36 L2672.75 1416.36 L2672.75 1415.87 L2689.83 1415.87 L2689.83 1415.37 L2706.78 1415.37 L2706.78 1414.88 L2723.86 1414.88 L2723.86 1414.38 L2740.82 1414.38 L2740.82 1413.89 L2757.77 1413.89 L2757.77 1413.52 L2774.85 1413.52 L2774.85 1413.02 L2791.80 1413.02 L2791.80 1412.53 L2808.88 1412.53 L2808.88 1412.03 L2825.83 1412.03 L2825.83 1411.54 L2842.91 1411.54 L2842.91 1411.04 L2859.86 1411.04 L2859.86 1410.55 L2876.82 1410.55 L2876.82 1410.05 L2893.89 1410.05 L2893.89 1409.56 L2910.85 1409.56 L2910.85 1409.06 L2927.93 1409.06 L2927.93 1408.57 L2944.88 1408.57 L2944.88 1408.07 L2961.96 1408.07 L2961.96 1407.58 L2978.91 1407.58 L2978.91 1407.21 L2995.86 1407.21 L2995.86 1406.71 L3012.94 1406.71 L3012.94 1406.22 L3029.89 1406.22 L3029.89 1405.72 L3046.97 1405.72 L3046.97 1405.23 L3063.93 1405.23 L3063.93 1404.73 L3081.00 1404.73 L3081.00 1404.24 L3097.96 1404.24 L3097.96 1403.74 L3114.91 1403.74 L3114.91 1403.25 L3131.99 1403.25 L3131.99 1402.75 L3148.94 1402.75 L3148.94 1402.26 L3166.02 1402.26 L3166.02 1401.76 L3182.97 1401.76 L3182.97 1401.14 L3200.05 1401.14 L3200.05 1400.65 L3217.01 1400.65 L3217.01 1400.15 L3233.96 1400.15 L3233.96 1399.66 L3251.04 1399.66 L3251.04 1399.16 L3267.99 1399.16 L3267.99 1398.67 L3285.07 1398.67 L3285.07 1398.17 L3302.02 1398.17 L3302.02 1397.68 L3319.10 1397.68 L3319.10 1397.18 L3336.05 1397.18 L3336.05 1396.69 L3353.01 1396.69 L3353.01 1396.19 L3370.08 1396.19 L3370.08 1395.70 L3387.04 1395.70 L3387.04 1395.20 L3404.11 1395.20 L3404.11 1394.71 L3421.07 1394.71 L3421.07 1394.21 L3438.15 1394.21 L3438.15 1393.72 L3455.10 1393.72 L3455.10 1393.22 L3472.05 1393.22 L3472.05 1392.73 L3489.13 1392.73 L3489.13 1392.11 L3506.09 1392.11 L3506.09 1391.61 L3523.16 1391.61 L3523.16 1391.12 L3540.12 1391.12 L3540.12 1390.62 L3557.07 1390.62 L3557.07 1390.13 L3574.15 1390.13 L3574.15 1389.63 L3591.10 1389.63 L3591.10 1389.14 L3608.18 1389.14 L3608.18 1388.64 L3625.13 1388.64 L3625.13 1388.15 L3642.21 1388.15 L3642.21 1387.65 L3659.16 1387.65 L3659.16 1387.16 L3676.12 1387.16 L3676.12 1386.66 L3693.20 1386.66 L3693.20 1386.17 L3710.15 1386.17 L3710.15 1385.67 L3727.23 1385.67 L3727.23 1385.18 L3744.18 1385.18 L3744.18 1384.68 L3761.26 1384.68 L3761.26 1384.19 L3778.21 1384.19 L3778.21 1383.69 L3795.16 1383.69 L3795.16 1383.20" stroke-linejoin="round" style="fill:none;stroke:#000000;stroke-width:8.64"/>
	<defs>
		<path id="path_VjNApovF" d="M751.16 1465.25 L751.16 1465.25 L768.12 1465.25 L768.12 1465.37 L785.19 1465.37 L785.19 1465.62 L802.15 1465.62 L802.15 1465.86 L819.10 1465.86 L819.10 1465.99 L836.18 1465.99 L836.18 1466.24 L853.13 1466.24 L853.13 1466.48 L870.21 1466.48 L870.21 1466.73 L887.16 1466.73 L887.16 1467.10 L904.12 1467.10 L904.12 1467.35 L921.20 1467.35 L921.20 1467.60 L938.15 1467.60 L938.15 1467.84 L955.23 1467.84 L955.23 1468.22 L972.18 1468.22 L972.18 1468.46 L989.26 1468.46 L989.26 1468.83 L1006.21 1468.83 L1006.21 1469.21 L1023.16 1469.21 L1023.16 1469.58 L1040.24 1469.58 L1040.24 1469.95 L1057.20 1469.95 L1057.20 1470.32 L1074.27 1470.32 L1074.27 1470.69 L1091.23 1470.69 L1091.23 1471.19 L1108.31 1471.19 L1108.31 1471.56 L1125.26 1471.56 L1125.26 1472.05 L1142.21 1472.05 L1142.21 1472.55 L1159.29 1472.55 L1159.29 1473.04 L1176.24 1473.04 L1176.24 1473.54 L1193.32 1473.54 L1193.32 1474.03 L1210.28 1474.03 L1210.28 1474.53 L1227.35 1474.53 L1227.35 1475.02 L1244.31 1475.02 L1244.31 1475.52 L1261.26 1475.52 L1261.26 1476.14 L1278.34 1476.14 L1278.34 1476.63 L1295.29 1476.63 L1295.29 1477.13 L1312.37 1477.13 L1312.37 1477.74 L1329.32 1477.74 L1329.32 1478.24 L1346.40 1478.24 L1346.40 1478.86 L1363.35 1478.86 L1363.35 1479.48 L1380.31 1479.48 L1380.31 1480.10 L1397.38 1480.10 L1397.38 1480.72 L1414.34 1480.72 L1414.34 1481.33 L1431.42 1481.33 L1431.42 1481.95 L1448.37 1481.95 L1448.37 1482.57 L1465.45 1482.57 L1465.45 1483.31 L1482.40 1483.31 L1482.40 1483.93 L1499.36 1483.93 L1499.36 1484.68 L1516.43 1484.68 L1516.43 1485.42 L1533.39 1485.42 L1533.39 1486.04 L1550.46 1486.04 L1550.46 1486.78 L1567.42 1486.78 L1567.42 1487.52 L1584.49 1487.52 L1584.49 1488.26 L1601.45 1488.26 L1601.45 1489.01 L1618.40 1489.01 L1618.40 1489.75 L1635.48 1489.75 L1635.48 1490.49 L1652.43 1490.49 L1652.43 1491.23 L1669.51 1491.23 L1669.51 1491.98 L1686.46 1491.98 L1686.46 1492.72 L1703.54 1492.72 L1703.54 1493.46 L1720.50 1493.46 L1720.50 1494.33 L1737.45 1494.33 L1737.45 1495.07 L1754.53 1495.07 L1754.53 1495.81 L1771.48 1495.81 L1771.48 1496.68 L1788.56 1496.68 L1788.56 1497.42 L1805.51 1497.42 L1805.51 1498.29 L1822.59 1498.29 L1822.59 1499.15 L1839.54 1499.15 L1839.54 1499.90 L1856.50 1499.90 L1856.50 1500.76 L1873.58 1500.76 L1873.58 1501.63 L1890.53 1501.63 L1890.53 1502.50 L1907.61 1502.50 L1907.61 1503.24 L1924.56 1503.24 L1924.56 1504.10 L1941.51 1504.10 L1941.51 1504.97 L1958.59 1504.97 L1958.59 1505.84 L1975.55 1505.84 L1975.55 1506.58 L1992.62 1506.58 L1992.62 1507.45 L2009.58 1507.45 L2009.58 1508.31 L2026.65 1508.31 L2026.65 1509.18 L2043.61 1509.18 L2043.61 1510.04 L2060.56 1510.04 L2060.56 1510.91 L2077.64 1510.91 L2077.64 1511.78 L2094.59 1511.78 L2094.59 1512.64 L2111.67 1512.64 L2111.67 1513.51 L2128.62 1513.51 L2128.62 1514.38 L2145.70 1514.38 L2145.70 1515.24 L2162.66 1515.24 L2162.66 1516.11 L2179.61 1516.11 L2179.61 1516.97 L2196.69 1516.97 L2196.69 1517.96 L2213.64 1517.96 L2213.64 1518.83 L2230.72 1518.83 L2230.72 1519.70 L2247.67 1519.70 L2247.67 1520.69 L2264.75 1520.69 L2264.75 1521.55 L2281.70 1521.55 L2281.70 1522.54 L2298.66 1522.54 L2298.66 1523.41 L2315.73 1523.41 L2315.73 1524.40 L2332.69 1524.40 L2332.69 1525.27 L2349.76 1525.27 L2349.76 1526.26 L2366.72 1526.26 L2366.72 1527.12 L2383.80 1527.12 L2383.80 1528.11 L2400.75 1528.11 L2400.75 1529.10 L2417.70 1529.10 L2417.70 1530.09 L2434.78 1530.09 L2434.78 1530.96 L2451.74 1530.96 L2451.74 1531.95 L2468.81 1531.95 L2468.81 1532.94 L2485.77 1532.94 L2485.77 1533.93 L2502.84 1533.93 L2502.84 1534.92 L2519.80 1534.92 L2519.80 1535.79 L2536.75 1535.79 L2536.75 1536.78 L2553.83 1536.78 L2553.83 1537.77 L2570.78 1537.77 L2570.78 1538.76 L2587.86 1538.76 L2587.86 1539.75 L2604.81 1539.75 L2604.81 1540.74 L2621.89 1540.74 L2621.89 1541.73 L2638.84 1541.73 L2638.84 1542.72 L2655.80 1542.72 L2655.80 1543.71 L2672.88 1543.71 L2672.88 1544.70 L2689.83 1544.70 L2689.83 1545.69 L2706.91 1545.69 L2706.91 1546.68 L2723.86 1546.68 L2723.86 1547.67 L2740.94 1547.67 L2740.94 1548.66 L2757.89 1548.66 L2757.89 1549.77 L2774.85 1549.77 L2774.85 1550.76 L2791.92 1550.76 L2791.92 1551.75 L2808.88 1551.75 L2808.88 1552.74 L2825.95 1552.74 L2825.95 1553.73 L2842.91 1553.73 L2842.91 1554.84 L2859.99 1554.84 L2859.99 1555.83 L2876.94 1555.83 L2876.94 1556.82 L2893.89 1556.82 L2893.89 1557.94 L2910.97 1557.94 L2910.97 1558.93 L2927.93 1558.93 L2927.93 1560.04 L2945.00 1560.04 L2945.00 1561.03 L2961.96 1561.03 L2961.96 1562.15 L2979.03 1562.15 L2979.03 1563.14 L2995.99 1563.14 L2995.99 1564.25 L3012.94 1564.25 L3012.94 1565.24 L3030.02 1565.24 L3030.02 1566.35 L3046.97 1566.35 L3046.97 1567.34 L3064.05 1567.34 L3064.05 1568.33 L3081.00 1568.33 L3081.00 1569.45 L3097.96 1569.45 L3097.96 1570.56 L3115.03 1570.56 L3115.03 1571.55 L3131.99 1571.55 L3131.99 1572.66 L3149.07 1572.66 L3149.07 1573.65 L3166.02 1573.65 L3166.02 1574.77 L3183.10 1574.77 L3183.10 1575.88 L3200.05 1575.88 L3200.05 1576.87 L3217.01 1576.87 L3217.01 1577.99 L3234.08 1577.99 L3234.08 1579.10 L3251.04 1579.10 L3251.04 1580.09 L3268.11 1580.09 L3268.11 1581.20 L3285.07 1581.20 L3285.07 1582.32 L3302.14 1582.32 L3302.14 1583.43 L3319.10 1583.43 L3319.10 1584.42 L3336.05 1584.42 L3336.05 1585.53 L3353.13 1585.53 L3353.13 1586.65 L3370.08 1586.65 L3370.08 1587.76 L3387.16 1587.76 L3387.16 1588.75 L3404.11 1588.75 L3404.11 1589.87 L3421.19 1589.87 L3421.19 1590.98 L3438.15 1590.98 L3438.15 1592.09 L3455.10 1592.09 L3455.10 1593.08 L3472.18 1593.08 L3472.18 1594.20 L3489.13 1594.20 L3489.13 1595.31 L3506.21 1595.31 L3506.21 1596.42 L3523.16 1596.42 L3523.16 1597.41 L3540.24 1597.41 L3540.24 1598.53 L3557.19 1598.53 L3557.19 1599.64 L3574.15 1599.64 L3574.15 1600.76 L3591.22 1600.76 L3591.22 1601.87 L3608.18 1601.87 L3608.18 1602.98 L3625.26 1602.98 L3625.26 1604.10 L3642.21 1604.10 L3642.21 1605.09 L3659.29 1605.09 L3659.29 1606.20 L3676.24 1606.20 L3676.24 1607.32 L3693.20 1607.32 L3693.20 1608.43 L3710.27 1608.43 L3710.27 1609.54 L3727.23 1609.54 L3727.23 1610.66 L3744.30 1610.66 L3744.30 1611.77 L3761.26 1611.77 L3761.26 1612.88 L3778.34 1612.88 L3778.34 1614.12 L3795.29 1614.12 L3795.29 1615.24 L3795.29 1438.02 L3795.29 1438.02 L3778.34 1438.02 L3778.34 1438.02 L3761.26 1438.02 L3761.26 1438.02 L3744.30 1438.02 L3744.30 1438.14 L3727.23 1438.14 L3727.23 1438.14 L3710.27 1438.14 L3710.27 1438.14 L3693.20 1438.14 L3693.20 1438.14 L3676.24 1438.14 L3676.24 1438.14 L3659.29 1438.14 L3659.29 1438.14 L3642.21 1438.14 L3642.21 1438.27 L3625.26 1438.27 L3625.26 1438.27 L3608.18 1438.27 L3608.18 1438.27 L3591.22 1438.27 L3591.22 1438.27 L3574.15 1438.27 L3574.15 1438.39 L3557.19 1438.39 L3557.19 1438.39 L3540.24 1438.39 L3540.24 1438.39 L3523.16 1438.39 L3523.16 1438.51 L3506.21 1438.51 L3506.21 1438.51 L3489.13 1438.51 L3489.13 1438.51 L3472.18 1438.51 L3472.18 1438.64 L3455.10 1438.64 L3455.10 1438.64 L3438.15 1438.64 L3438.15 1438.64 L3421.19 1438.64 L3421.19 1438.76 L3404.11 1438.76 L3404.11 1438.76 L3387.16 1438.76 L3387.16 1438.76 L3370.08 1438.76 L3370.08 1438.76 L3353.13 1438.76 L3353.13 1438.89 L3336.05 1438.89 L3336.05 1438.89 L3319.10 1438.89 L3319.10 1438.89 L3302.14 1438.89 L3302.14 1438.89 L3285.07 1438.89 L3285.07 1439.01 L3268.11 1439.01 L3268.11 1439.01 L3251.04 1439.01 L3251.04 1439.01 L3234.08 1439.01 L3234.08 1439.13 L3217.01 1439.13 L3217.01 1439.13 L3200.05 1439.13 L3200.05 1439.13 L3183.10 1439.13 L3183.10 1439.13 L3166.02 1439.13 L3166.02 1439.26 L3149.07 1439.26 L3149.07 1439.26 L3131.99 1439.26 L3131.99 1439.26 L3115.03 1439.26 L3115.03 1439.38 L3097.96 1439.38 L3097.96 1439.38 L3081.00 1439.38 L3081.00 1439.50 L3064.05 1439.50 L3064.05 1439.50 L3046.97 1439.50 L3046.97 1439.63 L3030.02 1439.63 L3030.02 1439.63 L3012.94 1439.63 L3012.94 1439.63 L2995.99 1439.63 L2995.99 1439.75 L2979.03 1439.75 L2979.03 1439.75 L2961.96 1439.75 L2961.96 1439.75 L2945.00 1439.75 L2945.00 1439.88 L2927.93 1439.88 L2927.93 1439.88 L2910.97 1439.88 L2910.97 1440.00 L2893.89 1440.00 L2893.89 1440.00 L2876.94 1440.00 L2876.94 1440.00 L2859.99 1440.00 L2859.99 1440.12 L2842.91 1440.12 L2842.91 1440.12 L2825.95 1440.12 L2825.95 1440.25 L2808.88 1440.25 L2808.88 1440.25 L2791.92 1440.25 L2791.92 1440.37 L2774.85 1440.37 L2774.85 1440.37 L2757.89 1440.37 L2757.89 1440.50 L2740.94 1440.50 L2740.94 1440.62 L2723.86 1440.62 L2723.86 1440.62 L2706.91 1440.62 L2706.91 1440.74 L2689.83 1440.74 L2689.83 1440.74 L2672.88 1440.74 L2672.88 1440.87 L2655.80 1440.87 L2655.80 1440.99 L2638.84 1440.99 L2638.84 1440.99 L2621.89 1440.99 L2621.89 1441.11 L2604.81 1441.11 L2604.81 1441.24 L2587.86 1441.24 L2587.86 1441.24 L2570.78 1441.24 L2570.78 1441.36 L2553.83 1441.36 L2553.83 1441.49 L2536.75 1441.49 L2536.75 1441.61 L2519.80 1441.61 L2519.80 1441.73 L2502.84 1441.73 L2502.84 1441.73 L2485.77 1441.73 L2485.77 1441.86 L2468.81 1441.86 L2468.81 1441.98 L2451.74 1441.98 L2451.74 1442.10 L2434.78 1442.10 L2434.78 1442.23 L2417.70 1442.23 L2417.70 1442.23 L2400.75 1442.23 L2400.75 1442.35 L2383.80 1442.35 L2383.80 1442.48 L2366.72 1442.48 L2366.72 1442.60 L2349.76 1442.60 L2349.76 1442.72 L2332.69 1442.72 L2332.69 1442.85 L2315.73 1442.85 L2315.73 1442.97 L2298.66 1442.97 L2298.66 1443.09 L2281.70 1443.09 L2281.70 1443.22 L2264.75 1443.22 L2264.75 1443.34 L2247.67 1443.34 L2247.67 1443.47 L2230.72 1443.47 L2230.72 1443.59 L2213.64 1443.59 L2213.64 1443.71 L2196.69 1443.71 L2196.69 1443.84 L2179.61 1443.84 L2179.61 1444.08 L2162.66 1444.08 L2162.66 1444.21 L2145.70 1444.21 L2145.70 1444.33 L2128.62 1444.33 L2128.62 1444.46 L2111.67 1444.46 L2111.67 1444.70 L2094.59 1444.70 L2094.59 1444.83 L2077.64 1444.83 L2077.64 1444.95 L2060.56 1444.95 L2060.56 1445.20 L2043.61 1445.20 L2043.61 1445.32 L2026.65 1445.32 L2026.65 1445.57 L2009.58 1445.57 L2009.58 1445.69 L1992.62 1445.69 L1992.62 1445.94 L1975.55 1445.94 L1975.55 1446.06 L1958.59 1446.06 L1958.59 1446.19 L1941.51 1446.19 L1941.51 1446.44 L1924.56 1446.44 L1924.56 1446.56 L1907.61 1446.56 L1907.61 1446.81 L1890.53 1446.81 L1890.53 1446.93 L1873.58 1446.93 L1873.58 1447.18 L1856.50 1447.18 L1856.50 1447.30 L1839.54 1447.30 L1839.54 1447.55 L1822.59 1447.55 L1822.59 1447.67 L1805.51 1447.67 L1805.51 1447.92 L1788.56 1447.92 L1788.56 1448.04 L1771.48 1448.04 L1771.48 1448.29 L1754.53 1448.29 L1754.53 1448.42 L1737.45 1448.42 L1737.45 1448.66 L1720.50 1448.66 L1720.50 1448.79 L1703.54 1448.79 L1703.54 1449.03 L1686.46 1449.03 L1686.46 1449.28 L1669.51 1449.28 L1669.51 1449.53 L1652.43 1449.53 L1652.43 1449.65 L1635.48 1449.65 L1635.48 1449.90 L1618.40 1449.90 L1618.40 1450.15 L1601.45 1450.15 L1601.45 1450.40 L1584.49 1450.40 L1584.49 1450.64 L1567.42 1450.64 L1567.42 1450.89 L1550.46 1450.89 L1550.46 1451.14 L1533.39 1451.14 L1533.39 1451.39 L1516.43 1451.39 L1516.43 1451.63 L1499.36 1451.63 L1499.36 1451.76 L1482.40 1451.76 L1482.40 1452.00 L1465.45 1452.00 L1465.45 1452.25 L1448.37 1452.25 L1448.37 1452.62 L1431.42 1452.62 L1431.42 1452.87 L1414.34 1452.87 L1414.34 1453.12 L1397.38 1453.12 L1397.38 1453.49 L1380.31 1453.49 L1380.31 1453.74 L1363.35 1453.74 L1363.35 1453.98 L1346.40 1453.98 L1346.40 1454.36 L1329.32 1454.36 L1329.32 1454.60 L1312.37 1454.60 L1312.37 1454.97 L1295.29 1454.97 L1295.29 1455.35 L1278.34 1455.35 L1278.34 1455.59 L1261.26 1455.59 L1261.26 1455.96 L1244.31 1455.96 L1244.31 1456.21 L1227.35 1456.21 L1227.35 1456.58 L1210.28 1456.58 L1210.28 1456.83 L1193.32 1456.83 L1193.32 1457.20 L1176.24 1457.20 L1176.24 1457.45 L1159.29 1457.45 L1159.29 1457.82 L1142.21 1457.82 L1142.21 1458.07 L1125.26 1458.07 L1125.26 1458.44 L1108.31 1458.44 L1108.31 1458.69 L1091.23 1458.69 L1091.23 1459.06 L1074.27 1459.06 L1074.27 1459.31 L1057.20 1459.31 L1057.20 1459.68 L1040.24 1459.68 L1040.24 1460.05 L1023.16 1460.05 L1023.16 1460.30 L1006.21 1460.30 L1006.21 1460.67 L989.26 1460.67 L989.26 1460.91 L972.18 1460.91 L972.18 1461.29 L955.23 1461.29 L955.23 1461.53 L938.15 1461.53 L938.15 1461.90 L921.20 1461.90 L921.20 1462.15 L904.12 1462.15 L904.12 1462.40 L887.16 1462.40 L887.16 1462.65 L870.21 1462.65 L870.21 1462.89 L853.13 1462.89 L853.13 1463.14 L836.18 1463.14 L836.18 1463.39 L819.10 1463.39 L819.10 1463.64 L802.15 1463.64 L802.15 1463.76 L785.19 1463.76 L785.19 1463.88 L768.12 1463.88 L768.12 1464.01 L751.16 1464.01 L751.16 1465.25 Z" stroke-linejoin="round"/>
	</defs>
	<defs>
		<clipPath id="clipPath_ovZNDSxe">
			<use xlink:href="#path_VjNApovF"/>
		</clipPath>
	</defs>
	<use xlink:href="#path_VjNApovF" style="stroke:none;fill:#999999;fill-opacity:0.35"/>
	<use xlink:href="#path_VjNApovF" style="fill:none;stroke:#808080;stroke-opacity:0.35;stroke-width:17.28" clip-path="url(#clipPath_ovZNDSxe)"/>
	<path d=" M751.04 1464.75 L768.12 1464.75 L768.12 1464.75 L785.07 1464.75 L785.07 1464.75 L802.02 1464.75 L802.02 1464.75 L819.10 1464.75 L819.10 1464.75 L836.05 1464.75 L836.05 1464.75 L853.13 1464.75 L853.13 1464.75 L870.09 1464.75 L870.09 1464.75 L887.16 1464.75 L887.16 1464.75 L904.12 1464.75 L904.12 1464.75 L921.07 1464.75 L921.07 1464.75 L938.15 1464.75 L938.15 1464.75 L955.10 1464.75 L955.10 1464.75 L972.18 1464.75 L972.18 1464.75 L989.13 1464.75 L989.13 1464.75 L1006.21 1464.75 L1006.21 1464.75 L1023.16 1464.75 L1023.16 1464.87 L1040.12 1464.87 L1040.12 1464.87 L1057.20 1464.87 L1057.20 1464.87 L1074.15 1464.87 L1074.15 1465.00 L1091.23 1465.00 L1091.23 1465.00 L1108.18 1465.00 L1108.18 1465.00 L1125.26 1465.00 L1125.26 1465.12 L1142.21 1465.12 L1142.21 1465.25 L1159.17 1465.25 L1159.17 1465.37 L1176.24 1465.37 L1176.24 1465.37 L1193.20 1465.37 L1193.20 1465.49 L1210.28 1465.49 L1210.28 1465.62 L1227.23 1465.62 L1227.23 1465.74 L1244.31 1465.74 L1244.31 1465.74 L1261.26 1465.74 L1261.26 1465.86 L1278.21 1465.86 L1278.21 1465.99 L1295.29 1465.99 L1295.29 1466.11 L1312.24 1466.11 L1312.24 1466.24 L1329.32 1466.24 L1329.32 1466.36 L1346.28 1466.36 L1346.28 1466.48 L1363.35 1466.48 L1363.35 1466.61 L1380.31 1466.61 L1380.31 1466.85 L1397.26 1466.85 L1397.26 1466.98 L1414.34 1466.98 L1414.34 1467.10 L1431.29 1467.10 L1431.29 1467.35 L1448.37 1467.35 L1448.37 1467.47 L1465.32 1467.47 L1465.32 1467.72 L1482.28 1467.72 L1482.28 1467.97 L1499.36 1467.97 L1499.36 1468.22 L1516.31 1468.22 L1516.31 1468.46 L1533.39 1468.46 L1533.39 1468.71 L1550.34 1468.71 L1550.34 1468.96 L1567.42 1468.96 L1567.42 1469.08 L1584.37 1469.08 L1584.37 1469.33 L1601.33 1469.33 L1601.33 1469.58 L1618.40 1469.58 L1618.40 1469.82 L1635.36 1469.82 L1635.36 1470.07 L1652.43 1470.07 L1652.43 1470.44 L1669.39 1470.44 L1669.39 1470.69 L1686.46 1470.69 L1686.46 1470.94 L1703.42 1470.94 L1703.42 1471.19 L1720.37 1471.19 L1720.37 1471.56 L1737.45 1471.56 L1737.45 1471.80 L1754.40 1471.80 L1754.40 1472.05 L1771.48 1472.05 L1771.48 1472.42 L1788.43 1472.42 L1788.43 1472.79 L1805.51 1472.79 L1805.51 1473.04 L1822.47 1473.04 L1822.47 1473.41 L1839.42 1473.41 L1839.42 1473.66 L1856.50 1473.66 L1856.50 1474.03 L1873.45 1474.03 L1873.45 1474.40 L1890.53 1474.40 L1890.53 1474.65 L1907.48 1474.65 L1907.48 1475.02 L1924.56 1475.02 L1924.56 1475.39 L1941.51 1475.39 L1941.51 1475.64 L1958.47 1475.64 L1958.47 1476.01 L1975.55 1476.01 L1975.55 1476.26 L1992.50 1476.26 L1992.50 1476.63 L2009.58 1476.63 L2009.58 1477.00 L2026.53 1477.00 L2026.53 1477.37 L2043.61 1477.37 L2043.61 1477.62 L2060.56 1477.62 L2060.56 1477.99 L2077.51 1477.99 L2077.51 1478.36 L2094.59 1478.36 L2094.59 1478.73 L2111.55 1478.73 L2111.55 1478.98 L2128.62 1478.98 L2128.62 1479.35 L2145.58 1479.35 L2145.58 1479.72 L2162.66 1479.72 L2162.66 1480.10 L2179.61 1480.10 L2179.61 1480.47 L2196.56 1480.47 L2196.56 1480.96 L2213.64 1480.96 L2213.64 1481.33 L2230.59 1481.33 L2230.59 1481.71 L2247.67 1481.71 L2247.67 1482.08 L2264.63 1482.08 L2264.63 1482.45 L2281.70 1482.45 L2281.70 1482.82 L2298.66 1482.82 L2298.66 1483.19 L2315.61 1483.19 L2315.61 1483.69 L2332.69 1483.69 L2332.69 1484.06 L2349.64 1484.06 L2349.64 1484.43 L2366.72 1484.43 L2366.72 1484.92 L2383.67 1484.92 L2383.67 1485.29 L2400.75 1485.29 L2400.75 1485.79 L2417.70 1485.79 L2417.70 1486.16 L2434.66 1486.16 L2434.66 1486.66 L2451.74 1486.66 L2451.74 1487.03 L2468.69 1487.03 L2468.69 1487.52 L2485.77 1487.52 L2485.77 1487.89 L2502.72 1487.89 L2502.72 1488.39 L2519.67 1488.39 L2519.67 1488.76 L2536.75 1488.76 L2536.75 1489.25 L2553.70 1489.25 L2553.70 1489.63 L2570.78 1489.63 L2570.78 1490.12 L2587.74 1490.12 L2587.74 1490.49 L2604.81 1490.49 L2604.81 1490.99 L2621.77 1490.99 L2621.77 1491.36 L2638.72 1491.36 L2638.72 1491.85 L2655.80 1491.85 L2655.80 1492.35 L2672.75 1492.35 L2672.75 1492.84 L2689.83 1492.84 L2689.83 1493.21 L2706.78 1493.21 L2706.78 1493.71 L2723.86 1493.71 L2723.86 1494.20 L2740.82 1494.20 L2740.82 1494.70 L2757.77 1494.70 L2757.77 1495.19 L2774.85 1495.19 L2774.85 1495.57 L2791.80 1495.57 L2791.80 1496.06 L2808.88 1496.06 L2808.88 1496.56 L2825.83 1496.56 L2825.83 1497.05 L2842.91 1497.05 L2842.91 1497.55 L2859.86 1497.55 L2859.86 1498.04 L2876.82 1498.04 L2876.82 1498.54 L2893.89 1498.54 L2893.89 1499.03 L2910.85 1499.03 L2910.85 1499.53 L2927.93 1499.53 L2927.93 1500.02 L2944.88 1500.02 L2944.88 1500.52 L2961.96 1500.52 L2961.96 1501.01 L2978.91 1501.01 L2978.91 1501.51 L2995.86 1501.51 L2995.86 1502.00 L3012.94 1502.00 L3012.94 1502.50 L3029.89 1502.50 L3029.89 1502.99 L3046.97 1502.99 L3046.97 1503.49 L3063.93 1503.49 L3063.93 1503.98 L3081.00 1503.98 L3081.00 1504.48 L3097.96 1504.48 L3097.96 1504.97 L3114.91 1504.97 L3114.91 1505.47 L3131.99 1505.47 L3131.99 1505.96 L3148.94 1505.96 L3148.94 1506.46 L3166.02 1506.46 L3166.02 1507.07 L3182.97 1507.07 L3182.97 1507.57 L3200.05 1507.57 L3200.05 1508.06 L3217.01 1508.06 L3217.01 1508.56 L3233.96 1508.56 L3233.96 1509.05 L3251.04 1509.05 L3251.04 1509.67 L3267.99 1509.67 L3267.99 1510.17 L3285.07 1510.17 L3285.07 1510.66 L3302.02 1510.66 L3302.02 1511.16 L3319.10 1511.16 L3319.10 1511.78 L3336.05 1511.78 L3336.05 1512.27 L3353.01 1512.27 L3353.01 1512.77 L3370.08 1512.77 L3370.08 1513.26 L3387.04 1513.26 L3387.04 1513.88 L3404.11 1513.88 L3404.11 1514.38 L3421.07 1514.38 L3421.07 1514.87 L3438.15 1514.87 L3438.15 1515.37 L3455.10 1515.37 L3455.10 1515.86 L3472.05 1515.86 L3472.05 1516.48 L3489.13 1516.48 L3489.13 1516.97 L3506.09 1516.97 L3506.09 1517.47 L3523.16 1517.47 L3523.16 1517.96 L3540.12 1517.96 L3540.12 1518.58 L3557.07 1518.58 L3557.07 1519.08 L3574.15 1519.08 L3574.15 1519.57 L3591.10 1519.57 L3591.10 1520.07 L3608.18 1520.07 L3608.18 1520.69 L3625.13 1520.69 L3625.13 1521.18 L3642.21 1521.18 L3642.21 1521.68 L3659.16 1521.68 L3659.16 1522.30 L3676.12 1522.30 L3676.12 1522.79 L3693.20 1522.79 L3693.20 1523.29 L3710.15 1523.29 L3710.15 1523.91 L3727.23 1523.91 L3727.23 1524.40 L3744.18 1524.40 L3744.18 1525.02 L3761.26 1525.02 L3761.26 1525.51 L3778.21 1525.51 L3778.21 1526.13 L3795.16 1526.13 L3795.16 1526.75" stroke-linejoin="round" style="fill:none;stroke:#808080;stroke-width:8.64"/>
	<line x1="529.90" y1="2509.23" x2="529.90" y2="419.90" style="stroke:#000000;stroke-width:5.76"/>
	<line x1="529.90" y1="2445.87" x2="489.93" y2="2445.87" style="stroke:#000000;stroke-width:5.76"/>
	<text x="470.00" y="2480.90" style="font-family:'Helvetica';font-size:99.99px;fill:#000000" text-anchor="end">-365</text>
	<line x1="529.90" y1="2203.93" x2="489.93" y2="2203.93" style="stroke:#000000;stroke-width:5.76"/>
	<text x="470.00" y="2238.96" style="font-family:'Helvetica';font-size:99.99px;fill:#000000" text-anchor="end">-275</text>
	<line x1="529.90" y1="1961.99" x2="489.93" y2="1961.99" style="stroke:#000000;stroke-width:5.76"/>
	<text x="470.00" y="1997.02" style="font-family:'Helvetica';font-size:99.99px;fill:#000000" text-anchor="end">-185</text>
	<line x1="529.90" y1="1719.93" x2="489.93" y2="1719.93" style="stroke:#000000;stroke-width:5.76"/>
	<text x="470.00" y="1754.96" style="font-family:'Helvetica';font-size:99.99px;fill:#000000" text-anchor="end">-95</text>
	<line x1="529.90" y1="1477.99" x2="489.93" y2="1477.99" style="stroke:#000000;stroke-width:5.76"/>
	<text x="470.00" y="1513.02" style="font-family:'Helvetica';font-size:99.99px;fill:#000000" text-anchor="end">-5</text>
	<line x1="529.90" y1="1236.05" x2="489.93" y2="1236.05" style="stroke:#000000;stroke-width:5.76"/>
	<text x="470.00" y="1271.08" style="font-family:'Helvetica';font-size:99.99px;fill:#000000" text-anchor="end">85</text>
	<line x1="529.90" y1="994.11" x2="489.93" y2="994.11" style="stroke:#000000;stroke-width:5.76"/>
	<text x="470.00" y="1029.14" style="font-family:'Helvetica';font-size:99.99px;fill:#000000" text-anchor="end">175</text>
	<line x1="529.90" y1="752.18" x2="489.93" y2="752.18" style="stroke:#000000;stroke-width:5.76"/>
	<text x="470.00" y="787.20" style="font-family:'Helvetica';font-size:99.99px;fill:#000000" text-anchor="end">265</text>
	<line x1="529.90" y1="510.11" x2="489.93" y2="510.11" style="stroke:#000000;stroke-width:5.76"/>
	<text x="470.00" y="545.14" style="font-family:'Helvetica';font-size:99.99px;fill:#000000" text-anchor="end">355</text>
	<text x="190.71" y="1464.63" style="font-family:'Helvetica';font-size:99.99px;fill:#000000" transform="rotate(-90 190.71,1464.63)" text-anchor="middle">Difference in Lengths of Stay</text>
	<line x1="529.90" y1="2509.23" x2="3859.02" y2="2509.23" style="stroke:#000000;stroke-width:5.76"/>
	<line x1="593.26" y1="2509.23" x2="593.26" y2="2549.21" style="stroke:#000000;stroke-width:5.76"/>
	<text x="593.26" y="2625.15" style="font-family:'Helvetica';font-size:79.94px;fill:#000000" text-anchor="middle">0</text>
	<line x1="785.44" y1="2509.23" x2="785.44" y2="2549.21" style="stroke:#000000;stroke-width:5.76"/>
	<text x="785.44" y="2625.15" style="font-family:'Helvetica';font-size:79.94px;fill:#000000" text-anchor="middle">.3</text>
	<line x1="977.63" y1="2509.23" x2="977.63" y2="2549.21" style="stroke:#000000;stroke-width:5.76"/>
	<text x="977.63" y="2625.15" style="font-family:'Helvetica';font-size:79.94px;fill:#000000" text-anchor="middle">.6</text>
	<line x1="1169.68" y1="2509.23" x2="1169.68" y2="2549.21" style="stroke:#000000;stroke-width:5.76"/>
	<text x="1169.68" y="2625.15" style="font-family:'Helvetica';font-size:79.94px;fill:#000000" text-anchor="middle">.9</text>
	<line x1="1361.87" y1="2509.23" x2="1361.87" y2="2549.21" style="stroke:#000000;stroke-width:5.76"/>
	<text x="1361.87" y="2625.15" style="font-family:'Helvetica';font-size:79.94px;fill:#000000" text-anchor="middle">1.2</text>
	<line x1="1554.05" y1="2509.23" x2="1554.05" y2="2549.21" style="stroke:#000000;stroke-width:5.76"/>
	<text x="1554.05" y="2625.15" style="font-family:'Helvetica';font-size:79.94px;fill:#000000" text-anchor="middle">1.5</text>
	<line x1="1746.11" y1="2509.23" x2="1746.11" y2="2549.21" style="stroke:#000000;stroke-width:5.76"/>
	<text x="1746.11" y="2625.15" style="font-family:'Helvetica';font-size:79.94px;fill:#000000" text-anchor="middle">1.8</text>
	<line x1="1938.30" y1="2509.23" x2="1938.30" y2="2549.21" style="stroke:#000000;stroke-width:5.76"/>
	<text x="1938.30" y="2625.15" style="font-family:'Helvetica';font-size:79.94px;fill:#000000" text-anchor="middle">2.1</text>
	<line x1="2130.48" y1="2509.23" x2="2130.48" y2="2549.21" style="stroke:#000000;stroke-width:5.76"/>
	<text x="2130.48" y="2625.15" style="font-family:'Helvetica';font-size:79.94px;fill:#000000" text-anchor="middle">2.4</text>
	<line x1="2322.66" y1="2509.23" x2="2322.66" y2="2549.21" style="stroke:#000000;stroke-width:5.76"/>
	<text x="2322.66" y="2625.15" style="font-family:'Helvetica';font-size:79.94px;fill:#000000" text-anchor="middle">2.7</text>
	<line x1="2514.72" y1="2509.23" x2="2514.72" y2="2549.21" style="stroke:#000000;stroke-width:5.76"/>
	<text x="2514.72" y="2625.15" style="font-family:'Helvetica';font-size:79.94px;fill:#000000" text-anchor="middle">3</text>
	<line x1="2706.91" y1="2509.23" x2="2706.91" y2="2549.21" style="stroke:#000000;stroke-width:5.76"/>
	<text x="2706.91" y="2625.15" style="font-family:'Helvetica';font-size:79.94px;fill:#000000" text-anchor="middle">3.3</text>
	<line x1="2899.09" y1="2509.23" x2="2899.09" y2="2549.21" style="stroke:#000000;stroke-width:5.76"/>
	<text x="2899.09" y="2625.15" style="font-family:'Helvetica';font-size:79.94px;fill:#000000" text-anchor="middle">3.6</text>
	<line x1="3091.15" y1="2509.23" x2="3091.15" y2="2549.21" style="stroke:#000000;stroke-width:5.76"/>
	<text x="3091.15" y="2625.15" style="font-family:'Helvetica';font-size:79.94px;fill:#000000" text-anchor="middle">3.9</text>
	<line x1="3283.34" y1="2509.23" x2="3283.34" y2="2549.21" style="stroke:#000000;stroke-width:5.76"/>
	<text x="3283.34" y="2625.15" style="font-family:'Helvetica';font-size:79.94px;fill:#000000" text-anchor="middle">4.2</text>
	<line x1="3475.52" y1="2509.23" x2="3475.52" y2="2549.21" style="stroke:#000000;stroke-width:5.76"/>
	<text x="3475.52" y="2625.15" style="font-family:'Helvetica';font-size:79.94px;fill:#000000" text-anchor="middle">4.5</text>
	<line x1="3667.58" y1="2509.23" x2="3667.58" y2="2549.21" style="stroke:#000000;stroke-width:5.76"/>
	<text x="3667.58" y="2625.15" style="font-family:'Helvetica';font-size:79.94px;fill:#000000" text-anchor="middle">4.8</text>
	<line x1="3859.76" y1="2509.23" x2="3859.76" y2="2549.21" style="stroke:#000000;stroke-width:5.76"/>
	<text x="3859.76" y="2625.15" style="font-family:'Helvetica';font-size:79.94px;fill:#000000" text-anchor="middle">5.1</text>
	<text x="2194.46" y="2729.16" style="font-family:'Helvetica';font-size:99.99px;fill:#000000" text-anchor="middle">Time (years)</text>
	<rect x="2519.18" y="1868.31" width="1305.32" height="606.39" style="fill:#FFFFFF"/>
	<rect x="2522.06" y="1871.19" width="1299.56" height="600.63" style="fill:none;stroke:#000000;stroke-width:5.76"/>
	<rect x="2562.37" y="1911.50" width="374.34" height="99.99" style="fill:#999999;fill-opacity:0.75"/>
	<rect x="2566.69" y="1915.82" width="365.70" height="91.35" style="fill:none;stroke:#808080;stroke-opacity:0.75;stroke-width:8.64"/>
	<line x1="2562.37" y1="2101.46" x2="2936.71" y2="2101.46" style="stroke:#000000;stroke-width:8.64"/>
	<rect x="2562.37" y="2191.43" width="374.34" height="99.99" style="fill:#999999;fill-opacity:0.35"/>
	<rect x="2566.69" y="2195.75" width="365.70" height="91.35" style="fill:none;stroke:#808080;stroke-opacity:0.35;stroke-width:8.64"/>
	<line x1="2562.37" y1="2381.52" x2="2936.71" y2="2381.52" style="stroke:#808080;stroke-width:8.64"/>
	<text x="2996.73" y="1996.53" style="font-family:'Helvetica';font-size:99.99px;fill:#000000">CI95%</text>
	<text x="2996.73" y="2136.49" style="font-family:'Helvetica';font-size:99.99px;fill:#000000">Difference (TC)</text>
	<text x="2996.73" y="2276.46" style="font-family:'Helvetica';font-size:99.99px;fill:#000000">CI95%</text>
	<text x="2996.73" y="2416.55" style="font-family:'Helvetica';font-size:99.99px;fill:#000000">Difference (TNC)</text>
	<text x="2194.46" y="369.63" style="font-family:'Helvetica';font-size:110.01px;fill:#000000" text-anchor="middle">from First to Second Readmission</text>
	<text x="2194.46" y="215.98" style="font-family:'Helvetica';font-size:139.96px;fill:#1E2D53" text-anchor="middle">Difference in Probabilities at 3 years</text>
</svg>
