<?xml version="1.0" encoding="UTF-8" standalone="no"?>
<!-- This is a Stata 16.1 generated SVG file (http://www.stata.com) -->

<svg version="1.1" width="5.50in" height="4.00in" viewBox="0 0 3960 2880" xmlns="http://www.w3.org/2000/svg" xmlns:xlink="http://www.w3.org/1999/xlink">
	<desc>Stata Graph - diff_mod12_3y_tc_22</desc>
	<rect x="0" y="0" width="3960" height="2880" style="fill:#EAF2F3;stroke:none"/>
	<rect x="0.00" y="0.00" width="3959.88" height="2880.00" style="fill:#FFFFFF"/>
	<rect x="2.88" y="2.88" width="3954.12" height="2874.24" style="fill:none;stroke:#FFFFFF;stroke-width:5.76"/>
	<rect x="559.10" y="419.90" width="3299.92" height="2089.34" style="fill:#FFFFFF"/>
	<rect x="561.98" y="422.78" width="3294.16" height="2083.58" style="fill:none;stroke:#FFFFFF;stroke-width:5.76"/>
	<line x1="559.10" y1="2249.60" x2="3859.02" y2="2249.60" style="stroke:#EAF2F3;stroke-width:8.64"/>
	<line x1="559.10" y1="2053.32" x2="3859.02" y2="2053.32" style="stroke:#EAF2F3;stroke-width:8.64"/>
	<line x1="559.10" y1="1857.05" x2="3859.02" y2="1857.05" style="stroke:#EAF2F3;stroke-width:8.64"/>
	<line x1="559.10" y1="1660.78" x2="3859.02" y2="1660.78" style="stroke:#EAF2F3;stroke-width:8.64"/>
	<line x1="559.10" y1="1464.63" x2="3859.02" y2="1464.63" style="stroke:#EAF2F3;stroke-width:8.64"/>
	<line x1="559.10" y1="1268.35" x2="3859.02" y2="1268.35" style="stroke:#EAF2F3;stroke-width:8.64"/>
	<line x1="559.10" y1="1072.08" x2="3859.02" y2="1072.08" style="stroke:#EAF2F3;stroke-width:8.64"/>
	<line x1="559.10" y1="875.81" x2="3859.02" y2="875.81" style="stroke:#EAF2F3;stroke-width:8.64"/>
	<line x1="559.10" y1="679.53" x2="3859.02" y2="679.53" style="stroke:#EAF2F3;stroke-width:8.64"/>
	<line x1="559.10" y1="1464.63" x2="3859.02" y2="1464.63" style="stroke:#1A476F;stroke-width:8.64"/>
	<defs>
		<path id="path_PLKevCAa" d="M778.88 1412.40 L778.88 1412.40 L795.71 1412.40 L795.71 1403.99 L812.54 1403.99 L812.54 1397.06 L829.37 1397.06 L829.37 1391.49 L846.20 1391.49 L846.20 1385.67 L863.16 1385.67 L863.16 1377.50 L879.99 1377.50 L879.99 1372.55 L896.82 1372.55 L896.82 1365.87 L913.65 1365.87 L913.65 1359.93 L930.48 1359.93 L930.48 1355.10 L947.31 1355.10 L947.31 1350.77 L964.26 1350.77 L964.26 1346.07 L981.09 1346.07 L981.09 1339.51 L997.92 1339.51 L997.92 1335.55 L1014.75 1335.55 L1014.75 1331.34 L1031.58 1331.34 L1031.58 1325.90 L1048.53 1325.90 L1048.53 1324.79 L1065.36 1324.79 L1065.36 1319.59 L1082.19 1319.59 L1082.19 1316.74 L1099.02 1316.74 L1099.02 1312.41 L1115.85 1312.41 L1115.85 1308.82 L1132.68 1308.82 L1132.68 1305.60 L1149.64 1305.60 L1149.64 1302.01 L1166.47 1302.01 L1166.47 1299.04 L1183.30 1299.04 L1183.30 1294.47 L1200.13 1294.47 L1200.13 1291.87 L1216.96 1291.87 L1216.96 1287.78 L1233.79 1287.78 L1233.79 1285.18 L1250.74 1285.18 L1250.74 1283.70 L1267.57 1283.70 L1267.57 1283.08 L1284.40 1283.08 L1284.40 1279.86 L1301.23 1279.86 L1301.23 1278.50 L1318.06 1278.50 L1318.06 1277.76 L1334.89 1277.76 L1334.89 1276.64 L1351.85 1276.64 L1351.85 1275.16 L1368.67 1275.16 L1368.67 1273.06 L1385.51 1273.06 L1385.51 1270.95 L1402.34 1270.95 L1402.34 1267.49 L1419.16 1267.49 L1419.16 1265.75 L1436.12 1265.75 L1436.12 1265.01 L1452.95 1265.01 L1452.95 1263.77 L1469.78 1263.77 L1469.78 1262.17 L1486.61 1262.17 L1486.61 1258.95 L1503.44 1258.95 L1503.44 1258.33 L1520.27 1258.33 L1520.27 1256.84 L1537.22 1256.84 L1537.22 1255.98 L1554.05 1255.98 L1554.05 1253.38 L1570.88 1253.38 L1570.88 1252.64 L1587.71 1252.64 L1587.71 1252.51 L1604.54 1252.51 L1604.54 1253.13 L1621.37 1253.13 L1621.37 1252.27 L1638.33 1252.27 L1638.33 1252.76 L1655.16 1252.76 L1655.16 1252.51 L1671.99 1252.51 L1671.99 1252.76 L1688.82 1252.76 L1688.82 1251.40 L1705.65 1251.40 L1705.65 1251.28 L1722.48 1251.28 L1722.48 1250.78 L1739.43 1250.78 L1739.43 1250.41 L1756.26 1250.41 L1756.26 1249.91 L1773.09 1249.91 L1773.09 1249.54 L1789.92 1249.54 L1789.92 1249.67 L1806.75 1249.67 L1806.75 1250.90 L1823.70 1250.90 L1823.70 1249.54 L1840.53 1249.54 L1840.53 1248.55 L1857.36 1248.55 L1857.36 1247.81 L1874.19 1247.81 L1874.19 1247.69 L1891.02 1247.69 L1891.02 1247.93 L1907.85 1247.93 L1907.85 1247.93 L1924.81 1247.93 L1924.81 1249.05 L1941.64 1249.05 L1941.64 1248.68 L1958.47 1248.68 L1958.47 1248.68 L1975.30 1248.68 L1975.30 1248.92 L1992.13 1248.92 L1992.13 1249.17 L2008.96 1249.17 L2008.96 1248.92 L2025.91 1248.92 L2025.91 1250.29 L2042.74 1250.29 L2042.74 1252.02 L2059.57 1252.02 L2059.57 1252.27 L2076.40 1252.27 L2076.40 1252.39 L2093.23 1252.39 L2093.23 1252.51 L2110.18 1252.51 L2110.18 1253.50 L2127.01 1253.50 L2127.01 1254.49 L2143.84 1254.49 L2143.84 1255.11 L2160.68 1255.11 L2160.68 1254.62 L2177.51 1254.62 L2177.51 1254.99 L2194.34 1254.99 L2194.34 1254.49 L2211.29 1254.49 L2211.29 1253.63 L2228.12 1253.63 L2228.12 1254.62 L2244.95 1254.62 L2244.95 1255.61 L2261.78 1255.61 L2261.78 1255.85 L2278.61 1255.85 L2278.61 1256.10 L2295.44 1256.10 L2295.44 1255.98 L2312.39 1255.98 L2312.39 1256.72 L2329.22 1256.72 L2329.22 1257.34 L2346.05 1257.34 L2346.05 1257.71 L2362.88 1257.71 L2362.88 1258.33 L2379.71 1258.33 L2379.71 1258.95 L2396.54 1258.95 L2396.54 1258.95 L2413.50 1258.95 L2413.50 1259.44 L2430.33 1259.44 L2430.33 1260.06 L2447.16 1260.06 L2447.16 1259.44 L2463.99 1259.44 L2463.99 1258.45 L2480.82 1258.45 L2480.82 1258.95 L2497.77 1258.95 L2497.77 1258.45 L2514.60 1258.45 L2514.60 1259.81 L2531.43 1259.81 L2531.43 1259.81 L2548.26 1259.81 L2548.26 1260.31 L2565.09 1260.31 L2565.09 1261.55 L2581.92 1261.55 L2581.92 1261.79 L2598.87 1261.79 L2598.87 1260.93 L2615.70 1260.93 L2615.70 1260.68 L2632.53 1260.68 L2632.53 1260.93 L2649.36 1260.93 L2649.36 1262.17 L2666.19 1262.17 L2666.19 1262.04 L2683.02 1262.04 L2683.02 1262.41 L2699.98 1262.41 L2699.98 1262.66 L2716.81 1262.66 L2716.81 1263.53 L2733.64 1263.53 L2733.64 1263.03 L2750.47 1263.03 L2750.47 1264.02 L2767.30 1264.02 L2767.30 1264.52 L2784.25 1264.52 L2784.25 1265.14 L2801.08 1265.14 L2801.08 1265.51 L2817.91 1265.51 L2817.91 1265.26 L2834.74 1265.26 L2834.74 1264.89 L2851.57 1264.89 L2851.57 1266.00 L2868.40 1266.00 L2868.40 1266.00 L2885.36 1266.00 L2885.36 1266.37 L2902.18 1266.37 L2902.18 1267.12 L2919.01 1267.12 L2919.01 1266.62 L2935.84 1266.62 L2935.84 1266.99 L2952.68 1266.99 L2952.68 1266.74 L2969.51 1266.74 L2969.51 1266.74 L2986.46 1266.74 L2986.46 1267.12 L3003.29 1267.12 L3003.29 1268.48 L3020.12 1268.48 L3020.12 1268.60 L3036.95 1268.60 L3036.95 1269.47 L3053.78 1269.47 L3053.78 1269.96 L3070.61 1269.96 L3070.61 1269.59 L3087.56 1269.59 L3087.56 1269.47 L3104.39 1269.47 L3104.39 1270.33 L3121.22 1270.33 L3121.22 1270.95 L3138.05 1270.95 L3138.05 1271.08 L3154.88 1271.08 L3154.88 1270.95 L3171.84 1270.95 L3171.84 1271.32 L3188.67 1271.32 L3188.67 1270.58 L3205.50 1270.58 L3205.50 1270.21 L3222.33 1270.21 L3222.33 1270.46 L3239.16 1270.46 L3239.16 1270.09 L3255.99 1270.09 L3255.99 1270.33 L3272.94 1270.33 L3272.94 1271.20 L3289.77 1271.20 L3289.77 1271.45 L3306.60 1271.45 L3306.60 1270.58 L3323.43 1270.58 L3323.43 1270.58 L3340.26 1270.58 L3340.26 1270.46 L3357.09 1270.46 L3357.09 1270.58 L3374.04 1270.58 L3374.04 1270.83 L3390.87 1270.83 L3390.87 1271.82 L3407.70 1271.82 L3407.70 1271.32 L3424.53 1271.32 L3424.53 1270.58 L3441.36 1270.58 L3441.36 1270.58 L3458.19 1270.58 L3458.19 1271.94 L3475.15 1271.94 L3475.15 1272.56 L3491.98 1272.56 L3491.98 1272.81 L3508.81 1272.81 L3508.81 1274.05 L3525.64 1274.05 L3525.64 1274.66 L3542.47 1274.66 L3542.47 1274.79 L3559.42 1274.79 L3559.42 1276.52 L3576.25 1276.52 L3576.25 1276.64 L3593.08 1276.64 L3593.08 1277.39 L3609.91 1277.39 L3609.91 1278.13 L3626.74 1278.13 L3626.74 1277.63 L3643.57 1277.63 L3643.57 1277.76 L3660.53 1277.76 L3660.53 1278.50 L3677.36 1278.50 L3677.36 1279.00 L3694.18 1279.00 L3694.18 1279.12 L3711.01 1279.12 L3711.01 1281.10 L3727.84 1281.10 L3727.84 1283.20 L3744.68 1283.20 L3744.68 1284.32 L3761.63 1284.32 L3761.63 1284.69 L3778.46 1284.69 L3778.46 1285.93 L3795.29 1285.93 L3795.29 1287.41 L3795.29 1212.91 L3795.29 1211.55 L3778.46 1211.55 L3778.46 1210.31 L3761.63 1210.31 L3761.63 1210.07 L3744.68 1210.07 L3744.68 1209.08 L3727.84 1209.08 L3727.84 1206.97 L3711.01 1206.97 L3711.01 1205.24 L3694.18 1205.24 L3694.18 1204.99 L3677.36 1204.99 L3677.36 1204.50 L3660.53 1204.50 L3660.53 1203.88 L3643.57 1203.88 L3643.57 1203.88 L3626.74 1203.88 L3626.74 1204.37 L3609.91 1204.37 L3609.91 1203.75 L3593.08 1203.75 L3593.08 1203.01 L3576.25 1203.01 L3576.25 1202.89 L3559.42 1202.89 L3559.42 1201.16 L3542.47 1201.16 L3542.47 1201.16 L3525.64 1201.16 L3525.64 1200.54 L3508.81 1200.54 L3508.81 1199.30 L3491.98 1199.30 L3491.98 1199.05 L3475.15 1199.05 L3475.15 1198.43 L3458.19 1198.43 L3458.19 1197.07 L3441.36 1197.07 L3441.36 1197.07 L3424.53 1197.07 L3424.53 1197.81 L3407.70 1197.81 L3407.70 1198.43 L3390.87 1198.43 L3390.87 1197.57 L3374.04 1197.57 L3374.04 1197.32 L3357.09 1197.32 L3357.09 1197.32 L3340.26 1197.32 L3340.26 1197.44 L3323.43 1197.44 L3323.43 1197.57 L3306.60 1197.57 L3306.60 1198.43 L3289.77 1198.43 L3289.77 1198.18 L3272.94 1198.18 L3272.94 1197.32 L3255.99 1197.32 L3255.99 1197.07 L3239.16 1197.07 L3239.16 1197.57 L3222.33 1197.57 L3222.33 1197.32 L3205.50 1197.32 L3205.50 1197.81 L3188.67 1197.81 L3188.67 1198.56 L3171.84 1198.56 L3171.84 1198.18 L3154.88 1198.18 L3154.88 1198.43 L3138.05 1198.43 L3138.05 1198.18 L3121.22 1198.18 L3121.22 1197.81 L3104.39 1197.81 L3104.39 1197.07 L3087.56 1197.07 L3087.56 1197.32 L3070.61 1197.32 L3070.61 1197.69 L3053.78 1197.69 L3053.78 1197.19 L3036.95 1197.19 L3036.95 1196.45 L3020.12 1196.45 L3020.12 1196.33 L3003.29 1196.33 L3003.29 1195.09 L2986.46 1195.09 L2986.46 1194.72 L2969.51 1194.72 L2969.51 1194.97 L2952.68 1194.97 L2952.68 1195.21 L2935.84 1195.21 L2935.84 1195.09 L2919.01 1195.09 L2919.01 1195.59 L2902.18 1195.59 L2902.18 1194.84 L2885.36 1194.84 L2885.36 1194.60 L2868.40 1194.60 L2868.40 1194.60 L2851.57 1194.60 L2851.57 1193.73 L2834.74 1193.73 L2834.74 1194.10 L2817.91 1194.10 L2817.91 1194.47 L2801.08 1194.47 L2801.08 1194.10 L2784.25 1194.10 L2784.25 1193.73 L2767.30 1193.73 L2767.30 1193.23 L2750.47 1193.23 L2750.47 1192.24 L2733.64 1192.24 L2733.64 1192.99 L2716.81 1192.99 L2716.81 1192.24 L2699.98 1192.24 L2699.98 1192.12 L2683.02 1192.12 L2683.02 1191.87 L2666.19 1191.87 L2666.19 1192.24 L2649.36 1192.24 L2649.36 1191.13 L2632.53 1191.13 L2632.53 1190.88 L2615.70 1190.88 L2615.70 1191.25 L2598.87 1191.25 L2598.87 1192.24 L2581.92 1192.24 L2581.92 1192.00 L2565.09 1192.00 L2565.09 1190.76 L2548.26 1190.76 L2548.26 1190.51 L2531.43 1190.51 L2531.43 1190.64 L2514.60 1190.64 L2514.60 1189.40 L2497.77 1189.40 L2497.77 1190.02 L2480.82 1190.02 L2480.82 1189.40 L2463.99 1189.40 L2463.99 1190.51 L2447.16 1190.51 L2447.16 1191.38 L2430.33 1191.38 L2430.33 1190.76 L2413.50 1190.76 L2413.50 1190.51 L2396.54 1190.51 L2396.54 1190.64 L2379.71 1190.64 L2379.71 1189.89 L2362.88 1189.89 L2362.88 1189.40 L2346.05 1189.40 L2346.05 1189.03 L2329.22 1189.03 L2329.22 1188.53 L2312.39 1188.53 L2312.39 1187.91 L2295.44 1187.91 L2295.44 1188.16 L2278.61 1188.16 L2278.61 1188.04 L2261.78 1188.04 L2261.78 1187.91 L2244.95 1187.91 L2244.95 1187.29 L2228.12 1187.29 L2228.12 1186.43 L2211.29 1186.43 L2211.29 1187.29 L2194.34 1187.29 L2194.34 1188.04 L2177.51 1188.04 L2177.51 1187.67 L2160.68 1187.67 L2160.68 1188.41 L2143.84 1188.41 L2143.84 1187.79 L2127.01 1187.79 L2127.01 1187.05 L2110.18 1187.05 L2110.18 1186.18 L2093.23 1186.18 L2093.23 1186.18 L2076.40 1186.18 L2076.40 1186.18 L2059.57 1186.18 L2059.57 1186.06 L2042.74 1186.06 L2042.74 1184.45 L2025.91 1184.45 L2025.91 1183.33 L2008.96 1183.33 L2008.96 1183.71 L1992.13 1183.71 L1992.13 1183.71 L1975.30 1183.71 L1975.30 1183.58 L1958.47 1183.58 L1958.47 1183.71 L1941.64 1183.71 L1941.64 1184.32 L1924.81 1184.32 L1924.81 1183.33 L1907.85 1183.33 L1907.85 1183.71 L1891.02 1183.71 L1891.02 1183.71 L1874.19 1183.71 L1874.19 1183.95 L1857.36 1183.95 L1857.36 1184.82 L1840.53 1184.82 L1840.53 1185.93 L1823.70 1185.93 L1823.70 1187.42 L1806.75 1187.42 L1806.75 1186.43 L1789.92 1186.43 L1789.92 1186.55 L1773.09 1186.55 L1773.09 1187.17 L1756.26 1187.17 L1756.26 1187.79 L1739.43 1187.79 L1739.43 1188.41 L1722.48 1188.41 L1722.48 1189.15 L1705.65 1189.15 L1705.65 1189.65 L1688.82 1189.65 L1688.82 1191.25 L1671.99 1191.25 L1671.99 1191.38 L1655.16 1191.38 L1655.16 1191.87 L1638.33 1191.87 L1638.33 1191.50 L1621.37 1191.50 L1621.37 1192.49 L1604.54 1192.49 L1604.54 1192.12 L1587.71 1192.12 L1587.71 1192.49 L1570.88 1192.49 L1570.88 1193.48 L1554.05 1193.48 L1554.05 1196.33 L1537.22 1196.33 L1537.22 1197.57 L1520.27 1197.57 L1520.27 1199.42 L1503.44 1199.42 L1503.44 1200.41 L1486.61 1200.41 L1486.61 1204.00 L1469.78 1204.00 L1469.78 1205.98 L1452.95 1205.98 L1452.95 1207.71 L1436.12 1207.71 L1436.12 1208.83 L1419.16 1208.83 L1419.16 1210.93 L1402.34 1210.93 L1402.34 1214.89 L1385.51 1214.89 L1385.51 1217.49 L1368.67 1217.49 L1368.67 1220.09 L1351.85 1220.09 L1351.85 1221.95 L1334.89 1221.95 L1334.89 1223.68 L1318.06 1223.68 L1318.06 1224.79 L1301.23 1224.79 L1301.23 1226.65 L1284.40 1226.65 L1284.40 1230.48 L1267.57 1230.48 L1267.57 1231.60 L1250.74 1231.60 L1250.74 1233.58 L1233.79 1233.58 L1233.79 1236.80 L1216.96 1236.80 L1216.96 1241.62 L1200.13 1241.62 L1200.13 1244.84 L1183.30 1244.84 L1183.30 1250.04 L1166.47 1250.04 L1166.47 1253.75 L1149.64 1253.75 L1149.64 1258.08 L1132.68 1258.08 L1132.68 1262.04 L1115.85 1262.04 L1115.85 1266.62 L1099.02 1266.62 L1099.02 1271.57 L1082.19 1271.57 L1082.19 1275.53 L1065.36 1275.53 L1065.36 1281.72 L1048.53 1281.72 L1048.53 1284.07 L1031.58 1284.07 L1031.58 1290.51 L1014.75 1290.51 L1014.75 1295.95 L997.92 1295.95 L997.92 1301.15 L981.09 1301.15 L981.09 1308.94 L964.26 1308.94 L964.26 1315.01 L947.31 1315.01 L947.31 1320.58 L930.48 1320.58 L930.48 1326.89 L913.65 1326.89 L913.65 1334.44 L896.82 1334.44 L896.82 1342.73 L879.99 1342.73 L879.99 1349.54 L863.16 1349.54 L863.16 1359.56 L846.20 1359.56 L846.20 1367.23 L829.37 1367.23 L829.37 1374.78 L812.54 1374.78 L812.54 1383.82 L795.71 1383.82 L795.71 1394.33 L778.88 1394.33 L778.88 1412.40 Z" stroke-linejoin="round"/>
	</defs>
	<defs>
		<clipPath id="clipPath_dWnRmoSi">
			<use xlink:href="#path_PLKevCAa"/>
		</clipPath>
	</defs>
	<use xlink:href="#path_PLKevCAa" style="stroke:none;fill:#999999;fill-opacity:0.65"/>
	<use xlink:href="#path_PLKevCAa" style="fill:none;stroke:#808080;stroke-opacity:0.65;stroke-width:17.28" clip-path="url(#clipPath_dWnRmoSi)"/>
	<path d=" M778.76 1403.49 L795.59 1403.49 L795.59 1393.96 L812.54 1393.96 L812.54 1385.92 L829.37 1385.92 L829.37 1379.36 L846.20 1379.36 L846.20 1372.68 L863.03 1372.68 L863.03 1363.52 L879.86 1363.52 L879.86 1357.70 L896.69 1357.70 L896.69 1350.15 L913.65 1350.15 L913.65 1343.47 L930.48 1343.47 L930.48 1337.90 L947.31 1337.90 L947.31 1332.95 L964.14 1332.95 L964.14 1327.51 L980.97 1327.51 L980.97 1320.45 L997.80 1320.45 L997.80 1315.75 L1014.75 1315.75 L1014.75 1310.92 L1031.58 1310.92 L1031.58 1305.11 L1048.41 1305.11 L1048.41 1303.25 L1065.24 1303.25 L1065.24 1297.68 L1082.07 1297.68 L1082.07 1294.22 L1099.02 1294.22 L1099.02 1289.52 L1115.85 1289.52 L1115.85 1285.43 L1132.68 1285.43 L1132.68 1281.84 L1149.51 1281.84 L1149.51 1277.88 L1166.34 1277.88 L1166.34 1274.66 L1183.17 1274.66 L1183.17 1269.71 L1200.13 1269.71 L1200.13 1266.74 L1216.96 1266.74 L1216.96 1262.29 L1233.79 1262.29 L1233.79 1259.44 L1250.62 1259.44 L1250.62 1257.71 L1267.45 1257.71 L1267.45 1256.84 L1284.28 1256.84 L1284.28 1253.38 L1301.23 1253.38 L1301.23 1251.65 L1318.06 1251.65 L1318.06 1250.78 L1334.89 1250.78 L1334.89 1249.30 L1351.72 1249.30 L1351.72 1247.69 L1368.55 1247.69 L1368.55 1245.34 L1385.51 1245.34 L1385.51 1242.98 L1402.34 1242.98 L1402.34 1239.27 L1419.16 1239.27 L1419.16 1237.29 L1435.99 1237.29 L1435.99 1236.42 L1452.83 1236.42 L1452.83 1234.94 L1469.65 1234.94 L1469.65 1233.08 L1486.61 1233.08 L1486.61 1229.74 L1503.44 1229.74 L1503.44 1228.88 L1520.27 1228.88 L1520.27 1227.27 L1537.10 1227.27 L1537.10 1226.28 L1553.93 1226.28 L1553.93 1223.55 L1570.76 1223.55 L1570.76 1222.56 L1587.71 1222.56 L1587.71 1222.32 L1604.54 1222.32 L1604.54 1222.81 L1621.37 1222.81 L1621.37 1221.95 L1638.20 1221.95 L1638.20 1222.32 L1655.03 1222.32 L1655.03 1221.95 L1671.86 1221.95 L1671.86 1222.07 L1688.82 1222.07 L1688.82 1220.58 L1705.65 1220.58 L1705.65 1220.34 L1722.48 1220.34 L1722.48 1219.59 L1739.31 1219.59 L1739.31 1219.10 L1756.14 1219.10 L1756.14 1218.60 L1773.09 1218.60 L1773.09 1218.11 L1789.92 1218.11 L1789.92 1218.11 L1806.75 1218.11 L1806.75 1219.22 L1823.58 1219.22 L1823.58 1217.74 L1840.41 1217.74 L1840.41 1216.75 L1857.24 1216.75 L1857.24 1215.88 L1874.19 1215.88 L1874.19 1215.76 L1891.02 1215.76 L1891.02 1215.88 L1907.85 1215.88 L1907.85 1215.63 L1924.68 1215.63 L1924.68 1216.75 L1941.51 1216.75 L1941.51 1216.25 L1958.34 1216.25 L1958.34 1216.25 L1975.30 1216.25 L1975.30 1216.38 L1992.13 1216.38 L1992.13 1216.50 L2008.96 1216.50 L2008.96 1216.13 L2025.79 1216.13 L2025.79 1217.37 L2042.62 1217.37 L2042.62 1219.10 L2059.45 1219.10 L2059.45 1219.22 L2076.40 1219.22 L2076.40 1219.35 L2093.23 1219.35 L2093.23 1219.35 L2110.06 1219.35 L2110.06 1220.34 L2126.89 1220.34 L2126.89 1221.20 L2143.72 1221.20 L2143.72 1221.82 L2160.68 1221.82 L2160.68 1221.20 L2177.51 1221.20 L2177.51 1221.57 L2194.34 1221.57 L2194.34 1220.96 L2211.16 1220.96 L2211.16 1220.09 L2227.99 1220.09 L2227.99 1220.96 L2244.82 1220.96 L2244.82 1221.82 L2261.78 1221.82 L2261.78 1222.07 L2278.61 1222.07 L2278.61 1222.19 L2295.44 1222.19 L2295.44 1222.07 L2312.27 1222.07 L2312.27 1222.69 L2329.10 1222.69 L2329.10 1223.18 L2345.93 1223.18 L2345.93 1223.68 L2362.88 1223.68 L2362.88 1224.17 L2379.71 1224.17 L2379.71 1224.79 L2396.54 1224.79 L2396.54 1224.79 L2413.37 1224.79 L2413.37 1225.16 L2430.20 1225.16 L2430.20 1225.78 L2447.16 1225.78 L2447.16 1225.04 L2463.99 1225.04 L2463.99 1223.93 L2480.82 1223.93 L2480.82 1224.54 L2497.65 1224.54 L2497.65 1224.05 L2514.48 1224.05 L2514.48 1225.29 L2531.31 1225.29 L2531.31 1225.29 L2548.26 1225.29 L2548.26 1225.53 L2565.09 1225.53 L2565.09 1226.77 L2581.92 1226.77 L2581.92 1227.02 L2598.75 1227.02 L2598.75 1226.15 L2615.58 1226.15 L2615.58 1225.91 L2632.41 1225.91 L2632.41 1226.03 L2649.36 1226.03 L2649.36 1227.27 L2666.19 1227.27 L2666.19 1227.02 L2683.02 1227.02 L2683.02 1227.27 L2699.85 1227.27 L2699.85 1227.51 L2716.68 1227.51 L2716.68 1228.26 L2733.51 1228.26 L2733.51 1227.64 L2750.47 1227.64 L2750.47 1228.75 L2767.30 1228.75 L2767.30 1229.12 L2784.13 1229.12 L2784.13 1229.62 L2800.96 1229.62 L2800.96 1230.11 L2817.79 1230.11 L2817.79 1229.74 L2834.74 1229.74 L2834.74 1229.37 L2851.57 1229.37 L2851.57 1230.36 L2868.40 1230.36 L2868.40 1230.36 L2885.23 1230.36 L2885.23 1230.61 L2902.06 1230.61 L2902.06 1231.35 L2918.89 1231.35 L2918.89 1230.86 L2935.84 1230.86 L2935.84 1231.23 L2952.68 1231.23 L2952.68 1230.86 L2969.51 1230.86 L2969.51 1230.73 L2986.34 1230.73 L2986.34 1231.23 L3003.16 1231.23 L3003.16 1232.46 L3019.99 1232.46 L3019.99 1232.59 L3036.95 1232.59 L3036.95 1233.33 L3053.78 1233.33 L3053.78 1233.83 L3070.61 1233.83 L3070.61 1233.45 L3087.44 1233.45 L3087.44 1233.33 L3104.27 1233.33 L3104.27 1234.07 L3121.10 1234.07 L3121.10 1234.57 L3138.05 1234.57 L3138.05 1234.82 L3154.88 1234.82 L3154.88 1234.57 L3171.71 1234.57 L3171.71 1235.06 L3188.54 1235.06 L3188.54 1234.20 L3205.37 1234.20 L3205.37 1233.83 L3222.33 1233.83 L3222.33 1234.07 L3239.16 1234.07 L3239.16 1233.58 L3255.99 1233.58 L3255.99 1233.83 L3272.82 1233.83 L3272.82 1234.69 L3289.65 1234.69 L3289.65 1235.06 L3306.48 1235.06 L3306.48 1234.20 L3323.43 1234.20 L3323.43 1234.07 L3340.26 1234.07 L3340.26 1233.95 L3357.09 1233.95 L3357.09 1233.95 L3373.92 1233.95 L3373.92 1234.20 L3390.75 1234.20 L3390.75 1235.19 L3407.58 1235.19 L3407.58 1234.57 L3424.53 1234.57 L3424.53 1233.83 L3441.36 1233.83 L3441.36 1233.95 L3458.19 1233.95 L3458.19 1235.19 L3475.02 1235.19 L3475.02 1235.81 L3491.85 1235.81 L3491.85 1236.05 L3508.81 1236.05 L3508.81 1237.29 L3525.64 1237.29 L3525.64 1237.91 L3542.47 1237.91 L3542.47 1238.03 L3559.30 1238.03 L3559.30 1239.77 L3576.13 1239.77 L3576.13 1239.89 L3592.96 1239.89 L3592.96 1240.63 L3609.91 1240.63 L3609.91 1241.25 L3626.74 1241.25 L3626.74 1240.88 L3643.57 1240.88 L3643.57 1240.88 L3660.40 1240.88 L3660.40 1241.62 L3677.23 1241.62 L3677.23 1242.12 L3694.06 1242.12 L3694.06 1242.24 L3711.01 1242.24 L3711.01 1244.10 L3727.84 1244.10 L3727.84 1246.20 L3744.68 1246.20 L3744.68 1247.19 L3761.51 1247.19 L3761.51 1247.56 L3778.34 1247.56 L3778.34 1248.80 L3795.16 1248.80 L3795.16 1250.16" stroke-linejoin="round" style="fill:none;stroke:#000000;stroke-width:8.64"/>
	<line x1="559.10" y1="2509.23" x2="559.10" y2="419.90" style="stroke:#000000;stroke-width:5.76"/>
	<line x1="559.10" y1="2445.87" x2="519.13" y2="2445.87" style="stroke:#000000;stroke-width:5.76"/>
	<text x="499.08" y="2480.90" style="font-family:'Helvetica';font-size:99.99px;fill:#000000" text-anchor="end">-0.25</text>
	<line x1="559.10" y1="2249.60" x2="519.13" y2="2249.60" style="stroke:#000000;stroke-width:5.76"/>
	<text x="499.08" y="2284.63" style="font-family:'Helvetica';font-size:99.99px;fill:#000000" text-anchor="end">-0.20</text>
	<line x1="559.10" y1="2053.32" x2="519.13" y2="2053.32" style="stroke:#000000;stroke-width:5.76"/>
	<text x="499.08" y="2088.35" style="font-family:'Helvetica';font-size:99.99px;fill:#000000" text-anchor="end">-0.15</text>
	<line x1="559.10" y1="1857.05" x2="519.13" y2="1857.05" style="stroke:#000000;stroke-width:5.76"/>
	<text x="499.08" y="1892.08" style="font-family:'Helvetica';font-size:99.99px;fill:#000000" text-anchor="end">-0.10</text>
	<line x1="559.10" y1="1660.78" x2="519.13" y2="1660.78" style="stroke:#000000;stroke-width:5.76"/>
	<text x="499.08" y="1695.81" style="font-family:'Helvetica';font-size:99.99px;fill:#000000" text-anchor="end">-0.05</text>
	<line x1="559.10" y1="1464.63" x2="519.13" y2="1464.63" style="stroke:#000000;stroke-width:5.76"/>
	<text x="499.08" y="1499.66" style="font-family:'Helvetica';font-size:99.99px;fill:#000000" text-anchor="end">0.00</text>
	<line x1="559.10" y1="1268.35" x2="519.13" y2="1268.35" style="stroke:#000000;stroke-width:5.76"/>
	<text x="499.08" y="1303.38" style="font-family:'Helvetica';font-size:99.99px;fill:#000000" text-anchor="end">0.05</text>
	<line x1="559.10" y1="1072.08" x2="519.13" y2="1072.08" style="stroke:#000000;stroke-width:5.76"/>
	<text x="499.08" y="1107.11" style="font-family:'Helvetica';font-size:99.99px;fill:#000000" text-anchor="end">0.10</text>
	<line x1="559.10" y1="875.81" x2="519.13" y2="875.81" style="stroke:#000000;stroke-width:5.76"/>
	<text x="499.08" y="910.83" style="font-family:'Helvetica';font-size:99.99px;fill:#000000" text-anchor="end">0.15</text>
	<line x1="559.10" y1="679.53" x2="519.13" y2="679.53" style="stroke:#000000;stroke-width:5.76"/>
	<text x="499.08" y="714.56" style="font-family:'Helvetica';font-size:99.99px;fill:#000000" text-anchor="end">0.20</text>
	<line x1="559.10" y1="483.26" x2="519.13" y2="483.26" style="stroke:#000000;stroke-width:5.76"/>
	<text x="499.08" y="518.29" style="font-family:'Helvetica';font-size:99.99px;fill:#000000" text-anchor="end">0.25</text>
	<text x="190.71" y="1464.63" style="font-family:'Helvetica';font-size:99.99px;fill:#000000" transform="rotate(-90 190.71,1464.63)" text-anchor="middle">Difference in Probabilities</text>
	<line x1="559.10" y1="2509.23" x2="3859.02" y2="2509.23" style="stroke:#000000;stroke-width:5.76"/>
	<line x1="622.46" y1="2509.23" x2="622.46" y2="2549.21" style="stroke:#000000;stroke-width:5.76"/>
	<text x="622.46" y="2625.15" style="font-family:'Helvetica';font-size:79.94px;fill:#000000" text-anchor="middle">0</text>
	<line x1="812.91" y1="2509.23" x2="812.91" y2="2549.21" style="stroke:#000000;stroke-width:5.76"/>
	<text x="812.91" y="2625.15" style="font-family:'Helvetica';font-size:79.94px;fill:#000000" text-anchor="middle">.3</text>
	<line x1="1003.24" y1="2509.23" x2="1003.24" y2="2549.21" style="stroke:#000000;stroke-width:5.76"/>
	<text x="1003.24" y="2625.15" style="font-family:'Helvetica';font-size:79.94px;fill:#000000" text-anchor="middle">.6</text>
	<line x1="1193.69" y1="2509.23" x2="1193.69" y2="2549.21" style="stroke:#000000;stroke-width:5.76"/>
	<text x="1193.69" y="2625.15" style="font-family:'Helvetica';font-size:79.94px;fill:#000000" text-anchor="middle">.9</text>
	<line x1="1384.02" y1="2509.23" x2="1384.02" y2="2549.21" style="stroke:#000000;stroke-width:5.76"/>
	<text x="1384.02" y="2625.15" style="font-family:'Helvetica';font-size:79.94px;fill:#000000" text-anchor="middle">1.2</text>
	<line x1="1574.47" y1="2509.23" x2="1574.47" y2="2549.21" style="stroke:#000000;stroke-width:5.76"/>
	<text x="1574.47" y="2625.15" style="font-family:'Helvetica';font-size:79.94px;fill:#000000" text-anchor="middle">1.5</text>
	<line x1="1764.80" y1="2509.23" x2="1764.80" y2="2549.21" style="stroke:#000000;stroke-width:5.76"/>
	<text x="1764.80" y="2625.15" style="font-family:'Helvetica';font-size:79.94px;fill:#000000" text-anchor="middle">1.8</text>
	<line x1="1955.25" y1="2509.23" x2="1955.25" y2="2549.21" style="stroke:#000000;stroke-width:5.76"/>
	<text x="1955.25" y="2625.15" style="font-family:'Helvetica';font-size:79.94px;fill:#000000" text-anchor="middle">2.1</text>
	<line x1="2145.58" y1="2509.23" x2="2145.58" y2="2549.21" style="stroke:#000000;stroke-width:5.76"/>
	<text x="2145.58" y="2625.15" style="font-family:'Helvetica';font-size:79.94px;fill:#000000" text-anchor="middle">2.4</text>
	<line x1="2336.03" y1="2509.23" x2="2336.03" y2="2549.21" style="stroke:#000000;stroke-width:5.76"/>
	<text x="2336.03" y="2625.15" style="font-family:'Helvetica';font-size:79.94px;fill:#000000" text-anchor="middle">2.7</text>
	<line x1="2526.48" y1="2509.23" x2="2526.48" y2="2549.21" style="stroke:#000000;stroke-width:5.76"/>
	<text x="2526.48" y="2625.15" style="font-family:'Helvetica';font-size:79.94px;fill:#000000" text-anchor="middle">3</text>
	<line x1="2716.81" y1="2509.23" x2="2716.81" y2="2549.21" style="stroke:#000000;stroke-width:5.76"/>
	<text x="2716.81" y="2625.15" style="font-family:'Helvetica';font-size:79.94px;fill:#000000" text-anchor="middle">3.3</text>
	<line x1="2907.26" y1="2509.23" x2="2907.26" y2="2549.21" style="stroke:#000000;stroke-width:5.76"/>
	<text x="2907.26" y="2625.15" style="font-family:'Helvetica';font-size:79.94px;fill:#000000" text-anchor="middle">3.6</text>
	<line x1="3097.59" y1="2509.23" x2="3097.59" y2="2549.21" style="stroke:#000000;stroke-width:5.76"/>
	<text x="3097.59" y="2625.15" style="font-family:'Helvetica';font-size:79.94px;fill:#000000" text-anchor="middle">3.9</text>
	<line x1="3288.04" y1="2509.23" x2="3288.04" y2="2549.21" style="stroke:#000000;stroke-width:5.76"/>
	<text x="3288.04" y="2625.15" style="font-family:'Helvetica';font-size:79.94px;fill:#000000" text-anchor="middle">4.2</text>
	<line x1="3478.36" y1="2509.23" x2="3478.36" y2="2549.21" style="stroke:#000000;stroke-width:5.76"/>
	<text x="3478.36" y="2625.15" style="font-family:'Helvetica';font-size:79.94px;fill:#000000" text-anchor="middle">4.5</text>
	<line x1="3668.82" y1="2509.23" x2="3668.82" y2="2549.21" style="stroke:#000000;stroke-width:5.76"/>
	<text x="3668.82" y="2625.15" style="font-family:'Helvetica';font-size:79.94px;fill:#000000" text-anchor="middle">4.8</text>
	<line x1="3859.14" y1="2509.23" x2="3859.14" y2="2549.21" style="stroke:#000000;stroke-width:5.76"/>
	<text x="3859.14" y="2625.15" style="font-family:'Helvetica';font-size:79.94px;fill:#000000" text-anchor="middle">5.1</text>
	<text x="2209.06" y="2729.16" style="font-family:'Helvetica';font-size:99.99px;fill:#000000" text-anchor="middle">Time (years)</text>
	<rect x="593.63" y="454.42" width="993.34" height="326.46" style="fill:#FFFFFF"/>
	<rect x="596.51" y="457.30" width="987.58" height="320.70" style="fill:none;stroke:#000000;stroke-width:5.76"/>
	<rect x="636.82" y="497.74" width="374.47" height="99.99" style="fill:#999999;fill-opacity:0.65"/>
	<rect x="641.14" y="502.06" width="365.83" height="91.35" style="fill:none;stroke:#808080;stroke-opacity:0.65;stroke-width:8.64"/>
	<line x1="636.82" y1="687.70" x2="1011.28" y2="687.70" style="stroke:#000000;stroke-width:8.64"/>
	<text x="1071.30" y="582.76" style="font-family:'Helvetica';font-size:99.99px;fill:#000000">CI95%</text>
	<text x="1071.30" y="722.73" style="font-family:'Helvetica';font-size:99.99px;fill:#000000">Difference</text>
	<text x="2209.06" y="369.63" style="font-family:'Helvetica';font-size:110.01px;fill:#000000" text-anchor="middle">from Admission to Readmission</text>
	<text x="2209.06" y="215.98" style="font-family:'Helvetica';font-size:139.96px;fill:#1E2D53" text-anchor="middle">Difference in Probabilities at 3 years (TC)</text>
</svg>
