<?xml version="1.0" encoding="UTF-8" standalone="no"?>
<!-- This is a Stata 16.1 generated SVG file (http://www.stata.com) -->

<svg version="1.1" width="5.50in" height="4.00in" viewBox="0 0 3960 2880" xmlns="http://www.w3.org/2000/svg" xmlns:xlink="http://www.w3.org/1999/xlink">
	<desc>Stata Graph - diff_mod2435_3y_rp_22</desc>
	<rect x="0" y="0" width="3960" height="2880" style="fill:#EAF2F3;stroke:none"/>
	<rect x="0.00" y="0.00" width="3959.88" height="2880.00" style="fill:#FFFFFF"/>
	<rect x="2.88" y="2.88" width="3954.12" height="2874.24" style="fill:none;stroke:#FFFFFF;stroke-width:5.76"/>
	<rect x="559.10" y="419.90" width="3299.92" height="2089.34" style="fill:#FFFFFF"/>
	<rect x="561.98" y="422.78" width="3294.16" height="2083.58" style="fill:none;stroke:#FFFFFF;stroke-width:5.76"/>
	<line x1="559.10" y1="2249.60" x2="3859.02" y2="2249.60" style="stroke:#EAF2F3;stroke-width:8.64"/>
	<line x1="559.10" y1="2053.32" x2="3859.02" y2="2053.32" style="stroke:#EAF2F3;stroke-width:8.64"/>
	<line x1="559.10" y1="1857.05" x2="3859.02" y2="1857.05" style="stroke:#EAF2F3;stroke-width:8.64"/>
	<line x1="559.10" y1="1660.78" x2="3859.02" y2="1660.78" style="stroke:#EAF2F3;stroke-width:8.64"/>
	<line x1="559.10" y1="1464.63" x2="3859.02" y2="1464.63" style="stroke:#EAF2F3;stroke-width:8.64"/>
	<line x1="559.10" y1="1268.35" x2="3859.02" y2="1268.35" style="stroke:#EAF2F3;stroke-width:8.64"/>
	<line x1="559.10" y1="1072.08" x2="3859.02" y2="1072.08" style="stroke:#EAF2F3;stroke-width:8.64"/>
	<line x1="559.10" y1="875.81" x2="3859.02" y2="875.81" style="stroke:#EAF2F3;stroke-width:8.64"/>
	<line x1="559.10" y1="679.53" x2="3859.02" y2="679.53" style="stroke:#EAF2F3;stroke-width:8.64"/>
	<line x1="559.10" y1="1464.63" x2="3859.02" y2="1464.63" style="stroke:#1A476F;stroke-width:8.64"/>
	<defs>
		<path id="path_bYPxCyUw" d="M778.88 1465.74 L778.88 1465.74 L795.71 1465.74 L795.71 1465.86 L812.54 1465.86 L812.54 1465.99 L829.37 1465.99 L829.37 1466.24 L846.20 1466.24 L846.20 1466.24 L863.16 1466.24 L863.16 1466.48 L879.99 1466.48 L879.99 1466.73 L896.82 1466.73 L896.82 1466.85 L913.65 1466.85 L913.65 1467.10 L930.48 1467.10 L930.48 1467.47 L947.31 1467.47 L947.31 1467.84 L964.26 1467.84 L964.26 1467.97 L981.09 1467.97 L981.09 1468.34 L997.92 1468.34 L997.92 1468.22 L1014.75 1468.22 L1014.75 1468.59 L1031.58 1468.59 L1031.58 1468.83 L1048.53 1468.83 L1048.53 1469.21 L1065.36 1469.21 L1065.36 1469.45 L1082.19 1469.45 L1082.19 1469.58 L1099.02 1469.58 L1099.02 1469.82 L1115.85 1469.82 L1115.85 1470.07 L1132.68 1470.07 L1132.68 1470.44 L1149.64 1470.44 L1149.64 1470.81 L1166.47 1470.81 L1166.47 1470.94 L1183.30 1470.94 L1183.30 1471.31 L1200.13 1471.31 L1200.13 1471.68 L1216.96 1471.68 L1216.96 1472.05 L1233.79 1472.05 L1233.79 1472.18 L1250.74 1472.18 L1250.74 1472.67 L1267.57 1472.67 L1267.57 1473.04 L1284.40 1473.04 L1284.40 1473.78 L1301.23 1473.78 L1301.23 1474.65 L1318.06 1474.65 L1318.06 1474.90 L1334.89 1474.90 L1334.89 1474.77 L1351.85 1474.77 L1351.85 1475.64 L1368.67 1475.64 L1368.67 1476.14 L1385.51 1476.14 L1385.51 1477.13 L1402.34 1477.13 L1402.34 1477.99 L1419.16 1477.99 L1419.16 1479.11 L1436.12 1479.11 L1436.12 1479.72 L1452.95 1479.72 L1452.95 1480.10 L1469.78 1480.10 L1469.78 1480.59 L1486.61 1480.59 L1486.61 1480.96 L1503.44 1480.96 L1503.44 1481.83 L1520.27 1481.83 L1520.27 1482.82 L1537.22 1482.82 L1537.22 1483.81 L1554.05 1483.81 L1554.05 1485.29 L1570.88 1485.29 L1570.88 1486.16 L1587.71 1486.16 L1587.71 1486.78 L1604.54 1486.78 L1604.54 1487.52 L1621.37 1487.52 L1621.37 1488.51 L1638.33 1488.51 L1638.33 1488.51 L1655.16 1488.51 L1655.16 1489.38 L1671.99 1489.38 L1671.99 1490.74 L1688.82 1490.74 L1688.82 1491.98 L1705.65 1491.98 L1705.65 1493.71 L1722.48 1493.71 L1722.48 1494.08 L1739.43 1494.08 L1739.43 1496.68 L1756.26 1496.68 L1756.26 1497.55 L1773.09 1497.55 L1773.09 1498.66 L1789.92 1498.66 L1789.92 1499.53 L1806.75 1499.53 L1806.75 1500.76 L1823.70 1500.76 L1823.70 1501.75 L1840.53 1501.75 L1840.53 1503.73 L1857.36 1503.73 L1857.36 1504.72 L1874.19 1504.72 L1874.19 1505.34 L1891.02 1505.34 L1891.02 1507.07 L1907.85 1507.07 L1907.85 1509.43 L1924.81 1509.43 L1924.81 1511.03 L1941.64 1511.03 L1941.64 1512.77 L1958.47 1512.77 L1958.47 1513.63 L1975.30 1513.63 L1975.30 1514.75 L1992.13 1514.75 L1992.13 1516.48 L2008.96 1516.48 L2008.96 1517.59 L2025.91 1517.59 L2025.91 1519.57 L2042.74 1519.57 L2042.74 1521.68 L2059.57 1521.68 L2059.57 1522.92 L2076.40 1522.92 L2076.40 1525.27 L2093.23 1525.27 L2093.23 1527.49 L2110.18 1527.49 L2110.18 1528.86 L2127.01 1528.86 L2127.01 1532.69 L2143.84 1532.69 L2143.84 1535.54 L2160.68 1535.54 L2160.68 1538.38 L2177.51 1538.38 L2177.51 1540.98 L2194.34 1540.98 L2194.34 1542.47 L2211.29 1542.47 L2211.29 1543.95 L2228.12 1543.95 L2228.12 1546.43 L2244.95 1546.43 L2244.95 1549.27 L2261.78 1549.27 L2261.78 1551.38 L2278.61 1551.38 L2278.61 1555.71 L2295.44 1555.71 L2295.44 1559.42 L2312.39 1559.42 L2312.39 1561.65 L2329.22 1561.65 L2329.22 1565.12 L2346.05 1565.12 L2346.05 1566.72 L2362.88 1566.72 L2362.88 1568.58 L2379.71 1568.58 L2379.71 1571.30 L2396.54 1571.30 L2396.54 1574.03 L2413.50 1574.03 L2413.50 1577.61 L2430.33 1577.61 L2430.33 1580.83 L2447.16 1580.83 L2447.16 1582.94 L2463.99 1582.94 L2463.99 1585.66 L2480.82 1585.66 L2480.82 1589.87 L2497.77 1589.87 L2497.77 1591.85 L2514.60 1591.85 L2514.60 1597.17 L2531.43 1597.17 L2531.43 1598.78 L2548.26 1598.78 L2548.26 1602.12 L2565.09 1602.12 L2565.09 1606.08 L2581.92 1606.08 L2581.92 1610.29 L2598.87 1610.29 L2598.87 1614.86 L2615.70 1614.86 L2615.70 1618.82 L2632.53 1618.82 L2632.53 1620.06 L2649.36 1620.06 L2649.36 1626.13 L2666.19 1626.13 L2666.19 1629.96 L2683.02 1629.96 L2683.02 1633.67 L2699.98 1633.67 L2699.98 1639.37 L2716.81 1639.37 L2716.81 1644.07 L2733.64 1644.07 L2733.64 1647.54 L2750.47 1647.54 L2750.47 1651.37 L2767.30 1651.37 L2767.30 1655.95 L2784.25 1655.95 L2784.25 1661.52 L2801.08 1661.52 L2801.08 1665.23 L2817.91 1665.23 L2817.91 1669.07 L2834.74 1669.07 L2834.74 1674.02 L2851.57 1674.02 L2851.57 1679.22 L2868.40 1679.22 L2868.40 1684.29 L2885.36 1684.29 L2885.36 1688.62 L2902.18 1688.62 L2902.18 1694.07 L2919.01 1694.07 L2919.01 1699.64 L2935.84 1699.64 L2935.84 1703.47 L2952.68 1703.47 L2952.68 1708.30 L2969.51 1708.30 L2969.51 1714.11 L2986.46 1714.11 L2986.46 1718.32 L3003.29 1718.32 L3003.29 1722.78 L3020.12 1722.78 L3020.12 1727.98 L3036.95 1727.98 L3036.95 1732.06 L3053.78 1732.06 L3053.78 1736.89 L3070.61 1736.89 L3070.61 1742.58 L3087.56 1742.58 L3087.56 1747.78 L3104.39 1747.78 L3104.39 1752.97 L3121.22 1752.97 L3121.22 1756.07 L3138.05 1756.07 L3138.05 1761.39 L3154.88 1761.39 L3154.88 1765.72 L3171.84 1765.72 L3171.84 1771.17 L3188.67 1771.17 L3188.67 1774.01 L3205.50 1774.01 L3205.50 1777.97 L3222.33 1777.97 L3222.33 1781.44 L3239.16 1781.44 L3239.16 1782.92 L3255.99 1782.92 L3255.99 1788.99 L3272.94 1788.99 L3272.94 1793.69 L3289.77 1793.69 L3289.77 1798.76 L3306.60 1798.76 L3306.60 1805.07 L3323.43 1805.07 L3323.43 1811.26 L3340.26 1811.26 L3340.26 1817.08 L3357.09 1817.08 L3357.09 1821.78 L3374.04 1821.78 L3374.04 1826.24 L3390.87 1826.24 L3390.87 1830.94 L3407.70 1830.94 L3407.70 1835.64 L3424.53 1835.64 L3424.53 1840.10 L3441.36 1840.10 L3441.36 1843.44 L3458.19 1843.44 L3458.19 1848.88 L3475.15 1848.88 L3475.15 1851.73 L3491.98 1851.73 L3491.98 1856.43 L3508.81 1856.43 L3508.81 1860.39 L3525.64 1860.39 L3525.64 1862.25 L3542.47 1862.25 L3542.47 1866.33 L3559.42 1866.33 L3559.42 1869.92 L3576.25 1869.92 L3576.25 1873.39 L3593.08 1873.39 L3593.08 1874.62 L3609.91 1874.62 L3609.91 1880.07 L3626.74 1880.07 L3626.74 1885.64 L3643.57 1885.64 L3643.57 1890.09 L3660.53 1890.09 L3660.53 1892.44 L3677.36 1892.44 L3677.36 1896.40 L3694.18 1896.40 L3694.18 1900.49 L3711.01 1900.49 L3711.01 1903.83 L3727.84 1903.83 L3727.84 1908.16 L3744.68 1908.16 L3744.68 1912.00 L3761.63 1912.00 L3761.63 1917.32 L3778.46 1917.32 L3778.46 1921.28 L3795.29 1921.28 L3795.29 1926.72 L3795.29 926.17 L3795.29 929.02 L3778.46 929.02 L3778.46 933.23 L3761.63 933.23 L3761.63 936.45 L3744.68 936.45 L3744.68 941.52 L3727.84 941.52 L3727.84 946.10 L3711.01 946.10 L3711.01 951.67 L3694.18 951.67 L3694.18 956.74 L3677.36 956.74 L3677.36 961.69 L3660.53 961.69 L3660.53 968.37 L3643.57 968.37 L3643.57 973.20 L3626.74 973.20 L3626.74 976.91 L3609.91 976.91 L3609.91 980.87 L3593.08 980.87 L3593.08 988.79 L3576.25 988.79 L3576.25 994.61 L3559.42 994.61 L3559.42 1000.67 L3542.47 1000.67 L3542.47 1006.12 L3525.64 1006.12 L3525.64 1013.92 L3508.81 1013.92 L3508.81 1019.73 L3491.98 1019.73 L3491.98 1024.93 L3475.15 1024.93 L3475.15 1031.86 L3458.19 1031.86 L3458.19 1036.44 L3441.36 1036.44 L3441.36 1043.25 L3424.53 1043.25 L3424.53 1048.81 L3407.70 1048.81 L3407.70 1054.14 L3390.87 1054.14 L3390.87 1059.58 L3374.04 1059.58 L3374.04 1065.27 L3357.09 1065.27 L3357.09 1070.59 L3340.26 1070.59 L3340.26 1075.05 L3323.43 1075.05 L3323.43 1079.01 L3306.60 1079.01 L3306.60 1082.97 L3289.77 1082.97 L3289.77 1088.17 L3272.94 1088.17 L3272.94 1093.74 L3255.99 1093.74 L3255.99 1097.82 L3239.16 1097.82 L3239.16 1106.61 L3222.33 1106.61 L3222.33 1113.04 L3205.50 1113.04 L3205.50 1119.48 L3188.67 1119.48 L3188.67 1127.03 L3171.84 1127.03 L3171.84 1131.73 L3154.88 1131.73 L3154.88 1137.55 L3138.05 1137.55 L3138.05 1142.50 L3121.22 1142.50 L3121.22 1149.18 L3104.39 1149.18 L3104.39 1154.00 L3087.56 1154.00 L3087.56 1158.95 L3070.61 1158.95 L3070.61 1163.04 L3053.78 1163.04 L3053.78 1168.36 L3036.95 1168.36 L3036.95 1174.30 L3020.12 1174.30 L3020.12 1178.88 L3003.29 1178.88 L3003.29 1184.20 L2986.46 1184.20 L2986.46 1189.77 L2969.51 1189.77 L2969.51 1193.61 L2952.68 1193.61 L2952.68 1198.56 L2935.84 1198.56 L2935.84 1204.37 L2919.01 1204.37 L2919.01 1208.58 L2902.18 1208.58 L2902.18 1212.66 L2885.36 1212.66 L2885.36 1217.61 L2868.40 1217.61 L2868.40 1222.07 L2851.57 1222.07 L2851.57 1226.03 L2834.74 1226.03 L2834.74 1230.48 L2817.91 1230.48 L2817.91 1235.81 L2801.08 1235.81 L2801.08 1241.13 L2784.25 1241.13 L2784.25 1244.96 L2767.30 1244.96 L2767.30 1249.54 L2750.47 1249.54 L2750.47 1254.62 L2733.64 1254.62 L2733.64 1259.94 L2716.81 1259.94 L2716.81 1264.02 L2699.98 1264.02 L2699.98 1266.74 L2683.02 1266.74 L2683.02 1271.57 L2666.19 1271.57 L2666.19 1276.27 L2649.36 1276.27 L2649.36 1278.50 L2632.53 1278.50 L2632.53 1285.43 L2615.70 1285.43 L2615.70 1289.64 L2598.87 1289.64 L2598.87 1292.86 L2581.92 1292.86 L2581.92 1296.57 L2565.09 1296.57 L2565.09 1300.41 L2548.26 1300.41 L2548.26 1304.49 L2531.43 1304.49 L2531.43 1310.43 L2514.60 1310.43 L2514.60 1312.78 L2497.77 1312.78 L2497.77 1317.98 L2480.82 1317.98 L2480.82 1320.83 L2463.99 1320.83 L2463.99 1325.16 L2447.16 1325.16 L2447.16 1330.23 L2430.33 1330.23 L2430.33 1333.94 L2413.50 1333.94 L2413.50 1337.16 L2396.54 1337.16 L2396.54 1341.12 L2379.71 1341.12 L2379.71 1345.08 L2362.88 1345.08 L2362.88 1349.41 L2346.05 1349.41 L2346.05 1354.11 L2329.22 1354.11 L2329.22 1356.96 L2312.39 1356.96 L2312.39 1360.55 L2295.44 1360.55 L2295.44 1362.90 L2278.61 1362.90 L2278.61 1364.26 L2261.78 1364.26 L2261.78 1367.73 L2244.95 1367.73 L2244.95 1370.45 L2228.12 1370.45 L2228.12 1373.54 L2211.29 1373.54 L2211.29 1377.50 L2194.34 1377.50 L2194.34 1381.34 L2177.51 1381.34 L2177.51 1383.57 L2160.68 1383.57 L2160.68 1385.67 L2143.84 1385.67 L2143.84 1387.90 L2127.01 1387.90 L2127.01 1388.77 L2110.18 1388.77 L2110.18 1391.98 L2093.23 1391.98 L2093.23 1394.33 L2076.40 1394.33 L2076.40 1396.44 L2059.57 1396.44 L2059.57 1399.53 L2042.74 1399.53 L2042.74 1401.88 L2025.91 1401.88 L2025.91 1403.86 L2008.96 1403.86 L2008.96 1406.59 L1992.13 1406.59 L1992.13 1408.94 L1975.30 1408.94 L1975.30 1411.66 L1958.47 1411.66 L1958.47 1414.38 L1941.64 1414.38 L1941.64 1416.24 L1924.81 1416.24 L1924.81 1418.10 L1907.85 1418.10 L1907.85 1419.33 L1891.02 1419.33 L1891.02 1420.82 L1874.19 1420.82 L1874.19 1423.29 L1857.36 1423.29 L1857.36 1425.40 L1840.53 1425.40 L1840.53 1426.39 L1823.70 1426.39 L1823.70 1428.37 L1806.75 1428.37 L1806.75 1429.98 L1789.92 1429.98 L1789.92 1431.83 L1773.09 1431.83 L1773.09 1433.44 L1756.26 1433.44 L1756.26 1435.30 L1739.43 1435.30 L1739.43 1435.17 L1722.48 1435.17 L1722.48 1437.15 L1705.65 1437.15 L1705.65 1437.77 L1688.82 1437.77 L1688.82 1438.76 L1671.99 1438.76 L1671.99 1439.38 L1655.16 1439.38 L1655.16 1440.74 L1638.33 1440.74 L1638.33 1442.60 L1621.37 1442.60 L1621.37 1443.59 L1604.54 1443.59 L1604.54 1444.70 L1587.71 1444.70 L1587.71 1445.94 L1570.88 1445.94 L1570.88 1446.93 L1554.05 1446.93 L1554.05 1446.93 L1537.22 1446.93 L1537.22 1447.67 L1520.27 1447.67 L1520.27 1448.04 L1503.44 1448.04 L1503.44 1448.66 L1486.61 1448.66 L1486.61 1449.65 L1469.78 1449.65 L1469.78 1450.64 L1452.95 1450.64 L1452.95 1451.51 L1436.12 1451.51 L1436.12 1452.25 L1419.16 1452.25 L1419.16 1452.13 L1402.34 1452.13 L1402.34 1452.50 L1385.51 1452.50 L1385.51 1452.75 L1368.67 1452.75 L1368.67 1453.24 L1351.85 1453.24 L1351.85 1453.37 L1334.89 1453.37 L1334.89 1454.48 L1318.06 1454.48 L1318.06 1455.10 L1301.23 1455.10 L1301.23 1455.10 L1284.40 1455.10 L1284.40 1455.47 L1267.57 1455.47 L1267.57 1455.84 L1250.74 1455.84 L1250.74 1456.21 L1233.79 1456.21 L1233.79 1456.71 L1216.96 1456.71 L1216.96 1457.08 L1200.13 1457.08 L1200.13 1457.45 L1183.30 1457.45 L1183.30 1457.82 L1166.47 1457.82 L1166.47 1458.32 L1149.64 1458.32 L1149.64 1458.69 L1132.68 1458.69 L1132.68 1458.81 L1115.85 1458.81 L1115.85 1459.31 L1099.02 1459.31 L1099.02 1459.55 L1082.19 1459.55 L1082.19 1460.17 L1065.36 1460.17 L1065.36 1460.42 L1048.53 1460.42 L1048.53 1460.54 L1031.58 1460.54 L1031.58 1460.79 L1014.75 1460.79 L1014.75 1460.91 L997.92 1460.91 L997.92 1461.41 L981.09 1461.41 L981.09 1461.66 L964.26 1461.66 L964.26 1461.78 L947.31 1461.78 L947.31 1462.03 L930.48 1462.03 L930.48 1462.03 L913.65 1462.03 L913.65 1462.28 L896.82 1462.28 L896.82 1462.52 L879.99 1462.52 L879.99 1462.52 L863.16 1462.52 L863.16 1462.65 L846.20 1462.65 L846.20 1462.89 L829.37 1462.89 L829.37 1463.14 L812.54 1463.14 L812.54 1463.27 L795.71 1463.27 L795.71 1463.39 L778.88 1463.39 L778.88 1465.74 Z" stroke-linejoin="round"/>
	</defs>
	<defs>
		<clipPath id="clipPath_QpRfsnXh">
			<use xlink:href="#path_bYPxCyUw"/>
		</clipPath>
	</defs>
	<use xlink:href="#path_bYPxCyUw" style="stroke:none;fill:#999999;fill-opacity:0.75"/>
	<use xlink:href="#path_bYPxCyUw" style="fill:none;stroke:#808080;stroke-opacity:0.75;stroke-width:17.28" clip-path="url(#clipPath_QpRfsnXh)"/>
	<path d=" M778.76 1464.63 L795.59 1464.63 L795.59 1464.63 L812.54 1464.63 L812.54 1464.63 L829.37 1464.63 L829.37 1464.63 L846.20 1464.63 L846.20 1464.50 L863.03 1464.50 L863.03 1464.50 L879.86 1464.50 L879.86 1464.63 L896.69 1464.63 L896.69 1464.63 L913.65 1464.63 L913.65 1464.63 L930.48 1464.63 L930.48 1464.75 L947.31 1464.75 L947.31 1464.87 L964.14 1464.87 L964.14 1464.87 L980.97 1464.87 L980.97 1464.87 L997.80 1464.87 L997.80 1464.63 L1014.75 1464.63 L1014.75 1464.75 L1031.58 1464.75 L1031.58 1464.75 L1048.41 1464.75 L1048.41 1464.87 L1065.24 1464.87 L1065.24 1464.87 L1082.07 1464.87 L1082.07 1464.63 L1099.02 1464.63 L1099.02 1464.63 L1115.85 1464.63 L1115.85 1464.50 L1132.68 1464.50 L1132.68 1464.63 L1149.51 1464.63 L1149.51 1464.63 L1166.34 1464.63 L1166.34 1464.38 L1183.17 1464.38 L1183.17 1464.38 L1200.13 1464.38 L1200.13 1464.50 L1216.96 1464.50 L1216.96 1464.50 L1233.79 1464.50 L1233.79 1464.26 L1250.62 1464.26 L1250.62 1464.38 L1267.45 1464.38 L1267.45 1464.38 L1284.28 1464.38 L1284.28 1464.50 L1301.23 1464.50 L1301.23 1465.00 L1318.06 1465.00 L1318.06 1464.75 L1334.89 1464.75 L1334.89 1464.13 L1351.72 1464.13 L1351.72 1464.50 L1368.55 1464.50 L1368.55 1464.50 L1385.51 1464.50 L1385.51 1464.87 L1402.34 1464.87 L1402.34 1465.12 L1419.16 1465.12 L1419.16 1465.74 L1435.99 1465.74 L1435.99 1465.62 L1452.83 1465.62 L1452.83 1465.37 L1469.65 1465.37 L1469.65 1465.12 L1486.61 1465.12 L1486.61 1464.87 L1503.44 1464.87 L1503.44 1465.00 L1520.27 1465.00 L1520.27 1465.25 L1537.10 1465.25 L1537.10 1465.37 L1553.93 1465.37 L1553.93 1466.11 L1570.76 1466.11 L1570.76 1466.11 L1587.71 1466.11 L1587.71 1465.74 L1604.54 1465.74 L1604.54 1465.62 L1621.37 1465.62 L1621.37 1465.62 L1638.20 1465.62 L1638.20 1464.63 L1655.03 1464.63 L1655.03 1464.38 L1671.86 1464.38 L1671.86 1464.75 L1688.82 1464.75 L1688.82 1464.87 L1705.65 1464.87 L1705.65 1465.49 L1722.48 1465.49 L1722.48 1464.75 L1739.31 1464.75 L1739.31 1465.99 L1756.14 1465.99 L1756.14 1465.49 L1773.09 1465.49 L1773.09 1465.25 L1789.92 1465.25 L1789.92 1464.87 L1806.75 1464.87 L1806.75 1464.63 L1823.58 1464.63 L1823.58 1464.13 L1840.41 1464.13 L1840.41 1464.63 L1857.24 1464.63 L1857.24 1464.13 L1874.19 1464.13 L1874.19 1463.14 L1891.02 1463.14 L1891.02 1463.27 L1907.85 1463.27 L1907.85 1463.76 L1924.68 1463.76 L1924.68 1463.64 L1941.51 1463.64 L1941.51 1463.64 L1958.34 1463.64 L1958.34 1462.77 L1975.30 1462.77 L1975.30 1461.90 L1992.13 1461.90 L1992.13 1461.53 L2008.96 1461.53 L2008.96 1460.79 L2025.79 1460.79 L2025.79 1460.79 L2042.62 1460.79 L2042.62 1460.67 L2059.45 1460.67 L2059.45 1459.68 L2076.40 1459.68 L2076.40 1459.80 L2093.23 1459.80 L2093.23 1459.80 L2110.06 1459.80 L2110.06 1458.93 L2126.89 1458.93 L2126.89 1460.30 L2143.72 1460.30 L2143.72 1460.67 L2160.68 1460.67 L2160.68 1461.04 L2177.51 1461.04 L2177.51 1461.16 L2194.34 1461.16 L2194.34 1460.05 L2211.16 1460.05 L2211.16 1458.81 L2227.99 1458.81 L2227.99 1458.44 L2244.82 1458.44 L2244.82 1458.56 L2261.78 1458.56 L2261.78 1457.94 L2278.61 1457.94 L2278.61 1459.31 L2295.44 1459.31 L2295.44 1460.05 L2312.27 1460.05 L2312.27 1459.31 L2329.10 1459.31 L2329.10 1459.68 L2345.93 1459.68 L2345.93 1458.07 L2362.88 1458.07 L2362.88 1456.83 L2379.71 1456.83 L2379.71 1456.21 L2396.54 1456.21 L2396.54 1455.59 L2413.37 1455.59 L2413.37 1455.84 L2430.20 1455.84 L2430.20 1455.59 L2447.16 1455.59 L2447.16 1454.11 L2463.99 1454.11 L2463.99 1453.37 L2480.82 1453.37 L2480.82 1453.98 L2497.65 1453.98 L2497.65 1452.38 L2514.48 1452.38 L2514.48 1453.86 L2531.31 1453.86 L2531.31 1451.63 L2548.26 1451.63 L2548.26 1451.39 L2565.09 1451.39 L2565.09 1451.39 L2581.92 1451.39 L2581.92 1451.63 L2598.75 1451.63 L2598.75 1452.25 L2615.58 1452.25 L2615.58 1452.13 L2632.41 1452.13 L2632.41 1449.41 L2649.36 1449.41 L2649.36 1451.26 L2666.19 1451.26 L2666.19 1450.77 L2683.02 1450.77 L2683.02 1450.27 L2699.85 1450.27 L2699.85 1451.76 L2716.68 1451.76 L2716.68 1452.00 L2733.51 1452.00 L2733.51 1451.14 L2750.47 1451.14 L2750.47 1450.52 L2767.30 1450.52 L2767.30 1450.52 L2784.13 1450.52 L2784.13 1451.39 L2800.96 1451.39 L2800.96 1450.52 L2817.79 1450.52 L2817.79 1449.78 L2834.74 1449.78 L2834.74 1450.02 L2851.57 1450.02 L2851.57 1450.64 L2868.40 1450.64 L2868.40 1450.89 L2885.23 1450.89 L2885.23 1450.64 L2902.06 1450.64 L2902.06 1451.39 L2918.89 1451.39 L2918.89 1452.00 L2935.84 1452.00 L2935.84 1451.01 L2952.68 1451.01 L2952.68 1451.01 L2969.51 1451.01 L2969.51 1452.00 L2986.34 1452.00 L2986.34 1451.26 L3003.16 1451.26 L3003.16 1450.77 L3019.99 1450.77 L3019.99 1451.14 L3036.95 1451.14 L3036.95 1450.15 L3053.78 1450.15 L3053.78 1449.90 L3070.61 1449.90 L3070.61 1450.77 L3087.44 1450.77 L3087.44 1450.89 L3104.27 1450.89 L3104.27 1451.01 L3121.10 1451.01 L3121.10 1449.28 L3138.05 1449.28 L3138.05 1449.41 L3154.88 1449.41 L3154.88 1448.79 L3171.71 1448.79 L3171.71 1449.03 L3188.54 1449.03 L3188.54 1446.68 L3205.37 1446.68 L3205.37 1445.45 L3222.33 1445.45 L3222.33 1443.96 L3239.16 1443.96 L3239.16 1440.25 L3255.99 1440.25 L3255.99 1441.24 L3272.82 1441.24 L3272.82 1440.74 L3289.65 1440.74 L3289.65 1440.74 L3306.48 1440.74 L3306.48 1441.98 L3323.43 1441.98 L3323.43 1443.09 L3340.26 1443.09 L3340.26 1443.71 L3357.09 1443.71 L3357.09 1443.47 L3373.92 1443.47 L3373.92 1442.72 L3390.75 1442.72 L3390.75 1442.35 L3407.58 1442.35 L3407.58 1441.98 L3424.53 1441.98 L3424.53 1441.49 L3441.36 1441.49 L3441.36 1439.75 L3458.19 1439.75 L3458.19 1440.12 L3475.02 1440.12 L3475.02 1438.14 L3491.85 1438.14 L3491.85 1437.77 L3508.81 1437.77 L3508.81 1436.91 L3525.64 1436.91 L3525.64 1433.94 L3542.47 1433.94 L3542.47 1433.19 L3559.30 1433.19 L3559.30 1431.96 L3576.13 1431.96 L3576.13 1430.72 L3592.96 1430.72 L3592.96 1427.25 L3609.91 1427.25 L3609.91 1428.00 L3626.74 1428.00 L3626.74 1428.99 L3643.57 1428.99 L3643.57 1428.74 L3660.40 1428.74 L3660.40 1426.63 L3677.23 1426.63 L3677.23 1426.14 L3694.06 1426.14 L3694.06 1425.52 L3711.01 1425.52 L3711.01 1424.41 L3727.84 1424.41 L3727.84 1424.28 L3744.68 1424.28 L3744.68 1423.66 L3761.51 1423.66 L3761.51 1424.65 L3778.34 1424.65 L3778.34 1424.65 L3795.16 1424.65 L3795.16 1425.89" stroke-linejoin="round" style="fill:none;stroke:#000000;stroke-width:8.64"/>
	<defs>
		<path id="path_XiWwsvvp" d="M778.88 1464.87 L778.88 1464.87 L795.71 1464.87 L795.71 1464.87 L812.54 1464.87 L812.54 1465.00 L829.37 1465.00 L829.37 1465.12 L846.20 1465.12 L846.20 1465.25 L863.16 1465.25 L863.16 1465.49 L879.99 1465.49 L879.99 1465.62 L896.82 1465.62 L896.82 1465.62 L913.65 1465.62 L913.65 1465.62 L930.48 1465.62 L930.48 1465.74 L947.31 1465.74 L947.31 1465.99 L964.26 1465.99 L964.26 1465.74 L981.09 1465.74 L981.09 1465.86 L997.92 1465.86 L997.92 1465.99 L1014.75 1465.99 L1014.75 1466.11 L1031.58 1466.11 L1031.58 1466.36 L1048.53 1466.36 L1048.53 1466.48 L1065.36 1466.48 L1065.36 1466.48 L1082.19 1466.48 L1082.19 1466.85 L1099.02 1466.85 L1099.02 1466.85 L1115.85 1466.85 L1115.85 1467.60 L1132.68 1467.60 L1132.68 1467.23 L1149.64 1467.23 L1149.64 1468.22 L1166.47 1468.22 L1166.47 1468.46 L1183.30 1468.46 L1183.30 1469.08 L1200.13 1469.08 L1200.13 1469.95 L1216.96 1469.95 L1216.96 1469.95 L1233.79 1469.95 L1233.79 1470.32 L1250.74 1470.32 L1250.74 1470.32 L1267.57 1470.32 L1267.57 1470.69 L1284.40 1470.69 L1284.40 1472.05 L1301.23 1472.05 L1301.23 1472.79 L1318.06 1472.79 L1318.06 1472.55 L1334.89 1472.55 L1334.89 1473.54 L1351.85 1473.54 L1351.85 1473.29 L1368.67 1473.29 L1368.67 1473.78 L1385.51 1473.78 L1385.51 1474.77 L1402.34 1474.77 L1402.34 1475.64 L1419.16 1475.64 L1419.16 1476.38 L1436.12 1476.38 L1436.12 1477.13 L1452.95 1477.13 L1452.95 1477.25 L1469.78 1477.25 L1469.78 1477.62 L1486.61 1477.62 L1486.61 1478.12 L1503.44 1478.12 L1503.44 1479.23 L1520.27 1479.23 L1520.27 1479.97 L1537.22 1479.97 L1537.22 1479.60 L1554.05 1479.60 L1554.05 1481.21 L1570.88 1481.21 L1570.88 1481.83 L1587.71 1481.83 L1587.71 1482.57 L1604.54 1482.57 L1604.54 1482.20 L1621.37 1482.20 L1621.37 1482.70 L1638.33 1482.70 L1638.33 1483.44 L1655.16 1483.44 L1655.16 1484.06 L1671.99 1484.06 L1671.99 1484.55 L1688.82 1484.55 L1688.82 1486.28 L1705.65 1486.28 L1705.65 1486.41 L1722.48 1486.41 L1722.48 1487.65 L1739.43 1487.65 L1739.43 1489.87 L1756.26 1489.87 L1756.26 1491.73 L1773.09 1491.73 L1773.09 1492.72 L1789.92 1492.72 L1789.92 1492.72 L1806.75 1492.72 L1806.75 1493.21 L1823.70 1493.21 L1823.70 1494.08 L1840.53 1494.08 L1840.53 1495.57 L1857.36 1495.57 L1857.36 1497.17 L1874.19 1497.17 L1874.19 1499.65 L1891.02 1499.65 L1891.02 1501.26 L1907.85 1501.26 L1907.85 1501.51 L1924.81 1501.51 L1924.81 1501.88 L1941.64 1501.88 L1941.64 1502.12 L1958.47 1502.12 L1958.47 1502.37 L1975.30 1502.37 L1975.30 1503.61 L1992.13 1503.61 L1992.13 1505.96 L2008.96 1505.96 L2008.96 1506.21 L2025.91 1506.21 L2025.91 1507.20 L2042.74 1507.20 L2042.74 1507.82 L2059.57 1507.82 L2059.57 1509.67 L2076.40 1509.67 L2076.40 1510.54 L2093.23 1510.54 L2093.23 1511.78 L2110.18 1511.78 L2110.18 1512.64 L2127.01 1512.64 L2127.01 1515.24 L2143.84 1515.24 L2143.84 1517.84 L2160.68 1517.84 L2160.68 1518.58 L2177.51 1518.58 L2177.51 1518.46 L2194.34 1518.46 L2194.34 1520.69 L2211.29 1520.69 L2211.29 1522.67 L2228.12 1522.67 L2228.12 1524.03 L2244.95 1524.03 L2244.95 1527.12 L2261.78 1527.12 L2261.78 1528.48 L2278.61 1528.48 L2278.61 1530.34 L2295.44 1530.34 L2295.44 1531.95 L2312.39 1531.95 L2312.39 1533.06 L2329.22 1533.06 L2329.22 1536.03 L2346.05 1536.03 L2346.05 1536.65 L2362.88 1536.65 L2362.88 1538.63 L2379.71 1538.63 L2379.71 1539.37 L2396.54 1539.37 L2396.54 1541.85 L2413.50 1541.85 L2413.50 1544.20 L2430.33 1544.20 L2430.33 1545.31 L2447.16 1545.31 L2447.16 1546.30 L2463.99 1546.30 L2463.99 1549.27 L2480.82 1549.27 L2480.82 1550.51 L2497.77 1550.51 L2497.77 1551.63 L2514.60 1551.63 L2514.60 1554.97 L2531.43 1554.97 L2531.43 1555.59 L2548.26 1555.59 L2548.26 1558.18 L2565.09 1558.18 L2565.09 1561.16 L2581.92 1561.16 L2581.92 1562.02 L2598.87 1562.02 L2598.87 1563.51 L2615.70 1563.51 L2615.70 1564.62 L2632.53 1564.62 L2632.53 1565.73 L2649.36 1565.73 L2649.36 1567.59 L2666.19 1567.59 L2666.19 1569.69 L2683.02 1569.69 L2683.02 1572.05 L2699.98 1572.05 L2699.98 1573.28 L2716.81 1573.28 L2716.81 1573.78 L2733.64 1573.78 L2733.64 1575.63 L2750.47 1575.63 L2750.47 1577.37 L2767.30 1577.37 L2767.30 1577.12 L2784.25 1577.12 L2784.25 1578.60 L2801.08 1578.60 L2801.08 1578.48 L2817.91 1578.48 L2817.91 1578.85 L2834.74 1578.85 L2834.74 1580.09 L2851.57 1580.09 L2851.57 1579.22 L2868.40 1579.22 L2868.40 1580.71 L2885.36 1580.71 L2885.36 1583.06 L2902.18 1583.06 L2902.18 1583.18 L2919.01 1583.18 L2919.01 1584.30 L2935.84 1584.30 L2935.84 1586.77 L2952.68 1586.77 L2952.68 1589.00 L2969.51 1589.00 L2969.51 1591.23 L2986.46 1591.23 L2986.46 1594.07 L3003.29 1594.07 L3003.29 1595.31 L3020.12 1595.31 L3020.12 1596.67 L3036.95 1596.67 L3036.95 1596.80 L3053.78 1596.80 L3053.78 1598.53 L3070.61 1598.53 L3070.61 1599.52 L3087.56 1599.52 L3087.56 1601.50 L3104.39 1601.50 L3104.39 1602.12 L3121.22 1602.12 L3121.22 1602.86 L3138.05 1602.86 L3138.05 1604.84 L3154.88 1604.84 L3154.88 1604.84 L3171.84 1604.84 L3171.84 1606.20 L3188.67 1606.20 L3188.67 1606.45 L3205.50 1606.45 L3205.50 1606.33 L3222.33 1606.33 L3222.33 1607.69 L3239.16 1607.69 L3239.16 1608.68 L3255.99 1608.68 L3255.99 1608.68 L3272.94 1608.68 L3272.94 1608.68 L3289.77 1608.68 L3289.77 1609.05 L3306.60 1609.05 L3306.60 1609.17 L3323.43 1609.17 L3323.43 1609.67 L3340.26 1609.67 L3340.26 1610.53 L3357.09 1610.53 L3357.09 1611.65 L3374.04 1611.65 L3374.04 1612.14 L3390.87 1612.14 L3390.87 1613.13 L3407.70 1613.13 L3407.70 1613.87 L3424.53 1613.87 L3424.53 1616.72 L3441.36 1616.72 L3441.36 1615.73 L3458.19 1615.73 L3458.19 1617.59 L3475.15 1617.59 L3475.15 1617.71 L3491.98 1617.71 L3491.98 1617.34 L3508.81 1617.34 L3508.81 1618.95 L3525.64 1618.95 L3525.64 1620.19 L3542.47 1620.19 L3542.47 1622.78 L3559.42 1622.78 L3559.42 1622.54 L3576.25 1622.54 L3576.25 1624.89 L3593.08 1624.89 L3593.08 1625.88 L3609.91 1625.88 L3609.91 1628.35 L3626.74 1628.35 L3626.74 1628.72 L3643.57 1628.72 L3643.57 1628.48 L3660.53 1628.48 L3660.53 1627.86 L3677.36 1627.86 L3677.36 1627.61 L3694.18 1627.61 L3694.18 1626.37 L3711.01 1626.37 L3711.01 1628.23 L3727.84 1628.23 L3727.84 1629.22 L3744.68 1629.22 L3744.68 1626.99 L3761.63 1626.99 L3761.63 1628.11 L3778.46 1628.11 L3778.46 1628.48 L3795.29 1628.48 L3795.29 1631.94 L3795.29 1148.31 L3795.29 1147.45 L3778.46 1147.45 L3778.46 1149.80 L3761.63 1149.80 L3761.63 1151.53 L3744.68 1151.53 L3744.68 1156.23 L3727.84 1156.23 L3727.84 1157.84 L3711.01 1157.84 L3711.01 1158.95 L3694.18 1158.95 L3694.18 1163.04 L3677.36 1163.04 L3677.36 1166.01 L3660.53 1166.01 L3660.53 1169.47 L3643.57 1169.47 L3643.57 1172.57 L3626.74 1172.57 L3626.74 1175.04 L3609.91 1175.04 L3609.91 1175.54 L3593.08 1175.54 L3593.08 1177.52 L3576.25 1177.52 L3576.25 1178.14 L3559.42 1178.14 L3559.42 1181.23 L3542.47 1181.23 L3542.47 1181.60 L3525.64 1181.60 L3525.64 1183.33 L3508.81 1183.33 L3508.81 1185.07 L3491.98 1185.07 L3491.98 1188.53 L3475.15 1188.53 L3475.15 1191.38 L3458.19 1191.38 L3458.19 1192.24 L3441.36 1192.24 L3441.36 1196.45 L3424.53 1196.45 L3424.53 1196.45 L3407.70 1196.45 L3407.70 1198.93 L3390.87 1198.93 L3390.87 1201.16 L3374.04 1201.16 L3374.04 1203.88 L3357.09 1203.88 L3357.09 1205.86 L3340.26 1205.86 L3340.26 1208.33 L3323.43 1208.33 L3323.43 1211.06 L3306.60 1211.06 L3306.60 1214.15 L3289.77 1214.15 L3289.77 1216.75 L3272.94 1216.75 L3272.94 1219.97 L3255.99 1219.97 L3255.99 1223.18 L3239.16 1223.18 L3239.16 1225.66 L3222.33 1225.66 L3222.33 1227.27 L3205.50 1227.27 L3205.50 1230.61 L3188.67 1230.61 L3188.67 1233.70 L3171.84 1233.70 L3171.84 1235.56 L3154.88 1235.56 L3154.88 1238.78 L3138.05 1238.78 L3138.05 1240.01 L3121.22 1240.01 L3121.22 1242.61 L3104.39 1242.61 L3104.39 1245.21 L3087.56 1245.21 L3087.56 1246.57 L3070.61 1246.57 L3070.61 1248.92 L3053.78 1248.92 L3053.78 1250.90 L3036.95 1250.90 L3036.95 1254.37 L3020.12 1254.37 L3020.12 1256.35 L3003.29 1256.35 L3003.29 1258.70 L2986.46 1258.70 L2986.46 1259.57 L2969.51 1259.57 L2969.51 1260.80 L2952.68 1260.80 L2952.68 1261.67 L2935.84 1261.67 L2935.84 1262.66 L2919.01 1262.66 L2919.01 1265.38 L2902.18 1265.38 L2902.18 1268.72 L2885.36 1268.72 L2885.36 1269.96 L2868.40 1269.96 L2868.40 1272.07 L2851.57 1272.07 L2851.57 1276.77 L2834.74 1276.77 L2834.74 1279.24 L2817.91 1279.24 L2817.91 1282.71 L2801.08 1282.71 L2801.08 1286.42 L2784.25 1286.42 L2784.25 1288.77 L2767.30 1288.77 L2767.30 1292.73 L2750.47 1292.73 L2750.47 1294.84 L2733.64 1294.84 L2733.64 1296.57 L2716.81 1296.57 L2716.81 1300.16 L2699.98 1300.16 L2699.98 1302.76 L2683.02 1302.76 L2683.02 1304.24 L2666.19 1304.24 L2666.19 1305.85 L2649.36 1305.85 L2649.36 1307.95 L2632.53 1307.95 L2632.53 1310.68 L2615.70 1310.68 L2615.70 1313.15 L2598.87 1313.15 L2598.87 1315.38 L2581.92 1315.38 L2581.92 1318.35 L2565.09 1318.35 L2565.09 1319.09 L2548.26 1319.09 L2548.26 1320.45 L2531.43 1320.45 L2531.43 1323.92 L2514.60 1323.92 L2514.60 1324.66 L2497.77 1324.66 L2497.77 1327.63 L2480.82 1327.63 L2480.82 1330.23 L2463.99 1330.23 L2463.99 1331.22 L2447.16 1331.22 L2447.16 1334.19 L2430.33 1334.19 L2430.33 1336.91 L2413.50 1336.91 L2413.50 1338.52 L2396.54 1338.52 L2396.54 1339.88 L2379.71 1339.88 L2379.71 1343.10 L2362.88 1343.10 L2362.88 1344.96 L2346.05 1344.96 L2346.05 1348.30 L2329.22 1348.30 L2329.22 1349.41 L2312.39 1349.41 L2312.39 1352.01 L2295.44 1352.01 L2295.44 1354.49 L2278.61 1354.49 L2278.61 1356.84 L2261.78 1356.84 L2261.78 1359.31 L2244.95 1359.31 L2244.95 1360.06 L2228.12 1360.06 L2228.12 1362.53 L2211.29 1362.53 L2211.29 1364.51 L2194.34 1364.51 L2194.34 1366.12 L2177.51 1366.12 L2177.51 1370.20 L2160.68 1370.20 L2160.68 1373.17 L2143.84 1373.17 L2143.84 1374.41 L2127.01 1374.41 L2127.01 1375.65 L2110.18 1375.65 L2110.18 1378.49 L2093.23 1378.49 L2093.23 1380.85 L2076.40 1380.85 L2076.40 1383.32 L2059.57 1383.32 L2059.57 1385.42 L2042.74 1385.42 L2042.74 1388.52 L2025.91 1388.52 L2025.91 1390.99 L2008.96 1390.99 L2008.96 1394.21 L1992.13 1394.21 L1992.13 1395.32 L1975.30 1395.32 L1975.30 1397.68 L1958.47 1397.68 L1958.47 1400.65 L1941.64 1400.65 L1941.64 1403.74 L1924.81 1403.74 L1924.81 1406.59 L1907.85 1406.59 L1907.85 1409.68 L1891.02 1409.68 L1891.02 1411.17 L1874.19 1411.17 L1874.19 1411.78 L1857.36 1411.78 L1857.36 1413.27 L1840.53 1413.27 L1840.53 1414.75 L1823.70 1414.75 L1823.70 1416.98 L1806.75 1416.98 L1806.75 1419.46 L1789.92 1419.46 L1789.92 1422.30 L1773.09 1422.30 L1773.09 1424.04 L1756.26 1424.04 L1756.26 1425.03 L1739.43 1425.03 L1739.43 1425.52 L1722.48 1425.52 L1722.48 1426.63 L1705.65 1426.63 L1705.65 1429.11 L1688.82 1429.11 L1688.82 1429.98 L1671.99 1429.98 L1671.99 1431.83 L1655.16 1431.83 L1655.16 1433.69 L1638.33 1433.69 L1638.33 1435.17 L1621.37 1435.17 L1621.37 1436.91 L1604.54 1436.91 L1604.54 1439.63 L1587.71 1439.63 L1587.71 1441.11 L1570.88 1441.11 L1570.88 1442.48 L1554.05 1442.48 L1554.05 1442.97 L1537.22 1442.97 L1537.22 1445.20 L1520.27 1445.20 L1520.27 1446.44 L1503.44 1446.44 L1503.44 1447.30 L1486.61 1447.30 L1486.61 1448.54 L1469.78 1448.54 L1469.78 1449.90 L1452.95 1449.90 L1452.95 1451.39 L1436.12 1451.39 L1436.12 1452.25 L1419.16 1452.25 L1419.16 1452.87 L1402.34 1452.87 L1402.34 1453.49 L1385.51 1453.49 L1385.51 1453.86 L1368.67 1453.86 L1368.67 1454.73 L1351.85 1454.73 L1351.85 1456.21 L1334.89 1456.21 L1334.89 1456.46 L1318.06 1456.46 L1318.06 1457.82 L1301.23 1457.82 L1301.23 1458.19 L1284.40 1458.19 L1284.40 1457.70 L1267.57 1457.70 L1267.57 1458.44 L1250.74 1458.44 L1250.74 1459.18 L1233.79 1459.18 L1233.79 1459.68 L1216.96 1459.68 L1216.96 1460.54 L1200.13 1460.54 L1200.13 1460.54 L1183.30 1460.54 L1183.30 1460.54 L1166.47 1460.54 L1166.47 1460.91 L1149.64 1460.91 L1149.64 1460.54 L1132.68 1460.54 L1132.68 1461.53 L1115.85 1461.53 L1115.85 1461.41 L1099.02 1461.41 L1099.02 1461.66 L1082.19 1461.66 L1082.19 1461.78 L1065.36 1461.78 L1065.36 1462.15 L1048.53 1462.15 L1048.53 1462.40 L1031.58 1462.40 L1031.58 1462.40 L1014.75 1462.40 L1014.75 1462.77 L997.92 1462.77 L997.92 1462.89 L981.09 1462.89 L981.09 1463.14 L964.26 1463.14 L964.26 1463.64 L947.31 1463.64 L947.31 1463.64 L930.48 1463.64 L930.48 1463.64 L913.65 1463.64 L913.65 1463.76 L896.82 1463.76 L896.82 1464.01 L879.99 1464.01 L879.99 1464.13 L863.16 1464.13 L863.16 1464.01 L846.20 1464.01 L846.20 1464.01 L829.37 1464.01 L829.37 1464.13 L812.54 1464.13 L812.54 1464.01 L795.71 1464.01 L795.71 1464.13 L778.88 1464.13 L778.88 1464.87 Z" stroke-linejoin="round"/>
	</defs>
	<defs>
		<clipPath id="clipPath_PxNyWtKJ">
			<use xlink:href="#path_XiWwsvvp"/>
		</clipPath>
	</defs>
	<use xlink:href="#path_XiWwsvvp" style="stroke:none;fill:#999999;fill-opacity:0.35"/>
	<use xlink:href="#path_XiWwsvvp" style="fill:none;stroke:#808080;stroke-opacity:0.35;stroke-width:17.28" clip-path="url(#clipPath_PxNyWtKJ)"/>
	<path d=" M778.76 1464.63 L795.59 1464.63 L795.59 1464.50 L812.54 1464.50 L812.54 1464.63 L829.37 1464.63 L829.37 1464.63 L846.20 1464.63 L846.20 1464.63 L863.03 1464.63 L863.03 1464.87 L879.86 1464.87 L879.86 1464.87 L896.69 1464.87 L896.69 1464.75 L913.65 1464.75 L913.65 1464.75 L930.48 1464.75 L930.48 1464.75 L947.31 1464.75 L947.31 1464.87 L964.14 1464.87 L964.14 1464.50 L980.97 1464.50 L980.97 1464.38 L997.80 1464.38 L997.80 1464.50 L1014.75 1464.50 L1014.75 1464.38 L1031.58 1464.38 L1031.58 1464.38 L1048.41 1464.38 L1048.41 1464.38 L1065.24 1464.38 L1065.24 1464.13 L1082.07 1464.13 L1082.07 1464.38 L1099.02 1464.38 L1099.02 1464.26 L1115.85 1464.26 L1115.85 1464.63 L1132.68 1464.63 L1132.68 1464.01 L1149.51 1464.01 L1149.51 1464.63 L1166.34 1464.63 L1166.34 1464.50 L1183.17 1464.50 L1183.17 1464.87 L1200.13 1464.87 L1200.13 1465.37 L1216.96 1465.37 L1216.96 1464.87 L1233.79 1464.87 L1233.79 1464.75 L1250.62 1464.75 L1250.62 1464.38 L1267.45 1464.38 L1267.45 1464.26 L1284.28 1464.26 L1284.28 1465.25 L1301.23 1465.25 L1301.23 1465.37 L1318.06 1465.37 L1318.06 1464.63 L1334.89 1464.63 L1334.89 1465.00 L1351.72 1465.00 L1351.72 1464.01 L1368.55 1464.01 L1368.55 1463.88 L1385.51 1463.88 L1385.51 1464.13 L1402.34 1464.13 L1402.34 1464.38 L1419.16 1464.38 L1419.16 1464.38 L1435.99 1464.38 L1435.99 1464.38 L1452.83 1464.38 L1452.83 1463.64 L1469.65 1463.64 L1469.65 1463.14 L1486.61 1463.14 L1486.61 1462.77 L1503.44 1462.77 L1503.44 1462.89 L1520.27 1462.89 L1520.27 1462.65 L1537.10 1462.65 L1537.10 1461.29 L1553.93 1461.29 L1553.93 1461.90 L1570.76 1461.90 L1570.76 1461.53 L1587.71 1461.53 L1587.71 1461.16 L1604.54 1461.16 L1604.54 1459.68 L1621.37 1459.68 L1621.37 1458.93 L1638.20 1458.93 L1638.20 1458.69 L1655.03 1458.69 L1655.03 1458.07 L1671.86 1458.07 L1671.86 1457.33 L1688.82 1457.33 L1688.82 1457.70 L1705.65 1457.70 L1705.65 1456.58 L1722.48 1456.58 L1722.48 1456.58 L1739.31 1456.58 L1739.31 1457.45 L1756.14 1457.45 L1756.14 1457.94 L1773.09 1457.94 L1773.09 1457.57 L1789.92 1457.57 L1789.92 1456.09 L1806.75 1456.09 L1806.75 1455.10 L1823.58 1455.10 L1823.58 1454.48 L1840.41 1454.48 L1840.41 1454.48 L1857.24 1454.48 L1857.24 1454.60 L1874.19 1454.60 L1874.19 1455.47 L1891.02 1455.47 L1891.02 1455.47 L1907.85 1455.47 L1907.85 1454.11 L1924.68 1454.11 L1924.68 1452.87 L1941.51 1452.87 L1941.51 1451.51 L1958.34 1451.51 L1958.34 1450.02 L1975.30 1450.02 L1975.30 1449.53 L1992.13 1449.53 L1992.13 1450.15 L2008.96 1450.15 L2008.96 1448.66 L2025.79 1448.66 L2025.79 1447.92 L2042.62 1447.92 L2042.62 1446.68 L2059.45 1446.68 L2059.45 1446.56 L2076.40 1446.56 L2076.40 1445.69 L2093.23 1445.69 L2093.23 1445.20 L2110.06 1445.20 L2110.06 1444.21 L2126.89 1444.21 L2126.89 1444.83 L2143.72 1444.83 L2143.72 1445.57 L2160.68 1445.57 L2160.68 1444.46 L2177.51 1444.46 L2177.51 1442.35 L2194.34 1442.35 L2194.34 1442.60 L2211.16 1442.60 L2211.16 1442.60 L2227.99 1442.60 L2227.99 1442.10 L2244.82 1442.10 L2244.82 1443.22 L2261.78 1443.22 L2261.78 1442.72 L2278.61 1442.72 L2278.61 1442.48 L2295.44 1442.48 L2295.44 1441.98 L2312.27 1441.98 L2312.27 1441.24 L2329.10 1441.24 L2329.10 1442.23 L2345.93 1442.23 L2345.93 1440.87 L2362.88 1440.87 L2362.88 1440.87 L2379.71 1440.87 L2379.71 1439.75 L2396.54 1439.75 L2396.54 1440.25 L2413.37 1440.25 L2413.37 1440.62 L2430.20 1440.62 L2430.20 1439.88 L2447.16 1439.88 L2447.16 1438.89 L2463.99 1438.89 L2463.99 1439.75 L2480.82 1439.75 L2480.82 1439.13 L2497.65 1439.13 L2497.65 1438.14 L2514.48 1438.14 L2514.48 1439.50 L2531.31 1439.50 L2531.31 1438.02 L2548.26 1438.02 L2548.26 1438.64 L2565.09 1438.64 L2565.09 1439.88 L2581.92 1439.88 L2581.92 1438.64 L2598.75 1438.64 L2598.75 1438.39 L2615.58 1438.39 L2615.58 1437.65 L2632.41 1437.65 L2632.41 1436.91 L2649.36 1436.91 L2649.36 1436.78 L2666.19 1436.78 L2666.19 1436.91 L2683.02 1436.91 L2683.02 1437.40 L2699.85 1437.40 L2699.85 1436.78 L2716.68 1436.78 L2716.68 1435.17 L2733.51 1435.17 L2733.51 1435.30 L2750.47 1435.30 L2750.47 1435.17 L2767.30 1435.17 L2767.30 1432.95 L2784.13 1432.95 L2784.13 1432.45 L2800.96 1432.45 L2800.96 1430.59 L2817.79 1430.59 L2817.79 1429.11 L2834.74 1429.11 L2834.74 1428.49 L2851.57 1428.49 L2851.57 1425.64 L2868.40 1425.64 L2868.40 1425.40 L2885.23 1425.40 L2885.23 1425.89 L2902.06 1425.89 L2902.06 1424.28 L2918.89 1424.28 L2918.89 1423.42 L2935.84 1423.42 L2935.84 1424.16 L2952.68 1424.16 L2952.68 1424.90 L2969.51 1424.90 L2969.51 1425.40 L2986.34 1425.40 L2986.34 1426.39 L3003.16 1426.39 L3003.16 1425.77 L3019.99 1425.77 L3019.99 1425.52 L3036.95 1425.52 L3036.95 1423.91 L3053.78 1423.91 L3053.78 1423.66 L3070.61 1423.66 L3070.61 1423.05 L3087.44 1423.05 L3087.44 1423.29 L3104.27 1423.29 L3104.27 1422.30 L3121.10 1422.30 L3121.10 1421.44 L3138.05 1421.44 L3138.05 1421.81 L3154.88 1421.81 L3154.88 1420.20 L3171.71 1420.20 L3171.71 1419.83 L3188.54 1419.83 L3188.54 1418.47 L3205.37 1418.47 L3205.37 1416.73 L3222.33 1416.73 L3222.33 1416.61 L3239.16 1416.61 L3239.16 1415.87 L3255.99 1415.87 L3255.99 1414.26 L3272.82 1414.26 L3272.82 1412.65 L3289.65 1412.65 L3289.65 1411.54 L3306.48 1411.54 L3306.48 1410.05 L3323.43 1410.05 L3323.43 1408.94 L3340.26 1408.94 L3340.26 1408.07 L3357.09 1408.07 L3357.09 1407.70 L3373.92 1407.70 L3373.92 1406.59 L3390.75 1406.59 L3390.75 1405.97 L3407.58 1405.97 L3407.58 1405.10 L3424.53 1405.10 L3424.53 1406.59 L3441.36 1406.59 L3441.36 1403.86 L3458.19 1403.86 L3458.19 1404.36 L3475.02 1404.36 L3475.02 1403.00 L3491.85 1403.00 L3491.85 1401.14 L3508.81 1401.14 L3508.81 1401.02 L3525.64 1401.02 L3525.64 1400.77 L3542.47 1400.77 L3542.47 1401.88 L3559.30 1401.88 L3559.30 1400.15 L3576.13 1400.15 L3576.13 1401.02 L3592.96 1401.02 L3592.96 1400.52 L3609.91 1400.52 L3609.91 1401.51 L3626.74 1401.51 L3626.74 1400.52 L3643.57 1400.52 L3643.57 1398.79 L3660.40 1398.79 L3660.40 1396.81 L3677.23 1396.81 L3677.23 1395.08 L3694.06 1395.08 L3694.06 1392.48 L3711.01 1392.48 L3711.01 1392.85 L3727.84 1392.85 L3727.84 1392.48 L3744.68 1392.48 L3744.68 1389.01 L3761.51 1389.01 L3761.51 1388.64 L3778.34 1388.64 L3778.34 1387.78 L3795.16 1387.78 L3795.16 1389.88" stroke-linejoin="round" style="fill:none;stroke:#808080;stroke-width:8.64"/>
	<line x1="559.10" y1="2509.23" x2="559.10" y2="419.90" style="stroke:#000000;stroke-width:5.76"/>
	<line x1="559.10" y1="2445.87" x2="519.13" y2="2445.87" style="stroke:#000000;stroke-width:5.76"/>
	<text x="499.08" y="2480.90" style="font-family:'Helvetica';font-size:99.99px;fill:#000000" text-anchor="end">-0.25</text>
	<line x1="559.10" y1="2249.60" x2="519.13" y2="2249.60" style="stroke:#000000;stroke-width:5.76"/>
	<text x="499.08" y="2284.63" style="font-family:'Helvetica';font-size:99.99px;fill:#000000" text-anchor="end">-0.20</text>
	<line x1="559.10" y1="2053.32" x2="519.13" y2="2053.32" style="stroke:#000000;stroke-width:5.76"/>
	<text x="499.08" y="2088.35" style="font-family:'Helvetica';font-size:99.99px;fill:#000000" text-anchor="end">-0.15</text>
	<line x1="559.10" y1="1857.05" x2="519.13" y2="1857.05" style="stroke:#000000;stroke-width:5.76"/>
	<text x="499.08" y="1892.08" style="font-family:'Helvetica';font-size:99.99px;fill:#000000" text-anchor="end">-0.10</text>
	<line x1="559.10" y1="1660.78" x2="519.13" y2="1660.78" style="stroke:#000000;stroke-width:5.76"/>
	<text x="499.08" y="1695.81" style="font-family:'Helvetica';font-size:99.99px;fill:#000000" text-anchor="end">-0.05</text>
	<line x1="559.10" y1="1464.63" x2="519.13" y2="1464.63" style="stroke:#000000;stroke-width:5.76"/>
	<text x="499.08" y="1499.66" style="font-family:'Helvetica';font-size:99.99px;fill:#000000" text-anchor="end">0.00</text>
	<line x1="559.10" y1="1268.35" x2="519.13" y2="1268.35" style="stroke:#000000;stroke-width:5.76"/>
	<text x="499.08" y="1303.38" style="font-family:'Helvetica';font-size:99.99px;fill:#000000" text-anchor="end">0.05</text>
	<line x1="559.10" y1="1072.08" x2="519.13" y2="1072.08" style="stroke:#000000;stroke-width:5.76"/>
	<text x="499.08" y="1107.11" style="font-family:'Helvetica';font-size:99.99px;fill:#000000" text-anchor="end">0.10</text>
	<line x1="559.10" y1="875.81" x2="519.13" y2="875.81" style="stroke:#000000;stroke-width:5.76"/>
	<text x="499.08" y="910.83" style="font-family:'Helvetica';font-size:99.99px;fill:#000000" text-anchor="end">0.15</text>
	<line x1="559.10" y1="679.53" x2="519.13" y2="679.53" style="stroke:#000000;stroke-width:5.76"/>
	<text x="499.08" y="714.56" style="font-family:'Helvetica';font-size:99.99px;fill:#000000" text-anchor="end">0.20</text>
	<line x1="559.10" y1="483.26" x2="519.13" y2="483.26" style="stroke:#000000;stroke-width:5.76"/>
	<text x="499.08" y="518.29" style="font-family:'Helvetica';font-size:99.99px;fill:#000000" text-anchor="end">0.25</text>
	<text x="190.71" y="1464.63" style="font-family:'Helvetica';font-size:99.99px;fill:#000000" transform="rotate(-90 190.71,1464.63)" text-anchor="middle">Difference in Probabilities</text>
	<line x1="559.10" y1="2509.23" x2="3859.02" y2="2509.23" style="stroke:#000000;stroke-width:5.76"/>
	<line x1="622.46" y1="2509.23" x2="622.46" y2="2549.21" style="stroke:#000000;stroke-width:5.76"/>
	<text x="622.46" y="2625.15" style="font-family:'Helvetica';font-size:79.94px;fill:#000000" text-anchor="middle">0</text>
	<line x1="812.91" y1="2509.23" x2="812.91" y2="2549.21" style="stroke:#000000;stroke-width:5.76"/>
	<text x="812.91" y="2625.15" style="font-family:'Helvetica';font-size:79.94px;fill:#000000" text-anchor="middle">.3</text>
	<line x1="1003.24" y1="2509.23" x2="1003.24" y2="2549.21" style="stroke:#000000;stroke-width:5.76"/>
	<text x="1003.24" y="2625.15" style="font-family:'Helvetica';font-size:79.94px;fill:#000000" text-anchor="middle">.6</text>
	<line x1="1193.69" y1="2509.23" x2="1193.69" y2="2549.21" style="stroke:#000000;stroke-width:5.76"/>
	<text x="1193.69" y="2625.15" style="font-family:'Helvetica';font-size:79.94px;fill:#000000" text-anchor="middle">.9</text>
	<line x1="1384.02" y1="2509.23" x2="1384.02" y2="2549.21" style="stroke:#000000;stroke-width:5.76"/>
	<text x="1384.02" y="2625.15" style="font-family:'Helvetica';font-size:79.94px;fill:#000000" text-anchor="middle">1.2</text>
	<line x1="1574.47" y1="2509.23" x2="1574.47" y2="2549.21" style="stroke:#000000;stroke-width:5.76"/>
	<text x="1574.47" y="2625.15" style="font-family:'Helvetica';font-size:79.94px;fill:#000000" text-anchor="middle">1.5</text>
	<line x1="1764.80" y1="2509.23" x2="1764.80" y2="2549.21" style="stroke:#000000;stroke-width:5.76"/>
	<text x="1764.80" y="2625.15" style="font-family:'Helvetica';font-size:79.94px;fill:#000000" text-anchor="middle">1.8</text>
	<line x1="1955.25" y1="2509.23" x2="1955.25" y2="2549.21" style="stroke:#000000;stroke-width:5.76"/>
	<text x="1955.25" y="2625.15" style="font-family:'Helvetica';font-size:79.94px;fill:#000000" text-anchor="middle">2.1</text>
	<line x1="2145.58" y1="2509.23" x2="2145.58" y2="2549.21" style="stroke:#000000;stroke-width:5.76"/>
	<text x="2145.58" y="2625.15" style="font-family:'Helvetica';font-size:79.94px;fill:#000000" text-anchor="middle">2.4</text>
	<line x1="2336.03" y1="2509.23" x2="2336.03" y2="2549.21" style="stroke:#000000;stroke-width:5.76"/>
	<text x="2336.03" y="2625.15" style="font-family:'Helvetica';font-size:79.94px;fill:#000000" text-anchor="middle">2.7</text>
	<line x1="2526.48" y1="2509.23" x2="2526.48" y2="2549.21" style="stroke:#000000;stroke-width:5.76"/>
	<text x="2526.48" y="2625.15" style="font-family:'Helvetica';font-size:79.94px;fill:#000000" text-anchor="middle">3</text>
	<line x1="2716.81" y1="2509.23" x2="2716.81" y2="2549.21" style="stroke:#000000;stroke-width:5.76"/>
	<text x="2716.81" y="2625.15" style="font-family:'Helvetica';font-size:79.94px;fill:#000000" text-anchor="middle">3.3</text>
	<line x1="2907.26" y1="2509.23" x2="2907.26" y2="2549.21" style="stroke:#000000;stroke-width:5.76"/>
	<text x="2907.26" y="2625.15" style="font-family:'Helvetica';font-size:79.94px;fill:#000000" text-anchor="middle">3.6</text>
	<line x1="3097.59" y1="2509.23" x2="3097.59" y2="2549.21" style="stroke:#000000;stroke-width:5.76"/>
	<text x="3097.59" y="2625.15" style="font-family:'Helvetica';font-size:79.94px;fill:#000000" text-anchor="middle">3.9</text>
	<line x1="3288.04" y1="2509.23" x2="3288.04" y2="2549.21" style="stroke:#000000;stroke-width:5.76"/>
	<text x="3288.04" y="2625.15" style="font-family:'Helvetica';font-size:79.94px;fill:#000000" text-anchor="middle">4.2</text>
	<line x1="3478.36" y1="2509.23" x2="3478.36" y2="2549.21" style="stroke:#000000;stroke-width:5.76"/>
	<text x="3478.36" y="2625.15" style="font-family:'Helvetica';font-size:79.94px;fill:#000000" text-anchor="middle">4.5</text>
	<line x1="3668.82" y1="2509.23" x2="3668.82" y2="2549.21" style="stroke:#000000;stroke-width:5.76"/>
	<text x="3668.82" y="2625.15" style="font-family:'Helvetica';font-size:79.94px;fill:#000000" text-anchor="middle">4.8</text>
	<line x1="3859.14" y1="2509.23" x2="3859.14" y2="2549.21" style="stroke:#000000;stroke-width:5.76"/>
	<text x="3859.14" y="2625.15" style="font-family:'Helvetica';font-size:79.94px;fill:#000000" text-anchor="middle">5.1</text>
	<text x="2209.06" y="2729.16" style="font-family:'Helvetica';font-size:99.99px;fill:#000000" text-anchor="middle">Time (years)</text>
	<rect x="2519.18" y="1868.31" width="1305.32" height="606.39" style="fill:#FFFFFF"/>
	<rect x="2522.06" y="1871.19" width="1299.56" height="600.63" style="fill:none;stroke:#000000;stroke-width:5.76"/>
	<rect x="2562.37" y="1911.50" width="374.34" height="99.99" style="fill:#999999;fill-opacity:0.75"/>
	<rect x="2566.69" y="1915.82" width="365.70" height="91.35" style="fill:none;stroke:#808080;stroke-opacity:0.75;stroke-width:8.64"/>
	<line x1="2562.37" y1="2101.46" x2="2936.71" y2="2101.46" style="stroke:#000000;stroke-width:8.64"/>
	<rect x="2562.37" y="2191.43" width="374.34" height="99.99" style="fill:#999999;fill-opacity:0.35"/>
	<rect x="2566.69" y="2195.75" width="365.70" height="91.35" style="fill:none;stroke:#808080;stroke-opacity:0.35;stroke-width:8.64"/>
	<line x1="2562.37" y1="2381.52" x2="2936.71" y2="2381.52" style="stroke:#808080;stroke-width:8.64"/>
	<text x="2996.73" y="1996.53" style="font-family:'Helvetica';font-size:99.99px;fill:#000000">CI95%</text>
	<text x="2996.73" y="2136.49" style="font-family:'Helvetica';font-size:99.99px;fill:#000000">Difference (TC)</text>
	<text x="2996.73" y="2276.46" style="font-family:'Helvetica';font-size:99.99px;fill:#000000">CI95%</text>
	<text x="2996.73" y="2416.55" style="font-family:'Helvetica';font-size:99.99px;fill:#000000">Difference (TNC)</text>
	<text x="2209.06" y="369.63" style="font-family:'Helvetica';font-size:110.01px;fill:#000000" text-anchor="middle">from Second to Third Readmission (RP)</text>
	<text x="2209.06" y="215.98" style="font-family:'Helvetica';font-size:139.96px;fill:#1E2D53" text-anchor="middle">Difference in Probabilities at 3 years</text>
</svg>
