<?xml version="1.0" encoding="UTF-8" standalone="no"?>
<!-- This is a Stata 16.1 generated SVG file (http://www.stata.com) -->

<svg version="1.1" width="5.50in" height="4.00in" viewBox="0 0 3960 2880" xmlns="http://www.w3.org/2000/svg" xmlns:xlink="http://www.w3.org/1999/xlink">
	<desc>Stata Graph - fdiff_prob_4_5_3y_tcnc</desc>
	<rect x="0" y="0" width="3960" height="2880" style="fill:#EAF2F3;stroke:none"/>
	<rect x="0.00" y="0.00" width="3959.88" height="2880.00" style="fill:#FFFFFF"/>
	<rect x="2.88" y="2.88" width="3954.12" height="2874.24" style="fill:none;stroke:#FFFFFF;stroke-width:5.76"/>
	<rect x="388.57" y="419.90" width="3470.45" height="2089.34" style="fill:#FFFFFF"/>
	<rect x="391.45" y="422.78" width="3464.69" height="2083.58" style="fill:none;stroke:#FFFFFF;stroke-width:5.76"/>
	<line x1="388.57" y1="2445.87" x2="3859.02" y2="2445.87" style="stroke:#EAF2F3;stroke-width:8.64"/>
	<line x1="388.57" y1="1994.05" x2="3859.02" y2="1994.05" style="stroke:#EAF2F3;stroke-width:8.64"/>
	<line x1="388.57" y1="1542.22" x2="3859.02" y2="1542.22" style="stroke:#EAF2F3;stroke-width:8.64"/>
	<line x1="388.57" y1="1090.27" x2="3859.02" y2="1090.27" style="stroke:#EAF2F3;stroke-width:8.64"/>
	<line x1="388.57" y1="638.45" x2="3859.02" y2="638.45" style="stroke:#EAF2F3;stroke-width:8.64"/>
	<defs>
		<path id="path_wJLdvceU" d="M616.77 1326.39 L616.77 1326.39 L634.47 1326.39 L634.47 1354.49 L652.29 1354.49 L652.29 1381.34 L669.98 1381.34 L669.98 1411.41 L687.80 1411.41 L687.80 1435.30 L705.50 1435.30 L705.50 1456.83 L723.32 1456.83 L723.32 1481.95 L741.01 1481.95 L741.01 1504.10 L758.84 1504.10 L758.84 1526.50 L776.53 1526.50 L776.53 1543.83 L794.35 1543.83 L794.35 1561.65 L812.05 1561.65 L812.05 1578.36 L829.87 1578.36 L829.87 1595.19 L847.56 1595.19 L847.56 1615.61 L865.26 1615.61 L865.26 1635.28 L883.08 1635.28 L883.08 1653.60 L900.78 1653.60 L900.78 1668.82 L918.60 1668.82 L918.60 1685.40 L936.29 1685.40 L936.29 1703.47 L954.11 1703.47 L954.11 1720.67 L971.81 1720.67 L971.81 1733.54 L989.63 1733.54 L989.63 1747.40 L1007.33 1747.40 L1007.33 1762.63 L1025.14 1762.63 L1025.14 1780.94 L1042.84 1780.94 L1042.84 1796.29 L1060.66 1796.29 L1060.66 1811.01 L1078.36 1811.01 L1078.36 1826.24 L1096.18 1826.24 L1096.18 1842.57 L1113.87 1842.57 L1113.87 1859.90 L1131.69 1859.90 L1131.69 1869.18 L1149.39 1869.18 L1149.39 1878.95 L1167.21 1878.95 L1167.21 1889.10 L1184.91 1889.10 L1184.91 1901.11 L1202.73 1901.11 L1202.73 1910.14 L1220.42 1910.14 L1220.42 1921.40 L1238.24 1921.40 L1238.24 1935.26 L1255.94 1935.26 L1255.94 1945.41 L1273.76 1945.41 L1273.76 1954.32 L1291.45 1954.32 L1291.45 1965.34 L1309.28 1965.34 L1309.28 1975.36 L1326.97 1975.36 L1326.97 1983.03 L1344.79 1983.03 L1344.79 1987.61 L1362.49 1987.61 L1362.49 1997.02 L1380.31 1997.02 L1380.31 2001.35 L1398.00 2001.35 L1398.00 2006.92 L1415.82 2006.92 L1415.82 2015.83 L1433.52 2015.83 L1433.52 2025.73 L1451.34 2025.73 L1451.34 2032.78 L1469.04 2032.78 L1469.04 2041.20 L1486.86 2041.20 L1486.86 2049.49 L1504.55 2049.49 L1504.55 2055.43 L1522.37 2055.43 L1522.37 2058.65 L1540.07 2058.65 L1540.07 2068.79 L1557.89 2068.79 L1557.89 2075.60 L1575.59 2075.60 L1575.59 2084.88 L1593.40 2084.88 L1593.40 2088.97 L1611.10 2088.97 L1611.10 2099.24 L1628.92 2099.24 L1628.92 2104.19 L1646.62 2104.19 L1646.62 2109.88 L1664.44 2109.88 L1664.44 2116.81 L1682.13 2116.81 L1682.13 2121.39 L1699.95 2121.39 L1699.95 2124.73 L1717.65 2124.73 L1717.65 2131.66 L1735.47 2131.66 L1735.47 2135.99 L1753.17 2135.99 L1753.17 2140.08 L1770.99 2140.08 L1770.99 2143.29 L1788.68 2143.29 L1788.68 2144.04 L1806.50 2144.04 L1806.50 2147.38 L1824.20 2147.38 L1824.20 2150.72 L1842.02 2150.72 L1842.02 2155.30 L1859.71 2155.30 L1859.71 2156.16 L1877.54 2156.16 L1877.54 2159.13 L1895.23 2159.13 L1895.23 2160.50 L1913.05 2160.50 L1913.05 2163.84 L1930.75 2163.84 L1930.75 2165.45 L1948.57 2165.45 L1948.57 2169.53 L1966.26 2169.53 L1966.26 2176.09 L1984.08 2176.09 L1984.08 2179.06 L2001.78 2179.06 L2001.78 2183.27 L2019.60 2183.27 L2019.60 2185.00 L2037.30 2185.00 L2037.30 2184.50 L2055.12 2184.50 L2055.12 2188.34 L2072.81 2188.34 L2072.81 2191.43 L2090.51 2191.43 L2090.51 2194.65 L2108.33 2194.65 L2108.33 2195.64 L2126.03 2195.64 L2126.03 2198.86 L2143.84 2198.86 L2143.84 2203.31 L2161.54 2203.31 L2161.54 2206.78 L2179.36 2206.78 L2179.36 2208.64 L2197.06 2208.64 L2197.06 2213.46 L2214.88 2213.46 L2214.88 2214.58 L2232.57 2214.58 L2232.57 2217.30 L2250.39 2217.30 L2250.39 2223.73 L2268.09 2223.73 L2268.09 2226.46 L2285.91 2226.46 L2285.91 2226.70 L2303.61 2226.70 L2303.61 2227.94 L2321.43 2227.94 L2321.43 2233.01 L2339.12 2233.01 L2339.12 2235.74 L2356.94 2235.74 L2356.94 2235.61 L2374.64 2235.61 L2374.64 2239.94 L2392.46 2239.94 L2392.46 2243.91 L2410.16 2243.91 L2410.16 2245.76 L2427.97 2245.76 L2427.97 2245.27 L2445.67 2245.27 L2445.67 2247.49 L2463.49 2247.49 L2463.49 2248.73 L2481.19 2248.73 L2481.19 2247.74 L2499.01 2247.74 L2499.01 2251.45 L2516.70 2251.45 L2516.70 2251.95 L2534.52 2251.95 L2534.52 2253.19 L2552.22 2253.19 L2552.22 2254.67 L2570.04 2254.67 L2570.04 2255.66 L2587.74 2255.66 L2587.74 2257.52 L2605.56 2257.52 L2605.56 2261.73 L2623.25 2261.73 L2623.25 2263.58 L2641.07 2263.58 L2641.07 2263.95 L2658.77 2263.95 L2658.77 2265.93 L2676.59 2265.93 L2676.59 2265.69 L2694.28 2265.69 L2694.28 2269.03 L2712.11 2269.03 L2712.11 2269.40 L2729.80 2269.40 L2729.80 2272.86 L2747.62 2272.86 L2747.62 2273.98 L2765.32 2273.98 L2765.32 2273.98 L2783.14 2273.98 L2783.14 2276.08 L2800.83 2276.08 L2800.83 2274.47 L2818.65 2274.47 L2818.65 2274.22 L2836.35 2274.22 L2836.35 2275.96 L2854.17 2275.96 L2854.17 2272.86 L2871.87 2272.86 L2871.87 2272.62 L2889.69 2272.62 L2889.69 2273.23 L2907.38 2273.23 L2907.38 2272.49 L2925.20 2272.49 L2925.20 2274.84 L2942.90 2274.84 L2942.90 2273.85 L2960.72 2273.85 L2960.72 2275.09 L2978.41 2275.09 L2978.41 2277.57 L2996.24 2277.57 L2996.24 2280.78 L3013.93 2280.78 L3013.93 2282.76 L3031.75 2282.76 L3031.75 2286.97 L3049.45 2286.97 L3049.45 2286.11 L3067.27 2286.11 L3067.27 2284.62 L3084.96 2284.62 L3084.96 2286.60 L3102.78 2286.60 L3102.78 2286.11 L3120.48 2286.11 L3120.48 2284.13 L3138.30 2284.13 L3138.30 2283.63 L3156.00 2283.63 L3156.00 2281.90 L3173.82 2281.90 L3173.82 2281.03 L3191.51 2281.03 L3191.51 2280.78 L3209.33 2280.78 L3209.33 2280.29 L3227.03 2280.29 L3227.03 2280.41 L3244.85 2280.41 L3244.85 2280.41 L3262.55 2280.41 L3262.55 2280.78 L3280.36 2280.78 L3280.36 2280.91 L3298.06 2280.91 L3298.06 2282.76 L3315.76 2282.76 L3315.76 2282.02 L3333.58 2282.02 L3333.58 2283.38 L3351.27 2283.38 L3351.27 2283.26 L3369.09 2283.26 L3369.09 2282.39 L3386.79 2282.39 L3386.79 2284.37 L3404.61 2284.37 L3404.61 2284.00 L3422.31 2284.00 L3422.31 2284.62 L3440.13 2284.62 L3440.13 2284.13 L3457.82 2284.13 L3457.82 2284.13 L3475.64 2284.13 L3475.64 2287.47 L3493.34 2287.47 L3493.34 2287.84 L3511.16 2287.84 L3511.16 2287.34 L3528.86 2287.34 L3528.86 2287.84 L3546.68 2287.84 L3546.68 2286.85 L3564.37 2286.85 L3564.37 2288.58 L3582.19 2288.58 L3582.19 2286.85 L3599.89 2286.85 L3599.89 2285.86 L3617.71 2285.86 L3617.71 2287.34 L3635.40 2287.34 L3635.40 2286.48 L3653.22 2286.48 L3653.22 2286.97 L3670.92 2286.97 L3670.92 2286.11 L3688.74 2286.11 L3688.74 2285.98 L3706.44 2285.98 L3706.44 2286.35 L3724.26 2286.35 L3724.26 2288.09 L3741.95 2288.09 L3741.95 2287.34 L3759.77 2287.34 L3759.77 2287.71 L3777.47 2287.71 L3777.47 2287.10 L3795.29 2287.10 L3795.29 2283.01 L3795.29 490.68 L3795.29 494.89 L3777.47 494.89 L3777.47 495.76 L3759.77 495.76 L3759.77 495.51 L3741.95 495.51 L3741.95 496.38 L3724.26 496.38 L3724.26 494.77 L3706.44 494.77 L3706.44 494.27 L3688.74 494.27 L3688.74 494.52 L3670.92 494.52 L3670.92 495.14 L3653.22 495.14 L3653.22 494.77 L3635.40 494.77 L3635.40 495.51 L3617.71 495.51 L3617.71 494.27 L3599.89 494.27 L3599.89 495.63 L3582.19 495.63 L3582.19 497.86 L3564.37 497.86 L3564.37 496.75 L3546.68 496.75 L3546.68 498.48 L3528.86 498.48 L3528.86 498.23 L3511.16 498.23 L3511.16 498.98 L3493.34 498.98 L3493.34 498.98 L3475.64 498.98 L3475.64 496.25 L3457.82 496.25 L3457.82 497.37 L3440.13 497.37 L3440.13 498.11 L3422.31 498.11 L3422.31 498.23 L3404.61 498.23 L3404.61 499.22 L3386.79 499.22 L3386.79 497.99 L3369.09 497.99 L3369.09 499.47 L3351.27 499.47 L3351.27 500.21 L3333.58 500.21 L3333.58 499.35 L3315.76 499.35 L3315.76 501.08 L3298.06 501.08 L3298.06 499.72 L3280.36 499.72 L3280.36 500.21 L3262.55 500.21 L3262.55 500.71 L3244.85 500.71 L3244.85 501.70 L3227.03 501.70 L3227.03 502.44 L3209.33 502.44 L3209.33 503.80 L3191.51 503.80 L3191.51 505.04 L3173.82 505.04 L3173.82 506.77 L3156.00 506.77 L3156.00 509.37 L3138.30 509.37 L3138.30 510.48 L3120.48 510.48 L3120.48 513.58 L3102.78 513.58 L3102.78 515.19 L3084.96 515.19 L3084.96 514.69 L3067.27 514.69 L3067.27 517.29 L3049.45 517.29 L3049.45 519.39 L3031.75 519.39 L3031.75 516.42 L3013.93 516.42 L3013.93 515.68 L2996.24 515.68 L2996.24 513.70 L2978.41 513.70 L2978.41 512.71 L2960.72 512.71 L2960.72 512.84 L2942.90 512.84 L2942.90 515.19 L2925.20 515.19 L2925.20 513.95 L2907.38 513.95 L2907.38 515.93 L2889.69 515.93 L2889.69 517.04 L2871.87 517.04 L2871.87 519.15 L2854.17 519.15 L2854.17 523.97 L2836.35 523.97 L2836.35 524.35 L2818.65 524.35 L2818.65 525.95 L2800.83 525.95 L2800.83 529.54 L2783.14 529.54 L2783.14 529.42 L2765.32 529.42 L2765.32 531.52 L2747.62 531.52 L2747.62 532.76 L2729.80 532.76 L2729.80 531.40 L2712.11 531.40 L2712.11 533.50 L2694.28 533.50 L2694.28 532.27 L2676.59 532.27 L2676.59 534.86 L2658.77 534.86 L2658.77 534.86 L2641.07 534.86 L2641.07 536.72 L2623.25 536.72 L2623.25 537.22 L2605.56 537.22 L2605.56 534.99 L2587.74 534.99 L2587.74 535.48 L2570.04 535.48 L2570.04 537.09 L2552.22 537.09 L2552.22 538.21 L2534.52 538.21 L2534.52 539.44 L2516.70 539.44 L2516.70 541.42 L2499.01 541.42 L2499.01 540.56 L2481.19 540.56 L2481.19 544.27 L2463.49 544.27 L2463.49 546.00 L2445.67 546.00 L2445.67 546.62 L2427.97 546.62 L2427.97 549.84 L2410.16 549.84 L2410.16 551.20 L2392.46 551.20 L2392.46 550.33 L2374.64 550.33 L2374.64 549.47 L2356.94 549.47 L2356.94 552.93 L2339.12 552.93 L2339.12 553.43 L2321.43 553.43 L2321.43 551.57 L2303.61 551.57 L2303.61 553.55 L2285.91 553.55 L2285.91 556.64 L2268.09 556.64 L2268.09 557.26 L2250.39 557.26 L2250.39 554.54 L2232.57 554.54 L2232.57 555.65 L2214.88 555.65 L2214.88 558.38 L2197.06 558.38 L2197.06 557.51 L2179.36 557.51 L2179.36 559.61 L2161.54 559.61 L2161.54 560.61 L2143.84 560.61 L2143.84 560.73 L2126.03 560.73 L2126.03 562.09 L2108.33 562.09 L2108.33 566.30 L2090.51 566.30 L2090.51 567.91 L2072.81 567.91 L2072.81 569.39 L2055.12 569.39 L2055.12 570.26 L2037.30 570.26 L2037.30 576.07 L2019.60 576.07 L2019.60 579.91 L2001.78 579.91 L2001.78 580.90 L1984.08 580.90 L1984.08 583.25 L1966.26 583.25 L1966.26 582.01 L1948.57 582.01 L1948.57 583.25 L1930.75 583.25 L1930.75 587.83 L1913.05 587.83 L1913.05 589.93 L1895.23 589.93 L1895.23 594.76 L1877.54 594.76 L1877.54 597.98 L1859.71 597.98 L1859.71 603.30 L1842.02 603.30 L1842.02 605.16 L1824.20 605.16 L1824.20 608.00 L1806.50 608.00 L1806.50 611.47 L1788.68 611.47 L1788.68 617.90 L1770.99 617.90 L1770.99 621.49 L1753.17 621.49 L1753.17 623.97 L1735.47 623.97 L1735.47 626.81 L1717.65 626.81 L1717.65 627.80 L1699.95 627.80 L1699.95 631.89 L1682.13 631.89 L1682.13 635.48 L1664.44 635.48 L1664.44 637.21 L1646.62 637.21 L1646.62 639.93 L1628.92 639.93 L1628.92 643.52 L1611.10 643.52 L1611.10 641.66 L1593.40 641.66 L1593.40 646.37 L1575.59 646.37 L1575.59 646.24 L1557.89 646.24 L1557.89 648.84 L1540.07 648.84 L1540.07 648.10 L1522.37 648.10 L1522.37 654.78 L1504.55 654.78 L1504.55 659.11 L1486.86 659.11 L1486.86 661.34 L1469.04 661.34 L1469.04 663.20 L1451.34 663.20 L1451.34 667.16 L1433.52 667.16 L1433.52 668.89 L1415.82 668.89 L1415.82 671.49 L1398.00 671.49 L1398.00 677.55 L1380.31 677.55 L1380.31 684.98 L1362.49 684.98 L1362.49 688.20 L1344.79 688.20 L1344.79 696.49 L1326.97 696.49 L1326.97 701.31 L1309.28 701.31 L1309.28 704.16 L1291.45 704.16 L1291.45 706.88 L1273.76 706.88 L1273.76 712.33 L1255.94 712.33 L1255.94 716.16 L1238.24 716.16 L1238.24 716.78 L1220.42 716.78 L1220.42 720.99 L1202.73 720.99 L1202.73 727.67 L1184.91 727.67 L1184.91 731.88 L1167.21 731.88 L1167.21 738.69 L1149.39 738.69 L1149.39 745.00 L1131.69 745.00 L1131.69 752.79 L1113.87 752.79 L1113.87 753.17 L1096.18 753.17 L1096.18 754.77 L1078.36 754.77 L1078.36 758.24 L1060.66 758.24 L1060.66 763.31 L1042.84 763.31 L1042.84 768.02 L1025.14 768.02 L1025.14 770.24 L1007.33 770.24 L1007.33 776.43 L989.63 776.43 L989.63 784.10 L971.81 784.10 L971.81 793.88 L954.11 793.88 L954.11 799.82 L936.29 799.82 L936.29 806.01 L918.60 806.01 L918.60 812.69 L900.78 812.69 L900.78 822.59 L883.08 822.59 L883.08 830.02 L865.26 830.02 L865.26 837.07 L847.56 837.07 L847.56 844.74 L829.87 844.74 L829.87 856.38 L812.05 856.38 L812.05 868.26 L794.35 868.26 L794.35 880.26 L776.53 880.26 L776.53 893.87 L758.84 893.87 L758.84 903.77 L741.01 903.77 L741.01 914.91 L723.32 914.91 L723.32 923.70 L705.50 923.70 L705.50 936.94 L687.80 936.94 L687.80 949.07 L669.98 949.07 L669.98 956.49 L652.29 956.49 L652.29 968.50 L634.47 968.50 L634.47 980.38 L616.77 980.38 L616.77 1326.39 Z" stroke-linejoin="round"/>
	</defs>
	<defs>
		<clipPath id="clipPath_ZirmGwTX">
			<use xlink:href="#path_wJLdvceU"/>
		</clipPath>
	</defs>
	<use xlink:href="#path_wJLdvceU" style="stroke:none;fill:#999999;fill-opacity:0.65"/>
	<use xlink:href="#path_wJLdvceU" style="fill:none;stroke:#808080;stroke-opacity:0.65;stroke-width:17.28" clip-path="url(#clipPath_ZirmGwTX)"/>
	<defs>
		<path id="path_JFSpzDNX" d="M616.77 1341.74 L616.77 1341.74 L634.47 1341.74 L634.47 1369.96 L652.29 1369.96 L652.29 1403.00 L669.98 1403.00 L669.98 1429.48 L687.80 1429.48 L687.80 1452.38 L705.50 1452.38 L705.50 1478.73 L723.32 1478.73 L723.32 1503.24 L741.01 1503.24 L741.01 1527.00 L758.84 1527.00 L758.84 1543.83 L776.53 1543.83 L776.53 1564.99 L794.35 1564.99 L794.35 1582.94 L812.05 1582.94 L812.05 1600.01 L829.87 1600.01 L829.87 1621.30 L847.56 1621.30 L847.56 1644.19 L865.26 1644.19 L865.26 1660.78 L883.08 1660.78 L883.08 1678.47 L900.78 1678.47 L900.78 1697.04 L918.60 1697.04 L918.60 1715.85 L936.29 1715.85 L936.29 1731.44 L954.11 1731.44 L954.11 1745.80 L971.81 1745.80 L971.81 1761.64 L989.63 1761.64 L989.63 1779.95 L1007.33 1779.95 L1007.33 1796.91 L1025.14 1796.91 L1025.14 1811.76 L1042.84 1811.76 L1042.84 1827.84 L1060.66 1827.84 L1060.66 1844.30 L1078.36 1844.30 L1078.36 1862.12 L1096.18 1862.12 L1096.18 1872.27 L1113.87 1872.27 L1113.87 1883.29 L1131.69 1883.29 L1131.69 1895.29 L1149.39 1895.29 L1149.39 1906.18 L1167.21 1906.18 L1167.21 1915.59 L1184.91 1915.59 L1184.91 1930.31 L1202.73 1930.31 L1202.73 1945.41 L1220.42 1945.41 L1220.42 1954.44 L1238.24 1954.44 L1238.24 1965.34 L1255.94 1965.34 L1255.94 1972.64 L1273.76 1972.64 L1273.76 1983.90 L1291.45 1983.90 L1291.45 1988.72 L1309.28 1988.72 L1309.28 1999.00 L1326.97 1999.00 L1326.97 2003.70 L1344.79 2003.70 L1344.79 2008.90 L1362.49 2008.90 L1362.49 2020.41 L1380.31 2020.41 L1380.31 2031.42 L1398.00 2031.42 L1398.00 2036.99 L1415.82 2036.99 L1415.82 2047.51 L1433.52 2047.51 L1433.52 2056.29 L1451.34 2056.29 L1451.34 2059.39 L1469.04 2059.39 L1469.04 2067.43 L1486.86 2067.43 L1486.86 2073.99 L1504.55 2073.99 L1504.55 2082.65 L1522.37 2082.65 L1522.37 2089.83 L1540.07 2089.83 L1540.07 2098.87 L1557.89 2098.87 L1557.89 2105.55 L1575.59 2105.55 L1575.59 2110.37 L1593.40 2110.37 L1593.40 2118.05 L1611.10 2118.05 L1611.10 2122.75 L1628.92 2122.75 L1628.92 2126.83 L1646.62 2126.83 L1646.62 2133.39 L1664.44 2133.39 L1664.44 2138.47 L1682.13 2138.47 L1682.13 2141.07 L1699.95 2141.07 L1699.95 2144.04 L1717.65 2144.04 L1717.65 2147.01 L1735.47 2147.01 L1735.47 2150.22 L1753.17 2150.22 L1753.17 2155.17 L1770.99 2155.17 L1770.99 2159.13 L1788.68 2159.13 L1788.68 2160.62 L1806.50 2160.62 L1806.50 2161.36 L1824.20 2161.36 L1824.20 2165.07 L1842.02 2165.07 L1842.02 2164.95 L1859.71 2164.95 L1859.71 2170.52 L1877.54 2170.52 L1877.54 2178.69 L1895.23 2178.69 L1895.23 2179.43 L1913.05 2179.43 L1913.05 2186.11 L1930.75 2186.11 L1930.75 2185.62 L1948.57 2185.62 L1948.57 2187.47 L1966.26 2187.47 L1966.26 2192.30 L1984.08 2192.30 L1984.08 2194.28 L2001.78 2194.28 L2001.78 2197.00 L2019.60 2197.00 L2019.60 2198.12 L2037.30 2198.12 L2037.30 2202.70 L2055.12 2202.70 L2055.12 2206.90 L2072.81 2206.90 L2072.81 2209.01 L2090.51 2209.01 L2090.51 2213.83 L2108.33 2213.83 L2108.33 2215.69 L2126.03 2215.69 L2126.03 2218.54 L2143.84 2218.54 L2143.84 2225.09 L2161.54 2225.09 L2161.54 2228.19 L2179.36 2228.19 L2179.36 2228.44 L2197.06 2228.44 L2197.06 2229.67 L2214.88 2229.67 L2214.88 2235.74 L2232.57 2235.74 L2232.57 2235.74 L2250.39 2235.74 L2250.39 2239.08 L2268.09 2239.08 L2268.09 2242.79 L2285.91 2242.79 L2285.91 2247.25 L2303.61 2247.25 L2303.61 2247.12 L2321.43 2247.12 L2321.43 2248.48 L2339.12 2248.48 L2339.12 2249.85 L2356.94 2249.85 L2356.94 2248.98 L2374.64 2248.98 L2374.64 2252.44 L2392.46 2252.44 L2392.46 2253.31 L2410.16 2253.31 L2410.16 2254.67 L2427.97 2254.67 L2427.97 2256.03 L2445.67 2256.03 L2445.67 2257.52 L2463.49 2257.52 L2463.49 2260.24 L2481.19 2260.24 L2481.19 2264.45 L2499.01 2264.45 L2499.01 2265.19 L2516.70 2265.19 L2516.70 2266.80 L2534.52 2266.80 L2534.52 2267.42 L2552.22 2267.42 L2552.22 2268.90 L2570.04 2268.90 L2570.04 2270.88 L2587.74 2270.88 L2587.74 2272.99 L2605.56 2272.99 L2605.56 2274.60 L2623.25 2274.60 L2623.25 2274.47 L2641.07 2274.47 L2641.07 2275.96 L2658.77 2275.96 L2658.77 2275.83 L2676.59 2275.83 L2676.59 2275.21 L2694.28 2275.21 L2694.28 2277.57 L2712.11 2277.57 L2712.11 2273.61 L2729.80 2273.61 L2729.80 2273.48 L2747.62 2273.48 L2747.62 2273.85 L2765.32 2273.85 L2765.32 2272.99 L2783.14 2272.99 L2783.14 2274.60 L2800.83 2274.60 L2800.83 2275.21 L2818.65 2275.21 L2818.65 2278.06 L2836.35 2278.06 L2836.35 2279.92 L2854.17 2279.92 L2854.17 2282.52 L2871.87 2282.52 L2871.87 2286.23 L2889.69 2286.23 L2889.69 2287.22 L2907.38 2287.22 L2907.38 2287.71 L2925.20 2287.71 L2925.20 2287.59 L2942.90 2287.59 L2942.90 2288.09 L2960.72 2288.09 L2960.72 2286.35 L2978.41 2286.35 L2978.41 2284.87 L2996.24 2284.87 L2996.24 2283.51 L3013.93 2283.51 L3013.93 2283.26 L3031.75 2283.26 L3031.75 2282.02 L3049.45 2282.02 L3049.45 2282.76 L3067.27 2282.76 L3067.27 2282.76 L3084.96 2282.76 L3084.96 2281.90 L3102.78 2281.90 L3102.78 2281.40 L3120.48 2281.40 L3120.48 2283.38 L3138.30 2283.38 L3138.30 2283.88 L3156.00 2283.88 L3156.00 2283.51 L3173.82 2283.51 L3173.82 2284.74 L3191.51 2284.74 L3191.51 2284.00 L3209.33 2284.00 L3209.33 2285.12 L3227.03 2285.12 L3227.03 2285.12 L3244.85 2285.12 L3244.85 2286.23 L3262.55 2286.23 L3262.55 2285.36 L3280.36 2285.36 L3280.36 2285.12 L3298.06 2285.12 L3298.06 2289.20 L3315.76 2289.20 L3315.76 2288.83 L3333.58 2288.83 L3333.58 2288.09 L3351.27 2288.09 L3351.27 2288.70 L3369.09 2288.70 L3369.09 2288.70 L3386.79 2288.70 L3386.79 2289.57 L3404.61 2289.57 L3404.61 2287.59 L3422.31 2287.59 L3422.31 2287.71 L3440.13 2287.71 L3440.13 2287.59 L3457.82 2287.59 L3457.82 2286.85 L3475.64 2286.85 L3475.64 2288.58 L3493.34 2288.58 L3493.34 2287.34 L3511.16 2287.34 L3511.16 2287.22 L3528.86 2287.22 L3528.86 2288.83 L3546.68 2288.83 L3546.68 2288.70 L3564.37 2288.70 L3564.37 2288.70 L3582.19 2288.70 L3582.19 2287.96 L3599.89 2287.96 L3599.89 2283.88 L3617.71 2283.88 L3617.71 2283.01 L3635.40 2283.01 L3635.40 2282.15 L3653.22 2282.15 L3653.22 2279.17 L3670.92 2279.17 L3670.92 2278.68 L3688.74 2278.68 L3688.74 2281.16 L3706.44 2281.16 L3706.44 2279.67 L3724.26 2279.67 L3724.26 2278.31 L3741.95 2278.31 L3741.95 2279.55 L3759.77 2279.55 L3759.77 2278.43 L3777.47 2278.43 L3777.47 2277.69 L3795.29 2277.69 L3795.29 2277.19 L3795.29 483.26 L3795.29 483.75 L3777.47 483.75 L3777.47 484.25 L3759.77 484.25 L3759.77 485.36 L3741.95 485.36 L3741.95 484.13 L3724.26 484.13 L3724.26 485.49 L3706.44 485.49 L3706.44 486.60 L3688.74 486.60 L3688.74 483.88 L3670.92 483.88 L3670.92 484.87 L3653.22 484.87 L3653.22 487.71 L3635.40 487.71 L3635.40 488.70 L3617.71 488.70 L3617.71 489.57 L3599.89 489.57 L3599.89 493.53 L3582.19 493.53 L3582.19 494.52 L3564.37 494.52 L3564.37 494.64 L3546.68 494.64 L3546.68 494.52 L3528.86 494.52 L3528.86 492.91 L3511.16 492.91 L3511.16 493.41 L3493.34 493.41 L3493.34 494.77 L3475.64 494.77 L3475.64 493.16 L3457.82 493.16 L3457.82 494.15 L3440.13 494.15 L3440.13 494.52 L3422.31 494.52 L3422.31 494.89 L3404.61 494.89 L3404.61 497.24 L3386.79 497.24 L3386.79 496.87 L3369.09 496.87 L3369.09 497.49 L3351.27 497.49 L3351.27 496.75 L3333.58 496.75 L3333.58 497.74 L3315.76 497.74 L3315.76 498.60 L3298.06 498.60 L3298.06 495.26 L3280.36 495.26 L3280.36 495.76 L3262.55 495.76 L3262.55 497.12 L3244.85 497.12 L3244.85 496.75 L3227.03 496.75 L3227.03 497.61 L3209.33 497.61 L3209.33 496.87 L3191.51 496.87 L3191.51 498.11 L3173.82 498.11 L3173.82 497.74 L3156.00 497.74 L3156.00 498.48 L3138.30 498.48 L3138.30 498.48 L3120.48 498.48 L3120.48 497.24 L3102.78 497.24 L3102.78 498.73 L3084.96 498.73 L3084.96 500.21 L3067.27 500.21 L3067.27 501.08 L3049.45 501.08 L3049.45 501.45 L3031.75 501.45 L3031.75 503.43 L3013.93 503.43 L3013.93 505.16 L2996.24 505.16 L2996.24 507.64 L2978.41 507.64 L2978.41 509.99 L2960.72 509.99 L2960.72 513.33 L2942.90 513.33 L2942.90 514.20 L2925.20 514.20 L2925.20 515.68 L2907.38 515.68 L2907.38 516.92 L2889.69 516.92 L2889.69 517.41 L2871.87 517.41 L2871.87 514.82 L2854.17 514.82 L2854.17 513.83 L2836.35 513.83 L2836.35 513.21 L2818.65 513.21 L2818.65 511.97 L2800.83 511.97 L2800.83 512.96 L2783.14 512.96 L2783.14 512.84 L2765.32 512.84 L2765.32 515.31 L2747.62 515.31 L2747.62 516.67 L2729.80 516.67 L2729.80 518.28 L2712.11 518.28 L2712.11 523.85 L2694.28 523.85 L2694.28 523.36 L2676.59 523.36 L2676.59 525.71 L2658.77 525.71 L2658.77 527.44 L2641.07 527.44 L2641.07 527.69 L2623.25 527.69 L2623.25 530.04 L2605.56 530.04 L2605.56 530.16 L2587.74 530.16 L2587.74 530.29 L2570.04 530.29 L2570.04 530.04 L2552.22 530.04 L2552.22 531.28 L2534.52 531.28 L2534.52 533.01 L2516.70 533.01 L2516.70 534.37 L2499.01 534.37 L2499.01 535.98 L2481.19 535.98 L2481.19 534.49 L2463.49 534.49 L2463.49 534.37 L2445.67 534.37 L2445.67 535.85 L2427.97 535.85 L2427.97 537.09 L2410.16 537.09 L2410.16 538.21 L2392.46 538.21 L2392.46 540.31 L2374.64 540.31 L2374.64 539.44 L2356.94 539.44 L2356.94 543.40 L2339.12 543.40 L2339.12 544.76 L2321.43 544.76 L2321.43 546.50 L2303.61 546.50 L2303.61 549.84 L2285.91 549.84 L2285.91 548.60 L2268.09 548.60 L2268.09 547.86 L2250.39 547.86 L2250.39 547.98 L2232.57 547.98 L2232.57 551.57 L2214.88 551.57 L2214.88 548.97 L2197.06 548.97 L2197.06 551.20 L2179.36 551.20 L2179.36 555.04 L2161.54 555.04 L2161.54 555.90 L2143.84 555.90 L2143.84 553.06 L2126.03 553.06 L2126.03 554.42 L2108.33 554.42 L2108.33 556.64 L2090.51 556.64 L2090.51 556.40 L2072.81 556.40 L2072.81 558.62 L2055.12 558.62 L2055.12 559.24 L2037.30 559.24 L2037.30 559.12 L2019.60 559.12 L2019.60 563.58 L2001.78 563.58 L2001.78 565.56 L1984.08 565.56 L1984.08 569.02 L1966.26 569.02 L1966.26 569.14 L1948.57 569.14 L1948.57 572.36 L1930.75 572.36 L1930.75 577.93 L1913.05 577.93 L1913.05 576.94 L1895.23 576.94 L1895.23 581.89 L1877.54 581.89 L1877.54 580.03 L1859.71 580.03 L1859.71 580.53 L1842.02 580.53 L1842.02 586.59 L1824.20 586.59 L1824.20 588.94 L1806.50 588.94 L1806.50 594.39 L1788.68 594.39 L1788.68 599.96 L1770.99 599.96 L1770.99 602.81 L1753.17 602.81 L1753.17 605.03 L1735.47 605.03 L1735.47 609.12 L1717.65 609.12 L1717.65 613.57 L1699.95 613.57 L1699.95 618.27 L1682.13 618.27 L1682.13 623.22 L1664.44 623.22 L1664.44 626.07 L1646.62 626.07 L1646.62 627.56 L1628.92 627.56 L1628.92 631.27 L1611.10 631.27 L1611.10 634.98 L1593.40 634.98 L1593.40 635.48 L1575.59 635.48 L1575.59 639.06 L1557.89 639.06 L1557.89 641.42 L1540.07 641.42 L1540.07 641.29 L1522.37 641.29 L1522.37 643.89 L1504.55 643.89 L1504.55 644.76 L1486.86 644.76 L1486.86 647.98 L1469.04 647.98 L1469.04 650.08 L1451.34 650.08 L1451.34 657.63 L1433.52 657.63 L1433.52 659.73 L1415.82 659.73 L1415.82 660.72 L1398.00 660.72 L1398.00 666.66 L1380.31 666.66 L1380.31 667.28 L1362.49 667.28 L1362.49 667.90 L1344.79 667.90 L1344.79 674.83 L1326.97 674.83 L1326.97 683.25 L1309.28 683.25 L1309.28 686.34 L1291.45 686.34 L1291.45 694.88 L1273.76 694.88 L1273.76 697.85 L1255.94 697.85 L1255.94 704.53 L1238.24 704.53 L1238.24 708.61 L1220.42 708.61 L1220.42 714.68 L1202.73 714.68 L1202.73 714.80 L1184.91 714.80 L1184.91 716.29 L1167.21 716.29 L1167.21 723.84 L1149.39 723.84 L1149.39 730.02 L1131.69 730.02 L1131.69 735.10 L1113.87 735.10 L1113.87 741.66 L1096.18 741.66 L1096.18 750.32 L1078.36 750.32 L1078.36 751.43 L1060.66 751.43 L1060.66 754.40 L1042.84 754.40 L1042.84 757.74 L1025.14 757.74 L1025.14 763.56 L1007.33 763.56 L1007.33 767.65 L989.63 767.65 L989.63 771.36 L971.81 771.36 L971.81 778.54 L954.11 778.54 L954.11 787.69 L936.29 787.69 L936.29 796.11 L918.60 796.11 L918.60 802.17 L900.78 802.17 L900.78 808.86 L883.08 808.86 L883.08 817.52 L865.26 817.52 L865.26 828.78 L847.56 828.78 L847.56 833.85 L829.87 833.85 L829.87 841.53 L812.05 841.53 L812.05 854.27 L794.35 854.27 L794.35 866.90 L776.53 866.90 L776.53 877.41 L758.84 877.41 L758.84 893.38 L741.01 893.38 L741.01 903.40 L723.32 903.40 L723.32 914.54 L705.50 914.54 L705.50 924.57 L687.80 924.57 L687.80 939.17 L669.98 939.17 L669.98 951.67 L652.29 951.67 L652.29 959.46 L634.47 959.46 L634.47 972.58 L616.77 972.58 L616.77 1341.74 Z" stroke-linejoin="round"/>
	</defs>
	<defs>
		<clipPath id="clipPath_nrgvCzJx">
			<use xlink:href="#path_JFSpzDNX"/>
		</clipPath>
	</defs>
	<use xlink:href="#path_JFSpzDNX" style="stroke:none;fill:#595959;fill-opacity:0.65"/>
	<use xlink:href="#path_JFSpzDNX" style="fill:none;stroke:#303030;stroke-opacity:0.65;stroke-width:17.28" clip-path="url(#clipPath_nrgvCzJx)"/>
	<line x1="616.65" y1="1153.51" x2="634.47" y2="1153.51" style="stroke:#808080;stroke-width:8.64"/>
	<line x1="634.47" y1="1153.51" x2="634.47" y2="1161.55" style="stroke:#808080;stroke-width:8.64"/>
	<line x1="634.47" y1="1161.55" x2="648.95" y2="1161.55" style="stroke:#808080;stroke-width:8.64"/>
	<line x1="658.72" y1="1168.98" x2="669.98" y2="1168.98" style="stroke:#808080;stroke-width:8.64"/>
	<line x1="669.98" y1="1168.98" x2="669.98" y2="1180.36" style="stroke:#808080;stroke-width:8.64"/>
	<line x1="669.98" y1="1180.36" x2="687.68" y2="1180.36" style="stroke:#808080;stroke-width:8.64"/>
	<line x1="699.06" y1="1186.30" x2="705.50" y2="1186.30" style="stroke:#808080;stroke-width:8.64"/>
	<line x1="705.50" y1="1186.30" x2="705.50" y2="1190.39" style="stroke:#808080;stroke-width:8.64"/>
	<line x1="705.50" y1="1190.39" x2="723.20" y2="1190.39" style="stroke:#808080;stroke-width:8.64"/>
	<line x1="723.20" y1="1190.39" x2="723.20" y2="1198.56" style="stroke:#808080;stroke-width:8.64"/>
	<line x1="723.20" y1="1198.56" x2="727.15" y2="1198.56" style="stroke:#808080;stroke-width:8.64"/>
	<line x1="741.01" y1="1201.90" x2="741.01" y2="1204.13" style="stroke:#808080;stroke-width:8.64"/>
	<line x1="741.01" y1="1204.13" x2="758.71" y2="1204.13" style="stroke:#808080;stroke-width:8.64"/>
	<line x1="758.71" y1="1204.13" x2="758.71" y2="1210.44" style="stroke:#808080;stroke-width:8.64"/>
	<line x1="758.71" y1="1210.44" x2="772.82" y2="1210.44" style="stroke:#808080;stroke-width:8.64"/>
	<line x1="788.16" y1="1212.29" x2="794.23" y2="1212.29" style="stroke:#808080;stroke-width:8.64"/>
	<line x1="794.23" y1="1212.29" x2="794.23" y2="1215.14" style="stroke:#808080;stroke-width:8.64"/>
	<line x1="794.23" y1="1215.14" x2="812.05" y2="1215.14" style="stroke:#808080;stroke-width:8.64"/>
	<line x1="812.05" y1="1215.14" x2="812.05" y2="1217.61" style="stroke:#808080;stroke-width:8.64"/>
	<line x1="812.05" y1="1217.61" x2="823.18" y2="1217.61" style="stroke:#808080;stroke-width:8.64"/>
	<line x1="837.79" y1="1220.21" x2="847.44" y2="1220.21" style="stroke:#808080;stroke-width:8.64"/>
	<line x1="847.44" y1="1220.21" x2="847.44" y2="1226.65" style="stroke:#808080;stroke-width:8.64"/>
	<line x1="847.44" y1="1226.65" x2="865.26" y2="1226.65" style="stroke:#808080;stroke-width:8.64"/>
	<line x1="865.26" y1="1226.65" x2="865.26" y2="1232.96" style="stroke:#808080;stroke-width:8.64"/>
	<line x1="865.26" y1="1232.96" x2="865.38" y2="1232.96" style="stroke:#808080;stroke-width:8.64"/>
	<line x1="882.71" y1="1232.96" x2="882.96" y2="1232.96" style="stroke:#808080;stroke-width:8.64"/>
	<line x1="882.96" y1="1232.96" x2="882.96" y2="1238.53" style="stroke:#808080;stroke-width:8.64"/>
	<line x1="882.96" y1="1238.53" x2="900.78" y2="1238.53" style="stroke:#808080;stroke-width:8.64"/>
	<line x1="900.78" y1="1238.53" x2="900.78" y2="1241.13" style="stroke:#808080;stroke-width:8.64"/>
	<line x1="900.78" y1="1241.13" x2="914.76" y2="1241.13" style="stroke:#808080;stroke-width:8.64"/>
	<line x1="927.01" y1="1246.20" x2="936.29" y2="1246.20" style="stroke:#808080;stroke-width:8.64"/>
	<line x1="936.29" y1="1246.20" x2="936.29" y2="1252.14" style="stroke:#808080;stroke-width:8.64"/>
	<line x1="936.29" y1="1252.14" x2="953.99" y2="1252.14" style="stroke:#808080;stroke-width:8.64"/>
	<line x1="953.99" y1="1252.14" x2="953.99" y2="1257.71" style="stroke:#808080;stroke-width:8.64"/>
	<line x1="953.99" y1="1257.71" x2="955.85" y2="1257.71" style="stroke:#808080;stroke-width:8.64"/>
	<line x1="971.81" y1="1258.95" x2="971.81" y2="1259.32" style="stroke:#808080;stroke-width:8.64"/>
	<line x1="971.81" y1="1259.32" x2="989.50" y2="1259.32" style="stroke:#808080;stroke-width:8.64"/>
	<line x1="989.50" y1="1259.32" x2="989.50" y2="1262.41" style="stroke:#808080;stroke-width:8.64"/>
	<line x1="989.50" y1="1262.41" x2="1007.33" y2="1262.41" style="stroke:#808080;stroke-width:8.64"/>
	<line x1="1007.33" y1="1262.41" x2="1007.33" y2="1263.77" style="stroke:#808080;stroke-width:8.64"/>
	<line x1="1021.18" y1="1267.12" x2="1025.02" y2="1267.12" style="stroke:#808080;stroke-width:8.64"/>
	<line x1="1025.02" y1="1267.12" x2="1025.02" y2="1275.16" style="stroke:#808080;stroke-width:8.64"/>
	<line x1="1025.02" y1="1275.16" x2="1042.84" y2="1275.16" style="stroke:#808080;stroke-width:8.64"/>
	<line x1="1042.84" y1="1275.16" x2="1042.84" y2="1280.48" style="stroke:#808080;stroke-width:8.64"/>
	<line x1="1042.84" y1="1280.48" x2="1048.16" y2="1280.48" style="stroke:#808080;stroke-width:8.64"/>
	<line x1="1060.54" y1="1285.31" x2="1060.54" y2="1285.43" style="stroke:#808080;stroke-width:8.64"/>
	<line x1="1060.54" y1="1285.43" x2="1078.36" y2="1285.43" style="stroke:#808080;stroke-width:8.64"/>
	<line x1="1078.36" y1="1285.43" x2="1078.36" y2="1291.25" style="stroke:#808080;stroke-width:8.64"/>
	<line x1="1078.36" y1="1291.25" x2="1094.94" y2="1291.25" style="stroke:#808080;stroke-width:8.64"/>
	<line x1="1104.84" y1="1298.67" x2="1113.87" y2="1298.67" style="stroke:#808080;stroke-width:8.64"/>
	<line x1="1113.87" y1="1298.67" x2="1113.87" y2="1307.21" style="stroke:#808080;stroke-width:8.64"/>
	<line x1="1113.87" y1="1307.21" x2="1131.57" y2="1307.21" style="stroke:#808080;stroke-width:8.64"/>
	<line x1="1131.57" y1="1307.21" x2="1131.57" y2="1307.95" style="stroke:#808080;stroke-width:8.64"/>
	<line x1="1131.57" y1="1307.95" x2="1135.90" y2="1307.95" style="stroke:#808080;stroke-width:8.64"/>
	<line x1="1151.37" y1="1309.69" x2="1167.09" y2="1309.69" style="stroke:#808080;stroke-width:8.64"/>
	<line x1="1167.09" y1="1309.69" x2="1167.09" y2="1311.42" style="stroke:#808080;stroke-width:8.64"/>
	<line x1="1167.09" y1="1311.42" x2="1184.91" y2="1311.42" style="stroke:#808080;stroke-width:8.64"/>
	<line x1="1184.91" y1="1311.42" x2="1184.91" y2="1315.38" style="stroke:#808080;stroke-width:8.64"/>
	<line x1="1184.91" y1="1315.38" x2="1186.02" y2="1315.38" style="stroke:#808080;stroke-width:8.64"/>
	<line x1="1202.60" y1="1316.00" x2="1202.60" y2="1316.62" style="stroke:#808080;stroke-width:8.64"/>
	<line x1="1202.60" y1="1316.62" x2="1220.42" y2="1316.62" style="stroke:#808080;stroke-width:8.64"/>
	<line x1="1220.42" y1="1316.62" x2="1220.42" y2="1320.21" style="stroke:#808080;stroke-width:8.64"/>
	<line x1="1220.42" y1="1320.21" x2="1238.12" y2="1320.21" style="stroke:#808080;stroke-width:8.64"/>
	<line x1="1238.12" y1="1320.21" x2="1238.12" y2="1320.83" style="stroke:#808080;stroke-width:8.64"/>
	<line x1="1249.26" y1="1326.89" x2="1255.94" y2="1326.89" style="stroke:#808080;stroke-width:8.64"/>
	<line x1="1255.94" y1="1326.89" x2="1255.94" y2="1330.11" style="stroke:#808080;stroke-width:8.64"/>
	<line x1="1255.94" y1="1330.11" x2="1273.63" y2="1330.11" style="stroke:#808080;stroke-width:8.64"/>
	<line x1="1273.63" y1="1330.11" x2="1273.63" y2="1331.84" style="stroke:#808080;stroke-width:8.64"/>
	<line x1="1273.63" y1="1331.84" x2="1284.65" y2="1331.84" style="stroke:#808080;stroke-width:8.64"/>
	<line x1="1297.77" y1="1336.05" x2="1309.15" y2="1336.05" style="stroke:#808080;stroke-width:8.64"/>
	<line x1="1309.15" y1="1336.05" x2="1309.15" y2="1339.64" style="stroke:#808080;stroke-width:8.64"/>
	<line x1="1309.15" y1="1339.64" x2="1326.97" y2="1339.64" style="stroke:#808080;stroke-width:8.64"/>
	<line x1="1326.97" y1="1339.64" x2="1326.97" y2="1341.12" style="stroke:#808080;stroke-width:8.64"/>
	<line x1="1326.97" y1="1341.12" x2="1333.04" y2="1341.12" style="stroke:#808080;stroke-width:8.64"/>
	<line x1="1348.38" y1="1339.26" x2="1362.49" y2="1339.26" style="stroke:#808080;stroke-width:8.64"/>
	<line x1="1362.49" y1="1339.26" x2="1362.49" y2="1342.48" style="stroke:#808080;stroke-width:8.64"/>
	<line x1="1362.49" y1="1342.48" x2="1380.18" y2="1342.48" style="stroke:#808080;stroke-width:8.64"/>
	<line x1="1380.18" y1="1342.48" x2="1380.18" y2="1340.87" style="stroke:#808080;stroke-width:8.64"/>
	<line x1="1380.18" y1="1340.87" x2="1383.90" y2="1340.87" style="stroke:#808080;stroke-width:8.64"/>
	<line x1="1400.85" y1="1340.63" x2="1415.70" y2="1340.63" style="stroke:#808080;stroke-width:8.64"/>
	<line x1="1415.70" y1="1340.63" x2="1415.70" y2="1343.84" style="stroke:#808080;stroke-width:8.64"/>
	<line x1="1415.70" y1="1343.84" x2="1433.52" y2="1343.84" style="stroke:#808080;stroke-width:8.64"/>
	<line x1="1433.52" y1="1343.84" x2="1433.52" y2="1347.93" style="stroke:#808080;stroke-width:8.64"/>
	<line x1="1433.52" y1="1347.93" x2="1433.89" y2="1347.93" style="stroke:#808080;stroke-width:8.64"/>
	<line x1="1451.09" y1="1347.93" x2="1451.22" y2="1347.93" style="stroke:#808080;stroke-width:8.64"/>
	<line x1="1451.22" y1="1347.93" x2="1451.22" y2="1349.54" style="stroke:#808080;stroke-width:8.64"/>
	<line x1="1451.22" y1="1349.54" x2="1469.04" y2="1349.54" style="stroke:#808080;stroke-width:8.64"/>
	<line x1="1469.04" y1="1349.54" x2="1469.04" y2="1352.88" style="stroke:#808080;stroke-width:8.64"/>
	<line x1="1469.04" y1="1352.88" x2="1486.48" y2="1352.88" style="stroke:#808080;stroke-width:8.64"/>
	<line x1="1500.72" y1="1355.97" x2="1504.55" y2="1355.97" style="stroke:#808080;stroke-width:8.64"/>
	<line x1="1504.55" y1="1355.97" x2="1504.55" y2="1356.84" style="stroke:#808080;stroke-width:8.64"/>
	<line x1="1504.55" y1="1356.84" x2="1522.25" y2="1356.84" style="stroke:#808080;stroke-width:8.64"/>
	<line x1="1522.25" y1="1356.84" x2="1522.25" y2="1354.98" style="stroke:#808080;stroke-width:8.64"/>
	<line x1="1522.25" y1="1354.98" x2="1538.34" y2="1354.98" style="stroke:#808080;stroke-width:8.64"/>
	<line x1="1549.97" y1="1360.55" x2="1557.77" y2="1360.55" style="stroke:#808080;stroke-width:8.64"/>
	<line x1="1557.77" y1="1360.55" x2="1557.77" y2="1362.65" style="stroke:#808080;stroke-width:8.64"/>
	<line x1="1557.77" y1="1362.65" x2="1575.59" y2="1362.65" style="stroke:#808080;stroke-width:8.64"/>
	<line x1="1575.59" y1="1362.65" x2="1575.59" y2="1367.48" style="stroke:#808080;stroke-width:8.64"/>
	<line x1="1575.59" y1="1367.48" x2="1583.38" y2="1367.48" style="stroke:#808080;stroke-width:8.64"/>
	<line x1="1600.34" y1="1367.23" x2="1611.10" y2="1367.23" style="stroke:#808080;stroke-width:8.64"/>
	<line x1="1611.10" y1="1367.23" x2="1611.10" y2="1373.30" style="stroke:#808080;stroke-width:8.64"/>
	<line x1="1611.10" y1="1373.30" x2="1628.80" y2="1373.30" style="stroke:#808080;stroke-width:8.64"/>
	<line x1="1628.80" y1="1373.30" x2="1628.80" y2="1373.92" style="stroke:#808080;stroke-width:8.64"/>
	<line x1="1628.80" y1="1373.92" x2="1633.99" y2="1373.92" style="stroke:#808080;stroke-width:8.64"/>
	<line x1="1649.71" y1="1375.52" x2="1664.31" y2="1375.52" style="stroke:#808080;stroke-width:8.64"/>
	<line x1="1664.31" y1="1375.52" x2="1664.31" y2="1378.12" style="stroke:#808080;stroke-width:8.64"/>
	<line x1="1664.31" y1="1378.12" x2="1682.13" y2="1378.12" style="stroke:#808080;stroke-width:8.64"/>
	<line x1="1682.13" y1="1378.12" x2="1682.13" y2="1378.62" style="stroke:#808080;stroke-width:8.64"/>
	<line x1="1682.13" y1="1378.62" x2="1686.96" y2="1378.62" style="stroke:#808080;stroke-width:8.64"/>
	<line x1="1703.79" y1="1378.25" x2="1717.65" y2="1378.25" style="stroke:#808080;stroke-width:8.64"/>
	<line x1="1717.65" y1="1378.25" x2="1717.65" y2="1381.34" style="stroke:#808080;stroke-width:8.64"/>
	<line x1="1717.65" y1="1381.34" x2="1735.35" y2="1381.34" style="stroke:#808080;stroke-width:8.64"/>
	<line x1="1735.35" y1="1381.34" x2="1735.35" y2="1382.08" style="stroke:#808080;stroke-width:8.64"/>
	<line x1="1735.35" y1="1382.08" x2="1740.30" y2="1382.08" style="stroke:#808080;stroke-width:8.64"/>
	<line x1="1756.63" y1="1382.95" x2="1770.86" y2="1382.95" style="stroke:#808080;stroke-width:8.64"/>
	<line x1="1770.86" y1="1382.95" x2="1770.86" y2="1382.70" style="stroke:#808080;stroke-width:8.64"/>
	<line x1="1770.86" y1="1382.70" x2="1788.68" y2="1382.70" style="stroke:#808080;stroke-width:8.64"/>
	<line x1="1788.68" y1="1382.70" x2="1788.68" y2="1379.98" style="stroke:#808080;stroke-width:8.64"/>
	<line x1="1788.68" y1="1379.98" x2="1794.00" y2="1379.98" style="stroke:#808080;stroke-width:8.64"/>
	<line x1="1811.08" y1="1379.86" x2="1824.20" y2="1379.86" style="stroke:#808080;stroke-width:8.64"/>
	<line x1="1824.20" y1="1379.86" x2="1824.20" y2="1380.10" style="stroke:#808080;stroke-width:8.64"/>
	<line x1="1824.20" y1="1380.10" x2="1841.89" y2="1380.10" style="stroke:#808080;stroke-width:8.64"/>
	<line x1="1841.89" y1="1380.10" x2="1841.89" y2="1381.46" style="stroke:#808080;stroke-width:8.64"/>
	<line x1="1841.89" y1="1381.46" x2="1849.82" y2="1381.46" style="stroke:#808080;stroke-width:8.64"/>
	<line x1="1864.79" y1="1379.24" x2="1877.41" y2="1379.24" style="stroke:#808080;stroke-width:8.64"/>
	<line x1="1877.41" y1="1379.24" x2="1877.41" y2="1379.24" style="stroke:#808080;stroke-width:8.64"/>
	<line x1="1877.41" y1="1379.24" x2="1895.23" y2="1379.24" style="stroke:#808080;stroke-width:8.64"/>
	<line x1="1895.23" y1="1379.24" x2="1895.23" y2="1377.50" style="stroke:#808080;stroke-width:8.64"/>
	<line x1="1895.23" y1="1377.50" x2="1903.40" y2="1377.50" style="stroke:#808080;stroke-width:8.64"/>
	<line x1="1920.11" y1="1378.12" x2="1930.75" y2="1378.12" style="stroke:#808080;stroke-width:8.64"/>
	<line x1="1930.75" y1="1378.12" x2="1930.75" y2="1376.64" style="stroke:#808080;stroke-width:8.64"/>
	<line x1="1930.75" y1="1376.64" x2="1948.44" y2="1376.64" style="stroke:#808080;stroke-width:8.64"/>
	<line x1="1948.44" y1="1376.64" x2="1948.44" y2="1378.00" style="stroke:#808080;stroke-width:8.64"/>
	<line x1="1948.44" y1="1378.00" x2="1957.48" y2="1378.00" style="stroke:#808080;stroke-width:8.64"/>
	<line x1="1970.72" y1="1381.96" x2="1983.96" y2="1381.96" style="stroke:#808080;stroke-width:8.64"/>
	<line x1="1983.96" y1="1381.96" x2="1983.96" y2="1382.33" style="stroke:#808080;stroke-width:8.64"/>
	<line x1="1983.96" y1="1382.33" x2="2001.78" y2="1382.33" style="stroke:#808080;stroke-width:8.64"/>
	<line x1="2001.78" y1="1382.33" x2="2001.78" y2="1383.94" style="stroke:#808080;stroke-width:8.64"/>
	<line x1="2001.78" y1="1383.94" x2="2009.08" y2="1383.94" style="stroke:#808080;stroke-width:8.64"/>
	<line x1="2025.42" y1="1382.95" x2="2037.30" y2="1382.95" style="stroke:#808080;stroke-width:8.64"/>
	<line x1="2037.30" y1="1382.95" x2="2037.30" y2="1379.73" style="stroke:#808080;stroke-width:8.64"/>
	<line x1="2037.30" y1="1379.73" x2="2054.99" y2="1379.73" style="stroke:#808080;stroke-width:8.64"/>
	<line x1="2054.99" y1="1379.73" x2="2054.99" y2="1381.34" style="stroke:#808080;stroke-width:8.64"/>
	<line x1="2054.99" y1="1381.34" x2="2060.81" y2="1381.34" style="stroke:#808080;stroke-width:8.64"/>
	<line x1="2077.39" y1="1382.08" x2="2090.51" y2="1382.08" style="stroke:#808080;stroke-width:8.64"/>
	<line x1="2090.51" y1="1382.08" x2="2090.51" y2="1382.95" style="stroke:#808080;stroke-width:8.64"/>
	<line x1="2090.51" y1="1382.95" x2="2108.20" y2="1382.95" style="stroke:#808080;stroke-width:8.64"/>
	<line x1="2108.20" y1="1382.95" x2="2108.20" y2="1381.34" style="stroke:#808080;stroke-width:8.64"/>
	<line x1="2108.20" y1="1381.34" x2="2115.26" y2="1381.34" style="stroke:#808080;stroke-width:8.64"/>
	<line x1="2131.47" y1="1382.33" x2="2143.72" y2="1382.33" style="stroke:#808080;stroke-width:8.64"/>
	<line x1="2143.72" y1="1382.33" x2="2143.72" y2="1384.43" style="stroke:#808080;stroke-width:8.64"/>
	<line x1="2143.72" y1="1384.43" x2="2161.54" y2="1384.43" style="stroke:#808080;stroke-width:8.64"/>
	<line x1="2161.54" y1="1384.43" x2="2161.54" y2="1385.67" style="stroke:#808080;stroke-width:8.64"/>
	<line x1="2161.54" y1="1385.67" x2="2168.47" y2="1385.67" style="stroke:#808080;stroke-width:8.64"/>
	<line x1="2185.80" y1="1385.67" x2="2197.06" y2="1385.67" style="stroke:#808080;stroke-width:8.64"/>
	<line x1="2197.06" y1="1385.67" x2="2197.06" y2="1388.52" style="stroke:#808080;stroke-width:8.64"/>
	<line x1="2197.06" y1="1388.52" x2="2214.75" y2="1388.52" style="stroke:#808080;stroke-width:8.64"/>
	<line x1="2214.75" y1="1388.52" x2="2214.75" y2="1387.65" style="stroke:#808080;stroke-width:8.64"/>
	<line x1="2214.75" y1="1387.65" x2="2222.43" y2="1387.65" style="stroke:#808080;stroke-width:8.64"/>
	<line x1="2238.76" y1="1388.52" x2="2250.27" y2="1388.52" style="stroke:#808080;stroke-width:8.64"/>
	<line x1="2250.27" y1="1388.52" x2="2250.27" y2="1393.10" style="stroke:#808080;stroke-width:8.64"/>
	<line x1="2250.27" y1="1393.10" x2="2268.09" y2="1393.10" style="stroke:#808080;stroke-width:8.64"/>
	<line x1="2268.09" y1="1393.10" x2="2268.09" y2="1394.21" style="stroke:#808080;stroke-width:8.64"/>
	<line x1="2268.09" y1="1394.21" x2="2273.41" y2="1394.21" style="stroke:#808080;stroke-width:8.64"/>
	<line x1="2289.13" y1="1392.73" x2="2303.61" y2="1392.73" style="stroke:#808080;stroke-width:8.64"/>
	<line x1="2303.61" y1="1392.73" x2="2303.61" y2="1392.35" style="stroke:#808080;stroke-width:8.64"/>
	<line x1="2303.61" y1="1392.35" x2="2321.30" y2="1392.35" style="stroke:#808080;stroke-width:8.64"/>
	<line x1="2321.30" y1="1392.35" x2="2321.30" y2="1395.94" style="stroke:#808080;stroke-width:8.64"/>
	<line x1="2321.30" y1="1395.94" x2="2325.51" y2="1395.94" style="stroke:#808080;stroke-width:8.64"/>
	<line x1="2341.60" y1="1397.06" x2="2356.82" y2="1397.06" style="stroke:#808080;stroke-width:8.64"/>
	<line x1="2356.82" y1="1397.06" x2="2356.82" y2="1395.32" style="stroke:#808080;stroke-width:8.64"/>
	<line x1="2356.82" y1="1395.32" x2="2374.64" y2="1395.32" style="stroke:#808080;stroke-width:8.64"/>
	<line x1="2374.64" y1="1395.32" x2="2374.64" y2="1397.92" style="stroke:#808080;stroke-width:8.64"/>
	<line x1="2374.64" y1="1397.92" x2="2377.49" y2="1397.92" style="stroke:#808080;stroke-width:8.64"/>
	<line x1="2392.34" y1="1400.40" x2="2392.34" y2="1400.40" style="stroke:#808080;stroke-width:8.64"/>
	<line x1="2392.34" y1="1400.40" x2="2410.16" y2="1400.40" style="stroke:#808080;stroke-width:8.64"/>
	<line x1="2410.16" y1="1400.40" x2="2410.16" y2="1400.65" style="stroke:#808080;stroke-width:8.64"/>
	<line x1="2410.16" y1="1400.65" x2="2427.85" y2="1400.65" style="stroke:#808080;stroke-width:8.64"/>
	<line x1="2427.85" y1="1400.65" x2="2427.85" y2="1398.67" style="stroke:#808080;stroke-width:8.64"/>
	<line x1="2427.85" y1="1398.67" x2="2430.45" y2="1398.67" style="stroke:#808080;stroke-width:8.64"/>
	<line x1="2446.91" y1="1399.53" x2="2463.37" y2="1399.53" style="stroke:#808080;stroke-width:8.64"/>
	<line x1="2463.37" y1="1399.53" x2="2463.37" y2="1399.28" style="stroke:#808080;stroke-width:8.64"/>
	<line x1="2463.37" y1="1399.28" x2="2481.19" y2="1399.28" style="stroke:#808080;stroke-width:8.64"/>
	<line x1="2481.19" y1="1399.28" x2="2481.19" y2="1396.93" style="stroke:#808080;stroke-width:8.64"/>
	<line x1="2481.19" y1="1396.93" x2="2484.53" y2="1396.93" style="stroke:#808080;stroke-width:8.64"/>
	<line x1="2499.38" y1="1399.28" x2="2516.70" y2="1399.28" style="stroke:#808080;stroke-width:8.64"/>
	<line x1="2516.70" y1="1399.28" x2="2516.70" y2="1398.54" style="stroke:#808080;stroke-width:8.64"/>
	<line x1="2516.70" y1="1398.54" x2="2534.40" y2="1398.54" style="stroke:#808080;stroke-width:8.64"/>
	<line x1="2534.40" y1="1398.54" x2="2534.40" y2="1398.54" style="stroke:#808080;stroke-width:8.64"/>
	<line x1="2534.40" y1="1398.54" x2="2538.98" y2="1398.54" style="stroke:#808080;stroke-width:8.64"/>
	<line x1="2556.18" y1="1398.67" x2="2569.92" y2="1398.67" style="stroke:#808080;stroke-width:8.64"/>
	<line x1="2569.92" y1="1398.67" x2="2569.92" y2="1398.42" style="stroke:#808080;stroke-width:8.64"/>
	<line x1="2569.92" y1="1398.42" x2="2587.74" y2="1398.42" style="stroke:#808080;stroke-width:8.64"/>
	<line x1="2587.74" y1="1398.42" x2="2587.74" y2="1399.16" style="stroke:#808080;stroke-width:8.64"/>
	<line x1="2587.74" y1="1399.16" x2="2595.53" y2="1399.16" style="stroke:#808080;stroke-width:8.64"/>
	<line x1="2609.52" y1="1402.38" x2="2623.25" y2="1402.38" style="stroke:#808080;stroke-width:8.64"/>
	<line x1="2623.25" y1="1402.38" x2="2623.25" y2="1403.12" style="stroke:#808080;stroke-width:8.64"/>
	<line x1="2623.25" y1="1403.12" x2="2640.95" y2="1403.12" style="stroke:#808080;stroke-width:8.64"/>
	<line x1="2640.95" y1="1403.12" x2="2640.95" y2="1402.38" style="stroke:#808080;stroke-width:8.64"/>
	<line x1="2640.95" y1="1402.38" x2="2648.37" y2="1402.38" style="stroke:#808080;stroke-width:8.64"/>
	<line x1="2664.71" y1="1403.37" x2="2676.47" y2="1403.37" style="stroke:#808080;stroke-width:8.64"/>
	<line x1="2676.47" y1="1403.37" x2="2676.47" y2="1401.88" style="stroke:#808080;stroke-width:8.64"/>
	<line x1="2676.47" y1="1401.88" x2="2694.28" y2="1401.88" style="stroke:#808080;stroke-width:8.64"/>
	<line x1="2694.28" y1="1401.88" x2="2694.28" y2="1404.24" style="stroke:#808080;stroke-width:8.64"/>
	<line x1="2694.28" y1="1404.24" x2="2701.22" y2="1404.24" style="stroke:#808080;stroke-width:8.64"/>
	<line x1="2717.55" y1="1403.37" x2="2729.80" y2="1403.37" style="stroke:#808080;stroke-width:8.64"/>
	<line x1="2729.80" y1="1403.37" x2="2729.80" y2="1405.72" style="stroke:#808080;stroke-width:8.64"/>
	<line x1="2729.80" y1="1405.72" x2="2747.50" y2="1405.72" style="stroke:#808080;stroke-width:8.64"/>
	<line x1="2747.50" y1="1405.72" x2="2747.50" y2="1405.72" style="stroke:#808080;stroke-width:8.64"/>
	<line x1="2747.50" y1="1405.72" x2="2755.54" y2="1405.72" style="stroke:#808080;stroke-width:8.64"/>
	<line x1="2771.75" y1="1404.73" x2="2783.01" y2="1404.73" style="stroke:#808080;stroke-width:8.64"/>
	<line x1="2783.01" y1="1404.73" x2="2783.01" y2="1405.84" style="stroke:#808080;stroke-width:8.64"/>
	<line x1="2783.01" y1="1405.84" x2="2800.83" y2="1405.84" style="stroke:#808080;stroke-width:8.64"/>
	<line x1="2800.83" y1="1405.84" x2="2800.83" y2="1403.25" style="stroke:#808080;stroke-width:8.64"/>
	<line x1="2800.83" y1="1403.25" x2="2808.26" y2="1403.25" style="stroke:#808080;stroke-width:8.64"/>
	<line x1="2824.59" y1="1402.26" x2="2836.35" y2="1402.26" style="stroke:#808080;stroke-width:8.64"/>
	<line x1="2836.35" y1="1402.26" x2="2836.35" y2="1403.00" style="stroke:#808080;stroke-width:8.64"/>
	<line x1="2836.35" y1="1403.00" x2="2854.05" y2="1403.00" style="stroke:#808080;stroke-width:8.64"/>
	<line x1="2854.05" y1="1403.00" x2="2854.05" y2="1399.04" style="stroke:#808080;stroke-width:8.64"/>
	<line x1="2854.05" y1="1399.04" x2="2860.23" y2="1399.04" style="stroke:#808080;stroke-width:8.64"/>
	<line x1="2876.20" y1="1397.80" x2="2889.56" y2="1397.80" style="stroke:#808080;stroke-width:8.64"/>
	<line x1="2889.56" y1="1397.80" x2="2889.56" y2="1397.55" style="stroke:#808080;stroke-width:8.64"/>
	<line x1="2889.56" y1="1397.55" x2="2907.38" y2="1397.55" style="stroke:#808080;stroke-width:8.64"/>
	<line x1="2907.38" y1="1397.55" x2="2907.38" y2="1396.19" style="stroke:#808080;stroke-width:8.64"/>
	<line x1="2907.38" y1="1396.19" x2="2914.93" y2="1396.19" style="stroke:#808080;stroke-width:8.64"/>
	<line x1="2930.28" y1="1398.05" x2="2942.90" y2="1398.05" style="stroke:#808080;stroke-width:8.64"/>
	<line x1="2942.90" y1="1398.05" x2="2942.90" y2="1396.31" style="stroke:#808080;stroke-width:8.64"/>
	<line x1="2942.90" y1="1396.31" x2="2960.59" y2="1396.31" style="stroke:#808080;stroke-width:8.64"/>
	<line x1="2960.59" y1="1396.31" x2="2960.59" y2="1396.93" style="stroke:#808080;stroke-width:8.64"/>
	<line x1="2960.59" y1="1396.93" x2="2968.27" y2="1396.93" style="stroke:#808080;stroke-width:8.64"/>
	<line x1="2983.74" y1="1398.67" x2="2996.11" y2="1398.67" style="stroke:#808080;stroke-width:8.64"/>
	<line x1="2996.11" y1="1398.67" x2="2996.11" y2="1401.27" style="stroke:#808080;stroke-width:8.64"/>
	<line x1="2996.11" y1="1401.27" x2="3013.93" y2="1401.27" style="stroke:#808080;stroke-width:8.64"/>
	<line x1="3013.93" y1="1401.27" x2="3013.93" y2="1402.63" style="stroke:#808080;stroke-width:8.64"/>
	<line x1="3013.93" y1="1402.63" x2="3020.12" y2="1402.63" style="stroke:#808080;stroke-width:8.64"/>
	<line x1="3033.73" y1="1406.22" x2="3049.45" y2="1406.22" style="stroke:#808080;stroke-width:8.64"/>
	<line x1="3049.45" y1="1406.22" x2="3049.45" y2="1404.73" style="stroke:#808080;stroke-width:8.64"/>
	<line x1="3049.45" y1="1404.73" x2="3067.14" y2="1404.73" style="stroke:#808080;stroke-width:8.64"/>
	<line x1="3067.14" y1="1404.73" x2="3067.14" y2="1402.75" style="stroke:#808080;stroke-width:8.64"/>
	<line x1="3067.14" y1="1402.75" x2="3070.61" y2="1402.75" style="stroke:#808080;stroke-width:8.64"/>
	<line x1="3086.57" y1="1403.99" x2="3102.66" y2="1403.99" style="stroke:#808080;stroke-width:8.64"/>
	<line x1="3102.66" y1="1403.99" x2="3102.66" y2="1402.87" style="stroke:#808080;stroke-width:8.64"/>
	<line x1="3102.66" y1="1402.87" x2="3120.48" y2="1402.87" style="stroke:#808080;stroke-width:8.64"/>
	<line x1="3120.48" y1="1402.87" x2="3120.48" y2="1400.40" style="stroke:#808080;stroke-width:8.64"/>
	<line x1="3120.48" y1="1400.40" x2="3123.33" y2="1400.40" style="stroke:#808080;stroke-width:8.64"/>
	<line x1="3139.78" y1="1399.53" x2="3156.00" y2="1399.53" style="stroke:#808080;stroke-width:8.64"/>
	<line x1="3156.00" y1="1399.53" x2="3156.00" y2="1397.43" style="stroke:#808080;stroke-width:8.64"/>
	<line x1="3156.00" y1="1397.43" x2="3173.69" y2="1397.43" style="stroke:#808080;stroke-width:8.64"/>
	<line x1="3173.69" y1="1397.43" x2="3173.69" y2="1396.07" style="stroke:#808080;stroke-width:8.64"/>
	<line x1="3173.69" y1="1396.07" x2="3176.54" y2="1396.07" style="stroke:#808080;stroke-width:8.64"/>
	<line x1="3193.12" y1="1395.32" x2="3209.21" y2="1395.32" style="stroke:#808080;stroke-width:8.64"/>
	<line x1="3209.21" y1="1395.32" x2="3209.21" y2="1394.33" style="stroke:#808080;stroke-width:8.64"/>
	<line x1="3209.21" y1="1394.33" x2="3227.03" y2="1394.33" style="stroke:#808080;stroke-width:8.64"/>
	<line x1="3227.03" y1="1394.33" x2="3227.03" y2="1394.09" style="stroke:#808080;stroke-width:8.64"/>
	<line x1="3227.03" y1="1394.09" x2="3232.23" y2="1394.09" style="stroke:#808080;stroke-width:8.64"/>
	<line x1="3248.93" y1="1393.59" x2="3262.55" y2="1393.59" style="stroke:#808080;stroke-width:8.64"/>
	<line x1="3262.55" y1="1393.59" x2="3262.55" y2="1393.47" style="stroke:#808080;stroke-width:8.64"/>
	<line x1="3262.55" y1="1393.47" x2="3280.24" y2="1393.47" style="stroke:#808080;stroke-width:8.64"/>
	<line x1="3280.24" y1="1393.47" x2="3280.24" y2="1393.34" style="stroke:#808080;stroke-width:8.64"/>
	<line x1="3280.24" y1="1393.34" x2="3289.03" y2="1393.34" style="stroke:#808080;stroke-width:8.64"/>
	<line x1="3304.74" y1="1394.95" x2="3315.76" y2="1394.95" style="stroke:#808080;stroke-width:8.64"/>
	<line x1="3315.76" y1="1394.95" x2="3315.76" y2="1393.72" style="stroke:#808080;stroke-width:8.64"/>
	<line x1="3315.76" y1="1393.72" x2="3333.45" y2="1393.72" style="stroke:#808080;stroke-width:8.64"/>
	<line x1="3333.45" y1="1393.72" x2="3333.45" y2="1394.83" style="stroke:#808080;stroke-width:8.64"/>
	<line x1="3333.45" y1="1394.83" x2="3342.74" y2="1394.83" style="stroke:#808080;stroke-width:8.64"/>
	<line x1="3359.44" y1="1394.33" x2="3368.97" y2="1394.33" style="stroke:#808080;stroke-width:8.64"/>
	<line x1="3368.97" y1="1394.33" x2="3368.97" y2="1393.22" style="stroke:#808080;stroke-width:8.64"/>
	<line x1="3368.97" y1="1393.22" x2="3386.79" y2="1393.22" style="stroke:#808080;stroke-width:8.64"/>
	<line x1="3386.79" y1="1393.22" x2="3386.79" y2="1394.83" style="stroke:#808080;stroke-width:8.64"/>
	<line x1="3386.79" y1="1394.83" x2="3397.18" y2="1394.83" style="stroke:#808080;stroke-width:8.64"/>
	<line x1="3413.64" y1="1394.09" x2="3422.31" y2="1394.09" style="stroke:#808080;stroke-width:8.64"/>
	<line x1="3422.31" y1="1394.09" x2="3422.31" y2="1394.33" style="stroke:#808080;stroke-width:8.64"/>
	<line x1="3422.31" y1="1394.33" x2="3440.00" y2="1394.33" style="stroke:#808080;stroke-width:8.64"/>
	<line x1="3440.00" y1="1394.33" x2="3440.00" y2="1393.72" style="stroke:#808080;stroke-width:8.64"/>
	<line x1="3440.00" y1="1393.72" x2="3453.12" y2="1393.72" style="stroke:#808080;stroke-width:8.64"/>
	<line x1="3469.83" y1="1393.22" x2="3475.52" y2="1393.22" style="stroke:#808080;stroke-width:8.64"/>
	<line x1="3475.52" y1="1393.22" x2="3475.52" y2="1396.31" style="stroke:#808080;stroke-width:8.64"/>
	<line x1="3475.52" y1="1396.31" x2="3493.34" y2="1396.31" style="stroke:#808080;stroke-width:8.64"/>
	<line x1="3493.34" y1="1396.31" x2="3493.34" y2="1396.44" style="stroke:#808080;stroke-width:8.64"/>
	<line x1="3493.34" y1="1396.44" x2="3507.07" y2="1396.44" style="stroke:#808080;stroke-width:8.64"/>
	<line x1="3523.66" y1="1395.82" x2="3528.86" y2="1395.82" style="stroke:#808080;stroke-width:8.64"/>
	<line x1="3528.86" y1="1395.82" x2="3528.86" y2="1396.19" style="stroke:#808080;stroke-width:8.64"/>
	<line x1="3528.86" y1="1396.19" x2="3546.55" y2="1396.19" style="stroke:#808080;stroke-width:8.64"/>
	<line x1="3546.55" y1="1396.19" x2="3546.55" y2="1394.83" style="stroke:#808080;stroke-width:8.64"/>
	<line x1="3546.55" y1="1394.83" x2="3562.27" y2="1394.83" style="stroke:#808080;stroke-width:8.64"/>
	<line x1="3578.11" y1="1396.31" x2="3582.07" y2="1396.31" style="stroke:#808080;stroke-width:8.64"/>
	<line x1="3582.07" y1="1396.31" x2="3582.07" y2="1394.33" style="stroke:#808080;stroke-width:8.64"/>
	<line x1="3582.07" y1="1394.33" x2="3599.89" y2="1394.33" style="stroke:#808080;stroke-width:8.64"/>
	<line x1="3599.89" y1="1394.33" x2="3599.89" y2="1393.10" style="stroke:#808080;stroke-width:8.64"/>
	<line x1="3599.89" y1="1393.10" x2="3615.23" y2="1393.10" style="stroke:#808080;stroke-width:8.64"/>
	<line x1="3631.20" y1="1394.46" x2="3635.40" y2="1394.46" style="stroke:#808080;stroke-width:8.64"/>
	<line x1="3635.40" y1="1394.46" x2="3635.40" y2="1393.72" style="stroke:#808080;stroke-width:8.64"/>
	<line x1="3635.40" y1="1393.72" x2="3653.10" y2="1393.72" style="stroke:#808080;stroke-width:8.64"/>
	<line x1="3653.10" y1="1393.72" x2="3653.10" y2="1394.09" style="stroke:#808080;stroke-width:8.64"/>
	<line x1="3653.10" y1="1394.09" x2="3670.43" y2="1394.09" style="stroke:#808080;stroke-width:8.64"/>
	<line x1="3686.88" y1="1393.34" x2="3688.62" y2="1393.34" style="stroke:#808080;stroke-width:8.64"/>
	<line x1="3688.62" y1="1393.34" x2="3688.62" y2="1393.10" style="stroke:#808080;stroke-width:8.64"/>
	<line x1="3688.62" y1="1393.10" x2="3706.44" y2="1393.10" style="stroke:#808080;stroke-width:8.64"/>
	<line x1="3706.44" y1="1393.10" x2="3706.44" y2="1393.59" style="stroke:#808080;stroke-width:8.64"/>
	<line x1="3706.44" y1="1393.59" x2="3724.13" y2="1393.59" style="stroke:#808080;stroke-width:8.64"/>
	<line x1="3724.13" y1="1393.59" x2="3724.13" y2="1395.32" style="stroke:#808080;stroke-width:8.64"/>
	<line x1="3724.13" y1="1395.32" x2="3724.75" y2="1395.32" style="stroke:#808080;stroke-width:8.64"/>
	<line x1="3741.95" y1="1395.20" x2="3741.95" y2="1394.46" style="stroke:#808080;stroke-width:8.64"/>
	<line x1="3741.95" y1="1394.46" x2="3759.65" y2="1394.46" style="stroke:#808080;stroke-width:8.64"/>
	<line x1="3759.65" y1="1394.46" x2="3759.65" y2="1394.71" style="stroke:#808080;stroke-width:8.64"/>
	<line x1="3759.65" y1="1394.71" x2="3777.47" y2="1394.71" style="stroke:#808080;stroke-width:8.64"/>
	<line x1="3777.47" y1="1394.71" x2="3777.47" y2="1394.09" style="stroke:#808080;stroke-width:8.64"/>
	<line x1="3777.47" y1="1394.09" x2="3780.69" y2="1394.09" style="stroke:#808080;stroke-width:8.64"/>
	<line x1="3795.16" y1="1391.36" x2="3795.16" y2="1389.88" style="stroke:#808080;stroke-width:8.64"/>
	<path d="" stroke-linejoin="round" style="fill:none;stroke:#808080;stroke-width:8.64"/>
	<path d=" M616.65 1157.22 L634.47 1157.22 L634.47 1164.90 L652.16 1164.90 L652.16 1177.39 L669.98 1177.39 L669.98 1184.45 L687.68 1184.45 L687.68 1188.66 L705.50 1188.66 L705.50 1196.70 L723.20 1196.70 L723.20 1203.51 L741.01 1203.51 L741.01 1210.44 L758.71 1210.44 L758.71 1210.81 L776.53 1210.81 L776.53 1216.13 L794.23 1216.13 L794.23 1218.85 L812.05 1218.85 L812.05 1221.08 L829.74 1221.08 L829.74 1227.89 L847.44 1227.89 L847.44 1236.92 L865.26 1236.92 L865.26 1239.52 L882.96 1239.52 L882.96 1244.10 L900.78 1244.10 L900.78 1250.04 L918.47 1250.04 L918.47 1256.47 L936.29 1256.47 L936.29 1260.06 L953.99 1260.06 L953.99 1262.66 L971.81 1262.66 L971.81 1267.12 L989.50 1267.12 L989.50 1274.42 L1007.33 1274.42 L1007.33 1280.85 L1025.02 1280.85 L1025.02 1285.56 L1042.84 1285.56 L1042.84 1291.87 L1060.54 1291.87 L1060.54 1298.67 L1078.36 1298.67 L1078.36 1307.09 L1096.05 1307.09 L1096.05 1307.95 L1113.87 1307.95 L1113.87 1310.18 L1131.57 1310.18 L1131.57 1313.65 L1149.39 1313.65 L1149.39 1316.00 L1167.09 1316.00 L1167.09 1316.99 L1184.91 1316.99 L1184.91 1323.67 L1202.60 1323.67 L1202.60 1331.22 L1220.42 1331.22 L1220.42 1332.71 L1238.12 1332.71 L1238.12 1336.17 L1255.94 1336.17 L1255.94 1336.54 L1273.63 1336.54 L1273.63 1340.75 L1291.45 1340.75 L1291.45 1338.89 L1309.15 1338.89 L1309.15 1342.48 L1326.97 1342.48 L1326.97 1340.75 L1344.67 1340.75 L1344.67 1339.76 L1362.49 1339.76 L1362.49 1345.33 L1380.18 1345.33 L1380.18 1350.53 L1398.00 1350.53 L1398.00 1350.53 L1415.70 1350.53 L1415.70 1355.23 L1433.52 1355.23 L1433.52 1358.57 L1451.22 1358.57 L1451.22 1356.47 L1469.04 1356.47 L1469.04 1359.44 L1486.73 1359.44 L1486.73 1361.17 L1504.55 1361.17 L1504.55 1365.13 L1522.25 1365.13 L1522.25 1367.36 L1540.07 1367.36 L1540.07 1372.06 L1557.77 1372.06 L1557.77 1374.29 L1575.59 1374.29 L1575.59 1374.91 L1593.28 1374.91 L1593.28 1378.62 L1611.10 1378.62 L1611.10 1378.99 L1628.80 1378.99 L1628.80 1379.24 L1646.62 1379.24 L1646.62 1381.84 L1664.31 1381.84 L1664.31 1382.95 L1682.13 1382.95 L1682.13 1381.84 L1699.83 1381.84 L1699.83 1380.97 L1717.65 1380.97 L1717.65 1380.23 L1735.35 1380.23 L1735.35 1379.86 L1753.17 1379.86 L1753.17 1381.22 L1770.86 1381.22 L1770.86 1381.71 L1788.68 1381.71 L1788.68 1379.73 L1806.38 1379.73 L1806.38 1377.38 L1824.20 1377.38 L1824.20 1378.12 L1841.89 1378.12 L1841.89 1374.91 L1859.71 1374.91 L1859.71 1377.63 L1877.41 1377.63 L1877.41 1382.70 L1895.23 1382.70 L1895.23 1380.60 L1912.93 1380.60 L1912.93 1384.43 L1930.75 1384.43 L1930.75 1381.34 L1948.44 1381.34 L1948.44 1380.60 L1966.26 1380.60 L1966.26 1383.07 L1983.96 1383.07 L1983.96 1382.33 L2001.78 1382.33 L2001.78 1382.70 L2019.48 1382.70 L2019.48 1381.09 L2037.30 1381.09 L2037.30 1383.44 L2054.99 1383.44 L2054.99 1385.30 L2072.69 1385.30 L2072.69 1385.30 L2090.51 1385.30 L2090.51 1387.78 L2108.20 1387.78 L2108.20 1387.65 L2126.03 1387.65 L2126.03 1388.39 L2143.72 1388.39 L2143.72 1393.10 L2161.54 1393.10 L2161.54 1394.33 L2179.24 1394.33 L2179.24 1392.48 L2197.06 1392.48 L2197.06 1391.98 L2214.75 1391.98 L2214.75 1396.44 L2232.57 1396.44 L2232.57 1394.58 L2250.27 1394.58 L2250.27 1396.19 L2268.09 1396.19 L2268.09 1398.42 L2285.79 1398.42 L2285.79 1401.39 L2303.61 1401.39 L2303.61 1399.66 L2321.30 1399.66 L2321.30 1399.41 L2339.12 1399.41 L2339.12 1399.41 L2356.82 1399.41 L2356.82 1397.06 L2374.64 1397.06 L2374.64 1399.16 L2392.34 1399.16 L2392.34 1398.67 L2410.16 1398.67 L2410.16 1398.67 L2427.85 1398.67 L2427.85 1398.79 L2445.67 1398.79 L2445.67 1398.79 L2463.37 1398.79 L2463.37 1400.28 L2481.19 1400.28 L2481.19 1403.12 L2498.88 1403.12 L2498.88 1402.75 L2516.70 1402.75 L2516.70 1402.87 L2534.40 1402.87 L2534.40 1402.26 L2552.22 1402.26 L2552.22 1402.38 L2569.92 1402.38 L2569.92 1403.62 L2587.74 1403.62 L2587.74 1404.61 L2605.43 1404.61 L2605.43 1405.35 L2623.25 1405.35 L2623.25 1404.11 L2640.95 1404.11 L2640.95 1404.73 L2658.77 1404.73 L2658.77 1403.74 L2676.47 1403.74 L2676.47 1402.26 L2694.28 1402.26 L2694.28 1403.74 L2711.98 1403.74 L2711.98 1398.91 L2729.80 1398.91 L2729.80 1398.05 L2747.50 1398.05 L2747.50 1397.55 L2765.32 1397.55 L2765.32 1395.82 L2783.01 1395.82 L2783.01 1396.69 L2800.83 1396.69 L2800.83 1396.56 L2818.53 1396.56 L2818.53 1398.67 L2836.35 1398.67 L2836.35 1399.90 L2854.05 1399.90 L2854.05 1401.76 L2871.87 1401.76 L2871.87 1404.85 L2889.56 1404.85 L2889.56 1405.10 L2907.38 1405.10 L2907.38 1404.73 L2925.08 1404.73 L2925.08 1403.99 L2942.90 1403.99 L2942.90 1403.74 L2960.59 1403.74 L2960.59 1401.27 L2978.41 1401.27 L2978.41 1399.28 L2996.11 1399.28 L2996.11 1397.43 L3013.93 1397.43 L3013.93 1396.44 L3031.63 1396.44 L3031.63 1394.71 L3049.45 1394.71 L3049.45 1394.95 L3067.14 1394.95 L3067.14 1394.58 L3084.96 1394.58 L3084.96 1393.34 L3102.66 1393.34 L3102.66 1392.35 L3120.48 1392.35 L3120.48 1393.96 L3138.18 1393.96 L3138.18 1394.21 L3156.00 1394.21 L3156.00 1393.72 L3173.69 1393.72 L3173.69 1394.46 L3191.51 1394.46 L3191.51 1393.47 L3209.21 1393.47 L3209.21 1394.33 L3227.03 1394.33 L3227.03 1393.96 L3244.72 1393.96 L3244.72 1394.71 L3262.55 1394.71 L3262.55 1393.59 L3280.24 1393.59 L3280.24 1393.22 L3297.94 1393.22 L3297.94 1397.06 L3315.76 1397.06 L3315.76 1396.44 L3333.45 1396.44 L3333.45 1395.45 L3351.27 1395.45 L3351.27 1396.19 L3368.97 1396.19 L3368.97 1395.82 L3386.79 1395.82 L3386.79 1396.44 L3404.49 1396.44 L3404.49 1394.33 L3422.31 1394.33 L3422.31 1394.21 L3440.00 1394.21 L3440.00 1393.96 L3457.82 1393.96 L3457.82 1392.97 L3475.52 1392.97 L3475.52 1394.71 L3493.34 1394.71 L3493.34 1393.34 L3511.03 1393.34 L3511.03 1393.10 L3528.86 1393.10 L3528.86 1394.71 L3546.55 1394.71 L3546.55 1394.71 L3564.37 1394.71 L3564.37 1394.71 L3582.07 1394.71 L3582.07 1393.72 L3599.89 1393.72 L3599.89 1389.76 L3617.58 1389.76 L3617.58 1388.89 L3635.40 1388.89 L3635.40 1387.90 L3653.10 1387.90 L3653.10 1385.05 L3670.92 1385.05 L3670.92 1384.31 L3688.62 1384.31 L3688.62 1386.91 L3706.44 1386.91 L3706.44 1385.55 L3724.13 1385.55 L3724.13 1384.19 L3741.95 1384.19 L3741.95 1385.42 L3759.65 1385.42 L3759.65 1384.31 L3777.47 1384.31 L3777.47 1383.69 L3795.16 1383.69 L3795.16 1383.20" stroke-linejoin="round" style="fill:none;stroke:#000000;stroke-width:8.64"/>
	<line x1="388.57" y1="2509.23" x2="388.57" y2="419.90" style="stroke:#000000;stroke-width:5.76"/>
	<line x1="388.57" y1="2445.87" x2="348.60" y2="2445.87" style="stroke:#000000;stroke-width:5.76"/>
	<text x="298.50" y="2445.87" style="font-family:'Helvetica';font-size:99.99px;fill:#000000" transform="rotate(-90 298.50,2445.87)" text-anchor="middle">-.15</text>
	<line x1="388.57" y1="1994.05" x2="348.60" y2="1994.05" style="stroke:#000000;stroke-width:5.76"/>
	<text x="298.50" y="1994.05" style="font-family:'Helvetica';font-size:99.99px;fill:#000000" transform="rotate(-90 298.50,1994.05)" text-anchor="middle">-.1</text>
	<line x1="388.57" y1="1542.22" x2="348.60" y2="1542.22" style="stroke:#000000;stroke-width:5.76"/>
	<text x="298.50" y="1542.22" style="font-family:'Helvetica';font-size:99.99px;fill:#000000" transform="rotate(-90 298.50,1542.22)" text-anchor="middle">-.05</text>
	<line x1="388.57" y1="1090.27" x2="348.60" y2="1090.27" style="stroke:#000000;stroke-width:5.76"/>
	<text x="298.50" y="1090.27" style="font-family:'Helvetica';font-size:99.99px;fill:#000000" transform="rotate(-90 298.50,1090.27)" text-anchor="middle">0</text>
	<line x1="388.57" y1="638.45" x2="348.60" y2="638.45" style="stroke:#000000;stroke-width:5.76"/>
	<text x="298.50" y="638.45" style="font-family:'Helvetica';font-size:99.99px;fill:#000000" transform="rotate(-90 298.50,638.45)" text-anchor="middle">.05</text>
	<text x="190.71" y="1464.63" style="font-family:'Helvetica';font-size:99.99px;fill:#000000" transform="rotate(-90 190.71,1464.63)" text-anchor="middle">Difference in Lengths</text>
	<line x1="388.57" y1="2509.23" x2="3859.02" y2="2509.23" style="stroke:#000000;stroke-width:5.76"/>
	<line x1="451.94" y1="2509.23" x2="451.94" y2="2549.21" style="stroke:#000000;stroke-width:5.76"/>
	<text x="451.94" y="2625.15" style="font-family:'Helvetica';font-size:79.94px;fill:#000000" text-anchor="middle">0</text>
	<line x1="652.53" y1="2509.23" x2="652.53" y2="2549.21" style="stroke:#000000;stroke-width:5.76"/>
	<text x="652.53" y="2625.15" style="font-family:'Helvetica';font-size:79.94px;fill:#000000" text-anchor="middle">.3</text>
	<line x1="853.13" y1="2509.23" x2="853.13" y2="2549.21" style="stroke:#000000;stroke-width:5.76"/>
	<text x="853.13" y="2625.15" style="font-family:'Helvetica';font-size:79.94px;fill:#000000" text-anchor="middle">.6</text>
	<line x1="1053.86" y1="2509.23" x2="1053.86" y2="2549.21" style="stroke:#000000;stroke-width:5.76"/>
	<text x="1053.86" y="2625.15" style="font-family:'Helvetica';font-size:79.94px;fill:#000000" text-anchor="middle">.9</text>
	<line x1="1254.45" y1="2509.23" x2="1254.45" y2="2549.21" style="stroke:#000000;stroke-width:5.76"/>
	<text x="1254.45" y="2625.15" style="font-family:'Helvetica';font-size:79.94px;fill:#000000" text-anchor="middle">1.2</text>
	<line x1="1455.05" y1="2509.23" x2="1455.05" y2="2549.21" style="stroke:#000000;stroke-width:5.76"/>
	<text x="1455.05" y="2625.15" style="font-family:'Helvetica';font-size:79.94px;fill:#000000" text-anchor="middle">1.5</text>
	<line x1="1655.65" y1="2509.23" x2="1655.65" y2="2549.21" style="stroke:#000000;stroke-width:5.76"/>
	<text x="1655.65" y="2625.15" style="font-family:'Helvetica';font-size:79.94px;fill:#000000" text-anchor="middle">1.8</text>
	<line x1="1856.37" y1="2509.23" x2="1856.37" y2="2549.21" style="stroke:#000000;stroke-width:5.76"/>
	<text x="1856.37" y="2625.15" style="font-family:'Helvetica';font-size:79.94px;fill:#000000" text-anchor="middle">2.1</text>
	<line x1="2056.97" y1="2509.23" x2="2056.97" y2="2549.21" style="stroke:#000000;stroke-width:5.76"/>
	<text x="2056.97" y="2625.15" style="font-family:'Helvetica';font-size:79.94px;fill:#000000" text-anchor="middle">2.4</text>
	<line x1="2257.57" y1="2509.23" x2="2257.57" y2="2549.21" style="stroke:#000000;stroke-width:5.76"/>
	<text x="2257.57" y="2625.15" style="font-family:'Helvetica';font-size:79.94px;fill:#000000" text-anchor="middle">2.7</text>
	<line x1="2458.17" y1="2509.23" x2="2458.17" y2="2549.21" style="stroke:#000000;stroke-width:5.76"/>
	<text x="2458.17" y="2625.15" style="font-family:'Helvetica';font-size:79.94px;fill:#000000" text-anchor="middle">3</text>
	<line x1="2658.89" y1="2509.23" x2="2658.89" y2="2549.21" style="stroke:#000000;stroke-width:5.76"/>
	<text x="2658.89" y="2625.15" style="font-family:'Helvetica';font-size:79.94px;fill:#000000" text-anchor="middle">3.3</text>
	<line x1="2859.49" y1="2509.23" x2="2859.49" y2="2549.21" style="stroke:#000000;stroke-width:5.76"/>
	<text x="2859.49" y="2625.15" style="font-family:'Helvetica';font-size:79.94px;fill:#000000" text-anchor="middle">3.6</text>
	<line x1="3060.09" y1="2509.23" x2="3060.09" y2="2549.21" style="stroke:#000000;stroke-width:5.76"/>
	<text x="3060.09" y="2625.15" style="font-family:'Helvetica';font-size:79.94px;fill:#000000" text-anchor="middle">3.9</text>
	<line x1="3260.69" y1="2509.23" x2="3260.69" y2="2549.21" style="stroke:#000000;stroke-width:5.76"/>
	<text x="3260.69" y="2625.15" style="font-family:'Helvetica';font-size:79.94px;fill:#000000" text-anchor="middle">4.2</text>
	<line x1="3461.29" y1="2509.23" x2="3461.29" y2="2549.21" style="stroke:#000000;stroke-width:5.76"/>
	<text x="3461.29" y="2625.15" style="font-family:'Helvetica';font-size:79.94px;fill:#000000" text-anchor="middle">4.5</text>
	<line x1="3662.01" y1="2509.23" x2="3662.01" y2="2549.21" style="stroke:#000000;stroke-width:5.76"/>
	<text x="3662.01" y="2625.15" style="font-family:'Helvetica';font-size:79.94px;fill:#000000" text-anchor="middle">4.8</text>
	<line x1="3862.61" y1="2509.23" x2="3862.61" y2="2549.21" style="stroke:#000000;stroke-width:5.76"/>
	<text x="3862.61" y="2625.15" style="font-family:'Helvetica';font-size:79.94px;fill:#000000" text-anchor="middle">5.1</text>
	<text x="2123.80" y="2729.16" style="font-family:'Helvetica';font-size:99.99px;fill:#000000" text-anchor="middle">Time (years)</text>
	<rect x="423.10" y="2148.24" width="2369.69" height="326.46" style="fill:#FFFFFF"/>
	<rect x="425.98" y="2151.12" width="2363.93" height="320.70" style="fill:none;stroke:#000000;stroke-width:5.76"/>
	<rect x="466.29" y="2191.43" width="374.47" height="99.99" style="fill:#999999;fill-opacity:0.65"/>
	<rect x="470.61" y="2195.75" width="365.83" height="91.35" style="fill:none;stroke:#808080;stroke-opacity:0.65;stroke-width:8.64"/>
	<line x1="1597.74" y1="2241.43" x2="1638.08" y2="2241.43" style="stroke:#808080;stroke-width:8.64"/>
	<line x1="1655.28" y1="2241.43" x2="1695.62" y2="2241.43" style="stroke:#808080;stroke-width:8.64"/>
	<line x1="1712.82" y1="2241.43" x2="1753.17" y2="2241.43" style="stroke:#808080;stroke-width:8.64"/>
	<line x1="1770.37" y1="2241.43" x2="1810.71" y2="2241.43" style="stroke:#808080;stroke-width:8.64"/>
	<line x1="1828.04" y1="2241.43" x2="1868.38" y2="2241.43" style="stroke:#808080;stroke-width:8.64"/>
	<line x1="1885.58" y1="2241.43" x2="1925.92" y2="2241.43" style="stroke:#808080;stroke-width:8.64"/>
	<line x1="1943.12" y1="2241.43" x2="1972.20" y2="2241.43" style="stroke:#808080;stroke-width:8.64"/>
	<rect x="466.29" y="2331.52" width="374.47" height="99.99" style="fill:#595959;fill-opacity:0.65"/>
	<rect x="470.61" y="2335.84" width="365.83" height="91.35" style="fill:none;stroke:#303030;stroke-opacity:0.65;stroke-width:8.64"/>
	<line x1="1597.74" y1="2381.52" x2="1972.20" y2="2381.52" style="stroke:#000000;stroke-width:8.64"/>
	<text x="900.78" y="2276.46" style="font-family:'Helvetica';font-size:99.99px;fill:#000000">CI95% Amb</text>
	<text x="2032.22" y="2276.46" style="font-family:'Helvetica';font-size:99.99px;fill:#000000">Difference Amb</text>
	<text x="900.78" y="2416.55" style="font-family:'Helvetica';font-size:99.99px;fill:#000000">CI95% Res</text>
	<text x="2032.22" y="2416.55" style="font-family:'Helvetica';font-size:99.99px;fill:#000000">Difference Res</text>
	<text x="2123.80" y="369.63" style="fill:#000000" text-anchor="middle">
		<tspan style="font-family:'Helvetica';font-size:110.01px">from3</tspan>
		<tspan dy="-57.63px" style="font-family:'Helvetica';font-size:64.14px">rd</tspan>
		<tspan dy="57.63px" style="font-family:'Helvetica';font-size:110.01px">Readmission</tspan>
	</text>
	<text x="2123.80" y="215.98" style="font-family:'Helvetica';font-size:139.96px;fill:#1E2D53" text-anchor="middle">Difference in Probabilities (Comp. vs. No-Comp.) 3yrs</text>
</svg>
