<?xml version="1.0" encoding="UTF-8" standalone="no"?>
<!-- This is a Stata 16.1 generated SVG file (http://www.stata.com) -->

<svg version="1.1" width="5.50in" height="4.00in" viewBox="0 0 3960 2880" xmlns="http://www.w3.org/2000/svg" xmlns:xlink="http://www.w3.org/1999/xlink">
	<desc>Stata Graph - diff_mod12_3y_rp_tc_22</desc>
	<rect x="0" y="0" width="3960" height="2880" style="fill:#EAF2F3;stroke:none"/>
	<rect x="0.00" y="0.00" width="3959.88" height="2880.00" style="fill:#FFFFFF"/>
	<rect x="2.88" y="2.88" width="3954.12" height="2874.24" style="fill:none;stroke:#FFFFFF;stroke-width:5.76"/>
	<rect x="559.10" y="419.90" width="3299.92" height="2089.34" style="fill:#FFFFFF"/>
	<rect x="561.98" y="422.78" width="3294.16" height="2083.58" style="fill:none;stroke:#FFFFFF;stroke-width:5.76"/>
	<line x1="559.10" y1="2249.60" x2="3859.02" y2="2249.60" style="stroke:#EAF2F3;stroke-width:8.64"/>
	<line x1="559.10" y1="2053.32" x2="3859.02" y2="2053.32" style="stroke:#EAF2F3;stroke-width:8.64"/>
	<line x1="559.10" y1="1857.05" x2="3859.02" y2="1857.05" style="stroke:#EAF2F3;stroke-width:8.64"/>
	<line x1="559.10" y1="1660.78" x2="3859.02" y2="1660.78" style="stroke:#EAF2F3;stroke-width:8.64"/>
	<line x1="559.10" y1="1464.63" x2="3859.02" y2="1464.63" style="stroke:#EAF2F3;stroke-width:8.64"/>
	<line x1="559.10" y1="1268.35" x2="3859.02" y2="1268.35" style="stroke:#EAF2F3;stroke-width:8.64"/>
	<line x1="559.10" y1="1072.08" x2="3859.02" y2="1072.08" style="stroke:#EAF2F3;stroke-width:8.64"/>
	<line x1="559.10" y1="875.81" x2="3859.02" y2="875.81" style="stroke:#EAF2F3;stroke-width:8.64"/>
	<line x1="559.10" y1="679.53" x2="3859.02" y2="679.53" style="stroke:#EAF2F3;stroke-width:8.64"/>
	<line x1="559.10" y1="1464.63" x2="3859.02" y2="1464.63" style="stroke:#1A476F;stroke-width:8.64"/>
	<defs>
		<path id="path_licKyGJz" d="M778.88 1452.13 L778.88 1452.13 L795.71 1452.13 L795.71 1448.79 L812.54 1448.79 L812.54 1447.67 L829.37 1447.67 L829.37 1445.07 L846.20 1445.07 L846.20 1439.88 L863.16 1439.88 L863.16 1436.78 L879.99 1436.78 L879.99 1431.96 L896.82 1431.96 L896.82 1429.23 L913.65 1429.23 L913.65 1423.79 L930.48 1423.79 L930.48 1419.95 L947.31 1419.95 L947.31 1415.50 L964.26 1415.50 L964.26 1410.42 L981.09 1410.42 L981.09 1408.44 L997.92 1408.44 L997.92 1404.98 L1014.75 1404.98 L1014.75 1400.28 L1031.58 1400.28 L1031.58 1397.92 L1048.53 1397.92 L1048.53 1394.33 L1065.36 1394.33 L1065.36 1391.12 L1082.19 1391.12 L1082.19 1387.53 L1099.02 1387.53 L1099.02 1385.42 L1115.85 1385.42 L1115.85 1381.71 L1132.68 1381.71 L1132.68 1377.63 L1149.64 1377.63 L1149.64 1373.17 L1166.47 1373.17 L1166.47 1368.84 L1183.30 1368.84 L1183.30 1365.75 L1200.13 1365.75 L1200.13 1363.89 L1216.96 1363.89 L1216.96 1359.44 L1233.79 1359.44 L1233.79 1357.46 L1250.74 1357.46 L1250.74 1354.86 L1267.57 1354.86 L1267.57 1351.64 L1284.40 1351.64 L1284.40 1348.79 L1301.23 1348.79 L1301.23 1344.83 L1318.06 1344.83 L1318.06 1341.74 L1334.89 1341.74 L1334.89 1339.51 L1351.85 1339.51 L1351.85 1337.78 L1368.67 1337.78 L1368.67 1334.19 L1385.51 1334.19 L1385.51 1331.84 L1402.34 1331.84 L1402.34 1327.14 L1419.16 1327.14 L1419.16 1324.66 L1436.12 1324.66 L1436.12 1323.42 L1452.95 1323.42 L1452.95 1322.56 L1469.78 1322.56 L1469.78 1320.08 L1486.61 1320.08 L1486.61 1319.34 L1503.44 1319.34 L1503.44 1317.11 L1520.27 1317.11 L1520.27 1315.63 L1537.22 1315.63 L1537.22 1312.90 L1554.05 1312.90 L1554.05 1311.54 L1570.88 1311.54 L1570.88 1309.44 L1587.71 1309.44 L1587.71 1306.96 L1604.54 1306.96 L1604.54 1305.11 L1621.37 1305.11 L1621.37 1303.62 L1638.33 1303.62 L1638.33 1302.76 L1655.16 1302.76 L1655.16 1301.02 L1671.99 1301.02 L1671.99 1300.16 L1688.82 1300.16 L1688.82 1298.18 L1705.65 1298.18 L1705.65 1296.07 L1722.48 1296.07 L1722.48 1295.83 L1739.43 1295.83 L1739.43 1294.84 L1756.26 1294.84 L1756.26 1293.35 L1773.09 1293.35 L1773.09 1290.26 L1789.92 1290.26 L1789.92 1288.40 L1806.75 1288.40 L1806.75 1286.92 L1823.70 1286.92 L1823.70 1284.69 L1840.53 1284.69 L1840.53 1283.33 L1857.36 1283.33 L1857.36 1284.32 L1874.19 1284.32 L1874.19 1284.07 L1891.02 1284.07 L1891.02 1284.07 L1907.85 1284.07 L1907.85 1282.34 L1924.81 1282.34 L1924.81 1281.10 L1941.64 1281.10 L1941.64 1281.10 L1958.47 1281.10 L1958.47 1279.61 L1975.30 1279.61 L1975.30 1279.99 L1992.13 1279.99 L1992.13 1280.48 L2008.96 1280.48 L2008.96 1279.86 L2025.91 1279.86 L2025.91 1280.36 L2042.74 1280.36 L2042.74 1280.61 L2059.57 1280.61 L2059.57 1279.12 L2076.40 1279.12 L2076.40 1278.13 L2093.23 1278.13 L2093.23 1277.39 L2110.18 1277.39 L2110.18 1276.15 L2127.01 1276.15 L2127.01 1275.28 L2143.84 1275.28 L2143.84 1274.17 L2160.68 1274.17 L2160.68 1274.66 L2177.51 1274.66 L2177.51 1272.81 L2194.34 1272.81 L2194.34 1272.44 L2211.29 1272.44 L2211.29 1273.30 L2228.12 1273.30 L2228.12 1273.43 L2244.95 1273.43 L2244.95 1273.30 L2261.78 1273.30 L2261.78 1273.67 L2278.61 1273.67 L2278.61 1272.44 L2295.44 1272.44 L2295.44 1272.07 L2312.39 1272.07 L2312.39 1271.20 L2329.22 1271.20 L2329.22 1270.58 L2346.05 1270.58 L2346.05 1270.70 L2362.88 1270.70 L2362.88 1270.46 L2379.71 1270.46 L2379.71 1270.46 L2396.54 1270.46 L2396.54 1269.47 L2413.50 1269.47 L2413.50 1270.09 L2430.33 1270.09 L2430.33 1269.34 L2447.16 1269.34 L2447.16 1267.86 L2463.99 1267.86 L2463.99 1267.12 L2480.82 1267.12 L2480.82 1266.25 L2497.77 1266.25 L2497.77 1265.01 L2514.60 1265.01 L2514.60 1265.26 L2531.43 1265.26 L2531.43 1266.87 L2548.26 1266.87 L2548.26 1266.87 L2565.09 1266.87 L2565.09 1267.98 L2581.92 1267.98 L2581.92 1267.24 L2598.87 1267.24 L2598.87 1266.62 L2615.70 1266.62 L2615.70 1266.87 L2632.53 1266.87 L2632.53 1266.74 L2649.36 1266.74 L2649.36 1266.37 L2666.19 1266.37 L2666.19 1265.26 L2683.02 1265.26 L2683.02 1265.38 L2699.98 1265.38 L2699.98 1264.76 L2716.81 1264.76 L2716.81 1264.27 L2733.64 1264.27 L2733.64 1264.89 L2750.47 1264.89 L2750.47 1264.15 L2767.30 1264.15 L2767.30 1263.77 L2784.25 1263.77 L2784.25 1264.02 L2801.08 1264.02 L2801.08 1263.40 L2817.91 1263.40 L2817.91 1262.66 L2834.74 1262.66 L2834.74 1263.16 L2851.57 1263.16 L2851.57 1262.04 L2868.40 1262.04 L2868.40 1262.66 L2885.36 1262.66 L2885.36 1262.04 L2902.18 1262.04 L2902.18 1261.79 L2919.01 1261.79 L2919.01 1262.41 L2935.84 1262.41 L2935.84 1261.79 L2952.68 1261.79 L2952.68 1261.92 L2969.51 1261.92 L2969.51 1262.41 L2986.46 1262.41 L2986.46 1262.91 L3003.29 1262.91 L3003.29 1261.79 L3020.12 1261.79 L3020.12 1261.67 L3036.95 1261.67 L3036.95 1262.04 L3053.78 1262.04 L3053.78 1261.05 L3070.61 1261.05 L3070.61 1261.30 L3087.56 1261.30 L3087.56 1260.19 L3104.39 1260.19 L3104.39 1260.43 L3121.22 1260.43 L3121.22 1260.43 L3138.05 1260.43 L3138.05 1260.31 L3154.88 1260.31 L3154.88 1260.43 L3171.84 1260.43 L3171.84 1260.93 L3188.67 1260.93 L3188.67 1261.30 L3205.50 1261.30 L3205.50 1261.79 L3222.33 1261.79 L3222.33 1262.04 L3239.16 1262.04 L3239.16 1261.55 L3255.99 1261.55 L3255.99 1261.55 L3272.94 1261.55 L3272.94 1261.42 L3289.77 1261.42 L3289.77 1261.42 L3306.60 1261.42 L3306.60 1261.42 L3323.43 1261.42 L3323.43 1262.04 L3340.26 1262.04 L3340.26 1263.53 L3357.09 1263.53 L3357.09 1263.65 L3374.04 1263.65 L3374.04 1263.65 L3390.87 1263.65 L3390.87 1263.53 L3407.70 1263.53 L3407.70 1263.53 L3424.53 1263.53 L3424.53 1264.27 L3441.36 1264.27 L3441.36 1264.15 L3458.19 1264.15 L3458.19 1264.64 L3475.15 1264.64 L3475.15 1264.64 L3491.98 1264.64 L3491.98 1264.27 L3508.81 1264.27 L3508.81 1264.76 L3525.64 1264.76 L3525.64 1265.01 L3542.47 1265.01 L3542.47 1264.76 L3559.42 1264.76 L3559.42 1264.52 L3576.25 1264.52 L3576.25 1264.39 L3593.08 1264.39 L3593.08 1264.64 L3609.91 1264.64 L3609.91 1265.38 L3626.74 1265.38 L3626.74 1264.89 L3643.57 1264.89 L3643.57 1264.76 L3660.53 1264.76 L3660.53 1264.02 L3677.36 1264.02 L3677.36 1265.26 L3694.18 1265.26 L3694.18 1265.51 L3711.01 1265.51 L3711.01 1266.00 L3727.84 1266.00 L3727.84 1267.61 L3744.68 1267.61 L3744.68 1269.10 L3761.63 1269.10 L3761.63 1269.96 L3778.46 1269.96 L3778.46 1270.70 L3795.29 1270.70 L3795.29 1270.46 L3795.29 1178.01 L3795.29 1178.38 L3778.46 1178.38 L3778.46 1177.77 L3761.63 1177.77 L3761.63 1177.02 L3744.68 1177.02 L3744.68 1175.66 L3727.84 1175.66 L3727.84 1174.30 L3711.01 1174.30 L3711.01 1173.93 L3694.18 1173.93 L3694.18 1173.81 L3677.36 1173.81 L3677.36 1172.69 L3660.53 1172.69 L3660.53 1173.68 L3643.57 1173.68 L3643.57 1173.93 L3626.74 1173.93 L3626.74 1174.55 L3609.91 1174.55 L3609.91 1173.93 L3593.08 1173.93 L3593.08 1173.93 L3576.25 1173.93 L3576.25 1174.05 L3559.42 1174.05 L3559.42 1174.55 L3542.47 1174.55 L3542.47 1174.92 L3525.64 1174.92 L3525.64 1174.67 L3508.81 1174.67 L3508.81 1174.30 L3491.98 1174.30 L3491.98 1174.92 L3475.15 1174.92 L3475.15 1175.17 L3458.19 1175.17 L3458.19 1174.80 L3441.36 1174.80 L3441.36 1175.17 L3424.53 1175.17 L3424.53 1174.55 L3407.70 1174.55 L3407.70 1174.80 L3390.87 1174.80 L3390.87 1175.17 L3374.04 1175.17 L3374.04 1175.17 L3357.09 1175.17 L3357.09 1175.29 L3340.26 1175.29 L3340.26 1173.93 L3323.43 1173.93 L3323.43 1173.43 L3306.60 1173.43 L3306.60 1173.68 L3289.77 1173.68 L3289.77 1173.68 L3272.94 1173.68 L3272.94 1174.05 L3255.99 1174.05 L3255.99 1174.05 L3239.16 1174.05 L3239.16 1174.92 L3222.33 1174.92 L3222.33 1174.80 L3205.50 1174.80 L3205.50 1174.42 L3188.67 1174.42 L3188.67 1174.30 L3171.84 1174.30 L3171.84 1174.05 L3154.88 1174.05 L3154.88 1174.05 L3138.05 1174.05 L3138.05 1174.30 L3121.22 1174.30 L3121.22 1174.42 L3104.39 1174.42 L3104.39 1174.30 L3087.56 1174.30 L3087.56 1175.54 L3070.61 1175.54 L3070.61 1175.54 L3053.78 1175.54 L3053.78 1176.65 L3036.95 1176.65 L3036.95 1176.40 L3020.12 1176.40 L3020.12 1176.78 L3003.29 1176.78 L3003.29 1178.14 L2986.46 1178.14 L2986.46 1177.89 L2969.51 1177.89 L2969.51 1177.52 L2952.68 1177.52 L2952.68 1177.64 L2935.84 1177.64 L2935.84 1178.51 L2919.01 1178.51 L2919.01 1178.26 L2902.18 1178.26 L2902.18 1178.76 L2885.36 1178.76 L2885.36 1179.62 L2868.40 1179.62 L2868.40 1179.25 L2851.57 1179.25 L2851.57 1180.61 L2834.74 1180.61 L2834.74 1180.36 L2817.91 1180.36 L2817.91 1181.23 L2801.08 1181.23 L2801.08 1182.22 L2784.25 1182.22 L2784.25 1182.22 L2767.30 1182.22 L2767.30 1182.84 L2750.47 1182.84 L2750.47 1183.95 L2733.64 1183.95 L2733.64 1183.46 L2716.81 1183.46 L2716.81 1184.08 L2699.98 1184.08 L2699.98 1185.19 L2683.02 1185.19 L2683.02 1185.31 L2666.19 1185.31 L2666.19 1186.55 L2649.36 1186.55 L2649.36 1187.17 L2632.53 1187.17 L2632.53 1187.67 L2615.70 1187.67 L2615.70 1187.79 L2598.87 1187.79 L2598.87 1188.66 L2581.92 1188.66 L2581.92 1189.65 L2565.09 1189.65 L2565.09 1188.78 L2548.26 1188.78 L2548.26 1189.03 L2531.43 1189.03 L2531.43 1187.67 L2514.60 1187.67 L2514.60 1187.79 L2497.77 1187.79 L2497.77 1189.03 L2480.82 1189.03 L2480.82 1190.26 L2463.99 1190.26 L2463.99 1191.25 L2447.16 1191.25 L2447.16 1192.86 L2430.33 1192.86 L2430.33 1193.98 L2413.50 1193.98 L2413.50 1193.85 L2396.54 1193.85 L2396.54 1195.09 L2379.71 1195.09 L2379.71 1195.34 L2362.88 1195.34 L2362.88 1195.71 L2346.05 1195.71 L2346.05 1195.83 L2329.22 1195.83 L2329.22 1196.82 L2312.39 1196.82 L2312.39 1197.94 L2295.44 1197.94 L2295.44 1198.56 L2278.61 1198.56 L2278.61 1200.04 L2261.78 1200.04 L2261.78 1199.92 L2244.95 1199.92 L2244.95 1200.41 L2228.12 1200.41 L2228.12 1200.54 L2211.29 1200.54 L2211.29 1200.04 L2194.34 1200.04 L2194.34 1200.78 L2177.51 1200.78 L2177.51 1202.89 L2160.68 1202.89 L2160.68 1202.76 L2143.84 1202.76 L2143.84 1204.13 L2127.01 1204.13 L2127.01 1205.36 L2110.18 1205.36 L2110.18 1206.85 L2093.23 1206.85 L2093.23 1207.84 L2076.40 1207.84 L2076.40 1209.08 L2059.57 1209.08 L2059.57 1210.81 L2042.74 1210.81 L2042.74 1211.18 L2025.91 1211.18 L2025.91 1210.81 L2008.96 1210.81 L2008.96 1211.92 L1992.13 1211.92 L1992.13 1211.67 L1975.30 1211.67 L1975.30 1211.80 L1958.47 1211.80 L1958.47 1213.78 L1941.64 1213.78 L1941.64 1214.15 L1924.81 1214.15 L1924.81 1215.76 L1907.85 1215.76 L1907.85 1217.99 L1891.02 1217.99 L1891.02 1218.23 L1874.19 1218.23 L1874.19 1218.98 L1857.36 1218.98 L1857.36 1218.36 L1840.53 1218.36 L1840.53 1220.21 L1823.70 1220.21 L1823.70 1222.81 L1806.75 1222.81 L1806.75 1224.67 L1789.92 1224.67 L1789.92 1227.02 L1773.09 1227.02 L1773.09 1230.73 L1756.26 1230.73 L1756.26 1232.84 L1739.43 1232.84 L1739.43 1234.20 L1722.48 1234.20 L1722.48 1234.94 L1705.65 1234.94 L1705.65 1237.41 L1688.82 1237.41 L1688.82 1240.01 L1671.99 1240.01 L1671.99 1241.50 L1655.16 1241.50 L1655.16 1243.60 L1638.33 1243.60 L1638.33 1245.09 L1621.37 1245.09 L1621.37 1247.19 L1604.54 1247.19 L1604.54 1249.54 L1587.71 1249.54 L1587.71 1252.64 L1570.88 1252.64 L1570.88 1255.24 L1554.05 1255.24 L1554.05 1257.09 L1537.22 1257.09 L1537.22 1260.43 L1520.27 1260.43 L1520.27 1262.66 L1503.44 1262.66 L1503.44 1265.51 L1486.61 1265.51 L1486.61 1266.99 L1469.78 1266.99 L1469.78 1270.09 L1452.95 1270.09 L1452.95 1271.69 L1436.12 1271.69 L1436.12 1273.80 L1419.16 1273.80 L1419.16 1277.14 L1402.34 1277.14 L1402.34 1282.59 L1385.51 1282.59 L1385.51 1285.80 L1368.67 1285.80 L1368.67 1290.38 L1351.85 1290.38 L1351.85 1292.86 L1334.89 1292.86 L1334.89 1296.07 L1318.06 1296.07 L1318.06 1300.28 L1301.23 1300.28 L1301.23 1305.23 L1284.40 1305.23 L1284.40 1309.07 L1267.57 1309.07 L1267.57 1313.28 L1250.74 1313.28 L1250.74 1316.62 L1233.79 1316.62 L1233.79 1319.59 L1216.96 1319.59 L1216.96 1325.28 L1200.13 1325.28 L1200.13 1328.00 L1183.30 1328.00 L1183.30 1332.46 L1166.47 1332.46 L1166.47 1338.03 L1149.64 1338.03 L1149.64 1343.60 L1132.68 1343.60 L1132.68 1348.92 L1115.85 1348.92 L1115.85 1353.87 L1099.02 1353.87 L1099.02 1357.08 L1082.19 1357.08 L1082.19 1362.04 L1065.36 1362.04 L1065.36 1366.37 L1048.53 1366.37 L1048.53 1371.19 L1031.58 1371.19 L1031.58 1374.53 L1014.75 1374.53 L1014.75 1380.35 L997.92 1380.35 L997.92 1384.93 L981.09 1384.93 L981.09 1388.15 L964.26 1388.15 L964.26 1394.58 L947.31 1394.58 L947.31 1400.15 L930.48 1400.15 L930.48 1405.10 L913.65 1405.10 L913.65 1411.66 L896.82 1411.66 L896.82 1415.50 L879.99 1415.50 L879.99 1421.56 L863.16 1421.56 L863.16 1425.77 L846.20 1425.77 L846.20 1431.96 L829.37 1431.96 L829.37 1435.54 L812.54 1435.54 L812.54 1437.77 L795.71 1437.77 L795.71 1442.23 L778.88 1442.23 L778.88 1452.13 Z" stroke-linejoin="round"/>
	</defs>
	<defs>
		<clipPath id="clipPath_JFcElEbD">
			<use xlink:href="#path_licKyGJz"/>
		</clipPath>
	</defs>
	<use xlink:href="#path_licKyGJz" style="stroke:none;fill:#999999;fill-opacity:0.65"/>
	<use xlink:href="#path_licKyGJz" style="fill:none;stroke:#808080;stroke-opacity:0.65;stroke-width:17.28" clip-path="url(#clipPath_JFcElEbD)"/>
	<path d=" M778.76 1447.30 L795.59 1447.30 L795.59 1443.34 L812.54 1443.34 L812.54 1441.73 L829.37 1441.73 L829.37 1438.51 L846.20 1438.51 L846.20 1432.82 L863.03 1432.82 L863.03 1429.23 L879.86 1429.23 L879.86 1423.79 L896.69 1423.79 L896.69 1420.57 L913.65 1420.57 L913.65 1414.51 L930.48 1414.51 L930.48 1410.18 L947.31 1410.18 L947.31 1405.10 L964.14 1405.10 L964.14 1399.41 L980.97 1399.41 L980.97 1396.81 L997.80 1396.81 L997.80 1392.73 L1014.75 1392.73 L1014.75 1387.40 L1031.58 1387.40 L1031.58 1384.56 L1048.41 1384.56 L1048.41 1380.35 L1065.24 1380.35 L1065.24 1376.64 L1082.07 1376.64 L1082.07 1372.31 L1099.02 1372.31 L1099.02 1369.71 L1115.85 1369.71 L1115.85 1365.38 L1132.68 1365.38 L1132.68 1360.67 L1149.51 1360.67 L1149.51 1355.60 L1166.34 1355.60 L1166.34 1350.77 L1183.17 1350.77 L1183.17 1346.94 L1200.13 1346.94 L1200.13 1344.59 L1216.96 1344.59 L1216.96 1339.64 L1233.79 1339.64 L1233.79 1337.04 L1250.62 1337.04 L1250.62 1334.07 L1267.45 1334.07 L1267.45 1330.48 L1284.28 1330.48 L1284.28 1327.14 L1301.23 1327.14 L1301.23 1322.68 L1318.06 1322.68 L1318.06 1318.97 L1334.89 1318.97 L1334.89 1316.25 L1351.72 1316.25 L1351.72 1314.14 L1368.55 1314.14 L1368.55 1310.06 L1385.51 1310.06 L1385.51 1307.21 L1402.34 1307.21 L1402.34 1302.14 L1419.16 1302.14 L1419.16 1299.29 L1435.99 1299.29 L1435.99 1297.68 L1452.83 1297.68 L1452.83 1296.32 L1469.65 1296.32 L1469.65 1293.60 L1486.61 1293.60 L1486.61 1292.49 L1503.44 1292.49 L1503.44 1289.89 L1520.27 1289.89 L1520.27 1288.03 L1537.10 1288.03 L1537.10 1285.06 L1553.93 1285.06 L1553.93 1283.45 L1570.76 1283.45 L1570.76 1281.10 L1587.71 1281.10 L1587.71 1278.25 L1604.54 1278.25 L1604.54 1276.15 L1621.37 1276.15 L1621.37 1274.42 L1638.20 1274.42 L1638.20 1273.18 L1655.03 1273.18 L1655.03 1271.32 L1671.86 1271.32 L1671.86 1270.09 L1688.82 1270.09 L1688.82 1267.86 L1705.65 1267.86 L1705.65 1265.63 L1722.48 1265.63 L1722.48 1265.01 L1739.31 1265.01 L1739.31 1263.90 L1756.14 1263.90 L1756.14 1262.17 L1773.09 1262.17 L1773.09 1258.70 L1789.92 1258.70 L1789.92 1256.60 L1806.75 1256.60 L1806.75 1254.86 L1823.58 1254.86 L1823.58 1252.51 L1840.41 1252.51 L1840.41 1250.90 L1857.24 1250.90 L1857.24 1251.65 L1874.19 1251.65 L1874.19 1251.15 L1891.02 1251.15 L1891.02 1251.03 L1907.85 1251.03 L1907.85 1249.05 L1924.68 1249.05 L1924.68 1247.69 L1941.51 1247.69 L1941.51 1247.44 L1958.34 1247.44 L1958.34 1245.71 L1975.30 1245.71 L1975.30 1245.83 L1992.13 1245.83 L1992.13 1246.20 L2008.96 1246.20 L2008.96 1245.34 L2025.79 1245.34 L2025.79 1245.83 L2042.62 1245.83 L2042.62 1245.71 L2059.45 1245.71 L2059.45 1244.10 L2076.40 1244.10 L2076.40 1242.98 L2093.23 1242.98 L2093.23 1242.24 L2110.06 1242.24 L2110.06 1240.76 L2126.89 1240.76 L2126.89 1239.77 L2143.72 1239.77 L2143.72 1238.53 L2160.68 1238.53 L2160.68 1238.78 L2177.51 1238.78 L2177.51 1236.80 L2194.34 1236.80 L2194.34 1236.30 L2211.16 1236.30 L2211.16 1236.92 L2227.99 1236.92 L2227.99 1236.92 L2244.82 1236.92 L2244.82 1236.67 L2261.78 1236.67 L2261.78 1236.92 L2278.61 1236.92 L2278.61 1235.56 L2295.44 1235.56 L2295.44 1235.06 L2312.27 1235.06 L2312.27 1234.07 L2329.10 1234.07 L2329.10 1233.21 L2345.93 1233.21 L2345.93 1233.21 L2362.88 1233.21 L2362.88 1232.96 L2379.71 1232.96 L2379.71 1232.84 L2396.54 1232.84 L2396.54 1231.72 L2413.37 1231.72 L2413.37 1232.09 L2430.20 1232.09 L2430.20 1231.10 L2447.16 1231.10 L2447.16 1229.49 L2463.99 1229.49 L2463.99 1228.75 L2480.82 1228.75 L2480.82 1227.64 L2497.65 1227.64 L2497.65 1226.40 L2514.48 1226.40 L2514.48 1226.40 L2531.31 1226.40 L2531.31 1228.01 L2548.26 1228.01 L2548.26 1227.89 L2565.09 1227.89 L2565.09 1228.88 L2581.92 1228.88 L2581.92 1228.01 L2598.75 1228.01 L2598.75 1227.27 L2615.58 1227.27 L2615.58 1227.27 L2632.41 1227.27 L2632.41 1227.02 L2649.36 1227.02 L2649.36 1226.52 L2666.19 1226.52 L2666.19 1225.41 L2683.02 1225.41 L2683.02 1225.29 L2699.85 1225.29 L2699.85 1224.42 L2716.68 1224.42 L2716.68 1223.93 L2733.51 1223.93 L2733.51 1224.42 L2750.47 1224.42 L2750.47 1223.55 L2767.30 1223.55 L2767.30 1223.06 L2784.13 1223.06 L2784.13 1223.18 L2800.96 1223.18 L2800.96 1222.32 L2817.79 1222.32 L2817.79 1221.57 L2834.74 1221.57 L2834.74 1221.95 L2851.57 1221.95 L2851.57 1220.58 L2868.40 1220.58 L2868.40 1221.20 L2885.23 1221.20 L2885.23 1220.46 L2902.06 1220.46 L2902.06 1220.09 L2918.89 1220.09 L2918.89 1220.46 L2935.84 1220.46 L2935.84 1219.72 L2952.68 1219.72 L2952.68 1219.72 L2969.51 1219.72 L2969.51 1220.21 L2986.34 1220.21 L2986.34 1220.58 L3003.16 1220.58 L3003.16 1219.35 L3019.99 1219.35 L3019.99 1218.98 L3036.95 1218.98 L3036.95 1219.35 L3053.78 1219.35 L3053.78 1218.36 L3070.61 1218.36 L3070.61 1218.48 L3087.44 1218.48 L3087.44 1217.24 L3104.27 1217.24 L3104.27 1217.49 L3121.10 1217.49 L3121.10 1217.37 L3138.05 1217.37 L3138.05 1217.24 L3154.88 1217.24 L3154.88 1217.24 L3171.71 1217.24 L3171.71 1217.61 L3188.54 1217.61 L3188.54 1217.86 L3205.37 1217.86 L3205.37 1218.23 L3222.33 1218.23 L3222.33 1218.48 L3239.16 1218.48 L3239.16 1217.86 L3255.99 1217.86 L3255.99 1217.86 L3272.82 1217.86 L3272.82 1217.61 L3289.65 1217.61 L3289.65 1217.61 L3306.48 1217.61 L3306.48 1217.49 L3323.43 1217.49 L3323.43 1217.99 L3340.26 1217.99 L3340.26 1219.47 L3357.09 1219.47 L3357.09 1219.47 L3373.92 1219.47 L3373.92 1219.47 L3390.75 1219.47 L3390.75 1219.22 L3407.58 1219.22 L3407.58 1218.98 L3424.53 1218.98 L3424.53 1219.72 L3441.36 1219.72 L3441.36 1219.47 L3458.19 1219.47 L3458.19 1219.84 L3475.02 1219.84 L3475.02 1219.84 L3491.85 1219.84 L3491.85 1219.35 L3508.81 1219.35 L3508.81 1219.72 L3525.64 1219.72 L3525.64 1219.97 L3542.47 1219.97 L3542.47 1219.72 L3559.30 1219.72 L3559.30 1219.35 L3576.13 1219.35 L3576.13 1219.22 L3592.96 1219.22 L3592.96 1219.35 L3609.91 1219.35 L3609.91 1219.97 L3626.74 1219.97 L3626.74 1219.47 L3643.57 1219.47 L3643.57 1219.22 L3660.40 1219.22 L3660.40 1218.36 L3677.23 1218.36 L3677.23 1219.47 L3694.06 1219.47 L3694.06 1219.72 L3711.01 1219.72 L3711.01 1220.21 L3727.84 1220.21 L3727.84 1221.70 L3744.68 1221.70 L3744.68 1223.06 L3761.51 1223.06 L3761.51 1223.93 L3778.34 1223.93 L3778.34 1224.54 L3795.16 1224.54 L3795.16 1224.30" stroke-linejoin="round" style="fill:none;stroke:#000000;stroke-width:8.64"/>
	<line x1="559.10" y1="2509.23" x2="559.10" y2="419.90" style="stroke:#000000;stroke-width:5.76"/>
	<line x1="559.10" y1="2445.87" x2="519.13" y2="2445.87" style="stroke:#000000;stroke-width:5.76"/>
	<text x="499.08" y="2480.90" style="font-family:'Helvetica';font-size:99.99px;fill:#000000" text-anchor="end">-0.25</text>
	<line x1="559.10" y1="2249.60" x2="519.13" y2="2249.60" style="stroke:#000000;stroke-width:5.76"/>
	<text x="499.08" y="2284.63" style="font-family:'Helvetica';font-size:99.99px;fill:#000000" text-anchor="end">-0.20</text>
	<line x1="559.10" y1="2053.32" x2="519.13" y2="2053.32" style="stroke:#000000;stroke-width:5.76"/>
	<text x="499.08" y="2088.35" style="font-family:'Helvetica';font-size:99.99px;fill:#000000" text-anchor="end">-0.15</text>
	<line x1="559.10" y1="1857.05" x2="519.13" y2="1857.05" style="stroke:#000000;stroke-width:5.76"/>
	<text x="499.08" y="1892.08" style="font-family:'Helvetica';font-size:99.99px;fill:#000000" text-anchor="end">-0.10</text>
	<line x1="559.10" y1="1660.78" x2="519.13" y2="1660.78" style="stroke:#000000;stroke-width:5.76"/>
	<text x="499.08" y="1695.81" style="font-family:'Helvetica';font-size:99.99px;fill:#000000" text-anchor="end">-0.05</text>
	<line x1="559.10" y1="1464.63" x2="519.13" y2="1464.63" style="stroke:#000000;stroke-width:5.76"/>
	<text x="499.08" y="1499.66" style="font-family:'Helvetica';font-size:99.99px;fill:#000000" text-anchor="end">0.00</text>
	<line x1="559.10" y1="1268.35" x2="519.13" y2="1268.35" style="stroke:#000000;stroke-width:5.76"/>
	<text x="499.08" y="1303.38" style="font-family:'Helvetica';font-size:99.99px;fill:#000000" text-anchor="end">0.05</text>
	<line x1="559.10" y1="1072.08" x2="519.13" y2="1072.08" style="stroke:#000000;stroke-width:5.76"/>
	<text x="499.08" y="1107.11" style="font-family:'Helvetica';font-size:99.99px;fill:#000000" text-anchor="end">0.10</text>
	<line x1="559.10" y1="875.81" x2="519.13" y2="875.81" style="stroke:#000000;stroke-width:5.76"/>
	<text x="499.08" y="910.83" style="font-family:'Helvetica';font-size:99.99px;fill:#000000" text-anchor="end">0.15</text>
	<line x1="559.10" y1="679.53" x2="519.13" y2="679.53" style="stroke:#000000;stroke-width:5.76"/>
	<text x="499.08" y="714.56" style="font-family:'Helvetica';font-size:99.99px;fill:#000000" text-anchor="end">0.20</text>
	<line x1="559.10" y1="483.26" x2="519.13" y2="483.26" style="stroke:#000000;stroke-width:5.76"/>
	<text x="499.08" y="518.29" style="font-family:'Helvetica';font-size:99.99px;fill:#000000" text-anchor="end">0.25</text>
	<text x="190.71" y="1464.63" style="font-family:'Helvetica';font-size:99.99px;fill:#000000" transform="rotate(-90 190.71,1464.63)" text-anchor="middle">Difference in Probabilities</text>
	<line x1="559.10" y1="2509.23" x2="3859.02" y2="2509.23" style="stroke:#000000;stroke-width:5.76"/>
	<line x1="622.46" y1="2509.23" x2="622.46" y2="2549.21" style="stroke:#000000;stroke-width:5.76"/>
	<text x="622.46" y="2625.15" style="font-family:'Helvetica';font-size:79.94px;fill:#000000" text-anchor="middle">0</text>
	<line x1="812.91" y1="2509.23" x2="812.91" y2="2549.21" style="stroke:#000000;stroke-width:5.76"/>
	<text x="812.91" y="2625.15" style="font-family:'Helvetica';font-size:79.94px;fill:#000000" text-anchor="middle">.3</text>
	<line x1="1003.24" y1="2509.23" x2="1003.24" y2="2549.21" style="stroke:#000000;stroke-width:5.76"/>
	<text x="1003.24" y="2625.15" style="font-family:'Helvetica';font-size:79.94px;fill:#000000" text-anchor="middle">.6</text>
	<line x1="1193.69" y1="2509.23" x2="1193.69" y2="2549.21" style="stroke:#000000;stroke-width:5.76"/>
	<text x="1193.69" y="2625.15" style="font-family:'Helvetica';font-size:79.94px;fill:#000000" text-anchor="middle">.9</text>
	<line x1="1384.02" y1="2509.23" x2="1384.02" y2="2549.21" style="stroke:#000000;stroke-width:5.76"/>
	<text x="1384.02" y="2625.15" style="font-family:'Helvetica';font-size:79.94px;fill:#000000" text-anchor="middle">1.2</text>
	<line x1="1574.47" y1="2509.23" x2="1574.47" y2="2549.21" style="stroke:#000000;stroke-width:5.76"/>
	<text x="1574.47" y="2625.15" style="font-family:'Helvetica';font-size:79.94px;fill:#000000" text-anchor="middle">1.5</text>
	<line x1="1764.80" y1="2509.23" x2="1764.80" y2="2549.21" style="stroke:#000000;stroke-width:5.76"/>
	<text x="1764.80" y="2625.15" style="font-family:'Helvetica';font-size:79.94px;fill:#000000" text-anchor="middle">1.8</text>
	<line x1="1955.25" y1="2509.23" x2="1955.25" y2="2549.21" style="stroke:#000000;stroke-width:5.76"/>
	<text x="1955.25" y="2625.15" style="font-family:'Helvetica';font-size:79.94px;fill:#000000" text-anchor="middle">2.1</text>
	<line x1="2145.58" y1="2509.23" x2="2145.58" y2="2549.21" style="stroke:#000000;stroke-width:5.76"/>
	<text x="2145.58" y="2625.15" style="font-family:'Helvetica';font-size:79.94px;fill:#000000" text-anchor="middle">2.4</text>
	<line x1="2336.03" y1="2509.23" x2="2336.03" y2="2549.21" style="stroke:#000000;stroke-width:5.76"/>
	<text x="2336.03" y="2625.15" style="font-family:'Helvetica';font-size:79.94px;fill:#000000" text-anchor="middle">2.7</text>
	<line x1="2526.48" y1="2509.23" x2="2526.48" y2="2549.21" style="stroke:#000000;stroke-width:5.76"/>
	<text x="2526.48" y="2625.15" style="font-family:'Helvetica';font-size:79.94px;fill:#000000" text-anchor="middle">3</text>
	<line x1="2716.81" y1="2509.23" x2="2716.81" y2="2549.21" style="stroke:#000000;stroke-width:5.76"/>
	<text x="2716.81" y="2625.15" style="font-family:'Helvetica';font-size:79.94px;fill:#000000" text-anchor="middle">3.3</text>
	<line x1="2907.26" y1="2509.23" x2="2907.26" y2="2549.21" style="stroke:#000000;stroke-width:5.76"/>
	<text x="2907.26" y="2625.15" style="font-family:'Helvetica';font-size:79.94px;fill:#000000" text-anchor="middle">3.6</text>
	<line x1="3097.59" y1="2509.23" x2="3097.59" y2="2549.21" style="stroke:#000000;stroke-width:5.76"/>
	<text x="3097.59" y="2625.15" style="font-family:'Helvetica';font-size:79.94px;fill:#000000" text-anchor="middle">3.9</text>
	<line x1="3288.04" y1="2509.23" x2="3288.04" y2="2549.21" style="stroke:#000000;stroke-width:5.76"/>
	<text x="3288.04" y="2625.15" style="font-family:'Helvetica';font-size:79.94px;fill:#000000" text-anchor="middle">4.2</text>
	<line x1="3478.36" y1="2509.23" x2="3478.36" y2="2549.21" style="stroke:#000000;stroke-width:5.76"/>
	<text x="3478.36" y="2625.15" style="font-family:'Helvetica';font-size:79.94px;fill:#000000" text-anchor="middle">4.5</text>
	<line x1="3668.82" y1="2509.23" x2="3668.82" y2="2549.21" style="stroke:#000000;stroke-width:5.76"/>
	<text x="3668.82" y="2625.15" style="font-family:'Helvetica';font-size:79.94px;fill:#000000" text-anchor="middle">4.8</text>
	<line x1="3859.14" y1="2509.23" x2="3859.14" y2="2549.21" style="stroke:#000000;stroke-width:5.76"/>
	<text x="3859.14" y="2625.15" style="font-family:'Helvetica';font-size:79.94px;fill:#000000" text-anchor="middle">5.1</text>
	<text x="2209.06" y="2729.16" style="font-family:'Helvetica';font-size:99.99px;fill:#000000" text-anchor="middle">Time (years)</text>
	<rect x="593.63" y="454.42" width="993.34" height="326.46" style="fill:#FFFFFF"/>
	<rect x="596.51" y="457.30" width="987.58" height="320.70" style="fill:none;stroke:#000000;stroke-width:5.76"/>
	<rect x="636.82" y="497.74" width="374.47" height="99.99" style="fill:#999999;fill-opacity:0.65"/>
	<rect x="641.14" y="502.06" width="365.83" height="91.35" style="fill:none;stroke:#808080;stroke-opacity:0.65;stroke-width:8.64"/>
	<line x1="636.82" y1="687.70" x2="1011.28" y2="687.70" style="stroke:#000000;stroke-width:8.64"/>
	<text x="1071.30" y="582.76" style="font-family:'Helvetica';font-size:99.99px;fill:#000000">CI95%</text>
	<text x="1071.30" y="722.73" style="font-family:'Helvetica';font-size:99.99px;fill:#000000">Difference</text>
	<text x="2209.06" y="369.63" style="font-family:'Helvetica';font-size:110.01px;fill:#000000" text-anchor="middle">from Admission to Readmission</text>
	<text x="2209.06" y="215.98" style="font-family:'Helvetica';font-size:139.96px;fill:#1E2D53" text-anchor="middle">Difference in Probabilities at 3 years (TC) (RP)</text>
</svg>
