<?xml version="1.0" encoding="UTF-8" standalone="no"?>
<!-- This is a Stata 16.1 generated SVG file (http://www.stata.com) -->

<svg version="1.1" width="5.50in" height="4.00in" viewBox="0 0 3960 2880" xmlns="http://www.w3.org/2000/svg" xmlns:xlink="http://www.w3.org/1999/xlink">
	<desc>Stata Graph - diff_mod23_3y_tc</desc>
	<rect x="0" y="0" width="3960" height="2880" style="fill:#EAF2F3;stroke:none"/>
	<rect x="0.00" y="0.00" width="3959.88" height="2880.00" style="fill:#FFFFFF"/>
	<rect x="2.88" y="2.88" width="3954.12" height="2874.24" style="fill:none;stroke:#FFFFFF;stroke-width:5.76"/>
	<rect x="559.10" y="419.90" width="3299.92" height="2089.34" style="fill:#FFFFFF"/>
	<rect x="561.98" y="422.78" width="3294.16" height="2083.58" style="fill:none;stroke:#FFFFFF;stroke-width:5.76"/>
	<line x1="559.10" y1="2249.60" x2="3859.02" y2="2249.60" style="stroke:#EAF2F3;stroke-width:8.64"/>
	<line x1="559.10" y1="2053.32" x2="3859.02" y2="2053.32" style="stroke:#EAF2F3;stroke-width:8.64"/>
	<line x1="559.10" y1="1857.05" x2="3859.02" y2="1857.05" style="stroke:#EAF2F3;stroke-width:8.64"/>
	<line x1="559.10" y1="1660.78" x2="3859.02" y2="1660.78" style="stroke:#EAF2F3;stroke-width:8.64"/>
	<line x1="559.10" y1="1464.63" x2="3859.02" y2="1464.63" style="stroke:#EAF2F3;stroke-width:8.64"/>
	<line x1="559.10" y1="1268.35" x2="3859.02" y2="1268.35" style="stroke:#EAF2F3;stroke-width:8.64"/>
	<line x1="559.10" y1="1072.08" x2="3859.02" y2="1072.08" style="stroke:#EAF2F3;stroke-width:8.64"/>
	<line x1="559.10" y1="875.81" x2="3859.02" y2="875.81" style="stroke:#EAF2F3;stroke-width:8.64"/>
	<line x1="559.10" y1="679.53" x2="3859.02" y2="679.53" style="stroke:#EAF2F3;stroke-width:8.64"/>
	<line x1="559.10" y1="1464.63" x2="3859.02" y2="1464.63" style="stroke:#1A476F;stroke-width:8.64"/>
	<defs>
		<path id="path_Vbfhvcdb" d="M778.88 1480.10 L778.88 1480.10 L795.71 1480.10 L795.71 1481.83 L812.54 1481.83 L812.54 1482.45 L829.37 1482.45 L829.37 1481.71 L846.20 1481.71 L846.20 1482.57 L863.16 1482.57 L863.16 1482.70 L879.99 1482.70 L879.99 1486.16 L896.82 1486.16 L896.82 1486.28 L913.65 1486.28 L913.65 1487.77 L930.48 1487.77 L930.48 1490.49 L947.31 1490.49 L947.31 1490.62 L964.26 1490.62 L964.26 1489.63 L981.09 1489.63 L981.09 1492.22 L997.92 1492.22 L997.92 1493.09 L1014.75 1493.09 L1014.75 1493.83 L1031.58 1493.83 L1031.58 1493.96 L1048.53 1493.96 L1048.53 1495.44 L1065.36 1495.44 L1065.36 1496.43 L1082.19 1496.43 L1082.19 1495.81 L1099.02 1495.81 L1099.02 1497.30 L1115.85 1497.30 L1115.85 1496.56 L1132.68 1496.56 L1132.68 1497.42 L1149.64 1497.42 L1149.64 1500.02 L1166.47 1500.02 L1166.47 1502.74 L1183.30 1502.74 L1183.30 1502.50 L1200.13 1502.50 L1200.13 1504.48 L1216.96 1504.48 L1216.96 1504.35 L1233.79 1504.35 L1233.79 1504.72 L1250.74 1504.72 L1250.74 1506.33 L1267.57 1506.33 L1267.57 1506.95 L1284.40 1506.95 L1284.40 1505.59 L1301.23 1505.59 L1301.23 1504.72 L1318.06 1504.72 L1318.06 1505.96 L1334.89 1505.96 L1334.89 1505.47 L1351.85 1505.47 L1351.85 1507.07 L1368.67 1507.07 L1368.67 1505.84 L1385.51 1505.84 L1385.51 1506.70 L1402.34 1506.70 L1402.34 1508.31 L1419.16 1508.31 L1419.16 1510.29 L1436.12 1510.29 L1436.12 1510.91 L1452.95 1510.91 L1452.95 1512.02 L1469.78 1512.02 L1469.78 1511.90 L1486.61 1511.90 L1486.61 1513.63 L1503.44 1513.63 L1503.44 1514.13 L1520.27 1514.13 L1520.27 1514.62 L1537.22 1514.62 L1537.22 1514.99 L1554.05 1514.99 L1554.05 1514.13 L1570.88 1514.13 L1570.88 1514.99 L1587.71 1514.99 L1587.71 1516.36 L1604.54 1516.36 L1604.54 1518.34 L1621.37 1518.34 L1621.37 1516.85 L1638.33 1516.85 L1638.33 1518.71 L1655.16 1518.71 L1655.16 1518.95 L1671.99 1518.95 L1671.99 1517.96 L1688.82 1517.96 L1688.82 1519.57 L1705.65 1519.57 L1705.65 1521.06 L1722.48 1521.06 L1722.48 1522.17 L1739.43 1522.17 L1739.43 1521.93 L1756.26 1521.93 L1756.26 1522.54 L1773.09 1522.54 L1773.09 1523.78 L1789.92 1523.78 L1789.92 1524.03 L1806.75 1524.03 L1806.75 1524.28 L1823.70 1524.28 L1823.70 1526.38 L1840.53 1526.38 L1840.53 1527.12 L1857.36 1527.12 L1857.36 1528.86 L1874.19 1528.86 L1874.19 1528.73 L1891.02 1528.73 L1891.02 1528.86 L1907.85 1528.86 L1907.85 1528.98 L1924.81 1528.98 L1924.81 1529.85 L1941.64 1529.85 L1941.64 1528.73 L1958.47 1528.73 L1958.47 1529.60 L1975.30 1529.60 L1975.30 1528.48 L1992.13 1528.48 L1992.13 1528.36 L2008.96 1528.36 L2008.96 1527.74 L2025.91 1527.74 L2025.91 1527.37 L2042.74 1527.37 L2042.74 1525.76 L2059.57 1525.76 L2059.57 1526.63 L2076.40 1526.63 L2076.40 1527.74 L2093.23 1527.74 L2093.23 1527.99 L2110.18 1527.99 L2110.18 1529.60 L2127.01 1529.60 L2127.01 1530.96 L2143.84 1530.96 L2143.84 1531.45 L2160.68 1531.45 L2160.68 1531.70 L2177.51 1531.70 L2177.51 1532.07 L2194.34 1532.07 L2194.34 1533.19 L2211.29 1533.19 L2211.29 1532.82 L2228.12 1532.82 L2228.12 1534.55 L2244.95 1534.55 L2244.95 1533.56 L2261.78 1533.56 L2261.78 1533.19 L2278.61 1533.19 L2278.61 1533.43 L2295.44 1533.43 L2295.44 1534.18 L2312.39 1534.18 L2312.39 1534.55 L2329.22 1534.55 L2329.22 1534.42 L2346.05 1534.42 L2346.05 1534.80 L2362.88 1534.80 L2362.88 1535.54 L2379.71 1535.54 L2379.71 1536.65 L2396.54 1536.65 L2396.54 1536.03 L2413.50 1536.03 L2413.50 1538.51 L2430.33 1538.51 L2430.33 1537.52 L2447.16 1537.52 L2447.16 1538.76 L2463.99 1538.76 L2463.99 1539.37 L2480.82 1539.37 L2480.82 1539.25 L2497.77 1539.25 L2497.77 1540.49 L2514.60 1540.49 L2514.60 1541.23 L2531.43 1541.23 L2531.43 1541.23 L2548.26 1541.23 L2548.26 1540.49 L2565.09 1540.49 L2565.09 1539.50 L2581.92 1539.50 L2581.92 1539.75 L2598.87 1539.75 L2598.87 1539.13 L2615.70 1539.13 L2615.70 1538.14 L2632.53 1538.14 L2632.53 1536.28 L2649.36 1536.28 L2649.36 1536.03 L2666.19 1536.03 L2666.19 1534.55 L2683.02 1534.55 L2683.02 1535.79 L2699.98 1535.79 L2699.98 1535.41 L2716.81 1535.41 L2716.81 1533.06 L2733.64 1533.06 L2733.64 1533.56 L2750.47 1533.56 L2750.47 1533.06 L2767.30 1533.06 L2767.30 1533.93 L2784.25 1533.93 L2784.25 1534.80 L2801.08 1534.80 L2801.08 1534.30 L2817.91 1534.30 L2817.91 1534.67 L2834.74 1534.67 L2834.74 1534.18 L2851.57 1534.18 L2851.57 1535.04 L2868.40 1535.04 L2868.40 1536.90 L2885.36 1536.90 L2885.36 1537.15 L2902.18 1537.15 L2902.18 1537.27 L2919.01 1537.27 L2919.01 1536.65 L2935.84 1536.65 L2935.84 1536.28 L2952.68 1536.28 L2952.68 1536.28 L2969.51 1536.28 L2969.51 1536.28 L2986.46 1536.28 L2986.46 1535.91 L3003.29 1535.91 L3003.29 1536.90 L3020.12 1536.90 L3020.12 1537.89 L3036.95 1537.89 L3036.95 1537.89 L3053.78 1537.89 L3053.78 1539.00 L3070.61 1539.00 L3070.61 1539.75 L3087.56 1539.75 L3087.56 1540.61 L3104.39 1540.61 L3104.39 1541.60 L3121.22 1541.60 L3121.22 1541.60 L3138.05 1541.60 L3138.05 1541.60 L3154.88 1541.60 L3154.88 1541.23 L3171.84 1541.23 L3171.84 1540.24 L3188.67 1540.24 L3188.67 1540.49 L3205.50 1540.49 L3205.50 1540.74 L3222.33 1540.74 L3222.33 1541.11 L3239.16 1541.11 L3239.16 1540.74 L3255.99 1540.74 L3255.99 1541.11 L3272.94 1541.11 L3272.94 1541.35 L3289.77 1541.35 L3289.77 1543.58 L3306.60 1543.58 L3306.60 1543.71 L3323.43 1543.71 L3323.43 1545.19 L3340.26 1545.19 L3340.26 1546.55 L3357.09 1546.55 L3357.09 1547.05 L3374.04 1547.05 L3374.04 1548.04 L3390.87 1548.04 L3390.87 1547.05 L3407.70 1547.05 L3407.70 1547.67 L3424.53 1547.67 L3424.53 1547.42 L3441.36 1547.42 L3441.36 1547.54 L3458.19 1547.54 L3458.19 1548.41 L3475.15 1548.41 L3475.15 1548.28 L3491.98 1548.28 L3491.98 1547.79 L3508.81 1547.79 L3508.81 1549.52 L3525.64 1549.52 L3525.64 1550.02 L3542.47 1550.02 L3542.47 1548.78 L3559.42 1548.78 L3559.42 1549.03 L3576.25 1549.03 L3576.25 1549.27 L3593.08 1549.27 L3593.08 1549.65 L3609.91 1549.65 L3609.91 1549.15 L3626.74 1549.15 L3626.74 1550.02 L3643.57 1550.02 L3643.57 1550.14 L3660.53 1550.14 L3660.53 1550.51 L3677.36 1550.51 L3677.36 1551.75 L3694.18 1551.75 L3694.18 1552.24 L3711.01 1552.24 L3711.01 1553.85 L3727.84 1553.85 L3727.84 1553.23 L3744.68 1553.23 L3744.68 1554.35 L3761.63 1554.35 L3761.63 1555.46 L3778.46 1555.46 L3778.46 1556.20 L3795.29 1556.20 L3795.29 1555.59 L3795.29 1400.65 L3795.29 1401.39 L3778.46 1401.39 L3778.46 1400.65 L3761.63 1400.65 L3761.63 1399.66 L3744.68 1399.66 L3744.68 1398.67 L3727.84 1398.67 L3727.84 1399.53 L3711.01 1399.53 L3711.01 1398.05 L3694.18 1398.05 L3694.18 1397.55 L3677.36 1397.55 L3677.36 1396.44 L3660.53 1396.44 L3660.53 1396.31 L3643.57 1396.31 L3643.57 1396.31 L3626.74 1396.31 L3626.74 1395.82 L3609.91 1395.82 L3609.91 1396.31 L3593.08 1396.31 L3593.08 1395.94 L3576.25 1395.94 L3576.25 1395.94 L3559.42 1395.94 L3559.42 1396.07 L3542.47 1396.07 L3542.47 1397.43 L3525.64 1397.43 L3525.64 1397.18 L3508.81 1397.18 L3508.81 1395.82 L3491.98 1395.82 L3491.98 1396.44 L3475.15 1396.44 L3475.15 1396.81 L3458.19 1396.81 L3458.19 1396.07 L3441.36 1396.07 L3441.36 1396.19 L3424.53 1396.19 L3424.53 1396.69 L3407.70 1396.69 L3407.70 1396.31 L3390.87 1396.31 L3390.87 1397.55 L3374.04 1397.55 L3374.04 1396.81 L3357.09 1396.81 L3357.09 1396.44 L3340.26 1396.44 L3340.26 1395.32 L3323.43 1395.32 L3323.43 1393.96 L3306.60 1393.96 L3306.60 1394.09 L3289.77 1394.09 L3289.77 1392.11 L3272.94 1392.11 L3272.94 1392.11 L3255.99 1392.11 L3255.99 1391.98 L3239.16 1391.98 L3239.16 1392.60 L3222.33 1392.60 L3222.33 1392.35 L3205.50 1392.35 L3205.50 1392.35 L3188.67 1392.35 L3188.67 1392.23 L3171.84 1392.23 L3171.84 1393.47 L3154.88 1393.47 L3154.88 1394.09 L3138.05 1394.09 L3138.05 1394.33 L3121.22 1394.33 L3121.22 1394.71 L3104.39 1394.71 L3104.39 1394.09 L3087.56 1394.09 L3087.56 1393.47 L3070.61 1393.47 L3070.61 1392.85 L3053.78 1392.85 L3053.78 1391.98 L3036.95 1391.98 L3036.95 1391.86 L3020.12 1391.86 L3020.12 1391.12 L3003.29 1391.12 L3003.29 1390.25 L2986.46 1390.25 L2986.46 1390.75 L2969.51 1390.75 L2969.51 1390.87 L2952.68 1390.87 L2952.68 1391.24 L2935.84 1391.24 L2935.84 1391.86 L2919.01 1391.86 L2919.01 1392.85 L2902.18 1392.85 L2902.18 1392.97 L2885.36 1392.97 L2885.36 1392.85 L2868.40 1392.85 L2868.40 1391.12 L2851.57 1391.12 L2851.57 1390.62 L2834.74 1390.62 L2834.74 1391.36 L2817.91 1391.36 L2817.91 1391.24 L2801.08 1391.24 L2801.08 1391.98 L2784.25 1391.98 L2784.25 1391.24 L2767.30 1391.24 L2767.30 1390.50 L2750.47 1390.50 L2750.47 1391.36 L2733.64 1391.36 L2733.64 1390.99 L2716.81 1390.99 L2716.81 1393.34 L2699.98 1393.34 L2699.98 1393.96 L2683.02 1393.96 L2683.02 1392.85 L2666.19 1392.85 L2666.19 1394.46 L2649.36 1394.46 L2649.36 1395.08 L2632.53 1395.08 L2632.53 1397.06 L2615.70 1397.06 L2615.70 1398.29 L2598.87 1398.29 L2598.87 1399.16 L2581.92 1399.16 L2581.92 1399.28 L2565.09 1399.28 L2565.09 1400.40 L2548.26 1400.40 L2548.26 1401.51 L2531.43 1401.51 L2531.43 1401.76 L2514.60 1401.76 L2514.60 1401.39 L2497.77 1401.39 L2497.77 1400.65 L2480.82 1400.65 L2480.82 1401.14 L2463.99 1401.14 L2463.99 1400.52 L2447.16 1400.52 L2447.16 1399.66 L2430.33 1399.66 L2430.33 1400.77 L2413.50 1400.77 L2413.50 1398.54 L2396.54 1398.54 L2396.54 1399.28 L2379.71 1399.28 L2379.71 1398.54 L2362.88 1398.54 L2362.88 1398.05 L2346.05 1398.05 L2346.05 1397.92 L2329.22 1397.92 L2329.22 1398.42 L2312.39 1398.42 L2312.39 1398.05 L2295.44 1398.05 L2295.44 1397.43 L2278.61 1397.43 L2278.61 1397.30 L2261.78 1397.30 L2261.78 1398.05 L2244.95 1398.05 L2244.95 1399.28 L2228.12 1399.28 L2228.12 1398.05 L2211.29 1398.05 L2211.29 1398.67 L2194.34 1398.67 L2194.34 1397.43 L2177.51 1397.43 L2177.51 1397.30 L2160.68 1397.30 L2160.68 1397.30 L2143.84 1397.30 L2143.84 1397.06 L2127.01 1397.06 L2127.01 1395.82 L2110.18 1395.82 L2110.18 1394.58 L2093.23 1394.58 L2093.23 1394.58 L2076.40 1394.58 L2076.40 1393.72 L2059.57 1393.72 L2059.57 1393.22 L2042.74 1393.22 L2042.74 1395.08 L2025.91 1395.08 L2025.91 1395.94 L2008.96 1395.94 L2008.96 1396.69 L1992.13 1396.69 L1992.13 1397.30 L1975.30 1397.30 L1975.30 1398.54 L1958.47 1398.54 L1958.47 1398.29 L1941.64 1398.29 L1941.64 1399.78 L1924.81 1399.78 L1924.81 1399.28 L1907.85 1399.28 L1907.85 1399.53 L1891.02 1399.53 L1891.02 1399.90 L1874.19 1399.90 L1874.19 1400.40 L1857.36 1400.40 L1857.36 1399.28 L1840.53 1399.28 L1840.53 1398.91 L1823.70 1398.91 L1823.70 1397.18 L1806.75 1397.18 L1806.75 1397.43 L1789.92 1397.43 L1789.92 1397.80 L1773.09 1397.80 L1773.09 1396.93 L1756.26 1396.93 L1756.26 1396.81 L1739.43 1396.81 L1739.43 1397.43 L1722.48 1397.43 L1722.48 1396.81 L1705.65 1396.81 L1705.65 1395.70 L1688.82 1395.70 L1688.82 1394.58 L1671.99 1394.58 L1671.99 1396.07 L1655.16 1396.07 L1655.16 1396.31 L1638.33 1396.31 L1638.33 1394.95 L1621.37 1394.95 L1621.37 1397.06 L1604.54 1397.06 L1604.54 1395.82 L1587.71 1395.82 L1587.71 1395.32 L1570.88 1395.32 L1570.88 1394.95 L1554.05 1394.95 L1554.05 1396.31 L1537.22 1396.31 L1537.22 1396.69 L1520.27 1396.69 L1520.27 1396.81 L1503.44 1396.81 L1503.44 1397.18 L1486.61 1397.18 L1486.61 1396.19 L1469.78 1396.19 L1469.78 1396.93 L1452.95 1396.93 L1452.95 1396.81 L1436.12 1396.81 L1436.12 1397.06 L1419.16 1397.06 L1419.16 1396.19 L1402.34 1396.19 L1402.34 1395.70 L1385.51 1395.70 L1385.51 1395.94 L1368.67 1395.94 L1368.67 1398.42 L1351.85 1398.42 L1351.85 1397.80 L1334.89 1397.80 L1334.89 1399.41 L1318.06 1399.41 L1318.06 1399.41 L1301.23 1399.41 L1301.23 1401.39 L1284.40 1401.39 L1284.40 1404.11 L1267.57 1404.11 L1267.57 1404.85 L1250.74 1404.85 L1250.74 1404.61 L1233.79 1404.61 L1233.79 1405.47 L1216.96 1405.47 L1216.96 1406.96 L1200.13 1406.96 L1200.13 1406.46 L1183.30 1406.46 L1183.30 1408.20 L1166.47 1408.20 L1166.47 1406.96 L1149.64 1406.96 L1149.64 1406.09 L1132.68 1406.09 L1132.68 1406.96 L1115.85 1406.96 L1115.85 1409.43 L1099.02 1409.43 L1099.02 1409.93 L1082.19 1409.93 L1082.19 1412.53 L1065.36 1412.53 L1065.36 1413.52 L1048.53 1413.52 L1048.53 1414.01 L1031.58 1414.01 L1031.58 1415.87 L1014.75 1415.87 L1014.75 1417.35 L997.92 1417.35 L997.92 1418.84 L981.09 1418.84 L981.09 1419.09 L964.26 1419.09 L964.26 1422.55 L947.31 1422.55 L947.31 1425.15 L930.48 1425.15 L930.48 1425.15 L913.65 1425.15 L913.65 1427.01 L896.82 1427.01 L896.82 1430.10 L879.99 1430.10 L879.99 1429.85 L863.16 1429.85 L863.16 1433.32 L846.20 1433.32 L846.20 1435.92 L829.37 1435.92 L829.37 1440.37 L812.54 1440.37 L812.54 1443.84 L795.71 1443.84 L795.71 1446.19 L778.88 1446.19 L778.88 1480.10 Z" stroke-linejoin="round"/>
	</defs>
	<defs>
		<clipPath id="clipPath_CAzAZBAR">
			<use xlink:href="#path_Vbfhvcdb"/>
		</clipPath>
	</defs>
	<use xlink:href="#path_Vbfhvcdb" style="stroke:none;fill:#999999;fill-opacity:0.65"/>
	<use xlink:href="#path_Vbfhvcdb" style="fill:none;stroke:#808080;stroke-opacity:0.65;stroke-width:17.28" clip-path="url(#clipPath_CAzAZBAR)"/>
	<path d=" M778.76 1463.14 L795.59 1463.14 L795.59 1462.89 L812.54 1462.89 L812.54 1461.41 L829.37 1461.41 L829.37 1458.81 L846.20 1458.81 L846.20 1458.07 L863.03 1458.07 L863.03 1456.34 L879.86 1456.34 L879.86 1458.19 L896.69 1458.19 L896.69 1456.71 L913.65 1456.71 L913.65 1456.58 L930.48 1456.58 L930.48 1457.94 L947.31 1457.94 L947.31 1456.58 L964.14 1456.58 L964.14 1454.48 L980.97 1454.48 L980.97 1455.59 L997.80 1455.59 L997.80 1455.35 L1014.75 1455.35 L1014.75 1454.97 L1031.58 1454.97 L1031.58 1453.98 L1048.41 1453.98 L1048.41 1454.60 L1065.24 1454.60 L1065.24 1454.48 L1082.07 1454.48 L1082.07 1452.99 L1099.02 1452.99 L1099.02 1453.37 L1115.85 1453.37 L1115.85 1451.76 L1132.68 1451.76 L1132.68 1451.88 L1149.51 1451.88 L1149.51 1453.61 L1166.34 1453.61 L1166.34 1455.47 L1183.17 1455.47 L1183.17 1454.48 L1200.13 1454.48 L1200.13 1455.72 L1216.96 1455.72 L1216.96 1454.97 L1233.79 1454.97 L1233.79 1454.73 L1250.62 1454.73 L1250.62 1455.59 L1267.45 1455.59 L1267.45 1455.59 L1284.28 1455.59 L1284.28 1453.61 L1301.23 1453.61 L1301.23 1452.13 L1318.06 1452.13 L1318.06 1452.75 L1334.89 1452.75 L1334.89 1451.63 L1351.72 1451.63 L1351.72 1452.87 L1368.55 1452.87 L1368.55 1451.01 L1385.51 1451.01 L1385.51 1451.26 L1402.34 1451.26 L1402.34 1452.25 L1419.16 1452.25 L1419.16 1453.74 L1435.99 1453.74 L1435.99 1453.86 L1452.83 1453.86 L1452.83 1454.60 L1469.65 1454.60 L1469.65 1454.11 L1486.61 1454.11 L1486.61 1455.47 L1503.44 1455.47 L1503.44 1455.47 L1520.27 1455.47 L1520.27 1455.72 L1537.10 1455.72 L1537.10 1455.72 L1553.93 1455.72 L1553.93 1454.60 L1570.76 1454.60 L1570.76 1455.22 L1587.71 1455.22 L1587.71 1456.21 L1604.54 1456.21 L1604.54 1457.70 L1621.37 1457.70 L1621.37 1455.96 L1638.20 1455.96 L1638.20 1457.57 L1655.03 1457.57 L1655.03 1457.57 L1671.86 1457.57 L1671.86 1456.34 L1688.82 1456.34 L1688.82 1457.70 L1705.65 1457.70 L1705.65 1458.93 L1722.48 1458.93 L1722.48 1459.80 L1739.31 1459.80 L1739.31 1459.43 L1756.14 1459.43 L1756.14 1459.80 L1773.09 1459.80 L1773.09 1460.79 L1789.92 1460.79 L1789.92 1460.79 L1806.75 1460.79 L1806.75 1460.79 L1823.58 1460.79 L1823.58 1462.77 L1840.41 1462.77 L1840.41 1463.27 L1857.24 1463.27 L1857.24 1464.75 L1874.19 1464.75 L1874.19 1464.38 L1891.02 1464.38 L1891.02 1464.26 L1907.85 1464.26 L1907.85 1464.26 L1924.68 1464.26 L1924.68 1464.87 L1941.51 1464.87 L1941.51 1463.64 L1958.34 1463.64 L1958.34 1464.13 L1975.30 1464.13 L1975.30 1462.89 L1992.13 1462.89 L1992.13 1462.65 L2008.96 1462.65 L2008.96 1461.90 L2025.79 1461.90 L2025.79 1461.29 L2042.62 1461.29 L2042.62 1459.55 L2059.45 1459.55 L2059.45 1460.30 L2076.40 1460.30 L2076.40 1461.16 L2093.23 1461.16 L2093.23 1461.29 L2110.06 1461.29 L2110.06 1462.77 L2126.89 1462.77 L2126.89 1464.13 L2143.72 1464.13 L2143.72 1464.38 L2160.68 1464.38 L2160.68 1464.50 L2177.51 1464.50 L2177.51 1464.75 L2194.34 1464.75 L2194.34 1465.99 L2211.16 1465.99 L2211.16 1465.49 L2227.99 1465.49 L2227.99 1466.98 L2244.82 1466.98 L2244.82 1465.86 L2261.78 1465.86 L2261.78 1465.25 L2278.61 1465.25 L2278.61 1465.49 L2295.44 1465.49 L2295.44 1466.11 L2312.27 1466.11 L2312.27 1466.61 L2329.10 1466.61 L2329.10 1466.24 L2345.93 1466.24 L2345.93 1466.48 L2362.88 1466.48 L2362.88 1467.10 L2379.71 1467.10 L2379.71 1467.97 L2396.54 1467.97 L2396.54 1467.35 L2413.37 1467.35 L2413.37 1469.70 L2430.20 1469.70 L2430.20 1468.71 L2447.16 1468.71 L2447.16 1469.70 L2463.99 1469.70 L2463.99 1470.32 L2480.82 1470.32 L2480.82 1470.07 L2497.65 1470.07 L2497.65 1471.06 L2514.48 1471.06 L2514.48 1471.56 L2531.31 1471.56 L2531.31 1471.43 L2548.26 1471.43 L2548.26 1470.44 L2565.09 1470.44 L2565.09 1469.45 L2581.92 1469.45 L2581.92 1469.58 L2598.75 1469.58 L2598.75 1468.71 L2615.58 1468.71 L2615.58 1467.60 L2632.41 1467.60 L2632.41 1465.74 L2649.36 1465.74 L2649.36 1465.25 L2666.19 1465.25 L2666.19 1463.76 L2683.02 1463.76 L2683.02 1464.87 L2699.85 1464.87 L2699.85 1464.38 L2716.68 1464.38 L2716.68 1462.15 L2733.51 1462.15 L2733.51 1462.52 L2750.47 1462.52 L2750.47 1461.78 L2767.30 1461.78 L2767.30 1462.65 L2784.13 1462.65 L2784.13 1463.39 L2800.96 1463.39 L2800.96 1462.77 L2817.79 1462.77 L2817.79 1463.02 L2834.74 1463.02 L2834.74 1462.40 L2851.57 1462.40 L2851.57 1463.14 L2868.40 1463.14 L2868.40 1464.87 L2885.23 1464.87 L2885.23 1465.12 L2902.06 1465.12 L2902.06 1465.12 L2918.89 1465.12 L2918.89 1464.38 L2935.84 1464.38 L2935.84 1463.76 L2952.68 1463.76 L2952.68 1463.64 L2969.51 1463.64 L2969.51 1463.51 L2986.34 1463.51 L2986.34 1463.14 L3003.16 1463.14 L3003.16 1464.13 L3019.99 1464.13 L3019.99 1465.00 L3036.95 1465.00 L3036.95 1465.00 L3053.78 1465.00 L3053.78 1465.99 L3070.61 1465.99 L3070.61 1466.61 L3087.44 1466.61 L3087.44 1467.47 L3104.27 1467.47 L3104.27 1468.22 L3121.10 1468.22 L3121.10 1467.97 L3138.05 1467.97 L3138.05 1467.97 L3154.88 1467.97 L3154.88 1467.35 L3171.71 1467.35 L3171.71 1466.24 L3188.54 1466.24 L3188.54 1466.48 L3205.37 1466.48 L3205.37 1466.61 L3222.33 1466.61 L3222.33 1466.85 L3239.16 1466.85 L3239.16 1466.48 L3255.99 1466.48 L3255.99 1466.61 L3272.82 1466.61 L3272.82 1466.73 L3289.65 1466.73 L3289.65 1468.83 L3306.48 1468.83 L3306.48 1468.83 L3323.43 1468.83 L3323.43 1470.32 L3340.26 1470.32 L3340.26 1471.56 L3357.09 1471.56 L3357.09 1472.05 L3373.92 1472.05 L3373.92 1472.92 L3390.75 1472.92 L3390.75 1471.68 L3407.58 1471.68 L3407.58 1472.18 L3424.53 1472.18 L3424.53 1471.93 L3441.36 1471.93 L3441.36 1471.80 L3458.19 1471.80 L3458.19 1472.67 L3475.02 1472.67 L3475.02 1472.42 L3491.85 1472.42 L3491.85 1471.80 L3508.81 1471.80 L3508.81 1473.41 L3525.64 1473.41 L3525.64 1473.78 L3542.47 1473.78 L3542.47 1472.55 L3559.30 1472.55 L3559.30 1472.55 L3576.13 1472.55 L3576.13 1472.67 L3592.96 1472.67 L3592.96 1473.04 L3609.91 1473.04 L3609.91 1472.55 L3626.74 1472.55 L3626.74 1473.17 L3643.57 1473.17 L3643.57 1473.29 L3660.40 1473.29 L3660.40 1473.54 L3677.23 1473.54 L3677.23 1474.77 L3694.06 1474.77 L3694.06 1475.27 L3711.01 1475.27 L3711.01 1476.75 L3727.84 1476.75 L3727.84 1476.01 L3744.68 1476.01 L3744.68 1477.00 L3761.51 1477.00 L3761.51 1478.12 L3778.34 1478.12 L3778.34 1478.86 L3795.16 1478.86 L3795.16 1478.12" stroke-linejoin="round" style="fill:none;stroke:#000000;stroke-width:8.64"/>
	<line x1="559.10" y1="2509.23" x2="559.10" y2="419.90" style="stroke:#000000;stroke-width:5.76"/>
	<line x1="559.10" y1="2445.87" x2="519.13" y2="2445.87" style="stroke:#000000;stroke-width:5.76"/>
	<text x="499.08" y="2480.90" style="font-family:'Helvetica';font-size:99.99px;fill:#000000" text-anchor="end">-0.25</text>
	<line x1="559.10" y1="2249.60" x2="519.13" y2="2249.60" style="stroke:#000000;stroke-width:5.76"/>
	<text x="499.08" y="2284.63" style="font-family:'Helvetica';font-size:99.99px;fill:#000000" text-anchor="end">-0.20</text>
	<line x1="559.10" y1="2053.32" x2="519.13" y2="2053.32" style="stroke:#000000;stroke-width:5.76"/>
	<text x="499.08" y="2088.35" style="font-family:'Helvetica';font-size:99.99px;fill:#000000" text-anchor="end">-0.15</text>
	<line x1="559.10" y1="1857.05" x2="519.13" y2="1857.05" style="stroke:#000000;stroke-width:5.76"/>
	<text x="499.08" y="1892.08" style="font-family:'Helvetica';font-size:99.99px;fill:#000000" text-anchor="end">-0.10</text>
	<line x1="559.10" y1="1660.78" x2="519.13" y2="1660.78" style="stroke:#000000;stroke-width:5.76"/>
	<text x="499.08" y="1695.81" style="font-family:'Helvetica';font-size:99.99px;fill:#000000" text-anchor="end">-0.05</text>
	<line x1="559.10" y1="1464.63" x2="519.13" y2="1464.63" style="stroke:#000000;stroke-width:5.76"/>
	<text x="499.08" y="1499.66" style="font-family:'Helvetica';font-size:99.99px;fill:#000000" text-anchor="end">0.00</text>
	<line x1="559.10" y1="1268.35" x2="519.13" y2="1268.35" style="stroke:#000000;stroke-width:5.76"/>
	<text x="499.08" y="1303.38" style="font-family:'Helvetica';font-size:99.99px;fill:#000000" text-anchor="end">0.05</text>
	<line x1="559.10" y1="1072.08" x2="519.13" y2="1072.08" style="stroke:#000000;stroke-width:5.76"/>
	<text x="499.08" y="1107.11" style="font-family:'Helvetica';font-size:99.99px;fill:#000000" text-anchor="end">0.10</text>
	<line x1="559.10" y1="875.81" x2="519.13" y2="875.81" style="stroke:#000000;stroke-width:5.76"/>
	<text x="499.08" y="910.83" style="font-family:'Helvetica';font-size:99.99px;fill:#000000" text-anchor="end">0.15</text>
	<line x1="559.10" y1="679.53" x2="519.13" y2="679.53" style="stroke:#000000;stroke-width:5.76"/>
	<text x="499.08" y="714.56" style="font-family:'Helvetica';font-size:99.99px;fill:#000000" text-anchor="end">0.20</text>
	<line x1="559.10" y1="483.26" x2="519.13" y2="483.26" style="stroke:#000000;stroke-width:5.76"/>
	<text x="499.08" y="518.29" style="font-family:'Helvetica';font-size:99.99px;fill:#000000" text-anchor="end">0.25</text>
	<text x="190.71" y="1464.63" style="font-family:'Helvetica';font-size:99.99px;fill:#000000" transform="rotate(-90 190.71,1464.63)" text-anchor="middle">Difference in Probabilities</text>
	<line x1="559.10" y1="2509.23" x2="3859.02" y2="2509.23" style="stroke:#000000;stroke-width:5.76"/>
	<line x1="622.46" y1="2509.23" x2="622.46" y2="2549.21" style="stroke:#000000;stroke-width:5.76"/>
	<text x="622.46" y="2625.15" style="font-family:'Helvetica';font-size:79.94px;fill:#000000" text-anchor="middle">0</text>
	<line x1="812.91" y1="2509.23" x2="812.91" y2="2549.21" style="stroke:#000000;stroke-width:5.76"/>
	<text x="812.91" y="2625.15" style="font-family:'Helvetica';font-size:79.94px;fill:#000000" text-anchor="middle">.3</text>
	<line x1="1003.24" y1="2509.23" x2="1003.24" y2="2549.21" style="stroke:#000000;stroke-width:5.76"/>
	<text x="1003.24" y="2625.15" style="font-family:'Helvetica';font-size:79.94px;fill:#000000" text-anchor="middle">.6</text>
	<line x1="1193.69" y1="2509.23" x2="1193.69" y2="2549.21" style="stroke:#000000;stroke-width:5.76"/>
	<text x="1193.69" y="2625.15" style="font-family:'Helvetica';font-size:79.94px;fill:#000000" text-anchor="middle">.9</text>
	<line x1="1384.02" y1="2509.23" x2="1384.02" y2="2549.21" style="stroke:#000000;stroke-width:5.76"/>
	<text x="1384.02" y="2625.15" style="font-family:'Helvetica';font-size:79.94px;fill:#000000" text-anchor="middle">1.2</text>
	<line x1="1574.47" y1="2509.23" x2="1574.47" y2="2549.21" style="stroke:#000000;stroke-width:5.76"/>
	<text x="1574.47" y="2625.15" style="font-family:'Helvetica';font-size:79.94px;fill:#000000" text-anchor="middle">1.5</text>
	<line x1="1764.80" y1="2509.23" x2="1764.80" y2="2549.21" style="stroke:#000000;stroke-width:5.76"/>
	<text x="1764.80" y="2625.15" style="font-family:'Helvetica';font-size:79.94px;fill:#000000" text-anchor="middle">1.8</text>
	<line x1="1955.25" y1="2509.23" x2="1955.25" y2="2549.21" style="stroke:#000000;stroke-width:5.76"/>
	<text x="1955.25" y="2625.15" style="font-family:'Helvetica';font-size:79.94px;fill:#000000" text-anchor="middle">2.1</text>
	<line x1="2145.58" y1="2509.23" x2="2145.58" y2="2549.21" style="stroke:#000000;stroke-width:5.76"/>
	<text x="2145.58" y="2625.15" style="font-family:'Helvetica';font-size:79.94px;fill:#000000" text-anchor="middle">2.4</text>
	<line x1="2336.03" y1="2509.23" x2="2336.03" y2="2549.21" style="stroke:#000000;stroke-width:5.76"/>
	<text x="2336.03" y="2625.15" style="font-family:'Helvetica';font-size:79.94px;fill:#000000" text-anchor="middle">2.7</text>
	<line x1="2526.48" y1="2509.23" x2="2526.48" y2="2549.21" style="stroke:#000000;stroke-width:5.76"/>
	<text x="2526.48" y="2625.15" style="font-family:'Helvetica';font-size:79.94px;fill:#000000" text-anchor="middle">3</text>
	<line x1="2716.81" y1="2509.23" x2="2716.81" y2="2549.21" style="stroke:#000000;stroke-width:5.76"/>
	<text x="2716.81" y="2625.15" style="font-family:'Helvetica';font-size:79.94px;fill:#000000" text-anchor="middle">3.3</text>
	<line x1="2907.26" y1="2509.23" x2="2907.26" y2="2549.21" style="stroke:#000000;stroke-width:5.76"/>
	<text x="2907.26" y="2625.15" style="font-family:'Helvetica';font-size:79.94px;fill:#000000" text-anchor="middle">3.6</text>
	<line x1="3097.59" y1="2509.23" x2="3097.59" y2="2549.21" style="stroke:#000000;stroke-width:5.76"/>
	<text x="3097.59" y="2625.15" style="font-family:'Helvetica';font-size:79.94px;fill:#000000" text-anchor="middle">3.9</text>
	<line x1="3288.04" y1="2509.23" x2="3288.04" y2="2549.21" style="stroke:#000000;stroke-width:5.76"/>
	<text x="3288.04" y="2625.15" style="font-family:'Helvetica';font-size:79.94px;fill:#000000" text-anchor="middle">4.2</text>
	<line x1="3478.36" y1="2509.23" x2="3478.36" y2="2549.21" style="stroke:#000000;stroke-width:5.76"/>
	<text x="3478.36" y="2625.15" style="font-family:'Helvetica';font-size:79.94px;fill:#000000" text-anchor="middle">4.5</text>
	<line x1="3668.82" y1="2509.23" x2="3668.82" y2="2549.21" style="stroke:#000000;stroke-width:5.76"/>
	<text x="3668.82" y="2625.15" style="font-family:'Helvetica';font-size:79.94px;fill:#000000" text-anchor="middle">4.8</text>
	<line x1="3859.14" y1="2509.23" x2="3859.14" y2="2549.21" style="stroke:#000000;stroke-width:5.76"/>
	<text x="3859.14" y="2625.15" style="font-family:'Helvetica';font-size:79.94px;fill:#000000" text-anchor="middle">5.1</text>
	<text x="2209.06" y="2729.16" style="font-family:'Helvetica';font-size:99.99px;fill:#000000" text-anchor="middle">Time (years)</text>
	<rect x="593.63" y="454.42" width="993.34" height="326.46" style="fill:#FFFFFF"/>
	<rect x="596.51" y="457.30" width="987.58" height="320.70" style="fill:none;stroke:#000000;stroke-width:5.76"/>
	<rect x="636.82" y="497.74" width="374.47" height="99.99" style="fill:#999999;fill-opacity:0.65"/>
	<rect x="641.14" y="502.06" width="365.83" height="91.35" style="fill:none;stroke:#808080;stroke-opacity:0.65;stroke-width:8.64"/>
	<line x1="636.82" y1="687.70" x2="1011.28" y2="687.70" style="stroke:#000000;stroke-width:8.64"/>
	<text x="1071.30" y="582.76" style="font-family:'Helvetica';font-size:99.99px;fill:#000000">CI95%</text>
	<text x="1071.30" y="722.73" style="font-family:'Helvetica';font-size:99.99px;fill:#000000">Difference</text>
	<text x="2209.06" y="369.63" style="font-family:'Helvetica';font-size:110.01px;fill:#000000" text-anchor="middle">from Readmission to 2nd Readmission</text>
	<text x="2209.06" y="215.98" style="font-family:'Helvetica';font-size:139.96px;fill:#1E2D53" text-anchor="middle">Difference in Probabilities at 3 years</text>
</svg>
