<?xml version="1.0" encoding="UTF-8" standalone="no"?>
<!-- This is a Stata 16.1 generated SVG file (http://www.stata.com) -->

<svg version="1.1" width="5.50in" height="4.00in" viewBox="0 0 3960 2880" xmlns="http://www.w3.org/2000/svg" xmlns:xlink="http://www.w3.org/1999/xlink">
	<desc>Stata Graph - diff_mod34</desc>
	<rect x="0" y="0" width="3960" height="2880" style="fill:#EAF2F3;stroke:none"/>
	<rect x="0.00" y="0.00" width="3959.88" height="2880.00" style="fill:#FFFFFF"/>
	<rect x="2.88" y="2.88" width="3954.12" height="2874.24" style="fill:none;stroke:#FFFFFF;stroke-width:5.76"/>
	<rect x="559.10" y="419.90" width="3299.92" height="2089.34" style="fill:#FFFFFF"/>
	<rect x="561.98" y="422.78" width="3294.16" height="2083.58" style="fill:none;stroke:#FFFFFF;stroke-width:5.76"/>
	<line x1="559.10" y1="2200.59" x2="3859.02" y2="2200.59" style="stroke:#EAF2F3;stroke-width:8.64"/>
	<line x1="559.10" y1="1955.19" x2="3859.02" y2="1955.19" style="stroke:#EAF2F3;stroke-width:8.64"/>
	<line x1="559.10" y1="1709.91" x2="3859.02" y2="1709.91" style="stroke:#EAF2F3;stroke-width:8.64"/>
	<line x1="559.10" y1="1464.63" x2="3859.02" y2="1464.63" style="stroke:#EAF2F3;stroke-width:8.64"/>
	<line x1="559.10" y1="1219.22" x2="3859.02" y2="1219.22" style="stroke:#EAF2F3;stroke-width:8.64"/>
	<line x1="559.10" y1="973.94" x2="3859.02" y2="973.94" style="stroke:#EAF2F3;stroke-width:8.64"/>
	<line x1="559.10" y1="728.66" x2="3859.02" y2="728.66" style="stroke:#EAF2F3;stroke-width:8.64"/>
	<line x1="559.10" y1="1464.63" x2="3859.02" y2="1464.63" style="stroke:#1A476F;stroke-width:8.64"/>
	<defs>
		<path id="path_KcEQFLsy" d="M778.88 1468.22 L778.88 1468.22 L795.71 1468.22 L795.71 1468.34 L812.54 1468.34 L812.54 1468.96 L829.37 1468.96 L829.37 1469.08 L846.20 1469.08 L846.20 1469.95 L863.16 1469.95 L863.16 1470.32 L879.99 1470.32 L879.99 1470.94 L896.82 1470.94 L896.82 1471.06 L913.65 1471.06 L913.65 1470.94 L930.48 1470.94 L930.48 1471.68 L947.31 1471.68 L947.31 1472.30 L964.26 1472.30 L964.26 1472.55 L981.09 1472.55 L981.09 1472.92 L997.92 1472.92 L997.92 1473.54 L1014.75 1473.54 L1014.75 1473.66 L1031.58 1473.66 L1031.58 1474.03 L1048.53 1474.03 L1048.53 1474.65 L1065.36 1474.65 L1065.36 1474.90 L1082.19 1474.90 L1082.19 1475.27 L1099.02 1475.27 L1099.02 1475.39 L1115.85 1475.39 L1115.85 1475.64 L1132.68 1475.64 L1132.68 1475.89 L1149.64 1475.89 L1149.64 1476.51 L1166.47 1476.51 L1166.47 1476.38 L1183.30 1476.38 L1183.30 1476.51 L1200.13 1476.51 L1200.13 1476.75 L1216.96 1476.75 L1216.96 1477.25 L1233.79 1477.25 L1233.79 1477.37 L1250.74 1477.37 L1250.74 1477.99 L1267.57 1477.99 L1267.57 1477.74 L1284.40 1477.74 L1284.40 1478.24 L1301.23 1478.24 L1301.23 1478.73 L1318.06 1478.73 L1318.06 1479.48 L1334.89 1479.48 L1334.89 1480.22 L1351.85 1480.22 L1351.85 1480.34 L1368.67 1480.34 L1368.67 1480.72 L1385.51 1480.72 L1385.51 1480.59 L1402.34 1480.59 L1402.34 1481.33 L1419.16 1481.33 L1419.16 1481.33 L1436.12 1481.33 L1436.12 1480.96 L1452.95 1480.96 L1452.95 1481.83 L1469.78 1481.83 L1469.78 1481.95 L1486.61 1481.95 L1486.61 1482.57 L1503.44 1482.57 L1503.44 1482.70 L1520.27 1482.70 L1520.27 1482.70 L1537.22 1482.70 L1537.22 1482.94 L1554.05 1482.94 L1554.05 1483.56 L1570.88 1483.56 L1570.88 1483.81 L1587.71 1483.81 L1587.71 1484.43 L1604.54 1484.43 L1604.54 1485.17 L1621.37 1485.17 L1621.37 1485.29 L1638.33 1485.29 L1638.33 1485.54 L1655.16 1485.54 L1655.16 1485.54 L1671.99 1485.54 L1671.99 1485.54 L1688.82 1485.54 L1688.82 1485.42 L1705.65 1485.42 L1705.65 1486.04 L1722.48 1486.04 L1722.48 1485.91 L1739.43 1485.91 L1739.43 1485.54 L1756.26 1485.54 L1756.26 1486.04 L1773.09 1486.04 L1773.09 1486.41 L1789.92 1486.41 L1789.92 1487.27 L1806.75 1487.27 L1806.75 1487.40 L1823.70 1487.40 L1823.70 1487.40 L1840.53 1487.40 L1840.53 1487.77 L1857.36 1487.77 L1857.36 1487.77 L1874.19 1487.77 L1874.19 1487.40 L1891.02 1487.40 L1891.02 1487.65 L1907.85 1487.65 L1907.85 1487.77 L1924.81 1487.77 L1924.81 1488.02 L1941.64 1488.02 L1941.64 1487.77 L1958.47 1487.77 L1958.47 1487.89 L1975.30 1487.89 L1975.30 1488.26 L1992.13 1488.26 L1992.13 1488.64 L2008.96 1488.64 L2008.96 1488.64 L2025.91 1488.64 L2025.91 1488.88 L2042.74 1488.88 L2042.74 1489.13 L2059.57 1489.13 L2059.57 1489.13 L2076.40 1489.13 L2076.40 1488.88 L2093.23 1488.88 L2093.23 1489.38 L2110.18 1489.38 L2110.18 1489.38 L2127.01 1489.38 L2127.01 1489.87 L2143.84 1489.87 L2143.84 1490.00 L2160.68 1490.00 L2160.68 1490.00 L2177.51 1490.00 L2177.51 1490.00 L2194.34 1490.00 L2194.34 1490.00 L2211.29 1490.00 L2211.29 1490.49 L2228.12 1490.49 L2228.12 1490.37 L2244.95 1490.37 L2244.95 1490.49 L2261.78 1490.49 L2261.78 1490.24 L2278.61 1490.24 L2278.61 1490.37 L2295.44 1490.37 L2295.44 1490.37 L2312.39 1490.37 L2312.39 1490.49 L2329.22 1490.49 L2329.22 1490.37 L2346.05 1490.37 L2346.05 1490.37 L2362.88 1490.37 L2362.88 1490.00 L2379.71 1490.00 L2379.71 1490.49 L2396.54 1490.49 L2396.54 1490.86 L2413.50 1490.86 L2413.50 1490.86 L2430.33 1490.86 L2430.33 1491.61 L2447.16 1491.61 L2447.16 1491.85 L2463.99 1491.85 L2463.99 1491.73 L2480.82 1491.73 L2480.82 1491.98 L2497.77 1491.98 L2497.77 1492.10 L2514.60 1492.10 L2514.60 1492.10 L2531.43 1492.10 L2531.43 1492.47 L2548.26 1492.47 L2548.26 1492.72 L2565.09 1492.72 L2565.09 1492.72 L2581.92 1492.72 L2581.92 1492.97 L2598.87 1492.97 L2598.87 1493.21 L2615.70 1493.21 L2615.70 1493.09 L2632.53 1493.09 L2632.53 1493.21 L2649.36 1493.21 L2649.36 1493.71 L2666.19 1493.71 L2666.19 1494.08 L2683.02 1494.08 L2683.02 1494.45 L2699.98 1494.45 L2699.98 1494.33 L2716.81 1494.33 L2716.81 1494.70 L2733.64 1494.70 L2733.64 1494.82 L2750.47 1494.82 L2750.47 1495.19 L2767.30 1495.19 L2767.30 1494.95 L2784.25 1494.95 L2784.25 1495.44 L2801.08 1495.44 L2801.08 1495.32 L2817.91 1495.32 L2817.91 1495.32 L2834.74 1495.32 L2834.74 1495.69 L2851.57 1495.69 L2851.57 1496.18 L2868.40 1496.18 L2868.40 1496.06 L2885.36 1496.06 L2885.36 1496.68 L2902.18 1496.68 L2902.18 1496.80 L2919.01 1496.80 L2919.01 1496.93 L2935.84 1496.93 L2935.84 1496.80 L2952.68 1496.80 L2952.68 1496.93 L2969.51 1496.93 L2969.51 1497.05 L2986.46 1497.05 L2986.46 1497.30 L3003.29 1497.30 L3003.29 1497.17 L3020.12 1497.17 L3020.12 1497.05 L3036.95 1497.05 L3036.95 1497.42 L3053.78 1497.42 L3053.78 1497.55 L3070.61 1497.55 L3070.61 1497.55 L3087.56 1497.55 L3087.56 1498.04 L3104.39 1498.04 L3104.39 1497.79 L3121.22 1497.79 L3121.22 1497.79 L3138.05 1497.79 L3138.05 1498.16 L3154.88 1498.16 L3154.88 1498.04 L3171.84 1498.04 L3171.84 1498.04 L3188.67 1498.04 L3188.67 1498.04 L3205.50 1498.04 L3205.50 1498.16 L3222.33 1498.16 L3222.33 1498.04 L3239.16 1498.04 L3239.16 1498.04 L3255.99 1498.04 L3255.99 1498.04 L3272.94 1498.04 L3272.94 1498.41 L3289.77 1498.41 L3289.77 1498.29 L3306.60 1498.29 L3306.60 1498.29 L3323.43 1498.29 L3323.43 1498.66 L3340.26 1498.66 L3340.26 1498.91 L3357.09 1498.91 L3357.09 1499.03 L3374.04 1499.03 L3374.04 1499.28 L3390.87 1499.28 L3390.87 1499.28 L3407.70 1499.28 L3407.70 1499.28 L3424.53 1499.28 L3424.53 1499.40 L3441.36 1499.40 L3441.36 1499.65 L3458.19 1499.65 L3458.19 1499.90 L3475.15 1499.90 L3475.15 1499.90 L3491.98 1499.90 L3491.98 1500.39 L3508.81 1500.39 L3508.81 1500.64 L3525.64 1500.64 L3525.64 1501.13 L3542.47 1501.13 L3542.47 1501.63 L3559.42 1501.63 L3559.42 1502.12 L3576.25 1502.12 L3576.25 1502.25 L3593.08 1502.25 L3593.08 1502.37 L3609.91 1502.37 L3609.91 1502.12 L3626.74 1502.12 L3626.74 1502.12 L3643.57 1502.12 L3643.57 1502.25 L3660.53 1502.25 L3660.53 1502.87 L3677.36 1502.87 L3677.36 1502.87 L3694.18 1502.87 L3694.18 1503.11 L3711.01 1503.11 L3711.01 1502.62 L3727.84 1502.62 L3727.84 1502.50 L3744.68 1502.50 L3744.68 1502.62 L3761.63 1502.62 L3761.63 1502.74 L3778.46 1502.74 L3778.46 1503.11 L3795.29 1503.11 L3795.29 1502.99 L3795.29 1419.21 L3795.29 1419.46 L3778.46 1419.46 L3778.46 1419.21 L3761.63 1419.21 L3761.63 1419.21 L3744.68 1419.21 L3744.68 1419.21 L3727.84 1419.21 L3727.84 1419.46 L3711.01 1419.46 L3711.01 1420.08 L3694.18 1420.08 L3694.18 1419.95 L3677.36 1419.95 L3677.36 1420.08 L3660.53 1420.08 L3660.53 1419.58 L3643.57 1419.58 L3643.57 1419.70 L3626.74 1419.70 L3626.74 1419.83 L3609.91 1419.83 L3609.91 1420.08 L3593.08 1420.08 L3593.08 1420.20 L3576.25 1420.20 L3576.25 1420.08 L3559.42 1420.08 L3559.42 1419.83 L3542.47 1419.83 L3542.47 1419.46 L3525.64 1419.46 L3525.64 1419.21 L3508.81 1419.21 L3508.81 1419.09 L3491.98 1419.09 L3491.98 1418.84 L3475.15 1418.84 L3475.15 1418.96 L3458.19 1418.96 L3458.19 1418.84 L3441.36 1418.84 L3441.36 1418.71 L3424.53 1418.71 L3424.53 1418.84 L3407.70 1418.84 L3407.70 1418.96 L3390.87 1418.96 L3390.87 1418.96 L3374.04 1418.96 L3374.04 1418.96 L3357.09 1418.96 L3357.09 1418.96 L3340.26 1418.96 L3340.26 1418.84 L3323.43 1418.84 L3323.43 1418.59 L3306.60 1418.59 L3306.60 1418.84 L3289.77 1418.84 L3289.77 1419.09 L3272.94 1419.09 L3272.94 1418.84 L3255.99 1418.84 L3255.99 1418.96 L3239.16 1418.96 L3239.16 1419.21 L3222.33 1419.21 L3222.33 1419.46 L3205.50 1419.46 L3205.50 1419.58 L3188.67 1419.58 L3188.67 1419.70 L3171.84 1419.70 L3171.84 1419.83 L3154.88 1419.83 L3154.88 1420.20 L3138.05 1420.20 L3138.05 1419.95 L3121.22 1419.95 L3121.22 1420.08 L3104.39 1420.08 L3104.39 1420.57 L3087.56 1420.57 L3087.56 1420.20 L3070.61 1420.20 L3070.61 1420.32 L3053.78 1420.32 L3053.78 1420.32 L3036.95 1420.32 L3036.95 1420.08 L3020.12 1420.08 L3020.12 1420.32 L3003.29 1420.32 L3003.29 1420.69 L2986.46 1420.69 L2986.46 1420.45 L2969.51 1420.45 L2969.51 1420.45 L2952.68 1420.45 L2952.68 1420.57 L2935.84 1420.57 L2935.84 1420.82 L2919.01 1420.82 L2919.01 1420.82 L2902.18 1420.82 L2902.18 1420.82 L2885.36 1420.82 L2885.36 1420.32 L2868.40 1420.32 L2868.40 1420.57 L2851.57 1420.57 L2851.57 1420.32 L2834.74 1420.32 L2834.74 1420.08 L2817.91 1420.08 L2817.91 1420.20 L2801.08 1420.20 L2801.08 1420.45 L2784.25 1420.45 L2784.25 1420.20 L2767.30 1420.20 L2767.30 1420.57 L2750.47 1420.57 L2750.47 1420.32 L2733.64 1420.32 L2733.64 1420.32 L2716.81 1420.32 L2716.81 1420.20 L2699.98 1420.20 L2699.98 1420.57 L2683.02 1420.57 L2683.02 1420.32 L2666.19 1420.32 L2666.19 1420.08 L2649.36 1420.08 L2649.36 1419.70 L2632.53 1419.70 L2632.53 1419.83 L2615.70 1419.83 L2615.70 1420.08 L2598.87 1420.08 L2598.87 1420.08 L2581.92 1420.08 L2581.92 1419.95 L2565.09 1419.95 L2565.09 1420.20 L2548.26 1420.20 L2548.26 1420.20 L2531.43 1420.20 L2531.43 1419.95 L2514.60 1419.95 L2514.60 1420.20 L2497.77 1420.20 L2497.77 1420.20 L2480.82 1420.20 L2480.82 1420.20 L2463.99 1420.20 L2463.99 1420.45 L2447.16 1420.45 L2447.16 1420.45 L2430.33 1420.45 L2430.33 1419.83 L2413.50 1419.83 L2413.50 1420.08 L2396.54 1420.08 L2396.54 1419.83 L2379.71 1419.83 L2379.71 1419.46 L2362.88 1419.46 L2362.88 1419.95 L2346.05 1419.95 L2346.05 1420.20 L2329.22 1420.20 L2329.22 1420.57 L2312.39 1420.57 L2312.39 1420.57 L2295.44 1420.57 L2295.44 1420.94 L2278.61 1420.94 L2278.61 1420.94 L2261.78 1420.94 L2261.78 1421.44 L2244.95 1421.44 L2244.95 1421.44 L2228.12 1421.44 L2228.12 1421.93 L2211.29 1421.93 L2211.29 1421.56 L2194.34 1421.56 L2194.34 1421.68 L2177.51 1421.68 L2177.51 1421.93 L2160.68 1421.93 L2160.68 1422.18 L2143.84 1422.18 L2143.84 1422.30 L2127.01 1422.30 L2127.01 1422.06 L2110.18 1422.06 L2110.18 1422.30 L2093.23 1422.30 L2093.23 1422.06 L2076.40 1422.06 L2076.40 1422.55 L2059.57 1422.55 L2059.57 1422.80 L2042.74 1422.80 L2042.74 1422.67 L2025.91 1422.67 L2025.91 1422.67 L2008.96 1422.67 L2008.96 1422.92 L1992.13 1422.92 L1992.13 1422.80 L1975.30 1422.80 L1975.30 1422.67 L1958.47 1422.67 L1958.47 1422.92 L1941.64 1422.92 L1941.64 1423.29 L1924.81 1423.29 L1924.81 1423.42 L1907.85 1423.42 L1907.85 1423.66 L1891.02 1423.66 L1891.02 1423.66 L1874.19 1423.66 L1874.19 1424.41 L1857.36 1424.41 L1857.36 1424.65 L1840.53 1424.65 L1840.53 1424.53 L1823.70 1424.53 L1823.70 1424.90 L1806.75 1424.90 L1806.75 1425.03 L1789.92 1425.03 L1789.92 1424.41 L1773.09 1424.41 L1773.09 1424.41 L1756.26 1424.41 L1756.26 1424.28 L1739.43 1424.28 L1739.43 1424.90 L1722.48 1424.90 L1722.48 1425.52 L1705.65 1425.52 L1705.65 1425.27 L1688.82 1425.27 L1688.82 1425.64 L1671.99 1425.64 L1671.99 1425.89 L1655.16 1425.89 L1655.16 1426.26 L1638.33 1426.26 L1638.33 1426.51 L1621.37 1426.51 L1621.37 1426.63 L1604.54 1426.63 L1604.54 1426.39 L1587.71 1426.39 L1587.71 1426.26 L1570.88 1426.26 L1570.88 1426.39 L1554.05 1426.39 L1554.05 1426.02 L1537.22 1426.02 L1537.22 1426.26 L1520.27 1426.26 L1520.27 1426.76 L1503.44 1426.76 L1503.44 1427.13 L1486.61 1427.13 L1486.61 1427.01 L1469.78 1427.01 L1469.78 1427.25 L1452.95 1427.25 L1452.95 1427.01 L1436.12 1427.01 L1436.12 1427.87 L1419.16 1427.87 L1419.16 1428.37 L1402.34 1428.37 L1402.34 1428.00 L1385.51 1428.00 L1385.51 1428.74 L1368.67 1428.74 L1368.67 1428.99 L1351.85 1428.99 L1351.85 1429.36 L1334.89 1429.36 L1334.89 1429.23 L1318.06 1429.23 L1318.06 1429.23 L1301.23 1429.23 L1301.23 1429.23 L1284.40 1429.23 L1284.40 1429.36 L1267.57 1429.36 L1267.57 1430.22 L1250.74 1430.22 L1250.74 1430.35 L1233.79 1430.35 L1233.79 1430.84 L1216.96 1430.84 L1216.96 1431.21 L1200.13 1431.21 L1200.13 1431.71 L1183.30 1431.71 L1183.30 1432.33 L1166.47 1432.33 L1166.47 1433.19 L1149.64 1433.19 L1149.64 1433.56 L1132.68 1433.56 L1132.68 1434.18 L1115.85 1434.18 L1115.85 1434.80 L1099.02 1434.80 L1099.02 1435.67 L1082.19 1435.67 L1082.19 1436.29 L1065.36 1436.29 L1065.36 1437.15 L1048.53 1437.15 L1048.53 1437.52 L1031.58 1437.52 L1031.58 1438.14 L1014.75 1438.14 L1014.75 1439.26 L997.92 1439.26 L997.92 1439.63 L981.09 1439.63 L981.09 1440.50 L964.26 1440.50 L964.26 1441.49 L947.31 1441.49 L947.31 1442.10 L930.48 1442.10 L930.48 1442.72 L913.65 1442.72 L913.65 1444.33 L896.82 1444.33 L896.82 1445.69 L879.99 1445.69 L879.99 1446.56 L863.16 1446.56 L863.16 1447.80 L846.20 1447.80 L846.20 1448.54 L829.37 1448.54 L829.37 1450.15 L812.54 1450.15 L812.54 1451.26 L795.71 1451.26 L795.71 1452.87 L778.88 1452.87 L778.88 1468.22 Z" stroke-linejoin="round"/>
	</defs>
	<defs>
		<clipPath id="clipPath_HkGPwbQV">
			<use xlink:href="#path_KcEQFLsy"/>
		</clipPath>
	</defs>
	<use xlink:href="#path_KcEQFLsy" style="stroke:none;fill:#999999;fill-opacity:0.65"/>
	<use xlink:href="#path_KcEQFLsy" style="fill:none;stroke:#808080;stroke-opacity:0.65;stroke-width:17.28" clip-path="url(#clipPath_HkGPwbQV)"/>
	<path d=" M778.76 1460.54 L795.59 1460.54 L795.59 1459.92 L812.54 1459.92 L812.54 1459.55 L829.37 1459.55 L829.37 1458.93 L846.20 1458.93 L846.20 1458.93 L863.03 1458.93 L863.03 1458.44 L879.86 1458.44 L879.86 1458.44 L896.69 1458.44 L896.69 1457.82 L913.65 1457.82 L913.65 1456.95 L930.48 1456.95 L930.48 1456.95 L947.31 1456.95 L947.31 1456.95 L964.14 1456.95 L964.14 1456.58 L980.97 1456.58 L980.97 1456.34 L997.80 1456.34 L997.80 1456.46 L1014.75 1456.46 L1014.75 1455.96 L1031.58 1455.96 L1031.58 1455.84 L1048.41 1455.84 L1048.41 1455.96 L1065.24 1455.96 L1065.24 1455.72 L1082.07 1455.72 L1082.07 1455.47 L1099.02 1455.47 L1099.02 1455.22 L1115.85 1455.22 L1115.85 1454.97 L1132.68 1454.97 L1132.68 1454.73 L1149.51 1454.73 L1149.51 1454.85 L1166.34 1454.85 L1166.34 1454.48 L1183.17 1454.48 L1183.17 1454.11 L1200.13 1454.11 L1200.13 1454.11 L1216.96 1454.11 L1216.96 1454.11 L1233.79 1454.11 L1233.79 1453.98 L1250.62 1453.98 L1250.62 1454.11 L1267.45 1454.11 L1267.45 1453.61 L1284.28 1453.61 L1284.28 1453.74 L1301.23 1453.74 L1301.23 1453.98 L1318.06 1453.98 L1318.06 1454.36 L1334.89 1454.36 L1334.89 1454.85 L1351.72 1454.85 L1351.72 1454.73 L1368.55 1454.73 L1368.55 1454.73 L1385.51 1454.73 L1385.51 1454.36 L1402.34 1454.36 L1402.34 1454.85 L1419.16 1454.85 L1419.16 1454.73 L1435.99 1454.73 L1435.99 1454.11 L1452.83 1454.11 L1452.83 1454.60 L1469.65 1454.60 L1469.65 1454.60 L1486.61 1454.60 L1486.61 1454.97 L1503.44 1454.97 L1503.44 1454.85 L1520.27 1454.85 L1520.27 1454.48 L1537.10 1454.48 L1537.10 1454.48 L1553.93 1454.48 L1553.93 1454.97 L1570.76 1454.97 L1570.76 1455.10 L1587.71 1455.10 L1587.71 1455.47 L1604.54 1455.47 L1604.54 1455.96 L1621.37 1455.96 L1621.37 1455.96 L1638.20 1455.96 L1638.20 1455.96 L1655.03 1455.96 L1655.03 1455.72 L1671.86 1455.72 L1671.86 1455.72 L1688.82 1455.72 L1688.82 1455.35 L1705.65 1455.35 L1705.65 1455.84 L1722.48 1455.84 L1722.48 1455.47 L1739.31 1455.47 L1739.31 1454.97 L1756.14 1454.97 L1756.14 1455.22 L1773.09 1455.22 L1773.09 1455.47 L1789.92 1455.47 L1789.92 1456.21 L1806.75 1456.21 L1806.75 1456.21 L1823.58 1456.21 L1823.58 1455.96 L1840.41 1455.96 L1840.41 1456.21 L1857.24 1456.21 L1857.24 1456.09 L1874.19 1456.09 L1874.19 1455.59 L1891.02 1455.59 L1891.02 1455.72 L1907.85 1455.72 L1907.85 1455.59 L1924.68 1455.59 L1924.68 1455.72 L1941.51 1455.72 L1941.51 1455.35 L1958.34 1455.35 L1958.34 1455.35 L1975.30 1455.35 L1975.30 1455.59 L1992.13 1455.59 L1992.13 1455.84 L2008.96 1455.84 L2008.96 1455.72 L2025.79 1455.72 L2025.79 1455.84 L2042.62 1455.84 L2042.62 1456.09 L2059.45 1456.09 L2059.45 1455.84 L2076.40 1455.84 L2076.40 1455.47 L2093.23 1455.47 L2093.23 1455.84 L2110.06 1455.84 L2110.06 1455.84 L2126.89 1455.84 L2126.89 1456.21 L2143.72 1456.21 L2143.72 1456.09 L2160.68 1456.09 L2160.68 1456.09 L2177.51 1456.09 L2177.51 1455.84 L2194.34 1455.84 L2194.34 1455.84 L2211.16 1455.84 L2211.16 1456.21 L2227.99 1456.21 L2227.99 1455.96 L2244.82 1455.96 L2244.82 1455.96 L2261.78 1455.96 L2261.78 1455.59 L2278.61 1455.59 L2278.61 1455.72 L2295.44 1455.72 L2295.44 1455.47 L2312.27 1455.47 L2312.27 1455.59 L2329.10 1455.59 L2329.10 1455.35 L2345.93 1455.35 L2345.93 1455.22 L2362.88 1455.22 L2362.88 1454.85 L2379.71 1454.85 L2379.71 1455.22 L2396.54 1455.22 L2396.54 1455.47 L2413.37 1455.47 L2413.37 1455.47 L2430.20 1455.47 L2430.20 1456.09 L2447.16 1456.09 L2447.16 1456.21 L2463.99 1456.21 L2463.99 1456.09 L2480.82 1456.09 L2480.82 1456.09 L2497.65 1456.09 L2497.65 1456.21 L2514.48 1456.21 L2514.48 1456.09 L2531.31 1456.09 L2531.31 1456.46 L2548.26 1456.46 L2548.26 1456.46 L2565.09 1456.46 L2565.09 1456.34 L2581.92 1456.34 L2581.92 1456.58 L2598.75 1456.58 L2598.75 1456.71 L2615.58 1456.71 L2615.58 1456.46 L2632.41 1456.46 L2632.41 1456.58 L2649.36 1456.58 L2649.36 1456.95 L2666.19 1456.95 L2666.19 1457.33 L2683.02 1457.33 L2683.02 1457.57 L2699.85 1457.57 L2699.85 1457.33 L2716.68 1457.33 L2716.68 1457.57 L2733.51 1457.57 L2733.51 1457.57 L2750.47 1457.57 L2750.47 1457.94 L2767.30 1457.94 L2767.30 1457.57 L2784.13 1457.57 L2784.13 1457.94 L2800.96 1457.94 L2800.96 1457.82 L2817.79 1457.82 L2817.79 1457.82 L2834.74 1457.82 L2834.74 1458.07 L2851.57 1458.07 L2851.57 1458.44 L2868.40 1458.44 L2868.40 1458.32 L2885.23 1458.32 L2885.23 1458.81 L2902.06 1458.81 L2902.06 1458.93 L2918.89 1458.93 L2918.89 1458.93 L2935.84 1458.93 L2935.84 1458.69 L2952.68 1458.69 L2952.68 1458.69 L2969.51 1458.69 L2969.51 1458.81 L2986.34 1458.81 L2986.34 1459.06 L3003.16 1459.06 L3003.16 1458.81 L3019.99 1458.81 L3019.99 1458.69 L3036.95 1458.69 L3036.95 1458.93 L3053.78 1458.93 L3053.78 1458.93 L3070.61 1458.93 L3070.61 1458.93 L3087.44 1458.93 L3087.44 1459.31 L3104.27 1459.31 L3104.27 1458.93 L3121.10 1458.93 L3121.10 1458.93 L3138.05 1458.93 L3138.05 1459.18 L3154.88 1459.18 L3154.88 1458.93 L3171.71 1458.93 L3171.71 1458.93 L3188.54 1458.93 L3188.54 1458.93 L3205.37 1458.93 L3205.37 1458.93 L3222.33 1458.93 L3222.33 1458.69 L3239.16 1458.69 L3239.16 1458.56 L3255.99 1458.56 L3255.99 1458.44 L3272.82 1458.44 L3272.82 1458.81 L3289.65 1458.81 L3289.65 1458.56 L3306.48 1458.56 L3306.48 1458.44 L3323.43 1458.44 L3323.43 1458.81 L3340.26 1458.81 L3340.26 1458.93 L3357.09 1458.93 L3357.09 1459.06 L3373.92 1459.06 L3373.92 1459.18 L3390.75 1459.18 L3390.75 1459.18 L3407.58 1459.18 L3407.58 1459.06 L3424.53 1459.06 L3424.53 1459.06 L3441.36 1459.06 L3441.36 1459.31 L3458.19 1459.31 L3458.19 1459.43 L3475.02 1459.43 L3475.02 1459.43 L3491.85 1459.43 L3491.85 1459.80 L3508.81 1459.80 L3508.81 1459.92 L3525.64 1459.92 L3525.64 1460.30 L3542.47 1460.30 L3542.47 1460.79 L3559.30 1460.79 L3559.30 1461.16 L3576.13 1461.16 L3576.13 1461.29 L3592.96 1461.29 L3592.96 1461.29 L3609.91 1461.29 L3609.91 1461.04 L3626.74 1461.04 L3626.74 1460.91 L3643.57 1460.91 L3643.57 1461.04 L3660.40 1461.04 L3660.40 1461.53 L3677.23 1461.53 L3677.23 1461.41 L3694.06 1461.41 L3694.06 1461.66 L3711.01 1461.66 L3711.01 1461.16 L3727.84 1461.16 L3727.84 1460.91 L3744.68 1460.91 L3744.68 1460.91 L3761.51 1460.91 L3761.51 1461.04 L3778.34 1461.04 L3778.34 1461.29 L3795.16 1461.29 L3795.16 1461.16" stroke-linejoin="round" style="fill:none;stroke:#000000;stroke-width:8.64"/>
	<line x1="559.10" y1="2509.23" x2="559.10" y2="419.90" style="stroke:#000000;stroke-width:5.76"/>
	<line x1="559.10" y1="2445.87" x2="519.13" y2="2445.87" style="stroke:#000000;stroke-width:5.76"/>
	<text x="499.08" y="2480.90" style="font-family:'Helvetica';font-size:99.99px;fill:#000000" text-anchor="end">-1.00</text>
	<line x1="559.10" y1="2200.59" x2="519.13" y2="2200.59" style="stroke:#000000;stroke-width:5.76"/>
	<text x="499.08" y="2235.62" style="font-family:'Helvetica';font-size:99.99px;fill:#000000" text-anchor="end">-0.75</text>
	<line x1="559.10" y1="1955.19" x2="519.13" y2="1955.19" style="stroke:#000000;stroke-width:5.76"/>
	<text x="499.08" y="1990.22" style="font-family:'Helvetica';font-size:99.99px;fill:#000000" text-anchor="end">-0.50</text>
	<line x1="559.10" y1="1709.91" x2="519.13" y2="1709.91" style="stroke:#000000;stroke-width:5.76"/>
	<text x="499.08" y="1744.94" style="font-family:'Helvetica';font-size:99.99px;fill:#000000" text-anchor="end">-0.25</text>
	<line x1="559.10" y1="1464.63" x2="519.13" y2="1464.63" style="stroke:#000000;stroke-width:5.76"/>
	<text x="499.08" y="1499.66" style="font-family:'Helvetica';font-size:99.99px;fill:#000000" text-anchor="end">0.00</text>
	<line x1="559.10" y1="1219.22" x2="519.13" y2="1219.22" style="stroke:#000000;stroke-width:5.76"/>
	<text x="499.08" y="1254.25" style="font-family:'Helvetica';font-size:99.99px;fill:#000000" text-anchor="end">0.25</text>
	<line x1="559.10" y1="973.94" x2="519.13" y2="973.94" style="stroke:#000000;stroke-width:5.76"/>
	<text x="499.08" y="1008.97" style="font-family:'Helvetica';font-size:99.99px;fill:#000000" text-anchor="end">0.50</text>
	<line x1="559.10" y1="728.66" x2="519.13" y2="728.66" style="stroke:#000000;stroke-width:5.76"/>
	<text x="499.08" y="763.69" style="font-family:'Helvetica';font-size:99.99px;fill:#000000" text-anchor="end">0.75</text>
	<line x1="559.10" y1="483.26" x2="519.13" y2="483.26" style="stroke:#000000;stroke-width:5.76"/>
	<text x="499.08" y="518.29" style="font-family:'Helvetica';font-size:99.99px;fill:#000000" text-anchor="end">1.00</text>
	<text x="190.71" y="1464.63" style="font-family:'Helvetica';font-size:99.99px;fill:#000000" transform="rotate(-90 190.71,1464.63)" text-anchor="middle">Difference in Probabilities</text>
	<line x1="559.10" y1="2509.23" x2="3859.02" y2="2509.23" style="stroke:#000000;stroke-width:5.76"/>
	<line x1="622.46" y1="2509.23" x2="622.46" y2="2549.21" style="stroke:#000000;stroke-width:5.76"/>
	<text x="622.46" y="2625.15" style="font-family:'Helvetica';font-size:79.94px;fill:#000000" text-anchor="middle">0</text>
	<line x1="812.91" y1="2509.23" x2="812.91" y2="2549.21" style="stroke:#000000;stroke-width:5.76"/>
	<text x="812.91" y="2625.15" style="font-family:'Helvetica';font-size:79.94px;fill:#000000" text-anchor="middle">.3</text>
	<line x1="1003.24" y1="2509.23" x2="1003.24" y2="2549.21" style="stroke:#000000;stroke-width:5.76"/>
	<text x="1003.24" y="2625.15" style="font-family:'Helvetica';font-size:79.94px;fill:#000000" text-anchor="middle">.6</text>
	<line x1="1193.69" y1="2509.23" x2="1193.69" y2="2549.21" style="stroke:#000000;stroke-width:5.76"/>
	<text x="1193.69" y="2625.15" style="font-family:'Helvetica';font-size:79.94px;fill:#000000" text-anchor="middle">.9</text>
	<line x1="1384.02" y1="2509.23" x2="1384.02" y2="2549.21" style="stroke:#000000;stroke-width:5.76"/>
	<text x="1384.02" y="2625.15" style="font-family:'Helvetica';font-size:79.94px;fill:#000000" text-anchor="middle">1.2</text>
	<line x1="1574.47" y1="2509.23" x2="1574.47" y2="2549.21" style="stroke:#000000;stroke-width:5.76"/>
	<text x="1574.47" y="2625.15" style="font-family:'Helvetica';font-size:79.94px;fill:#000000" text-anchor="middle">1.5</text>
	<line x1="1764.80" y1="2509.23" x2="1764.80" y2="2549.21" style="stroke:#000000;stroke-width:5.76"/>
	<text x="1764.80" y="2625.15" style="font-family:'Helvetica';font-size:79.94px;fill:#000000" text-anchor="middle">1.8</text>
	<line x1="1955.25" y1="2509.23" x2="1955.25" y2="2549.21" style="stroke:#000000;stroke-width:5.76"/>
	<text x="1955.25" y="2625.15" style="font-family:'Helvetica';font-size:79.94px;fill:#000000" text-anchor="middle">2.1</text>
	<line x1="2145.58" y1="2509.23" x2="2145.58" y2="2549.21" style="stroke:#000000;stroke-width:5.76"/>
	<text x="2145.58" y="2625.15" style="font-family:'Helvetica';font-size:79.94px;fill:#000000" text-anchor="middle">2.4</text>
	<line x1="2336.03" y1="2509.23" x2="2336.03" y2="2549.21" style="stroke:#000000;stroke-width:5.76"/>
	<text x="2336.03" y="2625.15" style="font-family:'Helvetica';font-size:79.94px;fill:#000000" text-anchor="middle">2.7</text>
	<line x1="2526.48" y1="2509.23" x2="2526.48" y2="2549.21" style="stroke:#000000;stroke-width:5.76"/>
	<text x="2526.48" y="2625.15" style="font-family:'Helvetica';font-size:79.94px;fill:#000000" text-anchor="middle">3</text>
	<line x1="2716.81" y1="2509.23" x2="2716.81" y2="2549.21" style="stroke:#000000;stroke-width:5.76"/>
	<text x="2716.81" y="2625.15" style="font-family:'Helvetica';font-size:79.94px;fill:#000000" text-anchor="middle">3.3</text>
	<line x1="2907.26" y1="2509.23" x2="2907.26" y2="2549.21" style="stroke:#000000;stroke-width:5.76"/>
	<text x="2907.26" y="2625.15" style="font-family:'Helvetica';font-size:79.94px;fill:#000000" text-anchor="middle">3.6</text>
	<line x1="3097.59" y1="2509.23" x2="3097.59" y2="2549.21" style="stroke:#000000;stroke-width:5.76"/>
	<text x="3097.59" y="2625.15" style="font-family:'Helvetica';font-size:79.94px;fill:#000000" text-anchor="middle">3.9</text>
	<line x1="3288.04" y1="2509.23" x2="3288.04" y2="2549.21" style="stroke:#000000;stroke-width:5.76"/>
	<text x="3288.04" y="2625.15" style="font-family:'Helvetica';font-size:79.94px;fill:#000000" text-anchor="middle">4.2</text>
	<line x1="3478.36" y1="2509.23" x2="3478.36" y2="2549.21" style="stroke:#000000;stroke-width:5.76"/>
	<text x="3478.36" y="2625.15" style="font-family:'Helvetica';font-size:79.94px;fill:#000000" text-anchor="middle">4.5</text>
	<line x1="3668.82" y1="2509.23" x2="3668.82" y2="2549.21" style="stroke:#000000;stroke-width:5.76"/>
	<text x="3668.82" y="2625.15" style="font-family:'Helvetica';font-size:79.94px;fill:#000000" text-anchor="middle">4.8</text>
	<line x1="3859.14" y1="2509.23" x2="3859.14" y2="2549.21" style="stroke:#000000;stroke-width:5.76"/>
	<text x="3859.14" y="2625.15" style="font-family:'Helvetica';font-size:79.94px;fill:#000000" text-anchor="middle">5.1</text>
	<text x="2209.06" y="2729.16" style="font-family:'Helvetica';font-size:99.99px;fill:#000000" text-anchor="middle">Time (years)</text>
	<rect x="593.63" y="454.42" width="993.34" height="326.46" style="fill:#FFFFFF"/>
	<rect x="596.51" y="457.30" width="987.58" height="320.70" style="fill:none;stroke:#000000;stroke-width:5.76"/>
	<rect x="636.82" y="497.74" width="374.47" height="99.99" style="fill:#999999;fill-opacity:0.65"/>
	<rect x="641.14" y="502.06" width="365.83" height="91.35" style="fill:none;stroke:#808080;stroke-opacity:0.65;stroke-width:8.64"/>
	<line x1="636.82" y1="687.70" x2="1011.28" y2="687.70" style="stroke:#000000;stroke-width:8.64"/>
	<text x="1071.30" y="582.76" style="font-family:'Helvetica';font-size:99.99px;fill:#000000">CI95%</text>
	<text x="1071.30" y="722.73" style="font-family:'Helvetica';font-size:99.99px;fill:#000000">Difference</text>
	<text x="2209.06" y="369.63" style="font-family:'Helvetica';font-size:110.01px;fill:#000000" text-anchor="middle">from 2nd Readmission to 3rd Readmission</text>
	<text x="2209.06" y="215.98" style="font-family:'Helvetica';font-size:139.96px;fill:#1E2D53" text-anchor="middle">Difference in Probabilities at 3 years</text>
</svg>
