<?xml version="1.0" encoding="UTF-8" standalone="no"?>
<!-- This is a Stata 16.1 generated SVG file (http://www.stata.com) -->

<svg version="1.1" width="5.50in" height="4.00in" viewBox="0 0 3960 2880" xmlns="http://www.w3.org/2000/svg" xmlns:xlink="http://www.w3.org/1999/xlink">
	<desc>Stata Graph - diff_mod45</desc>
	<rect x="0" y="0" width="3960" height="2880" style="fill:#EAF2F3;stroke:none"/>
	<rect x="0.00" y="0.00" width="3959.88" height="2880.00" style="fill:#FFFFFF"/>
	<rect x="2.88" y="2.88" width="3954.12" height="2874.24" style="fill:none;stroke:#FFFFFF;stroke-width:5.76"/>
	<rect x="559.10" y="419.90" width="3299.92" height="2089.34" style="fill:#FFFFFF"/>
	<rect x="561.98" y="422.78" width="3294.16" height="2083.58" style="fill:none;stroke:#FFFFFF;stroke-width:5.76"/>
	<line x1="559.10" y1="2249.60" x2="3859.02" y2="2249.60" style="stroke:#EAF2F3;stroke-width:8.64"/>
	<line x1="559.10" y1="2053.32" x2="3859.02" y2="2053.32" style="stroke:#EAF2F3;stroke-width:8.64"/>
	<line x1="559.10" y1="1857.05" x2="3859.02" y2="1857.05" style="stroke:#EAF2F3;stroke-width:8.64"/>
	<line x1="559.10" y1="1660.78" x2="3859.02" y2="1660.78" style="stroke:#EAF2F3;stroke-width:8.64"/>
	<line x1="559.10" y1="1464.63" x2="3859.02" y2="1464.63" style="stroke:#EAF2F3;stroke-width:8.64"/>
	<line x1="559.10" y1="1268.35" x2="3859.02" y2="1268.35" style="stroke:#EAF2F3;stroke-width:8.64"/>
	<line x1="559.10" y1="1072.08" x2="3859.02" y2="1072.08" style="stroke:#EAF2F3;stroke-width:8.64"/>
	<line x1="559.10" y1="875.81" x2="3859.02" y2="875.81" style="stroke:#EAF2F3;stroke-width:8.64"/>
	<line x1="559.10" y1="679.53" x2="3859.02" y2="679.53" style="stroke:#EAF2F3;stroke-width:8.64"/>
	<line x1="559.10" y1="1464.63" x2="3859.02" y2="1464.63" style="stroke:#1A476F;stroke-width:8.64"/>
	<defs>
		<path id="path_hVafukDh" d="M778.76 1549.40 L778.76 1549.40 L795.59 1549.40 L795.59 1559.30 L812.54 1559.30 L812.54 1568.21 L829.37 1568.21 L829.37 1578.23 L846.20 1578.23 L846.20 1585.53 L863.03 1585.53 L863.03 1593.95 L879.86 1593.95 L879.86 1600.63 L896.82 1600.63 L896.82 1608.06 L913.65 1608.06 L913.65 1614.12 L930.48 1614.12 L930.48 1619.44 L947.31 1619.44 L947.31 1626.74 L964.14 1626.74 L964.14 1634.42 L981.09 1634.42 L981.09 1641.22 L997.92 1641.22 L997.92 1649.14 L1014.75 1649.14 L1014.75 1654.96 L1031.58 1654.96 L1031.58 1660.28 L1048.41 1660.28 L1048.41 1666.35 L1065.36 1666.35 L1065.36 1673.77 L1082.19 1673.77 L1082.19 1677.36 L1099.02 1677.36 L1099.02 1682.81 L1115.85 1682.81 L1115.85 1690.35 L1132.68 1690.35 L1132.68 1698.03 L1149.64 1698.03 L1149.64 1703.22 L1166.47 1703.22 L1166.47 1707.93 L1183.30 1707.93 L1183.30 1712.88 L1200.13 1712.88 L1200.13 1715.10 L1216.96 1715.10 L1216.96 1719.68 L1233.91 1719.68 L1233.91 1726.12 L1250.74 1726.12 L1250.74 1730.33 L1267.57 1730.33 L1267.57 1732.55 L1284.40 1732.55 L1284.40 1738.25 L1301.23 1738.25 L1301.23 1741.71 L1318.18 1741.71 L1318.18 1745.18 L1335.02 1745.18 L1335.02 1747.03 L1351.85 1747.03 L1351.85 1749.38 L1368.67 1749.38 L1368.67 1752.23 L1385.51 1752.23 L1385.51 1753.10 L1402.34 1753.10 L1402.34 1754.58 L1419.29 1754.58 L1419.29 1757.55 L1436.12 1757.55 L1436.12 1759.90 L1452.95 1759.90 L1452.95 1763.74 L1469.78 1763.74 L1469.78 1767.95 L1486.61 1767.95 L1486.61 1771.41 L1503.56 1771.41 L1503.56 1773.02 L1520.39 1773.02 L1520.39 1775.13 L1537.22 1775.13 L1537.22 1779.21 L1554.05 1779.21 L1554.05 1782.67 L1570.88 1782.67 L1570.88 1785.77 L1587.84 1785.77 L1587.84 1786.88 L1604.67 1786.88 L1604.67 1788.24 L1621.50 1788.24 L1621.50 1788.99 L1638.33 1788.99 L1638.33 1788.37 L1655.16 1788.37 L1655.16 1790.35 L1672.11 1790.35 L1672.11 1792.08 L1688.94 1792.08 L1688.94 1792.95 L1705.77 1792.95 L1705.77 1793.19 L1722.60 1793.19 L1722.60 1794.55 L1739.43 1794.55 L1739.43 1795.30 L1756.38 1795.30 L1756.38 1796.91 L1773.21 1796.91 L1773.21 1797.90 L1790.04 1797.90 L1790.04 1798.14 L1806.87 1798.14 L1806.87 1798.02 L1823.70 1798.02 L1823.70 1799.13 L1840.66 1799.13 L1840.66 1802.10 L1857.49 1802.10 L1857.49 1802.97 L1874.32 1802.97 L1874.32 1804.95 L1891.15 1804.95 L1891.15 1805.32 L1907.98 1805.32 L1907.98 1804.95 L1924.93 1804.95 L1924.93 1806.93 L1941.76 1806.93 L1941.76 1808.54 L1958.59 1808.54 L1958.59 1809.16 L1975.42 1809.16 L1975.42 1808.42 L1992.25 1808.42 L1992.25 1809.16 L2009.20 1809.16 L2009.20 1809.53 L2026.04 1809.53 L2026.04 1811.01 L2042.87 1811.01 L2042.87 1812.13 L2059.70 1812.13 L2059.70 1813.74 L2076.53 1813.74 L2076.53 1815.35 L2093.48 1815.35 L2093.48 1815.47 L2110.31 1815.47 L2110.31 1816.58 L2127.14 1816.58 L2127.14 1817.45 L2143.97 1817.45 L2143.97 1818.19 L2160.80 1818.19 L2160.80 1819.43 L2177.75 1819.43 L2177.75 1820.91 L2194.58 1820.91 L2194.58 1821.53 L2211.41 1821.53 L2211.41 1821.66 L2228.24 1821.66 L2228.24 1821.66 L2245.07 1821.66 L2245.07 1821.41 L2262.03 1821.41 L2262.03 1822.77 L2278.86 1822.77 L2278.86 1822.28 L2295.69 1822.28 L2295.69 1822.40 L2312.52 1822.40 L2312.52 1822.89 L2329.35 1822.89 L2329.35 1823.02 L2346.30 1823.02 L2346.30 1823.14 L2363.13 1823.14 L2363.13 1822.52 L2379.96 1822.52 L2379.96 1822.77 L2396.79 1822.77 L2396.79 1822.40 L2413.62 1822.40 L2413.62 1821.78 L2430.57 1821.78 L2430.57 1821.90 L2447.40 1821.90 L2447.40 1822.28 L2464.23 1822.28 L2464.23 1823.27 L2481.06 1823.27 L2481.06 1822.89 L2497.89 1822.89 L2497.89 1822.77 L2514.85 1822.77 L2514.85 1822.40 L2531.68 1822.40 L2531.68 1820.79 L2548.51 1820.79 L2548.51 1821.16 L2565.34 1821.16 L2565.34 1821.16 L2582.17 1821.16 L2582.17 1822.40 L2599.00 1822.40 L2599.00 1823.02 L2615.95 1823.02 L2615.95 1823.64 L2632.78 1823.64 L2632.78 1825.25 L2649.61 1825.25 L2649.61 1826.85 L2666.44 1826.85 L2666.44 1827.84 L2683.27 1827.84 L2683.27 1827.23 L2700.22 1827.23 L2700.22 1828.34 L2717.05 1828.34 L2717.05 1828.83 L2733.89 1828.83 L2733.89 1828.83 L2750.72 1828.83 L2750.72 1827.10 L2767.55 1827.10 L2767.55 1826.48 L2784.50 1826.48 L2784.50 1825.86 L2801.33 1825.86 L2801.33 1825.86 L2818.16 1825.86 L2818.16 1825.25 L2834.99 1825.25 L2834.99 1825.25 L2851.82 1825.25 L2851.82 1824.87 L2868.77 1824.87 L2868.77 1823.76 L2885.60 1823.76 L2885.60 1824.26 L2902.43 1824.26 L2902.43 1823.14 L2919.26 1823.14 L2919.26 1823.64 L2936.09 1823.64 L2936.09 1824.63 L2953.05 1824.63 L2953.05 1824.01 L2969.88 1824.01 L2969.88 1823.27 L2986.71 1823.27 L2986.71 1824.13 L3003.54 1824.13 L3003.54 1823.88 L3020.37 1823.88 L3020.37 1823.88 L3037.32 1823.88 L3037.32 1823.39 L3054.15 1823.39 L3054.15 1823.14 L3070.98 1823.14 L3070.98 1823.14 L3087.81 1823.14 L3087.81 1823.27 L3104.64 1823.27 L3104.64 1824.01 L3121.59 1824.01 L3121.59 1824.63 L3138.42 1824.63 L3138.42 1823.64 L3155.25 1823.64 L3155.25 1823.64 L3172.08 1823.64 L3172.08 1823.39 L3188.91 1823.39 L3188.91 1823.76 L3205.87 1823.76 L3205.87 1822.28 L3222.70 1822.28 L3222.70 1822.03 L3239.53 1822.03 L3239.53 1821.66 L3256.36 1821.66 L3256.36 1820.42 L3273.19 1820.42 L3273.19 1820.79 L3290.14 1820.79 L3290.14 1821.29 L3306.97 1821.29 L3306.97 1819.31 L3323.80 1819.31 L3323.80 1820.79 L3340.63 1820.79 L3340.63 1818.81 L3357.46 1818.81 L3357.46 1820.05 L3374.41 1820.05 L3374.41 1819.68 L3391.24 1819.68 L3391.24 1819.80 L3408.07 1819.80 L3408.07 1820.54 L3424.91 1820.54 L3424.91 1821.04 L3441.74 1821.04 L3441.74 1821.66 L3458.69 1821.66 L3458.69 1822.03 L3475.52 1822.03 L3475.52 1822.03 L3492.35 1822.03 L3492.35 1822.03 L3509.18 1822.03 L3509.18 1822.89 L3526.01 1822.89 L3526.01 1822.77 L3542.96 1822.77 L3542.96 1822.28 L3559.79 1822.28 L3559.79 1823.02 L3576.62 1823.02 L3576.62 1822.28 L3593.45 1822.28 L3593.45 1821.41 L3610.28 1821.41 L3610.28 1821.04 L3627.24 1821.04 L3627.24 1821.53 L3644.07 1821.53 L3644.07 1821.04 L3660.90 1821.04 L3660.90 1821.16 L3677.73 1821.16 L3677.73 1821.04 L3694.56 1821.04 L3694.56 1820.30 L3711.51 1820.30 L3711.51 1819.92 L3728.34 1819.92 L3728.34 1819.31 L3745.17 1819.31 L3745.17 1819.18 L3762.00 1819.18 L3762.00 1819.31 L3778.83 1819.31 L3778.83 1818.69 L3795.66 1818.69 L3795.66 1819.43 L3795.66 1196.08 L3795.66 1195.09 L3778.83 1195.09 L3778.83 1195.46 L3762.00 1195.46 L3762.00 1194.97 L3745.17 1194.97 L3745.17 1194.60 L3728.34 1194.60 L3728.34 1194.84 L3711.51 1194.84 L3711.51 1194.72 L3694.56 1194.72 L3694.56 1195.09 L3677.73 1195.09 L3677.73 1194.72 L3660.90 1194.72 L3660.90 1194.35 L3644.07 1194.35 L3644.07 1194.47 L3627.24 1194.47 L3627.24 1193.61 L3610.28 1193.61 L3610.28 1193.61 L3593.45 1193.61 L3593.45 1193.98 L3576.62 1193.98 L3576.62 1194.35 L3559.79 1194.35 L3559.79 1193.48 L3542.96 1193.48 L3542.96 1193.61 L3526.01 1193.61 L3526.01 1193.48 L3509.18 1193.48 L3509.18 1192.37 L3492.35 1192.37 L3492.35 1192.00 L3475.52 1192.00 L3475.52 1191.75 L3458.69 1191.75 L3458.69 1191.01 L3441.74 1191.01 L3441.74 1190.26 L3424.91 1190.26 L3424.91 1189.52 L3408.07 1189.52 L3408.07 1188.53 L3391.24 1188.53 L3391.24 1188.28 L3374.41 1188.28 L3374.41 1188.66 L3357.46 1188.66 L3357.46 1187.17 L3340.63 1187.17 L3340.63 1188.90 L3323.80 1188.90 L3323.80 1187.29 L3306.97 1187.29 L3306.97 1188.90 L3290.14 1188.90 L3290.14 1188.28 L3273.19 1188.28 L3273.19 1187.67 L3256.36 1187.67 L3256.36 1188.66 L3239.53 1188.66 L3239.53 1188.78 L3222.70 1188.78 L3222.70 1188.90 L3205.87 1188.90 L3205.87 1190.26 L3188.91 1190.26 L3188.91 1189.65 L3172.08 1189.65 L3172.08 1189.89 L3155.25 1189.89 L3155.25 1189.77 L3138.42 1189.77 L3138.42 1190.39 L3121.59 1190.39 L3121.59 1189.65 L3104.64 1189.65 L3104.64 1189.03 L3087.81 1189.03 L3087.81 1188.66 L3070.98 1188.66 L3070.98 1188.66 L3054.15 1188.66 L3054.15 1188.78 L3037.32 1188.78 L3037.32 1189.52 L3020.37 1189.52 L3020.37 1189.65 L3003.54 1189.65 L3003.54 1190.02 L2986.71 1190.02 L2986.71 1189.27 L2969.88 1189.27 L2969.88 1189.89 L2953.05 1189.89 L2953.05 1190.76 L2936.09 1190.76 L2936.09 1189.65 L2919.26 1189.65 L2919.26 1189.15 L2902.43 1189.15 L2902.43 1190.39 L2885.60 1190.39 L2885.60 1190.14 L2868.77 1190.14 L2868.77 1191.25 L2851.82 1191.25 L2851.82 1191.75 L2834.99 1191.75 L2834.99 1191.75 L2818.16 1191.75 L2818.16 1192.49 L2801.33 1192.49 L2801.33 1192.74 L2784.50 1192.74 L2784.50 1193.73 L2767.55 1193.73 L2767.55 1194.47 L2750.72 1194.47 L2750.72 1196.45 L2733.89 1196.45 L2733.89 1196.82 L2717.05 1196.82 L2717.05 1196.58 L2700.22 1196.58 L2700.22 1195.59 L2683.27 1195.59 L2683.27 1196.58 L2666.44 1196.58 L2666.44 1195.83 L2649.61 1195.83 L2649.61 1194.60 L2632.78 1194.60 L2632.78 1193.36 L2615.95 1193.36 L2615.95 1193.11 L2599.00 1193.11 L2599.00 1192.86 L2582.17 1192.86 L2582.17 1192.24 L2565.34 1192.24 L2565.34 1192.62 L2548.51 1192.62 L2548.51 1192.62 L2531.68 1192.62 L2531.68 1194.84 L2514.85 1194.84 L2514.85 1195.59 L2497.89 1195.59 L2497.89 1196.33 L2481.06 1196.33 L2481.06 1197.44 L2464.23 1197.44 L2464.23 1196.82 L2447.40 1196.82 L2447.40 1197.32 L2430.57 1197.32 L2430.57 1197.81 L2413.62 1197.81 L2413.62 1199.17 L2396.79 1199.17 L2396.79 1200.17 L2379.96 1200.17 L2379.96 1200.78 L2363.13 1200.78 L2363.13 1202.15 L2346.30 1202.15 L2346.30 1202.76 L2329.35 1202.76 L2329.35 1203.51 L2312.52 1203.51 L2312.52 1204.13 L2295.69 1204.13 L2295.69 1204.74 L2278.86 1204.74 L2278.86 1206.23 L2262.03 1206.23 L2262.03 1205.73 L2245.07 1205.73 L2245.07 1206.97 L2228.24 1206.97 L2228.24 1207.96 L2211.41 1207.96 L2211.41 1208.83 L2194.58 1208.83 L2194.58 1209.32 L2177.75 1209.32 L2177.75 1209.08 L2160.80 1209.08 L2160.80 1209.20 L2143.97 1209.20 L2143.97 1209.82 L2127.14 1209.82 L2127.14 1210.31 L2110.31 1210.31 L2110.31 1210.44 L2093.48 1210.44 L2093.48 1211.67 L2076.53 1211.67 L2076.53 1211.30 L2059.70 1211.30 L2059.70 1211.06 L2042.87 1211.06 L2042.87 1211.55 L2026.04 1211.55 L2026.04 1211.43 L2009.20 1211.43 L2009.20 1212.66 L1992.25 1212.66 L1992.25 1213.53 L1975.42 1213.53 L1975.42 1215.88 L1958.59 1215.88 L1958.59 1217.12 L1941.76 1217.12 L1941.76 1217.49 L1924.93 1217.49 L1924.93 1217.61 L1907.98 1217.61 L1907.98 1219.84 L1891.15 1219.84 L1891.15 1221.57 L1874.32 1221.57 L1874.32 1221.82 L1857.49 1221.82 L1857.49 1222.94 L1840.66 1222.94 L1840.66 1222.19 L1823.70 1222.19 L1823.70 1223.18 L1806.87 1223.18 L1806.87 1225.78 L1790.04 1225.78 L1790.04 1228.01 L1773.21 1228.01 L1773.21 1229.49 L1756.38 1229.49 L1756.38 1230.36 L1739.43 1230.36 L1739.43 1232.09 L1722.60 1232.09 L1722.60 1233.45 L1705.77 1233.45 L1705.77 1236.18 L1688.94 1236.18 L1688.94 1237.91 L1672.11 1237.91 L1672.11 1239.02 L1655.16 1239.02 L1655.16 1240.26 L1638.33 1240.26 L1638.33 1244.22 L1621.50 1244.22 L1621.50 1246.70 L1604.67 1246.70 L1604.67 1248.80 L1587.84 1248.80 L1587.84 1251.03 L1570.88 1251.03 L1570.88 1251.28 L1554.05 1251.28 L1554.05 1251.28 L1537.22 1251.28 L1537.22 1250.78 L1520.39 1250.78 L1520.39 1252.51 L1503.56 1252.51 L1503.56 1255.11 L1486.61 1255.11 L1486.61 1255.85 L1469.78 1255.85 L1469.78 1255.61 L1452.95 1255.61 L1452.95 1256.10 L1436.12 1256.10 L1436.12 1258.21 L1419.29 1258.21 L1419.29 1259.81 L1402.34 1259.81 L1402.34 1263.53 L1385.51 1263.53 L1385.51 1267.49 L1368.67 1267.49 L1368.67 1269.96 L1351.85 1269.96 L1351.85 1272.93 L1335.02 1272.93 L1335.02 1276.64 L1318.18 1276.64 L1318.18 1278.62 L1301.23 1278.62 L1301.23 1281.22 L1284.40 1281.22 L1284.40 1281.47 L1267.57 1281.47 L1267.57 1285.80 L1250.74 1285.80 L1250.74 1288.28 L1233.91 1288.28 L1233.91 1288.53 L1216.96 1288.53 L1216.96 1290.75 L1200.13 1290.75 L1200.13 1295.58 L1183.30 1295.58 L1183.30 1298.05 L1166.47 1298.05 L1166.47 1300.78 L1149.64 1300.78 L1149.64 1303.50 L1132.68 1303.50 L1132.68 1304.12 L1115.85 1304.12 L1115.85 1304.98 L1099.02 1304.98 L1099.02 1308.20 L1082.19 1308.20 L1082.19 1313.52 L1065.36 1313.52 L1065.36 1315.87 L1048.41 1315.87 L1048.41 1319.46 L1031.58 1319.46 L1031.58 1324.54 L1014.75 1324.54 L1014.75 1328.75 L997.92 1328.75 L997.92 1331.59 L981.09 1331.59 L981.09 1336.17 L964.14 1336.17 L964.14 1340.13 L947.31 1340.13 L947.31 1344.71 L930.48 1344.71 L930.48 1351.89 L913.65 1351.89 L913.65 1358.69 L896.82 1358.69 L896.82 1364.88 L879.86 1364.88 L879.86 1372.06 L863.03 1372.06 L863.03 1377.75 L846.20 1377.75 L846.20 1385.67 L829.37 1385.67 L829.37 1390.87 L812.54 1390.87 L812.54 1397.80 L795.59 1397.80 L795.59 1404.24 L778.76 1404.24 L778.76 1549.40 Z" stroke-linejoin="round"/>
	</defs>
	<defs>
		<clipPath id="clipPath_OcZfUgDB">
			<use xlink:href="#path_hVafukDh"/>
		</clipPath>
	</defs>
	<use xlink:href="#path_hVafukDh" style="stroke:none;fill:#999999;fill-opacity:0.65"/>
	<use xlink:href="#path_hVafukDh" style="fill:none;stroke:#808080;stroke-opacity:0.65;stroke-width:17.28" clip-path="url(#clipPath_OcZfUgDB)"/>
	<path d=" M778.76 1476.88 L795.59 1476.88 L795.59 1478.61 L812.42 1478.61 L812.42 1479.60 L829.25 1479.60 L829.25 1482.08 L846.08 1482.08 L846.08 1481.71 L863.03 1481.71 L863.03 1483.07 L879.86 1483.07 L879.86 1482.82 L896.69 1482.82 L896.69 1483.44 L913.52 1483.44 L913.52 1483.07 L930.35 1483.07 L930.35 1482.20 L947.31 1482.20 L947.31 1483.56 L964.14 1483.56 L964.14 1485.42 L980.97 1485.42 L980.97 1486.41 L997.80 1486.41 L997.80 1489.01 L1014.63 1489.01 L1014.63 1489.87 L1031.58 1489.87 L1031.58 1490.00 L1048.41 1490.00 L1048.41 1491.23 L1065.24 1491.23 L1065.24 1493.71 L1082.07 1493.71 L1082.07 1492.97 L1098.90 1492.97 L1098.90 1493.96 L1115.85 1493.96 L1115.85 1497.42 L1132.68 1497.42 L1132.68 1500.89 L1149.51 1500.89 L1149.51 1502.25 L1166.34 1502.25 L1166.34 1503.24 L1183.17 1503.24 L1183.17 1504.35 L1200.13 1504.35 L1200.13 1503.11 L1216.96 1503.11 L1216.96 1504.35 L1233.79 1504.35 L1233.79 1507.32 L1250.62 1507.32 L1250.62 1508.31 L1267.45 1508.31 L1267.45 1507.20 L1284.40 1507.20 L1284.40 1509.92 L1301.23 1509.92 L1301.23 1510.42 L1318.06 1510.42 L1318.06 1511.16 L1334.89 1511.16 L1334.89 1510.17 L1351.72 1510.17 L1351.72 1509.92 L1368.67 1509.92 L1368.67 1510.17 L1385.51 1510.17 L1385.51 1508.56 L1402.34 1508.56 L1402.34 1507.45 L1419.16 1507.45 L1419.16 1508.19 L1435.99 1508.19 L1435.99 1508.31 L1452.95 1508.31 L1452.95 1509.92 L1469.78 1509.92 L1469.78 1512.15 L1486.61 1512.15 L1486.61 1513.63 L1503.44 1513.63 L1503.44 1513.01 L1520.27 1513.01 L1520.27 1513.26 L1537.22 1513.26 L1537.22 1515.49 L1554.05 1515.49 L1554.05 1517.35 L1570.88 1517.35 L1570.88 1518.71 L1587.71 1518.71 L1587.71 1518.21 L1604.54 1518.21 L1604.54 1517.84 L1621.50 1517.84 L1621.50 1516.97 L1638.33 1516.97 L1638.33 1514.62 L1655.16 1514.62 L1655.16 1514.99 L1671.99 1514.99 L1671.99 1515.37 L1688.82 1515.37 L1688.82 1514.87 L1705.77 1514.87 L1705.77 1513.63 L1722.60 1513.63 L1722.60 1513.63 L1739.43 1513.63 L1739.43 1513.14 L1756.26 1513.14 L1756.26 1513.51 L1773.09 1513.51 L1773.09 1513.26 L1790.04 1513.26 L1790.04 1512.27 L1806.87 1512.27 L1806.87 1510.91 L1823.70 1510.91 L1823.70 1511.03 L1840.53 1511.03 L1840.53 1512.89 L1857.36 1512.89 L1857.36 1512.77 L1874.32 1512.77 L1874.32 1513.63 L1891.15 1513.63 L1891.15 1513.01 L1907.98 1513.01 L1907.98 1511.65 L1924.81 1511.65 L1924.81 1512.52 L1941.64 1512.52 L1941.64 1513.14 L1958.59 1513.14 L1958.59 1512.89 L1975.42 1512.89 L1975.42 1511.28 L1992.25 1511.28 L1992.25 1511.28 L2009.08 1511.28 L2009.08 1510.79 L2025.91 1510.79 L2025.91 1511.65 L2042.74 1511.65 L2042.74 1511.90 L2059.70 1511.90 L2059.70 1512.89 L2076.53 1512.89 L2076.53 1513.88 L2093.36 1513.88 L2093.36 1513.26 L2110.18 1513.26 L2110.18 1513.76 L2127.01 1513.76 L2127.01 1514.00 L2143.97 1514.00 L2143.97 1514.00 L2160.80 1514.00 L2160.80 1514.62 L2177.63 1514.62 L2177.63 1515.49 L2194.46 1515.49 L2194.46 1515.49 L2211.29 1515.49 L2211.29 1515.12 L2228.24 1515.12 L2228.24 1514.62 L2245.07 1514.62 L2245.07 1513.88 L2261.90 1513.88 L2261.90 1514.87 L2278.73 1514.87 L2278.73 1513.88 L2295.56 1513.88 L2295.56 1513.63 L2312.52 1513.63 L2312.52 1513.63 L2329.35 1513.63 L2329.35 1513.26 L2346.18 1513.26 L2346.18 1513.01 L2363.01 1513.01 L2363.01 1512.02 L2379.84 1512.02 L2379.84 1511.78 L2396.79 1511.78 L2396.79 1511.16 L2413.62 1511.16 L2413.62 1510.17 L2430.45 1510.17 L2430.45 1509.92 L2447.28 1509.92 L2447.28 1509.92 L2464.11 1509.92 L2464.11 1510.66 L2481.06 1510.66 L2481.06 1509.92 L2497.89 1509.92 L2497.89 1509.55 L2514.72 1509.55 L2514.72 1508.93 L2531.55 1508.93 L2531.55 1507.07 L2548.38 1507.07 L2548.38 1507.32 L2565.34 1507.32 L2565.34 1507.07 L2582.17 1507.07 L2582.17 1507.94 L2599.00 1507.94 L2599.00 1508.44 L2615.83 1508.44 L2615.83 1508.93 L2632.66 1508.93 L2632.66 1510.29 L2649.61 1510.29 L2649.61 1511.65 L2666.44 1511.65 L2666.44 1512.52 L2683.27 1512.52 L2683.27 1511.78 L2700.10 1511.78 L2700.10 1512.89 L2716.93 1512.89 L2716.93 1513.26 L2733.89 1513.26 L2733.89 1513.01 L2750.72 1513.01 L2750.72 1511.16 L2767.55 1511.16 L2767.55 1510.54 L2784.38 1510.54 L2784.38 1509.67 L2801.20 1509.67 L2801.20 1509.55 L2818.16 1509.55 L2818.16 1508.81 L2834.99 1508.81 L2834.99 1508.81 L2851.82 1508.81 L2851.82 1508.44 L2868.65 1508.44 L2868.65 1507.32 L2885.48 1507.32 L2885.48 1507.69 L2902.43 1507.69 L2902.43 1506.46 L2919.26 1506.46 L2919.26 1506.95 L2936.09 1506.95 L2936.09 1508.06 L2952.92 1508.06 L2952.92 1507.32 L2969.75 1507.32 L2969.75 1506.58 L2986.71 1506.58 L2986.71 1507.45 L3003.54 1507.45 L3003.54 1507.07 L3020.37 1507.07 L3020.37 1507.07 L3037.20 1507.07 L3037.20 1506.46 L3054.03 1506.46 L3054.03 1506.21 L3070.98 1506.21 L3070.98 1506.21 L3087.81 1506.21 L3087.81 1506.46 L3104.64 1506.46 L3104.64 1507.20 L3121.47 1507.20 L3121.47 1507.82 L3138.30 1507.82 L3138.30 1506.95 L3155.13 1506.95 L3155.13 1507.07 L3172.08 1507.07 L3172.08 1506.83 L3188.91 1506.83 L3188.91 1507.32 L3205.74 1507.32 L3205.74 1505.96 L3222.57 1505.96 L3222.57 1505.71 L3239.40 1505.71 L3239.40 1505.47 L3256.36 1505.47 L3256.36 1504.35 L3273.19 1504.35 L3273.19 1504.85 L3290.02 1504.85 L3290.02 1505.34 L3306.85 1505.34 L3306.85 1503.61 L3323.68 1503.61 L3323.68 1505.09 L3340.63 1505.09 L3340.63 1503.24 L3357.46 1503.24 L3357.46 1504.60 L3374.29 1504.60 L3374.29 1504.23 L3391.12 1504.23 L3391.12 1504.48 L3407.95 1504.48 L3407.95 1505.34 L3424.91 1505.34 L3424.91 1505.96 L3441.74 1505.96 L3441.74 1506.70 L3458.57 1506.70 L3458.57 1507.20 L3475.39 1507.20 L3475.39 1507.32 L3492.22 1507.32 L3492.22 1507.45 L3509.18 1507.45 L3509.18 1508.56 L3526.01 1508.56 L3526.01 1508.56 L3542.84 1508.56 L3542.84 1508.19 L3559.67 1508.19 L3559.67 1509.05 L3576.50 1509.05 L3576.50 1508.44 L3593.45 1508.44 L3593.45 1507.82 L3610.28 1507.82 L3610.28 1507.69 L3627.11 1507.69 L3627.11 1508.31 L3643.94 1508.31 L3643.94 1508.06 L3660.77 1508.06 L3660.77 1508.31 L3677.73 1508.31 L3677.73 1508.31 L3694.56 1508.31 L3694.56 1507.82 L3711.39 1507.82 L3711.39 1507.69 L3728.22 1507.69 L3728.22 1507.32 L3745.05 1507.32 L3745.05 1507.45 L3762.00 1507.45 L3762.00 1507.69 L3778.83 1507.69 L3778.83 1507.20 L3795.66 1507.20 L3795.66 1508.06" stroke-linejoin="round" style="fill:none;stroke:#000000;stroke-width:8.64"/>
	<line x1="559.10" y1="2509.23" x2="559.10" y2="419.90" style="stroke:#000000;stroke-width:5.76"/>
	<line x1="559.10" y1="2445.87" x2="519.13" y2="2445.87" style="stroke:#000000;stroke-width:5.76"/>
	<text x="499.08" y="2480.90" style="font-family:'Helvetica';font-size:99.99px;fill:#000000" text-anchor="end">-0.25</text>
	<line x1="559.10" y1="2249.60" x2="519.13" y2="2249.60" style="stroke:#000000;stroke-width:5.76"/>
	<text x="499.08" y="2284.63" style="font-family:'Helvetica';font-size:99.99px;fill:#000000" text-anchor="end">-0.20</text>
	<line x1="559.10" y1="2053.32" x2="519.13" y2="2053.32" style="stroke:#000000;stroke-width:5.76"/>
	<text x="499.08" y="2088.35" style="font-family:'Helvetica';font-size:99.99px;fill:#000000" text-anchor="end">-0.15</text>
	<line x1="559.10" y1="1857.05" x2="519.13" y2="1857.05" style="stroke:#000000;stroke-width:5.76"/>
	<text x="499.08" y="1892.08" style="font-family:'Helvetica';font-size:99.99px;fill:#000000" text-anchor="end">-0.10</text>
	<line x1="559.10" y1="1660.78" x2="519.13" y2="1660.78" style="stroke:#000000;stroke-width:5.76"/>
	<text x="499.08" y="1695.81" style="font-family:'Helvetica';font-size:99.99px;fill:#000000" text-anchor="end">-0.05</text>
	<line x1="559.10" y1="1464.63" x2="519.13" y2="1464.63" style="stroke:#000000;stroke-width:5.76"/>
	<text x="499.08" y="1499.66" style="font-family:'Helvetica';font-size:99.99px;fill:#000000" text-anchor="end">0.00</text>
	<line x1="559.10" y1="1268.35" x2="519.13" y2="1268.35" style="stroke:#000000;stroke-width:5.76"/>
	<text x="499.08" y="1303.38" style="font-family:'Helvetica';font-size:99.99px;fill:#000000" text-anchor="end">0.05</text>
	<line x1="559.10" y1="1072.08" x2="519.13" y2="1072.08" style="stroke:#000000;stroke-width:5.76"/>
	<text x="499.08" y="1107.11" style="font-family:'Helvetica';font-size:99.99px;fill:#000000" text-anchor="end">0.10</text>
	<line x1="559.10" y1="875.81" x2="519.13" y2="875.81" style="stroke:#000000;stroke-width:5.76"/>
	<text x="499.08" y="910.83" style="font-family:'Helvetica';font-size:99.99px;fill:#000000" text-anchor="end">0.15</text>
	<line x1="559.10" y1="679.53" x2="519.13" y2="679.53" style="stroke:#000000;stroke-width:5.76"/>
	<text x="499.08" y="714.56" style="font-family:'Helvetica';font-size:99.99px;fill:#000000" text-anchor="end">0.20</text>
	<line x1="559.10" y1="483.26" x2="519.13" y2="483.26" style="stroke:#000000;stroke-width:5.76"/>
	<text x="499.08" y="518.29" style="font-family:'Helvetica';font-size:99.99px;fill:#000000" text-anchor="end">0.25</text>
	<text x="190.71" y="1464.63" style="font-family:'Helvetica';font-size:99.99px;fill:#000000" transform="rotate(-90 190.71,1464.63)" text-anchor="middle">Difference in Probabilities</text>
	<line x1="559.10" y1="2509.23" x2="3859.02" y2="2509.23" style="stroke:#000000;stroke-width:5.76"/>
	<line x1="622.46" y1="2509.23" x2="622.46" y2="2549.21" style="stroke:#000000;stroke-width:5.76"/>
	<text x="622.46" y="2625.15" style="font-family:'Helvetica';font-size:79.94px;fill:#000000" text-anchor="middle">0</text>
	<line x1="812.79" y1="2509.23" x2="812.79" y2="2549.21" style="stroke:#000000;stroke-width:5.76"/>
	<text x="812.79" y="2625.15" style="font-family:'Helvetica';font-size:79.94px;fill:#000000" text-anchor="middle">.3</text>
	<line x1="1003.12" y1="2509.23" x2="1003.12" y2="2549.21" style="stroke:#000000;stroke-width:5.76"/>
	<text x="1003.12" y="2625.15" style="font-family:'Helvetica';font-size:79.94px;fill:#000000" text-anchor="middle">.6</text>
	<line x1="1193.44" y1="2509.23" x2="1193.44" y2="2549.21" style="stroke:#000000;stroke-width:5.76"/>
	<text x="1193.44" y="2625.15" style="font-family:'Helvetica';font-size:79.94px;fill:#000000" text-anchor="middle">.9</text>
	<line x1="1383.77" y1="2509.23" x2="1383.77" y2="2549.21" style="stroke:#000000;stroke-width:5.76"/>
	<text x="1383.77" y="2625.15" style="font-family:'Helvetica';font-size:79.94px;fill:#000000" text-anchor="middle">1.2</text>
	<line x1="1574.10" y1="2509.23" x2="1574.10" y2="2549.21" style="stroke:#000000;stroke-width:5.76"/>
	<text x="1574.10" y="2625.15" style="font-family:'Helvetica';font-size:79.94px;fill:#000000" text-anchor="middle">1.5</text>
	<line x1="1764.43" y1="2509.23" x2="1764.43" y2="2549.21" style="stroke:#000000;stroke-width:5.76"/>
	<text x="1764.43" y="2625.15" style="font-family:'Helvetica';font-size:79.94px;fill:#000000" text-anchor="middle">1.8</text>
	<line x1="1954.63" y1="2509.23" x2="1954.63" y2="2549.21" style="stroke:#000000;stroke-width:5.76"/>
	<text x="1954.63" y="2625.15" style="font-family:'Helvetica';font-size:79.94px;fill:#000000" text-anchor="middle">2.1</text>
	<line x1="2144.96" y1="2509.23" x2="2144.96" y2="2549.21" style="stroke:#000000;stroke-width:5.76"/>
	<text x="2144.96" y="2625.15" style="font-family:'Helvetica';font-size:79.94px;fill:#000000" text-anchor="middle">2.4</text>
	<line x1="2335.29" y1="2509.23" x2="2335.29" y2="2549.21" style="stroke:#000000;stroke-width:5.76"/>
	<text x="2335.29" y="2625.15" style="font-family:'Helvetica';font-size:79.94px;fill:#000000" text-anchor="middle">2.7</text>
	<line x1="2525.61" y1="2509.23" x2="2525.61" y2="2549.21" style="stroke:#000000;stroke-width:5.76"/>
	<text x="2525.61" y="2625.15" style="font-family:'Helvetica';font-size:79.94px;fill:#000000" text-anchor="middle">3</text>
	<line x1="2715.94" y1="2509.23" x2="2715.94" y2="2549.21" style="stroke:#000000;stroke-width:5.76"/>
	<text x="2715.94" y="2625.15" style="font-family:'Helvetica';font-size:79.94px;fill:#000000" text-anchor="middle">3.3</text>
	<line x1="2906.27" y1="2509.23" x2="2906.27" y2="2549.21" style="stroke:#000000;stroke-width:5.76"/>
	<text x="2906.27" y="2625.15" style="font-family:'Helvetica';font-size:79.94px;fill:#000000" text-anchor="middle">3.6</text>
	<line x1="3096.60" y1="2509.23" x2="3096.60" y2="2549.21" style="stroke:#000000;stroke-width:5.76"/>
	<text x="3096.60" y="2625.15" style="font-family:'Helvetica';font-size:79.94px;fill:#000000" text-anchor="middle">3.9</text>
	<line x1="3286.92" y1="2509.23" x2="3286.92" y2="2549.21" style="stroke:#000000;stroke-width:5.76"/>
	<text x="3286.92" y="2625.15" style="font-family:'Helvetica';font-size:79.94px;fill:#000000" text-anchor="middle">4.2</text>
	<line x1="3477.25" y1="2509.23" x2="3477.25" y2="2549.21" style="stroke:#000000;stroke-width:5.76"/>
	<text x="3477.25" y="2625.15" style="font-family:'Helvetica';font-size:79.94px;fill:#000000" text-anchor="middle">4.5</text>
	<line x1="3667.58" y1="2509.23" x2="3667.58" y2="2549.21" style="stroke:#000000;stroke-width:5.76"/>
	<text x="3667.58" y="2625.15" style="font-family:'Helvetica';font-size:79.94px;fill:#000000" text-anchor="middle">4.8</text>
	<line x1="3857.91" y1="2509.23" x2="3857.91" y2="2549.21" style="stroke:#000000;stroke-width:5.76"/>
	<text x="3857.91" y="2625.15" style="font-family:'Helvetica';font-size:79.94px;fill:#000000" text-anchor="middle">5.1</text>
	<text x="2209.06" y="2729.16" style="font-family:'Helvetica';font-size:99.99px;fill:#000000" text-anchor="middle">Time (years)</text>
	<rect x="593.63" y="454.42" width="993.34" height="326.46" style="fill:#FFFFFF"/>
	<rect x="596.51" y="457.30" width="987.58" height="320.70" style="fill:none;stroke:#000000;stroke-width:5.76"/>
	<rect x="636.82" y="497.74" width="374.47" height="99.99" style="fill:#999999;fill-opacity:0.65"/>
	<rect x="641.14" y="502.06" width="365.83" height="91.35" style="fill:none;stroke:#808080;stroke-opacity:0.65;stroke-width:8.64"/>
	<line x1="636.82" y1="687.70" x2="1011.28" y2="687.70" style="stroke:#000000;stroke-width:8.64"/>
	<text x="1071.30" y="582.76" style="font-family:'Helvetica';font-size:99.99px;fill:#000000">CI95%</text>
	<text x="1071.30" y="722.73" style="font-family:'Helvetica';font-size:99.99px;fill:#000000">Difference</text>
	<text x="2209.06" y="369.63" style="font-family:'Helvetica';font-size:110.01px;fill:#000000" text-anchor="middle">from 3rd Readmission to 4th Readmission</text>
	<text x="2209.06" y="215.98" style="font-family:'Helvetica';font-size:139.96px;fill:#1E2D53" text-anchor="middle">Difference in Probabilities</text>
</svg>
