<?xml version="1.0" encoding="UTF-8" standalone="no"?>
<!-- This is a Stata 16.1 generated SVG file (http://www.stata.com) -->

<svg version="1.1" width="5.50in" height="4.00in" viewBox="0 0 3960 2880" xmlns="http://www.w3.org/2000/svg" xmlns:xlink="http://www.w3.org/1999/xlink">
	<desc>Stata Graph - diff_los_mod11_3y_rp_22</desc>
	<rect x="0" y="0" width="3960" height="2880" style="fill:#EAF2F3;stroke:none"/>
	<rect x="0.00" y="0.00" width="3959.88" height="2880.00" style="fill:#FFFFFF"/>
	<rect x="2.88" y="2.88" width="3954.12" height="2874.24" style="fill:none;stroke:#FFFFFF;stroke-width:5.76"/>
	<rect x="376.69" y="419.90" width="3482.32" height="2089.34" style="fill:#FFFFFF"/>
	<rect x="379.57" y="422.78" width="3476.57" height="2083.58" style="fill:none;stroke:#FFFFFF;stroke-width:5.76"/>
	<line x1="376.69" y1="2445.87" x2="3859.02" y2="2445.87" style="stroke:#EAF2F3;stroke-width:8.64"/>
	<line x1="376.69" y1="1791.71" x2="3859.02" y2="1791.71" style="stroke:#EAF2F3;stroke-width:8.64"/>
	<line x1="376.69" y1="1137.42" x2="3859.02" y2="1137.42" style="stroke:#EAF2F3;stroke-width:8.64"/>
	<line x1="376.69" y1="483.26" x2="3859.02" y2="483.26" style="stroke:#EAF2F3;stroke-width:8.64"/>
	<line x1="376.69" y1="483.26" x2="3859.02" y2="483.26" style="stroke:#1A476F;stroke-width:8.64"/>
	<defs>
		<path id="path_BmeJwzdL" d="M605.38 485.86 L605.38 485.86 L623.21 485.86 L623.21 486.60 L641.02 486.60 L641.02 487.47 L658.85 487.47 L658.85 488.33 L676.66 488.33 L676.66 489.32 L694.49 489.32 L694.49 490.56 L712.30 490.56 L712.30 491.80 L730.13 491.80 L730.13 493.28 L747.95 493.28 L747.95 494.89 L765.76 494.89 L765.76 496.62 L783.59 496.62 L783.59 498.48 L801.40 498.48 L801.40 500.58 L819.23 500.58 L819.23 502.81 L837.04 502.81 L837.04 505.16 L854.87 505.16 L854.87 507.64 L872.68 507.64 L872.68 510.36 L890.50 510.36 L890.50 513.33 L908.33 513.33 L908.33 516.30 L926.14 516.30 L926.14 519.52 L943.97 519.52 L943.97 522.74 L961.78 522.74 L961.78 526.20 L979.61 526.20 L979.61 529.79 L997.42 529.79 L997.42 533.50 L1015.25 533.50 L1015.25 537.59 L1033.07 537.59 L1033.07 541.67 L1050.88 541.67 L1050.88 545.88 L1068.70 545.88 L1068.70 550.33 L1086.53 550.33 L1086.53 554.79 L1104.35 554.79 L1104.35 559.49 L1122.16 559.49 L1122.16 564.32 L1139.98 564.32 L1139.98 569.27 L1157.81 569.27 L1157.81 574.34 L1175.63 574.34 L1175.63 579.54 L1193.44 579.54 L1193.44 584.98 L1211.27 584.98 L1211.27 590.43 L1229.09 590.43 L1229.09 596.00 L1246.90 596.00 L1246.90 601.69 L1264.72 601.69 L1264.72 607.63 L1282.55 607.63 L1282.55 613.57 L1300.37 613.57 L1300.37 619.76 L1318.18 619.76 L1318.18 625.95 L1336.01 625.95 L1336.01 632.26 L1353.83 632.26 L1353.83 638.69 L1371.64 638.69 L1371.64 645.25 L1389.46 645.25 L1389.46 651.94 L1407.29 651.94 L1407.29 658.62 L1425.11 658.62 L1425.11 665.55 L1442.92 665.55 L1442.92 672.48 L1460.74 672.48 L1460.74 679.66 L1478.57 679.66 L1478.57 686.83 L1496.38 686.83 L1496.38 694.26 L1514.20 694.26 L1514.20 701.68 L1532.03 701.68 L1532.03 709.23 L1549.85 709.23 L1549.85 716.78 L1567.66 716.78 L1567.66 724.58 L1585.48 724.58 L1585.48 732.50 L1603.31 732.50 L1603.31 740.42 L1621.13 740.42 L1621.13 748.34 L1638.94 748.34 L1638.94 756.51 L1656.77 756.51 L1656.77 764.68 L1674.59 764.68 L1674.59 773.09 L1692.40 773.09 L1692.40 781.51 L1710.22 781.51 L1710.22 790.04 L1728.05 790.04 L1728.05 798.71 L1745.87 798.71 L1745.87 807.37 L1763.68 807.37 L1763.68 816.16 L1781.51 816.16 L1781.51 824.94 L1799.33 824.94 L1799.33 833.85 L1817.14 833.85 L1817.14 842.89 L1834.96 842.89 L1834.96 851.92 L1852.79 851.92 L1852.79 860.96 L1870.61 860.96 L1870.61 870.11 L1888.42 870.11 L1888.42 879.39 L1906.24 879.39 L1906.24 888.55 L1924.07 888.55 L1924.07 897.83 L1941.88 897.83 L1941.88 907.24 L1959.70 907.24 L1959.70 916.52 L1977.53 916.52 L1977.53 926.05 L1995.35 926.05 L1995.35 935.46 L2013.16 935.46 L2013.16 945.11 L2030.98 945.11 L2030.98 954.76 L2048.80 954.76 L2048.80 964.41 L2066.63 964.41 L2066.63 974.19 L2084.45 974.19 L2084.45 984.09 L2102.26 984.09 L2102.26 993.87 L2120.09 993.87 L2120.09 1003.89 L2137.91 1003.89 L2137.91 1013.79 L2155.72 1013.79 L2155.72 1023.94 L2173.55 1023.94 L2173.55 1034.09 L2191.36 1034.09 L2191.36 1044.24 L2209.18 1044.24 L2209.18 1054.51 L2227.01 1054.51 L2227.01 1064.90 L2244.82 1064.90 L2244.82 1075.17 L2262.64 1075.17 L2262.64 1085.69 L2280.47 1085.69 L2280.47 1096.21 L2298.28 1096.21 L2298.28 1106.73 L2316.11 1106.73 L2316.11 1117.25 L2334.05 1117.25 L2334.05 1127.89 L2351.87 1127.89 L2351.87 1138.54 L2369.69 1138.54 L2369.69 1149.30 L2387.51 1149.30 L2387.51 1160.19 L2405.33 1160.19 L2405.33 1171.08 L2423.15 1171.08 L2423.15 1181.97 L2440.97 1181.97 L2440.97 1192.99 L2458.79 1192.99 L2458.79 1204.13 L2476.61 1204.13 L2476.61 1215.14 L2494.43 1215.14 L2494.43 1226.28 L2512.25 1226.28 L2512.25 1237.54 L2530.07 1237.54 L2530.07 1248.68 L2547.89 1248.68 L2547.89 1259.94 L2565.71 1259.94 L2565.71 1271.20 L2583.53 1271.20 L2583.53 1282.59 L2601.35 1282.59 L2601.35 1293.97 L2619.17 1293.97 L2619.17 1305.36 L2636.99 1305.36 L2636.99 1316.86 L2654.81 1316.86 L2654.81 1328.25 L2672.63 1328.25 L2672.63 1339.76 L2690.45 1339.76 L2690.45 1351.39 L2708.27 1351.39 L2708.27 1363.03 L2726.09 1363.03 L2726.09 1374.66 L2743.91 1374.66 L2743.91 1386.29 L2761.73 1386.29 L2761.73 1398.05 L2779.55 1398.05 L2779.55 1409.80 L2797.37 1409.80 L2797.37 1421.56 L2815.19 1421.56 L2815.19 1433.44 L2833.01 1433.44 L2833.01 1445.20 L2850.83 1445.20 L2850.83 1457.20 L2868.65 1457.20 L2868.65 1469.08 L2886.47 1469.08 L2886.47 1481.09 L2904.29 1481.09 L2904.29 1492.97 L2922.11 1492.97 L2922.11 1505.09 L2939.93 1505.09 L2939.93 1517.10 L2957.75 1517.10 L2957.75 1529.23 L2975.57 1529.23 L2975.57 1541.35 L2993.39 1541.35 L2993.39 1553.48 L3011.21 1553.48 L3011.21 1565.61 L3029.03 1565.61 L3029.03 1577.86 L3046.85 1577.86 L3046.85 1590.11 L3064.67 1590.11 L3064.67 1602.49 L3082.49 1602.49 L3082.49 1614.74 L3100.31 1614.74 L3100.31 1627.12 L3118.13 1627.12 L3118.13 1639.49 L3135.95 1639.49 L3135.95 1651.99 L3153.77 1651.99 L3153.77 1664.37 L3171.59 1664.37 L3171.59 1676.86 L3189.41 1676.86 L3189.41 1689.49 L3207.23 1689.49 L3207.23 1701.99 L3225.05 1701.99 L3225.05 1714.61 L3242.87 1714.61 L3242.87 1727.23 L3260.69 1727.23 L3260.69 1739.86 L3278.51 1739.86 L3278.51 1752.48 L3296.33 1752.48 L3296.33 1765.23 L3314.15 1765.23 L3314.15 1777.85 L3331.97 1777.85 L3331.97 1790.59 L3349.79 1790.59 L3349.79 1803.34 L3367.61 1803.34 L3367.61 1816.21 L3385.43 1816.21 L3385.43 1828.96 L3403.25 1828.96 L3403.25 1841.83 L3421.07 1841.83 L3421.07 1854.58 L3438.89 1854.58 L3438.89 1867.45 L3456.71 1867.45 L3456.71 1880.32 L3474.53 1880.32 L3474.53 1893.19 L3492.35 1893.19 L3492.35 1906.06 L3510.17 1906.06 L3510.17 1919.05 L3527.99 1919.05 L3527.99 1931.92 L3545.81 1931.92 L3545.81 1944.92 L3563.63 1944.92 L3563.63 1957.91 L3581.45 1957.91 L3581.45 1970.90 L3599.27 1970.90 L3599.27 1983.90 L3617.09 1983.90 L3617.09 1997.02 L3634.91 1997.02 L3634.91 2010.01 L3652.73 2010.01 L3652.73 2023.00 L3670.55 2023.00 L3670.55 2036.12 L3688.37 2036.12 L3688.37 2049.12 L3706.19 2049.12 L3706.19 2062.23 L3724.01 2062.23 L3724.01 2075.35 L3741.83 2075.35 L3741.83 2088.47 L3759.65 2088.47 L3759.65 2101.59 L3777.47 2101.59 L3777.47 2114.71 L3795.29 2114.71 L3795.29 2127.95 L3795.29 1708.17 L3795.29 1698.27 L3777.47 1698.27 L3777.47 1688.37 L3759.65 1688.37 L3759.65 1678.60 L3741.83 1678.60 L3741.83 1668.70 L3724.01 1668.70 L3724.01 1658.92 L3706.19 1658.92 L3706.19 1649.14 L3688.37 1649.14 L3688.37 1639.37 L3670.55 1639.37 L3670.55 1629.47 L3652.73 1629.47 L3652.73 1619.69 L3634.91 1619.69 L3634.91 1609.91 L3617.09 1609.91 L3617.09 1600.14 L3599.27 1600.14 L3599.27 1590.36 L3581.45 1590.36 L3581.45 1580.58 L3563.63 1580.58 L3563.63 1570.81 L3545.81 1570.81 L3545.81 1561.16 L3527.99 1561.16 L3527.99 1551.38 L3510.17 1551.38 L3510.17 1541.73 L3492.35 1541.73 L3492.35 1531.95 L3474.53 1531.95 L3474.53 1522.30 L3456.71 1522.30 L3456.71 1512.64 L3438.89 1512.64 L3438.89 1502.99 L3421.07 1502.99 L3421.07 1493.34 L3403.25 1493.34 L3403.25 1483.69 L3385.43 1483.69 L3385.43 1474.16 L3367.61 1474.16 L3367.61 1464.50 L3349.79 1464.50 L3349.79 1454.85 L3331.97 1454.85 L3331.97 1445.32 L3314.15 1445.32 L3314.15 1435.79 L3296.33 1435.79 L3296.33 1426.26 L3278.51 1426.26 L3278.51 1416.73 L3260.69 1416.73 L3260.69 1407.21 L3242.87 1407.21 L3242.87 1397.68 L3225.05 1397.68 L3225.05 1388.27 L3207.23 1388.27 L3207.23 1378.74 L3189.41 1378.74 L3189.41 1369.34 L3171.59 1369.34 L3171.59 1359.93 L3153.77 1359.93 L3153.77 1350.53 L3135.95 1350.53 L3135.95 1341.24 L3118.13 1341.24 L3118.13 1331.96 L3100.31 1331.96 L3100.31 1322.68 L3082.49 1322.68 L3082.49 1313.40 L3064.67 1313.40 L3064.67 1304.12 L3046.85 1304.12 L3046.85 1294.96 L3029.03 1294.96 L3029.03 1285.80 L3011.21 1285.80 L3011.21 1276.64 L2993.39 1276.64 L2993.39 1267.61 L2975.57 1267.61 L2975.57 1258.45 L2957.75 1258.45 L2957.75 1249.42 L2939.93 1249.42 L2939.93 1240.26 L2922.11 1240.26 L2922.11 1231.23 L2904.29 1231.23 L2904.29 1222.32 L2886.47 1222.32 L2886.47 1213.28 L2868.65 1213.28 L2868.65 1204.37 L2850.83 1204.37 L2850.83 1195.46 L2833.01 1195.46 L2833.01 1186.55 L2815.19 1186.55 L2815.19 1177.64 L2797.37 1177.64 L2797.37 1168.86 L2779.55 1168.86 L2779.55 1160.07 L2761.73 1160.07 L2761.73 1151.28 L2743.91 1151.28 L2743.91 1142.50 L2726.09 1142.50 L2726.09 1133.71 L2708.27 1133.71 L2708.27 1125.05 L2690.45 1125.05 L2690.45 1116.38 L2672.63 1116.38 L2672.63 1107.72 L2654.81 1107.72 L2654.81 1099.18 L2636.99 1099.18 L2636.99 1090.52 L2619.17 1090.52 L2619.17 1081.98 L2601.35 1081.98 L2601.35 1073.44 L2583.53 1073.44 L2583.53 1064.90 L2565.71 1064.90 L2565.71 1056.49 L2547.89 1056.49 L2547.89 1048.07 L2530.07 1048.07 L2530.07 1039.66 L2512.25 1039.66 L2512.25 1031.24 L2494.43 1031.24 L2494.43 1022.95 L2476.61 1022.95 L2476.61 1014.66 L2458.79 1014.66 L2458.79 1006.37 L2440.97 1006.37 L2440.97 998.07 L2423.15 998.07 L2423.15 989.91 L2405.33 989.91 L2405.33 981.74 L2387.51 981.74 L2387.51 973.57 L2369.69 973.57 L2369.69 965.53 L2351.87 965.53 L2351.87 957.61 L2334.05 957.61 L2334.05 949.56 L2316.11 949.56 L2316.11 941.64 L2298.28 941.64 L2298.28 933.85 L2280.47 933.85 L2280.47 925.93 L2262.64 925.93 L2262.64 918.13 L2244.82 918.13 L2244.82 910.46 L2227.01 910.46 L2227.01 902.66 L2209.18 902.66 L2209.18 894.99 L2191.36 894.99 L2191.36 887.44 L2173.55 887.44 L2173.55 879.77 L2155.72 879.77 L2155.72 872.34 L2137.91 872.34 L2137.91 864.92 L2120.09 864.92 L2120.09 857.49 L2102.26 857.49 L2102.26 850.07 L2084.45 850.07 L2084.45 842.76 L2066.63 842.76 L2066.63 835.46 L2048.80 835.46 L2048.80 828.28 L2030.98 828.28 L2030.98 820.98 L2013.16 820.98 L2013.16 813.93 L1995.35 813.93 L1995.35 806.88 L1977.53 806.88 L1977.53 799.82 L1959.70 799.82 L1959.70 792.77 L1941.88 792.77 L1941.88 785.84 L1924.07 785.84 L1924.07 778.91 L1906.24 778.91 L1906.24 772.10 L1888.42 772.10 L1888.42 765.17 L1870.61 765.17 L1870.61 758.36 L1852.79 758.36 L1852.79 751.56 L1834.96 751.56 L1834.96 744.75 L1817.14 744.75 L1817.14 738.07 L1799.33 738.07 L1799.33 731.51 L1781.51 731.51 L1781.51 724.83 L1763.68 724.83 L1763.68 718.27 L1745.87 718.27 L1745.87 711.83 L1728.05 711.83 L1728.05 705.40 L1710.22 705.40 L1710.22 698.96 L1692.40 698.96 L1692.40 692.77 L1674.59 692.77 L1674.59 686.46 L1656.77 686.46 L1656.77 680.40 L1638.94 680.40 L1638.94 674.33 L1621.13 674.33 L1621.13 668.39 L1603.31 668.39 L1603.31 662.58 L1585.48 662.58 L1585.48 656.76 L1567.66 656.76 L1567.66 651.07 L1549.85 651.07 L1549.85 645.38 L1532.03 645.38 L1532.03 639.81 L1514.20 639.81 L1514.20 634.36 L1496.38 634.36 L1496.38 628.92 L1478.57 628.92 L1478.57 623.60 L1460.74 623.60 L1460.74 618.27 L1442.92 618.27 L1442.92 613.20 L1425.11 613.20 L1425.11 608.13 L1407.29 608.13 L1407.29 603.30 L1389.46 603.30 L1389.46 598.47 L1371.64 598.47 L1371.64 593.65 L1353.83 593.65 L1353.83 588.94 L1336.01 588.94 L1336.01 584.24 L1318.18 584.24 L1318.18 579.79 L1300.37 579.79 L1300.37 575.33 L1282.55 575.33 L1282.55 570.88 L1264.72 570.88 L1264.72 566.67 L1246.90 566.67 L1246.90 562.46 L1229.09 562.46 L1229.09 558.50 L1211.27 558.50 L1211.27 554.54 L1193.44 554.54 L1193.44 550.58 L1175.63 550.58 L1175.63 546.87 L1157.81 546.87 L1157.81 543.16 L1139.98 543.16 L1139.98 539.57 L1122.16 539.57 L1122.16 535.98 L1104.35 535.98 L1104.35 532.64 L1086.53 532.64 L1086.53 529.42 L1068.70 529.42 L1068.70 526.20 L1050.88 526.20 L1050.88 523.23 L1033.07 523.23 L1033.07 520.14 L1015.25 520.14 L1015.25 517.29 L997.42 517.29 L997.42 514.57 L979.61 514.57 L979.61 511.97 L961.78 511.97 L961.78 509.62 L943.97 509.62 L943.97 507.27 L926.14 507.27 L926.14 505.04 L908.33 505.04 L908.33 502.81 L890.50 502.81 L890.50 500.83 L872.68 500.83 L872.68 498.85 L854.87 498.85 L854.87 497.12 L837.04 497.12 L837.04 495.51 L819.23 495.51 L819.23 493.90 L801.40 493.90 L801.40 492.54 L783.59 492.54 L783.59 491.30 L765.76 491.30 L765.76 490.07 L747.95 490.07 L747.95 489.08 L730.13 489.08 L730.13 488.09 L712.30 488.09 L712.30 487.22 L694.49 487.22 L694.49 486.48 L676.66 486.48 L676.66 485.86 L658.85 485.86 L658.85 485.36 L641.02 485.36 L641.02 484.87 L623.21 484.87 L623.21 484.37 L605.38 484.37 L605.38 485.86 Z" stroke-linejoin="round"/>
	</defs>
	<defs>
		<clipPath id="clipPath_gJuLqBxP">
			<use xlink:href="#path_BmeJwzdL"/>
		</clipPath>
	</defs>
	<use xlink:href="#path_BmeJwzdL" style="stroke:none;fill:#999999;fill-opacity:0.65"/>
	<use xlink:href="#path_BmeJwzdL" style="fill:none;stroke:#808080;stroke-opacity:0.65;stroke-width:17.28" clip-path="url(#clipPath_gJuLqBxP)"/>
	<path d=" M605.38 485.24 L623.21 485.24 L623.21 485.73 L641.02 485.73 L641.02 486.48 L658.85 486.48 L658.85 487.22 L676.66 487.22 L676.66 487.96 L694.49 487.96 L694.49 488.95 L712.30 488.95 L712.30 490.07 L730.13 490.07 L730.13 491.18 L747.95 491.18 L747.95 492.54 L765.76 492.54 L765.76 494.03 L783.59 494.03 L783.59 495.51 L801.40 495.51 L801.40 497.37 L819.23 497.37 L819.23 499.22 L837.04 499.22 L837.04 501.20 L854.87 501.20 L854.87 503.31 L872.68 503.31 L872.68 505.66 L890.50 505.66 L890.50 508.13 L908.33 508.13 L908.33 510.73 L926.14 510.73 L926.14 513.45 L943.97 513.45 L943.97 516.30 L961.78 516.30 L961.78 519.15 L979.61 519.15 L979.61 522.24 L997.42 522.24 L997.42 525.46 L1015.25 525.46 L1015.25 528.92 L1033.07 528.92 L1033.07 532.51 L1050.88 532.51 L1050.88 536.10 L1068.70 536.10 L1068.70 539.94 L1086.53 539.94 L1086.53 543.77 L1104.35 543.77 L1104.35 547.73 L1122.16 547.73 L1122.16 551.94 L1139.98 551.94 L1139.98 556.27 L1157.81 556.27 L1157.81 560.61 L1175.63 560.61 L1175.63 565.18 L1193.44 565.18 L1193.44 569.76 L1211.27 569.76 L1211.27 574.47 L1229.09 574.47 L1229.09 579.29 L1246.90 579.29 L1246.90 584.24 L1264.72 584.24 L1264.72 589.32 L1282.55 589.32 L1282.55 594.51 L1300.37 594.51 L1300.37 599.83 L1318.18 599.83 L1318.18 605.16 L1336.01 605.16 L1336.01 610.60 L1353.83 610.60 L1353.83 616.29 L1371.64 616.29 L1371.64 621.99 L1389.46 621.99 L1389.46 627.68 L1407.29 627.68 L1407.29 633.50 L1425.11 633.50 L1425.11 639.44 L1442.92 639.44 L1442.92 645.50 L1460.74 645.50 L1460.74 651.69 L1478.57 651.69 L1478.57 657.88 L1496.38 657.88 L1496.38 664.31 L1514.20 664.31 L1514.20 670.75 L1532.03 670.75 L1532.03 677.30 L1549.85 677.30 L1549.85 683.99 L1567.66 683.99 L1567.66 690.67 L1585.48 690.67 L1585.48 697.60 L1603.31 697.60 L1603.31 704.41 L1621.13 704.41 L1621.13 711.46 L1638.94 711.46 L1638.94 718.51 L1656.77 718.51 L1656.77 725.69 L1674.59 725.69 L1674.59 732.99 L1692.40 732.99 L1692.40 740.30 L1710.22 740.30 L1710.22 747.72 L1728.05 747.72 L1728.05 755.27 L1745.87 755.27 L1745.87 762.94 L1763.68 762.94 L1763.68 770.62 L1781.51 770.62 L1781.51 778.29 L1799.33 778.29 L1799.33 786.08 L1817.14 786.08 L1817.14 793.88 L1834.96 793.88 L1834.96 801.80 L1852.79 801.80 L1852.79 809.72 L1870.61 809.72 L1870.61 817.77 L1888.42 817.77 L1888.42 825.81 L1906.24 825.81 L1906.24 833.85 L1924.07 833.85 L1924.07 841.90 L1941.88 841.90 L1941.88 850.07 L1959.70 850.07 L1959.70 858.23 L1977.53 858.23 L1977.53 866.52 L1995.35 866.52 L1995.35 874.82 L2013.16 874.82 L2013.16 883.11 L2030.98 883.11 L2030.98 891.52 L2048.80 891.52 L2048.80 900.06 L2066.63 900.06 L2066.63 908.60 L2084.45 908.60 L2084.45 917.14 L2102.26 917.14 L2102.26 925.80 L2120.09 925.80 L2120.09 934.47 L2137.91 934.47 L2137.91 943.13 L2155.72 943.13 L2155.72 951.91 L2173.55 951.91 L2173.55 960.83 L2191.36 960.83 L2191.36 969.74 L2209.18 969.74 L2209.18 978.65 L2227.01 978.65 L2227.01 987.68 L2244.82 987.68 L2244.82 996.71 L2262.64 996.71 L2262.64 1005.87 L2280.47 1005.87 L2280.47 1015.03 L2298.28 1015.03 L2298.28 1024.19 L2316.11 1024.19 L2316.11 1033.47 L2333.93 1033.47 L2333.93 1042.75 L2351.74 1042.75 L2351.74 1052.16 L2369.57 1052.16 L2369.57 1061.56 L2387.39 1061.56 L2387.39 1070.97 L2405.20 1070.97 L2405.20 1080.50 L2423.03 1080.50 L2423.03 1090.15 L2440.84 1090.15 L2440.84 1099.68 L2458.66 1099.68 L2458.66 1109.45 L2476.49 1109.45 L2476.49 1119.11 L2494.30 1119.11 L2494.30 1128.88 L2512.13 1128.88 L2512.13 1138.66 L2529.95 1138.66 L2529.95 1148.44 L2547.76 1148.44 L2547.76 1158.21 L2565.59 1158.21 L2565.59 1168.11 L2583.41 1168.11 L2583.41 1178.01 L2601.22 1178.01 L2601.22 1188.04 L2619.05 1188.04 L2619.05 1198.06 L2636.86 1198.06 L2636.86 1208.09 L2654.68 1208.09 L2654.68 1218.11 L2672.51 1218.11 L2672.51 1228.13 L2690.32 1228.13 L2690.32 1238.28 L2708.14 1238.28 L2708.14 1248.43 L2725.97 1248.43 L2725.97 1258.58 L2743.78 1258.58 L2743.78 1268.85 L2761.61 1268.85 L2761.61 1279.12 L2779.43 1279.12 L2779.43 1289.39 L2797.24 1289.39 L2797.24 1299.66 L2815.07 1299.66 L2815.07 1310.06 L2832.89 1310.06 L2832.89 1320.45 L2850.70 1320.45 L2850.70 1330.85 L2868.53 1330.85 L2868.53 1341.24 L2886.34 1341.24 L2886.34 1351.76 L2904.16 1351.76 L2904.16 1362.16 L2921.99 1362.16 L2921.99 1372.68 L2939.80 1372.68 L2939.80 1383.32 L2957.63 1383.32 L2957.63 1393.84 L2975.45 1393.84 L2975.45 1404.48 L2993.26 1404.48 L2993.26 1415.13 L3011.09 1415.13 L3011.09 1425.77 L3028.91 1425.77 L3028.91 1436.53 L3046.72 1436.53 L3046.72 1447.18 L3064.55 1447.18 L3064.55 1457.94 L3082.36 1457.94 L3082.36 1468.83 L3100.18 1468.83 L3100.18 1479.60 L3118.01 1479.60 L3118.01 1490.49 L3135.82 1490.49 L3135.82 1501.38 L3153.64 1501.38 L3153.64 1512.27 L3171.47 1512.27 L3171.47 1523.16 L3189.28 1523.16 L3189.28 1534.18 L3207.11 1534.18 L3207.11 1545.19 L3224.93 1545.19 L3224.93 1556.20 L3242.74 1556.20 L3242.74 1567.22 L3260.57 1567.22 L3260.57 1578.36 L3278.39 1578.36 L3278.39 1589.49 L3296.20 1589.49 L3296.20 1600.51 L3314.03 1600.51 L3314.03 1611.65 L3331.84 1611.65 L3331.84 1622.78 L3349.66 1622.78 L3349.66 1634.05 L3367.49 1634.05 L3367.49 1645.18 L3385.30 1645.18 L3385.30 1656.45 L3403.13 1656.45 L3403.13 1667.71 L3420.95 1667.71 L3420.95 1678.84 L3438.76 1678.84 L3438.76 1690.11 L3456.59 1690.11 L3456.59 1701.37 L3474.41 1701.37 L3474.41 1712.63 L3492.22 1712.63 L3492.22 1723.89 L3510.05 1723.89 L3510.05 1735.28 L3527.86 1735.28 L3527.86 1746.54 L3545.68 1746.54 L3545.68 1757.92 L3563.51 1757.92 L3563.51 1769.31 L3581.32 1769.31 L3581.32 1780.69 L3599.14 1780.69 L3599.14 1792.08 L3616.97 1792.08 L3616.97 1803.59 L3634.78 1803.59 L3634.78 1814.97 L3652.61 1814.97 L3652.61 1826.36 L3670.43 1826.36 L3670.43 1837.74 L3688.24 1837.74 L3688.24 1849.25 L3706.07 1849.25 L3706.07 1860.64 L3723.89 1860.64 L3723.89 1872.15 L3741.70 1872.15 L3741.70 1883.53 L3759.53 1883.53 L3759.53 1895.04 L3777.34 1895.04 L3777.34 1906.55 L3795.16 1906.55 L3795.16 1918.06" stroke-linejoin="round" style="fill:none;stroke:#000000;stroke-width:8.64"/>
	<line x1="376.69" y1="2509.23" x2="376.69" y2="419.90" style="stroke:#000000;stroke-width:5.76"/>
	<line x1="376.69" y1="2445.87" x2="336.72" y2="2445.87" style="stroke:#000000;stroke-width:5.76"/>
	<text x="286.62" y="2445.87" style="font-family:'Helvetica';font-size:99.99px;fill:#000000" transform="rotate(-90 286.62,2445.87)" text-anchor="middle">-150</text>
	<line x1="376.69" y1="1791.71" x2="336.72" y2="1791.71" style="stroke:#000000;stroke-width:5.76"/>
	<text x="286.62" y="1791.71" style="font-family:'Helvetica';font-size:99.99px;fill:#000000" transform="rotate(-90 286.62,1791.71)" text-anchor="middle">-100</text>
	<line x1="376.69" y1="1137.42" x2="336.72" y2="1137.42" style="stroke:#000000;stroke-width:5.76"/>
	<text x="286.62" y="1137.42" style="font-family:'Helvetica';font-size:99.99px;fill:#000000" transform="rotate(-90 286.62,1137.42)" text-anchor="middle">-50</text>
	<line x1="376.69" y1="483.26" x2="336.72" y2="483.26" style="stroke:#000000;stroke-width:5.76"/>
	<text x="286.62" y="483.26" style="font-family:'Helvetica';font-size:99.99px;fill:#000000" transform="rotate(-90 286.62,483.26)" text-anchor="middle">0</text>
	<text x="190.71" y="1464.63" style="font-family:'Helvetica';font-size:99.99px;fill:#000000" transform="rotate(-90 190.71,1464.63)" text-anchor="middle">Difference in Lengths</text>
	<line x1="376.69" y1="2509.23" x2="3859.02" y2="2509.23" style="stroke:#000000;stroke-width:5.76"/>
	<line x1="440.06" y1="2509.23" x2="440.06" y2="2549.21" style="stroke:#000000;stroke-width:5.76"/>
	<text x="440.06" y="2625.15" style="font-family:'Helvetica';font-size:79.94px;fill:#000000" text-anchor="middle">0</text>
	<line x1="641.40" y1="2509.23" x2="641.40" y2="2549.21" style="stroke:#000000;stroke-width:5.76"/>
	<text x="641.40" y="2625.15" style="font-family:'Helvetica';font-size:79.94px;fill:#000000" text-anchor="middle">.3</text>
	<line x1="842.74" y1="2509.23" x2="842.74" y2="2549.21" style="stroke:#000000;stroke-width:5.76"/>
	<text x="842.74" y="2625.15" style="font-family:'Helvetica';font-size:79.94px;fill:#000000" text-anchor="middle">.6</text>
	<line x1="1044.08" y1="2509.23" x2="1044.08" y2="2549.21" style="stroke:#000000;stroke-width:5.76"/>
	<text x="1044.08" y="2625.15" style="font-family:'Helvetica';font-size:79.94px;fill:#000000" text-anchor="middle">.9</text>
	<line x1="1245.42" y1="2509.23" x2="1245.42" y2="2549.21" style="stroke:#000000;stroke-width:5.76"/>
	<text x="1245.42" y="2625.15" style="font-family:'Helvetica';font-size:79.94px;fill:#000000" text-anchor="middle">1.2</text>
	<line x1="1446.76" y1="2509.23" x2="1446.76" y2="2549.21" style="stroke:#000000;stroke-width:5.76"/>
	<text x="1446.76" y="2625.15" style="font-family:'Helvetica';font-size:79.94px;fill:#000000" text-anchor="middle">1.5</text>
	<line x1="1648.10" y1="2509.23" x2="1648.10" y2="2549.21" style="stroke:#000000;stroke-width:5.76"/>
	<text x="1648.10" y="2625.15" style="font-family:'Helvetica';font-size:79.94px;fill:#000000" text-anchor="middle">1.8</text>
	<line x1="1849.44" y1="2509.23" x2="1849.44" y2="2549.21" style="stroke:#000000;stroke-width:5.76"/>
	<text x="1849.44" y="2625.15" style="font-family:'Helvetica';font-size:79.94px;fill:#000000" text-anchor="middle">2.1</text>
	<line x1="2050.78" y1="2509.23" x2="2050.78" y2="2549.21" style="stroke:#000000;stroke-width:5.76"/>
	<text x="2050.78" y="2625.15" style="font-family:'Helvetica';font-size:79.94px;fill:#000000" text-anchor="middle">2.4</text>
	<line x1="2252.13" y1="2509.23" x2="2252.13" y2="2549.21" style="stroke:#000000;stroke-width:5.76"/>
	<text x="2252.13" y="2625.15" style="font-family:'Helvetica';font-size:79.94px;fill:#000000" text-anchor="middle">2.7</text>
	<line x1="2453.47" y1="2509.23" x2="2453.47" y2="2549.21" style="stroke:#000000;stroke-width:5.76"/>
	<text x="2453.47" y="2625.15" style="font-family:'Helvetica';font-size:79.94px;fill:#000000" text-anchor="middle">3</text>
	<line x1="2654.81" y1="2509.23" x2="2654.81" y2="2549.21" style="stroke:#000000;stroke-width:5.76"/>
	<text x="2654.81" y="2625.15" style="font-family:'Helvetica';font-size:79.94px;fill:#000000" text-anchor="middle">3.3</text>
	<line x1="2856.15" y1="2509.23" x2="2856.15" y2="2549.21" style="stroke:#000000;stroke-width:5.76"/>
	<text x="2856.15" y="2625.15" style="font-family:'Helvetica';font-size:79.94px;fill:#000000" text-anchor="middle">3.6</text>
	<line x1="3057.49" y1="2509.23" x2="3057.49" y2="2549.21" style="stroke:#000000;stroke-width:5.76"/>
	<text x="3057.49" y="2625.15" style="font-family:'Helvetica';font-size:79.94px;fill:#000000" text-anchor="middle">3.9</text>
	<line x1="3258.83" y1="2509.23" x2="3258.83" y2="2549.21" style="stroke:#000000;stroke-width:5.76"/>
	<text x="3258.83" y="2625.15" style="font-family:'Helvetica';font-size:79.94px;fill:#000000" text-anchor="middle">4.2</text>
	<line x1="3460.17" y1="2509.23" x2="3460.17" y2="2549.21" style="stroke:#000000;stroke-width:5.76"/>
	<text x="3460.17" y="2625.15" style="font-family:'Helvetica';font-size:79.94px;fill:#000000" text-anchor="middle">4.5</text>
	<line x1="3661.51" y1="2509.23" x2="3661.51" y2="2549.21" style="stroke:#000000;stroke-width:5.76"/>
	<text x="3661.51" y="2625.15" style="font-family:'Helvetica';font-size:79.94px;fill:#000000" text-anchor="middle">4.8</text>
	<line x1="3862.86" y1="2509.23" x2="3862.86" y2="2549.21" style="stroke:#000000;stroke-width:5.76"/>
	<text x="3862.86" y="2625.15" style="font-family:'Helvetica';font-size:79.94px;fill:#000000" text-anchor="middle">5.1</text>
	<text x="2117.86" y="2729.16" style="font-family:'Helvetica';font-size:99.99px;fill:#000000" text-anchor="middle">Time (years)</text>
	<rect x="411.22" y="2148.24" width="993.34" height="326.46" style="fill:#FFFFFF"/>
	<rect x="414.10" y="2151.12" width="987.58" height="320.70" style="fill:none;stroke:#000000;stroke-width:5.76"/>
	<rect x="454.41" y="2191.43" width="374.47" height="99.99" style="fill:#999999;fill-opacity:0.65"/>
	<rect x="458.73" y="2195.75" width="365.83" height="91.35" style="fill:none;stroke:#808080;stroke-opacity:0.65;stroke-width:8.64"/>
	<line x1="454.41" y1="2381.52" x2="828.88" y2="2381.52" style="stroke:#000000;stroke-width:8.64"/>
	<text x="888.77" y="2276.46" style="font-family:'Helvetica';font-size:99.99px;fill:#000000">CI95%</text>
	<text x="888.77" y="2416.55" style="font-family:'Helvetica';font-size:99.99px;fill:#000000">Difference</text>
	<text x="2117.86" y="369.63" style="font-family:'Helvetica';font-size:110.01px;fill:#000000" text-anchor="middle">from Admission</text>
	<text x="2117.86" y="215.98" style="font-family:'Helvetica';font-size:139.96px;fill:#1E2D53" text-anchor="middle">Difference in Lengths of Stay (1st patient) (3 years) (RP)</text>
</svg>
