<?xml version="1.0" encoding="UTF-8" standalone="no"?>
<!-- This is a Stata 16.1 generated SVG file (http://www.stata.com) -->

<svg version="1.1" width="5.50in" height="4.00in" viewBox="0 0 3960 2880" xmlns="http://www.w3.org/2000/svg" xmlns:xlink="http://www.w3.org/1999/xlink">
	<desc>Stata Graph - diff_mod45_rp_tc</desc>
	<rect x="0" y="0" width="3960" height="2880" style="fill:#EAF2F3;stroke:none"/>
	<rect x="0.00" y="0.00" width="3959.88" height="2880.00" style="fill:#FFFFFF"/>
	<rect x="2.88" y="2.88" width="3954.12" height="2874.24" style="fill:none;stroke:#FFFFFF;stroke-width:5.76"/>
	<rect x="559.10" y="419.90" width="3299.92" height="2089.34" style="fill:#FFFFFF"/>
	<rect x="561.98" y="422.78" width="3294.16" height="2083.58" style="fill:none;stroke:#FFFFFF;stroke-width:5.76"/>
	<line x1="559.10" y1="2249.60" x2="3859.02" y2="2249.60" style="stroke:#EAF2F3;stroke-width:8.64"/>
	<line x1="559.10" y1="2053.32" x2="3859.02" y2="2053.32" style="stroke:#EAF2F3;stroke-width:8.64"/>
	<line x1="559.10" y1="1857.05" x2="3859.02" y2="1857.05" style="stroke:#EAF2F3;stroke-width:8.64"/>
	<line x1="559.10" y1="1660.78" x2="3859.02" y2="1660.78" style="stroke:#EAF2F3;stroke-width:8.64"/>
	<line x1="559.10" y1="1464.63" x2="3859.02" y2="1464.63" style="stroke:#EAF2F3;stroke-width:8.64"/>
	<line x1="559.10" y1="1268.35" x2="3859.02" y2="1268.35" style="stroke:#EAF2F3;stroke-width:8.64"/>
	<line x1="559.10" y1="1072.08" x2="3859.02" y2="1072.08" style="stroke:#EAF2F3;stroke-width:8.64"/>
	<line x1="559.10" y1="875.81" x2="3859.02" y2="875.81" style="stroke:#EAF2F3;stroke-width:8.64"/>
	<line x1="559.10" y1="679.53" x2="3859.02" y2="679.53" style="stroke:#EAF2F3;stroke-width:8.64"/>
	<line x1="559.10" y1="1464.63" x2="3859.02" y2="1464.63" style="stroke:#1A476F;stroke-width:8.64"/>
	<defs>
		<path id="path_hDZfPQNW" d="M778.88 1494.82 L778.88 1494.82 L795.71 1494.82 L795.71 1498.41 L812.54 1498.41 L812.54 1503.98 L829.37 1503.98 L829.37 1507.07 L846.20 1507.07 L846.20 1510.66 L863.16 1510.66 L863.16 1515.37 L879.99 1515.37 L879.99 1518.09 L896.82 1518.09 L896.82 1519.20 L913.65 1519.20 L913.65 1523.78 L930.48 1523.78 L930.48 1526.50 L947.31 1526.50 L947.31 1530.34 L964.26 1530.34 L964.26 1533.06 L981.09 1533.06 L981.09 1536.78 L997.92 1536.78 L997.92 1540.74 L1014.75 1540.74 L1014.75 1546.30 L1031.58 1546.30 L1031.58 1550.76 L1048.53 1550.76 L1048.53 1554.10 L1065.36 1554.10 L1065.36 1558.56 L1082.19 1558.56 L1082.19 1562.52 L1099.02 1562.52 L1099.02 1566.97 L1115.85 1566.97 L1115.85 1571.92 L1132.68 1571.92 L1132.68 1574.77 L1149.64 1574.77 L1149.64 1579.22 L1166.47 1579.22 L1166.47 1583.06 L1183.30 1583.06 L1183.30 1589.87 L1200.13 1589.87 L1200.13 1592.34 L1216.96 1592.34 L1216.96 1597.79 L1233.79 1597.79 L1233.79 1600.76 L1250.74 1600.76 L1250.74 1604.59 L1267.57 1604.59 L1267.57 1606.82 L1284.40 1606.82 L1284.40 1609.79 L1301.23 1609.79 L1301.23 1612.27 L1318.06 1612.27 L1318.06 1614.49 L1334.89 1614.49 L1334.89 1618.70 L1351.85 1618.70 L1351.85 1618.82 L1368.67 1618.82 L1368.67 1621.30 L1385.51 1621.30 L1385.51 1625.63 L1402.34 1625.63 L1402.34 1629.47 L1419.16 1629.47 L1419.16 1633.67 L1436.12 1633.67 L1436.12 1637.14 L1452.95 1637.14 L1452.95 1637.76 L1469.78 1637.76 L1469.78 1640.23 L1486.61 1640.23 L1486.61 1643.33 L1503.44 1643.33 L1503.44 1647.04 L1520.27 1647.04 L1520.27 1648.03 L1537.22 1648.03 L1537.22 1649.89 L1554.05 1649.89 L1554.05 1650.01 L1570.88 1650.01 L1570.88 1651.37 L1587.71 1651.37 L1587.71 1653.72 L1604.54 1653.72 L1604.54 1655.58 L1621.37 1655.58 L1621.37 1656.07 L1638.33 1656.07 L1638.33 1658.92 L1655.16 1658.92 L1655.16 1661.15 L1671.99 1661.15 L1671.99 1660.53 L1688.82 1660.53 L1688.82 1660.28 L1705.65 1660.28 L1705.65 1661.89 L1722.48 1661.89 L1722.48 1664.86 L1739.43 1664.86 L1739.43 1665.85 L1756.26 1665.85 L1756.26 1666.22 L1773.09 1666.22 L1773.09 1665.97 L1789.92 1665.97 L1789.92 1666.84 L1806.75 1666.84 L1806.75 1668.45 L1823.70 1668.45 L1823.70 1669.93 L1840.53 1669.93 L1840.53 1670.68 L1857.36 1670.68 L1857.36 1671.54 L1874.19 1671.54 L1874.19 1673.52 L1891.02 1673.52 L1891.02 1673.52 L1907.85 1673.52 L1907.85 1674.76 L1924.81 1674.76 L1924.81 1676.37 L1941.64 1676.37 L1941.64 1676.74 L1958.47 1676.74 L1958.47 1677.11 L1975.30 1677.11 L1975.30 1677.85 L1992.13 1677.85 L1992.13 1678.10 L2008.96 1678.10 L2008.96 1679.59 L2025.91 1679.59 L2025.91 1680.58 L2042.74 1680.58 L2042.74 1680.70 L2059.57 1680.70 L2059.57 1681.07 L2076.40 1681.07 L2076.40 1678.72 L2093.23 1678.72 L2093.23 1681.07 L2110.18 1681.07 L2110.18 1680.33 L2127.01 1680.33 L2127.01 1681.44 L2143.84 1681.44 L2143.84 1681.82 L2160.68 1681.82 L2160.68 1683.80 L2177.51 1683.80 L2177.51 1685.03 L2194.34 1685.03 L2194.34 1685.03 L2211.29 1685.03 L2211.29 1686.52 L2228.12 1686.52 L2228.12 1687.51 L2244.95 1687.51 L2244.95 1689.36 L2261.78 1689.36 L2261.78 1688.25 L2278.61 1688.25 L2278.61 1689.24 L2295.44 1689.24 L2295.44 1688.99 L2312.39 1688.99 L2312.39 1689.74 L2329.22 1689.74 L2329.22 1689.61 L2346.05 1689.61 L2346.05 1690.73 L2362.88 1690.73 L2362.88 1690.11 L2379.71 1690.11 L2379.71 1689.61 L2396.54 1689.61 L2396.54 1689.12 L2413.50 1689.12 L2413.50 1690.48 L2430.33 1690.48 L2430.33 1690.85 L2447.16 1690.85 L2447.16 1691.96 L2463.99 1691.96 L2463.99 1691.59 L2480.82 1691.59 L2480.82 1693.08 L2497.77 1693.08 L2497.77 1692.83 L2514.60 1692.83 L2514.60 1693.20 L2531.43 1693.20 L2531.43 1694.19 L2548.26 1694.19 L2548.26 1694.07 L2565.09 1694.07 L2565.09 1694.19 L2581.92 1694.19 L2581.92 1694.44 L2598.87 1694.44 L2598.87 1695.43 L2615.70 1695.43 L2615.70 1696.67 L2632.53 1696.67 L2632.53 1696.42 L2649.36 1696.42 L2649.36 1696.54 L2666.19 1696.54 L2666.19 1695.80 L2683.02 1695.80 L2683.02 1695.18 L2699.98 1695.18 L2699.98 1694.56 L2716.81 1694.56 L2716.81 1693.82 L2733.64 1693.82 L2733.64 1693.94 L2750.47 1693.94 L2750.47 1694.56 L2767.30 1694.56 L2767.30 1693.82 L2784.25 1693.82 L2784.25 1693.94 L2801.08 1693.94 L2801.08 1695.06 L2817.91 1695.06 L2817.91 1694.81 L2834.74 1694.81 L2834.74 1694.19 L2851.57 1694.19 L2851.57 1694.93 L2868.40 1694.93 L2868.40 1695.18 L2885.36 1695.18 L2885.36 1695.80 L2902.18 1695.80 L2902.18 1696.79 L2919.01 1696.79 L2919.01 1696.79 L2935.84 1696.79 L2935.84 1697.53 L2952.68 1697.53 L2952.68 1698.03 L2969.51 1698.03 L2969.51 1698.40 L2986.46 1698.40 L2986.46 1698.52 L3003.29 1698.52 L3003.29 1699.02 L3020.12 1699.02 L3020.12 1699.26 L3036.95 1699.26 L3036.95 1699.76 L3053.78 1699.76 L3053.78 1699.39 L3070.61 1699.39 L3070.61 1699.51 L3087.56 1699.51 L3087.56 1700.75 L3104.39 1700.75 L3104.39 1701.37 L3121.22 1701.37 L3121.22 1701.12 L3138.05 1701.12 L3138.05 1701.00 L3154.88 1701.00 L3154.88 1701.99 L3171.84 1701.99 L3171.84 1703.60 L3188.67 1703.60 L3188.67 1703.47 L3205.50 1703.47 L3205.50 1702.85 L3222.33 1702.85 L3222.33 1704.34 L3239.16 1704.34 L3239.16 1704.46 L3255.99 1704.46 L3255.99 1703.47 L3272.94 1703.47 L3272.94 1703.84 L3289.77 1703.84 L3289.77 1703.60 L3306.60 1703.60 L3306.60 1704.96 L3323.43 1704.96 L3323.43 1705.82 L3340.26 1705.82 L3340.26 1706.32 L3357.09 1706.32 L3357.09 1706.81 L3374.04 1706.81 L3374.04 1706.69 L3390.87 1706.69 L3390.87 1705.58 L3407.70 1705.58 L3407.70 1705.20 L3424.53 1705.20 L3424.53 1705.20 L3441.36 1705.20 L3441.36 1705.20 L3458.19 1705.20 L3458.19 1705.58 L3475.15 1705.58 L3475.15 1704.09 L3491.98 1704.09 L3491.98 1704.59 L3508.81 1704.59 L3508.81 1705.45 L3525.64 1705.45 L3525.64 1706.07 L3542.47 1706.07 L3542.47 1707.31 L3559.42 1707.31 L3559.42 1707.80 L3576.25 1707.80 L3576.25 1706.69 L3593.08 1706.69 L3593.08 1706.07 L3609.91 1706.07 L3609.91 1706.81 L3626.74 1706.81 L3626.74 1706.81 L3643.57 1706.81 L3643.57 1706.32 L3660.53 1706.32 L3660.53 1705.70 L3677.36 1705.70 L3677.36 1705.33 L3694.18 1705.33 L3694.18 1704.71 L3711.01 1704.71 L3711.01 1704.71 L3727.84 1704.71 L3727.84 1705.20 L3744.68 1705.20 L3744.68 1705.58 L3761.63 1705.58 L3761.63 1705.08 L3778.46 1705.08 L3778.46 1705.82 L3795.29 1705.82 L3795.29 1706.94 L3795.29 950.06 L3795.29 949.19 L3778.46 949.19 L3778.46 948.82 L3761.63 948.82 L3761.63 949.56 L3744.68 949.56 L3744.68 949.44 L3727.84 949.44 L3727.84 949.32 L3711.01 949.32 L3711.01 949.56 L3694.18 949.56 L3694.18 950.43 L3677.36 950.43 L3677.36 951.17 L3660.53 951.17 L3660.53 951.91 L3643.57 951.91 L3643.57 952.66 L3626.74 952.66 L3626.74 953.03 L3609.91 953.03 L3609.91 952.53 L3593.08 952.53 L3593.08 953.65 L3576.25 953.65 L3576.25 954.88 L3559.42 954.88 L3559.42 954.88 L3542.47 954.88 L3542.47 954.02 L3525.64 954.02 L3525.64 953.77 L3508.81 953.77 L3508.81 953.28 L3491.98 953.28 L3491.98 953.15 L3475.15 953.15 L3475.15 955.13 L3458.19 955.13 L3458.19 954.88 L3441.36 954.88 L3441.36 955.38 L3424.53 955.38 L3424.53 955.75 L3407.70 955.75 L3407.70 956.49 L3390.87 956.49 L3390.87 958.10 L3374.04 958.10 L3374.04 958.72 L3357.09 958.72 L3357.09 958.60 L3340.26 958.60 L3340.26 958.47 L3323.43 958.47 L3323.43 957.98 L3306.60 957.98 L3306.60 957.11 L3289.77 957.11 L3289.77 957.73 L3272.94 957.73 L3272.94 957.98 L3255.99 957.98 L3255.99 959.34 L3239.16 959.34 L3239.16 959.71 L3222.33 959.71 L3222.33 958.72 L3205.50 958.72 L3205.50 959.83 L3188.67 959.83 L3188.67 960.33 L3171.84 960.33 L3171.84 959.34 L3154.88 959.34 L3154.88 958.97 L3138.05 958.97 L3138.05 959.59 L3121.22 959.59 L3121.22 960.45 L3104.39 960.45 L3104.39 960.21 L3087.56 960.21 L3087.56 959.83 L3070.61 959.83 L3070.61 960.21 L3053.78 960.21 L3053.78 961.32 L3036.95 961.32 L3036.95 961.32 L3020.12 961.32 L3020.12 961.57 L3003.29 961.57 L3003.29 961.44 L2986.46 961.44 L2986.46 961.94 L2969.51 961.94 L2969.51 962.19 L2952.68 962.19 L2952.68 962.43 L2935.84 962.43 L2935.84 962.43 L2919.01 962.43 L2919.01 963.18 L2902.18 963.18 L2902.18 962.81 L2885.36 962.81 L2885.36 963.05 L2868.40 963.05 L2868.40 963.55 L2851.57 963.55 L2851.57 963.67 L2834.74 963.67 L2834.74 964.91 L2817.91 964.91 L2817.91 966.15 L2801.08 966.15 L2801.08 965.78 L2784.25 965.78 L2784.25 966.52 L2767.30 966.52 L2767.30 968.00 L2750.47 968.00 L2750.47 968.37 L2733.64 968.37 L2733.64 969.12 L2716.81 969.12 L2716.81 970.60 L2699.98 970.60 L2699.98 972.21 L2683.02 972.21 L2683.02 973.57 L2666.19 973.57 L2666.19 975.30 L2649.36 975.30 L2649.36 976.29 L2632.53 976.29 L2632.53 977.41 L2615.70 977.41 L2615.70 977.28 L2598.87 977.28 L2598.87 977.28 L2581.92 977.28 L2581.92 977.90 L2565.09 977.90 L2565.09 978.89 L2548.26 978.89 L2548.26 980.13 L2531.43 980.13 L2531.43 980.50 L2514.60 980.50 L2514.60 981.24 L2497.77 981.24 L2497.77 982.61 L2480.82 982.61 L2480.82 982.48 L2463.99 982.48 L2463.99 983.97 L2447.16 983.97 L2447.16 984.21 L2430.33 984.21 L2430.33 985.08 L2413.50 985.08 L2413.50 985.20 L2396.54 985.20 L2396.54 987.06 L2379.71 987.06 L2379.71 989.04 L2362.88 989.04 L2362.88 991.02 L2346.05 991.02 L2346.05 991.52 L2329.22 991.52 L2329.22 993.12 L2312.39 993.12 L2312.39 994.11 L2295.44 994.11 L2295.44 995.97 L2278.61 995.97 L2278.61 996.96 L2261.78 996.96 L2261.78 999.93 L2244.95 999.93 L2244.95 999.81 L2228.12 999.81 L2228.12 1000.80 L2211.29 1000.80 L2211.29 1001.17 L2194.34 1001.17 L2194.34 1003.03 L2177.51 1003.03 L2177.51 1004.02 L2160.68 1004.02 L2160.68 1004.14 L2143.84 1004.14 L2143.84 1005.87 L2127.01 1005.87 L2127.01 1006.99 L2110.18 1006.99 L2110.18 1009.83 L2093.23 1009.83 L2093.23 1009.96 L2076.40 1009.96 L2076.40 1015.03 L2059.57 1015.03 L2059.57 1017.13 L2042.74 1017.13 L2042.74 1019.48 L2025.91 1019.48 L2025.91 1021.09 L2008.96 1021.09 L2008.96 1022.33 L1992.13 1022.33 L1992.13 1025.18 L1975.30 1025.18 L1975.30 1027.40 L1958.47 1027.40 L1958.47 1030.00 L1941.64 1030.00 L1941.64 1032.73 L1924.81 1032.73 L1924.81 1034.33 L1907.85 1034.33 L1907.85 1036.44 L1891.02 1036.44 L1891.02 1039.78 L1874.19 1039.78 L1874.19 1041.39 L1857.36 1041.39 L1857.36 1044.11 L1840.53 1044.11 L1840.53 1046.96 L1823.70 1046.96 L1823.70 1049.43 L1806.75 1049.43 L1806.75 1051.78 L1789.92 1051.78 L1789.92 1055.00 L1773.09 1055.00 L1773.09 1059.46 L1756.26 1059.46 L1756.26 1063.17 L1739.43 1063.17 L1739.43 1066.63 L1722.48 1066.63 L1722.48 1068.24 L1705.65 1068.24 L1705.65 1071.58 L1688.82 1071.58 L1688.82 1076.66 L1671.99 1076.66 L1671.99 1082.35 L1655.16 1082.35 L1655.16 1085.45 L1638.33 1085.45 L1638.33 1088.29 L1621.37 1088.29 L1621.37 1093.74 L1604.54 1093.74 L1604.54 1097.82 L1587.71 1097.82 L1587.71 1101.41 L1570.88 1101.41 L1570.88 1105.99 L1554.05 1105.99 L1554.05 1112.30 L1537.22 1112.30 L1537.22 1117.37 L1520.27 1117.37 L1520.27 1123.44 L1503.44 1123.44 L1503.44 1127.03 L1486.61 1127.03 L1486.61 1131.61 L1469.78 1131.61 L1469.78 1136.06 L1452.95 1136.06 L1452.95 1142.99 L1436.12 1142.99 L1436.12 1147.32 L1419.16 1147.32 L1419.16 1151.28 L1402.34 1151.28 L1402.34 1155.49 L1385.51 1155.49 L1385.51 1160.32 L1368.67 1160.32 L1368.67 1167.00 L1351.85 1167.00 L1351.85 1175.54 L1334.89 1175.54 L1334.89 1180.86 L1318.06 1180.86 L1318.06 1188.16 L1301.23 1188.16 L1301.23 1195.59 L1284.40 1195.59 L1284.40 1202.39 L1267.57 1202.39 L1267.57 1210.31 L1250.74 1210.31 L1250.74 1216.75 L1233.79 1216.75 L1233.79 1224.05 L1216.96 1224.05 L1216.96 1229.49 L1200.13 1229.49 L1200.13 1237.66 L1183.30 1237.66 L1183.30 1241.87 L1166.47 1241.87 L1166.47 1249.05 L1149.64 1249.05 L1149.64 1255.36 L1132.68 1255.36 L1132.68 1263.65 L1115.85 1263.65 L1115.85 1270.33 L1099.02 1270.33 L1099.02 1277.51 L1082.19 1277.51 L1082.19 1285.06 L1065.36 1285.06 L1065.36 1291.99 L1048.53 1291.99 L1048.53 1299.79 L1031.58 1299.79 L1031.58 1306.84 L1014.75 1306.84 L1014.75 1312.90 L997.92 1312.90 L997.92 1320.21 L981.09 1320.21 L981.09 1328.13 L964.26 1328.13 L964.26 1336.91 L947.31 1336.91 L947.31 1344.34 L930.48 1344.34 L930.48 1353.00 L913.65 1353.00 L913.65 1359.81 L896.82 1359.81 L896.82 1370.20 L879.99 1370.20 L879.99 1378.74 L863.16 1378.74 L863.16 1385.42 L846.20 1385.42 L846.20 1392.85 L829.37 1392.85 L829.37 1401.14 L812.54 1401.14 L812.54 1406.59 L795.71 1406.59 L795.71 1413.52 L778.88 1413.52 L778.88 1494.82 Z" stroke-linejoin="round"/>
	</defs>
	<defs>
		<clipPath id="clipPath_DWJtjVCG">
			<use xlink:href="#path_hDZfPQNW"/>
		</clipPath>
	</defs>
	<use xlink:href="#path_hDZfPQNW" style="stroke:none;fill:#999999;fill-opacity:0.65"/>
	<use xlink:href="#path_hDZfPQNW" style="fill:none;stroke:#808080;stroke-opacity:0.65;stroke-width:17.28" clip-path="url(#clipPath_DWJtjVCG)"/>
	<path d=" M778.76 1454.23 L795.59 1454.23 L795.59 1452.62 L812.54 1452.62 L812.54 1452.62 L829.37 1452.62 L829.37 1450.02 L846.20 1450.02 L846.20 1448.04 L863.03 1448.04 L863.03 1447.05 L879.86 1447.05 L879.86 1444.21 L896.69 1444.21 L896.69 1439.50 L913.65 1439.50 L913.65 1438.39 L930.48 1438.39 L930.48 1435.54 L947.31 1435.54 L947.31 1433.69 L964.14 1433.69 L964.14 1430.72 L980.97 1430.72 L980.97 1428.49 L997.80 1428.49 L997.80 1426.88 L1014.75 1426.88 L1014.75 1426.63 L1031.58 1426.63 L1031.58 1425.27 L1048.41 1425.27 L1048.41 1423.05 L1065.24 1423.05 L1065.24 1421.81 L1082.07 1421.81 L1082.07 1419.95 L1099.02 1419.95 L1099.02 1418.71 L1115.85 1418.71 L1115.85 1417.85 L1132.68 1417.85 L1132.68 1415.00 L1149.51 1415.00 L1149.51 1414.14 L1166.34 1414.14 L1166.34 1412.40 L1183.17 1412.40 L1183.17 1413.76 L1200.13 1413.76 L1200.13 1410.79 L1216.96 1410.79 L1216.96 1410.92 L1233.79 1410.92 L1233.79 1408.69 L1250.62 1408.69 L1250.62 1407.33 L1267.45 1407.33 L1267.45 1404.48 L1284.28 1404.48 L1284.28 1402.63 L1301.23 1402.63 L1301.23 1400.15 L1318.06 1400.15 L1318.06 1397.55 L1334.89 1397.55 L1334.89 1396.93 L1351.72 1396.93 L1351.72 1392.73 L1368.55 1392.73 L1368.55 1390.62 L1385.51 1390.62 L1385.51 1390.37 L1402.34 1390.37 L1402.34 1390.13 L1419.16 1390.13 L1419.16 1390.25 L1435.99 1390.25 L1435.99 1389.88 L1452.83 1389.88 L1452.83 1386.66 L1469.65 1386.66 L1469.65 1385.67 L1486.61 1385.67 L1486.61 1384.93 L1503.44 1384.93 L1503.44 1384.93 L1520.27 1384.93 L1520.27 1382.45 L1537.10 1382.45 L1537.10 1380.85 L1553.93 1380.85 L1553.93 1377.63 L1570.76 1377.63 L1570.76 1376.02 L1587.71 1376.02 L1587.71 1375.40 L1604.54 1375.40 L1604.54 1374.29 L1621.37 1374.29 L1621.37 1371.81 L1638.20 1371.81 L1638.20 1371.81 L1655.03 1371.81 L1655.03 1371.32 L1671.86 1371.32 L1671.86 1368.10 L1688.82 1368.10 L1688.82 1365.50 L1705.65 1365.50 L1705.65 1364.51 L1722.48 1364.51 L1722.48 1365.13 L1739.31 1365.13 L1739.31 1364.02 L1756.14 1364.02 L1756.14 1362.28 L1773.09 1362.28 L1773.09 1359.93 L1789.92 1359.93 L1789.92 1358.69 L1806.75 1358.69 L1806.75 1358.32 L1823.58 1358.32 L1823.58 1357.83 L1840.41 1357.83 L1840.41 1356.84 L1857.24 1356.84 L1857.24 1355.85 L1874.19 1355.85 L1874.19 1355.97 L1891.02 1355.97 L1891.02 1354.24 L1907.85 1354.24 L1907.85 1353.87 L1924.68 1353.87 L1924.68 1353.87 L1941.51 1353.87 L1941.51 1352.63 L1958.34 1352.63 L1958.34 1351.52 L1975.30 1351.52 L1975.30 1350.77 L1992.13 1350.77 L1992.13 1349.41 L2008.96 1349.41 L2008.96 1349.54 L2025.79 1349.54 L2025.79 1349.29 L2042.62 1349.29 L2042.62 1348.17 L2059.45 1348.17 L2059.45 1347.31 L2076.40 1347.31 L2076.40 1343.47 L2093.23 1343.47 L2093.23 1344.59 L2110.06 1344.59 L2110.06 1342.85 L2126.89 1342.85 L2126.89 1342.85 L2143.72 1342.85 L2143.72 1342.11 L2160.68 1342.11 L2160.68 1342.98 L2177.51 1342.98 L2177.51 1343.10 L2194.34 1343.10 L2194.34 1342.23 L2211.16 1342.23 L2211.16 1342.73 L2227.99 1342.73 L2227.99 1342.85 L2244.82 1342.85 L2244.82 1343.72 L2261.78 1343.72 L2261.78 1341.74 L2278.61 1341.74 L2278.61 1341.74 L2295.44 1341.74 L2295.44 1340.63 L2312.27 1340.63 L2312.27 1340.50 L2329.10 1340.50 L2329.10 1339.64 L2345.93 1339.64 L2345.93 1339.88 L2362.88 1339.88 L2362.88 1338.65 L2379.71 1338.65 L2379.71 1337.41 L2396.54 1337.41 L2396.54 1336.17 L2413.37 1336.17 L2413.37 1336.79 L2430.20 1336.79 L2430.20 1336.54 L2447.16 1336.54 L2447.16 1337.04 L2463.99 1337.04 L2463.99 1336.05 L2480.82 1336.05 L2480.82 1336.79 L2497.65 1336.79 L2497.65 1336.05 L2514.48 1336.05 L2514.48 1335.80 L2531.31 1335.80 L2531.31 1336.17 L2548.26 1336.17 L2548.26 1335.43 L2565.09 1335.43 L2565.09 1334.93 L2581.92 1334.93 L2581.92 1334.81 L2598.75 1334.81 L2598.75 1335.43 L2615.58 1335.43 L2615.58 1336.05 L2632.41 1336.05 L2632.41 1335.30 L2649.36 1335.30 L2649.36 1334.93 L2666.19 1334.93 L2666.19 1333.70 L2683.02 1333.70 L2683.02 1332.58 L2699.85 1332.58 L2699.85 1331.47 L2716.68 1331.47 L2716.68 1330.35 L2733.51 1330.35 L2733.51 1330.11 L2750.47 1330.11 L2750.47 1330.23 L2767.30 1330.23 L2767.30 1329.12 L2784.13 1329.12 L2784.13 1328.75 L2800.96 1328.75 L2800.96 1329.49 L2817.79 1329.49 L2817.79 1328.75 L2834.74 1328.75 L2834.74 1327.76 L2851.57 1327.76 L2851.57 1328.13 L2868.40 1328.13 L2868.40 1328.00 L2885.23 1328.00 L2885.23 1328.13 L2902.06 1328.13 L2902.06 1328.87 L2918.89 1328.87 L2918.89 1328.50 L2935.84 1328.50 L2935.84 1328.87 L2952.68 1328.87 L2952.68 1328.99 L2969.51 1328.99 L2969.51 1328.99 L2986.34 1328.99 L2986.34 1328.87 L3003.16 1328.87 L3003.16 1329.12 L3019.99 1329.12 L3019.99 1329.12 L3036.95 1329.12 L3036.95 1329.49 L3053.78 1329.49 L3053.78 1328.62 L3070.61 1328.62 L3070.61 1328.50 L3087.44 1328.50 L3087.44 1329.36 L3104.27 1329.36 L3104.27 1329.74 L3121.10 1329.74 L3121.10 1329.24 L3138.05 1329.24 L3138.05 1328.87 L3154.88 1328.87 L3154.88 1329.49 L3171.71 1329.49 L3171.71 1330.85 L3188.54 1330.85 L3188.54 1330.48 L3205.37 1330.48 L3205.37 1329.61 L3222.33 1329.61 L3222.33 1330.85 L3239.16 1330.85 L3239.16 1330.73 L3255.99 1330.73 L3255.99 1329.61 L3272.82 1329.61 L3272.82 1329.61 L3289.65 1329.61 L3289.65 1329.24 L3306.48 1329.24 L3306.48 1330.35 L3323.43 1330.35 L3323.43 1330.97 L3340.26 1330.97 L3340.26 1331.34 L3357.09 1331.34 L3357.09 1331.59 L3373.92 1331.59 L3373.92 1331.22 L3390.75 1331.22 L3390.75 1329.86 L3407.58 1329.86 L3407.58 1329.24 L3424.53 1329.24 L3424.53 1329.12 L3441.36 1329.12 L3441.36 1328.87 L3458.19 1328.87 L3458.19 1329.12 L3475.02 1329.12 L3475.02 1327.38 L3491.85 1327.38 L3491.85 1327.76 L3508.81 1327.76 L3508.81 1328.50 L3525.64 1328.50 L3525.64 1328.87 L3542.47 1328.87 L3542.47 1329.98 L3559.30 1329.98 L3559.30 1330.11 L3576.13 1330.11 L3576.13 1328.99 L3592.96 1328.99 L3592.96 1328.13 L3609.91 1328.13 L3609.91 1328.75 L3626.74 1328.75 L3626.74 1328.50 L3643.57 1328.50 L3643.57 1327.88 L3660.40 1327.88 L3660.40 1327.26 L3677.23 1327.26 L3677.23 1326.64 L3694.06 1326.64 L3694.06 1325.90 L3711.01 1325.90 L3711.01 1325.78 L3727.84 1325.78 L3727.84 1326.15 L3744.68 1326.15 L3744.68 1326.39 L3761.51 1326.39 L3761.51 1325.78 L3778.34 1325.78 L3778.34 1326.27 L3795.16 1326.27 L3795.16 1327.26" stroke-linejoin="round" style="fill:none;stroke:#000000;stroke-width:8.64"/>
	<line x1="559.10" y1="2509.23" x2="559.10" y2="419.90" style="stroke:#000000;stroke-width:5.76"/>
	<line x1="559.10" y1="2445.87" x2="519.13" y2="2445.87" style="stroke:#000000;stroke-width:5.76"/>
	<text x="499.08" y="2480.90" style="font-family:'Helvetica';font-size:99.99px;fill:#000000" text-anchor="end">-0.25</text>
	<line x1="559.10" y1="2249.60" x2="519.13" y2="2249.60" style="stroke:#000000;stroke-width:5.76"/>
	<text x="499.08" y="2284.63" style="font-family:'Helvetica';font-size:99.99px;fill:#000000" text-anchor="end">-0.20</text>
	<line x1="559.10" y1="2053.32" x2="519.13" y2="2053.32" style="stroke:#000000;stroke-width:5.76"/>
	<text x="499.08" y="2088.35" style="font-family:'Helvetica';font-size:99.99px;fill:#000000" text-anchor="end">-0.15</text>
	<line x1="559.10" y1="1857.05" x2="519.13" y2="1857.05" style="stroke:#000000;stroke-width:5.76"/>
	<text x="499.08" y="1892.08" style="font-family:'Helvetica';font-size:99.99px;fill:#000000" text-anchor="end">-0.10</text>
	<line x1="559.10" y1="1660.78" x2="519.13" y2="1660.78" style="stroke:#000000;stroke-width:5.76"/>
	<text x="499.08" y="1695.81" style="font-family:'Helvetica';font-size:99.99px;fill:#000000" text-anchor="end">-0.05</text>
	<line x1="559.10" y1="1464.63" x2="519.13" y2="1464.63" style="stroke:#000000;stroke-width:5.76"/>
	<text x="499.08" y="1499.66" style="font-family:'Helvetica';font-size:99.99px;fill:#000000" text-anchor="end">0.00</text>
	<line x1="559.10" y1="1268.35" x2="519.13" y2="1268.35" style="stroke:#000000;stroke-width:5.76"/>
	<text x="499.08" y="1303.38" style="font-family:'Helvetica';font-size:99.99px;fill:#000000" text-anchor="end">0.05</text>
	<line x1="559.10" y1="1072.08" x2="519.13" y2="1072.08" style="stroke:#000000;stroke-width:5.76"/>
	<text x="499.08" y="1107.11" style="font-family:'Helvetica';font-size:99.99px;fill:#000000" text-anchor="end">0.10</text>
	<line x1="559.10" y1="875.81" x2="519.13" y2="875.81" style="stroke:#000000;stroke-width:5.76"/>
	<text x="499.08" y="910.83" style="font-family:'Helvetica';font-size:99.99px;fill:#000000" text-anchor="end">0.15</text>
	<line x1="559.10" y1="679.53" x2="519.13" y2="679.53" style="stroke:#000000;stroke-width:5.76"/>
	<text x="499.08" y="714.56" style="font-family:'Helvetica';font-size:99.99px;fill:#000000" text-anchor="end">0.20</text>
	<line x1="559.10" y1="483.26" x2="519.13" y2="483.26" style="stroke:#000000;stroke-width:5.76"/>
	<text x="499.08" y="518.29" style="font-family:'Helvetica';font-size:99.99px;fill:#000000" text-anchor="end">0.25</text>
	<text x="190.71" y="1464.63" style="font-family:'Helvetica';font-size:99.99px;fill:#000000" transform="rotate(-90 190.71,1464.63)" text-anchor="middle">Difference in Probabilities</text>
	<line x1="559.10" y1="2509.23" x2="3859.02" y2="2509.23" style="stroke:#000000;stroke-width:5.76"/>
	<line x1="622.46" y1="2509.23" x2="622.46" y2="2549.21" style="stroke:#000000;stroke-width:5.76"/>
	<text x="622.46" y="2625.15" style="font-family:'Helvetica';font-size:79.94px;fill:#000000" text-anchor="middle">0</text>
	<line x1="812.91" y1="2509.23" x2="812.91" y2="2549.21" style="stroke:#000000;stroke-width:5.76"/>
	<text x="812.91" y="2625.15" style="font-family:'Helvetica';font-size:79.94px;fill:#000000" text-anchor="middle">.3</text>
	<line x1="1003.24" y1="2509.23" x2="1003.24" y2="2549.21" style="stroke:#000000;stroke-width:5.76"/>
	<text x="1003.24" y="2625.15" style="font-family:'Helvetica';font-size:79.94px;fill:#000000" text-anchor="middle">.6</text>
	<line x1="1193.69" y1="2509.23" x2="1193.69" y2="2549.21" style="stroke:#000000;stroke-width:5.76"/>
	<text x="1193.69" y="2625.15" style="font-family:'Helvetica';font-size:79.94px;fill:#000000" text-anchor="middle">.9</text>
	<line x1="1384.02" y1="2509.23" x2="1384.02" y2="2549.21" style="stroke:#000000;stroke-width:5.76"/>
	<text x="1384.02" y="2625.15" style="font-family:'Helvetica';font-size:79.94px;fill:#000000" text-anchor="middle">1.2</text>
	<line x1="1574.47" y1="2509.23" x2="1574.47" y2="2549.21" style="stroke:#000000;stroke-width:5.76"/>
	<text x="1574.47" y="2625.15" style="font-family:'Helvetica';font-size:79.94px;fill:#000000" text-anchor="middle">1.5</text>
	<line x1="1764.80" y1="2509.23" x2="1764.80" y2="2549.21" style="stroke:#000000;stroke-width:5.76"/>
	<text x="1764.80" y="2625.15" style="font-family:'Helvetica';font-size:79.94px;fill:#000000" text-anchor="middle">1.8</text>
	<line x1="1955.25" y1="2509.23" x2="1955.25" y2="2549.21" style="stroke:#000000;stroke-width:5.76"/>
	<text x="1955.25" y="2625.15" style="font-family:'Helvetica';font-size:79.94px;fill:#000000" text-anchor="middle">2.1</text>
	<line x1="2145.58" y1="2509.23" x2="2145.58" y2="2549.21" style="stroke:#000000;stroke-width:5.76"/>
	<text x="2145.58" y="2625.15" style="font-family:'Helvetica';font-size:79.94px;fill:#000000" text-anchor="middle">2.4</text>
	<line x1="2336.03" y1="2509.23" x2="2336.03" y2="2549.21" style="stroke:#000000;stroke-width:5.76"/>
	<text x="2336.03" y="2625.15" style="font-family:'Helvetica';font-size:79.94px;fill:#000000" text-anchor="middle">2.7</text>
	<line x1="2526.48" y1="2509.23" x2="2526.48" y2="2549.21" style="stroke:#000000;stroke-width:5.76"/>
	<text x="2526.48" y="2625.15" style="font-family:'Helvetica';font-size:79.94px;fill:#000000" text-anchor="middle">3</text>
	<line x1="2716.81" y1="2509.23" x2="2716.81" y2="2549.21" style="stroke:#000000;stroke-width:5.76"/>
	<text x="2716.81" y="2625.15" style="font-family:'Helvetica';font-size:79.94px;fill:#000000" text-anchor="middle">3.3</text>
	<line x1="2907.26" y1="2509.23" x2="2907.26" y2="2549.21" style="stroke:#000000;stroke-width:5.76"/>
	<text x="2907.26" y="2625.15" style="font-family:'Helvetica';font-size:79.94px;fill:#000000" text-anchor="middle">3.6</text>
	<line x1="3097.59" y1="2509.23" x2="3097.59" y2="2549.21" style="stroke:#000000;stroke-width:5.76"/>
	<text x="3097.59" y="2625.15" style="font-family:'Helvetica';font-size:79.94px;fill:#000000" text-anchor="middle">3.9</text>
	<line x1="3288.04" y1="2509.23" x2="3288.04" y2="2549.21" style="stroke:#000000;stroke-width:5.76"/>
	<text x="3288.04" y="2625.15" style="font-family:'Helvetica';font-size:79.94px;fill:#000000" text-anchor="middle">4.2</text>
	<line x1="3478.36" y1="2509.23" x2="3478.36" y2="2549.21" style="stroke:#000000;stroke-width:5.76"/>
	<text x="3478.36" y="2625.15" style="font-family:'Helvetica';font-size:79.94px;fill:#000000" text-anchor="middle">4.5</text>
	<line x1="3668.82" y1="2509.23" x2="3668.82" y2="2549.21" style="stroke:#000000;stroke-width:5.76"/>
	<text x="3668.82" y="2625.15" style="font-family:'Helvetica';font-size:79.94px;fill:#000000" text-anchor="middle">4.8</text>
	<line x1="3859.14" y1="2509.23" x2="3859.14" y2="2549.21" style="stroke:#000000;stroke-width:5.76"/>
	<text x="3859.14" y="2625.15" style="font-family:'Helvetica';font-size:79.94px;fill:#000000" text-anchor="middle">5.1</text>
	<text x="2209.06" y="2729.16" style="font-family:'Helvetica';font-size:99.99px;fill:#000000" text-anchor="middle">Time (years)</text>
	<rect x="593.63" y="454.42" width="993.34" height="326.46" style="fill:#FFFFFF"/>
	<rect x="596.51" y="457.30" width="987.58" height="320.70" style="fill:none;stroke:#000000;stroke-width:5.76"/>
	<rect x="636.82" y="497.74" width="374.47" height="99.99" style="fill:#999999;fill-opacity:0.65"/>
	<rect x="641.14" y="502.06" width="365.83" height="91.35" style="fill:none;stroke:#808080;stroke-opacity:0.65;stroke-width:8.64"/>
	<line x1="636.82" y1="687.70" x2="1011.28" y2="687.70" style="stroke:#000000;stroke-width:8.64"/>
	<text x="1071.30" y="582.76" style="font-family:'Helvetica';font-size:99.99px;fill:#000000">CI95%</text>
	<text x="1071.30" y="722.73" style="font-family:'Helvetica';font-size:99.99px;fill:#000000">Difference</text>
	<text x="2209.06" y="369.63" style="font-family:'Helvetica';font-size:110.01px;fill:#000000" text-anchor="middle">from 3rd Readmission to 4th Readmission</text>
	<text x="2209.06" y="215.98" style="font-family:'Helvetica';font-size:139.96px;fill:#1E2D53" text-anchor="middle">Difference in Probabilities (RP)</text>
</svg>
