<?xml version="1.0" encoding="UTF-8" standalone="no"?>
<!-- This is a Stata 16.1 generated SVG file (http://www.stata.com) -->

<svg version="1.1" width="5.50in" height="4.00in" viewBox="0 0 3960 2880" xmlns="http://www.w3.org/2000/svg" xmlns:xlink="http://www.w3.org/1999/xlink">
	<desc>Stata Graph - diff_mod_los2435_3y_rp_22</desc>
	<rect x="0" y="0" width="3960" height="2880" style="fill:#EAF2F3;stroke:none"/>
	<rect x="0.00" y="0.00" width="3959.88" height="2880.00" style="fill:#FFFFFF"/>
	<rect x="2.88" y="2.88" width="3954.12" height="2874.24" style="fill:none;stroke:#FFFFFF;stroke-width:5.76"/>
	<rect x="529.90" y="419.90" width="3329.12" height="2089.34" style="fill:#FFFFFF"/>
	<rect x="532.78" y="422.78" width="3323.36" height="2083.58" style="fill:none;stroke:#FFFFFF;stroke-width:5.76"/>
	<line x1="529.90" y1="2203.93" x2="3859.02" y2="2203.93" style="stroke:#EAF2F3;stroke-width:8.64"/>
	<line x1="529.90" y1="1961.99" x2="3859.02" y2="1961.99" style="stroke:#EAF2F3;stroke-width:8.64"/>
	<line x1="529.90" y1="1719.93" x2="3859.02" y2="1719.93" style="stroke:#EAF2F3;stroke-width:8.64"/>
	<line x1="529.90" y1="1477.99" x2="3859.02" y2="1477.99" style="stroke:#EAF2F3;stroke-width:8.64"/>
	<line x1="529.90" y1="1236.05" x2="3859.02" y2="1236.05" style="stroke:#EAF2F3;stroke-width:8.64"/>
	<line x1="529.90" y1="994.11" x2="3859.02" y2="994.11" style="stroke:#EAF2F3;stroke-width:8.64"/>
	<line x1="529.90" y1="752.18" x2="3859.02" y2="752.18" style="stroke:#EAF2F3;stroke-width:8.64"/>
	<line x1="529.90" y1="1464.63" x2="3859.02" y2="1464.63" style="stroke:#1A476F;stroke-width:8.64"/>
	<defs>
		<path id="path_nmrnMsck" d="M751.16 1471.31 L751.16 1471.31 L768.12 1471.31 L768.12 1472.30 L785.19 1472.30 L785.19 1473.54 L802.15 1473.54 L802.15 1474.65 L819.10 1474.65 L819.10 1476.01 L836.18 1476.01 L836.18 1477.25 L853.13 1477.25 L853.13 1478.61 L870.21 1478.61 L870.21 1480.10 L887.16 1480.10 L887.16 1481.58 L904.12 1481.58 L904.12 1483.19 L921.20 1483.19 L921.20 1484.80 L938.15 1484.80 L938.15 1486.41 L955.23 1486.41 L955.23 1488.02 L972.18 1488.02 L972.18 1489.75 L989.26 1489.75 L989.26 1491.61 L1006.21 1491.61 L1006.21 1493.34 L1023.16 1493.34 L1023.16 1495.19 L1040.24 1495.19 L1040.24 1497.17 L1057.20 1497.17 L1057.20 1499.03 L1074.27 1499.03 L1074.27 1501.01 L1091.23 1501.01 L1091.23 1503.11 L1108.31 1503.11 L1108.31 1505.09 L1125.26 1505.09 L1125.26 1507.20 L1142.21 1507.20 L1142.21 1509.30 L1159.29 1509.30 L1159.29 1511.53 L1176.24 1511.53 L1176.24 1513.76 L1193.32 1513.76 L1193.32 1515.98 L1210.28 1515.98 L1210.28 1518.21 L1227.35 1518.21 L1227.35 1520.44 L1244.31 1520.44 L1244.31 1522.79 L1261.26 1522.79 L1261.26 1525.14 L1278.34 1525.14 L1278.34 1527.49 L1295.29 1527.49 L1295.29 1529.85 L1312.37 1529.85 L1312.37 1532.20 L1329.32 1532.20 L1329.32 1534.67 L1346.40 1534.67 L1346.40 1537.15 L1363.35 1537.15 L1363.35 1539.62 L1380.31 1539.62 L1380.31 1542.10 L1397.38 1542.10 L1397.38 1544.57 L1414.34 1544.57 L1414.34 1547.17 L1431.42 1547.17 L1431.42 1549.65 L1448.37 1549.65 L1448.37 1552.24 L1465.45 1552.24 L1465.45 1554.84 L1482.40 1554.84 L1482.40 1557.57 L1499.36 1557.57 L1499.36 1560.17 L1516.43 1560.17 L1516.43 1562.89 L1533.39 1562.89 L1533.39 1565.61 L1550.46 1565.61 L1550.46 1568.33 L1567.42 1568.33 L1567.42 1571.06 L1584.49 1571.06 L1584.49 1573.78 L1601.45 1573.78 L1601.45 1576.62 L1618.40 1576.62 L1618.40 1579.47 L1635.48 1579.47 L1635.48 1582.19 L1652.43 1582.19 L1652.43 1585.16 L1669.51 1585.16 L1669.51 1588.01 L1686.46 1588.01 L1686.46 1590.86 L1703.54 1590.86 L1703.54 1593.83 L1720.50 1593.83 L1720.50 1596.67 L1737.45 1596.67 L1737.45 1599.64 L1754.53 1599.64 L1754.53 1602.61 L1771.48 1602.61 L1771.48 1605.58 L1788.56 1605.58 L1788.56 1608.68 L1805.51 1608.68 L1805.51 1611.65 L1822.59 1611.65 L1822.59 1614.62 L1839.54 1614.62 L1839.54 1617.71 L1856.50 1617.71 L1856.50 1620.80 L1873.58 1620.80 L1873.58 1623.90 L1890.53 1623.90 L1890.53 1626.99 L1907.61 1626.99 L1907.61 1630.09 L1924.56 1630.09 L1924.56 1633.18 L1941.51 1633.18 L1941.51 1636.40 L1958.59 1636.40 L1958.59 1639.49 L1975.55 1639.49 L1975.55 1642.71 L1992.62 1642.71 L1992.62 1645.93 L2009.58 1645.93 L2009.58 1649.02 L2026.65 1649.02 L2026.65 1652.24 L2043.61 1652.24 L2043.61 1655.58 L2060.56 1655.58 L2060.56 1658.80 L2077.64 1658.80 L2077.64 1662.01 L2094.59 1662.01 L2094.59 1665.23 L2111.67 1665.23 L2111.67 1668.57 L2128.62 1668.57 L2128.62 1671.79 L2145.70 1671.79 L2145.70 1675.13 L2162.66 1675.13 L2162.66 1678.47 L2179.61 1678.47 L2179.61 1681.82 L2196.69 1681.82 L2196.69 1685.16 L2213.64 1685.16 L2213.64 1688.50 L2230.72 1688.50 L2230.72 1691.84 L2247.67 1691.84 L2247.67 1695.18 L2264.75 1695.18 L2264.75 1698.52 L2281.70 1698.52 L2281.70 1701.99 L2298.66 1701.99 L2298.66 1705.33 L2315.73 1705.33 L2315.73 1708.79 L2332.69 1708.79 L2332.69 1712.13 L2349.76 1712.13 L2349.76 1715.60 L2366.72 1715.60 L2366.72 1719.06 L2383.80 1719.06 L2383.80 1722.53 L2400.75 1722.53 L2400.75 1726.00 L2417.70 1726.00 L2417.70 1729.46 L2434.78 1729.46 L2434.78 1732.93 L2451.74 1732.93 L2451.74 1736.39 L2468.81 1736.39 L2468.81 1739.86 L2485.77 1739.86 L2485.77 1743.44 L2502.84 1743.44 L2502.84 1746.91 L2519.80 1746.91 L2519.80 1750.50 L2536.75 1750.50 L2536.75 1753.96 L2553.83 1753.96 L2553.83 1757.55 L2570.78 1757.55 L2570.78 1761.14 L2587.86 1761.14 L2587.86 1764.73 L2604.81 1764.73 L2604.81 1768.32 L2621.89 1768.32 L2621.89 1771.91 L2638.84 1771.91 L2638.84 1775.62 L2655.80 1775.62 L2655.80 1779.21 L2672.88 1779.21 L2672.88 1782.80 L2689.83 1782.80 L2689.83 1786.51 L2706.91 1786.51 L2706.91 1790.10 L2723.86 1790.10 L2723.86 1793.81 L2740.94 1793.81 L2740.94 1797.52 L2757.89 1797.52 L2757.89 1801.24 L2774.85 1801.24 L2774.85 1804.95 L2791.92 1804.95 L2791.92 1808.66 L2808.88 1808.66 L2808.88 1812.38 L2825.95 1812.38 L2825.95 1816.09 L2842.91 1816.09 L2842.91 1819.92 L2859.99 1819.92 L2859.99 1823.64 L2876.94 1823.64 L2876.94 1827.35 L2893.89 1827.35 L2893.89 1831.19 L2910.97 1831.19 L2910.97 1835.02 L2927.93 1835.02 L2927.93 1838.73 L2945.00 1838.73 L2945.00 1842.57 L2961.96 1842.57 L2961.96 1846.41 L2979.03 1846.41 L2979.03 1850.24 L2995.99 1850.24 L2995.99 1854.08 L3012.94 1854.08 L3012.94 1857.92 L3030.02 1857.92 L3030.02 1861.88 L3046.97 1861.88 L3046.97 1865.71 L3064.05 1865.71 L3064.05 1869.55 L3081.00 1869.55 L3081.00 1873.51 L3097.96 1873.51 L3097.96 1877.35 L3115.03 1877.35 L3115.03 1881.31 L3131.99 1881.31 L3131.99 1885.27 L3149.07 1885.27 L3149.07 1889.10 L3166.02 1889.10 L3166.02 1893.06 L3183.10 1893.06 L3183.10 1897.02 L3200.05 1897.02 L3200.05 1900.98 L3217.01 1900.98 L3217.01 1904.94 L3234.08 1904.94 L3234.08 1908.90 L3251.04 1908.90 L3251.04 1912.99 L3268.11 1912.99 L3268.11 1916.95 L3285.07 1916.95 L3285.07 1920.91 L3302.14 1920.91 L3302.14 1924.99 L3319.10 1924.99 L3319.10 1928.95 L3336.05 1928.95 L3336.05 1933.04 L3353.13 1933.04 L3353.13 1937.12 L3370.08 1937.12 L3370.08 1941.20 L3387.16 1941.20 L3387.16 1945.16 L3404.11 1945.16 L3404.11 1949.25 L3421.19 1949.25 L3421.19 1953.33 L3438.15 1953.33 L3438.15 1957.41 L3455.10 1957.41 L3455.10 1961.50 L3472.18 1961.50 L3472.18 1965.58 L3489.13 1965.58 L3489.13 1969.79 L3506.21 1969.79 L3506.21 1973.87 L3523.16 1973.87 L3523.16 1977.96 L3540.24 1977.96 L3540.24 1982.04 L3557.19 1982.04 L3557.19 1986.25 L3574.15 1986.25 L3574.15 1990.33 L3591.22 1990.33 L3591.22 1994.54 L3608.18 1994.54 L3608.18 1998.62 L3625.26 1998.62 L3625.26 2002.83 L3642.21 2002.83 L3642.21 2006.92 L3659.29 2006.92 L3659.29 2011.12 L3676.24 2011.12 L3676.24 2015.33 L3693.20 2015.33 L3693.20 2019.42 L3710.27 2019.42 L3710.27 2023.62 L3727.23 2023.62 L3727.23 2027.83 L3744.30 2027.83 L3744.30 2032.04 L3761.26 2032.04 L3761.26 2036.25 L3778.34 2036.25 L3778.34 2040.33 L3795.29 2040.33 L3795.29 2044.54 L3795.29 1811.63 L3795.29 1809.03 L3778.34 1809.03 L3778.34 1806.56 L3761.26 1806.56 L3761.26 1803.96 L3744.30 1803.96 L3744.30 1801.49 L3727.23 1801.49 L3727.23 1799.01 L3710.27 1799.01 L3710.27 1796.41 L3693.20 1796.41 L3693.20 1793.94 L3676.24 1793.94 L3676.24 1791.46 L3659.29 1791.46 L3659.29 1788.86 L3642.21 1788.86 L3642.21 1786.39 L3625.26 1786.39 L3625.26 1783.91 L3608.18 1783.91 L3608.18 1781.44 L3591.22 1781.44 L3591.22 1778.84 L3574.15 1778.84 L3574.15 1776.36 L3557.19 1776.36 L3557.19 1773.89 L3540.24 1773.89 L3540.24 1771.41 L3523.16 1771.41 L3523.16 1768.94 L3506.21 1768.94 L3506.21 1766.46 L3489.13 1766.46 L3489.13 1763.99 L3472.18 1763.99 L3472.18 1761.51 L3455.10 1761.51 L3455.10 1759.04 L3438.15 1759.04 L3438.15 1756.56 L3421.19 1756.56 L3421.19 1754.09 L3404.11 1754.09 L3404.11 1751.61 L3387.16 1751.61 L3387.16 1749.14 L3370.08 1749.14 L3370.08 1746.66 L3353.13 1746.66 L3353.13 1744.31 L3336.05 1744.31 L3336.05 1741.84 L3319.10 1741.84 L3319.10 1739.36 L3302.14 1739.36 L3302.14 1737.01 L3285.07 1737.01 L3285.07 1734.53 L3268.11 1734.53 L3268.11 1732.18 L3251.04 1732.18 L3251.04 1729.71 L3234.08 1729.71 L3234.08 1727.36 L3217.01 1727.36 L3217.01 1724.88 L3200.05 1724.88 L3200.05 1722.53 L3183.10 1722.53 L3183.10 1720.18 L3166.02 1720.18 L3166.02 1717.83 L3149.07 1717.83 L3149.07 1715.48 L3131.99 1715.48 L3131.99 1713.12 L3115.03 1713.12 L3115.03 1710.77 L3097.96 1710.77 L3097.96 1708.42 L3081.00 1708.42 L3081.00 1706.07 L3064.05 1706.07 L3064.05 1703.72 L3046.97 1703.72 L3046.97 1701.37 L3030.02 1701.37 L3030.02 1699.02 L3012.94 1699.02 L3012.94 1696.79 L2995.99 1696.79 L2995.99 1694.44 L2979.03 1694.44 L2979.03 1692.09 L2961.96 1692.09 L2961.96 1689.86 L2945.00 1689.86 L2945.00 1687.51 L2927.93 1687.51 L2927.93 1685.28 L2910.97 1685.28 L2910.97 1682.93 L2893.89 1682.93 L2893.89 1680.70 L2876.94 1680.70 L2876.94 1678.47 L2859.99 1678.47 L2859.99 1676.25 L2842.91 1676.25 L2842.91 1674.02 L2825.95 1674.02 L2825.95 1671.79 L2808.88 1671.79 L2808.88 1669.56 L2791.92 1669.56 L2791.92 1667.34 L2774.85 1667.34 L2774.85 1665.11 L2757.89 1665.11 L2757.89 1662.88 L2740.94 1662.88 L2740.94 1660.65 L2723.86 1660.65 L2723.86 1658.43 L2706.91 1658.43 L2706.91 1656.32 L2689.83 1656.32 L2689.83 1654.09 L2672.88 1654.09 L2672.88 1651.87 L2655.80 1651.87 L2655.80 1649.76 L2638.84 1649.76 L2638.84 1647.54 L2621.89 1647.54 L2621.89 1645.43 L2604.81 1645.43 L2604.81 1643.33 L2587.86 1643.33 L2587.86 1641.10 L2570.78 1641.10 L2570.78 1639.00 L2553.83 1639.00 L2553.83 1636.89 L2536.75 1636.89 L2536.75 1634.79 L2519.80 1634.79 L2519.80 1632.68 L2502.84 1632.68 L2502.84 1630.58 L2485.77 1630.58 L2485.77 1628.48 L2468.81 1628.48 L2468.81 1626.37 L2451.74 1626.37 L2451.74 1624.27 L2434.78 1624.27 L2434.78 1622.29 L2417.70 1622.29 L2417.70 1620.19 L2400.75 1620.19 L2400.75 1618.08 L2383.80 1618.08 L2383.80 1616.10 L2366.72 1616.10 L2366.72 1614.00 L2349.76 1614.00 L2349.76 1612.02 L2332.69 1612.02 L2332.69 1609.91 L2315.73 1609.91 L2315.73 1607.93 L2298.66 1607.93 L2298.66 1605.95 L2281.70 1605.95 L2281.70 1603.85 L2264.75 1603.85 L2264.75 1601.87 L2247.67 1601.87 L2247.67 1599.89 L2230.72 1599.89 L2230.72 1597.91 L2213.64 1597.91 L2213.64 1595.93 L2196.69 1595.93 L2196.69 1593.95 L2179.61 1593.95 L2179.61 1591.97 L2162.66 1591.97 L2162.66 1589.99 L2145.70 1589.99 L2145.70 1588.01 L2128.62 1588.01 L2128.62 1586.03 L2111.67 1586.03 L2111.67 1584.17 L2094.59 1584.17 L2094.59 1582.19 L2077.64 1582.19 L2077.64 1580.21 L2060.56 1580.21 L2060.56 1578.36 L2043.61 1578.36 L2043.61 1576.38 L2026.65 1576.38 L2026.65 1574.52 L2009.58 1574.52 L2009.58 1572.66 L1992.62 1572.66 L1992.62 1570.68 L1975.55 1570.68 L1975.55 1568.83 L1958.59 1568.83 L1958.59 1566.97 L1941.51 1566.97 L1941.51 1565.12 L1924.56 1565.12 L1924.56 1563.26 L1907.61 1563.26 L1907.61 1561.40 L1890.53 1561.40 L1890.53 1559.55 L1873.58 1559.55 L1873.58 1557.69 L1856.50 1557.69 L1856.50 1555.83 L1839.54 1555.83 L1839.54 1554.10 L1822.59 1554.10 L1822.59 1552.24 L1805.51 1552.24 L1805.51 1550.51 L1788.56 1550.51 L1788.56 1548.66 L1771.48 1548.66 L1771.48 1546.92 L1754.53 1546.92 L1754.53 1545.07 L1737.45 1545.07 L1737.45 1543.33 L1720.50 1543.33 L1720.50 1541.60 L1703.54 1541.60 L1703.54 1539.87 L1686.46 1539.87 L1686.46 1538.14 L1669.51 1538.14 L1669.51 1536.40 L1652.43 1536.40 L1652.43 1534.80 L1635.48 1534.80 L1635.48 1533.06 L1618.40 1533.06 L1618.40 1531.33 L1601.45 1531.33 L1601.45 1529.72 L1584.49 1529.72 L1584.49 1528.11 L1567.42 1528.11 L1567.42 1526.38 L1550.46 1526.38 L1550.46 1524.77 L1533.39 1524.77 L1533.39 1523.16 L1516.43 1523.16 L1516.43 1521.55 L1499.36 1521.55 L1499.36 1519.94 L1482.40 1519.94 L1482.40 1518.46 L1465.45 1518.46 L1465.45 1516.85 L1448.37 1516.85 L1448.37 1515.37 L1431.42 1515.37 L1431.42 1513.76 L1414.34 1513.76 L1414.34 1512.27 L1397.38 1512.27 L1397.38 1510.79 L1380.31 1510.79 L1380.31 1509.30 L1363.35 1509.30 L1363.35 1507.82 L1346.40 1507.82 L1346.40 1506.33 L1329.32 1506.33 L1329.32 1504.85 L1312.37 1504.85 L1312.37 1503.49 L1295.29 1503.49 L1295.29 1502.00 L1278.34 1502.00 L1278.34 1500.64 L1261.26 1500.64 L1261.26 1499.28 L1244.31 1499.28 L1244.31 1497.92 L1227.35 1497.92 L1227.35 1496.56 L1210.28 1496.56 L1210.28 1495.19 L1193.32 1495.19 L1193.32 1493.83 L1176.24 1493.83 L1176.24 1492.47 L1159.29 1492.47 L1159.29 1491.23 L1142.21 1491.23 L1142.21 1489.87 L1125.26 1489.87 L1125.26 1488.64 L1108.31 1488.64 L1108.31 1487.40 L1091.23 1487.40 L1091.23 1486.16 L1074.27 1486.16 L1074.27 1485.05 L1057.20 1485.05 L1057.20 1483.81 L1040.24 1483.81 L1040.24 1482.70 L1023.16 1482.70 L1023.16 1481.58 L1006.21 1481.58 L1006.21 1480.47 L989.26 1480.47 L989.26 1479.48 L972.18 1479.48 L972.18 1478.36 L955.23 1478.36 L955.23 1477.37 L938.15 1477.37 L938.15 1476.38 L921.20 1476.38 L921.20 1475.39 L904.12 1475.39 L904.12 1474.53 L887.16 1474.53 L887.16 1473.66 L870.21 1473.66 L870.21 1472.79 L853.13 1472.79 L853.13 1471.93 L836.18 1471.93 L836.18 1471.19 L819.10 1471.19 L819.10 1470.44 L802.15 1470.44 L802.15 1469.70 L785.19 1469.70 L785.19 1468.96 L768.12 1468.96 L768.12 1468.34 L751.16 1468.34 L751.16 1471.31 Z" stroke-linejoin="round"/>
	</defs>
	<defs>
		<clipPath id="clipPath_ZdDuPiKg">
			<use xlink:href="#path_nmrnMsck"/>
		</clipPath>
	</defs>
	<use xlink:href="#path_nmrnMsck" style="stroke:none;fill:#999999;fill-opacity:0.75"/>
	<use xlink:href="#path_nmrnMsck" style="fill:none;stroke:#808080;stroke-opacity:0.75;stroke-width:17.28" clip-path="url(#clipPath_ZdDuPiKg)"/>
	<path d=" M751.04 1469.82 L768.12 1469.82 L768.12 1470.69 L785.07 1470.69 L785.07 1471.68 L802.02 1471.68 L802.02 1472.67 L819.10 1472.67 L819.10 1473.66 L836.05 1473.66 L836.05 1474.65 L853.13 1474.65 L853.13 1475.76 L870.09 1475.76 L870.09 1476.88 L887.16 1476.88 L887.16 1478.12 L904.12 1478.12 L904.12 1479.35 L921.07 1479.35 L921.07 1480.59 L938.15 1480.59 L938.15 1481.95 L955.10 1481.95 L955.10 1483.31 L972.18 1483.31 L972.18 1484.68 L989.13 1484.68 L989.13 1486.04 L1006.21 1486.04 L1006.21 1487.52 L1023.16 1487.52 L1023.16 1489.01 L1040.12 1489.01 L1040.12 1490.49 L1057.20 1490.49 L1057.20 1492.10 L1074.15 1492.10 L1074.15 1493.71 L1091.23 1493.71 L1091.23 1495.32 L1108.18 1495.32 L1108.18 1496.93 L1125.26 1496.93 L1125.26 1498.66 L1142.21 1498.66 L1142.21 1500.39 L1159.17 1500.39 L1159.17 1502.12 L1176.24 1502.12 L1176.24 1503.86 L1193.20 1503.86 L1193.20 1505.59 L1210.28 1505.59 L1210.28 1507.45 L1227.23 1507.45 L1227.23 1509.30 L1244.31 1509.30 L1244.31 1511.03 L1261.26 1511.03 L1261.26 1512.89 L1278.21 1512.89 L1278.21 1514.87 L1295.29 1514.87 L1295.29 1516.73 L1312.24 1516.73 L1312.24 1518.58 L1329.32 1518.58 L1329.32 1520.56 L1346.28 1520.56 L1346.28 1522.54 L1363.35 1522.54 L1363.35 1524.52 L1380.31 1524.52 L1380.31 1526.50 L1397.26 1526.50 L1397.26 1528.48 L1414.34 1528.48 L1414.34 1530.46 L1431.29 1530.46 L1431.29 1532.57 L1448.37 1532.57 L1448.37 1534.67 L1465.32 1534.67 L1465.32 1536.65 L1482.28 1536.65 L1482.28 1538.76 L1499.36 1538.76 L1499.36 1540.98 L1516.31 1540.98 L1516.31 1543.09 L1533.39 1543.09 L1533.39 1545.19 L1550.34 1545.19 L1550.34 1547.42 L1567.42 1547.42 L1567.42 1549.65 L1584.37 1549.65 L1584.37 1551.87 L1601.33 1551.87 L1601.33 1554.10 L1618.40 1554.10 L1618.40 1556.33 L1635.36 1556.33 L1635.36 1558.56 L1652.43 1558.56 L1652.43 1560.78 L1669.39 1560.78 L1669.39 1563.14 L1686.46 1563.14 L1686.46 1565.49 L1703.42 1565.49 L1703.42 1567.71 L1720.37 1567.71 L1720.37 1570.07 L1737.45 1570.07 L1737.45 1572.42 L1754.40 1572.42 L1754.40 1574.77 L1771.48 1574.77 L1771.48 1577.24 L1788.43 1577.24 L1788.43 1579.59 L1805.51 1579.59 L1805.51 1582.07 L1822.47 1582.07 L1822.47 1584.42 L1839.42 1584.42 L1839.42 1586.90 L1856.50 1586.90 L1856.50 1589.37 L1873.45 1589.37 L1873.45 1591.72 L1890.53 1591.72 L1890.53 1594.20 L1907.48 1594.20 L1907.48 1596.67 L1924.56 1596.67 L1924.56 1599.27 L1941.51 1599.27 L1941.51 1601.75 L1958.47 1601.75 L1958.47 1604.22 L1975.55 1604.22 L1975.55 1606.82 L1992.50 1606.82 L1992.50 1609.30 L2009.58 1609.30 L2009.58 1611.89 L2026.53 1611.89 L2026.53 1614.37 L2043.61 1614.37 L2043.61 1616.97 L2060.56 1616.97 L2060.56 1619.57 L2077.51 1619.57 L2077.51 1622.17 L2094.59 1622.17 L2094.59 1624.76 L2111.55 1624.76 L2111.55 1627.36 L2128.62 1627.36 L2128.62 1629.96 L2145.58 1629.96 L2145.58 1632.56 L2162.66 1632.56 L2162.66 1635.28 L2179.61 1635.28 L2179.61 1637.88 L2196.56 1637.88 L2196.56 1640.61 L2213.64 1640.61 L2213.64 1643.20 L2230.59 1643.20 L2230.59 1645.93 L2247.67 1645.93 L2247.67 1648.65 L2264.63 1648.65 L2264.63 1651.25 L2281.70 1651.25 L2281.70 1653.97 L2298.66 1653.97 L2298.66 1656.69 L2315.61 1656.69 L2315.61 1659.42 L2332.69 1659.42 L2332.69 1662.14 L2349.64 1662.14 L2349.64 1664.86 L2366.72 1664.86 L2366.72 1667.58 L2383.67 1667.58 L2383.67 1670.43 L2400.75 1670.43 L2400.75 1673.15 L2417.70 1673.15 L2417.70 1675.87 L2434.66 1675.87 L2434.66 1678.72 L2451.74 1678.72 L2451.74 1681.44 L2468.69 1681.44 L2468.69 1684.29 L2485.77 1684.29 L2485.77 1687.01 L2502.72 1687.01 L2502.72 1689.86 L2519.67 1689.86 L2519.67 1692.71 L2536.75 1692.71 L2536.75 1695.55 L2553.70 1695.55 L2553.70 1698.40 L2570.78 1698.40 L2570.78 1701.24 L2587.74 1701.24 L2587.74 1704.09 L2604.81 1704.09 L2604.81 1706.94 L2621.77 1706.94 L2621.77 1709.78 L2638.72 1709.78 L2638.72 1712.75 L2655.80 1712.75 L2655.80 1715.60 L2672.75 1715.60 L2672.75 1718.57 L2689.83 1718.57 L2689.83 1721.42 L2706.78 1721.42 L2706.78 1724.39 L2723.86 1724.39 L2723.86 1727.36 L2740.82 1727.36 L2740.82 1730.20 L2757.77 1730.20 L2757.77 1733.17 L2774.85 1733.17 L2774.85 1736.14 L2791.80 1736.14 L2791.80 1739.11 L2808.88 1739.11 L2808.88 1742.08 L2825.83 1742.08 L2825.83 1745.05 L2842.91 1745.05 L2842.91 1748.15 L2859.86 1748.15 L2859.86 1751.12 L2876.82 1751.12 L2876.82 1754.09 L2893.89 1754.09 L2893.89 1757.18 L2910.85 1757.18 L2910.85 1760.15 L2927.93 1760.15 L2927.93 1763.25 L2944.88 1763.25 L2944.88 1766.22 L2961.96 1766.22 L2961.96 1769.31 L2978.91 1769.31 L2978.91 1772.40 L2995.86 1772.40 L2995.86 1775.50 L3012.94 1775.50 L3012.94 1778.59 L3029.89 1778.59 L3029.89 1781.68 L3046.97 1781.68 L3046.97 1784.78 L3063.93 1784.78 L3063.93 1787.87 L3081.00 1787.87 L3081.00 1790.97 L3097.96 1790.97 L3097.96 1794.06 L3114.91 1794.06 L3114.91 1797.28 L3131.99 1797.28 L3131.99 1800.37 L3148.94 1800.37 L3148.94 1803.47 L3166.02 1803.47 L3166.02 1806.68 L3182.97 1806.68 L3182.97 1809.90 L3200.05 1809.90 L3200.05 1812.99 L3217.01 1812.99 L3217.01 1816.21 L3233.96 1816.21 L3233.96 1819.43 L3251.04 1819.43 L3251.04 1822.65 L3267.99 1822.65 L3267.99 1825.74 L3285.07 1825.74 L3285.07 1828.96 L3302.02 1828.96 L3302.02 1832.30 L3319.10 1832.30 L3319.10 1835.52 L3336.05 1835.52 L3336.05 1838.73 L3353.01 1838.73 L3353.01 1841.95 L3370.08 1841.95 L3370.08 1845.17 L3387.04 1845.17 L3387.04 1848.51 L3404.11 1848.51 L3404.11 1851.73 L3421.07 1851.73 L3421.07 1854.95 L3438.15 1854.95 L3438.15 1858.29 L3455.10 1858.29 L3455.10 1861.51 L3472.05 1861.51 L3472.05 1864.85 L3489.13 1864.85 L3489.13 1868.19 L3506.09 1868.19 L3506.09 1871.41 L3523.16 1871.41 L3523.16 1874.75 L3540.12 1874.75 L3540.12 1878.09 L3557.07 1878.09 L3557.07 1881.43 L3574.15 1881.43 L3574.15 1884.65 L3591.10 1884.65 L3591.10 1887.99 L3608.18 1887.99 L3608.18 1891.33 L3625.13 1891.33 L3625.13 1894.67 L3642.21 1894.67 L3642.21 1898.01 L3659.16 1898.01 L3659.16 1901.35 L3676.12 1901.35 L3676.12 1904.70 L3693.20 1904.70 L3693.20 1908.04 L3710.15 1908.04 L3710.15 1911.38 L3727.23 1911.38 L3727.23 1914.72 L3744.18 1914.72 L3744.18 1918.06 L3761.26 1918.06 L3761.26 1921.40 L3778.21 1921.40 L3778.21 1924.74 L3795.16 1924.74 L3795.16 1928.21" stroke-linejoin="round" style="fill:none;stroke:#000000;stroke-width:8.64"/>
	<defs>
		<path id="path_zhDONeyJ" d="M751.16 1473.29 L751.16 1473.29 L768.12 1473.29 L768.12 1474.65 L785.19 1474.65 L785.19 1476.14 L802.15 1476.14 L802.15 1477.74 L819.10 1477.74 L819.10 1479.35 L836.18 1479.35 L836.18 1480.96 L853.13 1480.96 L853.13 1482.70 L870.21 1482.70 L870.21 1484.55 L887.16 1484.55 L887.16 1486.41 L904.12 1486.41 L904.12 1488.26 L921.20 1488.26 L921.20 1490.24 L938.15 1490.24 L938.15 1492.22 L955.23 1492.22 L955.23 1494.33 L972.18 1494.33 L972.18 1496.43 L989.26 1496.43 L989.26 1498.54 L1006.21 1498.54 L1006.21 1500.76 L1023.16 1500.76 L1023.16 1502.99 L1040.24 1502.99 L1040.24 1505.34 L1057.20 1505.34 L1057.20 1507.69 L1074.27 1507.69 L1074.27 1510.04 L1091.23 1510.04 L1091.23 1512.40 L1108.31 1512.40 L1108.31 1514.87 L1125.26 1514.87 L1125.26 1517.35 L1142.21 1517.35 L1142.21 1519.82 L1159.29 1519.82 L1159.29 1522.42 L1176.24 1522.42 L1176.24 1524.90 L1193.32 1524.90 L1193.32 1527.49 L1210.28 1527.49 L1210.28 1530.09 L1227.35 1530.09 L1227.35 1532.82 L1244.31 1532.82 L1244.31 1535.54 L1261.26 1535.54 L1261.26 1538.26 L1278.34 1538.26 L1278.34 1540.98 L1295.29 1540.98 L1295.29 1543.71 L1312.37 1543.71 L1312.37 1546.55 L1329.32 1546.55 L1329.32 1549.27 L1346.40 1549.27 L1346.40 1552.12 L1363.35 1552.12 L1363.35 1554.97 L1380.31 1554.97 L1380.31 1557.94 L1397.38 1557.94 L1397.38 1560.78 L1414.34 1560.78 L1414.34 1563.75 L1431.42 1563.75 L1431.42 1566.60 L1448.37 1566.60 L1448.37 1569.57 L1465.45 1569.57 L1465.45 1572.54 L1482.40 1572.54 L1482.40 1575.63 L1499.36 1575.63 L1499.36 1578.60 L1516.43 1578.60 L1516.43 1581.70 L1533.39 1581.70 L1533.39 1584.79 L1550.46 1584.79 L1550.46 1587.76 L1567.42 1587.76 L1567.42 1590.86 L1584.49 1590.86 L1584.49 1594.07 L1601.45 1594.07 L1601.45 1597.17 L1618.40 1597.17 L1618.40 1600.26 L1635.48 1600.26 L1635.48 1603.48 L1652.43 1603.48 L1652.43 1606.57 L1669.51 1606.57 L1669.51 1609.79 L1686.46 1609.79 L1686.46 1613.01 L1703.54 1613.01 L1703.54 1616.23 L1720.50 1616.23 L1720.50 1619.57 L1737.45 1619.57 L1737.45 1622.78 L1754.53 1622.78 L1754.53 1626.13 L1771.48 1626.13 L1771.48 1629.34 L1788.56 1629.34 L1788.56 1632.68 L1805.51 1632.68 L1805.51 1636.03 L1822.59 1636.03 L1822.59 1639.37 L1839.54 1639.37 L1839.54 1642.71 L1856.50 1642.71 L1856.50 1646.05 L1873.58 1646.05 L1873.58 1649.39 L1890.53 1649.39 L1890.53 1652.86 L1907.61 1652.86 L1907.61 1656.20 L1924.56 1656.20 L1924.56 1659.66 L1941.51 1659.66 L1941.51 1663.13 L1958.59 1663.13 L1958.59 1666.59 L1975.55 1666.59 L1975.55 1670.06 L1992.62 1670.06 L1992.62 1673.52 L2009.58 1673.52 L2009.58 1676.99 L2026.65 1676.99 L2026.65 1680.45 L2043.61 1680.45 L2043.61 1683.92 L2060.56 1683.92 L2060.56 1687.38 L2077.64 1687.38 L2077.64 1690.97 L2094.59 1690.97 L2094.59 1694.44 L2111.67 1694.44 L2111.67 1697.90 L2128.62 1697.90 L2128.62 1701.49 L2145.70 1701.49 L2145.70 1704.96 L2162.66 1704.96 L2162.66 1708.55 L2179.61 1708.55 L2179.61 1712.13 L2196.69 1712.13 L2196.69 1715.72 L2213.64 1715.72 L2213.64 1719.31 L2230.72 1719.31 L2230.72 1722.90 L2247.67 1722.90 L2247.67 1726.49 L2264.75 1726.49 L2264.75 1730.08 L2281.70 1730.08 L2281.70 1733.67 L2298.66 1733.67 L2298.66 1737.26 L2315.73 1737.26 L2315.73 1740.97 L2332.69 1740.97 L2332.69 1744.56 L2349.76 1744.56 L2349.76 1748.15 L2366.72 1748.15 L2366.72 1751.86 L2383.80 1751.86 L2383.80 1755.45 L2400.75 1755.45 L2400.75 1759.16 L2417.70 1759.16 L2417.70 1762.87 L2434.78 1762.87 L2434.78 1766.59 L2451.74 1766.59 L2451.74 1770.30 L2468.81 1770.30 L2468.81 1774.01 L2485.77 1774.01 L2485.77 1777.72 L2502.84 1777.72 L2502.84 1781.44 L2519.80 1781.44 L2519.80 1785.15 L2536.75 1785.15 L2536.75 1788.86 L2553.83 1788.86 L2553.83 1792.70 L2570.78 1792.70 L2570.78 1796.41 L2587.86 1796.41 L2587.86 1800.12 L2604.81 1800.12 L2604.81 1803.96 L2621.89 1803.96 L2621.89 1807.67 L2638.84 1807.67 L2638.84 1811.51 L2655.80 1811.51 L2655.80 1815.35 L2672.88 1815.35 L2672.88 1819.18 L2689.83 1819.18 L2689.83 1822.89 L2706.91 1822.89 L2706.91 1826.73 L2723.86 1826.73 L2723.86 1830.57 L2740.94 1830.57 L2740.94 1834.40 L2757.89 1834.40 L2757.89 1838.24 L2774.85 1838.24 L2774.85 1842.08 L2791.92 1842.08 L2791.92 1845.91 L2808.88 1845.91 L2808.88 1849.75 L2825.95 1849.75 L2825.95 1853.71 L2842.91 1853.71 L2842.91 1857.55 L2859.99 1857.55 L2859.99 1861.38 L2876.94 1861.38 L2876.94 1865.34 L2893.89 1865.34 L2893.89 1869.18 L2910.97 1869.18 L2910.97 1873.14 L2927.93 1873.14 L2927.93 1876.97 L2945.00 1876.97 L2945.00 1880.94 L2961.96 1880.94 L2961.96 1884.90 L2979.03 1884.90 L2979.03 1888.86 L2995.99 1888.86 L2995.99 1892.82 L3012.94 1892.82 L3012.94 1896.78 L3030.02 1896.78 L3030.02 1900.74 L3046.97 1900.74 L3046.97 1904.70 L3064.05 1904.70 L3064.05 1908.66 L3081.00 1908.66 L3081.00 1912.62 L3097.96 1912.62 L3097.96 1916.58 L3115.03 1916.58 L3115.03 1920.54 L3131.99 1920.54 L3131.99 1924.50 L3149.07 1924.50 L3149.07 1928.46 L3166.02 1928.46 L3166.02 1932.54 L3183.10 1932.54 L3183.10 1936.50 L3200.05 1936.50 L3200.05 1940.46 L3217.01 1940.46 L3217.01 1944.54 L3234.08 1944.54 L3234.08 1948.50 L3251.04 1948.50 L3251.04 1952.59 L3268.11 1952.59 L3268.11 1956.55 L3285.07 1956.55 L3285.07 1960.63 L3302.14 1960.63 L3302.14 1964.59 L3319.10 1964.59 L3319.10 1968.68 L3336.05 1968.68 L3336.05 1972.76 L3353.13 1972.76 L3353.13 1976.72 L3370.08 1976.72 L3370.08 1980.80 L3387.16 1980.80 L3387.16 1984.89 L3404.11 1984.89 L3404.11 1988.97 L3421.19 1988.97 L3421.19 1993.06 L3438.15 1993.06 L3438.15 1997.14 L3455.10 1997.14 L3455.10 2001.22 L3472.18 2001.22 L3472.18 2005.31 L3489.13 2005.31 L3489.13 2009.39 L3506.21 2009.39 L3506.21 2013.48 L3523.16 2013.48 L3523.16 2017.56 L3540.24 2017.56 L3540.24 2021.64 L3557.19 2021.64 L3557.19 2025.85 L3574.15 2025.85 L3574.15 2029.93 L3591.22 2029.93 L3591.22 2034.02 L3608.18 2034.02 L3608.18 2038.10 L3625.26 2038.10 L3625.26 2042.19 L3642.21 2042.19 L3642.21 2046.39 L3659.29 2046.39 L3659.29 2050.48 L3676.24 2050.48 L3676.24 2054.56 L3693.20 2054.56 L3693.20 2058.77 L3710.27 2058.77 L3710.27 2062.85 L3727.23 2062.85 L3727.23 2067.06 L3744.30 2067.06 L3744.30 2071.14 L3761.26 2071.14 L3761.26 2075.35 L3778.34 2075.35 L3778.34 2079.44 L3795.29 2079.44 L3795.29 2083.64 L3795.29 1908.41 L3795.29 1905.31 L3778.34 1905.31 L3778.34 1902.34 L3761.26 1902.34 L3761.26 1899.25 L3744.30 1899.25 L3744.30 1896.28 L3727.23 1896.28 L3727.23 1893.19 L3710.27 1893.19 L3710.27 1890.22 L3693.20 1890.22 L3693.20 1887.12 L3676.24 1887.12 L3676.24 1884.15 L3659.29 1884.15 L3659.29 1881.06 L3642.21 1881.06 L3642.21 1878.09 L3625.26 1878.09 L3625.26 1875.12 L3608.18 1875.12 L3608.18 1872.15 L3591.22 1872.15 L3591.22 1869.05 L3574.15 1869.05 L3574.15 1866.08 L3557.19 1866.08 L3557.19 1863.11 L3540.24 1863.11 L3540.24 1860.14 L3523.16 1860.14 L3523.16 1857.05 L3506.21 1857.05 L3506.21 1854.08 L3489.13 1854.08 L3489.13 1851.11 L3472.18 1851.11 L3472.18 1848.14 L3455.10 1848.14 L3455.10 1845.17 L3438.15 1845.17 L3438.15 1842.20 L3421.19 1842.20 L3421.19 1839.23 L3404.11 1839.23 L3404.11 1836.26 L3387.16 1836.26 L3387.16 1833.29 L3370.08 1833.29 L3370.08 1830.32 L3353.13 1830.32 L3353.13 1827.35 L3336.05 1827.35 L3336.05 1824.50 L3319.10 1824.50 L3319.10 1821.53 L3302.14 1821.53 L3302.14 1818.56 L3285.07 1818.56 L3285.07 1815.59 L3268.11 1815.59 L3268.11 1812.75 L3251.04 1812.75 L3251.04 1809.78 L3234.08 1809.78 L3234.08 1806.93 L3217.01 1806.93 L3217.01 1803.96 L3200.05 1803.96 L3200.05 1800.99 L3183.10 1800.99 L3183.10 1798.14 L3166.02 1798.14 L3166.02 1795.17 L3149.07 1795.17 L3149.07 1792.33 L3131.99 1792.33 L3131.99 1789.48 L3115.03 1789.48 L3115.03 1786.51 L3097.96 1786.51 L3097.96 1783.66 L3081.00 1783.66 L3081.00 1780.82 L3064.05 1780.82 L3064.05 1777.85 L3046.97 1777.85 L3046.97 1775.00 L3030.02 1775.00 L3030.02 1772.16 L3012.94 1772.16 L3012.94 1769.31 L2995.99 1769.31 L2995.99 1766.34 L2979.03 1766.34 L2979.03 1763.49 L2961.96 1763.49 L2961.96 1760.65 L2945.00 1760.65 L2945.00 1757.80 L2927.93 1757.80 L2927.93 1754.95 L2910.97 1754.95 L2910.97 1752.23 L2893.89 1752.23 L2893.89 1749.38 L2876.94 1749.38 L2876.94 1746.54 L2859.99 1746.54 L2859.99 1743.69 L2842.91 1743.69 L2842.91 1740.97 L2825.95 1740.97 L2825.95 1738.12 L2808.88 1738.12 L2808.88 1735.40 L2791.92 1735.40 L2791.92 1732.55 L2774.85 1732.55 L2774.85 1729.83 L2757.89 1729.83 L2757.89 1726.99 L2740.94 1726.99 L2740.94 1724.26 L2723.86 1724.26 L2723.86 1721.54 L2706.91 1721.54 L2706.91 1718.69 L2689.83 1718.69 L2689.83 1715.97 L2672.88 1715.97 L2672.88 1713.25 L2655.80 1713.25 L2655.80 1710.53 L2638.84 1710.53 L2638.84 1707.80 L2621.89 1707.80 L2621.89 1705.08 L2604.81 1705.08 L2604.81 1702.36 L2587.86 1702.36 L2587.86 1699.64 L2570.78 1699.64 L2570.78 1696.91 L2553.83 1696.91 L2553.83 1694.19 L2536.75 1694.19 L2536.75 1691.47 L2519.80 1691.47 L2519.80 1688.87 L2502.84 1688.87 L2502.84 1686.15 L2485.77 1686.15 L2485.77 1683.42 L2468.81 1683.42 L2468.81 1680.83 L2451.74 1680.83 L2451.74 1678.10 L2434.78 1678.10 L2434.78 1675.50 L2417.70 1675.50 L2417.70 1672.90 L2400.75 1672.90 L2400.75 1670.18 L2383.80 1670.18 L2383.80 1667.58 L2366.72 1667.58 L2366.72 1664.98 L2349.76 1664.98 L2349.76 1662.39 L2332.69 1662.39 L2332.69 1659.79 L2315.73 1659.79 L2315.73 1657.19 L2298.66 1657.19 L2298.66 1654.59 L2281.70 1654.59 L2281.70 1651.99 L2264.75 1651.99 L2264.75 1649.39 L2247.67 1649.39 L2247.67 1646.79 L2230.72 1646.79 L2230.72 1644.32 L2213.64 1644.32 L2213.64 1641.72 L2196.69 1641.72 L2196.69 1639.12 L2179.61 1639.12 L2179.61 1636.64 L2162.66 1636.64 L2162.66 1634.05 L2145.70 1634.05 L2145.70 1631.57 L2128.62 1631.57 L2128.62 1629.10 L2111.67 1629.10 L2111.67 1626.50 L2094.59 1626.50 L2094.59 1624.02 L2077.64 1624.02 L2077.64 1621.55 L2060.56 1621.55 L2060.56 1619.07 L2043.61 1619.07 L2043.61 1616.60 L2026.65 1616.60 L2026.65 1614.00 L2009.58 1614.00 L2009.58 1611.52 L1992.62 1611.52 L1992.62 1609.05 L1975.55 1609.05 L1975.55 1606.57 L1958.59 1606.57 L1958.59 1604.10 L1941.51 1604.10 L1941.51 1601.75 L1924.56 1601.75 L1924.56 1599.27 L1907.61 1599.27 L1907.61 1596.80 L1890.53 1596.80 L1890.53 1594.44 L1873.58 1594.44 L1873.58 1591.97 L1856.50 1591.97 L1856.50 1589.62 L1839.54 1589.62 L1839.54 1587.27 L1822.59 1587.27 L1822.59 1584.79 L1805.51 1584.79 L1805.51 1582.44 L1788.56 1582.44 L1788.56 1580.09 L1771.48 1580.09 L1771.48 1577.74 L1754.53 1577.74 L1754.53 1575.39 L1737.45 1575.39 L1737.45 1573.16 L1720.50 1573.16 L1720.50 1570.81 L1703.54 1570.81 L1703.54 1568.46 L1686.46 1568.46 L1686.46 1566.23 L1669.51 1566.23 L1669.51 1564.00 L1652.43 1564.00 L1652.43 1561.65 L1635.48 1561.65 L1635.48 1559.42 L1618.40 1559.42 L1618.40 1557.32 L1601.45 1557.32 L1601.45 1555.09 L1584.49 1555.09 L1584.49 1552.86 L1567.42 1552.86 L1567.42 1550.64 L1550.46 1550.64 L1550.46 1548.53 L1533.39 1548.53 L1533.39 1546.30 L1516.43 1546.30 L1516.43 1544.20 L1499.36 1544.20 L1499.36 1542.10 L1482.40 1542.10 L1482.40 1539.87 L1465.45 1539.87 L1465.45 1537.77 L1448.37 1537.77 L1448.37 1535.66 L1431.42 1535.66 L1431.42 1533.68 L1414.34 1533.68 L1414.34 1531.58 L1397.38 1531.58 L1397.38 1529.60 L1380.31 1529.60 L1380.31 1527.49 L1363.35 1527.49 L1363.35 1525.51 L1346.40 1525.51 L1346.40 1523.53 L1329.32 1523.53 L1329.32 1521.55 L1312.37 1521.55 L1312.37 1519.57 L1295.29 1519.57 L1295.29 1517.72 L1278.34 1517.72 L1278.34 1515.74 L1261.26 1515.74 L1261.26 1513.76 L1244.31 1513.76 L1244.31 1511.90 L1227.35 1511.90 L1227.35 1510.04 L1210.28 1510.04 L1210.28 1508.19 L1193.32 1508.19 L1193.32 1506.46 L1176.24 1506.46 L1176.24 1504.60 L1159.29 1504.60 L1159.29 1502.87 L1142.21 1502.87 L1142.21 1501.13 L1125.26 1501.13 L1125.26 1499.40 L1108.31 1499.40 L1108.31 1497.67 L1091.23 1497.67 L1091.23 1495.94 L1074.27 1495.94 L1074.27 1494.33 L1057.20 1494.33 L1057.20 1492.72 L1040.24 1492.72 L1040.24 1491.11 L1023.16 1491.11 L1023.16 1489.50 L1006.21 1489.50 L1006.21 1488.02 L989.26 1488.02 L989.26 1486.53 L972.18 1486.53 L972.18 1485.05 L955.23 1485.05 L955.23 1483.56 L938.15 1483.56 L938.15 1482.20 L921.20 1482.20 L921.20 1480.84 L904.12 1480.84 L904.12 1479.48 L887.16 1479.48 L887.16 1478.24 L870.21 1478.24 L870.21 1477.00 L853.13 1477.00 L853.13 1475.76 L836.18 1475.76 L836.18 1474.65 L819.10 1474.65 L819.10 1473.54 L802.15 1473.54 L802.15 1472.42 L785.19 1472.42 L785.19 1471.43 L768.12 1471.43 L768.12 1470.44 L751.16 1470.44 L751.16 1473.29 Z" stroke-linejoin="round"/>
	</defs>
	<defs>
		<clipPath id="clipPath_LlAKHegF">
			<use xlink:href="#path_zhDONeyJ"/>
		</clipPath>
	</defs>
	<use xlink:href="#path_zhDONeyJ" style="stroke:none;fill:#999999;fill-opacity:0.35"/>
	<use xlink:href="#path_zhDONeyJ" style="fill:none;stroke:#808080;stroke-opacity:0.35;stroke-width:17.28" clip-path="url(#clipPath_LlAKHegF)"/>
	<path d=" M751.04 1471.93 L768.12 1471.93 L768.12 1473.17 L785.07 1473.17 L785.07 1474.40 L802.02 1474.40 L802.02 1475.64 L819.10 1475.64 L819.10 1477.00 L836.05 1477.00 L836.05 1478.49 L853.13 1478.49 L853.13 1479.97 L870.09 1479.97 L870.09 1481.46 L887.16 1481.46 L887.16 1482.94 L904.12 1482.94 L904.12 1484.55 L921.07 1484.55 L921.07 1486.28 L938.15 1486.28 L938.15 1487.89 L955.10 1487.89 L955.10 1489.75 L972.18 1489.75 L972.18 1491.48 L989.13 1491.48 L989.13 1493.34 L1006.21 1493.34 L1006.21 1495.19 L1023.16 1495.19 L1023.16 1497.17 L1040.12 1497.17 L1040.12 1499.03 L1057.20 1499.03 L1057.20 1501.01 L1074.15 1501.01 L1074.15 1503.11 L1091.23 1503.11 L1091.23 1505.09 L1108.18 1505.09 L1108.18 1507.20 L1125.26 1507.20 L1125.26 1509.30 L1142.21 1509.30 L1142.21 1511.41 L1159.17 1511.41 L1159.17 1513.51 L1176.24 1513.51 L1176.24 1515.74 L1193.20 1515.74 L1193.20 1517.96 L1210.28 1517.96 L1210.28 1520.19 L1227.23 1520.19 L1227.23 1522.42 L1244.31 1522.42 L1244.31 1524.65 L1261.26 1524.65 L1261.26 1527.00 L1278.21 1527.00 L1278.21 1529.35 L1295.29 1529.35 L1295.29 1531.70 L1312.24 1531.70 L1312.24 1534.05 L1329.32 1534.05 L1329.32 1536.53 L1346.28 1536.53 L1346.28 1538.88 L1363.35 1538.88 L1363.35 1541.35 L1380.31 1541.35 L1380.31 1543.83 L1397.26 1543.83 L1397.26 1546.30 L1414.34 1546.30 L1414.34 1548.78 L1431.29 1548.78 L1431.29 1551.25 L1448.37 1551.25 L1448.37 1553.73 L1465.32 1553.73 L1465.32 1556.33 L1482.28 1556.33 L1482.28 1558.93 L1499.36 1558.93 L1499.36 1561.40 L1516.31 1561.40 L1516.31 1564.13 L1533.39 1564.13 L1533.39 1566.72 L1550.34 1566.72 L1550.34 1569.32 L1567.42 1569.32 L1567.42 1571.92 L1584.37 1571.92 L1584.37 1574.64 L1601.33 1574.64 L1601.33 1577.24 L1618.40 1577.24 L1618.40 1579.97 L1635.36 1579.97 L1635.36 1582.69 L1652.43 1582.69 L1652.43 1585.41 L1669.39 1585.41 L1669.39 1588.13 L1686.46 1588.13 L1686.46 1590.86 L1703.42 1590.86 L1703.42 1593.58 L1720.37 1593.58 L1720.37 1596.42 L1737.45 1596.42 L1737.45 1599.15 L1754.40 1599.15 L1754.40 1601.99 L1771.48 1601.99 L1771.48 1604.84 L1788.43 1604.84 L1788.43 1607.69 L1805.51 1607.69 L1805.51 1610.53 L1822.47 1610.53 L1822.47 1613.38 L1839.42 1613.38 L1839.42 1616.23 L1856.50 1616.23 L1856.50 1619.07 L1873.45 1619.07 L1873.45 1622.04 L1890.53 1622.04 L1890.53 1624.89 L1907.48 1624.89 L1907.48 1627.86 L1924.56 1627.86 L1924.56 1630.70 L1941.51 1630.70 L1941.51 1633.67 L1958.47 1633.67 L1958.47 1636.64 L1975.55 1636.64 L1975.55 1639.61 L1992.50 1639.61 L1992.50 1642.59 L2009.58 1642.59 L2009.58 1645.56 L2026.53 1645.56 L2026.53 1648.53 L2043.61 1648.53 L2043.61 1651.50 L2060.56 1651.50 L2060.56 1654.47 L2077.51 1654.47 L2077.51 1657.56 L2094.59 1657.56 L2094.59 1660.53 L2111.55 1660.53 L2111.55 1663.50 L2128.62 1663.50 L2128.62 1666.59 L2145.58 1666.59 L2145.58 1669.56 L2162.66 1669.56 L2162.66 1672.66 L2179.61 1672.66 L2179.61 1675.75 L2196.56 1675.75 L2196.56 1678.72 L2213.64 1678.72 L2213.64 1681.82 L2230.59 1681.82 L2230.59 1684.91 L2247.67 1684.91 L2247.67 1688.00 L2264.63 1688.00 L2264.63 1691.10 L2281.70 1691.10 L2281.70 1694.19 L2298.66 1694.19 L2298.66 1697.28 L2315.61 1697.28 L2315.61 1700.38 L2332.69 1700.38 L2332.69 1703.47 L2349.64 1703.47 L2349.64 1706.69 L2366.72 1706.69 L2366.72 1709.78 L2383.67 1709.78 L2383.67 1712.88 L2400.75 1712.88 L2400.75 1716.09 L2417.70 1716.09 L2417.70 1719.19 L2434.66 1719.19 L2434.66 1722.41 L2451.74 1722.41 L2451.74 1725.62 L2468.69 1725.62 L2468.69 1728.72 L2485.77 1728.72 L2485.77 1731.94 L2502.72 1731.94 L2502.72 1735.15 L2519.67 1735.15 L2519.67 1738.37 L2536.75 1738.37 L2536.75 1741.59 L2553.70 1741.59 L2553.70 1744.81 L2570.78 1744.81 L2570.78 1748.02 L2587.74 1748.02 L2587.74 1751.24 L2604.81 1751.24 L2604.81 1754.58 L2621.77 1754.58 L2621.77 1757.80 L2638.72 1757.80 L2638.72 1761.02 L2655.80 1761.02 L2655.80 1764.36 L2672.75 1764.36 L2672.75 1767.58 L2689.83 1767.58 L2689.83 1770.92 L2706.78 1770.92 L2706.78 1774.14 L2723.86 1774.14 L2723.86 1777.48 L2740.82 1777.48 L2740.82 1780.82 L2757.77 1780.82 L2757.77 1784.04 L2774.85 1784.04 L2774.85 1787.38 L2791.80 1787.38 L2791.80 1790.72 L2808.88 1790.72 L2808.88 1794.06 L2825.83 1794.06 L2825.83 1797.40 L2842.91 1797.40 L2842.91 1800.74 L2859.86 1800.74 L2859.86 1804.08 L2876.82 1804.08 L2876.82 1807.43 L2893.89 1807.43 L2893.89 1810.77 L2910.85 1810.77 L2910.85 1814.11 L2927.93 1814.11 L2927.93 1817.45 L2944.88 1817.45 L2944.88 1820.91 L2961.96 1820.91 L2961.96 1824.26 L2978.91 1824.26 L2978.91 1827.72 L2995.86 1827.72 L2995.86 1831.06 L3012.94 1831.06 L3012.94 1834.53 L3029.89 1834.53 L3029.89 1837.87 L3046.97 1837.87 L3046.97 1841.33 L3063.93 1841.33 L3063.93 1844.80 L3081.00 1844.80 L3081.00 1848.14 L3097.96 1848.14 L3097.96 1851.61 L3114.91 1851.61 L3114.91 1855.07 L3131.99 1855.07 L3131.99 1858.54 L3148.94 1858.54 L3148.94 1861.88 L3166.02 1861.88 L3166.02 1865.34 L3182.97 1865.34 L3182.97 1868.81 L3200.05 1868.81 L3200.05 1872.27 L3217.01 1872.27 L3217.01 1875.74 L3233.96 1875.74 L3233.96 1879.20 L3251.04 1879.20 L3251.04 1882.67 L3267.99 1882.67 L3267.99 1886.13 L3285.07 1886.13 L3285.07 1889.72 L3302.02 1889.72 L3302.02 1893.19 L3319.10 1893.19 L3319.10 1896.65 L3336.05 1896.65 L3336.05 1900.12 L3353.01 1900.12 L3353.01 1903.58 L3370.08 1903.58 L3370.08 1907.17 L3387.04 1907.17 L3387.04 1910.64 L3404.11 1910.64 L3404.11 1914.10 L3421.07 1914.10 L3421.07 1917.69 L3438.15 1917.69 L3438.15 1921.16 L3455.10 1921.16 L3455.10 1924.74 L3472.05 1924.74 L3472.05 1928.33 L3489.13 1928.33 L3489.13 1931.80 L3506.09 1931.80 L3506.09 1935.39 L3523.16 1935.39 L3523.16 1938.85 L3540.12 1938.85 L3540.12 1942.44 L3557.07 1942.44 L3557.07 1946.03 L3574.15 1946.03 L3574.15 1949.62 L3591.10 1949.62 L3591.10 1953.08 L3608.18 1953.08 L3608.18 1956.67 L3625.13 1956.67 L3625.13 1960.26 L3642.21 1960.26 L3642.21 1963.85 L3659.16 1963.85 L3659.16 1967.32 L3676.12 1967.32 L3676.12 1970.90 L3693.20 1970.90 L3693.20 1974.49 L3710.15 1974.49 L3710.15 1978.08 L3727.23 1978.08 L3727.23 1981.67 L3744.18 1981.67 L3744.18 1985.26 L3761.26 1985.26 L3761.26 1988.85 L3778.21 1988.85 L3778.21 1992.44 L3795.16 1992.44 L3795.16 1996.03" stroke-linejoin="round" style="fill:none;stroke:#808080;stroke-width:8.64"/>
	<line x1="529.90" y1="2509.23" x2="529.90" y2="419.90" style="stroke:#000000;stroke-width:5.76"/>
	<line x1="529.90" y1="2445.87" x2="489.93" y2="2445.87" style="stroke:#000000;stroke-width:5.76"/>
	<text x="470.00" y="2480.90" style="font-family:'Helvetica';font-size:99.99px;fill:#000000" text-anchor="end">-365</text>
	<line x1="529.90" y1="2203.93" x2="489.93" y2="2203.93" style="stroke:#000000;stroke-width:5.76"/>
	<text x="470.00" y="2238.96" style="font-family:'Helvetica';font-size:99.99px;fill:#000000" text-anchor="end">-275</text>
	<line x1="529.90" y1="1961.99" x2="489.93" y2="1961.99" style="stroke:#000000;stroke-width:5.76"/>
	<text x="470.00" y="1997.02" style="font-family:'Helvetica';font-size:99.99px;fill:#000000" text-anchor="end">-185</text>
	<line x1="529.90" y1="1719.93" x2="489.93" y2="1719.93" style="stroke:#000000;stroke-width:5.76"/>
	<text x="470.00" y="1754.96" style="font-family:'Helvetica';font-size:99.99px;fill:#000000" text-anchor="end">-95</text>
	<line x1="529.90" y1="1477.99" x2="489.93" y2="1477.99" style="stroke:#000000;stroke-width:5.76"/>
	<text x="470.00" y="1513.02" style="font-family:'Helvetica';font-size:99.99px;fill:#000000" text-anchor="end">-5</text>
	<line x1="529.90" y1="1236.05" x2="489.93" y2="1236.05" style="stroke:#000000;stroke-width:5.76"/>
	<text x="470.00" y="1271.08" style="font-family:'Helvetica';font-size:99.99px;fill:#000000" text-anchor="end">85</text>
	<line x1="529.90" y1="994.11" x2="489.93" y2="994.11" style="stroke:#000000;stroke-width:5.76"/>
	<text x="470.00" y="1029.14" style="font-family:'Helvetica';font-size:99.99px;fill:#000000" text-anchor="end">175</text>
	<line x1="529.90" y1="752.18" x2="489.93" y2="752.18" style="stroke:#000000;stroke-width:5.76"/>
	<text x="470.00" y="787.20" style="font-family:'Helvetica';font-size:99.99px;fill:#000000" text-anchor="end">265</text>
	<line x1="529.90" y1="510.11" x2="489.93" y2="510.11" style="stroke:#000000;stroke-width:5.76"/>
	<text x="470.00" y="545.14" style="font-family:'Helvetica';font-size:99.99px;fill:#000000" text-anchor="end">355</text>
	<text x="190.71" y="1464.63" style="font-family:'Helvetica';font-size:99.99px;fill:#000000" transform="rotate(-90 190.71,1464.63)" text-anchor="middle">Difference in Lengths of Stay</text>
	<line x1="529.90" y1="2509.23" x2="3859.02" y2="2509.23" style="stroke:#000000;stroke-width:5.76"/>
	<line x1="593.26" y1="2509.23" x2="593.26" y2="2549.21" style="stroke:#000000;stroke-width:5.76"/>
	<text x="593.26" y="2625.15" style="font-family:'Helvetica';font-size:79.94px;fill:#000000" text-anchor="middle">0</text>
	<line x1="785.44" y1="2509.23" x2="785.44" y2="2549.21" style="stroke:#000000;stroke-width:5.76"/>
	<text x="785.44" y="2625.15" style="font-family:'Helvetica';font-size:79.94px;fill:#000000" text-anchor="middle">.3</text>
	<line x1="977.63" y1="2509.23" x2="977.63" y2="2549.21" style="stroke:#000000;stroke-width:5.76"/>
	<text x="977.63" y="2625.15" style="font-family:'Helvetica';font-size:79.94px;fill:#000000" text-anchor="middle">.6</text>
	<line x1="1169.68" y1="2509.23" x2="1169.68" y2="2549.21" style="stroke:#000000;stroke-width:5.76"/>
	<text x="1169.68" y="2625.15" style="font-family:'Helvetica';font-size:79.94px;fill:#000000" text-anchor="middle">.9</text>
	<line x1="1361.87" y1="2509.23" x2="1361.87" y2="2549.21" style="stroke:#000000;stroke-width:5.76"/>
	<text x="1361.87" y="2625.15" style="font-family:'Helvetica';font-size:79.94px;fill:#000000" text-anchor="middle">1.2</text>
	<line x1="1554.05" y1="2509.23" x2="1554.05" y2="2549.21" style="stroke:#000000;stroke-width:5.76"/>
	<text x="1554.05" y="2625.15" style="font-family:'Helvetica';font-size:79.94px;fill:#000000" text-anchor="middle">1.5</text>
	<line x1="1746.11" y1="2509.23" x2="1746.11" y2="2549.21" style="stroke:#000000;stroke-width:5.76"/>
	<text x="1746.11" y="2625.15" style="font-family:'Helvetica';font-size:79.94px;fill:#000000" text-anchor="middle">1.8</text>
	<line x1="1938.30" y1="2509.23" x2="1938.30" y2="2549.21" style="stroke:#000000;stroke-width:5.76"/>
	<text x="1938.30" y="2625.15" style="font-family:'Helvetica';font-size:79.94px;fill:#000000" text-anchor="middle">2.1</text>
	<line x1="2130.48" y1="2509.23" x2="2130.48" y2="2549.21" style="stroke:#000000;stroke-width:5.76"/>
	<text x="2130.48" y="2625.15" style="font-family:'Helvetica';font-size:79.94px;fill:#000000" text-anchor="middle">2.4</text>
	<line x1="2322.66" y1="2509.23" x2="2322.66" y2="2549.21" style="stroke:#000000;stroke-width:5.76"/>
	<text x="2322.66" y="2625.15" style="font-family:'Helvetica';font-size:79.94px;fill:#000000" text-anchor="middle">2.7</text>
	<line x1="2514.72" y1="2509.23" x2="2514.72" y2="2549.21" style="stroke:#000000;stroke-width:5.76"/>
	<text x="2514.72" y="2625.15" style="font-family:'Helvetica';font-size:79.94px;fill:#000000" text-anchor="middle">3</text>
	<line x1="2706.91" y1="2509.23" x2="2706.91" y2="2549.21" style="stroke:#000000;stroke-width:5.76"/>
	<text x="2706.91" y="2625.15" style="font-family:'Helvetica';font-size:79.94px;fill:#000000" text-anchor="middle">3.3</text>
	<line x1="2899.09" y1="2509.23" x2="2899.09" y2="2549.21" style="stroke:#000000;stroke-width:5.76"/>
	<text x="2899.09" y="2625.15" style="font-family:'Helvetica';font-size:79.94px;fill:#000000" text-anchor="middle">3.6</text>
	<line x1="3091.15" y1="2509.23" x2="3091.15" y2="2549.21" style="stroke:#000000;stroke-width:5.76"/>
	<text x="3091.15" y="2625.15" style="font-family:'Helvetica';font-size:79.94px;fill:#000000" text-anchor="middle">3.9</text>
	<line x1="3283.34" y1="2509.23" x2="3283.34" y2="2549.21" style="stroke:#000000;stroke-width:5.76"/>
	<text x="3283.34" y="2625.15" style="font-family:'Helvetica';font-size:79.94px;fill:#000000" text-anchor="middle">4.2</text>
	<line x1="3475.52" y1="2509.23" x2="3475.52" y2="2549.21" style="stroke:#000000;stroke-width:5.76"/>
	<text x="3475.52" y="2625.15" style="font-family:'Helvetica';font-size:79.94px;fill:#000000" text-anchor="middle">4.5</text>
	<line x1="3667.58" y1="2509.23" x2="3667.58" y2="2549.21" style="stroke:#000000;stroke-width:5.76"/>
	<text x="3667.58" y="2625.15" style="font-family:'Helvetica';font-size:79.94px;fill:#000000" text-anchor="middle">4.8</text>
	<line x1="3859.76" y1="2509.23" x2="3859.76" y2="2549.21" style="stroke:#000000;stroke-width:5.76"/>
	<text x="3859.76" y="2625.15" style="font-family:'Helvetica';font-size:79.94px;fill:#000000" text-anchor="middle">5.1</text>
	<text x="2194.46" y="2729.16" style="font-family:'Helvetica';font-size:99.99px;fill:#000000" text-anchor="middle">Time (years)</text>
	<rect x="2519.18" y="1868.31" width="1305.32" height="606.39" style="fill:#FFFFFF"/>
	<rect x="2522.06" y="1871.19" width="1299.56" height="600.63" style="fill:none;stroke:#000000;stroke-width:5.76"/>
	<rect x="2562.37" y="1911.50" width="374.34" height="99.99" style="fill:#999999;fill-opacity:0.75"/>
	<rect x="2566.69" y="1915.82" width="365.70" height="91.35" style="fill:none;stroke:#808080;stroke-opacity:0.75;stroke-width:8.64"/>
	<line x1="2562.37" y1="2101.46" x2="2936.71" y2="2101.46" style="stroke:#000000;stroke-width:8.64"/>
	<rect x="2562.37" y="2191.43" width="374.34" height="99.99" style="fill:#999999;fill-opacity:0.35"/>
	<rect x="2566.69" y="2195.75" width="365.70" height="91.35" style="fill:none;stroke:#808080;stroke-opacity:0.35;stroke-width:8.64"/>
	<line x1="2562.37" y1="2381.52" x2="2936.71" y2="2381.52" style="stroke:#808080;stroke-width:8.64"/>
	<text x="2996.73" y="1996.53" style="font-family:'Helvetica';font-size:99.99px;fill:#000000">CI95%</text>
	<text x="2996.73" y="2136.49" style="font-family:'Helvetica';font-size:99.99px;fill:#000000">Difference (TC)</text>
	<text x="2996.73" y="2276.46" style="font-family:'Helvetica';font-size:99.99px;fill:#000000">CI95%</text>
	<text x="2996.73" y="2416.55" style="font-family:'Helvetica';font-size:99.99px;fill:#000000">Difference (TNC)</text>
	<text x="2194.46" y="369.63" style="font-family:'Helvetica';font-size:110.01px;fill:#000000" text-anchor="middle">from Completion/Non-Completion (RP)</text>
	<text x="2194.46" y="215.98" style="font-family:'Helvetica';font-size:139.96px;fill:#1E2D53" text-anchor="middle">Difference in Lengths of Stay at 2 years</text>
</svg>
