<?xml version="1.0" encoding="UTF-8" standalone="no"?>
<!-- This is a Stata 16.1 generated SVG file (http://www.stata.com) -->

<svg version="1.1" width="5.50in" height="4.00in" viewBox="0 0 3960 2880" xmlns="http://www.w3.org/2000/svg" xmlns:xlink="http://www.w3.org/1999/xlink">
	<desc>Stata Graph - diff_mod23_tc</desc>
	<rect x="0" y="0" width="3960" height="2880" style="fill:#EAF2F3;stroke:none"/>
	<rect x="0.00" y="0.00" width="3959.88" height="2880.00" style="fill:#FFFFFF"/>
	<rect x="2.88" y="2.88" width="3954.12" height="2874.24" style="fill:none;stroke:#FFFFFF;stroke-width:5.76"/>
	<rect x="559.10" y="419.90" width="3299.92" height="2089.34" style="fill:#FFFFFF"/>
	<rect x="561.98" y="422.78" width="3294.16" height="2083.58" style="fill:none;stroke:#FFFFFF;stroke-width:5.76"/>
	<line x1="559.10" y1="2249.60" x2="3859.02" y2="2249.60" style="stroke:#EAF2F3;stroke-width:8.64"/>
	<line x1="559.10" y1="2053.32" x2="3859.02" y2="2053.32" style="stroke:#EAF2F3;stroke-width:8.64"/>
	<line x1="559.10" y1="1857.05" x2="3859.02" y2="1857.05" style="stroke:#EAF2F3;stroke-width:8.64"/>
	<line x1="559.10" y1="1660.78" x2="3859.02" y2="1660.78" style="stroke:#EAF2F3;stroke-width:8.64"/>
	<line x1="559.10" y1="1464.63" x2="3859.02" y2="1464.63" style="stroke:#EAF2F3;stroke-width:8.64"/>
	<line x1="559.10" y1="1268.35" x2="3859.02" y2="1268.35" style="stroke:#EAF2F3;stroke-width:8.64"/>
	<line x1="559.10" y1="1072.08" x2="3859.02" y2="1072.08" style="stroke:#EAF2F3;stroke-width:8.64"/>
	<line x1="559.10" y1="875.81" x2="3859.02" y2="875.81" style="stroke:#EAF2F3;stroke-width:8.64"/>
	<line x1="559.10" y1="679.53" x2="3859.02" y2="679.53" style="stroke:#EAF2F3;stroke-width:8.64"/>
	<line x1="559.10" y1="1464.63" x2="3859.02" y2="1464.63" style="stroke:#1A476F;stroke-width:8.64"/>
	<defs>
		<path id="path_qaAgvZtB" d="M778.76 1498.04 L778.76 1498.04 L795.59 1498.04 L795.59 1502.99 L812.54 1502.99 L812.54 1507.32 L829.37 1507.32 L829.37 1513.14 L846.20 1513.14 L846.20 1515.49 L863.03 1515.49 L863.03 1519.70 L879.86 1519.70 L879.86 1523.78 L896.82 1523.78 L896.82 1527.49 L913.65 1527.49 L913.65 1530.84 L930.48 1530.84 L930.48 1532.82 L947.31 1532.82 L947.31 1533.81 L964.14 1533.81 L964.14 1535.79 L981.09 1535.79 L981.09 1540.24 L997.92 1540.24 L997.92 1541.11 L1014.75 1541.11 L1014.75 1543.71 L1031.58 1543.71 L1031.58 1545.07 L1048.41 1545.07 L1048.41 1544.32 L1065.36 1544.32 L1065.36 1545.56 L1082.19 1545.56 L1082.19 1546.43 L1099.02 1546.43 L1099.02 1546.18 L1115.85 1546.18 L1115.85 1549.40 L1132.68 1549.40 L1132.68 1550.39 L1149.64 1550.39 L1149.64 1550.76 L1166.47 1550.76 L1166.47 1552.99 L1183.30 1552.99 L1183.30 1554.72 L1200.13 1554.72 L1200.13 1555.83 L1216.96 1555.83 L1216.96 1558.18 L1233.91 1558.18 L1233.91 1560.17 L1250.74 1560.17 L1250.74 1560.78 L1267.57 1560.78 L1267.57 1561.77 L1284.40 1561.77 L1284.40 1562.39 L1301.23 1562.39 L1301.23 1562.15 L1318.18 1562.15 L1318.18 1565.12 L1335.02 1565.12 L1335.02 1566.11 L1351.85 1566.11 L1351.85 1565.49 L1368.67 1565.49 L1368.67 1566.60 L1385.51 1566.60 L1385.51 1566.85 L1402.34 1566.85 L1402.34 1568.58 L1419.29 1568.58 L1419.29 1570.19 L1436.12 1570.19 L1436.12 1570.19 L1452.95 1570.19 L1452.95 1573.16 L1469.78 1573.16 L1469.78 1572.91 L1486.61 1572.91 L1486.61 1573.90 L1503.56 1573.90 L1503.56 1574.64 L1520.39 1574.64 L1520.39 1574.15 L1537.22 1574.15 L1537.22 1575.63 L1554.05 1575.63 L1554.05 1576.25 L1570.88 1576.25 L1570.88 1577.86 L1587.84 1577.86 L1587.84 1577.61 L1604.67 1577.61 L1604.67 1578.23 L1621.50 1578.23 L1621.50 1579.59 L1638.33 1579.59 L1638.33 1582.69 L1655.16 1582.69 L1655.16 1583.18 L1672.11 1583.18 L1672.11 1584.30 L1688.94 1584.30 L1688.94 1585.16 L1705.77 1585.16 L1705.77 1586.03 L1722.60 1586.03 L1722.60 1585.78 L1739.43 1585.78 L1739.43 1587.27 L1756.38 1587.27 L1756.38 1588.50 L1773.21 1588.50 L1773.21 1587.76 L1790.04 1587.76 L1790.04 1586.77 L1806.87 1586.77 L1806.87 1587.27 L1823.70 1587.27 L1823.70 1587.76 L1840.66 1587.76 L1840.66 1588.63 L1857.49 1588.63 L1857.49 1589.00 L1874.32 1589.00 L1874.32 1589.12 L1891.15 1589.12 L1891.15 1589.25 L1907.98 1589.25 L1907.98 1590.48 L1924.93 1590.48 L1924.93 1593.08 L1941.76 1593.08 L1941.76 1593.83 L1958.59 1593.83 L1958.59 1594.44 L1975.42 1594.44 L1975.42 1595.93 L1992.25 1595.93 L1992.25 1597.54 L2009.20 1597.54 L2009.20 1598.78 L2026.04 1598.78 L2026.04 1598.90 L2042.87 1598.90 L2042.87 1597.54 L2059.70 1597.54 L2059.70 1598.78 L2076.53 1598.78 L2076.53 1598.90 L2093.48 1598.90 L2093.48 1600.26 L2110.31 1600.26 L2110.31 1599.77 L2127.14 1599.77 L2127.14 1600.76 L2143.97 1600.76 L2143.97 1600.63 L2160.80 1600.63 L2160.80 1599.52 L2177.75 1599.52 L2177.75 1600.51 L2194.58 1600.51 L2194.58 1600.26 L2211.41 1600.26 L2211.41 1600.51 L2228.24 1600.51 L2228.24 1599.27 L2245.07 1599.27 L2245.07 1600.51 L2262.03 1600.51 L2262.03 1600.14 L2278.86 1600.14 L2278.86 1601.87 L2295.69 1601.87 L2295.69 1601.38 L2312.52 1601.38 L2312.52 1601.62 L2329.35 1601.62 L2329.35 1603.36 L2346.30 1603.36 L2346.30 1603.11 L2363.13 1603.11 L2363.13 1600.88 L2379.96 1600.88 L2379.96 1601.87 L2396.79 1601.87 L2396.79 1602.74 L2413.62 1602.74 L2413.62 1602.74 L2430.57 1602.74 L2430.57 1603.85 L2447.40 1603.85 L2447.40 1603.11 L2464.23 1603.11 L2464.23 1603.23 L2481.06 1603.23 L2481.06 1603.36 L2497.89 1603.36 L2497.89 1603.11 L2514.85 1603.11 L2514.85 1603.36 L2531.68 1603.36 L2531.68 1603.48 L2548.51 1603.48 L2548.51 1602.61 L2565.34 1602.61 L2565.34 1603.23 L2582.17 1603.23 L2582.17 1604.35 L2599.00 1604.35 L2599.00 1605.58 L2615.95 1605.58 L2615.95 1605.09 L2632.78 1605.09 L2632.78 1604.59 L2649.61 1604.59 L2649.61 1604.84 L2666.44 1604.84 L2666.44 1606.57 L2683.27 1606.57 L2683.27 1605.09 L2700.22 1605.09 L2700.22 1604.22 L2717.05 1604.22 L2717.05 1604.22 L2733.89 1604.22 L2733.89 1603.85 L2750.72 1603.85 L2750.72 1601.50 L2767.55 1601.50 L2767.55 1602.37 L2784.50 1602.37 L2784.50 1601.99 L2801.33 1601.99 L2801.33 1602.61 L2818.16 1602.61 L2818.16 1603.11 L2834.99 1603.11 L2834.99 1602.86 L2851.82 1602.86 L2851.82 1603.60 L2868.77 1603.60 L2868.77 1603.11 L2885.60 1603.11 L2885.60 1602.86 L2902.43 1602.86 L2902.43 1602.49 L2919.26 1602.49 L2919.26 1601.87 L2936.09 1601.87 L2936.09 1601.38 L2953.05 1601.38 L2953.05 1601.99 L2969.88 1601.99 L2969.88 1602.12 L2986.71 1602.12 L2986.71 1602.12 L3003.54 1602.12 L3003.54 1602.37 L3020.37 1602.37 L3020.37 1602.86 L3037.32 1602.86 L3037.32 1602.37 L3054.15 1602.37 L3054.15 1602.24 L3070.98 1602.24 L3070.98 1602.98 L3087.81 1602.98 L3087.81 1602.61 L3104.64 1602.61 L3104.64 1602.61 L3121.59 1602.61 L3121.59 1604.10 L3138.42 1604.10 L3138.42 1603.60 L3155.25 1603.60 L3155.25 1603.97 L3172.08 1603.97 L3172.08 1603.97 L3188.91 1603.97 L3188.91 1604.10 L3205.87 1604.10 L3205.87 1603.73 L3222.70 1603.73 L3222.70 1602.61 L3239.53 1602.61 L3239.53 1604.84 L3256.36 1604.84 L3256.36 1606.20 L3273.19 1606.20 L3273.19 1605.83 L3290.14 1605.83 L3290.14 1604.59 L3306.97 1604.59 L3306.97 1605.34 L3323.80 1605.34 L3323.80 1605.21 L3340.63 1605.21 L3340.63 1606.94 L3357.46 1606.94 L3357.46 1606.57 L3374.41 1606.57 L3374.41 1607.32 L3391.24 1607.32 L3391.24 1606.45 L3408.07 1606.45 L3408.07 1605.83 L3424.91 1605.83 L3424.91 1606.94 L3441.74 1606.94 L3441.74 1606.94 L3458.69 1606.94 L3458.69 1606.82 L3475.52 1606.82 L3475.52 1608.80 L3492.35 1608.80 L3492.35 1610.29 L3509.18 1610.29 L3509.18 1610.16 L3526.01 1610.16 L3526.01 1610.41 L3542.96 1610.41 L3542.96 1610.16 L3559.79 1610.16 L3559.79 1609.67 L3576.62 1609.67 L3576.62 1609.67 L3593.45 1609.67 L3593.45 1610.29 L3610.28 1610.29 L3610.28 1610.78 L3627.24 1610.78 L3627.24 1610.53 L3644.07 1610.53 L3644.07 1610.16 L3660.90 1610.16 L3660.90 1610.29 L3677.73 1610.29 L3677.73 1609.91 L3694.56 1609.91 L3694.56 1610.29 L3711.51 1610.29 L3711.51 1610.53 L3728.34 1610.53 L3728.34 1610.29 L3745.17 1610.29 L3745.17 1609.79 L3762.00 1609.79 L3762.00 1608.06 L3778.83 1608.06 L3778.83 1608.31 L3795.66 1608.31 L3795.66 1610.16 L3795.66 1439.63 L3795.66 1438.02 L3778.83 1438.02 L3778.83 1437.90 L3762.00 1437.90 L3762.00 1439.88 L3745.17 1439.88 L3745.17 1440.50 L3728.34 1440.50 L3728.34 1441.11 L3711.51 1441.11 L3711.51 1441.11 L3694.56 1441.11 L3694.56 1440.99 L3677.73 1440.99 L3677.73 1441.36 L3660.90 1441.36 L3660.90 1441.49 L3644.07 1441.49 L3644.07 1442.10 L3627.24 1442.10 L3627.24 1442.72 L3610.28 1442.72 L3610.28 1442.60 L3593.45 1442.60 L3593.45 1442.10 L3576.62 1442.10 L3576.62 1442.48 L3559.79 1442.48 L3559.79 1443.34 L3542.96 1443.34 L3542.96 1443.71 L3526.01 1443.71 L3526.01 1443.84 L3509.18 1443.84 L3509.18 1444.33 L3492.35 1444.33 L3492.35 1442.97 L3475.52 1442.97 L3475.52 1441.36 L3458.69 1441.36 L3458.69 1441.61 L3441.74 1441.61 L3441.74 1441.86 L3424.91 1441.86 L3424.91 1441.24 L3408.07 1441.24 L3408.07 1442.23 L3391.24 1442.23 L3391.24 1443.22 L3374.41 1443.22 L3374.41 1442.60 L3357.46 1442.60 L3357.46 1443.34 L3340.63 1443.34 L3340.63 1441.73 L3323.80 1441.73 L3323.80 1442.10 L3306.97 1442.10 L3306.97 1441.61 L3290.14 1441.61 L3290.14 1443.34 L3273.19 1443.34 L3273.19 1443.96 L3256.36 1443.96 L3256.36 1442.85 L3239.53 1442.85 L3239.53 1440.87 L3222.70 1440.87 L3222.70 1442.23 L3205.87 1442.23 L3205.87 1442.97 L3188.91 1442.97 L3188.91 1442.72 L3172.08 1442.72 L3172.08 1443.09 L3155.25 1443.09 L3155.25 1442.97 L3138.42 1442.97 L3138.42 1443.71 L3121.59 1443.71 L3121.59 1442.60 L3104.64 1442.60 L3104.64 1442.85 L3087.81 1442.85 L3087.81 1443.59 L3070.98 1443.59 L3070.98 1443.09 L3054.15 1443.09 L3054.15 1443.59 L3037.32 1443.59 L3037.32 1444.46 L3020.37 1444.46 L3020.37 1444.08 L3003.54 1444.08 L3003.54 1444.21 L2986.71 1444.21 L2986.71 1444.46 L2969.88 1444.46 L2969.88 1444.70 L2953.05 1444.70 L2953.05 1444.46 L2936.09 1444.46 L2936.09 1445.32 L2919.26 1445.32 L2919.26 1446.06 L2902.43 1446.06 L2902.43 1446.93 L2885.60 1446.93 L2885.60 1447.30 L2868.77 1447.30 L2868.77 1448.04 L2851.82 1448.04 L2851.82 1447.67 L2834.99 1447.67 L2834.99 1448.17 L2818.16 1448.17 L2818.16 1448.04 L2801.33 1448.04 L2801.33 1447.92 L2784.50 1447.92 L2784.50 1448.54 L2767.55 1448.54 L2767.55 1447.92 L2750.72 1447.92 L2750.72 1450.52 L2733.89 1450.52 L2733.89 1451.39 L2717.05 1451.39 L2717.05 1451.63 L2700.22 1451.63 L2700.22 1452.99 L2683.27 1452.99 L2683.27 1454.48 L2666.44 1454.48 L2666.44 1452.99 L2649.61 1452.99 L2649.61 1452.99 L2632.78 1452.99 L2632.78 1453.86 L2615.95 1453.86 L2615.95 1454.60 L2599.00 1454.60 L2599.00 1453.74 L2582.17 1453.74 L2582.17 1452.87 L2565.34 1452.87 L2565.34 1452.38 L2548.51 1452.38 L2548.51 1453.74 L2531.68 1453.74 L2531.68 1453.74 L2514.85 1453.74 L2514.85 1453.61 L2497.89 1453.61 L2497.89 1454.36 L2481.06 1454.36 L2481.06 1454.73 L2464.23 1454.73 L2464.23 1454.85 L2447.40 1454.85 L2447.40 1455.96 L2430.57 1455.96 L2430.57 1455.10 L2413.62 1455.10 L2413.62 1455.47 L2396.79 1455.47 L2396.79 1454.85 L2379.96 1454.85 L2379.96 1454.11 L2363.13 1454.11 L2363.13 1457.08 L2346.30 1457.08 L2346.30 1457.57 L2329.35 1457.57 L2329.35 1456.09 L2312.52 1456.09 L2312.52 1455.96 L2295.69 1455.96 L2295.69 1456.71 L2278.86 1456.71 L2278.86 1455.35 L2262.03 1455.35 L2262.03 1456.09 L2245.07 1456.09 L2245.07 1455.10 L2228.24 1455.10 L2228.24 1456.34 L2211.41 1456.34 L2211.41 1456.46 L2194.58 1456.46 L2194.58 1456.71 L2177.75 1456.71 L2177.75 1455.84 L2160.80 1455.84 L2160.80 1457.20 L2143.97 1457.20 L2143.97 1457.94 L2127.14 1457.94 L2127.14 1457.33 L2110.31 1457.33 L2110.31 1457.94 L2093.48 1457.94 L2093.48 1457.08 L2076.53 1457.08 L2076.53 1457.08 L2059.70 1457.08 L2059.70 1456.09 L2042.87 1456.09 L2042.87 1457.45 L2026.04 1457.45 L2026.04 1457.70 L2009.20 1457.70 L2009.20 1456.95 L1992.25 1456.95 L1992.25 1455.35 L1975.42 1455.35 L1975.42 1453.98 L1958.59 1453.98 L1958.59 1453.86 L1941.76 1453.86 L1941.76 1453.61 L1924.93 1453.61 L1924.93 1451.51 L1907.98 1451.51 L1907.98 1450.40 L1891.15 1450.40 L1891.15 1450.64 L1874.32 1450.64 L1874.32 1450.89 L1857.49 1450.89 L1857.49 1451.01 L1840.66 1451.01 L1840.66 1450.52 L1823.70 1450.52 L1823.70 1450.52 L1806.87 1450.52 L1806.87 1450.64 L1790.04 1450.64 L1790.04 1452.00 L1773.21 1452.00 L1773.21 1453.24 L1756.38 1453.24 L1756.38 1452.25 L1739.43 1452.25 L1739.43 1451.14 L1722.60 1451.14 L1722.60 1451.88 L1705.77 1451.88 L1705.77 1451.14 L1688.94 1451.14 L1688.94 1450.64 L1672.11 1450.64 L1672.11 1449.90 L1655.16 1449.90 L1655.16 1449.90 L1638.33 1449.90 L1638.33 1447.18 L1621.50 1447.18 L1621.50 1446.81 L1604.67 1446.81 L1604.67 1446.56 L1587.84 1446.56 L1587.84 1447.80 L1570.88 1447.80 L1570.88 1446.93 L1554.05 1446.93 L1554.05 1446.81 L1537.22 1446.81 L1537.22 1446.19 L1520.39 1446.19 L1520.39 1447.18 L1503.56 1447.18 L1503.56 1447.30 L1486.61 1447.30 L1486.61 1446.81 L1469.78 1446.81 L1469.78 1447.80 L1452.95 1447.80 L1452.95 1445.57 L1436.12 1445.57 L1436.12 1446.06 L1419.29 1446.06 L1419.29 1444.95 L1402.34 1444.95 L1402.34 1444.21 L1385.51 1444.21 L1385.51 1444.70 L1368.67 1444.70 L1368.67 1444.58 L1351.85 1444.58 L1351.85 1446.19 L1335.02 1446.19 L1335.02 1446.06 L1318.18 1446.06 L1318.18 1443.96 L1301.23 1443.96 L1301.23 1445.32 L1284.40 1445.32 L1284.40 1445.69 L1267.57 1445.69 L1267.57 1445.82 L1250.74 1445.82 L1250.74 1446.44 L1233.91 1446.44 L1233.91 1445.57 L1216.96 1445.57 L1216.96 1444.46 L1200.13 1444.46 L1200.13 1444.83 L1183.30 1444.83 L1183.30 1444.70 L1166.47 1444.70 L1166.47 1444.21 L1149.64 1444.21 L1149.64 1445.45 L1132.68 1445.45 L1132.68 1446.19 L1115.85 1446.19 L1115.85 1444.83 L1099.02 1444.83 L1099.02 1447.30 L1082.19 1447.30 L1082.19 1448.42 L1065.36 1448.42 L1065.36 1449.41 L1048.41 1449.41 L1048.41 1452.50 L1031.58 1452.50 L1031.58 1453.61 L1014.75 1453.61 L1014.75 1453.49 L997.92 1453.49 L997.92 1455.47 L981.09 1455.47 L981.09 1454.11 L964.14 1454.11 L964.14 1455.35 L947.31 1455.35 L947.31 1457.45 L930.48 1457.45 L930.48 1458.69 L913.65 1458.69 L913.65 1459.18 L896.82 1459.18 L896.82 1459.06 L879.86 1459.06 L879.86 1459.06 L863.03 1459.06 L863.03 1459.31 L846.20 1459.31 L846.20 1461.66 L829.37 1461.66 L829.37 1460.54 L812.54 1460.54 L812.54 1461.41 L795.59 1461.41 L795.59 1461.90 L778.76 1461.90 L778.76 1498.04 Z" stroke-linejoin="round"/>
	</defs>
	<defs>
		<clipPath id="clipPath_kLVxNxKk">
			<use xlink:href="#path_qaAgvZtB"/>
		</clipPath>
	</defs>
	<use xlink:href="#path_qaAgvZtB" style="stroke:none;fill:#999999;fill-opacity:0.65"/>
	<use xlink:href="#path_qaAgvZtB" style="fill:none;stroke:#808080;stroke-opacity:0.65;stroke-width:17.28" clip-path="url(#clipPath_kLVxNxKk)"/>
	<path d=" M778.76 1480.10 L795.59 1480.10 L795.59 1482.20 L812.42 1482.20 L812.42 1484.06 L829.25 1484.06 L829.25 1487.52 L846.08 1487.52 L846.08 1487.52 L863.03 1487.52 L863.03 1489.50 L879.86 1489.50 L879.86 1491.48 L896.69 1491.48 L896.69 1493.46 L913.52 1493.46 L913.52 1494.82 L930.35 1494.82 L930.35 1495.19 L947.31 1495.19 L947.31 1494.58 L964.14 1494.58 L964.14 1494.95 L980.97 1494.95 L980.97 1497.92 L997.80 1497.92 L997.80 1497.42 L1014.63 1497.42 L1014.63 1498.78 L1031.58 1498.78 L1031.58 1498.78 L1048.41 1498.78 L1048.41 1496.93 L1065.24 1496.93 L1065.24 1497.05 L1082.07 1497.05 L1082.07 1496.93 L1098.90 1496.93 L1098.90 1495.57 L1115.85 1495.57 L1115.85 1497.79 L1132.68 1497.79 L1132.68 1498.04 L1149.51 1498.04 L1149.51 1497.55 L1166.34 1497.55 L1166.34 1498.91 L1183.17 1498.91 L1183.17 1499.90 L1200.13 1499.90 L1200.13 1500.14 L1216.96 1500.14 L1216.96 1501.88 L1233.79 1501.88 L1233.79 1503.36 L1250.62 1503.36 L1250.62 1503.36 L1267.45 1503.36 L1267.45 1503.86 L1284.40 1503.86 L1284.40 1503.98 L1301.23 1503.98 L1301.23 1503.11 L1318.06 1503.11 L1318.06 1505.59 L1334.89 1505.59 L1334.89 1506.21 L1351.72 1506.21 L1351.72 1505.09 L1368.67 1505.09 L1368.67 1505.71 L1385.51 1505.71 L1385.51 1505.59 L1402.34 1505.59 L1402.34 1506.83 L1419.16 1506.83 L1419.16 1508.19 L1435.99 1508.19 L1435.99 1507.94 L1452.95 1507.94 L1452.95 1510.54 L1469.78 1510.54 L1469.78 1509.92 L1486.61 1509.92 L1486.61 1510.66 L1503.44 1510.66 L1503.44 1511.03 L1520.27 1511.03 L1520.27 1510.29 L1537.22 1510.29 L1537.22 1511.41 L1554.05 1511.41 L1554.05 1511.65 L1570.88 1511.65 L1570.88 1512.89 L1587.71 1512.89 L1587.71 1512.15 L1604.54 1512.15 L1604.54 1512.64 L1621.50 1512.64 L1621.50 1513.51 L1638.33 1513.51 L1638.33 1516.36 L1655.16 1516.36 L1655.16 1516.60 L1671.99 1516.60 L1671.99 1517.59 L1688.82 1517.59 L1688.82 1518.21 L1705.77 1518.21 L1705.77 1519.08 L1722.60 1519.08 L1722.60 1518.58 L1739.43 1518.58 L1739.43 1519.82 L1756.26 1519.82 L1756.26 1521.06 L1773.09 1521.06 L1773.09 1519.94 L1790.04 1519.94 L1790.04 1518.83 L1806.87 1518.83 L1806.87 1518.95 L1823.70 1518.95 L1823.70 1519.20 L1840.53 1519.20 L1840.53 1519.94 L1857.36 1519.94 L1857.36 1520.07 L1874.32 1520.07 L1874.32 1519.94 L1891.15 1519.94 L1891.15 1519.94 L1907.98 1519.94 L1907.98 1521.06 L1924.81 1521.06 L1924.81 1523.41 L1941.64 1523.41 L1941.64 1523.91 L1958.59 1523.91 L1958.59 1524.28 L1975.42 1524.28 L1975.42 1525.76 L1992.25 1525.76 L1992.25 1527.37 L2009.08 1527.37 L2009.08 1528.36 L2025.91 1528.36 L2025.91 1528.24 L2042.74 1528.24 L2042.74 1526.88 L2059.70 1526.88 L2059.70 1527.99 L2076.53 1527.99 L2076.53 1527.99 L2093.36 1527.99 L2093.36 1529.23 L2110.18 1529.23 L2110.18 1528.61 L2127.01 1528.61 L2127.01 1529.47 L2143.97 1529.47 L2143.97 1528.98 L2160.80 1528.98 L2160.80 1527.74 L2177.63 1527.74 L2177.63 1528.61 L2194.46 1528.61 L2194.46 1528.48 L2211.29 1528.48 L2211.29 1528.48 L2228.24 1528.48 L2228.24 1527.25 L2245.07 1527.25 L2245.07 1528.36 L2261.90 1528.36 L2261.90 1527.87 L2278.73 1527.87 L2278.73 1529.35 L2295.56 1529.35 L2295.56 1528.73 L2312.52 1528.73 L2312.52 1528.98 L2329.35 1528.98 L2329.35 1530.59 L2346.18 1530.59 L2346.18 1530.09 L2363.01 1530.09 L2363.01 1527.62 L2379.84 1527.62 L2379.84 1528.48 L2396.79 1528.48 L2396.79 1529.23 L2413.62 1529.23 L2413.62 1528.98 L2430.45 1528.98 L2430.45 1529.97 L2447.28 1529.97 L2447.28 1529.10 L2464.11 1529.10 L2464.11 1529.10 L2481.06 1529.10 L2481.06 1528.98 L2497.89 1528.98 L2497.89 1528.48 L2514.72 1528.48 L2514.72 1528.61 L2531.55 1528.61 L2531.55 1528.61 L2548.38 1528.61 L2548.38 1527.62 L2565.34 1527.62 L2565.34 1528.11 L2582.17 1528.11 L2582.17 1529.10 L2599.00 1529.10 L2599.00 1530.22 L2615.83 1530.22 L2615.83 1529.47 L2632.66 1529.47 L2632.66 1528.86 L2649.61 1528.86 L2649.61 1528.98 L2666.44 1528.98 L2666.44 1530.59 L2683.27 1530.59 L2683.27 1529.10 L2700.10 1529.10 L2700.10 1527.99 L2716.93 1527.99 L2716.93 1527.87 L2733.89 1527.87 L2733.89 1527.25 L2750.72 1527.25 L2750.72 1524.77 L2767.55 1524.77 L2767.55 1525.51 L2784.38 1525.51 L2784.38 1525.02 L2801.20 1525.02 L2801.20 1525.39 L2818.16 1525.39 L2818.16 1525.76 L2834.99 1525.76 L2834.99 1525.27 L2851.82 1525.27 L2851.82 1525.89 L2868.65 1525.89 L2868.65 1525.27 L2885.48 1525.27 L2885.48 1525.02 L2902.43 1525.02 L2902.43 1524.40 L2919.26 1524.40 L2919.26 1523.66 L2936.09 1523.66 L2936.09 1523.04 L2952.92 1523.04 L2952.92 1523.41 L2969.75 1523.41 L2969.75 1523.41 L2986.71 1523.41 L2986.71 1523.29 L3003.54 1523.29 L3003.54 1523.29 L3020.37 1523.29 L3020.37 1523.78 L3037.20 1523.78 L3037.20 1523.04 L3054.03 1523.04 L3054.03 1522.79 L3070.98 1522.79 L3070.98 1523.41 L3087.81 1523.41 L3087.81 1522.79 L3104.64 1522.79 L3104.64 1522.67 L3121.47 1522.67 L3121.47 1524.03 L3138.30 1524.03 L3138.30 1523.41 L3155.13 1523.41 L3155.13 1523.53 L3172.08 1523.53 L3172.08 1523.41 L3188.91 1523.41 L3188.91 1523.66 L3205.74 1523.66 L3205.74 1523.04 L3222.57 1523.04 L3222.57 1521.80 L3239.40 1521.80 L3239.40 1523.91 L3256.36 1523.91 L3256.36 1525.14 L3273.19 1525.14 L3273.19 1524.65 L3290.02 1524.65 L3290.02 1523.16 L3306.85 1523.16 L3306.85 1523.78 L3323.68 1523.78 L3323.68 1523.53 L3340.63 1523.53 L3340.63 1525.27 L3357.46 1525.27 L3357.46 1524.65 L3374.29 1524.65 L3374.29 1525.39 L3391.12 1525.39 L3391.12 1524.40 L3407.95 1524.40 L3407.95 1523.66 L3424.91 1523.66 L3424.91 1524.52 L3441.74 1524.52 L3441.74 1524.40 L3458.57 1524.40 L3458.57 1524.15 L3475.39 1524.15 L3475.39 1526.01 L3492.22 1526.01 L3492.22 1527.37 L3509.18 1527.37 L3509.18 1527.12 L3526.01 1527.12 L3526.01 1527.12 L3542.84 1527.12 L3542.84 1526.88 L3559.67 1526.88 L3559.67 1526.13 L3576.50 1526.13 L3576.50 1526.01 L3593.45 1526.01 L3593.45 1526.50 L3610.28 1526.50 L3610.28 1526.88 L3627.11 1526.88 L3627.11 1526.50 L3643.94 1526.50 L3643.94 1525.89 L3660.77 1525.89 L3660.77 1525.89 L3677.73 1525.89 L3677.73 1525.51 L3694.56 1525.51 L3694.56 1525.76 L3711.39 1525.76 L3711.39 1525.89 L3728.22 1525.89 L3728.22 1525.51 L3745.05 1525.51 L3745.05 1525.02 L3762.00 1525.02 L3762.00 1523.04 L3778.83 1523.04 L3778.83 1523.16 L3795.66 1523.16 L3795.66 1525.02" stroke-linejoin="round" style="fill:none;stroke:#000000;stroke-width:8.64"/>
	<line x1="559.10" y1="2509.23" x2="559.10" y2="419.90" style="stroke:#000000;stroke-width:5.76"/>
	<line x1="559.10" y1="2445.87" x2="519.13" y2="2445.87" style="stroke:#000000;stroke-width:5.76"/>
	<text x="499.08" y="2480.90" style="font-family:'Helvetica';font-size:99.99px;fill:#000000" text-anchor="end">-0.25</text>
	<line x1="559.10" y1="2249.60" x2="519.13" y2="2249.60" style="stroke:#000000;stroke-width:5.76"/>
	<text x="499.08" y="2284.63" style="font-family:'Helvetica';font-size:99.99px;fill:#000000" text-anchor="end">-0.20</text>
	<line x1="559.10" y1="2053.32" x2="519.13" y2="2053.32" style="stroke:#000000;stroke-width:5.76"/>
	<text x="499.08" y="2088.35" style="font-family:'Helvetica';font-size:99.99px;fill:#000000" text-anchor="end">-0.15</text>
	<line x1="559.10" y1="1857.05" x2="519.13" y2="1857.05" style="stroke:#000000;stroke-width:5.76"/>
	<text x="499.08" y="1892.08" style="font-family:'Helvetica';font-size:99.99px;fill:#000000" text-anchor="end">-0.10</text>
	<line x1="559.10" y1="1660.78" x2="519.13" y2="1660.78" style="stroke:#000000;stroke-width:5.76"/>
	<text x="499.08" y="1695.81" style="font-family:'Helvetica';font-size:99.99px;fill:#000000" text-anchor="end">-0.05</text>
	<line x1="559.10" y1="1464.63" x2="519.13" y2="1464.63" style="stroke:#000000;stroke-width:5.76"/>
	<text x="499.08" y="1499.66" style="font-family:'Helvetica';font-size:99.99px;fill:#000000" text-anchor="end">0.00</text>
	<line x1="559.10" y1="1268.35" x2="519.13" y2="1268.35" style="stroke:#000000;stroke-width:5.76"/>
	<text x="499.08" y="1303.38" style="font-family:'Helvetica';font-size:99.99px;fill:#000000" text-anchor="end">0.05</text>
	<line x1="559.10" y1="1072.08" x2="519.13" y2="1072.08" style="stroke:#000000;stroke-width:5.76"/>
	<text x="499.08" y="1107.11" style="font-family:'Helvetica';font-size:99.99px;fill:#000000" text-anchor="end">0.10</text>
	<line x1="559.10" y1="875.81" x2="519.13" y2="875.81" style="stroke:#000000;stroke-width:5.76"/>
	<text x="499.08" y="910.83" style="font-family:'Helvetica';font-size:99.99px;fill:#000000" text-anchor="end">0.15</text>
	<line x1="559.10" y1="679.53" x2="519.13" y2="679.53" style="stroke:#000000;stroke-width:5.76"/>
	<text x="499.08" y="714.56" style="font-family:'Helvetica';font-size:99.99px;fill:#000000" text-anchor="end">0.20</text>
	<line x1="559.10" y1="483.26" x2="519.13" y2="483.26" style="stroke:#000000;stroke-width:5.76"/>
	<text x="499.08" y="518.29" style="font-family:'Helvetica';font-size:99.99px;fill:#000000" text-anchor="end">0.25</text>
	<text x="190.71" y="1464.63" style="font-family:'Helvetica';font-size:99.99px;fill:#000000" transform="rotate(-90 190.71,1464.63)" text-anchor="middle">Difference in Probabilities</text>
	<line x1="559.10" y1="2509.23" x2="3859.02" y2="2509.23" style="stroke:#000000;stroke-width:5.76"/>
	<line x1="622.46" y1="2509.23" x2="622.46" y2="2549.21" style="stroke:#000000;stroke-width:5.76"/>
	<text x="622.46" y="2625.15" style="font-family:'Helvetica';font-size:79.94px;fill:#000000" text-anchor="middle">0</text>
	<line x1="812.79" y1="2509.23" x2="812.79" y2="2549.21" style="stroke:#000000;stroke-width:5.76"/>
	<text x="812.79" y="2625.15" style="font-family:'Helvetica';font-size:79.94px;fill:#000000" text-anchor="middle">.3</text>
	<line x1="1003.12" y1="2509.23" x2="1003.12" y2="2549.21" style="stroke:#000000;stroke-width:5.76"/>
	<text x="1003.12" y="2625.15" style="font-family:'Helvetica';font-size:79.94px;fill:#000000" text-anchor="middle">.6</text>
	<line x1="1193.44" y1="2509.23" x2="1193.44" y2="2549.21" style="stroke:#000000;stroke-width:5.76"/>
	<text x="1193.44" y="2625.15" style="font-family:'Helvetica';font-size:79.94px;fill:#000000" text-anchor="middle">.9</text>
	<line x1="1383.77" y1="2509.23" x2="1383.77" y2="2549.21" style="stroke:#000000;stroke-width:5.76"/>
	<text x="1383.77" y="2625.15" style="font-family:'Helvetica';font-size:79.94px;fill:#000000" text-anchor="middle">1.2</text>
	<line x1="1574.10" y1="2509.23" x2="1574.10" y2="2549.21" style="stroke:#000000;stroke-width:5.76"/>
	<text x="1574.10" y="2625.15" style="font-family:'Helvetica';font-size:79.94px;fill:#000000" text-anchor="middle">1.5</text>
	<line x1="1764.43" y1="2509.23" x2="1764.43" y2="2549.21" style="stroke:#000000;stroke-width:5.76"/>
	<text x="1764.43" y="2625.15" style="font-family:'Helvetica';font-size:79.94px;fill:#000000" text-anchor="middle">1.8</text>
	<line x1="1954.63" y1="2509.23" x2="1954.63" y2="2549.21" style="stroke:#000000;stroke-width:5.76"/>
	<text x="1954.63" y="2625.15" style="font-family:'Helvetica';font-size:79.94px;fill:#000000" text-anchor="middle">2.1</text>
	<line x1="2144.96" y1="2509.23" x2="2144.96" y2="2549.21" style="stroke:#000000;stroke-width:5.76"/>
	<text x="2144.96" y="2625.15" style="font-family:'Helvetica';font-size:79.94px;fill:#000000" text-anchor="middle">2.4</text>
	<line x1="2335.29" y1="2509.23" x2="2335.29" y2="2549.21" style="stroke:#000000;stroke-width:5.76"/>
	<text x="2335.29" y="2625.15" style="font-family:'Helvetica';font-size:79.94px;fill:#000000" text-anchor="middle">2.7</text>
	<line x1="2525.61" y1="2509.23" x2="2525.61" y2="2549.21" style="stroke:#000000;stroke-width:5.76"/>
	<text x="2525.61" y="2625.15" style="font-family:'Helvetica';font-size:79.94px;fill:#000000" text-anchor="middle">3</text>
	<line x1="2715.94" y1="2509.23" x2="2715.94" y2="2549.21" style="stroke:#000000;stroke-width:5.76"/>
	<text x="2715.94" y="2625.15" style="font-family:'Helvetica';font-size:79.94px;fill:#000000" text-anchor="middle">3.3</text>
	<line x1="2906.27" y1="2509.23" x2="2906.27" y2="2549.21" style="stroke:#000000;stroke-width:5.76"/>
	<text x="2906.27" y="2625.15" style="font-family:'Helvetica';font-size:79.94px;fill:#000000" text-anchor="middle">3.6</text>
	<line x1="3096.60" y1="2509.23" x2="3096.60" y2="2549.21" style="stroke:#000000;stroke-width:5.76"/>
	<text x="3096.60" y="2625.15" style="font-family:'Helvetica';font-size:79.94px;fill:#000000" text-anchor="middle">3.9</text>
	<line x1="3286.92" y1="2509.23" x2="3286.92" y2="2549.21" style="stroke:#000000;stroke-width:5.76"/>
	<text x="3286.92" y="2625.15" style="font-family:'Helvetica';font-size:79.94px;fill:#000000" text-anchor="middle">4.2</text>
	<line x1="3477.25" y1="2509.23" x2="3477.25" y2="2549.21" style="stroke:#000000;stroke-width:5.76"/>
	<text x="3477.25" y="2625.15" style="font-family:'Helvetica';font-size:79.94px;fill:#000000" text-anchor="middle">4.5</text>
	<line x1="3667.58" y1="2509.23" x2="3667.58" y2="2549.21" style="stroke:#000000;stroke-width:5.76"/>
	<text x="3667.58" y="2625.15" style="font-family:'Helvetica';font-size:79.94px;fill:#000000" text-anchor="middle">4.8</text>
	<line x1="3857.91" y1="2509.23" x2="3857.91" y2="2549.21" style="stroke:#000000;stroke-width:5.76"/>
	<text x="3857.91" y="2625.15" style="font-family:'Helvetica';font-size:79.94px;fill:#000000" text-anchor="middle">5.1</text>
	<text x="2209.06" y="2729.16" style="font-family:'Helvetica';font-size:99.99px;fill:#000000" text-anchor="middle">Time (years)</text>
	<rect x="593.63" y="454.42" width="993.34" height="326.46" style="fill:#FFFFFF"/>
	<rect x="596.51" y="457.30" width="987.58" height="320.70" style="fill:none;stroke:#000000;stroke-width:5.76"/>
	<rect x="636.82" y="497.74" width="374.47" height="99.99" style="fill:#999999;fill-opacity:0.65"/>
	<rect x="641.14" y="502.06" width="365.83" height="91.35" style="fill:none;stroke:#808080;stroke-opacity:0.65;stroke-width:8.64"/>
	<line x1="636.82" y1="687.70" x2="1011.28" y2="687.70" style="stroke:#000000;stroke-width:8.64"/>
	<text x="1071.30" y="582.76" style="font-family:'Helvetica';font-size:99.99px;fill:#000000">CI95%</text>
	<text x="1071.30" y="722.73" style="font-family:'Helvetica';font-size:99.99px;fill:#000000">Difference</text>
	<text x="2209.06" y="369.63" style="font-family:'Helvetica';font-size:110.01px;fill:#000000" text-anchor="middle">from Readmission to 2nd Readmission</text>
	<text x="2209.06" y="215.98" style="font-family:'Helvetica';font-size:139.96px;fill:#1E2D53" text-anchor="middle">Difference in Probabilities</text>
</svg>
