<?xml version="1.0" encoding="UTF-8" standalone="no"?>
<!-- This is a Stata 16.1 generated SVG file (http://www.stata.com) -->

<svg version="1.1" width="5.50in" height="4.00in" viewBox="0 0 3960 2880" xmlns="http://www.w3.org/2000/svg" xmlns:xlink="http://www.w3.org/1999/xlink">
	<desc>Stata Graph - fdiff_prob_3_4_3y_tcnc</desc>
	<rect x="0" y="0" width="3960" height="2880" style="fill:#EAF2F3;stroke:none"/>
	<rect x="0.00" y="0.00" width="3959.88" height="2880.00" style="fill:#FFFFFF"/>
	<rect x="2.88" y="2.88" width="3954.12" height="2874.24" style="fill:none;stroke:#FFFFFF;stroke-width:5.76"/>
	<rect x="388.57" y="419.90" width="3470.45" height="2089.34" style="fill:#FFFFFF"/>
	<rect x="391.45" y="422.78" width="3464.69" height="2083.58" style="fill:none;stroke:#FFFFFF;stroke-width:5.76"/>
	<line x1="388.57" y1="2322.49" x2="3859.02" y2="2322.49" style="stroke:#EAF2F3;stroke-width:8.64"/>
	<line x1="388.57" y1="1954.69" x2="3859.02" y2="1954.69" style="stroke:#EAF2F3;stroke-width:8.64"/>
	<line x1="388.57" y1="1586.77" x2="3859.02" y2="1586.77" style="stroke:#EAF2F3;stroke-width:8.64"/>
	<line x1="388.57" y1="1218.98" x2="3859.02" y2="1218.98" style="stroke:#EAF2F3;stroke-width:8.64"/>
	<line x1="388.57" y1="851.18" x2="3859.02" y2="851.18" style="stroke:#EAF2F3;stroke-width:8.64"/>
	<line x1="388.57" y1="483.26" x2="3859.02" y2="483.26" style="stroke:#EAF2F3;stroke-width:8.64"/>
	<defs>
		<path id="path_DcaVhzgj" d="M616.77 1791.96 L616.77 1791.96 L634.47 1791.96 L634.47 1822.40 L652.29 1822.40 L652.29 1850.12 L669.98 1850.12 L669.98 1874.62 L687.80 1874.62 L687.80 1896.53 L705.50 1896.53 L705.50 1920.54 L723.32 1920.54 L723.32 1933.16 L741.01 1933.16 L741.01 1953.21 L758.84 1953.21 L758.84 1972.64 L776.53 1972.64 L776.53 1999.99 L794.35 1999.99 L794.35 2018.80 L812.05 2018.80 L812.05 2027.58 L829.87 2027.58 L829.87 2040.45 L847.56 2040.45 L847.56 2064.09 L865.26 2064.09 L865.26 2075.23 L883.08 2075.23 L883.08 2087.36 L900.78 2087.36 L900.78 2109.26 L918.60 2109.26 L918.60 2113.72 L936.29 2113.72 L936.29 2123.62 L954.11 2123.62 L954.11 2132.90 L971.81 2132.90 L971.81 2142.06 L989.63 2142.06 L989.63 2151.09 L1007.33 2151.09 L1007.33 2160.62 L1025.14 2160.62 L1025.14 2177.33 L1042.84 2177.33 L1042.84 2191.31 L1060.66 2191.31 L1060.66 2198.36 L1078.36 2198.36 L1078.36 2212.60 L1096.18 2212.60 L1096.18 2216.80 L1113.87 2216.80 L1113.87 2223.24 L1131.69 2223.24 L1131.69 2236.36 L1149.39 2236.36 L1149.39 2242.30 L1167.21 2242.30 L1167.21 2253.93 L1184.91 2253.93 L1184.91 2258.51 L1202.73 2258.51 L1202.73 2259.50 L1220.42 2259.50 L1220.42 2267.54 L1238.24 2267.54 L1238.24 2273.85 L1255.94 2273.85 L1255.94 2276.20 L1273.76 2276.20 L1273.76 2287.34 L1291.45 2287.34 L1291.45 2295.76 L1309.28 2295.76 L1309.28 2304.92 L1326.97 2304.92 L1326.97 2305.91 L1344.79 2305.91 L1344.79 2303.68 L1362.49 2303.68 L1362.49 2312.96 L1380.31 2312.96 L1380.31 2316.30 L1398.00 2316.30 L1398.00 2318.90 L1415.82 2318.90 L1415.82 2319.15 L1433.52 2319.15 L1433.52 2318.90 L1451.34 2318.90 L1451.34 2329.05 L1469.04 2329.05 L1469.04 2334.99 L1486.86 2334.99 L1486.86 2338.45 L1504.55 2338.45 L1504.55 2335.85 L1522.37 2335.85 L1522.37 2347.73 L1540.07 2347.73 L1540.07 2347.36 L1557.89 2347.36 L1557.89 2355.41 L1575.59 2355.41 L1575.59 2357.39 L1593.40 2357.39 L1593.40 2353.30 L1611.10 2353.30 L1611.10 2358.13 L1628.92 2358.13 L1628.92 2356.27 L1646.62 2356.27 L1646.62 2354.91 L1664.44 2354.91 L1664.44 2353.55 L1682.13 2353.55 L1682.13 2349.34 L1699.95 2349.34 L1699.95 2348.97 L1717.65 2348.97 L1717.65 2344.52 L1735.47 2344.52 L1735.47 2344.15 L1753.17 2344.15 L1753.17 2341.42 L1770.99 2341.42 L1770.99 2347.49 L1788.68 2347.49 L1788.68 2351.20 L1806.50 2351.20 L1806.50 2355.41 L1824.20 2355.41 L1824.20 2355.53 L1842.02 2355.53 L1842.02 2358.13 L1859.71 2358.13 L1859.71 2362.96 L1877.54 2362.96 L1877.54 2362.71 L1895.23 2362.71 L1895.23 2370.38 L1913.05 2370.38 L1913.05 2370.13 L1930.75 2370.13 L1930.75 2376.94 L1948.57 2376.94 L1948.57 2371.00 L1966.26 2371.00 L1966.26 2375.83 L1984.08 2375.83 L1984.08 2373.10 L2001.78 2373.10 L2001.78 2376.32 L2019.60 2376.32 L2019.60 2373.48 L2037.30 2373.48 L2037.30 2379.91 L2055.12 2379.91 L2055.12 2378.43 L2072.81 2378.43 L2072.81 2379.66 L2090.51 2379.66 L2090.51 2380.78 L2108.33 2380.78 L2108.33 2376.45 L2126.03 2376.45 L2126.03 2376.07 L2143.84 2376.07 L2143.84 2376.57 L2161.54 2376.57 L2161.54 2372.36 L2179.36 2372.36 L2179.36 2370.26 L2197.06 2370.26 L2197.06 2361.84 L2214.88 2361.84 L2214.88 2366.17 L2232.57 2366.17 L2232.57 2357.63 L2250.39 2357.63 L2250.39 2353.92 L2268.09 2353.92 L2268.09 2351.45 L2285.91 2351.45 L2285.91 2355.04 L2303.61 2355.04 L2303.61 2354.29 L2321.43 2354.29 L2321.43 2353.06 L2339.12 2353.06 L2339.12 2350.70 L2356.94 2350.70 L2356.94 2348.11 L2374.64 2348.11 L2374.64 2351.57 L2392.46 2351.57 L2392.46 2349.34 L2410.16 2349.34 L2410.16 2349.96 L2427.97 2349.96 L2427.97 2346.87 L2445.67 2346.87 L2445.67 2345.38 L2463.49 2345.38 L2463.49 2346.37 L2481.19 2346.37 L2481.19 2349.59 L2499.01 2349.59 L2499.01 2353.06 L2516.70 2353.06 L2516.70 2347.86 L2534.52 2347.86 L2534.52 2348.23 L2552.22 2348.23 L2552.22 2342.17 L2570.04 2342.17 L2570.04 2336.35 L2587.74 2336.35 L2587.74 2336.35 L2605.56 2336.35 L2605.56 2330.53 L2623.25 2330.53 L2623.25 2329.30 L2641.07 2329.30 L2641.07 2334.74 L2658.77 2334.74 L2658.77 2333.87 L2676.59 2333.87 L2676.59 2324.22 L2694.28 2324.22 L2694.28 2331.03 L2712.11 2331.03 L2712.11 2335.73 L2729.80 2335.73 L2729.80 2332.14 L2747.62 2332.14 L2747.62 2331.03 L2765.32 2331.03 L2765.32 2328.18 L2783.14 2328.18 L2783.14 2327.81 L2800.83 2327.81 L2800.83 2322.98 L2818.65 2322.98 L2818.65 2321.00 L2836.35 2321.00 L2836.35 2315.93 L2854.17 2315.93 L2854.17 2314.57 L2871.87 2314.57 L2871.87 2310.98 L2889.69 2310.98 L2889.69 2310.86 L2907.38 2310.86 L2907.38 2311.23 L2925.20 2311.23 L2925.20 2314.07 L2942.90 2314.07 L2942.90 2310.73 L2960.72 2310.73 L2960.72 2319.39 L2978.41 2319.39 L2978.41 2317.91 L2996.24 2317.91 L2996.24 2316.18 L3013.93 2316.18 L3013.93 2319.15 L3031.75 2319.15 L3031.75 2313.33 L3049.45 2313.33 L3049.45 2312.96 L3067.27 2312.96 L3067.27 2309.87 L3084.96 2309.87 L3084.96 2314.07 L3102.78 2314.07 L3102.78 2313.95 L3120.48 2313.95 L3120.48 2320.39 L3138.30 2320.39 L3138.30 2329.42 L3156.00 2329.42 L3156.00 2333.50 L3173.82 2333.50 L3173.82 2330.78 L3191.51 2330.78 L3191.51 2334.62 L3209.33 2334.62 L3209.33 2340.31 L3227.03 2340.31 L3227.03 2339.07 L3244.85 2339.07 L3244.85 2345.38 L3262.55 2345.38 L3262.55 2341.18 L3280.36 2341.18 L3280.36 2340.80 L3298.06 2340.80 L3298.06 2336.72 L3315.76 2336.72 L3315.76 2338.95 L3333.58 2338.95 L3333.58 2336.84 L3351.27 2336.84 L3351.27 2331.77 L3369.09 2331.77 L3369.09 2328.55 L3386.79 2328.55 L3386.79 2331.52 L3404.61 2331.52 L3404.61 2329.67 L3422.31 2329.67 L3422.31 2322.37 L3440.13 2322.37 L3440.13 2314.69 L3457.82 2314.69 L3457.82 2318.53 L3475.64 2318.53 L3475.64 2321.87 L3493.34 2321.87 L3493.34 2321.62 L3511.16 2321.62 L3511.16 2319.39 L3528.86 2319.39 L3528.86 2316.30 L3546.68 2316.30 L3546.68 2322.98 L3564.37 2322.98 L3564.37 2324.10 L3582.19 2324.10 L3582.19 2321.38 L3599.89 2321.38 L3599.89 2317.79 L3617.71 2317.79 L3617.71 2318.78 L3635.40 2318.78 L3635.40 2314.44 L3653.22 2314.44 L3653.22 2313.95 L3670.92 2313.95 L3670.92 2312.34 L3688.74 2312.34 L3688.74 2303.18 L3706.44 2303.18 L3706.44 2308.75 L3724.26 2308.75 L3724.26 2308.01 L3741.95 2308.01 L3741.95 2310.73 L3759.77 2310.73 L3759.77 2314.20 L3777.47 2314.20 L3777.47 2309.37 L3795.29 2309.37 L3795.29 2302.07 L3795.29 615.68 L3795.29 625.95 L3777.47 625.95 L3777.47 633.00 L3759.77 633.00 L3759.77 632.38 L3741.95 632.38 L3741.95 631.76 L3724.26 631.76 L3724.26 634.73 L3706.44 634.73 L3706.44 632.26 L3688.74 632.26 L3688.74 643.64 L3670.92 643.64 L3670.92 647.48 L3653.22 647.48 L3653.22 650.33 L3635.40 650.33 L3635.40 657.75 L3617.71 657.75 L3617.71 659.11 L3599.89 659.11 L3599.89 665.05 L3582.19 665.05 L3582.19 670.00 L3564.37 670.00 L3564.37 671.49 L3546.68 671.49 L3546.68 667.53 L3528.86 667.53 L3528.86 673.22 L3511.16 673.22 L3511.16 678.29 L3493.34 678.29 L3493.34 680.65 L3475.64 680.65 L3475.64 680.40 L3457.82 680.40 L3457.82 679.41 L3440.13 679.41 L3440.13 689.68 L3422.31 689.68 L3422.31 699.33 L3404.61 699.33 L3404.61 704.04 L3386.79 704.04 L3386.79 703.66 L3369.09 703.66 L3369.09 709.73 L3351.27 709.73 L3351.27 717.40 L3333.58 717.40 L3333.58 722.72 L3315.76 722.72 L3315.76 723.09 L3298.06 723.09 L3298.06 730.02 L3280.36 730.02 L3280.36 732.99 L3262.55 732.99 L3262.55 738.93 L3244.85 738.93 L3244.85 735.72 L3227.03 735.72 L3227.03 739.68 L3209.33 739.68 L3209.33 737.20 L3191.51 737.20 L3191.51 736.09 L3173.82 736.09 L3173.82 742.52 L3156.00 742.52 L3156.00 741.04 L3138.30 741.04 L3138.30 733.98 L3120.48 733.98 L3120.48 731.51 L3102.78 731.51 L3102.78 734.36 L3084.96 734.36 L3084.96 732.99 L3067.27 732.99 L3067.27 739.06 L3049.45 739.06 L3049.45 742.77 L3031.75 742.77 L3031.75 750.94 L3013.93 750.94 L3013.93 751.31 L2996.24 751.31 L2996.24 756.51 L2978.41 756.51 L2978.41 761.33 L2960.72 761.33 L2960.72 755.39 L2942.90 755.39 L2942.90 762.20 L2925.20 762.20 L2925.20 761.46 L2907.38 761.46 L2907.38 764.68 L2889.69 764.68 L2889.69 767.89 L2871.87 767.89 L2871.87 774.58 L2854.17 774.58 L2854.17 778.66 L2836.35 778.66 L2836.35 786.83 L2818.65 786.83 L2818.65 791.16 L2800.83 791.16 L2800.83 798.34 L2783.14 798.34 L2783.14 800.69 L2765.32 800.69 L2765.32 806.26 L2747.62 806.26 L2747.62 810.22 L2729.80 810.22 L2729.80 817.27 L2712.11 817.27 L2712.11 815.04 L2694.28 815.04 L2694.28 810.46 L2676.59 810.46 L2676.59 823.21 L2658.77 823.21 L2658.77 826.68 L2641.07 826.68 L2641.07 823.71 L2623.25 823.71 L2623.25 827.29 L2605.56 827.29 L2605.56 836.20 L2587.74 836.20 L2587.74 839.05 L2570.04 839.05 L2570.04 847.71 L2552.22 847.71 L2552.22 856.62 L2534.52 856.62 L2534.52 859.59 L2516.70 859.59 L2516.70 867.27 L2499.01 867.27 L2499.01 866.28 L2481.19 866.28 L2481.19 865.91 L2463.49 865.91 L2463.49 867.51 L2445.67 867.51 L2445.67 871.10 L2427.97 871.10 L2427.97 877.29 L2410.16 877.29 L2410.16 879.39 L2392.46 879.39 L2392.46 884.47 L2374.64 884.47 L2374.64 884.22 L2356.94 884.22 L2356.94 889.67 L2339.12 889.67 L2339.12 895.48 L2321.43 895.48 L2321.43 899.69 L2303.61 899.69 L2303.61 903.40 L2285.91 903.40 L2285.91 903.40 L2268.09 903.40 L2268.09 908.97 L2250.39 908.97 L2250.39 915.53 L2232.57 915.53 L2232.57 926.79 L2214.88 926.79 L2214.88 925.31 L2197.06 925.31 L2197.06 937.44 L2179.36 937.44 L2179.36 942.63 L2161.54 942.63 L2161.54 949.81 L2143.84 949.81 L2143.84 952.90 L2126.03 952.90 L2126.03 956.12 L2108.33 956.12 L2108.33 964.04 L2090.51 964.04 L2090.51 965.90 L2072.81 965.90 L2072.81 968.25 L2055.12 968.25 L2055.12 973.32 L2037.30 973.32 L2037.30 970.60 L2019.60 970.60 L2019.60 976.91 L2001.78 976.91 L2001.78 977.66 L1984.08 977.66 L1984.08 984.71 L1966.26 984.71 L1966.26 983.72 L1948.57 983.72 L1948.57 992.75 L1930.75 992.75 L1930.75 990.03 L1913.05 990.03 L1913.05 994.24 L1895.23 994.24 L1895.23 990.90 L1877.54 990.90 L1877.54 995.48 L1859.71 995.48 L1859.71 993.99 L1842.02 993.99 L1842.02 995.85 L1824.20 995.85 L1824.20 999.31 L1806.50 999.31 L1806.50 999.44 L1788.68 999.44 L1788.68 999.93 L1770.99 999.93 L1770.99 998.94 L1753.17 998.94 L1753.17 1006.49 L1735.47 1006.49 L1735.47 1011.32 L1717.65 1011.32 L1717.65 1021.59 L1699.95 1021.59 L1699.95 1026.29 L1682.13 1026.29 L1682.13 1036.07 L1664.44 1036.07 L1664.44 1042.38 L1646.62 1042.38 L1646.62 1049.43 L1628.92 1049.43 L1628.92 1057.23 L1611.10 1057.23 L1611.10 1058.34 L1593.40 1058.34 L1593.40 1068.37 L1575.59 1068.37 L1575.59 1072.82 L1557.89 1072.82 L1557.89 1071.34 L1540.07 1071.34 L1540.07 1077.52 L1522.37 1077.52 L1522.37 1072.20 L1504.55 1072.20 L1504.55 1080.87 L1486.86 1080.87 L1486.86 1083.71 L1469.04 1083.71 L1469.04 1084.08 L1451.34 1084.08 L1451.34 1080.99 L1433.52 1080.99 L1433.52 1089.16 L1415.82 1089.16 L1415.82 1097.20 L1398.00 1097.20 L1398.00 1102.03 L1380.31 1102.03 L1380.31 1106.85 L1362.49 1106.85 L1362.49 1106.98 L1344.79 1106.98 L1344.79 1117.62 L1326.97 1117.62 L1326.97 1126.28 L1309.28 1126.28 L1309.28 1127.03 L1291.45 1127.03 L1291.45 1128.51 L1273.76 1128.51 L1273.76 1127.40 L1255.94 1127.40 L1255.94 1136.31 L1238.24 1136.31 L1238.24 1142.37 L1220.42 1142.37 L1220.42 1145.71 L1202.73 1145.71 L1202.73 1156.48 L1184.91 1156.48 L1184.91 1163.41 L1167.21 1163.41 L1167.21 1164.77 L1149.39 1164.77 L1149.39 1172.20 L1131.69 1172.20 L1131.69 1173.81 L1113.87 1173.81 L1113.87 1182.10 L1096.18 1182.10 L1096.18 1193.36 L1078.36 1193.36 L1078.36 1195.46 L1060.66 1195.46 L1060.66 1204.99 L1042.84 1204.99 L1042.84 1208.83 L1025.14 1208.83 L1025.14 1210.07 L1007.33 1210.07 L1007.33 1218.48 L989.63 1218.48 L989.63 1228.26 L971.81 1228.26 L971.81 1239.89 L954.11 1239.89 L954.11 1252.14 L936.29 1252.14 L936.29 1264.64 L918.60 1264.64 L918.60 1282.71 L900.78 1282.71 L900.78 1285.18 L883.08 1285.18 L883.08 1297.93 L865.26 1297.93 L865.26 1313.28 L847.56 1313.28 L847.56 1316.62 L829.87 1316.62 L829.87 1332.09 L812.05 1332.09 L812.05 1353.00 L794.35 1353.00 L794.35 1364.51 L776.53 1364.51 L776.53 1369.46 L758.84 1369.46 L758.84 1383.69 L741.01 1383.69 L741.01 1398.54 L723.32 1398.54 L723.32 1422.18 L705.50 1422.18 L705.50 1437.15 L687.80 1437.15 L687.80 1455.22 L669.98 1455.22 L669.98 1472.42 L652.29 1472.42 L652.29 1485.79 L634.47 1485.79 L634.47 1497.55 L616.77 1497.55 L616.77 1791.96 Z" stroke-linejoin="round"/>
	</defs>
	<defs>
		<clipPath id="clipPath_hFgKbsbL">
			<use xlink:href="#path_DcaVhzgj"/>
		</clipPath>
	</defs>
	<use xlink:href="#path_DcaVhzgj" style="stroke:none;fill:#999999;fill-opacity:0.65"/>
	<use xlink:href="#path_DcaVhzgj" style="fill:none;stroke:#808080;stroke-opacity:0.65;stroke-width:17.28" clip-path="url(#clipPath_hFgKbsbL)"/>
	<defs>
		<path id="path_EGIkDdew" d="M616.77 1829.82 L616.77 1829.82 L634.47 1829.82 L634.47 1854.45 L652.29 1854.45 L652.29 1879.70 L669.98 1879.70 L669.98 1909.52 L687.80 1909.52 L687.80 1930.81 L705.50 1930.81 L705.50 1959.89 L723.32 1959.89 L723.32 1985.88 L741.01 1985.88 L741.01 1996.77 L758.84 1996.77 L758.84 2014.59 L776.53 2014.59 L776.53 2043.05 L794.35 2043.05 L794.35 2059.14 L812.05 2059.14 L812.05 2070.40 L829.87 2070.40 L829.87 2094.41 L847.56 2094.41 L847.56 2105.18 L865.26 2105.18 L865.26 2118.29 L883.08 2118.29 L883.08 2131.78 L900.78 2131.78 L900.78 2153.32 L918.60 2153.32 L918.60 2170.77 L936.29 2170.77 L936.29 2188.34 L954.11 2188.34 L954.11 2201.21 L971.81 2201.21 L971.81 2214.08 L989.63 2214.08 L989.63 2217.67 L1007.33 2217.67 L1007.33 2227.32 L1025.14 2227.32 L1025.14 2236.36 L1042.84 2236.36 L1042.84 2253.31 L1060.66 2253.31 L1060.66 2254.05 L1078.36 2254.05 L1078.36 2268.16 L1096.18 2268.16 L1096.18 2279.67 L1113.87 2279.67 L1113.87 2290.56 L1131.69 2290.56 L1131.69 2307.39 L1149.39 2307.39 L1149.39 2317.17 L1167.21 2317.17 L1167.21 2325.58 L1184.91 2325.58 L1184.91 2325.95 L1202.73 2325.95 L1202.73 2340.31 L1220.42 2340.31 L1220.42 2351.20 L1238.24 2351.20 L1238.24 2347.73 L1255.94 2347.73 L1255.94 2354.29 L1273.76 2354.29 L1273.76 2354.54 L1291.45 2354.54 L1291.45 2356.40 L1309.28 2356.40 L1309.28 2362.09 L1326.97 2362.09 L1326.97 2367.41 L1344.79 2367.41 L1344.79 2372.98 L1362.49 2372.98 L1362.49 2370.51 L1380.31 2370.51 L1380.31 2377.06 L1398.00 2377.06 L1398.00 2379.42 L1415.82 2379.42 L1415.82 2383.00 L1433.52 2383.00 L1433.52 2390.43 L1451.34 2390.43 L1451.34 2395.63 L1469.04 2395.63 L1469.04 2395.13 L1486.86 2395.13 L1486.86 2391.54 L1504.55 2391.54 L1504.55 2397.24 L1522.37 2397.24 L1522.37 2393.15 L1540.07 2393.15 L1540.07 2396.37 L1557.89 2396.37 L1557.89 2404.66 L1575.59 2404.66 L1575.59 2405.28 L1593.40 2405.28 L1593.40 2404.54 L1611.10 2404.54 L1611.10 2403.55 L1628.92 2403.55 L1628.92 2414.44 L1646.62 2414.44 L1646.62 2422.23 L1664.44 2422.23 L1664.44 2424.71 L1682.13 2424.71 L1682.13 2427.18 L1699.95 2427.18 L1699.95 2434.73 L1717.65 2434.73 L1717.65 2431.39 L1735.47 2431.39 L1735.47 2430.90 L1753.17 2430.90 L1753.17 2443.03 L1770.99 2443.03 L1770.99 2435.23 L1788.68 2435.23 L1788.68 2443.03 L1806.50 2443.03 L1806.50 2445.87 L1824.20 2445.87 L1824.20 2442.65 L1842.02 2442.65 L1842.02 2441.54 L1859.71 2441.54 L1859.71 2438.57 L1877.54 2438.57 L1877.54 2440.30 L1895.23 2440.30 L1895.23 2444.39 L1913.05 2444.39 L1913.05 2442.16 L1930.75 2442.16 L1930.75 2440.30 L1948.57 2440.30 L1948.57 2439.81 L1966.26 2439.81 L1966.26 2438.57 L1984.08 2438.57 L1984.08 2438.07 L2001.78 2438.07 L2001.78 2429.91 L2019.60 2429.91 L2019.60 2428.30 L2037.30 2428.30 L2037.30 2420.50 L2055.12 2420.50 L2055.12 2429.41 L2072.81 2429.41 L2072.81 2432.13 L2090.51 2432.13 L2090.51 2433.50 L2108.33 2433.50 L2108.33 2438.94 L2126.03 2438.94 L2126.03 2435.97 L2143.84 2435.97 L2143.84 2429.16 L2161.54 2429.16 L2161.54 2420.50 L2179.36 2420.50 L2179.36 2416.42 L2197.06 2416.42 L2197.06 2418.89 L2214.88 2418.89 L2214.88 2421.37 L2232.57 2421.37 L2232.57 2420.01 L2250.39 2420.01 L2250.39 2425.82 L2268.09 2425.82 L2268.09 2421.12 L2285.91 2421.12 L2285.91 2419.64 L2303.61 2419.64 L2303.61 2417.78 L2321.43 2417.78 L2321.43 2412.09 L2339.12 2412.09 L2339.12 2407.01 L2356.94 2407.01 L2356.94 2398.84 L2374.64 2398.84 L2374.64 2399.46 L2392.46 2399.46 L2392.46 2399.46 L2410.16 2399.46 L2410.16 2392.41 L2427.97 2392.41 L2427.97 2389.56 L2445.67 2389.56 L2445.67 2390.55 L2463.49 2390.55 L2463.49 2388.20 L2481.19 2388.20 L2481.19 2390.92 L2499.01 2390.92 L2499.01 2385.97 L2516.70 2385.97 L2516.70 2386.72 L2534.52 2386.72 L2534.52 2384.37 L2552.22 2384.37 L2552.22 2379.66 L2570.04 2379.66 L2570.04 2382.51 L2587.74 2382.51 L2587.74 2378.67 L2605.56 2378.67 L2605.56 2373.85 L2623.25 2373.85 L2623.25 2370.38 L2641.07 2370.38 L2641.07 2373.85 L2658.77 2373.85 L2658.77 2376.69 L2676.59 2376.69 L2676.59 2373.35 L2694.28 2373.35 L2694.28 2377.06 L2712.11 2377.06 L2712.11 2375.21 L2729.80 2375.21 L2729.80 2378.92 L2747.62 2378.92 L2747.62 2382.51 L2765.32 2382.51 L2765.32 2381.15 L2783.14 2381.15 L2783.14 2375.46 L2800.83 2375.46 L2800.83 2381.27 L2818.65 2381.27 L2818.65 2377.06 L2836.35 2377.06 L2836.35 2369.89 L2854.17 2369.89 L2854.17 2369.64 L2871.87 2369.64 L2871.87 2368.15 L2889.69 2368.15 L2889.69 2366.05 L2907.38 2366.05 L2907.38 2360.98 L2925.20 2360.98 L2925.20 2362.83 L2942.90 2362.83 L2942.90 2365.31 L2960.72 2365.31 L2960.72 2352.81 L2978.41 2352.81 L2978.41 2348.60 L2996.24 2348.60 L2996.24 2354.66 L3013.93 2354.66 L3013.93 2354.91 L3031.75 2354.91 L3031.75 2354.29 L3049.45 2354.29 L3049.45 2352.68 L3067.27 2352.68 L3067.27 2356.27 L3084.96 2356.27 L3084.96 2359.00 L3102.78 2359.00 L3102.78 2354.17 L3120.48 2354.17 L3120.48 2351.20 L3138.30 2351.20 L3138.30 2349.47 L3156.00 2349.47 L3156.00 2350.83 L3173.82 2350.83 L3173.82 2349.71 L3191.51 2349.71 L3191.51 2347.49 L3209.33 2347.49 L3209.33 2352.93 L3227.03 2352.93 L3227.03 2357.02 L3244.85 2357.02 L3244.85 2357.88 L3262.55 2357.88 L3262.55 2351.69 L3280.36 2351.69 L3280.36 2358.13 L3298.06 2358.13 L3298.06 2359.86 L3315.76 2359.86 L3315.76 2358.38 L3333.58 2358.38 L3333.58 2362.59 L3351.27 2362.59 L3351.27 2363.70 L3369.09 2363.70 L3369.09 2358.87 L3386.79 2358.87 L3386.79 2354.05 L3404.61 2354.05 L3404.61 2355.28 L3422.31 2355.28 L3422.31 2359.12 L3440.13 2359.12 L3440.13 2355.41 L3457.82 2355.41 L3457.82 2348.85 L3475.64 2348.85 L3475.64 2352.07 L3493.34 2352.07 L3493.34 2354.66 L3511.16 2354.66 L3511.16 2355.28 L3528.86 2355.28 L3528.86 2352.93 L3546.68 2352.93 L3546.68 2350.33 L3564.37 2350.33 L3564.37 2347.98 L3582.19 2347.98 L3582.19 2345.38 L3599.89 2345.38 L3599.89 2340.31 L3617.71 2340.31 L3617.71 2341.42 L3635.40 2341.42 L3635.40 2345.14 L3653.22 2345.14 L3653.22 2340.06 L3670.92 2340.06 L3670.92 2336.60 L3688.74 2336.60 L3688.74 2334.12 L3706.44 2334.12 L3706.44 2337.46 L3724.26 2337.46 L3724.26 2335.24 L3741.95 2335.24 L3741.95 2341.67 L3759.77 2341.67 L3759.77 2338.45 L3777.47 2338.45 L3777.47 2343.03 L3795.29 2343.03 L3795.29 2345.01 L3795.29 551.57 L3795.29 552.81 L3777.47 552.81 L3777.47 551.45 L3759.77 551.45 L3759.77 558.25 L3741.95 558.25 L3741.95 555.78 L3724.26 555.78 L3724.26 560.98 L3706.44 560.98 L3706.44 560.48 L3688.74 560.48 L3688.74 566.17 L3670.92 566.17 L3670.92 572.24 L3653.22 572.24 L3653.22 580.41 L3635.40 580.41 L3635.40 579.29 L3617.71 579.29 L3617.71 581.52 L3599.89 581.52 L3599.89 588.94 L3582.19 588.94 L3582.19 594.76 L3564.37 594.76 L3564.37 600.08 L3546.68 600.08 L3546.68 605.65 L3528.86 605.65 L3528.86 610.97 L3511.16 610.97 L3511.16 613.32 L3493.34 613.32 L3493.34 613.45 L3475.64 613.45 L3475.64 613.45 L3457.82 613.45 L3457.82 622.98 L3440.13 622.98 L3440.13 629.54 L3422.31 629.54 L3422.31 629.04 L3404.61 629.04 L3404.61 630.53 L3386.79 630.53 L3386.79 637.83 L3369.09 637.83 L3369.09 646.12 L3351.27 646.12 L3351.27 648.10 L3333.58 648.10 L3333.58 646.00 L3315.76 646.00 L3315.76 650.33 L3298.06 650.33 L3298.06 651.69 L3280.36 651.69 L3280.36 648.97 L3262.55 648.97 L3262.55 658.25 L3244.85 658.25 L3244.85 660.23 L3227.03 660.23 L3227.03 659.11 L3209.33 659.11 L3209.33 657.01 L3191.51 657.01 L3191.51 662.08 L3173.82 662.08 L3173.82 666.41 L3156.00 666.41 L3156.00 667.78 L3138.30 667.78 L3138.30 672.97 L3120.48 672.97 L3120.48 679.16 L3102.78 679.16 L3102.78 687.58 L3084.96 687.58 L3084.96 688.07 L3067.27 688.07 L3067.27 687.70 L3049.45 687.70 L3049.45 692.65 L3031.75 692.65 L3031.75 696.49 L3013.93 696.49 L3013.93 699.95 L2996.24 699.95 L2996.24 697.23 L2978.41 697.23 L2978.41 704.04 L2960.72 704.04 L2960.72 719.38 L2942.90 719.38 L2942.90 720.74 L2925.20 720.74 L2925.20 722.35 L2907.38 722.35 L2907.38 730.15 L2889.69 730.15 L2889.69 735.35 L2871.87 735.35 L2871.87 739.80 L2854.17 739.80 L2854.17 743.14 L2836.35 743.14 L2836.35 753.17 L2818.65 753.17 L2818.65 759.72 L2800.83 759.72 L2800.83 757.87 L2783.14 757.87 L2783.14 766.04 L2765.32 766.04 L2765.32 770.86 L2747.62 770.86 L2747.62 770.49 L2729.80 770.49 L2729.80 769.75 L2712.11 769.75 L2712.11 774.95 L2694.28 774.95 L2694.28 773.83 L2676.59 773.83 L2676.59 780.39 L2658.77 780.39 L2658.77 781.38 L2641.07 781.38 L2641.07 780.89 L2623.25 780.89 L2623.25 787.57 L2605.56 787.57 L2605.56 795.37 L2587.74 795.37 L2587.74 802.79 L2570.04 802.79 L2570.04 803.41 L2552.22 803.41 L2552.22 811.21 L2534.52 811.21 L2534.52 817.02 L2516.70 817.02 L2516.70 819.62 L2499.01 819.62 L2499.01 827.79 L2481.19 827.79 L2481.19 828.04 L2463.49 828.04 L2463.49 833.36 L2445.67 833.36 L2445.67 835.09 L2427.97 835.09 L2427.97 841.40 L2410.16 841.40 L2410.16 852.29 L2392.46 852.29 L2392.46 854.52 L2374.64 854.52 L2374.64 856.38 L2356.94 856.38 L2356.94 867.51 L2339.12 867.51 L2339.12 875.43 L2321.43 875.43 L2321.43 883.60 L2303.61 883.60 L2303.61 889.42 L2285.91 889.42 L2285.91 894.62 L2268.09 894.62 L2268.09 902.41 L2250.39 902.41 L2250.39 900.19 L2232.57 900.19 L2232.57 904.64 L2214.88 904.64 L2214.88 905.38 L2197.06 905.38 L2197.06 905.88 L2179.36 905.88 L2179.36 913.55 L2161.54 913.55 L2161.54 925.18 L2143.84 925.18 L2143.84 935.58 L2126.03 935.58 L2126.03 942.88 L2108.33 942.88 L2108.33 940.53 L2090.51 940.53 L2090.51 942.63 L2072.81 942.63 L2072.81 943.62 L2055.12 943.62 L2055.12 938.92 L2037.30 938.92 L2037.30 949.81 L2019.60 949.81 L2019.60 954.88 L2001.78 954.88 L2001.78 966.52 L1984.08 966.52 L1984.08 970.85 L1966.26 970.85 L1966.26 976.17 L1948.57 976.17 L1948.57 979.76 L1930.75 979.76 L1930.75 984.46 L1913.05 984.46 L1913.05 990.77 L1895.23 990.77 L1895.23 990.28 L1877.54 990.28 L1877.54 992.13 L1859.71 992.13 L1859.71 998.69 L1842.02 998.69 L1842.02 1003.52 L1824.20 1003.52 L1824.20 1011.69 L1806.50 1011.69 L1806.50 1013.30 L1788.68 1013.30 L1788.68 1009.46 L1770.99 1009.46 L1770.99 1021.84 L1753.17 1021.84 L1753.17 1012.68 L1735.47 1012.68 L1735.47 1017.63 L1717.65 1017.63 L1717.65 1025.30 L1699.95 1025.30 L1699.95 1021.84 L1682.13 1021.84 L1682.13 1024.68 L1664.44 1024.68 L1664.44 1026.91 L1646.62 1026.91 L1646.62 1023.57 L1628.92 1023.57 L1628.92 1017.63 L1611.10 1017.63 L1611.10 1023.32 L1593.40 1023.32 L1593.40 1028.39 L1575.59 1028.39 L1575.59 1032.73 L1557.89 1032.73 L1557.89 1028.89 L1540.07 1028.89 L1540.07 1030.87 L1522.37 1030.87 L1522.37 1040.77 L1504.55 1040.77 L1504.55 1040.77 L1486.86 1040.77 L1486.86 1050.67 L1469.04 1050.67 L1469.04 1056.86 L1451.34 1056.86 L1451.34 1057.97 L1433.52 1057.97 L1433.52 1056.98 L1415.82 1056.98 L1415.82 1059.83 L1398.00 1059.83 L1398.00 1064.04 L1380.31 1064.04 L1380.31 1064.65 L1362.49 1064.65 L1362.49 1074.31 L1344.79 1074.31 L1344.79 1075.92 L1326.97 1075.92 L1326.97 1079.01 L1309.28 1079.01 L1309.28 1081.73 L1291.45 1081.73 L1291.45 1088.79 L1273.76 1088.79 L1273.76 1097.82 L1255.94 1097.82 L1255.94 1100.42 L1238.24 1100.42 L1238.24 1113.04 L1220.42 1113.04 L1220.42 1112.55 L1202.73 1112.55 L1202.73 1108.59 L1184.91 1108.59 L1184.91 1118.49 L1167.21 1118.49 L1167.21 1122.08 L1149.39 1122.08 L1149.39 1124.18 L1131.69 1124.18 L1131.69 1119.72 L1113.87 1119.72 L1113.87 1122.08 L1096.18 1122.08 L1096.18 1124.06 L1078.36 1124.06 L1078.36 1125.05 L1060.66 1125.05 L1060.66 1140.39 L1042.84 1140.39 L1042.84 1138.66 L1025.14 1138.66 L1025.14 1146.95 L1007.33 1146.95 L1007.33 1155.12 L989.63 1155.12 L989.63 1170.09 L971.81 1170.09 L971.81 1175.66 L954.11 1175.66 L954.11 1183.71 L936.29 1183.71 L936.29 1186.92 L918.60 1186.92 L918.60 1192.62 L900.78 1192.62 L900.78 1195.09 L883.08 1195.09 L883.08 1207.10 L865.26 1207.10 L865.26 1219.97 L847.56 1219.97 L847.56 1237.29 L829.87 1237.29 L829.87 1242.12 L812.05 1242.12 L812.05 1261.55 L794.35 1261.55 L794.35 1278.25 L776.53 1278.25 L776.53 1285.18 L758.84 1285.18 L758.84 1302.63 L741.01 1302.63 L741.01 1328.99 L723.32 1328.99 L723.32 1343.10 L705.50 1343.10 L705.50 1356.09 L687.80 1356.09 L687.80 1379.61 L669.98 1379.61 L669.98 1396.19 L652.29 1396.19 L652.29 1419.21 L634.47 1419.21 L634.47 1445.32 L616.77 1445.32 L616.77 1829.82 Z" stroke-linejoin="round"/>
	</defs>
	<defs>
		<clipPath id="clipPath_VgjDcbeL">
			<use xlink:href="#path_EGIkDdew"/>
		</clipPath>
	</defs>
	<use xlink:href="#path_EGIkDdew" style="stroke:none;fill:#595959;fill-opacity:0.65"/>
	<use xlink:href="#path_EGIkDdew" style="fill:none;stroke:#303030;stroke-opacity:0.65;stroke-width:17.28" clip-path="url(#clipPath_VgjDcbeL)"/>
	<line x1="616.65" y1="1644.81" x2="634.47" y2="1644.81" style="stroke:#808080;stroke-width:8.64"/>
	<line x1="634.47" y1="1644.81" x2="634.47" y2="1654.22" style="stroke:#808080;stroke-width:8.64"/>
	<line x1="634.47" y1="1654.22" x2="647.58" y2="1654.22" style="stroke:#808080;stroke-width:8.64"/>
	<line x1="657.61" y1="1661.40" x2="669.98" y2="1661.40" style="stroke:#808080;stroke-width:8.64"/>
	<line x1="669.98" y1="1661.40" x2="669.98" y2="1664.98" style="stroke:#808080;stroke-width:8.64"/>
	<line x1="669.98" y1="1664.98" x2="687.68" y2="1664.98" style="stroke:#808080;stroke-width:8.64"/>
	<line x1="687.68" y1="1664.98" x2="687.68" y2="1666.84" style="stroke:#808080;stroke-width:8.64"/>
	<line x1="687.68" y1="1666.84" x2="692.50" y2="1666.84" style="stroke:#808080;stroke-width:8.64"/>
	<line x1="705.50" y1="1671.17" x2="705.50" y2="1671.42" style="stroke:#808080;stroke-width:8.64"/>
	<line x1="705.50" y1="1671.42" x2="723.20" y2="1671.42" style="stroke:#808080;stroke-width:8.64"/>
	<line x1="723.20" y1="1671.42" x2="723.20" y2="1665.97" style="stroke:#808080;stroke-width:8.64"/>
	<line x1="723.20" y1="1665.97" x2="740.02" y2="1665.97" style="stroke:#808080;stroke-width:8.64"/>
	<line x1="754.63" y1="1668.57" x2="758.71" y2="1668.57" style="stroke:#808080;stroke-width:8.64"/>
	<line x1="758.71" y1="1668.57" x2="758.71" y2="1671.05" style="stroke:#808080;stroke-width:8.64"/>
	<line x1="758.71" y1="1671.05" x2="776.53" y2="1671.05" style="stroke:#808080;stroke-width:8.64"/>
	<line x1="776.53" y1="1671.05" x2="776.53" y2="1682.31" style="stroke:#808080;stroke-width:8.64"/>
	<line x1="776.53" y1="1682.31" x2="781.23" y2="1682.31" style="stroke:#808080;stroke-width:8.64"/>
	<line x1="794.85" y1="1686.02" x2="812.05" y2="1686.02" style="stroke:#808080;stroke-width:8.64"/>
	<line x1="812.05" y1="1686.02" x2="812.05" y2="1679.96" style="stroke:#808080;stroke-width:8.64"/>
	<line x1="812.05" y1="1679.96" x2="829.13" y2="1679.96" style="stroke:#808080;stroke-width:8.64"/>
	<line x1="844.97" y1="1678.60" x2="847.44" y2="1678.60" style="stroke:#808080;stroke-width:8.64"/>
	<line x1="847.44" y1="1678.60" x2="847.44" y2="1688.75" style="stroke:#808080;stroke-width:8.64"/>
	<line x1="847.44" y1="1688.75" x2="865.26" y2="1688.75" style="stroke:#808080;stroke-width:8.64"/>
	<line x1="865.26" y1="1688.75" x2="865.26" y2="1686.77" style="stroke:#808080;stroke-width:8.64"/>
	<line x1="865.26" y1="1686.77" x2="873.30" y2="1686.77" style="stroke:#808080;stroke-width:8.64"/>
	<line x1="890.13" y1="1686.39" x2="900.78" y2="1686.39" style="stroke:#808080;stroke-width:8.64"/>
	<line x1="900.78" y1="1686.39" x2="900.78" y2="1696.17" style="stroke:#808080;stroke-width:8.64"/>
	<line x1="900.78" y1="1696.17" x2="918.47" y2="1696.17" style="stroke:#808080;stroke-width:8.64"/>
	<line x1="918.47" y1="1696.17" x2="918.47" y2="1693.94" style="stroke:#808080;stroke-width:8.64"/>
	<line x1="931.10" y1="1689.36" x2="936.29" y2="1689.36" style="stroke:#808080;stroke-width:8.64"/>
	<line x1="936.29" y1="1689.36" x2="936.29" y2="1688.00" style="stroke:#808080;stroke-width:8.64"/>
	<line x1="936.29" y1="1688.00" x2="953.99" y2="1688.00" style="stroke:#808080;stroke-width:8.64"/>
	<line x1="953.99" y1="1688.00" x2="953.99" y2="1686.52" style="stroke:#808080;stroke-width:8.64"/>
	<line x1="953.99" y1="1686.52" x2="968.72" y2="1686.52" style="stroke:#808080;stroke-width:8.64"/>
	<line x1="984.68" y1="1685.28" x2="989.50" y2="1685.28" style="stroke:#808080;stroke-width:8.64"/>
	<line x1="989.50" y1="1685.28" x2="989.50" y2="1684.91" style="stroke:#808080;stroke-width:8.64"/>
	<line x1="989.50" y1="1684.91" x2="1007.33" y2="1684.91" style="stroke:#808080;stroke-width:8.64"/>
	<line x1="1007.33" y1="1684.91" x2="1007.33" y2="1685.40" style="stroke:#808080;stroke-width:8.64"/>
	<line x1="1007.33" y1="1685.40" x2="1024.15" y2="1685.40" style="stroke:#808080;stroke-width:8.64"/>
	<line x1="1033.56" y1="1693.20" x2="1042.84" y2="1693.20" style="stroke:#808080;stroke-width:8.64"/>
	<line x1="1042.84" y1="1693.20" x2="1042.84" y2="1698.27" style="stroke:#808080;stroke-width:8.64"/>
	<line x1="1042.84" y1="1698.27" x2="1060.54" y2="1698.27" style="stroke:#808080;stroke-width:8.64"/>
	<line x1="1060.54" y1="1698.27" x2="1060.54" y2="1697.04" style="stroke:#808080;stroke-width:8.64"/>
	<line x1="1060.54" y1="1697.04" x2="1067.47" y2="1697.04" style="stroke:#808080;stroke-width:8.64"/>
	<line x1="1078.61" y1="1703.10" x2="1096.05" y2="1703.10" style="stroke:#808080;stroke-width:8.64"/>
	<line x1="1096.05" y1="1703.10" x2="1096.05" y2="1699.64" style="stroke:#808080;stroke-width:8.64"/>
	<line x1="1096.05" y1="1699.64" x2="1113.87" y2="1699.64" style="stroke:#808080;stroke-width:8.64"/>
	<line x1="1113.87" y1="1699.64" x2="1113.87" y2="1698.65" style="stroke:#808080;stroke-width:8.64"/>
	<line x1="1113.87" y1="1698.65" x2="1114.49" y2="1698.65" style="stroke:#808080;stroke-width:8.64"/>
	<line x1="1131.57" y1="1698.89" x2="1131.57" y2="1704.34" style="stroke:#808080;stroke-width:8.64"/>
	<line x1="1131.57" y1="1704.34" x2="1149.39" y2="1704.34" style="stroke:#808080;stroke-width:8.64"/>
	<line x1="1149.39" y1="1704.34" x2="1149.39" y2="1703.60" style="stroke:#808080;stroke-width:8.64"/>
	<line x1="1149.39" y1="1703.60" x2="1165.72" y2="1703.60" style="stroke:#808080;stroke-width:8.64"/>
	<line x1="1177.73" y1="1708.79" x2="1184.91" y2="1708.79" style="stroke:#808080;stroke-width:8.64"/>
	<line x1="1184.91" y1="1708.79" x2="1184.91" y2="1707.68" style="stroke:#808080;stroke-width:8.64"/>
	<line x1="1184.91" y1="1707.68" x2="1202.60" y2="1707.68" style="stroke:#808080;stroke-width:8.64"/>
	<line x1="1202.60" y1="1707.68" x2="1202.60" y2="1702.73" style="stroke:#808080;stroke-width:8.64"/>
	<line x1="1202.60" y1="1702.73" x2="1212.01" y2="1702.73" style="stroke:#808080;stroke-width:8.64"/>
	<line x1="1226.98" y1="1705.08" x2="1238.12" y2="1705.08" style="stroke:#808080;stroke-width:8.64"/>
	<line x1="1238.12" y1="1705.08" x2="1238.12" y2="1705.33" style="stroke:#808080;stroke-width:8.64"/>
	<line x1="1238.12" y1="1705.33" x2="1255.94" y2="1705.33" style="stroke:#808080;stroke-width:8.64"/>
	<line x1="1255.94" y1="1705.33" x2="1255.94" y2="1701.99" style="stroke:#808080;stroke-width:8.64"/>
	<line x1="1255.94" y1="1701.99" x2="1263.73" y2="1701.99" style="stroke:#808080;stroke-width:8.64"/>
	<line x1="1275.00" y1="1708.05" x2="1291.45" y2="1708.05" style="stroke:#808080;stroke-width:8.64"/>
	<line x1="1291.45" y1="1708.05" x2="1291.45" y2="1711.52" style="stroke:#808080;stroke-width:8.64"/>
	<line x1="1291.45" y1="1711.52" x2="1309.15" y2="1711.52" style="stroke:#808080;stroke-width:8.64"/>
	<line x1="1309.15" y1="1711.52" x2="1309.15" y2="1714.24" style="stroke:#808080;stroke-width:8.64"/>
	<line x1="1324.74" y1="1715.85" x2="1326.97" y2="1715.85" style="stroke:#808080;stroke-width:8.64"/>
	<line x1="1326.97" y1="1715.85" x2="1326.97" y2="1711.89" style="stroke:#808080;stroke-width:8.64"/>
	<line x1="1326.97" y1="1711.89" x2="1344.67" y2="1711.89" style="stroke:#808080;stroke-width:8.64"/>
	<line x1="1344.67" y1="1711.89" x2="1344.67" y2="1705.45" style="stroke:#808080;stroke-width:8.64"/>
	<line x1="1344.67" y1="1705.45" x2="1354.69" y2="1705.45" style="stroke:#808080;stroke-width:8.64"/>
	<line x1="1367.31" y1="1710.03" x2="1380.18" y2="1710.03" style="stroke:#808080;stroke-width:8.64"/>
	<line x1="1380.18" y1="1710.03" x2="1380.18" y2="1709.41" style="stroke:#808080;stroke-width:8.64"/>
	<line x1="1380.18" y1="1709.41" x2="1398.00" y2="1709.41" style="stroke:#808080;stroke-width:8.64"/>
	<line x1="1398.00" y1="1709.41" x2="1398.00" y2="1708.30" style="stroke:#808080;stroke-width:8.64"/>
	<line x1="1398.00" y1="1708.30" x2="1405.80" y2="1708.30" style="stroke:#808080;stroke-width:8.64"/>
	<line x1="1419.16" y1="1704.34" x2="1433.52" y2="1704.34" style="stroke:#808080;stroke-width:8.64"/>
	<line x1="1433.52" y1="1704.34" x2="1433.52" y2="1700.13" style="stroke:#808080;stroke-width:8.64"/>
	<line x1="1433.52" y1="1700.13" x2="1451.22" y2="1700.13" style="stroke:#808080;stroke-width:8.64"/>
	<line x1="1451.22" y1="1700.13" x2="1451.22" y2="1704.21" style="stroke:#808080;stroke-width:8.64"/>
	<line x1="1465.82" y1="1706.81" x2="1469.04" y2="1706.81" style="stroke:#808080;stroke-width:8.64"/>
	<line x1="1469.04" y1="1706.81" x2="1469.04" y2="1709.54" style="stroke:#808080;stroke-width:8.64"/>
	<line x1="1469.04" y1="1709.54" x2="1486.73" y2="1709.54" style="stroke:#808080;stroke-width:8.64"/>
	<line x1="1486.73" y1="1709.54" x2="1486.73" y2="1709.91" style="stroke:#808080;stroke-width:8.64"/>
	<line x1="1486.73" y1="1709.91" x2="1503.07" y2="1709.91" style="stroke:#808080;stroke-width:8.64"/>
	<line x1="1514.58" y1="1704.21" x2="1522.25" y2="1704.21" style="stroke:#808080;stroke-width:8.64"/>
	<line x1="1522.25" y1="1704.21" x2="1522.25" y2="1712.88" style="stroke:#808080;stroke-width:8.64"/>
	<line x1="1522.25" y1="1712.88" x2="1540.07" y2="1712.88" style="stroke:#808080;stroke-width:8.64"/>
	<line x1="1540.07" y1="1712.88" x2="1540.07" y2="1709.54" style="stroke:#808080;stroke-width:8.64"/>
	<line x1="1540.07" y1="1709.54" x2="1542.91" y2="1709.54" style="stroke:#808080;stroke-width:8.64"/>
	<line x1="1557.77" y1="1711.89" x2="1557.77" y2="1714.36" style="stroke:#808080;stroke-width:8.64"/>
	<line x1="1557.77" y1="1714.36" x2="1575.59" y2="1714.36" style="stroke:#808080;stroke-width:8.64"/>
	<line x1="1575.59" y1="1714.36" x2="1575.59" y2="1713.00" style="stroke:#808080;stroke-width:8.64"/>
	<line x1="1575.59" y1="1713.00" x2="1593.28" y2="1713.00" style="stroke:#808080;stroke-width:8.64"/>
	<line x1="1593.28" y1="1713.00" x2="1593.28" y2="1712.01" style="stroke:#808080;stroke-width:8.64"/>
	<line x1="1604.54" y1="1706.07" x2="1611.10" y2="1706.07" style="stroke:#808080;stroke-width:8.64"/>
	<line x1="1611.10" y1="1706.07" x2="1611.10" y2="1707.93" style="stroke:#808080;stroke-width:8.64"/>
	<line x1="1611.10" y1="1707.93" x2="1628.80" y2="1707.93" style="stroke:#808080;stroke-width:8.64"/>
	<line x1="1628.80" y1="1707.93" x2="1628.80" y2="1703.10" style="stroke:#808080;stroke-width:8.64"/>
	<line x1="1628.80" y1="1703.10" x2="1638.20" y2="1703.10" style="stroke:#808080;stroke-width:8.64"/>
	<line x1="1651.32" y1="1698.89" x2="1664.31" y2="1698.89" style="stroke:#808080;stroke-width:8.64"/>
	<line x1="1664.31" y1="1698.89" x2="1664.31" y2="1695.06" style="stroke:#808080;stroke-width:8.64"/>
	<line x1="1664.31" y1="1695.06" x2="1682.13" y2="1695.06" style="stroke:#808080;stroke-width:8.64"/>
	<line x1="1682.13" y1="1695.06" x2="1682.13" y2="1689.49" style="stroke:#808080;stroke-width:8.64"/>
	<line x1="1697.97" y1="1688.00" x2="1699.83" y2="1688.00" style="stroke:#808080;stroke-width:8.64"/>
	<line x1="1699.83" y1="1688.00" x2="1699.83" y2="1685.40" style="stroke:#808080;stroke-width:8.64"/>
	<line x1="1699.83" y1="1685.40" x2="1717.65" y2="1685.40" style="stroke:#808080;stroke-width:8.64"/>
	<line x1="1717.65" y1="1685.40" x2="1717.65" y2="1678.10" style="stroke:#808080;stroke-width:8.64"/>
	<line x1="1717.65" y1="1678.10" x2="1728.29" y2="1678.10" style="stroke:#808080;stroke-width:8.64"/>
	<line x1="1743.02" y1="1675.50" x2="1753.17" y2="1675.50" style="stroke:#808080;stroke-width:8.64"/>
	<line x1="1753.17" y1="1675.50" x2="1753.17" y2="1670.31" style="stroke:#808080;stroke-width:8.64"/>
	<line x1="1753.17" y1="1670.31" x2="1770.86" y2="1670.31" style="stroke:#808080;stroke-width:8.64"/>
	<line x1="1770.86" y1="1670.31" x2="1770.86" y2="1673.89" style="stroke:#808080;stroke-width:8.64"/>
	<line x1="1770.86" y1="1673.89" x2="1774.58" y2="1673.89" style="stroke:#808080;stroke-width:8.64"/>
	<line x1="1790.17" y1="1675.50" x2="1806.38" y2="1675.50" style="stroke:#808080;stroke-width:8.64"/>
	<line x1="1806.38" y1="1675.50" x2="1806.38" y2="1677.48" style="stroke:#808080;stroke-width:8.64"/>
	<line x1="1806.38" y1="1677.48" x2="1824.20" y2="1677.48" style="stroke:#808080;stroke-width:8.64"/>
	<line x1="1824.20" y1="1677.48" x2="1824.20" y2="1675.87" style="stroke:#808080;stroke-width:8.64"/>
	<line x1="1824.20" y1="1675.87" x2="1827.05" y2="1675.87" style="stroke:#808080;stroke-width:8.64"/>
	<line x1="1843.88" y1="1676.25" x2="1859.71" y2="1676.25" style="stroke:#808080;stroke-width:8.64"/>
	<line x1="1859.71" y1="1676.25" x2="1859.71" y2="1679.34" style="stroke:#808080;stroke-width:8.64"/>
	<line x1="1859.71" y1="1679.34" x2="1877.41" y2="1679.34" style="stroke:#808080;stroke-width:8.64"/>
	<line x1="1877.41" y1="1679.34" x2="1877.41" y2="1676.99" style="stroke:#808080;stroke-width:8.64"/>
	<line x1="1877.41" y1="1676.99" x2="1878.77" y2="1676.99" style="stroke:#808080;stroke-width:8.64"/>
	<line x1="1895.23" y1="1677.73" x2="1895.23" y2="1682.56" style="stroke:#808080;stroke-width:8.64"/>
	<line x1="1895.23" y1="1682.56" x2="1912.93" y2="1682.56" style="stroke:#808080;stroke-width:8.64"/>
	<line x1="1912.93" y1="1682.56" x2="1912.93" y2="1680.33" style="stroke:#808080;stroke-width:8.64"/>
	<line x1="1912.93" y1="1680.33" x2="1928.52" y2="1680.33" style="stroke:#808080;stroke-width:8.64"/>
	<line x1="1941.02" y1="1685.03" x2="1948.44" y2="1685.03" style="stroke:#808080;stroke-width:8.64"/>
	<line x1="1948.44" y1="1685.03" x2="1948.44" y2="1677.48" style="stroke:#808080;stroke-width:8.64"/>
	<line x1="1948.44" y1="1677.48" x2="1966.26" y2="1677.48" style="stroke:#808080;stroke-width:8.64"/>
	<line x1="1966.26" y1="1677.48" x2="1966.26" y2="1680.45" style="stroke:#808080;stroke-width:8.64"/>
	<line x1="1966.26" y1="1680.45" x2="1970.84" y2="1680.45" style="stroke:#808080;stroke-width:8.64"/>
	<line x1="1983.96" y1="1676.37" x2="1983.96" y2="1675.50" style="stroke:#808080;stroke-width:8.64"/>
	<line x1="1983.96" y1="1675.50" x2="2001.78" y2="1675.50" style="stroke:#808080;stroke-width:8.64"/>
	<line x1="2001.78" y1="1675.50" x2="2001.78" y2="1676.74" style="stroke:#808080;stroke-width:8.64"/>
	<line x1="2001.78" y1="1676.74" x2="2019.48" y2="1676.74" style="stroke:#808080;stroke-width:8.64"/>
	<line x1="2019.48" y1="1676.74" x2="2019.48" y2="1674.02" style="stroke:#808080;stroke-width:8.64"/>
	<line x1="2034.94" y1="1672.16" x2="2037.30" y2="1672.16" style="stroke:#808080;stroke-width:8.64"/>
	<line x1="2037.30" y1="1672.16" x2="2037.30" y2="1676.74" style="stroke:#808080;stroke-width:8.64"/>
	<line x1="2037.30" y1="1676.74" x2="2054.99" y2="1676.74" style="stroke:#808080;stroke-width:8.64"/>
	<line x1="2054.99" y1="1676.74" x2="2054.99" y2="1673.52" style="stroke:#808080;stroke-width:8.64"/>
	<line x1="2054.99" y1="1673.52" x2="2067.37" y2="1673.52" style="stroke:#808080;stroke-width:8.64"/>
	<line x1="2084.07" y1="1672.90" x2="2090.51" y2="1672.90" style="stroke:#808080;stroke-width:8.64"/>
	<line x1="2090.51" y1="1672.90" x2="2090.51" y2="1672.53" style="stroke:#808080;stroke-width:8.64"/>
	<line x1="2090.51" y1="1672.53" x2="2108.20" y2="1672.53" style="stroke:#808080;stroke-width:8.64"/>
	<line x1="2108.20" y1="1672.53" x2="2108.20" y2="1666.47" style="stroke:#808080;stroke-width:8.64"/>
	<line x1="2108.20" y1="1666.47" x2="2117.98" y2="1666.47" style="stroke:#808080;stroke-width:8.64"/>
	<line x1="2133.33" y1="1664.61" x2="2143.72" y2="1664.61" style="stroke:#808080;stroke-width:8.64"/>
	<line x1="2143.72" y1="1664.61" x2="2143.72" y2="1663.38" style="stroke:#808080;stroke-width:8.64"/>
	<line x1="2143.72" y1="1663.38" x2="2161.54" y2="1663.38" style="stroke:#808080;stroke-width:8.64"/>
	<line x1="2161.54" y1="1663.38" x2="2161.54" y2="1657.68" style="stroke:#808080;stroke-width:8.64"/>
	<line x1="2161.54" y1="1657.68" x2="2166.74" y2="1657.68" style="stroke:#808080;stroke-width:8.64"/>
	<line x1="2180.23" y1="1653.97" x2="2197.06" y2="1653.97" style="stroke:#808080;stroke-width:8.64"/>
	<line x1="2197.06" y1="1653.97" x2="2197.06" y2="1643.70" style="stroke:#808080;stroke-width:8.64"/>
	<line x1="2197.06" y1="1643.70" x2="2210.30" y2="1643.70" style="stroke:#808080;stroke-width:8.64"/>
	<line x1="2224.65" y1="1646.67" x2="2232.57" y2="1646.67" style="stroke:#808080;stroke-width:8.64"/>
	<line x1="2232.57" y1="1646.67" x2="2232.57" y2="1636.77" style="stroke:#808080;stroke-width:8.64"/>
	<line x1="2232.57" y1="1636.77" x2="2250.27" y2="1636.77" style="stroke:#808080;stroke-width:8.64"/>
	<line x1="2250.27" y1="1636.77" x2="2250.27" y2="1632.07" style="stroke:#808080;stroke-width:8.64"/>
	<line x1="2267.10" y1="1631.57" x2="2268.09" y2="1631.57" style="stroke:#808080;stroke-width:8.64"/>
	<line x1="2268.09" y1="1631.57" x2="2268.09" y2="1627.49" style="stroke:#808080;stroke-width:8.64"/>
	<line x1="2268.09" y1="1627.49" x2="2285.79" y2="1627.49" style="stroke:#808080;stroke-width:8.64"/>
	<line x1="2285.79" y1="1627.49" x2="2285.79" y2="1629.34" style="stroke:#808080;stroke-width:8.64"/>
	<line x1="2285.79" y1="1629.34" x2="2301.50" y2="1629.34" style="stroke:#808080;stroke-width:8.64"/>
	<line x1="2316.60" y1="1627.12" x2="2321.30" y2="1627.12" style="stroke:#808080;stroke-width:8.64"/>
	<line x1="2321.30" y1="1627.12" x2="2321.30" y2="1624.39" style="stroke:#808080;stroke-width:8.64"/>
	<line x1="2321.30" y1="1624.39" x2="2339.12" y2="1624.39" style="stroke:#808080;stroke-width:8.64"/>
	<line x1="2339.12" y1="1624.39" x2="2339.12" y2="1620.31" style="stroke:#808080;stroke-width:8.64"/>
	<line x1="2339.12" y1="1620.31" x2="2350.01" y2="1620.31" style="stroke:#808080;stroke-width:8.64"/>
	<line x1="2363.38" y1="1616.35" x2="2374.64" y2="1616.35" style="stroke:#808080;stroke-width:8.64"/>
	<line x1="2374.64" y1="1616.35" x2="2374.64" y2="1618.08" style="stroke:#808080;stroke-width:8.64"/>
	<line x1="2374.64" y1="1618.08" x2="2392.34" y2="1618.08" style="stroke:#808080;stroke-width:8.64"/>
	<line x1="2392.34" y1="1618.08" x2="2392.34" y2="1614.49" style="stroke:#808080;stroke-width:8.64"/>
	<line x1="2392.34" y1="1614.49" x2="2398.40" y2="1614.49" style="stroke:#808080;stroke-width:8.64"/>
	<line x1="2414.86" y1="1613.75" x2="2427.85" y2="1613.75" style="stroke:#808080;stroke-width:8.64"/>
	<line x1="2427.85" y1="1613.75" x2="2427.85" y2="1609.17" style="stroke:#808080;stroke-width:8.64"/>
	<line x1="2427.85" y1="1609.17" x2="2445.67" y2="1609.17" style="stroke:#808080;stroke-width:8.64"/>
	<line x1="2445.67" y1="1609.17" x2="2445.67" y2="1606.57" style="stroke:#808080;stroke-width:8.64"/>
	<line x1="2445.67" y1="1606.57" x2="2448.02" y2="1606.57" style="stroke:#808080;stroke-width:8.64"/>
	<line x1="2464.85" y1="1606.20" x2="2481.19" y2="1606.20" style="stroke:#808080;stroke-width:8.64"/>
	<line x1="2481.19" y1="1606.20" x2="2481.19" y2="1608.06" style="stroke:#808080;stroke-width:8.64"/>
	<line x1="2481.19" y1="1608.06" x2="2498.88" y2="1608.06" style="stroke:#808080;stroke-width:8.64"/>
	<line x1="2498.88" y1="1608.06" x2="2498.88" y2="1610.16" style="stroke:#808080;stroke-width:8.64"/>
	<line x1="2498.88" y1="1610.16" x2="2501.24" y2="1610.16" style="stroke:#808080;stroke-width:8.64"/>
	<line x1="2516.70" y1="1608.43" x2="2516.70" y2="1603.73" style="stroke:#808080;stroke-width:8.64"/>
	<line x1="2516.70" y1="1603.73" x2="2534.40" y2="1603.73" style="stroke:#808080;stroke-width:8.64"/>
	<line x1="2534.40" y1="1603.73" x2="2534.40" y2="1602.49" style="stroke:#808080;stroke-width:8.64"/>
	<line x1="2534.40" y1="1602.49" x2="2551.11" y2="1602.49" style="stroke:#808080;stroke-width:8.64"/>
	<line x1="2560.88" y1="1594.94" x2="2569.92" y2="1594.94" style="stroke:#808080;stroke-width:8.64"/>
	<line x1="2569.92" y1="1594.94" x2="2569.92" y2="1587.76" style="stroke:#808080;stroke-width:8.64"/>
	<line x1="2569.92" y1="1587.76" x2="2587.74" y2="1587.76" style="stroke:#808080;stroke-width:8.64"/>
	<line x1="2587.74" y1="1587.76" x2="2587.74" y2="1586.28" style="stroke:#808080;stroke-width:8.64"/>
	<line x1="2587.74" y1="1586.28" x2="2592.56" y2="1586.28" style="stroke:#808080;stroke-width:8.64"/>
	<line x1="2605.43" y1="1581.95" x2="2605.43" y2="1578.98" style="stroke:#808080;stroke-width:8.64"/>
	<line x1="2605.43" y1="1578.98" x2="2623.25" y2="1578.98" style="stroke:#808080;stroke-width:8.64"/>
	<line x1="2623.25" y1="1578.98" x2="2623.25" y2="1576.62" style="stroke:#808080;stroke-width:8.64"/>
	<line x1="2623.25" y1="1576.62" x2="2640.45" y2="1576.62" style="stroke:#808080;stroke-width:8.64"/>
	<line x1="2653.45" y1="1580.83" x2="2658.77" y2="1580.83" style="stroke:#808080;stroke-width:8.64"/>
	<line x1="2658.77" y1="1580.83" x2="2658.77" y2="1578.60" style="stroke:#808080;stroke-width:8.64"/>
	<line x1="2658.77" y1="1578.60" x2="2676.47" y2="1578.60" style="stroke:#808080;stroke-width:8.64"/>
	<line x1="2676.47" y1="1578.60" x2="2676.47" y2="1567.34" style="stroke:#808080;stroke-width:8.64"/>
	<line x1="2676.47" y1="1567.34" x2="2680.43" y2="1567.34" style="stroke:#808080;stroke-width:8.64"/>
	<line x1="2694.28" y1="1570.68" x2="2694.28" y2="1573.04" style="stroke:#808080;stroke-width:8.64"/>
	<line x1="2694.28" y1="1573.04" x2="2711.98" y2="1573.04" style="stroke:#808080;stroke-width:8.64"/>
	<line x1="2711.98" y1="1573.04" x2="2711.98" y2="1576.62" style="stroke:#808080;stroke-width:8.64"/>
	<line x1="2711.98" y1="1576.62" x2="2728.69" y2="1576.62" style="stroke:#808080;stroke-width:8.64"/>
	<line x1="2740.44" y1="1571.18" x2="2747.50" y2="1571.18" style="stroke:#808080;stroke-width:8.64"/>
	<line x1="2747.50" y1="1571.18" x2="2747.50" y2="1568.70" style="stroke:#808080;stroke-width:8.64"/>
	<line x1="2747.50" y1="1568.70" x2="2765.32" y2="1568.70" style="stroke:#808080;stroke-width:8.64"/>
	<line x1="2765.32" y1="1568.70" x2="2765.32" y2="1564.37" style="stroke:#808080;stroke-width:8.64"/>
	<line x1="2765.32" y1="1564.37" x2="2773.98" y2="1564.37" style="stroke:#808080;stroke-width:8.64"/>
	<line x1="2789.94" y1="1563.14" x2="2800.83" y2="1563.14" style="stroke:#808080;stroke-width:8.64"/>
	<line x1="2800.83" y1="1563.14" x2="2800.83" y2="1557.07" style="stroke:#808080;stroke-width:8.64"/>
	<line x1="2800.83" y1="1557.07" x2="2818.53" y2="1557.07" style="stroke:#808080;stroke-width:8.64"/>
	<line x1="2818.53" y1="1557.07" x2="2818.53" y2="1553.98" style="stroke:#808080;stroke-width:8.64"/>
	<line x1="2818.53" y1="1553.98" x2="2821.13" y2="1553.98" style="stroke:#808080;stroke-width:8.64"/>
	<line x1="2836.35" y1="1551.87" x2="2836.35" y2="1547.29" style="stroke:#808080;stroke-width:8.64"/>
	<line x1="2836.35" y1="1547.29" x2="2854.05" y2="1547.29" style="stroke:#808080;stroke-width:8.64"/>
	<line x1="2854.05" y1="1547.29" x2="2854.05" y2="1544.57" style="stroke:#808080;stroke-width:8.64"/>
	<line x1="2854.05" y1="1544.57" x2="2869.39" y2="1544.57" style="stroke:#808080;stroke-width:8.64"/>
	<line x1="2881.39" y1="1539.37" x2="2889.56" y2="1539.37" style="stroke:#808080;stroke-width:8.64"/>
	<line x1="2889.56" y1="1539.37" x2="2889.56" y2="1537.77" style="stroke:#808080;stroke-width:8.64"/>
	<line x1="2889.56" y1="1537.77" x2="2907.38" y2="1537.77" style="stroke:#808080;stroke-width:8.64"/>
	<line x1="2907.38" y1="1537.77" x2="2907.38" y2="1536.28" style="stroke:#808080;stroke-width:8.64"/>
	<line x1="2907.38" y1="1536.28" x2="2918.64" y2="1536.28" style="stroke:#808080;stroke-width:8.64"/>
	<line x1="2934.11" y1="1538.14" x2="2942.90" y2="1538.14" style="stroke:#808080;stroke-width:8.64"/>
	<line x1="2942.90" y1="1538.14" x2="2942.90" y2="1532.94" style="stroke:#808080;stroke-width:8.64"/>
	<line x1="2942.90" y1="1532.94" x2="2960.59" y2="1532.94" style="stroke:#808080;stroke-width:8.64"/>
	<line x1="2960.59" y1="1532.94" x2="2960.59" y2="1540.36" style="stroke:#808080;stroke-width:8.64"/>
	<line x1="2960.59" y1="1540.36" x2="2961.83" y2="1540.36" style="stroke:#808080;stroke-width:8.64"/>
	<line x1="2978.41" y1="1539.75" x2="2978.41" y2="1537.15" style="stroke:#808080;stroke-width:8.64"/>
	<line x1="2978.41" y1="1537.15" x2="2996.11" y2="1537.15" style="stroke:#808080;stroke-width:8.64"/>
	<line x1="2996.11" y1="1537.15" x2="2996.11" y2="1533.68" style="stroke:#808080;stroke-width:8.64"/>
	<line x1="2996.11" y1="1533.68" x2="3012.69" y2="1533.68" style="stroke:#808080;stroke-width:8.64"/>
	<line x1="3028.53" y1="1535.04" x2="3031.63" y2="1535.04" style="stroke:#808080;stroke-width:8.64"/>
	<line x1="3031.63" y1="1535.04" x2="3031.63" y2="1527.99" style="stroke:#808080;stroke-width:8.64"/>
	<line x1="3031.63" y1="1527.99" x2="3049.45" y2="1527.99" style="stroke:#808080;stroke-width:8.64"/>
	<line x1="3049.45" y1="1527.99" x2="3049.45" y2="1526.01" style="stroke:#808080;stroke-width:8.64"/>
	<line x1="3049.45" y1="1526.01" x2="3059.84" y2="1526.01" style="stroke:#808080;stroke-width:8.64"/>
	<line x1="3072.59" y1="1521.43" x2="3084.96" y2="1521.43" style="stroke:#808080;stroke-width:8.64"/>
	<line x1="3084.96" y1="1521.43" x2="3084.96" y2="1524.15" style="stroke:#808080;stroke-width:8.64"/>
	<line x1="3084.96" y1="1524.15" x2="3102.66" y2="1524.15" style="stroke:#808080;stroke-width:8.64"/>
	<line x1="3102.66" y1="1524.15" x2="3102.66" y2="1522.67" style="stroke:#808080;stroke-width:8.64"/>
	<line x1="3102.66" y1="1522.67" x2="3108.60" y2="1522.67" style="stroke:#808080;stroke-width:8.64"/>
	<line x1="3121.35" y1="1527.12" x2="3138.18" y2="1527.12" style="stroke:#808080;stroke-width:8.64"/>
	<line x1="3138.18" y1="1527.12" x2="3138.18" y2="1535.17" style="stroke:#808080;stroke-width:8.64"/>
	<line x1="3138.18" y1="1535.17" x2="3153.64" y2="1535.17" style="stroke:#808080;stroke-width:8.64"/>
	<line x1="3168.12" y1="1537.89" x2="3173.69" y2="1537.89" style="stroke:#808080;stroke-width:8.64"/>
	<line x1="3173.69" y1="1537.89" x2="3173.69" y2="1533.31" style="stroke:#808080;stroke-width:8.64"/>
	<line x1="3173.69" y1="1533.31" x2="3191.51" y2="1533.31" style="stroke:#808080;stroke-width:8.64"/>
	<line x1="3191.51" y1="1533.31" x2="3191.51" y2="1535.91" style="stroke:#808080;stroke-width:8.64"/>
	<line x1="3191.51" y1="1535.91" x2="3201.29" y2="1535.91" style="stroke:#808080;stroke-width:8.64"/>
	<line x1="3214.53" y1="1539.99" x2="3227.03" y2="1539.99" style="stroke:#808080;stroke-width:8.64"/>
	<line x1="3227.03" y1="1539.99" x2="3227.03" y2="1537.39" style="stroke:#808080;stroke-width:8.64"/>
	<line x1="3227.03" y1="1537.39" x2="3244.72" y2="1537.39" style="stroke:#808080;stroke-width:8.64"/>
	<line x1="3244.72" y1="1537.39" x2="3244.72" y2="1542.22" style="stroke:#808080;stroke-width:8.64"/>
	<line x1="3244.72" y1="1542.22" x2="3247.32" y2="1542.22" style="stroke:#808080;stroke-width:8.64"/>
	<line x1="3262.55" y1="1540.12" x2="3262.55" y2="1537.02" style="stroke:#808080;stroke-width:8.64"/>
	<line x1="3262.55" y1="1537.02" x2="3280.24" y2="1537.02" style="stroke:#808080;stroke-width:8.64"/>
	<line x1="3280.24" y1="1537.02" x2="3280.24" y2="1535.41" style="stroke:#808080;stroke-width:8.64"/>
	<line x1="3280.24" y1="1535.41" x2="3297.94" y2="1535.41" style="stroke:#808080;stroke-width:8.64"/>
	<line x1="3297.94" y1="1535.41" x2="3297.94" y2="1535.17" style="stroke:#808080;stroke-width:8.64"/>
	<line x1="3309.82" y1="1529.85" x2="3315.76" y2="1529.85" style="stroke:#808080;stroke-width:8.64"/>
	<line x1="3315.76" y1="1529.85" x2="3315.76" y2="1530.71" style="stroke:#808080;stroke-width:8.64"/>
	<line x1="3315.76" y1="1530.71" x2="3333.45" y2="1530.71" style="stroke:#808080;stroke-width:8.64"/>
	<line x1="3333.45" y1="1530.71" x2="3333.45" y2="1527.12" style="stroke:#808080;stroke-width:8.64"/>
	<line x1="3333.45" y1="1527.12" x2="3345.70" y2="1527.12" style="stroke:#808080;stroke-width:8.64"/>
	<line x1="3356.59" y1="1520.69" x2="3368.97" y2="1520.69" style="stroke:#808080;stroke-width:8.64"/>
	<line x1="3368.97" y1="1520.69" x2="3368.97" y2="1516.11" style="stroke:#808080;stroke-width:8.64"/>
	<line x1="3368.97" y1="1516.11" x2="3386.79" y2="1516.11" style="stroke:#808080;stroke-width:8.64"/>
	<line x1="3386.79" y1="1516.11" x2="3386.79" y2="1517.72" style="stroke:#808080;stroke-width:8.64"/>
	<line x1="3386.79" y1="1517.72" x2="3390.75" y2="1517.72" style="stroke:#808080;stroke-width:8.64"/>
	<line x1="3404.61" y1="1514.38" x2="3422.31" y2="1514.38" style="stroke:#808080;stroke-width:8.64"/>
	<line x1="3422.31" y1="1514.38" x2="3422.31" y2="1505.96" style="stroke:#808080;stroke-width:8.64"/>
	<line x1="3422.31" y1="1505.96" x2="3436.54" y2="1505.96" style="stroke:#808080;stroke-width:8.64"/>
	<line x1="3444.83" y1="1496.93" x2="3457.82" y2="1496.93" style="stroke:#808080;stroke-width:8.64"/>
	<line x1="3457.82" y1="1496.93" x2="3457.82" y2="1499.28" style="stroke:#808080;stroke-width:8.64"/>
	<line x1="3457.82" y1="1499.28" x2="3475.52" y2="1499.28" style="stroke:#808080;stroke-width:8.64"/>
	<line x1="3475.52" y1="1499.28" x2="3475.52" y2="1501.13" style="stroke:#808080;stroke-width:8.64"/>
	<line x1="3475.52" y1="1501.13" x2="3480.84" y2="1501.13" style="stroke:#808080;stroke-width:8.64"/>
	<line x1="3496.80" y1="1499.90" x2="3511.03" y2="1499.90" style="stroke:#808080;stroke-width:8.64"/>
	<line x1="3511.03" y1="1499.90" x2="3511.03" y2="1496.18" style="stroke:#808080;stroke-width:8.64"/>
	<line x1="3511.03" y1="1496.18" x2="3528.86" y2="1496.18" style="stroke:#808080;stroke-width:8.64"/>
	<line x1="3528.86" y1="1496.18" x2="3528.86" y2="1491.73" style="stroke:#808080;stroke-width:8.64"/>
	<line x1="3528.86" y1="1491.73" x2="3528.98" y2="1491.73" style="stroke:#808080;stroke-width:8.64"/>
	<line x1="3546.30" y1="1491.73" x2="3546.55" y2="1491.73" style="stroke:#808080;stroke-width:8.64"/>
	<line x1="3546.55" y1="1491.73" x2="3546.55" y2="1497.05" style="stroke:#808080;stroke-width:8.64"/>
	<line x1="3546.55" y1="1497.05" x2="3564.37" y2="1497.05" style="stroke:#808080;stroke-width:8.64"/>
	<line x1="3564.37" y1="1497.05" x2="3564.37" y2="1496.93" style="stroke:#808080;stroke-width:8.64"/>
	<line x1="3564.37" y1="1496.93" x2="3581.08" y2="1496.93" style="stroke:#808080;stroke-width:8.64"/>
	<line x1="3594.57" y1="1493.09" x2="3599.89" y2="1493.09" style="stroke:#808080;stroke-width:8.64"/>
	<line x1="3599.89" y1="1493.09" x2="3599.89" y2="1488.26" style="stroke:#808080;stroke-width:8.64"/>
	<line x1="3599.89" y1="1488.26" x2="3617.58" y2="1488.26" style="stroke:#808080;stroke-width:8.64"/>
	<line x1="3617.58" y1="1488.26" x2="3617.58" y2="1488.14" style="stroke:#808080;stroke-width:8.64"/>
	<line x1="3617.58" y1="1488.14" x2="3629.96" y2="1488.14" style="stroke:#808080;stroke-width:8.64"/>
	<line x1="3641.22" y1="1482.20" x2="3653.10" y2="1482.20" style="stroke:#808080;stroke-width:8.64"/>
	<line x1="3653.10" y1="1482.20" x2="3653.10" y2="1480.59" style="stroke:#808080;stroke-width:8.64"/>
	<line x1="3653.10" y1="1480.59" x2="3670.92" y2="1480.59" style="stroke:#808080;stroke-width:8.64"/>
	<line x1="3670.92" y1="1480.59" x2="3670.92" y2="1477.74" style="stroke:#808080;stroke-width:8.64"/>
	<line x1="3670.92" y1="1477.74" x2="3677.11" y2="1477.74" style="stroke:#808080;stroke-width:8.64"/>
	<line x1="3688.62" y1="1472.05" x2="3688.62" y2="1467.47" style="stroke:#808080;stroke-width:8.64"/>
	<line x1="3688.62" y1="1467.47" x2="3706.44" y2="1467.47" style="stroke:#808080;stroke-width:8.64"/>
	<line x1="3706.44" y1="1467.47" x2="3706.44" y2="1471.56" style="stroke:#808080;stroke-width:8.64"/>
	<line x1="3706.44" y1="1471.56" x2="3720.30" y2="1471.56" style="stroke:#808080;stroke-width:8.64"/>
	<line x1="3735.64" y1="1469.70" x2="3741.95" y2="1469.70" style="stroke:#808080;stroke-width:8.64"/>
	<line x1="3741.95" y1="1469.70" x2="3741.95" y2="1471.31" style="stroke:#808080;stroke-width:8.64"/>
	<line x1="3741.95" y1="1471.31" x2="3759.65" y2="1471.31" style="stroke:#808080;stroke-width:8.64"/>
	<line x1="3759.65" y1="1471.31" x2="3759.65" y2="1473.41" style="stroke:#808080;stroke-width:8.64"/>
	<line x1="3759.65" y1="1473.41" x2="3772.27" y2="1473.41" style="stroke:#808080;stroke-width:8.64"/>
	<line x1="3783.53" y1="1467.47" x2="3795.16" y2="1467.47" style="stroke:#808080;stroke-width:8.64"/>
	<line x1="3795.16" y1="1467.47" x2="3795.16" y2="1458.69" style="stroke:#808080;stroke-width:8.64"/>
	<path d="" stroke-linejoin="round" style="fill:none;stroke:#808080;stroke-width:8.64"/>
	<path d=" M616.65 1637.63 L634.47 1637.63 L634.47 1636.89 L652.16 1636.89 L652.16 1638.01 L669.98 1638.01 L669.98 1644.57 L687.68 1644.57 L687.68 1643.45 L705.50 1643.45 L705.50 1651.62 L723.20 1651.62 L723.20 1657.44 L741.01 1657.44 L741.01 1649.76 L758.71 1649.76 L758.71 1650.01 L776.53 1650.01 L776.53 1660.78 L794.23 1660.78 L794.23 1660.41 L812.05 1660.41 L812.05 1656.45 L829.74 1656.45 L829.74 1665.97 L847.44 1665.97 L847.44 1662.63 L865.26 1662.63 L865.26 1662.88 L882.96 1662.88 L882.96 1663.50 L900.78 1663.50 L900.78 1673.15 L918.47 1673.15 L918.47 1678.97 L936.29 1678.97 L936.29 1686.15 L953.99 1686.15 L953.99 1688.62 L971.81 1688.62 L971.81 1692.21 L989.50 1692.21 L989.50 1686.52 L1007.33 1686.52 L1007.33 1687.26 L1025.02 1687.26 L1025.02 1687.63 L1042.84 1687.63 L1042.84 1697.04 L1060.54 1697.04 L1060.54 1689.74 L1078.36 1689.74 L1078.36 1696.29 L1096.05 1696.29 L1096.05 1701.12 L1113.87 1701.12 L1113.87 1705.33 L1131.57 1705.33 L1131.57 1715.97 L1149.39 1715.97 L1149.39 1719.81 L1167.09 1719.81 L1167.09 1722.28 L1184.91 1722.28 L1184.91 1717.46 L1202.60 1717.46 L1202.60 1726.61 L1220.42 1726.61 L1220.42 1732.31 L1238.12 1732.31 L1238.12 1724.26 L1255.94 1724.26 L1255.94 1726.24 L1273.63 1726.24 L1273.63 1721.91 L1291.45 1721.91 L1291.45 1719.31 L1309.15 1719.31 L1309.15 1720.80 L1326.97 1720.80 L1326.97 1721.91 L1344.67 1721.91 L1344.67 1723.89 L1362.49 1723.89 L1362.49 1717.83 L1380.18 1717.83 L1380.18 1720.80 L1398.00 1720.80 L1398.00 1719.81 L1415.70 1719.81 L1415.70 1720.18 L1433.52 1720.18 L1433.52 1724.39 L1451.22 1724.39 L1451.22 1726.49 L1469.04 1726.49 L1469.04 1723.15 L1486.73 1723.15 L1486.73 1716.34 L1504.55 1716.34 L1504.55 1719.31 L1522.25 1719.31 L1522.25 1712.26 L1540.07 1712.26 L1540.07 1712.88 L1557.77 1712.88 L1557.77 1718.94 L1575.59 1718.94 L1575.59 1717.08 L1593.28 1717.08 L1593.28 1714.11 L1611.10 1714.11 L1611.10 1710.77 L1628.80 1710.77 L1628.80 1719.31 L1646.62 1719.31 L1646.62 1724.76 L1664.31 1724.76 L1664.31 1725.01 L1682.13 1725.01 L1682.13 1724.76 L1699.83 1724.76 L1699.83 1730.33 L1717.65 1730.33 L1717.65 1724.76 L1735.35 1724.76 L1735.35 1722.04 L1753.17 1722.04 L1753.17 1732.68 L1770.86 1732.68 L1770.86 1722.65 L1788.68 1722.65 L1788.68 1728.47 L1806.38 1728.47 L1806.38 1729.09 L1824.20 1729.09 L1824.20 1723.40 L1841.89 1723.40 L1841.89 1720.43 L1859.71 1720.43 L1859.71 1715.60 L1877.41 1715.60 L1877.41 1715.60 L1895.23 1715.60 L1895.23 1717.83 L1912.93 1717.83 L1912.93 1713.62 L1930.75 1713.62 L1930.75 1710.28 L1948.44 1710.28 L1948.44 1708.30 L1966.26 1708.30 L1966.26 1704.96 L1983.96 1704.96 L1983.96 1702.61 L2001.78 1702.61 L2001.78 1692.58 L2019.48 1692.58 L2019.48 1689.36 L2037.30 1689.36 L2037.30 1679.96 L2054.99 1679.96 L2054.99 1686.77 L2072.69 1686.77 L2072.69 1687.63 L2090.51 1687.63 L2090.51 1687.26 L2108.20 1687.26 L2108.20 1691.10 L2126.03 1691.10 L2126.03 1686.02 L2143.72 1686.02 L2143.72 1677.36 L2161.54 1677.36 L2161.54 1667.21 L2179.24 1667.21 L2179.24 1661.40 L2197.06 1661.40 L2197.06 1662.26 L2214.75 1662.26 L2214.75 1663.25 L2232.57 1663.25 L2232.57 1660.28 L2250.27 1660.28 L2250.27 1664.24 L2268.09 1664.24 L2268.09 1658.05 L2285.79 1658.05 L2285.79 1654.71 L2303.61 1654.71 L2303.61 1650.88 L2321.30 1650.88 L2321.30 1643.82 L2339.12 1643.82 L2339.12 1637.39 L2356.82 1637.39 L2356.82 1627.73 L2374.64 1627.73 L2374.64 1627.12 L2392.34 1627.12 L2392.34 1626.00 L2410.16 1626.00 L2410.16 1616.97 L2427.85 1616.97 L2427.85 1612.39 L2445.67 1612.39 L2445.67 1612.02 L2463.37 1612.02 L2463.37 1608.18 L2481.19 1608.18 L2481.19 1609.54 L2498.88 1609.54 L2498.88 1602.86 L2516.70 1602.86 L2516.70 1601.99 L2534.40 1601.99 L2534.40 1597.91 L2552.22 1597.91 L2552.22 1591.60 L2569.92 1591.60 L2569.92 1592.71 L2587.74 1592.71 L2587.74 1587.02 L2605.43 1587.02 L2605.43 1580.83 L2623.25 1580.83 L2623.25 1575.63 L2640.95 1575.63 L2640.95 1577.61 L2658.77 1577.61 L2658.77 1578.60 L2676.47 1578.60 L2676.47 1573.65 L2694.28 1573.65 L2694.28 1576.01 L2711.98 1576.01 L2711.98 1572.54 L2729.80 1572.54 L2729.80 1574.77 L2747.50 1574.77 L2747.50 1576.75 L2765.32 1576.75 L2765.32 1573.65 L2783.01 1573.65 L2783.01 1566.60 L2800.83 1566.60 L2800.83 1570.44 L2818.53 1570.44 L2818.53 1565.12 L2836.35 1565.12 L2836.35 1556.58 L2854.05 1556.58 L2854.05 1554.72 L2871.87 1554.72 L2871.87 1551.75 L2889.56 1551.75 L2889.56 1548.04 L2907.38 1548.04 L2907.38 1541.60 L2925.08 1541.60 L2925.08 1541.85 L2942.90 1541.85 L2942.90 1542.34 L2960.59 1542.34 L2960.59 1528.36 L2978.41 1528.36 L2978.41 1522.92 L2996.11 1522.92 L2996.11 1527.25 L3013.93 1527.25 L3013.93 1525.64 L3031.63 1525.64 L3031.63 1523.41 L3049.45 1523.41 L3049.45 1520.07 L3067.14 1520.07 L3067.14 1522.17 L3084.96 1522.17 L3084.96 1523.29 L3102.66 1523.29 L3102.66 1516.60 L3120.48 1516.60 L3120.48 1512.02 L3138.18 1512.02 L3138.18 1508.56 L3156.00 1508.56 L3156.00 1508.56 L3173.69 1508.56 L3173.69 1505.71 L3191.51 1505.71 L3191.51 1502.12 L3209.21 1502.12 L3209.21 1505.96 L3227.03 1505.96 L3227.03 1508.56 L3244.72 1508.56 L3244.72 1507.94 L3262.55 1507.94 L3262.55 1500.27 L3280.24 1500.27 L3280.24 1504.85 L3297.94 1504.85 L3297.94 1504.97 L3315.76 1504.97 L3315.76 1502.12 L3333.45 1502.12 L3333.45 1505.22 L3351.27 1505.22 L3351.27 1504.85 L3368.97 1504.85 L3368.97 1498.16 L3386.79 1498.16 L3386.79 1492.10 L3404.49 1492.10 L3404.49 1491.98 L3422.31 1491.98 L3422.31 1494.20 L3440.00 1494.20 L3440.00 1489.01 L3457.82 1489.01 L3457.82 1480.96 L3475.52 1480.96 L3475.52 1482.57 L3493.34 1482.57 L3493.34 1483.81 L3511.03 1483.81 L3511.03 1482.94 L3528.86 1482.94 L3528.86 1479.11 L3546.55 1479.11 L3546.55 1475.02 L3564.37 1475.02 L3564.37 1471.19 L3582.07 1471.19 L3582.07 1466.98 L3599.89 1466.98 L3599.89 1460.67 L3617.58 1460.67 L3617.58 1460.17 L3635.40 1460.17 L3635.40 1462.52 L3653.10 1462.52 L3653.10 1455.96 L3670.92 1455.96 L3670.92 1451.14 L3688.62 1451.14 L3688.62 1447.05 L3706.44 1447.05 L3706.44 1448.91 L3724.13 1448.91 L3724.13 1445.20 L3741.95 1445.20 L3741.95 1449.65 L3759.65 1449.65 L3759.65 1444.70 L3777.47 1444.70 L3777.47 1447.67 L3795.16 1447.67 L3795.16 1448.04" stroke-linejoin="round" style="fill:none;stroke:#000000;stroke-width:8.64"/>
	<line x1="388.57" y1="2509.23" x2="388.57" y2="419.90" style="stroke:#000000;stroke-width:5.76"/>
	<line x1="388.57" y1="2322.49" x2="348.60" y2="2322.49" style="stroke:#000000;stroke-width:5.76"/>
	<text x="298.50" y="2322.49" style="font-family:'Helvetica';font-size:99.99px;fill:#000000" transform="rotate(-90 298.50,2322.49)" text-anchor="middle">-.04</text>
	<line x1="388.57" y1="1954.69" x2="348.60" y2="1954.69" style="stroke:#000000;stroke-width:5.76"/>
	<text x="298.50" y="1954.69" style="font-family:'Helvetica';font-size:99.99px;fill:#000000" transform="rotate(-90 298.50,1954.69)" text-anchor="middle">-.02</text>
	<line x1="388.57" y1="1586.77" x2="348.60" y2="1586.77" style="stroke:#000000;stroke-width:5.76"/>
	<text x="298.50" y="1586.77" style="font-family:'Helvetica';font-size:99.99px;fill:#000000" transform="rotate(-90 298.50,1586.77)" text-anchor="middle">0</text>
	<line x1="388.57" y1="1218.98" x2="348.60" y2="1218.98" style="stroke:#000000;stroke-width:5.76"/>
	<text x="298.50" y="1218.98" style="font-family:'Helvetica';font-size:99.99px;fill:#000000" transform="rotate(-90 298.50,1218.98)" text-anchor="middle">.02</text>
	<line x1="388.57" y1="851.18" x2="348.60" y2="851.18" style="stroke:#000000;stroke-width:5.76"/>
	<text x="298.50" y="851.18" style="font-family:'Helvetica';font-size:99.99px;fill:#000000" transform="rotate(-90 298.50,851.18)" text-anchor="middle">.04</text>
	<line x1="388.57" y1="483.26" x2="348.60" y2="483.26" style="stroke:#000000;stroke-width:5.76"/>
	<text x="298.50" y="483.26" style="font-family:'Helvetica';font-size:99.99px;fill:#000000" transform="rotate(-90 298.50,483.26)" text-anchor="middle">.06</text>
	<text x="190.71" y="1464.63" style="font-family:'Helvetica';font-size:99.99px;fill:#000000" transform="rotate(-90 190.71,1464.63)" text-anchor="middle">Difference in Lengths</text>
	<line x1="388.57" y1="2509.23" x2="3859.02" y2="2509.23" style="stroke:#000000;stroke-width:5.76"/>
	<line x1="451.94" y1="2509.23" x2="451.94" y2="2549.21" style="stroke:#000000;stroke-width:5.76"/>
	<text x="451.94" y="2625.15" style="font-family:'Helvetica';font-size:79.94px;fill:#000000" text-anchor="middle">0</text>
	<line x1="652.53" y1="2509.23" x2="652.53" y2="2549.21" style="stroke:#000000;stroke-width:5.76"/>
	<text x="652.53" y="2625.15" style="font-family:'Helvetica';font-size:79.94px;fill:#000000" text-anchor="middle">.3</text>
	<line x1="853.13" y1="2509.23" x2="853.13" y2="2549.21" style="stroke:#000000;stroke-width:5.76"/>
	<text x="853.13" y="2625.15" style="font-family:'Helvetica';font-size:79.94px;fill:#000000" text-anchor="middle">.6</text>
	<line x1="1053.86" y1="2509.23" x2="1053.86" y2="2549.21" style="stroke:#000000;stroke-width:5.76"/>
	<text x="1053.86" y="2625.15" style="font-family:'Helvetica';font-size:79.94px;fill:#000000" text-anchor="middle">.9</text>
	<line x1="1254.45" y1="2509.23" x2="1254.45" y2="2549.21" style="stroke:#000000;stroke-width:5.76"/>
	<text x="1254.45" y="2625.15" style="font-family:'Helvetica';font-size:79.94px;fill:#000000" text-anchor="middle">1.2</text>
	<line x1="1455.05" y1="2509.23" x2="1455.05" y2="2549.21" style="stroke:#000000;stroke-width:5.76"/>
	<text x="1455.05" y="2625.15" style="font-family:'Helvetica';font-size:79.94px;fill:#000000" text-anchor="middle">1.5</text>
	<line x1="1655.65" y1="2509.23" x2="1655.65" y2="2549.21" style="stroke:#000000;stroke-width:5.76"/>
	<text x="1655.65" y="2625.15" style="font-family:'Helvetica';font-size:79.94px;fill:#000000" text-anchor="middle">1.8</text>
	<line x1="1856.37" y1="2509.23" x2="1856.37" y2="2549.21" style="stroke:#000000;stroke-width:5.76"/>
	<text x="1856.37" y="2625.15" style="font-family:'Helvetica';font-size:79.94px;fill:#000000" text-anchor="middle">2.1</text>
	<line x1="2056.97" y1="2509.23" x2="2056.97" y2="2549.21" style="stroke:#000000;stroke-width:5.76"/>
	<text x="2056.97" y="2625.15" style="font-family:'Helvetica';font-size:79.94px;fill:#000000" text-anchor="middle">2.4</text>
	<line x1="2257.57" y1="2509.23" x2="2257.57" y2="2549.21" style="stroke:#000000;stroke-width:5.76"/>
	<text x="2257.57" y="2625.15" style="font-family:'Helvetica';font-size:79.94px;fill:#000000" text-anchor="middle">2.7</text>
	<line x1="2458.17" y1="2509.23" x2="2458.17" y2="2549.21" style="stroke:#000000;stroke-width:5.76"/>
	<text x="2458.17" y="2625.15" style="font-family:'Helvetica';font-size:79.94px;fill:#000000" text-anchor="middle">3</text>
	<line x1="2658.89" y1="2509.23" x2="2658.89" y2="2549.21" style="stroke:#000000;stroke-width:5.76"/>
	<text x="2658.89" y="2625.15" style="font-family:'Helvetica';font-size:79.94px;fill:#000000" text-anchor="middle">3.3</text>
	<line x1="2859.49" y1="2509.23" x2="2859.49" y2="2549.21" style="stroke:#000000;stroke-width:5.76"/>
	<text x="2859.49" y="2625.15" style="font-family:'Helvetica';font-size:79.94px;fill:#000000" text-anchor="middle">3.6</text>
	<line x1="3060.09" y1="2509.23" x2="3060.09" y2="2549.21" style="stroke:#000000;stroke-width:5.76"/>
	<text x="3060.09" y="2625.15" style="font-family:'Helvetica';font-size:79.94px;fill:#000000" text-anchor="middle">3.9</text>
	<line x1="3260.69" y1="2509.23" x2="3260.69" y2="2549.21" style="stroke:#000000;stroke-width:5.76"/>
	<text x="3260.69" y="2625.15" style="font-family:'Helvetica';font-size:79.94px;fill:#000000" text-anchor="middle">4.2</text>
	<line x1="3461.29" y1="2509.23" x2="3461.29" y2="2549.21" style="stroke:#000000;stroke-width:5.76"/>
	<text x="3461.29" y="2625.15" style="font-family:'Helvetica';font-size:79.94px;fill:#000000" text-anchor="middle">4.5</text>
	<line x1="3662.01" y1="2509.23" x2="3662.01" y2="2549.21" style="stroke:#000000;stroke-width:5.76"/>
	<text x="3662.01" y="2625.15" style="font-family:'Helvetica';font-size:79.94px;fill:#000000" text-anchor="middle">4.8</text>
	<line x1="3862.61" y1="2509.23" x2="3862.61" y2="2549.21" style="stroke:#000000;stroke-width:5.76"/>
	<text x="3862.61" y="2625.15" style="font-family:'Helvetica';font-size:79.94px;fill:#000000" text-anchor="middle">5.1</text>
	<text x="2123.80" y="2729.16" style="font-family:'Helvetica';font-size:99.99px;fill:#000000" text-anchor="middle">Time (years)</text>
	<rect x="423.10" y="454.42" width="2369.69" height="326.46" style="fill:#FFFFFF"/>
	<rect x="425.98" y="457.30" width="2363.93" height="320.70" style="fill:none;stroke:#000000;stroke-width:5.76"/>
	<rect x="466.29" y="497.74" width="374.47" height="99.99" style="fill:#999999;fill-opacity:0.65"/>
	<rect x="470.61" y="502.06" width="365.83" height="91.35" style="fill:none;stroke:#808080;stroke-opacity:0.65;stroke-width:8.64"/>
	<line x1="1597.74" y1="547.73" x2="1638.08" y2="547.73" style="stroke:#808080;stroke-width:8.64"/>
	<line x1="1655.28" y1="547.73" x2="1695.62" y2="547.73" style="stroke:#808080;stroke-width:8.64"/>
	<line x1="1712.82" y1="547.73" x2="1753.17" y2="547.73" style="stroke:#808080;stroke-width:8.64"/>
	<line x1="1770.37" y1="547.73" x2="1810.71" y2="547.73" style="stroke:#808080;stroke-width:8.64"/>
	<line x1="1828.04" y1="547.73" x2="1868.38" y2="547.73" style="stroke:#808080;stroke-width:8.64"/>
	<line x1="1885.58" y1="547.73" x2="1925.92" y2="547.73" style="stroke:#808080;stroke-width:8.64"/>
	<line x1="1943.12" y1="547.73" x2="1972.20" y2="547.73" style="stroke:#808080;stroke-width:8.64"/>
	<rect x="466.29" y="637.70" width="374.47" height="99.99" style="fill:#595959;fill-opacity:0.65"/>
	<rect x="470.61" y="642.02" width="365.83" height="91.35" style="fill:none;stroke:#303030;stroke-opacity:0.65;stroke-width:8.64"/>
	<line x1="1597.74" y1="687.70" x2="1972.20" y2="687.70" style="stroke:#000000;stroke-width:8.64"/>
	<text x="900.78" y="582.76" style="font-family:'Helvetica';font-size:99.99px;fill:#000000">CI95% Amb</text>
	<text x="2032.22" y="582.76" style="font-family:'Helvetica';font-size:99.99px;fill:#000000">Difference Amb</text>
	<text x="900.78" y="722.73" style="font-family:'Helvetica';font-size:99.99px;fill:#000000">CI95% Res</text>
	<text x="2032.22" y="722.73" style="font-family:'Helvetica';font-size:99.99px;fill:#000000">Difference Res</text>
	<text x="2123.80" y="369.63" style="fill:#000000" text-anchor="middle">
		<tspan style="font-family:'Helvetica';font-size:110.01px">from2</tspan>
		<tspan dy="-57.63px" style="font-family:'Helvetica';font-size:64.14px">nd</tspan>
		<tspan dy="57.63px" style="font-family:'Helvetica';font-size:110.01px">Readmission</tspan>
	</text>
	<text x="2123.80" y="215.98" style="font-family:'Helvetica';font-size:139.96px;fill:#1E2D53" text-anchor="middle">Difference in Probabilities (Comp. vs. No-Comp.) 3yrs</text>
</svg>
