<?xml version="1.0" encoding="UTF-8" standalone="no"?>
<!-- This is a Stata 16.1 generated SVG file (http://www.stata.com) -->

<svg version="1.1" width="5.50in" height="4.00in" viewBox="0 0 3960 2880" xmlns="http://www.w3.org/2000/svg" xmlns:xlink="http://www.w3.org/1999/xlink">
	<desc>Stata Graph - diff_mod12</desc>
	<rect x="0" y="0" width="3960" height="2880" style="fill:#EAF2F3;stroke:none"/>
	<rect x="0.00" y="0.00" width="3959.88" height="2880.00" style="fill:#FFFFFF"/>
	<rect x="2.88" y="2.88" width="3954.12" height="2874.24" style="fill:none;stroke:#FFFFFF;stroke-width:5.76"/>
	<rect x="559.10" y="419.90" width="3299.92" height="2089.34" style="fill:#FFFFFF"/>
	<rect x="561.98" y="422.78" width="3294.16" height="2083.58" style="fill:none;stroke:#FFFFFF;stroke-width:5.76"/>
	<line x1="559.10" y1="2200.59" x2="3859.02" y2="2200.59" style="stroke:#EAF2F3;stroke-width:8.64"/>
	<line x1="559.10" y1="1955.19" x2="3859.02" y2="1955.19" style="stroke:#EAF2F3;stroke-width:8.64"/>
	<line x1="559.10" y1="1709.91" x2="3859.02" y2="1709.91" style="stroke:#EAF2F3;stroke-width:8.64"/>
	<line x1="559.10" y1="1464.63" x2="3859.02" y2="1464.63" style="stroke:#EAF2F3;stroke-width:8.64"/>
	<line x1="559.10" y1="1219.22" x2="3859.02" y2="1219.22" style="stroke:#EAF2F3;stroke-width:8.64"/>
	<line x1="559.10" y1="973.94" x2="3859.02" y2="973.94" style="stroke:#EAF2F3;stroke-width:8.64"/>
	<line x1="559.10" y1="728.66" x2="3859.02" y2="728.66" style="stroke:#EAF2F3;stroke-width:8.64"/>
	<line x1="559.10" y1="1464.63" x2="3859.02" y2="1464.63" style="stroke:#1A476F;stroke-width:8.64"/>
	<defs>
		<path id="path_SzDhcMLK" d="M778.88 1446.06 L778.88 1446.06 L795.71 1446.06 L795.71 1443.71 L812.54 1443.71 L812.54 1440.99 L829.37 1440.99 L829.37 1439.01 L846.20 1439.01 L846.20 1436.41 L863.16 1436.41 L863.16 1433.81 L879.99 1433.81 L879.99 1431.83 L896.82 1431.83 L896.82 1430.35 L913.65 1430.35 L913.65 1428.74 L930.48 1428.74 L930.48 1426.76 L947.31 1426.76 L947.31 1425.15 L964.26 1425.15 L964.26 1423.29 L981.09 1423.29 L981.09 1422.06 L997.92 1422.06 L997.92 1421.07 L1014.75 1421.07 L1014.75 1419.21 L1031.58 1419.21 L1031.58 1418.10 L1048.53 1418.10 L1048.53 1416.61 L1065.36 1416.61 L1065.36 1415.37 L1082.19 1415.37 L1082.19 1414.38 L1099.02 1414.38 L1099.02 1413.64 L1115.85 1413.64 L1115.85 1412.90 L1132.68 1412.90 L1132.68 1411.66 L1149.64 1411.66 L1149.64 1410.92 L1166.47 1410.92 L1166.47 1409.68 L1183.30 1409.68 L1183.30 1408.94 L1200.13 1408.94 L1200.13 1408.57 L1216.96 1408.57 L1216.96 1407.82 L1233.79 1407.82 L1233.79 1407.33 L1250.74 1407.33 L1250.74 1406.46 L1267.57 1406.46 L1267.57 1405.97 L1284.40 1405.97 L1284.40 1405.47 L1301.23 1405.47 L1301.23 1405.47 L1318.06 1405.47 L1318.06 1405.72 L1334.89 1405.72 L1334.89 1405.10 L1351.85 1405.10 L1351.85 1404.61 L1368.67 1404.61 L1368.67 1404.61 L1385.51 1404.61 L1385.51 1404.48 L1402.34 1404.48 L1402.34 1403.86 L1419.16 1403.86 L1419.16 1403.62 L1436.12 1403.62 L1436.12 1403.49 L1452.95 1403.49 L1452.95 1403.12 L1469.78 1403.12 L1469.78 1402.63 L1486.61 1402.63 L1486.61 1402.87 L1503.44 1402.87 L1503.44 1402.63 L1520.27 1402.63 L1520.27 1402.38 L1537.22 1402.38 L1537.22 1401.76 L1554.05 1401.76 L1554.05 1401.76 L1570.88 1401.76 L1570.88 1401.64 L1587.71 1401.64 L1587.71 1401.27 L1604.54 1401.27 L1604.54 1401.14 L1621.37 1401.14 L1621.37 1401.14 L1638.33 1401.14 L1638.33 1401.02 L1655.16 1401.02 L1655.16 1400.77 L1671.99 1400.77 L1671.99 1400.52 L1688.82 1400.52 L1688.82 1400.28 L1705.65 1400.28 L1705.65 1400.28 L1722.48 1400.28 L1722.48 1400.28 L1739.43 1400.28 L1739.43 1400.15 L1756.26 1400.15 L1756.26 1400.52 L1773.09 1400.52 L1773.09 1400.65 L1789.92 1400.65 L1789.92 1400.77 L1806.75 1400.77 L1806.75 1401.27 L1823.70 1401.27 L1823.70 1401.51 L1840.53 1401.51 L1840.53 1401.14 L1857.36 1401.14 L1857.36 1401.27 L1874.19 1401.27 L1874.19 1401.14 L1891.02 1401.14 L1891.02 1401.39 L1907.85 1401.39 L1907.85 1401.27 L1924.81 1401.27 L1924.81 1401.39 L1941.64 1401.39 L1941.64 1401.64 L1958.47 1401.64 L1958.47 1402.01 L1975.30 1402.01 L1975.30 1402.26 L1992.13 1402.26 L1992.13 1402.50 L2008.96 1402.50 L2008.96 1402.63 L2025.91 1402.63 L2025.91 1402.87 L2042.74 1402.87 L2042.74 1402.87 L2059.57 1402.87 L2059.57 1403.37 L2076.40 1403.37 L2076.40 1403.74 L2093.23 1403.74 L2093.23 1403.86 L2110.18 1403.86 L2110.18 1403.99 L2127.01 1403.99 L2127.01 1404.11 L2143.84 1404.11 L2143.84 1404.24 L2160.68 1404.24 L2160.68 1404.73 L2177.51 1404.73 L2177.51 1405.10 L2194.34 1405.10 L2194.34 1404.98 L2211.29 1404.98 L2211.29 1405.23 L2228.12 1405.23 L2228.12 1405.60 L2244.95 1405.60 L2244.95 1405.84 L2261.78 1405.84 L2261.78 1405.97 L2278.61 1405.97 L2278.61 1406.22 L2295.44 1406.22 L2295.44 1406.22 L2312.39 1406.22 L2312.39 1406.22 L2329.22 1406.22 L2329.22 1406.59 L2346.05 1406.59 L2346.05 1406.83 L2362.88 1406.83 L2362.88 1406.83 L2379.71 1406.83 L2379.71 1407.08 L2396.54 1407.08 L2396.54 1407.21 L2413.50 1407.21 L2413.50 1407.21 L2430.33 1407.21 L2430.33 1407.58 L2447.16 1407.58 L2447.16 1407.95 L2463.99 1407.95 L2463.99 1407.82 L2480.82 1407.82 L2480.82 1407.95 L2497.77 1407.95 L2497.77 1408.07 L2514.60 1408.07 L2514.60 1408.07 L2531.43 1408.07 L2531.43 1407.82 L2548.26 1407.82 L2548.26 1407.82 L2565.09 1407.82 L2565.09 1407.82 L2581.92 1407.82 L2581.92 1408.32 L2598.87 1408.32 L2598.87 1408.81 L2615.70 1408.81 L2615.70 1409.06 L2632.53 1409.06 L2632.53 1409.43 L2649.36 1409.43 L2649.36 1409.56 L2666.19 1409.56 L2666.19 1409.68 L2683.02 1409.68 L2683.02 1409.68 L2699.98 1409.68 L2699.98 1409.56 L2716.81 1409.56 L2716.81 1409.56 L2733.64 1409.56 L2733.64 1409.93 L2750.47 1409.93 L2750.47 1409.80 L2767.30 1409.80 L2767.30 1409.93 L2784.25 1409.93 L2784.25 1409.93 L2801.08 1409.93 L2801.08 1410.05 L2817.91 1410.05 L2817.91 1410.18 L2834.74 1410.18 L2834.74 1410.67 L2851.57 1410.67 L2851.57 1410.55 L2868.40 1410.55 L2868.40 1410.79 L2885.36 1410.79 L2885.36 1411.04 L2902.18 1411.04 L2902.18 1411.04 L2919.01 1411.04 L2919.01 1411.04 L2935.84 1411.04 L2935.84 1411.29 L2952.68 1411.29 L2952.68 1411.29 L2969.51 1411.29 L2969.51 1411.04 L2986.46 1411.04 L2986.46 1411.04 L3003.29 1411.04 L3003.29 1411.04 L3020.12 1411.04 L3020.12 1411.29 L3036.95 1411.29 L3036.95 1411.54 L3053.78 1411.54 L3053.78 1411.54 L3070.61 1411.54 L3070.61 1411.78 L3087.56 1411.78 L3087.56 1411.78 L3104.39 1411.78 L3104.39 1411.54 L3121.22 1411.54 L3121.22 1411.78 L3138.05 1411.78 L3138.05 1412.03 L3154.88 1412.03 L3154.88 1412.53 L3171.84 1412.53 L3171.84 1412.28 L3188.67 1412.28 L3188.67 1412.40 L3205.50 1412.40 L3205.50 1412.40 L3222.33 1412.40 L3222.33 1412.28 L3239.16 1412.28 L3239.16 1412.53 L3255.99 1412.53 L3255.99 1412.65 L3272.94 1412.65 L3272.94 1412.40 L3289.77 1412.40 L3289.77 1412.65 L3306.60 1412.65 L3306.60 1412.90 L3323.43 1412.90 L3323.43 1412.90 L3340.26 1412.90 L3340.26 1412.77 L3357.09 1412.77 L3357.09 1413.02 L3374.04 1413.02 L3374.04 1413.02 L3390.87 1413.02 L3390.87 1413.02 L3407.70 1413.02 L3407.70 1413.02 L3424.53 1413.02 L3424.53 1413.39 L3441.36 1413.39 L3441.36 1413.64 L3458.19 1413.64 L3458.19 1413.89 L3475.15 1413.89 L3475.15 1413.76 L3491.98 1413.76 L3491.98 1413.64 L3508.81 1413.64 L3508.81 1413.76 L3525.64 1413.76 L3525.64 1414.01 L3542.47 1414.01 L3542.47 1414.01 L3559.42 1414.01 L3559.42 1414.51 L3576.25 1414.51 L3576.25 1414.75 L3593.08 1414.75 L3593.08 1414.75 L3609.91 1414.75 L3609.91 1415.13 L3626.74 1415.13 L3626.74 1415.13 L3643.57 1415.13 L3643.57 1415.00 L3660.53 1415.00 L3660.53 1415.13 L3677.36 1415.13 L3677.36 1415.25 L3694.18 1415.25 L3694.18 1415.25 L3711.01 1415.25 L3711.01 1415.50 L3727.84 1415.50 L3727.84 1415.74 L3744.68 1415.74 L3744.68 1415.74 L3761.63 1415.74 L3761.63 1415.62 L3778.46 1415.62 L3778.46 1415.87 L3795.29 1415.87 L3795.29 1416.12 L3795.29 1397.55 L3795.29 1397.30 L3778.46 1397.30 L3778.46 1397.18 L3761.63 1397.18 L3761.63 1397.30 L3744.68 1397.30 L3744.68 1397.43 L3727.84 1397.43 L3727.84 1397.06 L3711.01 1397.06 L3711.01 1396.81 L3694.18 1396.81 L3694.18 1396.93 L3677.36 1396.93 L3677.36 1396.69 L3660.53 1396.69 L3660.53 1396.69 L3643.57 1396.69 L3643.57 1396.81 L3626.74 1396.81 L3626.74 1396.81 L3609.91 1396.81 L3609.91 1396.44 L3593.08 1396.44 L3593.08 1396.56 L3576.25 1396.56 L3576.25 1396.19 L3559.42 1396.19 L3559.42 1395.82 L3542.47 1395.82 L3542.47 1395.82 L3525.64 1395.82 L3525.64 1395.57 L3508.81 1395.57 L3508.81 1395.57 L3491.98 1395.57 L3491.98 1395.70 L3475.15 1395.70 L3475.15 1395.82 L3458.19 1395.82 L3458.19 1395.57 L3441.36 1395.57 L3441.36 1395.32 L3424.53 1395.32 L3424.53 1394.95 L3407.70 1394.95 L3407.70 1394.95 L3390.87 1394.95 L3390.87 1394.95 L3374.04 1394.95 L3374.04 1395.08 L3357.09 1395.08 L3357.09 1394.83 L3340.26 1394.83 L3340.26 1394.95 L3323.43 1394.95 L3323.43 1394.95 L3306.60 1394.95 L3306.60 1394.71 L3289.77 1394.71 L3289.77 1394.58 L3272.94 1394.58 L3272.94 1394.71 L3255.99 1394.71 L3255.99 1394.58 L3239.16 1394.58 L3239.16 1394.46 L3222.33 1394.46 L3222.33 1394.58 L3205.50 1394.58 L3205.50 1394.58 L3188.67 1394.58 L3188.67 1394.46 L3171.84 1394.46 L3171.84 1394.71 L3154.88 1394.71 L3154.88 1394.33 L3138.05 1394.33 L3138.05 1394.09 L3121.22 1394.09 L3121.22 1393.84 L3104.39 1393.84 L3104.39 1394.09 L3087.56 1394.09 L3087.56 1394.09 L3070.61 1394.09 L3070.61 1393.84 L3053.78 1393.84 L3053.78 1393.72 L3036.95 1393.72 L3036.95 1393.59 L3020.12 1393.59 L3020.12 1393.34 L3003.29 1393.34 L3003.29 1393.34 L2986.46 1393.34 L2986.46 1393.47 L2969.51 1393.47 L2969.51 1393.72 L2952.68 1393.72 L2952.68 1393.59 L2935.84 1393.59 L2935.84 1393.34 L2919.01 1393.34 L2919.01 1393.34 L2902.18 1393.34 L2902.18 1393.47 L2885.36 1393.47 L2885.36 1393.22 L2868.40 1393.22 L2868.40 1393.10 L2851.57 1393.10 L2851.57 1393.10 L2834.74 1393.10 L2834.74 1392.73 L2817.91 1392.73 L2817.91 1392.48 L2801.08 1392.48 L2801.08 1392.35 L2784.25 1392.35 L2784.25 1392.48 L2767.30 1392.48 L2767.30 1392.35 L2750.47 1392.35 L2750.47 1392.48 L2733.64 1392.48 L2733.64 1392.11 L2716.81 1392.11 L2716.81 1392.23 L2699.98 1392.23 L2699.98 1392.35 L2683.02 1392.35 L2683.02 1392.35 L2666.19 1392.35 L2666.19 1392.23 L2649.36 1392.23 L2649.36 1392.11 L2632.53 1392.11 L2632.53 1391.74 L2615.70 1391.74 L2615.70 1391.61 L2598.87 1391.61 L2598.87 1391.12 L2581.92 1391.12 L2581.92 1390.62 L2565.09 1390.62 L2565.09 1390.62 L2548.26 1390.62 L2548.26 1390.62 L2531.43 1390.62 L2531.43 1390.87 L2514.60 1390.87 L2514.60 1390.87 L2497.77 1390.87 L2497.77 1390.87 L2480.82 1390.87 L2480.82 1390.75 L2463.99 1390.75 L2463.99 1390.87 L2447.16 1390.87 L2447.16 1390.62 L2430.33 1390.62 L2430.33 1390.25 L2413.50 1390.25 L2413.50 1390.25 L2396.54 1390.25 L2396.54 1390.25 L2379.71 1390.25 L2379.71 1390.00 L2362.88 1390.00 L2362.88 1390.00 L2346.05 1390.00 L2346.05 1389.76 L2329.22 1389.76 L2329.22 1389.38 L2312.39 1389.38 L2312.39 1389.38 L2295.44 1389.38 L2295.44 1389.38 L2278.61 1389.38 L2278.61 1389.26 L2261.78 1389.26 L2261.78 1389.01 L2244.95 1389.01 L2244.95 1388.77 L2228.12 1388.77 L2228.12 1388.52 L2211.29 1388.52 L2211.29 1388.27 L2194.34 1388.27 L2194.34 1388.39 L2177.51 1388.39 L2177.51 1388.15 L2160.68 1388.15 L2160.68 1387.65 L2143.84 1387.65 L2143.84 1387.53 L2127.01 1387.53 L2127.01 1387.53 L2110.18 1387.53 L2110.18 1387.40 L2093.23 1387.40 L2093.23 1387.28 L2076.40 1387.28 L2076.40 1387.03 L2059.57 1387.03 L2059.57 1386.41 L2042.74 1386.41 L2042.74 1386.54 L2025.91 1386.54 L2025.91 1386.17 L2008.96 1386.17 L2008.96 1386.17 L1992.13 1386.17 L1992.13 1386.04 L1975.30 1386.04 L1975.30 1385.80 L1958.47 1385.80 L1958.47 1385.55 L1941.64 1385.55 L1941.64 1385.18 L1924.81 1385.18 L1924.81 1385.18 L1907.85 1385.18 L1907.85 1385.30 L1891.02 1385.30 L1891.02 1385.05 L1874.19 1385.05 L1874.19 1385.18 L1857.36 1385.18 L1857.36 1385.18 L1840.53 1385.18 L1840.53 1385.55 L1823.70 1385.55 L1823.70 1385.30 L1806.75 1385.30 L1806.75 1384.81 L1789.92 1384.81 L1789.92 1384.81 L1773.09 1384.81 L1773.09 1384.56 L1756.26 1384.56 L1756.26 1384.31 L1739.43 1384.31 L1739.43 1384.43 L1722.48 1384.43 L1722.48 1384.43 L1705.65 1384.43 L1705.65 1384.56 L1688.82 1384.56 L1688.82 1384.81 L1671.99 1384.81 L1671.99 1385.05 L1655.16 1385.05 L1655.16 1385.30 L1638.33 1385.30 L1638.33 1385.42 L1621.37 1385.42 L1621.37 1385.55 L1604.54 1385.55 L1604.54 1385.67 L1587.71 1385.67 L1587.71 1386.04 L1570.88 1386.04 L1570.88 1386.29 L1554.05 1386.29 L1554.05 1386.41 L1537.22 1386.41 L1537.22 1387.03 L1520.27 1387.03 L1520.27 1387.40 L1503.44 1387.40 L1503.44 1387.65 L1486.61 1387.65 L1486.61 1387.53 L1469.78 1387.53 L1469.78 1388.02 L1452.95 1388.02 L1452.95 1388.39 L1436.12 1388.39 L1436.12 1388.77 L1419.16 1388.77 L1419.16 1389.01 L1402.34 1389.01 L1402.34 1389.76 L1385.51 1389.76 L1385.51 1390.00 L1368.67 1390.00 L1368.67 1390.00 L1351.85 1390.00 L1351.85 1390.62 L1334.89 1390.62 L1334.89 1391.36 L1318.06 1391.36 L1318.06 1391.12 L1301.23 1391.12 L1301.23 1391.24 L1284.40 1391.24 L1284.40 1391.98 L1267.57 1391.98 L1267.57 1392.60 L1250.74 1392.60 L1250.74 1393.59 L1233.79 1393.59 L1233.79 1394.21 L1216.96 1394.21 L1216.96 1395.08 L1200.13 1395.08 L1200.13 1395.70 L1183.30 1395.70 L1183.30 1396.56 L1166.47 1396.56 L1166.47 1397.92 L1149.64 1397.92 L1149.64 1398.79 L1132.68 1398.79 L1132.68 1400.15 L1115.85 1400.15 L1115.85 1401.14 L1099.02 1401.14 L1099.02 1402.13 L1082.19 1402.13 L1082.19 1403.25 L1065.36 1403.25 L1065.36 1404.61 L1048.53 1404.61 L1048.53 1406.34 L1031.58 1406.34 L1031.58 1407.82 L1014.75 1407.82 L1014.75 1409.80 L997.92 1409.80 L997.92 1411.17 L981.09 1411.17 L981.09 1412.77 L964.26 1412.77 L964.26 1414.88 L947.31 1414.88 L947.31 1416.86 L930.48 1416.86 L930.48 1419.21 L913.65 1419.21 L913.65 1421.31 L896.82 1421.31 L896.82 1423.17 L879.99 1423.17 L879.99 1425.64 L863.16 1425.64 L863.16 1428.61 L846.20 1428.61 L846.20 1431.83 L829.37 1431.83 L829.37 1434.31 L812.54 1434.31 L812.54 1437.52 L795.71 1437.52 L795.71 1440.50 L778.88 1440.50 L778.88 1446.06 Z" stroke-linejoin="round"/>
	</defs>
	<defs>
		<clipPath id="clipPath_qBQjNkdt">
			<use xlink:href="#path_SzDhcMLK"/>
		</clipPath>
	</defs>
	<use xlink:href="#path_SzDhcMLK" style="stroke:none;fill:#999999;fill-opacity:0.65"/>
	<use xlink:href="#path_SzDhcMLK" style="fill:none;stroke:#808080;stroke-opacity:0.65;stroke-width:17.28" clip-path="url(#clipPath_qBQjNkdt)"/>
	<path d=" M778.76 1443.34 L795.59 1443.34 L795.59 1440.62 L812.54 1440.62 L812.54 1437.77 L829.37 1437.77 L829.37 1435.42 L846.20 1435.42 L846.20 1432.57 L863.03 1432.57 L863.03 1429.73 L879.86 1429.73 L879.86 1427.62 L896.69 1427.62 L896.69 1425.89 L913.65 1425.89 L913.65 1424.04 L930.48 1424.04 L930.48 1421.93 L947.31 1421.93 L947.31 1420.08 L964.14 1420.08 L964.14 1418.10 L980.97 1418.10 L980.97 1416.61 L997.80 1416.61 L997.80 1415.50 L1014.75 1415.50 L1014.75 1413.52 L1031.58 1413.52 L1031.58 1412.28 L1048.41 1412.28 L1048.41 1410.67 L1065.24 1410.67 L1065.24 1409.31 L1082.07 1409.31 L1082.07 1408.32 L1099.02 1408.32 L1099.02 1407.45 L1115.85 1407.45 L1115.85 1406.59 L1132.68 1406.59 L1132.68 1405.35 L1149.51 1405.35 L1149.51 1404.48 L1166.34 1404.48 L1166.34 1403.12 L1183.17 1403.12 L1183.17 1402.38 L1200.13 1402.38 L1200.13 1401.88 L1216.96 1401.88 L1216.96 1401.02 L1233.79 1401.02 L1233.79 1400.52 L1250.62 1400.52 L1250.62 1399.66 L1267.45 1399.66 L1267.45 1399.04 L1284.28 1399.04 L1284.28 1398.42 L1301.23 1398.42 L1301.23 1398.29 L1318.06 1398.29 L1318.06 1398.54 L1334.89 1398.54 L1334.89 1397.92 L1351.72 1397.92 L1351.72 1397.43 L1368.55 1397.43 L1368.55 1397.30 L1385.51 1397.30 L1385.51 1397.18 L1402.34 1397.18 L1402.34 1396.44 L1419.16 1396.44 L1419.16 1396.31 L1435.99 1396.31 L1435.99 1395.94 L1452.83 1395.94 L1452.83 1395.57 L1469.65 1395.57 L1469.65 1395.20 L1486.61 1395.20 L1486.61 1395.32 L1503.44 1395.32 L1503.44 1395.08 L1520.27 1395.08 L1520.27 1394.83 L1537.10 1394.83 L1537.10 1394.09 L1553.93 1394.09 L1553.93 1394.09 L1570.76 1394.09 L1570.76 1393.96 L1587.71 1393.96 L1587.71 1393.59 L1604.54 1393.59 L1604.54 1393.34 L1621.37 1393.34 L1621.37 1393.34 L1638.20 1393.34 L1638.20 1393.22 L1655.03 1393.22 L1655.03 1392.97 L1671.86 1392.97 L1671.86 1392.73 L1688.82 1392.73 L1688.82 1392.48 L1705.65 1392.48 L1705.65 1392.35 L1722.48 1392.35 L1722.48 1392.35 L1739.31 1392.35 L1739.31 1392.23 L1756.14 1392.23 L1756.14 1392.60 L1773.09 1392.60 L1773.09 1392.85 L1789.92 1392.85 L1789.92 1392.85 L1806.75 1392.85 L1806.75 1393.34 L1823.58 1393.34 L1823.58 1393.59 L1840.41 1393.59 L1840.41 1393.22 L1857.24 1393.22 L1857.24 1393.22 L1874.19 1393.22 L1874.19 1393.10 L1891.02 1393.10 L1891.02 1393.34 L1907.85 1393.34 L1907.85 1393.22 L1924.68 1393.22 L1924.68 1393.34 L1941.51 1393.34 L1941.51 1393.59 L1958.34 1393.59 L1958.34 1393.96 L1975.30 1393.96 L1975.30 1394.21 L1992.13 1394.21 L1992.13 1394.46 L2008.96 1394.46 L2008.96 1394.46 L2025.79 1394.46 L2025.79 1394.71 L2042.62 1394.71 L2042.62 1394.71 L2059.45 1394.71 L2059.45 1395.20 L2076.40 1395.20 L2076.40 1395.57 L2093.23 1395.57 L2093.23 1395.70 L2110.06 1395.70 L2110.06 1395.82 L2126.89 1395.82 L2126.89 1395.94 L2143.72 1395.94 L2143.72 1396.07 L2160.68 1396.07 L2160.68 1396.44 L2177.51 1396.44 L2177.51 1396.81 L2194.34 1396.81 L2194.34 1396.69 L2211.16 1396.69 L2211.16 1396.93 L2227.99 1396.93 L2227.99 1397.18 L2244.82 1397.18 L2244.82 1397.43 L2261.78 1397.43 L2261.78 1397.68 L2278.61 1397.68 L2278.61 1397.80 L2295.44 1397.80 L2295.44 1397.80 L2312.27 1397.80 L2312.27 1397.80 L2329.10 1397.80 L2329.10 1398.17 L2345.93 1398.17 L2345.93 1398.42 L2362.88 1398.42 L2362.88 1398.42 L2379.71 1398.42 L2379.71 1398.67 L2396.54 1398.67 L2396.54 1398.79 L2413.37 1398.79 L2413.37 1398.79 L2430.20 1398.79 L2430.20 1399.16 L2447.16 1399.16 L2447.16 1399.53 L2463.99 1399.53 L2463.99 1399.28 L2480.82 1399.28 L2480.82 1399.41 L2497.65 1399.41 L2497.65 1399.53 L2514.48 1399.53 L2514.48 1399.53 L2531.31 1399.53 L2531.31 1399.28 L2548.26 1399.28 L2548.26 1399.28 L2565.09 1399.28 L2565.09 1399.28 L2581.92 1399.28 L2581.92 1399.78 L2598.75 1399.78 L2598.75 1400.28 L2615.58 1400.28 L2615.58 1400.52 L2632.41 1400.52 L2632.41 1400.89 L2649.36 1400.89 L2649.36 1401.02 L2666.19 1401.02 L2666.19 1401.14 L2683.02 1401.14 L2683.02 1401.14 L2699.85 1401.14 L2699.85 1400.89 L2716.68 1400.89 L2716.68 1400.89 L2733.51 1400.89 L2733.51 1401.27 L2750.47 1401.27 L2750.47 1401.14 L2767.30 1401.14 L2767.30 1401.27 L2784.13 1401.27 L2784.13 1401.14 L2800.96 1401.14 L2800.96 1401.27 L2817.79 1401.27 L2817.79 1401.51 L2834.74 1401.51 L2834.74 1401.88 L2851.57 1401.88 L2851.57 1401.88 L2868.40 1401.88 L2868.40 1402.01 L2885.23 1402.01 L2885.23 1402.38 L2902.06 1402.38 L2902.06 1402.26 L2918.89 1402.26 L2918.89 1402.26 L2935.84 1402.26 L2935.84 1402.50 L2952.68 1402.50 L2952.68 1402.50 L2969.51 1402.50 L2969.51 1402.26 L2986.34 1402.26 L2986.34 1402.26 L3003.16 1402.26 L3003.16 1402.26 L3019.99 1402.26 L3019.99 1402.50 L3036.95 1402.50 L3036.95 1402.63 L3053.78 1402.63 L3053.78 1402.75 L3070.61 1402.75 L3070.61 1403.00 L3087.44 1403.00 L3087.44 1403.00 L3104.27 1403.00 L3104.27 1402.75 L3121.10 1402.75 L3121.10 1403.00 L3138.05 1403.00 L3138.05 1403.25 L3154.88 1403.25 L3154.88 1403.62 L3171.71 1403.62 L3171.71 1403.49 L3188.54 1403.49 L3188.54 1403.62 L3205.37 1403.62 L3205.37 1403.62 L3222.33 1403.62 L3222.33 1403.37 L3239.16 1403.37 L3239.16 1403.62 L3255.99 1403.62 L3255.99 1403.74 L3272.82 1403.74 L3272.82 1403.62 L3289.65 1403.62 L3289.65 1403.74 L3306.48 1403.74 L3306.48 1403.99 L3323.43 1403.99 L3323.43 1403.99 L3340.26 1403.99 L3340.26 1403.86 L3357.09 1403.86 L3357.09 1404.11 L3373.92 1404.11 L3373.92 1403.99 L3390.75 1403.99 L3390.75 1404.11 L3407.58 1404.11 L3407.58 1404.11 L3424.53 1404.11 L3424.53 1404.48 L3441.36 1404.48 L3441.36 1404.61 L3458.19 1404.61 L3458.19 1404.98 L3475.02 1404.98 L3475.02 1404.85 L3491.85 1404.85 L3491.85 1404.61 L3508.81 1404.61 L3508.81 1404.73 L3525.64 1404.73 L3525.64 1404.98 L3542.47 1404.98 L3542.47 1404.98 L3559.30 1404.98 L3559.30 1405.35 L3576.13 1405.35 L3576.13 1405.72 L3592.96 1405.72 L3592.96 1405.72 L3609.91 1405.72 L3609.91 1405.97 L3626.74 1405.97 L3626.74 1406.09 L3643.57 1406.09 L3643.57 1405.84 L3660.40 1405.84 L3660.40 1405.97 L3677.23 1405.97 L3677.23 1406.09 L3694.06 1406.09 L3694.06 1406.09 L3711.01 1406.09 L3711.01 1406.34 L3727.84 1406.34 L3727.84 1406.71 L3744.68 1406.71 L3744.68 1406.59 L3761.51 1406.59 L3761.51 1406.46 L3778.34 1406.46 L3778.34 1406.71 L3795.16 1406.71 L3795.16 1406.83" stroke-linejoin="round" style="fill:none;stroke:#000000;stroke-width:8.64"/>
	<line x1="559.10" y1="2509.23" x2="559.10" y2="419.90" style="stroke:#000000;stroke-width:5.76"/>
	<line x1="559.10" y1="2445.87" x2="519.13" y2="2445.87" style="stroke:#000000;stroke-width:5.76"/>
	<text x="499.08" y="2480.90" style="font-family:'Helvetica';font-size:99.99px;fill:#000000" text-anchor="end">-1.00</text>
	<line x1="559.10" y1="2200.59" x2="519.13" y2="2200.59" style="stroke:#000000;stroke-width:5.76"/>
	<text x="499.08" y="2235.62" style="font-family:'Helvetica';font-size:99.99px;fill:#000000" text-anchor="end">-0.75</text>
	<line x1="559.10" y1="1955.19" x2="519.13" y2="1955.19" style="stroke:#000000;stroke-width:5.76"/>
	<text x="499.08" y="1990.22" style="font-family:'Helvetica';font-size:99.99px;fill:#000000" text-anchor="end">-0.50</text>
	<line x1="559.10" y1="1709.91" x2="519.13" y2="1709.91" style="stroke:#000000;stroke-width:5.76"/>
	<text x="499.08" y="1744.94" style="font-family:'Helvetica';font-size:99.99px;fill:#000000" text-anchor="end">-0.25</text>
	<line x1="559.10" y1="1464.63" x2="519.13" y2="1464.63" style="stroke:#000000;stroke-width:5.76"/>
	<text x="499.08" y="1499.66" style="font-family:'Helvetica';font-size:99.99px;fill:#000000" text-anchor="end">0.00</text>
	<line x1="559.10" y1="1219.22" x2="519.13" y2="1219.22" style="stroke:#000000;stroke-width:5.76"/>
	<text x="499.08" y="1254.25" style="font-family:'Helvetica';font-size:99.99px;fill:#000000" text-anchor="end">0.25</text>
	<line x1="559.10" y1="973.94" x2="519.13" y2="973.94" style="stroke:#000000;stroke-width:5.76"/>
	<text x="499.08" y="1008.97" style="font-family:'Helvetica';font-size:99.99px;fill:#000000" text-anchor="end">0.50</text>
	<line x1="559.10" y1="728.66" x2="519.13" y2="728.66" style="stroke:#000000;stroke-width:5.76"/>
	<text x="499.08" y="763.69" style="font-family:'Helvetica';font-size:99.99px;fill:#000000" text-anchor="end">0.75</text>
	<line x1="559.10" y1="483.26" x2="519.13" y2="483.26" style="stroke:#000000;stroke-width:5.76"/>
	<text x="499.08" y="518.29" style="font-family:'Helvetica';font-size:99.99px;fill:#000000" text-anchor="end">1.00</text>
	<text x="190.71" y="1464.63" style="font-family:'Helvetica';font-size:99.99px;fill:#000000" transform="rotate(-90 190.71,1464.63)" text-anchor="middle">Difference in Probabilities</text>
	<line x1="559.10" y1="2509.23" x2="3859.02" y2="2509.23" style="stroke:#000000;stroke-width:5.76"/>
	<line x1="622.46" y1="2509.23" x2="622.46" y2="2549.21" style="stroke:#000000;stroke-width:5.76"/>
	<text x="622.46" y="2625.15" style="font-family:'Helvetica';font-size:79.94px;fill:#000000" text-anchor="middle">0</text>
	<line x1="812.91" y1="2509.23" x2="812.91" y2="2549.21" style="stroke:#000000;stroke-width:5.76"/>
	<text x="812.91" y="2625.15" style="font-family:'Helvetica';font-size:79.94px;fill:#000000" text-anchor="middle">.3</text>
	<line x1="1003.24" y1="2509.23" x2="1003.24" y2="2549.21" style="stroke:#000000;stroke-width:5.76"/>
	<text x="1003.24" y="2625.15" style="font-family:'Helvetica';font-size:79.94px;fill:#000000" text-anchor="middle">.6</text>
	<line x1="1193.69" y1="2509.23" x2="1193.69" y2="2549.21" style="stroke:#000000;stroke-width:5.76"/>
	<text x="1193.69" y="2625.15" style="font-family:'Helvetica';font-size:79.94px;fill:#000000" text-anchor="middle">.9</text>
	<line x1="1384.02" y1="2509.23" x2="1384.02" y2="2549.21" style="stroke:#000000;stroke-width:5.76"/>
	<text x="1384.02" y="2625.15" style="font-family:'Helvetica';font-size:79.94px;fill:#000000" text-anchor="middle">1.2</text>
	<line x1="1574.47" y1="2509.23" x2="1574.47" y2="2549.21" style="stroke:#000000;stroke-width:5.76"/>
	<text x="1574.47" y="2625.15" style="font-family:'Helvetica';font-size:79.94px;fill:#000000" text-anchor="middle">1.5</text>
	<line x1="1764.80" y1="2509.23" x2="1764.80" y2="2549.21" style="stroke:#000000;stroke-width:5.76"/>
	<text x="1764.80" y="2625.15" style="font-family:'Helvetica';font-size:79.94px;fill:#000000" text-anchor="middle">1.8</text>
	<line x1="1955.25" y1="2509.23" x2="1955.25" y2="2549.21" style="stroke:#000000;stroke-width:5.76"/>
	<text x="1955.25" y="2625.15" style="font-family:'Helvetica';font-size:79.94px;fill:#000000" text-anchor="middle">2.1</text>
	<line x1="2145.58" y1="2509.23" x2="2145.58" y2="2549.21" style="stroke:#000000;stroke-width:5.76"/>
	<text x="2145.58" y="2625.15" style="font-family:'Helvetica';font-size:79.94px;fill:#000000" text-anchor="middle">2.4</text>
	<line x1="2336.03" y1="2509.23" x2="2336.03" y2="2549.21" style="stroke:#000000;stroke-width:5.76"/>
	<text x="2336.03" y="2625.15" style="font-family:'Helvetica';font-size:79.94px;fill:#000000" text-anchor="middle">2.7</text>
	<line x1="2526.48" y1="2509.23" x2="2526.48" y2="2549.21" style="stroke:#000000;stroke-width:5.76"/>
	<text x="2526.48" y="2625.15" style="font-family:'Helvetica';font-size:79.94px;fill:#000000" text-anchor="middle">3</text>
	<line x1="2716.81" y1="2509.23" x2="2716.81" y2="2549.21" style="stroke:#000000;stroke-width:5.76"/>
	<text x="2716.81" y="2625.15" style="font-family:'Helvetica';font-size:79.94px;fill:#000000" text-anchor="middle">3.3</text>
	<line x1="2907.26" y1="2509.23" x2="2907.26" y2="2549.21" style="stroke:#000000;stroke-width:5.76"/>
	<text x="2907.26" y="2625.15" style="font-family:'Helvetica';font-size:79.94px;fill:#000000" text-anchor="middle">3.6</text>
	<line x1="3097.59" y1="2509.23" x2="3097.59" y2="2549.21" style="stroke:#000000;stroke-width:5.76"/>
	<text x="3097.59" y="2625.15" style="font-family:'Helvetica';font-size:79.94px;fill:#000000" text-anchor="middle">3.9</text>
	<line x1="3288.04" y1="2509.23" x2="3288.04" y2="2549.21" style="stroke:#000000;stroke-width:5.76"/>
	<text x="3288.04" y="2625.15" style="font-family:'Helvetica';font-size:79.94px;fill:#000000" text-anchor="middle">4.2</text>
	<line x1="3478.36" y1="2509.23" x2="3478.36" y2="2549.21" style="stroke:#000000;stroke-width:5.76"/>
	<text x="3478.36" y="2625.15" style="font-family:'Helvetica';font-size:79.94px;fill:#000000" text-anchor="middle">4.5</text>
	<line x1="3668.82" y1="2509.23" x2="3668.82" y2="2549.21" style="stroke:#000000;stroke-width:5.76"/>
	<text x="3668.82" y="2625.15" style="font-family:'Helvetica';font-size:79.94px;fill:#000000" text-anchor="middle">4.8</text>
	<line x1="3859.14" y1="2509.23" x2="3859.14" y2="2549.21" style="stroke:#000000;stroke-width:5.76"/>
	<text x="3859.14" y="2625.15" style="font-family:'Helvetica';font-size:79.94px;fill:#000000" text-anchor="middle">5.1</text>
	<text x="2209.06" y="2729.16" style="font-family:'Helvetica';font-size:99.99px;fill:#000000" text-anchor="middle">Time (years)</text>
	<rect x="593.63" y="454.42" width="993.34" height="326.46" style="fill:#FFFFFF"/>
	<rect x="596.51" y="457.30" width="987.58" height="320.70" style="fill:none;stroke:#000000;stroke-width:5.76"/>
	<rect x="636.82" y="497.74" width="374.47" height="99.99" style="fill:#999999;fill-opacity:0.65"/>
	<rect x="641.14" y="502.06" width="365.83" height="91.35" style="fill:none;stroke:#808080;stroke-opacity:0.65;stroke-width:8.64"/>
	<line x1="636.82" y1="687.70" x2="1011.28" y2="687.70" style="stroke:#000000;stroke-width:8.64"/>
	<text x="1071.30" y="582.76" style="font-family:'Helvetica';font-size:99.99px;fill:#000000">CI95%</text>
	<text x="1071.30" y="722.73" style="font-family:'Helvetica';font-size:99.99px;fill:#000000">Difference</text>
	<text x="2209.06" y="369.63" style="font-family:'Helvetica';font-size:110.01px;fill:#000000" text-anchor="middle">from Admission to Readmission</text>
	<text x="2209.06" y="215.98" style="font-family:'Helvetica';font-size:139.96px;fill:#1E2D53" text-anchor="middle">Difference in Probabilities</text>
</svg>
