<?xml version="1.0" encoding="UTF-8" standalone="no"?>
<!-- This is a Stata 16.1 generated SVG file (http://www.stata.com) -->

<svg version="1.1" width="5.50in" height="4.00in" viewBox="0 0 3960 2880" xmlns="http://www.w3.org/2000/svg" xmlns:xlink="http://www.w3.org/1999/xlink">
	<desc>Stata Graph - diff_mod34_rp_tc</desc>
	<rect x="0" y="0" width="3960" height="2880" style="fill:#EAF2F3;stroke:none"/>
	<rect x="0.00" y="0.00" width="3959.88" height="2880.00" style="fill:#FFFFFF"/>
	<rect x="2.88" y="2.88" width="3954.12" height="2874.24" style="fill:none;stroke:#FFFFFF;stroke-width:5.76"/>
	<rect x="559.10" y="419.90" width="3299.92" height="2089.34" style="fill:#FFFFFF"/>
	<rect x="561.98" y="422.78" width="3294.16" height="2083.58" style="fill:none;stroke:#FFFFFF;stroke-width:5.76"/>
	<line x1="559.10" y1="2249.60" x2="3859.02" y2="2249.60" style="stroke:#EAF2F3;stroke-width:8.64"/>
	<line x1="559.10" y1="2053.32" x2="3859.02" y2="2053.32" style="stroke:#EAF2F3;stroke-width:8.64"/>
	<line x1="559.10" y1="1857.05" x2="3859.02" y2="1857.05" style="stroke:#EAF2F3;stroke-width:8.64"/>
	<line x1="559.10" y1="1660.78" x2="3859.02" y2="1660.78" style="stroke:#EAF2F3;stroke-width:8.64"/>
	<line x1="559.10" y1="1464.63" x2="3859.02" y2="1464.63" style="stroke:#EAF2F3;stroke-width:8.64"/>
	<line x1="559.10" y1="1268.35" x2="3859.02" y2="1268.35" style="stroke:#EAF2F3;stroke-width:8.64"/>
	<line x1="559.10" y1="1072.08" x2="3859.02" y2="1072.08" style="stroke:#EAF2F3;stroke-width:8.64"/>
	<line x1="559.10" y1="875.81" x2="3859.02" y2="875.81" style="stroke:#EAF2F3;stroke-width:8.64"/>
	<line x1="559.10" y1="679.53" x2="3859.02" y2="679.53" style="stroke:#EAF2F3;stroke-width:8.64"/>
	<line x1="559.10" y1="1464.63" x2="3859.02" y2="1464.63" style="stroke:#1A476F;stroke-width:8.64"/>
	<defs>
		<path id="path_ncDivZpU" d="M778.88 1481.58 L778.88 1481.58 L795.71 1481.58 L795.71 1482.82 L812.54 1482.82 L812.54 1484.68 L829.37 1484.68 L829.37 1485.79 L846.20 1485.79 L846.20 1486.90 L863.16 1486.90 L863.16 1490.24 L879.99 1490.24 L879.99 1493.09 L896.82 1493.09 L896.82 1496.06 L913.65 1496.06 L913.65 1497.92 L930.48 1497.92 L930.48 1498.91 L947.31 1498.91 L947.31 1499.40 L964.26 1499.40 L964.26 1502.50 L981.09 1502.50 L981.09 1504.85 L997.92 1504.85 L997.92 1505.34 L1014.75 1505.34 L1014.75 1506.08 L1031.58 1506.08 L1031.58 1508.56 L1048.53 1508.56 L1048.53 1509.67 L1065.36 1509.67 L1065.36 1512.64 L1082.19 1512.64 L1082.19 1516.36 L1099.02 1516.36 L1099.02 1520.94 L1115.85 1520.94 L1115.85 1523.29 L1132.68 1523.29 L1132.68 1524.40 L1149.64 1524.40 L1149.64 1525.14 L1166.47 1525.14 L1166.47 1529.10 L1183.30 1529.10 L1183.30 1531.45 L1200.13 1531.45 L1200.13 1533.19 L1216.96 1533.19 L1216.96 1536.65 L1233.79 1536.65 L1233.79 1538.76 L1250.74 1538.76 L1250.74 1540.49 L1267.57 1540.49 L1267.57 1543.46 L1284.40 1543.46 L1284.40 1546.06 L1301.23 1546.06 L1301.23 1547.91 L1318.06 1547.91 L1318.06 1548.53 L1334.89 1548.53 L1334.89 1552.24 L1351.85 1552.24 L1351.85 1551.50 L1368.67 1551.50 L1368.67 1555.09 L1385.51 1555.09 L1385.51 1558.31 L1402.34 1558.31 L1402.34 1559.67 L1419.16 1559.67 L1419.16 1561.16 L1436.12 1561.16 L1436.12 1563.75 L1452.95 1563.75 L1452.95 1563.88 L1469.78 1563.88 L1469.78 1566.48 L1486.61 1566.48 L1486.61 1567.47 L1503.44 1567.47 L1503.44 1568.21 L1520.27 1568.21 L1520.27 1567.22 L1537.22 1567.22 L1537.22 1568.70 L1554.05 1568.70 L1554.05 1570.07 L1570.88 1570.07 L1570.88 1571.80 L1587.71 1571.80 L1587.71 1575.51 L1604.54 1575.51 L1604.54 1579.10 L1621.37 1579.10 L1621.37 1583.18 L1638.33 1583.18 L1638.33 1584.67 L1655.16 1584.67 L1655.16 1589.62 L1671.99 1589.62 L1671.99 1588.88 L1688.82 1588.88 L1688.82 1590.98 L1705.65 1590.98 L1705.65 1591.47 L1722.48 1591.47 L1722.48 1594.32 L1739.43 1594.32 L1739.43 1596.92 L1756.26 1596.92 L1756.26 1599.02 L1773.09 1599.02 L1773.09 1600.14 L1789.92 1600.14 L1789.92 1601.38 L1806.75 1601.38 L1806.75 1603.36 L1823.70 1603.36 L1823.70 1606.33 L1840.53 1606.33 L1840.53 1605.83 L1857.36 1605.83 L1857.36 1606.33 L1874.19 1606.33 L1874.19 1606.94 L1891.02 1606.94 L1891.02 1607.19 L1907.85 1607.19 L1907.85 1610.53 L1924.81 1610.53 L1924.81 1610.29 L1941.64 1610.29 L1941.64 1612.76 L1958.47 1612.76 L1958.47 1614.49 L1975.30 1614.49 L1975.30 1615.48 L1992.13 1615.48 L1992.13 1617.22 L2008.96 1617.22 L2008.96 1617.83 L2025.91 1617.83 L2025.91 1618.33 L2042.74 1618.33 L2042.74 1617.22 L2059.57 1617.22 L2059.57 1617.96 L2076.40 1617.96 L2076.40 1619.57 L2093.23 1619.57 L2093.23 1620.43 L2110.18 1620.43 L2110.18 1621.55 L2127.01 1621.55 L2127.01 1625.01 L2143.84 1625.01 L2143.84 1624.76 L2160.68 1624.76 L2160.68 1625.88 L2177.51 1625.88 L2177.51 1628.11 L2194.34 1628.11 L2194.34 1627.61 L2211.29 1627.61 L2211.29 1626.37 L2228.12 1626.37 L2228.12 1625.88 L2244.95 1625.88 L2244.95 1625.75 L2261.78 1625.75 L2261.78 1625.75 L2278.61 1625.75 L2278.61 1626.25 L2295.44 1626.25 L2295.44 1625.51 L2312.39 1625.51 L2312.39 1626.00 L2329.22 1626.00 L2329.22 1627.12 L2346.05 1627.12 L2346.05 1627.12 L2362.88 1627.12 L2362.88 1628.85 L2379.71 1628.85 L2379.71 1627.98 L2396.54 1627.98 L2396.54 1628.60 L2413.50 1628.60 L2413.50 1630.70 L2430.33 1630.70 L2430.33 1629.71 L2447.16 1629.71 L2447.16 1631.08 L2463.99 1631.08 L2463.99 1632.93 L2480.82 1632.93 L2480.82 1636.27 L2497.77 1636.27 L2497.77 1637.14 L2514.60 1637.14 L2514.60 1639.24 L2531.43 1639.24 L2531.43 1641.60 L2548.26 1641.60 L2548.26 1642.83 L2565.09 1642.83 L2565.09 1645.43 L2581.92 1645.43 L2581.92 1647.16 L2598.87 1647.16 L2598.87 1648.03 L2615.70 1648.03 L2615.70 1647.54 L2632.53 1647.54 L2632.53 1648.40 L2649.36 1648.40 L2649.36 1648.77 L2666.19 1648.77 L2666.19 1650.88 L2683.02 1650.88 L2683.02 1652.11 L2699.98 1652.11 L2699.98 1651.87 L2716.81 1651.87 L2716.81 1651.99 L2733.64 1651.99 L2733.64 1652.61 L2750.47 1652.61 L2750.47 1652.61 L2767.30 1652.61 L2767.30 1653.48 L2784.25 1653.48 L2784.25 1652.49 L2801.08 1652.49 L2801.08 1654.96 L2817.91 1654.96 L2817.91 1657.19 L2834.74 1657.19 L2834.74 1657.56 L2851.57 1657.56 L2851.57 1658.92 L2868.40 1658.92 L2868.40 1659.79 L2885.36 1659.79 L2885.36 1660.28 L2902.18 1660.28 L2902.18 1660.28 L2919.01 1660.28 L2919.01 1661.52 L2935.84 1661.52 L2935.84 1664.61 L2952.68 1664.61 L2952.68 1666.10 L2969.51 1666.10 L2969.51 1666.84 L2986.46 1666.84 L2986.46 1667.46 L3003.29 1667.46 L3003.29 1667.34 L3020.12 1667.34 L3020.12 1668.45 L3036.95 1668.45 L3036.95 1670.06 L3053.78 1670.06 L3053.78 1671.05 L3070.61 1671.05 L3070.61 1672.90 L3087.56 1672.90 L3087.56 1672.16 L3104.39 1672.16 L3104.39 1673.03 L3121.22 1673.03 L3121.22 1674.27 L3138.05 1674.27 L3138.05 1675.13 L3154.88 1675.13 L3154.88 1676.00 L3171.84 1676.00 L3171.84 1677.85 L3188.67 1677.85 L3188.67 1678.23 L3205.50 1678.23 L3205.50 1678.84 L3222.33 1678.84 L3222.33 1680.58 L3239.16 1680.58 L3239.16 1681.32 L3255.99 1681.32 L3255.99 1683.18 L3272.94 1683.18 L3272.94 1684.29 L3289.77 1684.29 L3289.77 1685.03 L3306.60 1685.03 L3306.60 1684.41 L3323.43 1684.41 L3323.43 1685.16 L3340.26 1685.16 L3340.26 1685.90 L3357.09 1685.90 L3357.09 1686.15 L3374.04 1686.15 L3374.04 1685.53 L3390.87 1685.53 L3390.87 1686.52 L3407.70 1686.52 L3407.70 1688.25 L3424.53 1688.25 L3424.53 1690.35 L3441.36 1690.35 L3441.36 1691.59 L3458.19 1691.59 L3458.19 1692.09 L3475.15 1692.09 L3475.15 1693.32 L3491.98 1693.32 L3491.98 1694.56 L3508.81 1694.56 L3508.81 1696.42 L3525.64 1696.42 L3525.64 1696.54 L3542.47 1696.54 L3542.47 1697.41 L3559.42 1697.41 L3559.42 1697.66 L3576.25 1697.66 L3576.25 1698.65 L3593.08 1698.65 L3593.08 1698.40 L3609.91 1698.40 L3609.91 1698.77 L3626.74 1698.77 L3626.74 1699.76 L3643.57 1699.76 L3643.57 1702.11 L3660.53 1702.11 L3660.53 1703.72 L3677.36 1703.72 L3677.36 1704.59 L3694.18 1704.59 L3694.18 1703.72 L3711.01 1703.72 L3711.01 1704.09 L3727.84 1704.09 L3727.84 1704.46 L3744.68 1704.46 L3744.68 1704.96 L3761.63 1704.96 L3761.63 1706.69 L3778.46 1706.69 L3778.46 1708.67 L3795.29 1708.67 L3795.29 1708.92 L3795.29 1329.74 L3795.29 1330.11 L3778.46 1330.11 L3778.46 1328.99 L3761.63 1328.99 L3761.63 1327.88 L3744.68 1327.88 L3744.68 1328.37 L3727.84 1328.37 L3727.84 1328.62 L3711.01 1328.62 L3711.01 1328.99 L3694.18 1328.99 L3694.18 1330.60 L3677.36 1330.60 L3677.36 1330.35 L3660.53 1330.35 L3660.53 1329.49 L3643.57 1329.49 L3643.57 1327.88 L3626.74 1327.88 L3626.74 1327.76 L3609.91 1327.76 L3609.91 1328.13 L3593.08 1328.13 L3593.08 1328.99 L3576.25 1328.99 L3576.25 1328.37 L3559.42 1328.37 L3559.42 1328.75 L3542.47 1328.75 L3542.47 1328.50 L3525.64 1328.50 L3525.64 1329.24 L3508.81 1329.24 L3508.81 1328.13 L3491.98 1328.13 L3491.98 1327.63 L3475.15 1327.63 L3475.15 1327.14 L3458.19 1327.14 L3458.19 1327.51 L3441.36 1327.51 L3441.36 1327.14 L3424.53 1327.14 L3424.53 1325.65 L3407.70 1325.65 L3407.70 1324.66 L3390.87 1324.66 L3390.87 1324.41 L3374.04 1324.41 L3374.04 1325.65 L3357.09 1325.65 L3357.09 1325.90 L3340.26 1325.90 L3340.26 1326.15 L3323.43 1326.15 L3323.43 1326.02 L3306.60 1326.02 L3306.60 1327.38 L3289.77 1327.38 L3289.77 1327.63 L3272.94 1327.63 L3272.94 1327.51 L3255.99 1327.51 L3255.99 1326.27 L3239.16 1326.27 L3239.16 1326.15 L3222.33 1326.15 L3222.33 1325.28 L3205.50 1325.28 L3205.50 1325.65 L3188.67 1325.65 L3188.67 1326.15 L3171.84 1326.15 L3171.84 1324.79 L3154.88 1324.79 L3154.88 1324.54 L3138.05 1324.54 L3138.05 1324.41 L3121.22 1324.41 L3121.22 1324.17 L3104.39 1324.17 L3104.39 1324.29 L3087.56 1324.29 L3087.56 1325.65 L3070.61 1325.65 L3070.61 1324.79 L3053.78 1324.79 L3053.78 1324.66 L3036.95 1324.66 L3036.95 1324.04 L3020.12 1324.04 L3020.12 1323.92 L3003.29 1323.92 L3003.29 1324.91 L2986.46 1324.91 L2986.46 1325.16 L2969.51 1325.16 L2969.51 1325.28 L2952.68 1325.28 L2952.68 1324.66 L2935.84 1324.66 L2935.84 1322.56 L2919.01 1322.56 L2919.01 1322.19 L2902.18 1322.19 L2902.18 1323.05 L2885.36 1323.05 L2885.36 1323.42 L2868.40 1323.42 L2868.40 1323.67 L2851.57 1323.67 L2851.57 1323.30 L2834.74 1323.30 L2834.74 1324.04 L2817.91 1324.04 L2817.91 1322.81 L2801.08 1322.81 L2801.08 1321.20 L2784.25 1321.20 L2784.25 1323.30 L2767.30 1323.30 L2767.30 1323.42 L2750.47 1323.42 L2750.47 1324.41 L2733.64 1324.41 L2733.64 1325.03 L2716.81 1325.03 L2716.81 1326.02 L2699.98 1326.02 L2699.98 1327.38 L2683.02 1327.38 L2683.02 1327.01 L2666.19 1327.01 L2666.19 1326.02 L2649.36 1326.02 L2649.36 1326.64 L2632.53 1326.64 L2632.53 1326.77 L2615.70 1326.77 L2615.70 1328.37 L2598.87 1328.37 L2598.87 1328.62 L2581.92 1328.62 L2581.92 1328.13 L2565.09 1328.13 L2565.09 1326.39 L2548.26 1326.39 L2548.26 1326.27 L2531.43 1326.27 L2531.43 1325.03 L2514.60 1325.03 L2514.60 1324.04 L2497.77 1324.04 L2497.77 1324.17 L2480.82 1324.17 L2480.82 1322.06 L2463.99 1322.06 L2463.99 1321.44 L2447.16 1321.44 L2447.16 1321.07 L2430.33 1321.07 L2430.33 1323.30 L2413.50 1323.30 L2413.50 1322.31 L2396.54 1322.31 L2396.54 1322.81 L2379.71 1322.81 L2379.71 1324.79 L2362.88 1324.79 L2362.88 1324.41 L2346.05 1324.41 L2346.05 1325.53 L2329.22 1325.53 L2329.22 1325.78 L2312.39 1325.78 L2312.39 1326.27 L2295.44 1326.27 L2295.44 1328.00 L2278.61 1328.00 L2278.61 1328.75 L2261.78 1328.75 L2261.78 1330.11 L2244.95 1330.11 L2244.95 1331.59 L2228.12 1331.59 L2228.12 1333.45 L2211.29 1333.45 L2211.29 1335.92 L2194.34 1335.92 L2194.34 1337.90 L2177.51 1337.90 L2177.51 1336.79 L2160.68 1336.79 L2160.68 1336.91 L2143.84 1336.91 L2143.84 1338.77 L2127.01 1338.77 L2127.01 1336.91 L2110.18 1336.91 L2110.18 1337.16 L2093.23 1337.16 L2093.23 1337.41 L2076.40 1337.41 L2076.40 1337.28 L2059.57 1337.28 L2059.57 1337.66 L2042.74 1337.66 L2042.74 1340.38 L2025.91 1340.38 L2025.91 1341.24 L2008.96 1341.24 L2008.96 1342.23 L1992.13 1342.23 L1992.13 1342.11 L1975.30 1342.11 L1975.30 1342.48 L1958.47 1342.48 L1958.47 1342.48 L1941.64 1342.48 L1941.64 1341.86 L1924.81 1341.86 L1924.81 1343.60 L1907.85 1343.60 L1907.85 1341.49 L1891.02 1341.49 L1891.02 1342.73 L1874.19 1342.73 L1874.19 1343.72 L1857.36 1343.72 L1857.36 1344.96 L1840.53 1344.96 L1840.53 1347.31 L1823.70 1347.31 L1823.70 1346.07 L1806.75 1346.07 L1806.75 1345.82 L1789.92 1345.82 L1789.92 1346.19 L1773.09 1346.19 L1773.09 1346.94 L1756.26 1346.94 L1756.26 1346.69 L1739.43 1346.69 L1739.43 1345.95 L1722.48 1345.95 L1722.48 1345.08 L1705.65 1345.08 L1705.65 1346.44 L1688.82 1346.44 L1688.82 1346.44 L1671.99 1346.44 L1671.99 1349.29 L1655.16 1349.29 L1655.16 1346.69 L1638.33 1346.69 L1638.33 1347.68 L1621.37 1347.68 L1621.37 1346.07 L1604.54 1346.07 L1604.54 1344.71 L1587.71 1344.71 L1587.71 1343.47 L1570.88 1343.47 L1570.88 1344.09 L1554.05 1344.09 L1554.05 1345.45 L1537.22 1345.45 L1537.22 1346.44 L1520.27 1346.44 L1520.27 1350.03 L1503.44 1350.03 L1503.44 1352.01 L1486.61 1352.01 L1486.61 1353.87 L1469.78 1353.87 L1469.78 1354.24 L1452.95 1354.24 L1452.95 1357.08 L1436.12 1357.08 L1436.12 1357.33 L1419.16 1357.33 L1419.16 1359.06 L1402.34 1359.06 L1402.34 1360.92 L1385.51 1360.92 L1385.51 1360.92 L1368.67 1360.92 L1368.67 1360.67 L1351.85 1360.67 L1351.85 1365.01 L1334.89 1365.01 L1334.89 1365.13 L1318.06 1365.13 L1318.06 1368.35 L1301.23 1368.35 L1301.23 1370.33 L1284.40 1370.33 L1284.40 1371.56 L1267.57 1371.56 L1267.57 1372.68 L1250.74 1372.68 L1250.74 1374.91 L1233.79 1374.91 L1233.79 1376.89 L1216.96 1376.89 L1216.96 1377.75 L1200.13 1377.75 L1200.13 1380.60 L1183.30 1380.60 L1183.30 1382.45 L1166.47 1382.45 L1166.47 1382.83 L1149.64 1382.83 L1149.64 1386.91 L1132.68 1386.91 L1132.68 1390.50 L1115.85 1390.50 L1115.85 1393.10 L1099.02 1393.10 L1099.02 1393.47 L1082.19 1393.47 L1082.19 1394.71 L1065.36 1394.71 L1065.36 1396.56 L1048.53 1396.56 L1048.53 1400.52 L1031.58 1400.52 L1031.58 1403.00 L1014.75 1403.00 L1014.75 1407.45 L997.92 1407.45 L997.92 1411.91 L981.09 1411.91 L981.09 1414.88 L964.26 1414.88 L964.26 1416.73 L947.31 1416.73 L947.31 1421.44 L930.48 1421.44 L930.48 1426.02 L913.65 1426.02 L913.65 1429.48 L896.82 1429.48 L896.82 1432.08 L879.99 1432.08 L879.99 1434.43 L863.16 1434.43 L863.16 1436.29 L846.20 1436.29 L846.20 1440.62 L829.37 1440.62 L829.37 1444.70 L812.54 1444.70 L812.54 1448.04 L795.71 1448.04 L795.71 1451.26 L778.88 1451.26 L778.88 1481.58 Z" stroke-linejoin="round"/>
	</defs>
	<defs>
		<clipPath id="clipPath_XUnrUOoc">
			<use xlink:href="#path_ncDivZpU"/>
		</clipPath>
	</defs>
	<use xlink:href="#path_ncDivZpU" style="stroke:none;fill:#999999;fill-opacity:0.65"/>
	<use xlink:href="#path_ncDivZpU" style="fill:none;stroke:#808080;stroke-opacity:0.65;stroke-width:17.28" clip-path="url(#clipPath_XUnrUOoc)"/>
	<path d=" M778.76 1466.48 L795.59 1466.48 L795.59 1465.49 L812.54 1465.49 L812.54 1464.75 L829.37 1464.75 L829.37 1463.27 L846.20 1463.27 L846.20 1461.66 L863.03 1461.66 L863.03 1462.40 L879.86 1462.40 L879.86 1462.65 L896.69 1462.65 L896.69 1462.77 L913.65 1462.77 L913.65 1462.03 L930.48 1462.03 L930.48 1460.30 L947.31 1460.30 L947.31 1458.19 L964.14 1458.19 L964.14 1458.69 L980.97 1458.69 L980.97 1458.44 L997.80 1458.44 L997.80 1456.46 L1014.75 1456.46 L1014.75 1454.60 L1031.58 1454.60 L1031.58 1454.60 L1048.41 1454.60 L1048.41 1453.12 L1065.24 1453.12 L1065.24 1453.74 L1082.07 1453.74 L1082.07 1454.97 L1099.02 1454.97 L1099.02 1457.08 L1115.85 1457.08 L1115.85 1456.95 L1132.68 1456.95 L1132.68 1455.72 L1149.51 1455.72 L1149.51 1453.98 L1166.34 1453.98 L1166.34 1455.84 L1183.17 1455.84 L1183.17 1456.09 L1200.13 1456.09 L1200.13 1455.47 L1216.96 1455.47 L1216.96 1456.83 L1233.79 1456.83 L1233.79 1456.83 L1250.62 1456.83 L1250.62 1456.58 L1267.45 1456.58 L1267.45 1457.57 L1284.28 1457.57 L1284.28 1458.19 L1301.23 1458.19 L1301.23 1458.19 L1318.06 1458.19 L1318.06 1456.95 L1334.89 1456.95 L1334.89 1458.69 L1351.72 1458.69 L1351.72 1456.21 L1368.55 1456.21 L1368.55 1458.07 L1385.51 1458.07 L1385.51 1459.68 L1402.34 1459.68 L1402.34 1459.43 L1419.16 1459.43 L1419.16 1459.31 L1435.99 1459.31 L1435.99 1460.42 L1452.83 1460.42 L1452.83 1459.06 L1469.65 1459.06 L1469.65 1460.30 L1486.61 1460.30 L1486.61 1459.80 L1503.44 1459.80 L1503.44 1459.18 L1520.27 1459.18 L1520.27 1456.95 L1537.10 1456.95 L1537.10 1457.08 L1553.93 1457.08 L1553.93 1457.08 L1570.76 1457.08 L1570.76 1457.70 L1587.71 1457.70 L1587.71 1460.17 L1604.54 1460.17 L1604.54 1462.65 L1621.37 1462.65 L1621.37 1465.49 L1638.20 1465.49 L1638.20 1465.74 L1655.03 1465.74 L1655.03 1469.58 L1671.86 1469.58 L1671.86 1467.72 L1688.82 1467.72 L1688.82 1468.71 L1705.65 1468.71 L1705.65 1468.34 L1722.48 1468.34 L1722.48 1470.20 L1739.31 1470.20 L1739.31 1471.93 L1756.14 1471.93 L1756.14 1473.04 L1773.09 1473.04 L1773.09 1473.29 L1789.92 1473.29 L1789.92 1473.66 L1806.75 1473.66 L1806.75 1474.77 L1823.58 1474.77 L1823.58 1476.88 L1840.41 1476.88 L1840.41 1475.52 L1857.24 1475.52 L1857.24 1475.15 L1874.19 1475.15 L1874.19 1474.90 L1891.02 1474.90 L1891.02 1474.40 L1907.85 1474.40 L1907.85 1477.13 L1924.68 1477.13 L1924.68 1476.14 L1941.51 1476.14 L1941.51 1477.74 L1958.34 1477.74 L1958.34 1478.61 L1975.30 1478.61 L1975.30 1478.86 L1992.13 1478.86 L1992.13 1479.72 L2008.96 1479.72 L2008.96 1479.72 L2025.79 1479.72 L2025.79 1479.48 L2042.62 1479.48 L2042.62 1477.50 L2059.45 1477.50 L2059.45 1477.74 L2076.40 1477.74 L2076.40 1478.49 L2093.23 1478.49 L2093.23 1478.86 L2110.06 1478.86 L2110.06 1479.35 L2126.89 1479.35 L2126.89 1481.95 L2143.72 1481.95 L2143.72 1480.96 L2160.68 1480.96 L2160.68 1481.46 L2177.51 1481.46 L2177.51 1483.07 L2194.34 1483.07 L2194.34 1481.83 L2211.16 1481.83 L2211.16 1479.97 L2227.99 1479.97 L2227.99 1478.86 L2244.82 1478.86 L2244.82 1477.99 L2261.78 1477.99 L2261.78 1477.37 L2278.61 1477.37 L2278.61 1477.25 L2295.44 1477.25 L2295.44 1476.01 L2312.27 1476.01 L2312.27 1476.01 L2329.10 1476.01 L2329.10 1476.38 L2345.93 1476.38 L2345.93 1475.76 L2362.88 1475.76 L2362.88 1476.88 L2379.71 1476.88 L2379.71 1475.52 L2396.54 1475.52 L2396.54 1475.52 L2413.37 1475.52 L2413.37 1477.13 L2430.20 1477.13 L2430.20 1475.52 L2447.16 1475.52 L2447.16 1476.38 L2463.99 1476.38 L2463.99 1477.50 L2480.82 1477.50 L2480.82 1480.34 L2497.65 1480.34 L2497.65 1480.72 L2514.48 1480.72 L2514.48 1482.20 L2531.31 1482.20 L2531.31 1484.06 L2548.26 1484.06 L2548.26 1484.68 L2565.09 1484.68 L2565.09 1486.90 L2581.92 1486.90 L2581.92 1487.89 L2598.75 1487.89 L2598.75 1488.26 L2615.58 1488.26 L2615.58 1487.27 L2632.41 1487.27 L2632.41 1487.65 L2649.36 1487.65 L2649.36 1487.52 L2666.19 1487.52 L2666.19 1489.01 L2683.02 1489.01 L2683.02 1489.87 L2699.85 1489.87 L2699.85 1489.01 L2716.68 1489.01 L2716.68 1488.64 L2733.51 1488.64 L2733.51 1488.64 L2750.47 1488.64 L2750.47 1488.14 L2767.30 1488.14 L2767.30 1488.51 L2784.13 1488.51 L2784.13 1487.03 L2800.96 1487.03 L2800.96 1489.01 L2817.79 1489.01 L2817.79 1490.74 L2834.74 1490.74 L2834.74 1490.49 L2851.57 1490.49 L2851.57 1491.36 L2868.40 1491.36 L2868.40 1491.73 L2885.23 1491.73 L2885.23 1491.85 L2902.06 1491.85 L2902.06 1491.36 L2918.89 1491.36 L2918.89 1492.10 L2935.84 1492.10 L2935.84 1494.82 L2952.68 1494.82 L2952.68 1495.81 L2969.51 1495.81 L2969.51 1496.06 L2986.34 1496.06 L2986.34 1496.31 L3003.16 1496.31 L3003.16 1495.81 L3019.99 1495.81 L3019.99 1496.43 L3036.95 1496.43 L3036.95 1497.42 L3053.78 1497.42 L3053.78 1498.04 L3070.61 1498.04 L3070.61 1499.40 L3087.44 1499.40 L3087.44 1498.41 L3104.27 1498.41 L3104.27 1498.78 L3121.10 1498.78 L3121.10 1499.40 L3138.05 1499.40 L3138.05 1499.90 L3154.88 1499.90 L3154.88 1500.52 L3171.71 1500.52 L3171.71 1502.12 L3188.54 1502.12 L3188.54 1502.00 L3205.37 1502.00 L3205.37 1502.12 L3222.33 1502.12 L3222.33 1503.49 L3239.16 1503.49 L3239.16 1503.98 L3255.99 1503.98 L3255.99 1505.47 L3272.82 1505.47 L3272.82 1506.08 L3289.65 1506.08 L3289.65 1506.33 L3306.48 1506.33 L3306.48 1505.34 L3323.43 1505.34 L3323.43 1505.71 L3340.26 1505.71 L3340.26 1506.08 L3357.09 1506.08 L3357.09 1506.08 L3373.92 1506.08 L3373.92 1505.09 L3390.75 1505.09 L3390.75 1505.71 L3407.58 1505.71 L3407.58 1507.07 L3424.53 1507.07 L3424.53 1508.93 L3441.36 1508.93 L3441.36 1509.67 L3458.19 1509.67 L3458.19 1509.80 L3475.02 1509.80 L3475.02 1510.54 L3491.85 1510.54 L3491.85 1511.53 L3508.81 1511.53 L3508.81 1513.01 L3525.64 1513.01 L3525.64 1512.64 L3542.47 1512.64 L3542.47 1513.26 L3559.30 1513.26 L3559.30 1513.26 L3576.13 1513.26 L3576.13 1514.00 L3592.96 1514.00 L3592.96 1513.51 L3609.91 1513.51 L3609.91 1513.39 L3626.74 1513.39 L3626.74 1513.88 L3643.57 1513.88 L3643.57 1515.98 L3660.40 1515.98 L3660.40 1517.22 L3677.23 1517.22 L3677.23 1517.84 L3694.06 1517.84 L3694.06 1516.48 L3711.01 1516.48 L3711.01 1516.48 L3727.84 1516.48 L3727.84 1516.60 L3744.68 1516.60 L3744.68 1516.60 L3761.51 1516.60 L3761.51 1517.96 L3778.34 1517.96 L3778.34 1519.57 L3795.16 1519.57 L3795.16 1519.45" stroke-linejoin="round" style="fill:none;stroke:#000000;stroke-width:8.64"/>
	<line x1="559.10" y1="2509.23" x2="559.10" y2="419.90" style="stroke:#000000;stroke-width:5.76"/>
	<line x1="559.10" y1="2445.87" x2="519.13" y2="2445.87" style="stroke:#000000;stroke-width:5.76"/>
	<text x="499.08" y="2480.90" style="font-family:'Helvetica';font-size:99.99px;fill:#000000" text-anchor="end">-0.25</text>
	<line x1="559.10" y1="2249.60" x2="519.13" y2="2249.60" style="stroke:#000000;stroke-width:5.76"/>
	<text x="499.08" y="2284.63" style="font-family:'Helvetica';font-size:99.99px;fill:#000000" text-anchor="end">-0.20</text>
	<line x1="559.10" y1="2053.32" x2="519.13" y2="2053.32" style="stroke:#000000;stroke-width:5.76"/>
	<text x="499.08" y="2088.35" style="font-family:'Helvetica';font-size:99.99px;fill:#000000" text-anchor="end">-0.15</text>
	<line x1="559.10" y1="1857.05" x2="519.13" y2="1857.05" style="stroke:#000000;stroke-width:5.76"/>
	<text x="499.08" y="1892.08" style="font-family:'Helvetica';font-size:99.99px;fill:#000000" text-anchor="end">-0.10</text>
	<line x1="559.10" y1="1660.78" x2="519.13" y2="1660.78" style="stroke:#000000;stroke-width:5.76"/>
	<text x="499.08" y="1695.81" style="font-family:'Helvetica';font-size:99.99px;fill:#000000" text-anchor="end">-0.05</text>
	<line x1="559.10" y1="1464.63" x2="519.13" y2="1464.63" style="stroke:#000000;stroke-width:5.76"/>
	<text x="499.08" y="1499.66" style="font-family:'Helvetica';font-size:99.99px;fill:#000000" text-anchor="end">0.00</text>
	<line x1="559.10" y1="1268.35" x2="519.13" y2="1268.35" style="stroke:#000000;stroke-width:5.76"/>
	<text x="499.08" y="1303.38" style="font-family:'Helvetica';font-size:99.99px;fill:#000000" text-anchor="end">0.05</text>
	<line x1="559.10" y1="1072.08" x2="519.13" y2="1072.08" style="stroke:#000000;stroke-width:5.76"/>
	<text x="499.08" y="1107.11" style="font-family:'Helvetica';font-size:99.99px;fill:#000000" text-anchor="end">0.10</text>
	<line x1="559.10" y1="875.81" x2="519.13" y2="875.81" style="stroke:#000000;stroke-width:5.76"/>
	<text x="499.08" y="910.83" style="font-family:'Helvetica';font-size:99.99px;fill:#000000" text-anchor="end">0.15</text>
	<line x1="559.10" y1="679.53" x2="519.13" y2="679.53" style="stroke:#000000;stroke-width:5.76"/>
	<text x="499.08" y="714.56" style="font-family:'Helvetica';font-size:99.99px;fill:#000000" text-anchor="end">0.20</text>
	<line x1="559.10" y1="483.26" x2="519.13" y2="483.26" style="stroke:#000000;stroke-width:5.76"/>
	<text x="499.08" y="518.29" style="font-family:'Helvetica';font-size:99.99px;fill:#000000" text-anchor="end">0.25</text>
	<text x="190.71" y="1464.63" style="font-family:'Helvetica';font-size:99.99px;fill:#000000" transform="rotate(-90 190.71,1464.63)" text-anchor="middle">Difference in Probabilities</text>
	<line x1="559.10" y1="2509.23" x2="3859.02" y2="2509.23" style="stroke:#000000;stroke-width:5.76"/>
	<line x1="622.46" y1="2509.23" x2="622.46" y2="2549.21" style="stroke:#000000;stroke-width:5.76"/>
	<text x="622.46" y="2625.15" style="font-family:'Helvetica';font-size:79.94px;fill:#000000" text-anchor="middle">0</text>
	<line x1="812.91" y1="2509.23" x2="812.91" y2="2549.21" style="stroke:#000000;stroke-width:5.76"/>
	<text x="812.91" y="2625.15" style="font-family:'Helvetica';font-size:79.94px;fill:#000000" text-anchor="middle">.3</text>
	<line x1="1003.24" y1="2509.23" x2="1003.24" y2="2549.21" style="stroke:#000000;stroke-width:5.76"/>
	<text x="1003.24" y="2625.15" style="font-family:'Helvetica';font-size:79.94px;fill:#000000" text-anchor="middle">.6</text>
	<line x1="1193.69" y1="2509.23" x2="1193.69" y2="2549.21" style="stroke:#000000;stroke-width:5.76"/>
	<text x="1193.69" y="2625.15" style="font-family:'Helvetica';font-size:79.94px;fill:#000000" text-anchor="middle">.9</text>
	<line x1="1384.02" y1="2509.23" x2="1384.02" y2="2549.21" style="stroke:#000000;stroke-width:5.76"/>
	<text x="1384.02" y="2625.15" style="font-family:'Helvetica';font-size:79.94px;fill:#000000" text-anchor="middle">1.2</text>
	<line x1="1574.47" y1="2509.23" x2="1574.47" y2="2549.21" style="stroke:#000000;stroke-width:5.76"/>
	<text x="1574.47" y="2625.15" style="font-family:'Helvetica';font-size:79.94px;fill:#000000" text-anchor="middle">1.5</text>
	<line x1="1764.80" y1="2509.23" x2="1764.80" y2="2549.21" style="stroke:#000000;stroke-width:5.76"/>
	<text x="1764.80" y="2625.15" style="font-family:'Helvetica';font-size:79.94px;fill:#000000" text-anchor="middle">1.8</text>
	<line x1="1955.25" y1="2509.23" x2="1955.25" y2="2549.21" style="stroke:#000000;stroke-width:5.76"/>
	<text x="1955.25" y="2625.15" style="font-family:'Helvetica';font-size:79.94px;fill:#000000" text-anchor="middle">2.1</text>
	<line x1="2145.58" y1="2509.23" x2="2145.58" y2="2549.21" style="stroke:#000000;stroke-width:5.76"/>
	<text x="2145.58" y="2625.15" style="font-family:'Helvetica';font-size:79.94px;fill:#000000" text-anchor="middle">2.4</text>
	<line x1="2336.03" y1="2509.23" x2="2336.03" y2="2549.21" style="stroke:#000000;stroke-width:5.76"/>
	<text x="2336.03" y="2625.15" style="font-family:'Helvetica';font-size:79.94px;fill:#000000" text-anchor="middle">2.7</text>
	<line x1="2526.48" y1="2509.23" x2="2526.48" y2="2549.21" style="stroke:#000000;stroke-width:5.76"/>
	<text x="2526.48" y="2625.15" style="font-family:'Helvetica';font-size:79.94px;fill:#000000" text-anchor="middle">3</text>
	<line x1="2716.81" y1="2509.23" x2="2716.81" y2="2549.21" style="stroke:#000000;stroke-width:5.76"/>
	<text x="2716.81" y="2625.15" style="font-family:'Helvetica';font-size:79.94px;fill:#000000" text-anchor="middle">3.3</text>
	<line x1="2907.26" y1="2509.23" x2="2907.26" y2="2549.21" style="stroke:#000000;stroke-width:5.76"/>
	<text x="2907.26" y="2625.15" style="font-family:'Helvetica';font-size:79.94px;fill:#000000" text-anchor="middle">3.6</text>
	<line x1="3097.59" y1="2509.23" x2="3097.59" y2="2549.21" style="stroke:#000000;stroke-width:5.76"/>
	<text x="3097.59" y="2625.15" style="font-family:'Helvetica';font-size:79.94px;fill:#000000" text-anchor="middle">3.9</text>
	<line x1="3288.04" y1="2509.23" x2="3288.04" y2="2549.21" style="stroke:#000000;stroke-width:5.76"/>
	<text x="3288.04" y="2625.15" style="font-family:'Helvetica';font-size:79.94px;fill:#000000" text-anchor="middle">4.2</text>
	<line x1="3478.36" y1="2509.23" x2="3478.36" y2="2549.21" style="stroke:#000000;stroke-width:5.76"/>
	<text x="3478.36" y="2625.15" style="font-family:'Helvetica';font-size:79.94px;fill:#000000" text-anchor="middle">4.5</text>
	<line x1="3668.82" y1="2509.23" x2="3668.82" y2="2549.21" style="stroke:#000000;stroke-width:5.76"/>
	<text x="3668.82" y="2625.15" style="font-family:'Helvetica';font-size:79.94px;fill:#000000" text-anchor="middle">4.8</text>
	<line x1="3859.14" y1="2509.23" x2="3859.14" y2="2549.21" style="stroke:#000000;stroke-width:5.76"/>
	<text x="3859.14" y="2625.15" style="font-family:'Helvetica';font-size:79.94px;fill:#000000" text-anchor="middle">5.1</text>
	<text x="2209.06" y="2729.16" style="font-family:'Helvetica';font-size:99.99px;fill:#000000" text-anchor="middle">Time (years)</text>
	<rect x="593.63" y="454.42" width="993.34" height="326.46" style="fill:#FFFFFF"/>
	<rect x="596.51" y="457.30" width="987.58" height="320.70" style="fill:none;stroke:#000000;stroke-width:5.76"/>
	<rect x="636.82" y="497.74" width="374.47" height="99.99" style="fill:#999999;fill-opacity:0.65"/>
	<rect x="641.14" y="502.06" width="365.83" height="91.35" style="fill:none;stroke:#808080;stroke-opacity:0.65;stroke-width:8.64"/>
	<line x1="636.82" y1="687.70" x2="1011.28" y2="687.70" style="stroke:#000000;stroke-width:8.64"/>
	<text x="1071.30" y="582.76" style="font-family:'Helvetica';font-size:99.99px;fill:#000000">CI95%</text>
	<text x="1071.30" y="722.73" style="font-family:'Helvetica';font-size:99.99px;fill:#000000">Difference</text>
	<text x="2209.06" y="369.63" style="font-family:'Helvetica';font-size:110.01px;fill:#000000" text-anchor="middle">from 2nd Readmission to 3rd Readmission</text>
	<text x="2209.06" y="215.98" style="font-family:'Helvetica';font-size:139.96px;fill:#1E2D53" text-anchor="middle">Difference in Probabilities (RP)</text>
</svg>
