<?xml version="1.0" encoding="UTF-8" standalone="no"?>
<!-- This is a Stata 16.1 generated SVG file (http://www.stata.com) -->

<svg version="1.1" width="5.50in" height="4.00in" viewBox="0 0 3960 2880" xmlns="http://www.w3.org/2000/svg" xmlns:xlink="http://www.w3.org/1999/xlink">
	<desc>Stata Graph - diff_los_mod44_3y_tc_22</desc>
	<rect x="0" y="0" width="3960" height="2880" style="fill:#EAF2F3;stroke:none"/>
	<rect x="0.00" y="0.00" width="3959.88" height="2880.00" style="fill:#FFFFFF"/>
	<rect x="2.88" y="2.88" width="3954.12" height="2874.24" style="fill:none;stroke:#FFFFFF;stroke-width:5.76"/>
	<rect x="390.80" y="419.90" width="3468.22" height="2089.34" style="fill:#FFFFFF"/>
	<rect x="393.68" y="422.78" width="3462.46" height="2083.58" style="fill:none;stroke:#FFFFFF;stroke-width:5.76"/>
	<line x1="390.80" y1="2445.87" x2="3859.02" y2="2445.87" style="stroke:#EAF2F3;stroke-width:8.64"/>
	<line x1="390.80" y1="2053.32" x2="3859.02" y2="2053.32" style="stroke:#EAF2F3;stroke-width:8.64"/>
	<line x1="390.80" y1="1660.78" x2="3859.02" y2="1660.78" style="stroke:#EAF2F3;stroke-width:8.64"/>
	<line x1="390.80" y1="1268.35" x2="3859.02" y2="1268.35" style="stroke:#EAF2F3;stroke-width:8.64"/>
	<line x1="390.80" y1="875.81" x2="3859.02" y2="875.81" style="stroke:#EAF2F3;stroke-width:8.64"/>
	<line x1="390.80" y1="483.26" x2="3859.02" y2="483.26" style="stroke:#EAF2F3;stroke-width:8.64"/>
	<line x1="390.80" y1="1268.35" x2="3859.02" y2="1268.35" style="stroke:#1A476F;stroke-width:8.64"/>
	<defs>
		<path id="path_iDGsbPcq" d="M618.87 1273.55 L618.87 1273.55 L636.57 1273.55 L636.57 1274.91 L654.27 1274.91 L654.27 1276.40 L672.09 1276.40 L672.09 1278.13 L689.78 1278.13 L689.78 1279.86 L707.60 1279.86 L707.60 1281.84 L725.30 1281.84 L725.30 1284.07 L743.00 1284.07 L743.00 1286.30 L760.82 1286.30 L760.82 1288.65 L778.51 1288.65 L778.51 1291.12 L796.33 1291.12 L796.33 1293.72 L814.03 1293.72 L814.03 1296.45 L831.72 1296.45 L831.72 1299.29 L849.54 1299.29 L849.54 1302.26 L867.24 1302.26 L867.24 1305.23 L885.06 1305.23 L885.06 1308.45 L902.76 1308.45 L902.76 1311.67 L920.45 1311.67 L920.45 1315.01 L938.27 1315.01 L938.27 1318.47 L955.97 1318.47 L955.97 1321.94 L973.66 1321.94 L973.66 1325.53 L991.49 1325.53 L991.49 1329.12 L1009.18 1329.12 L1009.18 1332.83 L1027.00 1332.83 L1027.00 1336.67 L1044.70 1336.67 L1044.70 1340.63 L1062.39 1340.63 L1062.39 1344.59 L1080.21 1344.59 L1080.21 1348.55 L1097.91 1348.55 L1097.91 1352.63 L1115.73 1352.63 L1115.73 1356.84 L1133.43 1356.84 L1133.43 1361.17 L1151.12 1361.17 L1151.12 1365.50 L1168.94 1365.50 L1168.94 1369.83 L1186.64 1369.83 L1186.64 1374.16 L1204.46 1374.16 L1204.46 1378.62 L1222.15 1378.62 L1222.15 1383.07 L1239.85 1383.07 L1239.85 1387.53 L1257.67 1387.53 L1257.67 1392.11 L1275.37 1392.11 L1275.37 1396.81 L1293.19 1396.81 L1293.19 1401.39 L1310.88 1401.39 L1310.88 1406.09 L1328.58 1406.09 L1328.58 1410.92 L1346.40 1410.92 L1346.40 1415.74 L1364.10 1415.74 L1364.10 1420.57 L1381.92 1420.57 L1381.92 1425.52 L1399.61 1425.52 L1399.61 1430.47 L1417.31 1430.47 L1417.31 1435.54 L1435.13 1435.54 L1435.13 1440.62 L1452.83 1440.62 L1452.83 1445.69 L1470.64 1445.69 L1470.64 1450.89 L1488.34 1450.89 L1488.34 1456.09 L1506.04 1456.09 L1506.04 1461.41 L1523.86 1461.41 L1523.86 1466.73 L1541.55 1466.73 L1541.55 1472.05 L1559.37 1472.05 L1559.37 1477.50 L1577.07 1477.50 L1577.07 1482.94 L1594.77 1482.94 L1594.77 1488.51 L1612.59 1488.51 L1612.59 1493.96 L1630.28 1493.96 L1630.28 1499.53 L1648.10 1499.53 L1648.10 1505.09 L1665.80 1505.09 L1665.80 1510.66 L1683.49 1510.66 L1683.49 1516.23 L1701.32 1516.23 L1701.32 1521.80 L1719.01 1521.80 L1719.01 1527.49 L1736.83 1527.49 L1736.83 1533.06 L1754.53 1533.06 L1754.53 1538.76 L1772.22 1538.76 L1772.22 1544.45 L1790.04 1544.45 L1790.04 1550.14 L1807.74 1550.14 L1807.74 1555.96 L1825.56 1555.96 L1825.56 1561.65 L1843.26 1561.65 L1843.26 1567.34 L1860.95 1567.34 L1860.95 1573.16 L1878.77 1573.16 L1878.77 1578.85 L1896.47 1578.85 L1896.47 1584.67 L1914.29 1584.67 L1914.29 1590.48 L1931.98 1590.48 L1931.98 1596.30 L1949.68 1596.30 L1949.68 1602.12 L1967.50 1602.12 L1967.50 1608.06 L1985.20 1608.06 L1985.20 1613.87 L2003.02 1613.87 L2003.02 1619.81 L2020.71 1619.81 L2020.71 1625.75 L2038.41 1625.75 L2038.41 1631.82 L2056.23 1631.82 L2056.23 1637.76 L2073.93 1637.76 L2073.93 1643.82 L2091.75 1643.82 L2091.75 1649.89 L2109.44 1649.89 L2109.44 1655.95 L2127.14 1655.95 L2127.14 1662.14 L2144.96 1662.14 L2144.96 1668.20 L2162.66 1668.20 L2162.66 1674.39 L2180.47 1674.39 L2180.47 1680.58 L2198.17 1680.58 L2198.17 1686.77 L2215.87 1686.77 L2215.87 1693.08 L2233.69 1693.08 L2233.69 1699.26 L2251.38 1699.26 L2251.38 1705.58 L2269.20 1705.58 L2269.20 1711.89 L2286.90 1711.89 L2286.90 1718.20 L2304.60 1718.20 L2304.60 1724.51 L2322.42 1724.51 L2322.42 1730.95 L2340.11 1730.95 L2340.11 1737.26 L2357.93 1737.26 L2357.93 1743.69 L2375.63 1743.69 L2375.63 1750.00 L2393.32 1750.00 L2393.32 1756.44 L2411.14 1756.44 L2411.14 1762.87 L2428.84 1762.87 L2428.84 1769.31 L2446.66 1769.31 L2446.66 1775.74 L2464.36 1775.74 L2464.36 1782.18 L2482.05 1782.18 L2482.05 1788.61 L2499.87 1788.61 L2499.87 1795.05 L2517.57 1795.05 L2517.57 1801.61 L2535.39 1801.61 L2535.39 1808.17 L2553.09 1808.17 L2553.09 1814.60 L2570.78 1814.60 L2570.78 1821.16 L2588.60 1821.16 L2588.60 1827.72 L2606.30 1827.72 L2606.30 1834.16 L2624.12 1834.16 L2624.12 1840.84 L2641.82 1840.84 L2641.82 1847.40 L2659.51 1847.40 L2659.51 1853.96 L2677.33 1853.96 L2677.33 1860.52 L2695.03 1860.52 L2695.03 1867.07 L2712.85 1867.07 L2712.85 1873.76 L2730.54 1873.76 L2730.54 1880.32 L2748.24 1880.32 L2748.24 1886.88 L2766.06 1886.88 L2766.06 1893.43 L2783.76 1893.43 L2783.76 1900.12 L2801.58 1900.12 L2801.58 1906.68 L2819.27 1906.68 L2819.27 1913.23 L2836.97 1913.23 L2836.97 1919.92 L2854.79 1919.92 L2854.79 1926.48 L2872.49 1926.48 L2872.49 1933.16 L2890.18 1933.16 L2890.18 1939.84 L2908.00 1939.84 L2908.00 1946.40 L2925.70 1946.40 L2925.70 1953.08 L2943.52 1953.08 L2943.52 1959.77 L2961.21 1959.77 L2961.21 1966.45 L2978.91 1966.45 L2978.91 1973.13 L2996.73 1973.13 L2996.73 1979.81 L3014.43 1979.81 L3014.43 1986.62 L3032.25 1986.62 L3032.25 1993.30 L3049.94 1993.30 L3049.94 1999.99 L3067.64 1999.99 L3067.64 2006.67 L3085.46 2006.67 L3085.46 2013.48 L3103.16 2013.48 L3103.16 2020.16 L3120.97 2020.16 L3120.97 2026.96 L3138.67 2026.96 L3138.67 2033.65 L3156.37 2033.65 L3156.37 2040.45 L3174.19 2040.45 L3174.19 2047.26 L3191.88 2047.26 L3191.88 2054.07 L3209.70 2054.07 L3209.70 2060.75 L3227.40 2060.75 L3227.40 2067.56 L3245.10 2067.56 L3245.10 2074.36 L3262.92 2074.36 L3262.92 2081.17 L3280.61 2081.17 L3280.61 2087.98 L3298.43 2087.98 L3298.43 2094.66 L3316.13 2094.66 L3316.13 2101.46 L3333.82 2101.46 L3333.82 2108.27 L3351.64 2108.27 L3351.64 2115.20 L3369.34 2115.20 L3369.34 2122.01 L3387.16 2122.01 L3387.16 2128.81 L3404.86 2128.81 L3404.86 2135.74 L3422.55 2135.74 L3422.55 2142.67 L3440.37 2142.67 L3440.37 2149.48 L3458.07 2149.48 L3458.07 2156.41 L3475.89 2156.41 L3475.89 2163.22 L3493.59 2163.22 L3493.59 2170.15 L3511.28 2170.15 L3511.28 2176.95 L3529.10 2176.95 L3529.10 2183.88 L3546.80 2183.88 L3546.80 2190.81 L3564.62 2190.81 L3564.62 2197.62 L3582.32 2197.62 L3582.32 2204.55 L3600.01 2204.55 L3600.01 2211.36 L3617.83 2211.36 L3617.83 2218.16 L3635.53 2218.16 L3635.53 2224.97 L3653.35 2224.97 L3653.35 2231.90 L3671.04 2231.90 L3671.04 2238.71 L3688.74 2238.71 L3688.74 2245.51 L3706.56 2245.51 L3706.56 2252.32 L3724.26 2252.32 L3724.26 2259.13 L3742.08 2259.13 L3742.08 2265.93 L3759.77 2265.93 L3759.77 2272.74 L3777.47 2272.74 L3777.47 2279.55 L3795.29 2279.55 L3795.29 2286.35 L3795.29 552.44 L3795.29 557.39 L3777.47 557.39 L3777.47 562.34 L3759.77 562.34 L3759.77 567.16 L3742.08 567.16 L3742.08 572.11 L3724.26 572.11 L3724.26 576.94 L3706.56 576.94 L3706.56 581.89 L3688.74 581.89 L3688.74 586.72 L3671.04 586.72 L3671.04 591.54 L3653.35 591.54 L3653.35 596.49 L3635.53 596.49 L3635.53 601.32 L3617.83 601.32 L3617.83 606.15 L3600.01 606.15 L3600.01 610.97 L3582.32 610.97 L3582.32 615.80 L3564.62 615.80 L3564.62 620.63 L3546.80 620.63 L3546.80 625.45 L3529.10 625.45 L3529.10 630.15 L3511.28 630.15 L3511.28 634.98 L3493.59 634.98 L3493.59 639.81 L3475.89 639.81 L3475.89 644.51 L3458.07 644.51 L3458.07 649.34 L3440.37 649.34 L3440.37 654.04 L3422.55 654.04 L3422.55 658.87 L3404.86 658.87 L3404.86 663.57 L3387.16 663.57 L3387.16 668.39 L3369.34 668.39 L3369.34 673.22 L3351.64 673.22 L3351.64 677.92 L3333.82 677.92 L3333.82 682.75 L3316.13 682.75 L3316.13 687.58 L3298.43 687.58 L3298.43 692.40 L3280.61 692.40 L3280.61 697.23 L3262.92 697.23 L3262.92 701.93 L3245.10 701.93 L3245.10 706.76 L3227.40 706.76 L3227.40 711.58 L3209.70 711.58 L3209.70 716.41 L3191.88 716.41 L3191.88 721.11 L3174.19 721.11 L3174.19 725.94 L3156.37 725.94 L3156.37 730.64 L3138.67 730.64 L3138.67 735.47 L3120.97 735.47 L3120.97 740.30 L3103.16 740.30 L3103.16 745.00 L3085.46 745.00 L3085.46 749.82 L3067.64 749.82 L3067.64 754.53 L3049.94 754.53 L3049.94 759.35 L3032.25 759.35 L3032.25 764.06 L3014.43 764.06 L3014.43 768.88 L2996.73 768.88 L2996.73 773.59 L2978.91 773.59 L2978.91 778.41 L2961.21 778.41 L2961.21 783.11 L2943.52 783.11 L2943.52 787.94 L2925.70 787.94 L2925.70 792.64 L2908.00 792.64 L2908.00 797.35 L2890.18 797.35 L2890.18 802.17 L2872.49 802.17 L2872.49 806.88 L2854.79 806.88 L2854.79 811.58 L2836.97 811.58 L2836.97 816.40 L2819.27 816.40 L2819.27 821.11 L2801.58 821.11 L2801.58 825.81 L2783.76 825.81 L2783.76 830.51 L2766.06 830.51 L2766.06 835.21 L2748.24 835.21 L2748.24 839.92 L2730.54 839.92 L2730.54 844.62 L2712.85 844.62 L2712.85 849.32 L2695.03 849.32 L2695.03 853.90 L2677.33 853.90 L2677.33 858.60 L2659.51 858.60 L2659.51 863.18 L2641.82 863.18 L2641.82 867.76 L2624.12 867.76 L2624.12 872.46 L2606.30 872.46 L2606.30 877.04 L2588.60 877.04 L2588.60 881.62 L2570.78 881.62 L2570.78 886.20 L2553.09 886.20 L2553.09 890.90 L2535.39 890.90 L2535.39 895.48 L2517.57 895.48 L2517.57 900.06 L2499.87 900.06 L2499.87 904.52 L2482.05 904.52 L2482.05 909.10 L2464.36 909.10 L2464.36 913.67 L2446.66 913.67 L2446.66 918.25 L2428.84 918.25 L2428.84 922.71 L2411.14 922.71 L2411.14 927.29 L2393.32 927.29 L2393.32 931.87 L2375.63 931.87 L2375.63 936.32 L2357.93 936.32 L2357.93 940.78 L2340.11 940.78 L2340.11 945.36 L2322.42 945.36 L2322.42 949.81 L2304.60 949.81 L2304.60 954.27 L2286.90 954.27 L2286.90 958.72 L2269.20 958.72 L2269.20 963.18 L2251.38 963.18 L2251.38 967.63 L2233.69 967.63 L2233.69 971.96 L2215.87 971.96 L2215.87 976.42 L2198.17 976.42 L2198.17 980.87 L2180.47 980.87 L2180.47 985.33 L2162.66 985.33 L2162.66 989.66 L2144.96 989.66 L2144.96 994.11 L2127.14 994.11 L2127.14 998.45 L2109.44 998.45 L2109.44 1002.90 L2091.75 1002.90 L2091.75 1007.23 L2073.93 1007.23 L2073.93 1011.69 L2056.23 1011.69 L2056.23 1016.02 L2038.41 1016.02 L2038.41 1020.35 L2020.71 1020.35 L2020.71 1024.68 L2003.02 1024.68 L2003.02 1029.14 L1985.20 1029.14 L1985.20 1033.47 L1967.50 1033.47 L1967.50 1037.80 L1949.68 1037.80 L1949.68 1042.13 L1931.98 1042.13 L1931.98 1046.46 L1914.29 1046.46 L1914.29 1050.67 L1896.47 1050.67 L1896.47 1055.00 L1878.77 1055.00 L1878.77 1059.21 L1860.95 1059.21 L1860.95 1063.42 L1843.26 1063.42 L1843.26 1067.62 L1825.56 1067.62 L1825.56 1071.71 L1807.74 1071.71 L1807.74 1075.79 L1790.04 1075.79 L1790.04 1079.88 L1772.22 1079.88 L1772.22 1083.96 L1754.53 1083.96 L1754.53 1088.04 L1736.83 1088.04 L1736.83 1092.00 L1719.01 1092.00 L1719.01 1095.96 L1701.32 1095.96 L1701.32 1099.92 L1683.49 1099.92 L1683.49 1103.88 L1665.80 1103.88 L1665.80 1107.72 L1648.10 1107.72 L1648.10 1111.56 L1630.28 1111.56 L1630.28 1115.27 L1612.59 1115.27 L1612.59 1119.11 L1594.77 1119.11 L1594.77 1122.82 L1577.07 1122.82 L1577.07 1126.41 L1559.37 1126.41 L1559.37 1130.12 L1541.55 1130.12 L1541.55 1133.83 L1523.86 1133.83 L1523.86 1137.42 L1506.04 1137.42 L1506.04 1141.01 L1488.34 1141.01 L1488.34 1144.60 L1470.64 1144.60 L1470.64 1148.19 L1452.83 1148.19 L1452.83 1151.78 L1435.13 1151.78 L1435.13 1155.24 L1417.31 1155.24 L1417.31 1158.83 L1399.61 1158.83 L1399.61 1162.30 L1381.92 1162.30 L1381.92 1165.76 L1364.10 1165.76 L1364.10 1169.10 L1346.40 1169.10 L1346.40 1172.57 L1328.58 1172.57 L1328.58 1175.91 L1310.88 1175.91 L1310.88 1179.25 L1293.19 1179.25 L1293.19 1182.47 L1275.37 1182.47 L1275.37 1185.81 L1257.67 1185.81 L1257.67 1189.03 L1239.85 1189.03 L1239.85 1192.24 L1222.15 1192.24 L1222.15 1195.34 L1204.46 1195.34 L1204.46 1198.43 L1186.64 1198.43 L1186.64 1201.40 L1168.94 1201.40 L1168.94 1204.37 L1151.12 1204.37 L1151.12 1207.22 L1133.43 1207.22 L1133.43 1209.94 L1115.73 1209.94 L1115.73 1212.79 L1097.91 1212.79 L1097.91 1215.51 L1080.21 1215.51 L1080.21 1218.23 L1062.39 1218.23 L1062.39 1220.83 L1044.70 1220.83 L1044.70 1223.43 L1027.00 1223.43 L1027.00 1225.91 L1009.18 1225.91 L1009.18 1228.38 L991.49 1228.38 L991.49 1230.86 L973.66 1230.86 L973.66 1233.21 L955.97 1233.21 L955.97 1235.43 L938.27 1235.43 L938.27 1237.66 L920.45 1237.66 L920.45 1239.77 L902.76 1239.77 L902.76 1241.87 L885.06 1241.87 L885.06 1243.85 L867.24 1243.85 L867.24 1245.83 L849.54 1245.83 L849.54 1247.81 L831.72 1247.81 L831.72 1249.67 L814.03 1249.67 L814.03 1251.40 L796.33 1251.40 L796.33 1253.01 L778.51 1253.01 L778.51 1254.62 L760.82 1254.62 L760.82 1256.10 L743.00 1256.10 L743.00 1257.46 L725.30 1257.46 L725.30 1258.82 L707.60 1258.82 L707.60 1260.06 L689.78 1260.06 L689.78 1261.30 L672.09 1261.30 L672.09 1262.41 L654.27 1262.41 L654.27 1263.53 L636.57 1263.53 L636.57 1264.39 L618.87 1264.39 L618.87 1273.55 Z" stroke-linejoin="round"/>
	</defs>
	<defs>
		<clipPath id="clipPath_QZCWuAlZ">
			<use xlink:href="#path_iDGsbPcq"/>
		</clipPath>
	</defs>
	<use xlink:href="#path_iDGsbPcq" style="stroke:none;fill:#999999;fill-opacity:0.65"/>
	<use xlink:href="#path_iDGsbPcq" style="fill:none;stroke:#808080;stroke-opacity:0.65;stroke-width:17.28" clip-path="url(#clipPath_QZCWuAlZ)"/>
	<path d=" M618.75 1269.10 L636.45 1269.10 L636.45 1269.22 L654.27 1269.22 L654.27 1269.47 L671.96 1269.47 L671.96 1269.71 L689.78 1269.71 L689.78 1270.09 L707.48 1270.09 L707.48 1270.46 L725.17 1270.46 L725.17 1270.83 L743.00 1270.83 L743.00 1271.20 L760.69 1271.20 L760.69 1271.69 L778.51 1271.69 L778.51 1272.19 L796.21 1272.19 L796.21 1272.68 L813.90 1272.68 L813.90 1273.06 L831.72 1273.06 L831.72 1273.55 L849.42 1273.55 L849.42 1274.05 L867.24 1274.05 L867.24 1274.66 L884.94 1274.66 L884.94 1275.16 L902.63 1275.16 L902.63 1275.78 L920.45 1275.78 L920.45 1276.40 L938.15 1276.40 L938.15 1277.02 L955.97 1277.02 L955.97 1277.63 L973.66 1277.63 L973.66 1278.25 L991.36 1278.25 L991.36 1278.87 L1009.18 1278.87 L1009.18 1279.49 L1026.88 1279.49 L1026.88 1280.11 L1044.70 1280.11 L1044.70 1280.73 L1062.39 1280.73 L1062.39 1281.47 L1080.09 1281.47 L1080.09 1282.09 L1097.91 1282.09 L1097.91 1282.83 L1115.61 1282.83 L1115.61 1283.45 L1133.43 1283.45 L1133.43 1284.19 L1151.12 1284.19 L1151.12 1284.94 L1168.82 1284.94 L1168.82 1285.68 L1186.64 1285.68 L1186.64 1286.42 L1204.34 1286.42 L1204.34 1287.04 L1222.15 1287.04 L1222.15 1287.66 L1239.85 1287.66 L1239.85 1288.40 L1257.55 1288.40 L1257.55 1289.02 L1275.37 1289.02 L1275.37 1289.64 L1293.06 1289.64 L1293.06 1290.38 L1310.88 1290.38 L1310.88 1291.12 L1328.58 1291.12 L1328.58 1291.74 L1346.28 1291.74 L1346.28 1292.49 L1364.10 1292.49 L1364.10 1293.23 L1381.79 1293.23 L1381.79 1293.97 L1399.61 1293.97 L1399.61 1294.71 L1417.31 1294.71 L1417.31 1295.46 L1435.01 1295.46 L1435.01 1296.20 L1452.83 1296.20 L1452.83 1297.06 L1470.52 1297.06 L1470.52 1297.81 L1488.34 1297.81 L1488.34 1298.67 L1506.04 1298.67 L1506.04 1299.54 L1523.73 1299.54 L1523.73 1300.28 L1541.55 1300.28 L1541.55 1301.15 L1559.25 1301.15 L1559.25 1302.01 L1577.07 1302.01 L1577.07 1302.88 L1594.77 1302.88 L1594.77 1303.87 L1612.46 1303.87 L1612.46 1304.74 L1630.28 1304.74 L1630.28 1305.60 L1647.98 1305.60 L1647.98 1306.47 L1665.80 1306.47 L1665.80 1307.34 L1683.49 1307.34 L1683.49 1308.20 L1701.19 1308.20 L1701.19 1308.94 L1719.01 1308.94 L1719.01 1309.81 L1736.71 1309.81 L1736.71 1310.68 L1754.53 1310.68 L1754.53 1311.42 L1772.22 1311.42 L1772.22 1312.29 L1789.92 1312.29 L1789.92 1313.03 L1807.74 1313.03 L1807.74 1313.89 L1825.44 1313.89 L1825.44 1314.64 L1843.26 1314.64 L1843.26 1315.50 L1860.95 1315.50 L1860.95 1316.25 L1878.65 1316.25 L1878.65 1316.99 L1896.47 1316.99 L1896.47 1317.73 L1914.16 1317.73 L1914.16 1318.47 L1931.86 1318.47 L1931.86 1319.22 L1949.68 1319.22 L1949.68 1319.96 L1967.38 1319.96 L1967.38 1320.83 L1985.20 1320.83 L1985.20 1321.57 L2002.89 1321.57 L2002.89 1322.31 L2020.59 1322.31 L2020.59 1323.18 L2038.41 1323.18 L2038.41 1323.92 L2056.11 1323.92 L2056.11 1324.79 L2073.93 1324.79 L2073.93 1325.53 L2091.62 1325.53 L2091.62 1326.39 L2109.32 1326.39 L2109.32 1327.26 L2127.14 1327.26 L2127.14 1328.13 L2144.84 1328.13 L2144.84 1328.99 L2162.66 1328.99 L2162.66 1329.86 L2180.35 1329.86 L2180.35 1330.85 L2198.05 1330.85 L2198.05 1331.72 L2215.87 1331.72 L2215.87 1332.58 L2233.56 1332.58 L2233.56 1333.45 L2251.38 1333.45 L2251.38 1334.44 L2269.08 1334.44 L2269.08 1335.30 L2286.78 1335.30 L2286.78 1336.29 L2304.60 1336.29 L2304.60 1337.28 L2322.29 1337.28 L2322.29 1338.15 L2340.11 1338.15 L2340.11 1339.14 L2357.81 1339.14 L2357.81 1340.01 L2375.51 1340.01 L2375.51 1341.00 L2393.32 1341.00 L2393.32 1341.86 L2411.02 1341.86 L2411.02 1342.85 L2428.84 1342.85 L2428.84 1343.84 L2446.54 1343.84 L2446.54 1344.71 L2464.23 1344.71 L2464.23 1345.70 L2482.05 1345.70 L2482.05 1346.69 L2499.75 1346.69 L2499.75 1347.68 L2517.57 1347.68 L2517.57 1348.55 L2535.27 1348.55 L2535.27 1349.54 L2552.96 1349.54 L2552.96 1350.53 L2570.78 1350.53 L2570.78 1351.39 L2588.48 1351.39 L2588.48 1352.38 L2606.30 1352.38 L2606.30 1353.37 L2623.99 1353.37 L2623.99 1354.36 L2641.69 1354.36 L2641.69 1355.35 L2659.51 1355.35 L2659.51 1356.34 L2677.21 1356.34 L2677.21 1357.33 L2695.03 1357.33 L2695.03 1358.32 L2712.72 1358.32 L2712.72 1359.19 L2730.42 1359.19 L2730.42 1360.18 L2748.24 1360.18 L2748.24 1361.17 L2765.94 1361.17 L2765.94 1362.04 L2783.76 1362.04 L2783.76 1363.03 L2801.45 1363.03 L2801.45 1364.02 L2819.15 1364.02 L2819.15 1364.88 L2836.97 1364.88 L2836.97 1365.87 L2854.66 1365.87 L2854.66 1366.74 L2872.49 1366.74 L2872.49 1367.73 L2890.18 1367.73 L2890.18 1368.59 L2907.88 1368.59 L2907.88 1369.58 L2925.70 1369.58 L2925.70 1370.57 L2943.39 1370.57 L2943.39 1371.56 L2961.21 1371.56 L2961.21 1372.55 L2978.91 1372.55 L2978.91 1373.42 L2996.61 1373.42 L2996.61 1374.41 L3014.43 1374.41 L3014.43 1375.40 L3032.12 1375.40 L3032.12 1376.39 L3049.94 1376.39 L3049.94 1377.38 L3067.64 1377.38 L3067.64 1378.37 L3085.34 1378.37 L3085.34 1379.24 L3103.16 1379.24 L3103.16 1380.23 L3120.85 1380.23 L3120.85 1381.22 L3138.67 1381.22 L3138.67 1382.21 L3156.37 1382.21 L3156.37 1383.32 L3174.06 1383.32 L3174.06 1384.31 L3191.88 1384.31 L3191.88 1385.30 L3209.58 1385.30 L3209.58 1386.29 L3227.40 1386.29 L3227.40 1387.28 L3245.10 1387.28 L3245.10 1388.27 L3262.79 1388.27 L3262.79 1389.26 L3280.61 1389.26 L3280.61 1390.25 L3298.31 1390.25 L3298.31 1391.24 L3316.13 1391.24 L3316.13 1392.23 L3333.82 1392.23 L3333.82 1393.22 L3351.52 1393.22 L3351.52 1394.21 L3369.34 1394.21 L3369.34 1395.20 L3387.04 1395.20 L3387.04 1396.31 L3404.86 1396.31 L3404.86 1397.30 L3422.55 1397.30 L3422.55 1398.42 L3440.25 1398.42 L3440.25 1399.53 L3458.07 1399.53 L3458.07 1400.52 L3475.77 1400.52 L3475.77 1401.64 L3493.59 1401.64 L3493.59 1402.63 L3511.28 1402.63 L3511.28 1403.62 L3528.98 1403.62 L3528.98 1404.73 L3546.80 1404.73 L3546.80 1405.72 L3564.49 1405.72 L3564.49 1406.83 L3582.32 1406.83 L3582.32 1407.82 L3600.01 1407.82 L3600.01 1408.81 L3617.71 1408.81 L3617.71 1409.80 L3635.53 1409.80 L3635.53 1410.79 L3653.22 1410.79 L3653.22 1411.78 L3671.04 1411.78 L3671.04 1412.77 L3688.74 1412.77 L3688.74 1413.76 L3706.44 1413.76 L3706.44 1414.75 L3724.26 1414.75 L3724.26 1415.74 L3741.95 1415.74 L3741.95 1416.61 L3759.77 1416.61 L3759.77 1417.60 L3777.47 1417.60 L3777.47 1418.59 L3795.16 1418.59 L3795.16 1419.46" stroke-linejoin="round" style="fill:none;stroke:#000000;stroke-width:8.64"/>
	<line x1="390.80" y1="2509.23" x2="390.80" y2="419.90" style="stroke:#000000;stroke-width:5.76"/>
	<line x1="390.80" y1="2445.87" x2="350.83" y2="2445.87" style="stroke:#000000;stroke-width:5.76"/>
	<text x="300.72" y="2445.87" style="font-family:'Helvetica';font-size:99.99px;fill:#000000" transform="rotate(-90 300.72,2445.87)" text-anchor="middle">-150</text>
	<line x1="390.80" y1="2053.32" x2="350.83" y2="2053.32" style="stroke:#000000;stroke-width:5.76"/>
	<text x="300.72" y="2053.32" style="font-family:'Helvetica';font-size:99.99px;fill:#000000" transform="rotate(-90 300.72,2053.32)" text-anchor="middle">-100</text>
	<line x1="390.80" y1="1660.78" x2="350.83" y2="1660.78" style="stroke:#000000;stroke-width:5.76"/>
	<text x="300.72" y="1660.78" style="font-family:'Helvetica';font-size:99.99px;fill:#000000" transform="rotate(-90 300.72,1660.78)" text-anchor="middle">-50</text>
	<line x1="390.80" y1="1268.35" x2="350.83" y2="1268.35" style="stroke:#000000;stroke-width:5.76"/>
	<text x="300.72" y="1268.35" style="font-family:'Helvetica';font-size:99.99px;fill:#000000" transform="rotate(-90 300.72,1268.35)" text-anchor="middle">0</text>
	<line x1="390.80" y1="875.81" x2="350.83" y2="875.81" style="stroke:#000000;stroke-width:5.76"/>
	<text x="300.72" y="875.81" style="font-family:'Helvetica';font-size:99.99px;fill:#000000" transform="rotate(-90 300.72,875.81)" text-anchor="middle">50</text>
	<line x1="390.80" y1="483.26" x2="350.83" y2="483.26" style="stroke:#000000;stroke-width:5.76"/>
	<text x="300.72" y="483.26" style="font-family:'Helvetica';font-size:99.99px;fill:#000000" transform="rotate(-90 300.72,483.26)" text-anchor="middle">100</text>
	<text x="190.71" y="1464.63" style="font-family:'Helvetica';font-size:99.99px;fill:#000000" transform="rotate(-90 190.71,1464.63)" text-anchor="middle">Difference in Lengths</text>
	<line x1="390.80" y1="2509.23" x2="3859.02" y2="2509.23" style="stroke:#000000;stroke-width:5.76"/>
	<line x1="454.16" y1="2509.23" x2="454.16" y2="2549.21" style="stroke:#000000;stroke-width:5.76"/>
	<text x="454.16" y="2625.15" style="font-family:'Helvetica';font-size:79.94px;fill:#000000" text-anchor="middle">0</text>
	<line x1="654.64" y1="2509.23" x2="654.64" y2="2549.21" style="stroke:#000000;stroke-width:5.76"/>
	<text x="654.64" y="2625.15" style="font-family:'Helvetica';font-size:79.94px;fill:#000000" text-anchor="middle">.3</text>
	<line x1="855.11" y1="2509.23" x2="855.11" y2="2549.21" style="stroke:#000000;stroke-width:5.76"/>
	<text x="855.11" y="2625.15" style="font-family:'Helvetica';font-size:79.94px;fill:#000000" text-anchor="middle">.6</text>
	<line x1="1055.59" y1="2509.23" x2="1055.59" y2="2549.21" style="stroke:#000000;stroke-width:5.76"/>
	<text x="1055.59" y="2625.15" style="font-family:'Helvetica';font-size:79.94px;fill:#000000" text-anchor="middle">.9</text>
	<line x1="1256.06" y1="2509.23" x2="1256.06" y2="2549.21" style="stroke:#000000;stroke-width:5.76"/>
	<text x="1256.06" y="2625.15" style="font-family:'Helvetica';font-size:79.94px;fill:#000000" text-anchor="middle">1.2</text>
	<line x1="1456.66" y1="2509.23" x2="1456.66" y2="2549.21" style="stroke:#000000;stroke-width:5.76"/>
	<text x="1456.66" y="2625.15" style="font-family:'Helvetica';font-size:79.94px;fill:#000000" text-anchor="middle">1.5</text>
	<line x1="1657.14" y1="2509.23" x2="1657.14" y2="2549.21" style="stroke:#000000;stroke-width:5.76"/>
	<text x="1657.14" y="2625.15" style="font-family:'Helvetica';font-size:79.94px;fill:#000000" text-anchor="middle">1.8</text>
	<line x1="1857.61" y1="2509.23" x2="1857.61" y2="2549.21" style="stroke:#000000;stroke-width:5.76"/>
	<text x="1857.61" y="2625.15" style="font-family:'Helvetica';font-size:79.94px;fill:#000000" text-anchor="middle">2.1</text>
	<line x1="2058.09" y1="2509.23" x2="2058.09" y2="2549.21" style="stroke:#000000;stroke-width:5.76"/>
	<text x="2058.09" y="2625.15" style="font-family:'Helvetica';font-size:79.94px;fill:#000000" text-anchor="middle">2.4</text>
	<line x1="2258.56" y1="2509.23" x2="2258.56" y2="2549.21" style="stroke:#000000;stroke-width:5.76"/>
	<text x="2258.56" y="2625.15" style="font-family:'Helvetica';font-size:79.94px;fill:#000000" text-anchor="middle">2.7</text>
	<line x1="2459.04" y1="2509.23" x2="2459.04" y2="2549.21" style="stroke:#000000;stroke-width:5.76"/>
	<text x="2459.04" y="2625.15" style="font-family:'Helvetica';font-size:79.94px;fill:#000000" text-anchor="middle">3</text>
	<line x1="2659.64" y1="2509.23" x2="2659.64" y2="2549.21" style="stroke:#000000;stroke-width:5.76"/>
	<text x="2659.64" y="2625.15" style="font-family:'Helvetica';font-size:79.94px;fill:#000000" text-anchor="middle">3.3</text>
	<line x1="2860.11" y1="2509.23" x2="2860.11" y2="2549.21" style="stroke:#000000;stroke-width:5.76"/>
	<text x="2860.11" y="2625.15" style="font-family:'Helvetica';font-size:79.94px;fill:#000000" text-anchor="middle">3.6</text>
	<line x1="3060.59" y1="2509.23" x2="3060.59" y2="2549.21" style="stroke:#000000;stroke-width:5.76"/>
	<text x="3060.59" y="2625.15" style="font-family:'Helvetica';font-size:79.94px;fill:#000000" text-anchor="middle">3.9</text>
	<line x1="3261.06" y1="2509.23" x2="3261.06" y2="2549.21" style="stroke:#000000;stroke-width:5.76"/>
	<text x="3261.06" y="2625.15" style="font-family:'Helvetica';font-size:79.94px;fill:#000000" text-anchor="middle">4.2</text>
	<line x1="3461.53" y1="2509.23" x2="3461.53" y2="2549.21" style="stroke:#000000;stroke-width:5.76"/>
	<text x="3461.53" y="2625.15" style="font-family:'Helvetica';font-size:79.94px;fill:#000000" text-anchor="middle">4.5</text>
	<line x1="3662.01" y1="2509.23" x2="3662.01" y2="2549.21" style="stroke:#000000;stroke-width:5.76"/>
	<text x="3662.01" y="2625.15" style="font-family:'Helvetica';font-size:79.94px;fill:#000000" text-anchor="middle">4.8</text>
	<line x1="3862.61" y1="2509.23" x2="3862.61" y2="2549.21" style="stroke:#000000;stroke-width:5.76"/>
	<text x="3862.61" y="2625.15" style="font-family:'Helvetica';font-size:79.94px;fill:#000000" text-anchor="middle">5.1</text>
	<text x="2124.91" y="2729.16" style="font-family:'Helvetica';font-size:99.99px;fill:#000000" text-anchor="middle">Time (years)</text>
	<rect x="425.33" y="2148.24" width="993.22" height="326.46" style="fill:#FFFFFF"/>
	<rect x="428.21" y="2151.12" width="987.46" height="320.70" style="fill:none;stroke:#000000;stroke-width:5.76"/>
	<rect x="468.52" y="2191.43" width="374.47" height="99.99" style="fill:#999999;fill-opacity:0.65"/>
	<rect x="472.84" y="2195.75" width="365.83" height="91.35" style="fill:none;stroke:#808080;stroke-opacity:0.65;stroke-width:8.64"/>
	<line x1="468.52" y1="2381.52" x2="842.99" y2="2381.52" style="stroke:#000000;stroke-width:8.64"/>
	<text x="902.88" y="2276.46" style="font-family:'Helvetica';font-size:99.99px;fill:#000000">CI95%</text>
	<text x="902.88" y="2416.55" style="font-family:'Helvetica';font-size:99.99px;fill:#000000">Difference</text>
	<text x="2124.91" y="369.63" style="font-family:'Helvetica';font-size:110.01px;fill:#000000" text-anchor="middle">from 3rd Readmission</text>
	<text x="2124.91" y="215.98" style="font-family:'Helvetica';font-size:139.96px;fill:#1E2D53" text-anchor="middle">Difference in Lengths of Stay (2nd patient)</text>
</svg>
