<?xml version="1.0" encoding="UTF-8" standalone="no"?>
<!-- This is a Stata 16.1 generated SVG file (http://www.stata.com) -->

<svg version="1.1" width="5.50in" height="4.00in" viewBox="0 0 3960 2880" xmlns="http://www.w3.org/2000/svg" xmlns:xlink="http://www.w3.org/1999/xlink">
	<desc>Stata Graph - diff_mod2435_3y_22</desc>
	<rect x="0" y="0" width="3960" height="2880" style="fill:#EAF2F3;stroke:none"/>
	<rect x="0.00" y="0.00" width="3959.88" height="2880.00" style="fill:#FFFFFF"/>
	<rect x="2.88" y="2.88" width="3954.12" height="2874.24" style="fill:none;stroke:#FFFFFF;stroke-width:5.76"/>
	<rect x="559.10" y="419.90" width="3299.92" height="2089.34" style="fill:#FFFFFF"/>
	<rect x="561.98" y="422.78" width="3294.16" height="2083.58" style="fill:none;stroke:#FFFFFF;stroke-width:5.76"/>
	<line x1="559.10" y1="2249.60" x2="3859.02" y2="2249.60" style="stroke:#EAF2F3;stroke-width:8.64"/>
	<line x1="559.10" y1="2053.32" x2="3859.02" y2="2053.32" style="stroke:#EAF2F3;stroke-width:8.64"/>
	<line x1="559.10" y1="1857.05" x2="3859.02" y2="1857.05" style="stroke:#EAF2F3;stroke-width:8.64"/>
	<line x1="559.10" y1="1660.78" x2="3859.02" y2="1660.78" style="stroke:#EAF2F3;stroke-width:8.64"/>
	<line x1="559.10" y1="1464.63" x2="3859.02" y2="1464.63" style="stroke:#EAF2F3;stroke-width:8.64"/>
	<line x1="559.10" y1="1268.35" x2="3859.02" y2="1268.35" style="stroke:#EAF2F3;stroke-width:8.64"/>
	<line x1="559.10" y1="1072.08" x2="3859.02" y2="1072.08" style="stroke:#EAF2F3;stroke-width:8.64"/>
	<line x1="559.10" y1="875.81" x2="3859.02" y2="875.81" style="stroke:#EAF2F3;stroke-width:8.64"/>
	<line x1="559.10" y1="679.53" x2="3859.02" y2="679.53" style="stroke:#EAF2F3;stroke-width:8.64"/>
	<line x1="559.10" y1="1464.63" x2="3859.02" y2="1464.63" style="stroke:#1A476F;stroke-width:8.64"/>
	<defs>
		<path id="path_tOfyfgjg" d="M778.88 1315.38 L778.88 1315.38 L795.71 1315.38 L795.71 1305.48 L812.54 1305.48 L812.54 1298.18 L829.37 1298.18 L829.37 1292.24 L846.20 1292.24 L846.20 1287.29 L863.16 1287.29 L863.16 1281.22 L879.99 1281.22 L879.99 1275.16 L896.82 1275.16 L896.82 1269.71 L913.65 1269.71 L913.65 1264.64 L930.48 1264.64 L930.48 1259.57 L947.31 1259.57 L947.31 1257.71 L964.26 1257.71 L964.26 1254.62 L981.09 1254.62 L981.09 1252.39 L997.92 1252.39 L997.92 1249.91 L1014.75 1249.91 L1014.75 1246.33 L1031.58 1246.33 L1031.58 1243.23 L1048.53 1243.23 L1048.53 1241.75 L1065.36 1241.75 L1065.36 1239.27 L1082.19 1239.27 L1082.19 1234.57 L1099.02 1234.57 L1099.02 1232.22 L1115.85 1232.22 L1115.85 1229.25 L1132.68 1229.25 L1132.68 1226.03 L1149.64 1226.03 L1149.64 1224.54 L1166.47 1224.54 L1166.47 1221.70 L1183.30 1221.70 L1183.30 1220.21 L1200.13 1220.21 L1200.13 1218.85 L1216.96 1218.85 L1216.96 1216.62 L1233.79 1216.62 L1233.79 1215.26 L1250.74 1215.26 L1250.74 1214.27 L1267.57 1214.27 L1267.57 1212.05 L1284.40 1212.05 L1284.40 1209.94 L1301.23 1209.94 L1301.23 1209.82 L1318.06 1209.82 L1318.06 1208.58 L1334.89 1208.58 L1334.89 1208.46 L1351.85 1208.46 L1351.85 1207.71 L1368.67 1207.71 L1368.67 1205.86 L1385.51 1205.86 L1385.51 1204.50 L1402.34 1204.50 L1402.34 1201.77 L1419.16 1201.77 L1419.16 1200.41 L1436.12 1200.41 L1436.12 1198.80 L1452.95 1198.80 L1452.95 1198.80 L1469.78 1198.80 L1469.78 1198.31 L1486.61 1198.31 L1486.61 1196.70 L1503.44 1196.70 L1503.44 1196.20 L1520.27 1196.20 L1520.27 1195.34 L1537.22 1195.34 L1537.22 1194.72 L1554.05 1194.72 L1554.05 1193.11 L1570.88 1193.11 L1570.88 1193.11 L1587.71 1193.11 L1587.71 1193.48 L1604.54 1193.48 L1604.54 1192.37 L1621.37 1192.37 L1621.37 1192.00 L1638.33 1192.00 L1638.33 1191.13 L1655.16 1191.13 L1655.16 1191.75 L1671.99 1191.75 L1671.99 1191.25 L1688.82 1191.25 L1688.82 1190.76 L1705.65 1190.76 L1705.65 1190.64 L1722.48 1190.64 L1722.48 1192.74 L1739.43 1192.74 L1739.43 1192.00 L1756.26 1192.00 L1756.26 1190.76 L1773.09 1190.76 L1773.09 1191.63 L1789.92 1191.63 L1789.92 1191.13 L1806.75 1191.13 L1806.75 1191.38 L1823.70 1191.38 L1823.70 1191.01 L1840.53 1191.01 L1840.53 1190.64 L1857.36 1190.64 L1857.36 1191.50 L1874.19 1191.50 L1874.19 1191.25 L1891.02 1191.25 L1891.02 1191.87 L1907.85 1191.87 L1907.85 1192.49 L1924.81 1192.49 L1924.81 1192.49 L1941.64 1192.49 L1941.64 1192.62 L1958.47 1192.62 L1958.47 1191.50 L1975.30 1191.50 L1975.30 1190.76 L1992.13 1190.76 L1992.13 1190.14 L2008.96 1190.14 L2008.96 1190.02 L2025.91 1190.02 L2025.91 1190.51 L2042.74 1190.51 L2042.74 1190.51 L2059.57 1190.51 L2059.57 1190.51 L2076.40 1190.51 L2076.40 1191.50 L2093.23 1191.50 L2093.23 1191.63 L2110.18 1191.63 L2110.18 1192.24 L2127.01 1192.24 L2127.01 1193.36 L2143.84 1193.36 L2143.84 1192.86 L2160.68 1192.86 L2160.68 1193.36 L2177.51 1193.36 L2177.51 1193.85 L2194.34 1193.85 L2194.34 1194.22 L2211.29 1194.22 L2211.29 1194.72 L2228.12 1194.72 L2228.12 1194.97 L2244.95 1194.97 L2244.95 1195.71 L2261.78 1195.71 L2261.78 1196.08 L2278.61 1196.08 L2278.61 1196.95 L2295.44 1196.95 L2295.44 1195.09 L2312.39 1195.09 L2312.39 1194.72 L2329.22 1194.72 L2329.22 1194.60 L2346.05 1194.60 L2346.05 1195.59 L2362.88 1195.59 L2362.88 1196.08 L2379.71 1196.08 L2379.71 1196.95 L2396.54 1196.95 L2396.54 1198.43 L2413.50 1198.43 L2413.50 1198.06 L2430.33 1198.06 L2430.33 1198.06 L2447.16 1198.06 L2447.16 1198.31 L2463.99 1198.31 L2463.99 1198.68 L2480.82 1198.68 L2480.82 1198.93 L2497.77 1198.93 L2497.77 1197.94 L2514.60 1197.94 L2514.60 1198.18 L2531.43 1198.18 L2531.43 1198.68 L2548.26 1198.68 L2548.26 1199.17 L2565.09 1199.17 L2565.09 1198.93 L2581.92 1198.93 L2581.92 1199.67 L2598.87 1199.67 L2598.87 1200.29 L2615.70 1200.29 L2615.70 1200.17 L2632.53 1200.17 L2632.53 1200.91 L2649.36 1200.91 L2649.36 1201.53 L2666.19 1201.53 L2666.19 1201.77 L2683.02 1201.77 L2683.02 1202.64 L2699.98 1202.64 L2699.98 1203.51 L2716.81 1203.51 L2716.81 1203.63 L2733.64 1203.63 L2733.64 1204.62 L2750.47 1204.62 L2750.47 1204.50 L2767.30 1204.50 L2767.30 1205.24 L2784.25 1205.24 L2784.25 1205.73 L2801.08 1205.73 L2801.08 1205.49 L2817.91 1205.49 L2817.91 1206.23 L2834.74 1206.23 L2834.74 1207.22 L2851.57 1207.22 L2851.57 1208.58 L2868.40 1208.58 L2868.40 1210.07 L2885.36 1210.07 L2885.36 1209.94 L2902.18 1209.94 L2902.18 1210.31 L2919.01 1210.31 L2919.01 1210.31 L2935.84 1210.31 L2935.84 1212.17 L2952.68 1212.17 L2952.68 1212.17 L2969.51 1212.17 L2969.51 1212.17 L2986.46 1212.17 L2986.46 1213.90 L3003.29 1213.90 L3003.29 1214.15 L3020.12 1214.15 L3020.12 1214.52 L3036.95 1214.52 L3036.95 1215.26 L3053.78 1215.26 L3053.78 1215.63 L3070.61 1215.63 L3070.61 1216.87 L3087.56 1216.87 L3087.56 1217.61 L3104.39 1217.61 L3104.39 1218.85 L3121.22 1218.85 L3121.22 1219.22 L3138.05 1219.22 L3138.05 1219.59 L3154.88 1219.59 L3154.88 1219.22 L3171.84 1219.22 L3171.84 1219.10 L3188.67 1219.10 L3188.67 1219.35 L3205.50 1219.35 L3205.50 1219.35 L3222.33 1219.35 L3222.33 1219.72 L3239.16 1219.72 L3239.16 1220.34 L3255.99 1220.34 L3255.99 1220.46 L3272.94 1220.46 L3272.94 1220.46 L3289.77 1220.46 L3289.77 1221.57 L3306.60 1221.57 L3306.60 1222.44 L3323.43 1222.44 L3323.43 1222.94 L3340.26 1222.94 L3340.26 1223.31 L3357.09 1223.31 L3357.09 1223.43 L3374.04 1223.43 L3374.04 1223.43 L3390.87 1223.43 L3390.87 1224.79 L3407.70 1224.79 L3407.70 1226.28 L3424.53 1226.28 L3424.53 1225.91 L3441.36 1225.91 L3441.36 1226.65 L3458.19 1226.65 L3458.19 1226.90 L3475.15 1226.90 L3475.15 1227.89 L3491.98 1227.89 L3491.98 1228.13 L3508.81 1228.13 L3508.81 1228.26 L3525.64 1228.26 L3525.64 1229.87 L3542.47 1229.87 L3542.47 1231.23 L3559.42 1231.23 L3559.42 1230.36 L3576.25 1230.36 L3576.25 1230.86 L3593.08 1230.86 L3593.08 1231.23 L3609.91 1231.23 L3609.91 1232.71 L3626.74 1232.71 L3626.74 1233.21 L3643.57 1233.21 L3643.57 1234.32 L3660.53 1234.32 L3660.53 1234.57 L3677.36 1234.57 L3677.36 1233.33 L3694.18 1233.33 L3694.18 1233.83 L3711.01 1233.83 L3711.01 1234.69 L3727.84 1234.69 L3727.84 1234.94 L3744.68 1234.94 L3744.68 1235.31 L3761.63 1235.31 L3761.63 1235.43 L3778.46 1235.43 L3778.46 1235.31 L3795.29 1235.31 L3795.29 1235.06 L3795.29 1055.13 L3795.29 1055.50 L3778.46 1055.50 L3778.46 1055.74 L3761.63 1055.74 L3761.63 1055.74 L3744.68 1055.74 L3744.68 1055.50 L3727.84 1055.50 L3727.84 1055.50 L3711.01 1055.50 L3711.01 1054.75 L3694.18 1054.75 L3694.18 1054.38 L3677.36 1054.38 L3677.36 1055.74 L3660.53 1055.74 L3660.53 1055.62 L3643.57 1055.62 L3643.57 1054.63 L3626.74 1054.63 L3626.74 1054.26 L3609.91 1054.26 L3609.91 1052.90 L3593.08 1052.90 L3593.08 1052.65 L3576.25 1052.65 L3576.25 1052.16 L3559.42 1052.16 L3559.42 1053.02 L3542.47 1053.02 L3542.47 1052.03 L3525.64 1052.03 L3525.64 1050.55 L3508.81 1050.55 L3508.81 1050.67 L3491.98 1050.67 L3491.98 1050.79 L3475.15 1050.79 L3475.15 1049.93 L3458.19 1049.93 L3458.19 1049.93 L3441.36 1049.93 L3441.36 1049.43 L3424.53 1049.43 L3424.53 1049.93 L3407.70 1049.93 L3407.70 1048.57 L3390.87 1048.57 L3390.87 1047.45 L3374.04 1047.45 L3374.04 1047.58 L3357.09 1047.58 L3357.09 1047.70 L3340.26 1047.70 L3340.26 1047.58 L3323.43 1047.58 L3323.43 1047.21 L3306.60 1047.21 L3306.60 1046.59 L3289.77 1046.59 L3289.77 1045.72 L3272.94 1045.72 L3272.94 1045.72 L3255.99 1045.72 L3255.99 1045.97 L3239.16 1045.97 L3239.16 1045.47 L3222.33 1045.47 L3222.33 1045.23 L3205.50 1045.23 L3205.50 1045.23 L3188.67 1045.23 L3188.67 1045.10 L3171.84 1045.10 L3171.84 1045.47 L3154.88 1045.47 L3154.88 1046.09 L3138.05 1046.09 L3138.05 1045.84 L3121.22 1045.84 L3121.22 1045.72 L3104.39 1045.72 L3104.39 1044.61 L3087.56 1044.61 L3087.56 1043.99 L3070.61 1043.99 L3070.61 1042.87 L3053.78 1042.87 L3053.78 1042.63 L3036.95 1042.63 L3036.95 1042.26 L3020.12 1042.26 L3020.12 1042.26 L3003.29 1042.26 L3003.29 1042.26 L2986.46 1042.26 L2986.46 1040.89 L2969.51 1040.89 L2969.51 1041.02 L2952.68 1041.02 L2952.68 1041.14 L2935.84 1041.14 L2935.84 1039.53 L2919.01 1039.53 L2919.01 1039.66 L2902.18 1039.66 L2902.18 1039.53 L2885.36 1039.53 L2885.36 1039.90 L2868.40 1039.90 L2868.40 1038.67 L2851.57 1038.67 L2851.57 1037.55 L2834.74 1037.55 L2834.74 1036.69 L2817.91 1036.69 L2817.91 1036.31 L2801.08 1036.31 L2801.08 1036.56 L2784.25 1036.56 L2784.25 1036.19 L2767.30 1036.19 L2767.30 1035.70 L2750.47 1035.70 L2750.47 1035.82 L2733.64 1035.82 L2733.64 1035.08 L2716.81 1035.08 L2716.81 1035.08 L2699.98 1035.08 L2699.98 1034.33 L2683.02 1034.33 L2683.02 1033.59 L2666.19 1033.59 L2666.19 1033.59 L2649.36 1033.59 L2649.36 1033.10 L2632.53 1033.10 L2632.53 1032.60 L2615.70 1032.60 L2615.70 1032.73 L2598.87 1032.73 L2598.87 1032.35 L2581.92 1032.35 L2581.92 1031.74 L2565.09 1031.74 L2565.09 1032.23 L2548.26 1032.23 L2548.26 1031.98 L2531.43 1031.98 L2531.43 1031.74 L2514.60 1031.74 L2514.60 1031.49 L2497.77 1031.49 L2497.77 1032.85 L2480.82 1032.85 L2480.82 1032.73 L2463.99 1032.73 L2463.99 1032.48 L2447.16 1032.48 L2447.16 1032.60 L2430.33 1032.60 L2430.33 1032.73 L2413.50 1032.73 L2413.50 1033.34 L2396.54 1033.34 L2396.54 1032.11 L2379.71 1032.11 L2379.71 1031.61 L2362.88 1031.61 L2362.88 1031.49 L2346.05 1031.49 L2346.05 1030.87 L2329.22 1030.87 L2329.22 1031.24 L2312.39 1031.24 L2312.39 1031.86 L2295.44 1031.86 L2295.44 1033.96 L2278.61 1033.96 L2278.61 1033.22 L2261.78 1033.22 L2261.78 1033.10 L2244.95 1033.10 L2244.95 1032.73 L2228.12 1032.73 L2228.12 1032.73 L2211.29 1032.73 L2211.29 1032.35 L2194.34 1032.35 L2194.34 1032.35 L2177.51 1032.35 L2177.51 1031.98 L2160.68 1031.98 L2160.68 1031.74 L2143.84 1031.74 L2143.84 1032.48 L2127.01 1032.48 L2127.01 1031.74 L2110.18 1031.74 L2110.18 1031.36 L2093.23 1031.36 L2093.23 1031.61 L2076.40 1031.61 L2076.40 1030.87 L2059.57 1030.87 L2059.57 1031.12 L2042.74 1031.12 L2042.74 1031.36 L2025.91 1031.36 L2025.91 1031.24 L2008.96 1031.24 L2008.96 1031.49 L1992.13 1031.49 L1992.13 1032.48 L1975.30 1032.48 L1975.30 1033.34 L1958.47 1033.34 L1958.47 1034.71 L1941.64 1034.71 L1941.64 1034.71 L1924.81 1034.71 L1924.81 1035.08 L1907.85 1035.08 L1907.85 1034.83 L1891.02 1034.83 L1891.02 1034.33 L1874.19 1034.33 L1874.19 1034.83 L1857.36 1034.83 L1857.36 1034.21 L1840.53 1034.21 L1840.53 1034.83 L1823.70 1034.83 L1823.70 1035.57 L1806.75 1035.57 L1806.75 1035.70 L1789.92 1035.70 L1789.92 1036.69 L1773.09 1036.69 L1773.09 1036.19 L1756.26 1036.19 L1756.26 1037.68 L1739.43 1037.68 L1739.43 1038.91 L1722.48 1038.91 L1722.48 1037.30 L1705.65 1037.30 L1705.65 1037.68 L1688.82 1037.68 L1688.82 1038.67 L1671.99 1038.67 L1671.99 1039.53 L1655.16 1039.53 L1655.16 1039.16 L1638.33 1039.16 L1638.33 1040.40 L1621.37 1040.40 L1621.37 1041.14 L1604.54 1041.14 L1604.54 1042.75 L1587.71 1042.75 L1587.71 1042.87 L1570.88 1042.87 L1570.88 1043.25 L1554.05 1043.25 L1554.05 1045.10 L1537.22 1045.10 L1537.22 1046.22 L1520.27 1046.22 L1520.27 1047.45 L1503.44 1047.45 L1503.44 1048.32 L1486.61 1048.32 L1486.61 1050.42 L1469.78 1050.42 L1469.78 1051.54 L1452.95 1051.54 L1452.95 1052.03 L1436.12 1052.03 L1436.12 1054.38 L1419.16 1054.38 L1419.16 1056.36 L1402.34 1056.36 L1402.34 1059.58 L1385.51 1059.58 L1385.51 1061.56 L1368.67 1061.56 L1368.67 1064.04 L1351.85 1064.04 L1351.85 1065.40 L1334.89 1065.40 L1334.89 1066.14 L1318.06 1066.14 L1318.06 1068.00 L1301.23 1068.00 L1301.23 1068.86 L1284.40 1068.86 L1284.40 1071.83 L1267.57 1071.83 L1267.57 1074.80 L1250.74 1074.80 L1250.74 1076.41 L1233.79 1076.41 L1233.79 1078.27 L1216.96 1078.27 L1216.96 1081.61 L1200.13 1081.61 L1200.13 1083.96 L1183.30 1083.96 L1183.30 1086.31 L1166.47 1086.31 L1166.47 1090.02 L1149.64 1090.02 L1149.64 1092.38 L1132.68 1092.38 L1132.68 1096.46 L1115.85 1096.46 L1115.85 1100.67 L1099.02 1100.67 L1099.02 1104.38 L1082.19 1104.38 L1082.19 1110.07 L1065.36 1110.07 L1065.36 1113.78 L1048.53 1113.78 L1048.53 1116.51 L1031.58 1116.51 L1031.58 1120.96 L1014.75 1120.96 L1014.75 1126.28 L997.92 1126.28 L997.92 1130.24 L981.09 1130.24 L981.09 1134.20 L964.26 1134.20 L964.26 1138.91 L947.31 1138.91 L947.31 1142.50 L930.48 1142.50 L930.48 1149.43 L913.65 1149.43 L913.65 1156.36 L896.82 1156.36 L896.82 1164.03 L879.99 1164.03 L879.99 1172.20 L863.16 1172.20 L863.16 1180.74 L846.20 1180.74 L846.20 1188.28 L829.37 1188.28 L829.37 1197.32 L812.54 1197.32 L812.54 1207.59 L795.71 1207.59 L795.71 1220.71 L778.88 1220.71 L778.88 1315.38 Z" stroke-linejoin="round"/>
	</defs>
	<defs>
		<clipPath id="clipPath_fVUQKETq">
			<use xlink:href="#path_tOfyfgjg"/>
		</clipPath>
	</defs>
	<use xlink:href="#path_tOfyfgjg" style="stroke:none;fill:#999999;fill-opacity:0.75"/>
	<use xlink:href="#path_tOfyfgjg" style="fill:none;stroke:#808080;stroke-opacity:0.75;stroke-width:17.28" clip-path="url(#clipPath_fVUQKETq)"/>
	<path d=" M778.76 1268.11 L795.59 1268.11 L795.59 1256.60 L812.54 1256.60 L812.54 1247.81 L829.37 1247.81 L829.37 1240.26 L846.20 1240.26 L846.20 1234.07 L863.03 1234.07 L863.03 1226.77 L879.86 1226.77 L879.86 1219.59 L896.69 1219.59 L896.69 1213.04 L913.65 1213.04 L913.65 1207.10 L930.48 1207.10 L930.48 1201.03 L947.31 1201.03 L947.31 1198.31 L964.14 1198.31 L964.14 1194.47 L980.97 1194.47 L980.97 1191.25 L997.80 1191.25 L997.80 1188.16 L1014.75 1188.16 L1014.75 1183.58 L1031.58 1183.58 L1031.58 1179.87 L1048.41 1179.87 L1048.41 1177.77 L1065.24 1177.77 L1065.24 1174.55 L1082.07 1174.55 L1082.07 1169.47 L1099.02 1169.47 L1099.02 1166.38 L1115.85 1166.38 L1115.85 1162.79 L1132.68 1162.79 L1132.68 1159.20 L1149.51 1159.20 L1149.51 1157.22 L1166.34 1157.22 L1166.34 1154.00 L1183.17 1154.00 L1183.17 1152.02 L1200.13 1152.02 L1200.13 1150.17 L1216.96 1150.17 L1216.96 1147.45 L1233.79 1147.45 L1233.79 1145.84 L1250.62 1145.84 L1250.62 1144.48 L1267.45 1144.48 L1267.45 1141.88 L1284.28 1141.88 L1284.28 1139.40 L1301.23 1139.40 L1301.23 1138.91 L1318.06 1138.91 L1318.06 1137.30 L1334.89 1137.30 L1334.89 1136.93 L1351.72 1136.93 L1351.72 1135.81 L1368.55 1135.81 L1368.55 1133.59 L1385.51 1133.59 L1385.51 1131.98 L1402.34 1131.98 L1402.34 1129.01 L1419.16 1129.01 L1419.16 1127.40 L1435.99 1127.40 L1435.99 1125.42 L1452.83 1125.42 L1452.83 1125.17 L1469.65 1125.17 L1469.65 1124.30 L1486.61 1124.30 L1486.61 1122.45 L1503.44 1122.45 L1503.44 1121.71 L1520.27 1121.71 L1520.27 1120.72 L1537.10 1120.72 L1537.10 1119.85 L1553.93 1119.85 L1553.93 1118.12 L1570.76 1118.12 L1570.76 1117.87 L1587.71 1117.87 L1587.71 1117.99 L1604.54 1117.99 L1604.54 1116.63 L1621.37 1116.63 L1621.37 1116.14 L1638.20 1116.14 L1638.20 1115.02 L1655.03 1115.02 L1655.03 1115.52 L1671.86 1115.52 L1671.86 1114.90 L1688.82 1114.90 L1688.82 1114.16 L1705.65 1114.16 L1705.65 1113.91 L1722.48 1113.91 L1722.48 1115.76 L1739.31 1115.76 L1739.31 1114.77 L1756.14 1114.77 L1756.14 1113.41 L1773.09 1113.41 L1773.09 1114.03 L1789.92 1114.03 L1789.92 1113.29 L1806.75 1113.29 L1806.75 1113.41 L1823.58 1113.41 L1823.58 1112.79 L1840.41 1112.79 L1840.41 1112.30 L1857.24 1112.30 L1857.24 1113.04 L1874.19 1113.04 L1874.19 1112.67 L1891.02 1112.67 L1891.02 1113.29 L1907.85 1113.29 L1907.85 1113.78 L1924.68 1113.78 L1924.68 1113.54 L1941.51 1113.54 L1941.51 1113.54 L1958.34 1113.54 L1958.34 1112.30 L1975.30 1112.30 L1975.30 1111.56 L1992.13 1111.56 L1992.13 1110.69 L2008.96 1110.69 L2008.96 1110.57 L2025.79 1110.57 L2025.79 1110.94 L2042.62 1110.94 L2042.62 1110.69 L2059.45 1110.69 L2059.45 1110.57 L2076.40 1110.57 L2076.40 1111.43 L2093.23 1111.43 L2093.23 1111.43 L2110.06 1111.43 L2110.06 1111.93 L2126.89 1111.93 L2126.89 1112.79 L2143.72 1112.79 L2143.72 1112.18 L2160.68 1112.18 L2160.68 1112.55 L2177.51 1112.55 L2177.51 1113.04 L2194.34 1113.04 L2194.34 1113.17 L2211.16 1113.17 L2211.16 1113.66 L2227.99 1113.66 L2227.99 1113.78 L2244.82 1113.78 L2244.82 1114.28 L2261.78 1114.28 L2261.78 1114.53 L2278.61 1114.53 L2278.61 1115.39 L2295.44 1115.39 L2295.44 1113.41 L2312.27 1113.41 L2312.27 1112.92 L2329.10 1112.92 L2329.10 1112.67 L2345.93 1112.67 L2345.93 1113.41 L2362.88 1113.41 L2362.88 1113.78 L2379.71 1113.78 L2379.71 1114.53 L2396.54 1114.53 L2396.54 1115.76 L2413.37 1115.76 L2413.37 1115.27 L2430.20 1115.27 L2430.20 1115.27 L2447.16 1115.27 L2447.16 1115.27 L2463.99 1115.27 L2463.99 1115.64 L2480.82 1115.64 L2480.82 1115.76 L2497.65 1115.76 L2497.65 1114.53 L2514.48 1114.53 L2514.48 1114.90 L2531.31 1114.90 L2531.31 1115.27 L2548.26 1115.27 L2548.26 1115.64 L2565.09 1115.64 L2565.09 1115.27 L2581.92 1115.27 L2581.92 1116.01 L2598.75 1116.01 L2598.75 1116.38 L2615.58 1116.38 L2615.58 1116.26 L2632.41 1116.26 L2632.41 1116.88 L2649.36 1116.88 L2649.36 1117.37 L2666.19 1117.37 L2666.19 1117.62 L2683.02 1117.62 L2683.02 1118.36 L2699.85 1118.36 L2699.85 1119.23 L2716.68 1119.23 L2716.68 1119.23 L2733.51 1119.23 L2733.51 1120.10 L2750.47 1120.10 L2750.47 1119.97 L2767.30 1119.97 L2767.30 1120.59 L2784.13 1120.59 L2784.13 1121.09 L2800.96 1121.09 L2800.96 1120.84 L2817.79 1120.84 L2817.79 1121.33 L2834.74 1121.33 L2834.74 1122.32 L2851.57 1122.32 L2851.57 1123.56 L2868.40 1123.56 L2868.40 1124.80 L2885.23 1124.80 L2885.23 1124.68 L2902.06 1124.68 L2902.06 1124.92 L2918.89 1124.92 L2918.89 1124.92 L2935.84 1124.92 L2935.84 1126.53 L2952.68 1126.53 L2952.68 1126.53 L2969.51 1126.53 L2969.51 1126.41 L2986.34 1126.41 L2986.34 1127.89 L3003.16 1127.89 L3003.16 1128.14 L3019.99 1128.14 L3019.99 1128.39 L3036.95 1128.39 L3036.95 1128.88 L3053.78 1128.88 L3053.78 1129.13 L3070.61 1129.13 L3070.61 1130.37 L3087.44 1130.37 L3087.44 1130.99 L3104.27 1130.99 L3104.27 1132.22 L3121.10 1132.22 L3121.10 1132.35 L3138.05 1132.35 L3138.05 1132.72 L3154.88 1132.72 L3154.88 1132.22 L3171.71 1132.22 L3171.71 1131.98 L3188.54 1131.98 L3188.54 1132.22 L3205.37 1132.22 L3205.37 1132.22 L3222.33 1132.22 L3222.33 1132.47 L3239.16 1132.47 L3239.16 1133.09 L3255.99 1133.09 L3255.99 1132.97 L3272.82 1132.97 L3272.82 1132.97 L3289.65 1132.97 L3289.65 1133.96 L3306.48 1133.96 L3306.48 1134.70 L3323.43 1134.70 L3323.43 1135.07 L3340.26 1135.07 L3340.26 1135.44 L3357.09 1135.44 L3357.09 1135.32 L3373.92 1135.32 L3373.92 1135.32 L3390.75 1135.32 L3390.75 1136.56 L3407.58 1136.56 L3407.58 1138.04 L3424.53 1138.04 L3424.53 1137.55 L3441.36 1137.55 L3441.36 1138.16 L3458.19 1138.16 L3458.19 1138.29 L3475.02 1138.29 L3475.02 1139.28 L3491.85 1139.28 L3491.85 1139.28 L3508.81 1139.28 L3508.81 1139.28 L3525.64 1139.28 L3525.64 1140.89 L3542.47 1140.89 L3542.47 1142.00 L3559.30 1142.00 L3559.30 1141.26 L3576.13 1141.26 L3576.13 1141.63 L3592.96 1141.63 L3592.96 1142.00 L3609.91 1142.00 L3609.91 1143.36 L3626.74 1143.36 L3626.74 1143.86 L3643.57 1143.86 L3643.57 1144.85 L3660.40 1144.85 L3660.40 1144.97 L3677.23 1144.97 L3677.23 1143.73 L3694.06 1143.73 L3694.06 1144.23 L3711.01 1144.23 L3711.01 1144.97 L3727.84 1144.97 L3727.84 1145.09 L3744.68 1145.09 L3744.68 1145.34 L3761.51 1145.34 L3761.51 1145.47 L3778.34 1145.47 L3778.34 1145.34 L3795.16 1145.34 L3795.16 1144.97" stroke-linejoin="round" style="fill:none;stroke:#000000;stroke-width:8.64"/>
	<defs>
		<path id="path_jQDCjzzF" d="M778.88 1226.90 L778.88 1226.90 L795.71 1226.90 L795.71 1217.00 L812.54 1217.00 L812.54 1209.45 L829.37 1209.45 L829.37 1201.40 L846.20 1201.40 L846.20 1193.98 L863.16 1193.98 L863.16 1189.27 L879.99 1189.27 L879.99 1185.93 L896.82 1185.93 L896.82 1180.74 L913.65 1180.74 L913.65 1176.90 L930.48 1176.90 L930.48 1174.92 L947.31 1174.92 L947.31 1170.46 L964.26 1170.46 L964.26 1169.35 L981.09 1169.35 L981.09 1166.26 L997.92 1166.26 L997.92 1163.41 L1014.75 1163.41 L1014.75 1160.56 L1031.58 1160.56 L1031.58 1158.21 L1048.53 1158.21 L1048.53 1154.50 L1065.36 1154.50 L1065.36 1150.91 L1082.19 1150.91 L1082.19 1150.54 L1099.02 1150.54 L1099.02 1148.56 L1115.85 1148.56 L1115.85 1145.71 L1132.68 1145.71 L1132.68 1144.97 L1149.64 1144.97 L1149.64 1143.86 L1166.47 1143.86 L1166.47 1141.63 L1183.30 1141.63 L1183.30 1141.75 L1200.13 1141.75 L1200.13 1140.89 L1216.96 1140.89 L1216.96 1139.77 L1233.79 1139.77 L1233.79 1139.65 L1250.74 1139.65 L1250.74 1137.30 L1267.57 1137.30 L1267.57 1137.05 L1284.40 1137.05 L1284.40 1137.30 L1301.23 1137.30 L1301.23 1136.93 L1318.06 1136.93 L1318.06 1136.43 L1334.89 1136.43 L1334.89 1133.83 L1351.85 1133.83 L1351.85 1133.09 L1368.67 1133.09 L1368.67 1133.46 L1385.51 1133.46 L1385.51 1133.46 L1402.34 1133.46 L1402.34 1133.09 L1419.16 1133.09 L1419.16 1132.84 L1436.12 1132.84 L1436.12 1131.61 L1452.95 1131.61 L1452.95 1132.22 L1469.78 1132.22 L1469.78 1131.73 L1486.61 1131.73 L1486.61 1130.99 L1503.44 1130.99 L1503.44 1130.49 L1520.27 1130.49 L1520.27 1130.74 L1537.22 1130.74 L1537.22 1131.11 L1554.05 1131.11 L1554.05 1131.11 L1570.88 1131.11 L1570.88 1130.12 L1587.71 1130.12 L1587.71 1129.50 L1604.54 1129.50 L1604.54 1130.00 L1621.37 1130.00 L1621.37 1129.75 L1638.33 1129.75 L1638.33 1129.25 L1655.16 1129.25 L1655.16 1130.37 L1671.99 1130.37 L1671.99 1132.10 L1688.82 1132.10 L1688.82 1131.11 L1705.65 1131.11 L1705.65 1131.23 L1722.48 1131.23 L1722.48 1130.86 L1739.43 1130.86 L1739.43 1130.24 L1756.26 1130.24 L1756.26 1130.99 L1773.09 1130.99 L1773.09 1131.11 L1789.92 1131.11 L1789.92 1130.24 L1806.75 1130.24 L1806.75 1127.89 L1823.70 1127.89 L1823.70 1128.14 L1840.53 1128.14 L1840.53 1128.64 L1857.36 1128.64 L1857.36 1129.63 L1874.19 1129.63 L1874.19 1130.24 L1891.02 1130.24 L1891.02 1130.62 L1907.85 1130.62 L1907.85 1130.49 L1924.81 1130.49 L1924.81 1129.63 L1941.64 1129.63 L1941.64 1130.37 L1958.47 1130.37 L1958.47 1130.74 L1975.30 1130.74 L1975.30 1131.98 L1992.13 1131.98 L1992.13 1132.60 L2008.96 1132.60 L2008.96 1132.60 L2025.91 1132.60 L2025.91 1133.71 L2042.74 1133.71 L2042.74 1134.45 L2059.57 1134.45 L2059.57 1135.44 L2076.40 1135.44 L2076.40 1135.57 L2093.23 1135.57 L2093.23 1135.81 L2110.18 1135.81 L2110.18 1136.18 L2127.01 1136.18 L2127.01 1138.29 L2143.84 1138.29 L2143.84 1137.17 L2160.68 1137.17 L2160.68 1135.94 L2177.51 1135.94 L2177.51 1137.17 L2194.34 1137.17 L2194.34 1137.92 L2211.29 1137.92 L2211.29 1138.29 L2228.12 1138.29 L2228.12 1139.90 L2244.95 1139.90 L2244.95 1140.39 L2261.78 1140.39 L2261.78 1141.01 L2278.61 1141.01 L2278.61 1140.76 L2295.44 1140.76 L2295.44 1141.51 L2312.39 1141.51 L2312.39 1141.88 L2329.22 1141.88 L2329.22 1143.24 L2346.05 1143.24 L2346.05 1144.10 L2362.88 1144.10 L2362.88 1145.47 L2379.71 1145.47 L2379.71 1145.84 L2396.54 1145.84 L2396.54 1145.59 L2413.50 1145.59 L2413.50 1145.84 L2430.33 1145.84 L2430.33 1147.07 L2447.16 1147.07 L2447.16 1146.95 L2463.99 1146.95 L2463.99 1147.57 L2480.82 1147.57 L2480.82 1149.55 L2497.77 1149.55 L2497.77 1151.16 L2514.60 1151.16 L2514.60 1152.52 L2531.43 1152.52 L2531.43 1153.14 L2548.26 1153.14 L2548.26 1152.27 L2565.09 1152.27 L2565.09 1152.64 L2581.92 1152.64 L2581.92 1154.25 L2598.87 1154.25 L2598.87 1155.98 L2615.70 1155.98 L2615.70 1156.73 L2632.53 1156.73 L2632.53 1156.73 L2649.36 1156.73 L2649.36 1157.22 L2666.19 1157.22 L2666.19 1157.96 L2683.02 1157.96 L2683.02 1159.33 L2699.98 1159.33 L2699.98 1158.58 L2716.81 1158.58 L2716.81 1159.33 L2733.64 1159.33 L2733.64 1160.44 L2750.47 1160.44 L2750.47 1161.55 L2767.30 1161.55 L2767.30 1161.55 L2784.25 1161.55 L2784.25 1161.31 L2801.08 1161.31 L2801.08 1162.30 L2817.91 1162.30 L2817.91 1162.79 L2834.74 1162.79 L2834.74 1162.67 L2851.57 1162.67 L2851.57 1163.16 L2868.40 1163.16 L2868.40 1163.91 L2885.36 1163.91 L2885.36 1163.66 L2902.18 1163.66 L2902.18 1164.28 L2919.01 1164.28 L2919.01 1165.89 L2935.84 1165.89 L2935.84 1166.26 L2952.68 1166.26 L2952.68 1167.12 L2969.51 1167.12 L2969.51 1167.25 L2986.46 1167.25 L2986.46 1168.98 L3003.29 1168.98 L3003.29 1169.23 L3020.12 1169.23 L3020.12 1170.46 L3036.95 1170.46 L3036.95 1171.58 L3053.78 1171.58 L3053.78 1171.95 L3070.61 1171.95 L3070.61 1172.44 L3087.56 1172.44 L3087.56 1172.07 L3104.39 1172.07 L3104.39 1173.56 L3121.22 1173.56 L3121.22 1173.81 L3138.05 1173.81 L3138.05 1173.56 L3154.88 1173.56 L3154.88 1173.81 L3171.84 1173.81 L3171.84 1174.67 L3188.67 1174.67 L3188.67 1174.55 L3205.50 1174.55 L3205.50 1174.80 L3222.33 1174.80 L3222.33 1174.67 L3239.16 1174.67 L3239.16 1174.55 L3255.99 1174.55 L3255.99 1174.80 L3272.94 1174.80 L3272.94 1173.93 L3289.77 1173.93 L3289.77 1174.18 L3306.60 1174.18 L3306.60 1175.29 L3323.43 1175.29 L3323.43 1176.28 L3340.26 1176.28 L3340.26 1177.02 L3357.09 1177.02 L3357.09 1176.16 L3374.04 1176.16 L3374.04 1176.78 L3390.87 1176.78 L3390.87 1177.64 L3407.70 1177.64 L3407.70 1178.26 L3424.53 1178.26 L3424.53 1178.63 L3441.36 1178.63 L3441.36 1178.88 L3458.19 1178.88 L3458.19 1178.51 L3475.15 1178.51 L3475.15 1179.37 L3491.98 1179.37 L3491.98 1179.50 L3508.81 1179.50 L3508.81 1179.50 L3525.64 1179.50 L3525.64 1180.12 L3542.47 1180.12 L3542.47 1180.61 L3559.42 1180.61 L3559.42 1181.60 L3576.25 1181.60 L3576.25 1182.59 L3593.08 1182.59 L3593.08 1182.10 L3609.91 1182.10 L3609.91 1182.34 L3626.74 1182.34 L3626.74 1183.09 L3643.57 1183.09 L3643.57 1182.96 L3660.53 1182.96 L3660.53 1183.33 L3677.36 1183.33 L3677.36 1182.59 L3694.18 1182.59 L3694.18 1183.09 L3711.01 1183.09 L3711.01 1183.58 L3727.84 1183.58 L3727.84 1183.58 L3744.68 1183.58 L3744.68 1183.33 L3761.63 1183.33 L3761.63 1183.09 L3778.46 1183.09 L3778.46 1183.09 L3795.29 1183.09 L3795.29 1182.96 L3795.29 1063.79 L3795.29 1063.91 L3778.46 1063.91 L3778.46 1063.91 L3761.63 1063.91 L3761.63 1064.16 L3744.68 1064.16 L3744.68 1064.28 L3727.84 1064.28 L3727.84 1064.28 L3711.01 1064.28 L3711.01 1063.79 L3694.18 1063.79 L3694.18 1063.29 L3677.36 1063.29 L3677.36 1064.16 L3660.53 1064.16 L3660.53 1063.79 L3643.57 1063.79 L3643.57 1063.91 L3626.74 1063.91 L3626.74 1063.17 L3609.91 1063.17 L3609.91 1062.80 L3593.08 1062.80 L3593.08 1063.29 L3576.25 1063.29 L3576.25 1062.30 L3559.42 1062.30 L3559.42 1061.31 L3542.47 1061.31 L3542.47 1060.94 L3525.64 1060.94 L3525.64 1060.20 L3508.81 1060.20 L3508.81 1060.45 L3491.98 1060.45 L3491.98 1060.45 L3475.15 1060.45 L3475.15 1059.58 L3458.19 1059.58 L3458.19 1059.83 L3441.36 1059.83 L3441.36 1059.70 L3424.53 1059.70 L3424.53 1059.33 L3407.70 1059.33 L3407.70 1058.71 L3390.87 1058.71 L3390.87 1057.97 L3374.04 1057.97 L3374.04 1057.35 L3357.09 1057.35 L3357.09 1058.22 L3340.26 1058.22 L3340.26 1057.48 L3323.43 1057.48 L3323.43 1056.49 L3306.60 1056.49 L3306.60 1055.62 L3289.77 1055.62 L3289.77 1055.62 L3272.94 1055.62 L3272.94 1056.61 L3255.99 1056.61 L3255.99 1056.24 L3239.16 1056.24 L3239.16 1056.36 L3222.33 1056.36 L3222.33 1056.49 L3205.50 1056.49 L3205.50 1056.24 L3188.67 1056.24 L3188.67 1056.36 L3171.84 1056.36 L3171.84 1055.62 L3154.88 1055.62 L3154.88 1055.37 L3138.05 1055.37 L3138.05 1055.62 L3121.22 1055.62 L3121.22 1055.25 L3104.39 1055.25 L3104.39 1053.89 L3087.56 1053.89 L3087.56 1054.38 L3070.61 1054.38 L3070.61 1053.89 L3053.78 1053.89 L3053.78 1053.52 L3036.95 1053.52 L3036.95 1052.40 L3020.12 1052.40 L3020.12 1051.29 L3003.29 1051.29 L3003.29 1051.04 L2986.46 1051.04 L2986.46 1049.43 L2969.51 1049.43 L2969.51 1049.19 L2952.68 1049.19 L2952.68 1048.20 L2935.84 1048.20 L2935.84 1047.95 L2919.01 1047.95 L2919.01 1046.46 L2902.18 1046.46 L2902.18 1045.84 L2885.36 1045.84 L2885.36 1046.09 L2868.40 1046.09 L2868.40 1045.35 L2851.57 1045.35 L2851.57 1044.85 L2834.74 1044.85 L2834.74 1045.10 L2817.91 1045.10 L2817.91 1044.85 L2801.08 1044.85 L2801.08 1043.99 L2784.25 1043.99 L2784.25 1043.99 L2767.30 1043.99 L2767.30 1044.11 L2750.47 1044.11 L2750.47 1043.00 L2733.64 1043.00 L2733.64 1041.88 L2716.81 1041.88 L2716.81 1041.14 L2699.98 1041.14 L2699.98 1041.88 L2683.02 1041.88 L2683.02 1040.52 L2666.19 1040.52 L2666.19 1039.78 L2649.36 1039.78 L2649.36 1039.41 L2632.53 1039.41 L2632.53 1039.53 L2615.70 1039.53 L2615.70 1038.67 L2598.87 1038.67 L2598.87 1037.06 L2581.92 1037.06 L2581.92 1035.45 L2565.09 1035.45 L2565.09 1034.95 L2548.26 1034.95 L2548.26 1035.94 L2531.43 1035.94 L2531.43 1035.45 L2514.60 1035.45 L2514.60 1033.96 L2497.77 1033.96 L2497.77 1032.35 L2480.82 1032.35 L2480.82 1030.50 L2463.99 1030.50 L2463.99 1030.00 L2447.16 1030.00 L2447.16 1030.13 L2430.33 1030.13 L2430.33 1028.89 L2413.50 1028.89 L2413.50 1028.89 L2396.54 1028.89 L2396.54 1029.14 L2379.71 1029.14 L2379.71 1028.89 L2362.88 1028.89 L2362.88 1027.53 L2346.05 1027.53 L2346.05 1026.79 L2329.22 1026.79 L2329.22 1025.55 L2312.39 1025.55 L2312.39 1025.30 L2295.44 1025.30 L2295.44 1024.68 L2278.61 1024.68 L2278.61 1024.93 L2261.78 1024.93 L2261.78 1024.43 L2244.95 1024.43 L2244.95 1023.82 L2228.12 1023.82 L2228.12 1022.08 L2211.29 1022.08 L2211.29 1021.96 L2194.34 1021.96 L2194.34 1021.34 L2177.51 1021.34 L2177.51 1020.10 L2160.68 1020.10 L2160.68 1021.46 L2143.84 1021.46 L2143.84 1022.58 L2127.01 1022.58 L2127.01 1020.47 L2110.18 1020.47 L2110.18 1020.23 L2093.23 1020.23 L2093.23 1019.98 L2076.40 1019.98 L2076.40 1019.73 L2059.57 1019.73 L2059.57 1018.87 L2042.74 1018.87 L2042.74 1018.25 L2025.91 1018.25 L2025.91 1017.26 L2008.96 1017.26 L2008.96 1017.26 L1992.13 1017.26 L1992.13 1016.64 L1975.30 1016.64 L1975.30 1015.52 L1958.47 1015.52 L1958.47 1015.28 L1941.64 1015.28 L1941.64 1014.41 L1924.81 1014.41 L1924.81 1015.40 L1907.85 1015.40 L1907.85 1015.52 L1891.02 1015.52 L1891.02 1015.15 L1874.19 1015.15 L1874.19 1014.53 L1857.36 1014.53 L1857.36 1013.30 L1840.53 1013.30 L1840.53 1013.05 L1823.70 1013.05 L1823.70 1012.55 L1806.75 1012.55 L1806.75 1014.91 L1789.92 1014.91 L1789.92 1015.65 L1773.09 1015.65 L1773.09 1015.65 L1756.26 1015.65 L1756.26 1015.03 L1739.43 1015.03 L1739.43 1015.77 L1722.48 1015.77 L1722.48 1016.14 L1705.65 1016.14 L1705.65 1016.27 L1688.82 1016.27 L1688.82 1017.13 L1671.99 1017.13 L1671.99 1015.40 L1655.16 1015.40 L1655.16 1014.53 L1638.33 1014.53 L1638.33 1015.03 L1621.37 1015.03 L1621.37 1015.52 L1604.54 1015.52 L1604.54 1015.03 L1587.71 1015.03 L1587.71 1015.65 L1570.88 1015.65 L1570.88 1016.64 L1554.05 1016.64 L1554.05 1016.39 L1537.22 1016.39 L1537.22 1016.14 L1520.27 1016.14 L1520.27 1016.14 L1503.44 1016.14 L1503.44 1016.89 L1486.61 1016.89 L1486.61 1017.88 L1469.78 1017.88 L1469.78 1018.49 L1452.95 1018.49 L1452.95 1018.00 L1436.12 1018.00 L1436.12 1019.48 L1419.16 1019.48 L1419.16 1019.86 L1402.34 1019.86 L1402.34 1020.35 L1385.51 1020.35 L1385.51 1020.35 L1368.67 1020.35 L1368.67 1020.10 L1351.85 1020.10 L1351.85 1020.85 L1334.89 1020.85 L1334.89 1023.57 L1318.06 1023.57 L1318.06 1024.19 L1301.23 1024.19 L1301.23 1024.81 L1284.40 1024.81 L1284.40 1024.56 L1267.57 1024.56 L1267.57 1024.68 L1250.74 1024.68 L1250.74 1027.16 L1233.79 1027.16 L1233.79 1027.40 L1216.96 1027.40 L1216.96 1028.64 L1200.13 1028.64 L1200.13 1029.76 L1183.30 1029.76 L1183.30 1029.76 L1166.47 1029.76 L1166.47 1031.98 L1149.64 1031.98 L1149.64 1033.22 L1132.68 1033.22 L1132.68 1034.33 L1115.85 1034.33 L1115.85 1037.55 L1099.02 1037.55 L1099.02 1039.90 L1082.19 1039.90 L1082.19 1040.52 L1065.36 1040.52 L1065.36 1044.11 L1048.53 1044.11 L1048.53 1048.07 L1031.58 1048.07 L1031.58 1050.55 L1014.75 1050.55 L1014.75 1053.76 L997.92 1053.76 L997.92 1057.23 L981.09 1057.23 L981.09 1060.94 L964.26 1060.94 L964.26 1062.55 L947.31 1062.55 L947.31 1067.38 L930.48 1067.38 L930.48 1070.22 L913.65 1070.22 L913.65 1074.55 L896.82 1074.55 L896.82 1080.37 L879.99 1080.37 L879.99 1084.70 L863.16 1084.70 L863.16 1090.40 L846.20 1090.40 L846.20 1098.93 L829.37 1098.93 L829.37 1107.97 L812.54 1107.97 L812.54 1116.88 L795.71 1116.88 L795.71 1128.64 L778.88 1128.64 L778.88 1226.90 Z" stroke-linejoin="round"/>
	</defs>
	<defs>
		<clipPath id="clipPath_oHRcptpS">
			<use xlink:href="#path_jQDCjzzF"/>
		</clipPath>
	</defs>
	<use xlink:href="#path_jQDCjzzF" style="stroke:none;fill:#999999;fill-opacity:0.35"/>
	<use xlink:href="#path_jQDCjzzF" style="fill:none;stroke:#808080;stroke-opacity:0.35;stroke-width:17.28" clip-path="url(#clipPath_oHRcptpS)"/>
	<path d=" M778.76 1177.77 L795.59 1177.77 L795.59 1167.00 L812.54 1167.00 L812.54 1158.71 L829.37 1158.71 L829.37 1150.17 L846.20 1150.17 L846.20 1142.25 L863.03 1142.25 L863.03 1136.93 L879.86 1136.93 L879.86 1133.21 L896.69 1133.21 L896.69 1127.65 L913.65 1127.65 L913.65 1123.56 L930.48 1123.56 L930.48 1121.09 L947.31 1121.09 L947.31 1116.51 L964.14 1116.51 L964.14 1115.15 L980.97 1115.15 L980.97 1111.80 L997.80 1111.80 L997.80 1108.59 L1014.75 1108.59 L1014.75 1105.62 L1031.58 1105.62 L1031.58 1103.14 L1048.41 1103.14 L1048.41 1099.31 L1065.24 1099.31 L1065.24 1095.72 L1082.07 1095.72 L1082.07 1095.22 L1099.02 1095.22 L1099.02 1092.99 L1115.85 1092.99 L1115.85 1090.02 L1132.68 1090.02 L1132.68 1089.16 L1149.51 1089.16 L1149.51 1087.92 L1166.34 1087.92 L1166.34 1085.69 L1183.17 1085.69 L1183.17 1085.69 L1200.13 1085.69 L1200.13 1084.83 L1216.96 1084.83 L1216.96 1083.59 L1233.79 1083.59 L1233.79 1083.34 L1250.62 1083.34 L1250.62 1080.99 L1267.45 1080.99 L1267.45 1080.74 L1284.28 1080.74 L1284.28 1080.99 L1301.23 1080.99 L1301.23 1080.50 L1318.06 1080.50 L1318.06 1080.00 L1334.89 1080.00 L1334.89 1077.28 L1351.72 1077.28 L1351.72 1076.53 L1368.55 1076.53 L1368.55 1076.91 L1385.51 1076.91 L1385.51 1076.91 L1402.34 1076.91 L1402.34 1076.41 L1419.16 1076.41 L1419.16 1076.16 L1435.99 1076.16 L1435.99 1074.80 L1452.83 1074.80 L1452.83 1075.30 L1469.65 1075.30 L1469.65 1074.80 L1486.61 1074.80 L1486.61 1073.94 L1503.44 1073.94 L1503.44 1073.32 L1520.27 1073.32 L1520.27 1073.44 L1537.10 1073.44 L1537.10 1073.81 L1553.93 1073.81 L1553.93 1073.81 L1570.76 1073.81 L1570.76 1072.82 L1587.71 1072.82 L1587.71 1072.33 L1604.54 1072.33 L1604.54 1072.70 L1621.37 1072.70 L1621.37 1072.33 L1638.20 1072.33 L1638.20 1071.83 L1655.03 1071.83 L1655.03 1072.82 L1671.86 1072.82 L1671.86 1074.55 L1688.82 1074.55 L1688.82 1073.69 L1705.65 1073.69 L1705.65 1073.69 L1722.48 1073.69 L1722.48 1073.32 L1739.31 1073.32 L1739.31 1072.57 L1756.14 1072.57 L1756.14 1073.32 L1773.09 1073.32 L1773.09 1073.32 L1789.92 1073.32 L1789.92 1072.57 L1806.75 1072.57 L1806.75 1070.22 L1823.58 1070.22 L1823.58 1070.59 L1840.41 1070.59 L1840.41 1070.84 L1857.24 1070.84 L1857.24 1072.08 L1874.19 1072.08 L1874.19 1072.70 L1891.02 1072.70 L1891.02 1073.07 L1907.85 1073.07 L1907.85 1072.95 L1924.68 1072.95 L1924.68 1072.08 L1941.51 1072.08 L1941.51 1072.82 L1958.34 1072.82 L1958.34 1073.07 L1975.30 1073.07 L1975.30 1074.31 L1992.13 1074.31 L1992.13 1074.93 L2008.96 1074.93 L2008.96 1074.93 L2025.79 1074.93 L2025.79 1075.92 L2042.62 1075.92 L2042.62 1076.66 L2059.45 1076.66 L2059.45 1077.52 L2076.40 1077.52 L2076.40 1077.77 L2093.23 1077.77 L2093.23 1078.02 L2110.06 1078.02 L2110.06 1078.27 L2126.89 1078.27 L2126.89 1080.37 L2143.72 1080.37 L2143.72 1079.26 L2160.68 1079.26 L2160.68 1078.02 L2177.51 1078.02 L2177.51 1079.26 L2194.34 1079.26 L2194.34 1080.00 L2211.16 1080.00 L2211.16 1080.12 L2227.99 1080.12 L2227.99 1081.86 L2244.82 1081.86 L2244.82 1082.35 L2261.78 1082.35 L2261.78 1082.97 L2278.61 1082.97 L2278.61 1082.72 L2295.44 1082.72 L2295.44 1083.34 L2312.27 1083.34 L2312.27 1083.71 L2329.10 1083.71 L2329.10 1084.95 L2345.93 1084.95 L2345.93 1085.82 L2362.88 1085.82 L2362.88 1087.05 L2379.71 1087.05 L2379.71 1087.43 L2396.54 1087.43 L2396.54 1087.30 L2413.37 1087.30 L2413.37 1087.43 L2430.20 1087.43 L2430.20 1088.54 L2447.16 1088.54 L2447.16 1088.42 L2463.99 1088.42 L2463.99 1089.03 L2480.82 1089.03 L2480.82 1090.89 L2497.65 1090.89 L2497.65 1092.50 L2514.48 1092.50 L2514.48 1093.98 L2531.31 1093.98 L2531.31 1094.60 L2548.26 1094.60 L2548.26 1093.61 L2565.09 1093.61 L2565.09 1094.11 L2581.92 1094.11 L2581.92 1095.59 L2598.75 1095.59 L2598.75 1097.33 L2615.58 1097.33 L2615.58 1098.07 L2632.41 1098.07 L2632.41 1098.07 L2649.36 1098.07 L2649.36 1098.56 L2666.19 1098.56 L2666.19 1099.31 L2683.02 1099.31 L2683.02 1100.54 L2699.85 1100.54 L2699.85 1099.92 L2716.68 1099.92 L2716.68 1100.54 L2733.51 1100.54 L2733.51 1101.66 L2750.47 1101.66 L2750.47 1102.77 L2767.30 1102.77 L2767.30 1102.77 L2784.13 1102.77 L2784.13 1102.65 L2800.96 1102.65 L2800.96 1103.51 L2817.79 1103.51 L2817.79 1104.01 L2834.74 1104.01 L2834.74 1103.76 L2851.57 1103.76 L2851.57 1104.13 L2868.40 1104.13 L2868.40 1104.87 L2885.23 1104.87 L2885.23 1104.75 L2902.06 1104.75 L2902.06 1105.37 L2918.89 1105.37 L2918.89 1106.85 L2935.84 1106.85 L2935.84 1107.23 L2952.68 1107.23 L2952.68 1108.09 L2969.51 1108.09 L2969.51 1108.34 L2986.34 1108.34 L2986.34 1109.95 L3003.16 1109.95 L3003.16 1110.20 L3019.99 1110.20 L3019.99 1111.43 L3036.95 1111.43 L3036.95 1112.55 L3053.78 1112.55 L3053.78 1112.92 L3070.61 1112.92 L3070.61 1113.41 L3087.44 1113.41 L3087.44 1113.04 L3104.27 1113.04 L3104.27 1114.40 L3121.10 1114.40 L3121.10 1114.65 L3138.05 1114.65 L3138.05 1114.40 L3154.88 1114.40 L3154.88 1114.65 L3171.71 1114.65 L3171.71 1115.52 L3188.54 1115.52 L3188.54 1115.39 L3205.37 1115.39 L3205.37 1115.64 L3222.33 1115.64 L3222.33 1115.39 L3239.16 1115.39 L3239.16 1115.39 L3255.99 1115.39 L3255.99 1115.64 L3272.82 1115.64 L3272.82 1114.77 L3289.65 1114.77 L3289.65 1114.90 L3306.48 1114.90 L3306.48 1115.89 L3323.43 1115.89 L3323.43 1116.88 L3340.26 1116.88 L3340.26 1117.62 L3357.09 1117.62 L3357.09 1116.75 L3373.92 1116.75 L3373.92 1117.37 L3390.75 1117.37 L3390.75 1118.12 L3407.58 1118.12 L3407.58 1118.73 L3424.53 1118.73 L3424.53 1119.11 L3441.36 1119.11 L3441.36 1119.35 L3458.19 1119.35 L3458.19 1118.98 L3475.02 1118.98 L3475.02 1119.85 L3491.85 1119.85 L3491.85 1119.97 L3508.81 1119.97 L3508.81 1119.85 L3525.64 1119.85 L3525.64 1120.47 L3542.47 1120.47 L3542.47 1120.96 L3559.30 1120.96 L3559.30 1121.95 L3576.13 1121.95 L3576.13 1122.94 L3592.96 1122.94 L3592.96 1122.45 L3609.91 1122.45 L3609.91 1122.70 L3626.74 1122.70 L3626.74 1123.44 L3643.57 1123.44 L3643.57 1123.44 L3660.40 1123.44 L3660.40 1123.69 L3677.23 1123.69 L3677.23 1122.94 L3694.06 1122.94 L3694.06 1123.44 L3711.01 1123.44 L3711.01 1123.93 L3727.84 1123.93 L3727.84 1123.93 L3744.68 1123.93 L3744.68 1123.69 L3761.51 1123.69 L3761.51 1123.44 L3778.34 1123.44 L3778.34 1123.44 L3795.16 1123.44 L3795.16 1123.31" stroke-linejoin="round" style="fill:none;stroke:#808080;stroke-width:8.64"/>
	<line x1="559.10" y1="2509.23" x2="559.10" y2="419.90" style="stroke:#000000;stroke-width:5.76"/>
	<line x1="559.10" y1="2445.87" x2="519.13" y2="2445.87" style="stroke:#000000;stroke-width:5.76"/>
	<text x="499.08" y="2480.90" style="font-family:'Helvetica';font-size:99.99px;fill:#000000" text-anchor="end">-0.25</text>
	<line x1="559.10" y1="2249.60" x2="519.13" y2="2249.60" style="stroke:#000000;stroke-width:5.76"/>
	<text x="499.08" y="2284.63" style="font-family:'Helvetica';font-size:99.99px;fill:#000000" text-anchor="end">-0.20</text>
	<line x1="559.10" y1="2053.32" x2="519.13" y2="2053.32" style="stroke:#000000;stroke-width:5.76"/>
	<text x="499.08" y="2088.35" style="font-family:'Helvetica';font-size:99.99px;fill:#000000" text-anchor="end">-0.15</text>
	<line x1="559.10" y1="1857.05" x2="519.13" y2="1857.05" style="stroke:#000000;stroke-width:5.76"/>
	<text x="499.08" y="1892.08" style="font-family:'Helvetica';font-size:99.99px;fill:#000000" text-anchor="end">-0.10</text>
	<line x1="559.10" y1="1660.78" x2="519.13" y2="1660.78" style="stroke:#000000;stroke-width:5.76"/>
	<text x="499.08" y="1695.81" style="font-family:'Helvetica';font-size:99.99px;fill:#000000" text-anchor="end">-0.05</text>
	<line x1="559.10" y1="1464.63" x2="519.13" y2="1464.63" style="stroke:#000000;stroke-width:5.76"/>
	<text x="499.08" y="1499.66" style="font-family:'Helvetica';font-size:99.99px;fill:#000000" text-anchor="end">0.00</text>
	<line x1="559.10" y1="1268.35" x2="519.13" y2="1268.35" style="stroke:#000000;stroke-width:5.76"/>
	<text x="499.08" y="1303.38" style="font-family:'Helvetica';font-size:99.99px;fill:#000000" text-anchor="end">0.05</text>
	<line x1="559.10" y1="1072.08" x2="519.13" y2="1072.08" style="stroke:#000000;stroke-width:5.76"/>
	<text x="499.08" y="1107.11" style="font-family:'Helvetica';font-size:99.99px;fill:#000000" text-anchor="end">0.10</text>
	<line x1="559.10" y1="875.81" x2="519.13" y2="875.81" style="stroke:#000000;stroke-width:5.76"/>
	<text x="499.08" y="910.83" style="font-family:'Helvetica';font-size:99.99px;fill:#000000" text-anchor="end">0.15</text>
	<line x1="559.10" y1="679.53" x2="519.13" y2="679.53" style="stroke:#000000;stroke-width:5.76"/>
	<text x="499.08" y="714.56" style="font-family:'Helvetica';font-size:99.99px;fill:#000000" text-anchor="end">0.20</text>
	<line x1="559.10" y1="483.26" x2="519.13" y2="483.26" style="stroke:#000000;stroke-width:5.76"/>
	<text x="499.08" y="518.29" style="font-family:'Helvetica';font-size:99.99px;fill:#000000" text-anchor="end">0.25</text>
	<text x="190.71" y="1464.63" style="font-family:'Helvetica';font-size:99.99px;fill:#000000" transform="rotate(-90 190.71,1464.63)" text-anchor="middle">Difference in Probabilities</text>
	<line x1="559.10" y1="2509.23" x2="3859.02" y2="2509.23" style="stroke:#000000;stroke-width:5.76"/>
	<line x1="622.46" y1="2509.23" x2="622.46" y2="2549.21" style="stroke:#000000;stroke-width:5.76"/>
	<text x="622.46" y="2625.15" style="font-family:'Helvetica';font-size:79.94px;fill:#000000" text-anchor="middle">0</text>
	<line x1="812.91" y1="2509.23" x2="812.91" y2="2549.21" style="stroke:#000000;stroke-width:5.76"/>
	<text x="812.91" y="2625.15" style="font-family:'Helvetica';font-size:79.94px;fill:#000000" text-anchor="middle">.3</text>
	<line x1="1003.24" y1="2509.23" x2="1003.24" y2="2549.21" style="stroke:#000000;stroke-width:5.76"/>
	<text x="1003.24" y="2625.15" style="font-family:'Helvetica';font-size:79.94px;fill:#000000" text-anchor="middle">.6</text>
	<line x1="1193.69" y1="2509.23" x2="1193.69" y2="2549.21" style="stroke:#000000;stroke-width:5.76"/>
	<text x="1193.69" y="2625.15" style="font-family:'Helvetica';font-size:79.94px;fill:#000000" text-anchor="middle">.9</text>
	<line x1="1384.02" y1="2509.23" x2="1384.02" y2="2549.21" style="stroke:#000000;stroke-width:5.76"/>
	<text x="1384.02" y="2625.15" style="font-family:'Helvetica';font-size:79.94px;fill:#000000" text-anchor="middle">1.2</text>
	<line x1="1574.47" y1="2509.23" x2="1574.47" y2="2549.21" style="stroke:#000000;stroke-width:5.76"/>
	<text x="1574.47" y="2625.15" style="font-family:'Helvetica';font-size:79.94px;fill:#000000" text-anchor="middle">1.5</text>
	<line x1="1764.80" y1="2509.23" x2="1764.80" y2="2549.21" style="stroke:#000000;stroke-width:5.76"/>
	<text x="1764.80" y="2625.15" style="font-family:'Helvetica';font-size:79.94px;fill:#000000" text-anchor="middle">1.8</text>
	<line x1="1955.25" y1="2509.23" x2="1955.25" y2="2549.21" style="stroke:#000000;stroke-width:5.76"/>
	<text x="1955.25" y="2625.15" style="font-family:'Helvetica';font-size:79.94px;fill:#000000" text-anchor="middle">2.1</text>
	<line x1="2145.58" y1="2509.23" x2="2145.58" y2="2549.21" style="stroke:#000000;stroke-width:5.76"/>
	<text x="2145.58" y="2625.15" style="font-family:'Helvetica';font-size:79.94px;fill:#000000" text-anchor="middle">2.4</text>
	<line x1="2336.03" y1="2509.23" x2="2336.03" y2="2549.21" style="stroke:#000000;stroke-width:5.76"/>
	<text x="2336.03" y="2625.15" style="font-family:'Helvetica';font-size:79.94px;fill:#000000" text-anchor="middle">2.7</text>
	<line x1="2526.48" y1="2509.23" x2="2526.48" y2="2549.21" style="stroke:#000000;stroke-width:5.76"/>
	<text x="2526.48" y="2625.15" style="font-family:'Helvetica';font-size:79.94px;fill:#000000" text-anchor="middle">3</text>
	<line x1="2716.81" y1="2509.23" x2="2716.81" y2="2549.21" style="stroke:#000000;stroke-width:5.76"/>
	<text x="2716.81" y="2625.15" style="font-family:'Helvetica';font-size:79.94px;fill:#000000" text-anchor="middle">3.3</text>
	<line x1="2907.26" y1="2509.23" x2="2907.26" y2="2549.21" style="stroke:#000000;stroke-width:5.76"/>
	<text x="2907.26" y="2625.15" style="font-family:'Helvetica';font-size:79.94px;fill:#000000" text-anchor="middle">3.6</text>
	<line x1="3097.59" y1="2509.23" x2="3097.59" y2="2549.21" style="stroke:#000000;stroke-width:5.76"/>
	<text x="3097.59" y="2625.15" style="font-family:'Helvetica';font-size:79.94px;fill:#000000" text-anchor="middle">3.9</text>
	<line x1="3288.04" y1="2509.23" x2="3288.04" y2="2549.21" style="stroke:#000000;stroke-width:5.76"/>
	<text x="3288.04" y="2625.15" style="font-family:'Helvetica';font-size:79.94px;fill:#000000" text-anchor="middle">4.2</text>
	<line x1="3478.36" y1="2509.23" x2="3478.36" y2="2549.21" style="stroke:#000000;stroke-width:5.76"/>
	<text x="3478.36" y="2625.15" style="font-family:'Helvetica';font-size:79.94px;fill:#000000" text-anchor="middle">4.5</text>
	<line x1="3668.82" y1="2509.23" x2="3668.82" y2="2549.21" style="stroke:#000000;stroke-width:5.76"/>
	<text x="3668.82" y="2625.15" style="font-family:'Helvetica';font-size:79.94px;fill:#000000" text-anchor="middle">4.8</text>
	<line x1="3859.14" y1="2509.23" x2="3859.14" y2="2549.21" style="stroke:#000000;stroke-width:5.76"/>
	<text x="3859.14" y="2625.15" style="font-family:'Helvetica';font-size:79.94px;fill:#000000" text-anchor="middle">5.1</text>
	<text x="2209.06" y="2729.16" style="font-family:'Helvetica';font-size:99.99px;fill:#000000" text-anchor="middle">Time (years)</text>
	<rect x="2519.18" y="1868.31" width="1305.32" height="606.39" style="fill:#FFFFFF"/>
	<rect x="2522.06" y="1871.19" width="1299.56" height="600.63" style="fill:none;stroke:#000000;stroke-width:5.76"/>
	<rect x="2562.37" y="1911.50" width="374.34" height="99.99" style="fill:#999999;fill-opacity:0.75"/>
	<rect x="2566.69" y="1915.82" width="365.70" height="91.35" style="fill:none;stroke:#808080;stroke-opacity:0.75;stroke-width:8.64"/>
	<line x1="2562.37" y1="2101.46" x2="2936.71" y2="2101.46" style="stroke:#000000;stroke-width:8.64"/>
	<rect x="2562.37" y="2191.43" width="374.34" height="99.99" style="fill:#999999;fill-opacity:0.35"/>
	<rect x="2566.69" y="2195.75" width="365.70" height="91.35" style="fill:none;stroke:#808080;stroke-opacity:0.35;stroke-width:8.64"/>
	<line x1="2562.37" y1="2381.52" x2="2936.71" y2="2381.52" style="stroke:#808080;stroke-width:8.64"/>
	<text x="2996.73" y="1996.53" style="font-family:'Helvetica';font-size:99.99px;fill:#000000">CI95%</text>
	<text x="2996.73" y="2136.49" style="font-family:'Helvetica';font-size:99.99px;fill:#000000">Difference (TC)</text>
	<text x="2996.73" y="2276.46" style="font-family:'Helvetica';font-size:99.99px;fill:#000000">CI95%</text>
	<text x="2996.73" y="2416.55" style="font-family:'Helvetica';font-size:99.99px;fill:#000000">Difference (TNC)</text>
	<text x="2209.06" y="369.63" style="font-family:'Helvetica';font-size:110.01px;fill:#000000" text-anchor="middle">from First treatment to Readmission</text>
	<text x="2209.06" y="215.98" style="font-family:'Helvetica';font-size:139.96px;fill:#1E2D53" text-anchor="middle">Difference in Probabilities at 3 years</text>
</svg>
