<?xml version="1.0" encoding="UTF-8" standalone="no"?>
<!-- This is a Stata 16.1 generated SVG file (http://www.stata.com) -->

<svg version="1.1" width="5.50in" height="4.00in" viewBox="0 0 3960 2880" xmlns="http://www.w3.org/2000/svg" xmlns:xlink="http://www.w3.org/1999/xlink">
	<desc>Stata Graph - fdiff_los_3_3_3y_tcnc</desc>
	<rect x="0" y="0" width="3960" height="2880" style="fill:#EAF2F3;stroke:none"/>
	<rect x="0.00" y="0.00" width="3959.88" height="2880.00" style="fill:#FFFFFF"/>
	<rect x="2.88" y="2.88" width="3954.12" height="2874.24" style="fill:none;stroke:#FFFFFF;stroke-width:5.76"/>
	<rect x="372.49" y="419.90" width="3486.53" height="2089.34" style="fill:#FFFFFF"/>
	<rect x="375.37" y="422.78" width="3480.77" height="2083.58" style="fill:none;stroke:#FFFFFF;stroke-width:5.76"/>
	<line x1="372.49" y1="2380.65" x2="3859.02" y2="2380.65" style="stroke:#EAF2F3;stroke-width:8.64"/>
	<line x1="372.49" y1="1748.27" x2="3859.02" y2="1748.27" style="stroke:#EAF2F3;stroke-width:8.64"/>
	<line x1="372.49" y1="1115.76" x2="3859.02" y2="1115.76" style="stroke:#EAF2F3;stroke-width:8.64"/>
	<line x1="372.49" y1="483.26" x2="3859.02" y2="483.26" style="stroke:#EAF2F3;stroke-width:8.64"/>
	<defs>
		<path id="path_XdKIXpUL" d="M601.42 1750.87 L601.42 1750.87 L619.25 1750.87 L619.25 1751.61 L637.07 1751.61 L637.07 1752.48 L654.88 1752.48 L654.88 1753.59 L672.83 1753.59 L672.83 1754.71 L690.65 1754.71 L690.65 1755.94 L708.47 1755.94 L708.47 1757.30 L726.29 1757.30 L726.29 1758.79 L744.11 1758.79 L744.11 1760.40 L761.93 1760.40 L761.93 1762.01 L779.87 1762.01 L779.87 1763.86 L797.69 1763.86 L797.69 1765.72 L815.51 1765.72 L815.51 1767.70 L833.33 1767.70 L833.33 1769.68 L851.15 1769.68 L851.15 1771.78 L869.10 1771.78 L869.10 1773.89 L886.92 1773.89 L886.92 1776.12 L904.74 1776.12 L904.74 1778.47 L922.56 1778.47 L922.56 1780.82 L940.38 1780.82 L940.38 1783.29 L958.32 1783.29 L958.32 1785.89 L976.14 1785.89 L976.14 1788.37 L993.96 1788.37 L993.96 1790.97 L1011.78 1790.97 L1011.78 1793.56 L1029.60 1793.56 L1029.60 1796.29 L1047.42 1796.29 L1047.42 1799.01 L1065.36 1799.01 L1065.36 1801.86 L1083.18 1801.86 L1083.18 1804.58 L1101.00 1804.58 L1101.00 1807.43 L1118.82 1807.43 L1118.82 1810.27 L1136.64 1810.27 L1136.64 1813.12 L1154.59 1813.12 L1154.59 1816.09 L1172.41 1816.09 L1172.41 1819.06 L1190.23 1819.06 L1190.23 1822.03 L1208.05 1822.03 L1208.05 1825.00 L1225.87 1825.00 L1225.87 1827.97 L1243.69 1827.97 L1243.69 1831.06 L1261.63 1831.06 L1261.63 1834.16 L1279.45 1834.16 L1279.45 1837.25 L1297.27 1837.25 L1297.27 1840.34 L1315.09 1840.34 L1315.09 1843.56 L1332.91 1843.56 L1332.91 1846.78 L1350.86 1846.78 L1350.86 1850.00 L1368.67 1850.00 L1368.67 1853.34 L1386.49 1853.34 L1386.49 1856.56 L1404.32 1856.56 L1404.32 1859.90 L1422.13 1859.90 L1422.13 1863.24 L1439.95 1863.24 L1439.95 1866.58 L1457.90 1866.58 L1457.90 1869.92 L1475.72 1869.92 L1475.72 1873.39 L1493.54 1873.39 L1493.54 1876.85 L1511.36 1876.85 L1511.36 1880.32 L1529.18 1880.32 L1529.18 1883.91 L1547.12 1883.91 L1547.12 1887.49 L1564.94 1887.49 L1564.94 1891.08 L1582.76 1891.08 L1582.76 1894.67 L1600.58 1894.67 L1600.58 1898.51 L1618.40 1898.51 L1618.40 1902.22 L1636.35 1902.22 L1636.35 1905.93 L1654.17 1905.93 L1654.17 1909.77 L1671.99 1909.77 L1671.99 1913.61 L1689.81 1913.61 L1689.81 1917.44 L1707.63 1917.44 L1707.63 1921.28 L1725.45 1921.28 L1725.45 1924.99 L1743.39 1924.99 L1743.39 1928.83 L1761.21 1928.83 L1761.21 1932.66 L1779.03 1932.66 L1779.03 1936.50 L1796.85 1936.50 L1796.85 1940.34 L1814.67 1940.34 L1814.67 1944.17 L1832.61 1944.17 L1832.61 1948.01 L1850.43 1948.01 L1850.43 1951.85 L1868.25 1951.85 L1868.25 1955.68 L1886.07 1955.68 L1886.07 1959.52 L1903.89 1959.52 L1903.89 1963.36 L1921.71 1963.36 L1921.71 1967.19 L1939.66 1967.19 L1939.66 1970.90 L1957.48 1970.90 L1957.48 1974.74 L1975.30 1974.74 L1975.30 1978.45 L1993.12 1978.45 L1993.12 1982.17 L2010.94 1982.17 L2010.94 1986.00 L2028.88 1986.00 L2028.88 1989.71 L2046.70 1989.71 L2046.70 1993.55 L2064.52 1993.55 L2064.52 1997.26 L2082.34 1997.26 L2082.34 2001.22 L2100.16 2001.22 L2100.16 2005.06 L2117.98 2005.06 L2117.98 2009.02 L2135.93 2009.02 L2135.93 2012.86 L2153.74 2012.86 L2153.74 2016.82 L2171.57 2016.82 L2171.57 2020.78 L2189.39 2020.78 L2189.39 2024.74 L2207.20 2024.74 L2207.20 2028.70 L2225.15 2028.70 L2225.15 2032.66 L2242.97 2032.66 L2242.97 2036.49 L2260.79 2036.49 L2260.79 2040.45 L2278.61 2040.45 L2278.61 2044.41 L2296.43 2044.41 L2296.43 2048.37 L2314.25 2048.37 L2314.25 2052.46 L2332.19 2052.46 L2332.19 2056.42 L2350.01 2056.42 L2350.01 2060.38 L2367.83 2060.38 L2367.83 2064.46 L2385.65 2064.46 L2385.65 2068.55 L2403.47 2068.55 L2403.47 2072.63 L2421.42 2072.63 L2421.42 2076.71 L2439.24 2076.71 L2439.24 2080.80 L2457.06 2080.80 L2457.06 2084.88 L2474.88 2084.88 L2474.88 2088.84 L2492.70 2088.84 L2492.70 2092.93 L2510.64 2092.93 L2510.64 2097.01 L2528.46 2097.01 L2528.46 2100.97 L2546.28 2100.97 L2546.28 2105.05 L2564.10 2105.05 L2564.10 2109.14 L2581.92 2109.14 L2581.92 2113.22 L2599.74 2113.22 L2599.74 2117.30 L2617.68 2117.30 L2617.68 2121.39 L2635.50 2121.39 L2635.50 2125.60 L2653.32 2125.60 L2653.32 2129.80 L2671.14 2129.80 L2671.14 2133.89 L2688.96 2133.89 L2688.96 2138.22 L2706.91 2138.22 L2706.91 2142.43 L2724.73 2142.43 L2724.73 2146.63 L2742.55 2146.63 L2742.55 2150.84 L2760.37 2150.84 L2760.37 2155.05 L2778.19 2155.05 L2778.19 2159.38 L2796.01 2159.38 L2796.01 2163.59 L2813.95 2163.59 L2813.95 2167.80 L2831.77 2167.80 L2831.77 2172.00 L2849.59 2172.00 L2849.59 2176.21 L2867.41 2176.21 L2867.41 2180.42 L2885.23 2180.42 L2885.23 2184.63 L2903.18 2184.63 L2903.18 2188.96 L2920.99 2188.96 L2920.99 2193.17 L2938.82 2193.17 L2938.82 2197.37 L2956.64 2197.37 L2956.64 2201.58 L2974.45 2201.58 L2974.45 2205.79 L2992.28 2205.79 L2992.28 2210.00 L3010.22 2210.00 L3010.22 2214.08 L3028.04 2214.08 L3028.04 2218.16 L3045.86 2218.16 L3045.86 2222.37 L3063.68 2222.37 L3063.68 2226.46 L3081.50 2226.46 L3081.50 2230.54 L3099.44 2230.54 L3099.44 2234.75 L3117.26 2234.75 L3117.26 2238.83 L3135.08 2238.83 L3135.08 2242.92 L3152.90 2242.92 L3152.90 2247.12 L3170.72 2247.12 L3170.72 2251.21 L3188.67 2251.21 L3188.67 2255.29 L3206.49 2255.29 L3206.49 2259.50 L3224.31 2259.50 L3224.31 2263.58 L3242.13 2263.58 L3242.13 2267.79 L3259.95 2267.79 L3259.95 2271.87 L3277.77 2271.87 L3277.77 2276.08 L3295.71 2276.08 L3295.71 2280.29 L3313.53 2280.29 L3313.53 2284.37 L3331.35 2284.37 L3331.35 2288.58 L3349.17 2288.58 L3349.17 2292.66 L3366.99 2292.66 L3366.99 2296.75 L3384.93 2296.75 L3384.93 2300.96 L3402.75 2300.96 L3402.75 2305.04 L3420.57 2305.04 L3420.57 2309.25 L3438.39 2309.25 L3438.39 2313.33 L3456.21 2313.33 L3456.21 2317.54 L3474.03 2317.54 L3474.03 2321.62 L3491.98 2321.62 L3491.98 2325.83 L3509.80 2325.83 L3509.80 2330.04 L3527.62 2330.04 L3527.62 2334.12 L3545.44 2334.12 L3545.44 2338.33 L3563.26 2338.33 L3563.26 2342.54 L3581.20 2342.54 L3581.20 2346.74 L3599.02 2346.74 L3599.02 2350.95 L3616.84 2350.95 L3616.84 2355.16 L3634.66 2355.16 L3634.66 2359.37 L3652.48 2359.37 L3652.48 2363.45 L3670.30 2363.45 L3670.30 2367.66 L3688.24 2367.66 L3688.24 2371.87 L3706.07 2371.87 L3706.07 2376.07 L3723.89 2376.07 L3723.89 2380.28 L3741.70 2380.28 L3741.70 2384.49 L3759.53 2384.49 L3759.53 2388.57 L3777.47 2388.57 L3777.47 2392.78 L3795.29 2392.78 L3795.29 2396.99 L3795.29 640.43 L3795.29 647.60 L3777.47 647.60 L3777.47 654.78 L3759.53 654.78 L3759.53 661.96 L3741.70 661.96 L3741.70 669.14 L3723.89 669.14 L3723.89 676.19 L3706.07 676.19 L3706.07 683.37 L3688.24 683.37 L3688.24 690.55 L3670.30 690.55 L3670.30 697.60 L3652.48 697.60 L3652.48 704.78 L3634.66 704.78 L3634.66 711.96 L3616.84 711.96 L3616.84 719.13 L3599.02 719.13 L3599.02 726.31 L3581.20 726.31 L3581.20 733.49 L3563.26 733.49 L3563.26 740.54 L3545.44 740.54 L3545.44 747.72 L3527.62 747.72 L3527.62 754.90 L3509.80 754.90 L3509.80 762.08 L3491.98 762.08 L3491.98 769.25 L3474.03 769.25 L3474.03 776.43 L3456.21 776.43 L3456.21 783.61 L3438.39 783.61 L3438.39 790.79 L3420.57 790.79 L3420.57 797.96 L3402.75 797.96 L3402.75 805.14 L3384.93 805.14 L3384.93 812.32 L3366.99 812.32 L3366.99 819.50 L3349.17 819.50 L3349.17 826.68 L3331.35 826.68 L3331.35 833.85 L3313.53 833.85 L3313.53 841.16 L3295.71 841.16 L3295.71 848.21 L3277.77 848.21 L3277.77 855.39 L3259.95 855.39 L3259.95 862.56 L3242.13 862.56 L3242.13 869.74 L3224.31 869.74 L3224.31 876.92 L3206.49 876.92 L3206.49 884.10 L3188.67 884.10 L3188.67 891.28 L3170.72 891.28 L3170.72 898.58 L3152.90 898.58 L3152.90 905.75 L3135.08 905.75 L3135.08 912.81 L3117.26 912.81 L3117.26 919.99 L3099.44 919.99 L3099.44 927.16 L3081.50 927.16 L3081.50 934.34 L3063.68 934.34 L3063.68 941.52 L3045.86 941.52 L3045.86 948.70 L3028.04 948.70 L3028.04 955.87 L3010.22 955.87 L3010.22 962.93 L2992.28 962.93 L2992.28 969.98 L2974.45 969.98 L2974.45 977.04 L2956.64 977.04 L2956.64 984.09 L2938.82 984.09 L2938.82 991.14 L2920.99 991.14 L2920.99 998.07 L2903.18 998.07 L2903.18 1005.13 L2885.23 1005.13 L2885.23 1012.06 L2867.41 1012.06 L2867.41 1019.11 L2849.59 1019.11 L2849.59 1026.04 L2831.77 1026.04 L2831.77 1033.10 L2813.95 1033.10 L2813.95 1040.03 L2796.01 1040.03 L2796.01 1047.08 L2778.19 1047.08 L2778.19 1054.01 L2760.37 1054.01 L2760.37 1060.94 L2742.55 1060.94 L2742.55 1067.87 L2724.73 1067.87 L2724.73 1074.80 L2706.91 1074.80 L2706.91 1081.73 L2688.96 1081.73 L2688.96 1088.66 L2671.14 1088.66 L2671.14 1095.72 L2653.32 1095.72 L2653.32 1102.65 L2635.50 1102.65 L2635.50 1109.58 L2617.68 1109.58 L2617.68 1116.63 L2599.74 1116.63 L2599.74 1123.69 L2581.92 1123.69 L2581.92 1130.62 L2564.10 1130.62 L2564.10 1137.67 L2546.28 1137.67 L2546.28 1144.72 L2528.46 1144.72 L2528.46 1151.78 L2510.64 1151.78 L2510.64 1158.83 L2492.70 1158.83 L2492.70 1165.76 L2474.88 1165.76 L2474.88 1172.82 L2457.06 1172.82 L2457.06 1179.75 L2439.24 1179.75 L2439.24 1186.68 L2421.42 1186.68 L2421.42 1193.48 L2403.47 1193.48 L2403.47 1200.54 L2385.65 1200.54 L2385.65 1207.34 L2367.83 1207.34 L2367.83 1214.27 L2350.01 1214.27 L2350.01 1221.20 L2332.19 1221.20 L2332.19 1228.13 L2314.25 1228.13 L2314.25 1235.19 L2296.43 1235.19 L2296.43 1242.12 L2278.61 1242.12 L2278.61 1249.05 L2260.79 1249.05 L2260.79 1255.98 L2242.97 1255.98 L2242.97 1262.91 L2225.15 1262.91 L2225.15 1269.71 L2207.20 1269.71 L2207.20 1276.64 L2189.39 1276.64 L2189.39 1283.45 L2171.57 1283.45 L2171.57 1290.38 L2153.74 1290.38 L2153.74 1297.19 L2135.93 1297.19 L2135.93 1303.99 L2117.98 1303.99 L2117.98 1310.80 L2100.16 1310.80 L2100.16 1317.61 L2082.34 1317.61 L2082.34 1324.41 L2064.52 1324.41 L2064.52 1331.34 L2046.70 1331.34 L2046.70 1338.15 L2028.88 1338.15 L2028.88 1344.96 L2010.94 1344.96 L2010.94 1351.76 L1993.12 1351.76 L1993.12 1358.57 L1975.30 1358.57 L1975.30 1365.38 L1957.48 1365.38 L1957.48 1372.06 L1939.66 1372.06 L1939.66 1378.74 L1921.71 1378.74 L1921.71 1385.42 L1903.89 1385.42 L1903.89 1391.98 L1886.07 1391.98 L1886.07 1398.54 L1868.25 1398.54 L1868.25 1404.98 L1850.43 1404.98 L1850.43 1411.54 L1832.61 1411.54 L1832.61 1417.85 L1814.67 1417.85 L1814.67 1424.28 L1796.85 1424.28 L1796.85 1430.72 L1779.03 1430.72 L1779.03 1437.03 L1761.21 1437.03 L1761.21 1443.47 L1743.39 1443.47 L1743.39 1449.78 L1725.45 1449.78 L1725.45 1455.96 L1707.63 1455.96 L1707.63 1462.15 L1689.81 1462.15 L1689.81 1468.34 L1671.99 1468.34 L1671.99 1474.53 L1654.17 1474.53 L1654.17 1480.59 L1636.35 1480.59 L1636.35 1486.66 L1618.40 1486.66 L1618.40 1492.72 L1600.58 1492.72 L1600.58 1498.66 L1582.76 1498.66 L1582.76 1504.72 L1564.94 1504.72 L1564.94 1510.79 L1547.12 1510.79 L1547.12 1516.73 L1529.18 1516.73 L1529.18 1522.79 L1511.36 1522.79 L1511.36 1528.86 L1493.54 1528.86 L1493.54 1534.80 L1475.72 1534.80 L1475.72 1540.74 L1457.90 1540.74 L1457.90 1546.68 L1439.95 1546.68 L1439.95 1552.62 L1422.13 1552.62 L1422.13 1558.43 L1404.32 1558.43 L1404.32 1564.25 L1386.49 1564.25 L1386.49 1570.07 L1368.67 1570.07 L1368.67 1575.76 L1350.86 1575.76 L1350.86 1581.45 L1332.91 1581.45 L1332.91 1587.02 L1315.09 1587.02 L1315.09 1592.59 L1297.27 1592.59 L1297.27 1598.16 L1279.45 1598.16 L1279.45 1603.60 L1261.63 1603.60 L1261.63 1609.05 L1243.69 1609.05 L1243.69 1614.49 L1225.87 1614.49 L1225.87 1619.81 L1208.05 1619.81 L1208.05 1625.01 L1190.23 1625.01 L1190.23 1630.21 L1172.41 1630.21 L1172.41 1635.28 L1154.59 1635.28 L1154.59 1640.36 L1136.64 1640.36 L1136.64 1645.31 L1118.82 1645.31 L1118.82 1650.13 L1101.00 1650.13 L1101.00 1654.96 L1083.18 1654.96 L1083.18 1659.66 L1065.36 1659.66 L1065.36 1664.24 L1047.42 1664.24 L1047.42 1668.82 L1029.60 1668.82 L1029.60 1673.15 L1011.78 1673.15 L1011.78 1677.48 L993.96 1677.48 L993.96 1681.82 L976.14 1681.82 L976.14 1685.90 L958.32 1685.90 L958.32 1689.98 L940.38 1689.98 L940.38 1693.82 L922.56 1693.82 L922.56 1697.66 L904.74 1697.66 L904.74 1701.37 L886.92 1701.37 L886.92 1704.96 L869.10 1704.96 L869.10 1708.55 L851.15 1708.55 L851.15 1712.01 L833.33 1712.01 L833.33 1715.23 L815.51 1715.23 L815.51 1718.45 L797.69 1718.45 L797.69 1721.42 L779.87 1721.42 L779.87 1724.26 L761.93 1724.26 L761.93 1726.99 L744.11 1726.99 L744.11 1729.58 L726.29 1729.58 L726.29 1732.06 L708.47 1732.06 L708.47 1734.29 L690.65 1734.29 L690.65 1736.51 L672.83 1736.51 L672.83 1738.49 L654.88 1738.49 L654.88 1740.23 L637.07 1740.23 L637.07 1741.96 L619.25 1741.96 L619.25 1743.44 L601.42 1743.44 L601.42 1750.87 Z" stroke-linejoin="round"/>
	</defs>
	<defs>
		<clipPath id="clipPath_OMJMFTJx">
			<use xlink:href="#path_XdKIXpUL"/>
		</clipPath>
	</defs>
	<use xlink:href="#path_XdKIXpUL" style="stroke:none;fill:#999999;fill-opacity:0.65"/>
	<use xlink:href="#path_XdKIXpUL" style="fill:none;stroke:#808080;stroke-opacity:0.65;stroke-width:17.28" clip-path="url(#clipPath_OMJMFTJx)"/>
	<defs>
		<path id="path_TMbctFtL" d="M601.42 1751.49 L601.42 1751.49 L619.25 1751.49 L619.25 1752.60 L637.07 1752.60 L637.07 1753.84 L654.88 1753.84 L654.88 1755.20 L672.83 1755.20 L672.83 1756.69 L690.65 1756.69 L690.65 1758.29 L708.47 1758.29 L708.47 1760.15 L726.29 1760.15 L726.29 1762.13 L744.11 1762.13 L744.11 1764.24 L761.93 1764.24 L761.93 1766.34 L779.87 1766.34 L779.87 1768.69 L797.69 1768.69 L797.69 1771.04 L815.51 1771.04 L815.51 1773.52 L833.33 1773.52 L833.33 1775.99 L851.15 1775.99 L851.15 1778.59 L869.10 1778.59 L869.10 1781.31 L886.92 1781.31 L886.92 1784.04 L904.74 1784.04 L904.74 1786.88 L922.56 1786.88 L922.56 1789.85 L940.38 1789.85 L940.38 1792.95 L958.32 1792.95 L958.32 1796.04 L976.14 1796.04 L976.14 1799.26 L993.96 1799.26 L993.96 1802.60 L1011.78 1802.60 L1011.78 1805.94 L1029.60 1805.94 L1029.60 1809.28 L1047.42 1809.28 L1047.42 1812.75 L1065.36 1812.75 L1065.36 1816.09 L1083.18 1816.09 L1083.18 1819.55 L1101.00 1819.55 L1101.00 1822.89 L1118.82 1822.89 L1118.82 1826.36 L1136.64 1826.36 L1136.64 1829.82 L1154.59 1829.82 L1154.59 1833.29 L1172.41 1833.29 L1172.41 1836.75 L1190.23 1836.75 L1190.23 1840.34 L1208.05 1840.34 L1208.05 1843.81 L1225.87 1843.81 L1225.87 1847.40 L1243.69 1847.40 L1243.69 1850.99 L1261.63 1850.99 L1261.63 1854.70 L1279.45 1854.70 L1279.45 1858.29 L1297.27 1858.29 L1297.27 1862.00 L1315.09 1862.00 L1315.09 1865.71 L1332.91 1865.71 L1332.91 1869.43 L1350.86 1869.43 L1350.86 1873.26 L1368.67 1873.26 L1368.67 1876.97 L1386.49 1876.97 L1386.49 1880.94 L1404.32 1880.94 L1404.32 1884.90 L1422.13 1884.90 L1422.13 1888.73 L1439.95 1888.73 L1439.95 1892.69 L1457.90 1892.69 L1457.90 1896.65 L1475.72 1896.65 L1475.72 1900.61 L1493.54 1900.61 L1493.54 1904.57 L1511.36 1904.57 L1511.36 1908.53 L1529.18 1908.53 L1529.18 1912.49 L1547.12 1912.49 L1547.12 1916.45 L1564.94 1916.45 L1564.94 1920.41 L1582.76 1920.41 L1582.76 1924.37 L1600.58 1924.37 L1600.58 1928.33 L1618.40 1928.33 L1618.40 1932.17 L1636.35 1932.17 L1636.35 1936.13 L1654.17 1936.13 L1654.17 1940.09 L1671.99 1940.09 L1671.99 1944.05 L1689.81 1944.05 L1689.81 1947.89 L1707.63 1947.89 L1707.63 1951.85 L1725.45 1951.85 L1725.45 1955.68 L1743.39 1955.68 L1743.39 1959.52 L1761.21 1959.52 L1761.21 1963.48 L1779.03 1963.48 L1779.03 1967.44 L1796.85 1967.44 L1796.85 1971.40 L1814.67 1971.40 L1814.67 1975.48 L1832.61 1975.48 L1832.61 1979.57 L1850.43 1979.57 L1850.43 1983.65 L1868.25 1983.65 L1868.25 1987.73 L1886.07 1987.73 L1886.07 1991.82 L1903.89 1991.82 L1903.89 1996.03 L1921.71 1996.03 L1921.71 2000.11 L1939.66 2000.11 L1939.66 2004.19 L1957.48 2004.19 L1957.48 2008.40 L1975.30 2008.40 L1975.30 2012.49 L1993.12 2012.49 L1993.12 2016.69 L2010.94 2016.69 L2010.94 2020.78 L2028.88 2020.78 L2028.88 2025.11 L2046.70 2025.11 L2046.70 2029.32 L2064.52 2029.32 L2064.52 2033.65 L2082.34 2033.65 L2082.34 2037.85 L2100.16 2037.85 L2100.16 2042.06 L2117.98 2042.06 L2117.98 2046.27 L2135.93 2046.27 L2135.93 2050.48 L2153.74 2050.48 L2153.74 2054.69 L2171.57 2054.69 L2171.57 2058.77 L2189.39 2058.77 L2189.39 2062.98 L2207.20 2062.98 L2207.20 2067.18 L2225.15 2067.18 L2225.15 2071.39 L2242.97 2071.39 L2242.97 2075.60 L2260.79 2075.60 L2260.79 2079.81 L2278.61 2079.81 L2278.61 2084.02 L2296.43 2084.02 L2296.43 2088.35 L2314.25 2088.35 L2314.25 2092.55 L2332.19 2092.55 L2332.19 2096.89 L2350.01 2096.89 L2350.01 2101.09 L2367.83 2101.09 L2367.83 2105.30 L2385.65 2105.30 L2385.65 2109.51 L2403.47 2109.51 L2403.47 2113.72 L2421.42 2113.72 L2421.42 2117.92 L2439.24 2117.92 L2439.24 2122.26 L2457.06 2122.26 L2457.06 2126.46 L2474.88 2126.46 L2474.88 2130.67 L2492.70 2130.67 L2492.70 2134.88 L2510.64 2134.88 L2510.64 2139.09 L2528.46 2139.09 L2528.46 2143.29 L2546.28 2143.29 L2546.28 2147.50 L2564.10 2147.50 L2564.10 2151.58 L2581.92 2151.58 L2581.92 2155.79 L2599.74 2155.79 L2599.74 2160.00 L2617.68 2160.00 L2617.68 2164.08 L2635.50 2164.08 L2635.50 2168.29 L2653.32 2168.29 L2653.32 2172.50 L2671.14 2172.50 L2671.14 2176.71 L2688.96 2176.71 L2688.96 2180.91 L2706.91 2180.91 L2706.91 2185.12 L2724.73 2185.12 L2724.73 2189.33 L2742.55 2189.33 L2742.55 2193.54 L2760.37 2193.54 L2760.37 2197.74 L2778.19 2197.74 L2778.19 2202.08 L2796.01 2202.08 L2796.01 2206.28 L2813.95 2206.28 L2813.95 2210.49 L2831.77 2210.49 L2831.77 2214.70 L2849.59 2214.70 L2849.59 2218.91 L2867.41 2218.91 L2867.41 2223.24 L2885.23 2223.24 L2885.23 2227.45 L2903.18 2227.45 L2903.18 2231.65 L2920.99 2231.65 L2920.99 2235.86 L2938.82 2235.86 L2938.82 2240.07 L2956.64 2240.07 L2956.64 2244.40 L2974.45 2244.40 L2974.45 2248.61 L2992.28 2248.61 L2992.28 2252.94 L3010.22 2252.94 L3010.22 2257.15 L3028.04 2257.15 L3028.04 2261.35 L3045.86 2261.35 L3045.86 2265.69 L3063.68 2265.69 L3063.68 2269.89 L3081.50 2269.89 L3081.50 2274.10 L3099.44 2274.10 L3099.44 2278.31 L3117.26 2278.31 L3117.26 2282.52 L3135.08 2282.52 L3135.08 2286.85 L3152.90 2286.85 L3152.90 2291.06 L3170.72 2291.06 L3170.72 2295.26 L3188.67 2295.26 L3188.67 2299.59 L3206.49 2299.59 L3206.49 2303.80 L3224.31 2303.80 L3224.31 2308.13 L3242.13 2308.13 L3242.13 2312.46 L3259.95 2312.46 L3259.95 2316.80 L3277.77 2316.80 L3277.77 2321.00 L3295.71 2321.00 L3295.71 2325.34 L3313.53 2325.34 L3313.53 2329.67 L3331.35 2329.67 L3331.35 2334.00 L3349.17 2334.00 L3349.17 2338.33 L3366.99 2338.33 L3366.99 2342.66 L3384.93 2342.66 L3384.93 2346.99 L3402.75 2346.99 L3402.75 2351.32 L3420.57 2351.32 L3420.57 2355.65 L3438.39 2355.65 L3438.39 2359.99 L3456.21 2359.99 L3456.21 2364.19 L3474.03 2364.19 L3474.03 2368.53 L3491.98 2368.53 L3491.98 2372.86 L3509.80 2372.86 L3509.80 2377.06 L3527.62 2377.06 L3527.62 2381.40 L3545.44 2381.40 L3545.44 2385.60 L3563.26 2385.60 L3563.26 2389.93 L3581.20 2389.93 L3581.20 2394.27 L3599.02 2394.27 L3599.02 2398.60 L3616.84 2398.60 L3616.84 2402.81 L3634.66 2402.81 L3634.66 2407.14 L3652.48 2407.14 L3652.48 2411.34 L3670.30 2411.34 L3670.30 2415.68 L3688.24 2415.68 L3688.24 2419.88 L3706.07 2419.88 L3706.07 2424.21 L3723.89 2424.21 L3723.89 2428.55 L3741.70 2428.55 L3741.70 2432.88 L3759.53 2432.88 L3759.53 2437.21 L3777.47 2437.21 L3777.47 2441.54 L3795.29 2441.54 L3795.29 2445.87 L3795.29 621.99 L3795.29 628.92 L3777.47 628.92 L3777.47 635.72 L3759.53 635.72 L3759.53 642.65 L3741.70 642.65 L3741.70 649.46 L3723.89 649.46 L3723.89 656.39 L3706.07 656.39 L3706.07 663.32 L3688.24 663.32 L3688.24 670.25 L3670.30 670.25 L3670.30 677.18 L3652.48 677.18 L3652.48 684.24 L3634.66 684.24 L3634.66 691.17 L3616.84 691.17 L3616.84 698.10 L3599.02 698.10 L3599.02 705.03 L3581.20 705.03 L3581.20 711.96 L3563.26 711.96 L3563.26 718.89 L3545.44 718.89 L3545.44 725.82 L3527.62 725.82 L3527.62 732.75 L3509.80 732.75 L3509.80 739.80 L3491.98 739.80 L3491.98 746.73 L3474.03 746.73 L3474.03 753.66 L3456.21 753.66 L3456.21 760.72 L3438.39 760.72 L3438.39 767.65 L3420.57 767.65 L3420.57 774.58 L3402.75 774.58 L3402.75 781.51 L3384.93 781.51 L3384.93 788.44 L3366.99 788.44 L3366.99 795.37 L3349.17 795.37 L3349.17 802.30 L3331.35 802.30 L3331.35 809.35 L3313.53 809.35 L3313.53 816.28 L3295.71 816.28 L3295.71 823.21 L3277.77 823.21 L3277.77 830.26 L3259.95 830.26 L3259.95 837.19 L3242.13 837.19 L3242.13 844.25 L3224.31 844.25 L3224.31 851.30 L3206.49 851.30 L3206.49 858.23 L3188.67 858.23 L3188.67 865.29 L3170.72 865.29 L3170.72 872.34 L3152.90 872.34 L3152.90 879.39 L3135.08 879.39 L3135.08 886.57 L3117.26 886.57 L3117.26 893.63 L3099.44 893.63 L3099.44 900.68 L3081.50 900.68 L3081.50 907.73 L3063.68 907.73 L3063.68 914.79 L3045.86 914.79 L3045.86 921.97 L3028.04 921.97 L3028.04 929.02 L3010.22 929.02 L3010.22 936.07 L2992.28 936.07 L2992.28 943.13 L2974.45 943.13 L2974.45 950.06 L2956.64 950.06 L2956.64 957.11 L2938.82 957.11 L2938.82 964.29 L2920.99 964.29 L2920.99 971.34 L2903.18 971.34 L2903.18 978.40 L2885.23 978.40 L2885.23 985.45 L2867.41 985.45 L2867.41 992.51 L2849.59 992.51 L2849.59 999.68 L2831.77 999.68 L2831.77 1006.74 L2813.95 1006.74 L2813.95 1013.79 L2796.01 1013.79 L2796.01 1020.85 L2778.19 1020.85 L2778.19 1027.90 L2760.37 1027.90 L2760.37 1034.83 L2742.55 1034.83 L2742.55 1042.01 L2724.73 1042.01 L2724.73 1049.06 L2706.91 1049.06 L2706.91 1056.12 L2688.96 1056.12 L2688.96 1063.17 L2671.14 1063.17 L2671.14 1070.35 L2653.32 1070.35 L2653.32 1077.40 L2635.50 1077.40 L2635.50 1084.46 L2617.68 1084.46 L2617.68 1091.51 L2599.74 1091.51 L2599.74 1098.69 L2581.92 1098.69 L2581.92 1105.74 L2564.10 1105.74 L2564.10 1112.79 L2546.28 1112.79 L2546.28 1119.85 L2528.46 1119.85 L2528.46 1126.90 L2510.64 1126.90 L2510.64 1133.96 L2492.70 1133.96 L2492.70 1141.01 L2474.88 1141.01 L2474.88 1148.06 L2457.06 1148.06 L2457.06 1154.99 L2439.24 1154.99 L2439.24 1162.05 L2421.42 1162.05 L2421.42 1168.98 L2403.47 1168.98 L2403.47 1176.03 L2385.65 1176.03 L2385.65 1183.09 L2367.83 1183.09 L2367.83 1190.02 L2350.01 1190.02 L2350.01 1196.95 L2332.19 1196.95 L2332.19 1203.88 L2314.25 1203.88 L2314.25 1210.81 L2296.43 1210.81 L2296.43 1217.74 L2278.61 1217.74 L2278.61 1224.67 L2260.79 1224.67 L2260.79 1231.60 L2242.97 1231.60 L2242.97 1238.53 L2225.15 1238.53 L2225.15 1245.46 L2207.20 1245.46 L2207.20 1252.39 L2189.39 1252.39 L2189.39 1259.32 L2171.57 1259.32 L2171.57 1266.25 L2153.74 1266.25 L2153.74 1273.18 L2135.93 1273.18 L2135.93 1279.99 L2117.98 1279.99 L2117.98 1286.92 L2100.16 1286.92 L2100.16 1293.72 L2082.34 1293.72 L2082.34 1300.41 L2064.52 1300.41 L2064.52 1307.21 L2046.70 1307.21 L2046.70 1313.89 L2028.88 1313.89 L2028.88 1320.70 L2010.94 1320.70 L2010.94 1327.51 L1993.12 1327.51 L1993.12 1334.31 L1975.30 1334.31 L1975.30 1341.12 L1957.48 1341.12 L1957.48 1347.93 L1939.66 1347.93 L1939.66 1354.73 L1921.71 1354.73 L1921.71 1361.54 L1903.89 1361.54 L1903.89 1368.22 L1886.07 1368.22 L1886.07 1374.91 L1868.25 1374.91 L1868.25 1381.59 L1850.43 1381.59 L1850.43 1388.39 L1832.61 1388.39 L1832.61 1395.08 L1814.67 1395.08 L1814.67 1401.76 L1796.85 1401.76 L1796.85 1408.44 L1779.03 1408.44 L1779.03 1415.25 L1761.21 1415.25 L1761.21 1421.93 L1743.39 1421.93 L1743.39 1428.74 L1725.45 1428.74 L1725.45 1435.42 L1707.63 1435.42 L1707.63 1442.10 L1689.81 1442.10 L1689.81 1448.66 L1671.99 1448.66 L1671.99 1455.35 L1654.17 1455.35 L1654.17 1461.90 L1636.35 1461.90 L1636.35 1468.34 L1618.40 1468.34 L1618.40 1474.77 L1600.58 1474.77 L1600.58 1481.21 L1582.76 1481.21 L1582.76 1487.52 L1564.94 1487.52 L1564.94 1493.96 L1547.12 1493.96 L1547.12 1500.27 L1529.18 1500.27 L1529.18 1506.46 L1511.36 1506.46 L1511.36 1512.64 L1493.54 1512.64 L1493.54 1518.83 L1475.72 1518.83 L1475.72 1524.90 L1457.90 1524.90 L1457.90 1530.96 L1439.95 1530.96 L1439.95 1536.90 L1422.13 1536.90 L1422.13 1542.96 L1404.32 1542.96 L1404.32 1548.78 L1386.49 1548.78 L1386.49 1554.72 L1368.67 1554.72 L1368.67 1560.54 L1350.86 1560.54 L1350.86 1566.48 L1332.91 1566.48 L1332.91 1572.29 L1315.09 1572.29 L1315.09 1578.11 L1297.27 1578.11 L1297.27 1583.93 L1279.45 1583.93 L1279.45 1589.62 L1261.63 1589.62 L1261.63 1595.31 L1243.69 1595.31 L1243.69 1600.88 L1225.87 1600.88 L1225.87 1606.45 L1208.05 1606.45 L1208.05 1611.89 L1190.23 1611.89 L1190.23 1617.34 L1172.41 1617.34 L1172.41 1622.78 L1154.59 1622.78 L1154.59 1628.11 L1136.64 1628.11 L1136.64 1633.30 L1118.82 1633.30 L1118.82 1638.50 L1101.00 1638.50 L1101.00 1643.58 L1083.18 1643.58 L1083.18 1648.53 L1065.36 1648.53 L1065.36 1653.35 L1047.42 1653.35 L1047.42 1658.18 L1029.60 1658.18 L1029.60 1662.76 L1011.78 1662.76 L1011.78 1667.34 L993.96 1667.34 L993.96 1671.79 L976.14 1671.79 L976.14 1676.12 L958.32 1676.12 L958.32 1680.45 L940.38 1680.45 L940.38 1684.66 L922.56 1684.66 L922.56 1688.87 L904.74 1688.87 L904.74 1692.95 L886.92 1692.95 L886.92 1697.04 L869.10 1697.04 L869.10 1700.87 L851.15 1700.87 L851.15 1704.71 L833.33 1704.71 L833.33 1708.42 L815.51 1708.42 L815.51 1712.01 L797.69 1712.01 L797.69 1715.48 L779.87 1715.48 L779.87 1718.69 L761.93 1718.69 L761.93 1721.91 L744.11 1721.91 L744.11 1724.88 L726.29 1724.88 L726.29 1727.60 L708.47 1727.60 L708.47 1730.33 L690.65 1730.33 L690.65 1732.93 L672.83 1732.93 L672.83 1735.28 L654.88 1735.28 L654.88 1737.50 L637.07 1737.50 L637.07 1739.61 L619.25 1739.61 L619.25 1741.46 L601.42 1741.46 L601.42 1751.49 Z" stroke-linejoin="round"/>
	</defs>
	<defs>
		<clipPath id="clipPath_JADMjSzc">
			<use xlink:href="#path_TMbctFtL"/>
		</clipPath>
	</defs>
	<use xlink:href="#path_TMbctFtL" style="stroke:none;fill:#595959;fill-opacity:0.65"/>
	<use xlink:href="#path_TMbctFtL" style="fill:none;stroke:#303030;stroke-opacity:0.65;stroke-width:17.28" clip-path="url(#clipPath_JADMjSzc)"/>
	<line x1="601.30" y1="1747.16" x2="619.25" y2="1747.16" style="stroke:#808080;stroke-width:8.64"/>
	<line x1="619.25" y1="1747.16" x2="619.25" y2="1746.79" style="stroke:#808080;stroke-width:8.64"/>
	<line x1="619.25" y1="1746.79" x2="637.07" y2="1746.79" style="stroke:#808080;stroke-width:8.64"/>
	<line x1="637.07" y1="1746.79" x2="637.07" y2="1746.41" style="stroke:#808080;stroke-width:8.64"/>
	<line x1="637.07" y1="1746.41" x2="640.90" y2="1746.41" style="stroke:#808080;stroke-width:8.64"/>
	<line x1="657.73" y1="1746.04" x2="672.71" y2="1746.04" style="stroke:#808080;stroke-width:8.64"/>
	<line x1="672.71" y1="1746.04" x2="672.71" y2="1745.67" style="stroke:#808080;stroke-width:8.64"/>
	<line x1="672.71" y1="1745.67" x2="690.52" y2="1745.67" style="stroke:#808080;stroke-width:8.64"/>
	<line x1="690.52" y1="1745.67" x2="690.52" y2="1745.18" style="stroke:#808080;stroke-width:8.64"/>
	<line x1="690.52" y1="1745.18" x2="697.21" y2="1745.18" style="stroke:#808080;stroke-width:8.64"/>
	<line x1="713.91" y1="1744.68" x2="726.29" y2="1744.68" style="stroke:#808080;stroke-width:8.64"/>
	<line x1="726.29" y1="1744.68" x2="726.29" y2="1744.31" style="stroke:#808080;stroke-width:8.64"/>
	<line x1="726.29" y1="1744.31" x2="744.11" y2="1744.31" style="stroke:#808080;stroke-width:8.64"/>
	<line x1="744.11" y1="1744.31" x2="744.11" y2="1743.69" style="stroke:#808080;stroke-width:8.64"/>
	<line x1="744.11" y1="1743.69" x2="753.27" y2="1743.69" style="stroke:#808080;stroke-width:8.64"/>
	<line x1="770.10" y1="1743.20" x2="779.75" y2="1743.20" style="stroke:#808080;stroke-width:8.64"/>
	<line x1="779.75" y1="1743.20" x2="779.75" y2="1742.70" style="stroke:#808080;stroke-width:8.64"/>
	<line x1="779.75" y1="1742.70" x2="797.57" y2="1742.70" style="stroke:#808080;stroke-width:8.64"/>
	<line x1="797.57" y1="1742.70" x2="797.57" y2="1742.21" style="stroke:#808080;stroke-width:8.64"/>
	<line x1="797.57" y1="1742.21" x2="809.45" y2="1742.21" style="stroke:#808080;stroke-width:8.64"/>
	<line x1="826.03" y1="1741.59" x2="833.33" y2="1741.59" style="stroke:#808080;stroke-width:8.64"/>
	<line x1="833.33" y1="1741.59" x2="833.33" y2="1740.85" style="stroke:#808080;stroke-width:8.64"/>
	<line x1="833.33" y1="1740.85" x2="851.15" y2="1740.85" style="stroke:#808080;stroke-width:8.64"/>
	<line x1="851.15" y1="1740.85" x2="851.15" y2="1740.23" style="stroke:#808080;stroke-width:8.64"/>
	<line x1="851.15" y1="1740.23" x2="865.01" y2="1740.23" style="stroke:#808080;stroke-width:8.64"/>
	<line x1="881.47" y1="1739.48" x2="886.79" y2="1739.48" style="stroke:#808080;stroke-width:8.64"/>
	<line x1="886.79" y1="1739.48" x2="886.79" y2="1738.87" style="stroke:#808080;stroke-width:8.64"/>
	<line x1="886.79" y1="1738.87" x2="904.61" y2="1738.87" style="stroke:#808080;stroke-width:8.64"/>
	<line x1="904.61" y1="1738.87" x2="904.61" y2="1738.12" style="stroke:#808080;stroke-width:8.64"/>
	<line x1="904.61" y1="1738.12" x2="920.45" y2="1738.12" style="stroke:#808080;stroke-width:8.64"/>
	<line x1="936.91" y1="1737.38" x2="940.38" y2="1737.38" style="stroke:#808080;stroke-width:8.64"/>
	<line x1="940.38" y1="1737.38" x2="940.38" y2="1736.64" style="stroke:#808080;stroke-width:8.64"/>
	<line x1="940.38" y1="1736.64" x2="958.20" y2="1736.64" style="stroke:#808080;stroke-width:8.64"/>
	<line x1="958.20" y1="1736.64" x2="958.20" y2="1735.90" style="stroke:#808080;stroke-width:8.64"/>
	<line x1="958.20" y1="1735.90" x2="975.77" y2="1735.90" style="stroke:#808080;stroke-width:8.64"/>
	<line x1="992.35" y1="1735.15" x2="993.84" y2="1735.15" style="stroke:#808080;stroke-width:8.64"/>
	<line x1="993.84" y1="1735.15" x2="993.84" y2="1734.29" style="stroke:#808080;stroke-width:8.64"/>
	<line x1="993.84" y1="1734.29" x2="1011.78" y2="1734.29" style="stroke:#808080;stroke-width:8.64"/>
	<line x1="1011.78" y1="1734.29" x2="1011.78" y2="1733.42" style="stroke:#808080;stroke-width:8.64"/>
	<line x1="1011.78" y1="1733.42" x2="1029.60" y2="1733.42" style="stroke:#808080;stroke-width:8.64"/>
	<line x1="1029.60" y1="1733.42" x2="1029.60" y2="1732.55" style="stroke:#808080;stroke-width:8.64"/>
	<line x1="1029.60" y1="1732.55" x2="1029.97" y2="1732.55" style="stroke:#808080;stroke-width:8.64"/>
	<line x1="1047.30" y1="1732.55" x2="1047.42" y2="1732.55" style="stroke:#808080;stroke-width:8.64"/>
	<line x1="1047.42" y1="1732.55" x2="1047.42" y2="1731.69" style="stroke:#808080;stroke-width:8.64"/>
	<line x1="1047.42" y1="1731.69" x2="1065.24" y2="1731.69" style="stroke:#808080;stroke-width:8.64"/>
	<line x1="1065.24" y1="1731.69" x2="1065.24" y2="1730.82" style="stroke:#808080;stroke-width:8.64"/>
	<line x1="1065.24" y1="1730.82" x2="1083.06" y2="1730.82" style="stroke:#808080;stroke-width:8.64"/>
	<line x1="1083.06" y1="1730.82" x2="1083.06" y2="1729.83" style="stroke:#808080;stroke-width:8.64"/>
	<line x1="1083.06" y1="1729.83" x2="1084.92" y2="1729.83" style="stroke:#808080;stroke-width:8.64"/>
	<line x1="1101.13" y1="1728.84" x2="1118.82" y2="1728.84" style="stroke:#808080;stroke-width:8.64"/>
	<line x1="1118.82" y1="1728.84" x2="1118.82" y2="1727.85" style="stroke:#808080;stroke-width:8.64"/>
	<line x1="1118.82" y1="1727.85" x2="1136.64" y2="1727.85" style="stroke:#808080;stroke-width:8.64"/>
	<line x1="1136.64" y1="1727.85" x2="1136.64" y2="1726.86" style="stroke:#808080;stroke-width:8.64"/>
	<line x1="1136.64" y1="1726.86" x2="1139.49" y2="1726.86" style="stroke:#808080;stroke-width:8.64"/>
	<line x1="1155.70" y1="1725.75" x2="1172.28" y2="1725.75" style="stroke:#808080;stroke-width:8.64"/>
	<line x1="1172.28" y1="1725.75" x2="1172.28" y2="1724.76" style="stroke:#808080;stroke-width:8.64"/>
	<line x1="1172.28" y1="1724.76" x2="1190.10" y2="1724.76" style="stroke:#808080;stroke-width:8.64"/>
	<line x1="1190.10" y1="1724.76" x2="1190.10" y2="1723.52" style="stroke:#808080;stroke-width:8.64"/>
	<line x1="1190.10" y1="1723.52" x2="1193.69" y2="1723.52" style="stroke:#808080;stroke-width:8.64"/>
	<line x1="1209.90" y1="1722.41" x2="1225.87" y2="1722.41" style="stroke:#808080;stroke-width:8.64"/>
	<line x1="1225.87" y1="1722.41" x2="1225.87" y2="1721.29" style="stroke:#808080;stroke-width:8.64"/>
	<line x1="1225.87" y1="1721.29" x2="1243.69" y2="1721.29" style="stroke:#808080;stroke-width:8.64"/>
	<line x1="1243.69" y1="1721.29" x2="1243.69" y2="1720.18" style="stroke:#808080;stroke-width:8.64"/>
	<line x1="1243.69" y1="1720.18" x2="1247.89" y2="1720.18" style="stroke:#808080;stroke-width:8.64"/>
	<line x1="1263.98" y1="1718.94" x2="1279.33" y2="1718.94" style="stroke:#808080;stroke-width:8.64"/>
	<line x1="1279.33" y1="1718.94" x2="1279.33" y2="1717.70" style="stroke:#808080;stroke-width:8.64"/>
	<line x1="1279.33" y1="1717.70" x2="1297.27" y2="1717.70" style="stroke:#808080;stroke-width:8.64"/>
	<line x1="1297.27" y1="1717.70" x2="1297.27" y2="1716.59" style="stroke:#808080;stroke-width:8.64"/>
	<line x1="1297.27" y1="1716.59" x2="1301.97" y2="1716.59" style="stroke:#808080;stroke-width:8.64"/>
	<line x1="1317.94" y1="1715.35" x2="1332.91" y2="1715.35" style="stroke:#808080;stroke-width:8.64"/>
	<line x1="1332.91" y1="1715.35" x2="1332.91" y2="1714.24" style="stroke:#808080;stroke-width:8.64"/>
	<line x1="1332.91" y1="1714.24" x2="1350.73" y2="1714.24" style="stroke:#808080;stroke-width:8.64"/>
	<line x1="1350.73" y1="1714.24" x2="1350.73" y2="1713.00" style="stroke:#808080;stroke-width:8.64"/>
	<line x1="1350.73" y1="1713.00" x2="1355.93" y2="1713.00" style="stroke:#808080;stroke-width:8.64"/>
	<line x1="1371.89" y1="1711.76" x2="1386.37" y2="1711.76" style="stroke:#808080;stroke-width:8.64"/>
	<line x1="1386.37" y1="1711.76" x2="1386.37" y2="1710.53" style="stroke:#808080;stroke-width:8.64"/>
	<line x1="1386.37" y1="1710.53" x2="1404.32" y2="1710.53" style="stroke:#808080;stroke-width:8.64"/>
	<line x1="1404.32" y1="1710.53" x2="1404.32" y2="1709.16" style="stroke:#808080;stroke-width:8.64"/>
	<line x1="1404.32" y1="1709.16" x2="1409.64" y2="1709.16" style="stroke:#808080;stroke-width:8.64"/>
	<line x1="1425.60" y1="1707.93" x2="1439.95" y2="1707.93" style="stroke:#808080;stroke-width:8.64"/>
	<line x1="1439.95" y1="1707.93" x2="1439.95" y2="1706.69" style="stroke:#808080;stroke-width:8.64"/>
	<line x1="1439.95" y1="1706.69" x2="1457.78" y2="1706.69" style="stroke:#808080;stroke-width:8.64"/>
	<line x1="1457.78" y1="1706.69" x2="1457.78" y2="1705.45" style="stroke:#808080;stroke-width:8.64"/>
	<line x1="1457.78" y1="1705.45" x2="1463.47" y2="1705.45" style="stroke:#808080;stroke-width:8.64"/>
	<line x1="1479.43" y1="1704.09" x2="1493.54" y2="1704.09" style="stroke:#808080;stroke-width:8.64"/>
	<line x1="1493.54" y1="1704.09" x2="1493.54" y2="1702.85" style="stroke:#808080;stroke-width:8.64"/>
	<line x1="1493.54" y1="1702.85" x2="1511.36" y2="1702.85" style="stroke:#808080;stroke-width:8.64"/>
	<line x1="1511.36" y1="1702.85" x2="1511.36" y2="1701.62" style="stroke:#808080;stroke-width:8.64"/>
	<line x1="1511.36" y1="1701.62" x2="1517.17" y2="1701.62" style="stroke:#808080;stroke-width:8.64"/>
	<line x1="1533.26" y1="1700.38" x2="1547.00" y2="1700.38" style="stroke:#808080;stroke-width:8.64"/>
	<line x1="1547.00" y1="1700.38" x2="1547.00" y2="1699.14" style="stroke:#808080;stroke-width:8.64"/>
	<line x1="1547.00" y1="1699.14" x2="1564.82" y2="1699.14" style="stroke:#808080;stroke-width:8.64"/>
	<line x1="1564.82" y1="1699.14" x2="1564.82" y2="1697.90" style="stroke:#808080;stroke-width:8.64"/>
	<line x1="1564.82" y1="1697.90" x2="1571.13" y2="1697.90" style="stroke:#808080;stroke-width:8.64"/>
	<line x1="1587.22" y1="1696.79" x2="1600.58" y2="1696.79" style="stroke:#808080;stroke-width:8.64"/>
	<line x1="1600.58" y1="1696.79" x2="1600.58" y2="1695.68" style="stroke:#808080;stroke-width:8.64"/>
	<line x1="1600.58" y1="1695.68" x2="1618.40" y2="1695.68" style="stroke:#808080;stroke-width:8.64"/>
	<line x1="1618.40" y1="1695.68" x2="1618.40" y2="1694.44" style="stroke:#808080;stroke-width:8.64"/>
	<line x1="1618.40" y1="1694.44" x2="1625.21" y2="1694.44" style="stroke:#808080;stroke-width:8.64"/>
	<line x1="1641.30" y1="1693.32" x2="1654.04" y2="1693.32" style="stroke:#808080;stroke-width:8.64"/>
	<line x1="1654.04" y1="1693.32" x2="1654.04" y2="1692.21" style="stroke:#808080;stroke-width:8.64"/>
	<line x1="1654.04" y1="1692.21" x2="1671.86" y2="1692.21" style="stroke:#808080;stroke-width:8.64"/>
	<line x1="1671.86" y1="1692.21" x2="1671.86" y2="1691.10" style="stroke:#808080;stroke-width:8.64"/>
	<line x1="1671.86" y1="1691.10" x2="1679.41" y2="1691.10" style="stroke:#808080;stroke-width:8.64"/>
	<line x1="1695.38" y1="1689.86" x2="1707.63" y2="1689.86" style="stroke:#808080;stroke-width:8.64"/>
	<line x1="1707.63" y1="1689.86" x2="1707.63" y2="1688.62" style="stroke:#808080;stroke-width:8.64"/>
	<line x1="1707.63" y1="1688.62" x2="1725.45" y2="1688.62" style="stroke:#808080;stroke-width:8.64"/>
	<line x1="1725.45" y1="1688.62" x2="1725.45" y2="1687.38" style="stroke:#808080;stroke-width:8.64"/>
	<line x1="1725.45" y1="1687.38" x2="1733.37" y2="1687.38" style="stroke:#808080;stroke-width:8.64"/>
	<line x1="1749.33" y1="1686.15" x2="1761.09" y2="1686.15" style="stroke:#808080;stroke-width:8.64"/>
	<line x1="1761.09" y1="1686.15" x2="1761.09" y2="1684.91" style="stroke:#808080;stroke-width:8.64"/>
	<line x1="1761.09" y1="1684.91" x2="1778.91" y2="1684.91" style="stroke:#808080;stroke-width:8.64"/>
	<line x1="1778.91" y1="1684.91" x2="1778.91" y2="1683.67" style="stroke:#808080;stroke-width:8.64"/>
	<line x1="1778.91" y1="1683.67" x2="1787.20" y2="1683.67" style="stroke:#808080;stroke-width:8.64"/>
	<line x1="1803.04" y1="1682.31" x2="1814.67" y2="1682.31" style="stroke:#808080;stroke-width:8.64"/>
	<line x1="1814.67" y1="1682.31" x2="1814.67" y2="1681.07" style="stroke:#808080;stroke-width:8.64"/>
	<line x1="1814.67" y1="1681.07" x2="1832.49" y2="1681.07" style="stroke:#808080;stroke-width:8.64"/>
	<line x1="1832.49" y1="1681.07" x2="1832.49" y2="1679.83" style="stroke:#808080;stroke-width:8.64"/>
	<line x1="1832.49" y1="1679.83" x2="1840.90" y2="1679.83" style="stroke:#808080;stroke-width:8.64"/>
	<line x1="1856.87" y1="1678.47" x2="1868.13" y2="1678.47" style="stroke:#808080;stroke-width:8.64"/>
	<line x1="1868.13" y1="1678.47" x2="1868.13" y2="1677.11" style="stroke:#808080;stroke-width:8.64"/>
	<line x1="1868.13" y1="1677.11" x2="1886.07" y2="1677.11" style="stroke:#808080;stroke-width:8.64"/>
	<line x1="1886.07" y1="1677.11" x2="1886.07" y2="1675.75" style="stroke:#808080;stroke-width:8.64"/>
	<line x1="1886.07" y1="1675.75" x2="1894.37" y2="1675.75" style="stroke:#808080;stroke-width:8.64"/>
	<line x1="1910.33" y1="1674.39" x2="1921.71" y2="1674.39" style="stroke:#808080;stroke-width:8.64"/>
	<line x1="1921.71" y1="1674.39" x2="1921.71" y2="1673.03" style="stroke:#808080;stroke-width:8.64"/>
	<line x1="1921.71" y1="1673.03" x2="1939.53" y2="1673.03" style="stroke:#808080;stroke-width:8.64"/>
	<line x1="1939.53" y1="1673.03" x2="1939.53" y2="1671.54" style="stroke:#808080;stroke-width:8.64"/>
	<line x1="1939.53" y1="1671.54" x2="1947.83" y2="1671.54" style="stroke:#808080;stroke-width:8.64"/>
	<line x1="1963.54" y1="1670.06" x2="1975.17" y2="1670.06" style="stroke:#808080;stroke-width:8.64"/>
	<line x1="1975.17" y1="1670.06" x2="1975.17" y2="1668.57" style="stroke:#808080;stroke-width:8.64"/>
	<line x1="1975.17" y1="1668.57" x2="1993.12" y2="1668.57" style="stroke:#808080;stroke-width:8.64"/>
	<line x1="1993.12" y1="1668.57" x2="1993.12" y2="1667.09" style="stroke:#808080;stroke-width:8.64"/>
	<line x1="1993.12" y1="1667.09" x2="2000.91" y2="1667.09" style="stroke:#808080;stroke-width:8.64"/>
	<line x1="2016.51" y1="1665.48" x2="2028.76" y2="1665.48" style="stroke:#808080;stroke-width:8.64"/>
	<line x1="2028.76" y1="1665.48" x2="2028.76" y2="1663.99" style="stroke:#808080;stroke-width:8.64"/>
	<line x1="2028.76" y1="1663.99" x2="2046.58" y2="1663.99" style="stroke:#808080;stroke-width:8.64"/>
	<line x1="2046.58" y1="1663.99" x2="2046.58" y2="1662.51" style="stroke:#808080;stroke-width:8.64"/>
	<line x1="2046.58" y1="1662.51" x2="2053.88" y2="1662.51" style="stroke:#808080;stroke-width:8.64"/>
	<line x1="2069.47" y1="1660.90" x2="2082.34" y2="1660.90" style="stroke:#808080;stroke-width:8.64"/>
	<line x1="2082.34" y1="1660.90" x2="2082.34" y2="1659.42" style="stroke:#808080;stroke-width:8.64"/>
	<line x1="2082.34" y1="1659.42" x2="2100.16" y2="1659.42" style="stroke:#808080;stroke-width:8.64"/>
	<line x1="2100.16" y1="1659.42" x2="2100.16" y2="1658.05" style="stroke:#808080;stroke-width:8.64"/>
	<line x1="2100.16" y1="1658.05" x2="2106.97" y2="1658.05" style="stroke:#808080;stroke-width:8.64"/>
	<line x1="2122.68" y1="1656.57" x2="2135.80" y2="1656.57" style="stroke:#808080;stroke-width:8.64"/>
	<line x1="2135.80" y1="1656.57" x2="2135.80" y2="1655.08" style="stroke:#808080;stroke-width:8.64"/>
	<line x1="2135.80" y1="1655.08" x2="2153.62" y2="1655.08" style="stroke:#808080;stroke-width:8.64"/>
	<line x1="2153.62" y1="1655.08" x2="2153.62" y2="1653.60" style="stroke:#808080;stroke-width:8.64"/>
	<line x1="2153.62" y1="1653.60" x2="2160.06" y2="1653.60" style="stroke:#808080;stroke-width:8.64"/>
	<line x1="2176.02" y1="1652.24" x2="2189.39" y2="1652.24" style="stroke:#808080;stroke-width:8.64"/>
	<line x1="2189.39" y1="1652.24" x2="2189.39" y2="1650.75" style="stroke:#808080;stroke-width:8.64"/>
	<line x1="2189.39" y1="1650.75" x2="2207.20" y2="1650.75" style="stroke:#808080;stroke-width:8.64"/>
	<line x1="2207.20" y1="1650.75" x2="2207.20" y2="1649.27" style="stroke:#808080;stroke-width:8.64"/>
	<line x1="2207.20" y1="1649.27" x2="2213.39" y2="1649.27" style="stroke:#808080;stroke-width:8.64"/>
	<line x1="2229.11" y1="1647.78" x2="2242.84" y2="1647.78" style="stroke:#808080;stroke-width:8.64"/>
	<line x1="2242.84" y1="1647.78" x2="2242.84" y2="1646.30" style="stroke:#808080;stroke-width:8.64"/>
	<line x1="2242.84" y1="1646.30" x2="2260.66" y2="1646.30" style="stroke:#808080;stroke-width:8.64"/>
	<line x1="2260.66" y1="1646.30" x2="2260.66" y2="1644.81" style="stroke:#808080;stroke-width:8.64"/>
	<line x1="2260.66" y1="1644.81" x2="2266.48" y2="1644.81" style="stroke:#808080;stroke-width:8.64"/>
	<line x1="2282.20" y1="1643.33" x2="2296.43" y2="1643.33" style="stroke:#808080;stroke-width:8.64"/>
	<line x1="2296.43" y1="1643.33" x2="2296.43" y2="1641.84" style="stroke:#808080;stroke-width:8.64"/>
	<line x1="2296.43" y1="1641.84" x2="2314.25" y2="1641.84" style="stroke:#808080;stroke-width:8.64"/>
	<line x1="2314.25" y1="1641.84" x2="2314.25" y2="1640.36" style="stroke:#808080;stroke-width:8.64"/>
	<line x1="2314.25" y1="1640.36" x2="2319.57" y2="1640.36" style="stroke:#808080;stroke-width:8.64"/>
	<line x1="2335.41" y1="1638.87" x2="2349.89" y2="1638.87" style="stroke:#808080;stroke-width:8.64"/>
	<line x1="2349.89" y1="1638.87" x2="2349.89" y2="1637.39" style="stroke:#808080;stroke-width:8.64"/>
	<line x1="2349.89" y1="1637.39" x2="2367.83" y2="1637.39" style="stroke:#808080;stroke-width:8.64"/>
	<line x1="2367.83" y1="1637.39" x2="2367.83" y2="1636.03" style="stroke:#808080;stroke-width:8.64"/>
	<line x1="2367.83" y1="1636.03" x2="2372.78" y2="1636.03" style="stroke:#808080;stroke-width:8.64"/>
	<line x1="2388.50" y1="1634.54" x2="2403.47" y2="1634.54" style="stroke:#808080;stroke-width:8.64"/>
	<line x1="2403.47" y1="1634.54" x2="2403.47" y2="1633.18" style="stroke:#808080;stroke-width:8.64"/>
	<line x1="2403.47" y1="1633.18" x2="2421.29" y2="1633.18" style="stroke:#808080;stroke-width:8.64"/>
	<line x1="2421.29" y1="1633.18" x2="2421.29" y2="1631.69" style="stroke:#808080;stroke-width:8.64"/>
	<line x1="2421.29" y1="1631.69" x2="2426.12" y2="1631.69" style="stroke:#808080;stroke-width:8.64"/>
	<line x1="2441.96" y1="1630.33" x2="2456.93" y2="1630.33" style="stroke:#808080;stroke-width:8.64"/>
	<line x1="2456.93" y1="1630.33" x2="2456.93" y2="1628.85" style="stroke:#808080;stroke-width:8.64"/>
	<line x1="2456.93" y1="1628.85" x2="2474.88" y2="1628.85" style="stroke:#808080;stroke-width:8.64"/>
	<line x1="2474.88" y1="1628.85" x2="2474.88" y2="1627.36" style="stroke:#808080;stroke-width:8.64"/>
	<line x1="2474.88" y1="1627.36" x2="2479.33" y2="1627.36" style="stroke:#808080;stroke-width:8.64"/>
	<line x1="2495.05" y1="1625.88" x2="2510.52" y2="1625.88" style="stroke:#808080;stroke-width:8.64"/>
	<line x1="2510.52" y1="1625.88" x2="2510.52" y2="1624.39" style="stroke:#808080;stroke-width:8.64"/>
	<line x1="2510.52" y1="1624.39" x2="2528.34" y2="1624.39" style="stroke:#808080;stroke-width:8.64"/>
	<line x1="2528.34" y1="1624.39" x2="2528.34" y2="1622.91" style="stroke:#808080;stroke-width:8.64"/>
	<line x1="2528.34" y1="1622.91" x2="2532.42" y2="1622.91" style="stroke:#808080;stroke-width:8.64"/>
	<line x1="2548.14" y1="1621.42" x2="2564.10" y2="1621.42" style="stroke:#808080;stroke-width:8.64"/>
	<line x1="2564.10" y1="1621.42" x2="2564.10" y2="1619.94" style="stroke:#808080;stroke-width:8.64"/>
	<line x1="2564.10" y1="1619.94" x2="2581.92" y2="1619.94" style="stroke:#808080;stroke-width:8.64"/>
	<line x1="2581.92" y1="1619.94" x2="2581.92" y2="1618.45" style="stroke:#808080;stroke-width:8.64"/>
	<line x1="2581.92" y1="1618.45" x2="2585.51" y2="1618.45" style="stroke:#808080;stroke-width:8.64"/>
	<line x1="2601.47" y1="1617.09" x2="2617.56" y2="1617.09" style="stroke:#808080;stroke-width:8.64"/>
	<line x1="2617.56" y1="1617.09" x2="2617.56" y2="1615.61" style="stroke:#808080;stroke-width:8.64"/>
	<line x1="2617.56" y1="1615.61" x2="2635.38" y2="1615.61" style="stroke:#808080;stroke-width:8.64"/>
	<line x1="2635.38" y1="1615.61" x2="2635.38" y2="1614.12" style="stroke:#808080;stroke-width:8.64"/>
	<line x1="2635.38" y1="1614.12" x2="2638.72" y2="1614.12" style="stroke:#808080;stroke-width:8.64"/>
	<line x1="2654.68" y1="1612.76" x2="2671.14" y2="1612.76" style="stroke:#808080;stroke-width:8.64"/>
	<line x1="2671.14" y1="1612.76" x2="2671.14" y2="1611.40" style="stroke:#808080;stroke-width:8.64"/>
	<line x1="2671.14" y1="1611.40" x2="2688.96" y2="1611.40" style="stroke:#808080;stroke-width:8.64"/>
	<line x1="2688.96" y1="1611.40" x2="2688.96" y2="1610.04" style="stroke:#808080;stroke-width:8.64"/>
	<line x1="2688.96" y1="1610.04" x2="2692.30" y2="1610.04" style="stroke:#808080;stroke-width:8.64"/>
	<line x1="2708.14" y1="1608.68" x2="2724.60" y2="1608.68" style="stroke:#808080;stroke-width:8.64"/>
	<line x1="2724.60" y1="1608.68" x2="2724.60" y2="1607.32" style="stroke:#808080;stroke-width:8.64"/>
	<line x1="2724.60" y1="1607.32" x2="2742.42" y2="1607.32" style="stroke:#808080;stroke-width:8.64"/>
	<line x1="2742.42" y1="1607.32" x2="2742.42" y2="1605.95" style="stroke:#808080;stroke-width:8.64"/>
	<line x1="2742.42" y1="1605.95" x2="2745.76" y2="1605.95" style="stroke:#808080;stroke-width:8.64"/>
	<line x1="2761.61" y1="1604.59" x2="2778.19" y2="1604.59" style="stroke:#808080;stroke-width:8.64"/>
	<line x1="2778.19" y1="1604.59" x2="2778.19" y2="1603.23" style="stroke:#808080;stroke-width:8.64"/>
	<line x1="2778.19" y1="1603.23" x2="2796.01" y2="1603.23" style="stroke:#808080;stroke-width:8.64"/>
	<line x1="2796.01" y1="1603.23" x2="2796.01" y2="1601.87" style="stroke:#808080;stroke-width:8.64"/>
	<line x1="2796.01" y1="1601.87" x2="2799.22" y2="1601.87" style="stroke:#808080;stroke-width:8.64"/>
	<line x1="2815.19" y1="1600.51" x2="2831.65" y2="1600.51" style="stroke:#808080;stroke-width:8.64"/>
	<line x1="2831.65" y1="1600.51" x2="2831.65" y2="1599.15" style="stroke:#808080;stroke-width:8.64"/>
	<line x1="2831.65" y1="1599.15" x2="2849.59" y2="1599.15" style="stroke:#808080;stroke-width:8.64"/>
	<line x1="2849.59" y1="1599.15" x2="2849.59" y2="1597.66" style="stroke:#808080;stroke-width:8.64"/>
	<line x1="2849.59" y1="1597.66" x2="2852.56" y2="1597.66" style="stroke:#808080;stroke-width:8.64"/>
	<line x1="2868.53" y1="1596.30" x2="2885.23" y2="1596.30" style="stroke:#808080;stroke-width:8.64"/>
	<line x1="2885.23" y1="1596.30" x2="2885.23" y2="1594.94" style="stroke:#808080;stroke-width:8.64"/>
	<line x1="2885.23" y1="1594.94" x2="2903.05" y2="1594.94" style="stroke:#808080;stroke-width:8.64"/>
	<line x1="2903.05" y1="1594.94" x2="2903.05" y2="1593.58" style="stroke:#808080;stroke-width:8.64"/>
	<line x1="2903.05" y1="1593.58" x2="2906.14" y2="1593.58" style="stroke:#808080;stroke-width:8.64"/>
	<line x1="2921.99" y1="1592.22" x2="2938.69" y2="1592.22" style="stroke:#808080;stroke-width:8.64"/>
	<line x1="2938.69" y1="1592.22" x2="2938.69" y2="1590.86" style="stroke:#808080;stroke-width:8.64"/>
	<line x1="2938.69" y1="1590.86" x2="2956.64" y2="1590.86" style="stroke:#808080;stroke-width:8.64"/>
	<line x1="2956.64" y1="1590.86" x2="2956.64" y2="1589.37" style="stroke:#808080;stroke-width:8.64"/>
	<line x1="2956.64" y1="1589.37" x2="2959.48" y2="1589.37" style="stroke:#808080;stroke-width:8.64"/>
	<line x1="2975.32" y1="1588.01" x2="2992.28" y2="1588.01" style="stroke:#808080;stroke-width:8.64"/>
	<line x1="2992.28" y1="1588.01" x2="2992.28" y2="1586.52" style="stroke:#808080;stroke-width:8.64"/>
	<line x1="2992.28" y1="1586.52" x2="3010.09" y2="1586.52" style="stroke:#808080;stroke-width:8.64"/>
	<line x1="3010.09" y1="1586.52" x2="3010.09" y2="1585.04" style="stroke:#808080;stroke-width:8.64"/>
	<line x1="3010.09" y1="1585.04" x2="3012.69" y2="1585.04" style="stroke:#808080;stroke-width:8.64"/>
	<line x1="3028.53" y1="1583.55" x2="3045.86" y2="1583.55" style="stroke:#808080;stroke-width:8.64"/>
	<line x1="3045.86" y1="1583.55" x2="3045.86" y2="1581.95" style="stroke:#808080;stroke-width:8.64"/>
	<line x1="3045.86" y1="1581.95" x2="3063.68" y2="1581.95" style="stroke:#808080;stroke-width:8.64"/>
	<line x1="3063.68" y1="1581.95" x2="3063.68" y2="1580.46" style="stroke:#808080;stroke-width:8.64"/>
	<line x1="3063.68" y1="1580.46" x2="3065.66" y2="1580.46" style="stroke:#808080;stroke-width:8.64"/>
	<line x1="3081.50" y1="1578.98" x2="3081.50" y2="1578.98" style="stroke:#808080;stroke-width:8.64"/>
	<line x1="3081.50" y1="1578.98" x2="3099.32" y2="1578.98" style="stroke:#808080;stroke-width:8.64"/>
	<line x1="3099.32" y1="1578.98" x2="3099.32" y2="1577.49" style="stroke:#808080;stroke-width:8.64"/>
	<line x1="3099.32" y1="1577.49" x2="3117.14" y2="1577.49" style="stroke:#808080;stroke-width:8.64"/>
	<line x1="3117.14" y1="1577.49" x2="3117.14" y2="1575.88" style="stroke:#808080;stroke-width:8.64"/>
	<line x1="3117.14" y1="1575.88" x2="3118.75" y2="1575.88" style="stroke:#808080;stroke-width:8.64"/>
	<line x1="3134.96" y1="1574.89" x2="3134.96" y2="1574.40" style="stroke:#808080;stroke-width:8.64"/>
	<line x1="3134.96" y1="1574.40" x2="3152.90" y2="1574.40" style="stroke:#808080;stroke-width:8.64"/>
	<line x1="3152.90" y1="1574.40" x2="3152.90" y2="1572.91" style="stroke:#808080;stroke-width:8.64"/>
	<line x1="3152.90" y1="1572.91" x2="3170.72" y2="1572.91" style="stroke:#808080;stroke-width:8.64"/>
	<line x1="3170.72" y1="1572.91" x2="3170.72" y2="1571.30" style="stroke:#808080;stroke-width:8.64"/>
	<line x1="3170.72" y1="1571.30" x2="3171.71" y2="1571.30" style="stroke:#808080;stroke-width:8.64"/>
	<line x1="3188.54" y1="1570.93" x2="3188.54" y2="1569.82" style="stroke:#808080;stroke-width:8.64"/>
	<line x1="3188.54" y1="1569.82" x2="3206.36" y2="1569.82" style="stroke:#808080;stroke-width:8.64"/>
	<line x1="3206.36" y1="1569.82" x2="3206.36" y2="1568.33" style="stroke:#808080;stroke-width:8.64"/>
	<line x1="3206.36" y1="1568.33" x2="3224.18" y2="1568.33" style="stroke:#808080;stroke-width:8.64"/>
	<line x1="3224.18" y1="1568.33" x2="3224.18" y2="1566.72" style="stroke:#808080;stroke-width:8.64"/>
	<line x1="3224.18" y1="1566.72" x2="3224.68" y2="1566.72" style="stroke:#808080;stroke-width:8.64"/>
	<line x1="3241.88" y1="1566.72" x2="3242.13" y2="1566.72" style="stroke:#808080;stroke-width:8.64"/>
	<line x1="3242.13" y1="1566.72" x2="3242.13" y2="1565.24" style="stroke:#808080;stroke-width:8.64"/>
	<line x1="3242.13" y1="1565.24" x2="3259.95" y2="1565.24" style="stroke:#808080;stroke-width:8.64"/>
	<line x1="3259.95" y1="1565.24" x2="3259.95" y2="1563.75" style="stroke:#808080;stroke-width:8.64"/>
	<line x1="3259.95" y1="1563.75" x2="3277.77" y2="1563.75" style="stroke:#808080;stroke-width:8.64"/>
	<line x1="3277.77" y1="1563.75" x2="3277.77" y2="1562.27" style="stroke:#808080;stroke-width:8.64"/>
	<line x1="3294.97" y1="1562.27" x2="3295.59" y2="1562.27" style="stroke:#808080;stroke-width:8.64"/>
	<line x1="3295.59" y1="1562.27" x2="3295.59" y2="1560.78" style="stroke:#808080;stroke-width:8.64"/>
	<line x1="3295.59" y1="1560.78" x2="3313.41" y2="1560.78" style="stroke:#808080;stroke-width:8.64"/>
	<line x1="3313.41" y1="1560.78" x2="3313.41" y2="1559.17" style="stroke:#808080;stroke-width:8.64"/>
	<line x1="3313.41" y1="1559.17" x2="3331.23" y2="1559.17" style="stroke:#808080;stroke-width:8.64"/>
	<line x1="3331.23" y1="1559.17" x2="3331.23" y2="1558.06" style="stroke:#808080;stroke-width:8.64"/>
	<line x1="3348.06" y1="1557.69" x2="3349.17" y2="1557.69" style="stroke:#808080;stroke-width:8.64"/>
	<line x1="3349.17" y1="1557.69" x2="3349.17" y2="1556.20" style="stroke:#808080;stroke-width:8.64"/>
	<line x1="3349.17" y1="1556.20" x2="3366.99" y2="1556.20" style="stroke:#808080;stroke-width:8.64"/>
	<line x1="3366.99" y1="1556.20" x2="3366.99" y2="1554.60" style="stroke:#808080;stroke-width:8.64"/>
	<line x1="3366.99" y1="1554.60" x2="3384.81" y2="1554.60" style="stroke:#808080;stroke-width:8.64"/>
	<line x1="3384.81" y1="1554.60" x2="3384.81" y2="1554.10" style="stroke:#808080;stroke-width:8.64"/>
	<line x1="3401.02" y1="1553.11" x2="3402.63" y2="1553.11" style="stroke:#808080;stroke-width:8.64"/>
	<line x1="3402.63" y1="1553.11" x2="3402.63" y2="1551.63" style="stroke:#808080;stroke-width:8.64"/>
	<line x1="3402.63" y1="1551.63" x2="3420.45" y2="1551.63" style="stroke:#808080;stroke-width:8.64"/>
	<line x1="3420.45" y1="1551.63" x2="3420.45" y2="1550.02" style="stroke:#808080;stroke-width:8.64"/>
	<line x1="3420.45" y1="1550.02" x2="3438.27" y2="1550.02" style="stroke:#808080;stroke-width:8.64"/>
	<line x1="3453.99" y1="1548.53" x2="3456.21" y2="1548.53" style="stroke:#808080;stroke-width:8.64"/>
	<line x1="3456.21" y1="1548.53" x2="3456.21" y2="1547.05" style="stroke:#808080;stroke-width:8.64"/>
	<line x1="3456.21" y1="1547.05" x2="3474.03" y2="1547.05" style="stroke:#808080;stroke-width:8.64"/>
	<line x1="3474.03" y1="1547.05" x2="3474.03" y2="1545.56" style="stroke:#808080;stroke-width:8.64"/>
	<line x1="3474.03" y1="1545.56" x2="3491.36" y2="1545.56" style="stroke:#808080;stroke-width:8.64"/>
	<line x1="3507.07" y1="1543.95" x2="3509.67" y2="1543.95" style="stroke:#808080;stroke-width:8.64"/>
	<line x1="3509.67" y1="1543.95" x2="3509.67" y2="1542.47" style="stroke:#808080;stroke-width:8.64"/>
	<line x1="3509.67" y1="1542.47" x2="3527.62" y2="1542.47" style="stroke:#808080;stroke-width:8.64"/>
	<line x1="3527.62" y1="1542.47" x2="3527.62" y2="1540.98" style="stroke:#808080;stroke-width:8.64"/>
	<line x1="3527.62" y1="1540.98" x2="3544.32" y2="1540.98" style="stroke:#808080;stroke-width:8.64"/>
	<line x1="3560.04" y1="1539.50" x2="3563.26" y2="1539.50" style="stroke:#808080;stroke-width:8.64"/>
	<line x1="3563.26" y1="1539.50" x2="3563.26" y2="1538.01" style="stroke:#808080;stroke-width:8.64"/>
	<line x1="3563.26" y1="1538.01" x2="3581.08" y2="1538.01" style="stroke:#808080;stroke-width:8.64"/>
	<line x1="3581.08" y1="1538.01" x2="3581.08" y2="1536.65" style="stroke:#808080;stroke-width:8.64"/>
	<line x1="3581.08" y1="1536.65" x2="3597.66" y2="1536.65" style="stroke:#808080;stroke-width:8.64"/>
	<line x1="3613.38" y1="1535.17" x2="3616.72" y2="1535.17" style="stroke:#808080;stroke-width:8.64"/>
	<line x1="3616.72" y1="1535.17" x2="3616.72" y2="1533.68" style="stroke:#808080;stroke-width:8.64"/>
	<line x1="3616.72" y1="1533.68" x2="3634.66" y2="1533.68" style="stroke:#808080;stroke-width:8.64"/>
	<line x1="3634.66" y1="1533.68" x2="3634.66" y2="1532.07" style="stroke:#808080;stroke-width:8.64"/>
	<line x1="3634.66" y1="1532.07" x2="3650.63" y2="1532.07" style="stroke:#808080;stroke-width:8.64"/>
	<line x1="3666.34" y1="1530.59" x2="3670.30" y2="1530.59" style="stroke:#808080;stroke-width:8.64"/>
	<line x1="3670.30" y1="1530.59" x2="3670.30" y2="1529.23" style="stroke:#808080;stroke-width:8.64"/>
	<line x1="3670.30" y1="1529.23" x2="3688.12" y2="1529.23" style="stroke:#808080;stroke-width:8.64"/>
	<line x1="3688.12" y1="1529.23" x2="3688.12" y2="1527.74" style="stroke:#808080;stroke-width:8.64"/>
	<line x1="3688.12" y1="1527.74" x2="3703.84" y2="1527.74" style="stroke:#808080;stroke-width:8.64"/>
	<line x1="3719.55" y1="1526.26" x2="3723.89" y2="1526.26" style="stroke:#808080;stroke-width:8.64"/>
	<line x1="3723.89" y1="1526.26" x2="3723.89" y2="1524.77" style="stroke:#808080;stroke-width:8.64"/>
	<line x1="3723.89" y1="1524.77" x2="3741.70" y2="1524.77" style="stroke:#808080;stroke-width:8.64"/>
	<line x1="3741.70" y1="1524.77" x2="3741.70" y2="1523.29" style="stroke:#808080;stroke-width:8.64"/>
	<line x1="3741.70" y1="1523.29" x2="3756.93" y2="1523.29" style="stroke:#808080;stroke-width:8.64"/>
	<line x1="3772.77" y1="1521.80" x2="3777.34" y2="1521.80" style="stroke:#808080;stroke-width:8.64"/>
	<line x1="3777.34" y1="1521.80" x2="3777.34" y2="1520.32" style="stroke:#808080;stroke-width:8.64"/>
	<line x1="3777.34" y1="1520.32" x2="3795.16" y2="1520.32" style="stroke:#808080;stroke-width:8.64"/>
	<line x1="3795.16" y1="1520.32" x2="3795.16" y2="1518.83" style="stroke:#808080;stroke-width:8.64"/>
	<path d="" stroke-linejoin="round" style="fill:none;stroke:#808080;stroke-width:8.64"/>
	<path d=" M601.30 1746.54 L619.25 1746.54 L619.25 1746.17 L637.07 1746.17 L637.07 1745.67 L654.88 1745.67 L654.88 1745.30 L672.71 1745.30 L672.71 1744.93 L690.52 1744.93 L690.52 1744.43 L708.35 1744.43 L708.35 1743.94 L726.29 1743.94 L726.29 1743.57 L744.11 1743.57 L744.11 1743.07 L761.93 1743.07 L761.93 1742.58 L779.75 1742.58 L779.75 1742.08 L797.57 1742.08 L797.57 1741.59 L815.51 1741.59 L815.51 1740.97 L833.33 1740.97 L833.33 1740.35 L851.15 1740.35 L851.15 1739.86 L868.97 1739.86 L868.97 1739.24 L886.79 1739.24 L886.79 1738.62 L904.61 1738.62 L904.61 1738.00 L922.56 1738.00 L922.56 1737.38 L940.38 1737.38 L940.38 1736.76 L958.20 1736.76 L958.20 1736.14 L976.02 1736.14 L976.02 1735.52 L993.84 1735.52 L993.84 1735.03 L1011.78 1735.03 L1011.78 1734.41 L1029.60 1734.41 L1029.60 1733.79 L1047.42 1733.79 L1047.42 1733.05 L1065.24 1733.05 L1065.24 1732.43 L1083.06 1732.43 L1083.06 1731.56 L1100.88 1731.56 L1100.88 1730.82 L1118.82 1730.82 L1118.82 1729.96 L1136.64 1729.96 L1136.64 1728.97 L1154.46 1728.97 L1154.46 1728.10 L1172.28 1728.10 L1172.28 1727.11 L1190.10 1727.11 L1190.10 1726.24 L1208.05 1726.24 L1208.05 1725.25 L1225.87 1725.25 L1225.87 1724.26 L1243.69 1724.26 L1243.69 1723.27 L1261.51 1723.27 L1261.51 1722.16 L1279.33 1722.16 L1279.33 1721.17 L1297.27 1721.17 L1297.27 1720.18 L1315.09 1720.18 L1315.09 1719.06 L1332.91 1719.06 L1332.91 1718.07 L1350.73 1718.07 L1350.73 1716.96 L1368.55 1716.96 L1368.55 1715.97 L1386.37 1715.97 L1386.37 1714.98 L1404.32 1714.98 L1404.32 1713.99 L1422.13 1713.99 L1422.13 1712.88 L1439.95 1712.88 L1439.95 1711.89 L1457.78 1711.89 L1457.78 1710.90 L1475.60 1710.90 L1475.60 1709.78 L1493.54 1709.78 L1493.54 1708.67 L1511.36 1708.67 L1511.36 1707.56 L1529.18 1707.56 L1529.18 1706.44 L1547.00 1706.44 L1547.00 1705.20 L1564.82 1705.20 L1564.82 1704.09 L1582.64 1704.09 L1582.64 1702.85 L1600.58 1702.85 L1600.58 1701.62 L1618.40 1701.62 L1618.40 1700.38 L1636.22 1700.38 L1636.22 1699.02 L1654.04 1699.02 L1654.04 1697.78 L1671.86 1697.78 L1671.86 1696.42 L1689.81 1696.42 L1689.81 1695.06 L1707.63 1695.06 L1707.63 1693.70 L1725.45 1693.70 L1725.45 1692.21 L1743.27 1692.21 L1743.27 1690.85 L1761.09 1690.85 L1761.09 1689.36 L1778.91 1689.36 L1778.91 1688.00 L1796.85 1688.00 L1796.85 1686.64 L1814.67 1686.64 L1814.67 1685.40 L1832.49 1685.40 L1832.49 1684.04 L1850.31 1684.04 L1850.31 1682.68 L1868.13 1682.68 L1868.13 1681.44 L1886.07 1681.44 L1886.07 1680.08 L1903.89 1680.08 L1903.89 1678.84 L1921.71 1678.84 L1921.71 1677.48 L1939.53 1677.48 L1939.53 1676.12 L1957.35 1676.12 L1957.35 1674.88 L1975.17 1674.88 L1975.17 1673.52 L1993.12 1673.52 L1993.12 1672.16 L2010.94 1672.16 L2010.94 1670.80 L2028.76 1670.80 L2028.76 1669.56 L2046.58 1669.56 L2046.58 1668.33 L2064.40 1668.33 L2064.40 1667.09 L2082.34 1667.09 L2082.34 1665.85 L2100.16 1665.85 L2100.16 1664.49 L2117.98 1664.49 L2117.98 1663.25 L2135.80 1663.25 L2135.80 1661.89 L2153.62 1661.89 L2153.62 1660.53 L2171.57 1660.53 L2171.57 1659.17 L2189.39 1659.17 L2189.39 1657.81 L2207.20 1657.81 L2207.20 1656.45 L2225.03 1656.45 L2225.03 1655.08 L2242.84 1655.08 L2242.84 1653.72 L2260.66 1653.72 L2260.66 1652.24 L2278.61 1652.24 L2278.61 1650.88 L2296.43 1650.88 L2296.43 1649.64 L2314.25 1649.64 L2314.25 1648.28 L2332.07 1648.28 L2332.07 1646.92 L2349.89 1646.92 L2349.89 1645.56 L2367.83 1645.56 L2367.83 1644.19 L2385.65 1644.19 L2385.65 1642.83 L2403.47 1642.83 L2403.47 1641.47 L2421.29 1641.47 L2421.29 1640.11 L2439.11 1640.11 L2439.11 1638.75 L2456.93 1638.75 L2456.93 1637.26 L2474.88 1637.26 L2474.88 1635.90 L2492.70 1635.90 L2492.70 1634.42 L2510.52 1634.42 L2510.52 1633.06 L2528.34 1633.06 L2528.34 1631.69 L2546.16 1631.69 L2546.16 1630.21 L2564.10 1630.21 L2564.10 1628.72 L2581.92 1628.72 L2581.92 1627.24 L2599.74 1627.24 L2599.74 1625.75 L2617.56 1625.75 L2617.56 1624.39 L2635.38 1624.39 L2635.38 1622.91 L2653.20 1622.91 L2653.20 1621.42 L2671.14 1621.42 L2671.14 1619.94 L2688.96 1619.94 L2688.96 1618.58 L2706.78 1618.58 L2706.78 1617.09 L2724.60 1617.09 L2724.60 1615.73 L2742.42 1615.73 L2742.42 1614.25 L2760.37 1614.25 L2760.37 1612.88 L2778.19 1612.88 L2778.19 1611.52 L2796.01 1611.52 L2796.01 1610.04 L2813.83 1610.04 L2813.83 1608.68 L2831.65 1608.68 L2831.65 1607.19 L2849.59 1607.19 L2849.59 1605.83 L2867.41 1605.83 L2867.41 1604.35 L2885.23 1604.35 L2885.23 1602.98 L2903.05 1602.98 L2903.05 1601.50 L2920.87 1601.50 L2920.87 1600.14 L2938.69 1600.14 L2938.69 1598.65 L2956.64 1598.65 L2956.64 1597.29 L2974.45 1597.29 L2974.45 1595.93 L2992.28 1595.93 L2992.28 1594.57 L3010.09 1594.57 L3010.09 1593.08 L3027.91 1593.08 L3027.91 1591.72 L3045.86 1591.72 L3045.86 1590.36 L3063.68 1590.36 L3063.68 1588.88 L3081.50 1588.88 L3081.50 1587.51 L3099.32 1587.51 L3099.32 1586.03 L3117.14 1586.03 L3117.14 1584.54 L3134.96 1584.54 L3134.96 1583.18 L3152.90 1583.18 L3152.90 1581.82 L3170.72 1581.82 L3170.72 1580.34 L3188.54 1580.34 L3188.54 1578.98 L3206.36 1578.98 L3206.36 1577.61 L3224.18 1577.61 L3224.18 1576.25 L3242.13 1576.25 L3242.13 1574.89 L3259.95 1574.89 L3259.95 1573.53 L3277.77 1573.53 L3277.77 1572.17 L3295.59 1572.17 L3295.59 1570.93 L3313.41 1570.93 L3313.41 1569.57 L3331.23 1569.57 L3331.23 1568.21 L3349.17 1568.21 L3349.17 1566.97 L3366.99 1566.97 L3366.99 1565.61 L3384.81 1565.61 L3384.81 1564.37 L3402.63 1564.37 L3402.63 1563.01 L3420.45 1563.01 L3420.45 1561.77 L3438.39 1561.77 L3438.39 1560.41 L3456.21 1560.41 L3456.21 1559.05 L3474.03 1559.05 L3474.03 1557.69 L3491.85 1557.69 L3491.85 1556.33 L3509.67 1556.33 L3509.67 1554.97 L3527.62 1554.97 L3527.62 1553.61 L3545.44 1553.61 L3545.44 1552.24 L3563.26 1552.24 L3563.26 1551.01 L3581.08 1551.01 L3581.08 1549.65 L3598.90 1549.65 L3598.90 1548.41 L3616.72 1548.41 L3616.72 1547.05 L3634.66 1547.05 L3634.66 1545.69 L3652.48 1545.69 L3652.48 1544.32 L3670.30 1544.32 L3670.30 1543.09 L3688.12 1543.09 L3688.12 1541.73 L3705.94 1541.73 L3705.94 1540.36 L3723.89 1540.36 L3723.89 1539.13 L3741.70 1539.13 L3741.70 1537.77 L3759.53 1537.77 L3759.53 1536.53 L3777.34 1536.53 L3777.34 1535.29 L3795.16 1535.29 L3795.16 1534.05" stroke-linejoin="round" style="fill:none;stroke:#000000;stroke-width:8.64"/>
	<line x1="372.49" y1="2509.23" x2="372.49" y2="419.90" style="stroke:#000000;stroke-width:5.76"/>
	<line x1="372.49" y1="2380.65" x2="332.52" y2="2380.65" style="stroke:#000000;stroke-width:5.76"/>
	<text x="282.41" y="2380.65" style="font-family:'Helvetica';font-size:99.99px;fill:#000000" transform="rotate(-90 282.41,2380.65)" text-anchor="middle">-50</text>
	<line x1="372.49" y1="1748.27" x2="332.52" y2="1748.27" style="stroke:#000000;stroke-width:5.76"/>
	<text x="282.41" y="1748.27" style="font-family:'Helvetica';font-size:99.99px;fill:#000000" transform="rotate(-90 282.41,1748.27)" text-anchor="middle">0</text>
	<line x1="372.49" y1="1115.76" x2="332.52" y2="1115.76" style="stroke:#000000;stroke-width:5.76"/>
	<text x="282.41" y="1115.76" style="font-family:'Helvetica';font-size:99.99px;fill:#000000" transform="rotate(-90 282.41,1115.76)" text-anchor="middle">50</text>
	<line x1="372.49" y1="483.26" x2="332.52" y2="483.26" style="stroke:#000000;stroke-width:5.76"/>
	<text x="282.41" y="483.26" style="font-family:'Helvetica';font-size:99.99px;fill:#000000" transform="rotate(-90 282.41,483.26)" text-anchor="middle">100</text>
	<text x="190.71" y="1464.63" style="font-family:'Helvetica';font-size:99.99px;fill:#000000" transform="rotate(-90 190.71,1464.63)" text-anchor="middle">Difference in Lengths</text>
	<line x1="372.49" y1="2509.23" x2="3859.02" y2="2509.23" style="stroke:#000000;stroke-width:5.76"/>
	<line x1="435.85" y1="2509.23" x2="435.85" y2="2549.21" style="stroke:#000000;stroke-width:5.76"/>
	<text x="435.85" y="2625.15" style="font-family:'Helvetica';font-size:79.94px;fill:#000000" text-anchor="middle">0</text>
	<line x1="637.44" y1="2509.23" x2="637.44" y2="2549.21" style="stroke:#000000;stroke-width:5.76"/>
	<text x="637.44" y="2625.15" style="font-family:'Helvetica';font-size:79.94px;fill:#000000" text-anchor="middle">.3</text>
	<line x1="839.02" y1="2509.23" x2="839.02" y2="2549.21" style="stroke:#000000;stroke-width:5.76"/>
	<text x="839.02" y="2625.15" style="font-family:'Helvetica';font-size:79.94px;fill:#000000" text-anchor="middle">.6</text>
	<line x1="1040.61" y1="2509.23" x2="1040.61" y2="2549.21" style="stroke:#000000;stroke-width:5.76"/>
	<text x="1040.61" y="2625.15" style="font-family:'Helvetica';font-size:79.94px;fill:#000000" text-anchor="middle">.9</text>
	<line x1="1242.20" y1="2509.23" x2="1242.20" y2="2549.21" style="stroke:#000000;stroke-width:5.76"/>
	<text x="1242.20" y="2625.15" style="font-family:'Helvetica';font-size:79.94px;fill:#000000" text-anchor="middle">1.2</text>
	<line x1="1443.79" y1="2509.23" x2="1443.79" y2="2549.21" style="stroke:#000000;stroke-width:5.76"/>
	<text x="1443.79" y="2625.15" style="font-family:'Helvetica';font-size:79.94px;fill:#000000" text-anchor="middle">1.5</text>
	<line x1="1645.38" y1="2509.23" x2="1645.38" y2="2549.21" style="stroke:#000000;stroke-width:5.76"/>
	<text x="1645.38" y="2625.15" style="font-family:'Helvetica';font-size:79.94px;fill:#000000" text-anchor="middle">1.8</text>
	<line x1="1846.97" y1="2509.23" x2="1846.97" y2="2549.21" style="stroke:#000000;stroke-width:5.76"/>
	<text x="1846.97" y="2625.15" style="font-family:'Helvetica';font-size:79.94px;fill:#000000" text-anchor="middle">2.1</text>
	<line x1="2048.56" y1="2509.23" x2="2048.56" y2="2549.21" style="stroke:#000000;stroke-width:5.76"/>
	<text x="2048.56" y="2625.15" style="font-family:'Helvetica';font-size:79.94px;fill:#000000" text-anchor="middle">2.4</text>
	<line x1="2250.15" y1="2509.23" x2="2250.15" y2="2549.21" style="stroke:#000000;stroke-width:5.76"/>
	<text x="2250.15" y="2625.15" style="font-family:'Helvetica';font-size:79.94px;fill:#000000" text-anchor="middle">2.7</text>
	<line x1="2451.74" y1="2509.23" x2="2451.74" y2="2549.21" style="stroke:#000000;stroke-width:5.76"/>
	<text x="2451.74" y="2625.15" style="font-family:'Helvetica';font-size:79.94px;fill:#000000" text-anchor="middle">3</text>
	<line x1="2653.32" y1="2509.23" x2="2653.32" y2="2549.21" style="stroke:#000000;stroke-width:5.76"/>
	<text x="2653.32" y="2625.15" style="font-family:'Helvetica';font-size:79.94px;fill:#000000" text-anchor="middle">3.3</text>
	<line x1="2854.91" y1="2509.23" x2="2854.91" y2="2549.21" style="stroke:#000000;stroke-width:5.76"/>
	<text x="2854.91" y="2625.15" style="font-family:'Helvetica';font-size:79.94px;fill:#000000" text-anchor="middle">3.6</text>
	<line x1="3056.50" y1="2509.23" x2="3056.50" y2="2549.21" style="stroke:#000000;stroke-width:5.76"/>
	<text x="3056.50" y="2625.15" style="font-family:'Helvetica';font-size:79.94px;fill:#000000" text-anchor="middle">3.9</text>
	<line x1="3258.09" y1="2509.23" x2="3258.09" y2="2549.21" style="stroke:#000000;stroke-width:5.76"/>
	<text x="3258.09" y="2625.15" style="font-family:'Helvetica';font-size:79.94px;fill:#000000" text-anchor="middle">4.2</text>
	<line x1="3459.68" y1="2509.23" x2="3459.68" y2="2549.21" style="stroke:#000000;stroke-width:5.76"/>
	<text x="3459.68" y="2625.15" style="font-family:'Helvetica';font-size:79.94px;fill:#000000" text-anchor="middle">4.5</text>
	<line x1="3661.27" y1="2509.23" x2="3661.27" y2="2549.21" style="stroke:#000000;stroke-width:5.76"/>
	<text x="3661.27" y="2625.15" style="font-family:'Helvetica';font-size:79.94px;fill:#000000" text-anchor="middle">4.8</text>
	<line x1="3862.98" y1="2509.23" x2="3862.98" y2="2549.21" style="stroke:#000000;stroke-width:5.76"/>
	<text x="3862.98" y="2625.15" style="font-family:'Helvetica';font-size:79.94px;fill:#000000" text-anchor="middle">5.1</text>
	<text x="2115.75" y="2729.16" style="font-family:'Helvetica';font-size:99.99px;fill:#000000" text-anchor="middle">Time (years)</text>
	<rect x="407.01" y="454.42" width="2369.69" height="326.46" style="fill:#FFFFFF"/>
	<rect x="409.89" y="457.30" width="2363.93" height="320.70" style="fill:none;stroke:#000000;stroke-width:5.76"/>
	<rect x="450.20" y="497.74" width="374.47" height="99.99" style="fill:#999999;fill-opacity:0.65"/>
	<rect x="454.52" y="502.06" width="365.83" height="91.35" style="fill:none;stroke:#808080;stroke-opacity:0.65;stroke-width:8.64"/>
	<line x1="1581.65" y1="547.73" x2="1621.99" y2="547.73" style="stroke:#808080;stroke-width:8.64"/>
	<line x1="1639.19" y1="547.73" x2="1679.54" y2="547.73" style="stroke:#808080;stroke-width:8.64"/>
	<line x1="1696.74" y1="547.73" x2="1737.08" y2="547.73" style="stroke:#808080;stroke-width:8.64"/>
	<line x1="1754.28" y1="547.73" x2="1794.62" y2="547.73" style="stroke:#808080;stroke-width:8.64"/>
	<line x1="1811.95" y1="547.73" x2="1852.29" y2="547.73" style="stroke:#808080;stroke-width:8.64"/>
	<line x1="1869.49" y1="547.73" x2="1909.83" y2="547.73" style="stroke:#808080;stroke-width:8.64"/>
	<line x1="1927.04" y1="547.73" x2="1955.99" y2="547.73" style="stroke:#808080;stroke-width:8.64"/>
	<rect x="450.20" y="637.70" width="374.47" height="99.99" style="fill:#595959;fill-opacity:0.65"/>
	<rect x="454.52" y="642.02" width="365.83" height="91.35" style="fill:none;stroke:#303030;stroke-opacity:0.65;stroke-width:8.64"/>
	<line x1="1581.65" y1="687.70" x2="1955.99" y2="687.70" style="stroke:#000000;stroke-width:8.64"/>
	<text x="884.57" y="582.76" style="font-family:'Helvetica';font-size:99.99px;fill:#000000">CI95% Amb</text>
	<text x="2016.01" y="582.76" style="font-family:'Helvetica';font-size:99.99px;fill:#000000">Difference Amb</text>
	<text x="884.57" y="722.73" style="font-family:'Helvetica';font-size:99.99px;fill:#000000">CI95% Res</text>
	<text x="2016.01" y="722.73" style="font-family:'Helvetica';font-size:99.99px;fill:#000000">Difference Res</text>
	<text x="2115.75" y="369.63" style="fill:#000000" text-anchor="middle">
		<tspan style="font-family:'Helvetica';font-size:110.01px">from 2</tspan>
		<tspan dy="-57.63px" style="font-family:'Helvetica';font-size:64.14px">nd</tspan>
		<tspan dy="57.63px" style="font-family:'Helvetica';font-size:110.01px">Readmission</tspan>
	</text>
	<text x="2115.75" y="215.98" style="font-family:'Helvetica';font-size:139.96px;fill:#1E2D53" text-anchor="middle">Difference in Lengths of Stay (Comp. vs. No-Comp.) 3yrs</text>
</svg>
