<?xml version="1.0" encoding="UTF-8" standalone="no"?>
<!-- This is a Stata 16.1 generated SVG file (http://www.stata.com) -->

<svg version="1.1" width="5.50in" height="4.00in" viewBox="0 0 3960 2880" xmlns="http://www.w3.org/2000/svg" xmlns:xlink="http://www.w3.org/1999/xlink">
	<desc>Stata Graph - diff_los_mod33_3y_rp_tc_22</desc>
	<rect x="0" y="0" width="3960" height="2880" style="fill:#EAF2F3;stroke:none"/>
	<rect x="0.00" y="0.00" width="3959.88" height="2880.00" style="fill:#FFFFFF"/>
	<rect x="2.88" y="2.88" width="3954.12" height="2874.24" style="fill:none;stroke:#FFFFFF;stroke-width:5.76"/>
	<rect x="390.80" y="419.90" width="3468.22" height="2089.34" style="fill:#FFFFFF"/>
	<rect x="393.68" y="422.78" width="3462.46" height="2083.58" style="fill:none;stroke:#FFFFFF;stroke-width:5.76"/>
	<line x1="390.80" y1="2445.87" x2="3859.02" y2="2445.87" style="stroke:#EAF2F3;stroke-width:8.64"/>
	<line x1="390.80" y1="1791.71" x2="3859.02" y2="1791.71" style="stroke:#EAF2F3;stroke-width:8.64"/>
	<line x1="390.80" y1="1137.42" x2="3859.02" y2="1137.42" style="stroke:#EAF2F3;stroke-width:8.64"/>
	<line x1="390.80" y1="483.26" x2="3859.02" y2="483.26" style="stroke:#EAF2F3;stroke-width:8.64"/>
	<line x1="390.80" y1="1137.42" x2="3859.02" y2="1137.42" style="stroke:#1A476F;stroke-width:8.64"/>
	<defs>
		<path id="path_BwcvhSaB" d="M618.87 1139.28 L618.87 1139.28 L636.57 1139.28 L636.57 1139.90 L654.27 1139.90 L654.27 1140.52 L672.09 1140.52 L672.09 1141.26 L689.78 1141.26 L689.78 1142.12 L707.60 1142.12 L707.60 1143.11 L725.30 1143.11 L725.30 1144.23 L743.00 1144.23 L743.00 1145.47 L760.82 1145.47 L760.82 1146.83 L778.51 1146.83 L778.51 1148.44 L796.33 1148.44 L796.33 1150.04 L814.03 1150.04 L814.03 1151.78 L831.72 1151.78 L831.72 1153.76 L849.54 1153.76 L849.54 1155.86 L867.24 1155.86 L867.24 1158.09 L885.06 1158.09 L885.06 1160.44 L902.76 1160.44 L902.76 1162.92 L920.45 1162.92 L920.45 1165.51 L938.27 1165.51 L938.27 1168.24 L955.97 1168.24 L955.97 1171.21 L973.66 1171.21 L973.66 1174.18 L991.49 1174.18 L991.49 1177.27 L1009.18 1177.27 L1009.18 1180.49 L1027.00 1180.49 L1027.00 1183.83 L1044.70 1183.83 L1044.70 1187.29 L1062.39 1187.29 L1062.39 1190.88 L1080.21 1190.88 L1080.21 1194.47 L1097.91 1194.47 L1097.91 1198.18 L1115.73 1198.18 L1115.73 1202.02 L1133.43 1202.02 L1133.43 1205.86 L1151.12 1205.86 L1151.12 1209.94 L1168.94 1209.94 L1168.94 1214.03 L1186.64 1214.03 L1186.64 1218.23 L1204.46 1218.23 L1204.46 1222.69 L1222.15 1222.69 L1222.15 1227.14 L1239.85 1227.14 L1239.85 1231.72 L1257.67 1231.72 L1257.67 1236.42 L1275.37 1236.42 L1275.37 1241.13 L1293.19 1241.13 L1293.19 1245.95 L1310.88 1245.95 L1310.88 1250.78 L1328.58 1250.78 L1328.58 1255.73 L1346.40 1255.73 L1346.40 1260.68 L1364.10 1260.68 L1364.10 1265.75 L1381.92 1265.75 L1381.92 1270.95 L1399.61 1270.95 L1399.61 1276.15 L1417.31 1276.15 L1417.31 1281.47 L1435.13 1281.47 L1435.13 1286.92 L1452.83 1286.92 L1452.83 1292.36 L1470.64 1292.36 L1470.64 1297.93 L1488.34 1297.93 L1488.34 1303.50 L1506.04 1303.50 L1506.04 1309.19 L1523.86 1309.19 L1523.86 1314.88 L1541.55 1314.88 L1541.55 1320.70 L1559.37 1320.70 L1559.37 1326.64 L1577.07 1326.64 L1577.07 1332.71 L1594.77 1332.71 L1594.77 1338.77 L1612.59 1338.77 L1612.59 1344.96 L1630.28 1344.96 L1630.28 1351.02 L1648.10 1351.02 L1648.10 1357.33 L1665.80 1357.33 L1665.80 1363.52 L1683.49 1363.52 L1683.49 1369.83 L1701.32 1369.83 L1701.32 1376.27 L1719.01 1376.27 L1719.01 1382.83 L1736.83 1382.83 L1736.83 1389.38 L1754.53 1389.38 L1754.53 1396.07 L1772.22 1396.07 L1772.22 1402.75 L1790.04 1402.75 L1790.04 1409.56 L1807.74 1409.56 L1807.74 1416.36 L1825.56 1416.36 L1825.56 1423.29 L1843.26 1423.29 L1843.26 1430.10 L1860.95 1430.10 L1860.95 1437.15 L1878.77 1437.15 L1878.77 1444.08 L1896.47 1444.08 L1896.47 1451.14 L1914.29 1451.14 L1914.29 1458.19 L1931.98 1458.19 L1931.98 1465.25 L1949.68 1465.25 L1949.68 1472.30 L1967.50 1472.30 L1967.50 1479.48 L1985.20 1479.48 L1985.20 1486.78 L2003.02 1486.78 L2003.02 1494.08 L2020.71 1494.08 L2020.71 1501.38 L2038.41 1501.38 L2038.41 1508.68 L2056.23 1508.68 L2056.23 1515.98 L2073.93 1515.98 L2073.93 1523.29 L2091.75 1523.29 L2091.75 1530.71 L2109.44 1530.71 L2109.44 1538.01 L2127.14 1538.01 L2127.14 1545.44 L2144.96 1545.44 L2144.96 1552.99 L2162.66 1552.99 L2162.66 1560.41 L2180.47 1560.41 L2180.47 1567.96 L2198.17 1567.96 L2198.17 1575.63 L2215.87 1575.63 L2215.87 1583.18 L2233.69 1583.18 L2233.69 1590.86 L2251.38 1590.86 L2251.38 1598.65 L2269.20 1598.65 L2269.20 1606.33 L2286.90 1606.33 L2286.90 1614.25 L2304.60 1614.25 L2304.60 1622.04 L2322.42 1622.04 L2322.42 1629.96 L2340.11 1629.96 L2340.11 1637.88 L2357.93 1637.88 L2357.93 1645.80 L2375.63 1645.80 L2375.63 1653.72 L2393.32 1653.72 L2393.32 1661.77 L2411.14 1661.77 L2411.14 1669.81 L2428.84 1669.81 L2428.84 1677.85 L2446.66 1677.85 L2446.66 1685.90 L2464.36 1685.90 L2464.36 1694.07 L2482.05 1694.07 L2482.05 1702.23 L2499.87 1702.23 L2499.87 1710.53 L2517.57 1710.53 L2517.57 1718.69 L2535.39 1718.69 L2535.39 1726.99 L2553.09 1726.99 L2553.09 1735.28 L2570.78 1735.28 L2570.78 1743.69 L2588.60 1743.69 L2588.60 1751.98 L2606.30 1751.98 L2606.30 1760.40 L2624.12 1760.40 L2624.12 1768.69 L2641.82 1768.69 L2641.82 1777.11 L2659.51 1777.11 L2659.51 1785.64 L2677.33 1785.64 L2677.33 1794.18 L2695.03 1794.18 L2695.03 1802.72 L2712.85 1802.72 L2712.85 1811.39 L2730.54 1811.39 L2730.54 1820.05 L2748.24 1820.05 L2748.24 1828.71 L2766.06 1828.71 L2766.06 1837.50 L2783.76 1837.50 L2783.76 1846.16 L2801.58 1846.16 L2801.58 1854.95 L2819.27 1854.95 L2819.27 1863.86 L2836.97 1863.86 L2836.97 1872.64 L2854.79 1872.64 L2854.79 1881.43 L2872.49 1881.43 L2872.49 1890.34 L2890.18 1890.34 L2890.18 1899.13 L2908.00 1899.13 L2908.00 1908.16 L2925.70 1908.16 L2925.70 1917.07 L2943.52 1917.07 L2943.52 1925.98 L2961.21 1925.98 L2961.21 1935.02 L2978.91 1935.02 L2978.91 1944.05 L2996.73 1944.05 L2996.73 1953.21 L3014.43 1953.21 L3014.43 1962.24 L3032.25 1962.24 L3032.25 1971.40 L3049.94 1971.40 L3049.94 1980.68 L3067.64 1980.68 L3067.64 1989.84 L3085.46 1989.84 L3085.46 1999.12 L3103.16 1999.12 L3103.16 2008.40 L3120.97 2008.40 L3120.97 2017.56 L3138.67 2017.56 L3138.67 2026.84 L3156.37 2026.84 L3156.37 2036.12 L3174.19 2036.12 L3174.19 2045.40 L3191.88 2045.40 L3191.88 2054.69 L3209.70 2054.69 L3209.70 2064.09 L3227.40 2064.09 L3227.40 2073.37 L3245.10 2073.37 L3245.10 2082.78 L3262.92 2082.78 L3262.92 2092.18 L3280.61 2092.18 L3280.61 2101.59 L3298.43 2101.59 L3298.43 2110.99 L3316.13 2110.99 L3316.13 2120.52 L3333.82 2120.52 L3333.82 2129.93 L3351.64 2129.93 L3351.64 2139.46 L3369.34 2139.46 L3369.34 2148.99 L3387.16 2148.99 L3387.16 2158.51 L3404.86 2158.51 L3404.86 2168.17 L3422.55 2168.17 L3422.55 2177.70 L3440.37 2177.70 L3440.37 2187.35 L3458.07 2187.35 L3458.07 2197.00 L3475.89 2197.00 L3475.89 2206.78 L3493.59 2206.78 L3493.59 2216.43 L3511.28 2216.43 L3511.28 2226.21 L3529.10 2226.21 L3529.10 2235.98 L3546.80 2235.98 L3546.80 2245.76 L3564.62 2245.76 L3564.62 2255.54 L3582.32 2255.54 L3582.32 2265.44 L3600.01 2265.44 L3600.01 2275.21 L3617.83 2275.21 L3617.83 2285.12 L3635.53 2285.12 L3635.53 2294.89 L3653.35 2294.89 L3653.35 2304.79 L3671.04 2304.79 L3671.04 2314.82 L3688.74 2314.82 L3688.74 2324.72 L3706.56 2324.72 L3706.56 2334.62 L3724.26 2334.62 L3724.26 2344.64 L3742.08 2344.64 L3742.08 2354.54 L3759.77 2354.54 L3759.77 2364.57 L3777.47 2364.57 L3777.47 2374.59 L3795.29 2374.59 L3795.29 2384.61 L3795.29 756.01 L3795.29 758.61 L3777.47 758.61 L3777.47 761.33 L3759.77 761.33 L3759.77 763.93 L3742.08 763.93 L3742.08 766.53 L3724.26 766.53 L3724.26 769.13 L3706.56 769.13 L3706.56 771.73 L3688.74 771.73 L3688.74 774.45 L3671.04 774.45 L3671.04 777.05 L3653.35 777.05 L3653.35 779.65 L3635.53 779.65 L3635.53 782.25 L3617.83 782.25 L3617.83 784.85 L3600.01 784.85 L3600.01 787.57 L3582.32 787.57 L3582.32 790.17 L3564.62 790.17 L3564.62 792.77 L3546.80 792.77 L3546.80 795.37 L3529.10 795.37 L3529.10 797.96 L3511.28 797.96 L3511.28 800.56 L3493.59 800.56 L3493.59 803.16 L3475.89 803.16 L3475.89 805.89 L3458.07 805.89 L3458.07 808.48 L3440.37 808.48 L3440.37 811.21 L3422.55 811.21 L3422.55 813.81 L3404.86 813.81 L3404.86 816.40 L3387.16 816.40 L3387.16 819.13 L3369.34 819.13 L3369.34 821.85 L3351.64 821.85 L3351.64 824.45 L3333.82 824.45 L3333.82 827.17 L3316.13 827.17 L3316.13 829.89 L3298.43 829.89 L3298.43 832.49 L3280.61 832.49 L3280.61 835.21 L3262.92 835.21 L3262.92 837.81 L3245.10 837.81 L3245.10 840.54 L3227.40 840.54 L3227.40 843.14 L3209.70 843.14 L3209.70 845.86 L3191.88 845.86 L3191.88 848.46 L3174.19 848.46 L3174.19 851.18 L3156.37 851.18 L3156.37 853.78 L3138.67 853.78 L3138.67 856.38 L3120.97 856.38 L3120.97 859.10 L3103.16 859.10 L3103.16 861.70 L3085.46 861.70 L3085.46 864.30 L3067.64 864.30 L3067.64 866.77 L3049.94 866.77 L3049.94 869.37 L3032.25 869.37 L3032.25 871.97 L3014.43 871.97 L3014.43 874.57 L2996.73 874.57 L2996.73 877.17 L2978.91 877.17 L2978.91 879.77 L2961.21 879.77 L2961.21 882.49 L2943.52 882.49 L2943.52 885.09 L2925.70 885.09 L2925.70 887.81 L2908.00 887.81 L2908.00 890.41 L2890.18 890.41 L2890.18 893.01 L2872.49 893.01 L2872.49 895.73 L2854.79 895.73 L2854.79 898.33 L2836.97 898.33 L2836.97 901.05 L2819.27 901.05 L2819.27 903.65 L2801.58 903.65 L2801.58 906.25 L2783.76 906.25 L2783.76 908.85 L2766.06 908.85 L2766.06 911.45 L2748.24 911.45 L2748.24 914.05 L2730.54 914.05 L2730.54 916.64 L2712.85 916.64 L2712.85 919.24 L2695.03 919.24 L2695.03 921.84 L2677.33 921.84 L2677.33 924.57 L2659.51 924.57 L2659.51 927.16 L2641.82 927.16 L2641.82 929.89 L2624.12 929.89 L2624.12 932.61 L2606.30 932.61 L2606.30 935.21 L2588.60 935.21 L2588.60 937.93 L2570.78 937.93 L2570.78 940.53 L2553.09 940.53 L2553.09 943.25 L2535.39 943.25 L2535.39 945.85 L2517.57 945.85 L2517.57 948.45 L2499.87 948.45 L2499.87 951.05 L2482.05 951.05 L2482.05 953.65 L2464.36 953.65 L2464.36 956.25 L2446.66 956.25 L2446.66 958.84 L2428.84 958.84 L2428.84 961.44 L2411.14 961.44 L2411.14 964.04 L2393.32 964.04 L2393.32 966.64 L2375.63 966.64 L2375.63 969.24 L2357.93 969.24 L2357.93 971.84 L2340.11 971.84 L2340.11 974.31 L2322.42 974.31 L2322.42 976.91 L2304.60 976.91 L2304.60 979.51 L2286.90 979.51 L2286.90 981.99 L2269.20 981.99 L2269.20 984.59 L2251.38 984.59 L2251.38 987.06 L2233.69 987.06 L2233.69 989.66 L2215.87 989.66 L2215.87 992.13 L2198.17 992.13 L2198.17 994.73 L2180.47 994.73 L2180.47 997.21 L2162.66 997.21 L2162.66 999.81 L2144.96 999.81 L2144.96 1002.28 L2127.14 1002.28 L2127.14 1004.88 L2109.44 1004.88 L2109.44 1007.36 L2091.75 1007.36 L2091.75 1009.83 L2073.93 1009.83 L2073.93 1012.31 L2056.23 1012.31 L2056.23 1014.78 L2038.41 1014.78 L2038.41 1017.13 L2020.71 1017.13 L2020.71 1019.48 L2003.02 1019.48 L2003.02 1021.71 L1985.20 1021.71 L1985.20 1024.06 L1967.50 1024.06 L1967.50 1026.29 L1949.68 1026.29 L1949.68 1028.64 L1931.98 1028.64 L1931.98 1030.87 L1914.29 1030.87 L1914.29 1033.10 L1896.47 1033.10 L1896.47 1035.32 L1878.77 1035.32 L1878.77 1037.55 L1860.95 1037.55 L1860.95 1039.78 L1843.26 1039.78 L1843.26 1041.88 L1825.56 1041.88 L1825.56 1043.99 L1807.74 1043.99 L1807.74 1046.09 L1790.04 1046.09 L1790.04 1048.20 L1772.22 1048.20 L1772.22 1050.18 L1754.53 1050.18 L1754.53 1052.28 L1736.83 1052.28 L1736.83 1054.26 L1719.01 1054.26 L1719.01 1056.36 L1701.32 1056.36 L1701.32 1058.34 L1683.49 1058.34 L1683.49 1060.57 L1665.80 1060.57 L1665.80 1062.55 L1648.10 1062.55 L1648.10 1064.65 L1630.28 1064.65 L1630.28 1066.76 L1612.59 1066.76 L1612.59 1068.74 L1594.77 1068.74 L1594.77 1070.59 L1577.07 1070.59 L1577.07 1072.57 L1559.37 1072.57 L1559.37 1074.55 L1541.55 1074.55 L1541.55 1076.53 L1523.86 1076.53 L1523.86 1078.51 L1506.04 1078.51 L1506.04 1080.37 L1488.34 1080.37 L1488.34 1082.35 L1470.64 1082.35 L1470.64 1084.21 L1452.83 1084.21 L1452.83 1086.06 L1435.13 1086.06 L1435.13 1087.92 L1417.31 1087.92 L1417.31 1089.65 L1399.61 1089.65 L1399.61 1091.51 L1381.92 1091.51 L1381.92 1093.24 L1364.10 1093.24 L1364.10 1095.10 L1346.40 1095.10 L1346.40 1096.83 L1328.58 1096.83 L1328.58 1098.56 L1310.88 1098.56 L1310.88 1100.17 L1293.19 1100.17 L1293.19 1101.78 L1275.37 1101.78 L1275.37 1103.27 L1257.67 1103.27 L1257.67 1104.75 L1239.85 1104.75 L1239.85 1106.24 L1222.15 1106.24 L1222.15 1107.72 L1204.46 1107.72 L1204.46 1109.08 L1186.64 1109.08 L1186.64 1110.44 L1168.94 1110.44 L1168.94 1111.93 L1151.12 1111.93 L1151.12 1113.29 L1133.43 1113.29 L1133.43 1114.65 L1115.73 1114.65 L1115.73 1116.01 L1097.91 1116.01 L1097.91 1117.25 L1080.21 1117.25 L1080.21 1118.49 L1062.39 1118.49 L1062.39 1119.72 L1044.70 1119.72 L1044.70 1120.84 L1027.00 1120.84 L1027.00 1121.95 L1009.18 1121.95 L1009.18 1122.94 L991.49 1122.94 L991.49 1123.93 L973.66 1123.93 L973.66 1124.92 L955.97 1124.92 L955.97 1125.91 L938.27 1125.91 L938.27 1126.78 L920.45 1126.78 L920.45 1127.65 L902.76 1127.65 L902.76 1128.39 L885.06 1128.39 L885.06 1129.25 L867.24 1129.25 L867.24 1129.87 L849.54 1129.87 L849.54 1130.62 L831.72 1130.62 L831.72 1131.23 L814.03 1131.23 L814.03 1131.98 L796.33 1131.98 L796.33 1132.60 L778.51 1132.60 L778.51 1133.21 L760.82 1133.21 L760.82 1133.71 L743.00 1133.71 L743.00 1134.33 L725.30 1134.33 L725.30 1134.82 L707.60 1134.82 L707.60 1135.19 L689.78 1135.19 L689.78 1135.69 L672.09 1135.69 L672.09 1136.06 L654.27 1136.06 L654.27 1136.43 L636.57 1136.43 L636.57 1136.68 L618.87 1136.68 L618.87 1139.28 Z" stroke-linejoin="round"/>
	</defs>
	<defs>
		<clipPath id="clipPath_SBXHresJ">
			<use xlink:href="#path_BwcvhSaB"/>
		</clipPath>
	</defs>
	<use xlink:href="#path_BwcvhSaB" style="stroke:none;fill:#999999;fill-opacity:0.65"/>
	<use xlink:href="#path_BwcvhSaB" style="fill:none;stroke:#808080;stroke-opacity:0.65;stroke-width:17.28" clip-path="url(#clipPath_SBXHresJ)"/>
	<path d=" M618.75 1138.04 L636.45 1138.04 L636.45 1138.16 L654.27 1138.16 L654.27 1138.29 L671.96 1138.29 L671.96 1138.54 L689.78 1138.54 L689.78 1138.66 L707.48 1138.66 L707.48 1139.03 L725.17 1139.03 L725.17 1139.28 L743.00 1139.28 L743.00 1139.65 L760.69 1139.65 L760.69 1140.14 L778.51 1140.14 L778.51 1140.52 L796.21 1140.52 L796.21 1141.13 L813.90 1141.13 L813.90 1141.63 L831.72 1141.63 L831.72 1142.25 L849.42 1142.25 L849.42 1142.99 L867.24 1142.99 L867.24 1143.73 L884.94 1143.73 L884.94 1144.48 L902.63 1144.48 L902.63 1145.34 L920.45 1145.34 L920.45 1146.21 L938.15 1146.21 L938.15 1147.07 L955.97 1147.07 L955.97 1148.06 L973.66 1148.06 L973.66 1149.05 L991.36 1149.05 L991.36 1150.17 L1009.18 1150.17 L1009.18 1151.28 L1026.88 1151.28 L1026.88 1152.40 L1044.70 1152.40 L1044.70 1153.63 L1062.39 1153.63 L1062.39 1154.75 L1080.09 1154.75 L1080.09 1155.98 L1097.91 1155.98 L1097.91 1157.22 L1115.61 1157.22 L1115.61 1158.46 L1133.43 1158.46 L1133.43 1159.70 L1151.12 1159.70 L1151.12 1160.94 L1168.82 1160.94 L1168.82 1162.30 L1186.64 1162.30 L1186.64 1163.78 L1204.34 1163.78 L1204.34 1165.27 L1222.15 1165.27 L1222.15 1166.75 L1239.85 1166.75 L1239.85 1168.36 L1257.55 1168.36 L1257.55 1169.85 L1275.37 1169.85 L1275.37 1171.45 L1293.06 1171.45 L1293.06 1173.06 L1310.88 1173.06 L1310.88 1174.67 L1328.58 1174.67 L1328.58 1176.28 L1346.28 1176.28 L1346.28 1177.89 L1364.10 1177.89 L1364.10 1179.62 L1381.79 1179.62 L1381.79 1181.23 L1399.61 1181.23 L1399.61 1182.96 L1417.31 1182.96 L1417.31 1184.70 L1435.01 1184.70 L1435.01 1186.55 L1452.83 1186.55 L1452.83 1188.41 L1470.52 1188.41 L1470.52 1190.14 L1488.34 1190.14 L1488.34 1192.00 L1506.04 1192.00 L1506.04 1193.85 L1523.73 1193.85 L1523.73 1195.83 L1541.55 1195.83 L1541.55 1197.69 L1559.25 1197.69 L1559.25 1199.67 L1577.07 1199.67 L1577.07 1201.77 L1594.77 1201.77 L1594.77 1203.75 L1612.46 1203.75 L1612.46 1205.86 L1630.28 1205.86 L1630.28 1207.96 L1647.98 1207.96 L1647.98 1210.07 L1665.80 1210.07 L1665.80 1212.05 L1683.49 1212.05 L1683.49 1214.15 L1701.19 1214.15 L1701.19 1216.38 L1719.01 1216.38 L1719.01 1218.60 L1736.71 1218.60 L1736.71 1220.83 L1754.53 1220.83 L1754.53 1223.18 L1772.22 1223.18 L1772.22 1225.53 L1789.92 1225.53 L1789.92 1227.89 L1807.74 1227.89 L1807.74 1230.24 L1825.44 1230.24 L1825.44 1232.59 L1843.26 1232.59 L1843.26 1235.06 L1860.95 1235.06 L1860.95 1237.41 L1878.65 1237.41 L1878.65 1239.77 L1896.47 1239.77 L1896.47 1242.24 L1914.16 1242.24 L1914.16 1244.59 L1931.86 1244.59 L1931.86 1246.94 L1949.68 1246.94 L1949.68 1249.42 L1967.38 1249.42 L1967.38 1251.89 L1985.20 1251.89 L1985.20 1254.37 L2002.89 1254.37 L2002.89 1256.84 L2020.59 1256.84 L2020.59 1259.32 L2038.41 1259.32 L2038.41 1261.79 L2056.11 1261.79 L2056.11 1264.27 L2073.93 1264.27 L2073.93 1266.62 L2091.62 1266.62 L2091.62 1269.10 L2109.32 1269.10 L2109.32 1271.57 L2127.14 1271.57 L2127.14 1273.92 L2144.84 1273.92 L2144.84 1276.40 L2162.66 1276.40 L2162.66 1278.87 L2180.35 1278.87 L2180.35 1281.35 L2198.05 1281.35 L2198.05 1283.95 L2215.87 1283.95 L2215.87 1286.42 L2233.56 1286.42 L2233.56 1289.02 L2251.38 1289.02 L2251.38 1291.62 L2269.08 1291.62 L2269.08 1294.22 L2286.78 1294.22 L2286.78 1296.94 L2304.60 1296.94 L2304.60 1299.54 L2322.29 1299.54 L2322.29 1302.26 L2340.11 1302.26 L2340.11 1304.86 L2357.81 1304.86 L2357.81 1307.58 L2375.51 1307.58 L2375.51 1310.31 L2393.32 1310.31 L2393.32 1313.03 L2411.02 1313.03 L2411.02 1315.75 L2428.84 1315.75 L2428.84 1318.47 L2446.54 1318.47 L2446.54 1321.20 L2464.23 1321.20 L2464.23 1323.92 L2482.05 1323.92 L2482.05 1326.64 L2499.75 1326.64 L2499.75 1329.49 L2517.57 1329.49 L2517.57 1332.33 L2535.27 1332.33 L2535.27 1335.18 L2552.96 1335.18 L2552.96 1338.03 L2570.78 1338.03 L2570.78 1340.87 L2588.48 1340.87 L2588.48 1343.72 L2606.30 1343.72 L2606.30 1346.57 L2623.99 1346.57 L2623.99 1349.41 L2641.69 1349.41 L2641.69 1352.26 L2659.51 1352.26 L2659.51 1355.10 L2677.21 1355.10 L2677.21 1358.07 L2695.03 1358.07 L2695.03 1361.05 L2712.72 1361.05 L2712.72 1364.14 L2730.42 1364.14 L2730.42 1367.11 L2748.24 1367.11 L2748.24 1370.20 L2765.94 1370.20 L2765.94 1373.17 L2783.76 1373.17 L2783.76 1376.27 L2801.45 1376.27 L2801.45 1379.36 L2819.15 1379.36 L2819.15 1382.45 L2836.97 1382.45 L2836.97 1385.55 L2854.66 1385.55 L2854.66 1388.64 L2872.49 1388.64 L2872.49 1391.74 L2890.18 1391.74 L2890.18 1394.83 L2907.88 1394.83 L2907.88 1398.05 L2925.70 1398.05 L2925.70 1401.14 L2943.39 1401.14 L2943.39 1404.24 L2961.21 1404.24 L2961.21 1407.45 L2978.91 1407.45 L2978.91 1410.67 L2996.61 1410.67 L2996.61 1413.89 L3014.43 1413.89 L3014.43 1417.23 L3032.12 1417.23 L3032.12 1420.45 L3049.94 1420.45 L3049.94 1423.79 L3067.64 1423.79 L3067.64 1427.13 L3085.34 1427.13 L3085.34 1430.47 L3103.16 1430.47 L3103.16 1433.81 L3120.85 1433.81 L3120.85 1437.03 L3138.67 1437.03 L3138.67 1440.37 L3156.37 1440.37 L3156.37 1443.71 L3174.06 1443.71 L3174.06 1447.05 L3191.88 1447.05 L3191.88 1450.40 L3209.58 1450.40 L3209.58 1453.74 L3227.40 1453.74 L3227.40 1457.08 L3245.10 1457.08 L3245.10 1460.42 L3262.79 1460.42 L3262.79 1463.76 L3280.61 1463.76 L3280.61 1467.10 L3298.31 1467.10 L3298.31 1470.44 L3316.13 1470.44 L3316.13 1473.91 L3333.82 1473.91 L3333.82 1477.25 L3351.52 1477.25 L3351.52 1480.72 L3369.34 1480.72 L3369.34 1484.18 L3387.04 1484.18 L3387.04 1487.52 L3404.86 1487.52 L3404.86 1490.99 L3422.55 1490.99 L3422.55 1494.45 L3440.25 1494.45 L3440.25 1498.04 L3458.07 1498.04 L3458.07 1501.51 L3475.77 1501.51 L3475.77 1505.09 L3493.59 1505.09 L3493.59 1508.56 L3511.28 1508.56 L3511.28 1512.15 L3528.98 1512.15 L3528.98 1515.74 L3546.80 1515.74 L3546.80 1519.33 L3564.49 1519.33 L3564.49 1522.92 L3582.32 1522.92 L3582.32 1526.50 L3600.01 1526.50 L3600.01 1530.09 L3617.71 1530.09 L3617.71 1533.68 L3635.53 1533.68 L3635.53 1537.39 L3653.22 1537.39 L3653.22 1540.98 L3671.04 1540.98 L3671.04 1544.70 L3688.74 1544.70 L3688.74 1548.28 L3706.44 1548.28 L3706.44 1552.00 L3724.26 1552.00 L3724.26 1555.59 L3741.95 1555.59 L3741.95 1559.30 L3759.77 1559.30 L3759.77 1563.01 L3777.47 1563.01 L3777.47 1566.72 L3795.16 1566.72 L3795.16 1570.31" stroke-linejoin="round" style="fill:none;stroke:#000000;stroke-width:8.64"/>
	<line x1="390.80" y1="2509.23" x2="390.80" y2="419.90" style="stroke:#000000;stroke-width:5.76"/>
	<line x1="390.80" y1="2445.87" x2="350.83" y2="2445.87" style="stroke:#000000;stroke-width:5.76"/>
	<text x="300.72" y="2445.87" style="font-family:'Helvetica';font-size:99.99px;fill:#000000" transform="rotate(-90 300.72,2445.87)" text-anchor="middle">-100</text>
	<line x1="390.80" y1="1791.71" x2="350.83" y2="1791.71" style="stroke:#000000;stroke-width:5.76"/>
	<text x="300.72" y="1791.71" style="font-family:'Helvetica';font-size:99.99px;fill:#000000" transform="rotate(-90 300.72,1791.71)" text-anchor="middle">-50</text>
	<line x1="390.80" y1="1137.42" x2="350.83" y2="1137.42" style="stroke:#000000;stroke-width:5.76"/>
	<text x="300.72" y="1137.42" style="font-family:'Helvetica';font-size:99.99px;fill:#000000" transform="rotate(-90 300.72,1137.42)" text-anchor="middle">0</text>
	<line x1="390.80" y1="483.26" x2="350.83" y2="483.26" style="stroke:#000000;stroke-width:5.76"/>
	<text x="300.72" y="483.26" style="font-family:'Helvetica';font-size:99.99px;fill:#000000" transform="rotate(-90 300.72,483.26)" text-anchor="middle">50</text>
	<text x="190.71" y="1464.63" style="font-family:'Helvetica';font-size:99.99px;fill:#000000" transform="rotate(-90 190.71,1464.63)" text-anchor="middle">Difference in Lengths</text>
	<line x1="390.80" y1="2509.23" x2="3859.02" y2="2509.23" style="stroke:#000000;stroke-width:5.76"/>
	<line x1="454.16" y1="2509.23" x2="454.16" y2="2549.21" style="stroke:#000000;stroke-width:5.76"/>
	<text x="454.16" y="2625.15" style="font-family:'Helvetica';font-size:79.94px;fill:#000000" text-anchor="middle">0</text>
	<line x1="654.64" y1="2509.23" x2="654.64" y2="2549.21" style="stroke:#000000;stroke-width:5.76"/>
	<text x="654.64" y="2625.15" style="font-family:'Helvetica';font-size:79.94px;fill:#000000" text-anchor="middle">.3</text>
	<line x1="855.11" y1="2509.23" x2="855.11" y2="2549.21" style="stroke:#000000;stroke-width:5.76"/>
	<text x="855.11" y="2625.15" style="font-family:'Helvetica';font-size:79.94px;fill:#000000" text-anchor="middle">.6</text>
	<line x1="1055.59" y1="2509.23" x2="1055.59" y2="2549.21" style="stroke:#000000;stroke-width:5.76"/>
	<text x="1055.59" y="2625.15" style="font-family:'Helvetica';font-size:79.94px;fill:#000000" text-anchor="middle">.9</text>
	<line x1="1256.06" y1="2509.23" x2="1256.06" y2="2549.21" style="stroke:#000000;stroke-width:5.76"/>
	<text x="1256.06" y="2625.15" style="font-family:'Helvetica';font-size:79.94px;fill:#000000" text-anchor="middle">1.2</text>
	<line x1="1456.66" y1="2509.23" x2="1456.66" y2="2549.21" style="stroke:#000000;stroke-width:5.76"/>
	<text x="1456.66" y="2625.15" style="font-family:'Helvetica';font-size:79.94px;fill:#000000" text-anchor="middle">1.5</text>
	<line x1="1657.14" y1="2509.23" x2="1657.14" y2="2549.21" style="stroke:#000000;stroke-width:5.76"/>
	<text x="1657.14" y="2625.15" style="font-family:'Helvetica';font-size:79.94px;fill:#000000" text-anchor="middle">1.8</text>
	<line x1="1857.61" y1="2509.23" x2="1857.61" y2="2549.21" style="stroke:#000000;stroke-width:5.76"/>
	<text x="1857.61" y="2625.15" style="font-family:'Helvetica';font-size:79.94px;fill:#000000" text-anchor="middle">2.1</text>
	<line x1="2058.09" y1="2509.23" x2="2058.09" y2="2549.21" style="stroke:#000000;stroke-width:5.76"/>
	<text x="2058.09" y="2625.15" style="font-family:'Helvetica';font-size:79.94px;fill:#000000" text-anchor="middle">2.4</text>
	<line x1="2258.56" y1="2509.23" x2="2258.56" y2="2549.21" style="stroke:#000000;stroke-width:5.76"/>
	<text x="2258.56" y="2625.15" style="font-family:'Helvetica';font-size:79.94px;fill:#000000" text-anchor="middle">2.7</text>
	<line x1="2459.04" y1="2509.23" x2="2459.04" y2="2549.21" style="stroke:#000000;stroke-width:5.76"/>
	<text x="2459.04" y="2625.15" style="font-family:'Helvetica';font-size:79.94px;fill:#000000" text-anchor="middle">3</text>
	<line x1="2659.64" y1="2509.23" x2="2659.64" y2="2549.21" style="stroke:#000000;stroke-width:5.76"/>
	<text x="2659.64" y="2625.15" style="font-family:'Helvetica';font-size:79.94px;fill:#000000" text-anchor="middle">3.3</text>
	<line x1="2860.11" y1="2509.23" x2="2860.11" y2="2549.21" style="stroke:#000000;stroke-width:5.76"/>
	<text x="2860.11" y="2625.15" style="font-family:'Helvetica';font-size:79.94px;fill:#000000" text-anchor="middle">3.6</text>
	<line x1="3060.59" y1="2509.23" x2="3060.59" y2="2549.21" style="stroke:#000000;stroke-width:5.76"/>
	<text x="3060.59" y="2625.15" style="font-family:'Helvetica';font-size:79.94px;fill:#000000" text-anchor="middle">3.9</text>
	<line x1="3261.06" y1="2509.23" x2="3261.06" y2="2549.21" style="stroke:#000000;stroke-width:5.76"/>
	<text x="3261.06" y="2625.15" style="font-family:'Helvetica';font-size:79.94px;fill:#000000" text-anchor="middle">4.2</text>
	<line x1="3461.53" y1="2509.23" x2="3461.53" y2="2549.21" style="stroke:#000000;stroke-width:5.76"/>
	<text x="3461.53" y="2625.15" style="font-family:'Helvetica';font-size:79.94px;fill:#000000" text-anchor="middle">4.5</text>
	<line x1="3662.01" y1="2509.23" x2="3662.01" y2="2549.21" style="stroke:#000000;stroke-width:5.76"/>
	<text x="3662.01" y="2625.15" style="font-family:'Helvetica';font-size:79.94px;fill:#000000" text-anchor="middle">4.8</text>
	<line x1="3862.61" y1="2509.23" x2="3862.61" y2="2549.21" style="stroke:#000000;stroke-width:5.76"/>
	<text x="3862.61" y="2625.15" style="font-family:'Helvetica';font-size:79.94px;fill:#000000" text-anchor="middle">5.1</text>
	<text x="2124.91" y="2729.16" style="font-family:'Helvetica';font-size:99.99px;fill:#000000" text-anchor="middle">Time (years)</text>
	<rect x="425.33" y="2148.24" width="993.22" height="326.46" style="fill:#FFFFFF"/>
	<rect x="428.21" y="2151.12" width="987.46" height="320.70" style="fill:none;stroke:#000000;stroke-width:5.76"/>
	<rect x="468.52" y="2191.43" width="374.47" height="99.99" style="fill:#999999;fill-opacity:0.65"/>
	<rect x="472.84" y="2195.75" width="365.83" height="91.35" style="fill:none;stroke:#808080;stroke-opacity:0.65;stroke-width:8.64"/>
	<line x1="468.52" y1="2381.52" x2="842.99" y2="2381.52" style="stroke:#000000;stroke-width:8.64"/>
	<text x="902.88" y="2276.46" style="font-family:'Helvetica';font-size:99.99px;fill:#000000">CI95%</text>
	<text x="902.88" y="2416.55" style="font-family:'Helvetica';font-size:99.99px;fill:#000000">Difference</text>
	<text x="2124.91" y="369.63" style="font-family:'Helvetica';font-size:110.01px;fill:#000000" text-anchor="middle">from 2nd Readmission</text>
	<text x="2124.91" y="215.98" style="font-family:'Helvetica';font-size:139.96px;fill:#1E2D53" text-anchor="middle">Difference in Lengths of Stay (2nd patient)</text>
</svg>
