<?xml version="1.0" encoding="UTF-8" standalone="no"?>
<!-- This is a Stata 16.1 generated SVG file (http://www.stata.com) -->

<svg version="1.1" width="5.50in" height="4.00in" viewBox="0 0 3960 2880" xmlns="http://www.w3.org/2000/svg" xmlns:xlink="http://www.w3.org/1999/xlink">
	<desc>Stata Graph - diff_los_mod33_3y_tc_22</desc>
	<rect x="0" y="0" width="3960" height="2880" style="fill:#EAF2F3;stroke:none"/>
	<rect x="0.00" y="0.00" width="3959.88" height="2880.00" style="fill:#FFFFFF"/>
	<rect x="2.88" y="2.88" width="3954.12" height="2874.24" style="fill:none;stroke:#FFFFFF;stroke-width:5.76"/>
	<rect x="390.80" y="419.90" width="3468.22" height="2089.34" style="fill:#FFFFFF"/>
	<rect x="393.68" y="422.78" width="3462.46" height="2083.58" style="fill:none;stroke:#FFFFFF;stroke-width:5.76"/>
	<line x1="390.80" y1="2445.87" x2="3859.02" y2="2445.87" style="stroke:#EAF2F3;stroke-width:8.64"/>
	<line x1="390.80" y1="1791.71" x2="3859.02" y2="1791.71" style="stroke:#EAF2F3;stroke-width:8.64"/>
	<line x1="390.80" y1="1137.42" x2="3859.02" y2="1137.42" style="stroke:#EAF2F3;stroke-width:8.64"/>
	<line x1="390.80" y1="483.26" x2="3859.02" y2="483.26" style="stroke:#EAF2F3;stroke-width:8.64"/>
	<line x1="390.80" y1="483.26" x2="3859.02" y2="483.26" style="stroke:#1A476F;stroke-width:8.64"/>
	<defs>
		<path id="path_MetGsZCx" d="M618.87 490.81 L618.87 490.81 L636.57 490.81 L636.57 493.04 L654.27 493.04 L654.27 495.51 L672.09 495.51 L672.09 498.36 L689.78 498.36 L689.78 501.45 L707.60 501.45 L707.60 504.79 L725.30 504.79 L725.30 508.38 L743.00 508.38 L743.00 512.22 L760.82 512.22 L760.82 516.30 L778.51 516.30 L778.51 520.63 L796.33 520.63 L796.33 525.21 L814.03 525.21 L814.03 529.91 L831.72 529.91 L831.72 534.99 L849.54 534.99 L849.54 540.06 L867.24 540.06 L867.24 545.38 L885.06 545.38 L885.06 550.83 L902.76 550.83 L902.76 556.52 L920.45 556.52 L920.45 562.34 L938.27 562.34 L938.27 568.40 L955.97 568.40 L955.97 574.59 L973.66 574.59 L973.66 580.90 L991.49 580.90 L991.49 587.34 L1009.18 587.34 L1009.18 593.89 L1027.00 593.89 L1027.00 600.58 L1044.70 600.58 L1044.70 607.38 L1062.39 607.38 L1062.39 614.31 L1080.21 614.31 L1080.21 621.37 L1097.91 621.37 L1097.91 628.55 L1115.73 628.55 L1115.73 635.85 L1133.43 635.85 L1133.43 643.15 L1151.12 643.15 L1151.12 650.70 L1168.94 650.70 L1168.94 658.37 L1186.64 658.37 L1186.64 666.04 L1204.46 666.04 L1204.46 673.96 L1222.15 673.96 L1222.15 681.88 L1239.85 681.88 L1239.85 689.80 L1257.67 689.80 L1257.67 697.85 L1275.37 697.85 L1275.37 706.02 L1293.19 706.02 L1293.19 714.06 L1310.88 714.06 L1310.88 722.35 L1328.58 722.35 L1328.58 730.64 L1346.40 730.64 L1346.40 738.93 L1364.10 738.93 L1364.10 747.35 L1381.92 747.35 L1381.92 755.89 L1399.61 755.89 L1399.61 764.43 L1417.31 764.43 L1417.31 772.97 L1435.13 772.97 L1435.13 781.63 L1452.83 781.63 L1452.83 790.29 L1470.64 790.29 L1470.64 798.95 L1488.34 798.95 L1488.34 807.74 L1506.04 807.74 L1506.04 816.53 L1523.86 816.53 L1523.86 825.44 L1541.55 825.44 L1541.55 834.35 L1559.37 834.35 L1559.37 843.38 L1577.07 843.38 L1577.07 852.42 L1594.77 852.42 L1594.77 861.45 L1612.59 861.45 L1612.59 870.61 L1630.28 870.61 L1630.28 879.77 L1648.10 879.77 L1648.10 888.92 L1665.80 888.92 L1665.80 898.21 L1683.49 898.21 L1683.49 907.61 L1701.32 907.61 L1701.32 917.02 L1719.01 917.02 L1719.01 926.42 L1736.83 926.42 L1736.83 935.83 L1754.53 935.83 L1754.53 945.36 L1772.22 945.36 L1772.22 954.76 L1790.04 954.76 L1790.04 964.29 L1807.74 964.29 L1807.74 973.70 L1825.56 973.70 L1825.56 983.22 L1843.26 983.22 L1843.26 992.75 L1860.95 992.75 L1860.95 1002.28 L1878.77 1002.28 L1878.77 1011.81 L1896.47 1011.81 L1896.47 1021.34 L1914.29 1021.34 L1914.29 1030.99 L1931.98 1030.99 L1931.98 1040.65 L1949.68 1040.65 L1949.68 1050.18 L1967.50 1050.18 L1967.50 1059.70 L1985.20 1059.70 L1985.20 1069.36 L2003.02 1069.36 L2003.02 1079.01 L2020.71 1079.01 L2020.71 1088.54 L2038.41 1088.54 L2038.41 1098.19 L2056.23 1098.19 L2056.23 1107.84 L2073.93 1107.84 L2073.93 1117.50 L2091.75 1117.50 L2091.75 1127.15 L2109.44 1127.15 L2109.44 1136.93 L2127.14 1136.93 L2127.14 1146.58 L2144.96 1146.58 L2144.96 1156.23 L2162.66 1156.23 L2162.66 1166.01 L2180.47 1166.01 L2180.47 1175.79 L2198.17 1175.79 L2198.17 1185.56 L2215.87 1185.56 L2215.87 1195.34 L2233.69 1195.34 L2233.69 1205.24 L2251.38 1205.24 L2251.38 1215.02 L2269.20 1215.02 L2269.20 1224.92 L2286.90 1224.92 L2286.90 1234.69 L2304.60 1234.69 L2304.60 1244.59 L2322.42 1244.59 L2322.42 1254.49 L2340.11 1254.49 L2340.11 1264.39 L2357.93 1264.39 L2357.93 1274.29 L2375.63 1274.29 L2375.63 1284.32 L2393.32 1284.32 L2393.32 1294.34 L2411.14 1294.34 L2411.14 1304.37 L2428.84 1304.37 L2428.84 1314.51 L2446.66 1314.51 L2446.66 1324.54 L2464.36 1324.54 L2464.36 1334.56 L2482.05 1334.56 L2482.05 1344.71 L2499.87 1344.71 L2499.87 1354.98 L2517.57 1354.98 L2517.57 1365.13 L2535.39 1365.13 L2535.39 1375.28 L2553.09 1375.28 L2553.09 1385.55 L2570.78 1385.55 L2570.78 1395.82 L2588.60 1395.82 L2588.60 1405.97 L2606.30 1405.97 L2606.30 1416.12 L2624.12 1416.12 L2624.12 1426.26 L2641.82 1426.26 L2641.82 1436.53 L2659.51 1436.53 L2659.51 1446.81 L2677.33 1446.81 L2677.33 1456.95 L2695.03 1456.95 L2695.03 1467.23 L2712.85 1467.23 L2712.85 1477.50 L2730.54 1477.50 L2730.54 1487.77 L2748.24 1487.77 L2748.24 1498.04 L2766.06 1498.04 L2766.06 1508.44 L2783.76 1508.44 L2783.76 1518.71 L2801.58 1518.71 L2801.58 1528.98 L2819.27 1528.98 L2819.27 1539.37 L2836.97 1539.37 L2836.97 1549.77 L2854.79 1549.77 L2854.79 1560.29 L2872.49 1560.29 L2872.49 1570.68 L2890.18 1570.68 L2890.18 1581.08 L2908.00 1581.08 L2908.00 1591.60 L2925.70 1591.60 L2925.70 1601.99 L2943.52 1601.99 L2943.52 1612.39 L2961.21 1612.39 L2961.21 1622.78 L2978.91 1622.78 L2978.91 1633.06 L2996.73 1633.06 L2996.73 1643.45 L3014.43 1643.45 L3014.43 1653.85 L3032.25 1653.85 L3032.25 1664.12 L3049.94 1664.12 L3049.94 1674.51 L3067.64 1674.51 L3067.64 1684.79 L3085.46 1684.79 L3085.46 1695.18 L3103.16 1695.18 L3103.16 1705.45 L3120.97 1705.45 L3120.97 1715.72 L3138.67 1715.72 L3138.67 1726.12 L3156.37 1726.12 L3156.37 1736.39 L3174.19 1736.39 L3174.19 1746.54 L3191.88 1746.54 L3191.88 1756.81 L3209.70 1756.81 L3209.70 1767.08 L3227.40 1767.08 L3227.40 1777.35 L3245.10 1777.35 L3245.10 1787.62 L3262.92 1787.62 L3262.92 1797.90 L3280.61 1797.90 L3280.61 1808.04 L3298.43 1808.04 L3298.43 1818.32 L3316.13 1818.32 L3316.13 1828.59 L3333.82 1828.59 L3333.82 1838.73 L3351.64 1838.73 L3351.64 1849.01 L3369.34 1849.01 L3369.34 1859.28 L3387.16 1859.28 L3387.16 1869.55 L3404.86 1869.55 L3404.86 1879.82 L3422.55 1879.82 L3422.55 1890.09 L3440.37 1890.09 L3440.37 1900.36 L3458.07 1900.36 L3458.07 1910.76 L3475.89 1910.76 L3475.89 1920.91 L3493.59 1920.91 L3493.59 1931.18 L3511.28 1931.18 L3511.28 1941.45 L3529.10 1941.45 L3529.10 1951.72 L3546.80 1951.72 L3546.80 1961.87 L3564.62 1961.87 L3564.62 1972.14 L3582.32 1972.14 L3582.32 1982.29 L3600.01 1982.29 L3600.01 1992.56 L3617.83 1992.56 L3617.83 2002.71 L3635.53 2002.71 L3635.53 2012.98 L3653.35 2012.98 L3653.35 2023.13 L3671.04 2023.13 L3671.04 2033.40 L3688.74 2033.40 L3688.74 2043.55 L3706.56 2043.55 L3706.56 2053.82 L3724.26 2053.82 L3724.26 2064.09 L3742.08 2064.09 L3742.08 2074.24 L3759.77 2074.24 L3759.77 2084.39 L3777.47 2084.39 L3777.47 2094.66 L3795.29 2094.66 L3795.29 2104.81 L3795.29 574.71 L3795.29 574.22 L3777.47 574.22 L3777.47 573.72 L3759.77 573.72 L3759.77 573.23 L3742.08 573.23 L3742.08 572.73 L3724.26 572.73 L3724.26 572.24 L3706.56 572.24 L3706.56 571.74 L3688.74 571.74 L3688.74 571.25 L3671.04 571.25 L3671.04 570.75 L3653.35 570.75 L3653.35 570.26 L3635.53 570.26 L3635.53 569.89 L3617.83 569.89 L3617.83 569.39 L3600.01 569.39 L3600.01 568.90 L3582.32 568.90 L3582.32 568.40 L3564.62 568.40 L3564.62 567.91 L3546.80 567.91 L3546.80 567.41 L3529.10 567.41 L3529.10 566.92 L3511.28 566.92 L3511.28 566.42 L3493.59 566.42 L3493.59 565.93 L3475.89 565.93 L3475.89 565.31 L3458.07 565.31 L3458.07 564.81 L3440.37 564.81 L3440.37 564.32 L3422.55 564.32 L3422.55 563.70 L3404.86 563.70 L3404.86 563.20 L3387.16 563.20 L3387.16 562.71 L3369.34 562.71 L3369.34 562.09 L3351.64 562.09 L3351.64 561.60 L3333.82 561.60 L3333.82 561.10 L3316.13 561.10 L3316.13 560.61 L3298.43 560.61 L3298.43 560.11 L3280.61 560.11 L3280.61 559.61 L3262.92 559.61 L3262.92 559.12 L3245.10 559.12 L3245.10 558.62 L3227.40 558.62 L3227.40 558.01 L3209.70 558.01 L3209.70 557.51 L3191.88 557.51 L3191.88 557.02 L3174.19 557.02 L3174.19 556.52 L3156.37 556.52 L3156.37 555.90 L3138.67 555.90 L3138.67 555.28 L3120.97 555.28 L3120.97 554.79 L3103.16 554.79 L3103.16 554.17 L3085.46 554.17 L3085.46 553.55 L3067.64 553.55 L3067.64 552.93 L3049.94 552.93 L3049.94 552.31 L3032.25 552.31 L3032.25 551.69 L3014.43 551.69 L3014.43 551.08 L2996.73 551.08 L2996.73 550.46 L2978.91 550.46 L2978.91 549.84 L2961.21 549.84 L2961.21 549.10 L2943.52 549.10 L2943.52 548.48 L2925.70 548.48 L2925.70 547.73 L2908.00 547.73 L2908.00 546.99 L2890.18 546.99 L2890.18 546.25 L2872.49 546.25 L2872.49 545.51 L2854.79 545.51 L2854.79 544.76 L2836.97 544.76 L2836.97 544.15 L2819.27 544.15 L2819.27 543.40 L2801.58 543.40 L2801.58 542.78 L2783.76 542.78 L2783.76 542.17 L2766.06 542.17 L2766.06 541.55 L2748.24 541.55 L2748.24 540.93 L2730.54 540.93 L2730.54 540.31 L2712.85 540.31 L2712.85 539.69 L2695.03 539.69 L2695.03 539.07 L2677.33 539.07 L2677.33 538.45 L2659.51 538.45 L2659.51 537.83 L2641.82 537.83 L2641.82 537.22 L2624.12 537.22 L2624.12 536.72 L2606.30 536.72 L2606.30 536.10 L2588.60 536.10 L2588.60 535.48 L2570.78 535.48 L2570.78 534.86 L2553.09 534.86 L2553.09 534.25 L2535.39 534.25 L2535.39 533.63 L2517.57 533.63 L2517.57 533.01 L2499.87 533.01 L2499.87 532.39 L2482.05 532.39 L2482.05 531.77 L2464.36 531.77 L2464.36 531.15 L2446.66 531.15 L2446.66 530.66 L2428.84 530.66 L2428.84 530.16 L2411.14 530.16 L2411.14 529.54 L2393.32 529.54 L2393.32 529.05 L2375.63 529.05 L2375.63 528.55 L2357.93 528.55 L2357.93 528.06 L2340.11 528.06 L2340.11 527.56 L2322.42 527.56 L2322.42 527.19 L2304.60 527.19 L2304.60 526.70 L2286.90 526.70 L2286.90 526.20 L2269.20 526.20 L2269.20 525.83 L2251.38 525.83 L2251.38 525.46 L2233.69 525.46 L2233.69 524.96 L2215.87 524.96 L2215.87 524.47 L2198.17 524.47 L2198.17 524.10 L2180.47 524.10 L2180.47 523.60 L2162.66 523.60 L2162.66 523.23 L2144.96 523.23 L2144.96 522.74 L2127.14 522.74 L2127.14 522.37 L2109.44 522.37 L2109.44 521.99 L2091.75 521.99 L2091.75 521.50 L2073.93 521.50 L2073.93 521.13 L2056.23 521.13 L2056.23 520.63 L2038.41 520.63 L2038.41 520.26 L2020.71 520.26 L2020.71 519.77 L2003.02 519.77 L2003.02 519.39 L1985.20 519.39 L1985.20 518.90 L1967.50 518.90 L1967.50 518.40 L1949.68 518.40 L1949.68 517.91 L1931.98 517.91 L1931.98 517.41 L1914.29 517.41 L1914.29 516.92 L1896.47 516.92 L1896.47 516.30 L1878.77 516.30 L1878.77 515.81 L1860.95 515.81 L1860.95 515.31 L1843.26 515.31 L1843.26 514.69 L1825.56 514.69 L1825.56 514.20 L1807.74 514.20 L1807.74 513.58 L1790.04 513.58 L1790.04 512.96 L1772.22 512.96 L1772.22 512.34 L1754.53 512.34 L1754.53 511.72 L1736.83 511.72 L1736.83 510.98 L1719.01 510.98 L1719.01 510.36 L1701.32 510.36 L1701.32 509.74 L1683.49 509.74 L1683.49 509.00 L1665.80 509.00 L1665.80 508.38 L1648.10 508.38 L1648.10 507.76 L1630.28 507.76 L1630.28 507.27 L1612.59 507.27 L1612.59 506.65 L1594.77 506.65 L1594.77 506.15 L1577.07 506.15 L1577.07 505.53 L1559.37 505.53 L1559.37 504.92 L1541.55 504.92 L1541.55 504.42 L1523.86 504.42 L1523.86 503.80 L1506.04 503.80 L1506.04 503.31 L1488.34 503.31 L1488.34 502.69 L1470.64 502.69 L1470.64 502.19 L1452.83 502.19 L1452.83 501.70 L1435.13 501.70 L1435.13 501.08 L1417.31 501.08 L1417.31 500.58 L1399.61 500.58 L1399.61 499.97 L1381.92 499.97 L1381.92 499.35 L1364.10 499.35 L1364.10 498.85 L1346.40 498.85 L1346.40 498.36 L1328.58 498.36 L1328.58 497.74 L1310.88 497.74 L1310.88 497.24 L1293.19 497.24 L1293.19 496.75 L1275.37 496.75 L1275.37 496.13 L1257.67 496.13 L1257.67 495.63 L1239.85 495.63 L1239.85 495.02 L1222.15 495.02 L1222.15 494.40 L1204.46 494.40 L1204.46 493.78 L1186.64 493.78 L1186.64 493.16 L1168.94 493.16 L1168.94 492.66 L1151.12 492.66 L1151.12 492.17 L1133.43 492.17 L1133.43 491.67 L1115.73 491.67 L1115.73 491.18 L1097.91 491.18 L1097.91 490.68 L1080.21 490.68 L1080.21 490.19 L1062.39 490.19 L1062.39 489.82 L1044.70 489.82 L1044.70 489.32 L1027.00 489.32 L1027.00 488.95 L1009.18 488.95 L1009.18 488.58 L991.49 488.58 L991.49 488.09 L973.66 488.09 L973.66 487.71 L955.97 487.71 L955.97 487.22 L938.27 487.22 L938.27 486.85 L920.45 486.85 L920.45 486.48 L902.76 486.48 L902.76 486.23 L885.06 486.23 L885.06 485.86 L867.24 485.86 L867.24 485.61 L849.54 485.61 L849.54 485.36 L831.72 485.36 L831.72 484.99 L814.03 484.99 L814.03 484.74 L796.33 484.74 L796.33 484.50 L778.51 484.50 L778.51 484.25 L760.82 484.25 L760.82 484.13 L743.00 484.13 L743.00 484.00 L725.30 484.00 L725.30 483.88 L707.60 483.88 L707.60 483.75 L689.78 483.75 L689.78 483.63 L672.09 483.63 L672.09 483.51 L654.27 483.51 L654.27 483.51 L636.57 483.51 L636.57 483.38 L618.87 483.38 L618.87 490.81 Z" stroke-linejoin="round"/>
	</defs>
	<defs>
		<clipPath id="clipPath_sLMEKsLC">
			<use xlink:href="#path_MetGsZCx"/>
		</clipPath>
	</defs>
	<use xlink:href="#path_MetGsZCx" style="stroke:none;fill:#999999;fill-opacity:0.65"/>
	<use xlink:href="#path_MetGsZCx" style="fill:none;stroke:#808080;stroke-opacity:0.65;stroke-width:17.28" clip-path="url(#clipPath_sLMEKsLC)"/>
	<path d=" M618.75 487.22 L636.45 487.22 L636.45 488.33 L654.27 488.33 L654.27 489.57 L671.96 489.57 L671.96 491.06 L689.78 491.06 L689.78 492.66 L707.48 492.66 L707.48 494.40 L725.17 494.40 L725.17 496.25 L743.00 496.25 L743.00 498.23 L760.69 498.23 L760.69 500.34 L778.51 500.34 L778.51 502.56 L796.21 502.56 L796.21 505.04 L813.90 505.04 L813.90 507.51 L831.72 507.51 L831.72 510.24 L849.42 510.24 L849.42 512.84 L867.24 512.84 L867.24 515.68 L884.94 515.68 L884.94 518.53 L902.63 518.53 L902.63 521.62 L920.45 521.62 L920.45 524.72 L938.15 524.72 L938.15 527.93 L955.97 527.93 L955.97 531.15 L973.66 531.15 L973.66 534.62 L991.36 534.62 L991.36 538.08 L1009.18 538.08 L1009.18 541.42 L1026.88 541.42 L1026.88 545.01 L1044.70 545.01 L1044.70 548.60 L1062.39 548.60 L1062.39 552.31 L1080.09 552.31 L1080.09 556.15 L1097.91 556.15 L1097.91 559.99 L1115.61 559.99 L1115.61 563.82 L1133.43 563.82 L1133.43 567.66 L1151.12 567.66 L1151.12 571.74 L1168.82 571.74 L1168.82 575.83 L1186.64 575.83 L1186.64 580.03 L1204.34 580.03 L1204.34 584.24 L1222.15 584.24 L1222.15 588.45 L1239.85 588.45 L1239.85 592.78 L1257.55 592.78 L1257.55 597.11 L1275.37 597.11 L1275.37 601.44 L1293.06 601.44 L1293.06 605.65 L1310.88 605.65 L1310.88 610.11 L1328.58 610.11 L1328.58 614.56 L1346.28 614.56 L1346.28 618.89 L1364.10 618.89 L1364.10 623.47 L1381.79 623.47 L1381.79 627.93 L1399.61 627.93 L1399.61 632.51 L1417.31 632.51 L1417.31 637.08 L1435.01 637.08 L1435.01 641.66 L1452.83 641.66 L1452.83 646.24 L1470.52 646.24 L1470.52 650.95 L1488.34 650.95 L1488.34 655.52 L1506.04 655.52 L1506.04 660.23 L1523.73 660.23 L1523.73 664.93 L1541.55 664.93 L1541.55 669.76 L1559.25 669.76 L1559.25 674.46 L1577.07 674.46 L1577.07 679.28 L1594.77 679.28 L1594.77 684.11 L1612.46 684.11 L1612.46 688.94 L1630.28 688.94 L1630.28 693.89 L1647.98 693.89 L1647.98 698.71 L1665.80 698.71 L1665.80 703.66 L1683.49 703.66 L1683.49 708.74 L1701.19 708.74 L1701.19 713.69 L1719.01 713.69 L1719.01 718.76 L1736.71 718.76 L1736.71 723.84 L1754.53 723.84 L1754.53 728.91 L1772.22 728.91 L1772.22 733.86 L1789.92 733.86 L1789.92 738.93 L1807.74 738.93 L1807.74 744.01 L1825.44 744.01 L1825.44 749.08 L1843.26 749.08 L1843.26 754.03 L1860.95 754.03 L1860.95 759.11 L1878.65 759.11 L1878.65 764.18 L1896.47 764.18 L1896.47 769.25 L1914.16 769.25 L1914.16 774.33 L1931.86 774.33 L1931.86 779.28 L1949.68 779.28 L1949.68 784.35 L1967.38 784.35 L1967.38 789.43 L1985.20 789.43 L1985.20 794.50 L2002.89 794.50 L2002.89 799.45 L2020.59 799.45 L2020.59 804.52 L2038.41 804.52 L2038.41 809.47 L2056.11 809.47 L2056.11 814.55 L2073.93 814.55 L2073.93 819.62 L2091.62 819.62 L2091.62 824.70 L2109.32 824.70 L2109.32 829.65 L2127.14 829.65 L2127.14 834.72 L2144.84 834.72 L2144.84 839.79 L2162.66 839.79 L2162.66 844.87 L2180.35 844.87 L2180.35 850.07 L2198.05 850.07 L2198.05 855.14 L2215.87 855.14 L2215.87 860.21 L2233.56 860.21 L2233.56 865.41 L2251.38 865.41 L2251.38 870.48 L2269.08 870.48 L2269.08 875.68 L2286.78 875.68 L2286.78 880.76 L2304.60 880.76 L2304.60 885.95 L2322.29 885.95 L2322.29 891.15 L2340.11 891.15 L2340.11 896.35 L2357.81 896.35 L2357.81 901.55 L2375.51 901.55 L2375.51 906.74 L2393.32 906.74 L2393.32 912.07 L2411.02 912.07 L2411.02 917.26 L2428.84 917.26 L2428.84 922.59 L2446.54 922.59 L2446.54 927.91 L2464.23 927.91 L2464.23 933.23 L2482.05 933.23 L2482.05 938.67 L2499.75 938.67 L2499.75 943.99 L2517.57 943.99 L2517.57 949.44 L2535.27 949.44 L2535.27 954.76 L2552.96 954.76 L2552.96 960.21 L2570.78 960.21 L2570.78 965.65 L2588.48 965.65 L2588.48 971.10 L2606.30 971.10 L2606.30 976.42 L2623.99 976.42 L2623.99 981.86 L2641.69 981.86 L2641.69 987.31 L2659.51 987.31 L2659.51 992.63 L2677.21 992.63 L2677.21 998.07 L2695.03 998.07 L2695.03 1003.52 L2712.72 1003.52 L2712.72 1008.97 L2730.42 1008.97 L2730.42 1014.41 L2748.24 1014.41 L2748.24 1019.86 L2765.94 1019.86 L2765.94 1025.30 L2783.76 1025.30 L2783.76 1030.75 L2801.45 1030.75 L2801.45 1036.31 L2819.15 1036.31 L2819.15 1041.76 L2836.97 1041.76 L2836.97 1047.33 L2854.66 1047.33 L2854.66 1052.90 L2872.49 1052.90 L2872.49 1058.59 L2890.18 1058.59 L2890.18 1064.16 L2907.88 1064.16 L2907.88 1069.73 L2925.70 1069.73 L2925.70 1075.30 L2943.39 1075.30 L2943.39 1080.87 L2961.21 1080.87 L2961.21 1086.31 L2978.91 1086.31 L2978.91 1091.76 L2996.61 1091.76 L2996.61 1097.33 L3014.43 1097.33 L3014.43 1102.77 L3032.12 1102.77 L3032.12 1108.34 L3049.94 1108.34 L3049.94 1113.78 L3067.64 1113.78 L3067.64 1119.23 L3085.34 1119.23 L3085.34 1124.68 L3103.16 1124.68 L3103.16 1130.12 L3120.85 1130.12 L3120.85 1135.57 L3138.67 1135.57 L3138.67 1141.01 L3156.37 1141.01 L3156.37 1146.46 L3174.06 1146.46 L3174.06 1151.90 L3191.88 1151.90 L3191.88 1157.22 L3209.58 1157.22 L3209.58 1162.67 L3227.40 1162.67 L3227.40 1167.99 L3245.10 1167.99 L3245.10 1173.43 L3262.79 1173.43 L3262.79 1178.76 L3280.61 1178.76 L3280.61 1184.20 L3298.31 1184.20 L3298.31 1189.52 L3316.13 1189.52 L3316.13 1194.84 L3333.82 1194.84 L3333.82 1200.29 L3351.52 1200.29 L3351.52 1205.61 L3369.34 1205.61 L3369.34 1211.06 L3387.04 1211.06 L3387.04 1216.50 L3404.86 1216.50 L3404.86 1221.82 L3422.55 1221.82 L3422.55 1227.27 L3440.25 1227.27 L3440.25 1232.71 L3458.07 1232.71 L3458.07 1238.16 L3475.77 1238.16 L3475.77 1243.48 L3493.59 1243.48 L3493.59 1248.80 L3511.28 1248.80 L3511.28 1254.25 L3528.98 1254.25 L3528.98 1259.57 L3546.80 1259.57 L3546.80 1265.01 L3564.49 1265.01 L3564.49 1270.33 L3582.32 1270.33 L3582.32 1275.65 L3600.01 1275.65 L3600.01 1280.98 L3617.71 1280.98 L3617.71 1286.30 L3635.53 1286.30 L3635.53 1291.74 L3653.22 1291.74 L3653.22 1297.06 L3671.04 1297.06 L3671.04 1302.39 L3688.74 1302.39 L3688.74 1307.71 L3706.44 1307.71 L3706.44 1313.15 L3724.26 1313.15 L3724.26 1318.47 L3741.95 1318.47 L3741.95 1323.80 L3759.77 1323.80 L3759.77 1329.12 L3777.47 1329.12 L3777.47 1334.44 L3795.16 1334.44 L3795.16 1339.76" stroke-linejoin="round" style="fill:none;stroke:#000000;stroke-width:8.64"/>
	<line x1="390.80" y1="2509.23" x2="390.80" y2="419.90" style="stroke:#000000;stroke-width:5.76"/>
	<line x1="390.80" y1="2445.87" x2="350.83" y2="2445.87" style="stroke:#000000;stroke-width:5.76"/>
	<text x="300.72" y="2445.87" style="font-family:'Helvetica';font-size:99.99px;fill:#000000" transform="rotate(-90 300.72,2445.87)" text-anchor="middle">-150</text>
	<line x1="390.80" y1="1791.71" x2="350.83" y2="1791.71" style="stroke:#000000;stroke-width:5.76"/>
	<text x="300.72" y="1791.71" style="font-family:'Helvetica';font-size:99.99px;fill:#000000" transform="rotate(-90 300.72,1791.71)" text-anchor="middle">-100</text>
	<line x1="390.80" y1="1137.42" x2="350.83" y2="1137.42" style="stroke:#000000;stroke-width:5.76"/>
	<text x="300.72" y="1137.42" style="font-family:'Helvetica';font-size:99.99px;fill:#000000" transform="rotate(-90 300.72,1137.42)" text-anchor="middle">-50</text>
	<line x1="390.80" y1="483.26" x2="350.83" y2="483.26" style="stroke:#000000;stroke-width:5.76"/>
	<text x="300.72" y="483.26" style="font-family:'Helvetica';font-size:99.99px;fill:#000000" transform="rotate(-90 300.72,483.26)" text-anchor="middle">0</text>
	<text x="190.71" y="1464.63" style="font-family:'Helvetica';font-size:99.99px;fill:#000000" transform="rotate(-90 190.71,1464.63)" text-anchor="middle">Difference in Lengths</text>
	<line x1="390.80" y1="2509.23" x2="3859.02" y2="2509.23" style="stroke:#000000;stroke-width:5.76"/>
	<line x1="454.16" y1="2509.23" x2="454.16" y2="2549.21" style="stroke:#000000;stroke-width:5.76"/>
	<text x="454.16" y="2625.15" style="font-family:'Helvetica';font-size:79.94px;fill:#000000" text-anchor="middle">0</text>
	<line x1="654.64" y1="2509.23" x2="654.64" y2="2549.21" style="stroke:#000000;stroke-width:5.76"/>
	<text x="654.64" y="2625.15" style="font-family:'Helvetica';font-size:79.94px;fill:#000000" text-anchor="middle">.3</text>
	<line x1="855.11" y1="2509.23" x2="855.11" y2="2549.21" style="stroke:#000000;stroke-width:5.76"/>
	<text x="855.11" y="2625.15" style="font-family:'Helvetica';font-size:79.94px;fill:#000000" text-anchor="middle">.6</text>
	<line x1="1055.59" y1="2509.23" x2="1055.59" y2="2549.21" style="stroke:#000000;stroke-width:5.76"/>
	<text x="1055.59" y="2625.15" style="font-family:'Helvetica';font-size:79.94px;fill:#000000" text-anchor="middle">.9</text>
	<line x1="1256.06" y1="2509.23" x2="1256.06" y2="2549.21" style="stroke:#000000;stroke-width:5.76"/>
	<text x="1256.06" y="2625.15" style="font-family:'Helvetica';font-size:79.94px;fill:#000000" text-anchor="middle">1.2</text>
	<line x1="1456.66" y1="2509.23" x2="1456.66" y2="2549.21" style="stroke:#000000;stroke-width:5.76"/>
	<text x="1456.66" y="2625.15" style="font-family:'Helvetica';font-size:79.94px;fill:#000000" text-anchor="middle">1.5</text>
	<line x1="1657.14" y1="2509.23" x2="1657.14" y2="2549.21" style="stroke:#000000;stroke-width:5.76"/>
	<text x="1657.14" y="2625.15" style="font-family:'Helvetica';font-size:79.94px;fill:#000000" text-anchor="middle">1.8</text>
	<line x1="1857.61" y1="2509.23" x2="1857.61" y2="2549.21" style="stroke:#000000;stroke-width:5.76"/>
	<text x="1857.61" y="2625.15" style="font-family:'Helvetica';font-size:79.94px;fill:#000000" text-anchor="middle">2.1</text>
	<line x1="2058.09" y1="2509.23" x2="2058.09" y2="2549.21" style="stroke:#000000;stroke-width:5.76"/>
	<text x="2058.09" y="2625.15" style="font-family:'Helvetica';font-size:79.94px;fill:#000000" text-anchor="middle">2.4</text>
	<line x1="2258.56" y1="2509.23" x2="2258.56" y2="2549.21" style="stroke:#000000;stroke-width:5.76"/>
	<text x="2258.56" y="2625.15" style="font-family:'Helvetica';font-size:79.94px;fill:#000000" text-anchor="middle">2.7</text>
	<line x1="2459.04" y1="2509.23" x2="2459.04" y2="2549.21" style="stroke:#000000;stroke-width:5.76"/>
	<text x="2459.04" y="2625.15" style="font-family:'Helvetica';font-size:79.94px;fill:#000000" text-anchor="middle">3</text>
	<line x1="2659.64" y1="2509.23" x2="2659.64" y2="2549.21" style="stroke:#000000;stroke-width:5.76"/>
	<text x="2659.64" y="2625.15" style="font-family:'Helvetica';font-size:79.94px;fill:#000000" text-anchor="middle">3.3</text>
	<line x1="2860.11" y1="2509.23" x2="2860.11" y2="2549.21" style="stroke:#000000;stroke-width:5.76"/>
	<text x="2860.11" y="2625.15" style="font-family:'Helvetica';font-size:79.94px;fill:#000000" text-anchor="middle">3.6</text>
	<line x1="3060.59" y1="2509.23" x2="3060.59" y2="2549.21" style="stroke:#000000;stroke-width:5.76"/>
	<text x="3060.59" y="2625.15" style="font-family:'Helvetica';font-size:79.94px;fill:#000000" text-anchor="middle">3.9</text>
	<line x1="3261.06" y1="2509.23" x2="3261.06" y2="2549.21" style="stroke:#000000;stroke-width:5.76"/>
	<text x="3261.06" y="2625.15" style="font-family:'Helvetica';font-size:79.94px;fill:#000000" text-anchor="middle">4.2</text>
	<line x1="3461.53" y1="2509.23" x2="3461.53" y2="2549.21" style="stroke:#000000;stroke-width:5.76"/>
	<text x="3461.53" y="2625.15" style="font-family:'Helvetica';font-size:79.94px;fill:#000000" text-anchor="middle">4.5</text>
	<line x1="3662.01" y1="2509.23" x2="3662.01" y2="2549.21" style="stroke:#000000;stroke-width:5.76"/>
	<text x="3662.01" y="2625.15" style="font-family:'Helvetica';font-size:79.94px;fill:#000000" text-anchor="middle">4.8</text>
	<line x1="3862.61" y1="2509.23" x2="3862.61" y2="2549.21" style="stroke:#000000;stroke-width:5.76"/>
	<text x="3862.61" y="2625.15" style="font-family:'Helvetica';font-size:79.94px;fill:#000000" text-anchor="middle">5.1</text>
	<text x="2124.91" y="2729.16" style="font-family:'Helvetica';font-size:99.99px;fill:#000000" text-anchor="middle">Time (years)</text>
	<rect x="425.33" y="2148.24" width="993.22" height="326.46" style="fill:#FFFFFF"/>
	<rect x="428.21" y="2151.12" width="987.46" height="320.70" style="fill:none;stroke:#000000;stroke-width:5.76"/>
	<rect x="468.52" y="2191.43" width="374.47" height="99.99" style="fill:#999999;fill-opacity:0.65"/>
	<rect x="472.84" y="2195.75" width="365.83" height="91.35" style="fill:none;stroke:#808080;stroke-opacity:0.65;stroke-width:8.64"/>
	<line x1="468.52" y1="2381.52" x2="842.99" y2="2381.52" style="stroke:#000000;stroke-width:8.64"/>
	<text x="902.88" y="2276.46" style="font-family:'Helvetica';font-size:99.99px;fill:#000000">CI95%</text>
	<text x="902.88" y="2416.55" style="font-family:'Helvetica';font-size:99.99px;fill:#000000">Difference</text>
	<text x="2124.91" y="369.63" style="font-family:'Helvetica';font-size:110.01px;fill:#000000" text-anchor="middle">from 2nd Readmission</text>
	<text x="2124.91" y="215.98" style="font-family:'Helvetica';font-size:139.96px;fill:#1E2D53" text-anchor="middle">Difference in Lengths of Stay (2nd patient)</text>
</svg>
