<?xml version="1.0" encoding="UTF-8" standalone="no"?>
<!-- This is a Stata 16.1 generated SVG file (http://www.stata.com) -->

<svg version="1.1" width="5.50in" height="4.00in" viewBox="0 0 3960 2880" xmlns="http://www.w3.org/2000/svg" xmlns:xlink="http://www.w3.org/1999/xlink">
	<desc>Stata Graph - diff_mod_los2435_3y_rp_22</desc>
	<rect x="0" y="0" width="3960" height="2880" style="fill:#EAF2F3;stroke:none"/>
	<rect x="0.00" y="0.00" width="3959.88" height="2880.00" style="fill:#FFFFFF"/>
	<rect x="2.88" y="2.88" width="3954.12" height="2874.24" style="fill:none;stroke:#FFFFFF;stroke-width:5.76"/>
	<rect x="529.90" y="419.90" width="3329.12" height="2089.34" style="fill:#FFFFFF"/>
	<rect x="532.78" y="422.78" width="3323.36" height="2083.58" style="fill:none;stroke:#FFFFFF;stroke-width:5.76"/>
	<line x1="529.90" y1="2203.93" x2="3859.02" y2="2203.93" style="stroke:#EAF2F3;stroke-width:8.64"/>
	<line x1="529.90" y1="1961.99" x2="3859.02" y2="1961.99" style="stroke:#EAF2F3;stroke-width:8.64"/>
	<line x1="529.90" y1="1719.93" x2="3859.02" y2="1719.93" style="stroke:#EAF2F3;stroke-width:8.64"/>
	<line x1="529.90" y1="1477.99" x2="3859.02" y2="1477.99" style="stroke:#EAF2F3;stroke-width:8.64"/>
	<line x1="529.90" y1="1236.05" x2="3859.02" y2="1236.05" style="stroke:#EAF2F3;stroke-width:8.64"/>
	<line x1="529.90" y1="994.11" x2="3859.02" y2="994.11" style="stroke:#EAF2F3;stroke-width:8.64"/>
	<line x1="529.90" y1="752.18" x2="3859.02" y2="752.18" style="stroke:#EAF2F3;stroke-width:8.64"/>
	<line x1="529.90" y1="1464.63" x2="3859.02" y2="1464.63" style="stroke:#1A476F;stroke-width:8.64"/>
	<defs>
		<path id="path_RFSjQYMU" d="M751.16 1460.79 L751.16 1460.79 L768.12 1460.79 L768.12 1460.17 L785.19 1460.17 L785.19 1459.55 L802.15 1459.55 L802.15 1458.81 L819.10 1458.81 L819.10 1458.07 L836.18 1458.07 L836.18 1457.33 L853.13 1457.33 L853.13 1456.58 L870.21 1456.58 L870.21 1455.72 L887.16 1455.72 L887.16 1454.85 L904.12 1454.85 L904.12 1453.86 L921.20 1453.86 L921.20 1452.99 L938.15 1452.99 L938.15 1452.00 L955.23 1452.00 L955.23 1451.01 L972.18 1451.01 L972.18 1450.02 L989.26 1450.02 L989.26 1449.03 L1006.21 1449.03 L1006.21 1448.04 L1023.16 1448.04 L1023.16 1446.93 L1040.24 1446.93 L1040.24 1445.82 L1057.20 1445.82 L1057.20 1444.83 L1074.27 1444.83 L1074.27 1443.59 L1091.23 1443.59 L1091.23 1442.48 L1108.31 1442.48 L1108.31 1441.36 L1125.26 1441.36 L1125.26 1440.12 L1142.21 1440.12 L1142.21 1439.01 L1159.29 1439.01 L1159.29 1437.77 L1176.24 1437.77 L1176.24 1436.53 L1193.32 1436.53 L1193.32 1435.30 L1210.28 1435.30 L1210.28 1434.06 L1227.35 1434.06 L1227.35 1432.82 L1244.31 1432.82 L1244.31 1431.58 L1261.26 1431.58 L1261.26 1430.22 L1278.34 1430.22 L1278.34 1428.99 L1295.29 1428.99 L1295.29 1427.75 L1312.37 1427.75 L1312.37 1426.51 L1329.32 1426.51 L1329.32 1425.15 L1346.40 1425.15 L1346.40 1423.91 L1363.35 1423.91 L1363.35 1422.55 L1380.31 1422.55 L1380.31 1421.19 L1397.38 1421.19 L1397.38 1419.95 L1414.34 1419.95 L1414.34 1418.59 L1431.42 1418.59 L1431.42 1417.23 L1448.37 1417.23 L1448.37 1415.87 L1465.45 1415.87 L1465.45 1414.51 L1482.40 1414.51 L1482.40 1413.15 L1499.36 1413.15 L1499.36 1411.66 L1516.43 1411.66 L1516.43 1410.30 L1533.39 1410.30 L1533.39 1408.94 L1550.46 1408.94 L1550.46 1407.58 L1567.42 1407.58 L1567.42 1406.09 L1584.49 1406.09 L1584.49 1404.73 L1601.45 1404.73 L1601.45 1403.25 L1618.40 1403.25 L1618.40 1401.88 L1635.48 1401.88 L1635.48 1400.40 L1652.43 1400.40 L1652.43 1399.04 L1669.51 1399.04 L1669.51 1397.55 L1686.46 1397.55 L1686.46 1396.19 L1703.54 1396.19 L1703.54 1394.71 L1720.50 1394.71 L1720.50 1393.22 L1737.45 1393.22 L1737.45 1391.86 L1754.53 1391.86 L1754.53 1390.37 L1771.48 1390.37 L1771.48 1388.89 L1788.56 1388.89 L1788.56 1387.40 L1805.51 1387.40 L1805.51 1385.92 L1822.59 1385.92 L1822.59 1384.43 L1839.54 1384.43 L1839.54 1383.07 L1856.50 1383.07 L1856.50 1381.59 L1873.58 1381.59 L1873.58 1380.10 L1890.53 1380.10 L1890.53 1378.62 L1907.61 1378.62 L1907.61 1377.13 L1924.56 1377.13 L1924.56 1375.65 L1941.51 1375.65 L1941.51 1374.16 L1958.59 1374.16 L1958.59 1372.80 L1975.55 1372.80 L1975.55 1371.32 L1992.62 1371.32 L1992.62 1369.83 L2009.58 1369.83 L2009.58 1368.35 L2026.65 1368.35 L2026.65 1366.86 L2043.61 1366.86 L2043.61 1365.50 L2060.56 1365.50 L2060.56 1364.02 L2077.64 1364.02 L2077.64 1362.53 L2094.59 1362.53 L2094.59 1361.05 L2111.67 1361.05 L2111.67 1359.68 L2128.62 1359.68 L2128.62 1358.20 L2145.70 1358.20 L2145.70 1356.71 L2162.66 1356.71 L2162.66 1355.23 L2179.61 1355.23 L2179.61 1353.87 L2196.69 1353.87 L2196.69 1352.38 L2213.64 1352.38 L2213.64 1350.90 L2230.72 1350.90 L2230.72 1349.41 L2247.67 1349.41 L2247.67 1347.93 L2264.75 1347.93 L2264.75 1346.57 L2281.70 1346.57 L2281.70 1345.08 L2298.66 1345.08 L2298.66 1343.60 L2315.73 1343.60 L2315.73 1342.23 L2332.69 1342.23 L2332.69 1340.75 L2349.76 1340.75 L2349.76 1339.26 L2366.72 1339.26 L2366.72 1337.90 L2383.80 1337.90 L2383.80 1336.42 L2400.75 1336.42 L2400.75 1334.93 L2417.70 1334.93 L2417.70 1333.57 L2434.78 1333.57 L2434.78 1332.09 L2451.74 1332.09 L2451.74 1330.73 L2468.81 1330.73 L2468.81 1329.24 L2485.77 1329.24 L2485.77 1327.76 L2502.84 1327.76 L2502.84 1326.39 L2519.80 1326.39 L2519.80 1324.91 L2536.75 1324.91 L2536.75 1323.55 L2553.83 1323.55 L2553.83 1322.06 L2570.78 1322.06 L2570.78 1320.58 L2587.86 1320.58 L2587.86 1319.22 L2604.81 1319.22 L2604.81 1317.73 L2621.89 1317.73 L2621.89 1316.25 L2638.84 1316.25 L2638.84 1314.88 L2655.80 1314.88 L2655.80 1313.40 L2672.88 1313.40 L2672.88 1311.91 L2689.83 1311.91 L2689.83 1310.55 L2706.91 1310.55 L2706.91 1309.07 L2723.86 1309.07 L2723.86 1307.58 L2740.94 1307.58 L2740.94 1306.22 L2757.89 1306.22 L2757.89 1304.74 L2774.85 1304.74 L2774.85 1303.25 L2791.92 1303.25 L2791.92 1301.89 L2808.88 1301.89 L2808.88 1300.41 L2825.95 1300.41 L2825.95 1298.92 L2842.91 1298.92 L2842.91 1297.44 L2859.99 1297.44 L2859.99 1296.07 L2876.94 1296.07 L2876.94 1294.59 L2893.89 1294.59 L2893.89 1293.10 L2910.97 1293.10 L2910.97 1291.62 L2927.93 1291.62 L2927.93 1290.26 L2945.00 1290.26 L2945.00 1288.77 L2961.96 1288.77 L2961.96 1287.29 L2979.03 1287.29 L2979.03 1285.80 L2995.99 1285.80 L2995.99 1284.44 L3012.94 1284.44 L3012.94 1282.96 L3030.02 1282.96 L3030.02 1281.47 L3046.97 1281.47 L3046.97 1279.99 L3064.05 1279.99 L3064.05 1278.50 L3081.00 1278.50 L3081.00 1277.02 L3097.96 1277.02 L3097.96 1275.53 L3115.03 1275.53 L3115.03 1274.17 L3131.99 1274.17 L3131.99 1272.68 L3149.07 1272.68 L3149.07 1271.20 L3166.02 1271.20 L3166.02 1269.71 L3183.10 1269.71 L3183.10 1268.23 L3200.05 1268.23 L3200.05 1266.74 L3217.01 1266.74 L3217.01 1265.38 L3234.08 1265.38 L3234.08 1263.90 L3251.04 1263.90 L3251.04 1262.41 L3268.11 1262.41 L3268.11 1260.93 L3285.07 1260.93 L3285.07 1259.44 L3302.14 1259.44 L3302.14 1257.96 L3319.10 1257.96 L3319.10 1256.47 L3336.05 1256.47 L3336.05 1254.99 L3353.13 1254.99 L3353.13 1253.63 L3370.08 1253.63 L3370.08 1252.14 L3387.16 1252.14 L3387.16 1250.66 L3404.11 1250.66 L3404.11 1249.17 L3421.19 1249.17 L3421.19 1247.69 L3438.15 1247.69 L3438.15 1246.33 L3455.10 1246.33 L3455.10 1244.84 L3472.18 1244.84 L3472.18 1243.36 L3489.13 1243.36 L3489.13 1241.87 L3506.21 1241.87 L3506.21 1240.39 L3523.16 1240.39 L3523.16 1239.02 L3540.24 1239.02 L3540.24 1237.54 L3557.19 1237.54 L3557.19 1236.05 L3574.15 1236.05 L3574.15 1234.57 L3591.22 1234.57 L3591.22 1233.21 L3608.18 1233.21 L3608.18 1231.72 L3625.26 1231.72 L3625.26 1230.36 L3642.21 1230.36 L3642.21 1228.88 L3659.29 1228.88 L3659.29 1227.51 L3676.24 1227.51 L3676.24 1226.03 L3693.20 1226.03 L3693.20 1224.54 L3710.27 1224.54 L3710.27 1223.18 L3727.23 1223.18 L3727.23 1221.70 L3744.30 1221.70 L3744.30 1220.34 L3761.26 1220.34 L3761.26 1218.85 L3778.34 1218.85 L3778.34 1217.49 L3795.29 1217.49 L3795.29 1216.13 L3795.29 1019.61 L3795.29 1022.33 L3778.34 1022.33 L3778.34 1025.05 L3761.26 1025.05 L3761.26 1027.78 L3744.30 1027.78 L3744.30 1030.62 L3727.23 1030.62 L3727.23 1033.34 L3710.27 1033.34 L3710.27 1036.07 L3693.20 1036.07 L3693.20 1038.91 L3676.24 1038.91 L3676.24 1041.64 L3659.29 1041.64 L3659.29 1044.36 L3642.21 1044.36 L3642.21 1047.08 L3625.26 1047.08 L3625.26 1049.80 L3608.18 1049.80 L3608.18 1052.65 L3591.22 1052.65 L3591.22 1055.37 L3574.15 1055.37 L3574.15 1058.10 L3557.19 1058.10 L3557.19 1060.94 L3540.24 1060.94 L3540.24 1063.66 L3523.16 1063.66 L3523.16 1066.39 L3506.21 1066.39 L3506.21 1069.23 L3489.13 1069.23 L3489.13 1071.96 L3472.18 1071.96 L3472.18 1074.68 L3455.10 1074.68 L3455.10 1077.52 L3438.15 1077.52 L3438.15 1080.25 L3421.19 1080.25 L3421.19 1082.97 L3404.11 1082.97 L3404.11 1085.69 L3387.16 1085.69 L3387.16 1088.54 L3370.08 1088.54 L3370.08 1091.26 L3353.13 1091.26 L3353.13 1093.98 L3336.05 1093.98 L3336.05 1096.71 L3319.10 1096.71 L3319.10 1099.55 L3302.14 1099.55 L3302.14 1102.28 L3285.07 1102.28 L3285.07 1105.00 L3268.11 1105.00 L3268.11 1107.72 L3251.04 1107.72 L3251.04 1110.57 L3234.08 1110.57 L3234.08 1113.29 L3217.01 1113.29 L3217.01 1116.01 L3200.05 1116.01 L3200.05 1118.73 L3183.10 1118.73 L3183.10 1121.46 L3166.02 1121.46 L3166.02 1124.18 L3149.07 1124.18 L3149.07 1126.90 L3131.99 1126.90 L3131.99 1129.63 L3115.03 1129.63 L3115.03 1132.35 L3097.96 1132.35 L3097.96 1135.07 L3081.00 1135.07 L3081.00 1137.79 L3064.05 1137.79 L3064.05 1140.52 L3046.97 1140.52 L3046.97 1143.24 L3030.02 1143.24 L3030.02 1145.96 L3012.94 1145.96 L3012.94 1148.68 L2995.99 1148.68 L2995.99 1151.41 L2979.03 1151.41 L2979.03 1154.00 L2961.96 1154.00 L2961.96 1156.73 L2945.00 1156.73 L2945.00 1159.45 L2927.93 1159.45 L2927.93 1162.17 L2910.97 1162.17 L2910.97 1164.77 L2893.89 1164.77 L2893.89 1167.49 L2876.94 1167.49 L2876.94 1170.09 L2859.99 1170.09 L2859.99 1172.82 L2842.91 1172.82 L2842.91 1175.54 L2825.95 1175.54 L2825.95 1178.14 L2808.88 1178.14 L2808.88 1180.86 L2791.92 1180.86 L2791.92 1183.46 L2774.85 1183.46 L2774.85 1186.18 L2757.89 1186.18 L2757.89 1188.78 L2740.94 1188.78 L2740.94 1191.50 L2723.86 1191.50 L2723.86 1194.10 L2706.91 1194.10 L2706.91 1196.70 L2689.83 1196.70 L2689.83 1199.42 L2672.88 1199.42 L2672.88 1202.02 L2655.80 1202.02 L2655.80 1204.62 L2638.84 1204.62 L2638.84 1207.22 L2621.89 1207.22 L2621.89 1209.94 L2604.81 1209.94 L2604.81 1212.54 L2587.86 1212.54 L2587.86 1215.14 L2570.78 1215.14 L2570.78 1217.74 L2553.83 1217.74 L2553.83 1220.34 L2536.75 1220.34 L2536.75 1222.94 L2519.80 1222.94 L2519.80 1225.66 L2502.84 1225.66 L2502.84 1228.26 L2485.77 1228.26 L2485.77 1230.86 L2468.81 1230.86 L2468.81 1233.45 L2451.74 1233.45 L2451.74 1236.05 L2434.78 1236.05 L2434.78 1238.65 L2417.70 1238.65 L2417.70 1241.25 L2400.75 1241.25 L2400.75 1243.85 L2383.80 1243.85 L2383.80 1246.33 L2366.72 1246.33 L2366.72 1248.92 L2349.76 1248.92 L2349.76 1251.52 L2332.69 1251.52 L2332.69 1254.12 L2315.73 1254.12 L2315.73 1256.72 L2298.66 1256.72 L2298.66 1259.32 L2281.70 1259.32 L2281.70 1261.92 L2264.75 1261.92 L2264.75 1264.52 L2247.67 1264.52 L2247.67 1267.12 L2230.72 1267.12 L2230.72 1269.71 L2213.64 1269.71 L2213.64 1272.31 L2196.69 1272.31 L2196.69 1274.91 L2179.61 1274.91 L2179.61 1277.51 L2162.66 1277.51 L2162.66 1280.11 L2145.70 1280.11 L2145.70 1282.71 L2128.62 1282.71 L2128.62 1285.18 L2111.67 1285.18 L2111.67 1287.78 L2094.59 1287.78 L2094.59 1290.38 L2077.64 1290.38 L2077.64 1292.98 L2060.56 1292.98 L2060.56 1295.58 L2043.61 1295.58 L2043.61 1298.05 L2026.65 1298.05 L2026.65 1300.65 L2009.58 1300.65 L2009.58 1303.25 L1992.62 1303.25 L1992.62 1305.73 L1975.55 1305.73 L1975.55 1308.33 L1958.59 1308.33 L1958.59 1310.92 L1941.51 1310.92 L1941.51 1313.52 L1924.56 1313.52 L1924.56 1316.00 L1907.61 1316.00 L1907.61 1318.60 L1890.53 1318.60 L1890.53 1321.20 L1873.58 1321.20 L1873.58 1323.67 L1856.50 1323.67 L1856.50 1326.27 L1839.54 1326.27 L1839.54 1328.75 L1822.59 1328.75 L1822.59 1331.22 L1805.51 1331.22 L1805.51 1333.82 L1788.56 1333.82 L1788.56 1336.29 L1771.48 1336.29 L1771.48 1338.89 L1754.53 1338.89 L1754.53 1341.37 L1737.45 1341.37 L1737.45 1343.84 L1720.50 1343.84 L1720.50 1346.32 L1703.54 1346.32 L1703.54 1348.79 L1686.46 1348.79 L1686.46 1351.27 L1669.51 1351.27 L1669.51 1353.74 L1652.43 1353.74 L1652.43 1356.22 L1635.48 1356.22 L1635.48 1358.57 L1618.40 1358.57 L1618.40 1361.05 L1601.45 1361.05 L1601.45 1363.40 L1584.49 1363.40 L1584.49 1365.87 L1567.42 1365.87 L1567.42 1368.22 L1550.46 1368.22 L1550.46 1370.57 L1533.39 1370.57 L1533.39 1372.93 L1516.43 1372.93 L1516.43 1375.40 L1499.36 1375.40 L1499.36 1377.63 L1482.40 1377.63 L1482.40 1379.98 L1465.45 1379.98 L1465.45 1382.33 L1448.37 1382.33 L1448.37 1384.68 L1431.42 1384.68 L1431.42 1386.91 L1414.34 1386.91 L1414.34 1389.14 L1397.38 1389.14 L1397.38 1391.49 L1380.31 1391.49 L1380.31 1393.72 L1363.35 1393.72 L1363.35 1395.94 L1346.40 1395.94 L1346.40 1398.17 L1329.32 1398.17 L1329.32 1400.40 L1312.37 1400.40 L1312.37 1402.50 L1295.29 1402.50 L1295.29 1404.73 L1278.34 1404.73 L1278.34 1406.83 L1261.26 1406.83 L1261.26 1408.94 L1244.31 1408.94 L1244.31 1411.04 L1227.35 1411.04 L1227.35 1413.15 L1210.28 1413.15 L1210.28 1415.25 L1193.32 1415.25 L1193.32 1417.35 L1176.24 1417.35 L1176.24 1419.33 L1159.29 1419.33 L1159.29 1421.44 L1142.21 1421.44 L1142.21 1423.42 L1125.26 1423.42 L1125.26 1425.40 L1108.31 1425.40 L1108.31 1427.25 L1091.23 1427.25 L1091.23 1429.23 L1074.27 1429.23 L1074.27 1431.09 L1057.20 1431.09 L1057.20 1432.95 L1040.24 1432.95 L1040.24 1434.68 L1023.16 1434.68 L1023.16 1436.53 L1006.21 1436.53 L1006.21 1438.27 L989.26 1438.27 L989.26 1439.88 L972.18 1439.88 L972.18 1441.61 L955.23 1441.61 L955.23 1443.22 L938.15 1443.22 L938.15 1444.70 L921.20 1444.70 L921.20 1446.31 L904.12 1446.31 L904.12 1447.80 L887.16 1447.80 L887.16 1449.28 L870.21 1449.28 L870.21 1450.64 L853.13 1450.64 L853.13 1452.00 L836.18 1452.00 L836.18 1453.37 L819.10 1453.37 L819.10 1454.60 L802.15 1454.60 L802.15 1455.72 L785.19 1455.72 L785.19 1456.83 L768.12 1456.83 L768.12 1457.94 L751.16 1457.94 L751.16 1460.79 Z" stroke-linejoin="round"/>
	</defs>
	<defs>
		<clipPath id="clipPath_AZFBEdnJ">
			<use xlink:href="#path_RFSjQYMU"/>
		</clipPath>
	</defs>
	<use xlink:href="#path_RFSjQYMU" style="stroke:none;fill:#999999;fill-opacity:0.75"/>
	<use xlink:href="#path_RFSjQYMU" style="fill:none;stroke:#808080;stroke-opacity:0.75;stroke-width:17.28" clip-path="url(#clipPath_AZFBEdnJ)"/>
	<path d=" M751.04 1459.43 L768.12 1459.43 L768.12 1458.56 L785.07 1458.56 L785.07 1457.70 L802.02 1457.70 L802.02 1456.71 L819.10 1456.71 L819.10 1455.72 L836.05 1455.72 L836.05 1454.73 L853.13 1454.73 L853.13 1453.61 L870.09 1453.61 L870.09 1452.50 L887.16 1452.50 L887.16 1451.39 L904.12 1451.39 L904.12 1450.15 L921.07 1450.15 L921.07 1448.91 L938.15 1448.91 L938.15 1447.67 L955.10 1447.67 L955.10 1446.44 L972.18 1446.44 L972.18 1445.07 L989.13 1445.07 L989.13 1443.71 L1006.21 1443.71 L1006.21 1442.35 L1023.16 1442.35 L1023.16 1440.87 L1040.12 1440.87 L1040.12 1439.50 L1057.20 1439.50 L1057.20 1438.02 L1074.15 1438.02 L1074.15 1436.53 L1091.23 1436.53 L1091.23 1434.93 L1108.18 1434.93 L1108.18 1433.44 L1125.26 1433.44 L1125.26 1431.83 L1142.21 1431.83 L1142.21 1430.22 L1159.17 1430.22 L1159.17 1428.61 L1176.24 1428.61 L1176.24 1427.01 L1193.20 1427.01 L1193.20 1425.27 L1210.28 1425.27 L1210.28 1423.66 L1227.23 1423.66 L1227.23 1422.06 L1244.31 1422.06 L1244.31 1420.32 L1261.26 1420.32 L1261.26 1418.59 L1278.21 1418.59 L1278.21 1416.86 L1295.29 1416.86 L1295.29 1415.25 L1312.24 1415.25 L1312.24 1413.52 L1329.32 1413.52 L1329.32 1411.66 L1346.28 1411.66 L1346.28 1409.93 L1363.35 1409.93 L1363.35 1408.20 L1380.31 1408.20 L1380.31 1406.46 L1397.26 1406.46 L1397.26 1404.61 L1414.34 1404.61 L1414.34 1402.75 L1431.29 1402.75 L1431.29 1401.02 L1448.37 1401.02 L1448.37 1399.16 L1465.32 1399.16 L1465.32 1397.30 L1482.28 1397.30 L1482.28 1395.45 L1499.36 1395.45 L1499.36 1393.59 L1516.31 1393.59 L1516.31 1391.74 L1533.39 1391.74 L1533.39 1389.88 L1550.34 1389.88 L1550.34 1387.90 L1567.42 1387.90 L1567.42 1386.04 L1584.37 1386.04 L1584.37 1384.19 L1601.33 1384.19 L1601.33 1382.21 L1618.40 1382.21 L1618.40 1380.35 L1635.36 1380.35 L1635.36 1378.37 L1652.43 1378.37 L1652.43 1376.39 L1669.39 1376.39 L1669.39 1374.53 L1686.46 1374.53 L1686.46 1372.55 L1703.42 1372.55 L1703.42 1370.57 L1720.37 1370.57 L1720.37 1368.59 L1737.45 1368.59 L1737.45 1366.61 L1754.40 1366.61 L1754.40 1364.63 L1771.48 1364.63 L1771.48 1362.65 L1788.43 1362.65 L1788.43 1360.67 L1805.51 1360.67 L1805.51 1358.69 L1822.47 1358.69 L1822.47 1356.71 L1839.42 1356.71 L1839.42 1354.73 L1856.50 1354.73 L1856.50 1352.63 L1873.45 1352.63 L1873.45 1350.65 L1890.53 1350.65 L1890.53 1348.67 L1907.48 1348.67 L1907.48 1346.69 L1924.56 1346.69 L1924.56 1344.59 L1941.51 1344.59 L1941.51 1342.61 L1958.47 1342.61 L1958.47 1340.63 L1975.55 1340.63 L1975.55 1338.65 L1992.50 1338.65 L1992.50 1336.54 L2009.58 1336.54 L2009.58 1334.56 L2026.53 1334.56 L2026.53 1332.58 L2043.61 1332.58 L2043.61 1330.60 L2060.56 1330.60 L2060.56 1328.50 L2077.51 1328.50 L2077.51 1326.52 L2094.59 1326.52 L2094.59 1324.54 L2111.55 1324.54 L2111.55 1322.56 L2128.62 1322.56 L2128.62 1320.45 L2145.58 1320.45 L2145.58 1318.47 L2162.66 1318.47 L2162.66 1316.49 L2179.61 1316.49 L2179.61 1314.39 L2196.56 1314.39 L2196.56 1312.41 L2213.64 1312.41 L2213.64 1310.43 L2230.59 1310.43 L2230.59 1308.33 L2247.67 1308.33 L2247.67 1306.35 L2264.63 1306.35 L2264.63 1304.24 L2281.70 1304.24 L2281.70 1302.26 L2298.66 1302.26 L2298.66 1300.28 L2315.61 1300.28 L2315.61 1298.18 L2332.69 1298.18 L2332.69 1296.20 L2349.64 1296.20 L2349.64 1294.22 L2366.72 1294.22 L2366.72 1292.24 L2383.67 1292.24 L2383.67 1290.13 L2400.75 1290.13 L2400.75 1288.15 L2417.70 1288.15 L2417.70 1286.17 L2434.66 1286.17 L2434.66 1284.07 L2451.74 1284.07 L2451.74 1282.09 L2468.69 1282.09 L2468.69 1280.11 L2485.77 1280.11 L2485.77 1278.01 L2502.72 1278.01 L2502.72 1276.03 L2519.67 1276.03 L2519.67 1274.05 L2536.75 1274.05 L2536.75 1271.94 L2553.70 1271.94 L2553.70 1269.96 L2570.78 1269.96 L2570.78 1267.98 L2587.74 1267.98 L2587.74 1265.88 L2604.81 1265.88 L2604.81 1263.90 L2621.77 1263.90 L2621.77 1261.79 L2638.72 1261.79 L2638.72 1259.81 L2655.80 1259.81 L2655.80 1257.83 L2672.75 1257.83 L2672.75 1255.73 L2689.83 1255.73 L2689.83 1253.75 L2706.78 1253.75 L2706.78 1251.65 L2723.86 1251.65 L2723.86 1249.54 L2740.82 1249.54 L2740.82 1247.56 L2757.77 1247.56 L2757.77 1245.46 L2774.85 1245.46 L2774.85 1243.48 L2791.80 1243.48 L2791.80 1241.38 L2808.88 1241.38 L2808.88 1239.39 L2825.83 1239.39 L2825.83 1237.29 L2842.91 1237.29 L2842.91 1235.19 L2859.86 1235.19 L2859.86 1233.21 L2876.82 1233.21 L2876.82 1231.10 L2893.89 1231.10 L2893.89 1229.00 L2910.85 1229.00 L2910.85 1226.90 L2927.93 1226.90 L2927.93 1224.92 L2944.88 1224.92 L2944.88 1222.81 L2961.96 1222.81 L2961.96 1220.71 L2978.91 1220.71 L2978.91 1218.60 L2995.86 1218.60 L2995.86 1216.62 L3012.94 1216.62 L3012.94 1214.52 L3029.89 1214.52 L3029.89 1212.42 L3046.97 1212.42 L3046.97 1210.31 L3063.93 1210.31 L3063.93 1208.21 L3081.00 1208.21 L3081.00 1206.11 L3097.96 1206.11 L3097.96 1204.00 L3114.91 1204.00 L3114.91 1201.90 L3131.99 1201.90 L3131.99 1199.79 L3148.94 1199.79 L3148.94 1197.69 L3166.02 1197.69 L3166.02 1195.71 L3182.97 1195.71 L3182.97 1193.61 L3200.05 1193.61 L3200.05 1191.50 L3217.01 1191.50 L3217.01 1189.40 L3233.96 1189.40 L3233.96 1187.29 L3251.04 1187.29 L3251.04 1185.19 L3267.99 1185.19 L3267.99 1183.09 L3285.07 1183.09 L3285.07 1180.98 L3302.02 1180.98 L3302.02 1178.76 L3319.10 1178.76 L3319.10 1176.65 L3336.05 1176.65 L3336.05 1174.55 L3353.01 1174.55 L3353.01 1172.44 L3370.08 1172.44 L3370.08 1170.34 L3387.04 1170.34 L3387.04 1168.24 L3404.11 1168.24 L3404.11 1166.13 L3421.07 1166.13 L3421.07 1164.03 L3438.15 1164.03 L3438.15 1161.93 L3455.10 1161.93 L3455.10 1159.82 L3472.05 1159.82 L3472.05 1157.72 L3489.13 1157.72 L3489.13 1155.61 L3506.09 1155.61 L3506.09 1153.51 L3523.16 1153.51 L3523.16 1151.41 L3540.12 1151.41 L3540.12 1149.30 L3557.07 1149.30 L3557.07 1147.20 L3574.15 1147.20 L3574.15 1145.09 L3591.10 1145.09 L3591.10 1142.99 L3608.18 1142.99 L3608.18 1140.89 L3625.13 1140.89 L3625.13 1138.78 L3642.21 1138.78 L3642.21 1136.68 L3659.16 1136.68 L3659.16 1134.58 L3676.12 1134.58 L3676.12 1132.47 L3693.20 1132.47 L3693.20 1130.37 L3710.15 1130.37 L3710.15 1128.26 L3727.23 1128.26 L3727.23 1126.28 L3744.18 1126.28 L3744.18 1124.18 L3761.26 1124.18 L3761.26 1122.08 L3778.21 1122.08 L3778.21 1119.97 L3795.16 1119.97 L3795.16 1117.87" stroke-linejoin="round" style="fill:none;stroke:#000000;stroke-width:8.64"/>
	<defs>
		<path id="path_UyRkxUSv" d="M751.16 1458.69 L751.16 1458.69 L768.12 1458.69 L768.12 1457.70 L785.19 1457.70 L785.19 1456.71 L802.15 1456.71 L802.15 1455.72 L819.10 1455.72 L819.10 1454.60 L836.18 1454.60 L836.18 1453.49 L853.13 1453.49 L853.13 1452.25 L870.21 1452.25 L870.21 1451.01 L887.16 1451.01 L887.16 1449.78 L904.12 1449.78 L904.12 1448.54 L921.20 1448.54 L921.20 1447.18 L938.15 1447.18 L938.15 1445.82 L955.23 1445.82 L955.23 1444.46 L972.18 1444.46 L972.18 1442.97 L989.26 1442.97 L989.26 1441.49 L1006.21 1441.49 L1006.21 1440.12 L1023.16 1440.12 L1023.16 1438.51 L1040.24 1438.51 L1040.24 1437.03 L1057.20 1437.03 L1057.20 1435.54 L1074.27 1435.54 L1074.27 1433.94 L1091.23 1433.94 L1091.23 1432.33 L1108.31 1432.33 L1108.31 1430.72 L1125.26 1430.72 L1125.26 1429.11 L1142.21 1429.11 L1142.21 1427.50 L1159.29 1427.50 L1159.29 1425.77 L1176.24 1425.77 L1176.24 1424.16 L1193.32 1424.16 L1193.32 1422.55 L1210.28 1422.55 L1210.28 1420.82 L1227.35 1420.82 L1227.35 1419.09 L1244.31 1419.09 L1244.31 1417.35 L1261.26 1417.35 L1261.26 1415.62 L1278.34 1415.62 L1278.34 1413.76 L1295.29 1413.76 L1295.29 1412.03 L1312.37 1412.03 L1312.37 1410.30 L1329.32 1410.30 L1329.32 1408.44 L1346.40 1408.44 L1346.40 1406.71 L1363.35 1406.71 L1363.35 1404.98 L1380.31 1404.98 L1380.31 1403.12 L1397.38 1403.12 L1397.38 1401.27 L1414.34 1401.27 L1414.34 1399.53 L1431.42 1399.53 L1431.42 1397.68 L1448.37 1397.68 L1448.37 1395.82 L1465.45 1395.82 L1465.45 1393.96 L1482.40 1393.96 L1482.40 1392.11 L1499.36 1392.11 L1499.36 1390.25 L1516.43 1390.25 L1516.43 1388.39 L1533.39 1388.39 L1533.39 1386.54 L1550.46 1386.54 L1550.46 1384.68 L1567.42 1384.68 L1567.42 1382.83 L1584.49 1382.83 L1584.49 1380.97 L1601.45 1380.97 L1601.45 1378.99 L1618.40 1378.99 L1618.40 1377.13 L1635.48 1377.13 L1635.48 1375.28 L1652.43 1375.28 L1652.43 1373.42 L1669.51 1373.42 L1669.51 1371.44 L1686.46 1371.44 L1686.46 1369.58 L1703.54 1369.58 L1703.54 1367.60 L1720.50 1367.60 L1720.50 1365.75 L1737.45 1365.75 L1737.45 1363.77 L1754.53 1363.77 L1754.53 1361.79 L1771.48 1361.79 L1771.48 1359.93 L1788.56 1359.93 L1788.56 1357.95 L1805.51 1357.95 L1805.51 1355.97 L1822.59 1355.97 L1822.59 1353.99 L1839.54 1353.99 L1839.54 1352.13 L1856.50 1352.13 L1856.50 1350.15 L1873.58 1350.15 L1873.58 1348.17 L1890.53 1348.17 L1890.53 1346.19 L1907.61 1346.19 L1907.61 1344.21 L1924.56 1344.21 L1924.56 1342.23 L1941.51 1342.23 L1941.51 1340.25 L1958.59 1340.25 L1958.59 1338.27 L1975.55 1338.27 L1975.55 1336.42 L1992.62 1336.42 L1992.62 1334.44 L2009.58 1334.44 L2009.58 1332.46 L2026.65 1332.46 L2026.65 1330.48 L2043.61 1330.48 L2043.61 1328.50 L2060.56 1328.50 L2060.56 1326.52 L2077.64 1326.52 L2077.64 1324.54 L2094.59 1324.54 L2094.59 1322.56 L2111.67 1322.56 L2111.67 1320.58 L2128.62 1320.58 L2128.62 1318.72 L2145.70 1318.72 L2145.70 1316.74 L2162.66 1316.74 L2162.66 1314.76 L2179.61 1314.76 L2179.61 1312.78 L2196.69 1312.78 L2196.69 1310.80 L2213.64 1310.80 L2213.64 1308.94 L2230.72 1308.94 L2230.72 1306.96 L2247.67 1306.96 L2247.67 1304.98 L2264.75 1304.98 L2264.75 1303.00 L2281.70 1303.00 L2281.70 1301.02 L2298.66 1301.02 L2298.66 1299.17 L2315.73 1299.17 L2315.73 1297.19 L2332.69 1297.19 L2332.69 1295.21 L2349.76 1295.21 L2349.76 1293.23 L2366.72 1293.23 L2366.72 1291.25 L2383.80 1291.25 L2383.80 1289.27 L2400.75 1289.27 L2400.75 1287.41 L2417.70 1287.41 L2417.70 1285.43 L2434.78 1285.43 L2434.78 1283.45 L2451.74 1283.45 L2451.74 1281.47 L2468.81 1281.47 L2468.81 1279.49 L2485.77 1279.49 L2485.77 1277.51 L2502.84 1277.51 L2502.84 1275.53 L2519.80 1275.53 L2519.80 1273.55 L2536.75 1273.55 L2536.75 1271.69 L2553.83 1271.69 L2553.83 1269.71 L2570.78 1269.71 L2570.78 1267.73 L2587.86 1267.73 L2587.86 1265.75 L2604.81 1265.75 L2604.81 1263.77 L2621.89 1263.77 L2621.89 1261.79 L2638.84 1261.79 L2638.84 1259.81 L2655.80 1259.81 L2655.80 1257.83 L2672.88 1257.83 L2672.88 1255.85 L2689.83 1255.85 L2689.83 1253.87 L2706.91 1253.87 L2706.91 1251.89 L2723.86 1251.89 L2723.86 1249.91 L2740.94 1249.91 L2740.94 1247.93 L2757.89 1247.93 L2757.89 1245.95 L2774.85 1245.95 L2774.85 1243.97 L2791.92 1243.97 L2791.92 1241.99 L2808.88 1241.99 L2808.88 1240.01 L2825.95 1240.01 L2825.95 1238.03 L2842.91 1238.03 L2842.91 1236.05 L2859.99 1236.05 L2859.99 1234.07 L2876.94 1234.07 L2876.94 1232.09 L2893.89 1232.09 L2893.89 1230.11 L2910.97 1230.11 L2910.97 1228.13 L2927.93 1228.13 L2927.93 1226.15 L2945.00 1226.15 L2945.00 1224.17 L2961.96 1224.17 L2961.96 1222.19 L2979.03 1222.19 L2979.03 1220.21 L2995.99 1220.21 L2995.99 1218.11 L3012.94 1218.11 L3012.94 1216.13 L3030.02 1216.13 L3030.02 1214.15 L3046.97 1214.15 L3046.97 1212.17 L3064.05 1212.17 L3064.05 1210.19 L3081.00 1210.19 L3081.00 1208.09 L3097.96 1208.09 L3097.96 1206.11 L3115.03 1206.11 L3115.03 1204.13 L3131.99 1204.13 L3131.99 1202.15 L3149.07 1202.15 L3149.07 1200.17 L3166.02 1200.17 L3166.02 1198.18 L3183.10 1198.18 L3183.10 1196.20 L3200.05 1196.20 L3200.05 1194.10 L3217.01 1194.10 L3217.01 1192.12 L3234.08 1192.12 L3234.08 1190.14 L3251.04 1190.14 L3251.04 1188.16 L3268.11 1188.16 L3268.11 1186.18 L3285.07 1186.18 L3285.07 1184.20 L3302.14 1184.20 L3302.14 1182.22 L3319.10 1182.22 L3319.10 1180.24 L3336.05 1180.24 L3336.05 1178.26 L3353.13 1178.26 L3353.13 1176.28 L3370.08 1176.28 L3370.08 1174.30 L3387.16 1174.30 L3387.16 1172.32 L3404.11 1172.32 L3404.11 1170.34 L3421.19 1170.34 L3421.19 1168.36 L3438.15 1168.36 L3438.15 1166.38 L3455.10 1166.38 L3455.10 1164.40 L3472.18 1164.40 L3472.18 1162.42 L3489.13 1162.42 L3489.13 1160.44 L3506.21 1160.44 L3506.21 1158.46 L3523.16 1158.46 L3523.16 1156.48 L3540.24 1156.48 L3540.24 1154.50 L3557.19 1154.50 L3557.19 1152.52 L3574.15 1152.52 L3574.15 1150.54 L3591.22 1150.54 L3591.22 1148.56 L3608.18 1148.56 L3608.18 1146.58 L3625.26 1146.58 L3625.26 1144.72 L3642.21 1144.72 L3642.21 1142.74 L3659.29 1142.74 L3659.29 1140.76 L3676.24 1140.76 L3676.24 1138.78 L3693.20 1138.78 L3693.20 1136.80 L3710.27 1136.80 L3710.27 1134.95 L3727.23 1134.95 L3727.23 1132.97 L3744.30 1132.97 L3744.30 1130.99 L3761.26 1130.99 L3761.26 1129.01 L3778.34 1129.01 L3778.34 1127.15 L3795.29 1127.15 L3795.29 1125.17 L3795.29 978.65 L3795.29 981.49 L3778.34 981.49 L3778.34 984.34 L3761.26 984.34 L3761.26 987.18 L3744.30 987.18 L3744.30 990.03 L3727.23 990.03 L3727.23 992.88 L3710.27 992.88 L3710.27 995.72 L3693.20 995.72 L3693.20 998.57 L3676.24 998.57 L3676.24 1001.42 L3659.29 1001.42 L3659.29 1004.14 L3642.21 1004.14 L3642.21 1006.99 L3625.26 1006.99 L3625.26 1009.83 L3608.18 1009.83 L3608.18 1012.68 L3591.22 1012.68 L3591.22 1015.52 L3574.15 1015.52 L3574.15 1018.37 L3557.19 1018.37 L3557.19 1021.22 L3540.24 1021.22 L3540.24 1024.06 L3523.16 1024.06 L3523.16 1027.03 L3506.21 1027.03 L3506.21 1029.88 L3489.13 1029.88 L3489.13 1032.73 L3472.18 1032.73 L3472.18 1035.57 L3455.10 1035.57 L3455.10 1038.42 L3438.15 1038.42 L3438.15 1041.27 L3421.19 1041.27 L3421.19 1044.11 L3404.11 1044.11 L3404.11 1046.96 L3387.16 1046.96 L3387.16 1049.80 L3370.08 1049.80 L3370.08 1052.65 L3353.13 1052.65 L3353.13 1055.50 L3336.05 1055.50 L3336.05 1058.34 L3319.10 1058.34 L3319.10 1061.19 L3302.14 1061.19 L3302.14 1064.04 L3285.07 1064.04 L3285.07 1066.88 L3268.11 1066.88 L3268.11 1069.73 L3251.04 1069.73 L3251.04 1072.57 L3234.08 1072.57 L3234.08 1075.54 L3217.01 1075.54 L3217.01 1078.39 L3200.05 1078.39 L3200.05 1081.24 L3183.10 1081.24 L3183.10 1084.08 L3166.02 1084.08 L3166.02 1086.93 L3149.07 1086.93 L3149.07 1089.78 L3131.99 1089.78 L3131.99 1092.62 L3115.03 1092.62 L3115.03 1095.59 L3097.96 1095.59 L3097.96 1098.44 L3081.00 1098.44 L3081.00 1101.29 L3064.05 1101.29 L3064.05 1104.13 L3046.97 1104.13 L3046.97 1106.98 L3030.02 1106.98 L3030.02 1109.82 L3012.94 1109.82 L3012.94 1112.67 L2995.99 1112.67 L2995.99 1115.52 L2979.03 1115.52 L2979.03 1118.36 L2961.96 1118.36 L2961.96 1121.21 L2945.00 1121.21 L2945.00 1124.06 L2927.93 1124.06 L2927.93 1126.90 L2910.97 1126.90 L2910.97 1129.75 L2893.89 1129.75 L2893.89 1132.60 L2876.94 1132.60 L2876.94 1135.44 L2859.99 1135.44 L2859.99 1138.29 L2842.91 1138.29 L2842.91 1141.13 L2825.95 1141.13 L2825.95 1143.98 L2808.88 1143.98 L2808.88 1146.83 L2791.92 1146.83 L2791.92 1149.67 L2774.85 1149.67 L2774.85 1152.52 L2757.89 1152.52 L2757.89 1155.24 L2740.94 1155.24 L2740.94 1158.09 L2723.86 1158.09 L2723.86 1160.94 L2706.91 1160.94 L2706.91 1163.78 L2689.83 1163.78 L2689.83 1166.63 L2672.88 1166.63 L2672.88 1169.47 L2655.80 1169.47 L2655.80 1172.20 L2638.84 1172.20 L2638.84 1175.04 L2621.89 1175.04 L2621.89 1177.89 L2604.81 1177.89 L2604.81 1180.74 L2587.86 1180.74 L2587.86 1183.58 L2570.78 1183.58 L2570.78 1186.30 L2553.83 1186.30 L2553.83 1189.15 L2536.75 1189.15 L2536.75 1192.00 L2519.80 1192.00 L2519.80 1194.72 L2502.84 1194.72 L2502.84 1197.57 L2485.77 1197.57 L2485.77 1200.41 L2468.81 1200.41 L2468.81 1203.14 L2451.74 1203.14 L2451.74 1205.98 L2434.78 1205.98 L2434.78 1208.83 L2417.70 1208.83 L2417.70 1211.55 L2400.75 1211.55 L2400.75 1214.40 L2383.80 1214.40 L2383.80 1217.24 L2366.72 1217.24 L2366.72 1219.97 L2349.76 1219.97 L2349.76 1222.81 L2332.69 1222.81 L2332.69 1225.53 L2315.73 1225.53 L2315.73 1228.38 L2298.66 1228.38 L2298.66 1231.23 L2281.70 1231.23 L2281.70 1233.95 L2264.75 1233.95 L2264.75 1236.80 L2247.67 1236.80 L2247.67 1239.52 L2230.72 1239.52 L2230.72 1242.37 L2213.64 1242.37 L2213.64 1245.09 L2196.69 1245.09 L2196.69 1247.93 L2179.61 1247.93 L2179.61 1250.66 L2162.66 1250.66 L2162.66 1253.50 L2145.70 1253.50 L2145.70 1256.35 L2128.62 1256.35 L2128.62 1259.07 L2111.67 1259.07 L2111.67 1261.92 L2094.59 1261.92 L2094.59 1264.64 L2077.64 1264.64 L2077.64 1267.49 L2060.56 1267.49 L2060.56 1270.21 L2043.61 1270.21 L2043.61 1273.06 L2026.65 1273.06 L2026.65 1275.90 L2009.58 1275.90 L2009.58 1278.62 L1992.62 1278.62 L1992.62 1281.47 L1975.55 1281.47 L1975.55 1284.19 L1958.59 1284.19 L1958.59 1287.04 L1941.51 1287.04 L1941.51 1289.89 L1924.56 1289.89 L1924.56 1292.61 L1907.61 1292.61 L1907.61 1295.46 L1890.53 1295.46 L1890.53 1298.18 L1873.58 1298.18 L1873.58 1301.02 L1856.50 1301.02 L1856.50 1303.75 L1839.54 1303.75 L1839.54 1306.47 L1822.59 1306.47 L1822.59 1309.32 L1805.51 1309.32 L1805.51 1312.04 L1788.56 1312.04 L1788.56 1314.76 L1771.48 1314.76 L1771.48 1317.61 L1754.53 1317.61 L1754.53 1320.33 L1737.45 1320.33 L1737.45 1323.05 L1720.50 1323.05 L1720.50 1325.78 L1703.54 1325.78 L1703.54 1328.50 L1686.46 1328.50 L1686.46 1331.22 L1669.51 1331.22 L1669.51 1333.94 L1652.43 1333.94 L1652.43 1336.67 L1635.48 1336.67 L1635.48 1339.39 L1618.40 1339.39 L1618.40 1341.99 L1601.45 1341.99 L1601.45 1344.71 L1584.49 1344.71 L1584.49 1347.43 L1567.42 1347.43 L1567.42 1350.03 L1550.46 1350.03 L1550.46 1352.75 L1533.39 1352.75 L1533.39 1355.35 L1516.43 1355.35 L1516.43 1358.07 L1499.36 1358.07 L1499.36 1360.67 L1482.40 1360.67 L1482.40 1363.27 L1465.45 1363.27 L1465.45 1365.87 L1448.37 1365.87 L1448.37 1368.59 L1431.42 1368.59 L1431.42 1371.19 L1414.34 1371.19 L1414.34 1373.79 L1397.38 1373.79 L1397.38 1376.27 L1380.31 1376.27 L1380.31 1378.87 L1363.35 1378.87 L1363.35 1381.46 L1346.40 1381.46 L1346.40 1383.94 L1329.32 1383.94 L1329.32 1386.54 L1312.37 1386.54 L1312.37 1389.01 L1295.29 1389.01 L1295.29 1391.61 L1278.34 1391.61 L1278.34 1394.09 L1261.26 1394.09 L1261.26 1396.56 L1244.31 1396.56 L1244.31 1399.04 L1227.35 1399.04 L1227.35 1401.51 L1210.28 1401.51 L1210.28 1403.99 L1193.32 1403.99 L1193.32 1406.34 L1176.24 1406.34 L1176.24 1408.69 L1159.29 1408.69 L1159.29 1411.04 L1142.21 1411.04 L1142.21 1413.39 L1125.26 1413.39 L1125.26 1415.74 L1108.31 1415.74 L1108.31 1417.97 L1091.23 1417.97 L1091.23 1420.32 L1074.27 1420.32 L1074.27 1422.55 L1057.20 1422.55 L1057.20 1424.78 L1040.24 1424.78 L1040.24 1426.88 L1023.16 1426.88 L1023.16 1429.11 L1006.21 1429.11 L1006.21 1431.21 L989.26 1431.21 L989.26 1433.32 L972.18 1433.32 L972.18 1435.30 L955.23 1435.30 L955.23 1437.28 L938.15 1437.28 L938.15 1439.26 L921.20 1439.26 L921.20 1441.24 L904.12 1441.24 L904.12 1443.09 L887.16 1443.09 L887.16 1444.83 L870.21 1444.83 L870.21 1446.56 L853.13 1446.56 L853.13 1448.29 L836.18 1448.29 L836.18 1449.90 L819.10 1449.90 L819.10 1451.51 L802.15 1451.51 L802.15 1453.12 L785.19 1453.12 L785.19 1454.48 L768.12 1454.48 L768.12 1455.96 L751.16 1455.96 L751.16 1458.69 Z" stroke-linejoin="round"/>
	</defs>
	<defs>
		<clipPath id="clipPath_CicdjiGm">
			<use xlink:href="#path_UyRkxUSv"/>
		</clipPath>
	</defs>
	<use xlink:href="#path_UyRkxUSv" style="stroke:none;fill:#999999;fill-opacity:0.35"/>
	<use xlink:href="#path_UyRkxUSv" style="fill:none;stroke:#808080;stroke-opacity:0.35;stroke-width:17.28" clip-path="url(#clipPath_CicdjiGm)"/>
	<path d=" M751.04 1457.33 L768.12 1457.33 L768.12 1456.21 L785.07 1456.21 L785.07 1454.97 L802.02 1454.97 L802.02 1453.61 L819.10 1453.61 L819.10 1452.38 L836.05 1452.38 L836.05 1450.89 L853.13 1450.89 L853.13 1449.53 L870.09 1449.53 L870.09 1448.04 L887.16 1448.04 L887.16 1446.44 L904.12 1446.44 L904.12 1444.95 L921.07 1444.95 L921.07 1443.34 L938.15 1443.34 L938.15 1441.61 L955.10 1441.61 L955.10 1439.88 L972.18 1439.88 L972.18 1438.27 L989.13 1438.27 L989.13 1436.41 L1006.21 1436.41 L1006.21 1434.68 L1023.16 1434.68 L1023.16 1432.82 L1040.12 1432.82 L1040.12 1430.97 L1057.20 1430.97 L1057.20 1429.11 L1074.15 1429.11 L1074.15 1427.13 L1091.23 1427.13 L1091.23 1425.27 L1108.18 1425.27 L1108.18 1423.29 L1125.26 1423.29 L1125.26 1421.31 L1142.21 1421.31 L1142.21 1419.33 L1159.17 1419.33 L1159.17 1417.35 L1176.24 1417.35 L1176.24 1415.37 L1193.20 1415.37 L1193.20 1413.27 L1210.28 1413.27 L1210.28 1411.17 L1227.23 1411.17 L1227.23 1409.06 L1244.31 1409.06 L1244.31 1406.96 L1261.26 1406.96 L1261.26 1404.85 L1278.21 1404.85 L1278.21 1402.75 L1295.29 1402.75 L1295.29 1400.65 L1312.24 1400.65 L1312.24 1398.42 L1329.32 1398.42 L1329.32 1396.31 L1346.28 1396.31 L1346.28 1394.09 L1363.35 1394.09 L1363.35 1391.98 L1380.31 1391.98 L1380.31 1389.76 L1397.26 1389.76 L1397.26 1387.53 L1414.34 1387.53 L1414.34 1385.42 L1431.29 1385.42 L1431.29 1383.20 L1448.37 1383.20 L1448.37 1380.97 L1465.32 1380.97 L1465.32 1378.74 L1482.28 1378.74 L1482.28 1376.51 L1499.36 1376.51 L1499.36 1374.16 L1516.31 1374.16 L1516.31 1371.94 L1533.39 1371.94 L1533.39 1369.71 L1550.34 1369.71 L1550.34 1367.48 L1567.42 1367.48 L1567.42 1365.13 L1584.37 1365.13 L1584.37 1362.90 L1601.33 1362.90 L1601.33 1360.55 L1618.40 1360.55 L1618.40 1358.32 L1635.36 1358.32 L1635.36 1355.97 L1652.43 1355.97 L1652.43 1353.74 L1669.39 1353.74 L1669.39 1351.39 L1686.46 1351.39 L1686.46 1349.16 L1703.42 1349.16 L1703.42 1346.81 L1720.37 1346.81 L1720.37 1344.46 L1737.45 1344.46 L1737.45 1342.11 L1754.40 1342.11 L1754.40 1339.76 L1771.48 1339.76 L1771.48 1337.41 L1788.43 1337.41 L1788.43 1335.06 L1805.51 1335.06 L1805.51 1332.71 L1822.47 1332.71 L1822.47 1330.35 L1839.42 1330.35 L1839.42 1328.00 L1856.50 1328.00 L1856.50 1325.65 L1873.45 1325.65 L1873.45 1323.30 L1890.53 1323.30 L1890.53 1320.83 L1907.48 1320.83 L1907.48 1318.47 L1924.56 1318.47 L1924.56 1316.12 L1941.51 1316.12 L1941.51 1313.77 L1958.47 1313.77 L1958.47 1311.30 L1975.55 1311.30 L1975.55 1308.94 L1992.50 1308.94 L1992.50 1306.59 L2009.58 1306.59 L2009.58 1304.24 L2026.53 1304.24 L2026.53 1301.77 L2043.61 1301.77 L2043.61 1299.42 L2060.56 1299.42 L2060.56 1297.06 L2077.51 1297.06 L2077.51 1294.71 L2094.59 1294.71 L2094.59 1292.36 L2111.55 1292.36 L2111.55 1289.89 L2128.62 1289.89 L2128.62 1287.54 L2145.58 1287.54 L2145.58 1285.18 L2162.66 1285.18 L2162.66 1282.83 L2179.61 1282.83 L2179.61 1280.48 L2196.56 1280.48 L2196.56 1278.01 L2213.64 1278.01 L2213.64 1275.65 L2230.59 1275.65 L2230.59 1273.30 L2247.67 1273.30 L2247.67 1270.95 L2264.63 1270.95 L2264.63 1268.60 L2281.70 1268.60 L2281.70 1266.25 L2298.66 1266.25 L2298.66 1263.77 L2315.61 1263.77 L2315.61 1261.42 L2332.69 1261.42 L2332.69 1259.07 L2349.64 1259.07 L2349.64 1256.72 L2366.72 1256.72 L2366.72 1254.25 L2383.67 1254.25 L2383.67 1251.89 L2400.75 1251.89 L2400.75 1249.54 L2417.70 1249.54 L2417.70 1247.19 L2434.66 1247.19 L2434.66 1244.72 L2451.74 1244.72 L2451.74 1242.37 L2468.69 1242.37 L2468.69 1240.01 L2485.77 1240.01 L2485.77 1237.66 L2502.72 1237.66 L2502.72 1235.19 L2519.67 1235.19 L2519.67 1232.84 L2536.75 1232.84 L2536.75 1230.48 L2553.70 1230.48 L2553.70 1228.01 L2570.78 1228.01 L2570.78 1225.66 L2587.74 1225.66 L2587.74 1223.31 L2604.81 1223.31 L2604.81 1220.96 L2621.77 1220.96 L2621.77 1218.48 L2638.72 1218.48 L2638.72 1216.13 L2655.80 1216.13 L2655.80 1213.65 L2672.75 1213.65 L2672.75 1211.30 L2689.83 1211.30 L2689.83 1208.95 L2706.78 1208.95 L2706.78 1206.48 L2723.86 1206.48 L2723.86 1204.13 L2740.82 1204.13 L2740.82 1201.65 L2757.77 1201.65 L2757.77 1199.30 L2774.85 1199.30 L2774.85 1196.82 L2791.80 1196.82 L2791.80 1194.47 L2808.88 1194.47 L2808.88 1192.12 L2825.83 1192.12 L2825.83 1189.65 L2842.91 1189.65 L2842.91 1187.29 L2859.86 1187.29 L2859.86 1184.82 L2876.82 1184.82 L2876.82 1182.47 L2893.89 1182.47 L2893.89 1179.99 L2910.85 1179.99 L2910.85 1177.64 L2927.93 1177.64 L2927.93 1175.17 L2944.88 1175.17 L2944.88 1172.82 L2961.96 1172.82 L2961.96 1170.34 L2978.91 1170.34 L2978.91 1167.87 L2995.86 1167.87 L2995.86 1165.51 L3012.94 1165.51 L3012.94 1163.04 L3029.89 1163.04 L3029.89 1160.69 L3046.97 1160.69 L3046.97 1158.21 L3063.93 1158.21 L3063.93 1155.74 L3081.00 1155.74 L3081.00 1153.39 L3097.96 1153.39 L3097.96 1150.91 L3114.91 1150.91 L3114.91 1148.44 L3131.99 1148.44 L3131.99 1146.08 L3148.94 1146.08 L3148.94 1143.61 L3166.02 1143.61 L3166.02 1141.13 L3182.97 1141.13 L3182.97 1138.78 L3200.05 1138.78 L3200.05 1136.31 L3217.01 1136.31 L3217.01 1133.83 L3233.96 1133.83 L3233.96 1131.48 L3251.04 1131.48 L3251.04 1129.01 L3267.99 1129.01 L3267.99 1126.66 L3285.07 1126.66 L3285.07 1124.18 L3302.02 1124.18 L3302.02 1121.71 L3319.10 1121.71 L3319.10 1119.35 L3336.05 1119.35 L3336.05 1116.88 L3353.01 1116.88 L3353.01 1114.53 L3370.08 1114.53 L3370.08 1112.05 L3387.04 1112.05 L3387.04 1109.70 L3404.11 1109.70 L3404.11 1107.23 L3421.07 1107.23 L3421.07 1104.87 L3438.15 1104.87 L3438.15 1102.40 L3455.10 1102.40 L3455.10 1100.05 L3472.05 1100.05 L3472.05 1097.57 L3489.13 1097.57 L3489.13 1095.22 L3506.09 1095.22 L3506.09 1092.75 L3523.16 1092.75 L3523.16 1090.40 L3540.12 1090.40 L3540.12 1087.92 L3557.07 1087.92 L3557.07 1085.57 L3574.15 1085.57 L3574.15 1083.09 L3591.10 1083.09 L3591.10 1080.74 L3608.18 1080.74 L3608.18 1078.27 L3625.13 1078.27 L3625.13 1075.92 L3642.21 1075.92 L3642.21 1073.56 L3659.16 1073.56 L3659.16 1071.09 L3676.12 1071.09 L3676.12 1068.74 L3693.20 1068.74 L3693.20 1066.26 L3710.15 1066.26 L3710.15 1063.91 L3727.23 1063.91 L3727.23 1061.56 L3744.18 1061.56 L3744.18 1059.09 L3761.26 1059.09 L3761.26 1056.73 L3778.21 1056.73 L3778.21 1054.38 L3795.16 1054.38 L3795.16 1052.03" stroke-linejoin="round" style="fill:none;stroke:#808080;stroke-width:8.64"/>
	<line x1="529.90" y1="2509.23" x2="529.90" y2="419.90" style="stroke:#000000;stroke-width:5.76"/>
	<line x1="529.90" y1="2445.87" x2="489.93" y2="2445.87" style="stroke:#000000;stroke-width:5.76"/>
	<text x="470.00" y="2480.90" style="font-family:'Helvetica';font-size:99.99px;fill:#000000" text-anchor="end">-365</text>
	<line x1="529.90" y1="2203.93" x2="489.93" y2="2203.93" style="stroke:#000000;stroke-width:5.76"/>
	<text x="470.00" y="2238.96" style="font-family:'Helvetica';font-size:99.99px;fill:#000000" text-anchor="end">-275</text>
	<line x1="529.90" y1="1961.99" x2="489.93" y2="1961.99" style="stroke:#000000;stroke-width:5.76"/>
	<text x="470.00" y="1997.02" style="font-family:'Helvetica';font-size:99.99px;fill:#000000" text-anchor="end">-185</text>
	<line x1="529.90" y1="1719.93" x2="489.93" y2="1719.93" style="stroke:#000000;stroke-width:5.76"/>
	<text x="470.00" y="1754.96" style="font-family:'Helvetica';font-size:99.99px;fill:#000000" text-anchor="end">-95</text>
	<line x1="529.90" y1="1477.99" x2="489.93" y2="1477.99" style="stroke:#000000;stroke-width:5.76"/>
	<text x="470.00" y="1513.02" style="font-family:'Helvetica';font-size:99.99px;fill:#000000" text-anchor="end">-5</text>
	<line x1="529.90" y1="1236.05" x2="489.93" y2="1236.05" style="stroke:#000000;stroke-width:5.76"/>
	<text x="470.00" y="1271.08" style="font-family:'Helvetica';font-size:99.99px;fill:#000000" text-anchor="end">85</text>
	<line x1="529.90" y1="994.11" x2="489.93" y2="994.11" style="stroke:#000000;stroke-width:5.76"/>
	<text x="470.00" y="1029.14" style="font-family:'Helvetica';font-size:99.99px;fill:#000000" text-anchor="end">175</text>
	<line x1="529.90" y1="752.18" x2="489.93" y2="752.18" style="stroke:#000000;stroke-width:5.76"/>
	<text x="470.00" y="787.20" style="font-family:'Helvetica';font-size:99.99px;fill:#000000" text-anchor="end">265</text>
	<line x1="529.90" y1="510.11" x2="489.93" y2="510.11" style="stroke:#000000;stroke-width:5.76"/>
	<text x="470.00" y="545.14" style="font-family:'Helvetica';font-size:99.99px;fill:#000000" text-anchor="end">355</text>
	<text x="190.71" y="1464.63" style="font-family:'Helvetica';font-size:99.99px;fill:#000000" transform="rotate(-90 190.71,1464.63)" text-anchor="middle">Difference in Lengths of Stay</text>
	<line x1="529.90" y1="2509.23" x2="3859.02" y2="2509.23" style="stroke:#000000;stroke-width:5.76"/>
	<line x1="593.26" y1="2509.23" x2="593.26" y2="2549.21" style="stroke:#000000;stroke-width:5.76"/>
	<text x="593.26" y="2625.15" style="font-family:'Helvetica';font-size:79.94px;fill:#000000" text-anchor="middle">0</text>
	<line x1="785.44" y1="2509.23" x2="785.44" y2="2549.21" style="stroke:#000000;stroke-width:5.76"/>
	<text x="785.44" y="2625.15" style="font-family:'Helvetica';font-size:79.94px;fill:#000000" text-anchor="middle">.3</text>
	<line x1="977.63" y1="2509.23" x2="977.63" y2="2549.21" style="stroke:#000000;stroke-width:5.76"/>
	<text x="977.63" y="2625.15" style="font-family:'Helvetica';font-size:79.94px;fill:#000000" text-anchor="middle">.6</text>
	<line x1="1169.68" y1="2509.23" x2="1169.68" y2="2549.21" style="stroke:#000000;stroke-width:5.76"/>
	<text x="1169.68" y="2625.15" style="font-family:'Helvetica';font-size:79.94px;fill:#000000" text-anchor="middle">.9</text>
	<line x1="1361.87" y1="2509.23" x2="1361.87" y2="2549.21" style="stroke:#000000;stroke-width:5.76"/>
	<text x="1361.87" y="2625.15" style="font-family:'Helvetica';font-size:79.94px;fill:#000000" text-anchor="middle">1.2</text>
	<line x1="1554.05" y1="2509.23" x2="1554.05" y2="2549.21" style="stroke:#000000;stroke-width:5.76"/>
	<text x="1554.05" y="2625.15" style="font-family:'Helvetica';font-size:79.94px;fill:#000000" text-anchor="middle">1.5</text>
	<line x1="1746.11" y1="2509.23" x2="1746.11" y2="2549.21" style="stroke:#000000;stroke-width:5.76"/>
	<text x="1746.11" y="2625.15" style="font-family:'Helvetica';font-size:79.94px;fill:#000000" text-anchor="middle">1.8</text>
	<line x1="1938.30" y1="2509.23" x2="1938.30" y2="2549.21" style="stroke:#000000;stroke-width:5.76"/>
	<text x="1938.30" y="2625.15" style="font-family:'Helvetica';font-size:79.94px;fill:#000000" text-anchor="middle">2.1</text>
	<line x1="2130.48" y1="2509.23" x2="2130.48" y2="2549.21" style="stroke:#000000;stroke-width:5.76"/>
	<text x="2130.48" y="2625.15" style="font-family:'Helvetica';font-size:79.94px;fill:#000000" text-anchor="middle">2.4</text>
	<line x1="2322.66" y1="2509.23" x2="2322.66" y2="2549.21" style="stroke:#000000;stroke-width:5.76"/>
	<text x="2322.66" y="2625.15" style="font-family:'Helvetica';font-size:79.94px;fill:#000000" text-anchor="middle">2.7</text>
	<line x1="2514.72" y1="2509.23" x2="2514.72" y2="2549.21" style="stroke:#000000;stroke-width:5.76"/>
	<text x="2514.72" y="2625.15" style="font-family:'Helvetica';font-size:79.94px;fill:#000000" text-anchor="middle">3</text>
	<line x1="2706.91" y1="2509.23" x2="2706.91" y2="2549.21" style="stroke:#000000;stroke-width:5.76"/>
	<text x="2706.91" y="2625.15" style="font-family:'Helvetica';font-size:79.94px;fill:#000000" text-anchor="middle">3.3</text>
	<line x1="2899.09" y1="2509.23" x2="2899.09" y2="2549.21" style="stroke:#000000;stroke-width:5.76"/>
	<text x="2899.09" y="2625.15" style="font-family:'Helvetica';font-size:79.94px;fill:#000000" text-anchor="middle">3.6</text>
	<line x1="3091.15" y1="2509.23" x2="3091.15" y2="2549.21" style="stroke:#000000;stroke-width:5.76"/>
	<text x="3091.15" y="2625.15" style="font-family:'Helvetica';font-size:79.94px;fill:#000000" text-anchor="middle">3.9</text>
	<line x1="3283.34" y1="2509.23" x2="3283.34" y2="2549.21" style="stroke:#000000;stroke-width:5.76"/>
	<text x="3283.34" y="2625.15" style="font-family:'Helvetica';font-size:79.94px;fill:#000000" text-anchor="middle">4.2</text>
	<line x1="3475.52" y1="2509.23" x2="3475.52" y2="2549.21" style="stroke:#000000;stroke-width:5.76"/>
	<text x="3475.52" y="2625.15" style="font-family:'Helvetica';font-size:79.94px;fill:#000000" text-anchor="middle">4.5</text>
	<line x1="3667.58" y1="2509.23" x2="3667.58" y2="2549.21" style="stroke:#000000;stroke-width:5.76"/>
	<text x="3667.58" y="2625.15" style="font-family:'Helvetica';font-size:79.94px;fill:#000000" text-anchor="middle">4.8</text>
	<line x1="3859.76" y1="2509.23" x2="3859.76" y2="2549.21" style="stroke:#000000;stroke-width:5.76"/>
	<text x="3859.76" y="2625.15" style="font-family:'Helvetica';font-size:79.94px;fill:#000000" text-anchor="middle">5.1</text>
	<text x="2194.46" y="2729.16" style="font-family:'Helvetica';font-size:99.99px;fill:#000000" text-anchor="middle">Time (years)</text>
	<rect x="2519.18" y="1868.31" width="1305.32" height="606.39" style="fill:#FFFFFF"/>
	<rect x="2522.06" y="1871.19" width="1299.56" height="600.63" style="fill:none;stroke:#000000;stroke-width:5.76"/>
	<rect x="2562.37" y="1911.50" width="374.34" height="99.99" style="fill:#999999;fill-opacity:0.75"/>
	<rect x="2566.69" y="1915.82" width="365.70" height="91.35" style="fill:none;stroke:#808080;stroke-opacity:0.75;stroke-width:8.64"/>
	<line x1="2562.37" y1="2101.46" x2="2936.71" y2="2101.46" style="stroke:#000000;stroke-width:8.64"/>
	<rect x="2562.37" y="2191.43" width="374.34" height="99.99" style="fill:#999999;fill-opacity:0.35"/>
	<rect x="2566.69" y="2195.75" width="365.70" height="91.35" style="fill:none;stroke:#808080;stroke-opacity:0.35;stroke-width:8.64"/>
	<line x1="2562.37" y1="2381.52" x2="2936.71" y2="2381.52" style="stroke:#808080;stroke-width:8.64"/>
	<text x="2996.73" y="1996.53" style="font-family:'Helvetica';font-size:99.99px;fill:#000000">CI95%</text>
	<text x="2996.73" y="2136.49" style="font-family:'Helvetica';font-size:99.99px;fill:#000000">Difference (TC)</text>
	<text x="2996.73" y="2276.46" style="font-family:'Helvetica';font-size:99.99px;fill:#000000">CI95%</text>
	<text x="2996.73" y="2416.55" style="font-family:'Helvetica';font-size:99.99px;fill:#000000">Difference (TNC)</text>
	<text x="2194.46" y="369.63" style="font-family:'Helvetica';font-size:110.01px;fill:#000000" text-anchor="middle">from First treatment to Readmission (RP)</text>
	<text x="2194.46" y="215.98" style="font-family:'Helvetica';font-size:139.96px;fill:#1E2D53" text-anchor="middle">Difference in Probabilities at 3 years</text>
</svg>
