<?xml version="1.0" encoding="UTF-8" standalone="no"?>
<!-- This is a Stata 16.1 generated SVG file (http://www.stata.com) -->

<svg version="1.1" width="5.50in" height="4.00in" viewBox="0 0 3960 2880" xmlns="http://www.w3.org/2000/svg" xmlns:xlink="http://www.w3.org/1999/xlink">
	<desc>Stata Graph - diff_mod23</desc>
	<rect x="0" y="0" width="3960" height="2880" style="fill:#EAF2F3;stroke:none"/>
	<rect x="0.00" y="0.00" width="3959.88" height="2880.00" style="fill:#FFFFFF"/>
	<rect x="2.88" y="2.88" width="3954.12" height="2874.24" style="fill:none;stroke:#FFFFFF;stroke-width:5.76"/>
	<rect x="559.10" y="419.90" width="3299.92" height="2089.34" style="fill:#FFFFFF"/>
	<rect x="561.98" y="422.78" width="3294.16" height="2083.58" style="fill:none;stroke:#FFFFFF;stroke-width:5.76"/>
	<line x1="559.10" y1="2249.60" x2="3859.02" y2="2249.60" style="stroke:#EAF2F3;stroke-width:8.64"/>
	<line x1="559.10" y1="2053.32" x2="3859.02" y2="2053.32" style="stroke:#EAF2F3;stroke-width:8.64"/>
	<line x1="559.10" y1="1857.05" x2="3859.02" y2="1857.05" style="stroke:#EAF2F3;stroke-width:8.64"/>
	<line x1="559.10" y1="1660.78" x2="3859.02" y2="1660.78" style="stroke:#EAF2F3;stroke-width:8.64"/>
	<line x1="559.10" y1="1464.63" x2="3859.02" y2="1464.63" style="stroke:#EAF2F3;stroke-width:8.64"/>
	<line x1="559.10" y1="1268.35" x2="3859.02" y2="1268.35" style="stroke:#EAF2F3;stroke-width:8.64"/>
	<line x1="559.10" y1="1072.08" x2="3859.02" y2="1072.08" style="stroke:#EAF2F3;stroke-width:8.64"/>
	<line x1="559.10" y1="875.81" x2="3859.02" y2="875.81" style="stroke:#EAF2F3;stroke-width:8.64"/>
	<line x1="559.10" y1="679.53" x2="3859.02" y2="679.53" style="stroke:#EAF2F3;stroke-width:8.64"/>
	<line x1="559.10" y1="1464.63" x2="3859.02" y2="1464.63" style="stroke:#1A476F;stroke-width:8.64"/>
	<defs>
		<path id="path_fUVcdpeB" d="M778.76 1493.83 L778.76 1493.83 L795.59 1493.83 L795.59 1499.77 L812.54 1499.77 L812.54 1501.13 L829.37 1501.13 L829.37 1503.36 L846.20 1503.36 L846.20 1509.05 L863.03 1509.05 L863.03 1511.16 L879.86 1511.16 L879.86 1514.25 L896.82 1514.25 L896.82 1517.35 L913.65 1517.35 L913.65 1519.70 L930.48 1519.70 L930.48 1522.54 L947.31 1522.54 L947.31 1522.42 L964.14 1522.42 L964.14 1524.65 L981.09 1524.65 L981.09 1528.24 L997.92 1528.24 L997.92 1528.24 L1014.75 1528.24 L1014.75 1531.58 L1031.58 1531.58 L1031.58 1534.30 L1048.41 1534.30 L1048.41 1533.31 L1065.36 1533.31 L1065.36 1536.53 L1082.19 1536.53 L1082.19 1536.65 L1099.02 1536.65 L1099.02 1536.16 L1115.85 1536.16 L1115.85 1540.36 L1132.68 1540.36 L1132.68 1541.73 L1149.64 1541.73 L1149.64 1543.71 L1166.47 1543.71 L1166.47 1545.07 L1183.30 1545.07 L1183.30 1547.17 L1200.13 1547.17 L1200.13 1548.28 L1216.96 1548.28 L1216.96 1548.78 L1233.91 1548.78 L1233.91 1552.12 L1250.74 1552.12 L1250.74 1553.11 L1267.57 1553.11 L1267.57 1556.08 L1284.40 1556.08 L1284.40 1555.09 L1301.23 1555.09 L1301.23 1554.47 L1318.18 1554.47 L1318.18 1556.08 L1335.02 1556.08 L1335.02 1557.94 L1351.85 1557.94 L1351.85 1559.67 L1368.67 1559.67 L1368.67 1563.01 L1385.51 1563.01 L1385.51 1564.37 L1402.34 1564.37 L1402.34 1566.35 L1419.29 1566.35 L1419.29 1566.23 L1436.12 1566.23 L1436.12 1565.36 L1452.95 1565.36 L1452.95 1568.09 L1469.78 1568.09 L1469.78 1568.09 L1486.61 1568.09 L1486.61 1568.21 L1503.56 1568.21 L1503.56 1570.44 L1520.39 1570.44 L1520.39 1571.67 L1537.22 1571.67 L1537.22 1572.54 L1554.05 1572.54 L1554.05 1575.76 L1570.88 1575.76 L1570.88 1577.24 L1587.84 1577.24 L1587.84 1576.62 L1604.67 1576.62 L1604.67 1577.99 L1621.50 1577.99 L1621.50 1578.73 L1638.33 1578.73 L1638.33 1579.22 L1655.16 1579.22 L1655.16 1577.86 L1672.11 1577.86 L1672.11 1578.48 L1688.94 1578.48 L1688.94 1578.85 L1705.77 1578.85 L1705.77 1579.47 L1722.60 1579.47 L1722.60 1580.46 L1739.43 1580.46 L1739.43 1579.97 L1756.38 1579.97 L1756.38 1578.98 L1773.21 1578.98 L1773.21 1578.73 L1790.04 1578.73 L1790.04 1577.24 L1806.87 1577.24 L1806.87 1577.24 L1823.70 1577.24 L1823.70 1576.62 L1840.66 1576.62 L1840.66 1576.38 L1857.49 1576.38 L1857.49 1577.00 L1874.32 1577.00 L1874.32 1577.12 L1891.15 1577.12 L1891.15 1578.36 L1907.98 1578.36 L1907.98 1579.72 L1924.93 1579.72 L1924.93 1581.45 L1941.76 1581.45 L1941.76 1582.56 L1958.59 1582.56 L1958.59 1583.93 L1975.42 1583.93 L1975.42 1584.92 L1992.25 1584.92 L1992.25 1586.03 L2009.20 1586.03 L2009.20 1589.12 L2026.04 1589.12 L2026.04 1589.37 L2042.87 1589.37 L2042.87 1589.12 L2059.70 1589.12 L2059.70 1591.23 L2076.53 1591.23 L2076.53 1591.23 L2093.48 1591.23 L2093.48 1591.60 L2110.31 1591.60 L2110.31 1592.22 L2127.14 1592.22 L2127.14 1591.60 L2143.97 1591.60 L2143.97 1592.59 L2160.80 1592.59 L2160.80 1591.60 L2177.75 1591.60 L2177.75 1592.34 L2194.58 1592.34 L2194.58 1591.47 L2211.41 1591.47 L2211.41 1593.33 L2228.24 1593.33 L2228.24 1592.96 L2245.07 1592.96 L2245.07 1592.46 L2262.03 1592.46 L2262.03 1592.22 L2278.86 1592.22 L2278.86 1592.09 L2295.69 1592.09 L2295.69 1590.73 L2312.52 1590.73 L2312.52 1589.74 L2329.35 1589.74 L2329.35 1590.24 L2346.30 1590.24 L2346.30 1591.97 L2363.13 1591.97 L2363.13 1592.09 L2379.96 1592.09 L2379.96 1593.33 L2396.79 1593.33 L2396.79 1594.07 L2413.62 1594.07 L2413.62 1594.07 L2430.57 1594.07 L2430.57 1594.20 L2447.40 1594.20 L2447.40 1594.44 L2464.23 1594.44 L2464.23 1592.96 L2481.06 1592.96 L2481.06 1591.97 L2497.89 1591.97 L2497.89 1592.71 L2514.85 1592.71 L2514.85 1594.07 L2531.68 1594.07 L2531.68 1595.43 L2548.51 1595.43 L2548.51 1597.17 L2565.34 1597.17 L2565.34 1596.67 L2582.17 1596.67 L2582.17 1596.18 L2599.00 1596.18 L2599.00 1597.29 L2615.95 1597.29 L2615.95 1597.29 L2632.78 1597.29 L2632.78 1596.80 L2649.61 1596.80 L2649.61 1596.80 L2666.44 1596.80 L2666.44 1597.29 L2683.27 1597.29 L2683.27 1596.42 L2700.22 1596.42 L2700.22 1597.04 L2717.05 1597.04 L2717.05 1597.17 L2733.89 1597.17 L2733.89 1597.79 L2750.72 1597.79 L2750.72 1597.04 L2767.55 1597.04 L2767.55 1598.90 L2784.50 1598.90 L2784.50 1600.01 L2801.33 1600.01 L2801.33 1600.76 L2818.16 1600.76 L2818.16 1601.00 L2834.99 1601.00 L2834.99 1601.50 L2851.82 1601.50 L2851.82 1602.24 L2868.77 1602.24 L2868.77 1600.76 L2885.60 1600.76 L2885.60 1602.24 L2902.43 1602.24 L2902.43 1602.49 L2919.26 1602.49 L2919.26 1602.61 L2936.09 1602.61 L2936.09 1602.49 L2953.05 1602.49 L2953.05 1601.99 L2969.88 1601.99 L2969.88 1602.86 L2986.71 1602.86 L2986.71 1602.24 L3003.54 1602.24 L3003.54 1602.86 L3020.37 1602.86 L3020.37 1602.98 L3037.32 1602.98 L3037.32 1603.23 L3054.15 1603.23 L3054.15 1603.23 L3070.98 1603.23 L3070.98 1601.50 L3087.81 1601.50 L3087.81 1602.74 L3104.64 1602.74 L3104.64 1602.37 L3121.59 1602.37 L3121.59 1602.49 L3138.42 1602.49 L3138.42 1603.48 L3155.25 1603.48 L3155.25 1603.85 L3172.08 1603.85 L3172.08 1604.47 L3188.91 1604.47 L3188.91 1604.84 L3205.87 1604.84 L3205.87 1605.09 L3222.70 1605.09 L3222.70 1604.35 L3239.53 1604.35 L3239.53 1604.84 L3256.36 1604.84 L3256.36 1604.96 L3273.19 1604.96 L3273.19 1605.83 L3290.14 1605.83 L3290.14 1605.95 L3306.97 1605.95 L3306.97 1607.93 L3323.80 1607.93 L3323.80 1607.44 L3340.63 1607.44 L3340.63 1608.06 L3357.46 1608.06 L3357.46 1609.05 L3374.41 1609.05 L3374.41 1609.79 L3391.24 1609.79 L3391.24 1610.90 L3408.07 1610.90 L3408.07 1611.03 L3424.91 1611.03 L3424.91 1610.90 L3441.74 1610.90 L3441.74 1612.14 L3458.69 1612.14 L3458.69 1612.39 L3475.52 1612.39 L3475.52 1613.26 L3492.35 1613.26 L3492.35 1613.26 L3509.18 1613.26 L3509.18 1612.88 L3526.01 1612.88 L3526.01 1612.88 L3542.96 1612.88 L3542.96 1613.63 L3559.79 1613.63 L3559.79 1614.00 L3576.62 1614.00 L3576.62 1612.51 L3593.45 1612.51 L3593.45 1613.87 L3610.28 1613.87 L3610.28 1614.12 L3627.24 1614.12 L3627.24 1614.00 L3644.07 1614.00 L3644.07 1614.12 L3660.90 1614.12 L3660.90 1614.12 L3677.73 1614.12 L3677.73 1613.75 L3694.56 1613.75 L3694.56 1613.50 L3711.51 1613.50 L3711.51 1613.13 L3728.34 1613.13 L3728.34 1611.89 L3745.17 1611.89 L3745.17 1612.51 L3762.00 1612.51 L3762.00 1612.02 L3778.83 1612.02 L3778.83 1610.53 L3795.66 1610.53 L3795.66 1610.66 L3795.66 1442.85 L3795.66 1442.72 L3778.83 1442.72 L3778.83 1444.46 L3762.00 1444.46 L3762.00 1445.32 L3745.17 1445.32 L3745.17 1444.83 L3728.34 1444.83 L3728.34 1446.31 L3711.51 1446.31 L3711.51 1446.81 L3694.56 1446.81 L3694.56 1447.18 L3677.73 1447.18 L3677.73 1447.92 L3660.90 1447.92 L3660.90 1448.04 L3644.07 1448.04 L3644.07 1448.29 L3627.24 1448.29 L3627.24 1448.54 L3610.28 1448.54 L3610.28 1448.42 L3593.45 1448.42 L3593.45 1447.43 L3576.62 1447.43 L3576.62 1449.16 L3559.79 1449.16 L3559.79 1449.03 L3542.96 1449.03 L3542.96 1448.66 L3526.01 1448.66 L3526.01 1448.91 L3509.18 1448.91 L3509.18 1449.53 L3492.35 1449.53 L3492.35 1449.78 L3475.52 1449.78 L3475.52 1449.28 L3458.69 1449.28 L3458.69 1449.16 L3441.74 1449.16 L3441.74 1448.17 L3424.91 1448.17 L3424.91 1448.66 L3408.07 1448.66 L3408.07 1448.66 L3391.24 1448.66 L3391.24 1447.92 L3374.41 1447.92 L3374.41 1447.43 L3357.46 1447.43 L3357.46 1446.68 L3340.63 1446.68 L3340.63 1446.31 L3323.80 1446.31 L3323.80 1447.18 L3306.97 1447.18 L3306.97 1445.57 L3290.14 1445.57 L3290.14 1445.82 L3273.19 1445.82 L3273.19 1445.32 L3256.36 1445.32 L3256.36 1445.45 L3239.53 1445.45 L3239.53 1445.32 L3222.70 1445.32 L3222.70 1446.31 L3205.87 1446.31 L3205.87 1446.19 L3188.91 1446.19 L3188.91 1446.19 L3172.08 1446.19 L3172.08 1445.94 L3155.25 1445.94 L3155.25 1446.06 L3138.42 1446.06 L3138.42 1445.20 L3121.59 1445.20 L3121.59 1445.45 L3104.64 1445.45 L3104.64 1446.44 L3087.81 1446.44 L3087.81 1445.45 L3070.98 1445.45 L3070.98 1447.30 L3054.15 1447.30 L3054.15 1447.55 L3037.32 1447.55 L3037.32 1447.55 L3020.37 1447.55 L3020.37 1447.80 L3003.54 1447.80 L3003.54 1447.67 L2986.71 1447.67 L2986.71 1448.79 L2969.88 1448.79 L2969.88 1448.17 L2953.05 1448.17 L2953.05 1448.79 L2936.09 1448.79 L2936.09 1449.28 L2919.26 1449.28 L2919.26 1449.28 L2902.43 1449.28 L2902.43 1449.41 L2885.60 1449.41 L2885.60 1448.29 L2868.77 1448.29 L2868.77 1450.15 L2851.82 1450.15 L2851.82 1449.78 L2834.99 1449.78 L2834.99 1449.41 L2818.16 1449.41 L2818.16 1449.65 L2801.33 1449.65 L2801.33 1449.28 L2784.50 1449.28 L2784.50 1448.42 L2767.55 1448.42 L2767.55 1446.93 L2750.72 1446.93 L2750.72 1448.17 L2733.89 1448.17 L2733.89 1447.80 L2717.05 1447.80 L2717.05 1448.17 L2700.22 1448.17 L2700.22 1447.67 L2683.27 1447.67 L2683.27 1449.16 L2666.44 1449.16 L2666.44 1448.79 L2649.61 1448.79 L2649.61 1449.28 L2632.78 1449.28 L2632.78 1450.15 L2615.95 1450.15 L2615.95 1450.27 L2599.00 1450.27 L2599.00 1449.65 L2582.17 1449.65 L2582.17 1450.64 L2565.34 1450.64 L2565.34 1451.26 L2548.51 1451.26 L2548.51 1449.78 L2531.68 1449.78 L2531.68 1448.79 L2514.85 1448.79 L2514.85 1447.92 L2497.89 1447.92 L2497.89 1447.30 L2481.06 1447.30 L2481.06 1448.66 L2464.23 1448.66 L2464.23 1450.15 L2447.40 1450.15 L2447.40 1450.40 L2430.57 1450.40 L2430.57 1450.52 L2413.62 1450.52 L2413.62 1450.52 L2396.79 1450.52 L2396.79 1450.02 L2379.96 1450.02 L2379.96 1448.91 L2363.13 1448.91 L2363.13 1449.16 L2346.30 1449.16 L2346.30 1447.92 L2329.35 1447.92 L2329.35 1447.80 L2312.52 1447.80 L2312.52 1449.16 L2295.69 1449.16 L2295.69 1450.77 L2278.86 1450.77 L2278.86 1451.26 L2262.03 1451.26 L2262.03 1451.88 L2245.07 1451.88 L2245.07 1452.75 L2228.24 1452.75 L2228.24 1453.49 L2211.41 1453.49 L2211.41 1451.76 L2194.58 1451.76 L2194.58 1452.75 L2177.75 1452.75 L2177.75 1452.25 L2160.80 1452.25 L2160.80 1453.61 L2143.97 1453.61 L2143.97 1452.87 L2127.14 1452.87 L2127.14 1453.49 L2110.31 1453.49 L2110.31 1453.24 L2093.48 1453.24 L2093.48 1453.24 L2076.53 1453.24 L2076.53 1453.24 L2059.70 1453.24 L2059.70 1451.51 L2042.87 1451.51 L2042.87 1452.00 L2026.04 1452.00 L2026.04 1452.13 L2009.20 1452.13 L2009.20 1449.41 L1992.25 1449.41 L1992.25 1448.66 L1975.42 1448.66 L1975.42 1447.92 L1958.59 1447.92 L1958.59 1446.81 L1941.76 1446.81 L1941.76 1446.06 L1924.93 1446.06 L1924.93 1444.58 L1907.98 1444.58 L1907.98 1443.59 L1891.15 1443.59 L1891.15 1442.48 L1874.32 1442.48 L1874.32 1442.97 L1857.49 1442.97 L1857.49 1442.60 L1840.66 1442.60 L1840.66 1443.22 L1823.70 1443.22 L1823.70 1444.33 L1806.87 1444.33 L1806.87 1444.83 L1790.04 1444.83 L1790.04 1446.81 L1773.21 1446.81 L1773.21 1447.67 L1756.38 1447.67 L1756.38 1448.91 L1739.43 1448.91 L1739.43 1449.78 L1722.60 1449.78 L1722.60 1449.03 L1705.77 1449.03 L1705.77 1448.79 L1688.94 1448.79 L1688.94 1448.79 L1672.11 1448.79 L1672.11 1448.54 L1655.16 1448.54 L1655.16 1450.27 L1638.33 1450.27 L1638.33 1450.27 L1621.50 1450.27 L1621.50 1450.15 L1604.67 1450.15 L1604.67 1449.28 L1587.84 1449.28 L1587.84 1450.52 L1570.88 1450.52 L1570.88 1449.53 L1554.05 1449.53 L1554.05 1446.81 L1537.22 1446.81 L1537.22 1446.31 L1520.39 1446.31 L1520.39 1445.69 L1503.56 1445.69 L1503.56 1444.21 L1486.61 1444.21 L1486.61 1444.83 L1469.78 1444.83 L1469.78 1445.45 L1452.95 1445.45 L1452.95 1443.34 L1436.12 1443.34 L1436.12 1444.83 L1419.29 1444.83 L1419.29 1445.69 L1402.34 1445.69 L1402.34 1444.33 L1385.51 1444.33 L1385.51 1443.84 L1368.67 1443.84 L1368.67 1441.49 L1351.85 1441.49 L1351.85 1440.74 L1335.02 1440.74 L1335.02 1439.75 L1318.18 1439.75 L1318.18 1439.26 L1301.23 1439.26 L1301.23 1440.87 L1284.40 1440.87 L1284.40 1442.97 L1267.57 1442.97 L1267.57 1441.11 L1250.74 1441.11 L1250.74 1441.49 L1233.91 1441.49 L1233.91 1439.38 L1216.96 1439.38 L1216.96 1440.25 L1200.13 1440.25 L1200.13 1440.62 L1183.30 1440.62 L1183.30 1439.75 L1166.47 1439.75 L1166.47 1439.75 L1149.64 1439.75 L1149.64 1439.63 L1132.68 1439.63 L1132.68 1439.88 L1115.85 1439.88 L1115.85 1437.65 L1099.02 1437.65 L1099.02 1439.88 L1082.19 1439.88 L1082.19 1441.98 L1065.36 1441.98 L1065.36 1441.11 L1048.41 1441.11 L1048.41 1444.46 L1031.58 1444.46 L1031.58 1443.96 L1014.75 1443.96 L1014.75 1443.34 L997.92 1443.34 L997.92 1446.19 L981.09 1446.19 L981.09 1445.45 L964.14 1445.45 L964.14 1446.31 L947.31 1446.31 L947.31 1449.41 L930.48 1449.41 L930.48 1450.02 L913.65 1450.02 L913.65 1451.14 L896.82 1451.14 L896.82 1451.63 L879.86 1451.63 L879.86 1452.62 L863.03 1452.62 L863.03 1454.73 L846.20 1454.73 L846.20 1453.74 L829.37 1453.74 L829.37 1456.21 L812.54 1456.21 L812.54 1459.92 L795.59 1459.92 L795.59 1459.18 L778.76 1459.18 L778.76 1493.83 Z" stroke-linejoin="round"/>
	</defs>
	<defs>
		<clipPath id="clipPath_MVvfEGgH">
			<use xlink:href="#path_fUVcdpeB"/>
		</clipPath>
	</defs>
	<use xlink:href="#path_fUVcdpeB" style="stroke:none;fill:#999999;fill-opacity:0.65"/>
	<use xlink:href="#path_fUVcdpeB" style="fill:none;stroke:#808080;stroke-opacity:0.65;stroke-width:17.28" clip-path="url(#clipPath_MVvfEGgH)"/>
	<path d=" M778.76 1476.51 L795.59 1476.51 L795.59 1479.85 L812.42 1479.85 L812.42 1478.73 L829.25 1478.73 L829.25 1478.61 L846.08 1478.61 L846.08 1481.95 L863.03 1481.95 L863.03 1481.95 L879.86 1481.95 L879.86 1483.07 L896.69 1483.07 L896.69 1484.30 L913.52 1484.30 L913.52 1484.92 L930.35 1484.92 L930.35 1486.04 L947.31 1486.04 L947.31 1484.43 L964.14 1484.43 L964.14 1485.05 L980.97 1485.05 L980.97 1487.27 L997.80 1487.27 L997.80 1485.91 L1014.63 1485.91 L1014.63 1487.89 L1031.58 1487.89 L1031.58 1489.50 L1048.41 1489.50 L1048.41 1487.27 L1065.24 1487.27 L1065.24 1489.25 L1082.07 1489.25 L1082.07 1488.39 L1098.90 1488.39 L1098.90 1486.90 L1115.85 1486.90 L1115.85 1490.24 L1132.68 1490.24 L1132.68 1490.74 L1149.51 1490.74 L1149.51 1491.85 L1166.34 1491.85 L1166.34 1492.47 L1183.17 1492.47 L1183.17 1493.96 L1200.13 1493.96 L1200.13 1494.33 L1216.96 1494.33 L1216.96 1494.08 L1233.79 1494.08 L1233.79 1496.80 L1250.62 1496.80 L1250.62 1497.17 L1267.45 1497.17 L1267.45 1499.65 L1284.40 1499.65 L1284.40 1498.04 L1301.23 1498.04 L1301.23 1496.93 L1318.06 1496.93 L1318.06 1498.04 L1334.89 1498.04 L1334.89 1499.40 L1351.72 1499.40 L1351.72 1500.64 L1368.67 1500.64 L1368.67 1503.49 L1385.51 1503.49 L1385.51 1504.35 L1402.34 1504.35 L1402.34 1506.08 L1419.16 1506.08 L1419.16 1505.59 L1435.99 1505.59 L1435.99 1504.48 L1452.95 1504.48 L1452.95 1506.83 L1469.78 1506.83 L1469.78 1506.58 L1486.61 1506.58 L1486.61 1506.33 L1503.44 1506.33 L1503.44 1508.06 L1520.27 1508.06 L1520.27 1509.05 L1537.22 1509.05 L1537.22 1509.80 L1554.05 1509.80 L1554.05 1512.77 L1570.88 1512.77 L1570.88 1514.00 L1587.71 1514.00 L1587.71 1513.01 L1604.54 1513.01 L1604.54 1514.13 L1621.50 1514.13 L1621.50 1514.50 L1638.33 1514.50 L1638.33 1514.87 L1655.16 1514.87 L1655.16 1513.26 L1671.99 1513.26 L1671.99 1513.76 L1688.82 1513.76 L1688.82 1513.88 L1705.77 1513.88 L1705.77 1514.25 L1722.60 1514.25 L1722.60 1515.24 L1739.43 1515.24 L1739.43 1514.50 L1756.26 1514.50 L1756.26 1513.39 L1773.09 1513.39 L1773.09 1512.89 L1790.04 1512.89 L1790.04 1511.16 L1806.87 1511.16 L1806.87 1510.91 L1823.70 1510.91 L1823.70 1509.92 L1840.53 1509.92 L1840.53 1509.55 L1857.36 1509.55 L1857.36 1510.04 L1874.32 1510.04 L1874.32 1509.80 L1891.15 1509.80 L1891.15 1511.03 L1907.98 1511.03 L1907.98 1512.15 L1924.81 1512.15 L1924.81 1513.88 L1941.64 1513.88 L1941.64 1514.75 L1958.59 1514.75 L1958.59 1515.98 L1975.42 1515.98 L1975.42 1516.85 L1992.25 1516.85 L1992.25 1517.84 L2009.08 1517.84 L2009.08 1520.69 L2025.91 1520.69 L2025.91 1520.81 L2042.74 1520.81 L2042.74 1520.32 L2059.70 1520.32 L2059.70 1522.30 L2076.53 1522.30 L2076.53 1522.30 L2093.36 1522.30 L2093.36 1522.54 L2110.18 1522.54 L2110.18 1522.92 L2127.01 1522.92 L2127.01 1522.30 L2143.97 1522.30 L2143.97 1523.16 L2160.80 1523.16 L2160.80 1521.93 L2177.63 1521.93 L2177.63 1522.67 L2194.46 1522.67 L2194.46 1521.68 L2211.29 1521.68 L2211.29 1523.53 L2228.24 1523.53 L2228.24 1522.92 L2245.07 1522.92 L2245.07 1522.30 L2261.90 1522.30 L2261.90 1521.93 L2278.73 1521.93 L2278.73 1521.55 L2295.56 1521.55 L2295.56 1520.07 L2312.52 1520.07 L2312.52 1518.83 L2329.35 1518.83 L2329.35 1519.20 L2346.18 1519.20 L2346.18 1520.69 L2363.01 1520.69 L2363.01 1520.56 L2379.84 1520.56 L2379.84 1521.80 L2396.79 1521.80 L2396.79 1522.42 L2413.62 1522.42 L2413.62 1522.30 L2430.45 1522.30 L2430.45 1522.42 L2447.28 1522.42 L2447.28 1522.42 L2464.11 1522.42 L2464.11 1520.94 L2481.06 1520.94 L2481.06 1519.70 L2497.89 1519.70 L2497.89 1520.44 L2514.72 1520.44 L2514.72 1521.55 L2531.55 1521.55 L2531.55 1522.67 L2548.38 1522.67 L2548.38 1524.28 L2565.34 1524.28 L2565.34 1523.78 L2582.17 1523.78 L2582.17 1523.04 L2599.00 1523.04 L2599.00 1523.91 L2615.83 1523.91 L2615.83 1523.78 L2632.66 1523.78 L2632.66 1523.16 L2649.61 1523.16 L2649.61 1522.92 L2666.44 1522.92 L2666.44 1523.29 L2683.27 1523.29 L2683.27 1522.17 L2700.10 1522.17 L2700.10 1522.67 L2716.93 1522.67 L2716.93 1522.54 L2733.89 1522.54 L2733.89 1523.04 L2750.72 1523.04 L2750.72 1522.05 L2767.55 1522.05 L2767.55 1523.78 L2784.38 1523.78 L2784.38 1524.77 L2801.20 1524.77 L2801.20 1525.27 L2818.16 1525.27 L2818.16 1525.27 L2834.99 1525.27 L2834.99 1525.76 L2851.82 1525.76 L2851.82 1526.26 L2868.65 1526.26 L2868.65 1524.65 L2885.48 1524.65 L2885.48 1525.89 L2902.43 1525.89 L2902.43 1526.01 L2919.26 1526.01 L2919.26 1526.01 L2936.09 1526.01 L2936.09 1525.76 L2952.92 1525.76 L2952.92 1525.14 L2969.75 1525.14 L2969.75 1525.89 L2986.71 1525.89 L2986.71 1525.02 L3003.54 1525.02 L3003.54 1525.39 L3020.37 1525.39 L3020.37 1525.39 L3037.20 1525.39 L3037.20 1525.39 L3054.03 1525.39 L3054.03 1525.39 L3070.98 1525.39 L3070.98 1523.53 L3087.81 1523.53 L3087.81 1524.65 L3104.64 1524.65 L3104.64 1524.03 L3121.47 1524.03 L3121.47 1523.91 L3138.30 1523.91 L3138.30 1524.90 L3155.13 1524.90 L3155.13 1524.90 L3172.08 1524.90 L3172.08 1525.39 L3188.91 1525.39 L3188.91 1525.64 L3205.74 1525.64 L3205.74 1525.76 L3222.57 1525.76 L3222.57 1524.90 L3239.40 1524.90 L3239.40 1525.14 L3256.36 1525.14 L3256.36 1525.14 L3273.19 1525.14 L3273.19 1525.89 L3290.02 1525.89 L3290.02 1525.89 L3306.85 1525.89 L3306.85 1527.62 L3323.68 1527.62 L3323.68 1527.00 L3340.63 1527.00 L3340.63 1527.49 L3357.46 1527.49 L3357.46 1528.36 L3374.29 1528.36 L3374.29 1528.86 L3391.12 1528.86 L3391.12 1529.97 L3407.95 1529.97 L3407.95 1529.97 L3424.91 1529.97 L3424.91 1529.60 L3441.74 1529.60 L3441.74 1530.71 L3458.57 1530.71 L3458.57 1530.96 L3475.39 1530.96 L3475.39 1531.58 L3492.22 1531.58 L3492.22 1531.45 L3509.18 1531.45 L3509.18 1530.96 L3526.01 1530.96 L3526.01 1530.84 L3542.84 1530.84 L3542.84 1531.45 L3559.67 1531.45 L3559.67 1531.58 L3576.50 1531.58 L3576.50 1530.09 L3593.45 1530.09 L3593.45 1531.21 L3610.28 1531.21 L3610.28 1531.45 L3627.11 1531.45 L3627.11 1531.21 L3643.94 1531.21 L3643.94 1531.21 L3660.77 1531.21 L3660.77 1531.08 L3677.73 1531.08 L3677.73 1530.59 L3694.56 1530.59 L3694.56 1530.22 L3711.39 1530.22 L3711.39 1529.85 L3728.22 1529.85 L3728.22 1528.48 L3745.05 1528.48 L3745.05 1529.10 L3762.00 1529.10 L3762.00 1528.36 L3778.83 1528.36 L3778.83 1526.75 L3795.66 1526.75 L3795.66 1526.88" stroke-linejoin="round" style="fill:none;stroke:#000000;stroke-width:8.64"/>
	<line x1="559.10" y1="2509.23" x2="559.10" y2="419.90" style="stroke:#000000;stroke-width:5.76"/>
	<line x1="559.10" y1="2445.87" x2="519.13" y2="2445.87" style="stroke:#000000;stroke-width:5.76"/>
	<text x="499.08" y="2480.90" style="font-family:'Helvetica';font-size:99.99px;fill:#000000" text-anchor="end">-0.25</text>
	<line x1="559.10" y1="2249.60" x2="519.13" y2="2249.60" style="stroke:#000000;stroke-width:5.76"/>
	<text x="499.08" y="2284.63" style="font-family:'Helvetica';font-size:99.99px;fill:#000000" text-anchor="end">-0.20</text>
	<line x1="559.10" y1="2053.32" x2="519.13" y2="2053.32" style="stroke:#000000;stroke-width:5.76"/>
	<text x="499.08" y="2088.35" style="font-family:'Helvetica';font-size:99.99px;fill:#000000" text-anchor="end">-0.15</text>
	<line x1="559.10" y1="1857.05" x2="519.13" y2="1857.05" style="stroke:#000000;stroke-width:5.76"/>
	<text x="499.08" y="1892.08" style="font-family:'Helvetica';font-size:99.99px;fill:#000000" text-anchor="end">-0.10</text>
	<line x1="559.10" y1="1660.78" x2="519.13" y2="1660.78" style="stroke:#000000;stroke-width:5.76"/>
	<text x="499.08" y="1695.81" style="font-family:'Helvetica';font-size:99.99px;fill:#000000" text-anchor="end">-0.05</text>
	<line x1="559.10" y1="1464.63" x2="519.13" y2="1464.63" style="stroke:#000000;stroke-width:5.76"/>
	<text x="499.08" y="1499.66" style="font-family:'Helvetica';font-size:99.99px;fill:#000000" text-anchor="end">0.00</text>
	<line x1="559.10" y1="1268.35" x2="519.13" y2="1268.35" style="stroke:#000000;stroke-width:5.76"/>
	<text x="499.08" y="1303.38" style="font-family:'Helvetica';font-size:99.99px;fill:#000000" text-anchor="end">0.05</text>
	<line x1="559.10" y1="1072.08" x2="519.13" y2="1072.08" style="stroke:#000000;stroke-width:5.76"/>
	<text x="499.08" y="1107.11" style="font-family:'Helvetica';font-size:99.99px;fill:#000000" text-anchor="end">0.10</text>
	<line x1="559.10" y1="875.81" x2="519.13" y2="875.81" style="stroke:#000000;stroke-width:5.76"/>
	<text x="499.08" y="910.83" style="font-family:'Helvetica';font-size:99.99px;fill:#000000" text-anchor="end">0.15</text>
	<line x1="559.10" y1="679.53" x2="519.13" y2="679.53" style="stroke:#000000;stroke-width:5.76"/>
	<text x="499.08" y="714.56" style="font-family:'Helvetica';font-size:99.99px;fill:#000000" text-anchor="end">0.20</text>
	<line x1="559.10" y1="483.26" x2="519.13" y2="483.26" style="stroke:#000000;stroke-width:5.76"/>
	<text x="499.08" y="518.29" style="font-family:'Helvetica';font-size:99.99px;fill:#000000" text-anchor="end">0.25</text>
	<text x="190.71" y="1464.63" style="font-family:'Helvetica';font-size:99.99px;fill:#000000" transform="rotate(-90 190.71,1464.63)" text-anchor="middle">Difference in Probabilities</text>
	<line x1="559.10" y1="2509.23" x2="3859.02" y2="2509.23" style="stroke:#000000;stroke-width:5.76"/>
	<line x1="622.46" y1="2509.23" x2="622.46" y2="2549.21" style="stroke:#000000;stroke-width:5.76"/>
	<text x="622.46" y="2625.15" style="font-family:'Helvetica';font-size:79.94px;fill:#000000" text-anchor="middle">0</text>
	<line x1="812.79" y1="2509.23" x2="812.79" y2="2549.21" style="stroke:#000000;stroke-width:5.76"/>
	<text x="812.79" y="2625.15" style="font-family:'Helvetica';font-size:79.94px;fill:#000000" text-anchor="middle">.3</text>
	<line x1="1003.12" y1="2509.23" x2="1003.12" y2="2549.21" style="stroke:#000000;stroke-width:5.76"/>
	<text x="1003.12" y="2625.15" style="font-family:'Helvetica';font-size:79.94px;fill:#000000" text-anchor="middle">.6</text>
	<line x1="1193.44" y1="2509.23" x2="1193.44" y2="2549.21" style="stroke:#000000;stroke-width:5.76"/>
	<text x="1193.44" y="2625.15" style="font-family:'Helvetica';font-size:79.94px;fill:#000000" text-anchor="middle">.9</text>
	<line x1="1383.77" y1="2509.23" x2="1383.77" y2="2549.21" style="stroke:#000000;stroke-width:5.76"/>
	<text x="1383.77" y="2625.15" style="font-family:'Helvetica';font-size:79.94px;fill:#000000" text-anchor="middle">1.2</text>
	<line x1="1574.10" y1="2509.23" x2="1574.10" y2="2549.21" style="stroke:#000000;stroke-width:5.76"/>
	<text x="1574.10" y="2625.15" style="font-family:'Helvetica';font-size:79.94px;fill:#000000" text-anchor="middle">1.5</text>
	<line x1="1764.43" y1="2509.23" x2="1764.43" y2="2549.21" style="stroke:#000000;stroke-width:5.76"/>
	<text x="1764.43" y="2625.15" style="font-family:'Helvetica';font-size:79.94px;fill:#000000" text-anchor="middle">1.8</text>
	<line x1="1954.63" y1="2509.23" x2="1954.63" y2="2549.21" style="stroke:#000000;stroke-width:5.76"/>
	<text x="1954.63" y="2625.15" style="font-family:'Helvetica';font-size:79.94px;fill:#000000" text-anchor="middle">2.1</text>
	<line x1="2144.96" y1="2509.23" x2="2144.96" y2="2549.21" style="stroke:#000000;stroke-width:5.76"/>
	<text x="2144.96" y="2625.15" style="font-family:'Helvetica';font-size:79.94px;fill:#000000" text-anchor="middle">2.4</text>
	<line x1="2335.29" y1="2509.23" x2="2335.29" y2="2549.21" style="stroke:#000000;stroke-width:5.76"/>
	<text x="2335.29" y="2625.15" style="font-family:'Helvetica';font-size:79.94px;fill:#000000" text-anchor="middle">2.7</text>
	<line x1="2525.61" y1="2509.23" x2="2525.61" y2="2549.21" style="stroke:#000000;stroke-width:5.76"/>
	<text x="2525.61" y="2625.15" style="font-family:'Helvetica';font-size:79.94px;fill:#000000" text-anchor="middle">3</text>
	<line x1="2715.94" y1="2509.23" x2="2715.94" y2="2549.21" style="stroke:#000000;stroke-width:5.76"/>
	<text x="2715.94" y="2625.15" style="font-family:'Helvetica';font-size:79.94px;fill:#000000" text-anchor="middle">3.3</text>
	<line x1="2906.27" y1="2509.23" x2="2906.27" y2="2549.21" style="stroke:#000000;stroke-width:5.76"/>
	<text x="2906.27" y="2625.15" style="font-family:'Helvetica';font-size:79.94px;fill:#000000" text-anchor="middle">3.6</text>
	<line x1="3096.60" y1="2509.23" x2="3096.60" y2="2549.21" style="stroke:#000000;stroke-width:5.76"/>
	<text x="3096.60" y="2625.15" style="font-family:'Helvetica';font-size:79.94px;fill:#000000" text-anchor="middle">3.9</text>
	<line x1="3286.92" y1="2509.23" x2="3286.92" y2="2549.21" style="stroke:#000000;stroke-width:5.76"/>
	<text x="3286.92" y="2625.15" style="font-family:'Helvetica';font-size:79.94px;fill:#000000" text-anchor="middle">4.2</text>
	<line x1="3477.25" y1="2509.23" x2="3477.25" y2="2549.21" style="stroke:#000000;stroke-width:5.76"/>
	<text x="3477.25" y="2625.15" style="font-family:'Helvetica';font-size:79.94px;fill:#000000" text-anchor="middle">4.5</text>
	<line x1="3667.58" y1="2509.23" x2="3667.58" y2="2549.21" style="stroke:#000000;stroke-width:5.76"/>
	<text x="3667.58" y="2625.15" style="font-family:'Helvetica';font-size:79.94px;fill:#000000" text-anchor="middle">4.8</text>
	<line x1="3857.91" y1="2509.23" x2="3857.91" y2="2549.21" style="stroke:#000000;stroke-width:5.76"/>
	<text x="3857.91" y="2625.15" style="font-family:'Helvetica';font-size:79.94px;fill:#000000" text-anchor="middle">5.1</text>
	<text x="2209.06" y="2729.16" style="font-family:'Helvetica';font-size:99.99px;fill:#000000" text-anchor="middle">Time (years)</text>
	<rect x="593.63" y="454.42" width="993.34" height="326.46" style="fill:#FFFFFF"/>
	<rect x="596.51" y="457.30" width="987.58" height="320.70" style="fill:none;stroke:#000000;stroke-width:5.76"/>
	<rect x="636.82" y="497.74" width="374.47" height="99.99" style="fill:#999999;fill-opacity:0.65"/>
	<rect x="641.14" y="502.06" width="365.83" height="91.35" style="fill:none;stroke:#808080;stroke-opacity:0.65;stroke-width:8.64"/>
	<line x1="636.82" y1="687.70" x2="1011.28" y2="687.70" style="stroke:#000000;stroke-width:8.64"/>
	<text x="1071.30" y="582.76" style="font-family:'Helvetica';font-size:99.99px;fill:#000000">CI95%</text>
	<text x="1071.30" y="722.73" style="font-family:'Helvetica';font-size:99.99px;fill:#000000">Difference</text>
	<text x="2209.06" y="369.63" style="font-family:'Helvetica';font-size:110.01px;fill:#000000" text-anchor="middle">from Readmission to 2nd Readmission</text>
	<text x="2209.06" y="215.98" style="font-family:'Helvetica';font-size:139.96px;fill:#1E2D53" text-anchor="middle">Difference in Probabilities</text>
</svg>
