<?xml version="1.0" encoding="UTF-8" standalone="no"?>
<!-- This is a Stata 16.1 generated SVG file (http://www.stata.com) -->

<svg version="1.1" width="5.50in" height="4.00in" viewBox="0 0 3960 2880" xmlns="http://www.w3.org/2000/svg" xmlns:xlink="http://www.w3.org/1999/xlink">
	<desc>Stata Graph - los2_models33_3y_rp_22</desc>
	<rect x="0" y="0" width="3960" height="2880" style="fill:#EAF2F3;stroke:none"/>
	<rect x="0.00" y="0.00" width="3959.88" height="2880.00" style="fill:#FFFFFF"/>
	<rect x="2.88" y="2.88" width="3954.12" height="2874.24" style="fill:none;stroke:#FFFFFF;stroke-width:5.76"/>
	<rect x="553.29" y="419.90" width="3305.73" height="2089.34" style="fill:#FFFFFF"/>
	<rect x="556.17" y="422.78" width="3299.97" height="2083.58" style="fill:none;stroke:#FFFFFF;stroke-width:5.76"/>
	<line x1="553.29" y1="2445.87" x2="3859.02" y2="2445.87" style="stroke:#EAF2F3;stroke-width:8.64"/>
	<line x1="553.29" y1="2252.57" x2="3859.02" y2="2252.57" style="stroke:#EAF2F3;stroke-width:8.64"/>
	<line x1="553.29" y1="2059.14" x2="3859.02" y2="2059.14" style="stroke:#EAF2F3;stroke-width:8.64"/>
	<line x1="553.29" y1="1865.84" x2="3859.02" y2="1865.84" style="stroke:#EAF2F3;stroke-width:8.64"/>
	<line x1="553.29" y1="1672.41" x2="3859.02" y2="1672.41" style="stroke:#EAF2F3;stroke-width:8.64"/>
	<line x1="553.29" y1="1479.11" x2="3859.02" y2="1479.11" style="stroke:#EAF2F3;stroke-width:8.64"/>
	<line x1="553.29" y1="1285.68" x2="3859.02" y2="1285.68" style="stroke:#EAF2F3;stroke-width:8.64"/>
	<line x1="553.29" y1="1092.38" x2="3859.02" y2="1092.38" style="stroke:#EAF2F3;stroke-width:8.64"/>
	<line x1="553.29" y1="898.95" x2="3859.02" y2="898.95" style="stroke:#EAF2F3;stroke-width:8.64"/>
	<line x1="553.29" y1="705.64" x2="3859.02" y2="705.64" style="stroke:#EAF2F3;stroke-width:8.64"/>
	<defs>
		<path id="path_MaPfzROn" d="M773.31 2349.96 L773.31 2349.96 L790.14 2349.96 L790.14 2339.81 L807.10 2339.81 L807.10 2329.79 L823.93 2329.79 L823.93 2319.77 L840.88 2319.77 L840.88 2309.74 L857.71 2309.74 L857.71 2299.72 L874.54 2299.72 L874.54 2289.82 L891.50 2289.82 L891.50 2280.04 L908.33 2280.04 L908.33 2270.26 L925.28 2270.26 L925.28 2260.49 L942.11 2260.49 L942.11 2250.84 L959.06 2250.84 L959.06 2241.18 L975.89 2241.18 L975.89 2231.65 L992.72 2231.65 L992.72 2222.12 L1009.68 2222.12 L1009.68 2212.60 L1026.51 2212.60 L1026.51 2203.19 L1043.46 2203.19 L1043.46 2193.78 L1060.29 2193.78 L1060.29 2184.50 L1077.24 2184.50 L1077.24 2175.35 L1094.07 2175.35 L1094.07 2166.06 L1110.90 2166.06 L1110.90 2157.03 L1127.86 2157.03 L1127.86 2147.87 L1144.69 2147.87 L1144.69 2138.84 L1161.64 2138.84 L1161.64 2129.93 L1178.47 2129.93 L1178.47 2120.89 L1195.42 2120.89 L1195.42 2112.11 L1212.26 2112.11 L1212.26 2103.20 L1229.09 2103.20 L1229.09 2094.53 L1246.04 2094.53 L1246.04 2085.75 L1262.87 2085.75 L1262.87 2077.08 L1279.82 2077.08 L1279.82 2068.42 L1296.65 2068.42 L1296.65 2059.88 L1313.61 2059.88 L1313.61 2051.34 L1330.44 2051.34 L1330.44 2042.81 L1347.27 2042.81 L1347.27 2034.39 L1364.22 2034.39 L1364.22 2025.97 L1381.05 2025.97 L1381.05 2017.68 L1398.00 2017.68 L1398.00 2009.39 L1414.83 2009.39 L1414.83 2001.10 L1431.66 2001.10 L1431.66 1992.81 L1448.62 1992.81 L1448.62 1984.64 L1465.45 1984.64 L1465.45 1976.60 L1482.40 1976.60 L1482.40 1968.43 L1499.23 1968.43 L1499.23 1960.39 L1516.18 1960.39 L1516.18 1952.34 L1533.02 1952.34 L1533.02 1944.42 L1549.85 1944.42 L1549.85 1936.50 L1566.80 1936.50 L1566.80 1928.58 L1583.63 1928.58 L1583.63 1920.66 L1600.58 1920.66 L1600.58 1912.86 L1617.41 1912.86 L1617.41 1905.07 L1634.37 1905.07 L1634.37 1897.27 L1651.20 1897.27 L1651.20 1889.60 L1668.03 1889.60 L1668.03 1881.93 L1684.98 1881.93 L1684.98 1874.25 L1701.81 1874.25 L1701.81 1866.58 L1718.76 1866.58 L1718.76 1859.03 L1735.59 1859.03 L1735.59 1851.48 L1752.55 1851.48 L1752.55 1843.93 L1769.38 1843.93 L1769.38 1836.38 L1786.21 1836.38 L1786.21 1828.96 L1803.16 1828.96 L1803.16 1821.53 L1819.99 1821.53 L1819.99 1814.11 L1836.94 1814.11 L1836.94 1806.68 L1853.78 1806.68 L1853.78 1799.38 L1870.73 1799.38 L1870.73 1791.96 L1887.56 1791.96 L1887.56 1784.65 L1904.39 1784.65 L1904.39 1777.48 L1921.34 1777.48 L1921.34 1770.18 L1938.17 1770.18 L1938.17 1763.00 L1955.13 1763.00 L1955.13 1755.82 L1971.96 1755.82 L1971.96 1748.64 L1988.91 1748.64 L1988.91 1741.46 L2005.74 1741.46 L2005.74 1734.41 L2022.57 1734.41 L2022.57 1727.23 L2039.52 1727.23 L2039.52 1720.18 L2056.35 1720.18 L2056.35 1713.25 L2073.31 1713.25 L2073.31 1706.19 L2090.14 1706.19 L2090.14 1699.14 L2106.97 1699.14 L2106.97 1692.21 L2123.92 1692.21 L2123.92 1685.28 L2140.75 1685.28 L2140.75 1678.35 L2157.70 1678.35 L2157.70 1671.54 L2174.53 1671.54 L2174.53 1664.61 L2191.49 1664.61 L2191.49 1657.81 L2208.32 1657.81 L2208.32 1650.88 L2225.15 1650.88 L2225.15 1644.07 L2242.10 1644.07 L2242.10 1637.39 L2258.93 1637.39 L2258.93 1630.58 L2275.89 1630.58 L2275.89 1623.77 L2292.72 1623.77 L2292.72 1617.09 L2309.67 1617.09 L2309.67 1610.41 L2326.50 1610.41 L2326.50 1603.73 L2343.33 1603.73 L2343.33 1597.04 L2360.28 1597.04 L2360.28 1590.36 L2377.11 1590.36 L2377.11 1583.80 L2394.07 1583.80 L2394.07 1577.12 L2410.90 1577.12 L2410.90 1570.56 L2427.85 1570.56 L2427.85 1564.00 L2444.68 1564.00 L2444.68 1557.44 L2461.51 1557.44 L2461.51 1550.88 L2478.47 1550.88 L2478.47 1544.32 L2495.30 1544.32 L2495.30 1537.89 L2512.25 1537.89 L2512.25 1531.33 L2529.08 1531.33 L2529.08 1524.90 L2546.03 1524.90 L2546.03 1518.46 L2562.86 1518.46 L2562.86 1512.02 L2579.69 1512.02 L2579.69 1505.59 L2596.65 1505.59 L2596.65 1499.15 L2613.48 1499.15 L2613.48 1492.84 L2630.43 1492.84 L2630.43 1486.41 L2647.26 1486.41 L2647.26 1480.10 L2664.21 1480.10 L2664.21 1473.78 L2681.04 1473.78 L2681.04 1467.35 L2697.87 1467.35 L2697.87 1461.04 L2714.83 1461.04 L2714.83 1454.85 L2731.66 1454.85 L2731.66 1448.54 L2748.61 1448.54 L2748.61 1442.23 L2765.44 1442.23 L2765.44 1436.04 L2782.27 1436.04 L2782.27 1429.85 L2799.22 1429.85 L2799.22 1423.66 L2816.05 1423.66 L2816.05 1417.35 L2833.01 1417.35 L2833.01 1411.17 L2849.84 1411.17 L2849.84 1405.10 L2866.79 1405.10 L2866.79 1398.91 L2883.62 1398.91 L2883.62 1392.73 L2900.45 1392.73 L2900.45 1386.66 L2917.41 1386.66 L2917.41 1380.47 L2934.24 1380.47 L2934.24 1374.41 L2951.19 1374.41 L2951.19 1368.35 L2968.02 1368.35 L2968.02 1362.28 L2984.97 1362.28 L2984.97 1356.22 L3001.80 1356.22 L3001.80 1350.15 L3018.63 1350.15 L3018.63 1344.09 L3035.59 1344.09 L3035.59 1338.15 L3052.42 1338.15 L3052.42 1332.09 L3069.37 1332.09 L3069.37 1326.15 L3086.20 1326.15 L3086.20 1320.08 L3103.16 1320.08 L3103.16 1314.14 L3119.99 1314.14 L3119.99 1308.20 L3136.82 1308.20 L3136.82 1302.26 L3153.77 1302.26 L3153.77 1296.32 L3170.60 1296.32 L3170.60 1290.51 L3187.55 1290.51 L3187.55 1284.57 L3204.38 1284.57 L3204.38 1278.62 L3221.34 1278.62 L3221.34 1272.81 L3238.17 1272.81 L3238.17 1266.87 L3255.00 1266.87 L3255.00 1261.05 L3271.95 1261.05 L3271.95 1255.24 L3288.78 1255.24 L3288.78 1249.42 L3305.73 1249.42 L3305.73 1243.60 L3322.56 1243.60 L3322.56 1237.79 L3339.52 1237.79 L3339.52 1231.97 L3356.35 1231.97 L3356.35 1226.28 L3373.18 1226.28 L3373.18 1220.46 L3390.13 1220.46 L3390.13 1214.77 L3406.96 1214.77 L3406.96 1208.95 L3423.91 1208.95 L3423.91 1203.26 L3440.74 1203.26 L3440.74 1197.57 L3457.57 1197.57 L3457.57 1191.87 L3474.53 1191.87 L3474.53 1186.18 L3491.36 1186.18 L3491.36 1180.49 L3508.31 1180.49 L3508.31 1174.80 L3525.14 1174.80 L3525.14 1169.23 L3542.10 1169.23 L3542.10 1163.53 L3558.93 1163.53 L3558.93 1157.96 L3575.76 1157.96 L3575.76 1152.27 L3592.71 1152.27 L3592.71 1146.70 L3609.54 1146.70 L3609.54 1141.13 L3626.49 1141.13 L3626.49 1135.44 L3643.32 1135.44 L3643.32 1129.87 L3660.28 1129.87 L3660.28 1124.30 L3677.11 1124.30 L3677.11 1118.73 L3693.94 1118.73 L3693.94 1113.17 L3710.89 1113.17 L3710.89 1107.72 L3727.72 1107.72 L3727.72 1102.15 L3744.68 1102.15 L3744.68 1096.58 L3761.51 1096.58 L3761.51 1091.14 L3778.46 1091.14 L3778.46 1085.57 L3795.29 1085.57 L3795.29 1080.12 L3795.29 893.13 L3795.29 900.06 L3778.46 900.06 L3778.46 906.99 L3761.51 906.99 L3761.51 913.92 L3744.68 913.92 L3744.68 920.85 L3727.72 920.85 L3727.72 927.78 L3710.89 927.78 L3710.89 934.71 L3693.94 934.71 L3693.94 941.64 L3677.11 941.64 L3677.11 948.70 L3660.28 948.70 L3660.28 955.63 L3643.32 955.63 L3643.32 962.68 L3626.49 962.68 L3626.49 969.61 L3609.54 969.61 L3609.54 976.67 L3592.71 976.67 L3592.71 983.60 L3575.76 983.60 L3575.76 990.65 L3558.93 990.65 L3558.93 997.70 L3542.10 997.70 L3542.10 1004.76 L3525.14 1004.76 L3525.14 1011.81 L3508.31 1011.81 L3508.31 1018.87 L3491.36 1018.87 L3491.36 1025.92 L3474.53 1025.92 L3474.53 1032.97 L3457.57 1032.97 L3457.57 1040.03 L3440.74 1040.03 L3440.74 1047.08 L3423.91 1047.08 L3423.91 1054.26 L3406.96 1054.26 L3406.96 1061.31 L3390.13 1061.31 L3390.13 1068.49 L3373.18 1068.49 L3373.18 1075.54 L3356.35 1075.54 L3356.35 1082.72 L3339.52 1082.72 L3339.52 1089.90 L3322.56 1089.90 L3322.56 1097.08 L3305.73 1097.08 L3305.73 1104.26 L3288.78 1104.26 L3288.78 1111.43 L3271.95 1111.43 L3271.95 1118.61 L3255.00 1118.61 L3255.00 1125.79 L3238.17 1125.79 L3238.17 1132.97 L3221.34 1132.97 L3221.34 1140.27 L3204.38 1140.27 L3204.38 1147.45 L3187.55 1147.45 L3187.55 1154.75 L3170.60 1154.75 L3170.60 1161.93 L3153.77 1161.93 L3153.77 1169.23 L3136.82 1169.23 L3136.82 1176.53 L3119.99 1176.53 L3119.99 1183.83 L3103.16 1183.83 L3103.16 1191.13 L3086.20 1191.13 L3086.20 1198.43 L3069.37 1198.43 L3069.37 1205.73 L3052.42 1205.73 L3052.42 1213.04 L3035.59 1213.04 L3035.59 1220.34 L3018.63 1220.34 L3018.63 1227.76 L3001.80 1227.76 L3001.80 1235.06 L2984.97 1235.06 L2984.97 1242.49 L2968.02 1242.49 L2968.02 1249.79 L2951.19 1249.79 L2951.19 1257.22 L2934.24 1257.22 L2934.24 1264.64 L2917.41 1264.64 L2917.41 1272.07 L2900.45 1272.07 L2900.45 1279.49 L2883.62 1279.49 L2883.62 1286.92 L2866.79 1286.92 L2866.79 1294.34 L2849.84 1294.34 L2849.84 1301.77 L2833.01 1301.77 L2833.01 1309.32 L2816.05 1309.32 L2816.05 1316.74 L2799.22 1316.74 L2799.22 1324.17 L2782.27 1324.17 L2782.27 1331.72 L2765.44 1331.72 L2765.44 1339.26 L2748.61 1339.26 L2748.61 1346.81 L2731.66 1346.81 L2731.66 1354.36 L2714.83 1354.36 L2714.83 1361.91 L2697.87 1361.91 L2697.87 1369.46 L2681.04 1369.46 L2681.04 1377.01 L2664.21 1377.01 L2664.21 1384.56 L2647.26 1384.56 L2647.26 1392.23 L2630.43 1392.23 L2630.43 1399.78 L2613.48 1399.78 L2613.48 1407.45 L2596.65 1407.45 L2596.65 1415.13 L2579.69 1415.13 L2579.69 1422.67 L2562.86 1422.67 L2562.86 1430.35 L2546.03 1430.35 L2546.03 1438.02 L2529.08 1438.02 L2529.08 1445.82 L2512.25 1445.82 L2512.25 1453.49 L2495.30 1453.49 L2495.30 1461.16 L2478.47 1461.16 L2478.47 1468.96 L2461.51 1468.96 L2461.51 1476.63 L2444.68 1476.63 L2444.68 1484.43 L2427.85 1484.43 L2427.85 1492.22 L2410.90 1492.22 L2410.90 1500.02 L2394.07 1500.02 L2394.07 1507.82 L2377.11 1507.82 L2377.11 1515.61 L2360.28 1515.61 L2360.28 1523.41 L2343.33 1523.41 L2343.33 1531.21 L2326.50 1531.21 L2326.50 1539.13 L2309.67 1539.13 L2309.67 1547.05 L2292.72 1547.05 L2292.72 1554.84 L2275.89 1554.84 L2275.89 1562.76 L2258.93 1562.76 L2258.93 1570.68 L2242.10 1570.68 L2242.10 1578.60 L2225.15 1578.60 L2225.15 1586.65 L2208.32 1586.65 L2208.32 1594.57 L2191.49 1594.57 L2191.49 1602.61 L2174.53 1602.61 L2174.53 1610.53 L2157.70 1610.53 L2157.70 1618.58 L2140.75 1618.58 L2140.75 1626.62 L2123.92 1626.62 L2123.92 1634.66 L2106.97 1634.66 L2106.97 1642.71 L2090.14 1642.71 L2090.14 1650.75 L2073.31 1650.75 L2073.31 1658.92 L2056.35 1658.92 L2056.35 1667.09 L2039.52 1667.09 L2039.52 1675.13 L2022.57 1675.13 L2022.57 1683.30 L2005.74 1683.30 L2005.74 1691.47 L1988.91 1691.47 L1988.91 1699.76 L1971.96 1699.76 L1971.96 1707.93 L1955.13 1707.93 L1955.13 1716.22 L1938.17 1716.22 L1938.17 1724.39 L1921.34 1724.39 L1921.34 1732.68 L1904.39 1732.68 L1904.39 1740.97 L1887.56 1740.97 L1887.56 1749.38 L1870.73 1749.38 L1870.73 1757.68 L1853.78 1757.68 L1853.78 1766.09 L1836.94 1766.09 L1836.94 1774.51 L1819.99 1774.51 L1819.99 1782.92 L1803.16 1782.92 L1803.16 1791.34 L1786.21 1791.34 L1786.21 1799.75 L1769.38 1799.75 L1769.38 1808.29 L1752.55 1808.29 L1752.55 1816.71 L1735.59 1816.71 L1735.59 1825.25 L1718.76 1825.25 L1718.76 1833.78 L1701.81 1833.78 L1701.81 1842.32 L1684.98 1842.32 L1684.98 1850.99 L1668.03 1850.99 L1668.03 1859.53 L1651.20 1859.53 L1651.20 1868.19 L1634.37 1868.19 L1634.37 1876.85 L1617.41 1876.85 L1617.41 1885.51 L1600.58 1885.51 L1600.58 1894.30 L1583.63 1894.30 L1583.63 1902.96 L1566.80 1902.96 L1566.80 1911.75 L1549.85 1911.75 L1549.85 1920.54 L1533.02 1920.54 L1533.02 1929.32 L1516.18 1929.32 L1516.18 1938.23 L1499.23 1938.23 L1499.23 1947.14 L1482.40 1947.14 L1482.40 1956.05 L1465.45 1956.05 L1465.45 1964.96 L1448.62 1964.96 L1448.62 1973.87 L1431.66 1973.87 L1431.66 1982.91 L1414.83 1982.91 L1414.83 1991.94 L1398.00 1991.94 L1398.00 2000.98 L1381.05 2000.98 L1381.05 2010.01 L1364.22 2010.01 L1364.22 2019.17 L1347.27 2019.17 L1347.27 2028.33 L1330.44 2028.33 L1330.44 2037.48 L1313.61 2037.48 L1313.61 2046.64 L1296.65 2046.64 L1296.65 2055.92 L1279.82 2055.92 L1279.82 2065.20 L1262.87 2065.20 L1262.87 2074.49 L1246.04 2074.49 L1246.04 2083.89 L1229.09 2083.89 L1229.09 2093.17 L1212.26 2093.17 L1212.26 2102.58 L1195.42 2102.58 L1195.42 2112.11 L1178.47 2112.11 L1178.47 2121.51 L1161.64 2121.51 L1161.64 2131.04 L1144.69 2131.04 L1144.69 2140.57 L1127.86 2140.57 L1127.86 2150.22 L1110.90 2150.22 L1110.90 2159.88 L1094.07 2159.88 L1094.07 2169.53 L1077.24 2169.53 L1077.24 2179.18 L1060.29 2179.18 L1060.29 2188.96 L1043.46 2188.96 L1043.46 2198.73 L1026.51 2198.73 L1026.51 2208.51 L1009.68 2208.51 L1009.68 2218.41 L992.72 2218.41 L992.72 2228.19 L975.89 2228.19 L975.89 2238.21 L959.06 2238.21 L959.06 2248.11 L942.11 2248.11 L942.11 2258.14 L925.28 2258.14 L925.28 2268.16 L908.33 2268.16 L908.33 2278.18 L891.50 2278.18 L891.50 2288.33 L874.54 2288.33 L874.54 2298.36 L857.71 2298.36 L857.71 2308.63 L840.88 2308.63 L840.88 2318.78 L823.93 2318.78 L823.93 2329.05 L807.10 2329.05 L807.10 2339.20 L790.14 2339.20 L790.14 2349.47 L773.31 2349.47 L773.31 2349.96 Z" stroke-linejoin="round"/>
	</defs>
	<defs>
		<clipPath id="clipPath_iviJTCWK">
			<use xlink:href="#path_MaPfzROn"/>
		</clipPath>
	</defs>
	<use xlink:href="#path_MaPfzROn" style="stroke:none;fill:#999999;fill-opacity:0.35"/>
	<use xlink:href="#path_MaPfzROn" style="fill:none;stroke:#808080;stroke-opacity:0.35;stroke-width:17.28" clip-path="url(#clipPath_iviJTCWK)"/>
	<defs>
		<path id="path_alQqlLMi" d="M773.31 2350.09 L773.31 2350.09 L790.14 2350.09 L790.14 2339.94 L807.10 2339.94 L807.10 2329.79 L823.93 2329.79 L823.93 2319.77 L840.88 2319.77 L840.88 2309.87 L857.71 2309.87 L857.71 2299.84 L874.54 2299.84 L874.54 2290.07 L891.50 2290.07 L891.50 2280.17 L908.33 2280.17 L908.33 2270.39 L925.28 2270.39 L925.28 2260.74 L942.11 2260.74 L942.11 2251.08 L959.06 2251.08 L959.06 2241.55 L975.89 2241.55 L975.89 2232.02 L992.72 2232.02 L992.72 2222.50 L1009.68 2222.50 L1009.68 2213.09 L1026.51 2213.09 L1026.51 2203.81 L1043.46 2203.81 L1043.46 2194.53 L1060.29 2194.53 L1060.29 2185.25 L1077.24 2185.25 L1077.24 2176.09 L1094.07 2176.09 L1094.07 2167.05 L1110.90 2167.05 L1110.90 2157.90 L1127.86 2157.90 L1127.86 2148.99 L1144.69 2148.99 L1144.69 2139.95 L1161.64 2139.95 L1161.64 2131.04 L1178.47 2131.04 L1178.47 2122.26 L1195.42 2122.26 L1195.42 2113.47 L1212.26 2113.47 L1212.26 2104.81 L1229.09 2104.81 L1229.09 2096.02 L1246.04 2096.02 L1246.04 2087.48 L1262.87 2087.48 L1262.87 2078.82 L1279.82 2078.82 L1279.82 2070.40 L1296.65 2070.40 L1296.65 2061.86 L1313.61 2061.86 L1313.61 2053.45 L1330.44 2053.45 L1330.44 2045.03 L1347.27 2045.03 L1347.27 2036.74 L1364.22 2036.74 L1364.22 2028.45 L1381.05 2028.45 L1381.05 2020.28 L1398.00 2020.28 L1398.00 2011.99 L1414.83 2011.99 L1414.83 2003.95 L1431.66 2003.95 L1431.66 1995.78 L1448.62 1995.78 L1448.62 1987.73 L1465.45 1987.73 L1465.45 1979.69 L1482.40 1979.69 L1482.40 1971.77 L1499.23 1971.77 L1499.23 1963.85 L1516.18 1963.85 L1516.18 1955.93 L1533.02 1955.93 L1533.02 1948.01 L1549.85 1948.01 L1549.85 1940.21 L1566.80 1940.21 L1566.80 1932.42 L1583.63 1932.42 L1583.63 1924.74 L1600.58 1924.74 L1600.58 1916.95 L1617.41 1916.95 L1617.41 1909.27 L1634.37 1909.27 L1634.37 1901.73 L1651.20 1901.73 L1651.20 1894.05 L1668.03 1894.05 L1668.03 1886.50 L1684.98 1886.50 L1684.98 1878.95 L1701.81 1878.95 L1701.81 1871.53 L1718.76 1871.53 L1718.76 1864.10 L1735.59 1864.10 L1735.59 1856.68 L1752.55 1856.68 L1752.55 1849.25 L1769.38 1849.25 L1769.38 1841.83 L1786.21 1841.83 L1786.21 1834.53 L1803.16 1834.53 L1803.16 1827.23 L1819.99 1827.23 L1819.99 1819.92 L1836.94 1819.92 L1836.94 1812.75 L1853.78 1812.75 L1853.78 1805.45 L1870.73 1805.45 L1870.73 1798.27 L1887.56 1798.27 L1887.56 1791.21 L1904.39 1791.21 L1904.39 1784.04 L1921.34 1784.04 L1921.34 1776.86 L1938.17 1776.86 L1938.17 1769.80 L1955.13 1769.80 L1955.13 1762.75 L1971.96 1762.75 L1971.96 1755.82 L1988.91 1755.82 L1988.91 1748.77 L2005.74 1748.77 L2005.74 1741.84 L2022.57 1741.84 L2022.57 1734.91 L2039.52 1734.91 L2039.52 1727.98 L2056.35 1727.98 L2056.35 1721.05 L2073.31 1721.05 L2073.31 1714.11 L2090.14 1714.11 L2090.14 1707.31 L2106.97 1707.31 L2106.97 1700.50 L2123.92 1700.50 L2123.92 1693.70 L2140.75 1693.70 L2140.75 1686.89 L2157.70 1686.89 L2157.70 1680.21 L2174.53 1680.21 L2174.53 1673.52 L2191.49 1673.52 L2191.49 1666.72 L2208.32 1666.72 L2208.32 1660.03 L2225.15 1660.03 L2225.15 1653.48 L2242.10 1653.48 L2242.10 1646.79 L2258.93 1646.79 L2258.93 1640.23 L2275.89 1640.23 L2275.89 1633.55 L2292.72 1633.55 L2292.72 1626.99 L2309.67 1626.99 L2309.67 1620.43 L2326.50 1620.43 L2326.50 1613.87 L2343.33 1613.87 L2343.33 1607.44 L2360.28 1607.44 L2360.28 1600.88 L2377.11 1600.88 L2377.11 1594.44 L2394.07 1594.44 L2394.07 1588.01 L2410.90 1588.01 L2410.90 1581.57 L2427.85 1581.57 L2427.85 1575.14 L2444.68 1575.14 L2444.68 1568.70 L2461.51 1568.70 L2461.51 1562.39 L2478.47 1562.39 L2478.47 1555.96 L2495.30 1555.96 L2495.30 1549.65 L2512.25 1549.65 L2512.25 1543.33 L2529.08 1543.33 L2529.08 1537.02 L2546.03 1537.02 L2546.03 1530.71 L2562.86 1530.71 L2562.86 1524.40 L2579.69 1524.40 L2579.69 1518.21 L2596.65 1518.21 L2596.65 1512.02 L2613.48 1512.02 L2613.48 1505.71 L2630.43 1505.71 L2630.43 1499.53 L2647.26 1499.53 L2647.26 1493.34 L2664.21 1493.34 L2664.21 1487.15 L2681.04 1487.15 L2681.04 1481.09 L2697.87 1481.09 L2697.87 1474.90 L2714.83 1474.90 L2714.83 1468.71 L2731.66 1468.71 L2731.66 1462.65 L2748.61 1462.65 L2748.61 1456.58 L2765.44 1456.58 L2765.44 1450.52 L2782.27 1450.52 L2782.27 1444.46 L2799.22 1444.46 L2799.22 1438.39 L2816.05 1438.39 L2816.05 1432.33 L2833.01 1432.33 L2833.01 1426.26 L2849.84 1426.26 L2849.84 1420.32 L2866.79 1420.32 L2866.79 1414.38 L2883.62 1414.38 L2883.62 1408.32 L2900.45 1408.32 L2900.45 1402.38 L2917.41 1402.38 L2917.41 1396.44 L2934.24 1396.44 L2934.24 1390.50 L2951.19 1390.50 L2951.19 1384.56 L2968.02 1384.56 L2968.02 1378.74 L2984.97 1378.74 L2984.97 1372.80 L3001.80 1372.80 L3001.80 1366.86 L3018.63 1366.86 L3018.63 1361.05 L3035.59 1361.05 L3035.59 1355.23 L3052.42 1355.23 L3052.42 1349.41 L3069.37 1349.41 L3069.37 1343.60 L3086.20 1343.60 L3086.20 1337.78 L3103.16 1337.78 L3103.16 1331.96 L3119.99 1331.96 L3119.99 1326.15 L3136.82 1326.15 L3136.82 1320.45 L3153.77 1320.45 L3153.77 1314.64 L3170.60 1314.64 L3170.60 1308.94 L3187.55 1308.94 L3187.55 1303.25 L3204.38 1303.25 L3204.38 1297.44 L3221.34 1297.44 L3221.34 1291.74 L3238.17 1291.74 L3238.17 1286.05 L3255.00 1286.05 L3255.00 1280.36 L3271.95 1280.36 L3271.95 1274.79 L3288.78 1274.79 L3288.78 1269.10 L3305.73 1269.10 L3305.73 1263.40 L3322.56 1263.40 L3322.56 1257.83 L3339.52 1257.83 L3339.52 1252.27 L3356.35 1252.27 L3356.35 1246.57 L3373.18 1246.57 L3373.18 1241.00 L3390.13 1241.00 L3390.13 1235.43 L3406.96 1235.43 L3406.96 1229.87 L3423.91 1229.87 L3423.91 1224.30 L3440.74 1224.30 L3440.74 1218.73 L3457.57 1218.73 L3457.57 1213.16 L3474.53 1213.16 L3474.53 1207.71 L3491.36 1207.71 L3491.36 1202.15 L3508.31 1202.15 L3508.31 1196.70 L3525.14 1196.70 L3525.14 1191.13 L3542.10 1191.13 L3542.10 1185.69 L3558.93 1185.69 L3558.93 1180.24 L3575.76 1180.24 L3575.76 1174.80 L3592.71 1174.80 L3592.71 1169.35 L3609.54 1169.35 L3609.54 1163.91 L3626.49 1163.91 L3626.49 1158.46 L3643.32 1158.46 L3643.32 1153.01 L3660.28 1153.01 L3660.28 1147.69 L3677.11 1147.69 L3677.11 1142.25 L3693.94 1142.25 L3693.94 1136.93 L3710.89 1136.93 L3710.89 1131.48 L3727.72 1131.48 L3727.72 1126.16 L3744.68 1126.16 L3744.68 1120.84 L3761.51 1120.84 L3761.51 1115.52 L3778.46 1115.52 L3778.46 1110.20 L3795.29 1110.20 L3795.29 1104.87 L3795.29 935.46 L3795.29 942.01 L3778.46 942.01 L3778.46 948.70 L3761.51 948.70 L3761.51 955.26 L3744.68 955.26 L3744.68 961.82 L3727.72 961.82 L3727.72 968.50 L3710.89 968.50 L3710.89 975.06 L3693.94 975.06 L3693.94 981.74 L3677.11 981.74 L3677.11 988.42 L3660.28 988.42 L3660.28 994.98 L3643.32 994.98 L3643.32 1001.66 L3626.49 1001.66 L3626.49 1008.35 L3609.54 1008.35 L3609.54 1015.03 L3592.71 1015.03 L3592.71 1021.71 L3575.76 1021.71 L3575.76 1028.39 L3558.93 1028.39 L3558.93 1035.08 L3542.10 1035.08 L3542.10 1041.88 L3525.14 1041.88 L3525.14 1048.57 L3508.31 1048.57 L3508.31 1055.25 L3491.36 1055.25 L3491.36 1062.06 L3474.53 1062.06 L3474.53 1068.86 L3457.57 1068.86 L3457.57 1075.54 L3440.74 1075.54 L3440.74 1082.35 L3423.91 1082.35 L3423.91 1089.16 L3406.96 1089.16 L3406.96 1095.96 L3390.13 1095.96 L3390.13 1102.77 L3373.18 1102.77 L3373.18 1109.58 L3356.35 1109.58 L3356.35 1116.38 L3339.52 1116.38 L3339.52 1123.19 L3322.56 1123.19 L3322.56 1130.00 L3305.73 1130.00 L3305.73 1136.93 L3288.78 1136.93 L3288.78 1143.73 L3271.95 1143.73 L3271.95 1150.66 L3255.00 1150.66 L3255.00 1157.47 L3238.17 1157.47 L3238.17 1164.40 L3221.34 1164.40 L3221.34 1171.33 L3204.38 1171.33 L3204.38 1178.26 L3187.55 1178.26 L3187.55 1185.19 L3170.60 1185.19 L3170.60 1192.12 L3153.77 1192.12 L3153.77 1199.05 L3136.82 1199.05 L3136.82 1205.98 L3119.99 1205.98 L3119.99 1213.04 L3103.16 1213.04 L3103.16 1219.97 L3086.20 1219.97 L3086.20 1226.90 L3069.37 1226.90 L3069.37 1233.95 L3052.42 1233.95 L3052.42 1241.00 L3035.59 1241.00 L3035.59 1247.93 L3018.63 1247.93 L3018.63 1254.99 L3001.80 1254.99 L3001.80 1262.04 L2984.97 1262.04 L2984.97 1269.10 L2968.02 1269.10 L2968.02 1276.27 L2951.19 1276.27 L2951.19 1283.33 L2934.24 1283.33 L2934.24 1290.38 L2917.41 1290.38 L2917.41 1297.56 L2900.45 1297.56 L2900.45 1304.61 L2883.62 1304.61 L2883.62 1311.79 L2866.79 1311.79 L2866.79 1318.97 L2849.84 1318.97 L2849.84 1326.02 L2833.01 1326.02 L2833.01 1333.20 L2816.05 1333.20 L2816.05 1340.38 L2799.22 1340.38 L2799.22 1347.56 L2782.27 1347.56 L2782.27 1354.86 L2765.44 1354.86 L2765.44 1362.04 L2748.61 1362.04 L2748.61 1369.34 L2731.66 1369.34 L2731.66 1376.51 L2714.83 1376.51 L2714.83 1383.82 L2697.87 1383.82 L2697.87 1391.12 L2681.04 1391.12 L2681.04 1398.29 L2664.21 1398.29 L2664.21 1405.60 L2647.26 1405.60 L2647.26 1412.90 L2630.43 1412.90 L2630.43 1420.32 L2613.48 1420.32 L2613.48 1427.62 L2596.65 1427.62 L2596.65 1434.93 L2579.69 1434.93 L2579.69 1442.35 L2562.86 1442.35 L2562.86 1449.65 L2546.03 1449.65 L2546.03 1457.08 L2529.08 1457.08 L2529.08 1464.50 L2512.25 1464.50 L2512.25 1471.93 L2495.30 1471.93 L2495.30 1479.35 L2478.47 1479.35 L2478.47 1486.78 L2461.51 1486.78 L2461.51 1494.33 L2444.68 1494.33 L2444.68 1501.75 L2427.85 1501.75 L2427.85 1509.30 L2410.90 1509.30 L2410.90 1516.73 L2394.07 1516.73 L2394.07 1524.28 L2377.11 1524.28 L2377.11 1531.83 L2360.28 1531.83 L2360.28 1539.37 L2343.33 1539.37 L2343.33 1547.05 L2326.50 1547.05 L2326.50 1554.60 L2309.67 1554.60 L2309.67 1562.15 L2292.72 1562.15 L2292.72 1569.82 L2275.89 1569.82 L2275.89 1577.49 L2258.93 1577.49 L2258.93 1585.16 L2242.10 1585.16 L2242.10 1592.84 L2225.15 1592.84 L2225.15 1600.51 L2208.32 1600.51 L2208.32 1608.18 L2191.49 1608.18 L2191.49 1615.98 L2174.53 1615.98 L2174.53 1623.65 L2157.70 1623.65 L2157.70 1631.45 L2140.75 1631.45 L2140.75 1639.24 L2123.92 1639.24 L2123.92 1647.04 L2106.97 1647.04 L2106.97 1654.84 L2090.14 1654.84 L2090.14 1662.76 L2073.31 1662.76 L2073.31 1670.55 L2056.35 1670.55 L2056.35 1678.47 L2039.52 1678.47 L2039.52 1686.39 L2022.57 1686.39 L2022.57 1694.31 L2005.74 1694.31 L2005.74 1702.23 L1988.91 1702.23 L1988.91 1710.28 L1971.96 1710.28 L1971.96 1718.20 L1955.13 1718.20 L1955.13 1726.24 L1938.17 1726.24 L1938.17 1734.29 L1921.34 1734.29 L1921.34 1742.33 L1904.39 1742.33 L1904.39 1750.37 L1887.56 1750.37 L1887.56 1758.54 L1870.73 1758.54 L1870.73 1766.59 L1853.78 1766.59 L1853.78 1774.75 L1836.94 1774.75 L1836.94 1782.92 L1819.99 1782.92 L1819.99 1791.09 L1803.16 1791.09 L1803.16 1799.38 L1786.21 1799.38 L1786.21 1807.55 L1769.38 1807.55 L1769.38 1815.84 L1752.55 1815.84 L1752.55 1824.13 L1735.59 1824.13 L1735.59 1832.42 L1718.76 1832.42 L1718.76 1840.72 L1701.81 1840.72 L1701.81 1849.13 L1684.98 1849.13 L1684.98 1857.42 L1668.03 1857.42 L1668.03 1865.84 L1651.20 1865.84 L1651.20 1874.25 L1634.37 1874.25 L1634.37 1882.79 L1617.41 1882.79 L1617.41 1891.21 L1600.58 1891.21 L1600.58 1899.75 L1583.63 1899.75 L1583.63 1908.28 L1566.80 1908.28 L1566.80 1916.95 L1549.85 1916.95 L1549.85 1925.49 L1533.02 1925.49 L1533.02 1934.15 L1516.18 1934.15 L1516.18 1942.81 L1499.23 1942.81 L1499.23 1951.47 L1482.40 1951.47 L1482.40 1960.26 L1465.45 1960.26 L1465.45 1969.05 L1448.62 1969.05 L1448.62 1977.83 L1431.66 1977.83 L1431.66 1986.62 L1414.83 1986.62 L1414.83 1995.41 L1398.00 1995.41 L1398.00 2004.32 L1381.05 2004.32 L1381.05 2013.23 L1364.22 2013.23 L1364.22 2022.26 L1347.27 2022.26 L1347.27 2031.17 L1330.44 2031.17 L1330.44 2040.21 L1313.61 2040.21 L1313.61 2049.24 L1296.65 2049.24 L1296.65 2058.40 L1279.82 2058.40 L1279.82 2067.56 L1262.87 2067.56 L1262.87 2076.71 L1246.04 2076.71 L1246.04 2085.87 L1229.09 2085.87 L1229.09 2095.15 L1212.26 2095.15 L1212.26 2104.43 L1195.42 2104.43 L1195.42 2113.72 L1178.47 2113.72 L1178.47 2123.12 L1161.64 2123.12 L1161.64 2132.40 L1144.69 2132.40 L1144.69 2141.93 L1127.86 2141.93 L1127.86 2151.34 L1110.90 2151.34 L1110.90 2160.87 L1094.07 2160.87 L1094.07 2170.52 L1077.24 2170.52 L1077.24 2180.05 L1060.29 2180.05 L1060.29 2189.70 L1043.46 2189.70 L1043.46 2199.35 L1026.51 2199.35 L1026.51 2209.13 L1009.68 2209.13 L1009.68 2218.91 L992.72 2218.91 L992.72 2228.68 L975.89 2228.68 L975.89 2238.58 L959.06 2238.58 L959.06 2248.48 L942.11 2248.48 L942.11 2258.38 L925.28 2258.38 L925.28 2268.41 L908.33 2268.41 L908.33 2278.43 L891.50 2278.43 L891.50 2288.46 L874.54 2288.46 L874.54 2298.48 L857.71 2298.48 L857.71 2308.63 L840.88 2308.63 L840.88 2318.78 L823.93 2318.78 L823.93 2329.05 L807.10 2329.05 L807.10 2339.32 L790.14 2339.32 L790.14 2349.59 L773.31 2349.59 L773.31 2350.09 Z" stroke-linejoin="round"/>
	</defs>
	<defs>
		<clipPath id="clipPath_IsRjIYto">
			<use xlink:href="#path_alQqlLMi"/>
		</clipPath>
	</defs>
	<use xlink:href="#path_alQqlLMi" style="stroke:none;fill:#333333;fill-opacity:0.35"/>
	<use xlink:href="#path_alQqlLMi" style="fill:none;stroke:#000000;stroke-opacity:0.35;stroke-width:17.28" clip-path="url(#clipPath_IsRjIYto)"/>
	<line x1="773.19" y1="2349.84" x2="790.14" y2="2349.84" style="stroke:#808080;stroke-width:8.64"/>
	<line x1="790.14" y1="2349.84" x2="790.14" y2="2339.57" style="stroke:#808080;stroke-width:8.64"/>
	<line x1="790.14" y1="2339.57" x2="803.26" y2="2339.57" style="stroke:#808080;stroke-width:8.64"/>
	<line x1="810.32" y1="2329.42" x2="823.93" y2="2329.42" style="stroke:#808080;stroke-width:8.64"/>
	<line x1="823.93" y1="2329.42" x2="823.93" y2="2319.27" style="stroke:#808080;stroke-width:8.64"/>
	<line x1="823.93" y1="2319.27" x2="840.51" y2="2319.27" style="stroke:#808080;stroke-width:8.64"/>
	<line x1="847.69" y1="2309.25" x2="857.71" y2="2309.25" style="stroke:#808080;stroke-width:8.64"/>
	<line x1="857.71" y1="2309.25" x2="857.71" y2="2299.10" style="stroke:#808080;stroke-width:8.64"/>
	<line x1="857.71" y1="2299.10" x2="874.54" y2="2299.10" style="stroke:#808080;stroke-width:8.64"/>
	<line x1="874.54" y1="2299.10" x2="874.54" y2="2295.76" style="stroke:#808080;stroke-width:8.64"/>
	<line x1="885.18" y1="2289.08" x2="891.37" y2="2289.08" style="stroke:#808080;stroke-width:8.64"/>
	<line x1="891.37" y1="2289.08" x2="891.37" y2="2279.17" style="stroke:#808080;stroke-width:8.64"/>
	<line x1="891.37" y1="2279.17" x2="908.33" y2="2279.17" style="stroke:#808080;stroke-width:8.64"/>
	<line x1="908.33" y1="2279.17" x2="908.33" y2="2271.87" style="stroke:#808080;stroke-width:8.64"/>
	<line x1="922.93" y1="2269.27" x2="925.15" y2="2269.27" style="stroke:#808080;stroke-width:8.64"/>
	<line x1="925.15" y1="2269.27" x2="925.15" y2="2259.37" style="stroke:#808080;stroke-width:8.64"/>
	<line x1="925.15" y1="2259.37" x2="942.11" y2="2259.37" style="stroke:#808080;stroke-width:8.64"/>
	<line x1="942.11" y1="2259.37" x2="942.11" y2="2249.47" style="stroke:#808080;stroke-width:8.64"/>
	<line x1="942.11" y1="2249.47" x2="943.47" y2="2249.47" style="stroke:#808080;stroke-width:8.64"/>
	<line x1="958.94" y1="2247.74" x2="958.94" y2="2239.70" style="stroke:#808080;stroke-width:8.64"/>
	<line x1="958.94" y1="2239.70" x2="975.89" y2="2239.70" style="stroke:#808080;stroke-width:8.64"/>
	<line x1="975.89" y1="2239.70" x2="975.89" y2="2230.04" style="stroke:#808080;stroke-width:8.64"/>
	<line x1="975.89" y1="2230.04" x2="981.59" y2="2230.04" style="stroke:#808080;stroke-width:8.64"/>
	<line x1="992.72" y1="2223.98" x2="992.72" y2="2220.27" style="stroke:#808080;stroke-width:8.64"/>
	<line x1="992.72" y1="2220.27" x2="1009.55" y2="2220.27" style="stroke:#808080;stroke-width:8.64"/>
	<line x1="1009.55" y1="2220.27" x2="1009.55" y2="2210.62" style="stroke:#808080;stroke-width:8.64"/>
	<line x1="1009.55" y1="2210.62" x2="1019.70" y2="2210.62" style="stroke:#808080;stroke-width:8.64"/>
	<line x1="1027.37" y1="2200.96" x2="1043.34" y2="2200.96" style="stroke:#808080;stroke-width:8.64"/>
	<line x1="1043.34" y1="2200.96" x2="1043.34" y2="2191.43" style="stroke:#808080;stroke-width:8.64"/>
	<line x1="1043.34" y1="2191.43" x2="1058.06" y2="2191.43" style="stroke:#808080;stroke-width:8.64"/>
	<line x1="1065.86" y1="2181.90" x2="1077.12" y2="2181.90" style="stroke:#808080;stroke-width:8.64"/>
	<line x1="1077.12" y1="2181.90" x2="1077.12" y2="2172.50" style="stroke:#808080;stroke-width:8.64"/>
	<line x1="1077.12" y1="2172.50" x2="1093.95" y2="2172.50" style="stroke:#808080;stroke-width:8.64"/>
	<line x1="1093.95" y1="2172.50" x2="1093.95" y2="2169.65" style="stroke:#808080;stroke-width:8.64"/>
	<line x1="1104.59" y1="2163.09" x2="1110.90" y2="2163.09" style="stroke:#808080;stroke-width:8.64"/>
	<line x1="1110.90" y1="2163.09" x2="1110.90" y2="2153.69" style="stroke:#808080;stroke-width:8.64"/>
	<line x1="1110.90" y1="2153.69" x2="1127.73" y2="2153.69" style="stroke:#808080;stroke-width:8.64"/>
	<line x1="1127.73" y1="2153.69" x2="1127.73" y2="2145.89" style="stroke:#808080;stroke-width:8.64"/>
	<line x1="1143.33" y1="2144.28" x2="1144.69" y2="2144.28" style="stroke:#808080;stroke-width:8.64"/>
	<line x1="1144.69" y1="2144.28" x2="1144.69" y2="2135.00" style="stroke:#808080;stroke-width:8.64"/>
	<line x1="1144.69" y1="2135.00" x2="1161.52" y2="2135.00" style="stroke:#808080;stroke-width:8.64"/>
	<line x1="1161.52" y1="2135.00" x2="1161.52" y2="2125.84" style="stroke:#808080;stroke-width:8.64"/>
	<line x1="1161.52" y1="2125.84" x2="1165.23" y2="2125.84" style="stroke:#808080;stroke-width:8.64"/>
	<line x1="1178.47" y1="2121.88" x2="1178.47" y2="2116.56" style="stroke:#808080;stroke-width:8.64"/>
	<line x1="1178.47" y1="2116.56" x2="1195.30" y2="2116.56" style="stroke:#808080;stroke-width:8.64"/>
	<line x1="1195.30" y1="2116.56" x2="1195.30" y2="2107.40" style="stroke:#808080;stroke-width:8.64"/>
	<line x1="1195.30" y1="2107.40" x2="1204.34" y2="2107.40" style="stroke:#808080;stroke-width:8.64"/>
	<line x1="1212.63" y1="2098.37" x2="1229.09" y2="2098.37" style="stroke:#808080;stroke-width:8.64"/>
	<line x1="1229.09" y1="2098.37" x2="1229.09" y2="2089.21" style="stroke:#808080;stroke-width:8.64"/>
	<line x1="1229.09" y1="2089.21" x2="1243.69" y2="2089.21" style="stroke:#808080;stroke-width:8.64"/>
	<line x1="1251.98" y1="2080.18" x2="1262.87" y2="2080.18" style="stroke:#808080;stroke-width:8.64"/>
	<line x1="1262.87" y1="2080.18" x2="1262.87" y2="2071.27" style="stroke:#808080;stroke-width:8.64"/>
	<line x1="1262.87" y1="2071.27" x2="1279.70" y2="2071.27" style="stroke:#808080;stroke-width:8.64"/>
	<line x1="1279.70" y1="2071.27" x2="1279.70" y2="2067.56" style="stroke:#808080;stroke-width:8.64"/>
	<line x1="1291.58" y1="2062.23" x2="1296.65" y2="2062.23" style="stroke:#808080;stroke-width:8.64"/>
	<line x1="1296.65" y1="2062.23" x2="1296.65" y2="2053.32" style="stroke:#808080;stroke-width:8.64"/>
	<line x1="1296.65" y1="2053.32" x2="1313.48" y2="2053.32" style="stroke:#808080;stroke-width:8.64"/>
	<line x1="1313.48" y1="2053.32" x2="1313.48" y2="2044.54" style="stroke:#808080;stroke-width:8.64"/>
	<line x1="1313.48" y1="2044.54" x2="1314.22" y2="2044.54" style="stroke:#808080;stroke-width:8.64"/>
	<line x1="1330.31" y1="2043.42" x2="1330.31" y2="2035.63" style="stroke:#808080;stroke-width:8.64"/>
	<line x1="1330.31" y1="2035.63" x2="1347.27" y2="2035.63" style="stroke:#808080;stroke-width:8.64"/>
	<line x1="1347.27" y1="2035.63" x2="1347.27" y2="2026.84" style="stroke:#808080;stroke-width:8.64"/>
	<line x1="1347.27" y1="2026.84" x2="1354.20" y2="2026.84" style="stroke:#808080;stroke-width:8.64"/>
	<line x1="1364.10" y1="2019.54" x2="1364.10" y2="2018.18" style="stroke:#808080;stroke-width:8.64"/>
	<line x1="1364.10" y1="2018.18" x2="1381.05" y2="2018.18" style="stroke:#808080;stroke-width:8.64"/>
	<line x1="1381.05" y1="2018.18" x2="1381.05" y2="2009.39" style="stroke:#808080;stroke-width:8.64"/>
	<line x1="1381.05" y1="2009.39" x2="1394.17" y2="2009.39" style="stroke:#808080;stroke-width:8.64"/>
	<line x1="1402.83" y1="2000.73" x2="1414.83" y2="2000.73" style="stroke:#808080;stroke-width:8.64"/>
	<line x1="1414.83" y1="2000.73" x2="1414.83" y2="1992.19" style="stroke:#808080;stroke-width:8.64"/>
	<line x1="1414.83" y1="1992.19" x2="1431.66" y2="1992.19" style="stroke:#808080;stroke-width:8.64"/>
	<line x1="1431.66" y1="1992.19" x2="1431.66" y2="1989.22" style="stroke:#808080;stroke-width:8.64"/>
	<line x1="1443.17" y1="1983.53" x2="1448.49" y2="1983.53" style="stroke:#808080;stroke-width:8.64"/>
	<line x1="1448.49" y1="1983.53" x2="1448.49" y2="1974.99" style="stroke:#808080;stroke-width:8.64"/>
	<line x1="1448.49" y1="1974.99" x2="1465.45" y2="1974.99" style="stroke:#808080;stroke-width:8.64"/>
	<line x1="1465.45" y1="1974.99" x2="1465.45" y2="1966.45" style="stroke:#808080;stroke-width:8.64"/>
	<line x1="1465.45" y1="1966.45" x2="1466.44" y2="1966.45" style="stroke:#808080;stroke-width:8.64"/>
	<line x1="1482.28" y1="1965.09" x2="1482.28" y2="1957.91" style="stroke:#808080;stroke-width:8.64"/>
	<line x1="1482.28" y1="1957.91" x2="1499.23" y2="1957.91" style="stroke:#808080;stroke-width:8.64"/>
	<line x1="1499.23" y1="1957.91" x2="1499.23" y2="1949.49" style="stroke:#808080;stroke-width:8.64"/>
	<line x1="1499.23" y1="1949.49" x2="1507.03" y2="1949.49" style="stroke:#808080;stroke-width:8.64"/>
	<line x1="1516.06" y1="1941.33" x2="1516.06" y2="1941.08" style="stroke:#808080;stroke-width:8.64"/>
	<line x1="1516.06" y1="1941.08" x2="1533.02" y2="1941.08" style="stroke:#808080;stroke-width:8.64"/>
	<line x1="1533.02" y1="1941.08" x2="1533.02" y2="1932.66" style="stroke:#808080;stroke-width:8.64"/>
	<line x1="1533.02" y1="1932.66" x2="1547.87" y2="1932.66" style="stroke:#808080;stroke-width:8.64"/>
	<line x1="1556.78" y1="1924.37" x2="1566.67" y2="1924.37" style="stroke:#808080;stroke-width:8.64"/>
	<line x1="1566.67" y1="1924.37" x2="1566.67" y2="1915.96" style="stroke:#808080;stroke-width:8.64"/>
	<line x1="1566.67" y1="1915.96" x2="1583.63" y2="1915.96" style="stroke:#808080;stroke-width:8.64"/>
	<line x1="1583.63" y1="1915.96" x2="1583.63" y2="1910.88" style="stroke:#808080;stroke-width:8.64"/>
	<line x1="1597.61" y1="1907.67" x2="1600.46" y2="1907.67" style="stroke:#808080;stroke-width:8.64"/>
	<line x1="1600.46" y1="1907.67" x2="1600.46" y2="1899.50" style="stroke:#808080;stroke-width:8.64"/>
	<line x1="1600.46" y1="1899.50" x2="1617.41" y2="1899.50" style="stroke:#808080;stroke-width:8.64"/>
	<line x1="1617.41" y1="1899.50" x2="1617.41" y2="1891.21" style="stroke:#808080;stroke-width:8.64"/>
	<line x1="1617.41" y1="1891.21" x2="1621.50" y2="1891.21" style="stroke:#808080;stroke-width:8.64"/>
	<line x1="1634.24" y1="1886.75" x2="1634.24" y2="1883.04" style="stroke:#808080;stroke-width:8.64"/>
	<line x1="1634.24" y1="1883.04" x2="1651.20" y2="1883.04" style="stroke:#808080;stroke-width:8.64"/>
	<line x1="1651.20" y1="1883.04" x2="1651.20" y2="1874.87" style="stroke:#808080;stroke-width:8.64"/>
	<line x1="1651.20" y1="1874.87" x2="1662.70" y2="1874.87" style="stroke:#808080;stroke-width:8.64"/>
	<line x1="1671.74" y1="1866.70" x2="1684.86" y2="1866.70" style="stroke:#808080;stroke-width:8.64"/>
	<line x1="1684.86" y1="1866.70" x2="1684.86" y2="1858.54" style="stroke:#808080;stroke-width:8.64"/>
	<line x1="1684.86" y1="1858.54" x2="1701.81" y2="1858.54" style="stroke:#808080;stroke-width:8.64"/>
	<line x1="1701.81" y1="1858.54" x2="1701.81" y2="1856.43" style="stroke:#808080;stroke-width:8.64"/>
	<line x1="1713.19" y1="1850.49" x2="1718.64" y2="1850.49" style="stroke:#808080;stroke-width:8.64"/>
	<line x1="1718.64" y1="1850.49" x2="1718.64" y2="1842.45" style="stroke:#808080;stroke-width:8.64"/>
	<line x1="1718.64" y1="1842.45" x2="1735.59" y2="1842.45" style="stroke:#808080;stroke-width:8.64"/>
	<line x1="1735.59" y1="1842.45" x2="1735.59" y2="1834.40" style="stroke:#808080;stroke-width:8.64"/>
	<line x1="1735.59" y1="1834.40" x2="1737.45" y2="1834.40" style="stroke:#808080;stroke-width:8.64"/>
	<line x1="1752.42" y1="1832.18" x2="1752.42" y2="1826.36" style="stroke:#808080;stroke-width:8.64"/>
	<line x1="1752.42" y1="1826.36" x2="1769.25" y2="1826.36" style="stroke:#808080;stroke-width:8.64"/>
	<line x1="1769.25" y1="1826.36" x2="1769.25" y2="1818.44" style="stroke:#808080;stroke-width:8.64"/>
	<line x1="1769.25" y1="1818.44" x2="1779.03" y2="1818.44" style="stroke:#808080;stroke-width:8.64"/>
	<line x1="1788.31" y1="1810.52" x2="1803.04" y2="1810.52" style="stroke:#808080;stroke-width:8.64"/>
	<line x1="1803.04" y1="1810.52" x2="1803.04" y2="1802.60" style="stroke:#808080;stroke-width:8.64"/>
	<line x1="1803.04" y1="1802.60" x2="1819.99" y2="1802.60" style="stroke:#808080;stroke-width:8.64"/>
	<line x1="1819.99" y1="1802.60" x2="1819.99" y2="1801.86" style="stroke:#808080;stroke-width:8.64"/>
	<line x1="1830.02" y1="1794.68" x2="1836.82" y2="1794.68" style="stroke:#808080;stroke-width:8.64"/>
	<line x1="1836.82" y1="1794.68" x2="1836.82" y2="1786.76" style="stroke:#808080;stroke-width:8.64"/>
	<line x1="1836.82" y1="1786.76" x2="1853.78" y2="1786.76" style="stroke:#808080;stroke-width:8.64"/>
	<line x1="1853.78" y1="1786.76" x2="1853.78" y2="1778.96" style="stroke:#808080;stroke-width:8.64"/>
	<line x1="1853.78" y1="1778.96" x2="1854.64" y2="1778.96" style="stroke:#808080;stroke-width:8.64"/>
	<line x1="1870.61" y1="1777.60" x2="1870.61" y2="1771.04" style="stroke:#808080;stroke-width:8.64"/>
	<line x1="1870.61" y1="1771.04" x2="1887.43" y2="1771.04" style="stroke:#808080;stroke-width:8.64"/>
	<line x1="1887.43" y1="1771.04" x2="1887.43" y2="1763.25" style="stroke:#808080;stroke-width:8.64"/>
	<line x1="1887.43" y1="1763.25" x2="1896.59" y2="1763.25" style="stroke:#808080;stroke-width:8.64"/>
	<line x1="1906.00" y1="1755.45" x2="1921.22" y2="1755.45" style="stroke:#808080;stroke-width:8.64"/>
	<line x1="1921.22" y1="1755.45" x2="1921.22" y2="1747.78" style="stroke:#808080;stroke-width:8.64"/>
	<line x1="1921.22" y1="1747.78" x2="1938.17" y2="1747.78" style="stroke:#808080;stroke-width:8.64"/>
	<line x1="1938.17" y1="1747.78" x2="1938.17" y2="1747.28" style="stroke:#808080;stroke-width:8.64"/>
	<line x1="1948.07" y1="1739.98" x2="1955.00" y2="1739.98" style="stroke:#808080;stroke-width:8.64"/>
	<line x1="1955.00" y1="1739.98" x2="1955.00" y2="1732.31" style="stroke:#808080;stroke-width:8.64"/>
	<line x1="1955.00" y1="1732.31" x2="1971.96" y2="1732.31" style="stroke:#808080;stroke-width:8.64"/>
	<line x1="1971.96" y1="1732.31" x2="1971.96" y2="1724.63" style="stroke:#808080;stroke-width:8.64"/>
	<line x1="1971.96" y1="1724.63" x2="1973.07" y2="1724.63" style="stroke:#808080;stroke-width:8.64"/>
	<line x1="1988.79" y1="1723.15" x2="1988.79" y2="1716.96" style="stroke:#808080;stroke-width:8.64"/>
	<line x1="1988.79" y1="1716.96" x2="2005.62" y2="1716.96" style="stroke:#808080;stroke-width:8.64"/>
	<line x1="2005.62" y1="1716.96" x2="2005.62" y2="1709.41" style="stroke:#808080;stroke-width:8.64"/>
	<line x1="2005.62" y1="1709.41" x2="2015.39" y2="1709.41" style="stroke:#808080;stroke-width:8.64"/>
	<line x1="2024.92" y1="1701.74" x2="2039.40" y2="1701.74" style="stroke:#808080;stroke-width:8.64"/>
	<line x1="2039.40" y1="1701.74" x2="2039.40" y2="1694.19" style="stroke:#808080;stroke-width:8.64"/>
	<line x1="2039.40" y1="1694.19" x2="2056.35" y2="1694.19" style="stroke:#808080;stroke-width:8.64"/>
	<line x1="2056.35" y1="1694.19" x2="2056.35" y2="1692.71" style="stroke:#808080;stroke-width:8.64"/>
	<line x1="2067.49" y1="1686.64" x2="2073.18" y2="1686.64" style="stroke:#808080;stroke-width:8.64"/>
	<line x1="2073.18" y1="1686.64" x2="2073.18" y2="1679.09" style="stroke:#808080;stroke-width:8.64"/>
	<line x1="2073.18" y1="1679.09" x2="2090.14" y2="1679.09" style="stroke:#808080;stroke-width:8.64"/>
	<line x1="2090.14" y1="1679.09" x2="2090.14" y2="1671.54" style="stroke:#808080;stroke-width:8.64"/>
	<line x1="2090.14" y1="1671.54" x2="2092.74" y2="1671.54" style="stroke:#808080;stroke-width:8.64"/>
	<line x1="2106.97" y1="1668.57" x2="2106.97" y2="1663.99" style="stroke:#808080;stroke-width:8.64"/>
	<line x1="2106.97" y1="1663.99" x2="2123.80" y2="1663.99" style="stroke:#808080;stroke-width:8.64"/>
	<line x1="2123.80" y1="1663.99" x2="2123.80" y2="1656.57" style="stroke:#808080;stroke-width:8.64"/>
	<line x1="2123.80" y1="1656.57" x2="2135.31" y2="1656.57" style="stroke:#808080;stroke-width:8.64"/>
	<line x1="2145.08" y1="1649.14" x2="2157.58" y2="1649.14" style="stroke:#808080;stroke-width:8.64"/>
	<line x1="2157.58" y1="1649.14" x2="2157.58" y2="1641.60" style="stroke:#808080;stroke-width:8.64"/>
	<line x1="2157.58" y1="1641.60" x2="2174.53" y2="1641.60" style="stroke:#808080;stroke-width:8.64"/>
	<line x1="2174.53" y1="1641.60" x2="2174.53" y2="1638.25" style="stroke:#808080;stroke-width:8.64"/>
	<line x1="2187.78" y1="1634.29" x2="2191.36" y2="1634.29" style="stroke:#808080;stroke-width:8.64"/>
	<line x1="2191.36" y1="1634.29" x2="2191.36" y2="1626.87" style="stroke:#808080;stroke-width:8.64"/>
	<line x1="2191.36" y1="1626.87" x2="2208.32" y2="1626.87" style="stroke:#808080;stroke-width:8.64"/>
	<line x1="2208.32" y1="1626.87" x2="2208.32" y2="1619.44" style="stroke:#808080;stroke-width:8.64"/>
	<line x1="2208.32" y1="1619.44" x2="2213.39" y2="1619.44" style="stroke:#808080;stroke-width:8.64"/>
	<line x1="2225.15" y1="1614.00" x2="2225.15" y2="1612.14" style="stroke:#808080;stroke-width:8.64"/>
	<line x1="2225.15" y1="1612.14" x2="2241.98" y2="1612.14" style="stroke:#808080;stroke-width:8.64"/>
	<line x1="2241.98" y1="1612.14" x2="2241.98" y2="1604.72" style="stroke:#808080;stroke-width:8.64"/>
	<line x1="2241.98" y1="1604.72" x2="2256.21" y2="1604.72" style="stroke:#808080;stroke-width:8.64"/>
	<line x1="2266.11" y1="1597.41" x2="2275.76" y2="1597.41" style="stroke:#808080;stroke-width:8.64"/>
	<line x1="2275.76" y1="1597.41" x2="2275.76" y2="1590.11" style="stroke:#808080;stroke-width:8.64"/>
	<line x1="2275.76" y1="1590.11" x2="2292.72" y2="1590.11" style="stroke:#808080;stroke-width:8.64"/>
	<line x1="2292.72" y1="1590.11" x2="2292.72" y2="1583.68" style="stroke:#808080;stroke-width:8.64"/>
	<line x1="2309.05" y1="1582.81" x2="2309.55" y2="1582.81" style="stroke:#808080;stroke-width:8.64"/>
	<line x1="2309.55" y1="1582.81" x2="2309.55" y2="1575.51" style="stroke:#808080;stroke-width:8.64"/>
	<line x1="2309.55" y1="1575.51" x2="2326.50" y2="1575.51" style="stroke:#808080;stroke-width:8.64"/>
	<line x1="2326.50" y1="1575.51" x2="2326.50" y2="1568.33" style="stroke:#808080;stroke-width:8.64"/>
	<line x1="2326.50" y1="1568.33" x2="2334.91" y2="1568.33" style="stroke:#808080;stroke-width:8.64"/>
	<line x1="2344.82" y1="1561.03" x2="2360.16" y2="1561.03" style="stroke:#808080;stroke-width:8.64"/>
	<line x1="2360.16" y1="1561.03" x2="2360.16" y2="1553.85" style="stroke:#808080;stroke-width:8.64"/>
	<line x1="2360.16" y1="1553.85" x2="2377.11" y2="1553.85" style="stroke:#808080;stroke-width:8.64"/>
	<line x1="2377.11" y1="1553.85" x2="2377.11" y2="1552.99" style="stroke:#808080;stroke-width:8.64"/>
	<line x1="2388.00" y1="1546.68" x2="2393.94" y2="1546.68" style="stroke:#808080;stroke-width:8.64"/>
	<line x1="2393.94" y1="1546.68" x2="2393.94" y2="1539.37" style="stroke:#808080;stroke-width:8.64"/>
	<line x1="2393.94" y1="1539.37" x2="2410.90" y2="1539.37" style="stroke:#808080;stroke-width:8.64"/>
	<line x1="2410.90" y1="1539.37" x2="2410.90" y2="1532.32" style="stroke:#808080;stroke-width:8.64"/>
	<line x1="2410.90" y1="1532.32" x2="2414.11" y2="1532.32" style="stroke:#808080;stroke-width:8.64"/>
	<line x1="2427.73" y1="1528.73" x2="2427.73" y2="1525.14" style="stroke:#808080;stroke-width:8.64"/>
	<line x1="2427.73" y1="1525.14" x2="2444.56" y2="1525.14" style="stroke:#808080;stroke-width:8.64"/>
	<line x1="2444.56" y1="1525.14" x2="2444.56" y2="1517.96" style="stroke:#808080;stroke-width:8.64"/>
	<line x1="2444.56" y1="1517.96" x2="2457.30" y2="1517.96" style="stroke:#808080;stroke-width:8.64"/>
	<line x1="2467.33" y1="1510.79" x2="2478.34" y2="1510.79" style="stroke:#808080;stroke-width:8.64"/>
	<line x1="2478.34" y1="1510.79" x2="2478.34" y2="1503.73" style="stroke:#808080;stroke-width:8.64"/>
	<line x1="2478.34" y1="1503.73" x2="2495.30" y2="1503.73" style="stroke:#808080;stroke-width:8.64"/>
	<line x1="2495.30" y1="1503.73" x2="2495.30" y2="1498.41" style="stroke:#808080;stroke-width:8.64"/>
	<line x1="2510.76" y1="1496.68" x2="2512.13" y2="1496.68" style="stroke:#808080;stroke-width:8.64"/>
	<line x1="2512.13" y1="1496.68" x2="2512.13" y2="1489.63" style="stroke:#808080;stroke-width:8.64"/>
	<line x1="2512.13" y1="1489.63" x2="2529.08" y2="1489.63" style="stroke:#808080;stroke-width:8.64"/>
	<line x1="2529.08" y1="1489.63" x2="2529.08" y2="1482.57" style="stroke:#808080;stroke-width:8.64"/>
	<line x1="2529.08" y1="1482.57" x2="2537.00" y2="1482.57" style="stroke:#808080;stroke-width:8.64"/>
	<line x1="2547.15" y1="1475.52" x2="2562.74" y2="1475.52" style="stroke:#808080;stroke-width:8.64"/>
	<line x1="2562.74" y1="1475.52" x2="2562.74" y2="1468.46" style="stroke:#808080;stroke-width:8.64"/>
	<line x1="2562.74" y1="1468.46" x2="2579.69" y2="1468.46" style="stroke:#808080;stroke-width:8.64"/>
	<line x1="2579.69" y1="1468.46" x2="2579.69" y2="1467.60" style="stroke:#808080;stroke-width:8.64"/>
	<line x1="2590.71" y1="1461.41" x2="2596.52" y2="1461.41" style="stroke:#808080;stroke-width:8.64"/>
	<line x1="2596.52" y1="1461.41" x2="2596.52" y2="1454.48" style="stroke:#808080;stroke-width:8.64"/>
	<line x1="2596.52" y1="1454.48" x2="2613.48" y2="1454.48" style="stroke:#808080;stroke-width:8.64"/>
	<line x1="2613.48" y1="1454.48" x2="2613.48" y2="1447.43" style="stroke:#808080;stroke-width:8.64"/>
	<line x1="2613.48" y1="1447.43" x2="2617.07" y2="1447.43" style="stroke:#808080;stroke-width:8.64"/>
	<line x1="2630.31" y1="1443.47" x2="2630.31" y2="1440.50" style="stroke:#808080;stroke-width:8.64"/>
	<line x1="2630.31" y1="1440.50" x2="2647.26" y2="1440.50" style="stroke:#808080;stroke-width:8.64"/>
	<line x1="2647.26" y1="1440.50" x2="2647.26" y2="1433.56" style="stroke:#808080;stroke-width:8.64"/>
	<line x1="2647.26" y1="1433.56" x2="2660.75" y2="1433.56" style="stroke:#808080;stroke-width:8.64"/>
	<line x1="2670.90" y1="1426.51" x2="2680.92" y2="1426.51" style="stroke:#808080;stroke-width:8.64"/>
	<line x1="2680.92" y1="1426.51" x2="2680.92" y2="1419.58" style="stroke:#808080;stroke-width:8.64"/>
	<line x1="2680.92" y1="1419.58" x2="2697.87" y2="1419.58" style="stroke:#808080;stroke-width:8.64"/>
	<line x1="2697.87" y1="1419.58" x2="2697.87" y2="1413.15" style="stroke:#808080;stroke-width:8.64"/>
	<line x1="2714.70" y1="1412.77" x2="2714.70" y2="1412.77" style="stroke:#808080;stroke-width:8.64"/>
	<line x1="2714.70" y1="1412.77" x2="2714.70" y2="1405.84" style="stroke:#808080;stroke-width:8.64"/>
	<line x1="2714.70" y1="1405.84" x2="2731.66" y2="1405.84" style="stroke:#808080;stroke-width:8.64"/>
	<line x1="2731.66" y1="1405.84" x2="2731.66" y2="1398.91" style="stroke:#808080;stroke-width:8.64"/>
	<line x1="2731.66" y1="1398.91" x2="2741.19" y2="1398.91" style="stroke:#808080;stroke-width:8.64"/>
	<line x1="2751.70" y1="1392.11" x2="2765.44" y2="1392.11" style="stroke:#808080;stroke-width:8.64"/>
	<line x1="2765.44" y1="1392.11" x2="2765.44" y2="1385.18" style="stroke:#808080;stroke-width:8.64"/>
	<line x1="2765.44" y1="1385.18" x2="2782.27" y2="1385.18" style="stroke:#808080;stroke-width:8.64"/>
	<line x1="2782.27" y1="1385.18" x2="2782.27" y2="1382.45" style="stroke:#808080;stroke-width:8.64"/>
	<line x1="2795.51" y1="1378.37" x2="2799.10" y2="1378.37" style="stroke:#808080;stroke-width:8.64"/>
	<line x1="2799.10" y1="1378.37" x2="2799.10" y2="1371.56" style="stroke:#808080;stroke-width:8.64"/>
	<line x1="2799.10" y1="1371.56" x2="2816.05" y2="1371.56" style="stroke:#808080;stroke-width:8.64"/>
	<line x1="2816.05" y1="1371.56" x2="2816.05" y2="1364.76" style="stroke:#808080;stroke-width:8.64"/>
	<line x1="2816.05" y1="1364.76" x2="2822.24" y2="1364.76" style="stroke:#808080;stroke-width:8.64"/>
	<line x1="2832.89" y1="1358.20" x2="2832.89" y2="1357.95" style="stroke:#808080;stroke-width:8.64"/>
	<line x1="2832.89" y1="1357.95" x2="2849.84" y2="1357.95" style="stroke:#808080;stroke-width:8.64"/>
	<line x1="2849.84" y1="1357.95" x2="2849.84" y2="1351.14" style="stroke:#808080;stroke-width:8.64"/>
	<line x1="2849.84" y1="1351.14" x2="2866.17" y2="1351.14" style="stroke:#808080;stroke-width:8.64"/>
	<line x1="2876.57" y1="1344.34" x2="2883.62" y2="1344.34" style="stroke:#808080;stroke-width:8.64"/>
	<line x1="2883.62" y1="1344.34" x2="2883.62" y2="1337.66" style="stroke:#808080;stroke-width:8.64"/>
	<line x1="2883.62" y1="1337.66" x2="2900.45" y2="1337.66" style="stroke:#808080;stroke-width:8.64"/>
	<line x1="2900.45" y1="1337.66" x2="2900.45" y2="1330.85" style="stroke:#808080;stroke-width:8.64"/>
	<line x1="2900.45" y1="1330.85" x2="2903.42" y2="1330.85" style="stroke:#808080;stroke-width:8.64"/>
	<line x1="2917.28" y1="1327.51" x2="2917.28" y2="1324.17" style="stroke:#808080;stroke-width:8.64"/>
	<line x1="2917.28" y1="1324.17" x2="2934.24" y2="1324.17" style="stroke:#808080;stroke-width:8.64"/>
	<line x1="2934.24" y1="1324.17" x2="2934.24" y2="1317.36" style="stroke:#808080;stroke-width:8.64"/>
	<line x1="2934.24" y1="1317.36" x2="2947.48" y2="1317.36" style="stroke:#808080;stroke-width:8.64"/>
	<line x1="2958.12" y1="1310.68" x2="2968.02" y2="1310.68" style="stroke:#808080;stroke-width:8.64"/>
	<line x1="2968.02" y1="1310.68" x2="2968.02" y2="1303.99" style="stroke:#808080;stroke-width:8.64"/>
	<line x1="2968.02" y1="1303.99" x2="2984.85" y2="1303.99" style="stroke:#808080;stroke-width:8.64"/>
	<line x1="2984.85" y1="1303.99" x2="2984.85" y2="1297.31" style="stroke:#808080;stroke-width:8.64"/>
	<line x1="2984.85" y1="1297.31" x2="2985.10" y2="1297.31" style="stroke:#808080;stroke-width:8.64"/>
	<line x1="3001.80" y1="1296.82" x2="3001.80" y2="1290.63" style="stroke:#808080;stroke-width:8.64"/>
	<line x1="3001.80" y1="1290.63" x2="3018.63" y2="1290.63" style="stroke:#808080;stroke-width:8.64"/>
	<line x1="3018.63" y1="1290.63" x2="3018.63" y2="1283.95" style="stroke:#808080;stroke-width:8.64"/>
	<line x1="3018.63" y1="1283.95" x2="3029.28" y2="1283.95" style="stroke:#808080;stroke-width:8.64"/>
	<line x1="3039.80" y1="1277.26" x2="3052.42" y2="1277.26" style="stroke:#808080;stroke-width:8.64"/>
	<line x1="3052.42" y1="1277.26" x2="3052.42" y2="1270.70" style="stroke:#808080;stroke-width:8.64"/>
	<line x1="3052.42" y1="1270.70" x2="3069.25" y2="1270.70" style="stroke:#808080;stroke-width:8.64"/>
	<line x1="3069.25" y1="1270.70" x2="3069.25" y2="1266.37" style="stroke:#808080;stroke-width:8.64"/>
	<line x1="3084.22" y1="1264.02" x2="3086.20" y2="1264.02" style="stroke:#808080;stroke-width:8.64"/>
	<line x1="3086.20" y1="1264.02" x2="3086.20" y2="1257.46" style="stroke:#808080;stroke-width:8.64"/>
	<line x1="3086.20" y1="1257.46" x2="3103.03" y2="1257.46" style="stroke:#808080;stroke-width:8.64"/>
	<line x1="3103.03" y1="1257.46" x2="3103.03" y2="1250.78" style="stroke:#808080;stroke-width:8.64"/>
	<line x1="3103.03" y1="1250.78" x2="3111.32" y2="1250.78" style="stroke:#808080;stroke-width:8.64"/>
	<line x1="3121.97" y1="1244.22" x2="3136.82" y2="1244.22" style="stroke:#808080;stroke-width:8.64"/>
	<line x1="3136.82" y1="1244.22" x2="3136.82" y2="1237.66" style="stroke:#808080;stroke-width:8.64"/>
	<line x1="3136.82" y1="1237.66" x2="3153.64" y2="1237.66" style="stroke:#808080;stroke-width:8.64"/>
	<line x1="3153.64" y1="1237.66" x2="3153.64" y2="1235.56" style="stroke:#808080;stroke-width:8.64"/>
	<line x1="3166.39" y1="1231.10" x2="3170.60" y2="1231.10" style="stroke:#808080;stroke-width:8.64"/>
	<line x1="3170.60" y1="1231.10" x2="3170.60" y2="1224.54" style="stroke:#808080;stroke-width:8.64"/>
	<line x1="3170.60" y1="1224.54" x2="3187.43" y2="1224.54" style="stroke:#808080;stroke-width:8.64"/>
	<line x1="3187.43" y1="1224.54" x2="3187.43" y2="1217.99" style="stroke:#808080;stroke-width:8.64"/>
	<line x1="3187.43" y1="1217.99" x2="3193.62" y2="1217.99" style="stroke:#808080;stroke-width:8.64"/>
	<line x1="3204.38" y1="1211.55" x2="3204.38" y2="1211.43" style="stroke:#808080;stroke-width:8.64"/>
	<line x1="3204.38" y1="1211.43" x2="3221.21" y2="1211.43" style="stroke:#808080;stroke-width:8.64"/>
	<line x1="3221.21" y1="1211.43" x2="3221.21" y2="1204.87" style="stroke:#808080;stroke-width:8.64"/>
	<line x1="3221.21" y1="1204.87" x2="3238.04" y2="1204.87" style="stroke:#808080;stroke-width:8.64"/>
	<line x1="3248.81" y1="1198.43" x2="3255.00" y2="1198.43" style="stroke:#808080;stroke-width:8.64"/>
	<line x1="3255.00" y1="1198.43" x2="3255.00" y2="1191.87" style="stroke:#808080;stroke-width:8.64"/>
	<line x1="3255.00" y1="1191.87" x2="3271.83" y2="1191.87" style="stroke:#808080;stroke-width:8.64"/>
	<line x1="3271.83" y1="1191.87" x2="3271.83" y2="1185.44" style="stroke:#808080;stroke-width:8.64"/>
	<line x1="3271.83" y1="1185.44" x2="3276.16" y2="1185.44" style="stroke:#808080;stroke-width:8.64"/>
	<line x1="3288.78" y1="1180.86" x2="3288.78" y2="1179.00" style="stroke:#808080;stroke-width:8.64"/>
	<line x1="3288.78" y1="1179.00" x2="3305.61" y2="1179.00" style="stroke:#808080;stroke-width:8.64"/>
	<line x1="3305.61" y1="1179.00" x2="3305.61" y2="1172.44" style="stroke:#808080;stroke-width:8.64"/>
	<line x1="3305.61" y1="1172.44" x2="3320.83" y2="1172.44" style="stroke:#808080;stroke-width:8.64"/>
	<line x1="3331.60" y1="1166.01" x2="3339.39" y2="1166.01" style="stroke:#808080;stroke-width:8.64"/>
	<line x1="3339.39" y1="1166.01" x2="3339.39" y2="1159.57" style="stroke:#808080;stroke-width:8.64"/>
	<line x1="3339.39" y1="1159.57" x2="3356.22" y2="1159.57" style="stroke:#808080;stroke-width:8.64"/>
	<line x1="3356.22" y1="1159.57" x2="3356.22" y2="1153.14" style="stroke:#808080;stroke-width:8.64"/>
	<line x1="3356.22" y1="1153.14" x2="3359.07" y2="1153.14" style="stroke:#808080;stroke-width:8.64"/>
	<line x1="3373.18" y1="1150.04" x2="3373.18" y2="1146.70" style="stroke:#808080;stroke-width:8.64"/>
	<line x1="3373.18" y1="1146.70" x2="3390.01" y2="1146.70" style="stroke:#808080;stroke-width:8.64"/>
	<line x1="3390.01" y1="1146.70" x2="3390.01" y2="1140.39" style="stroke:#808080;stroke-width:8.64"/>
	<line x1="3390.01" y1="1140.39" x2="3403.87" y2="1140.39" style="stroke:#808080;stroke-width:8.64"/>
	<line x1="3414.63" y1="1133.96" x2="3423.79" y2="1133.96" style="stroke:#808080;stroke-width:8.64"/>
	<line x1="3423.79" y1="1133.96" x2="3423.79" y2="1127.52" style="stroke:#808080;stroke-width:8.64"/>
	<line x1="3423.79" y1="1127.52" x2="3440.74" y2="1127.52" style="stroke:#808080;stroke-width:8.64"/>
	<line x1="3440.74" y1="1127.52" x2="3440.74" y2="1121.21" style="stroke:#808080;stroke-width:8.64"/>
	<line x1="3440.74" y1="1121.21" x2="3442.23" y2="1121.21" style="stroke:#808080;stroke-width:8.64"/>
	<line x1="3457.57" y1="1119.23" x2="3457.57" y2="1114.90" style="stroke:#808080;stroke-width:8.64"/>
	<line x1="3457.57" y1="1114.90" x2="3474.41" y2="1114.90" style="stroke:#808080;stroke-width:8.64"/>
	<line x1="3474.41" y1="1114.90" x2="3474.41" y2="1108.46" style="stroke:#808080;stroke-width:8.64"/>
	<line x1="3474.41" y1="1108.46" x2="3487.15" y2="1108.46" style="stroke:#808080;stroke-width:8.64"/>
	<line x1="3498.04" y1="1102.15" x2="3508.19" y2="1102.15" style="stroke:#808080;stroke-width:8.64"/>
	<line x1="3508.19" y1="1102.15" x2="3508.19" y2="1095.84" style="stroke:#808080;stroke-width:8.64"/>
	<line x1="3508.19" y1="1095.84" x2="3525.14" y2="1095.84" style="stroke:#808080;stroke-width:8.64"/>
	<line x1="3525.14" y1="1095.84" x2="3525.14" y2="1089.53" style="stroke:#808080;stroke-width:8.64"/>
	<line x1="3525.14" y1="1089.53" x2="3525.76" y2="1089.53" style="stroke:#808080;stroke-width:8.64"/>
	<line x1="3541.97" y1="1088.54" x2="3541.97" y2="1083.22" style="stroke:#808080;stroke-width:8.64"/>
	<line x1="3541.97" y1="1083.22" x2="3558.93" y2="1083.22" style="stroke:#808080;stroke-width:8.64"/>
	<line x1="3558.93" y1="1083.22" x2="3558.93" y2="1076.91" style="stroke:#808080;stroke-width:8.64"/>
	<line x1="3558.93" y1="1076.91" x2="3570.68" y2="1076.91" style="stroke:#808080;stroke-width:8.64"/>
	<line x1="3581.57" y1="1070.59" x2="3592.59" y2="1070.59" style="stroke:#808080;stroke-width:8.64"/>
	<line x1="3592.59" y1="1070.59" x2="3592.59" y2="1064.28" style="stroke:#808080;stroke-width:8.64"/>
	<line x1="3592.59" y1="1064.28" x2="3609.54" y2="1064.28" style="stroke:#808080;stroke-width:8.64"/>
	<line x1="3609.54" y1="1064.28" x2="3609.54" y2="1058.22" style="stroke:#808080;stroke-width:8.64"/>
	<line x1="3626.37" y1="1057.85" x2="3626.37" y2="1051.78" style="stroke:#808080;stroke-width:8.64"/>
	<line x1="3626.37" y1="1051.78" x2="3643.32" y2="1051.78" style="stroke:#808080;stroke-width:8.64"/>
	<line x1="3643.32" y1="1051.78" x2="3643.32" y2="1045.60" style="stroke:#808080;stroke-width:8.64"/>
	<line x1="3643.32" y1="1045.60" x2="3654.59" y2="1045.60" style="stroke:#808080;stroke-width:8.64"/>
	<line x1="3665.47" y1="1039.28" x2="3677.11" y2="1039.28" style="stroke:#808080;stroke-width:8.64"/>
	<line x1="3677.11" y1="1039.28" x2="3677.11" y2="1033.10" style="stroke:#808080;stroke-width:8.64"/>
	<line x1="3677.11" y1="1033.10" x2="3693.94" y2="1033.10" style="stroke:#808080;stroke-width:8.64"/>
	<line x1="3693.94" y1="1033.10" x2="3693.94" y2="1027.40" style="stroke:#808080;stroke-width:8.64"/>
	<line x1="3710.52" y1="1026.79" x2="3710.77" y2="1026.79" style="stroke:#808080;stroke-width:8.64"/>
	<line x1="3710.77" y1="1026.79" x2="3710.77" y2="1020.60" style="stroke:#808080;stroke-width:8.64"/>
	<line x1="3710.77" y1="1020.60" x2="3727.72" y2="1020.60" style="stroke:#808080;stroke-width:8.64"/>
	<line x1="3727.72" y1="1020.60" x2="3727.72" y2="1014.41" style="stroke:#808080;stroke-width:8.64"/>
	<line x1="3727.72" y1="1014.41" x2="3738.49" y2="1014.41" style="stroke:#808080;stroke-width:8.64"/>
	<line x1="3749.50" y1="1008.22" x2="3761.51" y2="1008.22" style="stroke:#808080;stroke-width:8.64"/>
	<line x1="3761.51" y1="1008.22" x2="3761.51" y2="1002.04" style="stroke:#808080;stroke-width:8.64"/>
	<line x1="3761.51" y1="1002.04" x2="3778.34" y2="1002.04" style="stroke:#808080;stroke-width:8.64"/>
	<line x1="3778.34" y1="1002.04" x2="3778.34" y2="996.71" style="stroke:#808080;stroke-width:8.64"/>
	<line x1="3794.67" y1="995.85" x2="3795.16" y2="995.85" style="stroke:#808080;stroke-width:8.64"/>
	<line x1="3795.16" y1="995.85" x2="3795.16" y2="989.66" style="stroke:#808080;stroke-width:8.64"/>
	<path d="" stroke-linejoin="round" style="fill:none;stroke:#808080;stroke-width:8.64"/>
	<path d=" M773.19 2349.84 L790.14 2349.84 L790.14 2339.69 L806.97 2339.69 L806.97 2329.54 L823.93 2329.54 L823.93 2319.39 L840.76 2319.39 L840.76 2309.25 L857.71 2309.25 L857.71 2299.22 L874.54 2299.22 L874.54 2289.32 L891.37 2289.32 L891.37 2279.30 L908.33 2279.30 L908.33 2269.52 L925.15 2269.52 L925.15 2259.62 L942.11 2259.62 L942.11 2249.85 L958.94 2249.85 L958.94 2240.07 L975.89 2240.07 L975.89 2230.42 L992.72 2230.42 L992.72 2220.76 L1009.55 2220.76 L1009.55 2211.23 L1026.51 2211.23 L1026.51 2201.71 L1043.34 2201.71 L1043.34 2192.18 L1060.29 2192.18 L1060.29 2182.77 L1077.12 2182.77 L1077.12 2173.37 L1093.95 2173.37 L1093.95 2164.08 L1110.90 2164.08 L1110.90 2154.80 L1127.73 2154.80 L1127.73 2145.52 L1144.69 2145.52 L1144.69 2136.36 L1161.52 2136.36 L1161.52 2127.21 L1178.47 2127.21 L1178.47 2118.05 L1195.30 2118.05 L1195.30 2109.01 L1212.13 2109.01 L1212.13 2099.98 L1229.09 2099.98 L1229.09 2091.07 L1245.91 2091.07 L1245.91 2082.16 L1262.87 2082.16 L1262.87 2073.25 L1279.70 2073.25 L1279.70 2064.46 L1296.65 2064.46 L1296.65 2055.68 L1313.48 2055.68 L1313.48 2047.01 L1330.31 2047.01 L1330.31 2038.23 L1347.27 2038.23 L1347.27 2029.56 L1364.10 2029.56 L1364.10 2021.02 L1381.05 2021.02 L1381.05 2012.36 L1397.88 2012.36 L1397.88 2003.95 L1414.83 2003.95 L1414.83 1995.41 L1431.66 1995.41 L1431.66 1986.99 L1448.49 1986.99 L1448.49 1978.58 L1465.45 1978.58 L1465.45 1970.16 L1482.28 1970.16 L1482.28 1961.75 L1499.23 1961.75 L1499.23 1953.45 L1516.06 1953.45 L1516.06 1945.16 L1533.02 1945.16 L1533.02 1937.00 L1549.85 1937.00 L1549.85 1928.70 L1566.67 1928.70 L1566.67 1920.54 L1583.63 1920.54 L1583.63 1912.49 L1600.46 1912.49 L1600.46 1904.32 L1617.41 1904.32 L1617.41 1896.28 L1634.24 1896.28 L1634.24 1888.24 L1651.20 1888.24 L1651.20 1880.19 L1668.03 1880.19 L1668.03 1872.27 L1684.86 1872.27 L1684.86 1864.35 L1701.81 1864.35 L1701.81 1856.43 L1718.64 1856.43 L1718.64 1848.51 L1735.59 1848.51 L1735.59 1840.59 L1752.42 1840.59 L1752.42 1832.79 L1769.25 1832.79 L1769.25 1825.00 L1786.21 1825.00 L1786.21 1817.20 L1803.04 1817.20 L1803.04 1809.53 L1819.99 1809.53 L1819.99 1801.73 L1836.82 1801.73 L1836.82 1794.06 L1853.78 1794.06 L1853.78 1786.39 L1870.61 1786.39 L1870.61 1778.84 L1887.43 1778.84 L1887.43 1771.17 L1904.39 1771.17 L1904.39 1763.62 L1921.22 1763.62 L1921.22 1755.94 L1938.17 1755.94 L1938.17 1748.39 L1955.00 1748.39 L1955.00 1740.97 L1971.96 1740.97 L1971.96 1733.42 L1988.79 1733.42 L1988.79 1726.00 L2005.62 1726.00 L2005.62 1718.57 L2022.57 1718.57 L2022.57 1711.14 L2039.40 1711.14 L2039.40 1703.72 L2056.35 1703.72 L2056.35 1696.29 L2073.18 1696.29 L2073.18 1688.99 L2090.14 1688.99 L2090.14 1681.57 L2106.97 1681.57 L2106.97 1674.27 L2123.80 1674.27 L2123.80 1666.96 L2140.75 1666.96 L2140.75 1659.79 L2157.58 1659.79 L2157.58 1652.49 L2174.53 1652.49 L2174.53 1645.31 L2191.36 1645.31 L2191.36 1638.13 L2208.32 1638.13 L2208.32 1630.95 L2225.15 1630.95 L2225.15 1623.77 L2241.98 1623.77 L2241.98 1616.60 L2258.93 1616.60 L2258.93 1609.42 L2275.76 1609.42 L2275.76 1602.37 L2292.72 1602.37 L2292.72 1595.31 L2309.55 1595.31 L2309.55 1588.26 L2326.50 1588.26 L2326.50 1581.20 L2343.33 1581.20 L2343.33 1574.15 L2360.16 1574.15 L2360.16 1567.10 L2377.11 1567.10 L2377.11 1560.17 L2393.94 1560.17 L2393.94 1553.11 L2410.90 1553.11 L2410.90 1546.18 L2427.73 1546.18 L2427.73 1539.25 L2444.56 1539.25 L2444.56 1532.32 L2461.51 1532.32 L2461.51 1525.39 L2478.34 1525.39 L2478.34 1518.46 L2495.30 1518.46 L2495.30 1511.65 L2512.13 1511.65 L2512.13 1504.85 L2529.08 1504.85 L2529.08 1497.92 L2545.91 1497.92 L2545.91 1491.11 L2562.74 1491.11 L2562.74 1484.30 L2579.69 1484.30 L2579.69 1477.50 L2596.52 1477.50 L2596.52 1470.81 L2613.48 1470.81 L2613.48 1464.01 L2630.31 1464.01 L2630.31 1457.20 L2647.26 1457.20 L2647.26 1450.52 L2664.09 1450.52 L2664.09 1443.84 L2680.92 1443.84 L2680.92 1437.15 L2697.87 1437.15 L2697.87 1430.47 L2714.70 1430.47 L2714.70 1423.79 L2731.66 1423.79 L2731.66 1417.11 L2748.49 1417.11 L2748.49 1410.42 L2765.44 1410.42 L2765.44 1403.86 L2782.27 1403.86 L2782.27 1397.18 L2799.10 1397.18 L2799.10 1390.62 L2816.05 1390.62 L2816.05 1384.06 L2832.89 1384.06 L2832.89 1377.38 L2849.84 1377.38 L2849.84 1370.82 L2866.67 1370.82 L2866.67 1364.26 L2883.62 1364.26 L2883.62 1357.83 L2900.45 1357.83 L2900.45 1351.27 L2917.28 1351.27 L2917.28 1344.71 L2934.24 1344.71 L2934.24 1338.27 L2951.07 1338.27 L2951.07 1331.84 L2968.02 1331.84 L2968.02 1325.28 L2984.85 1325.28 L2984.85 1318.84 L3001.80 1318.84 L3001.80 1312.41 L3018.63 1312.41 L3018.63 1305.97 L3035.46 1305.97 L3035.46 1299.54 L3052.42 1299.54 L3052.42 1293.23 L3069.25 1293.23 L3069.25 1286.79 L3086.20 1286.79 L3086.20 1280.36 L3103.03 1280.36 L3103.03 1274.05 L3119.86 1274.05 L3119.86 1267.73 L3136.82 1267.73 L3136.82 1261.30 L3153.64 1261.30 L3153.64 1254.99 L3170.60 1254.99 L3170.60 1248.68 L3187.43 1248.68 L3187.43 1242.37 L3204.38 1242.37 L3204.38 1236.05 L3221.21 1236.05 L3221.21 1229.87 L3238.04 1229.87 L3238.04 1223.55 L3255.00 1223.55 L3255.00 1217.24 L3271.83 1217.24 L3271.83 1211.06 L3288.78 1211.06 L3288.78 1204.87 L3305.61 1204.87 L3305.61 1198.56 L3322.56 1198.56 L3322.56 1192.37 L3339.39 1192.37 L3339.39 1186.18 L3356.22 1186.18 L3356.22 1179.99 L3373.18 1179.99 L3373.18 1173.81 L3390.01 1173.81 L3390.01 1167.62 L3406.96 1167.62 L3406.96 1161.43 L3423.79 1161.43 L3423.79 1155.37 L3440.74 1155.37 L3440.74 1149.18 L3457.57 1149.18 L3457.57 1143.11 L3474.41 1143.11 L3474.41 1136.93 L3491.36 1136.93 L3491.36 1130.86 L3508.19 1130.86 L3508.19 1124.80 L3525.14 1124.80 L3525.14 1118.73 L3541.97 1118.73 L3541.97 1112.55 L3558.93 1112.55 L3558.93 1106.48 L3575.76 1106.48 L3575.76 1100.54 L3592.59 1100.54 L3592.59 1094.48 L3609.54 1094.48 L3609.54 1088.42 L3626.37 1088.42 L3626.37 1082.35 L3643.32 1082.35 L3643.32 1076.41 L3660.15 1076.41 L3660.15 1070.35 L3677.11 1070.35 L3677.11 1064.41 L3693.94 1064.41 L3693.94 1058.47 L3710.77 1058.47 L3710.77 1052.40 L3727.72 1052.40 L3727.72 1046.46 L3744.55 1046.46 L3744.55 1040.52 L3761.51 1040.52 L3761.51 1034.58 L3778.34 1034.58 L3778.34 1028.64 L3795.16 1028.64 L3795.16 1022.70" stroke-linejoin="round" style="fill:none;stroke:#000000;stroke-width:8.64"/>
	<line x1="553.29" y1="2509.23" x2="553.29" y2="419.90" style="stroke:#000000;stroke-width:5.76"/>
	<line x1="553.29" y1="2445.87" x2="513.32" y2="2445.87" style="stroke:#000000;stroke-width:5.76"/>
	<text x="493.27" y="2480.90" style="font-family:'Helvetica';font-size:99.99px;fill:#000000" text-anchor="end">0</text>
	<line x1="553.29" y1="2252.57" x2="513.32" y2="2252.57" style="stroke:#000000;stroke-width:5.76"/>
	<text x="493.27" y="2287.60" style="font-family:'Helvetica';font-size:99.99px;fill:#000000" text-anchor="end">180</text>
	<line x1="553.29" y1="2059.14" x2="513.32" y2="2059.14" style="stroke:#000000;stroke-width:5.76"/>
	<text x="493.27" y="2094.17" style="font-family:'Helvetica';font-size:99.99px;fill:#000000" text-anchor="end">360</text>
	<line x1="553.29" y1="1865.84" x2="513.32" y2="1865.84" style="stroke:#000000;stroke-width:5.76"/>
	<text x="493.27" y="1900.87" style="font-family:'Helvetica';font-size:99.99px;fill:#000000" text-anchor="end">540</text>
	<line x1="553.29" y1="1672.41" x2="513.32" y2="1672.41" style="stroke:#000000;stroke-width:5.76"/>
	<text x="493.27" y="1707.44" style="font-family:'Helvetica';font-size:99.99px;fill:#000000" text-anchor="end">720</text>
	<line x1="553.29" y1="1479.11" x2="513.32" y2="1479.11" style="stroke:#000000;stroke-width:5.76"/>
	<text x="493.27" y="1514.13" style="font-family:'Helvetica';font-size:99.99px;fill:#000000" text-anchor="end">900</text>
	<line x1="553.29" y1="1285.68" x2="513.32" y2="1285.68" style="stroke:#000000;stroke-width:5.76"/>
	<text x="493.27" y="1320.71" style="font-family:'Helvetica';font-size:99.99px;fill:#000000" text-anchor="end">1080</text>
	<line x1="553.29" y1="1092.38" x2="513.32" y2="1092.38" style="stroke:#000000;stroke-width:5.76"/>
	<text x="493.27" y="1127.40" style="font-family:'Helvetica';font-size:99.99px;fill:#000000" text-anchor="end">1260</text>
	<line x1="553.29" y1="898.95" x2="513.32" y2="898.95" style="stroke:#000000;stroke-width:5.76"/>
	<text x="493.27" y="933.98" style="font-family:'Helvetica';font-size:99.99px;fill:#000000" text-anchor="end">1440</text>
	<line x1="553.29" y1="705.64" x2="513.32" y2="705.64" style="stroke:#000000;stroke-width:5.76"/>
	<text x="493.27" y="740.67" style="font-family:'Helvetica';font-size:99.99px;fill:#000000" text-anchor="end">1620</text>
	<line x1="553.29" y1="512.34" x2="513.32" y2="512.34" style="stroke:#000000;stroke-width:5.76"/>
	<text x="493.27" y="547.37" style="font-family:'Helvetica';font-size:99.99px;fill:#000000" text-anchor="end">1800</text>
	<text x="190.71" y="1464.63" style="font-family:'Helvetica';font-size:99.99px;fill:#000000" transform="rotate(-90 190.71,1464.63)" text-anchor="middle">LOS (years)</text>
	<line x1="553.29" y1="2509.23" x2="3859.02" y2="2509.23" style="stroke:#000000;stroke-width:5.76"/>
	<line x1="616.65" y1="2509.23" x2="616.65" y2="2549.21" style="stroke:#000000;stroke-width:5.76"/>
	<text x="616.65" y="2625.15" style="font-family:'Helvetica';font-size:79.94px;fill:#000000" text-anchor="middle">0</text>
	<line x1="807.35" y1="2509.23" x2="807.35" y2="2549.21" style="stroke:#000000;stroke-width:5.76"/>
	<text x="807.35" y="2625.15" style="font-family:'Helvetica';font-size:79.94px;fill:#000000" text-anchor="middle">.3</text>
	<line x1="998.17" y1="2509.23" x2="998.17" y2="2549.21" style="stroke:#000000;stroke-width:5.76"/>
	<text x="998.17" y="2625.15" style="font-family:'Helvetica';font-size:79.94px;fill:#000000" text-anchor="middle">.6</text>
	<line x1="1188.87" y1="2509.23" x2="1188.87" y2="2549.21" style="stroke:#000000;stroke-width:5.76"/>
	<text x="1188.87" y="2625.15" style="font-family:'Helvetica';font-size:79.94px;fill:#000000" text-anchor="middle">.9</text>
	<line x1="1379.57" y1="2509.23" x2="1379.57" y2="2549.21" style="stroke:#000000;stroke-width:5.76"/>
	<text x="1379.57" y="2625.15" style="font-family:'Helvetica';font-size:79.94px;fill:#000000" text-anchor="middle">1.2</text>
	<line x1="1570.39" y1="2509.23" x2="1570.39" y2="2549.21" style="stroke:#000000;stroke-width:5.76"/>
	<text x="1570.39" y="2625.15" style="font-family:'Helvetica';font-size:79.94px;fill:#000000" text-anchor="middle">1.5</text>
	<line x1="1761.09" y1="2509.23" x2="1761.09" y2="2549.21" style="stroke:#000000;stroke-width:5.76"/>
	<text x="1761.09" y="2625.15" style="font-family:'Helvetica';font-size:79.94px;fill:#000000" text-anchor="middle">1.8</text>
	<line x1="1951.91" y1="2509.23" x2="1951.91" y2="2549.21" style="stroke:#000000;stroke-width:5.76"/>
	<text x="1951.91" y="2625.15" style="font-family:'Helvetica';font-size:79.94px;fill:#000000" text-anchor="middle">2.1</text>
	<line x1="2142.61" y1="2509.23" x2="2142.61" y2="2549.21" style="stroke:#000000;stroke-width:5.76"/>
	<text x="2142.61" y="2625.15" style="font-family:'Helvetica';font-size:79.94px;fill:#000000" text-anchor="middle">2.4</text>
	<line x1="2333.31" y1="2509.23" x2="2333.31" y2="2549.21" style="stroke:#000000;stroke-width:5.76"/>
	<text x="2333.31" y="2625.15" style="font-family:'Helvetica';font-size:79.94px;fill:#000000" text-anchor="middle">2.7</text>
	<line x1="2524.13" y1="2509.23" x2="2524.13" y2="2549.21" style="stroke:#000000;stroke-width:5.76"/>
	<text x="2524.13" y="2625.15" style="font-family:'Helvetica';font-size:79.94px;fill:#000000" text-anchor="middle">3</text>
	<line x1="2714.83" y1="2509.23" x2="2714.83" y2="2549.21" style="stroke:#000000;stroke-width:5.76"/>
	<text x="2714.83" y="2625.15" style="font-family:'Helvetica';font-size:79.94px;fill:#000000" text-anchor="middle">3.3</text>
	<line x1="2905.53" y1="2509.23" x2="2905.53" y2="2549.21" style="stroke:#000000;stroke-width:5.76"/>
	<text x="2905.53" y="2625.15" style="font-family:'Helvetica';font-size:79.94px;fill:#000000" text-anchor="middle">3.6</text>
	<line x1="3096.35" y1="2509.23" x2="3096.35" y2="2549.21" style="stroke:#000000;stroke-width:5.76"/>
	<text x="3096.35" y="2625.15" style="font-family:'Helvetica';font-size:79.94px;fill:#000000" text-anchor="middle">3.9</text>
	<line x1="3287.05" y1="2509.23" x2="3287.05" y2="2549.21" style="stroke:#000000;stroke-width:5.76"/>
	<text x="3287.05" y="2625.15" style="font-family:'Helvetica';font-size:79.94px;fill:#000000" text-anchor="middle">4.2</text>
	<line x1="3477.87" y1="2509.23" x2="3477.87" y2="2549.21" style="stroke:#000000;stroke-width:5.76"/>
	<text x="3477.87" y="2625.15" style="font-family:'Helvetica';font-size:79.94px;fill:#000000" text-anchor="middle">4.5</text>
	<line x1="3668.57" y1="2509.23" x2="3668.57" y2="2549.21" style="stroke:#000000;stroke-width:5.76"/>
	<text x="3668.57" y="2625.15" style="font-family:'Helvetica';font-size:79.94px;fill:#000000" text-anchor="middle">4.8</text>
	<line x1="3859.27" y1="2509.23" x2="3859.27" y2="2549.21" style="stroke:#000000;stroke-width:5.76"/>
	<text x="3859.27" y="2625.15" style="font-family:'Helvetica';font-size:79.94px;fill:#000000" text-anchor="middle">5.1</text>
	<text x="2206.22" y="2729.16" style="font-family:'Helvetica';font-size:99.99px;fill:#000000" text-anchor="middle">Time (years)</text>
	<rect x="587.81" y="454.42" width="1384.14" height="606.39" style="fill:#FFFFFF"/>
	<rect x="590.69" y="457.30" width="1378.38" height="600.63" style="fill:none;stroke:#000000;stroke-width:5.76"/>
	<rect x="631.00" y="497.74" width="374.47" height="99.99" style="fill:#999999;fill-opacity:0.35"/>
	<rect x="635.32" y="502.06" width="365.83" height="91.35" style="fill:none;stroke:#808080;stroke-opacity:0.35;stroke-width:8.64"/>
	<rect x="631.00" y="637.70" width="374.47" height="99.99" style="fill:#333333;fill-opacity:0.35"/>
	<rect x="635.32" y="642.02" width="365.83" height="91.35" style="fill:none;stroke:#000000;stroke-opacity:0.35;stroke-width:8.64"/>
	<line x1="631.00" y1="827.67" x2="671.34" y2="827.67" style="stroke:#808080;stroke-width:8.64"/>
	<line x1="688.54" y1="827.67" x2="728.89" y2="827.67" style="stroke:#808080;stroke-width:8.64"/>
	<line x1="746.09" y1="827.67" x2="786.43" y2="827.67" style="stroke:#808080;stroke-width:8.64"/>
	<line x1="803.76" y1="827.67" x2="843.98" y2="827.67" style="stroke:#808080;stroke-width:8.64"/>
	<line x1="861.30" y1="827.67" x2="901.64" y2="827.67" style="stroke:#808080;stroke-width:8.64"/>
	<line x1="918.84" y1="827.67" x2="959.19" y2="827.67" style="stroke:#808080;stroke-width:8.64"/>
	<line x1="976.39" y1="827.67" x2="1005.47" y2="827.67" style="stroke:#808080;stroke-width:8.64"/>
	<line x1="631.00" y1="967.63" x2="1005.47" y2="967.63" style="stroke:#000000;stroke-width:8.64"/>
	<text x="1065.36" y="582.76" style="font-family:'Helvetica';font-size:99.99px;fill:#000000">Ambulatory CI95%</text>
	<text x="1065.36" y="722.73" style="font-family:'Helvetica';font-size:99.99px;fill:#000000">Residential CI95%</text>
	<text x="1065.36" y="862.69" style="font-family:'Helvetica';font-size:99.99px;fill:#000000">Ambulatory</text>
	<text x="1065.36" y="1002.66" style="font-family:'Helvetica';font-size:99.99px;fill:#000000">Residential</text>
	<text x="2206.22" y="369.63" style="font-family:'Helvetica';font-size:110.01px;fill:#000000" text-anchor="middle">from 2nd Readmission</text>
	<text x="2206.22" y="215.98" style="font-family:'Helvetica';font-size:139.96px;fill:#1E2D53" text-anchor="middle">Length of Stay (3yrs)(RP)</text>
</svg>
