<?xml version="1.0" encoding="UTF-8" standalone="no"?>
<!-- This is a Stata 16.1 generated SVG file (http://www.stata.com) -->

<svg version="1.1" width="5.50in" height="4.00in" viewBox="0 0 3960 2880" xmlns="http://www.w3.org/2000/svg" xmlns:xlink="http://www.w3.org/1999/xlink">
	<desc>Stata Graph - los2_models44_rp</desc>
	<rect x="0" y="0" width="3960" height="2880" style="fill:#EAF2F3;stroke:none"/>
	<rect x="0.00" y="0.00" width="3959.88" height="2880.00" style="fill:#FFFFFF"/>
	<rect x="2.88" y="2.88" width="3954.12" height="2874.24" style="fill:none;stroke:#FFFFFF;stroke-width:5.76"/>
	<rect x="553.29" y="419.90" width="3305.73" height="2089.34" style="fill:#FFFFFF"/>
	<rect x="556.17" y="422.78" width="3299.97" height="2083.58" style="fill:none;stroke:#FFFFFF;stroke-width:5.76"/>
	<line x1="553.29" y1="2445.87" x2="3859.02" y2="2445.87" style="stroke:#EAF2F3;stroke-width:8.64"/>
	<line x1="553.29" y1="2252.57" x2="3859.02" y2="2252.57" style="stroke:#EAF2F3;stroke-width:8.64"/>
	<line x1="553.29" y1="2059.14" x2="3859.02" y2="2059.14" style="stroke:#EAF2F3;stroke-width:8.64"/>
	<line x1="553.29" y1="1865.84" x2="3859.02" y2="1865.84" style="stroke:#EAF2F3;stroke-width:8.64"/>
	<line x1="553.29" y1="1672.41" x2="3859.02" y2="1672.41" style="stroke:#EAF2F3;stroke-width:8.64"/>
	<line x1="553.29" y1="1479.11" x2="3859.02" y2="1479.11" style="stroke:#EAF2F3;stroke-width:8.64"/>
	<line x1="553.29" y1="1285.68" x2="3859.02" y2="1285.68" style="stroke:#EAF2F3;stroke-width:8.64"/>
	<line x1="553.29" y1="1092.38" x2="3859.02" y2="1092.38" style="stroke:#EAF2F3;stroke-width:8.64"/>
	<line x1="553.29" y1="898.95" x2="3859.02" y2="898.95" style="stroke:#EAF2F3;stroke-width:8.64"/>
	<line x1="553.29" y1="705.64" x2="3859.02" y2="705.64" style="stroke:#EAF2F3;stroke-width:8.64"/>
	<defs>
		<path id="path_VFXyKvVI" d="M773.31 2351.94 L773.31 2351.94 L790.14 2351.94 L790.14 2342.17 L807.10 2342.17 L807.10 2332.51 L823.93 2332.51 L823.93 2322.86 L840.88 2322.86 L840.88 2313.33 L857.71 2313.33 L857.71 2303.93 L874.54 2303.93 L874.54 2294.52 L891.50 2294.52 L891.50 2285.24 L908.33 2285.24 L908.33 2276.08 L925.28 2276.08 L925.28 2267.05 L942.11 2267.05 L942.11 2258.01 L959.06 2258.01 L959.06 2249.10 L975.89 2249.10 L975.89 2240.32 L992.72 2240.32 L992.72 2231.53 L1009.68 2231.53 L1009.68 2222.87 L1026.51 2222.87 L1026.51 2214.33 L1043.46 2214.33 L1043.46 2205.91 L1060.29 2205.91 L1060.29 2197.50 L1077.24 2197.50 L1077.24 2189.21 L1094.07 2189.21 L1094.07 2181.04 L1110.90 2181.04 L1110.90 2172.99 L1127.86 2172.99 L1127.86 2164.95 L1144.69 2164.95 L1144.69 2157.03 L1161.64 2157.03 L1161.64 2149.23 L1178.47 2149.23 L1178.47 2141.56 L1195.42 2141.56 L1195.42 2133.89 L1212.26 2133.89 L1212.26 2126.34 L1229.09 2126.34 L1229.09 2118.91 L1246.04 2118.91 L1246.04 2111.61 L1262.87 2111.61 L1262.87 2104.31 L1279.82 2104.31 L1279.82 2097.13 L1296.65 2097.13 L1296.65 2090.08 L1313.61 2090.08 L1313.61 2083.03 L1330.44 2083.03 L1330.44 2076.09 L1347.27 2076.09 L1347.27 2069.29 L1364.22 2069.29 L1364.22 2062.61 L1381.05 2062.61 L1381.05 2055.92 L1398.00 2055.92 L1398.00 2049.24 L1414.83 2049.24 L1414.83 2042.81 L1431.66 2042.81 L1431.66 2036.37 L1448.62 2036.37 L1448.62 2030.06 L1465.45 2030.06 L1465.45 2023.75 L1482.40 2023.75 L1482.40 2017.56 L1499.23 2017.56 L1499.23 2011.37 L1516.18 2011.37 L1516.18 2005.31 L1533.02 2005.31 L1533.02 1999.37 L1549.85 1999.37 L1549.85 1993.43 L1566.80 1993.43 L1566.80 1987.49 L1583.63 1987.49 L1583.63 1981.79 L1600.58 1981.79 L1600.58 1975.98 L1617.41 1975.98 L1617.41 1970.29 L1634.37 1970.29 L1634.37 1964.72 L1651.20 1964.72 L1651.20 1959.15 L1668.03 1959.15 L1668.03 1953.58 L1684.98 1953.58 L1684.98 1948.13 L1701.81 1948.13 L1701.81 1942.81 L1718.76 1942.81 L1718.76 1937.37 L1735.59 1937.37 L1735.59 1932.17 L1752.55 1932.17 L1752.55 1926.85 L1769.38 1926.85 L1769.38 1921.65 L1786.21 1921.65 L1786.21 1916.58 L1803.16 1916.58 L1803.16 1911.38 L1819.99 1911.38 L1819.99 1906.30 L1836.94 1906.30 L1836.94 1901.35 L1853.78 1901.35 L1853.78 1896.40 L1870.73 1896.40 L1870.73 1891.45 L1887.56 1891.45 L1887.56 1886.50 L1904.39 1886.50 L1904.39 1881.68 L1921.34 1881.68 L1921.34 1876.85 L1938.17 1876.85 L1938.17 1872.15 L1955.13 1872.15 L1955.13 1867.45 L1971.96 1867.45 L1971.96 1862.74 L1988.91 1862.74 L1988.91 1858.04 L2005.74 1858.04 L2005.74 1853.46 L2022.57 1853.46 L2022.57 1848.88 L2039.52 1848.88 L2039.52 1844.30 L2056.35 1844.30 L2056.35 1839.85 L2073.31 1839.85 L2073.31 1835.27 L2090.14 1835.27 L2090.14 1830.81 L2106.97 1830.81 L2106.97 1826.48 L2123.92 1826.48 L2123.92 1822.03 L2140.75 1822.03 L2140.75 1817.70 L2157.70 1817.70 L2157.70 1813.37 L2174.53 1813.37 L2174.53 1809.03 L2191.49 1809.03 L2191.49 1804.70 L2208.32 1804.70 L2208.32 1800.50 L2225.15 1800.50 L2225.15 1796.29 L2242.10 1796.29 L2242.10 1792.08 L2258.93 1792.08 L2258.93 1787.87 L2275.89 1787.87 L2275.89 1783.79 L2292.72 1783.79 L2292.72 1779.70 L2309.67 1779.70 L2309.67 1775.50 L2326.50 1775.50 L2326.50 1771.41 L2343.33 1771.41 L2343.33 1767.45 L2360.28 1767.45 L2360.28 1763.37 L2377.11 1763.37 L2377.11 1759.41 L2394.07 1759.41 L2394.07 1755.45 L2410.90 1755.45 L2410.90 1751.49 L2427.85 1751.49 L2427.85 1747.53 L2444.68 1747.53 L2444.68 1743.57 L2461.51 1743.57 L2461.51 1739.73 L2478.47 1739.73 L2478.47 1735.77 L2495.30 1735.77 L2495.30 1731.94 L2512.25 1731.94 L2512.25 1728.10 L2529.08 1728.10 L2529.08 1724.26 L2546.03 1724.26 L2546.03 1720.55 L2562.86 1720.55 L2562.86 1716.71 L2579.69 1716.71 L2579.69 1713.00 L2596.65 1713.00 L2596.65 1709.29 L2613.48 1709.29 L2613.48 1705.45 L2630.43 1705.45 L2630.43 1701.86 L2647.26 1701.86 L2647.26 1698.15 L2664.21 1698.15 L2664.21 1694.44 L2681.04 1694.44 L2681.04 1690.85 L2697.87 1690.85 L2697.87 1687.14 L2714.83 1687.14 L2714.83 1683.55 L2731.66 1683.55 L2731.66 1679.96 L2748.61 1679.96 L2748.61 1676.37 L2765.44 1676.37 L2765.44 1672.78 L2782.27 1672.78 L2782.27 1669.19 L2799.22 1669.19 L2799.22 1665.60 L2816.05 1665.60 L2816.05 1662.01 L2833.01 1662.01 L2833.01 1658.55 L2849.84 1658.55 L2849.84 1655.08 L2866.79 1655.08 L2866.79 1651.50 L2883.62 1651.50 L2883.62 1648.03 L2900.45 1648.03 L2900.45 1644.57 L2917.41 1644.57 L2917.41 1641.10 L2934.24 1641.10 L2934.24 1637.63 L2951.19 1637.63 L2951.19 1634.29 L2968.02 1634.29 L2968.02 1630.83 L2984.97 1630.83 L2984.97 1627.49 L3001.80 1627.49 L3001.80 1624.02 L3018.63 1624.02 L3018.63 1620.68 L3035.59 1620.68 L3035.59 1617.34 L3052.42 1617.34 L3052.42 1614.00 L3069.37 1614.00 L3069.37 1610.66 L3086.20 1610.66 L3086.20 1607.32 L3103.16 1607.32 L3103.16 1603.97 L3119.99 1603.97 L3119.99 1600.63 L3136.82 1600.63 L3136.82 1597.41 L3153.77 1597.41 L3153.77 1594.07 L3170.60 1594.07 L3170.60 1590.86 L3187.55 1590.86 L3187.55 1587.51 L3204.38 1587.51 L3204.38 1584.30 L3221.34 1584.30 L3221.34 1581.08 L3238.17 1581.08 L3238.17 1577.86 L3255.00 1577.86 L3255.00 1574.64 L3271.95 1574.64 L3271.95 1571.43 L3288.78 1571.43 L3288.78 1568.21 L3305.73 1568.21 L3305.73 1564.99 L3322.56 1564.99 L3322.56 1561.77 L3339.52 1561.77 L3339.52 1558.68 L3356.35 1558.68 L3356.35 1555.46 L3373.18 1555.46 L3373.18 1552.37 L3390.13 1552.37 L3390.13 1549.27 L3406.96 1549.27 L3406.96 1546.06 L3423.91 1546.06 L3423.91 1542.96 L3440.74 1542.96 L3440.74 1539.87 L3457.57 1539.87 L3457.57 1536.78 L3474.53 1536.78 L3474.53 1533.68 L3491.36 1533.68 L3491.36 1530.59 L3508.31 1530.59 L3508.31 1527.49 L3525.14 1527.49 L3525.14 1524.40 L3542.10 1524.40 L3542.10 1521.43 L3558.93 1521.43 L3558.93 1518.34 L3575.76 1518.34 L3575.76 1515.24 L3592.71 1515.24 L3592.71 1512.27 L3609.54 1512.27 L3609.54 1509.18 L3626.49 1509.18 L3626.49 1506.21 L3643.32 1506.21 L3643.32 1503.24 L3660.28 1503.24 L3660.28 1500.14 L3677.11 1500.14 L3677.11 1497.17 L3693.94 1497.17 L3693.94 1494.20 L3710.89 1494.20 L3710.89 1491.23 L3727.72 1491.23 L3727.72 1488.26 L3744.68 1488.26 L3744.68 1485.29 L3761.51 1485.29 L3761.51 1482.32 L3778.46 1482.32 L3778.46 1479.35 L3795.29 1479.35 L3795.29 1476.51 L3795.29 842.52 L3795.29 849.94 L3778.46 849.94 L3778.46 857.24 L3761.51 857.24 L3761.51 864.67 L3744.68 864.67 L3744.68 872.09 L3727.72 872.09 L3727.72 879.52 L3710.89 879.52 L3710.89 886.94 L3693.94 886.94 L3693.94 894.37 L3677.11 894.37 L3677.11 901.79 L3660.28 901.79 L3660.28 909.22 L3643.32 909.22 L3643.32 916.64 L3626.49 916.64 L3626.49 924.07 L3609.54 924.07 L3609.54 931.50 L3592.71 931.50 L3592.71 938.92 L3575.76 938.92 L3575.76 946.35 L3558.93 946.35 L3558.93 953.77 L3542.10 953.77 L3542.10 961.32 L3525.14 961.32 L3525.14 968.75 L3508.31 968.75 L3508.31 976.29 L3491.36 976.29 L3491.36 983.72 L3474.53 983.72 L3474.53 991.27 L3457.57 991.27 L3457.57 998.69 L3440.74 998.69 L3440.74 1006.24 L3423.91 1006.24 L3423.91 1013.67 L3406.96 1013.67 L3406.96 1021.22 L3390.13 1021.22 L3390.13 1028.77 L3373.18 1028.77 L3373.18 1036.31 L3356.35 1036.31 L3356.35 1043.74 L3339.52 1043.74 L3339.52 1051.29 L3322.56 1051.29 L3322.56 1058.84 L3305.73 1058.84 L3305.73 1066.39 L3288.78 1066.39 L3288.78 1073.94 L3271.95 1073.94 L3271.95 1081.49 L3255.00 1081.49 L3255.00 1089.16 L3238.17 1089.16 L3238.17 1096.71 L3221.34 1096.71 L3221.34 1104.26 L3204.38 1104.26 L3204.38 1111.93 L3187.55 1111.93 L3187.55 1119.48 L3170.60 1119.48 L3170.60 1127.03 L3153.77 1127.03 L3153.77 1134.70 L3136.82 1134.70 L3136.82 1142.37 L3119.99 1142.37 L3119.99 1149.92 L3103.16 1149.92 L3103.16 1157.59 L3086.20 1157.59 L3086.20 1165.27 L3069.37 1165.27 L3069.37 1172.94 L3052.42 1172.94 L3052.42 1180.61 L3035.59 1180.61 L3035.59 1188.28 L3018.63 1188.28 L3018.63 1195.96 L3001.80 1195.96 L3001.80 1203.63 L2984.97 1203.63 L2984.97 1211.30 L2968.02 1211.30 L2968.02 1218.98 L2951.19 1218.98 L2951.19 1226.77 L2934.24 1226.77 L2934.24 1234.44 L2917.41 1234.44 L2917.41 1242.24 L2900.45 1242.24 L2900.45 1249.91 L2883.62 1249.91 L2883.62 1257.71 L2866.79 1257.71 L2866.79 1265.51 L2849.84 1265.51 L2849.84 1273.18 L2833.01 1273.18 L2833.01 1280.98 L2816.05 1280.98 L2816.05 1288.77 L2799.22 1288.77 L2799.22 1296.57 L2782.27 1296.57 L2782.27 1304.37 L2765.44 1304.37 L2765.44 1312.29 L2748.61 1312.29 L2748.61 1320.08 L2731.66 1320.08 L2731.66 1327.88 L2714.83 1327.88 L2714.83 1335.68 L2697.87 1335.68 L2697.87 1343.60 L2681.04 1343.60 L2681.04 1351.39 L2664.21 1351.39 L2664.21 1359.31 L2647.26 1359.31 L2647.26 1367.23 L2630.43 1367.23 L2630.43 1375.03 L2613.48 1375.03 L2613.48 1382.95 L2596.65 1382.95 L2596.65 1390.87 L2579.69 1390.87 L2579.69 1398.79 L2562.86 1398.79 L2562.86 1406.71 L2546.03 1406.71 L2546.03 1414.63 L2529.08 1414.63 L2529.08 1422.67 L2512.25 1422.67 L2512.25 1430.59 L2495.30 1430.59 L2495.30 1438.51 L2478.47 1438.51 L2478.47 1446.56 L2461.51 1446.56 L2461.51 1454.60 L2444.68 1454.60 L2444.68 1462.65 L2427.85 1462.65 L2427.85 1470.69 L2410.90 1470.69 L2410.90 1478.73 L2394.07 1478.73 L2394.07 1486.78 L2377.11 1486.78 L2377.11 1494.82 L2360.28 1494.82 L2360.28 1502.87 L2343.33 1502.87 L2343.33 1511.03 L2326.50 1511.03 L2326.50 1519.08 L2309.67 1519.08 L2309.67 1527.25 L2292.72 1527.25 L2292.72 1535.41 L2275.89 1535.41 L2275.89 1543.58 L2258.93 1543.58 L2258.93 1551.75 L2242.10 1551.75 L2242.10 1559.92 L2225.15 1559.92 L2225.15 1568.09 L2208.32 1568.09 L2208.32 1576.25 L2191.49 1576.25 L2191.49 1584.54 L2174.53 1584.54 L2174.53 1592.71 L2157.70 1592.71 L2157.70 1601.00 L2140.75 1601.00 L2140.75 1609.30 L2123.92 1609.30 L2123.92 1617.59 L2106.97 1617.59 L2106.97 1625.88 L2090.14 1625.88 L2090.14 1634.17 L2073.31 1634.17 L2073.31 1642.59 L2056.35 1642.59 L2056.35 1650.88 L2039.52 1650.88 L2039.52 1659.29 L2022.57 1659.29 L2022.57 1667.71 L2005.74 1667.71 L2005.74 1676.12 L1988.91 1676.12 L1988.91 1684.54 L1971.96 1684.54 L1971.96 1692.95 L1955.13 1692.95 L1955.13 1701.37 L1938.17 1701.37 L1938.17 1709.91 L1921.34 1709.91 L1921.34 1718.45 L1904.39 1718.45 L1904.39 1726.99 L1887.56 1726.99 L1887.56 1735.52 L1870.73 1735.52 L1870.73 1744.06 L1853.78 1744.06 L1853.78 1752.73 L1836.94 1752.73 L1836.94 1761.27 L1819.99 1761.27 L1819.99 1769.93 L1803.16 1769.93 L1803.16 1778.59 L1786.21 1778.59 L1786.21 1787.25 L1769.38 1787.25 L1769.38 1795.92 L1752.55 1795.92 L1752.55 1804.70 L1735.59 1804.70 L1735.59 1813.49 L1718.76 1813.49 L1718.76 1822.15 L1701.81 1822.15 L1701.81 1831.06 L1684.98 1831.06 L1684.98 1839.85 L1668.03 1839.85 L1668.03 1848.64 L1651.20 1848.64 L1651.20 1857.55 L1634.37 1857.55 L1634.37 1866.46 L1617.41 1866.46 L1617.41 1875.37 L1600.58 1875.37 L1600.58 1884.28 L1583.63 1884.28 L1583.63 1893.31 L1566.80 1893.31 L1566.80 1902.22 L1549.85 1902.22 L1549.85 1911.25 L1533.02 1911.25 L1533.02 1920.29 L1516.18 1920.29 L1516.18 1929.45 L1499.23 1929.45 L1499.23 1938.48 L1482.40 1938.48 L1482.40 1947.64 L1465.45 1947.64 L1465.45 1956.80 L1448.62 1956.80 L1448.62 1966.08 L1431.66 1966.08 L1431.66 1975.36 L1414.83 1975.36 L1414.83 1984.64 L1398.00 1984.64 L1398.00 1993.92 L1381.05 1993.92 L1381.05 2003.20 L1364.22 2003.20 L1364.22 2012.61 L1347.27 2012.61 L1347.27 2022.01 L1330.44 2022.01 L1330.44 2031.42 L1313.61 2031.42 L1313.61 2040.95 L1296.65 2040.95 L1296.65 2050.35 L1279.82 2050.35 L1279.82 2060.01 L1262.87 2060.01 L1262.87 2069.54 L1246.04 2069.54 L1246.04 2079.06 L1229.09 2079.06 L1229.09 2088.72 L1212.26 2088.72 L1212.26 2098.37 L1195.42 2098.37 L1195.42 2108.15 L1178.47 2108.15 L1178.47 2117.80 L1161.64 2117.80 L1161.64 2127.58 L1144.69 2127.58 L1144.69 2137.35 L1127.86 2137.35 L1127.86 2147.25 L1110.90 2147.25 L1110.90 2157.03 L1094.07 2157.03 L1094.07 2166.93 L1077.24 2166.93 L1077.24 2176.83 L1060.29 2176.83 L1060.29 2186.85 L1043.46 2186.85 L1043.46 2196.75 L1026.51 2196.75 L1026.51 2206.78 L1009.68 2206.78 L1009.68 2216.80 L992.72 2216.80 L992.72 2226.83 L975.89 2226.83 L975.89 2236.97 L959.06 2236.97 L959.06 2247.12 L942.11 2247.12 L942.11 2257.15 L925.28 2257.15 L925.28 2267.29 L908.33 2267.29 L908.33 2277.57 L891.50 2277.57 L891.50 2287.71 L874.54 2287.71 L874.54 2297.99 L857.71 2297.99 L857.71 2308.13 L840.88 2308.13 L840.88 2318.40 L823.93 2318.40 L823.93 2328.68 L807.10 2328.68 L807.10 2338.95 L790.14 2338.95 L790.14 2349.34 L773.31 2349.34 L773.31 2351.94 Z" stroke-linejoin="round"/>
	</defs>
	<defs>
		<clipPath id="clipPath_xVyFaevB">
			<use xlink:href="#path_VFXyKvVI"/>
		</clipPath>
	</defs>
	<use xlink:href="#path_VFXyKvVI" style="stroke:none;fill:#999999;fill-opacity:0.35"/>
	<use xlink:href="#path_VFXyKvVI" style="fill:none;stroke:#808080;stroke-opacity:0.35;stroke-width:17.28" clip-path="url(#clipPath_xVyFaevB)"/>
	<defs>
		<path id="path_iAXxstGk" d="M773.31 2352.07 L773.31 2352.07 L790.14 2352.07 L790.14 2342.29 L807.10 2342.29 L807.10 2332.64 L823.93 2332.64 L823.93 2323.11 L840.88 2323.11 L840.88 2313.58 L857.71 2313.58 L857.71 2304.17 L874.54 2304.17 L874.54 2294.89 L891.50 2294.89 L891.50 2285.61 L908.33 2285.61 L908.33 2276.58 L925.28 2276.58 L925.28 2267.54 L942.11 2267.54 L942.11 2258.63 L959.06 2258.63 L959.06 2249.72 L975.89 2249.72 L975.89 2240.94 L992.72 2240.94 L992.72 2232.27 L1009.68 2232.27 L1009.68 2223.73 L1026.51 2223.73 L1026.51 2215.32 L1043.46 2215.32 L1043.46 2206.90 L1060.29 2206.90 L1060.29 2198.61 L1077.24 2198.61 L1077.24 2190.44 L1094.07 2190.44 L1094.07 2182.40 L1110.90 2182.40 L1110.90 2174.36 L1127.86 2174.36 L1127.86 2166.44 L1144.69 2166.44 L1144.69 2158.64 L1161.64 2158.64 L1161.64 2150.97 L1178.47 2150.97 L1178.47 2143.29 L1195.42 2143.29 L1195.42 2135.87 L1212.26 2135.87 L1212.26 2128.44 L1229.09 2128.44 L1229.09 2121.02 L1246.04 2121.02 L1246.04 2113.84 L1262.87 2113.84 L1262.87 2106.66 L1279.82 2106.66 L1279.82 2099.61 L1296.65 2099.61 L1296.65 2092.68 L1313.61 2092.68 L1313.61 2085.75 L1330.44 2085.75 L1330.44 2079.06 L1347.27 2079.06 L1347.27 2072.26 L1364.22 2072.26 L1364.22 2065.70 L1381.05 2065.70 L1381.05 2059.14 L1398.00 2059.14 L1398.00 2052.71 L1414.83 2052.71 L1414.83 2046.27 L1431.66 2046.27 L1431.66 2040.08 L1448.62 2040.08 L1448.62 2033.77 L1465.45 2033.77 L1465.45 2027.71 L1482.40 2027.71 L1482.40 2021.64 L1499.23 2021.64 L1499.23 2015.58 L1516.18 2015.58 L1516.18 2009.76 L1533.02 2009.76 L1533.02 2003.82 L1549.85 2003.82 L1549.85 1998.13 L1566.80 1998.13 L1566.80 1992.44 L1583.63 1992.44 L1583.63 1986.74 L1600.58 1986.74 L1600.58 1981.18 L1617.41 1981.18 L1617.41 1975.61 L1634.37 1975.61 L1634.37 1970.16 L1651.20 1970.16 L1651.20 1964.84 L1668.03 1964.84 L1668.03 1959.39 L1684.98 1959.39 L1684.98 1954.20 L1701.81 1954.20 L1701.81 1949.00 L1718.76 1949.00 L1718.76 1943.80 L1735.59 1943.80 L1735.59 1938.60 L1752.55 1938.60 L1752.55 1933.53 L1769.38 1933.53 L1769.38 1928.58 L1786.21 1928.58 L1786.21 1923.63 L1803.16 1923.63 L1803.16 1918.68 L1819.99 1918.68 L1819.99 1913.73 L1836.94 1913.73 L1836.94 1908.90 L1853.78 1908.90 L1853.78 1904.20 L1870.73 1904.20 L1870.73 1899.37 L1887.56 1899.37 L1887.56 1894.67 L1904.39 1894.67 L1904.39 1890.09 L1921.34 1890.09 L1921.34 1885.39 L1938.17 1885.39 L1938.17 1880.81 L1955.13 1880.81 L1955.13 1876.36 L1971.96 1876.36 L1971.96 1871.78 L1988.91 1871.78 L1988.91 1867.32 L2005.74 1867.32 L2005.74 1862.99 L2022.57 1862.99 L2022.57 1858.54 L2039.52 1858.54 L2039.52 1854.20 L2056.35 1854.20 L2056.35 1849.87 L2073.31 1849.87 L2073.31 1845.54 L2090.14 1845.54 L2090.14 1841.33 L2106.97 1841.33 L2106.97 1837.13 L2123.92 1837.13 L2123.92 1832.92 L2140.75 1832.92 L2140.75 1828.83 L2157.70 1828.83 L2157.70 1824.63 L2174.53 1824.63 L2174.53 1820.54 L2191.49 1820.54 L2191.49 1816.46 L2208.32 1816.46 L2208.32 1812.38 L2225.15 1812.38 L2225.15 1808.42 L2242.10 1808.42 L2242.10 1804.33 L2258.93 1804.33 L2258.93 1800.37 L2275.89 1800.37 L2275.89 1796.41 L2292.72 1796.41 L2292.72 1792.57 L2309.67 1792.57 L2309.67 1788.61 L2326.50 1788.61 L2326.50 1784.78 L2343.33 1784.78 L2343.33 1780.94 L2360.28 1780.94 L2360.28 1777.11 L2377.11 1777.11 L2377.11 1773.27 L2394.07 1773.27 L2394.07 1769.56 L2410.90 1769.56 L2410.90 1765.72 L2427.85 1765.72 L2427.85 1762.01 L2444.68 1762.01 L2444.68 1758.29 L2461.51 1758.29 L2461.51 1754.58 L2478.47 1754.58 L2478.47 1750.99 L2495.30 1750.99 L2495.30 1747.28 L2512.25 1747.28 L2512.25 1743.69 L2529.08 1743.69 L2529.08 1739.98 L2546.03 1739.98 L2546.03 1736.39 L2562.86 1736.39 L2562.86 1732.80 L2579.69 1732.80 L2579.69 1729.34 L2596.65 1729.34 L2596.65 1725.75 L2613.48 1725.75 L2613.48 1722.28 L2630.43 1722.28 L2630.43 1718.69 L2647.26 1718.69 L2647.26 1715.23 L2664.21 1715.23 L2664.21 1711.76 L2681.04 1711.76 L2681.04 1708.30 L2697.87 1708.30 L2697.87 1704.83 L2714.83 1704.83 L2714.83 1701.49 L2731.66 1701.49 L2731.66 1698.03 L2748.61 1698.03 L2748.61 1694.69 L2765.44 1694.69 L2765.44 1691.34 L2782.27 1691.34 L2782.27 1687.88 L2799.22 1687.88 L2799.22 1684.54 L2816.05 1684.54 L2816.05 1681.20 L2833.01 1681.20 L2833.01 1677.98 L2849.84 1677.98 L2849.84 1674.64 L2866.79 1674.64 L2866.79 1671.30 L2883.62 1671.30 L2883.62 1668.08 L2900.45 1668.08 L2900.45 1664.86 L2917.41 1664.86 L2917.41 1661.52 L2934.24 1661.52 L2934.24 1658.30 L2951.19 1658.30 L2951.19 1655.08 L2968.02 1655.08 L2968.02 1651.87 L2984.97 1651.87 L2984.97 1648.65 L3001.80 1648.65 L3001.80 1645.43 L3018.63 1645.43 L3018.63 1642.34 L3035.59 1642.34 L3035.59 1639.12 L3052.42 1639.12 L3052.42 1636.03 L3069.37 1636.03 L3069.37 1632.81 L3086.20 1632.81 L3086.20 1629.71 L3103.16 1629.71 L3103.16 1626.62 L3119.99 1626.62 L3119.99 1623.53 L3136.82 1623.53 L3136.82 1620.43 L3153.77 1620.43 L3153.77 1617.34 L3170.60 1617.34 L3170.60 1614.25 L3187.55 1614.25 L3187.55 1611.15 L3204.38 1611.15 L3204.38 1608.06 L3221.34 1608.06 L3221.34 1605.09 L3238.17 1605.09 L3238.17 1601.99 L3255.00 1601.99 L3255.00 1599.02 L3271.95 1599.02 L3271.95 1595.93 L3288.78 1595.93 L3288.78 1592.96 L3305.73 1592.96 L3305.73 1589.99 L3322.56 1589.99 L3322.56 1587.02 L3339.52 1587.02 L3339.52 1584.05 L3356.35 1584.05 L3356.35 1581.08 L3373.18 1581.08 L3373.18 1578.11 L3390.13 1578.11 L3390.13 1575.14 L3406.96 1575.14 L3406.96 1572.17 L3423.91 1572.17 L3423.91 1569.32 L3440.74 1569.32 L3440.74 1566.35 L3457.57 1566.35 L3457.57 1563.38 L3474.53 1563.38 L3474.53 1560.54 L3491.36 1560.54 L3491.36 1557.69 L3508.31 1557.69 L3508.31 1554.72 L3525.14 1554.72 L3525.14 1551.87 L3542.10 1551.87 L3542.10 1549.03 L3558.93 1549.03 L3558.93 1546.18 L3575.76 1546.18 L3575.76 1543.33 L3592.71 1543.33 L3592.71 1540.49 L3609.54 1540.49 L3609.54 1537.64 L3626.49 1537.64 L3626.49 1534.80 L3643.32 1534.80 L3643.32 1531.95 L3660.28 1531.95 L3660.28 1529.10 L3677.11 1529.10 L3677.11 1526.38 L3693.94 1526.38 L3693.94 1523.53 L3710.89 1523.53 L3710.89 1520.81 L3727.72 1520.81 L3727.72 1517.96 L3744.68 1517.96 L3744.68 1515.24 L3761.51 1515.24 L3761.51 1512.40 L3778.46 1512.40 L3778.46 1509.67 L3795.29 1509.67 L3795.29 1506.95 L3795.29 922.34 L3795.29 929.02 L3778.46 929.02 L3778.46 935.83 L3761.51 935.83 L3761.51 942.51 L3744.68 942.51 L3744.68 949.32 L3727.72 949.32 L3727.72 956.00 L3710.89 956.00 L3710.89 962.81 L3693.94 962.81 L3693.94 969.61 L3677.11 969.61 L3677.11 976.29 L3660.28 976.29 L3660.28 983.10 L3643.32 983.10 L3643.32 989.91 L3626.49 989.91 L3626.49 996.71 L3609.54 996.71 L3609.54 1003.52 L3592.71 1003.52 L3592.71 1010.33 L3575.76 1010.33 L3575.76 1017.13 L3558.93 1017.13 L3558.93 1023.94 L3542.10 1023.94 L3542.10 1030.87 L3525.14 1030.87 L3525.14 1037.68 L3508.31 1037.68 L3508.31 1044.48 L3491.36 1044.48 L3491.36 1051.41 L3474.53 1051.41 L3474.53 1058.22 L3457.57 1058.22 L3457.57 1065.15 L3440.74 1065.15 L3440.74 1071.96 L3423.91 1071.96 L3423.91 1078.89 L3406.96 1078.89 L3406.96 1085.69 L3390.13 1085.69 L3390.13 1092.62 L3373.18 1092.62 L3373.18 1099.55 L3356.35 1099.55 L3356.35 1106.48 L3339.52 1106.48 L3339.52 1113.41 L3322.56 1113.41 L3322.56 1120.34 L3305.73 1120.34 L3305.73 1127.27 L3288.78 1127.27 L3288.78 1134.20 L3271.95 1134.20 L3271.95 1141.13 L3255.00 1141.13 L3255.00 1148.06 L3238.17 1148.06 L3238.17 1155.12 L3221.34 1155.12 L3221.34 1162.05 L3204.38 1162.05 L3204.38 1169.10 L3187.55 1169.10 L3187.55 1176.03 L3170.60 1176.03 L3170.60 1183.09 L3153.77 1183.09 L3153.77 1190.02 L3136.82 1190.02 L3136.82 1197.07 L3119.99 1197.07 L3119.99 1204.13 L3103.16 1204.13 L3103.16 1211.18 L3086.20 1211.18 L3086.20 1218.23 L3069.37 1218.23 L3069.37 1225.29 L3052.42 1225.29 L3052.42 1232.34 L3035.59 1232.34 L3035.59 1239.39 L3018.63 1239.39 L3018.63 1246.45 L3001.80 1246.45 L3001.80 1253.63 L2984.97 1253.63 L2984.97 1260.68 L2968.02 1260.68 L2968.02 1267.73 L2951.19 1267.73 L2951.19 1274.91 L2934.24 1274.91 L2934.24 1282.09 L2917.41 1282.09 L2917.41 1289.14 L2900.45 1289.14 L2900.45 1296.32 L2883.62 1296.32 L2883.62 1303.50 L2866.79 1303.50 L2866.79 1310.68 L2849.84 1310.68 L2849.84 1317.85 L2833.01 1317.85 L2833.01 1325.03 L2816.05 1325.03 L2816.05 1332.21 L2799.22 1332.21 L2799.22 1339.39 L2782.27 1339.39 L2782.27 1346.69 L2765.44 1346.69 L2765.44 1353.87 L2748.61 1353.87 L2748.61 1361.17 L2731.66 1361.17 L2731.66 1368.47 L2714.83 1368.47 L2714.83 1375.65 L2697.87 1375.65 L2697.87 1382.95 L2681.04 1382.95 L2681.04 1390.25 L2664.21 1390.25 L2664.21 1397.55 L2647.26 1397.55 L2647.26 1404.85 L2630.43 1404.85 L2630.43 1412.28 L2613.48 1412.28 L2613.48 1419.58 L2596.65 1419.58 L2596.65 1426.88 L2579.69 1426.88 L2579.69 1434.31 L2562.86 1434.31 L2562.86 1441.73 L2546.03 1441.73 L2546.03 1449.03 L2529.08 1449.03 L2529.08 1456.46 L2512.25 1456.46 L2512.25 1463.88 L2495.30 1463.88 L2495.30 1471.43 L2478.47 1471.43 L2478.47 1478.86 L2461.51 1478.86 L2461.51 1486.28 L2444.68 1486.28 L2444.68 1493.83 L2427.85 1493.83 L2427.85 1501.26 L2410.90 1501.26 L2410.90 1508.81 L2394.07 1508.81 L2394.07 1516.36 L2377.11 1516.36 L2377.11 1523.91 L2360.28 1523.91 L2360.28 1531.45 L2343.33 1531.45 L2343.33 1539.00 L2326.50 1539.00 L2326.50 1546.68 L2309.67 1546.68 L2309.67 1554.22 L2292.72 1554.22 L2292.72 1561.90 L2275.89 1561.90 L2275.89 1569.57 L2258.93 1569.57 L2258.93 1577.24 L2242.10 1577.24 L2242.10 1584.92 L2225.15 1584.92 L2225.15 1592.59 L2208.32 1592.59 L2208.32 1600.26 L2191.49 1600.26 L2191.49 1608.06 L2174.53 1608.06 L2174.53 1615.85 L2157.70 1615.85 L2157.70 1623.53 L2140.75 1623.53 L2140.75 1631.32 L2123.92 1631.32 L2123.92 1639.12 L2106.97 1639.12 L2106.97 1647.04 L2090.14 1647.04 L2090.14 1654.84 L2073.31 1654.84 L2073.31 1662.76 L2056.35 1662.76 L2056.35 1670.55 L2039.52 1670.55 L2039.52 1678.47 L2022.57 1678.47 L2022.57 1686.39 L2005.74 1686.39 L2005.74 1694.44 L1988.91 1694.44 L1988.91 1702.36 L1971.96 1702.36 L1971.96 1710.40 L1955.13 1710.40 L1955.13 1718.45 L1938.17 1718.45 L1938.17 1726.49 L1921.34 1726.49 L1921.34 1734.53 L1904.39 1734.53 L1904.39 1742.58 L1887.56 1742.58 L1887.56 1750.75 L1870.73 1750.75 L1870.73 1758.91 L1853.78 1758.91 L1853.78 1767.08 L1836.94 1767.08 L1836.94 1775.25 L1819.99 1775.25 L1819.99 1783.54 L1803.16 1783.54 L1803.16 1791.83 L1786.21 1791.83 L1786.21 1800.00 L1769.38 1800.00 L1769.38 1808.42 L1752.55 1808.42 L1752.55 1816.71 L1735.59 1816.71 L1735.59 1825.12 L1718.76 1825.12 L1718.76 1833.41 L1701.81 1833.41 L1701.81 1841.83 L1684.98 1841.83 L1684.98 1850.37 L1668.03 1850.37 L1668.03 1858.78 L1651.20 1858.78 L1651.20 1867.32 L1634.37 1867.32 L1634.37 1875.86 L1617.41 1875.86 L1617.41 1884.40 L1600.58 1884.40 L1600.58 1893.06 L1583.63 1893.06 L1583.63 1901.73 L1566.80 1901.73 L1566.80 1910.39 L1549.85 1910.39 L1549.85 1919.05 L1533.02 1919.05 L1533.02 1927.84 L1516.18 1927.84 L1516.18 1936.62 L1499.23 1936.62 L1499.23 1945.41 L1482.40 1945.41 L1482.40 1954.32 L1465.45 1954.32 L1465.45 1963.11 L1448.62 1963.11 L1448.62 1972.14 L1431.66 1972.14 L1431.66 1981.05 L1414.83 1981.05 L1414.83 1990.09 L1398.00 1990.09 L1398.00 1999.12 L1381.05 1999.12 L1381.05 2008.15 L1364.22 2008.15 L1364.22 2017.31 L1347.27 2017.31 L1347.27 2026.47 L1330.44 2026.47 L1330.44 2035.63 L1313.61 2035.63 L1313.61 2044.91 L1296.65 2044.91 L1296.65 2054.19 L1279.82 2054.19 L1279.82 2063.47 L1262.87 2063.47 L1262.87 2072.88 L1246.04 2072.88 L1246.04 2082.28 L1229.09 2082.28 L1229.09 2091.69 L1212.26 2091.69 L1212.26 2101.22 L1195.42 2101.22 L1195.42 2110.75 L1178.47 2110.75 L1178.47 2120.28 L1161.64 2120.28 L1161.64 2129.80 L1144.69 2129.80 L1144.69 2139.46 L1127.86 2139.46 L1127.86 2149.11 L1110.90 2149.11 L1110.90 2158.89 L1094.07 2158.89 L1094.07 2168.54 L1077.24 2168.54 L1077.24 2178.32 L1060.29 2178.32 L1060.29 2188.22 L1043.46 2188.22 L1043.46 2197.99 L1026.51 2197.99 L1026.51 2207.89 L1009.68 2207.89 L1009.68 2217.79 L992.72 2217.79 L992.72 2227.69 L975.89 2227.69 L975.89 2237.72 L959.06 2237.72 L959.06 2247.74 L942.11 2247.74 L942.11 2257.77 L925.28 2257.77 L925.28 2267.79 L908.33 2267.79 L908.33 2277.94 L891.50 2277.94 L891.50 2288.09 L874.54 2288.09 L874.54 2298.23 L857.71 2298.23 L857.71 2308.38 L840.88 2308.38 L840.88 2318.53 L823.93 2318.53 L823.93 2328.80 L807.10 2328.80 L807.10 2339.07 L790.14 2339.07 L790.14 2349.34 L773.31 2349.34 L773.31 2352.07 Z" stroke-linejoin="round"/>
	</defs>
	<defs>
		<clipPath id="clipPath_wugjhZyd">
			<use xlink:href="#path_iAXxstGk"/>
		</clipPath>
	</defs>
	<use xlink:href="#path_iAXxstGk" style="stroke:none;fill:#333333;fill-opacity:0.35"/>
	<use xlink:href="#path_iAXxstGk" style="fill:none;stroke:#000000;stroke-opacity:0.35;stroke-width:17.28" clip-path="url(#clipPath_wugjhZyd)"/>
	<line x1="773.19" y1="2350.70" x2="790.14" y2="2350.70" style="stroke:#808080;stroke-width:8.64"/>
	<line x1="790.14" y1="2350.70" x2="790.14" y2="2340.68" style="stroke:#808080;stroke-width:8.64"/>
	<line x1="790.14" y1="2340.68" x2="803.51" y2="2340.68" style="stroke:#808080;stroke-width:8.64"/>
	<line x1="810.69" y1="2330.66" x2="823.93" y2="2330.66" style="stroke:#808080;stroke-width:8.64"/>
	<line x1="823.93" y1="2330.66" x2="823.93" y2="2320.76" style="stroke:#808080;stroke-width:8.64"/>
	<line x1="823.93" y1="2320.76" x2="840.76" y2="2320.76" style="stroke:#808080;stroke-width:8.64"/>
	<line x1="840.76" y1="2320.76" x2="840.76" y2="2320.39" style="stroke:#808080;stroke-width:8.64"/>
	<line x1="848.43" y1="2310.86" x2="857.71" y2="2310.86" style="stroke:#808080;stroke-width:8.64"/>
	<line x1="857.71" y1="2310.86" x2="857.71" y2="2300.96" style="stroke:#808080;stroke-width:8.64"/>
	<line x1="857.71" y1="2300.96" x2="874.54" y2="2300.96" style="stroke:#808080;stroke-width:8.64"/>
	<line x1="874.54" y1="2300.96" x2="874.54" y2="2296.62" style="stroke:#808080;stroke-width:8.64"/>
	<line x1="886.42" y1="2291.18" x2="891.37" y2="2291.18" style="stroke:#808080;stroke-width:8.64"/>
	<line x1="891.37" y1="2291.18" x2="891.37" y2="2281.53" style="stroke:#808080;stroke-width:8.64"/>
	<line x1="891.37" y1="2281.53" x2="908.33" y2="2281.53" style="stroke:#808080;stroke-width:8.64"/>
	<line x1="908.33" y1="2281.53" x2="908.33" y2="2272.74" style="stroke:#808080;stroke-width:8.64"/>
	<line x1="924.66" y1="2271.87" x2="925.15" y2="2271.87" style="stroke:#808080;stroke-width:8.64"/>
	<line x1="925.15" y1="2271.87" x2="925.15" y2="2262.22" style="stroke:#808080;stroke-width:8.64"/>
	<line x1="925.15" y1="2262.22" x2="942.11" y2="2262.22" style="stroke:#808080;stroke-width:8.64"/>
	<line x1="942.11" y1="2262.22" x2="942.11" y2="2252.69" style="stroke:#808080;stroke-width:8.64"/>
	<line x1="942.11" y1="2252.69" x2="945.82" y2="2252.69" style="stroke:#808080;stroke-width:8.64"/>
	<line x1="958.94" y1="2248.61" x2="958.94" y2="2243.16" style="stroke:#808080;stroke-width:8.64"/>
	<line x1="958.94" y1="2243.16" x2="975.89" y2="2243.16" style="stroke:#808080;stroke-width:8.64"/>
	<line x1="975.89" y1="2243.16" x2="975.89" y2="2233.76" style="stroke:#808080;stroke-width:8.64"/>
	<line x1="975.89" y1="2233.76" x2="984.43" y2="2233.76" style="stroke:#808080;stroke-width:8.64"/>
	<line x1="992.72" y1="2224.85" x2="992.72" y2="2224.35" style="stroke:#808080;stroke-width:8.64"/>
	<line x1="992.72" y1="2224.35" x2="1009.55" y2="2224.35" style="stroke:#808080;stroke-width:8.64"/>
	<line x1="1009.55" y1="2224.35" x2="1009.55" y2="2215.07" style="stroke:#808080;stroke-width:8.64"/>
	<line x1="1009.55" y1="2215.07" x2="1023.29" y2="2215.07" style="stroke:#808080;stroke-width:8.64"/>
	<line x1="1031.33" y1="2205.79" x2="1043.34" y2="2205.79" style="stroke:#808080;stroke-width:8.64"/>
	<line x1="1043.34" y1="2205.79" x2="1043.34" y2="2196.63" style="stroke:#808080;stroke-width:8.64"/>
	<line x1="1043.34" y1="2196.63" x2="1060.29" y2="2196.63" style="stroke:#808080;stroke-width:8.64"/>
	<line x1="1060.29" y1="2196.63" x2="1060.29" y2="2194.53" style="stroke:#808080;stroke-width:8.64"/>
	<line x1="1070.56" y1="2187.47" x2="1077.12" y2="2187.47" style="stroke:#808080;stroke-width:8.64"/>
	<line x1="1077.12" y1="2187.47" x2="1077.12" y2="2178.44" style="stroke:#808080;stroke-width:8.64"/>
	<line x1="1077.12" y1="2178.44" x2="1093.95" y2="2178.44" style="stroke:#808080;stroke-width:8.64"/>
	<line x1="1093.95" y1="2178.44" x2="1093.95" y2="2170.52" style="stroke:#808080;stroke-width:8.64"/>
	<line x1="1110.04" y1="2169.41" x2="1110.90" y2="2169.41" style="stroke:#808080;stroke-width:8.64"/>
	<line x1="1110.90" y1="2169.41" x2="1110.90" y2="2160.50" style="stroke:#808080;stroke-width:8.64"/>
	<line x1="1110.90" y1="2160.50" x2="1127.73" y2="2160.50" style="stroke:#808080;stroke-width:8.64"/>
	<line x1="1127.73" y1="2160.50" x2="1127.73" y2="2151.58" style="stroke:#808080;stroke-width:8.64"/>
	<line x1="1127.73" y1="2151.58" x2="1132.56" y2="2151.58" style="stroke:#808080;stroke-width:8.64"/>
	<line x1="1144.69" y1="2146.51" x2="1144.69" y2="2142.80" style="stroke:#808080;stroke-width:8.64"/>
	<line x1="1144.69" y1="2142.80" x2="1161.52" y2="2142.80" style="stroke:#808080;stroke-width:8.64"/>
	<line x1="1161.52" y1="2142.80" x2="1161.52" y2="2134.01" style="stroke:#808080;stroke-width:8.64"/>
	<line x1="1161.52" y1="2134.01" x2="1172.53" y2="2134.01" style="stroke:#808080;stroke-width:8.64"/>
	<line x1="1181.07" y1="2125.35" x2="1195.30" y2="2125.35" style="stroke:#808080;stroke-width:8.64"/>
	<line x1="1195.30" y1="2125.35" x2="1195.30" y2="2116.69" style="stroke:#808080;stroke-width:8.64"/>
	<line x1="1195.30" y1="2116.69" x2="1212.13" y2="2116.69" style="stroke:#808080;stroke-width:8.64"/>
	<line x1="1212.13" y1="2116.69" x2="1212.13" y2="2115.94" style="stroke:#808080;stroke-width:8.64"/>
	<line x1="1221.54" y1="2108.15" x2="1229.09" y2="2108.15" style="stroke:#808080;stroke-width:8.64"/>
	<line x1="1229.09" y1="2108.15" x2="1229.09" y2="2099.61" style="stroke:#808080;stroke-width:8.64"/>
	<line x1="1229.09" y1="2099.61" x2="1245.91" y2="2099.61" style="stroke:#808080;stroke-width:8.64"/>
	<line x1="1245.91" y1="2099.61" x2="1245.91" y2="2092.18" style="stroke:#808080;stroke-width:8.64"/>
	<line x1="1262.13" y1="2091.19" x2="1262.87" y2="2091.19" style="stroke:#808080;stroke-width:8.64"/>
	<line x1="1262.87" y1="2091.19" x2="1262.87" y2="2082.90" style="stroke:#808080;stroke-width:8.64"/>
	<line x1="1262.87" y1="2082.90" x2="1279.70" y2="2082.90" style="stroke:#808080;stroke-width:8.64"/>
	<line x1="1279.70" y1="2082.90" x2="1279.70" y2="2074.61" style="stroke:#808080;stroke-width:8.64"/>
	<line x1="1279.70" y1="2074.61" x2="1285.89" y2="2074.61" style="stroke:#808080;stroke-width:8.64"/>
	<line x1="1296.65" y1="2068.17" x2="1296.65" y2="2066.32" style="stroke:#808080;stroke-width:8.64"/>
	<line x1="1296.65" y1="2066.32" x2="1313.48" y2="2066.32" style="stroke:#808080;stroke-width:8.64"/>
	<line x1="1313.48" y1="2066.32" x2="1313.48" y2="2058.15" style="stroke:#808080;stroke-width:8.64"/>
	<line x1="1313.48" y1="2058.15" x2="1326.97" y2="2058.15" style="stroke:#808080;stroke-width:8.64"/>
	<line x1="1336.13" y1="2050.11" x2="1347.27" y2="2050.11" style="stroke:#808080;stroke-width:8.64"/>
	<line x1="1347.27" y1="2050.11" x2="1347.27" y2="2042.06" style="stroke:#808080;stroke-width:8.64"/>
	<line x1="1347.27" y1="2042.06" x2="1364.10" y2="2042.06" style="stroke:#808080;stroke-width:8.64"/>
	<line x1="1364.10" y1="2042.06" x2="1364.10" y2="2037.61" style="stroke:#808080;stroke-width:8.64"/>
	<line x1="1377.71" y1="2034.02" x2="1381.05" y2="2034.02" style="stroke:#808080;stroke-width:8.64"/>
	<line x1="1381.05" y1="2034.02" x2="1381.05" y2="2026.10" style="stroke:#808080;stroke-width:8.64"/>
	<line x1="1381.05" y1="2026.10" x2="1397.88" y2="2026.10" style="stroke:#808080;stroke-width:8.64"/>
	<line x1="1397.88" y1="2026.10" x2="1397.88" y2="2018.18" style="stroke:#808080;stroke-width:8.64"/>
	<line x1="1397.88" y1="2018.18" x2="1402.09" y2="2018.18" style="stroke:#808080;stroke-width:8.64"/>
	<line x1="1414.83" y1="2013.60" x2="1414.83" y2="2010.38" style="stroke:#808080;stroke-width:8.64"/>
	<line x1="1414.83" y1="2010.38" x2="1431.66" y2="2010.38" style="stroke:#808080;stroke-width:8.64"/>
	<line x1="1431.66" y1="2010.38" x2="1431.66" y2="2002.71" style="stroke:#808080;stroke-width:8.64"/>
	<line x1="1431.66" y1="2002.71" x2="1444.29" y2="2002.71" style="stroke:#808080;stroke-width:8.64"/>
	<line x1="1453.69" y1="1994.91" x2="1465.45" y2="1994.91" style="stroke:#808080;stroke-width:8.64"/>
	<line x1="1465.45" y1="1994.91" x2="1465.45" y2="1987.36" style="stroke:#808080;stroke-width:8.64"/>
	<line x1="1465.45" y1="1987.36" x2="1482.28" y2="1987.36" style="stroke:#808080;stroke-width:8.64"/>
	<line x1="1482.28" y1="1987.36" x2="1482.28" y2="1983.16" style="stroke:#808080;stroke-width:8.64"/>
	<line x1="1496.26" y1="1979.81" x2="1499.23" y2="1979.81" style="stroke:#808080;stroke-width:8.64"/>
	<line x1="1499.23" y1="1979.81" x2="1499.23" y2="1972.27" style="stroke:#808080;stroke-width:8.64"/>
	<line x1="1499.23" y1="1972.27" x2="1516.06" y2="1972.27" style="stroke:#808080;stroke-width:8.64"/>
	<line x1="1516.06" y1="1972.27" x2="1516.06" y2="1964.72" style="stroke:#808080;stroke-width:8.64"/>
	<line x1="1516.06" y1="1964.72" x2="1521.38" y2="1964.72" style="stroke:#808080;stroke-width:8.64"/>
	<line x1="1533.02" y1="1959.02" x2="1533.02" y2="1957.29" style="stroke:#808080;stroke-width:8.64"/>
	<line x1="1533.02" y1="1957.29" x2="1549.85" y2="1957.29" style="stroke:#808080;stroke-width:8.64"/>
	<line x1="1549.85" y1="1957.29" x2="1549.85" y2="1949.99" style="stroke:#808080;stroke-width:8.64"/>
	<line x1="1549.85" y1="1949.99" x2="1564.20" y2="1949.99" style="stroke:#808080;stroke-width:8.64"/>
	<line x1="1574.22" y1="1942.69" x2="1583.63" y2="1942.69" style="stroke:#808080;stroke-width:8.64"/>
	<line x1="1583.63" y1="1942.69" x2="1583.63" y2="1935.39" style="stroke:#808080;stroke-width:8.64"/>
	<line x1="1583.63" y1="1935.39" x2="1600.46" y2="1935.39" style="stroke:#808080;stroke-width:8.64"/>
	<line x1="1600.46" y1="1935.39" x2="1600.46" y2="1928.58" style="stroke:#808080;stroke-width:8.64"/>
	<line x1="1617.29" y1="1928.21" x2="1617.41" y2="1928.21" style="stroke:#808080;stroke-width:8.64"/>
	<line x1="1617.41" y1="1928.21" x2="1617.41" y2="1921.03" style="stroke:#808080;stroke-width:8.64"/>
	<line x1="1617.41" y1="1921.03" x2="1634.24" y2="1921.03" style="stroke:#808080;stroke-width:8.64"/>
	<line x1="1634.24" y1="1921.03" x2="1634.24" y2="1913.85" style="stroke:#808080;stroke-width:8.64"/>
	<line x1="1634.24" y1="1913.85" x2="1643.28" y2="1913.85" style="stroke:#808080;stroke-width:8.64"/>
	<line x1="1653.42" y1="1906.80" x2="1668.03" y2="1906.80" style="stroke:#808080;stroke-width:8.64"/>
	<line x1="1668.03" y1="1906.80" x2="1668.03" y2="1899.75" style="stroke:#808080;stroke-width:8.64"/>
	<line x1="1668.03" y1="1899.75" x2="1684.86" y2="1899.75" style="stroke:#808080;stroke-width:8.64"/>
	<line x1="1684.86" y1="1899.75" x2="1684.86" y2="1897.89" style="stroke:#808080;stroke-width:8.64"/>
	<line x1="1696.98" y1="1892.69" x2="1701.81" y2="1892.69" style="stroke:#808080;stroke-width:8.64"/>
	<line x1="1701.81" y1="1892.69" x2="1701.81" y2="1885.76" style="stroke:#808080;stroke-width:8.64"/>
	<line x1="1701.81" y1="1885.76" x2="1718.64" y2="1885.76" style="stroke:#808080;stroke-width:8.64"/>
	<line x1="1718.64" y1="1885.76" x2="1718.64" y2="1878.83" style="stroke:#808080;stroke-width:8.64"/>
	<line x1="1718.64" y1="1878.83" x2="1723.34" y2="1878.83" style="stroke:#808080;stroke-width:8.64"/>
	<line x1="1735.59" y1="1873.76" x2="1735.59" y2="1872.02" style="stroke:#808080;stroke-width:8.64"/>
	<line x1="1735.59" y1="1872.02" x2="1752.42" y2="1872.02" style="stroke:#808080;stroke-width:8.64"/>
	<line x1="1752.42" y1="1872.02" x2="1752.42" y2="1865.22" style="stroke:#808080;stroke-width:8.64"/>
	<line x1="1752.42" y1="1865.22" x2="1767.40" y2="1865.22" style="stroke:#808080;stroke-width:8.64"/>
	<line x1="1777.79" y1="1858.41" x2="1786.21" y2="1858.41" style="stroke:#808080;stroke-width:8.64"/>
	<line x1="1786.21" y1="1858.41" x2="1786.21" y2="1851.61" style="stroke:#808080;stroke-width:8.64"/>
	<line x1="1786.21" y1="1851.61" x2="1803.04" y2="1851.61" style="stroke:#808080;stroke-width:8.64"/>
	<line x1="1803.04" y1="1851.61" x2="1803.04" y2="1844.92" style="stroke:#808080;stroke-width:8.64"/>
	<line x1="1803.04" y1="1844.92" x2="1804.65" y2="1844.92" style="stroke:#808080;stroke-width:8.64"/>
	<line x1="1819.99" y1="1843.07" x2="1819.99" y2="1838.24" style="stroke:#808080;stroke-width:8.64"/>
	<line x1="1819.99" y1="1838.24" x2="1836.82" y2="1838.24" style="stroke:#808080;stroke-width:8.64"/>
	<line x1="1836.82" y1="1838.24" x2="1836.82" y2="1831.56" style="stroke:#808080;stroke-width:8.64"/>
	<line x1="1836.82" y1="1831.56" x2="1848.83" y2="1831.56" style="stroke:#808080;stroke-width:8.64"/>
	<line x1="1859.59" y1="1825.00" x2="1870.61" y2="1825.00" style="stroke:#808080;stroke-width:8.64"/>
	<line x1="1870.61" y1="1825.00" x2="1870.61" y2="1818.32" style="stroke:#808080;stroke-width:8.64"/>
	<line x1="1870.61" y1="1818.32" x2="1887.43" y2="1818.32" style="stroke:#808080;stroke-width:8.64"/>
	<line x1="1887.43" y1="1818.32" x2="1887.43" y2="1812.62" style="stroke:#808080;stroke-width:8.64"/>
	<line x1="1903.89" y1="1811.76" x2="1904.39" y2="1811.76" style="stroke:#808080;stroke-width:8.64"/>
	<line x1="1904.39" y1="1811.76" x2="1904.39" y2="1805.32" style="stroke:#808080;stroke-width:8.64"/>
	<line x1="1904.39" y1="1805.32" x2="1921.22" y2="1805.32" style="stroke:#808080;stroke-width:8.64"/>
	<line x1="1921.22" y1="1805.32" x2="1921.22" y2="1798.89" style="stroke:#808080;stroke-width:8.64"/>
	<line x1="1921.22" y1="1798.89" x2="1931.37" y2="1798.89" style="stroke:#808080;stroke-width:8.64"/>
	<line x1="1942.01" y1="1792.33" x2="1955.00" y2="1792.33" style="stroke:#808080;stroke-width:8.64"/>
	<line x1="1955.00" y1="1792.33" x2="1955.00" y2="1786.02" style="stroke:#808080;stroke-width:8.64"/>
	<line x1="1955.00" y1="1786.02" x2="1971.96" y2="1786.02" style="stroke:#808080;stroke-width:8.64"/>
	<line x1="1971.96" y1="1786.02" x2="1971.96" y2="1781.93" style="stroke:#808080;stroke-width:8.64"/>
	<line x1="1986.81" y1="1779.58" x2="1988.79" y2="1779.58" style="stroke:#808080;stroke-width:8.64"/>
	<line x1="1988.79" y1="1779.58" x2="1988.79" y2="1773.27" style="stroke:#808080;stroke-width:8.64"/>
	<line x1="1988.79" y1="1773.27" x2="2005.62" y2="1773.27" style="stroke:#808080;stroke-width:8.64"/>
	<line x1="2005.62" y1="1773.27" x2="2005.62" y2="1766.96" style="stroke:#808080;stroke-width:8.64"/>
	<line x1="2005.62" y1="1766.96" x2="2014.53" y2="1766.96" style="stroke:#808080;stroke-width:8.64"/>
	<line x1="2025.42" y1="1760.65" x2="2039.40" y2="1760.65" style="stroke:#808080;stroke-width:8.64"/>
	<line x1="2039.40" y1="1760.65" x2="2039.40" y2="1754.46" style="stroke:#808080;stroke-width:8.64"/>
	<line x1="2039.40" y1="1754.46" x2="2056.35" y2="1754.46" style="stroke:#808080;stroke-width:8.64"/>
	<line x1="2056.35" y1="1754.46" x2="2056.35" y2="1751.24" style="stroke:#808080;stroke-width:8.64"/>
	<line x1="2070.59" y1="1748.15" x2="2073.18" y2="1748.15" style="stroke:#808080;stroke-width:8.64"/>
	<line x1="2073.18" y1="1748.15" x2="2073.18" y2="1741.96" style="stroke:#808080;stroke-width:8.64"/>
	<line x1="2073.18" y1="1741.96" x2="2090.14" y2="1741.96" style="stroke:#808080;stroke-width:8.64"/>
	<line x1="2090.14" y1="1741.96" x2="2090.14" y2="1735.77" style="stroke:#808080;stroke-width:8.64"/>
	<line x1="2090.14" y1="1735.77" x2="2098.55" y2="1735.77" style="stroke:#808080;stroke-width:8.64"/>
	<line x1="2109.57" y1="1729.58" x2="2123.80" y2="1729.58" style="stroke:#808080;stroke-width:8.64"/>
	<line x1="2123.80" y1="1729.58" x2="2123.80" y2="1723.52" style="stroke:#808080;stroke-width:8.64"/>
	<line x1="2123.80" y1="1723.52" x2="2140.75" y2="1723.52" style="stroke:#808080;stroke-width:8.64"/>
	<line x1="2140.75" y1="1723.52" x2="2140.75" y2="1720.43" style="stroke:#808080;stroke-width:8.64"/>
	<line x1="2154.98" y1="1717.46" x2="2157.58" y2="1717.46" style="stroke:#808080;stroke-width:8.64"/>
	<line x1="2157.58" y1="1717.46" x2="2157.58" y2="1711.39" style="stroke:#808080;stroke-width:8.64"/>
	<line x1="2157.58" y1="1711.39" x2="2174.53" y2="1711.39" style="stroke:#808080;stroke-width:8.64"/>
	<line x1="2174.53" y1="1711.39" x2="2174.53" y2="1705.33" style="stroke:#808080;stroke-width:8.64"/>
	<line x1="2174.53" y1="1705.33" x2="2183.20" y2="1705.33" style="stroke:#808080;stroke-width:8.64"/>
	<line x1="2194.34" y1="1699.26" x2="2208.32" y2="1699.26" style="stroke:#808080;stroke-width:8.64"/>
	<line x1="2208.32" y1="1699.26" x2="2208.32" y2="1693.32" style="stroke:#808080;stroke-width:8.64"/>
	<line x1="2208.32" y1="1693.32" x2="2225.15" y2="1693.32" style="stroke:#808080;stroke-width:8.64"/>
	<line x1="2225.15" y1="1693.32" x2="2225.15" y2="1689.74" style="stroke:#808080;stroke-width:8.64"/>
	<line x1="2240.00" y1="1687.26" x2="2241.98" y2="1687.26" style="stroke:#808080;stroke-width:8.64"/>
	<line x1="2241.98" y1="1687.26" x2="2241.98" y2="1681.32" style="stroke:#808080;stroke-width:8.64"/>
	<line x1="2241.98" y1="1681.32" x2="2258.93" y2="1681.32" style="stroke:#808080;stroke-width:8.64"/>
	<line x1="2258.93" y1="1681.32" x2="2258.93" y2="1675.38" style="stroke:#808080;stroke-width:8.64"/>
	<line x1="2258.93" y1="1675.38" x2="2268.46" y2="1675.38" style="stroke:#808080;stroke-width:8.64"/>
	<line x1="2279.85" y1="1669.56" x2="2292.72" y2="1669.56" style="stroke:#808080;stroke-width:8.64"/>
	<line x1="2292.72" y1="1669.56" x2="2292.72" y2="1663.62" style="stroke:#808080;stroke-width:8.64"/>
	<line x1="2292.72" y1="1663.62" x2="2309.55" y2="1663.62" style="stroke:#808080;stroke-width:8.64"/>
	<line x1="2309.55" y1="1663.62" x2="2309.55" y2="1658.92" style="stroke:#808080;stroke-width:8.64"/>
	<line x1="2325.63" y1="1657.81" x2="2326.50" y2="1657.81" style="stroke:#808080;stroke-width:8.64"/>
	<line x1="2326.50" y1="1657.81" x2="2326.50" y2="1651.87" style="stroke:#808080;stroke-width:8.64"/>
	<line x1="2326.50" y1="1651.87" x2="2343.33" y2="1651.87" style="stroke:#808080;stroke-width:8.64"/>
	<line x1="2343.33" y1="1651.87" x2="2343.33" y2="1646.05" style="stroke:#808080;stroke-width:8.64"/>
	<line x1="2343.33" y1="1646.05" x2="2354.22" y2="1646.05" style="stroke:#808080;stroke-width:8.64"/>
	<line x1="2365.61" y1="1640.23" x2="2377.11" y2="1640.23" style="stroke:#808080;stroke-width:8.64"/>
	<line x1="2377.11" y1="1640.23" x2="2377.11" y2="1634.54" style="stroke:#808080;stroke-width:8.64"/>
	<line x1="2377.11" y1="1634.54" x2="2393.94" y2="1634.54" style="stroke:#808080;stroke-width:8.64"/>
	<line x1="2393.94" y1="1634.54" x2="2393.94" y2="1628.72" style="stroke:#808080;stroke-width:8.64"/>
	<line x1="2393.94" y1="1628.72" x2="2394.44" y2="1628.72" style="stroke:#808080;stroke-width:8.64"/>
	<line x1="2410.90" y1="1627.98" x2="2410.90" y2="1623.03" style="stroke:#808080;stroke-width:8.64"/>
	<line x1="2410.90" y1="1623.03" x2="2427.73" y2="1623.03" style="stroke:#808080;stroke-width:8.64"/>
	<line x1="2427.73" y1="1623.03" x2="2427.73" y2="1617.22" style="stroke:#808080;stroke-width:8.64"/>
	<line x1="2427.73" y1="1617.22" x2="2440.47" y2="1617.22" style="stroke:#808080;stroke-width:8.64"/>
	<line x1="2452.11" y1="1611.52" x2="2461.51" y2="1611.52" style="stroke:#808080;stroke-width:8.64"/>
	<line x1="2461.51" y1="1611.52" x2="2461.51" y2="1605.83" style="stroke:#808080;stroke-width:8.64"/>
	<line x1="2461.51" y1="1605.83" x2="2478.34" y2="1605.83" style="stroke:#808080;stroke-width:8.64"/>
	<line x1="2478.34" y1="1605.83" x2="2478.34" y2="1600.26" style="stroke:#808080;stroke-width:8.64"/>
	<line x1="2478.34" y1="1600.26" x2="2481.19" y2="1600.26" style="stroke:#808080;stroke-width:8.64"/>
	<line x1="2495.30" y1="1597.17" x2="2495.30" y2="1594.57" style="stroke:#808080;stroke-width:8.64"/>
	<line x1="2495.30" y1="1594.57" x2="2512.13" y2="1594.57" style="stroke:#808080;stroke-width:8.64"/>
	<line x1="2512.13" y1="1594.57" x2="2512.13" y2="1588.88" style="stroke:#808080;stroke-width:8.64"/>
	<line x1="2512.13" y1="1588.88" x2="2527.35" y2="1588.88" style="stroke:#808080;stroke-width:8.64"/>
	<line x1="2538.98" y1="1583.31" x2="2545.91" y2="1583.31" style="stroke:#808080;stroke-width:8.64"/>
	<line x1="2545.91" y1="1583.31" x2="2545.91" y2="1577.74" style="stroke:#808080;stroke-width:8.64"/>
	<line x1="2545.91" y1="1577.74" x2="2562.74" y2="1577.74" style="stroke:#808080;stroke-width:8.64"/>
	<line x1="2562.74" y1="1577.74" x2="2562.74" y2="1572.17" style="stroke:#808080;stroke-width:8.64"/>
	<line x1="2562.74" y1="1572.17" x2="2568.18" y2="1572.17" style="stroke:#808080;stroke-width:8.64"/>
	<line x1="2579.82" y1="1566.60" x2="2596.52" y2="1566.60" style="stroke:#808080;stroke-width:8.64"/>
	<line x1="2596.52" y1="1566.60" x2="2596.52" y2="1561.03" style="stroke:#808080;stroke-width:8.64"/>
	<line x1="2596.52" y1="1561.03" x2="2613.48" y2="1561.03" style="stroke:#808080;stroke-width:8.64"/>
	<line x1="2613.48" y1="1561.03" x2="2613.48" y2="1559.92" style="stroke:#808080;stroke-width:8.64"/>
	<line x1="2626.47" y1="1555.59" x2="2630.31" y2="1555.59" style="stroke:#808080;stroke-width:8.64"/>
	<line x1="2630.31" y1="1555.59" x2="2630.31" y2="1550.02" style="stroke:#808080;stroke-width:8.64"/>
	<line x1="2630.31" y1="1550.02" x2="2647.26" y2="1550.02" style="stroke:#808080;stroke-width:8.64"/>
	<line x1="2647.26" y1="1550.02" x2="2647.26" y2="1544.57" style="stroke:#808080;stroke-width:8.64"/>
	<line x1="2647.26" y1="1544.57" x2="2655.80" y2="1544.57" style="stroke:#808080;stroke-width:8.64"/>
	<line x1="2667.55" y1="1539.13" x2="2680.92" y2="1539.13" style="stroke:#808080;stroke-width:8.64"/>
	<line x1="2680.92" y1="1539.13" x2="2680.92" y2="1533.56" style="stroke:#808080;stroke-width:8.64"/>
	<line x1="2680.92" y1="1533.56" x2="2697.87" y2="1533.56" style="stroke:#808080;stroke-width:8.64"/>
	<line x1="2697.87" y1="1533.56" x2="2697.87" y2="1529.10" style="stroke:#808080;stroke-width:8.64"/>
	<line x1="2714.09" y1="1528.11" x2="2714.70" y2="1528.11" style="stroke:#808080;stroke-width:8.64"/>
	<line x1="2714.70" y1="1528.11" x2="2714.70" y2="1522.79" style="stroke:#808080;stroke-width:8.64"/>
	<line x1="2714.70" y1="1522.79" x2="2731.66" y2="1522.79" style="stroke:#808080;stroke-width:8.64"/>
	<line x1="2731.66" y1="1522.79" x2="2731.66" y2="1517.35" style="stroke:#808080;stroke-width:8.64"/>
	<line x1="2731.66" y1="1517.35" x2="2743.66" y2="1517.35" style="stroke:#808080;stroke-width:8.64"/>
	<line x1="2755.54" y1="1511.90" x2="2765.44" y2="1511.90" style="stroke:#808080;stroke-width:8.64"/>
	<line x1="2765.44" y1="1511.90" x2="2765.44" y2="1506.46" style="stroke:#808080;stroke-width:8.64"/>
	<line x1="2765.44" y1="1506.46" x2="2782.27" y2="1506.46" style="stroke:#808080;stroke-width:8.64"/>
	<line x1="2782.27" y1="1506.46" x2="2782.27" y2="1501.13" style="stroke:#808080;stroke-width:8.64"/>
	<line x1="2782.27" y1="1501.13" x2="2784.99" y2="1501.13" style="stroke:#808080;stroke-width:8.64"/>
	<line x1="2799.10" y1="1497.92" x2="2799.10" y2="1495.81" style="stroke:#808080;stroke-width:8.64"/>
	<line x1="2799.10" y1="1495.81" x2="2816.05" y2="1495.81" style="stroke:#808080;stroke-width:8.64"/>
	<line x1="2816.05" y1="1495.81" x2="2816.05" y2="1490.37" style="stroke:#808080;stroke-width:8.64"/>
	<line x1="2816.05" y1="1490.37" x2="2831.77" y2="1490.37" style="stroke:#808080;stroke-width:8.64"/>
	<line x1="2843.78" y1="1485.05" x2="2849.84" y2="1485.05" style="stroke:#808080;stroke-width:8.64"/>
	<line x1="2849.84" y1="1485.05" x2="2849.84" y2="1479.72" style="stroke:#808080;stroke-width:8.64"/>
	<line x1="2849.84" y1="1479.72" x2="2866.67" y2="1479.72" style="stroke:#808080;stroke-width:8.64"/>
	<line x1="2866.67" y1="1479.72" x2="2866.67" y2="1474.40" style="stroke:#808080;stroke-width:8.64"/>
	<line x1="2866.67" y1="1474.40" x2="2873.47" y2="1474.40" style="stroke:#808080;stroke-width:8.64"/>
	<line x1="2885.36" y1="1469.08" x2="2900.45" y2="1469.08" style="stroke:#808080;stroke-width:8.64"/>
	<line x1="2900.45" y1="1469.08" x2="2900.45" y2="1463.88" style="stroke:#808080;stroke-width:8.64"/>
	<line x1="2900.45" y1="1463.88" x2="2917.28" y2="1463.88" style="stroke:#808080;stroke-width:8.64"/>
	<line x1="2917.28" y1="1463.88" x2="2917.28" y2="1460.67" style="stroke:#808080;stroke-width:8.64"/>
	<line x1="2932.38" y1="1458.56" x2="2934.24" y2="1458.56" style="stroke:#808080;stroke-width:8.64"/>
	<line x1="2934.24" y1="1458.56" x2="2934.24" y2="1453.37" style="stroke:#808080;stroke-width:8.64"/>
	<line x1="2934.24" y1="1453.37" x2="2951.07" y2="1453.37" style="stroke:#808080;stroke-width:8.64"/>
	<line x1="2951.07" y1="1453.37" x2="2951.07" y2="1448.04" style="stroke:#808080;stroke-width:8.64"/>
	<line x1="2951.07" y1="1448.04" x2="2962.20" y2="1448.04" style="stroke:#808080;stroke-width:8.64"/>
	<line x1="2974.21" y1="1442.85" x2="2984.85" y2="1442.85" style="stroke:#808080;stroke-width:8.64"/>
	<line x1="2984.85" y1="1442.85" x2="2984.85" y2="1437.65" style="stroke:#808080;stroke-width:8.64"/>
	<line x1="2984.85" y1="1437.65" x2="3001.80" y2="1437.65" style="stroke:#808080;stroke-width:8.64"/>
	<line x1="3001.80" y1="1437.65" x2="3001.80" y2="1432.45" style="stroke:#808080;stroke-width:8.64"/>
	<line x1="3001.80" y1="1432.45" x2="3004.16" y2="1432.45" style="stroke:#808080;stroke-width:8.64"/>
	<line x1="3018.63" y1="1429.60" x2="3018.63" y2="1427.25" style="stroke:#808080;stroke-width:8.64"/>
	<line x1="3018.63" y1="1427.25" x2="3035.46" y2="1427.25" style="stroke:#808080;stroke-width:8.64"/>
	<line x1="3035.46" y1="1427.25" x2="3035.46" y2="1422.06" style="stroke:#808080;stroke-width:8.64"/>
	<line x1="3035.46" y1="1422.06" x2="3051.43" y2="1422.06" style="stroke:#808080;stroke-width:8.64"/>
	<line x1="3063.43" y1="1416.86" x2="3069.25" y2="1416.86" style="stroke:#808080;stroke-width:8.64"/>
	<line x1="3069.25" y1="1416.86" x2="3069.25" y2="1411.66" style="stroke:#808080;stroke-width:8.64"/>
	<line x1="3069.25" y1="1411.66" x2="3086.20" y2="1411.66" style="stroke:#808080;stroke-width:8.64"/>
	<line x1="3086.20" y1="1411.66" x2="3086.20" y2="1406.59" style="stroke:#808080;stroke-width:8.64"/>
	<line x1="3086.20" y1="1406.59" x2="3093.50" y2="1406.59" style="stroke:#808080;stroke-width:8.64"/>
	<line x1="3105.51" y1="1401.39" x2="3119.86" y2="1401.39" style="stroke:#808080;stroke-width:8.64"/>
	<line x1="3119.86" y1="1401.39" x2="3119.86" y2="1396.31" style="stroke:#808080;stroke-width:8.64"/>
	<line x1="3119.86" y1="1396.31" x2="3136.82" y2="1396.31" style="stroke:#808080;stroke-width:8.64"/>
	<line x1="3136.82" y1="1396.31" x2="3136.82" y2="1392.35" style="stroke:#808080;stroke-width:8.64"/>
	<line x1="3152.78" y1="1391.12" x2="3153.64" y2="1391.12" style="stroke:#808080;stroke-width:8.64"/>
	<line x1="3153.64" y1="1391.12" x2="3153.64" y2="1386.04" style="stroke:#808080;stroke-width:8.64"/>
	<line x1="3153.64" y1="1386.04" x2="3170.60" y2="1386.04" style="stroke:#808080;stroke-width:8.64"/>
	<line x1="3170.60" y1="1386.04" x2="3170.60" y2="1380.97" style="stroke:#808080;stroke-width:8.64"/>
	<line x1="3170.60" y1="1380.97" x2="3182.97" y2="1380.97" style="stroke:#808080;stroke-width:8.64"/>
	<line x1="3195.22" y1="1375.90" x2="3204.38" y2="1375.90" style="stroke:#808080;stroke-width:8.64"/>
	<line x1="3204.38" y1="1375.90" x2="3204.38" y2="1370.82" style="stroke:#808080;stroke-width:8.64"/>
	<line x1="3204.38" y1="1370.82" x2="3221.21" y2="1370.82" style="stroke:#808080;stroke-width:8.64"/>
	<line x1="3221.21" y1="1370.82" x2="3221.21" y2="1365.75" style="stroke:#808080;stroke-width:8.64"/>
	<line x1="3221.21" y1="1365.75" x2="3225.42" y2="1365.75" style="stroke:#808080;stroke-width:8.64"/>
	<line x1="3238.04" y1="1361.17" x2="3238.04" y2="1360.67" style="stroke:#808080;stroke-width:8.64"/>
	<line x1="3238.04" y1="1360.67" x2="3255.00" y2="1360.67" style="stroke:#808080;stroke-width:8.64"/>
	<line x1="3255.00" y1="1360.67" x2="3255.00" y2="1355.60" style="stroke:#808080;stroke-width:8.64"/>
	<line x1="3255.00" y1="1355.60" x2="3271.83" y2="1355.60" style="stroke:#808080;stroke-width:8.64"/>
	<line x1="3271.83" y1="1355.60" x2="3271.83" y2="1354.61" style="stroke:#808080;stroke-width:8.64"/>
	<line x1="3285.07" y1="1350.65" x2="3288.78" y2="1350.65" style="stroke:#808080;stroke-width:8.64"/>
	<line x1="3288.78" y1="1350.65" x2="3288.78" y2="1345.58" style="stroke:#808080;stroke-width:8.64"/>
	<line x1="3288.78" y1="1345.58" x2="3305.61" y2="1345.58" style="stroke:#808080;stroke-width:8.64"/>
	<line x1="3305.61" y1="1345.58" x2="3305.61" y2="1340.63" style="stroke:#808080;stroke-width:8.64"/>
	<line x1="3305.61" y1="1340.63" x2="3315.39" y2="1340.63" style="stroke:#808080;stroke-width:8.64"/>
	<line x1="3327.51" y1="1335.55" x2="3339.39" y2="1335.55" style="stroke:#808080;stroke-width:8.64"/>
	<line x1="3339.39" y1="1335.55" x2="3339.39" y2="1330.60" style="stroke:#808080;stroke-width:8.64"/>
	<line x1="3339.39" y1="1330.60" x2="3356.22" y2="1330.60" style="stroke:#808080;stroke-width:8.64"/>
	<line x1="3356.22" y1="1330.60" x2="3356.22" y2="1325.65" style="stroke:#808080;stroke-width:8.64"/>
	<line x1="3356.22" y1="1325.65" x2="3357.96" y2="1325.65" style="stroke:#808080;stroke-width:8.64"/>
	<line x1="3373.18" y1="1323.67" x2="3373.18" y2="1320.70" style="stroke:#808080;stroke-width:8.64"/>
	<line x1="3373.18" y1="1320.70" x2="3390.01" y2="1320.70" style="stroke:#808080;stroke-width:8.64"/>
	<line x1="3390.01" y1="1320.70" x2="3390.01" y2="1315.75" style="stroke:#808080;stroke-width:8.64"/>
	<line x1="3390.01" y1="1315.75" x2="3405.60" y2="1315.75" style="stroke:#808080;stroke-width:8.64"/>
	<line x1="3417.97" y1="1310.80" x2="3423.79" y2="1310.80" style="stroke:#808080;stroke-width:8.64"/>
	<line x1="3423.79" y1="1310.80" x2="3423.79" y2="1305.85" style="stroke:#808080;stroke-width:8.64"/>
	<line x1="3423.79" y1="1305.85" x2="3440.74" y2="1305.85" style="stroke:#808080;stroke-width:8.64"/>
	<line x1="3440.74" y1="1305.85" x2="3440.74" y2="1300.90" style="stroke:#808080;stroke-width:8.64"/>
	<line x1="3440.74" y1="1300.90" x2="3448.42" y2="1300.90" style="stroke:#808080;stroke-width:8.64"/>
	<line x1="3460.67" y1="1295.95" x2="3474.41" y2="1295.95" style="stroke:#808080;stroke-width:8.64"/>
	<line x1="3474.41" y1="1295.95" x2="3474.41" y2="1291.00" style="stroke:#808080;stroke-width:8.64"/>
	<line x1="3474.41" y1="1291.00" x2="3491.36" y2="1291.00" style="stroke:#808080;stroke-width:8.64"/>
	<line x1="3491.36" y1="1291.00" x2="3491.36" y2="1286.30" style="stroke:#808080;stroke-width:8.64"/>
	<line x1="3508.19" y1="1285.93" x2="3508.19" y2="1281.22" style="stroke:#808080;stroke-width:8.64"/>
	<line x1="3508.19" y1="1281.22" x2="3525.14" y2="1281.22" style="stroke:#808080;stroke-width:8.64"/>
	<line x1="3525.14" y1="1281.22" x2="3525.14" y2="1276.40" style="stroke:#808080;stroke-width:8.64"/>
	<line x1="3525.14" y1="1276.40" x2="3539.00" y2="1276.40" style="stroke:#808080;stroke-width:8.64"/>
	<line x1="3551.38" y1="1271.45" x2="3558.93" y2="1271.45" style="stroke:#808080;stroke-width:8.64"/>
	<line x1="3558.93" y1="1271.45" x2="3558.93" y2="1266.62" style="stroke:#808080;stroke-width:8.64"/>
	<line x1="3558.93" y1="1266.62" x2="3575.76" y2="1266.62" style="stroke:#808080;stroke-width:8.64"/>
	<line x1="3575.76" y1="1266.62" x2="3575.76" y2="1261.67" style="stroke:#808080;stroke-width:8.64"/>
	<line x1="3575.76" y1="1261.67" x2="3581.82" y2="1261.67" style="stroke:#808080;stroke-width:8.64"/>
	<line x1="3594.32" y1="1256.84" x2="3609.54" y2="1256.84" style="stroke:#808080;stroke-width:8.64"/>
	<line x1="3609.54" y1="1256.84" x2="3609.54" y2="1252.02" style="stroke:#808080;stroke-width:8.64"/>
	<line x1="3609.54" y1="1252.02" x2="3626.37" y2="1252.02" style="stroke:#808080;stroke-width:8.64"/>
	<line x1="3626.37" y1="1252.02" x2="3626.37" y2="1248.55" style="stroke:#808080;stroke-width:8.64"/>
	<line x1="3642.21" y1="1247.19" x2="3643.32" y2="1247.19" style="stroke:#808080;stroke-width:8.64"/>
	<line x1="3643.32" y1="1247.19" x2="3643.32" y2="1242.37" style="stroke:#808080;stroke-width:8.64"/>
	<line x1="3643.32" y1="1242.37" x2="3660.15" y2="1242.37" style="stroke:#808080;stroke-width:8.64"/>
	<line x1="3660.15" y1="1242.37" x2="3660.15" y2="1237.54" style="stroke:#808080;stroke-width:8.64"/>
	<line x1="3660.15" y1="1237.54" x2="3672.90" y2="1237.54" style="stroke:#808080;stroke-width:8.64"/>
	<line x1="3685.28" y1="1232.71" x2="3693.94" y2="1232.71" style="stroke:#808080;stroke-width:8.64"/>
	<line x1="3693.94" y1="1232.71" x2="3693.94" y2="1227.89" style="stroke:#808080;stroke-width:8.64"/>
	<line x1="3693.94" y1="1227.89" x2="3710.77" y2="1227.89" style="stroke:#808080;stroke-width:8.64"/>
	<line x1="3710.77" y1="1227.89" x2="3710.77" y2="1223.06" style="stroke:#808080;stroke-width:8.64"/>
	<line x1="3710.77" y1="1223.06" x2="3715.97" y2="1223.06" style="stroke:#808080;stroke-width:8.64"/>
	<line x1="3728.46" y1="1218.36" x2="3744.55" y2="1218.36" style="stroke:#808080;stroke-width:8.64"/>
	<line x1="3744.55" y1="1218.36" x2="3744.55" y2="1213.53" style="stroke:#808080;stroke-width:8.64"/>
	<line x1="3744.55" y1="1213.53" x2="3761.51" y2="1213.53" style="stroke:#808080;stroke-width:8.64"/>
	<line x1="3761.51" y1="1213.53" x2="3761.51" y2="1211.06" style="stroke:#808080;stroke-width:8.64"/>
	<line x1="3776.48" y1="1208.70" x2="3778.34" y2="1208.70" style="stroke:#808080;stroke-width:8.64"/>
	<line x1="3778.34" y1="1208.70" x2="3778.34" y2="1204.00" style="stroke:#808080;stroke-width:8.64"/>
	<line x1="3778.34" y1="1204.00" x2="3795.16" y2="1204.00" style="stroke:#808080;stroke-width:8.64"/>
	<line x1="3795.16" y1="1204.00" x2="3795.16" y2="1199.17" style="stroke:#808080;stroke-width:8.64"/>
	<path d="" stroke-linejoin="round" style="fill:none;stroke:#808080;stroke-width:8.64"/>
	<path d=" M773.19 2350.83 L790.14 2350.83 L790.14 2340.80 L806.97 2340.80 L806.97 2330.78 L823.93 2330.78 L823.93 2320.88 L840.76 2320.88 L840.76 2311.10 L857.71 2311.10 L857.71 2301.33 L874.54 2301.33 L874.54 2291.55 L891.37 2291.55 L891.37 2281.90 L908.33 2281.90 L908.33 2272.24 L925.15 2272.24 L925.15 2262.72 L942.11 2262.72 L942.11 2253.31 L958.94 2253.31 L958.94 2243.91 L975.89 2243.91 L975.89 2234.50 L992.72 2234.50 L992.72 2225.22 L1009.55 2225.22 L1009.55 2216.06 L1026.51 2216.06 L1026.51 2206.90 L1043.34 2206.90 L1043.34 2197.74 L1060.29 2197.74 L1060.29 2188.71 L1077.12 2188.71 L1077.12 2179.80 L1093.95 2179.80 L1093.95 2170.89 L1110.90 2170.89 L1110.90 2162.10 L1127.73 2162.10 L1127.73 2153.32 L1144.69 2153.32 L1144.69 2144.65 L1161.52 2144.65 L1161.52 2135.99 L1178.47 2135.99 L1178.47 2127.45 L1195.30 2127.45 L1195.30 2119.04 L1212.13 2119.04 L1212.13 2110.62 L1229.09 2110.62 L1229.09 2102.33 L1245.91 2102.33 L1245.91 2094.04 L1262.87 2094.04 L1262.87 2085.75 L1279.70 2085.75 L1279.70 2077.70 L1296.65 2077.70 L1296.65 2069.66 L1313.48 2069.66 L1313.48 2061.62 L1330.31 2061.62 L1330.31 2053.70 L1347.27 2053.70 L1347.27 2045.78 L1364.10 2045.78 L1364.10 2037.98 L1381.05 2037.98 L1381.05 2030.31 L1397.88 2030.31 L1397.88 2022.63 L1414.83 2022.63 L1414.83 2014.96 L1431.66 2014.96 L1431.66 2007.41 L1448.49 2007.41 L1448.49 1999.99 L1465.45 1999.99 L1465.45 1992.56 L1482.28 1992.56 L1482.28 1985.14 L1499.23 1985.14 L1499.23 1977.83 L1516.06 1977.83 L1516.06 1970.53 L1533.02 1970.53 L1533.02 1963.36 L1549.85 1963.36 L1549.85 1956.30 L1566.67 1956.30 L1566.67 1949.12 L1583.63 1949.12 L1583.63 1942.07 L1600.46 1942.07 L1600.46 1935.14 L1617.41 1935.14 L1617.41 1928.21 L1634.24 1928.21 L1634.24 1921.28 L1651.20 1921.28 L1651.20 1914.47 L1668.03 1914.47 L1668.03 1907.67 L1684.86 1907.67 L1684.86 1900.98 L1701.81 1900.98 L1701.81 1894.30 L1718.64 1894.30 L1718.64 1887.62 L1735.59 1887.62 L1735.59 1881.06 L1752.42 1881.06 L1752.42 1874.50 L1769.25 1874.50 L1769.25 1867.94 L1786.21 1867.94 L1786.21 1861.51 L1803.04 1861.51 L1803.04 1855.07 L1819.99 1855.07 L1819.99 1848.64 L1836.82 1848.64 L1836.82 1842.20 L1853.78 1842.20 L1853.78 1835.89 L1870.61 1835.89 L1870.61 1829.58 L1887.43 1829.58 L1887.43 1823.39 L1904.39 1823.39 L1904.39 1817.20 L1921.22 1817.20 L1921.22 1811.01 L1938.17 1811.01 L1938.17 1804.83 L1955.00 1804.83 L1955.00 1798.76 L1971.96 1798.76 L1971.96 1792.70 L1988.79 1792.70 L1988.79 1786.63 L2005.62 1786.63 L2005.62 1780.57 L2022.57 1780.57 L2022.57 1774.63 L2039.40 1774.63 L2039.40 1768.69 L2056.35 1768.69 L2056.35 1762.75 L2073.18 1762.75 L2073.18 1756.81 L2090.14 1756.81 L2090.14 1750.99 L2106.97 1750.99 L2106.97 1745.18 L2123.80 1745.18 L2123.80 1739.36 L2140.75 1739.36 L2140.75 1733.54 L2157.58 1733.54 L2157.58 1727.85 L2174.53 1727.85 L2174.53 1722.16 L2191.36 1722.16 L2191.36 1716.47 L2208.32 1716.47 L2208.32 1710.77 L2225.15 1710.77 L2225.15 1705.08 L2241.98 1705.08 L2241.98 1699.51 L2258.93 1699.51 L2258.93 1693.82 L2275.76 1693.82 L2275.76 1688.25 L2292.72 1688.25 L2292.72 1682.68 L2309.55 1682.68 L2309.55 1677.24 L2326.50 1677.24 L2326.50 1671.67 L2343.33 1671.67 L2343.33 1666.22 L2360.16 1666.22 L2360.16 1660.65 L2377.11 1660.65 L2377.11 1655.21 L2393.94 1655.21 L2393.94 1649.89 L2410.90 1649.89 L2410.90 1644.44 L2427.73 1644.44 L2427.73 1639.00 L2444.56 1639.00 L2444.56 1633.67 L2461.51 1633.67 L2461.51 1628.35 L2478.34 1628.35 L2478.34 1623.03 L2495.30 1623.03 L2495.30 1617.71 L2512.13 1617.71 L2512.13 1612.39 L2529.08 1612.39 L2529.08 1607.19 L2545.91 1607.19 L2545.91 1601.87 L2562.74 1601.87 L2562.74 1596.67 L2579.69 1596.67 L2579.69 1591.47 L2596.52 1591.47 L2596.52 1586.28 L2613.48 1586.28 L2613.48 1581.08 L2630.31 1581.08 L2630.31 1575.88 L2647.26 1575.88 L2647.26 1570.81 L2664.09 1570.81 L2664.09 1565.61 L2680.92 1565.61 L2680.92 1560.54 L2697.87 1560.54 L2697.87 1555.46 L2714.70 1555.46 L2714.70 1550.39 L2731.66 1550.39 L2731.66 1545.31 L2748.49 1545.31 L2748.49 1540.24 L2765.44 1540.24 L2765.44 1535.17 L2782.27 1535.17 L2782.27 1530.22 L2799.10 1530.22 L2799.10 1525.14 L2816.05 1525.14 L2816.05 1520.19 L2832.89 1520.19 L2832.89 1515.24 L2849.84 1515.24 L2849.84 1510.29 L2866.67 1510.29 L2866.67 1505.34 L2883.62 1505.34 L2883.62 1500.39 L2900.45 1500.39 L2900.45 1495.44 L2917.28 1495.44 L2917.28 1490.49 L2934.24 1490.49 L2934.24 1485.67 L2951.07 1485.67 L2951.07 1480.72 L2968.02 1480.72 L2968.02 1475.89 L2984.85 1475.89 L2984.85 1470.94 L3001.80 1470.94 L3001.80 1466.11 L3018.63 1466.11 L3018.63 1461.29 L3035.46 1461.29 L3035.46 1456.46 L3052.42 1456.46 L3052.42 1451.63 L3069.25 1451.63 L3069.25 1446.93 L3086.20 1446.93 L3086.20 1442.10 L3103.03 1442.10 L3103.03 1437.28 L3119.86 1437.28 L3119.86 1432.57 L3136.82 1432.57 L3136.82 1427.75 L3153.64 1427.75 L3153.64 1423.05 L3170.60 1423.05 L3170.60 1418.34 L3187.43 1418.34 L3187.43 1413.52 L3204.38 1413.52 L3204.38 1408.81 L3221.21 1408.81 L3221.21 1404.11 L3238.04 1404.11 L3238.04 1399.41 L3255.00 1399.41 L3255.00 1394.83 L3271.83 1394.83 L3271.83 1390.13 L3288.78 1390.13 L3288.78 1385.42 L3305.61 1385.42 L3305.61 1380.85 L3322.56 1380.85 L3322.56 1376.14 L3339.39 1376.14 L3339.39 1371.56 L3356.22 1371.56 L3356.22 1366.86 L3373.18 1366.86 L3373.18 1362.28 L3390.01 1362.28 L3390.01 1357.70 L3406.96 1357.70 L3406.96 1353.12 L3423.79 1353.12 L3423.79 1348.55 L3440.74 1348.55 L3440.74 1343.97 L3457.57 1343.97 L3457.57 1339.39 L3474.41 1339.39 L3474.41 1334.81 L3491.36 1334.81 L3491.36 1330.23 L3508.19 1330.23 L3508.19 1325.78 L3525.14 1325.78 L3525.14 1321.20 L3541.97 1321.20 L3541.97 1316.62 L3558.93 1316.62 L3558.93 1312.16 L3575.76 1312.16 L3575.76 1307.71 L3592.59 1307.71 L3592.59 1303.13 L3609.54 1303.13 L3609.54 1298.67 L3626.37 1298.67 L3626.37 1294.22 L3643.32 1294.22 L3643.32 1289.76 L3660.15 1289.76 L3660.15 1285.31 L3677.11 1285.31 L3677.11 1280.85 L3693.94 1280.85 L3693.94 1276.40 L3710.77 1276.40 L3710.77 1271.94 L3727.72 1271.94 L3727.72 1267.49 L3744.55 1267.49 L3744.55 1263.16 L3761.51 1263.16 L3761.51 1258.70 L3778.34 1258.70 L3778.34 1254.25 L3795.16 1254.25 L3795.16 1249.91" stroke-linejoin="round" style="fill:none;stroke:#000000;stroke-width:8.64"/>
	<line x1="553.29" y1="2509.23" x2="553.29" y2="419.90" style="stroke:#000000;stroke-width:5.76"/>
	<line x1="553.29" y1="2445.87" x2="513.32" y2="2445.87" style="stroke:#000000;stroke-width:5.76"/>
	<text x="493.27" y="2480.90" style="font-family:'Helvetica';font-size:99.99px;fill:#000000" text-anchor="end">0</text>
	<line x1="553.29" y1="2252.57" x2="513.32" y2="2252.57" style="stroke:#000000;stroke-width:5.76"/>
	<text x="493.27" y="2287.60" style="font-family:'Helvetica';font-size:99.99px;fill:#000000" text-anchor="end">180</text>
	<line x1="553.29" y1="2059.14" x2="513.32" y2="2059.14" style="stroke:#000000;stroke-width:5.76"/>
	<text x="493.27" y="2094.17" style="font-family:'Helvetica';font-size:99.99px;fill:#000000" text-anchor="end">360</text>
	<line x1="553.29" y1="1865.84" x2="513.32" y2="1865.84" style="stroke:#000000;stroke-width:5.76"/>
	<text x="493.27" y="1900.87" style="font-family:'Helvetica';font-size:99.99px;fill:#000000" text-anchor="end">540</text>
	<line x1="553.29" y1="1672.41" x2="513.32" y2="1672.41" style="stroke:#000000;stroke-width:5.76"/>
	<text x="493.27" y="1707.44" style="font-family:'Helvetica';font-size:99.99px;fill:#000000" text-anchor="end">720</text>
	<line x1="553.29" y1="1479.11" x2="513.32" y2="1479.11" style="stroke:#000000;stroke-width:5.76"/>
	<text x="493.27" y="1514.13" style="font-family:'Helvetica';font-size:99.99px;fill:#000000" text-anchor="end">900</text>
	<line x1="553.29" y1="1285.68" x2="513.32" y2="1285.68" style="stroke:#000000;stroke-width:5.76"/>
	<text x="493.27" y="1320.71" style="font-family:'Helvetica';font-size:99.99px;fill:#000000" text-anchor="end">1080</text>
	<line x1="553.29" y1="1092.38" x2="513.32" y2="1092.38" style="stroke:#000000;stroke-width:5.76"/>
	<text x="493.27" y="1127.40" style="font-family:'Helvetica';font-size:99.99px;fill:#000000" text-anchor="end">1260</text>
	<line x1="553.29" y1="898.95" x2="513.32" y2="898.95" style="stroke:#000000;stroke-width:5.76"/>
	<text x="493.27" y="933.98" style="font-family:'Helvetica';font-size:99.99px;fill:#000000" text-anchor="end">1440</text>
	<line x1="553.29" y1="705.64" x2="513.32" y2="705.64" style="stroke:#000000;stroke-width:5.76"/>
	<text x="493.27" y="740.67" style="font-family:'Helvetica';font-size:99.99px;fill:#000000" text-anchor="end">1620</text>
	<line x1="553.29" y1="512.34" x2="513.32" y2="512.34" style="stroke:#000000;stroke-width:5.76"/>
	<text x="493.27" y="547.37" style="font-family:'Helvetica';font-size:99.99px;fill:#000000" text-anchor="end">1800</text>
	<text x="190.71" y="1464.63" style="font-family:'Helvetica';font-size:99.99px;fill:#000000" transform="rotate(-90 190.71,1464.63)" text-anchor="middle">LOS (years)</text>
	<line x1="553.29" y1="2509.23" x2="3859.02" y2="2509.23" style="stroke:#000000;stroke-width:5.76"/>
	<line x1="616.65" y1="2509.23" x2="616.65" y2="2549.21" style="stroke:#000000;stroke-width:5.76"/>
	<text x="616.65" y="2625.15" style="font-family:'Helvetica';font-size:79.94px;fill:#000000" text-anchor="middle">0</text>
	<line x1="807.35" y1="2509.23" x2="807.35" y2="2549.21" style="stroke:#000000;stroke-width:5.76"/>
	<text x="807.35" y="2625.15" style="font-family:'Helvetica';font-size:79.94px;fill:#000000" text-anchor="middle">.3</text>
	<line x1="998.17" y1="2509.23" x2="998.17" y2="2549.21" style="stroke:#000000;stroke-width:5.76"/>
	<text x="998.17" y="2625.15" style="font-family:'Helvetica';font-size:79.94px;fill:#000000" text-anchor="middle">.6</text>
	<line x1="1188.87" y1="2509.23" x2="1188.87" y2="2549.21" style="stroke:#000000;stroke-width:5.76"/>
	<text x="1188.87" y="2625.15" style="font-family:'Helvetica';font-size:79.94px;fill:#000000" text-anchor="middle">.9</text>
	<line x1="1379.57" y1="2509.23" x2="1379.57" y2="2549.21" style="stroke:#000000;stroke-width:5.76"/>
	<text x="1379.57" y="2625.15" style="font-family:'Helvetica';font-size:79.94px;fill:#000000" text-anchor="middle">1.2</text>
	<line x1="1570.39" y1="2509.23" x2="1570.39" y2="2549.21" style="stroke:#000000;stroke-width:5.76"/>
	<text x="1570.39" y="2625.15" style="font-family:'Helvetica';font-size:79.94px;fill:#000000" text-anchor="middle">1.5</text>
	<line x1="1761.09" y1="2509.23" x2="1761.09" y2="2549.21" style="stroke:#000000;stroke-width:5.76"/>
	<text x="1761.09" y="2625.15" style="font-family:'Helvetica';font-size:79.94px;fill:#000000" text-anchor="middle">1.8</text>
	<line x1="1951.91" y1="2509.23" x2="1951.91" y2="2549.21" style="stroke:#000000;stroke-width:5.76"/>
	<text x="1951.91" y="2625.15" style="font-family:'Helvetica';font-size:79.94px;fill:#000000" text-anchor="middle">2.1</text>
	<line x1="2142.61" y1="2509.23" x2="2142.61" y2="2549.21" style="stroke:#000000;stroke-width:5.76"/>
	<text x="2142.61" y="2625.15" style="font-family:'Helvetica';font-size:79.94px;fill:#000000" text-anchor="middle">2.4</text>
	<line x1="2333.31" y1="2509.23" x2="2333.31" y2="2549.21" style="stroke:#000000;stroke-width:5.76"/>
	<text x="2333.31" y="2625.15" style="font-family:'Helvetica';font-size:79.94px;fill:#000000" text-anchor="middle">2.7</text>
	<line x1="2524.13" y1="2509.23" x2="2524.13" y2="2549.21" style="stroke:#000000;stroke-width:5.76"/>
	<text x="2524.13" y="2625.15" style="font-family:'Helvetica';font-size:79.94px;fill:#000000" text-anchor="middle">3</text>
	<line x1="2714.83" y1="2509.23" x2="2714.83" y2="2549.21" style="stroke:#000000;stroke-width:5.76"/>
	<text x="2714.83" y="2625.15" style="font-family:'Helvetica';font-size:79.94px;fill:#000000" text-anchor="middle">3.3</text>
	<line x1="2905.53" y1="2509.23" x2="2905.53" y2="2549.21" style="stroke:#000000;stroke-width:5.76"/>
	<text x="2905.53" y="2625.15" style="font-family:'Helvetica';font-size:79.94px;fill:#000000" text-anchor="middle">3.6</text>
	<line x1="3096.35" y1="2509.23" x2="3096.35" y2="2549.21" style="stroke:#000000;stroke-width:5.76"/>
	<text x="3096.35" y="2625.15" style="font-family:'Helvetica';font-size:79.94px;fill:#000000" text-anchor="middle">3.9</text>
	<line x1="3287.05" y1="2509.23" x2="3287.05" y2="2549.21" style="stroke:#000000;stroke-width:5.76"/>
	<text x="3287.05" y="2625.15" style="font-family:'Helvetica';font-size:79.94px;fill:#000000" text-anchor="middle">4.2</text>
	<line x1="3477.87" y1="2509.23" x2="3477.87" y2="2549.21" style="stroke:#000000;stroke-width:5.76"/>
	<text x="3477.87" y="2625.15" style="font-family:'Helvetica';font-size:79.94px;fill:#000000" text-anchor="middle">4.5</text>
	<line x1="3668.57" y1="2509.23" x2="3668.57" y2="2549.21" style="stroke:#000000;stroke-width:5.76"/>
	<text x="3668.57" y="2625.15" style="font-family:'Helvetica';font-size:79.94px;fill:#000000" text-anchor="middle">4.8</text>
	<line x1="3859.27" y1="2509.23" x2="3859.27" y2="2549.21" style="stroke:#000000;stroke-width:5.76"/>
	<text x="3859.27" y="2625.15" style="font-family:'Helvetica';font-size:79.94px;fill:#000000" text-anchor="middle">5.1</text>
	<text x="2206.22" y="2729.16" style="font-family:'Helvetica';font-size:99.99px;fill:#000000" text-anchor="middle">Time (years)</text>
	<rect x="587.81" y="454.42" width="1369.54" height="606.39" style="fill:#FFFFFF"/>
	<rect x="590.69" y="457.30" width="1363.78" height="600.63" style="fill:none;stroke:#000000;stroke-width:5.76"/>
	<rect x="631.00" y="497.74" width="374.47" height="99.99" style="fill:#999999;fill-opacity:0.35"/>
	<rect x="635.32" y="502.06" width="365.83" height="91.35" style="fill:none;stroke:#808080;stroke-opacity:0.35;stroke-width:8.64"/>
	<rect x="631.00" y="637.70" width="374.47" height="99.99" style="fill:#333333;fill-opacity:0.35"/>
	<rect x="635.32" y="642.02" width="365.83" height="91.35" style="fill:none;stroke:#000000;stroke-opacity:0.35;stroke-width:8.64"/>
	<line x1="631.00" y1="827.67" x2="671.34" y2="827.67" style="stroke:#808080;stroke-width:8.64"/>
	<line x1="688.54" y1="827.67" x2="728.89" y2="827.67" style="stroke:#808080;stroke-width:8.64"/>
	<line x1="746.09" y1="827.67" x2="786.43" y2="827.67" style="stroke:#808080;stroke-width:8.64"/>
	<line x1="803.76" y1="827.67" x2="843.98" y2="827.67" style="stroke:#808080;stroke-width:8.64"/>
	<line x1="861.30" y1="827.67" x2="901.64" y2="827.67" style="stroke:#808080;stroke-width:8.64"/>
	<line x1="918.84" y1="827.67" x2="959.19" y2="827.67" style="stroke:#808080;stroke-width:8.64"/>
	<line x1="976.39" y1="827.67" x2="1005.47" y2="827.67" style="stroke:#808080;stroke-width:8.64"/>
	<line x1="631.00" y1="967.63" x2="1005.47" y2="967.63" style="stroke:#000000;stroke-width:8.64"/>
	<text x="1065.36" y="582.76" style="font-family:'Helvetica';font-size:99.99px;fill:#000000">Outpatient CI95%</text>
	<text x="1065.36" y="722.73" style="font-family:'Helvetica';font-size:99.99px;fill:#000000">Residential CI95%</text>
	<text x="1065.36" y="862.69" style="font-family:'Helvetica';font-size:99.99px;fill:#000000">Outpatient</text>
	<text x="1065.36" y="1002.66" style="font-family:'Helvetica';font-size:99.99px;fill:#000000">Residential</text>
	<text x="2206.22" y="369.63" style="font-family:'Helvetica';font-size:110.01px;fill:#000000" text-anchor="middle">from 4th Readmission</text>
	<text x="2206.22" y="215.98" style="font-family:'Helvetica';font-size:139.96px;fill:#1E2D53" text-anchor="middle">Length of Stay (RP)</text>
</svg>
