<?xml version="1.0" encoding="UTF-8" standalone="no"?>
<!-- This is a Stata 16.1 generated SVG file (http://www.stata.com) -->

<svg version="1.1" width="5.50in" height="4.00in" viewBox="0 0 3960 2880" xmlns="http://www.w3.org/2000/svg" xmlns:xlink="http://www.w3.org/1999/xlink">
	<desc>Stata Graph - los_models45_rp</desc>
	<rect x="0" y="0" width="3960" height="2880" style="fill:#EAF2F3;stroke:none"/>
	<rect x="0.00" y="0.00" width="3959.88" height="2880.00" style="fill:#FFFFFF"/>
	<rect x="2.88" y="2.88" width="3954.12" height="2874.24" style="fill:none;stroke:#FFFFFF;stroke-width:5.76"/>
	<rect x="553.29" y="419.90" width="3305.73" height="2089.34" style="fill:#FFFFFF"/>
	<rect x="556.17" y="422.78" width="3299.97" height="2083.58" style="fill:none;stroke:#FFFFFF;stroke-width:5.76"/>
	<line x1="553.29" y1="2445.87" x2="3859.02" y2="2445.87" style="stroke:#EAF2F3;stroke-width:8.64"/>
	<line x1="553.29" y1="2282.27" x2="3859.02" y2="2282.27" style="stroke:#EAF2F3;stroke-width:8.64"/>
	<line x1="553.29" y1="2118.79" x2="3859.02" y2="2118.79" style="stroke:#EAF2F3;stroke-width:8.64"/>
	<line x1="553.29" y1="1955.19" x2="3859.02" y2="1955.19" style="stroke:#EAF2F3;stroke-width:8.64"/>
	<line x1="553.29" y1="1791.71" x2="3859.02" y2="1791.71" style="stroke:#EAF2F3;stroke-width:8.64"/>
	<line x1="553.29" y1="1628.11" x2="3859.02" y2="1628.11" style="stroke:#EAF2F3;stroke-width:8.64"/>
	<line x1="553.29" y1="1464.63" x2="3859.02" y2="1464.63" style="stroke:#EAF2F3;stroke-width:8.64"/>
	<line x1="553.29" y1="1301.02" x2="3859.02" y2="1301.02" style="stroke:#EAF2F3;stroke-width:8.64"/>
	<line x1="553.29" y1="1137.42" x2="3859.02" y2="1137.42" style="stroke:#EAF2F3;stroke-width:8.64"/>
	<line x1="553.29" y1="973.94" x2="3859.02" y2="973.94" style="stroke:#EAF2F3;stroke-width:8.64"/>
	<line x1="553.29" y1="810.34" x2="3859.02" y2="810.34" style="stroke:#EAF2F3;stroke-width:8.64"/>
	<line x1="553.29" y1="646.86" x2="3859.02" y2="646.86" style="stroke:#EAF2F3;stroke-width:8.64"/>
	<defs>
		<path id="path_ckLWUenH" d="M773.31 2444.51 L773.31 2444.51 L790.14 2444.51 L790.14 2444.02 L807.10 2444.02 L807.10 2443.52 L823.93 2443.52 L823.93 2443.03 L840.88 2443.03 L840.88 2442.41 L857.71 2442.41 L857.71 2441.79 L874.54 2441.79 L874.54 2441.05 L891.50 2441.05 L891.50 2440.18 L908.33 2440.18 L908.33 2439.31 L925.28 2439.31 L925.28 2438.32 L942.11 2438.32 L942.11 2437.33 L959.06 2437.33 L959.06 2436.22 L975.89 2436.22 L975.89 2434.98 L992.72 2434.98 L992.72 2433.74 L1009.68 2433.74 L1009.68 2432.38 L1026.51 2432.38 L1026.51 2431.02 L1043.46 2431.02 L1043.46 2429.41 L1060.29 2429.41 L1060.29 2427.93 L1077.24 2427.93 L1077.24 2426.19 L1094.07 2426.19 L1094.07 2424.46 L1110.90 2424.46 L1110.90 2422.61 L1127.86 2422.61 L1127.86 2420.63 L1144.69 2420.63 L1144.69 2418.65 L1161.64 2418.65 L1161.64 2416.54 L1178.47 2416.54 L1178.47 2414.31 L1195.42 2414.31 L1195.42 2412.09 L1212.26 2412.09 L1212.26 2409.74 L1229.09 2409.74 L1229.09 2407.26 L1246.04 2407.26 L1246.04 2404.66 L1262.87 2404.66 L1262.87 2402.06 L1279.82 2402.06 L1279.82 2399.34 L1296.65 2399.34 L1296.65 2396.49 L1313.61 2396.49 L1313.61 2393.65 L1330.44 2393.65 L1330.44 2390.68 L1347.27 2390.68 L1347.27 2387.58 L1364.22 2387.58 L1364.22 2384.37 L1381.05 2384.37 L1381.05 2381.15 L1398.00 2381.15 L1398.00 2377.81 L1414.83 2377.81 L1414.83 2374.47 L1431.66 2374.47 L1431.66 2371.00 L1448.62 2371.00 L1448.62 2367.41 L1465.45 2367.41 L1465.45 2363.70 L1482.40 2363.70 L1482.40 2359.99 L1499.23 2359.99 L1499.23 2356.15 L1516.18 2356.15 L1516.18 2352.31 L1533.02 2352.31 L1533.02 2348.35 L1549.85 2348.35 L1549.85 2344.27 L1566.80 2344.27 L1566.80 2340.19 L1583.63 2340.19 L1583.63 2336.10 L1600.58 2336.10 L1600.58 2331.89 L1617.41 2331.89 L1617.41 2327.56 L1634.37 2327.56 L1634.37 2323.11 L1651.20 2323.11 L1651.20 2318.78 L1668.03 2318.78 L1668.03 2314.20 L1684.98 2314.20 L1684.98 2309.62 L1701.81 2309.62 L1701.81 2305.04 L1718.76 2305.04 L1718.76 2300.34 L1735.59 2300.34 L1735.59 2295.63 L1752.55 2295.63 L1752.55 2290.81 L1769.38 2290.81 L1769.38 2285.98 L1786.21 2285.98 L1786.21 2281.03 L1803.16 2281.03 L1803.16 2276.08 L1819.99 2276.08 L1819.99 2271.13 L1836.94 2271.13 L1836.94 2265.93 L1853.78 2265.93 L1853.78 2260.86 L1870.73 2260.86 L1870.73 2255.66 L1887.56 2255.66 L1887.56 2250.46 L1904.39 2250.46 L1904.39 2245.14 L1921.34 2245.14 L1921.34 2239.82 L1938.17 2239.82 L1938.17 2234.38 L1955.13 2234.38 L1955.13 2229.05 L1971.96 2229.05 L1971.96 2223.49 L1988.91 2223.49 L1988.91 2218.04 L2005.74 2218.04 L2005.74 2212.47 L2022.57 2212.47 L2022.57 2206.78 L2039.52 2206.78 L2039.52 2201.21 L2056.35 2201.21 L2056.35 2195.52 L2073.31 2195.52 L2073.31 2189.70 L2090.14 2189.70 L2090.14 2184.01 L2106.97 2184.01 L2106.97 2178.19 L2123.92 2178.19 L2123.92 2172.25 L2140.75 2172.25 L2140.75 2166.44 L2157.70 2166.44 L2157.70 2160.50 L2174.53 2160.50 L2174.53 2154.55 L2191.49 2154.55 L2191.49 2148.49 L2208.32 2148.49 L2208.32 2142.43 L2225.15 2142.43 L2225.15 2136.36 L2242.10 2136.36 L2242.10 2130.30 L2258.93 2130.30 L2258.93 2124.11 L2275.89 2124.11 L2275.89 2117.92 L2292.72 2117.92 L2292.72 2111.74 L2309.67 2111.74 L2309.67 2105.42 L2326.50 2105.42 L2326.50 2099.11 L2343.33 2099.11 L2343.33 2092.80 L2360.28 2092.80 L2360.28 2086.49 L2377.11 2086.49 L2377.11 2080.06 L2394.07 2080.06 L2394.07 2073.62 L2410.90 2073.62 L2410.90 2067.18 L2427.85 2067.18 L2427.85 2060.75 L2444.68 2060.75 L2444.68 2054.31 L2461.51 2054.31 L2461.51 2047.76 L2478.47 2047.76 L2478.47 2041.20 L2495.30 2041.20 L2495.30 2034.64 L2512.25 2034.64 L2512.25 2027.95 L2529.08 2027.95 L2529.08 2021.40 L2546.03 2021.40 L2546.03 2014.71 L2562.86 2014.71 L2562.86 2008.03 L2579.69 2008.03 L2579.69 2001.22 L2596.65 2001.22 L2596.65 1994.54 L2613.48 1994.54 L2613.48 1987.73 L2630.43 1987.73 L2630.43 1980.93 L2647.26 1980.93 L2647.26 1974.12 L2664.21 1974.12 L2664.21 1967.32 L2681.04 1967.32 L2681.04 1960.39 L2697.87 1960.39 L2697.87 1953.45 L2714.83 1953.45 L2714.83 1946.65 L2731.66 1946.65 L2731.66 1939.59 L2748.61 1939.59 L2748.61 1932.66 L2765.44 1932.66 L2765.44 1925.73 L2782.27 1925.73 L2782.27 1918.68 L2799.22 1918.68 L2799.22 1911.63 L2816.05 1911.63 L2816.05 1904.57 L2833.01 1904.57 L2833.01 1897.52 L2849.84 1897.52 L2849.84 1890.34 L2866.79 1890.34 L2866.79 1883.29 L2883.62 1883.29 L2883.62 1876.11 L2900.45 1876.11 L2900.45 1868.93 L2917.41 1868.93 L2917.41 1861.75 L2934.24 1861.75 L2934.24 1854.58 L2951.19 1854.58 L2951.19 1847.27 L2968.02 1847.27 L2968.02 1840.10 L2984.97 1840.10 L2984.97 1832.79 L3001.80 1832.79 L3001.80 1825.49 L3018.63 1825.49 L3018.63 1818.19 L3035.59 1818.19 L3035.59 1810.89 L3052.42 1810.89 L3052.42 1803.59 L3069.37 1803.59 L3069.37 1796.16 L3086.20 1796.16 L3086.20 1788.74 L3103.16 1788.74 L3103.16 1781.44 L3119.99 1781.44 L3119.99 1774.01 L3136.82 1774.01 L3136.82 1766.59 L3153.77 1766.59 L3153.77 1759.16 L3170.60 1759.16 L3170.60 1751.61 L3187.55 1751.61 L3187.55 1744.19 L3204.38 1744.19 L3204.38 1736.64 L3221.34 1736.64 L3221.34 1729.09 L3238.17 1729.09 L3238.17 1721.54 L3255.00 1721.54 L3255.00 1713.99 L3271.95 1713.99 L3271.95 1706.44 L3288.78 1706.44 L3288.78 1698.77 L3305.73 1698.77 L3305.73 1691.22 L3322.56 1691.22 L3322.56 1683.55 L3339.52 1683.55 L3339.52 1675.87 L3356.35 1675.87 L3356.35 1668.33 L3373.18 1668.33 L3373.18 1660.65 L3390.13 1660.65 L3390.13 1652.86 L3406.96 1652.86 L3406.96 1645.18 L3423.91 1645.18 L3423.91 1637.51 L3440.74 1637.51 L3440.74 1629.71 L3457.57 1629.71 L3457.57 1622.04 L3474.53 1622.04 L3474.53 1614.25 L3491.36 1614.25 L3491.36 1606.45 L3508.31 1606.45 L3508.31 1598.65 L3525.14 1598.65 L3525.14 1590.86 L3542.10 1590.86 L3542.10 1583.06 L3558.93 1583.06 L3558.93 1575.14 L3575.76 1575.14 L3575.76 1567.34 L3592.71 1567.34 L3592.71 1559.42 L3609.54 1559.42 L3609.54 1551.63 L3626.49 1551.63 L3626.49 1543.71 L3643.32 1543.71 L3643.32 1535.79 L3660.28 1535.79 L3660.28 1527.87 L3677.11 1527.87 L3677.11 1519.94 L3693.94 1519.94 L3693.94 1512.02 L3710.89 1512.02 L3710.89 1504.10 L3727.72 1504.10 L3727.72 1496.06 L3744.68 1496.06 L3744.68 1488.14 L3761.51 1488.14 L3761.51 1480.10 L3778.46 1480.10 L3778.46 1472.18 L3795.29 1472.18 L3795.29 1464.13 L3795.29 745.74 L3795.29 758.61 L3778.46 758.61 L3778.46 771.48 L3761.51 771.48 L3761.51 784.23 L3744.68 784.23 L3744.68 797.10 L3727.72 797.10 L3727.72 809.85 L3710.89 809.85 L3710.89 822.59 L3693.94 822.59 L3693.94 835.46 L3677.11 835.46 L3677.11 848.09 L3660.28 848.09 L3660.28 860.83 L3643.32 860.83 L3643.32 873.58 L3626.49 873.58 L3626.49 886.33 L3609.54 886.33 L3609.54 898.95 L3592.71 898.95 L3592.71 911.69 L3575.76 911.69 L3575.76 924.32 L3558.93 924.32 L3558.93 936.94 L3542.10 936.94 L3542.10 949.56 L3525.14 949.56 L3525.14 962.19 L3508.31 962.19 L3508.31 974.81 L3491.36 974.81 L3491.36 987.43 L3474.53 987.43 L3474.53 999.93 L3457.57 999.93 L3457.57 1012.55 L3440.74 1012.55 L3440.74 1025.05 L3423.91 1025.05 L3423.91 1037.55 L3406.96 1037.55 L3406.96 1050.05 L3390.13 1050.05 L3390.13 1062.55 L3373.18 1062.55 L3373.18 1075.05 L3356.35 1075.05 L3356.35 1087.55 L3339.52 1087.55 L3339.52 1099.92 L3322.56 1099.92 L3322.56 1112.42 L3305.73 1112.42 L3305.73 1124.80 L3288.78 1124.80 L3288.78 1137.17 L3271.95 1137.17 L3271.95 1149.55 L3255.00 1149.55 L3255.00 1161.93 L3238.17 1161.93 L3238.17 1174.30 L3221.34 1174.30 L3221.34 1186.55 L3204.38 1186.55 L3204.38 1198.93 L3187.55 1198.93 L3187.55 1211.18 L3170.60 1211.18 L3170.60 1223.43 L3153.77 1223.43 L3153.77 1235.56 L3136.82 1235.56 L3136.82 1247.81 L3119.99 1247.81 L3119.99 1260.06 L3103.16 1260.06 L3103.16 1272.19 L3086.20 1272.19 L3086.20 1284.32 L3069.37 1284.32 L3069.37 1296.45 L3052.42 1296.45 L3052.42 1308.57 L3035.59 1308.57 L3035.59 1320.58 L3018.63 1320.58 L3018.63 1332.71 L3001.80 1332.71 L3001.80 1344.71 L2984.97 1344.71 L2984.97 1356.71 L2968.02 1356.71 L2968.02 1368.72 L2951.19 1368.72 L2951.19 1380.72 L2934.24 1380.72 L2934.24 1392.73 L2917.41 1392.73 L2917.41 1404.61 L2900.45 1404.61 L2900.45 1416.49 L2883.62 1416.49 L2883.62 1428.49 L2866.79 1428.49 L2866.79 1440.25 L2849.84 1440.25 L2849.84 1452.13 L2833.01 1452.13 L2833.01 1464.01 L2816.05 1464.01 L2816.05 1475.76 L2799.22 1475.76 L2799.22 1487.52 L2782.27 1487.52 L2782.27 1499.28 L2765.44 1499.28 L2765.44 1511.03 L2748.61 1511.03 L2748.61 1522.67 L2731.66 1522.67 L2731.66 1534.30 L2714.83 1534.30 L2714.83 1545.93 L2697.87 1545.93 L2697.87 1557.57 L2681.04 1557.57 L2681.04 1569.08 L2664.21 1569.08 L2664.21 1580.71 L2647.26 1580.71 L2647.26 1592.22 L2630.43 1592.22 L2630.43 1603.73 L2613.48 1603.73 L2613.48 1615.11 L2596.65 1615.11 L2596.65 1626.50 L2579.69 1626.50 L2579.69 1638.01 L2562.86 1638.01 L2562.86 1649.27 L2546.03 1649.27 L2546.03 1660.65 L2529.08 1660.65 L2529.08 1671.91 L2512.25 1671.91 L2512.25 1683.18 L2495.30 1683.18 L2495.30 1694.44 L2478.47 1694.44 L2478.47 1705.58 L2461.51 1705.58 L2461.51 1716.71 L2444.68 1716.71 L2444.68 1727.85 L2427.85 1727.85 L2427.85 1738.99 L2410.90 1738.99 L2410.90 1750.00 L2394.07 1750.00 L2394.07 1761.02 L2377.11 1761.02 L2377.11 1772.03 L2360.28 1772.03 L2360.28 1782.92 L2343.33 1782.92 L2343.33 1793.94 L2326.50 1793.94 L2326.50 1804.83 L2309.67 1804.83 L2309.67 1815.59 L2292.72 1815.59 L2292.72 1826.36 L2275.89 1826.36 L2275.89 1837.13 L2258.93 1837.13 L2258.93 1847.89 L2242.10 1847.89 L2242.10 1858.54 L2225.15 1858.54 L2225.15 1869.05 L2208.32 1869.05 L2208.32 1879.70 L2191.49 1879.70 L2191.49 1890.09 L2174.53 1890.09 L2174.53 1900.61 L2157.70 1900.61 L2157.70 1911.01 L2140.75 1911.01 L2140.75 1921.40 L2123.92 1921.40 L2123.92 1931.67 L2106.97 1931.67 L2106.97 1941.95 L2090.14 1941.95 L2090.14 1952.09 L2073.31 1952.09 L2073.31 1962.24 L2056.35 1962.24 L2056.35 1972.39 L2039.52 1972.39 L2039.52 1982.41 L2022.57 1982.41 L2022.57 1992.31 L2005.74 1992.31 L2005.74 2002.34 L1988.91 2002.34 L1988.91 2012.11 L1971.96 2012.11 L1971.96 2021.89 L1955.13 2021.89 L1955.13 2031.67 L1938.17 2031.67 L1938.17 2041.32 L1921.34 2041.32 L1921.34 2050.85 L1904.39 2050.85 L1904.39 2060.38 L1887.56 2060.38 L1887.56 2069.91 L1870.73 2069.91 L1870.73 2079.31 L1853.78 2079.31 L1853.78 2088.59 L1836.94 2088.59 L1836.94 2097.88 L1819.99 2097.88 L1819.99 2107.03 L1803.16 2107.03 L1803.16 2116.07 L1786.21 2116.07 L1786.21 2125.10 L1769.38 2125.10 L1769.38 2133.89 L1752.55 2133.89 L1752.55 2142.80 L1735.59 2142.80 L1735.59 2151.46 L1718.76 2151.46 L1718.76 2160.12 L1701.81 2160.12 L1701.81 2168.66 L1684.98 2168.66 L1684.98 2177.20 L1668.03 2177.20 L1668.03 2185.49 L1651.20 2185.49 L1651.20 2193.78 L1634.37 2193.78 L1634.37 2201.95 L1617.41 2201.95 L1617.41 2210.12 L1600.58 2210.12 L1600.58 2218.04 L1583.63 2218.04 L1583.63 2225.96 L1566.80 2225.96 L1566.80 2233.63 L1549.85 2233.63 L1549.85 2241.31 L1533.02 2241.31 L1533.02 2248.86 L1516.18 2248.86 L1516.18 2256.28 L1499.23 2256.28 L1499.23 2263.58 L1482.40 2263.58 L1482.40 2270.88 L1465.45 2270.88 L1465.45 2277.94 L1448.62 2277.94 L1448.62 2284.87 L1431.66 2284.87 L1431.66 2291.67 L1414.83 2291.67 L1414.83 2298.36 L1398.00 2298.36 L1398.00 2304.92 L1381.05 2304.92 L1381.05 2311.35 L1364.22 2311.35 L1364.22 2317.66 L1347.27 2317.66 L1347.27 2323.73 L1330.44 2323.73 L1330.44 2329.67 L1313.61 2329.67 L1313.61 2335.61 L1296.65 2335.61 L1296.65 2341.30 L1279.82 2341.30 L1279.82 2346.87 L1262.87 2346.87 L1262.87 2352.19 L1246.04 2352.19 L1246.04 2357.51 L1229.09 2357.51 L1229.09 2362.59 L1212.26 2362.59 L1212.26 2367.54 L1195.42 2367.54 L1195.42 2372.36 L1178.47 2372.36 L1178.47 2376.94 L1161.64 2376.94 L1161.64 2381.52 L1144.69 2381.52 L1144.69 2385.85 L1127.86 2385.85 L1127.86 2389.93 L1110.90 2389.93 L1110.90 2394.02 L1094.07 2394.02 L1094.07 2397.73 L1077.24 2397.73 L1077.24 2401.44 L1060.29 2401.44 L1060.29 2405.03 L1043.46 2405.03 L1043.46 2408.37 L1026.51 2408.37 L1026.51 2411.59 L1009.68 2411.59 L1009.68 2414.69 L992.72 2414.69 L992.72 2417.53 L975.89 2417.53 L975.89 2420.25 L959.06 2420.25 L959.06 2422.85 L942.11 2422.85 L942.11 2425.33 L925.28 2425.33 L925.28 2427.56 L908.33 2427.56 L908.33 2429.78 L891.50 2429.78 L891.50 2431.76 L874.54 2431.76 L874.54 2433.62 L857.71 2433.62 L857.71 2435.23 L840.88 2435.23 L840.88 2436.84 L823.93 2436.84 L823.93 2438.32 L807.10 2438.32 L807.10 2439.56 L790.14 2439.56 L790.14 2440.67 L773.31 2440.67 L773.31 2444.51 Z" stroke-linejoin="round"/>
	</defs>
	<defs>
		<clipPath id="clipPath_qRdjvilu">
			<use xlink:href="#path_ckLWUenH"/>
		</clipPath>
	</defs>
	<use xlink:href="#path_ckLWUenH" style="stroke:none;fill:#999999;fill-opacity:0.35"/>
	<use xlink:href="#path_ckLWUenH" style="fill:none;stroke:#808080;stroke-opacity:0.35;stroke-width:17.28" clip-path="url(#clipPath_qRdjvilu)"/>
	<defs>
		<path id="path_yFzZOggM" d="M773.31 2444.26 L773.31 2444.26 L790.14 2444.26 L790.14 2443.77 L807.10 2443.77 L807.10 2443.27 L823.93 2443.27 L823.93 2442.65 L840.88 2442.65 L840.88 2441.91 L857.71 2441.91 L857.71 2441.17 L874.54 2441.17 L874.54 2440.30 L891.50 2440.30 L891.50 2439.44 L908.33 2439.44 L908.33 2438.32 L925.28 2438.32 L925.28 2437.33 L942.11 2437.33 L942.11 2436.09 L959.06 2436.09 L959.06 2434.86 L975.89 2434.86 L975.89 2433.50 L992.72 2433.50 L992.72 2432.01 L1009.68 2432.01 L1009.68 2430.53 L1026.51 2430.53 L1026.51 2428.79 L1043.46 2428.79 L1043.46 2427.18 L1060.29 2427.18 L1060.29 2425.33 L1077.24 2425.33 L1077.24 2423.35 L1094.07 2423.35 L1094.07 2421.37 L1110.90 2421.37 L1110.90 2419.26 L1127.86 2419.26 L1127.86 2417.04 L1144.69 2417.04 L1144.69 2414.81 L1161.64 2414.81 L1161.64 2412.33 L1178.47 2412.33 L1178.47 2409.86 L1195.42 2409.86 L1195.42 2407.26 L1212.26 2407.26 L1212.26 2404.54 L1229.09 2404.54 L1229.09 2401.82 L1246.04 2401.82 L1246.04 2398.84 L1262.87 2398.84 L1262.87 2395.87 L1279.82 2395.87 L1279.82 2392.78 L1296.65 2392.78 L1296.65 2389.56 L1313.61 2389.56 L1313.61 2386.35 L1330.44 2386.35 L1330.44 2382.88 L1347.27 2382.88 L1347.27 2379.42 L1364.22 2379.42 L1364.22 2375.83 L1381.05 2375.83 L1381.05 2372.11 L1398.00 2372.11 L1398.00 2368.40 L1414.83 2368.40 L1414.83 2364.57 L1431.66 2364.57 L1431.66 2360.61 L1448.62 2360.61 L1448.62 2356.52 L1465.45 2356.52 L1465.45 2352.44 L1482.40 2352.44 L1482.40 2348.23 L1499.23 2348.23 L1499.23 2344.02 L1516.18 2344.02 L1516.18 2339.57 L1533.02 2339.57 L1533.02 2335.11 L1549.85 2335.11 L1549.85 2330.66 L1566.80 2330.66 L1566.80 2326.08 L1583.63 2326.08 L1583.63 2321.38 L1600.58 2321.38 L1600.58 2316.55 L1617.41 2316.55 L1617.41 2311.72 L1634.37 2311.72 L1634.37 2306.90 L1651.20 2306.90 L1651.20 2301.95 L1668.03 2301.95 L1668.03 2296.87 L1684.98 2296.87 L1684.98 2291.67 L1701.81 2291.67 L1701.81 2286.60 L1718.76 2286.60 L1718.76 2281.28 L1735.59 2281.28 L1735.59 2275.96 L1752.55 2275.96 L1752.55 2270.51 L1769.38 2270.51 L1769.38 2265.07 L1786.21 2265.07 L1786.21 2259.62 L1803.16 2259.62 L1803.16 2254.05 L1819.99 2254.05 L1819.99 2248.48 L1836.94 2248.48 L1836.94 2242.79 L1853.78 2242.79 L1853.78 2236.97 L1870.73 2236.97 L1870.73 2231.16 L1887.56 2231.16 L1887.56 2225.34 L1904.39 2225.34 L1904.39 2219.40 L1921.34 2219.40 L1921.34 2213.46 L1938.17 2213.46 L1938.17 2207.52 L1955.13 2207.52 L1955.13 2201.46 L1971.96 2201.46 L1971.96 2195.27 L1988.91 2195.27 L1988.91 2189.21 L2005.74 2189.21 L2005.74 2183.02 L2022.57 2183.02 L2022.57 2176.71 L2039.52 2176.71 L2039.52 2170.40 L2056.35 2170.40 L2056.35 2164.08 L2073.31 2164.08 L2073.31 2157.65 L2090.14 2157.65 L2090.14 2151.21 L2106.97 2151.21 L2106.97 2144.78 L2123.92 2144.78 L2123.92 2138.22 L2140.75 2138.22 L2140.75 2131.66 L2157.70 2131.66 L2157.70 2124.98 L2174.53 2124.98 L2174.53 2118.42 L2191.49 2118.42 L2191.49 2111.74 L2208.32 2111.74 L2208.32 2104.93 L2225.15 2104.93 L2225.15 2098.25 L2242.10 2098.25 L2242.10 2091.44 L2258.93 2091.44 L2258.93 2084.63 L2275.89 2084.63 L2275.89 2077.70 L2292.72 2077.70 L2292.72 2070.77 L2309.67 2070.77 L2309.67 2063.84 L2326.50 2063.84 L2326.50 2056.91 L2343.33 2056.91 L2343.33 2049.86 L2360.28 2049.86 L2360.28 2042.81 L2377.11 2042.81 L2377.11 2035.75 L2394.07 2035.75 L2394.07 2028.57 L2410.90 2028.57 L2410.90 2021.52 L2427.85 2021.52 L2427.85 2014.34 L2444.68 2014.34 L2444.68 2007.04 L2461.51 2007.04 L2461.51 1999.86 L2478.47 1999.86 L2478.47 1992.56 L2495.30 1992.56 L2495.30 1985.26 L2512.25 1985.26 L2512.25 1977.96 L2529.08 1977.96 L2529.08 1970.53 L2546.03 1970.53 L2546.03 1963.11 L2562.86 1963.11 L2562.86 1955.68 L2579.69 1955.68 L2579.69 1948.26 L2596.65 1948.26 L2596.65 1940.83 L2613.48 1940.83 L2613.48 1933.28 L2630.43 1933.28 L2630.43 1925.73 L2647.26 1925.73 L2647.26 1918.18 L2664.21 1918.18 L2664.21 1910.64 L2681.04 1910.64 L2681.04 1902.96 L2697.87 1902.96 L2697.87 1895.41 L2714.83 1895.41 L2714.83 1887.74 L2731.66 1887.74 L2731.66 1880.07 L2748.61 1880.07 L2748.61 1872.27 L2765.44 1872.27 L2765.44 1864.60 L2782.27 1864.60 L2782.27 1856.80 L2799.22 1856.80 L2799.22 1849.01 L2816.05 1849.01 L2816.05 1841.21 L2833.01 1841.21 L2833.01 1833.29 L2849.84 1833.29 L2849.84 1825.49 L2866.79 1825.49 L2866.79 1817.57 L2883.62 1817.57 L2883.62 1809.65 L2900.45 1809.65 L2900.45 1801.73 L2917.41 1801.73 L2917.41 1793.81 L2934.24 1793.81 L2934.24 1785.77 L2951.19 1785.77 L2951.19 1777.85 L2968.02 1777.85 L2968.02 1769.80 L2984.97 1769.80 L2984.97 1761.76 L3001.80 1761.76 L3001.80 1753.72 L3018.63 1753.72 L3018.63 1745.67 L3035.59 1745.67 L3035.59 1737.50 L3052.42 1737.50 L3052.42 1729.46 L3069.37 1729.46 L3069.37 1721.29 L3086.20 1721.29 L3086.20 1713.12 L3103.16 1713.12 L3103.16 1704.96 L3119.99 1704.96 L3119.99 1696.79 L3136.82 1696.79 L3136.82 1688.50 L3153.77 1688.50 L3153.77 1680.33 L3170.60 1680.33 L3170.60 1672.04 L3187.55 1672.04 L3187.55 1663.75 L3204.38 1663.75 L3204.38 1655.46 L3221.34 1655.46 L3221.34 1647.16 L3238.17 1647.16 L3238.17 1638.87 L3255.00 1638.87 L3255.00 1630.46 L3271.95 1630.46 L3271.95 1622.17 L3288.78 1622.17 L3288.78 1613.75 L3305.73 1613.75 L3305.73 1605.34 L3322.56 1605.34 L3322.56 1596.92 L3339.52 1596.92 L3339.52 1588.50 L3356.35 1588.50 L3356.35 1580.09 L3373.18 1580.09 L3373.18 1571.55 L3390.13 1571.55 L3390.13 1563.14 L3406.96 1563.14 L3406.96 1554.60 L3423.91 1554.60 L3423.91 1546.06 L3440.74 1546.06 L3440.74 1537.52 L3457.57 1537.52 L3457.57 1528.98 L3474.53 1528.98 L3474.53 1520.44 L3491.36 1520.44 L3491.36 1511.90 L3508.31 1511.90 L3508.31 1503.24 L3525.14 1503.24 L3525.14 1494.70 L3542.10 1494.70 L3542.10 1486.04 L3558.93 1486.04 L3558.93 1477.37 L3575.76 1477.37 L3575.76 1468.71 L3592.71 1468.71 L3592.71 1460.05 L3609.54 1460.05 L3609.54 1451.39 L3626.49 1451.39 L3626.49 1442.72 L3643.32 1442.72 L3643.32 1433.94 L3660.28 1433.94 L3660.28 1425.27 L3677.11 1425.27 L3677.11 1416.49 L3693.94 1416.49 L3693.94 1407.70 L3710.89 1407.70 L3710.89 1398.91 L3727.72 1398.91 L3727.72 1390.13 L3744.68 1390.13 L3744.68 1381.34 L3761.51 1381.34 L3761.51 1372.55 L3778.46 1372.55 L3778.46 1363.64 L3795.29 1363.64 L3795.29 1354.86 L3795.29 687.08 L3795.29 700.20 L3778.46 700.20 L3778.46 713.44 L3761.51 713.44 L3761.51 726.56 L3744.68 726.56 L3744.68 739.80 L3727.72 739.80 L3727.72 752.92 L3710.89 752.92 L3710.89 766.04 L3693.94 766.04 L3693.94 779.15 L3677.11 779.15 L3677.11 792.27 L3660.28 792.27 L3660.28 805.27 L3643.32 805.27 L3643.32 818.38 L3626.49 818.38 L3626.49 831.38 L3609.54 831.38 L3609.54 844.50 L3592.71 844.50 L3592.71 857.49 L3575.76 857.49 L3575.76 870.48 L3558.93 870.48 L3558.93 883.48 L3542.10 883.48 L3542.10 896.47 L3525.14 896.47 L3525.14 909.47 L3508.31 909.47 L3508.31 922.46 L3491.36 922.46 L3491.36 935.33 L3474.53 935.33 L3474.53 948.33 L3457.57 948.33 L3457.57 961.20 L3440.74 961.20 L3440.74 974.07 L3423.91 974.07 L3423.91 986.94 L3406.96 986.94 L3406.96 999.81 L3390.13 999.81 L3390.13 1012.55 L3373.18 1012.55 L3373.18 1025.42 L3356.35 1025.42 L3356.35 1038.17 L3339.52 1038.17 L3339.52 1051.04 L3322.56 1051.04 L3322.56 1063.79 L3305.73 1063.79 L3305.73 1076.53 L3288.78 1076.53 L3288.78 1089.28 L3271.95 1089.28 L3271.95 1102.03 L3255.00 1102.03 L3255.00 1114.65 L3238.17 1114.65 L3238.17 1127.40 L3221.34 1127.40 L3221.34 1140.02 L3204.38 1140.02 L3204.38 1152.64 L3187.55 1152.64 L3187.55 1165.27 L3170.60 1165.27 L3170.60 1177.89 L3153.77 1177.89 L3153.77 1190.51 L3136.82 1190.51 L3136.82 1203.01 L3119.99 1203.01 L3119.99 1215.63 L3103.16 1215.63 L3103.16 1228.13 L3086.20 1228.13 L3086.20 1240.63 L3069.37 1240.63 L3069.37 1253.13 L3052.42 1253.13 L3052.42 1265.63 L3035.59 1265.63 L3035.59 1278.01 L3018.63 1278.01 L3018.63 1290.51 L3001.80 1290.51 L3001.80 1302.88 L2984.97 1302.88 L2984.97 1315.26 L2968.02 1315.26 L2968.02 1327.63 L2951.19 1327.63 L2951.19 1340.01 L2934.24 1340.01 L2934.24 1352.26 L2917.41 1352.26 L2917.41 1364.63 L2900.45 1364.63 L2900.45 1376.89 L2883.62 1376.89 L2883.62 1389.14 L2866.79 1389.14 L2866.79 1401.39 L2849.84 1401.39 L2849.84 1413.64 L2833.01 1413.64 L2833.01 1425.77 L2816.05 1425.77 L2816.05 1437.90 L2799.22 1437.90 L2799.22 1450.02 L2782.27 1450.02 L2782.27 1462.15 L2765.44 1462.15 L2765.44 1474.28 L2748.61 1474.28 L2748.61 1486.41 L2731.66 1486.41 L2731.66 1498.41 L2714.83 1498.41 L2714.83 1510.42 L2697.87 1510.42 L2697.87 1522.30 L2681.04 1522.30 L2681.04 1534.30 L2664.21 1534.30 L2664.21 1546.18 L2647.26 1546.18 L2647.26 1558.06 L2630.43 1558.06 L2630.43 1569.94 L2613.48 1569.94 L2613.48 1581.70 L2596.65 1581.70 L2596.65 1593.58 L2579.69 1593.58 L2579.69 1605.34 L2562.86 1605.34 L2562.86 1616.97 L2546.03 1616.97 L2546.03 1628.72 L2529.08 1628.72 L2529.08 1640.36 L2512.25 1640.36 L2512.25 1651.99 L2495.30 1651.99 L2495.30 1663.62 L2478.47 1663.62 L2478.47 1675.26 L2461.51 1675.26 L2461.51 1686.77 L2444.68 1686.77 L2444.68 1698.27 L2427.85 1698.27 L2427.85 1709.78 L2410.90 1709.78 L2410.90 1721.17 L2394.07 1721.17 L2394.07 1732.55 L2377.11 1732.55 L2377.11 1743.94 L2360.28 1743.94 L2360.28 1755.20 L2343.33 1755.20 L2343.33 1766.46 L2326.50 1766.46 L2326.50 1777.72 L2309.67 1777.72 L2309.67 1788.99 L2292.72 1788.99 L2292.72 1800.12 L2275.89 1800.12 L2275.89 1811.14 L2258.93 1811.14 L2258.93 1822.28 L2242.10 1822.28 L2242.10 1833.29 L2225.15 1833.29 L2225.15 1844.18 L2208.32 1844.18 L2208.32 1855.19 L2191.49 1855.19 L2191.49 1866.08 L2174.53 1866.08 L2174.53 1876.85 L2157.70 1876.85 L2157.70 1887.62 L2140.75 1887.62 L2140.75 1898.38 L2123.92 1898.38 L2123.92 1909.03 L2106.97 1909.03 L2106.97 1919.79 L2090.14 1919.79 L2090.14 1930.31 L2073.31 1930.31 L2073.31 1940.83 L2056.35 1940.83 L2056.35 1951.35 L2039.52 1951.35 L2039.52 1961.75 L2022.57 1961.75 L2022.57 1972.14 L2005.74 1972.14 L2005.74 1982.41 L1988.91 1982.41 L1988.91 1992.56 L1971.96 1992.56 L1971.96 2002.83 L1955.13 2002.83 L1955.13 2012.86 L1938.17 2012.86 L1938.17 2022.88 L1921.34 2022.88 L1921.34 2032.90 L1904.39 2032.90 L1904.39 2042.81 L1887.56 2042.81 L1887.56 2052.58 L1870.73 2052.58 L1870.73 2062.36 L1853.78 2062.36 L1853.78 2072.01 L1836.94 2072.01 L1836.94 2081.66 L1819.99 2081.66 L1819.99 2091.19 L1803.16 2091.19 L1803.16 2100.60 L1786.21 2100.60 L1786.21 2110.00 L1769.38 2110.00 L1769.38 2119.28 L1752.55 2119.28 L1752.55 2128.44 L1735.59 2128.44 L1735.59 2137.60 L1718.76 2137.60 L1718.76 2146.51 L1701.81 2146.51 L1701.81 2155.54 L1684.98 2155.54 L1684.98 2164.33 L1668.03 2164.33 L1668.03 2172.99 L1651.20 2172.99 L1651.20 2181.66 L1634.37 2181.66 L1634.37 2190.20 L1617.41 2190.20 L1617.41 2198.61 L1600.58 2198.61 L1600.58 2206.90 L1583.63 2206.90 L1583.63 2215.07 L1566.80 2215.07 L1566.80 2223.24 L1549.85 2223.24 L1549.85 2231.16 L1533.02 2231.16 L1533.02 2239.08 L1516.18 2239.08 L1516.18 2246.75 L1499.23 2246.75 L1499.23 2254.42 L1482.40 2254.42 L1482.40 2261.97 L1465.45 2261.97 L1465.45 2269.27 L1448.62 2269.27 L1448.62 2276.58 L1431.66 2276.58 L1431.66 2283.63 L1414.83 2283.63 L1414.83 2290.68 L1398.00 2290.68 L1398.00 2297.61 L1381.05 2297.61 L1381.05 2304.30 L1364.22 2304.30 L1364.22 2310.86 L1347.27 2310.86 L1347.27 2317.29 L1330.44 2317.29 L1330.44 2323.60 L1313.61 2323.60 L1313.61 2329.67 L1296.65 2329.67 L1296.65 2335.73 L1279.82 2335.73 L1279.82 2341.55 L1262.87 2341.55 L1262.87 2347.12 L1246.04 2347.12 L1246.04 2352.68 L1229.09 2352.68 L1229.09 2358.01 L1212.26 2358.01 L1212.26 2363.20 L1195.42 2363.20 L1195.42 2368.28 L1178.47 2368.28 L1178.47 2373.10 L1161.64 2373.10 L1161.64 2377.81 L1144.69 2377.81 L1144.69 2382.39 L1127.86 2382.39 L1127.86 2386.84 L1110.90 2386.84 L1110.90 2391.05 L1094.07 2391.05 L1094.07 2395.01 L1077.24 2395.01 L1077.24 2398.97 L1060.29 2398.97 L1060.29 2402.68 L1043.46 2402.68 L1043.46 2406.15 L1026.51 2406.15 L1026.51 2409.61 L1009.68 2409.61 L1009.68 2412.83 L992.72 2412.83 L992.72 2415.80 L975.89 2415.80 L975.89 2418.77 L959.06 2418.77 L959.06 2421.49 L942.11 2421.49 L942.11 2424.09 L925.28 2424.09 L925.28 2426.44 L908.33 2426.44 L908.33 2428.67 L891.50 2428.67 L891.50 2430.77 L874.54 2430.77 L874.54 2432.75 L857.71 2432.75 L857.71 2434.61 L840.88 2434.61 L840.88 2436.22 L823.93 2436.22 L823.93 2437.70 L807.10 2437.70 L807.10 2439.06 L790.14 2439.06 L790.14 2440.30 L773.31 2440.30 L773.31 2444.26 Z" stroke-linejoin="round"/>
	</defs>
	<defs>
		<clipPath id="clipPath_XhIjnvLf">
			<use xlink:href="#path_yFzZOggM"/>
		</clipPath>
	</defs>
	<use xlink:href="#path_yFzZOggM" style="stroke:none;fill:#333333;fill-opacity:0.35"/>
	<use xlink:href="#path_yFzZOggM" style="fill:none;stroke:#000000;stroke-opacity:0.35;stroke-width:17.28" clip-path="url(#clipPath_XhIjnvLf)"/>
	<line x1="773.19" y1="2443.27" x2="790.14" y2="2443.27" style="stroke:#808080;stroke-width:8.64"/>
	<line x1="790.14" y1="2443.27" x2="790.14" y2="2442.53" style="stroke:#808080;stroke-width:8.64"/>
	<line x1="790.14" y1="2442.53" x2="806.97" y2="2442.53" style="stroke:#808080;stroke-width:8.64"/>
	<line x1="806.97" y1="2442.53" x2="806.97" y2="2441.79" style="stroke:#808080;stroke-width:8.64"/>
	<line x1="806.97" y1="2441.79" x2="811.92" y2="2441.79" style="stroke:#808080;stroke-width:8.64"/>
	<line x1="828.38" y1="2440.92" x2="840.76" y2="2440.92" style="stroke:#808080;stroke-width:8.64"/>
	<line x1="840.76" y1="2440.92" x2="840.76" y2="2439.93" style="stroke:#808080;stroke-width:8.64"/>
	<line x1="840.76" y1="2439.93" x2="857.71" y2="2439.93" style="stroke:#808080;stroke-width:8.64"/>
	<line x1="857.71" y1="2439.93" x2="857.71" y2="2438.82" style="stroke:#808080;stroke-width:8.64"/>
	<line x1="857.71" y1="2438.82" x2="866.62" y2="2438.82" style="stroke:#808080;stroke-width:8.64"/>
	<line x1="882.59" y1="2437.58" x2="891.37" y2="2437.58" style="stroke:#808080;stroke-width:8.64"/>
	<line x1="891.37" y1="2437.58" x2="891.37" y2="2436.34" style="stroke:#808080;stroke-width:8.64"/>
	<line x1="891.37" y1="2436.34" x2="908.33" y2="2436.34" style="stroke:#808080;stroke-width:8.64"/>
	<line x1="908.33" y1="2436.34" x2="908.33" y2="2434.98" style="stroke:#808080;stroke-width:8.64"/>
	<line x1="908.33" y1="2434.98" x2="920.33" y2="2434.98" style="stroke:#808080;stroke-width:8.64"/>
	<line x1="936.04" y1="2433.50" x2="942.11" y2="2433.50" style="stroke:#808080;stroke-width:8.64"/>
	<line x1="942.11" y1="2433.50" x2="942.11" y2="2431.89" style="stroke:#808080;stroke-width:8.64"/>
	<line x1="942.11" y1="2431.89" x2="958.94" y2="2431.89" style="stroke:#808080;stroke-width:8.64"/>
	<line x1="958.94" y1="2431.89" x2="958.94" y2="2430.15" style="stroke:#808080;stroke-width:8.64"/>
	<line x1="958.94" y1="2430.15" x2="973.05" y2="2430.15" style="stroke:#808080;stroke-width:8.64"/>
	<line x1="988.64" y1="2428.42" x2="992.72" y2="2428.42" style="stroke:#808080;stroke-width:8.64"/>
	<line x1="992.72" y1="2428.42" x2="992.72" y2="2426.44" style="stroke:#808080;stroke-width:8.64"/>
	<line x1="992.72" y1="2426.44" x2="1009.55" y2="2426.44" style="stroke:#808080;stroke-width:8.64"/>
	<line x1="1009.55" y1="2426.44" x2="1009.55" y2="2424.46" style="stroke:#808080;stroke-width:8.64"/>
	<line x1="1009.55" y1="2424.46" x2="1025.02" y2="2424.46" style="stroke:#808080;stroke-width:8.64"/>
	<line x1="1039.99" y1="2422.23" x2="1043.34" y2="2422.23" style="stroke:#808080;stroke-width:8.64"/>
	<line x1="1043.34" y1="2422.23" x2="1043.34" y2="2420.01" style="stroke:#808080;stroke-width:8.64"/>
	<line x1="1043.34" y1="2420.01" x2="1060.29" y2="2420.01" style="stroke:#808080;stroke-width:8.64"/>
	<line x1="1060.29" y1="2420.01" x2="1060.29" y2="2417.66" style="stroke:#808080;stroke-width:8.64"/>
	<line x1="1060.29" y1="2417.66" x2="1075.76" y2="2417.66" style="stroke:#808080;stroke-width:8.64"/>
	<line x1="1090.48" y1="2415.18" x2="1093.95" y2="2415.18" style="stroke:#808080;stroke-width:8.64"/>
	<line x1="1093.95" y1="2415.18" x2="1093.95" y2="2412.58" style="stroke:#808080;stroke-width:8.64"/>
	<line x1="1093.95" y1="2412.58" x2="1110.90" y2="2412.58" style="stroke:#808080;stroke-width:8.64"/>
	<line x1="1110.90" y1="2412.58" x2="1110.90" y2="2409.86" style="stroke:#808080;stroke-width:8.64"/>
	<line x1="1110.90" y1="2409.86" x2="1125.51" y2="2409.86" style="stroke:#808080;stroke-width:8.64"/>
	<line x1="1139.98" y1="2407.01" x2="1144.69" y2="2407.01" style="stroke:#808080;stroke-width:8.64"/>
	<line x1="1144.69" y1="2407.01" x2="1144.69" y2="2404.04" style="stroke:#808080;stroke-width:8.64"/>
	<line x1="1144.69" y1="2404.04" x2="1161.52" y2="2404.04" style="stroke:#808080;stroke-width:8.64"/>
	<line x1="1161.52" y1="2404.04" x2="1161.52" y2="2400.95" style="stroke:#808080;stroke-width:8.64"/>
	<line x1="1161.52" y1="2400.95" x2="1174.14" y2="2400.95" style="stroke:#808080;stroke-width:8.64"/>
	<line x1="1188.25" y1="2397.85" x2="1195.30" y2="2397.85" style="stroke:#808080;stroke-width:8.64"/>
	<line x1="1195.30" y1="2397.85" x2="1195.30" y2="2394.51" style="stroke:#808080;stroke-width:8.64"/>
	<line x1="1195.30" y1="2394.51" x2="1212.13" y2="2394.51" style="stroke:#808080;stroke-width:8.64"/>
	<line x1="1212.13" y1="2394.51" x2="1212.13" y2="2391.05" style="stroke:#808080;stroke-width:8.64"/>
	<line x1="1212.13" y1="2391.05" x2="1221.91" y2="2391.05" style="stroke:#808080;stroke-width:8.64"/>
	<line x1="1235.52" y1="2387.46" x2="1245.91" y2="2387.46" style="stroke:#808080;stroke-width:8.64"/>
	<line x1="1245.91" y1="2387.46" x2="1245.91" y2="2383.87" style="stroke:#808080;stroke-width:8.64"/>
	<line x1="1245.91" y1="2383.87" x2="1262.87" y2="2383.87" style="stroke:#808080;stroke-width:8.64"/>
	<line x1="1262.87" y1="2383.87" x2="1262.87" y2="2380.03" style="stroke:#808080;stroke-width:8.64"/>
	<line x1="1262.87" y1="2380.03" x2="1268.44" y2="2380.03" style="stroke:#808080;stroke-width:8.64"/>
	<line x1="1281.80" y1="2376.20" x2="1296.65" y2="2376.20" style="stroke:#808080;stroke-width:8.64"/>
	<line x1="1296.65" y1="2376.20" x2="1296.65" y2="2372.11" style="stroke:#808080;stroke-width:8.64"/>
	<line x1="1296.65" y1="2372.11" x2="1313.48" y2="2372.11" style="stroke:#808080;stroke-width:8.64"/>
	<line x1="1313.48" y1="2372.11" x2="1313.48" y2="2368.03" style="stroke:#808080;stroke-width:8.64"/>
	<line x1="1313.48" y1="2368.03" x2="1313.98" y2="2368.03" style="stroke:#808080;stroke-width:8.64"/>
	<line x1="1330.31" y1="2367.16" x2="1330.31" y2="2363.82" style="stroke:#808080;stroke-width:8.64"/>
	<line x1="1330.31" y1="2363.82" x2="1347.27" y2="2363.82" style="stroke:#808080;stroke-width:8.64"/>
	<line x1="1347.27" y1="2363.82" x2="1347.27" y2="2359.49" style="stroke:#808080;stroke-width:8.64"/>
	<line x1="1347.27" y1="2359.49" x2="1362.98" y2="2359.49" style="stroke:#808080;stroke-width:8.64"/>
	<line x1="1375.73" y1="2355.04" x2="1381.05" y2="2355.04" style="stroke:#808080;stroke-width:8.64"/>
	<line x1="1381.05" y1="2355.04" x2="1381.05" y2="2350.46" style="stroke:#808080;stroke-width:8.64"/>
	<line x1="1381.05" y1="2350.46" x2="1397.88" y2="2350.46" style="stroke:#808080;stroke-width:8.64"/>
	<line x1="1397.88" y1="2350.46" x2="1397.88" y2="2345.75" style="stroke:#808080;stroke-width:8.64"/>
	<line x1="1397.88" y1="2345.75" x2="1406.79" y2="2345.75" style="stroke:#808080;stroke-width:8.64"/>
	<line x1="1419.41" y1="2341.05" x2="1431.66" y2="2341.05" style="stroke:#808080;stroke-width:8.64"/>
	<line x1="1431.66" y1="2341.05" x2="1431.66" y2="2336.10" style="stroke:#808080;stroke-width:8.64"/>
	<line x1="1431.66" y1="2336.10" x2="1448.49" y2="2336.10" style="stroke:#808080;stroke-width:8.64"/>
	<line x1="1448.49" y1="2336.10" x2="1448.49" y2="2331.15" style="stroke:#808080;stroke-width:8.64"/>
	<line x1="1448.49" y1="2331.15" x2="1449.73" y2="2331.15" style="stroke:#808080;stroke-width:8.64"/>
	<line x1="1465.45" y1="2329.54" x2="1465.45" y2="2326.08" style="stroke:#808080;stroke-width:8.64"/>
	<line x1="1465.45" y1="2326.08" x2="1482.28" y2="2326.08" style="stroke:#808080;stroke-width:8.64"/>
	<line x1="1482.28" y1="2326.08" x2="1482.28" y2="2320.88" style="stroke:#808080;stroke-width:8.64"/>
	<line x1="1482.28" y1="2320.88" x2="1497.13" y2="2320.88" style="stroke:#808080;stroke-width:8.64"/>
	<line x1="1509.01" y1="2315.56" x2="1516.06" y2="2315.56" style="stroke:#808080;stroke-width:8.64"/>
	<line x1="1516.06" y1="2315.56" x2="1516.06" y2="2310.11" style="stroke:#808080;stroke-width:8.64"/>
	<line x1="1516.06" y1="2310.11" x2="1533.02" y2="2310.11" style="stroke:#808080;stroke-width:8.64"/>
	<line x1="1533.02" y1="2310.11" x2="1533.02" y2="2304.67" style="stroke:#808080;stroke-width:8.64"/>
	<line x1="1533.02" y1="2304.67" x2="1538.46" y2="2304.67" style="stroke:#808080;stroke-width:8.64"/>
	<line x1="1550.09" y1="2299.10" x2="1566.67" y2="2299.10" style="stroke:#808080;stroke-width:8.64"/>
	<line x1="1566.67" y1="2299.10" x2="1566.67" y2="2293.53" style="stroke:#808080;stroke-width:8.64"/>
	<line x1="1566.67" y1="2293.53" x2="1583.63" y2="2293.53" style="stroke:#808080;stroke-width:8.64"/>
	<line x1="1583.63" y1="2293.53" x2="1583.63" y2="2292.29" style="stroke:#808080;stroke-width:8.64"/>
	<line x1="1596.25" y1="2287.71" x2="1600.46" y2="2287.71" style="stroke:#808080;stroke-width:8.64"/>
	<line x1="1600.46" y1="2287.71" x2="1600.46" y2="2281.90" style="stroke:#808080;stroke-width:8.64"/>
	<line x1="1600.46" y1="2281.90" x2="1617.41" y2="2281.90" style="stroke:#808080;stroke-width:8.64"/>
	<line x1="1617.41" y1="2281.90" x2="1617.41" y2="2276.08" style="stroke:#808080;stroke-width:8.64"/>
	<line x1="1617.41" y1="2276.08" x2="1624.96" y2="2276.08" style="stroke:#808080;stroke-width:8.64"/>
	<line x1="1636.22" y1="2270.02" x2="1651.20" y2="2270.02" style="stroke:#808080;stroke-width:8.64"/>
	<line x1="1651.20" y1="2270.02" x2="1651.20" y2="2263.95" style="stroke:#808080;stroke-width:8.64"/>
	<line x1="1651.20" y1="2263.95" x2="1668.03" y2="2263.95" style="stroke:#808080;stroke-width:8.64"/>
	<line x1="1668.03" y1="2263.95" x2="1668.03" y2="2261.48" style="stroke:#808080;stroke-width:8.64"/>
	<line x1="1681.64" y1="2257.89" x2="1684.86" y2="2257.89" style="stroke:#808080;stroke-width:8.64"/>
	<line x1="1684.86" y1="2257.89" x2="1684.86" y2="2251.58" style="stroke:#808080;stroke-width:8.64"/>
	<line x1="1684.86" y1="2251.58" x2="1701.81" y2="2251.58" style="stroke:#808080;stroke-width:8.64"/>
	<line x1="1701.81" y1="2251.58" x2="1701.81" y2="2245.39" style="stroke:#808080;stroke-width:8.64"/>
	<line x1="1701.81" y1="2245.39" x2="1709.48" y2="2245.39" style="stroke:#808080;stroke-width:8.64"/>
	<line x1="1720.25" y1="2238.95" x2="1735.59" y2="2238.95" style="stroke:#808080;stroke-width:8.64"/>
	<line x1="1735.59" y1="2238.95" x2="1735.59" y2="2232.52" style="stroke:#808080;stroke-width:8.64"/>
	<line x1="1735.59" y1="2232.52" x2="1752.42" y2="2232.52" style="stroke:#808080;stroke-width:8.64"/>
	<line x1="1752.42" y1="2232.52" x2="1752.42" y2="2230.79" style="stroke:#808080;stroke-width:8.64"/>
	<line x1="1765.05" y1="2226.08" x2="1769.25" y2="2226.08" style="stroke:#808080;stroke-width:8.64"/>
	<line x1="1769.25" y1="2226.08" x2="1769.25" y2="2219.40" style="stroke:#808080;stroke-width:8.64"/>
	<line x1="1769.25" y1="2219.40" x2="1786.21" y2="2219.40" style="stroke:#808080;stroke-width:8.64"/>
	<line x1="1786.21" y1="2219.40" x2="1786.21" y2="2212.84" style="stroke:#808080;stroke-width:8.64"/>
	<line x1="1786.21" y1="2212.84" x2="1792.15" y2="2212.84" style="stroke:#808080;stroke-width:8.64"/>
	<line x1="1803.04" y1="2206.53" x2="1803.04" y2="2206.04" style="stroke:#808080;stroke-width:8.64"/>
	<line x1="1803.04" y1="2206.04" x2="1819.99" y2="2206.04" style="stroke:#808080;stroke-width:8.64"/>
	<line x1="1819.99" y1="2206.04" x2="1819.99" y2="2199.23" style="stroke:#808080;stroke-width:8.64"/>
	<line x1="1819.99" y1="2199.23" x2="1836.08" y2="2199.23" style="stroke:#808080;stroke-width:8.64"/>
	<line x1="1846.47" y1="2192.42" x2="1853.78" y2="2192.42" style="stroke:#808080;stroke-width:8.64"/>
	<line x1="1853.78" y1="2192.42" x2="1853.78" y2="2185.49" style="stroke:#808080;stroke-width:8.64"/>
	<line x1="1853.78" y1="2185.49" x2="1870.61" y2="2185.49" style="stroke:#808080;stroke-width:8.64"/>
	<line x1="1870.61" y1="2185.49" x2="1870.61" y2="2178.56" style="stroke:#808080;stroke-width:8.64"/>
	<line x1="1870.61" y1="2178.56" x2="1872.96" y2="2178.56" style="stroke:#808080;stroke-width:8.64"/>
	<line x1="1887.43" y1="2175.84" x2="1887.43" y2="2171.51" style="stroke:#808080;stroke-width:8.64"/>
	<line x1="1887.43" y1="2171.51" x2="1904.39" y2="2171.51" style="stroke:#808080;stroke-width:8.64"/>
	<line x1="1904.39" y1="2171.51" x2="1904.39" y2="2164.33" style="stroke:#808080;stroke-width:8.64"/>
	<line x1="1904.39" y1="2164.33" x2="1916.27" y2="2164.33" style="stroke:#808080;stroke-width:8.64"/>
	<line x1="1926.29" y1="2157.15" x2="1938.17" y2="2157.15" style="stroke:#808080;stroke-width:8.64"/>
	<line x1="1938.17" y1="2157.15" x2="1938.17" y2="2149.98" style="stroke:#808080;stroke-width:8.64"/>
	<line x1="1938.17" y1="2149.98" x2="1955.00" y2="2149.98" style="stroke:#808080;stroke-width:8.64"/>
	<line x1="1955.00" y1="2149.98" x2="1955.00" y2="2145.52" style="stroke:#808080;stroke-width:8.64"/>
	<line x1="1969.48" y1="2142.67" x2="1971.96" y2="2142.67" style="stroke:#808080;stroke-width:8.64"/>
	<line x1="1971.96" y1="2142.67" x2="1971.96" y2="2135.37" style="stroke:#808080;stroke-width:8.64"/>
	<line x1="1971.96" y1="2135.37" x2="1988.79" y2="2135.37" style="stroke:#808080;stroke-width:8.64"/>
	<line x1="1988.79" y1="2135.37" x2="1988.79" y2="2127.95" style="stroke:#808080;stroke-width:8.64"/>
	<line x1="1988.79" y1="2127.95" x2="1995.10" y2="2127.95" style="stroke:#808080;stroke-width:8.64"/>
	<line x1="2005.62" y1="2121.27" x2="2005.62" y2="2120.52" style="stroke:#808080;stroke-width:8.64"/>
	<line x1="2005.62" y1="2120.52" x2="2022.57" y2="2120.52" style="stroke:#808080;stroke-width:8.64"/>
	<line x1="2022.57" y1="2120.52" x2="2022.57" y2="2113.10" style="stroke:#808080;stroke-width:8.64"/>
	<line x1="2022.57" y1="2113.10" x2="2037.79" y2="2113.10" style="stroke:#808080;stroke-width:8.64"/>
	<line x1="2047.44" y1="2105.55" x2="2056.35" y2="2105.55" style="stroke:#808080;stroke-width:8.64"/>
	<line x1="2056.35" y1="2105.55" x2="2056.35" y2="2098.00" style="stroke:#808080;stroke-width:8.64"/>
	<line x1="2056.35" y1="2098.00" x2="2073.18" y2="2098.00" style="stroke:#808080;stroke-width:8.64"/>
	<line x1="2073.18" y1="2098.00" x2="2073.18" y2="2090.95" style="stroke:#808080;stroke-width:8.64"/>
	<line x1="2089.89" y1="2090.33" x2="2090.14" y2="2090.33" style="stroke:#808080;stroke-width:8.64"/>
	<line x1="2090.14" y1="2090.33" x2="2090.14" y2="2082.65" style="stroke:#808080;stroke-width:8.64"/>
	<line x1="2090.14" y1="2082.65" x2="2106.97" y2="2082.65" style="stroke:#808080;stroke-width:8.64"/>
	<line x1="2106.97" y1="2082.65" x2="2106.97" y2="2074.86" style="stroke:#808080;stroke-width:8.64"/>
	<line x1="2106.97" y1="2074.86" x2="2114.64" y2="2074.86" style="stroke:#808080;stroke-width:8.64"/>
	<line x1="2124.29" y1="2067.18" x2="2140.75" y2="2067.18" style="stroke:#808080;stroke-width:8.64"/>
	<line x1="2140.75" y1="2067.18" x2="2140.75" y2="2059.26" style="stroke:#808080;stroke-width:8.64"/>
	<line x1="2140.75" y1="2059.26" x2="2156.72" y2="2059.26" style="stroke:#808080;stroke-width:8.64"/>
	<line x1="2166.12" y1="2051.47" x2="2174.53" y2="2051.47" style="stroke:#808080;stroke-width:8.64"/>
	<line x1="2174.53" y1="2051.47" x2="2174.53" y2="2043.55" style="stroke:#808080;stroke-width:8.64"/>
	<line x1="2174.53" y1="2043.55" x2="2191.36" y2="2043.55" style="stroke:#808080;stroke-width:8.64"/>
	<line x1="2191.36" y1="2043.55" x2="2191.36" y2="2036.37" style="stroke:#808080;stroke-width:8.64"/>
	<line x1="2207.82" y1="2035.63" x2="2208.32" y2="2035.63" style="stroke:#808080;stroke-width:8.64"/>
	<line x1="2208.32" y1="2035.63" x2="2208.32" y2="2027.58" style="stroke:#808080;stroke-width:8.64"/>
	<line x1="2208.32" y1="2027.58" x2="2225.15" y2="2027.58" style="stroke:#808080;stroke-width:8.64"/>
	<line x1="2225.15" y1="2027.58" x2="2225.15" y2="2019.54" style="stroke:#808080;stroke-width:8.64"/>
	<line x1="2225.15" y1="2019.54" x2="2232.08" y2="2019.54" style="stroke:#808080;stroke-width:8.64"/>
	<line x1="2241.98" y1="2012.24" x2="2241.98" y2="2011.50" style="stroke:#808080;stroke-width:8.64"/>
	<line x1="2241.98" y1="2011.50" x2="2258.93" y2="2011.50" style="stroke:#808080;stroke-width:8.64"/>
	<line x1="2258.93" y1="2011.50" x2="2258.93" y2="2003.33" style="stroke:#808080;stroke-width:8.64"/>
	<line x1="2258.93" y1="2003.33" x2="2273.41" y2="2003.33" style="stroke:#808080;stroke-width:8.64"/>
	<line x1="2282.57" y1="1995.16" x2="2292.72" y2="1995.16" style="stroke:#808080;stroke-width:8.64"/>
	<line x1="2292.72" y1="1995.16" x2="2292.72" y2="1986.99" style="stroke:#808080;stroke-width:8.64"/>
	<line x1="2292.72" y1="1986.99" x2="2309.55" y2="1986.99" style="stroke:#808080;stroke-width:8.64"/>
	<line x1="2309.55" y1="1986.99" x2="2309.55" y2="1981.79" style="stroke:#808080;stroke-width:8.64"/>
	<line x1="2323.78" y1="1978.82" x2="2326.50" y2="1978.82" style="stroke:#808080;stroke-width:8.64"/>
	<line x1="2326.50" y1="1978.82" x2="2326.50" y2="1970.53" style="stroke:#808080;stroke-width:8.64"/>
	<line x1="2326.50" y1="1970.53" x2="2343.33" y2="1970.53" style="stroke:#808080;stroke-width:8.64"/>
	<line x1="2343.33" y1="1970.53" x2="2343.33" y2="1962.12" style="stroke:#808080;stroke-width:8.64"/>
	<line x1="2343.33" y1="1962.12" x2="2347.41" y2="1962.12" style="stroke:#808080;stroke-width:8.64"/>
	<line x1="2360.16" y1="1957.66" x2="2360.16" y2="1953.83" style="stroke:#808080;stroke-width:8.64"/>
	<line x1="2360.16" y1="1953.83" x2="2377.11" y2="1953.83" style="stroke:#808080;stroke-width:8.64"/>
	<line x1="2377.11" y1="1953.83" x2="2377.11" y2="1945.41" style="stroke:#808080;stroke-width:8.64"/>
	<line x1="2377.11" y1="1945.41" x2="2388.25" y2="1945.41" style="stroke:#808080;stroke-width:8.64"/>
	<line x1="2397.04" y1="1937.00" x2="2410.90" y2="1937.00" style="stroke:#808080;stroke-width:8.64"/>
	<line x1="2410.90" y1="1937.00" x2="2410.90" y2="1928.58" style="stroke:#808080;stroke-width:8.64"/>
	<line x1="2410.90" y1="1928.58" x2="2427.73" y2="1928.58" style="stroke:#808080;stroke-width:8.64"/>
	<line x1="2427.73" y1="1928.58" x2="2427.73" y2="1927.34" style="stroke:#808080;stroke-width:8.64"/>
	<line x1="2437.75" y1="1920.04" x2="2444.56" y2="1920.04" style="stroke:#808080;stroke-width:8.64"/>
	<line x1="2444.56" y1="1920.04" x2="2444.56" y2="1911.63" style="stroke:#808080;stroke-width:8.64"/>
	<line x1="2444.56" y1="1911.63" x2="2461.51" y2="1911.63" style="stroke:#808080;stroke-width:8.64"/>
	<line x1="2461.51" y1="1911.63" x2="2461.51" y2="1903.58" style="stroke:#808080;stroke-width:8.64"/>
	<line x1="2478.34" y1="1903.09" x2="2478.34" y2="1903.09" style="stroke:#808080;stroke-width:8.64"/>
	<line x1="2478.34" y1="1903.09" x2="2478.34" y2="1894.42" style="stroke:#808080;stroke-width:8.64"/>
	<line x1="2478.34" y1="1894.42" x2="2495.30" y2="1894.42" style="stroke:#808080;stroke-width:8.64"/>
	<line x1="2495.30" y1="1894.42" x2="2495.30" y2="1885.89" style="stroke:#808080;stroke-width:8.64"/>
	<line x1="2495.30" y1="1885.89" x2="2501.48" y2="1885.89" style="stroke:#808080;stroke-width:8.64"/>
	<line x1="2512.13" y1="1879.33" x2="2512.13" y2="1877.22" style="stroke:#808080;stroke-width:8.64"/>
	<line x1="2512.13" y1="1877.22" x2="2529.08" y2="1877.22" style="stroke:#808080;stroke-width:8.64"/>
	<line x1="2529.08" y1="1877.22" x2="2529.08" y2="1868.56" style="stroke:#808080;stroke-width:8.64"/>
	<line x1="2529.08" y1="1868.56" x2="2541.70" y2="1868.56" style="stroke:#808080;stroke-width:8.64"/>
	<line x1="2550.24" y1="1859.90" x2="2562.74" y2="1859.90" style="stroke:#808080;stroke-width:8.64"/>
	<line x1="2562.74" y1="1859.90" x2="2562.74" y2="1851.11" style="stroke:#808080;stroke-width:8.64"/>
	<line x1="2562.74" y1="1851.11" x2="2579.69" y2="1851.11" style="stroke:#808080;stroke-width:8.64"/>
	<line x1="2579.69" y1="1851.11" x2="2579.69" y2="1849.01" style="stroke:#808080;stroke-width:8.64"/>
	<line x1="2590.34" y1="1842.45" x2="2596.52" y2="1842.45" style="stroke:#808080;stroke-width:8.64"/>
	<line x1="2596.52" y1="1842.45" x2="2596.52" y2="1833.66" style="stroke:#808080;stroke-width:8.64"/>
	<line x1="2596.52" y1="1833.66" x2="2613.48" y2="1833.66" style="stroke:#808080;stroke-width:8.64"/>
	<line x1="2613.48" y1="1833.66" x2="2613.48" y2="1825.25" style="stroke:#808080;stroke-width:8.64"/>
	<line x1="2630.31" y1="1824.75" x2="2630.31" y2="1824.75" style="stroke:#808080;stroke-width:8.64"/>
	<line x1="2630.31" y1="1824.75" x2="2630.31" y2="1815.96" style="stroke:#808080;stroke-width:8.64"/>
	<line x1="2630.31" y1="1815.96" x2="2647.26" y2="1815.96" style="stroke:#808080;stroke-width:8.64"/>
	<line x1="2647.26" y1="1815.96" x2="2647.26" y2="1807.05" style="stroke:#808080;stroke-width:8.64"/>
	<line x1="2647.26" y1="1807.05" x2="2652.95" y2="1807.05" style="stroke:#808080;stroke-width:8.64"/>
	<line x1="2664.09" y1="1800.99" x2="2664.09" y2="1798.14" style="stroke:#808080;stroke-width:8.64"/>
	<line x1="2664.09" y1="1798.14" x2="2680.92" y2="1798.14" style="stroke:#808080;stroke-width:8.64"/>
	<line x1="2680.92" y1="1798.14" x2="2680.92" y2="1789.23" style="stroke:#808080;stroke-width:8.64"/>
	<line x1="2680.92" y1="1789.23" x2="2692.68" y2="1789.23" style="stroke:#808080;stroke-width:8.64"/>
	<line x1="2700.97" y1="1780.32" x2="2714.70" y2="1780.32" style="stroke:#808080;stroke-width:8.64"/>
	<line x1="2714.70" y1="1780.32" x2="2714.70" y2="1771.29" style="stroke:#808080;stroke-width:8.64"/>
	<line x1="2714.70" y1="1771.29" x2="2731.66" y2="1771.29" style="stroke:#808080;stroke-width:8.64"/>
	<line x1="2731.66" y1="1771.29" x2="2731.66" y2="1770.67" style="stroke:#808080;stroke-width:8.64"/>
	<line x1="2740.44" y1="1762.26" x2="2748.49" y2="1762.26" style="stroke:#808080;stroke-width:8.64"/>
	<line x1="2748.49" y1="1762.26" x2="2748.49" y2="1753.22" style="stroke:#808080;stroke-width:8.64"/>
	<line x1="2748.49" y1="1753.22" x2="2765.44" y2="1753.22" style="stroke:#808080;stroke-width:8.64"/>
	<line x1="2765.44" y1="1753.22" x2="2765.44" y2="1746.91" style="stroke:#808080;stroke-width:8.64"/>
	<line x1="2779.92" y1="1744.19" x2="2782.27" y2="1744.19" style="stroke:#808080;stroke-width:8.64"/>
	<line x1="2782.27" y1="1744.19" x2="2782.27" y2="1735.15" style="stroke:#808080;stroke-width:8.64"/>
	<line x1="2782.27" y1="1735.15" x2="2799.10" y2="1735.15" style="stroke:#808080;stroke-width:8.64"/>
	<line x1="2799.10" y1="1735.15" x2="2799.10" y2="1726.00" style="stroke:#808080;stroke-width:8.64"/>
	<line x1="2799.10" y1="1726.00" x2="2802.20" y2="1726.00" style="stroke:#808080;stroke-width:8.64"/>
	<line x1="2816.05" y1="1722.65" x2="2816.05" y2="1716.84" style="stroke:#808080;stroke-width:8.64"/>
	<line x1="2816.05" y1="1716.84" x2="2832.89" y2="1716.84" style="stroke:#808080;stroke-width:8.64"/>
	<line x1="2832.89" y1="1716.84" x2="2832.89" y2="1707.68" style="stroke:#808080;stroke-width:8.64"/>
	<line x1="2832.89" y1="1707.68" x2="2841.42" y2="1707.68" style="stroke:#808080;stroke-width:8.64"/>
	<line x1="2849.84" y1="1698.89" x2="2849.84" y2="1698.52" style="stroke:#808080;stroke-width:8.64"/>
	<line x1="2849.84" y1="1698.52" x2="2866.67" y2="1698.52" style="stroke:#808080;stroke-width:8.64"/>
	<line x1="2866.67" y1="1698.52" x2="2866.67" y2="1689.36" style="stroke:#808080;stroke-width:8.64"/>
	<line x1="2866.67" y1="1689.36" x2="2880.65" y2="1689.36" style="stroke:#808080;stroke-width:8.64"/>
	<line x1="2888.57" y1="1680.08" x2="2900.45" y2="1680.08" style="stroke:#808080;stroke-width:8.64"/>
	<line x1="2900.45" y1="1680.08" x2="2900.45" y2="1670.80" style="stroke:#808080;stroke-width:8.64"/>
	<line x1="2900.45" y1="1670.80" x2="2917.28" y2="1670.80" style="stroke:#808080;stroke-width:8.64"/>
	<line x1="2917.28" y1="1670.80" x2="2917.28" y2="1668.45" style="stroke:#808080;stroke-width:8.64"/>
	<line x1="2927.68" y1="1661.64" x2="2934.24" y2="1661.64" style="stroke:#808080;stroke-width:8.64"/>
	<line x1="2934.24" y1="1661.64" x2="2934.24" y2="1652.24" style="stroke:#808080;stroke-width:8.64"/>
	<line x1="2934.24" y1="1652.24" x2="2951.07" y2="1652.24" style="stroke:#808080;stroke-width:8.64"/>
	<line x1="2951.07" y1="1652.24" x2="2951.07" y2="1644.57" style="stroke:#808080;stroke-width:8.64"/>
	<line x1="2966.66" y1="1642.96" x2="2968.02" y2="1642.96" style="stroke:#808080;stroke-width:8.64"/>
	<line x1="2968.02" y1="1642.96" x2="2968.02" y2="1633.67" style="stroke:#808080;stroke-width:8.64"/>
	<line x1="2968.02" y1="1633.67" x2="2984.85" y2="1633.67" style="stroke:#808080;stroke-width:8.64"/>
	<line x1="2984.85" y1="1633.67" x2="2984.85" y2="1624.27" style="stroke:#808080;stroke-width:8.64"/>
	<line x1="2984.85" y1="1624.27" x2="2988.32" y2="1624.27" style="stroke:#808080;stroke-width:8.64"/>
	<line x1="3001.80" y1="1620.56" x2="3001.80" y2="1614.86" style="stroke:#808080;stroke-width:8.64"/>
	<line x1="3001.80" y1="1614.86" x2="3018.63" y2="1614.86" style="stroke:#808080;stroke-width:8.64"/>
	<line x1="3018.63" y1="1614.86" x2="3018.63" y2="1605.58" style="stroke:#808080;stroke-width:8.64"/>
	<line x1="3018.63" y1="1605.58" x2="3027.17" y2="1605.58" style="stroke:#808080;stroke-width:8.64"/>
	<line x1="3035.46" y1="1596.67" x2="3035.46" y2="1596.05" style="stroke:#808080;stroke-width:8.64"/>
	<line x1="3035.46" y1="1596.05" x2="3052.42" y2="1596.05" style="stroke:#808080;stroke-width:8.64"/>
	<line x1="3052.42" y1="1596.05" x2="3052.42" y2="1586.65" style="stroke:#808080;stroke-width:8.64"/>
	<line x1="3052.42" y1="1586.65" x2="3065.78" y2="1586.65" style="stroke:#808080;stroke-width:8.64"/>
	<line x1="3073.58" y1="1577.24" x2="3086.20" y2="1577.24" style="stroke:#808080;stroke-width:8.64"/>
	<line x1="3086.20" y1="1577.24" x2="3086.20" y2="1567.71" style="stroke:#808080;stroke-width:8.64"/>
	<line x1="3086.20" y1="1567.71" x2="3103.03" y2="1567.71" style="stroke:#808080;stroke-width:8.64"/>
	<line x1="3103.03" y1="1567.71" x2="3103.03" y2="1566.35" style="stroke:#808080;stroke-width:8.64"/>
	<line x1="3112.31" y1="1558.31" x2="3119.86" y2="1558.31" style="stroke:#808080;stroke-width:8.64"/>
	<line x1="3119.86" y1="1558.31" x2="3119.86" y2="1548.78" style="stroke:#808080;stroke-width:8.64"/>
	<line x1="3119.86" y1="1548.78" x2="3136.82" y2="1548.78" style="stroke:#808080;stroke-width:8.64"/>
	<line x1="3136.82" y1="1548.78" x2="3136.82" y2="1542.47" style="stroke:#808080;stroke-width:8.64"/>
	<line x1="3150.80" y1="1539.25" x2="3153.64" y2="1539.25" style="stroke:#808080;stroke-width:8.64"/>
	<line x1="3153.64" y1="1539.25" x2="3153.64" y2="1529.72" style="stroke:#808080;stroke-width:8.64"/>
	<line x1="3153.64" y1="1529.72" x2="3170.60" y2="1529.72" style="stroke:#808080;stroke-width:8.64"/>
	<line x1="3170.60" y1="1529.72" x2="3170.60" y2="1520.07" style="stroke:#808080;stroke-width:8.64"/>
	<line x1="3170.60" y1="1520.07" x2="3171.96" y2="1520.07" style="stroke:#808080;stroke-width:8.64"/>
	<line x1="3187.43" y1="1518.34" x2="3187.43" y2="1510.54" style="stroke:#808080;stroke-width:8.64"/>
	<line x1="3187.43" y1="1510.54" x2="3204.38" y2="1510.54" style="stroke:#808080;stroke-width:8.64"/>
	<line x1="3204.38" y1="1510.54" x2="3204.38" y2="1500.89" style="stroke:#808080;stroke-width:8.64"/>
	<line x1="3204.38" y1="1500.89" x2="3210.32" y2="1500.89" style="stroke:#808080;stroke-width:8.64"/>
	<line x1="3221.21" y1="1494.45" x2="3221.21" y2="1491.23" style="stroke:#808080;stroke-width:8.64"/>
	<line x1="3221.21" y1="1491.23" x2="3238.04" y2="1491.23" style="stroke:#808080;stroke-width:8.64"/>
	<line x1="3238.04" y1="1491.23" x2="3238.04" y2="1481.58" style="stroke:#808080;stroke-width:8.64"/>
	<line x1="3238.04" y1="1481.58" x2="3248.56" y2="1481.58" style="stroke:#808080;stroke-width:8.64"/>
	<line x1="3256.11" y1="1471.93" x2="3271.83" y2="1471.93" style="stroke:#808080;stroke-width:8.64"/>
	<line x1="3271.83" y1="1471.93" x2="3271.83" y2="1462.28" style="stroke:#808080;stroke-width:8.64"/>
	<line x1="3271.83" y1="1462.28" x2="3286.80" y2="1462.28" style="stroke:#808080;stroke-width:8.64"/>
	<line x1="3294.35" y1="1452.50" x2="3305.61" y2="1452.50" style="stroke:#808080;stroke-width:8.64"/>
	<line x1="3305.61" y1="1452.50" x2="3305.61" y2="1442.72" style="stroke:#808080;stroke-width:8.64"/>
	<line x1="3305.61" y1="1442.72" x2="3322.56" y2="1442.72" style="stroke:#808080;stroke-width:8.64"/>
	<line x1="3322.56" y1="1442.72" x2="3322.56" y2="1440.37" style="stroke:#808080;stroke-width:8.64"/>
	<line x1="3332.46" y1="1433.07" x2="3339.39" y2="1433.07" style="stroke:#808080;stroke-width:8.64"/>
	<line x1="3339.39" y1="1433.07" x2="3339.39" y2="1423.29" style="stroke:#808080;stroke-width:8.64"/>
	<line x1="3339.39" y1="1423.29" x2="3356.22" y2="1423.29" style="stroke:#808080;stroke-width:8.64"/>
	<line x1="3356.22" y1="1423.29" x2="3356.22" y2="1416.49" style="stroke:#808080;stroke-width:8.64"/>
	<line x1="3370.45" y1="1413.52" x2="3373.18" y2="1413.52" style="stroke:#808080;stroke-width:8.64"/>
	<line x1="3373.18" y1="1413.52" x2="3373.18" y2="1403.74" style="stroke:#808080;stroke-width:8.64"/>
	<line x1="3373.18" y1="1403.74" x2="3390.01" y2="1403.74" style="stroke:#808080;stroke-width:8.64"/>
	<line x1="3390.01" y1="1403.74" x2="3390.01" y2="1393.84" style="stroke:#808080;stroke-width:8.64"/>
	<line x1="3390.01" y1="1393.84" x2="3391.12" y2="1393.84" style="stroke:#808080;stroke-width:8.64"/>
	<line x1="3406.96" y1="1392.35" x2="3406.96" y2="1384.06" style="stroke:#808080;stroke-width:8.64"/>
	<line x1="3406.96" y1="1384.06" x2="3423.79" y2="1384.06" style="stroke:#808080;stroke-width:8.64"/>
	<line x1="3423.79" y1="1384.06" x2="3423.79" y2="1374.29" style="stroke:#808080;stroke-width:8.64"/>
	<line x1="3423.79" y1="1374.29" x2="3429.24" y2="1374.29" style="stroke:#808080;stroke-width:8.64"/>
	<line x1="3440.74" y1="1368.59" x2="3440.74" y2="1364.39" style="stroke:#808080;stroke-width:8.64"/>
	<line x1="3440.74" y1="1364.39" x2="3457.57" y2="1364.39" style="stroke:#808080;stroke-width:8.64"/>
	<line x1="3457.57" y1="1364.39" x2="3457.57" y2="1354.49" style="stroke:#808080;stroke-width:8.64"/>
	<line x1="3457.57" y1="1354.49" x2="3466.98" y2="1354.49" style="stroke:#808080;stroke-width:8.64"/>
	<line x1="3474.41" y1="1344.71" x2="3474.41" y2="1344.59" style="stroke:#808080;stroke-width:8.64"/>
	<line x1="3474.41" y1="1344.59" x2="3491.36" y2="1344.59" style="stroke:#808080;stroke-width:8.64"/>
	<line x1="3491.36" y1="1344.59" x2="3491.36" y2="1334.69" style="stroke:#808080;stroke-width:8.64"/>
	<line x1="3491.36" y1="1334.69" x2="3504.72" y2="1334.69" style="stroke:#808080;stroke-width:8.64"/>
	<line x1="3512.03" y1="1324.79" x2="3525.14" y2="1324.79" style="stroke:#808080;stroke-width:8.64"/>
	<line x1="3525.14" y1="1324.79" x2="3525.14" y2="1314.88" style="stroke:#808080;stroke-width:8.64"/>
	<line x1="3525.14" y1="1314.88" x2="3541.97" y2="1314.88" style="stroke:#808080;stroke-width:8.64"/>
	<line x1="3541.97" y1="1314.88" x2="3541.97" y2="1314.39" style="stroke:#808080;stroke-width:8.64"/>
	<line x1="3549.64" y1="1304.86" x2="3558.93" y2="1304.86" style="stroke:#808080;stroke-width:8.64"/>
	<line x1="3558.93" y1="1304.86" x2="3558.93" y2="1294.96" style="stroke:#808080;stroke-width:8.64"/>
	<line x1="3558.93" y1="1294.96" x2="3575.76" y2="1294.96" style="stroke:#808080;stroke-width:8.64"/>
	<line x1="3575.76" y1="1294.96" x2="3575.76" y2="1290.63" style="stroke:#808080;stroke-width:8.64"/>
	<line x1="3587.39" y1="1284.94" x2="3592.59" y2="1284.94" style="stroke:#808080;stroke-width:8.64"/>
	<line x1="3592.59" y1="1284.94" x2="3592.59" y2="1274.91" style="stroke:#808080;stroke-width:8.64"/>
	<line x1="3592.59" y1="1274.91" x2="3609.54" y2="1274.91" style="stroke:#808080;stroke-width:8.64"/>
	<line x1="3609.54" y1="1274.91" x2="3609.54" y2="1266.87" style="stroke:#808080;stroke-width:8.64"/>
	<line x1="3625.01" y1="1265.01" x2="3626.37" y2="1265.01" style="stroke:#808080;stroke-width:8.64"/>
	<line x1="3626.37" y1="1265.01" x2="3626.37" y2="1254.99" style="stroke:#808080;stroke-width:8.64"/>
	<line x1="3626.37" y1="1254.99" x2="3643.32" y2="1254.99" style="stroke:#808080;stroke-width:8.64"/>
	<line x1="3643.32" y1="1254.99" x2="3643.32" y2="1244.96" style="stroke:#808080;stroke-width:8.64"/>
	<line x1="3643.32" y1="1244.96" x2="3645.30" y2="1244.96" style="stroke:#808080;stroke-width:8.64"/>
	<line x1="3660.15" y1="1242.61" x2="3660.15" y2="1234.82" style="stroke:#808080;stroke-width:8.64"/>
	<line x1="3660.15" y1="1234.82" x2="3677.11" y2="1234.82" style="stroke:#808080;stroke-width:8.64"/>
	<line x1="3677.11" y1="1234.82" x2="3677.11" y2="1224.79" style="stroke:#808080;stroke-width:8.64"/>
	<line x1="3677.11" y1="1224.79" x2="3682.68" y2="1224.79" style="stroke:#808080;stroke-width:8.64"/>
	<line x1="3693.94" y1="1218.85" x2="3693.94" y2="1214.77" style="stroke:#808080;stroke-width:8.64"/>
	<line x1="3693.94" y1="1214.77" x2="3710.77" y2="1214.77" style="stroke:#808080;stroke-width:8.64"/>
	<line x1="3710.77" y1="1214.77" x2="3710.77" y2="1204.62" style="stroke:#808080;stroke-width:8.64"/>
	<line x1="3710.77" y1="1204.62" x2="3720.05" y2="1204.62" style="stroke:#808080;stroke-width:8.64"/>
	<line x1="3727.72" y1="1194.97" x2="3727.72" y2="1194.60" style="stroke:#808080;stroke-width:8.64"/>
	<line x1="3727.72" y1="1194.60" x2="3744.55" y2="1194.60" style="stroke:#808080;stroke-width:8.64"/>
	<line x1="3744.55" y1="1194.60" x2="3744.55" y2="1184.45" style="stroke:#808080;stroke-width:8.64"/>
	<line x1="3744.55" y1="1184.45" x2="3757.55" y2="1184.45" style="stroke:#808080;stroke-width:8.64"/>
	<line x1="3764.60" y1="1174.30" x2="3778.34" y2="1174.30" style="stroke:#808080;stroke-width:8.64"/>
	<line x1="3778.34" y1="1174.30" x2="3778.34" y2="1164.15" style="stroke:#808080;stroke-width:8.64"/>
	<line x1="3778.34" y1="1164.15" x2="3794.79" y2="1164.15" style="stroke:#808080;stroke-width:8.64"/>
	<path d="" stroke-linejoin="round" style="fill:none;stroke:#808080;stroke-width:8.64"/>
	<path d=" M773.19 2443.03 L790.14 2443.03 L790.14 2442.16 L806.97 2442.16 L806.97 2441.29 L823.93 2441.29 L823.93 2440.43 L840.76 2440.43 L840.76 2439.31 L857.71 2439.31 L857.71 2438.07 L874.54 2438.07 L874.54 2436.84 L891.37 2436.84 L891.37 2435.35 L908.33 2435.35 L908.33 2433.87 L925.15 2433.87 L925.15 2432.26 L942.11 2432.26 L942.11 2430.53 L958.94 2430.53 L958.94 2428.67 L975.89 2428.67 L975.89 2426.69 L992.72 2426.69 L992.72 2424.59 L1009.55 2424.59 L1009.55 2422.36 L1026.51 2422.36 L1026.51 2419.88 L1043.34 2419.88 L1043.34 2417.53 L1060.29 2417.53 L1060.29 2414.93 L1077.12 2414.93 L1077.12 2412.21 L1093.95 2412.21 L1093.95 2409.24 L1110.90 2409.24 L1110.90 2406.27 L1127.73 2406.27 L1127.73 2403.18 L1144.69 2403.18 L1144.69 2399.96 L1161.52 2399.96 L1161.52 2396.62 L1178.47 2396.62 L1178.47 2393.03 L1195.30 2393.03 L1195.30 2389.44 L1212.13 2389.44 L1212.13 2385.73 L1229.09 2385.73 L1229.09 2381.77 L1245.91 2381.77 L1245.91 2377.81 L1262.87 2377.81 L1262.87 2373.72 L1279.70 2373.72 L1279.70 2369.39 L1296.65 2369.39 L1296.65 2365.06 L1313.48 2365.06 L1313.48 2360.61 L1330.31 2360.61 L1330.31 2356.03 L1347.27 2356.03 L1347.27 2351.20 L1364.10 2351.20 L1364.10 2346.37 L1381.05 2346.37 L1381.05 2341.42 L1397.88 2341.42 L1397.88 2336.35 L1414.83 2336.35 L1414.83 2331.15 L1431.66 2331.15 L1431.66 2325.83 L1448.49 2325.83 L1448.49 2320.39 L1465.45 2320.39 L1465.45 2314.82 L1482.28 2314.82 L1482.28 2309.25 L1499.23 2309.25 L1499.23 2303.55 L1516.06 2303.55 L1516.06 2297.74 L1533.02 2297.74 L1533.02 2291.80 L1549.85 2291.80 L1549.85 2285.73 L1566.67 2285.73 L1566.67 2279.67 L1583.63 2279.67 L1583.63 2273.48 L1600.46 2273.48 L1600.46 2267.17 L1617.41 2267.17 L1617.41 2260.74 L1634.24 2260.74 L1634.24 2254.30 L1651.20 2254.30 L1651.20 2247.74 L1668.03 2247.74 L1668.03 2241.06 L1684.86 2241.06 L1684.86 2234.38 L1701.81 2234.38 L1701.81 2227.57 L1718.64 2227.57 L1718.64 2220.64 L1735.59 2220.64 L1735.59 2213.71 L1752.42 2213.71 L1752.42 2206.66 L1769.25 2206.66 L1769.25 2199.48 L1786.21 2199.48 L1786.21 2192.30 L1803.04 2192.30 L1803.04 2185.12 L1819.99 2185.12 L1819.99 2177.70 L1836.82 2177.70 L1836.82 2170.40 L1853.78 2170.40 L1853.78 2162.85 L1870.61 2162.85 L1870.61 2155.42 L1887.43 2155.42 L1887.43 2147.75 L1904.39 2147.75 L1904.39 2140.08 L1921.22 2140.08 L1921.22 2132.40 L1938.17 2132.40 L1938.17 2124.61 L1955.00 2124.61 L1955.00 2116.81 L1971.96 2116.81 L1971.96 2108.89 L1988.79 2108.89 L1988.79 2100.97 L2005.62 2100.97 L2005.62 2093.05 L2022.57 2093.05 L2022.57 2085.01 L2039.40 2085.01 L2039.40 2076.84 L2056.35 2076.84 L2056.35 2068.67 L2073.18 2068.67 L2073.18 2060.50 L2090.14 2060.50 L2090.14 2052.21 L2106.97 2052.21 L2106.97 2043.92 L2123.80 2043.92 L2123.80 2035.50 L2140.75 2035.50 L2140.75 2027.09 L2157.58 2027.09 L2157.58 2018.67 L2174.53 2018.67 L2174.53 2010.13 L2191.36 2010.13 L2191.36 2001.60 L2208.32 2001.60 L2208.32 1993.06 L2225.15 1993.06 L2225.15 1984.39 L2241.98 1984.39 L2241.98 1975.73 L2258.93 1975.73 L2258.93 1967.07 L2275.76 1967.07 L2275.76 1958.40 L2292.72 1958.40 L2292.72 1949.62 L2309.55 1949.62 L2309.55 1940.71 L2326.50 1940.71 L2326.50 1931.92 L2343.33 1931.92 L2343.33 1923.01 L2360.16 1923.01 L2360.16 1913.98 L2377.11 1913.98 L2377.11 1905.07 L2393.94 1905.07 L2393.94 1896.03 L2410.90 1896.03 L2410.90 1887.00 L2427.73 1887.00 L2427.73 1877.96 L2444.56 1877.96 L2444.56 1868.81 L2461.51 1868.81 L2461.51 1859.65 L2478.34 1859.65 L2478.34 1850.49 L2495.30 1850.49 L2495.30 1841.21 L2512.13 1841.21 L2512.13 1831.93 L2529.08 1831.93 L2529.08 1822.65 L2545.91 1822.65 L2545.91 1813.37 L2562.74 1813.37 L2562.74 1804.08 L2579.69 1804.08 L2579.69 1794.68 L2596.52 1794.68 L2596.52 1785.27 L2613.48 1785.27 L2613.48 1775.87 L2630.31 1775.87 L2630.31 1766.46 L2647.26 1766.46 L2647.26 1756.93 L2664.09 1756.93 L2664.09 1747.40 L2680.92 1747.40 L2680.92 1737.88 L2697.87 1737.88 L2697.87 1728.35 L2714.70 1728.35 L2714.70 1718.69 L2731.66 1718.69 L2731.66 1709.04 L2748.49 1709.04 L2748.49 1699.39 L2765.44 1699.39 L2765.44 1689.74 L2782.27 1689.74 L2782.27 1680.08 L2799.10 1680.08 L2799.10 1670.31 L2816.05 1670.31 L2816.05 1660.53 L2832.89 1660.53 L2832.89 1650.75 L2849.84 1650.75 L2849.84 1640.98 L2866.67 1640.98 L2866.67 1631.08 L2883.62 1631.08 L2883.62 1621.30 L2900.45 1621.30 L2900.45 1611.40 L2917.28 1611.40 L2917.28 1601.50 L2934.24 1601.50 L2934.24 1591.60 L2951.07 1591.60 L2951.07 1581.57 L2968.02 1581.57 L2968.02 1571.67 L2984.85 1571.67 L2984.85 1561.65 L3001.80 1561.65 L3001.80 1551.63 L3018.63 1551.63 L3018.63 1541.60 L3035.46 1541.60 L3035.46 1531.58 L3052.42 1531.58 L3052.42 1521.55 L3069.25 1521.55 L3069.25 1511.41 L3086.20 1511.41 L3086.20 1501.26 L3103.03 1501.26 L3103.03 1491.23 L3119.86 1491.23 L3119.86 1481.09 L3136.82 1481.09 L3136.82 1470.81 L3153.64 1470.81 L3153.64 1460.67 L3170.60 1460.67 L3170.60 1450.52 L3187.43 1450.52 L3187.43 1440.25 L3204.38 1440.25 L3204.38 1429.98 L3221.21 1429.98 L3221.21 1419.70 L3238.04 1419.70 L3238.04 1409.43 L3255.00 1409.43 L3255.00 1399.16 L3271.83 1399.16 L3271.83 1388.77 L3288.78 1388.77 L3288.78 1378.49 L3305.61 1378.49 L3305.61 1368.10 L3322.56 1368.10 L3322.56 1357.70 L3339.39 1357.70 L3339.39 1347.31 L3356.22 1347.31 L3356.22 1336.91 L3373.18 1336.91 L3373.18 1326.52 L3390.01 1326.52 L3390.01 1316.12 L3406.96 1316.12 L3406.96 1305.60 L3423.79 1305.60 L3423.79 1295.21 L3440.74 1295.21 L3440.74 1284.69 L3457.57 1284.69 L3457.57 1274.17 L3474.41 1274.17 L3474.41 1263.65 L3491.36 1263.65 L3491.36 1253.13 L3508.19 1253.13 L3508.19 1242.49 L3525.14 1242.49 L3525.14 1231.97 L3541.97 1231.97 L3541.97 1221.33 L3558.93 1221.33 L3558.93 1210.68 L3575.76 1210.68 L3575.76 1200.17 L3592.59 1200.17 L3592.59 1189.52 L3609.54 1189.52 L3609.54 1178.88 L3626.37 1178.88 L3626.37 1168.11 L3643.32 1168.11 L3643.32 1157.47 L3660.15 1157.47 L3660.15 1146.83 L3677.11 1146.83 L3677.11 1136.06 L3693.94 1136.06 L3693.94 1125.29 L3710.77 1125.29 L3710.77 1114.65 L3727.72 1114.65 L3727.72 1103.88 L3744.55 1103.88 L3744.55 1093.12 L3761.51 1093.12 L3761.51 1082.35 L3778.34 1082.35 L3778.34 1071.46 L3795.16 1071.46 L3795.16 1060.69" stroke-linejoin="round" style="fill:none;stroke:#000000;stroke-width:8.64"/>
	<line x1="553.29" y1="2509.23" x2="553.29" y2="419.90" style="stroke:#000000;stroke-width:5.76"/>
	<line x1="553.29" y1="2445.87" x2="513.32" y2="2445.87" style="stroke:#000000;stroke-width:5.76"/>
	<text x="493.27" y="2480.90" style="font-family:'Helvetica';font-size:99.99px;fill:#000000" text-anchor="end">0</text>
	<line x1="553.29" y1="2282.27" x2="513.32" y2="2282.27" style="stroke:#000000;stroke-width:5.76"/>
	<text x="493.27" y="2317.30" style="font-family:'Helvetica';font-size:99.99px;fill:#000000" text-anchor="end">90</text>
	<line x1="553.29" y1="2118.79" x2="513.32" y2="2118.79" style="stroke:#000000;stroke-width:5.76"/>
	<text x="493.27" y="2153.82" style="font-family:'Helvetica';font-size:99.99px;fill:#000000" text-anchor="end">180</text>
	<line x1="553.29" y1="1955.19" x2="513.32" y2="1955.19" style="stroke:#000000;stroke-width:5.76"/>
	<text x="493.27" y="1990.22" style="font-family:'Helvetica';font-size:99.99px;fill:#000000" text-anchor="end">270</text>
	<line x1="553.29" y1="1791.71" x2="513.32" y2="1791.71" style="stroke:#000000;stroke-width:5.76"/>
	<text x="493.27" y="1826.74" style="font-family:'Helvetica';font-size:99.99px;fill:#000000" text-anchor="end">360</text>
	<line x1="553.29" y1="1628.11" x2="513.32" y2="1628.11" style="stroke:#000000;stroke-width:5.76"/>
	<text x="493.27" y="1663.13" style="font-family:'Helvetica';font-size:99.99px;fill:#000000" text-anchor="end">450</text>
	<line x1="553.29" y1="1464.63" x2="513.32" y2="1464.63" style="stroke:#000000;stroke-width:5.76"/>
	<text x="493.27" y="1499.66" style="font-family:'Helvetica';font-size:99.99px;fill:#000000" text-anchor="end">540</text>
	<line x1="553.29" y1="1301.02" x2="513.32" y2="1301.02" style="stroke:#000000;stroke-width:5.76"/>
	<text x="493.27" y="1336.05" style="font-family:'Helvetica';font-size:99.99px;fill:#000000" text-anchor="end">630</text>
	<line x1="553.29" y1="1137.42" x2="513.32" y2="1137.42" style="stroke:#000000;stroke-width:5.76"/>
	<text x="493.27" y="1172.45" style="font-family:'Helvetica';font-size:99.99px;fill:#000000" text-anchor="end">720</text>
	<line x1="553.29" y1="973.94" x2="513.32" y2="973.94" style="stroke:#000000;stroke-width:5.76"/>
	<text x="493.27" y="1008.97" style="font-family:'Helvetica';font-size:99.99px;fill:#000000" text-anchor="end">810</text>
	<line x1="553.29" y1="810.34" x2="513.32" y2="810.34" style="stroke:#000000;stroke-width:5.76"/>
	<text x="493.27" y="845.37" style="font-family:'Helvetica';font-size:99.99px;fill:#000000" text-anchor="end">900</text>
	<line x1="553.29" y1="646.86" x2="513.32" y2="646.86" style="stroke:#000000;stroke-width:5.76"/>
	<text x="493.27" y="681.89" style="font-family:'Helvetica';font-size:99.99px;fill:#000000" text-anchor="end">990</text>
	<line x1="553.29" y1="483.26" x2="513.32" y2="483.26" style="stroke:#000000;stroke-width:5.76"/>
	<text x="493.27" y="518.29" style="font-family:'Helvetica';font-size:99.99px;fill:#000000" text-anchor="end">1080</text>
	<text x="190.71" y="1464.63" style="font-family:'Helvetica';font-size:99.99px;fill:#000000" transform="rotate(-90 190.71,1464.63)" text-anchor="middle">LOS (years)</text>
	<line x1="553.29" y1="2509.23" x2="3859.02" y2="2509.23" style="stroke:#000000;stroke-width:5.76"/>
	<line x1="616.65" y1="2509.23" x2="616.65" y2="2549.21" style="stroke:#000000;stroke-width:5.76"/>
	<text x="616.65" y="2625.15" style="font-family:'Helvetica';font-size:79.94px;fill:#000000" text-anchor="middle">0</text>
	<line x1="807.35" y1="2509.23" x2="807.35" y2="2549.21" style="stroke:#000000;stroke-width:5.76"/>
	<text x="807.35" y="2625.15" style="font-family:'Helvetica';font-size:79.94px;fill:#000000" text-anchor="middle">.3</text>
	<line x1="998.17" y1="2509.23" x2="998.17" y2="2549.21" style="stroke:#000000;stroke-width:5.76"/>
	<text x="998.17" y="2625.15" style="font-family:'Helvetica';font-size:79.94px;fill:#000000" text-anchor="middle">.6</text>
	<line x1="1188.87" y1="2509.23" x2="1188.87" y2="2549.21" style="stroke:#000000;stroke-width:5.76"/>
	<text x="1188.87" y="2625.15" style="font-family:'Helvetica';font-size:79.94px;fill:#000000" text-anchor="middle">.9</text>
	<line x1="1379.57" y1="2509.23" x2="1379.57" y2="2549.21" style="stroke:#000000;stroke-width:5.76"/>
	<text x="1379.57" y="2625.15" style="font-family:'Helvetica';font-size:79.94px;fill:#000000" text-anchor="middle">1.2</text>
	<line x1="1570.39" y1="2509.23" x2="1570.39" y2="2549.21" style="stroke:#000000;stroke-width:5.76"/>
	<text x="1570.39" y="2625.15" style="font-family:'Helvetica';font-size:79.94px;fill:#000000" text-anchor="middle">1.5</text>
	<line x1="1761.09" y1="2509.23" x2="1761.09" y2="2549.21" style="stroke:#000000;stroke-width:5.76"/>
	<text x="1761.09" y="2625.15" style="font-family:'Helvetica';font-size:79.94px;fill:#000000" text-anchor="middle">1.8</text>
	<line x1="1951.91" y1="2509.23" x2="1951.91" y2="2549.21" style="stroke:#000000;stroke-width:5.76"/>
	<text x="1951.91" y="2625.15" style="font-family:'Helvetica';font-size:79.94px;fill:#000000" text-anchor="middle">2.1</text>
	<line x1="2142.61" y1="2509.23" x2="2142.61" y2="2549.21" style="stroke:#000000;stroke-width:5.76"/>
	<text x="2142.61" y="2625.15" style="font-family:'Helvetica';font-size:79.94px;fill:#000000" text-anchor="middle">2.4</text>
	<line x1="2333.31" y1="2509.23" x2="2333.31" y2="2549.21" style="stroke:#000000;stroke-width:5.76"/>
	<text x="2333.31" y="2625.15" style="font-family:'Helvetica';font-size:79.94px;fill:#000000" text-anchor="middle">2.7</text>
	<line x1="2524.13" y1="2509.23" x2="2524.13" y2="2549.21" style="stroke:#000000;stroke-width:5.76"/>
	<text x="2524.13" y="2625.15" style="font-family:'Helvetica';font-size:79.94px;fill:#000000" text-anchor="middle">3</text>
	<line x1="2714.83" y1="2509.23" x2="2714.83" y2="2549.21" style="stroke:#000000;stroke-width:5.76"/>
	<text x="2714.83" y="2625.15" style="font-family:'Helvetica';font-size:79.94px;fill:#000000" text-anchor="middle">3.3</text>
	<line x1="2905.53" y1="2509.23" x2="2905.53" y2="2549.21" style="stroke:#000000;stroke-width:5.76"/>
	<text x="2905.53" y="2625.15" style="font-family:'Helvetica';font-size:79.94px;fill:#000000" text-anchor="middle">3.6</text>
	<line x1="3096.35" y1="2509.23" x2="3096.35" y2="2549.21" style="stroke:#000000;stroke-width:5.76"/>
	<text x="3096.35" y="2625.15" style="font-family:'Helvetica';font-size:79.94px;fill:#000000" text-anchor="middle">3.9</text>
	<line x1="3287.05" y1="2509.23" x2="3287.05" y2="2549.21" style="stroke:#000000;stroke-width:5.76"/>
	<text x="3287.05" y="2625.15" style="font-family:'Helvetica';font-size:79.94px;fill:#000000" text-anchor="middle">4.2</text>
	<line x1="3477.87" y1="2509.23" x2="3477.87" y2="2549.21" style="stroke:#000000;stroke-width:5.76"/>
	<text x="3477.87" y="2625.15" style="font-family:'Helvetica';font-size:79.94px;fill:#000000" text-anchor="middle">4.5</text>
	<line x1="3668.57" y1="2509.23" x2="3668.57" y2="2549.21" style="stroke:#000000;stroke-width:5.76"/>
	<text x="3668.57" y="2625.15" style="font-family:'Helvetica';font-size:79.94px;fill:#000000" text-anchor="middle">4.8</text>
	<line x1="3859.27" y1="2509.23" x2="3859.27" y2="2549.21" style="stroke:#000000;stroke-width:5.76"/>
	<text x="3859.27" y="2625.15" style="font-family:'Helvetica';font-size:79.94px;fill:#000000" text-anchor="middle">5.1</text>
	<text x="2206.22" y="2729.16" style="font-family:'Helvetica';font-size:99.99px;fill:#000000" text-anchor="middle">Time (years)</text>
	<rect x="587.81" y="454.42" width="1369.54" height="606.39" style="fill:#FFFFFF"/>
	<rect x="590.69" y="457.30" width="1363.78" height="600.63" style="fill:none;stroke:#000000;stroke-width:5.76"/>
	<rect x="631.00" y="497.74" width="374.47" height="99.99" style="fill:#999999;fill-opacity:0.35"/>
	<rect x="635.32" y="502.06" width="365.83" height="91.35" style="fill:none;stroke:#808080;stroke-opacity:0.35;stroke-width:8.64"/>
	<rect x="631.00" y="637.70" width="374.47" height="99.99" style="fill:#333333;fill-opacity:0.35"/>
	<rect x="635.32" y="642.02" width="365.83" height="91.35" style="fill:none;stroke:#000000;stroke-opacity:0.35;stroke-width:8.64"/>
	<line x1="631.00" y1="827.67" x2="671.34" y2="827.67" style="stroke:#808080;stroke-width:8.64"/>
	<line x1="688.54" y1="827.67" x2="728.89" y2="827.67" style="stroke:#808080;stroke-width:8.64"/>
	<line x1="746.09" y1="827.67" x2="786.43" y2="827.67" style="stroke:#808080;stroke-width:8.64"/>
	<line x1="803.76" y1="827.67" x2="843.98" y2="827.67" style="stroke:#808080;stroke-width:8.64"/>
	<line x1="861.30" y1="827.67" x2="901.64" y2="827.67" style="stroke:#808080;stroke-width:8.64"/>
	<line x1="918.84" y1="827.67" x2="959.19" y2="827.67" style="stroke:#808080;stroke-width:8.64"/>
	<line x1="976.39" y1="827.67" x2="1005.47" y2="827.67" style="stroke:#808080;stroke-width:8.64"/>
	<line x1="631.00" y1="967.63" x2="1005.47" y2="967.63" style="stroke:#000000;stroke-width:8.64"/>
	<text x="1065.36" y="582.76" style="font-family:'Helvetica';font-size:99.99px;fill:#000000">Outpatient CI95%</text>
	<text x="1065.36" y="722.73" style="font-family:'Helvetica';font-size:99.99px;fill:#000000">Residential CI95%</text>
	<text x="1065.36" y="862.69" style="font-family:'Helvetica';font-size:99.99px;fill:#000000">Outpatient</text>
	<text x="1065.36" y="1002.66" style="font-family:'Helvetica';font-size:99.99px;fill:#000000">Residential</text>
	<text x="2206.22" y="369.63" style="font-family:'Helvetica';font-size:110.01px;fill:#000000" text-anchor="middle">from 3rd Readmission to 4th Readmission</text>
	<text x="2206.22" y="215.98" style="font-family:'Helvetica';font-size:139.96px;fill:#1E2D53" text-anchor="middle">Length of Stay (RP)</text>
</svg>
