<?xml version="1.0" encoding="UTF-8" standalone="no"?>
<!-- This is a Stata 16.1 generated SVG file (http://www.stata.com) -->

<svg version="1.1" width="5.50in" height="4.00in" viewBox="0 0 3960 2880" xmlns="http://www.w3.org/2000/svg" xmlns:xlink="http://www.w3.org/1999/xlink">
	<desc>Stata Graph - los_models45</desc>
	<rect x="0" y="0" width="3960" height="2880" style="fill:#EAF2F3;stroke:none"/>
	<rect x="0.00" y="0.00" width="3959.88" height="2880.00" style="fill:#FFFFFF"/>
	<rect x="2.88" y="2.88" width="3954.12" height="2874.24" style="fill:none;stroke:#FFFFFF;stroke-width:5.76"/>
	<rect x="553.29" y="419.90" width="3305.73" height="2089.34" style="fill:#FFFFFF"/>
	<rect x="556.17" y="422.78" width="3299.97" height="2083.58" style="fill:none;stroke:#FFFFFF;stroke-width:5.76"/>
	<line x1="553.29" y1="2445.87" x2="3859.02" y2="2445.87" style="stroke:#EAF2F3;stroke-width:8.64"/>
	<line x1="553.29" y1="2282.27" x2="3859.02" y2="2282.27" style="stroke:#EAF2F3;stroke-width:8.64"/>
	<line x1="553.29" y1="2118.79" x2="3859.02" y2="2118.79" style="stroke:#EAF2F3;stroke-width:8.64"/>
	<line x1="553.29" y1="1955.19" x2="3859.02" y2="1955.19" style="stroke:#EAF2F3;stroke-width:8.64"/>
	<line x1="553.29" y1="1791.71" x2="3859.02" y2="1791.71" style="stroke:#EAF2F3;stroke-width:8.64"/>
	<line x1="553.29" y1="1628.11" x2="3859.02" y2="1628.11" style="stroke:#EAF2F3;stroke-width:8.64"/>
	<line x1="553.29" y1="1464.63" x2="3859.02" y2="1464.63" style="stroke:#EAF2F3;stroke-width:8.64"/>
	<line x1="553.29" y1="1301.02" x2="3859.02" y2="1301.02" style="stroke:#EAF2F3;stroke-width:8.64"/>
	<line x1="553.29" y1="1137.42" x2="3859.02" y2="1137.42" style="stroke:#EAF2F3;stroke-width:8.64"/>
	<line x1="553.29" y1="973.94" x2="3859.02" y2="973.94" style="stroke:#EAF2F3;stroke-width:8.64"/>
	<line x1="553.29" y1="810.34" x2="3859.02" y2="810.34" style="stroke:#EAF2F3;stroke-width:8.64"/>
	<line x1="553.29" y1="646.86" x2="3859.02" y2="646.86" style="stroke:#EAF2F3;stroke-width:8.64"/>
	<defs>
		<path id="path_zNgpxIsq" d="M773.19 2444.63 L773.19 2444.63 L790.14 2444.63 L790.14 2444.26 L806.97 2444.26 L806.97 2443.89 L823.93 2443.89 L823.93 2443.40 L840.76 2443.40 L840.76 2442.78 L857.71 2442.78 L857.71 2442.16 L874.54 2442.16 L874.54 2441.42 L891.50 2441.42 L891.50 2440.67 L908.33 2440.67 L908.33 2439.81 L925.15 2439.81 L925.15 2438.94 L942.11 2438.94 L942.11 2437.95 L958.94 2437.95 L958.94 2436.84 L975.89 2436.84 L975.89 2435.72 L992.72 2435.72 L992.72 2434.49 L1009.68 2434.49 L1009.68 2433.25 L1026.51 2433.25 L1026.51 2431.89 L1043.46 2431.89 L1043.46 2430.53 L1060.29 2430.53 L1060.29 2429.04 L1077.12 2429.04 L1077.12 2427.43 L1094.07 2427.43 L1094.07 2425.82 L1110.90 2425.82 L1110.90 2424.21 L1127.86 2424.21 L1127.86 2422.48 L1144.69 2422.48 L1144.69 2420.63 L1161.64 2420.63 L1161.64 2418.65 L1178.47 2418.65 L1178.47 2416.67 L1195.42 2416.67 L1195.42 2414.69 L1212.26 2414.69 L1212.26 2412.58 L1229.09 2412.58 L1229.09 2410.35 L1246.04 2410.35 L1246.04 2408.13 L1262.87 2408.13 L1262.87 2405.90 L1279.82 2405.90 L1279.82 2403.42 L1296.65 2403.42 L1296.65 2401.07 L1313.61 2401.07 L1313.61 2398.47 L1330.44 2398.47 L1330.44 2396.00 L1347.39 2396.00 L1347.39 2393.40 L1364.22 2393.40 L1364.22 2390.68 L1381.17 2390.68 L1381.17 2387.95 L1398.00 2387.95 L1398.00 2385.11 L1414.83 2385.11 L1414.83 2382.26 L1431.79 2382.26 L1431.79 2379.29 L1448.62 2379.29 L1448.62 2376.32 L1465.57 2376.32 L1465.57 2373.23 L1482.40 2373.23 L1482.40 2370.13 L1499.36 2370.13 L1499.36 2366.92 L1516.18 2366.92 L1516.18 2363.70 L1533.14 2363.70 L1533.14 2360.36 L1549.97 2360.36 L1549.97 2357.02 L1566.80 2357.02 L1566.80 2353.67 L1583.75 2353.67 L1583.75 2350.09 L1600.58 2350.09 L1600.58 2346.62 L1617.54 2346.62 L1617.54 2343.03 L1634.37 2343.03 L1634.37 2339.44 L1651.32 2339.44 L1651.32 2335.73 L1668.15 2335.73 L1668.15 2332.02 L1685.10 2332.02 L1685.10 2328.18 L1701.93 2328.18 L1701.93 2324.35 L1718.76 2324.35 L1718.76 2320.39 L1735.72 2320.39 L1735.72 2316.42 L1752.55 2316.42 L1752.55 2312.46 L1769.50 2312.46 L1769.50 2308.38 L1786.33 2308.38 L1786.33 2304.30 L1803.29 2304.30 L1803.29 2300.09 L1820.12 2300.09 L1820.12 2295.88 L1837.07 2295.88 L1837.07 2291.67 L1853.90 2291.67 L1853.90 2287.34 L1870.73 2287.34 L1870.73 2283.01 L1887.68 2283.01 L1887.68 2278.68 L1904.51 2278.68 L1904.51 2274.22 L1921.47 2274.22 L1921.47 2269.65 L1938.30 2269.65 L1938.30 2265.19 L1955.25 2265.19 L1955.25 2260.61 L1972.08 2260.61 L1972.08 2255.91 L1989.03 2255.91 L1989.03 2251.21 L2005.86 2251.21 L2005.86 2246.50 L2022.82 2246.50 L2022.82 2241.80 L2039.65 2241.80 L2039.65 2236.97 L2056.48 2236.97 L2056.48 2232.02 L2073.43 2232.02 L2073.43 2227.20 L2090.26 2227.20 L2090.26 2222.25 L2107.22 2222.25 L2107.22 2217.17 L2124.05 2217.17 L2124.05 2212.10 L2141.00 2212.10 L2141.00 2207.03 L2157.83 2207.03 L2157.83 2201.95 L2174.78 2201.95 L2174.78 2196.75 L2191.61 2196.75 L2191.61 2191.56 L2208.44 2191.56 L2208.44 2186.24 L2225.40 2186.24 L2225.40 2180.91 L2242.23 2180.91 L2242.23 2175.59 L2259.18 2175.59 L2259.18 2170.27 L2276.01 2170.27 L2276.01 2164.83 L2292.96 2164.83 L2292.96 2159.38 L2309.79 2159.38 L2309.79 2153.81 L2326.75 2153.81 L2326.75 2148.24 L2343.58 2148.24 L2343.58 2142.67 L2360.41 2142.67 L2360.41 2137.11 L2377.36 2137.11 L2377.36 2131.41 L2394.19 2131.41 L2394.19 2125.72 L2411.14 2125.72 L2411.14 2119.90 L2427.97 2119.90 L2427.97 2114.09 L2444.93 2114.09 L2444.93 2108.27 L2461.76 2108.27 L2461.76 2102.45 L2478.71 2102.45 L2478.71 2096.51 L2495.54 2096.51 L2495.54 2090.57 L2512.37 2090.57 L2512.37 2084.63 L2529.33 2084.63 L2529.33 2078.69 L2546.16 2078.69 L2546.16 2072.63 L2563.11 2072.63 L2563.11 2066.57 L2579.94 2066.57 L2579.94 2060.38 L2596.89 2060.38 L2596.89 2054.31 L2613.72 2054.31 L2613.72 2048.13 L2630.68 2048.13 L2630.68 2041.82 L2647.51 2041.82 L2647.51 2035.63 L2664.46 2035.63 L2664.46 2029.32 L2681.29 2029.32 L2681.29 2022.88 L2698.12 2022.88 L2698.12 2016.57 L2715.07 2016.57 L2715.07 2010.13 L2731.91 2010.13 L2731.91 2003.70 L2748.86 2003.70 L2748.86 1997.26 L2765.69 1997.26 L2765.69 1990.70 L2782.64 1990.70 L2782.64 1984.15 L2799.47 1984.15 L2799.47 1977.59 L2816.43 1977.59 L2816.43 1971.03 L2833.26 1971.03 L2833.26 1964.35 L2850.09 1964.35 L2850.09 1957.79 L2867.04 1957.79 L2867.04 1950.98 L2883.87 1950.98 L2883.87 1944.30 L2900.82 1944.30 L2900.82 1937.61 L2917.65 1937.61 L2917.65 1930.81 L2934.61 1930.81 L2934.61 1924.00 L2951.44 1924.00 L2951.44 1917.07 L2968.39 1917.07 L2968.39 1910.14 L2985.22 1910.14 L2985.22 1903.33 L3002.05 1903.33 L3002.05 1896.28 L3019.01 1896.28 L3019.01 1889.35 L3035.84 1889.35 L3035.84 1882.30 L3052.79 1882.30 L3052.79 1875.24 L3069.62 1875.24 L3069.62 1868.19 L3086.57 1868.19 L3086.57 1861.13 L3103.40 1861.13 L3103.40 1853.96 L3120.36 1853.96 L3120.36 1846.78 L3137.19 1846.78 L3137.19 1839.60 L3154.02 1839.60 L3154.02 1832.42 L3170.97 1832.42 L3170.97 1825.12 L3187.80 1825.12 L3187.80 1817.82 L3204.75 1817.82 L3204.75 1810.52 L3221.58 1810.52 L3221.58 1803.22 L3238.54 1803.22 L3238.54 1795.79 L3255.37 1795.79 L3255.37 1788.49 L3272.32 1788.49 L3272.32 1781.07 L3289.15 1781.07 L3289.15 1773.64 L3306.11 1773.64 L3306.11 1766.09 L3322.93 1766.09 L3322.93 1758.67 L3339.76 1758.67 L3339.76 1751.12 L3356.72 1751.12 L3356.72 1743.57 L3373.55 1743.57 L3373.55 1735.90 L3390.50 1735.90 L3390.50 1728.35 L3407.33 1728.35 L3407.33 1720.67 L3424.29 1720.67 L3424.29 1713.00 L3441.12 1713.00 L3441.12 1705.33 L3458.07 1705.33 L3458.07 1697.66 L3474.90 1697.66 L3474.90 1689.86 L3491.73 1689.86 L3491.73 1682.06 L3508.68 1682.06 L3508.68 1674.27 L3525.51 1674.27 L3525.51 1666.47 L3542.47 1666.47 L3542.47 1658.55 L3559.30 1658.55 L3559.30 1650.75 L3576.25 1650.75 L3576.25 1642.83 L3593.08 1642.83 L3593.08 1634.91 L3610.03 1634.91 L3610.03 1626.87 L3626.86 1626.87 L3626.86 1618.95 L3643.70 1618.95 L3643.70 1610.90 L3660.65 1610.90 L3660.65 1602.86 L3677.48 1602.86 L3677.48 1594.82 L3694.43 1594.82 L3694.43 1586.77 L3711.26 1586.77 L3711.26 1578.73 L3728.22 1578.73 L3728.22 1570.56 L3745.05 1570.56 L3745.05 1562.39 L3762.00 1562.39 L3762.00 1554.22 L3778.83 1554.22 L3778.83 1546.06 L3795.78 1546.06 L3795.78 1537.77 L3795.78 852.54 L3795.78 864.92 L3778.83 864.92 L3778.83 877.41 L3762.00 877.41 L3762.00 889.79 L3745.05 889.79 L3745.05 902.29 L3728.22 902.29 L3728.22 914.66 L3711.26 914.66 L3711.26 926.92 L3694.43 926.92 L3694.43 939.29 L3677.48 939.29 L3677.48 951.67 L3660.65 951.67 L3660.65 963.92 L3643.70 963.92 L3643.70 976.17 L3626.86 976.17 L3626.86 988.42 L3610.03 988.42 L3610.03 1000.67 L3593.08 1000.67 L3593.08 1012.80 L3576.25 1012.80 L3576.25 1025.05 L3559.30 1025.05 L3559.30 1037.18 L3542.47 1037.18 L3542.47 1049.31 L3525.51 1049.31 L3525.51 1061.44 L3508.68 1061.44 L3508.68 1073.44 L3491.73 1073.44 L3491.73 1085.57 L3474.90 1085.57 L3474.90 1097.57 L3458.07 1097.57 L3458.07 1109.58 L3441.12 1109.58 L3441.12 1121.58 L3424.29 1121.58 L3424.29 1133.46 L3407.33 1133.46 L3407.33 1145.47 L3390.50 1145.47 L3390.50 1157.35 L3373.55 1157.35 L3373.55 1169.23 L3356.72 1169.23 L3356.72 1180.98 L3339.76 1180.98 L3339.76 1192.86 L3322.93 1192.86 L3322.93 1204.62 L3306.11 1204.62 L3306.11 1216.38 L3289.15 1216.38 L3289.15 1228.13 L3272.32 1228.13 L3272.32 1239.77 L3255.37 1239.77 L3255.37 1251.52 L3238.54 1251.52 L3238.54 1263.16 L3221.58 1263.16 L3221.58 1274.79 L3204.75 1274.79 L3204.75 1286.30 L3187.80 1286.30 L3187.80 1297.93 L3170.97 1297.93 L3170.97 1309.44 L3154.02 1309.44 L3154.02 1320.95 L3137.19 1320.95 L3137.19 1332.46 L3120.36 1332.46 L3120.36 1343.97 L3103.40 1343.97 L3103.40 1355.35 L3086.57 1355.35 L3086.57 1366.74 L3069.62 1366.74 L3069.62 1378.12 L3052.79 1378.12 L3052.79 1389.51 L3035.84 1389.51 L3035.84 1400.77 L3019.01 1400.77 L3019.01 1412.03 L3002.05 1412.03 L3002.05 1423.29 L2985.22 1423.29 L2985.22 1434.55 L2968.39 1434.55 L2968.39 1445.69 L2951.44 1445.69 L2951.44 1456.83 L2934.61 1456.83 L2934.61 1467.97 L2917.65 1467.97 L2917.65 1478.98 L2900.82 1478.98 L2900.82 1490.12 L2883.87 1490.12 L2883.87 1501.13 L2867.04 1501.13 L2867.04 1512.02 L2850.09 1512.02 L2850.09 1523.04 L2833.26 1523.04 L2833.26 1533.93 L2816.43 1533.93 L2816.43 1544.82 L2799.47 1544.82 L2799.47 1555.59 L2782.64 1555.59 L2782.64 1566.48 L2765.69 1566.48 L2765.69 1577.24 L2748.86 1577.24 L2748.86 1588.01 L2731.91 1588.01 L2731.91 1598.78 L2715.07 1598.78 L2715.07 1609.42 L2698.12 1609.42 L2698.12 1620.06 L2681.29 1620.06 L2681.29 1630.70 L2664.46 1630.70 L2664.46 1641.22 L2647.51 1641.22 L2647.51 1651.87 L2630.68 1651.87 L2630.68 1662.26 L2613.72 1662.26 L2613.72 1672.78 L2596.89 1672.78 L2596.89 1683.18 L2579.94 1683.18 L2579.94 1693.57 L2563.11 1693.57 L2563.11 1703.84 L2546.16 1703.84 L2546.16 1714.24 L2529.33 1714.24 L2529.33 1724.39 L2512.37 1724.39 L2512.37 1734.66 L2495.54 1734.66 L2495.54 1744.81 L2478.71 1744.81 L2478.71 1754.95 L2461.76 1754.95 L2461.76 1765.10 L2444.93 1765.10 L2444.93 1775.13 L2427.97 1775.13 L2427.97 1785.15 L2411.14 1785.15 L2411.14 1795.05 L2394.19 1795.05 L2394.19 1805.07 L2377.36 1805.07 L2377.36 1814.85 L2360.41 1814.85 L2360.41 1824.75 L2343.58 1824.75 L2343.58 1834.53 L2326.75 1834.53 L2326.75 1844.30 L2309.79 1844.30 L2309.79 1853.96 L2292.96 1853.96 L2292.96 1863.61 L2276.01 1863.61 L2276.01 1873.26 L2259.18 1873.26 L2259.18 1882.79 L2242.23 1882.79 L2242.23 1892.32 L2225.40 1892.32 L2225.40 1901.85 L2208.44 1901.85 L2208.44 1911.25 L2191.61 1911.25 L2191.61 1920.54 L2174.78 1920.54 L2174.78 1929.94 L2157.83 1929.94 L2157.83 1939.22 L2141.00 1939.22 L2141.00 1948.38 L2124.05 1948.38 L2124.05 1957.54 L2107.22 1957.54 L2107.22 1966.70 L2090.26 1966.70 L2090.26 1975.73 L2073.43 1975.73 L2073.43 1984.76 L2056.48 1984.76 L2056.48 1993.67 L2039.65 1993.67 L2039.65 2002.59 L2022.82 2002.59 L2022.82 2011.37 L2005.86 2011.37 L2005.86 2020.16 L1989.03 2020.16 L1989.03 2028.94 L1972.08 2028.94 L1972.08 2037.61 L1955.25 2037.61 L1955.25 2046.15 L1938.30 2046.15 L1938.30 2054.81 L1921.47 2054.81 L1921.47 2063.22 L1904.51 2063.22 L1904.51 2071.64 L1887.68 2071.64 L1887.68 2080.06 L1870.73 2080.06 L1870.73 2088.35 L1853.90 2088.35 L1853.90 2096.64 L1837.07 2096.64 L1837.07 2104.81 L1820.12 2104.81 L1820.12 2112.97 L1803.29 2112.97 L1803.29 2121.02 L1786.33 2121.02 L1786.33 2129.06 L1769.50 2129.06 L1769.50 2136.98 L1752.55 2136.98 L1752.55 2144.90 L1735.72 2144.90 L1735.72 2152.70 L1718.76 2152.70 L1718.76 2160.37 L1701.93 2160.37 L1701.93 2168.04 L1685.10 2168.04 L1685.10 2175.72 L1668.15 2175.72 L1668.15 2183.27 L1651.32 2183.27 L1651.32 2190.69 L1634.37 2190.69 L1634.37 2198.12 L1617.54 2198.12 L1617.54 2205.42 L1600.58 2205.42 L1600.58 2212.72 L1583.75 2212.72 L1583.75 2219.90 L1566.80 2219.90 L1566.80 2226.95 L1549.97 2226.95 L1549.97 2234.00 L1533.14 2234.00 L1533.14 2240.94 L1516.18 2240.94 L1516.18 2247.74 L1499.36 2247.74 L1499.36 2254.55 L1482.40 2254.55 L1482.40 2261.23 L1465.57 2261.23 L1465.57 2267.79 L1448.62 2267.79 L1448.62 2274.22 L1431.79 2274.22 L1431.79 2280.66 L1414.83 2280.66 L1414.83 2286.97 L1398.00 2286.97 L1398.00 2293.16 L1381.17 2293.16 L1381.17 2299.22 L1364.22 2299.22 L1364.22 2305.29 L1347.39 2305.29 L1347.39 2311.23 L1330.44 2311.23 L1330.44 2317.04 L1313.61 2317.04 L1313.61 2322.86 L1296.65 2322.86 L1296.65 2328.43 L1279.82 2328.43 L1279.82 2334.00 L1262.87 2334.00 L1262.87 2339.44 L1246.04 2339.44 L1246.04 2344.76 L1229.09 2344.76 L1229.09 2349.96 L1212.26 2349.96 L1212.26 2355.16 L1195.42 2355.16 L1195.42 2360.11 L1178.47 2360.11 L1178.47 2364.94 L1161.64 2364.94 L1161.64 2369.76 L1144.69 2369.76 L1144.69 2374.34 L1127.86 2374.34 L1127.86 2378.92 L1110.90 2378.92 L1110.90 2383.25 L1094.07 2383.25 L1094.07 2387.46 L1077.12 2387.46 L1077.12 2391.54 L1060.29 2391.54 L1060.29 2395.63 L1043.46 2395.63 L1043.46 2399.46 L1026.51 2399.46 L1026.51 2403.18 L1009.68 2403.18 L1009.68 2406.77 L992.72 2406.77 L992.72 2410.23 L975.89 2410.23 L975.89 2413.45 L958.94 2413.45 L958.94 2416.67 L942.11 2416.67 L942.11 2419.64 L925.15 2419.64 L925.15 2422.48 L908.33 2422.48 L908.33 2425.20 L891.50 2425.20 L891.50 2427.80 L874.54 2427.80 L874.54 2430.15 L857.71 2430.15 L857.71 2432.38 L840.76 2432.38 L840.76 2434.49 L823.93 2434.49 L823.93 2436.47 L806.97 2436.47 L806.97 2438.20 L790.14 2438.20 L790.14 2439.68 L773.19 2439.68 L773.19 2444.63 Z" stroke-linejoin="round"/>
	</defs>
	<defs>
		<clipPath id="clipPath_IOkQTIDX">
			<use xlink:href="#path_zNgpxIsq"/>
		</clipPath>
	</defs>
	<use xlink:href="#path_zNgpxIsq" style="stroke:none;fill:#999999;fill-opacity:0.35"/>
	<use xlink:href="#path_zNgpxIsq" style="fill:none;stroke:#808080;stroke-opacity:0.35;stroke-width:17.28" clip-path="url(#clipPath_IOkQTIDX)"/>
	<defs>
		<path id="path_sQkLnSFF" d="M773.19 2444.63 L773.19 2444.63 L790.14 2444.63 L790.14 2444.26 L806.97 2444.26 L806.97 2443.89 L823.93 2443.89 L823.93 2443.40 L840.76 2443.40 L840.76 2442.78 L857.71 2442.78 L857.71 2442.16 L874.54 2442.16 L874.54 2441.42 L891.50 2441.42 L891.50 2440.67 L908.33 2440.67 L908.33 2439.81 L925.15 2439.81 L925.15 2438.94 L942.11 2438.94 L942.11 2437.95 L958.94 2437.95 L958.94 2436.84 L975.89 2436.84 L975.89 2435.72 L992.72 2435.72 L992.72 2434.49 L1009.68 2434.49 L1009.68 2433.25 L1026.51 2433.25 L1026.51 2431.89 L1043.46 2431.89 L1043.46 2430.53 L1060.29 2430.53 L1060.29 2429.04 L1077.12 2429.04 L1077.12 2427.43 L1094.07 2427.43 L1094.07 2425.82 L1110.90 2425.82 L1110.90 2424.21 L1127.86 2424.21 L1127.86 2422.48 L1144.69 2422.48 L1144.69 2420.63 L1161.64 2420.63 L1161.64 2418.65 L1178.47 2418.65 L1178.47 2416.67 L1195.42 2416.67 L1195.42 2414.69 L1212.26 2414.69 L1212.26 2412.58 L1229.09 2412.58 L1229.09 2410.35 L1246.04 2410.35 L1246.04 2408.13 L1262.87 2408.13 L1262.87 2405.90 L1279.82 2405.90 L1279.82 2403.42 L1296.65 2403.42 L1296.65 2401.07 L1313.61 2401.07 L1313.61 2398.47 L1330.44 2398.47 L1330.44 2396.00 L1347.39 2396.00 L1347.39 2393.40 L1364.22 2393.40 L1364.22 2390.68 L1381.17 2390.68 L1381.17 2387.95 L1398.00 2387.95 L1398.00 2385.11 L1414.83 2385.11 L1414.83 2382.26 L1431.79 2382.26 L1431.79 2379.29 L1448.62 2379.29 L1448.62 2376.32 L1465.57 2376.32 L1465.57 2373.23 L1482.40 2373.23 L1482.40 2370.13 L1499.36 2370.13 L1499.36 2366.92 L1516.18 2366.92 L1516.18 2363.70 L1533.14 2363.70 L1533.14 2360.36 L1549.97 2360.36 L1549.97 2357.02 L1566.80 2357.02 L1566.80 2353.67 L1583.75 2353.67 L1583.75 2350.09 L1600.58 2350.09 L1600.58 2346.62 L1617.54 2346.62 L1617.54 2343.03 L1634.37 2343.03 L1634.37 2339.44 L1651.32 2339.44 L1651.32 2335.73 L1668.15 2335.73 L1668.15 2332.02 L1685.10 2332.02 L1685.10 2328.18 L1701.93 2328.18 L1701.93 2324.35 L1718.76 2324.35 L1718.76 2320.39 L1735.72 2320.39 L1735.72 2316.42 L1752.55 2316.42 L1752.55 2312.46 L1769.50 2312.46 L1769.50 2308.38 L1786.33 2308.38 L1786.33 2304.30 L1803.29 2304.30 L1803.29 2300.09 L1820.12 2300.09 L1820.12 2295.88 L1837.07 2295.88 L1837.07 2291.67 L1853.90 2291.67 L1853.90 2287.34 L1870.73 2287.34 L1870.73 2283.01 L1887.68 2283.01 L1887.68 2278.68 L1904.51 2278.68 L1904.51 2274.22 L1921.47 2274.22 L1921.47 2269.65 L1938.30 2269.65 L1938.30 2265.19 L1955.25 2265.19 L1955.25 2260.61 L1972.08 2260.61 L1972.08 2255.91 L1989.03 2255.91 L1989.03 2251.21 L2005.86 2251.21 L2005.86 2246.50 L2022.82 2246.50 L2022.82 2241.80 L2039.65 2241.80 L2039.65 2236.97 L2056.48 2236.97 L2056.48 2232.02 L2073.43 2232.02 L2073.43 2227.20 L2090.26 2227.20 L2090.26 2222.25 L2107.22 2222.25 L2107.22 2217.17 L2124.05 2217.17 L2124.05 2212.10 L2141.00 2212.10 L2141.00 2207.03 L2157.83 2207.03 L2157.83 2201.95 L2174.78 2201.95 L2174.78 2196.75 L2191.61 2196.75 L2191.61 2191.56 L2208.44 2191.56 L2208.44 2186.24 L2225.40 2186.24 L2225.40 2180.91 L2242.23 2180.91 L2242.23 2175.59 L2259.18 2175.59 L2259.18 2170.27 L2276.01 2170.27 L2276.01 2164.83 L2292.96 2164.83 L2292.96 2159.38 L2309.79 2159.38 L2309.79 2153.81 L2326.75 2153.81 L2326.75 2148.24 L2343.58 2148.24 L2343.58 2142.67 L2360.41 2142.67 L2360.41 2137.11 L2377.36 2137.11 L2377.36 2131.41 L2394.19 2131.41 L2394.19 2125.72 L2411.14 2125.72 L2411.14 2119.90 L2427.97 2119.90 L2427.97 2114.09 L2444.93 2114.09 L2444.93 2108.27 L2461.76 2108.27 L2461.76 2102.45 L2478.71 2102.45 L2478.71 2096.51 L2495.54 2096.51 L2495.54 2090.57 L2512.37 2090.57 L2512.37 2084.63 L2529.33 2084.63 L2529.33 2078.69 L2546.16 2078.69 L2546.16 2072.63 L2563.11 2072.63 L2563.11 2066.57 L2579.94 2066.57 L2579.94 2060.38 L2596.89 2060.38 L2596.89 2054.31 L2613.72 2054.31 L2613.72 2048.13 L2630.68 2048.13 L2630.68 2041.82 L2647.51 2041.82 L2647.51 2035.63 L2664.46 2035.63 L2664.46 2029.32 L2681.29 2029.32 L2681.29 2022.88 L2698.12 2022.88 L2698.12 2016.57 L2715.07 2016.57 L2715.07 2010.13 L2731.91 2010.13 L2731.91 2003.70 L2748.86 2003.70 L2748.86 1997.26 L2765.69 1997.26 L2765.69 1990.70 L2782.64 1990.70 L2782.64 1984.15 L2799.47 1984.15 L2799.47 1977.59 L2816.43 1977.59 L2816.43 1971.03 L2833.26 1971.03 L2833.26 1964.35 L2850.09 1964.35 L2850.09 1957.79 L2867.04 1957.79 L2867.04 1950.98 L2883.87 1950.98 L2883.87 1944.30 L2900.82 1944.30 L2900.82 1937.61 L2917.65 1937.61 L2917.65 1930.81 L2934.61 1930.81 L2934.61 1924.00 L2951.44 1924.00 L2951.44 1917.07 L2968.39 1917.07 L2968.39 1910.14 L2985.22 1910.14 L2985.22 1903.33 L3002.05 1903.33 L3002.05 1896.28 L3019.01 1896.28 L3019.01 1889.35 L3035.84 1889.35 L3035.84 1882.30 L3052.79 1882.30 L3052.79 1875.24 L3069.62 1875.24 L3069.62 1868.19 L3086.57 1868.19 L3086.57 1861.13 L3103.40 1861.13 L3103.40 1853.96 L3120.36 1853.96 L3120.36 1846.78 L3137.19 1846.78 L3137.19 1839.60 L3154.02 1839.60 L3154.02 1832.42 L3170.97 1832.42 L3170.97 1825.12 L3187.80 1825.12 L3187.80 1817.82 L3204.75 1817.82 L3204.75 1810.52 L3221.58 1810.52 L3221.58 1803.22 L3238.54 1803.22 L3238.54 1795.79 L3255.37 1795.79 L3255.37 1788.49 L3272.32 1788.49 L3272.32 1781.07 L3289.15 1781.07 L3289.15 1773.64 L3306.11 1773.64 L3306.11 1766.09 L3322.93 1766.09 L3322.93 1758.67 L3339.76 1758.67 L3339.76 1751.12 L3356.72 1751.12 L3356.72 1743.57 L3373.55 1743.57 L3373.55 1735.90 L3390.50 1735.90 L3390.50 1728.35 L3407.33 1728.35 L3407.33 1720.67 L3424.29 1720.67 L3424.29 1713.00 L3441.12 1713.00 L3441.12 1705.33 L3458.07 1705.33 L3458.07 1697.66 L3474.90 1697.66 L3474.90 1689.86 L3491.73 1689.86 L3491.73 1682.06 L3508.68 1682.06 L3508.68 1674.27 L3525.51 1674.27 L3525.51 1666.47 L3542.47 1666.47 L3542.47 1658.55 L3559.30 1658.55 L3559.30 1650.75 L3576.25 1650.75 L3576.25 1642.83 L3593.08 1642.83 L3593.08 1634.91 L3610.03 1634.91 L3610.03 1626.87 L3626.86 1626.87 L3626.86 1618.95 L3643.70 1618.95 L3643.70 1610.90 L3660.65 1610.90 L3660.65 1602.86 L3677.48 1602.86 L3677.48 1594.82 L3694.43 1594.82 L3694.43 1586.77 L3711.26 1586.77 L3711.26 1578.73 L3728.22 1578.73 L3728.22 1570.56 L3745.05 1570.56 L3745.05 1562.39 L3762.00 1562.39 L3762.00 1554.22 L3778.83 1554.22 L3778.83 1546.06 L3795.78 1546.06 L3795.78 1537.77 L3795.78 852.54 L3795.78 864.92 L3778.83 864.92 L3778.83 877.41 L3762.00 877.41 L3762.00 889.79 L3745.05 889.79 L3745.05 902.29 L3728.22 902.29 L3728.22 914.66 L3711.26 914.66 L3711.26 926.92 L3694.43 926.92 L3694.43 939.29 L3677.48 939.29 L3677.48 951.67 L3660.65 951.67 L3660.65 963.92 L3643.70 963.92 L3643.70 976.17 L3626.86 976.17 L3626.86 988.42 L3610.03 988.42 L3610.03 1000.67 L3593.08 1000.67 L3593.08 1012.80 L3576.25 1012.80 L3576.25 1025.05 L3559.30 1025.05 L3559.30 1037.18 L3542.47 1037.18 L3542.47 1049.31 L3525.51 1049.31 L3525.51 1061.44 L3508.68 1061.44 L3508.68 1073.44 L3491.73 1073.44 L3491.73 1085.57 L3474.90 1085.57 L3474.90 1097.57 L3458.07 1097.57 L3458.07 1109.58 L3441.12 1109.58 L3441.12 1121.58 L3424.29 1121.58 L3424.29 1133.46 L3407.33 1133.46 L3407.33 1145.47 L3390.50 1145.47 L3390.50 1157.35 L3373.55 1157.35 L3373.55 1169.23 L3356.72 1169.23 L3356.72 1180.98 L3339.76 1180.98 L3339.76 1192.86 L3322.93 1192.86 L3322.93 1204.62 L3306.11 1204.62 L3306.11 1216.38 L3289.15 1216.38 L3289.15 1228.13 L3272.32 1228.13 L3272.32 1239.77 L3255.37 1239.77 L3255.37 1251.52 L3238.54 1251.52 L3238.54 1263.16 L3221.58 1263.16 L3221.58 1274.79 L3204.75 1274.79 L3204.75 1286.30 L3187.80 1286.30 L3187.80 1297.93 L3170.97 1297.93 L3170.97 1309.44 L3154.02 1309.44 L3154.02 1320.95 L3137.19 1320.95 L3137.19 1332.46 L3120.36 1332.46 L3120.36 1343.97 L3103.40 1343.97 L3103.40 1355.35 L3086.57 1355.35 L3086.57 1366.74 L3069.62 1366.74 L3069.62 1378.12 L3052.79 1378.12 L3052.79 1389.51 L3035.84 1389.51 L3035.84 1400.77 L3019.01 1400.77 L3019.01 1412.03 L3002.05 1412.03 L3002.05 1423.29 L2985.22 1423.29 L2985.22 1434.55 L2968.39 1434.55 L2968.39 1445.69 L2951.44 1445.69 L2951.44 1456.83 L2934.61 1456.83 L2934.61 1467.97 L2917.65 1467.97 L2917.65 1478.98 L2900.82 1478.98 L2900.82 1490.12 L2883.87 1490.12 L2883.87 1501.13 L2867.04 1501.13 L2867.04 1512.02 L2850.09 1512.02 L2850.09 1523.04 L2833.26 1523.04 L2833.26 1533.93 L2816.43 1533.93 L2816.43 1544.82 L2799.47 1544.82 L2799.47 1555.59 L2782.64 1555.59 L2782.64 1566.48 L2765.69 1566.48 L2765.69 1577.24 L2748.86 1577.24 L2748.86 1588.01 L2731.91 1588.01 L2731.91 1598.78 L2715.07 1598.78 L2715.07 1609.42 L2698.12 1609.42 L2698.12 1620.06 L2681.29 1620.06 L2681.29 1630.70 L2664.46 1630.70 L2664.46 1641.22 L2647.51 1641.22 L2647.51 1651.87 L2630.68 1651.87 L2630.68 1662.26 L2613.72 1662.26 L2613.72 1672.78 L2596.89 1672.78 L2596.89 1683.18 L2579.94 1683.18 L2579.94 1693.57 L2563.11 1693.57 L2563.11 1703.84 L2546.16 1703.84 L2546.16 1714.24 L2529.33 1714.24 L2529.33 1724.39 L2512.37 1724.39 L2512.37 1734.66 L2495.54 1734.66 L2495.54 1744.81 L2478.71 1744.81 L2478.71 1754.95 L2461.76 1754.95 L2461.76 1765.10 L2444.93 1765.10 L2444.93 1775.13 L2427.97 1775.13 L2427.97 1785.15 L2411.14 1785.15 L2411.14 1795.05 L2394.19 1795.05 L2394.19 1805.07 L2377.36 1805.07 L2377.36 1814.85 L2360.41 1814.85 L2360.41 1824.75 L2343.58 1824.75 L2343.58 1834.53 L2326.75 1834.53 L2326.75 1844.30 L2309.79 1844.30 L2309.79 1853.96 L2292.96 1853.96 L2292.96 1863.61 L2276.01 1863.61 L2276.01 1873.26 L2259.18 1873.26 L2259.18 1882.79 L2242.23 1882.79 L2242.23 1892.32 L2225.40 1892.32 L2225.40 1901.85 L2208.44 1901.85 L2208.44 1911.25 L2191.61 1911.25 L2191.61 1920.54 L2174.78 1920.54 L2174.78 1929.94 L2157.83 1929.94 L2157.83 1939.22 L2141.00 1939.22 L2141.00 1948.38 L2124.05 1948.38 L2124.05 1957.54 L2107.22 1957.54 L2107.22 1966.70 L2090.26 1966.70 L2090.26 1975.73 L2073.43 1975.73 L2073.43 1984.76 L2056.48 1984.76 L2056.48 1993.67 L2039.65 1993.67 L2039.65 2002.59 L2022.82 2002.59 L2022.82 2011.37 L2005.86 2011.37 L2005.86 2020.16 L1989.03 2020.16 L1989.03 2028.94 L1972.08 2028.94 L1972.08 2037.61 L1955.25 2037.61 L1955.25 2046.15 L1938.30 2046.15 L1938.30 2054.81 L1921.47 2054.81 L1921.47 2063.22 L1904.51 2063.22 L1904.51 2071.64 L1887.68 2071.64 L1887.68 2080.06 L1870.73 2080.06 L1870.73 2088.35 L1853.90 2088.35 L1853.90 2096.64 L1837.07 2096.64 L1837.07 2104.81 L1820.12 2104.81 L1820.12 2112.97 L1803.29 2112.97 L1803.29 2121.02 L1786.33 2121.02 L1786.33 2129.06 L1769.50 2129.06 L1769.50 2136.98 L1752.55 2136.98 L1752.55 2144.90 L1735.72 2144.90 L1735.72 2152.70 L1718.76 2152.70 L1718.76 2160.37 L1701.93 2160.37 L1701.93 2168.04 L1685.10 2168.04 L1685.10 2175.72 L1668.15 2175.72 L1668.15 2183.27 L1651.32 2183.27 L1651.32 2190.69 L1634.37 2190.69 L1634.37 2198.12 L1617.54 2198.12 L1617.54 2205.42 L1600.58 2205.42 L1600.58 2212.72 L1583.75 2212.72 L1583.75 2219.90 L1566.80 2219.90 L1566.80 2226.95 L1549.97 2226.95 L1549.97 2234.00 L1533.14 2234.00 L1533.14 2240.94 L1516.18 2240.94 L1516.18 2247.74 L1499.36 2247.74 L1499.36 2254.55 L1482.40 2254.55 L1482.40 2261.23 L1465.57 2261.23 L1465.57 2267.79 L1448.62 2267.79 L1448.62 2274.22 L1431.79 2274.22 L1431.79 2280.66 L1414.83 2280.66 L1414.83 2286.97 L1398.00 2286.97 L1398.00 2293.16 L1381.17 2293.16 L1381.17 2299.22 L1364.22 2299.22 L1364.22 2305.29 L1347.39 2305.29 L1347.39 2311.23 L1330.44 2311.23 L1330.44 2317.04 L1313.61 2317.04 L1313.61 2322.86 L1296.65 2322.86 L1296.65 2328.43 L1279.82 2328.43 L1279.82 2334.00 L1262.87 2334.00 L1262.87 2339.44 L1246.04 2339.44 L1246.04 2344.76 L1229.09 2344.76 L1229.09 2349.96 L1212.26 2349.96 L1212.26 2355.16 L1195.42 2355.16 L1195.42 2360.11 L1178.47 2360.11 L1178.47 2364.94 L1161.64 2364.94 L1161.64 2369.76 L1144.69 2369.76 L1144.69 2374.34 L1127.86 2374.34 L1127.86 2378.92 L1110.90 2378.92 L1110.90 2383.25 L1094.07 2383.25 L1094.07 2387.46 L1077.12 2387.46 L1077.12 2391.54 L1060.29 2391.54 L1060.29 2395.63 L1043.46 2395.63 L1043.46 2399.46 L1026.51 2399.46 L1026.51 2403.18 L1009.68 2403.18 L1009.68 2406.77 L992.72 2406.77 L992.72 2410.23 L975.89 2410.23 L975.89 2413.45 L958.94 2413.45 L958.94 2416.67 L942.11 2416.67 L942.11 2419.64 L925.15 2419.64 L925.15 2422.48 L908.33 2422.48 L908.33 2425.20 L891.50 2425.20 L891.50 2427.80 L874.54 2427.80 L874.54 2430.15 L857.71 2430.15 L857.71 2432.38 L840.76 2432.38 L840.76 2434.49 L823.93 2434.49 L823.93 2436.47 L806.97 2436.47 L806.97 2438.20 L790.14 2438.20 L790.14 2439.68 L773.19 2439.68 L773.19 2444.63 Z" stroke-linejoin="round"/>
	</defs>
	<defs>
		<clipPath id="clipPath_ztEDlKgT">
			<use xlink:href="#path_sQkLnSFF"/>
		</clipPath>
	</defs>
	<use xlink:href="#path_sQkLnSFF" style="stroke:none;fill:#333333;fill-opacity:0.35"/>
	<use xlink:href="#path_sQkLnSFF" style="fill:none;stroke:#000000;stroke-opacity:0.35;stroke-width:17.28" clip-path="url(#clipPath_ztEDlKgT)"/>
	<line x1="773.19" y1="2443.27" x2="790.02" y2="2443.27" style="stroke:#808080;stroke-width:8.64"/>
	<line x1="790.02" y1="2443.27" x2="790.02" y2="2442.41" style="stroke:#808080;stroke-width:8.64"/>
	<line x1="790.02" y1="2442.41" x2="806.97" y2="2442.41" style="stroke:#808080;stroke-width:8.64"/>
	<line x1="806.97" y1="2442.41" x2="806.97" y2="2441.54" style="stroke:#808080;stroke-width:8.64"/>
	<line x1="806.97" y1="2441.54" x2="811.80" y2="2441.54" style="stroke:#808080;stroke-width:8.64"/>
	<line x1="828.01" y1="2440.55" x2="840.76" y2="2440.55" style="stroke:#808080;stroke-width:8.64"/>
	<line x1="840.76" y1="2440.55" x2="840.76" y2="2439.44" style="stroke:#808080;stroke-width:8.64"/>
	<line x1="840.76" y1="2439.44" x2="857.59" y2="2439.44" style="stroke:#808080;stroke-width:8.64"/>
	<line x1="857.59" y1="2439.44" x2="857.59" y2="2438.32" style="stroke:#808080;stroke-width:8.64"/>
	<line x1="857.59" y1="2438.32" x2="866.13" y2="2438.32" style="stroke:#808080;stroke-width:8.64"/>
	<line x1="881.97" y1="2436.96" x2="891.37" y2="2436.96" style="stroke:#808080;stroke-width:8.64"/>
	<line x1="891.37" y1="2436.96" x2="891.37" y2="2435.60" style="stroke:#808080;stroke-width:8.64"/>
	<line x1="891.37" y1="2435.60" x2="908.20" y2="2435.60" style="stroke:#808080;stroke-width:8.64"/>
	<line x1="908.20" y1="2435.60" x2="908.20" y2="2433.99" style="stroke:#808080;stroke-width:8.64"/>
	<line x1="908.20" y1="2433.99" x2="919.34" y2="2433.99" style="stroke:#808080;stroke-width:8.64"/>
	<line x1="934.93" y1="2432.38" x2="941.99" y2="2432.38" style="stroke:#808080;stroke-width:8.64"/>
	<line x1="941.99" y1="2432.38" x2="941.99" y2="2430.65" style="stroke:#808080;stroke-width:8.64"/>
	<line x1="941.99" y1="2430.65" x2="958.94" y2="2430.65" style="stroke:#808080;stroke-width:8.64"/>
	<line x1="958.94" y1="2430.65" x2="958.94" y2="2428.79" style="stroke:#808080;stroke-width:8.64"/>
	<line x1="958.94" y1="2428.79" x2="971.68" y2="2428.79" style="stroke:#808080;stroke-width:8.64"/>
	<line x1="987.15" y1="2426.94" x2="992.72" y2="2426.94" style="stroke:#808080;stroke-width:8.64"/>
	<line x1="992.72" y1="2426.94" x2="992.72" y2="2424.83" style="stroke:#808080;stroke-width:8.64"/>
	<line x1="992.72" y1="2424.83" x2="1009.55" y2="2424.83" style="stroke:#808080;stroke-width:8.64"/>
	<line x1="1009.55" y1="2424.83" x2="1009.55" y2="2422.73" style="stroke:#808080;stroke-width:8.64"/>
	<line x1="1009.55" y1="2422.73" x2="1023.29" y2="2422.73" style="stroke:#808080;stroke-width:8.64"/>
	<line x1="1038.26" y1="2420.50" x2="1043.34" y2="2420.50" style="stroke:#808080;stroke-width:8.64"/>
	<line x1="1043.34" y1="2420.50" x2="1043.34" y2="2418.15" style="stroke:#808080;stroke-width:8.64"/>
	<line x1="1043.34" y1="2418.15" x2="1060.17" y2="2418.15" style="stroke:#808080;stroke-width:8.64"/>
	<line x1="1060.17" y1="2418.15" x2="1060.17" y2="2415.68" style="stroke:#808080;stroke-width:8.64"/>
	<line x1="1060.17" y1="2415.68" x2="1073.78" y2="2415.68" style="stroke:#808080;stroke-width:8.64"/>
	<line x1="1088.51" y1="2413.20" x2="1093.95" y2="2413.20" style="stroke:#808080;stroke-width:8.64"/>
	<line x1="1093.95" y1="2413.20" x2="1093.95" y2="2410.48" style="stroke:#808080;stroke-width:8.64"/>
	<line x1="1093.95" y1="2410.48" x2="1110.90" y2="2410.48" style="stroke:#808080;stroke-width:8.64"/>
	<line x1="1110.90" y1="2410.48" x2="1110.90" y2="2407.76" style="stroke:#808080;stroke-width:8.64"/>
	<line x1="1110.90" y1="2407.76" x2="1123.40" y2="2407.76" style="stroke:#808080;stroke-width:8.64"/>
	<line x1="1137.88" y1="2405.03" x2="1144.69" y2="2405.03" style="stroke:#808080;stroke-width:8.64"/>
	<line x1="1144.69" y1="2405.03" x2="1144.69" y2="2402.06" style="stroke:#808080;stroke-width:8.64"/>
	<line x1="1144.69" y1="2402.06" x2="1161.52" y2="2402.06" style="stroke:#808080;stroke-width:8.64"/>
	<line x1="1161.52" y1="2402.06" x2="1161.52" y2="2399.09" style="stroke:#808080;stroke-width:8.64"/>
	<line x1="1161.52" y1="2399.09" x2="1172.28" y2="2399.09" style="stroke:#808080;stroke-width:8.64"/>
	<line x1="1186.39" y1="2395.87" x2="1195.30" y2="2395.87" style="stroke:#808080;stroke-width:8.64"/>
	<line x1="1195.30" y1="2395.87" x2="1195.30" y2="2392.78" style="stroke:#808080;stroke-width:8.64"/>
	<line x1="1195.30" y1="2392.78" x2="1212.26" y2="2392.78" style="stroke:#808080;stroke-width:8.64"/>
	<line x1="1212.26" y1="2392.78" x2="1212.26" y2="2389.44" style="stroke:#808080;stroke-width:8.64"/>
	<line x1="1212.26" y1="2389.44" x2="1220.17" y2="2389.44" style="stroke:#808080;stroke-width:8.64"/>
	<line x1="1234.16" y1="2386.10" x2="1245.91" y2="2386.10" style="stroke:#808080;stroke-width:8.64"/>
	<line x1="1245.91" y1="2386.10" x2="1245.91" y2="2382.63" style="stroke:#808080;stroke-width:8.64"/>
	<line x1="1245.91" y1="2382.63" x2="1262.87" y2="2382.63" style="stroke:#808080;stroke-width:8.64"/>
	<line x1="1262.87" y1="2382.63" x2="1262.87" y2="2379.04" style="stroke:#808080;stroke-width:8.64"/>
	<line x1="1262.87" y1="2379.04" x2="1267.32" y2="2379.04" style="stroke:#808080;stroke-width:8.64"/>
	<line x1="1280.94" y1="2375.33" x2="1296.65" y2="2375.33" style="stroke:#808080;stroke-width:8.64"/>
	<line x1="1296.65" y1="2375.33" x2="1296.65" y2="2371.62" style="stroke:#808080;stroke-width:8.64"/>
	<line x1="1296.65" y1="2371.62" x2="1313.48" y2="2371.62" style="stroke:#808080;stroke-width:8.64"/>
	<line x1="1313.48" y1="2371.62" x2="1313.48" y2="2367.91" style="stroke:#808080;stroke-width:8.64"/>
	<line x1="1313.48" y1="2367.91" x2="1313.85" y2="2367.91" style="stroke:#808080;stroke-width:8.64"/>
	<line x1="1330.44" y1="2367.29" x2="1330.44" y2="2363.95" style="stroke:#808080;stroke-width:8.64"/>
	<line x1="1330.44" y1="2363.95" x2="1347.27" y2="2363.95" style="stroke:#808080;stroke-width:8.64"/>
	<line x1="1347.27" y1="2363.95" x2="1347.27" y2="2359.99" style="stroke:#808080;stroke-width:8.64"/>
	<line x1="1347.27" y1="2359.99" x2="1363.48" y2="2359.99" style="stroke:#808080;stroke-width:8.64"/>
	<line x1="1376.72" y1="2355.90" x2="1381.05" y2="2355.90" style="stroke:#808080;stroke-width:8.64"/>
	<line x1="1381.05" y1="2355.90" x2="1381.05" y2="2351.82" style="stroke:#808080;stroke-width:8.64"/>
	<line x1="1381.05" y1="2351.82" x2="1397.88" y2="2351.82" style="stroke:#808080;stroke-width:8.64"/>
	<line x1="1397.88" y1="2351.82" x2="1397.88" y2="2347.61" style="stroke:#808080;stroke-width:8.64"/>
	<line x1="1397.88" y1="2347.61" x2="1408.77" y2="2347.61" style="stroke:#808080;stroke-width:8.64"/>
	<line x1="1421.64" y1="2343.40" x2="1431.66" y2="2343.40" style="stroke:#808080;stroke-width:8.64"/>
	<line x1="1431.66" y1="2343.40" x2="1431.66" y2="2339.07" style="stroke:#808080;stroke-width:8.64"/>
	<line x1="1431.66" y1="2339.07" x2="1448.62" y2="2339.07" style="stroke:#808080;stroke-width:8.64"/>
	<line x1="1448.62" y1="2339.07" x2="1448.62" y2="2334.62" style="stroke:#808080;stroke-width:8.64"/>
	<line x1="1448.62" y1="2334.62" x2="1453.32" y2="2334.62" style="stroke:#808080;stroke-width:8.64"/>
	<line x1="1466.07" y1="2330.16" x2="1482.40" y2="2330.16" style="stroke:#808080;stroke-width:8.64"/>
	<line x1="1482.40" y1="2330.16" x2="1482.40" y2="2325.58" style="stroke:#808080;stroke-width:8.64"/>
	<line x1="1482.40" y1="2325.58" x2="1499.23" y2="2325.58" style="stroke:#808080;stroke-width:8.64"/>
	<line x1="1499.23" y1="2325.58" x2="1499.23" y2="2322.98" style="stroke:#808080;stroke-width:8.64"/>
	<line x1="1514.33" y1="2320.88" x2="1516.18" y2="2320.88" style="stroke:#808080;stroke-width:8.64"/>
	<line x1="1516.18" y1="2320.88" x2="1516.18" y2="2316.18" style="stroke:#808080;stroke-width:8.64"/>
	<line x1="1516.18" y1="2316.18" x2="1533.02" y2="2316.18" style="stroke:#808080;stroke-width:8.64"/>
	<line x1="1533.02" y1="2316.18" x2="1533.02" y2="2311.35" style="stroke:#808080;stroke-width:8.64"/>
	<line x1="1533.02" y1="2311.35" x2="1545.14" y2="2311.35" style="stroke:#808080;stroke-width:8.64"/>
	<line x1="1557.52" y1="2306.52" x2="1566.80" y2="2306.52" style="stroke:#808080;stroke-width:8.64"/>
	<line x1="1566.80" y1="2306.52" x2="1566.80" y2="2301.57" style="stroke:#808080;stroke-width:8.64"/>
	<line x1="1566.80" y1="2301.57" x2="1583.63" y2="2301.57" style="stroke:#808080;stroke-width:8.64"/>
	<line x1="1583.63" y1="2301.57" x2="1583.63" y2="2296.50" style="stroke:#808080;stroke-width:8.64"/>
	<line x1="1583.63" y1="2296.50" x2="1587.96" y2="2296.50" style="stroke:#808080;stroke-width:8.64"/>
	<line x1="1600.58" y1="2291.92" x2="1600.58" y2="2291.43" style="stroke:#808080;stroke-width:8.64"/>
	<line x1="1600.58" y1="2291.43" x2="1617.41" y2="2291.43" style="stroke:#808080;stroke-width:8.64"/>
	<line x1="1617.41" y1="2291.43" x2="1617.41" y2="2286.35" style="stroke:#808080;stroke-width:8.64"/>
	<line x1="1617.41" y1="2286.35" x2="1634.37" y2="2286.35" style="stroke:#808080;stroke-width:8.64"/>
	<line x1="1634.37" y1="2286.35" x2="1634.37" y2="2285.49" style="stroke:#808080;stroke-width:8.64"/>
	<line x1="1647.36" y1="2281.16" x2="1651.20" y2="2281.16" style="stroke:#808080;stroke-width:8.64"/>
	<line x1="1651.20" y1="2281.16" x2="1651.20" y2="2275.83" style="stroke:#808080;stroke-width:8.64"/>
	<line x1="1651.20" y1="2275.83" x2="1668.15" y2="2275.83" style="stroke:#808080;stroke-width:8.64"/>
	<line x1="1668.15" y1="2275.83" x2="1668.15" y2="2270.51" style="stroke:#808080;stroke-width:8.64"/>
	<line x1="1668.15" y1="2270.51" x2="1677.06" y2="2270.51" style="stroke:#808080;stroke-width:8.64"/>
	<line x1="1688.82" y1="2265.07" x2="1701.93" y2="2265.07" style="stroke:#808080;stroke-width:8.64"/>
	<line x1="1701.93" y1="2265.07" x2="1701.93" y2="2259.62" style="stroke:#808080;stroke-width:8.64"/>
	<line x1="1701.93" y1="2259.62" x2="1718.76" y2="2259.62" style="stroke:#808080;stroke-width:8.64"/>
	<line x1="1718.76" y1="2259.62" x2="1718.76" y2="2254.67" style="stroke:#808080;stroke-width:8.64"/>
	<line x1="1735.47" y1="2254.18" x2="1735.59" y2="2254.18" style="stroke:#808080;stroke-width:8.64"/>
	<line x1="1735.59" y1="2254.18" x2="1735.59" y2="2248.61" style="stroke:#808080;stroke-width:8.64"/>
	<line x1="1735.59" y1="2248.61" x2="1752.55" y2="2248.61" style="stroke:#808080;stroke-width:8.64"/>
	<line x1="1752.55" y1="2248.61" x2="1752.55" y2="2242.92" style="stroke:#808080;stroke-width:8.64"/>
	<line x1="1752.55" y1="2242.92" x2="1764.55" y2="2242.92" style="stroke:#808080;stroke-width:8.64"/>
	<line x1="1776.18" y1="2237.22" x2="1786.33" y2="2237.22" style="stroke:#808080;stroke-width:8.64"/>
	<line x1="1786.33" y1="2237.22" x2="1786.33" y2="2231.53" style="stroke:#808080;stroke-width:8.64"/>
	<line x1="1786.33" y1="2231.53" x2="1803.16" y2="2231.53" style="stroke:#808080;stroke-width:8.64"/>
	<line x1="1803.16" y1="2231.53" x2="1803.16" y2="2225.71" style="stroke:#808080;stroke-width:8.64"/>
	<line x1="1803.16" y1="2225.71" x2="1805.02" y2="2225.71" style="stroke:#808080;stroke-width:8.64"/>
	<line x1="1820.12" y1="2223.61" x2="1820.12" y2="2219.77" style="stroke:#808080;stroke-width:8.64"/>
	<line x1="1820.12" y1="2219.77" x2="1836.94" y2="2219.77" style="stroke:#808080;stroke-width:8.64"/>
	<line x1="1836.94" y1="2219.77" x2="1836.94" y2="2213.83" style="stroke:#808080;stroke-width:8.64"/>
	<line x1="1836.94" y1="2213.83" x2="1850.68" y2="2213.83" style="stroke:#808080;stroke-width:8.64"/>
	<line x1="1861.94" y1="2207.89" x2="1870.73" y2="2207.89" style="stroke:#808080;stroke-width:8.64"/>
	<line x1="1870.73" y1="2207.89" x2="1870.73" y2="2201.83" style="stroke:#808080;stroke-width:8.64"/>
	<line x1="1870.73" y1="2201.83" x2="1887.56" y2="2201.83" style="stroke:#808080;stroke-width:8.64"/>
	<line x1="1887.56" y1="2201.83" x2="1887.56" y2="2195.76" style="stroke:#808080;stroke-width:8.64"/>
	<line x1="1887.56" y1="2195.76" x2="1890.16" y2="2195.76" style="stroke:#808080;stroke-width:8.64"/>
	<line x1="1904.51" y1="2192.92" x2="1904.51" y2="2189.58" style="stroke:#808080;stroke-width:8.64"/>
	<line x1="1904.51" y1="2189.58" x2="1921.34" y2="2189.58" style="stroke:#808080;stroke-width:8.64"/>
	<line x1="1921.34" y1="2189.58" x2="1921.34" y2="2183.39" style="stroke:#808080;stroke-width:8.64"/>
	<line x1="1921.34" y1="2183.39" x2="1935.33" y2="2183.39" style="stroke:#808080;stroke-width:8.64"/>
	<line x1="1946.46" y1="2177.20" x2="1955.13" y2="2177.20" style="stroke:#808080;stroke-width:8.64"/>
	<line x1="1955.13" y1="2177.20" x2="1955.13" y2="2170.89" style="stroke:#808080;stroke-width:8.64"/>
	<line x1="1955.13" y1="2170.89" x2="1972.08" y2="2170.89" style="stroke:#808080;stroke-width:8.64"/>
	<line x1="1972.08" y1="2170.89" x2="1972.08" y2="2164.46" style="stroke:#808080;stroke-width:8.64"/>
	<line x1="1972.08" y1="2164.46" x2="1973.94" y2="2164.46" style="stroke:#808080;stroke-width:8.64"/>
	<line x1="1988.91" y1="2162.10" x2="1988.91" y2="2158.14" style="stroke:#808080;stroke-width:8.64"/>
	<line x1="1988.91" y1="2158.14" x2="2005.86" y2="2158.14" style="stroke:#808080;stroke-width:8.64"/>
	<line x1="2005.86" y1="2158.14" x2="2005.86" y2="2151.58" style="stroke:#808080;stroke-width:8.64"/>
	<line x1="2005.86" y1="2151.58" x2="2018.73" y2="2151.58" style="stroke:#808080;stroke-width:8.64"/>
	<line x1="2029.50" y1="2145.15" x2="2039.52" y2="2145.15" style="stroke:#808080;stroke-width:8.64"/>
	<line x1="2039.52" y1="2145.15" x2="2039.52" y2="2138.59" style="stroke:#808080;stroke-width:8.64"/>
	<line x1="2039.52" y1="2138.59" x2="2056.48" y2="2138.59" style="stroke:#808080;stroke-width:8.64"/>
	<line x1="2056.48" y1="2138.59" x2="2056.48" y2="2131.91" style="stroke:#808080;stroke-width:8.64"/>
	<line x1="2056.48" y1="2131.91" x2="2056.60" y2="2131.91" style="stroke:#808080;stroke-width:8.64"/>
	<line x1="2073.31" y1="2131.41" x2="2073.31" y2="2125.23" style="stroke:#808080;stroke-width:8.64"/>
	<line x1="2073.31" y1="2125.23" x2="2090.26" y2="2125.23" style="stroke:#808080;stroke-width:8.64"/>
	<line x1="2090.26" y1="2125.23" x2="2090.26" y2="2118.54" style="stroke:#808080;stroke-width:8.64"/>
	<line x1="2090.26" y1="2118.54" x2="2100.78" y2="2118.54" style="stroke:#808080;stroke-width:8.64"/>
	<line x1="2111.18" y1="2111.74" x2="2124.05" y2="2111.74" style="stroke:#808080;stroke-width:8.64"/>
	<line x1="2124.05" y1="2111.74" x2="2124.05" y2="2104.93" style="stroke:#808080;stroke-width:8.64"/>
	<line x1="2124.05" y1="2104.93" x2="2140.88" y2="2104.93" style="stroke:#808080;stroke-width:8.64"/>
	<line x1="2140.88" y1="2104.93" x2="2140.88" y2="2101.09" style="stroke:#808080;stroke-width:8.64"/>
	<line x1="2155.23" y1="2098.12" x2="2157.83" y2="2098.12" style="stroke:#808080;stroke-width:8.64"/>
	<line x1="2157.83" y1="2098.12" x2="2157.83" y2="2091.19" style="stroke:#808080;stroke-width:8.64"/>
	<line x1="2157.83" y1="2091.19" x2="2174.66" y2="2091.19" style="stroke:#808080;stroke-width:8.64"/>
	<line x1="2174.66" y1="2091.19" x2="2174.66" y2="2084.14" style="stroke:#808080;stroke-width:8.64"/>
	<line x1="2174.66" y1="2084.14" x2="2181.59" y2="2084.14" style="stroke:#808080;stroke-width:8.64"/>
	<line x1="2191.86" y1="2077.21" x2="2208.44" y2="2077.21" style="stroke:#808080;stroke-width:8.64"/>
	<line x1="2208.44" y1="2077.21" x2="2208.44" y2="2070.15" style="stroke:#808080;stroke-width:8.64"/>
	<line x1="2208.44" y1="2070.15" x2="2225.15" y2="2070.15" style="stroke:#808080;stroke-width:8.64"/>
	<line x1="2235.17" y1="2062.98" x2="2242.23" y2="2062.98" style="stroke:#808080;stroke-width:8.64"/>
	<line x1="2242.23" y1="2062.98" x2="2242.23" y2="2055.80" style="stroke:#808080;stroke-width:8.64"/>
	<line x1="2242.23" y1="2055.80" x2="2259.06" y2="2055.80" style="stroke:#808080;stroke-width:8.64"/>
	<line x1="2259.06" y1="2055.80" x2="2259.06" y2="2048.62" style="stroke:#808080;stroke-width:8.64"/>
	<line x1="2259.06" y1="2048.62" x2="2261.16" y2="2048.62" style="stroke:#808080;stroke-width:8.64"/>
	<line x1="2276.01" y1="2046.27" x2="2276.01" y2="2041.44" style="stroke:#808080;stroke-width:8.64"/>
	<line x1="2276.01" y1="2041.44" x2="2292.84" y2="2041.44" style="stroke:#808080;stroke-width:8.64"/>
	<line x1="2292.84" y1="2041.44" x2="2292.84" y2="2034.14" style="stroke:#808080;stroke-width:8.64"/>
	<line x1="2292.84" y1="2034.14" x2="2304.22" y2="2034.14" style="stroke:#808080;stroke-width:8.64"/>
	<line x1="2314.13" y1="2026.72" x2="2326.62" y2="2026.72" style="stroke:#808080;stroke-width:8.64"/>
	<line x1="2326.62" y1="2026.72" x2="2326.62" y2="2019.42" style="stroke:#808080;stroke-width:8.64"/>
	<line x1="2326.62" y1="2019.42" x2="2343.58" y2="2019.42" style="stroke:#808080;stroke-width:8.64"/>
	<line x1="2343.58" y1="2019.42" x2="2343.58" y2="2015.95" style="stroke:#808080;stroke-width:8.64"/>
	<line x1="2356.94" y1="2011.99" x2="2360.41" y2="2011.99" style="stroke:#808080;stroke-width:8.64"/>
	<line x1="2360.41" y1="2011.99" x2="2360.41" y2="2004.57" style="stroke:#808080;stroke-width:8.64"/>
	<line x1="2360.41" y1="2004.57" x2="2377.24" y2="2004.57" style="stroke:#808080;stroke-width:8.64"/>
	<line x1="2377.24" y1="2004.57" x2="2377.24" y2="1997.02" style="stroke:#808080;stroke-width:8.64"/>
	<line x1="2377.24" y1="1997.02" x2="2382.31" y2="1997.02" style="stroke:#808080;stroke-width:8.64"/>
	<line x1="2394.19" y1="1991.69" x2="2394.19" y2="1989.47" style="stroke:#808080;stroke-width:8.64"/>
	<line x1="2394.19" y1="1989.47" x2="2411.02" y2="1989.47" style="stroke:#808080;stroke-width:8.64"/>
	<line x1="2411.02" y1="1989.47" x2="2411.02" y2="1981.92" style="stroke:#808080;stroke-width:8.64"/>
	<line x1="2411.02" y1="1981.92" x2="2424.76" y2="1981.92" style="stroke:#808080;stroke-width:8.64"/>
	<line x1="2434.29" y1="1974.25" x2="2444.80" y2="1974.25" style="stroke:#808080;stroke-width:8.64"/>
	<line x1="2444.80" y1="1974.25" x2="2444.80" y2="1966.57" style="stroke:#808080;stroke-width:8.64"/>
	<line x1="2444.80" y1="1966.57" x2="2461.76" y2="1966.57" style="stroke:#808080;stroke-width:8.64"/>
	<line x1="2461.76" y1="1966.57" x2="2461.76" y2="1961.38" style="stroke:#808080;stroke-width:8.64"/>
	<line x1="2476.36" y1="1958.78" x2="2478.59" y2="1958.78" style="stroke:#808080;stroke-width:8.64"/>
	<line x1="2478.59" y1="1958.78" x2="2478.59" y2="1951.10" style="stroke:#808080;stroke-width:8.64"/>
	<line x1="2478.59" y1="1951.10" x2="2495.54" y2="1951.10" style="stroke:#808080;stroke-width:8.64"/>
	<line x1="2495.54" y1="1951.10" x2="2495.54" y2="1943.31" style="stroke:#808080;stroke-width:8.64"/>
	<line x1="2495.54" y1="1943.31" x2="2501.24" y2="1943.31" style="stroke:#808080;stroke-width:8.64"/>
	<line x1="2512.37" y1="1937.12" x2="2512.37" y2="1935.51" style="stroke:#808080;stroke-width:8.64"/>
	<line x1="2512.37" y1="1935.51" x2="2529.20" y2="1935.51" style="stroke:#808080;stroke-width:8.64"/>
	<line x1="2529.20" y1="1935.51" x2="2529.20" y2="1927.59" style="stroke:#808080;stroke-width:8.64"/>
	<line x1="2529.20" y1="1927.59" x2="2543.06" y2="1927.59" style="stroke:#808080;stroke-width:8.64"/>
	<line x1="2552.47" y1="1919.67" x2="2562.99" y2="1919.67" style="stroke:#808080;stroke-width:8.64"/>
	<line x1="2562.99" y1="1919.67" x2="2562.99" y2="1911.75" style="stroke:#808080;stroke-width:8.64"/>
	<line x1="2562.99" y1="1911.75" x2="2579.94" y2="1911.75" style="stroke:#808080;stroke-width:8.64"/>
	<line x1="2579.94" y1="1911.75" x2="2579.94" y2="1906.80" style="stroke:#808080;stroke-width:8.64"/>
	<line x1="2594.05" y1="1903.71" x2="2596.77" y2="1903.71" style="stroke:#808080;stroke-width:8.64"/>
	<line x1="2596.77" y1="1903.71" x2="2596.77" y2="1895.66" style="stroke:#808080;stroke-width:8.64"/>
	<line x1="2596.77" y1="1895.66" x2="2613.72" y2="1895.66" style="stroke:#808080;stroke-width:8.64"/>
	<line x1="2613.72" y1="1895.66" x2="2613.72" y2="1887.62" style="stroke:#808080;stroke-width:8.64"/>
	<line x1="2613.72" y1="1887.62" x2="2618.30" y2="1887.62" style="stroke:#808080;stroke-width:8.64"/>
	<line x1="2630.55" y1="1882.54" x2="2630.55" y2="1879.57" style="stroke:#808080;stroke-width:8.64"/>
	<line x1="2630.55" y1="1879.57" x2="2647.51" y2="1879.57" style="stroke:#808080;stroke-width:8.64"/>
	<line x1="2647.51" y1="1879.57" x2="2647.51" y2="1871.41" style="stroke:#808080;stroke-width:8.64"/>
	<line x1="2647.51" y1="1871.41" x2="2659.64" y2="1871.41" style="stroke:#808080;stroke-width:8.64"/>
	<line x1="2668.79" y1="1863.24" x2="2681.17" y2="1863.24" style="stroke:#808080;stroke-width:8.64"/>
	<line x1="2681.17" y1="1863.24" x2="2681.17" y2="1854.95" style="stroke:#808080;stroke-width:8.64"/>
	<line x1="2681.17" y1="1854.95" x2="2698.12" y2="1854.95" style="stroke:#808080;stroke-width:8.64"/>
	<line x1="2698.12" y1="1854.95" x2="2698.12" y2="1852.22" style="stroke:#808080;stroke-width:8.64"/>
	<line x1="2709.75" y1="1846.66" x2="2714.95" y2="1846.66" style="stroke:#808080;stroke-width:8.64"/>
	<line x1="2714.95" y1="1846.66" x2="2714.95" y2="1838.36" style="stroke:#808080;stroke-width:8.64"/>
	<line x1="2714.95" y1="1838.36" x2="2731.91" y2="1838.36" style="stroke:#808080;stroke-width:8.64"/>
	<line x1="2731.91" y1="1838.36" x2="2731.91" y2="1830.07" style="stroke:#808080;stroke-width:8.64"/>
	<line x1="2731.91" y1="1830.07" x2="2733.51" y2="1830.07" style="stroke:#808080;stroke-width:8.64"/>
	<line x1="2748.74" y1="1828.09" x2="2748.74" y2="1821.66" style="stroke:#808080;stroke-width:8.64"/>
	<line x1="2748.74" y1="1821.66" x2="2765.69" y2="1821.66" style="stroke:#808080;stroke-width:8.64"/>
	<line x1="2765.69" y1="1821.66" x2="2765.69" y2="1813.24" style="stroke:#808080;stroke-width:8.64"/>
	<line x1="2765.69" y1="1813.24" x2="2774.23" y2="1813.24" style="stroke:#808080;stroke-width:8.64"/>
	<line x1="2783.01" y1="1804.83" x2="2799.47" y2="1804.83" style="stroke:#808080;stroke-width:8.64"/>
	<line x1="2799.47" y1="1804.83" x2="2799.47" y2="1796.41" style="stroke:#808080;stroke-width:8.64"/>
	<line x1="2799.47" y1="1796.41" x2="2814.94" y2="1796.41" style="stroke:#808080;stroke-width:8.64"/>
	<line x1="2823.60" y1="1787.87" x2="2833.13" y2="1787.87" style="stroke:#808080;stroke-width:8.64"/>
	<line x1="2833.13" y1="1787.87" x2="2833.13" y2="1779.33" style="stroke:#808080;stroke-width:8.64"/>
	<line x1="2833.13" y1="1779.33" x2="2850.09" y2="1779.33" style="stroke:#808080;stroke-width:8.64"/>
	<line x1="2850.09" y1="1779.33" x2="2850.09" y2="1774.01" style="stroke:#808080;stroke-width:8.64"/>
	<line x1="2864.19" y1="1770.79" x2="2866.92" y2="1770.79" style="stroke:#808080;stroke-width:8.64"/>
	<line x1="2866.92" y1="1770.79" x2="2866.92" y2="1762.13" style="stroke:#808080;stroke-width:8.64"/>
	<line x1="2866.92" y1="1762.13" x2="2883.87" y2="1762.13" style="stroke:#808080;stroke-width:8.64"/>
	<line x1="2883.87" y1="1762.13" x2="2883.87" y2="1753.59" style="stroke:#808080;stroke-width:8.64"/>
	<line x1="2883.87" y1="1753.59" x2="2887.34" y2="1753.59" style="stroke:#808080;stroke-width:8.64"/>
	<line x1="2900.70" y1="1749.76" x2="2900.70" y2="1744.93" style="stroke:#808080;stroke-width:8.64"/>
	<line x1="2900.70" y1="1744.93" x2="2917.65" y2="1744.93" style="stroke:#808080;stroke-width:8.64"/>
	<line x1="2917.65" y1="1744.93" x2="2917.65" y2="1736.14" style="stroke:#808080;stroke-width:8.64"/>
	<line x1="2917.65" y1="1736.14" x2="2927.43" y2="1736.14" style="stroke:#808080;stroke-width:8.64"/>
	<line x1="2935.97" y1="1727.48" x2="2951.44" y2="1727.48" style="stroke:#808080;stroke-width:8.64"/>
	<line x1="2951.44" y1="1727.48" x2="2951.44" y2="1718.69" style="stroke:#808080;stroke-width:8.64"/>
	<line x1="2951.44" y1="1718.69" x2="2967.53" y2="1718.69" style="stroke:#808080;stroke-width:8.64"/>
	<line x1="2976.06" y1="1709.91" x2="2985.22" y2="1709.91" style="stroke:#808080;stroke-width:8.64"/>
	<line x1="2985.22" y1="1709.91" x2="2985.22" y2="1701.12" style="stroke:#808080;stroke-width:8.64"/>
	<line x1="2985.22" y1="1701.12" x2="3002.05" y2="1701.12" style="stroke:#808080;stroke-width:8.64"/>
	<line x1="3002.05" y1="1701.12" x2="3002.05" y2="1695.68" style="stroke:#808080;stroke-width:8.64"/>
	<line x1="3015.91" y1="1692.21" x2="3018.88" y2="1692.21" style="stroke:#808080;stroke-width:8.64"/>
	<line x1="3018.88" y1="1692.21" x2="3018.88" y2="1683.30" style="stroke:#808080;stroke-width:8.64"/>
	<line x1="3018.88" y1="1683.30" x2="3035.84" y2="1683.30" style="stroke:#808080;stroke-width:8.64"/>
	<line x1="3035.84" y1="1683.30" x2="3035.84" y2="1674.39" style="stroke:#808080;stroke-width:8.64"/>
	<line x1="3035.84" y1="1674.39" x2="3038.43" y2="1674.39" style="stroke:#808080;stroke-width:8.64"/>
	<line x1="3052.66" y1="1671.42" x2="3052.66" y2="1665.36" style="stroke:#808080;stroke-width:8.64"/>
	<line x1="3052.66" y1="1665.36" x2="3069.62" y2="1665.36" style="stroke:#808080;stroke-width:8.64"/>
	<line x1="3069.62" y1="1665.36" x2="3069.62" y2="1656.45" style="stroke:#808080;stroke-width:8.64"/>
	<line x1="3069.62" y1="1656.45" x2="3078.03" y2="1656.45" style="stroke:#808080;stroke-width:8.64"/>
	<line x1="3086.45" y1="1647.66" x2="3086.45" y2="1647.41" style="stroke:#808080;stroke-width:8.64"/>
	<line x1="3086.45" y1="1647.41" x2="3103.40" y2="1647.41" style="stroke:#808080;stroke-width:8.64"/>
	<line x1="3103.40" y1="1647.41" x2="3103.40" y2="1638.38" style="stroke:#808080;stroke-width:8.64"/>
	<line x1="3103.40" y1="1638.38" x2="3117.51" y2="1638.38" style="stroke:#808080;stroke-width:8.64"/>
	<line x1="3125.55" y1="1629.22" x2="3137.19" y2="1629.22" style="stroke:#808080;stroke-width:8.64"/>
	<line x1="3137.19" y1="1629.22" x2="3137.19" y2="1620.19" style="stroke:#808080;stroke-width:8.64"/>
	<line x1="3137.19" y1="1620.19" x2="3154.02" y2="1620.19" style="stroke:#808080;stroke-width:8.64"/>
	<line x1="3154.02" y1="1620.19" x2="3154.02" y2="1617.22" style="stroke:#808080;stroke-width:8.64"/>
	<line x1="3165.03" y1="1611.03" x2="3170.85" y2="1611.03" style="stroke:#808080;stroke-width:8.64"/>
	<line x1="3170.85" y1="1611.03" x2="3170.85" y2="1601.87" style="stroke:#808080;stroke-width:8.64"/>
	<line x1="3170.85" y1="1601.87" x2="3187.80" y2="1601.87" style="stroke:#808080;stroke-width:8.64"/>
	<line x1="3187.80" y1="1601.87" x2="3187.80" y2="1593.45" style="stroke:#808080;stroke-width:8.64"/>
	<line x1="3204.14" y1="1592.59" x2="3204.63" y2="1592.59" style="stroke:#808080;stroke-width:8.64"/>
	<line x1="3204.63" y1="1592.59" x2="3204.63" y2="1583.31" style="stroke:#808080;stroke-width:8.64"/>
	<line x1="3204.63" y1="1583.31" x2="3221.58" y2="1583.31" style="stroke:#808080;stroke-width:8.64"/>
	<line x1="3221.58" y1="1583.31" x2="3221.58" y2="1574.15" style="stroke:#808080;stroke-width:8.64"/>
	<line x1="3221.58" y1="1574.15" x2="3226.04" y2="1574.15" style="stroke:#808080;stroke-width:8.64"/>
	<line x1="3238.41" y1="1569.32" x2="3238.41" y2="1564.87" style="stroke:#808080;stroke-width:8.64"/>
	<line x1="3238.41" y1="1564.87" x2="3255.37" y2="1564.87" style="stroke:#808080;stroke-width:8.64"/>
	<line x1="3255.37" y1="1564.87" x2="3255.37" y2="1555.46" style="stroke:#808080;stroke-width:8.64"/>
	<line x1="3255.37" y1="1555.46" x2="3264.90" y2="1555.46" style="stroke:#808080;stroke-width:8.64"/>
	<line x1="3272.82" y1="1546.18" x2="3289.15" y2="1546.18" style="stroke:#808080;stroke-width:8.64"/>
	<line x1="3289.15" y1="1546.18" x2="3289.15" y2="1536.78" style="stroke:#808080;stroke-width:8.64"/>
	<line x1="3289.15" y1="1536.78" x2="3303.75" y2="1536.78" style="stroke:#808080;stroke-width:8.64"/>
	<line x1="3311.55" y1="1527.37" x2="3322.81" y2="1527.37" style="stroke:#808080;stroke-width:8.64"/>
	<line x1="3322.81" y1="1527.37" x2="3322.81" y2="1517.96" style="stroke:#808080;stroke-width:8.64"/>
	<line x1="3322.81" y1="1517.96" x2="3339.76" y2="1517.96" style="stroke:#808080;stroke-width:8.64"/>
	<line x1="3339.76" y1="1517.96" x2="3339.76" y2="1515.12" style="stroke:#808080;stroke-width:8.64"/>
	<line x1="3350.28" y1="1508.44" x2="3356.59" y2="1508.44" style="stroke:#808080;stroke-width:8.64"/>
	<line x1="3356.59" y1="1508.44" x2="3356.59" y2="1499.03" style="stroke:#808080;stroke-width:8.64"/>
	<line x1="3356.59" y1="1499.03" x2="3373.55" y2="1499.03" style="stroke:#808080;stroke-width:8.64"/>
	<line x1="3373.55" y1="1499.03" x2="3373.55" y2="1491.36" style="stroke:#808080;stroke-width:8.64"/>
	<line x1="3388.89" y1="1489.50" x2="3390.38" y2="1489.50" style="stroke:#808080;stroke-width:8.64"/>
	<line x1="3390.38" y1="1489.50" x2="3390.38" y2="1479.97" style="stroke:#808080;stroke-width:8.64"/>
	<line x1="3390.38" y1="1479.97" x2="3407.33" y2="1479.97" style="stroke:#808080;stroke-width:8.64"/>
	<line x1="3407.33" y1="1479.97" x2="3407.33" y2="1470.44" style="stroke:#808080;stroke-width:8.64"/>
	<line x1="3407.33" y1="1470.44" x2="3410.18" y2="1470.44" style="stroke:#808080;stroke-width:8.64"/>
	<line x1="3424.16" y1="1467.23" x2="3424.16" y2="1460.79" style="stroke:#808080;stroke-width:8.64"/>
	<line x1="3424.16" y1="1460.79" x2="3441.12" y2="1460.79" style="stroke:#808080;stroke-width:8.64"/>
	<line x1="3441.12" y1="1460.79" x2="3441.12" y2="1451.14" style="stroke:#808080;stroke-width:8.64"/>
	<line x1="3441.12" y1="1451.14" x2="3448.42" y2="1451.14" style="stroke:#808080;stroke-width:8.64"/>
	<line x1="3457.95" y1="1443.34" x2="3457.95" y2="1441.49" style="stroke:#808080;stroke-width:8.64"/>
	<line x1="3457.95" y1="1441.49" x2="3474.90" y2="1441.49" style="stroke:#808080;stroke-width:8.64"/>
	<line x1="3474.90" y1="1441.49" x2="3474.90" y2="1431.83" style="stroke:#808080;stroke-width:8.64"/>
	<line x1="3474.90" y1="1431.83" x2="3486.66" y2="1431.83" style="stroke:#808080;stroke-width:8.64"/>
	<line x1="3494.20" y1="1422.06" x2="3508.56" y2="1422.06" style="stroke:#808080;stroke-width:8.64"/>
	<line x1="3508.56" y1="1422.06" x2="3508.56" y2="1412.40" style="stroke:#808080;stroke-width:8.64"/>
	<line x1="3508.56" y1="1412.40" x2="3524.77" y2="1412.40" style="stroke:#808080;stroke-width:8.64"/>
	<line x1="3532.32" y1="1402.63" x2="3542.34" y2="1402.63" style="stroke:#808080;stroke-width:8.64"/>
	<line x1="3542.34" y1="1402.63" x2="3542.34" y2="1392.85" style="stroke:#808080;stroke-width:8.64"/>
	<line x1="3542.34" y1="1392.85" x2="3559.30" y2="1392.85" style="stroke:#808080;stroke-width:8.64"/>
	<line x1="3559.30" y1="1392.85" x2="3559.30" y2="1389.26" style="stroke:#808080;stroke-width:8.64"/>
	<line x1="3570.19" y1="1382.95" x2="3576.13" y2="1382.95" style="stroke:#808080;stroke-width:8.64"/>
	<line x1="3576.13" y1="1382.95" x2="3576.13" y2="1373.17" style="stroke:#808080;stroke-width:8.64"/>
	<line x1="3576.13" y1="1373.17" x2="3593.08" y2="1373.17" style="stroke:#808080;stroke-width:8.64"/>
	<line x1="3593.08" y1="1373.17" x2="3593.08" y2="1365.50" style="stroke:#808080;stroke-width:8.64"/>
	<line x1="3608.05" y1="1363.27" x2="3609.91" y2="1363.27" style="stroke:#808080;stroke-width:8.64"/>
	<line x1="3609.91" y1="1363.27" x2="3609.91" y2="1353.37" style="stroke:#808080;stroke-width:8.64"/>
	<line x1="3609.91" y1="1353.37" x2="3626.86" y2="1353.37" style="stroke:#808080;stroke-width:8.64"/>
	<line x1="3626.86" y1="1353.37" x2="3626.86" y2="1343.47" style="stroke:#808080;stroke-width:8.64"/>
	<line x1="3626.86" y1="1343.47" x2="3628.60" y2="1343.47" style="stroke:#808080;stroke-width:8.64"/>
	<line x1="3643.70" y1="1341.24" x2="3643.70" y2="1333.57" style="stroke:#808080;stroke-width:8.64"/>
	<line x1="3643.70" y1="1333.57" x2="3660.53" y2="1333.57" style="stroke:#808080;stroke-width:8.64"/>
	<line x1="3660.53" y1="1333.57" x2="3660.53" y2="1323.55" style="stroke:#808080;stroke-width:8.64"/>
	<line x1="3660.53" y1="1323.55" x2="3666.34" y2="1323.55" style="stroke:#808080;stroke-width:8.64"/>
	<line x1="3677.48" y1="1317.48" x2="3677.48" y2="1313.65" style="stroke:#808080;stroke-width:8.64"/>
	<line x1="3677.48" y1="1313.65" x2="3694.31" y2="1313.65" style="stroke:#808080;stroke-width:8.64"/>
	<line x1="3694.31" y1="1313.65" x2="3694.31" y2="1303.62" style="stroke:#808080;stroke-width:8.64"/>
	<line x1="3694.31" y1="1303.62" x2="3703.96" y2="1303.62" style="stroke:#808080;stroke-width:8.64"/>
	<line x1="3711.26" y1="1293.72" x2="3711.26" y2="1293.60" style="stroke:#808080;stroke-width:8.64"/>
	<line x1="3711.26" y1="1293.60" x2="3728.09" y2="1293.60" style="stroke:#808080;stroke-width:8.64"/>
	<line x1="3728.09" y1="1293.60" x2="3728.09" y2="1283.58" style="stroke:#808080;stroke-width:8.64"/>
	<line x1="3728.09" y1="1283.58" x2="3741.46" y2="1283.58" style="stroke:#808080;stroke-width:8.64"/>
	<line x1="3748.51" y1="1273.43" x2="3761.88" y2="1273.43" style="stroke:#808080;stroke-width:8.64"/>
	<line x1="3761.88" y1="1273.43" x2="3761.88" y2="1263.40" style="stroke:#808080;stroke-width:8.64"/>
	<line x1="3761.88" y1="1263.40" x2="3778.83" y2="1263.40" style="stroke:#808080;stroke-width:8.64"/>
	<line x1="3778.83" y1="1263.40" x2="3778.83" y2="1263.40" style="stroke:#808080;stroke-width:8.64"/>
	<line x1="3785.88" y1="1253.26" x2="3795.66" y2="1253.26" style="stroke:#808080;stroke-width:8.64"/>
	<line x1="3795.66" y1="1253.26" x2="3795.66" y2="1243.11" style="stroke:#808080;stroke-width:8.64"/>
	<path d="" stroke-linejoin="round" style="fill:none;stroke:#808080;stroke-width:8.64"/>
	<path d=" M773.19 2443.27 L790.02 2443.27 L790.02 2442.41 L806.97 2442.41 L806.97 2441.54 L823.80 2441.54 L823.80 2440.55 L840.76 2440.55 L840.76 2439.44 L857.59 2439.44 L857.59 2438.32 L874.54 2438.32 L874.54 2436.96 L891.37 2436.96 L891.37 2435.60 L908.20 2435.60 L908.20 2433.99 L925.15 2433.99 L925.15 2432.38 L941.99 2432.38 L941.99 2430.65 L958.94 2430.65 L958.94 2428.79 L975.77 2428.79 L975.77 2426.94 L992.72 2426.94 L992.72 2424.83 L1009.55 2424.83 L1009.55 2422.73 L1026.51 2422.73 L1026.51 2420.50 L1043.34 2420.50 L1043.34 2418.15 L1060.17 2418.15 L1060.17 2415.68 L1077.12 2415.68 L1077.12 2413.20 L1093.95 2413.20 L1093.95 2410.48 L1110.90 2410.48 L1110.90 2407.76 L1127.73 2407.76 L1127.73 2405.03 L1144.69 2405.03 L1144.69 2402.06 L1161.52 2402.06 L1161.52 2399.09 L1178.47 2399.09 L1178.47 2395.87 L1195.30 2395.87 L1195.30 2392.78 L1212.26 2392.78 L1212.26 2389.44 L1229.09 2389.44 L1229.09 2386.10 L1245.91 2386.10 L1245.91 2382.63 L1262.87 2382.63 L1262.87 2379.04 L1279.70 2379.04 L1279.70 2375.33 L1296.65 2375.33 L1296.65 2371.62 L1313.48 2371.62 L1313.48 2367.91 L1330.44 2367.91 L1330.44 2363.95 L1347.27 2363.95 L1347.27 2359.99 L1364.22 2359.99 L1364.22 2355.90 L1381.05 2355.90 L1381.05 2351.82 L1397.88 2351.82 L1397.88 2347.61 L1414.83 2347.61 L1414.83 2343.40 L1431.66 2343.40 L1431.66 2339.07 L1448.62 2339.07 L1448.62 2334.62 L1465.45 2334.62 L1465.45 2330.16 L1482.40 2330.16 L1482.40 2325.58 L1499.23 2325.58 L1499.23 2320.88 L1516.18 2320.88 L1516.18 2316.18 L1533.02 2316.18 L1533.02 2311.35 L1549.85 2311.35 L1549.85 2306.52 L1566.80 2306.52 L1566.80 2301.57 L1583.63 2301.57 L1583.63 2296.50 L1600.58 2296.50 L1600.58 2291.43 L1617.41 2291.43 L1617.41 2286.35 L1634.37 2286.35 L1634.37 2281.16 L1651.20 2281.16 L1651.20 2275.83 L1668.15 2275.83 L1668.15 2270.51 L1684.98 2270.51 L1684.98 2265.07 L1701.93 2265.07 L1701.93 2259.62 L1718.76 2259.62 L1718.76 2254.18 L1735.59 2254.18 L1735.59 2248.61 L1752.55 2248.61 L1752.55 2242.92 L1769.38 2242.92 L1769.38 2237.22 L1786.33 2237.22 L1786.33 2231.53 L1803.16 2231.53 L1803.16 2225.71 L1820.12 2225.71 L1820.12 2219.77 L1836.94 2219.77 L1836.94 2213.83 L1853.90 2213.83 L1853.90 2207.89 L1870.73 2207.89 L1870.73 2201.83 L1887.56 2201.83 L1887.56 2195.76 L1904.51 2195.76 L1904.51 2189.58 L1921.34 2189.58 L1921.34 2183.39 L1938.30 2183.39 L1938.30 2177.20 L1955.13 2177.20 L1955.13 2170.89 L1972.08 2170.89 L1972.08 2164.46 L1988.91 2164.46 L1988.91 2158.14 L2005.86 2158.14 L2005.86 2151.58 L2022.69 2151.58 L2022.69 2145.15 L2039.52 2145.15 L2039.52 2138.59 L2056.48 2138.59 L2056.48 2131.91 L2073.31 2131.91 L2073.31 2125.23 L2090.26 2125.23 L2090.26 2118.54 L2107.09 2118.54 L2107.09 2111.74 L2124.05 2111.74 L2124.05 2104.93 L2140.88 2104.93 L2140.88 2098.12 L2157.83 2098.12 L2157.83 2091.19 L2174.66 2091.19 L2174.66 2084.14 L2191.49 2084.14 L2191.49 2077.21 L2208.44 2077.21 L2208.44 2070.15 L2225.27 2070.15 L2225.27 2062.98 L2242.23 2062.98 L2242.23 2055.80 L2259.06 2055.80 L2259.06 2048.62 L2276.01 2048.62 L2276.01 2041.44 L2292.84 2041.44 L2292.84 2034.14 L2309.79 2034.14 L2309.79 2026.72 L2326.62 2026.72 L2326.62 2019.42 L2343.58 2019.42 L2343.58 2011.99 L2360.41 2011.99 L2360.41 2004.57 L2377.24 2004.57 L2377.24 1997.02 L2394.19 1997.02 L2394.19 1989.47 L2411.02 1989.47 L2411.02 1981.92 L2427.97 1981.92 L2427.97 1974.25 L2444.80 1974.25 L2444.80 1966.57 L2461.76 1966.57 L2461.76 1958.78 L2478.59 1958.78 L2478.59 1951.10 L2495.54 1951.10 L2495.54 1943.31 L2512.37 1943.31 L2512.37 1935.51 L2529.20 1935.51 L2529.20 1927.59 L2546.16 1927.59 L2546.16 1919.67 L2562.99 1919.67 L2562.99 1911.75 L2579.94 1911.75 L2579.94 1903.71 L2596.77 1903.71 L2596.77 1895.66 L2613.72 1895.66 L2613.72 1887.62 L2630.55 1887.62 L2630.55 1879.57 L2647.51 1879.57 L2647.51 1871.41 L2664.34 1871.41 L2664.34 1863.24 L2681.17 1863.24 L2681.17 1854.95 L2698.12 1854.95 L2698.12 1846.66 L2714.95 1846.66 L2714.95 1838.36 L2731.91 1838.36 L2731.91 1830.07 L2748.74 1830.07 L2748.74 1821.66 L2765.69 1821.66 L2765.69 1813.24 L2782.52 1813.24 L2782.52 1804.83 L2799.47 1804.83 L2799.47 1796.41 L2816.30 1796.41 L2816.30 1787.87 L2833.13 1787.87 L2833.13 1779.33 L2850.09 1779.33 L2850.09 1770.79 L2866.92 1770.79 L2866.92 1762.13 L2883.87 1762.13 L2883.87 1753.59 L2900.70 1753.59 L2900.70 1744.93 L2917.65 1744.93 L2917.65 1736.14 L2934.48 1736.14 L2934.48 1727.48 L2951.44 1727.48 L2951.44 1718.69 L2968.27 1718.69 L2968.27 1709.91 L2985.22 1709.91 L2985.22 1701.12 L3002.05 1701.12 L3002.05 1692.21 L3018.88 1692.21 L3018.88 1683.30 L3035.84 1683.30 L3035.84 1674.39 L3052.66 1674.39 L3052.66 1665.36 L3069.62 1665.36 L3069.62 1656.45 L3086.45 1656.45 L3086.45 1647.41 L3103.40 1647.41 L3103.40 1638.38 L3120.23 1638.38 L3120.23 1629.22 L3137.19 1629.22 L3137.19 1620.19 L3154.02 1620.19 L3154.02 1611.03 L3170.85 1611.03 L3170.85 1601.87 L3187.80 1601.87 L3187.80 1592.59 L3204.63 1592.59 L3204.63 1583.31 L3221.58 1583.31 L3221.58 1574.15 L3238.41 1574.15 L3238.41 1564.87 L3255.37 1564.87 L3255.37 1555.46 L3272.20 1555.46 L3272.20 1546.18 L3289.15 1546.18 L3289.15 1536.78 L3305.98 1536.78 L3305.98 1527.37 L3322.81 1527.37 L3322.81 1517.96 L3339.76 1517.96 L3339.76 1508.44 L3356.59 1508.44 L3356.59 1499.03 L3373.55 1499.03 L3373.55 1489.50 L3390.38 1489.50 L3390.38 1479.97 L3407.33 1479.97 L3407.33 1470.44 L3424.16 1470.44 L3424.16 1460.79 L3441.12 1460.79 L3441.12 1451.14 L3457.95 1451.14 L3457.95 1441.49 L3474.90 1441.49 L3474.90 1431.83 L3491.73 1431.83 L3491.73 1422.06 L3508.56 1422.06 L3508.56 1412.40 L3525.51 1412.40 L3525.51 1402.63 L3542.34 1402.63 L3542.34 1392.85 L3559.30 1392.85 L3559.30 1382.95 L3576.13 1382.95 L3576.13 1373.17 L3593.08 1373.17 L3593.08 1363.27 L3609.91 1363.27 L3609.91 1353.37 L3626.86 1353.37 L3626.86 1343.47 L3643.70 1343.47 L3643.70 1333.57 L3660.53 1333.57 L3660.53 1323.55 L3677.48 1323.55 L3677.48 1313.65 L3694.31 1313.65 L3694.31 1303.62 L3711.26 1303.62 L3711.26 1293.60 L3728.09 1293.60 L3728.09 1283.58 L3745.05 1283.58 L3745.05 1273.43 L3761.88 1273.43 L3761.88 1263.40 L3778.83 1263.40 L3778.83 1253.26 L3795.66 1253.26 L3795.66 1243.11" stroke-linejoin="round" style="fill:none;stroke:#000000;stroke-width:8.64"/>
	<line x1="553.29" y1="2509.23" x2="553.29" y2="419.90" style="stroke:#000000;stroke-width:5.76"/>
	<line x1="553.29" y1="2445.87" x2="513.32" y2="2445.87" style="stroke:#000000;stroke-width:5.76"/>
	<text x="493.27" y="2480.90" style="font-family:'Helvetica';font-size:99.99px;fill:#000000" text-anchor="end">0</text>
	<line x1="553.29" y1="2282.27" x2="513.32" y2="2282.27" style="stroke:#000000;stroke-width:5.76"/>
	<text x="493.27" y="2317.30" style="font-family:'Helvetica';font-size:99.99px;fill:#000000" text-anchor="end">90</text>
	<line x1="553.29" y1="2118.79" x2="513.32" y2="2118.79" style="stroke:#000000;stroke-width:5.76"/>
	<text x="493.27" y="2153.82" style="font-family:'Helvetica';font-size:99.99px;fill:#000000" text-anchor="end">180</text>
	<line x1="553.29" y1="1955.19" x2="513.32" y2="1955.19" style="stroke:#000000;stroke-width:5.76"/>
	<text x="493.27" y="1990.22" style="font-family:'Helvetica';font-size:99.99px;fill:#000000" text-anchor="end">270</text>
	<line x1="553.29" y1="1791.71" x2="513.32" y2="1791.71" style="stroke:#000000;stroke-width:5.76"/>
	<text x="493.27" y="1826.74" style="font-family:'Helvetica';font-size:99.99px;fill:#000000" text-anchor="end">360</text>
	<line x1="553.29" y1="1628.11" x2="513.32" y2="1628.11" style="stroke:#000000;stroke-width:5.76"/>
	<text x="493.27" y="1663.13" style="font-family:'Helvetica';font-size:99.99px;fill:#000000" text-anchor="end">450</text>
	<line x1="553.29" y1="1464.63" x2="513.32" y2="1464.63" style="stroke:#000000;stroke-width:5.76"/>
	<text x="493.27" y="1499.66" style="font-family:'Helvetica';font-size:99.99px;fill:#000000" text-anchor="end">540</text>
	<line x1="553.29" y1="1301.02" x2="513.32" y2="1301.02" style="stroke:#000000;stroke-width:5.76"/>
	<text x="493.27" y="1336.05" style="font-family:'Helvetica';font-size:99.99px;fill:#000000" text-anchor="end">630</text>
	<line x1="553.29" y1="1137.42" x2="513.32" y2="1137.42" style="stroke:#000000;stroke-width:5.76"/>
	<text x="493.27" y="1172.45" style="font-family:'Helvetica';font-size:99.99px;fill:#000000" text-anchor="end">720</text>
	<line x1="553.29" y1="973.94" x2="513.32" y2="973.94" style="stroke:#000000;stroke-width:5.76"/>
	<text x="493.27" y="1008.97" style="font-family:'Helvetica';font-size:99.99px;fill:#000000" text-anchor="end">810</text>
	<line x1="553.29" y1="810.34" x2="513.32" y2="810.34" style="stroke:#000000;stroke-width:5.76"/>
	<text x="493.27" y="845.37" style="font-family:'Helvetica';font-size:99.99px;fill:#000000" text-anchor="end">900</text>
	<line x1="553.29" y1="646.86" x2="513.32" y2="646.86" style="stroke:#000000;stroke-width:5.76"/>
	<text x="493.27" y="681.89" style="font-family:'Helvetica';font-size:99.99px;fill:#000000" text-anchor="end">990</text>
	<line x1="553.29" y1="483.26" x2="513.32" y2="483.26" style="stroke:#000000;stroke-width:5.76"/>
	<text x="493.27" y="518.29" style="font-family:'Helvetica';font-size:99.99px;fill:#000000" text-anchor="end">1080</text>
	<text x="190.71" y="1464.63" style="font-family:'Helvetica';font-size:99.99px;fill:#000000" transform="rotate(-90 190.71,1464.63)" text-anchor="middle">LOS (years)</text>
	<line x1="553.29" y1="2509.23" x2="3859.02" y2="2509.23" style="stroke:#000000;stroke-width:5.76"/>
	<line x1="616.65" y1="2509.23" x2="616.65" y2="2549.21" style="stroke:#000000;stroke-width:5.76"/>
	<text x="616.65" y="2625.15" style="font-family:'Helvetica';font-size:79.94px;fill:#000000" text-anchor="middle">0</text>
	<line x1="807.35" y1="2509.23" x2="807.35" y2="2549.21" style="stroke:#000000;stroke-width:5.76"/>
	<text x="807.35" y="2625.15" style="font-family:'Helvetica';font-size:79.94px;fill:#000000" text-anchor="middle">.3</text>
	<line x1="997.92" y1="2509.23" x2="997.92" y2="2549.21" style="stroke:#000000;stroke-width:5.76"/>
	<text x="997.92" y="2625.15" style="font-family:'Helvetica';font-size:79.94px;fill:#000000" text-anchor="middle">.6</text>
	<line x1="1188.62" y1="2509.23" x2="1188.62" y2="2549.21" style="stroke:#000000;stroke-width:5.76"/>
	<text x="1188.62" y="2625.15" style="font-family:'Helvetica';font-size:79.94px;fill:#000000" text-anchor="middle">.9</text>
	<line x1="1379.32" y1="2509.23" x2="1379.32" y2="2549.21" style="stroke:#000000;stroke-width:5.76"/>
	<text x="1379.32" y="2625.15" style="font-family:'Helvetica';font-size:79.94px;fill:#000000" text-anchor="middle">1.2</text>
	<line x1="1570.02" y1="2509.23" x2="1570.02" y2="2549.21" style="stroke:#000000;stroke-width:5.76"/>
	<text x="1570.02" y="2625.15" style="font-family:'Helvetica';font-size:79.94px;fill:#000000" text-anchor="middle">1.5</text>
	<line x1="1760.59" y1="2509.23" x2="1760.59" y2="2549.21" style="stroke:#000000;stroke-width:5.76"/>
	<text x="1760.59" y="2625.15" style="font-family:'Helvetica';font-size:79.94px;fill:#000000" text-anchor="middle">1.8</text>
	<line x1="1951.29" y1="2509.23" x2="1951.29" y2="2549.21" style="stroke:#000000;stroke-width:5.76"/>
	<text x="1951.29" y="2625.15" style="font-family:'Helvetica';font-size:79.94px;fill:#000000" text-anchor="middle">2.1</text>
	<line x1="2141.99" y1="2509.23" x2="2141.99" y2="2549.21" style="stroke:#000000;stroke-width:5.76"/>
	<text x="2141.99" y="2625.15" style="font-family:'Helvetica';font-size:79.94px;fill:#000000" text-anchor="middle">2.4</text>
	<line x1="2332.69" y1="2509.23" x2="2332.69" y2="2549.21" style="stroke:#000000;stroke-width:5.76"/>
	<text x="2332.69" y="2625.15" style="font-family:'Helvetica';font-size:79.94px;fill:#000000" text-anchor="middle">2.7</text>
	<line x1="2523.26" y1="2509.23" x2="2523.26" y2="2549.21" style="stroke:#000000;stroke-width:5.76"/>
	<text x="2523.26" y="2625.15" style="font-family:'Helvetica';font-size:79.94px;fill:#000000" text-anchor="middle">3</text>
	<line x1="2713.96" y1="2509.23" x2="2713.96" y2="2549.21" style="stroke:#000000;stroke-width:5.76"/>
	<text x="2713.96" y="2625.15" style="font-family:'Helvetica';font-size:79.94px;fill:#000000" text-anchor="middle">3.3</text>
	<line x1="2904.66" y1="2509.23" x2="2904.66" y2="2549.21" style="stroke:#000000;stroke-width:5.76"/>
	<text x="2904.66" y="2625.15" style="font-family:'Helvetica';font-size:79.94px;fill:#000000" text-anchor="middle">3.6</text>
	<line x1="3095.36" y1="2509.23" x2="3095.36" y2="2549.21" style="stroke:#000000;stroke-width:5.76"/>
	<text x="3095.36" y="2625.15" style="font-family:'Helvetica';font-size:79.94px;fill:#000000" text-anchor="middle">3.9</text>
	<line x1="3285.93" y1="2509.23" x2="3285.93" y2="2549.21" style="stroke:#000000;stroke-width:5.76"/>
	<text x="3285.93" y="2625.15" style="font-family:'Helvetica';font-size:79.94px;fill:#000000" text-anchor="middle">4.2</text>
	<line x1="3476.63" y1="2509.23" x2="3476.63" y2="2549.21" style="stroke:#000000;stroke-width:5.76"/>
	<text x="3476.63" y="2625.15" style="font-family:'Helvetica';font-size:79.94px;fill:#000000" text-anchor="middle">4.5</text>
	<line x1="3667.33" y1="2509.23" x2="3667.33" y2="2549.21" style="stroke:#000000;stroke-width:5.76"/>
	<text x="3667.33" y="2625.15" style="font-family:'Helvetica';font-size:79.94px;fill:#000000" text-anchor="middle">4.8</text>
	<line x1="3858.03" y1="2509.23" x2="3858.03" y2="2549.21" style="stroke:#000000;stroke-width:5.76"/>
	<text x="3858.03" y="2625.15" style="font-family:'Helvetica';font-size:79.94px;fill:#000000" text-anchor="middle">5.1</text>
	<text x="2206.22" y="2729.16" style="font-family:'Helvetica';font-size:99.99px;fill:#000000" text-anchor="middle">Time (years)</text>
	<rect x="587.81" y="454.42" width="1369.54" height="606.39" style="fill:#FFFFFF"/>
	<rect x="590.69" y="457.30" width="1363.78" height="600.63" style="fill:none;stroke:#000000;stroke-width:5.76"/>
	<rect x="631.00" y="497.74" width="374.47" height="99.99" style="fill:#999999;fill-opacity:0.35"/>
	<rect x="635.32" y="502.06" width="365.83" height="91.35" style="fill:none;stroke:#808080;stroke-opacity:0.35;stroke-width:8.64"/>
	<rect x="631.00" y="637.70" width="374.47" height="99.99" style="fill:#333333;fill-opacity:0.35"/>
	<rect x="635.32" y="642.02" width="365.83" height="91.35" style="fill:none;stroke:#000000;stroke-opacity:0.35;stroke-width:8.64"/>
	<line x1="631.00" y1="827.67" x2="671.34" y2="827.67" style="stroke:#808080;stroke-width:8.64"/>
	<line x1="688.54" y1="827.67" x2="728.89" y2="827.67" style="stroke:#808080;stroke-width:8.64"/>
	<line x1="746.09" y1="827.67" x2="786.43" y2="827.67" style="stroke:#808080;stroke-width:8.64"/>
	<line x1="803.76" y1="827.67" x2="843.98" y2="827.67" style="stroke:#808080;stroke-width:8.64"/>
	<line x1="861.30" y1="827.67" x2="901.64" y2="827.67" style="stroke:#808080;stroke-width:8.64"/>
	<line x1="918.84" y1="827.67" x2="959.19" y2="827.67" style="stroke:#808080;stroke-width:8.64"/>
	<line x1="976.39" y1="827.67" x2="1005.47" y2="827.67" style="stroke:#808080;stroke-width:8.64"/>
	<line x1="631.00" y1="967.63" x2="1005.47" y2="967.63" style="stroke:#000000;stroke-width:8.64"/>
	<text x="1065.36" y="582.76" style="font-family:'Helvetica';font-size:99.99px;fill:#000000">Outpatient CI95%</text>
	<text x="1065.36" y="722.73" style="font-family:'Helvetica';font-size:99.99px;fill:#000000">Residential CI95%</text>
	<text x="1065.36" y="862.69" style="font-family:'Helvetica';font-size:99.99px;fill:#000000">Outpatient</text>
	<text x="1065.36" y="1002.66" style="font-family:'Helvetica';font-size:99.99px;fill:#000000">Residential</text>
	<text x="2206.22" y="369.63" style="font-family:'Helvetica';font-size:110.01px;fill:#000000" text-anchor="middle">from 3rd Readmission to 4th Readmission</text>
	<text x="2206.22" y="215.98" style="font-family:'Helvetica';font-size:139.96px;fill:#1E2D53" text-anchor="middle">Length of Stay</text>
</svg>
