<?xml version="1.0" encoding="UTF-8" standalone="no"?>
<!-- This is a Stata 16.1 generated SVG file (http://www.stata.com) -->

<svg version="1.1" width="5.50in" height="4.00in" viewBox="0 0 3960 2880" xmlns="http://www.w3.org/2000/svg" xmlns:xlink="http://www.w3.org/1999/xlink">
	<desc>Stata Graph - los_models_11_3y_rp_22_corr3</desc>
	<rect x="0" y="0" width="3960" height="2880" style="fill:#EAF2F3;stroke:none"/>
	<rect x="0.00" y="0.00" width="3959.88" height="2880.00" style="fill:#FFFFFF"/>
	<rect x="2.88" y="2.88" width="3954.12" height="2874.24" style="fill:none;stroke:#FFFFFF;stroke-width:5.76"/>
	<rect x="495.00" y="419.90" width="3364.02" height="2089.34" style="fill:#FFFFFF"/>
	<rect x="497.88" y="422.78" width="3358.26" height="2083.58" style="fill:none;stroke:#FFFFFF;stroke-width:5.76"/>
	<line x1="495.00" y1="2062.73" x2="3859.02" y2="2062.73" style="stroke:#EAF2F3;stroke-width:8.64"/>
	<line x1="495.00" y1="1679.46" x2="3859.02" y2="1679.46" style="stroke:#EAF2F3;stroke-width:8.64"/>
	<line x1="495.00" y1="1296.32" x2="3859.02" y2="1296.32" style="stroke:#EAF2F3;stroke-width:8.64"/>
	<line x1="495.00" y1="913.18" x2="3859.02" y2="913.18" style="stroke:#EAF2F3;stroke-width:8.64"/>
	<defs>
		<path id="path_iwzTYOTE" d="M717.87 2112.23 L717.87 2112.23 L735.08 2112.23 L735.08 2082.65 L752.28 2082.65 L752.28 2054.19 L769.48 2054.19 L769.48 2026.96 L786.55 2026.96 L786.55 2000.85 L803.76 2000.85 L803.76 1975.73 L820.96 1975.73 L820.96 1951.60 L838.16 1951.60 L838.16 1928.33 L855.36 1928.33 L855.36 1905.93 L872.56 1905.93 L872.56 1884.40 L889.76 1884.40 L889.76 1863.49 L906.96 1863.49 L906.96 1843.31 L924.16 1843.31 L924.16 1823.88 L941.37 1823.88 L941.37 1805.07 L958.57 1805.07 L958.57 1786.88 L975.77 1786.88 L975.77 1769.31 L992.97 1769.31 L992.97 1752.35 L1010.17 1752.35 L1010.17 1736.02 L1027.25 1736.02 L1027.25 1720.18 L1044.45 1720.18 L1044.45 1704.83 L1061.65 1704.83 L1061.65 1689.98 L1078.85 1689.98 L1078.85 1675.63 L1096.05 1675.63 L1096.05 1661.52 L1113.26 1661.52 L1113.26 1647.91 L1130.46 1647.91 L1130.46 1634.66 L1147.66 1634.66 L1147.66 1621.79 L1164.86 1621.79 L1164.86 1609.30 L1182.06 1609.30 L1182.06 1597.17 L1199.26 1597.17 L1199.26 1585.41 L1216.46 1585.41 L1216.46 1573.90 L1233.66 1573.90 L1233.66 1562.89 L1250.87 1562.89 L1250.87 1552.12 L1267.94 1552.12 L1267.94 1541.73 L1285.14 1541.73 L1285.14 1531.58 L1302.35 1531.58 L1302.35 1521.55 L1319.55 1521.55 L1319.55 1511.90 L1336.75 1511.90 L1336.75 1502.37 L1353.95 1502.37 L1353.95 1493.09 L1371.15 1493.09 L1371.15 1484.06 L1388.35 1484.06 L1388.35 1475.15 L1405.55 1475.15 L1405.55 1466.36 L1422.75 1466.36 L1422.75 1457.70 L1439.95 1457.70 L1439.95 1449.28 L1457.16 1449.28 L1457.16 1440.87 L1474.36 1440.87 L1474.36 1432.70 L1491.56 1432.70 L1491.56 1424.53 L1508.64 1424.53 L1508.64 1416.49 L1525.84 1416.49 L1525.84 1408.57 L1543.04 1408.57 L1543.04 1400.77 L1560.24 1400.77 L1560.24 1392.97 L1577.44 1392.97 L1577.44 1385.30 L1594.64 1385.30 L1594.64 1377.75 L1611.84 1377.75 L1611.84 1370.20 L1629.05 1370.20 L1629.05 1362.65 L1646.25 1362.65 L1646.25 1355.35 L1663.45 1355.35 L1663.45 1348.05 L1680.65 1348.05 L1680.65 1340.75 L1697.85 1340.75 L1697.85 1333.57 L1715.05 1333.57 L1715.05 1326.39 L1732.25 1326.39 L1732.25 1319.34 L1749.33 1319.34 L1749.33 1312.29 L1766.53 1312.29 L1766.53 1305.23 L1783.73 1305.23 L1783.73 1298.30 L1800.93 1298.30 L1800.93 1291.37 L1818.13 1291.37 L1818.13 1284.44 L1835.34 1284.44 L1835.34 1277.63 L1852.54 1277.63 L1852.54 1270.83 L1869.74 1270.83 L1869.74 1264.02 L1886.94 1264.02 L1886.94 1257.34 L1904.14 1257.34 L1904.14 1250.66 L1921.34 1250.66 L1921.34 1243.97 L1938.54 1243.97 L1938.54 1237.41 L1955.74 1237.41 L1955.74 1230.86 L1972.95 1230.86 L1972.95 1224.30 L1990.02 1224.30 L1990.02 1217.74 L2007.22 1217.74 L2007.22 1211.30 L2024.43 1211.30 L2024.43 1204.74 L2041.63 1204.74 L2041.63 1198.31 L2058.83 1198.31 L2058.83 1191.87 L2076.03 1191.87 L2076.03 1185.56 L2093.23 1185.56 L2093.23 1179.13 L2110.43 1179.13 L2110.43 1172.82 L2127.63 1172.82 L2127.63 1166.38 L2144.84 1166.38 L2144.84 1160.07 L2162.04 1160.07 L2162.04 1153.76 L2179.24 1153.76 L2179.24 1147.45 L2196.44 1147.45 L2196.44 1141.13 L2213.64 1141.13 L2213.64 1134.95 L2230.72 1134.95 L2230.72 1128.64 L2247.92 1128.64 L2247.92 1122.45 L2265.12 1122.45 L2265.12 1116.14 L2282.32 1116.14 L2282.32 1109.95 L2299.52 1109.95 L2299.52 1103.76 L2316.72 1103.76 L2316.72 1097.57 L2333.93 1097.57 L2333.93 1091.39 L2351.13 1091.39 L2351.13 1085.20 L2368.33 1085.20 L2368.33 1079.01 L2385.53 1079.01 L2385.53 1072.82 L2402.73 1072.82 L2402.73 1066.76 L2419.93 1066.76 L2419.93 1060.57 L2437.13 1060.57 L2437.13 1054.51 L2454.33 1054.51 L2454.33 1048.32 L2471.41 1048.32 L2471.41 1042.26 L2488.61 1042.26 L2488.61 1036.07 L2505.81 1036.07 L2505.81 1030.00 L2523.01 1030.00 L2523.01 1023.94 L2540.22 1023.94 L2540.22 1017.88 L2557.42 1017.88 L2557.42 1011.69 L2574.62 1011.69 L2574.62 1005.62 L2591.82 1005.62 L2591.82 999.56 L2609.02 999.56 L2609.02 993.50 L2626.22 993.50 L2626.22 987.43 L2643.42 987.43 L2643.42 981.49 L2660.63 981.49 L2660.63 975.43 L2677.83 975.43 L2677.83 969.36 L2695.03 969.36 L2695.03 963.30 L2712.11 963.30 L2712.11 957.24 L2729.31 957.24 L2729.31 951.30 L2746.51 951.30 L2746.51 945.23 L2763.71 945.23 L2763.71 939.17 L2780.91 939.17 L2780.91 933.23 L2798.11 933.23 L2798.11 927.16 L2815.31 927.16 L2815.31 921.10 L2832.51 921.10 L2832.51 915.16 L2849.72 915.16 L2849.72 909.10 L2866.92 909.10 L2866.92 903.16 L2884.12 903.16 L2884.12 897.09 L2901.32 897.09 L2901.32 891.15 L2918.52 891.15 L2918.52 885.09 L2935.72 885.09 L2935.72 879.15 L2952.80 879.15 L2952.80 873.08 L2970.00 873.08 L2970.00 867.14 L2987.20 867.14 L2987.20 861.08 L3004.40 861.08 L3004.40 855.14 L3021.60 855.14 L3021.60 849.08 L3038.80 849.08 L3038.80 843.14 L3056.01 843.14 L3056.01 837.19 L3073.21 837.19 L3073.21 831.13 L3090.41 831.13 L3090.41 825.19 L3107.61 825.19 L3107.61 819.25 L3124.81 819.25 L3124.81 813.19 L3142.01 813.19 L3142.01 807.25 L3159.21 807.25 L3159.21 801.31 L3176.29 801.31 L3176.29 795.24 L3193.49 795.24 L3193.49 789.30 L3210.69 789.30 L3210.69 783.36 L3227.89 783.36 L3227.89 777.30 L3245.10 777.30 L3245.10 771.36 L3262.30 771.36 L3262.30 765.42 L3279.50 765.42 L3279.50 759.35 L3296.70 759.35 L3296.70 753.41 L3313.90 753.41 L3313.90 747.47 L3331.10 747.47 L3331.10 741.41 L3348.30 741.41 L3348.30 735.47 L3365.51 735.47 L3365.51 729.53 L3382.71 729.53 L3382.71 723.59 L3399.91 723.59 L3399.91 717.52 L3416.99 717.52 L3416.99 711.58 L3434.19 711.58 L3434.19 705.64 L3451.39 705.64 L3451.39 699.70 L3468.59 699.70 L3468.59 693.64 L3485.79 693.64 L3485.79 687.70 L3502.99 687.70 L3502.99 681.76 L3520.19 681.76 L3520.19 675.82 L3537.39 675.82 L3537.39 669.76 L3554.59 669.76 L3554.59 663.82 L3571.80 663.82 L3571.80 657.88 L3589.00 657.88 L3589.00 651.94 L3606.20 651.94 L3606.20 646.00 L3623.40 646.00 L3623.40 639.93 L3640.60 639.93 L3640.60 633.99 L3657.68 633.99 L3657.68 628.05 L3674.88 628.05 L3674.88 622.11 L3692.08 622.11 L3692.08 616.17 L3709.28 616.17 L3709.28 610.11 L3726.48 610.11 L3726.48 604.17 L3743.68 604.17 L3743.68 598.23 L3760.89 598.23 L3760.89 592.29 L3778.09 592.29 L3778.09 586.22 L3795.29 586.22 L3795.29 580.28 L3795.29 483.26 L3795.29 489.82 L3778.09 489.82 L3778.09 496.25 L3760.89 496.25 L3760.89 502.81 L3743.68 502.81 L3743.68 509.25 L3726.48 509.25 L3726.48 515.81 L3709.28 515.81 L3709.28 522.24 L3692.08 522.24 L3692.08 528.80 L3674.88 528.80 L3674.88 535.24 L3657.68 535.24 L3657.68 541.67 L3640.60 541.67 L3640.60 548.23 L3623.40 548.23 L3623.40 554.66 L3606.20 554.66 L3606.20 561.22 L3589.00 561.22 L3589.00 567.66 L3571.80 567.66 L3571.80 574.22 L3554.59 574.22 L3554.59 580.65 L3537.39 580.65 L3537.39 587.21 L3520.19 587.21 L3520.19 593.65 L3502.99 593.65 L3502.99 600.21 L3485.79 600.21 L3485.79 606.64 L3468.59 606.64 L3468.59 613.20 L3451.39 613.20 L3451.39 619.64 L3434.19 619.64 L3434.19 626.19 L3416.99 626.19 L3416.99 632.63 L3399.91 632.63 L3399.91 639.19 L3382.71 639.19 L3382.71 645.62 L3365.51 645.62 L3365.51 652.18 L3348.30 652.18 L3348.30 658.62 L3331.10 658.62 L3331.10 665.18 L3313.90 665.18 L3313.90 671.61 L3296.70 671.61 L3296.70 678.17 L3279.50 678.17 L3279.50 684.61 L3262.30 684.61 L3262.30 691.17 L3245.10 691.17 L3245.10 697.60 L3227.89 697.60 L3227.89 704.16 L3210.69 704.16 L3210.69 710.59 L3193.49 710.59 L3193.49 717.15 L3176.29 717.15 L3176.29 723.59 L3159.21 723.59 L3159.21 730.15 L3142.01 730.15 L3142.01 736.71 L3124.81 736.71 L3124.81 743.14 L3107.61 743.14 L3107.61 749.70 L3090.41 749.70 L3090.41 756.14 L3073.21 756.14 L3073.21 762.70 L3056.01 762.70 L3056.01 769.13 L3038.80 769.13 L3038.80 775.69 L3021.60 775.69 L3021.60 782.25 L3004.40 782.25 L3004.40 788.68 L2987.20 788.68 L2987.20 795.24 L2970.00 795.24 L2970.00 801.68 L2952.80 801.68 L2952.80 808.24 L2935.72 808.24 L2935.72 814.80 L2918.52 814.80 L2918.52 821.23 L2901.32 821.23 L2901.32 827.79 L2884.12 827.79 L2884.12 834.35 L2866.92 834.35 L2866.92 840.78 L2849.72 840.78 L2849.72 847.34 L2832.51 847.34 L2832.51 853.90 L2815.31 853.90 L2815.31 860.46 L2798.11 860.46 L2798.11 866.90 L2780.91 866.90 L2780.91 873.45 L2763.71 873.45 L2763.71 880.01 L2746.51 880.01 L2746.51 886.57 L2729.31 886.57 L2729.31 893.13 L2712.11 893.13 L2712.11 899.69 L2695.03 899.69 L2695.03 906.13 L2677.83 906.13 L2677.83 912.68 L2660.63 912.68 L2660.63 919.24 L2643.42 919.24 L2643.42 925.80 L2626.22 925.80 L2626.22 932.36 L2609.02 932.36 L2609.02 938.92 L2591.82 938.92 L2591.82 945.60 L2574.62 945.60 L2574.62 952.16 L2557.42 952.16 L2557.42 958.72 L2540.22 958.72 L2540.22 965.28 L2523.01 965.28 L2523.01 971.96 L2505.81 971.96 L2505.81 978.52 L2488.61 978.52 L2488.61 985.08 L2471.41 985.08 L2471.41 991.76 L2454.33 991.76 L2454.33 998.32 L2437.13 998.32 L2437.13 1005.01 L2419.93 1005.01 L2419.93 1011.69 L2402.73 1011.69 L2402.73 1018.25 L2385.53 1018.25 L2385.53 1024.93 L2368.33 1024.93 L2368.33 1031.61 L2351.13 1031.61 L2351.13 1038.29 L2333.93 1038.29 L2333.93 1044.98 L2316.72 1044.98 L2316.72 1051.66 L2299.52 1051.66 L2299.52 1058.34 L2282.32 1058.34 L2282.32 1065.15 L2265.12 1065.15 L2265.12 1071.83 L2247.92 1071.83 L2247.92 1078.64 L2230.72 1078.64 L2230.72 1085.32 L2213.64 1085.32 L2213.64 1092.13 L2196.44 1092.13 L2196.44 1098.93 L2179.24 1098.93 L2179.24 1105.74 L2162.04 1105.74 L2162.04 1112.55 L2144.84 1112.55 L2144.84 1119.35 L2127.63 1119.35 L2127.63 1126.16 L2110.43 1126.16 L2110.43 1133.09 L2093.23 1133.09 L2093.23 1139.90 L2076.03 1139.90 L2076.03 1146.83 L2058.83 1146.83 L2058.83 1153.76 L2041.63 1153.76 L2041.63 1160.69 L2024.43 1160.69 L2024.43 1167.62 L2007.22 1167.62 L2007.22 1174.67 L1990.02 1174.67 L1990.02 1181.73 L1972.95 1181.73 L1972.95 1188.66 L1955.74 1188.66 L1955.74 1195.83 L1938.54 1195.83 L1938.54 1202.89 L1921.34 1202.89 L1921.34 1210.07 L1904.14 1210.07 L1904.14 1217.24 L1886.94 1217.24 L1886.94 1224.42 L1869.74 1224.42 L1869.74 1231.72 L1852.54 1231.72 L1852.54 1238.90 L1835.34 1238.90 L1835.34 1246.33 L1818.13 1246.33 L1818.13 1253.63 L1800.93 1253.63 L1800.93 1261.05 L1783.73 1261.05 L1783.73 1268.48 L1766.53 1268.48 L1766.53 1276.03 L1749.33 1276.03 L1749.33 1283.58 L1732.25 1283.58 L1732.25 1291.12 L1715.05 1291.12 L1715.05 1298.80 L1697.85 1298.80 L1697.85 1306.47 L1680.65 1306.47 L1680.65 1314.27 L1663.45 1314.27 L1663.45 1322.06 L1646.25 1322.06 L1646.25 1329.86 L1629.05 1329.86 L1629.05 1337.90 L1611.84 1337.90 L1611.84 1345.95 L1594.64 1345.95 L1594.64 1353.99 L1577.44 1353.99 L1577.44 1362.16 L1560.24 1362.16 L1560.24 1370.45 L1543.04 1370.45 L1543.04 1378.74 L1525.84 1378.74 L1525.84 1387.16 L1508.64 1387.16 L1508.64 1395.70 L1491.56 1395.70 L1491.56 1404.24 L1474.36 1404.24 L1474.36 1413.02 L1457.16 1413.02 L1457.16 1421.93 L1439.95 1421.93 L1439.95 1430.84 L1422.75 1430.84 L1422.75 1440.00 L1405.55 1440.00 L1405.55 1449.28 L1388.35 1449.28 L1388.35 1458.69 L1371.15 1458.69 L1371.15 1468.34 L1353.95 1468.34 L1353.95 1478.12 L1336.75 1478.12 L1336.75 1488.02 L1319.55 1488.02 L1319.55 1498.29 L1302.35 1498.29 L1302.35 1508.68 L1285.14 1508.68 L1285.14 1519.45 L1267.94 1519.45 L1267.94 1530.34 L1250.87 1530.34 L1250.87 1541.60 L1233.66 1541.60 L1233.66 1553.23 L1216.46 1553.23 L1216.46 1565.24 L1199.26 1565.24 L1199.26 1577.61 L1182.06 1577.61 L1182.06 1590.36 L1164.86 1590.36 L1164.86 1603.48 L1147.66 1603.48 L1147.66 1616.97 L1130.46 1616.97 L1130.46 1630.70 L1113.26 1630.70 L1113.26 1644.94 L1096.05 1644.94 L1096.05 1659.54 L1078.85 1659.54 L1078.85 1674.64 L1061.65 1674.64 L1061.65 1690.11 L1044.45 1690.11 L1044.45 1706.07 L1027.25 1706.07 L1027.25 1722.53 L1010.17 1722.53 L1010.17 1739.48 L992.97 1739.48 L992.97 1757.06 L975.77 1757.06 L975.77 1775.25 L958.57 1775.25 L958.57 1794.06 L941.37 1794.06 L941.37 1813.61 L924.16 1813.61 L924.16 1833.66 L906.96 1833.66 L906.96 1854.45 L889.76 1854.45 L889.76 1875.98 L872.56 1875.98 L872.56 1898.14 L855.36 1898.14 L855.36 1921.16 L838.16 1921.16 L838.16 1945.04 L820.96 1945.04 L820.96 1969.79 L803.76 1969.79 L803.76 1995.41 L786.55 1995.41 L786.55 2022.14 L769.48 2022.14 L769.48 2049.98 L752.28 2049.98 L752.28 2078.94 L735.08 2078.94 L735.08 2109.01 L717.87 2109.01 L717.87 2112.23 Z" stroke-linejoin="round"/>
	</defs>
	<defs>
		<clipPath id="clipPath_uGOltJxD">
			<use xlink:href="#path_iwzTYOTE"/>
		</clipPath>
	</defs>
	<use xlink:href="#path_iwzTYOTE" style="stroke:none;fill:#999999;fill-opacity:0.35"/>
	<use xlink:href="#path_iwzTYOTE" style="fill:none;stroke:#808080;stroke-opacity:0.35;stroke-width:17.28" clip-path="url(#clipPath_uGOltJxD)"/>
	<defs>
		<path id="path_sJyVwmCY" d="M717.87 2104.19 L717.87 2104.19 L735.08 2104.19 L735.08 2072.88 L752.28 2072.88 L752.28 2042.68 L769.48 2042.68 L769.48 2013.60 L786.55 2013.60 L786.55 1985.51 L803.76 1985.51 L803.76 1958.40 L820.96 1958.40 L820.96 1932.17 L838.16 1932.17 L838.16 1906.92 L855.36 1906.92 L855.36 1882.54 L872.56 1882.54 L872.56 1858.91 L889.76 1858.91 L889.76 1836.01 L906.96 1836.01 L906.96 1813.86 L924.16 1813.86 L924.16 1792.45 L941.37 1792.45 L941.37 1771.66 L958.57 1771.66 L958.57 1751.74 L975.77 1751.74 L975.77 1732.55 L992.97 1732.55 L992.97 1713.99 L1010.17 1713.99 L1010.17 1696.29 L1027.25 1696.29 L1027.25 1679.09 L1044.45 1679.09 L1044.45 1662.51 L1061.65 1662.51 L1061.65 1646.55 L1078.85 1646.55 L1078.85 1630.95 L1096.05 1630.95 L1096.05 1615.98 L1113.26 1615.98 L1113.26 1601.38 L1130.46 1601.38 L1130.46 1587.39 L1147.66 1587.39 L1147.66 1573.65 L1164.86 1573.65 L1164.86 1560.41 L1182.06 1560.41 L1182.06 1547.67 L1199.26 1547.67 L1199.26 1535.29 L1216.46 1535.29 L1216.46 1523.41 L1233.66 1523.41 L1233.66 1511.90 L1250.87 1511.90 L1250.87 1500.89 L1267.94 1500.89 L1267.94 1490.37 L1285.14 1490.37 L1285.14 1480.10 L1302.35 1480.10 L1302.35 1470.20 L1319.55 1470.20 L1319.55 1460.67 L1336.75 1460.67 L1336.75 1451.26 L1353.95 1451.26 L1353.95 1442.23 L1371.15 1442.23 L1371.15 1433.32 L1388.35 1433.32 L1388.35 1424.65 L1405.55 1424.65 L1405.55 1416.24 L1422.75 1416.24 L1422.75 1407.95 L1439.95 1407.95 L1439.95 1399.78 L1457.16 1399.78 L1457.16 1391.74 L1474.36 1391.74 L1474.36 1383.94 L1491.56 1383.94 L1491.56 1376.14 L1508.64 1376.14 L1508.64 1368.59 L1525.84 1368.59 L1525.84 1361.05 L1543.04 1361.05 L1543.04 1353.62 L1560.24 1353.62 L1560.24 1346.32 L1577.44 1346.32 L1577.44 1339.14 L1594.64 1339.14 L1594.64 1332.09 L1611.84 1332.09 L1611.84 1325.03 L1629.05 1325.03 L1629.05 1318.10 L1646.25 1318.10 L1646.25 1311.17 L1663.45 1311.17 L1663.45 1304.49 L1680.65 1304.49 L1680.65 1297.68 L1697.85 1297.68 L1697.85 1291.12 L1715.05 1291.12 L1715.05 1284.57 L1732.25 1284.57 L1732.25 1278.01 L1749.33 1278.01 L1749.33 1271.57 L1766.53 1271.57 L1766.53 1265.26 L1783.73 1265.26 L1783.73 1258.82 L1800.93 1258.82 L1800.93 1252.51 L1818.13 1252.51 L1818.13 1246.33 L1835.34 1246.33 L1835.34 1240.14 L1852.54 1240.14 L1852.54 1233.95 L1869.74 1233.95 L1869.74 1227.89 L1886.94 1227.89 L1886.94 1221.70 L1904.14 1221.70 L1904.14 1215.76 L1921.34 1215.76 L1921.34 1209.69 L1938.54 1209.69 L1938.54 1203.75 L1955.74 1203.75 L1955.74 1197.81 L1972.95 1197.81 L1972.95 1191.87 L1990.02 1191.87 L1990.02 1186.06 L2007.22 1186.06 L2007.22 1180.24 L2024.43 1180.24 L2024.43 1174.42 L2041.63 1174.42 L2041.63 1168.61 L2058.83 1168.61 L2058.83 1162.92 L2076.03 1162.92 L2076.03 1157.10 L2093.23 1157.10 L2093.23 1151.41 L2110.43 1151.41 L2110.43 1145.71 L2127.63 1145.71 L2127.63 1140.14 L2144.84 1140.14 L2144.84 1134.45 L2162.04 1134.45 L2162.04 1128.88 L2179.24 1128.88 L2179.24 1123.31 L2196.44 1123.31 L2196.44 1117.74 L2213.64 1117.74 L2213.64 1112.18 L2230.72 1112.18 L2230.72 1106.61 L2247.92 1106.61 L2247.92 1101.04 L2265.12 1101.04 L2265.12 1095.59 L2282.32 1095.59 L2282.32 1090.02 L2299.52 1090.02 L2299.52 1084.58 L2316.72 1084.58 L2316.72 1079.13 L2333.93 1079.13 L2333.93 1073.69 L2351.13 1073.69 L2351.13 1068.24 L2368.33 1068.24 L2368.33 1062.80 L2385.53 1062.80 L2385.53 1057.35 L2402.73 1057.35 L2402.73 1051.91 L2419.93 1051.91 L2419.93 1046.46 L2437.13 1046.46 L2437.13 1041.14 L2454.33 1041.14 L2454.33 1035.70 L2471.41 1035.70 L2471.41 1030.37 L2488.61 1030.37 L2488.61 1024.93 L2505.81 1024.93 L2505.81 1019.61 L2523.01 1019.61 L2523.01 1014.16 L2540.22 1014.16 L2540.22 1008.84 L2557.42 1008.84 L2557.42 1003.52 L2574.62 1003.52 L2574.62 998.20 L2591.82 998.20 L2591.82 992.88 L2609.02 992.88 L2609.02 987.56 L2626.22 987.56 L2626.22 982.23 L2643.42 982.23 L2643.42 976.91 L2660.63 976.91 L2660.63 971.59 L2677.83 971.59 L2677.83 966.27 L2695.03 966.27 L2695.03 960.95 L2712.11 960.95 L2712.11 955.63 L2729.31 955.63 L2729.31 950.43 L2746.51 950.43 L2746.51 945.11 L2763.71 945.11 L2763.71 939.79 L2780.91 939.79 L2780.91 934.59 L2798.11 934.59 L2798.11 929.27 L2815.31 929.27 L2815.31 923.95 L2832.51 923.95 L2832.51 918.75 L2849.72 918.75 L2849.72 913.43 L2866.92 913.43 L2866.92 908.23 L2884.12 908.23 L2884.12 902.91 L2901.32 902.91 L2901.32 897.71 L2918.52 897.71 L2918.52 892.39 L2935.72 892.39 L2935.72 887.19 L2952.80 887.19 L2952.80 881.99 L2970.00 881.99 L2970.00 876.67 L2987.20 876.67 L2987.20 871.47 L3004.40 871.47 L3004.40 866.15 L3021.60 866.15 L3021.60 860.96 L3038.80 860.96 L3038.80 855.76 L3056.01 855.76 L3056.01 850.44 L3073.21 850.44 L3073.21 845.24 L3090.41 845.24 L3090.41 840.04 L3107.61 840.04 L3107.61 834.72 L3124.81 834.72 L3124.81 829.52 L3142.01 829.52 L3142.01 824.32 L3159.21 824.32 L3159.21 819.13 L3176.29 819.13 L3176.29 813.81 L3193.49 813.81 L3193.49 808.61 L3210.69 808.61 L3210.69 803.41 L3227.89 803.41 L3227.89 798.21 L3245.10 798.21 L3245.10 792.89 L3262.30 792.89 L3262.30 787.69 L3279.50 787.69 L3279.50 782.50 L3296.70 782.50 L3296.70 777.30 L3313.90 777.30 L3313.90 772.10 L3331.10 772.10 L3331.10 766.78 L3348.30 766.78 L3348.30 761.58 L3365.51 761.58 L3365.51 756.38 L3382.71 756.38 L3382.71 751.19 L3399.91 751.19 L3399.91 745.99 L3416.99 745.99 L3416.99 740.67 L3434.19 740.67 L3434.19 735.47 L3451.39 735.47 L3451.39 730.27 L3468.59 730.27 L3468.59 725.07 L3485.79 725.07 L3485.79 719.88 L3502.99 719.88 L3502.99 714.68 L3520.19 714.68 L3520.19 709.48 L3537.39 709.48 L3537.39 704.16 L3554.59 704.16 L3554.59 698.96 L3571.80 698.96 L3571.80 693.76 L3589.00 693.76 L3589.00 688.57 L3606.20 688.57 L3606.20 683.37 L3623.40 683.37 L3623.40 678.17 L3640.60 678.17 L3640.60 672.85 L3657.68 672.85 L3657.68 667.65 L3674.88 667.65 L3674.88 662.45 L3692.08 662.45 L3692.08 657.26 L3709.28 657.26 L3709.28 652.06 L3726.48 652.06 L3726.48 646.86 L3743.68 646.86 L3743.68 641.66 L3760.89 641.66 L3760.89 636.34 L3778.09 636.34 L3778.09 631.14 L3795.29 631.14 L3795.29 625.95 L3795.29 529.05 L3795.29 534.86 L3778.09 534.86 L3778.09 540.56 L3760.89 540.56 L3760.89 546.25 L3743.68 546.25 L3743.68 552.07 L3726.48 552.07 L3726.48 557.76 L3709.28 557.76 L3709.28 563.58 L3692.08 563.58 L3692.08 569.27 L3674.88 569.27 L3674.88 574.96 L3657.68 574.96 L3657.68 580.78 L3640.60 580.78 L3640.60 586.47 L3623.40 586.47 L3623.40 592.29 L3606.20 592.29 L3606.20 597.98 L3589.00 597.98 L3589.00 603.80 L3571.80 603.80 L3571.80 609.49 L3554.59 609.49 L3554.59 615.18 L3537.39 615.18 L3537.39 621.00 L3520.19 621.00 L3520.19 626.69 L3502.99 626.69 L3502.99 632.51 L3485.79 632.51 L3485.79 638.20 L3468.59 638.20 L3468.59 643.89 L3451.39 643.89 L3451.39 649.71 L3434.19 649.71 L3434.19 655.40 L3416.99 655.40 L3416.99 661.22 L3399.91 661.22 L3399.91 666.91 L3382.71 666.91 L3382.71 672.60 L3365.51 672.60 L3365.51 678.42 L3348.30 678.42 L3348.30 684.11 L3331.10 684.11 L3331.10 689.93 L3313.90 689.93 L3313.90 695.62 L3296.70 695.62 L3296.70 701.44 L3279.50 701.44 L3279.50 707.13 L3262.30 707.13 L3262.30 712.82 L3245.10 712.82 L3245.10 718.64 L3227.89 718.64 L3227.89 724.33 L3210.69 724.33 L3210.69 730.15 L3193.49 730.15 L3193.49 735.84 L3176.29 735.84 L3176.29 741.66 L3159.21 741.66 L3159.21 747.35 L3142.01 747.35 L3142.01 753.17 L3124.81 753.17 L3124.81 758.86 L3107.61 758.86 L3107.61 764.68 L3090.41 764.68 L3090.41 770.37 L3073.21 770.37 L3073.21 776.18 L3056.01 776.18 L3056.01 781.88 L3038.80 781.88 L3038.80 787.69 L3021.60 787.69 L3021.60 793.39 L3004.40 793.39 L3004.40 799.20 L2987.20 799.20 L2987.20 804.90 L2970.00 804.90 L2970.00 810.71 L2952.80 810.71 L2952.80 816.40 L2935.72 816.40 L2935.72 822.22 L2918.52 822.22 L2918.52 828.04 L2901.32 828.04 L2901.32 833.73 L2884.12 833.73 L2884.12 839.55 L2866.92 839.55 L2866.92 845.36 L2849.72 845.36 L2849.72 851.06 L2832.51 851.06 L2832.51 856.87 L2815.31 856.87 L2815.31 862.69 L2798.11 862.69 L2798.11 868.38 L2780.91 868.38 L2780.91 874.20 L2763.71 874.20 L2763.71 880.01 L2746.51 880.01 L2746.51 885.83 L2729.31 885.83 L2729.31 891.65 L2712.11 891.65 L2712.11 897.46 L2695.03 897.46 L2695.03 903.28 L2677.83 903.28 L2677.83 909.10 L2660.63 909.10 L2660.63 914.91 L2643.42 914.91 L2643.42 920.73 L2626.22 920.73 L2626.22 926.55 L2609.02 926.55 L2609.02 932.36 L2591.82 932.36 L2591.82 938.18 L2574.62 938.18 L2574.62 943.99 L2557.42 943.99 L2557.42 949.81 L2540.22 949.81 L2540.22 955.75 L2523.01 955.75 L2523.01 961.57 L2505.81 961.57 L2505.81 967.51 L2488.61 967.51 L2488.61 973.32 L2471.41 973.32 L2471.41 979.26 L2454.33 979.26 L2454.33 985.20 L2437.13 985.20 L2437.13 991.02 L2419.93 991.02 L2419.93 996.96 L2402.73 996.96 L2402.73 1002.90 L2385.53 1002.90 L2385.53 1008.84 L2368.33 1008.84 L2368.33 1014.78 L2351.13 1014.78 L2351.13 1020.72 L2333.93 1020.72 L2333.93 1026.66 L2316.72 1026.66 L2316.72 1032.60 L2299.52 1032.60 L2299.52 1038.67 L2282.32 1038.67 L2282.32 1044.61 L2265.12 1044.61 L2265.12 1050.67 L2247.92 1050.67 L2247.92 1056.61 L2230.72 1056.61 L2230.72 1062.67 L2213.64 1062.67 L2213.64 1068.74 L2196.44 1068.74 L2196.44 1074.80 L2179.24 1074.80 L2179.24 1080.87 L2162.04 1080.87 L2162.04 1087.05 L2144.84 1087.05 L2144.84 1093.12 L2127.63 1093.12 L2127.63 1099.31 L2110.43 1099.31 L2110.43 1105.49 L2093.23 1105.49 L2093.23 1111.68 L2076.03 1111.68 L2076.03 1117.87 L2058.83 1117.87 L2058.83 1124.18 L2041.63 1124.18 L2041.63 1130.37 L2024.43 1130.37 L2024.43 1136.68 L2007.22 1136.68 L2007.22 1142.99 L1990.02 1142.99 L1990.02 1149.43 L1972.95 1149.43 L1972.95 1155.74 L1955.74 1155.74 L1955.74 1162.17 L1938.54 1162.17 L1938.54 1168.73 L1921.34 1168.73 L1921.34 1175.17 L1904.14 1175.17 L1904.14 1181.73 L1886.94 1181.73 L1886.94 1188.28 L1869.74 1188.28 L1869.74 1194.84 L1852.54 1194.84 L1852.54 1201.53 L1835.34 1201.53 L1835.34 1208.21 L1818.13 1208.21 L1818.13 1215.02 L1800.93 1215.02 L1800.93 1221.82 L1783.73 1221.82 L1783.73 1228.63 L1766.53 1228.63 L1766.53 1235.56 L1749.33 1235.56 L1749.33 1242.49 L1732.25 1242.49 L1732.25 1249.54 L1715.05 1249.54 L1715.05 1256.60 L1697.85 1256.60 L1697.85 1263.65 L1680.65 1263.65 L1680.65 1270.95 L1663.45 1270.95 L1663.45 1278.13 L1646.25 1278.13 L1646.25 1285.56 L1629.05 1285.56 L1629.05 1292.98 L1611.84 1292.98 L1611.84 1300.53 L1594.64 1300.53 L1594.64 1308.08 L1577.44 1308.08 L1577.44 1315.87 L1560.24 1315.87 L1560.24 1323.67 L1543.04 1323.67 L1543.04 1331.59 L1525.84 1331.59 L1525.84 1339.51 L1508.64 1339.51 L1508.64 1347.68 L1491.56 1347.68 L1491.56 1355.85 L1474.36 1355.85 L1474.36 1364.26 L1457.16 1364.26 L1457.16 1372.80 L1439.95 1372.80 L1439.95 1381.46 L1422.75 1381.46 L1422.75 1390.25 L1405.55 1390.25 L1405.55 1399.16 L1388.35 1399.16 L1388.35 1408.32 L1371.15 1408.32 L1371.15 1417.72 L1353.95 1417.72 L1353.95 1427.38 L1336.75 1427.38 L1336.75 1437.15 L1319.55 1437.15 L1319.55 1447.30 L1302.35 1447.30 L1302.35 1457.70 L1285.14 1457.70 L1285.14 1468.46 L1267.94 1468.46 L1267.94 1479.60 L1250.87 1479.60 L1250.87 1491.23 L1233.66 1491.23 L1233.66 1503.24 L1216.46 1503.24 L1216.46 1515.61 L1199.26 1515.61 L1199.26 1528.61 L1182.06 1528.61 L1182.06 1541.97 L1164.86 1541.97 L1164.86 1555.83 L1147.66 1555.83 L1147.66 1570.19 L1130.46 1570.19 L1130.46 1584.92 L1113.26 1584.92 L1113.26 1600.01 L1096.05 1600.01 L1096.05 1615.73 L1078.85 1615.73 L1078.85 1631.82 L1061.65 1631.82 L1061.65 1648.40 L1044.45 1648.40 L1044.45 1665.60 L1027.25 1665.60 L1027.25 1683.42 L1010.17 1683.42 L1010.17 1701.86 L992.97 1701.86 L992.97 1720.92 L975.77 1720.92 L975.77 1740.85 L958.57 1740.85 L958.57 1761.39 L941.37 1761.39 L941.37 1782.80 L924.16 1782.80 L924.16 1804.83 L906.96 1804.83 L906.96 1827.60 L889.76 1827.60 L889.76 1851.11 L872.56 1851.11 L872.56 1875.37 L855.36 1875.37 L855.36 1900.36 L838.16 1900.36 L838.16 1926.23 L820.96 1926.23 L820.96 1952.96 L803.76 1952.96 L803.76 1980.68 L786.55 1980.68 L786.55 2009.27 L769.48 2009.27 L769.48 2038.84 L752.28 2038.84 L752.28 2069.54 L735.08 2069.54 L735.08 2101.22 L717.87 2101.22 L717.87 2104.19 Z" stroke-linejoin="round"/>
	</defs>
	<defs>
		<clipPath id="clipPath_yURdnglH">
			<use xlink:href="#path_sJyVwmCY"/>
		</clipPath>
	</defs>
	<use xlink:href="#path_sJyVwmCY" style="stroke:none;fill:#333333;fill-opacity:0.35"/>
	<use xlink:href="#path_sJyVwmCY" style="fill:none;stroke:#000000;stroke-opacity:0.35;stroke-width:17.28" clip-path="url(#clipPath_yURdnglH)"/>
	<line x1="717.75" y1="2110.75" x2="734.95" y2="2110.75" style="stroke:#808080;stroke-width:8.64"/>
	<line x1="734.95" y1="2110.75" x2="734.95" y2="2087.73" style="stroke:#808080;stroke-width:8.64"/>
	<line x1="745.35" y1="2080.80" x2="752.15" y2="2080.80" style="stroke:#808080;stroke-width:8.64"/>
	<line x1="752.15" y1="2080.80" x2="752.15" y2="2052.09" style="stroke:#808080;stroke-width:8.64"/>
	<line x1="752.15" y1="2052.09" x2="756.98" y2="2052.09" style="stroke:#808080;stroke-width:8.64"/>
	<line x1="769.35" y1="2047.26" x2="769.35" y2="2024.61" style="stroke:#808080;stroke-width:8.64"/>
	<line x1="769.35" y1="2024.61" x2="786.55" y2="2024.61" style="stroke:#808080;stroke-width:8.64"/>
	<line x1="786.55" y1="2024.61" x2="786.55" y2="2024.12" style="stroke:#808080;stroke-width:8.64"/>
	<line x1="786.55" y1="2006.92" x2="786.55" y2="1998.25" style="stroke:#808080;stroke-width:8.64"/>
	<line x1="786.55" y1="1998.25" x2="803.76" y2="1998.25" style="stroke:#808080;stroke-width:8.64"/>
	<line x1="803.76" y1="1998.25" x2="803.76" y2="1983.77" style="stroke:#808080;stroke-width:8.64"/>
	<line x1="810.07" y1="1972.76" x2="820.96" y2="1972.76" style="stroke:#808080;stroke-width:8.64"/>
	<line x1="820.96" y1="1972.76" x2="820.96" y2="1948.38" style="stroke:#808080;stroke-width:8.64"/>
	<line x1="820.96" y1="1948.38" x2="826.03" y2="1948.38" style="stroke:#808080;stroke-width:8.64"/>
	<line x1="838.16" y1="1943.31" x2="838.16" y2="1924.87" style="stroke:#808080;stroke-width:8.64"/>
	<line x1="838.16" y1="1924.87" x2="855.36" y2="1924.87" style="stroke:#808080;stroke-width:8.64"/>
	<line x1="855.36" y1="1924.87" x2="855.36" y2="1920.17" style="stroke:#808080;stroke-width:8.64"/>
	<line x1="855.36" y1="1902.96" x2="855.36" y2="1902.10" style="stroke:#808080;stroke-width:8.64"/>
	<line x1="855.36" y1="1902.10" x2="872.56" y2="1902.10" style="stroke:#808080;stroke-width:8.64"/>
	<line x1="872.56" y1="1902.10" x2="872.56" y2="1880.19" style="stroke:#808080;stroke-width:8.64"/>
	<line x1="872.56" y1="1880.19" x2="872.93" y2="1880.19" style="stroke:#808080;stroke-width:8.64"/>
	<line x1="889.76" y1="1879.82" x2="889.76" y2="1859.15" style="stroke:#808080;stroke-width:8.64"/>
	<line x1="889.76" y1="1859.15" x2="906.84" y2="1859.15" style="stroke:#808080;stroke-width:8.64"/>
	<line x1="906.84" y1="1859.15" x2="906.84" y2="1856.56" style="stroke:#808080;stroke-width:8.64"/>
	<line x1="906.84" y1="1839.23" x2="906.84" y2="1838.61" style="stroke:#808080;stroke-width:8.64"/>
	<line x1="906.84" y1="1838.61" x2="924.04" y2="1838.61" style="stroke:#808080;stroke-width:8.64"/>
	<line x1="924.04" y1="1838.61" x2="924.04" y2="1818.81" style="stroke:#808080;stroke-width:8.64"/>
	<line x1="924.04" y1="1818.81" x2="926.64" y2="1818.81" style="stroke:#808080;stroke-width:8.64"/>
	<line x1="941.24" y1="1816.09" x2="941.24" y2="1799.63" style="stroke:#808080;stroke-width:8.64"/>
	<line x1="941.24" y1="1799.63" x2="958.44" y2="1799.63" style="stroke:#808080;stroke-width:8.64"/>
	<line x1="958.44" y1="1799.63" x2="958.44" y2="1792.95" style="stroke:#808080;stroke-width:8.64"/>
	<line x1="963.89" y1="1781.19" x2="975.64" y2="1781.19" style="stroke:#808080;stroke-width:8.64"/>
	<line x1="975.64" y1="1781.19" x2="975.64" y2="1763.25" style="stroke:#808080;stroke-width:8.64"/>
	<line x1="975.64" y1="1763.25" x2="986.29" y2="1763.25" style="stroke:#808080;stroke-width:8.64"/>
	<line x1="992.85" y1="1752.60" x2="992.85" y2="1746.04" style="stroke:#808080;stroke-width:8.64"/>
	<line x1="992.85" y1="1746.04" x2="1010.05" y2="1746.04" style="stroke:#808080;stroke-width:8.64"/>
	<line x1="1010.05" y1="1746.04" x2="1010.05" y2="1729.46" style="stroke:#808080;stroke-width:8.64"/>
	<line x1="1027.13" y1="1729.34" x2="1027.25" y2="1729.34" style="stroke:#808080;stroke-width:8.64"/>
	<line x1="1027.25" y1="1729.34" x2="1027.25" y2="1713.25" style="stroke:#808080;stroke-width:8.64"/>
	<line x1="1027.25" y1="1713.25" x2="1044.45" y2="1713.25" style="stroke:#808080;stroke-width:8.64"/>
	<line x1="1044.45" y1="1713.25" x2="1044.45" y2="1706.32" style="stroke:#808080;stroke-width:8.64"/>
	<line x1="1052.99" y1="1697.53" x2="1061.65" y2="1697.53" style="stroke:#808080;stroke-width:8.64"/>
	<line x1="1061.65" y1="1697.53" x2="1061.65" y2="1682.43" style="stroke:#808080;stroke-width:8.64"/>
	<line x1="1061.65" y1="1682.43" x2="1078.23" y2="1682.43" style="stroke:#808080;stroke-width:8.64"/>
	<line x1="1080.71" y1="1667.71" x2="1096.05" y2="1667.71" style="stroke:#808080;stroke-width:8.64"/>
	<line x1="1096.05" y1="1667.71" x2="1096.05" y2="1653.35" style="stroke:#808080;stroke-width:8.64"/>
	<line x1="1096.05" y1="1653.35" x2="1106.70" y2="1653.35" style="stroke:#808080;stroke-width:8.64"/>
	<line x1="1113.26" y1="1642.71" x2="1113.26" y2="1639.49" style="stroke:#808080;stroke-width:8.64"/>
	<line x1="1113.26" y1="1639.49" x2="1130.46" y2="1639.49" style="stroke:#808080;stroke-width:8.64"/>
	<line x1="1130.46" y1="1639.49" x2="1130.46" y2="1625.88" style="stroke:#808080;stroke-width:8.64"/>
	<line x1="1130.46" y1="1625.88" x2="1136.77" y2="1625.88" style="stroke:#808080;stroke-width:8.64"/>
	<line x1="1147.53" y1="1619.44" x2="1147.53" y2="1612.76" style="stroke:#808080;stroke-width:8.64"/>
	<line x1="1147.53" y1="1612.76" x2="1164.73" y2="1612.76" style="stroke:#808080;stroke-width:8.64"/>
	<line x1="1164.73" y1="1612.76" x2="1164.73" y2="1599.89" style="stroke:#808080;stroke-width:8.64"/>
	<line x1="1164.73" y1="1599.89" x2="1168.32" y2="1599.89" style="stroke:#808080;stroke-width:8.64"/>
	<line x1="1181.94" y1="1596.18" x2="1181.94" y2="1587.51" style="stroke:#808080;stroke-width:8.64"/>
	<line x1="1181.94" y1="1587.51" x2="1199.14" y2="1587.51" style="stroke:#808080;stroke-width:8.64"/>
	<line x1="1199.14" y1="1587.51" x2="1199.14" y2="1575.39" style="stroke:#808080;stroke-width:8.64"/>
	<line x1="1199.14" y1="1575.39" x2="1201.49" y2="1575.39" style="stroke:#808080;stroke-width:8.64"/>
	<line x1="1216.34" y1="1573.04" x2="1216.34" y2="1563.75" style="stroke:#808080;stroke-width:8.64"/>
	<line x1="1216.34" y1="1563.75" x2="1233.54" y2="1563.75" style="stroke:#808080;stroke-width:8.64"/>
	<line x1="1233.54" y1="1563.75" x2="1233.54" y2="1552.37" style="stroke:#808080;stroke-width:8.64"/>
	<line x1="1233.54" y1="1552.37" x2="1236.02" y2="1552.37" style="stroke:#808080;stroke-width:8.64"/>
	<line x1="1250.74" y1="1549.89" x2="1250.74" y2="1541.35" style="stroke:#808080;stroke-width:8.64"/>
	<line x1="1250.74" y1="1541.35" x2="1267.94" y2="1541.35" style="stroke:#808080;stroke-width:8.64"/>
	<line x1="1267.94" y1="1541.35" x2="1267.94" y2="1530.71" style="stroke:#808080;stroke-width:8.64"/>
	<line x1="1267.94" y1="1530.71" x2="1271.90" y2="1530.71" style="stroke:#808080;stroke-width:8.64"/>
	<line x1="1285.14" y1="1526.75" x2="1285.14" y2="1520.19" style="stroke:#808080;stroke-width:8.64"/>
	<line x1="1285.14" y1="1520.19" x2="1302.35" y2="1520.19" style="stroke:#808080;stroke-width:8.64"/>
	<line x1="1302.35" y1="1520.19" x2="1302.35" y2="1510.04" style="stroke:#808080;stroke-width:8.64"/>
	<line x1="1302.35" y1="1510.04" x2="1308.78" y2="1510.04" style="stroke:#808080;stroke-width:8.64"/>
	<line x1="1319.55" y1="1503.49" x2="1319.55" y2="1500.14" style="stroke:#808080;stroke-width:8.64"/>
	<line x1="1319.55" y1="1500.14" x2="1336.75" y2="1500.14" style="stroke:#808080;stroke-width:8.64"/>
	<line x1="1336.75" y1="1500.14" x2="1336.75" y2="1490.37" style="stroke:#808080;stroke-width:8.64"/>
	<line x1="1336.75" y1="1490.37" x2="1346.65" y2="1490.37" style="stroke:#808080;stroke-width:8.64"/>
	<line x1="1354.44" y1="1480.84" x2="1371.15" y2="1480.84" style="stroke:#808080;stroke-width:8.64"/>
	<line x1="1371.15" y1="1480.84" x2="1371.15" y2="1471.56" style="stroke:#808080;stroke-width:8.64"/>
	<line x1="1371.15" y1="1471.56" x2="1385.51" y2="1471.56" style="stroke:#808080;stroke-width:8.64"/>
	<line x1="1393.42" y1="1462.28" x2="1405.43" y2="1462.28" style="stroke:#808080;stroke-width:8.64"/>
	<line x1="1405.43" y1="1462.28" x2="1405.43" y2="1453.37" style="stroke:#808080;stroke-width:8.64"/>
	<line x1="1405.43" y1="1453.37" x2="1422.63" y2="1453.37" style="stroke:#808080;stroke-width:8.64"/>
	<line x1="1422.63" y1="1453.37" x2="1422.63" y2="1451.14" style="stroke:#808080;stroke-width:8.64"/>
	<line x1="1433.15" y1="1444.46" x2="1439.83" y2="1444.46" style="stroke:#808080;stroke-width:8.64"/>
	<line x1="1439.83" y1="1444.46" x2="1439.83" y2="1435.67" style="stroke:#808080;stroke-width:8.64"/>
	<line x1="1439.83" y1="1435.67" x2="1457.03" y2="1435.67" style="stroke:#808080;stroke-width:8.64"/>
	<line x1="1457.03" y1="1435.67" x2="1457.03" y2="1428.00" style="stroke:#808080;stroke-width:8.64"/>
	<line x1="1473.37" y1="1427.13" x2="1474.23" y2="1427.13" style="stroke:#808080;stroke-width:8.64"/>
	<line x1="1474.23" y1="1427.13" x2="1474.23" y2="1418.59" style="stroke:#808080;stroke-width:8.64"/>
	<line x1="1474.23" y1="1418.59" x2="1491.43" y2="1418.59" style="stroke:#808080;stroke-width:8.64"/>
	<line x1="1491.43" y1="1418.59" x2="1491.43" y2="1410.30" style="stroke:#808080;stroke-width:8.64"/>
	<line x1="1491.43" y1="1410.30" x2="1496.88" y2="1410.30" style="stroke:#808080;stroke-width:8.64"/>
	<line x1="1508.64" y1="1404.73" x2="1508.64" y2="1402.01" style="stroke:#808080;stroke-width:8.64"/>
	<line x1="1508.64" y1="1402.01" x2="1525.84" y2="1402.01" style="stroke:#808080;stroke-width:8.64"/>
	<line x1="1525.84" y1="1402.01" x2="1525.84" y2="1393.84" style="stroke:#808080;stroke-width:8.64"/>
	<line x1="1525.84" y1="1393.84" x2="1538.09" y2="1393.84" style="stroke:#808080;stroke-width:8.64"/>
	<line x1="1547.12" y1="1385.67" x2="1560.24" y2="1385.67" style="stroke:#808080;stroke-width:8.64"/>
	<line x1="1560.24" y1="1385.67" x2="1560.24" y2="1377.75" style="stroke:#808080;stroke-width:8.64"/>
	<line x1="1560.24" y1="1377.75" x2="1577.44" y2="1377.75" style="stroke:#808080;stroke-width:8.64"/>
	<line x1="1577.44" y1="1377.75" x2="1577.44" y2="1375.65" style="stroke:#808080;stroke-width:8.64"/>
	<line x1="1588.83" y1="1369.83" x2="1594.64" y2="1369.83" style="stroke:#808080;stroke-width:8.64"/>
	<line x1="1594.64" y1="1369.83" x2="1594.64" y2="1361.91" style="stroke:#808080;stroke-width:8.64"/>
	<line x1="1594.64" y1="1361.91" x2="1611.84" y2="1361.91" style="stroke:#808080;stroke-width:8.64"/>
	<line x1="1611.84" y1="1361.91" x2="1611.84" y2="1354.24" style="stroke:#808080;stroke-width:8.64"/>
	<line x1="1611.84" y1="1354.24" x2="1613.58" y2="1354.24" style="stroke:#808080;stroke-width:8.64"/>
	<line x1="1628.92" y1="1352.26" x2="1628.92" y2="1346.44" style="stroke:#808080;stroke-width:8.64"/>
	<line x1="1628.92" y1="1346.44" x2="1646.12" y2="1346.44" style="stroke:#808080;stroke-width:8.64"/>
	<line x1="1646.12" y1="1346.44" x2="1646.12" y2="1338.89" style="stroke:#808080;stroke-width:8.64"/>
	<line x1="1646.12" y1="1338.89" x2="1655.78" y2="1338.89" style="stroke:#808080;stroke-width:8.64"/>
	<line x1="1665.55" y1="1331.34" x2="1680.53" y2="1331.34" style="stroke:#808080;stroke-width:8.64"/>
	<line x1="1680.53" y1="1331.34" x2="1680.53" y2="1323.80" style="stroke:#808080;stroke-width:8.64"/>
	<line x1="1680.53" y1="1323.80" x2="1697.73" y2="1323.80" style="stroke:#808080;stroke-width:8.64"/>
	<line x1="1697.73" y1="1323.80" x2="1697.73" y2="1323.30" style="stroke:#808080;stroke-width:8.64"/>
	<line x1="1708.12" y1="1316.37" x2="1714.93" y2="1316.37" style="stroke:#808080;stroke-width:8.64"/>
	<line x1="1714.93" y1="1316.37" x2="1714.93" y2="1308.94" style="stroke:#808080;stroke-width:8.64"/>
	<line x1="1714.93" y1="1308.94" x2="1732.13" y2="1308.94" style="stroke:#808080;stroke-width:8.64"/>
	<line x1="1732.13" y1="1308.94" x2="1732.13" y2="1301.64" style="stroke:#808080;stroke-width:8.64"/>
	<line x1="1732.13" y1="1301.64" x2="1733.74" y2="1301.64" style="stroke:#808080;stroke-width:8.64"/>
	<line x1="1749.33" y1="1300.03" x2="1749.33" y2="1294.34" style="stroke:#808080;stroke-width:8.64"/>
	<line x1="1749.33" y1="1294.34" x2="1766.53" y2="1294.34" style="stroke:#808080;stroke-width:8.64"/>
	<line x1="1766.53" y1="1294.34" x2="1766.53" y2="1287.04" style="stroke:#808080;stroke-width:8.64"/>
	<line x1="1766.53" y1="1287.04" x2="1776.68" y2="1287.04" style="stroke:#808080;stroke-width:8.64"/>
	<line x1="1786.70" y1="1279.86" x2="1800.93" y2="1279.86" style="stroke:#808080;stroke-width:8.64"/>
	<line x1="1800.93" y1="1279.86" x2="1800.93" y2="1272.68" style="stroke:#808080;stroke-width:8.64"/>
	<line x1="1800.93" y1="1272.68" x2="1818.13" y2="1272.68" style="stroke:#808080;stroke-width:8.64"/>
	<line x1="1818.13" y1="1272.68" x2="1818.13" y2="1270.95" style="stroke:#808080;stroke-width:8.64"/>
	<line x1="1830.02" y1="1265.63" x2="1835.34" y2="1265.63" style="stroke:#808080;stroke-width:8.64"/>
	<line x1="1835.34" y1="1265.63" x2="1835.34" y2="1258.45" style="stroke:#808080;stroke-width:8.64"/>
	<line x1="1835.34" y1="1258.45" x2="1852.54" y2="1258.45" style="stroke:#808080;stroke-width:8.64"/>
	<line x1="1852.54" y1="1258.45" x2="1852.54" y2="1251.52" style="stroke:#808080;stroke-width:8.64"/>
	<line x1="1852.54" y1="1251.52" x2="1856.37" y2="1251.52" style="stroke:#808080;stroke-width:8.64"/>
	<line x1="1869.62" y1="1247.56" x2="1869.62" y2="1244.47" style="stroke:#808080;stroke-width:8.64"/>
	<line x1="1869.62" y1="1244.47" x2="1886.82" y2="1244.47" style="stroke:#808080;stroke-width:8.64"/>
	<line x1="1886.82" y1="1244.47" x2="1886.82" y2="1237.54" style="stroke:#808080;stroke-width:8.64"/>
	<line x1="1886.82" y1="1237.54" x2="1899.93" y2="1237.54" style="stroke:#808080;stroke-width:8.64"/>
	<line x1="1910.20" y1="1230.61" x2="1921.22" y2="1230.61" style="stroke:#808080;stroke-width:8.64"/>
	<line x1="1921.22" y1="1230.61" x2="1921.22" y2="1223.68" style="stroke:#808080;stroke-width:8.64"/>
	<line x1="1921.22" y1="1223.68" x2="1938.42" y2="1223.68" style="stroke:#808080;stroke-width:8.64"/>
	<line x1="1938.42" y1="1223.68" x2="1938.42" y2="1218.48" style="stroke:#808080;stroke-width:8.64"/>
	<line x1="1954.01" y1="1216.87" x2="1955.62" y2="1216.87" style="stroke:#808080;stroke-width:8.64"/>
	<line x1="1955.62" y1="1216.87" x2="1955.62" y2="1210.07" style="stroke:#808080;stroke-width:8.64"/>
	<line x1="1955.62" y1="1210.07" x2="1972.82" y2="1210.07" style="stroke:#808080;stroke-width:8.64"/>
	<line x1="1972.82" y1="1210.07" x2="1972.82" y2="1203.26" style="stroke:#808080;stroke-width:8.64"/>
	<line x1="1972.82" y1="1203.26" x2="1980.74" y2="1203.26" style="stroke:#808080;stroke-width:8.64"/>
	<line x1="1991.26" y1="1196.45" x2="2007.22" y2="1196.45" style="stroke:#808080;stroke-width:8.64"/>
	<line x1="2007.22" y1="1196.45" x2="2007.22" y2="1189.77" style="stroke:#808080;stroke-width:8.64"/>
	<line x1="2007.22" y1="1189.77" x2="2024.43" y2="1189.77" style="stroke:#808080;stroke-width:8.64"/>
	<line x1="2024.43" y1="1189.77" x2="2024.43" y2="1189.27" style="stroke:#808080;stroke-width:8.64"/>
	<line x1="2035.32" y1="1182.96" x2="2041.63" y2="1182.96" style="stroke:#808080;stroke-width:8.64"/>
	<line x1="2041.63" y1="1182.96" x2="2041.63" y2="1176.28" style="stroke:#808080;stroke-width:8.64"/>
	<line x1="2041.63" y1="1176.28" x2="2058.83" y2="1176.28" style="stroke:#808080;stroke-width:8.64"/>
	<line x1="2058.83" y1="1176.28" x2="2058.83" y2="1169.60" style="stroke:#808080;stroke-width:8.64"/>
	<line x1="2058.83" y1="1169.60" x2="2062.29" y2="1169.60" style="stroke:#808080;stroke-width:8.64"/>
	<line x1="2076.03" y1="1166.13" x2="2076.03" y2="1163.04" style="stroke:#808080;stroke-width:8.64"/>
	<line x1="2076.03" y1="1163.04" x2="2093.23" y2="1163.04" style="stroke:#808080;stroke-width:8.64"/>
	<line x1="2093.23" y1="1163.04" x2="2093.23" y2="1156.36" style="stroke:#808080;stroke-width:8.64"/>
	<line x1="2093.23" y1="1156.36" x2="2106.60" y2="1156.36" style="stroke:#808080;stroke-width:8.64"/>
	<line x1="2117.24" y1="1149.80" x2="2127.51" y2="1149.80" style="stroke:#808080;stroke-width:8.64"/>
	<line x1="2127.51" y1="1149.80" x2="2127.51" y2="1143.11" style="stroke:#808080;stroke-width:8.64"/>
	<line x1="2127.51" y1="1143.11" x2="2144.71" y2="1143.11" style="stroke:#808080;stroke-width:8.64"/>
	<line x1="2144.71" y1="1143.11" x2="2144.71" y2="1136.93" style="stroke:#808080;stroke-width:8.64"/>
	<line x1="2161.66" y1="1136.56" x2="2161.91" y2="1136.56" style="stroke:#808080;stroke-width:8.64"/>
	<line x1="2161.91" y1="1136.56" x2="2161.91" y2="1130.00" style="stroke:#808080;stroke-width:8.64"/>
	<line x1="2161.91" y1="1130.00" x2="2179.11" y2="1130.00" style="stroke:#808080;stroke-width:8.64"/>
	<line x1="2179.11" y1="1130.00" x2="2179.11" y2="1123.44" style="stroke:#808080;stroke-width:8.64"/>
	<line x1="2179.11" y1="1123.44" x2="2188.77" y2="1123.44" style="stroke:#808080;stroke-width:8.64"/>
	<line x1="2199.53" y1="1116.88" x2="2213.52" y2="1116.88" style="stroke:#808080;stroke-width:8.64"/>
	<line x1="2213.52" y1="1116.88" x2="2213.52" y2="1110.44" style="stroke:#808080;stroke-width:8.64"/>
	<line x1="2213.52" y1="1110.44" x2="2230.72" y2="1110.44" style="stroke:#808080;stroke-width:8.64"/>
	<line x1="2230.72" y1="1110.44" x2="2230.72" y2="1107.72" style="stroke:#808080;stroke-width:8.64"/>
	<line x1="2244.08" y1="1103.88" x2="2247.92" y2="1103.88" style="stroke:#808080;stroke-width:8.64"/>
	<line x1="2247.92" y1="1103.88" x2="2247.92" y2="1097.45" style="stroke:#808080;stroke-width:8.64"/>
	<line x1="2247.92" y1="1097.45" x2="2265.12" y2="1097.45" style="stroke:#808080;stroke-width:8.64"/>
	<line x1="2265.12" y1="1097.45" x2="2265.12" y2="1090.89" style="stroke:#808080;stroke-width:8.64"/>
	<line x1="2265.12" y1="1090.89" x2="2271.43" y2="1090.89" style="stroke:#808080;stroke-width:8.64"/>
	<line x1="2282.32" y1="1084.58" x2="2282.32" y2="1084.46" style="stroke:#808080;stroke-width:8.64"/>
	<line x1="2282.32" y1="1084.46" x2="2299.52" y2="1084.46" style="stroke:#808080;stroke-width:8.64"/>
	<line x1="2299.52" y1="1084.46" x2="2299.52" y2="1078.02" style="stroke:#808080;stroke-width:8.64"/>
	<line x1="2299.52" y1="1078.02" x2="2316.11" y2="1078.02" style="stroke:#808080;stroke-width:8.64"/>
	<line x1="2326.87" y1="1071.58" x2="2333.93" y2="1071.58" style="stroke:#808080;stroke-width:8.64"/>
	<line x1="2333.93" y1="1071.58" x2="2333.93" y2="1065.15" style="stroke:#808080;stroke-width:8.64"/>
	<line x1="2333.93" y1="1065.15" x2="2351.00" y2="1065.15" style="stroke:#808080;stroke-width:8.64"/>
	<line x1="2351.00" y1="1065.15" x2="2351.00" y2="1058.71" style="stroke:#808080;stroke-width:8.64"/>
	<line x1="2351.00" y1="1058.71" x2="2354.34" y2="1058.71" style="stroke:#808080;stroke-width:8.64"/>
	<line x1="2368.20" y1="1055.25" x2="2368.20" y2="1052.28" style="stroke:#808080;stroke-width:8.64"/>
	<line x1="2368.20" y1="1052.28" x2="2385.41" y2="1052.28" style="stroke:#808080;stroke-width:8.64"/>
	<line x1="2385.41" y1="1052.28" x2="2385.41" y2="1045.97" style="stroke:#808080;stroke-width:8.64"/>
	<line x1="2385.41" y1="1045.97" x2="2399.26" y2="1045.97" style="stroke:#808080;stroke-width:8.64"/>
	<line x1="2410.03" y1="1039.53" x2="2419.81" y2="1039.53" style="stroke:#808080;stroke-width:8.64"/>
	<line x1="2419.81" y1="1039.53" x2="2419.81" y2="1033.10" style="stroke:#808080;stroke-width:8.64"/>
	<line x1="2419.81" y1="1033.10" x2="2437.01" y2="1033.10" style="stroke:#808080;stroke-width:8.64"/>
	<line x1="2437.01" y1="1033.10" x2="2437.01" y2="1026.79" style="stroke:#808080;stroke-width:8.64"/>
	<line x1="2437.01" y1="1026.79" x2="2437.63" y2="1026.79" style="stroke:#808080;stroke-width:8.64"/>
	<line x1="2454.21" y1="1026.17" x2="2454.21" y2="1020.35" style="stroke:#808080;stroke-width:8.64"/>
	<line x1="2454.21" y1="1020.35" x2="2471.41" y2="1020.35" style="stroke:#808080;stroke-width:8.64"/>
	<line x1="2471.41" y1="1020.35" x2="2471.41" y2="1014.04" style="stroke:#808080;stroke-width:8.64"/>
	<line x1="2471.41" y1="1014.04" x2="2482.43" y2="1014.04" style="stroke:#808080;stroke-width:8.64"/>
	<line x1="2493.19" y1="1007.60" x2="2505.81" y2="1007.60" style="stroke:#808080;stroke-width:8.64"/>
	<line x1="2505.81" y1="1007.60" x2="2505.81" y2="1001.29" style="stroke:#808080;stroke-width:8.64"/>
	<line x1="2505.81" y1="1001.29" x2="2523.01" y2="1001.29" style="stroke:#808080;stroke-width:8.64"/>
	<line x1="2523.01" y1="1001.29" x2="2523.01" y2="997.08" style="stroke:#808080;stroke-width:8.64"/>
	<line x1="2538.24" y1="994.98" x2="2540.22" y2="994.98" style="stroke:#808080;stroke-width:8.64"/>
	<line x1="2540.22" y1="994.98" x2="2540.22" y2="988.67" style="stroke:#808080;stroke-width:8.64"/>
	<line x1="2540.22" y1="988.67" x2="2557.42" y2="988.67" style="stroke:#808080;stroke-width:8.64"/>
	<line x1="2557.42" y1="988.67" x2="2557.42" y2="982.36" style="stroke:#808080;stroke-width:8.64"/>
	<line x1="2557.42" y1="982.36" x2="2565.96" y2="982.36" style="stroke:#808080;stroke-width:8.64"/>
	<line x1="2576.72" y1="975.92" x2="2591.70" y2="975.92" style="stroke:#808080;stroke-width:8.64"/>
	<line x1="2591.70" y1="975.92" x2="2591.70" y2="969.61" style="stroke:#808080;stroke-width:8.64"/>
	<line x1="2591.70" y1="969.61" x2="2608.90" y2="969.61" style="stroke:#808080;stroke-width:8.64"/>
	<line x1="2608.90" y1="969.61" x2="2608.90" y2="967.76" style="stroke:#808080;stroke-width:8.64"/>
	<line x1="2621.64" y1="963.30" x2="2626.10" y2="963.30" style="stroke:#808080;stroke-width:8.64"/>
	<line x1="2626.10" y1="963.30" x2="2626.10" y2="956.99" style="stroke:#808080;stroke-width:8.64"/>
	<line x1="2626.10" y1="956.99" x2="2643.30" y2="956.99" style="stroke:#808080;stroke-width:8.64"/>
	<line x1="2643.30" y1="956.99" x2="2643.30" y2="950.80" style="stroke:#808080;stroke-width:8.64"/>
	<line x1="2643.30" y1="950.80" x2="2649.49" y2="950.80" style="stroke:#808080;stroke-width:8.64"/>
	<line x1="2660.50" y1="944.61" x2="2660.50" y2="944.49" style="stroke:#808080;stroke-width:8.64"/>
	<line x1="2660.50" y1="944.49" x2="2677.70" y2="944.49" style="stroke:#808080;stroke-width:8.64"/>
	<line x1="2677.70" y1="944.49" x2="2677.70" y2="938.18" style="stroke:#808080;stroke-width:8.64"/>
	<line x1="2677.70" y1="938.18" x2="2694.41" y2="938.18" style="stroke:#808080;stroke-width:8.64"/>
	<line x1="2705.30" y1="931.87" x2="2712.11" y2="931.87" style="stroke:#808080;stroke-width:8.64"/>
	<line x1="2712.11" y1="931.87" x2="2712.11" y2="925.56" style="stroke:#808080;stroke-width:8.64"/>
	<line x1="2712.11" y1="925.56" x2="2729.31" y2="925.56" style="stroke:#808080;stroke-width:8.64"/>
	<line x1="2729.31" y1="925.56" x2="2729.31" y2="919.37" style="stroke:#808080;stroke-width:8.64"/>
	<line x1="2729.31" y1="919.37" x2="2733.14" y2="919.37" style="stroke:#808080;stroke-width:8.64"/>
	<line x1="2746.51" y1="915.53" x2="2746.51" y2="913.06" style="stroke:#808080;stroke-width:8.64"/>
	<line x1="2746.51" y1="913.06" x2="2763.71" y2="913.06" style="stroke:#808080;stroke-width:8.64"/>
	<line x1="2763.71" y1="913.06" x2="2763.71" y2="906.74" style="stroke:#808080;stroke-width:8.64"/>
	<line x1="2763.71" y1="906.74" x2="2778.19" y2="906.74" style="stroke:#808080;stroke-width:8.64"/>
	<line x1="2789.08" y1="900.43" x2="2798.11" y2="900.43" style="stroke:#808080;stroke-width:8.64"/>
	<line x1="2798.11" y1="900.43" x2="2798.11" y2="894.25" style="stroke:#808080;stroke-width:8.64"/>
	<line x1="2798.11" y1="894.25" x2="2815.31" y2="894.25" style="stroke:#808080;stroke-width:8.64"/>
	<line x1="2815.31" y1="894.25" x2="2815.31" y2="887.93" style="stroke:#808080;stroke-width:8.64"/>
	<line x1="2815.31" y1="887.93" x2="2816.92" y2="887.93" style="stroke:#808080;stroke-width:8.64"/>
	<line x1="2832.39" y1="886.20" x2="2832.39" y2="881.62" style="stroke:#808080;stroke-width:8.64"/>
	<line x1="2832.39" y1="881.62" x2="2849.59" y2="881.62" style="stroke:#808080;stroke-width:8.64"/>
	<line x1="2849.59" y1="881.62" x2="2849.59" y2="875.43" style="stroke:#808080;stroke-width:8.64"/>
	<line x1="2849.59" y1="875.43" x2="2861.97" y2="875.43" style="stroke:#808080;stroke-width:8.64"/>
	<line x1="2872.86" y1="869.12" x2="2883.99" y2="869.12" style="stroke:#808080;stroke-width:8.64"/>
	<line x1="2883.99" y1="869.12" x2="2883.99" y2="862.94" style="stroke:#808080;stroke-width:8.64"/>
	<line x1="2883.99" y1="862.94" x2="2901.20" y2="862.94" style="stroke:#808080;stroke-width:8.64"/>
	<line x1="2901.20" y1="862.94" x2="2901.20" y2="857.12" style="stroke:#808080;stroke-width:8.64"/>
	<line x1="2918.03" y1="856.62" x2="2918.40" y2="856.62" style="stroke:#808080;stroke-width:8.64"/>
	<line x1="2918.40" y1="856.62" x2="2918.40" y2="850.44" style="stroke:#808080;stroke-width:8.64"/>
	<line x1="2918.40" y1="850.44" x2="2935.60" y2="850.44" style="stroke:#808080;stroke-width:8.64"/>
	<line x1="2935.60" y1="850.44" x2="2935.60" y2="844.13" style="stroke:#808080;stroke-width:8.64"/>
	<line x1="2935.60" y1="844.13" x2="2945.87" y2="844.13" style="stroke:#808080;stroke-width:8.64"/>
	<line x1="2956.88" y1="837.94" x2="2970.00" y2="837.94" style="stroke:#808080;stroke-width:8.64"/>
	<line x1="2970.00" y1="837.94" x2="2970.00" y2="831.63" style="stroke:#808080;stroke-width:8.64"/>
	<line x1="2970.00" y1="831.63" x2="2987.20" y2="831.63" style="stroke:#808080;stroke-width:8.64"/>
	<line x1="2987.20" y1="831.63" x2="2987.20" y2="827.91" style="stroke:#808080;stroke-width:8.64"/>
	<line x1="3001.93" y1="825.44" x2="3004.40" y2="825.44" style="stroke:#808080;stroke-width:8.64"/>
	<line x1="3004.40" y1="825.44" x2="3004.40" y2="819.13" style="stroke:#808080;stroke-width:8.64"/>
	<line x1="3004.40" y1="819.13" x2="3021.60" y2="819.13" style="stroke:#808080;stroke-width:8.64"/>
	<line x1="3021.60" y1="819.13" x2="3021.60" y2="812.94" style="stroke:#808080;stroke-width:8.64"/>
	<line x1="3021.60" y1="812.94" x2="3029.77" y2="812.94" style="stroke:#808080;stroke-width:8.64"/>
	<line x1="3040.66" y1="806.63" x2="3055.88" y2="806.63" style="stroke:#808080;stroke-width:8.64"/>
	<line x1="3055.88" y1="806.63" x2="3055.88" y2="800.44" style="stroke:#808080;stroke-width:8.64"/>
	<line x1="3055.88" y1="800.44" x2="3073.08" y2="800.44" style="stroke:#808080;stroke-width:8.64"/>
	<line x1="3073.08" y1="800.44" x2="3073.08" y2="798.71" style="stroke:#808080;stroke-width:8.64"/>
	<line x1="3085.71" y1="794.13" x2="3090.28" y2="794.13" style="stroke:#808080;stroke-width:8.64"/>
	<line x1="3090.28" y1="794.13" x2="3090.28" y2="787.94" style="stroke:#808080;stroke-width:8.64"/>
	<line x1="3090.28" y1="787.94" x2="3107.49" y2="787.94" style="stroke:#808080;stroke-width:8.64"/>
	<line x1="3107.49" y1="787.94" x2="3107.49" y2="781.63" style="stroke:#808080;stroke-width:8.64"/>
	<line x1="3107.49" y1="781.63" x2="3113.55" y2="781.63" style="stroke:#808080;stroke-width:8.64"/>
	<line x1="3124.69" y1="775.44" x2="3124.69" y2="775.44" style="stroke:#808080;stroke-width:8.64"/>
	<line x1="3124.69" y1="775.44" x2="3141.89" y2="775.44" style="stroke:#808080;stroke-width:8.64"/>
	<line x1="3141.89" y1="775.44" x2="3141.89" y2="769.25" style="stroke:#808080;stroke-width:8.64"/>
	<line x1="3141.89" y1="769.25" x2="3158.84" y2="769.25" style="stroke:#808080;stroke-width:8.64"/>
	<line x1="3169.73" y1="762.94" x2="3176.29" y2="762.94" style="stroke:#808080;stroke-width:8.64"/>
	<line x1="3176.29" y1="762.94" x2="3176.29" y2="756.75" style="stroke:#808080;stroke-width:8.64"/>
	<line x1="3176.29" y1="756.75" x2="3193.49" y2="756.75" style="stroke:#808080;stroke-width:8.64"/>
	<line x1="3193.49" y1="756.75" x2="3193.49" y2="750.44" style="stroke:#808080;stroke-width:8.64"/>
	<line x1="3193.49" y1="750.44" x2="3197.58" y2="750.44" style="stroke:#808080;stroke-width:8.64"/>
	<line x1="3210.69" y1="746.36" x2="3210.69" y2="744.26" style="stroke:#808080;stroke-width:8.64"/>
	<line x1="3210.69" y1="744.26" x2="3227.89" y2="744.26" style="stroke:#808080;stroke-width:8.64"/>
	<line x1="3227.89" y1="744.26" x2="3227.89" y2="738.07" style="stroke:#808080;stroke-width:8.64"/>
	<line x1="3227.89" y1="738.07" x2="3242.74" y2="738.07" style="stroke:#808080;stroke-width:8.64"/>
	<line x1="3253.76" y1="731.76" x2="3262.30" y2="731.76" style="stroke:#808080;stroke-width:8.64"/>
	<line x1="3262.30" y1="731.76" x2="3262.30" y2="725.57" style="stroke:#808080;stroke-width:8.64"/>
	<line x1="3262.30" y1="725.57" x2="3279.50" y2="725.57" style="stroke:#808080;stroke-width:8.64"/>
	<line x1="3279.50" y1="725.57" x2="3279.50" y2="719.26" style="stroke:#808080;stroke-width:8.64"/>
	<line x1="3279.50" y1="719.26" x2="3281.48" y2="719.26" style="stroke:#808080;stroke-width:8.64"/>
	<line x1="3296.58" y1="717.03" x2="3296.58" y2="713.07" style="stroke:#808080;stroke-width:8.64"/>
	<line x1="3296.58" y1="713.07" x2="3313.78" y2="713.07" style="stroke:#808080;stroke-width:8.64"/>
	<line x1="3313.78" y1="713.07" x2="3313.78" y2="706.88" style="stroke:#808080;stroke-width:8.64"/>
	<line x1="3313.78" y1="706.88" x2="3326.65" y2="706.88" style="stroke:#808080;stroke-width:8.64"/>
	<line x1="3337.66" y1="700.57" x2="3348.18" y2="700.57" style="stroke:#808080;stroke-width:8.64"/>
	<line x1="3348.18" y1="700.57" x2="3348.18" y2="694.38" style="stroke:#808080;stroke-width:8.64"/>
	<line x1="3348.18" y1="694.38" x2="3365.38" y2="694.38" style="stroke:#808080;stroke-width:8.64"/>
	<line x1="3365.38" y1="694.38" x2="3365.38" y2="688.20" style="stroke:#808080;stroke-width:8.64"/>
	<line x1="3365.38" y1="688.20" x2="3365.63" y2="688.20" style="stroke:#808080;stroke-width:8.64"/>
	<line x1="3382.58" y1="687.95" x2="3382.58" y2="681.88" style="stroke:#808080;stroke-width:8.64"/>
	<line x1="3382.58" y1="681.88" x2="3399.78" y2="681.88" style="stroke:#808080;stroke-width:8.64"/>
	<line x1="3399.78" y1="681.88" x2="3399.78" y2="675.70" style="stroke:#808080;stroke-width:8.64"/>
	<line x1="3399.78" y1="675.70" x2="3410.67" y2="675.70" style="stroke:#808080;stroke-width:8.64"/>
	<line x1="3421.69" y1="669.51" x2="3434.19" y2="669.51" style="stroke:#808080;stroke-width:8.64"/>
	<line x1="3434.19" y1="669.51" x2="3434.19" y2="663.20" style="stroke:#808080;stroke-width:8.64"/>
	<line x1="3434.19" y1="663.20" x2="3451.39" y2="663.20" style="stroke:#808080;stroke-width:8.64"/>
	<line x1="3451.39" y1="663.20" x2="3451.39" y2="658.87" style="stroke:#808080;stroke-width:8.64"/>
	<line x1="3466.86" y1="657.01" x2="3468.59" y2="657.01" style="stroke:#808080;stroke-width:8.64"/>
	<line x1="3468.59" y1="657.01" x2="3468.59" y2="650.82" style="stroke:#808080;stroke-width:8.64"/>
	<line x1="3468.59" y1="650.82" x2="3485.79" y2="650.82" style="stroke:#808080;stroke-width:8.64"/>
	<line x1="3485.79" y1="650.82" x2="3485.79" y2="644.51" style="stroke:#808080;stroke-width:8.64"/>
	<line x1="3485.79" y1="644.51" x2="3494.58" y2="644.51" style="stroke:#808080;stroke-width:8.64"/>
	<line x1="3505.71" y1="638.32" x2="3520.19" y2="638.32" style="stroke:#808080;stroke-width:8.64"/>
	<line x1="3520.19" y1="638.32" x2="3520.19" y2="632.13" style="stroke:#808080;stroke-width:8.64"/>
	<line x1="3520.19" y1="632.13" x2="3537.27" y2="632.13" style="stroke:#808080;stroke-width:8.64"/>
	<line x1="3537.27" y1="632.13" x2="3537.27" y2="629.54" style="stroke:#808080;stroke-width:8.64"/>
	<line x1="3550.76" y1="625.82" x2="3554.47" y2="625.82" style="stroke:#808080;stroke-width:8.64"/>
	<line x1="3554.47" y1="625.82" x2="3554.47" y2="619.64" style="stroke:#808080;stroke-width:8.64"/>
	<line x1="3554.47" y1="619.64" x2="3571.67" y2="619.64" style="stroke:#808080;stroke-width:8.64"/>
	<line x1="3571.67" y1="619.64" x2="3571.67" y2="613.45" style="stroke:#808080;stroke-width:8.64"/>
	<line x1="3571.67" y1="613.45" x2="3578.73" y2="613.45" style="stroke:#808080;stroke-width:8.64"/>
	<line x1="3589.62" y1="607.14" x2="3606.07" y2="607.14" style="stroke:#808080;stroke-width:8.64"/>
	<line x1="3606.07" y1="607.14" x2="3606.07" y2="600.95" style="stroke:#808080;stroke-width:8.64"/>
	<line x1="3606.07" y1="600.95" x2="3623.28" y2="600.95" style="stroke:#808080;stroke-width:8.64"/>
	<line x1="3623.28" y1="600.95" x2="3623.28" y2="600.45" style="stroke:#808080;stroke-width:8.64"/>
	<line x1="3634.91" y1="594.76" x2="3640.48" y2="594.76" style="stroke:#808080;stroke-width:8.64"/>
	<line x1="3640.48" y1="594.76" x2="3640.48" y2="588.45" style="stroke:#808080;stroke-width:8.64"/>
	<line x1="3640.48" y1="588.45" x2="3657.68" y2="588.45" style="stroke:#808080;stroke-width:8.64"/>
	<line x1="3657.68" y1="588.45" x2="3657.68" y2="582.26" style="stroke:#808080;stroke-width:8.64"/>
	<line x1="3657.68" y1="582.26" x2="3662.75" y2="582.26" style="stroke:#808080;stroke-width:8.64"/>
	<line x1="3674.88" y1="577.19" x2="3674.88" y2="576.07" style="stroke:#808080;stroke-width:8.64"/>
	<line x1="3674.88" y1="576.07" x2="3692.08" y2="576.07" style="stroke:#808080;stroke-width:8.64"/>
	<line x1="3692.08" y1="576.07" x2="3692.08" y2="569.89" style="stroke:#808080;stroke-width:8.64"/>
	<line x1="3692.08" y1="569.89" x2="3707.92" y2="569.89" style="stroke:#808080;stroke-width:8.64"/>
	<line x1="3718.81" y1="563.58" x2="3726.48" y2="563.58" style="stroke:#808080;stroke-width:8.64"/>
	<line x1="3726.48" y1="563.58" x2="3726.48" y2="557.39" style="stroke:#808080;stroke-width:8.64"/>
	<line x1="3726.48" y1="557.39" x2="3743.68" y2="557.39" style="stroke:#808080;stroke-width:8.64"/>
	<line x1="3743.68" y1="557.39" x2="3743.68" y2="551.20" style="stroke:#808080;stroke-width:8.64"/>
	<line x1="3743.68" y1="551.20" x2="3746.78" y2="551.20" style="stroke:#808080;stroke-width:8.64"/>
	<line x1="3760.89" y1="548.11" x2="3760.89" y2="544.89" style="stroke:#808080;stroke-width:8.64"/>
	<line x1="3760.89" y1="544.89" x2="3777.96" y2="544.89" style="stroke:#808080;stroke-width:8.64"/>
	<line x1="3777.96" y1="544.89" x2="3777.96" y2="538.70" style="stroke:#808080;stroke-width:8.64"/>
	<line x1="3777.96" y1="538.70" x2="3791.82" y2="538.70" style="stroke:#808080;stroke-width:8.64"/>
	<path d="" stroke-linejoin="round" style="fill:none;stroke:#808080;stroke-width:8.64"/>
	<path d=" M717.75 2102.83 L734.95 2102.83 L734.95 2071.27 L752.15 2071.27 L752.15 2040.83 L769.35 2040.83 L769.35 2011.50 L786.55 2011.50 L786.55 1983.16 L803.76 1983.16 L803.76 1955.81 L820.96 1955.81 L820.96 1929.32 L838.16 1929.32 L838.16 1903.71 L855.36 1903.71 L855.36 1879.08 L872.56 1879.08 L872.56 1855.07 L889.76 1855.07 L889.76 1831.93 L906.84 1831.93 L906.84 1809.41 L924.04 1809.41 L924.04 1787.62 L941.24 1787.62 L941.24 1766.71 L958.44 1766.71 L958.44 1746.41 L975.64 1746.41 L975.64 1726.86 L992.85 1726.86 L992.85 1708.05 L1010.05 1708.05 L1010.05 1689.98 L1027.25 1689.98 L1027.25 1672.41 L1044.45 1672.41 L1044.45 1655.58 L1061.65 1655.58 L1061.65 1639.24 L1078.85 1639.24 L1078.85 1623.40 L1096.05 1623.40 L1096.05 1608.06 L1113.26 1608.06 L1113.26 1593.21 L1130.46 1593.21 L1130.46 1578.85 L1147.53 1578.85 L1147.53 1564.87 L1164.73 1564.87 L1164.73 1551.25 L1181.94 1551.25 L1181.94 1538.26 L1199.14 1538.26 L1199.14 1525.64 L1216.34 1525.64 L1216.34 1513.39 L1233.54 1513.39 L1233.54 1501.75 L1250.74 1501.75 L1250.74 1490.37 L1267.94 1490.37 L1267.94 1479.60 L1285.14 1479.60 L1285.14 1469.08 L1302.35 1469.08 L1302.35 1458.93 L1319.55 1458.93 L1319.55 1449.03 L1336.75 1449.03 L1336.75 1439.38 L1353.95 1439.38 L1353.95 1430.10 L1371.15 1430.10 L1371.15 1420.94 L1388.23 1420.94 L1388.23 1412.03 L1405.43 1412.03 L1405.43 1403.37 L1422.63 1403.37 L1422.63 1394.83 L1439.83 1394.83 L1439.83 1386.41 L1457.03 1386.41 L1457.03 1378.12 L1474.23 1378.12 L1474.23 1370.08 L1491.43 1370.08 L1491.43 1362.04 L1508.64 1362.04 L1508.64 1354.24 L1525.84 1354.24 L1525.84 1346.44 L1543.04 1346.44 L1543.04 1338.77 L1560.24 1338.77 L1560.24 1331.22 L1577.44 1331.22 L1577.44 1323.80 L1594.64 1323.80 L1594.64 1316.49 L1611.84 1316.49 L1611.84 1309.19 L1628.92 1309.19 L1628.92 1302.01 L1646.12 1302.01 L1646.12 1294.84 L1663.32 1294.84 L1663.32 1287.91 L1680.53 1287.91 L1680.53 1280.85 L1697.73 1280.85 L1697.73 1274.05 L1714.93 1274.05 L1714.93 1267.24 L1732.13 1267.24 L1732.13 1260.43 L1749.33 1260.43 L1749.33 1253.75 L1766.53 1253.75 L1766.53 1247.19 L1783.73 1247.19 L1783.73 1240.51 L1800.93 1240.51 L1800.93 1233.95 L1818.13 1233.95 L1818.13 1227.51 L1835.34 1227.51 L1835.34 1221.08 L1852.54 1221.08 L1852.54 1214.64 L1869.62 1214.64 L1869.62 1208.33 L1886.82 1208.33 L1886.82 1202.02 L1904.02 1202.02 L1904.02 1195.71 L1921.22 1195.71 L1921.22 1189.40 L1938.42 1189.40 L1938.42 1183.21 L1955.62 1183.21 L1955.62 1177.02 L1972.82 1177.02 L1972.82 1170.84 L1990.02 1170.84 L1990.02 1164.77 L2007.22 1164.77 L2007.22 1158.71 L2024.43 1158.71 L2024.43 1152.64 L2041.63 1152.64 L2041.63 1146.58 L2058.83 1146.58 L2058.83 1140.64 L2076.03 1140.64 L2076.03 1134.70 L2093.23 1134.70 L2093.23 1128.76 L2110.31 1128.76 L2110.31 1122.82 L2127.51 1122.82 L2127.51 1116.88 L2144.71 1116.88 L2144.71 1111.06 L2161.91 1111.06 L2161.91 1105.12 L2179.11 1105.12 L2179.11 1099.31 L2196.32 1099.31 L2196.32 1093.49 L2213.52 1093.49 L2213.52 1087.67 L2230.72 1087.67 L2230.72 1081.86 L2247.92 1081.86 L2247.92 1076.16 L2265.12 1076.16 L2265.12 1070.35 L2282.32 1070.35 L2282.32 1064.65 L2299.52 1064.65 L2299.52 1058.96 L2316.72 1058.96 L2316.72 1053.15 L2333.93 1053.15 L2333.93 1047.45 L2351.00 1047.45 L2351.00 1041.76 L2368.20 1041.76 L2368.20 1036.07 L2385.41 1036.07 L2385.41 1030.50 L2402.61 1030.50 L2402.61 1024.81 L2419.81 1024.81 L2419.81 1019.11 L2437.01 1019.11 L2437.01 1013.42 L2454.21 1013.42 L2454.21 1007.85 L2471.41 1007.85 L2471.41 1002.16 L2488.61 1002.16 L2488.61 996.59 L2505.81 996.59 L2505.81 990.90 L2523.01 990.90 L2523.01 985.33 L2540.22 985.33 L2540.22 979.76 L2557.42 979.76 L2557.42 974.07 L2574.62 974.07 L2574.62 968.50 L2591.70 968.50 L2591.70 962.93 L2608.90 962.93 L2608.90 957.36 L2626.10 957.36 L2626.10 951.79 L2643.30 951.79 L2643.30 946.22 L2660.50 946.22 L2660.50 940.65 L2677.70 940.65 L2677.70 935.08 L2694.90 935.08 L2694.90 929.64 L2712.11 929.64 L2712.11 924.07 L2729.31 924.07 L2729.31 918.50 L2746.51 918.50 L2746.51 912.93 L2763.71 912.93 L2763.71 907.49 L2780.91 907.49 L2780.91 901.92 L2798.11 901.92 L2798.11 896.35 L2815.31 896.35 L2815.31 890.90 L2832.39 890.90 L2832.39 885.34 L2849.59 885.34 L2849.59 879.89 L2866.79 879.89 L2866.79 874.32 L2883.99 874.32 L2883.99 868.75 L2901.20 868.75 L2901.20 863.31 L2918.40 863.31 L2918.40 857.74 L2935.60 857.74 L2935.60 852.29 L2952.80 852.29 L2952.80 846.72 L2970.00 846.72 L2970.00 841.28 L2987.20 841.28 L2987.20 835.83 L3004.40 835.83 L3004.40 830.26 L3021.60 830.26 L3021.60 824.82 L3038.80 824.82 L3038.80 819.25 L3055.88 819.25 L3055.88 813.81 L3073.08 813.81 L3073.08 808.36 L3090.28 808.36 L3090.28 802.79 L3107.49 802.79 L3107.49 797.35 L3124.69 797.35 L3124.69 791.78 L3141.89 791.78 L3141.89 786.33 L3159.09 786.33 L3159.09 780.89 L3176.29 780.89 L3176.29 775.32 L3193.49 775.32 L3193.49 769.87 L3210.69 769.87 L3210.69 764.43 L3227.89 764.43 L3227.89 758.98 L3245.10 758.98 L3245.10 753.41 L3262.30 753.41 L3262.30 747.97 L3279.50 747.97 L3279.50 742.52 L3296.58 742.52 L3296.58 736.95 L3313.78 736.95 L3313.78 731.51 L3330.98 731.51 L3330.98 726.06 L3348.18 726.06 L3348.18 720.62 L3365.38 720.62 L3365.38 715.05 L3382.58 715.05 L3382.58 709.60 L3399.78 709.60 L3399.78 704.16 L3416.99 704.16 L3416.99 698.71 L3434.19 698.71 L3434.19 693.15 L3451.39 693.15 L3451.39 687.70 L3468.59 687.70 L3468.59 682.26 L3485.79 682.26 L3485.79 676.81 L3502.99 676.81 L3502.99 671.24 L3520.19 671.24 L3520.19 665.80 L3537.27 665.80 L3537.27 660.35 L3554.47 660.35 L3554.47 654.91 L3571.67 654.91 L3571.67 649.34 L3588.87 649.34 L3588.87 643.89 L3606.07 643.89 L3606.07 638.45 L3623.28 638.45 L3623.28 633.00 L3640.48 633.00 L3640.48 627.43 L3657.68 627.43 L3657.68 621.99 L3674.88 621.99 L3674.88 616.54 L3692.08 616.54 L3692.08 611.10 L3709.28 611.10 L3709.28 605.53 L3726.48 605.53 L3726.48 600.08 L3743.68 600.08 L3743.68 594.64 L3760.89 594.64 L3760.89 589.19 L3777.96 589.19 L3777.96 583.62 L3795.16 583.62 L3795.16 578.18" stroke-linejoin="round" style="fill:none;stroke:#000000;stroke-width:8.64"/>
	<line x1="495.00" y1="2509.23" x2="495.00" y2="419.90" style="stroke:#000000;stroke-width:5.76"/>
	<line x1="495.00" y1="2445.87" x2="454.90" y2="2445.87" style="stroke:#000000;stroke-width:5.76"/>
	<text x="434.98" y="2480.90" style="font-family:'Helvetica';font-size:99.99px;fill:#000000" text-anchor="end">0</text>
	<line x1="495.00" y1="2062.73" x2="454.90" y2="2062.73" style="stroke:#000000;stroke-width:5.76"/>
	<text x="434.98" y="2097.76" style="font-family:'Helvetica';font-size:99.99px;fill:#000000" text-anchor="end">90</text>
	<line x1="495.00" y1="1679.46" x2="454.90" y2="1679.46" style="stroke:#000000;stroke-width:5.76"/>
	<text x="434.98" y="1714.49" style="font-family:'Helvetica';font-size:99.99px;fill:#000000" text-anchor="end">180</text>
	<line x1="495.00" y1="1296.32" x2="454.90" y2="1296.32" style="stroke:#000000;stroke-width:5.76"/>
	<text x="434.98" y="1331.35" style="font-family:'Helvetica';font-size:99.99px;fill:#000000" text-anchor="end">270</text>
	<line x1="495.00" y1="913.18" x2="454.90" y2="913.18" style="stroke:#000000;stroke-width:5.76"/>
	<text x="434.98" y="948.21" style="font-family:'Helvetica';font-size:99.99px;fill:#000000" text-anchor="end">360</text>
	<text x="190.71" y="1464.63" style="font-family:'Helvetica';font-size:99.99px;fill:#000000" transform="rotate(-90 190.71,1464.63)" text-anchor="middle">LOS (years)</text>
	<line x1="495.00" y1="2509.23" x2="3859.02" y2="2509.23" style="stroke:#000000;stroke-width:5.76"/>
	<line x1="558.36" y1="2509.23" x2="558.36" y2="2549.21" style="stroke:#000000;stroke-width:5.76"/>
	<text x="558.36" y="2625.15" style="font-family:'Helvetica';font-size:79.94px;fill:#000000" text-anchor="middle">0</text>
	<line x1="752.52" y1="2509.23" x2="752.52" y2="2549.21" style="stroke:#000000;stroke-width:5.76"/>
	<text x="752.52" y="2625.15" style="font-family:'Helvetica';font-size:79.94px;fill:#000000" text-anchor="middle">.3</text>
	<line x1="946.81" y1="2509.23" x2="946.81" y2="2549.21" style="stroke:#000000;stroke-width:5.76"/>
	<text x="946.81" y="2625.15" style="font-family:'Helvetica';font-size:79.94px;fill:#000000" text-anchor="middle">.6</text>
	<line x1="1141.10" y1="2509.23" x2="1141.10" y2="2549.21" style="stroke:#000000;stroke-width:5.76"/>
	<text x="1141.10" y="2625.15" style="font-family:'Helvetica';font-size:79.94px;fill:#000000" text-anchor="middle">.9</text>
	<line x1="1335.26" y1="2509.23" x2="1335.26" y2="2549.21" style="stroke:#000000;stroke-width:5.76"/>
	<text x="1335.26" y="2625.15" style="font-family:'Helvetica';font-size:79.94px;fill:#000000" text-anchor="middle">1.2</text>
	<line x1="1529.55" y1="2509.23" x2="1529.55" y2="2549.21" style="stroke:#000000;stroke-width:5.76"/>
	<text x="1529.55" y="2625.15" style="font-family:'Helvetica';font-size:79.94px;fill:#000000" text-anchor="middle">1.5</text>
	<line x1="1723.71" y1="2509.23" x2="1723.71" y2="2549.21" style="stroke:#000000;stroke-width:5.76"/>
	<text x="1723.71" y="2625.15" style="font-family:'Helvetica';font-size:79.94px;fill:#000000" text-anchor="middle">1.8</text>
	<line x1="1918.00" y1="2509.23" x2="1918.00" y2="2549.21" style="stroke:#000000;stroke-width:5.76"/>
	<text x="1918.00" y="2625.15" style="font-family:'Helvetica';font-size:79.94px;fill:#000000" text-anchor="middle">2.1</text>
	<line x1="2112.29" y1="2509.23" x2="2112.29" y2="2549.21" style="stroke:#000000;stroke-width:5.76"/>
	<text x="2112.29" y="2625.15" style="font-family:'Helvetica';font-size:79.94px;fill:#000000" text-anchor="middle">2.4</text>
	<line x1="2306.45" y1="2509.23" x2="2306.45" y2="2549.21" style="stroke:#000000;stroke-width:5.76"/>
	<text x="2306.45" y="2625.15" style="font-family:'Helvetica';font-size:79.94px;fill:#000000" text-anchor="middle">2.7</text>
	<line x1="2500.74" y1="2509.23" x2="2500.74" y2="2549.21" style="stroke:#000000;stroke-width:5.76"/>
	<text x="2500.74" y="2625.15" style="font-family:'Helvetica';font-size:79.94px;fill:#000000" text-anchor="middle">3</text>
	<line x1="2695.03" y1="2509.23" x2="2695.03" y2="2549.21" style="stroke:#000000;stroke-width:5.76"/>
	<text x="2695.03" y="2625.15" style="font-family:'Helvetica';font-size:79.94px;fill:#000000" text-anchor="middle">3.3</text>
	<line x1="2889.19" y1="2509.23" x2="2889.19" y2="2549.21" style="stroke:#000000;stroke-width:5.76"/>
	<text x="2889.19" y="2625.15" style="font-family:'Helvetica';font-size:79.94px;fill:#000000" text-anchor="middle">3.6</text>
	<line x1="3083.48" y1="2509.23" x2="3083.48" y2="2549.21" style="stroke:#000000;stroke-width:5.76"/>
	<text x="3083.48" y="2625.15" style="font-family:'Helvetica';font-size:79.94px;fill:#000000" text-anchor="middle">3.9</text>
	<line x1="3277.77" y1="2509.23" x2="3277.77" y2="2549.21" style="stroke:#000000;stroke-width:5.76"/>
	<text x="3277.77" y="2625.15" style="font-family:'Helvetica';font-size:79.94px;fill:#000000" text-anchor="middle">4.2</text>
	<line x1="3471.93" y1="2509.23" x2="3471.93" y2="2549.21" style="stroke:#000000;stroke-width:5.76"/>
	<text x="3471.93" y="2625.15" style="font-family:'Helvetica';font-size:79.94px;fill:#000000" text-anchor="middle">4.5</text>
	<line x1="3666.22" y1="2509.23" x2="3666.22" y2="2549.21" style="stroke:#000000;stroke-width:5.76"/>
	<text x="3666.22" y="2625.15" style="font-family:'Helvetica';font-size:79.94px;fill:#000000" text-anchor="middle">4.8</text>
	<line x1="3860.51" y1="2509.23" x2="3860.51" y2="2549.21" style="stroke:#000000;stroke-width:5.76"/>
	<text x="3860.51" y="2625.15" style="font-family:'Helvetica';font-size:79.94px;fill:#000000" text-anchor="middle">5.1</text>
	<text x="2177.01" y="2729.16" style="font-family:'Helvetica';font-size:99.99px;fill:#000000" text-anchor="middle">Time (years)</text>
	<rect x="529.53" y="454.42" width="1384.02" height="606.39" style="fill:#FFFFFF"/>
	<rect x="532.41" y="457.30" width="1378.26" height="600.63" style="fill:none;stroke:#000000;stroke-width:5.76"/>
	<rect x="572.72" y="497.74" width="374.34" height="99.99" style="fill:#999999;fill-opacity:0.35"/>
	<rect x="577.03" y="502.06" width="365.70" height="91.35" style="fill:none;stroke:#808080;stroke-opacity:0.35;stroke-width:8.64"/>
	<rect x="572.72" y="637.70" width="374.34" height="99.99" style="fill:#333333;fill-opacity:0.35"/>
	<rect x="577.03" y="642.02" width="365.70" height="91.35" style="fill:none;stroke:#000000;stroke-opacity:0.35;stroke-width:8.64"/>
	<line x1="572.72" y1="827.67" x2="613.06" y2="827.67" style="stroke:#808080;stroke-width:8.64"/>
	<line x1="630.26" y1="827.67" x2="670.60" y2="827.67" style="stroke:#808080;stroke-width:8.64"/>
	<line x1="687.93" y1="827.67" x2="728.27" y2="827.67" style="stroke:#808080;stroke-width:8.64"/>
	<line x1="745.47" y1="827.67" x2="785.81" y2="827.67" style="stroke:#808080;stroke-width:8.64"/>
	<line x1="803.01" y1="827.67" x2="843.36" y2="827.67" style="stroke:#808080;stroke-width:8.64"/>
	<line x1="860.56" y1="827.67" x2="900.90" y2="827.67" style="stroke:#808080;stroke-width:8.64"/>
	<line x1="918.23" y1="827.67" x2="947.06" y2="827.67" style="stroke:#808080;stroke-width:8.64"/>
	<line x1="572.72" y1="967.63" x2="947.06" y2="967.63" style="stroke:#000000;stroke-width:8.64"/>
	<text x="1007.08" y="582.76" style="font-family:'Helvetica';font-size:99.99px;fill:#000000">Ambulatory CI95%</text>
	<text x="1007.08" y="722.73" style="font-family:'Helvetica';font-size:99.99px;fill:#000000">Residential CI95%</text>
	<text x="1007.08" y="862.69" style="font-family:'Helvetica';font-size:99.99px;fill:#000000">Ambulatory</text>
	<text x="1007.08" y="1002.66" style="font-family:'Helvetica';font-size:99.99px;fill:#000000">Residential</text>
	<text x="2177.01" y="369.63" style="font-family:'Helvetica';font-size:110.01px;fill:#000000" text-anchor="middle">in Admission (RP)</text>
	<text x="2177.01" y="215.98" style="font-family:'Helvetica';font-size:139.96px;fill:#1E2D53" text-anchor="middle">Length of Stay(3y)</text>
</svg>
