<?xml version="1.0" encoding="UTF-8" standalone="no"?>
<!-- This is a Stata 16.1 generated SVG file (http://www.stata.com) -->

<svg version="1.1" width="5.50in" height="4.00in" viewBox="0 0 3960 2880" xmlns="http://www.w3.org/2000/svg" xmlns:xlink="http://www.w3.org/1999/xlink">
	<desc>Stata Graph - los_models_66_3y_22</desc>
	<rect x="0" y="0" width="3960" height="2880" style="fill:#EAF2F3;stroke:none"/>
	<rect x="0.00" y="0.00" width="3959.88" height="2880.00" style="fill:#FFFFFF"/>
	<rect x="2.88" y="2.88" width="3954.12" height="2874.24" style="fill:none;stroke:#FFFFFF;stroke-width:5.76"/>
	<rect x="495.00" y="419.90" width="3364.02" height="2089.34" style="fill:#FFFFFF"/>
	<rect x="497.88" y="422.78" width="3358.26" height="2083.58" style="fill:none;stroke:#FFFFFF;stroke-width:5.76"/>
	<line x1="495.00" y1="2327.07" x2="3859.02" y2="2327.07" style="stroke:#EAF2F3;stroke-width:8.64"/>
	<line x1="495.00" y1="2208.26" x2="3859.02" y2="2208.26" style="stroke:#EAF2F3;stroke-width:8.64"/>
	<line x1="495.00" y1="2089.58" x2="3859.02" y2="2089.58" style="stroke:#EAF2F3;stroke-width:8.64"/>
	<line x1="495.00" y1="1970.78" x2="3859.02" y2="1970.78" style="stroke:#EAF2F3;stroke-width:8.64"/>
	<line x1="495.00" y1="1851.98" x2="3859.02" y2="1851.98" style="stroke:#EAF2F3;stroke-width:8.64"/>
	<line x1="495.00" y1="1733.30" x2="3859.02" y2="1733.30" style="stroke:#EAF2F3;stroke-width:8.64"/>
	<defs>
		<path id="path_gyKqleOg" d="M717.87 2328.68 L717.87 2328.68 L735.08 2328.68 L735.08 2316.42 L752.28 2316.42 L752.28 2304.42 L769.48 2304.42 L769.48 2292.29 L786.55 2292.29 L786.55 2280.41 L803.76 2280.41 L803.76 2268.53 L820.96 2268.53 L820.96 2256.78 L838.16 2256.78 L838.16 2245.14 L855.36 2245.14 L855.36 2233.63 L872.56 2233.63 L872.56 2222.12 L889.76 2222.12 L889.76 2210.74 L906.96 2210.74 L906.96 2199.48 L924.16 2199.48 L924.16 2188.22 L941.37 2188.22 L941.37 2177.08 L958.57 2177.08 L958.57 2166.06 L975.77 2166.06 L975.77 2155.05 L992.97 2155.05 L992.97 2144.16 L1010.17 2144.16 L1010.17 2133.27 L1027.25 2133.27 L1027.25 2122.50 L1044.45 2122.50 L1044.45 2111.86 L1061.65 2111.86 L1061.65 2101.22 L1078.85 2101.22 L1078.85 2090.70 L1096.05 2090.70 L1096.05 2080.18 L1113.26 2080.18 L1113.26 2069.66 L1130.46 2069.66 L1130.46 2059.39 L1147.66 2059.39 L1147.66 2048.99 L1164.86 2048.99 L1164.86 2038.72 L1182.06 2038.72 L1182.06 2028.57 L1199.26 2028.57 L1199.26 2018.43 L1216.46 2018.43 L1216.46 2008.40 L1233.66 2008.40 L1233.66 1998.38 L1250.87 1998.38 L1250.87 1988.35 L1267.94 1988.35 L1267.94 1978.45 L1285.14 1978.45 L1285.14 1968.55 L1302.35 1968.55 L1302.35 1958.78 L1319.55 1958.78 L1319.55 1949.00 L1336.75 1949.00 L1336.75 1939.22 L1353.95 1939.22 L1353.95 1929.57 L1371.15 1929.57 L1371.15 1919.92 L1388.35 1919.92 L1388.35 1910.39 L1405.55 1910.39 L1405.55 1900.86 L1422.75 1900.86 L1422.75 1891.33 L1439.95 1891.33 L1439.95 1881.93 L1457.16 1881.93 L1457.16 1872.52 L1474.36 1872.52 L1474.36 1863.11 L1491.56 1863.11 L1491.56 1853.71 L1508.64 1853.71 L1508.64 1844.43 L1525.84 1844.43 L1525.84 1835.27 L1543.04 1835.27 L1543.04 1825.99 L1560.24 1825.99 L1560.24 1816.83 L1577.44 1816.83 L1577.44 1807.67 L1594.64 1807.67 L1594.64 1798.64 L1611.84 1798.64 L1611.84 1789.48 L1629.05 1789.48 L1629.05 1780.45 L1646.25 1780.45 L1646.25 1771.54 L1663.45 1771.54 L1663.45 1762.50 L1680.65 1762.50 L1680.65 1753.59 L1697.85 1753.59 L1697.85 1744.68 L1715.05 1744.68 L1715.05 1735.90 L1732.25 1735.90 L1732.25 1726.99 L1749.33 1726.99 L1749.33 1718.20 L1766.53 1718.20 L1766.53 1709.41 L1783.73 1709.41 L1783.73 1700.63 L1800.93 1700.63 L1800.93 1691.96 L1818.13 1691.96 L1818.13 1683.30 L1835.34 1683.30 L1835.34 1674.64 L1852.54 1674.64 L1852.54 1665.97 L1869.74 1665.97 L1869.74 1657.44 L1886.94 1657.44 L1886.94 1648.90 L1904.14 1648.90 L1904.14 1640.36 L1921.34 1640.36 L1921.34 1631.82 L1938.54 1631.82 L1938.54 1623.40 L1955.74 1623.40 L1955.74 1614.99 L1972.95 1614.99 L1972.95 1606.45 L1990.02 1606.45 L1990.02 1598.16 L2007.22 1598.16 L2007.22 1589.74 L2024.43 1589.74 L2024.43 1581.45 L2041.63 1581.45 L2041.63 1573.16 L2058.83 1573.16 L2058.83 1564.87 L2076.03 1564.87 L2076.03 1556.58 L2093.23 1556.58 L2093.23 1548.28 L2110.43 1548.28 L2110.43 1540.12 L2127.63 1540.12 L2127.63 1531.95 L2144.84 1531.95 L2144.84 1523.78 L2162.04 1523.78 L2162.04 1515.61 L2179.24 1515.61 L2179.24 1507.45 L2196.44 1507.45 L2196.44 1499.40 L2213.64 1499.40 L2213.64 1491.36 L2230.72 1491.36 L2230.72 1483.31 L2247.92 1483.31 L2247.92 1475.27 L2265.12 1475.27 L2265.12 1467.23 L2282.32 1467.23 L2282.32 1459.18 L2299.52 1459.18 L2299.52 1451.26 L2316.72 1451.26 L2316.72 1443.34 L2333.93 1443.34 L2333.93 1435.42 L2351.13 1435.42 L2351.13 1427.50 L2368.33 1427.50 L2368.33 1419.58 L2385.53 1419.58 L2385.53 1411.66 L2402.73 1411.66 L2402.73 1403.86 L2419.93 1403.86 L2419.93 1396.07 L2437.13 1396.07 L2437.13 1388.15 L2454.33 1388.15 L2454.33 1380.35 L2471.41 1380.35 L2471.41 1372.68 L2488.61 1372.68 L2488.61 1364.88 L2505.81 1364.88 L2505.81 1357.21 L2523.01 1357.21 L2523.01 1349.41 L2540.22 1349.41 L2540.22 1341.74 L2557.42 1341.74 L2557.42 1334.07 L2574.62 1334.07 L2574.62 1326.39 L2591.82 1326.39 L2591.82 1318.72 L2609.02 1318.72 L2609.02 1311.17 L2626.22 1311.17 L2626.22 1303.50 L2643.42 1303.50 L2643.42 1295.95 L2660.63 1295.95 L2660.63 1288.28 L2677.83 1288.28 L2677.83 1280.73 L2695.03 1280.73 L2695.03 1273.18 L2712.11 1273.18 L2712.11 1265.75 L2729.31 1265.75 L2729.31 1258.21 L2746.51 1258.21 L2746.51 1250.66 L2763.71 1250.66 L2763.71 1243.23 L2780.91 1243.23 L2780.91 1235.81 L2798.11 1235.81 L2798.11 1228.38 L2815.31 1228.38 L2815.31 1220.96 L2832.51 1220.96 L2832.51 1213.53 L2849.72 1213.53 L2849.72 1206.11 L2866.92 1206.11 L2866.92 1198.68 L2884.12 1198.68 L2884.12 1191.38 L2901.32 1191.38 L2901.32 1184.08 L2918.52 1184.08 L2918.52 1176.65 L2935.72 1176.65 L2935.72 1169.35 L2952.80 1169.35 L2952.80 1162.05 L2970.00 1162.05 L2970.00 1154.75 L2987.20 1154.75 L2987.20 1147.45 L3004.40 1147.45 L3004.40 1140.27 L3021.60 1140.27 L3021.60 1132.97 L3038.80 1132.97 L3038.80 1125.79 L3056.01 1125.79 L3056.01 1118.49 L3073.21 1118.49 L3073.21 1111.31 L3090.41 1111.31 L3090.41 1104.13 L3107.61 1104.13 L3107.61 1096.95 L3124.81 1096.95 L3124.81 1089.78 L3142.01 1089.78 L3142.01 1082.72 L3159.21 1082.72 L3159.21 1075.54 L3176.29 1075.54 L3176.29 1068.49 L3193.49 1068.49 L3193.49 1061.31 L3210.69 1061.31 L3210.69 1054.26 L3227.89 1054.26 L3227.89 1047.21 L3245.10 1047.21 L3245.10 1040.15 L3262.30 1040.15 L3262.30 1033.10 L3279.50 1033.10 L3279.50 1026.04 L3296.70 1026.04 L3296.70 1018.99 L3313.90 1018.99 L3313.90 1011.94 L3331.10 1011.94 L3331.10 1005.01 L3348.30 1005.01 L3348.30 997.95 L3365.51 997.95 L3365.51 991.02 L3382.71 991.02 L3382.71 984.09 L3399.91 984.09 L3399.91 977.16 L3416.99 977.16 L3416.99 970.23 L3434.19 970.23 L3434.19 963.30 L3451.39 963.30 L3451.39 956.37 L3468.59 956.37 L3468.59 949.56 L3485.79 949.56 L3485.79 942.63 L3502.99 942.63 L3502.99 935.83 L3520.19 935.83 L3520.19 928.90 L3537.39 928.90 L3537.39 922.09 L3554.59 922.09 L3554.59 915.28 L3571.80 915.28 L3571.80 908.48 L3589.00 908.48 L3589.00 901.67 L3606.20 901.67 L3606.20 894.86 L3623.40 894.86 L3623.40 888.06 L3640.60 888.06 L3640.60 881.25 L3657.68 881.25 L3657.68 874.57 L3674.88 874.57 L3674.88 867.76 L3692.08 867.76 L3692.08 861.08 L3709.28 861.08 L3709.28 854.40 L3726.48 854.40 L3726.48 847.59 L3743.68 847.59 L3743.68 840.91 L3760.89 840.91 L3760.89 834.22 L3778.09 834.22 L3778.09 827.54 L3795.29 827.54 L3795.29 820.86 L3795.29 483.26 L3795.29 492.05 L3778.09 492.05 L3778.09 500.83 L3760.89 500.83 L3760.89 509.62 L3743.68 509.62 L3743.68 518.40 L3726.48 518.40 L3726.48 527.32 L3709.28 527.32 L3709.28 536.10 L3692.08 536.10 L3692.08 545.01 L3674.88 545.01 L3674.88 553.80 L3657.68 553.80 L3657.68 562.71 L3640.60 562.71 L3640.60 571.50 L3623.40 571.50 L3623.40 580.41 L3606.20 580.41 L3606.20 589.32 L3589.00 589.32 L3589.00 598.23 L3571.80 598.23 L3571.80 607.14 L3554.59 607.14 L3554.59 616.05 L3537.39 616.05 L3537.39 624.96 L3520.19 624.96 L3520.19 633.87 L3502.99 633.87 L3502.99 642.90 L3485.79 642.90 L3485.79 651.81 L3468.59 651.81 L3468.59 660.85 L3451.39 660.85 L3451.39 669.88 L3434.19 669.88 L3434.19 678.79 L3416.99 678.79 L3416.99 687.82 L3399.91 687.82 L3399.91 696.86 L3382.71 696.86 L3382.71 705.89 L3365.51 705.89 L3365.51 714.93 L3348.30 714.93 L3348.30 724.08 L3331.10 724.08 L3331.10 733.12 L3313.90 733.12 L3313.90 742.15 L3296.70 742.15 L3296.70 751.31 L3279.50 751.31 L3279.50 760.47 L3262.30 760.47 L3262.30 769.63 L3245.10 769.63 L3245.10 778.66 L3227.89 778.66 L3227.89 787.82 L3210.69 787.82 L3210.69 796.97 L3193.49 796.97 L3193.49 806.26 L3176.29 806.26 L3176.29 815.41 L3159.21 815.41 L3159.21 824.57 L3142.01 824.57 L3142.01 833.85 L3124.81 833.85 L3124.81 843.01 L3107.61 843.01 L3107.61 852.29 L3090.41 852.29 L3090.41 861.57 L3073.21 861.57 L3073.21 870.86 L3056.01 870.86 L3056.01 880.14 L3038.80 880.14 L3038.80 889.42 L3021.60 889.42 L3021.60 898.70 L3004.40 898.70 L3004.40 907.98 L2987.20 907.98 L2987.20 917.39 L2970.00 917.39 L2970.00 926.67 L2952.80 926.67 L2952.80 936.07 L2935.72 936.07 L2935.72 945.48 L2918.52 945.48 L2918.52 954.88 L2901.32 954.88 L2901.32 964.29 L2884.12 964.29 L2884.12 973.70 L2866.92 973.70 L2866.92 983.10 L2849.72 983.10 L2849.72 992.51 L2832.51 992.51 L2832.51 1002.04 L2815.31 1002.04 L2815.31 1011.44 L2798.11 1011.44 L2798.11 1020.97 L2780.91 1020.97 L2780.91 1030.50 L2763.71 1030.50 L2763.71 1039.90 L2746.51 1039.90 L2746.51 1049.43 L2729.31 1049.43 L2729.31 1059.09 L2712.11 1059.09 L2712.11 1068.61 L2695.03 1068.61 L2695.03 1078.14 L2677.83 1078.14 L2677.83 1087.80 L2660.63 1087.80 L2660.63 1097.45 L2643.42 1097.45 L2643.42 1106.98 L2626.22 1106.98 L2626.22 1116.63 L2609.02 1116.63 L2609.02 1126.28 L2591.82 1126.28 L2591.82 1136.06 L2574.62 1136.06 L2574.62 1145.71 L2557.42 1145.71 L2557.42 1155.37 L2540.22 1155.37 L2540.22 1165.14 L2523.01 1165.14 L2523.01 1174.80 L2505.81 1174.80 L2505.81 1184.57 L2488.61 1184.57 L2488.61 1194.35 L2471.41 1194.35 L2471.41 1204.13 L2454.33 1204.13 L2454.33 1214.03 L2437.13 1214.03 L2437.13 1223.80 L2419.93 1223.80 L2419.93 1233.70 L2402.73 1233.70 L2402.73 1243.48 L2385.53 1243.48 L2385.53 1253.38 L2368.33 1253.38 L2368.33 1263.28 L2351.13 1263.28 L2351.13 1273.18 L2333.93 1273.18 L2333.93 1283.08 L2316.72 1283.08 L2316.72 1293.10 L2299.52 1293.10 L2299.52 1303.00 L2282.32 1303.00 L2282.32 1313.03 L2265.12 1313.03 L2265.12 1323.05 L2247.92 1323.05 L2247.92 1333.08 L2230.72 1333.08 L2230.72 1343.10 L2213.64 1343.10 L2213.64 1353.25 L2196.44 1353.25 L2196.44 1363.27 L2179.24 1363.27 L2179.24 1373.42 L2162.04 1373.42 L2162.04 1383.57 L2144.84 1383.57 L2144.84 1393.72 L2127.63 1393.72 L2127.63 1403.86 L2110.43 1403.86 L2110.43 1414.01 L2093.23 1414.01 L2093.23 1424.28 L2076.03 1424.28 L2076.03 1434.43 L2058.83 1434.43 L2058.83 1444.70 L2041.63 1444.70 L2041.63 1454.97 L2024.43 1454.97 L2024.43 1465.25 L2007.22 1465.25 L2007.22 1475.64 L1990.02 1475.64 L1990.02 1486.04 L1972.95 1486.04 L1972.95 1496.31 L1955.74 1496.31 L1955.74 1506.70 L1938.54 1506.70 L1938.54 1517.22 L1921.34 1517.22 L1921.34 1527.62 L1904.14 1527.62 L1904.14 1538.14 L1886.94 1538.14 L1886.94 1548.66 L1869.74 1548.66 L1869.74 1559.17 L1852.54 1559.17 L1852.54 1569.69 L1835.34 1569.69 L1835.34 1580.21 L1818.13 1580.21 L1818.13 1590.86 L1800.93 1590.86 L1800.93 1601.50 L1783.73 1601.50 L1783.73 1612.14 L1766.53 1612.14 L1766.53 1622.91 L1749.33 1622.91 L1749.33 1633.55 L1732.25 1633.55 L1732.25 1644.32 L1715.05 1644.32 L1715.05 1655.08 L1697.85 1655.08 L1697.85 1665.97 L1680.65 1665.97 L1680.65 1676.74 L1663.45 1676.74 L1663.45 1687.63 L1646.25 1687.63 L1646.25 1698.52 L1629.05 1698.52 L1629.05 1709.41 L1611.84 1709.41 L1611.84 1720.30 L1594.64 1720.30 L1594.64 1731.32 L1577.44 1731.32 L1577.44 1742.33 L1560.24 1742.33 L1560.24 1753.34 L1543.04 1753.34 L1543.04 1764.36 L1525.84 1764.36 L1525.84 1775.50 L1508.64 1775.50 L1508.64 1786.63 L1491.56 1786.63 L1491.56 1797.77 L1474.36 1797.77 L1474.36 1809.03 L1457.16 1809.03 L1457.16 1820.17 L1439.95 1820.17 L1439.95 1831.43 L1422.75 1831.43 L1422.75 1842.82 L1405.55 1842.82 L1405.55 1854.08 L1388.35 1854.08 L1388.35 1865.47 L1371.15 1865.47 L1371.15 1876.85 L1353.95 1876.85 L1353.95 1888.36 L1336.75 1888.36 L1336.75 1899.75 L1319.55 1899.75 L1319.55 1911.25 L1302.35 1911.25 L1302.35 1922.89 L1285.14 1922.89 L1285.14 1934.40 L1267.94 1934.40 L1267.94 1946.03 L1250.87 1946.03 L1250.87 1957.79 L1233.66 1957.79 L1233.66 1969.42 L1216.46 1969.42 L1216.46 1981.18 L1199.26 1981.18 L1199.26 1993.06 L1182.06 1993.06 L1182.06 2004.81 L1164.86 2004.81 L1164.86 2016.69 L1147.66 2016.69 L1147.66 2028.57 L1130.46 2028.57 L1130.46 2040.58 L1113.26 2040.58 L1113.26 2052.58 L1096.05 2052.58 L1096.05 2064.59 L1078.85 2064.59 L1078.85 2076.71 L1061.65 2076.71 L1061.65 2088.72 L1044.45 2088.72 L1044.45 2100.97 L1027.25 2100.97 L1027.25 2113.10 L1010.17 2113.10 L1010.17 2125.35 L992.97 2125.35 L992.97 2137.72 L975.77 2137.72 L975.77 2149.98 L958.57 2149.98 L958.57 2162.35 L941.37 2162.35 L941.37 2174.73 L924.16 2174.73 L924.16 2187.23 L906.96 2187.23 L906.96 2199.72 L889.76 2199.72 L889.76 2212.22 L872.56 2212.22 L872.56 2224.85 L855.36 2224.85 L855.36 2237.47 L838.16 2237.47 L838.16 2250.09 L820.96 2250.09 L820.96 2262.84 L803.76 2262.84 L803.76 2275.59 L786.55 2275.59 L786.55 2288.33 L769.48 2288.33 L769.48 2301.08 L752.28 2301.08 L752.28 2313.83 L735.08 2313.83 L735.08 2326.70 L717.87 2326.70 L717.87 2328.68 Z" stroke-linejoin="round"/>
	</defs>
	<defs>
		<clipPath id="clipPath_wVLpRcHP">
			<use xlink:href="#path_gyKqleOg"/>
		</clipPath>
	</defs>
	<use xlink:href="#path_gyKqleOg" style="stroke:none;fill:#999999;fill-opacity:0.35"/>
	<use xlink:href="#path_gyKqleOg" style="fill:none;stroke:#808080;stroke-opacity:0.35;stroke-width:17.28" clip-path="url(#clipPath_wVLpRcHP)"/>
	<defs>
		<path id="path_DoJTORZo" d="M717.87 2328.43 L717.87 2328.43 L735.08 2328.43 L735.08 2316.05 L752.28 2316.05 L752.28 2303.80 L769.48 2303.80 L769.48 2291.67 L786.55 2291.67 L786.55 2279.67 L803.76 2279.67 L803.76 2267.67 L820.96 2267.67 L820.96 2255.79 L838.16 2255.79 L838.16 2244.03 L855.36 2244.03 L855.36 2232.40 L872.56 2232.40 L872.56 2220.76 L889.76 2220.76 L889.76 2209.25 L906.96 2209.25 L906.96 2197.74 L924.16 2197.74 L924.16 2186.36 L941.37 2186.36 L941.37 2175.10 L958.57 2175.10 L958.57 2163.84 L975.77 2163.84 L975.77 2152.70 L992.97 2152.70 L992.97 2141.68 L1010.17 2141.68 L1010.17 2130.67 L1027.25 2130.67 L1027.25 2119.78 L1044.45 2119.78 L1044.45 2108.89 L1061.65 2108.89 L1061.65 2098.12 L1078.85 2098.12 L1078.85 2087.36 L1096.05 2087.36 L1096.05 2076.71 L1113.26 2076.71 L1113.26 2066.07 L1130.46 2066.07 L1130.46 2055.55 L1147.66 2055.55 L1147.66 2045.03 L1164.86 2045.03 L1164.86 2034.64 L1182.06 2034.64 L1182.06 2024.24 L1199.26 2024.24 L1199.26 2013.85 L1216.46 2013.85 L1216.46 2003.58 L1233.66 2003.58 L1233.66 1993.30 L1250.87 1993.30 L1250.87 1983.16 L1267.94 1983.16 L1267.94 1973.01 L1285.14 1973.01 L1285.14 1962.98 L1302.35 1962.98 L1302.35 1952.96 L1319.55 1952.96 L1319.55 1942.94 L1336.75 1942.94 L1336.75 1933.04 L1353.95 1933.04 L1353.95 1923.14 L1371.15 1923.14 L1371.15 1913.23 L1388.35 1913.23 L1388.35 1903.46 L1405.55 1903.46 L1405.55 1893.68 L1422.75 1893.68 L1422.75 1883.91 L1439.95 1883.91 L1439.95 1874.25 L1457.16 1874.25 L1457.16 1864.60 L1474.36 1864.60 L1474.36 1854.95 L1491.56 1854.95 L1491.56 1845.42 L1508.64 1845.42 L1508.64 1835.89 L1525.84 1835.89 L1525.84 1826.36 L1543.04 1826.36 L1543.04 1816.95 L1560.24 1816.95 L1560.24 1807.55 L1577.44 1807.55 L1577.44 1798.14 L1594.64 1798.14 L1594.64 1788.86 L1611.84 1788.86 L1611.84 1779.46 L1629.05 1779.46 L1629.05 1770.18 L1646.25 1770.18 L1646.25 1761.02 L1663.45 1761.02 L1663.45 1751.74 L1680.65 1751.74 L1680.65 1742.58 L1697.85 1742.58 L1697.85 1733.42 L1715.05 1733.42 L1715.05 1724.39 L1732.25 1724.39 L1732.25 1715.23 L1749.33 1715.23 L1749.33 1706.19 L1766.53 1706.19 L1766.53 1697.28 L1783.73 1697.28 L1783.73 1688.25 L1800.93 1688.25 L1800.93 1679.34 L1818.13 1679.34 L1818.13 1670.31 L1835.34 1670.31 L1835.34 1661.52 L1852.54 1661.52 L1852.54 1652.61 L1869.74 1652.61 L1869.74 1643.70 L1886.94 1643.70 L1886.94 1634.91 L1904.14 1634.91 L1904.14 1626.13 L1921.34 1626.13 L1921.34 1617.34 L1938.54 1617.34 L1938.54 1608.68 L1955.74 1608.68 L1955.74 1599.89 L1972.95 1599.89 L1972.95 1591.23 L1990.02 1591.23 L1990.02 1582.56 L2007.22 1582.56 L2007.22 1574.03 L2024.43 1574.03 L2024.43 1565.36 L2041.63 1565.36 L2041.63 1556.82 L2058.83 1556.82 L2058.83 1548.28 L2076.03 1548.28 L2076.03 1539.75 L2093.23 1539.75 L2093.23 1531.21 L2110.43 1531.21 L2110.43 1522.67 L2127.63 1522.67 L2127.63 1514.25 L2144.84 1514.25 L2144.84 1505.84 L2162.04 1505.84 L2162.04 1497.42 L2179.24 1497.42 L2179.24 1489.01 L2196.44 1489.01 L2196.44 1480.59 L2213.64 1480.59 L2213.64 1472.30 L2230.72 1472.30 L2230.72 1464.01 L2247.92 1464.01 L2247.92 1455.72 L2265.12 1455.72 L2265.12 1447.43 L2282.32 1447.43 L2282.32 1439.13 L2299.52 1439.13 L2299.52 1430.97 L2316.72 1430.97 L2316.72 1422.67 L2333.93 1422.67 L2333.93 1414.51 L2351.13 1414.51 L2351.13 1406.34 L2368.33 1406.34 L2368.33 1398.17 L2385.53 1398.17 L2385.53 1390.13 L2402.73 1390.13 L2402.73 1381.96 L2419.93 1381.96 L2419.93 1373.92 L2437.13 1373.92 L2437.13 1365.87 L2454.33 1365.87 L2454.33 1357.70 L2471.41 1357.70 L2471.41 1349.78 L2488.61 1349.78 L2488.61 1341.74 L2505.81 1341.74 L2505.81 1333.70 L2523.01 1333.70 L2523.01 1325.78 L2540.22 1325.78 L2540.22 1317.85 L2557.42 1317.85 L2557.42 1309.81 L2574.62 1309.81 L2574.62 1301.89 L2591.82 1301.89 L2591.82 1294.09 L2609.02 1294.09 L2609.02 1286.17 L2626.22 1286.17 L2626.22 1278.25 L2643.42 1278.25 L2643.42 1270.46 L2660.63 1270.46 L2660.63 1262.66 L2677.83 1262.66 L2677.83 1254.74 L2695.03 1254.74 L2695.03 1246.94 L2712.11 1246.94 L2712.11 1239.15 L2729.31 1239.15 L2729.31 1231.47 L2746.51 1231.47 L2746.51 1223.68 L2763.71 1223.68 L2763.71 1216.01 L2780.91 1216.01 L2780.91 1208.21 L2798.11 1208.21 L2798.11 1200.54 L2815.31 1200.54 L2815.31 1192.86 L2832.51 1192.86 L2832.51 1185.19 L2849.72 1185.19 L2849.72 1177.52 L2866.92 1177.52 L2866.92 1169.85 L2884.12 1169.85 L2884.12 1162.30 L2901.32 1162.30 L2901.32 1154.62 L2918.52 1154.62 L2918.52 1147.07 L2935.72 1147.07 L2935.72 1139.53 L2952.80 1139.53 L2952.80 1131.98 L2970.00 1131.98 L2970.00 1124.43 L2987.20 1124.43 L2987.20 1116.88 L3004.40 1116.88 L3004.40 1109.33 L3021.60 1109.33 L3021.60 1101.90 L3038.80 1101.90 L3038.80 1094.36 L3056.01 1094.36 L3056.01 1086.93 L3073.21 1086.93 L3073.21 1079.50 L3090.41 1079.50 L3090.41 1072.08 L3107.61 1072.08 L3107.61 1064.53 L3124.81 1064.53 L3124.81 1057.23 L3142.01 1057.23 L3142.01 1049.80 L3159.21 1049.80 L3159.21 1042.38 L3176.29 1042.38 L3176.29 1035.08 L3193.49 1035.08 L3193.49 1027.65 L3210.69 1027.65 L3210.69 1020.35 L3227.89 1020.35 L3227.89 1013.05 L3245.10 1013.05 L3245.10 1005.62 L3262.30 1005.62 L3262.30 998.32 L3279.50 998.32 L3279.50 991.14 L3296.70 991.14 L3296.70 983.84 L3313.90 983.84 L3313.90 976.54 L3331.10 976.54 L3331.10 969.36 L3348.30 969.36 L3348.30 962.06 L3365.51 962.06 L3365.51 954.88 L3382.71 954.88 L3382.71 947.58 L3399.91 947.58 L3399.91 940.41 L3416.99 940.41 L3416.99 933.23 L3434.19 933.23 L3434.19 926.05 L3451.39 926.05 L3451.39 918.87 L3468.59 918.87 L3468.59 911.82 L3485.79 911.82 L3485.79 904.64 L3502.99 904.64 L3502.99 897.46 L3520.19 897.46 L3520.19 890.41 L3537.39 890.41 L3537.39 883.36 L3554.59 883.36 L3554.59 876.18 L3571.80 876.18 L3571.80 869.12 L3589.00 869.12 L3589.00 862.07 L3606.20 862.07 L3606.20 855.02 L3623.40 855.02 L3623.40 847.96 L3640.60 847.96 L3640.60 840.91 L3657.68 840.91 L3657.68 833.98 L3674.88 833.98 L3674.88 826.92 L3692.08 826.92 L3692.08 819.99 L3709.28 819.99 L3709.28 812.94 L3726.48 812.94 L3726.48 806.01 L3743.68 806.01 L3743.68 799.08 L3760.89 799.08 L3760.89 792.02 L3778.09 792.02 L3778.09 785.09 L3795.29 785.09 L3795.29 778.16 L3795.29 529.54 L3795.29 538.08 L3778.09 538.08 L3778.09 546.50 L3760.89 546.50 L3760.89 555.04 L3743.68 555.04 L3743.68 563.58 L3726.48 563.58 L3726.48 572.11 L3709.28 572.11 L3709.28 580.65 L3692.08 580.65 L3692.08 589.19 L3674.88 589.19 L3674.88 597.73 L3657.68 597.73 L3657.68 606.27 L3640.60 606.27 L3640.60 614.81 L3623.40 614.81 L3623.40 623.47 L3606.20 623.47 L3606.20 632.01 L3589.00 632.01 L3589.00 640.67 L3571.80 640.67 L3571.80 649.34 L3554.59 649.34 L3554.59 657.88 L3537.39 657.88 L3537.39 666.54 L3520.19 666.54 L3520.19 675.20 L3502.99 675.20 L3502.99 683.86 L3485.79 683.86 L3485.79 692.53 L3468.59 692.53 L3468.59 701.19 L3451.39 701.19 L3451.39 709.98 L3434.19 709.98 L3434.19 718.64 L3416.99 718.64 L3416.99 727.30 L3399.91 727.30 L3399.91 736.09 L3382.71 736.09 L3382.71 744.87 L3365.51 744.87 L3365.51 753.54 L3348.30 753.54 L3348.30 762.32 L3331.10 762.32 L3331.10 771.11 L3313.90 771.11 L3313.90 779.90 L3296.70 779.90 L3296.70 788.68 L3279.50 788.68 L3279.50 797.47 L3262.30 797.47 L3262.30 806.26 L3245.10 806.26 L3245.10 815.17 L3227.89 815.17 L3227.89 823.95 L3210.69 823.95 L3210.69 832.86 L3193.49 832.86 L3193.49 841.77 L3176.29 841.77 L3176.29 850.68 L3159.21 850.68 L3159.21 859.47 L3142.01 859.47 L3142.01 868.38 L3124.81 868.38 L3124.81 877.41 L3107.61 877.41 L3107.61 886.33 L3090.41 886.33 L3090.41 895.24 L3073.21 895.24 L3073.21 904.27 L3056.01 904.27 L3056.01 913.18 L3038.80 913.18 L3038.80 922.21 L3021.60 922.21 L3021.60 931.25 L3004.40 931.25 L3004.40 940.16 L2987.20 940.16 L2987.20 949.19 L2970.00 949.19 L2970.00 958.35 L2952.80 958.35 L2952.80 967.38 L2935.72 967.38 L2935.72 976.42 L2918.52 976.42 L2918.52 985.45 L2901.32 985.45 L2901.32 994.61 L2884.12 994.61 L2884.12 1003.77 L2866.92 1003.77 L2866.92 1012.93 L2849.72 1012.93 L2849.72 1021.96 L2832.51 1021.96 L2832.51 1031.24 L2815.31 1031.24 L2815.31 1040.40 L2798.11 1040.40 L2798.11 1049.56 L2780.91 1049.56 L2780.91 1058.71 L2763.71 1058.71 L2763.71 1068.00 L2746.51 1068.00 L2746.51 1077.28 L2729.31 1077.28 L2729.31 1086.44 L2712.11 1086.44 L2712.11 1095.72 L2695.03 1095.72 L2695.03 1105.00 L2677.83 1105.00 L2677.83 1114.28 L2660.63 1114.28 L2660.63 1123.69 L2643.42 1123.69 L2643.42 1132.97 L2626.22 1132.97 L2626.22 1142.37 L2609.02 1142.37 L2609.02 1151.65 L2591.82 1151.65 L2591.82 1161.06 L2574.62 1161.06 L2574.62 1170.46 L2557.42 1170.46 L2557.42 1179.87 L2540.22 1179.87 L2540.22 1189.40 L2523.01 1189.40 L2523.01 1198.80 L2505.81 1198.80 L2505.81 1208.33 L2488.61 1208.33 L2488.61 1217.74 L2471.41 1217.74 L2471.41 1227.27 L2454.33 1227.27 L2454.33 1236.80 L2437.13 1236.80 L2437.13 1246.33 L2419.93 1246.33 L2419.93 1255.85 L2402.73 1255.85 L2402.73 1265.51 L2385.53 1265.51 L2385.53 1275.04 L2368.33 1275.04 L2368.33 1284.69 L2351.13 1284.69 L2351.13 1294.34 L2333.93 1294.34 L2333.93 1303.99 L2316.72 1303.99 L2316.72 1313.65 L2299.52 1313.65 L2299.52 1323.30 L2282.32 1323.30 L2282.32 1333.08 L2265.12 1333.08 L2265.12 1342.85 L2247.92 1342.85 L2247.92 1352.63 L2230.72 1352.63 L2230.72 1362.41 L2213.64 1362.41 L2213.64 1372.18 L2196.44 1372.18 L2196.44 1381.96 L2179.24 1381.96 L2179.24 1391.86 L2162.04 1391.86 L2162.04 1401.76 L2144.84 1401.76 L2144.84 1411.54 L2127.63 1411.54 L2127.63 1421.56 L2110.43 1421.56 L2110.43 1431.46 L2093.23 1431.46 L2093.23 1441.36 L2076.03 1441.36 L2076.03 1451.39 L2058.83 1451.39 L2058.83 1461.41 L2041.63 1461.41 L2041.63 1471.43 L2024.43 1471.43 L2024.43 1481.46 L2007.22 1481.46 L2007.22 1491.61 L1990.02 1491.61 L1990.02 1501.63 L1972.95 1501.63 L1972.95 1511.78 L1955.74 1511.78 L1955.74 1521.93 L1938.54 1521.93 L1938.54 1532.20 L1921.34 1532.20 L1921.34 1542.34 L1904.14 1542.34 L1904.14 1552.62 L1886.94 1552.62 L1886.94 1562.76 L1869.74 1562.76 L1869.74 1573.04 L1852.54 1573.04 L1852.54 1583.43 L1835.34 1583.43 L1835.34 1593.70 L1818.13 1593.70 L1818.13 1604.10 L1800.93 1604.10 L1800.93 1614.49 L1783.73 1614.49 L1783.73 1624.89 L1766.53 1624.89 L1766.53 1635.28 L1749.33 1635.28 L1749.33 1645.80 L1732.25 1645.80 L1732.25 1656.20 L1715.05 1656.20 L1715.05 1666.72 L1697.85 1666.72 L1697.85 1677.36 L1680.65 1677.36 L1680.65 1687.88 L1663.45 1687.88 L1663.45 1698.52 L1646.25 1698.52 L1646.25 1709.16 L1629.05 1709.16 L1629.05 1719.81 L1611.84 1719.81 L1611.84 1730.57 L1594.64 1730.57 L1594.64 1741.22 L1577.44 1741.22 L1577.44 1751.98 L1560.24 1751.98 L1560.24 1762.87 L1543.04 1762.87 L1543.04 1773.64 L1525.84 1773.64 L1525.84 1784.53 L1508.64 1784.53 L1508.64 1795.42 L1491.56 1795.42 L1491.56 1806.44 L1474.36 1806.44 L1474.36 1817.33 L1457.16 1817.33 L1457.16 1828.34 L1439.95 1828.34 L1439.95 1839.35 L1422.75 1839.35 L1422.75 1850.49 L1405.55 1850.49 L1405.55 1861.63 L1388.35 1861.63 L1388.35 1872.77 L1371.15 1872.77 L1371.15 1883.91 L1353.95 1883.91 L1353.95 1895.17 L1336.75 1895.17 L1336.75 1906.43 L1319.55 1906.43 L1319.55 1917.69 L1302.35 1917.69 L1302.35 1928.95 L1285.14 1928.95 L1285.14 1940.34 L1267.94 1940.34 L1267.94 1951.85 L1250.87 1951.85 L1250.87 1963.23 L1233.66 1963.23 L1233.66 1974.74 L1216.46 1974.74 L1216.46 1986.25 L1199.26 1986.25 L1199.26 1997.88 L1182.06 1997.88 L1182.06 2009.52 L1164.86 2009.52 L1164.86 2021.15 L1147.66 2021.15 L1147.66 2032.78 L1130.46 2032.78 L1130.46 2044.54 L1113.26 2044.54 L1113.26 2056.29 L1096.05 2056.29 L1096.05 2068.17 L1078.85 2068.17 L1078.85 2080.06 L1061.65 2080.06 L1061.65 2091.94 L1044.45 2091.94 L1044.45 2103.94 L1027.25 2103.94 L1027.25 2115.94 L1010.17 2115.94 L1010.17 2127.95 L992.97 2127.95 L992.97 2140.08 L975.77 2140.08 L975.77 2152.20 L958.57 2152.20 L958.57 2164.46 L941.37 2164.46 L941.37 2176.71 L924.16 2176.71 L924.16 2188.96 L906.96 2188.96 L906.96 2201.33 L889.76 2201.33 L889.76 2213.71 L872.56 2213.71 L872.56 2226.08 L855.36 2226.08 L855.36 2238.58 L838.16 2238.58 L838.16 2251.08 L820.96 2251.08 L820.96 2263.71 L803.76 2263.71 L803.76 2276.20 L786.55 2276.20 L786.55 2288.83 L769.48 2288.83 L769.48 2301.57 L752.28 2301.57 L752.28 2314.32 L735.08 2314.32 L735.08 2327.07 L717.87 2327.07 L717.87 2328.43 Z" stroke-linejoin="round"/>
	</defs>
	<defs>
		<clipPath id="clipPath_gqNPTKxX">
			<use xlink:href="#path_DoJTORZo"/>
		</clipPath>
	</defs>
	<use xlink:href="#path_DoJTORZo" style="stroke:none;fill:#333333;fill-opacity:0.35"/>
	<use xlink:href="#path_DoJTORZo" style="fill:none;stroke:#000000;stroke-opacity:0.35;stroke-width:17.28" clip-path="url(#clipPath_gqNPTKxX)"/>
	<line x1="717.75" y1="2327.81" x2="734.95" y2="2327.81" style="stroke:#808080;stroke-width:8.64"/>
	<line x1="734.95" y1="2327.81" x2="734.95" y2="2315.31" style="stroke:#808080;stroke-width:8.64"/>
	<line x1="734.95" y1="2315.31" x2="745.47" y2="2315.31" style="stroke:#808080;stroke-width:8.64"/>
	<line x1="752.15" y1="2304.67" x2="752.15" y2="2302.81" style="stroke:#808080;stroke-width:8.64"/>
	<line x1="752.15" y1="2302.81" x2="769.35" y2="2302.81" style="stroke:#808080;stroke-width:8.64"/>
	<line x1="769.35" y1="2302.81" x2="769.35" y2="2290.44" style="stroke:#808080;stroke-width:8.64"/>
	<line x1="769.35" y1="2290.44" x2="778.26" y2="2290.44" style="stroke:#808080;stroke-width:8.64"/>
	<line x1="786.55" y1="2281.53" x2="786.55" y2="2278.06" style="stroke:#808080;stroke-width:8.64"/>
	<line x1="786.55" y1="2278.06" x2="803.76" y2="2278.06" style="stroke:#808080;stroke-width:8.64"/>
	<line x1="803.76" y1="2278.06" x2="803.76" y2="2265.81" style="stroke:#808080;stroke-width:8.64"/>
	<line x1="803.76" y1="2265.81" x2="811.18" y2="2265.81" style="stroke:#808080;stroke-width:8.64"/>
	<line x1="820.96" y1="2258.26" x2="820.96" y2="2253.56" style="stroke:#808080;stroke-width:8.64"/>
	<line x1="820.96" y1="2253.56" x2="838.16" y2="2253.56" style="stroke:#808080;stroke-width:8.64"/>
	<line x1="838.16" y1="2253.56" x2="838.16" y2="2241.43" style="stroke:#808080;stroke-width:8.64"/>
	<line x1="838.16" y1="2241.43" x2="844.35" y2="2241.43" style="stroke:#808080;stroke-width:8.64"/>
	<line x1="855.36" y1="2235.12" x2="855.36" y2="2229.30" style="stroke:#808080;stroke-width:8.64"/>
	<line x1="855.36" y1="2229.30" x2="872.56" y2="2229.30" style="stroke:#808080;stroke-width:8.64"/>
	<line x1="872.56" y1="2229.30" x2="872.56" y2="2217.30" style="stroke:#808080;stroke-width:8.64"/>
	<line x1="872.56" y1="2217.30" x2="877.88" y2="2217.30" style="stroke:#808080;stroke-width:8.64"/>
	<line x1="889.76" y1="2211.98" x2="889.76" y2="2205.42" style="stroke:#808080;stroke-width:8.64"/>
	<line x1="889.76" y1="2205.42" x2="906.84" y2="2205.42" style="stroke:#808080;stroke-width:8.64"/>
	<line x1="906.84" y1="2205.42" x2="906.84" y2="2193.54" style="stroke:#808080;stroke-width:8.64"/>
	<line x1="906.84" y1="2193.54" x2="911.67" y2="2193.54" style="stroke:#808080;stroke-width:8.64"/>
	<line x1="924.04" y1="2188.71" x2="924.04" y2="2181.66" style="stroke:#808080;stroke-width:8.64"/>
	<line x1="924.04" y1="2181.66" x2="941.24" y2="2181.66" style="stroke:#808080;stroke-width:8.64"/>
	<line x1="941.24" y1="2181.66" x2="941.24" y2="2169.90" style="stroke:#808080;stroke-width:8.64"/>
	<line x1="941.24" y1="2169.90" x2="945.57" y2="2169.90" style="stroke:#808080;stroke-width:8.64"/>
	<line x1="958.44" y1="2165.57" x2="958.44" y2="2158.14" style="stroke:#808080;stroke-width:8.64"/>
	<line x1="958.44" y1="2158.14" x2="975.64" y2="2158.14" style="stroke:#808080;stroke-width:8.64"/>
	<line x1="975.64" y1="2158.14" x2="975.64" y2="2146.51" style="stroke:#808080;stroke-width:8.64"/>
	<line x1="975.64" y1="2146.51" x2="979.73" y2="2146.51" style="stroke:#808080;stroke-width:8.64"/>
	<line x1="992.85" y1="2142.43" x2="992.85" y2="2135.00" style="stroke:#808080;stroke-width:8.64"/>
	<line x1="992.85" y1="2135.00" x2="1010.05" y2="2135.00" style="stroke:#808080;stroke-width:8.64"/>
	<line x1="1010.05" y1="2135.00" x2="1010.05" y2="2123.49" style="stroke:#808080;stroke-width:8.64"/>
	<line x1="1010.05" y1="2123.49" x2="1014.25" y2="2123.49" style="stroke:#808080;stroke-width:8.64"/>
	<line x1="1027.25" y1="2119.16" x2="1027.25" y2="2111.98" style="stroke:#808080;stroke-width:8.64"/>
	<line x1="1027.25" y1="2111.98" x2="1044.45" y2="2111.98" style="stroke:#808080;stroke-width:8.64"/>
	<line x1="1044.45" y1="2111.98" x2="1044.45" y2="2100.60" style="stroke:#808080;stroke-width:8.64"/>
	<line x1="1044.45" y1="2100.60" x2="1049.03" y2="2100.60" style="stroke:#808080;stroke-width:8.64"/>
	<line x1="1061.65" y1="2096.02" x2="1061.65" y2="2089.21" style="stroke:#808080;stroke-width:8.64"/>
	<line x1="1061.65" y1="2089.21" x2="1078.85" y2="2089.21" style="stroke:#808080;stroke-width:8.64"/>
	<line x1="1078.85" y1="2089.21" x2="1078.85" y2="2077.95" style="stroke:#808080;stroke-width:8.64"/>
	<line x1="1078.85" y1="2077.95" x2="1083.93" y2="2077.95" style="stroke:#808080;stroke-width:8.64"/>
	<line x1="1096.05" y1="2072.88" x2="1096.05" y2="2066.69" style="stroke:#808080;stroke-width:8.64"/>
	<line x1="1096.05" y1="2066.69" x2="1113.26" y2="2066.69" style="stroke:#808080;stroke-width:8.64"/>
	<line x1="1113.26" y1="2066.69" x2="1113.26" y2="2055.43" style="stroke:#808080;stroke-width:8.64"/>
	<line x1="1113.26" y1="2055.43" x2="1118.95" y2="2055.43" style="stroke:#808080;stroke-width:8.64"/>
	<line x1="1130.46" y1="2049.61" x2="1130.46" y2="2044.29" style="stroke:#808080;stroke-width:8.64"/>
	<line x1="1130.46" y1="2044.29" x2="1147.53" y2="2044.29" style="stroke:#808080;stroke-width:8.64"/>
	<line x1="1147.53" y1="2044.29" x2="1147.53" y2="2033.28" style="stroke:#808080;stroke-width:8.64"/>
	<line x1="1147.53" y1="2033.28" x2="1154.34" y2="2033.28" style="stroke:#808080;stroke-width:8.64"/>
	<line x1="1164.73" y1="2026.35" x2="1164.73" y2="2022.26" style="stroke:#808080;stroke-width:8.64"/>
	<line x1="1164.73" y1="2022.26" x2="1181.94" y2="2022.26" style="stroke:#808080;stroke-width:8.64"/>
	<line x1="1181.94" y1="2022.26" x2="1181.94" y2="2011.25" style="stroke:#808080;stroke-width:8.64"/>
	<line x1="1181.94" y1="2011.25" x2="1189.98" y2="2011.25" style="stroke:#808080;stroke-width:8.64"/>
	<line x1="1199.14" y1="2003.20" x2="1199.14" y2="2000.23" style="stroke:#808080;stroke-width:8.64"/>
	<line x1="1199.14" y1="2000.23" x2="1216.34" y2="2000.23" style="stroke:#808080;stroke-width:8.64"/>
	<line x1="1216.34" y1="2000.23" x2="1216.34" y2="1989.34" style="stroke:#808080;stroke-width:8.64"/>
	<line x1="1216.34" y1="1989.34" x2="1225.62" y2="1989.34" style="stroke:#808080;stroke-width:8.64"/>
	<line x1="1233.54" y1="1980.06" x2="1233.54" y2="1978.58" style="stroke:#808080;stroke-width:8.64"/>
	<line x1="1233.54" y1="1978.58" x2="1250.74" y2="1978.58" style="stroke:#808080;stroke-width:8.64"/>
	<line x1="1250.74" y1="1978.58" x2="1250.74" y2="1967.69" style="stroke:#808080;stroke-width:8.64"/>
	<line x1="1250.74" y1="1967.69" x2="1261.51" y2="1967.69" style="stroke:#808080;stroke-width:8.64"/>
	<line x1="1268.07" y1="1957.04" x2="1285.14" y2="1957.04" style="stroke:#808080;stroke-width:8.64"/>
	<line x1="1285.14" y1="1957.04" x2="1285.14" y2="1946.28" style="stroke:#808080;stroke-width:8.64"/>
	<line x1="1285.14" y1="1946.28" x2="1297.64" y2="1946.28" style="stroke:#808080;stroke-width:8.64"/>
	<line x1="1304.33" y1="1935.63" x2="1319.55" y2="1935.63" style="stroke:#808080;stroke-width:8.64"/>
	<line x1="1319.55" y1="1935.63" x2="1319.55" y2="1924.99" style="stroke:#808080;stroke-width:8.64"/>
	<line x1="1319.55" y1="1924.99" x2="1334.03" y2="1924.99" style="stroke:#808080;stroke-width:8.64"/>
	<line x1="1340.71" y1="1914.47" x2="1353.95" y2="1914.47" style="stroke:#808080;stroke-width:8.64"/>
	<line x1="1353.95" y1="1914.47" x2="1353.95" y2="1903.95" style="stroke:#808080;stroke-width:8.64"/>
	<line x1="1353.95" y1="1903.95" x2="1370.53" y2="1903.95" style="stroke:#808080;stroke-width:8.64"/>
	<line x1="1377.21" y1="1893.43" x2="1388.23" y2="1893.43" style="stroke:#808080;stroke-width:8.64"/>
	<line x1="1388.23" y1="1893.43" x2="1388.23" y2="1883.04" style="stroke:#808080;stroke-width:8.64"/>
	<line x1="1388.23" y1="1883.04" x2="1405.43" y2="1883.04" style="stroke:#808080;stroke-width:8.64"/>
	<line x1="1405.43" y1="1883.04" x2="1405.43" y2="1881.31" style="stroke:#808080;stroke-width:8.64"/>
	<line x1="1413.97" y1="1872.64" x2="1422.63" y2="1872.64" style="stroke:#808080;stroke-width:8.64"/>
	<line x1="1422.63" y1="1872.64" x2="1422.63" y2="1862.25" style="stroke:#808080;stroke-width:8.64"/>
	<line x1="1422.63" y1="1862.25" x2="1439.83" y2="1862.25" style="stroke:#808080;stroke-width:8.64"/>
	<line x1="1439.83" y1="1862.25" x2="1439.83" y2="1858.16" style="stroke:#808080;stroke-width:8.64"/>
	<line x1="1450.72" y1="1851.85" x2="1457.03" y2="1851.85" style="stroke:#808080;stroke-width:8.64"/>
	<line x1="1457.03" y1="1851.85" x2="1457.03" y2="1841.58" style="stroke:#808080;stroke-width:8.64"/>
	<line x1="1457.03" y1="1841.58" x2="1474.23" y2="1841.58" style="stroke:#808080;stroke-width:8.64"/>
	<line x1="1474.23" y1="1841.58" x2="1474.23" y2="1834.90" style="stroke:#808080;stroke-width:8.64"/>
	<line x1="1487.97" y1="1831.43" x2="1491.43" y2="1831.43" style="stroke:#808080;stroke-width:8.64"/>
	<line x1="1491.43" y1="1831.43" x2="1491.43" y2="1821.16" style="stroke:#808080;stroke-width:8.64"/>
	<line x1="1491.43" y1="1821.16" x2="1508.64" y2="1821.16" style="stroke:#808080;stroke-width:8.64"/>
	<line x1="1508.64" y1="1821.16" x2="1508.64" y2="1811.76" style="stroke:#808080;stroke-width:8.64"/>
	<line x1="1525.10" y1="1811.01" x2="1525.84" y2="1811.01" style="stroke:#808080;stroke-width:8.64"/>
	<line x1="1525.84" y1="1811.01" x2="1525.84" y2="1800.87" style="stroke:#808080;stroke-width:8.64"/>
	<line x1="1525.84" y1="1800.87" x2="1543.04" y2="1800.87" style="stroke:#808080;stroke-width:8.64"/>
	<line x1="1543.04" y1="1800.87" x2="1543.04" y2="1790.72" style="stroke:#808080;stroke-width:8.64"/>
	<line x1="1543.04" y1="1790.72" x2="1545.14" y2="1790.72" style="stroke:#808080;stroke-width:8.64"/>
	<line x1="1560.24" y1="1788.61" x2="1560.24" y2="1780.69" style="stroke:#808080;stroke-width:8.64"/>
	<line x1="1560.24" y1="1780.69" x2="1577.44" y2="1780.69" style="stroke:#808080;stroke-width:8.64"/>
	<line x1="1577.44" y1="1780.69" x2="1577.44" y2="1770.67" style="stroke:#808080;stroke-width:8.64"/>
	<line x1="1577.44" y1="1770.67" x2="1582.64" y2="1770.67" style="stroke:#808080;stroke-width:8.64"/>
	<line x1="1594.64" y1="1765.47" x2="1594.64" y2="1760.65" style="stroke:#808080;stroke-width:8.64"/>
	<line x1="1594.64" y1="1760.65" x2="1611.84" y2="1760.65" style="stroke:#808080;stroke-width:8.64"/>
	<line x1="1611.84" y1="1760.65" x2="1611.84" y2="1750.75" style="stroke:#808080;stroke-width:8.64"/>
	<line x1="1611.84" y1="1750.75" x2="1620.26" y2="1750.75" style="stroke:#808080;stroke-width:8.64"/>
	<line x1="1628.92" y1="1742.08" x2="1628.92" y2="1740.72" style="stroke:#808080;stroke-width:8.64"/>
	<line x1="1628.92" y1="1740.72" x2="1646.12" y2="1740.72" style="stroke:#808080;stroke-width:8.64"/>
	<line x1="1646.12" y1="1740.72" x2="1646.12" y2="1730.82" style="stroke:#808080;stroke-width:8.64"/>
	<line x1="1646.12" y1="1730.82" x2="1658.00" y2="1730.82" style="stroke:#808080;stroke-width:8.64"/>
	<line x1="1665.30" y1="1720.92" x2="1680.53" y2="1720.92" style="stroke:#808080;stroke-width:8.64"/>
	<line x1="1680.53" y1="1720.92" x2="1680.53" y2="1711.14" style="stroke:#808080;stroke-width:8.64"/>
	<line x1="1680.53" y1="1711.14" x2="1695.87" y2="1711.14" style="stroke:#808080;stroke-width:8.64"/>
	<line x1="1703.30" y1="1701.37" x2="1714.93" y2="1701.37" style="stroke:#808080;stroke-width:8.64"/>
	<line x1="1714.93" y1="1701.37" x2="1714.93" y2="1691.59" style="stroke:#808080;stroke-width:8.64"/>
	<line x1="1714.93" y1="1691.59" x2="1732.13" y2="1691.59" style="stroke:#808080;stroke-width:8.64"/>
	<line x1="1732.13" y1="1691.59" x2="1732.13" y2="1689.86" style="stroke:#808080;stroke-width:8.64"/>
	<line x1="1741.29" y1="1681.82" x2="1749.33" y2="1681.82" style="stroke:#808080;stroke-width:8.64"/>
	<line x1="1749.33" y1="1681.82" x2="1749.33" y2="1672.04" style="stroke:#808080;stroke-width:8.64"/>
	<line x1="1749.33" y1="1672.04" x2="1766.53" y2="1672.04" style="stroke:#808080;stroke-width:8.64"/>
	<line x1="1766.53" y1="1672.04" x2="1766.53" y2="1666.72" style="stroke:#808080;stroke-width:8.64"/>
	<line x1="1779.53" y1="1662.39" x2="1783.73" y2="1662.39" style="stroke:#808080;stroke-width:8.64"/>
	<line x1="1783.73" y1="1662.39" x2="1783.73" y2="1652.73" style="stroke:#808080;stroke-width:8.64"/>
	<line x1="1783.73" y1="1652.73" x2="1800.93" y2="1652.73" style="stroke:#808080;stroke-width:8.64"/>
	<line x1="1800.93" y1="1652.73" x2="1800.93" y2="1643.58" style="stroke:#808080;stroke-width:8.64"/>
	<line x1="1817.76" y1="1643.08" x2="1818.13" y2="1643.08" style="stroke:#808080;stroke-width:8.64"/>
	<line x1="1818.13" y1="1643.08" x2="1818.13" y2="1633.43" style="stroke:#808080;stroke-width:8.64"/>
	<line x1="1818.13" y1="1633.43" x2="1835.34" y2="1633.43" style="stroke:#808080;stroke-width:8.64"/>
	<line x1="1835.34" y1="1633.43" x2="1835.34" y2="1623.90" style="stroke:#808080;stroke-width:8.64"/>
	<line x1="1835.34" y1="1623.90" x2="1838.92" y2="1623.90" style="stroke:#808080;stroke-width:8.64"/>
	<line x1="1852.54" y1="1620.31" x2="1852.54" y2="1614.37" style="stroke:#808080;stroke-width:8.64"/>
	<line x1="1852.54" y1="1614.37" x2="1869.62" y2="1614.37" style="stroke:#808080;stroke-width:8.64"/>
	<line x1="1869.62" y1="1614.37" x2="1869.62" y2="1604.84" style="stroke:#808080;stroke-width:8.64"/>
	<line x1="1869.62" y1="1604.84" x2="1877.41" y2="1604.84" style="stroke:#808080;stroke-width:8.64"/>
	<line x1="1886.82" y1="1596.92" x2="1886.82" y2="1595.31" style="stroke:#808080;stroke-width:8.64"/>
	<line x1="1886.82" y1="1595.31" x2="1904.02" y2="1595.31" style="stroke:#808080;stroke-width:8.64"/>
	<line x1="1904.02" y1="1595.31" x2="1904.02" y2="1585.91" style="stroke:#808080;stroke-width:8.64"/>
	<line x1="1904.02" y1="1585.91" x2="1916.02" y2="1585.91" style="stroke:#808080;stroke-width:8.64"/>
	<line x1="1923.94" y1="1576.50" x2="1938.42" y2="1576.50" style="stroke:#808080;stroke-width:8.64"/>
	<line x1="1938.42" y1="1576.50" x2="1938.42" y2="1567.10" style="stroke:#808080;stroke-width:8.64"/>
	<line x1="1938.42" y1="1567.10" x2="1954.76" y2="1567.10" style="stroke:#808080;stroke-width:8.64"/>
	<line x1="1962.67" y1="1557.69" x2="1972.82" y2="1557.69" style="stroke:#808080;stroke-width:8.64"/>
	<line x1="1972.82" y1="1557.69" x2="1972.82" y2="1548.28" style="stroke:#808080;stroke-width:8.64"/>
	<line x1="1972.82" y1="1548.28" x2="1990.02" y2="1548.28" style="stroke:#808080;stroke-width:8.64"/>
	<line x1="1990.02" y1="1548.28" x2="1990.02" y2="1544.82" style="stroke:#808080;stroke-width:8.64"/>
	<line x1="2001.53" y1="1539.00" x2="2007.22" y2="1539.00" style="stroke:#808080;stroke-width:8.64"/>
	<line x1="2007.22" y1="1539.00" x2="2007.22" y2="1529.72" style="stroke:#808080;stroke-width:8.64"/>
	<line x1="2007.22" y1="1529.72" x2="2024.43" y2="1529.72" style="stroke:#808080;stroke-width:8.64"/>
	<line x1="2024.43" y1="1529.72" x2="2024.43" y2="1521.55" style="stroke:#808080;stroke-width:8.64"/>
	<line x1="2040.51" y1="1520.44" x2="2041.63" y2="1520.44" style="stroke:#808080;stroke-width:8.64"/>
	<line x1="2041.63" y1="1520.44" x2="2041.63" y2="1511.16" style="stroke:#808080;stroke-width:8.64"/>
	<line x1="2041.63" y1="1511.16" x2="2058.83" y2="1511.16" style="stroke:#808080;stroke-width:8.64"/>
	<line x1="2058.83" y1="1511.16" x2="2058.83" y2="1502.00" style="stroke:#808080;stroke-width:8.64"/>
	<line x1="2058.83" y1="1502.00" x2="2062.42" y2="1502.00" style="stroke:#808080;stroke-width:8.64"/>
	<line x1="2076.03" y1="1498.29" x2="2076.03" y2="1492.72" style="stroke:#808080;stroke-width:8.64"/>
	<line x1="2076.03" y1="1492.72" x2="2093.23" y2="1492.72" style="stroke:#808080;stroke-width:8.64"/>
	<line x1="2093.23" y1="1492.72" x2="2093.23" y2="1483.56" style="stroke:#808080;stroke-width:8.64"/>
	<line x1="2093.23" y1="1483.56" x2="2101.52" y2="1483.56" style="stroke:#808080;stroke-width:8.64"/>
	<line x1="2110.31" y1="1475.02" x2="2110.31" y2="1474.40" style="stroke:#808080;stroke-width:8.64"/>
	<line x1="2110.31" y1="1474.40" x2="2127.51" y2="1474.40" style="stroke:#808080;stroke-width:8.64"/>
	<line x1="2127.51" y1="1474.40" x2="2127.51" y2="1465.25" style="stroke:#808080;stroke-width:8.64"/>
	<line x1="2127.51" y1="1465.25" x2="2140.88" y2="1465.25" style="stroke:#808080;stroke-width:8.64"/>
	<line x1="2149.04" y1="1456.21" x2="2161.91" y2="1456.21" style="stroke:#808080;stroke-width:8.64"/>
	<line x1="2161.91" y1="1456.21" x2="2161.91" y2="1447.05" style="stroke:#808080;stroke-width:8.64"/>
	<line x1="2161.91" y1="1447.05" x2="2179.11" y2="1447.05" style="stroke:#808080;stroke-width:8.64"/>
	<line x1="2179.11" y1="1447.05" x2="2179.11" y2="1445.94" style="stroke:#808080;stroke-width:8.64"/>
	<line x1="2188.39" y1="1438.02" x2="2196.32" y2="1438.02" style="stroke:#808080;stroke-width:8.64"/>
	<line x1="2196.32" y1="1438.02" x2="2196.32" y2="1428.99" style="stroke:#808080;stroke-width:8.64"/>
	<line x1="2196.32" y1="1428.99" x2="2213.52" y2="1428.99" style="stroke:#808080;stroke-width:8.64"/>
	<line x1="2213.52" y1="1428.99" x2="2213.52" y2="1422.80" style="stroke:#808080;stroke-width:8.64"/>
	<line x1="2227.87" y1="1419.95" x2="2230.72" y2="1419.95" style="stroke:#808080;stroke-width:8.64"/>
	<line x1="2230.72" y1="1419.95" x2="2230.72" y2="1410.92" style="stroke:#808080;stroke-width:8.64"/>
	<line x1="2230.72" y1="1410.92" x2="2247.92" y2="1410.92" style="stroke:#808080;stroke-width:8.64"/>
	<line x1="2247.92" y1="1410.92" x2="2247.92" y2="1402.01" style="stroke:#808080;stroke-width:8.64"/>
	<line x1="2247.92" y1="1402.01" x2="2250.27" y2="1402.01" style="stroke:#808080;stroke-width:8.64"/>
	<line x1="2265.12" y1="1399.53" x2="2265.12" y2="1392.97" style="stroke:#808080;stroke-width:8.64"/>
	<line x1="2265.12" y1="1392.97" x2="2282.32" y2="1392.97" style="stroke:#808080;stroke-width:8.64"/>
	<line x1="2282.32" y1="1392.97" x2="2282.32" y2="1384.06" style="stroke:#808080;stroke-width:8.64"/>
	<line x1="2282.32" y1="1384.06" x2="2289.87" y2="1384.06" style="stroke:#808080;stroke-width:8.64"/>
	<line x1="2299.52" y1="1376.39" x2="2299.52" y2="1375.15" style="stroke:#808080;stroke-width:8.64"/>
	<line x1="2299.52" y1="1375.15" x2="2316.72" y2="1375.15" style="stroke:#808080;stroke-width:8.64"/>
	<line x1="2316.72" y1="1375.15" x2="2316.72" y2="1366.24" style="stroke:#808080;stroke-width:8.64"/>
	<line x1="2316.72" y1="1366.24" x2="2329.72" y2="1366.24" style="stroke:#808080;stroke-width:8.64"/>
	<line x1="2338.01" y1="1357.33" x2="2351.00" y2="1357.33" style="stroke:#808080;stroke-width:8.64"/>
	<line x1="2351.00" y1="1357.33" x2="2351.00" y2="1348.55" style="stroke:#808080;stroke-width:8.64"/>
	<line x1="2351.00" y1="1348.55" x2="2368.20" y2="1348.55" style="stroke:#808080;stroke-width:8.64"/>
	<line x1="2368.20" y1="1348.55" x2="2368.20" y2="1347.18" style="stroke:#808080;stroke-width:8.64"/>
	<line x1="2377.86" y1="1339.64" x2="2385.41" y2="1339.64" style="stroke:#808080;stroke-width:8.64"/>
	<line x1="2385.41" y1="1339.64" x2="2385.41" y2="1330.85" style="stroke:#808080;stroke-width:8.64"/>
	<line x1="2385.41" y1="1330.85" x2="2402.61" y2="1330.85" style="stroke:#808080;stroke-width:8.64"/>
	<line x1="2402.61" y1="1330.85" x2="2402.61" y2="1324.04" style="stroke:#808080;stroke-width:8.64"/>
	<line x1="2417.95" y1="1322.06" x2="2419.81" y2="1322.06" style="stroke:#808080;stroke-width:8.64"/>
	<line x1="2419.81" y1="1322.06" x2="2419.81" y2="1313.28" style="stroke:#808080;stroke-width:8.64"/>
	<line x1="2419.81" y1="1313.28" x2="2437.01" y2="1313.28" style="stroke:#808080;stroke-width:8.64"/>
	<line x1="2437.01" y1="1313.28" x2="2437.01" y2="1304.49" style="stroke:#808080;stroke-width:8.64"/>
	<line x1="2437.01" y1="1304.49" x2="2440.60" y2="1304.49" style="stroke:#808080;stroke-width:8.64"/>
	<line x1="2454.21" y1="1300.78" x2="2454.21" y2="1295.70" style="stroke:#808080;stroke-width:8.64"/>
	<line x1="2454.21" y1="1295.70" x2="2471.41" y2="1295.70" style="stroke:#808080;stroke-width:8.64"/>
	<line x1="2471.41" y1="1295.70" x2="2471.41" y2="1287.04" style="stroke:#808080;stroke-width:8.64"/>
	<line x1="2471.41" y1="1287.04" x2="2480.82" y2="1287.04" style="stroke:#808080;stroke-width:8.64"/>
	<line x1="2489.23" y1="1278.25" x2="2505.81" y2="1278.25" style="stroke:#808080;stroke-width:8.64"/>
	<line x1="2505.81" y1="1278.25" x2="2505.81" y2="1269.59" style="stroke:#808080;stroke-width:8.64"/>
	<line x1="2505.81" y1="1269.59" x2="2520.91" y2="1269.59" style="stroke:#808080;stroke-width:8.64"/>
	<line x1="2529.45" y1="1260.93" x2="2540.22" y2="1260.93" style="stroke:#808080;stroke-width:8.64"/>
	<line x1="2540.22" y1="1260.93" x2="2540.22" y2="1252.27" style="stroke:#808080;stroke-width:8.64"/>
	<line x1="2540.22" y1="1252.27" x2="2557.42" y2="1252.27" style="stroke:#808080;stroke-width:8.64"/>
	<line x1="2557.42" y1="1252.27" x2="2557.42" y2="1248.55" style="stroke:#808080;stroke-width:8.64"/>
	<line x1="2569.79" y1="1243.60" x2="2574.62" y2="1243.60" style="stroke:#808080;stroke-width:8.64"/>
	<line x1="2574.62" y1="1243.60" x2="2574.62" y2="1234.94" style="stroke:#808080;stroke-width:8.64"/>
	<line x1="2574.62" y1="1234.94" x2="2591.70" y2="1234.94" style="stroke:#808080;stroke-width:8.64"/>
	<line x1="2591.70" y1="1234.94" x2="2591.70" y2="1226.40" style="stroke:#808080;stroke-width:8.64"/>
	<line x1="2591.70" y1="1226.40" x2="2592.81" y2="1226.40" style="stroke:#808080;stroke-width:8.64"/>
	<line x1="2608.90" y1="1225.16" x2="2608.90" y2="1217.74" style="stroke:#808080;stroke-width:8.64"/>
	<line x1="2608.90" y1="1217.74" x2="2626.10" y2="1217.74" style="stroke:#808080;stroke-width:8.64"/>
	<line x1="2626.10" y1="1217.74" x2="2626.10" y2="1209.20" style="stroke:#808080;stroke-width:8.64"/>
	<line x1="2626.10" y1="1209.20" x2="2633.28" y2="1209.20" style="stroke:#808080;stroke-width:8.64"/>
	<line x1="2643.30" y1="1202.02" x2="2643.30" y2="1200.66" style="stroke:#808080;stroke-width:8.64"/>
	<line x1="2643.30" y1="1200.66" x2="2660.50" y2="1200.66" style="stroke:#808080;stroke-width:8.64"/>
	<line x1="2660.50" y1="1200.66" x2="2660.50" y2="1192.12" style="stroke:#808080;stroke-width:8.64"/>
	<line x1="2660.50" y1="1192.12" x2="2673.74" y2="1192.12" style="stroke:#808080;stroke-width:8.64"/>
	<line x1="2682.41" y1="1183.58" x2="2694.90" y2="1183.58" style="stroke:#808080;stroke-width:8.64"/>
	<line x1="2694.90" y1="1183.58" x2="2694.90" y2="1175.04" style="stroke:#808080;stroke-width:8.64"/>
	<line x1="2694.90" y1="1175.04" x2="2712.11" y2="1175.04" style="stroke:#808080;stroke-width:8.64"/>
	<line x1="2712.11" y1="1175.04" x2="2712.11" y2="1172.94" style="stroke:#808080;stroke-width:8.64"/>
	<line x1="2722.99" y1="1166.63" x2="2729.31" y2="1166.63" style="stroke:#808080;stroke-width:8.64"/>
	<line x1="2729.31" y1="1166.63" x2="2729.31" y2="1158.09" style="stroke:#808080;stroke-width:8.64"/>
	<line x1="2729.31" y1="1158.09" x2="2746.51" y2="1158.09" style="stroke:#808080;stroke-width:8.64"/>
	<line x1="2746.51" y1="1158.09" x2="2746.51" y2="1149.80" style="stroke:#808080;stroke-width:8.64"/>
	<line x1="2763.71" y1="1149.67" x2="2763.71" y2="1149.67" style="stroke:#808080;stroke-width:8.64"/>
	<line x1="2763.71" y1="1149.67" x2="2763.71" y2="1141.26" style="stroke:#808080;stroke-width:8.64"/>
	<line x1="2763.71" y1="1141.26" x2="2780.91" y2="1141.26" style="stroke:#808080;stroke-width:8.64"/>
	<line x1="2780.91" y1="1141.26" x2="2780.91" y2="1132.84" style="stroke:#808080;stroke-width:8.64"/>
	<line x1="2780.91" y1="1132.84" x2="2787.22" y2="1132.84" style="stroke:#808080;stroke-width:8.64"/>
	<line x1="2798.11" y1="1126.53" x2="2798.11" y2="1124.43" style="stroke:#808080;stroke-width:8.64"/>
	<line x1="2798.11" y1="1124.43" x2="2815.31" y2="1124.43" style="stroke:#808080;stroke-width:8.64"/>
	<line x1="2815.31" y1="1124.43" x2="2815.31" y2="1116.01" style="stroke:#808080;stroke-width:8.64"/>
	<line x1="2815.31" y1="1116.01" x2="2827.93" y2="1116.01" style="stroke:#808080;stroke-width:8.64"/>
	<line x1="2836.72" y1="1107.60" x2="2849.59" y2="1107.60" style="stroke:#808080;stroke-width:8.64"/>
	<line x1="2849.59" y1="1107.60" x2="2849.59" y2="1099.31" style="stroke:#808080;stroke-width:8.64"/>
	<line x1="2849.59" y1="1099.31" x2="2866.79" y2="1099.31" style="stroke:#808080;stroke-width:8.64"/>
	<line x1="2866.79" y1="1099.31" x2="2866.79" y2="1097.33" style="stroke:#808080;stroke-width:8.64"/>
	<line x1="2877.56" y1="1090.89" x2="2883.99" y2="1090.89" style="stroke:#808080;stroke-width:8.64"/>
	<line x1="2883.99" y1="1090.89" x2="2883.99" y2="1082.60" style="stroke:#808080;stroke-width:8.64"/>
	<line x1="2883.99" y1="1082.60" x2="2901.20" y2="1082.60" style="stroke:#808080;stroke-width:8.64"/>
	<line x1="2901.20" y1="1082.60" x2="2901.20" y2="1074.31" style="stroke:#808080;stroke-width:8.64"/>
	<line x1="2901.20" y1="1074.31" x2="2901.32" y2="1074.31" style="stroke:#808080;stroke-width:8.64"/>
	<line x1="2918.40" y1="1074.18" x2="2918.40" y2="1066.02" style="stroke:#808080;stroke-width:8.64"/>
	<line x1="2918.40" y1="1066.02" x2="2935.60" y2="1066.02" style="stroke:#808080;stroke-width:8.64"/>
	<line x1="2935.60" y1="1066.02" x2="2935.60" y2="1057.72" style="stroke:#808080;stroke-width:8.64"/>
	<line x1="2935.60" y1="1057.72" x2="2942.28" y2="1057.72" style="stroke:#808080;stroke-width:8.64"/>
	<line x1="2952.80" y1="1050.92" x2="2952.80" y2="1049.43" style="stroke:#808080;stroke-width:8.64"/>
	<line x1="2952.80" y1="1049.43" x2="2970.00" y2="1049.43" style="stroke:#808080;stroke-width:8.64"/>
	<line x1="2970.00" y1="1049.43" x2="2970.00" y2="1041.14" style="stroke:#808080;stroke-width:8.64"/>
	<line x1="2970.00" y1="1041.14" x2="2983.36" y2="1041.14" style="stroke:#808080;stroke-width:8.64"/>
	<line x1="2992.28" y1="1032.85" x2="3004.40" y2="1032.85" style="stroke:#808080;stroke-width:8.64"/>
	<line x1="3004.40" y1="1032.85" x2="3004.40" y2="1024.68" style="stroke:#808080;stroke-width:8.64"/>
	<line x1="3004.40" y1="1024.68" x2="3021.60" y2="1024.68" style="stroke:#808080;stroke-width:8.64"/>
	<line x1="3021.60" y1="1024.68" x2="3021.60" y2="1021.84" style="stroke:#808080;stroke-width:8.64"/>
	<line x1="3033.36" y1="1016.39" x2="3038.80" y2="1016.39" style="stroke:#808080;stroke-width:8.64"/>
	<line x1="3038.80" y1="1016.39" x2="3038.80" y2="1008.22" style="stroke:#808080;stroke-width:8.64"/>
	<line x1="3038.80" y1="1008.22" x2="3055.88" y2="1008.22" style="stroke:#808080;stroke-width:8.64"/>
	<line x1="3055.88" y1="1008.22" x2="3055.88" y2="1000.06" style="stroke:#808080;stroke-width:8.64"/>
	<line x1="3055.88" y1="1000.06" x2="3057.37" y2="1000.06" style="stroke:#808080;stroke-width:8.64"/>
	<line x1="3073.08" y1="998.57" x2="3073.08" y2="991.89" style="stroke:#808080;stroke-width:8.64"/>
	<line x1="3073.08" y1="991.89" x2="3090.28" y2="991.89" style="stroke:#808080;stroke-width:8.64"/>
	<line x1="3090.28" y1="991.89" x2="3090.28" y2="983.72" style="stroke:#808080;stroke-width:8.64"/>
	<line x1="3090.28" y1="983.72" x2="3098.58" y2="983.72" style="stroke:#808080;stroke-width:8.64"/>
	<line x1="3107.73" y1="975.55" x2="3124.69" y2="975.55" style="stroke:#808080;stroke-width:8.64"/>
	<line x1="3124.69" y1="975.55" x2="3124.69" y2="967.38" style="stroke:#808080;stroke-width:8.64"/>
	<line x1="3124.69" y1="967.38" x2="3139.91" y2="967.38" style="stroke:#808080;stroke-width:8.64"/>
	<line x1="3149.07" y1="959.34" x2="3159.09" y2="959.34" style="stroke:#808080;stroke-width:8.64"/>
	<line x1="3159.09" y1="959.34" x2="3159.09" y2="951.17" style="stroke:#808080;stroke-width:8.64"/>
	<line x1="3159.09" y1="951.17" x2="3176.29" y2="951.17" style="stroke:#808080;stroke-width:8.64"/>
	<line x1="3176.29" y1="951.17" x2="3176.29" y2="946.22" style="stroke:#808080;stroke-width:8.64"/>
	<line x1="3190.40" y1="943.13" x2="3193.49" y2="943.13" style="stroke:#808080;stroke-width:8.64"/>
	<line x1="3193.49" y1="943.13" x2="3193.49" y2="934.96" style="stroke:#808080;stroke-width:8.64"/>
	<line x1="3193.49" y1="934.96" x2="3210.69" y2="934.96" style="stroke:#808080;stroke-width:8.64"/>
	<line x1="3210.69" y1="934.96" x2="3210.69" y2="926.92" style="stroke:#808080;stroke-width:8.64"/>
	<line x1="3210.69" y1="926.92" x2="3214.53" y2="926.92" style="stroke:#808080;stroke-width:8.64"/>
	<line x1="3227.89" y1="923.08" x2="3227.89" y2="918.87" style="stroke:#808080;stroke-width:8.64"/>
	<line x1="3227.89" y1="918.87" x2="3245.10" y2="918.87" style="stroke:#808080;stroke-width:8.64"/>
	<line x1="3245.10" y1="918.87" x2="3245.10" y2="910.83" style="stroke:#808080;stroke-width:8.64"/>
	<line x1="3245.10" y1="910.83" x2="3255.99" y2="910.83" style="stroke:#808080;stroke-width:8.64"/>
	<line x1="3265.27" y1="902.78" x2="3279.50" y2="902.78" style="stroke:#808080;stroke-width:8.64"/>
	<line x1="3279.50" y1="902.78" x2="3279.50" y2="894.74" style="stroke:#808080;stroke-width:8.64"/>
	<line x1="3279.50" y1="894.74" x2="3296.58" y2="894.74" style="stroke:#808080;stroke-width:8.64"/>
	<line x1="3296.58" y1="894.74" x2="3296.58" y2="893.75" style="stroke:#808080;stroke-width:8.64"/>
	<line x1="3306.85" y1="886.82" x2="3313.78" y2="886.82" style="stroke:#808080;stroke-width:8.64"/>
	<line x1="3313.78" y1="886.82" x2="3313.78" y2="878.78" style="stroke:#808080;stroke-width:8.64"/>
	<line x1="3313.78" y1="878.78" x2="3330.98" y2="878.78" style="stroke:#808080;stroke-width:8.64"/>
	<line x1="3330.98" y1="878.78" x2="3330.98" y2="870.86" style="stroke:#808080;stroke-width:8.64"/>
	<line x1="3330.98" y1="870.86" x2="3331.23" y2="870.86" style="stroke:#808080;stroke-width:8.64"/>
	<line x1="3348.18" y1="870.61" x2="3348.18" y2="862.81" style="stroke:#808080;stroke-width:8.64"/>
	<line x1="3348.18" y1="862.81" x2="3365.38" y2="862.81" style="stroke:#808080;stroke-width:8.64"/>
	<line x1="3365.38" y1="862.81" x2="3365.38" y2="854.89" style="stroke:#808080;stroke-width:8.64"/>
	<line x1="3365.38" y1="854.89" x2="3372.81" y2="854.89" style="stroke:#808080;stroke-width:8.64"/>
	<line x1="3382.58" y1="847.47" x2="3382.58" y2="846.97" style="stroke:#808080;stroke-width:8.64"/>
	<line x1="3382.58" y1="846.97" x2="3399.78" y2="846.97" style="stroke:#808080;stroke-width:8.64"/>
	<line x1="3399.78" y1="846.97" x2="3399.78" y2="839.05" style="stroke:#808080;stroke-width:8.64"/>
	<line x1="3399.78" y1="839.05" x2="3414.51" y2="839.05" style="stroke:#808080;stroke-width:8.64"/>
	<line x1="3423.91" y1="831.13" x2="3434.19" y2="831.13" style="stroke:#808080;stroke-width:8.64"/>
	<line x1="3434.19" y1="831.13" x2="3434.19" y2="823.21" style="stroke:#808080;stroke-width:8.64"/>
	<line x1="3434.19" y1="823.21" x2="3451.39" y2="823.21" style="stroke:#808080;stroke-width:8.64"/>
	<line x1="3451.39" y1="823.21" x2="3451.39" y2="818.38" style="stroke:#808080;stroke-width:8.64"/>
	<line x1="3465.74" y1="815.41" x2="3468.59" y2="815.41" style="stroke:#808080;stroke-width:8.64"/>
	<line x1="3468.59" y1="815.41" x2="3468.59" y2="807.49" style="stroke:#808080;stroke-width:8.64"/>
	<line x1="3468.59" y1="807.49" x2="3485.79" y2="807.49" style="stroke:#808080;stroke-width:8.64"/>
	<line x1="3485.79" y1="807.49" x2="3485.79" y2="799.57" style="stroke:#808080;stroke-width:8.64"/>
	<line x1="3485.79" y1="799.57" x2="3490.24" y2="799.57" style="stroke:#808080;stroke-width:8.64"/>
	<line x1="3502.99" y1="795.12" x2="3502.99" y2="791.78" style="stroke:#808080;stroke-width:8.64"/>
	<line x1="3502.99" y1="791.78" x2="3520.19" y2="791.78" style="stroke:#808080;stroke-width:8.64"/>
	<line x1="3520.19" y1="791.78" x2="3520.19" y2="783.98" style="stroke:#808080;stroke-width:8.64"/>
	<line x1="3520.19" y1="783.98" x2="3532.20" y2="783.98" style="stroke:#808080;stroke-width:8.64"/>
	<line x1="3541.60" y1="776.18" x2="3554.47" y2="776.18" style="stroke:#808080;stroke-width:8.64"/>
	<line x1="3554.47" y1="776.18" x2="3554.47" y2="768.26" style="stroke:#808080;stroke-width:8.64"/>
	<line x1="3554.47" y1="768.26" x2="3571.67" y2="768.26" style="stroke:#808080;stroke-width:8.64"/>
	<line x1="3571.67" y1="768.26" x2="3571.67" y2="765.91" style="stroke:#808080;stroke-width:8.64"/>
	<line x1="3583.55" y1="760.47" x2="3588.87" y2="760.47" style="stroke:#808080;stroke-width:8.64"/>
	<line x1="3588.87" y1="760.47" x2="3588.87" y2="752.67" style="stroke:#808080;stroke-width:8.64"/>
	<line x1="3588.87" y1="752.67" x2="3606.07" y2="752.67" style="stroke:#808080;stroke-width:8.64"/>
	<line x1="3606.07" y1="752.67" x2="3606.07" y2="745.00" style="stroke:#808080;stroke-width:8.64"/>
	<line x1="3606.07" y1="745.00" x2="3608.30" y2="745.00" style="stroke:#808080;stroke-width:8.64"/>
	<line x1="3623.28" y1="742.65" x2="3623.28" y2="737.20" style="stroke:#808080;stroke-width:8.64"/>
	<line x1="3623.28" y1="737.20" x2="3640.48" y2="737.20" style="stroke:#808080;stroke-width:8.64"/>
	<line x1="3640.48" y1="737.20" x2="3640.48" y2="729.41" style="stroke:#808080;stroke-width:8.64"/>
	<line x1="3640.48" y1="729.41" x2="3650.38" y2="729.41" style="stroke:#808080;stroke-width:8.64"/>
	<line x1="3659.91" y1="721.73" x2="3674.88" y2="721.73" style="stroke:#808080;stroke-width:8.64"/>
	<line x1="3674.88" y1="721.73" x2="3674.88" y2="713.94" style="stroke:#808080;stroke-width:8.64"/>
	<line x1="3674.88" y1="713.94" x2="3692.08" y2="713.94" style="stroke:#808080;stroke-width:8.64"/>
	<line x1="3692.08" y1="713.94" x2="3692.08" y2="713.56" style="stroke:#808080;stroke-width:8.64"/>
	<line x1="3701.98" y1="706.26" x2="3709.28" y2="706.26" style="stroke:#808080;stroke-width:8.64"/>
	<line x1="3709.28" y1="706.26" x2="3709.28" y2="698.47" style="stroke:#808080;stroke-width:8.64"/>
	<line x1="3709.28" y1="698.47" x2="3726.48" y2="698.47" style="stroke:#808080;stroke-width:8.64"/>
	<line x1="3726.48" y1="698.47" x2="3726.48" y2="690.79" style="stroke:#808080;stroke-width:8.64"/>
	<line x1="3726.48" y1="690.79" x2="3726.86" y2="690.79" style="stroke:#808080;stroke-width:8.64"/>
	<line x1="3743.68" y1="690.30" x2="3743.68" y2="683.12" style="stroke:#808080;stroke-width:8.64"/>
	<line x1="3743.68" y1="683.12" x2="3760.89" y2="683.12" style="stroke:#808080;stroke-width:8.64"/>
	<line x1="3760.89" y1="683.12" x2="3760.89" y2="675.45" style="stroke:#808080;stroke-width:8.64"/>
	<line x1="3760.89" y1="675.45" x2="3769.05" y2="675.45" style="stroke:#808080;stroke-width:8.64"/>
	<line x1="3778.58" y1="667.78" x2="3795.16" y2="667.78" style="stroke:#808080;stroke-width:8.64"/>
	<line x1="3795.16" y1="667.78" x2="3795.16" y2="660.10" style="stroke:#808080;stroke-width:8.64"/>
	<path d="" stroke-linejoin="round" style="fill:none;stroke:#808080;stroke-width:8.64"/>
	<path d=" M717.75 2327.81 L734.95 2327.81 L734.95 2315.19 L752.15 2315.19 L752.15 2302.81 L769.35 2302.81 L769.35 2290.31 L786.55 2290.31 L786.55 2278.06 L803.76 2278.06 L803.76 2265.69 L820.96 2265.69 L820.96 2253.56 L838.16 2253.56 L838.16 2241.43 L855.36 2241.43 L855.36 2229.30 L872.56 2229.30 L872.56 2217.30 L889.76 2217.30 L889.76 2205.29 L906.84 2205.29 L906.84 2193.41 L924.04 2193.41 L924.04 2181.66 L941.24 2181.66 L941.24 2169.90 L958.44 2169.90 L958.44 2158.14 L975.64 2158.14 L975.64 2146.51 L992.85 2146.51 L992.85 2135.00 L1010.05 2135.00 L1010.05 2123.49 L1027.25 2123.49 L1027.25 2111.98 L1044.45 2111.98 L1044.45 2100.60 L1061.65 2100.60 L1061.65 2089.21 L1078.85 2089.21 L1078.85 2077.95 L1096.05 2077.95 L1096.05 2066.69 L1113.26 2066.69 L1113.26 2055.55 L1130.46 2055.55 L1130.46 2044.41 L1147.53 2044.41 L1147.53 2033.28 L1164.73 2033.28 L1164.73 2022.26 L1181.94 2022.26 L1181.94 2011.25 L1199.14 2011.25 L1199.14 2000.36 L1216.34 2000.36 L1216.34 1989.47 L1233.54 1989.47 L1233.54 1978.58 L1250.74 1978.58 L1250.74 1967.81 L1267.94 1967.81 L1267.94 1957.04 L1285.14 1957.04 L1285.14 1946.28 L1302.35 1946.28 L1302.35 1935.63 L1319.55 1935.63 L1319.55 1924.99 L1336.75 1924.99 L1336.75 1914.47 L1353.95 1914.47 L1353.95 1903.95 L1371.15 1903.95 L1371.15 1893.43 L1388.23 1893.43 L1388.23 1882.92 L1405.43 1882.92 L1405.43 1872.52 L1422.63 1872.52 L1422.63 1862.12 L1439.83 1862.12 L1439.83 1851.85 L1457.03 1851.85 L1457.03 1841.46 L1474.23 1841.46 L1474.23 1831.19 L1491.43 1831.19 L1491.43 1821.04 L1508.64 1821.04 L1508.64 1810.77 L1525.84 1810.77 L1525.84 1800.62 L1543.04 1800.62 L1543.04 1790.47 L1560.24 1790.47 L1560.24 1780.45 L1577.44 1780.45 L1577.44 1770.42 L1594.64 1770.42 L1594.64 1760.40 L1611.84 1760.40 L1611.84 1750.37 L1628.92 1750.37 L1628.92 1740.35 L1646.12 1740.35 L1646.12 1730.45 L1663.32 1730.45 L1663.32 1720.55 L1680.53 1720.55 L1680.53 1710.77 L1697.73 1710.77 L1697.73 1700.87 L1714.93 1700.87 L1714.93 1691.10 L1732.13 1691.10 L1732.13 1681.32 L1749.33 1681.32 L1749.33 1671.67 L1766.53 1671.67 L1766.53 1661.89 L1783.73 1661.89 L1783.73 1652.24 L1800.93 1652.24 L1800.93 1642.59 L1818.13 1642.59 L1818.13 1633.06 L1835.34 1633.06 L1835.34 1623.40 L1852.54 1623.40 L1852.54 1613.87 L1869.62 1613.87 L1869.62 1604.35 L1886.82 1604.35 L1886.82 1594.82 L1904.02 1594.82 L1904.02 1585.29 L1921.22 1585.29 L1921.22 1575.88 L1938.42 1575.88 L1938.42 1566.48 L1955.62 1566.48 L1955.62 1557.07 L1972.82 1557.07 L1972.82 1547.67 L1990.02 1547.67 L1990.02 1538.26 L2007.22 1538.26 L2007.22 1528.98 L2024.43 1528.98 L2024.43 1519.70 L2041.63 1519.70 L2041.63 1510.42 L2058.83 1510.42 L2058.83 1501.13 L2076.03 1501.13 L2076.03 1491.85 L2093.23 1491.85 L2093.23 1482.70 L2110.31 1482.70 L2110.31 1473.54 L2127.51 1473.54 L2127.51 1464.38 L2144.71 1464.38 L2144.71 1455.22 L2161.91 1455.22 L2161.91 1446.06 L2179.11 1446.06 L2179.11 1437.03 L2196.32 1437.03 L2196.32 1427.87 L2213.52 1427.87 L2213.52 1418.84 L2230.72 1418.84 L2230.72 1409.80 L2247.92 1409.80 L2247.92 1400.89 L2265.12 1400.89 L2265.12 1391.86 L2282.32 1391.86 L2282.32 1382.95 L2299.52 1382.95 L2299.52 1373.92 L2316.72 1373.92 L2316.72 1365.01 L2333.93 1365.01 L2333.93 1356.09 L2351.00 1356.09 L2351.00 1347.31 L2368.20 1347.31 L2368.20 1338.40 L2385.41 1338.40 L2385.41 1329.61 L2402.61 1329.61 L2402.61 1320.70 L2419.81 1320.70 L2419.81 1311.91 L2437.01 1311.91 L2437.01 1303.13 L2454.21 1303.13 L2454.21 1294.47 L2471.41 1294.47 L2471.41 1285.68 L2488.61 1285.68 L2488.61 1277.02 L2505.81 1277.02 L2505.81 1268.23 L2523.01 1268.23 L2523.01 1259.57 L2540.22 1259.57 L2540.22 1250.90 L2557.42 1250.90 L2557.42 1242.24 L2574.62 1242.24 L2574.62 1233.58 L2591.70 1233.58 L2591.70 1225.04 L2608.90 1225.04 L2608.90 1216.38 L2626.10 1216.38 L2626.10 1207.84 L2643.30 1207.84 L2643.30 1199.30 L2660.50 1199.30 L2660.50 1190.76 L2677.70 1190.76 L2677.70 1182.22 L2694.90 1182.22 L2694.90 1173.68 L2712.11 1173.68 L2712.11 1165.14 L2729.31 1165.14 L2729.31 1156.73 L2746.51 1156.73 L2746.51 1148.19 L2763.71 1148.19 L2763.71 1139.77 L2780.91 1139.77 L2780.91 1131.36 L2798.11 1131.36 L2798.11 1122.94 L2815.31 1122.94 L2815.31 1114.53 L2832.39 1114.53 L2832.39 1106.11 L2849.59 1106.11 L2849.59 1097.82 L2866.79 1097.82 L2866.79 1089.41 L2883.99 1089.41 L2883.99 1081.11 L2901.20 1081.11 L2901.20 1072.70 L2918.40 1072.70 L2918.40 1064.41 L2935.60 1064.41 L2935.60 1056.12 L2952.80 1056.12 L2952.80 1047.82 L2970.00 1047.82 L2970.00 1039.66 L2987.20 1039.66 L2987.20 1031.36 L3004.40 1031.36 L3004.40 1023.07 L3021.60 1023.07 L3021.60 1014.91 L3038.80 1014.91 L3038.80 1006.74 L3055.88 1006.74 L3055.88 998.57 L3073.08 998.57 L3073.08 990.28 L3090.28 990.28 L3090.28 982.11 L3107.49 982.11 L3107.49 974.07 L3124.69 974.07 L3124.69 965.90 L3141.89 965.90 L3141.89 957.73 L3159.09 957.73 L3159.09 949.69 L3176.29 949.69 L3176.29 941.52 L3193.49 941.52 L3193.49 933.48 L3210.69 933.48 L3210.69 925.43 L3227.89 925.43 L3227.89 917.39 L3245.10 917.39 L3245.10 909.34 L3262.30 909.34 L3262.30 901.30 L3279.50 901.30 L3279.50 893.26 L3296.58 893.26 L3296.58 885.21 L3313.78 885.21 L3313.78 877.29 L3330.98 877.29 L3330.98 869.25 L3348.18 869.25 L3348.18 861.33 L3365.38 861.33 L3365.38 853.41 L3382.58 853.41 L3382.58 845.36 L3399.78 845.36 L3399.78 837.44 L3416.99 837.44 L3416.99 829.52 L3434.19 829.52 L3434.19 821.60 L3451.39 821.60 L3451.39 813.81 L3468.59 813.81 L3468.59 805.89 L3485.79 805.89 L3485.79 797.96 L3502.99 797.96 L3502.99 790.17 L3520.19 790.17 L3520.19 782.25 L3537.27 782.25 L3537.27 774.45 L3554.47 774.45 L3554.47 766.66 L3571.67 766.66 L3571.67 758.86 L3588.87 758.86 L3588.87 751.06 L3606.07 751.06 L3606.07 743.27 L3623.28 743.27 L3623.28 735.47 L3640.48 735.47 L3640.48 727.67 L3657.68 727.67 L3657.68 719.88 L3674.88 719.88 L3674.88 712.20 L3692.08 712.20 L3692.08 704.41 L3709.28 704.41 L3709.28 696.73 L3726.48 696.73 L3726.48 689.06 L3743.68 689.06 L3743.68 681.27 L3760.89 681.27 L3760.89 673.59 L3777.96 673.59 L3777.96 665.92 L3795.16 665.92 L3795.16 658.25" stroke-linejoin="round" style="fill:none;stroke:#000000;stroke-width:8.64"/>
	<line x1="495.00" y1="2509.23" x2="495.00" y2="419.90" style="stroke:#000000;stroke-width:5.76"/>
	<line x1="495.00" y1="2445.87" x2="454.90" y2="2445.87" style="stroke:#000000;stroke-width:5.76"/>
	<text x="434.98" y="2480.90" style="font-family:'Helvetica';font-size:99.99px;fill:#000000" text-anchor="end">0</text>
	<line x1="495.00" y1="2327.07" x2="454.90" y2="2327.07" style="stroke:#000000;stroke-width:5.76"/>
	<text x="434.98" y="2362.10" style="font-family:'Helvetica';font-size:99.99px;fill:#000000" text-anchor="end">90</text>
	<line x1="495.00" y1="2208.26" x2="454.90" y2="2208.26" style="stroke:#000000;stroke-width:5.76"/>
	<text x="434.98" y="2243.29" style="font-family:'Helvetica';font-size:99.99px;fill:#000000" text-anchor="end">180</text>
	<line x1="495.00" y1="2089.58" x2="454.90" y2="2089.58" style="stroke:#000000;stroke-width:5.76"/>
	<text x="434.98" y="2124.61" style="font-family:'Helvetica';font-size:99.99px;fill:#000000" text-anchor="end">270</text>
	<line x1="495.00" y1="1970.78" x2="454.90" y2="1970.78" style="stroke:#000000;stroke-width:5.76"/>
	<text x="434.98" y="2005.81" style="font-family:'Helvetica';font-size:99.99px;fill:#000000" text-anchor="end">360</text>
	<line x1="495.00" y1="1851.98" x2="454.90" y2="1851.98" style="stroke:#000000;stroke-width:5.76"/>
	<text x="434.98" y="1887.01" style="font-family:'Helvetica';font-size:99.99px;fill:#000000" text-anchor="end">450</text>
	<line x1="495.00" y1="1733.30" x2="454.90" y2="1733.30" style="stroke:#000000;stroke-width:5.76"/>
	<text x="434.98" y="1768.33" style="font-family:'Helvetica';font-size:99.99px;fill:#000000" text-anchor="end">540</text>
	<text x="190.71" y="1464.63" style="font-family:'Helvetica';font-size:99.99px;fill:#000000" transform="rotate(-90 190.71,1464.63)" text-anchor="middle">LOS (years)</text>
	<line x1="495.00" y1="2509.23" x2="3859.02" y2="2509.23" style="stroke:#000000;stroke-width:5.76"/>
	<line x1="558.36" y1="2509.23" x2="558.36" y2="2549.21" style="stroke:#000000;stroke-width:5.76"/>
	<text x="558.36" y="2625.15" style="font-family:'Helvetica';font-size:79.94px;fill:#000000" text-anchor="middle">0</text>
	<line x1="752.52" y1="2509.23" x2="752.52" y2="2549.21" style="stroke:#000000;stroke-width:5.76"/>
	<text x="752.52" y="2625.15" style="font-family:'Helvetica';font-size:79.94px;fill:#000000" text-anchor="middle">.3</text>
	<line x1="946.81" y1="2509.23" x2="946.81" y2="2549.21" style="stroke:#000000;stroke-width:5.76"/>
	<text x="946.81" y="2625.15" style="font-family:'Helvetica';font-size:79.94px;fill:#000000" text-anchor="middle">.6</text>
	<line x1="1141.10" y1="2509.23" x2="1141.10" y2="2549.21" style="stroke:#000000;stroke-width:5.76"/>
	<text x="1141.10" y="2625.15" style="font-family:'Helvetica';font-size:79.94px;fill:#000000" text-anchor="middle">.9</text>
	<line x1="1335.26" y1="2509.23" x2="1335.26" y2="2549.21" style="stroke:#000000;stroke-width:5.76"/>
	<text x="1335.26" y="2625.15" style="font-family:'Helvetica';font-size:79.94px;fill:#000000" text-anchor="middle">1.2</text>
	<line x1="1529.55" y1="2509.23" x2="1529.55" y2="2549.21" style="stroke:#000000;stroke-width:5.76"/>
	<text x="1529.55" y="2625.15" style="font-family:'Helvetica';font-size:79.94px;fill:#000000" text-anchor="middle">1.5</text>
	<line x1="1723.71" y1="2509.23" x2="1723.71" y2="2549.21" style="stroke:#000000;stroke-width:5.76"/>
	<text x="1723.71" y="2625.15" style="font-family:'Helvetica';font-size:79.94px;fill:#000000" text-anchor="middle">1.8</text>
	<line x1="1918.00" y1="2509.23" x2="1918.00" y2="2549.21" style="stroke:#000000;stroke-width:5.76"/>
	<text x="1918.00" y="2625.15" style="font-family:'Helvetica';font-size:79.94px;fill:#000000" text-anchor="middle">2.1</text>
	<line x1="2112.29" y1="2509.23" x2="2112.29" y2="2549.21" style="stroke:#000000;stroke-width:5.76"/>
	<text x="2112.29" y="2625.15" style="font-family:'Helvetica';font-size:79.94px;fill:#000000" text-anchor="middle">2.4</text>
	<line x1="2306.45" y1="2509.23" x2="2306.45" y2="2549.21" style="stroke:#000000;stroke-width:5.76"/>
	<text x="2306.45" y="2625.15" style="font-family:'Helvetica';font-size:79.94px;fill:#000000" text-anchor="middle">2.7</text>
	<line x1="2500.74" y1="2509.23" x2="2500.74" y2="2549.21" style="stroke:#000000;stroke-width:5.76"/>
	<text x="2500.74" y="2625.15" style="font-family:'Helvetica';font-size:79.94px;fill:#000000" text-anchor="middle">3</text>
	<line x1="2695.03" y1="2509.23" x2="2695.03" y2="2549.21" style="stroke:#000000;stroke-width:5.76"/>
	<text x="2695.03" y="2625.15" style="font-family:'Helvetica';font-size:79.94px;fill:#000000" text-anchor="middle">3.3</text>
	<line x1="2889.19" y1="2509.23" x2="2889.19" y2="2549.21" style="stroke:#000000;stroke-width:5.76"/>
	<text x="2889.19" y="2625.15" style="font-family:'Helvetica';font-size:79.94px;fill:#000000" text-anchor="middle">3.6</text>
	<line x1="3083.48" y1="2509.23" x2="3083.48" y2="2549.21" style="stroke:#000000;stroke-width:5.76"/>
	<text x="3083.48" y="2625.15" style="font-family:'Helvetica';font-size:79.94px;fill:#000000" text-anchor="middle">3.9</text>
	<line x1="3277.77" y1="2509.23" x2="3277.77" y2="2549.21" style="stroke:#000000;stroke-width:5.76"/>
	<text x="3277.77" y="2625.15" style="font-family:'Helvetica';font-size:79.94px;fill:#000000" text-anchor="middle">4.2</text>
	<line x1="3471.93" y1="2509.23" x2="3471.93" y2="2549.21" style="stroke:#000000;stroke-width:5.76"/>
	<text x="3471.93" y="2625.15" style="font-family:'Helvetica';font-size:79.94px;fill:#000000" text-anchor="middle">4.5</text>
	<line x1="3666.22" y1="2509.23" x2="3666.22" y2="2549.21" style="stroke:#000000;stroke-width:5.76"/>
	<text x="3666.22" y="2625.15" style="font-family:'Helvetica';font-size:79.94px;fill:#000000" text-anchor="middle">4.8</text>
	<line x1="3860.51" y1="2509.23" x2="3860.51" y2="2549.21" style="stroke:#000000;stroke-width:5.76"/>
	<text x="3860.51" y="2625.15" style="font-family:'Helvetica';font-size:79.94px;fill:#000000" text-anchor="middle">5.1</text>
	<text x="2177.01" y="2729.16" style="font-family:'Helvetica';font-size:99.99px;fill:#000000" text-anchor="middle">Time (years)</text>
	<rect x="529.53" y="454.42" width="1384.02" height="606.39" style="fill:#FFFFFF"/>
	<rect x="532.41" y="457.30" width="1378.26" height="600.63" style="fill:none;stroke:#000000;stroke-width:5.76"/>
	<rect x="572.72" y="497.74" width="374.34" height="99.99" style="fill:#999999;fill-opacity:0.35"/>
	<rect x="577.03" y="502.06" width="365.70" height="91.35" style="fill:none;stroke:#808080;stroke-opacity:0.35;stroke-width:8.64"/>
	<rect x="572.72" y="637.70" width="374.34" height="99.99" style="fill:#333333;fill-opacity:0.35"/>
	<rect x="577.03" y="642.02" width="365.70" height="91.35" style="fill:none;stroke:#000000;stroke-opacity:0.35;stroke-width:8.64"/>
	<line x1="572.72" y1="827.67" x2="613.06" y2="827.67" style="stroke:#808080;stroke-width:8.64"/>
	<line x1="630.26" y1="827.67" x2="670.60" y2="827.67" style="stroke:#808080;stroke-width:8.64"/>
	<line x1="687.93" y1="827.67" x2="728.27" y2="827.67" style="stroke:#808080;stroke-width:8.64"/>
	<line x1="745.47" y1="827.67" x2="785.81" y2="827.67" style="stroke:#808080;stroke-width:8.64"/>
	<line x1="803.01" y1="827.67" x2="843.36" y2="827.67" style="stroke:#808080;stroke-width:8.64"/>
	<line x1="860.56" y1="827.67" x2="900.90" y2="827.67" style="stroke:#808080;stroke-width:8.64"/>
	<line x1="918.23" y1="827.67" x2="947.06" y2="827.67" style="stroke:#808080;stroke-width:8.64"/>
	<line x1="572.72" y1="967.63" x2="947.06" y2="967.63" style="stroke:#000000;stroke-width:8.64"/>
	<text x="1007.08" y="582.76" style="font-family:'Helvetica';font-size:99.99px;fill:#000000">Ambulatory CI95%</text>
	<text x="1007.08" y="722.73" style="font-family:'Helvetica';font-size:99.99px;fill:#000000">Residential CI95%</text>
	<text x="1007.08" y="862.69" style="font-family:'Helvetica';font-size:99.99px;fill:#000000">Ambulatory</text>
	<text x="1007.08" y="1002.66" style="font-family:'Helvetica';font-size:99.99px;fill:#000000">Residential</text>
	<text x="2177.01" y="369.63" style="font-family:'Helvetica';font-size:110.01px;fill:#000000" text-anchor="middle">in Second Readmission (TC)</text>
	<text x="2177.01" y="215.98" style="font-family:'Helvetica';font-size:139.96px;fill:#1E2D53" text-anchor="middle">Length of Stay(3y)</text>
</svg>
