<?xml version="1.0" encoding="UTF-8" standalone="no"?>
<!-- This is a Stata 16.1 generated SVG file (http://www.stata.com) -->

<svg version="1.1" width="5.50in" height="4.00in" viewBox="0 0 3960 2880" xmlns="http://www.w3.org/2000/svg" xmlns:xlink="http://www.w3.org/1999/xlink">
	<desc>Stata Graph - los_models_66_3y_rp_22</desc>
	<rect x="0" y="0" width="3960" height="2880" style="fill:#EAF2F3;stroke:none"/>
	<rect x="0.00" y="0.00" width="3959.88" height="2880.00" style="fill:#FFFFFF"/>
	<rect x="2.88" y="2.88" width="3954.12" height="2874.24" style="fill:none;stroke:#FFFFFF;stroke-width:5.76"/>
	<rect x="495.00" y="419.90" width="3364.02" height="2089.34" style="fill:#FFFFFF"/>
	<rect x="497.88" y="422.78" width="3358.26" height="2083.58" style="fill:none;stroke:#FFFFFF;stroke-width:5.76"/>
	<line x1="495.00" y1="2331.28" x2="3859.02" y2="2331.28" style="stroke:#EAF2F3;stroke-width:8.64"/>
	<line x1="495.00" y1="2216.68" x2="3859.02" y2="2216.68" style="stroke:#EAF2F3;stroke-width:8.64"/>
	<line x1="495.00" y1="2102.08" x2="3859.02" y2="2102.08" style="stroke:#EAF2F3;stroke-width:8.64"/>
	<line x1="495.00" y1="1987.49" x2="3859.02" y2="1987.49" style="stroke:#EAF2F3;stroke-width:8.64"/>
	<line x1="495.00" y1="1872.89" x2="3859.02" y2="1872.89" style="stroke:#EAF2F3;stroke-width:8.64"/>
	<line x1="495.00" y1="1758.29" x2="3859.02" y2="1758.29" style="stroke:#EAF2F3;stroke-width:8.64"/>
	<defs>
		<path id="path_nBsuADLw" d="M717.87 2332.27 L717.87 2332.27 L735.08 2332.27 L735.08 2320.26 L752.28 2320.26 L752.28 2308.38 L769.48 2308.38 L769.48 2296.50 L786.55 2296.50 L786.55 2284.74 L803.76 2284.74 L803.76 2272.99 L820.96 2272.99 L820.96 2261.35 L838.16 2261.35 L838.16 2249.85 L855.36 2249.85 L855.36 2238.46 L872.56 2238.46 L872.56 2227.07 L889.76 2227.07 L889.76 2215.81 L906.96 2215.81 L906.96 2204.55 L924.16 2204.55 L924.16 2193.41 L941.37 2193.41 L941.37 2182.40 L958.57 2182.40 L958.57 2171.39 L975.77 2171.39 L975.77 2160.50 L992.97 2160.50 L992.97 2149.60 L1010.17 2149.60 L1010.17 2138.84 L1027.25 2138.84 L1027.25 2128.07 L1044.45 2128.07 L1044.45 2117.43 L1061.65 2117.43 L1061.65 2106.91 L1078.85 2106.91 L1078.85 2096.27 L1096.05 2096.27 L1096.05 2085.75 L1113.26 2085.75 L1113.26 2075.35 L1130.46 2075.35 L1130.46 2064.96 L1147.66 2064.96 L1147.66 2054.56 L1164.86 2054.56 L1164.86 2044.29 L1182.06 2044.29 L1182.06 2034.02 L1199.26 2034.02 L1199.26 2023.75 L1216.46 2023.75 L1216.46 2013.60 L1233.66 2013.60 L1233.66 2003.45 L1250.87 2003.45 L1250.87 1993.43 L1267.94 1993.43 L1267.94 1983.28 L1285.14 1983.28 L1285.14 1973.38 L1302.35 1973.38 L1302.35 1963.48 L1319.55 1963.48 L1319.55 1953.58 L1336.75 1953.58 L1336.75 1943.68 L1353.95 1943.68 L1353.95 1933.90 L1371.15 1933.90 L1371.15 1924.13 L1388.35 1924.13 L1388.35 1914.47 L1405.55 1914.47 L1405.55 1904.82 L1422.75 1904.82 L1422.75 1895.29 L1439.95 1895.29 L1439.95 1885.76 L1457.16 1885.76 L1457.16 1876.23 L1474.36 1876.23 L1474.36 1866.95 L1491.56 1866.95 L1491.56 1857.55 L1508.64 1857.55 L1508.64 1848.26 L1525.84 1848.26 L1525.84 1838.98 L1543.04 1838.98 L1543.04 1829.82 L1560.24 1829.82 L1560.24 1820.67 L1577.44 1820.67 L1577.44 1811.63 L1594.64 1811.63 L1594.64 1802.60 L1611.84 1802.60 L1611.84 1793.69 L1629.05 1793.69 L1629.05 1784.78 L1646.25 1784.78 L1646.25 1775.99 L1663.45 1775.99 L1663.45 1767.21 L1680.65 1767.21 L1680.65 1758.42 L1697.85 1758.42 L1697.85 1749.76 L1715.05 1749.76 L1715.05 1741.09 L1732.25 1741.09 L1732.25 1732.55 L1749.33 1732.55 L1749.33 1724.02 L1766.53 1724.02 L1766.53 1715.48 L1783.73 1715.48 L1783.73 1707.06 L1800.93 1707.06 L1800.93 1698.77 L1818.13 1698.77 L1818.13 1690.35 L1835.34 1690.35 L1835.34 1682.06 L1852.54 1682.06 L1852.54 1673.89 L1869.74 1673.89 L1869.74 1665.73 L1886.94 1665.73 L1886.94 1657.56 L1904.14 1657.56 L1904.14 1649.52 L1921.34 1649.52 L1921.34 1641.47 L1938.54 1641.47 L1938.54 1633.43 L1955.74 1633.43 L1955.74 1625.51 L1972.95 1625.51 L1972.95 1617.59 L1990.02 1617.59 L1990.02 1609.67 L2007.22 1609.67 L2007.22 1601.87 L2024.43 1601.87 L2024.43 1594.07 L2041.63 1594.07 L2041.63 1586.28 L2058.83 1586.28 L2058.83 1578.60 L2076.03 1578.60 L2076.03 1570.93 L2093.23 1570.93 L2093.23 1563.26 L2110.43 1563.26 L2110.43 1555.59 L2127.63 1555.59 L2127.63 1548.04 L2144.84 1548.04 L2144.84 1540.49 L2162.04 1540.49 L2162.04 1532.94 L2179.24 1532.94 L2179.24 1525.51 L2196.44 1525.51 L2196.44 1517.96 L2213.64 1517.96 L2213.64 1510.54 L2230.72 1510.54 L2230.72 1503.11 L2247.92 1503.11 L2247.92 1495.81 L2265.12 1495.81 L2265.12 1488.39 L2282.32 1488.39 L2282.32 1481.09 L2299.52 1481.09 L2299.52 1473.78 L2316.72 1473.78 L2316.72 1466.61 L2333.93 1466.61 L2333.93 1459.31 L2351.13 1459.31 L2351.13 1452.13 L2368.33 1452.13 L2368.33 1444.83 L2385.53 1444.83 L2385.53 1437.65 L2402.73 1437.65 L2402.73 1430.47 L2419.93 1430.47 L2419.93 1423.42 L2437.13 1423.42 L2437.13 1416.24 L2454.33 1416.24 L2454.33 1409.19 L2471.41 1409.19 L2471.41 1402.13 L2488.61 1402.13 L2488.61 1395.08 L2505.81 1395.08 L2505.81 1388.02 L2523.01 1388.02 L2523.01 1380.97 L2540.22 1380.97 L2540.22 1374.04 L2557.42 1374.04 L2557.42 1366.99 L2574.62 1366.99 L2574.62 1360.06 L2591.82 1360.06 L2591.82 1353.12 L2609.02 1353.12 L2609.02 1346.19 L2626.22 1346.19 L2626.22 1339.26 L2643.42 1339.26 L2643.42 1332.46 L2660.63 1332.46 L2660.63 1325.53 L2677.83 1325.53 L2677.83 1318.72 L2695.03 1318.72 L2695.03 1311.79 L2712.11 1311.79 L2712.11 1304.98 L2729.31 1304.98 L2729.31 1298.18 L2746.51 1298.18 L2746.51 1291.37 L2763.71 1291.37 L2763.71 1284.69 L2780.91 1284.69 L2780.91 1277.88 L2798.11 1277.88 L2798.11 1271.20 L2815.31 1271.20 L2815.31 1264.39 L2832.51 1264.39 L2832.51 1257.71 L2849.72 1257.71 L2849.72 1251.03 L2866.92 1251.03 L2866.92 1244.35 L2884.12 1244.35 L2884.12 1237.66 L2901.32 1237.66 L2901.32 1230.98 L2918.52 1230.98 L2918.52 1224.30 L2935.72 1224.30 L2935.72 1217.61 L2952.80 1217.61 L2952.80 1211.06 L2970.00 1211.06 L2970.00 1204.37 L2987.20 1204.37 L2987.20 1197.81 L3004.40 1197.81 L3004.40 1191.25 L3021.60 1191.25 L3021.60 1184.70 L3038.80 1184.70 L3038.80 1178.14 L3056.01 1178.14 L3056.01 1171.58 L3073.21 1171.58 L3073.21 1165.02 L3090.41 1165.02 L3090.41 1158.46 L3107.61 1158.46 L3107.61 1151.90 L3124.81 1151.90 L3124.81 1145.47 L3142.01 1145.47 L3142.01 1138.91 L3159.21 1138.91 L3159.21 1132.35 L3176.29 1132.35 L3176.29 1125.91 L3193.49 1125.91 L3193.49 1119.48 L3210.69 1119.48 L3210.69 1113.04 L3227.89 1113.04 L3227.89 1106.48 L3245.10 1106.48 L3245.10 1100.05 L3262.30 1100.05 L3262.30 1093.61 L3279.50 1093.61 L3279.50 1087.18 L3296.70 1087.18 L3296.70 1080.87 L3313.90 1080.87 L3313.90 1074.43 L3331.10 1074.43 L3331.10 1068.00 L3348.30 1068.00 L3348.30 1061.68 L3365.51 1061.68 L3365.51 1055.25 L3382.71 1055.25 L3382.71 1048.94 L3399.91 1048.94 L3399.91 1042.50 L3416.99 1042.50 L3416.99 1036.19 L3434.19 1036.19 L3434.19 1029.88 L3451.39 1029.88 L3451.39 1023.57 L3468.59 1023.57 L3468.59 1017.13 L3485.79 1017.13 L3485.79 1010.82 L3502.99 1010.82 L3502.99 1004.51 L3520.19 1004.51 L3520.19 998.20 L3537.39 998.20 L3537.39 992.01 L3554.59 992.01 L3554.59 985.70 L3571.80 985.70 L3571.80 979.39 L3589.00 979.39 L3589.00 973.08 L3606.20 973.08 L3606.20 966.89 L3623.40 966.89 L3623.40 960.58 L3640.60 960.58 L3640.60 954.39 L3657.68 954.39 L3657.68 948.20 L3674.88 948.20 L3674.88 941.89 L3692.08 941.89 L3692.08 935.70 L3709.28 935.70 L3709.28 929.52 L3726.48 929.52 L3726.48 923.33 L3743.68 923.33 L3743.68 917.02 L3760.89 917.02 L3760.89 910.83 L3778.09 910.83 L3778.09 904.64 L3795.29 904.64 L3795.29 898.58 L3795.29 483.26 L3795.29 492.54 L3778.09 492.54 L3778.09 501.82 L3760.89 501.82 L3760.89 511.10 L3743.68 511.10 L3743.68 520.39 L3726.48 520.39 L3726.48 529.79 L3709.28 529.79 L3709.28 539.07 L3692.08 539.07 L3692.08 548.35 L3674.88 548.35 L3674.88 557.63 L3657.68 557.63 L3657.68 566.92 L3640.60 566.92 L3640.60 576.32 L3623.40 576.32 L3623.40 585.60 L3606.20 585.60 L3606.20 595.01 L3589.00 595.01 L3589.00 604.29 L3571.80 604.29 L3571.80 613.70 L3554.59 613.70 L3554.59 622.98 L3537.39 622.98 L3537.39 632.38 L3520.19 632.38 L3520.19 641.66 L3502.99 641.66 L3502.99 651.07 L3485.79 651.07 L3485.79 660.47 L3468.59 660.47 L3468.59 669.76 L3451.39 669.76 L3451.39 679.16 L3434.19 679.16 L3434.19 688.57 L3416.99 688.57 L3416.99 697.97 L3399.91 697.97 L3399.91 707.38 L3382.71 707.38 L3382.71 716.78 L3365.51 716.78 L3365.51 726.19 L3348.30 726.19 L3348.30 735.59 L3331.10 735.59 L3331.10 745.00 L3313.90 745.00 L3313.90 754.40 L3296.70 754.40 L3296.70 763.81 L3279.50 763.81 L3279.50 773.21 L3262.30 773.21 L3262.30 782.74 L3245.10 782.74 L3245.10 792.15 L3227.89 792.15 L3227.89 801.55 L3210.69 801.55 L3210.69 811.08 L3193.49 811.08 L3193.49 820.49 L3176.29 820.49 L3176.29 830.02 L3159.21 830.02 L3159.21 839.42 L3142.01 839.42 L3142.01 848.95 L3124.81 848.95 L3124.81 858.48 L3107.61 858.48 L3107.61 868.01 L3090.41 868.01 L3090.41 877.41 L3073.21 877.41 L3073.21 886.94 L3056.01 886.94 L3056.01 896.47 L3038.80 896.47 L3038.80 906.00 L3021.60 906.00 L3021.60 915.53 L3004.40 915.53 L3004.40 925.06 L2987.20 925.06 L2987.20 934.59 L2970.00 934.59 L2970.00 944.24 L2952.80 944.24 L2952.80 953.77 L2935.72 953.77 L2935.72 963.30 L2918.52 963.30 L2918.52 972.95 L2901.32 972.95 L2901.32 982.48 L2884.12 982.48 L2884.12 992.13 L2866.92 992.13 L2866.92 1001.66 L2849.72 1001.66 L2849.72 1011.32 L2832.51 1011.32 L2832.51 1020.97 L2815.31 1020.97 L2815.31 1030.50 L2798.11 1030.50 L2798.11 1040.15 L2780.91 1040.15 L2780.91 1049.80 L2763.71 1049.80 L2763.71 1059.46 L2746.51 1059.46 L2746.51 1069.11 L2729.31 1069.11 L2729.31 1078.76 L2712.11 1078.76 L2712.11 1088.54 L2695.03 1088.54 L2695.03 1098.19 L2677.83 1098.19 L2677.83 1107.84 L2660.63 1107.84 L2660.63 1117.62 L2643.42 1117.62 L2643.42 1127.27 L2626.22 1127.27 L2626.22 1137.05 L2609.02 1137.05 L2609.02 1146.83 L2591.82 1146.83 L2591.82 1156.60 L2574.62 1156.60 L2574.62 1166.38 L2557.42 1166.38 L2557.42 1176.16 L2540.22 1176.16 L2540.22 1185.93 L2523.01 1185.93 L2523.01 1195.71 L2505.81 1195.71 L2505.81 1205.49 L2488.61 1205.49 L2488.61 1215.26 L2471.41 1215.26 L2471.41 1225.16 L2454.33 1225.16 L2454.33 1234.94 L2437.13 1234.94 L2437.13 1244.84 L2419.93 1244.84 L2419.93 1254.74 L2402.73 1254.74 L2402.73 1264.52 L2385.53 1264.52 L2385.53 1274.42 L2368.33 1274.42 L2368.33 1284.32 L2351.13 1284.32 L2351.13 1294.22 L2333.93 1294.22 L2333.93 1304.24 L2316.72 1304.24 L2316.72 1314.14 L2299.52 1314.14 L2299.52 1324.04 L2282.32 1324.04 L2282.32 1334.07 L2265.12 1334.07 L2265.12 1344.09 L2247.92 1344.09 L2247.92 1353.99 L2230.72 1353.99 L2230.72 1364.02 L2213.64 1364.02 L2213.64 1374.04 L2196.44 1374.04 L2196.44 1384.19 L2179.24 1384.19 L2179.24 1394.21 L2162.04 1394.21 L2162.04 1404.24 L2144.84 1404.24 L2144.84 1414.38 L2127.63 1414.38 L2127.63 1424.53 L2110.43 1424.53 L2110.43 1434.55 L2093.23 1434.55 L2093.23 1444.70 L2076.03 1444.70 L2076.03 1454.97 L2058.83 1454.97 L2058.83 1465.12 L2041.63 1465.12 L2041.63 1475.27 L2024.43 1475.27 L2024.43 1485.54 L2007.22 1485.54 L2007.22 1495.81 L1990.02 1495.81 L1990.02 1506.08 L1972.95 1506.08 L1972.95 1516.36 L1955.74 1516.36 L1955.74 1526.75 L1938.54 1526.75 L1938.54 1537.15 L1921.34 1537.15 L1921.34 1547.42 L1904.14 1547.42 L1904.14 1557.81 L1886.94 1557.81 L1886.94 1568.33 L1869.74 1568.33 L1869.74 1578.73 L1852.54 1578.73 L1852.54 1589.25 L1835.34 1589.25 L1835.34 1599.77 L1818.13 1599.77 L1818.13 1610.29 L1800.93 1610.29 L1800.93 1620.93 L1783.73 1620.93 L1783.73 1631.57 L1766.53 1631.57 L1766.53 1642.09 L1749.33 1642.09 L1749.33 1652.86 L1732.25 1652.86 L1732.25 1663.50 L1715.05 1663.50 L1715.05 1674.14 L1697.85 1674.14 L1697.85 1684.91 L1680.65 1684.91 L1680.65 1695.68 L1663.45 1695.68 L1663.45 1706.57 L1646.25 1706.57 L1646.25 1717.33 L1629.05 1717.33 L1629.05 1728.22 L1611.84 1728.22 L1611.84 1739.11 L1594.64 1739.11 L1594.64 1750.00 L1577.44 1750.00 L1577.44 1761.02 L1560.24 1761.02 L1560.24 1772.03 L1543.04 1772.03 L1543.04 1783.05 L1525.84 1783.05 L1525.84 1794.06 L1508.64 1794.06 L1508.64 1805.07 L1491.56 1805.07 L1491.56 1816.21 L1474.36 1816.21 L1474.36 1827.35 L1457.16 1827.35 L1457.16 1838.49 L1439.95 1838.49 L1439.95 1849.75 L1422.75 1849.75 L1422.75 1860.89 L1405.55 1860.89 L1405.55 1872.15 L1388.35 1872.15 L1388.35 1883.53 L1371.15 1883.53 L1371.15 1894.80 L1353.95 1894.80 L1353.95 1906.18 L1336.75 1906.18 L1336.75 1917.44 L1319.55 1917.44 L1319.55 1928.95 L1302.35 1928.95 L1302.35 1940.34 L1285.14 1940.34 L1285.14 1951.72 L1267.94 1951.72 L1267.94 1963.23 L1250.87 1963.23 L1250.87 1974.74 L1233.66 1974.74 L1233.66 1986.25 L1216.46 1986.25 L1216.46 1997.76 L1199.26 1997.76 L1199.26 2009.27 L1182.06 2009.27 L1182.06 2020.90 L1164.86 2020.90 L1164.86 2032.53 L1147.66 2032.53 L1147.66 2044.17 L1130.46 2044.17 L1130.46 2055.80 L1113.26 2055.80 L1113.26 2067.43 L1096.05 2067.43 L1096.05 2079.19 L1078.85 2079.19 L1078.85 2090.95 L1061.65 2090.95 L1061.65 2102.70 L1044.45 2102.70 L1044.45 2114.46 L1027.25 2114.46 L1027.25 2126.22 L1010.17 2126.22 L1010.17 2138.10 L992.97 2138.10 L992.97 2149.98 L975.77 2149.98 L975.77 2161.86 L958.57 2161.86 L958.57 2173.74 L941.37 2173.74 L941.37 2185.62 L924.16 2185.62 L924.16 2197.62 L906.96 2197.62 L906.96 2209.63 L889.76 2209.63 L889.76 2221.63 L872.56 2221.63 L872.56 2233.76 L855.36 2233.76 L855.36 2245.76 L838.16 2245.76 L838.16 2257.89 L820.96 2257.89 L820.96 2270.02 L803.76 2270.02 L803.76 2282.27 L786.55 2282.27 L786.55 2294.40 L769.48 2294.40 L769.48 2306.65 L752.28 2306.65 L752.28 2318.90 L735.08 2318.90 L735.08 2331.15 L717.87 2331.15 L717.87 2332.27 Z" stroke-linejoin="round"/>
	</defs>
	<defs>
		<clipPath id="clipPath_bqdPuqBX">
			<use xlink:href="#path_nBsuADLw"/>
		</clipPath>
	</defs>
	<use xlink:href="#path_nBsuADLw" style="stroke:none;fill:#999999;fill-opacity:0.35"/>
	<use xlink:href="#path_nBsuADLw" style="fill:none;stroke:#808080;stroke-opacity:0.35;stroke-width:17.28" clip-path="url(#clipPath_bqdPuqBX)"/>
	<defs>
		<path id="path_nyPGLUEA" d="M717.87 2332.14 L717.87 2332.14 L735.08 2332.14 L735.08 2320.14 L752.28 2320.14 L752.28 2308.13 L769.48 2308.13 L769.48 2296.25 L786.55 2296.25 L786.55 2284.37 L803.76 2284.37 L803.76 2272.49 L820.96 2272.49 L820.96 2260.86 L838.16 2260.86 L838.16 2249.10 L855.36 2249.10 L855.36 2237.59 L872.56 2237.59 L872.56 2225.96 L889.76 2225.96 L889.76 2214.58 L906.96 2214.58 L906.96 2203.19 L924.16 2203.19 L924.16 2191.80 L941.37 2191.80 L941.37 2180.54 L958.57 2180.54 L958.57 2169.28 L975.77 2169.28 L975.77 2158.14 L992.97 2158.14 L992.97 2147.13 L1010.17 2147.13 L1010.17 2135.99 L1027.25 2135.99 L1027.25 2125.10 L1044.45 2125.10 L1044.45 2114.09 L1061.65 2114.09 L1061.65 2103.20 L1078.85 2103.20 L1078.85 2092.31 L1096.05 2092.31 L1096.05 2081.54 L1113.26 2081.54 L1113.26 2070.77 L1130.46 2070.77 L1130.46 2060.01 L1147.66 2060.01 L1147.66 2049.36 L1164.86 2049.36 L1164.86 2038.72 L1182.06 2038.72 L1182.06 2028.08 L1199.26 2028.08 L1199.26 2017.44 L1216.46 2017.44 L1216.46 2006.92 L1233.66 2006.92 L1233.66 1996.40 L1250.87 1996.40 L1250.87 1986.00 L1267.94 1986.00 L1267.94 1975.61 L1285.14 1975.61 L1285.14 1965.21 L1302.35 1965.21 L1302.35 1954.82 L1319.55 1954.82 L1319.55 1944.54 L1336.75 1944.54 L1336.75 1934.27 L1353.95 1934.27 L1353.95 1924.13 L1371.15 1924.13 L1371.15 1913.85 L1388.35 1913.85 L1388.35 1903.83 L1405.55 1903.83 L1405.55 1893.68 L1422.75 1893.68 L1422.75 1883.66 L1439.95 1883.66 L1439.95 1873.63 L1457.16 1873.63 L1457.16 1863.73 L1474.36 1863.73 L1474.36 1853.83 L1491.56 1853.83 L1491.56 1843.93 L1508.64 1843.93 L1508.64 1834.16 L1525.84 1834.16 L1525.84 1824.38 L1543.04 1824.38 L1543.04 1814.73 L1560.24 1814.73 L1560.24 1805.07 L1577.44 1805.07 L1577.44 1795.42 L1594.64 1795.42 L1594.64 1785.89 L1611.84 1785.89 L1611.84 1776.36 L1629.05 1776.36 L1629.05 1766.83 L1646.25 1766.83 L1646.25 1757.43 L1663.45 1757.43 L1663.45 1748.02 L1680.65 1748.02 L1680.65 1738.74 L1697.85 1738.74 L1697.85 1729.46 L1715.05 1729.46 L1715.05 1720.18 L1732.25 1720.18 L1732.25 1711.02 L1749.33 1711.02 L1749.33 1701.86 L1766.53 1701.86 L1766.53 1692.71 L1783.73 1692.71 L1783.73 1683.67 L1800.93 1683.67 L1800.93 1674.64 L1818.13 1674.64 L1818.13 1665.73 L1835.34 1665.73 L1835.34 1656.82 L1852.54 1656.82 L1852.54 1647.91 L1869.74 1647.91 L1869.74 1639.00 L1886.94 1639.00 L1886.94 1630.21 L1904.14 1630.21 L1904.14 1621.42 L1921.34 1621.42 L1921.34 1612.76 L1938.54 1612.76 L1938.54 1604.10 L1955.74 1604.10 L1955.74 1595.43 L1972.95 1595.43 L1972.95 1586.77 L1990.02 1586.77 L1990.02 1578.23 L2007.22 1578.23 L2007.22 1569.69 L2024.43 1569.69 L2024.43 1561.16 L2041.63 1561.16 L2041.63 1552.62 L2058.83 1552.62 L2058.83 1544.20 L2076.03 1544.20 L2076.03 1535.79 L2093.23 1535.79 L2093.23 1527.37 L2110.43 1527.37 L2110.43 1518.95 L2127.63 1518.95 L2127.63 1510.66 L2144.84 1510.66 L2144.84 1502.37 L2162.04 1502.37 L2162.04 1494.08 L2179.24 1494.08 L2179.24 1485.91 L2196.44 1485.91 L2196.44 1477.62 L2213.64 1477.62 L2213.64 1469.45 L2230.72 1469.45 L2230.72 1461.29 L2247.92 1461.29 L2247.92 1453.12 L2265.12 1453.12 L2265.12 1445.07 L2282.32 1445.07 L2282.32 1436.91 L2299.52 1436.91 L2299.52 1428.86 L2316.72 1428.86 L2316.72 1420.82 L2333.93 1420.82 L2333.93 1412.77 L2351.13 1412.77 L2351.13 1404.85 L2368.33 1404.85 L2368.33 1396.81 L2385.53 1396.81 L2385.53 1388.89 L2402.73 1388.89 L2402.73 1380.97 L2419.93 1380.97 L2419.93 1373.05 L2437.13 1373.05 L2437.13 1365.13 L2454.33 1365.13 L2454.33 1357.33 L2471.41 1357.33 L2471.41 1349.41 L2488.61 1349.41 L2488.61 1341.62 L2505.81 1341.62 L2505.81 1333.82 L2523.01 1333.82 L2523.01 1326.02 L2540.22 1326.02 L2540.22 1318.23 L2557.42 1318.23 L2557.42 1310.43 L2574.62 1310.43 L2574.62 1302.76 L2591.82 1302.76 L2591.82 1294.96 L2609.02 1294.96 L2609.02 1287.29 L2626.22 1287.29 L2626.22 1279.61 L2643.42 1279.61 L2643.42 1271.94 L2660.63 1271.94 L2660.63 1264.27 L2677.83 1264.27 L2677.83 1256.60 L2695.03 1256.60 L2695.03 1248.92 L2712.11 1248.92 L2712.11 1241.38 L2729.31 1241.38 L2729.31 1233.70 L2746.51 1233.70 L2746.51 1226.15 L2763.71 1226.15 L2763.71 1218.60 L2780.91 1218.60 L2780.91 1210.93 L2798.11 1210.93 L2798.11 1203.38 L2815.31 1203.38 L2815.31 1195.83 L2832.51 1195.83 L2832.51 1188.41 L2849.72 1188.41 L2849.72 1180.86 L2866.92 1180.86 L2866.92 1173.31 L2884.12 1173.31 L2884.12 1165.89 L2901.32 1165.89 L2901.32 1158.34 L2918.52 1158.34 L2918.52 1150.91 L2935.72 1150.91 L2935.72 1143.49 L2952.80 1143.49 L2952.80 1135.94 L2970.00 1135.94 L2970.00 1128.51 L2987.20 1128.51 L2987.20 1121.09 L3004.40 1121.09 L3004.40 1113.66 L3021.60 1113.66 L3021.60 1106.36 L3038.80 1106.36 L3038.80 1098.93 L3056.01 1098.93 L3056.01 1091.51 L3073.21 1091.51 L3073.21 1084.21 L3090.41 1084.21 L3090.41 1076.78 L3107.61 1076.78 L3107.61 1069.48 L3124.81 1069.48 L3124.81 1062.18 L3142.01 1062.18 L3142.01 1054.75 L3159.21 1054.75 L3159.21 1047.45 L3176.29 1047.45 L3176.29 1040.15 L3193.49 1040.15 L3193.49 1032.85 L3210.69 1032.85 L3210.69 1025.55 L3227.89 1025.55 L3227.89 1018.25 L3245.10 1018.25 L3245.10 1010.95 L3262.30 1010.95 L3262.30 1003.77 L3279.50 1003.77 L3279.50 996.47 L3296.70 996.47 L3296.70 989.16 L3313.90 989.16 L3313.90 981.99 L3331.10 981.99 L3331.10 974.69 L3348.30 974.69 L3348.30 967.51 L3365.51 967.51 L3365.51 960.33 L3382.71 960.33 L3382.71 953.03 L3399.91 953.03 L3399.91 945.85 L3416.99 945.85 L3416.99 938.67 L3434.19 938.67 L3434.19 931.50 L3451.39 931.50 L3451.39 924.32 L3468.59 924.32 L3468.59 917.14 L3485.79 917.14 L3485.79 909.96 L3502.99 909.96 L3502.99 902.78 L3520.19 902.78 L3520.19 895.61 L3537.39 895.61 L3537.39 888.43 L3554.59 888.43 L3554.59 881.38 L3571.80 881.38 L3571.80 874.20 L3589.00 874.20 L3589.00 867.02 L3606.20 867.02 L3606.20 859.97 L3623.40 859.97 L3623.40 852.79 L3640.60 852.79 L3640.60 845.73 L3657.68 845.73 L3657.68 838.68 L3674.88 838.68 L3674.88 831.50 L3692.08 831.50 L3692.08 824.45 L3709.28 824.45 L3709.28 817.39 L3726.48 817.39 L3726.48 810.34 L3743.68 810.34 L3743.68 803.29 L3760.89 803.29 L3760.89 796.23 L3778.09 796.23 L3778.09 789.18 L3795.29 789.18 L3795.29 782.12 L3795.29 524.84 L3795.29 533.75 L3778.09 533.75 L3778.09 542.66 L3760.89 542.66 L3760.89 551.57 L3743.68 551.57 L3743.68 560.61 L3726.48 560.61 L3726.48 569.52 L3709.28 569.52 L3709.28 578.43 L3692.08 578.43 L3692.08 587.34 L3674.88 587.34 L3674.88 596.37 L3657.68 596.37 L3657.68 605.28 L3640.60 605.28 L3640.60 614.31 L3623.40 614.31 L3623.40 623.22 L3606.20 623.22 L3606.20 632.26 L3589.00 632.26 L3589.00 641.17 L3571.80 641.17 L3571.80 650.20 L3554.59 650.20 L3554.59 659.24 L3537.39 659.24 L3537.39 668.15 L3520.19 668.15 L3520.19 677.18 L3502.99 677.18 L3502.99 686.22 L3485.79 686.22 L3485.79 695.25 L3468.59 695.25 L3468.59 704.28 L3451.39 704.28 L3451.39 713.32 L3434.19 713.32 L3434.19 722.35 L3416.99 722.35 L3416.99 731.39 L3399.91 731.39 L3399.91 740.42 L3382.71 740.42 L3382.71 749.45 L3365.51 749.45 L3365.51 758.61 L3348.30 758.61 L3348.30 767.65 L3331.10 767.65 L3331.10 776.68 L3313.90 776.68 L3313.90 785.84 L3296.70 785.84 L3296.70 794.87 L3279.50 794.87 L3279.50 803.91 L3262.30 803.91 L3262.30 813.06 L3245.10 813.06 L3245.10 822.22 L3227.89 822.22 L3227.89 831.25 L3210.69 831.25 L3210.69 840.41 L3193.49 840.41 L3193.49 849.57 L3176.29 849.57 L3176.29 858.60 L3159.21 858.60 L3159.21 867.76 L3142.01 867.76 L3142.01 876.92 L3124.81 876.92 L3124.81 886.08 L3107.61 886.08 L3107.61 895.24 L3090.41 895.24 L3090.41 904.39 L3073.21 904.39 L3073.21 913.67 L3056.01 913.67 L3056.01 922.83 L3038.80 922.83 L3038.80 931.99 L3021.60 931.99 L3021.60 941.27 L3004.40 941.27 L3004.40 950.43 L2987.20 950.43 L2987.20 959.71 L2970.00 959.71 L2970.00 968.87 L2952.80 968.87 L2952.80 978.15 L2935.72 978.15 L2935.72 987.43 L2918.52 987.43 L2918.52 996.71 L2901.32 996.71 L2901.32 1005.87 L2884.12 1005.87 L2884.12 1015.15 L2866.92 1015.15 L2866.92 1024.43 L2849.72 1024.43 L2849.72 1033.84 L2832.51 1033.84 L2832.51 1043.12 L2815.31 1043.12 L2815.31 1052.40 L2798.11 1052.40 L2798.11 1061.68 L2780.91 1061.68 L2780.91 1071.09 L2763.71 1071.09 L2763.71 1080.37 L2746.51 1080.37 L2746.51 1089.78 L2729.31 1089.78 L2729.31 1099.18 L2712.11 1099.18 L2712.11 1108.46 L2695.03 1108.46 L2695.03 1117.87 L2677.83 1117.87 L2677.83 1127.27 L2660.63 1127.27 L2660.63 1136.68 L2643.42 1136.68 L2643.42 1146.08 L2626.22 1146.08 L2626.22 1155.61 L2609.02 1155.61 L2609.02 1165.02 L2591.82 1165.02 L2591.82 1174.42 L2574.62 1174.42 L2574.62 1183.95 L2557.42 1183.95 L2557.42 1193.36 L2540.22 1193.36 L2540.22 1202.89 L2523.01 1202.89 L2523.01 1212.42 L2505.81 1212.42 L2505.81 1221.95 L2488.61 1221.95 L2488.61 1231.47 L2471.41 1231.47 L2471.41 1241.00 L2454.33 1241.00 L2454.33 1250.53 L2437.13 1250.53 L2437.13 1260.19 L2419.93 1260.19 L2419.93 1269.71 L2402.73 1269.71 L2402.73 1279.37 L2385.53 1279.37 L2385.53 1288.90 L2368.33 1288.90 L2368.33 1298.55 L2351.13 1298.55 L2351.13 1308.20 L2333.93 1308.20 L2333.93 1317.85 L2316.72 1317.85 L2316.72 1327.63 L2299.52 1327.63 L2299.52 1337.28 L2282.32 1337.28 L2282.32 1346.94 L2265.12 1346.94 L2265.12 1356.71 L2247.92 1356.71 L2247.92 1366.49 L2230.72 1366.49 L2230.72 1376.27 L2213.64 1376.27 L2213.64 1386.04 L2196.44 1386.04 L2196.44 1395.82 L2179.24 1395.82 L2179.24 1405.72 L2162.04 1405.72 L2162.04 1415.50 L2144.84 1415.50 L2144.84 1425.40 L2127.63 1425.40 L2127.63 1435.30 L2110.43 1435.30 L2110.43 1445.20 L2093.23 1445.20 L2093.23 1455.10 L2076.03 1455.10 L2076.03 1465.12 L2058.83 1465.12 L2058.83 1475.02 L2041.63 1475.02 L2041.63 1485.05 L2024.43 1485.05 L2024.43 1495.07 L2007.22 1495.07 L2007.22 1505.09 L1990.02 1505.09 L1990.02 1515.24 L1972.95 1515.24 L1972.95 1525.27 L1955.74 1525.27 L1955.74 1535.41 L1938.54 1535.41 L1938.54 1545.56 L1921.34 1545.56 L1921.34 1555.71 L1904.14 1555.71 L1904.14 1565.86 L1886.94 1565.86 L1886.94 1576.13 L1869.74 1576.13 L1869.74 1586.40 L1852.54 1586.40 L1852.54 1596.67 L1835.34 1596.67 L1835.34 1606.94 L1818.13 1606.94 L1818.13 1617.34 L1800.93 1617.34 L1800.93 1627.73 L1783.73 1627.73 L1783.73 1638.13 L1766.53 1638.13 L1766.53 1648.65 L1749.33 1648.65 L1749.33 1659.04 L1732.25 1659.04 L1732.25 1669.56 L1715.05 1669.56 L1715.05 1680.08 L1697.85 1680.08 L1697.85 1690.73 L1680.65 1690.73 L1680.65 1701.24 L1663.45 1701.24 L1663.45 1711.89 L1646.25 1711.89 L1646.25 1722.65 L1629.05 1722.65 L1629.05 1733.30 L1611.84 1733.30 L1611.84 1744.06 L1594.64 1744.06 L1594.64 1754.83 L1577.44 1754.83 L1577.44 1765.60 L1560.24 1765.60 L1560.24 1776.49 L1543.04 1776.49 L1543.04 1787.38 L1525.84 1787.38 L1525.84 1798.27 L1508.64 1798.27 L1508.64 1809.16 L1491.56 1809.16 L1491.56 1820.17 L1474.36 1820.17 L1474.36 1831.19 L1457.16 1831.19 L1457.16 1842.20 L1439.95 1842.20 L1439.95 1853.21 L1422.75 1853.21 L1422.75 1864.35 L1405.55 1864.35 L1405.55 1875.49 L1388.35 1875.49 L1388.35 1886.63 L1371.15 1886.63 L1371.15 1897.77 L1353.95 1897.77 L1353.95 1909.03 L1336.75 1909.03 L1336.75 1920.29 L1319.55 1920.29 L1319.55 1931.55 L1302.35 1931.55 L1302.35 1942.81 L1285.14 1942.81 L1285.14 1954.07 L1267.94 1954.07 L1267.94 1965.46 L1250.87 1965.46 L1250.87 1976.84 L1233.66 1976.84 L1233.66 1988.23 L1216.46 1988.23 L1216.46 1999.61 L1199.26 1999.61 L1199.26 2011.12 L1182.06 2011.12 L1182.06 2022.51 L1164.86 2022.51 L1164.86 2034.02 L1147.66 2034.02 L1147.66 2045.53 L1130.46 2045.53 L1130.46 2057.16 L1113.26 2057.16 L1113.26 2068.67 L1096.05 2068.67 L1096.05 2080.30 L1078.85 2080.30 L1078.85 2091.94 L1061.65 2091.94 L1061.65 2103.57 L1044.45 2103.57 L1044.45 2115.20 L1027.25 2115.20 L1027.25 2126.96 L1010.17 2126.96 L1010.17 2138.71 L992.97 2138.71 L992.97 2150.47 L975.77 2150.47 L975.77 2162.35 L958.57 2162.35 L958.57 2174.11 L941.37 2174.11 L941.37 2185.99 L924.16 2185.99 L924.16 2197.87 L906.96 2197.87 L906.96 2209.87 L889.76 2209.87 L889.76 2221.88 L872.56 2221.88 L872.56 2233.88 L855.36 2233.88 L855.36 2245.89 L838.16 2245.89 L838.16 2258.01 L820.96 2258.01 L820.96 2270.14 L803.76 2270.14 L803.76 2282.27 L786.55 2282.27 L786.55 2294.40 L769.48 2294.40 L769.48 2306.65 L752.28 2306.65 L752.28 2318.90 L735.08 2318.90 L735.08 2331.15 L717.87 2331.15 L717.87 2332.14 Z" stroke-linejoin="round"/>
	</defs>
	<defs>
		<clipPath id="clipPath_yAtQpZTZ">
			<use xlink:href="#path_nyPGLUEA"/>
		</clipPath>
	</defs>
	<use xlink:href="#path_nyPGLUEA" style="stroke:none;fill:#333333;fill-opacity:0.35"/>
	<use xlink:href="#path_nyPGLUEA" style="fill:none;stroke:#000000;stroke-opacity:0.35;stroke-width:17.28" clip-path="url(#clipPath_yAtQpZTZ)"/>
	<line x1="717.75" y1="2331.77" x2="734.95" y2="2331.77" style="stroke:#808080;stroke-width:8.64"/>
	<line x1="734.95" y1="2331.77" x2="734.95" y2="2319.64" style="stroke:#808080;stroke-width:8.64"/>
	<line x1="734.95" y1="2319.64" x2="745.84" y2="2319.64" style="stroke:#808080;stroke-width:8.64"/>
	<line x1="752.15" y1="2308.63" x2="752.15" y2="2307.64" style="stroke:#808080;stroke-width:8.64"/>
	<line x1="752.15" y1="2307.64" x2="769.35" y2="2307.64" style="stroke:#808080;stroke-width:8.64"/>
	<line x1="769.35" y1="2307.64" x2="769.35" y2="2295.51" style="stroke:#808080;stroke-width:8.64"/>
	<line x1="769.35" y1="2295.51" x2="779.38" y2="2295.51" style="stroke:#808080;stroke-width:8.64"/>
	<line x1="786.55" y1="2285.49" x2="786.55" y2="2283.51" style="stroke:#808080;stroke-width:8.64"/>
	<line x1="786.55" y1="2283.51" x2="803.76" y2="2283.51" style="stroke:#808080;stroke-width:8.64"/>
	<line x1="803.76" y1="2283.51" x2="803.76" y2="2271.63" style="stroke:#808080;stroke-width:8.64"/>
	<line x1="803.76" y1="2271.63" x2="813.04" y2="2271.63" style="stroke:#808080;stroke-width:8.64"/>
	<line x1="820.96" y1="2262.22" x2="820.96" y2="2259.75" style="stroke:#808080;stroke-width:8.64"/>
	<line x1="820.96" y1="2259.75" x2="838.16" y2="2259.75" style="stroke:#808080;stroke-width:8.64"/>
	<line x1="838.16" y1="2259.75" x2="838.16" y2="2247.87" style="stroke:#808080;stroke-width:8.64"/>
	<line x1="838.16" y1="2247.87" x2="846.82" y2="2247.87" style="stroke:#808080;stroke-width:8.64"/>
	<line x1="855.36" y1="2239.08" x2="855.36" y2="2236.11" style="stroke:#808080;stroke-width:8.64"/>
	<line x1="855.36" y1="2236.11" x2="872.56" y2="2236.11" style="stroke:#808080;stroke-width:8.64"/>
	<line x1="872.56" y1="2236.11" x2="872.56" y2="2224.48" style="stroke:#808080;stroke-width:8.64"/>
	<line x1="872.56" y1="2224.48" x2="880.98" y2="2224.48" style="stroke:#808080;stroke-width:8.64"/>
	<line x1="889.76" y1="2215.94" x2="889.76" y2="2212.72" style="stroke:#808080;stroke-width:8.64"/>
	<line x1="889.76" y1="2212.72" x2="906.84" y2="2212.72" style="stroke:#808080;stroke-width:8.64"/>
	<line x1="906.84" y1="2212.72" x2="906.84" y2="2201.21" style="stroke:#808080;stroke-width:8.64"/>
	<line x1="906.84" y1="2201.21" x2="915.38" y2="2201.21" style="stroke:#808080;stroke-width:8.64"/>
	<line x1="924.04" y1="2192.67" x2="924.04" y2="2189.58" style="stroke:#808080;stroke-width:8.64"/>
	<line x1="924.04" y1="2189.58" x2="941.24" y2="2189.58" style="stroke:#808080;stroke-width:8.64"/>
	<line x1="941.24" y1="2189.58" x2="941.24" y2="2178.19" style="stroke:#808080;stroke-width:8.64"/>
	<line x1="941.24" y1="2178.19" x2="949.90" y2="2178.19" style="stroke:#808080;stroke-width:8.64"/>
	<line x1="958.44" y1="2169.53" x2="958.44" y2="2166.68" style="stroke:#808080;stroke-width:8.64"/>
	<line x1="958.44" y1="2166.68" x2="975.64" y2="2166.68" style="stroke:#808080;stroke-width:8.64"/>
	<line x1="975.64" y1="2166.68" x2="975.64" y2="2155.30" style="stroke:#808080;stroke-width:8.64"/>
	<line x1="975.64" y1="2155.30" x2="984.55" y2="2155.30" style="stroke:#808080;stroke-width:8.64"/>
	<line x1="992.85" y1="2146.39" x2="992.85" y2="2143.91" style="stroke:#808080;stroke-width:8.64"/>
	<line x1="992.85" y1="2143.91" x2="1010.05" y2="2143.91" style="stroke:#808080;stroke-width:8.64"/>
	<line x1="1010.05" y1="2143.91" x2="1010.05" y2="2132.65" style="stroke:#808080;stroke-width:8.64"/>
	<line x1="1010.05" y1="2132.65" x2="1019.45" y2="2132.65" style="stroke:#808080;stroke-width:8.64"/>
	<line x1="1027.25" y1="2123.12" x2="1027.25" y2="2121.39" style="stroke:#808080;stroke-width:8.64"/>
	<line x1="1027.25" y1="2121.39" x2="1044.45" y2="2121.39" style="stroke:#808080;stroke-width:8.64"/>
	<line x1="1044.45" y1="2121.39" x2="1044.45" y2="2110.25" style="stroke:#808080;stroke-width:8.64"/>
	<line x1="1044.45" y1="2110.25" x2="1054.72" y2="2110.25" style="stroke:#808080;stroke-width:8.64"/>
	<line x1="1061.65" y1="2099.98" x2="1061.65" y2="2098.99" style="stroke:#808080;stroke-width:8.64"/>
	<line x1="1061.65" y1="2098.99" x2="1078.85" y2="2098.99" style="stroke:#808080;stroke-width:8.64"/>
	<line x1="1078.85" y1="2098.99" x2="1078.85" y2="2087.85" style="stroke:#808080;stroke-width:8.64"/>
	<line x1="1078.85" y1="2087.85" x2="1089.87" y2="2087.85" style="stroke:#808080;stroke-width:8.64"/>
	<line x1="1096.05" y1="2076.84" x2="1096.05" y2="2076.84" style="stroke:#808080;stroke-width:8.64"/>
	<line x1="1096.05" y1="2076.84" x2="1113.26" y2="2076.84" style="stroke:#808080;stroke-width:8.64"/>
	<line x1="1113.26" y1="2076.84" x2="1113.26" y2="2065.70" style="stroke:#808080;stroke-width:8.64"/>
	<line x1="1113.26" y1="2065.70" x2="1125.26" y2="2065.70" style="stroke:#808080;stroke-width:8.64"/>
	<line x1="1131.57" y1="2054.69" x2="1147.53" y2="2054.69" style="stroke:#808080;stroke-width:8.64"/>
	<line x1="1147.53" y1="2054.69" x2="1147.53" y2="2043.67" style="stroke:#808080;stroke-width:8.64"/>
	<line x1="1147.53" y1="2043.67" x2="1160.78" y2="2043.67" style="stroke:#808080;stroke-width:8.64"/>
	<line x1="1167.21" y1="2032.78" x2="1181.94" y2="2032.78" style="stroke:#808080;stroke-width:8.64"/>
	<line x1="1181.94" y1="2032.78" x2="1181.94" y2="2021.89" style="stroke:#808080;stroke-width:8.64"/>
	<line x1="1181.94" y1="2021.89" x2="1196.54" y2="2021.89" style="stroke:#808080;stroke-width:8.64"/>
	<line x1="1202.97" y1="2011.00" x2="1216.34" y2="2011.00" style="stroke:#808080;stroke-width:8.64"/>
	<line x1="1216.34" y1="2011.00" x2="1216.34" y2="2000.11" style="stroke:#808080;stroke-width:8.64"/>
	<line x1="1216.34" y1="2000.11" x2="1232.43" y2="2000.11" style="stroke:#808080;stroke-width:8.64"/>
	<line x1="1238.86" y1="1989.34" x2="1250.74" y2="1989.34" style="stroke:#808080;stroke-width:8.64"/>
	<line x1="1250.74" y1="1989.34" x2="1250.74" y2="1978.58" style="stroke:#808080;stroke-width:8.64"/>
	<line x1="1250.74" y1="1978.58" x2="1267.94" y2="1978.58" style="stroke:#808080;stroke-width:8.64"/>
	<line x1="1267.94" y1="1978.58" x2="1267.94" y2="1978.08" style="stroke:#808080;stroke-width:8.64"/>
	<line x1="1275.00" y1="1967.81" x2="1285.14" y2="1967.81" style="stroke:#808080;stroke-width:8.64"/>
	<line x1="1285.14" y1="1967.81" x2="1285.14" y2="1957.17" style="stroke:#808080;stroke-width:8.64"/>
	<line x1="1285.14" y1="1957.17" x2="1302.35" y2="1957.17" style="stroke:#808080;stroke-width:8.64"/>
	<line x1="1302.35" y1="1957.17" x2="1302.35" y2="1954.94" style="stroke:#808080;stroke-width:8.64"/>
	<line x1="1311.13" y1="1946.52" x2="1319.55" y2="1946.52" style="stroke:#808080;stroke-width:8.64"/>
	<line x1="1319.55" y1="1946.52" x2="1319.55" y2="1935.88" style="stroke:#808080;stroke-width:8.64"/>
	<line x1="1319.55" y1="1935.88" x2="1336.75" y2="1935.88" style="stroke:#808080;stroke-width:8.64"/>
	<line x1="1336.75" y1="1935.88" x2="1336.75" y2="1931.80" style="stroke:#808080;stroke-width:8.64"/>
	<line x1="1347.64" y1="1925.36" x2="1353.95" y2="1925.36" style="stroke:#808080;stroke-width:8.64"/>
	<line x1="1353.95" y1="1925.36" x2="1353.95" y2="1914.72" style="stroke:#808080;stroke-width:8.64"/>
	<line x1="1353.95" y1="1914.72" x2="1371.15" y2="1914.72" style="stroke:#808080;stroke-width:8.64"/>
	<line x1="1371.15" y1="1914.72" x2="1371.15" y2="1908.53" style="stroke:#808080;stroke-width:8.64"/>
	<line x1="1384.14" y1="1904.32" x2="1388.23" y2="1904.32" style="stroke:#808080;stroke-width:8.64"/>
	<line x1="1388.23" y1="1904.32" x2="1388.23" y2="1893.81" style="stroke:#808080;stroke-width:8.64"/>
	<line x1="1388.23" y1="1893.81" x2="1405.43" y2="1893.81" style="stroke:#808080;stroke-width:8.64"/>
	<line x1="1405.43" y1="1893.81" x2="1405.43" y2="1885.27" style="stroke:#808080;stroke-width:8.64"/>
	<line x1="1420.77" y1="1883.41" x2="1422.63" y2="1883.41" style="stroke:#808080;stroke-width:8.64"/>
	<line x1="1422.63" y1="1883.41" x2="1422.63" y2="1873.01" style="stroke:#808080;stroke-width:8.64"/>
	<line x1="1422.63" y1="1873.01" x2="1439.83" y2="1873.01" style="stroke:#808080;stroke-width:8.64"/>
	<line x1="1439.83" y1="1873.01" x2="1439.83" y2="1862.62" style="stroke:#808080;stroke-width:8.64"/>
	<line x1="1439.83" y1="1862.62" x2="1440.33" y2="1862.62" style="stroke:#808080;stroke-width:8.64"/>
	<line x1="1457.03" y1="1862.12" x2="1457.03" y2="1852.35" style="stroke:#808080;stroke-width:8.64"/>
	<line x1="1457.03" y1="1852.35" x2="1474.23" y2="1852.35" style="stroke:#808080;stroke-width:8.64"/>
	<line x1="1474.23" y1="1852.35" x2="1474.23" y2="1842.20" style="stroke:#808080;stroke-width:8.64"/>
	<line x1="1474.23" y1="1842.20" x2="1477.45" y2="1842.20" style="stroke:#808080;stroke-width:8.64"/>
	<line x1="1491.43" y1="1838.86" x2="1491.43" y2="1831.93" style="stroke:#808080;stroke-width:8.64"/>
	<line x1="1491.43" y1="1831.93" x2="1508.64" y2="1831.93" style="stroke:#808080;stroke-width:8.64"/>
	<line x1="1508.64" y1="1831.93" x2="1508.64" y2="1821.78" style="stroke:#808080;stroke-width:8.64"/>
	<line x1="1508.64" y1="1821.78" x2="1514.70" y2="1821.78" style="stroke:#808080;stroke-width:8.64"/>
	<line x1="1525.84" y1="1815.72" x2="1525.84" y2="1811.63" style="stroke:#808080;stroke-width:8.64"/>
	<line x1="1525.84" y1="1811.63" x2="1543.04" y2="1811.63" style="stroke:#808080;stroke-width:8.64"/>
	<line x1="1543.04" y1="1811.63" x2="1543.04" y2="1801.61" style="stroke:#808080;stroke-width:8.64"/>
	<line x1="1543.04" y1="1801.61" x2="1552.07" y2="1801.61" style="stroke:#808080;stroke-width:8.64"/>
	<line x1="1560.24" y1="1792.57" x2="1560.24" y2="1791.58" style="stroke:#808080;stroke-width:8.64"/>
	<line x1="1560.24" y1="1791.58" x2="1577.44" y2="1791.58" style="stroke:#808080;stroke-width:8.64"/>
	<line x1="1577.44" y1="1791.58" x2="1577.44" y2="1781.56" style="stroke:#808080;stroke-width:8.64"/>
	<line x1="1577.44" y1="1781.56" x2="1589.57" y2="1781.56" style="stroke:#808080;stroke-width:8.64"/>
	<line x1="1596.87" y1="1771.66" x2="1611.84" y2="1771.66" style="stroke:#808080;stroke-width:8.64"/>
	<line x1="1611.84" y1="1771.66" x2="1611.84" y2="1761.76" style="stroke:#808080;stroke-width:8.64"/>
	<line x1="1611.84" y1="1761.76" x2="1627.44" y2="1761.76" style="stroke:#808080;stroke-width:8.64"/>
	<line x1="1634.86" y1="1751.98" x2="1646.12" y2="1751.98" style="stroke:#808080;stroke-width:8.64"/>
	<line x1="1646.12" y1="1751.98" x2="1646.12" y2="1742.21" style="stroke:#808080;stroke-width:8.64"/>
	<line x1="1646.12" y1="1742.21" x2="1663.32" y2="1742.21" style="stroke:#808080;stroke-width:8.64"/>
	<line x1="1663.32" y1="1742.21" x2="1663.32" y2="1740.10" style="stroke:#808080;stroke-width:8.64"/>
	<line x1="1672.85" y1="1732.43" x2="1680.53" y2="1732.43" style="stroke:#808080;stroke-width:8.64"/>
	<line x1="1680.53" y1="1732.43" x2="1680.53" y2="1722.65" style="stroke:#808080;stroke-width:8.64"/>
	<line x1="1680.53" y1="1722.65" x2="1697.73" y2="1722.65" style="stroke:#808080;stroke-width:8.64"/>
	<line x1="1697.73" y1="1722.65" x2="1697.73" y2="1716.96" style="stroke:#808080;stroke-width:8.64"/>
	<line x1="1710.97" y1="1713.00" x2="1714.93" y2="1713.00" style="stroke:#808080;stroke-width:8.64"/>
	<line x1="1714.93" y1="1713.00" x2="1714.93" y2="1703.35" style="stroke:#808080;stroke-width:8.64"/>
	<line x1="1714.93" y1="1703.35" x2="1732.13" y2="1703.35" style="stroke:#808080;stroke-width:8.64"/>
	<line x1="1732.13" y1="1703.35" x2="1732.13" y2="1693.82" style="stroke:#808080;stroke-width:8.64"/>
	<line x1="1749.33" y1="1693.82" x2="1749.33" y2="1693.82" style="stroke:#808080;stroke-width:8.64"/>
	<line x1="1749.33" y1="1693.82" x2="1749.33" y2="1684.29" style="stroke:#808080;stroke-width:8.64"/>
	<line x1="1749.33" y1="1684.29" x2="1766.53" y2="1684.29" style="stroke:#808080;stroke-width:8.64"/>
	<line x1="1766.53" y1="1684.29" x2="1766.53" y2="1674.76" style="stroke:#808080;stroke-width:8.64"/>
	<line x1="1766.53" y1="1674.76" x2="1770.62" y2="1674.76" style="stroke:#808080;stroke-width:8.64"/>
	<line x1="1783.73" y1="1670.55" x2="1783.73" y2="1665.23" style="stroke:#808080;stroke-width:8.64"/>
	<line x1="1783.73" y1="1665.23" x2="1800.93" y2="1665.23" style="stroke:#808080;stroke-width:8.64"/>
	<line x1="1800.93" y1="1665.23" x2="1800.93" y2="1655.83" style="stroke:#808080;stroke-width:8.64"/>
	<line x1="1800.93" y1="1655.83" x2="1809.35" y2="1655.83" style="stroke:#808080;stroke-width:8.64"/>
	<line x1="1818.13" y1="1647.41" x2="1818.13" y2="1646.42" style="stroke:#808080;stroke-width:8.64"/>
	<line x1="1818.13" y1="1646.42" x2="1835.34" y2="1646.42" style="stroke:#808080;stroke-width:8.64"/>
	<line x1="1835.34" y1="1646.42" x2="1835.34" y2="1637.02" style="stroke:#808080;stroke-width:8.64"/>
	<line x1="1835.34" y1="1637.02" x2="1848.08" y2="1637.02" style="stroke:#808080;stroke-width:8.64"/>
	<line x1="1856.00" y1="1627.73" x2="1869.62" y2="1627.73" style="stroke:#808080;stroke-width:8.64"/>
	<line x1="1869.62" y1="1627.73" x2="1869.62" y2="1618.45" style="stroke:#808080;stroke-width:8.64"/>
	<line x1="1869.62" y1="1618.45" x2="1886.82" y2="1618.45" style="stroke:#808080;stroke-width:8.64"/>
	<line x1="1886.82" y1="1618.45" x2="1886.82" y2="1618.21" style="stroke:#808080;stroke-width:8.64"/>
	<line x1="1895.11" y1="1609.30" x2="1904.02" y2="1609.30" style="stroke:#808080;stroke-width:8.64"/>
	<line x1="1904.02" y1="1609.30" x2="1904.02" y2="1600.01" style="stroke:#808080;stroke-width:8.64"/>
	<line x1="1904.02" y1="1600.01" x2="1921.22" y2="1600.01" style="stroke:#808080;stroke-width:8.64"/>
	<line x1="1921.22" y1="1600.01" x2="1921.22" y2="1595.06" style="stroke:#808080;stroke-width:8.64"/>
	<line x1="1934.21" y1="1590.86" x2="1938.42" y2="1590.86" style="stroke:#808080;stroke-width:8.64"/>
	<line x1="1938.42" y1="1590.86" x2="1938.42" y2="1581.82" style="stroke:#808080;stroke-width:8.64"/>
	<line x1="1938.42" y1="1581.82" x2="1955.62" y2="1581.82" style="stroke:#808080;stroke-width:8.64"/>
	<line x1="1955.62" y1="1581.82" x2="1955.62" y2="1572.66" style="stroke:#808080;stroke-width:8.64"/>
	<line x1="1955.62" y1="1572.66" x2="1956.36" y2="1572.66" style="stroke:#808080;stroke-width:8.64"/>
	<line x1="1972.82" y1="1571.80" x2="1972.82" y2="1563.63" style="stroke:#808080;stroke-width:8.64"/>
	<line x1="1972.82" y1="1563.63" x2="1990.02" y2="1563.63" style="stroke:#808080;stroke-width:8.64"/>
	<line x1="1990.02" y1="1563.63" x2="1990.02" y2="1554.60" style="stroke:#808080;stroke-width:8.64"/>
	<line x1="1990.02" y1="1554.60" x2="1995.84" y2="1554.60" style="stroke:#808080;stroke-width:8.64"/>
	<line x1="2007.22" y1="1548.66" x2="2007.22" y2="1545.69" style="stroke:#808080;stroke-width:8.64"/>
	<line x1="2007.22" y1="1545.69" x2="2024.43" y2="1545.69" style="stroke:#808080;stroke-width:8.64"/>
	<line x1="2024.43" y1="1545.69" x2="2024.43" y2="1536.65" style="stroke:#808080;stroke-width:8.64"/>
	<line x1="2024.43" y1="1536.65" x2="2035.56" y2="1536.65" style="stroke:#808080;stroke-width:8.64"/>
	<line x1="2043.86" y1="1527.74" x2="2058.83" y2="1527.74" style="stroke:#808080;stroke-width:8.64"/>
	<line x1="2058.83" y1="1527.74" x2="2058.83" y2="1518.83" style="stroke:#808080;stroke-width:8.64"/>
	<line x1="2058.83" y1="1518.83" x2="2075.29" y2="1518.83" style="stroke:#808080;stroke-width:8.64"/>
	<line x1="2083.70" y1="1510.04" x2="2093.23" y2="1510.04" style="stroke:#808080;stroke-width:8.64"/>
	<line x1="2093.23" y1="1510.04" x2="2093.23" y2="1501.13" style="stroke:#808080;stroke-width:8.64"/>
	<line x1="2093.23" y1="1501.13" x2="2110.31" y2="1501.13" style="stroke:#808080;stroke-width:8.64"/>
	<line x1="2110.31" y1="1501.13" x2="2110.31" y2="1496.31" style="stroke:#808080;stroke-width:8.64"/>
	<line x1="2123.67" y1="1492.35" x2="2127.51" y2="1492.35" style="stroke:#808080;stroke-width:8.64"/>
	<line x1="2127.51" y1="1492.35" x2="2127.51" y2="1483.56" style="stroke:#808080;stroke-width:8.64"/>
	<line x1="2127.51" y1="1483.56" x2="2144.71" y2="1483.56" style="stroke:#808080;stroke-width:8.64"/>
	<line x1="2144.71" y1="1483.56" x2="2144.71" y2="1474.77" style="stroke:#808080;stroke-width:8.64"/>
	<line x1="2144.71" y1="1474.77" x2="2146.32" y2="1474.77" style="stroke:#808080;stroke-width:8.64"/>
	<line x1="2161.91" y1="1473.04" x2="2161.91" y2="1466.11" style="stroke:#808080;stroke-width:8.64"/>
	<line x1="2161.91" y1="1466.11" x2="2179.11" y2="1466.11" style="stroke:#808080;stroke-width:8.64"/>
	<line x1="2179.11" y1="1466.11" x2="2179.11" y2="1457.33" style="stroke:#808080;stroke-width:8.64"/>
	<line x1="2179.11" y1="1457.33" x2="2186.54" y2="1457.33" style="stroke:#808080;stroke-width:8.64"/>
	<line x1="2196.32" y1="1449.90" x2="2196.32" y2="1448.66" style="stroke:#808080;stroke-width:8.64"/>
	<line x1="2196.32" y1="1448.66" x2="2213.52" y2="1448.66" style="stroke:#808080;stroke-width:8.64"/>
	<line x1="2213.52" y1="1448.66" x2="2213.52" y2="1440.00" style="stroke:#808080;stroke-width:8.64"/>
	<line x1="2213.52" y1="1440.00" x2="2226.76" y2="1440.00" style="stroke:#808080;stroke-width:8.64"/>
	<line x1="2235.42" y1="1431.46" x2="2247.92" y2="1431.46" style="stroke:#808080;stroke-width:8.64"/>
	<line x1="2247.92" y1="1431.46" x2="2247.92" y2="1422.80" style="stroke:#808080;stroke-width:8.64"/>
	<line x1="2247.92" y1="1422.80" x2="2265.12" y2="1422.80" style="stroke:#808080;stroke-width:8.64"/>
	<line x1="2265.12" y1="1422.80" x2="2265.12" y2="1420.82" style="stroke:#808080;stroke-width:8.64"/>
	<line x1="2275.76" y1="1414.14" x2="2282.32" y2="1414.14" style="stroke:#808080;stroke-width:8.64"/>
	<line x1="2282.32" y1="1414.14" x2="2282.32" y2="1405.60" style="stroke:#808080;stroke-width:8.64"/>
	<line x1="2282.32" y1="1405.60" x2="2299.52" y2="1405.60" style="stroke:#808080;stroke-width:8.64"/>
	<line x1="2299.52" y1="1405.60" x2="2299.52" y2="1397.68" style="stroke:#808080;stroke-width:8.64"/>
	<line x1="2316.23" y1="1397.06" x2="2316.72" y2="1397.06" style="stroke:#808080;stroke-width:8.64"/>
	<line x1="2316.72" y1="1397.06" x2="2316.72" y2="1388.52" style="stroke:#808080;stroke-width:8.64"/>
	<line x1="2316.72" y1="1388.52" x2="2333.93" y2="1388.52" style="stroke:#808080;stroke-width:8.64"/>
	<line x1="2333.93" y1="1388.52" x2="2333.93" y2="1379.98" style="stroke:#808080;stroke-width:8.64"/>
	<line x1="2333.93" y1="1379.98" x2="2339.49" y2="1379.98" style="stroke:#808080;stroke-width:8.64"/>
	<line x1="2351.00" y1="1374.29" x2="2351.00" y2="1371.56" style="stroke:#808080;stroke-width:8.64"/>
	<line x1="2351.00" y1="1371.56" x2="2368.20" y2="1371.56" style="stroke:#808080;stroke-width:8.64"/>
	<line x1="2368.20" y1="1371.56" x2="2368.20" y2="1363.03" style="stroke:#808080;stroke-width:8.64"/>
	<line x1="2368.20" y1="1363.03" x2="2380.08" y2="1363.03" style="stroke:#808080;stroke-width:8.64"/>
	<line x1="2388.87" y1="1354.61" x2="2402.61" y2="1354.61" style="stroke:#808080;stroke-width:8.64"/>
	<line x1="2402.61" y1="1354.61" x2="2402.61" y2="1346.19" style="stroke:#808080;stroke-width:8.64"/>
	<line x1="2402.61" y1="1346.19" x2="2419.81" y2="1346.19" style="stroke:#808080;stroke-width:8.64"/>
	<line x1="2419.81" y1="1346.19" x2="2419.81" y2="1345.20" style="stroke:#808080;stroke-width:8.64"/>
	<line x1="2429.71" y1="1337.78" x2="2437.01" y2="1337.78" style="stroke:#808080;stroke-width:8.64"/>
	<line x1="2437.01" y1="1337.78" x2="2437.01" y2="1329.36" style="stroke:#808080;stroke-width:8.64"/>
	<line x1="2437.01" y1="1329.36" x2="2454.21" y2="1329.36" style="stroke:#808080;stroke-width:8.64"/>
	<line x1="2454.21" y1="1329.36" x2="2454.21" y2="1322.06" style="stroke:#808080;stroke-width:8.64"/>
	<line x1="2470.42" y1="1320.95" x2="2471.41" y2="1320.95" style="stroke:#808080;stroke-width:8.64"/>
	<line x1="2471.41" y1="1320.95" x2="2471.41" y2="1312.66" style="stroke:#808080;stroke-width:8.64"/>
	<line x1="2471.41" y1="1312.66" x2="2488.61" y2="1312.66" style="stroke:#808080;stroke-width:8.64"/>
	<line x1="2488.61" y1="1312.66" x2="2488.61" y2="1304.24" style="stroke:#808080;stroke-width:8.64"/>
	<line x1="2488.61" y1="1304.24" x2="2494.06" y2="1304.24" style="stroke:#808080;stroke-width:8.64"/>
	<line x1="2505.81" y1="1298.80" x2="2505.81" y2="1295.95" style="stroke:#808080;stroke-width:8.64"/>
	<line x1="2505.81" y1="1295.95" x2="2523.01" y2="1295.95" style="stroke:#808080;stroke-width:8.64"/>
	<line x1="2523.01" y1="1295.95" x2="2523.01" y2="1287.66" style="stroke:#808080;stroke-width:8.64"/>
	<line x1="2523.01" y1="1287.66" x2="2535.02" y2="1287.66" style="stroke:#808080;stroke-width:8.64"/>
	<line x1="2543.93" y1="1279.37" x2="2557.42" y2="1279.37" style="stroke:#808080;stroke-width:8.64"/>
	<line x1="2557.42" y1="1279.37" x2="2557.42" y2="1271.08" style="stroke:#808080;stroke-width:8.64"/>
	<line x1="2557.42" y1="1271.08" x2="2574.62" y2="1271.08" style="stroke:#808080;stroke-width:8.64"/>
	<line x1="2574.62" y1="1271.08" x2="2574.62" y2="1269.71" style="stroke:#808080;stroke-width:8.64"/>
	<line x1="2585.01" y1="1262.78" x2="2591.70" y2="1262.78" style="stroke:#808080;stroke-width:8.64"/>
	<line x1="2591.70" y1="1262.78" x2="2591.70" y2="1254.49" style="stroke:#808080;stroke-width:8.64"/>
	<line x1="2591.70" y1="1254.49" x2="2608.90" y2="1254.49" style="stroke:#808080;stroke-width:8.64"/>
	<line x1="2608.90" y1="1254.49" x2="2608.90" y2="1246.45" style="stroke:#808080;stroke-width:8.64"/>
	<line x1="2625.85" y1="1246.20" x2="2626.10" y2="1246.20" style="stroke:#808080;stroke-width:8.64"/>
	<line x1="2626.10" y1="1246.20" x2="2626.10" y2="1238.03" style="stroke:#808080;stroke-width:8.64"/>
	<line x1="2626.10" y1="1238.03" x2="2643.30" y2="1238.03" style="stroke:#808080;stroke-width:8.64"/>
	<line x1="2643.30" y1="1238.03" x2="2643.30" y2="1229.74" style="stroke:#808080;stroke-width:8.64"/>
	<line x1="2643.30" y1="1229.74" x2="2649.74" y2="1229.74" style="stroke:#808080;stroke-width:8.64"/>
	<line x1="2660.50" y1="1223.18" x2="2660.50" y2="1221.57" style="stroke:#808080;stroke-width:8.64"/>
	<line x1="2660.50" y1="1221.57" x2="2677.70" y2="1221.57" style="stroke:#808080;stroke-width:8.64"/>
	<line x1="2677.70" y1="1221.57" x2="2677.70" y2="1213.41" style="stroke:#808080;stroke-width:8.64"/>
	<line x1="2677.70" y1="1213.41" x2="2691.07" y2="1213.41" style="stroke:#808080;stroke-width:8.64"/>
	<line x1="2700.10" y1="1205.24" x2="2712.11" y2="1205.24" style="stroke:#808080;stroke-width:8.64"/>
	<line x1="2712.11" y1="1205.24" x2="2712.11" y2="1197.07" style="stroke:#808080;stroke-width:8.64"/>
	<line x1="2712.11" y1="1197.07" x2="2729.31" y2="1197.07" style="stroke:#808080;stroke-width:8.64"/>
	<line x1="2729.31" y1="1197.07" x2="2729.31" y2="1194.10" style="stroke:#808080;stroke-width:8.64"/>
	<line x1="2741.31" y1="1188.90" x2="2746.51" y2="1188.90" style="stroke:#808080;stroke-width:8.64"/>
	<line x1="2746.51" y1="1188.90" x2="2746.51" y2="1180.86" style="stroke:#808080;stroke-width:8.64"/>
	<line x1="2746.51" y1="1180.86" x2="2763.71" y2="1180.86" style="stroke:#808080;stroke-width:8.64"/>
	<line x1="2763.71" y1="1180.86" x2="2763.71" y2="1172.69" style="stroke:#808080;stroke-width:8.64"/>
	<line x1="2763.71" y1="1172.69" x2="2765.44" y2="1172.69" style="stroke:#808080;stroke-width:8.64"/>
	<line x1="2780.91" y1="1170.84" x2="2780.91" y2="1164.65" style="stroke:#808080;stroke-width:8.64"/>
	<line x1="2780.91" y1="1164.65" x2="2798.11" y2="1164.65" style="stroke:#808080;stroke-width:8.64"/>
	<line x1="2798.11" y1="1164.65" x2="2798.11" y2="1156.48" style="stroke:#808080;stroke-width:8.64"/>
	<line x1="2798.11" y1="1156.48" x2="2806.90" y2="1156.48" style="stroke:#808080;stroke-width:8.64"/>
	<line x1="2816.05" y1="1148.44" x2="2832.39" y2="1148.44" style="stroke:#808080;stroke-width:8.64"/>
	<line x1="2832.39" y1="1148.44" x2="2832.39" y2="1140.39" style="stroke:#808080;stroke-width:8.64"/>
	<line x1="2832.39" y1="1140.39" x2="2848.35" y2="1140.39" style="stroke:#808080;stroke-width:8.64"/>
	<line x1="2857.51" y1="1132.35" x2="2866.79" y2="1132.35" style="stroke:#808080;stroke-width:8.64"/>
	<line x1="2866.79" y1="1132.35" x2="2866.79" y2="1124.30" style="stroke:#808080;stroke-width:8.64"/>
	<line x1="2866.79" y1="1124.30" x2="2883.99" y2="1124.30" style="stroke:#808080;stroke-width:8.64"/>
	<line x1="2883.99" y1="1124.30" x2="2883.99" y2="1118.49" style="stroke:#808080;stroke-width:8.64"/>
	<line x1="2898.97" y1="1116.26" x2="2901.20" y2="1116.26" style="stroke:#808080;stroke-width:8.64"/>
	<line x1="2901.20" y1="1116.26" x2="2901.20" y2="1108.22" style="stroke:#808080;stroke-width:8.64"/>
	<line x1="2901.20" y1="1108.22" x2="2918.40" y2="1108.22" style="stroke:#808080;stroke-width:8.64"/>
	<line x1="2918.40" y1="1108.22" x2="2918.40" y2="1100.17" style="stroke:#808080;stroke-width:8.64"/>
	<line x1="2918.40" y1="1100.17" x2="2923.22" y2="1100.17" style="stroke:#808080;stroke-width:8.64"/>
	<line x1="2935.60" y1="1095.22" x2="2935.60" y2="1092.25" style="stroke:#808080;stroke-width:8.64"/>
	<line x1="2935.60" y1="1092.25" x2="2952.80" y2="1092.25" style="stroke:#808080;stroke-width:8.64"/>
	<line x1="2952.80" y1="1092.25" x2="2952.80" y2="1084.21" style="stroke:#808080;stroke-width:8.64"/>
	<line x1="2952.80" y1="1084.21" x2="2964.93" y2="1084.21" style="stroke:#808080;stroke-width:8.64"/>
	<line x1="2973.96" y1="1076.16" x2="2987.20" y2="1076.16" style="stroke:#808080;stroke-width:8.64"/>
	<line x1="2987.20" y1="1076.16" x2="2987.20" y2="1068.24" style="stroke:#808080;stroke-width:8.64"/>
	<line x1="2987.20" y1="1068.24" x2="3004.40" y2="1068.24" style="stroke:#808080;stroke-width:8.64"/>
	<line x1="3004.40" y1="1068.24" x2="3004.40" y2="1066.26" style="stroke:#808080;stroke-width:8.64"/>
	<line x1="3015.79" y1="1060.32" x2="3021.60" y2="1060.32" style="stroke:#808080;stroke-width:8.64"/>
	<line x1="3021.60" y1="1060.32" x2="3021.60" y2="1052.40" style="stroke:#808080;stroke-width:8.64"/>
	<line x1="3021.60" y1="1052.40" x2="3038.80" y2="1052.40" style="stroke:#808080;stroke-width:8.64"/>
	<line x1="3038.80" y1="1052.40" x2="3038.80" y2="1044.36" style="stroke:#808080;stroke-width:8.64"/>
	<line x1="3038.80" y1="1044.36" x2="3040.17" y2="1044.36" style="stroke:#808080;stroke-width:8.64"/>
	<line x1="3055.88" y1="1042.87" x2="3055.88" y2="1036.44" style="stroke:#808080;stroke-width:8.64"/>
	<line x1="3055.88" y1="1036.44" x2="3073.08" y2="1036.44" style="stroke:#808080;stroke-width:8.64"/>
	<line x1="3073.08" y1="1036.44" x2="3073.08" y2="1028.52" style="stroke:#808080;stroke-width:8.64"/>
	<line x1="3073.08" y1="1028.52" x2="3081.87" y2="1028.52" style="stroke:#808080;stroke-width:8.64"/>
	<line x1="3091.15" y1="1020.60" x2="3107.49" y2="1020.60" style="stroke:#808080;stroke-width:8.64"/>
	<line x1="3107.49" y1="1020.60" x2="3107.49" y2="1012.80" style="stroke:#808080;stroke-width:8.64"/>
	<line x1="3107.49" y1="1012.80" x2="3123.70" y2="1012.80" style="stroke:#808080;stroke-width:8.64"/>
	<line x1="3132.98" y1="1004.88" x2="3141.89" y2="1004.88" style="stroke:#808080;stroke-width:8.64"/>
	<line x1="3141.89" y1="1004.88" x2="3141.89" y2="996.96" style="stroke:#808080;stroke-width:8.64"/>
	<line x1="3141.89" y1="996.96" x2="3159.09" y2="996.96" style="stroke:#808080;stroke-width:8.64"/>
	<line x1="3159.09" y1="996.96" x2="3159.09" y2="990.65" style="stroke:#808080;stroke-width:8.64"/>
	<line x1="3174.81" y1="989.04" x2="3176.29" y2="989.04" style="stroke:#808080;stroke-width:8.64"/>
	<line x1="3176.29" y1="989.04" x2="3176.29" y2="981.24" style="stroke:#808080;stroke-width:8.64"/>
	<line x1="3176.29" y1="981.24" x2="3193.49" y2="981.24" style="stroke:#808080;stroke-width:8.64"/>
	<line x1="3193.49" y1="981.24" x2="3193.49" y2="973.32" style="stroke:#808080;stroke-width:8.64"/>
	<line x1="3193.49" y1="973.32" x2="3199.43" y2="973.32" style="stroke:#808080;stroke-width:8.64"/>
	<line x1="3210.69" y1="967.38" x2="3210.69" y2="965.53" style="stroke:#808080;stroke-width:8.64"/>
	<line x1="3210.69" y1="965.53" x2="3227.89" y2="965.53" style="stroke:#808080;stroke-width:8.64"/>
	<line x1="3227.89" y1="965.53" x2="3227.89" y2="957.73" style="stroke:#808080;stroke-width:8.64"/>
	<line x1="3227.89" y1="957.73" x2="3241.38" y2="957.73" style="stroke:#808080;stroke-width:8.64"/>
	<line x1="3250.79" y1="949.81" x2="3262.30" y2="949.81" style="stroke:#808080;stroke-width:8.64"/>
	<line x1="3262.30" y1="949.81" x2="3262.30" y2="942.01" style="stroke:#808080;stroke-width:8.64"/>
	<line x1="3262.30" y1="942.01" x2="3279.50" y2="942.01" style="stroke:#808080;stroke-width:8.64"/>
	<line x1="3279.50" y1="942.01" x2="3279.50" y2="938.30" style="stroke:#808080;stroke-width:8.64"/>
	<line x1="3292.74" y1="934.22" x2="3296.58" y2="934.22" style="stroke:#808080;stroke-width:8.64"/>
	<line x1="3296.58" y1="934.22" x2="3296.58" y2="926.42" style="stroke:#808080;stroke-width:8.64"/>
	<line x1="3296.58" y1="926.42" x2="3313.78" y2="926.42" style="stroke:#808080;stroke-width:8.64"/>
	<line x1="3313.78" y1="926.42" x2="3313.78" y2="918.62" style="stroke:#808080;stroke-width:8.64"/>
	<line x1="3313.78" y1="918.62" x2="3317.49" y2="918.62" style="stroke:#808080;stroke-width:8.64"/>
	<line x1="3330.98" y1="914.91" x2="3330.98" y2="910.83" style="stroke:#808080;stroke-width:8.64"/>
	<line x1="3330.98" y1="910.83" x2="3348.18" y2="910.83" style="stroke:#808080;stroke-width:8.64"/>
	<line x1="3348.18" y1="910.83" x2="3348.18" y2="903.03" style="stroke:#808080;stroke-width:8.64"/>
	<line x1="3348.18" y1="903.03" x2="3359.44" y2="903.03" style="stroke:#808080;stroke-width:8.64"/>
	<line x1="3368.85" y1="895.24" x2="3382.58" y2="895.24" style="stroke:#808080;stroke-width:8.64"/>
	<line x1="3382.58" y1="895.24" x2="3382.58" y2="887.56" style="stroke:#808080;stroke-width:8.64"/>
	<line x1="3382.58" y1="887.56" x2="3399.78" y2="887.56" style="stroke:#808080;stroke-width:8.64"/>
	<line x1="3399.78" y1="887.56" x2="3399.78" y2="885.83" style="stroke:#808080;stroke-width:8.64"/>
	<line x1="3410.92" y1="879.77" x2="3416.99" y2="879.77" style="stroke:#808080;stroke-width:8.64"/>
	<line x1="3416.99" y1="879.77" x2="3416.99" y2="871.97" style="stroke:#808080;stroke-width:8.64"/>
	<line x1="3416.99" y1="871.97" x2="3434.19" y2="871.97" style="stroke:#808080;stroke-width:8.64"/>
	<line x1="3434.19" y1="871.97" x2="3434.19" y2="864.30" style="stroke:#808080;stroke-width:8.64"/>
	<line x1="3434.19" y1="864.30" x2="3435.80" y2="864.30" style="stroke:#808080;stroke-width:8.64"/>
	<line x1="3451.39" y1="862.69" x2="3451.39" y2="856.50" style="stroke:#808080;stroke-width:8.64"/>
	<line x1="3451.39" y1="856.50" x2="3468.59" y2="856.50" style="stroke:#808080;stroke-width:8.64"/>
	<line x1="3468.59" y1="856.50" x2="3468.59" y2="848.83" style="stroke:#808080;stroke-width:8.64"/>
	<line x1="3468.59" y1="848.83" x2="3477.87" y2="848.83" style="stroke:#808080;stroke-width:8.64"/>
	<line x1="3487.40" y1="841.03" x2="3502.99" y2="841.03" style="stroke:#808080;stroke-width:8.64"/>
	<line x1="3502.99" y1="841.03" x2="3502.99" y2="833.36" style="stroke:#808080;stroke-width:8.64"/>
	<line x1="3502.99" y1="833.36" x2="3520.07" y2="833.36" style="stroke:#808080;stroke-width:8.64"/>
	<line x1="3529.60" y1="825.69" x2="3537.27" y2="825.69" style="stroke:#808080;stroke-width:8.64"/>
	<line x1="3537.27" y1="825.69" x2="3537.27" y2="818.01" style="stroke:#808080;stroke-width:8.64"/>
	<line x1="3537.27" y1="818.01" x2="3554.47" y2="818.01" style="stroke:#808080;stroke-width:8.64"/>
	<line x1="3554.47" y1="818.01" x2="3554.47" y2="810.22" style="stroke:#808080;stroke-width:8.64"/>
	<line x1="3571.67" y1="810.22" x2="3571.67" y2="810.22" style="stroke:#808080;stroke-width:8.64"/>
	<line x1="3571.67" y1="810.22" x2="3571.67" y2="802.54" style="stroke:#808080;stroke-width:8.64"/>
	<line x1="3571.67" y1="802.54" x2="3588.87" y2="802.54" style="stroke:#808080;stroke-width:8.64"/>
	<line x1="3588.87" y1="802.54" x2="3588.87" y2="794.87" style="stroke:#808080;stroke-width:8.64"/>
	<line x1="3588.87" y1="794.87" x2="3596.67" y2="794.87" style="stroke:#808080;stroke-width:8.64"/>
	<line x1="3606.32" y1="787.20" x2="3623.28" y2="787.20" style="stroke:#808080;stroke-width:8.64"/>
	<line x1="3623.28" y1="787.20" x2="3623.28" y2="779.53" style="stroke:#808080;stroke-width:8.64"/>
	<line x1="3623.28" y1="779.53" x2="3638.99" y2="779.53" style="stroke:#808080;stroke-width:8.64"/>
	<line x1="3648.52" y1="771.85" x2="3657.68" y2="771.85" style="stroke:#808080;stroke-width:8.64"/>
	<line x1="3657.68" y1="771.85" x2="3657.68" y2="764.30" style="stroke:#808080;stroke-width:8.64"/>
	<line x1="3657.68" y1="764.30" x2="3674.88" y2="764.30" style="stroke:#808080;stroke-width:8.64"/>
	<line x1="3674.88" y1="764.30" x2="3674.88" y2="757.87" style="stroke:#808080;stroke-width:8.64"/>
	<line x1="3690.84" y1="756.63" x2="3692.08" y2="756.63" style="stroke:#808080;stroke-width:8.64"/>
	<line x1="3692.08" y1="756.63" x2="3692.08" y2="748.96" style="stroke:#808080;stroke-width:8.64"/>
	<line x1="3692.08" y1="748.96" x2="3709.28" y2="748.96" style="stroke:#808080;stroke-width:8.64"/>
	<line x1="3709.28" y1="748.96" x2="3709.28" y2="741.29" style="stroke:#808080;stroke-width:8.64"/>
	<line x1="3709.28" y1="741.29" x2="3715.84" y2="741.29" style="stroke:#808080;stroke-width:8.64"/>
	<line x1="3726.48" y1="734.73" x2="3726.48" y2="733.74" style="stroke:#808080;stroke-width:8.64"/>
	<line x1="3726.48" y1="733.74" x2="3743.68" y2="733.74" style="stroke:#808080;stroke-width:8.64"/>
	<line x1="3743.68" y1="733.74" x2="3743.68" y2="726.06" style="stroke:#808080;stroke-width:8.64"/>
	<line x1="3743.68" y1="726.06" x2="3758.16" y2="726.06" style="stroke:#808080;stroke-width:8.64"/>
	<line x1="3767.82" y1="718.51" x2="3777.96" y2="718.51" style="stroke:#808080;stroke-width:8.64"/>
	<line x1="3777.96" y1="718.51" x2="3777.96" y2="710.84" style="stroke:#808080;stroke-width:8.64"/>
	<line x1="3777.96" y1="710.84" x2="3795.16" y2="710.84" style="stroke:#808080;stroke-width:8.64"/>
	<line x1="3795.16" y1="710.84" x2="3795.16" y2="705.52" style="stroke:#808080;stroke-width:8.64"/>
	<path d="" stroke-linejoin="round" style="fill:none;stroke:#808080;stroke-width:8.64"/>
	<path d=" M717.75 2331.77 L734.95 2331.77 L734.95 2319.64 L752.15 2319.64 L752.15 2307.51 L769.35 2307.51 L769.35 2295.39 L786.55 2295.39 L786.55 2283.38 L803.76 2283.38 L803.76 2271.38 L820.96 2271.38 L820.96 2259.50 L838.16 2259.50 L838.16 2247.62 L855.36 2247.62 L855.36 2235.74 L872.56 2235.74 L872.56 2223.98 L889.76 2223.98 L889.76 2212.22 L906.84 2212.22 L906.84 2200.59 L924.04 2200.59 L924.04 2188.96 L941.24 2188.96 L941.24 2177.45 L958.44 2177.45 L958.44 2165.94 L975.64 2165.94 L975.64 2154.43 L992.85 2154.43 L992.85 2143.05 L1010.05 2143.05 L1010.05 2131.66 L1027.25 2131.66 L1027.25 2120.28 L1044.45 2120.28 L1044.45 2108.89 L1061.65 2108.89 L1061.65 2097.63 L1078.85 2097.63 L1078.85 2086.49 L1096.05 2086.49 L1096.05 2075.23 L1113.26 2075.23 L1113.26 2064.09 L1130.46 2064.09 L1130.46 2052.95 L1147.53 2052.95 L1147.53 2041.82 L1164.73 2041.82 L1164.73 2030.80 L1181.94 2030.80 L1181.94 2019.79 L1199.14 2019.79 L1199.14 2008.77 L1216.34 2008.77 L1216.34 1997.76 L1233.54 1997.76 L1233.54 1986.87 L1250.74 1986.87 L1250.74 1975.85 L1267.94 1975.85 L1267.94 1965.09 L1285.14 1965.09 L1285.14 1954.20 L1302.35 1954.20 L1302.35 1943.43 L1319.55 1943.43 L1319.55 1932.66 L1336.75 1932.66 L1336.75 1921.90 L1353.95 1921.90 L1353.95 1911.13 L1371.15 1911.13 L1371.15 1900.49 L1388.23 1900.49 L1388.23 1889.85 L1405.43 1889.85 L1405.43 1879.33 L1422.63 1879.33 L1422.63 1868.68 L1439.83 1868.68 L1439.83 1858.16 L1457.03 1858.16 L1457.03 1847.77 L1474.23 1847.77 L1474.23 1837.25 L1491.43 1837.25 L1491.43 1826.85 L1508.64 1826.85 L1508.64 1816.46 L1525.84 1816.46 L1525.84 1806.19 L1543.04 1806.19 L1543.04 1795.92 L1560.24 1795.92 L1560.24 1785.64 L1577.44 1785.64 L1577.44 1775.50 L1594.64 1775.50 L1594.64 1765.35 L1611.84 1765.35 L1611.84 1755.20 L1628.92 1755.20 L1628.92 1745.18 L1646.12 1745.18 L1646.12 1735.15 L1663.32 1735.15 L1663.32 1725.13 L1680.53 1725.13 L1680.53 1715.23 L1697.73 1715.23 L1697.73 1705.20 L1714.93 1705.20 L1714.93 1695.43 L1732.13 1695.43 L1732.13 1685.53 L1749.33 1685.53 L1749.33 1675.75 L1766.53 1675.75 L1766.53 1665.97 L1783.73 1665.97 L1783.73 1656.32 L1800.93 1656.32 L1800.93 1646.55 L1818.13 1646.55 L1818.13 1636.89 L1835.34 1636.89 L1835.34 1627.36 L1852.54 1627.36 L1852.54 1617.71 L1869.62 1617.71 L1869.62 1608.18 L1886.82 1608.18 L1886.82 1598.78 L1904.02 1598.78 L1904.02 1589.25 L1921.22 1589.25 L1921.22 1579.84 L1938.42 1579.84 L1938.42 1570.44 L1955.62 1570.44 L1955.62 1561.03 L1972.82 1561.03 L1972.82 1551.75 L1990.02 1551.75 L1990.02 1542.47 L2007.22 1542.47 L2007.22 1533.19 L2024.43 1533.19 L2024.43 1523.91 L2041.63 1523.91 L2041.63 1514.75 L2058.83 1514.75 L2058.83 1505.59 L2076.03 1505.59 L2076.03 1496.31 L2093.23 1496.31 L2093.23 1487.27 L2110.31 1487.27 L2110.31 1478.12 L2127.51 1478.12 L2127.51 1469.08 L2144.71 1469.08 L2144.71 1459.92 L2161.91 1459.92 L2161.91 1450.89 L2179.11 1450.89 L2179.11 1441.98 L2196.32 1441.98 L2196.32 1432.95 L2213.52 1432.95 L2213.52 1423.91 L2230.72 1423.91 L2230.72 1415.00 L2247.92 1415.00 L2247.92 1406.09 L2265.12 1406.09 L2265.12 1397.18 L2282.32 1397.18 L2282.32 1388.39 L2299.52 1388.39 L2299.52 1379.48 L2316.72 1379.48 L2316.72 1370.70 L2333.93 1370.70 L2333.93 1361.79 L2351.00 1361.79 L2351.00 1353.00 L2368.20 1353.00 L2368.20 1344.34 L2385.41 1344.34 L2385.41 1335.55 L2402.61 1335.55 L2402.61 1326.77 L2419.81 1326.77 L2419.81 1318.10 L2437.01 1318.10 L2437.01 1309.44 L2454.21 1309.44 L2454.21 1300.65 L2471.41 1300.65 L2471.41 1291.99 L2488.61 1291.99 L2488.61 1283.33 L2505.81 1283.33 L2505.81 1274.79 L2523.01 1274.79 L2523.01 1266.13 L2540.22 1266.13 L2540.22 1257.46 L2557.42 1257.46 L2557.42 1248.92 L2574.62 1248.92 L2574.62 1240.39 L2591.70 1240.39 L2591.70 1231.85 L2608.90 1231.85 L2608.90 1223.31 L2626.10 1223.31 L2626.10 1214.77 L2643.30 1214.77 L2643.30 1206.23 L2660.50 1206.23 L2660.50 1197.69 L2677.70 1197.69 L2677.70 1189.27 L2694.90 1189.27 L2694.90 1180.74 L2712.11 1180.74 L2712.11 1172.32 L2729.31 1172.32 L2729.31 1163.78 L2746.51 1163.78 L2746.51 1155.37 L2763.71 1155.37 L2763.71 1146.95 L2780.91 1146.95 L2780.91 1138.54 L2798.11 1138.54 L2798.11 1130.12 L2815.31 1130.12 L2815.31 1121.71 L2832.39 1121.71 L2832.39 1113.41 L2849.59 1113.41 L2849.59 1105.00 L2866.79 1105.00 L2866.79 1096.71 L2883.99 1096.71 L2883.99 1088.29 L2901.20 1088.29 L2901.20 1080.00 L2918.40 1080.00 L2918.40 1071.58 L2935.60 1071.58 L2935.60 1063.29 L2952.80 1063.29 L2952.80 1055.00 L2970.00 1055.00 L2970.00 1046.71 L2987.20 1046.71 L2987.20 1038.42 L3004.40 1038.42 L3004.40 1030.13 L3021.60 1030.13 L3021.60 1021.84 L3038.80 1021.84 L3038.80 1013.67 L3055.88 1013.67 L3055.88 1005.38 L3073.08 1005.38 L3073.08 997.21 L3090.28 997.21 L3090.28 988.92 L3107.49 988.92 L3107.49 980.75 L3124.69 980.75 L3124.69 972.46 L3141.89 972.46 L3141.89 964.29 L3159.09 964.29 L3159.09 956.12 L3176.29 956.12 L3176.29 947.95 L3193.49 947.95 L3193.49 939.79 L3210.69 939.79 L3210.69 931.62 L3227.89 931.62 L3227.89 923.45 L3245.10 923.45 L3245.10 915.28 L3262.30 915.28 L3262.30 907.12 L3279.50 907.12 L3279.50 898.95 L3296.58 898.95 L3296.58 890.90 L3313.78 890.90 L3313.78 882.74 L3330.98 882.74 L3330.98 874.69 L3348.18 874.69 L3348.18 866.52 L3365.38 866.52 L3365.38 858.48 L3382.58 858.48 L3382.58 850.31 L3399.78 850.31 L3399.78 842.27 L3416.99 842.27 L3416.99 834.22 L3434.19 834.22 L3434.19 826.06 L3451.39 826.06 L3451.39 818.01 L3468.59 818.01 L3468.59 809.97 L3485.79 809.97 L3485.79 801.93 L3502.99 801.93 L3502.99 793.88 L3520.19 793.88 L3520.19 785.84 L3537.27 785.84 L3537.27 777.79 L3554.47 777.79 L3554.47 769.75 L3571.67 769.75 L3571.67 761.83 L3588.87 761.83 L3588.87 753.78 L3606.07 753.78 L3606.07 745.74 L3623.28 745.74 L3623.28 737.82 L3640.48 737.82 L3640.48 729.78 L3657.68 729.78 L3657.68 721.86 L3674.88 721.86 L3674.88 713.81 L3692.08 713.81 L3692.08 705.89 L3709.28 705.89 L3709.28 697.85 L3726.48 697.85 L3726.48 689.93 L3743.68 689.93 L3743.68 682.01 L3760.89 682.01 L3760.89 674.09 L3777.96 674.09 L3777.96 666.04 L3795.16 666.04 L3795.16 658.12" stroke-linejoin="round" style="fill:none;stroke:#000000;stroke-width:8.64"/>
	<line x1="495.00" y1="2509.23" x2="495.00" y2="419.90" style="stroke:#000000;stroke-width:5.76"/>
	<line x1="495.00" y1="2445.87" x2="454.90" y2="2445.87" style="stroke:#000000;stroke-width:5.76"/>
	<text x="434.98" y="2480.90" style="font-family:'Helvetica';font-size:99.99px;fill:#000000" text-anchor="end">0</text>
	<line x1="495.00" y1="2331.28" x2="454.90" y2="2331.28" style="stroke:#000000;stroke-width:5.76"/>
	<text x="434.98" y="2366.30" style="font-family:'Helvetica';font-size:99.99px;fill:#000000" text-anchor="end">90</text>
	<line x1="495.00" y1="2216.68" x2="454.90" y2="2216.68" style="stroke:#000000;stroke-width:5.76"/>
	<text x="434.98" y="2251.71" style="font-family:'Helvetica';font-size:99.99px;fill:#000000" text-anchor="end">180</text>
	<line x1="495.00" y1="2102.08" x2="454.90" y2="2102.08" style="stroke:#000000;stroke-width:5.76"/>
	<text x="434.98" y="2137.11" style="font-family:'Helvetica';font-size:99.99px;fill:#000000" text-anchor="end">270</text>
	<line x1="495.00" y1="1987.49" x2="454.90" y2="1987.49" style="stroke:#000000;stroke-width:5.76"/>
	<text x="434.98" y="2022.52" style="font-family:'Helvetica';font-size:99.99px;fill:#000000" text-anchor="end">360</text>
	<line x1="495.00" y1="1872.89" x2="454.90" y2="1872.89" style="stroke:#000000;stroke-width:5.76"/>
	<text x="434.98" y="1907.92" style="font-family:'Helvetica';font-size:99.99px;fill:#000000" text-anchor="end">450</text>
	<line x1="495.00" y1="1758.29" x2="454.90" y2="1758.29" style="stroke:#000000;stroke-width:5.76"/>
	<text x="434.98" y="1793.32" style="font-family:'Helvetica';font-size:99.99px;fill:#000000" text-anchor="end">540</text>
	<text x="190.71" y="1464.63" style="font-family:'Helvetica';font-size:99.99px;fill:#000000" transform="rotate(-90 190.71,1464.63)" text-anchor="middle">LOS (years)</text>
	<line x1="495.00" y1="2509.23" x2="3859.02" y2="2509.23" style="stroke:#000000;stroke-width:5.76"/>
	<line x1="558.36" y1="2509.23" x2="558.36" y2="2549.21" style="stroke:#000000;stroke-width:5.76"/>
	<text x="558.36" y="2625.15" style="font-family:'Helvetica';font-size:79.94px;fill:#000000" text-anchor="middle">0</text>
	<line x1="752.52" y1="2509.23" x2="752.52" y2="2549.21" style="stroke:#000000;stroke-width:5.76"/>
	<text x="752.52" y="2625.15" style="font-family:'Helvetica';font-size:79.94px;fill:#000000" text-anchor="middle">.3</text>
	<line x1="946.81" y1="2509.23" x2="946.81" y2="2549.21" style="stroke:#000000;stroke-width:5.76"/>
	<text x="946.81" y="2625.15" style="font-family:'Helvetica';font-size:79.94px;fill:#000000" text-anchor="middle">.6</text>
	<line x1="1141.10" y1="2509.23" x2="1141.10" y2="2549.21" style="stroke:#000000;stroke-width:5.76"/>
	<text x="1141.10" y="2625.15" style="font-family:'Helvetica';font-size:79.94px;fill:#000000" text-anchor="middle">.9</text>
	<line x1="1335.26" y1="2509.23" x2="1335.26" y2="2549.21" style="stroke:#000000;stroke-width:5.76"/>
	<text x="1335.26" y="2625.15" style="font-family:'Helvetica';font-size:79.94px;fill:#000000" text-anchor="middle">1.2</text>
	<line x1="1529.55" y1="2509.23" x2="1529.55" y2="2549.21" style="stroke:#000000;stroke-width:5.76"/>
	<text x="1529.55" y="2625.15" style="font-family:'Helvetica';font-size:79.94px;fill:#000000" text-anchor="middle">1.5</text>
	<line x1="1723.71" y1="2509.23" x2="1723.71" y2="2549.21" style="stroke:#000000;stroke-width:5.76"/>
	<text x="1723.71" y="2625.15" style="font-family:'Helvetica';font-size:79.94px;fill:#000000" text-anchor="middle">1.8</text>
	<line x1="1918.00" y1="2509.23" x2="1918.00" y2="2549.21" style="stroke:#000000;stroke-width:5.76"/>
	<text x="1918.00" y="2625.15" style="font-family:'Helvetica';font-size:79.94px;fill:#000000" text-anchor="middle">2.1</text>
	<line x1="2112.29" y1="2509.23" x2="2112.29" y2="2549.21" style="stroke:#000000;stroke-width:5.76"/>
	<text x="2112.29" y="2625.15" style="font-family:'Helvetica';font-size:79.94px;fill:#000000" text-anchor="middle">2.4</text>
	<line x1="2306.45" y1="2509.23" x2="2306.45" y2="2549.21" style="stroke:#000000;stroke-width:5.76"/>
	<text x="2306.45" y="2625.15" style="font-family:'Helvetica';font-size:79.94px;fill:#000000" text-anchor="middle">2.7</text>
	<line x1="2500.74" y1="2509.23" x2="2500.74" y2="2549.21" style="stroke:#000000;stroke-width:5.76"/>
	<text x="2500.74" y="2625.15" style="font-family:'Helvetica';font-size:79.94px;fill:#000000" text-anchor="middle">3</text>
	<line x1="2695.03" y1="2509.23" x2="2695.03" y2="2549.21" style="stroke:#000000;stroke-width:5.76"/>
	<text x="2695.03" y="2625.15" style="font-family:'Helvetica';font-size:79.94px;fill:#000000" text-anchor="middle">3.3</text>
	<line x1="2889.19" y1="2509.23" x2="2889.19" y2="2549.21" style="stroke:#000000;stroke-width:5.76"/>
	<text x="2889.19" y="2625.15" style="font-family:'Helvetica';font-size:79.94px;fill:#000000" text-anchor="middle">3.6</text>
	<line x1="3083.48" y1="2509.23" x2="3083.48" y2="2549.21" style="stroke:#000000;stroke-width:5.76"/>
	<text x="3083.48" y="2625.15" style="font-family:'Helvetica';font-size:79.94px;fill:#000000" text-anchor="middle">3.9</text>
	<line x1="3277.77" y1="2509.23" x2="3277.77" y2="2549.21" style="stroke:#000000;stroke-width:5.76"/>
	<text x="3277.77" y="2625.15" style="font-family:'Helvetica';font-size:79.94px;fill:#000000" text-anchor="middle">4.2</text>
	<line x1="3471.93" y1="2509.23" x2="3471.93" y2="2549.21" style="stroke:#000000;stroke-width:5.76"/>
	<text x="3471.93" y="2625.15" style="font-family:'Helvetica';font-size:79.94px;fill:#000000" text-anchor="middle">4.5</text>
	<line x1="3666.22" y1="2509.23" x2="3666.22" y2="2549.21" style="stroke:#000000;stroke-width:5.76"/>
	<text x="3666.22" y="2625.15" style="font-family:'Helvetica';font-size:79.94px;fill:#000000" text-anchor="middle">4.8</text>
	<line x1="3860.51" y1="2509.23" x2="3860.51" y2="2549.21" style="stroke:#000000;stroke-width:5.76"/>
	<text x="3860.51" y="2625.15" style="font-family:'Helvetica';font-size:79.94px;fill:#000000" text-anchor="middle">5.1</text>
	<text x="2177.01" y="2729.16" style="font-family:'Helvetica';font-size:99.99px;fill:#000000" text-anchor="middle">Time (years)</text>
	<rect x="529.53" y="454.42" width="1384.02" height="606.39" style="fill:#FFFFFF"/>
	<rect x="532.41" y="457.30" width="1378.26" height="600.63" style="fill:none;stroke:#000000;stroke-width:5.76"/>
	<rect x="572.72" y="497.74" width="374.34" height="99.99" style="fill:#999999;fill-opacity:0.35"/>
	<rect x="577.03" y="502.06" width="365.70" height="91.35" style="fill:none;stroke:#808080;stroke-opacity:0.35;stroke-width:8.64"/>
	<rect x="572.72" y="637.70" width="374.34" height="99.99" style="fill:#333333;fill-opacity:0.35"/>
	<rect x="577.03" y="642.02" width="365.70" height="91.35" style="fill:none;stroke:#000000;stroke-opacity:0.35;stroke-width:8.64"/>
	<line x1="572.72" y1="827.67" x2="613.06" y2="827.67" style="stroke:#808080;stroke-width:8.64"/>
	<line x1="630.26" y1="827.67" x2="670.60" y2="827.67" style="stroke:#808080;stroke-width:8.64"/>
	<line x1="687.93" y1="827.67" x2="728.27" y2="827.67" style="stroke:#808080;stroke-width:8.64"/>
	<line x1="745.47" y1="827.67" x2="785.81" y2="827.67" style="stroke:#808080;stroke-width:8.64"/>
	<line x1="803.01" y1="827.67" x2="843.36" y2="827.67" style="stroke:#808080;stroke-width:8.64"/>
	<line x1="860.56" y1="827.67" x2="900.90" y2="827.67" style="stroke:#808080;stroke-width:8.64"/>
	<line x1="918.23" y1="827.67" x2="947.06" y2="827.67" style="stroke:#808080;stroke-width:8.64"/>
	<line x1="572.72" y1="967.63" x2="947.06" y2="967.63" style="stroke:#000000;stroke-width:8.64"/>
	<text x="1007.08" y="582.76" style="font-family:'Helvetica';font-size:99.99px;fill:#000000">Ambulatory CI95%</text>
	<text x="1007.08" y="722.73" style="font-family:'Helvetica';font-size:99.99px;fill:#000000">Residential CI95%</text>
	<text x="1007.08" y="862.69" style="font-family:'Helvetica';font-size:99.99px;fill:#000000">Ambulatory</text>
	<text x="1007.08" y="1002.66" style="font-family:'Helvetica';font-size:99.99px;fill:#000000">Residential</text>
	<text x="2177.01" y="369.63" style="font-family:'Helvetica';font-size:110.01px;fill:#000000" text-anchor="middle">in Second Readmission (TC) (RP)</text>
	<text x="2177.01" y="215.98" style="font-family:'Helvetica';font-size:139.96px;fill:#1E2D53" text-anchor="middle">Length of Stay(3y)</text>
</svg>
