<?xml version="1.0" encoding="UTF-8" standalone="no"?>
<!-- This is a Stata 16.1 generated SVG file (http://www.stata.com) -->

<svg version="1.1" width="5.50in" height="4.00in" viewBox="0 0 3960 2880" xmlns="http://www.w3.org/2000/svg" xmlns:xlink="http://www.w3.org/1999/xlink">
	<desc>Stata Graph - los_models_22_0_22</desc>
	<rect x="0" y="0" width="3960" height="2880" style="fill:#EAF2F3;stroke:none"/>
	<rect x="0.00" y="0.00" width="3959.88" height="2880.00" style="fill:#FFFFFF"/>
	<rect x="2.88" y="2.88" width="3954.12" height="2874.24" style="fill:none;stroke:#FFFFFF;stroke-width:5.76"/>
	<rect x="495.00" y="419.90" width="3364.02" height="2089.34" style="fill:#FFFFFF"/>
	<rect x="497.88" y="422.78" width="3358.26" height="2083.58" style="fill:none;stroke:#FFFFFF;stroke-width:5.76"/>
	<line x1="495.00" y1="2316.05" x2="3859.02" y2="2316.05" style="stroke:#EAF2F3;stroke-width:8.64"/>
	<line x1="495.00" y1="2186.24" x2="3859.02" y2="2186.24" style="stroke:#EAF2F3;stroke-width:8.64"/>
	<line x1="495.00" y1="2056.42" x2="3859.02" y2="2056.42" style="stroke:#EAF2F3;stroke-width:8.64"/>
	<line x1="495.00" y1="1926.72" x2="3859.02" y2="1926.72" style="stroke:#EAF2F3;stroke-width:8.64"/>
	<defs>
		<path id="path_RqsRsocP" d="M717.87 2318.03 L717.87 2318.03 L735.08 2318.03 L735.08 2304.67 L752.28 2304.67 L752.28 2291.30 L769.48 2291.30 L769.48 2278.06 L786.55 2278.06 L786.55 2264.94 L803.76 2264.94 L803.76 2251.83 L820.96 2251.83 L820.96 2238.83 L838.16 2238.83 L838.16 2225.84 L855.36 2225.84 L855.36 2212.97 L872.56 2212.97 L872.56 2200.22 L889.76 2200.22 L889.76 2187.47 L906.96 2187.47 L906.96 2174.85 L924.16 2174.85 L924.16 2162.23 L941.37 2162.23 L941.37 2149.73 L958.57 2149.73 L958.57 2137.23 L975.77 2137.23 L975.77 2124.85 L992.97 2124.85 L992.97 2112.48 L1010.17 2112.48 L1010.17 2100.23 L1027.25 2100.23 L1027.25 2088.10 L1044.45 2088.10 L1044.45 2075.97 L1061.65 2075.97 L1061.65 2063.84 L1078.85 2063.84 L1078.85 2051.84 L1096.05 2051.84 L1096.05 2039.83 L1113.26 2039.83 L1113.26 2027.95 L1130.46 2027.95 L1130.46 2016.07 L1147.66 2016.07 L1147.66 2004.32 L1164.86 2004.32 L1164.86 1992.56 L1182.06 1992.56 L1182.06 1980.93 L1199.26 1980.93 L1199.26 1969.30 L1216.46 1969.30 L1216.46 1957.66 L1233.66 1957.66 L1233.66 1946.15 L1250.87 1946.15 L1250.87 1934.64 L1267.94 1934.64 L1267.94 1923.26 L1285.14 1923.26 L1285.14 1911.87 L1302.35 1911.87 L1302.35 1900.61 L1319.55 1900.61 L1319.55 1889.35 L1336.75 1889.35 L1336.75 1878.09 L1353.95 1878.09 L1353.95 1866.95 L1371.15 1866.95 L1371.15 1855.81 L1388.35 1855.81 L1388.35 1844.68 L1405.55 1844.68 L1405.55 1833.66 L1422.75 1833.66 L1422.75 1822.65 L1439.95 1822.65 L1439.95 1811.76 L1457.16 1811.76 L1457.16 1800.87 L1474.36 1800.87 L1474.36 1789.98 L1491.56 1789.98 L1491.56 1779.21 L1508.64 1779.21 L1508.64 1768.44 L1525.84 1768.44 L1525.84 1757.68 L1543.04 1757.68 L1543.04 1747.03 L1560.24 1747.03 L1560.24 1736.27 L1577.44 1736.27 L1577.44 1725.75 L1594.64 1725.75 L1594.64 1715.10 L1611.84 1715.10 L1611.84 1704.59 L1629.05 1704.59 L1629.05 1694.07 L1646.25 1694.07 L1646.25 1683.67 L1663.45 1683.67 L1663.45 1673.15 L1680.65 1673.15 L1680.65 1662.76 L1697.85 1662.76 L1697.85 1652.49 L1715.05 1652.49 L1715.05 1642.09 L1732.25 1642.09 L1732.25 1631.82 L1749.33 1631.82 L1749.33 1621.55 L1766.53 1621.55 L1766.53 1611.40 L1783.73 1611.40 L1783.73 1601.13 L1800.93 1601.13 L1800.93 1590.98 L1818.13 1590.98 L1818.13 1580.96 L1835.34 1580.96 L1835.34 1570.81 L1852.54 1570.81 L1852.54 1560.78 L1869.74 1560.78 L1869.74 1550.76 L1886.94 1550.76 L1886.94 1540.86 L1904.14 1540.86 L1904.14 1530.84 L1921.34 1530.84 L1921.34 1520.94 L1938.54 1520.94 L1938.54 1511.03 L1955.74 1511.03 L1955.74 1501.26 L1972.95 1501.26 L1972.95 1491.36 L1990.02 1491.36 L1990.02 1481.58 L2007.22 1481.58 L2007.22 1471.93 L2024.43 1471.93 L2024.43 1462.15 L2041.63 1462.15 L2041.63 1452.50 L2058.83 1452.50 L2058.83 1442.72 L2076.03 1442.72 L2076.03 1433.19 L2093.23 1433.19 L2093.23 1423.54 L2110.43 1423.54 L2110.43 1413.89 L2127.63 1413.89 L2127.63 1404.36 L2144.84 1404.36 L2144.84 1394.83 L2162.04 1394.83 L2162.04 1385.30 L2179.24 1385.30 L2179.24 1375.90 L2196.44 1375.90 L2196.44 1366.37 L2213.64 1366.37 L2213.64 1356.96 L2230.72 1356.96 L2230.72 1347.56 L2247.92 1347.56 L2247.92 1338.15 L2265.12 1338.15 L2265.12 1328.87 L2282.32 1328.87 L2282.32 1319.59 L2299.52 1319.59 L2299.52 1310.18 L2316.72 1310.18 L2316.72 1300.90 L2333.93 1300.90 L2333.93 1291.74 L2351.13 1291.74 L2351.13 1282.46 L2368.33 1282.46 L2368.33 1273.30 L2385.53 1273.30 L2385.53 1264.15 L2402.73 1264.15 L2402.73 1254.99 L2419.93 1254.99 L2419.93 1245.83 L2437.13 1245.83 L2437.13 1236.67 L2454.33 1236.67 L2454.33 1227.64 L2471.41 1227.64 L2471.41 1218.60 L2488.61 1218.60 L2488.61 1209.45 L2505.81 1209.45 L2505.81 1200.54 L2523.01 1200.54 L2523.01 1191.50 L2540.22 1191.50 L2540.22 1182.47 L2557.42 1182.47 L2557.42 1173.56 L2574.62 1173.56 L2574.62 1164.65 L2591.82 1164.65 L2591.82 1155.74 L2609.02 1155.74 L2609.02 1146.83 L2626.22 1146.83 L2626.22 1138.04 L2643.42 1138.04 L2643.42 1129.13 L2660.63 1129.13 L2660.63 1120.34 L2677.83 1120.34 L2677.83 1111.56 L2695.03 1111.56 L2695.03 1102.77 L2712.11 1102.77 L2712.11 1093.98 L2729.31 1093.98 L2729.31 1085.20 L2746.51 1085.20 L2746.51 1076.53 L2763.71 1076.53 L2763.71 1067.87 L2780.91 1067.87 L2780.91 1059.21 L2798.11 1059.21 L2798.11 1050.55 L2815.31 1050.55 L2815.31 1041.88 L2832.51 1041.88 L2832.51 1033.22 L2849.72 1033.22 L2849.72 1024.68 L2866.92 1024.68 L2866.92 1016.02 L2884.12 1016.02 L2884.12 1007.48 L2901.32 1007.48 L2901.32 998.94 L2918.52 998.94 L2918.52 990.40 L2935.72 990.40 L2935.72 981.99 L2952.80 981.99 L2952.80 973.45 L2970.00 973.45 L2970.00 965.03 L2987.20 965.03 L2987.20 956.49 L3004.40 956.49 L3004.40 948.08 L3021.60 948.08 L3021.60 939.66 L3038.80 939.66 L3038.80 931.37 L3056.01 931.37 L3056.01 922.96 L3073.21 922.96 L3073.21 914.54 L3090.41 914.54 L3090.41 906.25 L3107.61 906.25 L3107.61 897.96 L3124.81 897.96 L3124.81 889.67 L3142.01 889.67 L3142.01 881.38 L3159.21 881.38 L3159.21 873.08 L3176.29 873.08 L3176.29 864.92 L3193.49 864.92 L3193.49 856.62 L3210.69 856.62 L3210.69 848.46 L3227.89 848.46 L3227.89 840.29 L3245.10 840.29 L3245.10 832.12 L3262.30 832.12 L3262.30 823.95 L3279.50 823.95 L3279.50 815.79 L3296.70 815.79 L3296.70 807.74 L3313.90 807.74 L3313.90 799.57 L3331.10 799.57 L3331.10 791.53 L3348.30 791.53 L3348.30 783.49 L3365.51 783.49 L3365.51 775.32 L3382.71 775.32 L3382.71 767.27 L3399.91 767.27 L3399.91 759.35 L3416.99 759.35 L3416.99 751.31 L3434.19 751.31 L3434.19 743.27 L3451.39 743.27 L3451.39 735.35 L3468.59 735.35 L3468.59 727.43 L3485.79 727.43 L3485.79 719.38 L3502.99 719.38 L3502.99 711.46 L3520.19 711.46 L3520.19 703.54 L3537.39 703.54 L3537.39 695.62 L3554.59 695.62 L3554.59 687.82 L3571.80 687.82 L3571.80 679.90 L3589.00 679.90 L3589.00 672.11 L3606.20 672.11 L3606.20 664.19 L3623.40 664.19 L3623.40 656.39 L3640.60 656.39 L3640.60 648.59 L3657.68 648.59 L3657.68 640.80 L3674.88 640.80 L3674.88 633.00 L3692.08 633.00 L3692.08 625.20 L3709.28 625.20 L3709.28 617.53 L3726.48 617.53 L3726.48 609.74 L3743.68 609.74 L3743.68 602.06 L3760.89 602.06 L3760.89 594.27 L3778.09 594.27 L3778.09 586.59 L3795.29 586.59 L3795.29 578.92 L3795.29 483.26 L3795.29 491.55 L3778.09 491.55 L3778.09 499.84 L3760.89 499.84 L3760.89 508.26 L3743.68 508.26 L3743.68 516.55 L3726.48 516.55 L3726.48 524.96 L3709.28 524.96 L3709.28 533.26 L3692.08 533.26 L3692.08 541.67 L3674.88 541.67 L3674.88 550.09 L3657.68 550.09 L3657.68 558.50 L3640.60 558.50 L3640.60 566.92 L3623.40 566.92 L3623.40 575.33 L3606.20 575.33 L3606.20 583.75 L3589.00 583.75 L3589.00 592.29 L3571.80 592.29 L3571.80 600.70 L3554.59 600.70 L3554.59 609.24 L3537.39 609.24 L3537.39 617.78 L3520.19 617.78 L3520.19 626.32 L3502.99 626.32 L3502.99 634.86 L3485.79 634.86 L3485.79 643.40 L3468.59 643.40 L3468.59 651.94 L3451.39 651.94 L3451.39 660.60 L3434.19 660.60 L3434.19 669.14 L3416.99 669.14 L3416.99 677.80 L3399.91 677.80 L3399.91 686.46 L3382.71 686.46 L3382.71 695.13 L3365.51 695.13 L3365.51 703.79 L3348.30 703.79 L3348.30 712.45 L3331.10 712.45 L3331.10 721.11 L3313.90 721.11 L3313.90 729.78 L3296.70 729.78 L3296.70 738.56 L3279.50 738.56 L3279.50 747.35 L3262.30 747.35 L3262.30 756.01 L3245.10 756.01 L3245.10 764.80 L3227.89 764.80 L3227.89 773.59 L3210.69 773.59 L3210.69 782.37 L3193.49 782.37 L3193.49 791.28 L3176.29 791.28 L3176.29 800.07 L3159.21 800.07 L3159.21 808.98 L3142.01 808.98 L3142.01 817.89 L3124.81 817.89 L3124.81 826.68 L3107.61 826.68 L3107.61 835.59 L3090.41 835.59 L3090.41 844.62 L3073.21 844.62 L3073.21 853.53 L3056.01 853.53 L3056.01 862.44 L3038.80 862.44 L3038.80 871.47 L3021.60 871.47 L3021.60 880.51 L3004.40 880.51 L3004.40 889.54 L2987.20 889.54 L2987.20 898.58 L2970.00 898.58 L2970.00 907.61 L2952.80 907.61 L2952.80 916.77 L2935.72 916.77 L2935.72 925.80 L2918.52 925.80 L2918.52 934.96 L2901.32 934.96 L2901.32 944.12 L2884.12 944.12 L2884.12 953.28 L2866.92 953.28 L2866.92 962.43 L2849.72 962.43 L2849.72 971.59 L2832.51 971.59 L2832.51 980.87 L2815.31 980.87 L2815.31 990.03 L2798.11 990.03 L2798.11 999.31 L2780.91 999.31 L2780.91 1008.59 L2763.71 1008.59 L2763.71 1017.88 L2746.51 1017.88 L2746.51 1027.16 L2729.31 1027.16 L2729.31 1036.56 L2712.11 1036.56 L2712.11 1045.84 L2695.03 1045.84 L2695.03 1055.25 L2677.83 1055.25 L2677.83 1064.65 L2660.63 1064.65 L2660.63 1074.06 L2643.42 1074.06 L2643.42 1083.47 L2626.22 1083.47 L2626.22 1092.87 L2609.02 1092.87 L2609.02 1102.40 L2591.82 1102.40 L2591.82 1111.93 L2574.62 1111.93 L2574.62 1121.33 L2557.42 1121.33 L2557.42 1130.99 L2540.22 1130.99 L2540.22 1140.52 L2523.01 1140.52 L2523.01 1150.04 L2505.81 1150.04 L2505.81 1159.70 L2488.61 1159.70 L2488.61 1169.35 L2471.41 1169.35 L2471.41 1179.00 L2454.33 1179.00 L2454.33 1188.66 L2437.13 1188.66 L2437.13 1198.31 L2419.93 1198.31 L2419.93 1207.96 L2402.73 1207.96 L2402.73 1217.74 L2385.53 1217.74 L2385.53 1227.51 L2368.33 1227.51 L2368.33 1237.29 L2351.13 1237.29 L2351.13 1247.07 L2333.93 1247.07 L2333.93 1256.97 L2316.72 1256.97 L2316.72 1266.74 L2299.52 1266.74 L2299.52 1276.64 L2282.32 1276.64 L2282.32 1286.55 L2265.12 1286.55 L2265.12 1296.45 L2247.92 1296.45 L2247.92 1306.47 L2230.72 1306.47 L2230.72 1316.37 L2213.64 1316.37 L2213.64 1326.39 L2196.44 1326.39 L2196.44 1336.42 L2179.24 1336.42 L2179.24 1346.44 L2162.04 1346.44 L2162.04 1356.59 L2144.84 1356.59 L2144.84 1366.61 L2127.63 1366.61 L2127.63 1376.76 L2110.43 1376.76 L2110.43 1386.91 L2093.23 1386.91 L2093.23 1397.06 L2076.03 1397.06 L2076.03 1407.33 L2058.83 1407.33 L2058.83 1417.48 L2041.63 1417.48 L2041.63 1427.75 L2024.43 1427.75 L2024.43 1438.02 L2007.22 1438.02 L2007.22 1448.29 L1990.02 1448.29 L1990.02 1458.69 L1972.95 1458.69 L1972.95 1469.08 L1955.74 1469.08 L1955.74 1479.48 L1938.54 1479.48 L1938.54 1489.87 L1921.34 1489.87 L1921.34 1500.39 L1904.14 1500.39 L1904.14 1510.79 L1886.94 1510.79 L1886.94 1521.31 L1869.74 1521.31 L1869.74 1531.95 L1852.54 1531.95 L1852.54 1542.47 L1835.34 1542.47 L1835.34 1553.11 L1818.13 1553.11 L1818.13 1563.75 L1800.93 1563.75 L1800.93 1574.40 L1783.73 1574.40 L1783.73 1585.16 L1766.53 1585.16 L1766.53 1595.93 L1749.33 1595.93 L1749.33 1606.70 L1732.25 1606.70 L1732.25 1617.46 L1715.05 1617.46 L1715.05 1628.35 L1697.85 1628.35 L1697.85 1639.24 L1680.65 1639.24 L1680.65 1650.13 L1663.45 1650.13 L1663.45 1661.15 L1646.25 1661.15 L1646.25 1672.16 L1629.05 1672.16 L1629.05 1683.18 L1611.84 1683.18 L1611.84 1694.19 L1594.64 1694.19 L1594.64 1705.33 L1577.44 1705.33 L1577.44 1716.47 L1560.24 1716.47 L1560.24 1727.60 L1543.04 1727.60 L1543.04 1738.74 L1525.84 1738.74 L1525.84 1750.00 L1508.64 1750.00 L1508.64 1761.27 L1491.56 1761.27 L1491.56 1772.65 L1474.36 1772.65 L1474.36 1783.91 L1457.16 1783.91 L1457.16 1795.30 L1439.95 1795.30 L1439.95 1806.81 L1422.75 1806.81 L1422.75 1818.19 L1405.55 1818.19 L1405.55 1829.82 L1388.35 1829.82 L1388.35 1841.33 L1371.15 1841.33 L1371.15 1852.97 L1353.95 1852.97 L1353.95 1864.60 L1336.75 1864.60 L1336.75 1876.23 L1319.55 1876.23 L1319.55 1887.99 L1302.35 1887.99 L1302.35 1899.75 L1285.14 1899.75 L1285.14 1911.63 L1267.94 1911.63 L1267.94 1923.51 L1250.87 1923.51 L1250.87 1935.39 L1233.66 1935.39 L1233.66 1947.27 L1216.46 1947.27 L1216.46 1959.39 L1199.26 1959.39 L1199.26 1971.40 L1182.06 1971.40 L1182.06 1983.53 L1164.86 1983.53 L1164.86 1995.65 L1147.66 1995.65 L1147.66 2007.91 L1130.46 2007.91 L1130.46 2020.16 L1113.26 2020.16 L1113.26 2032.41 L1096.05 2032.41 L1096.05 2044.79 L1078.85 2044.79 L1078.85 2057.28 L1061.65 2057.28 L1061.65 2069.66 L1044.45 2069.66 L1044.45 2082.28 L1027.25 2082.28 L1027.25 2094.78 L1010.17 2094.78 L1010.17 2107.40 L992.97 2107.40 L992.97 2120.15 L975.77 2120.15 L975.77 2132.90 L958.57 2132.90 L958.57 2145.64 L941.37 2145.64 L941.37 2158.51 L924.16 2158.51 L924.16 2171.39 L906.96 2171.39 L906.96 2184.38 L889.76 2184.38 L889.76 2197.37 L872.56 2197.37 L872.56 2210.49 L855.36 2210.49 L855.36 2223.61 L838.16 2223.61 L838.16 2236.85 L820.96 2236.85 L820.96 2250.09 L803.76 2250.09 L803.76 2263.46 L786.55 2263.46 L786.55 2276.82 L769.48 2276.82 L769.48 2290.31 L752.28 2290.31 L752.28 2303.80 L735.08 2303.80 L735.08 2317.41 L717.87 2317.41 L717.87 2318.03 Z" stroke-linejoin="round"/>
	</defs>
	<defs>
		<clipPath id="clipPath_KSiddjLT">
			<use xlink:href="#path_RqsRsocP"/>
		</clipPath>
	</defs>
	<use xlink:href="#path_RqsRsocP" style="stroke:none;fill:#999999;fill-opacity:0.35"/>
	<use xlink:href="#path_RqsRsocP" style="fill:none;stroke:#808080;stroke-opacity:0.35;stroke-width:17.28" clip-path="url(#clipPath_KSiddjLT)"/>
	<defs>
		<path id="path_crVxOTOc" d="M717.87 2318.16 L717.87 2318.16 L735.08 2318.16 L735.08 2304.67 L752.28 2304.67 L752.28 2291.43 L769.48 2291.43 L769.48 2278.18 L786.55 2278.18 L786.55 2265.07 L803.76 2265.07 L803.76 2251.95 L820.96 2251.95 L820.96 2239.08 L838.16 2239.08 L838.16 2226.08 L855.36 2226.08 L855.36 2213.34 L872.56 2213.34 L872.56 2200.59 L889.76 2200.59 L889.76 2187.84 L906.96 2187.84 L906.96 2175.22 L924.16 2175.22 L924.16 2162.72 L941.37 2162.72 L941.37 2150.22 L958.57 2150.22 L958.57 2137.85 L975.77 2137.85 L975.77 2125.47 L992.97 2125.47 L992.97 2113.22 L1010.17 2113.22 L1010.17 2100.97 L1027.25 2100.97 L1027.25 2088.84 L1044.45 2088.84 L1044.45 2076.71 L1061.65 2076.71 L1061.65 2064.71 L1078.85 2064.71 L1078.85 2052.83 L1096.05 2052.83 L1096.05 2040.83 L1113.26 2040.83 L1113.26 2029.07 L1130.46 2029.07 L1130.46 2017.19 L1147.66 2017.19 L1147.66 2005.56 L1164.86 2005.56 L1164.86 1993.80 L1182.06 1993.80 L1182.06 1982.17 L1199.26 1982.17 L1199.26 1970.66 L1216.46 1970.66 L1216.46 1959.15 L1233.66 1959.15 L1233.66 1947.64 L1250.87 1947.64 L1250.87 1936.25 L1267.94 1936.25 L1267.94 1924.87 L1285.14 1924.87 L1285.14 1913.61 L1302.35 1913.61 L1302.35 1902.34 L1319.55 1902.34 L1319.55 1891.08 L1336.75 1891.08 L1336.75 1879.94 L1353.95 1879.94 L1353.95 1868.81 L1371.15 1868.81 L1371.15 1857.79 L1388.35 1857.79 L1388.35 1846.78 L1405.55 1846.78 L1405.55 1835.76 L1422.75 1835.76 L1422.75 1824.87 L1439.95 1824.87 L1439.95 1813.98 L1457.16 1813.98 L1457.16 1803.09 L1474.36 1803.09 L1474.36 1792.33 L1491.56 1792.33 L1491.56 1781.56 L1508.64 1781.56 L1508.64 1770.79 L1525.84 1770.79 L1525.84 1760.15 L1543.04 1760.15 L1543.04 1749.51 L1560.24 1749.51 L1560.24 1738.87 L1577.44 1738.87 L1577.44 1728.22 L1594.64 1728.22 L1594.64 1717.70 L1611.84 1717.70 L1611.84 1707.18 L1629.05 1707.18 L1629.05 1696.79 L1646.25 1696.79 L1646.25 1686.39 L1663.45 1686.39 L1663.45 1676.00 L1680.65 1676.00 L1680.65 1665.60 L1697.85 1665.60 L1697.85 1655.33 L1715.05 1655.33 L1715.05 1645.06 L1732.25 1645.06 L1732.25 1634.79 L1749.33 1634.79 L1749.33 1624.64 L1766.53 1624.64 L1766.53 1614.37 L1783.73 1614.37 L1783.73 1604.22 L1800.93 1604.22 L1800.93 1594.20 L1818.13 1594.20 L1818.13 1584.05 L1835.34 1584.05 L1835.34 1574.03 L1852.54 1574.03 L1852.54 1564.00 L1869.74 1564.00 L1869.74 1554.10 L1886.94 1554.10 L1886.94 1544.08 L1904.14 1544.08 L1904.14 1534.18 L1921.34 1534.18 L1921.34 1524.40 L1938.54 1524.40 L1938.54 1514.50 L1955.74 1514.50 L1955.74 1504.72 L1972.95 1504.72 L1972.95 1494.95 L1990.02 1494.95 L1990.02 1485.17 L2007.22 1485.17 L2007.22 1475.39 L2024.43 1475.39 L2024.43 1465.74 L2041.63 1465.74 L2041.63 1456.09 L2058.83 1456.09 L2058.83 1446.44 L2076.03 1446.44 L2076.03 1436.78 L2093.23 1436.78 L2093.23 1427.25 L2110.43 1427.25 L2110.43 1417.72 L2127.63 1417.72 L2127.63 1408.20 L2144.84 1408.20 L2144.84 1398.67 L2162.04 1398.67 L2162.04 1389.14 L2179.24 1389.14 L2179.24 1379.73 L2196.44 1379.73 L2196.44 1370.33 L2213.64 1370.33 L2213.64 1360.92 L2230.72 1360.92 L2230.72 1351.52 L2247.92 1351.52 L2247.92 1342.23 L2265.12 1342.23 L2265.12 1332.95 L2282.32 1332.95 L2282.32 1323.67 L2299.52 1323.67 L2299.52 1314.39 L2316.72 1314.39 L2316.72 1305.11 L2333.93 1305.11 L2333.93 1295.95 L2351.13 1295.95 L2351.13 1286.79 L2368.33 1286.79 L2368.33 1277.63 L2385.53 1277.63 L2385.53 1268.48 L2402.73 1268.48 L2402.73 1259.32 L2419.93 1259.32 L2419.93 1250.29 L2437.13 1250.29 L2437.13 1241.25 L2454.33 1241.25 L2454.33 1232.22 L2471.41 1232.22 L2471.41 1223.18 L2488.61 1223.18 L2488.61 1214.15 L2505.81 1214.15 L2505.81 1205.24 L2523.01 1205.24 L2523.01 1196.20 L2540.22 1196.20 L2540.22 1187.29 L2557.42 1187.29 L2557.42 1178.38 L2574.62 1178.38 L2574.62 1169.47 L2591.82 1169.47 L2591.82 1160.69 L2609.02 1160.69 L2609.02 1151.78 L2626.22 1151.78 L2626.22 1142.99 L2643.42 1142.99 L2643.42 1134.20 L2660.63 1134.20 L2660.63 1125.42 L2677.83 1125.42 L2677.83 1116.63 L2695.03 1116.63 L2695.03 1107.97 L2712.11 1107.97 L2712.11 1099.18 L2729.31 1099.18 L2729.31 1090.52 L2746.51 1090.52 L2746.51 1081.86 L2763.71 1081.86 L2763.71 1073.19 L2780.91 1073.19 L2780.91 1064.65 L2798.11 1064.65 L2798.11 1055.99 L2815.31 1055.99 L2815.31 1047.45 L2832.51 1047.45 L2832.51 1038.91 L2849.72 1038.91 L2849.72 1030.37 L2866.92 1030.37 L2866.92 1021.84 L2884.12 1021.84 L2884.12 1013.30 L2901.32 1013.30 L2901.32 1004.76 L2918.52 1004.76 L2918.52 996.34 L2935.72 996.34 L2935.72 987.93 L2952.80 987.93 L2952.80 979.51 L2970.00 979.51 L2970.00 971.10 L2987.20 971.10 L2987.20 962.68 L3004.40 962.68 L3004.40 954.27 L3021.60 954.27 L3021.60 945.97 L3038.80 945.97 L3038.80 937.56 L3056.01 937.56 L3056.01 929.27 L3073.21 929.27 L3073.21 920.98 L3090.41 920.98 L3090.41 912.68 L3107.61 912.68 L3107.61 904.39 L3124.81 904.39 L3124.81 896.23 L3142.01 896.23 L3142.01 887.93 L3159.21 887.93 L3159.21 879.77 L3176.29 879.77 L3176.29 871.60 L3193.49 871.60 L3193.49 863.43 L3210.69 863.43 L3210.69 855.26 L3227.89 855.26 L3227.89 847.10 L3245.10 847.10 L3245.10 838.93 L3262.30 838.93 L3262.30 830.88 L3279.50 830.88 L3279.50 822.84 L3296.70 822.84 L3296.70 814.67 L3313.90 814.67 L3313.90 806.63 L3331.10 806.63 L3331.10 798.58 L3348.30 798.58 L3348.30 790.66 L3365.51 790.66 L3365.51 782.62 L3382.71 782.62 L3382.71 774.58 L3399.91 774.58 L3399.91 766.66 L3416.99 766.66 L3416.99 758.73 L3434.19 758.73 L3434.19 750.69 L3451.39 750.69 L3451.39 742.77 L3468.59 742.77 L3468.59 734.97 L3485.79 734.97 L3485.79 727.05 L3502.99 727.05 L3502.99 719.13 L3520.19 719.13 L3520.19 711.34 L3537.39 711.34 L3537.39 703.42 L3554.59 703.42 L3554.59 695.62 L3571.80 695.62 L3571.80 687.82 L3589.00 687.82 L3589.00 680.03 L3606.20 680.03 L3606.20 672.23 L3623.40 672.23 L3623.40 664.43 L3640.60 664.43 L3640.60 656.76 L3657.68 656.76 L3657.68 648.97 L3674.88 648.97 L3674.88 641.29 L3692.08 641.29 L3692.08 633.50 L3709.28 633.50 L3709.28 625.82 L3726.48 625.82 L3726.48 618.15 L3743.68 618.15 L3743.68 610.48 L3760.89 610.48 L3760.89 602.81 L3778.09 602.81 L3778.09 595.13 L3795.29 595.13 L3795.29 587.58 L3795.29 495.14 L3795.29 503.31 L3778.09 503.31 L3778.09 511.60 L3760.89 511.60 L3760.89 519.89 L3743.68 519.89 L3743.68 528.18 L3726.48 528.18 L3726.48 536.47 L3709.28 536.47 L3709.28 544.76 L3692.08 544.76 L3692.08 553.06 L3674.88 553.06 L3674.88 561.47 L3657.68 561.47 L3657.68 569.76 L3640.60 569.76 L3640.60 578.18 L3623.40 578.18 L3623.40 586.47 L3606.20 586.47 L3606.20 594.88 L3589.00 594.88 L3589.00 603.30 L3571.80 603.30 L3571.80 611.72 L3554.59 611.72 L3554.59 620.25 L3537.39 620.25 L3537.39 628.67 L3520.19 628.67 L3520.19 637.08 L3502.99 637.08 L3502.99 645.62 L3485.79 645.62 L3485.79 654.16 L3468.59 654.16 L3468.59 662.58 L3451.39 662.58 L3451.39 671.12 L3434.19 671.12 L3434.19 679.66 L3416.99 679.66 L3416.99 688.20 L3399.91 688.20 L3399.91 696.86 L3382.71 696.86 L3382.71 705.40 L3365.51 705.40 L3365.51 714.06 L3348.30 714.06 L3348.30 722.60 L3331.10 722.60 L3331.10 731.26 L3313.90 731.26 L3313.90 739.92 L3296.70 739.92 L3296.70 748.59 L3279.50 748.59 L3279.50 757.25 L3262.30 757.25 L3262.30 766.04 L3245.10 766.04 L3245.10 774.70 L3227.89 774.70 L3227.89 783.49 L3210.69 783.49 L3210.69 792.27 L3193.49 792.27 L3193.49 800.94 L3176.29 800.94 L3176.29 809.72 L3159.21 809.72 L3159.21 818.63 L3142.01 818.63 L3142.01 827.42 L3124.81 827.42 L3124.81 836.20 L3107.61 836.20 L3107.61 845.12 L3090.41 845.12 L3090.41 854.03 L3073.21 854.03 L3073.21 862.81 L3056.01 862.81 L3056.01 871.72 L3038.80 871.72 L3038.80 880.63 L3021.60 880.63 L3021.60 889.67 L3004.40 889.67 L3004.40 898.58 L2987.20 898.58 L2987.20 907.61 L2970.00 907.61 L2970.00 916.52 L2952.80 916.52 L2952.80 925.56 L2935.72 925.56 L2935.72 934.59 L2918.52 934.59 L2918.52 943.62 L2901.32 943.62 L2901.32 952.78 L2884.12 952.78 L2884.12 961.82 L2866.92 961.82 L2866.92 970.97 L2849.72 970.97 L2849.72 980.01 L2832.51 980.01 L2832.51 989.16 L2815.31 989.16 L2815.31 998.32 L2798.11 998.32 L2798.11 1007.60 L2780.91 1007.60 L2780.91 1016.76 L2763.71 1016.76 L2763.71 1026.04 L2746.51 1026.04 L2746.51 1035.20 L2729.31 1035.20 L2729.31 1044.48 L2712.11 1044.48 L2712.11 1053.76 L2695.03 1053.76 L2695.03 1063.05 L2677.83 1063.05 L2677.83 1072.45 L2660.63 1072.45 L2660.63 1081.73 L2643.42 1081.73 L2643.42 1091.14 L2626.22 1091.14 L2626.22 1100.54 L2609.02 1100.54 L2609.02 1109.95 L2591.82 1109.95 L2591.82 1119.35 L2574.62 1119.35 L2574.62 1128.76 L2557.42 1128.76 L2557.42 1138.29 L2540.22 1138.29 L2540.22 1147.82 L2523.01 1147.82 L2523.01 1157.35 L2505.81 1157.35 L2505.81 1166.88 L2488.61 1166.88 L2488.61 1176.40 L2471.41 1176.40 L2471.41 1185.93 L2454.33 1185.93 L2454.33 1195.59 L2437.13 1195.59 L2437.13 1205.24 L2419.93 1205.24 L2419.93 1214.89 L2402.73 1214.89 L2402.73 1224.54 L2385.53 1224.54 L2385.53 1234.20 L2368.33 1234.20 L2368.33 1243.85 L2351.13 1243.85 L2351.13 1253.63 L2333.93 1253.63 L2333.93 1263.40 L2316.72 1263.40 L2316.72 1273.18 L2299.52 1273.18 L2299.52 1282.96 L2282.32 1282.96 L2282.32 1292.86 L2265.12 1292.86 L2265.12 1302.63 L2247.92 1302.63 L2247.92 1312.53 L2230.72 1312.53 L2230.72 1322.43 L2213.64 1322.43 L2213.64 1332.46 L2196.44 1332.46 L2196.44 1342.36 L2179.24 1342.36 L2179.24 1352.38 L2162.04 1352.38 L2162.04 1362.41 L2144.84 1362.41 L2144.84 1372.43 L2127.63 1372.43 L2127.63 1382.45 L2110.43 1382.45 L2110.43 1392.60 L2093.23 1392.60 L2093.23 1402.75 L2076.03 1402.75 L2076.03 1412.77 L2058.83 1412.77 L2058.83 1423.05 L2041.63 1423.05 L2041.63 1433.19 L2024.43 1433.19 L2024.43 1443.47 L2007.22 1443.47 L2007.22 1453.74 L1990.02 1453.74 L1990.02 1464.01 L1972.95 1464.01 L1972.95 1474.28 L1955.74 1474.28 L1955.74 1484.55 L1938.54 1484.55 L1938.54 1494.95 L1921.34 1494.95 L1921.34 1505.34 L1904.14 1505.34 L1904.14 1515.74 L1886.94 1515.74 L1886.94 1526.26 L1869.74 1526.26 L1869.74 1536.78 L1852.54 1536.78 L1852.54 1547.29 L1835.34 1547.29 L1835.34 1557.81 L1818.13 1557.81 L1818.13 1568.46 L1800.93 1568.46 L1800.93 1578.98 L1783.73 1578.98 L1783.73 1589.62 L1766.53 1589.62 L1766.53 1600.39 L1749.33 1600.39 L1749.33 1611.03 L1732.25 1611.03 L1732.25 1621.79 L1715.05 1621.79 L1715.05 1632.56 L1697.85 1632.56 L1697.85 1643.45 L1680.65 1643.45 L1680.65 1654.22 L1663.45 1654.22 L1663.45 1665.11 L1646.25 1665.11 L1646.25 1676.00 L1629.05 1676.00 L1629.05 1687.01 L1611.84 1687.01 L1611.84 1697.90 L1594.64 1697.90 L1594.64 1708.92 L1577.44 1708.92 L1577.44 1720.06 L1560.24 1720.06 L1560.24 1731.07 L1543.04 1731.07 L1543.04 1742.21 L1525.84 1742.21 L1525.84 1753.34 L1508.64 1753.34 L1508.64 1764.61 L1491.56 1764.61 L1491.56 1775.87 L1474.36 1775.87 L1474.36 1787.13 L1457.16 1787.13 L1457.16 1798.39 L1439.95 1798.39 L1439.95 1809.78 L1422.75 1809.78 L1422.75 1821.16 L1405.55 1821.16 L1405.55 1832.67 L1388.35 1832.67 L1388.35 1844.06 L1371.15 1844.06 L1371.15 1855.57 L1353.95 1855.57 L1353.95 1867.20 L1336.75 1867.20 L1336.75 1878.71 L1319.55 1878.71 L1319.55 1890.46 L1302.35 1890.46 L1302.35 1902.10 L1285.14 1902.10 L1285.14 1913.85 L1267.94 1913.85 L1267.94 1925.61 L1250.87 1925.61 L1250.87 1937.49 L1233.66 1937.49 L1233.66 1949.37 L1216.46 1949.37 L1216.46 1961.25 L1199.26 1961.25 L1199.26 1973.26 L1182.06 1973.26 L1182.06 1985.26 L1164.86 1985.26 L1164.86 1997.26 L1147.66 1997.26 L1147.66 2009.39 L1130.46 2009.39 L1130.46 2021.64 L1113.26 2021.64 L1113.26 2033.77 L1096.05 2033.77 L1096.05 2046.15 L1078.85 2046.15 L1078.85 2058.40 L1061.65 2058.40 L1061.65 2070.90 L1044.45 2070.90 L1044.45 2083.27 L1027.25 2083.27 L1027.25 2095.77 L1010.17 2095.77 L1010.17 2108.39 L992.97 2108.39 L992.97 2120.89 L975.77 2120.89 L975.77 2133.64 L958.57 2133.64 L958.57 2146.39 L941.37 2146.39 L941.37 2159.13 L924.16 2159.13 L924.16 2172.00 L906.96 2172.00 L906.96 2184.87 L889.76 2184.87 L889.76 2197.87 L872.56 2197.87 L872.56 2210.86 L855.36 2210.86 L855.36 2223.98 L838.16 2223.98 L838.16 2237.10 L820.96 2237.10 L820.96 2250.34 L803.76 2250.34 L803.76 2263.58 L786.55 2263.58 L786.55 2276.95 L769.48 2276.95 L769.48 2290.31 L752.28 2290.31 L752.28 2303.80 L735.08 2303.80 L735.08 2317.41 L717.87 2317.41 L717.87 2318.16 Z" stroke-linejoin="round"/>
	</defs>
	<defs>
		<clipPath id="clipPath_ZidWcUlA">
			<use xlink:href="#path_crVxOTOc"/>
		</clipPath>
	</defs>
	<use xlink:href="#path_crVxOTOc" style="stroke:none;fill:#333333;fill-opacity:0.35"/>
	<use xlink:href="#path_crVxOTOc" style="fill:none;stroke:#000000;stroke-opacity:0.35;stroke-width:17.28" clip-path="url(#clipPath_ZidWcUlA)"/>
	<line x1="717.75" y1="2317.79" x2="734.95" y2="2317.79" style="stroke:#808080;stroke-width:8.64"/>
	<line x1="734.95" y1="2317.79" x2="734.95" y2="2304.30" style="stroke:#808080;stroke-width:8.64"/>
	<line x1="734.95" y1="2304.30" x2="744.60" y2="2304.30" style="stroke:#808080;stroke-width:8.64"/>
	<line x1="752.15" y1="2294.64" x2="752.15" y2="2290.93" style="stroke:#808080;stroke-width:8.64"/>
	<line x1="752.15" y1="2290.93" x2="769.35" y2="2290.93" style="stroke:#808080;stroke-width:8.64"/>
	<line x1="769.35" y1="2290.93" x2="769.35" y2="2277.57" style="stroke:#808080;stroke-width:8.64"/>
	<line x1="769.35" y1="2277.57" x2="775.42" y2="2277.57" style="stroke:#808080;stroke-width:8.64"/>
	<line x1="786.55" y1="2271.50" x2="786.55" y2="2264.20" style="stroke:#808080;stroke-width:8.64"/>
	<line x1="786.55" y1="2264.20" x2="803.76" y2="2264.20" style="stroke:#808080;stroke-width:8.64"/>
	<line x1="803.76" y1="2264.20" x2="803.76" y2="2251.08" style="stroke:#808080;stroke-width:8.64"/>
	<line x1="803.76" y1="2251.08" x2="806.48" y2="2251.08" style="stroke:#808080;stroke-width:8.64"/>
	<line x1="820.96" y1="2248.24" x2="820.96" y2="2237.84" style="stroke:#808080;stroke-width:8.64"/>
	<line x1="820.96" y1="2237.84" x2="838.16" y2="2237.84" style="stroke:#808080;stroke-width:8.64"/>
	<line x1="838.16" y1="2237.84" x2="838.16" y2="2225.22" style="stroke:#808080;stroke-width:8.64"/>
	<line x1="855.11" y1="2224.85" x2="855.36" y2="2224.85" style="stroke:#808080;stroke-width:8.64"/>
	<line x1="855.36" y1="2224.85" x2="855.36" y2="2211.85" style="stroke:#808080;stroke-width:8.64"/>
	<line x1="855.36" y1="2211.85" x2="872.56" y2="2211.85" style="stroke:#808080;stroke-width:8.64"/>
	<line x1="872.56" y1="2211.85" x2="872.56" y2="2201.95" style="stroke:#808080;stroke-width:8.64"/>
	<line x1="886.67" y1="2198.86" x2="889.76" y2="2198.86" style="stroke:#808080;stroke-width:8.64"/>
	<line x1="889.76" y1="2198.86" x2="889.76" y2="2185.99" style="stroke:#808080;stroke-width:8.64"/>
	<line x1="889.76" y1="2185.99" x2="906.84" y2="2185.99" style="stroke:#808080;stroke-width:8.64"/>
	<line x1="906.84" y1="2185.99" x2="906.84" y2="2178.69" style="stroke:#808080;stroke-width:8.64"/>
	<line x1="918.47" y1="2173.12" x2="924.04" y2="2173.12" style="stroke:#808080;stroke-width:8.64"/>
	<line x1="924.04" y1="2173.12" x2="924.04" y2="2160.37" style="stroke:#808080;stroke-width:8.64"/>
	<line x1="924.04" y1="2160.37" x2="941.24" y2="2160.37" style="stroke:#808080;stroke-width:8.64"/>
	<line x1="941.24" y1="2160.37" x2="941.24" y2="2155.54" style="stroke:#808080;stroke-width:8.64"/>
	<line x1="950.65" y1="2147.75" x2="958.44" y2="2147.75" style="stroke:#808080;stroke-width:8.64"/>
	<line x1="958.44" y1="2147.75" x2="958.44" y2="2135.13" style="stroke:#808080;stroke-width:8.64"/>
	<line x1="958.44" y1="2135.13" x2="975.64" y2="2135.13" style="stroke:#808080;stroke-width:8.64"/>
	<line x1="975.64" y1="2135.13" x2="975.64" y2="2132.28" style="stroke:#808080;stroke-width:8.64"/>
	<line x1="983.07" y1="2122.50" x2="992.85" y2="2122.50" style="stroke:#808080;stroke-width:8.64"/>
	<line x1="992.85" y1="2122.50" x2="992.85" y2="2110.00" style="stroke:#808080;stroke-width:8.64"/>
	<line x1="992.85" y1="2110.00" x2="1010.05" y2="2110.00" style="stroke:#808080;stroke-width:8.64"/>
	<line x1="1010.05" y1="2110.00" x2="1010.05" y2="2109.14" style="stroke:#808080;stroke-width:8.64"/>
	<line x1="1015.74" y1="2097.63" x2="1027.25" y2="2097.63" style="stroke:#808080;stroke-width:8.64"/>
	<line x1="1027.25" y1="2097.63" x2="1027.25" y2="2085.25" style="stroke:#808080;stroke-width:8.64"/>
	<line x1="1027.25" y1="2085.25" x2="1043.71" y2="2085.25" style="stroke:#808080;stroke-width:8.64"/>
	<line x1="1048.53" y1="2072.88" x2="1061.65" y2="2072.88" style="stroke:#808080;stroke-width:8.64"/>
	<line x1="1061.65" y1="2072.88" x2="1061.65" y2="2060.63" style="stroke:#808080;stroke-width:8.64"/>
	<line x1="1061.65" y1="2060.63" x2="1076.63" y2="2060.63" style="stroke:#808080;stroke-width:8.64"/>
	<line x1="1081.58" y1="2048.37" x2="1096.05" y2="2048.37" style="stroke:#808080;stroke-width:8.64"/>
	<line x1="1096.05" y1="2048.37" x2="1096.05" y2="2036.25" style="stroke:#808080;stroke-width:8.64"/>
	<line x1="1096.05" y1="2036.25" x2="1109.79" y2="2036.25" style="stroke:#808080;stroke-width:8.64"/>
	<line x1="1114.99" y1="2024.12" x2="1130.46" y2="2024.12" style="stroke:#808080;stroke-width:8.64"/>
	<line x1="1130.46" y1="2024.12" x2="1130.46" y2="2012.11" style="stroke:#808080;stroke-width:8.64"/>
	<line x1="1130.46" y1="2012.11" x2="1143.33" y2="2012.11" style="stroke:#808080;stroke-width:8.64"/>
	<line x1="1148.52" y1="2000.11" x2="1164.73" y2="2000.11" style="stroke:#808080;stroke-width:8.64"/>
	<line x1="1164.73" y1="2000.11" x2="1164.73" y2="1988.11" style="stroke:#808080;stroke-width:8.64"/>
	<line x1="1164.73" y1="1988.11" x2="1176.86" y2="1988.11" style="stroke:#808080;stroke-width:8.64"/>
	<line x1="1182.18" y1="1976.23" x2="1199.14" y2="1976.23" style="stroke:#808080;stroke-width:8.64"/>
	<line x1="1199.14" y1="1976.23" x2="1199.14" y2="1964.35" style="stroke:#808080;stroke-width:8.64"/>
	<line x1="1199.14" y1="1964.35" x2="1210.65" y2="1964.35" style="stroke:#808080;stroke-width:8.64"/>
	<line x1="1216.34" y1="1952.84" x2="1216.34" y2="1952.59" style="stroke:#808080;stroke-width:8.64"/>
	<line x1="1216.34" y1="1952.59" x2="1233.54" y2="1952.59" style="stroke:#808080;stroke-width:8.64"/>
	<line x1="1233.54" y1="1952.59" x2="1233.54" y2="1940.83" style="stroke:#808080;stroke-width:8.64"/>
	<line x1="1233.54" y1="1940.83" x2="1244.68" y2="1940.83" style="stroke:#808080;stroke-width:8.64"/>
	<line x1="1250.74" y1="1929.57" x2="1250.74" y2="1929.20" style="stroke:#808080;stroke-width:8.64"/>
	<line x1="1250.74" y1="1929.20" x2="1267.94" y2="1929.20" style="stroke:#808080;stroke-width:8.64"/>
	<line x1="1267.94" y1="1929.20" x2="1267.94" y2="1917.57" style="stroke:#808080;stroke-width:8.64"/>
	<line x1="1267.94" y1="1917.57" x2="1279.08" y2="1917.57" style="stroke:#808080;stroke-width:8.64"/>
	<line x1="1285.14" y1="1906.43" x2="1285.14" y2="1905.93" style="stroke:#808080;stroke-width:8.64"/>
	<line x1="1285.14" y1="1905.93" x2="1302.35" y2="1905.93" style="stroke:#808080;stroke-width:8.64"/>
	<line x1="1302.35" y1="1905.93" x2="1302.35" y2="1894.42" style="stroke:#808080;stroke-width:8.64"/>
	<line x1="1302.35" y1="1894.42" x2="1313.48" y2="1894.42" style="stroke:#808080;stroke-width:8.64"/>
	<line x1="1319.55" y1="1883.29" x2="1319.55" y2="1882.92" style="stroke:#808080;stroke-width:8.64"/>
	<line x1="1319.55" y1="1882.92" x2="1336.75" y2="1882.92" style="stroke:#808080;stroke-width:8.64"/>
	<line x1="1336.75" y1="1882.92" x2="1336.75" y2="1871.41" style="stroke:#808080;stroke-width:8.64"/>
	<line x1="1336.75" y1="1871.41" x2="1348.01" y2="1871.41" style="stroke:#808080;stroke-width:8.64"/>
	<line x1="1353.95" y1="1860.14" x2="1353.95" y2="1860.02" style="stroke:#808080;stroke-width:8.64"/>
	<line x1="1353.95" y1="1860.02" x2="1371.15" y2="1860.02" style="stroke:#808080;stroke-width:8.64"/>
	<line x1="1371.15" y1="1860.02" x2="1371.15" y2="1848.64" style="stroke:#808080;stroke-width:8.64"/>
	<line x1="1371.15" y1="1848.64" x2="1382.78" y2="1848.64" style="stroke:#808080;stroke-width:8.64"/>
	<line x1="1388.85" y1="1837.37" x2="1405.43" y2="1837.37" style="stroke:#808080;stroke-width:8.64"/>
	<line x1="1405.43" y1="1837.37" x2="1405.43" y2="1826.11" style="stroke:#808080;stroke-width:8.64"/>
	<line x1="1405.43" y1="1826.11" x2="1417.80" y2="1826.11" style="stroke:#808080;stroke-width:8.64"/>
	<line x1="1423.87" y1="1814.85" x2="1439.83" y2="1814.85" style="stroke:#808080;stroke-width:8.64"/>
	<line x1="1439.83" y1="1814.85" x2="1439.83" y2="1803.71" style="stroke:#808080;stroke-width:8.64"/>
	<line x1="1439.83" y1="1803.71" x2="1453.07" y2="1803.71" style="stroke:#808080;stroke-width:8.64"/>
	<line x1="1459.14" y1="1792.57" x2="1474.23" y2="1792.57" style="stroke:#808080;stroke-width:8.64"/>
	<line x1="1474.23" y1="1792.57" x2="1474.23" y2="1781.44" style="stroke:#808080;stroke-width:8.64"/>
	<line x1="1474.23" y1="1781.44" x2="1488.34" y2="1781.44" style="stroke:#808080;stroke-width:8.64"/>
	<line x1="1494.40" y1="1770.30" x2="1508.64" y2="1770.30" style="stroke:#808080;stroke-width:8.64"/>
	<line x1="1508.64" y1="1770.30" x2="1508.64" y2="1759.28" style="stroke:#808080;stroke-width:8.64"/>
	<line x1="1508.64" y1="1759.28" x2="1523.73" y2="1759.28" style="stroke:#808080;stroke-width:8.64"/>
	<line x1="1530.05" y1="1748.39" x2="1543.04" y2="1748.39" style="stroke:#808080;stroke-width:8.64"/>
	<line x1="1543.04" y1="1748.39" x2="1543.04" y2="1737.38" style="stroke:#808080;stroke-width:8.64"/>
	<line x1="1543.04" y1="1737.38" x2="1559.37" y2="1737.38" style="stroke:#808080;stroke-width:8.64"/>
	<line x1="1565.81" y1="1726.49" x2="1577.44" y2="1726.49" style="stroke:#808080;stroke-width:8.64"/>
	<line x1="1577.44" y1="1726.49" x2="1577.44" y2="1715.60" style="stroke:#808080;stroke-width:8.64"/>
	<line x1="1577.44" y1="1715.60" x2="1594.64" y2="1715.60" style="stroke:#808080;stroke-width:8.64"/>
	<line x1="1594.64" y1="1715.60" x2="1594.64" y2="1715.10" style="stroke:#808080;stroke-width:8.64"/>
	<line x1="1601.70" y1="1704.83" x2="1611.84" y2="1704.83" style="stroke:#808080;stroke-width:8.64"/>
	<line x1="1611.84" y1="1704.83" x2="1611.84" y2="1694.07" style="stroke:#808080;stroke-width:8.64"/>
	<line x1="1611.84" y1="1694.07" x2="1628.92" y2="1694.07" style="stroke:#808080;stroke-width:8.64"/>
	<line x1="1628.92" y1="1694.07" x2="1628.92" y2="1691.72" style="stroke:#808080;stroke-width:8.64"/>
	<line x1="1637.71" y1="1683.30" x2="1646.12" y2="1683.30" style="stroke:#808080;stroke-width:8.64"/>
	<line x1="1646.12" y1="1683.30" x2="1646.12" y2="1672.53" style="stroke:#808080;stroke-width:8.64"/>
	<line x1="1646.12" y1="1672.53" x2="1663.32" y2="1672.53" style="stroke:#808080;stroke-width:8.64"/>
	<line x1="1663.32" y1="1672.53" x2="1663.32" y2="1668.57" style="stroke:#808080;stroke-width:8.64"/>
	<line x1="1673.84" y1="1661.89" x2="1680.53" y2="1661.89" style="stroke:#808080;stroke-width:8.64"/>
	<line x1="1680.53" y1="1661.89" x2="1680.53" y2="1651.12" style="stroke:#808080;stroke-width:8.64"/>
	<line x1="1680.53" y1="1651.12" x2="1697.73" y2="1651.12" style="stroke:#808080;stroke-width:8.64"/>
	<line x1="1697.73" y1="1651.12" x2="1697.73" y2="1645.43" style="stroke:#808080;stroke-width:8.64"/>
	<line x1="1710.22" y1="1640.61" x2="1714.93" y2="1640.61" style="stroke:#808080;stroke-width:8.64"/>
	<line x1="1714.93" y1="1640.61" x2="1714.93" y2="1629.96" style="stroke:#808080;stroke-width:8.64"/>
	<line x1="1714.93" y1="1629.96" x2="1732.13" y2="1629.96" style="stroke:#808080;stroke-width:8.64"/>
	<line x1="1732.13" y1="1629.96" x2="1732.13" y2="1622.17" style="stroke:#808080;stroke-width:8.64"/>
	<line x1="1746.61" y1="1619.44" x2="1749.33" y2="1619.44" style="stroke:#808080;stroke-width:8.64"/>
	<line x1="1749.33" y1="1619.44" x2="1749.33" y2="1608.92" style="stroke:#808080;stroke-width:8.64"/>
	<line x1="1749.33" y1="1608.92" x2="1766.53" y2="1608.92" style="stroke:#808080;stroke-width:8.64"/>
	<line x1="1766.53" y1="1608.92" x2="1766.53" y2="1599.02" style="stroke:#808080;stroke-width:8.64"/>
	<line x1="1783.11" y1="1598.40" x2="1783.73" y2="1598.40" style="stroke:#808080;stroke-width:8.64"/>
	<line x1="1783.73" y1="1598.40" x2="1783.73" y2="1588.01" style="stroke:#808080;stroke-width:8.64"/>
	<line x1="1783.73" y1="1588.01" x2="1800.93" y2="1588.01" style="stroke:#808080;stroke-width:8.64"/>
	<line x1="1800.93" y1="1588.01" x2="1800.93" y2="1577.61" style="stroke:#808080;stroke-width:8.64"/>
	<line x1="1800.93" y1="1577.61" x2="1802.67" y2="1577.61" style="stroke:#808080;stroke-width:8.64"/>
	<line x1="1818.13" y1="1575.88" x2="1818.13" y2="1567.22" style="stroke:#808080;stroke-width:8.64"/>
	<line x1="1818.13" y1="1567.22" x2="1835.34" y2="1567.22" style="stroke:#808080;stroke-width:8.64"/>
	<line x1="1835.34" y1="1567.22" x2="1835.34" y2="1556.82" style="stroke:#808080;stroke-width:8.64"/>
	<line x1="1835.34" y1="1556.82" x2="1839.42" y2="1556.82" style="stroke:#808080;stroke-width:8.64"/>
	<line x1="1852.54" y1="1552.74" x2="1852.54" y2="1546.55" style="stroke:#808080;stroke-width:8.64"/>
	<line x1="1852.54" y1="1546.55" x2="1869.62" y2="1546.55" style="stroke:#808080;stroke-width:8.64"/>
	<line x1="1869.62" y1="1546.55" x2="1869.62" y2="1536.28" style="stroke:#808080;stroke-width:8.64"/>
	<line x1="1869.62" y1="1536.28" x2="1876.55" y2="1536.28" style="stroke:#808080;stroke-width:8.64"/>
	<line x1="1886.82" y1="1529.35" x2="1886.82" y2="1526.01" style="stroke:#808080;stroke-width:8.64"/>
	<line x1="1886.82" y1="1526.01" x2="1904.02" y2="1526.01" style="stroke:#808080;stroke-width:8.64"/>
	<line x1="1904.02" y1="1526.01" x2="1904.02" y2="1515.74" style="stroke:#808080;stroke-width:8.64"/>
	<line x1="1904.02" y1="1515.74" x2="1913.42" y2="1515.74" style="stroke:#808080;stroke-width:8.64"/>
	<line x1="1921.22" y1="1506.21" x2="1921.22" y2="1505.59" style="stroke:#808080;stroke-width:8.64"/>
	<line x1="1921.22" y1="1505.59" x2="1938.42" y2="1505.59" style="stroke:#808080;stroke-width:8.64"/>
	<line x1="1938.42" y1="1505.59" x2="1938.42" y2="1495.44" style="stroke:#808080;stroke-width:8.64"/>
	<line x1="1938.42" y1="1495.44" x2="1950.80" y2="1495.44" style="stroke:#808080;stroke-width:8.64"/>
	<line x1="1957.85" y1="1485.29" x2="1972.82" y2="1485.29" style="stroke:#808080;stroke-width:8.64"/>
	<line x1="1972.82" y1="1485.29" x2="1972.82" y2="1475.27" style="stroke:#808080;stroke-width:8.64"/>
	<line x1="1972.82" y1="1475.27" x2="1988.17" y2="1475.27" style="stroke:#808080;stroke-width:8.64"/>
	<line x1="1995.47" y1="1465.25" x2="2007.22" y2="1465.25" style="stroke:#808080;stroke-width:8.64"/>
	<line x1="2007.22" y1="1465.25" x2="2007.22" y2="1455.10" style="stroke:#808080;stroke-width:8.64"/>
	<line x1="2007.22" y1="1455.10" x2="2024.43" y2="1455.10" style="stroke:#808080;stroke-width:8.64"/>
	<line x1="2024.43" y1="1455.10" x2="2024.43" y2="1453.98" style="stroke:#808080;stroke-width:8.64"/>
	<line x1="2032.96" y1="1445.20" x2="2041.63" y2="1445.20" style="stroke:#808080;stroke-width:8.64"/>
	<line x1="2041.63" y1="1445.20" x2="2041.63" y2="1435.17" style="stroke:#808080;stroke-width:8.64"/>
	<line x1="2041.63" y1="1435.17" x2="2058.83" y2="1435.17" style="stroke:#808080;stroke-width:8.64"/>
	<line x1="2058.83" y1="1435.17" x2="2058.83" y2="1430.72" style="stroke:#808080;stroke-width:8.64"/>
	<line x1="2070.59" y1="1425.27" x2="2076.03" y2="1425.27" style="stroke:#808080;stroke-width:8.64"/>
	<line x1="2076.03" y1="1425.27" x2="2076.03" y2="1415.37" style="stroke:#808080;stroke-width:8.64"/>
	<line x1="2076.03" y1="1415.37" x2="2093.23" y2="1415.37" style="stroke:#808080;stroke-width:8.64"/>
	<line x1="2093.23" y1="1415.37" x2="2093.23" y2="1407.58" style="stroke:#808080;stroke-width:8.64"/>
	<line x1="2108.33" y1="1405.47" x2="2110.31" y2="1405.47" style="stroke:#808080;stroke-width:8.64"/>
	<line x1="2110.31" y1="1405.47" x2="2110.31" y2="1395.57" style="stroke:#808080;stroke-width:8.64"/>
	<line x1="2110.31" y1="1395.57" x2="2127.51" y2="1395.57" style="stroke:#808080;stroke-width:8.64"/>
	<line x1="2127.51" y1="1395.57" x2="2127.51" y2="1385.80" style="stroke:#808080;stroke-width:8.64"/>
	<line x1="2127.51" y1="1385.80" x2="2128.99" y2="1385.80" style="stroke:#808080;stroke-width:8.64"/>
	<line x1="2144.71" y1="1384.31" x2="2144.71" y2="1375.90" style="stroke:#808080;stroke-width:8.64"/>
	<line x1="2144.71" y1="1375.90" x2="2161.91" y2="1375.90" style="stroke:#808080;stroke-width:8.64"/>
	<line x1="2161.91" y1="1375.90" x2="2161.91" y2="1366.12" style="stroke:#808080;stroke-width:8.64"/>
	<line x1="2161.91" y1="1366.12" x2="2166.86" y2="1366.12" style="stroke:#808080;stroke-width:8.64"/>
	<line x1="2179.11" y1="1361.05" x2="2179.11" y2="1356.34" style="stroke:#808080;stroke-width:8.64"/>
	<line x1="2179.11" y1="1356.34" x2="2196.32" y2="1356.34" style="stroke:#808080;stroke-width:8.64"/>
	<line x1="2196.32" y1="1356.34" x2="2196.32" y2="1346.69" style="stroke:#808080;stroke-width:8.64"/>
	<line x1="2196.32" y1="1346.69" x2="2205.10" y2="1346.69" style="stroke:#808080;stroke-width:8.64"/>
	<line x1="2213.52" y1="1337.90" x2="2213.52" y2="1336.91" style="stroke:#808080;stroke-width:8.64"/>
	<line x1="2213.52" y1="1336.91" x2="2230.72" y2="1336.91" style="stroke:#808080;stroke-width:8.64"/>
	<line x1="2230.72" y1="1336.91" x2="2230.72" y2="1327.26" style="stroke:#808080;stroke-width:8.64"/>
	<line x1="2230.72" y1="1327.26" x2="2243.22" y2="1327.26" style="stroke:#808080;stroke-width:8.64"/>
	<line x1="2250.76" y1="1317.61" x2="2265.12" y2="1317.61" style="stroke:#808080;stroke-width:8.64"/>
	<line x1="2265.12" y1="1317.61" x2="2265.12" y2="1307.95" style="stroke:#808080;stroke-width:8.64"/>
	<line x1="2265.12" y1="1307.95" x2="2281.45" y2="1307.95" style="stroke:#808080;stroke-width:8.64"/>
	<line x1="2289.00" y1="1298.30" x2="2299.52" y2="1298.30" style="stroke:#808080;stroke-width:8.64"/>
	<line x1="2299.52" y1="1298.30" x2="2299.52" y2="1288.77" style="stroke:#808080;stroke-width:8.64"/>
	<line x1="2299.52" y1="1288.77" x2="2316.72" y2="1288.77" style="stroke:#808080;stroke-width:8.64"/>
	<line x1="2316.72" y1="1288.77" x2="2316.72" y2="1285.68" style="stroke:#808080;stroke-width:8.64"/>
	<line x1="2327.61" y1="1279.24" x2="2333.93" y2="1279.24" style="stroke:#808080;stroke-width:8.64"/>
	<line x1="2333.93" y1="1279.24" x2="2333.93" y2="1269.71" style="stroke:#808080;stroke-width:8.64"/>
	<line x1="2333.93" y1="1269.71" x2="2351.00" y2="1269.71" style="stroke:#808080;stroke-width:8.64"/>
	<line x1="2351.00" y1="1269.71" x2="2351.00" y2="1262.41" style="stroke:#808080;stroke-width:8.64"/>
	<line x1="2366.10" y1="1260.19" x2="2368.20" y2="1260.19" style="stroke:#808080;stroke-width:8.64"/>
	<line x1="2368.20" y1="1260.19" x2="2368.20" y2="1250.66" style="stroke:#808080;stroke-width:8.64"/>
	<line x1="2368.20" y1="1250.66" x2="2385.41" y2="1250.66" style="stroke:#808080;stroke-width:8.64"/>
	<line x1="2385.41" y1="1250.66" x2="2385.41" y2="1241.25" style="stroke:#808080;stroke-width:8.64"/>
	<line x1="2385.41" y1="1241.25" x2="2387.51" y2="1241.25" style="stroke:#808080;stroke-width:8.64"/>
	<line x1="2402.61" y1="1239.15" x2="2402.61" y2="1231.72" style="stroke:#808080;stroke-width:8.64"/>
	<line x1="2402.61" y1="1231.72" x2="2419.81" y2="1231.72" style="stroke:#808080;stroke-width:8.64"/>
	<line x1="2419.81" y1="1231.72" x2="2419.81" y2="1222.32" style="stroke:#808080;stroke-width:8.64"/>
	<line x1="2419.81" y1="1222.32" x2="2426.12" y2="1222.32" style="stroke:#808080;stroke-width:8.64"/>
	<line x1="2437.01" y1="1216.01" x2="2437.01" y2="1212.91" style="stroke:#808080;stroke-width:8.64"/>
	<line x1="2437.01" y1="1212.91" x2="2454.21" y2="1212.91" style="stroke:#808080;stroke-width:8.64"/>
	<line x1="2454.21" y1="1212.91" x2="2454.21" y2="1203.63" style="stroke:#808080;stroke-width:8.64"/>
	<line x1="2454.21" y1="1203.63" x2="2464.98" y2="1203.63" style="stroke:#808080;stroke-width:8.64"/>
	<line x1="2472.77" y1="1194.22" x2="2488.61" y2="1194.22" style="stroke:#808080;stroke-width:8.64"/>
	<line x1="2488.61" y1="1194.22" x2="2488.61" y2="1184.94" style="stroke:#808080;stroke-width:8.64"/>
	<line x1="2488.61" y1="1184.94" x2="2503.83" y2="1184.94" style="stroke:#808080;stroke-width:8.64"/>
	<line x1="2511.75" y1="1175.54" x2="2523.01" y2="1175.54" style="stroke:#808080;stroke-width:8.64"/>
	<line x1="2523.01" y1="1175.54" x2="2523.01" y2="1166.26" style="stroke:#808080;stroke-width:8.64"/>
	<line x1="2523.01" y1="1166.26" x2="2540.22" y2="1166.26" style="stroke:#808080;stroke-width:8.64"/>
	<line x1="2540.22" y1="1166.26" x2="2540.22" y2="1163.66" style="stroke:#808080;stroke-width:8.64"/>
	<line x1="2550.86" y1="1157.10" x2="2557.42" y2="1157.10" style="stroke:#808080;stroke-width:8.64"/>
	<line x1="2557.42" y1="1157.10" x2="2557.42" y2="1147.82" style="stroke:#808080;stroke-width:8.64"/>
	<line x1="2557.42" y1="1147.82" x2="2574.62" y2="1147.82" style="stroke:#808080;stroke-width:8.64"/>
	<line x1="2574.62" y1="1147.82" x2="2574.62" y2="1140.52" style="stroke:#808080;stroke-width:8.64"/>
	<line x1="2589.84" y1="1138.54" x2="2591.70" y2="1138.54" style="stroke:#808080;stroke-width:8.64"/>
	<line x1="2591.70" y1="1138.54" x2="2591.70" y2="1129.38" style="stroke:#808080;stroke-width:8.64"/>
	<line x1="2591.70" y1="1129.38" x2="2608.90" y2="1129.38" style="stroke:#808080;stroke-width:8.64"/>
	<line x1="2608.90" y1="1129.38" x2="2608.90" y2="1120.22" style="stroke:#808080;stroke-width:8.64"/>
	<line x1="2608.90" y1="1120.22" x2="2611.87" y2="1120.22" style="stroke:#808080;stroke-width:8.64"/>
	<line x1="2626.10" y1="1117.25" x2="2626.10" y2="1111.06" style="stroke:#808080;stroke-width:8.64"/>
	<line x1="2626.10" y1="1111.06" x2="2643.30" y2="1111.06" style="stroke:#808080;stroke-width:8.64"/>
	<line x1="2643.30" y1="1111.06" x2="2643.30" y2="1101.90" style="stroke:#808080;stroke-width:8.64"/>
	<line x1="2643.30" y1="1101.90" x2="2651.10" y2="1101.90" style="stroke:#808080;stroke-width:8.64"/>
	<line x1="2660.50" y1="1093.98" x2="2660.50" y2="1092.87" style="stroke:#808080;stroke-width:8.64"/>
	<line x1="2660.50" y1="1092.87" x2="2677.70" y2="1092.87" style="stroke:#808080;stroke-width:8.64"/>
	<line x1="2677.70" y1="1092.87" x2="2677.70" y2="1083.71" style="stroke:#808080;stroke-width:8.64"/>
	<line x1="2677.70" y1="1083.71" x2="2690.45" y2="1083.71" style="stroke:#808080;stroke-width:8.64"/>
	<line x1="2698.74" y1="1074.68" x2="2712.11" y2="1074.68" style="stroke:#808080;stroke-width:8.64"/>
	<line x1="2712.11" y1="1074.68" x2="2712.11" y2="1065.64" style="stroke:#808080;stroke-width:8.64"/>
	<line x1="2712.11" y1="1065.64" x2="2729.31" y2="1065.64" style="stroke:#808080;stroke-width:8.64"/>
	<line x1="2729.31" y1="1065.64" x2="2729.31" y2="1064.90" style="stroke:#808080;stroke-width:8.64"/>
	<line x1="2738.22" y1="1056.61" x2="2746.51" y2="1056.61" style="stroke:#808080;stroke-width:8.64"/>
	<line x1="2746.51" y1="1056.61" x2="2746.51" y2="1047.58" style="stroke:#808080;stroke-width:8.64"/>
	<line x1="2746.51" y1="1047.58" x2="2763.71" y2="1047.58" style="stroke:#808080;stroke-width:8.64"/>
	<line x1="2763.71" y1="1047.58" x2="2763.71" y2="1041.76" style="stroke:#808080;stroke-width:8.64"/>
	<line x1="2777.69" y1="1038.54" x2="2780.91" y2="1038.54" style="stroke:#808080;stroke-width:8.64"/>
	<line x1="2780.91" y1="1038.54" x2="2780.91" y2="1029.63" style="stroke:#808080;stroke-width:8.64"/>
	<line x1="2780.91" y1="1029.63" x2="2798.11" y2="1029.63" style="stroke:#808080;stroke-width:8.64"/>
	<line x1="2798.11" y1="1029.63" x2="2798.11" y2="1020.60" style="stroke:#808080;stroke-width:8.64"/>
	<line x1="2798.11" y1="1020.60" x2="2800.09" y2="1020.60" style="stroke:#808080;stroke-width:8.64"/>
	<line x1="2815.31" y1="1018.62" x2="2815.31" y2="1011.69" style="stroke:#808080;stroke-width:8.64"/>
	<line x1="2815.31" y1="1011.69" x2="2832.39" y2="1011.69" style="stroke:#808080;stroke-width:8.64"/>
	<line x1="2832.39" y1="1011.69" x2="2832.39" y2="1002.78" style="stroke:#808080;stroke-width:8.64"/>
	<line x1="2832.39" y1="1002.78" x2="2839.82" y2="1002.78" style="stroke:#808080;stroke-width:8.64"/>
	<line x1="2849.59" y1="995.23" x2="2849.59" y2="993.87" style="stroke:#808080;stroke-width:8.64"/>
	<line x1="2849.59" y1="993.87" x2="2866.79" y2="993.87" style="stroke:#808080;stroke-width:8.64"/>
	<line x1="2866.79" y1="993.87" x2="2866.79" y2="985.08" style="stroke:#808080;stroke-width:8.64"/>
	<line x1="2866.79" y1="985.08" x2="2879.66" y2="985.08" style="stroke:#808080;stroke-width:8.64"/>
	<line x1="2888.08" y1="976.17" x2="2901.20" y2="976.17" style="stroke:#808080;stroke-width:8.64"/>
	<line x1="2901.20" y1="976.17" x2="2901.20" y2="967.38" style="stroke:#808080;stroke-width:8.64"/>
	<line x1="2901.20" y1="967.38" x2="2918.40" y2="967.38" style="stroke:#808080;stroke-width:8.64"/>
	<line x1="2918.40" y1="967.38" x2="2918.40" y2="966.15" style="stroke:#808080;stroke-width:8.64"/>
	<line x1="2928.05" y1="958.60" x2="2935.60" y2="958.60" style="stroke:#808080;stroke-width:8.64"/>
	<line x1="2935.60" y1="958.60" x2="2935.60" y2="949.69" style="stroke:#808080;stroke-width:8.64"/>
	<line x1="2935.60" y1="949.69" x2="2952.80" y2="949.69" style="stroke:#808080;stroke-width:8.64"/>
	<line x1="2952.80" y1="949.69" x2="2952.80" y2="943.00" style="stroke:#808080;stroke-width:8.64"/>
	<line x1="2967.90" y1="940.90" x2="2970.00" y2="940.90" style="stroke:#808080;stroke-width:8.64"/>
	<line x1="2970.00" y1="940.90" x2="2970.00" y2="932.24" style="stroke:#808080;stroke-width:8.64"/>
	<line x1="2970.00" y1="932.24" x2="2987.20" y2="932.24" style="stroke:#808080;stroke-width:8.64"/>
	<line x1="2987.20" y1="932.24" x2="2987.20" y2="923.45" style="stroke:#808080;stroke-width:8.64"/>
	<line x1="2987.20" y1="923.45" x2="2990.79" y2="923.45" style="stroke:#808080;stroke-width:8.64"/>
	<line x1="3004.40" y1="919.74" x2="3004.40" y2="914.79" style="stroke:#808080;stroke-width:8.64"/>
	<line x1="3004.40" y1="914.79" x2="3021.60" y2="914.79" style="stroke:#808080;stroke-width:8.64"/>
	<line x1="3021.60" y1="914.79" x2="3021.60" y2="906.00" style="stroke:#808080;stroke-width:8.64"/>
	<line x1="3021.60" y1="906.00" x2="3031.01" y2="906.00" style="stroke:#808080;stroke-width:8.64"/>
	<line x1="3039.55" y1="897.34" x2="3055.88" y2="897.34" style="stroke:#808080;stroke-width:8.64"/>
	<line x1="3055.88" y1="897.34" x2="3055.88" y2="888.68" style="stroke:#808080;stroke-width:8.64"/>
	<line x1="3055.88" y1="888.68" x2="3071.23" y2="888.68" style="stroke:#808080;stroke-width:8.64"/>
	<line x1="3079.77" y1="880.01" x2="3090.28" y2="880.01" style="stroke:#808080;stroke-width:8.64"/>
	<line x1="3090.28" y1="880.01" x2="3090.28" y2="871.47" style="stroke:#808080;stroke-width:8.64"/>
	<line x1="3090.28" y1="871.47" x2="3107.49" y2="871.47" style="stroke:#808080;stroke-width:8.64"/>
	<line x1="3107.49" y1="871.47" x2="3107.49" y2="867.39" style="stroke:#808080;stroke-width:8.64"/>
	<line x1="3120.23" y1="862.81" x2="3124.69" y2="862.81" style="stroke:#808080;stroke-width:8.64"/>
	<line x1="3124.69" y1="862.81" x2="3124.69" y2="854.27" style="stroke:#808080;stroke-width:8.64"/>
	<line x1="3124.69" y1="854.27" x2="3141.89" y2="854.27" style="stroke:#808080;stroke-width:8.64"/>
	<line x1="3141.89" y1="854.27" x2="3141.89" y2="845.61" style="stroke:#808080;stroke-width:8.64"/>
	<line x1="3141.89" y1="845.61" x2="3143.25" y2="845.61" style="stroke:#808080;stroke-width:8.64"/>
	<line x1="3159.09" y1="844.25" x2="3159.09" y2="837.07" style="stroke:#808080;stroke-width:8.64"/>
	<line x1="3159.09" y1="837.07" x2="3176.29" y2="837.07" style="stroke:#808080;stroke-width:8.64"/>
	<line x1="3176.29" y1="837.07" x2="3176.29" y2="828.53" style="stroke:#808080;stroke-width:8.64"/>
	<line x1="3176.29" y1="828.53" x2="3183.84" y2="828.53" style="stroke:#808080;stroke-width:8.64"/>
	<line x1="3193.49" y1="820.98" x2="3193.49" y2="819.99" style="stroke:#808080;stroke-width:8.64"/>
	<line x1="3193.49" y1="819.99" x2="3210.69" y2="819.99" style="stroke:#808080;stroke-width:8.64"/>
	<line x1="3210.69" y1="819.99" x2="3210.69" y2="811.58" style="stroke:#808080;stroke-width:8.64"/>
	<line x1="3210.69" y1="811.58" x2="3224.43" y2="811.58" style="stroke:#808080;stroke-width:8.64"/>
	<line x1="3233.09" y1="803.04" x2="3245.10" y2="803.04" style="stroke:#808080;stroke-width:8.64"/>
	<line x1="3245.10" y1="803.04" x2="3245.10" y2="794.62" style="stroke:#808080;stroke-width:8.64"/>
	<line x1="3245.10" y1="794.62" x2="3262.30" y2="794.62" style="stroke:#808080;stroke-width:8.64"/>
	<line x1="3262.30" y1="794.62" x2="3262.30" y2="791.90" style="stroke:#808080;stroke-width:8.64"/>
	<line x1="3273.68" y1="786.08" x2="3279.50" y2="786.08" style="stroke:#808080;stroke-width:8.64"/>
	<line x1="3279.50" y1="786.08" x2="3279.50" y2="777.67" style="stroke:#808080;stroke-width:8.64"/>
	<line x1="3279.50" y1="777.67" x2="3296.58" y2="777.67" style="stroke:#808080;stroke-width:8.64"/>
	<line x1="3296.58" y1="777.67" x2="3296.58" y2="769.25" style="stroke:#808080;stroke-width:8.64"/>
	<line x1="3296.58" y1="769.25" x2="3297.20" y2="769.25" style="stroke:#808080;stroke-width:8.64"/>
	<line x1="3313.78" y1="768.64" x2="3313.78" y2="760.84" style="stroke:#808080;stroke-width:8.64"/>
	<line x1="3313.78" y1="760.84" x2="3330.98" y2="760.84" style="stroke:#808080;stroke-width:8.64"/>
	<line x1="3330.98" y1="760.84" x2="3330.98" y2="752.42" style="stroke:#808080;stroke-width:8.64"/>
	<line x1="3330.98" y1="752.42" x2="3338.03" y2="752.42" style="stroke:#808080;stroke-width:8.64"/>
	<line x1="3348.18" y1="745.49" x2="3348.18" y2="744.13" style="stroke:#808080;stroke-width:8.64"/>
	<line x1="3348.18" y1="744.13" x2="3365.38" y2="744.13" style="stroke:#808080;stroke-width:8.64"/>
	<line x1="3365.38" y1="744.13" x2="3365.38" y2="735.72" style="stroke:#808080;stroke-width:8.64"/>
	<line x1="3365.38" y1="735.72" x2="3378.87" y2="735.72" style="stroke:#808080;stroke-width:8.64"/>
	<line x1="3387.78" y1="727.43" x2="3399.78" y2="727.43" style="stroke:#808080;stroke-width:8.64"/>
	<line x1="3399.78" y1="727.43" x2="3399.78" y2="719.13" style="stroke:#808080;stroke-width:8.64"/>
	<line x1="3399.78" y1="719.13" x2="3416.99" y2="719.13" style="stroke:#808080;stroke-width:8.64"/>
	<line x1="3416.99" y1="719.13" x2="3416.99" y2="716.29" style="stroke:#808080;stroke-width:8.64"/>
	<line x1="3428.62" y1="710.72" x2="3434.19" y2="710.72" style="stroke:#808080;stroke-width:8.64"/>
	<line x1="3434.19" y1="710.72" x2="3434.19" y2="702.43" style="stroke:#808080;stroke-width:8.64"/>
	<line x1="3434.19" y1="702.43" x2="3451.39" y2="702.43" style="stroke:#808080;stroke-width:8.64"/>
	<line x1="3451.39" y1="702.43" x2="3451.39" y2="694.26" style="stroke:#808080;stroke-width:8.64"/>
	<line x1="3451.39" y1="694.26" x2="3452.50" y2="694.26" style="stroke:#808080;stroke-width:8.64"/>
	<line x1="3468.59" y1="693.15" x2="3468.59" y2="685.97" style="stroke:#808080;stroke-width:8.64"/>
	<line x1="3468.59" y1="685.97" x2="3485.79" y2="685.97" style="stroke:#808080;stroke-width:8.64"/>
	<line x1="3485.79" y1="685.97" x2="3485.79" y2="677.68" style="stroke:#808080;stroke-width:8.64"/>
	<line x1="3485.79" y1="677.68" x2="3493.46" y2="677.68" style="stroke:#808080;stroke-width:8.64"/>
	<line x1="3502.99" y1="670.00" x2="3502.99" y2="669.51" style="stroke:#808080;stroke-width:8.64"/>
	<line x1="3502.99" y1="669.51" x2="3520.19" y2="669.51" style="stroke:#808080;stroke-width:8.64"/>
	<line x1="3520.19" y1="669.51" x2="3520.19" y2="661.22" style="stroke:#808080;stroke-width:8.64"/>
	<line x1="3520.19" y1="661.22" x2="3534.67" y2="661.22" style="stroke:#808080;stroke-width:8.64"/>
	<line x1="3543.70" y1="653.05" x2="3554.47" y2="653.05" style="stroke:#808080;stroke-width:8.64"/>
	<line x1="3554.47" y1="653.05" x2="3554.47" y2="644.88" style="stroke:#808080;stroke-width:8.64"/>
	<line x1="3554.47" y1="644.88" x2="3571.67" y2="644.88" style="stroke:#808080;stroke-width:8.64"/>
	<line x1="3571.67" y1="644.88" x2="3571.67" y2="640.67" style="stroke:#808080;stroke-width:8.64"/>
	<line x1="3584.91" y1="636.71" x2="3588.87" y2="636.71" style="stroke:#808080;stroke-width:8.64"/>
	<line x1="3588.87" y1="636.71" x2="3588.87" y2="628.55" style="stroke:#808080;stroke-width:8.64"/>
	<line x1="3588.87" y1="628.55" x2="3606.07" y2="628.55" style="stroke:#808080;stroke-width:8.64"/>
	<line x1="3606.07" y1="628.55" x2="3606.07" y2="620.38" style="stroke:#808080;stroke-width:8.64"/>
	<line x1="3606.07" y1="620.38" x2="3608.92" y2="620.38" style="stroke:#808080;stroke-width:8.64"/>
	<line x1="3623.28" y1="617.53" x2="3623.28" y2="612.21" style="stroke:#808080;stroke-width:8.64"/>
	<line x1="3623.28" y1="612.21" x2="3640.48" y2="612.21" style="stroke:#808080;stroke-width:8.64"/>
	<line x1="3640.48" y1="612.21" x2="3640.48" y2="604.17" style="stroke:#808080;stroke-width:8.64"/>
	<line x1="3640.48" y1="604.17" x2="3650.25" y2="604.17" style="stroke:#808080;stroke-width:8.64"/>
	<line x1="3659.29" y1="596.00" x2="3674.88" y2="596.00" style="stroke:#808080;stroke-width:8.64"/>
	<line x1="3674.88" y1="596.00" x2="3674.88" y2="587.95" style="stroke:#808080;stroke-width:8.64"/>
	<line x1="3674.88" y1="587.95" x2="3691.59" y2="587.95" style="stroke:#808080;stroke-width:8.64"/>
	<line x1="3700.87" y1="579.91" x2="3709.28" y2="579.91" style="stroke:#808080;stroke-width:8.64"/>
	<line x1="3709.28" y1="579.91" x2="3709.28" y2="571.87" style="stroke:#808080;stroke-width:8.64"/>
	<line x1="3709.28" y1="571.87" x2="3726.48" y2="571.87" style="stroke:#808080;stroke-width:8.64"/>
	<line x1="3726.48" y1="571.87" x2="3726.48" y2="565.18" style="stroke:#808080;stroke-width:8.64"/>
	<line x1="3742.32" y1="563.82" x2="3743.68" y2="563.82" style="stroke:#808080;stroke-width:8.64"/>
	<line x1="3743.68" y1="563.82" x2="3743.68" y2="555.78" style="stroke:#808080;stroke-width:8.64"/>
	<line x1="3743.68" y1="555.78" x2="3760.89" y2="555.78" style="stroke:#808080;stroke-width:8.64"/>
	<line x1="3760.89" y1="555.78" x2="3760.89" y2="547.73" style="stroke:#808080;stroke-width:8.64"/>
	<line x1="3760.89" y1="547.73" x2="3766.58" y2="547.73" style="stroke:#808080;stroke-width:8.64"/>
	<line x1="3777.96" y1="541.92" x2="3777.96" y2="539.69" style="stroke:#808080;stroke-width:8.64"/>
	<line x1="3777.96" y1="539.69" x2="3795.16" y2="539.69" style="stroke:#808080;stroke-width:8.64"/>
	<line x1="3795.16" y1="539.69" x2="3795.16" y2="531.77" style="stroke:#808080;stroke-width:8.64"/>
	<path d="" stroke-linejoin="round" style="fill:none;stroke:#808080;stroke-width:8.64"/>
	<path d=" M717.75 2317.79 L734.95 2317.79 L734.95 2304.30 L752.15 2304.30 L752.15 2290.93 L769.35 2290.93 L769.35 2277.69 L786.55 2277.69 L786.55 2264.32 L803.76 2264.32 L803.76 2251.21 L820.96 2251.21 L820.96 2238.09 L838.16 2238.09 L838.16 2225.09 L855.36 2225.09 L855.36 2212.10 L872.56 2212.10 L872.56 2199.23 L889.76 2199.23 L889.76 2186.48 L906.84 2186.48 L906.84 2173.61 L924.04 2173.61 L924.04 2160.99 L941.24 2160.99 L941.24 2148.37 L958.44 2148.37 L958.44 2135.74 L975.64 2135.74 L975.64 2123.25 L992.85 2123.25 L992.85 2110.87 L1010.05 2110.87 L1010.05 2098.49 L1027.25 2098.49 L1027.25 2086.12 L1044.45 2086.12 L1044.45 2073.87 L1061.65 2073.87 L1061.65 2061.62 L1078.85 2061.62 L1078.85 2049.49 L1096.05 2049.49 L1096.05 2037.36 L1113.26 2037.36 L1113.26 2025.36 L1130.46 2025.36 L1130.46 2013.35 L1147.53 2013.35 L1147.53 2001.47 L1164.73 2001.47 L1164.73 1989.59 L1181.94 1989.59 L1181.94 1977.83 L1199.14 1977.83 L1199.14 1966.08 L1216.34 1966.08 L1216.34 1954.32 L1233.54 1954.32 L1233.54 1942.69 L1250.74 1942.69 L1250.74 1931.06 L1267.94 1931.06 L1267.94 1919.42 L1285.14 1919.42 L1285.14 1907.91 L1302.35 1907.91 L1302.35 1896.53 L1319.55 1896.53 L1319.55 1885.02 L1336.75 1885.02 L1336.75 1873.63 L1353.95 1873.63 L1353.95 1862.37 L1371.15 1862.37 L1371.15 1850.99 L1388.23 1850.99 L1388.23 1839.85 L1405.43 1839.85 L1405.43 1828.59 L1422.63 1828.59 L1422.63 1817.45 L1439.83 1817.45 L1439.83 1806.31 L1457.03 1806.31 L1457.03 1795.17 L1474.23 1795.17 L1474.23 1784.16 L1491.43 1784.16 L1491.43 1773.15 L1508.64 1773.15 L1508.64 1762.26 L1525.84 1762.26 L1525.84 1751.24 L1543.04 1751.24 L1543.04 1740.35 L1560.24 1740.35 L1560.24 1729.58 L1577.44 1729.58 L1577.44 1718.69 L1594.64 1718.69 L1594.64 1707.93 L1611.84 1707.93 L1611.84 1697.28 L1628.92 1697.28 L1628.92 1686.52 L1646.12 1686.52 L1646.12 1675.87 L1663.32 1675.87 L1663.32 1665.23 L1680.53 1665.23 L1680.53 1654.71 L1697.73 1654.71 L1697.73 1644.07 L1714.93 1644.07 L1714.93 1633.55 L1732.13 1633.55 L1732.13 1623.03 L1749.33 1623.03 L1749.33 1612.64 L1766.53 1612.64 L1766.53 1602.24 L1783.73 1602.24 L1783.73 1591.85 L1800.93 1591.85 L1800.93 1581.45 L1818.13 1581.45 L1818.13 1571.18 L1835.34 1571.18 L1835.34 1560.78 L1852.54 1560.78 L1852.54 1550.51 L1869.62 1550.51 L1869.62 1540.36 L1886.82 1540.36 L1886.82 1530.09 L1904.02 1530.09 L1904.02 1519.94 L1921.22 1519.94 L1921.22 1509.80 L1938.42 1509.80 L1938.42 1499.77 L1955.62 1499.77 L1955.62 1489.63 L1972.82 1489.63 L1972.82 1479.60 L1990.02 1479.60 L1990.02 1469.58 L2007.22 1469.58 L2007.22 1459.68 L2024.43 1459.68 L2024.43 1449.65 L2041.63 1449.65 L2041.63 1439.75 L2058.83 1439.75 L2058.83 1429.85 L2076.03 1429.85 L2076.03 1419.95 L2093.23 1419.95 L2093.23 1410.18 L2110.31 1410.18 L2110.31 1400.28 L2127.51 1400.28 L2127.51 1390.50 L2144.71 1390.50 L2144.71 1380.72 L2161.91 1380.72 L2161.91 1371.07 L2179.11 1371.07 L2179.11 1361.29 L2196.32 1361.29 L2196.32 1351.64 L2213.52 1351.64 L2213.52 1341.99 L2230.72 1341.99 L2230.72 1332.33 L2247.92 1332.33 L2247.92 1322.68 L2265.12 1322.68 L2265.12 1313.15 L2282.32 1313.15 L2282.32 1303.62 L2299.52 1303.62 L2299.52 1293.97 L2316.72 1293.97 L2316.72 1284.57 L2333.93 1284.57 L2333.93 1275.04 L2351.00 1275.04 L2351.00 1265.63 L2368.20 1265.63 L2368.20 1256.10 L2385.41 1256.10 L2385.41 1246.70 L2402.61 1246.70 L2402.61 1237.41 L2419.81 1237.41 L2419.81 1228.01 L2437.01 1228.01 L2437.01 1218.60 L2454.21 1218.60 L2454.21 1209.32 L2471.41 1209.32 L2471.41 1200.04 L2488.61 1200.04 L2488.61 1190.76 L2505.81 1190.76 L2505.81 1181.48 L2523.01 1181.48 L2523.01 1172.32 L2540.22 1172.32 L2540.22 1163.04 L2557.42 1163.04 L2557.42 1153.88 L2574.62 1153.88 L2574.62 1144.72 L2591.70 1144.72 L2591.70 1135.57 L2608.90 1135.57 L2608.90 1126.41 L2626.10 1126.41 L2626.10 1117.37 L2643.30 1117.37 L2643.30 1108.34 L2660.50 1108.34 L2660.50 1099.18 L2677.70 1099.18 L2677.70 1090.15 L2694.90 1090.15 L2694.90 1081.24 L2712.11 1081.24 L2712.11 1072.20 L2729.31 1072.20 L2729.31 1063.17 L2746.51 1063.17 L2746.51 1054.26 L2763.71 1054.26 L2763.71 1045.35 L2780.91 1045.35 L2780.91 1036.44 L2798.11 1036.44 L2798.11 1027.53 L2815.31 1027.53 L2815.31 1018.62 L2832.39 1018.62 L2832.39 1009.83 L2849.59 1009.83 L2849.59 1001.05 L2866.79 1001.05 L2866.79 992.13 L2883.99 992.13 L2883.99 983.35 L2901.20 983.35 L2901.20 974.56 L2918.40 974.56 L2918.40 965.90 L2935.60 965.90 L2935.60 957.11 L2952.80 957.11 L2952.80 948.45 L2970.00 948.45 L2970.00 939.66 L2987.20 939.66 L2987.20 931.00 L3004.40 931.00 L3004.40 922.34 L3021.60 922.34 L3021.60 913.67 L3038.80 913.67 L3038.80 905.14 L3055.88 905.14 L3055.88 896.47 L3073.08 896.47 L3073.08 887.93 L3090.28 887.93 L3090.28 879.27 L3107.49 879.27 L3107.49 870.73 L3124.69 870.73 L3124.69 862.19 L3141.89 862.19 L3141.89 853.65 L3159.09 853.65 L3159.09 845.24 L3176.29 845.24 L3176.29 836.70 L3193.49 836.70 L3193.49 828.28 L3210.69 828.28 L3210.69 819.87 L3227.89 819.87 L3227.89 811.33 L3245.10 811.33 L3245.10 802.92 L3262.30 802.92 L3262.30 794.62 L3279.50 794.62 L3279.50 786.21 L3296.58 786.21 L3296.58 777.79 L3313.78 777.79 L3313.78 769.50 L3330.98 769.50 L3330.98 761.09 L3348.18 761.09 L3348.18 752.79 L3365.38 752.79 L3365.38 744.50 L3382.58 744.50 L3382.58 736.21 L3399.78 736.21 L3399.78 727.92 L3416.99 727.92 L3416.99 719.75 L3434.19 719.75 L3434.19 711.46 L3451.39 711.46 L3451.39 703.29 L3468.59 703.29 L3468.59 695.00 L3485.79 695.00 L3485.79 686.83 L3502.99 686.83 L3502.99 678.67 L3520.19 678.67 L3520.19 670.50 L3537.27 670.50 L3537.27 662.33 L3554.47 662.33 L3554.47 654.29 L3571.67 654.29 L3571.67 646.12 L3588.87 646.12 L3588.87 638.07 L3606.07 638.07 L3606.07 629.91 L3623.28 629.91 L3623.28 621.86 L3640.48 621.86 L3640.48 613.82 L3657.68 613.82 L3657.68 605.78 L3674.88 605.78 L3674.88 597.73 L3692.08 597.73 L3692.08 589.69 L3709.28 589.69 L3709.28 581.77 L3726.48 581.77 L3726.48 573.72 L3743.68 573.72 L3743.68 565.80 L3760.89 565.80 L3760.89 557.76 L3777.96 557.76 L3777.96 549.84 L3795.16 549.84 L3795.16 541.92" stroke-linejoin="round" style="fill:none;stroke:#000000;stroke-width:8.64"/>
	<line x1="495.00" y1="2509.23" x2="495.00" y2="419.90" style="stroke:#000000;stroke-width:5.76"/>
	<line x1="495.00" y1="2445.87" x2="454.90" y2="2445.87" style="stroke:#000000;stroke-width:5.76"/>
	<text x="434.98" y="2480.90" style="font-family:'Helvetica';font-size:99.99px;fill:#000000" text-anchor="end">0</text>
	<line x1="495.00" y1="2316.05" x2="454.90" y2="2316.05" style="stroke:#000000;stroke-width:5.76"/>
	<text x="434.98" y="2351.08" style="font-family:'Helvetica';font-size:99.99px;fill:#000000" text-anchor="end">90</text>
	<line x1="495.00" y1="2186.24" x2="454.90" y2="2186.24" style="stroke:#000000;stroke-width:5.76"/>
	<text x="434.98" y="2221.26" style="font-family:'Helvetica';font-size:99.99px;fill:#000000" text-anchor="end">180</text>
	<line x1="495.00" y1="2056.42" x2="454.90" y2="2056.42" style="stroke:#000000;stroke-width:5.76"/>
	<text x="434.98" y="2091.45" style="font-family:'Helvetica';font-size:99.99px;fill:#000000" text-anchor="end">270</text>
	<line x1="495.00" y1="1926.72" x2="454.90" y2="1926.72" style="stroke:#000000;stroke-width:5.76"/>
	<text x="434.98" y="1961.75" style="font-family:'Helvetica';font-size:99.99px;fill:#000000" text-anchor="end">360</text>
	<text x="190.71" y="1464.63" style="font-family:'Helvetica';font-size:99.99px;fill:#000000" transform="rotate(-90 190.71,1464.63)" text-anchor="middle">LOS (years)</text>
	<line x1="495.00" y1="2509.23" x2="3859.02" y2="2509.23" style="stroke:#000000;stroke-width:5.76"/>
	<line x1="558.36" y1="2509.23" x2="558.36" y2="2549.21" style="stroke:#000000;stroke-width:5.76"/>
	<text x="558.36" y="2625.15" style="font-family:'Helvetica';font-size:79.94px;fill:#000000" text-anchor="middle">0</text>
	<line x1="752.52" y1="2509.23" x2="752.52" y2="2549.21" style="stroke:#000000;stroke-width:5.76"/>
	<text x="752.52" y="2625.15" style="font-family:'Helvetica';font-size:79.94px;fill:#000000" text-anchor="middle">.3</text>
	<line x1="946.81" y1="2509.23" x2="946.81" y2="2549.21" style="stroke:#000000;stroke-width:5.76"/>
	<text x="946.81" y="2625.15" style="font-family:'Helvetica';font-size:79.94px;fill:#000000" text-anchor="middle">.6</text>
	<line x1="1141.10" y1="2509.23" x2="1141.10" y2="2549.21" style="stroke:#000000;stroke-width:5.76"/>
	<text x="1141.10" y="2625.15" style="font-family:'Helvetica';font-size:79.94px;fill:#000000" text-anchor="middle">.9</text>
	<line x1="1335.26" y1="2509.23" x2="1335.26" y2="2549.21" style="stroke:#000000;stroke-width:5.76"/>
	<text x="1335.26" y="2625.15" style="font-family:'Helvetica';font-size:79.94px;fill:#000000" text-anchor="middle">1.2</text>
	<line x1="1529.55" y1="2509.23" x2="1529.55" y2="2549.21" style="stroke:#000000;stroke-width:5.76"/>
	<text x="1529.55" y="2625.15" style="font-family:'Helvetica';font-size:79.94px;fill:#000000" text-anchor="middle">1.5</text>
	<line x1="1723.71" y1="2509.23" x2="1723.71" y2="2549.21" style="stroke:#000000;stroke-width:5.76"/>
	<text x="1723.71" y="2625.15" style="font-family:'Helvetica';font-size:79.94px;fill:#000000" text-anchor="middle">1.8</text>
	<line x1="1918.00" y1="2509.23" x2="1918.00" y2="2549.21" style="stroke:#000000;stroke-width:5.76"/>
	<text x="1918.00" y="2625.15" style="font-family:'Helvetica';font-size:79.94px;fill:#000000" text-anchor="middle">2.1</text>
	<line x1="2112.29" y1="2509.23" x2="2112.29" y2="2549.21" style="stroke:#000000;stroke-width:5.76"/>
	<text x="2112.29" y="2625.15" style="font-family:'Helvetica';font-size:79.94px;fill:#000000" text-anchor="middle">2.4</text>
	<line x1="2306.45" y1="2509.23" x2="2306.45" y2="2549.21" style="stroke:#000000;stroke-width:5.76"/>
	<text x="2306.45" y="2625.15" style="font-family:'Helvetica';font-size:79.94px;fill:#000000" text-anchor="middle">2.7</text>
	<line x1="2500.74" y1="2509.23" x2="2500.74" y2="2549.21" style="stroke:#000000;stroke-width:5.76"/>
	<text x="2500.74" y="2625.15" style="font-family:'Helvetica';font-size:79.94px;fill:#000000" text-anchor="middle">3</text>
	<line x1="2695.03" y1="2509.23" x2="2695.03" y2="2549.21" style="stroke:#000000;stroke-width:5.76"/>
	<text x="2695.03" y="2625.15" style="font-family:'Helvetica';font-size:79.94px;fill:#000000" text-anchor="middle">3.3</text>
	<line x1="2889.19" y1="2509.23" x2="2889.19" y2="2549.21" style="stroke:#000000;stroke-width:5.76"/>
	<text x="2889.19" y="2625.15" style="font-family:'Helvetica';font-size:79.94px;fill:#000000" text-anchor="middle">3.6</text>
	<line x1="3083.48" y1="2509.23" x2="3083.48" y2="2549.21" style="stroke:#000000;stroke-width:5.76"/>
	<text x="3083.48" y="2625.15" style="font-family:'Helvetica';font-size:79.94px;fill:#000000" text-anchor="middle">3.9</text>
	<line x1="3277.77" y1="2509.23" x2="3277.77" y2="2549.21" style="stroke:#000000;stroke-width:5.76"/>
	<text x="3277.77" y="2625.15" style="font-family:'Helvetica';font-size:79.94px;fill:#000000" text-anchor="middle">4.2</text>
	<line x1="3471.93" y1="2509.23" x2="3471.93" y2="2549.21" style="stroke:#000000;stroke-width:5.76"/>
	<text x="3471.93" y="2625.15" style="font-family:'Helvetica';font-size:79.94px;fill:#000000" text-anchor="middle">4.5</text>
	<line x1="3666.22" y1="2509.23" x2="3666.22" y2="2549.21" style="stroke:#000000;stroke-width:5.76"/>
	<text x="3666.22" y="2625.15" style="font-family:'Helvetica';font-size:79.94px;fill:#000000" text-anchor="middle">4.8</text>
	<line x1="3860.51" y1="2509.23" x2="3860.51" y2="2549.21" style="stroke:#000000;stroke-width:5.76"/>
	<text x="3860.51" y="2625.15" style="font-family:'Helvetica';font-size:79.94px;fill:#000000" text-anchor="middle">5.1</text>
	<text x="2177.01" y="2729.16" style="font-family:'Helvetica';font-size:99.99px;fill:#000000" text-anchor="middle">Time (years)</text>
	<rect x="529.53" y="454.42" width="1384.02" height="606.39" style="fill:#FFFFFF"/>
	<rect x="532.41" y="457.30" width="1378.26" height="600.63" style="fill:none;stroke:#000000;stroke-width:5.76"/>
	<rect x="572.72" y="497.74" width="374.34" height="99.99" style="fill:#999999;fill-opacity:0.35"/>
	<rect x="577.03" y="502.06" width="365.70" height="91.35" style="fill:none;stroke:#808080;stroke-opacity:0.35;stroke-width:8.64"/>
	<rect x="572.72" y="637.70" width="374.34" height="99.99" style="fill:#333333;fill-opacity:0.35"/>
	<rect x="577.03" y="642.02" width="365.70" height="91.35" style="fill:none;stroke:#000000;stroke-opacity:0.35;stroke-width:8.64"/>
	<line x1="572.72" y1="827.67" x2="613.06" y2="827.67" style="stroke:#808080;stroke-width:8.64"/>
	<line x1="630.26" y1="827.67" x2="670.60" y2="827.67" style="stroke:#808080;stroke-width:8.64"/>
	<line x1="687.93" y1="827.67" x2="728.27" y2="827.67" style="stroke:#808080;stroke-width:8.64"/>
	<line x1="745.47" y1="827.67" x2="785.81" y2="827.67" style="stroke:#808080;stroke-width:8.64"/>
	<line x1="803.01" y1="827.67" x2="843.36" y2="827.67" style="stroke:#808080;stroke-width:8.64"/>
	<line x1="860.56" y1="827.67" x2="900.90" y2="827.67" style="stroke:#808080;stroke-width:8.64"/>
	<line x1="918.23" y1="827.67" x2="947.06" y2="827.67" style="stroke:#808080;stroke-width:8.64"/>
	<line x1="572.72" y1="967.63" x2="947.06" y2="967.63" style="stroke:#000000;stroke-width:8.64"/>
	<text x="1007.08" y="582.76" style="font-family:'Helvetica';font-size:99.99px;fill:#000000">Ambulatory CI95%</text>
	<text x="1007.08" y="722.73" style="font-family:'Helvetica';font-size:99.99px;fill:#000000">Residential CI95%</text>
	<text x="1007.08" y="862.69" style="font-family:'Helvetica';font-size:99.99px;fill:#000000">Ambulatory</text>
	<text x="1007.08" y="1002.66" style="font-family:'Helvetica';font-size:99.99px;fill:#000000">Residential</text>
	<text x="2177.01" y="369.63" style="font-family:'Helvetica';font-size:110.01px;fill:#000000" text-anchor="middle">in Readmission</text>
	<text x="2177.01" y="215.98" style="font-family:'Helvetica';font-size:139.96px;fill:#1E2D53" text-anchor="middle">Length of Stay</text>
</svg>
