<?xml version="1.0" encoding="UTF-8" standalone="no"?>
<!-- This is a Stata 16.1 generated SVG file (http://www.stata.com) -->

<svg version="1.1" width="5.50in" height="4.00in" viewBox="0 0 3960 2880" xmlns="http://www.w3.org/2000/svg" xmlns:xlink="http://www.w3.org/1999/xlink">
	<desc>Stata Graph - los_models_11_3y_22_corr3</desc>
	<rect x="0" y="0" width="3960" height="2880" style="fill:#EAF2F3;stroke:none"/>
	<rect x="0.00" y="0.00" width="3959.88" height="2880.00" style="fill:#FFFFFF"/>
	<rect x="2.88" y="2.88" width="3954.12" height="2874.24" style="fill:none;stroke:#FFFFFF;stroke-width:5.76"/>
	<rect x="495.00" y="419.90" width="3364.02" height="2089.34" style="fill:#FFFFFF"/>
	<rect x="497.88" y="422.78" width="3358.26" height="2083.58" style="fill:none;stroke:#FFFFFF;stroke-width:5.76"/>
	<line x1="495.00" y1="2200.84" x2="3859.02" y2="2200.84" style="stroke:#EAF2F3;stroke-width:8.64"/>
	<line x1="495.00" y1="1955.93" x2="3859.02" y2="1955.93" style="stroke:#EAF2F3;stroke-width:8.64"/>
	<line x1="495.00" y1="1710.90" x2="3859.02" y2="1710.90" style="stroke:#EAF2F3;stroke-width:8.64"/>
	<line x1="495.00" y1="1465.99" x2="3859.02" y2="1465.99" style="stroke:#EAF2F3;stroke-width:8.64"/>
	<line x1="495.00" y1="1220.96" x2="3859.02" y2="1220.96" style="stroke:#EAF2F3;stroke-width:8.64"/>
	<line x1="495.00" y1="975.92" x2="3859.02" y2="975.92" style="stroke:#EAF2F3;stroke-width:8.64"/>
	<line x1="495.00" y1="731.01" x2="3859.02" y2="731.01" style="stroke:#EAF2F3;stroke-width:8.64"/>
	<defs>
		<path id="path_pwyiOfLw" d="M717.87 2247.49 L717.87 2247.49 L735.08 2247.49 L735.08 2230.42 L752.28 2230.42 L752.28 2213.96 L769.48 2213.96 L769.48 2198.12 L786.55 2198.12 L786.55 2182.77 L803.76 2182.77 L803.76 2168.04 L820.96 2168.04 L820.96 2153.69 L838.16 2153.69 L838.16 2139.83 L855.36 2139.83 L855.36 2126.46 L872.56 2126.46 L872.56 2113.47 L889.76 2113.47 L889.76 2100.72 L906.96 2100.72 L906.96 2088.47 L924.16 2088.47 L924.16 2076.47 L941.37 2076.47 L941.37 2064.83 L958.57 2064.83 L958.57 2053.57 L975.77 2053.57 L975.77 2042.56 L992.97 2042.56 L992.97 2031.79 L1010.17 2031.79 L1010.17 2021.27 L1027.25 2021.27 L1027.25 2011.00 L1044.45 2011.00 L1044.45 2000.98 L1061.65 2000.98 L1061.65 1991.20 L1078.85 1991.20 L1078.85 1981.55 L1096.05 1981.55 L1096.05 1972.14 L1113.26 1972.14 L1113.26 1962.98 L1130.46 1962.98 L1130.46 1953.95 L1147.66 1953.95 L1147.66 1945.16 L1164.86 1945.16 L1164.86 1936.50 L1182.06 1936.50 L1182.06 1927.96 L1199.26 1927.96 L1199.26 1919.67 L1216.46 1919.67 L1216.46 1911.38 L1233.66 1911.38 L1233.66 1903.33 L1250.87 1903.33 L1250.87 1895.29 L1267.94 1895.29 L1267.94 1887.49 L1285.14 1887.49 L1285.14 1879.70 L1302.35 1879.70 L1302.35 1872.15 L1319.55 1872.15 L1319.55 1864.60 L1336.75 1864.60 L1336.75 1857.17 L1353.95 1857.17 L1353.95 1849.87 L1371.15 1849.87 L1371.15 1842.70 L1388.35 1842.70 L1388.35 1835.64 L1405.55 1835.64 L1405.55 1828.59 L1422.75 1828.59 L1422.75 1821.66 L1439.95 1821.66 L1439.95 1814.85 L1457.16 1814.85 L1457.16 1808.04 L1474.36 1808.04 L1474.36 1801.36 L1491.56 1801.36 L1491.56 1794.80 L1508.64 1794.80 L1508.64 1788.24 L1525.84 1788.24 L1525.84 1781.81 L1543.04 1781.81 L1543.04 1775.37 L1560.24 1775.37 L1560.24 1769.06 L1577.44 1769.06 L1577.44 1762.75 L1594.64 1762.75 L1594.64 1756.56 L1611.84 1756.56 L1611.84 1750.37 L1629.05 1750.37 L1629.05 1744.31 L1646.25 1744.31 L1646.25 1738.25 L1663.45 1738.25 L1663.45 1732.31 L1680.65 1732.31 L1680.65 1726.37 L1697.85 1726.37 L1697.85 1720.55 L1715.05 1720.55 L1715.05 1714.73 L1732.25 1714.73 L1732.25 1708.92 L1749.33 1708.92 L1749.33 1703.22 L1766.53 1703.22 L1766.53 1697.53 L1783.73 1697.53 L1783.73 1691.84 L1800.93 1691.84 L1800.93 1686.27 L1818.13 1686.27 L1818.13 1680.70 L1835.34 1680.70 L1835.34 1675.13 L1852.54 1675.13 L1852.54 1669.56 L1869.74 1669.56 L1869.74 1664.12 L1886.94 1664.12 L1886.94 1658.67 L1904.14 1658.67 L1904.14 1653.35 L1921.34 1653.35 L1921.34 1648.03 L1938.54 1648.03 L1938.54 1642.71 L1955.74 1642.71 L1955.74 1637.39 L1972.95 1637.39 L1972.95 1632.19 L1990.02 1632.19 L1990.02 1626.87 L2007.22 1626.87 L2007.22 1621.79 L2024.43 1621.79 L2024.43 1616.60 L2041.63 1616.60 L2041.63 1611.40 L2058.83 1611.40 L2058.83 1606.33 L2076.03 1606.33 L2076.03 1601.25 L2093.23 1601.25 L2093.23 1596.18 L2110.43 1596.18 L2110.43 1591.23 L2127.63 1591.23 L2127.63 1586.15 L2144.84 1586.15 L2144.84 1581.20 L2162.04 1581.20 L2162.04 1576.25 L2179.24 1576.25 L2179.24 1571.30 L2196.44 1571.30 L2196.44 1566.48 L2213.64 1566.48 L2213.64 1561.53 L2230.72 1561.53 L2230.72 1556.70 L2247.92 1556.70 L2247.92 1551.87 L2265.12 1551.87 L2265.12 1547.05 L2282.32 1547.05 L2282.32 1542.22 L2299.52 1542.22 L2299.52 1537.39 L2316.72 1537.39 L2316.72 1532.69 L2333.93 1532.69 L2333.93 1527.87 L2351.13 1527.87 L2351.13 1523.16 L2368.33 1523.16 L2368.33 1518.46 L2385.53 1518.46 L2385.53 1513.76 L2402.73 1513.76 L2402.73 1509.18 L2419.93 1509.18 L2419.93 1504.48 L2437.13 1504.48 L2437.13 1499.90 L2454.33 1499.90 L2454.33 1495.19 L2471.41 1495.19 L2471.41 1490.62 L2488.61 1490.62 L2488.61 1486.04 L2505.81 1486.04 L2505.81 1481.46 L2523.01 1481.46 L2523.01 1476.88 L2540.22 1476.88 L2540.22 1472.42 L2557.42 1472.42 L2557.42 1467.84 L2574.62 1467.84 L2574.62 1463.39 L2591.82 1463.39 L2591.82 1458.81 L2609.02 1458.81 L2609.02 1454.36 L2626.22 1454.36 L2626.22 1449.90 L2643.42 1449.90 L2643.42 1445.45 L2660.63 1445.45 L2660.63 1440.99 L2677.83 1440.99 L2677.83 1436.53 L2695.03 1436.53 L2695.03 1432.08 L2712.11 1432.08 L2712.11 1427.75 L2729.31 1427.75 L2729.31 1423.29 L2746.51 1423.29 L2746.51 1418.96 L2763.71 1418.96 L2763.71 1414.51 L2780.91 1414.51 L2780.91 1410.18 L2798.11 1410.18 L2798.11 1405.84 L2815.31 1405.84 L2815.31 1401.51 L2832.51 1401.51 L2832.51 1397.18 L2849.72 1397.18 L2849.72 1392.85 L2866.92 1392.85 L2866.92 1388.52 L2884.12 1388.52 L2884.12 1384.19 L2901.32 1384.19 L2901.32 1379.98 L2918.52 1379.98 L2918.52 1375.65 L2935.72 1375.65 L2935.72 1371.44 L2952.80 1371.44 L2952.80 1367.11 L2970.00 1367.11 L2970.00 1362.90 L2987.20 1362.90 L2987.20 1358.69 L3004.40 1358.69 L3004.40 1354.36 L3021.60 1354.36 L3021.60 1350.15 L3038.80 1350.15 L3038.80 1345.95 L3056.01 1345.95 L3056.01 1341.74 L3073.21 1341.74 L3073.21 1337.53 L3090.41 1337.53 L3090.41 1333.32 L3107.61 1333.32 L3107.61 1329.12 L3124.81 1329.12 L3124.81 1325.03 L3142.01 1325.03 L3142.01 1320.83 L3159.21 1320.83 L3159.21 1316.62 L3176.29 1316.62 L3176.29 1312.53 L3193.49 1312.53 L3193.49 1308.33 L3210.69 1308.33 L3210.69 1304.24 L3227.89 1304.24 L3227.89 1300.03 L3245.10 1300.03 L3245.10 1295.95 L3262.30 1295.95 L3262.30 1291.74 L3279.50 1291.74 L3279.50 1287.66 L3296.70 1287.66 L3296.70 1283.58 L3313.90 1283.58 L3313.90 1279.49 L3331.10 1279.49 L3331.10 1275.41 L3348.30 1275.41 L3348.30 1271.32 L3365.51 1271.32 L3365.51 1267.24 L3382.71 1267.24 L3382.71 1263.16 L3399.91 1263.16 L3399.91 1259.07 L3416.99 1259.07 L3416.99 1254.99 L3434.19 1254.99 L3434.19 1250.90 L3451.39 1250.90 L3451.39 1246.82 L3468.59 1246.82 L3468.59 1242.74 L3485.79 1242.74 L3485.79 1238.78 L3502.99 1238.78 L3502.99 1234.69 L3520.19 1234.69 L3520.19 1230.73 L3537.39 1230.73 L3537.39 1226.65 L3554.59 1226.65 L3554.59 1222.69 L3571.80 1222.69 L3571.80 1218.60 L3589.00 1218.60 L3589.00 1214.64 L3606.20 1214.64 L3606.20 1210.56 L3623.40 1210.56 L3623.40 1206.60 L3640.60 1206.60 L3640.60 1202.64 L3657.68 1202.64 L3657.68 1198.56 L3674.88 1198.56 L3674.88 1194.60 L3692.08 1194.60 L3692.08 1190.64 L3709.28 1190.64 L3709.28 1186.68 L3726.48 1186.68 L3726.48 1182.72 L3743.68 1182.72 L3743.68 1178.76 L3760.89 1178.76 L3760.89 1174.80 L3778.09 1174.80 L3778.09 1170.84 L3795.29 1170.84 L3795.29 1166.88 L3795.29 1099.06 L3795.29 1103.39 L3778.09 1103.39 L3778.09 1107.72 L3760.89 1107.72 L3760.89 1112.05 L3743.68 1112.05 L3743.68 1116.38 L3726.48 1116.38 L3726.48 1120.72 L3709.28 1120.72 L3709.28 1125.05 L3692.08 1125.05 L3692.08 1129.38 L3674.88 1129.38 L3674.88 1133.71 L3657.68 1133.71 L3657.68 1138.04 L3640.60 1138.04 L3640.60 1142.37 L3623.40 1142.37 L3623.40 1146.70 L3606.20 1146.70 L3606.20 1151.16 L3589.00 1151.16 L3589.00 1155.49 L3571.80 1155.49 L3571.80 1159.82 L3554.59 1159.82 L3554.59 1164.28 L3537.39 1164.28 L3537.39 1168.61 L3520.19 1168.61 L3520.19 1172.94 L3502.99 1172.94 L3502.99 1177.39 L3485.79 1177.39 L3485.79 1181.73 L3468.59 1181.73 L3468.59 1186.18 L3451.39 1186.18 L3451.39 1190.64 L3434.19 1190.64 L3434.19 1194.97 L3416.99 1194.97 L3416.99 1199.42 L3399.91 1199.42 L3399.91 1203.88 L3382.71 1203.88 L3382.71 1208.33 L3365.51 1208.33 L3365.51 1212.79 L3348.30 1212.79 L3348.30 1217.24 L3331.10 1217.24 L3331.10 1221.70 L3313.90 1221.70 L3313.90 1226.15 L3296.70 1226.15 L3296.70 1230.61 L3279.50 1230.61 L3279.50 1235.06 L3262.30 1235.06 L3262.30 1239.52 L3245.10 1239.52 L3245.10 1243.97 L3227.89 1243.97 L3227.89 1248.43 L3210.69 1248.43 L3210.69 1253.01 L3193.49 1253.01 L3193.49 1257.46 L3176.29 1257.46 L3176.29 1262.04 L3159.21 1262.04 L3159.21 1266.50 L3142.01 1266.50 L3142.01 1271.08 L3124.81 1271.08 L3124.81 1275.53 L3107.61 1275.53 L3107.61 1280.11 L3090.41 1280.11 L3090.41 1284.69 L3073.21 1284.69 L3073.21 1289.27 L3056.01 1289.27 L3056.01 1293.85 L3038.80 1293.85 L3038.80 1298.43 L3021.60 1298.43 L3021.60 1303.00 L3004.40 1303.00 L3004.40 1307.58 L2987.20 1307.58 L2987.20 1312.16 L2970.00 1312.16 L2970.00 1316.74 L2952.80 1316.74 L2952.80 1321.32 L2935.72 1321.32 L2935.72 1326.02 L2918.52 1326.02 L2918.52 1330.60 L2901.32 1330.60 L2901.32 1335.30 L2884.12 1335.30 L2884.12 1339.88 L2866.92 1339.88 L2866.92 1344.59 L2849.72 1344.59 L2849.72 1349.29 L2832.51 1349.29 L2832.51 1353.87 L2815.31 1353.87 L2815.31 1358.57 L2798.11 1358.57 L2798.11 1363.27 L2780.91 1363.27 L2780.91 1368.10 L2763.71 1368.10 L2763.71 1372.80 L2746.51 1372.80 L2746.51 1377.50 L2729.31 1377.50 L2729.31 1382.33 L2712.11 1382.33 L2712.11 1387.03 L2695.03 1387.03 L2695.03 1391.86 L2677.83 1391.86 L2677.83 1396.56 L2660.63 1396.56 L2660.63 1401.39 L2643.42 1401.39 L2643.42 1406.22 L2626.22 1406.22 L2626.22 1411.04 L2609.02 1411.04 L2609.02 1415.87 L2591.82 1415.87 L2591.82 1420.69 L2574.62 1420.69 L2574.62 1425.64 L2557.42 1425.64 L2557.42 1430.47 L2540.22 1430.47 L2540.22 1435.30 L2523.01 1435.30 L2523.01 1440.25 L2505.81 1440.25 L2505.81 1445.20 L2488.61 1445.20 L2488.61 1450.15 L2471.41 1450.15 L2471.41 1455.10 L2454.33 1455.10 L2454.33 1460.05 L2437.13 1460.05 L2437.13 1465.00 L2419.93 1465.00 L2419.93 1470.07 L2402.73 1470.07 L2402.73 1475.02 L2385.53 1475.02 L2385.53 1480.10 L2368.33 1480.10 L2368.33 1485.17 L2351.13 1485.17 L2351.13 1490.24 L2333.93 1490.24 L2333.93 1495.32 L2316.72 1495.32 L2316.72 1500.52 L2299.52 1500.52 L2299.52 1505.59 L2282.32 1505.59 L2282.32 1510.79 L2265.12 1510.79 L2265.12 1515.98 L2247.92 1515.98 L2247.92 1521.18 L2230.72 1521.18 L2230.72 1526.38 L2213.64 1526.38 L2213.64 1531.58 L2196.44 1531.58 L2196.44 1536.90 L2179.24 1536.90 L2179.24 1542.10 L2162.04 1542.10 L2162.04 1547.42 L2144.84 1547.42 L2144.84 1552.74 L2127.63 1552.74 L2127.63 1558.18 L2110.43 1558.18 L2110.43 1563.51 L2093.23 1563.51 L2093.23 1568.95 L2076.03 1568.95 L2076.03 1574.40 L2058.83 1574.40 L2058.83 1579.84 L2041.63 1579.84 L2041.63 1585.29 L2024.43 1585.29 L2024.43 1590.86 L2007.22 1590.86 L2007.22 1596.42 L1990.02 1596.42 L1990.02 1601.99 L1972.95 1601.99 L1972.95 1607.56 L1955.74 1607.56 L1955.74 1613.13 L1938.54 1613.13 L1938.54 1618.82 L1921.34 1618.82 L1921.34 1624.64 L1904.14 1624.64 L1904.14 1630.33 L1886.94 1630.33 L1886.94 1636.15 L1869.74 1636.15 L1869.74 1641.97 L1852.54 1641.97 L1852.54 1647.78 L1835.34 1647.78 L1835.34 1653.72 L1818.13 1653.72 L1818.13 1659.66 L1800.93 1659.66 L1800.93 1665.60 L1783.73 1665.60 L1783.73 1671.67 L1766.53 1671.67 L1766.53 1677.73 L1749.33 1677.73 L1749.33 1683.80 L1732.25 1683.80 L1732.25 1689.98 L1715.05 1689.98 L1715.05 1696.17 L1697.85 1696.17 L1697.85 1702.36 L1680.65 1702.36 L1680.65 1708.67 L1663.45 1708.67 L1663.45 1714.98 L1646.25 1714.98 L1646.25 1721.42 L1629.05 1721.42 L1629.05 1727.85 L1611.84 1727.85 L1611.84 1734.41 L1594.64 1734.41 L1594.64 1740.97 L1577.44 1740.97 L1577.44 1747.65 L1560.24 1747.65 L1560.24 1754.33 L1543.04 1754.33 L1543.04 1761.14 L1525.84 1761.14 L1525.84 1767.95 L1508.64 1767.95 L1508.64 1774.88 L1491.56 1774.88 L1491.56 1781.81 L1474.36 1781.81 L1474.36 1788.86 L1457.16 1788.86 L1457.16 1796.04 L1439.95 1796.04 L1439.95 1803.34 L1422.75 1803.34 L1422.75 1810.64 L1405.55 1810.64 L1405.55 1817.94 L1388.35 1817.94 L1388.35 1825.49 L1371.15 1825.49 L1371.15 1833.04 L1353.95 1833.04 L1353.95 1840.72 L1336.75 1840.72 L1336.75 1848.51 L1319.55 1848.51 L1319.55 1856.43 L1302.35 1856.43 L1302.35 1864.48 L1285.14 1864.48 L1285.14 1872.52 L1267.94 1872.52 L1267.94 1880.81 L1250.87 1880.81 L1250.87 1889.23 L1233.66 1889.23 L1233.66 1897.64 L1216.46 1897.64 L1216.46 1906.30 L1199.26 1906.30 L1199.26 1915.09 L1182.06 1915.09 L1182.06 1924.00 L1164.86 1924.00 L1164.86 1933.04 L1147.66 1933.04 L1147.66 1942.32 L1130.46 1942.32 L1130.46 1951.72 L1113.26 1951.72 L1113.26 1961.25 L1096.05 1961.25 L1096.05 1971.15 L1078.85 1971.15 L1078.85 1981.05 L1061.65 1981.05 L1061.65 1991.32 L1044.45 1991.32 L1044.45 2001.72 L1027.25 2001.72 L1027.25 2012.36 L1010.17 2012.36 L1010.17 2023.38 L992.97 2023.38 L992.97 2034.51 L975.77 2034.51 L975.77 2046.02 L958.57 2046.02 L958.57 2057.78 L941.37 2057.78 L941.37 2069.78 L924.16 2069.78 L924.16 2082.16 L906.96 2082.16 L906.96 2094.91 L889.76 2094.91 L889.76 2107.90 L872.56 2107.90 L872.56 2121.39 L855.36 2121.39 L855.36 2135.25 L838.16 2135.25 L838.16 2149.48 L820.96 2149.48 L820.96 2164.21 L803.76 2164.21 L803.76 2179.31 L786.55 2179.31 L786.55 2195.02 L769.48 2195.02 L769.48 2211.23 L752.28 2211.23 L752.28 2228.06 L735.08 2228.06 L735.08 2245.51 L717.87 2245.51 L717.87 2247.49 Z" stroke-linejoin="round"/>
	</defs>
	<defs>
		<clipPath id="clipPath_lFSZxyVj">
			<use xlink:href="#path_pwyiOfLw"/>
		</clipPath>
	</defs>
	<use xlink:href="#path_pwyiOfLw" style="stroke:none;fill:#999999;fill-opacity:0.35"/>
	<use xlink:href="#path_pwyiOfLw" style="fill:none;stroke:#808080;stroke-opacity:0.35;stroke-width:17.28" clip-path="url(#clipPath_lFSZxyVj)"/>
	<defs>
		<path id="path_EVXHVnqH" d="M717.87 2244.77 L717.87 2244.77 L735.08 2244.77 L735.08 2227.20 L752.28 2227.20 L752.28 2210.24 L769.48 2210.24 L769.48 2193.91 L786.55 2193.91 L786.55 2178.07 L803.76 2178.07 L803.76 2162.72 L820.96 2162.72 L820.96 2147.87 L838.16 2147.87 L838.16 2133.39 L855.36 2133.39 L855.36 2119.41 L872.56 2119.41 L872.56 2105.92 L889.76 2105.92 L889.76 2092.68 L906.96 2092.68 L906.96 2079.93 L924.16 2079.93 L924.16 2067.43 L941.37 2067.43 L941.37 2055.30 L958.57 2055.30 L958.57 2043.42 L975.77 2043.42 L975.77 2031.91 L992.97 2031.91 L992.97 2020.65 L1010.17 2020.65 L1010.17 2009.76 L1027.25 2009.76 L1027.25 1999.00 L1044.45 1999.00 L1044.45 1988.48 L1061.65 1988.48 L1061.65 1978.21 L1078.85 1978.21 L1078.85 1968.18 L1096.05 1968.18 L1096.05 1958.40 L1113.26 1958.40 L1113.26 1948.75 L1130.46 1948.75 L1130.46 1939.35 L1147.66 1939.35 L1147.66 1930.07 L1164.86 1930.07 L1164.86 1921.03 L1182.06 1921.03 L1182.06 1912.12 L1199.26 1912.12 L1199.26 1903.46 L1216.46 1903.46 L1216.46 1894.80 L1233.66 1894.80 L1233.66 1886.38 L1250.87 1886.38 L1250.87 1878.09 L1267.94 1878.09 L1267.94 1869.92 L1285.14 1869.92 L1285.14 1861.88 L1302.35 1861.88 L1302.35 1853.96 L1319.55 1853.96 L1319.55 1846.28 L1336.75 1846.28 L1336.75 1838.61 L1353.95 1838.61 L1353.95 1831.06 L1371.15 1831.06 L1371.15 1823.64 L1388.35 1823.64 L1388.35 1816.21 L1405.55 1816.21 L1405.55 1809.03 L1422.75 1809.03 L1422.75 1801.86 L1439.95 1801.86 L1439.95 1794.80 L1457.16 1794.80 L1457.16 1787.87 L1474.36 1787.87 L1474.36 1781.07 L1491.56 1781.07 L1491.56 1774.26 L1508.64 1774.26 L1508.64 1767.58 L1525.84 1767.58 L1525.84 1761.02 L1543.04 1761.02 L1543.04 1754.46 L1560.24 1754.46 L1560.24 1748.02 L1577.44 1748.02 L1577.44 1741.59 L1594.64 1741.59 L1594.64 1735.28 L1611.84 1735.28 L1611.84 1729.09 L1629.05 1729.09 L1629.05 1722.90 L1646.25 1722.90 L1646.25 1716.71 L1663.45 1716.71 L1663.45 1710.65 L1680.65 1710.65 L1680.65 1704.71 L1697.85 1704.71 L1697.85 1698.77 L1715.05 1698.77 L1715.05 1692.95 L1732.25 1692.95 L1732.25 1687.14 L1749.33 1687.14 L1749.33 1681.32 L1766.53 1681.32 L1766.53 1675.63 L1783.73 1675.63 L1783.73 1669.93 L1800.93 1669.93 L1800.93 1664.37 L1818.13 1664.37 L1818.13 1658.80 L1835.34 1658.80 L1835.34 1653.23 L1852.54 1653.23 L1852.54 1647.78 L1869.74 1647.78 L1869.74 1642.34 L1886.94 1642.34 L1886.94 1636.89 L1904.14 1636.89 L1904.14 1631.57 L1921.34 1631.57 L1921.34 1626.25 L1938.54 1626.25 L1938.54 1620.93 L1955.74 1620.93 L1955.74 1615.73 L1972.95 1615.73 L1972.95 1610.53 L1990.02 1610.53 L1990.02 1605.34 L2007.22 1605.34 L2007.22 1600.26 L2024.43 1600.26 L2024.43 1595.06 L2041.63 1595.06 L2041.63 1589.99 L2058.83 1589.99 L2058.83 1585.04 L2076.03 1585.04 L2076.03 1580.09 L2093.23 1580.09 L2093.23 1575.14 L2110.43 1575.14 L2110.43 1570.19 L2127.63 1570.19 L2127.63 1565.24 L2144.84 1565.24 L2144.84 1560.41 L2162.04 1560.41 L2162.04 1555.59 L2179.24 1555.59 L2179.24 1550.76 L2196.44 1550.76 L2196.44 1545.93 L2213.64 1545.93 L2213.64 1541.23 L2230.72 1541.23 L2230.72 1536.40 L2247.92 1536.40 L2247.92 1531.70 L2265.12 1531.70 L2265.12 1527.00 L2282.32 1527.00 L2282.32 1522.42 L2299.52 1522.42 L2299.52 1517.72 L2316.72 1517.72 L2316.72 1513.14 L2333.93 1513.14 L2333.93 1508.56 L2351.13 1508.56 L2351.13 1503.98 L2368.33 1503.98 L2368.33 1499.40 L2385.53 1499.40 L2385.53 1494.82 L2402.73 1494.82 L2402.73 1490.37 L2419.93 1490.37 L2419.93 1485.91 L2437.13 1485.91 L2437.13 1481.46 L2454.33 1481.46 L2454.33 1477.00 L2471.41 1477.00 L2471.41 1472.55 L2488.61 1472.55 L2488.61 1468.09 L2505.81 1468.09 L2505.81 1463.76 L2523.01 1463.76 L2523.01 1459.43 L2540.22 1459.43 L2540.22 1454.97 L2557.42 1454.97 L2557.42 1450.64 L2574.62 1450.64 L2574.62 1446.44 L2591.82 1446.44 L2591.82 1442.10 L2609.02 1442.10 L2609.02 1437.77 L2626.22 1437.77 L2626.22 1433.56 L2643.42 1433.56 L2643.42 1429.36 L2660.63 1429.36 L2660.63 1425.03 L2677.83 1425.03 L2677.83 1420.82 L2695.03 1420.82 L2695.03 1416.61 L2712.11 1416.61 L2712.11 1412.53 L2729.31 1412.53 L2729.31 1408.32 L2746.51 1408.32 L2746.51 1404.11 L2763.71 1404.11 L2763.71 1400.03 L2780.91 1400.03 L2780.91 1395.82 L2798.11 1395.82 L2798.11 1391.74 L2815.31 1391.74 L2815.31 1387.65 L2832.51 1387.65 L2832.51 1383.57 L2849.72 1383.57 L2849.72 1379.48 L2866.92 1379.48 L2866.92 1375.40 L2884.12 1375.40 L2884.12 1371.32 L2901.32 1371.32 L2901.32 1367.36 L2918.52 1367.36 L2918.52 1363.27 L2935.72 1363.27 L2935.72 1359.31 L2952.80 1359.31 L2952.80 1355.35 L2970.00 1355.35 L2970.00 1351.27 L2987.20 1351.27 L2987.20 1347.31 L3004.40 1347.31 L3004.40 1343.35 L3021.60 1343.35 L3021.60 1339.39 L3038.80 1339.39 L3038.80 1335.43 L3056.01 1335.43 L3056.01 1331.59 L3073.21 1331.59 L3073.21 1327.63 L3090.41 1327.63 L3090.41 1323.80 L3107.61 1323.80 L3107.61 1319.83 L3124.81 1319.83 L3124.81 1316.00 L3142.01 1316.00 L3142.01 1312.04 L3159.21 1312.04 L3159.21 1308.20 L3176.29 1308.20 L3176.29 1304.37 L3193.49 1304.37 L3193.49 1300.53 L3210.69 1300.53 L3210.69 1296.69 L3227.89 1296.69 L3227.89 1292.86 L3245.10 1292.86 L3245.10 1289.02 L3262.30 1289.02 L3262.30 1285.18 L3279.50 1285.18 L3279.50 1281.47 L3296.70 1281.47 L3296.70 1277.63 L3313.90 1277.63 L3313.90 1273.92 L3331.10 1273.92 L3331.10 1270.09 L3348.30 1270.09 L3348.30 1266.37 L3365.51 1266.37 L3365.51 1262.66 L3382.71 1262.66 L3382.71 1258.82 L3399.91 1258.82 L3399.91 1255.11 L3416.99 1255.11 L3416.99 1251.40 L3434.19 1251.40 L3434.19 1247.69 L3451.39 1247.69 L3451.39 1243.97 L3468.59 1243.97 L3468.59 1240.26 L3485.79 1240.26 L3485.79 1236.67 L3502.99 1236.67 L3502.99 1232.96 L3520.19 1232.96 L3520.19 1229.25 L3537.39 1229.25 L3537.39 1225.53 L3554.59 1225.53 L3554.59 1221.95 L3571.80 1221.95 L3571.80 1218.23 L3589.00 1218.23 L3589.00 1214.64 L3606.20 1214.64 L3606.20 1210.93 L3623.40 1210.93 L3623.40 1207.34 L3640.60 1207.34 L3640.60 1203.75 L3657.68 1203.75 L3657.68 1200.17 L3674.88 1200.17 L3674.88 1196.45 L3692.08 1196.45 L3692.08 1192.86 L3709.28 1192.86 L3709.28 1189.27 L3726.48 1189.27 L3726.48 1185.69 L3743.68 1185.69 L3743.68 1182.10 L3760.89 1182.10 L3760.89 1178.51 L3778.09 1178.51 L3778.09 1174.92 L3795.29 1174.92 L3795.29 1171.33 L3795.29 1104.01 L3795.29 1107.84 L3778.09 1107.84 L3778.09 1111.80 L3760.89 1111.80 L3760.89 1115.76 L3743.68 1115.76 L3743.68 1119.60 L3726.48 1119.60 L3726.48 1123.56 L3709.28 1123.56 L3709.28 1127.52 L3692.08 1127.52 L3692.08 1131.48 L3674.88 1131.48 L3674.88 1135.44 L3657.68 1135.44 L3657.68 1139.40 L3640.60 1139.40 L3640.60 1143.36 L3623.40 1143.36 L3623.40 1147.32 L3606.20 1147.32 L3606.20 1151.28 L3589.00 1151.28 L3589.00 1155.24 L3571.80 1155.24 L3571.80 1159.20 L3554.59 1159.20 L3554.59 1163.29 L3537.39 1163.29 L3537.39 1167.25 L3520.19 1167.25 L3520.19 1171.21 L3502.99 1171.21 L3502.99 1175.29 L3485.79 1175.29 L3485.79 1179.25 L3468.59 1179.25 L3468.59 1183.33 L3451.39 1183.33 L3451.39 1187.42 L3434.19 1187.42 L3434.19 1191.38 L3416.99 1191.38 L3416.99 1195.46 L3399.91 1195.46 L3399.91 1199.55 L3382.71 1199.55 L3382.71 1203.63 L3365.51 1203.63 L3365.51 1207.71 L3348.30 1207.71 L3348.30 1211.80 L3331.10 1211.80 L3331.10 1215.88 L3313.90 1215.88 L3313.90 1219.97 L3296.70 1219.97 L3296.70 1224.17 L3279.50 1224.17 L3279.50 1228.26 L3262.30 1228.26 L3262.30 1232.46 L3245.10 1232.46 L3245.10 1236.55 L3227.89 1236.55 L3227.89 1240.76 L3210.69 1240.76 L3210.69 1244.84 L3193.49 1244.84 L3193.49 1249.05 L3176.29 1249.05 L3176.29 1253.26 L3159.21 1253.26 L3159.21 1257.46 L3142.01 1257.46 L3142.01 1261.67 L3124.81 1261.67 L3124.81 1265.88 L3107.61 1265.88 L3107.61 1270.09 L3090.41 1270.09 L3090.41 1274.42 L3073.21 1274.42 L3073.21 1278.62 L3056.01 1278.62 L3056.01 1282.83 L3038.80 1282.83 L3038.80 1287.16 L3021.60 1287.16 L3021.60 1291.50 L3004.40 1291.50 L3004.40 1295.70 L2987.20 1295.70 L2987.20 1300.03 L2970.00 1300.03 L2970.00 1304.37 L2952.80 1304.37 L2952.80 1308.70 L2935.72 1308.70 L2935.72 1313.03 L2918.52 1313.03 L2918.52 1317.48 L2901.32 1317.48 L2901.32 1321.82 L2884.12 1321.82 L2884.12 1326.27 L2866.92 1326.27 L2866.92 1330.60 L2849.72 1330.60 L2849.72 1335.06 L2832.51 1335.06 L2832.51 1339.51 L2815.31 1339.51 L2815.31 1343.97 L2798.11 1343.97 L2798.11 1348.42 L2780.91 1348.42 L2780.91 1352.88 L2763.71 1352.88 L2763.71 1357.33 L2746.51 1357.33 L2746.51 1361.79 L2729.31 1361.79 L2729.31 1366.37 L2712.11 1366.37 L2712.11 1370.82 L2695.03 1370.82 L2695.03 1375.40 L2677.83 1375.40 L2677.83 1379.98 L2660.63 1379.98 L2660.63 1384.56 L2643.42 1384.56 L2643.42 1389.14 L2626.22 1389.14 L2626.22 1393.72 L2609.02 1393.72 L2609.02 1398.29 L2591.82 1398.29 L2591.82 1403.00 L2574.62 1403.00 L2574.62 1407.58 L2557.42 1407.58 L2557.42 1412.28 L2540.22 1412.28 L2540.22 1416.98 L2523.01 1416.98 L2523.01 1421.68 L2505.81 1421.68 L2505.81 1426.39 L2488.61 1426.39 L2488.61 1431.21 L2471.41 1431.21 L2471.41 1435.92 L2454.33 1435.92 L2454.33 1440.74 L2437.13 1440.74 L2437.13 1445.57 L2419.93 1445.57 L2419.93 1450.40 L2402.73 1450.40 L2402.73 1455.22 L2385.53 1455.22 L2385.53 1460.17 L2368.33 1460.17 L2368.33 1465.00 L2351.13 1465.00 L2351.13 1469.95 L2333.93 1469.95 L2333.93 1474.90 L2316.72 1474.90 L2316.72 1479.85 L2299.52 1479.85 L2299.52 1484.80 L2282.32 1484.80 L2282.32 1489.87 L2265.12 1489.87 L2265.12 1494.95 L2247.92 1494.95 L2247.92 1500.02 L2230.72 1500.02 L2230.72 1505.09 L2213.64 1505.09 L2213.64 1510.17 L2196.44 1510.17 L2196.44 1515.37 L2179.24 1515.37 L2179.24 1520.44 L2162.04 1520.44 L2162.04 1525.64 L2144.84 1525.64 L2144.84 1530.96 L2127.63 1530.96 L2127.63 1536.16 L2110.43 1536.16 L2110.43 1541.48 L2093.23 1541.48 L2093.23 1546.68 L2076.03 1546.68 L2076.03 1552.12 L2058.83 1552.12 L2058.83 1557.44 L2041.63 1557.44 L2041.63 1562.89 L2024.43 1562.89 L2024.43 1568.33 L2007.22 1568.33 L2007.22 1573.78 L1990.02 1573.78 L1990.02 1579.35 L1972.95 1579.35 L1972.95 1584.92 L1955.74 1584.92 L1955.74 1590.48 L1938.54 1590.48 L1938.54 1596.18 L1921.34 1596.18 L1921.34 1601.87 L1904.14 1601.87 L1904.14 1607.56 L1886.94 1607.56 L1886.94 1613.38 L1869.74 1613.38 L1869.74 1619.20 L1852.54 1619.20 L1852.54 1625.01 L1835.34 1625.01 L1835.34 1630.95 L1818.13 1630.95 L1818.13 1636.89 L1800.93 1636.89 L1800.93 1642.83 L1783.73 1642.83 L1783.73 1648.90 L1766.53 1648.90 L1766.53 1654.96 L1749.33 1654.96 L1749.33 1661.15 L1732.25 1661.15 L1732.25 1667.34 L1715.05 1667.34 L1715.05 1673.52 L1697.85 1673.52 L1697.85 1679.83 L1680.65 1679.83 L1680.65 1686.27 L1663.45 1686.27 L1663.45 1692.71 L1646.25 1692.71 L1646.25 1699.14 L1629.05 1699.14 L1629.05 1705.70 L1611.84 1705.70 L1611.84 1712.38 L1594.64 1712.38 L1594.64 1719.06 L1577.44 1719.06 L1577.44 1725.87 L1560.24 1725.87 L1560.24 1732.68 L1543.04 1732.68 L1543.04 1739.61 L1525.84 1739.61 L1525.84 1746.54 L1508.64 1746.54 L1508.64 1753.59 L1491.56 1753.59 L1491.56 1760.77 L1474.36 1760.77 L1474.36 1768.07 L1457.16 1768.07 L1457.16 1775.37 L1439.95 1775.37 L1439.95 1782.80 L1422.75 1782.80 L1422.75 1790.35 L1405.55 1790.35 L1405.55 1798.02 L1388.35 1798.02 L1388.35 1805.82 L1371.15 1805.82 L1371.15 1813.61 L1353.95 1813.61 L1353.95 1821.53 L1336.75 1821.53 L1336.75 1829.70 L1319.55 1829.70 L1319.55 1837.87 L1302.35 1837.87 L1302.35 1846.16 L1285.14 1846.16 L1285.14 1854.58 L1267.94 1854.58 L1267.94 1863.24 L1250.87 1863.24 L1250.87 1871.90 L1233.66 1871.90 L1233.66 1880.81 L1216.46 1880.81 L1216.46 1889.85 L1199.26 1889.85 L1199.26 1899.00 L1182.06 1899.00 L1182.06 1908.28 L1164.86 1908.28 L1164.86 1917.69 L1147.66 1917.69 L1147.66 1927.34 L1130.46 1927.34 L1130.46 1937.24 L1113.26 1937.24 L1113.26 1947.27 L1096.05 1947.27 L1096.05 1957.54 L1078.85 1957.54 L1078.85 1968.06 L1061.65 1968.06 L1061.65 1978.70 L1044.45 1978.70 L1044.45 1989.59 L1027.25 1989.59 L1027.25 2000.73 L1010.17 2000.73 L1010.17 2012.11 L992.97 2012.11 L992.97 2023.87 L975.77 2023.87 L975.77 2035.75 L958.57 2035.75 L958.57 2048.00 L941.37 2048.00 L941.37 2060.63 L924.16 2060.63 L924.16 2073.50 L906.96 2073.50 L906.96 2086.74 L889.76 2086.74 L889.76 2100.35 L872.56 2100.35 L872.56 2114.33 L855.36 2114.33 L855.36 2128.69 L838.16 2128.69 L838.16 2143.54 L820.96 2143.54 L820.96 2158.76 L803.76 2158.76 L803.76 2174.48 L786.55 2174.48 L786.55 2190.69 L769.48 2190.69 L769.48 2207.52 L752.28 2207.52 L752.28 2224.85 L735.08 2224.85 L735.08 2242.79 L717.87 2242.79 L717.87 2244.77 Z" stroke-linejoin="round"/>
	</defs>
	<defs>
		<clipPath id="clipPath_unfVTySA">
			<use xlink:href="#path_EVXHVnqH"/>
		</clipPath>
	</defs>
	<use xlink:href="#path_EVXHVnqH" style="stroke:none;fill:#333333;fill-opacity:0.35"/>
	<use xlink:href="#path_EVXHVnqH" style="fill:none;stroke:#000000;stroke-opacity:0.35;stroke-width:17.28" clip-path="url(#clipPath_unfVTySA)"/>
	<line x1="717.75" y1="2246.50" x2="734.95" y2="2246.50" style="stroke:#808080;stroke-width:8.64"/>
	<line x1="734.95" y1="2246.50" x2="734.95" y2="2229.30" style="stroke:#808080;stroke-width:8.64"/>
	<line x1="734.95" y1="2229.30" x2="740.89" y2="2229.30" style="stroke:#808080;stroke-width:8.64"/>
	<line x1="752.15" y1="2223.36" x2="752.15" y2="2212.72" style="stroke:#808080;stroke-width:8.64"/>
	<line x1="752.15" y1="2212.72" x2="769.35" y2="2212.72" style="stroke:#808080;stroke-width:8.64"/>
	<line x1="769.35" y1="2212.72" x2="769.35" y2="2200.22" style="stroke:#808080;stroke-width:8.64"/>
	<line x1="782.97" y1="2196.63" x2="786.55" y2="2196.63" style="stroke:#808080;stroke-width:8.64"/>
	<line x1="786.55" y1="2196.63" x2="786.55" y2="2181.16" style="stroke:#808080;stroke-width:8.64"/>
	<line x1="786.55" y1="2181.16" x2="803.76" y2="2181.16" style="stroke:#808080;stroke-width:8.64"/>
	<line x1="803.76" y1="2181.16" x2="803.76" y2="2177.08" style="stroke:#808080;stroke-width:8.64"/>
	<line x1="810.19" y1="2166.19" x2="820.96" y2="2166.19" style="stroke:#808080;stroke-width:8.64"/>
	<line x1="820.96" y1="2166.19" x2="820.96" y2="2151.71" style="stroke:#808080;stroke-width:8.64"/>
	<line x1="820.96" y1="2151.71" x2="835.93" y2="2151.71" style="stroke:#808080;stroke-width:8.64"/>
	<line x1="839.15" y1="2137.60" x2="855.36" y2="2137.60" style="stroke:#808080;stroke-width:8.64"/>
	<line x1="855.36" y1="2137.60" x2="855.36" y2="2123.99" style="stroke:#808080;stroke-width:8.64"/>
	<line x1="855.36" y1="2123.99" x2="865.88" y2="2123.99" style="stroke:#808080;stroke-width:8.64"/>
	<line x1="872.56" y1="2113.47" x2="872.56" y2="2110.75" style="stroke:#808080;stroke-width:8.64"/>
	<line x1="872.56" y1="2110.75" x2="889.76" y2="2110.75" style="stroke:#808080;stroke-width:8.64"/>
	<line x1="889.76" y1="2110.75" x2="889.76" y2="2097.88" style="stroke:#808080;stroke-width:8.64"/>
	<line x1="889.76" y1="2097.88" x2="897.31" y2="2097.88" style="stroke:#808080;stroke-width:8.64"/>
	<line x1="906.84" y1="2090.20" x2="906.84" y2="2085.38" style="stroke:#808080;stroke-width:8.64"/>
	<line x1="906.84" y1="2085.38" x2="924.04" y2="2085.38" style="stroke:#808080;stroke-width:8.64"/>
	<line x1="924.04" y1="2085.38" x2="924.04" y2="2073.25" style="stroke:#808080;stroke-width:8.64"/>
	<line x1="924.04" y1="2073.25" x2="930.23" y2="2073.25" style="stroke:#808080;stroke-width:8.64"/>
	<line x1="941.24" y1="2067.06" x2="941.24" y2="2061.37" style="stroke:#808080;stroke-width:8.64"/>
	<line x1="941.24" y1="2061.37" x2="958.44" y2="2061.37" style="stroke:#808080;stroke-width:8.64"/>
	<line x1="958.44" y1="2061.37" x2="958.44" y2="2049.86" style="stroke:#808080;stroke-width:8.64"/>
	<line x1="958.44" y1="2049.86" x2="964.38" y2="2049.86" style="stroke:#808080;stroke-width:8.64"/>
	<line x1="975.64" y1="2043.80" x2="975.64" y2="2038.60" style="stroke:#808080;stroke-width:8.64"/>
	<line x1="975.64" y1="2038.60" x2="992.85" y2="2038.60" style="stroke:#808080;stroke-width:8.64"/>
	<line x1="992.85" y1="2038.60" x2="992.85" y2="2027.58" style="stroke:#808080;stroke-width:8.64"/>
	<line x1="992.85" y1="2027.58" x2="999.78" y2="2027.58" style="stroke:#808080;stroke-width:8.64"/>
	<line x1="1010.05" y1="2020.65" x2="1010.05" y2="2016.94" style="stroke:#808080;stroke-width:8.64"/>
	<line x1="1010.05" y1="2016.94" x2="1027.25" y2="2016.94" style="stroke:#808080;stroke-width:8.64"/>
	<line x1="1027.25" y1="2016.94" x2="1027.25" y2="2006.42" style="stroke:#808080;stroke-width:8.64"/>
	<line x1="1027.25" y1="2006.42" x2="1036.16" y2="2006.42" style="stroke:#808080;stroke-width:8.64"/>
	<line x1="1044.45" y1="1997.51" x2="1044.45" y2="1996.27" style="stroke:#808080;stroke-width:8.64"/>
	<line x1="1044.45" y1="1996.27" x2="1061.65" y2="1996.27" style="stroke:#808080;stroke-width:8.64"/>
	<line x1="1061.65" y1="1996.27" x2="1061.65" y2="1986.25" style="stroke:#808080;stroke-width:8.64"/>
	<line x1="1061.65" y1="1986.25" x2="1073.53" y2="1986.25" style="stroke:#808080;stroke-width:8.64"/>
	<line x1="1081.08" y1="1976.47" x2="1096.05" y2="1976.47" style="stroke:#808080;stroke-width:8.64"/>
	<line x1="1096.05" y1="1976.47" x2="1096.05" y2="1966.82" style="stroke:#808080;stroke-width:8.64"/>
	<line x1="1096.05" y1="1966.82" x2="1111.65" y2="1966.82" style="stroke:#808080;stroke-width:8.64"/>
	<line x1="1119.57" y1="1957.41" x2="1130.46" y2="1957.41" style="stroke:#808080;stroke-width:8.64"/>
	<line x1="1130.46" y1="1957.41" x2="1130.46" y2="1948.26" style="stroke:#808080;stroke-width:8.64"/>
	<line x1="1130.46" y1="1948.26" x2="1147.53" y2="1948.26" style="stroke:#808080;stroke-width:8.64"/>
	<line x1="1147.53" y1="1948.26" x2="1147.53" y2="1945.16" style="stroke:#808080;stroke-width:8.64"/>
	<line x1="1158.92" y1="1939.22" x2="1164.73" y2="1939.22" style="stroke:#808080;stroke-width:8.64"/>
	<line x1="1164.73" y1="1939.22" x2="1164.73" y2="1930.31" style="stroke:#808080;stroke-width:8.64"/>
	<line x1="1164.73" y1="1930.31" x2="1181.94" y2="1930.31" style="stroke:#808080;stroke-width:8.64"/>
	<line x1="1181.94" y1="1930.31" x2="1181.94" y2="1921.90" style="stroke:#808080;stroke-width:8.64"/>
	<line x1="1198.89" y1="1921.65" x2="1199.14" y2="1921.65" style="stroke:#808080;stroke-width:8.64"/>
	<line x1="1199.14" y1="1921.65" x2="1199.14" y2="1913.11" style="stroke:#808080;stroke-width:8.64"/>
	<line x1="1199.14" y1="1913.11" x2="1216.34" y2="1913.11" style="stroke:#808080;stroke-width:8.64"/>
	<line x1="1216.34" y1="1913.11" x2="1216.34" y2="1904.70" style="stroke:#808080;stroke-width:8.64"/>
	<line x1="1216.34" y1="1904.70" x2="1222.28" y2="1904.70" style="stroke:#808080;stroke-width:8.64"/>
	<line x1="1233.54" y1="1898.76" x2="1233.54" y2="1896.40" style="stroke:#808080;stroke-width:8.64"/>
	<line x1="1233.54" y1="1896.40" x2="1250.74" y2="1896.40" style="stroke:#808080;stroke-width:8.64"/>
	<line x1="1250.74" y1="1896.40" x2="1250.74" y2="1888.24" style="stroke:#808080;stroke-width:8.64"/>
	<line x1="1250.74" y1="1888.24" x2="1263.36" y2="1888.24" style="stroke:#808080;stroke-width:8.64"/>
	<line x1="1272.64" y1="1880.19" x2="1285.14" y2="1880.19" style="stroke:#808080;stroke-width:8.64"/>
	<line x1="1285.14" y1="1880.19" x2="1285.14" y2="1872.15" style="stroke:#808080;stroke-width:8.64"/>
	<line x1="1285.14" y1="1872.15" x2="1302.35" y2="1872.15" style="stroke:#808080;stroke-width:8.64"/>
	<line x1="1302.35" y1="1872.15" x2="1302.35" y2="1869.67" style="stroke:#808080;stroke-width:8.64"/>
	<line x1="1314.35" y1="1864.35" x2="1319.55" y2="1864.35" style="stroke:#808080;stroke-width:8.64"/>
	<line x1="1319.55" y1="1864.35" x2="1319.55" y2="1856.68" style="stroke:#808080;stroke-width:8.64"/>
	<line x1="1319.55" y1="1856.68" x2="1336.75" y2="1856.68" style="stroke:#808080;stroke-width:8.64"/>
	<line x1="1336.75" y1="1856.68" x2="1336.75" y2="1849.13" style="stroke:#808080;stroke-width:8.64"/>
	<line x1="1336.75" y1="1849.13" x2="1339.47" y2="1849.13" style="stroke:#808080;stroke-width:8.64"/>
	<line x1="1353.95" y1="1846.41" x2="1353.95" y2="1841.58" style="stroke:#808080;stroke-width:8.64"/>
	<line x1="1353.95" y1="1841.58" x2="1371.15" y2="1841.58" style="stroke:#808080;stroke-width:8.64"/>
	<line x1="1371.15" y1="1841.58" x2="1371.15" y2="1834.28" style="stroke:#808080;stroke-width:8.64"/>
	<line x1="1371.15" y1="1834.28" x2="1382.16" y2="1834.28" style="stroke:#808080;stroke-width:8.64"/>
	<line x1="1392.06" y1="1826.98" x2="1405.43" y2="1826.98" style="stroke:#808080;stroke-width:8.64"/>
	<line x1="1405.43" y1="1826.98" x2="1405.43" y2="1819.68" style="stroke:#808080;stroke-width:8.64"/>
	<line x1="1405.43" y1="1819.68" x2="1422.63" y2="1819.68" style="stroke:#808080;stroke-width:8.64"/>
	<line x1="1422.63" y1="1819.68" x2="1422.63" y2="1817.20" style="stroke:#808080;stroke-width:8.64"/>
	<line x1="1435.25" y1="1812.62" x2="1439.83" y2="1812.62" style="stroke:#808080;stroke-width:8.64"/>
	<line x1="1439.83" y1="1812.62" x2="1439.83" y2="1805.57" style="stroke:#808080;stroke-width:8.64"/>
	<line x1="1439.83" y1="1805.57" x2="1457.03" y2="1805.57" style="stroke:#808080;stroke-width:8.64"/>
	<line x1="1457.03" y1="1805.57" x2="1457.03" y2="1798.64" style="stroke:#808080;stroke-width:8.64"/>
	<line x1="1457.03" y1="1798.64" x2="1461.61" y2="1798.64" style="stroke:#808080;stroke-width:8.64"/>
	<line x1="1474.23" y1="1793.94" x2="1474.23" y2="1791.71" style="stroke:#808080;stroke-width:8.64"/>
	<line x1="1474.23" y1="1791.71" x2="1491.43" y2="1791.71" style="stroke:#808080;stroke-width:8.64"/>
	<line x1="1491.43" y1="1791.71" x2="1491.43" y2="1784.90" style="stroke:#808080;stroke-width:8.64"/>
	<line x1="1491.43" y1="1784.90" x2="1505.42" y2="1784.90" style="stroke:#808080;stroke-width:8.64"/>
	<line x1="1516.06" y1="1778.22" x2="1525.84" y2="1778.22" style="stroke:#808080;stroke-width:8.64"/>
	<line x1="1525.84" y1="1778.22" x2="1525.84" y2="1771.54" style="stroke:#808080;stroke-width:8.64"/>
	<line x1="1525.84" y1="1771.54" x2="1543.04" y2="1771.54" style="stroke:#808080;stroke-width:8.64"/>
	<line x1="1543.04" y1="1771.54" x2="1543.04" y2="1764.98" style="stroke:#808080;stroke-width:8.64"/>
	<line x1="1543.04" y1="1764.98" x2="1543.16" y2="1764.98" style="stroke:#808080;stroke-width:8.64"/>
	<line x1="1560.24" y1="1764.85" x2="1560.24" y2="1758.54" style="stroke:#808080;stroke-width:8.64"/>
	<line x1="1560.24" y1="1758.54" x2="1577.44" y2="1758.54" style="stroke:#808080;stroke-width:8.64"/>
	<line x1="1577.44" y1="1758.54" x2="1577.44" y2="1752.11" style="stroke:#808080;stroke-width:8.64"/>
	<line x1="1577.44" y1="1752.11" x2="1587.84" y2="1752.11" style="stroke:#808080;stroke-width:8.64"/>
	<line x1="1598.73" y1="1745.67" x2="1611.84" y2="1745.67" style="stroke:#808080;stroke-width:8.64"/>
	<line x1="1611.84" y1="1745.67" x2="1611.84" y2="1739.36" style="stroke:#808080;stroke-width:8.64"/>
	<line x1="1611.84" y1="1739.36" x2="1628.92" y2="1739.36" style="stroke:#808080;stroke-width:8.64"/>
	<line x1="1628.92" y1="1739.36" x2="1628.92" y2="1735.52" style="stroke:#808080;stroke-width:8.64"/>
	<line x1="1643.52" y1="1733.05" x2="1646.12" y2="1733.05" style="stroke:#808080;stroke-width:8.64"/>
	<line x1="1646.12" y1="1733.05" x2="1646.12" y2="1726.86" style="stroke:#808080;stroke-width:8.64"/>
	<line x1="1646.12" y1="1726.86" x2="1663.32" y2="1726.86" style="stroke:#808080;stroke-width:8.64"/>
	<line x1="1663.32" y1="1726.86" x2="1663.32" y2="1720.67" style="stroke:#808080;stroke-width:8.64"/>
	<line x1="1663.32" y1="1720.67" x2="1671.49" y2="1720.67" style="stroke:#808080;stroke-width:8.64"/>
	<line x1="1682.63" y1="1714.49" x2="1697.73" y2="1714.49" style="stroke:#808080;stroke-width:8.64"/>
	<line x1="1697.73" y1="1714.49" x2="1697.73" y2="1708.42" style="stroke:#808080;stroke-width:8.64"/>
	<line x1="1697.73" y1="1708.42" x2="1714.93" y2="1708.42" style="stroke:#808080;stroke-width:8.64"/>
	<line x1="1714.93" y1="1708.42" x2="1714.93" y2="1706.44" style="stroke:#808080;stroke-width:8.64"/>
	<line x1="1728.17" y1="1702.48" x2="1732.13" y2="1702.48" style="stroke:#808080;stroke-width:8.64"/>
	<line x1="1732.13" y1="1702.48" x2="1732.13" y2="1696.54" style="stroke:#808080;stroke-width:8.64"/>
	<line x1="1732.13" y1="1696.54" x2="1749.33" y2="1696.54" style="stroke:#808080;stroke-width:8.64"/>
	<line x1="1749.33" y1="1696.54" x2="1749.33" y2="1690.60" style="stroke:#808080;stroke-width:8.64"/>
	<line x1="1749.33" y1="1690.60" x2="1756.63" y2="1690.60" style="stroke:#808080;stroke-width:8.64"/>
	<line x1="1768.02" y1="1684.79" x2="1783.73" y2="1684.79" style="stroke:#808080;stroke-width:8.64"/>
	<line x1="1783.73" y1="1684.79" x2="1783.73" y2="1678.84" style="stroke:#808080;stroke-width:8.64"/>
	<line x1="1783.73" y1="1678.84" x2="1800.93" y2="1678.84" style="stroke:#808080;stroke-width:8.64"/>
	<line x1="1800.93" y1="1678.84" x2="1800.93" y2="1677.36" style="stroke:#808080;stroke-width:8.64"/>
	<line x1="1813.93" y1="1673.15" x2="1818.13" y2="1673.15" style="stroke:#808080;stroke-width:8.64"/>
	<line x1="1818.13" y1="1673.15" x2="1818.13" y2="1667.34" style="stroke:#808080;stroke-width:8.64"/>
	<line x1="1818.13" y1="1667.34" x2="1835.34" y2="1667.34" style="stroke:#808080;stroke-width:8.64"/>
	<line x1="1835.34" y1="1667.34" x2="1835.34" y2="1661.64" style="stroke:#808080;stroke-width:8.64"/>
	<line x1="1835.34" y1="1661.64" x2="1842.76" y2="1661.64" style="stroke:#808080;stroke-width:8.64"/>
	<line x1="1854.39" y1="1655.95" x2="1869.62" y2="1655.95" style="stroke:#808080;stroke-width:8.64"/>
	<line x1="1869.62" y1="1655.95" x2="1869.62" y2="1650.26" style="stroke:#808080;stroke-width:8.64"/>
	<line x1="1869.62" y1="1650.26" x2="1886.82" y2="1650.26" style="stroke:#808080;stroke-width:8.64"/>
	<line x1="1886.82" y1="1650.26" x2="1886.82" y2="1648.03" style="stroke:#808080;stroke-width:8.64"/>
	<line x1="1900.68" y1="1644.69" x2="1904.02" y2="1644.69" style="stroke:#808080;stroke-width:8.64"/>
	<line x1="1904.02" y1="1644.69" x2="1904.02" y2="1639.12" style="stroke:#808080;stroke-width:8.64"/>
	<line x1="1904.02" y1="1639.12" x2="1921.22" y2="1639.12" style="stroke:#808080;stroke-width:8.64"/>
	<line x1="1921.22" y1="1639.12" x2="1921.22" y2="1633.67" style="stroke:#808080;stroke-width:8.64"/>
	<line x1="1921.22" y1="1633.67" x2="1930.01" y2="1633.67" style="stroke:#808080;stroke-width:8.64"/>
	<line x1="1941.64" y1="1628.11" x2="1955.62" y2="1628.11" style="stroke:#808080;stroke-width:8.64"/>
	<line x1="1955.62" y1="1628.11" x2="1955.62" y2="1622.66" style="stroke:#808080;stroke-width:8.64"/>
	<line x1="1955.62" y1="1622.66" x2="1972.82" y2="1622.66" style="stroke:#808080;stroke-width:8.64"/>
	<line x1="1972.82" y1="1622.66" x2="1972.82" y2="1618.95" style="stroke:#808080;stroke-width:8.64"/>
	<line x1="1988.29" y1="1617.22" x2="1990.02" y2="1617.22" style="stroke:#808080;stroke-width:8.64"/>
	<line x1="1990.02" y1="1617.22" x2="1990.02" y2="1611.89" style="stroke:#808080;stroke-width:8.64"/>
	<line x1="1990.02" y1="1611.89" x2="2007.22" y2="1611.89" style="stroke:#808080;stroke-width:8.64"/>
	<line x1="2007.22" y1="1611.89" x2="2007.22" y2="1606.45" style="stroke:#808080;stroke-width:8.64"/>
	<line x1="2007.22" y1="1606.45" x2="2017.87" y2="1606.45" style="stroke:#808080;stroke-width:8.64"/>
	<line x1="2029.87" y1="1601.13" x2="2041.63" y2="1601.13" style="stroke:#808080;stroke-width:8.64"/>
	<line x1="2041.63" y1="1601.13" x2="2041.63" y2="1595.81" style="stroke:#808080;stroke-width:8.64"/>
	<line x1="2041.63" y1="1595.81" x2="2058.83" y2="1595.81" style="stroke:#808080;stroke-width:8.64"/>
	<line x1="2058.83" y1="1595.81" x2="2058.83" y2="1590.61" style="stroke:#808080;stroke-width:8.64"/>
	<line x1="2058.83" y1="1590.61" x2="2059.57" y2="1590.61" style="stroke:#808080;stroke-width:8.64"/>
	<line x1="2076.03" y1="1589.74" x2="2076.03" y2="1585.29" style="stroke:#808080;stroke-width:8.64"/>
	<line x1="2076.03" y1="1585.29" x2="2093.23" y2="1585.29" style="stroke:#808080;stroke-width:8.64"/>
	<line x1="2093.23" y1="1585.29" x2="2093.23" y2="1580.09" style="stroke:#808080;stroke-width:8.64"/>
	<line x1="2093.23" y1="1580.09" x2="2106.72" y2="1580.09" style="stroke:#808080;stroke-width:8.64"/>
	<line x1="2118.72" y1="1574.89" x2="2127.51" y2="1574.89" style="stroke:#808080;stroke-width:8.64"/>
	<line x1="2127.51" y1="1574.89" x2="2127.51" y2="1569.69" style="stroke:#808080;stroke-width:8.64"/>
	<line x1="2127.51" y1="1569.69" x2="2144.71" y2="1569.69" style="stroke:#808080;stroke-width:8.64"/>
	<line x1="2144.71" y1="1569.69" x2="2144.71" y2="1564.62" style="stroke:#808080;stroke-width:8.64"/>
	<line x1="2144.71" y1="1564.62" x2="2148.80" y2="1564.62" style="stroke:#808080;stroke-width:8.64"/>
	<line x1="2161.91" y1="1560.54" x2="2161.91" y2="1559.42" style="stroke:#808080;stroke-width:8.64"/>
	<line x1="2161.91" y1="1559.42" x2="2179.11" y2="1559.42" style="stroke:#808080;stroke-width:8.64"/>
	<line x1="2179.11" y1="1559.42" x2="2179.11" y2="1554.35" style="stroke:#808080;stroke-width:8.64"/>
	<line x1="2179.11" y1="1554.35" x2="2196.07" y2="1554.35" style="stroke:#808080;stroke-width:8.64"/>
	<line x1="2208.32" y1="1549.27" x2="2213.52" y2="1549.27" style="stroke:#808080;stroke-width:8.64"/>
	<line x1="2213.52" y1="1549.27" x2="2213.52" y2="1544.20" style="stroke:#808080;stroke-width:8.64"/>
	<line x1="2213.52" y1="1544.20" x2="2230.72" y2="1544.20" style="stroke:#808080;stroke-width:8.64"/>
	<line x1="2230.72" y1="1544.20" x2="2230.72" y2="1539.13" style="stroke:#808080;stroke-width:8.64"/>
	<line x1="2230.72" y1="1539.13" x2="2238.39" y2="1539.13" style="stroke:#808080;stroke-width:8.64"/>
	<line x1="2250.76" y1="1534.18" x2="2265.12" y2="1534.18" style="stroke:#808080;stroke-width:8.64"/>
	<line x1="2265.12" y1="1534.18" x2="2265.12" y2="1529.10" style="stroke:#808080;stroke-width:8.64"/>
	<line x1="2265.12" y1="1529.10" x2="2282.32" y2="1529.10" style="stroke:#808080;stroke-width:8.64"/>
	<line x1="2282.32" y1="1529.10" x2="2282.32" y2="1525.39" style="stroke:#808080;stroke-width:8.64"/>
	<line x1="2298.28" y1="1524.15" x2="2299.52" y2="1524.15" style="stroke:#808080;stroke-width:8.64"/>
	<line x1="2299.52" y1="1524.15" x2="2299.52" y2="1519.20" style="stroke:#808080;stroke-width:8.64"/>
	<line x1="2299.52" y1="1519.20" x2="2316.72" y2="1519.20" style="stroke:#808080;stroke-width:8.64"/>
	<line x1="2316.72" y1="1519.20" x2="2316.72" y2="1514.25" style="stroke:#808080;stroke-width:8.64"/>
	<line x1="2316.72" y1="1514.25" x2="2328.73" y2="1514.25" style="stroke:#808080;stroke-width:8.64"/>
	<line x1="2340.98" y1="1509.30" x2="2351.00" y2="1509.30" style="stroke:#808080;stroke-width:8.64"/>
	<line x1="2351.00" y1="1509.30" x2="2351.00" y2="1504.48" style="stroke:#808080;stroke-width:8.64"/>
	<line x1="2351.00" y1="1504.48" x2="2368.20" y2="1504.48" style="stroke:#808080;stroke-width:8.64"/>
	<line x1="2368.20" y1="1504.48" x2="2368.20" y2="1499.53" style="stroke:#808080;stroke-width:8.64"/>
	<line x1="2368.20" y1="1499.53" x2="2371.55" y2="1499.53" style="stroke:#808080;stroke-width:8.64"/>
	<line x1="2385.41" y1="1496.06" x2="2385.41" y2="1494.70" style="stroke:#808080;stroke-width:8.64"/>
	<line x1="2385.41" y1="1494.70" x2="2402.61" y2="1494.70" style="stroke:#808080;stroke-width:8.64"/>
	<line x1="2402.61" y1="1494.70" x2="2402.61" y2="1489.87" style="stroke:#808080;stroke-width:8.64"/>
	<line x1="2402.61" y1="1489.87" x2="2419.56" y2="1489.87" style="stroke:#808080;stroke-width:8.64"/>
	<line x1="2431.93" y1="1485.05" x2="2437.01" y2="1485.05" style="stroke:#808080;stroke-width:8.64"/>
	<line x1="2437.01" y1="1485.05" x2="2437.01" y2="1480.22" style="stroke:#808080;stroke-width:8.64"/>
	<line x1="2437.01" y1="1480.22" x2="2454.21" y2="1480.22" style="stroke:#808080;stroke-width:8.64"/>
	<line x1="2454.21" y1="1480.22" x2="2454.21" y2="1475.39" style="stroke:#808080;stroke-width:8.64"/>
	<line x1="2454.21" y1="1475.39" x2="2462.63" y2="1475.39" style="stroke:#808080;stroke-width:8.64"/>
	<line x1="2475.12" y1="1470.69" x2="2488.61" y2="1470.69" style="stroke:#808080;stroke-width:8.64"/>
	<line x1="2488.61" y1="1470.69" x2="2488.61" y2="1465.86" style="stroke:#808080;stroke-width:8.64"/>
	<line x1="2488.61" y1="1465.86" x2="2505.81" y2="1465.86" style="stroke:#808080;stroke-width:8.64"/>
	<line x1="2505.81" y1="1465.86" x2="2505.81" y2="1461.16" style="stroke:#808080;stroke-width:8.64"/>
	<line x1="2505.81" y1="1461.16" x2="2505.94" y2="1461.16" style="stroke:#808080;stroke-width:8.64"/>
	<line x1="2523.01" y1="1461.04" x2="2523.01" y2="1456.46" style="stroke:#808080;stroke-width:8.64"/>
	<line x1="2523.01" y1="1456.46" x2="2540.22" y2="1456.46" style="stroke:#808080;stroke-width:8.64"/>
	<line x1="2540.22" y1="1456.46" x2="2540.22" y2="1451.76" style="stroke:#808080;stroke-width:8.64"/>
	<line x1="2540.22" y1="1451.76" x2="2554.08" y2="1451.76" style="stroke:#808080;stroke-width:8.64"/>
	<line x1="2566.57" y1="1447.05" x2="2574.62" y2="1447.05" style="stroke:#808080;stroke-width:8.64"/>
	<line x1="2574.62" y1="1447.05" x2="2574.62" y2="1442.35" style="stroke:#808080;stroke-width:8.64"/>
	<line x1="2574.62" y1="1442.35" x2="2591.70" y2="1442.35" style="stroke:#808080;stroke-width:8.64"/>
	<line x1="2591.70" y1="1442.35" x2="2591.70" y2="1437.65" style="stroke:#808080;stroke-width:8.64"/>
	<line x1="2591.70" y1="1437.65" x2="2597.64" y2="1437.65" style="stroke:#808080;stroke-width:8.64"/>
	<line x1="2610.14" y1="1432.95" x2="2626.10" y2="1432.95" style="stroke:#808080;stroke-width:8.64"/>
	<line x1="2626.10" y1="1432.95" x2="2626.10" y2="1428.37" style="stroke:#808080;stroke-width:8.64"/>
	<line x1="2626.10" y1="1428.37" x2="2643.30" y2="1428.37" style="stroke:#808080;stroke-width:8.64"/>
	<line x1="2643.30" y1="1428.37" x2="2643.30" y2="1425.89" style="stroke:#808080;stroke-width:8.64"/>
	<line x1="2658.40" y1="1423.66" x2="2660.50" y2="1423.66" style="stroke:#808080;stroke-width:8.64"/>
	<line x1="2660.50" y1="1423.66" x2="2660.50" y2="1419.09" style="stroke:#808080;stroke-width:8.64"/>
	<line x1="2660.50" y1="1419.09" x2="2677.70" y2="1419.09" style="stroke:#808080;stroke-width:8.64"/>
	<line x1="2677.70" y1="1419.09" x2="2677.70" y2="1414.51" style="stroke:#808080;stroke-width:8.64"/>
	<line x1="2677.70" y1="1414.51" x2="2689.58" y2="1414.51" style="stroke:#808080;stroke-width:8.64"/>
	<line x1="2702.20" y1="1409.93" x2="2712.11" y2="1409.93" style="stroke:#808080;stroke-width:8.64"/>
	<line x1="2712.11" y1="1409.93" x2="2712.11" y2="1405.35" style="stroke:#808080;stroke-width:8.64"/>
	<line x1="2712.11" y1="1405.35" x2="2729.31" y2="1405.35" style="stroke:#808080;stroke-width:8.64"/>
	<line x1="2729.31" y1="1405.35" x2="2729.31" y2="1400.77" style="stroke:#808080;stroke-width:8.64"/>
	<line x1="2729.31" y1="1400.77" x2="2733.39" y2="1400.77" style="stroke:#808080;stroke-width:8.64"/>
	<line x1="2746.51" y1="1396.69" x2="2746.51" y2="1396.19" style="stroke:#808080;stroke-width:8.64"/>
	<line x1="2746.51" y1="1396.19" x2="2763.71" y2="1396.19" style="stroke:#808080;stroke-width:8.64"/>
	<line x1="2763.71" y1="1396.19" x2="2763.71" y2="1391.61" style="stroke:#808080;stroke-width:8.64"/>
	<line x1="2763.71" y1="1391.61" x2="2780.91" y2="1391.61" style="stroke:#808080;stroke-width:8.64"/>
	<line x1="2780.91" y1="1391.61" x2="2780.91" y2="1390.75" style="stroke:#808080;stroke-width:8.64"/>
	<line x1="2794.52" y1="1387.03" x2="2798.11" y2="1387.03" style="stroke:#808080;stroke-width:8.64"/>
	<line x1="2798.11" y1="1387.03" x2="2798.11" y2="1382.58" style="stroke:#808080;stroke-width:8.64"/>
	<line x1="2798.11" y1="1382.58" x2="2815.31" y2="1382.58" style="stroke:#808080;stroke-width:8.64"/>
	<line x1="2815.31" y1="1382.58" x2="2815.31" y2="1378.00" style="stroke:#808080;stroke-width:8.64"/>
	<line x1="2815.31" y1="1378.00" x2="2825.83" y2="1378.00" style="stroke:#808080;stroke-width:8.64"/>
	<line x1="2838.58" y1="1373.54" x2="2849.59" y2="1373.54" style="stroke:#808080;stroke-width:8.64"/>
	<line x1="2849.59" y1="1373.54" x2="2849.59" y2="1369.09" style="stroke:#808080;stroke-width:8.64"/>
	<line x1="2849.59" y1="1369.09" x2="2866.79" y2="1369.09" style="stroke:#808080;stroke-width:8.64"/>
	<line x1="2866.79" y1="1369.09" x2="2866.79" y2="1364.51" style="stroke:#808080;stroke-width:8.64"/>
	<line x1="2866.79" y1="1364.51" x2="2869.89" y2="1364.51" style="stroke:#808080;stroke-width:8.64"/>
	<line x1="2883.99" y1="1361.42" x2="2883.99" y2="1360.06" style="stroke:#808080;stroke-width:8.64"/>
	<line x1="2883.99" y1="1360.06" x2="2901.20" y2="1360.06" style="stroke:#808080;stroke-width:8.64"/>
	<line x1="2901.20" y1="1360.06" x2="2901.20" y2="1355.60" style="stroke:#808080;stroke-width:8.64"/>
	<line x1="2901.20" y1="1355.60" x2="2918.40" y2="1355.60" style="stroke:#808080;stroke-width:8.64"/>
	<line x1="2918.40" y1="1355.60" x2="2918.40" y2="1355.48" style="stroke:#808080;stroke-width:8.64"/>
	<line x1="2931.27" y1="1351.14" x2="2935.60" y2="1351.14" style="stroke:#808080;stroke-width:8.64"/>
	<line x1="2935.60" y1="1351.14" x2="2935.60" y2="1346.69" style="stroke:#808080;stroke-width:8.64"/>
	<line x1="2935.60" y1="1346.69" x2="2952.80" y2="1346.69" style="stroke:#808080;stroke-width:8.64"/>
	<line x1="2952.80" y1="1346.69" x2="2952.80" y2="1342.23" style="stroke:#808080;stroke-width:8.64"/>
	<line x1="2952.80" y1="1342.23" x2="2962.70" y2="1342.23" style="stroke:#808080;stroke-width:8.64"/>
	<line x1="2975.69" y1="1337.90" x2="2987.20" y2="1337.90" style="stroke:#808080;stroke-width:8.64"/>
	<line x1="2987.20" y1="1337.90" x2="2987.20" y2="1333.45" style="stroke:#808080;stroke-width:8.64"/>
	<line x1="2987.20" y1="1333.45" x2="3004.40" y2="1333.45" style="stroke:#808080;stroke-width:8.64"/>
	<line x1="3004.40" y1="1333.45" x2="3004.40" y2="1328.99" style="stroke:#808080;stroke-width:8.64"/>
	<line x1="3004.40" y1="1328.99" x2="3007.00" y2="1328.99" style="stroke:#808080;stroke-width:8.64"/>
	<line x1="3021.60" y1="1326.27" x2="3021.60" y2="1324.66" style="stroke:#808080;stroke-width:8.64"/>
	<line x1="3021.60" y1="1324.66" x2="3038.80" y2="1324.66" style="stroke:#808080;stroke-width:8.64"/>
	<line x1="3038.80" y1="1324.66" x2="3038.80" y2="1320.21" style="stroke:#808080;stroke-width:8.64"/>
	<line x1="3038.80" y1="1320.21" x2="3055.88" y2="1320.21" style="stroke:#808080;stroke-width:8.64"/>
	<line x1="3068.75" y1="1315.87" x2="3073.08" y2="1315.87" style="stroke:#808080;stroke-width:8.64"/>
	<line x1="3073.08" y1="1315.87" x2="3073.08" y2="1311.54" style="stroke:#808080;stroke-width:8.64"/>
	<line x1="3073.08" y1="1311.54" x2="3090.28" y2="1311.54" style="stroke:#808080;stroke-width:8.64"/>
	<line x1="3090.28" y1="1311.54" x2="3090.28" y2="1307.09" style="stroke:#808080;stroke-width:8.64"/>
	<line x1="3090.28" y1="1307.09" x2="3100.31" y2="1307.09" style="stroke:#808080;stroke-width:8.64"/>
	<line x1="3113.18" y1="1302.76" x2="3124.69" y2="1302.76" style="stroke:#808080;stroke-width:8.64"/>
	<line x1="3124.69" y1="1302.76" x2="3124.69" y2="1298.43" style="stroke:#808080;stroke-width:8.64"/>
	<line x1="3124.69" y1="1298.43" x2="3141.89" y2="1298.43" style="stroke:#808080;stroke-width:8.64"/>
	<line x1="3141.89" y1="1298.43" x2="3141.89" y2="1294.09" style="stroke:#808080;stroke-width:8.64"/>
	<line x1="3141.89" y1="1294.09" x2="3144.86" y2="1294.09" style="stroke:#808080;stroke-width:8.64"/>
	<line x1="3159.09" y1="1291.12" x2="3159.09" y2="1289.76" style="stroke:#808080;stroke-width:8.64"/>
	<line x1="3159.09" y1="1289.76" x2="3176.29" y2="1289.76" style="stroke:#808080;stroke-width:8.64"/>
	<line x1="3176.29" y1="1289.76" x2="3176.29" y2="1285.43" style="stroke:#808080;stroke-width:8.64"/>
	<line x1="3176.29" y1="1285.43" x2="3193.49" y2="1285.43" style="stroke:#808080;stroke-width:8.64"/>
	<line x1="3193.49" y1="1285.43" x2="3193.49" y2="1285.06" style="stroke:#808080;stroke-width:8.64"/>
	<line x1="3206.73" y1="1281.10" x2="3210.69" y2="1281.10" style="stroke:#808080;stroke-width:8.64"/>
	<line x1="3210.69" y1="1281.10" x2="3210.69" y2="1276.77" style="stroke:#808080;stroke-width:8.64"/>
	<line x1="3210.69" y1="1276.77" x2="3227.89" y2="1276.77" style="stroke:#808080;stroke-width:8.64"/>
	<line x1="3227.89" y1="1276.77" x2="3227.89" y2="1272.44" style="stroke:#808080;stroke-width:8.64"/>
	<line x1="3227.89" y1="1272.44" x2="3238.41" y2="1272.44" style="stroke:#808080;stroke-width:8.64"/>
	<line x1="3251.28" y1="1268.11" x2="3262.30" y2="1268.11" style="stroke:#808080;stroke-width:8.64"/>
	<line x1="3262.30" y1="1268.11" x2="3262.30" y2="1263.77" style="stroke:#808080;stroke-width:8.64"/>
	<line x1="3262.30" y1="1263.77" x2="3279.50" y2="1263.77" style="stroke:#808080;stroke-width:8.64"/>
	<line x1="3279.50" y1="1263.77" x2="3279.50" y2="1259.57" style="stroke:#808080;stroke-width:8.64"/>
	<line x1="3279.50" y1="1259.57" x2="3283.09" y2="1259.57" style="stroke:#808080;stroke-width:8.64"/>
	<line x1="3296.58" y1="1255.85" x2="3296.58" y2="1255.24" style="stroke:#808080;stroke-width:8.64"/>
	<line x1="3296.58" y1="1255.24" x2="3313.78" y2="1255.24" style="stroke:#808080;stroke-width:8.64"/>
	<line x1="3313.78" y1="1255.24" x2="3313.78" y2="1250.90" style="stroke:#808080;stroke-width:8.64"/>
	<line x1="3313.78" y1="1250.90" x2="3330.98" y2="1250.90" style="stroke:#808080;stroke-width:8.64"/>
	<line x1="3330.98" y1="1250.90" x2="3330.98" y2="1249.91" style="stroke:#808080;stroke-width:8.64"/>
	<line x1="3345.09" y1="1246.70" x2="3348.18" y2="1246.70" style="stroke:#808080;stroke-width:8.64"/>
	<line x1="3348.18" y1="1246.70" x2="3348.18" y2="1242.37" style="stroke:#808080;stroke-width:8.64"/>
	<line x1="3348.18" y1="1242.37" x2="3365.38" y2="1242.37" style="stroke:#808080;stroke-width:8.64"/>
	<line x1="3365.38" y1="1242.37" x2="3365.38" y2="1238.16" style="stroke:#808080;stroke-width:8.64"/>
	<line x1="3365.38" y1="1238.16" x2="3376.77" y2="1238.16" style="stroke:#808080;stroke-width:8.64"/>
	<line x1="3389.76" y1="1233.95" x2="3399.78" y2="1233.95" style="stroke:#808080;stroke-width:8.64"/>
	<line x1="3399.78" y1="1233.95" x2="3399.78" y2="1229.62" style="stroke:#808080;stroke-width:8.64"/>
	<line x1="3399.78" y1="1229.62" x2="3416.99" y2="1229.62" style="stroke:#808080;stroke-width:8.64"/>
	<line x1="3416.99" y1="1229.62" x2="3416.99" y2="1225.41" style="stroke:#808080;stroke-width:8.64"/>
	<line x1="3416.99" y1="1225.41" x2="3421.56" y2="1225.41" style="stroke:#808080;stroke-width:8.64"/>
	<line x1="3434.68" y1="1221.20" x2="3451.39" y2="1221.20" style="stroke:#808080;stroke-width:8.64"/>
	<line x1="3451.39" y1="1221.20" x2="3451.39" y2="1217.00" style="stroke:#808080;stroke-width:8.64"/>
	<line x1="3451.39" y1="1217.00" x2="3468.59" y2="1217.00" style="stroke:#808080;stroke-width:8.64"/>
	<line x1="3468.59" y1="1217.00" x2="3468.59" y2="1214.77" style="stroke:#808080;stroke-width:8.64"/>
	<line x1="3483.81" y1="1212.79" x2="3485.79" y2="1212.79" style="stroke:#808080;stroke-width:8.64"/>
	<line x1="3485.79" y1="1212.79" x2="3485.79" y2="1208.46" style="stroke:#808080;stroke-width:8.64"/>
	<line x1="3485.79" y1="1208.46" x2="3502.99" y2="1208.46" style="stroke:#808080;stroke-width:8.64"/>
	<line x1="3502.99" y1="1208.46" x2="3502.99" y2="1204.25" style="stroke:#808080;stroke-width:8.64"/>
	<line x1="3502.99" y1="1204.25" x2="3515.61" y2="1204.25" style="stroke:#808080;stroke-width:8.64"/>
	<line x1="3528.61" y1="1200.04" x2="3537.27" y2="1200.04" style="stroke:#808080;stroke-width:8.64"/>
	<line x1="3537.27" y1="1200.04" x2="3537.27" y2="1195.83" style="stroke:#808080;stroke-width:8.64"/>
	<line x1="3537.27" y1="1195.83" x2="3554.47" y2="1195.83" style="stroke:#808080;stroke-width:8.64"/>
	<line x1="3554.47" y1="1195.83" x2="3554.47" y2="1191.75" style="stroke:#808080;stroke-width:8.64"/>
	<line x1="3554.47" y1="1191.75" x2="3560.66" y2="1191.75" style="stroke:#808080;stroke-width:8.64"/>
	<line x1="3573.78" y1="1187.54" x2="3588.87" y2="1187.54" style="stroke:#808080;stroke-width:8.64"/>
	<line x1="3588.87" y1="1187.54" x2="3588.87" y2="1183.33" style="stroke:#808080;stroke-width:8.64"/>
	<line x1="3588.87" y1="1183.33" x2="3606.07" y2="1183.33" style="stroke:#808080;stroke-width:8.64"/>
	<line x1="3606.07" y1="1183.33" x2="3606.07" y2="1179.62" style="stroke:#808080;stroke-width:8.64"/>
	<line x1="3622.91" y1="1179.13" x2="3623.28" y2="1179.13" style="stroke:#808080;stroke-width:8.64"/>
	<line x1="3623.28" y1="1179.13" x2="3623.28" y2="1174.92" style="stroke:#808080;stroke-width:8.64"/>
	<line x1="3623.28" y1="1174.92" x2="3640.48" y2="1174.92" style="stroke:#808080;stroke-width:8.64"/>
	<line x1="3640.48" y1="1174.92" x2="3640.48" y2="1170.84" style="stroke:#808080;stroke-width:8.64"/>
	<line x1="3640.48" y1="1170.84" x2="3654.96" y2="1170.84" style="stroke:#808080;stroke-width:8.64"/>
	<line x1="3667.95" y1="1166.63" x2="3674.88" y2="1166.63" style="stroke:#808080;stroke-width:8.64"/>
	<line x1="3674.88" y1="1166.63" x2="3674.88" y2="1162.42" style="stroke:#808080;stroke-width:8.64"/>
	<line x1="3674.88" y1="1162.42" x2="3692.08" y2="1162.42" style="stroke:#808080;stroke-width:8.64"/>
	<line x1="3692.08" y1="1162.42" x2="3692.08" y2="1158.34" style="stroke:#808080;stroke-width:8.64"/>
	<line x1="3692.08" y1="1158.34" x2="3700.00" y2="1158.34" style="stroke:#808080;stroke-width:8.64"/>
	<line x1="3712.99" y1="1154.13" x2="3726.48" y2="1154.13" style="stroke:#808080;stroke-width:8.64"/>
	<line x1="3726.48" y1="1154.13" x2="3726.48" y2="1150.04" style="stroke:#808080;stroke-width:8.64"/>
	<line x1="3726.48" y1="1150.04" x2="3743.68" y2="1150.04" style="stroke:#808080;stroke-width:8.64"/>
	<line x1="3743.68" y1="1150.04" x2="3743.68" y2="1145.84" style="stroke:#808080;stroke-width:8.64"/>
	<line x1="3743.68" y1="1145.84" x2="3745.05" y2="1145.84" style="stroke:#808080;stroke-width:8.64"/>
	<line x1="3760.89" y1="1144.48" x2="3760.89" y2="1141.75" style="stroke:#808080;stroke-width:8.64"/>
	<line x1="3760.89" y1="1141.75" x2="3777.96" y2="1141.75" style="stroke:#808080;stroke-width:8.64"/>
	<line x1="3777.96" y1="1141.75" x2="3777.96" y2="1137.67" style="stroke:#808080;stroke-width:8.64"/>
	<line x1="3777.96" y1="1137.67" x2="3794.42" y2="1137.67" style="stroke:#808080;stroke-width:8.64"/>
	<path d="" stroke-linejoin="round" style="fill:none;stroke:#808080;stroke-width:8.64"/>
	<path d=" M717.75 2243.78 L734.95 2243.78 L734.95 2226.08 L752.15 2226.08 L752.15 2208.88 L769.35 2208.88 L769.35 2192.42 L786.55 2192.42 L786.55 2176.34 L803.76 2176.34 L803.76 2160.87 L820.96 2160.87 L820.96 2145.77 L838.16 2145.77 L838.16 2131.17 L855.36 2131.17 L855.36 2116.93 L872.56 2116.93 L872.56 2103.20 L889.76 2103.20 L889.76 2089.83 L906.84 2089.83 L906.84 2076.84 L924.04 2076.84 L924.04 2064.09 L941.24 2064.09 L941.24 2051.72 L958.44 2051.72 L958.44 2039.71 L975.64 2039.71 L975.64 2027.95 L992.85 2027.95 L992.85 2016.57 L1010.05 2016.57 L1010.05 2005.31 L1027.25 2005.31 L1027.25 1994.42 L1044.45 1994.42 L1044.45 1983.65 L1061.65 1983.65 L1061.65 1973.26 L1078.85 1973.26 L1078.85 1962.98 L1096.05 1962.98 L1096.05 1952.96 L1113.26 1952.96 L1113.26 1943.06 L1130.46 1943.06 L1130.46 1933.41 L1147.53 1933.41 L1147.53 1924.00 L1164.73 1924.00 L1164.73 1914.72 L1181.94 1914.72 L1181.94 1905.69 L1199.14 1905.69 L1199.14 1896.78 L1216.34 1896.78 L1216.34 1887.87 L1233.54 1887.87 L1233.54 1879.33 L1250.74 1879.33 L1250.74 1870.79 L1267.94 1870.79 L1267.94 1862.37 L1285.14 1862.37 L1285.14 1854.20 L1302.35 1854.20 L1302.35 1846.04 L1319.55 1846.04 L1319.55 1838.12 L1336.75 1838.12 L1336.75 1830.20 L1353.95 1830.20 L1353.95 1822.40 L1371.15 1822.40 L1371.15 1814.85 L1388.23 1814.85 L1388.23 1807.30 L1405.43 1807.30 L1405.43 1799.88 L1422.63 1799.88 L1422.63 1792.45 L1439.83 1792.45 L1439.83 1785.27 L1457.03 1785.27 L1457.03 1778.10 L1474.23 1778.10 L1474.23 1771.04 L1491.43 1771.04 L1491.43 1764.11 L1508.64 1764.11 L1508.64 1757.18 L1525.84 1757.18 L1525.84 1750.37 L1543.04 1750.37 L1543.04 1743.69 L1560.24 1743.69 L1560.24 1737.01 L1577.44 1737.01 L1577.44 1730.45 L1594.64 1730.45 L1594.64 1724.02 L1611.84 1724.02 L1611.84 1717.58 L1628.92 1717.58 L1628.92 1711.14 L1646.12 1711.14 L1646.12 1704.83 L1663.32 1704.83 L1663.32 1698.65 L1680.53 1698.65 L1680.53 1692.46 L1697.73 1692.46 L1697.73 1686.39 L1714.93 1686.39 L1714.93 1680.33 L1732.13 1680.33 L1732.13 1674.27 L1749.33 1674.27 L1749.33 1668.33 L1766.53 1668.33 L1766.53 1662.39 L1783.73 1662.39 L1783.73 1656.57 L1800.93 1656.57 L1800.93 1650.75 L1818.13 1650.75 L1818.13 1645.06 L1835.34 1645.06 L1835.34 1639.37 L1852.54 1639.37 L1852.54 1633.67 L1869.62 1633.67 L1869.62 1627.98 L1886.82 1627.98 L1886.82 1622.41 L1904.02 1622.41 L1904.02 1616.84 L1921.22 1616.84 L1921.22 1611.40 L1938.42 1611.40 L1938.42 1605.95 L1955.62 1605.95 L1955.62 1600.51 L1972.82 1600.51 L1972.82 1595.19 L1990.02 1595.19 L1990.02 1589.74 L2007.22 1589.74 L2007.22 1584.42 L2024.43 1584.42 L2024.43 1579.22 L2041.63 1579.22 L2041.63 1574.03 L2058.83 1574.03 L2058.83 1568.83 L2076.03 1568.83 L2076.03 1563.63 L2093.23 1563.63 L2093.23 1558.43 L2110.31 1558.43 L2110.31 1553.36 L2127.51 1553.36 L2127.51 1548.28 L2144.71 1548.28 L2144.71 1543.21 L2161.91 1543.21 L2161.91 1538.26 L2179.11 1538.26 L2179.11 1533.31 L2196.32 1533.31 L2196.32 1528.24 L2213.52 1528.24 L2213.52 1523.41 L2230.72 1523.41 L2230.72 1518.46 L2247.92 1518.46 L2247.92 1513.51 L2265.12 1513.51 L2265.12 1508.68 L2282.32 1508.68 L2282.32 1503.86 L2299.52 1503.86 L2299.52 1499.03 L2316.72 1499.03 L2316.72 1494.20 L2333.93 1494.20 L2333.93 1489.50 L2351.00 1489.50 L2351.00 1484.80 L2368.20 1484.80 L2368.20 1479.97 L2385.41 1479.97 L2385.41 1475.27 L2402.61 1475.27 L2402.61 1470.69 L2419.81 1470.69 L2419.81 1465.99 L2437.01 1465.99 L2437.01 1461.41 L2454.21 1461.41 L2454.21 1456.71 L2471.41 1456.71 L2471.41 1452.13 L2488.61 1452.13 L2488.61 1447.55 L2505.81 1447.55 L2505.81 1442.97 L2523.01 1442.97 L2523.01 1438.51 L2540.22 1438.51 L2540.22 1433.94 L2557.42 1433.94 L2557.42 1429.48 L2574.62 1429.48 L2574.62 1425.03 L2591.70 1425.03 L2591.70 1420.57 L2608.90 1420.57 L2608.90 1416.12 L2626.10 1416.12 L2626.10 1411.66 L2643.30 1411.66 L2643.30 1407.21 L2660.50 1407.21 L2660.50 1402.87 L2677.70 1402.87 L2677.70 1398.42 L2694.90 1398.42 L2694.90 1394.09 L2712.11 1394.09 L2712.11 1389.76 L2729.31 1389.76 L2729.31 1385.42 L2746.51 1385.42 L2746.51 1381.09 L2763.71 1381.09 L2763.71 1376.76 L2780.91 1376.76 L2780.91 1372.43 L2798.11 1372.43 L2798.11 1368.22 L2815.31 1368.22 L2815.31 1363.89 L2832.39 1363.89 L2832.39 1359.68 L2849.59 1359.68 L2849.59 1355.35 L2866.79 1355.35 L2866.79 1351.14 L2883.99 1351.14 L2883.99 1346.94 L2901.20 1346.94 L2901.20 1342.73 L2918.40 1342.73 L2918.40 1338.52 L2935.60 1338.52 L2935.60 1334.31 L2952.80 1334.31 L2952.80 1330.23 L2970.00 1330.23 L2970.00 1326.02 L2987.20 1326.02 L2987.20 1321.94 L3004.40 1321.94 L3004.40 1317.73 L3021.60 1317.73 L3021.60 1313.65 L3038.80 1313.65 L3038.80 1309.56 L3055.88 1309.56 L3055.88 1305.48 L3073.08 1305.48 L3073.08 1301.40 L3090.28 1301.40 L3090.28 1297.31 L3107.49 1297.31 L3107.49 1293.23 L3124.69 1293.23 L3124.69 1289.27 L3141.89 1289.27 L3141.89 1285.18 L3159.09 1285.18 L3159.09 1281.10 L3176.29 1281.10 L3176.29 1277.14 L3193.49 1277.14 L3193.49 1273.06 L3210.69 1273.06 L3210.69 1269.10 L3227.89 1269.10 L3227.89 1265.14 L3245.10 1265.14 L3245.10 1261.18 L3262.30 1261.18 L3262.30 1257.22 L3279.50 1257.22 L3279.50 1253.26 L3296.58 1253.26 L3296.58 1249.30 L3313.78 1249.30 L3313.78 1245.34 L3330.98 1245.34 L3330.98 1241.38 L3348.18 1241.38 L3348.18 1237.41 L3365.38 1237.41 L3365.38 1233.58 L3382.58 1233.58 L3382.58 1229.62 L3399.78 1229.62 L3399.78 1225.78 L3416.99 1225.78 L3416.99 1221.82 L3434.19 1221.82 L3434.19 1217.99 L3451.39 1217.99 L3451.39 1214.15 L3468.59 1214.15 L3468.59 1210.19 L3485.79 1210.19 L3485.79 1206.35 L3502.99 1206.35 L3502.99 1202.52 L3520.19 1202.52 L3520.19 1198.68 L3537.27 1198.68 L3537.27 1194.84 L3554.47 1194.84 L3554.47 1191.01 L3571.67 1191.01 L3571.67 1187.17 L3588.87 1187.17 L3588.87 1183.46 L3606.07 1183.46 L3606.07 1179.62 L3623.28 1179.62 L3623.28 1175.79 L3640.48 1175.79 L3640.48 1171.95 L3657.68 1171.95 L3657.68 1168.24 L3674.88 1168.24 L3674.88 1164.40 L3692.08 1164.40 L3692.08 1160.69 L3709.28 1160.69 L3709.28 1156.85 L3726.48 1156.85 L3726.48 1153.14 L3743.68 1153.14 L3743.68 1149.43 L3760.89 1149.43 L3760.89 1145.59 L3777.96 1145.59 L3777.96 1141.88 L3795.16 1141.88 L3795.16 1138.16" stroke-linejoin="round" style="fill:none;stroke:#000000;stroke-width:8.64"/>
	<line x1="495.00" y1="2509.23" x2="495.00" y2="419.90" style="stroke:#000000;stroke-width:5.76"/>
	<line x1="495.00" y1="2445.87" x2="454.90" y2="2445.87" style="stroke:#000000;stroke-width:5.76"/>
	<text x="434.98" y="2480.90" style="font-family:'Helvetica';font-size:99.99px;fill:#000000" text-anchor="end">0</text>
	<line x1="495.00" y1="2200.84" x2="454.90" y2="2200.84" style="stroke:#000000;stroke-width:5.76"/>
	<text x="434.98" y="2235.87" style="font-family:'Helvetica';font-size:99.99px;fill:#000000" text-anchor="end">90</text>
	<line x1="495.00" y1="1955.93" x2="454.90" y2="1955.93" style="stroke:#000000;stroke-width:5.76"/>
	<text x="434.98" y="1990.96" style="font-family:'Helvetica';font-size:99.99px;fill:#000000" text-anchor="end">180</text>
	<line x1="495.00" y1="1710.90" x2="454.90" y2="1710.90" style="stroke:#000000;stroke-width:5.76"/>
	<text x="434.98" y="1745.93" style="font-family:'Helvetica';font-size:99.99px;fill:#000000" text-anchor="end">270</text>
	<line x1="495.00" y1="1465.99" x2="454.90" y2="1465.99" style="stroke:#000000;stroke-width:5.76"/>
	<text x="434.98" y="1501.02" style="font-family:'Helvetica';font-size:99.99px;fill:#000000" text-anchor="end">360</text>
	<line x1="495.00" y1="1220.96" x2="454.90" y2="1220.96" style="stroke:#000000;stroke-width:5.76"/>
	<text x="434.98" y="1255.98" style="font-family:'Helvetica';font-size:99.99px;fill:#000000" text-anchor="end">450</text>
	<line x1="495.00" y1="975.92" x2="454.90" y2="975.92" style="stroke:#000000;stroke-width:5.76"/>
	<text x="434.98" y="1010.95" style="font-family:'Helvetica';font-size:99.99px;fill:#000000" text-anchor="end">540</text>
	<line x1="495.00" y1="731.01" x2="454.90" y2="731.01" style="stroke:#000000;stroke-width:5.76"/>
	<text x="434.98" y="766.04" style="font-family:'Helvetica';font-size:99.99px;fill:#000000" text-anchor="end">630</text>
	<line x1="495.00" y1="485.98" x2="454.90" y2="485.98" style="stroke:#000000;stroke-width:5.76"/>
	<text x="434.98" y="521.01" style="font-family:'Helvetica';font-size:99.99px;fill:#000000" text-anchor="end">720</text>
	<text x="190.71" y="1464.63" style="font-family:'Helvetica';font-size:99.99px;fill:#000000" transform="rotate(-90 190.71,1464.63)" text-anchor="middle">LOS (years)</text>
	<line x1="495.00" y1="2509.23" x2="3859.02" y2="2509.23" style="stroke:#000000;stroke-width:5.76"/>
	<line x1="558.36" y1="2509.23" x2="558.36" y2="2549.21" style="stroke:#000000;stroke-width:5.76"/>
	<text x="558.36" y="2625.15" style="font-family:'Helvetica';font-size:79.94px;fill:#000000" text-anchor="middle">0</text>
	<line x1="752.52" y1="2509.23" x2="752.52" y2="2549.21" style="stroke:#000000;stroke-width:5.76"/>
	<text x="752.52" y="2625.15" style="font-family:'Helvetica';font-size:79.94px;fill:#000000" text-anchor="middle">.3</text>
	<line x1="946.81" y1="2509.23" x2="946.81" y2="2549.21" style="stroke:#000000;stroke-width:5.76"/>
	<text x="946.81" y="2625.15" style="font-family:'Helvetica';font-size:79.94px;fill:#000000" text-anchor="middle">.6</text>
	<line x1="1141.10" y1="2509.23" x2="1141.10" y2="2549.21" style="stroke:#000000;stroke-width:5.76"/>
	<text x="1141.10" y="2625.15" style="font-family:'Helvetica';font-size:79.94px;fill:#000000" text-anchor="middle">.9</text>
	<line x1="1335.26" y1="2509.23" x2="1335.26" y2="2549.21" style="stroke:#000000;stroke-width:5.76"/>
	<text x="1335.26" y="2625.15" style="font-family:'Helvetica';font-size:79.94px;fill:#000000" text-anchor="middle">1.2</text>
	<line x1="1529.55" y1="2509.23" x2="1529.55" y2="2549.21" style="stroke:#000000;stroke-width:5.76"/>
	<text x="1529.55" y="2625.15" style="font-family:'Helvetica';font-size:79.94px;fill:#000000" text-anchor="middle">1.5</text>
	<line x1="1723.71" y1="2509.23" x2="1723.71" y2="2549.21" style="stroke:#000000;stroke-width:5.76"/>
	<text x="1723.71" y="2625.15" style="font-family:'Helvetica';font-size:79.94px;fill:#000000" text-anchor="middle">1.8</text>
	<line x1="1918.00" y1="2509.23" x2="1918.00" y2="2549.21" style="stroke:#000000;stroke-width:5.76"/>
	<text x="1918.00" y="2625.15" style="font-family:'Helvetica';font-size:79.94px;fill:#000000" text-anchor="middle">2.1</text>
	<line x1="2112.29" y1="2509.23" x2="2112.29" y2="2549.21" style="stroke:#000000;stroke-width:5.76"/>
	<text x="2112.29" y="2625.15" style="font-family:'Helvetica';font-size:79.94px;fill:#000000" text-anchor="middle">2.4</text>
	<line x1="2306.45" y1="2509.23" x2="2306.45" y2="2549.21" style="stroke:#000000;stroke-width:5.76"/>
	<text x="2306.45" y="2625.15" style="font-family:'Helvetica';font-size:79.94px;fill:#000000" text-anchor="middle">2.7</text>
	<line x1="2500.74" y1="2509.23" x2="2500.74" y2="2549.21" style="stroke:#000000;stroke-width:5.76"/>
	<text x="2500.74" y="2625.15" style="font-family:'Helvetica';font-size:79.94px;fill:#000000" text-anchor="middle">3</text>
	<line x1="2695.03" y1="2509.23" x2="2695.03" y2="2549.21" style="stroke:#000000;stroke-width:5.76"/>
	<text x="2695.03" y="2625.15" style="font-family:'Helvetica';font-size:79.94px;fill:#000000" text-anchor="middle">3.3</text>
	<line x1="2889.19" y1="2509.23" x2="2889.19" y2="2549.21" style="stroke:#000000;stroke-width:5.76"/>
	<text x="2889.19" y="2625.15" style="font-family:'Helvetica';font-size:79.94px;fill:#000000" text-anchor="middle">3.6</text>
	<line x1="3083.48" y1="2509.23" x2="3083.48" y2="2549.21" style="stroke:#000000;stroke-width:5.76"/>
	<text x="3083.48" y="2625.15" style="font-family:'Helvetica';font-size:79.94px;fill:#000000" text-anchor="middle">3.9</text>
	<line x1="3277.77" y1="2509.23" x2="3277.77" y2="2549.21" style="stroke:#000000;stroke-width:5.76"/>
	<text x="3277.77" y="2625.15" style="font-family:'Helvetica';font-size:79.94px;fill:#000000" text-anchor="middle">4.2</text>
	<line x1="3471.93" y1="2509.23" x2="3471.93" y2="2549.21" style="stroke:#000000;stroke-width:5.76"/>
	<text x="3471.93" y="2625.15" style="font-family:'Helvetica';font-size:79.94px;fill:#000000" text-anchor="middle">4.5</text>
	<line x1="3666.22" y1="2509.23" x2="3666.22" y2="2549.21" style="stroke:#000000;stroke-width:5.76"/>
	<text x="3666.22" y="2625.15" style="font-family:'Helvetica';font-size:79.94px;fill:#000000" text-anchor="middle">4.8</text>
	<line x1="3860.51" y1="2509.23" x2="3860.51" y2="2549.21" style="stroke:#000000;stroke-width:5.76"/>
	<text x="3860.51" y="2625.15" style="font-family:'Helvetica';font-size:79.94px;fill:#000000" text-anchor="middle">5.1</text>
	<text x="2177.01" y="2729.16" style="font-family:'Helvetica';font-size:99.99px;fill:#000000" text-anchor="middle">Time (years)</text>
	<rect x="529.53" y="454.42" width="1384.02" height="606.39" style="fill:#FFFFFF"/>
	<rect x="532.41" y="457.30" width="1378.26" height="600.63" style="fill:none;stroke:#000000;stroke-width:5.76"/>
	<rect x="572.72" y="497.74" width="374.34" height="99.99" style="fill:#999999;fill-opacity:0.35"/>
	<rect x="577.03" y="502.06" width="365.70" height="91.35" style="fill:none;stroke:#808080;stroke-opacity:0.35;stroke-width:8.64"/>
	<rect x="572.72" y="637.70" width="374.34" height="99.99" style="fill:#333333;fill-opacity:0.35"/>
	<rect x="577.03" y="642.02" width="365.70" height="91.35" style="fill:none;stroke:#000000;stroke-opacity:0.35;stroke-width:8.64"/>
	<line x1="572.72" y1="827.67" x2="613.06" y2="827.67" style="stroke:#808080;stroke-width:8.64"/>
	<line x1="630.26" y1="827.67" x2="670.60" y2="827.67" style="stroke:#808080;stroke-width:8.64"/>
	<line x1="687.93" y1="827.67" x2="728.27" y2="827.67" style="stroke:#808080;stroke-width:8.64"/>
	<line x1="745.47" y1="827.67" x2="785.81" y2="827.67" style="stroke:#808080;stroke-width:8.64"/>
	<line x1="803.01" y1="827.67" x2="843.36" y2="827.67" style="stroke:#808080;stroke-width:8.64"/>
	<line x1="860.56" y1="827.67" x2="900.90" y2="827.67" style="stroke:#808080;stroke-width:8.64"/>
	<line x1="918.23" y1="827.67" x2="947.06" y2="827.67" style="stroke:#808080;stroke-width:8.64"/>
	<line x1="572.72" y1="967.63" x2="947.06" y2="967.63" style="stroke:#000000;stroke-width:8.64"/>
	<text x="1007.08" y="582.76" style="font-family:'Helvetica';font-size:99.99px;fill:#000000">Ambulatory CI95%</text>
	<text x="1007.08" y="722.73" style="font-family:'Helvetica';font-size:99.99px;fill:#000000">Residential CI95%</text>
	<text x="1007.08" y="862.69" style="font-family:'Helvetica';font-size:99.99px;fill:#000000">Ambulatory</text>
	<text x="1007.08" y="1002.66" style="font-family:'Helvetica';font-size:99.99px;fill:#000000">Residential</text>
	<text x="2177.01" y="369.63" style="font-family:'Helvetica';font-size:110.01px;fill:#000000" text-anchor="middle">in Admission</text>
	<text x="2177.01" y="215.98" style="font-family:'Helvetica';font-size:139.96px;fill:#1E2D53" text-anchor="middle">Length of Stay(3y)</text>
</svg>
