<?xml version="1.0" encoding="UTF-8" standalone="no"?>
<!-- This is a Stata 16.1 generated SVG file (http://www.stata.com) -->

<svg version="1.1" width="5.50in" height="4.00in" viewBox="0 0 3960 2880" xmlns="http://www.w3.org/2000/svg" xmlns:xlink="http://www.w3.org/1999/xlink">
	<desc>Stata Graph - trans_models</desc>
	<rect x="0" y="0" width="3960" height="2880" style="fill:#EAF2F3;stroke:none"/>
	<rect x="0.00" y="0.00" width="3959.88" height="2880.00" style="fill:#FFFFFF"/>
	<rect x="2.88" y="2.88" width="3954.12" height="2874.24" style="fill:none;stroke:#FFFFFF;stroke-width:5.76"/>
	<rect x="465.80" y="275.35" width="3393.22" height="2213.83" style="fill:#FFFFFF"/>
	<rect x="468.67" y="278.23" width="3387.47" height="2208.07" style="fill:none;stroke:#FFFFFF;stroke-width:5.76"/>
	<line x1="465.80" y1="2425.82" x2="3859.02" y2="2425.82" style="stroke:#EAF2F3;stroke-width:8.64"/>
	<line x1="465.80" y1="2008.40" x2="3859.02" y2="2008.40" style="stroke:#EAF2F3;stroke-width:8.64"/>
	<line x1="465.80" y1="1590.98" x2="3859.02" y2="1590.98" style="stroke:#EAF2F3;stroke-width:8.64"/>
	<line x1="465.80" y1="1173.56" x2="3859.02" y2="1173.56" style="stroke:#EAF2F3;stroke-width:8.64"/>
	<line x1="465.80" y1="756.14" x2="3859.02" y2="756.14" style="stroke:#EAF2F3;stroke-width:8.64"/>
	<path d=" M538.19 2205.79 L561.08 2053.45 L561.70 2054.81 L576.06 2374.71 L580.02 2067.43 L586.58 2167.30 L595.73 2379.91 L597.71 2058.40 L601.55 2143.66 L605.51 2217.42 L610.71 2169.78 L610.71 2247.00 L631.00 2300.96 L635.58 2195.15 L635.58 2145.52 L636.20 2047.63 L638.18 2189.82 L643.38 2180.30 L645.98 2074.49 L649.32 2308.75 L650.55 2090.20 L655.88 2404.04 L657.73 2093.54 L670.85 2065.33 L671.47 2200.10 L674.07 2046.52 L674.81 2360.73 L684.59 2117.06 L696.96 2097.26 L703.52 2275.59 L710.70 2114.58 L727.03 2051.10 L729.01 2041.44 L730.25 2224.10 L731.61 2107.65 L732.23 2124.61 L734.21 2202.82 L736.19 2075.72 L738.79 2051.72 L749.18 2064.46 L750.54 2041.94 L756.48 2119.66 L756.48 2085.75 L757.72 2094.91 L772.82 2260.61 L772.82 2250.59 L780.62 2074.98 L803.51 2312.34 L808.09 2254.42 L827.02 2081.17 L831.60 2175.10 L836.18 2073.87 L840.01 2049.36 L843.36 2088.72 L845.34 2065.95 L854.37 2080.30 L859.69 2356.03 L860.31 2070.15 L862.91 2341.42 L863.53 2079.44 L864.27 2045.03 L872.07 2045.78 L872.68 2102.21 L885.80 2138.10 L898.18 2106.04 L900.78 2210.86 L903.38 2156.41 L911.91 2115.82 L911.91 2129.80 L921.69 2068.79 L930.23 2160.74 L930.85 2118.42 L936.04 2336.10 L945.20 2048.75 L945.95 2083.64 L953.74 2132.77 L964.14 2040.45 L980.47 2154.06 L987.03 2066.57 L992.97 2127.95 L998.17 2061.00 L1000.15 2072.75 L1019.08 2287.47 L1023.66 2099.86 L1032.08 2365.31 L1042.59 2084.26 L1044.57 2100.85 L1065.49 2192.55 L1069.32 2326.82 L1117.09 2120.77 L1128.11 2296.75 L1143.20 2044.17 L1143.20 2263.71 L1150.38 2122.75 L1154.96 2197.37 L1162.14 2110.50 L1169.93 2078.32 L1173.89 2152.08 L1173.89 2059.64 L1177.85 2139.83 L1220.30 2045.40 L1225.50 2149.98 L1245.79 2091.07 L1259.53 2050.11 L1260.15 2068.30 L1260.15 2237.22 L1261.38 2043.67 L1265.34 2057.66 L1315.71 2271.75 L1343.06 2148.12 L1345.04 2208.14 L1350.24 2165.20 L1385.63 2240.56 L1412.36 2062.11 L1412.98 2126.22 L1424.12 2369.89 L1441.07 2108.89 L1445.03 2060.25 L1465.94 2171.76 L1489.45 2071.27 L1525.34 2043.18 L1534.50 2389.56 L1576.95 2163.09 L1586.10 2136.49 L1591.42 2073.37 L1600.46 2042.43 L1612.21 2053.08 L1620.75 2322.49 L1621.37 2230.54 L1625.95 2317.29 L1631.27 2182.52 L1635.11 2399.59 L1637.09 2384.98 L1667.16 2350.95 L1669.14 2134.63 L1672.98 2104.43 L1708.99 2213.96 L1714.18 2173.61 L1781.51 2098.37 L1797.22 2407.88 L1797.22 2184.75 L1798.46 2096.14 L1819.37 2141.68 L1831.13 2054.44 L1840.90 2304.42 L1869.00 2226.95 L1873.58 2056.79 L1934.34 2059.26 L1937.68 2077.70 L1945.47 2052.21 L1946.71 2187.35 L1959.83 2131.66 L1992.50 2279.67 L2016.01 2177.70 L2036.92 2047.01 L2061.80 2346.13 L2062.42 2394.51 L2107.46 2244.03 L2108.08 2072.13 L2108.08 2283.38 L2144.09 2076.71 L2221.19 2234.00 L2323.78 2082.28 L2333.55 2268.16 L2341.35 2063.10 L2364.24 2113.34 L2399.51 2331.65 L2466.21 2112.23 L2485.15 2092.18 L2509.90 2087.60 L2576.60 2257.64 L2610.51 2042.06 L2620.28 2086.86 L2626.84 2221.01 L2736.61 2103.32 L2819.64 2158.64 L2931.27 2063.72 L2952.92 2055.92 L3103.77 2044.66 L3139.78 2292.42" stroke-linejoin="round" style="fill:none;stroke:#FF0000;stroke-width:8.64"/>
	<path d=" M538.19 2057.66 L561.08 1925.12 L561.70 1925.98 L576.06 2296.25 L580.02 1934.40 L586.58 2017.19 L595.73 2304.54 L597.71 1927.10 L601.55 1994.66 L605.51 2070.15 L610.71 2019.54 L610.71 2104.31 L631.00 2176.58 L635.58 2045.78 L635.58 1996.89 L636.20 1923.51 L638.18 2040.33 L643.38 2030.43 L645.98 1938.98 L649.32 2188.96 L650.55 1947.89 L655.88 2354.29 L657.73 1950.98 L670.85 1932.29 L671.47 2051.22 L674.07 1923.14 L674.81 2269.27 L684.59 1970.04 L696.96 1954.20 L703.52 2143.66 L710.70 1966.94 L727.03 1924.00 L729.01 1920.17 L730.25 2077.83 L731.61 1961.50 L732.23 1976.84 L734.21 2054.44 L736.19 1939.35 L738.79 1924.62 L749.18 1931.55 L750.54 1920.04 L756.48 1973.01 L756.48 1945.41 L757.72 1952.34 L772.82 2123.25 L772.82 2108.89 L780.62 1938.85 L803.51 2195.02 L808.09 2113.34 L827.02 1943.06 L831.60 2026.22 L836.18 1938.11 L840.01 1923.88 L843.36 1947.27 L845.34 1933.04 L854.37 1942.19 L859.69 2261.23 L860.31 1935.51 L862.91 2237.84 L863.53 1941.70 L864.27 1922.39 L872.07 1923.14 L872.68 1958.28 L885.80 1989.34 L898.18 1960.63 L900.78 2063.84 L903.38 2007.16 L911.91 1968.31 L911.91 1981.79 L921.69 1934.89 L930.23 2011.12 L930.85 1971.03 L936.04 2230.04 L945.20 1923.75 L945.95 1943.93 L953.74 1984.64 L964.14 1919.92 L980.47 2004.69 L987.03 1934.03 L992.97 1980.19 L998.17 1929.57 L1000.15 1937.37 L1019.08 2158.89 L1023.66 1956.05 L1032.08 2277.81 L1042.59 1944.67 L1044.57 1957.54 L1065.49 2043.18 L1069.32 2215.81 L1117.09 1974.49 L1128.11 2170.64 L1143.20 1921.65 L1143.20 2127.95 L1150.38 1975.48 L1154.96 2048.62 L1162.14 1963.60 L1169.93 1940.96 L1173.89 2002.46 L1173.89 1928.21 L1177.85 1990.83 L1220.30 1922.64 L1225.50 2000.36 L1245.79 1948.63 L1259.53 1924.00 L1260.15 1934.89 L1260.15 2092.80 L1261.38 1921.65 L1265.34 1926.72 L1315.71 2138.34 L1343.06 1998.38 L1345.04 2061.00 L1350.24 2015.21 L1385.63 2097.01 L1412.36 1930.31 L1412.98 1978.82 L1424.12 2287.47 L1441.07 1962.37 L1445.03 1928.83 L1465.94 2021.77 L1489.45 1936.50 L1525.34 1921.16 L1534.50 2323.85 L1576.95 2012.98 L1586.10 1987.98 L1591.42 1937.49 L1600.46 1920.54 L1612.21 1924.99 L1620.75 2208.51 L1621.37 2085.01 L1625.95 2201.58 L1631.27 2032.53 L1635.11 2343.90 L1637.09 2313.70 L1667.16 2253.06 L1669.14 1986.62 L1672.98 1959.89 L1708.99 2066.69 L1714.18 2023.99 L1781.51 1955.19 L1797.22 2363.70 L1797.22 2035.13 L1798.46 1952.96 L1819.37 1992.81 L1831.13 1925.86 L1840.90 2182.52 L1869.00 2081.54 L1873.58 1926.60 L1934.34 1927.34 L1937.68 1940.21 L1945.47 1925.12 L1946.71 2037.48 L1959.83 1983.16 L1992.50 2148.86 L2016.01 2028.33 L2036.92 1923.51 L2061.80 2245.76 L2062.42 2333.63 L2107.46 2100.85 L2108.08 1937.00 L2108.08 2153.56 L2144.09 1939.59 L2221.19 2088.47 L2323.78 1943.43 L2333.55 2133.15 L2341.35 1930.68 L2364.24 1966.08 L2399.51 2222.99 L2466.21 1964.59 L2485.15 1950.24 L2509.90 1946.90 L2576.60 2118.17 L2610.51 1920.29 L2620.28 1946.28 L2626.84 2074.11 L2736.61 1958.90 L2819.64 2008.90 L2931.27 1930.81 L2952.92 1926.35 L3103.77 1922.15 L3139.78 2164.46" stroke-linejoin="round" style="fill:none;stroke:#0000FF;stroke-width:8.64"/>
	<text x="531.75" y="1013.71" style="font-family:'Helvetica';font-size:79.94px;fill:#000000" text-anchor="middle">Post Surgery</text>
	<text x="531.75" y="2140.74" style="font-family:'Helvetica';font-size:79.94px;fill:#000000" text-anchor="middle">Relapse</text>
	<text x="531.75" y="1702.53" style="font-family:'Helvetica';font-size:79.94px;fill:#000000" text-anchor="middle">Death</text>
	<line x1="465.80" y1="2489.19" x2="465.80" y2="275.35" style="stroke:#000000;stroke-width:5.76"/>
	<line x1="465.80" y1="2425.82" x2="425.82" y2="2425.82" style="stroke:#000000;stroke-width:5.76"/>
	<text x="405.78" y="2460.85" style="font-family:'Helvetica';font-size:99.99px;fill:#000000" text-anchor="end">0.0</text>
	<line x1="465.80" y1="2008.40" x2="425.82" y2="2008.40" style="stroke:#000000;stroke-width:5.76"/>
	<text x="405.78" y="2043.43" style="font-family:'Helvetica';font-size:99.99px;fill:#000000" text-anchor="end">0.2</text>
	<line x1="465.80" y1="1590.98" x2="425.82" y2="1590.98" style="stroke:#000000;stroke-width:5.76"/>
	<text x="405.78" y="1626.01" style="font-family:'Helvetica';font-size:99.99px;fill:#000000" text-anchor="end">0.4</text>
	<line x1="465.80" y1="1173.56" x2="425.82" y2="1173.56" style="stroke:#000000;stroke-width:5.76"/>
	<text x="405.78" y="1208.59" style="font-family:'Helvetica';font-size:99.99px;fill:#000000" text-anchor="end">0.6</text>
	<line x1="465.80" y1="756.14" x2="425.82" y2="756.14" style="stroke:#000000;stroke-width:5.76"/>
	<text x="405.78" y="791.16" style="font-family:'Helvetica';font-size:99.99px;fill:#000000" text-anchor="end">0.8</text>
	<line x1="465.80" y1="338.71" x2="425.82" y2="338.71" style="stroke:#000000;stroke-width:5.76"/>
	<text x="405.78" y="373.74" style="font-family:'Helvetica';font-size:99.99px;fill:#000000" text-anchor="end">1.0</text>
	<text x="190.71" y="1382.33" style="font-family:'Helvetica';font-size:99.99px;fill:#000000" transform="rotate(-90 190.71,1382.33)" text-anchor="middle">Probability</text>
	<line x1="465.80" y1="2489.19" x2="3859.02" y2="2489.19" style="stroke:#000000;stroke-width:5.76"/>
	<line x1="529.15" y1="2489.19" x2="529.15" y2="2529.16" style="stroke:#000000;stroke-width:5.76"/>
	<text x="529.15" y="2619.14" style="font-family:'Helvetica';font-size:99.99px;fill:#000000" text-anchor="middle">0</text>
	<line x1="767.62" y1="2489.19" x2="767.62" y2="2529.16" style="stroke:#000000;stroke-width:5.76"/>
	<text x="767.62" y="2619.14" style="font-family:'Helvetica';font-size:99.99px;fill:#000000" text-anchor="middle">365</text>
	<line x1="1006.09" y1="2489.19" x2="1006.09" y2="2529.16" style="stroke:#000000;stroke-width:5.76"/>
	<text x="1006.09" y="2619.14" style="font-family:'Helvetica';font-size:99.99px;fill:#000000" text-anchor="middle">730</text>
	<line x1="1244.55" y1="2489.19" x2="1244.55" y2="2529.16" style="stroke:#000000;stroke-width:5.76"/>
	<text x="1244.55" y="2619.14" style="font-family:'Helvetica';font-size:99.99px;fill:#000000" text-anchor="middle">1095</text>
	<line x1="1483.02" y1="2489.19" x2="1483.02" y2="2529.16" style="stroke:#000000;stroke-width:5.76"/>
	<text x="1483.02" y="2619.14" style="font-family:'Helvetica';font-size:99.99px;fill:#000000" text-anchor="middle">1460</text>
	<line x1="1721.49" y1="2489.19" x2="1721.49" y2="2529.16" style="stroke:#000000;stroke-width:5.76"/>
	<text x="1721.49" y="2619.14" style="font-family:'Helvetica';font-size:99.99px;fill:#000000" text-anchor="middle">1825</text>
	<line x1="1959.95" y1="2489.19" x2="1959.95" y2="2529.16" style="stroke:#000000;stroke-width:5.76"/>
	<text x="1959.95" y="2619.14" style="font-family:'Helvetica';font-size:99.99px;fill:#000000" text-anchor="middle">2190</text>
	<line x1="2198.42" y1="2489.19" x2="2198.42" y2="2529.16" style="stroke:#000000;stroke-width:5.76"/>
	<text x="2198.42" y="2619.14" style="font-family:'Helvetica';font-size:99.99px;fill:#000000" text-anchor="middle">2555</text>
	<line x1="2436.76" y1="2489.19" x2="2436.76" y2="2529.16" style="stroke:#000000;stroke-width:5.76"/>
	<text x="2436.76" y="2619.14" style="font-family:'Helvetica';font-size:99.99px;fill:#000000" text-anchor="middle">2920</text>
	<line x1="2675.23" y1="2489.19" x2="2675.23" y2="2529.16" style="stroke:#000000;stroke-width:5.76"/>
	<text x="2675.23" y="2619.14" style="font-family:'Helvetica';font-size:99.99px;fill:#000000" text-anchor="middle">3285</text>
	<line x1="2913.69" y1="2489.19" x2="2913.69" y2="2529.16" style="stroke:#000000;stroke-width:5.76"/>
	<text x="2913.69" y="2619.14" style="font-family:'Helvetica';font-size:99.99px;fill:#000000" text-anchor="middle">3650</text>
	<line x1="3152.16" y1="2489.19" x2="3152.16" y2="2529.16" style="stroke:#000000;stroke-width:5.76"/>
	<text x="3152.16" y="2619.14" style="font-family:'Helvetica';font-size:99.99px;fill:#000000" text-anchor="middle">4015</text>
	<line x1="3390.63" y1="2489.19" x2="3390.63" y2="2529.16" style="stroke:#000000;stroke-width:5.76"/>
	<text x="3390.63" y="2619.14" style="font-family:'Helvetica';font-size:99.99px;fill:#000000" text-anchor="middle">4380</text>
	<line x1="3629.09" y1="2489.19" x2="3629.09" y2="2529.16" style="stroke:#000000;stroke-width:5.76"/>
	<text x="3629.09" y="2619.14" style="font-family:'Helvetica';font-size:99.99px;fill:#000000" text-anchor="middle">4745</text>
	<line x1="3867.56" y1="2489.19" x2="3867.56" y2="2529.16" style="stroke:#000000;stroke-width:5.76"/>
	<text x="3867.56" y="2619.14" style="font-family:'Helvetica';font-size:99.99px;fill:#000000" text-anchor="middle">5110</text>
	<text x="2162.41" y="2729.16" style="font-family:'Helvetica';font-size:99.99px;fill:#000000" text-anchor="middle">Time (years)</text>
	<rect x="500.32" y="1219.10" width="1200.38" height="326.34" style="fill:#FFFFFF"/>
	<rect x="503.20" y="1221.98" width="1194.62" height="320.58" style="fill:none;stroke:#000000;stroke-width:5.76"/>
	<line x1="543.51" y1="1312.29" x2="917.98" y2="1312.29" style="stroke:#FF0000;stroke-width:8.64"/>
	<line x1="543.51" y1="1452.25" x2="917.98" y2="1452.25" style="stroke:#0000FF;stroke-width:8.64"/>
	<text x="977.87" y="1347.31" style="font-family:'Helvetica';font-size:99.99px;fill:#000000">Clock-Forward</text>
	<text x="977.87" y="1487.28" style="font-family:'Helvetica';font-size:99.99px;fill:#000000">Time At</text>
	<text x="2162.41" y="215.98" style="font-family:'Helvetica';font-size:139.96px;fill:#1E2D53" text-anchor="middle">Transition Probabilities</text>
</svg>
