<?xml version="1.0" encoding="UTF-8" standalone="no"?>
<!-- This is a Stata 16.1 generated SVG file (http://www.stata.com) -->

<svg version="1.1" width="5.50in" height="4.00in" viewBox="0 0 3960 2880" xmlns="http://www.w3.org/2000/svg" xmlns:xlink="http://www.w3.org/1999/xlink">
	<desc>Stata Graph - los_models44</desc>
	<rect x="0" y="0" width="3960" height="2880" style="fill:#EAF2F3;stroke:none"/>
	<rect x="0.00" y="0.00" width="3959.88" height="2880.00" style="fill:#FFFFFF"/>
	<rect x="2.88" y="2.88" width="3954.12" height="2874.24" style="fill:none;stroke:#FFFFFF;stroke-width:5.76"/>
	<rect x="553.29" y="419.90" width="3305.73" height="2089.34" style="fill:#FFFFFF"/>
	<rect x="556.17" y="422.78" width="3299.97" height="2083.58" style="fill:none;stroke:#FFFFFF;stroke-width:5.76"/>
	<line x1="553.29" y1="2445.87" x2="3859.02" y2="2445.87" style="stroke:#EAF2F3;stroke-width:8.64"/>
	<line x1="553.29" y1="2252.57" x2="3859.02" y2="2252.57" style="stroke:#EAF2F3;stroke-width:8.64"/>
	<line x1="553.29" y1="2059.14" x2="3859.02" y2="2059.14" style="stroke:#EAF2F3;stroke-width:8.64"/>
	<line x1="553.29" y1="1865.84" x2="3859.02" y2="1865.84" style="stroke:#EAF2F3;stroke-width:8.64"/>
	<line x1="553.29" y1="1672.41" x2="3859.02" y2="1672.41" style="stroke:#EAF2F3;stroke-width:8.64"/>
	<line x1="553.29" y1="1479.11" x2="3859.02" y2="1479.11" style="stroke:#EAF2F3;stroke-width:8.64"/>
	<line x1="553.29" y1="1285.68" x2="3859.02" y2="1285.68" style="stroke:#EAF2F3;stroke-width:8.64"/>
	<line x1="553.29" y1="1092.38" x2="3859.02" y2="1092.38" style="stroke:#EAF2F3;stroke-width:8.64"/>
	<line x1="553.29" y1="898.95" x2="3859.02" y2="898.95" style="stroke:#EAF2F3;stroke-width:8.64"/>
	<line x1="553.29" y1="705.64" x2="3859.02" y2="705.64" style="stroke:#EAF2F3;stroke-width:8.64"/>
	<defs>
		<path id="path_oKzdCBPm" d="M773.31 2353.43 L773.31 2353.43 L790.14 2353.43 L790.14 2344.02 L807.10 2344.02 L807.10 2334.74 L823.93 2334.74 L823.93 2325.58 L840.88 2325.58 L840.88 2316.55 L857.71 2316.55 L857.71 2307.51 L874.54 2307.51 L874.54 2298.73 L891.50 2298.73 L891.50 2289.94 L908.33 2289.94 L908.33 2281.28 L925.28 2281.28 L925.28 2272.74 L942.11 2272.74 L942.11 2264.20 L959.06 2264.20 L959.06 2255.91 L975.89 2255.91 L975.89 2247.49 L992.72 2247.49 L992.72 2239.33 L1009.68 2239.33 L1009.68 2231.16 L1026.51 2231.16 L1026.51 2223.11 L1043.46 2223.11 L1043.46 2215.19 L1060.29 2215.19 L1060.29 2207.27 L1077.24 2207.27 L1077.24 2199.48 L1094.07 2199.48 L1094.07 2191.80 L1110.90 2191.80 L1110.90 2184.13 L1127.86 2184.13 L1127.86 2176.46 L1144.69 2176.46 L1144.69 2169.03 L1161.64 2169.03 L1161.64 2161.61 L1178.47 2161.61 L1178.47 2154.18 L1195.42 2154.18 L1195.42 2146.88 L1212.26 2146.88 L1212.26 2139.58 L1229.09 2139.58 L1229.09 2132.40 L1246.04 2132.40 L1246.04 2125.35 L1262.87 2125.35 L1262.87 2118.29 L1279.82 2118.29 L1279.82 2111.24 L1296.65 2111.24 L1296.65 2104.31 L1313.61 2104.31 L1313.61 2097.38 L1330.44 2097.38 L1330.44 2090.57 L1347.27 2090.57 L1347.27 2083.77 L1364.22 2083.77 L1364.22 2077.08 L1381.05 2077.08 L1381.05 2070.40 L1398.00 2070.40 L1398.00 2063.84 L1414.83 2063.84 L1414.83 2057.28 L1431.66 2057.28 L1431.66 2050.73 L1448.62 2050.73 L1448.62 2044.29 L1465.45 2044.29 L1465.45 2037.85 L1482.40 2037.85 L1482.40 2031.54 L1499.23 2031.54 L1499.23 2025.23 L1516.18 2025.23 L1516.18 2018.92 L1533.02 2018.92 L1533.02 2012.73 L1549.85 2012.73 L1549.85 2006.55 L1566.80 2006.55 L1566.80 2000.48 L1583.63 2000.48 L1583.63 1994.29 L1600.58 1994.29 L1600.58 1988.35 L1617.41 1988.35 L1617.41 1982.29 L1634.37 1982.29 L1634.37 1976.35 L1651.20 1976.35 L1651.20 1970.41 L1668.03 1970.41 L1668.03 1964.59 L1684.98 1964.59 L1684.98 1958.65 L1701.81 1958.65 L1701.81 1952.96 L1718.76 1952.96 L1718.76 1947.14 L1735.59 1947.14 L1735.59 1941.45 L1752.55 1941.45 L1752.55 1935.76 L1769.38 1935.76 L1769.38 1930.07 L1786.21 1930.07 L1786.21 1924.50 L1803.16 1924.50 L1803.16 1918.93 L1819.99 1918.93 L1819.99 1913.36 L1836.94 1913.36 L1836.94 1907.91 L1853.78 1907.91 L1853.78 1902.34 L1870.73 1902.34 L1870.73 1897.02 L1887.56 1897.02 L1887.56 1891.58 L1904.39 1891.58 L1904.39 1886.26 L1921.34 1886.26 L1921.34 1880.94 L1938.17 1880.94 L1938.17 1875.61 L1955.13 1875.61 L1955.13 1870.29 L1971.96 1870.29 L1971.96 1865.09 L1988.91 1865.09 L1988.91 1859.90 L2005.74 1859.90 L2005.74 1854.70 L2022.57 1854.70 L2022.57 1849.63 L2039.52 1849.63 L2039.52 1844.55 L2056.35 1844.55 L2056.35 1839.48 L2073.31 1839.48 L2073.31 1834.40 L2090.14 1834.40 L2090.14 1829.33 L2106.97 1829.33 L2106.97 1824.38 L2123.92 1824.38 L2123.92 1819.43 L2140.75 1819.43 L2140.75 1814.48 L2157.70 1814.48 L2157.70 1809.65 L2174.53 1809.65 L2174.53 1804.70 L2191.49 1804.70 L2191.49 1799.88 L2208.32 1799.88 L2208.32 1795.05 L2225.15 1795.05 L2225.15 1790.35 L2242.10 1790.35 L2242.10 1785.52 L2258.93 1785.52 L2258.93 1780.82 L2275.89 1780.82 L2275.89 1776.12 L2292.72 1776.12 L2292.72 1771.41 L2309.67 1771.41 L2309.67 1766.83 L2326.50 1766.83 L2326.50 1762.13 L2343.33 1762.13 L2343.33 1757.55 L2360.28 1757.55 L2360.28 1752.97 L2377.11 1752.97 L2377.11 1748.39 L2394.07 1748.39 L2394.07 1743.94 L2410.90 1743.94 L2410.90 1739.36 L2427.85 1739.36 L2427.85 1734.91 L2444.68 1734.91 L2444.68 1730.45 L2461.51 1730.45 L2461.51 1726.00 L2478.47 1726.00 L2478.47 1721.66 L2495.30 1721.66 L2495.30 1717.21 L2512.25 1717.21 L2512.25 1712.88 L2529.08 1712.88 L2529.08 1708.55 L2546.03 1708.55 L2546.03 1704.21 L2562.86 1704.21 L2562.86 1699.88 L2579.69 1699.88 L2579.69 1695.68 L2596.65 1695.68 L2596.65 1691.34 L2613.48 1691.34 L2613.48 1687.14 L2630.43 1687.14 L2630.43 1682.93 L2647.26 1682.93 L2647.26 1678.72 L2664.21 1678.72 L2664.21 1674.51 L2681.04 1674.51 L2681.04 1670.43 L2697.87 1670.43 L2697.87 1666.22 L2714.83 1666.22 L2714.83 1662.14 L2731.66 1662.14 L2731.66 1658.05 L2748.61 1658.05 L2748.61 1653.97 L2765.44 1653.97 L2765.44 1649.89 L2782.27 1649.89 L2782.27 1645.93 L2799.22 1645.93 L2799.22 1641.84 L2816.05 1641.84 L2816.05 1637.88 L2833.01 1637.88 L2833.01 1633.92 L2849.84 1633.92 L2849.84 1629.96 L2866.79 1629.96 L2866.79 1626.00 L2883.62 1626.00 L2883.62 1622.04 L2900.45 1622.04 L2900.45 1618.21 L2917.41 1618.21 L2917.41 1614.25 L2934.24 1614.25 L2934.24 1610.41 L2951.19 1610.41 L2951.19 1606.57 L2968.02 1606.57 L2968.02 1602.74 L2984.97 1602.74 L2984.97 1598.90 L3001.80 1598.90 L3001.80 1595.19 L3018.63 1595.19 L3018.63 1591.35 L3035.59 1591.35 L3035.59 1587.64 L3052.42 1587.64 L3052.42 1583.80 L3069.37 1583.80 L3069.37 1580.09 L3086.20 1580.09 L3086.20 1576.38 L3103.16 1576.38 L3103.16 1572.66 L3119.99 1572.66 L3119.99 1568.95 L3136.82 1568.95 L3136.82 1565.36 L3153.77 1565.36 L3153.77 1561.65 L3170.60 1561.65 L3170.60 1558.06 L3187.55 1558.06 L3187.55 1554.47 L3204.38 1554.47 L3204.38 1550.88 L3221.34 1550.88 L3221.34 1547.29 L3238.17 1547.29 L3238.17 1543.71 L3255.00 1543.71 L3255.00 1540.12 L3271.95 1540.12 L3271.95 1536.65 L3288.78 1536.65 L3288.78 1533.06 L3305.73 1533.06 L3305.73 1529.60 L3322.56 1529.60 L3322.56 1526.13 L3339.52 1526.13 L3339.52 1522.67 L3356.35 1522.67 L3356.35 1519.20 L3373.18 1519.20 L3373.18 1515.74 L3390.13 1515.74 L3390.13 1512.27 L3406.96 1512.27 L3406.96 1508.81 L3423.91 1508.81 L3423.91 1505.47 L3440.74 1505.47 L3440.74 1502.00 L3457.57 1502.00 L3457.57 1498.66 L3474.53 1498.66 L3474.53 1495.32 L3491.36 1495.32 L3491.36 1491.98 L3508.31 1491.98 L3508.31 1488.64 L3525.14 1488.64 L3525.14 1485.29 L3542.10 1485.29 L3542.10 1481.95 L3558.93 1481.95 L3558.93 1478.73 L3575.76 1478.73 L3575.76 1475.39 L3592.71 1475.39 L3592.71 1472.18 L3609.54 1472.18 L3609.54 1468.96 L3626.49 1468.96 L3626.49 1465.62 L3643.32 1465.62 L3643.32 1462.40 L3660.28 1462.40 L3660.28 1459.18 L3677.11 1459.18 L3677.11 1455.96 L3693.94 1455.96 L3693.94 1452.87 L3710.89 1452.87 L3710.89 1449.65 L3727.72 1449.65 L3727.72 1446.44 L3744.68 1446.44 L3744.68 1443.34 L3761.51 1443.34 L3761.51 1440.25 L3778.46 1440.25 L3778.46 1437.03 L3795.29 1437.03 L3795.29 1433.94 L3795.29 1043.62 L3795.29 1049.06 L3778.46 1049.06 L3778.46 1054.51 L3761.51 1054.51 L3761.51 1059.95 L3744.68 1059.95 L3744.68 1065.40 L3727.72 1065.40 L3727.72 1070.97 L3710.89 1070.97 L3710.89 1076.53 L3693.94 1076.53 L3693.94 1081.98 L3677.11 1081.98 L3677.11 1087.55 L3660.28 1087.55 L3660.28 1093.12 L3643.32 1093.12 L3643.32 1098.69 L3626.49 1098.69 L3626.49 1104.26 L3609.54 1104.26 L3609.54 1109.95 L3592.71 1109.95 L3592.71 1115.52 L3575.76 1115.52 L3575.76 1121.21 L3558.93 1121.21 L3558.93 1126.78 L3542.10 1126.78 L3542.10 1132.47 L3525.14 1132.47 L3525.14 1138.16 L3508.31 1138.16 L3508.31 1143.86 L3491.36 1143.86 L3491.36 1149.55 L3474.53 1149.55 L3474.53 1155.24 L3457.57 1155.24 L3457.57 1161.06 L3440.74 1161.06 L3440.74 1166.75 L3423.91 1166.75 L3423.91 1172.57 L3406.96 1172.57 L3406.96 1178.38 L3390.13 1178.38 L3390.13 1184.20 L3373.18 1184.20 L3373.18 1190.02 L3356.35 1190.02 L3356.35 1195.83 L3339.52 1195.83 L3339.52 1201.65 L3322.56 1201.65 L3322.56 1207.47 L3305.73 1207.47 L3305.73 1213.41 L3288.78 1213.41 L3288.78 1219.22 L3271.95 1219.22 L3271.95 1225.16 L3255.00 1225.16 L3255.00 1231.10 L3238.17 1231.10 L3238.17 1237.04 L3221.34 1237.04 L3221.34 1242.98 L3204.38 1242.98 L3204.38 1248.92 L3187.55 1248.92 L3187.55 1254.99 L3170.60 1254.99 L3170.60 1260.93 L3153.77 1260.93 L3153.77 1266.99 L3136.82 1266.99 L3136.82 1273.06 L3119.99 1273.06 L3119.99 1279.12 L3103.16 1279.12 L3103.16 1285.18 L3086.20 1285.18 L3086.20 1291.25 L3069.37 1291.25 L3069.37 1297.44 L3052.42 1297.44 L3052.42 1303.50 L3035.59 1303.50 L3035.59 1309.69 L3018.63 1309.69 L3018.63 1315.87 L3001.80 1315.87 L3001.80 1322.06 L2984.97 1322.06 L2984.97 1328.25 L2968.02 1328.25 L2968.02 1334.44 L2951.19 1334.44 L2951.19 1340.63 L2934.24 1340.63 L2934.24 1346.94 L2917.41 1346.94 L2917.41 1353.25 L2900.45 1353.25 L2900.45 1359.44 L2883.62 1359.44 L2883.62 1365.75 L2866.79 1365.75 L2866.79 1372.06 L2849.84 1372.06 L2849.84 1378.49 L2833.01 1378.49 L2833.01 1384.81 L2816.05 1384.81 L2816.05 1391.24 L2799.22 1391.24 L2799.22 1397.55 L2782.27 1397.55 L2782.27 1403.99 L2765.44 1403.99 L2765.44 1410.42 L2748.61 1410.42 L2748.61 1416.98 L2731.66 1416.98 L2731.66 1423.42 L2714.83 1423.42 L2714.83 1429.85 L2697.87 1429.85 L2697.87 1436.41 L2681.04 1436.41 L2681.04 1442.97 L2664.21 1442.97 L2664.21 1449.53 L2647.26 1449.53 L2647.26 1456.09 L2630.43 1456.09 L2630.43 1462.65 L2613.48 1462.65 L2613.48 1469.33 L2596.65 1469.33 L2596.65 1476.01 L2579.69 1476.01 L2579.69 1482.57 L2562.86 1482.57 L2562.86 1489.25 L2546.03 1489.25 L2546.03 1496.06 L2529.08 1496.06 L2529.08 1502.74 L2512.25 1502.74 L2512.25 1509.43 L2495.30 1509.43 L2495.30 1516.23 L2478.47 1516.23 L2478.47 1523.04 L2461.51 1523.04 L2461.51 1529.85 L2444.68 1529.85 L2444.68 1536.65 L2427.85 1536.65 L2427.85 1543.46 L2410.90 1543.46 L2410.90 1550.39 L2394.07 1550.39 L2394.07 1557.19 L2377.11 1557.19 L2377.11 1564.13 L2360.28 1564.13 L2360.28 1571.06 L2343.33 1571.06 L2343.33 1577.99 L2326.50 1577.99 L2326.50 1585.04 L2309.67 1585.04 L2309.67 1592.09 L2292.72 1592.09 L2292.72 1599.02 L2275.89 1599.02 L2275.89 1606.20 L2258.93 1606.20 L2258.93 1613.26 L2242.10 1613.26 L2242.10 1620.31 L2225.15 1620.31 L2225.15 1627.49 L2208.32 1627.49 L2208.32 1634.66 L2191.49 1634.66 L2191.49 1641.84 L2174.53 1641.84 L2174.53 1649.02 L2157.70 1649.02 L2157.70 1656.20 L2140.75 1656.20 L2140.75 1663.50 L2123.92 1663.50 L2123.92 1670.80 L2106.97 1670.80 L2106.97 1678.10 L2090.14 1678.10 L2090.14 1685.40 L2073.31 1685.40 L2073.31 1692.83 L2056.35 1692.83 L2056.35 1700.13 L2039.52 1700.13 L2039.52 1707.56 L2022.57 1707.56 L2022.57 1714.98 L2005.74 1714.98 L2005.74 1722.53 L1988.91 1722.53 L1988.91 1729.96 L1971.96 1729.96 L1971.96 1737.50 L1955.13 1737.50 L1955.13 1745.05 L1938.17 1745.05 L1938.17 1752.60 L1921.34 1752.60 L1921.34 1760.28 L1904.39 1760.28 L1904.39 1767.82 L1887.56 1767.82 L1887.56 1775.50 L1870.73 1775.50 L1870.73 1783.17 L1853.78 1783.17 L1853.78 1790.97 L1836.94 1790.97 L1836.94 1798.64 L1819.99 1798.64 L1819.99 1806.44 L1803.16 1806.44 L1803.16 1814.36 L1786.21 1814.36 L1786.21 1822.15 L1769.38 1822.15 L1769.38 1830.07 L1752.55 1830.07 L1752.55 1837.87 L1735.59 1837.87 L1735.59 1845.91 L1718.76 1845.91 L1718.76 1853.83 L1701.81 1853.83 L1701.81 1861.88 L1684.98 1861.88 L1684.98 1869.80 L1668.03 1869.80 L1668.03 1877.96 L1651.20 1877.96 L1651.20 1886.01 L1634.37 1886.01 L1634.37 1894.18 L1617.41 1894.18 L1617.41 1902.22 L1600.58 1902.22 L1600.58 1910.51 L1583.63 1910.51 L1583.63 1918.68 L1566.80 1918.68 L1566.80 1926.97 L1549.85 1926.97 L1549.85 1935.26 L1533.02 1935.26 L1533.02 1943.55 L1516.18 1943.55 L1516.18 1951.85 L1499.23 1951.85 L1499.23 1960.26 L1482.40 1960.26 L1482.40 1968.68 L1465.45 1968.68 L1465.45 1977.22 L1448.62 1977.22 L1448.62 1985.63 L1431.66 1985.63 L1431.66 1994.17 L1414.83 1994.17 L1414.83 2002.71 L1398.00 2002.71 L1398.00 2011.37 L1381.05 2011.37 L1381.05 2020.03 L1364.22 2020.03 L1364.22 2028.70 L1347.27 2028.70 L1347.27 2037.48 L1330.44 2037.48 L1330.44 2046.15 L1313.61 2046.15 L1313.61 2055.06 L1296.65 2055.06 L1296.65 2063.84 L1279.82 2063.84 L1279.82 2072.75 L1262.87 2072.75 L1262.87 2081.66 L1246.04 2081.66 L1246.04 2090.70 L1229.09 2090.70 L1229.09 2099.61 L1212.26 2099.61 L1212.26 2108.77 L1195.42 2108.77 L1195.42 2117.80 L1178.47 2117.80 L1178.47 2126.96 L1161.64 2126.96 L1161.64 2136.12 L1144.69 2136.12 L1144.69 2145.40 L1127.86 2145.40 L1127.86 2154.68 L1110.90 2154.68 L1110.90 2163.96 L1094.07 2163.96 L1094.07 2173.24 L1077.24 2173.24 L1077.24 2182.65 L1060.29 2182.65 L1060.29 2192.18 L1043.46 2192.18 L1043.46 2201.71 L1026.51 2201.71 L1026.51 2211.23 L1009.68 2211.23 L1009.68 2220.76 L992.72 2220.76 L992.72 2230.42 L975.89 2230.42 L975.89 2240.19 L959.06 2240.19 L959.06 2249.85 L942.11 2249.85 L942.11 2259.62 L925.28 2259.62 L925.28 2269.52 L908.33 2269.52 L908.33 2279.42 L891.50 2279.42 L891.50 2289.32 L874.54 2289.32 L874.54 2299.22 L857.71 2299.22 L857.71 2309.25 L840.88 2309.25 L840.88 2319.27 L823.93 2319.27 L823.93 2329.42 L807.10 2329.42 L807.10 2339.57 L790.14 2339.57 L790.14 2349.71 L773.31 2349.71 L773.31 2353.43 Z" stroke-linejoin="round"/>
	</defs>
	<defs>
		<clipPath id="clipPath_UDjVxTPP">
			<use xlink:href="#path_oKzdCBPm"/>
		</clipPath>
	</defs>
	<use xlink:href="#path_oKzdCBPm" style="stroke:none;fill:#999999;fill-opacity:0.35"/>
	<use xlink:href="#path_oKzdCBPm" style="fill:none;stroke:#808080;stroke-opacity:0.35;stroke-width:17.28" clip-path="url(#clipPath_UDjVxTPP)"/>
	<defs>
		<path id="path_FjaETZmT" d="M773.31 2353.43 L773.31 2353.43 L790.14 2353.43 L790.14 2344.15 L807.10 2344.15 L807.10 2334.86 L823.93 2334.86 L823.93 2325.71 L840.88 2325.71 L840.88 2316.67 L857.71 2316.67 L857.71 2307.76 L874.54 2307.76 L874.54 2298.98 L891.50 2298.98 L891.50 2290.19 L908.33 2290.19 L908.33 2281.53 L925.28 2281.53 L925.28 2272.99 L942.11 2272.99 L942.11 2264.57 L959.06 2264.57 L959.06 2256.16 L975.89 2256.16 L975.89 2247.87 L992.72 2247.87 L992.72 2239.70 L1009.68 2239.70 L1009.68 2231.65 L1026.51 2231.65 L1026.51 2223.61 L1043.46 2223.61 L1043.46 2215.69 L1060.29 2215.69 L1060.29 2207.77 L1077.24 2207.77 L1077.24 2199.97 L1094.07 2199.97 L1094.07 2192.30 L1110.90 2192.30 L1110.90 2184.63 L1127.86 2184.63 L1127.86 2177.08 L1144.69 2177.08 L1144.69 2169.53 L1161.64 2169.53 L1161.64 2162.10 L1178.47 2162.10 L1178.47 2154.80 L1195.42 2154.80 L1195.42 2147.50 L1212.26 2147.50 L1212.26 2140.32 L1229.09 2140.32 L1229.09 2133.15 L1246.04 2133.15 L1246.04 2125.97 L1262.87 2125.97 L1262.87 2118.91 L1279.82 2118.91 L1279.82 2111.98 L1296.65 2111.98 L1296.65 2105.05 L1313.61 2105.05 L1313.61 2098.12 L1330.44 2098.12 L1330.44 2091.32 L1347.27 2091.32 L1347.27 2084.63 L1364.22 2084.63 L1364.22 2077.95 L1381.05 2077.95 L1381.05 2071.27 L1398.00 2071.27 L1398.00 2064.71 L1414.83 2064.71 L1414.83 2058.15 L1431.66 2058.15 L1431.66 2051.72 L1448.62 2051.72 L1448.62 2045.16 L1465.45 2045.16 L1465.45 2038.84 L1482.40 2038.84 L1482.40 2032.53 L1499.23 2032.53 L1499.23 2026.22 L1516.18 2026.22 L1516.18 2019.91 L1533.02 2019.91 L1533.02 2013.72 L1549.85 2013.72 L1549.85 2007.54 L1566.80 2007.54 L1566.80 2001.47 L1583.63 2001.47 L1583.63 1995.41 L1600.58 1995.41 L1600.58 1989.34 L1617.41 1989.34 L1617.41 1983.28 L1634.37 1983.28 L1634.37 1977.34 L1651.20 1977.34 L1651.20 1971.52 L1668.03 1971.52 L1668.03 1965.58 L1684.98 1965.58 L1684.98 1959.77 L1701.81 1959.77 L1701.81 1953.95 L1718.76 1953.95 L1718.76 1948.26 L1735.59 1948.26 L1735.59 1942.56 L1752.55 1942.56 L1752.55 1936.87 L1769.38 1936.87 L1769.38 1931.18 L1786.21 1931.18 L1786.21 1925.61 L1803.16 1925.61 L1803.16 1920.04 L1819.99 1920.04 L1819.99 1914.47 L1836.94 1914.47 L1836.94 1909.03 L1853.78 1909.03 L1853.78 1903.58 L1870.73 1903.58 L1870.73 1898.14 L1887.56 1898.14 L1887.56 1892.82 L1904.39 1892.82 L1904.39 1887.37 L1921.34 1887.37 L1921.34 1882.05 L1938.17 1882.05 L1938.17 1876.85 L1955.13 1876.85 L1955.13 1871.53 L1971.96 1871.53 L1971.96 1866.33 L1988.91 1866.33 L1988.91 1861.13 L2005.74 1861.13 L2005.74 1855.94 L2022.57 1855.94 L2022.57 1850.86 L2039.52 1850.86 L2039.52 1845.79 L2056.35 1845.79 L2056.35 1840.72 L2073.31 1840.72 L2073.31 1835.64 L2090.14 1835.64 L2090.14 1830.69 L2106.97 1830.69 L2106.97 1825.74 L2123.92 1825.74 L2123.92 1820.79 L2140.75 1820.79 L2140.75 1815.84 L2157.70 1815.84 L2157.70 1810.89 L2174.53 1810.89 L2174.53 1806.06 L2191.49 1806.06 L2191.49 1801.24 L2208.32 1801.24 L2208.32 1796.41 L2225.15 1796.41 L2225.15 1791.58 L2242.10 1791.58 L2242.10 1786.88 L2258.93 1786.88 L2258.93 1782.18 L2275.89 1782.18 L2275.89 1777.48 L2292.72 1777.48 L2292.72 1772.77 L2309.67 1772.77 L2309.67 1768.20 L2326.50 1768.20 L2326.50 1763.49 L2343.33 1763.49 L2343.33 1758.91 L2360.28 1758.91 L2360.28 1754.33 L2377.11 1754.33 L2377.11 1749.88 L2394.07 1749.88 L2394.07 1745.30 L2410.90 1745.30 L2410.90 1740.85 L2427.85 1740.85 L2427.85 1736.27 L2444.68 1736.27 L2444.68 1731.81 L2461.51 1731.81 L2461.51 1727.48 L2478.47 1727.48 L2478.47 1723.03 L2495.30 1723.03 L2495.30 1718.69 L2512.25 1718.69 L2512.25 1714.24 L2529.08 1714.24 L2529.08 1709.91 L2546.03 1709.91 L2546.03 1705.58 L2562.86 1705.58 L2562.86 1701.24 L2579.69 1701.24 L2579.69 1697.04 L2596.65 1697.04 L2596.65 1692.71 L2613.48 1692.71 L2613.48 1688.50 L2630.43 1688.50 L2630.43 1684.29 L2647.26 1684.29 L2647.26 1680.08 L2664.21 1680.08 L2664.21 1675.87 L2681.04 1675.87 L2681.04 1671.79 L2697.87 1671.79 L2697.87 1667.71 L2714.83 1667.71 L2714.83 1663.50 L2731.66 1663.50 L2731.66 1659.42 L2748.61 1659.42 L2748.61 1655.33 L2765.44 1655.33 L2765.44 1651.37 L2782.27 1651.37 L2782.27 1647.29 L2799.22 1647.29 L2799.22 1643.33 L2816.05 1643.33 L2816.05 1639.24 L2833.01 1639.24 L2833.01 1635.28 L2849.84 1635.28 L2849.84 1631.32 L2866.79 1631.32 L2866.79 1627.36 L2883.62 1627.36 L2883.62 1623.53 L2900.45 1623.53 L2900.45 1619.57 L2917.41 1619.57 L2917.41 1615.73 L2934.24 1615.73 L2934.24 1611.77 L2951.19 1611.77 L2951.19 1607.93 L2968.02 1607.93 L2968.02 1604.10 L2984.97 1604.10 L2984.97 1600.26 L3001.80 1600.26 L3001.80 1596.55 L3018.63 1596.55 L3018.63 1592.71 L3035.59 1592.71 L3035.59 1589.00 L3052.42 1589.00 L3052.42 1585.29 L3069.37 1585.29 L3069.37 1581.45 L3086.20 1581.45 L3086.20 1577.86 L3103.16 1577.86 L3103.16 1574.15 L3119.99 1574.15 L3119.99 1570.44 L3136.82 1570.44 L3136.82 1566.72 L3153.77 1566.72 L3153.77 1563.14 L3170.60 1563.14 L3170.60 1559.55 L3187.55 1559.55 L3187.55 1555.83 L3204.38 1555.83 L3204.38 1552.24 L3221.34 1552.24 L3221.34 1548.66 L3238.17 1548.66 L3238.17 1545.19 L3255.00 1545.19 L3255.00 1541.60 L3271.95 1541.60 L3271.95 1538.01 L3288.78 1538.01 L3288.78 1534.55 L3305.73 1534.55 L3305.73 1530.96 L3322.56 1530.96 L3322.56 1527.49 L3339.52 1527.49 L3339.52 1524.03 L3356.35 1524.03 L3356.35 1520.56 L3373.18 1520.56 L3373.18 1517.10 L3390.13 1517.10 L3390.13 1513.63 L3406.96 1513.63 L3406.96 1510.29 L3423.91 1510.29 L3423.91 1506.83 L3440.74 1506.83 L3440.74 1503.49 L3457.57 1503.49 L3457.57 1500.14 L3474.53 1500.14 L3474.53 1496.68 L3491.36 1496.68 L3491.36 1493.34 L3508.31 1493.34 L3508.31 1490.00 L3525.14 1490.00 L3525.14 1486.78 L3542.10 1486.78 L3542.10 1483.44 L3558.93 1483.44 L3558.93 1480.10 L3575.76 1480.10 L3575.76 1476.88 L3592.71 1476.88 L3592.71 1473.54 L3609.54 1473.54 L3609.54 1470.32 L3626.49 1470.32 L3626.49 1467.10 L3643.32 1467.10 L3643.32 1463.88 L3660.28 1463.88 L3660.28 1460.67 L3677.11 1460.67 L3677.11 1457.45 L3693.94 1457.45 L3693.94 1454.23 L3710.89 1454.23 L3710.89 1451.01 L3727.72 1451.01 L3727.72 1447.92 L3744.68 1447.92 L3744.68 1444.70 L3761.51 1444.70 L3761.51 1441.61 L3778.46 1441.61 L3778.46 1438.51 L3795.29 1438.51 L3795.29 1435.42 L3795.29 1086.31 L3795.29 1091.39 L3778.46 1091.39 L3778.46 1096.58 L3761.51 1096.58 L3761.51 1101.78 L3744.68 1101.78 L3744.68 1106.98 L3727.72 1106.98 L3727.72 1112.18 L3710.89 1112.18 L3710.89 1117.50 L3693.94 1117.50 L3693.94 1122.70 L3677.11 1122.70 L3677.11 1128.02 L3660.28 1128.02 L3660.28 1133.21 L3643.32 1133.21 L3643.32 1138.54 L3626.49 1138.54 L3626.49 1143.86 L3609.54 1143.86 L3609.54 1149.18 L3592.71 1149.18 L3592.71 1154.50 L3575.76 1154.50 L3575.76 1159.82 L3558.93 1159.82 L3558.93 1165.27 L3542.10 1165.27 L3542.10 1170.59 L3525.14 1170.59 L3525.14 1176.03 L3508.31 1176.03 L3508.31 1181.35 L3491.36 1181.35 L3491.36 1186.80 L3474.53 1186.80 L3474.53 1192.24 L3457.57 1192.24 L3457.57 1197.69 L3440.74 1197.69 L3440.74 1203.14 L3423.91 1203.14 L3423.91 1208.70 L3406.96 1208.70 L3406.96 1214.15 L3390.13 1214.15 L3390.13 1219.72 L3373.18 1219.72 L3373.18 1225.29 L3356.35 1225.29 L3356.35 1230.73 L3339.52 1230.73 L3339.52 1236.30 L3322.56 1236.30 L3322.56 1241.99 L3305.73 1241.99 L3305.73 1247.56 L3288.78 1247.56 L3288.78 1253.13 L3271.95 1253.13 L3271.95 1258.82 L3255.00 1258.82 L3255.00 1264.39 L3238.17 1264.39 L3238.17 1270.09 L3221.34 1270.09 L3221.34 1275.78 L3204.38 1275.78 L3204.38 1281.47 L3187.55 1281.47 L3187.55 1287.16 L3170.60 1287.16 L3170.60 1292.86 L3153.77 1292.86 L3153.77 1298.67 L3136.82 1298.67 L3136.82 1304.37 L3119.99 1304.37 L3119.99 1310.18 L3103.16 1310.18 L3103.16 1316.00 L3086.20 1316.00 L3086.20 1321.82 L3069.37 1321.82 L3069.37 1327.63 L3052.42 1327.63 L3052.42 1333.45 L3035.59 1333.45 L3035.59 1339.26 L3018.63 1339.26 L3018.63 1345.20 L3001.80 1345.20 L3001.80 1351.14 L2984.97 1351.14 L2984.97 1357.08 L2968.02 1357.08 L2968.02 1363.03 L2951.19 1363.03 L2951.19 1368.97 L2934.24 1368.97 L2934.24 1374.91 L2917.41 1374.91 L2917.41 1380.97 L2900.45 1380.97 L2900.45 1386.91 L2883.62 1386.91 L2883.62 1392.97 L2866.79 1392.97 L2866.79 1399.04 L2849.84 1399.04 L2849.84 1405.10 L2833.01 1405.10 L2833.01 1411.17 L2816.05 1411.17 L2816.05 1417.23 L2799.22 1417.23 L2799.22 1423.42 L2782.27 1423.42 L2782.27 1429.48 L2765.44 1429.48 L2765.44 1435.67 L2748.61 1435.67 L2748.61 1441.86 L2731.66 1441.86 L2731.66 1448.04 L2714.83 1448.04 L2714.83 1454.36 L2697.87 1454.36 L2697.87 1460.54 L2681.04 1460.54 L2681.04 1466.85 L2664.21 1466.85 L2664.21 1473.04 L2647.26 1473.04 L2647.26 1479.35 L2630.43 1479.35 L2630.43 1485.67 L2613.48 1485.67 L2613.48 1492.10 L2596.65 1492.10 L2596.65 1498.41 L2579.69 1498.41 L2579.69 1504.85 L2562.86 1504.85 L2562.86 1511.28 L2546.03 1511.28 L2546.03 1517.72 L2529.08 1517.72 L2529.08 1524.15 L2512.25 1524.15 L2512.25 1530.59 L2495.30 1530.59 L2495.30 1537.15 L2478.47 1537.15 L2478.47 1543.58 L2461.51 1543.58 L2461.51 1550.14 L2444.68 1550.14 L2444.68 1556.70 L2427.85 1556.70 L2427.85 1563.26 L2410.90 1563.26 L2410.90 1569.94 L2394.07 1569.94 L2394.07 1576.50 L2377.11 1576.50 L2377.11 1583.18 L2360.28 1583.18 L2360.28 1589.87 L2343.33 1589.87 L2343.33 1596.55 L2326.50 1596.55 L2326.50 1603.23 L2309.67 1603.23 L2309.67 1610.04 L2292.72 1610.04 L2292.72 1616.72 L2275.89 1616.72 L2275.89 1623.53 L2258.93 1623.53 L2258.93 1630.33 L2242.10 1630.33 L2242.10 1637.26 L2225.15 1637.26 L2225.15 1644.07 L2208.32 1644.07 L2208.32 1651.00 L2191.49 1651.00 L2191.49 1657.93 L2174.53 1657.93 L2174.53 1664.86 L2157.70 1664.86 L2157.70 1671.79 L2140.75 1671.79 L2140.75 1678.84 L2123.92 1678.84 L2123.92 1685.90 L2106.97 1685.90 L2106.97 1692.95 L2090.14 1692.95 L2090.14 1700.01 L2073.31 1700.01 L2073.31 1707.06 L2056.35 1707.06 L2056.35 1714.24 L2039.52 1714.24 L2039.52 1721.42 L2022.57 1721.42 L2022.57 1728.59 L2005.74 1728.59 L2005.74 1735.77 L1988.91 1735.77 L1988.91 1743.07 L1971.96 1743.07 L1971.96 1750.25 L1955.13 1750.25 L1955.13 1757.55 L1938.17 1757.55 L1938.17 1764.98 L1921.34 1764.98 L1921.34 1772.28 L1904.39 1772.28 L1904.39 1779.70 L1887.56 1779.70 L1887.56 1787.13 L1870.73 1787.13 L1870.73 1794.55 L1853.78 1794.55 L1853.78 1801.98 L1836.94 1801.98 L1836.94 1809.53 L1819.99 1809.53 L1819.99 1817.08 L1803.16 1817.08 L1803.16 1824.63 L1786.21 1824.63 L1786.21 1832.30 L1769.38 1832.30 L1769.38 1839.85 L1752.55 1839.85 L1752.55 1847.52 L1735.59 1847.52 L1735.59 1855.32 L1718.76 1855.32 L1718.76 1862.99 L1701.81 1862.99 L1701.81 1870.79 L1684.98 1870.79 L1684.98 1878.58 L1668.03 1878.58 L1668.03 1886.38 L1651.20 1886.38 L1651.20 1894.30 L1634.37 1894.30 L1634.37 1902.22 L1617.41 1902.22 L1617.41 1910.14 L1600.58 1910.14 L1600.58 1918.06 L1583.63 1918.06 L1583.63 1926.11 L1566.80 1926.11 L1566.80 1934.15 L1549.85 1934.15 L1549.85 1942.19 L1533.02 1942.19 L1533.02 1950.36 L1516.18 1950.36 L1516.18 1958.40 L1499.23 1958.40 L1499.23 1966.70 L1482.40 1966.70 L1482.40 1974.86 L1465.45 1974.86 L1465.45 1983.16 L1448.62 1983.16 L1448.62 1991.45 L1431.66 1991.45 L1431.66 1999.74 L1414.83 1999.74 L1414.83 2008.15 L1398.00 2008.15 L1398.00 2016.45 L1381.05 2016.45 L1381.05 2024.98 L1364.22 2024.98 L1364.22 2033.40 L1347.27 2033.40 L1347.27 2041.94 L1330.44 2041.94 L1330.44 2050.60 L1313.61 2050.60 L1313.61 2059.14 L1296.65 2059.14 L1296.65 2067.80 L1279.82 2067.80 L1279.82 2076.59 L1262.87 2076.59 L1262.87 2085.25 L1246.04 2085.25 L1246.04 2094.04 L1229.09 2094.04 L1229.09 2102.95 L1212.26 2102.95 L1212.26 2111.86 L1195.42 2111.86 L1195.42 2120.77 L1178.47 2120.77 L1178.47 2129.68 L1161.64 2129.68 L1161.64 2138.71 L1144.69 2138.71 L1144.69 2147.87 L1127.86 2147.87 L1127.86 2156.91 L1110.90 2156.91 L1110.90 2166.06 L1094.07 2166.06 L1094.07 2175.35 L1077.24 2175.35 L1077.24 2184.63 L1060.29 2184.63 L1060.29 2193.91 L1043.46 2193.91 L1043.46 2203.31 L1026.51 2203.31 L1026.51 2212.72 L1009.68 2212.72 L1009.68 2222.12 L992.72 2222.12 L992.72 2231.65 L975.89 2231.65 L975.89 2241.31 L959.06 2241.31 L959.06 2250.84 L942.11 2250.84 L942.11 2260.61 L925.28 2260.61 L925.28 2270.26 L908.33 2270.26 L908.33 2280.04 L891.50 2280.04 L891.50 2289.94 L874.54 2289.94 L874.54 2299.84 L857.71 2299.84 L857.71 2309.74 L840.88 2309.74 L840.88 2319.77 L823.93 2319.77 L823.93 2329.79 L807.10 2329.79 L807.10 2339.81 L790.14 2339.81 L790.14 2349.96 L773.31 2349.96 L773.31 2353.43 Z" stroke-linejoin="round"/>
	</defs>
	<defs>
		<clipPath id="clipPath_UyPxRUxY">
			<use xlink:href="#path_FjaETZmT"/>
		</clipPath>
	</defs>
	<use xlink:href="#path_FjaETZmT" style="stroke:none;fill:#333333;fill-opacity:0.35"/>
	<use xlink:href="#path_FjaETZmT" style="fill:none;stroke:#000000;stroke-opacity:0.35;stroke-width:17.28" clip-path="url(#clipPath_UyPxRUxY)"/>
	<line x1="773.19" y1="2351.69" x2="790.14" y2="2351.69" style="stroke:#808080;stroke-width:8.64"/>
	<line x1="790.14" y1="2351.69" x2="790.14" y2="2341.92" style="stroke:#808080;stroke-width:8.64"/>
	<line x1="790.14" y1="2341.92" x2="803.76" y2="2341.92" style="stroke:#808080;stroke-width:8.64"/>
	<line x1="811.18" y1="2332.14" x2="823.93" y2="2332.14" style="stroke:#808080;stroke-width:8.64"/>
	<line x1="823.93" y1="2332.14" x2="823.93" y2="2322.61" style="stroke:#808080;stroke-width:8.64"/>
	<line x1="823.93" y1="2322.61" x2="840.76" y2="2322.61" style="stroke:#808080;stroke-width:8.64"/>
	<line x1="840.76" y1="2322.61" x2="840.76" y2="2321.38" style="stroke:#808080;stroke-width:8.64"/>
	<line x1="849.54" y1="2312.96" x2="857.71" y2="2312.96" style="stroke:#808080;stroke-width:8.64"/>
	<line x1="857.71" y1="2312.96" x2="857.71" y2="2303.55" style="stroke:#808080;stroke-width:8.64"/>
	<line x1="857.71" y1="2303.55" x2="874.54" y2="2303.55" style="stroke:#808080;stroke-width:8.64"/>
	<line x1="874.54" y1="2303.55" x2="874.54" y2="2297.61" style="stroke:#808080;stroke-width:8.64"/>
	<line x1="888.28" y1="2294.15" x2="891.37" y2="2294.15" style="stroke:#808080;stroke-width:8.64"/>
	<line x1="891.37" y1="2294.15" x2="891.37" y2="2284.74" style="stroke:#808080;stroke-width:8.64"/>
	<line x1="891.37" y1="2284.74" x2="908.33" y2="2284.74" style="stroke:#808080;stroke-width:8.64"/>
	<line x1="908.33" y1="2284.74" x2="908.33" y2="2275.59" style="stroke:#808080;stroke-width:8.64"/>
	<line x1="908.33" y1="2275.59" x2="910.06" y2="2275.59" style="stroke:#808080;stroke-width:8.64"/>
	<line x1="925.15" y1="2273.48" x2="925.15" y2="2266.43" style="stroke:#808080;stroke-width:8.64"/>
	<line x1="925.15" y1="2266.43" x2="942.11" y2="2266.43" style="stroke:#808080;stroke-width:8.64"/>
	<line x1="942.11" y1="2266.43" x2="942.11" y2="2257.27" style="stroke:#808080;stroke-width:8.64"/>
	<line x1="942.11" y1="2257.27" x2="949.41" y2="2257.27" style="stroke:#808080;stroke-width:8.64"/>
	<line x1="958.94" y1="2249.60" x2="958.94" y2="2248.24" style="stroke:#808080;stroke-width:8.64"/>
	<line x1="958.94" y1="2248.24" x2="975.89" y2="2248.24" style="stroke:#808080;stroke-width:8.64"/>
	<line x1="975.89" y1="2248.24" x2="975.89" y2="2239.20" style="stroke:#808080;stroke-width:8.64"/>
	<line x1="975.89" y1="2239.20" x2="988.89" y2="2239.20" style="stroke:#808080;stroke-width:8.64"/>
	<line x1="997.18" y1="2230.29" x2="1009.55" y2="2230.29" style="stroke:#808080;stroke-width:8.64"/>
	<line x1="1009.55" y1="2230.29" x2="1009.55" y2="2221.51" style="stroke:#808080;stroke-width:8.64"/>
	<line x1="1009.55" y1="2221.51" x2="1026.51" y2="2221.51" style="stroke:#808080;stroke-width:8.64"/>
	<line x1="1026.51" y1="2221.51" x2="1026.51" y2="2219.28" style="stroke:#808080;stroke-width:8.64"/>
	<line x1="1037.15" y1="2212.72" x2="1043.34" y2="2212.72" style="stroke:#808080;stroke-width:8.64"/>
	<line x1="1043.34" y1="2212.72" x2="1043.34" y2="2204.06" style="stroke:#808080;stroke-width:8.64"/>
	<line x1="1043.34" y1="2204.06" x2="1060.29" y2="2204.06" style="stroke:#808080;stroke-width:8.64"/>
	<line x1="1060.29" y1="2204.06" x2="1060.29" y2="2195.52" style="stroke:#808080;stroke-width:8.64"/>
	<line x1="1077.12" y1="2195.02" x2="1077.12" y2="2186.73" style="stroke:#808080;stroke-width:8.64"/>
	<line x1="1077.12" y1="2186.73" x2="1093.95" y2="2186.73" style="stroke:#808080;stroke-width:8.64"/>
	<line x1="1093.95" y1="2186.73" x2="1093.95" y2="2178.32" style="stroke:#808080;stroke-width:8.64"/>
	<line x1="1093.95" y1="2178.32" x2="1100.76" y2="2178.32" style="stroke:#808080;stroke-width:8.64"/>
	<line x1="1110.90" y1="2171.26" x2="1110.90" y2="2169.78" style="stroke:#808080;stroke-width:8.64"/>
	<line x1="1110.90" y1="2169.78" x2="1127.73" y2="2169.78" style="stroke:#808080;stroke-width:8.64"/>
	<line x1="1127.73" y1="2169.78" x2="1127.73" y2="2161.36" style="stroke:#808080;stroke-width:8.64"/>
	<line x1="1127.73" y1="2161.36" x2="1141.35" y2="2161.36" style="stroke:#808080;stroke-width:8.64"/>
	<line x1="1150.26" y1="2153.07" x2="1161.52" y2="2153.07" style="stroke:#808080;stroke-width:8.64"/>
	<line x1="1161.52" y1="2153.07" x2="1161.52" y2="2144.78" style="stroke:#808080;stroke-width:8.64"/>
	<line x1="1161.52" y1="2144.78" x2="1178.47" y2="2144.78" style="stroke:#808080;stroke-width:8.64"/>
	<line x1="1178.47" y1="2144.78" x2="1178.47" y2="2140.94" style="stroke:#808080;stroke-width:8.64"/>
	<line x1="1191.34" y1="2136.61" x2="1195.30" y2="2136.61" style="stroke:#808080;stroke-width:8.64"/>
	<line x1="1195.30" y1="2136.61" x2="1195.30" y2="2128.44" style="stroke:#808080;stroke-width:8.64"/>
	<line x1="1195.30" y1="2128.44" x2="1212.13" y2="2128.44" style="stroke:#808080;stroke-width:8.64"/>
	<line x1="1212.13" y1="2128.44" x2="1212.13" y2="2120.28" style="stroke:#808080;stroke-width:8.64"/>
	<line x1="1212.13" y1="2120.28" x2="1215.35" y2="2120.28" style="stroke:#808080;stroke-width:8.64"/>
	<line x1="1229.09" y1="2116.69" x2="1229.09" y2="2112.23" style="stroke:#808080;stroke-width:8.64"/>
	<line x1="1229.09" y1="2112.23" x2="1245.91" y2="2112.23" style="stroke:#808080;stroke-width:8.64"/>
	<line x1="1245.91" y1="2112.23" x2="1245.91" y2="2104.31" style="stroke:#808080;stroke-width:8.64"/>
	<line x1="1245.91" y1="2104.31" x2="1256.93" y2="2104.31" style="stroke:#808080;stroke-width:8.64"/>
	<line x1="1266.21" y1="2096.27" x2="1279.70" y2="2096.27" style="stroke:#808080;stroke-width:8.64"/>
	<line x1="1279.70" y1="2096.27" x2="1279.70" y2="2088.35" style="stroke:#808080;stroke-width:8.64"/>
	<line x1="1279.70" y1="2088.35" x2="1296.65" y2="2088.35" style="stroke:#808080;stroke-width:8.64"/>
	<line x1="1296.65" y1="2088.35" x2="1296.65" y2="2086.37" style="stroke:#808080;stroke-width:8.64"/>
	<line x1="1308.04" y1="2080.55" x2="1313.48" y2="2080.55" style="stroke:#808080;stroke-width:8.64"/>
	<line x1="1313.48" y1="2080.55" x2="1313.48" y2="2072.75" style="stroke:#808080;stroke-width:8.64"/>
	<line x1="1313.48" y1="2072.75" x2="1330.31" y2="2072.75" style="stroke:#808080;stroke-width:8.64"/>
	<line x1="1330.31" y1="2072.75" x2="1330.31" y2="2064.96" style="stroke:#808080;stroke-width:8.64"/>
	<line x1="1330.31" y1="2064.96" x2="1332.79" y2="2064.96" style="stroke:#808080;stroke-width:8.64"/>
	<line x1="1347.27" y1="2062.23" x2="1347.27" y2="2057.28" style="stroke:#808080;stroke-width:8.64"/>
	<line x1="1347.27" y1="2057.28" x2="1364.10" y2="2057.28" style="stroke:#808080;stroke-width:8.64"/>
	<line x1="1364.10" y1="2057.28" x2="1364.10" y2="2049.61" style="stroke:#808080;stroke-width:8.64"/>
	<line x1="1364.10" y1="2049.61" x2="1374.99" y2="2049.61" style="stroke:#808080;stroke-width:8.64"/>
	<line x1="1384.64" y1="2042.06" x2="1397.88" y2="2042.06" style="stroke:#808080;stroke-width:8.64"/>
	<line x1="1397.88" y1="2042.06" x2="1397.88" y2="2034.51" style="stroke:#808080;stroke-width:8.64"/>
	<line x1="1397.88" y1="2034.51" x2="1414.83" y2="2034.51" style="stroke:#808080;stroke-width:8.64"/>
	<line x1="1414.83" y1="2034.51" x2="1414.83" y2="2031.91" style="stroke:#808080;stroke-width:8.64"/>
	<line x1="1427.21" y1="2026.96" x2="1431.66" y2="2026.96" style="stroke:#808080;stroke-width:8.64"/>
	<line x1="1431.66" y1="2026.96" x2="1431.66" y2="2019.54" style="stroke:#808080;stroke-width:8.64"/>
	<line x1="1431.66" y1="2019.54" x2="1448.49" y2="2019.54" style="stroke:#808080;stroke-width:8.64"/>
	<line x1="1448.49" y1="2019.54" x2="1448.49" y2="2012.11" style="stroke:#808080;stroke-width:8.64"/>
	<line x1="1448.49" y1="2012.11" x2="1452.70" y2="2012.11" style="stroke:#808080;stroke-width:8.64"/>
	<line x1="1465.45" y1="2007.66" x2="1465.45" y2="2004.69" style="stroke:#808080;stroke-width:8.64"/>
	<line x1="1465.45" y1="2004.69" x2="1482.28" y2="2004.69" style="stroke:#808080;stroke-width:8.64"/>
	<line x1="1482.28" y1="2004.69" x2="1482.28" y2="1997.39" style="stroke:#808080;stroke-width:8.64"/>
	<line x1="1482.28" y1="1997.39" x2="1495.52" y2="1997.39" style="stroke:#808080;stroke-width:8.64"/>
	<line x1="1505.42" y1="1990.09" x2="1516.06" y2="1990.09" style="stroke:#808080;stroke-width:8.64"/>
	<line x1="1516.06" y1="1990.09" x2="1516.06" y2="1982.91" style="stroke:#808080;stroke-width:8.64"/>
	<line x1="1516.06" y1="1982.91" x2="1533.02" y2="1982.91" style="stroke:#808080;stroke-width:8.64"/>
	<line x1="1533.02" y1="1982.91" x2="1533.02" y2="1977.34" style="stroke:#808080;stroke-width:8.64"/>
	<line x1="1548.48" y1="1975.61" x2="1549.85" y2="1975.61" style="stroke:#808080;stroke-width:8.64"/>
	<line x1="1549.85" y1="1975.61" x2="1549.85" y2="1968.43" style="stroke:#808080;stroke-width:8.64"/>
	<line x1="1549.85" y1="1968.43" x2="1566.67" y2="1968.43" style="stroke:#808080;stroke-width:8.64"/>
	<line x1="1566.67" y1="1968.43" x2="1566.67" y2="1961.38" style="stroke:#808080;stroke-width:8.64"/>
	<line x1="1566.67" y1="1961.38" x2="1574.60" y2="1961.38" style="stroke:#808080;stroke-width:8.64"/>
	<line x1="1584.74" y1="1954.32" x2="1600.46" y2="1954.32" style="stroke:#808080;stroke-width:8.64"/>
	<line x1="1600.46" y1="1954.32" x2="1600.46" y2="1947.27" style="stroke:#808080;stroke-width:8.64"/>
	<line x1="1600.46" y1="1947.27" x2="1617.41" y2="1947.27" style="stroke:#808080;stroke-width:8.64"/>
	<line x1="1617.41" y1="1947.27" x2="1617.41" y2="1946.52" style="stroke:#808080;stroke-width:8.64"/>
	<line x1="1628.30" y1="1940.21" x2="1634.24" y2="1940.21" style="stroke:#808080;stroke-width:8.64"/>
	<line x1="1634.24" y1="1940.21" x2="1634.24" y2="1933.28" style="stroke:#808080;stroke-width:8.64"/>
	<line x1="1634.24" y1="1933.28" x2="1651.20" y2="1933.28" style="stroke:#808080;stroke-width:8.64"/>
	<line x1="1651.20" y1="1933.28" x2="1651.20" y2="1926.23" style="stroke:#808080;stroke-width:8.64"/>
	<line x1="1651.20" y1="1926.23" x2="1654.66" y2="1926.23" style="stroke:#808080;stroke-width:8.64"/>
	<line x1="1668.03" y1="1922.39" x2="1668.03" y2="1919.42" style="stroke:#808080;stroke-width:8.64"/>
	<line x1="1668.03" y1="1919.42" x2="1684.86" y2="1919.42" style="stroke:#808080;stroke-width:8.64"/>
	<line x1="1684.86" y1="1919.42" x2="1684.86" y2="1912.49" style="stroke:#808080;stroke-width:8.64"/>
	<line x1="1684.86" y1="1912.49" x2="1698.47" y2="1912.49" style="stroke:#808080;stroke-width:8.64"/>
	<line x1="1708.86" y1="1905.69" x2="1718.64" y2="1905.69" style="stroke:#808080;stroke-width:8.64"/>
	<line x1="1718.64" y1="1905.69" x2="1718.64" y2="1898.88" style="stroke:#808080;stroke-width:8.64"/>
	<line x1="1718.64" y1="1898.88" x2="1735.59" y2="1898.88" style="stroke:#808080;stroke-width:8.64"/>
	<line x1="1735.59" y1="1898.88" x2="1735.59" y2="1892.20" style="stroke:#808080;stroke-width:8.64"/>
	<line x1="1735.59" y1="1892.20" x2="1735.72" y2="1892.20" style="stroke:#808080;stroke-width:8.64"/>
	<line x1="1752.42" y1="1891.70" x2="1752.42" y2="1885.39" style="stroke:#808080;stroke-width:8.64"/>
	<line x1="1752.42" y1="1885.39" x2="1769.25" y2="1885.39" style="stroke:#808080;stroke-width:8.64"/>
	<line x1="1769.25" y1="1885.39" x2="1769.25" y2="1878.71" style="stroke:#808080;stroke-width:8.64"/>
	<line x1="1769.25" y1="1878.71" x2="1779.77" y2="1878.71" style="stroke:#808080;stroke-width:8.64"/>
	<line x1="1790.41" y1="1872.15" x2="1803.04" y2="1872.15" style="stroke:#808080;stroke-width:8.64"/>
	<line x1="1803.04" y1="1872.15" x2="1803.04" y2="1865.47" style="stroke:#808080;stroke-width:8.64"/>
	<line x1="1803.04" y1="1865.47" x2="1819.99" y2="1865.47" style="stroke:#808080;stroke-width:8.64"/>
	<line x1="1819.99" y1="1865.47" x2="1819.99" y2="1861.38" style="stroke:#808080;stroke-width:8.64"/>
	<line x1="1834.84" y1="1858.91" x2="1836.82" y2="1858.91" style="stroke:#808080;stroke-width:8.64"/>
	<line x1="1836.82" y1="1858.91" x2="1836.82" y2="1852.35" style="stroke:#808080;stroke-width:8.64"/>
	<line x1="1836.82" y1="1852.35" x2="1853.78" y2="1852.35" style="stroke:#808080;stroke-width:8.64"/>
	<line x1="1853.78" y1="1852.35" x2="1853.78" y2="1845.79" style="stroke:#808080;stroke-width:8.64"/>
	<line x1="1853.78" y1="1845.79" x2="1862.07" y2="1845.79" style="stroke:#808080;stroke-width:8.64"/>
	<line x1="1872.83" y1="1839.35" x2="1887.43" y2="1839.35" style="stroke:#808080;stroke-width:8.64"/>
	<line x1="1887.43" y1="1839.35" x2="1887.43" y2="1832.92" style="stroke:#808080;stroke-width:8.64"/>
	<line x1="1887.43" y1="1832.92" x2="1904.39" y2="1832.92" style="stroke:#808080;stroke-width:8.64"/>
	<line x1="1904.39" y1="1832.92" x2="1904.39" y2="1830.57" style="stroke:#808080;stroke-width:8.64"/>
	<line x1="1917.51" y1="1826.48" x2="1921.22" y2="1826.48" style="stroke:#808080;stroke-width:8.64"/>
	<line x1="1921.22" y1="1826.48" x2="1921.22" y2="1820.05" style="stroke:#808080;stroke-width:8.64"/>
	<line x1="1921.22" y1="1820.05" x2="1938.17" y2="1820.05" style="stroke:#808080;stroke-width:8.64"/>
	<line x1="1938.17" y1="1820.05" x2="1938.17" y2="1813.74" style="stroke:#808080;stroke-width:8.64"/>
	<line x1="1938.17" y1="1813.74" x2="1945.10" y2="1813.74" style="stroke:#808080;stroke-width:8.64"/>
	<line x1="1956.12" y1="1807.43" x2="1971.96" y2="1807.43" style="stroke:#808080;stroke-width:8.64"/>
	<line x1="1971.96" y1="1807.43" x2="1971.96" y2="1801.11" style="stroke:#808080;stroke-width:8.64"/>
	<line x1="1971.96" y1="1801.11" x2="1988.79" y2="1801.11" style="stroke:#808080;stroke-width:8.64"/>
	<line x1="1988.79" y1="1801.11" x2="1988.79" y2="1799.75" style="stroke:#808080;stroke-width:8.64"/>
	<line x1="2001.16" y1="1794.93" x2="2005.62" y2="1794.93" style="stroke:#808080;stroke-width:8.64"/>
	<line x1="2005.62" y1="1794.93" x2="2005.62" y2="1788.61" style="stroke:#808080;stroke-width:8.64"/>
	<line x1="2005.62" y1="1788.61" x2="2022.57" y2="1788.61" style="stroke:#808080;stroke-width:8.64"/>
	<line x1="2022.57" y1="1788.61" x2="2022.57" y2="1782.43" style="stroke:#808080;stroke-width:8.64"/>
	<line x1="2022.57" y1="1782.43" x2="2029.01" y2="1782.43" style="stroke:#808080;stroke-width:8.64"/>
	<line x1="2040.02" y1="1776.24" x2="2056.35" y2="1776.24" style="stroke:#808080;stroke-width:8.64"/>
	<line x1="2056.35" y1="1776.24" x2="2056.35" y2="1770.18" style="stroke:#808080;stroke-width:8.64"/>
	<line x1="2056.35" y1="1770.18" x2="2073.18" y2="1770.18" style="stroke:#808080;stroke-width:8.64"/>
	<line x1="2073.18" y1="1770.18" x2="2073.18" y2="1769.06" style="stroke:#808080;stroke-width:8.64"/>
	<line x1="2085.31" y1="1763.99" x2="2090.14" y2="1763.99" style="stroke:#808080;stroke-width:8.64"/>
	<line x1="2090.14" y1="1763.99" x2="2090.14" y2="1757.92" style="stroke:#808080;stroke-width:8.64"/>
	<line x1="2090.14" y1="1757.92" x2="2106.97" y2="1757.92" style="stroke:#808080;stroke-width:8.64"/>
	<line x1="2106.97" y1="1757.92" x2="2106.97" y2="1751.86" style="stroke:#808080;stroke-width:8.64"/>
	<line x1="2106.97" y1="1751.86" x2="2113.53" y2="1751.86" style="stroke:#808080;stroke-width:8.64"/>
	<line x1="2124.91" y1="1745.92" x2="2140.75" y2="1745.92" style="stroke:#808080;stroke-width:8.64"/>
	<line x1="2140.75" y1="1745.92" x2="2140.75" y2="1739.86" style="stroke:#808080;stroke-width:8.64"/>
	<line x1="2140.75" y1="1739.86" x2="2157.58" y2="1739.86" style="stroke:#808080;stroke-width:8.64"/>
	<line x1="2157.58" y1="1739.86" x2="2157.58" y2="1738.37" style="stroke:#808080;stroke-width:8.64"/>
	<line x1="2170.45" y1="1733.92" x2="2174.53" y2="1733.92" style="stroke:#808080;stroke-width:8.64"/>
	<line x1="2174.53" y1="1733.92" x2="2174.53" y2="1727.98" style="stroke:#808080;stroke-width:8.64"/>
	<line x1="2174.53" y1="1727.98" x2="2191.36" y2="1727.98" style="stroke:#808080;stroke-width:8.64"/>
	<line x1="2191.36" y1="1727.98" x2="2191.36" y2="1722.04" style="stroke:#808080;stroke-width:8.64"/>
	<line x1="2191.36" y1="1722.04" x2="2198.91" y2="1722.04" style="stroke:#808080;stroke-width:8.64"/>
	<line x1="2210.18" y1="1716.09" x2="2225.15" y2="1716.09" style="stroke:#808080;stroke-width:8.64"/>
	<line x1="2225.15" y1="1716.09" x2="2225.15" y2="1710.28" style="stroke:#808080;stroke-width:8.64"/>
	<line x1="2225.15" y1="1710.28" x2="2241.98" y2="1710.28" style="stroke:#808080;stroke-width:8.64"/>
	<line x1="2241.98" y1="1710.28" x2="2241.98" y2="1707.56" style="stroke:#808080;stroke-width:8.64"/>
	<line x1="2256.09" y1="1704.46" x2="2258.93" y2="1704.46" style="stroke:#808080;stroke-width:8.64"/>
	<line x1="2258.93" y1="1704.46" x2="2258.93" y2="1698.65" style="stroke:#808080;stroke-width:8.64"/>
	<line x1="2258.93" y1="1698.65" x2="2275.76" y2="1698.65" style="stroke:#808080;stroke-width:8.64"/>
	<line x1="2275.76" y1="1698.65" x2="2275.76" y2="1692.83" style="stroke:#808080;stroke-width:8.64"/>
	<line x1="2275.76" y1="1692.83" x2="2284.80" y2="1692.83" style="stroke:#808080;stroke-width:8.64"/>
	<line x1="2296.43" y1="1687.14" x2="2309.55" y2="1687.14" style="stroke:#808080;stroke-width:8.64"/>
	<line x1="2309.55" y1="1687.14" x2="2309.55" y2="1681.32" style="stroke:#808080;stroke-width:8.64"/>
	<line x1="2309.55" y1="1681.32" x2="2326.50" y2="1681.32" style="stroke:#808080;stroke-width:8.64"/>
	<line x1="2326.50" y1="1681.32" x2="2326.50" y2="1676.99" style="stroke:#808080;stroke-width:8.64"/>
	<line x1="2342.46" y1="1675.63" x2="2343.33" y2="1675.63" style="stroke:#808080;stroke-width:8.64"/>
	<line x1="2343.33" y1="1675.63" x2="2343.33" y2="1669.93" style="stroke:#808080;stroke-width:8.64"/>
	<line x1="2343.33" y1="1669.93" x2="2360.16" y2="1669.93" style="stroke:#808080;stroke-width:8.64"/>
	<line x1="2360.16" y1="1669.93" x2="2360.16" y2="1664.24" style="stroke:#808080;stroke-width:8.64"/>
	<line x1="2360.16" y1="1664.24" x2="2371.42" y2="1664.24" style="stroke:#808080;stroke-width:8.64"/>
	<line x1="2383.05" y1="1658.67" x2="2393.94" y2="1658.67" style="stroke:#808080;stroke-width:8.64"/>
	<line x1="2393.94" y1="1658.67" x2="2393.94" y2="1653.10" style="stroke:#808080;stroke-width:8.64"/>
	<line x1="2393.94" y1="1653.10" x2="2410.90" y2="1653.10" style="stroke:#808080;stroke-width:8.64"/>
	<line x1="2410.90" y1="1653.10" x2="2410.90" y2="1647.54" style="stroke:#808080;stroke-width:8.64"/>
	<line x1="2410.90" y1="1647.54" x2="2412.26" y2="1647.54" style="stroke:#808080;stroke-width:8.64"/>
	<line x1="2427.73" y1="1645.80" x2="2427.73" y2="1641.97" style="stroke:#808080;stroke-width:8.64"/>
	<line x1="2427.73" y1="1641.97" x2="2444.56" y2="1641.97" style="stroke:#808080;stroke-width:8.64"/>
	<line x1="2444.56" y1="1641.97" x2="2444.56" y2="1636.40" style="stroke:#808080;stroke-width:8.64"/>
	<line x1="2444.56" y1="1636.40" x2="2458.66" y2="1636.40" style="stroke:#808080;stroke-width:8.64"/>
	<line x1="2470.42" y1="1630.83" x2="2478.34" y2="1630.83" style="stroke:#808080;stroke-width:8.64"/>
	<line x1="2478.34" y1="1630.83" x2="2478.34" y2="1625.38" style="stroke:#808080;stroke-width:8.64"/>
	<line x1="2478.34" y1="1625.38" x2="2495.30" y2="1625.38" style="stroke:#808080;stroke-width:8.64"/>
	<line x1="2495.30" y1="1625.38" x2="2495.30" y2="1619.94" style="stroke:#808080;stroke-width:8.64"/>
	<line x1="2495.30" y1="1619.94" x2="2499.75" y2="1619.94" style="stroke:#808080;stroke-width:8.64"/>
	<line x1="2512.13" y1="1614.99" x2="2512.13" y2="1614.49" style="stroke:#808080;stroke-width:8.64"/>
	<line x1="2512.13" y1="1614.49" x2="2529.08" y2="1614.49" style="stroke:#808080;stroke-width:8.64"/>
	<line x1="2529.08" y1="1614.49" x2="2529.08" y2="1609.05" style="stroke:#808080;stroke-width:8.64"/>
	<line x1="2529.08" y1="1609.05" x2="2545.91" y2="1609.05" style="stroke:#808080;stroke-width:8.64"/>
	<line x1="2545.91" y1="1609.05" x2="2545.91" y2="1608.55" style="stroke:#808080;stroke-width:8.64"/>
	<line x1="2558.28" y1="1603.60" x2="2562.74" y2="1603.60" style="stroke:#808080;stroke-width:8.64"/>
	<line x1="2562.74" y1="1603.60" x2="2562.74" y2="1598.28" style="stroke:#808080;stroke-width:8.64"/>
	<line x1="2562.74" y1="1598.28" x2="2579.69" y2="1598.28" style="stroke:#808080;stroke-width:8.64"/>
	<line x1="2579.69" y1="1598.28" x2="2579.69" y2="1592.96" style="stroke:#808080;stroke-width:8.64"/>
	<line x1="2579.69" y1="1592.96" x2="2587.98" y2="1592.96" style="stroke:#808080;stroke-width:8.64"/>
	<line x1="2599.74" y1="1587.51" x2="2613.48" y2="1587.51" style="stroke:#808080;stroke-width:8.64"/>
	<line x1="2613.48" y1="1587.51" x2="2613.48" y2="1582.19" style="stroke:#808080;stroke-width:8.64"/>
	<line x1="2613.48" y1="1582.19" x2="2630.31" y2="1582.19" style="stroke:#808080;stroke-width:8.64"/>
	<line x1="2630.31" y1="1582.19" x2="2630.31" y2="1577.74" style="stroke:#808080;stroke-width:8.64"/>
	<line x1="2646.76" y1="1577.00" x2="2647.26" y2="1577.00" style="stroke:#808080;stroke-width:8.64"/>
	<line x1="2647.26" y1="1577.00" x2="2647.26" y2="1571.67" style="stroke:#808080;stroke-width:8.64"/>
	<line x1="2647.26" y1="1571.67" x2="2664.09" y2="1571.67" style="stroke:#808080;stroke-width:8.64"/>
	<line x1="2664.09" y1="1571.67" x2="2664.09" y2="1566.35" style="stroke:#808080;stroke-width:8.64"/>
	<line x1="2664.09" y1="1566.35" x2="2676.47" y2="1566.35" style="stroke:#808080;stroke-width:8.64"/>
	<line x1="2688.59" y1="1561.16" x2="2697.87" y2="1561.16" style="stroke:#808080;stroke-width:8.64"/>
	<line x1="2697.87" y1="1561.16" x2="2697.87" y2="1555.96" style="stroke:#808080;stroke-width:8.64"/>
	<line x1="2697.87" y1="1555.96" x2="2714.70" y2="1555.96" style="stroke:#808080;stroke-width:8.64"/>
	<line x1="2714.70" y1="1555.96" x2="2714.70" y2="1550.76" style="stroke:#808080;stroke-width:8.64"/>
	<line x1="2714.70" y1="1550.76" x2="2718.42" y2="1550.76" style="stroke:#808080;stroke-width:8.64"/>
	<line x1="2731.66" y1="1546.68" x2="2731.66" y2="1545.56" style="stroke:#808080;stroke-width:8.64"/>
	<line x1="2731.66" y1="1545.56" x2="2748.49" y2="1545.56" style="stroke:#808080;stroke-width:8.64"/>
	<line x1="2748.49" y1="1545.56" x2="2748.49" y2="1540.36" style="stroke:#808080;stroke-width:8.64"/>
	<line x1="2748.49" y1="1540.36" x2="2765.44" y2="1540.36" style="stroke:#808080;stroke-width:8.64"/>
	<line x1="2765.44" y1="1540.36" x2="2765.44" y2="1540.12" style="stroke:#808080;stroke-width:8.64"/>
	<line x1="2777.82" y1="1535.29" x2="2782.27" y2="1535.29" style="stroke:#808080;stroke-width:8.64"/>
	<line x1="2782.27" y1="1535.29" x2="2782.27" y2="1530.22" style="stroke:#808080;stroke-width:8.64"/>
	<line x1="2782.27" y1="1530.22" x2="2799.10" y2="1530.22" style="stroke:#808080;stroke-width:8.64"/>
	<line x1="2799.10" y1="1530.22" x2="2799.10" y2="1525.02" style="stroke:#808080;stroke-width:8.64"/>
	<line x1="2799.10" y1="1525.02" x2="2807.89" y2="1525.02" style="stroke:#808080;stroke-width:8.64"/>
	<line x1="2820.01" y1="1519.94" x2="2832.89" y2="1519.94" style="stroke:#808080;stroke-width:8.64"/>
	<line x1="2832.89" y1="1519.94" x2="2832.89" y2="1514.99" style="stroke:#808080;stroke-width:8.64"/>
	<line x1="2832.89" y1="1514.99" x2="2849.84" y2="1514.99" style="stroke:#808080;stroke-width:8.64"/>
	<line x1="2849.84" y1="1514.99" x2="2849.84" y2="1509.92" style="stroke:#808080;stroke-width:8.64"/>
	<line x1="2849.84" y1="1509.92" x2="2850.33" y2="1509.92" style="stroke:#808080;stroke-width:8.64"/>
	<line x1="2866.67" y1="1509.05" x2="2866.67" y2="1504.85" style="stroke:#808080;stroke-width:8.64"/>
	<line x1="2866.67" y1="1504.85" x2="2883.62" y2="1504.85" style="stroke:#808080;stroke-width:8.64"/>
	<line x1="2883.62" y1="1504.85" x2="2883.62" y2="1499.90" style="stroke:#808080;stroke-width:8.64"/>
	<line x1="2883.62" y1="1499.90" x2="2897.85" y2="1499.90" style="stroke:#808080;stroke-width:8.64"/>
	<line x1="2910.23" y1="1494.95" x2="2917.28" y2="1494.95" style="stroke:#808080;stroke-width:8.64"/>
	<line x1="2917.28" y1="1494.95" x2="2917.28" y2="1490.00" style="stroke:#808080;stroke-width:8.64"/>
	<line x1="2917.28" y1="1490.00" x2="2934.24" y2="1490.00" style="stroke:#808080;stroke-width:8.64"/>
	<line x1="2934.24" y1="1490.00" x2="2934.24" y2="1485.05" style="stroke:#808080;stroke-width:8.64"/>
	<line x1="2934.24" y1="1485.05" x2="2940.67" y2="1485.05" style="stroke:#808080;stroke-width:8.64"/>
	<line x1="2952.92" y1="1480.10" x2="2968.02" y2="1480.10" style="stroke:#808080;stroke-width:8.64"/>
	<line x1="2968.02" y1="1480.10" x2="2968.02" y2="1475.15" style="stroke:#808080;stroke-width:8.64"/>
	<line x1="2968.02" y1="1475.15" x2="2984.85" y2="1475.15" style="stroke:#808080;stroke-width:8.64"/>
	<line x1="2984.85" y1="1475.15" x2="2984.85" y2="1471.68" style="stroke:#808080;stroke-width:8.64"/>
	<line x1="3000.69" y1="1470.32" x2="3001.80" y2="1470.32" style="stroke:#808080;stroke-width:8.64"/>
	<line x1="3001.80" y1="1470.32" x2="3001.80" y2="1465.49" style="stroke:#808080;stroke-width:8.64"/>
	<line x1="3001.80" y1="1465.49" x2="3018.63" y2="1465.49" style="stroke:#808080;stroke-width:8.64"/>
	<line x1="3018.63" y1="1465.49" x2="3018.63" y2="1460.54" style="stroke:#808080;stroke-width:8.64"/>
	<line x1="3018.63" y1="1460.54" x2="3031.26" y2="1460.54" style="stroke:#808080;stroke-width:8.64"/>
	<line x1="3043.63" y1="1455.72" x2="3052.42" y2="1455.72" style="stroke:#808080;stroke-width:8.64"/>
	<line x1="3052.42" y1="1455.72" x2="3052.42" y2="1450.89" style="stroke:#808080;stroke-width:8.64"/>
	<line x1="3052.42" y1="1450.89" x2="3069.25" y2="1450.89" style="stroke:#808080;stroke-width:8.64"/>
	<line x1="3069.25" y1="1450.89" x2="3069.25" y2="1446.06" style="stroke:#808080;stroke-width:8.64"/>
	<line x1="3069.25" y1="1446.06" x2="3074.32" y2="1446.06" style="stroke:#808080;stroke-width:8.64"/>
	<line x1="3086.94" y1="1441.36" x2="3103.03" y2="1441.36" style="stroke:#808080;stroke-width:8.64"/>
	<line x1="3103.03" y1="1441.36" x2="3103.03" y2="1436.53" style="stroke:#808080;stroke-width:8.64"/>
	<line x1="3103.03" y1="1436.53" x2="3119.86" y2="1436.53" style="stroke:#808080;stroke-width:8.64"/>
	<line x1="3119.86" y1="1436.53" x2="3119.86" y2="1434.06" style="stroke:#808080;stroke-width:8.64"/>
	<line x1="3134.96" y1="1431.83" x2="3136.82" y2="1431.83" style="stroke:#808080;stroke-width:8.64"/>
	<line x1="3136.82" y1="1431.83" x2="3136.82" y2="1427.13" style="stroke:#808080;stroke-width:8.64"/>
	<line x1="3136.82" y1="1427.13" x2="3153.64" y2="1427.13" style="stroke:#808080;stroke-width:8.64"/>
	<line x1="3153.64" y1="1427.13" x2="3153.64" y2="1422.43" style="stroke:#808080;stroke-width:8.64"/>
	<line x1="3153.64" y1="1422.43" x2="3165.90" y2="1422.43" style="stroke:#808080;stroke-width:8.64"/>
	<line x1="3178.39" y1="1417.72" x2="3187.43" y2="1417.72" style="stroke:#808080;stroke-width:8.64"/>
	<line x1="3187.43" y1="1417.72" x2="3187.43" y2="1413.02" style="stroke:#808080;stroke-width:8.64"/>
	<line x1="3187.43" y1="1413.02" x2="3204.38" y2="1413.02" style="stroke:#808080;stroke-width:8.64"/>
	<line x1="3204.38" y1="1413.02" x2="3204.38" y2="1408.32" style="stroke:#808080;stroke-width:8.64"/>
	<line x1="3204.38" y1="1408.32" x2="3209.33" y2="1408.32" style="stroke:#808080;stroke-width:8.64"/>
	<line x1="3221.95" y1="1403.74" x2="3238.04" y2="1403.74" style="stroke:#808080;stroke-width:8.64"/>
	<line x1="3238.04" y1="1403.74" x2="3238.04" y2="1399.04" style="stroke:#808080;stroke-width:8.64"/>
	<line x1="3238.04" y1="1399.04" x2="3255.00" y2="1399.04" style="stroke:#808080;stroke-width:8.64"/>
	<line x1="3255.00" y1="1399.04" x2="3255.00" y2="1396.44" style="stroke:#808080;stroke-width:8.64"/>
	<line x1="3270.34" y1="1394.46" x2="3271.83" y2="1394.46" style="stroke:#808080;stroke-width:8.64"/>
	<line x1="3271.83" y1="1394.46" x2="3271.83" y2="1389.88" style="stroke:#808080;stroke-width:8.64"/>
	<line x1="3271.83" y1="1389.88" x2="3288.78" y2="1389.88" style="stroke:#808080;stroke-width:8.64"/>
	<line x1="3288.78" y1="1389.88" x2="3288.78" y2="1385.30" style="stroke:#808080;stroke-width:8.64"/>
	<line x1="3288.78" y1="1385.30" x2="3301.53" y2="1385.30" style="stroke:#808080;stroke-width:8.64"/>
	<line x1="3314.15" y1="1380.72" x2="3322.56" y2="1380.72" style="stroke:#808080;stroke-width:8.64"/>
	<line x1="3322.56" y1="1380.72" x2="3322.56" y2="1376.14" style="stroke:#808080;stroke-width:8.64"/>
	<line x1="3322.56" y1="1376.14" x2="3339.39" y2="1376.14" style="stroke:#808080;stroke-width:8.64"/>
	<line x1="3339.39" y1="1376.14" x2="3339.39" y2="1371.69" style="stroke:#808080;stroke-width:8.64"/>
	<line x1="3339.39" y1="1371.69" x2="3345.46" y2="1371.69" style="stroke:#808080;stroke-width:8.64"/>
	<line x1="3358.08" y1="1367.11" x2="3373.18" y2="1367.11" style="stroke:#808080;stroke-width:8.64"/>
	<line x1="3373.18" y1="1367.11" x2="3373.18" y2="1362.65" style="stroke:#808080;stroke-width:8.64"/>
	<line x1="3373.18" y1="1362.65" x2="3390.01" y2="1362.65" style="stroke:#808080;stroke-width:8.64"/>
	<line x1="3390.01" y1="1362.65" x2="3390.01" y2="1358.69" style="stroke:#808080;stroke-width:8.64"/>
	<line x1="3406.59" y1="1358.07" x2="3406.96" y2="1358.07" style="stroke:#808080;stroke-width:8.64"/>
	<line x1="3406.96" y1="1358.07" x2="3406.96" y2="1353.62" style="stroke:#808080;stroke-width:8.64"/>
	<line x1="3406.96" y1="1353.62" x2="3423.79" y2="1353.62" style="stroke:#808080;stroke-width:8.64"/>
	<line x1="3423.79" y1="1353.62" x2="3423.79" y2="1349.16" style="stroke:#808080;stroke-width:8.64"/>
	<line x1="3423.79" y1="1349.16" x2="3438.02" y2="1349.16" style="stroke:#808080;stroke-width:8.64"/>
	<line x1="3450.77" y1="1344.71" x2="3457.57" y2="1344.71" style="stroke:#808080;stroke-width:8.64"/>
	<line x1="3457.57" y1="1344.71" x2="3457.57" y2="1340.25" style="stroke:#808080;stroke-width:8.64"/>
	<line x1="3457.57" y1="1340.25" x2="3474.41" y2="1340.25" style="stroke:#808080;stroke-width:8.64"/>
	<line x1="3474.41" y1="1340.25" x2="3474.41" y2="1335.92" style="stroke:#808080;stroke-width:8.64"/>
	<line x1="3474.41" y1="1335.92" x2="3482.32" y2="1335.92" style="stroke:#808080;stroke-width:8.64"/>
	<line x1="3495.20" y1="1331.47" x2="3508.19" y2="1331.47" style="stroke:#808080;stroke-width:8.64"/>
	<line x1="3508.19" y1="1331.47" x2="3508.19" y2="1327.14" style="stroke:#808080;stroke-width:8.64"/>
	<line x1="3508.19" y1="1327.14" x2="3525.14" y2="1327.14" style="stroke:#808080;stroke-width:8.64"/>
	<line x1="3525.14" y1="1327.14" x2="3525.14" y2="1322.68" style="stroke:#808080;stroke-width:8.64"/>
	<line x1="3525.14" y1="1322.68" x2="3526.75" y2="1322.68" style="stroke:#808080;stroke-width:8.64"/>
	<line x1="3541.97" y1="1320.70" x2="3541.97" y2="1318.35" style="stroke:#808080;stroke-width:8.64"/>
	<line x1="3541.97" y1="1318.35" x2="3558.93" y2="1318.35" style="stroke:#808080;stroke-width:8.64"/>
	<line x1="3558.93" y1="1318.35" x2="3558.93" y2="1314.02" style="stroke:#808080;stroke-width:8.64"/>
	<line x1="3558.93" y1="1314.02" x2="3575.63" y2="1314.02" style="stroke:#808080;stroke-width:8.64"/>
	<line x1="3588.50" y1="1309.69" x2="3592.59" y2="1309.69" style="stroke:#808080;stroke-width:8.64"/>
	<line x1="3592.59" y1="1309.69" x2="3592.59" y2="1305.36" style="stroke:#808080;stroke-width:8.64"/>
	<line x1="3592.59" y1="1305.36" x2="3609.54" y2="1305.36" style="stroke:#808080;stroke-width:8.64"/>
	<line x1="3609.54" y1="1305.36" x2="3609.54" y2="1301.15" style="stroke:#808080;stroke-width:8.64"/>
	<line x1="3609.54" y1="1301.15" x2="3620.31" y2="1301.15" style="stroke:#808080;stroke-width:8.64"/>
	<line x1="3633.18" y1="1296.82" x2="3643.32" y2="1296.82" style="stroke:#808080;stroke-width:8.64"/>
	<line x1="3643.32" y1="1296.82" x2="3643.32" y2="1292.49" style="stroke:#808080;stroke-width:8.64"/>
	<line x1="3643.32" y1="1292.49" x2="3660.15" y2="1292.49" style="stroke:#808080;stroke-width:8.64"/>
	<line x1="3660.15" y1="1292.49" x2="3660.15" y2="1288.28" style="stroke:#808080;stroke-width:8.64"/>
	<line x1="3660.15" y1="1288.28" x2="3664.98" y2="1288.28" style="stroke:#808080;stroke-width:8.64"/>
	<line x1="3678.10" y1="1284.07" x2="3693.94" y2="1284.07" style="stroke:#808080;stroke-width:8.64"/>
	<line x1="3693.94" y1="1284.07" x2="3693.94" y2="1279.74" style="stroke:#808080;stroke-width:8.64"/>
	<line x1="3693.94" y1="1279.74" x2="3710.77" y2="1279.74" style="stroke:#808080;stroke-width:8.64"/>
	<line x1="3710.77" y1="1279.74" x2="3710.77" y2="1276.40" style="stroke:#808080;stroke-width:8.64"/>
	<line x1="3727.10" y1="1275.53" x2="3727.72" y2="1275.53" style="stroke:#808080;stroke-width:8.64"/>
	<line x1="3727.72" y1="1275.53" x2="3727.72" y2="1271.32" style="stroke:#808080;stroke-width:8.64"/>
	<line x1="3727.72" y1="1271.32" x2="3744.55" y2="1271.32" style="stroke:#808080;stroke-width:8.64"/>
	<line x1="3744.55" y1="1271.32" x2="3744.55" y2="1267.24" style="stroke:#808080;stroke-width:8.64"/>
	<line x1="3744.55" y1="1267.24" x2="3759.15" y2="1267.24" style="stroke:#808080;stroke-width:8.64"/>
	<line x1="3772.15" y1="1263.03" x2="3778.34" y2="1263.03" style="stroke:#808080;stroke-width:8.64"/>
	<line x1="3778.34" y1="1263.03" x2="3778.34" y2="1258.82" style="stroke:#808080;stroke-width:8.64"/>
	<line x1="3778.34" y1="1258.82" x2="3795.16" y2="1258.82" style="stroke:#808080;stroke-width:8.64"/>
	<line x1="3795.16" y1="1258.82" x2="3795.16" y2="1254.74" style="stroke:#808080;stroke-width:8.64"/>
	<path d="" stroke-linejoin="round" style="fill:none;stroke:#808080;stroke-width:8.64"/>
	<path d=" M773.19 2351.82 L790.14 2351.82 L790.14 2342.04 L806.97 2342.04 L806.97 2332.39 L823.93 2332.39 L823.93 2322.86 L840.76 2322.86 L840.76 2313.33 L857.71 2313.33 L857.71 2303.93 L874.54 2303.93 L874.54 2294.52 L891.37 2294.52 L891.37 2285.24 L908.33 2285.24 L908.33 2276.08 L925.15 2276.08 L925.15 2266.92 L942.11 2266.92 L942.11 2257.89 L958.94 2257.89 L958.94 2248.98 L975.89 2248.98 L975.89 2240.07 L992.72 2240.07 L992.72 2231.16 L1009.55 2231.16 L1009.55 2222.37 L1026.51 2222.37 L1026.51 2213.71 L1043.34 2213.71 L1043.34 2205.05 L1060.29 2205.05 L1060.29 2196.51 L1077.12 2196.51 L1077.12 2187.97 L1093.95 2187.97 L1093.95 2179.55 L1110.90 2179.55 L1110.90 2171.26 L1127.73 2171.26 L1127.73 2162.85 L1144.69 2162.85 L1144.69 2154.68 L1161.52 2154.68 L1161.52 2146.39 L1178.47 2146.39 L1178.47 2138.34 L1195.30 2138.34 L1195.30 2130.18 L1212.13 2130.18 L1212.13 2122.26 L1229.09 2122.26 L1229.09 2114.21 L1245.91 2114.21 L1245.91 2106.29 L1262.87 2106.29 L1262.87 2098.49 L1279.70 2098.49 L1279.70 2090.70 L1296.65 2090.70 L1296.65 2082.90 L1313.48 2082.90 L1313.48 2075.23 L1330.31 2075.23 L1330.31 2067.56 L1347.27 2067.56 L1347.27 2059.88 L1364.10 2059.88 L1364.10 2052.33 L1381.05 2052.33 L1381.05 2044.91 L1397.88 2044.91 L1397.88 2037.48 L1414.83 2037.48 L1414.83 2030.06 L1431.66 2030.06 L1431.66 2022.63 L1448.49 2022.63 L1448.49 2015.33 L1465.45 2015.33 L1465.45 2008.03 L1482.28 2008.03 L1482.28 2000.85 L1499.23 2000.85 L1499.23 1993.67 L1516.06 1993.67 L1516.06 1986.50 L1533.02 1986.50 L1533.02 1979.44 L1549.85 1979.44 L1549.85 1972.27 L1566.67 1972.27 L1566.67 1965.34 L1583.63 1965.34 L1583.63 1958.28 L1600.46 1958.28 L1600.46 1951.35 L1617.41 1951.35 L1617.41 1944.42 L1634.24 1944.42 L1634.24 1937.61 L1651.20 1937.61 L1651.20 1930.81 L1668.03 1930.81 L1668.03 1924.00 L1684.86 1924.00 L1684.86 1917.19 L1701.81 1917.19 L1701.81 1910.51 L1718.64 1910.51 L1718.64 1903.83 L1735.59 1903.83 L1735.59 1897.15 L1752.42 1897.15 L1752.42 1890.59 L1769.25 1890.59 L1769.25 1883.91 L1786.21 1883.91 L1786.21 1877.47 L1803.04 1877.47 L1803.04 1870.91 L1819.99 1870.91 L1819.99 1864.48 L1836.82 1864.48 L1836.82 1858.04 L1853.78 1858.04 L1853.78 1851.61 L1870.61 1851.61 L1870.61 1845.29 L1887.43 1845.29 L1887.43 1838.86 L1904.39 1838.86 L1904.39 1832.67 L1921.22 1832.67 L1921.22 1826.36 L1938.17 1826.36 L1938.17 1820.05 L1955.00 1820.05 L1955.00 1813.86 L1971.96 1813.86 L1971.96 1807.67 L1988.79 1807.67 L1988.79 1801.61 L2005.62 1801.61 L2005.62 1795.42 L2022.57 1795.42 L2022.57 1789.36 L2039.40 1789.36 L2039.40 1783.29 L2056.35 1783.29 L2056.35 1777.23 L2073.18 1777.23 L2073.18 1771.29 L2090.14 1771.29 L2090.14 1765.35 L2106.97 1765.35 L2106.97 1759.41 L2123.80 1759.41 L2123.80 1753.47 L2140.75 1753.47 L2140.75 1747.53 L2157.58 1747.53 L2157.58 1741.71 L2174.53 1741.71 L2174.53 1735.90 L2191.36 1735.90 L2191.36 1730.08 L2208.32 1730.08 L2208.32 1724.39 L2225.15 1724.39 L2225.15 1718.57 L2241.98 1718.57 L2241.98 1712.88 L2258.93 1712.88 L2258.93 1707.18 L2275.76 1707.18 L2275.76 1701.49 L2292.72 1701.49 L2292.72 1695.80 L2309.55 1695.80 L2309.55 1690.23 L2326.50 1690.23 L2326.50 1684.66 L2343.33 1684.66 L2343.33 1679.09 L2360.16 1679.09 L2360.16 1673.52 L2377.11 1673.52 L2377.11 1668.08 L2393.94 1668.08 L2393.94 1662.51 L2410.90 1662.51 L2410.90 1657.06 L2427.73 1657.06 L2427.73 1651.62 L2444.56 1651.62 L2444.56 1646.17 L2461.51 1646.17 L2461.51 1640.85 L2478.34 1640.85 L2478.34 1635.41 L2495.30 1635.41 L2495.30 1630.09 L2512.13 1630.09 L2512.13 1624.76 L2529.08 1624.76 L2529.08 1619.44 L2545.91 1619.44 L2545.91 1614.12 L2562.74 1614.12 L2562.74 1608.92 L2579.69 1608.92 L2579.69 1603.60 L2596.52 1603.60 L2596.52 1598.40 L2613.48 1598.40 L2613.48 1593.21 L2630.31 1593.21 L2630.31 1588.01 L2647.26 1588.01 L2647.26 1582.81 L2664.09 1582.81 L2664.09 1577.74 L2680.92 1577.74 L2680.92 1572.54 L2697.87 1572.54 L2697.87 1567.47 L2714.70 1567.47 L2714.70 1562.39 L2731.66 1562.39 L2731.66 1557.32 L2748.49 1557.32 L2748.49 1552.37 L2765.44 1552.37 L2765.44 1547.29 L2782.27 1547.29 L2782.27 1542.34 L2799.10 1542.34 L2799.10 1537.39 L2816.05 1537.39 L2816.05 1532.32 L2832.89 1532.32 L2832.89 1527.49 L2849.84 1527.49 L2849.84 1522.54 L2866.67 1522.54 L2866.67 1517.59 L2883.62 1517.59 L2883.62 1512.77 L2900.45 1512.77 L2900.45 1507.82 L2917.28 1507.82 L2917.28 1502.99 L2934.24 1502.99 L2934.24 1498.16 L2951.07 1498.16 L2951.07 1493.34 L2968.02 1493.34 L2968.02 1488.64 L2984.85 1488.64 L2984.85 1483.81 L3001.80 1483.81 L3001.80 1479.11 L3018.63 1479.11 L3018.63 1474.28 L3035.46 1474.28 L3035.46 1469.58 L3052.42 1469.58 L3052.42 1464.87 L3069.25 1464.87 L3069.25 1460.17 L3086.20 1460.17 L3086.20 1455.59 L3103.03 1455.59 L3103.03 1450.89 L3119.86 1450.89 L3119.86 1446.31 L3136.82 1446.31 L3136.82 1441.73 L3153.64 1441.73 L3153.64 1437.03 L3170.60 1437.03 L3170.60 1432.45 L3187.43 1432.45 L3187.43 1428.00 L3204.38 1428.00 L3204.38 1423.42 L3221.21 1423.42 L3221.21 1418.84 L3238.04 1418.84 L3238.04 1414.38 L3255.00 1414.38 L3255.00 1409.80 L3271.83 1409.80 L3271.83 1405.35 L3288.78 1405.35 L3288.78 1400.89 L3305.61 1400.89 L3305.61 1396.44 L3322.56 1396.44 L3322.56 1391.98 L3339.39 1391.98 L3339.39 1387.53 L3356.22 1387.53 L3356.22 1383.20 L3373.18 1383.20 L3373.18 1378.74 L3390.01 1378.74 L3390.01 1374.41 L3406.96 1374.41 L3406.96 1370.08 L3423.79 1370.08 L3423.79 1365.75 L3440.74 1365.75 L3440.74 1361.42 L3457.57 1361.42 L3457.57 1357.08 L3474.41 1357.08 L3474.41 1352.75 L3491.36 1352.75 L3491.36 1348.42 L3508.19 1348.42 L3508.19 1344.21 L3525.14 1344.21 L3525.14 1340.01 L3541.97 1340.01 L3541.97 1335.68 L3558.93 1335.68 L3558.93 1331.47 L3575.76 1331.47 L3575.76 1327.26 L3592.59 1327.26 L3592.59 1323.05 L3609.54 1323.05 L3609.54 1318.84 L3626.37 1318.84 L3626.37 1314.76 L3643.32 1314.76 L3643.32 1310.55 L3660.15 1310.55 L3660.15 1306.47 L3677.11 1306.47 L3677.11 1302.26 L3693.94 1302.26 L3693.94 1298.18 L3710.77 1298.18 L3710.77 1294.09 L3727.72 1294.09 L3727.72 1290.01 L3744.55 1290.01 L3744.55 1285.93 L3761.51 1285.93 L3761.51 1281.84 L3778.34 1281.84 L3778.34 1277.88 L3795.16 1277.88 L3795.16 1273.80" stroke-linejoin="round" style="fill:none;stroke:#000000;stroke-width:8.64"/>
	<line x1="553.29" y1="2509.23" x2="553.29" y2="419.90" style="stroke:#000000;stroke-width:5.76"/>
	<line x1="553.29" y1="2445.87" x2="513.32" y2="2445.87" style="stroke:#000000;stroke-width:5.76"/>
	<text x="493.27" y="2480.90" style="font-family:'Helvetica';font-size:99.99px;fill:#000000" text-anchor="end">0</text>
	<line x1="553.29" y1="2252.57" x2="513.32" y2="2252.57" style="stroke:#000000;stroke-width:5.76"/>
	<text x="493.27" y="2287.60" style="font-family:'Helvetica';font-size:99.99px;fill:#000000" text-anchor="end">180</text>
	<line x1="553.29" y1="2059.14" x2="513.32" y2="2059.14" style="stroke:#000000;stroke-width:5.76"/>
	<text x="493.27" y="2094.17" style="font-family:'Helvetica';font-size:99.99px;fill:#000000" text-anchor="end">360</text>
	<line x1="553.29" y1="1865.84" x2="513.32" y2="1865.84" style="stroke:#000000;stroke-width:5.76"/>
	<text x="493.27" y="1900.87" style="font-family:'Helvetica';font-size:99.99px;fill:#000000" text-anchor="end">540</text>
	<line x1="553.29" y1="1672.41" x2="513.32" y2="1672.41" style="stroke:#000000;stroke-width:5.76"/>
	<text x="493.27" y="1707.44" style="font-family:'Helvetica';font-size:99.99px;fill:#000000" text-anchor="end">720</text>
	<line x1="553.29" y1="1479.11" x2="513.32" y2="1479.11" style="stroke:#000000;stroke-width:5.76"/>
	<text x="493.27" y="1514.13" style="font-family:'Helvetica';font-size:99.99px;fill:#000000" text-anchor="end">900</text>
	<line x1="553.29" y1="1285.68" x2="513.32" y2="1285.68" style="stroke:#000000;stroke-width:5.76"/>
	<text x="493.27" y="1320.71" style="font-family:'Helvetica';font-size:99.99px;fill:#000000" text-anchor="end">1080</text>
	<line x1="553.29" y1="1092.38" x2="513.32" y2="1092.38" style="stroke:#000000;stroke-width:5.76"/>
	<text x="493.27" y="1127.40" style="font-family:'Helvetica';font-size:99.99px;fill:#000000" text-anchor="end">1260</text>
	<line x1="553.29" y1="898.95" x2="513.32" y2="898.95" style="stroke:#000000;stroke-width:5.76"/>
	<text x="493.27" y="933.98" style="font-family:'Helvetica';font-size:99.99px;fill:#000000" text-anchor="end">1440</text>
	<line x1="553.29" y1="705.64" x2="513.32" y2="705.64" style="stroke:#000000;stroke-width:5.76"/>
	<text x="493.27" y="740.67" style="font-family:'Helvetica';font-size:99.99px;fill:#000000" text-anchor="end">1620</text>
	<line x1="553.29" y1="512.34" x2="513.32" y2="512.34" style="stroke:#000000;stroke-width:5.76"/>
	<text x="493.27" y="547.37" style="font-family:'Helvetica';font-size:99.99px;fill:#000000" text-anchor="end">1800</text>
	<text x="190.71" y="1464.63" style="font-family:'Helvetica';font-size:99.99px;fill:#000000" transform="rotate(-90 190.71,1464.63)" text-anchor="middle">LOS (years)</text>
	<line x1="553.29" y1="2509.23" x2="3859.02" y2="2509.23" style="stroke:#000000;stroke-width:5.76"/>
	<line x1="616.65" y1="2509.23" x2="616.65" y2="2549.21" style="stroke:#000000;stroke-width:5.76"/>
	<text x="616.65" y="2625.15" style="font-family:'Helvetica';font-size:79.94px;fill:#000000" text-anchor="middle">0</text>
	<line x1="807.35" y1="2509.23" x2="807.35" y2="2549.21" style="stroke:#000000;stroke-width:5.76"/>
	<text x="807.35" y="2625.15" style="font-family:'Helvetica';font-size:79.94px;fill:#000000" text-anchor="middle">.3</text>
	<line x1="998.17" y1="2509.23" x2="998.17" y2="2549.21" style="stroke:#000000;stroke-width:5.76"/>
	<text x="998.17" y="2625.15" style="font-family:'Helvetica';font-size:79.94px;fill:#000000" text-anchor="middle">.6</text>
	<line x1="1188.87" y1="2509.23" x2="1188.87" y2="2549.21" style="stroke:#000000;stroke-width:5.76"/>
	<text x="1188.87" y="2625.15" style="font-family:'Helvetica';font-size:79.94px;fill:#000000" text-anchor="middle">.9</text>
	<line x1="1379.57" y1="2509.23" x2="1379.57" y2="2549.21" style="stroke:#000000;stroke-width:5.76"/>
	<text x="1379.57" y="2625.15" style="font-family:'Helvetica';font-size:79.94px;fill:#000000" text-anchor="middle">1.2</text>
	<line x1="1570.39" y1="2509.23" x2="1570.39" y2="2549.21" style="stroke:#000000;stroke-width:5.76"/>
	<text x="1570.39" y="2625.15" style="font-family:'Helvetica';font-size:79.94px;fill:#000000" text-anchor="middle">1.5</text>
	<line x1="1761.09" y1="2509.23" x2="1761.09" y2="2549.21" style="stroke:#000000;stroke-width:5.76"/>
	<text x="1761.09" y="2625.15" style="font-family:'Helvetica';font-size:79.94px;fill:#000000" text-anchor="middle">1.8</text>
	<line x1="1951.91" y1="2509.23" x2="1951.91" y2="2549.21" style="stroke:#000000;stroke-width:5.76"/>
	<text x="1951.91" y="2625.15" style="font-family:'Helvetica';font-size:79.94px;fill:#000000" text-anchor="middle">2.1</text>
	<line x1="2142.61" y1="2509.23" x2="2142.61" y2="2549.21" style="stroke:#000000;stroke-width:5.76"/>
	<text x="2142.61" y="2625.15" style="font-family:'Helvetica';font-size:79.94px;fill:#000000" text-anchor="middle">2.4</text>
	<line x1="2333.31" y1="2509.23" x2="2333.31" y2="2549.21" style="stroke:#000000;stroke-width:5.76"/>
	<text x="2333.31" y="2625.15" style="font-family:'Helvetica';font-size:79.94px;fill:#000000" text-anchor="middle">2.7</text>
	<line x1="2524.13" y1="2509.23" x2="2524.13" y2="2549.21" style="stroke:#000000;stroke-width:5.76"/>
	<text x="2524.13" y="2625.15" style="font-family:'Helvetica';font-size:79.94px;fill:#000000" text-anchor="middle">3</text>
	<line x1="2714.83" y1="2509.23" x2="2714.83" y2="2549.21" style="stroke:#000000;stroke-width:5.76"/>
	<text x="2714.83" y="2625.15" style="font-family:'Helvetica';font-size:79.94px;fill:#000000" text-anchor="middle">3.3</text>
	<line x1="2905.53" y1="2509.23" x2="2905.53" y2="2549.21" style="stroke:#000000;stroke-width:5.76"/>
	<text x="2905.53" y="2625.15" style="font-family:'Helvetica';font-size:79.94px;fill:#000000" text-anchor="middle">3.6</text>
	<line x1="3096.35" y1="2509.23" x2="3096.35" y2="2549.21" style="stroke:#000000;stroke-width:5.76"/>
	<text x="3096.35" y="2625.15" style="font-family:'Helvetica';font-size:79.94px;fill:#000000" text-anchor="middle">3.9</text>
	<line x1="3287.05" y1="2509.23" x2="3287.05" y2="2549.21" style="stroke:#000000;stroke-width:5.76"/>
	<text x="3287.05" y="2625.15" style="font-family:'Helvetica';font-size:79.94px;fill:#000000" text-anchor="middle">4.2</text>
	<line x1="3477.87" y1="2509.23" x2="3477.87" y2="2549.21" style="stroke:#000000;stroke-width:5.76"/>
	<text x="3477.87" y="2625.15" style="font-family:'Helvetica';font-size:79.94px;fill:#000000" text-anchor="middle">4.5</text>
	<line x1="3668.57" y1="2509.23" x2="3668.57" y2="2549.21" style="stroke:#000000;stroke-width:5.76"/>
	<text x="3668.57" y="2625.15" style="font-family:'Helvetica';font-size:79.94px;fill:#000000" text-anchor="middle">4.8</text>
	<line x1="3859.27" y1="2509.23" x2="3859.27" y2="2549.21" style="stroke:#000000;stroke-width:5.76"/>
	<text x="3859.27" y="2625.15" style="font-family:'Helvetica';font-size:79.94px;fill:#000000" text-anchor="middle">5.1</text>
	<text x="2206.22" y="2729.16" style="font-family:'Helvetica';font-size:99.99px;fill:#000000" text-anchor="middle">Time (years)</text>
	<rect x="587.81" y="454.42" width="1384.14" height="606.39" style="fill:#FFFFFF"/>
	<rect x="590.69" y="457.30" width="1378.38" height="600.63" style="fill:none;stroke:#000000;stroke-width:5.76"/>
	<rect x="631.00" y="497.74" width="374.47" height="99.99" style="fill:#999999;fill-opacity:0.35"/>
	<rect x="635.32" y="502.06" width="365.83" height="91.35" style="fill:none;stroke:#808080;stroke-opacity:0.35;stroke-width:8.64"/>
	<rect x="631.00" y="637.70" width="374.47" height="99.99" style="fill:#333333;fill-opacity:0.35"/>
	<rect x="635.32" y="642.02" width="365.83" height="91.35" style="fill:none;stroke:#000000;stroke-opacity:0.35;stroke-width:8.64"/>
	<line x1="631.00" y1="827.67" x2="671.34" y2="827.67" style="stroke:#808080;stroke-width:8.64"/>
	<line x1="688.54" y1="827.67" x2="728.89" y2="827.67" style="stroke:#808080;stroke-width:8.64"/>
	<line x1="746.09" y1="827.67" x2="786.43" y2="827.67" style="stroke:#808080;stroke-width:8.64"/>
	<line x1="803.76" y1="827.67" x2="843.98" y2="827.67" style="stroke:#808080;stroke-width:8.64"/>
	<line x1="861.30" y1="827.67" x2="901.64" y2="827.67" style="stroke:#808080;stroke-width:8.64"/>
	<line x1="918.84" y1="827.67" x2="959.19" y2="827.67" style="stroke:#808080;stroke-width:8.64"/>
	<line x1="976.39" y1="827.67" x2="1005.47" y2="827.67" style="stroke:#808080;stroke-width:8.64"/>
	<line x1="631.00" y1="967.63" x2="1005.47" y2="967.63" style="stroke:#000000;stroke-width:8.64"/>
	<text x="1065.36" y="582.76" style="font-family:'Helvetica';font-size:99.99px;fill:#000000">Ambulatory CI95%</text>
	<text x="1065.36" y="722.73" style="font-family:'Helvetica';font-size:99.99px;fill:#000000">Residential CI95%</text>
	<text x="1065.36" y="862.69" style="font-family:'Helvetica';font-size:99.99px;fill:#000000">Ambulatory</text>
	<text x="1065.36" y="1002.66" style="font-family:'Helvetica';font-size:99.99px;fill:#000000">Residential</text>
	<text x="2206.22" y="369.63" style="font-family:'Helvetica';font-size:110.01px;fill:#000000" text-anchor="middle">from 3rd Readmission</text>
	<text x="2206.22" y="215.98" style="font-family:'Helvetica';font-size:139.96px;fill:#1E2D53" text-anchor="middle">Length of Stay</text>
</svg>
