<?xml version="1.0" encoding="UTF-8" standalone="no"?>
<!-- This is a Stata 16.1 generated SVG file (http://www.stata.com) -->

<svg version="1.1" width="5.50in" height="4.00in" viewBox="0 0 3960 2880" xmlns="http://www.w3.org/2000/svg" xmlns:xlink="http://www.w3.org/1999/xlink">
	<desc>Stata Graph - los_models_22_3y_rp_22</desc>
	<rect x="0" y="0" width="3960" height="2880" style="fill:#EAF2F3;stroke:none"/>
	<rect x="0.00" y="0.00" width="3959.88" height="2880.00" style="fill:#FFFFFF"/>
	<rect x="2.88" y="2.88" width="3954.12" height="2874.24" style="fill:none;stroke:#FFFFFF;stroke-width:5.76"/>
	<rect x="495.00" y="419.90" width="3364.02" height="2089.34" style="fill:#FFFFFF"/>
	<rect x="497.88" y="422.78" width="3358.26" height="2083.58" style="fill:none;stroke:#FFFFFF;stroke-width:5.76"/>
	<line x1="495.00" y1="2332.27" x2="3859.02" y2="2332.27" style="stroke:#EAF2F3;stroke-width:8.64"/>
	<line x1="495.00" y1="2218.78" x2="3859.02" y2="2218.78" style="stroke:#EAF2F3;stroke-width:8.64"/>
	<line x1="495.00" y1="2105.18" x2="3859.02" y2="2105.18" style="stroke:#EAF2F3;stroke-width:8.64"/>
	<line x1="495.00" y1="1991.69" x2="3859.02" y2="1991.69" style="stroke:#EAF2F3;stroke-width:8.64"/>
	<defs>
		<path id="path_jDfRPbKu" d="M717.87 2336.60 L717.87 2336.60 L735.08 2336.60 L735.08 2325.09 L752.28 2325.09 L752.28 2313.58 L769.48 2313.58 L769.48 2302.19 L786.55 2302.19 L786.55 2290.81 L803.76 2290.81 L803.76 2279.42 L820.96 2279.42 L820.96 2268.04 L838.16 2268.04 L838.16 2256.78 L855.36 2256.78 L855.36 2245.51 L872.56 2245.51 L872.56 2234.25 L889.76 2234.25 L889.76 2222.99 L906.96 2222.99 L906.96 2211.85 L924.16 2211.85 L924.16 2200.72 L941.37 2200.72 L941.37 2189.58 L958.57 2189.58 L958.57 2178.56 L975.77 2178.56 L975.77 2167.55 L992.97 2167.55 L992.97 2156.53 L1010.17 2156.53 L1010.17 2145.52 L1027.25 2145.52 L1027.25 2134.51 L1044.45 2134.51 L1044.45 2123.62 L1061.65 2123.62 L1061.65 2112.73 L1078.85 2112.73 L1078.85 2101.84 L1096.05 2101.84 L1096.05 2091.07 L1113.26 2091.07 L1113.26 2080.18 L1130.46 2080.18 L1130.46 2069.41 L1147.66 2069.41 L1147.66 2058.65 L1164.86 2058.65 L1164.86 2048.00 L1182.06 2048.00 L1182.06 2037.24 L1199.26 2037.24 L1199.26 2026.59 L1216.46 2026.59 L1216.46 2015.83 L1233.66 2015.83 L1233.66 2005.18 L1250.87 2005.18 L1250.87 1994.66 L1267.94 1994.66 L1267.94 1984.02 L1285.14 1984.02 L1285.14 1973.50 L1302.35 1973.50 L1302.35 1962.86 L1319.55 1962.86 L1319.55 1952.34 L1336.75 1952.34 L1336.75 1941.82 L1353.95 1941.82 L1353.95 1931.30 L1371.15 1931.30 L1371.15 1920.91 L1388.35 1920.91 L1388.35 1910.39 L1405.55 1910.39 L1405.55 1899.99 L1422.75 1899.99 L1422.75 1889.47 L1439.95 1889.47 L1439.95 1879.08 L1457.16 1879.08 L1457.16 1868.68 L1474.36 1868.68 L1474.36 1858.41 L1491.56 1858.41 L1491.56 1848.02 L1508.64 1848.02 L1508.64 1837.62 L1525.84 1837.62 L1525.84 1827.35 L1543.04 1827.35 L1543.04 1817.08 L1560.24 1817.08 L1560.24 1806.81 L1577.44 1806.81 L1577.44 1796.53 L1594.64 1796.53 L1594.64 1786.26 L1611.84 1786.26 L1611.84 1776.12 L1629.05 1776.12 L1629.05 1765.84 L1646.25 1765.84 L1646.25 1755.70 L1663.45 1755.70 L1663.45 1745.55 L1680.65 1745.55 L1680.65 1735.40 L1697.85 1735.40 L1697.85 1725.25 L1715.05 1725.25 L1715.05 1715.10 L1732.25 1715.10 L1732.25 1705.08 L1749.33 1705.08 L1749.33 1694.93 L1766.53 1694.93 L1766.53 1684.91 L1783.73 1684.91 L1783.73 1674.88 L1800.93 1674.88 L1800.93 1664.86 L1818.13 1664.86 L1818.13 1654.84 L1835.34 1654.84 L1835.34 1644.94 L1852.54 1644.94 L1852.54 1634.91 L1869.74 1634.91 L1869.74 1625.01 L1886.94 1625.01 L1886.94 1614.99 L1904.14 1614.99 L1904.14 1605.09 L1921.34 1605.09 L1921.34 1595.19 L1938.54 1595.19 L1938.54 1585.29 L1955.74 1585.29 L1955.74 1575.39 L1972.95 1575.39 L1972.95 1565.61 L1990.02 1565.61 L1990.02 1555.71 L2007.22 1555.71 L2007.22 1545.81 L2024.43 1545.81 L2024.43 1536.03 L2041.63 1536.03 L2041.63 1526.26 L2058.83 1526.26 L2058.83 1516.48 L2076.03 1516.48 L2076.03 1506.58 L2093.23 1506.58 L2093.23 1496.80 L2110.43 1496.80 L2110.43 1487.03 L2127.63 1487.03 L2127.63 1477.37 L2144.84 1477.37 L2144.84 1467.60 L2162.04 1467.60 L2162.04 1457.82 L2179.24 1457.82 L2179.24 1448.17 L2196.44 1448.17 L2196.44 1438.39 L2213.64 1438.39 L2213.64 1428.74 L2230.72 1428.74 L2230.72 1418.96 L2247.92 1418.96 L2247.92 1409.31 L2265.12 1409.31 L2265.12 1399.66 L2282.32 1399.66 L2282.32 1390.00 L2299.52 1390.00 L2299.52 1380.35 L2316.72 1380.35 L2316.72 1370.70 L2333.93 1370.70 L2333.93 1361.05 L2351.13 1361.05 L2351.13 1351.52 L2368.33 1351.52 L2368.33 1341.86 L2385.53 1341.86 L2385.53 1332.33 L2402.73 1332.33 L2402.73 1322.68 L2419.93 1322.68 L2419.93 1313.15 L2437.13 1313.15 L2437.13 1303.62 L2454.33 1303.62 L2454.33 1294.09 L2471.41 1294.09 L2471.41 1284.44 L2488.61 1284.44 L2488.61 1274.91 L2505.81 1274.91 L2505.81 1265.51 L2523.01 1265.51 L2523.01 1255.98 L2540.22 1255.98 L2540.22 1246.45 L2557.42 1246.45 L2557.42 1236.92 L2574.62 1236.92 L2574.62 1227.51 L2591.82 1227.51 L2591.82 1217.99 L2609.02 1217.99 L2609.02 1208.58 L2626.22 1208.58 L2626.22 1199.17 L2643.42 1199.17 L2643.42 1189.65 L2660.63 1189.65 L2660.63 1180.24 L2677.83 1180.24 L2677.83 1170.84 L2695.03 1170.84 L2695.03 1161.43 L2712.11 1161.43 L2712.11 1152.15 L2729.31 1152.15 L2729.31 1142.74 L2746.51 1142.74 L2746.51 1133.34 L2763.71 1133.34 L2763.71 1123.93 L2780.91 1123.93 L2780.91 1114.65 L2798.11 1114.65 L2798.11 1105.37 L2815.31 1105.37 L2815.31 1095.96 L2832.51 1095.96 L2832.51 1086.68 L2849.72 1086.68 L2849.72 1077.40 L2866.92 1077.40 L2866.92 1068.12 L2884.12 1068.12 L2884.12 1058.84 L2901.32 1058.84 L2901.32 1049.56 L2918.52 1049.56 L2918.52 1040.28 L2935.72 1040.28 L2935.72 1030.99 L2952.80 1030.99 L2952.80 1021.71 L2970.00 1021.71 L2970.00 1012.55 L2987.20 1012.55 L2987.20 1003.27 L3004.40 1003.27 L3004.40 994.11 L3021.60 994.11 L3021.60 984.83 L3038.80 984.83 L3038.80 975.68 L3056.01 975.68 L3056.01 966.52 L3073.21 966.52 L3073.21 957.36 L3090.41 957.36 L3090.41 948.20 L3107.61 948.20 L3107.61 939.04 L3124.81 939.04 L3124.81 929.89 L3142.01 929.89 L3142.01 920.73 L3159.21 920.73 L3159.21 911.57 L3176.29 911.57 L3176.29 902.54 L3193.49 902.54 L3193.49 893.38 L3210.69 893.38 L3210.69 884.22 L3227.89 884.22 L3227.89 875.19 L3245.10 875.19 L3245.10 866.03 L3262.30 866.03 L3262.30 857.00 L3279.50 857.00 L3279.50 847.96 L3296.70 847.96 L3296.70 838.93 L3313.90 838.93 L3313.90 829.77 L3331.10 829.77 L3331.10 820.74 L3348.30 820.74 L3348.30 811.70 L3365.51 811.70 L3365.51 802.67 L3382.71 802.67 L3382.71 793.76 L3399.91 793.76 L3399.91 784.72 L3416.99 784.72 L3416.99 775.69 L3434.19 775.69 L3434.19 766.66 L3451.39 766.66 L3451.39 757.74 L3468.59 757.74 L3468.59 748.71 L3485.79 748.71 L3485.79 739.80 L3502.99 739.80 L3502.99 730.77 L3520.19 730.77 L3520.19 721.86 L3537.39 721.86 L3537.39 712.82 L3554.59 712.82 L3554.59 703.91 L3571.80 703.91 L3571.80 695.00 L3589.00 695.00 L3589.00 686.09 L3606.20 686.09 L3606.20 677.18 L3623.40 677.18 L3623.40 668.27 L3640.60 668.27 L3640.60 659.36 L3657.68 659.36 L3657.68 650.45 L3674.88 650.45 L3674.88 641.54 L3692.08 641.54 L3692.08 632.63 L3709.28 632.63 L3709.28 623.84 L3726.48 623.84 L3726.48 614.93 L3743.68 614.93 L3743.68 606.02 L3760.89 606.02 L3760.89 597.24 L3778.09 597.24 L3778.09 588.33 L3795.29 588.33 L3795.29 579.54 L3795.29 483.26 L3795.29 492.79 L3778.09 492.79 L3778.09 502.44 L3760.89 502.44 L3760.89 511.97 L3743.68 511.97 L3743.68 521.50 L3726.48 521.50 L3726.48 531.15 L3709.28 531.15 L3709.28 540.68 L3692.08 540.68 L3692.08 550.33 L3674.88 550.33 L3674.88 559.86 L3657.68 559.86 L3657.68 569.52 L3640.60 569.52 L3640.60 579.17 L3623.40 579.17 L3623.40 588.70 L3606.20 588.70 L3606.20 598.35 L3589.00 598.35 L3589.00 608.00 L3571.80 608.00 L3571.80 617.66 L3554.59 617.66 L3554.59 627.31 L3537.39 627.31 L3537.39 636.96 L3520.19 636.96 L3520.19 646.61 L3502.99 646.61 L3502.99 656.27 L3485.79 656.27 L3485.79 665.92 L3468.59 665.92 L3468.59 675.57 L3451.39 675.57 L3451.39 685.23 L3434.19 685.23 L3434.19 694.88 L3416.99 694.88 L3416.99 704.65 L3399.91 704.65 L3399.91 714.31 L3382.71 714.31 L3382.71 724.08 L3365.51 724.08 L3365.51 733.74 L3348.30 733.74 L3348.30 743.51 L3331.10 743.51 L3331.10 753.17 L3313.90 753.17 L3313.90 762.94 L3296.70 762.94 L3296.70 772.60 L3279.50 772.60 L3279.50 782.37 L3262.30 782.37 L3262.30 792.15 L3245.10 792.15 L3245.10 801.93 L3227.89 801.93 L3227.89 811.70 L3210.69 811.70 L3210.69 821.48 L3193.49 821.48 L3193.49 831.25 L3176.29 831.25 L3176.29 841.03 L3159.21 841.03 L3159.21 850.81 L3142.01 850.81 L3142.01 860.58 L3124.81 860.58 L3124.81 870.36 L3107.61 870.36 L3107.61 880.14 L3090.41 880.14 L3090.41 890.04 L3073.21 890.04 L3073.21 899.81 L3056.01 899.81 L3056.01 909.71 L3038.80 909.71 L3038.80 919.49 L3021.60 919.49 L3021.60 929.39 L3004.40 929.39 L3004.40 939.29 L2987.20 939.29 L2987.20 949.07 L2970.00 949.07 L2970.00 958.97 L2952.80 958.97 L2952.80 968.87 L2935.72 968.87 L2935.72 978.77 L2918.52 978.77 L2918.52 988.67 L2901.32 988.67 L2901.32 998.57 L2884.12 998.57 L2884.12 1008.47 L2866.92 1008.47 L2866.92 1018.37 L2849.72 1018.37 L2849.72 1028.27 L2832.51 1028.27 L2832.51 1038.29 L2815.31 1038.29 L2815.31 1048.20 L2798.11 1048.20 L2798.11 1058.22 L2780.91 1058.22 L2780.91 1068.12 L2763.71 1068.12 L2763.71 1078.14 L2746.51 1078.14 L2746.51 1088.04 L2729.31 1088.04 L2729.31 1098.07 L2712.11 1098.07 L2712.11 1108.09 L2695.03 1108.09 L2695.03 1118.12 L2677.83 1118.12 L2677.83 1128.14 L2660.63 1128.14 L2660.63 1138.16 L2643.42 1138.16 L2643.42 1148.19 L2626.22 1148.19 L2626.22 1158.21 L2609.02 1158.21 L2609.02 1168.24 L2591.82 1168.24 L2591.82 1178.38 L2574.62 1178.38 L2574.62 1188.41 L2557.42 1188.41 L2557.42 1198.43 L2540.22 1198.43 L2540.22 1208.58 L2523.01 1208.58 L2523.01 1218.60 L2505.81 1218.60 L2505.81 1228.75 L2488.61 1228.75 L2488.61 1238.90 L2471.41 1238.90 L2471.41 1249.05 L2454.33 1249.05 L2454.33 1259.07 L2437.13 1259.07 L2437.13 1269.22 L2419.93 1269.22 L2419.93 1279.37 L2402.73 1279.37 L2402.73 1289.52 L2385.53 1289.52 L2385.53 1299.79 L2368.33 1299.79 L2368.33 1309.93 L2351.13 1309.93 L2351.13 1320.08 L2333.93 1320.08 L2333.93 1330.23 L2316.72 1330.23 L2316.72 1340.50 L2299.52 1340.50 L2299.52 1350.65 L2282.32 1350.65 L2282.32 1360.92 L2265.12 1360.92 L2265.12 1371.19 L2247.92 1371.19 L2247.92 1381.34 L2230.72 1381.34 L2230.72 1391.61 L2213.64 1391.61 L2213.64 1401.88 L2196.44 1401.88 L2196.44 1412.16 L2179.24 1412.16 L2179.24 1422.43 L2162.04 1422.43 L2162.04 1432.70 L2144.84 1432.70 L2144.84 1442.97 L2127.63 1442.97 L2127.63 1453.24 L2110.43 1453.24 L2110.43 1463.64 L2093.23 1463.64 L2093.23 1473.91 L2076.03 1473.91 L2076.03 1484.18 L2058.83 1484.18 L2058.83 1494.58 L2041.63 1494.58 L2041.63 1504.97 L2024.43 1504.97 L2024.43 1515.24 L2007.22 1515.24 L2007.22 1525.64 L1990.02 1525.64 L1990.02 1536.03 L1972.95 1536.03 L1972.95 1546.43 L1955.74 1546.43 L1955.74 1556.82 L1938.54 1556.82 L1938.54 1567.22 L1921.34 1567.22 L1921.34 1577.61 L1904.14 1577.61 L1904.14 1588.01 L1886.94 1588.01 L1886.94 1598.53 L1869.74 1598.53 L1869.74 1608.92 L1852.54 1608.92 L1852.54 1619.44 L1835.34 1619.44 L1835.34 1629.96 L1818.13 1629.96 L1818.13 1640.36 L1800.93 1640.36 L1800.93 1650.88 L1783.73 1650.88 L1783.73 1661.52 L1766.53 1661.52 L1766.53 1672.04 L1749.33 1672.04 L1749.33 1682.56 L1732.25 1682.56 L1732.25 1693.08 L1715.05 1693.08 L1715.05 1703.72 L1697.85 1703.72 L1697.85 1714.36 L1680.65 1714.36 L1680.65 1724.88 L1663.45 1724.88 L1663.45 1735.52 L1646.25 1735.52 L1646.25 1746.17 L1629.05 1746.17 L1629.05 1756.81 L1611.84 1756.81 L1611.84 1767.58 L1594.64 1767.58 L1594.64 1778.22 L1577.44 1778.22 L1577.44 1788.99 L1560.24 1788.99 L1560.24 1799.63 L1543.04 1799.63 L1543.04 1810.40 L1525.84 1810.40 L1525.84 1821.16 L1508.64 1821.16 L1508.64 1831.93 L1491.56 1831.93 L1491.56 1842.70 L1474.36 1842.70 L1474.36 1853.46 L1457.16 1853.46 L1457.16 1864.35 L1439.95 1864.35 L1439.95 1875.12 L1422.75 1875.12 L1422.75 1886.01 L1405.55 1886.01 L1405.55 1896.78 L1388.35 1896.78 L1388.35 1907.67 L1371.15 1907.67 L1371.15 1918.56 L1353.95 1918.56 L1353.95 1929.45 L1336.75 1929.45 L1336.75 1940.46 L1319.55 1940.46 L1319.55 1951.35 L1302.35 1951.35 L1302.35 1962.24 L1285.14 1962.24 L1285.14 1973.26 L1267.94 1973.26 L1267.94 1984.27 L1250.87 1984.27 L1250.87 1995.28 L1233.66 1995.28 L1233.66 2006.30 L1216.46 2006.30 L1216.46 2017.31 L1199.26 2017.31 L1199.26 2028.33 L1182.06 2028.33 L1182.06 2039.46 L1164.86 2039.46 L1164.86 2050.48 L1147.66 2050.48 L1147.66 2061.62 L1130.46 2061.62 L1130.46 2072.75 L1113.26 2072.75 L1113.26 2083.89 L1096.05 2083.89 L1096.05 2095.03 L1078.85 2095.03 L1078.85 2106.29 L1061.65 2106.29 L1061.65 2117.43 L1044.45 2117.43 L1044.45 2128.69 L1027.25 2128.69 L1027.25 2139.95 L1010.17 2139.95 L1010.17 2151.34 L992.97 2151.34 L992.97 2162.60 L975.77 2162.60 L975.77 2173.98 L958.57 2173.98 L958.57 2185.25 L941.37 2185.25 L941.37 2196.63 L924.16 2196.63 L924.16 2208.14 L906.96 2208.14 L906.96 2219.53 L889.76 2219.53 L889.76 2231.03 L872.56 2231.03 L872.56 2242.42 L855.36 2242.42 L855.36 2253.93 L838.16 2253.93 L838.16 2265.56 L820.96 2265.56 L820.96 2277.07 L803.76 2277.07 L803.76 2288.70 L786.55 2288.70 L786.55 2300.34 L769.48 2300.34 L769.48 2311.97 L752.28 2311.97 L752.28 2323.73 L735.08 2323.73 L735.08 2335.36 L717.87 2335.36 L717.87 2336.60 Z" stroke-linejoin="round"/>
	</defs>
	<defs>
		<clipPath id="clipPath_bPQjpIaU">
			<use xlink:href="#path_jDfRPbKu"/>
		</clipPath>
	</defs>
	<use xlink:href="#path_jDfRPbKu" style="stroke:none;fill:#999999;fill-opacity:0.35"/>
	<use xlink:href="#path_jDfRPbKu" style="fill:none;stroke:#808080;stroke-opacity:0.35;stroke-width:17.28" clip-path="url(#clipPath_bPQjpIaU)"/>
	<defs>
		<path id="path_CEAEwFfe" d="M717.87 2339.44 L717.87 2339.44 L735.08 2339.44 L735.08 2328.31 L752.28 2328.31 L752.28 2317.29 L769.48 2317.29 L769.48 2306.40 L786.55 2306.40 L786.55 2295.51 L803.76 2295.51 L803.76 2284.62 L820.96 2284.62 L820.96 2273.85 L838.16 2273.85 L838.16 2263.21 L855.36 2263.21 L855.36 2252.57 L872.56 2252.57 L872.56 2241.93 L889.76 2241.93 L889.76 2231.41 L906.96 2231.41 L906.96 2220.89 L924.16 2220.89 L924.16 2210.49 L941.37 2210.49 L941.37 2200.10 L958.57 2200.10 L958.57 2189.70 L975.77 2189.70 L975.77 2179.43 L992.97 2179.43 L992.97 2169.16 L1010.17 2169.16 L1010.17 2159.01 L1027.25 2159.01 L1027.25 2148.86 L1044.45 2148.86 L1044.45 2138.71 L1061.65 2138.71 L1061.65 2128.69 L1078.85 2128.69 L1078.85 2118.67 L1096.05 2118.67 L1096.05 2108.64 L1113.26 2108.64 L1113.26 2098.74 L1130.46 2098.74 L1130.46 2088.84 L1147.66 2088.84 L1147.66 2078.94 L1164.86 2078.94 L1164.86 2069.16 L1182.06 2069.16 L1182.06 2059.39 L1199.26 2059.39 L1199.26 2049.61 L1216.46 2049.61 L1216.46 2039.96 L1233.66 2039.96 L1233.66 2030.18 L1250.87 2030.18 L1250.87 2020.53 L1267.94 2020.53 L1267.94 2010.88 L1285.14 2010.88 L1285.14 2001.35 L1302.35 2001.35 L1302.35 1991.82 L1319.55 1991.82 L1319.55 1982.29 L1336.75 1982.29 L1336.75 1972.76 L1353.95 1972.76 L1353.95 1963.23 L1371.15 1963.23 L1371.15 1953.83 L1388.35 1953.83 L1388.35 1944.42 L1405.55 1944.42 L1405.55 1935.02 L1422.75 1935.02 L1422.75 1925.61 L1439.95 1925.61 L1439.95 1916.33 L1457.16 1916.33 L1457.16 1906.92 L1474.36 1906.92 L1474.36 1897.64 L1491.56 1897.64 L1491.56 1888.48 L1508.64 1888.48 L1508.64 1879.20 L1525.84 1879.20 L1525.84 1870.04 L1543.04 1870.04 L1543.04 1860.89 L1560.24 1860.89 L1560.24 1851.73 L1577.44 1851.73 L1577.44 1842.57 L1594.64 1842.57 L1594.64 1833.41 L1611.84 1833.41 L1611.84 1824.38 L1629.05 1824.38 L1629.05 1815.35 L1646.25 1815.35 L1646.25 1806.31 L1663.45 1806.31 L1663.45 1797.40 L1680.65 1797.40 L1680.65 1788.37 L1697.85 1788.37 L1697.85 1779.46 L1715.05 1779.46 L1715.05 1770.55 L1732.25 1770.55 L1732.25 1761.76 L1749.33 1761.76 L1749.33 1752.85 L1766.53 1752.85 L1766.53 1744.06 L1783.73 1744.06 L1783.73 1735.15 L1800.93 1735.15 L1800.93 1726.49 L1818.13 1726.49 L1818.13 1717.70 L1835.34 1717.70 L1835.34 1708.92 L1852.54 1708.92 L1852.54 1700.25 L1869.74 1700.25 L1869.74 1691.59 L1886.94 1691.59 L1886.94 1682.81 L1904.14 1682.81 L1904.14 1674.27 L1921.34 1674.27 L1921.34 1665.60 L1938.54 1665.60 L1938.54 1656.94 L1955.74 1656.94 L1955.74 1648.40 L1972.95 1648.40 L1972.95 1639.86 L1990.02 1639.86 L1990.02 1631.32 L2007.22 1631.32 L2007.22 1622.78 L2024.43 1622.78 L2024.43 1614.25 L2041.63 1614.25 L2041.63 1605.71 L2058.83 1605.71 L2058.83 1597.29 L2076.03 1597.29 L2076.03 1588.75 L2093.23 1588.75 L2093.23 1580.34 L2110.43 1580.34 L2110.43 1571.92 L2127.63 1571.92 L2127.63 1563.51 L2144.84 1563.51 L2144.84 1555.09 L2162.04 1555.09 L2162.04 1546.68 L2179.24 1546.68 L2179.24 1538.26 L2196.44 1538.26 L2196.44 1529.97 L2213.64 1529.97 L2213.64 1521.68 L2230.72 1521.68 L2230.72 1513.26 L2247.92 1513.26 L2247.92 1504.97 L2265.12 1504.97 L2265.12 1496.68 L2282.32 1496.68 L2282.32 1488.39 L2299.52 1488.39 L2299.52 1480.10 L2316.72 1480.10 L2316.72 1471.93 L2333.93 1471.93 L2333.93 1463.64 L2351.13 1463.64 L2351.13 1455.47 L2368.33 1455.47 L2368.33 1447.18 L2385.53 1447.18 L2385.53 1439.01 L2402.73 1439.01 L2402.73 1430.84 L2419.93 1430.84 L2419.93 1422.67 L2437.13 1422.67 L2437.13 1414.51 L2454.33 1414.51 L2454.33 1406.34 L2471.41 1406.34 L2471.41 1398.29 L2488.61 1398.29 L2488.61 1390.13 L2505.81 1390.13 L2505.81 1382.08 L2523.01 1382.08 L2523.01 1374.04 L2540.22 1374.04 L2540.22 1366.00 L2557.42 1366.00 L2557.42 1357.95 L2574.62 1357.95 L2574.62 1349.91 L2591.82 1349.91 L2591.82 1341.86 L2609.02 1341.86 L2609.02 1333.94 L2626.22 1333.94 L2626.22 1325.90 L2643.42 1325.90 L2643.42 1317.98 L2660.63 1317.98 L2660.63 1309.93 L2677.83 1309.93 L2677.83 1302.01 L2695.03 1302.01 L2695.03 1294.09 L2712.11 1294.09 L2712.11 1286.17 L2729.31 1286.17 L2729.31 1278.38 L2746.51 1278.38 L2746.51 1270.46 L2763.71 1270.46 L2763.71 1262.54 L2780.91 1262.54 L2780.91 1254.74 L2798.11 1254.74 L2798.11 1246.94 L2815.31 1246.94 L2815.31 1239.15 L2832.51 1239.15 L2832.51 1231.35 L2849.72 1231.35 L2849.72 1223.55 L2866.92 1223.55 L2866.92 1215.76 L2884.12 1215.76 L2884.12 1207.96 L2901.32 1207.96 L2901.32 1200.17 L2918.52 1200.17 L2918.52 1192.49 L2935.72 1192.49 L2935.72 1184.82 L2952.80 1184.82 L2952.80 1177.02 L2970.00 1177.02 L2970.00 1169.35 L2987.20 1169.35 L2987.20 1161.68 L3004.40 1161.68 L3004.40 1154.00 L3021.60 1154.00 L3021.60 1146.46 L3038.80 1146.46 L3038.80 1138.78 L3056.01 1138.78 L3056.01 1131.11 L3073.21 1131.11 L3073.21 1123.56 L3090.41 1123.56 L3090.41 1115.89 L3107.61 1115.89 L3107.61 1108.34 L3124.81 1108.34 L3124.81 1100.79 L3142.01 1100.79 L3142.01 1093.24 L3159.21 1093.24 L3159.21 1085.69 L3176.29 1085.69 L3176.29 1078.14 L3193.49 1078.14 L3193.49 1070.59 L3210.69 1070.59 L3210.69 1063.17 L3227.89 1063.17 L3227.89 1055.62 L3245.10 1055.62 L3245.10 1048.20 L3262.30 1048.20 L3262.30 1040.65 L3279.50 1040.65 L3279.50 1033.22 L3296.70 1033.22 L3296.70 1025.80 L3313.90 1025.80 L3313.90 1018.37 L3331.10 1018.37 L3331.10 1010.95 L3348.30 1010.95 L3348.30 1003.52 L3365.51 1003.52 L3365.51 996.09 L3382.71 996.09 L3382.71 988.67 L3399.91 988.67 L3399.91 981.37 L3416.99 981.37 L3416.99 973.94 L3434.19 973.94 L3434.19 966.64 L3451.39 966.64 L3451.39 959.22 L3468.59 959.22 L3468.59 951.91 L3485.79 951.91 L3485.79 944.61 L3502.99 944.61 L3502.99 937.31 L3520.19 937.31 L3520.19 930.01 L3537.39 930.01 L3537.39 922.71 L3554.59 922.71 L3554.59 915.41 L3571.80 915.41 L3571.80 908.11 L3589.00 908.11 L3589.00 900.80 L3606.20 900.80 L3606.20 893.63 L3623.40 893.63 L3623.40 886.33 L3640.60 886.33 L3640.60 879.15 L3657.68 879.15 L3657.68 871.85 L3674.88 871.85 L3674.88 864.67 L3692.08 864.67 L3692.08 857.49 L3709.28 857.49 L3709.28 850.19 L3726.48 850.19 L3726.48 843.01 L3743.68 843.01 L3743.68 835.83 L3760.89 835.83 L3760.89 828.66 L3778.09 828.66 L3778.09 821.48 L3795.29 821.48 L3795.29 814.42 L3795.29 682.13 L3795.29 690.30 L3778.09 690.30 L3778.09 698.34 L3760.89 698.34 L3760.89 706.51 L3743.68 706.51 L3743.68 714.55 L3726.48 714.55 L3726.48 722.72 L3709.28 722.72 L3709.28 730.77 L3692.08 730.77 L3692.08 738.93 L3674.88 738.93 L3674.88 747.10 L3657.68 747.10 L3657.68 755.27 L3640.60 755.27 L3640.60 763.44 L3623.40 763.44 L3623.40 771.61 L3606.20 771.61 L3606.20 779.77 L3589.00 779.77 L3589.00 787.94 L3571.80 787.94 L3571.80 796.11 L3554.59 796.11 L3554.59 804.40 L3537.39 804.40 L3537.39 812.57 L3520.19 812.57 L3520.19 820.74 L3502.99 820.74 L3502.99 829.03 L3485.79 829.03 L3485.79 837.19 L3468.59 837.19 L3468.59 845.49 L3451.39 845.49 L3451.39 853.65 L3434.19 853.65 L3434.19 861.95 L3416.99 861.95 L3416.99 870.24 L3399.91 870.24 L3399.91 878.53 L3382.71 878.53 L3382.71 886.82 L3365.51 886.82 L3365.51 895.11 L3348.30 895.11 L3348.30 903.40 L3331.10 903.40 L3331.10 911.69 L3313.90 911.69 L3313.90 920.11 L3296.70 920.11 L3296.70 928.40 L3279.50 928.40 L3279.50 936.69 L3262.30 936.69 L3262.30 945.11 L3245.10 945.11 L3245.10 953.52 L3227.89 953.52 L3227.89 961.82 L3210.69 961.82 L3210.69 970.23 L3193.49 970.23 L3193.49 978.65 L3176.29 978.65 L3176.29 987.06 L3159.21 987.06 L3159.21 995.48 L3142.01 995.48 L3142.01 1003.89 L3124.81 1003.89 L3124.81 1012.31 L3107.61 1012.31 L3107.61 1020.85 L3090.41 1020.85 L3090.41 1029.26 L3073.21 1029.26 L3073.21 1037.80 L3056.01 1037.80 L3056.01 1046.22 L3038.80 1046.22 L3038.80 1054.75 L3021.60 1054.75 L3021.60 1063.29 L3004.40 1063.29 L3004.40 1071.83 L2987.20 1071.83 L2987.20 1080.37 L2970.00 1080.37 L2970.00 1088.91 L2952.80 1088.91 L2952.80 1097.45 L2935.72 1097.45 L2935.72 1105.99 L2918.52 1105.99 L2918.52 1114.53 L2901.32 1114.53 L2901.32 1123.19 L2884.12 1123.19 L2884.12 1131.73 L2866.92 1131.73 L2866.92 1140.39 L2849.72 1140.39 L2849.72 1149.05 L2832.51 1149.05 L2832.51 1157.72 L2815.31 1157.72 L2815.31 1166.38 L2798.11 1166.38 L2798.11 1175.04 L2780.91 1175.04 L2780.91 1183.71 L2763.71 1183.71 L2763.71 1192.37 L2746.51 1192.37 L2746.51 1201.16 L2729.31 1201.16 L2729.31 1209.82 L2712.11 1209.82 L2712.11 1218.60 L2695.03 1218.60 L2695.03 1227.27 L2677.83 1227.27 L2677.83 1236.05 L2660.63 1236.05 L2660.63 1244.84 L2643.42 1244.84 L2643.42 1253.63 L2626.22 1253.63 L2626.22 1262.41 L2609.02 1262.41 L2609.02 1271.32 L2591.82 1271.32 L2591.82 1280.11 L2574.62 1280.11 L2574.62 1288.90 L2557.42 1288.90 L2557.42 1297.81 L2540.22 1297.81 L2540.22 1306.59 L2523.01 1306.59 L2523.01 1315.50 L2505.81 1315.50 L2505.81 1324.41 L2488.61 1324.41 L2488.61 1333.32 L2471.41 1333.32 L2471.41 1342.23 L2454.33 1342.23 L2454.33 1351.14 L2437.13 1351.14 L2437.13 1360.06 L2419.93 1360.06 L2419.93 1369.09 L2402.73 1369.09 L2402.73 1378.00 L2385.53 1378.00 L2385.53 1387.03 L2368.33 1387.03 L2368.33 1396.07 L2351.13 1396.07 L2351.13 1404.98 L2333.93 1404.98 L2333.93 1414.01 L2316.72 1414.01 L2316.72 1423.05 L2299.52 1423.05 L2299.52 1432.20 L2282.32 1432.20 L2282.32 1441.24 L2265.12 1441.24 L2265.12 1450.27 L2247.92 1450.27 L2247.92 1459.31 L2230.72 1459.31 L2230.72 1468.46 L2213.64 1468.46 L2213.64 1477.62 L2196.44 1477.62 L2196.44 1486.66 L2179.24 1486.66 L2179.24 1495.81 L2162.04 1495.81 L2162.04 1504.97 L2144.84 1504.97 L2144.84 1514.13 L2127.63 1514.13 L2127.63 1523.29 L2110.43 1523.29 L2110.43 1532.57 L2093.23 1532.57 L2093.23 1541.73 L2076.03 1541.73 L2076.03 1550.88 L2058.83 1550.88 L2058.83 1560.17 L2041.63 1560.17 L2041.63 1569.45 L2024.43 1569.45 L2024.43 1578.73 L2007.22 1578.73 L2007.22 1587.89 L1990.02 1587.89 L1990.02 1597.29 L1972.95 1597.29 L1972.95 1606.57 L1955.74 1606.57 L1955.74 1615.85 L1938.54 1615.85 L1938.54 1625.26 L1921.34 1625.26 L1921.34 1634.54 L1904.14 1634.54 L1904.14 1643.95 L1886.94 1643.95 L1886.94 1653.35 L1869.74 1653.35 L1869.74 1662.76 L1852.54 1662.76 L1852.54 1672.16 L1835.34 1672.16 L1835.34 1681.57 L1818.13 1681.57 L1818.13 1691.10 L1800.93 1691.10 L1800.93 1700.50 L1783.73 1700.50 L1783.73 1710.03 L1766.53 1710.03 L1766.53 1719.56 L1749.33 1719.56 L1749.33 1729.09 L1732.25 1729.09 L1732.25 1738.62 L1715.05 1738.62 L1715.05 1748.27 L1697.85 1748.27 L1697.85 1757.80 L1680.65 1757.80 L1680.65 1767.45 L1663.45 1767.45 L1663.45 1777.11 L1646.25 1777.11 L1646.25 1786.76 L1629.05 1786.76 L1629.05 1796.53 L1611.84 1796.53 L1611.84 1806.19 L1594.64 1806.19 L1594.64 1815.96 L1577.44 1815.96 L1577.44 1825.74 L1560.24 1825.74 L1560.24 1835.52 L1543.04 1835.52 L1543.04 1845.29 L1525.84 1845.29 L1525.84 1855.07 L1508.64 1855.07 L1508.64 1864.97 L1491.56 1864.97 L1491.56 1874.87 L1474.36 1874.87 L1474.36 1884.77 L1457.16 1884.77 L1457.16 1894.67 L1439.95 1894.67 L1439.95 1904.57 L1422.75 1904.57 L1422.75 1914.60 L1405.55 1914.60 L1405.55 1924.62 L1388.35 1924.62 L1388.35 1934.52 L1371.15 1934.52 L1371.15 1944.67 L1353.95 1944.67 L1353.95 1954.69 L1336.75 1954.69 L1336.75 1964.72 L1319.55 1964.72 L1319.55 1974.86 L1302.35 1974.86 L1302.35 1985.01 L1285.14 1985.01 L1285.14 1995.16 L1267.94 1995.16 L1267.94 2005.31 L1250.87 2005.31 L1250.87 2015.58 L1233.66 2015.58 L1233.66 2025.73 L1216.46 2025.73 L1216.46 2036.00 L1199.26 2036.00 L1199.26 2046.27 L1182.06 2046.27 L1182.06 2056.67 L1164.86 2056.67 L1164.86 2066.94 L1147.66 2066.94 L1147.66 2077.33 L1130.46 2077.33 L1130.46 2087.73 L1113.26 2087.73 L1113.26 2098.12 L1096.05 2098.12 L1096.05 2108.64 L1078.85 2108.64 L1078.85 2119.16 L1061.65 2119.16 L1061.65 2129.68 L1044.45 2129.68 L1044.45 2140.20 L1027.25 2140.20 L1027.25 2150.84 L1010.17 2150.84 L1010.17 2161.49 L992.97 2161.49 L992.97 2172.13 L975.77 2172.13 L975.77 2182.89 L958.57 2182.89 L958.57 2193.66 L941.37 2193.66 L941.37 2204.43 L924.16 2204.43 L924.16 2215.32 L906.96 2215.32 L906.96 2226.21 L889.76 2226.21 L889.76 2237.10 L872.56 2237.10 L872.56 2248.11 L855.36 2248.11 L855.36 2259.13 L838.16 2259.13 L838.16 2270.14 L820.96 2270.14 L820.96 2281.28 L803.76 2281.28 L803.76 2292.42 L786.55 2292.42 L786.55 2303.55 L769.48 2303.55 L769.48 2314.82 L752.28 2314.82 L752.28 2326.20 L735.08 2326.20 L735.08 2337.46 L717.87 2337.46 L717.87 2339.44 Z" stroke-linejoin="round"/>
	</defs>
	<defs>
		<clipPath id="clipPath_BIieRUxG">
			<use xlink:href="#path_CEAEwFfe"/>
		</clipPath>
	</defs>
	<use xlink:href="#path_CEAEwFfe" style="stroke:none;fill:#333333;fill-opacity:0.35"/>
	<use xlink:href="#path_CEAEwFfe" style="fill:none;stroke:#000000;stroke-opacity:0.35;stroke-width:17.28" clip-path="url(#clipPath_BIieRUxG)"/>
	<line x1="717.75" y1="2336.10" x2="734.95" y2="2336.10" style="stroke:#808080;stroke-width:8.64"/>
	<line x1="734.95" y1="2336.10" x2="734.95" y2="2324.47" style="stroke:#808080;stroke-width:8.64"/>
	<line x1="734.95" y1="2324.47" x2="746.46" y2="2324.47" style="stroke:#808080;stroke-width:8.64"/>
	<line x1="752.15" y1="2312.96" x2="752.15" y2="2312.84" style="stroke:#808080;stroke-width:8.64"/>
	<line x1="752.15" y1="2312.84" x2="769.35" y2="2312.84" style="stroke:#808080;stroke-width:8.64"/>
	<line x1="769.35" y1="2312.84" x2="769.35" y2="2301.33" style="stroke:#808080;stroke-width:8.64"/>
	<line x1="769.35" y1="2301.33" x2="780.86" y2="2301.33" style="stroke:#808080;stroke-width:8.64"/>
	<line x1="786.55" y1="2289.82" x2="786.55" y2="2289.82" style="stroke:#808080;stroke-width:8.64"/>
	<line x1="786.55" y1="2289.82" x2="803.76" y2="2289.82" style="stroke:#808080;stroke-width:8.64"/>
	<line x1="803.76" y1="2289.82" x2="803.76" y2="2278.31" style="stroke:#808080;stroke-width:8.64"/>
	<line x1="803.76" y1="2278.31" x2="815.39" y2="2278.31" style="stroke:#808080;stroke-width:8.64"/>
	<line x1="821.21" y1="2266.92" x2="838.16" y2="2266.92" style="stroke:#808080;stroke-width:8.64"/>
	<line x1="838.16" y1="2266.92" x2="838.16" y2="2255.41" style="stroke:#808080;stroke-width:8.64"/>
	<line x1="838.16" y1="2255.41" x2="850.04" y2="2255.41" style="stroke:#808080;stroke-width:8.64"/>
	<line x1="855.86" y1="2244.03" x2="872.56" y2="2244.03" style="stroke:#808080;stroke-width:8.64"/>
	<line x1="872.56" y1="2244.03" x2="872.56" y2="2232.64" style="stroke:#808080;stroke-width:8.64"/>
	<line x1="872.56" y1="2232.64" x2="884.94" y2="2232.64" style="stroke:#808080;stroke-width:8.64"/>
	<line x1="890.88" y1="2221.38" x2="906.84" y2="2221.38" style="stroke:#808080;stroke-width:8.64"/>
	<line x1="906.84" y1="2221.38" x2="906.84" y2="2210.00" style="stroke:#808080;stroke-width:8.64"/>
	<line x1="906.84" y1="2210.00" x2="919.83" y2="2210.00" style="stroke:#808080;stroke-width:8.64"/>
	<line x1="925.77" y1="2198.73" x2="941.24" y2="2198.73" style="stroke:#808080;stroke-width:8.64"/>
	<line x1="941.24" y1="2198.73" x2="941.24" y2="2187.47" style="stroke:#808080;stroke-width:8.64"/>
	<line x1="941.24" y1="2187.47" x2="954.86" y2="2187.47" style="stroke:#808080;stroke-width:8.64"/>
	<line x1="960.92" y1="2176.34" x2="975.64" y2="2176.34" style="stroke:#808080;stroke-width:8.64"/>
	<line x1="975.64" y1="2176.34" x2="975.64" y2="2165.07" style="stroke:#808080;stroke-width:8.64"/>
	<line x1="975.64" y1="2165.07" x2="990.00" y2="2165.07" style="stroke:#808080;stroke-width:8.64"/>
	<line x1="996.19" y1="2153.94" x2="1010.05" y2="2153.94" style="stroke:#808080;stroke-width:8.64"/>
	<line x1="1010.05" y1="2153.94" x2="1010.05" y2="2142.80" style="stroke:#808080;stroke-width:8.64"/>
	<line x1="1010.05" y1="2142.80" x2="1025.39" y2="2142.80" style="stroke:#808080;stroke-width:8.64"/>
	<line x1="1031.58" y1="2131.78" x2="1044.45" y2="2131.78" style="stroke:#808080;stroke-width:8.64"/>
	<line x1="1044.45" y1="2131.78" x2="1044.45" y2="2120.65" style="stroke:#808080;stroke-width:8.64"/>
	<line x1="1044.45" y1="2120.65" x2="1060.79" y2="2120.65" style="stroke:#808080;stroke-width:8.64"/>
	<line x1="1066.97" y1="2109.63" x2="1078.85" y2="2109.63" style="stroke:#808080;stroke-width:8.64"/>
	<line x1="1078.85" y1="2109.63" x2="1078.85" y2="2098.62" style="stroke:#808080;stroke-width:8.64"/>
	<line x1="1078.85" y1="2098.62" x2="1096.05" y2="2098.62" style="stroke:#808080;stroke-width:8.64"/>
	<line x1="1096.05" y1="2098.62" x2="1096.05" y2="2098.37" style="stroke:#808080;stroke-width:8.64"/>
	<line x1="1102.49" y1="2087.60" x2="1113.26" y2="2087.60" style="stroke:#808080;stroke-width:8.64"/>
	<line x1="1113.26" y1="2087.60" x2="1113.26" y2="2076.59" style="stroke:#808080;stroke-width:8.64"/>
	<line x1="1113.26" y1="2076.59" x2="1130.46" y2="2076.59" style="stroke:#808080;stroke-width:8.64"/>
	<line x1="1130.46" y1="2076.59" x2="1130.46" y2="2075.23" style="stroke:#808080;stroke-width:8.64"/>
	<line x1="1138.01" y1="2065.58" x2="1147.53" y2="2065.58" style="stroke:#808080;stroke-width:8.64"/>
	<line x1="1147.53" y1="2065.58" x2="1147.53" y2="2054.69" style="stroke:#808080;stroke-width:8.64"/>
	<line x1="1147.53" y1="2054.69" x2="1164.73" y2="2054.69" style="stroke:#808080;stroke-width:8.64"/>
	<line x1="1164.73" y1="2054.69" x2="1164.73" y2="2051.96" style="stroke:#808080;stroke-width:8.64"/>
	<line x1="1173.89" y1="2043.80" x2="1181.94" y2="2043.80" style="stroke:#808080;stroke-width:8.64"/>
	<line x1="1181.94" y1="2043.80" x2="1181.94" y2="2032.90" style="stroke:#808080;stroke-width:8.64"/>
	<line x1="1181.94" y1="2032.90" x2="1199.14" y2="2032.90" style="stroke:#808080;stroke-width:8.64"/>
	<line x1="1199.14" y1="2032.90" x2="1199.14" y2="2028.70" style="stroke:#808080;stroke-width:8.64"/>
	<line x1="1209.66" y1="2022.01" x2="1216.34" y2="2022.01" style="stroke:#808080;stroke-width:8.64"/>
	<line x1="1216.34" y1="2022.01" x2="1216.34" y2="2011.12" style="stroke:#808080;stroke-width:8.64"/>
	<line x1="1216.34" y1="2011.12" x2="1233.54" y2="2011.12" style="stroke:#808080;stroke-width:8.64"/>
	<line x1="1233.54" y1="2011.12" x2="1233.54" y2="2005.56" style="stroke:#808080;stroke-width:8.64"/>
	<line x1="1245.54" y1="2000.36" x2="1250.74" y2="2000.36" style="stroke:#808080;stroke-width:8.64"/>
	<line x1="1250.74" y1="2000.36" x2="1250.74" y2="1989.47" style="stroke:#808080;stroke-width:8.64"/>
	<line x1="1250.74" y1="1989.47" x2="1267.94" y2="1989.47" style="stroke:#808080;stroke-width:8.64"/>
	<line x1="1267.94" y1="1989.47" x2="1267.94" y2="1982.41" style="stroke:#808080;stroke-width:8.64"/>
	<line x1="1281.43" y1="1978.70" x2="1285.14" y2="1978.70" style="stroke:#808080;stroke-width:8.64"/>
	<line x1="1285.14" y1="1978.70" x2="1285.14" y2="1967.93" style="stroke:#808080;stroke-width:8.64"/>
	<line x1="1285.14" y1="1967.93" x2="1302.35" y2="1967.93" style="stroke:#808080;stroke-width:8.64"/>
	<line x1="1302.35" y1="1967.93" x2="1302.35" y2="1959.27" style="stroke:#808080;stroke-width:8.64"/>
	<line x1="1317.57" y1="1957.17" x2="1319.55" y2="1957.17" style="stroke:#808080;stroke-width:8.64"/>
	<line x1="1319.55" y1="1957.17" x2="1319.55" y2="1946.52" style="stroke:#808080;stroke-width:8.64"/>
	<line x1="1319.55" y1="1946.52" x2="1336.75" y2="1946.52" style="stroke:#808080;stroke-width:8.64"/>
	<line x1="1336.75" y1="1946.52" x2="1336.75" y2="1936.13" style="stroke:#808080;stroke-width:8.64"/>
	<line x1="1353.70" y1="1935.76" x2="1353.95" y2="1935.76" style="stroke:#808080;stroke-width:8.64"/>
	<line x1="1353.95" y1="1935.76" x2="1353.95" y2="1925.12" style="stroke:#808080;stroke-width:8.64"/>
	<line x1="1353.95" y1="1925.12" x2="1371.15" y2="1925.12" style="stroke:#808080;stroke-width:8.64"/>
	<line x1="1371.15" y1="1925.12" x2="1371.15" y2="1914.35" style="stroke:#808080;stroke-width:8.64"/>
	<line x1="1371.15" y1="1914.35" x2="1372.63" y2="1914.35" style="stroke:#808080;stroke-width:8.64"/>
	<line x1="1388.23" y1="1912.74" x2="1388.23" y2="1903.71" style="stroke:#808080;stroke-width:8.64"/>
	<line x1="1388.23" y1="1903.71" x2="1405.43" y2="1903.71" style="stroke:#808080;stroke-width:8.64"/>
	<line x1="1405.43" y1="1903.71" x2="1405.43" y2="1893.06" style="stroke:#808080;stroke-width:8.64"/>
	<line x1="1405.43" y1="1893.06" x2="1408.89" y2="1893.06" style="stroke:#808080;stroke-width:8.64"/>
	<line x1="1422.63" y1="1889.60" x2="1422.63" y2="1882.42" style="stroke:#808080;stroke-width:8.64"/>
	<line x1="1422.63" y1="1882.42" x2="1439.83" y2="1882.42" style="stroke:#808080;stroke-width:8.64"/>
	<line x1="1439.83" y1="1882.42" x2="1439.83" y2="1871.78" style="stroke:#808080;stroke-width:8.64"/>
	<line x1="1439.83" y1="1871.78" x2="1445.15" y2="1871.78" style="stroke:#808080;stroke-width:8.64"/>
	<line x1="1457.03" y1="1866.33" x2="1457.03" y2="1861.26" style="stroke:#808080;stroke-width:8.64"/>
	<line x1="1457.03" y1="1861.26" x2="1474.23" y2="1861.26" style="stroke:#808080;stroke-width:8.64"/>
	<line x1="1474.23" y1="1861.26" x2="1474.23" y2="1850.62" style="stroke:#808080;stroke-width:8.64"/>
	<line x1="1474.23" y1="1850.62" x2="1481.54" y2="1850.62" style="stroke:#808080;stroke-width:8.64"/>
	<line x1="1491.43" y1="1843.19" x2="1491.43" y2="1840.10" style="stroke:#808080;stroke-width:8.64"/>
	<line x1="1491.43" y1="1840.10" x2="1508.64" y2="1840.10" style="stroke:#808080;stroke-width:8.64"/>
	<line x1="1508.64" y1="1840.10" x2="1508.64" y2="1829.58" style="stroke:#808080;stroke-width:8.64"/>
	<line x1="1508.64" y1="1829.58" x2="1518.16" y2="1829.58" style="stroke:#808080;stroke-width:8.64"/>
	<line x1="1525.84" y1="1820.05" x2="1525.84" y2="1818.93" style="stroke:#808080;stroke-width:8.64"/>
	<line x1="1525.84" y1="1818.93" x2="1543.04" y2="1818.93" style="stroke:#808080;stroke-width:8.64"/>
	<line x1="1543.04" y1="1818.93" x2="1543.04" y2="1808.54" style="stroke:#808080;stroke-width:8.64"/>
	<line x1="1543.04" y1="1808.54" x2="1554.67" y2="1808.54" style="stroke:#808080;stroke-width:8.64"/>
	<line x1="1561.35" y1="1798.02" x2="1577.44" y2="1798.02" style="stroke:#808080;stroke-width:8.64"/>
	<line x1="1577.44" y1="1798.02" x2="1577.44" y2="1787.50" style="stroke:#808080;stroke-width:8.64"/>
	<line x1="1577.44" y1="1787.50" x2="1591.18" y2="1787.50" style="stroke:#808080;stroke-width:8.64"/>
	<line x1="1597.86" y1="1776.98" x2="1611.84" y2="1776.98" style="stroke:#808080;stroke-width:8.64"/>
	<line x1="1611.84" y1="1776.98" x2="1611.84" y2="1766.59" style="stroke:#808080;stroke-width:8.64"/>
	<line x1="1611.84" y1="1766.59" x2="1627.81" y2="1766.59" style="stroke:#808080;stroke-width:8.64"/>
	<line x1="1634.74" y1="1756.19" x2="1646.12" y2="1756.19" style="stroke:#808080;stroke-width:8.64"/>
	<line x1="1646.12" y1="1756.19" x2="1646.12" y2="1745.80" style="stroke:#808080;stroke-width:8.64"/>
	<line x1="1646.12" y1="1745.80" x2="1663.32" y2="1745.80" style="stroke:#808080;stroke-width:8.64"/>
	<line x1="1663.32" y1="1745.80" x2="1663.32" y2="1744.43" style="stroke:#808080;stroke-width:8.64"/>
	<line x1="1671.49" y1="1735.40" x2="1680.53" y2="1735.40" style="stroke:#808080;stroke-width:8.64"/>
	<line x1="1680.53" y1="1735.40" x2="1680.53" y2="1725.01" style="stroke:#808080;stroke-width:8.64"/>
	<line x1="1680.53" y1="1725.01" x2="1697.73" y2="1725.01" style="stroke:#808080;stroke-width:8.64"/>
	<line x1="1697.73" y1="1725.01" x2="1697.73" y2="1721.29" style="stroke:#808080;stroke-width:8.64"/>
	<line x1="1708.24" y1="1714.61" x2="1714.93" y2="1714.61" style="stroke:#808080;stroke-width:8.64"/>
	<line x1="1714.93" y1="1714.61" x2="1714.93" y2="1704.21" style="stroke:#808080;stroke-width:8.64"/>
	<line x1="1714.93" y1="1704.21" x2="1732.13" y2="1704.21" style="stroke:#808080;stroke-width:8.64"/>
	<line x1="1732.13" y1="1704.21" x2="1732.13" y2="1698.15" style="stroke:#808080;stroke-width:8.64"/>
	<line x1="1745.12" y1="1693.94" x2="1749.33" y2="1693.94" style="stroke:#808080;stroke-width:8.64"/>
	<line x1="1749.33" y1="1693.94" x2="1749.33" y2="1683.67" style="stroke:#808080;stroke-width:8.64"/>
	<line x1="1749.33" y1="1683.67" x2="1766.53" y2="1683.67" style="stroke:#808080;stroke-width:8.64"/>
	<line x1="1766.53" y1="1683.67" x2="1766.53" y2="1675.01" style="stroke:#808080;stroke-width:8.64"/>
	<line x1="1782.12" y1="1673.40" x2="1783.73" y2="1673.40" style="stroke:#808080;stroke-width:8.64"/>
	<line x1="1783.73" y1="1673.40" x2="1783.73" y2="1663.00" style="stroke:#808080;stroke-width:8.64"/>
	<line x1="1783.73" y1="1663.00" x2="1800.93" y2="1663.00" style="stroke:#808080;stroke-width:8.64"/>
	<line x1="1800.93" y1="1663.00" x2="1800.93" y2="1652.86" style="stroke:#808080;stroke-width:8.64"/>
	<line x1="1800.93" y1="1652.86" x2="1801.92" y2="1652.86" style="stroke:#808080;stroke-width:8.64"/>
	<line x1="1818.13" y1="1651.74" x2="1818.13" y2="1642.59" style="stroke:#808080;stroke-width:8.64"/>
	<line x1="1818.13" y1="1642.59" x2="1835.34" y2="1642.59" style="stroke:#808080;stroke-width:8.64"/>
	<line x1="1835.34" y1="1642.59" x2="1835.34" y2="1632.31" style="stroke:#808080;stroke-width:8.64"/>
	<line x1="1835.34" y1="1632.31" x2="1839.05" y2="1632.31" style="stroke:#808080;stroke-width:8.64"/>
	<line x1="1852.54" y1="1628.60" x2="1852.54" y2="1622.04" style="stroke:#808080;stroke-width:8.64"/>
	<line x1="1852.54" y1="1622.04" x2="1869.62" y2="1622.04" style="stroke:#808080;stroke-width:8.64"/>
	<line x1="1869.62" y1="1622.04" x2="1869.62" y2="1611.89" style="stroke:#808080;stroke-width:8.64"/>
	<line x1="1869.62" y1="1611.89" x2="1876.17" y2="1611.89" style="stroke:#808080;stroke-width:8.64"/>
	<line x1="1886.82" y1="1605.21" x2="1886.82" y2="1601.75" style="stroke:#808080;stroke-width:8.64"/>
	<line x1="1886.82" y1="1601.75" x2="1904.02" y2="1601.75" style="stroke:#808080;stroke-width:8.64"/>
	<line x1="1904.02" y1="1601.75" x2="1904.02" y2="1591.47" style="stroke:#808080;stroke-width:8.64"/>
	<line x1="1904.02" y1="1591.47" x2="1913.30" y2="1591.47" style="stroke:#808080;stroke-width:8.64"/>
	<line x1="1921.22" y1="1582.07" x2="1921.22" y2="1581.33" style="stroke:#808080;stroke-width:8.64"/>
	<line x1="1921.22" y1="1581.33" x2="1938.42" y2="1581.33" style="stroke:#808080;stroke-width:8.64"/>
	<line x1="1938.42" y1="1581.33" x2="1938.42" y2="1571.18" style="stroke:#808080;stroke-width:8.64"/>
	<line x1="1938.42" y1="1571.18" x2="1950.55" y2="1571.18" style="stroke:#808080;stroke-width:8.64"/>
	<line x1="1957.72" y1="1561.03" x2="1972.82" y2="1561.03" style="stroke:#808080;stroke-width:8.64"/>
	<line x1="1972.82" y1="1561.03" x2="1972.82" y2="1551.01" style="stroke:#808080;stroke-width:8.64"/>
	<line x1="1972.82" y1="1551.01" x2="1987.92" y2="1551.01" style="stroke:#808080;stroke-width:8.64"/>
	<line x1="1995.10" y1="1540.86" x2="2007.22" y2="1540.86" style="stroke:#808080;stroke-width:8.64"/>
	<line x1="2007.22" y1="1540.86" x2="2007.22" y2="1530.71" style="stroke:#808080;stroke-width:8.64"/>
	<line x1="2007.22" y1="1530.71" x2="2024.43" y2="1530.71" style="stroke:#808080;stroke-width:8.64"/>
	<line x1="2024.43" y1="1530.71" x2="2024.43" y2="1529.85" style="stroke:#808080;stroke-width:8.64"/>
	<line x1="2032.47" y1="1520.69" x2="2041.63" y2="1520.69" style="stroke:#808080;stroke-width:8.64"/>
	<line x1="2041.63" y1="1520.69" x2="2041.63" y2="1510.54" style="stroke:#808080;stroke-width:8.64"/>
	<line x1="2041.63" y1="1510.54" x2="2058.83" y2="1510.54" style="stroke:#808080;stroke-width:8.64"/>
	<line x1="2058.83" y1="1510.54" x2="2058.83" y2="1506.70" style="stroke:#808080;stroke-width:8.64"/>
	<line x1="2069.97" y1="1500.52" x2="2076.03" y2="1500.52" style="stroke:#808080;stroke-width:8.64"/>
	<line x1="2076.03" y1="1500.52" x2="2076.03" y2="1490.49" style="stroke:#808080;stroke-width:8.64"/>
	<line x1="2076.03" y1="1490.49" x2="2093.23" y2="1490.49" style="stroke:#808080;stroke-width:8.64"/>
	<line x1="2093.23" y1="1490.49" x2="2093.23" y2="1483.56" style="stroke:#808080;stroke-width:8.64"/>
	<line x1="2107.46" y1="1480.47" x2="2110.31" y2="1480.47" style="stroke:#808080;stroke-width:8.64"/>
	<line x1="2110.31" y1="1480.47" x2="2110.31" y2="1470.44" style="stroke:#808080;stroke-width:8.64"/>
	<line x1="2110.31" y1="1470.44" x2="2127.51" y2="1470.44" style="stroke:#808080;stroke-width:8.64"/>
	<line x1="2127.51" y1="1470.44" x2="2127.51" y2="1460.42" style="stroke:#808080;stroke-width:8.64"/>
	<line x1="2127.51" y1="1460.42" x2="2127.76" y2="1460.42" style="stroke:#808080;stroke-width:8.64"/>
	<line x1="2144.71" y1="1460.17" x2="2144.71" y2="1450.40" style="stroke:#808080;stroke-width:8.64"/>
	<line x1="2144.71" y1="1450.40" x2="2161.91" y2="1450.40" style="stroke:#808080;stroke-width:8.64"/>
	<line x1="2161.91" y1="1450.40" x2="2161.91" y2="1440.37" style="stroke:#808080;stroke-width:8.64"/>
	<line x1="2161.91" y1="1440.37" x2="2165.25" y2="1440.37" style="stroke:#808080;stroke-width:8.64"/>
	<line x1="2179.11" y1="1437.03" x2="2179.11" y2="1430.35" style="stroke:#808080;stroke-width:8.64"/>
	<line x1="2179.11" y1="1430.35" x2="2196.32" y2="1430.35" style="stroke:#808080;stroke-width:8.64"/>
	<line x1="2196.32" y1="1430.35" x2="2196.32" y2="1420.32" style="stroke:#808080;stroke-width:8.64"/>
	<line x1="2196.32" y1="1420.32" x2="2202.75" y2="1420.32" style="stroke:#808080;stroke-width:8.64"/>
	<line x1="2213.52" y1="1413.89" x2="2213.52" y2="1410.42" style="stroke:#808080;stroke-width:8.64"/>
	<line x1="2213.52" y1="1410.42" x2="2230.72" y2="1410.42" style="stroke:#808080;stroke-width:8.64"/>
	<line x1="2230.72" y1="1410.42" x2="2230.72" y2="1400.40" style="stroke:#808080;stroke-width:8.64"/>
	<line x1="2230.72" y1="1400.40" x2="2240.37" y2="1400.40" style="stroke:#808080;stroke-width:8.64"/>
	<line x1="2247.92" y1="1390.75" x2="2247.92" y2="1390.50" style="stroke:#808080;stroke-width:8.64"/>
	<line x1="2247.92" y1="1390.50" x2="2265.12" y2="1390.50" style="stroke:#808080;stroke-width:8.64"/>
	<line x1="2265.12" y1="1390.50" x2="2265.12" y2="1380.47" style="stroke:#808080;stroke-width:8.64"/>
	<line x1="2265.12" y1="1380.47" x2="2277.99" y2="1380.47" style="stroke:#808080;stroke-width:8.64"/>
	<line x1="2285.41" y1="1370.57" x2="2299.52" y2="1370.57" style="stroke:#808080;stroke-width:8.64"/>
	<line x1="2299.52" y1="1370.57" x2="2299.52" y2="1360.67" style="stroke:#808080;stroke-width:8.64"/>
	<line x1="2299.52" y1="1360.67" x2="2315.86" y2="1360.67" style="stroke:#808080;stroke-width:8.64"/>
	<line x1="2323.16" y1="1350.77" x2="2333.93" y2="1350.77" style="stroke:#808080;stroke-width:8.64"/>
	<line x1="2333.93" y1="1350.77" x2="2333.93" y2="1340.87" style="stroke:#808080;stroke-width:8.64"/>
	<line x1="2333.93" y1="1340.87" x2="2351.00" y2="1340.87" style="stroke:#808080;stroke-width:8.64"/>
	<line x1="2351.00" y1="1340.87" x2="2351.00" y2="1338.27" style="stroke:#808080;stroke-width:8.64"/>
	<line x1="2360.90" y1="1330.97" x2="2368.20" y2="1330.97" style="stroke:#808080;stroke-width:8.64"/>
	<line x1="2368.20" y1="1330.97" x2="2368.20" y2="1321.07" style="stroke:#808080;stroke-width:8.64"/>
	<line x1="2368.20" y1="1321.07" x2="2385.41" y2="1321.07" style="stroke:#808080;stroke-width:8.64"/>
	<line x1="2385.41" y1="1321.07" x2="2385.41" y2="1315.13" style="stroke:#808080;stroke-width:8.64"/>
	<line x1="2398.77" y1="1311.17" x2="2402.61" y2="1311.17" style="stroke:#808080;stroke-width:8.64"/>
	<line x1="2402.61" y1="1311.17" x2="2402.61" y2="1301.27" style="stroke:#808080;stroke-width:8.64"/>
	<line x1="2402.61" y1="1301.27" x2="2419.81" y2="1301.27" style="stroke:#808080;stroke-width:8.64"/>
	<line x1="2419.81" y1="1301.27" x2="2419.81" y2="1291.99" style="stroke:#808080;stroke-width:8.64"/>
	<line x1="2436.64" y1="1291.50" x2="2437.01" y2="1291.50" style="stroke:#808080;stroke-width:8.64"/>
	<line x1="2437.01" y1="1291.50" x2="2437.01" y2="1281.60" style="stroke:#808080;stroke-width:8.64"/>
	<line x1="2437.01" y1="1281.60" x2="2454.21" y2="1281.60" style="stroke:#808080;stroke-width:8.64"/>
	<line x1="2454.21" y1="1281.60" x2="2454.21" y2="1271.82" style="stroke:#808080;stroke-width:8.64"/>
	<line x1="2454.21" y1="1271.82" x2="2457.30" y2="1271.82" style="stroke:#808080;stroke-width:8.64"/>
	<line x1="2471.41" y1="1268.72" x2="2471.41" y2="1261.92" style="stroke:#808080;stroke-width:8.64"/>
	<line x1="2471.41" y1="1261.92" x2="2488.61" y2="1261.92" style="stroke:#808080;stroke-width:8.64"/>
	<line x1="2488.61" y1="1261.92" x2="2488.61" y2="1252.14" style="stroke:#808080;stroke-width:8.64"/>
	<line x1="2488.61" y1="1252.14" x2="2495.17" y2="1252.14" style="stroke:#808080;stroke-width:8.64"/>
	<line x1="2505.81" y1="1245.58" x2="2505.81" y2="1242.37" style="stroke:#808080;stroke-width:8.64"/>
	<line x1="2505.81" y1="1242.37" x2="2523.01" y2="1242.37" style="stroke:#808080;stroke-width:8.64"/>
	<line x1="2523.01" y1="1242.37" x2="2523.01" y2="1232.59" style="stroke:#808080;stroke-width:8.64"/>
	<line x1="2523.01" y1="1232.59" x2="2533.16" y2="1232.59" style="stroke:#808080;stroke-width:8.64"/>
	<line x1="2540.71" y1="1222.81" x2="2557.42" y2="1222.81" style="stroke:#808080;stroke-width:8.64"/>
	<line x1="2557.42" y1="1222.81" x2="2557.42" y2="1213.04" style="stroke:#808080;stroke-width:8.64"/>
	<line x1="2557.42" y1="1213.04" x2="2571.15" y2="1213.04" style="stroke:#808080;stroke-width:8.64"/>
	<line x1="2578.70" y1="1203.26" x2="2591.70" y2="1203.26" style="stroke:#808080;stroke-width:8.64"/>
	<line x1="2591.70" y1="1203.26" x2="2591.70" y2="1193.48" style="stroke:#808080;stroke-width:8.64"/>
	<line x1="2591.70" y1="1193.48" x2="2608.90" y2="1193.48" style="stroke:#808080;stroke-width:8.64"/>
	<line x1="2608.90" y1="1193.48" x2="2608.90" y2="1193.11" style="stroke:#808080;stroke-width:8.64"/>
	<line x1="2616.69" y1="1183.71" x2="2626.10" y2="1183.71" style="stroke:#808080;stroke-width:8.64"/>
	<line x1="2626.10" y1="1183.71" x2="2626.10" y2="1173.93" style="stroke:#808080;stroke-width:8.64"/>
	<line x1="2626.10" y1="1173.93" x2="2643.30" y2="1173.93" style="stroke:#808080;stroke-width:8.64"/>
	<line x1="2643.30" y1="1173.93" x2="2643.30" y2="1169.97" style="stroke:#808080;stroke-width:8.64"/>
	<line x1="2654.81" y1="1164.28" x2="2660.50" y2="1164.28" style="stroke:#808080;stroke-width:8.64"/>
	<line x1="2660.50" y1="1164.28" x2="2660.50" y2="1154.50" style="stroke:#808080;stroke-width:8.64"/>
	<line x1="2660.50" y1="1154.50" x2="2677.70" y2="1154.50" style="stroke:#808080;stroke-width:8.64"/>
	<line x1="2677.70" y1="1154.50" x2="2677.70" y2="1146.83" style="stroke:#808080;stroke-width:8.64"/>
	<line x1="2692.92" y1="1144.85" x2="2694.90" y2="1144.85" style="stroke:#808080;stroke-width:8.64"/>
	<line x1="2694.90" y1="1144.85" x2="2694.90" y2="1135.07" style="stroke:#808080;stroke-width:8.64"/>
	<line x1="2694.90" y1="1135.07" x2="2712.11" y2="1135.07" style="stroke:#808080;stroke-width:8.64"/>
	<line x1="2712.11" y1="1135.07" x2="2712.11" y2="1125.42" style="stroke:#808080;stroke-width:8.64"/>
	<line x1="2712.11" y1="1125.42" x2="2713.84" y2="1125.42" style="stroke:#808080;stroke-width:8.64"/>
	<line x1="2729.31" y1="1123.56" x2="2729.31" y2="1115.76" style="stroke:#808080;stroke-width:8.64"/>
	<line x1="2729.31" y1="1115.76" x2="2746.51" y2="1115.76" style="stroke:#808080;stroke-width:8.64"/>
	<line x1="2746.51" y1="1115.76" x2="2746.51" y2="1106.11" style="stroke:#808080;stroke-width:8.64"/>
	<line x1="2746.51" y1="1106.11" x2="2752.20" y2="1106.11" style="stroke:#808080;stroke-width:8.64"/>
	<line x1="2763.71" y1="1100.42" x2="2763.71" y2="1096.46" style="stroke:#808080;stroke-width:8.64"/>
	<line x1="2763.71" y1="1096.46" x2="2780.91" y2="1096.46" style="stroke:#808080;stroke-width:8.64"/>
	<line x1="2780.91" y1="1096.46" x2="2780.91" y2="1086.81" style="stroke:#808080;stroke-width:8.64"/>
	<line x1="2780.91" y1="1086.81" x2="2790.44" y2="1086.81" style="stroke:#808080;stroke-width:8.64"/>
	<line x1="2798.11" y1="1077.28" x2="2798.11" y2="1077.15" style="stroke:#808080;stroke-width:8.64"/>
	<line x1="2798.11" y1="1077.15" x2="2815.31" y2="1077.15" style="stroke:#808080;stroke-width:8.64"/>
	<line x1="2815.31" y1="1077.15" x2="2815.31" y2="1067.50" style="stroke:#808080;stroke-width:8.64"/>
	<line x1="2815.31" y1="1067.50" x2="2828.68" y2="1067.50" style="stroke:#808080;stroke-width:8.64"/>
	<line x1="2836.23" y1="1057.85" x2="2849.59" y2="1057.85" style="stroke:#808080;stroke-width:8.64"/>
	<line x1="2849.59" y1="1057.85" x2="2849.59" y2="1048.20" style="stroke:#808080;stroke-width:8.64"/>
	<line x1="2849.59" y1="1048.20" x2="2866.79" y2="1048.20" style="stroke:#808080;stroke-width:8.64"/>
	<line x1="2866.79" y1="1048.20" x2="2866.79" y2="1048.07" style="stroke:#808080;stroke-width:8.64"/>
	<line x1="2874.71" y1="1038.67" x2="2883.99" y2="1038.67" style="stroke:#808080;stroke-width:8.64"/>
	<line x1="2883.99" y1="1038.67" x2="2883.99" y2="1029.01" style="stroke:#808080;stroke-width:8.64"/>
	<line x1="2883.99" y1="1029.01" x2="2901.20" y2="1029.01" style="stroke:#808080;stroke-width:8.64"/>
	<line x1="2901.20" y1="1029.01" x2="2901.20" y2="1024.93" style="stroke:#808080;stroke-width:8.64"/>
	<line x1="2913.07" y1="1019.48" x2="2918.40" y2="1019.48" style="stroke:#808080;stroke-width:8.64"/>
	<line x1="2918.40" y1="1019.48" x2="2918.40" y2="1009.96" style="stroke:#808080;stroke-width:8.64"/>
	<line x1="2918.40" y1="1009.96" x2="2935.60" y2="1009.96" style="stroke:#808080;stroke-width:8.64"/>
	<line x1="2935.60" y1="1009.96" x2="2935.60" y2="1001.66" style="stroke:#808080;stroke-width:8.64"/>
	<line x1="2951.44" y1="1000.30" x2="2952.80" y2="1000.30" style="stroke:#808080;stroke-width:8.64"/>
	<line x1="2952.80" y1="1000.30" x2="2952.80" y2="990.77" style="stroke:#808080;stroke-width:8.64"/>
	<line x1="2952.80" y1="990.77" x2="2970.00" y2="990.77" style="stroke:#808080;stroke-width:8.64"/>
	<line x1="2970.00" y1="990.77" x2="2970.00" y2="981.24" style="stroke:#808080;stroke-width:8.64"/>
	<line x1="2970.00" y1="981.24" x2="2972.72" y2="981.24" style="stroke:#808080;stroke-width:8.64"/>
	<line x1="2987.20" y1="978.52" x2="2987.20" y2="971.72" style="stroke:#808080;stroke-width:8.64"/>
	<line x1="2987.20" y1="971.72" x2="3004.40" y2="971.72" style="stroke:#808080;stroke-width:8.64"/>
	<line x1="3004.40" y1="971.72" x2="3004.40" y2="962.19" style="stroke:#808080;stroke-width:8.64"/>
	<line x1="3004.40" y1="962.19" x2="3011.21" y2="962.19" style="stroke:#808080;stroke-width:8.64"/>
	<line x1="3021.60" y1="955.38" x2="3021.60" y2="952.66" style="stroke:#808080;stroke-width:8.64"/>
	<line x1="3021.60" y1="952.66" x2="3038.80" y2="952.66" style="stroke:#808080;stroke-width:8.64"/>
	<line x1="3038.80" y1="952.66" x2="3038.80" y2="943.13" style="stroke:#808080;stroke-width:8.64"/>
	<line x1="3038.80" y1="943.13" x2="3049.70" y2="943.13" style="stroke:#808080;stroke-width:8.64"/>
	<line x1="3057.37" y1="933.60" x2="3073.08" y2="933.60" style="stroke:#808080;stroke-width:8.64"/>
	<line x1="3073.08" y1="933.60" x2="3073.08" y2="924.07" style="stroke:#808080;stroke-width:8.64"/>
	<line x1="3073.08" y1="924.07" x2="3088.30" y2="924.07" style="stroke:#808080;stroke-width:8.64"/>
	<line x1="3096.10" y1="914.66" x2="3107.49" y2="914.66" style="stroke:#808080;stroke-width:8.64"/>
	<line x1="3107.49" y1="914.66" x2="3107.49" y2="905.14" style="stroke:#808080;stroke-width:8.64"/>
	<line x1="3107.49" y1="905.14" x2="3124.69" y2="905.14" style="stroke:#808080;stroke-width:8.64"/>
	<line x1="3124.69" y1="905.14" x2="3124.69" y2="902.91" style="stroke:#808080;stroke-width:8.64"/>
	<line x1="3134.59" y1="895.61" x2="3141.89" y2="895.61" style="stroke:#808080;stroke-width:8.64"/>
	<line x1="3141.89" y1="895.61" x2="3141.89" y2="886.20" style="stroke:#808080;stroke-width:8.64"/>
	<line x1="3141.89" y1="886.20" x2="3159.09" y2="886.20" style="stroke:#808080;stroke-width:8.64"/>
	<line x1="3159.09" y1="886.20" x2="3159.09" y2="879.77" style="stroke:#808080;stroke-width:8.64"/>
	<line x1="3173.32" y1="876.80" x2="3176.29" y2="876.80" style="stroke:#808080;stroke-width:8.64"/>
	<line x1="3176.29" y1="876.80" x2="3176.29" y2="867.27" style="stroke:#808080;stroke-width:8.64"/>
	<line x1="3176.29" y1="867.27" x2="3193.49" y2="867.27" style="stroke:#808080;stroke-width:8.64"/>
	<line x1="3193.49" y1="867.27" x2="3193.49" y2="857.86" style="stroke:#808080;stroke-width:8.64"/>
	<line x1="3193.49" y1="857.86" x2="3194.73" y2="857.86" style="stroke:#808080;stroke-width:8.64"/>
	<line x1="3210.69" y1="856.50" x2="3210.69" y2="848.46" style="stroke:#808080;stroke-width:8.64"/>
	<line x1="3210.69" y1="848.46" x2="3227.89" y2="848.46" style="stroke:#808080;stroke-width:8.64"/>
	<line x1="3227.89" y1="848.46" x2="3227.89" y2="839.05" style="stroke:#808080;stroke-width:8.64"/>
	<line x1="3227.89" y1="839.05" x2="3233.59" y2="839.05" style="stroke:#808080;stroke-width:8.64"/>
	<line x1="3245.10" y1="833.36" x2="3245.10" y2="829.65" style="stroke:#808080;stroke-width:8.64"/>
	<line x1="3245.10" y1="829.65" x2="3262.30" y2="829.65" style="stroke:#808080;stroke-width:8.64"/>
	<line x1="3262.30" y1="829.65" x2="3262.30" y2="820.24" style="stroke:#808080;stroke-width:8.64"/>
	<line x1="3262.30" y1="820.24" x2="3272.32" y2="820.24" style="stroke:#808080;stroke-width:8.64"/>
	<line x1="3280.12" y1="810.84" x2="3296.58" y2="810.84" style="stroke:#808080;stroke-width:8.64"/>
	<line x1="3296.58" y1="810.84" x2="3296.58" y2="801.43" style="stroke:#808080;stroke-width:8.64"/>
	<line x1="3296.58" y1="801.43" x2="3311.05" y2="801.43" style="stroke:#808080;stroke-width:8.64"/>
	<line x1="3318.85" y1="792.02" x2="3330.98" y2="792.02" style="stroke:#808080;stroke-width:8.64"/>
	<line x1="3330.98" y1="792.02" x2="3330.98" y2="782.62" style="stroke:#808080;stroke-width:8.64"/>
	<line x1="3330.98" y1="782.62" x2="3348.18" y2="782.62" style="stroke:#808080;stroke-width:8.64"/>
	<line x1="3348.18" y1="782.62" x2="3348.18" y2="781.01" style="stroke:#808080;stroke-width:8.64"/>
	<line x1="3357.71" y1="773.21" x2="3365.38" y2="773.21" style="stroke:#808080;stroke-width:8.64"/>
	<line x1="3365.38" y1="773.21" x2="3365.38" y2="763.93" style="stroke:#808080;stroke-width:8.64"/>
	<line x1="3365.38" y1="763.93" x2="3382.58" y2="763.93" style="stroke:#808080;stroke-width:8.64"/>
	<line x1="3382.58" y1="763.93" x2="3382.58" y2="757.74" style="stroke:#808080;stroke-width:8.64"/>
	<line x1="3396.57" y1="754.53" x2="3399.78" y2="754.53" style="stroke:#808080;stroke-width:8.64"/>
	<line x1="3399.78" y1="754.53" x2="3399.78" y2="745.25" style="stroke:#808080;stroke-width:8.64"/>
	<line x1="3399.78" y1="745.25" x2="3416.99" y2="745.25" style="stroke:#808080;stroke-width:8.64"/>
	<line x1="3416.99" y1="745.25" x2="3416.99" y2="735.84" style="stroke:#808080;stroke-width:8.64"/>
	<line x1="3416.99" y1="735.84" x2="3418.22" y2="735.84" style="stroke:#808080;stroke-width:8.64"/>
	<line x1="3434.19" y1="734.60" x2="3434.19" y2="726.56" style="stroke:#808080;stroke-width:8.64"/>
	<line x1="3434.19" y1="726.56" x2="3451.39" y2="726.56" style="stroke:#808080;stroke-width:8.64"/>
	<line x1="3451.39" y1="726.56" x2="3451.39" y2="717.15" style="stroke:#808080;stroke-width:8.64"/>
	<line x1="3451.39" y1="717.15" x2="3457.08" y2="717.15" style="stroke:#808080;stroke-width:8.64"/>
	<line x1="3468.59" y1="711.46" x2="3468.59" y2="707.87" style="stroke:#808080;stroke-width:8.64"/>
	<line x1="3468.59" y1="707.87" x2="3485.79" y2="707.87" style="stroke:#808080;stroke-width:8.64"/>
	<line x1="3485.79" y1="707.87" x2="3485.79" y2="698.59" style="stroke:#808080;stroke-width:8.64"/>
	<line x1="3485.79" y1="698.59" x2="3496.06" y2="698.59" style="stroke:#808080;stroke-width:8.64"/>
	<line x1="3504.11" y1="689.31" x2="3520.19" y2="689.31" style="stroke:#808080;stroke-width:8.64"/>
	<line x1="3520.19" y1="689.31" x2="3520.19" y2="679.90" style="stroke:#808080;stroke-width:8.64"/>
	<line x1="3520.19" y1="679.90" x2="3534.92" y2="679.90" style="stroke:#808080;stroke-width:8.64"/>
	<line x1="3542.96" y1="670.62" x2="3554.47" y2="670.62" style="stroke:#808080;stroke-width:8.64"/>
	<line x1="3554.47" y1="670.62" x2="3554.47" y2="661.34" style="stroke:#808080;stroke-width:8.64"/>
	<line x1="3554.47" y1="661.34" x2="3571.67" y2="661.34" style="stroke:#808080;stroke-width:8.64"/>
	<line x1="3571.67" y1="661.34" x2="3571.67" y2="658.99" style="stroke:#808080;stroke-width:8.64"/>
	<line x1="3581.94" y1="652.06" x2="3588.87" y2="652.06" style="stroke:#808080;stroke-width:8.64"/>
	<line x1="3588.87" y1="652.06" x2="3588.87" y2="642.78" style="stroke:#808080;stroke-width:8.64"/>
	<line x1="3588.87" y1="642.78" x2="3606.07" y2="642.78" style="stroke:#808080;stroke-width:8.64"/>
	<line x1="3606.07" y1="642.78" x2="3606.07" y2="635.85" style="stroke:#808080;stroke-width:8.64"/>
	<line x1="3620.93" y1="633.50" x2="3623.28" y2="633.50" style="stroke:#808080;stroke-width:8.64"/>
	<line x1="3623.28" y1="633.50" x2="3623.28" y2="624.34" style="stroke:#808080;stroke-width:8.64"/>
	<line x1="3623.28" y1="624.34" x2="3640.48" y2="624.34" style="stroke:#808080;stroke-width:8.64"/>
	<line x1="3640.48" y1="624.34" x2="3640.48" y2="615.06" style="stroke:#808080;stroke-width:8.64"/>
	<line x1="3640.48" y1="615.06" x2="3642.83" y2="615.06" style="stroke:#808080;stroke-width:8.64"/>
	<line x1="3657.68" y1="612.71" x2="3657.68" y2="605.78" style="stroke:#808080;stroke-width:8.64"/>
	<line x1="3657.68" y1="605.78" x2="3674.88" y2="605.78" style="stroke:#808080;stroke-width:8.64"/>
	<line x1="3674.88" y1="605.78" x2="3674.88" y2="596.62" style="stroke:#808080;stroke-width:8.64"/>
	<line x1="3674.88" y1="596.62" x2="3681.93" y2="596.62" style="stroke:#808080;stroke-width:8.64"/>
	<line x1="3692.08" y1="589.44" x2="3692.08" y2="587.34" style="stroke:#808080;stroke-width:8.64"/>
	<line x1="3692.08" y1="587.34" x2="3709.28" y2="587.34" style="stroke:#808080;stroke-width:8.64"/>
	<line x1="3709.28" y1="587.34" x2="3709.28" y2="578.05" style="stroke:#808080;stroke-width:8.64"/>
	<line x1="3709.28" y1="578.05" x2="3721.04" y2="578.05" style="stroke:#808080;stroke-width:8.64"/>
	<line x1="3729.08" y1="568.90" x2="3743.68" y2="568.90" style="stroke:#808080;stroke-width:8.64"/>
	<line x1="3743.68" y1="568.90" x2="3743.68" y2="559.61" style="stroke:#808080;stroke-width:8.64"/>
	<line x1="3743.68" y1="559.61" x2="3760.14" y2="559.61" style="stroke:#808080;stroke-width:8.64"/>
	<line x1="3768.19" y1="550.46" x2="3777.96" y2="550.46" style="stroke:#808080;stroke-width:8.64"/>
	<line x1="3777.96" y1="550.46" x2="3777.96" y2="541.30" style="stroke:#808080;stroke-width:8.64"/>
	<line x1="3777.96" y1="541.30" x2="3795.16" y2="541.30" style="stroke:#808080;stroke-width:8.64"/>
	<line x1="3795.16" y1="541.30" x2="3795.16" y2="537.09" style="stroke:#808080;stroke-width:8.64"/>
	<path d="" stroke-linejoin="round" style="fill:none;stroke:#808080;stroke-width:8.64"/>
	<path d=" M717.75 2338.58 L734.95 2338.58 L734.95 2327.32 L752.15 2327.32 L752.15 2316.18 L769.35 2316.18 L769.35 2305.04 L786.55 2305.04 L786.55 2294.03 L803.76 2294.03 L803.76 2283.01 L820.96 2283.01 L820.96 2272.12 L838.16 2272.12 L838.16 2261.23 L855.36 2261.23 L855.36 2250.34 L872.56 2250.34 L872.56 2239.57 L889.76 2239.57 L889.76 2228.81 L906.84 2228.81 L906.84 2218.16 L924.04 2218.16 L924.04 2207.52 L941.24 2207.52 L941.24 2196.88 L958.44 2196.88 L958.44 2186.36 L975.64 2186.36 L975.64 2175.84 L992.85 2175.84 L992.85 2165.45 L1010.05 2165.45 L1010.05 2154.93 L1027.25 2154.93 L1027.25 2144.65 L1044.45 2144.65 L1044.45 2134.26 L1061.65 2134.26 L1061.65 2123.99 L1078.85 2123.99 L1078.85 2113.72 L1096.05 2113.72 L1096.05 2103.57 L1113.26 2103.57 L1113.26 2093.30 L1130.46 2093.30 L1130.46 2083.15 L1147.53 2083.15 L1147.53 2073.12 L1164.73 2073.12 L1164.73 2062.98 L1181.94 2062.98 L1181.94 2052.95 L1199.14 2052.95 L1199.14 2042.93 L1216.34 2042.93 L1216.34 2032.90 L1233.54 2032.90 L1233.54 2023.00 L1250.74 2023.00 L1250.74 2013.10 L1267.94 2013.10 L1267.94 2003.20 L1285.14 2003.20 L1285.14 1993.30 L1302.35 1993.30 L1302.35 1983.40 L1319.55 1983.40 L1319.55 1973.63 L1336.75 1973.63 L1336.75 1963.85 L1353.95 1963.85 L1353.95 1954.07 L1371.15 1954.07 L1371.15 1944.30 L1388.23 1944.30 L1388.23 1934.64 L1405.43 1934.64 L1405.43 1924.99 L1422.63 1924.99 L1422.63 1915.34 L1439.83 1915.34 L1439.83 1905.69 L1457.03 1905.69 L1457.03 1896.03 L1474.23 1896.03 L1474.23 1886.50 L1491.43 1886.50 L1491.43 1876.85 L1508.64 1876.85 L1508.64 1867.32 L1525.84 1867.32 L1525.84 1857.79 L1543.04 1857.79 L1543.04 1848.39 L1560.24 1848.39 L1560.24 1838.86 L1577.44 1838.86 L1577.44 1829.45 L1594.64 1829.45 L1594.64 1820.05 L1611.84 1820.05 L1611.84 1810.64 L1628.92 1810.64 L1628.92 1801.36 L1646.12 1801.36 L1646.12 1791.96 L1663.32 1791.96 L1663.32 1782.67 L1680.53 1782.67 L1680.53 1773.39 L1697.73 1773.39 L1697.73 1764.11 L1714.93 1764.11 L1714.93 1754.83 L1732.13 1754.83 L1732.13 1745.67 L1749.33 1745.67 L1749.33 1736.51 L1766.53 1736.51 L1766.53 1727.36 L1783.73 1727.36 L1783.73 1718.20 L1800.93 1718.20 L1800.93 1709.04 L1818.13 1709.04 L1818.13 1699.88 L1835.34 1699.88 L1835.34 1690.85 L1852.54 1690.85 L1852.54 1681.82 L1869.62 1681.82 L1869.62 1672.78 L1886.82 1672.78 L1886.82 1663.75 L1904.02 1663.75 L1904.02 1654.71 L1921.22 1654.71 L1921.22 1645.68 L1938.42 1645.68 L1938.42 1636.77 L1955.62 1636.77 L1955.62 1627.73 L1972.82 1627.73 L1972.82 1618.82 L1990.02 1618.82 L1990.02 1609.91 L2007.22 1609.91 L2007.22 1601.00 L2024.43 1601.00 L2024.43 1592.22 L2041.63 1592.22 L2041.63 1583.31 L2058.83 1583.31 L2058.83 1574.40 L2076.03 1574.40 L2076.03 1565.61 L2093.23 1565.61 L2093.23 1556.82 L2110.31 1556.82 L2110.31 1548.04 L2127.51 1548.04 L2127.51 1539.25 L2144.71 1539.25 L2144.71 1530.46 L2161.91 1530.46 L2161.91 1521.68 L2179.11 1521.68 L2179.11 1512.89 L2196.32 1512.89 L2196.32 1504.23 L2213.52 1504.23 L2213.52 1495.44 L2230.72 1495.44 L2230.72 1486.78 L2247.92 1486.78 L2247.92 1478.12 L2265.12 1478.12 L2265.12 1469.45 L2282.32 1469.45 L2282.32 1460.79 L2299.52 1460.79 L2299.52 1452.13 L2316.72 1452.13 L2316.72 1443.47 L2333.93 1443.47 L2333.93 1434.80 L2351.00 1434.80 L2351.00 1426.26 L2368.20 1426.26 L2368.20 1417.60 L2385.41 1417.60 L2385.41 1409.06 L2402.61 1409.06 L2402.61 1400.52 L2419.81 1400.52 L2419.81 1391.98 L2437.01 1391.98 L2437.01 1383.44 L2454.21 1383.44 L2454.21 1374.91 L2471.41 1374.91 L2471.41 1366.37 L2488.61 1366.37 L2488.61 1357.83 L2505.81 1357.83 L2505.81 1349.41 L2523.01 1349.41 L2523.01 1340.87 L2540.22 1340.87 L2540.22 1332.46 L2557.42 1332.46 L2557.42 1324.04 L2574.62 1324.04 L2574.62 1315.63 L2591.70 1315.63 L2591.70 1307.21 L2608.90 1307.21 L2608.90 1298.80 L2626.10 1298.80 L2626.10 1290.38 L2643.30 1290.38 L2643.30 1282.09 L2660.50 1282.09 L2660.50 1273.67 L2677.70 1273.67 L2677.70 1265.38 L2694.90 1265.38 L2694.90 1256.97 L2712.11 1256.97 L2712.11 1248.68 L2729.31 1248.68 L2729.31 1240.39 L2746.51 1240.39 L2746.51 1232.09 L2763.71 1232.09 L2763.71 1223.80 L2780.91 1223.80 L2780.91 1215.63 L2798.11 1215.63 L2798.11 1207.34 L2815.31 1207.34 L2815.31 1199.17 L2832.39 1199.17 L2832.39 1190.88 L2849.59 1190.88 L2849.59 1182.72 L2866.79 1182.72 L2866.79 1174.55 L2883.99 1174.55 L2883.99 1166.38 L2901.20 1166.38 L2901.20 1158.21 L2918.40 1158.21 L2918.40 1150.04 L2935.60 1150.04 L2935.60 1141.88 L2952.80 1141.88 L2952.80 1133.71 L2970.00 1133.71 L2970.00 1125.67 L2987.20 1125.67 L2987.20 1117.62 L3004.40 1117.62 L3004.40 1109.45 L3021.60 1109.45 L3021.60 1101.41 L3038.80 1101.41 L3038.80 1093.37 L3055.88 1093.37 L3055.88 1085.32 L3073.08 1085.32 L3073.08 1077.28 L3090.28 1077.28 L3090.28 1069.23 L3107.49 1069.23 L3107.49 1061.19 L3124.69 1061.19 L3124.69 1053.27 L3141.89 1053.27 L3141.89 1045.23 L3159.09 1045.23 L3159.09 1037.30 L3176.29 1037.30 L3176.29 1029.26 L3193.49 1029.26 L3193.49 1021.34 L3210.69 1021.34 L3210.69 1013.42 L3227.89 1013.42 L3227.89 1005.50 L3245.10 1005.50 L3245.10 997.58 L3262.30 997.58 L3262.30 989.66 L3279.50 989.66 L3279.50 981.86 L3296.58 981.86 L3296.58 973.94 L3313.78 973.94 L3313.78 966.02 L3330.98 966.02 L3330.98 958.23 L3348.18 958.23 L3348.18 950.31 L3365.38 950.31 L3365.38 942.51 L3382.58 942.51 L3382.58 934.71 L3399.78 934.71 L3399.78 926.92 L3416.99 926.92 L3416.99 919.12 L3434.19 919.12 L3434.19 911.32 L3451.39 911.32 L3451.39 903.53 L3468.59 903.53 L3468.59 895.73 L3485.79 895.73 L3485.79 887.93 L3502.99 887.93 L3502.99 880.14 L3520.19 880.14 L3520.19 872.46 L3537.27 872.46 L3537.27 864.67 L3554.47 864.67 L3554.47 857.00 L3571.67 857.00 L3571.67 849.20 L3588.87 849.20 L3588.87 841.53 L3606.07 841.53 L3606.07 833.85 L3623.28 833.85 L3623.28 826.06 L3640.48 826.06 L3640.48 818.38 L3657.68 818.38 L3657.68 810.71 L3674.88 810.71 L3674.88 803.04 L3692.08 803.04 L3692.08 795.37 L3709.28 795.37 L3709.28 787.69 L3726.48 787.69 L3726.48 780.14 L3743.68 780.14 L3743.68 772.47 L3760.89 772.47 L3760.89 764.80 L3777.96 764.80 L3777.96 757.25 L3795.16 757.25 L3795.16 749.58" stroke-linejoin="round" style="fill:none;stroke:#000000;stroke-width:8.64"/>
	<line x1="495.00" y1="2509.23" x2="495.00" y2="419.90" style="stroke:#000000;stroke-width:5.76"/>
	<line x1="495.00" y1="2445.87" x2="454.90" y2="2445.87" style="stroke:#000000;stroke-width:5.76"/>
	<text x="434.98" y="2480.90" style="font-family:'Helvetica';font-size:99.99px;fill:#000000" text-anchor="end">0</text>
	<line x1="495.00" y1="2332.27" x2="454.90" y2="2332.27" style="stroke:#000000;stroke-width:5.76"/>
	<text x="434.98" y="2367.29" style="font-family:'Helvetica';font-size:99.99px;fill:#000000" text-anchor="end">90</text>
	<line x1="495.00" y1="2218.78" x2="454.90" y2="2218.78" style="stroke:#000000;stroke-width:5.76"/>
	<text x="434.98" y="2253.81" style="font-family:'Helvetica';font-size:99.99px;fill:#000000" text-anchor="end">180</text>
	<line x1="495.00" y1="2105.18" x2="454.90" y2="2105.18" style="stroke:#000000;stroke-width:5.76"/>
	<text x="434.98" y="2140.21" style="font-family:'Helvetica';font-size:99.99px;fill:#000000" text-anchor="end">270</text>
	<line x1="495.00" y1="1991.69" x2="454.90" y2="1991.69" style="stroke:#000000;stroke-width:5.76"/>
	<text x="434.98" y="2026.72" style="font-family:'Helvetica';font-size:99.99px;fill:#000000" text-anchor="end">360</text>
	<text x="190.71" y="1464.63" style="font-family:'Helvetica';font-size:99.99px;fill:#000000" transform="rotate(-90 190.71,1464.63)" text-anchor="middle">LOS (years)</text>
	<line x1="495.00" y1="2509.23" x2="3859.02" y2="2509.23" style="stroke:#000000;stroke-width:5.76"/>
	<line x1="558.36" y1="2509.23" x2="558.36" y2="2549.21" style="stroke:#000000;stroke-width:5.76"/>
	<text x="558.36" y="2625.15" style="font-family:'Helvetica';font-size:79.94px;fill:#000000" text-anchor="middle">0</text>
	<line x1="752.52" y1="2509.23" x2="752.52" y2="2549.21" style="stroke:#000000;stroke-width:5.76"/>
	<text x="752.52" y="2625.15" style="font-family:'Helvetica';font-size:79.94px;fill:#000000" text-anchor="middle">.3</text>
	<line x1="946.81" y1="2509.23" x2="946.81" y2="2549.21" style="stroke:#000000;stroke-width:5.76"/>
	<text x="946.81" y="2625.15" style="font-family:'Helvetica';font-size:79.94px;fill:#000000" text-anchor="middle">.6</text>
	<line x1="1141.10" y1="2509.23" x2="1141.10" y2="2549.21" style="stroke:#000000;stroke-width:5.76"/>
	<text x="1141.10" y="2625.15" style="font-family:'Helvetica';font-size:79.94px;fill:#000000" text-anchor="middle">.9</text>
	<line x1="1335.26" y1="2509.23" x2="1335.26" y2="2549.21" style="stroke:#000000;stroke-width:5.76"/>
	<text x="1335.26" y="2625.15" style="font-family:'Helvetica';font-size:79.94px;fill:#000000" text-anchor="middle">1.2</text>
	<line x1="1529.55" y1="2509.23" x2="1529.55" y2="2549.21" style="stroke:#000000;stroke-width:5.76"/>
	<text x="1529.55" y="2625.15" style="font-family:'Helvetica';font-size:79.94px;fill:#000000" text-anchor="middle">1.5</text>
	<line x1="1723.71" y1="2509.23" x2="1723.71" y2="2549.21" style="stroke:#000000;stroke-width:5.76"/>
	<text x="1723.71" y="2625.15" style="font-family:'Helvetica';font-size:79.94px;fill:#000000" text-anchor="middle">1.8</text>
	<line x1="1918.00" y1="2509.23" x2="1918.00" y2="2549.21" style="stroke:#000000;stroke-width:5.76"/>
	<text x="1918.00" y="2625.15" style="font-family:'Helvetica';font-size:79.94px;fill:#000000" text-anchor="middle">2.1</text>
	<line x1="2112.29" y1="2509.23" x2="2112.29" y2="2549.21" style="stroke:#000000;stroke-width:5.76"/>
	<text x="2112.29" y="2625.15" style="font-family:'Helvetica';font-size:79.94px;fill:#000000" text-anchor="middle">2.4</text>
	<line x1="2306.45" y1="2509.23" x2="2306.45" y2="2549.21" style="stroke:#000000;stroke-width:5.76"/>
	<text x="2306.45" y="2625.15" style="font-family:'Helvetica';font-size:79.94px;fill:#000000" text-anchor="middle">2.7</text>
	<line x1="2500.74" y1="2509.23" x2="2500.74" y2="2549.21" style="stroke:#000000;stroke-width:5.76"/>
	<text x="2500.74" y="2625.15" style="font-family:'Helvetica';font-size:79.94px;fill:#000000" text-anchor="middle">3</text>
	<line x1="2695.03" y1="2509.23" x2="2695.03" y2="2549.21" style="stroke:#000000;stroke-width:5.76"/>
	<text x="2695.03" y="2625.15" style="font-family:'Helvetica';font-size:79.94px;fill:#000000" text-anchor="middle">3.3</text>
	<line x1="2889.19" y1="2509.23" x2="2889.19" y2="2549.21" style="stroke:#000000;stroke-width:5.76"/>
	<text x="2889.19" y="2625.15" style="font-family:'Helvetica';font-size:79.94px;fill:#000000" text-anchor="middle">3.6</text>
	<line x1="3083.48" y1="2509.23" x2="3083.48" y2="2549.21" style="stroke:#000000;stroke-width:5.76"/>
	<text x="3083.48" y="2625.15" style="font-family:'Helvetica';font-size:79.94px;fill:#000000" text-anchor="middle">3.9</text>
	<line x1="3277.77" y1="2509.23" x2="3277.77" y2="2549.21" style="stroke:#000000;stroke-width:5.76"/>
	<text x="3277.77" y="2625.15" style="font-family:'Helvetica';font-size:79.94px;fill:#000000" text-anchor="middle">4.2</text>
	<line x1="3471.93" y1="2509.23" x2="3471.93" y2="2549.21" style="stroke:#000000;stroke-width:5.76"/>
	<text x="3471.93" y="2625.15" style="font-family:'Helvetica';font-size:79.94px;fill:#000000" text-anchor="middle">4.5</text>
	<line x1="3666.22" y1="2509.23" x2="3666.22" y2="2549.21" style="stroke:#000000;stroke-width:5.76"/>
	<text x="3666.22" y="2625.15" style="font-family:'Helvetica';font-size:79.94px;fill:#000000" text-anchor="middle">4.8</text>
	<line x1="3860.51" y1="2509.23" x2="3860.51" y2="2549.21" style="stroke:#000000;stroke-width:5.76"/>
	<text x="3860.51" y="2625.15" style="font-family:'Helvetica';font-size:79.94px;fill:#000000" text-anchor="middle">5.1</text>
	<text x="2177.01" y="2729.16" style="font-family:'Helvetica';font-size:99.99px;fill:#000000" text-anchor="middle">Time (years)</text>
	<rect x="529.53" y="454.42" width="1384.02" height="606.39" style="fill:#FFFFFF"/>
	<rect x="532.41" y="457.30" width="1378.26" height="600.63" style="fill:none;stroke:#000000;stroke-width:5.76"/>
	<rect x="572.72" y="497.74" width="374.34" height="99.99" style="fill:#999999;fill-opacity:0.35"/>
	<rect x="577.03" y="502.06" width="365.70" height="91.35" style="fill:none;stroke:#808080;stroke-opacity:0.35;stroke-width:8.64"/>
	<rect x="572.72" y="637.70" width="374.34" height="99.99" style="fill:#333333;fill-opacity:0.35"/>
	<rect x="577.03" y="642.02" width="365.70" height="91.35" style="fill:none;stroke:#000000;stroke-opacity:0.35;stroke-width:8.64"/>
	<line x1="572.72" y1="827.67" x2="613.06" y2="827.67" style="stroke:#808080;stroke-width:8.64"/>
	<line x1="630.26" y1="827.67" x2="670.60" y2="827.67" style="stroke:#808080;stroke-width:8.64"/>
	<line x1="687.93" y1="827.67" x2="728.27" y2="827.67" style="stroke:#808080;stroke-width:8.64"/>
	<line x1="745.47" y1="827.67" x2="785.81" y2="827.67" style="stroke:#808080;stroke-width:8.64"/>
	<line x1="803.01" y1="827.67" x2="843.36" y2="827.67" style="stroke:#808080;stroke-width:8.64"/>
	<line x1="860.56" y1="827.67" x2="900.90" y2="827.67" style="stroke:#808080;stroke-width:8.64"/>
	<line x1="918.23" y1="827.67" x2="947.06" y2="827.67" style="stroke:#808080;stroke-width:8.64"/>
	<line x1="572.72" y1="967.63" x2="947.06" y2="967.63" style="stroke:#000000;stroke-width:8.64"/>
	<text x="1007.08" y="582.76" style="font-family:'Helvetica';font-size:99.99px;fill:#000000">Ambulatory CI95%</text>
	<text x="1007.08" y="722.73" style="font-family:'Helvetica';font-size:99.99px;fill:#000000">Residential CI95%</text>
	<text x="1007.08" y="862.69" style="font-family:'Helvetica';font-size:99.99px;fill:#000000">Ambulatory</text>
	<text x="1007.08" y="1002.66" style="font-family:'Helvetica';font-size:99.99px;fill:#000000">Residential</text>
	<text x="2177.01" y="369.63" style="font-family:'Helvetica';font-size:110.01px;fill:#000000" text-anchor="middle">in Treatment Completion (RP)</text>
	<text x="2177.01" y="215.98" style="font-family:'Helvetica';font-size:139.96px;fill:#1E2D53" text-anchor="middle">Length of Stay(3y)</text>
</svg>
