<?xml version="1.0" encoding="UTF-8" standalone="no"?>
<!-- This is a Stata 16.1 generated SVG file (http://www.stata.com) -->

<svg version="1.1" width="5.50in" height="4.00in" viewBox="0 0 3960 2880" xmlns="http://www.w3.org/2000/svg" xmlns:xlink="http://www.w3.org/1999/xlink">
	<desc>Stata Graph - los_models_22_3y_22</desc>
	<rect x="0" y="0" width="3960" height="2880" style="fill:#EAF2F3;stroke:none"/>
	<rect x="0.00" y="0.00" width="3959.88" height="2880.00" style="fill:#FFFFFF"/>
	<rect x="2.88" y="2.88" width="3954.12" height="2874.24" style="fill:none;stroke:#FFFFFF;stroke-width:5.76"/>
	<rect x="495.00" y="419.90" width="3364.02" height="2089.34" style="fill:#FFFFFF"/>
	<rect x="497.88" y="422.78" width="3358.26" height="2083.58" style="fill:none;stroke:#FFFFFF;stroke-width:5.76"/>
	<line x1="495.00" y1="2340.80" x2="3859.02" y2="2340.80" style="stroke:#EAF2F3;stroke-width:8.64"/>
	<line x1="495.00" y1="2235.74" x2="3859.02" y2="2235.74" style="stroke:#EAF2F3;stroke-width:8.64"/>
	<line x1="495.00" y1="2130.79" x2="3859.02" y2="2130.79" style="stroke:#EAF2F3;stroke-width:8.64"/>
	<line x1="495.00" y1="2025.73" x2="3859.02" y2="2025.73" style="stroke:#EAF2F3;stroke-width:8.64"/>
	<defs>
		<path id="path_LdQWytci" d="M717.87 2340.80 L717.87 2340.80 L735.08 2340.80 L735.08 2329.54 L752.28 2329.54 L752.28 2318.16 L769.48 2318.16 L769.48 2306.90 L786.55 2306.90 L786.55 2295.51 L803.76 2295.51 L803.76 2284.25 L820.96 2284.25 L820.96 2272.86 L838.16 2272.86 L838.16 2261.60 L855.36 2261.60 L855.36 2250.34 L872.56 2250.34 L872.56 2238.95 L889.76 2238.95 L889.76 2227.69 L906.96 2227.69 L906.96 2216.31 L924.16 2216.31 L924.16 2205.05 L941.37 2205.05 L941.37 2193.66 L958.57 2193.66 L958.57 2182.40 L975.77 2182.40 L975.77 2171.01 L992.97 2171.01 L992.97 2159.75 L1010.17 2159.75 L1010.17 2148.37 L1027.25 2148.37 L1027.25 2137.11 L1044.45 2137.11 L1044.45 2125.84 L1061.65 2125.84 L1061.65 2114.46 L1078.85 2114.46 L1078.85 2103.20 L1096.05 2103.20 L1096.05 2091.81 L1113.26 2091.81 L1113.26 2080.55 L1130.46 2080.55 L1130.46 2069.29 L1147.66 2069.29 L1147.66 2057.90 L1164.86 2057.90 L1164.86 2046.64 L1182.06 2046.64 L1182.06 2035.38 L1199.26 2035.38 L1199.26 2023.99 L1216.46 2023.99 L1216.46 2012.73 L1233.66 2012.73 L1233.66 2001.47 L1250.87 2001.47 L1250.87 1990.21 L1267.94 1990.21 L1267.94 1978.95 L1285.14 1978.95 L1285.14 1967.69 L1302.35 1967.69 L1302.35 1956.42 L1319.55 1956.42 L1319.55 1945.16 L1336.75 1945.16 L1336.75 1933.90 L1353.95 1933.90 L1353.95 1922.64 L1371.15 1922.64 L1371.15 1911.50 L1388.35 1911.50 L1388.35 1900.24 L1405.55 1900.24 L1405.55 1888.98 L1422.75 1888.98 L1422.75 1877.84 L1439.95 1877.84 L1439.95 1866.70 L1457.16 1866.70 L1457.16 1855.44 L1474.36 1855.44 L1474.36 1844.30 L1491.56 1844.30 L1491.56 1833.17 L1508.64 1833.17 L1508.64 1822.03 L1525.84 1822.03 L1525.84 1810.89 L1543.04 1810.89 L1543.04 1799.75 L1560.24 1799.75 L1560.24 1788.74 L1577.44 1788.74 L1577.44 1777.60 L1594.64 1777.60 L1594.64 1766.59 L1611.84 1766.59 L1611.84 1755.57 L1629.05 1755.57 L1629.05 1744.56 L1646.25 1744.56 L1646.25 1733.54 L1663.45 1733.54 L1663.45 1722.53 L1680.65 1722.53 L1680.65 1711.52 L1697.85 1711.52 L1697.85 1700.50 L1715.05 1700.50 L1715.05 1689.61 L1732.25 1689.61 L1732.25 1678.72 L1749.33 1678.72 L1749.33 1667.71 L1766.53 1667.71 L1766.53 1656.82 L1783.73 1656.82 L1783.73 1646.05 L1800.93 1646.05 L1800.93 1635.16 L1818.13 1635.16 L1818.13 1624.27 L1835.34 1624.27 L1835.34 1613.50 L1852.54 1613.50 L1852.54 1602.61 L1869.74 1602.61 L1869.74 1591.85 L1886.94 1591.85 L1886.94 1581.08 L1904.14 1581.08 L1904.14 1570.44 L1921.34 1570.44 L1921.34 1559.67 L1938.54 1559.67 L1938.54 1549.03 L1955.74 1549.03 L1955.74 1538.26 L1972.95 1538.26 L1972.95 1527.62 L1990.02 1527.62 L1990.02 1516.97 L2007.22 1516.97 L2007.22 1506.33 L2024.43 1506.33 L2024.43 1495.81 L2041.63 1495.81 L2041.63 1485.17 L2058.83 1485.17 L2058.83 1474.65 L2076.03 1474.65 L2076.03 1464.13 L2093.23 1464.13 L2093.23 1453.61 L2110.43 1453.61 L2110.43 1443.22 L2127.63 1443.22 L2127.63 1432.70 L2144.84 1432.70 L2144.84 1422.30 L2162.04 1422.30 L2162.04 1411.78 L2179.24 1411.78 L2179.24 1401.39 L2196.44 1401.39 L2196.44 1391.12 L2213.64 1391.12 L2213.64 1380.72 L2230.72 1380.72 L2230.72 1370.45 L2247.92 1370.45 L2247.92 1360.06 L2265.12 1360.06 L2265.12 1349.78 L2282.32 1349.78 L2282.32 1339.51 L2299.52 1339.51 L2299.52 1329.36 L2316.72 1329.36 L2316.72 1319.09 L2333.93 1319.09 L2333.93 1308.94 L2351.13 1308.94 L2351.13 1298.80 L2368.33 1298.80 L2368.33 1288.65 L2385.53 1288.65 L2385.53 1278.50 L2402.73 1278.50 L2402.73 1268.48 L2419.93 1268.48 L2419.93 1258.33 L2437.13 1258.33 L2437.13 1248.31 L2454.33 1248.31 L2454.33 1238.28 L2471.41 1238.28 L2471.41 1228.26 L2488.61 1228.26 L2488.61 1218.36 L2505.81 1218.36 L2505.81 1208.33 L2523.01 1208.33 L2523.01 1198.43 L2540.22 1198.43 L2540.22 1188.53 L2557.42 1188.53 L2557.42 1178.63 L2574.62 1178.63 L2574.62 1168.86 L2591.82 1168.86 L2591.82 1158.95 L2609.02 1158.95 L2609.02 1149.18 L2626.22 1149.18 L2626.22 1139.40 L2643.42 1139.40 L2643.42 1129.63 L2660.63 1129.63 L2660.63 1119.85 L2677.83 1119.85 L2677.83 1110.20 L2695.03 1110.20 L2695.03 1100.54 L2712.11 1100.54 L2712.11 1090.77 L2729.31 1090.77 L2729.31 1081.11 L2746.51 1081.11 L2746.51 1071.58 L2763.71 1071.58 L2763.71 1061.93 L2780.91 1061.93 L2780.91 1052.40 L2798.11 1052.40 L2798.11 1042.87 L2815.31 1042.87 L2815.31 1033.34 L2832.51 1033.34 L2832.51 1023.82 L2849.72 1023.82 L2849.72 1014.29 L2866.92 1014.29 L2866.92 1004.88 L2884.12 1004.88 L2884.12 995.48 L2901.32 995.48 L2901.32 985.95 L2918.52 985.95 L2918.52 976.67 L2935.72 976.67 L2935.72 967.26 L2952.80 967.26 L2952.80 957.85 L2970.00 957.85 L2970.00 948.57 L2987.20 948.57 L2987.20 939.29 L3004.40 939.29 L3004.40 930.01 L3021.60 930.01 L3021.60 920.85 L3038.80 920.85 L3038.80 911.57 L3056.01 911.57 L3056.01 902.41 L3073.21 902.41 L3073.21 893.26 L3090.41 893.26 L3090.41 884.10 L3107.61 884.10 L3107.61 874.94 L3124.81 874.94 L3124.81 865.78 L3142.01 865.78 L3142.01 856.75 L3159.21 856.75 L3159.21 847.71 L3176.29 847.71 L3176.29 838.68 L3193.49 838.68 L3193.49 829.65 L3210.69 829.65 L3210.69 820.61 L3227.89 820.61 L3227.89 811.70 L3245.10 811.70 L3245.10 802.67 L3262.30 802.67 L3262.30 793.76 L3279.50 793.76 L3279.50 784.85 L3296.70 784.85 L3296.70 775.94 L3313.90 775.94 L3313.90 767.15 L3331.10 767.15 L3331.10 758.24 L3348.30 758.24 L3348.30 749.45 L3365.51 749.45 L3365.51 740.67 L3382.71 740.67 L3382.71 731.88 L3399.91 731.88 L3399.91 723.09 L3416.99 723.09 L3416.99 714.43 L3434.19 714.43 L3434.19 705.64 L3451.39 705.64 L3451.39 696.98 L3468.59 696.98 L3468.59 688.32 L3485.79 688.32 L3485.79 679.66 L3502.99 679.66 L3502.99 670.99 L3520.19 670.99 L3520.19 662.45 L3537.39 662.45 L3537.39 653.79 L3554.59 653.79 L3554.59 645.25 L3571.80 645.25 L3571.80 636.71 L3589.00 636.71 L3589.00 628.17 L3606.20 628.17 L3606.20 619.64 L3623.40 619.64 L3623.40 611.22 L3640.60 611.22 L3640.60 602.68 L3657.68 602.68 L3657.68 594.27 L3674.88 594.27 L3674.88 585.85 L3692.08 585.85 L3692.08 577.44 L3709.28 577.44 L3709.28 569.02 L3726.48 569.02 L3726.48 560.61 L3743.68 560.61 L3743.68 552.31 L3760.89 552.31 L3760.89 543.90 L3778.09 543.90 L3778.09 535.61 L3795.29 535.61 L3795.29 527.32 L3795.29 483.26 L3795.29 492.05 L3778.09 492.05 L3778.09 500.83 L3760.89 500.83 L3760.89 509.62 L3743.68 509.62 L3743.68 518.40 L3726.48 518.40 L3726.48 527.19 L3709.28 527.19 L3709.28 536.10 L3692.08 536.10 L3692.08 544.89 L3674.88 544.89 L3674.88 553.80 L3657.68 553.80 L3657.68 562.71 L3640.60 562.71 L3640.60 571.62 L3623.40 571.62 L3623.40 580.53 L3606.20 580.53 L3606.20 589.44 L3589.00 589.44 L3589.00 598.47 L3571.80 598.47 L3571.80 607.51 L3554.59 607.51 L3554.59 616.42 L3537.39 616.42 L3537.39 625.45 L3520.19 625.45 L3520.19 634.49 L3502.99 634.49 L3502.99 643.64 L3485.79 643.64 L3485.79 652.68 L3468.59 652.68 L3468.59 661.71 L3451.39 661.71 L3451.39 670.87 L3434.19 670.87 L3434.19 680.03 L3416.99 680.03 L3416.99 689.19 L3399.91 689.19 L3399.91 698.34 L3382.71 698.34 L3382.71 707.62 L3365.51 707.62 L3365.51 716.78 L3348.30 716.78 L3348.30 726.06 L3331.10 726.06 L3331.10 735.35 L3313.90 735.35 L3313.90 744.63 L3296.70 744.63 L3296.70 753.91 L3279.50 753.91 L3279.50 763.19 L3262.30 763.19 L3262.30 772.47 L3245.10 772.47 L3245.10 781.88 L3227.89 781.88 L3227.89 791.28 L3210.69 791.28 L3210.69 800.69 L3193.49 800.69 L3193.49 810.09 L3176.29 810.09 L3176.29 819.50 L3159.21 819.50 L3159.21 829.03 L3142.01 829.03 L3142.01 838.43 L3124.81 838.43 L3124.81 847.96 L3107.61 847.96 L3107.61 857.49 L3090.41 857.49 L3090.41 867.02 L3073.21 867.02 L3073.21 876.67 L3056.01 876.67 L3056.01 886.20 L3038.80 886.20 L3038.80 895.85 L3021.60 895.85 L3021.60 905.51 L3004.40 905.51 L3004.40 915.16 L2987.20 915.16 L2987.20 924.81 L2970.00 924.81 L2970.00 934.47 L2952.80 934.47 L2952.80 944.24 L2935.72 944.24 L2935.72 954.02 L2918.52 954.02 L2918.52 963.80 L2901.32 963.80 L2901.32 973.57 L2884.12 973.57 L2884.12 983.35 L2866.92 983.35 L2866.92 993.12 L2849.72 993.12 L2849.72 1003.03 L2832.51 1003.03 L2832.51 1012.93 L2815.31 1012.93 L2815.31 1022.83 L2798.11 1022.83 L2798.11 1032.73 L2780.91 1032.73 L2780.91 1042.63 L2763.71 1042.63 L2763.71 1052.65 L2746.51 1052.65 L2746.51 1062.55 L2729.31 1062.55 L2729.31 1072.57 L2712.11 1072.57 L2712.11 1082.60 L2695.03 1082.60 L2695.03 1092.62 L2677.83 1092.62 L2677.83 1102.65 L2660.63 1102.65 L2660.63 1112.79 L2643.42 1112.79 L2643.42 1122.94 L2626.22 1122.94 L2626.22 1132.97 L2609.02 1132.97 L2609.02 1143.11 L2591.82 1143.11 L2591.82 1153.39 L2574.62 1153.39 L2574.62 1163.53 L2557.42 1163.53 L2557.42 1173.68 L2540.22 1173.68 L2540.22 1183.95 L2523.01 1183.95 L2523.01 1194.22 L2505.81 1194.22 L2505.81 1204.50 L2488.61 1204.50 L2488.61 1214.77 L2471.41 1214.77 L2471.41 1225.16 L2454.33 1225.16 L2454.33 1235.43 L2437.13 1235.43 L2437.13 1245.83 L2419.93 1245.83 L2419.93 1256.23 L2402.73 1256.23 L2402.73 1266.62 L2385.53 1266.62 L2385.53 1277.02 L2368.33 1277.02 L2368.33 1287.41 L2351.13 1287.41 L2351.13 1297.93 L2333.93 1297.93 L2333.93 1308.33 L2316.72 1308.33 L2316.72 1318.84 L2299.52 1318.84 L2299.52 1329.36 L2282.32 1329.36 L2282.32 1339.88 L2265.12 1339.88 L2265.12 1350.53 L2247.92 1350.53 L2247.92 1361.05 L2230.72 1361.05 L2230.72 1371.69 L2213.64 1371.69 L2213.64 1382.33 L2196.44 1382.33 L2196.44 1392.97 L2179.24 1392.97 L2179.24 1403.62 L2162.04 1403.62 L2162.04 1414.26 L2144.84 1414.26 L2144.84 1425.03 L2127.63 1425.03 L2127.63 1435.67 L2110.43 1435.67 L2110.43 1446.44 L2093.23 1446.44 L2093.23 1457.20 L2076.03 1457.20 L2076.03 1467.97 L2058.83 1467.97 L2058.83 1478.73 L2041.63 1478.73 L2041.63 1489.50 L2024.43 1489.50 L2024.43 1500.39 L2007.22 1500.39 L2007.22 1511.16 L1990.02 1511.16 L1990.02 1522.05 L1972.95 1522.05 L1972.95 1532.94 L1955.74 1532.94 L1955.74 1543.83 L1938.54 1543.83 L1938.54 1554.72 L1921.34 1554.72 L1921.34 1565.61 L1904.14 1565.61 L1904.14 1576.62 L1886.94 1576.62 L1886.94 1587.51 L1869.74 1587.51 L1869.74 1598.53 L1852.54 1598.53 L1852.54 1609.54 L1835.34 1609.54 L1835.34 1620.56 L1818.13 1620.56 L1818.13 1631.57 L1800.93 1631.57 L1800.93 1642.59 L1783.73 1642.59 L1783.73 1653.60 L1766.53 1653.60 L1766.53 1664.74 L1749.33 1664.74 L1749.33 1675.75 L1732.25 1675.75 L1732.25 1686.89 L1715.05 1686.89 L1715.05 1698.03 L1697.85 1698.03 L1697.85 1709.04 L1680.65 1709.04 L1680.65 1720.18 L1663.45 1720.18 L1663.45 1731.32 L1646.25 1731.32 L1646.25 1742.45 L1629.05 1742.45 L1629.05 1753.72 L1611.84 1753.72 L1611.84 1764.85 L1594.64 1764.85 L1594.64 1775.99 L1577.44 1775.99 L1577.44 1787.25 L1560.24 1787.25 L1560.24 1798.39 L1543.04 1798.39 L1543.04 1809.65 L1525.84 1809.65 L1525.84 1820.79 L1508.64 1820.79 L1508.64 1832.05 L1491.56 1832.05 L1491.56 1843.31 L1474.36 1843.31 L1474.36 1854.58 L1457.16 1854.58 L1457.16 1865.84 L1439.95 1865.84 L1439.95 1877.10 L1422.75 1877.10 L1422.75 1888.36 L1405.55 1888.36 L1405.55 1899.62 L1388.35 1899.62 L1388.35 1910.88 L1371.15 1910.88 L1371.15 1922.15 L1353.95 1922.15 L1353.95 1933.41 L1336.75 1933.41 L1336.75 1944.79 L1319.55 1944.79 L1319.55 1956.05 L1302.35 1956.05 L1302.35 1967.32 L1285.14 1967.32 L1285.14 1978.70 L1267.94 1978.70 L1267.94 1989.96 L1250.87 1989.96 L1250.87 2001.35 L1233.66 2001.35 L1233.66 2012.61 L1216.46 2012.61 L1216.46 2023.87 L1199.26 2023.87 L1199.26 2035.26 L1182.06 2035.26 L1182.06 2046.52 L1164.86 2046.52 L1164.86 2057.90 L1147.66 2057.90 L1147.66 2069.16 L1130.46 2069.16 L1130.46 2080.55 L1113.26 2080.55 L1113.26 2091.81 L1096.05 2091.81 L1096.05 2103.07 L1078.85 2103.07 L1078.85 2114.46 L1061.65 2114.46 L1061.65 2125.72 L1044.45 2125.72 L1044.45 2137.11 L1027.25 2137.11 L1027.25 2148.37 L1010.17 2148.37 L1010.17 2159.75 L992.97 2159.75 L992.97 2171.01 L975.77 2171.01 L975.77 2182.40 L958.57 2182.40 L958.57 2193.66 L941.37 2193.66 L941.37 2205.05 L924.16 2205.05 L924.16 2216.31 L906.96 2216.31 L906.96 2227.69 L889.76 2227.69 L889.76 2238.95 L872.56 2238.95 L872.56 2250.34 L855.36 2250.34 L855.36 2261.60 L838.16 2261.60 L838.16 2272.86 L820.96 2272.86 L820.96 2284.25 L803.76 2284.25 L803.76 2295.51 L786.55 2295.51 L786.55 2306.90 L769.48 2306.90 L769.48 2318.16 L752.28 2318.16 L752.28 2329.54 L735.08 2329.54 L735.08 2340.80 L717.87 2340.80 L717.87 2340.80 Z" stroke-linejoin="round"/>
	</defs>
	<defs>
		<clipPath id="clipPath_ApzxoFbX">
			<use xlink:href="#path_LdQWytci"/>
		</clipPath>
	</defs>
	<use xlink:href="#path_LdQWytci" style="stroke:none;fill:#999999;fill-opacity:0.35"/>
	<use xlink:href="#path_LdQWytci" style="fill:none;stroke:#808080;stroke-opacity:0.35;stroke-width:17.28" clip-path="url(#clipPath_ApzxoFbX)"/>
	<defs>
		<path id="path_LdtQVupg" d="M717.87 2340.80 L717.87 2340.80 L735.08 2340.80 L735.08 2329.54 L752.28 2329.54 L752.28 2318.16 L769.48 2318.16 L769.48 2306.90 L786.55 2306.90 L786.55 2295.51 L803.76 2295.51 L803.76 2284.25 L820.96 2284.25 L820.96 2272.86 L838.16 2272.86 L838.16 2261.60 L855.36 2261.60 L855.36 2250.34 L872.56 2250.34 L872.56 2238.95 L889.76 2238.95 L889.76 2227.69 L906.96 2227.69 L906.96 2216.31 L924.16 2216.31 L924.16 2205.05 L941.37 2205.05 L941.37 2193.66 L958.57 2193.66 L958.57 2182.40 L975.77 2182.40 L975.77 2171.01 L992.97 2171.01 L992.97 2159.75 L1010.17 2159.75 L1010.17 2148.37 L1027.25 2148.37 L1027.25 2137.11 L1044.45 2137.11 L1044.45 2125.84 L1061.65 2125.84 L1061.65 2114.46 L1078.85 2114.46 L1078.85 2103.20 L1096.05 2103.20 L1096.05 2091.81 L1113.26 2091.81 L1113.26 2080.55 L1130.46 2080.55 L1130.46 2069.29 L1147.66 2069.29 L1147.66 2057.90 L1164.86 2057.90 L1164.86 2046.64 L1182.06 2046.64 L1182.06 2035.38 L1199.26 2035.38 L1199.26 2024.12 L1216.46 2024.12 L1216.46 2012.86 L1233.66 2012.86 L1233.66 2001.60 L1250.87 2001.60 L1250.87 1990.21 L1267.94 1990.21 L1267.94 1978.95 L1285.14 1978.95 L1285.14 1967.81 L1302.35 1967.81 L1302.35 1956.55 L1319.55 1956.55 L1319.55 1945.29 L1336.75 1945.29 L1336.75 1934.03 L1353.95 1934.03 L1353.95 1922.89 L1371.15 1922.89 L1371.15 1911.63 L1388.35 1911.63 L1388.35 1900.49 L1405.55 1900.49 L1405.55 1889.23 L1422.75 1889.23 L1422.75 1878.09 L1439.95 1878.09 L1439.95 1866.95 L1457.16 1866.95 L1457.16 1855.81 L1474.36 1855.81 L1474.36 1844.68 L1491.56 1844.68 L1491.56 1833.54 L1508.64 1833.54 L1508.64 1822.52 L1525.84 1822.52 L1525.84 1811.39 L1543.04 1811.39 L1543.04 1800.37 L1560.24 1800.37 L1560.24 1789.23 L1577.44 1789.23 L1577.44 1778.22 L1594.64 1778.22 L1594.64 1767.21 L1611.84 1767.21 L1611.84 1756.19 L1629.05 1756.19 L1629.05 1745.30 L1646.25 1745.30 L1646.25 1734.29 L1663.45 1734.29 L1663.45 1723.40 L1680.65 1723.40 L1680.65 1712.38 L1697.85 1712.38 L1697.85 1701.49 L1715.05 1701.49 L1715.05 1690.60 L1732.25 1690.60 L1732.25 1679.71 L1749.33 1679.71 L1749.33 1668.94 L1766.53 1668.94 L1766.53 1658.05 L1783.73 1658.05 L1783.73 1647.29 L1800.93 1647.29 L1800.93 1636.52 L1818.13 1636.52 L1818.13 1625.75 L1835.34 1625.75 L1835.34 1614.99 L1852.54 1614.99 L1852.54 1604.35 L1869.74 1604.35 L1869.74 1593.58 L1886.94 1593.58 L1886.94 1582.94 L1904.14 1582.94 L1904.14 1572.29 L1921.34 1572.29 L1921.34 1561.65 L1938.54 1561.65 L1938.54 1551.01 L1955.74 1551.01 L1955.74 1540.49 L1972.95 1540.49 L1972.95 1529.97 L1990.02 1529.97 L1990.02 1519.45 L2007.22 1519.45 L2007.22 1508.93 L2024.43 1508.93 L2024.43 1498.41 L2041.63 1498.41 L2041.63 1488.02 L2058.83 1488.02 L2058.83 1477.50 L2076.03 1477.50 L2076.03 1467.10 L2093.23 1467.10 L2093.23 1456.71 L2110.43 1456.71 L2110.43 1446.31 L2127.63 1446.31 L2127.63 1436.04 L2144.84 1436.04 L2144.84 1425.64 L2162.04 1425.64 L2162.04 1415.37 L2179.24 1415.37 L2179.24 1405.10 L2196.44 1405.10 L2196.44 1394.83 L2213.64 1394.83 L2213.64 1384.68 L2230.72 1384.68 L2230.72 1374.41 L2247.92 1374.41 L2247.92 1364.26 L2265.12 1364.26 L2265.12 1354.11 L2282.32 1354.11 L2282.32 1343.97 L2299.52 1343.97 L2299.52 1333.94 L2316.72 1333.94 L2316.72 1323.80 L2333.93 1323.80 L2333.93 1313.77 L2351.13 1313.77 L2351.13 1303.75 L2368.33 1303.75 L2368.33 1293.72 L2385.53 1293.72 L2385.53 1283.70 L2402.73 1283.70 L2402.73 1273.80 L2419.93 1273.80 L2419.93 1263.90 L2437.13 1263.90 L2437.13 1254.00 L2454.33 1254.00 L2454.33 1244.10 L2471.41 1244.10 L2471.41 1234.20 L2488.61 1234.20 L2488.61 1224.42 L2505.81 1224.42 L2505.81 1214.52 L2523.01 1214.52 L2523.01 1204.74 L2540.22 1204.74 L2540.22 1195.09 L2557.42 1195.09 L2557.42 1185.31 L2574.62 1185.31 L2574.62 1175.54 L2591.82 1175.54 L2591.82 1165.89 L2609.02 1165.89 L2609.02 1156.23 L2626.22 1156.23 L2626.22 1146.58 L2643.42 1146.58 L2643.42 1137.05 L2660.63 1137.05 L2660.63 1127.40 L2677.83 1127.40 L2677.83 1117.87 L2695.03 1117.87 L2695.03 1108.34 L2712.11 1108.34 L2712.11 1098.81 L2729.31 1098.81 L2729.31 1089.41 L2746.51 1089.41 L2746.51 1079.88 L2763.71 1079.88 L2763.71 1070.47 L2780.91 1070.47 L2780.91 1061.07 L2798.11 1061.07 L2798.11 1051.66 L2815.31 1051.66 L2815.31 1042.26 L2832.51 1042.26 L2832.51 1032.97 L2849.72 1032.97 L2849.72 1023.69 L2866.92 1023.69 L2866.92 1014.41 L2884.12 1014.41 L2884.12 1005.13 L2901.32 1005.13 L2901.32 995.85 L2918.52 995.85 L2918.52 986.69 L2935.72 986.69 L2935.72 977.41 L2952.80 977.41 L2952.80 968.25 L2970.00 968.25 L2970.00 959.09 L2987.20 959.09 L2987.20 949.93 L3004.40 949.93 L3004.40 940.90 L3021.60 940.90 L3021.60 931.87 L3038.80 931.87 L3038.80 922.71 L3056.01 922.71 L3056.01 913.67 L3073.21 913.67 L3073.21 904.76 L3090.41 904.76 L3090.41 895.73 L3107.61 895.73 L3107.61 886.82 L3124.81 886.82 L3124.81 877.79 L3142.01 877.79 L3142.01 868.88 L3159.21 868.88 L3159.21 860.09 L3176.29 860.09 L3176.29 851.18 L3193.49 851.18 L3193.49 842.27 L3210.69 842.27 L3210.69 833.48 L3227.89 833.48 L3227.89 824.70 L3245.10 824.70 L3245.10 815.91 L3262.30 815.91 L3262.30 807.12 L3279.50 807.12 L3279.50 798.34 L3296.70 798.34 L3296.70 789.67 L3313.90 789.67 L3313.90 781.01 L3331.10 781.01 L3331.10 772.35 L3348.30 772.35 L3348.30 763.69 L3365.51 763.69 L3365.51 755.02 L3382.71 755.02 L3382.71 746.36 L3399.91 746.36 L3399.91 737.82 L3416.99 737.82 L3416.99 729.28 L3434.19 729.28 L3434.19 720.74 L3451.39 720.74 L3451.39 712.20 L3468.59 712.20 L3468.59 703.66 L3485.79 703.66 L3485.79 695.25 L3502.99 695.25 L3502.99 686.71 L3520.19 686.71 L3520.19 678.29 L3537.39 678.29 L3537.39 669.88 L3554.59 669.88 L3554.59 661.46 L3571.80 661.46 L3571.80 653.17 L3589.00 653.17 L3589.00 644.76 L3606.20 644.76 L3606.20 636.47 L3623.40 636.47 L3623.40 628.17 L3640.60 628.17 L3640.60 619.76 L3657.68 619.76 L3657.68 611.59 L3674.88 611.59 L3674.88 603.30 L3692.08 603.30 L3692.08 595.01 L3709.28 595.01 L3709.28 586.84 L3726.48 586.84 L3726.48 578.67 L3743.68 578.67 L3743.68 570.51 L3760.89 570.51 L3760.89 562.34 L3778.09 562.34 L3778.09 554.17 L3795.29 554.17 L3795.29 546.00 L3795.29 501.70 L3795.29 510.24 L3778.09 510.24 L3778.09 518.78 L3760.89 518.78 L3760.89 527.44 L3743.68 527.44 L3743.68 536.10 L3726.48 536.10 L3726.48 544.64 L3709.28 544.64 L3709.28 553.30 L3692.08 553.30 L3692.08 562.09 L3674.88 562.09 L3674.88 570.75 L3657.68 570.75 L3657.68 579.42 L3640.60 579.42 L3640.60 588.20 L3623.40 588.20 L3623.40 596.99 L3606.20 596.99 L3606.20 605.65 L3589.00 605.65 L3589.00 614.56 L3571.80 614.56 L3571.80 623.35 L3554.59 623.35 L3554.59 632.13 L3537.39 632.13 L3537.39 641.05 L3520.19 641.05 L3520.19 649.83 L3502.99 649.83 L3502.99 658.74 L3485.79 658.74 L3485.79 667.65 L3468.59 667.65 L3468.59 676.56 L3451.39 676.56 L3451.39 685.60 L3434.19 685.60 L3434.19 694.51 L3416.99 694.51 L3416.99 703.54 L3399.91 703.54 L3399.91 712.57 L3382.71 712.57 L3382.71 721.61 L3365.51 721.61 L3365.51 730.64 L3348.30 730.64 L3348.30 739.68 L3331.10 739.68 L3331.10 748.71 L3313.90 748.71 L3313.90 757.87 L3296.70 757.87 L3296.70 767.03 L3279.50 767.03 L3279.50 776.18 L3262.30 776.18 L3262.30 785.34 L3245.10 785.34 L3245.10 794.50 L3227.89 794.50 L3227.89 803.78 L3210.69 803.78 L3210.69 812.94 L3193.49 812.94 L3193.49 822.22 L3176.29 822.22 L3176.29 831.50 L3159.21 831.50 L3159.21 840.78 L3142.01 840.78 L3142.01 850.19 L3124.81 850.19 L3124.81 859.47 L3107.61 859.47 L3107.61 868.88 L3090.41 868.88 L3090.41 878.16 L3073.21 878.16 L3073.21 887.56 L3056.01 887.56 L3056.01 896.97 L3038.80 896.97 L3038.80 906.50 L3021.60 906.50 L3021.60 915.90 L3004.40 915.90 L3004.40 925.43 L2987.20 925.43 L2987.20 934.96 L2970.00 934.96 L2970.00 944.49 L2952.80 944.49 L2952.80 954.02 L2935.72 954.02 L2935.72 963.55 L2918.52 963.55 L2918.52 973.20 L2901.32 973.20 L2901.32 982.85 L2884.12 982.85 L2884.12 992.51 L2866.92 992.51 L2866.92 1002.16 L2849.72 1002.16 L2849.72 1011.81 L2832.51 1011.81 L2832.51 1021.46 L2815.31 1021.46 L2815.31 1031.24 L2798.11 1031.24 L2798.11 1041.02 L2780.91 1041.02 L2780.91 1050.79 L2763.71 1050.79 L2763.71 1060.57 L2746.51 1060.57 L2746.51 1070.35 L2729.31 1070.35 L2729.31 1080.25 L2712.11 1080.25 L2712.11 1090.02 L2695.03 1090.02 L2695.03 1099.92 L2677.83 1099.92 L2677.83 1109.82 L2660.63 1109.82 L2660.63 1119.85 L2643.42 1119.85 L2643.42 1129.75 L2626.22 1129.75 L2626.22 1139.77 L2609.02 1139.77 L2609.02 1149.67 L2591.82 1149.67 L2591.82 1159.70 L2574.62 1159.70 L2574.62 1169.72 L2557.42 1169.72 L2557.42 1179.87 L2540.22 1179.87 L2540.22 1189.89 L2523.01 1189.89 L2523.01 1200.04 L2505.81 1200.04 L2505.81 1210.19 L2488.61 1210.19 L2488.61 1220.34 L2471.41 1220.34 L2471.41 1230.48 L2454.33 1230.48 L2454.33 1240.76 L2437.13 1240.76 L2437.13 1250.90 L2419.93 1250.90 L2419.93 1261.18 L2402.73 1261.18 L2402.73 1271.45 L2385.53 1271.45 L2385.53 1281.72 L2368.33 1281.72 L2368.33 1291.99 L2351.13 1291.99 L2351.13 1302.39 L2333.93 1302.39 L2333.93 1312.66 L2316.72 1312.66 L2316.72 1323.05 L2299.52 1323.05 L2299.52 1333.45 L2282.32 1333.45 L2282.32 1343.84 L2265.12 1343.84 L2265.12 1354.24 L2247.92 1354.24 L2247.92 1364.76 L2230.72 1364.76 L2230.72 1375.28 L2213.64 1375.28 L2213.64 1385.67 L2196.44 1385.67 L2196.44 1396.19 L2179.24 1396.19 L2179.24 1406.83 L2162.04 1406.83 L2162.04 1417.35 L2144.84 1417.35 L2144.84 1427.87 L2127.63 1427.87 L2127.63 1438.51 L2110.43 1438.51 L2110.43 1449.16 L2093.23 1449.16 L2093.23 1459.80 L2076.03 1459.80 L2076.03 1470.44 L2058.83 1470.44 L2058.83 1481.09 L2041.63 1481.09 L2041.63 1491.85 L2024.43 1491.85 L2024.43 1502.62 L2007.22 1502.62 L2007.22 1513.26 L1990.02 1513.26 L1990.02 1524.03 L1972.95 1524.03 L1972.95 1534.80 L1955.74 1534.80 L1955.74 1545.69 L1938.54 1545.69 L1938.54 1556.45 L1921.34 1556.45 L1921.34 1567.22 L1904.14 1567.22 L1904.14 1578.11 L1886.94 1578.11 L1886.94 1589.00 L1869.74 1589.00 L1869.74 1599.89 L1852.54 1599.89 L1852.54 1610.78 L1835.34 1610.78 L1835.34 1621.79 L1818.13 1621.79 L1818.13 1632.68 L1800.93 1632.68 L1800.93 1643.70 L1783.73 1643.70 L1783.73 1654.59 L1766.53 1654.59 L1766.53 1665.60 L1749.33 1665.60 L1749.33 1676.62 L1732.25 1676.62 L1732.25 1687.63 L1715.05 1687.63 L1715.05 1698.77 L1697.85 1698.77 L1697.85 1709.78 L1680.65 1709.78 L1680.65 1720.80 L1663.45 1720.80 L1663.45 1731.94 L1646.25 1731.94 L1646.25 1743.07 L1629.05 1743.07 L1629.05 1754.21 L1611.84 1754.21 L1611.84 1765.35 L1594.64 1765.35 L1594.64 1776.49 L1577.44 1776.49 L1577.44 1787.62 L1560.24 1787.62 L1560.24 1798.76 L1543.04 1798.76 L1543.04 1809.90 L1525.84 1809.90 L1525.84 1821.16 L1508.64 1821.16 L1508.64 1832.30 L1491.56 1832.30 L1491.56 1843.56 L1474.36 1843.56 L1474.36 1854.70 L1457.16 1854.70 L1457.16 1865.96 L1439.95 1865.96 L1439.95 1877.22 L1422.75 1877.22 L1422.75 1888.48 L1405.55 1888.48 L1405.55 1899.75 L1388.35 1899.75 L1388.35 1911.01 L1371.15 1911.01 L1371.15 1922.27 L1353.95 1922.27 L1353.95 1933.53 L1336.75 1933.53 L1336.75 1944.79 L1319.55 1944.79 L1319.55 1956.05 L1302.35 1956.05 L1302.35 1967.44 L1285.14 1967.44 L1285.14 1978.70 L1267.94 1978.70 L1267.94 1989.96 L1250.87 1989.96 L1250.87 2001.35 L1233.66 2001.35 L1233.66 2012.61 L1216.46 2012.61 L1216.46 2023.87 L1199.26 2023.87 L1199.26 2035.26 L1182.06 2035.26 L1182.06 2046.52 L1164.86 2046.52 L1164.86 2057.90 L1147.66 2057.90 L1147.66 2069.16 L1130.46 2069.16 L1130.46 2080.55 L1113.26 2080.55 L1113.26 2091.81 L1096.05 2091.81 L1096.05 2103.07 L1078.85 2103.07 L1078.85 2114.46 L1061.65 2114.46 L1061.65 2125.72 L1044.45 2125.72 L1044.45 2137.11 L1027.25 2137.11 L1027.25 2148.37 L1010.17 2148.37 L1010.17 2159.75 L992.97 2159.75 L992.97 2171.01 L975.77 2171.01 L975.77 2182.40 L958.57 2182.40 L958.57 2193.66 L941.37 2193.66 L941.37 2205.05 L924.16 2205.05 L924.16 2216.31 L906.96 2216.31 L906.96 2227.69 L889.76 2227.69 L889.76 2238.95 L872.56 2238.95 L872.56 2250.34 L855.36 2250.34 L855.36 2261.60 L838.16 2261.60 L838.16 2272.86 L820.96 2272.86 L820.96 2284.25 L803.76 2284.25 L803.76 2295.51 L786.55 2295.51 L786.55 2306.90 L769.48 2306.90 L769.48 2318.16 L752.28 2318.16 L752.28 2329.54 L735.08 2329.54 L735.08 2340.80 L717.87 2340.80 L717.87 2340.80 Z" stroke-linejoin="round"/>
	</defs>
	<defs>
		<clipPath id="clipPath_vyjOKOdL">
			<use xlink:href="#path_LdtQVupg"/>
		</clipPath>
	</defs>
	<use xlink:href="#path_LdtQVupg" style="stroke:none;fill:#333333;fill-opacity:0.35"/>
	<use xlink:href="#path_LdtQVupg" style="fill:none;stroke:#000000;stroke-opacity:0.35;stroke-width:17.28" clip-path="url(#clipPath_vyjOKOdL)"/>
	<line x1="717.75" y1="2340.93" x2="734.95" y2="2340.93" style="stroke:#808080;stroke-width:8.64"/>
	<line x1="734.95" y1="2340.93" x2="734.95" y2="2329.54" style="stroke:#808080;stroke-width:8.64"/>
	<line x1="734.95" y1="2329.54" x2="746.71" y2="2329.54" style="stroke:#808080;stroke-width:8.64"/>
	<line x1="752.65" y1="2318.28" x2="769.35" y2="2318.28" style="stroke:#808080;stroke-width:8.64"/>
	<line x1="769.35" y1="2318.28" x2="769.35" y2="2306.90" style="stroke:#808080;stroke-width:8.64"/>
	<line x1="769.35" y1="2306.90" x2="781.61" y2="2306.90" style="stroke:#808080;stroke-width:8.64"/>
	<line x1="787.54" y1="2295.63" x2="803.76" y2="2295.63" style="stroke:#808080;stroke-width:8.64"/>
	<line x1="803.76" y1="2295.63" x2="803.76" y2="2284.25" style="stroke:#808080;stroke-width:8.64"/>
	<line x1="803.76" y1="2284.25" x2="816.50" y2="2284.25" style="stroke:#808080;stroke-width:8.64"/>
	<line x1="822.57" y1="2272.99" x2="838.16" y2="2272.99" style="stroke:#808080;stroke-width:8.64"/>
	<line x1="838.16" y1="2272.99" x2="838.16" y2="2261.60" style="stroke:#808080;stroke-width:8.64"/>
	<line x1="838.16" y1="2261.60" x2="851.40" y2="2261.60" style="stroke:#808080;stroke-width:8.64"/>
	<line x1="857.46" y1="2250.34" x2="872.56" y2="2250.34" style="stroke:#808080;stroke-width:8.64"/>
	<line x1="872.56" y1="2250.34" x2="872.56" y2="2239.08" style="stroke:#808080;stroke-width:8.64"/>
	<line x1="872.56" y1="2239.08" x2="886.54" y2="2239.08" style="stroke:#808080;stroke-width:8.64"/>
	<line x1="892.36" y1="2227.69" x2="906.84" y2="2227.69" style="stroke:#808080;stroke-width:8.64"/>
	<line x1="906.84" y1="2227.69" x2="906.84" y2="2216.43" style="stroke:#808080;stroke-width:8.64"/>
	<line x1="906.84" y1="2216.43" x2="921.44" y2="2216.43" style="stroke:#808080;stroke-width:8.64"/>
	<line x1="927.26" y1="2205.05" x2="941.24" y2="2205.05" style="stroke:#808080;stroke-width:8.64"/>
	<line x1="941.24" y1="2205.05" x2="941.24" y2="2193.78" style="stroke:#808080;stroke-width:8.64"/>
	<line x1="941.24" y1="2193.78" x2="956.34" y2="2193.78" style="stroke:#808080;stroke-width:8.64"/>
	<line x1="962.28" y1="2182.40" x2="975.64" y2="2182.40" style="stroke:#808080;stroke-width:8.64"/>
	<line x1="975.64" y1="2182.40" x2="975.64" y2="2171.14" style="stroke:#808080;stroke-width:8.64"/>
	<line x1="975.64" y1="2171.14" x2="991.24" y2="2171.14" style="stroke:#808080;stroke-width:8.64"/>
	<line x1="997.18" y1="2159.75" x2="1010.05" y2="2159.75" style="stroke:#808080;stroke-width:8.64"/>
	<line x1="1010.05" y1="2159.75" x2="1010.05" y2="2148.49" style="stroke:#808080;stroke-width:8.64"/>
	<line x1="1010.05" y1="2148.49" x2="1026.13" y2="2148.49" style="stroke:#808080;stroke-width:8.64"/>
	<line x1="1032.08" y1="2137.11" x2="1044.45" y2="2137.11" style="stroke:#808080;stroke-width:8.64"/>
	<line x1="1044.45" y1="2137.11" x2="1044.45" y2="2125.84" style="stroke:#808080;stroke-width:8.64"/>
	<line x1="1044.45" y1="2125.84" x2="1061.16" y2="2125.84" style="stroke:#808080;stroke-width:8.64"/>
	<line x1="1067.10" y1="2114.58" x2="1078.85" y2="2114.58" style="stroke:#808080;stroke-width:8.64"/>
	<line x1="1078.85" y1="2114.58" x2="1078.85" y2="2103.20" style="stroke:#808080;stroke-width:8.64"/>
	<line x1="1078.85" y1="2103.20" x2="1096.05" y2="2103.20" style="stroke:#808080;stroke-width:8.64"/>
	<line x1="1101.99" y1="2091.94" x2="1113.26" y2="2091.94" style="stroke:#808080;stroke-width:8.64"/>
	<line x1="1113.26" y1="2091.94" x2="1113.26" y2="2080.55" style="stroke:#808080;stroke-width:8.64"/>
	<line x1="1113.26" y1="2080.55" x2="1130.46" y2="2080.55" style="stroke:#808080;stroke-width:8.64"/>
	<line x1="1130.46" y1="2080.55" x2="1130.46" y2="2080.06" style="stroke:#808080;stroke-width:8.64"/>
	<line x1="1136.89" y1="2069.29" x2="1147.53" y2="2069.29" style="stroke:#808080;stroke-width:8.64"/>
	<line x1="1147.53" y1="2069.29" x2="1147.53" y2="2057.90" style="stroke:#808080;stroke-width:8.64"/>
	<line x1="1147.53" y1="2057.90" x2="1164.73" y2="2057.90" style="stroke:#808080;stroke-width:8.64"/>
	<line x1="1164.73" y1="2057.90" x2="1164.73" y2="2056.67" style="stroke:#808080;stroke-width:8.64"/>
	<line x1="1171.91" y1="2046.64" x2="1181.94" y2="2046.64" style="stroke:#808080;stroke-width:8.64"/>
	<line x1="1181.94" y1="2046.64" x2="1181.94" y2="2035.38" style="stroke:#808080;stroke-width:8.64"/>
	<line x1="1181.94" y1="2035.38" x2="1199.14" y2="2035.38" style="stroke:#808080;stroke-width:8.64"/>
	<line x1="1199.14" y1="2035.38" x2="1199.14" y2="2033.52" style="stroke:#808080;stroke-width:8.64"/>
	<line x1="1206.81" y1="2023.99" x2="1216.34" y2="2023.99" style="stroke:#808080;stroke-width:8.64"/>
	<line x1="1216.34" y1="2023.99" x2="1216.34" y2="2012.73" style="stroke:#808080;stroke-width:8.64"/>
	<line x1="1216.34" y1="2012.73" x2="1233.54" y2="2012.73" style="stroke:#808080;stroke-width:8.64"/>
	<line x1="1233.54" y1="2012.73" x2="1233.54" y2="2010.38" style="stroke:#808080;stroke-width:8.64"/>
	<line x1="1241.83" y1="2001.47" x2="1250.74" y2="2001.47" style="stroke:#808080;stroke-width:8.64"/>
	<line x1="1250.74" y1="2001.47" x2="1250.74" y2="1990.21" style="stroke:#808080;stroke-width:8.64"/>
	<line x1="1250.74" y1="1990.21" x2="1267.94" y2="1990.21" style="stroke:#808080;stroke-width:8.64"/>
	<line x1="1267.94" y1="1990.21" x2="1267.94" y2="1987.24" style="stroke:#808080;stroke-width:8.64"/>
	<line x1="1276.73" y1="1978.82" x2="1285.14" y2="1978.82" style="stroke:#808080;stroke-width:8.64"/>
	<line x1="1285.14" y1="1978.82" x2="1285.14" y2="1967.56" style="stroke:#808080;stroke-width:8.64"/>
	<line x1="1285.14" y1="1967.56" x2="1302.35" y2="1967.56" style="stroke:#808080;stroke-width:8.64"/>
	<line x1="1302.35" y1="1967.56" x2="1302.35" y2="1964.10" style="stroke:#808080;stroke-width:8.64"/>
	<line x1="1311.87" y1="1956.30" x2="1319.55" y2="1956.30" style="stroke:#808080;stroke-width:8.64"/>
	<line x1="1319.55" y1="1956.30" x2="1319.55" y2="1945.04" style="stroke:#808080;stroke-width:8.64"/>
	<line x1="1319.55" y1="1945.04" x2="1336.75" y2="1945.04" style="stroke:#808080;stroke-width:8.64"/>
	<line x1="1336.75" y1="1945.04" x2="1336.75" y2="1940.96" style="stroke:#808080;stroke-width:8.64"/>
	<line x1="1346.89" y1="1933.78" x2="1353.95" y2="1933.78" style="stroke:#808080;stroke-width:8.64"/>
	<line x1="1353.95" y1="1933.78" x2="1353.95" y2="1922.52" style="stroke:#808080;stroke-width:8.64"/>
	<line x1="1353.95" y1="1922.52" x2="1371.15" y2="1922.52" style="stroke:#808080;stroke-width:8.64"/>
	<line x1="1371.15" y1="1922.52" x2="1371.15" y2="1917.69" style="stroke:#808080;stroke-width:8.64"/>
	<line x1="1381.92" y1="1911.25" x2="1388.23" y2="1911.25" style="stroke:#808080;stroke-width:8.64"/>
	<line x1="1388.23" y1="1911.25" x2="1388.23" y2="1899.99" style="stroke:#808080;stroke-width:8.64"/>
	<line x1="1388.23" y1="1899.99" x2="1405.43" y2="1899.99" style="stroke:#808080;stroke-width:8.64"/>
	<line x1="1405.43" y1="1899.99" x2="1405.43" y2="1894.42" style="stroke:#808080;stroke-width:8.64"/>
	<line x1="1417.06" y1="1888.73" x2="1422.63" y2="1888.73" style="stroke:#808080;stroke-width:8.64"/>
	<line x1="1422.63" y1="1888.73" x2="1422.63" y2="1877.47" style="stroke:#808080;stroke-width:8.64"/>
	<line x1="1422.63" y1="1877.47" x2="1439.83" y2="1877.47" style="stroke:#808080;stroke-width:8.64"/>
	<line x1="1439.83" y1="1877.47" x2="1439.83" y2="1871.28" style="stroke:#808080;stroke-width:8.64"/>
	<line x1="1452.21" y1="1866.33" x2="1457.03" y2="1866.33" style="stroke:#808080;stroke-width:8.64"/>
	<line x1="1457.03" y1="1866.33" x2="1457.03" y2="1855.07" style="stroke:#808080;stroke-width:8.64"/>
	<line x1="1457.03" y1="1855.07" x2="1474.23" y2="1855.07" style="stroke:#808080;stroke-width:8.64"/>
	<line x1="1474.23" y1="1855.07" x2="1474.23" y2="1848.02" style="stroke:#808080;stroke-width:8.64"/>
	<line x1="1487.35" y1="1843.93" x2="1491.43" y2="1843.93" style="stroke:#808080;stroke-width:8.64"/>
	<line x1="1491.43" y1="1843.93" x2="1491.43" y2="1832.67" style="stroke:#808080;stroke-width:8.64"/>
	<line x1="1491.43" y1="1832.67" x2="1508.64" y2="1832.67" style="stroke:#808080;stroke-width:8.64"/>
	<line x1="1508.64" y1="1832.67" x2="1508.64" y2="1824.87" style="stroke:#808080;stroke-width:8.64"/>
	<line x1="1522.50" y1="1821.53" x2="1525.84" y2="1821.53" style="stroke:#808080;stroke-width:8.64"/>
	<line x1="1525.84" y1="1821.53" x2="1525.84" y2="1810.27" style="stroke:#808080;stroke-width:8.64"/>
	<line x1="1525.84" y1="1810.27" x2="1543.04" y2="1810.27" style="stroke:#808080;stroke-width:8.64"/>
	<line x1="1543.04" y1="1810.27" x2="1543.04" y2="1801.73" style="stroke:#808080;stroke-width:8.64"/>
	<line x1="1557.64" y1="1799.13" x2="1560.24" y2="1799.13" style="stroke:#808080;stroke-width:8.64"/>
	<line x1="1560.24" y1="1799.13" x2="1560.24" y2="1788.00" style="stroke:#808080;stroke-width:8.64"/>
	<line x1="1560.24" y1="1788.00" x2="1577.44" y2="1788.00" style="stroke:#808080;stroke-width:8.64"/>
	<line x1="1577.44" y1="1788.00" x2="1577.44" y2="1778.59" style="stroke:#808080;stroke-width:8.64"/>
	<line x1="1592.91" y1="1776.86" x2="1594.64" y2="1776.86" style="stroke:#808080;stroke-width:8.64"/>
	<line x1="1594.64" y1="1776.86" x2="1594.64" y2="1765.72" style="stroke:#808080;stroke-width:8.64"/>
	<line x1="1594.64" y1="1765.72" x2="1611.84" y2="1765.72" style="stroke:#808080;stroke-width:8.64"/>
	<line x1="1611.84" y1="1765.72" x2="1611.84" y2="1755.32" style="stroke:#808080;stroke-width:8.64"/>
	<line x1="1628.43" y1="1754.71" x2="1628.92" y2="1754.71" style="stroke:#808080;stroke-width:8.64"/>
	<line x1="1628.92" y1="1754.71" x2="1628.92" y2="1743.57" style="stroke:#808080;stroke-width:8.64"/>
	<line x1="1628.92" y1="1743.57" x2="1646.12" y2="1743.57" style="stroke:#808080;stroke-width:8.64"/>
	<line x1="1646.12" y1="1743.57" x2="1646.12" y2="1732.43" style="stroke:#808080;stroke-width:8.64"/>
	<line x1="1646.12" y1="1732.43" x2="1646.49" y2="1732.43" style="stroke:#808080;stroke-width:8.64"/>
	<line x1="1663.32" y1="1732.06" x2="1663.32" y2="1721.42" style="stroke:#808080;stroke-width:8.64"/>
	<line x1="1663.32" y1="1721.42" x2="1680.53" y2="1721.42" style="stroke:#808080;stroke-width:8.64"/>
	<line x1="1680.53" y1="1721.42" x2="1680.53" y2="1710.40" style="stroke:#808080;stroke-width:8.64"/>
	<line x1="1680.53" y1="1710.40" x2="1682.01" y2="1710.40" style="stroke:#808080;stroke-width:8.64"/>
	<line x1="1697.73" y1="1708.92" x2="1697.73" y2="1699.39" style="stroke:#808080;stroke-width:8.64"/>
	<line x1="1697.73" y1="1699.39" x2="1714.93" y2="1699.39" style="stroke:#808080;stroke-width:8.64"/>
	<line x1="1714.93" y1="1699.39" x2="1714.93" y2="1688.25" style="stroke:#808080;stroke-width:8.64"/>
	<line x1="1714.93" y1="1688.25" x2="1717.40" y2="1688.25" style="stroke:#808080;stroke-width:8.64"/>
	<line x1="1732.13" y1="1685.65" x2="1732.13" y2="1677.36" style="stroke:#808080;stroke-width:8.64"/>
	<line x1="1732.13" y1="1677.36" x2="1749.33" y2="1677.36" style="stroke:#808080;stroke-width:8.64"/>
	<line x1="1749.33" y1="1677.36" x2="1749.33" y2="1666.35" style="stroke:#808080;stroke-width:8.64"/>
	<line x1="1749.33" y1="1666.35" x2="1753.17" y2="1666.35" style="stroke:#808080;stroke-width:8.64"/>
	<line x1="1766.53" y1="1662.51" x2="1766.53" y2="1655.33" style="stroke:#808080;stroke-width:8.64"/>
	<line x1="1766.53" y1="1655.33" x2="1783.73" y2="1655.33" style="stroke:#808080;stroke-width:8.64"/>
	<line x1="1783.73" y1="1655.33" x2="1783.73" y2="1644.32" style="stroke:#808080;stroke-width:8.64"/>
	<line x1="1783.73" y1="1644.32" x2="1788.68" y2="1644.32" style="stroke:#808080;stroke-width:8.64"/>
	<line x1="1800.93" y1="1639.37" x2="1800.93" y2="1633.43" style="stroke:#808080;stroke-width:8.64"/>
	<line x1="1800.93" y1="1633.43" x2="1818.13" y2="1633.43" style="stroke:#808080;stroke-width:8.64"/>
	<line x1="1818.13" y1="1633.43" x2="1818.13" y2="1622.54" style="stroke:#808080;stroke-width:8.64"/>
	<line x1="1818.13" y1="1622.54" x2="1824.45" y2="1622.54" style="stroke:#808080;stroke-width:8.64"/>
	<line x1="1835.34" y1="1616.23" x2="1835.34" y2="1611.52" style="stroke:#808080;stroke-width:8.64"/>
	<line x1="1835.34" y1="1611.52" x2="1852.54" y2="1611.52" style="stroke:#808080;stroke-width:8.64"/>
	<line x1="1852.54" y1="1611.52" x2="1852.54" y2="1600.63" style="stroke:#808080;stroke-width:8.64"/>
	<line x1="1852.54" y1="1600.63" x2="1860.09" y2="1600.63" style="stroke:#808080;stroke-width:8.64"/>
	<line x1="1869.62" y1="1592.96" x2="1869.62" y2="1589.74" style="stroke:#808080;stroke-width:8.64"/>
	<line x1="1869.62" y1="1589.74" x2="1886.82" y2="1589.74" style="stroke:#808080;stroke-width:8.64"/>
	<line x1="1886.82" y1="1589.74" x2="1886.82" y2="1578.98" style="stroke:#808080;stroke-width:8.64"/>
	<line x1="1886.82" y1="1578.98" x2="1895.97" y2="1578.98" style="stroke:#808080;stroke-width:8.64"/>
	<line x1="1904.02" y1="1569.69" x2="1904.02" y2="1568.09" style="stroke:#808080;stroke-width:8.64"/>
	<line x1="1904.02" y1="1568.09" x2="1921.22" y2="1568.09" style="stroke:#808080;stroke-width:8.64"/>
	<line x1="1921.22" y1="1568.09" x2="1921.22" y2="1557.32" style="stroke:#808080;stroke-width:8.64"/>
	<line x1="1921.22" y1="1557.32" x2="1931.98" y2="1557.32" style="stroke:#808080;stroke-width:8.64"/>
	<line x1="1938.42" y1="1546.55" x2="1938.42" y2="1546.43" style="stroke:#808080;stroke-width:8.64"/>
	<line x1="1938.42" y1="1546.43" x2="1955.62" y2="1546.43" style="stroke:#808080;stroke-width:8.64"/>
	<line x1="1955.62" y1="1546.43" x2="1955.62" y2="1535.66" style="stroke:#808080;stroke-width:8.64"/>
	<line x1="1955.62" y1="1535.66" x2="1967.87" y2="1535.66" style="stroke:#808080;stroke-width:8.64"/>
	<line x1="1974.31" y1="1524.90" x2="1990.02" y2="1524.90" style="stroke:#808080;stroke-width:8.64"/>
	<line x1="1990.02" y1="1524.90" x2="1990.02" y2="1514.13" style="stroke:#808080;stroke-width:8.64"/>
	<line x1="1990.02" y1="1514.13" x2="2003.88" y2="1514.13" style="stroke:#808080;stroke-width:8.64"/>
	<line x1="2010.44" y1="1503.49" x2="2024.43" y2="1503.49" style="stroke:#808080;stroke-width:8.64"/>
	<line x1="2024.43" y1="1503.49" x2="2024.43" y2="1492.72" style="stroke:#808080;stroke-width:8.64"/>
	<line x1="2024.43" y1="1492.72" x2="2040.02" y2="1492.72" style="stroke:#808080;stroke-width:8.64"/>
	<line x1="2046.70" y1="1482.08" x2="2058.83" y2="1482.08" style="stroke:#808080;stroke-width:8.64"/>
	<line x1="2058.83" y1="1482.08" x2="2058.83" y2="1471.43" style="stroke:#808080;stroke-width:8.64"/>
	<line x1="2058.83" y1="1471.43" x2="2076.03" y2="1471.43" style="stroke:#808080;stroke-width:8.64"/>
	<line x1="2076.03" y1="1471.43" x2="2076.03" y2="1471.06" style="stroke:#808080;stroke-width:8.64"/>
	<line x1="2082.96" y1="1460.79" x2="2093.23" y2="1460.79" style="stroke:#808080;stroke-width:8.64"/>
	<line x1="2093.23" y1="1460.79" x2="2093.23" y2="1450.15" style="stroke:#808080;stroke-width:8.64"/>
	<line x1="2093.23" y1="1450.15" x2="2110.31" y2="1450.15" style="stroke:#808080;stroke-width:8.64"/>
	<line x1="2110.31" y1="1450.15" x2="2110.31" y2="1447.80" style="stroke:#808080;stroke-width:8.64"/>
	<line x1="2119.22" y1="1439.50" x2="2127.51" y2="1439.50" style="stroke:#808080;stroke-width:8.64"/>
	<line x1="2127.51" y1="1439.50" x2="2127.51" y2="1428.86" style="stroke:#808080;stroke-width:8.64"/>
	<line x1="2127.51" y1="1428.86" x2="2144.71" y2="1428.86" style="stroke:#808080;stroke-width:8.64"/>
	<line x1="2144.71" y1="1428.86" x2="2144.71" y2="1424.65" style="stroke:#808080;stroke-width:8.64"/>
	<line x1="2155.60" y1="1418.34" x2="2161.91" y2="1418.34" style="stroke:#808080;stroke-width:8.64"/>
	<line x1="2161.91" y1="1418.34" x2="2161.91" y2="1407.82" style="stroke:#808080;stroke-width:8.64"/>
	<line x1="2161.91" y1="1407.82" x2="2179.11" y2="1407.82" style="stroke:#808080;stroke-width:8.64"/>
	<line x1="2179.11" y1="1407.82" x2="2179.11" y2="1401.51" style="stroke:#808080;stroke-width:8.64"/>
	<line x1="2192.23" y1="1397.30" x2="2196.32" y2="1397.30" style="stroke:#808080;stroke-width:8.64"/>
	<line x1="2196.32" y1="1397.30" x2="2196.32" y2="1386.79" style="stroke:#808080;stroke-width:8.64"/>
	<line x1="2196.32" y1="1386.79" x2="2213.52" y2="1386.79" style="stroke:#808080;stroke-width:8.64"/>
	<line x1="2213.52" y1="1386.79" x2="2213.52" y2="1378.37" style="stroke:#808080;stroke-width:8.64"/>
	<line x1="2228.74" y1="1376.27" x2="2230.72" y2="1376.27" style="stroke:#808080;stroke-width:8.64"/>
	<line x1="2230.72" y1="1376.27" x2="2230.72" y2="1365.87" style="stroke:#808080;stroke-width:8.64"/>
	<line x1="2230.72" y1="1365.87" x2="2247.92" y2="1365.87" style="stroke:#808080;stroke-width:8.64"/>
	<line x1="2247.92" y1="1365.87" x2="2247.92" y2="1355.35" style="stroke:#808080;stroke-width:8.64"/>
	<line x1="2247.92" y1="1355.35" x2="2248.17" y2="1355.35" style="stroke:#808080;stroke-width:8.64"/>
	<line x1="2265.12" y1="1355.10" x2="2265.12" y2="1344.96" style="stroke:#808080;stroke-width:8.64"/>
	<line x1="2265.12" y1="1344.96" x2="2282.32" y2="1344.96" style="stroke:#808080;stroke-width:8.64"/>
	<line x1="2282.32" y1="1344.96" x2="2282.32" y2="1334.56" style="stroke:#808080;stroke-width:8.64"/>
	<line x1="2282.32" y1="1334.56" x2="2284.92" y2="1334.56" style="stroke:#808080;stroke-width:8.64"/>
	<line x1="2299.52" y1="1331.96" x2="2299.52" y2="1324.17" style="stroke:#808080;stroke-width:8.64"/>
	<line x1="2299.52" y1="1324.17" x2="2316.72" y2="1324.17" style="stroke:#808080;stroke-width:8.64"/>
	<line x1="2316.72" y1="1324.17" x2="2316.72" y2="1313.77" style="stroke:#808080;stroke-width:8.64"/>
	<line x1="2316.72" y1="1313.77" x2="2321.67" y2="1313.77" style="stroke:#808080;stroke-width:8.64"/>
	<line x1="2333.93" y1="1308.70" x2="2333.93" y2="1303.50" style="stroke:#808080;stroke-width:8.64"/>
	<line x1="2333.93" y1="1303.50" x2="2351.00" y2="1303.50" style="stroke:#808080;stroke-width:8.64"/>
	<line x1="2351.00" y1="1303.50" x2="2351.00" y2="1293.23" style="stroke:#808080;stroke-width:8.64"/>
	<line x1="2351.00" y1="1293.23" x2="2358.68" y2="1293.23" style="stroke:#808080;stroke-width:8.64"/>
	<line x1="2368.20" y1="1285.43" x2="2368.20" y2="1282.96" style="stroke:#808080;stroke-width:8.64"/>
	<line x1="2368.20" y1="1282.96" x2="2385.41" y2="1282.96" style="stroke:#808080;stroke-width:8.64"/>
	<line x1="2385.41" y1="1282.96" x2="2385.41" y2="1272.68" style="stroke:#808080;stroke-width:8.64"/>
	<line x1="2385.41" y1="1272.68" x2="2395.80" y2="1272.68" style="stroke:#808080;stroke-width:8.64"/>
	<line x1="2402.73" y1="1262.41" x2="2419.81" y2="1262.41" style="stroke:#808080;stroke-width:8.64"/>
	<line x1="2419.81" y1="1262.41" x2="2419.81" y2="1252.14" style="stroke:#808080;stroke-width:8.64"/>
	<line x1="2419.81" y1="1252.14" x2="2432.80" y2="1252.14" style="stroke:#808080;stroke-width:8.64"/>
	<line x1="2439.86" y1="1241.99" x2="2454.21" y2="1241.99" style="stroke:#808080;stroke-width:8.64"/>
	<line x1="2454.21" y1="1241.99" x2="2454.21" y2="1231.72" style="stroke:#808080;stroke-width:8.64"/>
	<line x1="2454.21" y1="1231.72" x2="2469.93" y2="1231.72" style="stroke:#808080;stroke-width:8.64"/>
	<line x1="2476.98" y1="1221.57" x2="2488.61" y2="1221.57" style="stroke:#808080;stroke-width:8.64"/>
	<line x1="2488.61" y1="1221.57" x2="2488.61" y2="1211.43" style="stroke:#808080;stroke-width:8.64"/>
	<line x1="2488.61" y1="1211.43" x2="2505.81" y2="1211.43" style="stroke:#808080;stroke-width:8.64"/>
	<line x1="2505.81" y1="1211.43" x2="2505.81" y2="1210.07" style="stroke:#808080;stroke-width:8.64"/>
	<line x1="2514.48" y1="1201.40" x2="2523.01" y2="1201.40" style="stroke:#808080;stroke-width:8.64"/>
	<line x1="2523.01" y1="1201.40" x2="2523.01" y2="1191.25" style="stroke:#808080;stroke-width:8.64"/>
	<line x1="2523.01" y1="1191.25" x2="2540.22" y2="1191.25" style="stroke:#808080;stroke-width:8.64"/>
	<line x1="2540.22" y1="1191.25" x2="2540.22" y2="1186.80" style="stroke:#808080;stroke-width:8.64"/>
	<line x1="2551.85" y1="1181.23" x2="2557.42" y2="1181.23" style="stroke:#808080;stroke-width:8.64"/>
	<line x1="2557.42" y1="1181.23" x2="2557.42" y2="1171.21" style="stroke:#808080;stroke-width:8.64"/>
	<line x1="2557.42" y1="1171.21" x2="2574.62" y2="1171.21" style="stroke:#808080;stroke-width:8.64"/>
	<line x1="2574.62" y1="1171.21" x2="2574.62" y2="1163.66" style="stroke:#808080;stroke-width:8.64"/>
	<line x1="2589.34" y1="1161.18" x2="2591.70" y2="1161.18" style="stroke:#808080;stroke-width:8.64"/>
	<line x1="2591.70" y1="1161.18" x2="2591.70" y2="1151.16" style="stroke:#808080;stroke-width:8.64"/>
	<line x1="2591.70" y1="1151.16" x2="2608.90" y2="1151.16" style="stroke:#808080;stroke-width:8.64"/>
	<line x1="2608.90" y1="1151.16" x2="2608.90" y2="1141.13" style="stroke:#808080;stroke-width:8.64"/>
	<line x1="2608.90" y1="1141.13" x2="2609.64" y2="1141.13" style="stroke:#808080;stroke-width:8.64"/>
	<line x1="2626.10" y1="1140.39" x2="2626.10" y2="1131.23" style="stroke:#808080;stroke-width:8.64"/>
	<line x1="2626.10" y1="1131.23" x2="2643.30" y2="1131.23" style="stroke:#808080;stroke-width:8.64"/>
	<line x1="2643.30" y1="1131.23" x2="2643.30" y2="1121.33" style="stroke:#808080;stroke-width:8.64"/>
	<line x1="2643.30" y1="1121.33" x2="2647.38" y2="1121.33" style="stroke:#808080;stroke-width:8.64"/>
	<line x1="2660.50" y1="1117.25" x2="2660.50" y2="1111.43" style="stroke:#808080;stroke-width:8.64"/>
	<line x1="2660.50" y1="1111.43" x2="2677.70" y2="1111.43" style="stroke:#808080;stroke-width:8.64"/>
	<line x1="2677.70" y1="1111.43" x2="2677.70" y2="1101.53" style="stroke:#808080;stroke-width:8.64"/>
	<line x1="2677.70" y1="1101.53" x2="2685.13" y2="1101.53" style="stroke:#808080;stroke-width:8.64"/>
	<line x1="2694.90" y1="1093.98" x2="2694.90" y2="1091.63" style="stroke:#808080;stroke-width:8.64"/>
	<line x1="2694.90" y1="1091.63" x2="2712.11" y2="1091.63" style="stroke:#808080;stroke-width:8.64"/>
	<line x1="2712.11" y1="1091.63" x2="2712.11" y2="1081.73" style="stroke:#808080;stroke-width:8.64"/>
	<line x1="2712.11" y1="1081.73" x2="2722.99" y2="1081.73" style="stroke:#808080;stroke-width:8.64"/>
	<line x1="2730.42" y1="1071.96" x2="2746.51" y2="1071.96" style="stroke:#808080;stroke-width:8.64"/>
	<line x1="2746.51" y1="1071.96" x2="2746.51" y2="1062.18" style="stroke:#808080;stroke-width:8.64"/>
	<line x1="2746.51" y1="1062.18" x2="2760.99" y2="1062.18" style="stroke:#808080;stroke-width:8.64"/>
	<line x1="2768.41" y1="1052.40" x2="2780.91" y2="1052.40" style="stroke:#808080;stroke-width:8.64"/>
	<line x1="2780.91" y1="1052.40" x2="2780.91" y2="1042.63" style="stroke:#808080;stroke-width:8.64"/>
	<line x1="2780.91" y1="1042.63" x2="2798.11" y2="1042.63" style="stroke:#808080;stroke-width:8.64"/>
	<line x1="2798.11" y1="1042.63" x2="2798.11" y2="1041.76" style="stroke:#808080;stroke-width:8.64"/>
	<line x1="2806.53" y1="1032.85" x2="2815.31" y2="1032.85" style="stroke:#808080;stroke-width:8.64"/>
	<line x1="2815.31" y1="1032.85" x2="2815.31" y2="1023.20" style="stroke:#808080;stroke-width:8.64"/>
	<line x1="2815.31" y1="1023.20" x2="2832.39" y2="1023.20" style="stroke:#808080;stroke-width:8.64"/>
	<line x1="2832.39" y1="1023.20" x2="2832.39" y2="1018.49" style="stroke:#808080;stroke-width:8.64"/>
	<line x1="2844.76" y1="1013.54" x2="2849.59" y2="1013.54" style="stroke:#808080;stroke-width:8.64"/>
	<line x1="2849.59" y1="1013.54" x2="2849.59" y2="1003.89" style="stroke:#808080;stroke-width:8.64"/>
	<line x1="2849.59" y1="1003.89" x2="2866.79" y2="1003.89" style="stroke:#808080;stroke-width:8.64"/>
	<line x1="2866.79" y1="1003.89" x2="2866.79" y2="995.23" style="stroke:#808080;stroke-width:8.64"/>
	<line x1="2883.00" y1="994.24" x2="2883.99" y2="994.24" style="stroke:#808080;stroke-width:8.64"/>
	<line x1="2883.99" y1="994.24" x2="2883.99" y2="984.59" style="stroke:#808080;stroke-width:8.64"/>
	<line x1="2883.99" y1="984.59" x2="2901.20" y2="984.59" style="stroke:#808080;stroke-width:8.64"/>
	<line x1="2901.20" y1="984.59" x2="2901.20" y2="974.93" style="stroke:#808080;stroke-width:8.64"/>
	<line x1="2901.20" y1="974.93" x2="2904.04" y2="974.93" style="stroke:#808080;stroke-width:8.64"/>
	<line x1="2918.40" y1="972.09" x2="2918.40" y2="965.40" style="stroke:#808080;stroke-width:8.64"/>
	<line x1="2918.40" y1="965.40" x2="2935.60" y2="965.40" style="stroke:#808080;stroke-width:8.64"/>
	<line x1="2935.60" y1="965.40" x2="2935.60" y2="955.87" style="stroke:#808080;stroke-width:8.64"/>
	<line x1="2935.60" y1="955.87" x2="2942.53" y2="955.87" style="stroke:#808080;stroke-width:8.64"/>
	<line x1="2952.80" y1="948.94" x2="2952.80" y2="946.35" style="stroke:#808080;stroke-width:8.64"/>
	<line x1="2952.80" y1="946.35" x2="2970.00" y2="946.35" style="stroke:#808080;stroke-width:8.64"/>
	<line x1="2970.00" y1="946.35" x2="2970.00" y2="936.82" style="stroke:#808080;stroke-width:8.64"/>
	<line x1="2970.00" y1="936.82" x2="2981.01" y2="936.82" style="stroke:#808080;stroke-width:8.64"/>
	<line x1="2988.81" y1="927.29" x2="3004.40" y2="927.29" style="stroke:#808080;stroke-width:8.64"/>
	<line x1="3004.40" y1="927.29" x2="3004.40" y2="917.88" style="stroke:#808080;stroke-width:8.64"/>
	<line x1="3004.40" y1="917.88" x2="3019.75" y2="917.88" style="stroke:#808080;stroke-width:8.64"/>
	<line x1="3027.54" y1="908.48" x2="3038.80" y2="908.48" style="stroke:#808080;stroke-width:8.64"/>
	<line x1="3038.80" y1="908.48" x2="3038.80" y2="899.07" style="stroke:#808080;stroke-width:8.64"/>
	<line x1="3038.80" y1="899.07" x2="3055.88" y2="899.07" style="stroke:#808080;stroke-width:8.64"/>
	<line x1="3055.88" y1="899.07" x2="3055.88" y2="896.47" style="stroke:#808080;stroke-width:8.64"/>
	<line x1="3066.28" y1="889.67" x2="3073.08" y2="889.67" style="stroke:#808080;stroke-width:8.64"/>
	<line x1="3073.08" y1="889.67" x2="3073.08" y2="880.26" style="stroke:#808080;stroke-width:8.64"/>
	<line x1="3073.08" y1="880.26" x2="3090.28" y2="880.26" style="stroke:#808080;stroke-width:8.64"/>
	<line x1="3090.28" y1="880.26" x2="3090.28" y2="873.33" style="stroke:#808080;stroke-width:8.64"/>
	<line x1="3105.01" y1="870.86" x2="3107.49" y2="870.86" style="stroke:#808080;stroke-width:8.64"/>
	<line x1="3107.49" y1="870.86" x2="3107.49" y2="861.57" style="stroke:#808080;stroke-width:8.64"/>
	<line x1="3107.49" y1="861.57" x2="3124.69" y2="861.57" style="stroke:#808080;stroke-width:8.64"/>
	<line x1="3124.69" y1="861.57" x2="3124.69" y2="852.29" style="stroke:#808080;stroke-width:8.64"/>
	<line x1="3124.69" y1="852.29" x2="3126.79" y2="852.29" style="stroke:#808080;stroke-width:8.64"/>
	<line x1="3141.89" y1="850.07" x2="3141.89" y2="843.01" style="stroke:#808080;stroke-width:8.64"/>
	<line x1="3141.89" y1="843.01" x2="3159.09" y2="843.01" style="stroke:#808080;stroke-width:8.64"/>
	<line x1="3159.09" y1="843.01" x2="3159.09" y2="833.73" style="stroke:#808080;stroke-width:8.64"/>
	<line x1="3159.09" y1="833.73" x2="3165.77" y2="833.73" style="stroke:#808080;stroke-width:8.64"/>
	<line x1="3176.29" y1="826.92" x2="3176.29" y2="824.45" style="stroke:#808080;stroke-width:8.64"/>
	<line x1="3176.29" y1="824.45" x2="3193.49" y2="824.45" style="stroke:#808080;stroke-width:8.64"/>
	<line x1="3193.49" y1="824.45" x2="3193.49" y2="815.29" style="stroke:#808080;stroke-width:8.64"/>
	<line x1="3193.49" y1="815.29" x2="3205.00" y2="815.29" style="stroke:#808080;stroke-width:8.64"/>
	<line x1="3212.92" y1="806.01" x2="3227.89" y2="806.01" style="stroke:#808080;stroke-width:8.64"/>
	<line x1="3227.89" y1="806.01" x2="3227.89" y2="796.85" style="stroke:#808080;stroke-width:8.64"/>
	<line x1="3227.89" y1="796.85" x2="3244.11" y2="796.85" style="stroke:#808080;stroke-width:8.64"/>
	<line x1="3252.15" y1="787.69" x2="3262.30" y2="787.69" style="stroke:#808080;stroke-width:8.64"/>
	<line x1="3262.30" y1="787.69" x2="3262.30" y2="778.66" style="stroke:#808080;stroke-width:8.64"/>
	<line x1="3262.30" y1="778.66" x2="3279.50" y2="778.66" style="stroke:#808080;stroke-width:8.64"/>
	<line x1="3279.50" y1="778.66" x2="3279.50" y2="774.70" style="stroke:#808080;stroke-width:8.64"/>
	<line x1="3291.50" y1="769.50" x2="3296.58" y2="769.50" style="stroke:#808080;stroke-width:8.64"/>
	<line x1="3296.58" y1="769.50" x2="3296.58" y2="760.47" style="stroke:#808080;stroke-width:8.64"/>
	<line x1="3296.58" y1="760.47" x2="3313.78" y2="760.47" style="stroke:#808080;stroke-width:8.64"/>
	<line x1="3313.78" y1="760.47" x2="3313.78" y2="751.43" style="stroke:#808080;stroke-width:8.64"/>
	<line x1="3330.86" y1="751.31" x2="3330.98" y2="751.31" style="stroke:#808080;stroke-width:8.64"/>
	<line x1="3330.98" y1="751.31" x2="3330.98" y2="742.28" style="stroke:#808080;stroke-width:8.64"/>
	<line x1="3330.98" y1="742.28" x2="3348.18" y2="742.28" style="stroke:#808080;stroke-width:8.64"/>
	<line x1="3348.18" y1="742.28" x2="3348.18" y2="733.24" style="stroke:#808080;stroke-width:8.64"/>
	<line x1="3348.18" y1="733.24" x2="3353.25" y2="733.24" style="stroke:#808080;stroke-width:8.64"/>
	<line x1="3365.38" y1="728.17" x2="3365.38" y2="724.21" style="stroke:#808080;stroke-width:8.64"/>
	<line x1="3365.38" y1="724.21" x2="3382.58" y2="724.21" style="stroke:#808080;stroke-width:8.64"/>
	<line x1="3382.58" y1="724.21" x2="3382.58" y2="715.30" style="stroke:#808080;stroke-width:8.64"/>
	<line x1="3382.58" y1="715.30" x2="3392.85" y2="715.30" style="stroke:#808080;stroke-width:8.64"/>
	<line x1="3401.02" y1="706.26" x2="3416.99" y2="706.26" style="stroke:#808080;stroke-width:8.64"/>
	<line x1="3416.99" y1="706.26" x2="3416.99" y2="697.35" style="stroke:#808080;stroke-width:8.64"/>
	<line x1="3416.99" y1="697.35" x2="3432.45" y2="697.35" style="stroke:#808080;stroke-width:8.64"/>
	<line x1="3440.87" y1="688.44" x2="3451.39" y2="688.44" style="stroke:#808080;stroke-width:8.64"/>
	<line x1="3451.39" y1="688.44" x2="3451.39" y2="679.53" style="stroke:#808080;stroke-width:8.64"/>
	<line x1="3451.39" y1="679.53" x2="3468.59" y2="679.53" style="stroke:#808080;stroke-width:8.64"/>
	<line x1="3468.59" y1="679.53" x2="3468.59" y2="675.94" style="stroke:#808080;stroke-width:8.64"/>
	<line x1="3480.59" y1="670.62" x2="3485.79" y2="670.62" style="stroke:#808080;stroke-width:8.64"/>
	<line x1="3485.79" y1="670.62" x2="3485.79" y2="661.71" style="stroke:#808080;stroke-width:8.64"/>
	<line x1="3485.79" y1="661.71" x2="3502.99" y2="661.71" style="stroke:#808080;stroke-width:8.64"/>
	<line x1="3502.99" y1="661.71" x2="3502.99" y2="652.93" style="stroke:#808080;stroke-width:8.64"/>
	<line x1="3502.99" y1="652.93" x2="3503.24" y2="652.93" style="stroke:#808080;stroke-width:8.64"/>
	<line x1="3520.19" y1="652.68" x2="3520.19" y2="644.14" style="stroke:#808080;stroke-width:8.64"/>
	<line x1="3520.19" y1="644.14" x2="3537.27" y2="644.14" style="stroke:#808080;stroke-width:8.64"/>
	<line x1="3537.27" y1="644.14" x2="3537.27" y2="635.35" style="stroke:#808080;stroke-width:8.64"/>
	<line x1="3537.27" y1="635.35" x2="3543.21" y2="635.35" style="stroke:#808080;stroke-width:8.64"/>
	<line x1="3554.47" y1="629.41" x2="3554.47" y2="626.57" style="stroke:#808080;stroke-width:8.64"/>
	<line x1="3554.47" y1="626.57" x2="3571.67" y2="626.57" style="stroke:#808080;stroke-width:8.64"/>
	<line x1="3571.67" y1="626.57" x2="3571.67" y2="617.78" style="stroke:#808080;stroke-width:8.64"/>
	<line x1="3571.67" y1="617.78" x2="3583.18" y2="617.78" style="stroke:#808080;stroke-width:8.64"/>
	<line x1="3591.72" y1="608.99" x2="3606.07" y2="608.99" style="stroke:#808080;stroke-width:8.64"/>
	<line x1="3606.07" y1="608.99" x2="3606.07" y2="600.33" style="stroke:#808080;stroke-width:8.64"/>
	<line x1="3606.07" y1="600.33" x2="3623.28" y2="600.33" style="stroke:#808080;stroke-width:8.64"/>
	<line x1="3631.69" y1="591.54" x2="3640.48" y2="591.54" style="stroke:#808080;stroke-width:8.64"/>
	<line x1="3640.48" y1="591.54" x2="3640.48" y2="582.88" style="stroke:#808080;stroke-width:8.64"/>
	<line x1="3640.48" y1="582.88" x2="3657.68" y2="582.88" style="stroke:#808080;stroke-width:8.64"/>
	<line x1="3657.68" y1="582.88" x2="3657.68" y2="577.19" style="stroke:#808080;stroke-width:8.64"/>
	<line x1="3672.03" y1="574.22" x2="3674.88" y2="574.22" style="stroke:#808080;stroke-width:8.64"/>
	<line x1="3674.88" y1="574.22" x2="3674.88" y2="565.56" style="stroke:#808080;stroke-width:8.64"/>
	<line x1="3674.88" y1="565.56" x2="3692.08" y2="565.56" style="stroke:#808080;stroke-width:8.64"/>
	<line x1="3692.08" y1="565.56" x2="3692.08" y2="556.89" style="stroke:#808080;stroke-width:8.64"/>
	<line x1="3692.08" y1="556.89" x2="3694.93" y2="556.89" style="stroke:#808080;stroke-width:8.64"/>
	<line x1="3709.28" y1="553.92" x2="3709.28" y2="548.23" style="stroke:#808080;stroke-width:8.64"/>
	<line x1="3709.28" y1="548.23" x2="3726.48" y2="548.23" style="stroke:#808080;stroke-width:8.64"/>
	<line x1="3726.48" y1="548.23" x2="3726.48" y2="539.69" style="stroke:#808080;stroke-width:8.64"/>
	<line x1="3726.48" y1="539.69" x2="3735.39" y2="539.69" style="stroke:#808080;stroke-width:8.64"/>
	<line x1="3744.06" y1="531.15" x2="3760.89" y2="531.15" style="stroke:#808080;stroke-width:8.64"/>
	<line x1="3760.89" y1="531.15" x2="3760.89" y2="522.61" style="stroke:#808080;stroke-width:8.64"/>
	<line x1="3760.89" y1="522.61" x2="3775.86" y2="522.61" style="stroke:#808080;stroke-width:8.64"/>
	<line x1="3784.52" y1="513.95" x2="3795.16" y2="513.95" style="stroke:#808080;stroke-width:8.64"/>
	<line x1="3795.16" y1="513.95" x2="3795.16" y2="505.53" style="stroke:#808080;stroke-width:8.64"/>
	<path d="" stroke-linejoin="round" style="fill:none;stroke:#808080;stroke-width:8.64"/>
	<path d=" M717.75 2340.93 L734.95 2340.93 L734.95 2329.54 L752.15 2329.54 L752.15 2318.28 L769.35 2318.28 L769.35 2306.90 L786.55 2306.90 L786.55 2295.63 L803.76 2295.63 L803.76 2284.25 L820.96 2284.25 L820.96 2272.99 L838.16 2272.99 L838.16 2261.60 L855.36 2261.60 L855.36 2250.34 L872.56 2250.34 L872.56 2239.08 L889.76 2239.08 L889.76 2227.69 L906.84 2227.69 L906.84 2216.43 L924.04 2216.43 L924.04 2205.05 L941.24 2205.05 L941.24 2193.78 L958.44 2193.78 L958.44 2182.40 L975.64 2182.40 L975.64 2171.14 L992.85 2171.14 L992.85 2159.75 L1010.05 2159.75 L1010.05 2148.49 L1027.25 2148.49 L1027.25 2137.11 L1044.45 2137.11 L1044.45 2125.84 L1061.65 2125.84 L1061.65 2114.58 L1078.85 2114.58 L1078.85 2103.20 L1096.05 2103.20 L1096.05 2091.94 L1113.26 2091.94 L1113.26 2080.55 L1130.46 2080.55 L1130.46 2069.29 L1147.53 2069.29 L1147.53 2058.03 L1164.73 2058.03 L1164.73 2046.64 L1181.94 2046.64 L1181.94 2035.38 L1199.14 2035.38 L1199.14 2024.12 L1216.34 2024.12 L1216.34 2012.73 L1233.54 2012.73 L1233.54 2001.47 L1250.74 2001.47 L1250.74 1990.21 L1267.94 1990.21 L1267.94 1978.95 L1285.14 1978.95 L1285.14 1967.69 L1302.35 1967.69 L1302.35 1956.42 L1319.55 1956.42 L1319.55 1945.16 L1336.75 1945.16 L1336.75 1933.90 L1353.95 1933.90 L1353.95 1922.64 L1371.15 1922.64 L1371.15 1911.38 L1388.23 1911.38 L1388.23 1900.12 L1405.43 1900.12 L1405.43 1888.98 L1422.63 1888.98 L1422.63 1877.72 L1439.83 1877.72 L1439.83 1866.58 L1457.03 1866.58 L1457.03 1855.32 L1474.23 1855.32 L1474.23 1844.18 L1491.43 1844.18 L1491.43 1833.04 L1508.64 1833.04 L1508.64 1821.90 L1525.84 1821.90 L1525.84 1810.77 L1543.04 1810.77 L1543.04 1799.63 L1560.24 1799.63 L1560.24 1788.49 L1577.44 1788.49 L1577.44 1777.35 L1594.64 1777.35 L1594.64 1766.34 L1611.84 1766.34 L1611.84 1755.32 L1628.92 1755.32 L1628.92 1744.19 L1646.12 1744.19 L1646.12 1733.17 L1663.32 1733.17 L1663.32 1722.16 L1680.53 1722.16 L1680.53 1711.14 L1697.73 1711.14 L1697.73 1700.13 L1714.93 1700.13 L1714.93 1689.24 L1732.13 1689.24 L1732.13 1678.23 L1749.33 1678.23 L1749.33 1667.34 L1766.53 1667.34 L1766.53 1656.45 L1783.73 1656.45 L1783.73 1645.56 L1800.93 1645.56 L1800.93 1634.66 L1818.13 1634.66 L1818.13 1623.77 L1835.34 1623.77 L1835.34 1613.01 L1852.54 1613.01 L1852.54 1602.12 L1869.62 1602.12 L1869.62 1591.35 L1886.82 1591.35 L1886.82 1580.58 L1904.02 1580.58 L1904.02 1569.82 L1921.22 1569.82 L1921.22 1559.17 L1938.42 1559.17 L1938.42 1548.41 L1955.62 1548.41 L1955.62 1537.77 L1972.82 1537.77 L1972.82 1527.12 L1990.02 1527.12 L1990.02 1516.48 L2007.22 1516.48 L2007.22 1505.84 L2024.43 1505.84 L2024.43 1495.19 L2041.63 1495.19 L2041.63 1484.68 L2058.83 1484.68 L2058.83 1474.03 L2076.03 1474.03 L2076.03 1463.51 L2093.23 1463.51 L2093.23 1452.99 L2110.31 1452.99 L2110.31 1442.48 L2127.51 1442.48 L2127.51 1432.08 L2144.71 1432.08 L2144.71 1421.56 L2161.91 1421.56 L2161.91 1411.17 L2179.11 1411.17 L2179.11 1400.77 L2196.32 1400.77 L2196.32 1390.37 L2213.52 1390.37 L2213.52 1379.98 L2230.72 1379.98 L2230.72 1369.71 L2247.92 1369.71 L2247.92 1359.31 L2265.12 1359.31 L2265.12 1349.04 L2282.32 1349.04 L2282.32 1338.77 L2299.52 1338.77 L2299.52 1328.50 L2316.72 1328.50 L2316.72 1318.35 L2333.93 1318.35 L2333.93 1308.08 L2351.00 1308.08 L2351.00 1297.93 L2368.20 1297.93 L2368.20 1287.78 L2385.41 1287.78 L2385.41 1277.63 L2402.61 1277.63 L2402.61 1267.61 L2419.81 1267.61 L2419.81 1257.46 L2437.01 1257.46 L2437.01 1247.44 L2454.21 1247.44 L2454.21 1237.41 L2471.41 1237.41 L2471.41 1227.39 L2488.61 1227.39 L2488.61 1217.37 L2505.81 1217.37 L2505.81 1207.34 L2523.01 1207.34 L2523.01 1197.44 L2540.22 1197.44 L2540.22 1187.54 L2557.42 1187.54 L2557.42 1177.64 L2574.62 1177.64 L2574.62 1167.74 L2591.70 1167.74 L2591.70 1157.84 L2608.90 1157.84 L2608.90 1148.06 L2626.10 1148.06 L2626.10 1138.29 L2643.30 1138.29 L2643.30 1128.51 L2660.50 1128.51 L2660.50 1118.73 L2677.70 1118.73 L2677.70 1108.96 L2694.90 1108.96 L2694.90 1099.31 L2712.11 1099.31 L2712.11 1089.65 L2729.31 1089.65 L2729.31 1080.00 L2746.51 1080.00 L2746.51 1070.35 L2763.71 1070.35 L2763.71 1060.69 L2780.91 1060.69 L2780.91 1051.17 L2798.11 1051.17 L2798.11 1041.51 L2815.31 1041.51 L2815.31 1031.98 L2832.39 1031.98 L2832.39 1022.45 L2849.59 1022.45 L2849.59 1013.05 L2866.79 1013.05 L2866.79 1003.52 L2883.99 1003.52 L2883.99 994.11 L2901.20 994.11 L2901.20 984.59 L2918.40 984.59 L2918.40 975.18 L2935.60 975.18 L2935.60 965.90 L2952.80 965.90 L2952.80 956.49 L2970.00 956.49 L2970.00 947.09 L2987.20 947.09 L2987.20 937.81 L3004.40 937.81 L3004.40 928.53 L3021.60 928.53 L3021.60 919.24 L3038.80 919.24 L3038.80 909.96 L3055.88 909.96 L3055.88 900.80 L3073.08 900.80 L3073.08 891.52 L3090.28 891.52 L3090.28 882.37 L3107.49 882.37 L3107.49 873.21 L3124.69 873.21 L3124.69 864.05 L3141.89 864.05 L3141.89 855.02 L3159.09 855.02 L3159.09 845.86 L3176.29 845.86 L3176.29 836.82 L3193.49 836.82 L3193.49 827.79 L3210.69 827.79 L3210.69 818.76 L3227.89 818.76 L3227.89 809.72 L3245.10 809.72 L3245.10 800.69 L3262.30 800.69 L3262.30 791.78 L3279.50 791.78 L3279.50 782.87 L3296.58 782.87 L3296.58 773.96 L3313.78 773.96 L3313.78 765.05 L3330.98 765.05 L3330.98 756.14 L3348.18 756.14 L3348.18 747.23 L3365.38 747.23 L3365.38 738.44 L3382.58 738.44 L3382.58 729.65 L3399.78 729.65 L3399.78 720.87 L3416.99 720.87 L3416.99 712.08 L3434.19 712.08 L3434.19 703.29 L3451.39 703.29 L3451.39 694.51 L3468.59 694.51 L3468.59 685.84 L3485.79 685.84 L3485.79 677.18 L3502.99 677.18 L3502.99 668.52 L3520.19 668.52 L3520.19 659.86 L3537.27 659.86 L3537.27 651.19 L3554.47 651.19 L3554.47 642.53 L3571.67 642.53 L3571.67 633.99 L3588.87 633.99 L3588.87 625.45 L3606.07 625.45 L3606.07 616.91 L3623.28 616.91 L3623.28 608.37 L3640.48 608.37 L3640.48 599.83 L3657.68 599.83 L3657.68 591.30 L3674.88 591.30 L3674.88 582.88 L3692.08 582.88 L3692.08 574.34 L3709.28 574.34 L3709.28 565.93 L3726.48 565.93 L3726.48 557.51 L3743.68 557.51 L3743.68 549.10 L3760.89 549.10 L3760.89 540.80 L3777.96 540.80 L3777.96 532.39 L3795.16 532.39 L3795.16 524.10" stroke-linejoin="round" style="fill:none;stroke:#000000;stroke-width:8.64"/>
	<line x1="495.00" y1="2509.23" x2="495.00" y2="419.90" style="stroke:#000000;stroke-width:5.76"/>
	<line x1="495.00" y1="2445.87" x2="454.90" y2="2445.87" style="stroke:#000000;stroke-width:5.76"/>
	<text x="434.98" y="2480.90" style="font-family:'Helvetica';font-size:99.99px;fill:#000000" text-anchor="end">0</text>
	<line x1="495.00" y1="2340.80" x2="454.90" y2="2340.80" style="stroke:#000000;stroke-width:5.76"/>
	<text x="434.98" y="2375.83" style="font-family:'Helvetica';font-size:99.99px;fill:#000000" text-anchor="end">90</text>
	<line x1="495.00" y1="2235.74" x2="454.90" y2="2235.74" style="stroke:#000000;stroke-width:5.76"/>
	<text x="434.98" y="2270.77" style="font-family:'Helvetica';font-size:99.99px;fill:#000000" text-anchor="end">180</text>
	<line x1="495.00" y1="2130.79" x2="454.90" y2="2130.79" style="stroke:#000000;stroke-width:5.76"/>
	<text x="434.98" y="2165.82" style="font-family:'Helvetica';font-size:99.99px;fill:#000000" text-anchor="end">270</text>
	<line x1="495.00" y1="2025.73" x2="454.90" y2="2025.73" style="stroke:#000000;stroke-width:5.76"/>
	<text x="434.98" y="2060.76" style="font-family:'Helvetica';font-size:99.99px;fill:#000000" text-anchor="end">360</text>
	<text x="190.71" y="1464.63" style="font-family:'Helvetica';font-size:99.99px;fill:#000000" transform="rotate(-90 190.71,1464.63)" text-anchor="middle">LOS (years)</text>
	<line x1="495.00" y1="2509.23" x2="3859.02" y2="2509.23" style="stroke:#000000;stroke-width:5.76"/>
	<line x1="558.36" y1="2509.23" x2="558.36" y2="2549.21" style="stroke:#000000;stroke-width:5.76"/>
	<text x="558.36" y="2625.15" style="font-family:'Helvetica';font-size:79.94px;fill:#000000" text-anchor="middle">0</text>
	<line x1="752.52" y1="2509.23" x2="752.52" y2="2549.21" style="stroke:#000000;stroke-width:5.76"/>
	<text x="752.52" y="2625.15" style="font-family:'Helvetica';font-size:79.94px;fill:#000000" text-anchor="middle">.3</text>
	<line x1="946.81" y1="2509.23" x2="946.81" y2="2549.21" style="stroke:#000000;stroke-width:5.76"/>
	<text x="946.81" y="2625.15" style="font-family:'Helvetica';font-size:79.94px;fill:#000000" text-anchor="middle">.6</text>
	<line x1="1141.10" y1="2509.23" x2="1141.10" y2="2549.21" style="stroke:#000000;stroke-width:5.76"/>
	<text x="1141.10" y="2625.15" style="font-family:'Helvetica';font-size:79.94px;fill:#000000" text-anchor="middle">.9</text>
	<line x1="1335.26" y1="2509.23" x2="1335.26" y2="2549.21" style="stroke:#000000;stroke-width:5.76"/>
	<text x="1335.26" y="2625.15" style="font-family:'Helvetica';font-size:79.94px;fill:#000000" text-anchor="middle">1.2</text>
	<line x1="1529.55" y1="2509.23" x2="1529.55" y2="2549.21" style="stroke:#000000;stroke-width:5.76"/>
	<text x="1529.55" y="2625.15" style="font-family:'Helvetica';font-size:79.94px;fill:#000000" text-anchor="middle">1.5</text>
	<line x1="1723.71" y1="2509.23" x2="1723.71" y2="2549.21" style="stroke:#000000;stroke-width:5.76"/>
	<text x="1723.71" y="2625.15" style="font-family:'Helvetica';font-size:79.94px;fill:#000000" text-anchor="middle">1.8</text>
	<line x1="1918.00" y1="2509.23" x2="1918.00" y2="2549.21" style="stroke:#000000;stroke-width:5.76"/>
	<text x="1918.00" y="2625.15" style="font-family:'Helvetica';font-size:79.94px;fill:#000000" text-anchor="middle">2.1</text>
	<line x1="2112.29" y1="2509.23" x2="2112.29" y2="2549.21" style="stroke:#000000;stroke-width:5.76"/>
	<text x="2112.29" y="2625.15" style="font-family:'Helvetica';font-size:79.94px;fill:#000000" text-anchor="middle">2.4</text>
	<line x1="2306.45" y1="2509.23" x2="2306.45" y2="2549.21" style="stroke:#000000;stroke-width:5.76"/>
	<text x="2306.45" y="2625.15" style="font-family:'Helvetica';font-size:79.94px;fill:#000000" text-anchor="middle">2.7</text>
	<line x1="2500.74" y1="2509.23" x2="2500.74" y2="2549.21" style="stroke:#000000;stroke-width:5.76"/>
	<text x="2500.74" y="2625.15" style="font-family:'Helvetica';font-size:79.94px;fill:#000000" text-anchor="middle">3</text>
	<line x1="2695.03" y1="2509.23" x2="2695.03" y2="2549.21" style="stroke:#000000;stroke-width:5.76"/>
	<text x="2695.03" y="2625.15" style="font-family:'Helvetica';font-size:79.94px;fill:#000000" text-anchor="middle">3.3</text>
	<line x1="2889.19" y1="2509.23" x2="2889.19" y2="2549.21" style="stroke:#000000;stroke-width:5.76"/>
	<text x="2889.19" y="2625.15" style="font-family:'Helvetica';font-size:79.94px;fill:#000000" text-anchor="middle">3.6</text>
	<line x1="3083.48" y1="2509.23" x2="3083.48" y2="2549.21" style="stroke:#000000;stroke-width:5.76"/>
	<text x="3083.48" y="2625.15" style="font-family:'Helvetica';font-size:79.94px;fill:#000000" text-anchor="middle">3.9</text>
	<line x1="3277.77" y1="2509.23" x2="3277.77" y2="2549.21" style="stroke:#000000;stroke-width:5.76"/>
	<text x="3277.77" y="2625.15" style="font-family:'Helvetica';font-size:79.94px;fill:#000000" text-anchor="middle">4.2</text>
	<line x1="3471.93" y1="2509.23" x2="3471.93" y2="2549.21" style="stroke:#000000;stroke-width:5.76"/>
	<text x="3471.93" y="2625.15" style="font-family:'Helvetica';font-size:79.94px;fill:#000000" text-anchor="middle">4.5</text>
	<line x1="3666.22" y1="2509.23" x2="3666.22" y2="2549.21" style="stroke:#000000;stroke-width:5.76"/>
	<text x="3666.22" y="2625.15" style="font-family:'Helvetica';font-size:79.94px;fill:#000000" text-anchor="middle">4.8</text>
	<line x1="3860.51" y1="2509.23" x2="3860.51" y2="2549.21" style="stroke:#000000;stroke-width:5.76"/>
	<text x="3860.51" y="2625.15" style="font-family:'Helvetica';font-size:79.94px;fill:#000000" text-anchor="middle">5.1</text>
	<text x="2177.01" y="2729.16" style="font-family:'Helvetica';font-size:99.99px;fill:#000000" text-anchor="middle">Time (years)</text>
	<rect x="529.53" y="454.42" width="1384.02" height="606.39" style="fill:#FFFFFF"/>
	<rect x="532.41" y="457.30" width="1378.26" height="600.63" style="fill:none;stroke:#000000;stroke-width:5.76"/>
	<rect x="572.72" y="497.74" width="374.34" height="99.99" style="fill:#999999;fill-opacity:0.35"/>
	<rect x="577.03" y="502.06" width="365.70" height="91.35" style="fill:none;stroke:#808080;stroke-opacity:0.35;stroke-width:8.64"/>
	<rect x="572.72" y="637.70" width="374.34" height="99.99" style="fill:#333333;fill-opacity:0.35"/>
	<rect x="577.03" y="642.02" width="365.70" height="91.35" style="fill:none;stroke:#000000;stroke-opacity:0.35;stroke-width:8.64"/>
	<line x1="572.72" y1="827.67" x2="613.06" y2="827.67" style="stroke:#808080;stroke-width:8.64"/>
	<line x1="630.26" y1="827.67" x2="670.60" y2="827.67" style="stroke:#808080;stroke-width:8.64"/>
	<line x1="687.93" y1="827.67" x2="728.27" y2="827.67" style="stroke:#808080;stroke-width:8.64"/>
	<line x1="745.47" y1="827.67" x2="785.81" y2="827.67" style="stroke:#808080;stroke-width:8.64"/>
	<line x1="803.01" y1="827.67" x2="843.36" y2="827.67" style="stroke:#808080;stroke-width:8.64"/>
	<line x1="860.56" y1="827.67" x2="900.90" y2="827.67" style="stroke:#808080;stroke-width:8.64"/>
	<line x1="918.23" y1="827.67" x2="947.06" y2="827.67" style="stroke:#808080;stroke-width:8.64"/>
	<line x1="572.72" y1="967.63" x2="947.06" y2="967.63" style="stroke:#000000;stroke-width:8.64"/>
	<text x="1007.08" y="582.76" style="font-family:'Helvetica';font-size:99.99px;fill:#000000">Ambulatory CI95%</text>
	<text x="1007.08" y="722.73" style="font-family:'Helvetica';font-size:99.99px;fill:#000000">Residential CI95%</text>
	<text x="1007.08" y="862.69" style="font-family:'Helvetica';font-size:99.99px;fill:#000000">Ambulatory</text>
	<text x="1007.08" y="1002.66" style="font-family:'Helvetica';font-size:99.99px;fill:#000000">Residential</text>
	<text x="2177.01" y="369.63" style="font-family:'Helvetica';font-size:110.01px;fill:#000000" text-anchor="middle">in Readmission (TNC)</text>
	<text x="2177.01" y="215.98" style="font-family:'Helvetica';font-size:139.96px;fill:#1E2D53" text-anchor="middle">Length of Stay(3y)</text>
</svg>
