<?xml version="1.0" encoding="UTF-8" standalone="no"?>
<!-- This is a Stata 16.1 generated SVG file (http://www.stata.com) -->

<svg version="1.1" width="5.50in" height="4.00in" viewBox="0 0 3960 2880" xmlns="http://www.w3.org/2000/svg" xmlns:xlink="http://www.w3.org/1999/xlink">
	<desc>Stata Graph - los_models_22_3y_22</desc>
	<rect x="0" y="0" width="3960" height="2880" style="fill:#EAF2F3;stroke:none"/>
	<rect x="0.00" y="0.00" width="3959.88" height="2880.00" style="fill:#FFFFFF"/>
	<rect x="2.88" y="2.88" width="3954.12" height="2874.24" style="fill:none;stroke:#FFFFFF;stroke-width:5.76"/>
	<rect x="495.00" y="419.90" width="3364.02" height="2089.34" style="fill:#FFFFFF"/>
	<rect x="497.88" y="422.78" width="3358.26" height="2083.58" style="fill:none;stroke:#FFFFFF;stroke-width:5.76"/>
	<line x1="495.00" y1="2322.49" x2="3859.02" y2="2322.49" style="stroke:#EAF2F3;stroke-width:8.64"/>
	<line x1="495.00" y1="2199.11" x2="3859.02" y2="2199.11" style="stroke:#EAF2F3;stroke-width:8.64"/>
	<line x1="495.00" y1="2075.85" x2="3859.02" y2="2075.85" style="stroke:#EAF2F3;stroke-width:8.64"/>
	<line x1="495.00" y1="1952.46" x2="3859.02" y2="1952.46" style="stroke:#EAF2F3;stroke-width:8.64"/>
	<defs>
		<path id="path_hvLCplWy" d="M717.87 2323.73 L717.87 2323.73 L735.08 2323.73 L735.08 2310.73 L752.28 2310.73 L752.28 2297.86 L769.48 2297.86 L769.48 2285.12 L786.55 2285.12 L786.55 2272.37 L803.76 2272.37 L803.76 2259.62 L820.96 2259.62 L820.96 2247.00 L838.16 2247.00 L838.16 2234.38 L855.36 2234.38 L855.36 2221.88 L872.56 2221.88 L872.56 2209.38 L889.76 2209.38 L889.76 2197.00 L906.96 2197.00 L906.96 2184.63 L924.16 2184.63 L924.16 2172.25 L941.37 2172.25 L941.37 2160.00 L958.57 2160.00 L958.57 2147.75 L975.77 2147.75 L975.77 2135.62 L992.97 2135.62 L992.97 2123.49 L1010.17 2123.49 L1010.17 2111.36 L1027.25 2111.36 L1027.25 2099.36 L1044.45 2099.36 L1044.45 2087.48 L1061.65 2087.48 L1061.65 2075.48 L1078.85 2075.48 L1078.85 2063.60 L1096.05 2063.60 L1096.05 2051.84 L1113.26 2051.84 L1113.26 2040.08 L1130.46 2040.08 L1130.46 2028.33 L1147.66 2028.33 L1147.66 2016.57 L1164.86 2016.57 L1164.86 2004.94 L1182.06 2004.94 L1182.06 1993.30 L1199.26 1993.30 L1199.26 1981.79 L1216.46 1981.79 L1216.46 1970.29 L1233.66 1970.29 L1233.66 1958.78 L1250.87 1958.78 L1250.87 1947.39 L1267.94 1947.39 L1267.94 1936.01 L1285.14 1936.01 L1285.14 1924.62 L1302.35 1924.62 L1302.35 1913.36 L1319.55 1913.36 L1319.55 1902.10 L1336.75 1902.10 L1336.75 1890.84 L1353.95 1890.84 L1353.95 1879.70 L1371.15 1879.70 L1371.15 1868.56 L1388.35 1868.56 L1388.35 1857.42 L1405.55 1857.42 L1405.55 1846.28 L1422.75 1846.28 L1422.75 1835.27 L1439.95 1835.27 L1439.95 1824.26 L1457.16 1824.26 L1457.16 1813.37 L1474.36 1813.37 L1474.36 1802.48 L1491.56 1802.48 L1491.56 1791.58 L1508.64 1791.58 L1508.64 1780.69 L1525.84 1780.69 L1525.84 1769.93 L1543.04 1769.93 L1543.04 1759.16 L1560.24 1759.16 L1560.24 1748.39 L1577.44 1748.39 L1577.44 1737.75 L1594.64 1737.75 L1594.64 1726.99 L1611.84 1726.99 L1611.84 1716.47 L1629.05 1716.47 L1629.05 1705.82 L1646.25 1705.82 L1646.25 1695.30 L1663.45 1695.30 L1663.45 1684.66 L1680.65 1684.66 L1680.65 1674.27 L1697.85 1674.27 L1697.85 1663.75 L1715.05 1663.75 L1715.05 1653.35 L1732.25 1653.35 L1732.25 1642.96 L1749.33 1642.96 L1749.33 1632.56 L1766.53 1632.56 L1766.53 1622.17 L1783.73 1622.17 L1783.73 1611.89 L1800.93 1611.89 L1800.93 1601.62 L1818.13 1601.62 L1818.13 1591.35 L1835.34 1591.35 L1835.34 1581.08 L1852.54 1581.08 L1852.54 1570.93 L1869.74 1570.93 L1869.74 1560.78 L1886.94 1560.78 L1886.94 1550.64 L1904.14 1550.64 L1904.14 1540.49 L1921.34 1540.49 L1921.34 1530.46 L1938.54 1530.46 L1938.54 1520.32 L1955.74 1520.32 L1955.74 1510.29 L1972.95 1510.29 L1972.95 1500.27 L1990.02 1500.27 L1990.02 1490.37 L2007.22 1490.37 L2007.22 1480.34 L2024.43 1480.34 L2024.43 1470.44 L2041.63 1470.44 L2041.63 1460.54 L2058.83 1460.54 L2058.83 1450.64 L2076.03 1450.64 L2076.03 1440.87 L2093.23 1440.87 L2093.23 1430.97 L2110.43 1430.97 L2110.43 1421.19 L2127.63 1421.19 L2127.63 1411.41 L2144.84 1411.41 L2144.84 1401.64 L2162.04 1401.64 L2162.04 1391.98 L2179.24 1391.98 L2179.24 1382.33 L2196.44 1382.33 L2196.44 1372.55 L2213.64 1372.55 L2213.64 1363.03 L2230.72 1363.03 L2230.72 1353.37 L2247.92 1353.37 L2247.92 1343.72 L2265.12 1343.72 L2265.12 1334.19 L2282.32 1334.19 L2282.32 1324.66 L2299.52 1324.66 L2299.52 1315.13 L2316.72 1315.13 L2316.72 1305.60 L2333.93 1305.60 L2333.93 1296.20 L2351.13 1296.20 L2351.13 1286.67 L2368.33 1286.67 L2368.33 1277.26 L2385.53 1277.26 L2385.53 1267.86 L2402.73 1267.86 L2402.73 1258.45 L2419.93 1258.45 L2419.93 1249.05 L2437.13 1249.05 L2437.13 1239.77 L2454.33 1239.77 L2454.33 1230.48 L2471.41 1230.48 L2471.41 1221.20 L2488.61 1221.20 L2488.61 1211.92 L2505.81 1211.92 L2505.81 1202.64 L2523.01 1202.64 L2523.01 1193.36 L2540.22 1193.36 L2540.22 1184.20 L2557.42 1184.20 L2557.42 1175.04 L2574.62 1175.04 L2574.62 1165.89 L2591.82 1165.89 L2591.82 1156.73 L2609.02 1156.73 L2609.02 1147.57 L2626.22 1147.57 L2626.22 1138.41 L2643.42 1138.41 L2643.42 1129.38 L2660.63 1129.38 L2660.63 1120.22 L2677.83 1120.22 L2677.83 1111.19 L2695.03 1111.19 L2695.03 1102.15 L2712.11 1102.15 L2712.11 1093.12 L2729.31 1093.12 L2729.31 1084.08 L2746.51 1084.08 L2746.51 1075.17 L2763.71 1075.17 L2763.71 1066.14 L2780.91 1066.14 L2780.91 1057.23 L2798.11 1057.23 L2798.11 1048.32 L2815.31 1048.32 L2815.31 1039.41 L2832.51 1039.41 L2832.51 1030.50 L2849.72 1030.50 L2849.72 1021.59 L2866.92 1021.59 L2866.92 1012.80 L2884.12 1012.80 L2884.12 1004.02 L2901.32 1004.02 L2901.32 995.10 L2918.52 995.10 L2918.52 986.32 L2935.72 986.32 L2935.72 977.53 L2952.80 977.53 L2952.80 968.75 L2970.00 968.75 L2970.00 960.08 L2987.20 960.08 L2987.20 951.30 L3004.40 951.30 L3004.40 942.63 L3021.60 942.63 L3021.60 933.85 L3038.80 933.85 L3038.80 925.18 L3056.01 925.18 L3056.01 916.52 L3073.21 916.52 L3073.21 907.86 L3090.41 907.86 L3090.41 899.20 L3107.61 899.20 L3107.61 890.66 L3124.81 890.66 L3124.81 881.99 L3142.01 881.99 L3142.01 873.45 L3159.21 873.45 L3159.21 864.92 L3176.29 864.92 L3176.29 856.38 L3193.49 856.38 L3193.49 847.84 L3210.69 847.84 L3210.69 839.30 L3227.89 839.30 L3227.89 830.76 L3245.10 830.76 L3245.10 822.34 L3262.30 822.34 L3262.30 813.81 L3279.50 813.81 L3279.50 805.39 L3296.70 805.39 L3296.70 796.97 L3313.90 796.97 L3313.90 788.56 L3331.10 788.56 L3331.10 780.14 L3348.30 780.14 L3348.30 771.73 L3365.51 771.73 L3365.51 763.31 L3382.71 763.31 L3382.71 754.90 L3399.91 754.90 L3399.91 746.61 L3416.99 746.61 L3416.99 738.32 L3434.19 738.32 L3434.19 729.90 L3451.39 729.90 L3451.39 721.61 L3468.59 721.61 L3468.59 713.32 L3485.79 713.32 L3485.79 705.03 L3502.99 705.03 L3502.99 696.86 L3520.19 696.86 L3520.19 688.57 L3537.39 688.57 L3537.39 680.28 L3554.59 680.28 L3554.59 672.11 L3571.80 672.11 L3571.80 663.94 L3589.00 663.94 L3589.00 655.65 L3606.20 655.65 L3606.20 647.48 L3623.40 647.48 L3623.40 639.31 L3640.60 639.31 L3640.60 631.14 L3657.68 631.14 L3657.68 623.10 L3674.88 623.10 L3674.88 614.93 L3692.08 614.93 L3692.08 606.89 L3709.28 606.89 L3709.28 598.72 L3726.48 598.72 L3726.48 590.68 L3743.68 590.68 L3743.68 582.63 L3760.89 582.63 L3760.89 574.59 L3778.09 574.59 L3778.09 566.55 L3795.29 566.55 L3795.29 558.50 L3795.29 483.26 L3795.29 491.80 L3778.09 491.80 L3778.09 500.34 L3760.89 500.34 L3760.89 508.88 L3743.68 508.88 L3743.68 517.54 L3726.48 517.54 L3726.48 526.08 L3709.28 526.08 L3709.28 534.74 L3692.08 534.74 L3692.08 543.28 L3674.88 543.28 L3674.88 551.94 L3657.68 551.94 L3657.68 560.61 L3640.60 560.61 L3640.60 569.27 L3623.40 569.27 L3623.40 577.93 L3606.20 577.93 L3606.20 586.59 L3589.00 586.59 L3589.00 595.38 L3571.80 595.38 L3571.80 604.04 L3554.59 604.04 L3554.59 612.83 L3537.39 612.83 L3537.39 621.49 L3520.19 621.49 L3520.19 630.28 L3502.99 630.28 L3502.99 639.06 L3485.79 639.06 L3485.79 647.85 L3468.59 647.85 L3468.59 656.64 L3451.39 656.64 L3451.39 665.42 L3434.19 665.42 L3434.19 674.33 L3416.99 674.33 L3416.99 683.12 L3399.91 683.12 L3399.91 692.03 L3382.71 692.03 L3382.71 700.82 L3365.51 700.82 L3365.51 709.73 L3348.30 709.73 L3348.30 718.64 L3331.10 718.64 L3331.10 727.55 L3313.90 727.55 L3313.90 736.46 L3296.70 736.46 L3296.70 745.37 L3279.50 745.37 L3279.50 754.40 L3262.30 754.40 L3262.30 763.31 L3245.10 763.31 L3245.10 772.35 L3227.89 772.35 L3227.89 781.26 L3210.69 781.26 L3210.69 790.29 L3193.49 790.29 L3193.49 799.33 L3176.29 799.33 L3176.29 808.36 L3159.21 808.36 L3159.21 817.52 L3142.01 817.52 L3142.01 826.55 L3124.81 826.55 L3124.81 835.59 L3107.61 835.59 L3107.61 844.74 L3090.41 844.74 L3090.41 853.90 L3073.21 853.90 L3073.21 863.06 L3056.01 863.06 L3056.01 872.22 L3038.80 872.22 L3038.80 881.38 L3021.60 881.38 L3021.60 890.53 L3004.40 890.53 L3004.40 899.81 L2987.20 899.81 L2987.20 908.97 L2970.00 908.97 L2970.00 918.25 L2952.80 918.25 L2952.80 927.54 L2935.72 927.54 L2935.72 936.69 L2918.52 936.69 L2918.52 946.10 L2901.32 946.10 L2901.32 955.38 L2884.12 955.38 L2884.12 964.66 L2866.92 964.66 L2866.92 974.07 L2849.72 974.07 L2849.72 983.35 L2832.51 983.35 L2832.51 992.75 L2815.31 992.75 L2815.31 1002.16 L2798.11 1002.16 L2798.11 1011.56 L2780.91 1011.56 L2780.91 1020.97 L2763.71 1020.97 L2763.71 1030.37 L2746.51 1030.37 L2746.51 1039.90 L2729.31 1039.90 L2729.31 1049.31 L2712.11 1049.31 L2712.11 1058.84 L2695.03 1058.84 L2695.03 1068.37 L2677.83 1068.37 L2677.83 1077.90 L2660.63 1077.90 L2660.63 1087.43 L2643.42 1087.43 L2643.42 1097.08 L2626.22 1097.08 L2626.22 1106.61 L2609.02 1106.61 L2609.02 1116.26 L2591.82 1116.26 L2591.82 1125.91 L2574.62 1125.91 L2574.62 1135.44 L2557.42 1135.44 L2557.42 1145.22 L2540.22 1145.22 L2540.22 1154.87 L2523.01 1154.87 L2523.01 1164.52 L2505.81 1164.52 L2505.81 1174.30 L2488.61 1174.30 L2488.61 1183.95 L2471.41 1183.95 L2471.41 1193.73 L2454.33 1193.73 L2454.33 1203.51 L2437.13 1203.51 L2437.13 1213.41 L2419.93 1213.41 L2419.93 1223.18 L2402.73 1223.18 L2402.73 1233.08 L2385.53 1233.08 L2385.53 1242.86 L2368.33 1242.86 L2368.33 1252.76 L2351.13 1252.76 L2351.13 1262.66 L2333.93 1262.66 L2333.93 1272.68 L2316.72 1272.68 L2316.72 1282.59 L2299.52 1282.59 L2299.52 1292.61 L2282.32 1292.61 L2282.32 1302.63 L2265.12 1302.63 L2265.12 1312.66 L2247.92 1312.66 L2247.92 1322.68 L2230.72 1322.68 L2230.72 1332.71 L2213.64 1332.71 L2213.64 1342.85 L2196.44 1342.85 L2196.44 1353.00 L2179.24 1353.00 L2179.24 1363.15 L2162.04 1363.15 L2162.04 1373.30 L2144.84 1373.30 L2144.84 1383.44 L2127.63 1383.44 L2127.63 1393.72 L2110.43 1393.72 L2110.43 1403.99 L2093.23 1403.99 L2093.23 1414.14 L2076.03 1414.14 L2076.03 1424.53 L2058.83 1424.53 L2058.83 1434.80 L2041.63 1434.80 L2041.63 1445.20 L2024.43 1445.20 L2024.43 1455.47 L2007.22 1455.47 L2007.22 1465.86 L1990.02 1465.86 L1990.02 1476.38 L1972.95 1476.38 L1972.95 1486.78 L1955.74 1486.78 L1955.74 1497.17 L1938.54 1497.17 L1938.54 1507.69 L1921.34 1507.69 L1921.34 1518.21 L1904.14 1518.21 L1904.14 1528.73 L1886.94 1528.73 L1886.94 1539.37 L1869.74 1539.37 L1869.74 1549.89 L1852.54 1549.89 L1852.54 1560.54 L1835.34 1560.54 L1835.34 1571.18 L1818.13 1571.18 L1818.13 1581.82 L1800.93 1581.82 L1800.93 1592.59 L1783.73 1592.59 L1783.73 1603.23 L1766.53 1603.23 L1766.53 1614.00 L1749.33 1614.00 L1749.33 1624.76 L1732.25 1624.76 L1732.25 1635.65 L1715.05 1635.65 L1715.05 1646.42 L1697.85 1646.42 L1697.85 1657.31 L1680.65 1657.31 L1680.65 1668.20 L1663.45 1668.20 L1663.45 1679.22 L1646.25 1679.22 L1646.25 1690.11 L1629.05 1690.11 L1629.05 1701.12 L1611.84 1701.12 L1611.84 1712.13 L1594.64 1712.13 L1594.64 1723.27 L1577.44 1723.27 L1577.44 1734.29 L1560.24 1734.29 L1560.24 1745.42 L1543.04 1745.42 L1543.04 1756.56 L1525.84 1756.56 L1525.84 1767.70 L1508.64 1767.70 L1508.64 1778.96 L1491.56 1778.96 L1491.56 1790.22 L1474.36 1790.22 L1474.36 1801.49 L1457.16 1801.49 L1457.16 1812.87 L1439.95 1812.87 L1439.95 1824.13 L1422.75 1824.13 L1422.75 1835.64 L1405.55 1835.64 L1405.55 1847.03 L1388.35 1847.03 L1388.35 1858.54 L1371.15 1858.54 L1371.15 1869.92 L1353.95 1869.92 L1353.95 1881.55 L1336.75 1881.55 L1336.75 1893.06 L1319.55 1893.06 L1319.55 1904.70 L1302.35 1904.70 L1302.35 1916.33 L1285.14 1916.33 L1285.14 1927.96 L1267.94 1927.96 L1267.94 1939.72 L1250.87 1939.72 L1250.87 1951.47 L1233.66 1951.47 L1233.66 1963.23 L1216.46 1963.23 L1216.46 1975.11 L1199.26 1975.11 L1199.26 1986.99 L1182.06 1986.99 L1182.06 1998.87 L1164.86 1998.87 L1164.86 2010.88 L1147.66 2010.88 L1147.66 2022.76 L1130.46 2022.76 L1130.46 2034.88 L1113.26 2034.88 L1113.26 2046.89 L1096.05 2046.89 L1096.05 2059.02 L1078.85 2059.02 L1078.85 2071.14 L1061.65 2071.14 L1061.65 2083.40 L1044.45 2083.40 L1044.45 2095.52 L1027.25 2095.52 L1027.25 2107.90 L1010.17 2107.90 L1010.17 2120.15 L992.97 2120.15 L992.97 2132.53 L975.77 2132.53 L975.77 2144.90 L958.57 2144.90 L958.57 2157.40 L941.37 2157.40 L941.37 2169.90 L924.16 2169.90 L924.16 2182.40 L906.96 2182.40 L906.96 2195.02 L889.76 2195.02 L889.76 2207.65 L872.56 2207.65 L872.56 2220.27 L855.36 2220.27 L855.36 2233.01 L838.16 2233.01 L838.16 2245.76 L820.96 2245.76 L820.96 2258.63 L803.76 2258.63 L803.76 2271.38 L786.55 2271.38 L786.55 2284.37 L769.48 2284.37 L769.48 2297.24 L752.28 2297.24 L752.28 2310.24 L735.08 2310.24 L735.08 2323.23 L717.87 2323.23 L717.87 2323.73 Z" stroke-linejoin="round"/>
	</defs>
	<defs>
		<clipPath id="clipPath_JvSGYBEg">
			<use xlink:href="#path_hvLCplWy"/>
		</clipPath>
	</defs>
	<use xlink:href="#path_hvLCplWy" style="stroke:none;fill:#999999;fill-opacity:0.35"/>
	<use xlink:href="#path_hvLCplWy" style="fill:none;stroke:#808080;stroke-opacity:0.35;stroke-width:17.28" clip-path="url(#clipPath_JvSGYBEg)"/>
	<defs>
		<path id="path_wYGIfPWY" d="M717.87 2323.73 L717.87 2323.73 L735.08 2323.73 L735.08 2310.86 L752.28 2310.86 L752.28 2297.99 L769.48 2297.99 L769.48 2285.12 L786.55 2285.12 L786.55 2272.37 L803.76 2272.37 L803.76 2259.75 L820.96 2259.75 L820.96 2247.12 L838.16 2247.12 L838.16 2234.50 L855.36 2234.50 L855.36 2222.00 L872.56 2222.00 L872.56 2209.50 L889.76 2209.50 L889.76 2197.13 L906.96 2197.13 L906.96 2184.75 L924.16 2184.75 L924.16 2172.38 L941.37 2172.38 L941.37 2160.12 L958.57 2160.12 L958.57 2148.00 L975.77 2148.00 L975.77 2135.87 L992.97 2135.87 L992.97 2123.74 L1010.17 2123.74 L1010.17 2111.74 L1027.25 2111.74 L1027.25 2099.73 L1044.45 2099.73 L1044.45 2087.73 L1061.65 2087.73 L1061.65 2075.85 L1078.85 2075.85 L1078.85 2064.09 L1096.05 2064.09 L1096.05 2052.21 L1113.26 2052.21 L1113.26 2040.45 L1130.46 2040.45 L1130.46 2028.82 L1147.66 2028.82 L1147.66 2017.19 L1164.86 2017.19 L1164.86 2005.56 L1182.06 2005.56 L1182.06 1993.92 L1199.26 1993.92 L1199.26 1982.41 L1216.46 1982.41 L1216.46 1971.03 L1233.66 1971.03 L1233.66 1959.52 L1250.87 1959.52 L1250.87 1948.13 L1267.94 1948.13 L1267.94 1936.87 L1285.14 1936.87 L1285.14 1925.49 L1302.35 1925.49 L1302.35 1914.22 L1319.55 1914.22 L1319.55 1902.96 L1336.75 1902.96 L1336.75 1891.83 L1353.95 1891.83 L1353.95 1880.69 L1371.15 1880.69 L1371.15 1869.55 L1388.35 1869.55 L1388.35 1858.54 L1405.55 1858.54 L1405.55 1847.52 L1422.75 1847.52 L1422.75 1836.51 L1439.95 1836.51 L1439.95 1825.49 L1457.16 1825.49 L1457.16 1814.60 L1474.36 1814.60 L1474.36 1803.71 L1491.56 1803.71 L1491.56 1792.82 L1508.64 1792.82 L1508.64 1782.06 L1525.84 1782.06 L1525.84 1771.29 L1543.04 1771.29 L1543.04 1760.52 L1560.24 1760.52 L1560.24 1749.88 L1577.44 1749.88 L1577.44 1739.24 L1594.64 1739.24 L1594.64 1728.59 L1611.84 1728.59 L1611.84 1717.95 L1629.05 1717.95 L1629.05 1707.31 L1646.25 1707.31 L1646.25 1696.79 L1663.45 1696.79 L1663.45 1686.27 L1680.65 1686.27 L1680.65 1675.87 L1697.85 1675.87 L1697.85 1665.36 L1715.05 1665.36 L1715.05 1654.96 L1732.25 1654.96 L1732.25 1644.57 L1749.33 1644.57 L1749.33 1634.29 L1766.53 1634.29 L1766.53 1623.90 L1783.73 1623.90 L1783.73 1613.63 L1800.93 1613.63 L1800.93 1603.36 L1818.13 1603.36 L1818.13 1593.21 L1835.34 1593.21 L1835.34 1582.94 L1852.54 1582.94 L1852.54 1572.79 L1869.74 1572.79 L1869.74 1562.64 L1886.94 1562.64 L1886.94 1552.62 L1904.14 1552.62 L1904.14 1542.47 L1921.34 1542.47 L1921.34 1532.44 L1938.54 1532.44 L1938.54 1522.42 L1955.74 1522.42 L1955.74 1512.40 L1972.95 1512.40 L1972.95 1502.50 L1990.02 1502.50 L1990.02 1492.47 L2007.22 1492.47 L2007.22 1482.57 L2024.43 1482.57 L2024.43 1472.67 L2041.63 1472.67 L2041.63 1462.77 L2058.83 1462.77 L2058.83 1452.99 L2076.03 1452.99 L2076.03 1443.22 L2093.23 1443.22 L2093.23 1433.32 L2110.43 1433.32 L2110.43 1423.54 L2127.63 1423.54 L2127.63 1413.89 L2144.84 1413.89 L2144.84 1404.11 L2162.04 1404.11 L2162.04 1394.46 L2179.24 1394.46 L2179.24 1384.81 L2196.44 1384.81 L2196.44 1375.15 L2213.64 1375.15 L2213.64 1365.62 L2230.72 1365.62 L2230.72 1355.97 L2247.92 1355.97 L2247.92 1346.44 L2265.12 1346.44 L2265.12 1336.91 L2282.32 1336.91 L2282.32 1327.38 L2299.52 1327.38 L2299.52 1317.85 L2316.72 1317.85 L2316.72 1308.45 L2333.93 1308.45 L2333.93 1299.04 L2351.13 1299.04 L2351.13 1289.52 L2368.33 1289.52 L2368.33 1280.23 L2385.53 1280.23 L2385.53 1270.83 L2402.73 1270.83 L2402.73 1261.42 L2419.93 1261.42 L2419.93 1252.14 L2437.13 1252.14 L2437.13 1242.74 L2454.33 1242.74 L2454.33 1233.45 L2471.41 1233.45 L2471.41 1224.30 L2488.61 1224.30 L2488.61 1215.02 L2505.81 1215.02 L2505.81 1205.73 L2523.01 1205.73 L2523.01 1196.58 L2540.22 1196.58 L2540.22 1187.42 L2557.42 1187.42 L2557.42 1178.26 L2574.62 1178.26 L2574.62 1169.10 L2591.82 1169.10 L2591.82 1159.94 L2609.02 1159.94 L2609.02 1150.91 L2626.22 1150.91 L2626.22 1141.88 L2643.42 1141.88 L2643.42 1132.72 L2660.63 1132.72 L2660.63 1123.69 L2677.83 1123.69 L2677.83 1114.77 L2695.03 1114.77 L2695.03 1105.74 L2712.11 1105.74 L2712.11 1096.71 L2729.31 1096.71 L2729.31 1087.80 L2746.51 1087.80 L2746.51 1078.89 L2763.71 1078.89 L2763.71 1069.98 L2780.91 1069.98 L2780.91 1061.07 L2798.11 1061.07 L2798.11 1052.16 L2815.31 1052.16 L2815.31 1043.37 L2832.51 1043.37 L2832.51 1034.46 L2849.72 1034.46 L2849.72 1025.67 L2866.92 1025.67 L2866.92 1016.89 L2884.12 1016.89 L2884.12 1008.10 L2901.32 1008.10 L2901.32 999.31 L2918.52 999.31 L2918.52 990.53 L2935.72 990.53 L2935.72 981.86 L2952.80 981.86 L2952.80 973.08 L2970.00 973.08 L2970.00 964.41 L2987.20 964.41 L2987.20 955.75 L3004.40 955.75 L3004.40 947.09 L3021.60 947.09 L3021.60 938.43 L3038.80 938.43 L3038.80 929.89 L3056.01 929.89 L3056.01 921.22 L3073.21 921.22 L3073.21 912.68 L3090.41 912.68 L3090.41 904.02 L3107.61 904.02 L3107.61 895.48 L3124.81 895.48 L3124.81 886.94 L3142.01 886.94 L3142.01 878.40 L3159.21 878.40 L3159.21 869.87 L3176.29 869.87 L3176.29 861.45 L3193.49 861.45 L3193.49 852.91 L3210.69 852.91 L3210.69 844.50 L3227.89 844.50 L3227.89 836.08 L3245.10 836.08 L3245.10 827.67 L3262.30 827.67 L3262.30 819.25 L3279.50 819.25 L3279.50 810.84 L3296.70 810.84 L3296.70 802.42 L3313.90 802.42 L3313.90 794.13 L3331.10 794.13 L3331.10 785.71 L3348.30 785.71 L3348.30 777.42 L3365.51 777.42 L3365.51 769.01 L3382.71 769.01 L3382.71 760.72 L3399.91 760.72 L3399.91 752.42 L3416.99 752.42 L3416.99 744.13 L3434.19 744.13 L3434.19 735.96 L3451.39 735.96 L3451.39 727.67 L3468.59 727.67 L3468.59 719.38 L3485.79 719.38 L3485.79 711.21 L3502.99 711.21 L3502.99 703.05 L3520.19 703.05 L3520.19 694.88 L3537.39 694.88 L3537.39 686.59 L3554.59 686.59 L3554.59 678.54 L3571.80 678.54 L3571.80 670.37 L3589.00 670.37 L3589.00 662.21 L3606.20 662.21 L3606.20 654.04 L3623.40 654.04 L3623.40 646.00 L3640.60 646.00 L3640.60 637.83 L3657.68 637.83 L3657.68 629.78 L3674.88 629.78 L3674.88 621.74 L3692.08 621.74 L3692.08 613.70 L3709.28 613.70 L3709.28 605.65 L3726.48 605.65 L3726.48 597.61 L3743.68 597.61 L3743.68 589.56 L3760.89 589.56 L3760.89 581.64 L3778.09 581.64 L3778.09 573.60 L3795.29 573.60 L3795.29 565.68 L3795.29 490.68 L3795.29 499.22 L3778.09 499.22 L3778.09 507.76 L3760.89 507.76 L3760.89 516.30 L3743.68 516.30 L3743.68 524.84 L3726.48 524.84 L3726.48 533.38 L3709.28 533.38 L3709.28 541.92 L3692.08 541.92 L3692.08 550.46 L3674.88 550.46 L3674.88 559.00 L3657.68 559.00 L3657.68 567.66 L3640.60 567.66 L3640.60 576.20 L3623.40 576.20 L3623.40 584.86 L3606.20 584.86 L3606.20 593.52 L3589.00 593.52 L3589.00 602.19 L3571.80 602.19 L3571.80 610.85 L3554.59 610.85 L3554.59 619.51 L3537.39 619.51 L3537.39 628.17 L3520.19 628.17 L3520.19 636.96 L3502.99 636.96 L3502.99 645.62 L3485.79 645.62 L3485.79 654.41 L3468.59 654.41 L3468.59 663.07 L3451.39 663.07 L3451.39 671.86 L3434.19 671.86 L3434.19 680.65 L3416.99 680.65 L3416.99 689.43 L3399.91 689.43 L3399.91 698.22 L3382.71 698.22 L3382.71 707.01 L3365.51 707.01 L3365.51 715.92 L3348.30 715.92 L3348.30 724.70 L3331.10 724.70 L3331.10 733.61 L3313.90 733.61 L3313.90 742.52 L3296.70 742.52 L3296.70 751.31 L3279.50 751.31 L3279.50 760.22 L3262.30 760.22 L3262.30 769.13 L3245.10 769.13 L3245.10 778.16 L3227.89 778.16 L3227.89 787.07 L3210.69 787.07 L3210.69 795.98 L3193.49 795.98 L3193.49 805.02 L3176.29 805.02 L3176.29 814.05 L3159.21 814.05 L3159.21 822.96 L3142.01 822.96 L3142.01 832.00 L3124.81 832.00 L3124.81 841.03 L3107.61 841.03 L3107.61 850.19 L3090.41 850.19 L3090.41 859.22 L3073.21 859.22 L3073.21 868.26 L3056.01 868.26 L3056.01 877.41 L3038.80 877.41 L3038.80 886.57 L3021.60 886.57 L3021.60 895.73 L3004.40 895.73 L3004.40 904.89 L2987.20 904.89 L2987.20 914.05 L2970.00 914.05 L2970.00 923.20 L2952.80 923.20 L2952.80 932.36 L2935.72 932.36 L2935.72 941.64 L2918.52 941.64 L2918.52 950.80 L2901.32 950.80 L2901.32 960.08 L2884.12 960.08 L2884.12 969.36 L2866.92 969.36 L2866.92 978.65 L2849.72 978.65 L2849.72 987.93 L2832.51 987.93 L2832.51 997.33 L2815.31 997.33 L2815.31 1006.61 L2798.11 1006.61 L2798.11 1016.02 L2780.91 1016.02 L2780.91 1025.42 L2763.71 1025.42 L2763.71 1034.83 L2746.51 1034.83 L2746.51 1044.24 L2729.31 1044.24 L2729.31 1053.64 L2712.11 1053.64 L2712.11 1063.05 L2695.03 1063.05 L2695.03 1072.57 L2677.83 1072.57 L2677.83 1081.98 L2660.63 1081.98 L2660.63 1091.51 L2643.42 1091.51 L2643.42 1101.04 L2626.22 1101.04 L2626.22 1110.57 L2609.02 1110.57 L2609.02 1120.22 L2591.82 1120.22 L2591.82 1129.75 L2574.62 1129.75 L2574.62 1139.40 L2557.42 1139.40 L2557.42 1149.05 L2540.22 1149.05 L2540.22 1158.71 L2523.01 1158.71 L2523.01 1168.36 L2505.81 1168.36 L2505.81 1178.01 L2488.61 1178.01 L2488.61 1187.79 L2471.41 1187.79 L2471.41 1197.44 L2454.33 1197.44 L2454.33 1207.22 L2437.13 1207.22 L2437.13 1217.00 L2419.93 1217.00 L2419.93 1226.77 L2402.73 1226.77 L2402.73 1236.67 L2385.53 1236.67 L2385.53 1246.45 L2368.33 1246.45 L2368.33 1256.35 L2351.13 1256.35 L2351.13 1266.13 L2333.93 1266.13 L2333.93 1276.03 L2316.72 1276.03 L2316.72 1286.05 L2299.52 1286.05 L2299.52 1295.95 L2282.32 1295.95 L2282.32 1305.85 L2265.12 1305.85 L2265.12 1315.87 L2247.92 1315.87 L2247.92 1325.90 L2230.72 1325.90 L2230.72 1335.92 L2213.64 1335.92 L2213.64 1345.95 L2196.44 1345.95 L2196.44 1356.09 L2179.24 1356.09 L2179.24 1366.12 L2162.04 1366.12 L2162.04 1376.27 L2144.84 1376.27 L2144.84 1386.41 L2127.63 1386.41 L2127.63 1396.56 L2110.43 1396.56 L2110.43 1406.83 L2093.23 1406.83 L2093.23 1417.11 L2076.03 1417.11 L2076.03 1427.25 L2058.83 1427.25 L2058.83 1437.52 L2041.63 1437.52 L2041.63 1447.92 L2024.43 1447.92 L2024.43 1458.19 L2007.22 1458.19 L2007.22 1468.59 L1990.02 1468.59 L1990.02 1478.98 L1972.95 1478.98 L1972.95 1489.38 L1955.74 1489.38 L1955.74 1499.77 L1938.54 1499.77 L1938.54 1510.17 L1921.34 1510.17 L1921.34 1520.69 L1904.14 1520.69 L1904.14 1531.21 L1886.94 1531.21 L1886.94 1541.73 L1869.74 1541.73 L1869.74 1552.24 L1852.54 1552.24 L1852.54 1562.89 L1835.34 1562.89 L1835.34 1573.41 L1818.13 1573.41 L1818.13 1584.05 L1800.93 1584.05 L1800.93 1594.69 L1783.73 1594.69 L1783.73 1605.46 L1766.53 1605.46 L1766.53 1616.10 L1749.33 1616.10 L1749.33 1626.87 L1732.25 1626.87 L1732.25 1637.63 L1715.05 1637.63 L1715.05 1648.53 L1697.85 1648.53 L1697.85 1659.29 L1680.65 1659.29 L1680.65 1670.18 L1663.45 1670.18 L1663.45 1681.07 L1646.25 1681.07 L1646.25 1691.96 L1629.05 1691.96 L1629.05 1702.98 L1611.84 1702.98 L1611.84 1713.99 L1594.64 1713.99 L1594.64 1725.01 L1577.44 1725.01 L1577.44 1736.02 L1560.24 1736.02 L1560.24 1747.16 L1543.04 1747.16 L1543.04 1758.17 L1525.84 1758.17 L1525.84 1769.31 L1508.64 1769.31 L1508.64 1780.57 L1491.56 1780.57 L1491.56 1791.71 L1474.36 1791.71 L1474.36 1802.97 L1457.16 1802.97 L1457.16 1814.23 L1439.95 1814.23 L1439.95 1825.62 L1422.75 1825.62 L1422.75 1836.88 L1405.55 1836.88 L1405.55 1848.26 L1388.35 1848.26 L1388.35 1859.77 L1371.15 1859.77 L1371.15 1871.16 L1353.95 1871.16 L1353.95 1882.67 L1336.75 1882.67 L1336.75 1894.18 L1319.55 1894.18 L1319.55 1905.81 L1302.35 1905.81 L1302.35 1917.32 L1285.14 1917.32 L1285.14 1928.95 L1267.94 1928.95 L1267.94 1940.58 L1250.87 1940.58 L1250.87 1952.34 L1233.66 1952.34 L1233.66 1964.10 L1216.46 1964.10 L1216.46 1975.85 L1199.26 1975.85 L1199.26 1987.73 L1182.06 1987.73 L1182.06 1999.61 L1164.86 1999.61 L1164.86 2011.50 L1147.66 2011.50 L1147.66 2023.38 L1130.46 2023.38 L1130.46 2035.38 L1113.26 2035.38 L1113.26 2047.38 L1096.05 2047.38 L1096.05 2059.51 L1078.85 2059.51 L1078.85 2071.64 L1061.65 2071.64 L1061.65 2083.77 L1044.45 2083.77 L1044.45 2095.90 L1027.25 2095.90 L1027.25 2108.15 L1010.17 2108.15 L1010.17 2120.40 L992.97 2120.40 L992.97 2132.77 L975.77 2132.77 L975.77 2145.15 L958.57 2145.15 L958.57 2157.52 L941.37 2157.52 L941.37 2170.02 L924.16 2170.02 L924.16 2182.52 L906.96 2182.52 L906.96 2195.15 L889.76 2195.15 L889.76 2207.77 L872.56 2207.77 L872.56 2220.39 L855.36 2220.39 L855.36 2233.14 L838.16 2233.14 L838.16 2245.89 L820.96 2245.89 L820.96 2258.63 L803.76 2258.63 L803.76 2271.50 L786.55 2271.50 L786.55 2284.37 L769.48 2284.37 L769.48 2297.37 L752.28 2297.37 L752.28 2310.24 L735.08 2310.24 L735.08 2323.36 L717.87 2323.36 L717.87 2323.73 Z" stroke-linejoin="round"/>
	</defs>
	<defs>
		<clipPath id="clipPath_oqExfpYj">
			<use xlink:href="#path_wYGIfPWY"/>
		</clipPath>
	</defs>
	<use xlink:href="#path_wYGIfPWY" style="stroke:none;fill:#333333;fill-opacity:0.35"/>
	<use xlink:href="#path_wYGIfPWY" style="fill:none;stroke:#000000;stroke-opacity:0.35;stroke-width:17.28" clip-path="url(#clipPath_oqExfpYj)"/>
	<line x1="717.75" y1="2323.60" x2="734.95" y2="2323.60" style="stroke:#808080;stroke-width:8.64"/>
	<line x1="734.95" y1="2323.60" x2="734.95" y2="2310.61" style="stroke:#808080;stroke-width:8.64"/>
	<line x1="734.95" y1="2310.61" x2="745.10" y2="2310.61" style="stroke:#808080;stroke-width:8.64"/>
	<line x1="752.15" y1="2300.46" x2="752.15" y2="2297.61" style="stroke:#808080;stroke-width:8.64"/>
	<line x1="752.15" y1="2297.61" x2="769.35" y2="2297.61" style="stroke:#808080;stroke-width:8.64"/>
	<line x1="769.35" y1="2297.61" x2="769.35" y2="2284.74" style="stroke:#808080;stroke-width:8.64"/>
	<line x1="769.35" y1="2284.74" x2="776.78" y2="2284.74" style="stroke:#808080;stroke-width:8.64"/>
	<line x1="786.55" y1="2277.32" x2="786.55" y2="2272.00" style="stroke:#808080;stroke-width:8.64"/>
	<line x1="786.55" y1="2272.00" x2="803.76" y2="2272.00" style="stroke:#808080;stroke-width:8.64"/>
	<line x1="803.76" y1="2272.00" x2="803.76" y2="2259.13" style="stroke:#808080;stroke-width:8.64"/>
	<line x1="803.76" y1="2259.13" x2="808.71" y2="2259.13" style="stroke:#808080;stroke-width:8.64"/>
	<line x1="820.96" y1="2254.05" x2="820.96" y2="2246.50" style="stroke:#808080;stroke-width:8.64"/>
	<line x1="820.96" y1="2246.50" x2="838.16" y2="2246.50" style="stroke:#808080;stroke-width:8.64"/>
	<line x1="838.16" y1="2246.50" x2="838.16" y2="2233.76" style="stroke:#808080;stroke-width:8.64"/>
	<line x1="838.16" y1="2233.76" x2="841.00" y2="2233.76" style="stroke:#808080;stroke-width:8.64"/>
	<line x1="855.36" y1="2230.91" x2="855.36" y2="2221.13" style="stroke:#808080;stroke-width:8.64"/>
	<line x1="855.36" y1="2221.13" x2="872.56" y2="2221.13" style="stroke:#808080;stroke-width:8.64"/>
	<line x1="872.56" y1="2221.13" x2="872.56" y2="2208.51" style="stroke:#808080;stroke-width:8.64"/>
	<line x1="872.56" y1="2208.51" x2="873.30" y2="2208.51" style="stroke:#808080;stroke-width:8.64"/>
	<line x1="889.76" y1="2207.77" x2="889.76" y2="2196.01" style="stroke:#808080;stroke-width:8.64"/>
	<line x1="889.76" y1="2196.01" x2="906.84" y2="2196.01" style="stroke:#808080;stroke-width:8.64"/>
	<line x1="906.84" y1="2196.01" x2="906.84" y2="2184.50" style="stroke:#808080;stroke-width:8.64"/>
	<line x1="923.05" y1="2183.51" x2="924.04" y2="2183.51" style="stroke:#808080;stroke-width:8.64"/>
	<line x1="924.04" y1="2183.51" x2="924.04" y2="2171.14" style="stroke:#808080;stroke-width:8.64"/>
	<line x1="924.04" y1="2171.14" x2="941.24" y2="2171.14" style="stroke:#808080;stroke-width:8.64"/>
	<line x1="941.24" y1="2171.14" x2="941.24" y2="2161.36" style="stroke:#808080;stroke-width:8.64"/>
	<line x1="955.97" y1="2158.76" x2="958.44" y2="2158.76" style="stroke:#808080;stroke-width:8.64"/>
	<line x1="958.44" y1="2158.76" x2="958.44" y2="2146.39" style="stroke:#808080;stroke-width:8.64"/>
	<line x1="958.44" y1="2146.39" x2="975.64" y2="2146.39" style="stroke:#808080;stroke-width:8.64"/>
	<line x1="975.64" y1="2146.39" x2="975.64" y2="2138.10" style="stroke:#808080;stroke-width:8.64"/>
	<line x1="988.89" y1="2134.14" x2="992.85" y2="2134.14" style="stroke:#808080;stroke-width:8.64"/>
	<line x1="992.85" y1="2134.14" x2="992.85" y2="2121.88" style="stroke:#808080;stroke-width:8.64"/>
	<line x1="992.85" y1="2121.88" x2="1010.05" y2="2121.88" style="stroke:#808080;stroke-width:8.64"/>
	<line x1="1010.05" y1="2121.88" x2="1010.05" y2="2114.95" style="stroke:#808080;stroke-width:8.64"/>
	<line x1="1022.05" y1="2109.76" x2="1027.25" y2="2109.76" style="stroke:#808080;stroke-width:8.64"/>
	<line x1="1027.25" y1="2109.76" x2="1027.25" y2="2097.50" style="stroke:#808080;stroke-width:8.64"/>
	<line x1="1027.25" y1="2097.50" x2="1044.45" y2="2097.50" style="stroke:#808080;stroke-width:8.64"/>
	<line x1="1044.45" y1="2097.50" x2="1044.45" y2="2091.81" style="stroke:#808080;stroke-width:8.64"/>
	<line x1="1055.34" y1="2085.50" x2="1061.65" y2="2085.50" style="stroke:#808080;stroke-width:8.64"/>
	<line x1="1061.65" y1="2085.50" x2="1061.65" y2="2073.37" style="stroke:#808080;stroke-width:8.64"/>
	<line x1="1061.65" y1="2073.37" x2="1078.85" y2="2073.37" style="stroke:#808080;stroke-width:8.64"/>
	<line x1="1078.85" y1="2073.37" x2="1078.85" y2="2068.55" style="stroke:#808080;stroke-width:8.64"/>
	<line x1="1088.88" y1="2061.37" x2="1096.05" y2="2061.37" style="stroke:#808080;stroke-width:8.64"/>
	<line x1="1096.05" y1="2061.37" x2="1096.05" y2="2049.49" style="stroke:#808080;stroke-width:8.64"/>
	<line x1="1096.05" y1="2049.49" x2="1113.26" y2="2049.49" style="stroke:#808080;stroke-width:8.64"/>
	<line x1="1113.26" y1="2049.49" x2="1113.26" y2="2045.40" style="stroke:#808080;stroke-width:8.64"/>
	<line x1="1122.54" y1="2037.48" x2="1130.46" y2="2037.48" style="stroke:#808080;stroke-width:8.64"/>
	<line x1="1130.46" y1="2037.48" x2="1130.46" y2="2025.60" style="stroke:#808080;stroke-width:8.64"/>
	<line x1="1130.46" y1="2025.60" x2="1147.53" y2="2025.60" style="stroke:#808080;stroke-width:8.64"/>
	<line x1="1147.53" y1="2025.60" x2="1147.53" y2="2022.14" style="stroke:#808080;stroke-width:8.64"/>
	<line x1="1156.32" y1="2013.72" x2="1164.73" y2="2013.72" style="stroke:#808080;stroke-width:8.64"/>
	<line x1="1164.73" y1="2013.72" x2="1164.73" y2="2001.97" style="stroke:#808080;stroke-width:8.64"/>
	<line x1="1164.73" y1="2001.97" x2="1181.94" y2="2001.97" style="stroke:#808080;stroke-width:8.64"/>
	<line x1="1181.94" y1="2001.97" x2="1181.94" y2="1999.00" style="stroke:#808080;stroke-width:8.64"/>
	<line x1="1190.35" y1="1990.21" x2="1199.14" y2="1990.21" style="stroke:#808080;stroke-width:8.64"/>
	<line x1="1199.14" y1="1990.21" x2="1199.14" y2="1978.58" style="stroke:#808080;stroke-width:8.64"/>
	<line x1="1199.14" y1="1978.58" x2="1216.34" y2="1978.58" style="stroke:#808080;stroke-width:8.64"/>
	<line x1="1216.34" y1="1978.58" x2="1216.34" y2="1975.85" style="stroke:#808080;stroke-width:8.64"/>
	<line x1="1224.51" y1="1966.82" x2="1233.54" y2="1966.82" style="stroke:#808080;stroke-width:8.64"/>
	<line x1="1233.54" y1="1966.82" x2="1233.54" y2="1955.19" style="stroke:#808080;stroke-width:8.64"/>
	<line x1="1233.54" y1="1955.19" x2="1250.74" y2="1955.19" style="stroke:#808080;stroke-width:8.64"/>
	<line x1="1250.74" y1="1955.19" x2="1250.74" y2="1952.71" style="stroke:#808080;stroke-width:8.64"/>
	<line x1="1259.03" y1="1943.68" x2="1267.94" y2="1943.68" style="stroke:#808080;stroke-width:8.64"/>
	<line x1="1267.94" y1="1943.68" x2="1267.94" y2="1932.05" style="stroke:#808080;stroke-width:8.64"/>
	<line x1="1267.94" y1="1932.05" x2="1285.14" y2="1932.05" style="stroke:#808080;stroke-width:8.64"/>
	<line x1="1285.14" y1="1932.05" x2="1285.14" y2="1929.57" style="stroke:#808080;stroke-width:8.64"/>
	<line x1="1293.43" y1="1920.54" x2="1302.35" y2="1920.54" style="stroke:#808080;stroke-width:8.64"/>
	<line x1="1302.35" y1="1920.54" x2="1302.35" y2="1909.15" style="stroke:#808080;stroke-width:8.64"/>
	<line x1="1302.35" y1="1909.15" x2="1319.55" y2="1909.15" style="stroke:#808080;stroke-width:8.64"/>
	<line x1="1319.55" y1="1909.15" x2="1319.55" y2="1906.30" style="stroke:#808080;stroke-width:8.64"/>
	<line x1="1328.09" y1="1897.64" x2="1336.75" y2="1897.64" style="stroke:#808080;stroke-width:8.64"/>
	<line x1="1336.75" y1="1897.64" x2="1336.75" y2="1886.26" style="stroke:#808080;stroke-width:8.64"/>
	<line x1="1336.75" y1="1886.26" x2="1353.95" y2="1886.26" style="stroke:#808080;stroke-width:8.64"/>
	<line x1="1353.95" y1="1886.26" x2="1353.95" y2="1883.16" style="stroke:#808080;stroke-width:8.64"/>
	<line x1="1362.86" y1="1874.87" x2="1371.15" y2="1874.87" style="stroke:#808080;stroke-width:8.64"/>
	<line x1="1371.15" y1="1874.87" x2="1371.15" y2="1863.61" style="stroke:#808080;stroke-width:8.64"/>
	<line x1="1371.15" y1="1863.61" x2="1388.23" y2="1863.61" style="stroke:#808080;stroke-width:8.64"/>
	<line x1="1388.23" y1="1863.61" x2="1388.23" y2="1859.90" style="stroke:#808080;stroke-width:8.64"/>
	<line x1="1397.88" y1="1852.35" x2="1405.43" y2="1852.35" style="stroke:#808080;stroke-width:8.64"/>
	<line x1="1405.43" y1="1852.35" x2="1405.43" y2="1841.09" style="stroke:#808080;stroke-width:8.64"/>
	<line x1="1405.43" y1="1841.09" x2="1422.63" y2="1841.09" style="stroke:#808080;stroke-width:8.64"/>
	<line x1="1422.63" y1="1841.09" x2="1422.63" y2="1836.63" style="stroke:#808080;stroke-width:8.64"/>
	<line x1="1433.03" y1="1829.82" x2="1439.83" y2="1829.82" style="stroke:#808080;stroke-width:8.64"/>
	<line x1="1439.83" y1="1829.82" x2="1439.83" y2="1818.69" style="stroke:#808080;stroke-width:8.64"/>
	<line x1="1439.83" y1="1818.69" x2="1457.03" y2="1818.69" style="stroke:#808080;stroke-width:8.64"/>
	<line x1="1457.03" y1="1818.69" x2="1457.03" y2="1813.49" style="stroke:#808080;stroke-width:8.64"/>
	<line x1="1468.29" y1="1807.55" x2="1474.23" y2="1807.55" style="stroke:#808080;stroke-width:8.64"/>
	<line x1="1474.23" y1="1807.55" x2="1474.23" y2="1796.41" style="stroke:#808080;stroke-width:8.64"/>
	<line x1="1474.23" y1="1796.41" x2="1491.43" y2="1796.41" style="stroke:#808080;stroke-width:8.64"/>
	<line x1="1491.43" y1="1796.41" x2="1491.43" y2="1790.35" style="stroke:#808080;stroke-width:8.64"/>
	<line x1="1503.81" y1="1785.40" x2="1508.64" y2="1785.40" style="stroke:#808080;stroke-width:8.64"/>
	<line x1="1508.64" y1="1785.40" x2="1508.64" y2="1774.38" style="stroke:#808080;stroke-width:8.64"/>
	<line x1="1508.64" y1="1774.38" x2="1525.84" y2="1774.38" style="stroke:#808080;stroke-width:8.64"/>
	<line x1="1525.84" y1="1774.38" x2="1525.84" y2="1767.21" style="stroke:#808080;stroke-width:8.64"/>
	<line x1="1539.33" y1="1763.37" x2="1543.04" y2="1763.37" style="stroke:#808080;stroke-width:8.64"/>
	<line x1="1543.04" y1="1763.37" x2="1543.04" y2="1752.35" style="stroke:#808080;stroke-width:8.64"/>
	<line x1="1543.04" y1="1752.35" x2="1560.24" y2="1752.35" style="stroke:#808080;stroke-width:8.64"/>
	<line x1="1560.24" y1="1752.35" x2="1560.24" y2="1743.94" style="stroke:#808080;stroke-width:8.64"/>
	<line x1="1574.97" y1="1741.46" x2="1577.44" y2="1741.46" style="stroke:#808080;stroke-width:8.64"/>
	<line x1="1577.44" y1="1741.46" x2="1577.44" y2="1730.57" style="stroke:#808080;stroke-width:8.64"/>
	<line x1="1577.44" y1="1730.57" x2="1594.64" y2="1730.57" style="stroke:#808080;stroke-width:8.64"/>
	<line x1="1594.64" y1="1730.57" x2="1594.64" y2="1720.80" style="stroke:#808080;stroke-width:8.64"/>
	<line x1="1610.73" y1="1719.68" x2="1611.84" y2="1719.68" style="stroke:#808080;stroke-width:8.64"/>
	<line x1="1611.84" y1="1719.68" x2="1611.84" y2="1708.92" style="stroke:#808080;stroke-width:8.64"/>
	<line x1="1611.84" y1="1708.92" x2="1628.92" y2="1708.92" style="stroke:#808080;stroke-width:8.64"/>
	<line x1="1628.92" y1="1708.92" x2="1628.92" y2="1698.03" style="stroke:#808080;stroke-width:8.64"/>
	<line x1="1628.92" y1="1698.03" x2="1629.42" y2="1698.03" style="stroke:#808080;stroke-width:8.64"/>
	<line x1="1646.12" y1="1697.53" x2="1646.12" y2="1687.26" style="stroke:#808080;stroke-width:8.64"/>
	<line x1="1646.12" y1="1687.26" x2="1663.32" y2="1687.26" style="stroke:#808080;stroke-width:8.64"/>
	<line x1="1663.32" y1="1687.26" x2="1663.32" y2="1676.62" style="stroke:#808080;stroke-width:8.64"/>
	<line x1="1663.32" y1="1676.62" x2="1665.55" y2="1676.62" style="stroke:#808080;stroke-width:8.64"/>
	<line x1="1680.53" y1="1674.27" x2="1680.53" y2="1665.85" style="stroke:#808080;stroke-width:8.64"/>
	<line x1="1680.53" y1="1665.85" x2="1697.73" y2="1665.85" style="stroke:#808080;stroke-width:8.64"/>
	<line x1="1697.73" y1="1665.85" x2="1697.73" y2="1655.21" style="stroke:#808080;stroke-width:8.64"/>
	<line x1="1697.73" y1="1655.21" x2="1701.81" y2="1655.21" style="stroke:#808080;stroke-width:8.64"/>
	<line x1="1714.93" y1="1651.12" x2="1714.93" y2="1644.57" style="stroke:#808080;stroke-width:8.64"/>
	<line x1="1714.93" y1="1644.57" x2="1732.13" y2="1644.57" style="stroke:#808080;stroke-width:8.64"/>
	<line x1="1732.13" y1="1644.57" x2="1732.13" y2="1633.92" style="stroke:#808080;stroke-width:8.64"/>
	<line x1="1732.13" y1="1633.92" x2="1738.07" y2="1633.92" style="stroke:#808080;stroke-width:8.64"/>
	<line x1="1749.33" y1="1627.98" x2="1749.33" y2="1623.40" style="stroke:#808080;stroke-width:8.64"/>
	<line x1="1749.33" y1="1623.40" x2="1766.53" y2="1623.40" style="stroke:#808080;stroke-width:8.64"/>
	<line x1="1766.53" y1="1623.40" x2="1766.53" y2="1612.88" style="stroke:#808080;stroke-width:8.64"/>
	<line x1="1766.53" y1="1612.88" x2="1774.58" y2="1612.88" style="stroke:#808080;stroke-width:8.64"/>
	<line x1="1783.73" y1="1604.84" x2="1783.73" y2="1602.37" style="stroke:#808080;stroke-width:8.64"/>
	<line x1="1783.73" y1="1602.37" x2="1800.93" y2="1602.37" style="stroke:#808080;stroke-width:8.64"/>
	<line x1="1800.93" y1="1602.37" x2="1800.93" y2="1591.85" style="stroke:#808080;stroke-width:8.64"/>
	<line x1="1800.93" y1="1591.85" x2="1811.08" y2="1591.85" style="stroke:#808080;stroke-width:8.64"/>
	<line x1="1818.13" y1="1581.57" x2="1818.13" y2="1581.33" style="stroke:#808080;stroke-width:8.64"/>
	<line x1="1818.13" y1="1581.33" x2="1835.34" y2="1581.33" style="stroke:#808080;stroke-width:8.64"/>
	<line x1="1835.34" y1="1581.33" x2="1835.34" y2="1570.93" style="stroke:#808080;stroke-width:8.64"/>
	<line x1="1835.34" y1="1570.93" x2="1847.71" y2="1570.93" style="stroke:#808080;stroke-width:8.64"/>
	<line x1="1854.64" y1="1560.54" x2="1869.62" y2="1560.54" style="stroke:#808080;stroke-width:8.64"/>
	<line x1="1869.62" y1="1560.54" x2="1869.62" y2="1550.14" style="stroke:#808080;stroke-width:8.64"/>
	<line x1="1869.62" y1="1550.14" x2="1884.59" y2="1550.14" style="stroke:#808080;stroke-width:8.64"/>
	<line x1="1891.52" y1="1539.87" x2="1904.02" y2="1539.87" style="stroke:#808080;stroke-width:8.64"/>
	<line x1="1904.02" y1="1539.87" x2="1904.02" y2="1529.47" style="stroke:#808080;stroke-width:8.64"/>
	<line x1="1904.02" y1="1529.47" x2="1921.22" y2="1529.47" style="stroke:#808080;stroke-width:8.64"/>
	<line x1="1921.22" y1="1529.47" x2="1921.22" y2="1529.23" style="stroke:#808080;stroke-width:8.64"/>
	<line x1="1928.40" y1="1519.20" x2="1938.42" y2="1519.20" style="stroke:#808080;stroke-width:8.64"/>
	<line x1="1938.42" y1="1519.20" x2="1938.42" y2="1508.93" style="stroke:#808080;stroke-width:8.64"/>
	<line x1="1938.42" y1="1508.93" x2="1955.62" y2="1508.93" style="stroke:#808080;stroke-width:8.64"/>
	<line x1="1955.62" y1="1508.93" x2="1955.62" y2="1506.08" style="stroke:#808080;stroke-width:8.64"/>
	<line x1="1965.40" y1="1498.66" x2="1972.82" y2="1498.66" style="stroke:#808080;stroke-width:8.64"/>
	<line x1="1972.82" y1="1498.66" x2="1972.82" y2="1488.51" style="stroke:#808080;stroke-width:8.64"/>
	<line x1="1972.82" y1="1488.51" x2="1990.02" y2="1488.51" style="stroke:#808080;stroke-width:8.64"/>
	<line x1="1990.02" y1="1488.51" x2="1990.02" y2="1482.94" style="stroke:#808080;stroke-width:8.64"/>
	<line x1="2002.65" y1="1478.24" x2="2007.22" y2="1478.24" style="stroke:#808080;stroke-width:8.64"/>
	<line x1="2007.22" y1="1478.24" x2="2007.22" y2="1468.09" style="stroke:#808080;stroke-width:8.64"/>
	<line x1="2007.22" y1="1468.09" x2="2024.43" y2="1468.09" style="stroke:#808080;stroke-width:8.64"/>
	<line x1="2024.43" y1="1468.09" x2="2024.43" y2="1459.68" style="stroke:#808080;stroke-width:8.64"/>
	<line x1="2039.89" y1="1457.94" x2="2041.63" y2="1457.94" style="stroke:#808080;stroke-width:8.64"/>
	<line x1="2041.63" y1="1457.94" x2="2041.63" y2="1447.80" style="stroke:#808080;stroke-width:8.64"/>
	<line x1="2041.63" y1="1447.80" x2="2058.83" y2="1447.80" style="stroke:#808080;stroke-width:8.64"/>
	<line x1="2058.83" y1="1447.80" x2="2058.83" y2="1437.77" style="stroke:#808080;stroke-width:8.64"/>
	<line x1="2058.83" y1="1437.77" x2="2060.07" y2="1437.77" style="stroke:#808080;stroke-width:8.64"/>
	<line x1="2076.03" y1="1436.53" x2="2076.03" y2="1427.62" style="stroke:#808080;stroke-width:8.64"/>
	<line x1="2076.03" y1="1427.62" x2="2093.23" y2="1427.62" style="stroke:#808080;stroke-width:8.64"/>
	<line x1="2093.23" y1="1427.62" x2="2093.23" y2="1417.60" style="stroke:#808080;stroke-width:8.64"/>
	<line x1="2093.23" y1="1417.60" x2="2097.44" y2="1417.60" style="stroke:#808080;stroke-width:8.64"/>
	<line x1="2110.31" y1="1413.27" x2="2110.31" y2="1407.58" style="stroke:#808080;stroke-width:8.64"/>
	<line x1="2110.31" y1="1407.58" x2="2127.51" y2="1407.58" style="stroke:#808080;stroke-width:8.64"/>
	<line x1="2127.51" y1="1407.58" x2="2127.51" y2="1397.55" style="stroke:#808080;stroke-width:8.64"/>
	<line x1="2127.51" y1="1397.55" x2="2134.93" y2="1397.55" style="stroke:#808080;stroke-width:8.64"/>
	<line x1="2144.71" y1="1390.13" x2="2144.71" y2="1387.65" style="stroke:#808080;stroke-width:8.64"/>
	<line x1="2144.71" y1="1387.65" x2="2161.91" y2="1387.65" style="stroke:#808080;stroke-width:8.64"/>
	<line x1="2161.91" y1="1387.65" x2="2161.91" y2="1377.75" style="stroke:#808080;stroke-width:8.64"/>
	<line x1="2161.91" y1="1377.75" x2="2172.80" y2="1377.75" style="stroke:#808080;stroke-width:8.64"/>
	<line x1="2179.98" y1="1367.73" x2="2196.32" y2="1367.73" style="stroke:#808080;stroke-width:8.64"/>
	<line x1="2196.32" y1="1367.73" x2="2196.32" y2="1357.95" style="stroke:#808080;stroke-width:8.64"/>
	<line x1="2196.32" y1="1357.95" x2="2210.55" y2="1357.95" style="stroke:#808080;stroke-width:8.64"/>
	<line x1="2217.85" y1="1348.05" x2="2230.72" y2="1348.05" style="stroke:#808080;stroke-width:8.64"/>
	<line x1="2230.72" y1="1348.05" x2="2230.72" y2="1338.15" style="stroke:#808080;stroke-width:8.64"/>
	<line x1="2230.72" y1="1338.15" x2="2247.92" y2="1338.15" style="stroke:#808080;stroke-width:8.64"/>
	<line x1="2247.92" y1="1338.15" x2="2247.92" y2="1337.78" style="stroke:#808080;stroke-width:8.64"/>
	<line x1="2255.72" y1="1328.37" x2="2265.12" y2="1328.37" style="stroke:#808080;stroke-width:8.64"/>
	<line x1="2265.12" y1="1328.37" x2="2265.12" y2="1318.60" style="stroke:#808080;stroke-width:8.64"/>
	<line x1="2265.12" y1="1318.60" x2="2282.32" y2="1318.60" style="stroke:#808080;stroke-width:8.64"/>
	<line x1="2282.32" y1="1318.60" x2="2282.32" y2="1314.64" style="stroke:#808080;stroke-width:8.64"/>
	<line x1="2293.71" y1="1308.82" x2="2299.52" y2="1308.82" style="stroke:#808080;stroke-width:8.64"/>
	<line x1="2299.52" y1="1308.82" x2="2299.52" y2="1299.04" style="stroke:#808080;stroke-width:8.64"/>
	<line x1="2299.52" y1="1299.04" x2="2316.72" y2="1299.04" style="stroke:#808080;stroke-width:8.64"/>
	<line x1="2316.72" y1="1299.04" x2="2316.72" y2="1291.50" style="stroke:#808080;stroke-width:8.64"/>
	<line x1="2331.82" y1="1289.27" x2="2333.93" y2="1289.27" style="stroke:#808080;stroke-width:8.64"/>
	<line x1="2333.93" y1="1289.27" x2="2333.93" y2="1279.61" style="stroke:#808080;stroke-width:8.64"/>
	<line x1="2333.93" y1="1279.61" x2="2351.00" y2="1279.61" style="stroke:#808080;stroke-width:8.64"/>
	<line x1="2351.00" y1="1279.61" x2="2351.00" y2="1269.96" style="stroke:#808080;stroke-width:8.64"/>
	<line x1="2351.00" y1="1269.96" x2="2352.74" y2="1269.96" style="stroke:#808080;stroke-width:8.64"/>
	<line x1="2368.20" y1="1268.11" x2="2368.20" y2="1260.31" style="stroke:#808080;stroke-width:8.64"/>
	<line x1="2368.20" y1="1260.31" x2="2385.41" y2="1260.31" style="stroke:#808080;stroke-width:8.64"/>
	<line x1="2385.41" y1="1260.31" x2="2385.41" y2="1250.66" style="stroke:#808080;stroke-width:8.64"/>
	<line x1="2385.41" y1="1250.66" x2="2391.10" y2="1250.66" style="stroke:#808080;stroke-width:8.64"/>
	<line x1="2402.61" y1="1244.96" x2="2402.61" y2="1241.00" style="stroke:#808080;stroke-width:8.64"/>
	<line x1="2402.61" y1="1241.00" x2="2419.81" y2="1241.00" style="stroke:#808080;stroke-width:8.64"/>
	<line x1="2419.81" y1="1241.00" x2="2419.81" y2="1231.47" style="stroke:#808080;stroke-width:8.64"/>
	<line x1="2419.81" y1="1231.47" x2="2429.46" y2="1231.47" style="stroke:#808080;stroke-width:8.64"/>
	<line x1="2437.01" y1="1221.82" x2="2454.21" y2="1221.82" style="stroke:#808080;stroke-width:8.64"/>
	<line x1="2454.21" y1="1221.82" x2="2454.21" y2="1212.29" style="stroke:#808080;stroke-width:8.64"/>
	<line x1="2454.21" y1="1212.29" x2="2467.82" y2="1212.29" style="stroke:#808080;stroke-width:8.64"/>
	<line x1="2475.49" y1="1202.76" x2="2488.61" y2="1202.76" style="stroke:#808080;stroke-width:8.64"/>
	<line x1="2488.61" y1="1202.76" x2="2488.61" y2="1193.23" style="stroke:#808080;stroke-width:8.64"/>
	<line x1="2488.61" y1="1193.23" x2="2505.81" y2="1193.23" style="stroke:#808080;stroke-width:8.64"/>
	<line x1="2505.81" y1="1193.23" x2="2505.81" y2="1192.74" style="stroke:#808080;stroke-width:8.64"/>
	<line x1="2514.23" y1="1183.83" x2="2523.01" y2="1183.83" style="stroke:#808080;stroke-width:8.64"/>
	<line x1="2523.01" y1="1183.83" x2="2523.01" y2="1174.30" style="stroke:#808080;stroke-width:8.64"/>
	<line x1="2523.01" y1="1174.30" x2="2540.22" y2="1174.30" style="stroke:#808080;stroke-width:8.64"/>
	<line x1="2540.22" y1="1174.30" x2="2540.22" y2="1169.47" style="stroke:#808080;stroke-width:8.64"/>
	<line x1="2552.84" y1="1164.90" x2="2557.42" y2="1164.90" style="stroke:#808080;stroke-width:8.64"/>
	<line x1="2557.42" y1="1164.90" x2="2557.42" y2="1155.49" style="stroke:#808080;stroke-width:8.64"/>
	<line x1="2557.42" y1="1155.49" x2="2574.62" y2="1155.49" style="stroke:#808080;stroke-width:8.64"/>
	<line x1="2574.62" y1="1155.49" x2="2574.62" y2="1146.33" style="stroke:#808080;stroke-width:8.64"/>
	<line x1="2591.57" y1="1146.08" x2="2591.70" y2="1146.08" style="stroke:#808080;stroke-width:8.64"/>
	<line x1="2591.70" y1="1146.08" x2="2591.70" y2="1136.68" style="stroke:#808080;stroke-width:8.64"/>
	<line x1="2591.70" y1="1136.68" x2="2608.90" y2="1136.68" style="stroke:#808080;stroke-width:8.64"/>
	<line x1="2608.90" y1="1136.68" x2="2608.90" y2="1127.27" style="stroke:#808080;stroke-width:8.64"/>
	<line x1="2608.90" y1="1127.27" x2="2613.11" y2="1127.27" style="stroke:#808080;stroke-width:8.64"/>
	<line x1="2626.10" y1="1122.94" x2="2626.10" y2="1117.99" style="stroke:#808080;stroke-width:8.64"/>
	<line x1="2626.10" y1="1117.99" x2="2643.30" y2="1117.99" style="stroke:#808080;stroke-width:8.64"/>
	<line x1="2643.30" y1="1117.99" x2="2643.30" y2="1108.59" style="stroke:#808080;stroke-width:8.64"/>
	<line x1="2643.30" y1="1108.59" x2="2652.09" y2="1108.59" style="stroke:#808080;stroke-width:8.64"/>
	<line x1="2660.50" y1="1099.80" x2="2660.50" y2="1099.31" style="stroke:#808080;stroke-width:8.64"/>
	<line x1="2660.50" y1="1099.31" x2="2677.70" y2="1099.31" style="stroke:#808080;stroke-width:8.64"/>
	<line x1="2677.70" y1="1099.31" x2="2677.70" y2="1090.02" style="stroke:#808080;stroke-width:8.64"/>
	<line x1="2677.70" y1="1090.02" x2="2691.07" y2="1090.02" style="stroke:#808080;stroke-width:8.64"/>
	<line x1="2698.99" y1="1080.74" x2="2712.11" y2="1080.74" style="stroke:#808080;stroke-width:8.64"/>
	<line x1="2712.11" y1="1080.74" x2="2712.11" y2="1071.46" style="stroke:#808080;stroke-width:8.64"/>
	<line x1="2712.11" y1="1071.46" x2="2729.31" y2="1071.46" style="stroke:#808080;stroke-width:8.64"/>
	<line x1="2729.31" y1="1071.46" x2="2729.31" y2="1070.72" style="stroke:#808080;stroke-width:8.64"/>
	<line x1="2738.09" y1="1062.30" x2="2746.51" y2="1062.30" style="stroke:#808080;stroke-width:8.64"/>
	<line x1="2746.51" y1="1062.30" x2="2746.51" y2="1053.02" style="stroke:#808080;stroke-width:8.64"/>
	<line x1="2746.51" y1="1053.02" x2="2763.71" y2="1053.02" style="stroke:#808080;stroke-width:8.64"/>
	<line x1="2763.71" y1="1053.02" x2="2763.71" y2="1047.58" style="stroke:#808080;stroke-width:8.64"/>
	<line x1="2777.20" y1="1043.86" x2="2780.91" y2="1043.86" style="stroke:#808080;stroke-width:8.64"/>
	<line x1="2780.91" y1="1043.86" x2="2780.91" y2="1034.58" style="stroke:#808080;stroke-width:8.64"/>
	<line x1="2780.91" y1="1034.58" x2="2798.11" y2="1034.58" style="stroke:#808080;stroke-width:8.64"/>
	<line x1="2798.11" y1="1034.58" x2="2798.11" y2="1025.42" style="stroke:#808080;stroke-width:8.64"/>
	<line x1="2798.11" y1="1025.42" x2="2799.22" y2="1025.42" style="stroke:#808080;stroke-width:8.64"/>
	<line x1="2815.31" y1="1024.31" x2="2815.31" y2="1016.27" style="stroke:#808080;stroke-width:8.64"/>
	<line x1="2815.31" y1="1016.27" x2="2832.39" y2="1016.27" style="stroke:#808080;stroke-width:8.64"/>
	<line x1="2832.39" y1="1016.27" x2="2832.39" y2="1007.23" style="stroke:#808080;stroke-width:8.64"/>
	<line x1="2832.39" y1="1007.23" x2="2838.58" y2="1007.23" style="stroke:#808080;stroke-width:8.64"/>
	<line x1="2849.59" y1="1001.05" x2="2849.59" y2="998.07" style="stroke:#808080;stroke-width:8.64"/>
	<line x1="2849.59" y1="998.07" x2="2866.79" y2="998.07" style="stroke:#808080;stroke-width:8.64"/>
	<line x1="2866.79" y1="998.07" x2="2866.79" y2="989.04" style="stroke:#808080;stroke-width:8.64"/>
	<line x1="2866.79" y1="989.04" x2="2877.93" y2="989.04" style="stroke:#808080;stroke-width:8.64"/>
	<line x1="2885.97" y1="979.88" x2="2901.20" y2="979.88" style="stroke:#808080;stroke-width:8.64"/>
	<line x1="2901.20" y1="979.88" x2="2901.20" y2="970.85" style="stroke:#808080;stroke-width:8.64"/>
	<line x1="2901.20" y1="970.85" x2="2917.28" y2="970.85" style="stroke:#808080;stroke-width:8.64"/>
	<line x1="2925.57" y1="961.82" x2="2935.60" y2="961.82" style="stroke:#808080;stroke-width:8.64"/>
	<line x1="2935.60" y1="961.82" x2="2935.60" y2="952.78" style="stroke:#808080;stroke-width:8.64"/>
	<line x1="2935.60" y1="952.78" x2="2952.80" y2="952.78" style="stroke:#808080;stroke-width:8.64"/>
	<line x1="2952.80" y1="952.78" x2="2952.80" y2="948.82" style="stroke:#808080;stroke-width:8.64"/>
	<line x1="2965.05" y1="943.75" x2="2970.00" y2="943.75" style="stroke:#808080;stroke-width:8.64"/>
	<line x1="2970.00" y1="943.75" x2="2970.00" y2="934.84" style="stroke:#808080;stroke-width:8.64"/>
	<line x1="2970.00" y1="934.84" x2="2987.20" y2="934.84" style="stroke:#808080;stroke-width:8.64"/>
	<line x1="2987.20" y1="934.84" x2="2987.20" y2="925.80" style="stroke:#808080;stroke-width:8.64"/>
	<line x1="2987.20" y1="925.80" x2="2987.45" y2="925.80" style="stroke:#808080;stroke-width:8.64"/>
	<line x1="3004.40" y1="925.56" x2="3004.40" y2="916.89" style="stroke:#808080;stroke-width:8.64"/>
	<line x1="3004.40" y1="916.89" x2="3021.60" y2="916.89" style="stroke:#808080;stroke-width:8.64"/>
	<line x1="3021.60" y1="916.89" x2="3021.60" y2="907.86" style="stroke:#808080;stroke-width:8.64"/>
	<line x1="3021.60" y1="907.86" x2="3027.05" y2="907.86" style="stroke:#808080;stroke-width:8.64"/>
	<line x1="3038.80" y1="902.41" x2="3038.80" y2="898.95" style="stroke:#808080;stroke-width:8.64"/>
	<line x1="3038.80" y1="898.95" x2="3055.88" y2="898.95" style="stroke:#808080;stroke-width:8.64"/>
	<line x1="3055.88" y1="898.95" x2="3055.88" y2="890.04" style="stroke:#808080;stroke-width:8.64"/>
	<line x1="3055.88" y1="890.04" x2="3066.77" y2="890.04" style="stroke:#808080;stroke-width:8.64"/>
	<line x1="3075.06" y1="881.13" x2="3090.28" y2="881.13" style="stroke:#808080;stroke-width:8.64"/>
	<line x1="3090.28" y1="881.13" x2="3090.28" y2="872.34" style="stroke:#808080;stroke-width:8.64"/>
	<line x1="3090.28" y1="872.34" x2="3106.62" y2="872.34" style="stroke:#808080;stroke-width:8.64"/>
	<line x1="3115.03" y1="863.43" x2="3124.69" y2="863.43" style="stroke:#808080;stroke-width:8.64"/>
	<line x1="3124.69" y1="863.43" x2="3124.69" y2="854.64" style="stroke:#808080;stroke-width:8.64"/>
	<line x1="3124.69" y1="854.64" x2="3141.89" y2="854.64" style="stroke:#808080;stroke-width:8.64"/>
	<line x1="3141.89" y1="854.64" x2="3141.89" y2="849.94" style="stroke:#808080;stroke-width:8.64"/>
	<line x1="3154.88" y1="845.73" x2="3159.09" y2="845.73" style="stroke:#808080;stroke-width:8.64"/>
	<line x1="3159.09" y1="845.73" x2="3159.09" y2="836.95" style="stroke:#808080;stroke-width:8.64"/>
	<line x1="3159.09" y1="836.95" x2="3176.29" y2="836.95" style="stroke:#808080;stroke-width:8.64"/>
	<line x1="3176.29" y1="836.95" x2="3176.29" y2="828.16" style="stroke:#808080;stroke-width:8.64"/>
	<line x1="3176.29" y1="828.16" x2="3177.65" y2="828.16" style="stroke:#808080;stroke-width:8.64"/>
	<line x1="3193.49" y1="826.80" x2="3193.49" y2="819.37" style="stroke:#808080;stroke-width:8.64"/>
	<line x1="3193.49" y1="819.37" x2="3210.69" y2="819.37" style="stroke:#808080;stroke-width:8.64"/>
	<line x1="3210.69" y1="819.37" x2="3210.69" y2="810.59" style="stroke:#808080;stroke-width:8.64"/>
	<line x1="3210.69" y1="810.59" x2="3217.62" y2="810.59" style="stroke:#808080;stroke-width:8.64"/>
	<line x1="3227.89" y1="803.66" x2="3227.89" y2="801.93" style="stroke:#808080;stroke-width:8.64"/>
	<line x1="3227.89" y1="801.93" x2="3245.10" y2="801.93" style="stroke:#808080;stroke-width:8.64"/>
	<line x1="3245.10" y1="801.93" x2="3245.10" y2="793.14" style="stroke:#808080;stroke-width:8.64"/>
	<line x1="3245.10" y1="793.14" x2="3257.72" y2="793.14" style="stroke:#808080;stroke-width:8.64"/>
	<line x1="3266.38" y1="784.48" x2="3279.50" y2="784.48" style="stroke:#808080;stroke-width:8.64"/>
	<line x1="3279.50" y1="784.48" x2="3279.50" y2="775.69" style="stroke:#808080;stroke-width:8.64"/>
	<line x1="3279.50" y1="775.69" x2="3296.58" y2="775.69" style="stroke:#808080;stroke-width:8.64"/>
	<line x1="3296.58" y1="775.69" x2="3296.58" y2="774.33" style="stroke:#808080;stroke-width:8.64"/>
	<line x1="3306.48" y1="767.03" x2="3313.78" y2="767.03" style="stroke:#808080;stroke-width:8.64"/>
	<line x1="3313.78" y1="767.03" x2="3313.78" y2="758.36" style="stroke:#808080;stroke-width:8.64"/>
	<line x1="3313.78" y1="758.36" x2="3330.98" y2="758.36" style="stroke:#808080;stroke-width:8.64"/>
	<line x1="3330.98" y1="758.36" x2="3330.98" y2="751.19" style="stroke:#808080;stroke-width:8.64"/>
	<line x1="3346.70" y1="749.70" x2="3348.18" y2="749.70" style="stroke:#808080;stroke-width:8.64"/>
	<line x1="3348.18" y1="749.70" x2="3348.18" y2="741.04" style="stroke:#808080;stroke-width:8.64"/>
	<line x1="3348.18" y1="741.04" x2="3365.38" y2="741.04" style="stroke:#808080;stroke-width:8.64"/>
	<line x1="3365.38" y1="741.04" x2="3365.38" y2="732.38" style="stroke:#808080;stroke-width:8.64"/>
	<line x1="3365.38" y1="732.38" x2="3369.71" y2="732.38" style="stroke:#808080;stroke-width:8.64"/>
	<line x1="3382.58" y1="728.04" x2="3382.58" y2="723.84" style="stroke:#808080;stroke-width:8.64"/>
	<line x1="3382.58" y1="723.84" x2="3399.78" y2="723.84" style="stroke:#808080;stroke-width:8.64"/>
	<line x1="3399.78" y1="723.84" x2="3399.78" y2="715.17" style="stroke:#808080;stroke-width:8.64"/>
	<line x1="3399.78" y1="715.17" x2="3410.05" y2="715.17" style="stroke:#808080;stroke-width:8.64"/>
	<line x1="3418.72" y1="706.63" x2="3434.19" y2="706.63" style="stroke:#808080;stroke-width:8.64"/>
	<line x1="3434.19" y1="706.63" x2="3434.19" y2="698.10" style="stroke:#808080;stroke-width:8.64"/>
	<line x1="3434.19" y1="698.10" x2="3450.52" y2="698.10" style="stroke:#808080;stroke-width:8.64"/>
	<line x1="3459.31" y1="689.56" x2="3468.59" y2="689.56" style="stroke:#808080;stroke-width:8.64"/>
	<line x1="3468.59" y1="689.56" x2="3468.59" y2="681.02" style="stroke:#808080;stroke-width:8.64"/>
	<line x1="3468.59" y1="681.02" x2="3485.79" y2="681.02" style="stroke:#808080;stroke-width:8.64"/>
	<line x1="3485.79" y1="681.02" x2="3485.79" y2="675.70" style="stroke:#808080;stroke-width:8.64"/>
	<line x1="3499.77" y1="672.48" x2="3502.99" y2="672.48" style="stroke:#808080;stroke-width:8.64"/>
	<line x1="3502.99" y1="672.48" x2="3502.99" y2="663.94" style="stroke:#808080;stroke-width:8.64"/>
	<line x1="3502.99" y1="663.94" x2="3520.19" y2="663.94" style="stroke:#808080;stroke-width:8.64"/>
	<line x1="3520.19" y1="663.94" x2="3520.19" y2="655.40" style="stroke:#808080;stroke-width:8.64"/>
	<line x1="3520.19" y1="655.40" x2="3523.04" y2="655.40" style="stroke:#808080;stroke-width:8.64"/>
	<line x1="3537.27" y1="652.43" x2="3537.27" y2="646.99" style="stroke:#808080;stroke-width:8.64"/>
	<line x1="3537.27" y1="646.99" x2="3554.47" y2="646.99" style="stroke:#808080;stroke-width:8.64"/>
	<line x1="3554.47" y1="646.99" x2="3554.47" y2="638.45" style="stroke:#808080;stroke-width:8.64"/>
	<line x1="3554.47" y1="638.45" x2="3563.63" y2="638.45" style="stroke:#808080;stroke-width:8.64"/>
	<line x1="3572.41" y1="630.03" x2="3588.87" y2="630.03" style="stroke:#808080;stroke-width:8.64"/>
	<line x1="3588.87" y1="630.03" x2="3588.87" y2="621.49" style="stroke:#808080;stroke-width:8.64"/>
	<line x1="3588.87" y1="621.49" x2="3604.22" y2="621.49" style="stroke:#808080;stroke-width:8.64"/>
	<line x1="3613.13" y1="613.08" x2="3623.28" y2="613.08" style="stroke:#808080;stroke-width:8.64"/>
	<line x1="3623.28" y1="613.08" x2="3623.28" y2="604.66" style="stroke:#808080;stroke-width:8.64"/>
	<line x1="3623.28" y1="604.66" x2="3640.48" y2="604.66" style="stroke:#808080;stroke-width:8.64"/>
	<line x1="3640.48" y1="604.66" x2="3640.48" y2="600.08" style="stroke:#808080;stroke-width:8.64"/>
	<line x1="3653.84" y1="596.25" x2="3657.68" y2="596.25" style="stroke:#808080;stroke-width:8.64"/>
	<line x1="3657.68" y1="596.25" x2="3657.68" y2="587.95" style="stroke:#808080;stroke-width:8.64"/>
	<line x1="3657.68" y1="587.95" x2="3674.88" y2="587.95" style="stroke:#808080;stroke-width:8.64"/>
	<line x1="3674.88" y1="587.95" x2="3674.88" y2="579.54" style="stroke:#808080;stroke-width:8.64"/>
	<line x1="3674.88" y1="579.54" x2="3677.48" y2="579.54" style="stroke:#808080;stroke-width:8.64"/>
	<line x1="3692.08" y1="576.94" x2="3692.08" y2="571.25" style="stroke:#808080;stroke-width:8.64"/>
	<line x1="3692.08" y1="571.25" x2="3709.28" y2="571.25" style="stroke:#808080;stroke-width:8.64"/>
	<line x1="3709.28" y1="571.25" x2="3709.28" y2="562.83" style="stroke:#808080;stroke-width:8.64"/>
	<line x1="3709.28" y1="562.83" x2="3718.32" y2="562.83" style="stroke:#808080;stroke-width:8.64"/>
	<line x1="3727.23" y1="554.54" x2="3743.68" y2="554.54" style="stroke:#808080;stroke-width:8.64"/>
	<line x1="3743.68" y1="554.54" x2="3743.68" y2="546.13" style="stroke:#808080;stroke-width:8.64"/>
	<line x1="3743.68" y1="546.13" x2="3759.15" y2="546.13" style="stroke:#808080;stroke-width:8.64"/>
	<line x1="3768.19" y1="537.83" x2="3777.96" y2="537.83" style="stroke:#808080;stroke-width:8.64"/>
	<line x1="3777.96" y1="537.83" x2="3777.96" y2="529.54" style="stroke:#808080;stroke-width:8.64"/>
	<line x1="3777.96" y1="529.54" x2="3795.16" y2="529.54" style="stroke:#808080;stroke-width:8.64"/>
	<line x1="3795.16" y1="529.54" x2="3795.16" y2="524.47" style="stroke:#808080;stroke-width:8.64"/>
	<path d="" stroke-linejoin="round" style="fill:none;stroke:#808080;stroke-width:8.64"/>
	<path d=" M717.75 2323.60 L734.95 2323.60 L734.95 2310.61 L752.15 2310.61 L752.15 2297.74 L769.35 2297.74 L769.35 2284.87 L786.55 2284.87 L786.55 2272.00 L803.76 2272.00 L803.76 2259.25 L820.96 2259.25 L820.96 2246.50 L838.16 2246.50 L838.16 2233.88 L855.36 2233.88 L855.36 2221.26 L872.56 2221.26 L872.56 2208.64 L889.76 2208.64 L889.76 2196.14 L906.84 2196.14 L906.84 2183.64 L924.04 2183.64 L924.04 2171.26 L941.24 2171.26 L941.24 2158.89 L958.44 2158.89 L958.44 2146.63 L975.64 2146.63 L975.64 2134.38 L992.85 2134.38 L992.85 2122.13 L1010.05 2122.13 L1010.05 2110.00 L1027.25 2110.00 L1027.25 2097.88 L1044.45 2097.88 L1044.45 2085.87 L1061.65 2085.87 L1061.65 2073.74 L1078.85 2073.74 L1078.85 2061.86 L1096.05 2061.86 L1096.05 2049.86 L1113.26 2049.86 L1113.26 2037.98 L1130.46 2037.98 L1130.46 2026.22 L1147.53 2026.22 L1147.53 2014.34 L1164.73 2014.34 L1164.73 2002.59 L1181.94 2002.59 L1181.94 1990.95 L1199.14 1990.95 L1199.14 1979.20 L1216.34 1979.20 L1216.34 1967.56 L1233.54 1967.56 L1233.54 1956.05 L1250.74 1956.05 L1250.74 1944.42 L1267.94 1944.42 L1267.94 1932.91 L1285.14 1932.91 L1285.14 1921.53 L1302.35 1921.53 L1302.35 1910.02 L1319.55 1910.02 L1319.55 1898.63 L1336.75 1898.63 L1336.75 1887.37 L1353.95 1887.37 L1353.95 1875.98 L1371.15 1875.98 L1371.15 1864.72 L1388.23 1864.72 L1388.23 1853.46 L1405.43 1853.46 L1405.43 1842.32 L1422.63 1842.32 L1422.63 1831.06 L1439.83 1831.06 L1439.83 1820.05 L1457.03 1820.05 L1457.03 1808.91 L1474.23 1808.91 L1474.23 1797.77 L1491.43 1797.77 L1491.43 1786.76 L1508.64 1786.76 L1508.64 1775.87 L1525.84 1775.87 L1525.84 1764.85 L1543.04 1764.85 L1543.04 1753.96 L1560.24 1753.96 L1560.24 1743.07 L1577.44 1743.07 L1577.44 1732.18 L1594.64 1732.18 L1594.64 1721.29 L1611.84 1721.29 L1611.84 1710.53 L1628.92 1710.53 L1628.92 1699.76 L1646.12 1699.76 L1646.12 1689.12 L1663.32 1689.12 L1663.32 1678.35 L1680.53 1678.35 L1680.53 1667.71 L1697.73 1667.71 L1697.73 1657.06 L1714.93 1657.06 L1714.93 1646.42 L1732.13 1646.42 L1732.13 1635.90 L1749.33 1635.90 L1749.33 1625.38 L1766.53 1625.38 L1766.53 1614.86 L1783.73 1614.86 L1783.73 1604.35 L1800.93 1604.35 L1800.93 1593.83 L1818.13 1593.83 L1818.13 1583.43 L1835.34 1583.43 L1835.34 1573.04 L1852.54 1573.04 L1852.54 1562.64 L1869.62 1562.64 L1869.62 1552.37 L1886.82 1552.37 L1886.82 1541.97 L1904.02 1541.97 L1904.02 1531.70 L1921.22 1531.70 L1921.22 1521.43 L1938.42 1521.43 L1938.42 1511.16 L1955.62 1511.16 L1955.62 1501.01 L1972.82 1501.01 L1972.82 1490.86 L1990.02 1490.86 L1990.02 1480.72 L2007.22 1480.72 L2007.22 1470.57 L2024.43 1470.57 L2024.43 1460.42 L2041.63 1460.42 L2041.63 1450.40 L2058.83 1450.40 L2058.83 1440.25 L2076.03 1440.25 L2076.03 1430.22 L2093.23 1430.22 L2093.23 1420.20 L2110.31 1420.20 L2110.31 1410.30 L2127.51 1410.30 L2127.51 1400.28 L2144.71 1400.28 L2144.71 1390.37 L2161.91 1390.37 L2161.91 1380.47 L2179.11 1380.47 L2179.11 1370.57 L2196.32 1370.57 L2196.32 1360.80 L2213.52 1360.80 L2213.52 1350.90 L2230.72 1350.90 L2230.72 1341.12 L2247.92 1341.12 L2247.92 1331.34 L2265.12 1331.34 L2265.12 1321.57 L2282.32 1321.57 L2282.32 1311.79 L2299.52 1311.79 L2299.52 1302.14 L2316.72 1302.14 L2316.72 1292.49 L2333.93 1292.49 L2333.93 1282.71 L2351.00 1282.71 L2351.00 1273.18 L2368.20 1273.18 L2368.20 1263.53 L2385.41 1263.53 L2385.41 1253.87 L2402.61 1253.87 L2402.61 1244.35 L2419.81 1244.35 L2419.81 1234.69 L2437.01 1234.69 L2437.01 1225.16 L2454.21 1225.16 L2454.21 1215.63 L2471.41 1215.63 L2471.41 1206.23 L2488.61 1206.23 L2488.61 1196.70 L2505.81 1196.70 L2505.81 1187.29 L2523.01 1187.29 L2523.01 1177.89 L2540.22 1177.89 L2540.22 1168.36 L2557.42 1168.36 L2557.42 1159.08 L2574.62 1159.08 L2574.62 1149.67 L2591.70 1149.67 L2591.70 1140.27 L2608.90 1140.27 L2608.90 1130.99 L2626.10 1130.99 L2626.10 1121.71 L2643.30 1121.71 L2643.30 1112.42 L2660.50 1112.42 L2660.50 1103.14 L2677.70 1103.14 L2677.70 1093.86 L2694.90 1093.86 L2694.90 1084.58 L2712.11 1084.58 L2712.11 1075.42 L2729.31 1075.42 L2729.31 1066.26 L2746.51 1066.26 L2746.51 1057.11 L2763.71 1057.11 L2763.71 1047.95 L2780.91 1047.95 L2780.91 1038.79 L2798.11 1038.79 L2798.11 1029.63 L2815.31 1029.63 L2815.31 1020.60 L2832.39 1020.60 L2832.39 1011.44 L2849.59 1011.44 L2849.59 1002.41 L2866.79 1002.41 L2866.79 993.37 L2883.99 993.37 L2883.99 984.34 L2901.20 984.34 L2901.20 975.30 L2918.40 975.30 L2918.40 966.39 L2935.60 966.39 L2935.60 957.36 L2952.80 957.36 L2952.80 948.45 L2970.00 948.45 L2970.00 939.54 L2987.20 939.54 L2987.20 930.63 L3004.40 930.63 L3004.40 921.72 L3021.60 921.72 L3021.60 912.81 L3038.80 912.81 L3038.80 903.90 L3055.88 903.90 L3055.88 895.11 L3073.08 895.11 L3073.08 886.20 L3090.28 886.20 L3090.28 877.41 L3107.49 877.41 L3107.49 868.63 L3124.69 868.63 L3124.69 859.84 L3141.89 859.84 L3141.89 851.06 L3159.09 851.06 L3159.09 842.27 L3176.29 842.27 L3176.29 833.48 L3193.49 833.48 L3193.49 824.82 L3210.69 824.82 L3210.69 816.16 L3227.89 816.16 L3227.89 807.37 L3245.10 807.37 L3245.10 798.71 L3262.30 798.71 L3262.30 790.04 L3279.50 790.04 L3279.50 781.38 L3296.58 781.38 L3296.58 772.84 L3313.78 772.84 L3313.78 764.18 L3330.98 764.18 L3330.98 755.52 L3348.18 755.52 L3348.18 746.98 L3365.38 746.98 L3365.38 738.44 L3382.58 738.44 L3382.58 729.90 L3399.78 729.90 L3399.78 721.36 L3416.99 721.36 L3416.99 712.82 L3434.19 712.82 L3434.19 704.28 L3451.39 704.28 L3451.39 695.74 L3468.59 695.74 L3468.59 687.21 L3485.79 687.21 L3485.79 678.79 L3502.99 678.79 L3502.99 670.37 L3520.19 670.37 L3520.19 661.84 L3537.27 661.84 L3537.27 653.42 L3554.47 653.42 L3554.47 645.01 L3571.67 645.01 L3571.67 636.59 L3588.87 636.59 L3588.87 628.30 L3606.07 628.30 L3606.07 619.88 L3623.28 619.88 L3623.28 611.47 L3640.48 611.47 L3640.48 603.18 L3657.68 603.18 L3657.68 594.76 L3674.88 594.76 L3674.88 586.47 L3692.08 586.47 L3692.08 578.18 L3709.28 578.18 L3709.28 569.89 L3726.48 569.89 L3726.48 561.60 L3743.68 561.60 L3743.68 553.30 L3760.89 553.30 L3760.89 545.14 L3777.96 545.14 L3777.96 536.84 L3795.16 536.84 L3795.16 528.68" stroke-linejoin="round" style="fill:none;stroke:#000000;stroke-width:8.64"/>
	<line x1="495.00" y1="2509.23" x2="495.00" y2="419.90" style="stroke:#000000;stroke-width:5.76"/>
	<line x1="495.00" y1="2445.87" x2="454.90" y2="2445.87" style="stroke:#000000;stroke-width:5.76"/>
	<text x="434.98" y="2480.90" style="font-family:'Helvetica';font-size:99.99px;fill:#000000" text-anchor="end">0</text>
	<line x1="495.00" y1="2322.49" x2="454.90" y2="2322.49" style="stroke:#000000;stroke-width:5.76"/>
	<text x="434.98" y="2357.52" style="font-family:'Helvetica';font-size:99.99px;fill:#000000" text-anchor="end">90</text>
	<line x1="495.00" y1="2199.11" x2="454.90" y2="2199.11" style="stroke:#000000;stroke-width:5.76"/>
	<text x="434.98" y="2234.13" style="font-family:'Helvetica';font-size:99.99px;fill:#000000" text-anchor="end">180</text>
	<line x1="495.00" y1="2075.85" x2="454.90" y2="2075.85" style="stroke:#000000;stroke-width:5.76"/>
	<text x="434.98" y="2110.88" style="font-family:'Helvetica';font-size:99.99px;fill:#000000" text-anchor="end">270</text>
	<line x1="495.00" y1="1952.46" x2="454.90" y2="1952.46" style="stroke:#000000;stroke-width:5.76"/>
	<text x="434.98" y="1987.49" style="font-family:'Helvetica';font-size:99.99px;fill:#000000" text-anchor="end">360</text>
	<text x="190.71" y="1464.63" style="font-family:'Helvetica';font-size:99.99px;fill:#000000" transform="rotate(-90 190.71,1464.63)" text-anchor="middle">LOS (years)</text>
	<line x1="495.00" y1="2509.23" x2="3859.02" y2="2509.23" style="stroke:#000000;stroke-width:5.76"/>
	<line x1="558.36" y1="2509.23" x2="558.36" y2="2549.21" style="stroke:#000000;stroke-width:5.76"/>
	<text x="558.36" y="2625.15" style="font-family:'Helvetica';font-size:79.94px;fill:#000000" text-anchor="middle">0</text>
	<line x1="752.52" y1="2509.23" x2="752.52" y2="2549.21" style="stroke:#000000;stroke-width:5.76"/>
	<text x="752.52" y="2625.15" style="font-family:'Helvetica';font-size:79.94px;fill:#000000" text-anchor="middle">.3</text>
	<line x1="946.81" y1="2509.23" x2="946.81" y2="2549.21" style="stroke:#000000;stroke-width:5.76"/>
	<text x="946.81" y="2625.15" style="font-family:'Helvetica';font-size:79.94px;fill:#000000" text-anchor="middle">.6</text>
	<line x1="1141.10" y1="2509.23" x2="1141.10" y2="2549.21" style="stroke:#000000;stroke-width:5.76"/>
	<text x="1141.10" y="2625.15" style="font-family:'Helvetica';font-size:79.94px;fill:#000000" text-anchor="middle">.9</text>
	<line x1="1335.26" y1="2509.23" x2="1335.26" y2="2549.21" style="stroke:#000000;stroke-width:5.76"/>
	<text x="1335.26" y="2625.15" style="font-family:'Helvetica';font-size:79.94px;fill:#000000" text-anchor="middle">1.2</text>
	<line x1="1529.55" y1="2509.23" x2="1529.55" y2="2549.21" style="stroke:#000000;stroke-width:5.76"/>
	<text x="1529.55" y="2625.15" style="font-family:'Helvetica';font-size:79.94px;fill:#000000" text-anchor="middle">1.5</text>
	<line x1="1723.71" y1="2509.23" x2="1723.71" y2="2549.21" style="stroke:#000000;stroke-width:5.76"/>
	<text x="1723.71" y="2625.15" style="font-family:'Helvetica';font-size:79.94px;fill:#000000" text-anchor="middle">1.8</text>
	<line x1="1918.00" y1="2509.23" x2="1918.00" y2="2549.21" style="stroke:#000000;stroke-width:5.76"/>
	<text x="1918.00" y="2625.15" style="font-family:'Helvetica';font-size:79.94px;fill:#000000" text-anchor="middle">2.1</text>
	<line x1="2112.29" y1="2509.23" x2="2112.29" y2="2549.21" style="stroke:#000000;stroke-width:5.76"/>
	<text x="2112.29" y="2625.15" style="font-family:'Helvetica';font-size:79.94px;fill:#000000" text-anchor="middle">2.4</text>
	<line x1="2306.45" y1="2509.23" x2="2306.45" y2="2549.21" style="stroke:#000000;stroke-width:5.76"/>
	<text x="2306.45" y="2625.15" style="font-family:'Helvetica';font-size:79.94px;fill:#000000" text-anchor="middle">2.7</text>
	<line x1="2500.74" y1="2509.23" x2="2500.74" y2="2549.21" style="stroke:#000000;stroke-width:5.76"/>
	<text x="2500.74" y="2625.15" style="font-family:'Helvetica';font-size:79.94px;fill:#000000" text-anchor="middle">3</text>
	<line x1="2695.03" y1="2509.23" x2="2695.03" y2="2549.21" style="stroke:#000000;stroke-width:5.76"/>
	<text x="2695.03" y="2625.15" style="font-family:'Helvetica';font-size:79.94px;fill:#000000" text-anchor="middle">3.3</text>
	<line x1="2889.19" y1="2509.23" x2="2889.19" y2="2549.21" style="stroke:#000000;stroke-width:5.76"/>
	<text x="2889.19" y="2625.15" style="font-family:'Helvetica';font-size:79.94px;fill:#000000" text-anchor="middle">3.6</text>
	<line x1="3083.48" y1="2509.23" x2="3083.48" y2="2549.21" style="stroke:#000000;stroke-width:5.76"/>
	<text x="3083.48" y="2625.15" style="font-family:'Helvetica';font-size:79.94px;fill:#000000" text-anchor="middle">3.9</text>
	<line x1="3277.77" y1="2509.23" x2="3277.77" y2="2549.21" style="stroke:#000000;stroke-width:5.76"/>
	<text x="3277.77" y="2625.15" style="font-family:'Helvetica';font-size:79.94px;fill:#000000" text-anchor="middle">4.2</text>
	<line x1="3471.93" y1="2509.23" x2="3471.93" y2="2549.21" style="stroke:#000000;stroke-width:5.76"/>
	<text x="3471.93" y="2625.15" style="font-family:'Helvetica';font-size:79.94px;fill:#000000" text-anchor="middle">4.5</text>
	<line x1="3666.22" y1="2509.23" x2="3666.22" y2="2549.21" style="stroke:#000000;stroke-width:5.76"/>
	<text x="3666.22" y="2625.15" style="font-family:'Helvetica';font-size:79.94px;fill:#000000" text-anchor="middle">4.8</text>
	<line x1="3860.51" y1="2509.23" x2="3860.51" y2="2549.21" style="stroke:#000000;stroke-width:5.76"/>
	<text x="3860.51" y="2625.15" style="font-family:'Helvetica';font-size:79.94px;fill:#000000" text-anchor="middle">5.1</text>
	<text x="2177.01" y="2729.16" style="font-family:'Helvetica';font-size:99.99px;fill:#000000" text-anchor="middle">Time (years)</text>
	<rect x="529.53" y="454.42" width="1384.02" height="606.39" style="fill:#FFFFFF"/>
	<rect x="532.41" y="457.30" width="1378.26" height="600.63" style="fill:none;stroke:#000000;stroke-width:5.76"/>
	<rect x="572.72" y="497.74" width="374.34" height="99.99" style="fill:#999999;fill-opacity:0.35"/>
	<rect x="577.03" y="502.06" width="365.70" height="91.35" style="fill:none;stroke:#808080;stroke-opacity:0.35;stroke-width:8.64"/>
	<rect x="572.72" y="637.70" width="374.34" height="99.99" style="fill:#333333;fill-opacity:0.35"/>
	<rect x="577.03" y="642.02" width="365.70" height="91.35" style="fill:none;stroke:#000000;stroke-opacity:0.35;stroke-width:8.64"/>
	<line x1="572.72" y1="827.67" x2="613.06" y2="827.67" style="stroke:#808080;stroke-width:8.64"/>
	<line x1="630.26" y1="827.67" x2="670.60" y2="827.67" style="stroke:#808080;stroke-width:8.64"/>
	<line x1="687.93" y1="827.67" x2="728.27" y2="827.67" style="stroke:#808080;stroke-width:8.64"/>
	<line x1="745.47" y1="827.67" x2="785.81" y2="827.67" style="stroke:#808080;stroke-width:8.64"/>
	<line x1="803.01" y1="827.67" x2="843.36" y2="827.67" style="stroke:#808080;stroke-width:8.64"/>
	<line x1="860.56" y1="827.67" x2="900.90" y2="827.67" style="stroke:#808080;stroke-width:8.64"/>
	<line x1="918.23" y1="827.67" x2="947.06" y2="827.67" style="stroke:#808080;stroke-width:8.64"/>
	<line x1="572.72" y1="967.63" x2="947.06" y2="967.63" style="stroke:#000000;stroke-width:8.64"/>
	<text x="1007.08" y="582.76" style="font-family:'Helvetica';font-size:99.99px;fill:#000000">Ambulatory CI95%</text>
	<text x="1007.08" y="722.73" style="font-family:'Helvetica';font-size:99.99px;fill:#000000">Residential CI95%</text>
	<text x="1007.08" y="862.69" style="font-family:'Helvetica';font-size:99.99px;fill:#000000">Ambulatory</text>
	<text x="1007.08" y="1002.66" style="font-family:'Helvetica';font-size:99.99px;fill:#000000">Residential</text>
	<text x="2177.01" y="369.63" style="font-family:'Helvetica';font-size:110.01px;fill:#000000" text-anchor="middle">in Readmission</text>
	<text x="2177.01" y="215.98" style="font-family:'Helvetica';font-size:139.96px;fill:#1E2D53" text-anchor="middle">Length of Stay(3y)</text>
</svg>
