<?xml version="1.0" encoding="UTF-8" standalone="no"?>
<!-- This is a Stata 16.1 generated SVG file (http://www.stata.com) -->

<svg version="1.1" width="5.50in" height="4.00in" viewBox="0 0 3960 2880" xmlns="http://www.w3.org/2000/svg" xmlns:xlink="http://www.w3.org/1999/xlink">
	<desc>Stata Graph - los_models45</desc>
	<rect x="0" y="0" width="3960" height="2880" style="fill:#EAF2F3;stroke:none"/>
	<rect x="0.00" y="0.00" width="3959.88" height="2880.00" style="fill:#FFFFFF"/>
	<rect x="2.88" y="2.88" width="3954.12" height="2874.24" style="fill:none;stroke:#FFFFFF;stroke-width:5.76"/>
	<rect x="553.29" y="419.90" width="3305.73" height="2089.34" style="fill:#FFFFFF"/>
	<rect x="556.17" y="422.78" width="3299.97" height="2083.58" style="fill:none;stroke:#FFFFFF;stroke-width:5.76"/>
	<line x1="553.29" y1="2445.87" x2="3859.02" y2="2445.87" style="stroke:#EAF2F3;stroke-width:8.64"/>
	<line x1="553.29" y1="2282.27" x2="3859.02" y2="2282.27" style="stroke:#EAF2F3;stroke-width:8.64"/>
	<line x1="553.29" y1="2118.79" x2="3859.02" y2="2118.79" style="stroke:#EAF2F3;stroke-width:8.64"/>
	<line x1="553.29" y1="1955.19" x2="3859.02" y2="1955.19" style="stroke:#EAF2F3;stroke-width:8.64"/>
	<line x1="553.29" y1="1791.71" x2="3859.02" y2="1791.71" style="stroke:#EAF2F3;stroke-width:8.64"/>
	<line x1="553.29" y1="1628.11" x2="3859.02" y2="1628.11" style="stroke:#EAF2F3;stroke-width:8.64"/>
	<line x1="553.29" y1="1464.63" x2="3859.02" y2="1464.63" style="stroke:#EAF2F3;stroke-width:8.64"/>
	<line x1="553.29" y1="1301.02" x2="3859.02" y2="1301.02" style="stroke:#EAF2F3;stroke-width:8.64"/>
	<line x1="553.29" y1="1137.42" x2="3859.02" y2="1137.42" style="stroke:#EAF2F3;stroke-width:8.64"/>
	<line x1="553.29" y1="973.94" x2="3859.02" y2="973.94" style="stroke:#EAF2F3;stroke-width:8.64"/>
	<line x1="553.29" y1="810.34" x2="3859.02" y2="810.34" style="stroke:#EAF2F3;stroke-width:8.64"/>
	<line x1="553.29" y1="646.86" x2="3859.02" y2="646.86" style="stroke:#EAF2F3;stroke-width:8.64"/>
	<defs>
		<path id="path_WmghxcwF" d="M773.31 2443.89 L773.31 2443.89 L790.14 2443.89 L790.14 2443.40 L807.10 2443.40 L807.10 2442.65 L823.93 2442.65 L823.93 2441.91 L840.88 2441.91 L840.88 2441.05 L857.71 2441.05 L857.71 2440.18 L874.54 2440.18 L874.54 2439.19 L891.50 2439.19 L891.50 2438.07 L908.33 2438.07 L908.33 2436.96 L925.28 2436.96 L925.28 2435.72 L942.11 2435.72 L942.11 2434.36 L959.06 2434.36 L959.06 2432.88 L975.89 2432.88 L975.89 2431.39 L992.72 2431.39 L992.72 2429.78 L1009.68 2429.78 L1009.68 2428.17 L1026.51 2428.17 L1026.51 2426.44 L1043.46 2426.44 L1043.46 2424.59 L1060.29 2424.59 L1060.29 2422.61 L1077.24 2422.61 L1077.24 2420.63 L1094.07 2420.63 L1094.07 2418.52 L1110.90 2418.52 L1110.90 2416.29 L1127.86 2416.29 L1127.86 2414.07 L1144.69 2414.07 L1144.69 2411.84 L1161.64 2411.84 L1161.64 2409.36 L1178.47 2409.36 L1178.47 2406.89 L1195.42 2406.89 L1195.42 2404.41 L1212.26 2404.41 L1212.26 2401.69 L1229.09 2401.69 L1229.09 2399.09 L1246.04 2399.09 L1246.04 2396.25 L1262.87 2396.25 L1262.87 2393.40 L1279.82 2393.40 L1279.82 2390.55 L1296.65 2390.55 L1296.65 2387.58 L1313.61 2387.58 L1313.61 2384.49 L1330.44 2384.49 L1330.44 2381.40 L1347.27 2381.40 L1347.27 2378.18 L1364.22 2378.18 L1364.22 2374.96 L1381.05 2374.96 L1381.05 2371.62 L1398.00 2371.62 L1398.00 2368.28 L1414.83 2368.28 L1414.83 2364.81 L1431.66 2364.81 L1431.66 2361.22 L1448.62 2361.22 L1448.62 2357.63 L1465.45 2357.63 L1465.45 2354.05 L1482.40 2354.05 L1482.40 2350.33 L1499.23 2350.33 L1499.23 2346.50 L1516.18 2346.50 L1516.18 2342.66 L1533.02 2342.66 L1533.02 2338.82 L1549.85 2338.82 L1549.85 2334.86 L1566.80 2334.86 L1566.80 2330.90 L1583.63 2330.90 L1583.63 2326.82 L1600.58 2326.82 L1600.58 2322.74 L1617.41 2322.74 L1617.41 2318.53 L1634.37 2318.53 L1634.37 2314.32 L1651.20 2314.32 L1651.20 2309.99 L1668.03 2309.99 L1668.03 2305.66 L1684.98 2305.66 L1684.98 2301.33 L1701.81 2301.33 L1701.81 2296.87 L1718.76 2296.87 L1718.76 2292.29 L1735.59 2292.29 L1735.59 2287.71 L1752.55 2287.71 L1752.55 2283.14 L1769.38 2283.14 L1769.38 2278.43 L1786.21 2278.43 L1786.21 2273.73 L1803.16 2273.73 L1803.16 2269.03 L1819.99 2269.03 L1819.99 2264.20 L1836.94 2264.20 L1836.94 2259.37 L1853.78 2259.37 L1853.78 2254.42 L1870.73 2254.42 L1870.73 2249.47 L1887.56 2249.47 L1887.56 2244.40 L1904.39 2244.40 L1904.39 2239.33 L1921.34 2239.33 L1921.34 2234.25 L1938.17 2234.25 L1938.17 2229.05 L1955.13 2229.05 L1955.13 2223.86 L1971.96 2223.86 L1971.96 2218.54 L1988.91 2218.54 L1988.91 2213.34 L2005.74 2213.34 L2005.74 2207.89 L2022.57 2207.89 L2022.57 2202.57 L2039.52 2202.57 L2039.52 2197.13 L2056.35 2197.13 L2056.35 2191.56 L2073.31 2191.56 L2073.31 2185.99 L2090.14 2185.99 L2090.14 2180.42 L2106.97 2180.42 L2106.97 2174.85 L2123.92 2174.85 L2123.92 2169.16 L2140.75 2169.16 L2140.75 2163.47 L2157.70 2163.47 L2157.70 2157.65 L2174.53 2157.65 L2174.53 2151.96 L2191.49 2151.96 L2191.49 2146.02 L2208.32 2146.02 L2208.32 2140.20 L2225.15 2140.20 L2225.15 2134.26 L2242.10 2134.26 L2242.10 2128.32 L2258.93 2128.32 L2258.93 2122.26 L2275.89 2122.26 L2275.89 2116.19 L2292.72 2116.19 L2292.72 2110.13 L2309.67 2110.13 L2309.67 2104.06 L2326.50 2104.06 L2326.50 2097.88 L2343.33 2097.88 L2343.33 2091.69 L2360.28 2091.69 L2360.28 2085.38 L2377.11 2085.38 L2377.11 2079.06 L2394.07 2079.06 L2394.07 2072.75 L2410.90 2072.75 L2410.90 2066.44 L2427.85 2066.44 L2427.85 2060.01 L2444.68 2060.01 L2444.68 2053.57 L2461.51 2053.57 L2461.51 2047.01 L2478.47 2047.01 L2478.47 2040.58 L2495.30 2040.58 L2495.30 2034.02 L2512.25 2034.02 L2512.25 2027.34 L2529.08 2027.34 L2529.08 2020.78 L2546.03 2020.78 L2546.03 2014.09 L2562.86 2014.09 L2562.86 2007.41 L2579.69 2007.41 L2579.69 2000.73 L2596.65 2000.73 L2596.65 1993.92 L2613.48 1993.92 L2613.48 1987.12 L2630.43 1987.12 L2630.43 1980.31 L2647.26 1980.31 L2647.26 1973.38 L2664.21 1973.38 L2664.21 1966.57 L2681.04 1966.57 L2681.04 1959.64 L2697.87 1959.64 L2697.87 1952.59 L2714.83 1952.59 L2714.83 1945.66 L2731.66 1945.66 L2731.66 1938.60 L2748.61 1938.60 L2748.61 1931.55 L2765.44 1931.55 L2765.44 1924.50 L2782.27 1924.50 L2782.27 1917.32 L2799.22 1917.32 L2799.22 1910.14 L2816.05 1910.14 L2816.05 1902.96 L2833.01 1902.96 L2833.01 1895.66 L2849.84 1895.66 L2849.84 1888.48 L2866.79 1888.48 L2866.79 1881.18 L2883.62 1881.18 L2883.62 1873.88 L2900.45 1873.88 L2900.45 1866.46 L2917.41 1866.46 L2917.41 1859.03 L2934.24 1859.03 L2934.24 1851.61 L2951.19 1851.61 L2951.19 1844.18 L2968.02 1844.18 L2968.02 1836.75 L2984.97 1836.75 L2984.97 1829.21 L3001.80 1829.21 L3001.80 1821.66 L3018.63 1821.66 L3018.63 1814.11 L3035.59 1814.11 L3035.59 1806.56 L3052.42 1806.56 L3052.42 1798.89 L3069.37 1798.89 L3069.37 1791.21 L3086.20 1791.21 L3086.20 1783.54 L3103.16 1783.54 L3103.16 1775.87 L3119.99 1775.87 L3119.99 1768.07 L3136.82 1768.07 L3136.82 1760.40 L3153.77 1760.40 L3153.77 1752.48 L3170.60 1752.48 L3170.60 1744.68 L3187.55 1744.68 L3187.55 1736.89 L3204.38 1736.89 L3204.38 1728.97 L3221.34 1728.97 L3221.34 1721.05 L3238.17 1721.05 L3238.17 1713.12 L3255.00 1713.12 L3255.00 1705.08 L3271.95 1705.08 L3271.95 1697.16 L3288.78 1697.16 L3288.78 1689.12 L3305.73 1689.12 L3305.73 1681.07 L3322.56 1681.07 L3322.56 1673.03 L3339.52 1673.03 L3339.52 1664.86 L3356.35 1664.86 L3356.35 1656.69 L3373.18 1656.69 L3373.18 1648.53 L3390.13 1648.53 L3390.13 1640.36 L3406.96 1640.36 L3406.96 1632.19 L3423.91 1632.19 L3423.91 1624.02 L3440.74 1624.02 L3440.74 1615.73 L3457.57 1615.73 L3457.57 1607.44 L3474.53 1607.44 L3474.53 1599.15 L3491.36 1599.15 L3491.36 1590.86 L3508.31 1590.86 L3508.31 1582.44 L3525.14 1582.44 L3525.14 1574.03 L3542.10 1574.03 L3542.10 1565.61 L3558.93 1565.61 L3558.93 1557.19 L3575.76 1557.19 L3575.76 1548.78 L3592.71 1548.78 L3592.71 1540.24 L3609.54 1540.24 L3609.54 1531.83 L3626.49 1531.83 L3626.49 1523.29 L3643.32 1523.29 L3643.32 1514.62 L3660.28 1514.62 L3660.28 1506.08 L3677.11 1506.08 L3677.11 1497.55 L3693.94 1497.55 L3693.94 1488.88 L3710.89 1488.88 L3710.89 1480.22 L3727.72 1480.22 L3727.72 1471.56 L3744.68 1471.56 L3744.68 1462.89 L3761.51 1462.89 L3761.51 1454.11 L3778.46 1454.11 L3778.46 1445.32 L3795.29 1445.32 L3795.29 1436.66 L3795.29 776.93 L3795.29 789.67 L3778.46 789.67 L3778.46 802.30 L3761.51 802.30 L3761.51 814.92 L3744.68 814.92 L3744.68 827.54 L3727.72 827.54 L3727.72 840.17 L3710.89 840.17 L3710.89 852.79 L3693.94 852.79 L3693.94 865.29 L3677.11 865.29 L3677.11 877.79 L3660.28 877.79 L3660.28 890.41 L3643.32 890.41 L3643.32 902.78 L3626.49 902.78 L3626.49 915.28 L3609.54 915.28 L3609.54 927.78 L3592.71 927.78 L3592.71 940.16 L3575.76 940.16 L3575.76 952.66 L3558.93 952.66 L3558.93 965.03 L3542.10 965.03 L3542.10 977.41 L3525.14 977.41 L3525.14 989.66 L3508.31 989.66 L3508.31 1002.04 L3491.36 1002.04 L3491.36 1014.29 L3474.53 1014.29 L3474.53 1026.54 L3457.57 1026.54 L3457.57 1038.79 L3440.74 1038.79 L3440.74 1051.04 L3423.91 1051.04 L3423.91 1063.17 L3406.96 1063.17 L3406.96 1075.42 L3390.13 1075.42 L3390.13 1087.55 L3373.18 1087.55 L3373.18 1099.68 L3356.35 1099.68 L3356.35 1111.68 L3339.52 1111.68 L3339.52 1123.81 L3322.56 1123.81 L3322.56 1135.94 L3305.73 1135.94 L3305.73 1147.94 L3288.78 1147.94 L3288.78 1159.94 L3271.95 1159.94 L3271.95 1171.83 L3255.00 1171.83 L3255.00 1183.83 L3238.17 1183.83 L3238.17 1195.83 L3221.34 1195.83 L3221.34 1207.71 L3204.38 1207.71 L3204.38 1219.59 L3187.55 1219.59 L3187.55 1231.47 L3170.60 1231.47 L3170.60 1243.23 L3153.77 1243.23 L3153.77 1254.99 L3136.82 1254.99 L3136.82 1266.74 L3119.99 1266.74 L3119.99 1278.50 L3103.16 1278.50 L3103.16 1290.26 L3086.20 1290.26 L3086.20 1301.89 L3069.37 1301.89 L3069.37 1313.52 L3052.42 1313.52 L3052.42 1325.16 L3035.59 1325.16 L3035.59 1336.79 L3018.63 1336.79 L3018.63 1348.30 L3001.80 1348.30 L3001.80 1359.93 L2984.97 1359.93 L2984.97 1371.44 L2968.02 1371.44 L2968.02 1382.83 L2951.19 1382.83 L2951.19 1394.33 L2934.24 1394.33 L2934.24 1405.72 L2917.41 1405.72 L2917.41 1417.11 L2900.45 1417.11 L2900.45 1428.49 L2883.62 1428.49 L2883.62 1439.88 L2866.79 1439.88 L2866.79 1451.14 L2849.84 1451.14 L2849.84 1462.40 L2833.01 1462.40 L2833.01 1473.66 L2816.05 1473.66 L2816.05 1484.92 L2799.22 1484.92 L2799.22 1496.06 L2782.27 1496.06 L2782.27 1507.20 L2765.44 1507.20 L2765.44 1518.34 L2748.61 1518.34 L2748.61 1529.35 L2731.66 1529.35 L2731.66 1540.49 L2714.83 1540.49 L2714.83 1551.50 L2697.87 1551.50 L2697.87 1562.39 L2681.04 1562.39 L2681.04 1573.41 L2664.21 1573.41 L2664.21 1584.30 L2647.26 1584.30 L2647.26 1595.06 L2630.43 1595.06 L2630.43 1605.95 L2613.48 1605.95 L2613.48 1616.72 L2596.65 1616.72 L2596.65 1627.49 L2579.69 1627.49 L2579.69 1638.25 L2562.86 1638.25 L2562.86 1648.90 L2546.03 1648.90 L2546.03 1659.54 L2529.08 1659.54 L2529.08 1670.18 L2512.25 1670.18 L2512.25 1680.83 L2495.30 1680.83 L2495.30 1691.34 L2478.47 1691.34 L2478.47 1701.86 L2461.51 1701.86 L2461.51 1712.38 L2444.68 1712.38 L2444.68 1722.90 L2427.85 1722.90 L2427.85 1733.30 L2410.90 1733.30 L2410.90 1743.69 L2394.07 1743.69 L2394.07 1753.96 L2377.11 1753.96 L2377.11 1764.24 L2360.28 1764.24 L2360.28 1774.51 L2343.33 1774.51 L2343.33 1784.65 L2326.50 1784.65 L2326.50 1794.80 L2309.67 1794.80 L2309.67 1804.95 L2292.72 1804.95 L2292.72 1814.97 L2275.89 1814.97 L2275.89 1825.00 L2258.93 1825.00 L2258.93 1835.02 L2242.10 1835.02 L2242.10 1844.92 L2225.15 1844.92 L2225.15 1854.82 L2208.32 1854.82 L2208.32 1864.60 L2191.49 1864.60 L2191.49 1874.38 L2174.53 1874.38 L2174.53 1884.15 L2157.70 1884.15 L2157.70 1893.81 L2140.75 1893.81 L2140.75 1903.46 L2123.92 1903.46 L2123.92 1913.11 L2106.97 1913.11 L2106.97 1922.64 L2090.14 1922.64 L2090.14 1932.17 L2073.31 1932.17 L2073.31 1941.57 L2056.35 1941.57 L2056.35 1950.98 L2039.52 1950.98 L2039.52 1960.39 L2022.57 1960.39 L2022.57 1969.67 L2005.74 1969.67 L2005.74 1978.95 L1988.91 1978.95 L1988.91 1988.11 L1971.96 1988.11 L1971.96 1997.26 L1955.13 1997.26 L1955.13 2006.30 L1938.17 2006.30 L1938.17 2015.33 L1921.34 2015.33 L1921.34 2024.37 L1904.39 2024.37 L1904.39 2033.28 L1887.56 2033.28 L1887.56 2042.06 L1870.73 2042.06 L1870.73 2050.85 L1853.78 2050.85 L1853.78 2059.64 L1836.94 2059.64 L1836.94 2068.30 L1819.99 2068.30 L1819.99 2076.96 L1803.16 2076.96 L1803.16 2085.50 L1786.21 2085.50 L1786.21 2093.92 L1769.38 2093.92 L1769.38 2102.33 L1752.55 2102.33 L1752.55 2110.75 L1735.59 2110.75 L1735.59 2119.04 L1718.76 2119.04 L1718.76 2127.21 L1701.81 2127.21 L1701.81 2135.37 L1684.98 2135.37 L1684.98 2143.54 L1668.03 2143.54 L1668.03 2151.58 L1651.20 2151.58 L1651.20 2159.50 L1634.37 2159.50 L1634.37 2167.43 L1617.41 2167.43 L1617.41 2175.22 L1600.58 2175.22 L1600.58 2183.02 L1583.63 2183.02 L1583.63 2190.69 L1566.80 2190.69 L1566.80 2198.36 L1549.85 2198.36 L1549.85 2205.91 L1533.02 2205.91 L1533.02 2213.34 L1516.18 2213.34 L1516.18 2220.76 L1499.23 2220.76 L1499.23 2228.06 L1482.40 2228.06 L1482.40 2235.24 L1465.45 2235.24 L1465.45 2242.42 L1448.62 2242.42 L1448.62 2249.60 L1431.66 2249.60 L1431.66 2256.53 L1414.83 2256.53 L1414.83 2263.46 L1398.00 2263.46 L1398.00 2270.26 L1381.05 2270.26 L1381.05 2276.95 L1364.22 2276.95 L1364.22 2283.63 L1347.27 2283.63 L1347.27 2290.19 L1330.44 2290.19 L1330.44 2296.50 L1313.61 2296.50 L1313.61 2302.94 L1296.65 2302.94 L1296.65 2309.12 L1279.82 2309.12 L1279.82 2315.19 L1262.87 2315.19 L1262.87 2321.25 L1246.04 2321.25 L1246.04 2327.19 L1229.09 2327.19 L1229.09 2333.01 L1212.26 2333.01 L1212.26 2338.70 L1195.42 2338.70 L1195.42 2344.27 L1178.47 2344.27 L1178.47 2349.84 L1161.64 2349.84 L1161.64 2355.16 L1144.69 2355.16 L1144.69 2360.48 L1127.86 2360.48 L1127.86 2365.56 L1110.90 2365.56 L1110.90 2370.51 L1094.07 2370.51 L1094.07 2375.46 L1077.24 2375.46 L1077.24 2380.16 L1060.29 2380.16 L1060.29 2384.74 L1043.46 2384.74 L1043.46 2389.32 L1026.51 2389.32 L1026.51 2393.52 L1009.68 2393.52 L1009.68 2397.73 L992.72 2397.73 L992.72 2401.82 L975.89 2401.82 L975.89 2405.65 L959.06 2405.65 L959.06 2409.36 L942.11 2409.36 L942.11 2412.95 L925.28 2412.95 L925.28 2416.42 L908.33 2416.42 L908.33 2419.64 L891.50 2419.64 L891.50 2422.73 L874.54 2422.73 L874.54 2425.58 L857.71 2425.58 L857.71 2428.30 L840.88 2428.30 L840.88 2430.90 L823.93 2430.90 L823.93 2433.25 L807.10 2433.25 L807.10 2435.48 L790.14 2435.48 L790.14 2437.46 L773.31 2437.46 L773.31 2443.89 Z" stroke-linejoin="round"/>
	</defs>
	<defs>
		<clipPath id="clipPath_MPZyuYmK">
			<use xlink:href="#path_WmghxcwF"/>
		</clipPath>
	</defs>
	<use xlink:href="#path_WmghxcwF" style="stroke:none;fill:#999999;fill-opacity:0.35"/>
	<use xlink:href="#path_WmghxcwF" style="fill:none;stroke:#808080;stroke-opacity:0.35;stroke-width:17.28" clip-path="url(#clipPath_MPZyuYmK)"/>
	<defs>
		<path id="path_cpuMlrwE" d="M773.31 2443.64 L773.31 2443.64 L790.14 2443.64 L790.14 2443.03 L807.10 2443.03 L807.10 2442.28 L823.93 2442.28 L823.93 2441.42 L840.88 2441.42 L840.88 2440.55 L857.71 2440.55 L857.71 2439.44 L874.54 2439.44 L874.54 2438.32 L891.50 2438.32 L891.50 2437.21 L908.33 2437.21 L908.33 2435.85 L925.28 2435.85 L925.28 2434.49 L942.11 2434.49 L942.11 2433.00 L959.06 2433.00 L959.06 2431.39 L975.89 2431.39 L975.89 2429.66 L992.72 2429.66 L992.72 2427.93 L1009.68 2427.93 L1009.68 2426.07 L1026.51 2426.07 L1026.51 2424.21 L1043.46 2424.21 L1043.46 2422.11 L1060.29 2422.11 L1060.29 2420.01 L1077.24 2420.01 L1077.24 2417.78 L1094.07 2417.78 L1094.07 2415.55 L1110.90 2415.55 L1110.90 2413.08 L1127.86 2413.08 L1127.86 2410.60 L1144.69 2410.60 L1144.69 2408.13 L1161.64 2408.13 L1161.64 2405.53 L1178.47 2405.53 L1178.47 2402.81 L1195.42 2402.81 L1195.42 2399.96 L1212.26 2399.96 L1212.26 2397.11 L1229.09 2397.11 L1229.09 2394.14 L1246.04 2394.14 L1246.04 2391.17 L1262.87 2391.17 L1262.87 2388.08 L1279.82 2388.08 L1279.82 2384.86 L1296.65 2384.86 L1296.65 2381.64 L1313.61 2381.64 L1313.61 2378.30 L1330.44 2378.30 L1330.44 2374.96 L1347.27 2374.96 L1347.27 2371.50 L1364.22 2371.50 L1364.22 2367.91 L1381.05 2367.91 L1381.05 2364.32 L1398.00 2364.32 L1398.00 2360.61 L1414.83 2360.61 L1414.83 2356.89 L1431.66 2356.89 L1431.66 2353.06 L1448.62 2353.06 L1448.62 2349.22 L1465.45 2349.22 L1465.45 2345.26 L1482.40 2345.26 L1482.40 2341.30 L1499.23 2341.30 L1499.23 2337.22 L1516.18 2337.22 L1516.18 2333.01 L1533.02 2333.01 L1533.02 2328.80 L1549.85 2328.80 L1549.85 2324.59 L1566.80 2324.59 L1566.80 2320.26 L1583.63 2320.26 L1583.63 2315.93 L1600.58 2315.93 L1600.58 2311.47 L1617.41 2311.47 L1617.41 2306.90 L1634.37 2306.90 L1634.37 2302.44 L1651.20 2302.44 L1651.20 2297.74 L1668.03 2297.74 L1668.03 2293.04 L1684.98 2293.04 L1684.98 2288.33 L1701.81 2288.33 L1701.81 2283.63 L1718.76 2283.63 L1718.76 2278.68 L1735.59 2278.68 L1735.59 2273.85 L1752.55 2273.85 L1752.55 2268.90 L1769.38 2268.90 L1769.38 2263.83 L1786.21 2263.83 L1786.21 2258.88 L1803.16 2258.88 L1803.16 2253.68 L1819.99 2253.68 L1819.99 2248.48 L1836.94 2248.48 L1836.94 2243.29 L1853.78 2243.29 L1853.78 2237.96 L1870.73 2237.96 L1870.73 2232.64 L1887.56 2232.64 L1887.56 2227.32 L1904.39 2227.32 L1904.39 2221.88 L1921.34 2221.88 L1921.34 2216.43 L1938.17 2216.43 L1938.17 2210.86 L1955.13 2210.86 L1955.13 2205.29 L1971.96 2205.29 L1971.96 2199.60 L1988.91 2199.60 L1988.91 2193.91 L2005.74 2193.91 L2005.74 2188.22 L2022.57 2188.22 L2022.57 2182.40 L2039.52 2182.40 L2039.52 2176.58 L2056.35 2176.58 L2056.35 2170.77 L2073.31 2170.77 L2073.31 2164.83 L2090.14 2164.83 L2090.14 2158.89 L2106.97 2158.89 L2106.97 2152.95 L2123.92 2152.95 L2123.92 2146.88 L2140.75 2146.88 L2140.75 2140.69 L2157.70 2140.69 L2157.70 2134.63 L2174.53 2134.63 L2174.53 2128.44 L2191.49 2128.44 L2191.49 2122.13 L2208.32 2122.13 L2208.32 2115.94 L2225.15 2115.94 L2225.15 2109.63 L2242.10 2109.63 L2242.10 2103.20 L2258.93 2103.20 L2258.93 2096.89 L2275.89 2096.89 L2275.89 2090.45 L2292.72 2090.45 L2292.72 2083.89 L2309.67 2083.89 L2309.67 2077.33 L2326.50 2077.33 L2326.50 2070.77 L2343.33 2070.77 L2343.33 2064.21 L2360.28 2064.21 L2360.28 2057.53 L2377.11 2057.53 L2377.11 2050.85 L2394.07 2050.85 L2394.07 2044.17 L2410.90 2044.17 L2410.90 2037.36 L2427.85 2037.36 L2427.85 2030.55 L2444.68 2030.55 L2444.68 2023.75 L2461.51 2023.75 L2461.51 2016.82 L2478.47 2016.82 L2478.47 2009.89 L2495.30 2009.89 L2495.30 2002.96 L2512.25 2002.96 L2512.25 1996.03 L2529.08 1996.03 L2529.08 1988.97 L2546.03 1988.97 L2546.03 1981.92 L2562.86 1981.92 L2562.86 1974.86 L2579.69 1974.86 L2579.69 1967.69 L2596.65 1967.69 L2596.65 1960.51 L2613.48 1960.51 L2613.48 1953.33 L2630.43 1953.33 L2630.43 1946.03 L2647.26 1946.03 L2647.26 1938.85 L2664.21 1938.85 L2664.21 1931.55 L2681.04 1931.55 L2681.04 1924.13 L2697.87 1924.13 L2697.87 1916.82 L2714.83 1916.82 L2714.83 1909.40 L2731.66 1909.40 L2731.66 1901.97 L2748.61 1901.97 L2748.61 1894.42 L2765.44 1894.42 L2765.44 1886.88 L2782.27 1886.88 L2782.27 1879.33 L2799.22 1879.33 L2799.22 1871.78 L2816.05 1871.78 L2816.05 1864.23 L2833.01 1864.23 L2833.01 1856.56 L2849.84 1856.56 L2849.84 1848.88 L2866.79 1848.88 L2866.79 1841.09 L2883.62 1841.09 L2883.62 1833.41 L2900.45 1833.41 L2900.45 1825.62 L2917.41 1825.62 L2917.41 1817.82 L2934.24 1817.82 L2934.24 1810.02 L2951.19 1810.02 L2951.19 1802.10 L2968.02 1802.10 L2968.02 1794.31 L2984.97 1794.31 L2984.97 1786.39 L3001.80 1786.39 L3001.80 1778.34 L3018.63 1778.34 L3018.63 1770.42 L3035.59 1770.42 L3035.59 1762.38 L3052.42 1762.38 L3052.42 1754.33 L3069.37 1754.33 L3069.37 1746.29 L3086.20 1746.29 L3086.20 1738.12 L3103.16 1738.12 L3103.16 1729.96 L3119.99 1729.96 L3119.99 1721.79 L3136.82 1721.79 L3136.82 1713.62 L3153.77 1713.62 L3153.77 1705.45 L3170.60 1705.45 L3170.60 1697.16 L3187.55 1697.16 L3187.55 1688.87 L3204.38 1688.87 L3204.38 1680.58 L3221.34 1680.58 L3221.34 1672.29 L3238.17 1672.29 L3238.17 1663.87 L3255.00 1663.87 L3255.00 1655.46 L3271.95 1655.46 L3271.95 1647.04 L3288.78 1647.04 L3288.78 1638.62 L3305.73 1638.62 L3305.73 1630.21 L3322.56 1630.21 L3322.56 1621.67 L3339.52 1621.67 L3339.52 1613.13 L3356.35 1613.13 L3356.35 1604.59 L3373.18 1604.59 L3373.18 1596.05 L3390.13 1596.05 L3390.13 1587.39 L3406.96 1587.39 L3406.96 1578.85 L3423.91 1578.85 L3423.91 1570.19 L3440.74 1570.19 L3440.74 1561.53 L3457.57 1561.53 L3457.57 1552.74 L3474.53 1552.74 L3474.53 1544.08 L3491.36 1544.08 L3491.36 1535.29 L3508.31 1535.29 L3508.31 1526.50 L3525.14 1526.50 L3525.14 1517.72 L3542.10 1517.72 L3542.10 1508.81 L3558.93 1508.81 L3558.93 1500.02 L3575.76 1500.02 L3575.76 1491.11 L3592.71 1491.11 L3592.71 1482.20 L3609.54 1482.20 L3609.54 1473.29 L3626.49 1473.29 L3626.49 1464.26 L3643.32 1464.26 L3643.32 1455.35 L3660.28 1455.35 L3660.28 1446.31 L3677.11 1446.31 L3677.11 1437.28 L3693.94 1437.28 L3693.94 1428.24 L3710.89 1428.24 L3710.89 1419.09 L3727.72 1419.09 L3727.72 1410.05 L3744.68 1410.05 L3744.68 1400.89 L3761.51 1400.89 L3761.51 1391.74 L3778.46 1391.74 L3778.46 1382.58 L3795.29 1382.58 L3795.29 1373.42 L3795.29 778.41 L3795.29 791.03 L3778.46 791.03 L3778.46 803.66 L3761.51 803.66 L3761.51 816.28 L3744.68 816.28 L3744.68 828.90 L3727.72 828.90 L3727.72 841.53 L3710.89 841.53 L3710.89 854.03 L3693.94 854.03 L3693.94 866.52 L3677.11 866.52 L3677.11 879.15 L3660.28 879.15 L3660.28 891.52 L3643.32 891.52 L3643.32 904.02 L3626.49 904.02 L3626.49 916.52 L3609.54 916.52 L3609.54 928.90 L3592.71 928.90 L3592.71 941.27 L3575.76 941.27 L3575.76 953.65 L3558.93 953.65 L3558.93 966.02 L3542.10 966.02 L3542.10 978.40 L3525.14 978.40 L3525.14 990.65 L3508.31 990.65 L3508.31 1003.03 L3491.36 1003.03 L3491.36 1015.28 L3474.53 1015.28 L3474.53 1027.53 L3457.57 1027.53 L3457.57 1039.66 L3440.74 1039.66 L3440.74 1051.91 L3423.91 1051.91 L3423.91 1064.04 L3406.96 1064.04 L3406.96 1076.16 L3390.13 1076.16 L3390.13 1088.29 L3373.18 1088.29 L3373.18 1100.42 L3356.35 1100.42 L3356.35 1112.42 L3339.52 1112.42 L3339.52 1124.55 L3322.56 1124.55 L3322.56 1136.56 L3305.73 1136.56 L3305.73 1148.56 L3288.78 1148.56 L3288.78 1160.56 L3271.95 1160.56 L3271.95 1172.44 L3255.00 1172.44 L3255.00 1184.32 L3238.17 1184.32 L3238.17 1196.20 L3221.34 1196.20 L3221.34 1208.09 L3204.38 1208.09 L3204.38 1219.97 L3187.55 1219.97 L3187.55 1231.85 L3170.60 1231.85 L3170.60 1243.60 L3153.77 1243.60 L3153.77 1255.36 L3136.82 1255.36 L3136.82 1267.12 L3119.99 1267.12 L3119.99 1278.87 L3103.16 1278.87 L3103.16 1290.51 L3086.20 1290.51 L3086.20 1302.14 L3069.37 1302.14 L3069.37 1313.77 L3052.42 1313.77 L3052.42 1325.40 L3035.59 1325.40 L3035.59 1337.04 L3018.63 1337.04 L3018.63 1348.55 L3001.80 1348.55 L3001.80 1360.06 L2984.97 1360.06 L2984.97 1371.56 L2968.02 1371.56 L2968.02 1382.95 L2951.19 1382.95 L2951.19 1394.33 L2934.24 1394.33 L2934.24 1405.72 L2917.41 1405.72 L2917.41 1417.11 L2900.45 1417.11 L2900.45 1428.49 L2883.62 1428.49 L2883.62 1439.75 L2866.79 1439.75 L2866.79 1451.01 L2849.84 1451.01 L2849.84 1462.28 L2833.01 1462.28 L2833.01 1473.54 L2816.05 1473.54 L2816.05 1484.68 L2799.22 1484.68 L2799.22 1495.81 L2782.27 1495.81 L2782.27 1506.95 L2765.44 1506.95 L2765.44 1518.09 L2748.61 1518.09 L2748.61 1529.10 L2731.66 1529.10 L2731.66 1540.12 L2714.83 1540.12 L2714.83 1551.13 L2697.87 1551.13 L2697.87 1562.02 L2681.04 1562.02 L2681.04 1573.04 L2664.21 1573.04 L2664.21 1583.93 L2647.26 1583.93 L2647.26 1594.69 L2630.43 1594.69 L2630.43 1605.58 L2613.48 1605.58 L2613.48 1616.35 L2596.65 1616.35 L2596.65 1626.99 L2579.69 1626.99 L2579.69 1637.76 L2562.86 1637.76 L2562.86 1648.40 L2546.03 1648.40 L2546.03 1659.04 L2529.08 1659.04 L2529.08 1669.69 L2512.25 1669.69 L2512.25 1680.21 L2495.30 1680.21 L2495.30 1690.73 L2478.47 1690.73 L2478.47 1701.24 L2461.51 1701.24 L2461.51 1711.64 L2444.68 1711.64 L2444.68 1722.04 L2427.85 1722.04 L2427.85 1732.43 L2410.90 1732.43 L2410.90 1742.83 L2394.07 1742.83 L2394.07 1753.10 L2377.11 1753.10 L2377.11 1763.37 L2360.28 1763.37 L2360.28 1773.64 L2343.33 1773.64 L2343.33 1783.79 L2326.50 1783.79 L2326.50 1793.94 L2309.67 1793.94 L2309.67 1803.96 L2292.72 1803.96 L2292.72 1814.11 L2275.89 1814.11 L2275.89 1824.13 L2258.93 1824.13 L2258.93 1834.03 L2242.10 1834.03 L2242.10 1843.93 L2225.15 1843.93 L2225.15 1853.83 L2208.32 1853.83 L2208.32 1863.61 L2191.49 1863.61 L2191.49 1873.39 L2174.53 1873.39 L2174.53 1883.16 L2157.70 1883.16 L2157.70 1892.82 L2140.75 1892.82 L2140.75 1902.47 L2123.92 1902.47 L2123.92 1912.00 L2106.97 1912.00 L2106.97 1921.65 L2090.14 1921.65 L2090.14 1931.06 L2073.31 1931.06 L2073.31 1940.58 L2056.35 1940.58 L2056.35 1949.87 L2039.52 1949.87 L2039.52 1959.27 L2022.57 1959.27 L2022.57 1968.55 L2005.74 1968.55 L2005.74 1977.71 L1988.91 1977.71 L1988.91 1986.99 L1971.96 1986.99 L1971.96 1996.03 L1955.13 1996.03 L1955.13 2005.18 L1938.17 2005.18 L1938.17 2014.22 L1921.34 2014.22 L1921.34 2023.13 L1904.39 2023.13 L1904.39 2032.04 L1887.56 2032.04 L1887.56 2040.95 L1870.73 2040.95 L1870.73 2049.74 L1853.78 2049.74 L1853.78 2058.52 L1836.94 2058.52 L1836.94 2067.18 L1819.99 2067.18 L1819.99 2075.72 L1803.16 2075.72 L1803.16 2084.26 L1786.21 2084.26 L1786.21 2092.80 L1769.38 2092.80 L1769.38 2101.22 L1752.55 2101.22 L1752.55 2109.51 L1735.59 2109.51 L1735.59 2117.80 L1718.76 2117.80 L1718.76 2126.09 L1701.81 2126.09 L1701.81 2134.26 L1684.98 2134.26 L1684.98 2142.30 L1668.03 2142.30 L1668.03 2150.35 L1651.20 2150.35 L1651.20 2158.39 L1634.37 2158.39 L1634.37 2166.19 L1617.41 2166.19 L1617.41 2174.11 L1600.58 2174.11 L1600.58 2181.78 L1583.63 2181.78 L1583.63 2189.45 L1566.80 2189.45 L1566.80 2197.13 L1549.85 2197.13 L1549.85 2204.68 L1533.02 2204.68 L1533.02 2212.10 L1516.18 2212.10 L1516.18 2219.53 L1499.23 2219.53 L1499.23 2226.83 L1482.40 2226.83 L1482.40 2234.13 L1465.45 2234.13 L1465.45 2241.18 L1448.62 2241.18 L1448.62 2248.36 L1431.66 2248.36 L1431.66 2255.29 L1414.83 2255.29 L1414.83 2262.22 L1398.00 2262.22 L1398.00 2269.03 L1381.05 2269.03 L1381.05 2275.83 L1364.22 2275.83 L1364.22 2282.39 L1347.27 2282.39 L1347.27 2288.95 L1330.44 2288.95 L1330.44 2295.51 L1313.61 2295.51 L1313.61 2301.82 L1296.65 2301.82 L1296.65 2308.01 L1279.82 2308.01 L1279.82 2314.20 L1262.87 2314.20 L1262.87 2320.26 L1246.04 2320.26 L1246.04 2326.20 L1229.09 2326.20 L1229.09 2332.02 L1212.26 2332.02 L1212.26 2337.71 L1195.42 2337.71 L1195.42 2343.40 L1178.47 2343.40 L1178.47 2348.85 L1161.64 2348.85 L1161.64 2354.29 L1144.69 2354.29 L1144.69 2359.49 L1127.86 2359.49 L1127.86 2364.69 L1110.90 2364.69 L1110.90 2369.76 L1094.07 2369.76 L1094.07 2374.59 L1077.24 2374.59 L1077.24 2379.42 L1060.29 2379.42 L1060.29 2384.12 L1043.46 2384.12 L1043.46 2388.57 L1026.51 2388.57 L1026.51 2392.90 L1009.68 2392.90 L1009.68 2397.11 L992.72 2397.11 L992.72 2401.20 L975.89 2401.20 L975.89 2405.16 L959.06 2405.16 L959.06 2408.87 L942.11 2408.87 L942.11 2412.46 L925.28 2412.46 L925.28 2415.92 L908.33 2415.92 L908.33 2419.26 L891.50 2419.26 L891.50 2422.36 L874.54 2422.36 L874.54 2425.33 L857.71 2425.33 L857.71 2428.05 L840.88 2428.05 L840.88 2430.65 L823.93 2430.65 L823.93 2433.00 L807.10 2433.00 L807.10 2435.23 L790.14 2435.23 L790.14 2437.33 L773.31 2437.33 L773.31 2443.64 Z" stroke-linejoin="round"/>
	</defs>
	<defs>
		<clipPath id="clipPath_LiXdJraV">
			<use xlink:href="#path_cpuMlrwE"/>
		</clipPath>
	</defs>
	<use xlink:href="#path_cpuMlrwE" style="stroke:none;fill:#333333;fill-opacity:0.35"/>
	<use xlink:href="#path_cpuMlrwE" style="fill:none;stroke:#000000;stroke-opacity:0.35;stroke-width:17.28" clip-path="url(#clipPath_LiXdJraV)"/>
	<line x1="773.19" y1="2441.91" x2="790.14" y2="2441.91" style="stroke:#808080;stroke-width:8.64"/>
	<line x1="790.14" y1="2441.91" x2="790.14" y2="2440.80" style="stroke:#808080;stroke-width:8.64"/>
	<line x1="790.14" y1="2440.80" x2="806.97" y2="2440.80" style="stroke:#808080;stroke-width:8.64"/>
	<line x1="806.97" y1="2440.80" x2="806.97" y2="2439.56" style="stroke:#808080;stroke-width:8.64"/>
	<line x1="806.97" y1="2439.56" x2="811.18" y2="2439.56" style="stroke:#808080;stroke-width:8.64"/>
	<line x1="827.02" y1="2438.20" x2="840.76" y2="2438.20" style="stroke:#808080;stroke-width:8.64"/>
	<line x1="840.76" y1="2438.20" x2="840.76" y2="2436.84" style="stroke:#808080;stroke-width:8.64"/>
	<line x1="840.76" y1="2436.84" x2="857.71" y2="2436.84" style="stroke:#808080;stroke-width:8.64"/>
	<line x1="857.71" y1="2436.84" x2="857.71" y2="2435.23" style="stroke:#808080;stroke-width:8.64"/>
	<line x1="857.71" y1="2435.23" x2="864.39" y2="2435.23" style="stroke:#808080;stroke-width:8.64"/>
	<line x1="879.86" y1="2433.50" x2="891.37" y2="2433.50" style="stroke:#808080;stroke-width:8.64"/>
	<line x1="891.37" y1="2433.50" x2="891.37" y2="2431.64" style="stroke:#808080;stroke-width:8.64"/>
	<line x1="891.37" y1="2431.64" x2="908.33" y2="2431.64" style="stroke:#808080;stroke-width:8.64"/>
	<line x1="908.33" y1="2431.64" x2="908.33" y2="2429.66" style="stroke:#808080;stroke-width:8.64"/>
	<line x1="908.33" y1="2429.66" x2="916.37" y2="2429.66" style="stroke:#808080;stroke-width:8.64"/>
	<line x1="931.59" y1="2427.56" x2="942.11" y2="2427.56" style="stroke:#808080;stroke-width:8.64"/>
	<line x1="942.11" y1="2427.56" x2="942.11" y2="2425.45" style="stroke:#808080;stroke-width:8.64"/>
	<line x1="942.11" y1="2425.45" x2="958.94" y2="2425.45" style="stroke:#808080;stroke-width:8.64"/>
	<line x1="958.94" y1="2425.45" x2="958.94" y2="2423.10" style="stroke:#808080;stroke-width:8.64"/>
	<line x1="958.94" y1="2423.10" x2="967.48" y2="2423.10" style="stroke:#808080;stroke-width:8.64"/>
	<line x1="982.20" y1="2420.63" x2="992.72" y2="2420.63" style="stroke:#808080;stroke-width:8.64"/>
	<line x1="992.72" y1="2420.63" x2="992.72" y2="2418.15" style="stroke:#808080;stroke-width:8.64"/>
	<line x1="992.72" y1="2418.15" x2="1009.55" y2="2418.15" style="stroke:#808080;stroke-width:8.64"/>
	<line x1="1009.55" y1="2418.15" x2="1009.55" y2="2415.43" style="stroke:#808080;stroke-width:8.64"/>
	<line x1="1009.55" y1="2415.43" x2="1017.35" y2="2415.43" style="stroke:#808080;stroke-width:8.64"/>
	<line x1="1031.83" y1="2412.71" x2="1043.34" y2="2412.71" style="stroke:#808080;stroke-width:8.64"/>
	<line x1="1043.34" y1="2412.71" x2="1043.34" y2="2409.86" style="stroke:#808080;stroke-width:8.64"/>
	<line x1="1043.34" y1="2409.86" x2="1060.29" y2="2409.86" style="stroke:#808080;stroke-width:8.64"/>
	<line x1="1060.29" y1="2409.86" x2="1060.29" y2="2406.89" style="stroke:#808080;stroke-width:8.64"/>
	<line x1="1060.29" y1="2406.89" x2="1066.35" y2="2406.89" style="stroke:#808080;stroke-width:8.64"/>
	<line x1="1080.59" y1="2403.80" x2="1093.95" y2="2403.80" style="stroke:#808080;stroke-width:8.64"/>
	<line x1="1093.95" y1="2403.80" x2="1093.95" y2="2400.58" style="stroke:#808080;stroke-width:8.64"/>
	<line x1="1093.95" y1="2400.58" x2="1110.90" y2="2400.58" style="stroke:#808080;stroke-width:8.64"/>
	<line x1="1110.90" y1="2400.58" x2="1110.90" y2="2397.24" style="stroke:#808080;stroke-width:8.64"/>
	<line x1="1110.90" y1="2397.24" x2="1114.24" y2="2397.24" style="stroke:#808080;stroke-width:8.64"/>
	<line x1="1128.23" y1="2393.89" x2="1144.69" y2="2393.89" style="stroke:#808080;stroke-width:8.64"/>
	<line x1="1144.69" y1="2393.89" x2="1144.69" y2="2390.31" style="stroke:#808080;stroke-width:8.64"/>
	<line x1="1144.69" y1="2390.31" x2="1161.52" y2="2390.31" style="stroke:#808080;stroke-width:8.64"/>
	<line x1="1161.52" y1="2390.31" x2="1161.52" y2="2386.84" style="stroke:#808080;stroke-width:8.64"/>
	<line x1="1178.47" y1="2386.59" x2="1178.47" y2="2383.00" style="stroke:#808080;stroke-width:8.64"/>
	<line x1="1178.47" y1="2383.00" x2="1195.30" y2="2383.00" style="stroke:#808080;stroke-width:8.64"/>
	<line x1="1195.30" y1="2383.00" x2="1195.30" y2="2379.29" style="stroke:#808080;stroke-width:8.64"/>
	<line x1="1195.30" y1="2379.29" x2="1211.51" y2="2379.29" style="stroke:#808080;stroke-width:8.64"/>
	<line x1="1224.75" y1="2375.33" x2="1229.09" y2="2375.33" style="stroke:#808080;stroke-width:8.64"/>
	<line x1="1229.09" y1="2375.33" x2="1229.09" y2="2371.37" style="stroke:#808080;stroke-width:8.64"/>
	<line x1="1229.09" y1="2371.37" x2="1245.91" y2="2371.37" style="stroke:#808080;stroke-width:8.64"/>
	<line x1="1245.91" y1="2371.37" x2="1245.91" y2="2367.29" style="stroke:#808080;stroke-width:8.64"/>
	<line x1="1245.91" y1="2367.29" x2="1257.05" y2="2367.29" style="stroke:#808080;stroke-width:8.64"/>
	<line x1="1270.17" y1="2363.20" x2="1279.70" y2="2363.20" style="stroke:#808080;stroke-width:8.64"/>
	<line x1="1279.70" y1="2363.20" x2="1279.70" y2="2359.00" style="stroke:#808080;stroke-width:8.64"/>
	<line x1="1279.70" y1="2359.00" x2="1296.65" y2="2359.00" style="stroke:#808080;stroke-width:8.64"/>
	<line x1="1296.65" y1="2359.00" x2="1296.65" y2="2354.66" style="stroke:#808080;stroke-width:8.64"/>
	<line x1="1296.65" y1="2354.66" x2="1301.97" y2="2354.66" style="stroke:#808080;stroke-width:8.64"/>
	<line x1="1314.72" y1="2350.21" x2="1330.31" y2="2350.21" style="stroke:#808080;stroke-width:8.64"/>
	<line x1="1330.31" y1="2350.21" x2="1330.31" y2="2345.75" style="stroke:#808080;stroke-width:8.64"/>
	<line x1="1330.31" y1="2345.75" x2="1347.27" y2="2345.75" style="stroke:#808080;stroke-width:8.64"/>
	<line x1="1347.27" y1="2345.75" x2="1347.27" y2="2342.29" style="stroke:#808080;stroke-width:8.64"/>
	<line x1="1363.35" y1="2341.18" x2="1364.10" y2="2341.18" style="stroke:#808080;stroke-width:8.64"/>
	<line x1="1364.10" y1="2341.18" x2="1364.10" y2="2336.47" style="stroke:#808080;stroke-width:8.64"/>
	<line x1="1364.10" y1="2336.47" x2="1381.05" y2="2336.47" style="stroke:#808080;stroke-width:8.64"/>
	<line x1="1381.05" y1="2336.47" x2="1381.05" y2="2331.77" style="stroke:#808080;stroke-width:8.64"/>
	<line x1="1381.05" y1="2331.77" x2="1394.29" y2="2331.77" style="stroke:#808080;stroke-width:8.64"/>
	<line x1="1406.67" y1="2326.94" x2="1414.83" y2="2326.94" style="stroke:#808080;stroke-width:8.64"/>
	<line x1="1414.83" y1="2326.94" x2="1414.83" y2="2321.99" style="stroke:#808080;stroke-width:8.64"/>
	<line x1="1414.83" y1="2321.99" x2="1431.66" y2="2321.99" style="stroke:#808080;stroke-width:8.64"/>
	<line x1="1431.66" y1="2321.99" x2="1431.66" y2="2317.04" style="stroke:#808080;stroke-width:8.64"/>
	<line x1="1431.66" y1="2317.04" x2="1437.11" y2="2317.04" style="stroke:#808080;stroke-width:8.64"/>
	<line x1="1449.36" y1="2311.97" x2="1465.45" y2="2311.97" style="stroke:#808080;stroke-width:8.64"/>
	<line x1="1465.45" y1="2311.97" x2="1465.45" y2="2306.90" style="stroke:#808080;stroke-width:8.64"/>
	<line x1="1465.45" y1="2306.90" x2="1482.28" y2="2306.90" style="stroke:#808080;stroke-width:8.64"/>
	<line x1="1482.28" y1="2306.90" x2="1482.28" y2="2304.67" style="stroke:#808080;stroke-width:8.64"/>
	<line x1="1496.63" y1="2301.70" x2="1499.23" y2="2301.70" style="stroke:#808080;stroke-width:8.64"/>
	<line x1="1499.23" y1="2301.70" x2="1499.23" y2="2296.38" style="stroke:#808080;stroke-width:8.64"/>
	<line x1="1499.23" y1="2296.38" x2="1516.06" y2="2296.38" style="stroke:#808080;stroke-width:8.64"/>
	<line x1="1516.06" y1="2296.38" x2="1516.06" y2="2291.06" style="stroke:#808080;stroke-width:8.64"/>
	<line x1="1516.06" y1="2291.06" x2="1526.21" y2="2291.06" style="stroke:#808080;stroke-width:8.64"/>
	<line x1="1538.09" y1="2285.61" x2="1549.85" y2="2285.61" style="stroke:#808080;stroke-width:8.64"/>
	<line x1="1549.85" y1="2285.61" x2="1549.85" y2="2280.17" style="stroke:#808080;stroke-width:8.64"/>
	<line x1="1549.85" y1="2280.17" x2="1566.67" y2="2280.17" style="stroke:#808080;stroke-width:8.64"/>
	<line x1="1566.67" y1="2280.17" x2="1566.67" y2="2274.60" style="stroke:#808080;stroke-width:8.64"/>
	<line x1="1566.67" y1="2274.60" x2="1567.42" y2="2274.60" style="stroke:#808080;stroke-width:8.64"/>
	<line x1="1583.63" y1="2273.61" x2="1583.63" y2="2269.03" style="stroke:#808080;stroke-width:8.64"/>
	<line x1="1583.63" y1="2269.03" x2="1600.46" y2="2269.03" style="stroke:#808080;stroke-width:8.64"/>
	<line x1="1600.46" y1="2269.03" x2="1600.46" y2="2263.33" style="stroke:#808080;stroke-width:8.64"/>
	<line x1="1600.46" y1="2263.33" x2="1613.70" y2="2263.33" style="stroke:#808080;stroke-width:8.64"/>
	<line x1="1625.21" y1="2257.64" x2="1634.24" y2="2257.64" style="stroke:#808080;stroke-width:8.64"/>
	<line x1="1634.24" y1="2257.64" x2="1634.24" y2="2251.83" style="stroke:#808080;stroke-width:8.64"/>
	<line x1="1634.24" y1="2251.83" x2="1651.20" y2="2251.83" style="stroke:#808080;stroke-width:8.64"/>
	<line x1="1651.20" y1="2251.83" x2="1651.20" y2="2246.01" style="stroke:#808080;stroke-width:8.64"/>
	<line x1="1651.20" y1="2246.01" x2="1653.92" y2="2246.01" style="stroke:#808080;stroke-width:8.64"/>
	<line x1="1668.03" y1="2242.79" x2="1668.03" y2="2240.07" style="stroke:#808080;stroke-width:8.64"/>
	<line x1="1668.03" y1="2240.07" x2="1684.86" y2="2240.07" style="stroke:#808080;stroke-width:8.64"/>
	<line x1="1684.86" y1="2240.07" x2="1684.86" y2="2234.00" style="stroke:#808080;stroke-width:8.64"/>
	<line x1="1684.86" y1="2234.00" x2="1699.46" y2="2234.00" style="stroke:#808080;stroke-width:8.64"/>
	<line x1="1710.72" y1="2228.06" x2="1718.64" y2="2228.06" style="stroke:#808080;stroke-width:8.64"/>
	<line x1="1718.64" y1="2228.06" x2="1718.64" y2="2221.88" style="stroke:#808080;stroke-width:8.64"/>
	<line x1="1718.64" y1="2221.88" x2="1735.59" y2="2221.88" style="stroke:#808080;stroke-width:8.64"/>
	<line x1="1735.59" y1="2221.88" x2="1735.59" y2="2215.69" style="stroke:#808080;stroke-width:8.64"/>
	<line x1="1735.59" y1="2215.69" x2="1738.69" y2="2215.69" style="stroke:#808080;stroke-width:8.64"/>
	<line x1="1752.42" y1="2212.10" x2="1752.42" y2="2209.50" style="stroke:#808080;stroke-width:8.64"/>
	<line x1="1752.42" y1="2209.50" x2="1769.25" y2="2209.50" style="stroke:#808080;stroke-width:8.64"/>
	<line x1="1769.25" y1="2209.50" x2="1769.25" y2="2203.19" style="stroke:#808080;stroke-width:8.64"/>
	<line x1="1769.25" y1="2203.19" x2="1783.86" y2="2203.19" style="stroke:#808080;stroke-width:8.64"/>
	<line x1="1794.75" y1="2196.88" x2="1803.04" y2="2196.88" style="stroke:#808080;stroke-width:8.64"/>
	<line x1="1803.04" y1="2196.88" x2="1803.04" y2="2190.44" style="stroke:#808080;stroke-width:8.64"/>
	<line x1="1803.04" y1="2190.44" x2="1819.99" y2="2190.44" style="stroke:#808080;stroke-width:8.64"/>
	<line x1="1819.99" y1="2190.44" x2="1819.99" y2="2184.01" style="stroke:#808080;stroke-width:8.64"/>
	<line x1="1819.99" y1="2184.01" x2="1822.22" y2="2184.01" style="stroke:#808080;stroke-width:8.64"/>
	<line x1="1836.82" y1="2181.41" x2="1836.82" y2="2177.45" style="stroke:#808080;stroke-width:8.64"/>
	<line x1="1836.82" y1="2177.45" x2="1853.78" y2="2177.45" style="stroke:#808080;stroke-width:8.64"/>
	<line x1="1853.78" y1="2177.45" x2="1853.78" y2="2170.89" style="stroke:#808080;stroke-width:8.64"/>
	<line x1="1853.78" y1="2170.89" x2="1866.64" y2="2170.89" style="stroke:#808080;stroke-width:8.64"/>
	<line x1="1877.29" y1="2164.33" x2="1887.43" y2="2164.33" style="stroke:#808080;stroke-width:8.64"/>
	<line x1="1887.43" y1="2164.33" x2="1887.43" y2="2157.65" style="stroke:#808080;stroke-width:8.64"/>
	<line x1="1887.43" y1="2157.65" x2="1904.39" y2="2157.65" style="stroke:#808080;stroke-width:8.64"/>
	<line x1="1904.39" y1="2157.65" x2="1904.39" y2="2151.09" style="stroke:#808080;stroke-width:8.64"/>
	<line x1="1921.22" y1="2150.59" x2="1921.22" y2="2144.04" style="stroke:#808080;stroke-width:8.64"/>
	<line x1="1921.22" y1="2144.04" x2="1938.17" y2="2144.04" style="stroke:#808080;stroke-width:8.64"/>
	<line x1="1938.17" y1="2144.04" x2="1938.17" y2="2137.23" style="stroke:#808080;stroke-width:8.64"/>
	<line x1="1938.17" y1="2137.23" x2="1948.20" y2="2137.23" style="stroke:#808080;stroke-width:8.64"/>
	<line x1="1958.47" y1="2130.30" x2="1971.96" y2="2130.30" style="stroke:#808080;stroke-width:8.64"/>
	<line x1="1971.96" y1="2130.30" x2="1971.96" y2="2123.37" style="stroke:#808080;stroke-width:8.64"/>
	<line x1="1971.96" y1="2123.37" x2="1988.79" y2="2123.37" style="stroke:#808080;stroke-width:8.64"/>
	<line x1="1988.79" y1="2123.37" x2="1988.79" y2="2120.28" style="stroke:#808080;stroke-width:8.64"/>
	<line x1="2002.03" y1="2116.31" x2="2005.62" y2="2116.31" style="stroke:#808080;stroke-width:8.64"/>
	<line x1="2005.62" y1="2116.31" x2="2005.62" y2="2109.26" style="stroke:#808080;stroke-width:8.64"/>
	<line x1="2005.62" y1="2109.26" x2="2022.57" y2="2109.26" style="stroke:#808080;stroke-width:8.64"/>
	<line x1="2022.57" y1="2109.26" x2="2022.57" y2="2102.21" style="stroke:#808080;stroke-width:8.64"/>
	<line x1="2022.57" y1="2102.21" x2="2028.26" y2="2102.21" style="stroke:#808080;stroke-width:8.64"/>
	<line x1="2039.40" y1="2096.02" x2="2039.40" y2="2095.03" style="stroke:#808080;stroke-width:8.64"/>
	<line x1="2039.40" y1="2095.03" x2="2056.35" y2="2095.03" style="stroke:#808080;stroke-width:8.64"/>
	<line x1="2056.35" y1="2095.03" x2="2056.35" y2="2087.85" style="stroke:#808080;stroke-width:8.64"/>
	<line x1="2056.35" y1="2087.85" x2="2071.45" y2="2087.85" style="stroke:#808080;stroke-width:8.64"/>
	<line x1="2081.47" y1="2080.55" x2="2090.14" y2="2080.55" style="stroke:#808080;stroke-width:8.64"/>
	<line x1="2090.14" y1="2080.55" x2="2090.14" y2="2073.25" style="stroke:#808080;stroke-width:8.64"/>
	<line x1="2090.14" y1="2073.25" x2="2106.97" y2="2073.25" style="stroke:#808080;stroke-width:8.64"/>
	<line x1="2106.97" y1="2073.25" x2="2106.97" y2="2065.95" style="stroke:#808080;stroke-width:8.64"/>
	<line x1="2106.97" y1="2065.95" x2="2107.09" y2="2065.95" style="stroke:#808080;stroke-width:8.64"/>
	<line x1="2123.80" y1="2065.33" x2="2123.80" y2="2058.52" style="stroke:#808080;stroke-width:8.64"/>
	<line x1="2123.80" y1="2058.52" x2="2140.75" y2="2058.52" style="stroke:#808080;stroke-width:8.64"/>
	<line x1="2140.75" y1="2058.52" x2="2140.75" y2="2051.10" style="stroke:#808080;stroke-width:8.64"/>
	<line x1="2140.75" y1="2051.10" x2="2149.91" y2="2051.10" style="stroke:#808080;stroke-width:8.64"/>
	<line x1="2159.56" y1="2043.55" x2="2174.53" y2="2043.55" style="stroke:#808080;stroke-width:8.64"/>
	<line x1="2174.53" y1="2043.55" x2="2174.53" y2="2036.12" style="stroke:#808080;stroke-width:8.64"/>
	<line x1="2174.53" y1="2036.12" x2="2191.36" y2="2036.12" style="stroke:#808080;stroke-width:8.64"/>
	<line x1="2191.36" y1="2036.12" x2="2191.36" y2="2035.01" style="stroke:#808080;stroke-width:8.64"/>
	<line x1="2202.01" y1="2028.45" x2="2208.32" y2="2028.45" style="stroke:#808080;stroke-width:8.64"/>
	<line x1="2208.32" y1="2028.45" x2="2208.32" y2="2020.90" style="stroke:#808080;stroke-width:8.64"/>
	<line x1="2208.32" y1="2020.90" x2="2225.15" y2="2020.90" style="stroke:#808080;stroke-width:8.64"/>
	<line x1="2225.15" y1="2020.90" x2="2225.15" y2="2013.23" style="stroke:#808080;stroke-width:8.64"/>
	<line x1="2225.15" y1="2013.23" x2="2227.13" y2="2013.23" style="stroke:#808080;stroke-width:8.64"/>
	<line x1="2241.98" y1="2010.75" x2="2241.98" y2="2005.43" style="stroke:#808080;stroke-width:8.64"/>
	<line x1="2241.98" y1="2005.43" x2="2258.93" y2="2005.43" style="stroke:#808080;stroke-width:8.64"/>
	<line x1="2258.93" y1="2005.43" x2="2258.93" y2="1997.76" style="stroke:#808080;stroke-width:8.64"/>
	<line x1="2258.93" y1="1997.76" x2="2269.20" y2="1997.76" style="stroke:#808080;stroke-width:8.64"/>
	<line x1="2278.73" y1="1989.96" x2="2292.72" y2="1989.96" style="stroke:#808080;stroke-width:8.64"/>
	<line x1="2292.72" y1="1989.96" x2="2292.72" y2="1982.04" style="stroke:#808080;stroke-width:8.64"/>
	<line x1="2292.72" y1="1982.04" x2="2309.55" y2="1982.04" style="stroke:#808080;stroke-width:8.64"/>
	<line x1="2309.55" y1="1982.04" x2="2309.55" y2="1980.43" style="stroke:#808080;stroke-width:8.64"/>
	<line x1="2320.44" y1="1974.12" x2="2326.50" y2="1974.12" style="stroke:#808080;stroke-width:8.64"/>
	<line x1="2326.50" y1="1974.12" x2="2326.50" y2="1966.20" style="stroke:#808080;stroke-width:8.64"/>
	<line x1="2326.50" y1="1966.20" x2="2343.33" y2="1966.20" style="stroke:#808080;stroke-width:8.64"/>
	<line x1="2343.33" y1="1966.20" x2="2343.33" y2="1958.28" style="stroke:#808080;stroke-width:8.64"/>
	<line x1="2343.33" y1="1958.28" x2="2344.94" y2="1958.28" style="stroke:#808080;stroke-width:8.64"/>
	<line x1="2360.16" y1="1956.30" x2="2360.16" y2="1950.24" style="stroke:#808080;stroke-width:8.64"/>
	<line x1="2360.16" y1="1950.24" x2="2377.11" y2="1950.24" style="stroke:#808080;stroke-width:8.64"/>
	<line x1="2377.11" y1="1950.24" x2="2377.11" y2="1942.19" style="stroke:#808080;stroke-width:8.64"/>
	<line x1="2377.11" y1="1942.19" x2="2386.39" y2="1942.19" style="stroke:#808080;stroke-width:8.64"/>
	<line x1="2395.55" y1="1934.03" x2="2410.90" y2="1934.03" style="stroke:#808080;stroke-width:8.64"/>
	<line x1="2410.90" y1="1934.03" x2="2410.90" y2="1925.98" style="stroke:#808080;stroke-width:8.64"/>
	<line x1="2410.90" y1="1925.98" x2="2427.73" y2="1925.98" style="stroke:#808080;stroke-width:8.64"/>
	<line x1="2427.73" y1="1925.98" x2="2427.73" y2="1925.86" style="stroke:#808080;stroke-width:8.64"/>
	<line x1="2436.76" y1="1917.69" x2="2444.56" y2="1917.69" style="stroke:#808080;stroke-width:8.64"/>
	<line x1="2444.56" y1="1917.69" x2="2444.56" y2="1909.52" style="stroke:#808080;stroke-width:8.64"/>
	<line x1="2444.56" y1="1909.52" x2="2461.51" y2="1909.52" style="stroke:#808080;stroke-width:8.64"/>
	<line x1="2461.51" y1="1909.52" x2="2461.51" y2="1902.10" style="stroke:#808080;stroke-width:8.64"/>
	<line x1="2477.85" y1="1901.23" x2="2478.34" y2="1901.23" style="stroke:#808080;stroke-width:8.64"/>
	<line x1="2478.34" y1="1901.23" x2="2478.34" y2="1892.94" style="stroke:#808080;stroke-width:8.64"/>
	<line x1="2478.34" y1="1892.94" x2="2495.30" y2="1892.94" style="stroke:#808080;stroke-width:8.64"/>
	<line x1="2495.30" y1="1892.94" x2="2495.30" y2="1884.52" style="stroke:#808080;stroke-width:8.64"/>
	<line x1="2495.30" y1="1884.52" x2="2501.48" y2="1884.52" style="stroke:#808080;stroke-width:8.64"/>
	<line x1="2512.13" y1="1877.96" x2="2512.13" y2="1876.23" style="stroke:#808080;stroke-width:8.64"/>
	<line x1="2512.13" y1="1876.23" x2="2529.08" y2="1876.23" style="stroke:#808080;stroke-width:8.64"/>
	<line x1="2529.08" y1="1876.23" x2="2529.08" y2="1867.82" style="stroke:#808080;stroke-width:8.64"/>
	<line x1="2529.08" y1="1867.82" x2="2542.32" y2="1867.82" style="stroke:#808080;stroke-width:8.64"/>
	<line x1="2550.98" y1="1859.28" x2="2562.74" y2="1859.28" style="stroke:#808080;stroke-width:8.64"/>
	<line x1="2562.74" y1="1859.28" x2="2562.74" y2="1850.86" style="stroke:#808080;stroke-width:8.64"/>
	<line x1="2562.74" y1="1850.86" x2="2579.69" y2="1850.86" style="stroke:#808080;stroke-width:8.64"/>
	<line x1="2579.69" y1="1850.86" x2="2579.69" y2="1847.52" style="stroke:#808080;stroke-width:8.64"/>
	<line x1="2591.70" y1="1842.32" x2="2596.52" y2="1842.32" style="stroke:#808080;stroke-width:8.64"/>
	<line x1="2596.52" y1="1842.32" x2="2596.52" y2="1833.78" style="stroke:#808080;stroke-width:8.64"/>
	<line x1="2596.52" y1="1833.78" x2="2613.48" y2="1833.78" style="stroke:#808080;stroke-width:8.64"/>
	<line x1="2613.48" y1="1833.78" x2="2613.48" y2="1825.25" style="stroke:#808080;stroke-width:8.64"/>
	<line x1="2613.48" y1="1825.25" x2="2614.96" y2="1825.25" style="stroke:#808080;stroke-width:8.64"/>
	<line x1="2630.31" y1="1823.39" x2="2630.31" y2="1816.58" style="stroke:#808080;stroke-width:8.64"/>
	<line x1="2630.31" y1="1816.58" x2="2647.26" y2="1816.58" style="stroke:#808080;stroke-width:8.64"/>
	<line x1="2647.26" y1="1816.58" x2="2647.26" y2="1807.92" style="stroke:#808080;stroke-width:8.64"/>
	<line x1="2647.26" y1="1807.92" x2="2655.18" y2="1807.92" style="stroke:#808080;stroke-width:8.64"/>
	<line x1="2664.09" y1="1799.63" x2="2664.09" y2="1799.26" style="stroke:#808080;stroke-width:8.64"/>
	<line x1="2664.09" y1="1799.26" x2="2680.92" y2="1799.26" style="stroke:#808080;stroke-width:8.64"/>
	<line x1="2680.92" y1="1799.26" x2="2680.92" y2="1790.47" style="stroke:#808080;stroke-width:8.64"/>
	<line x1="2680.92" y1="1790.47" x2="2695.28" y2="1790.47" style="stroke:#808080;stroke-width:8.64"/>
	<line x1="2703.81" y1="1781.68" x2="2714.70" y2="1781.68" style="stroke:#808080;stroke-width:8.64"/>
	<line x1="2714.70" y1="1781.68" x2="2714.70" y2="1772.90" style="stroke:#808080;stroke-width:8.64"/>
	<line x1="2714.70" y1="1772.90" x2="2731.66" y2="1772.90" style="stroke:#808080;stroke-width:8.64"/>
	<line x1="2731.66" y1="1772.90" x2="2731.66" y2="1769.31" style="stroke:#808080;stroke-width:8.64"/>
	<line x1="2743.78" y1="1764.11" x2="2748.49" y2="1764.11" style="stroke:#808080;stroke-width:8.64"/>
	<line x1="2748.49" y1="1764.11" x2="2748.49" y2="1755.20" style="stroke:#808080;stroke-width:8.64"/>
	<line x1="2748.49" y1="1755.20" x2="2765.44" y2="1755.20" style="stroke:#808080;stroke-width:8.64"/>
	<line x1="2765.44" y1="1755.20" x2="2765.44" y2="1746.29" style="stroke:#808080;stroke-width:8.64"/>
	<line x1="2765.44" y1="1746.29" x2="2766.31" y2="1746.29" style="stroke:#808080;stroke-width:8.64"/>
	<line x1="2782.27" y1="1745.05" x2="2782.27" y2="1737.38" style="stroke:#808080;stroke-width:8.64"/>
	<line x1="2782.27" y1="1737.38" x2="2799.10" y2="1737.38" style="stroke:#808080;stroke-width:8.64"/>
	<line x1="2799.10" y1="1737.38" x2="2799.10" y2="1728.47" style="stroke:#808080;stroke-width:8.64"/>
	<line x1="2799.10" y1="1728.47" x2="2806.03" y2="1728.47" style="stroke:#808080;stroke-width:8.64"/>
	<line x1="2816.05" y1="1721.29" x2="2816.05" y2="1719.44" style="stroke:#808080;stroke-width:8.64"/>
	<line x1="2816.05" y1="1719.44" x2="2832.89" y2="1719.44" style="stroke:#808080;stroke-width:8.64"/>
	<line x1="2832.89" y1="1719.44" x2="2832.89" y2="1710.40" style="stroke:#808080;stroke-width:8.64"/>
	<line x1="2832.89" y1="1710.40" x2="2845.51" y2="1710.40" style="stroke:#808080;stroke-width:8.64"/>
	<line x1="2853.55" y1="1701.24" x2="2866.67" y2="1701.24" style="stroke:#808080;stroke-width:8.64"/>
	<line x1="2866.67" y1="1701.24" x2="2866.67" y2="1692.21" style="stroke:#808080;stroke-width:8.64"/>
	<line x1="2866.67" y1="1692.21" x2="2883.62" y2="1692.21" style="stroke:#808080;stroke-width:8.64"/>
	<line x1="2883.62" y1="1692.21" x2="2883.62" y2="1690.97" style="stroke:#808080;stroke-width:8.64"/>
	<line x1="2893.03" y1="1683.05" x2="2900.45" y2="1683.05" style="stroke:#808080;stroke-width:8.64"/>
	<line x1="2900.45" y1="1683.05" x2="2900.45" y2="1673.89" style="stroke:#808080;stroke-width:8.64"/>
	<line x1="2900.45" y1="1673.89" x2="2917.28" y2="1673.89" style="stroke:#808080;stroke-width:8.64"/>
	<line x1="2917.28" y1="1673.89" x2="2917.28" y2="1667.09" style="stroke:#808080;stroke-width:8.64"/>
	<line x1="2932.26" y1="1664.74" x2="2934.24" y2="1664.74" style="stroke:#808080;stroke-width:8.64"/>
	<line x1="2934.24" y1="1664.74" x2="2934.24" y2="1655.46" style="stroke:#808080;stroke-width:8.64"/>
	<line x1="2934.24" y1="1655.46" x2="2951.07" y2="1655.46" style="stroke:#808080;stroke-width:8.64"/>
	<line x1="2951.07" y1="1655.46" x2="2951.07" y2="1646.17" style="stroke:#808080;stroke-width:8.64"/>
	<line x1="2951.07" y1="1646.17" x2="2954.04" y2="1646.17" style="stroke:#808080;stroke-width:8.64"/>
	<line x1="2968.02" y1="1642.96" x2="2968.02" y2="1636.89" style="stroke:#808080;stroke-width:8.64"/>
	<line x1="2968.02" y1="1636.89" x2="2984.85" y2="1636.89" style="stroke:#808080;stroke-width:8.64"/>
	<line x1="2984.85" y1="1636.89" x2="2984.85" y2="1627.61" style="stroke:#808080;stroke-width:8.64"/>
	<line x1="2984.85" y1="1627.61" x2="2993.02" y2="1627.61" style="stroke:#808080;stroke-width:8.64"/>
	<line x1="3001.80" y1="1619.20" x2="3001.80" y2="1618.21" style="stroke:#808080;stroke-width:8.64"/>
	<line x1="3001.80" y1="1618.21" x2="3018.63" y2="1618.21" style="stroke:#808080;stroke-width:8.64"/>
	<line x1="3018.63" y1="1618.21" x2="3018.63" y2="1608.80" style="stroke:#808080;stroke-width:8.64"/>
	<line x1="3018.63" y1="1608.80" x2="3031.75" y2="1608.80" style="stroke:#808080;stroke-width:8.64"/>
	<line x1="3039.67" y1="1599.39" x2="3052.42" y2="1599.39" style="stroke:#808080;stroke-width:8.64"/>
	<line x1="3052.42" y1="1599.39" x2="3052.42" y2="1589.99" style="stroke:#808080;stroke-width:8.64"/>
	<line x1="3052.42" y1="1589.99" x2="3069.25" y2="1589.99" style="stroke:#808080;stroke-width:8.64"/>
	<line x1="3069.25" y1="1589.99" x2="3069.25" y2="1588.75" style="stroke:#808080;stroke-width:8.64"/>
	<line x1="3078.41" y1="1580.58" x2="3086.20" y2="1580.58" style="stroke:#808080;stroke-width:8.64"/>
	<line x1="3086.20" y1="1580.58" x2="3086.20" y2="1571.06" style="stroke:#808080;stroke-width:8.64"/>
	<line x1="3086.20" y1="1571.06" x2="3103.03" y2="1571.06" style="stroke:#808080;stroke-width:8.64"/>
	<line x1="3103.03" y1="1571.06" x2="3103.03" y2="1564.99" style="stroke:#808080;stroke-width:8.64"/>
	<line x1="3116.89" y1="1561.53" x2="3119.86" y2="1561.53" style="stroke:#808080;stroke-width:8.64"/>
	<line x1="3119.86" y1="1561.53" x2="3119.86" y2="1552.00" style="stroke:#808080;stroke-width:8.64"/>
	<line x1="3119.86" y1="1552.00" x2="3136.82" y2="1552.00" style="stroke:#808080;stroke-width:8.64"/>
	<line x1="3136.82" y1="1552.00" x2="3136.82" y2="1542.47" style="stroke:#808080;stroke-width:8.64"/>
	<line x1="3136.82" y1="1542.47" x2="3138.18" y2="1542.47" style="stroke:#808080;stroke-width:8.64"/>
	<line x1="3153.64" y1="1540.74" x2="3153.64" y2="1532.82" style="stroke:#808080;stroke-width:8.64"/>
	<line x1="3153.64" y1="1532.82" x2="3170.60" y2="1532.82" style="stroke:#808080;stroke-width:8.64"/>
	<line x1="3170.60" y1="1532.82" x2="3170.60" y2="1523.16" style="stroke:#808080;stroke-width:8.64"/>
	<line x1="3170.60" y1="1523.16" x2="3176.41" y2="1523.16" style="stroke:#808080;stroke-width:8.64"/>
	<line x1="3187.43" y1="1516.97" x2="3187.43" y2="1513.51" style="stroke:#808080;stroke-width:8.64"/>
	<line x1="3187.43" y1="1513.51" x2="3204.38" y2="1513.51" style="stroke:#808080;stroke-width:8.64"/>
	<line x1="3204.38" y1="1513.51" x2="3204.38" y2="1503.73" style="stroke:#808080;stroke-width:8.64"/>
	<line x1="3204.38" y1="1503.73" x2="3214.53" y2="1503.73" style="stroke:#808080;stroke-width:8.64"/>
	<line x1="3222.20" y1="1494.08" x2="3238.04" y2="1494.08" style="stroke:#808080;stroke-width:8.64"/>
	<line x1="3238.04" y1="1494.08" x2="3238.04" y2="1484.30" style="stroke:#808080;stroke-width:8.64"/>
	<line x1="3238.04" y1="1484.30" x2="3252.77" y2="1484.30" style="stroke:#808080;stroke-width:8.64"/>
	<line x1="3260.19" y1="1474.53" x2="3271.83" y2="1474.53" style="stroke:#808080;stroke-width:8.64"/>
	<line x1="3271.83" y1="1474.53" x2="3271.83" y2="1464.63" style="stroke:#808080;stroke-width:8.64"/>
	<line x1="3271.83" y1="1464.63" x2="3288.78" y2="1464.63" style="stroke:#808080;stroke-width:8.64"/>
	<line x1="3288.78" y1="1464.63" x2="3288.78" y2="1462.77" style="stroke:#808080;stroke-width:8.64"/>
	<line x1="3298.06" y1="1454.85" x2="3305.61" y2="1454.85" style="stroke:#808080;stroke-width:8.64"/>
	<line x1="3305.61" y1="1454.85" x2="3305.61" y2="1444.95" style="stroke:#808080;stroke-width:8.64"/>
	<line x1="3305.61" y1="1444.95" x2="3322.56" y2="1444.95" style="stroke:#808080;stroke-width:8.64"/>
	<line x1="3322.56" y1="1444.95" x2="3322.56" y2="1439.01" style="stroke:#808080;stroke-width:8.64"/>
	<line x1="3335.80" y1="1435.05" x2="3339.39" y2="1435.05" style="stroke:#808080;stroke-width:8.64"/>
	<line x1="3339.39" y1="1435.05" x2="3339.39" y2="1425.15" style="stroke:#808080;stroke-width:8.64"/>
	<line x1="3339.39" y1="1425.15" x2="3356.22" y2="1425.15" style="stroke:#808080;stroke-width:8.64"/>
	<line x1="3356.22" y1="1425.15" x2="3356.22" y2="1415.25" style="stroke:#808080;stroke-width:8.64"/>
	<line x1="3356.22" y1="1415.25" x2="3356.35" y2="1415.25" style="stroke:#808080;stroke-width:8.64"/>
	<line x1="3373.18" y1="1414.75" x2="3373.18" y2="1405.23" style="stroke:#808080;stroke-width:8.64"/>
	<line x1="3373.18" y1="1405.23" x2="3390.01" y2="1405.23" style="stroke:#808080;stroke-width:8.64"/>
	<line x1="3390.01" y1="1405.23" x2="3390.01" y2="1395.32" style="stroke:#808080;stroke-width:8.64"/>
	<line x1="3390.01" y1="1395.32" x2="3393.97" y2="1395.32" style="stroke:#808080;stroke-width:8.64"/>
	<line x1="3406.96" y1="1390.99" x2="3406.96" y2="1385.30" style="stroke:#808080;stroke-width:8.64"/>
	<line x1="3406.96" y1="1385.30" x2="3423.79" y2="1385.30" style="stroke:#808080;stroke-width:8.64"/>
	<line x1="3423.79" y1="1385.30" x2="3423.79" y2="1375.28" style="stroke:#808080;stroke-width:8.64"/>
	<line x1="3423.79" y1="1375.28" x2="3431.59" y2="1375.28" style="stroke:#808080;stroke-width:8.64"/>
	<line x1="3440.74" y1="1367.23" x2="3440.74" y2="1365.13" style="stroke:#808080;stroke-width:8.64"/>
	<line x1="3440.74" y1="1365.13" x2="3457.57" y2="1365.13" style="stroke:#808080;stroke-width:8.64"/>
	<line x1="3457.57" y1="1365.13" x2="3457.57" y2="1355.10" style="stroke:#808080;stroke-width:8.64"/>
	<line x1="3457.57" y1="1355.10" x2="3468.96" y2="1355.10" style="stroke:#808080;stroke-width:8.64"/>
	<line x1="3476.01" y1="1344.96" x2="3491.36" y2="1344.96" style="stroke:#808080;stroke-width:8.64"/>
	<line x1="3491.36" y1="1344.96" x2="3491.36" y2="1334.81" style="stroke:#808080;stroke-width:8.64"/>
	<line x1="3491.36" y1="1334.81" x2="3506.21" y2="1334.81" style="stroke:#808080;stroke-width:8.64"/>
	<line x1="3513.26" y1="1324.66" x2="3525.14" y2="1324.66" style="stroke:#808080;stroke-width:8.64"/>
	<line x1="3525.14" y1="1324.66" x2="3525.14" y2="1314.39" style="stroke:#808080;stroke-width:8.64"/>
	<line x1="3525.14" y1="1314.39" x2="3541.97" y2="1314.39" style="stroke:#808080;stroke-width:8.64"/>
	<line x1="3541.97" y1="1314.39" x2="3541.97" y2="1312.90" style="stroke:#808080;stroke-width:8.64"/>
	<line x1="3550.51" y1="1304.24" x2="3558.93" y2="1304.24" style="stroke:#808080;stroke-width:8.64"/>
	<line x1="3558.93" y1="1304.24" x2="3558.93" y2="1293.97" style="stroke:#808080;stroke-width:8.64"/>
	<line x1="3558.93" y1="1293.97" x2="3575.76" y2="1293.97" style="stroke:#808080;stroke-width:8.64"/>
	<line x1="3575.76" y1="1293.97" x2="3575.76" y2="1289.14" style="stroke:#808080;stroke-width:8.64"/>
	<line x1="3587.51" y1="1283.70" x2="3592.59" y2="1283.70" style="stroke:#808080;stroke-width:8.64"/>
	<line x1="3592.59" y1="1283.70" x2="3592.59" y2="1273.43" style="stroke:#808080;stroke-width:8.64"/>
	<line x1="3592.59" y1="1273.43" x2="3609.54" y2="1273.43" style="stroke:#808080;stroke-width:8.64"/>
	<line x1="3609.54" y1="1273.43" x2="3609.54" y2="1265.38" style="stroke:#808080;stroke-width:8.64"/>
	<line x1="3624.51" y1="1263.16" x2="3626.37" y2="1263.16" style="stroke:#808080;stroke-width:8.64"/>
	<line x1="3626.37" y1="1263.16" x2="3626.37" y2="1252.76" style="stroke:#808080;stroke-width:8.64"/>
	<line x1="3626.37" y1="1252.76" x2="3643.32" y2="1252.76" style="stroke:#808080;stroke-width:8.64"/>
	<line x1="3643.32" y1="1252.76" x2="3643.32" y2="1242.37" style="stroke:#808080;stroke-width:8.64"/>
	<line x1="3643.32" y1="1242.37" x2="3644.07" y2="1242.37" style="stroke:#808080;stroke-width:8.64"/>
	<line x1="3660.15" y1="1241.13" x2="3660.15" y2="1231.97" style="stroke:#808080;stroke-width:8.64"/>
	<line x1="3660.15" y1="1231.97" x2="3677.11" y2="1231.97" style="stroke:#808080;stroke-width:8.64"/>
	<line x1="3677.11" y1="1231.97" x2="3677.11" y2="1221.57" style="stroke:#808080;stroke-width:8.64"/>
	<line x1="3677.11" y1="1221.57" x2="3680.82" y2="1221.57" style="stroke:#808080;stroke-width:8.64"/>
	<line x1="3693.94" y1="1217.37" x2="3693.94" y2="1211.18" style="stroke:#808080;stroke-width:8.64"/>
	<line x1="3693.94" y1="1211.18" x2="3710.77" y2="1211.18" style="stroke:#808080;stroke-width:8.64"/>
	<line x1="3710.77" y1="1211.18" x2="3710.77" y2="1200.78" style="stroke:#808080;stroke-width:8.64"/>
	<line x1="3710.77" y1="1200.78" x2="3717.70" y2="1200.78" style="stroke:#808080;stroke-width:8.64"/>
	<line x1="3727.72" y1="1193.61" x2="3727.72" y2="1190.26" style="stroke:#808080;stroke-width:8.64"/>
	<line x1="3727.72" y1="1190.26" x2="3744.55" y2="1190.26" style="stroke:#808080;stroke-width:8.64"/>
	<line x1="3744.55" y1="1190.26" x2="3744.55" y2="1179.75" style="stroke:#808080;stroke-width:8.64"/>
	<line x1="3744.55" y1="1179.75" x2="3754.20" y2="1179.75" style="stroke:#808080;stroke-width:8.64"/>
	<line x1="3761.51" y1="1169.85" x2="3761.51" y2="1169.23" style="stroke:#808080;stroke-width:8.64"/>
	<line x1="3761.51" y1="1169.23" x2="3778.34" y2="1169.23" style="stroke:#808080;stroke-width:8.64"/>
	<line x1="3778.34" y1="1169.23" x2="3778.34" y2="1158.71" style="stroke:#808080;stroke-width:8.64"/>
	<line x1="3778.34" y1="1158.71" x2="3790.71" y2="1158.71" style="stroke:#808080;stroke-width:8.64"/>
	<path d="" stroke-linejoin="round" style="fill:none;stroke:#808080;stroke-width:8.64"/>
	<path d=" M773.19 2441.54 L790.14 2441.54 L790.14 2440.43 L806.97 2440.43 L806.97 2439.19 L823.93 2439.19 L823.93 2437.70 L840.76 2437.70 L840.76 2436.09 L857.71 2436.09 L857.71 2434.49 L874.54 2434.49 L874.54 2432.63 L891.37 2432.63 L891.37 2430.65 L908.33 2430.65 L908.33 2428.67 L925.15 2428.67 L925.15 2426.44 L942.11 2426.44 L942.11 2424.09 L958.94 2424.09 L958.94 2421.62 L975.89 2421.62 L975.89 2419.02 L992.72 2419.02 L992.72 2416.42 L1009.55 2416.42 L1009.55 2413.57 L1026.51 2413.57 L1026.51 2410.73 L1043.34 2410.73 L1043.34 2407.63 L1060.29 2407.63 L1060.29 2404.54 L1077.12 2404.54 L1077.12 2401.20 L1093.95 2401.20 L1093.95 2397.85 L1110.90 2397.85 L1110.90 2394.39 L1127.73 2394.39 L1127.73 2390.80 L1144.69 2390.80 L1144.69 2387.09 L1161.52 2387.09 L1161.52 2383.38 L1178.47 2383.38 L1178.47 2379.42 L1195.30 2379.42 L1195.30 2375.46 L1212.13 2375.46 L1212.13 2371.37 L1229.09 2371.37 L1229.09 2367.29 L1245.91 2367.29 L1245.91 2363.08 L1262.87 2363.08 L1262.87 2358.75 L1279.70 2358.75 L1279.70 2354.29 L1296.65 2354.29 L1296.65 2349.71 L1313.48 2349.71 L1313.48 2345.14 L1330.31 2345.14 L1330.31 2340.43 L1347.27 2340.43 L1347.27 2335.73 L1364.10 2335.73 L1364.10 2330.78 L1381.05 2330.78 L1381.05 2325.83 L1397.88 2325.83 L1397.88 2320.88 L1414.83 2320.88 L1414.83 2315.68 L1431.66 2315.68 L1431.66 2310.48 L1448.49 2310.48 L1448.49 2305.29 L1465.45 2305.29 L1465.45 2299.97 L1482.28 2299.97 L1482.28 2294.52 L1499.23 2294.52 L1499.23 2289.08 L1516.06 2289.08 L1516.06 2283.51 L1533.02 2283.51 L1533.02 2277.94 L1549.85 2277.94 L1549.85 2272.24 L1566.67 2272.24 L1566.67 2266.43 L1583.63 2266.43 L1583.63 2260.61 L1600.46 2260.61 L1600.46 2254.80 L1617.41 2254.80 L1617.41 2248.86 L1634.24 2248.86 L1634.24 2242.79 L1651.20 2242.79 L1651.20 2236.73 L1668.03 2236.73 L1668.03 2230.54 L1684.86 2230.54 L1684.86 2224.35 L1701.81 2224.35 L1701.81 2218.16 L1718.64 2218.16 L1718.64 2211.73 L1735.59 2211.73 L1735.59 2205.42 L1752.42 2205.42 L1752.42 2198.98 L1769.25 2198.98 L1769.25 2192.42 L1786.21 2192.42 L1786.21 2185.86 L1803.04 2185.86 L1803.04 2179.18 L1819.99 2179.18 L1819.99 2172.50 L1836.82 2172.50 L1836.82 2165.82 L1853.78 2165.82 L1853.78 2159.01 L1870.61 2159.01 L1870.61 2152.08 L1887.43 2152.08 L1887.43 2145.15 L1904.39 2145.15 L1904.39 2138.22 L1921.22 2138.22 L1921.22 2131.17 L1938.17 2131.17 L1938.17 2124.11 L1955.00 2124.11 L1955.00 2116.93 L1971.96 2116.93 L1971.96 2109.76 L1988.79 2109.76 L1988.79 2102.58 L2005.62 2102.58 L2005.62 2095.28 L2022.57 2095.28 L2022.57 2087.85 L2039.40 2087.85 L2039.40 2080.55 L2056.35 2080.55 L2056.35 2073.12 L2073.18 2073.12 L2073.18 2065.58 L2090.14 2065.58 L2090.14 2058.03 L2106.97 2058.03 L2106.97 2050.48 L2123.80 2050.48 L2123.80 2042.81 L2140.75 2042.81 L2140.75 2035.13 L2157.58 2035.13 L2157.58 2027.46 L2174.53 2027.46 L2174.53 2019.66 L2191.36 2019.66 L2191.36 2011.87 L2208.32 2011.87 L2208.32 2003.95 L2225.15 2003.95 L2225.15 1996.03 L2241.98 1996.03 L2241.98 1988.11 L2258.93 1988.11 L2258.93 1980.06 L2275.76 1980.06 L2275.76 1972.02 L2292.72 1972.02 L2292.72 1963.97 L2309.55 1963.97 L2309.55 1955.81 L2326.50 1955.81 L2326.50 1947.64 L2343.33 1947.64 L2343.33 1939.35 L2360.16 1939.35 L2360.16 1931.06 L2377.11 1931.06 L2377.11 1922.76 L2393.94 1922.76 L2393.94 1914.47 L2410.90 1914.47 L2410.90 1906.06 L2427.73 1906.06 L2427.73 1897.64 L2444.56 1897.64 L2444.56 1889.23 L2461.51 1889.23 L2461.51 1880.69 L2478.34 1880.69 L2478.34 1872.15 L2495.30 1872.15 L2495.30 1863.61 L2512.13 1863.61 L2512.13 1854.95 L2529.08 1854.95 L2529.08 1846.41 L2545.91 1846.41 L2545.91 1837.62 L2562.74 1837.62 L2562.74 1828.96 L2579.69 1828.96 L2579.69 1820.17 L2596.52 1820.17 L2596.52 1811.39 L2613.48 1811.39 L2613.48 1802.60 L2630.31 1802.60 L2630.31 1793.69 L2647.26 1793.69 L2647.26 1784.78 L2664.09 1784.78 L2664.09 1775.87 L2680.92 1775.87 L2680.92 1766.96 L2697.87 1766.96 L2697.87 1757.92 L2714.70 1757.92 L2714.70 1748.89 L2731.66 1748.89 L2731.66 1739.73 L2748.49 1739.73 L2748.49 1730.70 L2765.44 1730.70 L2765.44 1721.54 L2782.27 1721.54 L2782.27 1712.26 L2799.10 1712.26 L2799.10 1703.10 L2816.05 1703.10 L2816.05 1693.82 L2832.89 1693.82 L2832.89 1684.54 L2849.84 1684.54 L2849.84 1675.26 L2866.67 1675.26 L2866.67 1665.97 L2883.62 1665.97 L2883.62 1656.57 L2900.45 1656.57 L2900.45 1647.16 L2917.28 1647.16 L2917.28 1637.76 L2934.24 1637.76 L2934.24 1628.23 L2951.07 1628.23 L2951.07 1618.82 L2968.02 1618.82 L2968.02 1609.30 L2984.85 1609.30 L2984.85 1599.64 L3001.80 1599.64 L3001.80 1590.11 L3018.63 1590.11 L3018.63 1580.46 L3035.46 1580.46 L3035.46 1570.81 L3052.42 1570.81 L3052.42 1561.16 L3069.25 1561.16 L3069.25 1551.38 L3086.20 1551.38 L3086.20 1541.73 L3103.03 1541.73 L3103.03 1531.95 L3119.86 1531.95 L3119.86 1522.05 L3136.82 1522.05 L3136.82 1512.27 L3153.64 1512.27 L3153.64 1502.37 L3170.60 1502.37 L3170.60 1492.47 L3187.43 1492.47 L3187.43 1482.57 L3204.38 1482.57 L3204.38 1472.67 L3221.21 1472.67 L3221.21 1462.65 L3238.04 1462.65 L3238.04 1452.75 L3255.00 1452.75 L3255.00 1442.72 L3271.83 1442.72 L3271.83 1432.70 L3288.78 1432.70 L3288.78 1422.55 L3305.61 1422.55 L3305.61 1412.53 L3322.56 1412.53 L3322.56 1402.38 L3339.39 1402.38 L3339.39 1392.23 L3356.22 1392.23 L3356.22 1382.08 L3373.18 1382.08 L3373.18 1371.81 L3390.01 1371.81 L3390.01 1361.54 L3406.96 1361.54 L3406.96 1351.39 L3423.79 1351.39 L3423.79 1341.12 L3440.74 1341.12 L3440.74 1330.73 L3457.57 1330.73 L3457.57 1320.45 L3474.41 1320.45 L3474.41 1310.06 L3491.36 1310.06 L3491.36 1299.66 L3508.19 1299.66 L3508.19 1289.27 L3525.14 1289.27 L3525.14 1278.87 L3541.97 1278.87 L3541.97 1268.35 L3558.93 1268.35 L3558.93 1257.96 L3575.76 1257.96 L3575.76 1247.44 L3592.59 1247.44 L3592.59 1236.92 L3609.54 1236.92 L3609.54 1226.28 L3626.37 1226.28 L3626.37 1215.76 L3643.32 1215.76 L3643.32 1205.12 L3660.15 1205.12 L3660.15 1194.47 L3677.11 1194.47 L3677.11 1183.83 L3693.94 1183.83 L3693.94 1173.19 L3710.77 1173.19 L3710.77 1162.42 L3727.72 1162.42 L3727.72 1151.78 L3744.55 1151.78 L3744.55 1141.01 L3761.51 1141.01 L3761.51 1130.24 L3778.34 1130.24 L3778.34 1119.48 L3795.16 1119.48 L3795.16 1108.71" stroke-linejoin="round" style="fill:none;stroke:#000000;stroke-width:8.64"/>
	<line x1="553.29" y1="2509.23" x2="553.29" y2="419.90" style="stroke:#000000;stroke-width:5.76"/>
	<line x1="553.29" y1="2445.87" x2="513.32" y2="2445.87" style="stroke:#000000;stroke-width:5.76"/>
	<text x="493.27" y="2480.90" style="font-family:'Helvetica';font-size:99.99px;fill:#000000" text-anchor="end">0</text>
	<line x1="553.29" y1="2282.27" x2="513.32" y2="2282.27" style="stroke:#000000;stroke-width:5.76"/>
	<text x="493.27" y="2317.30" style="font-family:'Helvetica';font-size:99.99px;fill:#000000" text-anchor="end">90</text>
	<line x1="553.29" y1="2118.79" x2="513.32" y2="2118.79" style="stroke:#000000;stroke-width:5.76"/>
	<text x="493.27" y="2153.82" style="font-family:'Helvetica';font-size:99.99px;fill:#000000" text-anchor="end">180</text>
	<line x1="553.29" y1="1955.19" x2="513.32" y2="1955.19" style="stroke:#000000;stroke-width:5.76"/>
	<text x="493.27" y="1990.22" style="font-family:'Helvetica';font-size:99.99px;fill:#000000" text-anchor="end">270</text>
	<line x1="553.29" y1="1791.71" x2="513.32" y2="1791.71" style="stroke:#000000;stroke-width:5.76"/>
	<text x="493.27" y="1826.74" style="font-family:'Helvetica';font-size:99.99px;fill:#000000" text-anchor="end">360</text>
	<line x1="553.29" y1="1628.11" x2="513.32" y2="1628.11" style="stroke:#000000;stroke-width:5.76"/>
	<text x="493.27" y="1663.13" style="font-family:'Helvetica';font-size:99.99px;fill:#000000" text-anchor="end">450</text>
	<line x1="553.29" y1="1464.63" x2="513.32" y2="1464.63" style="stroke:#000000;stroke-width:5.76"/>
	<text x="493.27" y="1499.66" style="font-family:'Helvetica';font-size:99.99px;fill:#000000" text-anchor="end">540</text>
	<line x1="553.29" y1="1301.02" x2="513.32" y2="1301.02" style="stroke:#000000;stroke-width:5.76"/>
	<text x="493.27" y="1336.05" style="font-family:'Helvetica';font-size:99.99px;fill:#000000" text-anchor="end">630</text>
	<line x1="553.29" y1="1137.42" x2="513.32" y2="1137.42" style="stroke:#000000;stroke-width:5.76"/>
	<text x="493.27" y="1172.45" style="font-family:'Helvetica';font-size:99.99px;fill:#000000" text-anchor="end">720</text>
	<line x1="553.29" y1="973.94" x2="513.32" y2="973.94" style="stroke:#000000;stroke-width:5.76"/>
	<text x="493.27" y="1008.97" style="font-family:'Helvetica';font-size:99.99px;fill:#000000" text-anchor="end">810</text>
	<line x1="553.29" y1="810.34" x2="513.32" y2="810.34" style="stroke:#000000;stroke-width:5.76"/>
	<text x="493.27" y="845.37" style="font-family:'Helvetica';font-size:99.99px;fill:#000000" text-anchor="end">900</text>
	<line x1="553.29" y1="646.86" x2="513.32" y2="646.86" style="stroke:#000000;stroke-width:5.76"/>
	<text x="493.27" y="681.89" style="font-family:'Helvetica';font-size:99.99px;fill:#000000" text-anchor="end">990</text>
	<line x1="553.29" y1="483.26" x2="513.32" y2="483.26" style="stroke:#000000;stroke-width:5.76"/>
	<text x="493.27" y="518.29" style="font-family:'Helvetica';font-size:99.99px;fill:#000000" text-anchor="end">1080</text>
	<text x="190.71" y="1464.63" style="font-family:'Helvetica';font-size:99.99px;fill:#000000" transform="rotate(-90 190.71,1464.63)" text-anchor="middle">LOS (years)</text>
	<line x1="553.29" y1="2509.23" x2="3859.02" y2="2509.23" style="stroke:#000000;stroke-width:5.76"/>
	<line x1="616.65" y1="2509.23" x2="616.65" y2="2549.21" style="stroke:#000000;stroke-width:5.76"/>
	<text x="616.65" y="2625.15" style="font-family:'Helvetica';font-size:79.94px;fill:#000000" text-anchor="middle">0</text>
	<line x1="807.35" y1="2509.23" x2="807.35" y2="2549.21" style="stroke:#000000;stroke-width:5.76"/>
	<text x="807.35" y="2625.15" style="font-family:'Helvetica';font-size:79.94px;fill:#000000" text-anchor="middle">.3</text>
	<line x1="998.17" y1="2509.23" x2="998.17" y2="2549.21" style="stroke:#000000;stroke-width:5.76"/>
	<text x="998.17" y="2625.15" style="font-family:'Helvetica';font-size:79.94px;fill:#000000" text-anchor="middle">.6</text>
	<line x1="1188.87" y1="2509.23" x2="1188.87" y2="2549.21" style="stroke:#000000;stroke-width:5.76"/>
	<text x="1188.87" y="2625.15" style="font-family:'Helvetica';font-size:79.94px;fill:#000000" text-anchor="middle">.9</text>
	<line x1="1379.57" y1="2509.23" x2="1379.57" y2="2549.21" style="stroke:#000000;stroke-width:5.76"/>
	<text x="1379.57" y="2625.15" style="font-family:'Helvetica';font-size:79.94px;fill:#000000" text-anchor="middle">1.2</text>
	<line x1="1570.39" y1="2509.23" x2="1570.39" y2="2549.21" style="stroke:#000000;stroke-width:5.76"/>
	<text x="1570.39" y="2625.15" style="font-family:'Helvetica';font-size:79.94px;fill:#000000" text-anchor="middle">1.5</text>
	<line x1="1761.09" y1="2509.23" x2="1761.09" y2="2549.21" style="stroke:#000000;stroke-width:5.76"/>
	<text x="1761.09" y="2625.15" style="font-family:'Helvetica';font-size:79.94px;fill:#000000" text-anchor="middle">1.8</text>
	<line x1="1951.91" y1="2509.23" x2="1951.91" y2="2549.21" style="stroke:#000000;stroke-width:5.76"/>
	<text x="1951.91" y="2625.15" style="font-family:'Helvetica';font-size:79.94px;fill:#000000" text-anchor="middle">2.1</text>
	<line x1="2142.61" y1="2509.23" x2="2142.61" y2="2549.21" style="stroke:#000000;stroke-width:5.76"/>
	<text x="2142.61" y="2625.15" style="font-family:'Helvetica';font-size:79.94px;fill:#000000" text-anchor="middle">2.4</text>
	<line x1="2333.31" y1="2509.23" x2="2333.31" y2="2549.21" style="stroke:#000000;stroke-width:5.76"/>
	<text x="2333.31" y="2625.15" style="font-family:'Helvetica';font-size:79.94px;fill:#000000" text-anchor="middle">2.7</text>
	<line x1="2524.13" y1="2509.23" x2="2524.13" y2="2549.21" style="stroke:#000000;stroke-width:5.76"/>
	<text x="2524.13" y="2625.15" style="font-family:'Helvetica';font-size:79.94px;fill:#000000" text-anchor="middle">3</text>
	<line x1="2714.83" y1="2509.23" x2="2714.83" y2="2549.21" style="stroke:#000000;stroke-width:5.76"/>
	<text x="2714.83" y="2625.15" style="font-family:'Helvetica';font-size:79.94px;fill:#000000" text-anchor="middle">3.3</text>
	<line x1="2905.53" y1="2509.23" x2="2905.53" y2="2549.21" style="stroke:#000000;stroke-width:5.76"/>
	<text x="2905.53" y="2625.15" style="font-family:'Helvetica';font-size:79.94px;fill:#000000" text-anchor="middle">3.6</text>
	<line x1="3096.35" y1="2509.23" x2="3096.35" y2="2549.21" style="stroke:#000000;stroke-width:5.76"/>
	<text x="3096.35" y="2625.15" style="font-family:'Helvetica';font-size:79.94px;fill:#000000" text-anchor="middle">3.9</text>
	<line x1="3287.05" y1="2509.23" x2="3287.05" y2="2549.21" style="stroke:#000000;stroke-width:5.76"/>
	<text x="3287.05" y="2625.15" style="font-family:'Helvetica';font-size:79.94px;fill:#000000" text-anchor="middle">4.2</text>
	<line x1="3477.87" y1="2509.23" x2="3477.87" y2="2549.21" style="stroke:#000000;stroke-width:5.76"/>
	<text x="3477.87" y="2625.15" style="font-family:'Helvetica';font-size:79.94px;fill:#000000" text-anchor="middle">4.5</text>
	<line x1="3668.57" y1="2509.23" x2="3668.57" y2="2549.21" style="stroke:#000000;stroke-width:5.76"/>
	<text x="3668.57" y="2625.15" style="font-family:'Helvetica';font-size:79.94px;fill:#000000" text-anchor="middle">4.8</text>
	<line x1="3859.27" y1="2509.23" x2="3859.27" y2="2549.21" style="stroke:#000000;stroke-width:5.76"/>
	<text x="3859.27" y="2625.15" style="font-family:'Helvetica';font-size:79.94px;fill:#000000" text-anchor="middle">5.1</text>
	<text x="2206.22" y="2729.16" style="font-family:'Helvetica';font-size:99.99px;fill:#000000" text-anchor="middle">Time (years)</text>
	<rect x="587.81" y="454.42" width="1369.54" height="606.39" style="fill:#FFFFFF"/>
	<rect x="590.69" y="457.30" width="1363.78" height="600.63" style="fill:none;stroke:#000000;stroke-width:5.76"/>
	<rect x="631.00" y="497.74" width="374.47" height="99.99" style="fill:#999999;fill-opacity:0.35"/>
	<rect x="635.32" y="502.06" width="365.83" height="91.35" style="fill:none;stroke:#808080;stroke-opacity:0.35;stroke-width:8.64"/>
	<rect x="631.00" y="637.70" width="374.47" height="99.99" style="fill:#333333;fill-opacity:0.35"/>
	<rect x="635.32" y="642.02" width="365.83" height="91.35" style="fill:none;stroke:#000000;stroke-opacity:0.35;stroke-width:8.64"/>
	<line x1="631.00" y1="827.67" x2="671.34" y2="827.67" style="stroke:#808080;stroke-width:8.64"/>
	<line x1="688.54" y1="827.67" x2="728.89" y2="827.67" style="stroke:#808080;stroke-width:8.64"/>
	<line x1="746.09" y1="827.67" x2="786.43" y2="827.67" style="stroke:#808080;stroke-width:8.64"/>
	<line x1="803.76" y1="827.67" x2="843.98" y2="827.67" style="stroke:#808080;stroke-width:8.64"/>
	<line x1="861.30" y1="827.67" x2="901.64" y2="827.67" style="stroke:#808080;stroke-width:8.64"/>
	<line x1="918.84" y1="827.67" x2="959.19" y2="827.67" style="stroke:#808080;stroke-width:8.64"/>
	<line x1="976.39" y1="827.67" x2="1005.47" y2="827.67" style="stroke:#808080;stroke-width:8.64"/>
	<line x1="631.00" y1="967.63" x2="1005.47" y2="967.63" style="stroke:#000000;stroke-width:8.64"/>
	<text x="1065.36" y="582.76" style="font-family:'Helvetica';font-size:99.99px;fill:#000000">Outpatient CI95%</text>
	<text x="1065.36" y="722.73" style="font-family:'Helvetica';font-size:99.99px;fill:#000000">Residential CI95%</text>
	<text x="1065.36" y="862.69" style="font-family:'Helvetica';font-size:99.99px;fill:#000000">Outpatient</text>
	<text x="1065.36" y="1002.66" style="font-family:'Helvetica';font-size:99.99px;fill:#000000">Residential</text>
	<text x="2206.22" y="369.63" style="font-family:'Helvetica';font-size:110.01px;fill:#000000" text-anchor="middle">from 3rd Readmission to 4th Readmission</text>
	<text x="2206.22" y="215.98" style="font-family:'Helvetica';font-size:139.96px;fill:#1E2D53" text-anchor="middle">Length of Stay</text>
</svg>
