<?xml version="1.0" encoding="UTF-8" standalone="no"?>
<!-- This is a Stata 16.1 generated SVG file (http://www.stata.com) -->

<svg version="1.1" width="5.50in" height="4.00in" viewBox="0 0 3960 2880" xmlns="http://www.w3.org/2000/svg" xmlns:xlink="http://www.w3.org/1999/xlink">
	<desc>Stata Graph - los_models_45_3y_22</desc>
	<rect x="0" y="0" width="3960" height="2880" style="fill:#EAF2F3;stroke:none"/>
	<rect x="0.00" y="0.00" width="3959.88" height="2880.00" style="fill:#FFFFFF"/>
	<rect x="2.88" y="2.88" width="3954.12" height="2874.24" style="fill:none;stroke:#FFFFFF;stroke-width:5.76"/>
	<rect x="553.29" y="419.90" width="3305.73" height="2089.34" style="fill:#FFFFFF"/>
	<rect x="556.17" y="422.78" width="3299.97" height="2083.58" style="fill:none;stroke:#FFFFFF;stroke-width:5.76"/>
	<line x1="553.29" y1="2445.87" x2="3859.02" y2="2445.87" style="stroke:#EAF2F3;stroke-width:8.64"/>
	<line x1="553.29" y1="2282.27" x2="3859.02" y2="2282.27" style="stroke:#EAF2F3;stroke-width:8.64"/>
	<line x1="553.29" y1="2118.79" x2="3859.02" y2="2118.79" style="stroke:#EAF2F3;stroke-width:8.64"/>
	<line x1="553.29" y1="1955.19" x2="3859.02" y2="1955.19" style="stroke:#EAF2F3;stroke-width:8.64"/>
	<line x1="553.29" y1="1791.71" x2="3859.02" y2="1791.71" style="stroke:#EAF2F3;stroke-width:8.64"/>
	<line x1="553.29" y1="1628.11" x2="3859.02" y2="1628.11" style="stroke:#EAF2F3;stroke-width:8.64"/>
	<line x1="553.29" y1="1464.63" x2="3859.02" y2="1464.63" style="stroke:#EAF2F3;stroke-width:8.64"/>
	<line x1="553.29" y1="1301.02" x2="3859.02" y2="1301.02" style="stroke:#EAF2F3;stroke-width:8.64"/>
	<line x1="553.29" y1="1137.42" x2="3859.02" y2="1137.42" style="stroke:#EAF2F3;stroke-width:8.64"/>
	<line x1="553.29" y1="973.94" x2="3859.02" y2="973.94" style="stroke:#EAF2F3;stroke-width:8.64"/>
	<line x1="553.29" y1="810.34" x2="3859.02" y2="810.34" style="stroke:#EAF2F3;stroke-width:8.64"/>
	<line x1="553.29" y1="646.86" x2="3859.02" y2="646.86" style="stroke:#EAF2F3;stroke-width:8.64"/>
	<defs>
		<path id="path_EIVaZyvK" d="M773.31 2445.87 L773.31 2445.87 L790.14 2445.87 L790.14 2445.87 L807.10 2445.87 L807.10 2445.87 L823.93 2445.87 L823.93 2445.87 L840.88 2445.87 L840.88 2445.87 L857.71 2445.87 L857.71 2444.14 L874.54 2444.14 L874.54 2443.27 L891.50 2443.27 L891.50 2442.41 L908.33 2442.41 L908.33 2441.42 L925.28 2441.42 L925.28 2440.55 L942.11 2440.55 L942.11 2439.68 L959.06 2439.68 L959.06 2438.82 L975.89 2438.82 L975.89 2437.95 L992.72 2437.95 L992.72 2436.84 L1009.68 2436.84 L1009.68 2435.85 L1026.51 2435.85 L1026.51 2434.73 L1043.46 2434.73 L1043.46 2433.50 L1060.29 2433.50 L1060.29 2432.26 L1077.24 2432.26 L1077.24 2430.90 L1094.07 2430.90 L1094.07 2429.41 L1110.90 2429.41 L1110.90 2427.80 L1127.86 2427.80 L1127.86 2426.19 L1144.69 2426.19 L1144.69 2424.59 L1161.64 2424.59 L1161.64 2422.85 L1178.47 2422.85 L1178.47 2421.12 L1195.42 2421.12 L1195.42 2419.26 L1212.26 2419.26 L1212.26 2417.41 L1229.09 2417.41 L1229.09 2415.43 L1246.04 2415.43 L1246.04 2413.32 L1262.87 2413.32 L1262.87 2410.97 L1279.82 2410.97 L1279.82 2408.50 L1296.65 2408.50 L1296.65 2405.90 L1313.61 2405.90 L1313.61 2403.30 L1330.44 2403.30 L1330.44 2400.70 L1347.27 2400.70 L1347.27 2398.10 L1364.22 2398.10 L1364.22 2395.38 L1381.05 2395.38 L1381.05 2392.53 L1398.00 2392.53 L1398.00 2389.69 L1414.83 2389.69 L1414.83 2386.84 L1431.66 2386.84 L1431.66 2383.87 L1448.62 2383.87 L1448.62 2380.78 L1465.45 2380.78 L1465.45 2377.68 L1482.40 2377.68 L1482.40 2374.59 L1499.23 2374.59 L1499.23 2371.37 L1516.18 2371.37 L1516.18 2368.15 L1533.02 2368.15 L1533.02 2364.94 L1549.85 2364.94 L1549.85 2361.60 L1566.80 2361.60 L1566.80 2358.25 L1583.63 2358.25 L1583.63 2354.91 L1600.58 2354.91 L1600.58 2351.45 L1617.41 2351.45 L1617.41 2347.86 L1634.37 2347.86 L1634.37 2344.39 L1651.20 2344.39 L1651.20 2340.93 L1668.03 2340.93 L1668.03 2337.34 L1684.98 2337.34 L1684.98 2333.87 L1701.81 2333.87 L1701.81 2330.29 L1718.76 2330.29 L1718.76 2326.70 L1735.59 2326.70 L1735.59 2322.98 L1752.55 2322.98 L1752.55 2319.39 L1769.38 2319.39 L1769.38 2315.68 L1786.21 2315.68 L1786.21 2311.97 L1803.16 2311.97 L1803.16 2308.26 L1819.99 2308.26 L1819.99 2304.67 L1836.94 2304.67 L1836.94 2300.96 L1853.78 2300.96 L1853.78 2297.37 L1870.73 2297.37 L1870.73 2293.65 L1887.56 2293.65 L1887.56 2289.94 L1904.39 2289.94 L1904.39 2286.11 L1921.34 2286.11 L1921.34 2282.27 L1938.17 2282.27 L1938.17 2278.43 L1955.13 2278.43 L1955.13 2274.60 L1971.96 2274.60 L1971.96 2270.64 L1988.91 2270.64 L1988.91 2266.80 L2005.74 2266.80 L2005.74 2262.72 L2022.57 2262.72 L2022.57 2258.63 L2039.52 2258.63 L2039.52 2254.55 L2056.35 2254.55 L2056.35 2250.22 L2073.31 2250.22 L2073.31 2245.89 L2090.14 2245.89 L2090.14 2241.43 L2106.97 2241.43 L2106.97 2236.60 L2123.92 2236.60 L2123.92 2231.90 L2140.75 2231.90 L2140.75 2227.07 L2157.70 2227.07 L2157.70 2222.25 L2174.53 2222.25 L2174.53 2217.42 L2191.49 2217.42 L2191.49 2212.60 L2208.32 2212.60 L2208.32 2207.65 L2225.15 2207.65 L2225.15 2202.57 L2242.10 2202.57 L2242.10 2197.37 L2258.93 2197.37 L2258.93 2192.18 L2275.89 2192.18 L2275.89 2186.85 L2292.72 2186.85 L2292.72 2181.53 L2309.67 2181.53 L2309.67 2176.09 L2326.50 2176.09 L2326.50 2170.77 L2343.33 2170.77 L2343.33 2165.32 L2360.28 2165.32 L2360.28 2159.75 L2377.11 2159.75 L2377.11 2154.31 L2394.07 2154.31 L2394.07 2148.74 L2410.90 2148.74 L2410.90 2143.05 L2427.85 2143.05 L2427.85 2137.23 L2444.68 2137.23 L2444.68 2131.29 L2461.51 2131.29 L2461.51 2125.35 L2478.47 2125.35 L2478.47 2119.41 L2495.30 2119.41 L2495.30 2113.22 L2512.25 2113.22 L2512.25 2107.03 L2529.08 2107.03 L2529.08 2100.85 L2546.03 2100.85 L2546.03 2094.53 L2562.86 2094.53 L2562.86 2088.22 L2579.69 2088.22 L2579.69 2081.91 L2596.65 2081.91 L2596.65 2075.60 L2613.48 2075.60 L2613.48 2069.29 L2630.43 2069.29 L2630.43 2062.85 L2647.26 2062.85 L2647.26 2056.54 L2664.21 2056.54 L2664.21 2050.23 L2681.04 2050.23 L2681.04 2043.92 L2697.87 2043.92 L2697.87 2037.61 L2714.83 2037.61 L2714.83 2031.30 L2731.66 2031.30 L2731.66 2024.98 L2748.61 2024.98 L2748.61 2018.67 L2765.44 2018.67 L2765.44 2012.49 L2782.27 2012.49 L2782.27 2006.17 L2799.22 2006.17 L2799.22 1999.74 L2816.05 1999.74 L2816.05 1993.30 L2833.01 1993.30 L2833.01 1986.74 L2849.84 1986.74 L2849.84 1980.31 L2866.79 1980.31 L2866.79 1973.75 L2883.62 1973.75 L2883.62 1967.19 L2900.45 1967.19 L2900.45 1960.63 L2917.41 1960.63 L2917.41 1953.83 L2934.24 1953.83 L2934.24 1947.02 L2951.19 1947.02 L2951.19 1940.09 L2968.02 1940.09 L2968.02 1933.28 L2984.97 1933.28 L2984.97 1926.35 L3001.80 1926.35 L3001.80 1919.42 L3018.63 1919.42 L3018.63 1912.49 L3035.59 1912.49 L3035.59 1905.56 L3052.42 1905.56 L3052.42 1898.51 L3069.37 1898.51 L3069.37 1891.45 L3086.20 1891.45 L3086.20 1884.52 L3103.16 1884.52 L3103.16 1877.47 L3119.99 1877.47 L3119.99 1870.42 L3136.82 1870.42 L3136.82 1863.24 L3153.77 1863.24 L3153.77 1856.06 L3170.60 1856.06 L3170.60 1848.88 L3187.55 1848.88 L3187.55 1841.58 L3204.38 1841.58 L3204.38 1834.28 L3221.34 1834.28 L3221.34 1827.10 L3238.17 1827.10 L3238.17 1819.80 L3255.00 1819.80 L3255.00 1812.50 L3271.95 1812.50 L3271.95 1805.20 L3288.78 1805.20 L3288.78 1797.90 L3305.73 1797.90 L3305.73 1790.59 L3322.56 1790.59 L3322.56 1783.17 L3339.52 1783.17 L3339.52 1775.62 L3356.35 1775.62 L3356.35 1768.20 L3373.18 1768.20 L3373.18 1760.77 L3390.13 1760.77 L3390.13 1753.47 L3406.96 1753.47 L3406.96 1745.92 L3423.91 1745.92 L3423.91 1738.37 L3440.74 1738.37 L3440.74 1730.82 L3457.57 1730.82 L3457.57 1723.15 L3474.53 1723.15 L3474.53 1715.48 L3491.36 1715.48 L3491.36 1707.80 L3508.31 1707.80 L3508.31 1700.13 L3525.14 1700.13 L3525.14 1692.46 L3542.10 1692.46 L3542.10 1684.79 L3558.93 1684.79 L3558.93 1677.11 L3575.76 1677.11 L3575.76 1669.44 L3592.71 1669.44 L3592.71 1661.77 L3609.54 1661.77 L3609.54 1654.09 L3626.49 1654.09 L3626.49 1646.30 L3643.32 1646.30 L3643.32 1638.50 L3660.28 1638.50 L3660.28 1630.70 L3677.11 1630.70 L3677.11 1622.66 L3693.94 1622.66 L3693.94 1614.74 L3710.89 1614.74 L3710.89 1606.82 L3727.72 1606.82 L3727.72 1598.78 L3744.68 1598.78 L3744.68 1590.73 L3761.51 1590.73 L3761.51 1582.56 L3778.46 1582.56 L3778.46 1574.40 L3795.29 1574.40 L3795.29 1566.23 L3795.29 831.38 L3795.29 844.13 L3778.46 844.13 L3778.46 856.87 L3761.51 856.87 L3761.51 869.62 L3744.68 869.62 L3744.68 882.12 L3727.72 882.12 L3727.72 894.62 L3710.89 894.62 L3710.89 907.24 L3693.94 907.24 L3693.94 919.74 L3677.11 919.74 L3677.11 932.36 L3660.28 932.36 L3660.28 944.74 L3643.32 944.74 L3643.32 957.11 L3626.49 957.11 L3626.49 969.36 L3609.54 969.36 L3609.54 981.49 L3592.71 981.49 L3592.71 993.62 L3575.76 993.62 L3575.76 1005.75 L3558.93 1005.75 L3558.93 1017.88 L3542.10 1017.88 L3542.10 1030.00 L3525.14 1030.00 L3525.14 1042.13 L3508.31 1042.13 L3508.31 1054.26 L3491.36 1054.26 L3491.36 1066.39 L3474.53 1066.39 L3474.53 1078.64 L3457.57 1078.64 L3457.57 1090.89 L3440.74 1090.89 L3440.74 1103.14 L3423.91 1103.14 L3423.91 1115.39 L3406.96 1115.39 L3406.96 1127.52 L3390.13 1127.52 L3390.13 1139.77 L3373.18 1139.77 L3373.18 1151.90 L3356.35 1151.90 L3356.35 1164.03 L3339.52 1164.03 L3339.52 1176.03 L3322.56 1176.03 L3322.56 1188.16 L3305.73 1188.16 L3305.73 1200.04 L3288.78 1200.04 L3288.78 1211.80 L3271.95 1211.80 L3271.95 1223.68 L3255.00 1223.68 L3255.00 1235.56 L3238.17 1235.56 L3238.17 1247.44 L3221.34 1247.44 L3221.34 1259.44 L3204.38 1259.44 L3204.38 1271.32 L3187.55 1271.32 L3187.55 1283.33 L3170.60 1283.33 L3170.60 1295.21 L3153.77 1295.21 L3153.77 1306.84 L3136.82 1306.84 L3136.82 1318.47 L3119.99 1318.47 L3119.99 1329.86 L3103.16 1329.86 L3103.16 1341.12 L3086.20 1341.12 L3086.20 1352.51 L3069.37 1352.51 L3069.37 1363.89 L3052.42 1363.89 L3052.42 1375.28 L3035.59 1375.28 L3035.59 1386.41 L3018.63 1386.41 L3018.63 1397.55 L3001.80 1397.55 L3001.80 1408.57 L2984.97 1408.57 L2984.97 1419.70 L2968.02 1419.70 L2968.02 1430.84 L2951.19 1430.84 L2951.19 1441.98 L2934.24 1441.98 L2934.24 1453.24 L2917.41 1453.24 L2917.41 1464.26 L2900.45 1464.26 L2900.45 1475.02 L2883.62 1475.02 L2883.62 1485.91 L2866.79 1485.91 L2866.79 1496.68 L2849.84 1496.68 L2849.84 1507.69 L2833.01 1507.69 L2833.01 1518.58 L2816.05 1518.58 L2816.05 1529.60 L2799.22 1529.60 L2799.22 1540.61 L2782.27 1540.61 L2782.27 1551.50 L2765.44 1551.50 L2765.44 1562.27 L2748.61 1562.27 L2748.61 1573.16 L2731.66 1573.16 L2731.66 1583.93 L2714.83 1583.93 L2714.83 1594.69 L2697.87 1594.69 L2697.87 1605.46 L2681.04 1605.46 L2681.04 1616.23 L2664.21 1616.23 L2664.21 1626.87 L2647.26 1626.87 L2647.26 1637.63 L2630.43 1637.63 L2630.43 1648.28 L2613.48 1648.28 L2613.48 1658.92 L2596.65 1658.92 L2596.65 1669.56 L2579.69 1669.56 L2579.69 1680.33 L2562.86 1680.33 L2562.86 1690.97 L2546.03 1690.97 L2546.03 1701.62 L2529.08 1701.62 L2529.08 1712.13 L2512.25 1712.13 L2512.25 1722.65 L2495.30 1722.65 L2495.30 1733.05 L2478.47 1733.05 L2478.47 1743.32 L2461.51 1743.32 L2461.51 1753.47 L2444.68 1753.47 L2444.68 1763.49 L2427.85 1763.49 L2427.85 1773.52 L2410.90 1773.52 L2410.90 1783.05 L2394.07 1783.05 L2394.07 1792.45 L2377.11 1792.45 L2377.11 1801.61 L2360.28 1801.61 L2360.28 1811.01 L2343.33 1811.01 L2343.33 1820.42 L2326.50 1820.42 L2326.50 1829.82 L2309.67 1829.82 L2309.67 1839.35 L2292.72 1839.35 L2292.72 1848.88 L2275.89 1848.88 L2275.89 1858.29 L2258.93 1858.29 L2258.93 1867.69 L2242.10 1867.69 L2242.10 1876.97 L2225.15 1876.97 L2225.15 1886.13 L2208.32 1886.13 L2208.32 1895.04 L2191.49 1895.04 L2191.49 1904.08 L2174.53 1904.08 L2174.53 1912.74 L2157.70 1912.74 L2157.70 1921.40 L2140.75 1921.40 L2140.75 1930.19 L2123.92 1930.19 L2123.92 1938.85 L2106.97 1938.85 L2106.97 1947.64 L2090.14 1947.64 L2090.14 1955.81 L2073.31 1955.81 L2073.31 1963.85 L2056.35 1963.85 L2056.35 1971.52 L2039.52 1971.52 L2039.52 1979.32 L2022.57 1979.32 L2022.57 1986.99 L2005.74 1986.99 L2005.74 1994.42 L1988.91 1994.42 L1988.91 2001.60 L1971.96 2001.60 L1971.96 2008.53 L1955.13 2008.53 L1955.13 2015.70 L1938.17 2015.70 L1938.17 2022.76 L1921.34 2022.76 L1921.34 2029.69 L1904.39 2029.69 L1904.39 2036.86 L1887.56 2036.86 L1887.56 2043.92 L1870.73 2043.92 L1870.73 2050.85 L1853.78 2050.85 L1853.78 2057.78 L1836.94 2057.78 L1836.94 2064.71 L1819.99 2064.71 L1819.99 2071.64 L1803.16 2071.64 L1803.16 2078.45 L1786.21 2078.45 L1786.21 2085.25 L1769.38 2085.25 L1769.38 2092.06 L1752.55 2092.06 L1752.55 2098.87 L1735.59 2098.87 L1735.59 2105.80 L1718.76 2105.80 L1718.76 2112.85 L1701.81 2112.85 L1701.81 2119.90 L1684.98 2119.90 L1684.98 2126.96 L1668.03 2126.96 L1668.03 2134.14 L1651.20 2134.14 L1651.20 2141.31 L1634.37 2141.31 L1634.37 2148.49 L1617.41 2148.49 L1617.41 2155.67 L1600.58 2155.67 L1600.58 2162.85 L1583.63 2162.85 L1583.63 2170.02 L1566.80 2170.02 L1566.80 2177.08 L1549.85 2177.08 L1549.85 2184.13 L1533.02 2184.13 L1533.02 2191.31 L1516.18 2191.31 L1516.18 2198.61 L1499.23 2198.61 L1499.23 2206.04 L1482.40 2206.04 L1482.40 2213.59 L1465.45 2213.59 L1465.45 2221.26 L1448.62 2221.26 L1448.62 2228.93 L1431.66 2228.93 L1431.66 2236.48 L1414.83 2236.48 L1414.83 2244.28 L1398.00 2244.28 L1398.00 2252.07 L1381.05 2252.07 L1381.05 2259.87 L1364.22 2259.87 L1364.22 2267.29 L1347.27 2267.29 L1347.27 2274.47 L1330.44 2274.47 L1330.44 2281.53 L1313.61 2281.53 L1313.61 2288.70 L1296.65 2288.70 L1296.65 2296.13 L1279.82 2296.13 L1279.82 2302.81 L1262.87 2302.81 L1262.87 2309.62 L1246.04 2309.62 L1246.04 2316.05 L1229.09 2316.05 L1229.09 2321.99 L1212.26 2321.99 L1212.26 2328.31 L1195.42 2328.31 L1195.42 2334.62 L1178.47 2334.62 L1178.47 2341.05 L1161.64 2341.05 L1161.64 2347.61 L1144.69 2347.61 L1144.69 2353.92 L1127.86 2353.92 L1127.86 2359.61 L1110.90 2359.61 L1110.90 2365.31 L1094.07 2365.31 L1094.07 2370.75 L1077.24 2370.75 L1077.24 2375.95 L1060.29 2375.95 L1060.29 2380.78 L1043.46 2380.78 L1043.46 2385.60 L1026.51 2385.60 L1026.51 2390.31 L1009.68 2390.31 L1009.68 2395.01 L992.72 2395.01 L992.72 2399.83 L975.89 2399.83 L975.89 2404.04 L959.06 2404.04 L959.06 2407.63 L942.11 2407.63 L942.11 2410.97 L925.28 2410.97 L925.28 2414.07 L908.33 2414.07 L908.33 2416.79 L891.50 2416.79 L891.50 2417.90 L874.54 2417.90 L874.54 2415.92 L857.71 2415.92 L857.71 2434.24 L840.88 2434.24 L840.88 2436.22 L823.93 2436.22 L823.93 2438.07 L807.10 2438.07 L807.10 2439.68 L790.14 2439.68 L790.14 2441.17 L773.31 2441.17 L773.31 2445.87 Z" stroke-linejoin="round"/>
	</defs>
	<defs>
		<clipPath id="clipPath_ErcJJOuG">
			<use xlink:href="#path_EIVaZyvK"/>
		</clipPath>
	</defs>
	<use xlink:href="#path_EIVaZyvK" style="stroke:none;fill:#999999;fill-opacity:0.35"/>
	<use xlink:href="#path_EIVaZyvK" style="fill:none;stroke:#808080;stroke-opacity:0.35;stroke-width:17.28" clip-path="url(#clipPath_ErcJJOuG)"/>
	<defs>
		<path id="path_DyfApuwd" d="M773.31 2445.50 L773.31 2445.50 L790.14 2445.50 L790.14 2445.38 L807.10 2445.38 L807.10 2445.13 L823.93 2445.13 L823.93 2444.76 L840.88 2444.76 L840.88 2444.26 L857.71 2444.26 L857.71 2443.77 L874.54 2443.77 L874.54 2443.15 L891.50 2443.15 L891.50 2442.53 L908.33 2442.53 L908.33 2442.04 L925.28 2442.04 L925.28 2441.42 L942.11 2441.42 L942.11 2440.80 L959.06 2440.80 L959.06 2440.18 L975.89 2440.18 L975.89 2439.56 L992.72 2439.56 L992.72 2438.69 L1009.68 2438.69 L1009.68 2437.83 L1026.51 2437.83 L1026.51 2436.84 L1043.46 2436.84 L1043.46 2435.72 L1060.29 2435.72 L1060.29 2434.73 L1077.24 2434.73 L1077.24 2433.50 L1094.07 2433.50 L1094.07 2432.38 L1110.90 2432.38 L1110.90 2431.27 L1127.86 2431.27 L1127.86 2430.03 L1144.69 2430.03 L1144.69 2428.67 L1161.64 2428.67 L1161.64 2427.31 L1178.47 2427.31 L1178.47 2425.82 L1195.42 2425.82 L1195.42 2424.21 L1212.26 2424.21 L1212.26 2422.61 L1229.09 2422.61 L1229.09 2420.87 L1246.04 2420.87 L1246.04 2419.02 L1262.87 2419.02 L1262.87 2417.04 L1279.82 2417.04 L1279.82 2415.06 L1296.65 2415.06 L1296.65 2412.95 L1313.61 2412.95 L1313.61 2410.73 L1330.44 2410.73 L1330.44 2408.50 L1347.27 2408.50 L1347.27 2406.27 L1364.22 2406.27 L1364.22 2403.80 L1381.05 2403.80 L1381.05 2401.20 L1398.00 2401.20 L1398.00 2398.72 L1414.83 2398.72 L1414.83 2396.00 L1431.66 2396.00 L1431.66 2393.28 L1448.62 2393.28 L1448.62 2390.55 L1465.45 2390.55 L1465.45 2387.71 L1482.40 2387.71 L1482.40 2384.98 L1499.23 2384.98 L1499.23 2382.26 L1516.18 2382.26 L1516.18 2379.42 L1533.02 2379.42 L1533.02 2376.57 L1549.85 2376.57 L1549.85 2373.60 L1566.80 2373.60 L1566.80 2370.63 L1583.63 2370.63 L1583.63 2367.66 L1600.58 2367.66 L1600.58 2364.69 L1617.41 2364.69 L1617.41 2361.60 L1634.37 2361.60 L1634.37 2358.62 L1651.20 2358.62 L1651.20 2355.41 L1668.03 2355.41 L1668.03 2352.19 L1684.98 2352.19 L1684.98 2348.85 L1701.81 2348.85 L1701.81 2345.51 L1718.76 2345.51 L1718.76 2341.79 L1735.59 2341.79 L1735.59 2338.21 L1752.55 2338.21 L1752.55 2334.37 L1769.38 2334.37 L1769.38 2330.66 L1786.21 2330.66 L1786.21 2326.70 L1803.16 2326.70 L1803.16 2322.74 L1819.99 2322.74 L1819.99 2318.78 L1836.94 2318.78 L1836.94 2314.82 L1853.78 2314.82 L1853.78 2310.73 L1870.73 2310.73 L1870.73 2306.52 L1887.56 2306.52 L1887.56 2302.44 L1904.39 2302.44 L1904.39 2298.23 L1921.34 2298.23 L1921.34 2294.15 L1938.17 2294.15 L1938.17 2289.82 L1955.13 2289.82 L1955.13 2285.49 L1971.96 2285.49 L1971.96 2281.16 L1988.91 2281.16 L1988.91 2276.82 L2005.74 2276.82 L2005.74 2272.24 L2022.57 2272.24 L2022.57 2267.67 L2039.52 2267.67 L2039.52 2263.09 L2056.35 2263.09 L2056.35 2258.51 L2073.31 2258.51 L2073.31 2253.81 L2090.14 2253.81 L2090.14 2249.23 L2106.97 2249.23 L2106.97 2244.52 L2123.92 2244.52 L2123.92 2239.94 L2140.75 2239.94 L2140.75 2235.12 L2157.70 2235.12 L2157.70 2230.42 L2174.53 2230.42 L2174.53 2225.59 L2191.49 2225.59 L2191.49 2220.89 L2208.32 2220.89 L2208.32 2216.06 L2225.15 2216.06 L2225.15 2211.36 L2242.10 2211.36 L2242.10 2206.53 L2258.93 2206.53 L2258.93 2201.71 L2275.89 2201.71 L2275.89 2196.75 L2292.72 2196.75 L2292.72 2191.93 L2309.67 2191.93 L2309.67 2187.10 L2326.50 2187.10 L2326.50 2182.15 L2343.33 2182.15 L2343.33 2177.20 L2360.28 2177.20 L2360.28 2172.25 L2377.11 2172.25 L2377.11 2167.30 L2394.07 2167.30 L2394.07 2162.35 L2410.90 2162.35 L2410.90 2157.40 L2427.85 2157.40 L2427.85 2152.45 L2444.68 2152.45 L2444.68 2147.50 L2461.51 2147.50 L2461.51 2142.30 L2478.47 2142.30 L2478.47 2137.11 L2495.30 2137.11 L2495.30 2131.78 L2512.25 2131.78 L2512.25 2126.34 L2529.08 2126.34 L2529.08 2120.77 L2546.03 2120.77 L2546.03 2115.08 L2562.86 2115.08 L2562.86 2109.26 L2579.69 2109.26 L2579.69 2103.57 L2596.65 2103.57 L2596.65 2097.88 L2613.48 2097.88 L2613.48 2092.18 L2630.43 2092.18 L2630.43 2086.37 L2647.26 2086.37 L2647.26 2080.67 L2664.21 2080.67 L2664.21 2074.98 L2681.04 2074.98 L2681.04 2069.04 L2697.87 2069.04 L2697.87 2063.10 L2714.83 2063.10 L2714.83 2057.28 L2731.66 2057.28 L2731.66 2051.22 L2748.61 2051.22 L2748.61 2045.16 L2765.44 2045.16 L2765.44 2039.09 L2782.27 2039.09 L2782.27 2033.03 L2799.22 2033.03 L2799.22 2026.84 L2816.05 2026.84 L2816.05 2020.78 L2833.01 2020.78 L2833.01 2014.71 L2849.84 2014.71 L2849.84 2008.40 L2866.79 2008.40 L2866.79 2002.21 L2883.62 2002.21 L2883.62 1996.03 L2900.45 1996.03 L2900.45 1989.84 L2917.41 1989.84 L2917.41 1983.65 L2934.24 1983.65 L2934.24 1977.46 L2951.19 1977.46 L2951.19 1971.28 L2968.02 1971.28 L2968.02 1964.96 L2984.97 1964.96 L2984.97 1958.78 L3001.80 1958.78 L3001.80 1952.59 L3018.63 1952.59 L3018.63 1946.40 L3035.59 1946.40 L3035.59 1940.21 L3052.42 1940.21 L3052.42 1934.03 L3069.37 1934.03 L3069.37 1927.71 L3086.20 1927.71 L3086.20 1921.53 L3103.16 1921.53 L3103.16 1915.21 L3119.99 1915.21 L3119.99 1908.90 L3136.82 1908.90 L3136.82 1902.72 L3153.77 1902.72 L3153.77 1896.40 L3170.60 1896.40 L3170.60 1890.09 L3187.55 1890.09 L3187.55 1883.78 L3204.38 1883.78 L3204.38 1877.47 L3221.34 1877.47 L3221.34 1871.16 L3238.17 1871.16 L3238.17 1864.72 L3255.00 1864.72 L3255.00 1858.16 L3271.95 1858.16 L3271.95 1851.73 L3288.78 1851.73 L3288.78 1845.17 L3305.73 1845.17 L3305.73 1838.49 L3322.56 1838.49 L3322.56 1831.80 L3339.52 1831.80 L3339.52 1825.12 L3356.35 1825.12 L3356.35 1818.32 L3373.18 1818.32 L3373.18 1811.51 L3390.13 1811.51 L3390.13 1804.70 L3406.96 1804.70 L3406.96 1797.90 L3423.91 1797.90 L3423.91 1791.09 L3440.74 1791.09 L3440.74 1784.28 L3457.57 1784.28 L3457.57 1777.35 L3474.53 1777.35 L3474.53 1770.55 L3491.36 1770.55 L3491.36 1763.74 L3508.31 1763.74 L3508.31 1756.81 L3525.14 1756.81 L3525.14 1750.00 L3542.10 1750.00 L3542.10 1743.07 L3558.93 1743.07 L3558.93 1736.27 L3575.76 1736.27 L3575.76 1729.34 L3592.71 1729.34 L3592.71 1722.53 L3609.54 1722.53 L3609.54 1715.48 L3626.49 1715.48 L3626.49 1708.42 L3643.32 1708.42 L3643.32 1701.37 L3660.28 1701.37 L3660.28 1694.31 L3677.11 1694.31 L3677.11 1687.14 L3693.94 1687.14 L3693.94 1679.96 L3710.89 1679.96 L3710.89 1672.41 L3727.72 1672.41 L3727.72 1664.61 L3744.68 1664.61 L3744.68 1656.82 L3761.51 1656.82 L3761.51 1649.02 L3778.46 1649.02 L3778.46 1641.22 L3795.29 1641.22 L3795.29 1633.43 L3795.29 947.34 L3795.29 959.22 L3778.46 959.22 L3778.46 971.22 L3761.51 971.22 L3761.51 983.10 L3744.68 983.10 L3744.68 995.10 L3727.72 995.10 L3727.72 1006.99 L3710.89 1006.99 L3710.89 1018.74 L3693.94 1018.74 L3693.94 1029.63 L3677.11 1029.63 L3677.11 1040.40 L3660.28 1040.40 L3660.28 1051.29 L3643.32 1051.29 L3643.32 1062.18 L3626.49 1062.18 L3626.49 1073.07 L3609.54 1073.07 L3609.54 1083.96 L3592.71 1083.96 L3592.71 1094.73 L3575.76 1094.73 L3575.76 1105.49 L3558.93 1105.49 L3558.93 1116.26 L3542.10 1116.26 L3542.10 1127.03 L3525.14 1127.03 L3525.14 1137.79 L3508.31 1137.79 L3508.31 1148.56 L3491.36 1148.56 L3491.36 1159.33 L3474.53 1159.33 L3474.53 1170.09 L3457.57 1170.09 L3457.57 1180.86 L3440.74 1180.86 L3440.74 1191.63 L3423.91 1191.63 L3423.91 1202.52 L3406.96 1202.52 L3406.96 1213.41 L3390.13 1213.41 L3390.13 1224.30 L3373.18 1224.30 L3373.18 1235.19 L3356.35 1235.19 L3356.35 1246.08 L3339.52 1246.08 L3339.52 1256.84 L3322.56 1256.84 L3322.56 1267.49 L3305.73 1267.49 L3305.73 1278.13 L3288.78 1278.13 L3288.78 1288.53 L3271.95 1288.53 L3271.95 1298.92 L3255.00 1298.92 L3255.00 1309.19 L3238.17 1309.19 L3238.17 1319.34 L3221.34 1319.34 L3221.34 1329.61 L3204.38 1329.61 L3204.38 1339.88 L3187.55 1339.88 L3187.55 1350.28 L3170.60 1350.28 L3170.60 1360.55 L3153.77 1360.55 L3153.77 1370.95 L3136.82 1370.95 L3136.82 1381.34 L3119.99 1381.34 L3119.99 1391.61 L3103.16 1391.61 L3103.16 1402.13 L3086.20 1402.13 L3086.20 1412.53 L3069.37 1412.53 L3069.37 1423.05 L3052.42 1423.05 L3052.42 1433.56 L3035.59 1433.56 L3035.59 1444.08 L3018.63 1444.08 L3018.63 1454.60 L3001.80 1454.60 L3001.80 1465.12 L2984.97 1465.12 L2984.97 1475.52 L2968.02 1475.52 L2968.02 1486.04 L2951.19 1486.04 L2951.19 1496.56 L2934.24 1496.56 L2934.24 1507.07 L2917.41 1507.07 L2917.41 1517.59 L2900.45 1517.59 L2900.45 1528.11 L2883.62 1528.11 L2883.62 1538.63 L2866.79 1538.63 L2866.79 1549.15 L2849.84 1549.15 L2849.84 1559.55 L2833.01 1559.55 L2833.01 1569.69 L2816.05 1569.69 L2816.05 1579.97 L2799.22 1579.97 L2799.22 1590.11 L2782.27 1590.11 L2782.27 1600.39 L2765.44 1600.39 L2765.44 1610.53 L2748.61 1610.53 L2748.61 1620.80 L2731.66 1620.80 L2731.66 1631.20 L2714.83 1631.20 L2714.83 1641.22 L2697.87 1641.22 L2697.87 1651.37 L2681.04 1651.37 L2681.04 1661.40 L2664.21 1661.40 L2664.21 1671.42 L2647.26 1671.42 L2647.26 1681.32 L2630.43 1681.32 L2630.43 1691.22 L2613.48 1691.22 L2613.48 1701.12 L2596.65 1701.12 L2596.65 1711.02 L2579.69 1711.02 L2579.69 1720.92 L2562.86 1720.92 L2562.86 1730.95 L2546.03 1730.95 L2546.03 1740.85 L2529.08 1740.85 L2529.08 1750.75 L2512.25 1750.75 L2512.25 1760.52 L2495.30 1760.52 L2495.30 1769.68 L2478.47 1769.68 L2478.47 1778.59 L2461.51 1778.59 L2461.51 1787.25 L2444.68 1787.25 L2444.68 1795.79 L2427.85 1795.79 L2427.85 1804.21 L2410.90 1804.21 L2410.90 1812.62 L2394.07 1812.62 L2394.07 1821.16 L2377.11 1821.16 L2377.11 1829.58 L2360.28 1829.58 L2360.28 1837.99 L2343.33 1837.99 L2343.33 1846.41 L2326.50 1846.41 L2326.50 1854.95 L2309.67 1854.95 L2309.67 1863.61 L2292.72 1863.61 L2292.72 1872.15 L2275.89 1872.15 L2275.89 1880.69 L2258.93 1880.69 L2258.93 1889.35 L2242.10 1889.35 L2242.10 1898.01 L2225.15 1898.01 L2225.15 1906.80 L2208.32 1906.80 L2208.32 1915.59 L2191.49 1915.59 L2191.49 1924.37 L2174.53 1924.37 L2174.53 1933.16 L2157.70 1933.16 L2157.70 1941.95 L2140.75 1941.95 L2140.75 1950.61 L2123.92 1950.61 L2123.92 1959.02 L2106.97 1959.02 L2106.97 1967.56 L2090.14 1967.56 L2090.14 1975.98 L2073.31 1975.98 L2073.31 1984.52 L2056.35 1984.52 L2056.35 1993.06 L2039.52 1993.06 L2039.52 2001.72 L2022.57 2001.72 L2022.57 2010.38 L2005.74 2010.38 L2005.74 2019.04 L1988.91 2019.04 L1988.91 2027.58 L1971.96 2027.58 L1971.96 2036.12 L1955.13 2036.12 L1955.13 2044.79 L1938.17 2044.79 L1938.17 2053.57 L1921.34 2053.57 L1921.34 2062.11 L1904.39 2062.11 L1904.39 2070.65 L1887.56 2070.65 L1887.56 2079.19 L1870.73 2079.19 L1870.73 2087.73 L1853.78 2087.73 L1853.78 2096.27 L1836.94 2096.27 L1836.94 2104.68 L1819.99 2104.68 L1819.99 2113.10 L1803.16 2113.10 L1803.16 2121.39 L1786.21 2121.39 L1786.21 2129.43 L1769.38 2129.43 L1769.38 2137.60 L1752.55 2137.60 L1752.55 2145.77 L1735.59 2145.77 L1735.59 2153.81 L1718.76 2153.81 L1718.76 2161.98 L1701.81 2161.98 L1701.81 2169.53 L1684.98 2169.53 L1684.98 2176.95 L1668.03 2176.95 L1668.03 2183.88 L1651.20 2183.88 L1651.20 2190.94 L1634.37 2190.94 L1634.37 2197.62 L1617.41 2197.62 L1617.41 2204.43 L1600.58 2204.43 L1600.58 2211.36 L1583.63 2211.36 L1583.63 2218.16 L1566.80 2218.16 L1566.80 2225.22 L1549.85 2225.22 L1549.85 2232.15 L1533.02 2232.15 L1533.02 2239.20 L1516.18 2239.20 L1516.18 2246.13 L1499.23 2246.13 L1499.23 2253.06 L1482.40 2253.06 L1482.40 2259.99 L1465.45 2259.99 L1465.45 2266.92 L1448.62 2266.92 L1448.62 2273.85 L1431.66 2273.85 L1431.66 2280.91 L1414.83 2280.91 L1414.83 2287.96 L1398.00 2287.96 L1398.00 2294.77 L1381.05 2294.77 L1381.05 2301.57 L1364.22 2301.57 L1364.22 2308.01 L1347.27 2308.01 L1347.27 2314.07 L1330.44 2314.07 L1330.44 2320.26 L1313.61 2320.26 L1313.61 2326.45 L1296.65 2326.45 L1296.65 2332.76 L1279.82 2332.76 L1279.82 2338.82 L1262.87 2338.82 L1262.87 2344.52 L1246.04 2344.52 L1246.04 2350.09 L1229.09 2350.09 L1229.09 2355.78 L1212.26 2355.78 L1212.26 2361.10 L1195.42 2361.10 L1195.42 2366.30 L1178.47 2366.30 L1178.47 2371.50 L1161.64 2371.50 L1161.64 2375.95 L1144.69 2375.95 L1144.69 2380.28 L1127.86 2380.28 L1127.86 2384.12 L1110.90 2384.12 L1110.90 2387.83 L1094.07 2387.83 L1094.07 2391.67 L1077.24 2391.67 L1077.24 2395.50 L1060.29 2395.50 L1060.29 2399.09 L1043.46 2399.09 L1043.46 2402.56 L1026.51 2402.56 L1026.51 2405.78 L1009.68 2405.78 L1009.68 2408.99 L992.72 2408.99 L992.72 2411.84 L975.89 2411.84 L975.89 2414.07 L959.06 2414.07 L959.06 2416.29 L942.11 2416.29 L942.11 2418.77 L925.28 2418.77 L925.28 2421.49 L908.33 2421.49 L908.33 2424.09 L891.50 2424.09 L891.50 2426.57 L874.54 2426.57 L874.54 2429.04 L857.71 2429.04 L857.71 2431.52 L840.88 2431.52 L840.88 2433.62 L823.93 2433.62 L823.93 2435.35 L807.10 2435.35 L807.10 2435.97 L790.14 2435.97 L790.14 2435.48 L773.31 2435.48 L773.31 2445.50 Z" stroke-linejoin="round"/>
	</defs>
	<defs>
		<clipPath id="clipPath_VgRbFrSK">
			<use xlink:href="#path_DyfApuwd"/>
		</clipPath>
	</defs>
	<use xlink:href="#path_DyfApuwd" style="stroke:none;fill:#333333;fill-opacity:0.35"/>
	<use xlink:href="#path_DyfApuwd" style="fill:none;stroke:#000000;stroke-opacity:0.35;stroke-width:17.28" clip-path="url(#clipPath_VgRbFrSK)"/>
	<line x1="773.19" y1="2444.14" x2="790.14" y2="2444.14" style="stroke:#808080;stroke-width:8.64"/>
	<line x1="790.14" y1="2444.14" x2="790.14" y2="2443.27" style="stroke:#808080;stroke-width:8.64"/>
	<line x1="790.14" y1="2443.27" x2="806.97" y2="2443.27" style="stroke:#808080;stroke-width:8.64"/>
	<line x1="806.97" y1="2443.27" x2="806.97" y2="2442.41" style="stroke:#808080;stroke-width:8.64"/>
	<line x1="806.97" y1="2442.41" x2="811.80" y2="2442.41" style="stroke:#808080;stroke-width:8.64"/>
	<line x1="828.01" y1="2441.42" x2="840.76" y2="2441.42" style="stroke:#808080;stroke-width:8.64"/>
	<line x1="840.76" y1="2441.42" x2="840.76" y2="2440.18" style="stroke:#808080;stroke-width:8.64"/>
	<line x1="840.76" y1="2440.18" x2="857.71" y2="2440.18" style="stroke:#808080;stroke-width:8.64"/>
	<line x1="857.71" y1="2440.18" x2="857.71" y2="2438.82" style="stroke:#808080;stroke-width:8.64"/>
	<line x1="857.71" y1="2438.82" x2="865.75" y2="2438.82" style="stroke:#808080;stroke-width:8.64"/>
	<line x1="881.47" y1="2437.33" x2="891.37" y2="2437.33" style="stroke:#808080;stroke-width:8.64"/>
	<line x1="891.37" y1="2437.33" x2="891.37" y2="2435.85" style="stroke:#808080;stroke-width:8.64"/>
	<line x1="891.37" y1="2435.85" x2="908.33" y2="2435.85" style="stroke:#808080;stroke-width:8.64"/>
	<line x1="908.33" y1="2435.85" x2="908.33" y2="2434.11" style="stroke:#808080;stroke-width:8.64"/>
	<line x1="908.33" y1="2434.11" x2="918.60" y2="2434.11" style="stroke:#808080;stroke-width:8.64"/>
	<line x1="934.19" y1="2432.38" x2="942.11" y2="2432.38" style="stroke:#808080;stroke-width:8.64"/>
	<line x1="942.11" y1="2432.38" x2="942.11" y2="2430.53" style="stroke:#808080;stroke-width:8.64"/>
	<line x1="942.11" y1="2430.53" x2="958.94" y2="2430.53" style="stroke:#808080;stroke-width:8.64"/>
	<line x1="958.94" y1="2430.53" x2="958.94" y2="2428.79" style="stroke:#808080;stroke-width:8.64"/>
	<line x1="958.94" y1="2428.79" x2="970.82" y2="2428.79" style="stroke:#808080;stroke-width:8.64"/>
	<line x1="986.16" y1="2426.81" x2="992.72" y2="2426.81" style="stroke:#808080;stroke-width:8.64"/>
	<line x1="992.72" y1="2426.81" x2="992.72" y2="2424.59" style="stroke:#808080;stroke-width:8.64"/>
	<line x1="992.72" y1="2424.59" x2="1009.55" y2="2424.59" style="stroke:#808080;stroke-width:8.64"/>
	<line x1="1009.55" y1="2424.59" x2="1009.55" y2="2422.23" style="stroke:#808080;stroke-width:8.64"/>
	<line x1="1009.55" y1="2422.23" x2="1021.80" y2="2422.23" style="stroke:#808080;stroke-width:8.64"/>
	<line x1="1036.90" y1="2420.01" x2="1043.34" y2="2420.01" style="stroke:#808080;stroke-width:8.64"/>
	<line x1="1043.34" y1="2420.01" x2="1043.34" y2="2417.66" style="stroke:#808080;stroke-width:8.64"/>
	<line x1="1043.34" y1="2417.66" x2="1060.29" y2="2417.66" style="stroke:#808080;stroke-width:8.64"/>
	<line x1="1060.29" y1="2417.66" x2="1060.29" y2="2415.18" style="stroke:#808080;stroke-width:8.64"/>
	<line x1="1060.29" y1="2415.18" x2="1072.42" y2="2415.18" style="stroke:#808080;stroke-width:8.64"/>
	<line x1="1086.77" y1="2412.33" x2="1093.95" y2="2412.33" style="stroke:#808080;stroke-width:8.64"/>
	<line x1="1093.95" y1="2412.33" x2="1093.95" y2="2409.49" style="stroke:#808080;stroke-width:8.64"/>
	<line x1="1093.95" y1="2409.49" x2="1110.90" y2="2409.49" style="stroke:#808080;stroke-width:8.64"/>
	<line x1="1110.90" y1="2409.49" x2="1110.90" y2="2406.52" style="stroke:#808080;stroke-width:8.64"/>
	<line x1="1110.90" y1="2406.52" x2="1121.30" y2="2406.52" style="stroke:#808080;stroke-width:8.64"/>
	<line x1="1135.53" y1="2403.42" x2="1144.69" y2="2403.42" style="stroke:#808080;stroke-width:8.64"/>
	<line x1="1144.69" y1="2403.42" x2="1144.69" y2="2400.21" style="stroke:#808080;stroke-width:8.64"/>
	<line x1="1144.69" y1="2400.21" x2="1161.52" y2="2400.21" style="stroke:#808080;stroke-width:8.64"/>
	<line x1="1161.52" y1="2400.21" x2="1161.52" y2="2396.86" style="stroke:#808080;stroke-width:8.64"/>
	<line x1="1161.52" y1="2396.86" x2="1169.19" y2="2396.86" style="stroke:#808080;stroke-width:8.64"/>
	<line x1="1183.17" y1="2393.52" x2="1195.30" y2="2393.52" style="stroke:#808080;stroke-width:8.64"/>
	<line x1="1195.30" y1="2393.52" x2="1195.30" y2="2390.06" style="stroke:#808080;stroke-width:8.64"/>
	<line x1="1195.30" y1="2390.06" x2="1212.13" y2="2390.06" style="stroke:#808080;stroke-width:8.64"/>
	<line x1="1212.13" y1="2390.06" x2="1212.13" y2="2386.59" style="stroke:#808080;stroke-width:8.64"/>
	<line x1="1212.13" y1="2386.59" x2="1216.46" y2="2386.59" style="stroke:#808080;stroke-width:8.64"/>
	<line x1="1230.20" y1="2383.00" x2="1245.91" y2="2383.00" style="stroke:#808080;stroke-width:8.64"/>
	<line x1="1245.91" y1="2383.00" x2="1245.91" y2="2379.29" style="stroke:#808080;stroke-width:8.64"/>
	<line x1="1245.91" y1="2379.29" x2="1262.87" y2="2379.29" style="stroke:#808080;stroke-width:8.64"/>
	<line x1="1262.87" y1="2379.29" x2="1262.87" y2="2375.33" style="stroke:#808080;stroke-width:8.64"/>
	<line x1="1279.70" y1="2374.96" x2="1279.70" y2="2371.12" style="stroke:#808080;stroke-width:8.64"/>
	<line x1="1279.70" y1="2371.12" x2="1296.65" y2="2371.12" style="stroke:#808080;stroke-width:8.64"/>
	<line x1="1296.65" y1="2371.12" x2="1296.65" y2="2366.67" style="stroke:#808080;stroke-width:8.64"/>
	<line x1="1296.65" y1="2366.67" x2="1311.75" y2="2366.67" style="stroke:#808080;stroke-width:8.64"/>
	<line x1="1324.62" y1="2362.34" x2="1330.31" y2="2362.34" style="stroke:#808080;stroke-width:8.64"/>
	<line x1="1330.31" y1="2362.34" x2="1330.31" y2="2357.88" style="stroke:#808080;stroke-width:8.64"/>
	<line x1="1330.31" y1="2357.88" x2="1347.27" y2="2357.88" style="stroke:#808080;stroke-width:8.64"/>
	<line x1="1347.27" y1="2357.88" x2="1347.27" y2="2353.55" style="stroke:#808080;stroke-width:8.64"/>
	<line x1="1347.27" y1="2353.55" x2="1356.18" y2="2353.55" style="stroke:#808080;stroke-width:8.64"/>
	<line x1="1368.92" y1="2348.97" x2="1381.05" y2="2348.97" style="stroke:#808080;stroke-width:8.64"/>
	<line x1="1381.05" y1="2348.97" x2="1381.05" y2="2344.27" style="stroke:#808080;stroke-width:8.64"/>
	<line x1="1381.05" y1="2344.27" x2="1397.88" y2="2344.27" style="stroke:#808080;stroke-width:8.64"/>
	<line x1="1397.88" y1="2344.27" x2="1397.88" y2="2339.57" style="stroke:#808080;stroke-width:8.64"/>
	<line x1="1397.88" y1="2339.57" x2="1399.86" y2="2339.57" style="stroke:#808080;stroke-width:8.64"/>
	<line x1="1414.83" y1="2337.34" x2="1414.83" y2="2334.74" style="stroke:#808080;stroke-width:8.64"/>
	<line x1="1414.83" y1="2334.74" x2="1431.66" y2="2334.74" style="stroke:#808080;stroke-width:8.64"/>
	<line x1="1431.66" y1="2334.74" x2="1431.66" y2="2330.04" style="stroke:#808080;stroke-width:8.64"/>
	<line x1="1431.66" y1="2330.04" x2="1447.88" y2="2330.04" style="stroke:#808080;stroke-width:8.64"/>
	<line x1="1460.13" y1="2325.09" x2="1465.45" y2="2325.09" style="stroke:#808080;stroke-width:8.64"/>
	<line x1="1465.45" y1="2325.09" x2="1465.45" y2="2320.14" style="stroke:#808080;stroke-width:8.64"/>
	<line x1="1465.45" y1="2320.14" x2="1482.28" y2="2320.14" style="stroke:#808080;stroke-width:8.64"/>
	<line x1="1482.28" y1="2320.14" x2="1482.28" y2="2315.19" style="stroke:#808080;stroke-width:8.64"/>
	<line x1="1482.28" y1="2315.19" x2="1490.57" y2="2315.19" style="stroke:#808080;stroke-width:8.64"/>
	<line x1="1502.82" y1="2310.24" x2="1516.06" y2="2310.24" style="stroke:#808080;stroke-width:8.64"/>
	<line x1="1516.06" y1="2310.24" x2="1516.06" y2="2305.29" style="stroke:#808080;stroke-width:8.64"/>
	<line x1="1516.06" y1="2305.29" x2="1533.02" y2="2305.29" style="stroke:#808080;stroke-width:8.64"/>
	<line x1="1533.02" y1="2305.29" x2="1533.02" y2="2300.34" style="stroke:#808080;stroke-width:8.64"/>
	<line x1="1533.02" y1="2300.34" x2="1533.26" y2="2300.34" style="stroke:#808080;stroke-width:8.64"/>
	<line x1="1549.85" y1="2299.59" x2="1549.85" y2="2295.39" style="stroke:#808080;stroke-width:8.64"/>
	<line x1="1549.85" y1="2295.39" x2="1566.67" y2="2295.39" style="stroke:#808080;stroke-width:8.64"/>
	<line x1="1566.67" y1="2295.39" x2="1566.67" y2="2290.56" style="stroke:#808080;stroke-width:8.64"/>
	<line x1="1566.67" y1="2290.56" x2="1581.03" y2="2290.56" style="stroke:#808080;stroke-width:8.64"/>
	<line x1="1593.28" y1="2285.49" x2="1600.46" y2="2285.49" style="stroke:#808080;stroke-width:8.64"/>
	<line x1="1600.46" y1="2285.49" x2="1600.46" y2="2280.41" style="stroke:#808080;stroke-width:8.64"/>
	<line x1="1600.46" y1="2280.41" x2="1617.41" y2="2280.41" style="stroke:#808080;stroke-width:8.64"/>
	<line x1="1617.41" y1="2280.41" x2="1617.41" y2="2275.21" style="stroke:#808080;stroke-width:8.64"/>
	<line x1="1617.41" y1="2275.21" x2="1623.35" y2="2275.21" style="stroke:#808080;stroke-width:8.64"/>
	<line x1="1635.48" y1="2270.14" x2="1651.20" y2="2270.14" style="stroke:#808080;stroke-width:8.64"/>
	<line x1="1651.20" y1="2270.14" x2="1651.20" y2="2265.07" style="stroke:#808080;stroke-width:8.64"/>
	<line x1="1651.20" y1="2265.07" x2="1668.03" y2="2265.07" style="stroke:#808080;stroke-width:8.64"/>
	<line x1="1668.03" y1="2265.07" x2="1668.03" y2="2262.34" style="stroke:#808080;stroke-width:8.64"/>
	<line x1="1682.75" y1="2259.87" x2="1684.86" y2="2259.87" style="stroke:#808080;stroke-width:8.64"/>
	<line x1="1684.86" y1="2259.87" x2="1684.86" y2="2254.80" style="stroke:#808080;stroke-width:8.64"/>
	<line x1="1684.86" y1="2254.80" x2="1701.81" y2="2254.80" style="stroke:#808080;stroke-width:8.64"/>
	<line x1="1701.81" y1="2254.80" x2="1701.81" y2="2249.72" style="stroke:#808080;stroke-width:8.64"/>
	<line x1="1701.81" y1="2249.72" x2="1712.95" y2="2249.72" style="stroke:#808080;stroke-width:8.64"/>
	<line x1="1725.08" y1="2244.52" x2="1735.59" y2="2244.52" style="stroke:#808080;stroke-width:8.64"/>
	<line x1="1735.59" y1="2244.52" x2="1735.59" y2="2239.45" style="stroke:#808080;stroke-width:8.64"/>
	<line x1="1735.59" y1="2239.45" x2="1752.42" y2="2239.45" style="stroke:#808080;stroke-width:8.64"/>
	<line x1="1752.42" y1="2239.45" x2="1752.42" y2="2234.38" style="stroke:#808080;stroke-width:8.64"/>
	<line x1="1752.42" y1="2234.38" x2="1755.15" y2="2234.38" style="stroke:#808080;stroke-width:8.64"/>
	<line x1="1769.25" y1="2231.16" x2="1769.25" y2="2229.30" style="stroke:#808080;stroke-width:8.64"/>
	<line x1="1769.25" y1="2229.30" x2="1786.21" y2="2229.30" style="stroke:#808080;stroke-width:8.64"/>
	<line x1="1786.21" y1="2229.30" x2="1786.21" y2="2224.10" style="stroke:#808080;stroke-width:8.64"/>
	<line x1="1786.21" y1="2224.10" x2="1802.42" y2="2224.10" style="stroke:#808080;stroke-width:8.64"/>
	<line x1="1814.67" y1="2219.03" x2="1819.99" y2="2219.03" style="stroke:#808080;stroke-width:8.64"/>
	<line x1="1819.99" y1="2219.03" x2="1819.99" y2="2213.96" style="stroke:#808080;stroke-width:8.64"/>
	<line x1="1819.99" y1="2213.96" x2="1836.82" y2="2213.96" style="stroke:#808080;stroke-width:8.64"/>
	<line x1="1836.82" y1="2213.96" x2="1836.82" y2="2208.76" style="stroke:#808080;stroke-width:8.64"/>
	<line x1="1836.82" y1="2208.76" x2="1844.74" y2="2208.76" style="stroke:#808080;stroke-width:8.64"/>
	<line x1="1856.87" y1="2203.69" x2="1870.61" y2="2203.69" style="stroke:#808080;stroke-width:8.64"/>
	<line x1="1870.61" y1="2203.69" x2="1870.61" y2="2198.61" style="stroke:#808080;stroke-width:8.64"/>
	<line x1="1870.61" y1="2198.61" x2="1887.43" y2="2198.61" style="stroke:#808080;stroke-width:8.64"/>
	<line x1="1887.43" y1="2198.61" x2="1887.43" y2="2193.91" style="stroke:#808080;stroke-width:8.64"/>
	<line x1="1904.27" y1="2193.41" x2="1904.39" y2="2193.41" style="stroke:#808080;stroke-width:8.64"/>
	<line x1="1904.39" y1="2193.41" x2="1904.39" y2="2188.09" style="stroke:#808080;stroke-width:8.64"/>
	<line x1="1904.39" y1="2188.09" x2="1921.22" y2="2188.09" style="stroke:#808080;stroke-width:8.64"/>
	<line x1="1921.22" y1="2188.09" x2="1921.22" y2="2182.77" style="stroke:#808080;stroke-width:8.64"/>
	<line x1="1921.22" y1="2182.77" x2="1933.84" y2="2182.77" style="stroke:#808080;stroke-width:8.64"/>
	<line x1="1945.85" y1="2177.45" x2="1955.00" y2="2177.45" style="stroke:#808080;stroke-width:8.64"/>
	<line x1="1955.00" y1="2177.45" x2="1955.00" y2="2172.25" style="stroke:#808080;stroke-width:8.64"/>
	<line x1="1955.00" y1="2172.25" x2="1971.96" y2="2172.25" style="stroke:#808080;stroke-width:8.64"/>
	<line x1="1971.96" y1="2172.25" x2="1971.96" y2="2166.93" style="stroke:#808080;stroke-width:8.64"/>
	<line x1="1971.96" y1="2166.93" x2="1975.67" y2="2166.93" style="stroke:#808080;stroke-width:8.64"/>
	<line x1="1988.79" y1="2162.85" x2="1988.79" y2="2161.61" style="stroke:#808080;stroke-width:8.64"/>
	<line x1="1988.79" y1="2161.61" x2="2005.62" y2="2161.61" style="stroke:#808080;stroke-width:8.64"/>
	<line x1="2005.62" y1="2161.61" x2="2005.62" y2="2156.04" style="stroke:#808080;stroke-width:8.64"/>
	<line x1="2005.62" y1="2156.04" x2="2022.32" y2="2156.04" style="stroke:#808080;stroke-width:8.64"/>
	<line x1="2033.83" y1="2150.35" x2="2039.40" y2="2150.35" style="stroke:#808080;stroke-width:8.64"/>
	<line x1="2039.40" y1="2150.35" x2="2039.40" y2="2144.65" style="stroke:#808080;stroke-width:8.64"/>
	<line x1="2039.40" y1="2144.65" x2="2056.35" y2="2144.65" style="stroke:#808080;stroke-width:8.64"/>
	<line x1="2056.35" y1="2144.65" x2="2056.35" y2="2138.84" style="stroke:#808080;stroke-width:8.64"/>
	<line x1="2056.35" y1="2138.84" x2="2062.66" y2="2138.84" style="stroke:#808080;stroke-width:8.64"/>
	<line x1="2073.93" y1="2132.90" x2="2090.14" y2="2132.90" style="stroke:#808080;stroke-width:8.64"/>
	<line x1="2090.14" y1="2132.90" x2="2090.14" y2="2126.71" style="stroke:#808080;stroke-width:8.64"/>
	<line x1="2090.14" y1="2126.71" x2="2106.97" y2="2126.71" style="stroke:#808080;stroke-width:8.64"/>
	<line x1="2106.97" y1="2126.71" x2="2106.97" y2="2125.60" style="stroke:#808080;stroke-width:8.64"/>
	<line x1="2118.85" y1="2120.28" x2="2123.80" y2="2120.28" style="stroke:#808080;stroke-width:8.64"/>
	<line x1="2123.80" y1="2120.28" x2="2123.80" y2="2113.72" style="stroke:#808080;stroke-width:8.64"/>
	<line x1="2123.80" y1="2113.72" x2="2140.75" y2="2113.72" style="stroke:#808080;stroke-width:8.64"/>
	<line x1="2140.75" y1="2113.72" x2="2140.75" y2="2107.16" style="stroke:#808080;stroke-width:8.64"/>
	<line x1="2140.75" y1="2107.16" x2="2146.20" y2="2107.16" style="stroke:#808080;stroke-width:8.64"/>
	<line x1="2157.58" y1="2101.34" x2="2157.58" y2="2100.72" style="stroke:#808080;stroke-width:8.64"/>
	<line x1="2157.58" y1="2100.72" x2="2174.53" y2="2100.72" style="stroke:#808080;stroke-width:8.64"/>
	<line x1="2174.53" y1="2100.72" x2="2174.53" y2="2094.16" style="stroke:#808080;stroke-width:8.64"/>
	<line x1="2174.53" y1="2094.16" x2="2190.75" y2="2094.16" style="stroke:#808080;stroke-width:8.64"/>
	<line x1="2201.26" y1="2087.48" x2="2208.32" y2="2087.48" style="stroke:#808080;stroke-width:8.64"/>
	<line x1="2208.32" y1="2087.48" x2="2208.32" y2="2080.80" style="stroke:#808080;stroke-width:8.64"/>
	<line x1="2208.32" y1="2080.80" x2="2225.15" y2="2080.80" style="stroke:#808080;stroke-width:8.64"/>
	<line x1="2225.15" y1="2080.80" x2="2225.15" y2="2073.87" style="stroke:#808080;stroke-width:8.64"/>
	<line x1="2225.15" y1="2073.87" x2="2227.99" y2="2073.87" style="stroke:#808080;stroke-width:8.64"/>
	<line x1="2241.98" y1="2070.65" x2="2241.98" y2="2066.94" style="stroke:#808080;stroke-width:8.64"/>
	<line x1="2241.98" y1="2066.94" x2="2258.93" y2="2066.94" style="stroke:#808080;stroke-width:8.64"/>
	<line x1="2258.93" y1="2066.94" x2="2258.93" y2="2059.88" style="stroke:#808080;stroke-width:8.64"/>
	<line x1="2258.93" y1="2059.88" x2="2271.55" y2="2059.88" style="stroke:#808080;stroke-width:8.64"/>
	<line x1="2281.58" y1="2052.71" x2="2292.72" y2="2052.71" style="stroke:#808080;stroke-width:8.64"/>
	<line x1="2292.72" y1="2052.71" x2="2292.72" y2="2045.53" style="stroke:#808080;stroke-width:8.64"/>
	<line x1="2292.72" y1="2045.53" x2="2309.55" y2="2045.53" style="stroke:#808080;stroke-width:8.64"/>
	<line x1="2309.55" y1="2045.53" x2="2309.55" y2="2040.33" style="stroke:#808080;stroke-width:8.64"/>
	<line x1="2324.77" y1="2038.35" x2="2326.50" y2="2038.35" style="stroke:#808080;stroke-width:8.64"/>
	<line x1="2326.50" y1="2038.35" x2="2326.50" y2="2031.05" style="stroke:#808080;stroke-width:8.64"/>
	<line x1="2326.50" y1="2031.05" x2="2343.33" y2="2031.05" style="stroke:#808080;stroke-width:8.64"/>
	<line x1="2343.33" y1="2031.05" x2="2343.33" y2="2023.87" style="stroke:#808080;stroke-width:8.64"/>
	<line x1="2343.33" y1="2023.87" x2="2350.76" y2="2023.87" style="stroke:#808080;stroke-width:8.64"/>
	<line x1="2360.66" y1="2016.57" x2="2377.11" y2="2016.57" style="stroke:#808080;stroke-width:8.64"/>
	<line x1="2377.11" y1="2016.57" x2="2377.11" y2="2009.39" style="stroke:#808080;stroke-width:8.64"/>
	<line x1="2377.11" y1="2009.39" x2="2393.82" y2="2009.39" style="stroke:#808080;stroke-width:8.64"/>
	<line x1="2403.72" y1="2002.09" x2="2410.90" y2="2002.09" style="stroke:#808080;stroke-width:8.64"/>
	<line x1="2410.90" y1="2002.09" x2="2410.90" y2="1994.66" style="stroke:#808080;stroke-width:8.64"/>
	<line x1="2410.90" y1="1994.66" x2="2427.73" y2="1994.66" style="stroke:#808080;stroke-width:8.64"/>
	<line x1="2427.73" y1="1994.66" x2="2427.73" y2="1986.99" style="stroke:#808080;stroke-width:8.64"/>
	<line x1="2427.73" y1="1986.99" x2="2428.97" y2="1986.99" style="stroke:#808080;stroke-width:8.64"/>
	<line x1="2444.56" y1="1985.26" x2="2444.56" y2="1979.20" style="stroke:#808080;stroke-width:8.64"/>
	<line x1="2444.56" y1="1979.20" x2="2461.51" y2="1979.20" style="stroke:#808080;stroke-width:8.64"/>
	<line x1="2461.51" y1="1979.20" x2="2461.51" y2="1971.40" style="stroke:#808080;stroke-width:8.64"/>
	<line x1="2461.51" y1="1971.40" x2="2471.04" y2="1971.40" style="stroke:#808080;stroke-width:8.64"/>
	<line x1="2480.32" y1="1963.48" x2="2495.30" y2="1963.48" style="stroke:#808080;stroke-width:8.64"/>
	<line x1="2495.30" y1="1963.48" x2="2495.30" y2="1955.43" style="stroke:#808080;stroke-width:8.64"/>
	<line x1="2495.30" y1="1955.43" x2="2512.13" y2="1955.43" style="stroke:#808080;stroke-width:8.64"/>
	<line x1="2512.13" y1="1955.43" x2="2512.13" y2="1954.94" style="stroke:#808080;stroke-width:8.64"/>
	<line x1="2521.78" y1="1947.39" x2="2529.08" y2="1947.39" style="stroke:#808080;stroke-width:8.64"/>
	<line x1="2529.08" y1="1947.39" x2="2529.08" y2="1939.22" style="stroke:#808080;stroke-width:8.64"/>
	<line x1="2529.08" y1="1939.22" x2="2545.91" y2="1939.22" style="stroke:#808080;stroke-width:8.64"/>
	<line x1="2545.91" y1="1939.22" x2="2545.91" y2="1931.18" style="stroke:#808080;stroke-width:8.64"/>
	<line x1="2562.74" y1="1930.81" x2="2562.74" y2="1922.76" style="stroke:#808080;stroke-width:8.64"/>
	<line x1="2562.74" y1="1922.76" x2="2579.69" y2="1922.76" style="stroke:#808080;stroke-width:8.64"/>
	<line x1="2579.69" y1="1922.76" x2="2579.69" y2="1914.47" style="stroke:#808080;stroke-width:8.64"/>
	<line x1="2579.69" y1="1914.47" x2="2586.75" y2="1914.47" style="stroke:#808080;stroke-width:8.64"/>
	<line x1="2596.52" y1="1907.05" x2="2596.52" y2="1906.18" style="stroke:#808080;stroke-width:8.64"/>
	<line x1="2596.52" y1="1906.18" x2="2613.48" y2="1906.18" style="stroke:#808080;stroke-width:8.64"/>
	<line x1="2613.48" y1="1906.18" x2="2613.48" y2="1897.89" style="stroke:#808080;stroke-width:8.64"/>
	<line x1="2613.48" y1="1897.89" x2="2627.71" y2="1897.89" style="stroke:#808080;stroke-width:8.64"/>
	<line x1="2636.74" y1="1889.60" x2="2647.26" y2="1889.60" style="stroke:#808080;stroke-width:8.64"/>
	<line x1="2647.26" y1="1889.60" x2="2647.26" y2="1881.31" style="stroke:#808080;stroke-width:8.64"/>
	<line x1="2647.26" y1="1881.31" x2="2664.09" y2="1881.31" style="stroke:#808080;stroke-width:8.64"/>
	<line x1="2664.09" y1="1881.31" x2="2664.09" y2="1876.73" style="stroke:#808080;stroke-width:8.64"/>
	<line x1="2677.70" y1="1873.01" x2="2680.92" y2="1873.01" style="stroke:#808080;stroke-width:8.64"/>
	<line x1="2680.92" y1="1873.01" x2="2680.92" y2="1864.72" style="stroke:#808080;stroke-width:8.64"/>
	<line x1="2680.92" y1="1864.72" x2="2697.87" y2="1864.72" style="stroke:#808080;stroke-width:8.64"/>
	<line x1="2697.87" y1="1864.72" x2="2697.87" y2="1856.43" style="stroke:#808080;stroke-width:8.64"/>
	<line x1="2697.87" y1="1856.43" x2="2701.46" y2="1856.43" style="stroke:#808080;stroke-width:8.64"/>
	<line x1="2714.70" y1="1852.47" x2="2714.70" y2="1848.14" style="stroke:#808080;stroke-width:8.64"/>
	<line x1="2714.70" y1="1848.14" x2="2731.66" y2="1848.14" style="stroke:#808080;stroke-width:8.64"/>
	<line x1="2731.66" y1="1848.14" x2="2731.66" y2="1839.85" style="stroke:#808080;stroke-width:8.64"/>
	<line x1="2731.66" y1="1839.85" x2="2742.42" y2="1839.85" style="stroke:#808080;stroke-width:8.64"/>
	<line x1="2751.33" y1="1831.56" x2="2765.44" y2="1831.56" style="stroke:#808080;stroke-width:8.64"/>
	<line x1="2765.44" y1="1831.56" x2="2765.44" y2="1823.27" style="stroke:#808080;stroke-width:8.64"/>
	<line x1="2765.44" y1="1823.27" x2="2782.27" y2="1823.27" style="stroke:#808080;stroke-width:8.64"/>
	<line x1="2782.27" y1="1823.27" x2="2782.27" y2="1822.15" style="stroke:#808080;stroke-width:8.64"/>
	<line x1="2792.30" y1="1814.97" x2="2799.10" y2="1814.97" style="stroke:#808080;stroke-width:8.64"/>
	<line x1="2799.10" y1="1814.97" x2="2799.10" y2="1806.56" style="stroke:#808080;stroke-width:8.64"/>
	<line x1="2799.10" y1="1806.56" x2="2816.05" y2="1806.56" style="stroke:#808080;stroke-width:8.64"/>
	<line x1="2816.05" y1="1806.56" x2="2816.05" y2="1798.39" style="stroke:#808080;stroke-width:8.64"/>
	<line x1="2832.89" y1="1797.90" x2="2832.89" y2="1789.60" style="stroke:#808080;stroke-width:8.64"/>
	<line x1="2832.89" y1="1789.60" x2="2849.84" y2="1789.60" style="stroke:#808080;stroke-width:8.64"/>
	<line x1="2849.84" y1="1789.60" x2="2849.84" y2="1781.19" style="stroke:#808080;stroke-width:8.64"/>
	<line x1="2849.84" y1="1781.19" x2="2856.52" y2="1781.19" style="stroke:#808080;stroke-width:8.64"/>
	<line x1="2866.67" y1="1774.14" x2="2866.67" y2="1772.77" style="stroke:#808080;stroke-width:8.64"/>
	<line x1="2866.67" y1="1772.77" x2="2883.62" y2="1772.77" style="stroke:#808080;stroke-width:8.64"/>
	<line x1="2883.62" y1="1772.77" x2="2883.62" y2="1764.24" style="stroke:#808080;stroke-width:8.64"/>
	<line x1="2883.62" y1="1764.24" x2="2897.11" y2="1764.24" style="stroke:#808080;stroke-width:8.64"/>
	<line x1="2905.90" y1="1755.82" x2="2917.28" y2="1755.82" style="stroke:#808080;stroke-width:8.64"/>
	<line x1="2917.28" y1="1755.82" x2="2917.28" y2="1747.03" style="stroke:#808080;stroke-width:8.64"/>
	<line x1="2917.28" y1="1747.03" x2="2934.24" y2="1747.03" style="stroke:#808080;stroke-width:8.64"/>
	<line x1="2934.24" y1="1747.03" x2="2934.24" y2="1743.82" style="stroke:#808080;stroke-width:8.64"/>
	<line x1="2945.99" y1="1738.25" x2="2951.07" y2="1738.25" style="stroke:#808080;stroke-width:8.64"/>
	<line x1="2951.07" y1="1738.25" x2="2951.07" y2="1729.46" style="stroke:#808080;stroke-width:8.64"/>
	<line x1="2951.07" y1="1729.46" x2="2968.02" y2="1729.46" style="stroke:#808080;stroke-width:8.64"/>
	<line x1="2968.02" y1="1729.46" x2="2968.02" y2="1720.67" style="stroke:#808080;stroke-width:8.64"/>
	<line x1="2968.02" y1="1720.67" x2="2968.64" y2="1720.67" style="stroke:#808080;stroke-width:8.64"/>
	<line x1="2984.85" y1="1719.68" x2="2984.85" y2="1711.89" style="stroke:#808080;stroke-width:8.64"/>
	<line x1="2984.85" y1="1711.89" x2="3001.80" y2="1711.89" style="stroke:#808080;stroke-width:8.64"/>
	<line x1="3001.80" y1="1711.89" x2="3001.80" y2="1702.98" style="stroke:#808080;stroke-width:8.64"/>
	<line x1="3001.80" y1="1702.98" x2="3008.61" y2="1702.98" style="stroke:#808080;stroke-width:8.64"/>
	<line x1="3018.63" y1="1695.80" x2="3018.63" y2="1694.19" style="stroke:#808080;stroke-width:8.64"/>
	<line x1="3018.63" y1="1694.19" x2="3035.46" y2="1694.19" style="stroke:#808080;stroke-width:8.64"/>
	<line x1="3035.46" y1="1694.19" x2="3035.46" y2="1685.40" style="stroke:#808080;stroke-width:8.64"/>
	<line x1="3035.46" y1="1685.40" x2="3048.58" y2="1685.40" style="stroke:#808080;stroke-width:8.64"/>
	<line x1="3056.75" y1="1676.37" x2="3069.25" y2="1676.37" style="stroke:#808080;stroke-width:8.64"/>
	<line x1="3069.25" y1="1676.37" x2="3069.25" y2="1667.46" style="stroke:#808080;stroke-width:8.64"/>
	<line x1="3069.25" y1="1667.46" x2="3086.20" y2="1667.46" style="stroke:#808080;stroke-width:8.64"/>
	<line x1="3086.20" y1="1667.46" x2="3086.20" y2="1665.48" style="stroke:#808080;stroke-width:8.64"/>
	<line x1="3096.47" y1="1658.43" x2="3103.03" y2="1658.43" style="stroke:#808080;stroke-width:8.64"/>
	<line x1="3103.03" y1="1658.43" x2="3103.03" y2="1649.39" style="stroke:#808080;stroke-width:8.64"/>
	<line x1="3103.03" y1="1649.39" x2="3119.86" y2="1649.39" style="stroke:#808080;stroke-width:8.64"/>
	<line x1="3119.86" y1="1649.39" x2="3119.86" y2="1641.60" style="stroke:#808080;stroke-width:8.64"/>
	<line x1="3136.07" y1="1640.48" x2="3136.82" y2="1640.48" style="stroke:#808080;stroke-width:8.64"/>
	<line x1="3136.82" y1="1640.48" x2="3136.82" y2="1631.32" style="stroke:#808080;stroke-width:8.64"/>
	<line x1="3136.82" y1="1631.32" x2="3153.64" y2="1631.32" style="stroke:#808080;stroke-width:8.64"/>
	<line x1="3153.64" y1="1631.32" x2="3153.64" y2="1622.17" style="stroke:#808080;stroke-width:8.64"/>
	<line x1="3153.64" y1="1622.17" x2="3157.98" y2="1622.17" style="stroke:#808080;stroke-width:8.64"/>
	<line x1="3170.60" y1="1617.46" x2="3170.60" y2="1612.76" style="stroke:#808080;stroke-width:8.64"/>
	<line x1="3170.60" y1="1612.76" x2="3187.43" y2="1612.76" style="stroke:#808080;stroke-width:8.64"/>
	<line x1="3187.43" y1="1612.76" x2="3187.43" y2="1603.48" style="stroke:#808080;stroke-width:8.64"/>
	<line x1="3187.43" y1="1603.48" x2="3196.96" y2="1603.48" style="stroke:#808080;stroke-width:8.64"/>
	<line x1="3204.88" y1="1594.20" x2="3221.21" y2="1594.20" style="stroke:#808080;stroke-width:8.64"/>
	<line x1="3221.21" y1="1594.20" x2="3221.21" y2="1584.79" style="stroke:#808080;stroke-width:8.64"/>
	<line x1="3221.21" y1="1584.79" x2="3235.82" y2="1584.79" style="stroke:#808080;stroke-width:8.64"/>
	<line x1="3243.74" y1="1575.51" x2="3255.00" y2="1575.51" style="stroke:#808080;stroke-width:8.64"/>
	<line x1="3255.00" y1="1575.51" x2="3255.00" y2="1566.11" style="stroke:#808080;stroke-width:8.64"/>
	<line x1="3255.00" y1="1566.11" x2="3271.83" y2="1566.11" style="stroke:#808080;stroke-width:8.64"/>
	<line x1="3271.83" y1="1566.11" x2="3271.83" y2="1563.26" style="stroke:#808080;stroke-width:8.64"/>
	<line x1="3282.72" y1="1556.82" x2="3288.78" y2="1556.82" style="stroke:#808080;stroke-width:8.64"/>
	<line x1="3288.78" y1="1556.82" x2="3288.78" y2="1547.42" style="stroke:#808080;stroke-width:8.64"/>
	<line x1="3288.78" y1="1547.42" x2="3305.61" y2="1547.42" style="stroke:#808080;stroke-width:8.64"/>
	<line x1="3305.61" y1="1547.42" x2="3305.61" y2="1539.50" style="stroke:#808080;stroke-width:8.64"/>
	<line x1="3321.57" y1="1538.14" x2="3322.56" y2="1538.14" style="stroke:#808080;stroke-width:8.64"/>
	<line x1="3322.56" y1="1538.14" x2="3322.56" y2="1528.61" style="stroke:#808080;stroke-width:8.64"/>
	<line x1="3322.56" y1="1528.61" x2="3339.39" y2="1528.61" style="stroke:#808080;stroke-width:8.64"/>
	<line x1="3339.39" y1="1528.61" x2="3339.39" y2="1519.08" style="stroke:#808080;stroke-width:8.64"/>
	<line x1="3339.39" y1="1519.08" x2="3342.74" y2="1519.08" style="stroke:#808080;stroke-width:8.64"/>
	<line x1="3356.22" y1="1515.24" x2="3356.22" y2="1509.55" style="stroke:#808080;stroke-width:8.64"/>
	<line x1="3356.22" y1="1509.55" x2="3373.18" y2="1509.55" style="stroke:#808080;stroke-width:8.64"/>
	<line x1="3373.18" y1="1509.55" x2="3373.18" y2="1500.02" style="stroke:#808080;stroke-width:8.64"/>
	<line x1="3373.18" y1="1500.02" x2="3381.34" y2="1500.02" style="stroke:#808080;stroke-width:8.64"/>
	<line x1="3390.01" y1="1491.48" x2="3390.01" y2="1490.49" style="stroke:#808080;stroke-width:8.64"/>
	<line x1="3390.01" y1="1490.49" x2="3406.96" y2="1490.49" style="stroke:#808080;stroke-width:8.64"/>
	<line x1="3406.96" y1="1490.49" x2="3406.96" y2="1480.96" style="stroke:#808080;stroke-width:8.64"/>
	<line x1="3406.96" y1="1480.96" x2="3419.83" y2="1480.96" style="stroke:#808080;stroke-width:8.64"/>
	<line x1="3427.38" y1="1471.31" x2="3440.74" y2="1471.31" style="stroke:#808080;stroke-width:8.64"/>
	<line x1="3440.74" y1="1471.31" x2="3440.74" y2="1461.53" style="stroke:#808080;stroke-width:8.64"/>
	<line x1="3440.74" y1="1461.53" x2="3457.57" y2="1461.53" style="stroke:#808080;stroke-width:8.64"/>
	<line x1="3457.57" y1="1461.53" x2="3457.57" y2="1461.16" style="stroke:#808080;stroke-width:8.64"/>
	<line x1="3465.49" y1="1451.88" x2="3474.41" y2="1451.88" style="stroke:#808080;stroke-width:8.64"/>
	<line x1="3474.41" y1="1451.88" x2="3474.41" y2="1442.23" style="stroke:#808080;stroke-width:8.64"/>
	<line x1="3474.41" y1="1442.23" x2="3491.36" y2="1442.23" style="stroke:#808080;stroke-width:8.64"/>
	<line x1="3491.36" y1="1442.23" x2="3491.36" y2="1437.40" style="stroke:#808080;stroke-width:8.64"/>
	<line x1="3503.73" y1="1432.45" x2="3508.19" y2="1432.45" style="stroke:#808080;stroke-width:8.64"/>
	<line x1="3508.19" y1="1432.45" x2="3508.19" y2="1422.80" style="stroke:#808080;stroke-width:8.64"/>
	<line x1="3508.19" y1="1422.80" x2="3525.14" y2="1422.80" style="stroke:#808080;stroke-width:8.64"/>
	<line x1="3525.14" y1="1422.80" x2="3525.14" y2="1413.52" style="stroke:#808080;stroke-width:8.64"/>
	<line x1="3541.97" y1="1413.15" x2="3541.97" y2="1403.37" style="stroke:#808080;stroke-width:8.64"/>
	<line x1="3541.97" y1="1403.37" x2="3558.93" y2="1403.37" style="stroke:#808080;stroke-width:8.64"/>
	<line x1="3558.93" y1="1403.37" x2="3558.93" y2="1393.72" style="stroke:#808080;stroke-width:8.64"/>
	<line x1="3558.93" y1="1393.72" x2="3562.89" y2="1393.72" style="stroke:#808080;stroke-width:8.64"/>
	<line x1="3575.76" y1="1389.38" x2="3575.76" y2="1384.06" style="stroke:#808080;stroke-width:8.64"/>
	<line x1="3575.76" y1="1384.06" x2="3592.59" y2="1384.06" style="stroke:#808080;stroke-width:8.64"/>
	<line x1="3592.59" y1="1384.06" x2="3592.59" y2="1374.29" style="stroke:#808080;stroke-width:8.64"/>
	<line x1="3592.59" y1="1374.29" x2="3601.00" y2="1374.29" style="stroke:#808080;stroke-width:8.64"/>
	<line x1="3609.54" y1="1365.62" x2="3609.54" y2="1364.63" style="stroke:#808080;stroke-width:8.64"/>
	<line x1="3609.54" y1="1364.63" x2="3626.37" y2="1364.63" style="stroke:#808080;stroke-width:8.64"/>
	<line x1="3626.37" y1="1364.63" x2="3626.37" y2="1354.86" style="stroke:#808080;stroke-width:8.64"/>
	<line x1="3626.37" y1="1354.86" x2="3639.24" y2="1354.86" style="stroke:#808080;stroke-width:8.64"/>
	<line x1="3646.66" y1="1345.08" x2="3660.15" y2="1345.08" style="stroke:#808080;stroke-width:8.64"/>
	<line x1="3660.15" y1="1345.08" x2="3660.15" y2="1335.18" style="stroke:#808080;stroke-width:8.64"/>
	<line x1="3660.15" y1="1335.18" x2="3677.11" y2="1335.18" style="stroke:#808080;stroke-width:8.64"/>
	<line x1="3684.28" y1="1325.16" x2="3693.94" y2="1325.16" style="stroke:#808080;stroke-width:8.64"/>
	<line x1="3693.94" y1="1325.16" x2="3693.94" y2="1315.13" style="stroke:#808080;stroke-width:8.64"/>
	<line x1="3693.94" y1="1315.13" x2="3710.77" y2="1315.13" style="stroke:#808080;stroke-width:8.64"/>
	<line x1="3710.77" y1="1315.13" x2="3710.77" y2="1311.30" style="stroke:#808080;stroke-width:8.64"/>
	<line x1="3721.66" y1="1304.98" x2="3727.72" y2="1304.98" style="stroke:#808080;stroke-width:8.64"/>
	<line x1="3727.72" y1="1304.98" x2="3727.72" y2="1294.96" style="stroke:#808080;stroke-width:8.64"/>
	<line x1="3727.72" y1="1294.96" x2="3744.55" y2="1294.96" style="stroke:#808080;stroke-width:8.64"/>
	<line x1="3744.55" y1="1294.96" x2="3744.55" y2="1287.54" style="stroke:#808080;stroke-width:8.64"/>
	<line x1="3759.15" y1="1284.94" x2="3761.51" y2="1284.94" style="stroke:#808080;stroke-width:8.64"/>
	<line x1="3761.51" y1="1284.94" x2="3761.51" y2="1274.66" style="stroke:#808080;stroke-width:8.64"/>
	<line x1="3761.51" y1="1274.66" x2="3778.34" y2="1274.66" style="stroke:#808080;stroke-width:8.64"/>
	<line x1="3778.34" y1="1274.66" x2="3778.34" y2="1264.52" style="stroke:#808080;stroke-width:8.64"/>
	<line x1="3778.34" y1="1264.52" x2="3779.08" y2="1264.52" style="stroke:#808080;stroke-width:8.64"/>
	<line x1="3795.16" y1="1263.28" x2="3795.16" y2="1254.25" style="stroke:#808080;stroke-width:8.64"/>
	<path d="" stroke-linejoin="round" style="fill:none;stroke:#808080;stroke-width:8.64"/>
	<path d=" M773.19 2444.14 L790.14 2444.14 L790.14 2443.64 L806.97 2443.64 L806.97 2443.03 L823.93 2443.03 L823.93 2442.16 L840.76 2442.16 L840.76 2441.17 L857.71 2441.17 L857.71 2439.93 L874.54 2439.93 L874.54 2438.69 L891.37 2438.69 L891.37 2437.46 L908.33 2437.46 L908.33 2436.22 L925.15 2436.22 L925.15 2434.98 L942.11 2434.98 L942.11 2433.74 L958.94 2433.74 L958.94 2432.51 L975.89 2432.51 L975.89 2431.27 L992.72 2431.27 L992.72 2429.66 L1009.55 2429.66 L1009.55 2427.93 L1026.51 2427.93 L1026.51 2426.19 L1043.34 2426.19 L1043.34 2424.21 L1060.29 2424.21 L1060.29 2422.23 L1077.12 2422.23 L1077.12 2420.13 L1093.95 2420.13 L1093.95 2418.03 L1110.90 2418.03 L1110.90 2415.92 L1127.73 2415.92 L1127.73 2413.70 L1144.69 2413.70 L1144.69 2411.34 L1161.52 2411.34 L1161.52 2408.75 L1178.47 2408.75 L1178.47 2406.02 L1195.30 2406.02 L1195.30 2403.18 L1212.13 2403.18 L1212.13 2400.08 L1229.09 2400.08 L1229.09 2396.99 L1245.91 2396.99 L1245.91 2393.77 L1262.87 2393.77 L1262.87 2390.43 L1279.70 2390.43 L1279.70 2386.84 L1296.65 2386.84 L1296.65 2383.25 L1313.48 2383.25 L1313.48 2379.54 L1330.31 2379.54 L1330.31 2375.83 L1347.27 2375.83 L1347.27 2372.11 L1364.10 2372.11 L1364.10 2368.03 L1381.05 2368.03 L1381.05 2363.82 L1397.88 2363.82 L1397.88 2359.61 L1414.83 2359.61 L1414.83 2355.28 L1431.66 2355.28 L1431.66 2350.83 L1448.49 2350.83 L1448.49 2346.37 L1465.45 2346.37 L1465.45 2342.04 L1482.28 2342.04 L1482.28 2337.59 L1499.23 2337.59 L1499.23 2333.26 L1516.06 2333.26 L1516.06 2328.80 L1533.02 2328.80 L1533.02 2324.22 L1549.85 2324.22 L1549.85 2319.64 L1566.67 2319.64 L1566.67 2315.06 L1583.63 2315.06 L1583.63 2310.48 L1600.46 2310.48 L1600.46 2305.91 L1617.41 2305.91 L1617.41 2301.33 L1634.24 2301.33 L1634.24 2296.75 L1651.20 2296.75 L1651.20 2292.05 L1668.03 2292.05 L1668.03 2287.22 L1684.86 2287.22 L1684.86 2282.27 L1701.81 2282.27 L1701.81 2277.07 L1718.64 2277.07 L1718.64 2271.63 L1735.59 2271.63 L1735.59 2266.18 L1752.42 2266.18 L1752.42 2260.61 L1769.25 2260.61 L1769.25 2254.92 L1786.21 2254.92 L1786.21 2249.35 L1803.04 2249.35 L1803.04 2243.53 L1819.99 2243.53 L1819.99 2237.72 L1836.82 2237.72 L1836.82 2231.90 L1853.78 2231.90 L1853.78 2225.96 L1870.61 2225.96 L1870.61 2219.90 L1887.43 2219.90 L1887.43 2213.96 L1904.39 2213.96 L1904.39 2207.89 L1921.22 2207.89 L1921.22 2201.95 L1938.17 2201.95 L1938.17 2195.76 L1955.00 2195.76 L1955.00 2189.58 L1971.96 2189.58 L1971.96 2183.39 L1988.79 2183.39 L1988.79 2177.33 L2005.62 2177.33 L2005.62 2170.89 L2022.57 2170.89 L2022.57 2164.58 L2039.40 2164.58 L2039.40 2158.27 L2056.35 2158.27 L2056.35 2151.96 L2073.18 2151.96 L2073.18 2145.52 L2090.14 2145.52 L2090.14 2139.21 L2106.97 2139.21 L2106.97 2132.90 L2123.80 2132.90 L2123.80 2126.59 L2140.75 2126.59 L2140.75 2120.03 L2157.58 2120.03 L2157.58 2113.59 L2174.53 2113.59 L2174.53 2107.03 L2191.36 2107.03 L2191.36 2100.47 L2208.32 2100.47 L2208.32 2094.04 L2225.15 2094.04 L2225.15 2087.48 L2241.98 2087.48 L2241.98 2080.92 L2258.93 2080.92 L2258.93 2074.49 L2275.76 2074.49 L2275.76 2067.93 L2292.72 2067.93 L2292.72 2061.37 L2309.55 2061.37 L2309.55 2054.93 L2326.50 2054.93 L2326.50 2048.37 L2343.33 2048.37 L2343.33 2041.82 L2360.16 2041.82 L2360.16 2035.26 L2377.11 2035.26 L2377.11 2028.82 L2393.94 2028.82 L2393.94 2022.26 L2410.90 2022.26 L2410.90 2015.70 L2427.73 2015.70 L2427.73 2009.27 L2444.56 2009.27 L2444.56 2002.59 L2461.51 2002.59 L2461.51 1995.90 L2478.34 1995.90 L2478.34 1989.10 L2495.30 1989.10 L2495.30 1982.04 L2512.13 1982.04 L2512.13 1974.62 L2529.08 1974.62 L2529.08 1967.19 L2545.91 1967.19 L2545.91 1959.64 L2562.74 1959.64 L2562.74 1951.97 L2579.69 1951.97 L2579.69 1944.42 L2596.52 1944.42 L2596.52 1936.87 L2613.48 1936.87 L2613.48 1929.32 L2630.31 1929.32 L2630.31 1921.65 L2647.26 1921.65 L2647.26 1914.10 L2664.09 1914.10 L2664.09 1906.55 L2680.92 1906.55 L2680.92 1898.76 L2697.87 1898.76 L2697.87 1890.96 L2714.70 1890.96 L2714.70 1883.29 L2731.66 1883.29 L2731.66 1875.37 L2748.49 1875.37 L2748.49 1867.45 L2765.44 1867.45 L2765.44 1859.40 L2782.27 1859.40 L2782.27 1851.48 L2799.10 1851.48 L2799.10 1843.56 L2816.05 1843.56 L2816.05 1835.64 L2832.89 1835.64 L2832.89 1827.72 L2849.84 1827.72 L2849.84 1819.68 L2866.67 1819.68 L2866.67 1811.51 L2883.62 1811.51 L2883.62 1803.47 L2900.45 1803.47 L2900.45 1795.30 L2917.28 1795.30 L2917.28 1787.13 L2934.24 1787.13 L2934.24 1779.09 L2951.07 1779.09 L2951.07 1770.92 L2968.02 1770.92 L2968.02 1762.87 L2984.85 1762.87 L2984.85 1754.71 L3001.80 1754.71 L3001.80 1746.66 L3018.63 1746.66 L3018.63 1738.49 L3035.46 1738.49 L3035.46 1730.45 L3052.42 1730.45 L3052.42 1722.28 L3069.25 1722.28 L3069.25 1714.24 L3086.20 1714.24 L3086.20 1706.07 L3103.03 1706.07 L3103.03 1698.03 L3119.86 1698.03 L3119.86 1689.86 L3136.82 1689.86 L3136.82 1681.82 L3153.64 1681.82 L3153.64 1673.65 L3170.60 1673.65 L3170.60 1665.60 L3187.43 1665.60 L3187.43 1657.44 L3204.38 1657.44 L3204.38 1649.39 L3221.21 1649.39 L3221.21 1641.22 L3238.04 1641.22 L3238.04 1633.18 L3255.00 1633.18 L3255.00 1625.01 L3271.83 1625.01 L3271.83 1616.72 L3288.78 1616.72 L3288.78 1608.43 L3305.61 1608.43 L3305.61 1599.89 L3322.56 1599.89 L3322.56 1591.47 L3339.39 1591.47 L3339.39 1582.94 L3356.22 1582.94 L3356.22 1574.27 L3373.18 1574.27 L3373.18 1565.61 L3390.01 1565.61 L3390.01 1556.95 L3406.96 1556.95 L3406.96 1548.41 L3423.79 1548.41 L3423.79 1539.75 L3440.74 1539.75 L3440.74 1531.08 L3457.57 1531.08 L3457.57 1522.42 L3474.41 1522.42 L3474.41 1513.88 L3491.36 1513.88 L3491.36 1505.22 L3508.19 1505.22 L3508.19 1496.56 L3525.14 1496.56 L3525.14 1487.89 L3541.97 1487.89 L3541.97 1479.23 L3558.93 1479.23 L3558.93 1470.69 L3575.76 1470.69 L3575.76 1462.03 L3592.59 1462.03 L3592.59 1453.37 L3609.54 1453.37 L3609.54 1444.58 L3626.37 1444.58 L3626.37 1435.79 L3643.32 1435.79 L3643.32 1427.01 L3660.15 1427.01 L3660.15 1418.10 L3677.11 1418.10 L3677.11 1409.31 L3693.94 1409.31 L3693.94 1400.52 L3710.77 1400.52 L3710.77 1390.99 L3727.72 1390.99 L3727.72 1381.34 L3744.55 1381.34 L3744.55 1371.56 L3761.51 1371.56 L3761.51 1361.91 L3778.34 1361.91 L3778.34 1352.26 L3795.16 1352.26 L3795.16 1342.48" stroke-linejoin="round" style="fill:none;stroke:#000000;stroke-width:8.64"/>
	<line x1="553.29" y1="2509.23" x2="553.29" y2="419.90" style="stroke:#000000;stroke-width:5.76"/>
	<line x1="553.29" y1="2445.87" x2="513.32" y2="2445.87" style="stroke:#000000;stroke-width:5.76"/>
	<text x="493.27" y="2480.90" style="font-family:'Helvetica';font-size:99.99px;fill:#000000" text-anchor="end">0</text>
	<line x1="553.29" y1="2282.27" x2="513.32" y2="2282.27" style="stroke:#000000;stroke-width:5.76"/>
	<text x="493.27" y="2317.30" style="font-family:'Helvetica';font-size:99.99px;fill:#000000" text-anchor="end">90</text>
	<line x1="553.29" y1="2118.79" x2="513.32" y2="2118.79" style="stroke:#000000;stroke-width:5.76"/>
	<text x="493.27" y="2153.82" style="font-family:'Helvetica';font-size:99.99px;fill:#000000" text-anchor="end">180</text>
	<line x1="553.29" y1="1955.19" x2="513.32" y2="1955.19" style="stroke:#000000;stroke-width:5.76"/>
	<text x="493.27" y="1990.22" style="font-family:'Helvetica';font-size:99.99px;fill:#000000" text-anchor="end">270</text>
	<line x1="553.29" y1="1791.71" x2="513.32" y2="1791.71" style="stroke:#000000;stroke-width:5.76"/>
	<text x="493.27" y="1826.74" style="font-family:'Helvetica';font-size:99.99px;fill:#000000" text-anchor="end">360</text>
	<line x1="553.29" y1="1628.11" x2="513.32" y2="1628.11" style="stroke:#000000;stroke-width:5.76"/>
	<text x="493.27" y="1663.13" style="font-family:'Helvetica';font-size:99.99px;fill:#000000" text-anchor="end">450</text>
	<line x1="553.29" y1="1464.63" x2="513.32" y2="1464.63" style="stroke:#000000;stroke-width:5.76"/>
	<text x="493.27" y="1499.66" style="font-family:'Helvetica';font-size:99.99px;fill:#000000" text-anchor="end">540</text>
	<line x1="553.29" y1="1301.02" x2="513.32" y2="1301.02" style="stroke:#000000;stroke-width:5.76"/>
	<text x="493.27" y="1336.05" style="font-family:'Helvetica';font-size:99.99px;fill:#000000" text-anchor="end">630</text>
	<line x1="553.29" y1="1137.42" x2="513.32" y2="1137.42" style="stroke:#000000;stroke-width:5.76"/>
	<text x="493.27" y="1172.45" style="font-family:'Helvetica';font-size:99.99px;fill:#000000" text-anchor="end">720</text>
	<line x1="553.29" y1="973.94" x2="513.32" y2="973.94" style="stroke:#000000;stroke-width:5.76"/>
	<text x="493.27" y="1008.97" style="font-family:'Helvetica';font-size:99.99px;fill:#000000" text-anchor="end">810</text>
	<line x1="553.29" y1="810.34" x2="513.32" y2="810.34" style="stroke:#000000;stroke-width:5.76"/>
	<text x="493.27" y="845.37" style="font-family:'Helvetica';font-size:99.99px;fill:#000000" text-anchor="end">900</text>
	<line x1="553.29" y1="646.86" x2="513.32" y2="646.86" style="stroke:#000000;stroke-width:5.76"/>
	<text x="493.27" y="681.89" style="font-family:'Helvetica';font-size:99.99px;fill:#000000" text-anchor="end">990</text>
	<line x1="553.29" y1="483.26" x2="513.32" y2="483.26" style="stroke:#000000;stroke-width:5.76"/>
	<text x="493.27" y="518.29" style="font-family:'Helvetica';font-size:99.99px;fill:#000000" text-anchor="end">1080</text>
	<text x="190.71" y="1464.63" style="font-family:'Helvetica';font-size:99.99px;fill:#000000" transform="rotate(-90 190.71,1464.63)" text-anchor="middle">LOS (years)</text>
	<line x1="553.29" y1="2509.23" x2="3859.02" y2="2509.23" style="stroke:#000000;stroke-width:5.76"/>
	<line x1="616.65" y1="2509.23" x2="616.65" y2="2549.21" style="stroke:#000000;stroke-width:5.76"/>
	<text x="616.65" y="2625.15" style="font-family:'Helvetica';font-size:79.94px;fill:#000000" text-anchor="middle">0</text>
	<line x1="807.35" y1="2509.23" x2="807.35" y2="2549.21" style="stroke:#000000;stroke-width:5.76"/>
	<text x="807.35" y="2625.15" style="font-family:'Helvetica';font-size:79.94px;fill:#000000" text-anchor="middle">.3</text>
	<line x1="998.17" y1="2509.23" x2="998.17" y2="2549.21" style="stroke:#000000;stroke-width:5.76"/>
	<text x="998.17" y="2625.15" style="font-family:'Helvetica';font-size:79.94px;fill:#000000" text-anchor="middle">.6</text>
	<line x1="1188.87" y1="2509.23" x2="1188.87" y2="2549.21" style="stroke:#000000;stroke-width:5.76"/>
	<text x="1188.87" y="2625.15" style="font-family:'Helvetica';font-size:79.94px;fill:#000000" text-anchor="middle">.9</text>
	<line x1="1379.57" y1="2509.23" x2="1379.57" y2="2549.21" style="stroke:#000000;stroke-width:5.76"/>
	<text x="1379.57" y="2625.15" style="font-family:'Helvetica';font-size:79.94px;fill:#000000" text-anchor="middle">1.2</text>
	<line x1="1570.39" y1="2509.23" x2="1570.39" y2="2549.21" style="stroke:#000000;stroke-width:5.76"/>
	<text x="1570.39" y="2625.15" style="font-family:'Helvetica';font-size:79.94px;fill:#000000" text-anchor="middle">1.5</text>
	<line x1="1761.09" y1="2509.23" x2="1761.09" y2="2549.21" style="stroke:#000000;stroke-width:5.76"/>
	<text x="1761.09" y="2625.15" style="font-family:'Helvetica';font-size:79.94px;fill:#000000" text-anchor="middle">1.8</text>
	<line x1="1951.91" y1="2509.23" x2="1951.91" y2="2549.21" style="stroke:#000000;stroke-width:5.76"/>
	<text x="1951.91" y="2625.15" style="font-family:'Helvetica';font-size:79.94px;fill:#000000" text-anchor="middle">2.1</text>
	<line x1="2142.61" y1="2509.23" x2="2142.61" y2="2549.21" style="stroke:#000000;stroke-width:5.76"/>
	<text x="2142.61" y="2625.15" style="font-family:'Helvetica';font-size:79.94px;fill:#000000" text-anchor="middle">2.4</text>
	<line x1="2333.31" y1="2509.23" x2="2333.31" y2="2549.21" style="stroke:#000000;stroke-width:5.76"/>
	<text x="2333.31" y="2625.15" style="font-family:'Helvetica';font-size:79.94px;fill:#000000" text-anchor="middle">2.7</text>
	<line x1="2524.13" y1="2509.23" x2="2524.13" y2="2549.21" style="stroke:#000000;stroke-width:5.76"/>
	<text x="2524.13" y="2625.15" style="font-family:'Helvetica';font-size:79.94px;fill:#000000" text-anchor="middle">3</text>
	<line x1="2714.83" y1="2509.23" x2="2714.83" y2="2549.21" style="stroke:#000000;stroke-width:5.76"/>
	<text x="2714.83" y="2625.15" style="font-family:'Helvetica';font-size:79.94px;fill:#000000" text-anchor="middle">3.3</text>
	<line x1="2905.53" y1="2509.23" x2="2905.53" y2="2549.21" style="stroke:#000000;stroke-width:5.76"/>
	<text x="2905.53" y="2625.15" style="font-family:'Helvetica';font-size:79.94px;fill:#000000" text-anchor="middle">3.6</text>
	<line x1="3096.35" y1="2509.23" x2="3096.35" y2="2549.21" style="stroke:#000000;stroke-width:5.76"/>
	<text x="3096.35" y="2625.15" style="font-family:'Helvetica';font-size:79.94px;fill:#000000" text-anchor="middle">3.9</text>
	<line x1="3287.05" y1="2509.23" x2="3287.05" y2="2549.21" style="stroke:#000000;stroke-width:5.76"/>
	<text x="3287.05" y="2625.15" style="font-family:'Helvetica';font-size:79.94px;fill:#000000" text-anchor="middle">4.2</text>
	<line x1="3477.87" y1="2509.23" x2="3477.87" y2="2549.21" style="stroke:#000000;stroke-width:5.76"/>
	<text x="3477.87" y="2625.15" style="font-family:'Helvetica';font-size:79.94px;fill:#000000" text-anchor="middle">4.5</text>
	<line x1="3668.57" y1="2509.23" x2="3668.57" y2="2549.21" style="stroke:#000000;stroke-width:5.76"/>
	<text x="3668.57" y="2625.15" style="font-family:'Helvetica';font-size:79.94px;fill:#000000" text-anchor="middle">4.8</text>
	<line x1="3859.27" y1="2509.23" x2="3859.27" y2="2549.21" style="stroke:#000000;stroke-width:5.76"/>
	<text x="3859.27" y="2625.15" style="font-family:'Helvetica';font-size:79.94px;fill:#000000" text-anchor="middle">5.1</text>
	<text x="2206.22" y="2729.16" style="font-family:'Helvetica';font-size:99.99px;fill:#000000" text-anchor="middle">Time (years)</text>
	<rect x="587.81" y="454.42" width="1384.14" height="606.39" style="fill:#FFFFFF"/>
	<rect x="590.69" y="457.30" width="1378.38" height="600.63" style="fill:none;stroke:#000000;stroke-width:5.76"/>
	<rect x="631.00" y="497.74" width="374.47" height="99.99" style="fill:#999999;fill-opacity:0.35"/>
	<rect x="635.32" y="502.06" width="365.83" height="91.35" style="fill:none;stroke:#808080;stroke-opacity:0.35;stroke-width:8.64"/>
	<rect x="631.00" y="637.70" width="374.47" height="99.99" style="fill:#333333;fill-opacity:0.35"/>
	<rect x="635.32" y="642.02" width="365.83" height="91.35" style="fill:none;stroke:#000000;stroke-opacity:0.35;stroke-width:8.64"/>
	<line x1="631.00" y1="827.67" x2="671.34" y2="827.67" style="stroke:#808080;stroke-width:8.64"/>
	<line x1="688.54" y1="827.67" x2="728.89" y2="827.67" style="stroke:#808080;stroke-width:8.64"/>
	<line x1="746.09" y1="827.67" x2="786.43" y2="827.67" style="stroke:#808080;stroke-width:8.64"/>
	<line x1="803.76" y1="827.67" x2="843.98" y2="827.67" style="stroke:#808080;stroke-width:8.64"/>
	<line x1="861.30" y1="827.67" x2="901.64" y2="827.67" style="stroke:#808080;stroke-width:8.64"/>
	<line x1="918.84" y1="827.67" x2="959.19" y2="827.67" style="stroke:#808080;stroke-width:8.64"/>
	<line x1="976.39" y1="827.67" x2="1005.47" y2="827.67" style="stroke:#808080;stroke-width:8.64"/>
	<line x1="631.00" y1="967.63" x2="1005.47" y2="967.63" style="stroke:#000000;stroke-width:8.64"/>
	<text x="1065.36" y="582.76" style="font-family:'Helvetica';font-size:99.99px;fill:#000000">Ambulatory CI95%</text>
	<text x="1065.36" y="722.73" style="font-family:'Helvetica';font-size:99.99px;fill:#000000">Residential CI95%</text>
	<text x="1065.36" y="862.69" style="font-family:'Helvetica';font-size:99.99px;fill:#000000">Ambulatory</text>
	<text x="1065.36" y="1002.66" style="font-family:'Helvetica';font-size:99.99px;fill:#000000">Residential</text>
	<text x="2206.22" y="369.63" style="font-family:'Helvetica';font-size:110.01px;fill:#000000" text-anchor="middle">from 3rd Readmission to 4th Readmission</text>
	<text x="2206.22" y="215.98" style="font-family:'Helvetica';font-size:139.96px;fill:#1E2D53" text-anchor="middle">Length of Stay(3y)</text>
</svg>
