<?xml version="1.0" encoding="UTF-8" standalone="no"?>
<!-- This is a Stata 16.1 generated SVG file (http://www.stata.com) -->

<svg version="1.1" width="5.50in" height="4.00in" viewBox="0 0 3960 2880" xmlns="http://www.w3.org/2000/svg" xmlns:xlink="http://www.w3.org/1999/xlink">
	<desc>Stata Graph - los_models34_rp</desc>
	<rect x="0" y="0" width="3960" height="2880" style="fill:#EAF2F3;stroke:none"/>
	<rect x="0.00" y="0.00" width="3959.88" height="2880.00" style="fill:#FFFFFF"/>
	<rect x="2.88" y="2.88" width="3954.12" height="2874.24" style="fill:none;stroke:#FFFFFF;stroke-width:5.76"/>
	<rect x="495.00" y="419.90" width="3364.02" height="2089.34" style="fill:#FFFFFF"/>
	<rect x="497.88" y="422.78" width="3358.26" height="2083.58" style="fill:none;stroke:#FFFFFF;stroke-width:5.76"/>
	<line x1="495.00" y1="2445.87" x2="3859.02" y2="2445.87" style="stroke:#EAF2F3;stroke-width:8.64"/>
	<line x1="495.00" y1="2118.79" x2="3859.02" y2="2118.79" style="stroke:#EAF2F3;stroke-width:8.64"/>
	<line x1="495.00" y1="1791.71" x2="3859.02" y2="1791.71" style="stroke:#EAF2F3;stroke-width:8.64"/>
	<line x1="495.00" y1="1464.63" x2="3859.02" y2="1464.63" style="stroke:#EAF2F3;stroke-width:8.64"/>
	<line x1="495.00" y1="1137.42" x2="3859.02" y2="1137.42" style="stroke:#EAF2F3;stroke-width:8.64"/>
	<line x1="495.00" y1="810.34" x2="3859.02" y2="810.34" style="stroke:#EAF2F3;stroke-width:8.64"/>
	<line x1="495.00" y1="483.26" x2="3859.02" y2="483.26" style="stroke:#EAF2F3;stroke-width:8.64"/>
	<defs>
		<path id="path_ZsWzdPvs" d="M717.87 2443.77 L717.87 2443.77 L735.08 2443.77 L735.08 2443.03 L752.28 2443.03 L752.28 2442.16 L769.48 2442.16 L769.48 2441.05 L786.55 2441.05 L786.55 2439.93 L803.76 2439.93 L803.76 2438.69 L820.96 2438.69 L820.96 2437.21 L838.16 2437.21 L838.16 2435.60 L855.36 2435.60 L855.36 2433.87 L872.56 2433.87 L872.56 2432.01 L889.76 2432.01 L889.76 2429.91 L906.96 2429.91 L906.96 2427.68 L924.16 2427.68 L924.16 2425.33 L941.37 2425.33 L941.37 2422.85 L958.57 2422.85 L958.57 2420.25 L975.77 2420.25 L975.77 2417.41 L992.97 2417.41 L992.97 2414.44 L1010.17 2414.44 L1010.17 2411.34 L1027.25 2411.34 L1027.25 2408.13 L1044.45 2408.13 L1044.45 2404.66 L1061.65 2404.66 L1061.65 2401.20 L1078.85 2401.20 L1078.85 2397.48 L1096.05 2397.48 L1096.05 2393.65 L1113.26 2393.65 L1113.26 2389.69 L1130.46 2389.69 L1130.46 2385.48 L1147.66 2385.48 L1147.66 2381.15 L1164.86 2381.15 L1164.86 2376.82 L1182.06 2376.82 L1182.06 2372.24 L1199.26 2372.24 L1199.26 2367.54 L1216.46 2367.54 L1216.46 2362.71 L1233.66 2362.71 L1233.66 2357.76 L1250.87 2357.76 L1250.87 2352.68 L1267.94 2352.68 L1267.94 2347.36 L1285.14 2347.36 L1285.14 2342.04 L1302.35 2342.04 L1302.35 2336.60 L1319.55 2336.60 L1319.55 2331.03 L1336.75 2331.03 L1336.75 2325.34 L1353.95 2325.34 L1353.95 2319.52 L1371.15 2319.52 L1371.15 2313.58 L1388.35 2313.58 L1388.35 2307.64 L1405.55 2307.64 L1405.55 2301.45 L1422.75 2301.45 L1422.75 2295.26 L1439.95 2295.26 L1439.95 2288.95 L1457.16 2288.95 L1457.16 2282.64 L1474.36 2282.64 L1474.36 2276.08 L1491.56 2276.08 L1491.56 2269.52 L1508.64 2269.52 L1508.64 2262.84 L1525.84 2262.84 L1525.84 2256.03 L1543.04 2256.03 L1543.04 2249.23 L1560.24 2249.23 L1560.24 2242.30 L1577.44 2242.30 L1577.44 2235.24 L1594.64 2235.24 L1594.64 2228.19 L1611.84 2228.19 L1611.84 2221.01 L1629.05 2221.01 L1629.05 2213.71 L1646.25 2213.71 L1646.25 2206.53 L1663.45 2206.53 L1663.45 2199.11 L1680.65 2199.11 L1680.65 2191.80 L1697.85 2191.80 L1697.85 2184.26 L1715.05 2184.26 L1715.05 2176.83 L1732.25 2176.83 L1732.25 2169.28 L1749.33 2169.28 L1749.33 2161.73 L1766.53 2161.73 L1766.53 2154.06 L1783.73 2154.06 L1783.73 2146.39 L1800.93 2146.39 L1800.93 2138.71 L1818.13 2138.71 L1818.13 2130.92 L1835.34 2130.92 L1835.34 2123.25 L1852.54 2123.25 L1852.54 2115.45 L1869.74 2115.45 L1869.74 2107.53 L1886.94 2107.53 L1886.94 2099.73 L1904.14 2099.73 L1904.14 2091.81 L1921.34 2091.81 L1921.34 2083.89 L1938.54 2083.89 L1938.54 2075.97 L1955.74 2075.97 L1955.74 2067.93 L1972.95 2067.93 L1972.95 2060.01 L1990.02 2060.01 L1990.02 2051.96 L2007.22 2051.96 L2007.22 2043.92 L2024.43 2043.92 L2024.43 2036.00 L2041.63 2036.00 L2041.63 2027.95 L2058.83 2027.95 L2058.83 2019.79 L2076.03 2019.79 L2076.03 2011.74 L2093.23 2011.74 L2093.23 2003.70 L2110.43 2003.70 L2110.43 1995.53 L2127.63 1995.53 L2127.63 1987.36 L2144.84 1987.36 L2144.84 1979.20 L2162.04 1979.20 L2162.04 1971.15 L2179.24 1971.15 L2179.24 1962.98 L2196.44 1962.98 L2196.44 1954.69 L2213.64 1954.69 L2213.64 1946.52 L2230.72 1946.52 L2230.72 1938.36 L2247.92 1938.36 L2247.92 1930.19 L2265.12 1930.19 L2265.12 1922.02 L2282.32 1922.02 L2282.32 1913.73 L2299.52 1913.73 L2299.52 1905.56 L2316.72 1905.56 L2316.72 1897.39 L2333.93 1897.39 L2333.93 1889.10 L2351.13 1889.10 L2351.13 1880.94 L2368.33 1880.94 L2368.33 1872.77 L2385.53 1872.77 L2385.53 1864.60 L2402.73 1864.60 L2402.73 1856.31 L2419.93 1856.31 L2419.93 1848.14 L2437.13 1848.14 L2437.13 1839.97 L2454.33 1839.97 L2454.33 1831.80 L2471.41 1831.80 L2471.41 1823.64 L2488.61 1823.64 L2488.61 1815.47 L2505.81 1815.47 L2505.81 1807.18 L2523.01 1807.18 L2523.01 1799.01 L2540.22 1799.01 L2540.22 1790.84 L2557.42 1790.84 L2557.42 1782.80 L2574.62 1782.80 L2574.62 1774.63 L2591.82 1774.63 L2591.82 1766.46 L2609.02 1766.46 L2609.02 1758.29 L2626.22 1758.29 L2626.22 1750.13 L2643.42 1750.13 L2643.42 1742.08 L2660.63 1742.08 L2660.63 1733.92 L2677.83 1733.92 L2677.83 1725.87 L2695.03 1725.87 L2695.03 1717.70 L2712.11 1717.70 L2712.11 1709.66 L2729.31 1709.66 L2729.31 1701.62 L2746.51 1701.62 L2746.51 1693.57 L2763.71 1693.57 L2763.71 1685.53 L2780.91 1685.53 L2780.91 1677.48 L2798.11 1677.48 L2798.11 1669.44 L2815.31 1669.44 L2815.31 1661.40 L2832.51 1661.40 L2832.51 1653.48 L2849.72 1653.48 L2849.72 1645.43 L2866.92 1645.43 L2866.92 1637.51 L2884.12 1637.51 L2884.12 1629.47 L2901.32 1629.47 L2901.32 1621.55 L2918.52 1621.55 L2918.52 1613.50 L2935.72 1613.50 L2935.72 1605.58 L2952.80 1605.58 L2952.80 1597.66 L2970.00 1597.66 L2970.00 1589.74 L2987.20 1589.74 L2987.20 1581.82 L3004.40 1581.82 L3004.40 1573.90 L3021.60 1573.90 L3021.60 1565.98 L3038.80 1565.98 L3038.80 1558.06 L3056.01 1558.06 L3056.01 1550.14 L3073.21 1550.14 L3073.21 1542.22 L3090.41 1542.22 L3090.41 1534.30 L3107.61 1534.30 L3107.61 1526.50 L3124.81 1526.50 L3124.81 1518.58 L3142.01 1518.58 L3142.01 1510.79 L3159.21 1510.79 L3159.21 1502.87 L3176.29 1502.87 L3176.29 1495.07 L3193.49 1495.07 L3193.49 1487.27 L3210.69 1487.27 L3210.69 1479.48 L3227.89 1479.48 L3227.89 1471.68 L3245.10 1471.68 L3245.10 1463.88 L3262.30 1463.88 L3262.30 1456.21 L3279.50 1456.21 L3279.50 1448.42 L3296.70 1448.42 L3296.70 1440.74 L3313.90 1440.74 L3313.90 1433.07 L3331.10 1433.07 L3331.10 1425.40 L3348.30 1425.40 L3348.30 1417.60 L3365.51 1417.60 L3365.51 1409.93 L3382.71 1409.93 L3382.71 1402.38 L3399.91 1402.38 L3399.91 1394.71 L3416.99 1394.71 L3416.99 1387.03 L3434.19 1387.03 L3434.19 1379.36 L3451.39 1379.36 L3451.39 1371.81 L3468.59 1371.81 L3468.59 1364.14 L3485.79 1364.14 L3485.79 1356.59 L3502.99 1356.59 L3502.99 1349.04 L3520.19 1349.04 L3520.19 1341.37 L3537.39 1341.37 L3537.39 1333.82 L3554.59 1333.82 L3554.59 1326.27 L3571.80 1326.27 L3571.80 1318.72 L3589.00 1318.72 L3589.00 1311.17 L3606.20 1311.17 L3606.20 1303.62 L3623.40 1303.62 L3623.40 1296.20 L3640.60 1296.20 L3640.60 1288.65 L3657.68 1288.65 L3657.68 1281.10 L3674.88 1281.10 L3674.88 1273.67 L3692.08 1273.67 L3692.08 1266.13 L3709.28 1266.13 L3709.28 1258.70 L3726.48 1258.70 L3726.48 1251.28 L3743.68 1251.28 L3743.68 1243.85 L3760.89 1243.85 L3760.89 1236.42 L3778.09 1236.42 L3778.09 1229.00 L3795.29 1229.00 L3795.29 1221.57 L3795.29 611.96 L3795.29 624.21 L3778.09 624.21 L3778.09 636.34 L3760.89 636.34 L3760.89 648.47 L3743.68 648.47 L3743.68 660.72 L3726.48 660.72 L3726.48 672.85 L3709.28 672.85 L3709.28 685.10 L3692.08 685.10 L3692.08 697.23 L3674.88 697.23 L3674.88 709.36 L3657.68 709.36 L3657.68 721.61 L3640.60 721.61 L3640.60 733.74 L3623.40 733.74 L3623.40 745.99 L3606.20 745.99 L3606.20 758.12 L3589.00 758.12 L3589.00 770.37 L3571.80 770.37 L3571.80 782.50 L3554.59 782.50 L3554.59 794.62 L3537.39 794.62 L3537.39 806.88 L3520.19 806.88 L3520.19 819.00 L3502.99 819.00 L3502.99 831.13 L3485.79 831.13 L3485.79 843.38 L3468.59 843.38 L3468.59 855.51 L3451.39 855.51 L3451.39 867.76 L3434.19 867.76 L3434.19 879.89 L3416.99 879.89 L3416.99 892.02 L3399.91 892.02 L3399.91 904.15 L3382.71 904.15 L3382.71 916.40 L3365.51 916.40 L3365.51 928.53 L3348.30 928.53 L3348.30 940.65 L3331.10 940.65 L3331.10 952.90 L3313.90 952.90 L3313.90 965.03 L3296.70 965.03 L3296.70 977.16 L3279.50 977.16 L3279.50 989.29 L3262.30 989.29 L3262.30 1001.54 L3245.10 1001.54 L3245.10 1013.67 L3227.89 1013.67 L3227.89 1025.80 L3210.69 1025.80 L3210.69 1038.05 L3193.49 1038.05 L3193.49 1050.18 L3176.29 1050.18 L3176.29 1062.43 L3159.21 1062.43 L3159.21 1074.55 L3142.01 1074.55 L3142.01 1086.81 L3124.81 1086.81 L3124.81 1099.06 L3107.61 1099.06 L3107.61 1111.19 L3090.41 1111.19 L3090.41 1123.44 L3073.21 1123.44 L3073.21 1135.57 L3056.01 1135.57 L3056.01 1147.82 L3038.80 1147.82 L3038.80 1159.94 L3021.60 1159.94 L3021.60 1172.20 L3004.40 1172.20 L3004.40 1184.32 L2987.20 1184.32 L2987.20 1196.45 L2970.00 1196.45 L2970.00 1208.58 L2952.80 1208.58 L2952.80 1220.71 L2935.72 1220.71 L2935.72 1232.84 L2918.52 1232.84 L2918.52 1244.96 L2901.32 1244.96 L2901.32 1257.09 L2884.12 1257.09 L2884.12 1269.22 L2866.92 1269.22 L2866.92 1281.35 L2849.72 1281.35 L2849.72 1293.48 L2832.51 1293.48 L2832.51 1305.48 L2815.31 1305.48 L2815.31 1317.61 L2798.11 1317.61 L2798.11 1329.74 L2780.91 1329.74 L2780.91 1341.74 L2763.71 1341.74 L2763.71 1353.87 L2746.51 1353.87 L2746.51 1366.00 L2729.31 1366.00 L2729.31 1378.00 L2712.11 1378.00 L2712.11 1390.13 L2695.03 1390.13 L2695.03 1402.26 L2677.83 1402.26 L2677.83 1414.26 L2660.63 1414.26 L2660.63 1426.39 L2643.42 1426.39 L2643.42 1438.39 L2626.22 1438.39 L2626.22 1450.52 L2609.02 1450.52 L2609.02 1462.52 L2591.82 1462.52 L2591.82 1474.65 L2574.62 1474.65 L2574.62 1486.66 L2557.42 1486.66 L2557.42 1498.66 L2540.22 1498.66 L2540.22 1510.79 L2523.01 1510.79 L2523.01 1522.79 L2505.81 1522.79 L2505.81 1534.80 L2488.61 1534.80 L2488.61 1546.80 L2471.41 1546.80 L2471.41 1558.80 L2454.33 1558.80 L2454.33 1570.81 L2437.13 1570.81 L2437.13 1582.81 L2419.93 1582.81 L2419.93 1594.82 L2402.73 1594.82 L2402.73 1606.70 L2385.53 1606.70 L2385.53 1618.70 L2368.33 1618.70 L2368.33 1630.58 L2351.13 1630.58 L2351.13 1642.59 L2333.93 1642.59 L2333.93 1654.47 L2316.72 1654.47 L2316.72 1666.35 L2299.52 1666.35 L2299.52 1678.23 L2282.32 1678.23 L2282.32 1690.11 L2265.12 1690.11 L2265.12 1701.99 L2247.92 1701.99 L2247.92 1713.74 L2230.72 1713.74 L2230.72 1725.62 L2213.64 1725.62 L2213.64 1737.38 L2196.44 1737.38 L2196.44 1749.14 L2179.24 1749.14 L2179.24 1760.89 L2162.04 1760.89 L2162.04 1772.53 L2144.84 1772.53 L2144.84 1784.28 L2127.63 1784.28 L2127.63 1795.92 L2110.43 1795.92 L2110.43 1807.55 L2093.23 1807.55 L2093.23 1819.06 L2076.03 1819.06 L2076.03 1830.69 L2058.83 1830.69 L2058.83 1842.20 L2041.63 1842.20 L2041.63 1853.59 L2024.43 1853.59 L2024.43 1865.09 L2007.22 1865.09 L2007.22 1876.48 L1990.02 1876.48 L1990.02 1887.87 L1972.95 1887.87 L1972.95 1899.25 L1955.74 1899.25 L1955.74 1910.51 L1938.54 1910.51 L1938.54 1921.77 L1921.34 1921.77 L1921.34 1933.04 L1904.14 1933.04 L1904.14 1944.17 L1886.94 1944.17 L1886.94 1955.31 L1869.74 1955.31 L1869.74 1966.45 L1852.54 1966.45 L1852.54 1977.46 L1835.34 1977.46 L1835.34 1988.48 L1818.13 1988.48 L1818.13 1999.49 L1800.93 1999.49 L1800.93 2010.38 L1783.73 2010.38 L1783.73 2021.15 L1766.53 2021.15 L1766.53 2031.91 L1749.33 2031.91 L1749.33 2042.68 L1732.25 2042.68 L1732.25 2053.32 L1715.05 2053.32 L1715.05 2063.84 L1697.85 2063.84 L1697.85 2074.36 L1680.65 2074.36 L1680.65 2084.76 L1663.45 2084.76 L1663.45 2095.15 L1646.25 2095.15 L1646.25 2105.42 L1629.05 2105.42 L1629.05 2115.57 L1611.84 2115.57 L1611.84 2125.72 L1594.64 2125.72 L1594.64 2135.74 L1577.44 2135.74 L1577.44 2145.77 L1560.24 2145.77 L1560.24 2155.54 L1543.04 2155.54 L1543.04 2165.20 L1525.84 2165.20 L1525.84 2174.85 L1508.64 2174.85 L1508.64 2184.26 L1491.56 2184.26 L1491.56 2193.66 L1474.36 2193.66 L1474.36 2202.94 L1457.16 2202.94 L1457.16 2211.98 L1439.95 2211.98 L1439.95 2221.01 L1422.75 2221.01 L1422.75 2229.80 L1405.55 2229.80 L1405.55 2238.58 L1388.35 2238.58 L1388.35 2247.12 L1371.15 2247.12 L1371.15 2255.66 L1353.95 2255.66 L1353.95 2263.95 L1336.75 2263.95 L1336.75 2272.12 L1319.55 2272.12 L1319.55 2280.17 L1302.35 2280.17 L1302.35 2288.09 L1285.14 2288.09 L1285.14 2295.88 L1267.94 2295.88 L1267.94 2303.43 L1250.87 2303.43 L1250.87 2310.86 L1233.66 2310.86 L1233.66 2318.03 L1216.46 2318.03 L1216.46 2325.09 L1199.26 2325.09 L1199.26 2332.02 L1182.06 2332.02 L1182.06 2338.70 L1164.86 2338.70 L1164.86 2345.14 L1147.66 2345.14 L1147.66 2351.45 L1130.46 2351.45 L1130.46 2357.63 L1113.26 2357.63 L1113.26 2363.58 L1096.05 2363.58 L1096.05 2369.27 L1078.85 2369.27 L1078.85 2374.84 L1061.65 2374.84 L1061.65 2380.16 L1044.45 2380.16 L1044.45 2385.23 L1027.25 2385.23 L1027.25 2390.18 L1010.17 2390.18 L1010.17 2394.88 L992.97 2394.88 L992.97 2399.34 L975.77 2399.34 L975.77 2403.67 L958.57 2403.67 L958.57 2407.63 L941.37 2407.63 L941.37 2411.47 L924.16 2411.47 L924.16 2415.18 L906.96 2415.18 L906.96 2418.52 L889.76 2418.52 L889.76 2421.74 L872.56 2421.74 L872.56 2424.71 L855.36 2424.71 L855.36 2427.43 L838.16 2427.43 L838.16 2430.03 L820.96 2430.03 L820.96 2432.38 L803.76 2432.38 L803.76 2434.49 L786.55 2434.49 L786.55 2436.47 L769.48 2436.47 L769.48 2438.20 L752.28 2438.20 L752.28 2439.68 L735.08 2439.68 L735.08 2441.05 L717.87 2441.05 L717.87 2443.77 Z" stroke-linejoin="round"/>
	</defs>
	<defs>
		<clipPath id="clipPath_VvgZZSiT">
			<use xlink:href="#path_ZsWzdPvs"/>
		</clipPath>
	</defs>
	<use xlink:href="#path_ZsWzdPvs" style="stroke:none;fill:#999999;fill-opacity:0.35"/>
	<use xlink:href="#path_ZsWzdPvs" style="fill:none;stroke:#808080;stroke-opacity:0.35;stroke-width:17.28" clip-path="url(#clipPath_VvgZZSiT)"/>
	<defs>
		<path id="path_xrnPWBGX" d="M717.87 2443.64 L717.87 2443.64 L735.08 2443.64 L735.08 2442.78 L752.28 2442.78 L752.28 2441.91 L769.48 2441.91 L769.48 2440.80 L786.55 2440.80 L786.55 2439.68 L803.76 2439.68 L803.76 2438.20 L820.96 2438.20 L820.96 2436.71 L838.16 2436.71 L838.16 2435.10 L855.36 2435.10 L855.36 2433.25 L872.56 2433.25 L872.56 2431.27 L889.76 2431.27 L889.76 2429.04 L906.96 2429.04 L906.96 2426.69 L924.16 2426.69 L924.16 2424.21 L941.37 2424.21 L941.37 2421.62 L958.57 2421.62 L958.57 2418.89 L975.77 2418.89 L975.77 2415.92 L992.97 2415.92 L992.97 2412.83 L1010.17 2412.83 L1010.17 2409.49 L1027.25 2409.49 L1027.25 2406.02 L1044.45 2406.02 L1044.45 2402.43 L1061.65 2402.43 L1061.65 2398.72 L1078.85 2398.72 L1078.85 2394.76 L1096.05 2394.76 L1096.05 2390.80 L1113.26 2390.80 L1113.26 2386.59 L1130.46 2386.59 L1130.46 2382.26 L1147.66 2382.26 L1147.66 2377.68 L1164.86 2377.68 L1164.86 2372.98 L1182.06 2372.98 L1182.06 2368.28 L1199.26 2368.28 L1199.26 2363.33 L1216.46 2363.33 L1216.46 2358.13 L1233.66 2358.13 L1233.66 2352.93 L1250.87 2352.93 L1250.87 2347.61 L1267.94 2347.61 L1267.94 2342.04 L1285.14 2342.04 L1285.14 2336.47 L1302.35 2336.47 L1302.35 2330.78 L1319.55 2330.78 L1319.55 2324.84 L1336.75 2324.84 L1336.75 2318.90 L1353.95 2318.90 L1353.95 2312.84 L1371.15 2312.84 L1371.15 2306.65 L1388.35 2306.65 L1388.35 2300.34 L1405.55 2300.34 L1405.55 2293.90 L1422.75 2293.90 L1422.75 2287.47 L1439.95 2287.47 L1439.95 2280.78 L1457.16 2280.78 L1457.16 2274.10 L1474.36 2274.10 L1474.36 2267.29 L1491.56 2267.29 L1491.56 2260.49 L1508.64 2260.49 L1508.64 2253.56 L1525.84 2253.56 L1525.84 2246.50 L1543.04 2246.50 L1543.04 2239.33 L1560.24 2239.33 L1560.24 2232.15 L1577.44 2232.15 L1577.44 2224.85 L1594.64 2224.85 L1594.64 2217.55 L1611.84 2217.55 L1611.84 2210.12 L1629.05 2210.12 L1629.05 2202.70 L1646.25 2202.70 L1646.25 2195.15 L1663.45 2195.15 L1663.45 2187.72 L1680.65 2187.72 L1680.65 2180.05 L1697.85 2180.05 L1697.85 2172.50 L1715.05 2172.50 L1715.05 2164.83 L1732.25 2164.83 L1732.25 2157.03 L1749.33 2157.03 L1749.33 2149.36 L1766.53 2149.36 L1766.53 2141.56 L1783.73 2141.56 L1783.73 2133.76 L1800.93 2133.76 L1800.93 2125.84 L1818.13 2125.84 L1818.13 2117.92 L1835.34 2117.92 L1835.34 2110.00 L1852.54 2110.00 L1852.54 2102.08 L1869.74 2102.08 L1869.74 2094.04 L1886.94 2094.04 L1886.94 2086.12 L1904.14 2086.12 L1904.14 2078.07 L1921.34 2078.07 L1921.34 2070.03 L1938.54 2070.03 L1938.54 2061.99 L1955.74 2061.99 L1955.74 2053.94 L1972.95 2053.94 L1972.95 2045.90 L1990.02 2045.90 L1990.02 2037.73 L2007.22 2037.73 L2007.22 2029.69 L2024.43 2029.69 L2024.43 2021.52 L2041.63 2021.52 L2041.63 2013.48 L2058.83 2013.48 L2058.83 2005.31 L2076.03 2005.31 L2076.03 1997.14 L2093.23 1997.14 L2093.23 1988.97 L2110.43 1988.97 L2110.43 1980.80 L2127.63 1980.80 L2127.63 1972.64 L2144.84 1972.64 L2144.84 1964.47 L2162.04 1964.47 L2162.04 1956.30 L2179.24 1956.30 L2179.24 1948.01 L2196.44 1948.01 L2196.44 1939.84 L2213.64 1939.84 L2213.64 1931.67 L2230.72 1931.67 L2230.72 1923.38 L2247.92 1923.38 L2247.92 1915.21 L2265.12 1915.21 L2265.12 1907.05 L2282.32 1907.05 L2282.32 1898.88 L2299.52 1898.88 L2299.52 1890.59 L2316.72 1890.59 L2316.72 1882.42 L2333.93 1882.42 L2333.93 1874.25 L2351.13 1874.25 L2351.13 1866.08 L2368.33 1866.08 L2368.33 1857.92 L2385.53 1857.92 L2385.53 1849.75 L2402.73 1849.75 L2402.73 1841.58 L2419.93 1841.58 L2419.93 1833.41 L2437.13 1833.41 L2437.13 1825.25 L2454.33 1825.25 L2454.33 1817.08 L2471.41 1817.08 L2471.41 1808.91 L2488.61 1808.91 L2488.61 1800.87 L2505.81 1800.87 L2505.81 1792.70 L2523.01 1792.70 L2523.01 1784.53 L2540.22 1784.53 L2540.22 1776.49 L2557.42 1776.49 L2557.42 1768.32 L2574.62 1768.32 L2574.62 1760.28 L2591.82 1760.28 L2591.82 1752.23 L2609.02 1752.23 L2609.02 1744.19 L2626.22 1744.19 L2626.22 1736.14 L2643.42 1736.14 L2643.42 1728.10 L2660.63 1728.10 L2660.63 1720.06 L2677.83 1720.06 L2677.83 1712.13 L2695.03 1712.13 L2695.03 1704.09 L2712.11 1704.09 L2712.11 1696.17 L2729.31 1696.17 L2729.31 1688.13 L2746.51 1688.13 L2746.51 1680.21 L2763.71 1680.21 L2763.71 1672.16 L2780.91 1672.16 L2780.91 1664.24 L2798.11 1664.24 L2798.11 1656.32 L2815.31 1656.32 L2815.31 1648.40 L2832.51 1648.40 L2832.51 1640.48 L2849.72 1640.48 L2849.72 1632.56 L2866.92 1632.56 L2866.92 1624.64 L2884.12 1624.64 L2884.12 1616.84 L2901.32 1616.84 L2901.32 1608.92 L2918.52 1608.92 L2918.52 1601.13 L2935.72 1601.13 L2935.72 1593.21 L2952.80 1593.21 L2952.80 1585.41 L2970.00 1585.41 L2970.00 1577.61 L2987.20 1577.61 L2987.20 1569.82 L3004.40 1569.82 L3004.40 1562.02 L3021.60 1562.02 L3021.60 1554.35 L3038.80 1554.35 L3038.80 1546.55 L3056.01 1546.55 L3056.01 1538.88 L3073.21 1538.88 L3073.21 1531.08 L3090.41 1531.08 L3090.41 1523.41 L3107.61 1523.41 L3107.61 1515.74 L3124.81 1515.74 L3124.81 1508.19 L3142.01 1508.19 L3142.01 1500.52 L3159.21 1500.52 L3159.21 1492.84 L3176.29 1492.84 L3176.29 1485.29 L3193.49 1485.29 L3193.49 1477.62 L3210.69 1477.62 L3210.69 1470.07 L3227.89 1470.07 L3227.89 1462.52 L3245.10 1462.52 L3245.10 1454.85 L3262.30 1454.85 L3262.30 1447.30 L3279.50 1447.30 L3279.50 1439.75 L3296.70 1439.75 L3296.70 1432.33 L3313.90 1432.33 L3313.90 1424.78 L3331.10 1424.78 L3331.10 1417.23 L3348.30 1417.23 L3348.30 1409.80 L3365.51 1409.80 L3365.51 1402.38 L3382.71 1402.38 L3382.71 1394.95 L3399.91 1394.95 L3399.91 1387.40 L3416.99 1387.40 L3416.99 1380.10 L3434.19 1380.10 L3434.19 1372.68 L3451.39 1372.68 L3451.39 1365.25 L3468.59 1365.25 L3468.59 1357.83 L3485.79 1357.83 L3485.79 1350.53 L3502.99 1350.53 L3502.99 1343.22 L3520.19 1343.22 L3520.19 1335.80 L3537.39 1335.80 L3537.39 1328.50 L3554.59 1328.50 L3554.59 1321.20 L3571.80 1321.20 L3571.80 1313.89 L3589.00 1313.89 L3589.00 1306.59 L3606.20 1306.59 L3606.20 1299.29 L3623.40 1299.29 L3623.40 1291.99 L3640.60 1291.99 L3640.60 1284.81 L3657.68 1284.81 L3657.68 1277.51 L3674.88 1277.51 L3674.88 1270.33 L3692.08 1270.33 L3692.08 1263.03 L3709.28 1263.03 L3709.28 1255.85 L3726.48 1255.85 L3726.48 1248.68 L3743.68 1248.68 L3743.68 1241.38 L3760.89 1241.38 L3760.89 1234.20 L3778.09 1234.20 L3778.09 1227.02 L3795.29 1227.02 L3795.29 1219.97 L3795.29 652.43 L3795.29 664.06 L3778.09 664.06 L3778.09 675.82 L3760.89 675.82 L3760.89 687.45 L3743.68 687.45 L3743.68 699.09 L3726.48 699.09 L3726.48 710.84 L3709.28 710.84 L3709.28 722.48 L3692.08 722.48 L3692.08 734.23 L3674.88 734.23 L3674.88 745.86 L3657.68 745.86 L3657.68 757.50 L3640.60 757.50 L3640.60 769.25 L3623.40 769.25 L3623.40 780.89 L3606.20 780.89 L3606.20 792.64 L3589.00 792.64 L3589.00 804.28 L3571.80 804.28 L3571.80 815.91 L3554.59 815.91 L3554.59 827.54 L3537.39 827.54 L3537.39 839.30 L3520.19 839.30 L3520.19 850.93 L3502.99 850.93 L3502.99 862.56 L3485.79 862.56 L3485.79 874.32 L3468.59 874.32 L3468.59 885.95 L3451.39 885.95 L3451.39 897.71 L3434.19 897.71 L3434.19 909.34 L3416.99 909.34 L3416.99 920.98 L3399.91 920.98 L3399.91 932.73 L3382.71 932.73 L3382.71 944.49 L3365.51 944.49 L3365.51 956.12 L3348.30 956.12 L3348.30 967.88 L3331.10 967.88 L3331.10 979.51 L3313.90 979.51 L3313.90 991.27 L3296.70 991.27 L3296.70 1003.03 L3279.50 1003.03 L3279.50 1014.66 L3262.30 1014.66 L3262.30 1026.41 L3245.10 1026.41 L3245.10 1038.17 L3227.89 1038.17 L3227.89 1049.93 L3210.69 1049.93 L3210.69 1061.68 L3193.49 1061.68 L3193.49 1073.32 L3176.29 1073.32 L3176.29 1085.07 L3159.21 1085.07 L3159.21 1096.83 L3142.01 1096.83 L3142.01 1108.59 L3124.81 1108.59 L3124.81 1120.22 L3107.61 1120.22 L3107.61 1131.98 L3090.41 1131.98 L3090.41 1143.73 L3073.21 1143.73 L3073.21 1155.49 L3056.01 1155.49 L3056.01 1167.25 L3038.80 1167.25 L3038.80 1179.00 L3021.60 1179.00 L3021.60 1190.76 L3004.40 1190.76 L3004.40 1202.52 L2987.20 1202.52 L2987.20 1214.27 L2970.00 1214.27 L2970.00 1226.15 L2952.80 1226.15 L2952.80 1237.91 L2935.72 1237.91 L2935.72 1249.67 L2918.52 1249.67 L2918.52 1261.42 L2901.32 1261.42 L2901.32 1273.30 L2884.12 1273.30 L2884.12 1285.06 L2866.92 1285.06 L2866.92 1296.82 L2849.72 1296.82 L2849.72 1308.70 L2832.51 1308.70 L2832.51 1320.45 L2815.31 1320.45 L2815.31 1332.21 L2798.11 1332.21 L2798.11 1343.97 L2780.91 1343.97 L2780.91 1355.72 L2763.71 1355.72 L2763.71 1367.48 L2746.51 1367.48 L2746.51 1379.24 L2729.31 1379.24 L2729.31 1390.99 L2712.11 1390.99 L2712.11 1402.75 L2695.03 1402.75 L2695.03 1414.51 L2677.83 1414.51 L2677.83 1426.26 L2660.63 1426.26 L2660.63 1438.02 L2643.42 1438.02 L2643.42 1449.78 L2626.22 1449.78 L2626.22 1461.53 L2609.02 1461.53 L2609.02 1473.17 L2591.82 1473.17 L2591.82 1484.92 L2574.62 1484.92 L2574.62 1496.68 L2557.42 1496.68 L2557.42 1508.31 L2540.22 1508.31 L2540.22 1520.07 L2523.01 1520.07 L2523.01 1531.83 L2505.81 1531.83 L2505.81 1543.58 L2488.61 1543.58 L2488.61 1555.21 L2471.41 1555.21 L2471.41 1566.97 L2454.33 1566.97 L2454.33 1578.73 L2437.13 1578.73 L2437.13 1590.36 L2419.93 1590.36 L2419.93 1601.99 L2402.73 1601.99 L2402.73 1613.63 L2385.53 1613.63 L2385.53 1625.26 L2368.33 1625.26 L2368.33 1637.02 L2351.13 1637.02 L2351.13 1648.65 L2333.93 1648.65 L2333.93 1660.16 L2316.72 1660.16 L2316.72 1671.79 L2299.52 1671.79 L2299.52 1683.42 L2282.32 1683.42 L2282.32 1694.93 L2265.12 1694.93 L2265.12 1706.57 L2247.92 1706.57 L2247.92 1718.07 L2230.72 1718.07 L2230.72 1729.58 L2213.64 1729.58 L2213.64 1741.22 L2196.44 1741.22 L2196.44 1752.73 L2179.24 1752.73 L2179.24 1764.11 L2162.04 1764.11 L2162.04 1775.62 L2144.84 1775.62 L2144.84 1787.01 L2127.63 1787.01 L2127.63 1798.51 L2110.43 1798.51 L2110.43 1809.90 L2093.23 1809.90 L2093.23 1821.16 L2076.03 1821.16 L2076.03 1832.55 L2058.83 1832.55 L2058.83 1843.81 L2041.63 1843.81 L2041.63 1855.07 L2024.43 1855.07 L2024.43 1866.33 L2007.22 1866.33 L2007.22 1877.59 L1990.02 1877.59 L1990.02 1888.73 L1972.95 1888.73 L1972.95 1899.87 L1955.74 1899.87 L1955.74 1911.01 L1938.54 1911.01 L1938.54 1922.02 L1921.34 1922.02 L1921.34 1933.04 L1904.14 1933.04 L1904.14 1944.05 L1886.94 1944.05 L1886.94 1955.06 L1869.74 1955.06 L1869.74 1965.95 L1852.54 1965.95 L1852.54 1976.97 L1835.34 1976.97 L1835.34 1987.73 L1818.13 1987.73 L1818.13 1998.62 L1800.93 1998.62 L1800.93 2009.39 L1783.73 2009.39 L1783.73 2020.03 L1766.53 2020.03 L1766.53 2030.68 L1749.33 2030.68 L1749.33 2041.20 L1732.25 2041.20 L1732.25 2051.72 L1715.05 2051.72 L1715.05 2062.23 L1697.85 2062.23 L1697.85 2072.63 L1680.65 2072.63 L1680.65 2083.03 L1663.45 2083.03 L1663.45 2093.30 L1646.25 2093.30 L1646.25 2103.44 L1629.05 2103.44 L1629.05 2113.59 L1611.84 2113.59 L1611.84 2123.62 L1594.64 2123.62 L1594.64 2133.64 L1577.44 2133.64 L1577.44 2143.54 L1560.24 2143.54 L1560.24 2153.32 L1543.04 2153.32 L1543.04 2163.09 L1525.84 2163.09 L1525.84 2172.75 L1508.64 2172.75 L1508.64 2182.15 L1491.56 2182.15 L1491.56 2191.56 L1474.36 2191.56 L1474.36 2200.84 L1457.16 2200.84 L1457.16 2210.00 L1439.95 2210.00 L1439.95 2219.03 L1422.75 2219.03 L1422.75 2227.94 L1405.55 2227.94 L1405.55 2236.73 L1388.35 2236.73 L1388.35 2245.39 L1371.15 2245.39 L1371.15 2253.93 L1353.95 2253.93 L1353.95 2262.22 L1336.75 2262.22 L1336.75 2270.51 L1319.55 2270.51 L1319.55 2278.68 L1302.35 2278.68 L1302.35 2286.60 L1285.14 2286.60 L1285.14 2294.40 L1267.94 2294.40 L1267.94 2302.07 L1250.87 2302.07 L1250.87 2309.49 L1233.66 2309.49 L1233.66 2316.80 L1216.46 2316.80 L1216.46 2323.97 L1199.26 2323.97 L1199.26 2330.90 L1182.06 2330.90 L1182.06 2337.71 L1164.86 2337.71 L1164.86 2344.27 L1147.66 2344.27 L1147.66 2350.58 L1130.46 2350.58 L1130.46 2356.77 L1113.26 2356.77 L1113.26 2362.71 L1096.05 2362.71 L1096.05 2368.53 L1078.85 2368.53 L1078.85 2374.09 L1061.65 2374.09 L1061.65 2379.42 L1044.45 2379.42 L1044.45 2384.61 L1027.25 2384.61 L1027.25 2389.56 L1010.17 2389.56 L1010.17 2394.39 L992.97 2394.39 L992.97 2398.97 L975.77 2398.97 L975.77 2403.18 L958.57 2403.18 L958.57 2407.26 L941.37 2407.26 L941.37 2411.22 L924.16 2411.22 L924.16 2414.81 L906.96 2414.81 L906.96 2418.27 L889.76 2418.27 L889.76 2421.49 L872.56 2421.49 L872.56 2424.46 L855.36 2424.46 L855.36 2427.31 L838.16 2427.31 L838.16 2429.91 L820.96 2429.91 L820.96 2432.26 L803.76 2432.26 L803.76 2434.36 L786.55 2434.36 L786.55 2436.34 L769.48 2436.34 L769.48 2438.07 L752.28 2438.07 L752.28 2439.68 L735.08 2439.68 L735.08 2441.05 L717.87 2441.05 L717.87 2443.64 Z" stroke-linejoin="round"/>
	</defs>
	<defs>
		<clipPath id="clipPath_jwyiKmFU">
			<use xlink:href="#path_xrnPWBGX"/>
		</clipPath>
	</defs>
	<use xlink:href="#path_xrnPWBGX" style="stroke:none;fill:#333333;fill-opacity:0.35"/>
	<use xlink:href="#path_xrnPWBGX" style="fill:none;stroke:#000000;stroke-opacity:0.35;stroke-width:17.28" clip-path="url(#clipPath_jwyiKmFU)"/>
	<line x1="717.75" y1="2442.65" x2="734.95" y2="2442.65" style="stroke:#808080;stroke-width:8.64"/>
	<line x1="734.95" y1="2442.65" x2="734.95" y2="2441.66" style="stroke:#808080;stroke-width:8.64"/>
	<line x1="734.95" y1="2441.66" x2="752.15" y2="2441.66" style="stroke:#808080;stroke-width:8.64"/>
	<line x1="752.15" y1="2441.66" x2="752.15" y2="2440.55" style="stroke:#808080;stroke-width:8.64"/>
	<line x1="752.15" y1="2440.55" x2="755.99" y2="2440.55" style="stroke:#808080;stroke-width:8.64"/>
	<line x1="771.83" y1="2439.19" x2="786.55" y2="2439.19" style="stroke:#808080;stroke-width:8.64"/>
	<line x1="786.55" y1="2439.19" x2="786.55" y2="2437.70" style="stroke:#808080;stroke-width:8.64"/>
	<line x1="786.55" y1="2437.70" x2="803.76" y2="2437.70" style="stroke:#808080;stroke-width:8.64"/>
	<line x1="803.76" y1="2437.70" x2="803.76" y2="2436.09" style="stroke:#808080;stroke-width:8.64"/>
	<line x1="803.76" y1="2436.09" x2="809.08" y2="2436.09" style="stroke:#808080;stroke-width:8.64"/>
	<line x1="824.42" y1="2434.24" x2="838.16" y2="2434.24" style="stroke:#808080;stroke-width:8.64"/>
	<line x1="838.16" y1="2434.24" x2="838.16" y2="2432.13" style="stroke:#808080;stroke-width:8.64"/>
	<line x1="838.16" y1="2432.13" x2="855.36" y2="2432.13" style="stroke:#808080;stroke-width:8.64"/>
	<line x1="855.36" y1="2432.13" x2="855.36" y2="2430.03" style="stroke:#808080;stroke-width:8.64"/>
	<line x1="855.36" y1="2430.03" x2="860.56" y2="2430.03" style="stroke:#808080;stroke-width:8.64"/>
	<line x1="875.41" y1="2427.68" x2="889.76" y2="2427.68" style="stroke:#808080;stroke-width:8.64"/>
	<line x1="889.76" y1="2427.68" x2="889.76" y2="2425.08" style="stroke:#808080;stroke-width:8.64"/>
	<line x1="889.76" y1="2425.08" x2="906.84" y2="2425.08" style="stroke:#808080;stroke-width:8.64"/>
	<line x1="906.84" y1="2425.08" x2="906.84" y2="2422.36" style="stroke:#808080;stroke-width:8.64"/>
	<line x1="906.84" y1="2422.36" x2="910.43" y2="2422.36" style="stroke:#808080;stroke-width:8.64"/>
	<line x1="924.78" y1="2419.39" x2="941.24" y2="2419.39" style="stroke:#808080;stroke-width:8.64"/>
	<line x1="941.24" y1="2419.39" x2="941.24" y2="2416.29" style="stroke:#808080;stroke-width:8.64"/>
	<line x1="941.24" y1="2416.29" x2="958.44" y2="2416.29" style="stroke:#808080;stroke-width:8.64"/>
	<line x1="958.44" y1="2416.29" x2="958.44" y2="2413.08" style="stroke:#808080;stroke-width:8.64"/>
	<line x1="958.44" y1="2413.08" x2="958.69" y2="2413.08" style="stroke:#808080;stroke-width:8.64"/>
	<line x1="975.64" y1="2412.71" x2="975.64" y2="2409.61" style="stroke:#808080;stroke-width:8.64"/>
	<line x1="975.64" y1="2409.61" x2="992.85" y2="2409.61" style="stroke:#808080;stroke-width:8.64"/>
	<line x1="992.85" y1="2409.61" x2="992.85" y2="2405.90" style="stroke:#808080;stroke-width:8.64"/>
	<line x1="992.85" y1="2405.90" x2="1009.18" y2="2405.90" style="stroke:#808080;stroke-width:8.64"/>
	<line x1="1022.55" y1="2402.06" x2="1027.25" y2="2402.06" style="stroke:#808080;stroke-width:8.64"/>
	<line x1="1027.25" y1="2402.06" x2="1027.25" y2="2398.10" style="stroke:#808080;stroke-width:8.64"/>
	<line x1="1027.25" y1="2398.10" x2="1044.45" y2="2398.10" style="stroke:#808080;stroke-width:8.64"/>
	<line x1="1044.45" y1="2398.10" x2="1044.45" y2="2393.89" style="stroke:#808080;stroke-width:8.64"/>
	<line x1="1044.45" y1="2393.89" x2="1054.72" y2="2393.89" style="stroke:#808080;stroke-width:8.64"/>
	<line x1="1067.59" y1="2389.56" x2="1078.85" y2="2389.56" style="stroke:#808080;stroke-width:8.64"/>
	<line x1="1078.85" y1="2389.56" x2="1078.85" y2="2384.98" style="stroke:#808080;stroke-width:8.64"/>
	<line x1="1078.85" y1="2384.98" x2="1096.05" y2="2384.98" style="stroke:#808080;stroke-width:8.64"/>
	<line x1="1096.05" y1="2384.98" x2="1096.05" y2="2380.28" style="stroke:#808080;stroke-width:8.64"/>
	<line x1="1096.05" y1="2380.28" x2="1098.65" y2="2380.28" style="stroke:#808080;stroke-width:8.64"/>
	<line x1="1113.26" y1="2377.56" x2="1113.26" y2="2375.46" style="stroke:#808080;stroke-width:8.64"/>
	<line x1="1113.26" y1="2375.46" x2="1130.46" y2="2375.46" style="stroke:#808080;stroke-width:8.64"/>
	<line x1="1130.46" y1="2375.46" x2="1130.46" y2="2370.51" style="stroke:#808080;stroke-width:8.64"/>
	<line x1="1130.46" y1="2370.51" x2="1146.42" y2="2370.51" style="stroke:#808080;stroke-width:8.64"/>
	<line x1="1158.42" y1="2365.18" x2="1164.73" y2="2365.18" style="stroke:#808080;stroke-width:8.64"/>
	<line x1="1164.73" y1="2365.18" x2="1164.73" y2="2359.86" style="stroke:#808080;stroke-width:8.64"/>
	<line x1="1164.73" y1="2359.86" x2="1181.94" y2="2359.86" style="stroke:#808080;stroke-width:8.64"/>
	<line x1="1181.94" y1="2359.86" x2="1181.94" y2="2354.29" style="stroke:#808080;stroke-width:8.64"/>
	<line x1="1181.94" y1="2354.29" x2="1187.88" y2="2354.29" style="stroke:#808080;stroke-width:8.64"/>
	<line x1="1199.38" y1="2348.60" x2="1216.34" y2="2348.60" style="stroke:#808080;stroke-width:8.64"/>
	<line x1="1216.34" y1="2348.60" x2="1216.34" y2="2342.78" style="stroke:#808080;stroke-width:8.64"/>
	<line x1="1216.34" y1="2342.78" x2="1233.54" y2="2342.78" style="stroke:#808080;stroke-width:8.64"/>
	<line x1="1233.54" y1="2342.78" x2="1233.54" y2="2342.41" style="stroke:#808080;stroke-width:8.64"/>
	<line x1="1245.17" y1="2336.84" x2="1250.74" y2="2336.84" style="stroke:#808080;stroke-width:8.64"/>
	<line x1="1250.74" y1="2336.84" x2="1250.74" y2="2330.66" style="stroke:#808080;stroke-width:8.64"/>
	<line x1="1250.74" y1="2330.66" x2="1267.94" y2="2330.66" style="stroke:#808080;stroke-width:8.64"/>
	<line x1="1267.94" y1="2330.66" x2="1267.94" y2="2324.35" style="stroke:#808080;stroke-width:8.64"/>
	<line x1="1267.94" y1="2324.35" x2="1273.02" y2="2324.35" style="stroke:#808080;stroke-width:8.64"/>
	<line x1="1285.14" y1="2319.27" x2="1285.14" y2="2317.91" style="stroke:#808080;stroke-width:8.64"/>
	<line x1="1285.14" y1="2317.91" x2="1302.35" y2="2317.91" style="stroke:#808080;stroke-width:8.64"/>
	<line x1="1302.35" y1="2317.91" x2="1302.35" y2="2311.35" style="stroke:#808080;stroke-width:8.64"/>
	<line x1="1302.35" y1="2311.35" x2="1317.57" y2="2311.35" style="stroke:#808080;stroke-width:8.64"/>
	<line x1="1328.21" y1="2304.67" x2="1336.75" y2="2304.67" style="stroke:#808080;stroke-width:8.64"/>
	<line x1="1336.75" y1="2304.67" x2="1336.75" y2="2297.86" style="stroke:#808080;stroke-width:8.64"/>
	<line x1="1336.75" y1="2297.86" x2="1353.95" y2="2297.86" style="stroke:#808080;stroke-width:8.64"/>
	<line x1="1353.95" y1="2297.86" x2="1353.95" y2="2290.93" style="stroke:#808080;stroke-width:8.64"/>
	<line x1="1353.95" y1="2290.93" x2="1354.69" y2="2290.93" style="stroke:#808080;stroke-width:8.64"/>
	<line x1="1371.15" y1="2290.07" x2="1371.15" y2="2283.75" style="stroke:#808080;stroke-width:8.64"/>
	<line x1="1371.15" y1="2283.75" x2="1388.23" y2="2283.75" style="stroke:#808080;stroke-width:8.64"/>
	<line x1="1388.23" y1="2283.75" x2="1388.23" y2="2276.58" style="stroke:#808080;stroke-width:8.64"/>
	<line x1="1388.23" y1="2276.58" x2="1398.00" y2="2276.58" style="stroke:#808080;stroke-width:8.64"/>
	<line x1="1407.90" y1="2269.27" x2="1422.63" y2="2269.27" style="stroke:#808080;stroke-width:8.64"/>
	<line x1="1422.63" y1="2269.27" x2="1422.63" y2="2261.85" style="stroke:#808080;stroke-width:8.64"/>
	<line x1="1422.63" y1="2261.85" x2="1439.83" y2="2261.85" style="stroke:#808080;stroke-width:8.64"/>
	<line x1="1439.83" y1="2261.85" x2="1439.83" y2="2260.86" style="stroke:#808080;stroke-width:8.64"/>
	<line x1="1450.60" y1="2254.42" x2="1457.03" y2="2254.42" style="stroke:#808080;stroke-width:8.64"/>
	<line x1="1457.03" y1="2254.42" x2="1457.03" y2="2246.75" style="stroke:#808080;stroke-width:8.64"/>
	<line x1="1457.03" y1="2246.75" x2="1474.23" y2="2246.75" style="stroke:#808080;stroke-width:8.64"/>
	<line x1="1474.23" y1="2246.75" x2="1474.23" y2="2238.95" style="stroke:#808080;stroke-width:8.64"/>
	<line x1="1474.23" y1="2238.95" x2="1475.47" y2="2238.95" style="stroke:#808080;stroke-width:8.64"/>
	<line x1="1491.43" y1="2237.72" x2="1491.43" y2="2231.16" style="stroke:#808080;stroke-width:8.64"/>
	<line x1="1491.43" y1="2231.16" x2="1508.64" y2="2231.16" style="stroke:#808080;stroke-width:8.64"/>
	<line x1="1508.64" y1="2231.16" x2="1508.64" y2="2223.11" style="stroke:#808080;stroke-width:8.64"/>
	<line x1="1508.64" y1="2223.11" x2="1517.17" y2="2223.11" style="stroke:#808080;stroke-width:8.64"/>
	<line x1="1526.46" y1="2215.07" x2="1543.04" y2="2215.07" style="stroke:#808080;stroke-width:8.64"/>
	<line x1="1543.04" y1="2215.07" x2="1543.04" y2="2206.90" style="stroke:#808080;stroke-width:8.64"/>
	<line x1="1543.04" y1="2206.90" x2="1558.63" y2="2206.90" style="stroke:#808080;stroke-width:8.64"/>
	<line x1="1567.66" y1="2198.73" x2="1577.44" y2="2198.73" style="stroke:#808080;stroke-width:8.64"/>
	<line x1="1577.44" y1="2198.73" x2="1577.44" y2="2190.32" style="stroke:#808080;stroke-width:8.64"/>
	<line x1="1577.44" y1="2190.32" x2="1594.64" y2="2190.32" style="stroke:#808080;stroke-width:8.64"/>
	<line x1="1594.64" y1="2190.32" x2="1594.64" y2="2185.37" style="stroke:#808080;stroke-width:8.64"/>
	<line x1="1608.38" y1="2181.90" x2="1611.84" y2="2181.90" style="stroke:#808080;stroke-width:8.64"/>
	<line x1="1611.84" y1="2181.90" x2="1611.84" y2="2173.37" style="stroke:#808080;stroke-width:8.64"/>
	<line x1="1611.84" y1="2173.37" x2="1628.92" y2="2173.37" style="stroke:#808080;stroke-width:8.64"/>
	<line x1="1628.92" y1="2173.37" x2="1628.92" y2="2164.83" style="stroke:#808080;stroke-width:8.64"/>
	<line x1="1628.92" y1="2164.83" x2="1631.64" y2="2164.83" style="stroke:#808080;stroke-width:8.64"/>
	<line x1="1646.12" y1="2162.10" x2="1646.12" y2="2156.16" style="stroke:#808080;stroke-width:8.64"/>
	<line x1="1646.12" y1="2156.16" x2="1663.32" y2="2156.16" style="stroke:#808080;stroke-width:8.64"/>
	<line x1="1663.32" y1="2156.16" x2="1663.32" y2="2147.50" style="stroke:#808080;stroke-width:8.64"/>
	<line x1="1663.32" y1="2147.50" x2="1671.86" y2="2147.50" style="stroke:#808080;stroke-width:8.64"/>
	<line x1="1680.53" y1="2138.84" x2="1680.53" y2="2138.71" style="stroke:#808080;stroke-width:8.64"/>
	<line x1="1680.53" y1="2138.71" x2="1697.73" y2="2138.71" style="stroke:#808080;stroke-width:8.64"/>
	<line x1="1697.73" y1="2138.71" x2="1697.73" y2="2129.80" style="stroke:#808080;stroke-width:8.64"/>
	<line x1="1697.73" y1="2129.80" x2="1711.83" y2="2129.80" style="stroke:#808080;stroke-width:8.64"/>
	<line x1="1720.13" y1="2120.89" x2="1732.13" y2="2120.89" style="stroke:#808080;stroke-width:8.64"/>
	<line x1="1732.13" y1="2120.89" x2="1732.13" y2="2111.98" style="stroke:#808080;stroke-width:8.64"/>
	<line x1="1732.13" y1="2111.98" x2="1749.33" y2="2111.98" style="stroke:#808080;stroke-width:8.64"/>
	<line x1="1749.33" y1="2111.98" x2="1749.33" y2="2109.76" style="stroke:#808080;stroke-width:8.64"/>
	<line x1="1759.72" y1="2102.95" x2="1766.53" y2="2102.95" style="stroke:#808080;stroke-width:8.64"/>
	<line x1="1766.53" y1="2102.95" x2="1766.53" y2="2093.92" style="stroke:#808080;stroke-width:8.64"/>
	<line x1="1766.53" y1="2093.92" x2="1783.73" y2="2093.92" style="stroke:#808080;stroke-width:8.64"/>
	<line x1="1783.73" y1="2093.92" x2="1783.73" y2="2086.61" style="stroke:#808080;stroke-width:8.64"/>
	<line x1="1799.08" y1="2084.76" x2="1800.93" y2="2084.76" style="stroke:#808080;stroke-width:8.64"/>
	<line x1="1800.93" y1="2084.76" x2="1800.93" y2="2075.60" style="stroke:#808080;stroke-width:8.64"/>
	<line x1="1800.93" y1="2075.60" x2="1818.13" y2="2075.60" style="stroke:#808080;stroke-width:8.64"/>
	<line x1="1818.13" y1="2075.60" x2="1818.13" y2="2066.44" style="stroke:#808080;stroke-width:8.64"/>
	<line x1="1818.13" y1="2066.44" x2="1821.23" y2="2066.44" style="stroke:#808080;stroke-width:8.64"/>
	<line x1="1835.34" y1="2063.35" x2="1835.34" y2="2057.16" style="stroke:#808080;stroke-width:8.64"/>
	<line x1="1835.34" y1="2057.16" x2="1852.54" y2="2057.16" style="stroke:#808080;stroke-width:8.64"/>
	<line x1="1852.54" y1="2057.16" x2="1852.54" y2="2047.88" style="stroke:#808080;stroke-width:8.64"/>
	<line x1="1852.54" y1="2047.88" x2="1860.21" y2="2047.88" style="stroke:#808080;stroke-width:8.64"/>
	<line x1="1869.62" y1="2040.08" x2="1869.62" y2="2038.60" style="stroke:#808080;stroke-width:8.64"/>
	<line x1="1869.62" y1="2038.60" x2="1886.82" y2="2038.60" style="stroke:#808080;stroke-width:8.64"/>
	<line x1="1886.82" y1="2038.60" x2="1886.82" y2="2029.19" style="stroke:#808080;stroke-width:8.64"/>
	<line x1="1886.82" y1="2029.19" x2="1899.07" y2="2029.19" style="stroke:#808080;stroke-width:8.64"/>
	<line x1="1906.86" y1="2019.79" x2="1921.22" y2="2019.79" style="stroke:#808080;stroke-width:8.64"/>
	<line x1="1921.22" y1="2019.79" x2="1921.22" y2="2010.38" style="stroke:#808080;stroke-width:8.64"/>
	<line x1="1921.22" y1="2010.38" x2="1937.80" y2="2010.38" style="stroke:#808080;stroke-width:8.64"/>
	<line x1="1945.47" y1="2000.85" x2="1955.62" y2="2000.85" style="stroke:#808080;stroke-width:8.64"/>
	<line x1="1955.62" y1="2000.85" x2="1955.62" y2="1991.45" style="stroke:#808080;stroke-width:8.64"/>
	<line x1="1955.62" y1="1991.45" x2="1972.82" y2="1991.45" style="stroke:#808080;stroke-width:8.64"/>
	<line x1="1972.82" y1="1991.45" x2="1972.82" y2="1987.86" style="stroke:#808080;stroke-width:8.64"/>
	<line x1="1984.08" y1="1981.92" x2="1990.02" y2="1981.92" style="stroke:#808080;stroke-width:8.64"/>
	<line x1="1990.02" y1="1981.92" x2="1990.02" y2="1972.39" style="stroke:#808080;stroke-width:8.64"/>
	<line x1="1990.02" y1="1972.39" x2="2007.22" y2="1972.39" style="stroke:#808080;stroke-width:8.64"/>
	<line x1="2007.22" y1="1972.39" x2="2007.22" y2="1964.72" style="stroke:#808080;stroke-width:8.64"/>
	<line x1="2022.57" y1="1962.74" x2="2024.43" y2="1962.74" style="stroke:#808080;stroke-width:8.64"/>
	<line x1="2024.43" y1="1962.74" x2="2024.43" y2="1953.21" style="stroke:#808080;stroke-width:8.64"/>
	<line x1="2024.43" y1="1953.21" x2="2041.63" y2="1953.21" style="stroke:#808080;stroke-width:8.64"/>
	<line x1="2041.63" y1="1953.21" x2="2041.63" y2="1943.55" style="stroke:#808080;stroke-width:8.64"/>
	<line x1="2041.63" y1="1943.55" x2="2043.73" y2="1943.55" style="stroke:#808080;stroke-width:8.64"/>
	<line x1="2058.83" y1="1941.45" x2="2058.83" y2="1933.90" style="stroke:#808080;stroke-width:8.64"/>
	<line x1="2058.83" y1="1933.90" x2="2076.03" y2="1933.90" style="stroke:#808080;stroke-width:8.64"/>
	<line x1="2076.03" y1="1933.90" x2="2076.03" y2="1924.25" style="stroke:#808080;stroke-width:8.64"/>
	<line x1="2076.03" y1="1924.25" x2="2081.97" y2="1924.25" style="stroke:#808080;stroke-width:8.64"/>
	<line x1="2093.23" y1="1918.31" x2="2093.23" y2="1914.60" style="stroke:#808080;stroke-width:8.64"/>
	<line x1="2093.23" y1="1914.60" x2="2110.31" y2="1914.60" style="stroke:#808080;stroke-width:8.64"/>
	<line x1="2110.31" y1="1914.60" x2="2110.31" y2="1904.94" style="stroke:#808080;stroke-width:8.64"/>
	<line x1="2110.31" y1="1904.94" x2="2120.21" y2="1904.94" style="stroke:#808080;stroke-width:8.64"/>
	<line x1="2127.63" y1="1895.17" x2="2144.71" y2="1895.17" style="stroke:#808080;stroke-width:8.64"/>
	<line x1="2144.71" y1="1895.17" x2="2144.71" y2="1885.39" style="stroke:#808080;stroke-width:8.64"/>
	<line x1="2144.71" y1="1885.39" x2="2158.20" y2="1885.39" style="stroke:#808080;stroke-width:8.64"/>
	<line x1="2165.75" y1="1875.61" x2="2179.11" y2="1875.61" style="stroke:#808080;stroke-width:8.64"/>
	<line x1="2179.11" y1="1875.61" x2="2179.11" y2="1865.84" style="stroke:#808080;stroke-width:8.64"/>
	<line x1="2179.11" y1="1865.84" x2="2196.32" y2="1865.84" style="stroke:#808080;stroke-width:8.64"/>
	<line x1="2203.74" y1="1856.06" x2="2213.52" y2="1856.06" style="stroke:#808080;stroke-width:8.64"/>
	<line x1="2213.52" y1="1856.06" x2="2213.52" y2="1846.28" style="stroke:#808080;stroke-width:8.64"/>
	<line x1="2213.52" y1="1846.28" x2="2230.72" y2="1846.28" style="stroke:#808080;stroke-width:8.64"/>
	<line x1="2230.72" y1="1846.28" x2="2230.72" y2="1842.70" style="stroke:#808080;stroke-width:8.64"/>
	<line x1="2241.61" y1="1836.38" x2="2247.92" y2="1836.38" style="stroke:#808080;stroke-width:8.64"/>
	<line x1="2247.92" y1="1836.38" x2="2247.92" y2="1826.48" style="stroke:#808080;stroke-width:8.64"/>
	<line x1="2247.92" y1="1826.48" x2="2265.12" y2="1826.48" style="stroke:#808080;stroke-width:8.64"/>
	<line x1="2265.12" y1="1826.48" x2="2265.12" y2="1819.55" style="stroke:#808080;stroke-width:8.64"/>
	<line x1="2279.47" y1="1816.71" x2="2282.32" y2="1816.71" style="stroke:#808080;stroke-width:8.64"/>
	<line x1="2282.32" y1="1816.71" x2="2282.32" y2="1806.81" style="stroke:#808080;stroke-width:8.64"/>
	<line x1="2282.32" y1="1806.81" x2="2299.52" y2="1806.81" style="stroke:#808080;stroke-width:8.64"/>
	<line x1="2299.52" y1="1806.81" x2="2299.52" y2="1796.91" style="stroke:#808080;stroke-width:8.64"/>
	<line x1="2299.52" y1="1796.91" x2="2300.02" y2="1796.91" style="stroke:#808080;stroke-width:8.64"/>
	<line x1="2316.72" y1="1796.29" x2="2316.72" y2="1787.01" style="stroke:#808080;stroke-width:8.64"/>
	<line x1="2316.72" y1="1787.01" x2="2333.93" y2="1787.01" style="stroke:#808080;stroke-width:8.64"/>
	<line x1="2333.93" y1="1787.01" x2="2333.93" y2="1777.23" style="stroke:#808080;stroke-width:8.64"/>
	<line x1="2333.93" y1="1777.23" x2="2338.01" y2="1777.23" style="stroke:#808080;stroke-width:8.64"/>
	<line x1="2351.00" y1="1773.02" x2="2351.00" y2="1767.33" style="stroke:#808080;stroke-width:8.64"/>
	<line x1="2351.00" y1="1767.33" x2="2368.20" y2="1767.33" style="stroke:#808080;stroke-width:8.64"/>
	<line x1="2368.20" y1="1767.33" x2="2368.20" y2="1757.43" style="stroke:#808080;stroke-width:8.64"/>
	<line x1="2368.20" y1="1757.43" x2="2375.75" y2="1757.43" style="stroke:#808080;stroke-width:8.64"/>
	<line x1="2385.41" y1="1749.88" x2="2385.41" y2="1747.53" style="stroke:#808080;stroke-width:8.64"/>
	<line x1="2385.41" y1="1747.53" x2="2402.61" y2="1747.53" style="stroke:#808080;stroke-width:8.64"/>
	<line x1="2402.61" y1="1747.53" x2="2402.61" y2="1737.63" style="stroke:#808080;stroke-width:8.64"/>
	<line x1="2402.61" y1="1737.63" x2="2413.50" y2="1737.63" style="stroke:#808080;stroke-width:8.64"/>
	<line x1="2420.80" y1="1727.73" x2="2437.01" y2="1727.73" style="stroke:#808080;stroke-width:8.64"/>
	<line x1="2437.01" y1="1727.73" x2="2437.01" y2="1717.83" style="stroke:#808080;stroke-width:8.64"/>
	<line x1="2437.01" y1="1717.83" x2="2451.24" y2="1717.83" style="stroke:#808080;stroke-width:8.64"/>
	<line x1="2458.66" y1="1707.93" x2="2471.41" y2="1707.93" style="stroke:#808080;stroke-width:8.64"/>
	<line x1="2471.41" y1="1707.93" x2="2471.41" y2="1698.03" style="stroke:#808080;stroke-width:8.64"/>
	<line x1="2471.41" y1="1698.03" x2="2488.61" y2="1698.03" style="stroke:#808080;stroke-width:8.64"/>
	<line x1="2488.61" y1="1698.03" x2="2488.61" y2="1697.53" style="stroke:#808080;stroke-width:8.64"/>
	<line x1="2496.28" y1="1688.00" x2="2505.81" y2="1688.00" style="stroke:#808080;stroke-width:8.64"/>
	<line x1="2505.81" y1="1688.00" x2="2505.81" y2="1678.10" style="stroke:#808080;stroke-width:8.64"/>
	<line x1="2505.81" y1="1678.10" x2="2523.01" y2="1678.10" style="stroke:#808080;stroke-width:8.64"/>
	<line x1="2523.01" y1="1678.10" x2="2523.01" y2="1674.39" style="stroke:#808080;stroke-width:8.64"/>
	<line x1="2534.03" y1="1668.20" x2="2540.22" y2="1668.20" style="stroke:#808080;stroke-width:8.64"/>
	<line x1="2540.22" y1="1668.20" x2="2540.22" y2="1658.30" style="stroke:#808080;stroke-width:8.64"/>
	<line x1="2540.22" y1="1658.30" x2="2557.42" y2="1658.30" style="stroke:#808080;stroke-width:8.64"/>
	<line x1="2557.42" y1="1658.30" x2="2557.42" y2="1651.25" style="stroke:#808080;stroke-width:8.64"/>
	<line x1="2571.77" y1="1648.40" x2="2574.62" y2="1648.40" style="stroke:#808080;stroke-width:8.64"/>
	<line x1="2574.62" y1="1648.40" x2="2574.62" y2="1638.50" style="stroke:#808080;stroke-width:8.64"/>
	<line x1="2574.62" y1="1638.50" x2="2591.70" y2="1638.50" style="stroke:#808080;stroke-width:8.64"/>
	<line x1="2591.70" y1="1638.50" x2="2591.70" y2="1628.60" style="stroke:#808080;stroke-width:8.64"/>
	<line x1="2591.70" y1="1628.60" x2="2592.32" y2="1628.60" style="stroke:#808080;stroke-width:8.64"/>
	<line x1="2608.90" y1="1627.98" x2="2608.90" y2="1618.70" style="stroke:#808080;stroke-width:8.64"/>
	<line x1="2608.90" y1="1618.70" x2="2626.10" y2="1618.70" style="stroke:#808080;stroke-width:8.64"/>
	<line x1="2626.10" y1="1618.70" x2="2626.10" y2="1608.80" style="stroke:#808080;stroke-width:8.64"/>
	<line x1="2626.10" y1="1608.80" x2="2630.06" y2="1608.80" style="stroke:#808080;stroke-width:8.64"/>
	<line x1="2643.30" y1="1604.84" x2="2643.30" y2="1598.90" style="stroke:#808080;stroke-width:8.64"/>
	<line x1="2643.30" y1="1598.90" x2="2660.50" y2="1598.90" style="stroke:#808080;stroke-width:8.64"/>
	<line x1="2660.50" y1="1598.90" x2="2660.50" y2="1589.00" style="stroke:#808080;stroke-width:8.64"/>
	<line x1="2660.50" y1="1589.00" x2="2667.93" y2="1589.00" style="stroke:#808080;stroke-width:8.64"/>
	<line x1="2677.70" y1="1581.57" x2="2677.70" y2="1579.10" style="stroke:#808080;stroke-width:8.64"/>
	<line x1="2677.70" y1="1579.10" x2="2694.90" y2="1579.10" style="stroke:#808080;stroke-width:8.64"/>
	<line x1="2694.90" y1="1579.10" x2="2694.90" y2="1569.20" style="stroke:#808080;stroke-width:8.64"/>
	<line x1="2694.90" y1="1569.20" x2="2705.67" y2="1569.20" style="stroke:#808080;stroke-width:8.64"/>
	<line x1="2712.97" y1="1559.30" x2="2729.31" y2="1559.30" style="stroke:#808080;stroke-width:8.64"/>
	<line x1="2729.31" y1="1559.30" x2="2729.31" y2="1549.40" style="stroke:#808080;stroke-width:8.64"/>
	<line x1="2729.31" y1="1549.40" x2="2743.41" y2="1549.40" style="stroke:#808080;stroke-width:8.64"/>
	<line x1="2750.72" y1="1539.50" x2="2763.71" y2="1539.50" style="stroke:#808080;stroke-width:8.64"/>
	<line x1="2763.71" y1="1539.50" x2="2763.71" y2="1529.72" style="stroke:#808080;stroke-width:8.64"/>
	<line x1="2763.71" y1="1529.72" x2="2780.91" y2="1529.72" style="stroke:#808080;stroke-width:8.64"/>
	<line x1="2780.91" y1="1529.72" x2="2780.91" y2="1529.35" style="stroke:#808080;stroke-width:8.64"/>
	<line x1="2788.71" y1="1519.82" x2="2798.11" y2="1519.82" style="stroke:#808080;stroke-width:8.64"/>
	<line x1="2798.11" y1="1519.82" x2="2798.11" y2="1510.04" style="stroke:#808080;stroke-width:8.64"/>
	<line x1="2798.11" y1="1510.04" x2="2815.31" y2="1510.04" style="stroke:#808080;stroke-width:8.64"/>
	<line x1="2815.31" y1="1510.04" x2="2815.31" y2="1506.08" style="stroke:#808080;stroke-width:8.64"/>
	<line x1="2826.57" y1="1500.14" x2="2832.39" y2="1500.14" style="stroke:#808080;stroke-width:8.64"/>
	<line x1="2832.39" y1="1500.14" x2="2832.39" y2="1490.37" style="stroke:#808080;stroke-width:8.64"/>
	<line x1="2832.39" y1="1490.37" x2="2849.59" y2="1490.37" style="stroke:#808080;stroke-width:8.64"/>
	<line x1="2849.59" y1="1490.37" x2="2849.59" y2="1482.82" style="stroke:#808080;stroke-width:8.64"/>
	<line x1="2864.44" y1="1480.47" x2="2866.79" y2="1480.47" style="stroke:#808080;stroke-width:8.64"/>
	<line x1="2866.79" y1="1480.47" x2="2866.79" y2="1470.69" style="stroke:#808080;stroke-width:8.64"/>
	<line x1="2866.79" y1="1470.69" x2="2883.99" y2="1470.69" style="stroke:#808080;stroke-width:8.64"/>
	<line x1="2883.99" y1="1470.69" x2="2883.99" y2="1460.79" style="stroke:#808080;stroke-width:8.64"/>
	<line x1="2883.99" y1="1460.79" x2="2885.11" y2="1460.79" style="stroke:#808080;stroke-width:8.64"/>
	<line x1="2901.20" y1="1459.68" x2="2901.20" y2="1451.01" style="stroke:#808080;stroke-width:8.64"/>
	<line x1="2901.20" y1="1451.01" x2="2918.40" y2="1451.01" style="stroke:#808080;stroke-width:8.64"/>
	<line x1="2918.40" y1="1451.01" x2="2918.40" y2="1441.11" style="stroke:#808080;stroke-width:8.64"/>
	<line x1="2918.40" y1="1441.11" x2="2922.97" y2="1441.11" style="stroke:#808080;stroke-width:8.64"/>
	<line x1="2935.60" y1="1436.41" x2="2935.60" y2="1431.34" style="stroke:#808080;stroke-width:8.64"/>
	<line x1="2935.60" y1="1431.34" x2="2952.80" y2="1431.34" style="stroke:#808080;stroke-width:8.64"/>
	<line x1="2952.80" y1="1431.34" x2="2952.80" y2="1421.44" style="stroke:#808080;stroke-width:8.64"/>
	<line x1="2952.80" y1="1421.44" x2="2960.97" y2="1421.44" style="stroke:#808080;stroke-width:8.64"/>
	<line x1="2970.00" y1="1413.27" x2="2970.00" y2="1411.66" style="stroke:#808080;stroke-width:8.64"/>
	<line x1="2970.00" y1="1411.66" x2="2987.20" y2="1411.66" style="stroke:#808080;stroke-width:8.64"/>
	<line x1="2987.20" y1="1411.66" x2="2987.20" y2="1401.88" style="stroke:#808080;stroke-width:8.64"/>
	<line x1="2987.20" y1="1401.88" x2="2998.96" y2="1401.88" style="stroke:#808080;stroke-width:8.64"/>
	<line x1="3006.26" y1="1391.98" x2="3021.60" y2="1391.98" style="stroke:#808080;stroke-width:8.64"/>
	<line x1="3021.60" y1="1391.98" x2="3021.60" y2="1382.21" style="stroke:#808080;stroke-width:8.64"/>
	<line x1="3021.60" y1="1382.21" x2="3036.82" y2="1382.21" style="stroke:#808080;stroke-width:8.64"/>
	<line x1="3044.25" y1="1372.43" x2="3055.88" y2="1372.43" style="stroke:#808080;stroke-width:8.64"/>
	<line x1="3055.88" y1="1372.43" x2="3055.88" y2="1362.53" style="stroke:#808080;stroke-width:8.64"/>
	<line x1="3055.88" y1="1362.53" x2="3073.08" y2="1362.53" style="stroke:#808080;stroke-width:8.64"/>
	<line x1="3073.08" y1="1362.53" x2="3073.08" y2="1360.92" style="stroke:#808080;stroke-width:8.64"/>
	<line x1="3082.12" y1="1352.75" x2="3090.28" y2="1352.75" style="stroke:#808080;stroke-width:8.64"/>
	<line x1="3090.28" y1="1352.75" x2="3090.28" y2="1342.98" style="stroke:#808080;stroke-width:8.64"/>
	<line x1="3090.28" y1="1342.98" x2="3107.49" y2="1342.98" style="stroke:#808080;stroke-width:8.64"/>
	<line x1="3107.49" y1="1342.98" x2="3107.49" y2="1337.78" style="stroke:#808080;stroke-width:8.64"/>
	<line x1="3120.23" y1="1333.20" x2="3124.69" y2="1333.20" style="stroke:#808080;stroke-width:8.64"/>
	<line x1="3124.69" y1="1333.20" x2="3124.69" y2="1323.30" style="stroke:#808080;stroke-width:8.64"/>
	<line x1="3124.69" y1="1323.30" x2="3141.89" y2="1323.30" style="stroke:#808080;stroke-width:8.64"/>
	<line x1="3141.89" y1="1323.30" x2="3141.89" y2="1314.51" style="stroke:#808080;stroke-width:8.64"/>
	<line x1="3158.10" y1="1313.52" x2="3159.09" y2="1313.52" style="stroke:#808080;stroke-width:8.64"/>
	<line x1="3159.09" y1="1313.52" x2="3159.09" y2="1303.75" style="stroke:#808080;stroke-width:8.64"/>
	<line x1="3159.09" y1="1303.75" x2="3176.29" y2="1303.75" style="stroke:#808080;stroke-width:8.64"/>
	<line x1="3176.29" y1="1303.75" x2="3176.29" y2="1293.97" style="stroke:#808080;stroke-width:8.64"/>
	<line x1="3176.29" y1="1293.97" x2="3178.89" y2="1293.97" style="stroke:#808080;stroke-width:8.64"/>
	<line x1="3193.49" y1="1291.37" x2="3193.49" y2="1284.19" style="stroke:#808080;stroke-width:8.64"/>
	<line x1="3193.49" y1="1284.19" x2="3210.69" y2="1284.19" style="stroke:#808080;stroke-width:8.64"/>
	<line x1="3210.69" y1="1284.19" x2="3210.69" y2="1274.42" style="stroke:#808080;stroke-width:8.64"/>
	<line x1="3210.69" y1="1274.42" x2="3216.88" y2="1274.42" style="stroke:#808080;stroke-width:8.64"/>
	<line x1="3227.89" y1="1268.23" x2="3227.89" y2="1264.76" style="stroke:#808080;stroke-width:8.64"/>
	<line x1="3227.89" y1="1264.76" x2="3245.10" y2="1264.76" style="stroke:#808080;stroke-width:8.64"/>
	<line x1="3245.10" y1="1264.76" x2="3245.10" y2="1254.99" style="stroke:#808080;stroke-width:8.64"/>
	<line x1="3245.10" y1="1254.99" x2="3255.12" y2="1254.99" style="stroke:#808080;stroke-width:8.64"/>
	<line x1="3262.67" y1="1245.34" x2="3279.50" y2="1245.34" style="stroke:#808080;stroke-width:8.64"/>
	<line x1="3279.50" y1="1245.34" x2="3279.50" y2="1235.56" style="stroke:#808080;stroke-width:8.64"/>
	<line x1="3279.50" y1="1235.56" x2="3293.24" y2="1235.56" style="stroke:#808080;stroke-width:8.64"/>
	<line x1="3300.78" y1="1225.91" x2="3313.78" y2="1225.91" style="stroke:#808080;stroke-width:8.64"/>
	<line x1="3313.78" y1="1225.91" x2="3313.78" y2="1216.25" style="stroke:#808080;stroke-width:8.64"/>
	<line x1="3313.78" y1="1216.25" x2="3330.98" y2="1216.25" style="stroke:#808080;stroke-width:8.64"/>
	<line x1="3330.98" y1="1216.25" x2="3330.98" y2="1215.76" style="stroke:#808080;stroke-width:8.64"/>
	<line x1="3339.02" y1="1206.60" x2="3348.18" y2="1206.60" style="stroke:#808080;stroke-width:8.64"/>
	<line x1="3348.18" y1="1206.60" x2="3348.18" y2="1196.82" style="stroke:#808080;stroke-width:8.64"/>
	<line x1="3348.18" y1="1196.82" x2="3365.38" y2="1196.82" style="stroke:#808080;stroke-width:8.64"/>
	<line x1="3365.38" y1="1196.82" x2="3365.38" y2="1192.62" style="stroke:#808080;stroke-width:8.64"/>
	<line x1="3377.26" y1="1187.17" x2="3382.58" y2="1187.17" style="stroke:#808080;stroke-width:8.64"/>
	<line x1="3382.58" y1="1187.17" x2="3382.58" y2="1177.52" style="stroke:#808080;stroke-width:8.64"/>
	<line x1="3382.58" y1="1177.52" x2="3399.78" y2="1177.52" style="stroke:#808080;stroke-width:8.64"/>
	<line x1="3399.78" y1="1177.52" x2="3399.78" y2="1169.47" style="stroke:#808080;stroke-width:8.64"/>
	<line x1="3415.50" y1="1167.87" x2="3416.99" y2="1167.87" style="stroke:#808080;stroke-width:8.64"/>
	<line x1="3416.99" y1="1167.87" x2="3416.99" y2="1158.21" style="stroke:#808080;stroke-width:8.64"/>
	<line x1="3416.99" y1="1158.21" x2="3434.19" y2="1158.21" style="stroke:#808080;stroke-width:8.64"/>
	<line x1="3434.19" y1="1158.21" x2="3434.19" y2="1148.56" style="stroke:#808080;stroke-width:8.64"/>
	<line x1="3434.19" y1="1148.56" x2="3436.54" y2="1148.56" style="stroke:#808080;stroke-width:8.64"/>
	<line x1="3451.39" y1="1146.21" x2="3451.39" y2="1139.03" style="stroke:#808080;stroke-width:8.64"/>
	<line x1="3451.39" y1="1139.03" x2="3468.59" y2="1139.03" style="stroke:#808080;stroke-width:8.64"/>
	<line x1="3468.59" y1="1139.03" x2="3468.59" y2="1129.38" style="stroke:#808080;stroke-width:8.64"/>
	<line x1="3468.59" y1="1129.38" x2="3474.90" y2="1129.38" style="stroke:#808080;stroke-width:8.64"/>
	<line x1="3485.79" y1="1123.07" x2="3485.79" y2="1119.72" style="stroke:#808080;stroke-width:8.64"/>
	<line x1="3485.79" y1="1119.72" x2="3502.99" y2="1119.72" style="stroke:#808080;stroke-width:8.64"/>
	<line x1="3502.99" y1="1119.72" x2="3502.99" y2="1110.07" style="stroke:#808080;stroke-width:8.64"/>
	<line x1="3502.99" y1="1110.07" x2="3513.14" y2="1110.07" style="stroke:#808080;stroke-width:8.64"/>
	<line x1="3520.69" y1="1100.42" x2="3537.27" y2="1100.42" style="stroke:#808080;stroke-width:8.64"/>
	<line x1="3537.27" y1="1100.42" x2="3537.27" y2="1090.89" style="stroke:#808080;stroke-width:8.64"/>
	<line x1="3537.27" y1="1090.89" x2="3551.50" y2="1090.89" style="stroke:#808080;stroke-width:8.64"/>
	<line x1="3559.17" y1="1081.24" x2="3571.67" y2="1081.24" style="stroke:#808080;stroke-width:8.64"/>
	<line x1="3571.67" y1="1081.24" x2="3571.67" y2="1071.71" style="stroke:#808080;stroke-width:8.64"/>
	<line x1="3571.67" y1="1071.71" x2="3588.87" y2="1071.71" style="stroke:#808080;stroke-width:8.64"/>
	<line x1="3588.87" y1="1071.71" x2="3588.87" y2="1070.59" style="stroke:#808080;stroke-width:8.64"/>
	<line x1="3597.54" y1="1062.06" x2="3606.07" y2="1062.06" style="stroke:#808080;stroke-width:8.64"/>
	<line x1="3606.07" y1="1062.06" x2="3606.07" y2="1052.53" style="stroke:#808080;stroke-width:8.64"/>
	<line x1="3606.07" y1="1052.53" x2="3623.28" y2="1052.53" style="stroke:#808080;stroke-width:8.64"/>
	<line x1="3623.28" y1="1052.53" x2="3623.28" y2="1047.45" style="stroke:#808080;stroke-width:8.64"/>
	<line x1="3635.90" y1="1042.87" x2="3640.48" y2="1042.87" style="stroke:#808080;stroke-width:8.64"/>
	<line x1="3640.48" y1="1042.87" x2="3640.48" y2="1033.34" style="stroke:#808080;stroke-width:8.64"/>
	<line x1="3640.48" y1="1033.34" x2="3657.68" y2="1033.34" style="stroke:#808080;stroke-width:8.64"/>
	<line x1="3657.68" y1="1033.34" x2="3657.68" y2="1024.31" style="stroke:#808080;stroke-width:8.64"/>
	<line x1="3674.39" y1="1023.82" x2="3674.88" y2="1023.82" style="stroke:#808080;stroke-width:8.64"/>
	<line x1="3674.88" y1="1023.82" x2="3674.88" y2="1014.16" style="stroke:#808080;stroke-width:8.64"/>
	<line x1="3674.88" y1="1014.16" x2="3692.08" y2="1014.16" style="stroke:#808080;stroke-width:8.64"/>
	<line x1="3692.08" y1="1014.16" x2="3692.08" y2="1004.63" style="stroke:#808080;stroke-width:8.64"/>
	<line x1="3692.08" y1="1004.63" x2="3695.55" y2="1004.63" style="stroke:#808080;stroke-width:8.64"/>
	<line x1="3709.28" y1="1001.17" x2="3709.28" y2="995.10" style="stroke:#808080;stroke-width:8.64"/>
	<line x1="3709.28" y1="995.10" x2="3726.48" y2="995.10" style="stroke:#808080;stroke-width:8.64"/>
	<line x1="3726.48" y1="995.10" x2="3726.48" y2="985.58" style="stroke:#808080;stroke-width:8.64"/>
	<line x1="3726.48" y1="985.58" x2="3734.16" y2="985.58" style="stroke:#808080;stroke-width:8.64"/>
	<line x1="3743.68" y1="977.90" x2="3743.68" y2="976.05" style="stroke:#808080;stroke-width:8.64"/>
	<line x1="3743.68" y1="976.05" x2="3760.89" y2="976.05" style="stroke:#808080;stroke-width:8.64"/>
	<line x1="3760.89" y1="976.05" x2="3760.89" y2="966.52" style="stroke:#808080;stroke-width:8.64"/>
	<line x1="3760.89" y1="966.52" x2="3772.64" y2="966.52" style="stroke:#808080;stroke-width:8.64"/>
	<line x1="3780.32" y1="956.99" x2="3795.16" y2="956.99" style="stroke:#808080;stroke-width:8.64"/>
	<line x1="3795.16" y1="956.99" x2="3795.16" y2="947.46" style="stroke:#808080;stroke-width:8.64"/>
	<path d="" stroke-linejoin="round" style="fill:none;stroke:#808080;stroke-width:8.64"/>
	<path d=" M717.75 2442.65 L734.95 2442.65 L734.95 2441.54 L752.15 2441.54 L752.15 2440.43 L769.35 2440.43 L769.35 2439.06 L786.55 2439.06 L786.55 2437.46 L803.76 2437.46 L803.76 2435.72 L820.96 2435.72 L820.96 2433.87 L838.16 2433.87 L838.16 2431.76 L855.36 2431.76 L855.36 2429.54 L872.56 2429.54 L872.56 2427.06 L889.76 2427.06 L889.76 2424.46 L906.84 2424.46 L906.84 2421.62 L924.04 2421.62 L924.04 2418.52 L941.24 2418.52 L941.24 2415.30 L958.44 2415.30 L958.44 2411.96 L975.64 2411.96 L975.64 2408.37 L992.85 2408.37 L992.85 2404.66 L1010.05 2404.66 L1010.05 2400.70 L1027.25 2400.70 L1027.25 2396.49 L1044.45 2396.49 L1044.45 2392.29 L1061.65 2392.29 L1061.65 2387.71 L1078.85 2387.71 L1078.85 2383.13 L1096.05 2383.13 L1096.05 2378.30 L1113.26 2378.30 L1113.26 2373.23 L1130.46 2373.23 L1130.46 2368.03 L1147.53 2368.03 L1147.53 2362.71 L1164.73 2362.71 L1164.73 2357.14 L1181.94 2357.14 L1181.94 2351.45 L1199.14 2351.45 L1199.14 2345.63 L1216.34 2345.63 L1216.34 2339.57 L1233.54 2339.57 L1233.54 2333.38 L1250.74 2333.38 L1250.74 2327.07 L1267.94 2327.07 L1267.94 2320.51 L1285.14 2320.51 L1285.14 2313.95 L1302.35 2313.95 L1302.35 2307.14 L1319.55 2307.14 L1319.55 2300.21 L1336.75 2300.21 L1336.75 2293.28 L1353.95 2293.28 L1353.95 2286.11 L1371.15 2286.11 L1371.15 2278.80 L1388.23 2278.80 L1388.23 2271.50 L1405.43 2271.50 L1405.43 2263.95 L1422.63 2263.95 L1422.63 2256.40 L1439.83 2256.40 L1439.83 2248.61 L1457.03 2248.61 L1457.03 2240.81 L1474.23 2240.81 L1474.23 2232.89 L1491.43 2232.89 L1491.43 2224.85 L1508.64 2224.85 L1508.64 2216.68 L1525.84 2216.68 L1525.84 2208.51 L1543.04 2208.51 L1543.04 2200.10 L1560.24 2200.10 L1560.24 2191.68 L1577.44 2191.68 L1577.44 2183.27 L1594.64 2183.27 L1594.64 2174.60 L1611.84 2174.60 L1611.84 2166.06 L1628.92 2166.06 L1628.92 2157.40 L1646.12 2157.40 L1646.12 2148.61 L1663.32 2148.61 L1663.32 2139.83 L1680.53 2139.83 L1680.53 2130.92 L1697.73 2130.92 L1697.73 2122.01 L1714.93 2122.01 L1714.93 2113.10 L1732.13 2113.10 L1732.13 2104.06 L1749.33 2104.06 L1749.33 2095.03 L1766.53 2095.03 L1766.53 2085.87 L1783.73 2085.87 L1783.73 2076.84 L1800.93 2076.84 L1800.93 2067.56 L1818.13 2067.56 L1818.13 2058.40 L1835.34 2058.40 L1835.34 2049.12 L1852.54 2049.12 L1852.54 2039.71 L1869.62 2039.71 L1869.62 2030.43 L1886.82 2030.43 L1886.82 2021.02 L1904.02 2021.02 L1904.02 2011.62 L1921.22 2011.62 L1921.22 2002.21 L1938.42 2002.21 L1938.42 1992.81 L1955.62 1992.81 L1955.62 1983.28 L1972.82 1983.28 L1972.82 1973.87 L1990.02 1973.87 L1990.02 1964.35 L2007.22 1964.35 L2007.22 1954.82 L2024.43 1954.82 L2024.43 1945.29 L2041.63 1945.29 L2041.63 1935.76 L2058.83 1935.76 L2058.83 1926.11 L2076.03 1926.11 L2076.03 1916.45 L2093.23 1916.45 L2093.23 1906.92 L2110.31 1906.92 L2110.31 1897.27 L2127.51 1897.27 L2127.51 1887.62 L2144.71 1887.62 L2144.71 1877.84 L2161.91 1877.84 L2161.91 1868.19 L2179.11 1868.19 L2179.11 1858.54 L2196.32 1858.54 L2196.32 1848.76 L2213.52 1848.76 L2213.52 1839.11 L2230.72 1839.11 L2230.72 1829.33 L2247.92 1829.33 L2247.92 1819.55 L2265.12 1819.55 L2265.12 1809.90 L2282.32 1809.90 L2282.32 1800.12 L2299.52 1800.12 L2299.52 1790.35 L2316.72 1790.35 L2316.72 1780.57 L2333.93 1780.57 L2333.93 1770.79 L2351.00 1770.79 L2351.00 1761.14 L2368.20 1761.14 L2368.20 1751.36 L2385.41 1751.36 L2385.41 1741.59 L2402.61 1741.59 L2402.61 1731.81 L2419.81 1731.81 L2419.81 1722.04 L2437.01 1722.04 L2437.01 1712.26 L2454.21 1712.26 L2454.21 1702.61 L2471.41 1702.61 L2471.41 1692.83 L2488.61 1692.83 L2488.61 1683.05 L2505.81 1683.05 L2505.81 1673.28 L2523.01 1673.28 L2523.01 1663.50 L2540.22 1663.50 L2540.22 1653.72 L2557.42 1653.72 L2557.42 1643.95 L2574.62 1643.95 L2574.62 1634.29 L2591.70 1634.29 L2591.70 1624.52 L2608.90 1624.52 L2608.90 1614.86 L2626.10 1614.86 L2626.10 1605.09 L2643.30 1605.09 L2643.30 1595.43 L2660.50 1595.43 L2660.50 1585.66 L2677.70 1585.66 L2677.70 1576.01 L2694.90 1576.01 L2694.90 1566.35 L2712.11 1566.35 L2712.11 1556.58 L2729.31 1556.58 L2729.31 1546.92 L2746.51 1546.92 L2746.51 1537.27 L2763.71 1537.27 L2763.71 1527.62 L2780.91 1527.62 L2780.91 1517.96 L2798.11 1517.96 L2798.11 1508.19 L2815.31 1508.19 L2815.31 1498.54 L2832.39 1498.54 L2832.39 1488.88 L2849.59 1488.88 L2849.59 1479.23 L2866.79 1479.23 L2866.79 1469.58 L2883.99 1469.58 L2883.99 1459.92 L2901.20 1459.92 L2901.20 1450.27 L2918.40 1450.27 L2918.40 1440.62 L2935.60 1440.62 L2935.60 1431.09 L2952.80 1431.09 L2952.80 1421.44 L2970.00 1421.44 L2970.00 1411.91 L2987.20 1411.91 L2987.20 1402.26 L3004.40 1402.26 L3004.40 1392.73 L3021.60 1392.73 L3021.60 1383.20 L3038.80 1383.20 L3038.80 1373.67 L3055.88 1373.67 L3055.88 1364.02 L3073.08 1364.02 L3073.08 1354.61 L3090.28 1354.61 L3090.28 1345.08 L3107.49 1345.08 L3107.49 1335.55 L3124.69 1335.55 L3124.69 1326.15 L3141.89 1326.15 L3141.89 1316.62 L3159.09 1316.62 L3159.09 1307.09 L3176.29 1307.09 L3176.29 1297.68 L3193.49 1297.68 L3193.49 1288.28 L3210.69 1288.28 L3210.69 1278.75 L3227.89 1278.75 L3227.89 1269.34 L3245.10 1269.34 L3245.10 1259.94 L3262.30 1259.94 L3262.30 1250.53 L3279.50 1250.53 L3279.50 1241.13 L3296.58 1241.13 L3296.58 1231.72 L3313.78 1231.72 L3313.78 1222.32 L3330.98 1222.32 L3330.98 1212.91 L3348.18 1212.91 L3348.18 1203.63 L3365.38 1203.63 L3365.38 1194.22 L3382.58 1194.22 L3382.58 1184.82 L3399.78 1184.82 L3399.78 1175.54 L3416.99 1175.54 L3416.99 1166.26 L3434.19 1166.26 L3434.19 1156.85 L3451.39 1156.85 L3451.39 1147.57 L3468.59 1147.57 L3468.59 1138.29 L3485.79 1138.29 L3485.79 1129.01 L3502.99 1129.01 L3502.99 1119.72 L3520.19 1119.72 L3520.19 1110.44 L3537.27 1110.44 L3537.27 1101.29 L3554.47 1101.29 L3554.47 1092.00 L3571.67 1092.00 L3571.67 1082.72 L3588.87 1082.72 L3588.87 1073.56 L3606.07 1073.56 L3606.07 1064.28 L3623.28 1064.28 L3623.28 1055.00 L3640.48 1055.00 L3640.48 1045.84 L3657.68 1045.84 L3657.68 1036.56 L3674.88 1036.56 L3674.88 1027.40 L3692.08 1027.40 L3692.08 1018.25 L3709.28 1018.25 L3709.28 1008.97 L3726.48 1008.97 L3726.48 999.81 L3743.68 999.81 L3743.68 990.65 L3760.89 990.65 L3760.89 981.49 L3777.96 981.49 L3777.96 972.33 L3795.16 972.33 L3795.16 963.18" stroke-linejoin="round" style="fill:none;stroke:#000000;stroke-width:8.64"/>
	<line x1="495.00" y1="2509.23" x2="495.00" y2="419.90" style="stroke:#000000;stroke-width:5.76"/>
	<line x1="495.00" y1="2445.87" x2="454.90" y2="2445.87" style="stroke:#000000;stroke-width:5.76"/>
	<text x="434.98" y="2480.90" style="font-family:'Helvetica';font-size:99.99px;fill:#000000" text-anchor="end">0</text>
	<line x1="495.00" y1="2118.79" x2="454.90" y2="2118.79" style="stroke:#000000;stroke-width:5.76"/>
	<text x="434.98" y="2153.82" style="font-family:'Helvetica';font-size:99.99px;fill:#000000" text-anchor="end">90</text>
	<line x1="495.00" y1="1791.71" x2="454.90" y2="1791.71" style="stroke:#000000;stroke-width:5.76"/>
	<text x="434.98" y="1826.74" style="font-family:'Helvetica';font-size:99.99px;fill:#000000" text-anchor="end">180</text>
	<line x1="495.00" y1="1464.63" x2="454.90" y2="1464.63" style="stroke:#000000;stroke-width:5.76"/>
	<text x="434.98" y="1499.66" style="font-family:'Helvetica';font-size:99.99px;fill:#000000" text-anchor="end">270</text>
	<line x1="495.00" y1="1137.42" x2="454.90" y2="1137.42" style="stroke:#000000;stroke-width:5.76"/>
	<text x="434.98" y="1172.45" style="font-family:'Helvetica';font-size:99.99px;fill:#000000" text-anchor="end">360</text>
	<line x1="495.00" y1="810.34" x2="454.90" y2="810.34" style="stroke:#000000;stroke-width:5.76"/>
	<text x="434.98" y="845.37" style="font-family:'Helvetica';font-size:99.99px;fill:#000000" text-anchor="end">450</text>
	<line x1="495.00" y1="483.26" x2="454.90" y2="483.26" style="stroke:#000000;stroke-width:5.76"/>
	<text x="434.98" y="518.29" style="font-family:'Helvetica';font-size:99.99px;fill:#000000" text-anchor="end">540</text>
	<text x="190.71" y="1464.63" style="font-family:'Helvetica';font-size:99.99px;fill:#000000" transform="rotate(-90 190.71,1464.63)" text-anchor="middle">LOS (years)</text>
	<line x1="495.00" y1="2509.23" x2="3859.02" y2="2509.23" style="stroke:#000000;stroke-width:5.76"/>
	<line x1="558.36" y1="2509.23" x2="558.36" y2="2549.21" style="stroke:#000000;stroke-width:5.76"/>
	<text x="558.36" y="2625.15" style="font-family:'Helvetica';font-size:79.94px;fill:#000000" text-anchor="middle">0</text>
	<line x1="752.52" y1="2509.23" x2="752.52" y2="2549.21" style="stroke:#000000;stroke-width:5.76"/>
	<text x="752.52" y="2625.15" style="font-family:'Helvetica';font-size:79.94px;fill:#000000" text-anchor="middle">.3</text>
	<line x1="946.81" y1="2509.23" x2="946.81" y2="2549.21" style="stroke:#000000;stroke-width:5.76"/>
	<text x="946.81" y="2625.15" style="font-family:'Helvetica';font-size:79.94px;fill:#000000" text-anchor="middle">.6</text>
	<line x1="1141.10" y1="2509.23" x2="1141.10" y2="2549.21" style="stroke:#000000;stroke-width:5.76"/>
	<text x="1141.10" y="2625.15" style="font-family:'Helvetica';font-size:79.94px;fill:#000000" text-anchor="middle">.9</text>
	<line x1="1335.26" y1="2509.23" x2="1335.26" y2="2549.21" style="stroke:#000000;stroke-width:5.76"/>
	<text x="1335.26" y="2625.15" style="font-family:'Helvetica';font-size:79.94px;fill:#000000" text-anchor="middle">1.2</text>
	<line x1="1529.55" y1="2509.23" x2="1529.55" y2="2549.21" style="stroke:#000000;stroke-width:5.76"/>
	<text x="1529.55" y="2625.15" style="font-family:'Helvetica';font-size:79.94px;fill:#000000" text-anchor="middle">1.5</text>
	<line x1="1723.71" y1="2509.23" x2="1723.71" y2="2549.21" style="stroke:#000000;stroke-width:5.76"/>
	<text x="1723.71" y="2625.15" style="font-family:'Helvetica';font-size:79.94px;fill:#000000" text-anchor="middle">1.8</text>
	<line x1="1918.00" y1="2509.23" x2="1918.00" y2="2549.21" style="stroke:#000000;stroke-width:5.76"/>
	<text x="1918.00" y="2625.15" style="font-family:'Helvetica';font-size:79.94px;fill:#000000" text-anchor="middle">2.1</text>
	<line x1="2112.29" y1="2509.23" x2="2112.29" y2="2549.21" style="stroke:#000000;stroke-width:5.76"/>
	<text x="2112.29" y="2625.15" style="font-family:'Helvetica';font-size:79.94px;fill:#000000" text-anchor="middle">2.4</text>
	<line x1="2306.45" y1="2509.23" x2="2306.45" y2="2549.21" style="stroke:#000000;stroke-width:5.76"/>
	<text x="2306.45" y="2625.15" style="font-family:'Helvetica';font-size:79.94px;fill:#000000" text-anchor="middle">2.7</text>
	<line x1="2500.74" y1="2509.23" x2="2500.74" y2="2549.21" style="stroke:#000000;stroke-width:5.76"/>
	<text x="2500.74" y="2625.15" style="font-family:'Helvetica';font-size:79.94px;fill:#000000" text-anchor="middle">3</text>
	<line x1="2695.03" y1="2509.23" x2="2695.03" y2="2549.21" style="stroke:#000000;stroke-width:5.76"/>
	<text x="2695.03" y="2625.15" style="font-family:'Helvetica';font-size:79.94px;fill:#000000" text-anchor="middle">3.3</text>
	<line x1="2889.19" y1="2509.23" x2="2889.19" y2="2549.21" style="stroke:#000000;stroke-width:5.76"/>
	<text x="2889.19" y="2625.15" style="font-family:'Helvetica';font-size:79.94px;fill:#000000" text-anchor="middle">3.6</text>
	<line x1="3083.48" y1="2509.23" x2="3083.48" y2="2549.21" style="stroke:#000000;stroke-width:5.76"/>
	<text x="3083.48" y="2625.15" style="font-family:'Helvetica';font-size:79.94px;fill:#000000" text-anchor="middle">3.9</text>
	<line x1="3277.77" y1="2509.23" x2="3277.77" y2="2549.21" style="stroke:#000000;stroke-width:5.76"/>
	<text x="3277.77" y="2625.15" style="font-family:'Helvetica';font-size:79.94px;fill:#000000" text-anchor="middle">4.2</text>
	<line x1="3471.93" y1="2509.23" x2="3471.93" y2="2549.21" style="stroke:#000000;stroke-width:5.76"/>
	<text x="3471.93" y="2625.15" style="font-family:'Helvetica';font-size:79.94px;fill:#000000" text-anchor="middle">4.5</text>
	<line x1="3666.22" y1="2509.23" x2="3666.22" y2="2549.21" style="stroke:#000000;stroke-width:5.76"/>
	<text x="3666.22" y="2625.15" style="font-family:'Helvetica';font-size:79.94px;fill:#000000" text-anchor="middle">4.8</text>
	<line x1="3860.51" y1="2509.23" x2="3860.51" y2="2549.21" style="stroke:#000000;stroke-width:5.76"/>
	<text x="3860.51" y="2625.15" style="font-family:'Helvetica';font-size:79.94px;fill:#000000" text-anchor="middle">5.1</text>
	<text x="2177.01" y="2729.16" style="font-family:'Helvetica';font-size:99.99px;fill:#000000" text-anchor="middle">Time (years)</text>
	<rect x="529.53" y="454.42" width="1369.42" height="606.39" style="fill:#FFFFFF"/>
	<rect x="532.41" y="457.30" width="1363.66" height="600.63" style="fill:none;stroke:#000000;stroke-width:5.76"/>
	<rect x="572.72" y="497.74" width="374.34" height="99.99" style="fill:#999999;fill-opacity:0.35"/>
	<rect x="577.03" y="502.06" width="365.70" height="91.35" style="fill:none;stroke:#808080;stroke-opacity:0.35;stroke-width:8.64"/>
	<rect x="572.72" y="637.70" width="374.34" height="99.99" style="fill:#333333;fill-opacity:0.35"/>
	<rect x="577.03" y="642.02" width="365.70" height="91.35" style="fill:none;stroke:#000000;stroke-opacity:0.35;stroke-width:8.64"/>
	<line x1="572.72" y1="827.67" x2="613.06" y2="827.67" style="stroke:#808080;stroke-width:8.64"/>
	<line x1="630.26" y1="827.67" x2="670.60" y2="827.67" style="stroke:#808080;stroke-width:8.64"/>
	<line x1="687.93" y1="827.67" x2="728.27" y2="827.67" style="stroke:#808080;stroke-width:8.64"/>
	<line x1="745.47" y1="827.67" x2="785.81" y2="827.67" style="stroke:#808080;stroke-width:8.64"/>
	<line x1="803.01" y1="827.67" x2="843.36" y2="827.67" style="stroke:#808080;stroke-width:8.64"/>
	<line x1="860.56" y1="827.67" x2="900.90" y2="827.67" style="stroke:#808080;stroke-width:8.64"/>
	<line x1="918.23" y1="827.67" x2="947.06" y2="827.67" style="stroke:#808080;stroke-width:8.64"/>
	<line x1="572.72" y1="967.63" x2="947.06" y2="967.63" style="stroke:#000000;stroke-width:8.64"/>
	<text x="1007.08" y="582.76" style="font-family:'Helvetica';font-size:99.99px;fill:#000000">Outpatient CI95%</text>
	<text x="1007.08" y="722.73" style="font-family:'Helvetica';font-size:99.99px;fill:#000000">Residential CI95%</text>
	<text x="1007.08" y="862.69" style="font-family:'Helvetica';font-size:99.99px;fill:#000000">Outpatient</text>
	<text x="1007.08" y="1002.66" style="font-family:'Helvetica';font-size:99.99px;fill:#000000">Residential</text>
	<text x="2177.01" y="369.63" style="font-family:'Helvetica';font-size:110.01px;fill:#000000" text-anchor="middle">from 2nd Readmission to 3rd Readmission</text>
	<text x="2177.01" y="215.98" style="font-family:'Helvetica';font-size:139.96px;fill:#1E2D53" text-anchor="middle">Length of Stay (RP)</text>
</svg>
