<?xml version="1.0" encoding="UTF-8" standalone="no"?>
<!-- This is a Stata 16.1 generated SVG file (http://www.stata.com) -->

<svg version="1.1" width="5.50in" height="4.00in" viewBox="0 0 3960 2880" xmlns="http://www.w3.org/2000/svg" xmlns:xlink="http://www.w3.org/1999/xlink">
	<desc>Stata Graph - los_models_44_3y_22</desc>
	<rect x="0" y="0" width="3960" height="2880" style="fill:#EAF2F3;stroke:none"/>
	<rect x="0.00" y="0.00" width="3959.88" height="2880.00" style="fill:#FFFFFF"/>
	<rect x="2.88" y="2.88" width="3954.12" height="2874.24" style="fill:none;stroke:#FFFFFF;stroke-width:5.76"/>
	<rect x="553.29" y="419.90" width="3305.73" height="2089.34" style="fill:#FFFFFF"/>
	<rect x="556.17" y="422.78" width="3299.97" height="2083.58" style="fill:none;stroke:#FFFFFF;stroke-width:5.76"/>
	<line x1="553.29" y1="2314.44" x2="3859.02" y2="2314.44" style="stroke:#EAF2F3;stroke-width:8.64"/>
	<line x1="553.29" y1="2183.02" x2="3859.02" y2="2183.02" style="stroke:#EAF2F3;stroke-width:8.64"/>
	<line x1="553.29" y1="2051.72" x2="3859.02" y2="2051.72" style="stroke:#EAF2F3;stroke-width:8.64"/>
	<line x1="553.29" y1="1920.29" x2="3859.02" y2="1920.29" style="stroke:#EAF2F3;stroke-width:8.64"/>
	<line x1="553.29" y1="1788.86" x2="3859.02" y2="1788.86" style="stroke:#EAF2F3;stroke-width:8.64"/>
	<line x1="553.29" y1="1657.44" x2="3859.02" y2="1657.44" style="stroke:#EAF2F3;stroke-width:8.64"/>
	<line x1="553.29" y1="1526.01" x2="3859.02" y2="1526.01" style="stroke:#EAF2F3;stroke-width:8.64"/>
	<line x1="553.29" y1="1394.71" x2="3859.02" y2="1394.71" style="stroke:#EAF2F3;stroke-width:8.64"/>
	<line x1="553.29" y1="1263.28" x2="3859.02" y2="1263.28" style="stroke:#EAF2F3;stroke-width:8.64"/>
	<line x1="553.29" y1="1131.85" x2="3859.02" y2="1131.85" style="stroke:#EAF2F3;stroke-width:8.64"/>
	<line x1="553.29" y1="1000.43" x2="3859.02" y2="1000.43" style="stroke:#EAF2F3;stroke-width:8.64"/>
	<line x1="553.29" y1="869.00" x2="3859.02" y2="869.00" style="stroke:#EAF2F3;stroke-width:8.64"/>
	<defs>
		<path id="path_LpgKoFer" d="M773.31 2317.79 L773.31 2317.79 L790.14 2317.79 L790.14 2304.42 L807.10 2304.42 L807.10 2291.30 L823.93 2291.30 L823.93 2278.18 L840.88 2278.18 L840.88 2265.19 L857.71 2265.19 L857.71 2252.20 L874.54 2252.20 L874.54 2239.45 L891.50 2239.45 L891.50 2226.70 L908.33 2226.70 L908.33 2214.08 L925.28 2214.08 L925.28 2201.58 L942.11 2201.58 L942.11 2189.08 L959.06 2189.08 L959.06 2176.83 L975.89 2176.83 L975.89 2164.58 L992.72 2164.58 L992.72 2152.33 L1009.68 2152.33 L1009.68 2140.20 L1026.51 2140.20 L1026.51 2128.20 L1043.46 2128.20 L1043.46 2116.31 L1060.29 2116.31 L1060.29 2104.43 L1077.24 2104.43 L1077.24 2092.68 L1094.07 2092.68 L1094.07 2081.05 L1110.90 2081.05 L1110.90 2069.41 L1127.86 2069.41 L1127.86 2057.90 L1144.69 2057.90 L1144.69 2046.39 L1161.64 2046.39 L1161.64 2035.13 L1178.47 2035.13 L1178.47 2023.75 L1195.42 2023.75 L1195.42 2012.61 L1212.26 2012.61 L1212.26 2001.47 L1229.09 2001.47 L1229.09 1990.33 L1246.04 1990.33 L1246.04 1979.32 L1262.87 1979.32 L1262.87 1968.43 L1279.82 1968.43 L1279.82 1957.54 L1296.65 1957.54 L1296.65 1946.77 L1313.61 1946.77 L1313.61 1936.01 L1330.44 1936.01 L1330.44 1925.36 L1347.27 1925.36 L1347.27 1914.72 L1364.22 1914.72 L1364.22 1904.20 L1381.05 1904.20 L1381.05 1893.81 L1398.00 1893.81 L1398.00 1883.29 L1414.83 1883.29 L1414.83 1873.01 L1431.66 1873.01 L1431.66 1862.74 L1448.62 1862.74 L1448.62 1852.47 L1465.45 1852.47 L1465.45 1842.32 L1482.40 1842.32 L1482.40 1832.18 L1499.23 1832.18 L1499.23 1822.15 L1516.18 1822.15 L1516.18 1812.13 L1533.02 1812.13 L1533.02 1802.23 L1549.85 1802.23 L1549.85 1792.33 L1566.80 1792.33 L1566.80 1782.43 L1583.63 1782.43 L1583.63 1772.65 L1600.58 1772.65 L1600.58 1763.00 L1617.41 1763.00 L1617.41 1753.34 L1634.37 1753.34 L1634.37 1743.69 L1651.20 1743.69 L1651.20 1734.16 L1668.03 1734.16 L1668.03 1724.63 L1684.98 1724.63 L1684.98 1715.23 L1701.81 1715.23 L1701.81 1705.82 L1718.76 1705.82 L1718.76 1696.42 L1735.59 1696.42 L1735.59 1687.14 L1752.55 1687.14 L1752.55 1677.85 L1769.38 1677.85 L1769.38 1668.70 L1786.21 1668.70 L1786.21 1659.54 L1803.16 1659.54 L1803.16 1650.38 L1819.99 1650.38 L1819.99 1641.35 L1836.94 1641.35 L1836.94 1632.31 L1853.78 1632.31 L1853.78 1623.28 L1870.73 1623.28 L1870.73 1614.37 L1887.56 1614.37 L1887.56 1605.46 L1904.39 1605.46 L1904.39 1596.55 L1921.34 1596.55 L1921.34 1587.76 L1938.17 1587.76 L1938.17 1578.98 L1955.13 1578.98 L1955.13 1570.31 L1971.96 1570.31 L1971.96 1561.65 L1988.91 1561.65 L1988.91 1552.99 L2005.74 1552.99 L2005.74 1544.32 L2022.57 1544.32 L2022.57 1535.79 L2039.52 1535.79 L2039.52 1527.25 L2056.35 1527.25 L2056.35 1518.71 L2073.31 1518.71 L2073.31 1510.29 L2090.14 1510.29 L2090.14 1501.88 L2106.97 1501.88 L2106.97 1493.59 L2123.92 1493.59 L2123.92 1485.17 L2140.75 1485.17 L2140.75 1476.88 L2157.70 1476.88 L2157.70 1468.71 L2174.53 1468.71 L2174.53 1460.42 L2191.49 1460.42 L2191.49 1452.25 L2208.32 1452.25 L2208.32 1444.08 L2225.15 1444.08 L2225.15 1436.04 L2242.10 1436.04 L2242.10 1427.87 L2258.93 1427.87 L2258.93 1419.83 L2275.89 1419.83 L2275.89 1411.91 L2292.72 1411.91 L2292.72 1403.86 L2309.67 1403.86 L2309.67 1395.94 L2326.50 1395.94 L2326.50 1388.02 L2343.33 1388.02 L2343.33 1380.23 L2360.28 1380.23 L2360.28 1372.43 L2377.11 1372.43 L2377.11 1364.63 L2394.07 1364.63 L2394.07 1356.84 L2410.90 1356.84 L2410.90 1349.16 L2427.85 1349.16 L2427.85 1341.37 L2444.68 1341.37 L2444.68 1333.82 L2461.51 1333.82 L2461.51 1326.15 L2478.47 1326.15 L2478.47 1318.60 L2495.30 1318.60 L2495.30 1311.05 L2512.25 1311.05 L2512.25 1303.50 L2529.08 1303.50 L2529.08 1295.95 L2546.03 1295.95 L2546.03 1288.53 L2562.86 1288.53 L2562.86 1281.10 L2579.69 1281.10 L2579.69 1273.67 L2596.65 1273.67 L2596.65 1266.25 L2613.48 1266.25 L2613.48 1258.95 L2630.43 1258.95 L2630.43 1251.52 L2647.26 1251.52 L2647.26 1244.35 L2664.21 1244.35 L2664.21 1237.04 L2681.04 1237.04 L2681.04 1229.74 L2697.87 1229.74 L2697.87 1222.56 L2714.83 1222.56 L2714.83 1215.39 L2731.66 1215.39 L2731.66 1208.21 L2748.61 1208.21 L2748.61 1201.16 L2765.44 1201.16 L2765.44 1194.10 L2782.27 1194.10 L2782.27 1187.05 L2799.22 1187.05 L2799.22 1179.99 L2816.05 1179.99 L2816.05 1172.94 L2833.01 1172.94 L2833.01 1166.01 L2849.84 1166.01 L2849.84 1158.95 L2866.79 1158.95 L2866.79 1152.02 L2883.62 1152.02 L2883.62 1145.22 L2900.45 1145.22 L2900.45 1138.29 L2917.41 1138.29 L2917.41 1131.48 L2934.24 1131.48 L2934.24 1124.68 L2951.19 1124.68 L2951.19 1117.87 L2968.02 1117.87 L2968.02 1111.06 L2984.97 1111.06 L2984.97 1104.26 L3001.80 1104.26 L3001.80 1097.57 L3018.63 1097.57 L3018.63 1090.89 L3035.59 1090.89 L3035.59 1084.21 L3052.42 1084.21 L3052.42 1077.65 L3069.37 1077.65 L3069.37 1070.97 L3086.20 1070.97 L3086.20 1064.41 L3103.16 1064.41 L3103.16 1057.85 L3119.99 1057.85 L3119.99 1051.29 L3136.82 1051.29 L3136.82 1044.73 L3153.77 1044.73 L3153.77 1038.29 L3170.60 1038.29 L3170.60 1031.86 L3187.55 1031.86 L3187.55 1025.42 L3204.38 1025.42 L3204.38 1018.99 L3221.34 1018.99 L3221.34 1012.55 L3238.17 1012.55 L3238.17 1006.12 L3255.00 1006.12 L3255.00 999.81 L3271.95 999.81 L3271.95 993.50 L3288.78 993.50 L3288.78 987.06 L3305.73 987.06 L3305.73 980.87 L3322.56 980.87 L3322.56 974.56 L3339.52 974.56 L3339.52 968.25 L3356.35 968.25 L3356.35 962.06 L3373.18 962.06 L3373.18 955.87 L3390.13 955.87 L3390.13 949.69 L3406.96 949.69 L3406.96 943.50 L3423.91 943.50 L3423.91 937.31 L3440.74 937.31 L3440.74 931.12 L3457.57 931.12 L3457.57 925.06 L3474.53 925.06 L3474.53 919.00 L3491.36 919.00 L3491.36 912.93 L3508.31 912.93 L3508.31 906.87 L3525.14 906.87 L3525.14 900.80 L3542.10 900.80 L3542.10 894.86 L3558.93 894.86 L3558.93 888.80 L3575.76 888.80 L3575.76 882.86 L3592.71 882.86 L3592.71 876.92 L3609.54 876.92 L3609.54 870.98 L3626.49 870.98 L3626.49 865.16 L3643.32 865.16 L3643.32 859.22 L3660.28 859.22 L3660.28 853.41 L3677.11 853.41 L3677.11 847.47 L3693.94 847.47 L3693.94 841.65 L3710.89 841.65 L3710.89 835.83 L3727.72 835.83 L3727.72 830.14 L3744.68 830.14 L3744.68 824.32 L3761.51 824.32 L3761.51 818.63 L3778.46 818.63 L3778.46 812.82 L3795.29 812.82 L3795.29 807.12 L3795.29 483.26 L3795.29 491.18 L3778.46 491.18 L3778.46 499.10 L3761.51 499.10 L3761.51 507.02 L3744.68 507.02 L3744.68 514.94 L3727.72 514.94 L3727.72 522.86 L3710.89 522.86 L3710.89 530.90 L3693.94 530.90 L3693.94 538.95 L3677.11 538.95 L3677.11 546.87 L3660.28 546.87 L3660.28 554.91 L3643.32 554.91 L3643.32 562.96 L3626.49 562.96 L3626.49 571.12 L3609.54 571.12 L3609.54 579.17 L3592.71 579.17 L3592.71 587.34 L3575.76 587.34 L3575.76 595.38 L3558.93 595.38 L3558.93 603.55 L3542.10 603.55 L3542.10 611.72 L3525.14 611.72 L3525.14 619.88 L3508.31 619.88 L3508.31 628.17 L3491.36 628.17 L3491.36 636.34 L3474.53 636.34 L3474.53 644.63 L3457.57 644.63 L3457.57 652.93 L3440.74 652.93 L3440.74 661.09 L3423.91 661.09 L3423.91 669.51 L3406.96 669.51 L3406.96 677.80 L3390.13 677.80 L3390.13 686.09 L3373.18 686.09 L3373.18 694.51 L3356.35 694.51 L3356.35 702.92 L3339.52 702.92 L3339.52 711.34 L3322.56 711.34 L3322.56 719.75 L3305.73 719.75 L3305.73 728.17 L3288.78 728.17 L3288.78 736.58 L3271.95 736.58 L3271.95 745.12 L3255.00 745.12 L3255.00 753.66 L3238.17 753.66 L3238.17 762.08 L3221.34 762.08 L3221.34 770.62 L3204.38 770.62 L3204.38 779.28 L3187.55 779.28 L3187.55 787.82 L3170.60 787.82 L3170.60 796.36 L3153.77 796.36 L3153.77 805.02 L3136.82 805.02 L3136.82 813.68 L3119.99 813.68 L3119.99 822.34 L3103.16 822.34 L3103.16 831.01 L3086.20 831.01 L3086.20 839.67 L3069.37 839.67 L3069.37 848.46 L3052.42 848.46 L3052.42 857.12 L3035.59 857.12 L3035.59 865.91 L3018.63 865.91 L3018.63 874.82 L3001.80 874.82 L3001.80 883.60 L2984.97 883.60 L2984.97 892.39 L2968.02 892.39 L2968.02 901.30 L2951.19 901.30 L2951.19 910.21 L2934.24 910.21 L2934.24 919.12 L2917.41 919.12 L2917.41 928.03 L2900.45 928.03 L2900.45 937.06 L2883.62 937.06 L2883.62 945.97 L2866.79 945.97 L2866.79 955.01 L2849.84 955.01 L2849.84 964.04 L2833.01 964.04 L2833.01 973.08 L2816.05 973.08 L2816.05 982.23 L2799.22 982.23 L2799.22 991.27 L2782.27 991.27 L2782.27 1000.43 L2765.44 1000.43 L2765.44 1009.58 L2748.61 1009.58 L2748.61 1018.87 L2731.66 1018.87 L2731.66 1028.02 L2714.83 1028.02 L2714.83 1037.30 L2697.87 1037.30 L2697.87 1046.46 L2681.04 1046.46 L2681.04 1055.74 L2664.21 1055.74 L2664.21 1065.15 L2647.26 1065.15 L2647.26 1074.43 L2630.43 1074.43 L2630.43 1083.84 L2613.48 1083.84 L2613.48 1093.24 L2596.65 1093.24 L2596.65 1102.65 L2579.69 1102.65 L2579.69 1112.05 L2562.86 1112.05 L2562.86 1121.58 L2546.03 1121.58 L2546.03 1130.99 L2529.08 1130.99 L2529.08 1140.52 L2512.25 1140.52 L2512.25 1150.04 L2495.30 1150.04 L2495.30 1159.70 L2478.47 1159.70 L2478.47 1169.23 L2461.51 1169.23 L2461.51 1178.88 L2444.68 1178.88 L2444.68 1188.53 L2427.85 1188.53 L2427.85 1198.18 L2410.90 1198.18 L2410.90 1207.96 L2394.07 1207.96 L2394.07 1217.74 L2377.11 1217.74 L2377.11 1227.51 L2360.28 1227.51 L2360.28 1237.29 L2343.33 1237.29 L2343.33 1247.07 L2326.50 1247.07 L2326.50 1256.97 L2309.67 1256.97 L2309.67 1266.87 L2292.72 1266.87 L2292.72 1276.77 L2275.89 1276.77 L2275.89 1286.79 L2258.93 1286.79 L2258.93 1296.69 L2242.10 1296.69 L2242.10 1306.72 L2225.15 1306.72 L2225.15 1316.74 L2208.32 1316.74 L2208.32 1326.89 L2191.49 1326.89 L2191.49 1337.04 L2174.53 1337.04 L2174.53 1347.18 L2157.70 1347.18 L2157.70 1357.33 L2140.75 1357.33 L2140.75 1367.48 L2123.92 1367.48 L2123.92 1377.75 L2106.97 1377.75 L2106.97 1388.02 L2090.14 1388.02 L2090.14 1398.29 L2073.31 1398.29 L2073.31 1408.57 L2056.35 1408.57 L2056.35 1418.96 L2039.52 1418.96 L2039.52 1429.36 L2022.57 1429.36 L2022.57 1439.88 L2005.74 1439.88 L2005.74 1450.27 L1988.91 1450.27 L1988.91 1460.79 L1971.96 1460.79 L1971.96 1471.31 L1955.13 1471.31 L1955.13 1481.83 L1938.17 1481.83 L1938.17 1492.47 L1921.34 1492.47 L1921.34 1503.11 L1904.39 1503.11 L1904.39 1513.76 L1887.56 1513.76 L1887.56 1524.52 L1870.73 1524.52 L1870.73 1535.17 L1853.78 1535.17 L1853.78 1545.93 L1836.94 1545.93 L1836.94 1556.82 L1819.99 1556.82 L1819.99 1567.59 L1803.16 1567.59 L1803.16 1578.48 L1786.21 1578.48 L1786.21 1589.49 L1769.38 1589.49 L1769.38 1600.39 L1752.55 1600.39 L1752.55 1611.40 L1735.59 1611.40 L1735.59 1622.41 L1718.76 1622.41 L1718.76 1633.55 L1701.81 1633.55 L1701.81 1644.57 L1684.98 1644.57 L1684.98 1655.70 L1668.03 1655.70 L1668.03 1666.96 L1651.20 1666.96 L1651.20 1678.23 L1634.37 1678.23 L1634.37 1689.49 L1617.41 1689.49 L1617.41 1700.75 L1600.58 1700.75 L1600.58 1712.13 L1583.63 1712.13 L1583.63 1723.52 L1566.80 1723.52 L1566.80 1735.03 L1549.85 1735.03 L1549.85 1746.54 L1533.02 1746.54 L1533.02 1758.05 L1516.18 1758.05 L1516.18 1769.68 L1499.23 1769.68 L1499.23 1781.31 L1482.40 1781.31 L1482.40 1792.95 L1465.45 1792.95 L1465.45 1804.70 L1448.62 1804.70 L1448.62 1816.46 L1431.66 1816.46 L1431.66 1828.22 L1414.83 1828.22 L1414.83 1840.10 L1398.00 1840.10 L1398.00 1851.98 L1381.05 1851.98 L1381.05 1863.98 L1364.22 1863.98 L1364.22 1875.98 L1347.27 1875.98 L1347.27 1887.99 L1330.44 1887.99 L1330.44 1900.12 L1313.61 1900.12 L1313.61 1912.24 L1296.65 1912.24 L1296.65 1924.37 L1279.82 1924.37 L1279.82 1936.62 L1262.87 1936.62 L1262.87 1949.00 L1246.04 1949.00 L1246.04 1961.25 L1229.09 1961.25 L1229.09 1973.75 L1212.26 1973.75 L1212.26 1986.13 L1195.42 1986.13 L1195.42 1998.62 L1178.47 1998.62 L1178.47 2011.25 L1161.64 2011.25 L1161.64 2023.87 L1144.69 2023.87 L1144.69 2036.49 L1127.86 2036.49 L1127.86 2049.24 L1110.90 2049.24 L1110.90 2061.99 L1094.07 2061.99 L1094.07 2074.86 L1077.24 2074.86 L1077.24 2087.73 L1060.29 2087.73 L1060.29 2100.72 L1043.46 2100.72 L1043.46 2113.72 L1026.51 2113.72 L1026.51 2126.71 L1009.68 2126.71 L1009.68 2139.83 L992.72 2139.83 L992.72 2153.07 L975.89 2153.07 L975.89 2166.19 L959.06 2166.19 L959.06 2179.55 L942.11 2179.55 L942.11 2192.92 L925.28 2192.92 L925.28 2206.28 L908.33 2206.28 L908.33 2219.65 L891.50 2219.65 L891.50 2233.26 L874.54 2233.26 L874.54 2246.75 L857.71 2246.75 L857.71 2260.36 L840.88 2260.36 L840.88 2274.10 L823.93 2274.10 L823.93 2287.84 L807.10 2287.84 L807.10 2301.57 L790.14 2301.57 L790.14 2315.43 L773.31 2315.43 L773.31 2317.79 Z" stroke-linejoin="round"/>
	</defs>
	<defs>
		<clipPath id="clipPath_EwDtemXB">
			<use xlink:href="#path_LpgKoFer"/>
		</clipPath>
	</defs>
	<use xlink:href="#path_LpgKoFer" style="stroke:none;fill:#999999;fill-opacity:0.35"/>
	<use xlink:href="#path_LpgKoFer" style="fill:none;stroke:#808080;stroke-opacity:0.35;stroke-width:17.28" clip-path="url(#clipPath_EwDtemXB)"/>
	<defs>
		<path id="path_vuBqgpZx" d="M773.31 2317.79 L773.31 2317.79 L790.14 2317.79 L790.14 2304.54 L807.10 2304.54 L807.10 2291.43 L823.93 2291.43 L823.93 2278.31 L840.88 2278.31 L840.88 2265.31 L857.71 2265.31 L857.71 2252.44 L874.54 2252.44 L874.54 2239.57 L891.50 2239.57 L891.50 2226.95 L908.33 2226.95 L908.33 2214.33 L925.28 2214.33 L925.28 2201.83 L942.11 2201.83 L942.11 2189.45 L959.06 2189.45 L959.06 2177.08 L975.89 2177.08 L975.89 2164.83 L992.72 2164.83 L992.72 2152.70 L1009.68 2152.70 L1009.68 2140.69 L1026.51 2140.69 L1026.51 2128.69 L1043.46 2128.69 L1043.46 2116.81 L1060.29 2116.81 L1060.29 2104.93 L1077.24 2104.93 L1077.24 2093.17 L1094.07 2093.17 L1094.07 2081.54 L1110.90 2081.54 L1110.90 2069.91 L1127.86 2069.91 L1127.86 2058.40 L1144.69 2058.40 L1144.69 2047.01 L1161.64 2047.01 L1161.64 2035.63 L1178.47 2035.63 L1178.47 2024.37 L1195.42 2024.37 L1195.42 2013.10 L1212.26 2013.10 L1212.26 2001.97 L1229.09 2001.97 L1229.09 1990.95 L1246.04 1990.95 L1246.04 1979.94 L1262.87 1979.94 L1262.87 1969.05 L1279.82 1969.05 L1279.82 1958.16 L1296.65 1958.16 L1296.65 1947.39 L1313.61 1947.39 L1313.61 1936.62 L1330.44 1936.62 L1330.44 1925.86 L1347.27 1925.86 L1347.27 1915.34 L1364.22 1915.34 L1364.22 1904.82 L1381.05 1904.82 L1381.05 1894.30 L1398.00 1894.30 L1398.00 1883.91 L1414.83 1883.91 L1414.83 1873.51 L1431.66 1873.51 L1431.66 1863.24 L1448.62 1863.24 L1448.62 1852.97 L1465.45 1852.97 L1465.45 1842.82 L1482.40 1842.82 L1482.40 1832.67 L1499.23 1832.67 L1499.23 1822.65 L1516.18 1822.65 L1516.18 1812.62 L1533.02 1812.62 L1533.02 1802.72 L1549.85 1802.72 L1549.85 1792.82 L1566.80 1792.82 L1566.80 1782.92 L1583.63 1782.92 L1583.63 1773.15 L1600.58 1773.15 L1600.58 1763.37 L1617.41 1763.37 L1617.41 1753.72 L1634.37 1753.72 L1634.37 1744.06 L1651.20 1744.06 L1651.20 1734.53 L1668.03 1734.53 L1668.03 1725.01 L1684.98 1725.01 L1684.98 1715.48 L1701.81 1715.48 L1701.81 1706.07 L1718.76 1706.07 L1718.76 1696.67 L1735.59 1696.67 L1735.59 1687.38 L1752.55 1687.38 L1752.55 1678.10 L1769.38 1678.10 L1769.38 1668.82 L1786.21 1668.82 L1786.21 1659.66 L1803.16 1659.66 L1803.16 1650.51 L1819.99 1650.51 L1819.99 1641.47 L1836.94 1641.47 L1836.94 1632.44 L1853.78 1632.44 L1853.78 1623.40 L1870.73 1623.40 L1870.73 1614.49 L1887.56 1614.49 L1887.56 1605.58 L1904.39 1605.58 L1904.39 1596.67 L1921.34 1596.67 L1921.34 1587.89 L1938.17 1587.89 L1938.17 1579.10 L1955.13 1579.10 L1955.13 1570.31 L1971.96 1570.31 L1971.96 1561.65 L1988.91 1561.65 L1988.91 1552.99 L2005.74 1552.99 L2005.74 1544.32 L2022.57 1544.32 L2022.57 1535.79 L2039.52 1535.79 L2039.52 1527.25 L2056.35 1527.25 L2056.35 1518.71 L2073.31 1518.71 L2073.31 1510.29 L2090.14 1510.29 L2090.14 1501.88 L2106.97 1501.88 L2106.97 1493.46 L2123.92 1493.46 L2123.92 1485.17 L2140.75 1485.17 L2140.75 1476.88 L2157.70 1476.88 L2157.70 1468.59 L2174.53 1468.59 L2174.53 1460.30 L2191.49 1460.30 L2191.49 1452.13 L2208.32 1452.13 L2208.32 1443.96 L2225.15 1443.96 L2225.15 1435.92 L2242.10 1435.92 L2242.10 1427.75 L2258.93 1427.75 L2258.93 1419.70 L2275.89 1419.70 L2275.89 1411.78 L2292.72 1411.78 L2292.72 1403.74 L2309.67 1403.74 L2309.67 1395.82 L2326.50 1395.82 L2326.50 1387.90 L2343.33 1387.90 L2343.33 1380.10 L2360.28 1380.10 L2360.28 1372.18 L2377.11 1372.18 L2377.11 1364.39 L2394.07 1364.39 L2394.07 1356.59 L2410.90 1356.59 L2410.90 1348.92 L2427.85 1348.92 L2427.85 1341.12 L2444.68 1341.12 L2444.68 1333.45 L2461.51 1333.45 L2461.51 1325.90 L2478.47 1325.90 L2478.47 1318.23 L2495.30 1318.23 L2495.30 1310.68 L2512.25 1310.68 L2512.25 1303.13 L2529.08 1303.13 L2529.08 1295.70 L2546.03 1295.70 L2546.03 1288.15 L2562.86 1288.15 L2562.86 1280.73 L2579.69 1280.73 L2579.69 1273.30 L2596.65 1273.30 L2596.65 1266.00 L2613.48 1266.00 L2613.48 1258.58 L2630.43 1258.58 L2630.43 1251.28 L2647.26 1251.28 L2647.26 1243.97 L2664.21 1243.97 L2664.21 1236.80 L2681.04 1236.80 L2681.04 1229.49 L2697.87 1229.49 L2697.87 1222.32 L2714.83 1222.32 L2714.83 1215.14 L2731.66 1215.14 L2731.66 1207.96 L2748.61 1207.96 L2748.61 1200.91 L2765.44 1200.91 L2765.44 1193.85 L2782.27 1193.85 L2782.27 1186.80 L2799.22 1186.80 L2799.22 1179.75 L2816.05 1179.75 L2816.05 1172.69 L2833.01 1172.69 L2833.01 1165.76 L2849.84 1165.76 L2849.84 1158.83 L2866.79 1158.83 L2866.79 1151.90 L2883.62 1151.90 L2883.62 1144.97 L2900.45 1144.97 L2900.45 1138.16 L2917.41 1138.16 L2917.41 1131.23 L2934.24 1131.23 L2934.24 1124.43 L2951.19 1124.43 L2951.19 1117.62 L2968.02 1117.62 L2968.02 1110.94 L2984.97 1110.94 L2984.97 1104.13 L3001.80 1104.13 L3001.80 1097.45 L3018.63 1097.45 L3018.63 1090.77 L3035.59 1090.77 L3035.59 1084.08 L3052.42 1084.08 L3052.42 1077.40 L3069.37 1077.40 L3069.37 1070.84 L3086.20 1070.84 L3086.20 1064.28 L3103.16 1064.28 L3103.16 1057.72 L3119.99 1057.72 L3119.99 1051.17 L3136.82 1051.17 L3136.82 1044.61 L3153.77 1044.61 L3153.77 1038.17 L3170.60 1038.17 L3170.60 1031.61 L3187.55 1031.61 L3187.55 1025.18 L3204.38 1025.18 L3204.38 1018.74 L3221.34 1018.74 L3221.34 1012.43 L3238.17 1012.43 L3238.17 1006.00 L3255.00 1006.00 L3255.00 999.68 L3271.95 999.68 L3271.95 993.37 L3288.78 993.37 L3288.78 987.06 L3305.73 987.06 L3305.73 980.75 L3322.56 980.75 L3322.56 974.44 L3339.52 974.44 L3339.52 968.25 L3356.35 968.25 L3356.35 962.06 L3373.18 962.06 L3373.18 955.87 L3390.13 955.87 L3390.13 949.69 L3406.96 949.69 L3406.96 943.50 L3423.91 943.50 L3423.91 937.44 L3440.74 937.44 L3440.74 931.25 L3457.57 931.25 L3457.57 925.18 L3474.53 925.18 L3474.53 919.12 L3491.36 919.12 L3491.36 913.06 L3508.31 913.06 L3508.31 907.12 L3525.14 907.12 L3525.14 901.05 L3542.10 901.05 L3542.10 895.11 L3558.93 895.11 L3558.93 889.17 L3575.76 889.17 L3575.76 883.23 L3592.71 883.23 L3592.71 877.29 L3609.54 877.29 L3609.54 871.35 L3626.49 871.35 L3626.49 865.41 L3643.32 865.41 L3643.32 859.59 L3660.28 859.59 L3660.28 853.78 L3677.11 853.78 L3677.11 847.96 L3693.94 847.96 L3693.94 842.15 L3710.89 842.15 L3710.89 836.33 L3727.72 836.33 L3727.72 830.51 L3744.68 830.51 L3744.68 824.82 L3761.51 824.82 L3761.51 819.00 L3778.46 819.00 L3778.46 813.31 L3795.29 813.31 L3795.29 807.62 L3795.29 546.87 L3795.29 554.29 L3778.46 554.29 L3778.46 561.72 L3761.51 561.72 L3761.51 569.14 L3744.68 569.14 L3744.68 576.69 L3727.72 576.69 L3727.72 584.24 L3710.89 584.24 L3710.89 591.67 L3693.94 591.67 L3693.94 599.22 L3677.11 599.22 L3677.11 606.77 L3660.28 606.77 L3660.28 614.31 L3643.32 614.31 L3643.32 621.99 L3626.49 621.99 L3626.49 629.54 L3609.54 629.54 L3609.54 637.21 L3592.71 637.21 L3592.71 644.88 L3575.76 644.88 L3575.76 652.55 L3558.93 652.55 L3558.93 660.23 L3542.10 660.23 L3542.10 667.90 L3525.14 667.90 L3525.14 675.57 L3508.31 675.57 L3508.31 683.37 L3491.36 683.37 L3491.36 691.04 L3474.53 691.04 L3474.53 698.84 L3457.57 698.84 L3457.57 706.63 L3440.74 706.63 L3440.74 714.43 L3423.91 714.43 L3423.91 722.35 L3406.96 722.35 L3406.96 730.15 L3390.13 730.15 L3390.13 738.07 L3373.18 738.07 L3373.18 745.99 L3356.35 745.99 L3356.35 753.91 L3339.52 753.91 L3339.52 761.83 L3322.56 761.83 L3322.56 769.75 L3305.73 769.75 L3305.73 777.79 L3288.78 777.79 L3288.78 785.71 L3271.95 785.71 L3271.95 793.76 L3255.00 793.76 L3255.00 801.80 L3238.17 801.80 L3238.17 809.85 L3221.34 809.85 L3221.34 818.01 L3204.38 818.01 L3204.38 826.06 L3187.55 826.06 L3187.55 834.22 L3170.60 834.22 L3170.60 842.39 L3153.77 842.39 L3153.77 850.56 L3136.82 850.56 L3136.82 858.73 L3119.99 858.73 L3119.99 867.02 L3103.16 867.02 L3103.16 875.19 L3086.20 875.19 L3086.20 883.48 L3069.37 883.48 L3069.37 891.77 L3052.42 891.77 L3052.42 900.06 L3035.59 900.06 L3035.59 908.48 L3018.63 908.48 L3018.63 916.77 L3001.80 916.77 L3001.80 925.18 L2984.97 925.18 L2984.97 933.60 L2968.02 933.60 L2968.02 942.01 L2951.19 942.01 L2951.19 950.43 L2934.24 950.43 L2934.24 958.97 L2917.41 958.97 L2917.41 967.51 L2900.45 967.51 L2900.45 976.05 L2883.62 976.05 L2883.62 984.59 L2866.79 984.59 L2866.79 993.12 L2849.84 993.12 L2849.84 1001.79 L2833.01 1001.79 L2833.01 1010.33 L2816.05 1010.33 L2816.05 1018.99 L2799.22 1018.99 L2799.22 1027.65 L2782.27 1027.65 L2782.27 1036.44 L2765.44 1036.44 L2765.44 1045.10 L2748.61 1045.10 L2748.61 1053.89 L2731.66 1053.89 L2731.66 1062.67 L2714.83 1062.67 L2714.83 1071.46 L2697.87 1071.46 L2697.87 1080.25 L2681.04 1080.25 L2681.04 1089.16 L2664.21 1089.16 L2664.21 1097.94 L2647.26 1097.94 L2647.26 1106.85 L2630.43 1106.85 L2630.43 1115.89 L2613.48 1115.89 L2613.48 1124.80 L2596.65 1124.80 L2596.65 1133.83 L2579.69 1133.83 L2579.69 1142.87 L2562.86 1142.87 L2562.86 1151.90 L2546.03 1151.90 L2546.03 1160.94 L2529.08 1160.94 L2529.08 1170.09 L2512.25 1170.09 L2512.25 1179.13 L2495.30 1179.13 L2495.30 1188.28 L2478.47 1188.28 L2478.47 1197.57 L2461.51 1197.57 L2461.51 1206.72 L2444.68 1206.72 L2444.68 1216.01 L2427.85 1216.01 L2427.85 1225.29 L2410.90 1225.29 L2410.90 1234.69 L2394.07 1234.69 L2394.07 1243.97 L2377.11 1243.97 L2377.11 1253.38 L2360.28 1253.38 L2360.28 1262.78 L2343.33 1262.78 L2343.33 1272.19 L2326.50 1272.19 L2326.50 1281.72 L2309.67 1281.72 L2309.67 1291.25 L2292.72 1291.25 L2292.72 1300.78 L2275.89 1300.78 L2275.89 1310.31 L2258.93 1310.31 L2258.93 1319.83 L2242.10 1319.83 L2242.10 1329.49 L2225.15 1329.49 L2225.15 1339.14 L2208.32 1339.14 L2208.32 1348.92 L2191.49 1348.92 L2191.49 1358.57 L2174.53 1358.57 L2174.53 1368.35 L2157.70 1368.35 L2157.70 1378.12 L2140.75 1378.12 L2140.75 1388.02 L2123.92 1388.02 L2123.92 1397.80 L2106.97 1397.80 L2106.97 1407.70 L2090.14 1407.70 L2090.14 1417.60 L2073.31 1417.60 L2073.31 1427.62 L2056.35 1427.62 L2056.35 1437.52 L2039.52 1437.52 L2039.52 1447.67 L2022.57 1447.67 L2022.57 1457.70 L2005.74 1457.70 L2005.74 1467.84 L1988.91 1467.84 L1988.91 1477.87 L1971.96 1477.87 L1971.96 1488.14 L1955.13 1488.14 L1955.13 1498.29 L1938.17 1498.29 L1938.17 1508.56 L1921.34 1508.56 L1921.34 1518.83 L1904.39 1518.83 L1904.39 1529.10 L1887.56 1529.10 L1887.56 1539.50 L1870.73 1539.50 L1870.73 1549.89 L1853.78 1549.89 L1853.78 1560.41 L1836.94 1560.41 L1836.94 1570.81 L1819.99 1570.81 L1819.99 1581.33 L1803.16 1581.33 L1803.16 1591.85 L1786.21 1591.85 L1786.21 1602.49 L1769.38 1602.49 L1769.38 1613.13 L1752.55 1613.13 L1752.55 1623.77 L1735.59 1623.77 L1735.59 1634.54 L1718.76 1634.54 L1718.76 1645.31 L1701.81 1645.31 L1701.81 1656.07 L1684.98 1656.07 L1684.98 1666.96 L1668.03 1666.96 L1668.03 1677.85 L1651.20 1677.85 L1651.20 1688.75 L1634.37 1688.75 L1634.37 1699.76 L1617.41 1699.76 L1617.41 1710.77 L1600.58 1710.77 L1600.58 1721.91 L1583.63 1721.91 L1583.63 1733.05 L1566.80 1733.05 L1566.80 1744.19 L1549.85 1744.19 L1549.85 1755.32 L1533.02 1755.32 L1533.02 1766.59 L1516.18 1766.59 L1516.18 1777.97 L1499.23 1777.97 L1499.23 1789.23 L1482.40 1789.23 L1482.40 1800.62 L1465.45 1800.62 L1465.45 1812.13 L1448.62 1812.13 L1448.62 1823.64 L1431.66 1823.64 L1431.66 1835.15 L1414.83 1835.15 L1414.83 1846.78 L1398.00 1846.78 L1398.00 1858.41 L1381.05 1858.41 L1381.05 1870.04 L1364.22 1870.04 L1364.22 1881.80 L1347.27 1881.80 L1347.27 1893.68 L1330.44 1893.68 L1330.44 1905.44 L1313.61 1905.44 L1313.61 1917.44 L1296.65 1917.44 L1296.65 1929.32 L1279.82 1929.32 L1279.82 1941.33 L1262.87 1941.33 L1262.87 1953.45 L1246.04 1953.45 L1246.04 1965.58 L1229.09 1965.58 L1229.09 1977.71 L1212.26 1977.71 L1212.26 1989.96 L1195.42 1989.96 L1195.42 2002.21 L1178.47 2002.21 L1178.47 2014.59 L1161.64 2014.59 L1161.64 2027.09 L1144.69 2027.09 L1144.69 2039.46 L1127.86 2039.46 L1127.86 2052.09 L1110.90 2052.09 L1110.90 2064.59 L1094.07 2064.59 L1094.07 2077.21 L1077.24 2077.21 L1077.24 2089.96 L1060.29 2089.96 L1060.29 2102.70 L1043.46 2102.70 L1043.46 2115.57 L1026.51 2115.57 L1026.51 2128.44 L1009.68 2128.44 L1009.68 2141.44 L992.72 2141.44 L992.72 2154.43 L975.89 2154.43 L975.89 2167.43 L959.06 2167.43 L959.06 2180.67 L942.11 2180.67 L942.11 2193.78 L925.28 2193.78 L925.28 2207.03 L908.33 2207.03 L908.33 2220.39 L891.50 2220.39 L891.50 2233.88 L874.54 2233.88 L874.54 2247.25 L857.71 2247.25 L857.71 2260.86 L840.88 2260.86 L840.88 2274.47 L823.93 2274.47 L823.93 2288.09 L807.10 2288.09 L807.10 2301.82 L790.14 2301.82 L790.14 2315.56 L773.31 2315.56 L773.31 2317.79 Z" stroke-linejoin="round"/>
	</defs>
	<defs>
		<clipPath id="clipPath_eLQINOUR">
			<use xlink:href="#path_vuBqgpZx"/>
		</clipPath>
	</defs>
	<use xlink:href="#path_vuBqgpZx" style="stroke:none;fill:#333333;fill-opacity:0.35"/>
	<use xlink:href="#path_vuBqgpZx" style="fill:none;stroke:#000000;stroke-opacity:0.35;stroke-width:17.28" clip-path="url(#clipPath_eLQINOUR)"/>
	<line x1="773.19" y1="2316.67" x2="790.14" y2="2316.67" style="stroke:#808080;stroke-width:8.64"/>
	<line x1="790.14" y1="2316.67" x2="790.14" y2="2303.06" style="stroke:#808080;stroke-width:8.64"/>
	<line x1="790.14" y1="2303.06" x2="799.92" y2="2303.06" style="stroke:#808080;stroke-width:8.64"/>
	<line x1="806.97" y1="2292.91" x2="806.97" y2="2289.57" style="stroke:#808080;stroke-width:8.64"/>
	<line x1="806.97" y1="2289.57" x2="823.93" y2="2289.57" style="stroke:#808080;stroke-width:8.64"/>
	<line x1="823.93" y1="2289.57" x2="823.93" y2="2276.20" style="stroke:#808080;stroke-width:8.64"/>
	<line x1="823.93" y1="2276.20" x2="830.61" y2="2276.20" style="stroke:#808080;stroke-width:8.64"/>
	<line x1="840.76" y1="2269.15" x2="840.76" y2="2262.84" style="stroke:#808080;stroke-width:8.64"/>
	<line x1="840.76" y1="2262.84" x2="857.71" y2="2262.84" style="stroke:#808080;stroke-width:8.64"/>
	<line x1="857.71" y1="2262.84" x2="857.71" y2="2249.60" style="stroke:#808080;stroke-width:8.64"/>
	<line x1="857.71" y1="2249.60" x2="861.55" y2="2249.60" style="stroke:#808080;stroke-width:8.64"/>
	<line x1="874.54" y1="2245.39" x2="874.54" y2="2236.36" style="stroke:#808080;stroke-width:8.64"/>
	<line x1="874.54" y1="2236.36" x2="891.37" y2="2236.36" style="stroke:#808080;stroke-width:8.64"/>
	<line x1="891.37" y1="2236.36" x2="891.37" y2="2223.36" style="stroke:#808080;stroke-width:8.64"/>
	<line x1="891.37" y1="2223.36" x2="892.86" y2="2223.36" style="stroke:#808080;stroke-width:8.64"/>
	<line x1="908.33" y1="2221.51" x2="908.33" y2="2210.24" style="stroke:#808080;stroke-width:8.64"/>
	<line x1="908.33" y1="2210.24" x2="925.15" y2="2210.24" style="stroke:#808080;stroke-width:8.64"/>
	<line x1="925.15" y1="2210.24" x2="925.15" y2="2198.12" style="stroke:#808080;stroke-width:8.64"/>
	<line x1="941.74" y1="2197.37" x2="942.11" y2="2197.37" style="stroke:#808080;stroke-width:8.64"/>
	<line x1="942.11" y1="2197.37" x2="942.11" y2="2184.38" style="stroke:#808080;stroke-width:8.64"/>
	<line x1="942.11" y1="2184.38" x2="958.94" y2="2184.38" style="stroke:#808080;stroke-width:8.64"/>
	<line x1="958.94" y1="2184.38" x2="958.94" y2="2174.23" style="stroke:#808080;stroke-width:8.64"/>
	<line x1="973.54" y1="2171.63" x2="975.89" y2="2171.63" style="stroke:#808080;stroke-width:8.64"/>
	<line x1="975.89" y1="2171.63" x2="975.89" y2="2158.89" style="stroke:#808080;stroke-width:8.64"/>
	<line x1="975.89" y1="2158.89" x2="992.72" y2="2158.89" style="stroke:#808080;stroke-width:8.64"/>
	<line x1="992.72" y1="2158.89" x2="992.72" y2="2150.47" style="stroke:#808080;stroke-width:8.64"/>
	<line x1="1005.84" y1="2146.26" x2="1009.55" y2="2146.26" style="stroke:#808080;stroke-width:8.64"/>
	<line x1="1009.55" y1="2146.26" x2="1009.55" y2="2133.64" style="stroke:#808080;stroke-width:8.64"/>
	<line x1="1009.55" y1="2133.64" x2="1026.51" y2="2133.64" style="stroke:#808080;stroke-width:8.64"/>
	<line x1="1026.51" y1="2133.64" x2="1026.51" y2="2126.71" style="stroke:#808080;stroke-width:8.64"/>
	<line x1="1038.14" y1="2121.14" x2="1043.34" y2="2121.14" style="stroke:#808080;stroke-width:8.64"/>
	<line x1="1043.34" y1="2121.14" x2="1043.34" y2="2108.64" style="stroke:#808080;stroke-width:8.64"/>
	<line x1="1043.34" y1="2108.64" x2="1060.29" y2="2108.64" style="stroke:#808080;stroke-width:8.64"/>
	<line x1="1060.29" y1="2108.64" x2="1060.29" y2="2102.95" style="stroke:#808080;stroke-width:8.64"/>
	<line x1="1070.93" y1="2096.27" x2="1077.12" y2="2096.27" style="stroke:#808080;stroke-width:8.64"/>
	<line x1="1077.12" y1="2096.27" x2="1077.12" y2="2084.02" style="stroke:#808080;stroke-width:8.64"/>
	<line x1="1077.12" y1="2084.02" x2="1093.95" y2="2084.02" style="stroke:#808080;stroke-width:8.64"/>
	<line x1="1093.95" y1="2084.02" x2="1093.95" y2="2078.94" style="stroke:#808080;stroke-width:8.64"/>
	<line x1="1103.97" y1="2071.76" x2="1110.90" y2="2071.76" style="stroke:#808080;stroke-width:8.64"/>
	<line x1="1110.90" y1="2071.76" x2="1110.90" y2="2059.51" style="stroke:#808080;stroke-width:8.64"/>
	<line x1="1110.90" y1="2059.51" x2="1127.73" y2="2059.51" style="stroke:#808080;stroke-width:8.64"/>
	<line x1="1127.73" y1="2059.51" x2="1127.73" y2="2055.18" style="stroke:#808080;stroke-width:8.64"/>
	<line x1="1137.14" y1="2047.38" x2="1144.69" y2="2047.38" style="stroke:#808080;stroke-width:8.64"/>
	<line x1="1144.69" y1="2047.38" x2="1144.69" y2="2035.38" style="stroke:#808080;stroke-width:8.64"/>
	<line x1="1144.69" y1="2035.38" x2="1161.52" y2="2035.38" style="stroke:#808080;stroke-width:8.64"/>
	<line x1="1161.52" y1="2035.38" x2="1161.52" y2="2031.42" style="stroke:#808080;stroke-width:8.64"/>
	<line x1="1170.80" y1="2023.38" x2="1178.47" y2="2023.38" style="stroke:#808080;stroke-width:8.64"/>
	<line x1="1178.47" y1="2023.38" x2="1178.47" y2="2011.50" style="stroke:#808080;stroke-width:8.64"/>
	<line x1="1178.47" y1="2011.50" x2="1195.30" y2="2011.50" style="stroke:#808080;stroke-width:8.64"/>
	<line x1="1195.30" y1="2011.50" x2="1195.30" y2="2007.66" style="stroke:#808080;stroke-width:8.64"/>
	<line x1="1204.58" y1="1999.61" x2="1212.13" y2="1999.61" style="stroke:#808080;stroke-width:8.64"/>
	<line x1="1212.13" y1="1999.61" x2="1212.13" y2="1987.86" style="stroke:#808080;stroke-width:8.64"/>
	<line x1="1212.13" y1="1987.86" x2="1229.09" y2="1987.86" style="stroke:#808080;stroke-width:8.64"/>
	<line x1="1229.09" y1="1987.86" x2="1229.09" y2="1983.77" style="stroke:#808080;stroke-width:8.64"/>
	<line x1="1238.61" y1="1976.10" x2="1245.91" y2="1976.10" style="stroke:#808080;stroke-width:8.64"/>
	<line x1="1245.91" y1="1976.10" x2="1245.91" y2="1964.47" style="stroke:#808080;stroke-width:8.64"/>
	<line x1="1245.91" y1="1964.47" x2="1262.87" y2="1964.47" style="stroke:#808080;stroke-width:8.64"/>
	<line x1="1262.87" y1="1964.47" x2="1262.87" y2="1960.01" style="stroke:#808080;stroke-width:8.64"/>
	<line x1="1272.89" y1="1952.84" x2="1279.70" y2="1952.84" style="stroke:#808080;stroke-width:8.64"/>
	<line x1="1279.70" y1="1952.84" x2="1279.70" y2="1941.33" style="stroke:#808080;stroke-width:8.64"/>
	<line x1="1279.70" y1="1941.33" x2="1296.65" y2="1941.33" style="stroke:#808080;stroke-width:8.64"/>
	<line x1="1296.65" y1="1941.33" x2="1296.65" y2="1936.25" style="stroke:#808080;stroke-width:8.64"/>
	<line x1="1307.42" y1="1929.82" x2="1313.48" y2="1929.82" style="stroke:#808080;stroke-width:8.64"/>
	<line x1="1313.48" y1="1929.82" x2="1313.48" y2="1918.43" style="stroke:#808080;stroke-width:8.64"/>
	<line x1="1313.48" y1="1918.43" x2="1330.31" y2="1918.43" style="stroke:#808080;stroke-width:8.64"/>
	<line x1="1330.31" y1="1918.43" x2="1330.31" y2="1912.37" style="stroke:#808080;stroke-width:8.64"/>
	<line x1="1342.32" y1="1907.05" x2="1347.27" y2="1907.05" style="stroke:#808080;stroke-width:8.64"/>
	<line x1="1347.27" y1="1907.05" x2="1347.27" y2="1895.79" style="stroke:#808080;stroke-width:8.64"/>
	<line x1="1347.27" y1="1895.79" x2="1364.10" y2="1895.79" style="stroke:#808080;stroke-width:8.64"/>
	<line x1="1364.10" y1="1895.79" x2="1364.10" y2="1888.48" style="stroke:#808080;stroke-width:8.64"/>
	<line x1="1377.34" y1="1884.52" x2="1381.05" y2="1884.52" style="stroke:#808080;stroke-width:8.64"/>
	<line x1="1381.05" y1="1884.52" x2="1381.05" y2="1873.39" style="stroke:#808080;stroke-width:8.64"/>
	<line x1="1381.05" y1="1873.39" x2="1397.88" y2="1873.39" style="stroke:#808080;stroke-width:8.64"/>
	<line x1="1397.88" y1="1873.39" x2="1397.88" y2="1864.72" style="stroke:#808080;stroke-width:8.64"/>
	<line x1="1412.61" y1="1862.25" x2="1414.83" y2="1862.25" style="stroke:#808080;stroke-width:8.64"/>
	<line x1="1414.83" y1="1862.25" x2="1414.83" y2="1851.11" style="stroke:#808080;stroke-width:8.64"/>
	<line x1="1414.83" y1="1851.11" x2="1431.66" y2="1851.11" style="stroke:#808080;stroke-width:8.64"/>
	<line x1="1431.66" y1="1851.11" x2="1431.66" y2="1840.96" style="stroke:#808080;stroke-width:8.64"/>
	<line x1="1448.00" y1="1840.10" x2="1448.49" y2="1840.10" style="stroke:#808080;stroke-width:8.64"/>
	<line x1="1448.49" y1="1840.10" x2="1448.49" y2="1829.08" style="stroke:#808080;stroke-width:8.64"/>
	<line x1="1448.49" y1="1829.08" x2="1465.45" y2="1829.08" style="stroke:#808080;stroke-width:8.64"/>
	<line x1="1465.45" y1="1829.08" x2="1465.45" y2="1818.19" style="stroke:#808080;stroke-width:8.64"/>
	<line x1="1465.45" y1="1818.19" x2="1466.44" y2="1818.19" style="stroke:#808080;stroke-width:8.64"/>
	<line x1="1482.28" y1="1816.71" x2="1482.28" y2="1807.30" style="stroke:#808080;stroke-width:8.64"/>
	<line x1="1482.28" y1="1807.30" x2="1499.23" y2="1807.30" style="stroke:#808080;stroke-width:8.64"/>
	<line x1="1499.23" y1="1807.30" x2="1499.23" y2="1796.53" style="stroke:#808080;stroke-width:8.64"/>
	<line x1="1499.23" y1="1796.53" x2="1502.33" y2="1796.53" style="stroke:#808080;stroke-width:8.64"/>
	<line x1="1516.06" y1="1792.95" x2="1516.06" y2="1785.77" style="stroke:#808080;stroke-width:8.64"/>
	<line x1="1516.06" y1="1785.77" x2="1533.02" y2="1785.77" style="stroke:#808080;stroke-width:8.64"/>
	<line x1="1533.02" y1="1785.77" x2="1533.02" y2="1775.00" style="stroke:#808080;stroke-width:8.64"/>
	<line x1="1533.02" y1="1775.00" x2="1538.46" y2="1775.00" style="stroke:#808080;stroke-width:8.64"/>
	<line x1="1549.85" y1="1769.19" x2="1549.85" y2="1764.36" style="stroke:#808080;stroke-width:8.64"/>
	<line x1="1549.85" y1="1764.36" x2="1566.67" y2="1764.36" style="stroke:#808080;stroke-width:8.64"/>
	<line x1="1566.67" y1="1764.36" x2="1566.67" y2="1753.72" style="stroke:#808080;stroke-width:8.64"/>
	<line x1="1566.67" y1="1753.72" x2="1574.72" y2="1753.72" style="stroke:#808080;stroke-width:8.64"/>
	<line x1="1583.63" y1="1745.42" x2="1583.63" y2="1743.20" style="stroke:#808080;stroke-width:8.64"/>
	<line x1="1583.63" y1="1743.20" x2="1600.46" y2="1743.20" style="stroke:#808080;stroke-width:8.64"/>
	<line x1="1600.46" y1="1743.20" x2="1600.46" y2="1732.68" style="stroke:#808080;stroke-width:8.64"/>
	<line x1="1600.46" y1="1732.68" x2="1611.22" y2="1732.68" style="stroke:#808080;stroke-width:8.64"/>
	<line x1="1618.03" y1="1722.16" x2="1634.24" y2="1722.16" style="stroke:#808080;stroke-width:8.64"/>
	<line x1="1634.24" y1="1722.16" x2="1634.24" y2="1711.76" style="stroke:#808080;stroke-width:8.64"/>
	<line x1="1634.24" y1="1711.76" x2="1647.86" y2="1711.76" style="stroke:#808080;stroke-width:8.64"/>
	<line x1="1654.79" y1="1701.37" x2="1668.03" y2="1701.37" style="stroke:#808080;stroke-width:8.64"/>
	<line x1="1668.03" y1="1701.37" x2="1668.03" y2="1691.10" style="stroke:#808080;stroke-width:8.64"/>
	<line x1="1668.03" y1="1691.10" x2="1684.86" y2="1691.10" style="stroke:#808080;stroke-width:8.64"/>
	<line x1="1691.79" y1="1680.83" x2="1701.81" y2="1680.83" style="stroke:#808080;stroke-width:8.64"/>
	<line x1="1701.81" y1="1680.83" x2="1701.81" y2="1670.55" style="stroke:#808080;stroke-width:8.64"/>
	<line x1="1701.81" y1="1670.55" x2="1718.64" y2="1670.55" style="stroke:#808080;stroke-width:8.64"/>
	<line x1="1718.64" y1="1670.55" x2="1718.64" y2="1667.34" style="stroke:#808080;stroke-width:8.64"/>
	<line x1="1728.91" y1="1660.41" x2="1735.59" y2="1660.41" style="stroke:#808080;stroke-width:8.64"/>
	<line x1="1735.59" y1="1660.41" x2="1735.59" y2="1650.26" style="stroke:#808080;stroke-width:8.64"/>
	<line x1="1735.59" y1="1650.26" x2="1752.42" y2="1650.26" style="stroke:#808080;stroke-width:8.64"/>
	<line x1="1752.42" y1="1650.26" x2="1752.42" y2="1643.58" style="stroke:#808080;stroke-width:8.64"/>
	<line x1="1766.16" y1="1640.11" x2="1769.25" y2="1640.11" style="stroke:#808080;stroke-width:8.64"/>
	<line x1="1769.25" y1="1640.11" x2="1769.25" y2="1630.09" style="stroke:#808080;stroke-width:8.64"/>
	<line x1="1769.25" y1="1630.09" x2="1786.21" y2="1630.09" style="stroke:#808080;stroke-width:8.64"/>
	<line x1="1786.21" y1="1630.09" x2="1786.21" y2="1620.06" style="stroke:#808080;stroke-width:8.64"/>
	<line x1="1786.21" y1="1620.06" x2="1786.45" y2="1620.06" style="stroke:#808080;stroke-width:8.64"/>
	<line x1="1803.04" y1="1619.32" x2="1803.04" y2="1610.04" style="stroke:#808080;stroke-width:8.64"/>
	<line x1="1803.04" y1="1610.04" x2="1819.99" y2="1610.04" style="stroke:#808080;stroke-width:8.64"/>
	<line x1="1819.99" y1="1610.04" x2="1819.99" y2="1600.14" style="stroke:#808080;stroke-width:8.64"/>
	<line x1="1819.99" y1="1600.14" x2="1824.20" y2="1600.14" style="stroke:#808080;stroke-width:8.64"/>
	<line x1="1836.82" y1="1595.56" x2="1836.82" y2="1590.24" style="stroke:#808080;stroke-width:8.64"/>
	<line x1="1836.82" y1="1590.24" x2="1853.78" y2="1590.24" style="stroke:#808080;stroke-width:8.64"/>
	<line x1="1853.78" y1="1590.24" x2="1853.78" y2="1580.46" style="stroke:#808080;stroke-width:8.64"/>
	<line x1="1853.78" y1="1580.46" x2="1862.07" y2="1580.46" style="stroke:#808080;stroke-width:8.64"/>
	<line x1="1870.61" y1="1571.80" x2="1870.61" y2="1570.68" style="stroke:#808080;stroke-width:8.64"/>
	<line x1="1870.61" y1="1570.68" x2="1887.43" y2="1570.68" style="stroke:#808080;stroke-width:8.64"/>
	<line x1="1887.43" y1="1570.68" x2="1887.43" y2="1560.91" style="stroke:#808080;stroke-width:8.64"/>
	<line x1="1887.43" y1="1560.91" x2="1900.06" y2="1560.91" style="stroke:#808080;stroke-width:8.64"/>
	<line x1="1907.48" y1="1551.13" x2="1921.22" y2="1551.13" style="stroke:#808080;stroke-width:8.64"/>
	<line x1="1921.22" y1="1551.13" x2="1921.22" y2="1541.48" style="stroke:#808080;stroke-width:8.64"/>
	<line x1="1921.22" y1="1541.48" x2="1938.17" y2="1541.48" style="stroke:#808080;stroke-width:8.64"/>
	<line x1="1938.17" y1="1541.48" x2="1938.17" y2="1541.48" style="stroke:#808080;stroke-width:8.64"/>
	<line x1="1945.85" y1="1531.83" x2="1955.00" y2="1531.83" style="stroke:#808080;stroke-width:8.64"/>
	<line x1="1955.00" y1="1531.83" x2="1955.00" y2="1522.17" style="stroke:#808080;stroke-width:8.64"/>
	<line x1="1955.00" y1="1522.17" x2="1971.96" y2="1522.17" style="stroke:#808080;stroke-width:8.64"/>
	<line x1="1971.96" y1="1522.17" x2="1971.96" y2="1517.72" style="stroke:#808080;stroke-width:8.64"/>
	<line x1="1984.21" y1="1512.64" x2="1988.79" y2="1512.64" style="stroke:#808080;stroke-width:8.64"/>
	<line x1="1988.79" y1="1512.64" x2="1988.79" y2="1503.11" style="stroke:#808080;stroke-width:8.64"/>
	<line x1="1988.79" y1="1503.11" x2="2005.62" y2="1503.11" style="stroke:#808080;stroke-width:8.64"/>
	<line x1="2005.62" y1="1503.11" x2="2005.62" y2="1493.71" style="stroke:#808080;stroke-width:8.64"/>
	<line x1="2022.57" y1="1493.46" x2="2022.57" y2="1484.06" style="stroke:#808080;stroke-width:8.64"/>
	<line x1="2022.57" y1="1484.06" x2="2039.40" y2="1484.06" style="stroke:#808080;stroke-width:8.64"/>
	<line x1="2039.40" y1="1484.06" x2="2039.40" y2="1474.65" style="stroke:#808080;stroke-width:8.64"/>
	<line x1="2039.40" y1="1474.65" x2="2044.10" y2="1474.65" style="stroke:#808080;stroke-width:8.64"/>
	<line x1="2056.35" y1="1469.70" x2="2056.35" y2="1465.25" style="stroke:#808080;stroke-width:8.64"/>
	<line x1="2056.35" y1="1465.25" x2="2073.18" y2="1465.25" style="stroke:#808080;stroke-width:8.64"/>
	<line x1="2073.18" y1="1465.25" x2="2073.18" y2="1455.96" style="stroke:#808080;stroke-width:8.64"/>
	<line x1="2073.18" y1="1455.96" x2="2082.96" y2="1455.96" style="stroke:#808080;stroke-width:8.64"/>
	<line x1="2090.88" y1="1446.68" x2="2106.97" y2="1446.68" style="stroke:#808080;stroke-width:8.64"/>
	<line x1="2106.97" y1="1446.68" x2="2106.97" y2="1437.40" style="stroke:#808080;stroke-width:8.64"/>
	<line x1="2106.97" y1="1437.40" x2="2122.07" y2="1437.40" style="stroke:#808080;stroke-width:8.64"/>
	<line x1="2129.99" y1="1428.12" x2="2140.75" y2="1428.12" style="stroke:#808080;stroke-width:8.64"/>
	<line x1="2140.75" y1="1428.12" x2="2140.75" y2="1418.96" style="stroke:#808080;stroke-width:8.64"/>
	<line x1="2140.75" y1="1418.96" x2="2157.58" y2="1418.96" style="stroke:#808080;stroke-width:8.64"/>
	<line x1="2157.58" y1="1418.96" x2="2157.58" y2="1415.37" style="stroke:#808080;stroke-width:8.64"/>
	<line x1="2169.21" y1="1409.80" x2="2174.53" y2="1409.80" style="stroke:#808080;stroke-width:8.64"/>
	<line x1="2174.53" y1="1409.80" x2="2174.53" y2="1400.65" style="stroke:#808080;stroke-width:8.64"/>
	<line x1="2174.53" y1="1400.65" x2="2191.36" y2="1400.65" style="stroke:#808080;stroke-width:8.64"/>
	<line x1="2191.36" y1="1400.65" x2="2191.36" y2="1391.61" style="stroke:#808080;stroke-width:8.64"/>
	<line x1="2208.32" y1="1391.36" x2="2208.32" y2="1382.45" style="stroke:#808080;stroke-width:8.64"/>
	<line x1="2208.32" y1="1382.45" x2="2225.15" y2="1382.45" style="stroke:#808080;stroke-width:8.64"/>
	<line x1="2225.15" y1="1382.45" x2="2225.15" y2="1373.42" style="stroke:#808080;stroke-width:8.64"/>
	<line x1="2225.15" y1="1373.42" x2="2230.72" y2="1373.42" style="stroke:#808080;stroke-width:8.64"/>
	<line x1="2241.98" y1="1367.36" x2="2241.98" y2="1364.39" style="stroke:#808080;stroke-width:8.64"/>
	<line x1="2241.98" y1="1364.39" x2="2258.93" y2="1364.39" style="stroke:#808080;stroke-width:8.64"/>
	<line x1="2258.93" y1="1364.39" x2="2258.93" y2="1355.35" style="stroke:#808080;stroke-width:8.64"/>
	<line x1="2258.93" y1="1355.35" x2="2270.19" y2="1355.35" style="stroke:#808080;stroke-width:8.64"/>
	<line x1="2278.61" y1="1346.44" x2="2292.72" y2="1346.44" style="stroke:#808080;stroke-width:8.64"/>
	<line x1="2292.72" y1="1346.44" x2="2292.72" y2="1337.53" style="stroke:#808080;stroke-width:8.64"/>
	<line x1="2292.72" y1="1337.53" x2="2309.55" y2="1337.53" style="stroke:#808080;stroke-width:8.64"/>
	<line x1="2309.55" y1="1337.53" x2="2309.55" y2="1337.04" style="stroke:#808080;stroke-width:8.64"/>
	<line x1="2318.46" y1="1328.75" x2="2326.50" y2="1328.75" style="stroke:#808080;stroke-width:8.64"/>
	<line x1="2326.50" y1="1328.75" x2="2326.50" y2="1319.83" style="stroke:#808080;stroke-width:8.64"/>
	<line x1="2326.50" y1="1319.83" x2="2343.33" y2="1319.83" style="stroke:#808080;stroke-width:8.64"/>
	<line x1="2343.33" y1="1319.83" x2="2343.33" y2="1313.28" style="stroke:#808080;stroke-width:8.64"/>
	<line x1="2358.30" y1="1311.05" x2="2360.16" y2="1311.05" style="stroke:#808080;stroke-width:8.64"/>
	<line x1="2360.16" y1="1311.05" x2="2360.16" y2="1302.26" style="stroke:#808080;stroke-width:8.64"/>
	<line x1="2360.16" y1="1302.26" x2="2377.11" y2="1302.26" style="stroke:#808080;stroke-width:8.64"/>
	<line x1="2377.11" y1="1302.26" x2="2377.11" y2="1293.60" style="stroke:#808080;stroke-width:8.64"/>
	<line x1="2377.11" y1="1293.60" x2="2381.20" y2="1293.60" style="stroke:#808080;stroke-width:8.64"/>
	<line x1="2393.94" y1="1289.14" x2="2393.94" y2="1284.81" style="stroke:#808080;stroke-width:8.64"/>
	<line x1="2393.94" y1="1284.81" x2="2410.90" y2="1284.81" style="stroke:#808080;stroke-width:8.64"/>
	<line x1="2410.90" y1="1284.81" x2="2410.90" y2="1276.15" style="stroke:#808080;stroke-width:8.64"/>
	<line x1="2410.90" y1="1276.15" x2="2421.29" y2="1276.15" style="stroke:#808080;stroke-width:8.64"/>
	<line x1="2429.95" y1="1267.49" x2="2444.56" y2="1267.49" style="stroke:#808080;stroke-width:8.64"/>
	<line x1="2444.56" y1="1267.49" x2="2444.56" y2="1258.95" style="stroke:#808080;stroke-width:8.64"/>
	<line x1="2444.56" y1="1258.95" x2="2461.51" y2="1258.95" style="stroke:#808080;stroke-width:8.64"/>
	<line x1="2461.51" y1="1258.95" x2="2461.51" y2="1258.82" style="stroke:#808080;stroke-width:8.64"/>
	<line x1="2470.30" y1="1250.29" x2="2478.34" y2="1250.29" style="stroke:#808080;stroke-width:8.64"/>
	<line x1="2478.34" y1="1250.29" x2="2478.34" y2="1241.75" style="stroke:#808080;stroke-width:8.64"/>
	<line x1="2478.34" y1="1241.75" x2="2495.30" y2="1241.75" style="stroke:#808080;stroke-width:8.64"/>
	<line x1="2495.30" y1="1241.75" x2="2495.30" y2="1234.94" style="stroke:#808080;stroke-width:8.64"/>
	<line x1="2510.76" y1="1233.21" x2="2512.13" y2="1233.21" style="stroke:#808080;stroke-width:8.64"/>
	<line x1="2512.13" y1="1233.21" x2="2512.13" y2="1224.79" style="stroke:#808080;stroke-width:8.64"/>
	<line x1="2512.13" y1="1224.79" x2="2529.08" y2="1224.79" style="stroke:#808080;stroke-width:8.64"/>
	<line x1="2529.08" y1="1224.79" x2="2529.08" y2="1216.25" style="stroke:#808080;stroke-width:8.64"/>
	<line x1="2529.08" y1="1216.25" x2="2534.15" y2="1216.25" style="stroke:#808080;stroke-width:8.64"/>
	<line x1="2545.91" y1="1210.81" x2="2545.91" y2="1207.84" style="stroke:#808080;stroke-width:8.64"/>
	<line x1="2545.91" y1="1207.84" x2="2562.74" y2="1207.84" style="stroke:#808080;stroke-width:8.64"/>
	<line x1="2562.74" y1="1207.84" x2="2562.74" y2="1199.42" style="stroke:#808080;stroke-width:8.64"/>
	<line x1="2562.74" y1="1199.42" x2="2574.87" y2="1199.42" style="stroke:#808080;stroke-width:8.64"/>
	<line x1="2583.90" y1="1191.13" x2="2596.52" y2="1191.13" style="stroke:#808080;stroke-width:8.64"/>
	<line x1="2596.52" y1="1191.13" x2="2596.52" y2="1182.72" style="stroke:#808080;stroke-width:8.64"/>
	<line x1="2596.52" y1="1182.72" x2="2613.48" y2="1182.72" style="stroke:#808080;stroke-width:8.64"/>
	<line x1="2613.48" y1="1182.72" x2="2613.48" y2="1180.49" style="stroke:#808080;stroke-width:8.64"/>
	<line x1="2624.74" y1="1174.42" x2="2630.31" y2="1174.42" style="stroke:#808080;stroke-width:8.64"/>
	<line x1="2630.31" y1="1174.42" x2="2630.31" y2="1166.13" style="stroke:#808080;stroke-width:8.64"/>
	<line x1="2630.31" y1="1166.13" x2="2647.26" y2="1166.13" style="stroke:#808080;stroke-width:8.64"/>
	<line x1="2647.26" y1="1166.13" x2="2647.26" y2="1157.84" style="stroke:#808080;stroke-width:8.64"/>
	<line x1="2647.26" y1="1157.84" x2="2648.50" y2="1157.84" style="stroke:#808080;stroke-width:8.64"/>
	<line x1="2664.09" y1="1156.23" x2="2664.09" y2="1149.67" style="stroke:#808080;stroke-width:8.64"/>
	<line x1="2664.09" y1="1149.67" x2="2680.92" y2="1149.67" style="stroke:#808080;stroke-width:8.64"/>
	<line x1="2680.92" y1="1149.67" x2="2680.92" y2="1141.38" style="stroke:#808080;stroke-width:8.64"/>
	<line x1="2680.92" y1="1141.38" x2="2689.58" y2="1141.38" style="stroke:#808080;stroke-width:8.64"/>
	<line x1="2698.62" y1="1133.21" x2="2714.70" y2="1133.21" style="stroke:#808080;stroke-width:8.64"/>
	<line x1="2714.70" y1="1133.21" x2="2714.70" y2="1125.05" style="stroke:#808080;stroke-width:8.64"/>
	<line x1="2714.70" y1="1125.05" x2="2730.79" y2="1125.05" style="stroke:#808080;stroke-width:8.64"/>
	<line x1="2740.07" y1="1117.00" x2="2748.49" y2="1117.00" style="stroke:#808080;stroke-width:8.64"/>
	<line x1="2748.49" y1="1117.00" x2="2748.49" y2="1108.83" style="stroke:#808080;stroke-width:8.64"/>
	<line x1="2748.49" y1="1108.83" x2="2765.44" y2="1108.83" style="stroke:#808080;stroke-width:8.64"/>
	<line x1="2765.44" y1="1108.83" x2="2765.44" y2="1102.03" style="stroke:#808080;stroke-width:8.64"/>
	<line x1="2781.41" y1="1100.79" x2="2782.27" y2="1100.79" style="stroke:#808080;stroke-width:8.64"/>
	<line x1="2782.27" y1="1100.79" x2="2782.27" y2="1092.75" style="stroke:#808080;stroke-width:8.64"/>
	<line x1="2782.27" y1="1092.75" x2="2799.10" y2="1092.75" style="stroke:#808080;stroke-width:8.64"/>
	<line x1="2799.10" y1="1092.75" x2="2799.10" y2="1084.70" style="stroke:#808080;stroke-width:8.64"/>
	<line x1="2799.10" y1="1084.70" x2="2805.66" y2="1084.70" style="stroke:#808080;stroke-width:8.64"/>
	<line x1="2816.05" y1="1077.90" x2="2816.05" y2="1076.78" style="stroke:#808080;stroke-width:8.64"/>
	<line x1="2816.05" y1="1076.78" x2="2832.89" y2="1076.78" style="stroke:#808080;stroke-width:8.64"/>
	<line x1="2832.89" y1="1076.78" x2="2832.89" y2="1068.74" style="stroke:#808080;stroke-width:8.64"/>
	<line x1="2832.89" y1="1068.74" x2="2847.24" y2="1068.74" style="stroke:#808080;stroke-width:8.64"/>
	<line x1="2856.52" y1="1060.82" x2="2866.67" y2="1060.82" style="stroke:#808080;stroke-width:8.64"/>
	<line x1="2866.67" y1="1060.82" x2="2866.67" y2="1052.90" style="stroke:#808080;stroke-width:8.64"/>
	<line x1="2866.67" y1="1052.90" x2="2883.62" y2="1052.90" style="stroke:#808080;stroke-width:8.64"/>
	<line x1="2883.62" y1="1052.90" x2="2883.62" y2="1047.58" style="stroke:#808080;stroke-width:8.64"/>
	<line x1="2898.35" y1="1044.98" x2="2900.45" y2="1044.98" style="stroke:#808080;stroke-width:8.64"/>
	<line x1="2900.45" y1="1044.98" x2="2900.45" y2="1037.18" style="stroke:#808080;stroke-width:8.64"/>
	<line x1="2900.45" y1="1037.18" x2="2917.28" y2="1037.18" style="stroke:#808080;stroke-width:8.64"/>
	<line x1="2917.28" y1="1037.18" x2="2917.28" y2="1029.38" style="stroke:#808080;stroke-width:8.64"/>
	<line x1="2917.28" y1="1029.38" x2="2922.97" y2="1029.38" style="stroke:#808080;stroke-width:8.64"/>
	<line x1="2934.24" y1="1023.32" x2="2934.24" y2="1021.46" style="stroke:#808080;stroke-width:8.64"/>
	<line x1="2934.24" y1="1021.46" x2="2951.07" y2="1021.46" style="stroke:#808080;stroke-width:8.64"/>
	<line x1="2951.07" y1="1021.46" x2="2951.07" y2="1013.67" style="stroke:#808080;stroke-width:8.64"/>
	<line x1="2951.07" y1="1013.67" x2="2964.93" y2="1013.67" style="stroke:#808080;stroke-width:8.64"/>
	<line x1="2974.45" y1="1006.00" x2="2984.85" y2="1006.00" style="stroke:#808080;stroke-width:8.64"/>
	<line x1="2984.85" y1="1006.00" x2="2984.85" y2="998.20" style="stroke:#808080;stroke-width:8.64"/>
	<line x1="2984.85" y1="998.20" x2="3001.80" y2="998.20" style="stroke:#808080;stroke-width:8.64"/>
	<line x1="3001.80" y1="998.20" x2="3001.80" y2="993.00" style="stroke:#808080;stroke-width:8.64"/>
	<line x1="3016.53" y1="990.53" x2="3018.63" y2="990.53" style="stroke:#808080;stroke-width:8.64"/>
	<line x1="3018.63" y1="990.53" x2="3018.63" y2="982.85" style="stroke:#808080;stroke-width:8.64"/>
	<line x1="3018.63" y1="982.85" x2="3035.46" y2="982.85" style="stroke:#808080;stroke-width:8.64"/>
	<line x1="3035.46" y1="982.85" x2="3035.46" y2="975.18" style="stroke:#808080;stroke-width:8.64"/>
	<line x1="3035.46" y1="975.18" x2="3041.53" y2="975.18" style="stroke:#808080;stroke-width:8.64"/>
	<line x1="3052.42" y1="968.87" x2="3052.42" y2="967.51" style="stroke:#808080;stroke-width:8.64"/>
	<line x1="3052.42" y1="967.51" x2="3069.25" y2="967.51" style="stroke:#808080;stroke-width:8.64"/>
	<line x1="3069.25" y1="967.51" x2="3069.25" y2="959.83" style="stroke:#808080;stroke-width:8.64"/>
	<line x1="3069.25" y1="959.83" x2="3083.73" y2="959.83" style="stroke:#808080;stroke-width:8.64"/>
	<line x1="3093.38" y1="952.29" x2="3103.03" y2="952.29" style="stroke:#808080;stroke-width:8.64"/>
	<line x1="3103.03" y1="952.29" x2="3103.03" y2="944.74" style="stroke:#808080;stroke-width:8.64"/>
	<line x1="3103.03" y1="944.74" x2="3119.86" y2="944.74" style="stroke:#808080;stroke-width:8.64"/>
	<line x1="3119.86" y1="944.74" x2="3119.86" y2="938.43" style="stroke:#808080;stroke-width:8.64"/>
	<line x1="3135.95" y1="937.19" x2="3136.82" y2="937.19" style="stroke:#808080;stroke-width:8.64"/>
	<line x1="3136.82" y1="937.19" x2="3136.82" y2="929.64" style="stroke:#808080;stroke-width:8.64"/>
	<line x1="3136.82" y1="929.64" x2="3153.64" y2="929.64" style="stroke:#808080;stroke-width:8.64"/>
	<line x1="3153.64" y1="929.64" x2="3153.64" y2="922.21" style="stroke:#808080;stroke-width:8.64"/>
	<line x1="3153.64" y1="922.21" x2="3161.32" y2="922.21" style="stroke:#808080;stroke-width:8.64"/>
	<line x1="3170.97" y1="914.66" x2="3187.43" y2="914.66" style="stroke:#808080;stroke-width:8.64"/>
	<line x1="3187.43" y1="914.66" x2="3187.43" y2="907.24" style="stroke:#808080;stroke-width:8.64"/>
	<line x1="3187.43" y1="907.24" x2="3203.89" y2="907.24" style="stroke:#808080;stroke-width:8.64"/>
	<line x1="3213.66" y1="899.81" x2="3221.21" y2="899.81" style="stroke:#808080;stroke-width:8.64"/>
	<line x1="3221.21" y1="899.81" x2="3221.21" y2="892.39" style="stroke:#808080;stroke-width:8.64"/>
	<line x1="3221.21" y1="892.39" x2="3238.04" y2="892.39" style="stroke:#808080;stroke-width:8.64"/>
	<line x1="3238.04" y1="892.39" x2="3238.04" y2="885.09" style="stroke:#808080;stroke-width:8.64"/>
	<line x1="3238.04" y1="885.09" x2="3239.28" y2="885.09" style="stroke:#808080;stroke-width:8.64"/>
	<line x1="3255.00" y1="883.60" x2="3255.00" y2="877.66" style="stroke:#808080;stroke-width:8.64"/>
	<line x1="3255.00" y1="877.66" x2="3271.83" y2="877.66" style="stroke:#808080;stroke-width:8.64"/>
	<line x1="3271.83" y1="877.66" x2="3271.83" y2="870.36" style="stroke:#808080;stroke-width:8.64"/>
	<line x1="3271.83" y1="870.36" x2="3282.22" y2="870.36" style="stroke:#808080;stroke-width:8.64"/>
	<line x1="3292.00" y1="862.94" x2="3305.61" y2="862.94" style="stroke:#808080;stroke-width:8.64"/>
	<line x1="3305.61" y1="862.94" x2="3305.61" y2="855.63" style="stroke:#808080;stroke-width:8.64"/>
	<line x1="3305.61" y1="855.63" x2="3322.56" y2="855.63" style="stroke:#808080;stroke-width:8.64"/>
	<line x1="3322.56" y1="855.63" x2="3322.56" y2="853.16" style="stroke:#808080;stroke-width:8.64"/>
	<line x1="3334.94" y1="848.33" x2="3339.39" y2="848.33" style="stroke:#808080;stroke-width:8.64"/>
	<line x1="3339.39" y1="848.33" x2="3339.39" y2="841.16" style="stroke:#808080;stroke-width:8.64"/>
	<line x1="3339.39" y1="841.16" x2="3356.22" y2="841.16" style="stroke:#808080;stroke-width:8.64"/>
	<line x1="3356.22" y1="841.16" x2="3356.22" y2="833.85" style="stroke:#808080;stroke-width:8.64"/>
	<line x1="3356.22" y1="833.85" x2="3360.80" y2="833.85" style="stroke:#808080;stroke-width:8.64"/>
	<line x1="3373.18" y1="829.03" x2="3373.18" y2="826.68" style="stroke:#808080;stroke-width:8.64"/>
	<line x1="3373.18" y1="826.68" x2="3390.01" y2="826.68" style="stroke:#808080;stroke-width:8.64"/>
	<line x1="3390.01" y1="826.68" x2="3390.01" y2="819.50" style="stroke:#808080;stroke-width:8.64"/>
	<line x1="3390.01" y1="819.50" x2="3403.99" y2="819.50" style="stroke:#808080;stroke-width:8.64"/>
	<line x1="3413.89" y1="812.20" x2="3423.79" y2="812.20" style="stroke:#808080;stroke-width:8.64"/>
	<line x1="3423.79" y1="812.20" x2="3423.79" y2="805.14" style="stroke:#808080;stroke-width:8.64"/>
	<line x1="3423.79" y1="805.14" x2="3440.74" y2="805.14" style="stroke:#808080;stroke-width:8.64"/>
	<line x1="3440.74" y1="805.14" x2="3440.74" y2="798.71" style="stroke:#808080;stroke-width:8.64"/>
	<line x1="3457.20" y1="797.96" x2="3457.57" y2="797.96" style="stroke:#808080;stroke-width:8.64"/>
	<line x1="3457.57" y1="797.96" x2="3457.57" y2="790.79" style="stroke:#808080;stroke-width:8.64"/>
	<line x1="3457.57" y1="790.79" x2="3474.41" y2="790.79" style="stroke:#808080;stroke-width:8.64"/>
	<line x1="3474.41" y1="790.79" x2="3474.41" y2="783.73" style="stroke:#808080;stroke-width:8.64"/>
	<line x1="3474.41" y1="783.73" x2="3483.44" y2="783.73" style="stroke:#808080;stroke-width:8.64"/>
	<line x1="3493.59" y1="776.68" x2="3508.19" y2="776.68" style="stroke:#808080;stroke-width:8.64"/>
	<line x1="3508.19" y1="776.68" x2="3508.19" y2="769.63" style="stroke:#808080;stroke-width:8.64"/>
	<line x1="3508.19" y1="769.63" x2="3525.14" y2="769.63" style="stroke:#808080;stroke-width:8.64"/>
	<line x1="3525.14" y1="769.63" x2="3525.14" y2="767.89" style="stroke:#808080;stroke-width:8.64"/>
	<line x1="3537.02" y1="762.57" x2="3541.97" y2="762.57" style="stroke:#808080;stroke-width:8.64"/>
	<line x1="3541.97" y1="762.57" x2="3541.97" y2="755.52" style="stroke:#808080;stroke-width:8.64"/>
	<line x1="3541.97" y1="755.52" x2="3558.93" y2="755.52" style="stroke:#808080;stroke-width:8.64"/>
	<line x1="3558.93" y1="755.52" x2="3558.93" y2="748.59" style="stroke:#808080;stroke-width:8.64"/>
	<line x1="3558.93" y1="748.59" x2="3563.38" y2="748.59" style="stroke:#808080;stroke-width:8.64"/>
	<line x1="3575.76" y1="743.76" x2="3575.76" y2="741.53" style="stroke:#808080;stroke-width:8.64"/>
	<line x1="3575.76" y1="741.53" x2="3592.59" y2="741.53" style="stroke:#808080;stroke-width:8.64"/>
	<line x1="3592.59" y1="741.53" x2="3592.59" y2="734.60" style="stroke:#808080;stroke-width:8.64"/>
	<line x1="3592.59" y1="734.60" x2="3606.94" y2="734.60" style="stroke:#808080;stroke-width:8.64"/>
	<line x1="3617.21" y1="727.67" x2="3626.37" y2="727.67" style="stroke:#808080;stroke-width:8.64"/>
	<line x1="3626.37" y1="727.67" x2="3626.37" y2="720.74" style="stroke:#808080;stroke-width:8.64"/>
	<line x1="3626.37" y1="720.74" x2="3643.32" y2="720.74" style="stroke:#808080;stroke-width:8.64"/>
	<line x1="3643.32" y1="720.74" x2="3643.32" y2="713.81" style="stroke:#808080;stroke-width:8.64"/>
	<line x1="3643.32" y1="713.81" x2="3643.70" y2="713.81" style="stroke:#808080;stroke-width:8.64"/>
	<line x1="3660.15" y1="712.95" x2="3660.15" y2="706.88" style="stroke:#808080;stroke-width:8.64"/>
	<line x1="3660.15" y1="706.88" x2="3677.11" y2="706.88" style="stroke:#808080;stroke-width:8.64"/>
	<line x1="3677.11" y1="706.88" x2="3677.11" y2="700.08" style="stroke:#808080;stroke-width:8.64"/>
	<line x1="3677.11" y1="700.08" x2="3687.63" y2="700.08" style="stroke:#808080;stroke-width:8.64"/>
	<line x1="3698.02" y1="693.27" x2="3710.77" y2="693.27" style="stroke:#808080;stroke-width:8.64"/>
	<line x1="3710.77" y1="693.27" x2="3710.77" y2="686.46" style="stroke:#808080;stroke-width:8.64"/>
	<line x1="3710.77" y1="686.46" x2="3727.72" y2="686.46" style="stroke:#808080;stroke-width:8.64"/>
	<line x1="3727.72" y1="686.46" x2="3727.72" y2="682.63" style="stroke:#808080;stroke-width:8.64"/>
	<line x1="3741.95" y1="679.66" x2="3744.55" y2="679.66" style="stroke:#808080;stroke-width:8.64"/>
	<line x1="3744.55" y1="679.66" x2="3744.55" y2="672.85" style="stroke:#808080;stroke-width:8.64"/>
	<line x1="3744.55" y1="672.85" x2="3761.51" y2="672.85" style="stroke:#808080;stroke-width:8.64"/>
	<line x1="3761.51" y1="672.85" x2="3761.51" y2="666.04" style="stroke:#808080;stroke-width:8.64"/>
	<line x1="3761.51" y1="666.04" x2="3768.68" y2="666.04" style="stroke:#808080;stroke-width:8.64"/>
	<line x1="3779.20" y1="659.36" x2="3795.16" y2="659.36" style="stroke:#808080;stroke-width:8.64"/>
	<line x1="3795.16" y1="659.36" x2="3795.16" y2="652.55" style="stroke:#808080;stroke-width:8.64"/>
	<path d="" stroke-linejoin="round" style="fill:none;stroke:#808080;stroke-width:8.64"/>
	<path d=" M773.19 2316.80 L790.14 2316.80 L790.14 2303.31 L806.97 2303.31 L806.97 2289.82 L823.93 2289.82 L823.93 2276.45 L840.76 2276.45 L840.76 2263.09 L857.71 2263.09 L857.71 2249.97 L874.54 2249.97 L874.54 2236.85 L891.37 2236.85 L891.37 2223.73 L908.33 2223.73 L908.33 2210.74 L925.15 2210.74 L925.15 2197.87 L942.11 2197.87 L942.11 2185.12 L958.94 2185.12 L958.94 2172.38 L975.89 2172.38 L975.89 2159.75 L992.72 2159.75 L992.72 2147.13 L1009.55 2147.13 L1009.55 2134.63 L1026.51 2134.63 L1026.51 2122.26 L1043.34 2122.26 L1043.34 2109.88 L1060.29 2109.88 L1060.29 2097.63 L1077.12 2097.63 L1077.12 2085.38 L1093.95 2085.38 L1093.95 2073.25 L1110.90 2073.25 L1110.90 2061.12 L1127.73 2061.12 L1127.73 2049.12 L1144.69 2049.12 L1144.69 2037.24 L1161.52 2037.24 L1161.52 2025.36 L1178.47 2025.36 L1178.47 2013.48 L1195.30 2013.48 L1195.30 2001.72 L1212.13 2001.72 L1212.13 1990.09 L1229.09 1990.09 L1229.09 1978.45 L1245.91 1978.45 L1245.91 1966.94 L1262.87 1966.94 L1262.87 1955.43 L1279.70 1955.43 L1279.70 1944.05 L1296.65 1944.05 L1296.65 1932.66 L1313.48 1932.66 L1313.48 1921.28 L1330.31 1921.28 L1330.31 1910.02 L1347.27 1910.02 L1347.27 1898.88 L1364.10 1898.88 L1364.10 1887.74 L1381.05 1887.74 L1381.05 1876.73 L1397.88 1876.73 L1397.88 1865.71 L1414.83 1865.71 L1414.83 1854.70 L1431.66 1854.70 L1431.66 1843.81 L1448.49 1843.81 L1448.49 1832.92 L1465.45 1832.92 L1465.45 1822.15 L1482.28 1822.15 L1482.28 1811.39 L1499.23 1811.39 L1499.23 1800.74 L1516.06 1800.74 L1516.06 1790.10 L1533.02 1790.10 L1533.02 1779.46 L1549.85 1779.46 L1549.85 1768.94 L1566.67 1768.94 L1566.67 1758.54 L1583.63 1758.54 L1583.63 1748.02 L1600.46 1748.02 L1600.46 1737.63 L1617.41 1737.63 L1617.41 1727.36 L1634.24 1727.36 L1634.24 1716.96 L1651.20 1716.96 L1651.20 1706.81 L1668.03 1706.81 L1668.03 1696.54 L1684.86 1696.54 L1684.86 1686.39 L1701.81 1686.39 L1701.81 1676.37 L1718.64 1676.37 L1718.64 1666.22 L1735.59 1666.22 L1735.59 1656.32 L1752.42 1656.32 L1752.42 1646.30 L1769.25 1646.30 L1769.25 1636.40 L1786.21 1636.40 L1786.21 1626.50 L1803.04 1626.50 L1803.04 1616.72 L1819.99 1616.72 L1819.99 1606.94 L1836.82 1606.94 L1836.82 1597.17 L1853.78 1597.17 L1853.78 1587.51 L1870.61 1587.51 L1870.61 1577.86 L1887.43 1577.86 L1887.43 1568.21 L1904.39 1568.21 L1904.39 1558.68 L1921.22 1558.68 L1921.22 1549.15 L1938.17 1549.15 L1938.17 1539.62 L1955.00 1539.62 L1955.00 1530.22 L1971.96 1530.22 L1971.96 1520.81 L1988.79 1520.81 L1988.79 1511.41 L2005.62 1511.41 L2005.62 1502.12 L2022.57 1502.12 L2022.57 1492.72 L2039.40 1492.72 L2039.40 1483.56 L2056.35 1483.56 L2056.35 1474.28 L2073.18 1474.28 L2073.18 1465.12 L2090.14 1465.12 L2090.14 1455.96 L2106.97 1455.96 L2106.97 1446.81 L2123.80 1446.81 L2123.80 1437.77 L2140.75 1437.77 L2140.75 1428.74 L2157.58 1428.74 L2157.58 1419.70 L2174.53 1419.70 L2174.53 1410.79 L2191.36 1410.79 L2191.36 1401.88 L2208.32 1401.88 L2208.32 1392.97 L2225.15 1392.97 L2225.15 1384.06 L2241.98 1384.06 L2241.98 1375.28 L2258.93 1375.28 L2258.93 1366.49 L2275.76 1366.49 L2275.76 1357.70 L2292.72 1357.70 L2292.72 1349.04 L2309.55 1349.04 L2309.55 1340.25 L2326.50 1340.25 L2326.50 1331.59 L2343.33 1331.59 L2343.33 1323.05 L2360.16 1323.05 L2360.16 1314.39 L2377.11 1314.39 L2377.11 1305.85 L2393.94 1305.85 L2393.94 1297.31 L2410.90 1297.31 L2410.90 1288.77 L2427.73 1288.77 L2427.73 1280.36 L2444.56 1280.36 L2444.56 1271.94 L2461.51 1271.94 L2461.51 1263.53 L2478.34 1263.53 L2478.34 1255.11 L2495.30 1255.11 L2495.30 1246.82 L2512.13 1246.82 L2512.13 1238.53 L2529.08 1238.53 L2529.08 1230.24 L2545.91 1230.24 L2545.91 1221.95 L2562.74 1221.95 L2562.74 1213.78 L2579.69 1213.78 L2579.69 1205.61 L2596.52 1205.61 L2596.52 1197.44 L2613.48 1197.44 L2613.48 1189.27 L2630.31 1189.27 L2630.31 1181.23 L2647.26 1181.23 L2647.26 1173.19 L2664.09 1173.19 L2664.09 1165.14 L2680.92 1165.14 L2680.92 1157.10 L2697.87 1157.10 L2697.87 1149.18 L2714.70 1149.18 L2714.70 1141.13 L2731.66 1141.13 L2731.66 1133.21 L2748.49 1133.21 L2748.49 1125.42 L2765.44 1125.42 L2765.44 1117.50 L2782.27 1117.50 L2782.27 1109.70 L2799.10 1109.70 L2799.10 1101.90 L2816.05 1101.90 L2816.05 1094.11 L2832.89 1094.11 L2832.89 1086.31 L2849.84 1086.31 L2849.84 1078.51 L2866.67 1078.51 L2866.67 1070.84 L2883.62 1070.84 L2883.62 1063.17 L2900.45 1063.17 L2900.45 1055.50 L2917.28 1055.50 L2917.28 1047.82 L2934.24 1047.82 L2934.24 1040.28 L2951.07 1040.28 L2951.07 1032.60 L2968.02 1032.60 L2968.02 1025.05 L2984.85 1025.05 L2984.85 1017.50 L3001.80 1017.50 L3001.80 1010.08 L3018.63 1010.08 L3018.63 1002.53 L3035.46 1002.53 L3035.46 995.10 L3052.42 995.10 L3052.42 987.68 L3069.25 987.68 L3069.25 980.25 L3086.20 980.25 L3086.20 972.83 L3103.03 972.83 L3103.03 965.40 L3119.86 965.40 L3119.86 958.10 L3136.82 958.10 L3136.82 950.80 L3153.64 950.80 L3153.64 943.50 L3170.60 943.50 L3170.60 936.20 L3187.43 936.20 L3187.43 929.02 L3204.38 929.02 L3204.38 921.72 L3221.21 921.72 L3221.21 914.54 L3238.04 914.54 L3238.04 907.36 L3255.00 907.36 L3255.00 900.19 L3271.83 900.19 L3271.83 893.01 L3288.78 893.01 L3288.78 885.95 L3305.61 885.95 L3305.61 878.90 L3322.56 878.90 L3322.56 871.85 L3339.39 871.85 L3339.39 864.79 L3356.22 864.79 L3356.22 857.74 L3373.18 857.74 L3373.18 850.68 L3390.01 850.68 L3390.01 843.75 L3406.96 843.75 L3406.96 836.82 L3423.79 836.82 L3423.79 829.89 L3440.74 829.89 L3440.74 822.96 L3457.57 822.96 L3457.57 816.03 L3474.41 816.03 L3474.41 809.10 L3491.36 809.10 L3491.36 802.30 L3508.19 802.30 L3508.19 795.49 L3525.14 795.49 L3525.14 788.68 L3541.97 788.68 L3541.97 781.88 L3558.93 781.88 L3558.93 775.07 L3575.76 775.07 L3575.76 768.26 L3592.59 768.26 L3592.59 761.58 L3609.54 761.58 L3609.54 754.77 L3626.37 754.77 L3626.37 748.09 L3643.32 748.09 L3643.32 741.41 L3660.15 741.41 L3660.15 734.73 L3677.11 734.73 L3677.11 728.17 L3693.94 728.17 L3693.94 721.49 L3710.77 721.49 L3710.77 714.93 L3727.72 714.93 L3727.72 708.37 L3744.55 708.37 L3744.55 701.68 L3761.51 701.68 L3761.51 695.13 L3778.34 695.13 L3778.34 688.69 L3795.16 688.69 L3795.16 682.13" stroke-linejoin="round" style="fill:none;stroke:#000000;stroke-width:8.64"/>
	<line x1="553.29" y1="2509.23" x2="553.29" y2="419.90" style="stroke:#000000;stroke-width:5.76"/>
	<line x1="553.29" y1="2445.87" x2="513.32" y2="2445.87" style="stroke:#000000;stroke-width:5.76"/>
	<text x="493.27" y="2480.90" style="font-family:'Helvetica';font-size:99.99px;fill:#000000" text-anchor="end">0</text>
	<line x1="553.29" y1="2314.44" x2="513.32" y2="2314.44" style="stroke:#000000;stroke-width:5.76"/>
	<text x="493.27" y="2349.47" style="font-family:'Helvetica';font-size:99.99px;fill:#000000" text-anchor="end">90</text>
	<line x1="553.29" y1="2183.02" x2="513.32" y2="2183.02" style="stroke:#000000;stroke-width:5.76"/>
	<text x="493.27" y="2218.05" style="font-family:'Helvetica';font-size:99.99px;fill:#000000" text-anchor="end">180</text>
	<line x1="553.29" y1="2051.72" x2="513.32" y2="2051.72" style="stroke:#000000;stroke-width:5.76"/>
	<text x="493.27" y="2086.74" style="font-family:'Helvetica';font-size:99.99px;fill:#000000" text-anchor="end">270</text>
	<line x1="553.29" y1="1920.29" x2="513.32" y2="1920.29" style="stroke:#000000;stroke-width:5.76"/>
	<text x="493.27" y="1955.32" style="font-family:'Helvetica';font-size:99.99px;fill:#000000" text-anchor="end">360</text>
	<line x1="553.29" y1="1788.86" x2="513.32" y2="1788.86" style="stroke:#000000;stroke-width:5.76"/>
	<text x="493.27" y="1823.89" style="font-family:'Helvetica';font-size:99.99px;fill:#000000" text-anchor="end">450</text>
	<line x1="553.29" y1="1657.44" x2="513.32" y2="1657.44" style="stroke:#000000;stroke-width:5.76"/>
	<text x="493.27" y="1692.46" style="font-family:'Helvetica';font-size:99.99px;fill:#000000" text-anchor="end">540</text>
	<line x1="553.29" y1="1526.01" x2="513.32" y2="1526.01" style="stroke:#000000;stroke-width:5.76"/>
	<text x="493.27" y="1561.04" style="font-family:'Helvetica';font-size:99.99px;fill:#000000" text-anchor="end">630</text>
	<line x1="553.29" y1="1394.71" x2="513.32" y2="1394.71" style="stroke:#000000;stroke-width:5.76"/>
	<text x="493.27" y="1429.73" style="font-family:'Helvetica';font-size:99.99px;fill:#000000" text-anchor="end">720</text>
	<line x1="553.29" y1="1263.28" x2="513.32" y2="1263.28" style="stroke:#000000;stroke-width:5.76"/>
	<text x="493.27" y="1298.31" style="font-family:'Helvetica';font-size:99.99px;fill:#000000" text-anchor="end">810</text>
	<line x1="553.29" y1="1131.85" x2="513.32" y2="1131.85" style="stroke:#000000;stroke-width:5.76"/>
	<text x="493.27" y="1166.88" style="font-family:'Helvetica';font-size:99.99px;fill:#000000" text-anchor="end">900</text>
	<line x1="553.29" y1="1000.43" x2="513.32" y2="1000.43" style="stroke:#000000;stroke-width:5.76"/>
	<text x="493.27" y="1035.45" style="font-family:'Helvetica';font-size:99.99px;fill:#000000" text-anchor="end">990</text>
	<line x1="553.29" y1="869.00" x2="513.32" y2="869.00" style="stroke:#000000;stroke-width:5.76"/>
	<text x="493.27" y="904.03" style="font-family:'Helvetica';font-size:99.99px;fill:#000000" text-anchor="end">1080</text>
	<text x="190.71" y="1464.63" style="font-family:'Helvetica';font-size:99.99px;fill:#000000" transform="rotate(-90 190.71,1464.63)" text-anchor="middle">LOS (years)</text>
	<line x1="553.29" y1="2509.23" x2="3859.02" y2="2509.23" style="stroke:#000000;stroke-width:5.76"/>
	<line x1="616.65" y1="2509.23" x2="616.65" y2="2549.21" style="stroke:#000000;stroke-width:5.76"/>
	<text x="616.65" y="2625.15" style="font-family:'Helvetica';font-size:79.94px;fill:#000000" text-anchor="middle">0</text>
	<line x1="807.35" y1="2509.23" x2="807.35" y2="2549.21" style="stroke:#000000;stroke-width:5.76"/>
	<text x="807.35" y="2625.15" style="font-family:'Helvetica';font-size:79.94px;fill:#000000" text-anchor="middle">.3</text>
	<line x1="998.17" y1="2509.23" x2="998.17" y2="2549.21" style="stroke:#000000;stroke-width:5.76"/>
	<text x="998.17" y="2625.15" style="font-family:'Helvetica';font-size:79.94px;fill:#000000" text-anchor="middle">.6</text>
	<line x1="1188.87" y1="2509.23" x2="1188.87" y2="2549.21" style="stroke:#000000;stroke-width:5.76"/>
	<text x="1188.87" y="2625.15" style="font-family:'Helvetica';font-size:79.94px;fill:#000000" text-anchor="middle">.9</text>
	<line x1="1379.57" y1="2509.23" x2="1379.57" y2="2549.21" style="stroke:#000000;stroke-width:5.76"/>
	<text x="1379.57" y="2625.15" style="font-family:'Helvetica';font-size:79.94px;fill:#000000" text-anchor="middle">1.2</text>
	<line x1="1570.39" y1="2509.23" x2="1570.39" y2="2549.21" style="stroke:#000000;stroke-width:5.76"/>
	<text x="1570.39" y="2625.15" style="font-family:'Helvetica';font-size:79.94px;fill:#000000" text-anchor="middle">1.5</text>
	<line x1="1761.09" y1="2509.23" x2="1761.09" y2="2549.21" style="stroke:#000000;stroke-width:5.76"/>
	<text x="1761.09" y="2625.15" style="font-family:'Helvetica';font-size:79.94px;fill:#000000" text-anchor="middle">1.8</text>
	<line x1="1951.91" y1="2509.23" x2="1951.91" y2="2549.21" style="stroke:#000000;stroke-width:5.76"/>
	<text x="1951.91" y="2625.15" style="font-family:'Helvetica';font-size:79.94px;fill:#000000" text-anchor="middle">2.1</text>
	<line x1="2142.61" y1="2509.23" x2="2142.61" y2="2549.21" style="stroke:#000000;stroke-width:5.76"/>
	<text x="2142.61" y="2625.15" style="font-family:'Helvetica';font-size:79.94px;fill:#000000" text-anchor="middle">2.4</text>
	<line x1="2333.31" y1="2509.23" x2="2333.31" y2="2549.21" style="stroke:#000000;stroke-width:5.76"/>
	<text x="2333.31" y="2625.15" style="font-family:'Helvetica';font-size:79.94px;fill:#000000" text-anchor="middle">2.7</text>
	<line x1="2524.13" y1="2509.23" x2="2524.13" y2="2549.21" style="stroke:#000000;stroke-width:5.76"/>
	<text x="2524.13" y="2625.15" style="font-family:'Helvetica';font-size:79.94px;fill:#000000" text-anchor="middle">3</text>
	<line x1="2714.83" y1="2509.23" x2="2714.83" y2="2549.21" style="stroke:#000000;stroke-width:5.76"/>
	<text x="2714.83" y="2625.15" style="font-family:'Helvetica';font-size:79.94px;fill:#000000" text-anchor="middle">3.3</text>
	<line x1="2905.53" y1="2509.23" x2="2905.53" y2="2549.21" style="stroke:#000000;stroke-width:5.76"/>
	<text x="2905.53" y="2625.15" style="font-family:'Helvetica';font-size:79.94px;fill:#000000" text-anchor="middle">3.6</text>
	<line x1="3096.35" y1="2509.23" x2="3096.35" y2="2549.21" style="stroke:#000000;stroke-width:5.76"/>
	<text x="3096.35" y="2625.15" style="font-family:'Helvetica';font-size:79.94px;fill:#000000" text-anchor="middle">3.9</text>
	<line x1="3287.05" y1="2509.23" x2="3287.05" y2="2549.21" style="stroke:#000000;stroke-width:5.76"/>
	<text x="3287.05" y="2625.15" style="font-family:'Helvetica';font-size:79.94px;fill:#000000" text-anchor="middle">4.2</text>
	<line x1="3477.87" y1="2509.23" x2="3477.87" y2="2549.21" style="stroke:#000000;stroke-width:5.76"/>
	<text x="3477.87" y="2625.15" style="font-family:'Helvetica';font-size:79.94px;fill:#000000" text-anchor="middle">4.5</text>
	<line x1="3668.57" y1="2509.23" x2="3668.57" y2="2549.21" style="stroke:#000000;stroke-width:5.76"/>
	<text x="3668.57" y="2625.15" style="font-family:'Helvetica';font-size:79.94px;fill:#000000" text-anchor="middle">4.8</text>
	<line x1="3859.27" y1="2509.23" x2="3859.27" y2="2549.21" style="stroke:#000000;stroke-width:5.76"/>
	<text x="3859.27" y="2625.15" style="font-family:'Helvetica';font-size:79.94px;fill:#000000" text-anchor="middle">5.1</text>
	<text x="2206.22" y="2729.16" style="font-family:'Helvetica';font-size:99.99px;fill:#000000" text-anchor="middle">Time (years)</text>
	<rect x="587.81" y="454.42" width="1384.14" height="606.39" style="fill:#FFFFFF"/>
	<rect x="590.69" y="457.30" width="1378.38" height="600.63" style="fill:none;stroke:#000000;stroke-width:5.76"/>
	<rect x="631.00" y="497.74" width="374.47" height="99.99" style="fill:#999999;fill-opacity:0.35"/>
	<rect x="635.32" y="502.06" width="365.83" height="91.35" style="fill:none;stroke:#808080;stroke-opacity:0.35;stroke-width:8.64"/>
	<rect x="631.00" y="637.70" width="374.47" height="99.99" style="fill:#333333;fill-opacity:0.35"/>
	<rect x="635.32" y="642.02" width="365.83" height="91.35" style="fill:none;stroke:#000000;stroke-opacity:0.35;stroke-width:8.64"/>
	<line x1="631.00" y1="827.67" x2="671.34" y2="827.67" style="stroke:#808080;stroke-width:8.64"/>
	<line x1="688.54" y1="827.67" x2="728.89" y2="827.67" style="stroke:#808080;stroke-width:8.64"/>
	<line x1="746.09" y1="827.67" x2="786.43" y2="827.67" style="stroke:#808080;stroke-width:8.64"/>
	<line x1="803.76" y1="827.67" x2="843.98" y2="827.67" style="stroke:#808080;stroke-width:8.64"/>
	<line x1="861.30" y1="827.67" x2="901.64" y2="827.67" style="stroke:#808080;stroke-width:8.64"/>
	<line x1="918.84" y1="827.67" x2="959.19" y2="827.67" style="stroke:#808080;stroke-width:8.64"/>
	<line x1="976.39" y1="827.67" x2="1005.47" y2="827.67" style="stroke:#808080;stroke-width:8.64"/>
	<line x1="631.00" y1="967.63" x2="1005.47" y2="967.63" style="stroke:#000000;stroke-width:8.64"/>
	<text x="1065.36" y="582.76" style="font-family:'Helvetica';font-size:99.99px;fill:#000000">Ambulatory CI95%</text>
	<text x="1065.36" y="722.73" style="font-family:'Helvetica';font-size:99.99px;fill:#000000">Residential CI95%</text>
	<text x="1065.36" y="862.69" style="font-family:'Helvetica';font-size:99.99px;fill:#000000">Ambulatory</text>
	<text x="1065.36" y="1002.66" style="font-family:'Helvetica';font-size:99.99px;fill:#000000">Residential</text>
	<text x="2206.22" y="369.63" style="font-family:'Helvetica';font-size:110.01px;fill:#000000" text-anchor="middle">in 3rd Readmission</text>
	<text x="2206.22" y="215.98" style="font-family:'Helvetica';font-size:139.96px;fill:#1E2D53" text-anchor="middle">Length of Stay(3y)</text>
</svg>
