<?xml version="1.0" encoding="UTF-8" standalone="no"?>
<!-- This is a Stata 16.1 generated SVG file (http://www.stata.com) -->

<svg version="1.1" width="5.50in" height="4.00in" viewBox="0 0 3960 2880" xmlns="http://www.w3.org/2000/svg" xmlns:xlink="http://www.w3.org/1999/xlink">
	<desc>Stata Graph - los_models_44_3y_rp_22</desc>
	<rect x="0" y="0" width="3960" height="2880" style="fill:#EAF2F3;stroke:none"/>
	<rect x="0.00" y="0.00" width="3959.88" height="2880.00" style="fill:#FFFFFF"/>
	<rect x="2.88" y="2.88" width="3954.12" height="2874.24" style="fill:none;stroke:#FFFFFF;stroke-width:5.76"/>
	<rect x="553.29" y="419.90" width="3305.73" height="2089.34" style="fill:#FFFFFF"/>
	<rect x="556.17" y="422.78" width="3299.97" height="2083.58" style="fill:none;stroke:#FFFFFF;stroke-width:5.76"/>
	<line x1="553.29" y1="2445.87" x2="3859.02" y2="2445.87" style="stroke:#EAF2F3;stroke-width:8.64"/>
	<line x1="553.29" y1="1791.71" x2="3859.02" y2="1791.71" style="stroke:#EAF2F3;stroke-width:8.64"/>
	<line x1="553.29" y1="1137.42" x2="3859.02" y2="1137.42" style="stroke:#EAF2F3;stroke-width:8.64"/>
	<line x1="553.29" y1="483.26" x2="3859.02" y2="483.26" style="stroke:#EAF2F3;stroke-width:8.64"/>
	<defs>
		<path id="path_nxjHXuwq" d="M773.31 2329.42 L773.31 2329.42 L790.14 2329.42 L790.14 2317.04 L807.10 2317.04 L807.10 2304.79 L823.93 2304.79 L823.93 2292.42 L840.88 2292.42 L840.88 2280.17 L857.71 2280.17 L857.71 2268.04 L874.54 2268.04 L874.54 2255.79 L891.50 2255.79 L891.50 2243.66 L908.33 2243.66 L908.33 2231.65 L925.28 2231.65 L925.28 2219.65 L942.11 2219.65 L942.11 2207.65 L959.06 2207.65 L959.06 2195.64 L975.89 2195.64 L975.89 2183.76 L992.72 2183.76 L992.72 2171.88 L1009.68 2171.88 L1009.68 2160.12 L1026.51 2160.12 L1026.51 2148.37 L1043.46 2148.37 L1043.46 2136.61 L1060.29 2136.61 L1060.29 2124.98 L1077.24 2124.98 L1077.24 2113.34 L1094.07 2113.34 L1094.07 2101.84 L1110.90 2101.84 L1110.90 2090.20 L1127.86 2090.20 L1127.86 2078.82 L1144.69 2078.82 L1144.69 2067.31 L1161.64 2067.31 L1161.64 2055.92 L1178.47 2055.92 L1178.47 2044.66 L1195.42 2044.66 L1195.42 2033.40 L1212.26 2033.40 L1212.26 2022.14 L1229.09 2022.14 L1229.09 2010.88 L1246.04 2010.88 L1246.04 1999.74 L1262.87 1999.74 L1262.87 1988.72 L1279.82 1988.72 L1279.82 1977.59 L1296.65 1977.59 L1296.65 1966.57 L1313.61 1966.57 L1313.61 1955.68 L1330.44 1955.68 L1330.44 1944.79 L1347.27 1944.79 L1347.27 1933.90 L1364.22 1933.90 L1364.22 1923.14 L1381.05 1923.14 L1381.05 1912.37 L1398.00 1912.37 L1398.00 1901.60 L1414.83 1901.60 L1414.83 1890.96 L1431.66 1890.96 L1431.66 1880.32 L1448.62 1880.32 L1448.62 1869.80 L1465.45 1869.80 L1465.45 1859.15 L1482.40 1859.15 L1482.40 1848.76 L1499.23 1848.76 L1499.23 1838.24 L1516.18 1838.24 L1516.18 1827.84 L1533.02 1827.84 L1533.02 1817.57 L1549.85 1817.57 L1549.85 1807.18 L1566.80 1807.18 L1566.80 1796.91 L1583.63 1796.91 L1583.63 1786.76 L1600.58 1786.76 L1600.58 1776.61 L1617.41 1776.61 L1617.41 1766.46 L1634.37 1766.46 L1634.37 1756.31 L1651.20 1756.31 L1651.20 1746.29 L1668.03 1746.29 L1668.03 1736.27 L1684.98 1736.27 L1684.98 1726.37 L1701.81 1726.37 L1701.81 1716.34 L1718.76 1716.34 L1718.76 1706.44 L1735.59 1706.44 L1735.59 1696.67 L1752.55 1696.67 L1752.55 1686.89 L1769.38 1686.89 L1769.38 1677.11 L1786.21 1677.11 L1786.21 1667.34 L1803.16 1667.34 L1803.16 1657.56 L1819.99 1657.56 L1819.99 1647.91 L1836.94 1647.91 L1836.94 1638.25 L1853.78 1638.25 L1853.78 1628.72 L1870.73 1628.72 L1870.73 1619.20 L1887.56 1619.20 L1887.56 1609.67 L1904.39 1609.67 L1904.39 1600.14 L1921.34 1600.14 L1921.34 1590.61 L1938.17 1590.61 L1938.17 1581.20 L1955.13 1581.20 L1955.13 1571.80 L1971.96 1571.80 L1971.96 1562.52 L1988.91 1562.52 L1988.91 1553.11 L2005.74 1553.11 L2005.74 1543.83 L2022.57 1543.83 L2022.57 1534.55 L2039.52 1534.55 L2039.52 1525.27 L2056.35 1525.27 L2056.35 1516.11 L2073.31 1516.11 L2073.31 1506.95 L2090.14 1506.95 L2090.14 1497.67 L2106.97 1497.67 L2106.97 1488.64 L2123.92 1488.64 L2123.92 1479.48 L2140.75 1479.48 L2140.75 1470.44 L2157.70 1470.44 L2157.70 1461.41 L2174.53 1461.41 L2174.53 1452.38 L2191.49 1452.38 L2191.49 1443.34 L2208.32 1443.34 L2208.32 1434.31 L2225.15 1434.31 L2225.15 1425.40 L2242.10 1425.40 L2242.10 1416.49 L2258.93 1416.49 L2258.93 1407.58 L2275.89 1407.58 L2275.89 1398.79 L2292.72 1398.79 L2292.72 1389.88 L2309.67 1389.88 L2309.67 1381.09 L2326.50 1381.09 L2326.50 1372.31 L2343.33 1372.31 L2343.33 1363.52 L2360.28 1363.52 L2360.28 1354.86 L2377.11 1354.86 L2377.11 1346.07 L2394.07 1346.07 L2394.07 1337.41 L2410.90 1337.41 L2410.90 1328.75 L2427.85 1328.75 L2427.85 1320.08 L2444.68 1320.08 L2444.68 1311.42 L2461.51 1311.42 L2461.51 1302.88 L2478.47 1302.88 L2478.47 1294.22 L2495.30 1294.22 L2495.30 1285.68 L2512.25 1285.68 L2512.25 1277.14 L2529.08 1277.14 L2529.08 1268.60 L2546.03 1268.60 L2546.03 1260.19 L2562.86 1260.19 L2562.86 1251.65 L2579.69 1251.65 L2579.69 1243.23 L2596.65 1243.23 L2596.65 1234.69 L2613.48 1234.69 L2613.48 1226.28 L2630.43 1226.28 L2630.43 1217.86 L2647.26 1217.86 L2647.26 1209.45 L2664.21 1209.45 L2664.21 1201.16 L2681.04 1201.16 L2681.04 1192.74 L2697.87 1192.74 L2697.87 1184.45 L2714.83 1184.45 L2714.83 1176.16 L2731.66 1176.16 L2731.66 1167.87 L2748.61 1167.87 L2748.61 1159.57 L2765.44 1159.57 L2765.44 1151.28 L2782.27 1151.28 L2782.27 1142.99 L2799.22 1142.99 L2799.22 1134.70 L2816.05 1134.70 L2816.05 1126.53 L2833.01 1126.53 L2833.01 1118.36 L2849.84 1118.36 L2849.84 1110.07 L2866.79 1110.07 L2866.79 1101.90 L2883.62 1101.90 L2883.62 1093.74 L2900.45 1093.74 L2900.45 1085.69 L2917.41 1085.69 L2917.41 1077.52 L2934.24 1077.52 L2934.24 1069.36 L2951.19 1069.36 L2951.19 1061.31 L2968.02 1061.31 L2968.02 1053.15 L2984.97 1053.15 L2984.97 1045.10 L3001.80 1045.10 L3001.80 1037.06 L3018.63 1037.06 L3018.63 1029.01 L3035.59 1029.01 L3035.59 1020.97 L3052.42 1020.97 L3052.42 1012.93 L3069.37 1012.93 L3069.37 1004.88 L3086.20 1004.88 L3086.20 996.96 L3103.16 996.96 L3103.16 988.92 L3119.99 988.92 L3119.99 981.00 L3136.82 981.00 L3136.82 972.95 L3153.77 972.95 L3153.77 965.03 L3170.60 965.03 L3170.60 957.11 L3187.55 957.11 L3187.55 949.19 L3204.38 949.19 L3204.38 941.27 L3221.34 941.27 L3221.34 933.35 L3238.17 933.35 L3238.17 925.56 L3255.00 925.56 L3255.00 917.63 L3271.95 917.63 L3271.95 909.84 L3288.78 909.84 L3288.78 901.92 L3305.73 901.92 L3305.73 894.12 L3322.56 894.12 L3322.56 886.33 L3339.52 886.33 L3339.52 878.40 L3356.35 878.40 L3356.35 870.61 L3373.18 870.61 L3373.18 862.81 L3390.13 862.81 L3390.13 855.14 L3406.96 855.14 L3406.96 847.34 L3423.91 847.34 L3423.91 839.55 L3440.74 839.55 L3440.74 831.87 L3457.57 831.87 L3457.57 824.08 L3474.53 824.08 L3474.53 816.40 L3491.36 816.40 L3491.36 808.61 L3508.31 808.61 L3508.31 800.94 L3525.14 800.94 L3525.14 793.26 L3542.10 793.26 L3542.10 785.59 L3558.93 785.59 L3558.93 777.92 L3575.76 777.92 L3575.76 770.24 L3592.71 770.24 L3592.71 762.70 L3609.54 762.70 L3609.54 755.02 L3626.49 755.02 L3626.49 747.35 L3643.32 747.35 L3643.32 739.80 L3660.28 739.80 L3660.28 732.13 L3677.11 732.13 L3677.11 724.58 L3693.94 724.58 L3693.94 717.03 L3710.89 717.03 L3710.89 709.36 L3727.72 709.36 L3727.72 701.81 L3744.68 701.81 L3744.68 694.26 L3761.51 694.26 L3761.51 686.71 L3778.46 686.71 L3778.46 679.16 L3795.29 679.16 L3795.29 671.61 L3795.29 492.66 L3795.29 501.57 L3778.46 501.57 L3778.46 510.61 L3761.51 510.61 L3761.51 519.52 L3744.68 519.52 L3744.68 528.43 L3727.72 528.43 L3727.72 537.46 L3710.89 537.46 L3710.89 546.37 L3693.94 546.37 L3693.94 555.41 L3677.11 555.41 L3677.11 564.32 L3660.28 564.32 L3660.28 573.35 L3643.32 573.35 L3643.32 582.39 L3626.49 582.39 L3626.49 591.30 L3609.54 591.30 L3609.54 600.33 L3592.71 600.33 L3592.71 609.36 L3575.76 609.36 L3575.76 618.40 L3558.93 618.40 L3558.93 627.43 L3542.10 627.43 L3542.10 636.47 L3525.14 636.47 L3525.14 645.50 L3508.31 645.50 L3508.31 654.66 L3491.36 654.66 L3491.36 663.69 L3474.53 663.69 L3474.53 672.73 L3457.57 672.73 L3457.57 681.88 L3440.74 681.88 L3440.74 690.92 L3423.91 690.92 L3423.91 700.08 L3406.96 700.08 L3406.96 709.23 L3390.13 709.23 L3390.13 718.27 L3373.18 718.27 L3373.18 727.43 L3356.35 727.43 L3356.35 736.58 L3339.52 736.58 L3339.52 745.74 L3322.56 745.74 L3322.56 754.90 L3305.73 754.90 L3305.73 764.18 L3288.78 764.18 L3288.78 773.34 L3271.95 773.34 L3271.95 782.50 L3255.00 782.50 L3255.00 791.65 L3238.17 791.65 L3238.17 800.94 L3221.34 800.94 L3221.34 810.09 L3204.38 810.09 L3204.38 819.37 L3187.55 819.37 L3187.55 828.66 L3170.60 828.66 L3170.60 837.81 L3153.77 837.81 L3153.77 847.10 L3136.82 847.10 L3136.82 856.38 L3119.99 856.38 L3119.99 865.66 L3103.16 865.66 L3103.16 874.94 L3086.20 874.94 L3086.20 884.35 L3069.37 884.35 L3069.37 893.63 L3052.42 893.63 L3052.42 902.91 L3035.59 902.91 L3035.59 912.31 L3018.63 912.31 L3018.63 921.60 L3001.80 921.60 L3001.80 931.00 L2984.97 931.00 L2984.97 940.28 L2968.02 940.28 L2968.02 949.69 L2951.19 949.69 L2951.19 959.09 L2934.24 959.09 L2934.24 968.50 L2917.41 968.50 L2917.41 977.90 L2900.45 977.90 L2900.45 987.31 L2883.62 987.31 L2883.62 996.71 L2866.79 996.71 L2866.79 1006.24 L2849.84 1006.24 L2849.84 1015.65 L2833.01 1015.65 L2833.01 1025.05 L2816.05 1025.05 L2816.05 1034.58 L2799.22 1034.58 L2799.22 1044.11 L2782.27 1044.11 L2782.27 1053.64 L2765.44 1053.64 L2765.44 1063.05 L2748.61 1063.05 L2748.61 1072.57 L2731.66 1072.57 L2731.66 1082.23 L2714.83 1082.23 L2714.83 1091.76 L2697.87 1091.76 L2697.87 1101.29 L2681.04 1101.29 L2681.04 1110.81 L2664.21 1110.81 L2664.21 1120.47 L2647.26 1120.47 L2647.26 1130.12 L2630.43 1130.12 L2630.43 1139.65 L2613.48 1139.65 L2613.48 1149.30 L2596.65 1149.30 L2596.65 1158.95 L2579.69 1158.95 L2579.69 1168.61 L2562.86 1168.61 L2562.86 1178.26 L2546.03 1178.26 L2546.03 1188.04 L2529.08 1188.04 L2529.08 1197.69 L2512.25 1197.69 L2512.25 1207.47 L2495.30 1207.47 L2495.30 1217.12 L2478.47 1217.12 L2478.47 1226.90 L2461.51 1226.90 L2461.51 1236.67 L2444.68 1236.67 L2444.68 1246.45 L2427.85 1246.45 L2427.85 1256.35 L2410.90 1256.35 L2410.90 1266.13 L2394.07 1266.13 L2394.07 1276.03 L2377.11 1276.03 L2377.11 1285.80 L2360.28 1285.80 L2360.28 1295.70 L2343.33 1295.70 L2343.33 1305.60 L2326.50 1305.60 L2326.50 1315.50 L2309.67 1315.50 L2309.67 1325.40 L2292.72 1325.40 L2292.72 1335.43 L2275.89 1335.43 L2275.89 1345.33 L2258.93 1345.33 L2258.93 1355.35 L2242.10 1355.35 L2242.10 1365.38 L2225.15 1365.38 L2225.15 1375.40 L2208.32 1375.40 L2208.32 1385.42 L2191.49 1385.42 L2191.49 1395.57 L2174.53 1395.57 L2174.53 1405.60 L2157.70 1405.60 L2157.70 1415.74 L2140.75 1415.74 L2140.75 1425.89 L2123.92 1425.89 L2123.92 1436.04 L2106.97 1436.04 L2106.97 1446.19 L2090.14 1446.19 L2090.14 1456.46 L2073.31 1456.46 L2073.31 1466.61 L2056.35 1466.61 L2056.35 1476.88 L2039.52 1476.88 L2039.52 1487.15 L2022.57 1487.15 L2022.57 1497.42 L2005.74 1497.42 L2005.74 1507.69 L1988.91 1507.69 L1988.91 1518.09 L1971.96 1518.09 L1971.96 1528.36 L1955.13 1528.36 L1955.13 1538.76 L1938.17 1538.76 L1938.17 1549.15 L1921.34 1549.15 L1921.34 1559.55 L1904.39 1559.55 L1904.39 1570.07 L1887.56 1570.07 L1887.56 1580.46 L1870.73 1580.46 L1870.73 1590.98 L1853.78 1590.98 L1853.78 1601.50 L1836.94 1601.50 L1836.94 1612.02 L1819.99 1612.02 L1819.99 1622.66 L1803.16 1622.66 L1803.16 1633.30 L1786.21 1633.30 L1786.21 1643.82 L1769.38 1643.82 L1769.38 1654.59 L1752.55 1654.59 L1752.55 1665.23 L1735.59 1665.23 L1735.59 1675.87 L1718.76 1675.87 L1718.76 1686.64 L1701.81 1686.64 L1701.81 1697.41 L1684.98 1697.41 L1684.98 1708.30 L1668.03 1708.30 L1668.03 1719.06 L1651.20 1719.06 L1651.20 1729.96 L1634.37 1729.96 L1634.37 1740.85 L1617.41 1740.85 L1617.41 1751.74 L1600.58 1751.74 L1600.58 1762.75 L1583.63 1762.75 L1583.63 1773.76 L1566.80 1773.76 L1566.80 1784.78 L1549.85 1784.78 L1549.85 1795.79 L1533.02 1795.79 L1533.02 1806.93 L1516.18 1806.93 L1516.18 1818.07 L1499.23 1818.07 L1499.23 1829.21 L1482.40 1829.21 L1482.40 1840.34 L1465.45 1840.34 L1465.45 1851.61 L1448.62 1851.61 L1448.62 1862.87 L1431.66 1862.87 L1431.66 1874.13 L1414.83 1874.13 L1414.83 1885.51 L1398.00 1885.51 L1398.00 1896.90 L1381.05 1896.90 L1381.05 1908.28 L1364.22 1908.28 L1364.22 1919.67 L1347.27 1919.67 L1347.27 1931.18 L1330.44 1931.18 L1330.44 1942.69 L1313.61 1942.69 L1313.61 1954.20 L1296.65 1954.20 L1296.65 1965.83 L1279.82 1965.83 L1279.82 1977.46 L1262.87 1977.46 L1262.87 1989.10 L1246.04 1989.10 L1246.04 2000.85 L1229.09 2000.85 L1229.09 2012.49 L1212.26 2012.49 L1212.26 2024.24 L1195.42 2024.24 L1195.42 2036.00 L1178.47 2036.00 L1178.47 2047.88 L1161.64 2047.88 L1161.64 2059.76 L1144.69 2059.76 L1144.69 2071.64 L1127.86 2071.64 L1127.86 2083.52 L1110.90 2083.52 L1110.90 2095.52 L1094.07 2095.52 L1094.07 2107.53 L1077.24 2107.53 L1077.24 2119.53 L1060.29 2119.53 L1060.29 2131.54 L1043.46 2131.54 L1043.46 2143.66 L1026.51 2143.66 L1026.51 2155.79 L1009.68 2155.79 L1009.68 2167.92 L992.72 2167.92 L992.72 2180.17 L975.89 2180.17 L975.89 2192.30 L959.06 2192.30 L959.06 2204.55 L942.11 2204.55 L942.11 2216.80 L925.28 2216.80 L925.28 2229.18 L908.33 2229.18 L908.33 2241.55 L891.50 2241.55 L891.50 2253.81 L874.54 2253.81 L874.54 2266.30 L857.71 2266.30 L857.71 2278.68 L840.88 2278.68 L840.88 2291.06 L823.93 2291.06 L823.93 2303.55 L807.10 2303.55 L807.10 2316.05 L790.14 2316.05 L790.14 2328.55 L773.31 2328.55 L773.31 2329.42 Z" stroke-linejoin="round"/>
	</defs>
	<defs>
		<clipPath id="clipPath_lhrjoblg">
			<use xlink:href="#path_nxjHXuwq"/>
		</clipPath>
	</defs>
	<use xlink:href="#path_nxjHXuwq" style="stroke:none;fill:#999999;fill-opacity:0.35"/>
	<use xlink:href="#path_nxjHXuwq" style="fill:none;stroke:#808080;stroke-opacity:0.35;stroke-width:17.28" clip-path="url(#clipPath_lhrjoblg)"/>
	<defs>
		<path id="path_PStfTTLD" d="M773.31 2329.54 L773.31 2329.54 L790.14 2329.54 L790.14 2317.29 L807.10 2317.29 L807.10 2304.92 L823.93 2304.92 L823.93 2292.66 L840.88 2292.66 L840.88 2280.54 L857.71 2280.54 L857.71 2268.28 L874.54 2268.28 L874.54 2256.16 L891.50 2256.16 L891.50 2244.15 L908.33 2244.15 L908.33 2232.15 L925.28 2232.15 L925.28 2220.14 L942.11 2220.14 L942.11 2208.26 L959.06 2208.26 L959.06 2196.38 L975.89 2196.38 L975.89 2184.50 L992.72 2184.50 L992.72 2172.75 L1009.68 2172.75 L1009.68 2160.99 L1026.51 2160.99 L1026.51 2149.36 L1043.46 2149.36 L1043.46 2137.72 L1060.29 2137.72 L1060.29 2126.09 L1077.24 2126.09 L1077.24 2114.58 L1094.07 2114.58 L1094.07 2103.07 L1110.90 2103.07 L1110.90 2091.69 L1127.86 2091.69 L1127.86 2080.30 L1144.69 2080.30 L1144.69 2068.92 L1161.64 2068.92 L1161.64 2057.66 L1178.47 2057.66 L1178.47 2046.52 L1195.42 2046.52 L1195.42 2035.26 L1212.26 2035.26 L1212.26 2024.24 L1229.09 2024.24 L1229.09 2013.10 L1246.04 2013.10 L1246.04 2002.09 L1262.87 2002.09 L1262.87 1991.08 L1279.82 1991.08 L1279.82 1980.19 L1296.65 1980.19 L1296.65 1969.30 L1313.61 1969.30 L1313.61 1958.53 L1330.44 1958.53 L1330.44 1947.76 L1347.27 1947.76 L1347.27 1937.00 L1364.22 1937.00 L1364.22 1926.23 L1381.05 1926.23 L1381.05 1915.71 L1398.00 1915.71 L1398.00 1905.07 L1414.83 1905.07 L1414.83 1894.55 L1431.66 1894.55 L1431.66 1884.03 L1448.62 1884.03 L1448.62 1873.63 L1465.45 1873.63 L1465.45 1863.24 L1482.40 1863.24 L1482.40 1852.84 L1499.23 1852.84 L1499.23 1842.45 L1516.18 1842.45 L1516.18 1832.18 L1533.02 1832.18 L1533.02 1822.03 L1549.85 1822.03 L1549.85 1811.88 L1566.80 1811.88 L1566.80 1801.73 L1583.63 1801.73 L1583.63 1791.58 L1600.58 1791.58 L1600.58 1781.56 L1617.41 1781.56 L1617.41 1771.54 L1634.37 1771.54 L1634.37 1761.64 L1651.20 1761.64 L1651.20 1751.61 L1668.03 1751.61 L1668.03 1741.84 L1684.98 1741.84 L1684.98 1731.94 L1701.81 1731.94 L1701.81 1722.16 L1718.76 1722.16 L1718.76 1712.38 L1735.59 1712.38 L1735.59 1702.61 L1752.55 1702.61 L1752.55 1692.95 L1769.38 1692.95 L1769.38 1683.30 L1786.21 1683.30 L1786.21 1673.77 L1803.16 1673.77 L1803.16 1664.12 L1819.99 1664.12 L1819.99 1654.59 L1836.94 1654.59 L1836.94 1645.18 L1853.78 1645.18 L1853.78 1635.65 L1870.73 1635.65 L1870.73 1626.25 L1887.56 1626.25 L1887.56 1616.84 L1904.39 1616.84 L1904.39 1607.56 L1921.34 1607.56 L1921.34 1598.16 L1938.17 1598.16 L1938.17 1588.88 L1955.13 1588.88 L1955.13 1579.72 L1971.96 1579.72 L1971.96 1570.44 L1988.91 1570.44 L1988.91 1561.28 L2005.74 1561.28 L2005.74 1552.12 L2022.57 1552.12 L2022.57 1542.96 L2039.52 1542.96 L2039.52 1533.93 L2056.35 1533.93 L2056.35 1524.90 L2073.31 1524.90 L2073.31 1515.86 L2090.14 1515.86 L2090.14 1506.83 L2106.97 1506.83 L2106.97 1497.92 L2123.92 1497.92 L2123.92 1488.88 L2140.75 1488.88 L2140.75 1479.97 L2157.70 1479.97 L2157.70 1471.19 L2174.53 1471.19 L2174.53 1462.28 L2191.49 1462.28 L2191.49 1453.49 L2208.32 1453.49 L2208.32 1444.70 L2225.15 1444.70 L2225.15 1435.92 L2242.10 1435.92 L2242.10 1427.13 L2258.93 1427.13 L2258.93 1418.34 L2275.89 1418.34 L2275.89 1409.68 L2292.72 1409.68 L2292.72 1401.02 L2309.67 1401.02 L2309.67 1392.35 L2326.50 1392.35 L2326.50 1383.69 L2343.33 1383.69 L2343.33 1375.15 L2360.28 1375.15 L2360.28 1366.61 L2377.11 1366.61 L2377.11 1358.07 L2394.07 1358.07 L2394.07 1349.54 L2410.90 1349.54 L2410.90 1341.00 L2427.85 1341.00 L2427.85 1332.58 L2444.68 1332.58 L2444.68 1324.04 L2461.51 1324.04 L2461.51 1315.63 L2478.47 1315.63 L2478.47 1307.21 L2495.30 1307.21 L2495.30 1298.80 L2512.25 1298.80 L2512.25 1290.51 L2529.08 1290.51 L2529.08 1282.09 L2546.03 1282.09 L2546.03 1273.80 L2562.86 1273.80 L2562.86 1265.38 L2579.69 1265.38 L2579.69 1257.09 L2596.65 1257.09 L2596.65 1248.92 L2613.48 1248.92 L2613.48 1240.63 L2630.43 1240.63 L2630.43 1232.34 L2647.26 1232.34 L2647.26 1224.17 L2664.21 1224.17 L2664.21 1216.01 L2681.04 1216.01 L2681.04 1207.84 L2697.87 1207.84 L2697.87 1199.67 L2714.83 1199.67 L2714.83 1191.50 L2731.66 1191.50 L2731.66 1183.33 L2748.61 1183.33 L2748.61 1175.29 L2765.44 1175.29 L2765.44 1167.12 L2782.27 1167.12 L2782.27 1159.08 L2799.22 1159.08 L2799.22 1151.03 L2816.05 1151.03 L2816.05 1142.99 L2833.01 1142.99 L2833.01 1134.95 L2849.84 1134.95 L2849.84 1127.03 L2866.79 1127.03 L2866.79 1118.98 L2883.62 1118.98 L2883.62 1111.06 L2900.45 1111.06 L2900.45 1103.14 L2917.41 1103.14 L2917.41 1095.22 L2934.24 1095.22 L2934.24 1087.30 L2951.19 1087.30 L2951.19 1079.38 L2968.02 1079.38 L2968.02 1071.46 L2984.97 1071.46 L2984.97 1063.54 L3001.80 1063.54 L3001.80 1055.74 L3018.63 1055.74 L3018.63 1047.82 L3035.59 1047.82 L3035.59 1040.03 L3052.42 1040.03 L3052.42 1032.23 L3069.37 1032.23 L3069.37 1024.43 L3086.20 1024.43 L3086.20 1016.64 L3103.16 1016.64 L3103.16 1008.84 L3119.99 1008.84 L3119.99 1001.17 L3136.82 1001.17 L3136.82 993.37 L3153.77 993.37 L3153.77 985.70 L3170.60 985.70 L3170.60 977.90 L3187.55 977.90 L3187.55 970.23 L3204.38 970.23 L3204.38 962.56 L3221.34 962.56 L3221.34 954.88 L3238.17 954.88 L3238.17 947.21 L3255.00 947.21 L3255.00 939.54 L3271.95 939.54 L3271.95 931.87 L3288.78 931.87 L3288.78 924.32 L3305.73 924.32 L3305.73 916.64 L3322.56 916.64 L3322.56 909.10 L3339.52 909.10 L3339.52 901.42 L3356.35 901.42 L3356.35 893.87 L3373.18 893.87 L3373.18 886.33 L3390.13 886.33 L3390.13 878.78 L3406.96 878.78 L3406.96 871.23 L3423.91 871.23 L3423.91 863.68 L3440.74 863.68 L3440.74 856.13 L3457.57 856.13 L3457.57 848.58 L3474.53 848.58 L3474.53 841.16 L3491.36 841.16 L3491.36 833.61 L3508.31 833.61 L3508.31 826.18 L3525.14 826.18 L3525.14 818.63 L3542.10 818.63 L3542.10 811.21 L3558.93 811.21 L3558.93 803.78 L3575.76 803.78 L3575.76 796.36 L3592.71 796.36 L3592.71 788.81 L3609.54 788.81 L3609.54 781.51 L3626.49 781.51 L3626.49 774.08 L3643.32 774.08 L3643.32 766.66 L3660.28 766.66 L3660.28 759.23 L3677.11 759.23 L3677.11 751.80 L3693.94 751.80 L3693.94 744.50 L3710.89 744.50 L3710.89 737.08 L3727.72 737.08 L3727.72 729.78 L3744.68 729.78 L3744.68 722.48 L3761.51 722.48 L3761.51 715.05 L3778.46 715.05 L3778.46 707.75 L3795.29 707.75 L3795.29 700.45 L3795.29 587.46 L3795.29 595.63 L3778.46 595.63 L3778.46 603.80 L3761.51 603.80 L3761.51 611.84 L3744.68 611.84 L3744.68 620.01 L3727.72 620.01 L3727.72 628.17 L3710.89 628.17 L3710.89 636.47 L3693.94 636.47 L3693.94 644.63 L3677.11 644.63 L3677.11 652.80 L3660.28 652.80 L3660.28 660.97 L3643.32 660.97 L3643.32 669.26 L3626.49 669.26 L3626.49 677.43 L3609.54 677.43 L3609.54 685.72 L3592.71 685.72 L3592.71 693.89 L3575.76 693.89 L3575.76 702.18 L3558.93 702.18 L3558.93 710.47 L3542.10 710.47 L3542.10 718.64 L3525.14 718.64 L3525.14 726.93 L3508.31 726.93 L3508.31 735.22 L3491.36 735.22 L3491.36 743.51 L3474.53 743.51 L3474.53 751.93 L3457.57 751.93 L3457.57 760.22 L3440.74 760.22 L3440.74 768.51 L3423.91 768.51 L3423.91 776.80 L3406.96 776.80 L3406.96 785.22 L3390.13 785.22 L3390.13 793.51 L3373.18 793.51 L3373.18 801.93 L3356.35 801.93 L3356.35 810.34 L3339.52 810.34 L3339.52 818.76 L3322.56 818.76 L3322.56 827.05 L3305.73 827.05 L3305.73 835.46 L3288.78 835.46 L3288.78 843.88 L3271.95 843.88 L3271.95 852.42 L3255.00 852.42 L3255.00 860.83 L3238.17 860.83 L3238.17 869.25 L3221.34 869.25 L3221.34 877.79 L3204.38 877.79 L3204.38 886.20 L3187.55 886.20 L3187.55 894.74 L3170.60 894.74 L3170.60 903.16 L3153.77 903.16 L3153.77 911.69 L3136.82 911.69 L3136.82 920.23 L3119.99 920.23 L3119.99 928.77 L3103.16 928.77 L3103.16 937.31 L3086.20 937.31 L3086.20 945.97 L3069.37 945.97 L3069.37 954.51 L3052.42 954.51 L3052.42 963.05 L3035.59 963.05 L3035.59 971.72 L3018.63 971.72 L3018.63 980.38 L3001.80 980.38 L3001.80 988.92 L2984.97 988.92 L2984.97 997.58 L2968.02 997.58 L2968.02 1006.24 L2951.19 1006.24 L2951.19 1014.91 L2934.24 1014.91 L2934.24 1023.57 L2917.41 1023.57 L2917.41 1032.35 L2900.45 1032.35 L2900.45 1041.02 L2883.62 1041.02 L2883.62 1049.80 L2866.79 1049.80 L2866.79 1058.47 L2849.84 1058.47 L2849.84 1067.25 L2833.01 1067.25 L2833.01 1076.04 L2816.05 1076.04 L2816.05 1084.83 L2799.22 1084.83 L2799.22 1093.61 L2782.27 1093.61 L2782.27 1102.52 L2765.44 1102.52 L2765.44 1111.31 L2748.61 1111.31 L2748.61 1120.22 L2731.66 1120.22 L2731.66 1129.13 L2714.83 1129.13 L2714.83 1137.92 L2697.87 1137.92 L2697.87 1146.83 L2681.04 1146.83 L2681.04 1155.86 L2664.21 1155.86 L2664.21 1164.77 L2647.26 1164.77 L2647.26 1173.68 L2630.43 1173.68 L2630.43 1182.72 L2613.48 1182.72 L2613.48 1191.63 L2596.65 1191.63 L2596.65 1200.66 L2579.69 1200.66 L2579.69 1209.69 L2562.86 1209.69 L2562.86 1218.73 L2546.03 1218.73 L2546.03 1227.76 L2529.08 1227.76 L2529.08 1236.92 L2512.25 1236.92 L2512.25 1245.95 L2495.30 1245.95 L2495.30 1255.11 L2478.47 1255.11 L2478.47 1264.27 L2461.51 1264.27 L2461.51 1273.43 L2444.68 1273.43 L2444.68 1282.59 L2427.85 1282.59 L2427.85 1291.74 L2410.90 1291.74 L2410.90 1301.02 L2394.07 1301.02 L2394.07 1310.18 L2377.11 1310.18 L2377.11 1319.46 L2360.28 1319.46 L2360.28 1328.75 L2343.33 1328.75 L2343.33 1338.03 L2326.50 1338.03 L2326.50 1347.31 L2309.67 1347.31 L2309.67 1356.71 L2292.72 1356.71 L2292.72 1366.00 L2275.89 1366.00 L2275.89 1375.40 L2258.93 1375.40 L2258.93 1384.81 L2242.10 1384.81 L2242.10 1394.21 L2225.15 1394.21 L2225.15 1403.74 L2208.32 1403.74 L2208.32 1413.15 L2191.49 1413.15 L2191.49 1422.67 L2174.53 1422.67 L2174.53 1432.20 L2157.70 1432.20 L2157.70 1441.73 L2140.75 1441.73 L2140.75 1451.39 L2123.92 1451.39 L2123.92 1460.91 L2106.97 1460.91 L2106.97 1470.57 L2090.14 1470.57 L2090.14 1480.22 L2073.31 1480.22 L2073.31 1489.87 L2056.35 1489.87 L2056.35 1499.53 L2039.52 1499.53 L2039.52 1509.30 L2022.57 1509.30 L2022.57 1519.08 L2005.74 1519.08 L2005.74 1528.86 L1988.91 1528.86 L1988.91 1538.63 L1971.96 1538.63 L1971.96 1548.53 L1955.13 1548.53 L1955.13 1558.31 L1938.17 1558.31 L1938.17 1568.21 L1921.34 1568.21 L1921.34 1578.11 L1904.39 1578.11 L1904.39 1588.13 L1887.56 1588.13 L1887.56 1598.16 L1870.73 1598.16 L1870.73 1608.06 L1853.78 1608.06 L1853.78 1618.21 L1836.94 1618.21 L1836.94 1628.23 L1819.99 1628.23 L1819.99 1638.38 L1803.16 1638.38 L1803.16 1648.53 L1786.21 1648.53 L1786.21 1658.67 L1769.38 1658.67 L1769.38 1668.94 L1752.55 1668.94 L1752.55 1679.22 L1735.59 1679.22 L1735.59 1689.49 L1718.76 1689.49 L1718.76 1699.76 L1701.81 1699.76 L1701.81 1710.15 L1684.98 1710.15 L1684.98 1720.55 L1668.03 1720.55 L1668.03 1730.95 L1651.20 1730.95 L1651.20 1741.46 L1634.37 1741.46 L1634.37 1751.98 L1617.41 1751.98 L1617.41 1762.50 L1600.58 1762.50 L1600.58 1773.02 L1583.63 1773.02 L1583.63 1783.66 L1566.80 1783.66 L1566.80 1794.31 L1549.85 1794.31 L1549.85 1804.95 L1533.02 1804.95 L1533.02 1815.72 L1516.18 1815.72 L1516.18 1826.48 L1499.23 1826.48 L1499.23 1837.37 L1482.40 1837.37 L1482.40 1848.14 L1465.45 1848.14 L1465.45 1859.15 L1448.62 1859.15 L1448.62 1870.04 L1431.66 1870.04 L1431.66 1881.06 L1414.83 1881.06 L1414.83 1892.07 L1398.00 1892.07 L1398.00 1903.09 L1381.05 1903.09 L1381.05 1914.22 L1364.22 1914.22 L1364.22 1925.36 L1347.27 1925.36 L1347.27 1936.50 L1330.44 1936.50 L1330.44 1947.76 L1313.61 1947.76 L1313.61 1959.02 L1296.65 1959.02 L1296.65 1970.41 L1279.82 1970.41 L1279.82 1981.67 L1262.87 1981.67 L1262.87 1993.06 L1246.04 1993.06 L1246.04 2004.57 L1229.09 2004.57 L1229.09 2016.07 L1212.26 2016.07 L1212.26 2027.58 L1195.42 2027.58 L1195.42 2039.09 L1178.47 2039.09 L1178.47 2050.73 L1161.64 2050.73 L1161.64 2062.36 L1144.69 2062.36 L1144.69 2074.11 L1127.86 2074.11 L1127.86 2085.75 L1110.90 2085.75 L1110.90 2097.63 L1094.07 2097.63 L1094.07 2109.38 L1077.24 2109.38 L1077.24 2121.27 L1060.29 2121.27 L1060.29 2133.15 L1043.46 2133.15 L1043.46 2145.15 L1026.51 2145.15 L1026.51 2157.03 L1009.68 2157.03 L1009.68 2169.16 L992.72 2169.16 L992.72 2181.16 L975.89 2181.16 L975.89 2193.29 L959.06 2193.29 L959.06 2205.42 L942.11 2205.42 L942.11 2217.55 L925.28 2217.55 L925.28 2229.80 L908.33 2229.80 L908.33 2242.05 L891.50 2242.05 L891.50 2254.30 L874.54 2254.30 L874.54 2266.68 L857.71 2266.68 L857.71 2278.93 L840.88 2278.93 L840.88 2291.30 L823.93 2291.30 L823.93 2303.80 L807.10 2303.80 L807.10 2316.18 L790.14 2316.18 L790.14 2328.68 L773.31 2328.68 L773.31 2329.54 Z" stroke-linejoin="round"/>
	</defs>
	<defs>
		<clipPath id="clipPath_xpwouizc">
			<use xlink:href="#path_PStfTTLD"/>
		</clipPath>
	</defs>
	<use xlink:href="#path_PStfTTLD" style="stroke:none;fill:#333333;fill-opacity:0.35"/>
	<use xlink:href="#path_PStfTTLD" style="fill:none;stroke:#000000;stroke-opacity:0.35;stroke-width:17.28" clip-path="url(#clipPath_xpwouizc)"/>
	<line x1="773.19" y1="2329.05" x2="790.14" y2="2329.05" style="stroke:#808080;stroke-width:8.64"/>
	<line x1="790.14" y1="2329.05" x2="790.14" y2="2316.67" style="stroke:#808080;stroke-width:8.64"/>
	<line x1="790.14" y1="2316.67" x2="801.16" y2="2316.67" style="stroke:#808080;stroke-width:8.64"/>
	<line x1="806.97" y1="2305.29" x2="806.97" y2="2304.17" style="stroke:#808080;stroke-width:8.64"/>
	<line x1="806.97" y1="2304.17" x2="823.93" y2="2304.17" style="stroke:#808080;stroke-width:8.64"/>
	<line x1="823.93" y1="2304.17" x2="823.93" y2="2291.80" style="stroke:#808080;stroke-width:8.64"/>
	<line x1="823.93" y1="2291.80" x2="833.83" y2="2291.80" style="stroke:#808080;stroke-width:8.64"/>
	<line x1="840.76" y1="2281.53" x2="840.76" y2="2279.55" style="stroke:#808080;stroke-width:8.64"/>
	<line x1="840.76" y1="2279.55" x2="857.71" y2="2279.55" style="stroke:#808080;stroke-width:8.64"/>
	<line x1="857.71" y1="2279.55" x2="857.71" y2="2267.17" style="stroke:#808080;stroke-width:8.64"/>
	<line x1="857.71" y1="2267.17" x2="866.75" y2="2267.17" style="stroke:#808080;stroke-width:8.64"/>
	<line x1="874.54" y1="2257.77" x2="874.54" y2="2254.92" style="stroke:#808080;stroke-width:8.64"/>
	<line x1="874.54" y1="2254.92" x2="891.37" y2="2254.92" style="stroke:#808080;stroke-width:8.64"/>
	<line x1="891.37" y1="2254.92" x2="891.37" y2="2242.67" style="stroke:#808080;stroke-width:8.64"/>
	<line x1="891.37" y1="2242.67" x2="899.79" y2="2242.67" style="stroke:#808080;stroke-width:8.64"/>
	<line x1="908.33" y1="2233.88" x2="908.33" y2="2230.42" style="stroke:#808080;stroke-width:8.64"/>
	<line x1="908.33" y1="2230.42" x2="925.15" y2="2230.42" style="stroke:#808080;stroke-width:8.64"/>
	<line x1="925.15" y1="2230.42" x2="925.15" y2="2218.29" style="stroke:#808080;stroke-width:8.64"/>
	<line x1="925.15" y1="2218.29" x2="933.08" y2="2218.29" style="stroke:#808080;stroke-width:8.64"/>
	<line x1="942.11" y1="2210.12" x2="942.11" y2="2206.16" style="stroke:#808080;stroke-width:8.64"/>
	<line x1="942.11" y1="2206.16" x2="958.94" y2="2206.16" style="stroke:#808080;stroke-width:8.64"/>
	<line x1="958.94" y1="2206.16" x2="958.94" y2="2194.03" style="stroke:#808080;stroke-width:8.64"/>
	<line x1="958.94" y1="2194.03" x2="966.36" y2="2194.03" style="stroke:#808080;stroke-width:8.64"/>
	<line x1="975.89" y1="2186.36" x2="975.89" y2="2182.03" style="stroke:#808080;stroke-width:8.64"/>
	<line x1="975.89" y1="2182.03" x2="992.72" y2="2182.03" style="stroke:#808080;stroke-width:8.64"/>
	<line x1="992.72" y1="2182.03" x2="992.72" y2="2170.02" style="stroke:#808080;stroke-width:8.64"/>
	<line x1="992.72" y1="2170.02" x2="999.90" y2="2170.02" style="stroke:#808080;stroke-width:8.64"/>
	<line x1="1009.55" y1="2162.48" x2="1009.55" y2="2158.02" style="stroke:#808080;stroke-width:8.64"/>
	<line x1="1009.55" y1="2158.02" x2="1026.51" y2="2158.02" style="stroke:#808080;stroke-width:8.64"/>
	<line x1="1026.51" y1="2158.02" x2="1026.51" y2="2146.14" style="stroke:#808080;stroke-width:8.64"/>
	<line x1="1026.51" y1="2146.14" x2="1033.56" y2="2146.14" style="stroke:#808080;stroke-width:8.64"/>
	<line x1="1043.34" y1="2138.59" x2="1043.34" y2="2134.14" style="stroke:#808080;stroke-width:8.64"/>
	<line x1="1043.34" y1="2134.14" x2="1060.29" y2="2134.14" style="stroke:#808080;stroke-width:8.64"/>
	<line x1="1060.29" y1="2134.14" x2="1060.29" y2="2122.38" style="stroke:#808080;stroke-width:8.64"/>
	<line x1="1060.29" y1="2122.38" x2="1067.47" y2="2122.38" style="stroke:#808080;stroke-width:8.64"/>
	<line x1="1077.12" y1="2114.83" x2="1077.12" y2="2110.50" style="stroke:#808080;stroke-width:8.64"/>
	<line x1="1077.12" y1="2110.50" x2="1093.95" y2="2110.50" style="stroke:#808080;stroke-width:8.64"/>
	<line x1="1093.95" y1="2110.50" x2="1093.95" y2="2098.74" style="stroke:#808080;stroke-width:8.64"/>
	<line x1="1093.95" y1="2098.74" x2="1101.38" y2="2098.74" style="stroke:#808080;stroke-width:8.64"/>
	<line x1="1110.90" y1="2091.07" x2="1110.90" y2="2086.99" style="stroke:#808080;stroke-width:8.64"/>
	<line x1="1110.90" y1="2086.99" x2="1127.73" y2="2086.99" style="stroke:#808080;stroke-width:8.64"/>
	<line x1="1127.73" y1="2086.99" x2="1127.73" y2="2075.23" style="stroke:#808080;stroke-width:8.64"/>
	<line x1="1127.73" y1="2075.23" x2="1135.41" y2="2075.23" style="stroke:#808080;stroke-width:8.64"/>
	<line x1="1144.69" y1="2067.31" x2="1144.69" y2="2063.60" style="stroke:#808080;stroke-width:8.64"/>
	<line x1="1144.69" y1="2063.60" x2="1161.52" y2="2063.60" style="stroke:#808080;stroke-width:8.64"/>
	<line x1="1161.52" y1="2063.60" x2="1161.52" y2="2051.96" style="stroke:#808080;stroke-width:8.64"/>
	<line x1="1161.52" y1="2051.96" x2="1169.68" y2="2051.96" style="stroke:#808080;stroke-width:8.64"/>
	<line x1="1178.47" y1="2043.55" x2="1178.47" y2="2040.45" style="stroke:#808080;stroke-width:8.64"/>
	<line x1="1178.47" y1="2040.45" x2="1195.30" y2="2040.45" style="stroke:#808080;stroke-width:8.64"/>
	<line x1="1195.30" y1="2040.45" x2="1195.30" y2="2028.94" style="stroke:#808080;stroke-width:8.64"/>
	<line x1="1195.30" y1="2028.94" x2="1204.21" y2="2028.94" style="stroke:#808080;stroke-width:8.64"/>
	<line x1="1212.13" y1="2019.54" x2="1212.13" y2="2017.44" style="stroke:#808080;stroke-width:8.64"/>
	<line x1="1212.13" y1="2017.44" x2="1229.09" y2="2017.44" style="stroke:#808080;stroke-width:8.64"/>
	<line x1="1229.09" y1="2017.44" x2="1229.09" y2="2005.93" style="stroke:#808080;stroke-width:8.64"/>
	<line x1="1229.09" y1="2005.93" x2="1238.86" y2="2005.93" style="stroke:#808080;stroke-width:8.64"/>
	<line x1="1245.91" y1="1995.78" x2="1245.91" y2="1994.54" style="stroke:#808080;stroke-width:8.64"/>
	<line x1="1245.91" y1="1994.54" x2="1262.87" y2="1994.54" style="stroke:#808080;stroke-width:8.64"/>
	<line x1="1262.87" y1="1994.54" x2="1262.87" y2="1983.16" style="stroke:#808080;stroke-width:8.64"/>
	<line x1="1262.87" y1="1983.16" x2="1273.63" y2="1983.16" style="stroke:#808080;stroke-width:8.64"/>
	<line x1="1279.70" y1="1972.02" x2="1279.70" y2="1971.77" style="stroke:#808080;stroke-width:8.64"/>
	<line x1="1279.70" y1="1971.77" x2="1296.65" y2="1971.77" style="stroke:#808080;stroke-width:8.64"/>
	<line x1="1296.65" y1="1971.77" x2="1296.65" y2="1960.51" style="stroke:#808080;stroke-width:8.64"/>
	<line x1="1296.65" y1="1960.51" x2="1308.53" y2="1960.51" style="stroke:#808080;stroke-width:8.64"/>
	<line x1="1314.60" y1="1949.25" x2="1330.31" y2="1949.25" style="stroke:#808080;stroke-width:8.64"/>
	<line x1="1330.31" y1="1949.25" x2="1330.31" y2="1938.11" style="stroke:#808080;stroke-width:8.64"/>
	<line x1="1330.31" y1="1938.11" x2="1343.68" y2="1938.11" style="stroke:#808080;stroke-width:8.64"/>
	<line x1="1349.87" y1="1926.97" x2="1364.10" y2="1926.97" style="stroke:#808080;stroke-width:8.64"/>
	<line x1="1364.10" y1="1926.97" x2="1364.10" y2="1915.83" style="stroke:#808080;stroke-width:8.64"/>
	<line x1="1364.10" y1="1915.83" x2="1379.07" y2="1915.83" style="stroke:#808080;stroke-width:8.64"/>
	<line x1="1385.13" y1="1904.70" x2="1397.88" y2="1904.70" style="stroke:#808080;stroke-width:8.64"/>
	<line x1="1397.88" y1="1904.70" x2="1397.88" y2="1893.68" style="stroke:#808080;stroke-width:8.64"/>
	<line x1="1397.88" y1="1893.68" x2="1414.46" y2="1893.68" style="stroke:#808080;stroke-width:8.64"/>
	<line x1="1420.65" y1="1882.67" x2="1431.66" y2="1882.67" style="stroke:#808080;stroke-width:8.64"/>
	<line x1="1431.66" y1="1882.67" x2="1431.66" y2="1871.78" style="stroke:#808080;stroke-width:8.64"/>
	<line x1="1431.66" y1="1871.78" x2="1448.49" y2="1871.78" style="stroke:#808080;stroke-width:8.64"/>
	<line x1="1448.49" y1="1871.78" x2="1448.49" y2="1870.17" style="stroke:#808080;stroke-width:8.64"/>
	<line x1="1456.41" y1="1860.76" x2="1465.45" y2="1860.76" style="stroke:#808080;stroke-width:8.64"/>
	<line x1="1465.45" y1="1860.76" x2="1465.45" y2="1850.00" style="stroke:#808080;stroke-width:8.64"/>
	<line x1="1465.45" y1="1850.00" x2="1482.28" y2="1850.00" style="stroke:#808080;stroke-width:8.64"/>
	<line x1="1482.28" y1="1850.00" x2="1482.28" y2="1846.41" style="stroke:#808080;stroke-width:8.64"/>
	<line x1="1492.30" y1="1839.11" x2="1499.23" y2="1839.11" style="stroke:#808080;stroke-width:8.64"/>
	<line x1="1499.23" y1="1839.11" x2="1499.23" y2="1828.34" style="stroke:#808080;stroke-width:8.64"/>
	<line x1="1499.23" y1="1828.34" x2="1516.06" y2="1828.34" style="stroke:#808080;stroke-width:8.64"/>
	<line x1="1516.06" y1="1828.34" x2="1516.06" y2="1822.65" style="stroke:#808080;stroke-width:8.64"/>
	<line x1="1528.31" y1="1817.57" x2="1533.02" y2="1817.57" style="stroke:#808080;stroke-width:8.64"/>
	<line x1="1533.02" y1="1817.57" x2="1533.02" y2="1806.81" style="stroke:#808080;stroke-width:8.64"/>
	<line x1="1533.02" y1="1806.81" x2="1549.85" y2="1806.81" style="stroke:#808080;stroke-width:8.64"/>
	<line x1="1549.85" y1="1806.81" x2="1549.85" y2="1798.76" style="stroke:#808080;stroke-width:8.64"/>
	<line x1="1564.45" y1="1796.16" x2="1566.67" y2="1796.16" style="stroke:#808080;stroke-width:8.64"/>
	<line x1="1566.67" y1="1796.16" x2="1566.67" y2="1785.52" style="stroke:#808080;stroke-width:8.64"/>
	<line x1="1566.67" y1="1785.52" x2="1583.63" y2="1785.52" style="stroke:#808080;stroke-width:8.64"/>
	<line x1="1583.63" y1="1785.52" x2="1583.63" y2="1775.00" style="stroke:#808080;stroke-width:8.64"/>
	<line x1="1600.46" y1="1774.63" x2="1600.46" y2="1764.36" style="stroke:#808080;stroke-width:8.64"/>
	<line x1="1600.46" y1="1764.36" x2="1617.41" y2="1764.36" style="stroke:#808080;stroke-width:8.64"/>
	<line x1="1617.41" y1="1764.36" x2="1617.41" y2="1753.84" style="stroke:#808080;stroke-width:8.64"/>
	<line x1="1617.41" y1="1753.84" x2="1620.01" y2="1753.84" style="stroke:#808080;stroke-width:8.64"/>
	<line x1="1634.24" y1="1750.87" x2="1634.24" y2="1743.32" style="stroke:#808080;stroke-width:8.64"/>
	<line x1="1634.24" y1="1743.32" x2="1651.20" y2="1743.32" style="stroke:#808080;stroke-width:8.64"/>
	<line x1="1651.20" y1="1743.32" x2="1651.20" y2="1732.93" style="stroke:#808080;stroke-width:8.64"/>
	<line x1="1651.20" y1="1732.93" x2="1656.64" y2="1732.93" style="stroke:#808080;stroke-width:8.64"/>
	<line x1="1668.03" y1="1726.99" x2="1668.03" y2="1722.41" style="stroke:#808080;stroke-width:8.64"/>
	<line x1="1668.03" y1="1722.41" x2="1684.86" y2="1722.41" style="stroke:#808080;stroke-width:8.64"/>
	<line x1="1684.86" y1="1722.41" x2="1684.86" y2="1712.13" style="stroke:#808080;stroke-width:8.64"/>
	<line x1="1684.86" y1="1712.13" x2="1693.52" y2="1712.13" style="stroke:#808080;stroke-width:8.64"/>
	<line x1="1701.81" y1="1703.22" x2="1701.81" y2="1701.74" style="stroke:#808080;stroke-width:8.64"/>
	<line x1="1701.81" y1="1701.74" x2="1718.64" y2="1701.74" style="stroke:#808080;stroke-width:8.64"/>
	<line x1="1718.64" y1="1701.74" x2="1718.64" y2="1691.47" style="stroke:#808080;stroke-width:8.64"/>
	<line x1="1718.64" y1="1691.47" x2="1730.40" y2="1691.47" style="stroke:#808080;stroke-width:8.64"/>
	<line x1="1737.33" y1="1681.20" x2="1752.42" y2="1681.20" style="stroke:#808080;stroke-width:8.64"/>
	<line x1="1752.42" y1="1681.20" x2="1752.42" y2="1670.92" style="stroke:#808080;stroke-width:8.64"/>
	<line x1="1752.42" y1="1670.92" x2="1767.40" y2="1670.92" style="stroke:#808080;stroke-width:8.64"/>
	<line x1="1774.33" y1="1660.65" x2="1786.21" y2="1660.65" style="stroke:#808080;stroke-width:8.64"/>
	<line x1="1786.21" y1="1660.65" x2="1786.21" y2="1650.51" style="stroke:#808080;stroke-width:8.64"/>
	<line x1="1786.21" y1="1650.51" x2="1803.04" y2="1650.51" style="stroke:#808080;stroke-width:8.64"/>
	<line x1="1803.04" y1="1650.51" x2="1803.04" y2="1648.90" style="stroke:#808080;stroke-width:8.64"/>
	<line x1="1811.70" y1="1640.36" x2="1819.99" y2="1640.36" style="stroke:#808080;stroke-width:8.64"/>
	<line x1="1819.99" y1="1640.36" x2="1819.99" y2="1630.21" style="stroke:#808080;stroke-width:8.64"/>
	<line x1="1819.99" y1="1630.21" x2="1836.82" y2="1630.21" style="stroke:#808080;stroke-width:8.64"/>
	<line x1="1836.82" y1="1630.21" x2="1836.82" y2="1625.14" style="stroke:#808080;stroke-width:8.64"/>
	<line x1="1849.07" y1="1620.19" x2="1853.78" y2="1620.19" style="stroke:#808080;stroke-width:8.64"/>
	<line x1="1853.78" y1="1620.19" x2="1853.78" y2="1610.16" style="stroke:#808080;stroke-width:8.64"/>
	<line x1="1853.78" y1="1610.16" x2="1870.61" y2="1610.16" style="stroke:#808080;stroke-width:8.64"/>
	<line x1="1870.61" y1="1610.16" x2="1870.61" y2="1601.38" style="stroke:#808080;stroke-width:8.64"/>
	<line x1="1886.57" y1="1600.14" x2="1887.43" y2="1600.14" style="stroke:#808080;stroke-width:8.64"/>
	<line x1="1887.43" y1="1600.14" x2="1887.43" y2="1590.11" style="stroke:#808080;stroke-width:8.64"/>
	<line x1="1887.43" y1="1590.11" x2="1904.39" y2="1590.11" style="stroke:#808080;stroke-width:8.64"/>
	<line x1="1904.39" y1="1590.11" x2="1904.39" y2="1580.21" style="stroke:#808080;stroke-width:8.64"/>
	<line x1="1904.39" y1="1580.21" x2="1906.99" y2="1580.21" style="stroke:#808080;stroke-width:8.64"/>
	<line x1="1921.22" y1="1577.12" x2="1921.22" y2="1570.19" style="stroke:#808080;stroke-width:8.64"/>
	<line x1="1921.22" y1="1570.19" x2="1938.17" y2="1570.19" style="stroke:#808080;stroke-width:8.64"/>
	<line x1="1938.17" y1="1570.19" x2="1938.17" y2="1560.29" style="stroke:#808080;stroke-width:8.64"/>
	<line x1="1938.17" y1="1560.29" x2="1944.61" y2="1560.29" style="stroke:#808080;stroke-width:8.64"/>
	<line x1="1955.00" y1="1553.36" x2="1955.00" y2="1550.39" style="stroke:#808080;stroke-width:8.64"/>
	<line x1="1955.00" y1="1550.39" x2="1971.96" y2="1550.39" style="stroke:#808080;stroke-width:8.64"/>
	<line x1="1971.96" y1="1550.39" x2="1971.96" y2="1540.61" style="stroke:#808080;stroke-width:8.64"/>
	<line x1="1971.96" y1="1540.61" x2="1982.60" y2="1540.61" style="stroke:#808080;stroke-width:8.64"/>
	<line x1="1989.90" y1="1530.71" x2="2005.62" y2="1530.71" style="stroke:#808080;stroke-width:8.64"/>
	<line x1="2005.62" y1="1530.71" x2="2005.62" y2="1520.94" style="stroke:#808080;stroke-width:8.64"/>
	<line x1="2005.62" y1="1520.94" x2="2020.47" y2="1520.94" style="stroke:#808080;stroke-width:8.64"/>
	<line x1="2027.89" y1="1511.16" x2="2039.40" y2="1511.16" style="stroke:#808080;stroke-width:8.64"/>
	<line x1="2039.40" y1="1511.16" x2="2039.40" y2="1501.51" style="stroke:#808080;stroke-width:8.64"/>
	<line x1="2039.40" y1="1501.51" x2="2056.35" y2="1501.51" style="stroke:#808080;stroke-width:8.64"/>
	<line x1="2056.35" y1="1501.51" x2="2056.35" y2="1499.28" style="stroke:#808080;stroke-width:8.64"/>
	<line x1="2066.01" y1="1491.73" x2="2073.18" y2="1491.73" style="stroke:#808080;stroke-width:8.64"/>
	<line x1="2073.18" y1="1491.73" x2="2073.18" y2="1482.08" style="stroke:#808080;stroke-width:8.64"/>
	<line x1="2073.18" y1="1482.08" x2="2090.14" y2="1482.08" style="stroke:#808080;stroke-width:8.64"/>
	<line x1="2090.14" y1="1482.08" x2="2090.14" y2="1475.52" style="stroke:#808080;stroke-width:8.64"/>
	<line x1="2104.37" y1="1472.42" x2="2106.97" y2="1472.42" style="stroke:#808080;stroke-width:8.64"/>
	<line x1="2106.97" y1="1472.42" x2="2106.97" y2="1462.77" style="stroke:#808080;stroke-width:8.64"/>
	<line x1="2106.97" y1="1462.77" x2="2123.80" y2="1462.77" style="stroke:#808080;stroke-width:8.64"/>
	<line x1="2123.80" y1="1462.77" x2="2123.80" y2="1453.12" style="stroke:#808080;stroke-width:8.64"/>
	<line x1="2123.80" y1="1453.12" x2="2125.41" y2="1453.12" style="stroke:#808080;stroke-width:8.64"/>
	<line x1="2140.75" y1="1451.26" x2="2140.75" y2="1443.47" style="stroke:#808080;stroke-width:8.64"/>
	<line x1="2140.75" y1="1443.47" x2="2157.58" y2="1443.47" style="stroke:#808080;stroke-width:8.64"/>
	<line x1="2157.58" y1="1443.47" x2="2157.58" y2="1433.94" style="stroke:#808080;stroke-width:8.64"/>
	<line x1="2157.58" y1="1433.94" x2="2163.77" y2="1433.94" style="stroke:#808080;stroke-width:8.64"/>
	<line x1="2174.53" y1="1427.50" x2="2174.53" y2="1424.41" style="stroke:#808080;stroke-width:8.64"/>
	<line x1="2174.53" y1="1424.41" x2="2191.36" y2="1424.41" style="stroke:#808080;stroke-width:8.64"/>
	<line x1="2191.36" y1="1424.41" x2="2191.36" y2="1414.88" style="stroke:#808080;stroke-width:8.64"/>
	<line x1="2191.36" y1="1414.88" x2="2202.26" y2="1414.88" style="stroke:#808080;stroke-width:8.64"/>
	<line x1="2209.93" y1="1405.35" x2="2225.15" y2="1405.35" style="stroke:#808080;stroke-width:8.64"/>
	<line x1="2225.15" y1="1405.35" x2="2225.15" y2="1395.94" style="stroke:#808080;stroke-width:8.64"/>
	<line x1="2225.15" y1="1395.94" x2="2240.86" y2="1395.94" style="stroke:#808080;stroke-width:8.64"/>
	<line x1="2248.66" y1="1386.41" x2="2258.93" y2="1386.41" style="stroke:#808080;stroke-width:8.64"/>
	<line x1="2258.93" y1="1386.41" x2="2258.93" y2="1377.01" style="stroke:#808080;stroke-width:8.64"/>
	<line x1="2258.93" y1="1377.01" x2="2275.76" y2="1377.01" style="stroke:#808080;stroke-width:8.64"/>
	<line x1="2275.76" y1="1377.01" x2="2275.76" y2="1373.30" style="stroke:#808080;stroke-width:8.64"/>
	<line x1="2287.39" y1="1367.60" x2="2292.72" y2="1367.60" style="stroke:#808080;stroke-width:8.64"/>
	<line x1="2292.72" y1="1367.60" x2="2292.72" y2="1358.20" style="stroke:#808080;stroke-width:8.64"/>
	<line x1="2292.72" y1="1358.20" x2="2309.55" y2="1358.20" style="stroke:#808080;stroke-width:8.64"/>
	<line x1="2309.55" y1="1358.20" x2="2309.55" y2="1349.41" style="stroke:#808080;stroke-width:8.64"/>
	<line x1="2326.25" y1="1348.92" x2="2326.50" y2="1348.92" style="stroke:#808080;stroke-width:8.64"/>
	<line x1="2326.50" y1="1348.92" x2="2326.50" y2="1339.51" style="stroke:#808080;stroke-width:8.64"/>
	<line x1="2326.50" y1="1339.51" x2="2343.33" y2="1339.51" style="stroke:#808080;stroke-width:8.64"/>
	<line x1="2343.33" y1="1339.51" x2="2343.33" y2="1330.23" style="stroke:#808080;stroke-width:8.64"/>
	<line x1="2343.33" y1="1330.23" x2="2347.91" y2="1330.23" style="stroke:#808080;stroke-width:8.64"/>
	<line x1="2360.16" y1="1325.28" x2="2360.16" y2="1320.95" style="stroke:#808080;stroke-width:8.64"/>
	<line x1="2360.16" y1="1320.95" x2="2377.11" y2="1320.95" style="stroke:#808080;stroke-width:8.64"/>
	<line x1="2377.11" y1="1320.95" x2="2377.11" y2="1311.67" style="stroke:#808080;stroke-width:8.64"/>
	<line x1="2377.11" y1="1311.67" x2="2386.89" y2="1311.67" style="stroke:#808080;stroke-width:8.64"/>
	<line x1="2394.93" y1="1302.39" x2="2410.90" y2="1302.39" style="stroke:#808080;stroke-width:8.64"/>
	<line x1="2410.90" y1="1302.39" x2="2410.90" y2="1293.10" style="stroke:#808080;stroke-width:8.64"/>
	<line x1="2410.90" y1="1293.10" x2="2425.87" y2="1293.10" style="stroke:#808080;stroke-width:8.64"/>
	<line x1="2434.04" y1="1283.95" x2="2444.56" y2="1283.95" style="stroke:#808080;stroke-width:8.64"/>
	<line x1="2444.56" y1="1283.95" x2="2444.56" y2="1274.79" style="stroke:#808080;stroke-width:8.64"/>
	<line x1="2444.56" y1="1274.79" x2="2461.51" y2="1274.79" style="stroke:#808080;stroke-width:8.64"/>
	<line x1="2461.51" y1="1274.79" x2="2461.51" y2="1271.20" style="stroke:#808080;stroke-width:8.64"/>
	<line x1="2473.14" y1="1265.51" x2="2478.34" y2="1265.51" style="stroke:#808080;stroke-width:8.64"/>
	<line x1="2478.34" y1="1265.51" x2="2478.34" y2="1256.35" style="stroke:#808080;stroke-width:8.64"/>
	<line x1="2478.34" y1="1256.35" x2="2495.30" y2="1256.35" style="stroke:#808080;stroke-width:8.64"/>
	<line x1="2495.30" y1="1256.35" x2="2495.30" y2="1247.32" style="stroke:#808080;stroke-width:8.64"/>
	<line x1="2512.13" y1="1246.94" x2="2512.13" y2="1238.16" style="stroke:#808080;stroke-width:8.64"/>
	<line x1="2512.13" y1="1238.16" x2="2529.08" y2="1238.16" style="stroke:#808080;stroke-width:8.64"/>
	<line x1="2529.08" y1="1238.16" x2="2529.08" y2="1229.00" style="stroke:#808080;stroke-width:8.64"/>
	<line x1="2529.08" y1="1229.00" x2="2534.52" y2="1229.00" style="stroke:#808080;stroke-width:8.64"/>
	<line x1="2545.91" y1="1223.18" x2="2545.91" y2="1219.97" style="stroke:#808080;stroke-width:8.64"/>
	<line x1="2545.91" y1="1219.97" x2="2562.74" y2="1219.97" style="stroke:#808080;stroke-width:8.64"/>
	<line x1="2562.74" y1="1219.97" x2="2562.74" y2="1210.93" style="stroke:#808080;stroke-width:8.64"/>
	<line x1="2562.74" y1="1210.93" x2="2574.00" y2="1210.93" style="stroke:#808080;stroke-width:8.64"/>
	<line x1="2582.17" y1="1201.90" x2="2596.52" y2="1201.90" style="stroke:#808080;stroke-width:8.64"/>
	<line x1="2596.52" y1="1201.90" x2="2596.52" y2="1192.86" style="stroke:#808080;stroke-width:8.64"/>
	<line x1="2596.52" y1="1192.86" x2="2613.48" y2="1192.86" style="stroke:#808080;stroke-width:8.64"/>
	<line x1="2613.48" y1="1192.86" x2="2613.48" y2="1192.86" style="stroke:#808080;stroke-width:8.64"/>
	<line x1="2621.77" y1="1183.83" x2="2630.31" y2="1183.83" style="stroke:#808080;stroke-width:8.64"/>
	<line x1="2630.31" y1="1183.83" x2="2630.31" y2="1174.80" style="stroke:#808080;stroke-width:8.64"/>
	<line x1="2630.31" y1="1174.80" x2="2647.26" y2="1174.80" style="stroke:#808080;stroke-width:8.64"/>
	<line x1="2647.26" y1="1174.80" x2="2647.26" y2="1169.10" style="stroke:#808080;stroke-width:8.64"/>
	<line x1="2661.24" y1="1165.76" x2="2664.09" y2="1165.76" style="stroke:#808080;stroke-width:8.64"/>
	<line x1="2664.09" y1="1165.76" x2="2664.09" y2="1156.85" style="stroke:#808080;stroke-width:8.64"/>
	<line x1="2664.09" y1="1156.85" x2="2680.92" y2="1156.85" style="stroke:#808080;stroke-width:8.64"/>
	<line x1="2680.92" y1="1156.85" x2="2680.92" y2="1147.94" style="stroke:#808080;stroke-width:8.64"/>
	<line x1="2680.92" y1="1147.94" x2="2683.77" y2="1147.94" style="stroke:#808080;stroke-width:8.64"/>
	<line x1="2697.87" y1="1144.85" x2="2697.87" y2="1138.91" style="stroke:#808080;stroke-width:8.64"/>
	<line x1="2697.87" y1="1138.91" x2="2714.70" y2="1138.91" style="stroke:#808080;stroke-width:8.64"/>
	<line x1="2714.70" y1="1138.91" x2="2714.70" y2="1130.00" style="stroke:#808080;stroke-width:8.64"/>
	<line x1="2714.70" y1="1130.00" x2="2723.37" y2="1130.00" style="stroke:#808080;stroke-width:8.64"/>
	<line x1="2731.78" y1="1121.09" x2="2748.49" y2="1121.09" style="stroke:#808080;stroke-width:8.64"/>
	<line x1="2748.49" y1="1121.09" x2="2748.49" y2="1112.30" style="stroke:#808080;stroke-width:8.64"/>
	<line x1="2748.49" y1="1112.30" x2="2763.34" y2="1112.30" style="stroke:#808080;stroke-width:8.64"/>
	<line x1="2771.63" y1="1103.39" x2="2782.27" y2="1103.39" style="stroke:#808080;stroke-width:8.64"/>
	<line x1="2782.27" y1="1103.39" x2="2782.27" y2="1094.48" style="stroke:#808080;stroke-width:8.64"/>
	<line x1="2782.27" y1="1094.48" x2="2799.10" y2="1094.48" style="stroke:#808080;stroke-width:8.64"/>
	<line x1="2799.10" y1="1094.48" x2="2799.10" y2="1090.52" style="stroke:#808080;stroke-width:8.64"/>
	<line x1="2811.48" y1="1085.69" x2="2816.05" y2="1085.69" style="stroke:#808080;stroke-width:8.64"/>
	<line x1="2816.05" y1="1085.69" x2="2816.05" y2="1076.78" style="stroke:#808080;stroke-width:8.64"/>
	<line x1="2816.05" y1="1076.78" x2="2832.89" y2="1076.78" style="stroke:#808080;stroke-width:8.64"/>
	<line x1="2832.89" y1="1076.78" x2="2832.89" y2="1068.00" style="stroke:#808080;stroke-width:8.64"/>
	<line x1="2832.89" y1="1068.00" x2="2834.12" y2="1068.00" style="stroke:#808080;stroke-width:8.64"/>
	<line x1="2849.84" y1="1066.51" x2="2849.84" y2="1059.21" style="stroke:#808080;stroke-width:8.64"/>
	<line x1="2849.84" y1="1059.21" x2="2866.67" y2="1059.21" style="stroke:#808080;stroke-width:8.64"/>
	<line x1="2866.67" y1="1059.21" x2="2866.67" y2="1050.42" style="stroke:#808080;stroke-width:8.64"/>
	<line x1="2866.67" y1="1050.42" x2="2874.09" y2="1050.42" style="stroke:#808080;stroke-width:8.64"/>
	<line x1="2883.62" y1="1042.63" x2="2883.62" y2="1041.64" style="stroke:#808080;stroke-width:8.64"/>
	<line x1="2883.62" y1="1041.64" x2="2900.45" y2="1041.64" style="stroke:#808080;stroke-width:8.64"/>
	<line x1="2900.45" y1="1041.64" x2="2900.45" y2="1032.85" style="stroke:#808080;stroke-width:8.64"/>
	<line x1="2900.45" y1="1032.85" x2="2914.19" y2="1032.85" style="stroke:#808080;stroke-width:8.64"/>
	<line x1="2922.48" y1="1024.06" x2="2934.24" y2="1024.06" style="stroke:#808080;stroke-width:8.64"/>
	<line x1="2934.24" y1="1024.06" x2="2934.24" y2="1015.40" style="stroke:#808080;stroke-width:8.64"/>
	<line x1="2934.24" y1="1015.40" x2="2951.07" y2="1015.40" style="stroke:#808080;stroke-width:8.64"/>
	<line x1="2951.07" y1="1015.40" x2="2951.07" y2="1012.18" style="stroke:#808080;stroke-width:8.64"/>
	<line x1="2962.70" y1="1006.61" x2="2968.02" y2="1006.61" style="stroke:#808080;stroke-width:8.64"/>
	<line x1="2968.02" y1="1006.61" x2="2968.02" y2="997.95" style="stroke:#808080;stroke-width:8.64"/>
	<line x1="2968.02" y1="997.95" x2="2984.85" y2="997.95" style="stroke:#808080;stroke-width:8.64"/>
	<line x1="2984.85" y1="997.95" x2="2984.85" y2="989.16" style="stroke:#808080;stroke-width:8.64"/>
	<line x1="2984.85" y1="989.16" x2="2985.59" y2="989.16" style="stroke:#808080;stroke-width:8.64"/>
	<line x1="3001.80" y1="988.17" x2="3001.80" y2="980.50" style="stroke:#808080;stroke-width:8.64"/>
	<line x1="3001.80" y1="980.50" x2="3018.63" y2="980.50" style="stroke:#808080;stroke-width:8.64"/>
	<line x1="3018.63" y1="980.50" x2="3018.63" y2="971.84" style="stroke:#808080;stroke-width:8.64"/>
	<line x1="3018.63" y1="971.84" x2="3025.81" y2="971.84" style="stroke:#808080;stroke-width:8.64"/>
	<line x1="3035.46" y1="964.29" x2="3035.46" y2="963.18" style="stroke:#808080;stroke-width:8.64"/>
	<line x1="3035.46" y1="963.18" x2="3052.42" y2="963.18" style="stroke:#808080;stroke-width:8.64"/>
	<line x1="3052.42" y1="963.18" x2="3052.42" y2="954.51" style="stroke:#808080;stroke-width:8.64"/>
	<line x1="3052.42" y1="954.51" x2="3066.03" y2="954.51" style="stroke:#808080;stroke-width:8.64"/>
	<line x1="3074.69" y1="945.85" x2="3086.20" y2="945.85" style="stroke:#808080;stroke-width:8.64"/>
	<line x1="3086.20" y1="945.85" x2="3086.20" y2="937.19" style="stroke:#808080;stroke-width:8.64"/>
	<line x1="3086.20" y1="937.19" x2="3103.03" y2="937.19" style="stroke:#808080;stroke-width:8.64"/>
	<line x1="3103.03" y1="937.19" x2="3103.03" y2="933.97" style="stroke:#808080;stroke-width:8.64"/>
	<line x1="3115.03" y1="928.65" x2="3119.86" y2="928.65" style="stroke:#808080;stroke-width:8.64"/>
	<line x1="3119.86" y1="928.65" x2="3119.86" y2="919.99" style="stroke:#808080;stroke-width:8.64"/>
	<line x1="3119.86" y1="919.99" x2="3136.82" y2="919.99" style="stroke:#808080;stroke-width:8.64"/>
	<line x1="3136.82" y1="919.99" x2="3136.82" y2="911.45" style="stroke:#808080;stroke-width:8.64"/>
	<line x1="3136.82" y1="911.45" x2="3138.18" y2="911.45" style="stroke:#808080;stroke-width:8.64"/>
	<line x1="3153.64" y1="909.71" x2="3153.64" y2="902.78" style="stroke:#808080;stroke-width:8.64"/>
	<line x1="3153.64" y1="902.78" x2="3170.60" y2="902.78" style="stroke:#808080;stroke-width:8.64"/>
	<line x1="3170.60" y1="902.78" x2="3170.60" y2="894.25" style="stroke:#808080;stroke-width:8.64"/>
	<line x1="3170.60" y1="894.25" x2="3178.52" y2="894.25" style="stroke:#808080;stroke-width:8.64"/>
	<line x1="3187.43" y1="885.95" x2="3187.43" y2="885.71" style="stroke:#808080;stroke-width:8.64"/>
	<line x1="3187.43" y1="885.71" x2="3204.38" y2="885.71" style="stroke:#808080;stroke-width:8.64"/>
	<line x1="3204.38" y1="885.71" x2="3204.38" y2="877.17" style="stroke:#808080;stroke-width:8.64"/>
	<line x1="3204.38" y1="877.17" x2="3218.99" y2="877.17" style="stroke:#808080;stroke-width:8.64"/>
	<line x1="3227.65" y1="868.63" x2="3238.04" y2="868.63" style="stroke:#808080;stroke-width:8.64"/>
	<line x1="3238.04" y1="868.63" x2="3238.04" y2="860.09" style="stroke:#808080;stroke-width:8.64"/>
	<line x1="3238.04" y1="860.09" x2="3255.00" y2="860.09" style="stroke:#808080;stroke-width:8.64"/>
	<line x1="3255.00" y1="860.09" x2="3255.00" y2="855.63" style="stroke:#808080;stroke-width:8.64"/>
	<line x1="3268.24" y1="851.55" x2="3271.83" y2="851.55" style="stroke:#808080;stroke-width:8.64"/>
	<line x1="3271.83" y1="851.55" x2="3271.83" y2="843.01" style="stroke:#808080;stroke-width:8.64"/>
	<line x1="3271.83" y1="843.01" x2="3288.78" y2="843.01" style="stroke:#808080;stroke-width:8.64"/>
	<line x1="3288.78" y1="843.01" x2="3288.78" y2="834.60" style="stroke:#808080;stroke-width:8.64"/>
	<line x1="3288.78" y1="834.60" x2="3291.50" y2="834.60" style="stroke:#808080;stroke-width:8.64"/>
	<line x1="3305.61" y1="831.38" x2="3305.61" y2="826.06" style="stroke:#808080;stroke-width:8.64"/>
	<line x1="3305.61" y1="826.06" x2="3322.56" y2="826.06" style="stroke:#808080;stroke-width:8.64"/>
	<line x1="3322.56" y1="826.06" x2="3322.56" y2="817.64" style="stroke:#808080;stroke-width:8.64"/>
	<line x1="3322.56" y1="817.64" x2="3332.22" y2="817.64" style="stroke:#808080;stroke-width:8.64"/>
	<line x1="3340.88" y1="809.10" x2="3356.22" y2="809.10" style="stroke:#808080;stroke-width:8.64"/>
	<line x1="3356.22" y1="809.10" x2="3356.22" y2="800.69" style="stroke:#808080;stroke-width:8.64"/>
	<line x1="3356.22" y1="800.69" x2="3372.81" y2="800.69" style="stroke:#808080;stroke-width:8.64"/>
	<line x1="3381.72" y1="792.27" x2="3390.01" y2="792.27" style="stroke:#808080;stroke-width:8.64"/>
	<line x1="3390.01" y1="792.27" x2="3390.01" y2="783.86" style="stroke:#808080;stroke-width:8.64"/>
	<line x1="3390.01" y1="783.86" x2="3406.96" y2="783.86" style="stroke:#808080;stroke-width:8.64"/>
	<line x1="3406.96" y1="783.86" x2="3406.96" y2="777.17" style="stroke:#808080;stroke-width:8.64"/>
	<line x1="3422.43" y1="775.44" x2="3423.79" y2="775.44" style="stroke:#808080;stroke-width:8.64"/>
	<line x1="3423.79" y1="775.44" x2="3423.79" y2="767.03" style="stroke:#808080;stroke-width:8.64"/>
	<line x1="3423.79" y1="767.03" x2="3440.74" y2="767.03" style="stroke:#808080;stroke-width:8.64"/>
	<line x1="3440.74" y1="767.03" x2="3440.74" y2="758.61" style="stroke:#808080;stroke-width:8.64"/>
	<line x1="3440.74" y1="758.61" x2="3445.82" y2="758.61" style="stroke:#808080;stroke-width:8.64"/>
	<line x1="3457.57" y1="753.04" x2="3457.57" y2="750.20" style="stroke:#808080;stroke-width:8.64"/>
	<line x1="3457.57" y1="750.20" x2="3474.41" y2="750.20" style="stroke:#808080;stroke-width:8.64"/>
	<line x1="3474.41" y1="750.20" x2="3474.41" y2="741.78" style="stroke:#808080;stroke-width:8.64"/>
	<line x1="3474.41" y1="741.78" x2="3486.66" y2="741.78" style="stroke:#808080;stroke-width:8.64"/>
	<line x1="3495.44" y1="733.37" x2="3508.19" y2="733.37" style="stroke:#808080;stroke-width:8.64"/>
	<line x1="3508.19" y1="733.37" x2="3508.19" y2="725.07" style="stroke:#808080;stroke-width:8.64"/>
	<line x1="3508.19" y1="725.07" x2="3525.14" y2="725.07" style="stroke:#808080;stroke-width:8.64"/>
	<line x1="3525.14" y1="725.07" x2="3525.14" y2="722.72" style="stroke:#808080;stroke-width:8.64"/>
	<line x1="3536.28" y1="716.66" x2="3541.97" y2="716.66" style="stroke:#808080;stroke-width:8.64"/>
	<line x1="3541.97" y1="716.66" x2="3541.97" y2="708.37" style="stroke:#808080;stroke-width:8.64"/>
	<line x1="3541.97" y1="708.37" x2="3558.93" y2="708.37" style="stroke:#808080;stroke-width:8.64"/>
	<line x1="3558.93" y1="708.37" x2="3558.93" y2="700.08" style="stroke:#808080;stroke-width:8.64"/>
	<line x1="3558.93" y1="700.08" x2="3560.04" y2="700.08" style="stroke:#808080;stroke-width:8.64"/>
	<line x1="3575.76" y1="698.47" x2="3575.76" y2="691.78" style="stroke:#808080;stroke-width:8.64"/>
	<line x1="3575.76" y1="691.78" x2="3592.59" y2="691.78" style="stroke:#808080;stroke-width:8.64"/>
	<line x1="3592.59" y1="691.78" x2="3592.59" y2="683.37" style="stroke:#808080;stroke-width:8.64"/>
	<line x1="3592.59" y1="683.37" x2="3600.88" y2="683.37" style="stroke:#808080;stroke-width:8.64"/>
	<line x1="3609.91" y1="675.08" x2="3626.37" y2="675.08" style="stroke:#808080;stroke-width:8.64"/>
	<line x1="3626.37" y1="675.08" x2="3626.37" y2="666.79" style="stroke:#808080;stroke-width:8.64"/>
	<line x1="3626.37" y1="666.79" x2="3641.96" y2="666.79" style="stroke:#808080;stroke-width:8.64"/>
	<line x1="3650.87" y1="658.49" x2="3660.15" y2="658.49" style="stroke:#808080;stroke-width:8.64"/>
	<line x1="3660.15" y1="658.49" x2="3660.15" y2="650.33" style="stroke:#808080;stroke-width:8.64"/>
	<line x1="3660.15" y1="650.33" x2="3677.11" y2="650.33" style="stroke:#808080;stroke-width:8.64"/>
	<line x1="3677.11" y1="650.33" x2="3677.11" y2="644.39" style="stroke:#808080;stroke-width:8.64"/>
	<line x1="3691.96" y1="642.04" x2="3693.94" y2="642.04" style="stroke:#808080;stroke-width:8.64"/>
	<line x1="3693.94" y1="642.04" x2="3693.94" y2="633.74" style="stroke:#808080;stroke-width:8.64"/>
	<line x1="3693.94" y1="633.74" x2="3710.77" y2="633.74" style="stroke:#808080;stroke-width:8.64"/>
	<line x1="3710.77" y1="633.74" x2="3710.77" y2="625.45" style="stroke:#808080;stroke-width:8.64"/>
	<line x1="3710.77" y1="625.45" x2="3715.72" y2="625.45" style="stroke:#808080;stroke-width:8.64"/>
	<line x1="3727.72" y1="620.13" x2="3727.72" y2="617.28" style="stroke:#808080;stroke-width:8.64"/>
	<line x1="3727.72" y1="617.28" x2="3744.55" y2="617.28" style="stroke:#808080;stroke-width:8.64"/>
	<line x1="3744.55" y1="617.28" x2="3744.55" y2="608.99" style="stroke:#808080;stroke-width:8.64"/>
	<line x1="3744.55" y1="608.99" x2="3756.93" y2="608.99" style="stroke:#808080;stroke-width:8.64"/>
	<line x1="3765.96" y1="600.83" x2="3778.34" y2="600.83" style="stroke:#808080;stroke-width:8.64"/>
	<line x1="3778.34" y1="600.83" x2="3778.34" y2="592.53" style="stroke:#808080;stroke-width:8.64"/>
	<line x1="3778.34" y1="592.53" x2="3795.16" y2="592.53" style="stroke:#808080;stroke-width:8.64"/>
	<line x1="3795.16" y1="592.53" x2="3795.16" y2="589.69" style="stroke:#808080;stroke-width:8.64"/>
	<path d="" stroke-linejoin="round" style="fill:none;stroke:#808080;stroke-width:8.64"/>
	<path d=" M773.19 2329.17 L790.14 2329.17 L790.14 2316.80 L806.97 2316.80 L806.97 2304.42 L823.93 2304.42 L823.93 2292.05 L840.76 2292.05 L840.76 2279.79 L857.71 2279.79 L857.71 2267.54 L874.54 2267.54 L874.54 2255.29 L891.37 2255.29 L891.37 2243.16 L908.33 2243.16 L908.33 2231.03 L925.15 2231.03 L925.15 2218.91 L942.11 2218.91 L942.11 2206.90 L958.94 2206.90 L958.94 2194.90 L975.89 2194.90 L975.89 2182.89 L992.72 2182.89 L992.72 2171.01 L1009.55 2171.01 L1009.55 2159.13 L1026.51 2159.13 L1026.51 2147.25 L1043.34 2147.25 L1043.34 2135.50 L1060.29 2135.50 L1060.29 2123.74 L1077.12 2123.74 L1077.12 2112.11 L1093.95 2112.11 L1093.95 2100.47 L1110.90 2100.47 L1110.90 2088.84 L1127.73 2088.84 L1127.73 2077.21 L1144.69 2077.21 L1144.69 2065.70 L1161.52 2065.70 L1161.52 2054.31 L1178.47 2054.31 L1178.47 2042.93 L1195.30 2042.93 L1195.30 2031.54 L1212.13 2031.54 L1212.13 2020.16 L1229.09 2020.16 L1229.09 2008.90 L1245.91 2008.90 L1245.91 1997.63 L1262.87 1997.63 L1262.87 1986.50 L1279.70 1986.50 L1279.70 1975.36 L1296.65 1975.36 L1296.65 1964.22 L1313.48 1964.22 L1313.48 1953.21 L1330.31 1953.21 L1330.31 1942.19 L1347.27 1942.19 L1347.27 1931.30 L1364.10 1931.30 L1364.10 1920.29 L1381.05 1920.29 L1381.05 1909.52 L1397.88 1909.52 L1397.88 1898.63 L1414.83 1898.63 L1414.83 1887.87 L1431.66 1887.87 L1431.66 1877.10 L1448.49 1877.10 L1448.49 1866.46 L1465.45 1866.46 L1465.45 1855.81 L1482.28 1855.81 L1482.28 1845.17 L1499.23 1845.17 L1499.23 1834.65 L1516.06 1834.65 L1516.06 1824.13 L1533.02 1824.13 L1533.02 1813.61 L1549.85 1813.61 L1549.85 1803.22 L1566.67 1803.22 L1566.67 1792.82 L1583.63 1792.82 L1583.63 1782.43 L1600.46 1782.43 L1600.46 1772.16 L1617.41 1772.16 L1617.41 1761.88 L1634.24 1761.88 L1634.24 1751.61 L1651.20 1751.61 L1651.20 1741.46 L1668.03 1741.46 L1668.03 1731.32 L1684.86 1731.32 L1684.86 1721.17 L1701.81 1721.17 L1701.81 1711.14 L1718.64 1711.14 L1718.64 1701.00 L1735.59 1701.00 L1735.59 1691.10 L1752.42 1691.10 L1752.42 1681.07 L1769.25 1681.07 L1769.25 1671.17 L1786.21 1671.17 L1786.21 1661.27 L1803.04 1661.27 L1803.04 1651.37 L1819.99 1651.37 L1819.99 1641.60 L1836.82 1641.60 L1836.82 1631.82 L1853.78 1631.82 L1853.78 1622.04 L1870.61 1622.04 L1870.61 1612.39 L1887.43 1612.39 L1887.43 1602.74 L1904.39 1602.74 L1904.39 1593.08 L1921.22 1593.08 L1921.22 1583.43 L1938.17 1583.43 L1938.17 1573.78 L1955.00 1573.78 L1955.00 1564.25 L1971.96 1564.25 L1971.96 1554.72 L1988.79 1554.72 L1988.79 1545.31 L2005.62 1545.31 L2005.62 1535.79 L2022.57 1535.79 L2022.57 1526.38 L2039.40 1526.38 L2039.40 1516.97 L2056.35 1516.97 L2056.35 1507.57 L2073.18 1507.57 L2073.18 1498.29 L2090.14 1498.29 L2090.14 1488.88 L2106.97 1488.88 L2106.97 1479.60 L2123.80 1479.60 L2123.80 1470.32 L2140.75 1470.32 L2140.75 1461.16 L2157.58 1461.16 L2157.58 1451.88 L2174.53 1451.88 L2174.53 1442.72 L2191.36 1442.72 L2191.36 1433.56 L2208.32 1433.56 L2208.32 1424.41 L2225.15 1424.41 L2225.15 1415.37 L2241.98 1415.37 L2241.98 1406.22 L2258.93 1406.22 L2258.93 1397.18 L2275.76 1397.18 L2275.76 1388.15 L2292.72 1388.15 L2292.72 1379.11 L2309.55 1379.11 L2309.55 1370.20 L2326.50 1370.20 L2326.50 1361.17 L2343.33 1361.17 L2343.33 1352.26 L2360.16 1352.26 L2360.16 1343.35 L2377.11 1343.35 L2377.11 1334.44 L2393.94 1334.44 L2393.94 1325.53 L2410.90 1325.53 L2410.90 1316.74 L2427.73 1316.74 L2427.73 1307.95 L2444.56 1307.95 L2444.56 1299.04 L2461.51 1299.04 L2461.51 1290.26 L2478.34 1290.26 L2478.34 1281.47 L2495.30 1281.47 L2495.30 1272.81 L2512.13 1272.81 L2512.13 1264.02 L2529.08 1264.02 L2529.08 1255.36 L2545.91 1255.36 L2545.91 1246.57 L2562.74 1246.57 L2562.74 1237.91 L2579.69 1237.91 L2579.69 1229.25 L2596.52 1229.25 L2596.52 1220.71 L2613.48 1220.71 L2613.48 1212.05 L2630.31 1212.05 L2630.31 1203.51 L2647.26 1203.51 L2647.26 1194.84 L2664.09 1194.84 L2664.09 1186.30 L2680.92 1186.30 L2680.92 1177.77 L2697.87 1177.77 L2697.87 1169.23 L2714.70 1169.23 L2714.70 1160.69 L2731.66 1160.69 L2731.66 1152.27 L2748.49 1152.27 L2748.49 1143.73 L2765.44 1143.73 L2765.44 1135.32 L2782.27 1135.32 L2782.27 1126.90 L2799.10 1126.90 L2799.10 1118.36 L2816.05 1118.36 L2816.05 1110.07 L2832.89 1110.07 L2832.89 1101.66 L2849.84 1101.66 L2849.84 1093.24 L2866.67 1093.24 L2866.67 1084.95 L2883.62 1084.95 L2883.62 1076.53 L2900.45 1076.53 L2900.45 1068.24 L2917.28 1068.24 L2917.28 1059.95 L2934.24 1059.95 L2934.24 1051.66 L2951.07 1051.66 L2951.07 1043.37 L2968.02 1043.37 L2968.02 1035.08 L2984.85 1035.08 L2984.85 1026.79 L3001.80 1026.79 L3001.80 1018.62 L3018.63 1018.62 L3018.63 1010.33 L3035.46 1010.33 L3035.46 1002.16 L3052.42 1002.16 L3052.42 993.99 L3069.25 993.99 L3069.25 985.82 L3086.20 985.82 L3086.20 977.66 L3103.03 977.66 L3103.03 969.49 L3119.86 969.49 L3119.86 961.32 L3136.82 961.32 L3136.82 953.15 L3153.64 953.15 L3153.64 945.11 L3170.60 945.11 L3170.60 936.94 L3187.43 936.94 L3187.43 928.90 L3204.38 928.90 L3204.38 920.73 L3221.21 920.73 L3221.21 912.68 L3238.04 912.68 L3238.04 904.64 L3255.00 904.64 L3255.00 896.60 L3271.83 896.60 L3271.83 888.55 L3288.78 888.55 L3288.78 880.63 L3305.61 880.63 L3305.61 872.59 L3322.56 872.59 L3322.56 864.54 L3339.39 864.54 L3339.39 856.62 L3356.22 856.62 L3356.22 848.58 L3373.18 848.58 L3373.18 840.66 L3390.01 840.66 L3390.01 832.74 L3406.96 832.74 L3406.96 824.82 L3423.79 824.82 L3423.79 816.90 L3440.74 816.90 L3440.74 808.98 L3457.57 808.98 L3457.57 801.06 L3474.41 801.06 L3474.41 793.14 L3491.36 793.14 L3491.36 785.22 L3508.19 785.22 L3508.19 777.30 L3525.14 777.30 L3525.14 769.50 L3541.97 769.50 L3541.97 761.58 L3558.93 761.58 L3558.93 753.78 L3575.76 753.78 L3575.76 745.99 L3592.59 745.99 L3592.59 738.07 L3609.54 738.07 L3609.54 730.27 L3626.37 730.27 L3626.37 722.48 L3643.32 722.48 L3643.32 714.68 L3660.15 714.68 L3660.15 706.88 L3677.11 706.88 L3677.11 699.09 L3693.94 699.09 L3693.94 691.29 L3710.77 691.29 L3710.77 683.62 L3727.72 683.62 L3727.72 675.82 L3744.55 675.82 L3744.55 668.02 L3761.51 668.02 L3761.51 660.35 L3778.34 660.35 L3778.34 652.68 L3795.16 652.68 L3795.16 644.88" stroke-linejoin="round" style="fill:none;stroke:#000000;stroke-width:8.64"/>
	<line x1="553.29" y1="2509.23" x2="553.29" y2="419.90" style="stroke:#000000;stroke-width:5.76"/>
	<line x1="553.29" y1="2445.87" x2="513.32" y2="2445.87" style="stroke:#000000;stroke-width:5.76"/>
	<text x="493.27" y="2480.90" style="font-family:'Helvetica';font-size:99.99px;fill:#000000" text-anchor="end">0</text>
	<line x1="553.29" y1="1791.71" x2="513.32" y2="1791.71" style="stroke:#000000;stroke-width:5.76"/>
	<text x="493.27" y="1826.74" style="font-family:'Helvetica';font-size:99.99px;fill:#000000" text-anchor="end">500</text>
	<line x1="553.29" y1="1137.42" x2="513.32" y2="1137.42" style="stroke:#000000;stroke-width:5.76"/>
	<text x="493.27" y="1172.45" style="font-family:'Helvetica';font-size:99.99px;fill:#000000" text-anchor="end">1000</text>
	<line x1="553.29" y1="483.26" x2="513.32" y2="483.26" style="stroke:#000000;stroke-width:5.76"/>
	<text x="493.27" y="518.29" style="font-family:'Helvetica';font-size:99.99px;fill:#000000" text-anchor="end">1500</text>
	<text x="190.71" y="1464.63" style="font-family:'Helvetica';font-size:99.99px;fill:#000000" transform="rotate(-90 190.71,1464.63)" text-anchor="middle">LOS (years)</text>
	<line x1="553.29" y1="2509.23" x2="3859.02" y2="2509.23" style="stroke:#000000;stroke-width:5.76"/>
	<line x1="616.65" y1="2509.23" x2="616.65" y2="2549.21" style="stroke:#000000;stroke-width:5.76"/>
	<text x="616.65" y="2625.15" style="font-family:'Helvetica';font-size:79.94px;fill:#000000" text-anchor="middle">0</text>
	<line x1="807.35" y1="2509.23" x2="807.35" y2="2549.21" style="stroke:#000000;stroke-width:5.76"/>
	<text x="807.35" y="2625.15" style="font-family:'Helvetica';font-size:79.94px;fill:#000000" text-anchor="middle">.3</text>
	<line x1="998.17" y1="2509.23" x2="998.17" y2="2549.21" style="stroke:#000000;stroke-width:5.76"/>
	<text x="998.17" y="2625.15" style="font-family:'Helvetica';font-size:79.94px;fill:#000000" text-anchor="middle">.6</text>
	<line x1="1188.87" y1="2509.23" x2="1188.87" y2="2549.21" style="stroke:#000000;stroke-width:5.76"/>
	<text x="1188.87" y="2625.15" style="font-family:'Helvetica';font-size:79.94px;fill:#000000" text-anchor="middle">.9</text>
	<line x1="1379.57" y1="2509.23" x2="1379.57" y2="2549.21" style="stroke:#000000;stroke-width:5.76"/>
	<text x="1379.57" y="2625.15" style="font-family:'Helvetica';font-size:79.94px;fill:#000000" text-anchor="middle">1.2</text>
	<line x1="1570.39" y1="2509.23" x2="1570.39" y2="2549.21" style="stroke:#000000;stroke-width:5.76"/>
	<text x="1570.39" y="2625.15" style="font-family:'Helvetica';font-size:79.94px;fill:#000000" text-anchor="middle">1.5</text>
	<line x1="1761.09" y1="2509.23" x2="1761.09" y2="2549.21" style="stroke:#000000;stroke-width:5.76"/>
	<text x="1761.09" y="2625.15" style="font-family:'Helvetica';font-size:79.94px;fill:#000000" text-anchor="middle">1.8</text>
	<line x1="1951.91" y1="2509.23" x2="1951.91" y2="2549.21" style="stroke:#000000;stroke-width:5.76"/>
	<text x="1951.91" y="2625.15" style="font-family:'Helvetica';font-size:79.94px;fill:#000000" text-anchor="middle">2.1</text>
	<line x1="2142.61" y1="2509.23" x2="2142.61" y2="2549.21" style="stroke:#000000;stroke-width:5.76"/>
	<text x="2142.61" y="2625.15" style="font-family:'Helvetica';font-size:79.94px;fill:#000000" text-anchor="middle">2.4</text>
	<line x1="2333.31" y1="2509.23" x2="2333.31" y2="2549.21" style="stroke:#000000;stroke-width:5.76"/>
	<text x="2333.31" y="2625.15" style="font-family:'Helvetica';font-size:79.94px;fill:#000000" text-anchor="middle">2.7</text>
	<line x1="2524.13" y1="2509.23" x2="2524.13" y2="2549.21" style="stroke:#000000;stroke-width:5.76"/>
	<text x="2524.13" y="2625.15" style="font-family:'Helvetica';font-size:79.94px;fill:#000000" text-anchor="middle">3</text>
	<line x1="2714.83" y1="2509.23" x2="2714.83" y2="2549.21" style="stroke:#000000;stroke-width:5.76"/>
	<text x="2714.83" y="2625.15" style="font-family:'Helvetica';font-size:79.94px;fill:#000000" text-anchor="middle">3.3</text>
	<line x1="2905.53" y1="2509.23" x2="2905.53" y2="2549.21" style="stroke:#000000;stroke-width:5.76"/>
	<text x="2905.53" y="2625.15" style="font-family:'Helvetica';font-size:79.94px;fill:#000000" text-anchor="middle">3.6</text>
	<line x1="3096.35" y1="2509.23" x2="3096.35" y2="2549.21" style="stroke:#000000;stroke-width:5.76"/>
	<text x="3096.35" y="2625.15" style="font-family:'Helvetica';font-size:79.94px;fill:#000000" text-anchor="middle">3.9</text>
	<line x1="3287.05" y1="2509.23" x2="3287.05" y2="2549.21" style="stroke:#000000;stroke-width:5.76"/>
	<text x="3287.05" y="2625.15" style="font-family:'Helvetica';font-size:79.94px;fill:#000000" text-anchor="middle">4.2</text>
	<line x1="3477.87" y1="2509.23" x2="3477.87" y2="2549.21" style="stroke:#000000;stroke-width:5.76"/>
	<text x="3477.87" y="2625.15" style="font-family:'Helvetica';font-size:79.94px;fill:#000000" text-anchor="middle">4.5</text>
	<line x1="3668.57" y1="2509.23" x2="3668.57" y2="2549.21" style="stroke:#000000;stroke-width:5.76"/>
	<text x="3668.57" y="2625.15" style="font-family:'Helvetica';font-size:79.94px;fill:#000000" text-anchor="middle">4.8</text>
	<line x1="3859.27" y1="2509.23" x2="3859.27" y2="2549.21" style="stroke:#000000;stroke-width:5.76"/>
	<text x="3859.27" y="2625.15" style="font-family:'Helvetica';font-size:79.94px;fill:#000000" text-anchor="middle">5.1</text>
	<text x="2206.22" y="2729.16" style="font-family:'Helvetica';font-size:99.99px;fill:#000000" text-anchor="middle">Time (years)</text>
	<rect x="587.81" y="454.42" width="1384.14" height="606.39" style="fill:#FFFFFF"/>
	<rect x="590.69" y="457.30" width="1378.38" height="600.63" style="fill:none;stroke:#000000;stroke-width:5.76"/>
	<rect x="631.00" y="497.74" width="374.47" height="99.99" style="fill:#999999;fill-opacity:0.35"/>
	<rect x="635.32" y="502.06" width="365.83" height="91.35" style="fill:none;stroke:#808080;stroke-opacity:0.35;stroke-width:8.64"/>
	<rect x="631.00" y="637.70" width="374.47" height="99.99" style="fill:#333333;fill-opacity:0.35"/>
	<rect x="635.32" y="642.02" width="365.83" height="91.35" style="fill:none;stroke:#000000;stroke-opacity:0.35;stroke-width:8.64"/>
	<line x1="631.00" y1="827.67" x2="671.34" y2="827.67" style="stroke:#808080;stroke-width:8.64"/>
	<line x1="688.54" y1="827.67" x2="728.89" y2="827.67" style="stroke:#808080;stroke-width:8.64"/>
	<line x1="746.09" y1="827.67" x2="786.43" y2="827.67" style="stroke:#808080;stroke-width:8.64"/>
	<line x1="803.76" y1="827.67" x2="843.98" y2="827.67" style="stroke:#808080;stroke-width:8.64"/>
	<line x1="861.30" y1="827.67" x2="901.64" y2="827.67" style="stroke:#808080;stroke-width:8.64"/>
	<line x1="918.84" y1="827.67" x2="959.19" y2="827.67" style="stroke:#808080;stroke-width:8.64"/>
	<line x1="976.39" y1="827.67" x2="1005.47" y2="827.67" style="stroke:#808080;stroke-width:8.64"/>
	<line x1="631.00" y1="967.63" x2="1005.47" y2="967.63" style="stroke:#000000;stroke-width:8.64"/>
	<text x="1065.36" y="582.76" style="font-family:'Helvetica';font-size:99.99px;fill:#000000">Ambulatory CI95%</text>
	<text x="1065.36" y="722.73" style="font-family:'Helvetica';font-size:99.99px;fill:#000000">Residential CI95%</text>
	<text x="1065.36" y="862.69" style="font-family:'Helvetica';font-size:99.99px;fill:#000000">Ambulatory</text>
	<text x="1065.36" y="1002.66" style="font-family:'Helvetica';font-size:99.99px;fill:#000000">Residential</text>
	<text x="2206.22" y="369.63" style="font-family:'Helvetica';font-size:110.01px;fill:#000000" text-anchor="middle">in Readmission (TC) (RP)</text>
	<text x="2206.22" y="215.98" style="font-family:'Helvetica';font-size:139.96px;fill:#1E2D53" text-anchor="middle">Length of Stay(3y)</text>
</svg>
