<?xml version="1.0" encoding="UTF-8" standalone="no"?>
<!-- This is a Stata 16.1 generated SVG file (http://www.stata.com) -->

<svg version="1.1" width="5.50in" height="4.00in" viewBox="0 0 3960 2880" xmlns="http://www.w3.org/2000/svg" xmlns:xlink="http://www.w3.org/1999/xlink">
	<desc>Stata Graph - gh_1_1</desc>
	<rect x="0" y="0" width="3960" height="2880" style="fill:#EAF2F3;stroke:none"/>
	<rect x="0.00" y="0.00" width="3959.88" height="2880.00" style="fill:#FFFFFF"/>
	<rect x="2.88" y="2.88" width="3954.12" height="2874.24" style="fill:none;stroke:#EAF2F3;stroke-width:5.76"/>
	<rect x="465.80" y="419.90" width="3393.22" height="1533.81" style="fill:#FFFFFF"/>
	<rect x="468.67" y="422.78" width="3387.47" height="1528.05" style="fill:none;stroke:#FFFFFF;stroke-width:5.76"/>
	<line x1="465.80" y1="1800.37" x2="3859.02" y2="1800.37" style="stroke:#EAF2F3;stroke-width:8.64"/>
	<line x1="465.80" y1="1646.92" x2="3859.02" y2="1646.92" style="stroke:#EAF2F3;stroke-width:8.64"/>
	<line x1="465.80" y1="1493.59" x2="3859.02" y2="1493.59" style="stroke:#EAF2F3;stroke-width:8.64"/>
	<line x1="465.80" y1="1340.13" x2="3859.02" y2="1340.13" style="stroke:#EAF2F3;stroke-width:8.64"/>
	<line x1="465.80" y1="1186.80" x2="3859.02" y2="1186.80" style="stroke:#EAF2F3;stroke-width:8.64"/>
	<line x1="465.80" y1="1033.47" x2="3859.02" y2="1033.47" style="stroke:#EAF2F3;stroke-width:8.64"/>
	<line x1="465.80" y1="880.01" x2="3859.02" y2="880.01" style="stroke:#EAF2F3;stroke-width:8.64"/>
	<line x1="465.80" y1="726.68" x2="3859.02" y2="726.68" style="stroke:#EAF2F3;stroke-width:8.64"/>
	<line x1="465.80" y1="573.35" x2="3859.02" y2="573.35" style="stroke:#EAF2F3;stroke-width:8.64"/>
	<line x1="465.80" y1="419.90" x2="3859.02" y2="419.90" style="stroke:#EAF2F3;stroke-width:8.64"/>
	<defs>
		<path id="path_ZekSqaWI" d="M618.38 420.02 L618.38 420.02 L634.84 420.02 L651.30 420.02 L667.75 420.02 L684.21 420.02 L700.67 420.02 L717.13 420.02 L733.59 420.02 L750.05 420.02 L766.51 420.02 L782.97 420.02 L799.42 420.02 L815.88 420.02 L832.34 420.02 L848.80 420.02 L865.26 420.02 L881.72 420.02 L898.18 420.02 L914.64 420.02 L931.10 420.02 L947.55 420.02 L964.01 420.02 L980.47 420.02 L996.93 420.02 L1013.39 420.02 L1029.72 420.02 L1046.18 420.02 L1062.64 420.02 L1079.10 420.02 L1095.56 420.02 L1112.02 420.02 L1128.48 420.02 L1144.93 420.02 L1161.39 420.02 L1177.85 420.02 L1194.31 420.02 L1210.77 420.02 L1227.23 420.02 L1243.69 420.02 L1260.15 420.02 L1276.61 420.02 L1293.06 420.02 L1309.52 420.02 L1325.98 420.02 L1342.44 420.02 L1358.90 420.02 L1375.36 420.02 L1391.82 420.02 L1408.28 420.02 L1424.73 420.02 L1441.19 420.02 L1457.65 420.02 L1474.11 420.02 L1490.57 420.02 L1507.03 420.02 L1523.36 420.02 L1539.82 420.02 L1556.28 420.02 L1572.74 420.02 L1589.20 420.02 L1605.66 420.02 L1622.12 420.02 L1638.57 420.02 L1655.03 420.02 L1671.49 420.02 L1687.95 420.02 L1704.41 420.02 L1720.87 420.02 L1737.33 420.02 L1753.79 420.02 L1770.24 420.02 L1786.70 420.02 L1803.16 420.02 L1819.62 420.02 L1836.08 420.02 L1852.54 420.02 L1869.00 420.02 L1885.45 420.02 L1901.91 420.02 L1918.37 420.02 L1934.83 420.02 L1951.29 420.02 L1967.75 420.02 L1984.21 420.02 L2000.67 420.02 L2017.00 420.02 L2033.46 420.02 L2049.92 420.02 L2066.38 420.02 L2082.84 420.02 L2099.30 420.02 L2115.75 420.02 L2132.21 420.02 L2148.67 420.02 L2165.13 420.02 L2181.59 420.02 L2198.05 420.02 L2214.51 420.02 L2230.97 420.02 L2247.42 420.02 L2263.88 420.02 L2280.34 420.02 L2296.80 420.02 L2313.26 420.02 L2329.72 420.02 L2346.18 420.02 L2362.64 420.02 L2379.09 420.02 L2395.55 420.02 L2412.01 420.02 L2428.47 420.02 L2444.93 420.02 L2461.39 420.02 L2477.85 420.02 L2494.30 420.02 L2510.76 420.02 L2527.10 420.02 L2543.56 420.02 L2560.02 420.02 L2576.47 420.02 L2592.93 420.02 L2609.39 420.02 L2625.85 420.02 L2642.31 420.02 L2658.77 420.02 L2675.23 420.02 L2691.69 420.02 L2708.14 420.02 L2724.60 420.02 L2741.06 420.02 L2757.52 420.02 L2773.98 420.02 L2790.44 420.02 L2806.90 420.02 L2823.36 420.02 L2839.82 420.02 L2856.27 420.02 L2872.73 420.02 L2889.19 420.02 L2905.65 420.02 L2922.11 420.02 L2938.57 420.02 L2955.03 420.02 L2971.49 420.02 L2987.94 420.02 L3004.40 420.02 L3020.74 420.02 L3037.20 420.02 L3053.66 420.02 L3070.11 420.02 L3086.57 420.02 L3103.03 420.02 L3119.49 420.02 L3135.95 420.02 L3152.41 420.02 L3168.87 420.02 L3185.32 420.02 L3201.78 420.02 L3218.24 420.02 L3234.70 420.02 L3251.16 420.02 L3267.62 420.02 L3284.08 420.02 L3300.54 420.02 L3316.99 420.02 L3333.45 420.02 L3349.91 420.02 L3366.37 420.02 L3382.83 420.02 L3399.29 420.02 L3415.75 420.02 L3432.21 420.02 L3448.66 420.02 L3465.12 420.02 L3481.58 420.02 L3498.04 420.02 L3514.38 420.02 L3530.84 420.02 L3547.29 420.02 L3563.75 420.02 L3563.75 1953.70 L618.38 1953.70 L618.38 420.02 Z" stroke-linejoin="round"/>
	</defs>
	<defs>
		<clipPath id="clipPath_JCtefTGy">
			<use xlink:href="#path_ZekSqaWI"/>
		</clipPath>
	</defs>
	<use xlink:href="#path_ZekSqaWI" style="stroke:none;fill:#486C8C"/>
	<use xlink:href="#path_ZekSqaWI" style="fill:none;stroke:#1A476F;stroke-width:17.28" clip-path="url(#clipPath_JCtefTGy)"/>
	<defs>
		<path id="path_tgUbvedx" d="M618.38 420.02 L618.38 420.02 L634.84 420.02 L651.30 420.02 L667.75 420.02 L684.21 420.02 L700.67 420.02 L717.13 420.02 L733.59 420.02 L750.05 420.02 L766.51 420.02 L782.97 420.02 L799.42 420.02 L815.88 420.02 L832.34 420.02 L848.80 420.02 L865.26 420.02 L881.72 420.02 L898.18 420.02 L914.64 420.02 L931.10 420.02 L947.55 420.02 L964.01 420.02 L980.47 420.02 L996.93 420.02 L1013.39 420.02 L1029.72 420.02 L1046.18 420.02 L1062.64 420.02 L1079.10 420.02 L1095.56 420.02 L1112.02 420.02 L1128.48 420.02 L1144.93 420.02 L1161.39 420.02 L1177.85 420.02 L1194.31 420.14 L1210.77 420.14 L1227.23 420.14 L1243.69 420.14 L1260.15 420.14 L1276.61 420.14 L1293.06 420.27 L1309.52 420.27 L1325.98 420.27 L1342.44 420.27 L1358.90 420.27 L1375.36 420.27 L1391.82 420.27 L1408.28 420.27 L1424.73 420.39 L1441.19 420.39 L1457.65 420.52 L1474.11 420.52 L1490.57 420.52 L1507.03 420.64 L1523.36 420.64 L1539.82 420.76 L1556.28 420.76 L1572.74 420.89 L1589.20 420.89 L1605.66 420.89 L1622.12 421.01 L1638.57 421.01 L1655.03 421.01 L1671.49 421.01 L1687.95 421.13 L1704.41 421.13 L1720.87 421.26 L1737.33 421.38 L1753.79 421.38 L1770.24 421.38 L1786.70 421.51 L1803.16 421.51 L1819.62 421.63 L1836.08 421.63 L1852.54 421.75 L1869.00 421.75 L1885.45 422.00 L1901.91 422.00 L1918.37 422.00 L1934.83 422.12 L1951.29 422.25 L1967.75 422.37 L1984.21 422.37 L2000.67 422.50 L2017.00 422.62 L2033.46 422.74 L2049.92 422.87 L2066.38 422.87 L2082.84 422.99 L2099.30 423.11 L2115.75 423.24 L2132.21 423.36 L2148.67 423.49 L2165.13 423.61 L2181.59 423.73 L2198.05 423.86 L2214.51 423.86 L2230.97 423.98 L2247.42 424.10 L2263.88 424.23 L2280.34 424.35 L2296.80 424.48 L2313.26 424.60 L2329.72 424.85 L2346.18 424.85 L2362.64 424.97 L2379.09 425.22 L2395.55 425.22 L2412.01 425.47 L2428.47 425.59 L2444.93 425.71 L2461.39 425.84 L2477.85 425.96 L2494.30 426.08 L2510.76 426.21 L2527.10 426.33 L2543.56 426.46 L2560.02 426.70 L2576.47 426.83 L2592.93 426.95 L2609.39 427.20 L2625.85 427.32 L2642.31 427.45 L2658.77 427.57 L2675.23 427.69 L2691.69 427.82 L2708.14 428.06 L2724.60 428.19 L2741.06 428.56 L2757.52 428.68 L2773.98 428.81 L2790.44 428.93 L2806.90 429.18 L2823.36 429.43 L2839.82 429.67 L2856.27 429.92 L2872.73 430.17 L2889.19 430.29 L2905.65 430.54 L2922.11 430.79 L2938.57 431.03 L2955.03 431.16 L2971.49 431.41 L2987.94 431.65 L3004.40 431.78 L3020.74 432.02 L3037.20 432.40 L3053.66 432.52 L3070.11 432.77 L3086.57 433.14 L3103.03 433.39 L3119.49 433.51 L3135.95 433.76 L3152.41 434.00 L3168.87 434.13 L3185.32 434.38 L3201.78 434.62 L3218.24 434.87 L3234.70 435.12 L3251.16 435.37 L3267.62 435.61 L3284.08 435.74 L3300.54 435.98 L3316.99 436.23 L3333.45 436.36 L3349.91 436.73 L3366.37 436.97 L3382.83 437.10 L3399.29 437.35 L3415.75 437.72 L3432.21 437.96 L3448.66 438.34 L3465.12 438.58 L3481.58 438.83 L3498.04 439.08 L3514.38 439.33 L3530.84 439.57 L3547.29 439.82 L3563.75 440.07 L3563.75 1953.70 L618.38 1953.70 L618.38 420.02 Z" stroke-linejoin="round"/>
	</defs>
	<defs>
		<clipPath id="clipPath_YTXwoPKz">
			<use xlink:href="#path_tgUbvedx"/>
		</clipPath>
	</defs>
	<use xlink:href="#path_tgUbvedx" style="stroke:none;fill:#A65D62"/>
	<use xlink:href="#path_tgUbvedx" style="fill:none;stroke:#90353B;stroke-width:17.28" clip-path="url(#clipPath_YTXwoPKz)"/>
	<defs>
		<path id="path_jvPHQism" d="M618.38 420.02 L618.38 420.02 L634.84 420.02 L651.30 420.02 L667.75 420.02 L684.21 420.02 L700.67 420.02 L717.13 420.02 L733.59 420.02 L750.05 420.02 L766.51 420.02 L782.97 420.02 L799.42 420.02 L815.88 420.14 L832.34 420.14 L848.80 420.14 L865.26 420.27 L881.72 420.39 L898.18 420.39 L914.64 420.39 L931.10 420.52 L947.55 420.52 L964.01 420.64 L980.47 420.64 L996.93 420.64 L1013.39 420.76 L1029.72 420.76 L1046.18 420.89 L1062.64 421.01 L1079.10 421.01 L1095.56 421.01 L1112.02 421.13 L1128.48 421.26 L1144.93 421.26 L1161.39 421.38 L1177.85 421.51 L1194.31 421.75 L1210.77 421.88 L1227.23 422.00 L1243.69 422.00 L1260.15 422.25 L1276.61 422.37 L1293.06 422.50 L1309.52 422.62 L1325.98 422.87 L1342.44 422.99 L1358.90 423.36 L1375.36 423.49 L1391.82 423.73 L1408.28 423.98 L1424.73 424.10 L1441.19 424.35 L1457.65 424.60 L1474.11 424.85 L1490.57 425.09 L1507.03 425.22 L1523.36 425.47 L1539.82 425.71 L1556.28 425.96 L1572.74 426.33 L1589.20 426.70 L1605.66 427.07 L1622.12 427.32 L1638.57 427.69 L1655.03 427.94 L1671.49 428.19 L1687.95 428.44 L1704.41 428.68 L1720.87 428.93 L1737.33 429.30 L1753.79 429.67 L1770.24 429.92 L1786.70 430.17 L1803.16 430.54 L1819.62 430.91 L1836.08 431.28 L1852.54 431.65 L1869.00 431.90 L1885.45 432.27 L1901.91 432.64 L1918.37 433.01 L1934.83 433.39 L1951.29 433.76 L1967.75 434.25 L1984.21 434.62 L2000.67 434.87 L2017.00 435.24 L2033.46 435.49 L2049.92 435.98 L2066.38 436.48 L2082.84 436.85 L2099.30 437.22 L2115.75 437.72 L2132.21 437.96 L2148.67 438.34 L2165.13 438.83 L2181.59 439.33 L2198.05 439.70 L2214.51 440.19 L2230.97 440.69 L2247.42 440.94 L2263.88 441.43 L2280.34 441.68 L2296.80 441.93 L2313.26 442.54 L2329.72 442.79 L2346.18 443.29 L2362.64 443.66 L2379.09 444.15 L2395.55 444.65 L2412.01 444.90 L2428.47 445.27 L2444.93 445.76 L2461.39 446.01 L2477.85 446.50 L2494.30 447.00 L2510.76 447.49 L2527.10 447.99 L2543.56 448.48 L2560.02 448.98 L2576.47 449.47 L2592.93 449.97 L2609.39 450.34 L2625.85 450.96 L2642.31 451.58 L2658.77 452.20 L2675.23 452.82 L2691.69 453.31 L2708.14 454.05 L2724.60 454.67 L2741.06 455.04 L2757.52 455.41 L2773.98 456.03 L2790.44 456.78 L2806.90 457.15 L2823.36 457.77 L2839.82 458.26 L2856.27 458.76 L2872.73 459.25 L2889.19 459.75 L2905.65 460.36 L2922.11 461.11 L2938.57 461.73 L2955.03 462.22 L2971.49 462.72 L2987.94 463.21 L3004.40 463.71 L3020.74 464.20 L3037.20 464.70 L3053.66 465.31 L3070.11 465.81 L3086.57 466.18 L3103.03 466.43 L3119.49 467.05 L3135.95 467.67 L3152.41 467.91 L3168.87 468.53 L3185.32 469.15 L3201.78 469.65 L3218.24 470.14 L3234.70 470.76 L3251.16 471.38 L3267.62 472.00 L3284.08 472.49 L3300.54 473.23 L3316.99 473.85 L3333.45 474.47 L3349.91 474.97 L3366.37 475.59 L3382.83 476.08 L3399.29 476.70 L3415.75 477.32 L3432.21 478.06 L3448.66 478.56 L3465.12 479.17 L3481.58 479.67 L3498.04 480.04 L3514.38 480.78 L3530.84 481.28 L3547.29 482.02 L3563.75 482.52 L3563.75 1953.70 L618.38 1953.70 L618.38 420.02 Z" stroke-linejoin="round"/>
	</defs>
	<defs>
		<clipPath id="clipPath_icMhZFeB">
			<use xlink:href="#path_jvPHQism"/>
		</clipPath>
	</defs>
	<use xlink:href="#path_jvPHQism" style="stroke:none;fill:#779159"/>
	<use xlink:href="#path_jvPHQism" style="fill:none;stroke:#55752F;stroke-width:17.28" clip-path="url(#clipPath_icMhZFeB)"/>
	<defs>
		<path id="path_QNJJSmba" d="M618.38 420.39 L618.38 420.39 L634.84 420.52 L651.30 420.89 L667.75 421.13 L684.21 421.26 L700.67 421.75 L717.13 422.25 L733.59 422.74 L750.05 423.11 L766.51 423.49 L782.97 424.10 L799.42 424.60 L815.88 425.09 L832.34 425.59 L848.80 426.08 L865.26 426.83 L881.72 427.69 L898.18 428.31 L914.64 428.93 L931.10 429.80 L947.55 430.79 L964.01 431.65 L980.47 432.40 L996.93 433.26 L1013.39 434.25 L1029.72 434.87 L1046.18 435.74 L1062.64 436.60 L1079.10 437.59 L1095.56 438.71 L1112.02 439.70 L1128.48 440.56 L1144.93 441.55 L1161.39 442.54 L1177.85 443.53 L1194.31 444.40 L1210.77 445.64 L1227.23 447.00 L1243.69 448.36 L1260.15 449.47 L1276.61 450.84 L1293.06 452.20 L1309.52 453.19 L1325.98 454.18 L1342.44 455.41 L1358.90 456.90 L1375.36 458.14 L1391.82 459.37 L1408.28 460.61 L1424.73 461.73 L1441.19 462.96 L1457.65 464.08 L1474.11 465.44 L1490.57 466.80 L1507.03 467.79 L1523.36 469.27 L1539.82 470.64 L1556.28 471.75 L1572.74 472.74 L1589.20 473.85 L1605.66 474.97 L1622.12 476.33 L1638.57 477.69 L1655.03 478.93 L1671.49 480.29 L1687.95 481.40 L1704.41 482.64 L1720.87 483.75 L1737.33 484.87 L1753.79 486.11 L1770.24 487.34 L1786.70 488.58 L1803.16 489.69 L1819.62 490.81 L1836.08 491.80 L1852.54 493.04 L1869.00 494.27 L1885.45 495.26 L1901.91 496.50 L1918.37 497.74 L1934.83 499.10 L1951.29 500.46 L1967.75 501.57 L1984.21 502.81 L2000.67 504.05 L2017.00 505.29 L2033.46 506.65 L2049.92 507.64 L2066.38 509.00 L2082.84 510.36 L2099.30 511.35 L2115.75 512.59 L2132.21 513.70 L2148.67 514.94 L2165.13 516.30 L2181.59 517.54 L2198.05 518.65 L2214.51 519.64 L2230.97 520.76 L2247.42 521.87 L2263.88 523.11 L2280.34 524.22 L2296.80 525.21 L2313.26 526.45 L2329.72 527.81 L2346.18 529.17 L2362.64 530.41 L2379.09 531.28 L2395.55 532.51 L2412.01 533.50 L2428.47 534.86 L2444.93 536.35 L2461.39 537.83 L2477.85 538.82 L2494.30 539.94 L2510.76 541.18 L2527.10 542.29 L2543.56 543.40 L2560.02 544.52 L2576.47 545.63 L2592.93 546.74 L2609.39 547.86 L2625.85 549.10 L2642.31 550.33 L2658.77 551.57 L2675.23 552.81 L2691.69 553.80 L2708.14 554.91 L2724.60 556.03 L2741.06 556.89 L2757.52 558.25 L2773.98 559.12 L2790.44 560.36 L2806.90 561.47 L2823.36 562.34 L2839.82 563.58 L2856.27 564.69 L2872.73 565.80 L2889.19 566.92 L2905.65 568.15 L2922.11 569.52 L2938.57 570.51 L2955.03 571.74 L2971.49 572.73 L2987.94 573.85 L3004.40 574.96 L3020.74 575.95 L3037.20 576.82 L3053.66 577.81 L3070.11 578.80 L3086.57 579.54 L3103.03 580.53 L3119.49 581.77 L3135.95 583.00 L3152.41 584.12 L3168.87 585.23 L3185.32 586.35 L3201.78 587.21 L3218.24 588.08 L3234.70 589.19 L3251.16 590.31 L3267.62 591.17 L3284.08 592.16 L3300.54 593.28 L3316.99 594.51 L3333.45 595.75 L3349.91 596.62 L3366.37 597.48 L3382.83 598.60 L3399.29 599.71 L3415.75 600.83 L3432.21 601.69 L3448.66 602.81 L3465.12 603.80 L3481.58 604.66 L3498.04 605.65 L3514.38 606.77 L3530.84 607.88 L3547.29 608.75 L3563.75 609.86 L3563.75 1953.70 L618.38 1953.70 L618.38 420.39 Z" stroke-linejoin="round"/>
	</defs>
	<defs>
		<clipPath id="clipPath_DTeVJBmN">
			<use xlink:href="#path_QNJJSmba"/>
		</clipPath>
	</defs>
	<use xlink:href="#path_QNJJSmba" style="stroke:none;fill:#E99833"/>
	<use xlink:href="#path_QNJJSmba" style="fill:none;stroke:#E37E00;stroke-width:17.28" clip-path="url(#clipPath_DTeVJBmN)"/>
	<defs>
		<path id="path_GMQNnCmY" d="M618.38 466.43 L618.38 466.43 L634.84 473.61 L651.30 481.65 L667.75 489.45 L684.21 496.62 L700.67 504.30 L717.13 511.60 L733.59 518.16 L750.05 525.34 L766.51 532.76 L782.97 539.57 L799.42 546.25 L815.88 553.06 L832.34 559.12 L848.80 565.31 L865.26 571.62 L881.72 577.44 L898.18 583.75 L914.64 589.69 L931.10 595.63 L947.55 601.20 L964.01 606.52 L980.47 612.09 L996.93 617.41 L1013.39 622.61 L1029.72 627.80 L1046.18 632.75 L1062.64 637.83 L1079.10 642.28 L1095.56 646.86 L1112.02 651.81 L1128.48 656.76 L1144.93 661.59 L1161.39 666.17 L1177.85 671.12 L1194.31 675.57 L1210.77 680.03 L1227.23 684.36 L1243.69 688.32 L1260.15 692.77 L1276.61 696.86 L1293.06 700.94 L1309.52 704.65 L1325.98 708.61 L1342.44 712.45 L1358.90 716.41 L1375.36 720.25 L1391.82 723.96 L1408.28 727.18 L1424.73 730.64 L1441.19 734.36 L1457.65 737.82 L1474.11 741.53 L1490.57 744.50 L1507.03 747.97 L1523.36 751.19 L1539.82 754.40 L1556.28 757.74 L1572.74 760.59 L1589.20 763.81 L1605.66 766.90 L1622.12 769.63 L1638.57 772.22 L1655.03 775.07 L1671.49 777.79 L1687.95 780.52 L1704.41 783.49 L1720.87 786.21 L1737.33 788.93 L1753.79 791.65 L1770.24 794.50 L1786.70 797.22 L1803.16 800.07 L1819.62 803.04 L1836.08 805.64 L1852.54 808.24 L1869.00 810.71 L1885.45 813.56 L1901.91 816.16 L1918.37 819.00 L1934.83 821.48 L1951.29 823.71 L1967.75 826.06 L1984.21 828.66 L2000.67 831.13 L2017.00 833.11 L2033.46 835.59 L2049.92 837.81 L2066.38 840.29 L2082.84 842.64 L2099.30 844.74 L2115.75 846.97 L2132.21 849.69 L2148.67 851.55 L2165.13 854.03 L2181.59 856.01 L2198.05 857.99 L2214.51 860.21 L2230.97 862.19 L2247.42 864.30 L2263.88 866.28 L2280.34 868.01 L2296.80 869.74 L2313.26 871.60 L2329.72 873.21 L2346.18 874.94 L2362.64 876.92 L2379.09 878.78 L2395.55 880.76 L2412.01 882.74 L2428.47 884.47 L2444.93 886.57 L2461.39 888.31 L2477.85 890.16 L2494.30 891.65 L2510.76 893.50 L2527.10 894.86 L2543.56 896.60 L2560.02 898.45 L2576.47 900.06 L2592.93 901.79 L2609.39 903.40 L2625.85 905.01 L2642.31 906.87 L2658.77 908.35 L2675.23 909.96 L2691.69 911.57 L2708.14 913.30 L2724.60 914.79 L2741.06 916.52 L2757.52 917.76 L2773.98 919.61 L2790.44 920.98 L2806.90 922.21 L2823.36 923.58 L2839.82 924.94 L2856.27 926.67 L2872.73 928.15 L2889.19 929.39 L2905.65 930.88 L2922.11 932.24 L2938.57 933.85 L2955.03 935.70 L2971.49 937.31 L2987.94 938.92 L3004.40 940.03 L3020.74 941.52 L3037.20 943.00 L3053.66 944.37 L3070.11 945.73 L3086.57 947.21 L3103.03 948.57 L3119.49 949.69 L3135.95 951.05 L3152.41 952.16 L3168.87 953.40 L3185.32 954.64 L3201.78 956.25 L3218.24 957.48 L3234.70 958.72 L3251.16 960.08 L3267.62 961.32 L3284.08 962.56 L3300.54 963.80 L3316.99 965.03 L3333.45 966.15 L3349.91 967.26 L3366.37 968.50 L3382.83 969.61 L3399.29 970.85 L3415.75 972.09 L3432.21 973.32 L3448.66 974.56 L3465.12 975.80 L3481.58 977.04 L3498.04 978.27 L3514.38 979.51 L3530.84 980.63 L3547.29 981.86 L3563.75 982.85 L3563.75 1953.70 L618.38 1953.70 L618.38 466.43 Z" stroke-linejoin="round"/>
	</defs>
	<defs>
		<clipPath id="clipPath_RAYtPNnd">
			<use xlink:href="#path_GMQNnCmY"/>
		</clipPath>
	</defs>
	<use xlink:href="#path_GMQNnCmY" style="stroke:none;fill:#8BA59D"/>
	<use xlink:href="#path_GMQNnCmY" style="fill:none;stroke:#6E8E84;stroke-width:17.28" clip-path="url(#clipPath_RAYtPNnd)"/>
	<line x1="465.80" y1="1953.70" x2="465.80" y2="419.90" style="stroke:#000000;stroke-width:5.76"/>
	<line x1="465.80" y1="1953.70" x2="425.82" y2="1953.70" style="stroke:#000000;stroke-width:5.76"/>
	<text x="405.78" y="1988.73" style="font-family:'Helvetica';font-size:99.99px;fill:#000000" text-anchor="end">0.0</text>
	<line x1="465.80" y1="1800.37" x2="425.82" y2="1800.37" style="stroke:#000000;stroke-width:5.76"/>
	<text x="405.78" y="1835.40" style="font-family:'Helvetica';font-size:99.99px;fill:#000000" text-anchor="end">0.1</text>
	<line x1="465.80" y1="1646.92" x2="425.82" y2="1646.92" style="stroke:#000000;stroke-width:5.76"/>
	<text x="405.78" y="1681.94" style="font-family:'Helvetica';font-size:99.99px;fill:#000000" text-anchor="end">0.2</text>
	<line x1="465.80" y1="1493.59" x2="425.82" y2="1493.59" style="stroke:#000000;stroke-width:5.76"/>
	<text x="405.78" y="1528.61" style="font-family:'Helvetica';font-size:99.99px;fill:#000000" text-anchor="end">0.3</text>
	<line x1="465.80" y1="1340.13" x2="425.82" y2="1340.13" style="stroke:#000000;stroke-width:5.76"/>
	<text x="405.78" y="1375.16" style="font-family:'Helvetica';font-size:99.99px;fill:#000000" text-anchor="end">0.4</text>
	<line x1="465.80" y1="1186.80" x2="425.82" y2="1186.80" style="stroke:#000000;stroke-width:5.76"/>
	<text x="405.78" y="1221.83" style="font-family:'Helvetica';font-size:99.99px;fill:#000000" text-anchor="end">0.5</text>
	<line x1="465.80" y1="1033.47" x2="425.82" y2="1033.47" style="stroke:#000000;stroke-width:5.76"/>
	<text x="405.78" y="1068.50" style="font-family:'Helvetica';font-size:99.99px;fill:#000000" text-anchor="end">0.6</text>
	<line x1="465.80" y1="880.01" x2="425.82" y2="880.01" style="stroke:#000000;stroke-width:5.76"/>
	<text x="405.78" y="915.04" style="font-family:'Helvetica';font-size:99.99px;fill:#000000" text-anchor="end">0.7</text>
	<line x1="465.80" y1="726.68" x2="425.82" y2="726.68" style="stroke:#000000;stroke-width:5.76"/>
	<text x="405.78" y="761.71" style="font-family:'Helvetica';font-size:99.99px;fill:#000000" text-anchor="end">0.8</text>
	<line x1="465.80" y1="573.35" x2="425.82" y2="573.35" style="stroke:#000000;stroke-width:5.76"/>
	<text x="405.78" y="608.38" style="font-family:'Helvetica';font-size:99.99px;fill:#000000" text-anchor="end">0.9</text>
	<line x1="465.80" y1="419.90" x2="425.82" y2="419.90" style="stroke:#000000;stroke-width:5.76"/>
	<text x="405.78" y="454.93" style="font-family:'Helvetica';font-size:99.99px;fill:#000000" text-anchor="end">1.0</text>
	<text x="190.71" y="1186.80" style="font-family:'Helvetica';font-size:99.99px;fill:#000000" transform="rotate(-90 190.71,1186.80)" text-anchor="middle">Transition Probability</text>
	<line x1="465.80" y1="1953.70" x2="3859.02" y2="1953.70" style="stroke:#000000;stroke-width:5.76"/>
	<line x1="465.80" y1="1953.70" x2="465.80" y2="1993.67" style="stroke:#000000;stroke-width:5.76"/>
	<text x="465.80" y="2083.66" style="font-family:'Helvetica';font-size:99.99px;fill:#000000" text-anchor="middle">0</text>
	<line x1="1314.10" y1="1953.70" x2="1314.10" y2="1993.67" style="stroke:#000000;stroke-width:5.76"/>
	<text x="1314.10" y="2083.66" style="font-family:'Helvetica';font-size:99.99px;fill:#000000" text-anchor="middle">500</text>
	<line x1="2162.41" y1="1953.70" x2="2162.41" y2="1993.67" style="stroke:#000000;stroke-width:5.76"/>
	<text x="2162.41" y="2083.66" style="font-family:'Helvetica';font-size:99.99px;fill:#000000" text-anchor="middle">1000</text>
	<line x1="3010.71" y1="1953.70" x2="3010.71" y2="1993.67" style="stroke:#000000;stroke-width:5.76"/>
	<text x="3010.71" y="2083.66" style="font-family:'Helvetica';font-size:99.99px;fill:#000000" text-anchor="middle">1500</text>
	<line x1="3859.02" y1="1953.70" x2="3859.02" y2="1993.67" style="stroke:#000000;stroke-width:5.76"/>
	<text x="3859.02" y="2083.66" style="font-family:'Helvetica';font-size:99.99px;fill:#000000" text-anchor="middle">2000</text>
	<text x="2162.41" y="2193.67" style="font-family:'Helvetica';font-size:99.99px;fill:#000000" text-anchor="middle">Follow-up time</text>
	<rect x="614.42" y="2278.31" width="3095.98" height="466.30" style="fill:#FFFFFF"/>
	<rect x="617.30" y="2281.19" width="3090.22" height="460.54" style="fill:none;stroke:#000000;stroke-width:5.76"/>
	<rect x="657.61" y="2321.50" width="374.47" height="99.99" style="fill:#8BA59D"/>
	<rect x="661.93" y="2325.82" width="365.83" height="91.35" style="fill:none;stroke:#6E8E84;stroke-width:8.64"/>
	<rect x="2232.45" y="2321.50" width="374.34" height="99.99" style="fill:#E99833"/>
	<rect x="2236.77" y="2325.82" width="365.70" height="91.35" style="fill:none;stroke:#E37E00;stroke-width:8.64"/>
	<rect x="657.61" y="2461.46" width="374.47" height="99.99" style="fill:#779159"/>
	<rect x="661.93" y="2465.78" width="365.83" height="91.35" style="fill:none;stroke:#55752F;stroke-width:8.64"/>
	<rect x="2232.45" y="2461.46" width="374.34" height="99.99" style="fill:#A65D62"/>
	<rect x="2236.77" y="2465.78" width="365.70" height="91.35" style="fill:none;stroke:#90353B;stroke-width:8.64"/>
	<rect x="657.61" y="2601.43" width="374.47" height="99.99" style="fill:#486C8C"/>
	<rect x="661.93" y="2605.75" width="365.83" height="91.35" style="fill:none;stroke:#1A476F;stroke-width:8.64"/>
	<text x="1092.09" y="2406.52" style="font-family:'Helvetica';font-size:99.99px;fill:#000000">P(Y(t) = 1 | Y(90) = 1)</text>
	<text x="2666.81" y="2406.52" style="font-family:'Helvetica';font-size:99.99px;fill:#000000">P(Y(t) = 2 | Y(90) = 1)</text>
	<text x="1092.09" y="2546.49" style="font-family:'Helvetica';font-size:99.99px;fill:#000000">P(Y(t) = 3 | Y(90) = 1)</text>
	<text x="2666.81" y="2546.49" style="font-family:'Helvetica';font-size:99.99px;fill:#000000">P(Y(t) = 4 | Y(90) = 1)</text>
	<text x="1092.09" y="2686.46" style="font-family:'Helvetica';font-size:99.99px;fill:#000000">P(Y(t) = 5 | Y(90) = 1)</text>
	<text x="2162.41" y="369.63" style="font-family:'Helvetica';font-size:110.01px;fill:#000000" text-anchor="middle">From Admission(1), Residential</text>
	<text x="2162.41" y="215.98" style="font-family:'Helvetica';font-size:139.96px;fill:#1E2D53" text-anchor="middle">P(Y(t) = b | Y(90) = 1, at1)</text>
</svg>
