<?xml version="1.0" encoding="UTF-8" standalone="no"?>
<!-- This is a Stata 16.1 generated SVG file (http://www.stata.com) -->

<svg version="1.1" width="5.50in" height="4.00in" viewBox="0 0 3960 2880" xmlns="http://www.w3.org/2000/svg" xmlns:xlink="http://www.w3.org/1999/xlink">
	<desc>Stata Graph - gh_1_9</desc>
	<rect x="0" y="0" width="3960" height="2880" style="fill:#EAF2F3;stroke:none"/>
	<rect x="0.00" y="0.00" width="3959.88" height="2880.00" style="fill:#FFFFFF"/>
	<rect x="2.88" y="2.88" width="3954.12" height="2874.24" style="fill:none;stroke:#EAF2F3;stroke-width:5.76"/>
	<rect x="465.80" y="419.90" width="3393.22" height="1253.75" style="fill:#FFFFFF"/>
	<rect x="468.67" y="422.78" width="3387.47" height="1247.99" style="fill:none;stroke:#FFFFFF;stroke-width:5.76"/>
	<line x1="465.80" y1="1673.65" x2="3859.02" y2="1673.65" style="stroke:#EAF2F3;stroke-width:8.64"/>
	<line x1="465.80" y1="1548.28" x2="3859.02" y2="1548.28" style="stroke:#EAF2F3;stroke-width:8.64"/>
	<line x1="465.80" y1="1422.92" x2="3859.02" y2="1422.92" style="stroke:#EAF2F3;stroke-width:8.64"/>
	<line x1="465.80" y1="1297.56" x2="3859.02" y2="1297.56" style="stroke:#EAF2F3;stroke-width:8.64"/>
	<line x1="465.80" y1="1172.20" x2="3859.02" y2="1172.20" style="stroke:#EAF2F3;stroke-width:8.64"/>
	<line x1="465.80" y1="1046.83" x2="3859.02" y2="1046.83" style="stroke:#EAF2F3;stroke-width:8.64"/>
	<line x1="465.80" y1="921.47" x2="3859.02" y2="921.47" style="stroke:#EAF2F3;stroke-width:8.64"/>
	<line x1="465.80" y1="796.11" x2="3859.02" y2="796.11" style="stroke:#EAF2F3;stroke-width:8.64"/>
	<line x1="465.80" y1="670.62" x2="3859.02" y2="670.62" style="stroke:#EAF2F3;stroke-width:8.64"/>
	<line x1="465.80" y1="545.26" x2="3859.02" y2="545.26" style="stroke:#EAF2F3;stroke-width:8.64"/>
	<line x1="465.80" y1="419.90" x2="3859.02" y2="419.90" style="stroke:#EAF2F3;stroke-width:8.64"/>
	<defs>
		<path id="path_EznYueHp" d="M618.38 420.02 L618.38 420.02 L634.84 420.02 L651.30 420.02 L667.75 420.02 L684.21 420.02 L700.67 420.02 L717.13 420.02 L733.59 420.02 L750.05 420.02 L766.51 420.02 L782.97 420.02 L799.42 420.02 L815.88 420.02 L832.34 420.02 L848.80 420.02 L865.26 420.02 L881.72 420.02 L898.18 420.02 L914.64 420.02 L931.10 420.02 L947.55 420.02 L964.01 420.02 L980.47 420.02 L996.93 420.02 L1013.39 420.02 L1029.72 420.02 L1046.18 420.02 L1062.64 420.02 L1079.10 420.02 L1095.56 420.02 L1112.02 420.02 L1128.48 420.02 L1144.93 420.02 L1161.39 420.02 L1177.85 420.02 L1194.31 420.02 L1210.77 420.02 L1227.23 420.02 L1243.69 420.02 L1260.15 420.02 L1276.61 420.02 L1293.06 420.02 L1309.52 420.02 L1325.98 420.02 L1342.44 420.02 L1358.90 420.02 L1375.36 420.02 L1391.82 420.02 L1408.28 420.02 L1424.73 420.02 L1441.19 420.02 L1457.65 420.02 L1474.11 420.02 L1490.57 420.02 L1507.03 420.02 L1523.36 420.02 L1539.82 420.02 L1556.28 420.02 L1572.74 420.02 L1589.20 420.02 L1605.66 420.02 L1622.12 420.02 L1638.57 420.02 L1655.03 420.02 L1671.49 420.02 L1687.95 420.02 L1704.41 420.02 L1720.87 420.02 L1737.33 420.02 L1753.79 420.02 L1770.24 420.02 L1786.70 420.02 L1803.16 420.02 L1819.62 420.02 L1836.08 420.02 L1852.54 420.02 L1869.00 420.02 L1885.45 420.02 L1901.91 420.02 L1918.37 420.02 L1934.83 420.02 L1951.29 420.02 L1967.75 420.02 L1984.21 420.02 L2000.67 420.02 L2017.00 420.02 L2033.46 420.02 L2049.92 420.02 L2066.38 420.02 L2082.84 420.02 L2099.30 420.02 L2115.75 420.02 L2132.21 420.02 L2148.67 420.02 L2165.13 420.02 L2181.59 420.02 L2198.05 420.02 L2214.51 420.02 L2230.97 420.02 L2247.42 420.02 L2263.88 420.02 L2280.34 420.02 L2296.80 420.02 L2313.26 420.02 L2329.72 420.02 L2346.18 420.02 L2362.64 420.02 L2379.09 420.02 L2395.55 420.02 L2412.01 420.02 L2428.47 420.02 L2444.93 420.02 L2461.39 420.02 L2477.85 420.02 L2494.30 420.02 L2510.76 420.02 L2527.10 420.02 L2543.56 420.02 L2560.02 420.02 L2576.47 420.02 L2592.93 420.02 L2609.39 420.02 L2625.85 420.02 L2642.31 420.02 L2658.77 420.02 L2675.23 420.02 L2691.69 420.02 L2708.14 420.02 L2724.60 420.02 L2741.06 420.02 L2757.52 420.02 L2773.98 420.02 L2790.44 420.02 L2806.90 420.02 L2823.36 420.02 L2839.82 420.02 L2856.27 420.02 L2872.73 420.02 L2889.19 420.02 L2905.65 420.02 L2922.11 420.02 L2938.57 420.02 L2955.03 420.02 L2971.49 420.02 L2987.94 420.02 L3004.40 420.02 L3020.74 420.02 L3037.20 420.02 L3053.66 420.02 L3070.11 420.02 L3086.57 420.02 L3103.03 420.02 L3119.49 420.02 L3135.95 420.02 L3152.41 420.02 L3168.87 420.02 L3185.32 420.02 L3201.78 420.02 L3218.24 420.02 L3234.70 420.02 L3251.16 420.02 L3267.62 420.02 L3284.08 420.02 L3300.54 420.02 L3316.99 420.02 L3333.45 420.02 L3349.91 420.02 L3366.37 420.02 L3382.83 420.02 L3399.29 420.02 L3415.75 420.02 L3432.21 420.02 L3448.66 420.02 L3465.12 420.02 L3481.58 420.02 L3498.04 420.02 L3514.38 420.02 L3530.84 420.02 L3547.29 420.02 L3563.75 420.02 L3563.75 1673.77 L618.38 1673.77 L618.38 420.02 Z" stroke-linejoin="round"/>
	</defs>
	<defs>
		<clipPath id="clipPath_XpGRakCk">
			<use xlink:href="#path_EznYueHp"/>
		</clipPath>
	</defs>
	<use xlink:href="#path_EznYueHp" style="stroke:none;fill:#486C8C"/>
	<use xlink:href="#path_EznYueHp" style="fill:none;stroke:#1A476F;stroke-width:17.28" clip-path="url(#clipPath_XpGRakCk)"/>
	<defs>
		<path id="path_IikojlGE" d="M618.38 592.66 L618.38 592.66 L634.84 602.68 L651.30 612.83 L667.75 622.48 L684.21 631.89 L700.67 639.81 L717.13 648.22 L733.59 655.65 L750.05 663.32 L766.51 670.13 L782.97 676.81 L799.42 683.62 L815.88 689.68 L832.34 695.87 L848.80 701.56 L865.26 706.88 L881.72 711.96 L898.18 717.40 L914.64 722.35 L931.10 727.67 L947.55 732.99 L964.01 737.94 L980.47 743.02 L996.93 747.84 L1013.39 752.05 L1029.72 756.63 L1046.18 760.84 L1062.64 765.42 L1079.10 769.38 L1095.56 773.71 L1112.02 777.55 L1128.48 781.51 L1144.93 785.09 L1161.39 788.31 L1177.85 791.53 L1194.31 795.12 L1210.77 798.71 L1227.23 802.17 L1243.69 805.27 L1260.15 808.36 L1276.61 811.58 L1293.06 814.55 L1309.52 817.77 L1325.98 820.74 L1342.44 823.83 L1358.90 826.68 L1375.36 829.52 L1391.82 832.00 L1408.28 834.84 L1424.73 837.44 L1441.19 840.29 L1457.65 843.51 L1474.11 845.98 L1490.57 848.58 L1507.03 851.43 L1523.36 853.90 L1539.82 856.01 L1556.28 858.60 L1572.74 860.96 L1589.20 863.43 L1605.66 865.66 L1622.12 867.89 L1638.57 869.87 L1655.03 872.46 L1671.49 874.69 L1687.95 877.04 L1704.41 879.27 L1720.87 881.50 L1737.33 883.97 L1753.79 885.71 L1770.24 887.69 L1786.70 890.16 L1803.16 892.51 L1819.62 894.62 L1836.08 896.72 L1852.54 898.70 L1869.00 900.93 L1885.45 903.03 L1901.91 905.14 L1918.37 907.12 L1934.83 908.85 L1951.29 911.08 L1967.75 912.93 L1984.21 914.79 L2000.67 916.89 L2017.00 918.50 L2033.46 919.99 L2049.92 921.97 L2066.38 923.58 L2082.84 925.43 L2099.30 926.79 L2115.75 928.40 L2132.21 930.51 L2148.67 932.24 L2165.13 933.72 L2181.59 935.33 L2198.05 936.94 L2214.51 938.43 L2230.97 940.16 L2247.42 941.89 L2263.88 943.38 L2280.34 944.98 L2296.80 946.72 L2313.26 948.20 L2329.72 949.44 L2346.18 951.17 L2362.64 952.78 L2379.09 954.39 L2395.55 955.75 L2412.01 957.48 L2428.47 958.97 L2444.93 960.33 L2461.39 961.82 L2477.85 963.30 L2494.30 964.79 L2510.76 966.02 L2527.10 967.38 L2543.56 968.87 L2560.02 970.23 L2576.47 971.47 L2592.93 972.58 L2609.39 974.07 L2625.85 975.55 L2642.31 976.67 L2658.77 977.78 L2675.23 979.14 L2691.69 980.38 L2708.14 981.86 L2724.60 983.10 L2741.06 984.34 L2757.52 985.70 L2773.98 987.06 L2790.44 988.42 L2806.90 989.66 L2823.36 990.90 L2839.82 992.38 L2856.27 993.50 L2872.73 994.86 L2889.19 996.22 L2905.65 997.46 L2922.11 998.82 L2938.57 1000.18 L2955.03 1001.29 L2971.49 1002.53 L2987.94 1003.52 L3004.40 1004.51 L3020.74 1005.87 L3037.20 1007.23 L3053.66 1008.47 L3070.11 1009.58 L3086.57 1010.57 L3103.03 1011.69 L3119.49 1012.55 L3135.95 1013.67 L3152.41 1014.53 L3168.87 1015.52 L3185.32 1016.51 L3201.78 1017.63 L3218.24 1018.49 L3234.70 1019.36 L3251.16 1020.35 L3267.62 1021.22 L3284.08 1022.33 L3300.54 1023.32 L3316.99 1024.06 L3333.45 1025.05 L3349.91 1026.04 L3366.37 1027.16 L3382.83 1028.15 L3399.29 1029.14 L3415.75 1029.88 L3432.21 1030.75 L3448.66 1031.74 L3465.12 1032.85 L3481.58 1033.96 L3498.04 1034.95 L3514.38 1035.94 L3530.84 1036.81 L3547.29 1037.80 L3563.75 1038.67 L3563.75 1673.77 L618.38 1673.77 L618.38 592.66 Z" stroke-linejoin="round"/>
	</defs>
	<defs>
		<clipPath id="clipPath_RxzOTSCi">
			<use xlink:href="#path_IikojlGE"/>
		</clipPath>
	</defs>
	<use xlink:href="#path_IikojlGE" style="stroke:none;fill:#A65D62"/>
	<use xlink:href="#path_IikojlGE" style="fill:none;stroke:#90353B;stroke-width:17.28" clip-path="url(#clipPath_RxzOTSCi)"/>
	<defs>
		<path id="path_VqTDncau" d="M618.38 1673.77 L618.38 1673.77 L634.84 1673.77 L651.30 1673.77 L667.75 1673.77 L684.21 1673.77 L700.67 1673.77 L717.13 1673.77 L733.59 1673.77 L750.05 1673.77 L766.51 1673.77 L782.97 1673.77 L799.42 1673.77 L815.88 1673.77 L832.34 1673.77 L848.80 1673.77 L865.26 1673.77 L881.72 1673.77 L898.18 1673.77 L914.64 1673.77 L931.10 1673.77 L947.55 1673.77 L964.01 1673.77 L980.47 1673.77 L996.93 1673.77 L1013.39 1673.77 L1029.72 1673.77 L1046.18 1673.77 L1062.64 1673.77 L1079.10 1673.77 L1095.56 1673.77 L1112.02 1673.77 L1128.48 1673.77 L1144.93 1673.77 L1161.39 1673.77 L1177.85 1673.77 L1194.31 1673.77 L1210.77 1673.77 L1227.23 1673.77 L1243.69 1673.77 L1260.15 1673.77 L1276.61 1673.77 L1293.06 1673.77 L1309.52 1673.77 L1325.98 1673.77 L1342.44 1673.77 L1358.90 1673.77 L1375.36 1673.77 L1391.82 1673.77 L1408.28 1673.77 L1424.73 1673.77 L1441.19 1673.77 L1457.65 1673.77 L1474.11 1673.77 L1490.57 1673.77 L1507.03 1673.77 L1523.36 1673.77 L1539.82 1673.77 L1556.28 1673.77 L1572.74 1673.77 L1589.20 1673.77 L1605.66 1673.77 L1622.12 1673.77 L1638.57 1673.77 L1655.03 1673.77 L1671.49 1673.77 L1687.95 1673.77 L1704.41 1673.77 L1720.87 1673.77 L1737.33 1673.77 L1753.79 1673.77 L1770.24 1673.77 L1786.70 1673.77 L1803.16 1673.77 L1819.62 1673.77 L1836.08 1673.77 L1852.54 1673.77 L1869.00 1673.77 L1885.45 1673.77 L1901.91 1673.77 L1918.37 1673.77 L1934.83 1673.77 L1951.29 1673.77 L1967.75 1673.77 L1984.21 1673.77 L2000.67 1673.77 L2017.00 1673.77 L2033.46 1673.77 L2049.92 1673.77 L2066.38 1673.77 L2082.84 1673.77 L2099.30 1673.77 L2115.75 1673.77 L2132.21 1673.77 L2148.67 1673.77 L2165.13 1673.77 L2181.59 1673.77 L2198.05 1673.77 L2214.51 1673.77 L2230.97 1673.77 L2247.42 1673.77 L2263.88 1673.77 L2280.34 1673.77 L2296.80 1673.77 L2313.26 1673.77 L2329.72 1673.77 L2346.18 1673.77 L2362.64 1673.77 L2379.09 1673.77 L2395.55 1673.77 L2412.01 1673.77 L2428.47 1673.77 L2444.93 1673.77 L2461.39 1673.77 L2477.85 1673.77 L2494.30 1673.77 L2510.76 1673.77 L2527.10 1673.77 L2543.56 1673.77 L2560.02 1673.77 L2576.47 1673.77 L2592.93 1673.77 L2609.39 1673.77 L2625.85 1673.77 L2642.31 1673.77 L2658.77 1673.77 L2675.23 1673.77 L2691.69 1673.77 L2708.14 1673.77 L2724.60 1673.77 L2741.06 1673.77 L2757.52 1673.77 L2773.98 1673.77 L2790.44 1673.77 L2806.90 1673.77 L2823.36 1673.77 L2839.82 1673.77 L2856.27 1673.77 L2872.73 1673.77 L2889.19 1673.77 L2905.65 1673.77 L2922.11 1673.77 L2938.57 1673.77 L2955.03 1673.77 L2971.49 1673.77 L2987.94 1673.77 L3004.40 1673.77 L3020.74 1673.77 L3037.20 1673.77 L3053.66 1673.77 L3070.11 1673.77 L3086.57 1673.77 L3103.03 1673.77 L3119.49 1673.77 L3135.95 1673.77 L3152.41 1673.77 L3168.87 1673.77 L3185.32 1673.77 L3201.78 1673.77 L3218.24 1673.77 L3234.70 1673.77 L3251.16 1673.77 L3267.62 1673.77 L3284.08 1673.77 L3300.54 1673.77 L3316.99 1673.77 L3333.45 1673.77 L3349.91 1673.77 L3366.37 1673.77 L3382.83 1673.77 L3399.29 1673.77 L3415.75 1673.77 L3432.21 1673.77 L3448.66 1673.77 L3465.12 1673.77 L3481.58 1673.77 L3498.04 1673.77 L3514.38 1673.77 L3530.84 1673.77 L3547.29 1673.77 L3563.75 1673.77 L3563.75 1673.77 L618.38 1673.77 L618.38 1673.77 Z" stroke-linejoin="round"/>
	</defs>
	<defs>
		<clipPath id="clipPath_oOSFmdFn">
			<use xlink:href="#path_VqTDncau"/>
		</clipPath>
	</defs>
	<use xlink:href="#path_VqTDncau" style="stroke:none;fill:#779159"/>
	<use xlink:href="#path_VqTDncau" style="fill:none;stroke:#55752F;stroke-width:17.28" clip-path="url(#clipPath_oOSFmdFn)"/>
	<defs>
		<path id="path_vesFCLxq" d="M618.38 1673.77 L618.38 1673.77 L634.84 1673.77 L651.30 1673.77 L667.75 1673.77 L684.21 1673.77 L700.67 1673.77 L717.13 1673.77 L733.59 1673.77 L750.05 1673.77 L766.51 1673.77 L782.97 1673.77 L799.42 1673.77 L815.88 1673.77 L832.34 1673.77 L848.80 1673.77 L865.26 1673.77 L881.72 1673.77 L898.18 1673.77 L914.64 1673.77 L931.10 1673.77 L947.55 1673.77 L964.01 1673.77 L980.47 1673.77 L996.93 1673.77 L1013.39 1673.77 L1029.72 1673.77 L1046.18 1673.77 L1062.64 1673.77 L1079.10 1673.77 L1095.56 1673.77 L1112.02 1673.77 L1128.48 1673.77 L1144.93 1673.77 L1161.39 1673.77 L1177.85 1673.77 L1194.31 1673.77 L1210.77 1673.77 L1227.23 1673.77 L1243.69 1673.77 L1260.15 1673.77 L1276.61 1673.77 L1293.06 1673.77 L1309.52 1673.77 L1325.98 1673.77 L1342.44 1673.77 L1358.90 1673.77 L1375.36 1673.77 L1391.82 1673.77 L1408.28 1673.77 L1424.73 1673.77 L1441.19 1673.77 L1457.65 1673.77 L1474.11 1673.77 L1490.57 1673.77 L1507.03 1673.77 L1523.36 1673.77 L1539.82 1673.77 L1556.28 1673.77 L1572.74 1673.77 L1589.20 1673.77 L1605.66 1673.77 L1622.12 1673.77 L1638.57 1673.77 L1655.03 1673.77 L1671.49 1673.77 L1687.95 1673.77 L1704.41 1673.77 L1720.87 1673.77 L1737.33 1673.77 L1753.79 1673.77 L1770.24 1673.77 L1786.70 1673.77 L1803.16 1673.77 L1819.62 1673.77 L1836.08 1673.77 L1852.54 1673.77 L1869.00 1673.77 L1885.45 1673.77 L1901.91 1673.77 L1918.37 1673.77 L1934.83 1673.77 L1951.29 1673.77 L1967.75 1673.77 L1984.21 1673.77 L2000.67 1673.77 L2017.00 1673.77 L2033.46 1673.77 L2049.92 1673.77 L2066.38 1673.77 L2082.84 1673.77 L2099.30 1673.77 L2115.75 1673.77 L2132.21 1673.77 L2148.67 1673.77 L2165.13 1673.77 L2181.59 1673.77 L2198.05 1673.77 L2214.51 1673.77 L2230.97 1673.77 L2247.42 1673.77 L2263.88 1673.77 L2280.34 1673.77 L2296.80 1673.77 L2313.26 1673.77 L2329.72 1673.77 L2346.18 1673.77 L2362.64 1673.77 L2379.09 1673.77 L2395.55 1673.77 L2412.01 1673.77 L2428.47 1673.77 L2444.93 1673.77 L2461.39 1673.77 L2477.85 1673.77 L2494.30 1673.77 L2510.76 1673.77 L2527.10 1673.77 L2543.56 1673.77 L2560.02 1673.77 L2576.47 1673.77 L2592.93 1673.77 L2609.39 1673.77 L2625.85 1673.77 L2642.31 1673.77 L2658.77 1673.77 L2675.23 1673.77 L2691.69 1673.77 L2708.14 1673.77 L2724.60 1673.77 L2741.06 1673.77 L2757.52 1673.77 L2773.98 1673.77 L2790.44 1673.77 L2806.90 1673.77 L2823.36 1673.77 L2839.82 1673.77 L2856.27 1673.77 L2872.73 1673.77 L2889.19 1673.77 L2905.65 1673.77 L2922.11 1673.77 L2938.57 1673.77 L2955.03 1673.77 L2971.49 1673.77 L2987.94 1673.77 L3004.40 1673.77 L3020.74 1673.77 L3037.20 1673.77 L3053.66 1673.77 L3070.11 1673.77 L3086.57 1673.77 L3103.03 1673.77 L3119.49 1673.77 L3135.95 1673.77 L3152.41 1673.77 L3168.87 1673.77 L3185.32 1673.77 L3201.78 1673.77 L3218.24 1673.77 L3234.70 1673.77 L3251.16 1673.77 L3267.62 1673.77 L3284.08 1673.77 L3300.54 1673.77 L3316.99 1673.77 L3333.45 1673.77 L3349.91 1673.77 L3366.37 1673.77 L3382.83 1673.77 L3399.29 1673.77 L3415.75 1673.77 L3432.21 1673.77 L3448.66 1673.77 L3465.12 1673.77 L3481.58 1673.77 L3498.04 1673.77 L3514.38 1673.77 L3530.84 1673.77 L3547.29 1673.77 L3563.75 1673.77 L3563.75 1673.77 L618.38 1673.77 L618.38 1673.77 Z" stroke-linejoin="round"/>
	</defs>
	<defs>
		<clipPath id="clipPath_xUHxKAKi">
			<use xlink:href="#path_vesFCLxq"/>
		</clipPath>
	</defs>
	<use xlink:href="#path_vesFCLxq" style="stroke:none;fill:#E99833"/>
	<use xlink:href="#path_vesFCLxq" style="fill:none;stroke:#E37E00;stroke-width:17.28" clip-path="url(#clipPath_xUHxKAKi)"/>
	<defs>
		<path id="path_nDYUPsIj" d="M618.38 1673.77 L618.38 1673.77 L634.84 1673.77 L651.30 1673.77 L667.75 1673.77 L684.21 1673.77 L700.67 1673.77 L717.13 1673.77 L733.59 1673.77 L750.05 1673.77 L766.51 1673.77 L782.97 1673.77 L799.42 1673.77 L815.88 1673.77 L832.34 1673.77 L848.80 1673.77 L865.26 1673.77 L881.72 1673.77 L898.18 1673.77 L914.64 1673.77 L931.10 1673.77 L947.55 1673.77 L964.01 1673.77 L980.47 1673.77 L996.93 1673.77 L1013.39 1673.77 L1029.72 1673.77 L1046.18 1673.77 L1062.64 1673.77 L1079.10 1673.77 L1095.56 1673.77 L1112.02 1673.77 L1128.48 1673.77 L1144.93 1673.77 L1161.39 1673.77 L1177.85 1673.77 L1194.31 1673.77 L1210.77 1673.77 L1227.23 1673.77 L1243.69 1673.77 L1260.15 1673.77 L1276.61 1673.77 L1293.06 1673.77 L1309.52 1673.77 L1325.98 1673.77 L1342.44 1673.77 L1358.90 1673.77 L1375.36 1673.77 L1391.82 1673.77 L1408.28 1673.77 L1424.73 1673.77 L1441.19 1673.77 L1457.65 1673.77 L1474.11 1673.77 L1490.57 1673.77 L1507.03 1673.77 L1523.36 1673.77 L1539.82 1673.77 L1556.28 1673.77 L1572.74 1673.77 L1589.20 1673.77 L1605.66 1673.77 L1622.12 1673.77 L1638.57 1673.77 L1655.03 1673.77 L1671.49 1673.77 L1687.95 1673.77 L1704.41 1673.77 L1720.87 1673.77 L1737.33 1673.77 L1753.79 1673.77 L1770.24 1673.77 L1786.70 1673.77 L1803.16 1673.77 L1819.62 1673.77 L1836.08 1673.77 L1852.54 1673.77 L1869.00 1673.77 L1885.45 1673.77 L1901.91 1673.77 L1918.37 1673.77 L1934.83 1673.77 L1951.29 1673.77 L1967.75 1673.77 L1984.21 1673.77 L2000.67 1673.77 L2017.00 1673.77 L2033.46 1673.77 L2049.92 1673.77 L2066.38 1673.77 L2082.84 1673.77 L2099.30 1673.77 L2115.75 1673.77 L2132.21 1673.77 L2148.67 1673.77 L2165.13 1673.77 L2181.59 1673.77 L2198.05 1673.77 L2214.51 1673.77 L2230.97 1673.77 L2247.42 1673.77 L2263.88 1673.77 L2280.34 1673.77 L2296.80 1673.77 L2313.26 1673.77 L2329.72 1673.77 L2346.18 1673.77 L2362.64 1673.77 L2379.09 1673.77 L2395.55 1673.77 L2412.01 1673.77 L2428.47 1673.77 L2444.93 1673.77 L2461.39 1673.77 L2477.85 1673.77 L2494.30 1673.77 L2510.76 1673.77 L2527.10 1673.77 L2543.56 1673.77 L2560.02 1673.77 L2576.47 1673.77 L2592.93 1673.77 L2609.39 1673.77 L2625.85 1673.77 L2642.31 1673.77 L2658.77 1673.77 L2675.23 1673.77 L2691.69 1673.77 L2708.14 1673.77 L2724.60 1673.77 L2741.06 1673.77 L2757.52 1673.77 L2773.98 1673.77 L2790.44 1673.77 L2806.90 1673.77 L2823.36 1673.77 L2839.82 1673.77 L2856.27 1673.77 L2872.73 1673.77 L2889.19 1673.77 L2905.65 1673.77 L2922.11 1673.77 L2938.57 1673.77 L2955.03 1673.77 L2971.49 1673.77 L2987.94 1673.77 L3004.40 1673.77 L3020.74 1673.77 L3037.20 1673.77 L3053.66 1673.77 L3070.11 1673.77 L3086.57 1673.77 L3103.03 1673.77 L3119.49 1673.77 L3135.95 1673.77 L3152.41 1673.77 L3168.87 1673.77 L3185.32 1673.77 L3201.78 1673.77 L3218.24 1673.77 L3234.70 1673.77 L3251.16 1673.77 L3267.62 1673.77 L3284.08 1673.77 L3300.54 1673.77 L3316.99 1673.77 L3333.45 1673.77 L3349.91 1673.77 L3366.37 1673.77 L3382.83 1673.77 L3399.29 1673.77 L3415.75 1673.77 L3432.21 1673.77 L3448.66 1673.77 L3465.12 1673.77 L3481.58 1673.77 L3498.04 1673.77 L3514.38 1673.77 L3530.84 1673.77 L3547.29 1673.77 L3563.75 1673.77 L3563.75 1673.77 L618.38 1673.77 L618.38 1673.77 Z" stroke-linejoin="round"/>
	</defs>
	<defs>
		<clipPath id="clipPath_JWkKnacW">
			<use xlink:href="#path_nDYUPsIj"/>
		</clipPath>
	</defs>
	<use xlink:href="#path_nDYUPsIj" style="stroke:none;fill:#8BA59D"/>
	<use xlink:href="#path_nDYUPsIj" style="fill:none;stroke:#6E8E84;stroke-width:17.28" clip-path="url(#clipPath_JWkKnacW)"/>
	<defs>
		<path id="path_IANbVIrq" d="M618.38 1673.77 L618.38 1673.77 L634.84 1673.77 L651.30 1673.77 L667.75 1673.77 L684.21 1673.77 L700.67 1673.77 L717.13 1673.77 L733.59 1673.77 L750.05 1673.77 L766.51 1673.77 L782.97 1673.77 L799.42 1673.77 L815.88 1673.77 L832.34 1673.77 L848.80 1673.77 L865.26 1673.77 L881.72 1673.77 L898.18 1673.77 L914.64 1673.77 L931.10 1673.77 L947.55 1673.77 L964.01 1673.77 L980.47 1673.77 L996.93 1673.77 L1013.39 1673.77 L1029.72 1673.77 L1046.18 1673.77 L1062.64 1673.77 L1079.10 1673.77 L1095.56 1673.77 L1112.02 1673.77 L1128.48 1673.77 L1144.93 1673.77 L1161.39 1673.77 L1177.85 1673.77 L1194.31 1673.77 L1210.77 1673.77 L1227.23 1673.77 L1243.69 1673.77 L1260.15 1673.77 L1276.61 1673.77 L1293.06 1673.77 L1309.52 1673.77 L1325.98 1673.77 L1342.44 1673.77 L1358.90 1673.77 L1375.36 1673.77 L1391.82 1673.77 L1408.28 1673.77 L1424.73 1673.77 L1441.19 1673.77 L1457.65 1673.77 L1474.11 1673.77 L1490.57 1673.77 L1507.03 1673.77 L1523.36 1673.77 L1539.82 1673.77 L1556.28 1673.77 L1572.74 1673.77 L1589.20 1673.77 L1605.66 1673.77 L1622.12 1673.77 L1638.57 1673.77 L1655.03 1673.77 L1671.49 1673.77 L1687.95 1673.77 L1704.41 1673.77 L1720.87 1673.77 L1737.33 1673.77 L1753.79 1673.77 L1770.24 1673.77 L1786.70 1673.77 L1803.16 1673.77 L1819.62 1673.77 L1836.08 1673.77 L1852.54 1673.77 L1869.00 1673.77 L1885.45 1673.77 L1901.91 1673.77 L1918.37 1673.77 L1934.83 1673.77 L1951.29 1673.77 L1967.75 1673.77 L1984.21 1673.77 L2000.67 1673.77 L2017.00 1673.77 L2033.46 1673.77 L2049.92 1673.77 L2066.38 1673.77 L2082.84 1673.77 L2099.30 1673.77 L2115.75 1673.77 L2132.21 1673.77 L2148.67 1673.77 L2165.13 1673.77 L2181.59 1673.77 L2198.05 1673.77 L2214.51 1673.77 L2230.97 1673.77 L2247.42 1673.77 L2263.88 1673.77 L2280.34 1673.77 L2296.80 1673.77 L2313.26 1673.77 L2329.72 1673.77 L2346.18 1673.77 L2362.64 1673.77 L2379.09 1673.77 L2395.55 1673.77 L2412.01 1673.77 L2428.47 1673.77 L2444.93 1673.77 L2461.39 1673.77 L2477.85 1673.77 L2494.30 1673.77 L2510.76 1673.77 L2527.10 1673.77 L2543.56 1673.77 L2560.02 1673.77 L2576.47 1673.77 L2592.93 1673.77 L2609.39 1673.77 L2625.85 1673.77 L2642.31 1673.77 L2658.77 1673.77 L2675.23 1673.77 L2691.69 1673.77 L2708.14 1673.77 L2724.60 1673.77 L2741.06 1673.77 L2757.52 1673.77 L2773.98 1673.77 L2790.44 1673.77 L2806.90 1673.77 L2823.36 1673.77 L2839.82 1673.77 L2856.27 1673.77 L2872.73 1673.77 L2889.19 1673.77 L2905.65 1673.77 L2922.11 1673.77 L2938.57 1673.77 L2955.03 1673.77 L2971.49 1673.77 L2987.94 1673.77 L3004.40 1673.77 L3020.74 1673.77 L3037.20 1673.77 L3053.66 1673.77 L3070.11 1673.77 L3086.57 1673.77 L3103.03 1673.77 L3119.49 1673.77 L3135.95 1673.77 L3152.41 1673.77 L3168.87 1673.77 L3185.32 1673.77 L3201.78 1673.77 L3218.24 1673.77 L3234.70 1673.77 L3251.16 1673.77 L3267.62 1673.77 L3284.08 1673.77 L3300.54 1673.77 L3316.99 1673.77 L3333.45 1673.77 L3349.91 1673.77 L3366.37 1673.77 L3382.83 1673.77 L3399.29 1673.77 L3415.75 1673.77 L3432.21 1673.77 L3448.66 1673.77 L3465.12 1673.77 L3481.58 1673.77 L3498.04 1673.77 L3514.38 1673.77 L3530.84 1673.77 L3547.29 1673.77 L3563.75 1673.77 L3563.75 1673.77 L618.38 1673.77 L618.38 1673.77 Z" stroke-linejoin="round"/>
	</defs>
	<defs>
		<clipPath id="clipPath_aDahvGqj">
			<use xlink:href="#path_IANbVIrq"/>
		</clipPath>
	</defs>
	<use xlink:href="#path_IANbVIrq" style="stroke:none;fill:#CD375D"/>
	<use xlink:href="#path_IANbVIrq" style="fill:none;stroke:#C10534;stroke-width:17.28" clip-path="url(#clipPath_aDahvGqj)"/>
	<defs>
		<path id="path_goyvOXHW" d="M618.38 1673.77 L618.38 1673.77 L634.84 1673.77 L651.30 1673.77 L667.75 1673.77 L684.21 1673.77 L700.67 1673.77 L717.13 1673.77 L733.59 1673.77 L750.05 1673.77 L766.51 1673.77 L782.97 1673.77 L799.42 1673.77 L815.88 1673.77 L832.34 1673.77 L848.80 1673.77 L865.26 1673.77 L881.72 1673.77 L898.18 1673.77 L914.64 1673.77 L931.10 1673.77 L947.55 1673.77 L964.01 1673.77 L980.47 1673.77 L996.93 1673.77 L1013.39 1673.77 L1029.72 1673.77 L1046.18 1673.77 L1062.64 1673.77 L1079.10 1673.77 L1095.56 1673.77 L1112.02 1673.77 L1128.48 1673.77 L1144.93 1673.77 L1161.39 1673.77 L1177.85 1673.77 L1194.31 1673.77 L1210.77 1673.77 L1227.23 1673.77 L1243.69 1673.77 L1260.15 1673.77 L1276.61 1673.77 L1293.06 1673.77 L1309.52 1673.77 L1325.98 1673.77 L1342.44 1673.77 L1358.90 1673.77 L1375.36 1673.77 L1391.82 1673.77 L1408.28 1673.77 L1424.73 1673.77 L1441.19 1673.77 L1457.65 1673.77 L1474.11 1673.77 L1490.57 1673.77 L1507.03 1673.77 L1523.36 1673.77 L1539.82 1673.77 L1556.28 1673.77 L1572.74 1673.77 L1589.20 1673.77 L1605.66 1673.77 L1622.12 1673.77 L1638.57 1673.77 L1655.03 1673.77 L1671.49 1673.77 L1687.95 1673.77 L1704.41 1673.77 L1720.87 1673.77 L1737.33 1673.77 L1753.79 1673.77 L1770.24 1673.77 L1786.70 1673.77 L1803.16 1673.77 L1819.62 1673.77 L1836.08 1673.77 L1852.54 1673.77 L1869.00 1673.77 L1885.45 1673.77 L1901.91 1673.77 L1918.37 1673.77 L1934.83 1673.77 L1951.29 1673.77 L1967.75 1673.77 L1984.21 1673.77 L2000.67 1673.77 L2017.00 1673.77 L2033.46 1673.77 L2049.92 1673.77 L2066.38 1673.77 L2082.84 1673.77 L2099.30 1673.77 L2115.75 1673.77 L2132.21 1673.77 L2148.67 1673.77 L2165.13 1673.77 L2181.59 1673.77 L2198.05 1673.77 L2214.51 1673.77 L2230.97 1673.77 L2247.42 1673.77 L2263.88 1673.77 L2280.34 1673.77 L2296.80 1673.77 L2313.26 1673.77 L2329.72 1673.77 L2346.18 1673.77 L2362.64 1673.77 L2379.09 1673.77 L2395.55 1673.77 L2412.01 1673.77 L2428.47 1673.77 L2444.93 1673.77 L2461.39 1673.77 L2477.85 1673.77 L2494.30 1673.77 L2510.76 1673.77 L2527.10 1673.77 L2543.56 1673.77 L2560.02 1673.77 L2576.47 1673.77 L2592.93 1673.77 L2609.39 1673.77 L2625.85 1673.77 L2642.31 1673.77 L2658.77 1673.77 L2675.23 1673.77 L2691.69 1673.77 L2708.14 1673.77 L2724.60 1673.77 L2741.06 1673.77 L2757.52 1673.77 L2773.98 1673.77 L2790.44 1673.77 L2806.90 1673.77 L2823.36 1673.77 L2839.82 1673.77 L2856.27 1673.77 L2872.73 1673.77 L2889.19 1673.77 L2905.65 1673.77 L2922.11 1673.77 L2938.57 1673.77 L2955.03 1673.77 L2971.49 1673.77 L2987.94 1673.77 L3004.40 1673.77 L3020.74 1673.77 L3037.20 1673.77 L3053.66 1673.77 L3070.11 1673.77 L3086.57 1673.77 L3103.03 1673.77 L3119.49 1673.77 L3135.95 1673.77 L3152.41 1673.77 L3168.87 1673.77 L3185.32 1673.77 L3201.78 1673.77 L3218.24 1673.77 L3234.70 1673.77 L3251.16 1673.77 L3267.62 1673.77 L3284.08 1673.77 L3300.54 1673.77 L3316.99 1673.77 L3333.45 1673.77 L3349.91 1673.77 L3366.37 1673.77 L3382.83 1673.77 L3399.29 1673.77 L3415.75 1673.77 L3432.21 1673.77 L3448.66 1673.77 L3465.12 1673.77 L3481.58 1673.77 L3498.04 1673.77 L3514.38 1673.77 L3530.84 1673.77 L3547.29 1673.77 L3563.75 1673.77 L3563.75 1673.77 L618.38 1673.77 L618.38 1673.77 Z" stroke-linejoin="round"/>
	</defs>
	<defs>
		<clipPath id="clipPath_zhyeyonW">
			<use xlink:href="#path_goyvOXHW"/>
		</clipPath>
	</defs>
	<use xlink:href="#path_goyvOXHW" style="stroke:none;fill:#A9A4DB"/>
	<use xlink:href="#path_goyvOXHW" style="fill:none;stroke:#938DD2;stroke-width:17.28" clip-path="url(#clipPath_zhyeyonW)"/>
	<defs>
		<path id="path_fvmrXuyq" d="M618.38 1673.77 L618.38 1673.77 L634.84 1673.77 L651.30 1673.77 L667.75 1673.77 L684.21 1673.77 L700.67 1673.77 L717.13 1673.77 L733.59 1673.77 L750.05 1673.77 L766.51 1673.77 L782.97 1673.77 L799.42 1673.77 L815.88 1673.77 L832.34 1673.77 L848.80 1673.77 L865.26 1673.77 L881.72 1673.77 L898.18 1673.77 L914.64 1673.77 L931.10 1673.77 L947.55 1673.77 L964.01 1673.77 L980.47 1673.77 L996.93 1673.77 L1013.39 1673.77 L1029.72 1673.77 L1046.18 1673.77 L1062.64 1673.77 L1079.10 1673.77 L1095.56 1673.77 L1112.02 1673.77 L1128.48 1673.77 L1144.93 1673.77 L1161.39 1673.77 L1177.85 1673.77 L1194.31 1673.77 L1210.77 1673.77 L1227.23 1673.77 L1243.69 1673.77 L1260.15 1673.77 L1276.61 1673.77 L1293.06 1673.77 L1309.52 1673.77 L1325.98 1673.77 L1342.44 1673.77 L1358.90 1673.77 L1375.36 1673.77 L1391.82 1673.77 L1408.28 1673.77 L1424.73 1673.77 L1441.19 1673.77 L1457.65 1673.77 L1474.11 1673.77 L1490.57 1673.77 L1507.03 1673.77 L1523.36 1673.77 L1539.82 1673.77 L1556.28 1673.77 L1572.74 1673.77 L1589.20 1673.77 L1605.66 1673.77 L1622.12 1673.77 L1638.57 1673.77 L1655.03 1673.77 L1671.49 1673.77 L1687.95 1673.77 L1704.41 1673.77 L1720.87 1673.77 L1737.33 1673.77 L1753.79 1673.77 L1770.24 1673.77 L1786.70 1673.77 L1803.16 1673.77 L1819.62 1673.77 L1836.08 1673.77 L1852.54 1673.77 L1869.00 1673.77 L1885.45 1673.77 L1901.91 1673.77 L1918.37 1673.77 L1934.83 1673.77 L1951.29 1673.77 L1967.75 1673.77 L1984.21 1673.77 L2000.67 1673.77 L2017.00 1673.77 L2033.46 1673.77 L2049.92 1673.77 L2066.38 1673.77 L2082.84 1673.77 L2099.30 1673.77 L2115.75 1673.77 L2132.21 1673.77 L2148.67 1673.77 L2165.13 1673.77 L2181.59 1673.77 L2198.05 1673.77 L2214.51 1673.77 L2230.97 1673.77 L2247.42 1673.77 L2263.88 1673.77 L2280.34 1673.77 L2296.80 1673.77 L2313.26 1673.77 L2329.72 1673.77 L2346.18 1673.77 L2362.64 1673.77 L2379.09 1673.77 L2395.55 1673.77 L2412.01 1673.77 L2428.47 1673.77 L2444.93 1673.77 L2461.39 1673.77 L2477.85 1673.77 L2494.30 1673.77 L2510.76 1673.77 L2527.10 1673.77 L2543.56 1673.77 L2560.02 1673.77 L2576.47 1673.77 L2592.93 1673.77 L2609.39 1673.77 L2625.85 1673.77 L2642.31 1673.77 L2658.77 1673.77 L2675.23 1673.77 L2691.69 1673.77 L2708.14 1673.77 L2724.60 1673.77 L2741.06 1673.77 L2757.52 1673.77 L2773.98 1673.77 L2790.44 1673.77 L2806.90 1673.77 L2823.36 1673.77 L2839.82 1673.77 L2856.27 1673.77 L2872.73 1673.77 L2889.19 1673.77 L2905.65 1673.77 L2922.11 1673.77 L2938.57 1673.77 L2955.03 1673.77 L2971.49 1673.77 L2987.94 1673.77 L3004.40 1673.77 L3020.74 1673.77 L3037.20 1673.77 L3053.66 1673.77 L3070.11 1673.77 L3086.57 1673.77 L3103.03 1673.77 L3119.49 1673.77 L3135.95 1673.77 L3152.41 1673.77 L3168.87 1673.77 L3185.32 1673.77 L3201.78 1673.77 L3218.24 1673.77 L3234.70 1673.77 L3251.16 1673.77 L3267.62 1673.77 L3284.08 1673.77 L3300.54 1673.77 L3316.99 1673.77 L3333.45 1673.77 L3349.91 1673.77 L3366.37 1673.77 L3382.83 1673.77 L3399.29 1673.77 L3415.75 1673.77 L3432.21 1673.77 L3448.66 1673.77 L3465.12 1673.77 L3481.58 1673.77 L3498.04 1673.77 L3514.38 1673.77 L3530.84 1673.77 L3547.29 1673.77 L3563.75 1673.77 L3563.75 1673.77 L618.38 1673.77 L618.38 1673.77 Z" stroke-linejoin="round"/>
	</defs>
	<defs>
		<clipPath id="clipPath_zgcvVoic">
			<use xlink:href="#path_fvmrXuyq"/>
		</clipPath>
	</defs>
	<use xlink:href="#path_fvmrXuyq" style="stroke:none;fill:#D5CE98"/>
	<use xlink:href="#path_fvmrXuyq" style="fill:none;stroke:#CAC27E;stroke-width:17.28" clip-path="url(#clipPath_zgcvVoic)"/>
	<defs>
		<path id="path_sDtLdPsT" d="M618.38 1673.77 L618.38 1673.77 L634.84 1673.77 L651.30 1673.77 L667.75 1673.77 L684.21 1673.77 L700.67 1673.77 L717.13 1673.77 L733.59 1673.77 L750.05 1673.77 L766.51 1673.77 L782.97 1673.77 L799.42 1673.77 L815.88 1673.77 L832.34 1673.77 L848.80 1673.77 L865.26 1673.77 L881.72 1673.77 L898.18 1673.77 L914.64 1673.77 L931.10 1673.77 L947.55 1673.77 L964.01 1673.77 L980.47 1673.77 L996.93 1673.77 L1013.39 1673.77 L1029.72 1673.77 L1046.18 1673.77 L1062.64 1673.77 L1079.10 1673.77 L1095.56 1673.77 L1112.02 1673.77 L1128.48 1673.77 L1144.93 1673.77 L1161.39 1673.77 L1177.85 1673.77 L1194.31 1673.77 L1210.77 1673.77 L1227.23 1673.77 L1243.69 1673.77 L1260.15 1673.77 L1276.61 1673.77 L1293.06 1673.77 L1309.52 1673.77 L1325.98 1673.77 L1342.44 1673.77 L1358.90 1673.77 L1375.36 1673.77 L1391.82 1673.77 L1408.28 1673.77 L1424.73 1673.77 L1441.19 1673.77 L1457.65 1673.77 L1474.11 1673.77 L1490.57 1673.77 L1507.03 1673.77 L1523.36 1673.77 L1539.82 1673.77 L1556.28 1673.77 L1572.74 1673.77 L1589.20 1673.77 L1605.66 1673.77 L1622.12 1673.77 L1638.57 1673.77 L1655.03 1673.77 L1671.49 1673.77 L1687.95 1673.77 L1704.41 1673.77 L1720.87 1673.77 L1737.33 1673.77 L1753.79 1673.77 L1770.24 1673.77 L1786.70 1673.77 L1803.16 1673.77 L1819.62 1673.77 L1836.08 1673.77 L1852.54 1673.77 L1869.00 1673.77 L1885.45 1673.77 L1901.91 1673.77 L1918.37 1673.77 L1934.83 1673.77 L1951.29 1673.77 L1967.75 1673.77 L1984.21 1673.77 L2000.67 1673.77 L2017.00 1673.77 L2033.46 1673.77 L2049.92 1673.77 L2066.38 1673.77 L2082.84 1673.77 L2099.30 1673.77 L2115.75 1673.77 L2132.21 1673.77 L2148.67 1673.77 L2165.13 1673.77 L2181.59 1673.77 L2198.05 1673.77 L2214.51 1673.77 L2230.97 1673.77 L2247.42 1673.77 L2263.88 1673.77 L2280.34 1673.77 L2296.80 1673.77 L2313.26 1673.77 L2329.72 1673.77 L2346.18 1673.77 L2362.64 1673.77 L2379.09 1673.77 L2395.55 1673.77 L2412.01 1673.77 L2428.47 1673.77 L2444.93 1673.77 L2461.39 1673.77 L2477.85 1673.77 L2494.30 1673.77 L2510.76 1673.77 L2527.10 1673.77 L2543.56 1673.77 L2560.02 1673.77 L2576.47 1673.77 L2592.93 1673.77 L2609.39 1673.77 L2625.85 1673.77 L2642.31 1673.77 L2658.77 1673.77 L2675.23 1673.77 L2691.69 1673.77 L2708.14 1673.77 L2724.60 1673.77 L2741.06 1673.77 L2757.52 1673.77 L2773.98 1673.77 L2790.44 1673.77 L2806.90 1673.77 L2823.36 1673.77 L2839.82 1673.77 L2856.27 1673.77 L2872.73 1673.77 L2889.19 1673.77 L2905.65 1673.77 L2922.11 1673.77 L2938.57 1673.77 L2955.03 1673.77 L2971.49 1673.77 L2987.94 1673.77 L3004.40 1673.77 L3020.74 1673.77 L3037.20 1673.77 L3053.66 1673.77 L3070.11 1673.77 L3086.57 1673.77 L3103.03 1673.77 L3119.49 1673.77 L3135.95 1673.77 L3152.41 1673.77 L3168.87 1673.77 L3185.32 1673.77 L3201.78 1673.77 L3218.24 1673.77 L3234.70 1673.77 L3251.16 1673.77 L3267.62 1673.77 L3284.08 1673.77 L3300.54 1673.77 L3316.99 1673.77 L3333.45 1673.77 L3349.91 1673.77 L3366.37 1673.77 L3382.83 1673.77 L3399.29 1673.77 L3415.75 1673.77 L3432.21 1673.77 L3448.66 1673.77 L3465.12 1673.77 L3481.58 1673.77 L3498.04 1673.77 L3514.38 1673.77 L3530.84 1673.77 L3547.29 1673.77 L3563.75 1673.77 L3563.75 1673.77 L618.38 1673.77 L618.38 1673.77 Z" stroke-linejoin="round"/>
	</defs>
	<defs>
		<clipPath id="clipPath_lDiOhFWW">
			<use xlink:href="#path_sDtLdPsT"/>
		</clipPath>
	</defs>
	<use xlink:href="#path_sDtLdPsT" style="stroke:none;fill:#B37557"/>
	<use xlink:href="#path_sDtLdPsT" style="fill:none;stroke:#A0522D;stroke-width:17.28" clip-path="url(#clipPath_lDiOhFWW)"/>
	<defs>
		<path id="path_sXMZQLnT" d="M618.38 1673.77 L618.38 1673.77 L634.84 1673.77 L651.30 1673.77 L667.75 1673.77 L684.21 1673.77 L700.67 1673.77 L717.13 1673.77 L733.59 1673.77 L750.05 1673.77 L766.51 1673.77 L782.97 1673.77 L799.42 1673.77 L815.88 1673.77 L832.34 1673.77 L848.80 1673.77 L865.26 1673.77 L881.72 1673.77 L898.18 1673.77 L914.64 1673.77 L931.10 1673.77 L947.55 1673.77 L964.01 1673.77 L980.47 1673.77 L996.93 1673.77 L1013.39 1673.77 L1029.72 1673.77 L1046.18 1673.77 L1062.64 1673.77 L1079.10 1673.77 L1095.56 1673.77 L1112.02 1673.77 L1128.48 1673.77 L1144.93 1673.77 L1161.39 1673.77 L1177.85 1673.77 L1194.31 1673.77 L1210.77 1673.77 L1227.23 1673.77 L1243.69 1673.77 L1260.15 1673.77 L1276.61 1673.77 L1293.06 1673.77 L1309.52 1673.77 L1325.98 1673.77 L1342.44 1673.77 L1358.90 1673.77 L1375.36 1673.77 L1391.82 1673.77 L1408.28 1673.77 L1424.73 1673.77 L1441.19 1673.77 L1457.65 1673.77 L1474.11 1673.77 L1490.57 1673.77 L1507.03 1673.77 L1523.36 1673.77 L1539.82 1673.77 L1556.28 1673.77 L1572.74 1673.77 L1589.20 1673.77 L1605.66 1673.77 L1622.12 1673.77 L1638.57 1673.77 L1655.03 1673.77 L1671.49 1673.77 L1687.95 1673.77 L1704.41 1673.77 L1720.87 1673.77 L1737.33 1673.77 L1753.79 1673.77 L1770.24 1673.77 L1786.70 1673.77 L1803.16 1673.77 L1819.62 1673.77 L1836.08 1673.77 L1852.54 1673.77 L1869.00 1673.77 L1885.45 1673.77 L1901.91 1673.77 L1918.37 1673.77 L1934.83 1673.77 L1951.29 1673.77 L1967.75 1673.77 L1984.21 1673.77 L2000.67 1673.77 L2017.00 1673.77 L2033.46 1673.77 L2049.92 1673.77 L2066.38 1673.77 L2082.84 1673.77 L2099.30 1673.77 L2115.75 1673.77 L2132.21 1673.77 L2148.67 1673.77 L2165.13 1673.77 L2181.59 1673.77 L2198.05 1673.77 L2214.51 1673.77 L2230.97 1673.77 L2247.42 1673.77 L2263.88 1673.77 L2280.34 1673.77 L2296.80 1673.77 L2313.26 1673.77 L2329.72 1673.77 L2346.18 1673.77 L2362.64 1673.77 L2379.09 1673.77 L2395.55 1673.77 L2412.01 1673.77 L2428.47 1673.77 L2444.93 1673.77 L2461.39 1673.77 L2477.85 1673.77 L2494.30 1673.77 L2510.76 1673.77 L2527.10 1673.77 L2543.56 1673.77 L2560.02 1673.77 L2576.47 1673.77 L2592.93 1673.77 L2609.39 1673.77 L2625.85 1673.77 L2642.31 1673.77 L2658.77 1673.77 L2675.23 1673.77 L2691.69 1673.77 L2708.14 1673.77 L2724.60 1673.77 L2741.06 1673.77 L2757.52 1673.77 L2773.98 1673.77 L2790.44 1673.77 L2806.90 1673.77 L2823.36 1673.77 L2839.82 1673.77 L2856.27 1673.77 L2872.73 1673.77 L2889.19 1673.77 L2905.65 1673.77 L2922.11 1673.77 L2938.57 1673.77 L2955.03 1673.77 L2971.49 1673.77 L2987.94 1673.77 L3004.40 1673.77 L3020.74 1673.77 L3037.20 1673.77 L3053.66 1673.77 L3070.11 1673.77 L3086.57 1673.77 L3103.03 1673.77 L3119.49 1673.77 L3135.95 1673.77 L3152.41 1673.77 L3168.87 1673.77 L3185.32 1673.77 L3201.78 1673.77 L3218.24 1673.77 L3234.70 1673.77 L3251.16 1673.77 L3267.62 1673.77 L3284.08 1673.77 L3300.54 1673.77 L3316.99 1673.77 L3333.45 1673.77 L3349.91 1673.77 L3366.37 1673.77 L3382.83 1673.77 L3399.29 1673.77 L3415.75 1673.77 L3432.21 1673.77 L3448.66 1673.77 L3465.12 1673.77 L3481.58 1673.77 L3498.04 1673.77 L3514.38 1673.77 L3530.84 1673.77 L3547.29 1673.77 L3563.75 1673.77 L3563.75 1673.77 L618.38 1673.77 L618.38 1673.77 Z" stroke-linejoin="round"/>
	</defs>
	<defs>
		<clipPath id="clipPath_EFhmMOSl">
			<use xlink:href="#path_sXMZQLnT"/>
		</clipPath>
	</defs>
	<use xlink:href="#path_sXMZQLnT" style="stroke:none;fill:#95A8B9"/>
	<use xlink:href="#path_sXMZQLnT" style="fill:none;stroke:#7B92A8;stroke-width:17.28" clip-path="url(#clipPath_EFhmMOSl)"/>
	<line x1="465.80" y1="1673.65" x2="465.80" y2="419.90" style="stroke:#000000;stroke-width:5.76"/>
	<line x1="465.80" y1="1673.65" x2="425.82" y2="1673.65" style="stroke:#000000;stroke-width:5.76"/>
	<text x="405.78" y="1708.68" style="font-family:'Helvetica';font-size:99.99px;fill:#000000" text-anchor="end">0.0</text>
	<line x1="465.80" y1="1548.28" x2="425.82" y2="1548.28" style="stroke:#000000;stroke-width:5.76"/>
	<text x="405.78" y="1583.31" style="font-family:'Helvetica';font-size:99.99px;fill:#000000" text-anchor="end">0.1</text>
	<line x1="465.80" y1="1422.92" x2="425.82" y2="1422.92" style="stroke:#000000;stroke-width:5.76"/>
	<text x="405.78" y="1457.95" style="font-family:'Helvetica';font-size:99.99px;fill:#000000" text-anchor="end">0.2</text>
	<line x1="465.80" y1="1297.56" x2="425.82" y2="1297.56" style="stroke:#000000;stroke-width:5.76"/>
	<text x="405.78" y="1332.59" style="font-family:'Helvetica';font-size:99.99px;fill:#000000" text-anchor="end">0.3</text>
	<line x1="465.80" y1="1172.20" x2="425.82" y2="1172.20" style="stroke:#000000;stroke-width:5.76"/>
	<text x="405.78" y="1207.23" style="font-family:'Helvetica';font-size:99.99px;fill:#000000" text-anchor="end">0.4</text>
	<line x1="465.80" y1="1046.83" x2="425.82" y2="1046.83" style="stroke:#000000;stroke-width:5.76"/>
	<text x="405.78" y="1081.86" style="font-family:'Helvetica';font-size:99.99px;fill:#000000" text-anchor="end">0.5</text>
	<line x1="465.80" y1="921.47" x2="425.82" y2="921.47" style="stroke:#000000;stroke-width:5.76"/>
	<text x="405.78" y="956.50" style="font-family:'Helvetica';font-size:99.99px;fill:#000000" text-anchor="end">0.6</text>
	<line x1="465.80" y1="796.11" x2="425.82" y2="796.11" style="stroke:#000000;stroke-width:5.76"/>
	<text x="405.78" y="831.14" style="font-family:'Helvetica';font-size:99.99px;fill:#000000" text-anchor="end">0.7</text>
	<line x1="465.80" y1="670.62" x2="425.82" y2="670.62" style="stroke:#000000;stroke-width:5.76"/>
	<text x="405.78" y="705.65" style="font-family:'Helvetica';font-size:99.99px;fill:#000000" text-anchor="end">0.8</text>
	<line x1="465.80" y1="545.26" x2="425.82" y2="545.26" style="stroke:#000000;stroke-width:5.76"/>
	<text x="405.78" y="580.29" style="font-family:'Helvetica';font-size:99.99px;fill:#000000" text-anchor="end">0.9</text>
	<line x1="465.80" y1="419.90" x2="425.82" y2="419.90" style="stroke:#000000;stroke-width:5.76"/>
	<text x="405.78" y="454.93" style="font-family:'Helvetica';font-size:99.99px;fill:#000000" text-anchor="end">1.0</text>
	<text x="190.71" y="1046.83" style="font-family:'Helvetica';font-size:99.99px;fill:#000000" transform="rotate(-90 190.71,1046.83)" text-anchor="middle">Transition Probability</text>
	<line x1="465.80" y1="1673.65" x2="3859.02" y2="1673.65" style="stroke:#000000;stroke-width:5.76"/>
	<line x1="465.80" y1="1673.65" x2="465.80" y2="1713.74" style="stroke:#000000;stroke-width:5.76"/>
	<text x="465.80" y="1803.60" style="font-family:'Helvetica';font-size:99.99px;fill:#000000" text-anchor="middle">0</text>
	<line x1="1314.10" y1="1673.65" x2="1314.10" y2="1713.74" style="stroke:#000000;stroke-width:5.76"/>
	<text x="1314.10" y="1803.60" style="font-family:'Helvetica';font-size:99.99px;fill:#000000" text-anchor="middle">500</text>
	<line x1="2162.41" y1="1673.65" x2="2162.41" y2="1713.74" style="stroke:#000000;stroke-width:5.76"/>
	<text x="2162.41" y="1803.60" style="font-family:'Helvetica';font-size:99.99px;fill:#000000" text-anchor="middle">1000</text>
	<line x1="3010.71" y1="1673.65" x2="3010.71" y2="1713.74" style="stroke:#000000;stroke-width:5.76"/>
	<text x="3010.71" y="1803.60" style="font-family:'Helvetica';font-size:99.99px;fill:#000000" text-anchor="middle">1500</text>
	<line x1="3859.02" y1="1673.65" x2="3859.02" y2="1713.74" style="stroke:#000000;stroke-width:5.76"/>
	<text x="3859.02" y="1803.60" style="font-family:'Helvetica';font-size:99.99px;fill:#000000" text-anchor="middle">2000</text>
	<text x="2162.41" y="1913.62" style="font-family:'Helvetica';font-size:99.99px;fill:#000000" text-anchor="middle">Follow-up time</text>
	<rect x="585.34" y="1998.25" width="3154.26" height="746.36" style="fill:#FFFFFF"/>
	<rect x="588.22" y="2001.13" width="3148.50" height="740.60" style="fill:none;stroke:#000000;stroke-width:5.76"/>
	<rect x="628.53" y="2041.44" width="374.34" height="99.99" style="fill:#95A8B9"/>
	<rect x="632.85" y="2045.76" width="365.70" height="91.35" style="fill:none;stroke:#7B92A8;stroke-width:8.64"/>
	<rect x="2203.24" y="2041.44" width="374.34" height="99.99" style="fill:#B37557"/>
	<rect x="2207.56" y="2045.76" width="365.70" height="91.35" style="fill:none;stroke:#A0522D;stroke-width:8.64"/>
	<rect x="628.53" y="2181.41" width="374.34" height="99.99" style="fill:#D5CE98"/>
	<rect x="632.85" y="2185.73" width="365.70" height="91.35" style="fill:none;stroke:#CAC27E;stroke-width:8.64"/>
	<rect x="2203.24" y="2181.41" width="374.34" height="99.99" style="fill:#A9A4DB"/>
	<rect x="2207.56" y="2185.73" width="365.70" height="91.35" style="fill:none;stroke:#938DD2;stroke-width:8.64"/>
	<rect x="628.53" y="2321.50" width="374.34" height="99.99" style="fill:#CD375D"/>
	<rect x="632.85" y="2325.82" width="365.70" height="91.35" style="fill:none;stroke:#C10534;stroke-width:8.64"/>
	<rect x="2203.24" y="2321.50" width="374.34" height="99.99" style="fill:#8BA59D"/>
	<rect x="2207.56" y="2325.82" width="365.70" height="91.35" style="fill:none;stroke:#6E8E84;stroke-width:8.64"/>
	<rect x="628.53" y="2461.46" width="374.34" height="99.99" style="fill:#E99833"/>
	<rect x="632.85" y="2465.78" width="365.70" height="91.35" style="fill:none;stroke:#E37E00;stroke-width:8.64"/>
	<rect x="2203.24" y="2461.46" width="374.34" height="99.99" style="fill:#779159"/>
	<rect x="2207.56" y="2465.78" width="365.70" height="91.35" style="fill:none;stroke:#55752F;stroke-width:8.64"/>
	<rect x="628.53" y="2601.43" width="374.34" height="99.99" style="fill:#A65D62"/>
	<rect x="632.85" y="2605.75" width="365.70" height="91.35" style="fill:none;stroke:#90353B;stroke-width:8.64"/>
	<rect x="2203.24" y="2601.43" width="374.34" height="99.99" style="fill:#486C8C"/>
	<rect x="2207.56" y="2605.75" width="365.70" height="91.35" style="fill:none;stroke:#1A476F;stroke-width:8.64"/>
	<text x="1062.89" y="2126.47" style="font-family:'Helvetica';font-size:99.99px;fill:#000000">P(Y(t) = 1 | Y(90) = 9)</text>
	<text x="2637.61" y="2126.47" style="font-family:'Helvetica';font-size:99.99px;fill:#000000">P(Y(t) = 2 | Y(90) = 9)</text>
	<text x="1062.89" y="2266.43" style="font-family:'Helvetica';font-size:99.99px;fill:#000000">P(Y(t) = 3 | Y(90) = 9)</text>
	<text x="2637.61" y="2266.43" style="font-family:'Helvetica';font-size:99.99px;fill:#000000">P(Y(t) = 4 | Y(90) = 9)</text>
	<text x="1062.89" y="2406.52" style="font-family:'Helvetica';font-size:99.99px;fill:#000000">P(Y(t) = 5 | Y(90) = 9)</text>
	<text x="2637.61" y="2406.52" style="font-family:'Helvetica';font-size:99.99px;fill:#000000">P(Y(t) = 6 | Y(90) = 9)</text>
	<text x="1062.89" y="2546.49" style="font-family:'Helvetica';font-size:99.99px;fill:#000000">P(Y(t) = 7 | Y(90) = 9)</text>
	<text x="2637.61" y="2546.49" style="font-family:'Helvetica';font-size:99.99px;fill:#000000">P(Y(t) = 8 | Y(90) = 9)</text>
	<text x="1062.89" y="2686.46" style="font-family:'Helvetica';font-size:99.99px;fill:#000000">P(Y(t) = 9 | Y(90) = 9)</text>
	<text x="2637.61" y="2686.46" style="font-family:'Helvetica';font-size:99.99px;fill:#000000">P(Y(t) = 10 | Y(90) = 9)</text>
	<text x="2162.41" y="369.63" style="font-family:'Helvetica';font-size:110.01px;fill:#000000" text-anchor="middle">From DWCA3(9), Outpatient</text>
	<text x="2162.41" y="215.98" style="font-family:'Helvetica';font-size:139.96px;fill:#1E2D53" text-anchor="middle">P(Y(t) = b | Y(90) = 9, at1)</text>
</svg>
