<?xml version="1.0" encoding="UTF-8" standalone="no"?>
<!-- This is a Stata 16.1 generated SVG file (http://www.stata.com) -->

<svg version="1.1" width="5.50in" height="4.00in" viewBox="0 0 3960 2880" xmlns="http://www.w3.org/2000/svg" xmlns:xlink="http://www.w3.org/1999/xlink">
	<desc>Stata Graph - gh_2_1</desc>
	<rect x="0" y="0" width="3960" height="2880" style="fill:#EAF2F3;stroke:none"/>
	<rect x="0.00" y="0.00" width="3959.88" height="2880.00" style="fill:#FFFFFF"/>
	<rect x="2.88" y="2.88" width="3954.12" height="2874.24" style="fill:none;stroke:#EAF2F3;stroke-width:5.76"/>
	<rect x="465.80" y="419.90" width="3393.22" height="1533.81" style="fill:#FFFFFF"/>
	<rect x="468.67" y="422.78" width="3387.47" height="1528.05" style="fill:none;stroke:#FFFFFF;stroke-width:5.76"/>
	<line x1="465.80" y1="1800.37" x2="3859.02" y2="1800.37" style="stroke:#EAF2F3;stroke-width:8.64"/>
	<line x1="465.80" y1="1646.92" x2="3859.02" y2="1646.92" style="stroke:#EAF2F3;stroke-width:8.64"/>
	<line x1="465.80" y1="1493.59" x2="3859.02" y2="1493.59" style="stroke:#EAF2F3;stroke-width:8.64"/>
	<line x1="465.80" y1="1340.13" x2="3859.02" y2="1340.13" style="stroke:#EAF2F3;stroke-width:8.64"/>
	<line x1="465.80" y1="1186.80" x2="3859.02" y2="1186.80" style="stroke:#EAF2F3;stroke-width:8.64"/>
	<line x1="465.80" y1="1033.47" x2="3859.02" y2="1033.47" style="stroke:#EAF2F3;stroke-width:8.64"/>
	<line x1="465.80" y1="880.01" x2="3859.02" y2="880.01" style="stroke:#EAF2F3;stroke-width:8.64"/>
	<line x1="465.80" y1="726.68" x2="3859.02" y2="726.68" style="stroke:#EAF2F3;stroke-width:8.64"/>
	<line x1="465.80" y1="573.35" x2="3859.02" y2="573.35" style="stroke:#EAF2F3;stroke-width:8.64"/>
	<line x1="465.80" y1="419.90" x2="3859.02" y2="419.90" style="stroke:#EAF2F3;stroke-width:8.64"/>
	<defs>
		<path id="path_OlNKYYbp" d="M618.38 420.02 L618.38 420.02 L634.84 420.02 L651.30 420.02 L667.75 420.02 L684.21 420.02 L700.67 420.02 L717.13 420.02 L733.59 420.02 L750.05 420.02 L766.51 420.02 L782.97 420.02 L799.42 420.02 L815.88 420.02 L832.34 420.02 L848.80 420.02 L865.26 420.02 L881.72 420.02 L898.18 420.02 L914.64 420.02 L931.10 420.02 L947.55 420.02 L964.01 420.02 L980.47 420.02 L996.93 420.02 L1013.39 420.02 L1029.72 420.02 L1046.18 420.02 L1062.64 420.02 L1079.10 420.02 L1095.56 420.02 L1112.02 420.02 L1128.48 420.02 L1144.93 420.02 L1161.39 420.02 L1177.85 420.02 L1194.31 420.02 L1210.77 420.02 L1227.23 420.02 L1243.69 420.02 L1260.15 420.02 L1276.61 420.02 L1293.06 420.02 L1309.52 420.02 L1325.98 420.02 L1342.44 420.02 L1358.90 420.02 L1375.36 420.02 L1391.82 420.02 L1408.28 420.02 L1424.73 420.02 L1441.19 420.02 L1457.65 420.02 L1474.11 420.02 L1490.57 420.02 L1507.03 420.02 L1523.36 420.02 L1539.82 420.02 L1556.28 420.02 L1572.74 420.02 L1589.20 420.02 L1605.66 420.02 L1622.12 420.02 L1638.57 420.02 L1655.03 420.02 L1671.49 420.02 L1687.95 420.02 L1704.41 420.02 L1720.87 420.02 L1737.33 420.02 L1753.79 420.02 L1770.24 420.02 L1786.70 420.02 L1803.16 420.02 L1819.62 420.02 L1836.08 420.02 L1852.54 420.02 L1869.00 420.02 L1885.45 420.02 L1901.91 420.02 L1918.37 420.02 L1934.83 420.02 L1951.29 420.02 L1967.75 420.02 L1984.21 420.02 L2000.67 420.02 L2017.00 420.02 L2033.46 420.02 L2049.92 420.02 L2066.38 420.02 L2082.84 420.02 L2099.30 420.02 L2115.75 420.02 L2132.21 420.02 L2148.67 420.02 L2165.13 420.02 L2181.59 420.02 L2198.05 420.02 L2214.51 420.02 L2230.97 420.02 L2247.42 420.02 L2263.88 420.02 L2280.34 420.02 L2296.80 420.02 L2313.26 420.02 L2329.72 420.02 L2346.18 420.02 L2362.64 420.02 L2379.09 420.02 L2395.55 420.02 L2412.01 420.02 L2428.47 420.02 L2444.93 420.02 L2461.39 420.02 L2477.85 420.02 L2494.30 420.02 L2510.76 420.02 L2527.10 420.02 L2543.56 420.02 L2560.02 420.02 L2576.47 420.02 L2592.93 420.02 L2609.39 420.02 L2625.85 420.02 L2642.31 420.02 L2658.77 420.02 L2675.23 420.02 L2691.69 420.02 L2708.14 420.02 L2724.60 420.02 L2741.06 420.02 L2757.52 420.02 L2773.98 420.02 L2790.44 420.02 L2806.90 420.02 L2823.36 420.02 L2839.82 420.02 L2856.27 420.02 L2872.73 420.02 L2889.19 420.02 L2905.65 420.02 L2922.11 420.02 L2938.57 420.02 L2955.03 420.02 L2971.49 420.02 L2987.94 420.02 L3004.40 420.02 L3020.74 420.02 L3037.20 420.02 L3053.66 420.02 L3070.11 420.02 L3086.57 420.02 L3103.03 420.02 L3119.49 420.02 L3135.95 420.02 L3152.41 420.02 L3168.87 420.02 L3185.32 420.02 L3201.78 420.02 L3218.24 420.02 L3234.70 420.02 L3251.16 420.02 L3267.62 420.02 L3284.08 420.02 L3300.54 420.02 L3316.99 420.02 L3333.45 420.02 L3349.91 420.02 L3366.37 420.02 L3382.83 420.02 L3399.29 420.02 L3415.75 420.02 L3432.21 420.02 L3448.66 420.02 L3465.12 420.02 L3481.58 420.02 L3498.04 420.02 L3514.38 420.02 L3530.84 420.02 L3547.29 420.02 L3563.75 420.02 L3563.75 1953.70 L618.38 1953.70 L618.38 420.02 Z" stroke-linejoin="round"/>
	</defs>
	<defs>
		<clipPath id="clipPath_hgWkPdzt">
			<use xlink:href="#path_OlNKYYbp"/>
		</clipPath>
	</defs>
	<use xlink:href="#path_OlNKYYbp" style="stroke:none;fill:#486C8C"/>
	<use xlink:href="#path_OlNKYYbp" style="fill:none;stroke:#1A476F;stroke-width:17.28" clip-path="url(#clipPath_hgWkPdzt)"/>
	<defs>
		<path id="path_AEjCHUDl" d="M618.38 420.02 L618.38 420.02 L634.84 420.02 L651.30 420.02 L667.75 420.02 L684.21 420.02 L700.67 420.02 L717.13 420.02 L733.59 420.02 L750.05 420.02 L766.51 420.02 L782.97 420.02 L799.42 420.02 L815.88 420.02 L832.34 420.02 L848.80 420.02 L865.26 420.02 L881.72 420.02 L898.18 420.02 L914.64 420.02 L931.10 420.02 L947.55 420.02 L964.01 420.02 L980.47 420.02 L996.93 420.02 L1013.39 420.02 L1029.72 420.02 L1046.18 420.02 L1062.64 420.02 L1079.10 420.14 L1095.56 420.14 L1112.02 420.14 L1128.48 420.14 L1144.93 420.14 L1161.39 420.14 L1177.85 420.14 L1194.31 420.14 L1210.77 420.27 L1227.23 420.27 L1243.69 420.27 L1260.15 420.27 L1276.61 420.27 L1293.06 420.39 L1309.52 420.39 L1325.98 420.39 L1342.44 420.39 L1358.90 420.52 L1375.36 420.52 L1391.82 420.52 L1408.28 420.52 L1424.73 420.64 L1441.19 420.64 L1457.65 420.64 L1474.11 420.64 L1490.57 420.76 L1507.03 420.89 L1523.36 420.89 L1539.82 421.01 L1556.28 421.01 L1572.74 421.13 L1589.20 421.13 L1605.66 421.26 L1622.12 421.38 L1638.57 421.51 L1655.03 421.51 L1671.49 421.63 L1687.95 421.88 L1704.41 422.00 L1720.87 422.00 L1737.33 422.12 L1753.79 422.25 L1770.24 422.37 L1786.70 422.37 L1803.16 422.50 L1819.62 422.62 L1836.08 422.62 L1852.54 422.74 L1869.00 422.87 L1885.45 422.99 L1901.91 423.11 L1918.37 423.36 L1934.83 423.49 L1951.29 423.61 L1967.75 423.73 L1984.21 423.73 L2000.67 423.98 L2017.00 424.10 L2033.46 424.23 L2049.92 424.35 L2066.38 424.48 L2082.84 424.60 L2099.30 424.72 L2115.75 424.85 L2132.21 424.97 L2148.67 425.09 L2165.13 425.22 L2181.59 425.47 L2198.05 425.59 L2214.51 425.59 L2230.97 425.71 L2247.42 425.84 L2263.88 425.96 L2280.34 426.21 L2296.80 426.33 L2313.26 426.46 L2329.72 426.58 L2346.18 426.70 L2362.64 426.83 L2379.09 426.95 L2395.55 427.20 L2412.01 427.32 L2428.47 427.45 L2444.93 427.69 L2461.39 427.82 L2477.85 428.06 L2494.30 428.31 L2510.76 428.44 L2527.10 428.56 L2543.56 428.68 L2560.02 428.93 L2576.47 429.18 L2592.93 429.30 L2609.39 429.43 L2625.85 429.55 L2642.31 429.80 L2658.77 429.92 L2675.23 430.17 L2691.69 430.42 L2708.14 430.66 L2724.60 430.79 L2741.06 431.16 L2757.52 431.41 L2773.98 431.65 L2790.44 431.90 L2806.90 432.15 L2823.36 432.40 L2839.82 432.64 L2856.27 432.89 L2872.73 433.14 L2889.19 433.39 L2905.65 433.63 L2922.11 434.00 L2938.57 434.25 L2955.03 434.62 L2971.49 434.87 L2987.94 435.24 L3004.40 435.49 L3020.74 435.74 L3037.20 436.11 L3053.66 436.36 L3070.11 436.60 L3086.57 437.10 L3103.03 437.35 L3119.49 437.59 L3135.95 437.96 L3152.41 438.34 L3168.87 438.71 L3185.32 438.95 L3201.78 439.20 L3218.24 439.45 L3234.70 439.82 L3251.16 440.07 L3267.62 440.44 L3284.08 440.81 L3300.54 440.94 L3316.99 441.31 L3333.45 441.68 L3349.91 442.05 L3366.37 442.42 L3382.83 442.67 L3399.29 442.92 L3415.75 443.16 L3432.21 443.53 L3448.66 443.91 L3465.12 444.40 L3481.58 444.77 L3498.04 445.14 L3514.38 445.39 L3530.84 445.76 L3547.29 446.13 L3563.75 446.38 L3563.75 1953.70 L618.38 1953.70 L618.38 420.02 Z" stroke-linejoin="round"/>
	</defs>
	<defs>
		<clipPath id="clipPath_MEiJBgzn">
			<use xlink:href="#path_AEjCHUDl"/>
		</clipPath>
	</defs>
	<use xlink:href="#path_AEjCHUDl" style="stroke:none;fill:#A65D62"/>
	<use xlink:href="#path_AEjCHUDl" style="fill:none;stroke:#90353B;stroke-width:17.28" clip-path="url(#clipPath_MEiJBgzn)"/>
	<defs>
		<path id="path_FunYBqIW" d="M618.38 420.02 L618.38 420.02 L634.84 420.02 L651.30 420.02 L667.75 420.02 L684.21 420.02 L700.67 420.02 L717.13 420.02 L733.59 420.02 L750.05 420.02 L766.51 420.02 L782.97 420.14 L799.42 420.14 L815.88 420.14 L832.34 420.14 L848.80 420.14 L865.26 420.27 L881.72 420.39 L898.18 420.39 L914.64 420.52 L931.10 420.64 L947.55 420.64 L964.01 420.64 L980.47 420.76 L996.93 420.76 L1013.39 420.89 L1029.72 421.01 L1046.18 421.01 L1062.64 421.13 L1079.10 421.26 L1095.56 421.38 L1112.02 421.51 L1128.48 421.51 L1144.93 421.63 L1161.39 421.88 L1177.85 422.00 L1194.31 422.12 L1210.77 422.25 L1227.23 422.50 L1243.69 422.74 L1260.15 422.87 L1276.61 423.11 L1293.06 423.36 L1309.52 423.49 L1325.98 423.73 L1342.44 423.98 L1358.90 424.23 L1375.36 424.48 L1391.82 424.72 L1408.28 424.97 L1424.73 425.34 L1441.19 425.59 L1457.65 425.84 L1474.11 426.08 L1490.57 426.33 L1507.03 426.70 L1523.36 426.95 L1539.82 427.32 L1556.28 427.69 L1572.74 427.94 L1589.20 428.31 L1605.66 428.68 L1622.12 429.05 L1638.57 429.43 L1655.03 429.67 L1671.49 429.92 L1687.95 430.29 L1704.41 430.54 L1720.87 431.03 L1737.33 431.41 L1753.79 431.65 L1770.24 432.15 L1786.70 432.52 L1803.16 432.89 L1819.62 433.51 L1836.08 433.88 L1852.54 434.38 L1869.00 434.87 L1885.45 435.12 L1901.91 435.49 L1918.37 435.86 L1934.83 436.23 L1951.29 436.73 L1967.75 437.10 L1984.21 437.59 L2000.67 437.96 L2017.00 438.46 L2033.46 438.83 L2049.92 439.33 L2066.38 439.82 L2082.84 440.32 L2099.30 440.69 L2115.75 441.31 L2132.21 441.93 L2148.67 442.54 L2165.13 443.04 L2181.59 443.53 L2198.05 444.15 L2214.51 444.77 L2230.97 445.27 L2247.42 445.76 L2263.88 446.38 L2280.34 446.88 L2296.80 447.49 L2313.26 447.99 L2329.72 448.61 L2346.18 448.98 L2362.64 449.47 L2379.09 450.09 L2395.55 450.59 L2412.01 451.21 L2428.47 451.58 L2444.93 452.32 L2461.39 452.94 L2477.85 453.56 L2494.30 454.18 L2510.76 454.55 L2527.10 455.29 L2543.56 455.79 L2560.02 456.28 L2576.47 457.02 L2592.93 457.64 L2609.39 458.38 L2625.85 459.00 L2642.31 459.62 L2658.77 460.36 L2675.23 460.98 L2691.69 461.85 L2708.14 462.34 L2724.60 462.96 L2741.06 463.58 L2757.52 464.08 L2773.98 464.70 L2790.44 465.19 L2806.90 465.81 L2823.36 466.43 L2839.82 467.17 L2856.27 467.91 L2872.73 468.66 L2889.19 469.52 L2905.65 470.14 L2922.11 470.76 L2938.57 471.50 L2955.03 472.12 L2971.49 472.99 L2987.94 473.73 L3004.40 474.60 L3020.74 475.21 L3037.20 475.96 L3053.66 476.58 L3070.11 477.19 L3086.57 477.81 L3103.03 478.43 L3119.49 478.93 L3135.95 479.55 L3152.41 480.29 L3168.87 480.91 L3185.32 481.53 L3201.78 482.15 L3218.24 482.89 L3234.70 483.51 L3251.16 484.13 L3267.62 484.87 L3284.08 485.61 L3300.54 486.23 L3316.99 486.85 L3333.45 487.84 L3349.91 488.33 L3366.37 488.95 L3382.83 489.45 L3399.29 490.19 L3415.75 490.81 L3432.21 491.30 L3448.66 491.92 L3465.12 492.66 L3481.58 493.28 L3498.04 493.90 L3514.38 494.52 L3530.84 495.14 L3547.29 495.88 L3563.75 496.50 L3563.75 1953.70 L618.38 1953.70 L618.38 420.02 Z" stroke-linejoin="round"/>
	</defs>
	<defs>
		<clipPath id="clipPath_ILDlfjkl">
			<use xlink:href="#path_FunYBqIW"/>
		</clipPath>
	</defs>
	<use xlink:href="#path_FunYBqIW" style="stroke:none;fill:#779159"/>
	<use xlink:href="#path_FunYBqIW" style="fill:none;stroke:#55752F;stroke-width:17.28" clip-path="url(#clipPath_ILDlfjkl)"/>
	<defs>
		<path id="path_MEEhZZPd" d="M618.38 420.27 L618.38 420.27 L634.84 420.52 L651.30 420.76 L667.75 421.01 L684.21 421.26 L700.67 421.51 L717.13 421.88 L733.59 422.25 L750.05 422.62 L766.51 423.11 L782.97 423.86 L799.42 424.48 L815.88 425.09 L832.34 425.71 L848.80 426.46 L865.26 427.32 L881.72 427.94 L898.18 428.93 L914.64 429.92 L931.10 430.91 L947.55 431.78 L964.01 432.89 L980.47 433.76 L996.93 434.87 L1013.39 435.98 L1029.72 436.97 L1046.18 437.96 L1062.64 438.83 L1079.10 439.94 L1095.56 441.06 L1112.02 442.30 L1128.48 443.29 L1144.93 444.40 L1161.39 445.51 L1177.85 446.63 L1194.31 447.49 L1210.77 448.73 L1227.23 449.85 L1243.69 451.33 L1260.15 452.44 L1276.61 453.68 L1293.06 455.04 L1309.52 456.53 L1325.98 457.64 L1342.44 458.88 L1358.90 460.36 L1375.36 461.60 L1391.82 462.96 L1408.28 464.57 L1424.73 466.06 L1441.19 467.42 L1457.65 468.78 L1474.11 470.14 L1490.57 471.50 L1507.03 472.74 L1523.36 474.10 L1539.82 475.46 L1556.28 476.95 L1572.74 478.43 L1589.20 479.79 L1605.66 481.03 L1622.12 482.52 L1638.57 484.00 L1655.03 485.73 L1671.49 487.10 L1687.95 488.83 L1704.41 490.07 L1720.87 491.67 L1737.33 492.79 L1753.79 494.27 L1770.24 496.13 L1786.70 497.49 L1803.16 498.98 L1819.62 500.58 L1836.08 502.07 L1852.54 503.55 L1869.00 504.92 L1885.45 506.15 L1901.91 508.13 L1918.37 509.49 L1934.83 510.86 L1951.29 512.34 L1967.75 513.83 L1984.21 515.06 L2000.67 516.55 L2017.00 517.79 L2033.46 519.02 L2049.92 520.39 L2066.38 521.75 L2082.84 523.36 L2099.30 525.09 L2115.75 526.57 L2132.21 527.93 L2148.67 529.42 L2165.13 530.78 L2181.59 532.27 L2198.05 533.63 L2214.51 535.11 L2230.97 536.47 L2247.42 537.96 L2263.88 539.81 L2280.34 541.30 L2296.80 542.66 L2313.26 544.02 L2329.72 545.75 L2346.18 547.24 L2362.64 548.60 L2379.09 549.96 L2395.55 551.45 L2412.01 553.06 L2428.47 554.66 L2444.93 556.15 L2461.39 557.63 L2477.85 559.00 L2494.30 560.48 L2510.76 561.84 L2527.10 563.20 L2543.56 564.57 L2560.02 565.93 L2576.47 567.29 L2592.93 568.65 L2609.39 570.01 L2625.85 571.25 L2642.31 572.61 L2658.77 573.97 L2675.23 575.33 L2691.69 576.32 L2708.14 577.68 L2724.60 578.92 L2741.06 580.28 L2757.52 581.52 L2773.98 582.88 L2790.44 583.99 L2806.90 585.60 L2823.36 586.96 L2839.82 588.33 L2856.27 589.93 L2872.73 591.30 L2889.19 592.53 L2905.65 593.77 L2922.11 594.88 L2938.57 596.00 L2955.03 597.11 L2971.49 598.47 L2987.94 599.59 L3004.40 600.95 L3020.74 602.31 L3037.20 603.67 L3053.66 604.79 L3070.11 606.27 L3086.57 607.76 L3103.03 608.99 L3119.49 610.11 L3135.95 611.47 L3152.41 612.83 L3168.87 614.07 L3185.32 615.18 L3201.78 616.42 L3218.24 617.53 L3234.70 619.02 L3251.16 620.38 L3267.62 621.74 L3284.08 623.10 L3300.54 624.34 L3316.99 625.58 L3333.45 626.94 L3349.91 628.17 L3366.37 629.54 L3382.83 630.90 L3399.29 632.13 L3415.75 633.25 L3432.21 634.73 L3448.66 635.60 L3465.12 637.08 L3481.58 638.57 L3498.04 639.81 L3514.38 641.05 L3530.84 642.16 L3547.29 643.27 L3563.75 644.51 L3563.75 1953.70 L618.38 1953.70 L618.38 420.27 Z" stroke-linejoin="round"/>
	</defs>
	<defs>
		<clipPath id="clipPath_VtywQqfn">
			<use xlink:href="#path_MEEhZZPd"/>
		</clipPath>
	</defs>
	<use xlink:href="#path_MEEhZZPd" style="stroke:none;fill:#E99833"/>
	<use xlink:href="#path_MEEhZZPd" style="fill:none;stroke:#E37E00;stroke-width:17.28" clip-path="url(#clipPath_VtywQqfn)"/>
	<defs>
		<path id="path_cRMunvNk" d="M618.38 464.20 L618.38 464.20 L634.84 471.75 L651.30 480.04 L667.75 488.46 L684.21 496.50 L700.67 504.30 L717.13 511.97 L733.59 520.14 L750.05 528.18 L766.51 535.61 L782.97 543.16 L799.42 550.33 L815.88 558.13 L832.34 565.18 L848.80 571.99 L865.26 578.80 L881.72 585.36 L898.18 592.90 L914.64 599.71 L931.10 606.64 L947.55 612.33 L964.01 619.26 L980.47 625.45 L996.93 631.52 L1013.39 637.58 L1029.72 644.02 L1046.18 650.20 L1062.64 655.52 L1079.10 662.21 L1095.56 668.15 L1112.02 673.10 L1128.48 678.79 L1144.93 684.11 L1161.39 689.80 L1177.85 694.88 L1194.31 700.08 L1210.77 705.03 L1227.23 710.22 L1243.69 715.30 L1260.15 720.50 L1276.61 725.45 L1293.06 730.02 L1309.52 734.97 L1325.98 739.55 L1342.44 743.76 L1358.90 748.22 L1375.36 752.55 L1391.82 756.88 L1408.28 760.84 L1424.73 764.80 L1441.19 768.88 L1457.65 773.46 L1474.11 777.55 L1490.57 781.13 L1507.03 785.34 L1523.36 788.31 L1539.82 792.02 L1556.28 795.98 L1572.74 799.94 L1589.20 803.53 L1605.66 806.75 L1622.12 810.34 L1638.57 813.68 L1655.03 817.02 L1671.49 820.61 L1687.95 823.58 L1704.41 826.80 L1720.87 830.02 L1737.33 833.23 L1753.79 836.33 L1770.24 839.67 L1786.70 842.64 L1803.16 845.73 L1819.62 848.95 L1836.08 852.17 L1852.54 854.89 L1869.00 858.11 L1885.45 861.33 L1901.91 863.93 L1918.37 866.90 L1934.83 869.74 L1951.29 872.71 L1967.75 875.19 L1984.21 878.03 L2000.67 880.76 L2017.00 883.73 L2033.46 886.57 L2049.92 889.30 L2066.38 891.77 L2082.84 894.49 L2099.30 897.09 L2115.75 899.81 L2132.21 902.91 L2148.67 905.88 L2165.13 908.60 L2181.59 911.45 L2198.05 913.92 L2214.51 916.15 L2230.97 918.75 L2247.42 921.35 L2263.88 923.82 L2280.34 926.55 L2296.80 929.02 L2313.26 931.37 L2329.72 933.60 L2346.18 935.70 L2362.64 937.93 L2379.09 940.03 L2395.55 942.14 L2412.01 943.99 L2428.47 945.97 L2444.93 948.20 L2461.39 950.43 L2477.85 952.41 L2494.30 954.88 L2510.76 956.74 L2527.10 958.72 L2543.56 960.83 L2560.02 963.05 L2576.47 965.16 L2592.93 967.26 L2609.39 969.12 L2625.85 971.10 L2642.31 973.08 L2658.77 975.06 L2675.23 977.04 L2691.69 978.65 L2708.14 980.50 L2724.60 982.23 L2741.06 984.09 L2757.52 986.07 L2773.98 988.05 L2790.44 989.78 L2806.90 991.52 L2823.36 993.25 L2839.82 994.86 L2856.27 996.84 L2872.73 998.32 L2889.19 999.93 L2905.65 1001.66 L2922.11 1003.77 L2938.57 1005.62 L2955.03 1007.60 L2971.49 1009.09 L2987.94 1011.07 L3004.40 1012.55 L3020.74 1014.41 L3037.20 1015.90 L3053.66 1017.50 L3070.11 1019.11 L3086.57 1020.47 L3103.03 1022.33 L3119.49 1024.06 L3135.95 1025.80 L3152.41 1027.78 L3168.87 1029.76 L3185.32 1031.36 L3201.78 1032.97 L3218.24 1034.71 L3234.70 1036.44 L3251.16 1038.17 L3267.62 1039.78 L3284.08 1041.27 L3300.54 1042.87 L3316.99 1044.61 L3333.45 1046.34 L3349.91 1047.70 L3366.37 1048.94 L3382.83 1050.42 L3399.29 1051.78 L3415.75 1053.39 L3432.21 1054.88 L3448.66 1056.36 L3465.12 1057.85 L3481.58 1059.33 L3498.04 1060.82 L3514.38 1062.18 L3530.84 1063.54 L3547.29 1065.15 L3563.75 1066.63 L3563.75 1953.70 L618.38 1953.70 L618.38 464.20 Z" stroke-linejoin="round"/>
	</defs>
	<defs>
		<clipPath id="clipPath_RvNodzOT">
			<use xlink:href="#path_cRMunvNk"/>
		</clipPath>
	</defs>
	<use xlink:href="#path_cRMunvNk" style="stroke:none;fill:#8BA59D"/>
	<use xlink:href="#path_cRMunvNk" style="fill:none;stroke:#6E8E84;stroke-width:17.28" clip-path="url(#clipPath_RvNodzOT)"/>
	<line x1="465.80" y1="1953.70" x2="465.80" y2="419.90" style="stroke:#000000;stroke-width:5.76"/>
	<line x1="465.80" y1="1953.70" x2="425.82" y2="1953.70" style="stroke:#000000;stroke-width:5.76"/>
	<text x="405.78" y="1988.73" style="font-family:'Helvetica';font-size:99.99px;fill:#000000" text-anchor="end">0.0</text>
	<line x1="465.80" y1="1800.37" x2="425.82" y2="1800.37" style="stroke:#000000;stroke-width:5.76"/>
	<text x="405.78" y="1835.40" style="font-family:'Helvetica';font-size:99.99px;fill:#000000" text-anchor="end">0.1</text>
	<line x1="465.80" y1="1646.92" x2="425.82" y2="1646.92" style="stroke:#000000;stroke-width:5.76"/>
	<text x="405.78" y="1681.94" style="font-family:'Helvetica';font-size:99.99px;fill:#000000" text-anchor="end">0.2</text>
	<line x1="465.80" y1="1493.59" x2="425.82" y2="1493.59" style="stroke:#000000;stroke-width:5.76"/>
	<text x="405.78" y="1528.61" style="font-family:'Helvetica';font-size:99.99px;fill:#000000" text-anchor="end">0.3</text>
	<line x1="465.80" y1="1340.13" x2="425.82" y2="1340.13" style="stroke:#000000;stroke-width:5.76"/>
	<text x="405.78" y="1375.16" style="font-family:'Helvetica';font-size:99.99px;fill:#000000" text-anchor="end">0.4</text>
	<line x1="465.80" y1="1186.80" x2="425.82" y2="1186.80" style="stroke:#000000;stroke-width:5.76"/>
	<text x="405.78" y="1221.83" style="font-family:'Helvetica';font-size:99.99px;fill:#000000" text-anchor="end">0.5</text>
	<line x1="465.80" y1="1033.47" x2="425.82" y2="1033.47" style="stroke:#000000;stroke-width:5.76"/>
	<text x="405.78" y="1068.50" style="font-family:'Helvetica';font-size:99.99px;fill:#000000" text-anchor="end">0.6</text>
	<line x1="465.80" y1="880.01" x2="425.82" y2="880.01" style="stroke:#000000;stroke-width:5.76"/>
	<text x="405.78" y="915.04" style="font-family:'Helvetica';font-size:99.99px;fill:#000000" text-anchor="end">0.7</text>
	<line x1="465.80" y1="726.68" x2="425.82" y2="726.68" style="stroke:#000000;stroke-width:5.76"/>
	<text x="405.78" y="761.71" style="font-family:'Helvetica';font-size:99.99px;fill:#000000" text-anchor="end">0.8</text>
	<line x1="465.80" y1="573.35" x2="425.82" y2="573.35" style="stroke:#000000;stroke-width:5.76"/>
	<text x="405.78" y="608.38" style="font-family:'Helvetica';font-size:99.99px;fill:#000000" text-anchor="end">0.9</text>
	<line x1="465.80" y1="419.90" x2="425.82" y2="419.90" style="stroke:#000000;stroke-width:5.76"/>
	<text x="405.78" y="454.93" style="font-family:'Helvetica';font-size:99.99px;fill:#000000" text-anchor="end">1.0</text>
	<text x="190.71" y="1186.80" style="font-family:'Helvetica';font-size:99.99px;fill:#000000" transform="rotate(-90 190.71,1186.80)" text-anchor="middle">Transition Probability</text>
	<line x1="465.80" y1="1953.70" x2="3859.02" y2="1953.70" style="stroke:#000000;stroke-width:5.76"/>
	<line x1="465.80" y1="1953.70" x2="465.80" y2="1993.67" style="stroke:#000000;stroke-width:5.76"/>
	<text x="465.80" y="2083.66" style="font-family:'Helvetica';font-size:99.99px;fill:#000000" text-anchor="middle">0</text>
	<line x1="1314.10" y1="1953.70" x2="1314.10" y2="1993.67" style="stroke:#000000;stroke-width:5.76"/>
	<text x="1314.10" y="2083.66" style="font-family:'Helvetica';font-size:99.99px;fill:#000000" text-anchor="middle">500</text>
	<line x1="2162.41" y1="1953.70" x2="2162.41" y2="1993.67" style="stroke:#000000;stroke-width:5.76"/>
	<text x="2162.41" y="2083.66" style="font-family:'Helvetica';font-size:99.99px;fill:#000000" text-anchor="middle">1000</text>
	<line x1="3010.71" y1="1953.70" x2="3010.71" y2="1993.67" style="stroke:#000000;stroke-width:5.76"/>
	<text x="3010.71" y="2083.66" style="font-family:'Helvetica';font-size:99.99px;fill:#000000" text-anchor="middle">1500</text>
	<line x1="3859.02" y1="1953.70" x2="3859.02" y2="1993.67" style="stroke:#000000;stroke-width:5.76"/>
	<text x="3859.02" y="2083.66" style="font-family:'Helvetica';font-size:99.99px;fill:#000000" text-anchor="middle">2000</text>
	<text x="2162.41" y="2193.67" style="font-family:'Helvetica';font-size:99.99px;fill:#000000" text-anchor="middle">Follow-up time</text>
	<rect x="614.42" y="2278.31" width="3095.98" height="466.30" style="fill:#FFFFFF"/>
	<rect x="617.30" y="2281.19" width="3090.22" height="460.54" style="fill:none;stroke:#000000;stroke-width:5.76"/>
	<rect x="657.61" y="2321.50" width="374.47" height="99.99" style="fill:#8BA59D"/>
	<rect x="661.93" y="2325.82" width="365.83" height="91.35" style="fill:none;stroke:#6E8E84;stroke-width:8.64"/>
	<rect x="2232.45" y="2321.50" width="374.34" height="99.99" style="fill:#E99833"/>
	<rect x="2236.77" y="2325.82" width="365.70" height="91.35" style="fill:none;stroke:#E37E00;stroke-width:8.64"/>
	<rect x="657.61" y="2461.46" width="374.47" height="99.99" style="fill:#779159"/>
	<rect x="661.93" y="2465.78" width="365.83" height="91.35" style="fill:none;stroke:#55752F;stroke-width:8.64"/>
	<rect x="2232.45" y="2461.46" width="374.34" height="99.99" style="fill:#A65D62"/>
	<rect x="2236.77" y="2465.78" width="365.70" height="91.35" style="fill:none;stroke:#90353B;stroke-width:8.64"/>
	<rect x="657.61" y="2601.43" width="374.47" height="99.99" style="fill:#486C8C"/>
	<rect x="661.93" y="2605.75" width="365.83" height="91.35" style="fill:none;stroke:#1A476F;stroke-width:8.64"/>
	<text x="1092.09" y="2406.52" style="font-family:'Helvetica';font-size:99.99px;fill:#000000">P(Y(t) = 1 | Y(90) = 1)</text>
	<text x="2666.81" y="2406.52" style="font-family:'Helvetica';font-size:99.99px;fill:#000000">P(Y(t) = 2 | Y(90) = 1)</text>
	<text x="1092.09" y="2546.49" style="font-family:'Helvetica';font-size:99.99px;fill:#000000">P(Y(t) = 3 | Y(90) = 1)</text>
	<text x="2666.81" y="2546.49" style="font-family:'Helvetica';font-size:99.99px;fill:#000000">P(Y(t) = 4 | Y(90) = 1)</text>
	<text x="1092.09" y="2686.46" style="font-family:'Helvetica';font-size:99.99px;fill:#000000">P(Y(t) = 5 | Y(90) = 1)</text>
	<text x="2162.41" y="369.63" style="font-family:'Helvetica';font-size:110.01px;fill:#000000" text-anchor="middle">From Admission(1), Residential</text>
	<text x="2162.41" y="215.98" style="font-family:'Helvetica';font-size:139.96px;fill:#1E2D53" text-anchor="middle">P(Y(t) = b | Y(90) = 1, at2)</text>
</svg>
