<?xml version="1.0" encoding="UTF-8" standalone="no"?>
<!-- This is a Stata 16.1 generated SVG file (http://www.stata.com) -->

<svg version="1.1" width="5.50in" height="4.00in" viewBox="0 0 3960 2880" xmlns="http://www.w3.org/2000/svg" xmlns:xlink="http://www.w3.org/1999/xlink">
	<desc>Stata Graph - gh_1_8</desc>
	<rect x="0" y="0" width="3960" height="2880" style="fill:#EAF2F3;stroke:none"/>
	<rect x="0.00" y="0.00" width="3959.88" height="2880.00" style="fill:#FFFFFF"/>
	<rect x="2.88" y="2.88" width="3954.12" height="2874.24" style="fill:none;stroke:#EAF2F3;stroke-width:5.76"/>
	<rect x="465.80" y="419.90" width="3393.22" height="1253.75" style="fill:#FFFFFF"/>
	<rect x="468.67" y="422.78" width="3387.47" height="1247.99" style="fill:none;stroke:#FFFFFF;stroke-width:5.76"/>
	<line x1="465.80" y1="1673.65" x2="3859.02" y2="1673.65" style="stroke:#EAF2F3;stroke-width:8.64"/>
	<line x1="465.80" y1="1548.28" x2="3859.02" y2="1548.28" style="stroke:#EAF2F3;stroke-width:8.64"/>
	<line x1="465.80" y1="1422.92" x2="3859.02" y2="1422.92" style="stroke:#EAF2F3;stroke-width:8.64"/>
	<line x1="465.80" y1="1297.56" x2="3859.02" y2="1297.56" style="stroke:#EAF2F3;stroke-width:8.64"/>
	<line x1="465.80" y1="1172.20" x2="3859.02" y2="1172.20" style="stroke:#EAF2F3;stroke-width:8.64"/>
	<line x1="465.80" y1="1046.83" x2="3859.02" y2="1046.83" style="stroke:#EAF2F3;stroke-width:8.64"/>
	<line x1="465.80" y1="921.47" x2="3859.02" y2="921.47" style="stroke:#EAF2F3;stroke-width:8.64"/>
	<line x1="465.80" y1="796.11" x2="3859.02" y2="796.11" style="stroke:#EAF2F3;stroke-width:8.64"/>
	<line x1="465.80" y1="670.62" x2="3859.02" y2="670.62" style="stroke:#EAF2F3;stroke-width:8.64"/>
	<line x1="465.80" y1="545.26" x2="3859.02" y2="545.26" style="stroke:#EAF2F3;stroke-width:8.64"/>
	<line x1="465.80" y1="419.90" x2="3859.02" y2="419.90" style="stroke:#EAF2F3;stroke-width:8.64"/>
	<defs>
		<path id="path_VwBoiEas" d="M618.38 420.02 L618.38 420.02 L634.84 420.02 L651.30 420.02 L667.75 420.02 L684.21 420.02 L700.67 420.02 L717.13 420.02 L733.59 420.02 L750.05 420.02 L766.51 420.02 L782.97 420.02 L799.42 420.02 L815.88 420.02 L832.34 420.02 L848.80 420.02 L865.26 420.02 L881.72 420.02 L898.18 420.02 L914.64 420.02 L931.10 420.02 L947.55 420.02 L964.01 420.02 L980.47 420.02 L996.93 420.02 L1013.39 420.02 L1029.72 420.02 L1046.18 420.02 L1062.64 420.02 L1079.10 420.02 L1095.56 420.02 L1112.02 420.02 L1128.48 420.02 L1144.93 420.02 L1161.39 420.02 L1177.85 420.02 L1194.31 420.02 L1210.77 420.02 L1227.23 420.02 L1243.69 420.02 L1260.15 420.02 L1276.61 420.02 L1293.06 420.02 L1309.52 420.02 L1325.98 420.02 L1342.44 420.02 L1358.90 420.02 L1375.36 420.02 L1391.82 420.02 L1408.28 420.02 L1424.73 420.02 L1441.19 420.02 L1457.65 420.02 L1474.11 420.02 L1490.57 420.02 L1507.03 420.02 L1523.36 420.02 L1539.82 420.02 L1556.28 420.02 L1572.74 420.02 L1589.20 420.02 L1605.66 420.02 L1622.12 420.02 L1638.57 420.02 L1655.03 420.02 L1671.49 420.02 L1687.95 420.02 L1704.41 420.02 L1720.87 420.02 L1737.33 420.02 L1753.79 420.02 L1770.24 420.02 L1786.70 420.02 L1803.16 420.02 L1819.62 420.02 L1836.08 420.02 L1852.54 420.02 L1869.00 420.02 L1885.45 420.02 L1901.91 420.02 L1918.37 420.02 L1934.83 420.02 L1951.29 420.02 L1967.75 420.02 L1984.21 420.02 L2000.67 420.02 L2017.00 420.02 L2033.46 420.02 L2049.92 420.02 L2066.38 420.02 L2082.84 420.02 L2099.30 420.02 L2115.75 420.02 L2132.21 420.02 L2148.67 420.02 L2165.13 420.02 L2181.59 420.02 L2198.05 420.02 L2214.51 420.02 L2230.97 420.02 L2247.42 420.02 L2263.88 420.02 L2280.34 420.02 L2296.80 420.02 L2313.26 420.02 L2329.72 420.02 L2346.18 420.02 L2362.64 420.02 L2379.09 420.02 L2395.55 420.02 L2412.01 420.02 L2428.47 420.02 L2444.93 420.02 L2461.39 420.02 L2477.85 420.02 L2494.30 420.02 L2510.76 420.02 L2527.10 420.02 L2543.56 420.02 L2560.02 420.02 L2576.47 420.02 L2592.93 420.02 L2609.39 420.02 L2625.85 420.02 L2642.31 420.02 L2658.77 420.02 L2675.23 420.02 L2691.69 420.02 L2708.14 420.02 L2724.60 420.02 L2741.06 420.02 L2757.52 420.02 L2773.98 420.02 L2790.44 420.02 L2806.90 420.02 L2823.36 420.02 L2839.82 420.02 L2856.27 420.02 L2872.73 420.02 L2889.19 420.02 L2905.65 420.02 L2922.11 420.02 L2938.57 420.02 L2955.03 420.02 L2971.49 420.02 L2987.94 420.02 L3004.40 420.02 L3020.74 420.02 L3037.20 420.02 L3053.66 420.02 L3070.11 420.02 L3086.57 420.02 L3103.03 420.02 L3119.49 420.02 L3135.95 420.02 L3152.41 420.02 L3168.87 420.02 L3185.32 420.02 L3201.78 420.02 L3218.24 420.02 L3234.70 420.02 L3251.16 420.02 L3267.62 420.02 L3284.08 420.02 L3300.54 420.02 L3316.99 420.02 L3333.45 420.02 L3349.91 420.02 L3366.37 420.02 L3382.83 420.02 L3399.29 420.02 L3415.75 420.02 L3432.21 420.02 L3448.66 420.02 L3465.12 420.02 L3481.58 420.02 L3498.04 420.02 L3514.38 420.02 L3530.84 420.02 L3547.29 420.02 L3563.75 420.02 L3563.75 1673.77 L618.38 1673.77 L618.38 420.02 Z" stroke-linejoin="round"/>
	</defs>
	<defs>
		<clipPath id="clipPath_kRsyTjHJ">
			<use xlink:href="#path_VwBoiEas"/>
		</clipPath>
	</defs>
	<use xlink:href="#path_VwBoiEas" style="stroke:none;fill:#486C8C"/>
	<use xlink:href="#path_VwBoiEas" style="fill:none;stroke:#1A476F;stroke-width:17.28" clip-path="url(#clipPath_kRsyTjHJ)"/>
	<defs>
		<path id="path_JrJBBYef" d="M618.38 521.00 L618.38 521.00 L634.84 529.42 L651.30 536.97 L667.75 544.76 L684.21 551.94 L700.67 559.61 L717.13 567.29 L733.59 573.97 L750.05 580.90 L766.51 587.71 L782.97 594.27 L799.42 600.70 L815.88 606.89 L832.34 613.57 L848.80 619.76 L865.26 625.95 L881.72 632.38 L898.18 638.32 L914.64 643.77 L931.10 649.58 L947.55 654.66 L964.01 660.23 L980.47 665.80 L996.93 670.99 L1013.39 675.94 L1029.72 681.27 L1046.18 686.09 L1062.64 691.17 L1079.10 695.99 L1095.56 700.69 L1112.02 705.40 L1128.48 709.60 L1144.93 713.94 L1161.39 718.39 L1177.85 722.60 L1194.31 727.18 L1210.77 731.63 L1227.23 736.21 L1243.69 740.67 L1260.15 745.12 L1276.61 749.70 L1293.06 753.41 L1309.52 757.74 L1325.98 761.83 L1342.44 766.16 L1358.90 769.87 L1375.36 773.96 L1391.82 777.67 L1408.28 781.51 L1424.73 784.97 L1441.19 788.44 L1457.65 791.78 L1474.11 795.24 L1490.57 798.95 L1507.03 802.54 L1523.36 805.89 L1539.82 809.10 L1556.28 812.32 L1572.74 815.66 L1589.20 819.00 L1605.66 822.10 L1622.12 825.44 L1638.57 828.41 L1655.03 831.38 L1671.49 834.22 L1687.95 837.32 L1704.41 840.29 L1720.87 843.75 L1737.33 846.60 L1753.79 849.82 L1770.24 852.91 L1786.70 855.51 L1803.16 858.23 L1819.62 861.33 L1836.08 864.05 L1852.54 867.02 L1869.00 869.74 L1885.45 872.46 L1901.91 875.31 L1918.37 878.16 L1934.83 880.76 L1951.29 883.60 L1967.75 886.08 L1984.21 888.55 L2000.67 891.15 L2017.00 894.00 L2033.46 896.60 L2049.92 899.20 L2066.38 901.79 L2082.84 904.52 L2099.30 906.99 L2115.75 909.47 L2132.21 912.31 L2148.67 914.42 L2165.13 917.02 L2181.59 919.37 L2198.05 921.35 L2214.51 923.70 L2230.97 926.05 L2247.42 927.91 L2263.88 930.51 L2280.34 932.86 L2296.80 934.84 L2313.26 937.19 L2329.72 939.29 L2346.18 941.27 L2362.64 943.62 L2379.09 945.97 L2395.55 948.08 L2412.01 949.93 L2428.47 952.29 L2444.93 954.51 L2461.39 956.62 L2477.85 958.97 L2494.30 960.95 L2510.76 963.05 L2527.10 965.16 L2543.56 967.01 L2560.02 968.99 L2576.47 971.10 L2592.93 972.58 L2609.39 974.56 L2625.85 976.67 L2642.31 978.27 L2658.77 980.25 L2675.23 982.36 L2691.69 984.21 L2708.14 986.19 L2724.60 988.17 L2741.06 990.03 L2757.52 992.01 L2773.98 994.11 L2790.44 995.85 L2806.90 997.95 L2823.36 999.93 L2839.82 1002.04 L2856.27 1003.77 L2872.73 1005.25 L2889.19 1007.36 L2905.65 1009.21 L2922.11 1010.82 L2938.57 1012.55 L2955.03 1014.16 L2971.49 1015.65 L2987.94 1017.26 L3004.40 1018.87 L3020.74 1020.23 L3037.20 1021.71 L3053.66 1023.57 L3070.11 1024.93 L3086.57 1026.41 L3103.03 1028.27 L3119.49 1029.76 L3135.95 1030.99 L3152.41 1032.73 L3168.87 1034.33 L3185.32 1036.07 L3201.78 1037.55 L3218.24 1039.16 L3234.70 1040.89 L3251.16 1042.26 L3267.62 1043.86 L3284.08 1045.47 L3300.54 1046.96 L3316.99 1048.69 L3333.45 1050.42 L3349.91 1051.66 L3366.37 1053.15 L3382.83 1054.63 L3399.29 1056.12 L3415.75 1057.48 L3432.21 1058.84 L3448.66 1060.45 L3465.12 1062.06 L3481.58 1063.54 L3498.04 1064.78 L3514.38 1066.63 L3530.84 1067.87 L3547.29 1069.11 L3563.75 1070.59 L3563.75 1673.77 L618.38 1673.77 L618.38 521.00 Z" stroke-linejoin="round"/>
	</defs>
	<defs>
		<clipPath id="clipPath_dASFGBYX">
			<use xlink:href="#path_JrJBBYef"/>
		</clipPath>
	</defs>
	<use xlink:href="#path_JrJBBYef" style="stroke:none;fill:#A65D62"/>
	<use xlink:href="#path_JrJBBYef" style="fill:none;stroke:#90353B;stroke-width:17.28" clip-path="url(#clipPath_dASFGBYX)"/>
	<defs>
		<path id="path_lBBkUiXg" d="M618.38 521.00 L618.38 521.00 L634.84 529.42 L651.30 536.97 L667.75 544.76 L684.21 551.94 L700.67 559.61 L717.13 567.29 L733.59 573.97 L750.05 580.90 L766.51 587.71 L782.97 594.27 L799.42 600.70 L815.88 606.89 L832.34 613.57 L848.80 619.76 L865.26 625.95 L881.72 632.38 L898.18 638.32 L914.64 643.77 L931.10 649.58 L947.55 654.66 L964.01 660.23 L980.47 665.80 L996.93 670.99 L1013.39 675.94 L1029.72 681.27 L1046.18 686.09 L1062.64 691.17 L1079.10 695.99 L1095.56 700.69 L1112.02 705.40 L1128.48 709.60 L1144.93 713.94 L1161.39 718.39 L1177.85 722.60 L1194.31 727.18 L1210.77 731.63 L1227.23 736.21 L1243.69 740.67 L1260.15 745.12 L1276.61 749.70 L1293.06 753.41 L1309.52 757.74 L1325.98 761.83 L1342.44 766.16 L1358.90 769.87 L1375.36 773.96 L1391.82 777.67 L1408.28 781.51 L1424.73 784.97 L1441.19 788.44 L1457.65 791.78 L1474.11 795.24 L1490.57 798.95 L1507.03 802.54 L1523.36 805.89 L1539.82 809.10 L1556.28 812.32 L1572.74 815.66 L1589.20 819.00 L1605.66 822.10 L1622.12 825.44 L1638.57 828.41 L1655.03 831.38 L1671.49 834.22 L1687.95 837.32 L1704.41 840.29 L1720.87 843.75 L1737.33 846.60 L1753.79 849.82 L1770.24 852.91 L1786.70 855.51 L1803.16 858.23 L1819.62 861.33 L1836.08 864.05 L1852.54 867.02 L1869.00 869.74 L1885.45 872.46 L1901.91 875.31 L1918.37 878.16 L1934.83 880.76 L1951.29 883.60 L1967.75 886.08 L1984.21 888.55 L2000.67 891.15 L2017.00 894.00 L2033.46 896.60 L2049.92 899.20 L2066.38 901.79 L2082.84 904.52 L2099.30 906.99 L2115.75 909.47 L2132.21 912.31 L2148.67 914.42 L2165.13 917.02 L2181.59 919.37 L2198.05 921.35 L2214.51 923.70 L2230.97 926.05 L2247.42 927.91 L2263.88 930.51 L2280.34 932.86 L2296.80 934.84 L2313.26 937.19 L2329.72 939.29 L2346.18 941.27 L2362.64 943.62 L2379.09 945.97 L2395.55 948.08 L2412.01 949.93 L2428.47 952.29 L2444.93 954.51 L2461.39 956.62 L2477.85 958.97 L2494.30 960.95 L2510.76 963.05 L2527.10 965.16 L2543.56 967.01 L2560.02 968.99 L2576.47 971.10 L2592.93 972.58 L2609.39 974.56 L2625.85 976.67 L2642.31 978.27 L2658.77 980.25 L2675.23 982.36 L2691.69 984.21 L2708.14 986.19 L2724.60 988.17 L2741.06 990.03 L2757.52 992.01 L2773.98 994.11 L2790.44 995.85 L2806.90 997.95 L2823.36 999.93 L2839.82 1002.04 L2856.27 1003.77 L2872.73 1005.25 L2889.19 1007.36 L2905.65 1009.21 L2922.11 1010.82 L2938.57 1012.55 L2955.03 1014.16 L2971.49 1015.65 L2987.94 1017.26 L3004.40 1018.87 L3020.74 1020.23 L3037.20 1021.71 L3053.66 1023.57 L3070.11 1024.93 L3086.57 1026.41 L3103.03 1028.27 L3119.49 1029.76 L3135.95 1030.99 L3152.41 1032.73 L3168.87 1034.33 L3185.32 1036.07 L3201.78 1037.55 L3218.24 1039.16 L3234.70 1040.89 L3251.16 1042.26 L3267.62 1043.86 L3284.08 1045.47 L3300.54 1046.96 L3316.99 1048.69 L3333.45 1050.42 L3349.91 1051.66 L3366.37 1053.15 L3382.83 1054.63 L3399.29 1056.12 L3415.75 1057.48 L3432.21 1058.84 L3448.66 1060.45 L3465.12 1062.06 L3481.58 1063.54 L3498.04 1064.78 L3514.38 1066.63 L3530.84 1067.87 L3547.29 1069.11 L3563.75 1070.59 L3563.75 1673.77 L618.38 1673.77 L618.38 521.00 Z" stroke-linejoin="round"/>
	</defs>
	<defs>
		<clipPath id="clipPath_eCeijqwW">
			<use xlink:href="#path_lBBkUiXg"/>
		</clipPath>
	</defs>
	<use xlink:href="#path_lBBkUiXg" style="stroke:none;fill:#779159"/>
	<use xlink:href="#path_lBBkUiXg" style="fill:none;stroke:#55752F;stroke-width:17.28" clip-path="url(#clipPath_eCeijqwW)"/>
	<defs>
		<path id="path_zHICUifw" d="M618.38 1673.77 L618.38 1673.77 L634.84 1673.77 L651.30 1673.77 L667.75 1673.77 L684.21 1673.77 L700.67 1673.77 L717.13 1673.77 L733.59 1673.77 L750.05 1673.77 L766.51 1673.77 L782.97 1673.77 L799.42 1673.77 L815.88 1673.77 L832.34 1673.77 L848.80 1673.77 L865.26 1673.77 L881.72 1673.77 L898.18 1673.77 L914.64 1673.77 L931.10 1673.77 L947.55 1673.77 L964.01 1673.77 L980.47 1673.77 L996.93 1673.77 L1013.39 1673.77 L1029.72 1673.77 L1046.18 1673.77 L1062.64 1673.77 L1079.10 1673.77 L1095.56 1673.77 L1112.02 1673.77 L1128.48 1673.77 L1144.93 1673.77 L1161.39 1673.77 L1177.85 1673.77 L1194.31 1673.77 L1210.77 1673.77 L1227.23 1673.77 L1243.69 1673.77 L1260.15 1673.77 L1276.61 1673.77 L1293.06 1673.77 L1309.52 1673.77 L1325.98 1673.77 L1342.44 1673.77 L1358.90 1673.77 L1375.36 1673.77 L1391.82 1673.77 L1408.28 1673.77 L1424.73 1673.77 L1441.19 1673.77 L1457.65 1673.77 L1474.11 1673.77 L1490.57 1673.77 L1507.03 1673.77 L1523.36 1673.77 L1539.82 1673.77 L1556.28 1673.77 L1572.74 1673.77 L1589.20 1673.77 L1605.66 1673.77 L1622.12 1673.77 L1638.57 1673.77 L1655.03 1673.77 L1671.49 1673.77 L1687.95 1673.77 L1704.41 1673.77 L1720.87 1673.77 L1737.33 1673.77 L1753.79 1673.77 L1770.24 1673.77 L1786.70 1673.77 L1803.16 1673.77 L1819.62 1673.77 L1836.08 1673.77 L1852.54 1673.77 L1869.00 1673.77 L1885.45 1673.77 L1901.91 1673.77 L1918.37 1673.77 L1934.83 1673.77 L1951.29 1673.77 L1967.75 1673.77 L1984.21 1673.77 L2000.67 1673.77 L2017.00 1673.77 L2033.46 1673.77 L2049.92 1673.77 L2066.38 1673.77 L2082.84 1673.77 L2099.30 1673.77 L2115.75 1673.77 L2132.21 1673.77 L2148.67 1673.77 L2165.13 1673.77 L2181.59 1673.77 L2198.05 1673.77 L2214.51 1673.77 L2230.97 1673.77 L2247.42 1673.77 L2263.88 1673.77 L2280.34 1673.77 L2296.80 1673.77 L2313.26 1673.77 L2329.72 1673.77 L2346.18 1673.77 L2362.64 1673.77 L2379.09 1673.77 L2395.55 1673.77 L2412.01 1673.77 L2428.47 1673.77 L2444.93 1673.77 L2461.39 1673.77 L2477.85 1673.77 L2494.30 1673.77 L2510.76 1673.77 L2527.10 1673.77 L2543.56 1673.77 L2560.02 1673.77 L2576.47 1673.77 L2592.93 1673.77 L2609.39 1673.77 L2625.85 1673.77 L2642.31 1673.77 L2658.77 1673.77 L2675.23 1673.77 L2691.69 1673.77 L2708.14 1673.77 L2724.60 1673.77 L2741.06 1673.77 L2757.52 1673.77 L2773.98 1673.77 L2790.44 1673.77 L2806.90 1673.77 L2823.36 1673.77 L2839.82 1673.77 L2856.27 1673.77 L2872.73 1673.77 L2889.19 1673.77 L2905.65 1673.77 L2922.11 1673.77 L2938.57 1673.77 L2955.03 1673.77 L2971.49 1673.77 L2987.94 1673.77 L3004.40 1673.77 L3020.74 1673.77 L3037.20 1673.77 L3053.66 1673.77 L3070.11 1673.77 L3086.57 1673.77 L3103.03 1673.77 L3119.49 1673.77 L3135.95 1673.77 L3152.41 1673.77 L3168.87 1673.77 L3185.32 1673.77 L3201.78 1673.77 L3218.24 1673.77 L3234.70 1673.77 L3251.16 1673.77 L3267.62 1673.77 L3284.08 1673.77 L3300.54 1673.77 L3316.99 1673.77 L3333.45 1673.77 L3349.91 1673.77 L3366.37 1673.77 L3382.83 1673.77 L3399.29 1673.77 L3415.75 1673.77 L3432.21 1673.77 L3448.66 1673.77 L3465.12 1673.77 L3481.58 1673.77 L3498.04 1673.77 L3514.38 1673.77 L3530.84 1673.77 L3547.29 1673.77 L3563.75 1673.77 L3563.75 1673.77 L618.38 1673.77 L618.38 1673.77 Z" stroke-linejoin="round"/>
	</defs>
	<defs>
		<clipPath id="clipPath_aIZWfNFJ">
			<use xlink:href="#path_zHICUifw"/>
		</clipPath>
	</defs>
	<use xlink:href="#path_zHICUifw" style="stroke:none;fill:#E99833"/>
	<use xlink:href="#path_zHICUifw" style="fill:none;stroke:#E37E00;stroke-width:17.28" clip-path="url(#clipPath_aIZWfNFJ)"/>
	<defs>
		<path id="path_nCCzOxsg" d="M618.38 1673.77 L618.38 1673.77 L634.84 1673.77 L651.30 1673.77 L667.75 1673.77 L684.21 1673.77 L700.67 1673.77 L717.13 1673.77 L733.59 1673.77 L750.05 1673.77 L766.51 1673.77 L782.97 1673.77 L799.42 1673.77 L815.88 1673.77 L832.34 1673.77 L848.80 1673.77 L865.26 1673.77 L881.72 1673.77 L898.18 1673.77 L914.64 1673.77 L931.10 1673.77 L947.55 1673.77 L964.01 1673.77 L980.47 1673.77 L996.93 1673.77 L1013.39 1673.77 L1029.72 1673.77 L1046.18 1673.77 L1062.64 1673.77 L1079.10 1673.77 L1095.56 1673.77 L1112.02 1673.77 L1128.48 1673.77 L1144.93 1673.77 L1161.39 1673.77 L1177.85 1673.77 L1194.31 1673.77 L1210.77 1673.77 L1227.23 1673.77 L1243.69 1673.77 L1260.15 1673.77 L1276.61 1673.77 L1293.06 1673.77 L1309.52 1673.77 L1325.98 1673.77 L1342.44 1673.77 L1358.90 1673.77 L1375.36 1673.77 L1391.82 1673.77 L1408.28 1673.77 L1424.73 1673.77 L1441.19 1673.77 L1457.65 1673.77 L1474.11 1673.77 L1490.57 1673.77 L1507.03 1673.77 L1523.36 1673.77 L1539.82 1673.77 L1556.28 1673.77 L1572.74 1673.77 L1589.20 1673.77 L1605.66 1673.77 L1622.12 1673.77 L1638.57 1673.77 L1655.03 1673.77 L1671.49 1673.77 L1687.95 1673.77 L1704.41 1673.77 L1720.87 1673.77 L1737.33 1673.77 L1753.79 1673.77 L1770.24 1673.77 L1786.70 1673.77 L1803.16 1673.77 L1819.62 1673.77 L1836.08 1673.77 L1852.54 1673.77 L1869.00 1673.77 L1885.45 1673.77 L1901.91 1673.77 L1918.37 1673.77 L1934.83 1673.77 L1951.29 1673.77 L1967.75 1673.77 L1984.21 1673.77 L2000.67 1673.77 L2017.00 1673.77 L2033.46 1673.77 L2049.92 1673.77 L2066.38 1673.77 L2082.84 1673.77 L2099.30 1673.77 L2115.75 1673.77 L2132.21 1673.77 L2148.67 1673.77 L2165.13 1673.77 L2181.59 1673.77 L2198.05 1673.77 L2214.51 1673.77 L2230.97 1673.77 L2247.42 1673.77 L2263.88 1673.77 L2280.34 1673.77 L2296.80 1673.77 L2313.26 1673.77 L2329.72 1673.77 L2346.18 1673.77 L2362.64 1673.77 L2379.09 1673.77 L2395.55 1673.77 L2412.01 1673.77 L2428.47 1673.77 L2444.93 1673.77 L2461.39 1673.77 L2477.85 1673.77 L2494.30 1673.77 L2510.76 1673.77 L2527.10 1673.77 L2543.56 1673.77 L2560.02 1673.77 L2576.47 1673.77 L2592.93 1673.77 L2609.39 1673.77 L2625.85 1673.77 L2642.31 1673.77 L2658.77 1673.77 L2675.23 1673.77 L2691.69 1673.77 L2708.14 1673.77 L2724.60 1673.77 L2741.06 1673.77 L2757.52 1673.77 L2773.98 1673.77 L2790.44 1673.77 L2806.90 1673.77 L2823.36 1673.77 L2839.82 1673.77 L2856.27 1673.77 L2872.73 1673.77 L2889.19 1673.77 L2905.65 1673.77 L2922.11 1673.77 L2938.57 1673.77 L2955.03 1673.77 L2971.49 1673.77 L2987.94 1673.77 L3004.40 1673.77 L3020.74 1673.77 L3037.20 1673.77 L3053.66 1673.77 L3070.11 1673.77 L3086.57 1673.77 L3103.03 1673.77 L3119.49 1673.77 L3135.95 1673.77 L3152.41 1673.77 L3168.87 1673.77 L3185.32 1673.77 L3201.78 1673.77 L3218.24 1673.77 L3234.70 1673.77 L3251.16 1673.77 L3267.62 1673.77 L3284.08 1673.77 L3300.54 1673.77 L3316.99 1673.77 L3333.45 1673.77 L3349.91 1673.77 L3366.37 1673.77 L3382.83 1673.77 L3399.29 1673.77 L3415.75 1673.77 L3432.21 1673.77 L3448.66 1673.77 L3465.12 1673.77 L3481.58 1673.77 L3498.04 1673.77 L3514.38 1673.77 L3530.84 1673.77 L3547.29 1673.77 L3563.75 1673.77 L3563.75 1673.77 L618.38 1673.77 L618.38 1673.77 Z" stroke-linejoin="round"/>
	</defs>
	<defs>
		<clipPath id="clipPath_rwcazwvs">
			<use xlink:href="#path_nCCzOxsg"/>
		</clipPath>
	</defs>
	<use xlink:href="#path_nCCzOxsg" style="stroke:none;fill:#8BA59D"/>
	<use xlink:href="#path_nCCzOxsg" style="fill:none;stroke:#6E8E84;stroke-width:17.28" clip-path="url(#clipPath_rwcazwvs)"/>
	<defs>
		<path id="path_XbqkunOF" d="M618.38 1673.77 L618.38 1673.77 L634.84 1673.77 L651.30 1673.77 L667.75 1673.77 L684.21 1673.77 L700.67 1673.77 L717.13 1673.77 L733.59 1673.77 L750.05 1673.77 L766.51 1673.77 L782.97 1673.77 L799.42 1673.77 L815.88 1673.77 L832.34 1673.77 L848.80 1673.77 L865.26 1673.77 L881.72 1673.77 L898.18 1673.77 L914.64 1673.77 L931.10 1673.77 L947.55 1673.77 L964.01 1673.77 L980.47 1673.77 L996.93 1673.77 L1013.39 1673.77 L1029.72 1673.77 L1046.18 1673.77 L1062.64 1673.77 L1079.10 1673.77 L1095.56 1673.77 L1112.02 1673.77 L1128.48 1673.77 L1144.93 1673.77 L1161.39 1673.77 L1177.85 1673.77 L1194.31 1673.77 L1210.77 1673.77 L1227.23 1673.77 L1243.69 1673.77 L1260.15 1673.77 L1276.61 1673.77 L1293.06 1673.77 L1309.52 1673.77 L1325.98 1673.77 L1342.44 1673.77 L1358.90 1673.77 L1375.36 1673.77 L1391.82 1673.77 L1408.28 1673.77 L1424.73 1673.77 L1441.19 1673.77 L1457.65 1673.77 L1474.11 1673.77 L1490.57 1673.77 L1507.03 1673.77 L1523.36 1673.77 L1539.82 1673.77 L1556.28 1673.77 L1572.74 1673.77 L1589.20 1673.77 L1605.66 1673.77 L1622.12 1673.77 L1638.57 1673.77 L1655.03 1673.77 L1671.49 1673.77 L1687.95 1673.77 L1704.41 1673.77 L1720.87 1673.77 L1737.33 1673.77 L1753.79 1673.77 L1770.24 1673.77 L1786.70 1673.77 L1803.16 1673.77 L1819.62 1673.77 L1836.08 1673.77 L1852.54 1673.77 L1869.00 1673.77 L1885.45 1673.77 L1901.91 1673.77 L1918.37 1673.77 L1934.83 1673.77 L1951.29 1673.77 L1967.75 1673.77 L1984.21 1673.77 L2000.67 1673.77 L2017.00 1673.77 L2033.46 1673.77 L2049.92 1673.77 L2066.38 1673.77 L2082.84 1673.77 L2099.30 1673.77 L2115.75 1673.77 L2132.21 1673.77 L2148.67 1673.77 L2165.13 1673.77 L2181.59 1673.77 L2198.05 1673.77 L2214.51 1673.77 L2230.97 1673.77 L2247.42 1673.77 L2263.88 1673.77 L2280.34 1673.77 L2296.80 1673.77 L2313.26 1673.77 L2329.72 1673.77 L2346.18 1673.77 L2362.64 1673.77 L2379.09 1673.77 L2395.55 1673.77 L2412.01 1673.77 L2428.47 1673.77 L2444.93 1673.77 L2461.39 1673.77 L2477.85 1673.77 L2494.30 1673.77 L2510.76 1673.77 L2527.10 1673.77 L2543.56 1673.77 L2560.02 1673.77 L2576.47 1673.77 L2592.93 1673.77 L2609.39 1673.77 L2625.85 1673.77 L2642.31 1673.77 L2658.77 1673.77 L2675.23 1673.77 L2691.69 1673.77 L2708.14 1673.77 L2724.60 1673.77 L2741.06 1673.77 L2757.52 1673.77 L2773.98 1673.77 L2790.44 1673.77 L2806.90 1673.77 L2823.36 1673.77 L2839.82 1673.77 L2856.27 1673.77 L2872.73 1673.77 L2889.19 1673.77 L2905.65 1673.77 L2922.11 1673.77 L2938.57 1673.77 L2955.03 1673.77 L2971.49 1673.77 L2987.94 1673.77 L3004.40 1673.77 L3020.74 1673.77 L3037.20 1673.77 L3053.66 1673.77 L3070.11 1673.77 L3086.57 1673.77 L3103.03 1673.77 L3119.49 1673.77 L3135.95 1673.77 L3152.41 1673.77 L3168.87 1673.77 L3185.32 1673.77 L3201.78 1673.77 L3218.24 1673.77 L3234.70 1673.77 L3251.16 1673.77 L3267.62 1673.77 L3284.08 1673.77 L3300.54 1673.77 L3316.99 1673.77 L3333.45 1673.77 L3349.91 1673.77 L3366.37 1673.77 L3382.83 1673.77 L3399.29 1673.77 L3415.75 1673.77 L3432.21 1673.77 L3448.66 1673.77 L3465.12 1673.77 L3481.58 1673.77 L3498.04 1673.77 L3514.38 1673.77 L3530.84 1673.77 L3547.29 1673.77 L3563.75 1673.77 L3563.75 1673.77 L618.38 1673.77 L618.38 1673.77 Z" stroke-linejoin="round"/>
	</defs>
	<defs>
		<clipPath id="clipPath_uqwjsLQY">
			<use xlink:href="#path_XbqkunOF"/>
		</clipPath>
	</defs>
	<use xlink:href="#path_XbqkunOF" style="stroke:none;fill:#CD375D"/>
	<use xlink:href="#path_XbqkunOF" style="fill:none;stroke:#C10534;stroke-width:17.28" clip-path="url(#clipPath_uqwjsLQY)"/>
	<defs>
		<path id="path_SHxfijYT" d="M618.38 1673.77 L618.38 1673.77 L634.84 1673.77 L651.30 1673.77 L667.75 1673.77 L684.21 1673.77 L700.67 1673.77 L717.13 1673.77 L733.59 1673.77 L750.05 1673.77 L766.51 1673.77 L782.97 1673.77 L799.42 1673.77 L815.88 1673.77 L832.34 1673.77 L848.80 1673.77 L865.26 1673.77 L881.72 1673.77 L898.18 1673.77 L914.64 1673.77 L931.10 1673.77 L947.55 1673.77 L964.01 1673.77 L980.47 1673.77 L996.93 1673.77 L1013.39 1673.77 L1029.72 1673.77 L1046.18 1673.77 L1062.64 1673.77 L1079.10 1673.77 L1095.56 1673.77 L1112.02 1673.77 L1128.48 1673.77 L1144.93 1673.77 L1161.39 1673.77 L1177.85 1673.77 L1194.31 1673.77 L1210.77 1673.77 L1227.23 1673.77 L1243.69 1673.77 L1260.15 1673.77 L1276.61 1673.77 L1293.06 1673.77 L1309.52 1673.77 L1325.98 1673.77 L1342.44 1673.77 L1358.90 1673.77 L1375.36 1673.77 L1391.82 1673.77 L1408.28 1673.77 L1424.73 1673.77 L1441.19 1673.77 L1457.65 1673.77 L1474.11 1673.77 L1490.57 1673.77 L1507.03 1673.77 L1523.36 1673.77 L1539.82 1673.77 L1556.28 1673.77 L1572.74 1673.77 L1589.20 1673.77 L1605.66 1673.77 L1622.12 1673.77 L1638.57 1673.77 L1655.03 1673.77 L1671.49 1673.77 L1687.95 1673.77 L1704.41 1673.77 L1720.87 1673.77 L1737.33 1673.77 L1753.79 1673.77 L1770.24 1673.77 L1786.70 1673.77 L1803.16 1673.77 L1819.62 1673.77 L1836.08 1673.77 L1852.54 1673.77 L1869.00 1673.77 L1885.45 1673.77 L1901.91 1673.77 L1918.37 1673.77 L1934.83 1673.77 L1951.29 1673.77 L1967.75 1673.77 L1984.21 1673.77 L2000.67 1673.77 L2017.00 1673.77 L2033.46 1673.77 L2049.92 1673.77 L2066.38 1673.77 L2082.84 1673.77 L2099.30 1673.77 L2115.75 1673.77 L2132.21 1673.77 L2148.67 1673.77 L2165.13 1673.77 L2181.59 1673.77 L2198.05 1673.77 L2214.51 1673.77 L2230.97 1673.77 L2247.42 1673.77 L2263.88 1673.77 L2280.34 1673.77 L2296.80 1673.77 L2313.26 1673.77 L2329.72 1673.77 L2346.18 1673.77 L2362.64 1673.77 L2379.09 1673.77 L2395.55 1673.77 L2412.01 1673.77 L2428.47 1673.77 L2444.93 1673.77 L2461.39 1673.77 L2477.85 1673.77 L2494.30 1673.77 L2510.76 1673.77 L2527.10 1673.77 L2543.56 1673.77 L2560.02 1673.77 L2576.47 1673.77 L2592.93 1673.77 L2609.39 1673.77 L2625.85 1673.77 L2642.31 1673.77 L2658.77 1673.77 L2675.23 1673.77 L2691.69 1673.77 L2708.14 1673.77 L2724.60 1673.77 L2741.06 1673.77 L2757.52 1673.77 L2773.98 1673.77 L2790.44 1673.77 L2806.90 1673.77 L2823.36 1673.77 L2839.82 1673.77 L2856.27 1673.77 L2872.73 1673.77 L2889.19 1673.77 L2905.65 1673.77 L2922.11 1673.77 L2938.57 1673.77 L2955.03 1673.77 L2971.49 1673.77 L2987.94 1673.77 L3004.40 1673.77 L3020.74 1673.77 L3037.20 1673.77 L3053.66 1673.77 L3070.11 1673.77 L3086.57 1673.77 L3103.03 1673.77 L3119.49 1673.77 L3135.95 1673.77 L3152.41 1673.77 L3168.87 1673.77 L3185.32 1673.77 L3201.78 1673.77 L3218.24 1673.77 L3234.70 1673.77 L3251.16 1673.77 L3267.62 1673.77 L3284.08 1673.77 L3300.54 1673.77 L3316.99 1673.77 L3333.45 1673.77 L3349.91 1673.77 L3366.37 1673.77 L3382.83 1673.77 L3399.29 1673.77 L3415.75 1673.77 L3432.21 1673.77 L3448.66 1673.77 L3465.12 1673.77 L3481.58 1673.77 L3498.04 1673.77 L3514.38 1673.77 L3530.84 1673.77 L3547.29 1673.77 L3563.75 1673.77 L3563.75 1673.77 L618.38 1673.77 L618.38 1673.77 Z" stroke-linejoin="round"/>
	</defs>
	<defs>
		<clipPath id="clipPath_UHSGgsHC">
			<use xlink:href="#path_SHxfijYT"/>
		</clipPath>
	</defs>
	<use xlink:href="#path_SHxfijYT" style="stroke:none;fill:#A9A4DB"/>
	<use xlink:href="#path_SHxfijYT" style="fill:none;stroke:#938DD2;stroke-width:17.28" clip-path="url(#clipPath_UHSGgsHC)"/>
	<defs>
		<path id="path_cWVIWdVP" d="M618.38 1673.77 L618.38 1673.77 L634.84 1673.77 L651.30 1673.77 L667.75 1673.77 L684.21 1673.77 L700.67 1673.77 L717.13 1673.77 L733.59 1673.77 L750.05 1673.77 L766.51 1673.77 L782.97 1673.77 L799.42 1673.77 L815.88 1673.77 L832.34 1673.77 L848.80 1673.77 L865.26 1673.77 L881.72 1673.77 L898.18 1673.77 L914.64 1673.77 L931.10 1673.77 L947.55 1673.77 L964.01 1673.77 L980.47 1673.77 L996.93 1673.77 L1013.39 1673.77 L1029.72 1673.77 L1046.18 1673.77 L1062.64 1673.77 L1079.10 1673.77 L1095.56 1673.77 L1112.02 1673.77 L1128.48 1673.77 L1144.93 1673.77 L1161.39 1673.77 L1177.85 1673.77 L1194.31 1673.77 L1210.77 1673.77 L1227.23 1673.77 L1243.69 1673.77 L1260.15 1673.77 L1276.61 1673.77 L1293.06 1673.77 L1309.52 1673.77 L1325.98 1673.77 L1342.44 1673.77 L1358.90 1673.77 L1375.36 1673.77 L1391.82 1673.77 L1408.28 1673.77 L1424.73 1673.77 L1441.19 1673.77 L1457.65 1673.77 L1474.11 1673.77 L1490.57 1673.77 L1507.03 1673.77 L1523.36 1673.77 L1539.82 1673.77 L1556.28 1673.77 L1572.74 1673.77 L1589.20 1673.77 L1605.66 1673.77 L1622.12 1673.77 L1638.57 1673.77 L1655.03 1673.77 L1671.49 1673.77 L1687.95 1673.77 L1704.41 1673.77 L1720.87 1673.77 L1737.33 1673.77 L1753.79 1673.77 L1770.24 1673.77 L1786.70 1673.77 L1803.16 1673.77 L1819.62 1673.77 L1836.08 1673.77 L1852.54 1673.77 L1869.00 1673.77 L1885.45 1673.77 L1901.91 1673.77 L1918.37 1673.77 L1934.83 1673.77 L1951.29 1673.77 L1967.75 1673.77 L1984.21 1673.77 L2000.67 1673.77 L2017.00 1673.77 L2033.46 1673.77 L2049.92 1673.77 L2066.38 1673.77 L2082.84 1673.77 L2099.30 1673.77 L2115.75 1673.77 L2132.21 1673.77 L2148.67 1673.77 L2165.13 1673.77 L2181.59 1673.77 L2198.05 1673.77 L2214.51 1673.77 L2230.97 1673.77 L2247.42 1673.77 L2263.88 1673.77 L2280.34 1673.77 L2296.80 1673.77 L2313.26 1673.77 L2329.72 1673.77 L2346.18 1673.77 L2362.64 1673.77 L2379.09 1673.77 L2395.55 1673.77 L2412.01 1673.77 L2428.47 1673.77 L2444.93 1673.77 L2461.39 1673.77 L2477.85 1673.77 L2494.30 1673.77 L2510.76 1673.77 L2527.10 1673.77 L2543.56 1673.77 L2560.02 1673.77 L2576.47 1673.77 L2592.93 1673.77 L2609.39 1673.77 L2625.85 1673.77 L2642.31 1673.77 L2658.77 1673.77 L2675.23 1673.77 L2691.69 1673.77 L2708.14 1673.77 L2724.60 1673.77 L2741.06 1673.77 L2757.52 1673.77 L2773.98 1673.77 L2790.44 1673.77 L2806.90 1673.77 L2823.36 1673.77 L2839.82 1673.77 L2856.27 1673.77 L2872.73 1673.77 L2889.19 1673.77 L2905.65 1673.77 L2922.11 1673.77 L2938.57 1673.77 L2955.03 1673.77 L2971.49 1673.77 L2987.94 1673.77 L3004.40 1673.77 L3020.74 1673.77 L3037.20 1673.77 L3053.66 1673.77 L3070.11 1673.77 L3086.57 1673.77 L3103.03 1673.77 L3119.49 1673.77 L3135.95 1673.77 L3152.41 1673.77 L3168.87 1673.77 L3185.32 1673.77 L3201.78 1673.77 L3218.24 1673.77 L3234.70 1673.77 L3251.16 1673.77 L3267.62 1673.77 L3284.08 1673.77 L3300.54 1673.77 L3316.99 1673.77 L3333.45 1673.77 L3349.91 1673.77 L3366.37 1673.77 L3382.83 1673.77 L3399.29 1673.77 L3415.75 1673.77 L3432.21 1673.77 L3448.66 1673.77 L3465.12 1673.77 L3481.58 1673.77 L3498.04 1673.77 L3514.38 1673.77 L3530.84 1673.77 L3547.29 1673.77 L3563.75 1673.77 L3563.75 1673.77 L618.38 1673.77 L618.38 1673.77 Z" stroke-linejoin="round"/>
	</defs>
	<defs>
		<clipPath id="clipPath_WxAMrYTk">
			<use xlink:href="#path_cWVIWdVP"/>
		</clipPath>
	</defs>
	<use xlink:href="#path_cWVIWdVP" style="stroke:none;fill:#D5CE98"/>
	<use xlink:href="#path_cWVIWdVP" style="fill:none;stroke:#CAC27E;stroke-width:17.28" clip-path="url(#clipPath_WxAMrYTk)"/>
	<defs>
		<path id="path_DurJArTo" d="M618.38 1673.77 L618.38 1673.77 L634.84 1673.77 L651.30 1673.77 L667.75 1673.77 L684.21 1673.77 L700.67 1673.77 L717.13 1673.77 L733.59 1673.77 L750.05 1673.77 L766.51 1673.77 L782.97 1673.77 L799.42 1673.77 L815.88 1673.77 L832.34 1673.77 L848.80 1673.77 L865.26 1673.77 L881.72 1673.77 L898.18 1673.77 L914.64 1673.77 L931.10 1673.77 L947.55 1673.77 L964.01 1673.77 L980.47 1673.77 L996.93 1673.77 L1013.39 1673.77 L1029.72 1673.77 L1046.18 1673.77 L1062.64 1673.77 L1079.10 1673.77 L1095.56 1673.77 L1112.02 1673.77 L1128.48 1673.77 L1144.93 1673.77 L1161.39 1673.77 L1177.85 1673.77 L1194.31 1673.77 L1210.77 1673.77 L1227.23 1673.77 L1243.69 1673.77 L1260.15 1673.77 L1276.61 1673.77 L1293.06 1673.77 L1309.52 1673.77 L1325.98 1673.77 L1342.44 1673.77 L1358.90 1673.77 L1375.36 1673.77 L1391.82 1673.77 L1408.28 1673.77 L1424.73 1673.77 L1441.19 1673.77 L1457.65 1673.77 L1474.11 1673.77 L1490.57 1673.77 L1507.03 1673.77 L1523.36 1673.77 L1539.82 1673.77 L1556.28 1673.77 L1572.74 1673.77 L1589.20 1673.77 L1605.66 1673.77 L1622.12 1673.77 L1638.57 1673.77 L1655.03 1673.77 L1671.49 1673.77 L1687.95 1673.77 L1704.41 1673.77 L1720.87 1673.77 L1737.33 1673.77 L1753.79 1673.77 L1770.24 1673.77 L1786.70 1673.77 L1803.16 1673.77 L1819.62 1673.77 L1836.08 1673.77 L1852.54 1673.77 L1869.00 1673.77 L1885.45 1673.77 L1901.91 1673.77 L1918.37 1673.77 L1934.83 1673.77 L1951.29 1673.77 L1967.75 1673.77 L1984.21 1673.77 L2000.67 1673.77 L2017.00 1673.77 L2033.46 1673.77 L2049.92 1673.77 L2066.38 1673.77 L2082.84 1673.77 L2099.30 1673.77 L2115.75 1673.77 L2132.21 1673.77 L2148.67 1673.77 L2165.13 1673.77 L2181.59 1673.77 L2198.05 1673.77 L2214.51 1673.77 L2230.97 1673.77 L2247.42 1673.77 L2263.88 1673.77 L2280.34 1673.77 L2296.80 1673.77 L2313.26 1673.77 L2329.72 1673.77 L2346.18 1673.77 L2362.64 1673.77 L2379.09 1673.77 L2395.55 1673.77 L2412.01 1673.77 L2428.47 1673.77 L2444.93 1673.77 L2461.39 1673.77 L2477.85 1673.77 L2494.30 1673.77 L2510.76 1673.77 L2527.10 1673.77 L2543.56 1673.77 L2560.02 1673.77 L2576.47 1673.77 L2592.93 1673.77 L2609.39 1673.77 L2625.85 1673.77 L2642.31 1673.77 L2658.77 1673.77 L2675.23 1673.77 L2691.69 1673.77 L2708.14 1673.77 L2724.60 1673.77 L2741.06 1673.77 L2757.52 1673.77 L2773.98 1673.77 L2790.44 1673.77 L2806.90 1673.77 L2823.36 1673.77 L2839.82 1673.77 L2856.27 1673.77 L2872.73 1673.77 L2889.19 1673.77 L2905.65 1673.77 L2922.11 1673.77 L2938.57 1673.77 L2955.03 1673.77 L2971.49 1673.77 L2987.94 1673.77 L3004.40 1673.77 L3020.74 1673.77 L3037.20 1673.77 L3053.66 1673.77 L3070.11 1673.77 L3086.57 1673.77 L3103.03 1673.77 L3119.49 1673.77 L3135.95 1673.77 L3152.41 1673.77 L3168.87 1673.77 L3185.32 1673.77 L3201.78 1673.77 L3218.24 1673.77 L3234.70 1673.77 L3251.16 1673.77 L3267.62 1673.77 L3284.08 1673.77 L3300.54 1673.77 L3316.99 1673.77 L3333.45 1673.77 L3349.91 1673.77 L3366.37 1673.77 L3382.83 1673.77 L3399.29 1673.77 L3415.75 1673.77 L3432.21 1673.77 L3448.66 1673.77 L3465.12 1673.77 L3481.58 1673.77 L3498.04 1673.77 L3514.38 1673.77 L3530.84 1673.77 L3547.29 1673.77 L3563.75 1673.77 L3563.75 1673.77 L618.38 1673.77 L618.38 1673.77 Z" stroke-linejoin="round"/>
	</defs>
	<defs>
		<clipPath id="clipPath_BEVyxDlB">
			<use xlink:href="#path_DurJArTo"/>
		</clipPath>
	</defs>
	<use xlink:href="#path_DurJArTo" style="stroke:none;fill:#B37557"/>
	<use xlink:href="#path_DurJArTo" style="fill:none;stroke:#A0522D;stroke-width:17.28" clip-path="url(#clipPath_BEVyxDlB)"/>
	<defs>
		<path id="path_iEbKlsmJ" d="M618.38 1673.77 L618.38 1673.77 L634.84 1673.77 L651.30 1673.77 L667.75 1673.77 L684.21 1673.77 L700.67 1673.77 L717.13 1673.77 L733.59 1673.77 L750.05 1673.77 L766.51 1673.77 L782.97 1673.77 L799.42 1673.77 L815.88 1673.77 L832.34 1673.77 L848.80 1673.77 L865.26 1673.77 L881.72 1673.77 L898.18 1673.77 L914.64 1673.77 L931.10 1673.77 L947.55 1673.77 L964.01 1673.77 L980.47 1673.77 L996.93 1673.77 L1013.39 1673.77 L1029.72 1673.77 L1046.18 1673.77 L1062.64 1673.77 L1079.10 1673.77 L1095.56 1673.77 L1112.02 1673.77 L1128.48 1673.77 L1144.93 1673.77 L1161.39 1673.77 L1177.85 1673.77 L1194.31 1673.77 L1210.77 1673.77 L1227.23 1673.77 L1243.69 1673.77 L1260.15 1673.77 L1276.61 1673.77 L1293.06 1673.77 L1309.52 1673.77 L1325.98 1673.77 L1342.44 1673.77 L1358.90 1673.77 L1375.36 1673.77 L1391.82 1673.77 L1408.28 1673.77 L1424.73 1673.77 L1441.19 1673.77 L1457.65 1673.77 L1474.11 1673.77 L1490.57 1673.77 L1507.03 1673.77 L1523.36 1673.77 L1539.82 1673.77 L1556.28 1673.77 L1572.74 1673.77 L1589.20 1673.77 L1605.66 1673.77 L1622.12 1673.77 L1638.57 1673.77 L1655.03 1673.77 L1671.49 1673.77 L1687.95 1673.77 L1704.41 1673.77 L1720.87 1673.77 L1737.33 1673.77 L1753.79 1673.77 L1770.24 1673.77 L1786.70 1673.77 L1803.16 1673.77 L1819.62 1673.77 L1836.08 1673.77 L1852.54 1673.77 L1869.00 1673.77 L1885.45 1673.77 L1901.91 1673.77 L1918.37 1673.77 L1934.83 1673.77 L1951.29 1673.77 L1967.75 1673.77 L1984.21 1673.77 L2000.67 1673.77 L2017.00 1673.77 L2033.46 1673.77 L2049.92 1673.77 L2066.38 1673.77 L2082.84 1673.77 L2099.30 1673.77 L2115.75 1673.77 L2132.21 1673.77 L2148.67 1673.77 L2165.13 1673.77 L2181.59 1673.77 L2198.05 1673.77 L2214.51 1673.77 L2230.97 1673.77 L2247.42 1673.77 L2263.88 1673.77 L2280.34 1673.77 L2296.80 1673.77 L2313.26 1673.77 L2329.72 1673.77 L2346.18 1673.77 L2362.64 1673.77 L2379.09 1673.77 L2395.55 1673.77 L2412.01 1673.77 L2428.47 1673.77 L2444.93 1673.77 L2461.39 1673.77 L2477.85 1673.77 L2494.30 1673.77 L2510.76 1673.77 L2527.10 1673.77 L2543.56 1673.77 L2560.02 1673.77 L2576.47 1673.77 L2592.93 1673.77 L2609.39 1673.77 L2625.85 1673.77 L2642.31 1673.77 L2658.77 1673.77 L2675.23 1673.77 L2691.69 1673.77 L2708.14 1673.77 L2724.60 1673.77 L2741.06 1673.77 L2757.52 1673.77 L2773.98 1673.77 L2790.44 1673.77 L2806.90 1673.77 L2823.36 1673.77 L2839.82 1673.77 L2856.27 1673.77 L2872.73 1673.77 L2889.19 1673.77 L2905.65 1673.77 L2922.11 1673.77 L2938.57 1673.77 L2955.03 1673.77 L2971.49 1673.77 L2987.94 1673.77 L3004.40 1673.77 L3020.74 1673.77 L3037.20 1673.77 L3053.66 1673.77 L3070.11 1673.77 L3086.57 1673.77 L3103.03 1673.77 L3119.49 1673.77 L3135.95 1673.77 L3152.41 1673.77 L3168.87 1673.77 L3185.32 1673.77 L3201.78 1673.77 L3218.24 1673.77 L3234.70 1673.77 L3251.16 1673.77 L3267.62 1673.77 L3284.08 1673.77 L3300.54 1673.77 L3316.99 1673.77 L3333.45 1673.77 L3349.91 1673.77 L3366.37 1673.77 L3382.83 1673.77 L3399.29 1673.77 L3415.75 1673.77 L3432.21 1673.77 L3448.66 1673.77 L3465.12 1673.77 L3481.58 1673.77 L3498.04 1673.77 L3514.38 1673.77 L3530.84 1673.77 L3547.29 1673.77 L3563.75 1673.77 L3563.75 1673.77 L618.38 1673.77 L618.38 1673.77 Z" stroke-linejoin="round"/>
	</defs>
	<defs>
		<clipPath id="clipPath_pRXVtmYY">
			<use xlink:href="#path_iEbKlsmJ"/>
		</clipPath>
	</defs>
	<use xlink:href="#path_iEbKlsmJ" style="stroke:none;fill:#95A8B9"/>
	<use xlink:href="#path_iEbKlsmJ" style="fill:none;stroke:#7B92A8;stroke-width:17.28" clip-path="url(#clipPath_pRXVtmYY)"/>
	<line x1="465.80" y1="1673.65" x2="465.80" y2="419.90" style="stroke:#000000;stroke-width:5.76"/>
	<line x1="465.80" y1="1673.65" x2="425.82" y2="1673.65" style="stroke:#000000;stroke-width:5.76"/>
	<text x="405.78" y="1708.68" style="font-family:'Helvetica';font-size:99.99px;fill:#000000" text-anchor="end">0.0</text>
	<line x1="465.80" y1="1548.28" x2="425.82" y2="1548.28" style="stroke:#000000;stroke-width:5.76"/>
	<text x="405.78" y="1583.31" style="font-family:'Helvetica';font-size:99.99px;fill:#000000" text-anchor="end">0.1</text>
	<line x1="465.80" y1="1422.92" x2="425.82" y2="1422.92" style="stroke:#000000;stroke-width:5.76"/>
	<text x="405.78" y="1457.95" style="font-family:'Helvetica';font-size:99.99px;fill:#000000" text-anchor="end">0.2</text>
	<line x1="465.80" y1="1297.56" x2="425.82" y2="1297.56" style="stroke:#000000;stroke-width:5.76"/>
	<text x="405.78" y="1332.59" style="font-family:'Helvetica';font-size:99.99px;fill:#000000" text-anchor="end">0.3</text>
	<line x1="465.80" y1="1172.20" x2="425.82" y2="1172.20" style="stroke:#000000;stroke-width:5.76"/>
	<text x="405.78" y="1207.23" style="font-family:'Helvetica';font-size:99.99px;fill:#000000" text-anchor="end">0.4</text>
	<line x1="465.80" y1="1046.83" x2="425.82" y2="1046.83" style="stroke:#000000;stroke-width:5.76"/>
	<text x="405.78" y="1081.86" style="font-family:'Helvetica';font-size:99.99px;fill:#000000" text-anchor="end">0.5</text>
	<line x1="465.80" y1="921.47" x2="425.82" y2="921.47" style="stroke:#000000;stroke-width:5.76"/>
	<text x="405.78" y="956.50" style="font-family:'Helvetica';font-size:99.99px;fill:#000000" text-anchor="end">0.6</text>
	<line x1="465.80" y1="796.11" x2="425.82" y2="796.11" style="stroke:#000000;stroke-width:5.76"/>
	<text x="405.78" y="831.14" style="font-family:'Helvetica';font-size:99.99px;fill:#000000" text-anchor="end">0.7</text>
	<line x1="465.80" y1="670.62" x2="425.82" y2="670.62" style="stroke:#000000;stroke-width:5.76"/>
	<text x="405.78" y="705.65" style="font-family:'Helvetica';font-size:99.99px;fill:#000000" text-anchor="end">0.8</text>
	<line x1="465.80" y1="545.26" x2="425.82" y2="545.26" style="stroke:#000000;stroke-width:5.76"/>
	<text x="405.78" y="580.29" style="font-family:'Helvetica';font-size:99.99px;fill:#000000" text-anchor="end">0.9</text>
	<line x1="465.80" y1="419.90" x2="425.82" y2="419.90" style="stroke:#000000;stroke-width:5.76"/>
	<text x="405.78" y="454.93" style="font-family:'Helvetica';font-size:99.99px;fill:#000000" text-anchor="end">1.0</text>
	<text x="190.71" y="1046.83" style="font-family:'Helvetica';font-size:99.99px;fill:#000000" transform="rotate(-90 190.71,1046.83)" text-anchor="middle">Transition Probability</text>
	<line x1="465.80" y1="1673.65" x2="3859.02" y2="1673.65" style="stroke:#000000;stroke-width:5.76"/>
	<line x1="465.80" y1="1673.65" x2="465.80" y2="1713.74" style="stroke:#000000;stroke-width:5.76"/>
	<text x="465.80" y="1803.60" style="font-family:'Helvetica';font-size:99.99px;fill:#000000" text-anchor="middle">0</text>
	<line x1="1314.10" y1="1673.65" x2="1314.10" y2="1713.74" style="stroke:#000000;stroke-width:5.76"/>
	<text x="1314.10" y="1803.60" style="font-family:'Helvetica';font-size:99.99px;fill:#000000" text-anchor="middle">500</text>
	<line x1="2162.41" y1="1673.65" x2="2162.41" y2="1713.74" style="stroke:#000000;stroke-width:5.76"/>
	<text x="2162.41" y="1803.60" style="font-family:'Helvetica';font-size:99.99px;fill:#000000" text-anchor="middle">1000</text>
	<line x1="3010.71" y1="1673.65" x2="3010.71" y2="1713.74" style="stroke:#000000;stroke-width:5.76"/>
	<text x="3010.71" y="1803.60" style="font-family:'Helvetica';font-size:99.99px;fill:#000000" text-anchor="middle">1500</text>
	<line x1="3859.02" y1="1673.65" x2="3859.02" y2="1713.74" style="stroke:#000000;stroke-width:5.76"/>
	<text x="3859.02" y="1803.60" style="font-family:'Helvetica';font-size:99.99px;fill:#000000" text-anchor="middle">2000</text>
	<text x="2162.41" y="1913.62" style="font-family:'Helvetica';font-size:99.99px;fill:#000000" text-anchor="middle">Follow-up time</text>
	<rect x="585.34" y="1998.25" width="3154.26" height="746.36" style="fill:#FFFFFF"/>
	<rect x="588.22" y="2001.13" width="3148.50" height="740.60" style="fill:none;stroke:#000000;stroke-width:5.76"/>
	<rect x="628.53" y="2041.44" width="374.34" height="99.99" style="fill:#95A8B9"/>
	<rect x="632.85" y="2045.76" width="365.70" height="91.35" style="fill:none;stroke:#7B92A8;stroke-width:8.64"/>
	<rect x="2203.24" y="2041.44" width="374.34" height="99.99" style="fill:#B37557"/>
	<rect x="2207.56" y="2045.76" width="365.70" height="91.35" style="fill:none;stroke:#A0522D;stroke-width:8.64"/>
	<rect x="628.53" y="2181.41" width="374.34" height="99.99" style="fill:#D5CE98"/>
	<rect x="632.85" y="2185.73" width="365.70" height="91.35" style="fill:none;stroke:#CAC27E;stroke-width:8.64"/>
	<rect x="2203.24" y="2181.41" width="374.34" height="99.99" style="fill:#A9A4DB"/>
	<rect x="2207.56" y="2185.73" width="365.70" height="91.35" style="fill:none;stroke:#938DD2;stroke-width:8.64"/>
	<rect x="628.53" y="2321.50" width="374.34" height="99.99" style="fill:#CD375D"/>
	<rect x="632.85" y="2325.82" width="365.70" height="91.35" style="fill:none;stroke:#C10534;stroke-width:8.64"/>
	<rect x="2203.24" y="2321.50" width="374.34" height="99.99" style="fill:#8BA59D"/>
	<rect x="2207.56" y="2325.82" width="365.70" height="91.35" style="fill:none;stroke:#6E8E84;stroke-width:8.64"/>
	<rect x="628.53" y="2461.46" width="374.34" height="99.99" style="fill:#E99833"/>
	<rect x="632.85" y="2465.78" width="365.70" height="91.35" style="fill:none;stroke:#E37E00;stroke-width:8.64"/>
	<rect x="2203.24" y="2461.46" width="374.34" height="99.99" style="fill:#779159"/>
	<rect x="2207.56" y="2465.78" width="365.70" height="91.35" style="fill:none;stroke:#55752F;stroke-width:8.64"/>
	<rect x="628.53" y="2601.43" width="374.34" height="99.99" style="fill:#A65D62"/>
	<rect x="632.85" y="2605.75" width="365.70" height="91.35" style="fill:none;stroke:#90353B;stroke-width:8.64"/>
	<rect x="2203.24" y="2601.43" width="374.34" height="99.99" style="fill:#486C8C"/>
	<rect x="2207.56" y="2605.75" width="365.70" height="91.35" style="fill:none;stroke:#1A476F;stroke-width:8.64"/>
	<text x="1062.89" y="2126.47" style="font-family:'Helvetica';font-size:99.99px;fill:#000000">P(Y(t) = 1 | Y(90) = 8)</text>
	<text x="2637.61" y="2126.47" style="font-family:'Helvetica';font-size:99.99px;fill:#000000">P(Y(t) = 2 | Y(90) = 8)</text>
	<text x="1062.89" y="2266.43" style="font-family:'Helvetica';font-size:99.99px;fill:#000000">P(Y(t) = 3 | Y(90) = 8)</text>
	<text x="2637.61" y="2266.43" style="font-family:'Helvetica';font-size:99.99px;fill:#000000">P(Y(t) = 4 | Y(90) = 8)</text>
	<text x="1062.89" y="2406.52" style="font-family:'Helvetica';font-size:99.99px;fill:#000000">P(Y(t) = 5 | Y(90) = 8)</text>
	<text x="2637.61" y="2406.52" style="font-family:'Helvetica';font-size:99.99px;fill:#000000">P(Y(t) = 6 | Y(90) = 8)</text>
	<text x="1062.89" y="2546.49" style="font-family:'Helvetica';font-size:99.99px;fill:#000000">P(Y(t) = 7 | Y(90) = 8)</text>
	<text x="2637.61" y="2546.49" style="font-family:'Helvetica';font-size:99.99px;fill:#000000">P(Y(t) = 8 | Y(90) = 8)</text>
	<text x="1062.89" y="2686.46" style="font-family:'Helvetica';font-size:99.99px;fill:#000000">P(Y(t) = 9 | Y(90) = 8)</text>
	<text x="2637.61" y="2686.46" style="font-family:'Helvetica';font-size:99.99px;fill:#000000">P(Y(t) = 10 | Y(90) = 8)</text>
	<text x="2162.41" y="369.63" style="font-family:'Helvetica';font-size:110.01px;fill:#000000" text-anchor="middle">From TD3(8), Residential (RP)</text>
	<text x="2162.41" y="215.98" style="font-family:'Helvetica';font-size:139.96px;fill:#1E2D53" text-anchor="middle">P(Y(t) = b | Y(90) = 8, at1)</text>
</svg>
