<?xml version="1.0" encoding="UTF-8" standalone="no"?>
<!-- This is a Stata 16.1 generated SVG file (http://www.stata.com) -->

<svg version="1.1" width="5.50in" height="4.00in" viewBox="0 0 3960 2880" xmlns="http://www.w3.org/2000/svg" xmlns:xlink="http://www.w3.org/1999/xlink">
	<desc>Stata Graph - gh_1_1</desc>
	<rect x="0" y="0" width="3960" height="2880" style="fill:#EAF2F3;stroke:none"/>
	<rect x="0.00" y="0.00" width="3959.88" height="2880.00" style="fill:#FFFFFF"/>
	<rect x="2.88" y="2.88" width="3954.12" height="2874.24" style="fill:none;stroke:#EAF2F3;stroke-width:5.76"/>
	<rect x="465.80" y="419.90" width="3393.22" height="1253.75" style="fill:#FFFFFF"/>
	<rect x="468.67" y="422.78" width="3387.47" height="1247.99" style="fill:none;stroke:#FFFFFF;stroke-width:5.76"/>
	<line x1="465.80" y1="1548.28" x2="3859.02" y2="1548.28" style="stroke:#EAF2F3;stroke-width:8.64"/>
	<line x1="465.80" y1="1422.92" x2="3859.02" y2="1422.92" style="stroke:#EAF2F3;stroke-width:8.64"/>
	<line x1="465.80" y1="1297.56" x2="3859.02" y2="1297.56" style="stroke:#EAF2F3;stroke-width:8.64"/>
	<line x1="465.80" y1="1172.20" x2="3859.02" y2="1172.20" style="stroke:#EAF2F3;stroke-width:8.64"/>
	<line x1="465.80" y1="1046.83" x2="3859.02" y2="1046.83" style="stroke:#EAF2F3;stroke-width:8.64"/>
	<line x1="465.80" y1="921.47" x2="3859.02" y2="921.47" style="stroke:#EAF2F3;stroke-width:8.64"/>
	<line x1="465.80" y1="796.11" x2="3859.02" y2="796.11" style="stroke:#EAF2F3;stroke-width:8.64"/>
	<line x1="465.80" y1="670.62" x2="3859.02" y2="670.62" style="stroke:#EAF2F3;stroke-width:8.64"/>
	<line x1="465.80" y1="545.26" x2="3859.02" y2="545.26" style="stroke:#EAF2F3;stroke-width:8.64"/>
	<line x1="465.80" y1="419.90" x2="3859.02" y2="419.90" style="stroke:#EAF2F3;stroke-width:8.64"/>
	<defs>
		<path id="path_tOFGxbhu" d="M618.38 420.02 L618.38 420.02 L634.84 420.02 L651.30 420.02 L667.75 420.02 L684.21 420.02 L700.67 420.02 L717.13 420.02 L733.59 420.02 L750.05 420.02 L766.51 420.02 L782.97 420.02 L799.42 420.02 L815.88 420.02 L832.34 420.02 L848.80 420.02 L865.26 420.02 L881.72 420.02 L898.18 420.02 L914.64 420.02 L931.10 420.02 L947.55 420.02 L964.01 420.02 L980.47 420.02 L996.93 420.02 L1013.39 420.02 L1029.72 420.02 L1046.18 420.02 L1062.64 420.02 L1079.10 420.02 L1095.56 420.02 L1112.02 420.02 L1128.48 420.02 L1144.93 420.02 L1161.39 420.02 L1177.85 420.02 L1194.31 420.02 L1210.77 420.02 L1227.23 420.02 L1243.69 420.02 L1260.15 420.02 L1276.61 420.02 L1293.06 420.02 L1309.52 420.02 L1325.98 420.02 L1342.44 420.02 L1358.90 420.02 L1375.36 420.02 L1391.82 420.02 L1408.28 420.02 L1424.73 420.02 L1441.19 420.02 L1457.65 420.02 L1474.11 420.02 L1490.57 420.02 L1507.03 420.02 L1523.36 420.02 L1539.82 420.02 L1556.28 420.02 L1572.74 420.02 L1589.20 420.02 L1605.66 420.02 L1622.12 420.02 L1638.57 420.02 L1655.03 420.02 L1671.49 420.02 L1687.95 420.02 L1704.41 420.02 L1720.87 420.02 L1737.33 420.02 L1753.79 420.02 L1770.24 420.02 L1786.70 420.02 L1803.16 420.02 L1819.62 420.02 L1836.08 420.02 L1852.54 420.02 L1869.00 420.02 L1885.45 420.02 L1901.91 420.02 L1918.37 420.02 L1934.83 420.02 L1951.29 420.02 L1967.75 420.02 L1984.21 420.02 L2000.67 420.02 L2017.00 420.02 L2033.46 420.02 L2049.92 420.02 L2066.38 420.02 L2082.84 420.02 L2099.30 420.02 L2115.75 420.02 L2132.21 420.02 L2148.67 420.02 L2165.13 420.02 L2181.59 420.02 L2198.05 420.02 L2214.51 420.02 L2230.97 420.02 L2247.42 420.02 L2263.88 420.02 L2280.34 420.02 L2296.80 420.02 L2313.26 420.02 L2329.72 420.02 L2346.18 420.02 L2362.64 420.02 L2379.09 420.02 L2395.55 420.02 L2412.01 420.02 L2428.47 420.02 L2444.93 420.02 L2461.39 420.02 L2477.85 420.02 L2494.30 420.02 L2510.76 420.02 L2527.10 420.02 L2543.56 420.02 L2560.02 420.02 L2576.47 420.02 L2592.93 420.02 L2609.39 420.02 L2625.85 420.02 L2642.31 420.02 L2658.77 420.02 L2675.23 420.02 L2691.69 420.02 L2708.14 420.02 L2724.60 420.02 L2741.06 420.02 L2757.52 420.02 L2773.98 420.02 L2790.44 420.02 L2806.90 420.02 L2823.36 420.02 L2839.82 420.02 L2856.27 420.02 L2872.73 420.02 L2889.19 420.02 L2905.65 420.02 L2922.11 420.02 L2938.57 420.02 L2955.03 420.02 L2971.49 420.02 L2987.94 420.02 L3004.40 420.02 L3020.74 420.02 L3037.20 420.02 L3053.66 420.02 L3070.11 420.02 L3086.57 420.02 L3103.03 420.02 L3119.49 420.02 L3135.95 420.02 L3152.41 420.02 L3168.87 420.02 L3185.32 420.02 L3201.78 420.02 L3218.24 420.02 L3234.70 420.02 L3251.16 420.02 L3267.62 420.02 L3284.08 420.02 L3300.54 420.02 L3316.99 420.02 L3333.45 420.02 L3349.91 420.02 L3366.37 420.02 L3382.83 420.02 L3399.29 420.02 L3415.75 420.02 L3432.21 420.02 L3448.66 420.02 L3465.12 420.02 L3481.58 420.02 L3498.04 420.02 L3514.38 420.02 L3530.84 420.02 L3547.29 420.02 L3563.75 420.02 L3563.75 1673.77 L618.38 1673.77 L618.38 420.02 Z" stroke-linejoin="round"/>
	</defs>
	<defs>
		<clipPath id="clipPath_BSeileJL">
			<use xlink:href="#path_tOFGxbhu"/>
		</clipPath>
	</defs>
	<use xlink:href="#path_tOFGxbhu" style="stroke:none;fill:#486C8C"/>
	<use xlink:href="#path_tOFGxbhu" style="fill:none;stroke:#1A476F;stroke-width:17.28" clip-path="url(#clipPath_BSeileJL)"/>
	<defs>
		<path id="path_aCnJcmyK" d="M618.38 420.02 L618.38 420.02 L634.84 420.02 L651.30 420.02 L667.75 420.02 L684.21 420.02 L700.67 420.02 L717.13 420.02 L733.59 420.02 L750.05 420.02 L766.51 420.02 L782.97 420.02 L799.42 420.02 L815.88 420.02 L832.34 420.02 L848.80 420.02 L865.26 420.02 L881.72 420.02 L898.18 420.02 L914.64 420.02 L931.10 420.02 L947.55 420.02 L964.01 420.02 L980.47 420.02 L996.93 420.02 L1013.39 420.02 L1029.72 420.02 L1046.18 420.02 L1062.64 420.02 L1079.10 420.02 L1095.56 420.14 L1112.02 420.14 L1128.48 420.14 L1144.93 420.27 L1161.39 420.27 L1177.85 420.27 L1194.31 420.27 L1210.77 420.39 L1227.23 420.39 L1243.69 420.39 L1260.15 420.39 L1276.61 420.52 L1293.06 420.52 L1309.52 420.52 L1325.98 420.64 L1342.44 420.64 L1358.90 420.76 L1375.36 420.89 L1391.82 421.01 L1408.28 421.13 L1424.73 421.13 L1441.19 421.26 L1457.65 421.26 L1474.11 421.38 L1490.57 421.38 L1507.03 421.51 L1523.36 421.63 L1539.82 421.75 L1556.28 421.88 L1572.74 422.12 L1589.20 422.12 L1605.66 422.37 L1622.12 422.62 L1638.57 422.74 L1655.03 422.87 L1671.49 423.11 L1687.95 423.24 L1704.41 423.49 L1720.87 423.73 L1737.33 423.98 L1753.79 424.23 L1770.24 424.35 L1786.70 424.60 L1803.16 424.85 L1819.62 425.22 L1836.08 425.34 L1852.54 425.71 L1869.00 425.84 L1885.45 426.21 L1901.91 426.58 L1918.37 427.07 L1934.83 427.45 L1951.29 427.69 L1967.75 428.06 L1984.21 428.44 L2000.67 428.93 L2017.00 429.18 L2033.46 429.67 L2049.92 430.04 L2066.38 430.54 L2082.84 431.03 L2099.30 431.41 L2115.75 431.78 L2132.21 432.27 L2148.67 432.64 L2165.13 433.01 L2181.59 433.51 L2198.05 434.00 L2214.51 434.50 L2230.97 434.87 L2247.42 435.24 L2263.88 435.74 L2280.34 436.23 L2296.80 436.60 L2313.26 437.10 L2329.72 437.72 L2346.18 438.21 L2362.64 438.58 L2379.09 439.20 L2395.55 439.57 L2412.01 440.07 L2428.47 440.44 L2444.93 440.94 L2461.39 441.43 L2477.85 441.93 L2494.30 442.54 L2510.76 443.04 L2527.10 443.53 L2543.56 443.91 L2560.02 444.52 L2576.47 444.90 L2592.93 445.39 L2609.39 445.76 L2625.85 446.26 L2642.31 446.75 L2658.77 447.12 L2675.23 447.62 L2691.69 448.11 L2708.14 448.48 L2724.60 449.10 L2741.06 449.60 L2757.52 450.09 L2773.98 450.46 L2790.44 450.96 L2806.90 451.33 L2823.36 451.83 L2839.82 452.32 L2856.27 452.69 L2872.73 453.19 L2889.19 453.56 L2905.65 454.05 L2922.11 454.55 L2938.57 454.92 L2955.03 455.54 L2971.49 456.03 L2987.94 456.53 L3004.40 457.02 L3020.74 457.52 L3037.20 457.89 L3053.66 458.51 L3070.11 459.00 L3086.57 459.37 L3103.03 459.87 L3119.49 460.24 L3135.95 460.74 L3152.41 461.11 L3168.87 461.48 L3185.32 462.10 L3201.78 462.47 L3218.24 462.96 L3234.70 463.46 L3251.16 463.83 L3267.62 464.32 L3284.08 464.70 L3300.54 465.07 L3316.99 465.56 L3333.45 465.93 L3349.91 466.43 L3366.37 466.92 L3382.83 467.54 L3399.29 467.91 L3415.75 468.41 L3432.21 468.78 L3448.66 469.27 L3465.12 469.65 L3481.58 470.14 L3498.04 470.51 L3514.38 470.88 L3530.84 471.25 L3547.29 471.75 L3563.75 472.12 L3563.75 1673.77 L618.38 1673.77 L618.38 420.02 Z" stroke-linejoin="round"/>
	</defs>
	<defs>
		<clipPath id="clipPath_IeeHjQDg">
			<use xlink:href="#path_aCnJcmyK"/>
		</clipPath>
	</defs>
	<use xlink:href="#path_aCnJcmyK" style="stroke:none;fill:#A65D62"/>
	<use xlink:href="#path_aCnJcmyK" style="fill:none;stroke:#90353B;stroke-width:17.28" clip-path="url(#clipPath_IeeHjQDg)"/>
	<defs>
		<path id="path_vJVmODjX" d="M618.38 420.02 L618.38 420.02 L634.84 420.02 L651.30 420.02 L667.75 420.02 L684.21 420.02 L700.67 420.02 L717.13 420.02 L733.59 420.02 L750.05 420.02 L766.51 420.02 L782.97 420.02 L799.42 420.02 L815.88 420.02 L832.34 420.02 L848.80 420.02 L865.26 420.02 L881.72 420.14 L898.18 420.14 L914.64 420.14 L931.10 420.14 L947.55 420.27 L964.01 420.27 L980.47 420.27 L996.93 420.39 L1013.39 420.39 L1029.72 420.39 L1046.18 420.52 L1062.64 420.52 L1079.10 420.52 L1095.56 420.64 L1112.02 420.64 L1128.48 420.76 L1144.93 420.89 L1161.39 420.89 L1177.85 420.89 L1194.31 420.89 L1210.77 421.01 L1227.23 421.13 L1243.69 421.26 L1260.15 421.26 L1276.61 421.38 L1293.06 421.51 L1309.52 421.63 L1325.98 421.75 L1342.44 421.75 L1358.90 422.00 L1375.36 422.12 L1391.82 422.37 L1408.28 422.37 L1424.73 422.50 L1441.19 422.62 L1457.65 422.74 L1474.11 422.99 L1490.57 423.11 L1507.03 423.11 L1523.36 423.36 L1539.82 423.49 L1556.28 423.73 L1572.74 424.10 L1589.20 424.23 L1605.66 424.48 L1622.12 424.72 L1638.57 424.97 L1655.03 425.22 L1671.49 425.47 L1687.95 425.84 L1704.41 426.08 L1720.87 426.46 L1737.33 426.83 L1753.79 427.20 L1770.24 427.45 L1786.70 427.69 L1803.16 428.06 L1819.62 428.56 L1836.08 428.93 L1852.54 429.30 L1869.00 429.67 L1885.45 430.04 L1901.91 430.66 L1918.37 431.16 L1934.83 431.65 L1951.29 432.02 L1967.75 432.52 L1984.21 433.01 L2000.67 433.63 L2017.00 434.00 L2033.46 434.75 L2049.92 435.37 L2066.38 435.98 L2082.84 436.48 L2099.30 437.10 L2115.75 437.47 L2132.21 438.09 L2148.67 438.58 L2165.13 439.20 L2181.59 439.70 L2198.05 440.32 L2214.51 440.94 L2230.97 441.55 L2247.42 441.93 L2263.88 442.54 L2280.34 443.04 L2296.80 443.53 L2313.26 444.52 L2329.72 445.02 L2346.18 445.64 L2362.64 446.26 L2379.09 447.12 L2395.55 447.74 L2412.01 448.36 L2428.47 449.10 L2444.93 449.72 L2461.39 450.22 L2477.85 450.96 L2494.30 451.70 L2510.76 452.32 L2527.10 452.94 L2543.56 453.56 L2560.02 454.30 L2576.47 454.92 L2592.93 455.41 L2609.39 456.03 L2625.85 456.53 L2642.31 457.15 L2658.77 457.64 L2675.23 458.26 L2691.69 458.88 L2708.14 459.25 L2724.60 459.99 L2741.06 460.61 L2757.52 461.11 L2773.98 461.73 L2790.44 462.22 L2806.90 462.84 L2823.36 463.46 L2839.82 463.95 L2856.27 464.57 L2872.73 465.07 L2889.19 465.69 L2905.65 466.30 L2922.11 466.92 L2938.57 467.54 L2955.03 468.16 L2971.49 468.90 L2987.94 469.52 L3004.40 470.26 L3020.74 470.88 L3037.20 471.38 L3053.66 472.12 L3070.11 472.62 L3086.57 473.11 L3103.03 473.73 L3119.49 474.22 L3135.95 474.84 L3152.41 475.34 L3168.87 475.83 L3185.32 476.58 L3201.78 476.95 L3218.24 477.57 L3234.70 478.18 L3251.16 478.68 L3267.62 479.30 L3284.08 479.67 L3300.54 480.04 L3316.99 480.66 L3333.45 481.16 L3349.91 481.77 L3366.37 482.27 L3382.83 483.01 L3399.29 483.51 L3415.75 484.00 L3432.21 484.62 L3448.66 485.24 L3465.12 485.61 L3481.58 485.98 L3498.04 486.60 L3514.38 486.97 L3530.84 487.59 L3547.29 487.96 L3563.75 488.46 L3563.75 1673.77 L618.38 1673.77 L618.38 420.02 Z" stroke-linejoin="round"/>
	</defs>
	<defs>
		<clipPath id="clipPath_BsYlDHMz">
			<use xlink:href="#path_vJVmODjX"/>
		</clipPath>
	</defs>
	<use xlink:href="#path_vJVmODjX" style="stroke:none;fill:#779159"/>
	<use xlink:href="#path_vJVmODjX" style="fill:none;stroke:#55752F;stroke-width:17.28" clip-path="url(#clipPath_BsYlDHMz)"/>
	<defs>
		<path id="path_aTXpxxvq" d="M618.38 420.02 L618.38 420.02 L634.84 420.02 L651.30 420.02 L667.75 420.02 L684.21 420.02 L700.67 420.02 L717.13 420.02 L733.59 420.02 L750.05 420.02 L766.51 420.02 L782.97 420.02 L799.42 420.02 L815.88 420.02 L832.34 420.02 L848.80 420.14 L865.26 420.14 L881.72 420.14 L898.18 420.14 L914.64 420.14 L931.10 420.27 L947.55 420.27 L964.01 420.39 L980.47 420.39 L996.93 420.52 L1013.39 420.52 L1029.72 420.64 L1046.18 420.64 L1062.64 420.76 L1079.10 420.76 L1095.56 420.89 L1112.02 421.01 L1128.48 421.13 L1144.93 421.26 L1161.39 421.38 L1177.85 421.38 L1194.31 421.51 L1210.77 421.63 L1227.23 421.75 L1243.69 421.88 L1260.15 422.00 L1276.61 422.25 L1293.06 422.37 L1309.52 422.50 L1325.98 422.62 L1342.44 422.74 L1358.90 423.11 L1375.36 423.36 L1391.82 423.61 L1408.28 423.73 L1424.73 423.98 L1441.19 424.23 L1457.65 424.35 L1474.11 424.60 L1490.57 424.85 L1507.03 425.09 L1523.36 425.34 L1539.82 425.59 L1556.28 425.96 L1572.74 426.33 L1589.20 426.58 L1605.66 426.95 L1622.12 427.32 L1638.57 427.69 L1655.03 427.94 L1671.49 428.31 L1687.95 428.81 L1704.41 429.18 L1720.87 429.67 L1737.33 430.17 L1753.79 430.66 L1770.24 430.91 L1786.70 431.28 L1803.16 431.78 L1819.62 432.27 L1836.08 432.77 L1852.54 433.26 L1869.00 433.88 L1885.45 434.25 L1901.91 434.87 L1918.37 435.49 L1934.83 435.98 L1951.29 436.48 L1967.75 437.10 L1984.21 437.72 L2000.67 438.34 L2017.00 438.95 L2033.46 439.70 L2049.92 440.44 L2066.38 441.18 L2082.84 441.80 L2099.30 442.42 L2115.75 442.92 L2132.21 443.53 L2148.67 444.03 L2165.13 444.65 L2181.59 445.14 L2198.05 445.89 L2214.51 446.63 L2230.97 447.25 L2247.42 447.62 L2263.88 448.24 L2280.34 448.86 L2296.80 449.47 L2313.26 450.34 L2329.72 451.08 L2346.18 451.70 L2362.64 452.32 L2379.09 453.19 L2395.55 453.81 L2412.01 454.42 L2428.47 455.17 L2444.93 455.91 L2461.39 456.40 L2477.85 457.27 L2494.30 457.89 L2510.76 458.63 L2527.10 459.13 L2543.56 459.87 L2560.02 460.61 L2576.47 461.23 L2592.93 461.73 L2609.39 462.22 L2625.85 462.84 L2642.31 463.33 L2658.77 463.83 L2675.23 464.45 L2691.69 465.07 L2708.14 465.44 L2724.60 466.18 L2741.06 466.80 L2757.52 467.29 L2773.98 467.79 L2790.44 468.28 L2806.90 468.90 L2823.36 469.52 L2839.82 470.02 L2856.27 470.64 L2872.73 471.13 L2889.19 471.75 L2905.65 472.49 L2922.11 472.99 L2938.57 473.61 L2955.03 474.22 L2971.49 474.97 L2987.94 475.59 L3004.40 476.33 L3020.74 476.95 L3037.20 477.44 L3053.66 478.06 L3070.11 478.56 L3086.57 479.05 L3103.03 479.67 L3119.49 480.17 L3135.95 480.78 L3152.41 481.28 L3168.87 481.77 L3185.32 482.52 L3201.78 482.89 L3218.24 483.51 L3234.70 484.25 L3251.16 484.74 L3267.62 485.24 L3284.08 485.73 L3300.54 486.11 L3316.99 486.72 L3333.45 487.22 L3349.91 487.71 L3366.37 488.33 L3382.83 489.08 L3399.29 489.69 L3415.75 490.19 L3432.21 490.68 L3448.66 491.30 L3465.12 491.67 L3481.58 492.17 L3498.04 492.66 L3514.38 493.16 L3530.84 493.65 L3547.29 494.15 L3563.75 494.52 L3563.75 1673.77 L618.38 1673.77 L618.38 420.02 Z" stroke-linejoin="round"/>
	</defs>
	<defs>
		<clipPath id="clipPath_bDuvClwN">
			<use xlink:href="#path_aTXpxxvq"/>
		</clipPath>
	</defs>
	<use xlink:href="#path_aTXpxxvq" style="stroke:none;fill:#E99833"/>
	<use xlink:href="#path_aTXpxxvq" style="fill:none;stroke:#E37E00;stroke-width:17.28" clip-path="url(#clipPath_bDuvClwN)"/>
	<defs>
		<path id="path_cXifqKxl" d="M618.38 420.02 L618.38 420.02 L634.84 420.02 L651.30 420.02 L667.75 420.02 L684.21 420.02 L700.67 420.02 L717.13 420.02 L733.59 420.02 L750.05 420.14 L766.51 420.27 L782.97 420.27 L799.42 420.39 L815.88 420.52 L832.34 420.64 L848.80 420.64 L865.26 420.76 L881.72 420.89 L898.18 421.01 L914.64 421.26 L931.10 421.38 L947.55 421.51 L964.01 421.75 L980.47 422.00 L996.93 422.12 L1013.39 422.50 L1029.72 422.62 L1046.18 422.87 L1062.64 423.11 L1079.10 423.36 L1095.56 423.49 L1112.02 423.73 L1128.48 423.98 L1144.93 424.23 L1161.39 424.35 L1177.85 424.60 L1194.31 424.85 L1210.77 425.09 L1227.23 425.34 L1243.69 425.71 L1260.15 426.08 L1276.61 426.46 L1293.06 426.83 L1309.52 427.20 L1325.98 427.57 L1342.44 427.82 L1358.90 428.31 L1375.36 428.68 L1391.82 429.05 L1408.28 429.43 L1424.73 429.92 L1441.19 430.29 L1457.65 430.79 L1474.11 431.16 L1490.57 431.65 L1507.03 432.27 L1523.36 432.89 L1539.82 433.39 L1556.28 434.13 L1572.74 434.62 L1589.20 435.12 L1605.66 435.61 L1622.12 436.11 L1638.57 436.73 L1655.03 437.22 L1671.49 437.96 L1687.95 438.58 L1704.41 439.20 L1720.87 439.70 L1737.33 440.44 L1753.79 441.18 L1770.24 441.93 L1786.70 442.67 L1803.16 443.41 L1819.62 444.28 L1836.08 445.02 L1852.54 446.01 L1869.00 446.63 L1885.45 447.12 L1901.91 447.87 L1918.37 448.73 L1934.83 449.47 L1951.29 450.34 L1967.75 451.21 L1984.21 452.07 L2000.67 452.82 L2017.00 453.43 L2033.46 454.30 L2049.92 455.17 L2066.38 456.03 L2082.84 456.78 L2099.30 457.39 L2115.75 458.26 L2132.21 458.88 L2148.67 459.75 L2165.13 460.61 L2181.59 461.48 L2198.05 462.10 L2214.51 462.84 L2230.97 463.58 L2247.42 464.45 L2263.88 465.07 L2280.34 465.81 L2296.80 466.55 L2313.26 467.17 L2329.72 467.79 L2346.18 468.66 L2362.64 469.27 L2379.09 470.14 L2395.55 470.76 L2412.01 471.50 L2428.47 472.24 L2444.93 472.99 L2461.39 473.61 L2477.85 474.22 L2494.30 474.84 L2510.76 475.34 L2527.10 475.96 L2543.56 476.58 L2560.02 477.19 L2576.47 477.81 L2592.93 478.43 L2609.39 479.17 L2625.85 479.92 L2642.31 480.54 L2658.77 481.16 L2675.23 481.90 L2691.69 482.52 L2708.14 483.14 L2724.60 483.63 L2741.06 484.37 L2757.52 485.12 L2773.98 485.73 L2790.44 486.35 L2806.90 486.85 L2823.36 487.59 L2839.82 487.96 L2856.27 488.58 L2872.73 489.20 L2889.19 489.82 L2905.65 490.44 L2922.11 490.93 L2938.57 491.55 L2955.03 492.29 L2971.49 492.79 L2987.94 493.28 L3004.40 493.90 L3020.74 494.27 L3037.20 494.89 L3053.66 495.51 L3070.11 496.01 L3086.57 496.50 L3103.03 497.24 L3119.49 497.74 L3135.95 498.36 L3152.41 498.85 L3168.87 499.47 L3185.32 500.21 L3201.78 500.71 L3218.24 501.45 L3234.70 501.95 L3251.16 502.56 L3267.62 502.94 L3284.08 503.43 L3300.54 503.93 L3316.99 504.42 L3333.45 505.04 L3349.91 505.41 L3366.37 505.91 L3382.83 506.40 L3399.29 507.02 L3415.75 507.51 L3432.21 508.01 L3448.66 508.63 L3465.12 509.12 L3481.58 509.62 L3498.04 510.11 L3514.38 510.61 L3530.84 511.23 L3547.29 511.85 L3563.75 512.22 L3563.75 1673.77 L618.38 1673.77 L618.38 420.02 Z" stroke-linejoin="round"/>
	</defs>
	<defs>
		<clipPath id="clipPath_pgnZGOjs">
			<use xlink:href="#path_cXifqKxl"/>
		</clipPath>
	</defs>
	<use xlink:href="#path_cXifqKxl" style="stroke:none;fill:#8BA59D"/>
	<use xlink:href="#path_cXifqKxl" style="fill:none;stroke:#6E8E84;stroke-width:17.28" clip-path="url(#clipPath_pgnZGOjs)"/>
	<defs>
		<path id="path_cEAmNkml" d="M618.38 420.39 L618.38 420.39 L634.84 420.64 L651.30 420.76 L667.75 421.01 L684.21 421.26 L700.67 421.51 L717.13 421.88 L733.59 422.12 L750.05 422.62 L766.51 422.99 L782.97 423.49 L799.42 424.10 L815.88 424.48 L832.34 425.09 L848.80 425.84 L865.26 426.33 L881.72 426.95 L898.18 427.45 L914.64 428.06 L931.10 428.56 L947.55 429.18 L964.01 429.80 L980.47 430.42 L996.93 431.03 L1013.39 431.78 L1029.72 432.40 L1046.18 433.01 L1062.64 433.63 L1079.10 434.13 L1095.56 434.87 L1112.02 435.37 L1128.48 435.98 L1144.93 436.73 L1161.39 437.22 L1177.85 437.84 L1194.31 438.21 L1210.77 438.71 L1227.23 439.20 L1243.69 439.94 L1260.15 440.56 L1276.61 441.18 L1293.06 441.80 L1309.52 442.54 L1325.98 443.16 L1342.44 443.66 L1358.90 444.28 L1375.36 445.02 L1391.82 445.64 L1408.28 446.38 L1424.73 447.12 L1441.19 447.99 L1457.65 448.61 L1474.11 449.35 L1490.57 449.97 L1507.03 450.59 L1523.36 451.58 L1539.82 452.20 L1556.28 453.06 L1572.74 453.81 L1589.20 454.67 L1605.66 455.29 L1622.12 456.03 L1638.57 456.78 L1655.03 457.39 L1671.49 458.26 L1687.95 459.00 L1704.41 459.87 L1720.87 460.74 L1737.33 461.73 L1753.79 462.72 L1770.24 463.58 L1786.70 464.32 L1803.16 465.19 L1819.62 466.18 L1836.08 467.05 L1852.54 468.16 L1869.00 468.78 L1885.45 469.52 L1901.91 470.39 L1918.37 471.25 L1934.83 472.12 L1951.29 473.11 L1967.75 474.22 L1984.21 475.21 L2000.67 476.20 L2017.00 476.95 L2033.46 477.81 L2049.92 478.80 L2066.38 479.67 L2082.84 480.66 L2099.30 481.53 L2115.75 482.39 L2132.21 483.14 L2148.67 484.13 L2165.13 484.99 L2181.59 486.11 L2198.05 486.85 L2214.51 487.71 L2230.97 488.46 L2247.42 489.32 L2263.88 490.31 L2280.34 491.18 L2296.80 492.17 L2313.26 492.91 L2329.72 493.65 L2346.18 494.40 L2362.64 495.26 L2379.09 496.13 L2395.55 497.00 L2412.01 497.86 L2428.47 498.73 L2444.93 499.59 L2461.39 500.34 L2477.85 501.08 L2494.30 501.82 L2510.76 502.44 L2527.10 503.06 L2543.56 503.68 L2560.02 504.42 L2576.47 505.16 L2592.93 505.91 L2609.39 506.77 L2625.85 507.51 L2642.31 508.38 L2658.77 509.00 L2675.23 509.99 L2691.69 510.61 L2708.14 511.35 L2724.60 511.85 L2741.06 512.59 L2757.52 513.45 L2773.98 514.07 L2790.44 514.82 L2806.90 515.43 L2823.36 516.18 L2839.82 516.67 L2856.27 517.29 L2872.73 518.03 L2889.19 518.78 L2905.65 519.64 L2922.11 520.01 L2938.57 520.76 L2955.03 521.50 L2971.49 521.99 L2987.94 522.61 L3004.40 523.36 L3020.74 523.85 L3037.20 524.59 L3053.66 525.34 L3070.11 525.95 L3086.57 526.45 L3103.03 527.32 L3119.49 527.93 L3135.95 528.55 L3152.41 529.17 L3168.87 529.79 L3185.32 530.53 L3201.78 531.15 L3218.24 531.89 L3234.70 532.39 L3251.16 533.01 L3267.62 533.50 L3284.08 534.12 L3300.54 534.62 L3316.99 535.24 L3333.45 535.85 L3349.91 536.35 L3366.37 536.97 L3382.83 537.46 L3399.29 538.21 L3415.75 538.70 L3432.21 539.20 L3448.66 539.94 L3465.12 540.43 L3481.58 540.93 L3498.04 541.55 L3514.38 542.17 L3530.84 542.91 L3547.29 543.53 L3563.75 543.90 L3563.75 1673.77 L618.38 1673.77 L618.38 420.39 Z" stroke-linejoin="round"/>
	</defs>
	<defs>
		<clipPath id="clipPath_NONvWwvI">
			<use xlink:href="#path_cEAmNkml"/>
		</clipPath>
	</defs>
	<use xlink:href="#path_cEAmNkml" style="stroke:none;fill:#CD375D"/>
	<use xlink:href="#path_cEAmNkml" style="fill:none;stroke:#C10534;stroke-width:17.28" clip-path="url(#clipPath_NONvWwvI)"/>
	<defs>
		<path id="path_ZoavkfNH" d="M618.38 420.52 L618.38 420.52 L634.84 420.64 L651.30 420.89 L667.75 421.13 L684.21 421.38 L700.67 421.63 L717.13 422.12 L733.59 422.37 L750.05 422.99 L766.51 423.49 L782.97 424.10 L799.42 424.72 L815.88 425.34 L832.34 426.08 L848.80 427.07 L865.26 427.82 L881.72 428.68 L898.18 429.43 L914.64 430.42 L931.10 431.28 L947.55 432.15 L964.01 433.14 L980.47 434.13 L996.93 435.12 L1013.39 436.23 L1029.72 437.10 L1046.18 438.34 L1062.64 439.45 L1079.10 440.69 L1095.56 441.93 L1112.02 443.04 L1128.48 444.28 L1144.93 445.51 L1161.39 446.63 L1177.85 447.87 L1194.31 449.10 L1210.77 450.22 L1227.23 451.21 L1243.69 452.57 L1260.15 453.93 L1276.61 455.17 L1293.06 456.28 L1309.52 457.77 L1325.98 458.88 L1342.44 460.12 L1358.90 461.48 L1375.36 462.72 L1391.82 464.20 L1408.28 465.44 L1424.73 466.68 L1441.19 467.91 L1457.65 469.15 L1474.11 470.51 L1490.57 471.50 L1507.03 472.37 L1523.36 473.85 L1539.82 474.97 L1556.28 476.33 L1572.74 477.57 L1589.20 478.80 L1605.66 480.04 L1622.12 481.16 L1638.57 482.27 L1655.03 483.38 L1671.49 484.62 L1687.95 485.73 L1704.41 487.10 L1720.87 488.33 L1737.33 489.32 L1753.79 490.56 L1770.24 491.67 L1786.70 492.79 L1803.16 493.78 L1819.62 494.89 L1836.08 495.88 L1852.54 497.00 L1869.00 497.99 L1885.45 498.98 L1901.91 499.97 L1918.37 501.08 L1934.83 501.95 L1951.29 503.18 L1967.75 504.42 L1984.21 505.41 L2000.67 506.40 L2017.00 507.27 L2033.46 508.13 L2049.92 509.37 L2066.38 510.24 L2082.84 511.23 L2099.30 511.97 L2115.75 512.96 L2132.21 513.83 L2148.67 514.82 L2165.13 515.68 L2181.59 516.80 L2198.05 517.66 L2214.51 518.40 L2230.97 519.15 L2247.42 520.14 L2263.88 521.00 L2280.34 521.87 L2296.80 522.86 L2313.26 523.73 L2329.72 524.47 L2346.18 525.21 L2362.64 525.95 L2379.09 526.94 L2395.55 527.93 L2412.01 528.68 L2428.47 529.54 L2444.93 530.41 L2461.39 531.15 L2477.85 532.02 L2494.30 532.76 L2510.76 533.38 L2527.10 534.00 L2543.56 534.86 L2560.02 535.48 L2576.47 536.35 L2592.93 536.97 L2609.39 537.83 L2625.85 538.58 L2642.31 539.44 L2658.77 540.06 L2675.23 541.05 L2691.69 541.67 L2708.14 542.29 L2724.60 542.78 L2741.06 543.53 L2757.52 544.39 L2773.98 544.89 L2790.44 545.51 L2806.90 546.13 L2823.36 546.74 L2839.82 547.36 L2856.27 547.98 L2872.73 548.72 L2889.19 549.47 L2905.65 550.21 L2922.11 550.70 L2938.57 551.45 L2955.03 552.07 L2971.49 552.68 L2987.94 553.30 L3004.40 553.92 L3020.74 554.54 L3037.20 555.28 L3053.66 556.03 L3070.11 556.64 L3086.57 557.14 L3103.03 558.01 L3119.49 558.62 L3135.95 559.24 L3152.41 559.86 L3168.87 560.48 L3185.32 561.22 L3201.78 561.84 L3218.24 562.46 L3234.70 563.08 L3251.16 563.70 L3267.62 564.32 L3284.08 564.81 L3300.54 565.31 L3316.99 565.93 L3333.45 566.42 L3349.91 567.04 L3366.37 567.66 L3382.83 568.03 L3399.29 568.77 L3415.75 569.39 L3432.21 569.89 L3448.66 570.51 L3465.12 571.00 L3481.58 571.50 L3498.04 572.11 L3514.38 572.73 L3530.84 573.48 L3547.29 573.97 L3563.75 574.34 L3563.75 1673.77 L618.38 1673.77 L618.38 420.52 Z" stroke-linejoin="round"/>
	</defs>
	<defs>
		<clipPath id="clipPath_IwpEpQDN">
			<use xlink:href="#path_ZoavkfNH"/>
		</clipPath>
	</defs>
	<use xlink:href="#path_ZoavkfNH" style="stroke:none;fill:#A9A4DB"/>
	<use xlink:href="#path_ZoavkfNH" style="fill:none;stroke:#938DD2;stroke-width:17.28" clip-path="url(#clipPath_IwpEpQDN)"/>
	<defs>
		<path id="path_UJsKbDts" d="M618.38 425.22 L618.38 425.22 L634.84 426.33 L651.30 427.45 L667.75 428.81 L684.21 430.29 L700.67 431.78 L717.13 433.26 L733.59 434.87 L750.05 436.36 L766.51 437.72 L782.97 439.20 L799.42 440.81 L815.88 442.67 L832.34 444.65 L848.80 446.26 L865.26 448.11 L881.72 449.72 L898.18 451.58 L914.64 453.31 L931.10 454.80 L947.55 456.65 L964.01 458.14 L980.47 459.75 L996.93 461.23 L1013.39 462.84 L1029.72 464.45 L1046.18 466.18 L1062.64 467.67 L1079.10 469.03 L1095.56 470.51 L1112.02 471.87 L1128.48 473.36 L1144.93 474.97 L1161.39 476.45 L1177.85 478.06 L1194.31 479.55 L1210.77 481.03 L1227.23 482.27 L1243.69 483.51 L1260.15 484.87 L1276.61 486.35 L1293.06 487.71 L1309.52 488.95 L1325.98 490.31 L1342.44 491.80 L1358.90 493.04 L1375.36 494.27 L1391.82 495.76 L1408.28 497.12 L1424.73 498.48 L1441.19 499.84 L1457.65 500.96 L1474.11 501.95 L1490.57 503.06 L1507.03 504.42 L1523.36 505.78 L1539.82 506.77 L1556.28 507.89 L1572.74 509.25 L1589.20 510.36 L1605.66 511.60 L1622.12 512.59 L1638.57 513.83 L1655.03 515.06 L1671.49 516.18 L1687.95 517.41 L1704.41 518.28 L1720.87 519.27 L1737.33 520.39 L1753.79 521.38 L1770.24 522.49 L1786.70 523.48 L1803.16 524.59 L1819.62 525.83 L1836.08 526.94 L1852.54 527.81 L1869.00 528.80 L1885.45 529.67 L1901.91 530.53 L1918.37 531.40 L1934.83 532.27 L1951.29 533.26 L1967.75 534.37 L1984.21 535.36 L2000.67 536.35 L2017.00 537.22 L2033.46 538.08 L2049.92 539.20 L2066.38 540.19 L2082.84 540.93 L2099.30 541.92 L2115.75 542.78 L2132.21 543.65 L2148.67 544.27 L2165.13 545.01 L2181.59 545.88 L2198.05 546.74 L2214.51 547.73 L2230.97 548.48 L2247.42 549.22 L2263.88 550.21 L2280.34 550.95 L2296.80 551.69 L2313.26 552.19 L2329.72 553.06 L2346.18 553.92 L2362.64 554.66 L2379.09 555.41 L2395.55 556.15 L2412.01 556.52 L2428.47 557.39 L2444.93 558.25 L2461.39 558.87 L2477.85 559.37 L2494.30 560.11 L2510.76 560.85 L2527.10 561.72 L2543.56 562.34 L2560.02 563.08 L2576.47 563.70 L2592.93 564.57 L2609.39 565.31 L2625.85 566.17 L2642.31 566.79 L2658.77 567.29 L2675.23 568.03 L2691.69 568.77 L2708.14 569.52 L2724.60 570.13 L2741.06 570.88 L2757.52 571.50 L2773.98 572.11 L2790.44 572.61 L2806.90 573.48 L2823.36 574.09 L2839.82 574.71 L2856.27 575.46 L2872.73 576.20 L2889.19 576.82 L2905.65 577.68 L2922.11 578.18 L2938.57 578.80 L2955.03 579.42 L2971.49 580.03 L2987.94 580.78 L3004.40 581.27 L3020.74 582.01 L3037.20 582.51 L3053.66 583.13 L3070.11 583.62 L3086.57 584.12 L3103.03 584.86 L3119.49 585.36 L3135.95 586.10 L3152.41 586.59 L3168.87 587.21 L3185.32 587.71 L3201.78 588.20 L3218.24 588.70 L3234.70 589.32 L3251.16 589.93 L3267.62 590.43 L3284.08 591.05 L3300.54 591.79 L3316.99 592.29 L3333.45 592.90 L3349.91 593.40 L3366.37 593.89 L3382.83 594.39 L3399.29 594.88 L3415.75 595.50 L3432.21 596.00 L3448.66 596.49 L3465.12 596.99 L3481.58 597.48 L3498.04 597.98 L3514.38 598.47 L3530.84 598.84 L3547.29 599.34 L3563.75 599.83 L3563.75 1673.77 L618.38 1673.77 L618.38 425.22 Z" stroke-linejoin="round"/>
	</defs>
	<defs>
		<clipPath id="clipPath_rvITTmvT">
			<use xlink:href="#path_UJsKbDts"/>
		</clipPath>
	</defs>
	<use xlink:href="#path_UJsKbDts" style="stroke:none;fill:#D5CE98"/>
	<use xlink:href="#path_UJsKbDts" style="fill:none;stroke:#CAC27E;stroke-width:17.28" clip-path="url(#clipPath_rvITTmvT)"/>
	<defs>
		<path id="path_ghoQtzsA" d="M618.38 783.86 L618.38 783.86 L634.84 823.21 L651.30 861.33 L667.75 897.22 L684.21 928.90 L700.67 958.84 L717.13 987.80 L733.59 1013.05 L750.05 1037.92 L766.51 1059.70 L782.97 1079.26 L799.42 1097.33 L815.88 1113.41 L832.34 1128.39 L848.80 1142.62 L865.26 1156.48 L881.72 1169.85 L898.18 1181.73 L914.64 1192.86 L931.10 1204.13 L947.55 1213.78 L964.01 1222.56 L980.47 1230.86 L996.93 1238.40 L1013.39 1245.71 L1029.72 1252.64 L1046.18 1258.95 L1062.64 1264.89 L1079.10 1270.33 L1095.56 1275.65 L1112.02 1279.99 L1128.48 1284.94 L1144.93 1289.02 L1161.39 1292.61 L1177.85 1295.95 L1194.31 1299.54 L1210.77 1303.00 L1227.23 1306.10 L1243.69 1308.82 L1260.15 1311.42 L1276.61 1313.77 L1293.06 1316.00 L1309.52 1318.23 L1325.98 1320.45 L1342.44 1322.56 L1358.90 1324.17 L1375.36 1325.90 L1391.82 1327.63 L1408.28 1329.36 L1424.73 1330.73 L1441.19 1332.46 L1457.65 1333.70 L1474.11 1335.06 L1490.57 1336.42 L1507.03 1337.66 L1523.36 1338.77 L1539.82 1340.01 L1556.28 1341.37 L1572.74 1342.48 L1589.20 1343.72 L1605.66 1344.83 L1622.12 1345.82 L1638.57 1346.94 L1655.03 1347.80 L1671.49 1348.67 L1687.95 1349.66 L1704.41 1350.28 L1720.87 1351.14 L1737.33 1351.89 L1753.79 1352.63 L1770.24 1353.37 L1786.70 1353.99 L1803.16 1354.61 L1819.62 1355.35 L1836.08 1355.85 L1852.54 1356.34 L1869.00 1356.96 L1885.45 1357.46 L1901.91 1358.07 L1918.37 1358.69 L1934.83 1359.19 L1951.29 1359.81 L1967.75 1360.43 L1984.21 1360.92 L2000.67 1361.42 L2017.00 1361.91 L2033.46 1362.41 L2049.92 1362.90 L2066.38 1363.27 L2082.84 1363.64 L2099.30 1364.02 L2115.75 1364.51 L2132.21 1364.88 L2148.67 1365.25 L2165.13 1365.62 L2181.59 1366.00 L2198.05 1366.24 L2214.51 1366.74 L2230.97 1367.11 L2247.42 1367.36 L2263.88 1367.73 L2280.34 1368.10 L2296.80 1368.47 L2313.26 1368.72 L2329.72 1369.09 L2346.18 1369.34 L2362.64 1369.58 L2379.09 1369.96 L2395.55 1370.20 L2412.01 1370.33 L2428.47 1370.57 L2444.93 1370.95 L2461.39 1371.19 L2477.85 1371.32 L2494.30 1371.69 L2510.76 1371.94 L2527.10 1372.31 L2543.56 1372.55 L2560.02 1372.80 L2576.47 1373.05 L2592.93 1373.30 L2609.39 1373.67 L2625.85 1373.92 L2642.31 1374.16 L2658.77 1374.41 L2675.23 1374.78 L2691.69 1375.03 L2708.14 1375.28 L2724.60 1375.52 L2741.06 1375.77 L2757.52 1376.02 L2773.98 1376.27 L2790.44 1376.51 L2806.90 1376.76 L2823.36 1377.01 L2839.82 1377.26 L2856.27 1377.50 L2872.73 1377.75 L2889.19 1378.12 L2905.65 1378.37 L2922.11 1378.49 L2938.57 1378.74 L2955.03 1378.99 L2971.49 1379.24 L2987.94 1379.36 L3004.40 1379.61 L3020.74 1379.86 L3037.20 1379.98 L3053.66 1380.10 L3070.11 1380.35 L3086.57 1380.60 L3103.03 1380.85 L3119.49 1380.97 L3135.95 1381.22 L3152.41 1381.34 L3168.87 1381.59 L3185.32 1381.59 L3201.78 1381.84 L3218.24 1381.96 L3234.70 1382.08 L3251.16 1382.33 L3267.62 1382.45 L3284.08 1382.70 L3300.54 1382.83 L3316.99 1383.07 L3333.45 1383.32 L3349.91 1383.44 L3366.37 1383.69 L3382.83 1383.82 L3399.29 1384.06 L3415.75 1384.19 L3432.21 1384.43 L3448.66 1384.56 L3465.12 1384.68 L3481.58 1384.81 L3498.04 1384.93 L3514.38 1385.18 L3530.84 1385.30 L3547.29 1385.42 L3563.75 1385.55 L3563.75 1673.77 L618.38 1673.77 L618.38 783.86 Z" stroke-linejoin="round"/>
	</defs>
	<defs>
		<clipPath id="clipPath_jewzUvUo">
			<use xlink:href="#path_ghoQtzsA"/>
		</clipPath>
	</defs>
	<use xlink:href="#path_ghoQtzsA" style="stroke:none;fill:#B37557"/>
	<use xlink:href="#path_ghoQtzsA" style="fill:none;stroke:#A0522D;stroke-width:17.28" clip-path="url(#clipPath_jewzUvUo)"/>
	<defs>
		<path id="path_lsyfcTHR" d="M618.38 792.15 L618.38 792.15 L634.84 832.62 L651.30 872.22 L667.75 909.47 L684.21 942.63 L700.67 974.07 L717.13 1005.01 L733.59 1031.98 L750.05 1058.59 L766.51 1082.48 L782.97 1104.26 L799.42 1124.92 L815.88 1143.73 L832.34 1162.30 L848.80 1180.74 L865.26 1198.80 L881.72 1216.01 L898.18 1231.72 L914.64 1246.70 L931.10 1261.42 L947.55 1274.17 L964.01 1285.43 L980.47 1296.82 L996.93 1307.58 L1013.39 1317.85 L1029.72 1327.88 L1046.18 1337.41 L1062.64 1346.94 L1079.10 1356.47 L1095.56 1365.75 L1112.02 1373.92 L1128.48 1382.45 L1144.93 1390.00 L1161.39 1396.93 L1177.85 1402.75 L1194.31 1409.31 L1210.77 1415.25 L1227.23 1420.69 L1243.69 1425.27 L1260.15 1429.73 L1276.61 1433.81 L1293.06 1437.65 L1309.52 1441.61 L1325.98 1445.32 L1342.44 1448.91 L1358.90 1451.76 L1375.36 1454.48 L1391.82 1457.20 L1408.28 1460.17 L1424.73 1462.40 L1441.19 1464.87 L1457.65 1466.85 L1474.11 1469.21 L1490.57 1471.19 L1507.03 1473.29 L1523.36 1475.27 L1539.82 1477.13 L1556.28 1478.86 L1572.74 1480.72 L1589.20 1482.32 L1605.66 1483.69 L1622.12 1485.29 L1638.57 1487.03 L1655.03 1488.39 L1671.49 1489.75 L1687.95 1490.86 L1704.41 1492.10 L1720.87 1493.34 L1737.33 1494.58 L1753.79 1495.57 L1770.24 1496.68 L1786.70 1497.55 L1803.16 1498.41 L1819.62 1499.28 L1836.08 1500.14 L1852.54 1500.89 L1869.00 1501.88 L1885.45 1502.62 L1901.91 1503.49 L1918.37 1504.10 L1934.83 1504.97 L1951.29 1505.71 L1967.75 1506.58 L1984.21 1507.20 L2000.67 1507.94 L2017.00 1508.56 L2033.46 1509.18 L2049.92 1509.80 L2066.38 1510.29 L2082.84 1510.66 L2099.30 1511.16 L2115.75 1511.65 L2132.21 1512.15 L2148.67 1512.52 L2165.13 1513.01 L2181.59 1513.39 L2198.05 1513.76 L2214.51 1514.13 L2230.97 1514.50 L2247.42 1514.75 L2263.88 1515.12 L2280.34 1515.49 L2296.80 1515.86 L2313.26 1516.23 L2329.72 1516.60 L2346.18 1516.97 L2362.64 1517.10 L2379.09 1517.47 L2395.55 1517.72 L2412.01 1517.96 L2428.47 1518.34 L2444.93 1518.58 L2461.39 1518.83 L2477.85 1519.08 L2494.30 1519.33 L2510.76 1519.57 L2527.10 1520.07 L2543.56 1520.19 L2560.02 1520.44 L2576.47 1520.69 L2592.93 1520.94 L2609.39 1521.18 L2625.85 1521.43 L2642.31 1521.68 L2658.77 1521.80 L2675.23 1522.05 L2691.69 1522.30 L2708.14 1522.54 L2724.60 1522.67 L2741.06 1522.92 L2757.52 1523.16 L2773.98 1523.29 L2790.44 1523.41 L2806.90 1523.66 L2823.36 1523.91 L2839.82 1524.03 L2856.27 1524.28 L2872.73 1524.52 L2889.19 1524.77 L2905.65 1524.90 L2922.11 1525.02 L2938.57 1525.14 L2955.03 1525.39 L2971.49 1525.64 L2987.94 1525.76 L3004.40 1525.89 L3020.74 1526.01 L3037.20 1526.13 L3053.66 1526.26 L3070.11 1526.50 L3086.57 1526.63 L3103.03 1526.88 L3119.49 1527.00 L3135.95 1527.12 L3152.41 1527.25 L3168.87 1527.37 L3185.32 1527.49 L3201.78 1527.49 L3218.24 1527.62 L3234.70 1527.87 L3251.16 1527.87 L3267.62 1527.99 L3284.08 1528.24 L3300.54 1528.36 L3316.99 1528.48 L3333.45 1528.61 L3349.91 1528.73 L3366.37 1528.86 L3382.83 1528.98 L3399.29 1529.10 L3415.75 1529.23 L3432.21 1529.35 L3448.66 1529.35 L3465.12 1529.47 L3481.58 1529.47 L3498.04 1529.60 L3514.38 1529.72 L3530.84 1529.72 L3547.29 1529.85 L3563.75 1529.97 L3563.75 1673.77 L618.38 1673.77 L618.38 792.15 Z" stroke-linejoin="round"/>
	</defs>
	<defs>
		<clipPath id="clipPath_lUwzrJkj">
			<use xlink:href="#path_lsyfcTHR"/>
		</clipPath>
	</defs>
	<use xlink:href="#path_lsyfcTHR" style="stroke:none;fill:#95A8B9"/>
	<use xlink:href="#path_lsyfcTHR" style="fill:none;stroke:#7B92A8;stroke-width:17.28" clip-path="url(#clipPath_lUwzrJkj)"/>
	<line x1="465.80" y1="1673.65" x2="465.80" y2="419.90" style="stroke:#000000;stroke-width:5.76"/>
	<line x1="465.80" y1="1673.65" x2="425.82" y2="1673.65" style="stroke:#000000;stroke-width:5.76"/>
	<text x="405.78" y="1708.68" style="font-family:'Helvetica';font-size:99.99px;fill:#000000" text-anchor="end">0.0</text>
	<line x1="465.80" y1="1548.28" x2="425.82" y2="1548.28" style="stroke:#000000;stroke-width:5.76"/>
	<text x="405.78" y="1583.31" style="font-family:'Helvetica';font-size:99.99px;fill:#000000" text-anchor="end">0.1</text>
	<line x1="465.80" y1="1422.92" x2="425.82" y2="1422.92" style="stroke:#000000;stroke-width:5.76"/>
	<text x="405.78" y="1457.95" style="font-family:'Helvetica';font-size:99.99px;fill:#000000" text-anchor="end">0.2</text>
	<line x1="465.80" y1="1297.56" x2="425.82" y2="1297.56" style="stroke:#000000;stroke-width:5.76"/>
	<text x="405.78" y="1332.59" style="font-family:'Helvetica';font-size:99.99px;fill:#000000" text-anchor="end">0.3</text>
	<line x1="465.80" y1="1172.20" x2="425.82" y2="1172.20" style="stroke:#000000;stroke-width:5.76"/>
	<text x="405.78" y="1207.23" style="font-family:'Helvetica';font-size:99.99px;fill:#000000" text-anchor="end">0.4</text>
	<line x1="465.80" y1="1046.83" x2="425.82" y2="1046.83" style="stroke:#000000;stroke-width:5.76"/>
	<text x="405.78" y="1081.86" style="font-family:'Helvetica';font-size:99.99px;fill:#000000" text-anchor="end">0.5</text>
	<line x1="465.80" y1="921.47" x2="425.82" y2="921.47" style="stroke:#000000;stroke-width:5.76"/>
	<text x="405.78" y="956.50" style="font-family:'Helvetica';font-size:99.99px;fill:#000000" text-anchor="end">0.6</text>
	<line x1="465.80" y1="796.11" x2="425.82" y2="796.11" style="stroke:#000000;stroke-width:5.76"/>
	<text x="405.78" y="831.14" style="font-family:'Helvetica';font-size:99.99px;fill:#000000" text-anchor="end">0.7</text>
	<line x1="465.80" y1="670.62" x2="425.82" y2="670.62" style="stroke:#000000;stroke-width:5.76"/>
	<text x="405.78" y="705.65" style="font-family:'Helvetica';font-size:99.99px;fill:#000000" text-anchor="end">0.8</text>
	<line x1="465.80" y1="545.26" x2="425.82" y2="545.26" style="stroke:#000000;stroke-width:5.76"/>
	<text x="405.78" y="580.29" style="font-family:'Helvetica';font-size:99.99px;fill:#000000" text-anchor="end">0.9</text>
	<line x1="465.80" y1="419.90" x2="425.82" y2="419.90" style="stroke:#000000;stroke-width:5.76"/>
	<text x="405.78" y="454.93" style="font-family:'Helvetica';font-size:99.99px;fill:#000000" text-anchor="end">1.0</text>
	<text x="190.71" y="1046.83" style="font-family:'Helvetica';font-size:99.99px;fill:#000000" transform="rotate(-90 190.71,1046.83)" text-anchor="middle">Transition Probability</text>
	<line x1="465.80" y1="1673.65" x2="3859.02" y2="1673.65" style="stroke:#000000;stroke-width:5.76"/>
	<line x1="465.80" y1="1673.65" x2="465.80" y2="1713.74" style="stroke:#000000;stroke-width:5.76"/>
	<text x="465.80" y="1803.60" style="font-family:'Helvetica';font-size:99.99px;fill:#000000" text-anchor="middle">0</text>
	<line x1="1314.10" y1="1673.65" x2="1314.10" y2="1713.74" style="stroke:#000000;stroke-width:5.76"/>
	<text x="1314.10" y="1803.60" style="font-family:'Helvetica';font-size:99.99px;fill:#000000" text-anchor="middle">500</text>
	<line x1="2162.41" y1="1673.65" x2="2162.41" y2="1713.74" style="stroke:#000000;stroke-width:5.76"/>
	<text x="2162.41" y="1803.60" style="font-family:'Helvetica';font-size:99.99px;fill:#000000" text-anchor="middle">1000</text>
	<line x1="3010.71" y1="1673.65" x2="3010.71" y2="1713.74" style="stroke:#000000;stroke-width:5.76"/>
	<text x="3010.71" y="1803.60" style="font-family:'Helvetica';font-size:99.99px;fill:#000000" text-anchor="middle">1500</text>
	<line x1="3859.02" y1="1673.65" x2="3859.02" y2="1713.74" style="stroke:#000000;stroke-width:5.76"/>
	<text x="3859.02" y="1803.60" style="font-family:'Helvetica';font-size:99.99px;fill:#000000" text-anchor="middle">2000</text>
	<text x="2162.41" y="1913.62" style="font-family:'Helvetica';font-size:99.99px;fill:#000000" text-anchor="middle">Follow-up time</text>
	<rect x="585.34" y="1998.25" width="3154.26" height="746.36" style="fill:#FFFFFF"/>
	<rect x="588.22" y="2001.13" width="3148.50" height="740.60" style="fill:none;stroke:#000000;stroke-width:5.76"/>
	<rect x="628.53" y="2041.44" width="374.34" height="99.99" style="fill:#95A8B9"/>
	<rect x="632.85" y="2045.76" width="365.70" height="91.35" style="fill:none;stroke:#7B92A8;stroke-width:8.64"/>
	<rect x="2203.24" y="2041.44" width="374.34" height="99.99" style="fill:#B37557"/>
	<rect x="2207.56" y="2045.76" width="365.70" height="91.35" style="fill:none;stroke:#A0522D;stroke-width:8.64"/>
	<rect x="628.53" y="2181.41" width="374.34" height="99.99" style="fill:#D5CE98"/>
	<rect x="632.85" y="2185.73" width="365.70" height="91.35" style="fill:none;stroke:#CAC27E;stroke-width:8.64"/>
	<rect x="2203.24" y="2181.41" width="374.34" height="99.99" style="fill:#A9A4DB"/>
	<rect x="2207.56" y="2185.73" width="365.70" height="91.35" style="fill:none;stroke:#938DD2;stroke-width:8.64"/>
	<rect x="628.53" y="2321.50" width="374.34" height="99.99" style="fill:#CD375D"/>
	<rect x="632.85" y="2325.82" width="365.70" height="91.35" style="fill:none;stroke:#C10534;stroke-width:8.64"/>
	<rect x="2203.24" y="2321.50" width="374.34" height="99.99" style="fill:#8BA59D"/>
	<rect x="2207.56" y="2325.82" width="365.70" height="91.35" style="fill:none;stroke:#6E8E84;stroke-width:8.64"/>
	<rect x="628.53" y="2461.46" width="374.34" height="99.99" style="fill:#E99833"/>
	<rect x="632.85" y="2465.78" width="365.70" height="91.35" style="fill:none;stroke:#E37E00;stroke-width:8.64"/>
	<rect x="2203.24" y="2461.46" width="374.34" height="99.99" style="fill:#779159"/>
	<rect x="2207.56" y="2465.78" width="365.70" height="91.35" style="fill:none;stroke:#55752F;stroke-width:8.64"/>
	<rect x="628.53" y="2601.43" width="374.34" height="99.99" style="fill:#A65D62"/>
	<rect x="632.85" y="2605.75" width="365.70" height="91.35" style="fill:none;stroke:#90353B;stroke-width:8.64"/>
	<rect x="2203.24" y="2601.43" width="374.34" height="99.99" style="fill:#486C8C"/>
	<rect x="2207.56" y="2605.75" width="365.70" height="91.35" style="fill:none;stroke:#1A476F;stroke-width:8.64"/>
	<text x="1062.89" y="2126.47" style="font-family:'Helvetica';font-size:99.99px;fill:#000000">P(Y(t) = 1 | Y(90) = 1)</text>
	<text x="2637.61" y="2126.47" style="font-family:'Helvetica';font-size:99.99px;fill:#000000">P(Y(t) = 2 | Y(90) = 1)</text>
	<text x="1062.89" y="2266.43" style="font-family:'Helvetica';font-size:99.99px;fill:#000000">P(Y(t) = 3 | Y(90) = 1)</text>
	<text x="2637.61" y="2266.43" style="font-family:'Helvetica';font-size:99.99px;fill:#000000">P(Y(t) = 4 | Y(90) = 1)</text>
	<text x="1062.89" y="2406.52" style="font-family:'Helvetica';font-size:99.99px;fill:#000000">P(Y(t) = 5 | Y(90) = 1)</text>
	<text x="2637.61" y="2406.52" style="font-family:'Helvetica';font-size:99.99px;fill:#000000">P(Y(t) = 6 | Y(90) = 1)</text>
	<text x="1062.89" y="2546.49" style="font-family:'Helvetica';font-size:99.99px;fill:#000000">P(Y(t) = 7 | Y(90) = 1)</text>
	<text x="2637.61" y="2546.49" style="font-family:'Helvetica';font-size:99.99px;fill:#000000">P(Y(t) = 8 | Y(90) = 1)</text>
	<text x="1062.89" y="2686.46" style="font-family:'Helvetica';font-size:99.99px;fill:#000000">P(Y(t) = 9 | Y(90) = 1)</text>
	<text x="2637.61" y="2686.46" style="font-family:'Helvetica';font-size:99.99px;fill:#000000">P(Y(t) = 10 | Y(90) = 1)</text>
	<text x="2162.41" y="369.63" style="font-family:'Helvetica';font-size:110.01px;fill:#000000" text-anchor="middle">From TD(2), Residential (RP)</text>
	<text x="2162.41" y="215.98" style="font-family:'Helvetica';font-size:139.96px;fill:#1E2D53" text-anchor="middle">P(Y(t) = b | Y(90) = 1, at1)</text>
</svg>
