<?xml version="1.0" encoding="UTF-8" standalone="no"?>
<!-- This is a Stata 16.1 generated SVG file (http://www.stata.com) -->

<svg version="1.1" width="5.50in" height="4.00in" viewBox="0 0 3960 2880" xmlns="http://www.w3.org/2000/svg" xmlns:xlink="http://www.w3.org/1999/xlink">
	<desc>Stata Graph - gh_1_4</desc>
	<rect x="0" y="0" width="3960" height="2880" style="fill:#EAF2F3;stroke:none"/>
	<rect x="0.00" y="0.00" width="3959.88" height="2880.00" style="fill:#FFFFFF"/>
	<rect x="2.88" y="2.88" width="3954.12" height="2874.24" style="fill:none;stroke:#EAF2F3;stroke-width:5.76"/>
	<rect x="465.80" y="419.90" width="3393.22" height="1533.81" style="fill:#FFFFFF"/>
	<rect x="468.67" y="422.78" width="3387.47" height="1528.05" style="fill:none;stroke:#FFFFFF;stroke-width:5.76"/>
	<line x1="465.80" y1="1953.70" x2="3859.02" y2="1953.70" style="stroke:#EAF2F3;stroke-width:8.64"/>
	<line x1="465.80" y1="1800.37" x2="3859.02" y2="1800.37" style="stroke:#EAF2F3;stroke-width:8.64"/>
	<line x1="465.80" y1="1646.92" x2="3859.02" y2="1646.92" style="stroke:#EAF2F3;stroke-width:8.64"/>
	<line x1="465.80" y1="1493.59" x2="3859.02" y2="1493.59" style="stroke:#EAF2F3;stroke-width:8.64"/>
	<line x1="465.80" y1="1340.13" x2="3859.02" y2="1340.13" style="stroke:#EAF2F3;stroke-width:8.64"/>
	<line x1="465.80" y1="1186.80" x2="3859.02" y2="1186.80" style="stroke:#EAF2F3;stroke-width:8.64"/>
	<line x1="465.80" y1="1033.47" x2="3859.02" y2="1033.47" style="stroke:#EAF2F3;stroke-width:8.64"/>
	<line x1="465.80" y1="880.01" x2="3859.02" y2="880.01" style="stroke:#EAF2F3;stroke-width:8.64"/>
	<line x1="465.80" y1="726.68" x2="3859.02" y2="726.68" style="stroke:#EAF2F3;stroke-width:8.64"/>
	<line x1="465.80" y1="573.35" x2="3859.02" y2="573.35" style="stroke:#EAF2F3;stroke-width:8.64"/>
	<line x1="465.80" y1="419.90" x2="3859.02" y2="419.90" style="stroke:#EAF2F3;stroke-width:8.64"/>
	<defs>
		<path id="path_kSzKbkLE" d="M618.38 420.02 L618.38 420.02 L634.84 420.02 L651.30 420.02 L667.75 420.02 L684.21 420.02 L700.80 420.02 L717.25 420.02 L733.71 420.02 L750.17 420.02 L766.63 420.02 L783.09 420.02 L799.55 420.02 L816.01 420.02 L832.47 420.02 L848.92 420.02 L865.38 420.02 L881.84 420.02 L898.30 420.02 L914.76 420.02 L931.22 420.02 L947.68 420.02 L964.14 420.02 L980.60 420.02 L997.05 420.02 L1013.51 420.02 L1029.97 420.02 L1046.43 420.02 L1062.89 420.02 L1079.47 420.02 L1095.93 420.02 L1112.39 420.02 L1128.85 420.02 L1145.31 420.02 L1161.77 420.02 L1178.22 420.02 L1194.68 420.02 L1211.14 420.02 L1227.60 420.02 L1244.06 420.02 L1260.52 420.02 L1276.98 420.02 L1293.43 420.02 L1309.89 420.02 L1326.35 420.02 L1342.81 420.02 L1359.27 420.02 L1375.73 420.02 L1392.19 420.02 L1408.65 420.02 L1425.11 420.02 L1441.56 420.02 L1458.15 420.02 L1474.61 420.02 L1491.06 420.02 L1507.52 420.02 L1523.98 420.02 L1540.44 420.02 L1556.90 420.02 L1573.36 420.02 L1589.82 420.02 L1606.28 420.02 L1622.73 420.02 L1639.19 420.02 L1655.65 420.02 L1672.11 420.02 L1688.57 420.02 L1705.03 420.02 L1721.49 420.02 L1737.94 420.02 L1754.40 420.02 L1770.86 420.02 L1787.32 420.02 L1803.78 420.02 L1820.24 420.02 L1836.82 420.02 L1853.28 420.02 L1869.74 420.02 L1886.20 420.02 L1902.66 420.02 L1919.12 420.02 L1935.57 420.02 L1952.03 420.02 L1968.49 420.02 L1984.95 420.02 L2001.41 420.02 L2017.87 420.02 L2034.33 420.02 L2050.78 420.02 L2067.24 420.02 L2083.70 420.02 L2100.16 420.02 L2116.62 420.02 L2133.08 420.02 L2149.54 420.02 L2166.00 420.02 L2182.45 420.02 L2198.91 420.02 L2215.50 420.02 L2231.95 420.02 L2248.41 420.02 L2264.87 420.02 L2281.33 420.02 L2297.79 420.02 L2314.25 420.02 L2330.71 420.02 L2347.17 420.02 L2363.63 420.02 L2380.08 420.02 L2396.54 420.02 L2413.00 420.02 L2429.46 420.02 L2445.92 420.02 L2462.38 420.02 L2478.84 420.02 L2495.30 420.02 L2511.75 420.02 L2528.21 420.02 L2544.67 420.02 L2561.13 420.02 L2577.59 420.02 L2594.17 420.02 L2610.63 420.02 L2627.09 420.02 L2643.55 420.02 L2660.01 420.02 L2676.47 420.02 L2692.92 420.02 L2709.38 420.02 L2725.84 420.02 L2742.30 420.02 L2758.76 420.02 L2775.22 420.02 L2791.68 420.02 L2808.14 420.02 L2824.59 420.02 L2841.05 420.02 L2857.51 420.02 L2873.97 420.02 L2890.43 420.02 L2906.89 420.02 L2923.35 420.02 L2939.80 420.02 L2956.26 420.02 L2972.85 420.02 L2989.30 420.02 L3005.76 420.02 L3022.22 420.02 L3038.68 420.02 L3055.14 420.02 L3071.60 420.02 L3088.06 420.02 L3104.52 420.02 L3120.97 420.02 L3137.43 420.02 L3153.89 420.02 L3170.35 420.02 L3186.81 420.02 L3203.27 420.02 L3219.73 420.02 L3236.19 420.02 L3252.64 420.02 L3269.10 420.02 L3285.56 420.02 L3302.02 420.02 L3318.48 420.02 L3334.94 420.02 L3351.52 420.02 L3367.98 420.02 L3384.44 420.02 L3400.90 420.02 L3417.36 420.02 L3433.82 420.02 L3450.27 420.02 L3466.73 420.02 L3483.19 420.02 L3499.65 420.02 L3516.11 420.02 L3532.57 420.02 L3549.03 420.02 L3565.49 420.02 L3565.49 1953.70 L618.38 1953.70 L618.38 420.02 Z" stroke-linejoin="round"/>
	</defs>
	<defs>
		<clipPath id="clipPath_OJtWIrxJ">
			<use xlink:href="#path_kSzKbkLE"/>
		</clipPath>
	</defs>
	<use xlink:href="#path_kSzKbkLE" style="stroke:none;fill:#486C8C"/>
	<use xlink:href="#path_kSzKbkLE" style="fill:none;stroke:#1A476F;stroke-width:17.28" clip-path="url(#clipPath_OJtWIrxJ)"/>
	<defs>
		<path id="path_DqSrBSOX" d="M618.38 483.01 L618.38 483.01 L634.84 492.05 L651.30 501.33 L667.75 510.98 L684.21 519.64 L700.80 529.17 L717.25 538.45 L733.71 547.73 L750.17 556.77 L766.63 565.93 L783.09 574.96 L799.55 583.87 L816.01 593.15 L832.47 602.06 L848.92 610.48 L865.38 619.14 L881.84 627.93 L898.30 636.47 L914.76 644.26 L931.22 652.80 L947.68 661.59 L964.14 670.13 L980.60 678.67 L997.05 686.83 L1013.51 695.00 L1029.97 702.43 L1046.43 709.98 L1062.89 718.14 L1079.47 725.69 L1095.93 732.75 L1112.39 740.54 L1128.85 747.47 L1145.31 754.65 L1161.77 761.46 L1178.22 768.51 L1194.68 774.82 L1211.14 781.38 L1227.60 787.69 L1244.06 794.62 L1260.52 801.31 L1276.98 808.11 L1293.43 815.04 L1309.89 821.85 L1326.35 827.67 L1342.81 834.10 L1359.27 840.41 L1375.73 846.72 L1392.19 852.91 L1408.65 858.73 L1425.11 864.67 L1441.56 869.99 L1458.15 875.19 L1474.61 880.76 L1491.06 886.57 L1507.52 892.02 L1523.98 896.84 L1540.44 902.29 L1556.90 907.61 L1573.36 912.68 L1589.82 917.88 L1606.28 922.71 L1622.73 927.41 L1639.19 932.24 L1655.65 937.68 L1672.11 942.76 L1688.57 947.71 L1705.03 952.41 L1721.49 956.62 L1737.94 961.57 L1754.40 966.02 L1770.86 970.48 L1787.32 975.06 L1803.78 979.64 L1820.24 984.09 L1836.82 989.04 L1853.28 993.00 L1869.74 997.83 L1886.20 1002.41 L1902.66 1006.86 L1919.12 1011.44 L1935.57 1016.02 L1952.03 1020.23 L1968.49 1024.43 L1984.95 1028.77 L2001.41 1032.48 L2017.87 1036.31 L2034.33 1040.40 L2050.78 1043.99 L2067.24 1048.20 L2083.70 1051.91 L2100.16 1055.62 L2116.62 1059.58 L2133.08 1063.42 L2149.54 1067.25 L2166.00 1070.84 L2182.45 1074.93 L2198.91 1078.64 L2215.50 1082.23 L2231.95 1085.94 L2248.41 1089.28 L2264.87 1092.99 L2281.33 1096.09 L2297.79 1099.55 L2314.25 1102.89 L2330.71 1106.24 L2347.17 1109.70 L2363.63 1113.17 L2380.08 1116.75 L2396.54 1120.22 L2413.00 1123.56 L2429.46 1127.03 L2445.92 1130.74 L2462.38 1134.08 L2478.84 1137.05 L2495.30 1140.64 L2511.75 1143.73 L2528.21 1146.70 L2544.67 1149.43 L2561.13 1152.40 L2577.59 1154.99 L2594.17 1157.96 L2610.63 1160.56 L2627.09 1163.53 L2643.55 1166.38 L2660.01 1169.10 L2676.47 1172.20 L2692.92 1175.04 L2709.38 1177.89 L2725.84 1180.98 L2742.30 1183.83 L2758.76 1186.55 L2775.22 1189.65 L2791.68 1192.37 L2808.14 1195.21 L2824.59 1198.06 L2841.05 1200.66 L2857.51 1203.26 L2873.97 1206.11 L2890.43 1208.95 L2906.89 1211.92 L2923.35 1214.27 L2939.80 1216.87 L2956.26 1219.84 L2972.85 1222.56 L2989.30 1224.67 L3005.76 1226.90 L3022.22 1229.25 L3038.68 1231.35 L3055.14 1233.95 L3071.60 1236.55 L3088.06 1238.65 L3104.52 1241.25 L3120.97 1243.36 L3137.43 1245.95 L3153.89 1248.31 L3170.35 1250.53 L3186.81 1253.26 L3203.27 1255.98 L3219.73 1258.58 L3236.19 1261.18 L3252.64 1263.77 L3269.10 1266.13 L3285.56 1268.35 L3302.02 1270.46 L3318.48 1272.56 L3334.94 1274.66 L3351.52 1276.52 L3367.98 1278.75 L3384.44 1281.10 L3400.90 1283.33 L3417.36 1285.56 L3433.82 1287.54 L3450.27 1289.64 L3466.73 1291.50 L3483.19 1293.60 L3499.65 1295.70 L3516.11 1297.68 L3532.57 1299.91 L3549.03 1301.77 L3565.49 1303.99 L3565.49 1953.70 L618.38 1953.70 L618.38 483.01 Z" stroke-linejoin="round"/>
	</defs>
	<defs>
		<clipPath id="clipPath_XpRYeYwm">
			<use xlink:href="#path_DqSrBSOX"/>
		</clipPath>
	</defs>
	<use xlink:href="#path_DqSrBSOX" style="stroke:none;fill:#A65D62"/>
	<use xlink:href="#path_DqSrBSOX" style="fill:none;stroke:#90353B;stroke-width:17.28" clip-path="url(#clipPath_XpRYeYwm)"/>
	<defs>
		<path id="path_FaMvjdGG" d="M618.38 1953.70 L618.38 1953.70 L634.84 1953.70 L651.30 1953.70 L667.75 1953.70 L684.21 1953.70 L700.80 1953.70 L717.25 1953.70 L733.71 1953.70 L750.17 1953.70 L766.63 1953.70 L783.09 1953.70 L799.55 1953.70 L816.01 1953.70 L832.47 1953.70 L848.92 1953.70 L865.38 1953.70 L881.84 1953.70 L898.30 1953.70 L914.76 1953.70 L931.22 1953.70 L947.68 1953.70 L964.14 1953.70 L980.60 1953.70 L997.05 1953.70 L1013.51 1953.70 L1029.97 1953.70 L1046.43 1953.70 L1062.89 1953.70 L1079.47 1953.70 L1095.93 1953.70 L1112.39 1953.70 L1128.85 1953.70 L1145.31 1953.70 L1161.77 1953.70 L1178.22 1953.70 L1194.68 1953.70 L1211.14 1953.70 L1227.60 1953.70 L1244.06 1953.70 L1260.52 1953.70 L1276.98 1953.70 L1293.43 1953.70 L1309.89 1953.70 L1326.35 1953.70 L1342.81 1953.70 L1359.27 1953.70 L1375.73 1953.70 L1392.19 1953.70 L1408.65 1953.70 L1425.11 1953.70 L1441.56 1953.70 L1458.15 1953.70 L1474.61 1953.70 L1491.06 1953.70 L1507.52 1953.70 L1523.98 1953.70 L1540.44 1953.70 L1556.90 1953.70 L1573.36 1953.70 L1589.82 1953.70 L1606.28 1953.70 L1622.73 1953.70 L1639.19 1953.70 L1655.65 1953.70 L1672.11 1953.70 L1688.57 1953.70 L1705.03 1953.70 L1721.49 1953.70 L1737.94 1953.70 L1754.40 1953.70 L1770.86 1953.70 L1787.32 1953.70 L1803.78 1953.70 L1820.24 1953.70 L1836.82 1953.70 L1853.28 1953.70 L1869.74 1953.70 L1886.20 1953.70 L1902.66 1953.70 L1919.12 1953.70 L1935.57 1953.70 L1952.03 1953.70 L1968.49 1953.70 L1984.95 1953.70 L2001.41 1953.70 L2017.87 1953.70 L2034.33 1953.70 L2050.78 1953.70 L2067.24 1953.70 L2083.70 1953.70 L2100.16 1953.70 L2116.62 1953.70 L2133.08 1953.70 L2149.54 1953.70 L2166.00 1953.70 L2182.45 1953.70 L2198.91 1953.70 L2215.50 1953.70 L2231.95 1953.70 L2248.41 1953.70 L2264.87 1953.70 L2281.33 1953.70 L2297.79 1953.70 L2314.25 1953.70 L2330.71 1953.70 L2347.17 1953.70 L2363.63 1953.70 L2380.08 1953.70 L2396.54 1953.70 L2413.00 1953.70 L2429.46 1953.70 L2445.92 1953.70 L2462.38 1953.70 L2478.84 1953.70 L2495.30 1953.70 L2511.75 1953.70 L2528.21 1953.70 L2544.67 1953.70 L2561.13 1953.70 L2577.59 1953.70 L2594.17 1953.70 L2610.63 1953.70 L2627.09 1953.70 L2643.55 1953.70 L2660.01 1953.70 L2676.47 1953.70 L2692.92 1953.70 L2709.38 1953.70 L2725.84 1953.70 L2742.30 1953.70 L2758.76 1953.70 L2775.22 1953.70 L2791.68 1953.70 L2808.14 1953.70 L2824.59 1953.70 L2841.05 1953.70 L2857.51 1953.70 L2873.97 1953.70 L2890.43 1953.70 L2906.89 1953.70 L2923.35 1953.70 L2939.80 1953.70 L2956.26 1953.70 L2972.85 1953.70 L2989.30 1953.70 L3005.76 1953.70 L3022.22 1953.70 L3038.68 1953.70 L3055.14 1953.70 L3071.60 1953.70 L3088.06 1953.70 L3104.52 1953.70 L3120.97 1953.70 L3137.43 1953.70 L3153.89 1953.70 L3170.35 1953.70 L3186.81 1953.70 L3203.27 1953.70 L3219.73 1953.70 L3236.19 1953.70 L3252.64 1953.70 L3269.10 1953.70 L3285.56 1953.70 L3302.02 1953.70 L3318.48 1953.70 L3334.94 1953.70 L3351.52 1953.70 L3367.98 1953.70 L3384.44 1953.70 L3400.90 1953.70 L3417.36 1953.70 L3433.82 1953.70 L3450.27 1953.70 L3466.73 1953.70 L3483.19 1953.70 L3499.65 1953.70 L3516.11 1953.70 L3532.57 1953.70 L3549.03 1953.70 L3565.49 1953.70 L3565.49 1953.70 L618.38 1953.70 L618.38 1953.70 Z" stroke-linejoin="round"/>
	</defs>
	<defs>
		<clipPath id="clipPath_LMOYFYdD">
			<use xlink:href="#path_FaMvjdGG"/>
		</clipPath>
	</defs>
	<use xlink:href="#path_FaMvjdGG" style="stroke:none;fill:#779159"/>
	<use xlink:href="#path_FaMvjdGG" style="fill:none;stroke:#55752F;stroke-width:17.28" clip-path="url(#clipPath_LMOYFYdD)"/>
	<defs>
		<path id="path_DrYkUNdk" d="M618.38 1953.70 L618.38 1953.70 L634.84 1953.70 L651.30 1953.70 L667.75 1953.70 L684.21 1953.70 L700.80 1953.70 L717.25 1953.70 L733.71 1953.70 L750.17 1953.70 L766.63 1953.70 L783.09 1953.70 L799.55 1953.70 L816.01 1953.70 L832.47 1953.70 L848.92 1953.70 L865.38 1953.70 L881.84 1953.70 L898.30 1953.70 L914.76 1953.70 L931.22 1953.70 L947.68 1953.70 L964.14 1953.70 L980.60 1953.70 L997.05 1953.70 L1013.51 1953.70 L1029.97 1953.70 L1046.43 1953.70 L1062.89 1953.70 L1079.47 1953.70 L1095.93 1953.70 L1112.39 1953.70 L1128.85 1953.70 L1145.31 1953.70 L1161.77 1953.70 L1178.22 1953.70 L1194.68 1953.70 L1211.14 1953.70 L1227.60 1953.70 L1244.06 1953.70 L1260.52 1953.70 L1276.98 1953.70 L1293.43 1953.70 L1309.89 1953.70 L1326.35 1953.70 L1342.81 1953.70 L1359.27 1953.70 L1375.73 1953.70 L1392.19 1953.70 L1408.65 1953.70 L1425.11 1953.70 L1441.56 1953.70 L1458.15 1953.70 L1474.61 1953.70 L1491.06 1953.70 L1507.52 1953.70 L1523.98 1953.70 L1540.44 1953.70 L1556.90 1953.70 L1573.36 1953.70 L1589.82 1953.70 L1606.28 1953.70 L1622.73 1953.70 L1639.19 1953.70 L1655.65 1953.70 L1672.11 1953.70 L1688.57 1953.70 L1705.03 1953.70 L1721.49 1953.70 L1737.94 1953.70 L1754.40 1953.70 L1770.86 1953.70 L1787.32 1953.70 L1803.78 1953.70 L1820.24 1953.70 L1836.82 1953.70 L1853.28 1953.70 L1869.74 1953.70 L1886.20 1953.70 L1902.66 1953.70 L1919.12 1953.70 L1935.57 1953.70 L1952.03 1953.70 L1968.49 1953.70 L1984.95 1953.70 L2001.41 1953.70 L2017.87 1953.70 L2034.33 1953.70 L2050.78 1953.70 L2067.24 1953.70 L2083.70 1953.70 L2100.16 1953.70 L2116.62 1953.70 L2133.08 1953.70 L2149.54 1953.70 L2166.00 1953.70 L2182.45 1953.70 L2198.91 1953.70 L2215.50 1953.70 L2231.95 1953.70 L2248.41 1953.70 L2264.87 1953.70 L2281.33 1953.70 L2297.79 1953.70 L2314.25 1953.70 L2330.71 1953.70 L2347.17 1953.70 L2363.63 1953.70 L2380.08 1953.70 L2396.54 1953.70 L2413.00 1953.70 L2429.46 1953.70 L2445.92 1953.70 L2462.38 1953.70 L2478.84 1953.70 L2495.30 1953.70 L2511.75 1953.70 L2528.21 1953.70 L2544.67 1953.70 L2561.13 1953.70 L2577.59 1953.70 L2594.17 1953.70 L2610.63 1953.70 L2627.09 1953.70 L2643.55 1953.70 L2660.01 1953.70 L2676.47 1953.70 L2692.92 1953.70 L2709.38 1953.70 L2725.84 1953.70 L2742.30 1953.70 L2758.76 1953.70 L2775.22 1953.70 L2791.68 1953.70 L2808.14 1953.70 L2824.59 1953.70 L2841.05 1953.70 L2857.51 1953.70 L2873.97 1953.70 L2890.43 1953.70 L2906.89 1953.70 L2923.35 1953.70 L2939.80 1953.70 L2956.26 1953.70 L2972.85 1953.70 L2989.30 1953.70 L3005.76 1953.70 L3022.22 1953.70 L3038.68 1953.70 L3055.14 1953.70 L3071.60 1953.70 L3088.06 1953.70 L3104.52 1953.70 L3120.97 1953.70 L3137.43 1953.70 L3153.89 1953.70 L3170.35 1953.70 L3186.81 1953.70 L3203.27 1953.70 L3219.73 1953.70 L3236.19 1953.70 L3252.64 1953.70 L3269.10 1953.70 L3285.56 1953.70 L3302.02 1953.70 L3318.48 1953.70 L3334.94 1953.70 L3351.52 1953.70 L3367.98 1953.70 L3384.44 1953.70 L3400.90 1953.70 L3417.36 1953.70 L3433.82 1953.70 L3450.27 1953.70 L3466.73 1953.70 L3483.19 1953.70 L3499.65 1953.70 L3516.11 1953.70 L3532.57 1953.70 L3549.03 1953.70 L3565.49 1953.70 L3565.49 1953.70 L618.38 1953.70 L618.38 1953.70 Z" stroke-linejoin="round"/>
	</defs>
	<defs>
		<clipPath id="clipPath_vVnLjEVk">
			<use xlink:href="#path_DrYkUNdk"/>
		</clipPath>
	</defs>
	<use xlink:href="#path_DrYkUNdk" style="stroke:none;fill:#E99833"/>
	<use xlink:href="#path_DrYkUNdk" style="fill:none;stroke:#E37E00;stroke-width:17.28" clip-path="url(#clipPath_vVnLjEVk)"/>
	<defs>
		<path id="path_OVHKLlUP" d="M618.38 1953.70 L618.38 1953.70 L634.84 1953.70 L651.30 1953.70 L667.75 1953.70 L684.21 1953.70 L700.80 1953.70 L717.25 1953.70 L733.71 1953.70 L750.17 1953.70 L766.63 1953.70 L783.09 1953.70 L799.55 1953.70 L816.01 1953.70 L832.47 1953.70 L848.92 1953.70 L865.38 1953.70 L881.84 1953.70 L898.30 1953.70 L914.76 1953.70 L931.22 1953.70 L947.68 1953.70 L964.14 1953.70 L980.60 1953.70 L997.05 1953.70 L1013.51 1953.70 L1029.97 1953.70 L1046.43 1953.70 L1062.89 1953.70 L1079.47 1953.70 L1095.93 1953.70 L1112.39 1953.70 L1128.85 1953.70 L1145.31 1953.70 L1161.77 1953.70 L1178.22 1953.70 L1194.68 1953.70 L1211.14 1953.70 L1227.60 1953.70 L1244.06 1953.70 L1260.52 1953.70 L1276.98 1953.70 L1293.43 1953.70 L1309.89 1953.70 L1326.35 1953.70 L1342.81 1953.70 L1359.27 1953.70 L1375.73 1953.70 L1392.19 1953.70 L1408.65 1953.70 L1425.11 1953.70 L1441.56 1953.70 L1458.15 1953.70 L1474.61 1953.70 L1491.06 1953.70 L1507.52 1953.70 L1523.98 1953.70 L1540.44 1953.70 L1556.90 1953.70 L1573.36 1953.70 L1589.82 1953.70 L1606.28 1953.70 L1622.73 1953.70 L1639.19 1953.70 L1655.65 1953.70 L1672.11 1953.70 L1688.57 1953.70 L1705.03 1953.70 L1721.49 1953.70 L1737.94 1953.70 L1754.40 1953.70 L1770.86 1953.70 L1787.32 1953.70 L1803.78 1953.70 L1820.24 1953.70 L1836.82 1953.70 L1853.28 1953.70 L1869.74 1953.70 L1886.20 1953.70 L1902.66 1953.70 L1919.12 1953.70 L1935.57 1953.70 L1952.03 1953.70 L1968.49 1953.70 L1984.95 1953.70 L2001.41 1953.70 L2017.87 1953.70 L2034.33 1953.70 L2050.78 1953.70 L2067.24 1953.70 L2083.70 1953.70 L2100.16 1953.70 L2116.62 1953.70 L2133.08 1953.70 L2149.54 1953.70 L2166.00 1953.70 L2182.45 1953.70 L2198.91 1953.70 L2215.50 1953.70 L2231.95 1953.70 L2248.41 1953.70 L2264.87 1953.70 L2281.33 1953.70 L2297.79 1953.70 L2314.25 1953.70 L2330.71 1953.70 L2347.17 1953.70 L2363.63 1953.70 L2380.08 1953.70 L2396.54 1953.70 L2413.00 1953.70 L2429.46 1953.70 L2445.92 1953.70 L2462.38 1953.70 L2478.84 1953.70 L2495.30 1953.70 L2511.75 1953.70 L2528.21 1953.70 L2544.67 1953.70 L2561.13 1953.70 L2577.59 1953.70 L2594.17 1953.70 L2610.63 1953.70 L2627.09 1953.70 L2643.55 1953.70 L2660.01 1953.70 L2676.47 1953.70 L2692.92 1953.70 L2709.38 1953.70 L2725.84 1953.70 L2742.30 1953.70 L2758.76 1953.70 L2775.22 1953.70 L2791.68 1953.70 L2808.14 1953.70 L2824.59 1953.70 L2841.05 1953.70 L2857.51 1953.70 L2873.97 1953.70 L2890.43 1953.70 L2906.89 1953.70 L2923.35 1953.70 L2939.80 1953.70 L2956.26 1953.70 L2972.85 1953.70 L2989.30 1953.70 L3005.76 1953.70 L3022.22 1953.70 L3038.68 1953.70 L3055.14 1953.70 L3071.60 1953.70 L3088.06 1953.70 L3104.52 1953.70 L3120.97 1953.70 L3137.43 1953.70 L3153.89 1953.70 L3170.35 1953.70 L3186.81 1953.70 L3203.27 1953.70 L3219.73 1953.70 L3236.19 1953.70 L3252.64 1953.70 L3269.10 1953.70 L3285.56 1953.70 L3302.02 1953.70 L3318.48 1953.70 L3334.94 1953.70 L3351.52 1953.70 L3367.98 1953.70 L3384.44 1953.70 L3400.90 1953.70 L3417.36 1953.70 L3433.82 1953.70 L3450.27 1953.70 L3466.73 1953.70 L3483.19 1953.70 L3499.65 1953.70 L3516.11 1953.70 L3532.57 1953.70 L3549.03 1953.70 L3565.49 1953.70 L3565.49 1953.70 L618.38 1953.70 L618.38 1953.70 Z" stroke-linejoin="round"/>
	</defs>
	<defs>
		<clipPath id="clipPath_pLfeBSRj">
			<use xlink:href="#path_OVHKLlUP"/>
		</clipPath>
	</defs>
	<use xlink:href="#path_OVHKLlUP" style="stroke:none;fill:#8BA59D"/>
	<use xlink:href="#path_OVHKLlUP" style="fill:none;stroke:#6E8E84;stroke-width:17.28" clip-path="url(#clipPath_pLfeBSRj)"/>
	<line x1="465.80" y1="1953.70" x2="465.80" y2="419.90" style="stroke:#000000;stroke-width:5.76"/>
	<line x1="465.80" y1="1953.70" x2="425.82" y2="1953.70" style="stroke:#000000;stroke-width:5.76"/>
	<text x="405.78" y="1988.73" style="font-family:'Helvetica';font-size:99.99px;fill:#000000" text-anchor="end">0.0</text>
	<line x1="465.80" y1="1800.37" x2="425.82" y2="1800.37" style="stroke:#000000;stroke-width:5.76"/>
	<text x="405.78" y="1835.40" style="font-family:'Helvetica';font-size:99.99px;fill:#000000" text-anchor="end">0.1</text>
	<line x1="465.80" y1="1646.92" x2="425.82" y2="1646.92" style="stroke:#000000;stroke-width:5.76"/>
	<text x="405.78" y="1681.94" style="font-family:'Helvetica';font-size:99.99px;fill:#000000" text-anchor="end">0.2</text>
	<line x1="465.80" y1="1493.59" x2="425.82" y2="1493.59" style="stroke:#000000;stroke-width:5.76"/>
	<text x="405.78" y="1528.61" style="font-family:'Helvetica';font-size:99.99px;fill:#000000" text-anchor="end">0.3</text>
	<line x1="465.80" y1="1340.13" x2="425.82" y2="1340.13" style="stroke:#000000;stroke-width:5.76"/>
	<text x="405.78" y="1375.16" style="font-family:'Helvetica';font-size:99.99px;fill:#000000" text-anchor="end">0.4</text>
	<line x1="465.80" y1="1186.80" x2="425.82" y2="1186.80" style="stroke:#000000;stroke-width:5.76"/>
	<text x="405.78" y="1221.83" style="font-family:'Helvetica';font-size:99.99px;fill:#000000" text-anchor="end">0.5</text>
	<line x1="465.80" y1="1033.47" x2="425.82" y2="1033.47" style="stroke:#000000;stroke-width:5.76"/>
	<text x="405.78" y="1068.50" style="font-family:'Helvetica';font-size:99.99px;fill:#000000" text-anchor="end">0.6</text>
	<line x1="465.80" y1="880.01" x2="425.82" y2="880.01" style="stroke:#000000;stroke-width:5.76"/>
	<text x="405.78" y="915.04" style="font-family:'Helvetica';font-size:99.99px;fill:#000000" text-anchor="end">0.7</text>
	<line x1="465.80" y1="726.68" x2="425.82" y2="726.68" style="stroke:#000000;stroke-width:5.76"/>
	<text x="405.78" y="761.71" style="font-family:'Helvetica';font-size:99.99px;fill:#000000" text-anchor="end">0.8</text>
	<line x1="465.80" y1="573.35" x2="425.82" y2="573.35" style="stroke:#000000;stroke-width:5.76"/>
	<text x="405.78" y="608.38" style="font-family:'Helvetica';font-size:99.99px;fill:#000000" text-anchor="end">0.9</text>
	<line x1="465.80" y1="419.90" x2="425.82" y2="419.90" style="stroke:#000000;stroke-width:5.76"/>
	<text x="405.78" y="454.93" style="font-family:'Helvetica';font-size:99.99px;fill:#000000" text-anchor="end">1.0</text>
	<text x="190.71" y="1186.80" style="font-family:'Helvetica';font-size:99.99px;fill:#000000" transform="rotate(-90 190.71,1186.80)" text-anchor="middle">Transition Probability</text>
	<line x1="465.80" y1="1953.70" x2="3859.02" y2="1953.70" style="stroke:#000000;stroke-width:5.76"/>
	<line x1="465.80" y1="1953.70" x2="465.80" y2="1993.67" style="stroke:#000000;stroke-width:5.76"/>
	<text x="465.80" y="2083.66" style="font-family:'Helvetica';font-size:99.99px;fill:#000000" text-anchor="middle">0</text>
	<line x1="1314.10" y1="1953.70" x2="1314.10" y2="1993.67" style="stroke:#000000;stroke-width:5.76"/>
	<text x="1314.10" y="2083.66" style="font-family:'Helvetica';font-size:99.99px;fill:#000000" text-anchor="middle">500</text>
	<line x1="2162.41" y1="1953.70" x2="2162.41" y2="1993.67" style="stroke:#000000;stroke-width:5.76"/>
	<text x="2162.41" y="2083.66" style="font-family:'Helvetica';font-size:99.99px;fill:#000000" text-anchor="middle">1000</text>
	<line x1="3010.71" y1="1953.70" x2="3010.71" y2="1993.67" style="stroke:#000000;stroke-width:5.76"/>
	<text x="3010.71" y="2083.66" style="font-family:'Helvetica';font-size:99.99px;fill:#000000" text-anchor="middle">1500</text>
	<line x1="3859.02" y1="1953.70" x2="3859.02" y2="1993.67" style="stroke:#000000;stroke-width:5.76"/>
	<text x="3859.02" y="2083.66" style="font-family:'Helvetica';font-size:99.99px;fill:#000000" text-anchor="middle">2000</text>
	<text x="2162.41" y="2193.67" style="font-family:'Helvetica';font-size:99.99px;fill:#000000" text-anchor="middle">Follow-up time</text>
	<rect x="614.42" y="2278.31" width="3095.98" height="466.30" style="fill:#FFFFFF"/>
	<rect x="617.30" y="2281.19" width="3090.22" height="460.54" style="fill:none;stroke:#000000;stroke-width:5.76"/>
	<rect x="657.61" y="2321.50" width="374.47" height="99.99" style="fill:#8BA59D"/>
	<rect x="661.93" y="2325.82" width="365.83" height="91.35" style="fill:none;stroke:#6E8E84;stroke-width:8.64"/>
	<rect x="2232.45" y="2321.50" width="374.34" height="99.99" style="fill:#E99833"/>
	<rect x="2236.77" y="2325.82" width="365.70" height="91.35" style="fill:none;stroke:#E37E00;stroke-width:8.64"/>
	<rect x="657.61" y="2461.46" width="374.47" height="99.99" style="fill:#779159"/>
	<rect x="661.93" y="2465.78" width="365.83" height="91.35" style="fill:none;stroke:#55752F;stroke-width:8.64"/>
	<rect x="2232.45" y="2461.46" width="374.34" height="99.99" style="fill:#A65D62"/>
	<rect x="2236.77" y="2465.78" width="365.70" height="91.35" style="fill:none;stroke:#90353B;stroke-width:8.64"/>
	<rect x="657.61" y="2601.43" width="374.47" height="99.99" style="fill:#486C8C"/>
	<rect x="661.93" y="2605.75" width="365.83" height="91.35" style="fill:none;stroke:#1A476F;stroke-width:8.64"/>
	<text x="1092.09" y="2406.52" style="font-family:'Helvetica';font-size:99.99px;fill:#000000">P(Y(t) = 1 | Y(90) = 4)</text>
	<text x="2666.81" y="2406.52" style="font-family:'Helvetica';font-size:99.99px;fill:#000000">P(Y(t) = 2 | Y(90) = 4)</text>
	<text x="1092.09" y="2546.49" style="font-family:'Helvetica';font-size:99.99px;fill:#000000">P(Y(t) = 3 | Y(90) = 4)</text>
	<text x="2666.81" y="2546.49" style="font-family:'Helvetica';font-size:99.99px;fill:#000000">P(Y(t) = 4 | Y(90) = 4)</text>
	<text x="1092.09" y="2686.46" style="font-family:'Helvetica';font-size:99.99px;fill:#000000">P(Y(t) = 5 | Y(90) = 4)</text>
	<text x="2162.41" y="369.63" style="font-family:'Helvetica';font-size:110.01px;fill:#000000" text-anchor="middle">From Third Readmission(4), Outpatient</text>
	<text x="2162.41" y="215.98" style="font-family:'Helvetica';font-size:139.96px;fill:#1E2D53" text-anchor="middle">P(Y(t) = b | Y(90) = 4, at1)</text>
</svg>
