<?xml version="1.0" encoding="UTF-8" standalone="no"?>
<!-- This is a Stata 16.1 generated SVG file (http://www.stata.com) -->

<svg version="1.1" width="5.50in" height="4.00in" viewBox="0 0 3960 2880" xmlns="http://www.w3.org/2000/svg" xmlns:xlink="http://www.w3.org/1999/xlink">
	<desc>Stata Graph - gh_1_3</desc>
	<rect x="0" y="0" width="3960" height="2880" style="fill:#EAF2F3;stroke:none"/>
	<rect x="0.00" y="0.00" width="3959.88" height="2880.00" style="fill:#FFFFFF"/>
	<rect x="2.88" y="2.88" width="3954.12" height="2874.24" style="fill:none;stroke:#EAF2F3;stroke-width:5.76"/>
	<rect x="465.80" y="419.90" width="3393.22" height="1533.81" style="fill:#FFFFFF"/>
	<rect x="468.67" y="422.78" width="3387.47" height="1528.05" style="fill:none;stroke:#FFFFFF;stroke-width:5.76"/>
	<line x1="465.80" y1="1953.70" x2="3859.02" y2="1953.70" style="stroke:#EAF2F3;stroke-width:8.64"/>
	<line x1="465.80" y1="1800.37" x2="3859.02" y2="1800.37" style="stroke:#EAF2F3;stroke-width:8.64"/>
	<line x1="465.80" y1="1646.92" x2="3859.02" y2="1646.92" style="stroke:#EAF2F3;stroke-width:8.64"/>
	<line x1="465.80" y1="1493.59" x2="3859.02" y2="1493.59" style="stroke:#EAF2F3;stroke-width:8.64"/>
	<line x1="465.80" y1="1340.13" x2="3859.02" y2="1340.13" style="stroke:#EAF2F3;stroke-width:8.64"/>
	<line x1="465.80" y1="1186.80" x2="3859.02" y2="1186.80" style="stroke:#EAF2F3;stroke-width:8.64"/>
	<line x1="465.80" y1="1033.47" x2="3859.02" y2="1033.47" style="stroke:#EAF2F3;stroke-width:8.64"/>
	<line x1="465.80" y1="880.01" x2="3859.02" y2="880.01" style="stroke:#EAF2F3;stroke-width:8.64"/>
	<line x1="465.80" y1="726.68" x2="3859.02" y2="726.68" style="stroke:#EAF2F3;stroke-width:8.64"/>
	<line x1="465.80" y1="573.35" x2="3859.02" y2="573.35" style="stroke:#EAF2F3;stroke-width:8.64"/>
	<line x1="465.80" y1="419.90" x2="3859.02" y2="419.90" style="stroke:#EAF2F3;stroke-width:8.64"/>
	<defs>
		<path id="path_HEwGBweC" d="M618.38 420.02 L618.38 420.02 L634.84 420.02 L651.30 420.02 L667.75 420.02 L684.21 420.02 L700.67 420.02 L717.13 420.02 L733.59 420.02 L750.05 420.02 L766.51 420.02 L782.97 420.02 L799.42 420.02 L815.88 420.02 L832.34 420.02 L848.80 420.02 L865.26 420.02 L881.72 420.02 L898.18 420.02 L914.64 420.02 L931.10 420.02 L947.55 420.02 L964.01 420.02 L980.47 420.02 L996.93 420.02 L1013.39 420.02 L1029.72 420.02 L1046.18 420.02 L1062.64 420.02 L1079.10 420.02 L1095.56 420.02 L1112.02 420.02 L1128.48 420.02 L1144.93 420.02 L1161.39 420.02 L1177.85 420.02 L1194.31 420.02 L1210.77 420.02 L1227.23 420.02 L1243.69 420.02 L1260.15 420.02 L1276.61 420.02 L1293.06 420.02 L1309.52 420.02 L1325.98 420.02 L1342.44 420.02 L1358.90 420.02 L1375.36 420.02 L1391.82 420.02 L1408.28 420.02 L1424.73 420.02 L1441.19 420.02 L1457.65 420.02 L1474.11 420.02 L1490.57 420.02 L1507.03 420.02 L1523.36 420.02 L1539.82 420.02 L1556.28 420.02 L1572.74 420.02 L1589.20 420.02 L1605.66 420.02 L1622.12 420.02 L1638.57 420.02 L1655.03 420.02 L1671.49 420.02 L1687.95 420.02 L1704.41 420.02 L1720.87 420.02 L1737.33 420.02 L1753.79 420.02 L1770.24 420.02 L1786.70 420.02 L1803.16 420.02 L1819.62 420.02 L1836.08 420.02 L1852.54 420.02 L1869.00 420.02 L1885.45 420.02 L1901.91 420.02 L1918.37 420.02 L1934.83 420.02 L1951.29 420.02 L1967.75 420.02 L1984.21 420.02 L2000.67 420.02 L2017.00 420.02 L2033.46 420.02 L2049.92 420.02 L2066.38 420.02 L2082.84 420.02 L2099.30 420.02 L2115.75 420.02 L2132.21 420.02 L2148.67 420.02 L2165.13 420.02 L2181.59 420.02 L2198.05 420.02 L2214.51 420.02 L2230.97 420.02 L2247.42 420.02 L2263.88 420.02 L2280.34 420.02 L2296.80 420.02 L2313.26 420.02 L2329.72 420.02 L2346.18 420.02 L2362.64 420.02 L2379.09 420.02 L2395.55 420.02 L2412.01 420.02 L2428.47 420.02 L2444.93 420.02 L2461.39 420.02 L2477.85 420.02 L2494.30 420.02 L2510.76 420.02 L2527.10 420.02 L2543.56 420.02 L2560.02 420.02 L2576.47 420.02 L2592.93 420.02 L2609.39 420.02 L2625.85 420.02 L2642.31 420.02 L2658.77 420.02 L2675.23 420.02 L2691.69 420.02 L2708.14 420.02 L2724.60 420.02 L2741.06 420.02 L2757.52 420.02 L2773.98 420.02 L2790.44 420.02 L2806.90 420.02 L2823.36 420.02 L2839.82 420.02 L2856.27 420.02 L2872.73 420.02 L2889.19 420.02 L2905.65 420.02 L2922.11 420.02 L2938.57 420.02 L2955.03 420.02 L2971.49 420.02 L2987.94 420.02 L3004.40 420.02 L3020.74 420.02 L3037.20 420.02 L3053.66 420.02 L3070.11 420.02 L3086.57 420.02 L3103.03 420.02 L3119.49 420.02 L3135.95 420.02 L3152.41 420.02 L3168.87 420.02 L3185.32 420.02 L3201.78 420.02 L3218.24 420.02 L3234.70 420.02 L3251.16 420.02 L3267.62 420.02 L3284.08 420.02 L3300.54 420.02 L3316.99 420.02 L3333.45 420.02 L3349.91 420.02 L3366.37 420.02 L3382.83 420.02 L3399.29 420.02 L3415.75 420.02 L3432.21 420.02 L3448.66 420.02 L3465.12 420.02 L3481.58 420.02 L3498.04 420.02 L3514.38 420.02 L3530.84 420.02 L3547.29 420.02 L3563.75 420.02 L3563.75 1953.70 L618.38 1953.70 L618.38 420.02 Z" stroke-linejoin="round"/>
	</defs>
	<defs>
		<clipPath id="clipPath_ghXuybRD">
			<use xlink:href="#path_HEwGBweC"/>
		</clipPath>
	</defs>
	<use xlink:href="#path_HEwGBweC" style="stroke:none;fill:#486C8C"/>
	<use xlink:href="#path_HEwGBweC" style="fill:none;stroke:#1A476F;stroke-width:17.28" clip-path="url(#clipPath_ghXuybRD)"/>
	<defs>
		<path id="path_WKEyEUZi" d="M618.38 420.52 L618.38 420.52 L634.84 420.76 L651.30 421.13 L667.75 421.38 L684.21 421.75 L700.67 422.12 L717.13 422.50 L733.59 422.87 L750.05 423.24 L766.51 423.86 L782.97 424.35 L799.42 424.97 L815.88 425.71 L832.34 426.58 L848.80 427.45 L865.26 428.31 L881.72 429.30 L898.18 430.29 L914.64 431.28 L931.10 432.64 L947.55 433.76 L964.01 434.99 L980.47 436.36 L996.93 437.72 L1013.39 439.08 L1029.72 440.69 L1046.18 442.30 L1062.64 443.78 L1079.10 445.39 L1095.56 447.37 L1112.02 449.23 L1128.48 451.08 L1144.93 453.19 L1161.39 455.54 L1177.85 457.27 L1194.31 459.25 L1210.77 461.48 L1227.23 463.71 L1243.69 466.06 L1260.15 468.04 L1276.61 470.02 L1293.06 472.37 L1309.52 474.84 L1325.98 477.44 L1342.44 479.55 L1358.90 482.02 L1375.36 484.87 L1391.82 487.96 L1408.28 491.06 L1424.73 494.03 L1441.19 496.62 L1457.65 499.84 L1474.11 502.32 L1490.57 505.29 L1507.03 508.01 L1523.36 511.47 L1539.82 514.57 L1556.28 517.66 L1572.74 520.76 L1589.20 523.73 L1605.66 526.70 L1622.12 529.91 L1638.57 533.13 L1655.03 536.60 L1671.49 539.69 L1687.95 542.41 L1704.41 545.63 L1720.87 548.85 L1737.33 551.69 L1753.79 554.91 L1770.24 557.88 L1786.70 561.35 L1803.16 564.81 L1819.62 567.66 L1836.08 571.12 L1852.54 574.22 L1869.00 577.31 L1885.45 580.16 L1901.91 583.00 L1918.37 586.10 L1934.83 589.19 L1951.29 592.29 L1967.75 595.38 L1984.21 598.60 L2000.67 601.69 L2017.00 605.03 L2033.46 608.37 L2049.92 611.22 L2066.38 614.31 L2082.84 617.28 L2099.30 620.25 L2115.75 623.35 L2132.21 626.44 L2148.67 629.66 L2165.13 632.75 L2181.59 635.60 L2198.05 638.45 L2214.51 641.66 L2230.97 644.88 L2247.42 647.60 L2263.88 650.57 L2280.34 653.54 L2296.80 656.39 L2313.26 658.99 L2329.72 661.96 L2346.18 664.68 L2362.64 667.65 L2379.09 670.13 L2395.55 672.97 L2412.01 675.32 L2428.47 677.92 L2444.93 680.52 L2461.39 683.12 L2477.85 685.35 L2494.30 687.82 L2510.76 690.05 L2527.10 692.53 L2543.56 695.37 L2560.02 698.34 L2576.47 700.94 L2592.93 703.54 L2609.39 705.89 L2625.85 708.86 L2642.31 711.34 L2658.77 713.69 L2675.23 716.29 L2691.69 718.51 L2708.14 720.87 L2724.60 722.97 L2741.06 725.45 L2757.52 727.80 L2773.98 730.15 L2790.44 732.25 L2806.90 734.73 L2823.36 737.08 L2839.82 739.55 L2856.27 741.53 L2872.73 743.88 L2889.19 745.99 L2905.65 748.34 L2922.11 750.94 L2938.57 753.17 L2955.03 755.52 L2971.49 757.50 L2987.94 759.97 L3004.40 761.83 L3020.74 763.81 L3037.20 766.04 L3053.66 768.14 L3070.11 770.49 L3086.57 772.97 L3103.03 775.07 L3119.49 776.93 L3135.95 779.03 L3152.41 781.01 L3168.87 782.87 L3185.32 784.72 L3201.78 786.70 L3218.24 788.68 L3234.70 790.54 L3251.16 792.52 L3267.62 794.38 L3284.08 796.36 L3300.54 798.09 L3316.99 800.07 L3333.45 801.93 L3349.91 803.78 L3366.37 805.39 L3382.83 807.00 L3399.29 808.98 L3415.75 810.71 L3432.21 812.20 L3448.66 814.05 L3465.12 815.66 L3481.58 817.39 L3498.04 819.00 L3514.38 820.74 L3530.84 822.34 L3547.29 824.08 L3563.75 825.93 L3563.75 1953.70 L618.38 1953.70 L618.38 420.52 Z" stroke-linejoin="round"/>
	</defs>
	<defs>
		<clipPath id="clipPath_vYXOqEiv">
			<use xlink:href="#path_WKEyEUZi"/>
		</clipPath>
	</defs>
	<use xlink:href="#path_WKEyEUZi" style="stroke:none;fill:#A65D62"/>
	<use xlink:href="#path_WKEyEUZi" style="fill:none;stroke:#90353B;stroke-width:17.28" clip-path="url(#clipPath_vYXOqEiv)"/>
	<defs>
		<path id="path_LVzOGCzN" d="M618.38 462.22 L618.38 462.22 L634.84 469.03 L651.30 476.58 L667.75 484.13 L684.21 492.29 L700.67 500.34 L717.13 509.25 L733.59 517.17 L750.05 525.21 L766.51 534.37 L782.97 543.16 L799.42 552.19 L815.88 560.48 L832.34 569.39 L848.80 577.93 L865.26 587.21 L881.72 596.74 L898.18 605.40 L914.64 614.19 L931.10 623.10 L947.55 631.76 L964.01 640.55 L980.47 649.21 L996.93 658.37 L1013.39 667.40 L1029.72 676.81 L1046.18 685.60 L1062.64 694.38 L1079.10 702.43 L1095.56 710.97 L1112.02 719.75 L1128.48 727.80 L1144.93 735.96 L1161.39 743.88 L1177.85 751.68 L1194.31 759.35 L1210.77 767.15 L1227.23 774.20 L1243.69 781.26 L1260.15 788.56 L1276.61 796.11 L1293.06 803.78 L1309.52 811.08 L1325.98 818.88 L1342.44 825.44 L1358.90 832.37 L1375.36 839.17 L1391.82 845.98 L1408.28 852.66 L1424.73 858.98 L1441.19 865.29 L1457.65 870.86 L1474.11 876.30 L1490.57 882.49 L1507.03 888.43 L1523.36 894.00 L1539.82 899.20 L1556.28 904.64 L1572.74 909.96 L1589.20 915.28 L1605.66 920.23 L1622.12 924.81 L1638.57 929.76 L1655.03 934.59 L1671.49 940.16 L1687.95 944.61 L1704.41 949.44 L1720.87 953.52 L1737.33 957.85 L1753.79 962.31 L1770.24 966.64 L1786.70 970.60 L1803.16 974.93 L1819.62 979.14 L1836.08 983.22 L1852.54 987.43 L1869.00 991.14 L1885.45 995.23 L1901.91 999.68 L1918.37 1003.64 L1934.83 1007.23 L1951.29 1011.32 L1967.75 1015.28 L1984.21 1018.62 L2000.67 1022.58 L2017.00 1026.04 L2033.46 1029.63 L2049.92 1032.48 L2066.38 1035.82 L2082.84 1039.16 L2099.30 1042.01 L2115.75 1045.47 L2132.21 1048.57 L2148.67 1051.41 L2165.13 1054.51 L2181.59 1057.35 L2198.05 1060.45 L2214.51 1063.54 L2230.97 1066.51 L2247.42 1068.99 L2263.88 1072.08 L2280.34 1075.17 L2296.80 1077.90 L2313.26 1080.87 L2329.72 1083.34 L2346.18 1086.19 L2362.64 1088.54 L2379.09 1091.14 L2395.55 1093.86 L2412.01 1095.84 L2428.47 1098.56 L2444.93 1101.04 L2461.39 1103.02 L2477.85 1105.49 L2494.30 1108.09 L2510.76 1110.44 L2527.10 1112.79 L2543.56 1115.27 L2560.02 1117.62 L2576.47 1119.85 L2592.93 1122.32 L2609.39 1124.68 L2625.85 1126.90 L2642.31 1129.50 L2658.77 1131.73 L2675.23 1133.83 L2691.69 1135.69 L2708.14 1138.16 L2724.60 1140.52 L2741.06 1142.37 L2757.52 1144.35 L2773.98 1146.21 L2790.44 1147.94 L2806.90 1149.67 L2823.36 1151.53 L2839.82 1153.26 L2856.27 1154.87 L2872.73 1156.73 L2889.19 1158.46 L2905.65 1159.94 L2922.11 1161.68 L2938.57 1163.66 L2955.03 1165.39 L2971.49 1166.88 L2987.94 1168.61 L3004.40 1170.46 L3020.74 1172.32 L3037.20 1174.18 L3053.66 1175.66 L3070.11 1177.39 L3086.57 1179.13 L3103.03 1180.74 L3119.49 1182.47 L3135.95 1184.20 L3152.41 1185.81 L3168.87 1187.42 L3185.32 1189.27 L3201.78 1191.01 L3218.24 1192.49 L3234.70 1193.98 L3251.16 1195.59 L3267.62 1197.07 L3284.08 1198.68 L3300.54 1200.04 L3316.99 1201.40 L3333.45 1202.89 L3349.91 1204.50 L3366.37 1205.98 L3382.83 1207.34 L3399.29 1209.08 L3415.75 1210.81 L3432.21 1211.92 L3448.66 1213.16 L3465.12 1214.64 L3481.58 1216.01 L3498.04 1217.74 L3514.38 1219.22 L3530.84 1220.71 L3547.29 1222.19 L3563.75 1223.31 L3563.75 1953.70 L618.38 1953.70 L618.38 462.22 Z" stroke-linejoin="round"/>
	</defs>
	<defs>
		<clipPath id="clipPath_uTLobTGS">
			<use xlink:href="#path_LVzOGCzN"/>
		</clipPath>
	</defs>
	<use xlink:href="#path_LVzOGCzN" style="stroke:none;fill:#779159"/>
	<use xlink:href="#path_LVzOGCzN" style="fill:none;stroke:#55752F;stroke-width:17.28" clip-path="url(#clipPath_uTLobTGS)"/>
	<defs>
		<path id="path_rkhTGpQM" d="M618.38 1953.70 L618.38 1953.70 L634.84 1953.70 L651.30 1953.70 L667.75 1953.70 L684.21 1953.70 L700.67 1953.70 L717.13 1953.70 L733.59 1953.70 L750.05 1953.70 L766.51 1953.70 L782.97 1953.70 L799.42 1953.70 L815.88 1953.70 L832.34 1953.70 L848.80 1953.70 L865.26 1953.70 L881.72 1953.70 L898.18 1953.70 L914.64 1953.70 L931.10 1953.70 L947.55 1953.70 L964.01 1953.70 L980.47 1953.70 L996.93 1953.70 L1013.39 1953.70 L1029.72 1953.70 L1046.18 1953.70 L1062.64 1953.70 L1079.10 1953.70 L1095.56 1953.70 L1112.02 1953.70 L1128.48 1953.70 L1144.93 1953.70 L1161.39 1953.70 L1177.85 1953.70 L1194.31 1953.70 L1210.77 1953.70 L1227.23 1953.70 L1243.69 1953.70 L1260.15 1953.70 L1276.61 1953.70 L1293.06 1953.70 L1309.52 1953.70 L1325.98 1953.70 L1342.44 1953.70 L1358.90 1953.70 L1375.36 1953.70 L1391.82 1953.70 L1408.28 1953.70 L1424.73 1953.70 L1441.19 1953.70 L1457.65 1953.70 L1474.11 1953.70 L1490.57 1953.70 L1507.03 1953.70 L1523.36 1953.70 L1539.82 1953.70 L1556.28 1953.70 L1572.74 1953.70 L1589.20 1953.70 L1605.66 1953.70 L1622.12 1953.70 L1638.57 1953.70 L1655.03 1953.70 L1671.49 1953.70 L1687.95 1953.70 L1704.41 1953.70 L1720.87 1953.70 L1737.33 1953.70 L1753.79 1953.70 L1770.24 1953.70 L1786.70 1953.70 L1803.16 1953.70 L1819.62 1953.70 L1836.08 1953.70 L1852.54 1953.70 L1869.00 1953.70 L1885.45 1953.70 L1901.91 1953.70 L1918.37 1953.70 L1934.83 1953.70 L1951.29 1953.70 L1967.75 1953.70 L1984.21 1953.70 L2000.67 1953.70 L2017.00 1953.70 L2033.46 1953.70 L2049.92 1953.70 L2066.38 1953.70 L2082.84 1953.70 L2099.30 1953.70 L2115.75 1953.70 L2132.21 1953.70 L2148.67 1953.70 L2165.13 1953.70 L2181.59 1953.70 L2198.05 1953.70 L2214.51 1953.70 L2230.97 1953.70 L2247.42 1953.70 L2263.88 1953.70 L2280.34 1953.70 L2296.80 1953.70 L2313.26 1953.70 L2329.72 1953.70 L2346.18 1953.70 L2362.64 1953.70 L2379.09 1953.70 L2395.55 1953.70 L2412.01 1953.70 L2428.47 1953.70 L2444.93 1953.70 L2461.39 1953.70 L2477.85 1953.70 L2494.30 1953.70 L2510.76 1953.70 L2527.10 1953.70 L2543.56 1953.70 L2560.02 1953.70 L2576.47 1953.70 L2592.93 1953.70 L2609.39 1953.70 L2625.85 1953.70 L2642.31 1953.70 L2658.77 1953.70 L2675.23 1953.70 L2691.69 1953.70 L2708.14 1953.70 L2724.60 1953.70 L2741.06 1953.70 L2757.52 1953.70 L2773.98 1953.70 L2790.44 1953.70 L2806.90 1953.70 L2823.36 1953.70 L2839.82 1953.70 L2856.27 1953.70 L2872.73 1953.70 L2889.19 1953.70 L2905.65 1953.70 L2922.11 1953.70 L2938.57 1953.70 L2955.03 1953.70 L2971.49 1953.70 L2987.94 1953.70 L3004.40 1953.70 L3020.74 1953.70 L3037.20 1953.70 L3053.66 1953.70 L3070.11 1953.70 L3086.57 1953.70 L3103.03 1953.70 L3119.49 1953.70 L3135.95 1953.70 L3152.41 1953.70 L3168.87 1953.70 L3185.32 1953.70 L3201.78 1953.70 L3218.24 1953.70 L3234.70 1953.70 L3251.16 1953.70 L3267.62 1953.70 L3284.08 1953.70 L3300.54 1953.70 L3316.99 1953.70 L3333.45 1953.70 L3349.91 1953.70 L3366.37 1953.70 L3382.83 1953.70 L3399.29 1953.70 L3415.75 1953.70 L3432.21 1953.70 L3448.66 1953.70 L3465.12 1953.70 L3481.58 1953.70 L3498.04 1953.70 L3514.38 1953.70 L3530.84 1953.70 L3547.29 1953.70 L3563.75 1953.70 L3563.75 1953.70 L618.38 1953.70 L618.38 1953.70 Z" stroke-linejoin="round"/>
	</defs>
	<defs>
		<clipPath id="clipPath_MjeZGczj">
			<use xlink:href="#path_rkhTGpQM"/>
		</clipPath>
	</defs>
	<use xlink:href="#path_rkhTGpQM" style="stroke:none;fill:#E99833"/>
	<use xlink:href="#path_rkhTGpQM" style="fill:none;stroke:#E37E00;stroke-width:17.28" clip-path="url(#clipPath_MjeZGczj)"/>
	<defs>
		<path id="path_zSASMELN" d="M618.38 1953.70 L618.38 1953.70 L634.84 1953.70 L651.30 1953.70 L667.75 1953.70 L684.21 1953.70 L700.67 1953.70 L717.13 1953.70 L733.59 1953.70 L750.05 1953.70 L766.51 1953.70 L782.97 1953.70 L799.42 1953.70 L815.88 1953.70 L832.34 1953.70 L848.80 1953.70 L865.26 1953.70 L881.72 1953.70 L898.18 1953.70 L914.64 1953.70 L931.10 1953.70 L947.55 1953.70 L964.01 1953.70 L980.47 1953.70 L996.93 1953.70 L1013.39 1953.70 L1029.72 1953.70 L1046.18 1953.70 L1062.64 1953.70 L1079.10 1953.70 L1095.56 1953.70 L1112.02 1953.70 L1128.48 1953.70 L1144.93 1953.70 L1161.39 1953.70 L1177.85 1953.70 L1194.31 1953.70 L1210.77 1953.70 L1227.23 1953.70 L1243.69 1953.70 L1260.15 1953.70 L1276.61 1953.70 L1293.06 1953.70 L1309.52 1953.70 L1325.98 1953.70 L1342.44 1953.70 L1358.90 1953.70 L1375.36 1953.70 L1391.82 1953.70 L1408.28 1953.70 L1424.73 1953.70 L1441.19 1953.70 L1457.65 1953.70 L1474.11 1953.70 L1490.57 1953.70 L1507.03 1953.70 L1523.36 1953.70 L1539.82 1953.70 L1556.28 1953.70 L1572.74 1953.70 L1589.20 1953.70 L1605.66 1953.70 L1622.12 1953.70 L1638.57 1953.70 L1655.03 1953.70 L1671.49 1953.70 L1687.95 1953.70 L1704.41 1953.70 L1720.87 1953.70 L1737.33 1953.70 L1753.79 1953.70 L1770.24 1953.70 L1786.70 1953.70 L1803.16 1953.70 L1819.62 1953.70 L1836.08 1953.70 L1852.54 1953.70 L1869.00 1953.70 L1885.45 1953.70 L1901.91 1953.70 L1918.37 1953.70 L1934.83 1953.70 L1951.29 1953.70 L1967.75 1953.70 L1984.21 1953.70 L2000.67 1953.70 L2017.00 1953.70 L2033.46 1953.70 L2049.92 1953.70 L2066.38 1953.70 L2082.84 1953.70 L2099.30 1953.70 L2115.75 1953.70 L2132.21 1953.70 L2148.67 1953.70 L2165.13 1953.70 L2181.59 1953.70 L2198.05 1953.70 L2214.51 1953.70 L2230.97 1953.70 L2247.42 1953.70 L2263.88 1953.70 L2280.34 1953.70 L2296.80 1953.70 L2313.26 1953.70 L2329.72 1953.70 L2346.18 1953.70 L2362.64 1953.70 L2379.09 1953.70 L2395.55 1953.70 L2412.01 1953.70 L2428.47 1953.70 L2444.93 1953.70 L2461.39 1953.70 L2477.85 1953.70 L2494.30 1953.70 L2510.76 1953.70 L2527.10 1953.70 L2543.56 1953.70 L2560.02 1953.70 L2576.47 1953.70 L2592.93 1953.70 L2609.39 1953.70 L2625.85 1953.70 L2642.31 1953.70 L2658.77 1953.70 L2675.23 1953.70 L2691.69 1953.70 L2708.14 1953.70 L2724.60 1953.70 L2741.06 1953.70 L2757.52 1953.70 L2773.98 1953.70 L2790.44 1953.70 L2806.90 1953.70 L2823.36 1953.70 L2839.82 1953.70 L2856.27 1953.70 L2872.73 1953.70 L2889.19 1953.70 L2905.65 1953.70 L2922.11 1953.70 L2938.57 1953.70 L2955.03 1953.70 L2971.49 1953.70 L2987.94 1953.70 L3004.40 1953.70 L3020.74 1953.70 L3037.20 1953.70 L3053.66 1953.70 L3070.11 1953.70 L3086.57 1953.70 L3103.03 1953.70 L3119.49 1953.70 L3135.95 1953.70 L3152.41 1953.70 L3168.87 1953.70 L3185.32 1953.70 L3201.78 1953.70 L3218.24 1953.70 L3234.70 1953.70 L3251.16 1953.70 L3267.62 1953.70 L3284.08 1953.70 L3300.54 1953.70 L3316.99 1953.70 L3333.45 1953.70 L3349.91 1953.70 L3366.37 1953.70 L3382.83 1953.70 L3399.29 1953.70 L3415.75 1953.70 L3432.21 1953.70 L3448.66 1953.70 L3465.12 1953.70 L3481.58 1953.70 L3498.04 1953.70 L3514.38 1953.70 L3530.84 1953.70 L3547.29 1953.70 L3563.75 1953.70 L3563.75 1953.70 L618.38 1953.70 L618.38 1953.70 Z" stroke-linejoin="round"/>
	</defs>
	<defs>
		<clipPath id="clipPath_eGfXgtuk">
			<use xlink:href="#path_zSASMELN"/>
		</clipPath>
	</defs>
	<use xlink:href="#path_zSASMELN" style="stroke:none;fill:#8BA59D"/>
	<use xlink:href="#path_zSASMELN" style="fill:none;stroke:#6E8E84;stroke-width:17.28" clip-path="url(#clipPath_eGfXgtuk)"/>
	<line x1="465.80" y1="1953.70" x2="465.80" y2="419.90" style="stroke:#000000;stroke-width:5.76"/>
	<line x1="465.80" y1="1953.70" x2="425.82" y2="1953.70" style="stroke:#000000;stroke-width:5.76"/>
	<text x="405.78" y="1988.73" style="font-family:'Helvetica';font-size:99.99px;fill:#000000" text-anchor="end">0.0</text>
	<line x1="465.80" y1="1800.37" x2="425.82" y2="1800.37" style="stroke:#000000;stroke-width:5.76"/>
	<text x="405.78" y="1835.40" style="font-family:'Helvetica';font-size:99.99px;fill:#000000" text-anchor="end">0.1</text>
	<line x1="465.80" y1="1646.92" x2="425.82" y2="1646.92" style="stroke:#000000;stroke-width:5.76"/>
	<text x="405.78" y="1681.94" style="font-family:'Helvetica';font-size:99.99px;fill:#000000" text-anchor="end">0.2</text>
	<line x1="465.80" y1="1493.59" x2="425.82" y2="1493.59" style="stroke:#000000;stroke-width:5.76"/>
	<text x="405.78" y="1528.61" style="font-family:'Helvetica';font-size:99.99px;fill:#000000" text-anchor="end">0.3</text>
	<line x1="465.80" y1="1340.13" x2="425.82" y2="1340.13" style="stroke:#000000;stroke-width:5.76"/>
	<text x="405.78" y="1375.16" style="font-family:'Helvetica';font-size:99.99px;fill:#000000" text-anchor="end">0.4</text>
	<line x1="465.80" y1="1186.80" x2="425.82" y2="1186.80" style="stroke:#000000;stroke-width:5.76"/>
	<text x="405.78" y="1221.83" style="font-family:'Helvetica';font-size:99.99px;fill:#000000" text-anchor="end">0.5</text>
	<line x1="465.80" y1="1033.47" x2="425.82" y2="1033.47" style="stroke:#000000;stroke-width:5.76"/>
	<text x="405.78" y="1068.50" style="font-family:'Helvetica';font-size:99.99px;fill:#000000" text-anchor="end">0.6</text>
	<line x1="465.80" y1="880.01" x2="425.82" y2="880.01" style="stroke:#000000;stroke-width:5.76"/>
	<text x="405.78" y="915.04" style="font-family:'Helvetica';font-size:99.99px;fill:#000000" text-anchor="end">0.7</text>
	<line x1="465.80" y1="726.68" x2="425.82" y2="726.68" style="stroke:#000000;stroke-width:5.76"/>
	<text x="405.78" y="761.71" style="font-family:'Helvetica';font-size:99.99px;fill:#000000" text-anchor="end">0.8</text>
	<line x1="465.80" y1="573.35" x2="425.82" y2="573.35" style="stroke:#000000;stroke-width:5.76"/>
	<text x="405.78" y="608.38" style="font-family:'Helvetica';font-size:99.99px;fill:#000000" text-anchor="end">0.9</text>
	<line x1="465.80" y1="419.90" x2="425.82" y2="419.90" style="stroke:#000000;stroke-width:5.76"/>
	<text x="405.78" y="454.93" style="font-family:'Helvetica';font-size:99.99px;fill:#000000" text-anchor="end">1.0</text>
	<text x="190.71" y="1186.80" style="font-family:'Helvetica';font-size:99.99px;fill:#000000" transform="rotate(-90 190.71,1186.80)" text-anchor="middle">Transition Probability</text>
	<line x1="465.80" y1="1953.70" x2="3859.02" y2="1953.70" style="stroke:#000000;stroke-width:5.76"/>
	<line x1="465.80" y1="1953.70" x2="465.80" y2="1993.67" style="stroke:#000000;stroke-width:5.76"/>
	<text x="465.80" y="2083.66" style="font-family:'Helvetica';font-size:99.99px;fill:#000000" text-anchor="middle">0</text>
	<line x1="1314.10" y1="1953.70" x2="1314.10" y2="1993.67" style="stroke:#000000;stroke-width:5.76"/>
	<text x="1314.10" y="2083.66" style="font-family:'Helvetica';font-size:99.99px;fill:#000000" text-anchor="middle">500</text>
	<line x1="2162.41" y1="1953.70" x2="2162.41" y2="1993.67" style="stroke:#000000;stroke-width:5.76"/>
	<text x="2162.41" y="2083.66" style="font-family:'Helvetica';font-size:99.99px;fill:#000000" text-anchor="middle">1000</text>
	<line x1="3010.71" y1="1953.70" x2="3010.71" y2="1993.67" style="stroke:#000000;stroke-width:5.76"/>
	<text x="3010.71" y="2083.66" style="font-family:'Helvetica';font-size:99.99px;fill:#000000" text-anchor="middle">1500</text>
	<line x1="3859.02" y1="1953.70" x2="3859.02" y2="1993.67" style="stroke:#000000;stroke-width:5.76"/>
	<text x="3859.02" y="2083.66" style="font-family:'Helvetica';font-size:99.99px;fill:#000000" text-anchor="middle">2000</text>
	<text x="2162.41" y="2193.67" style="font-family:'Helvetica';font-size:99.99px;fill:#000000" text-anchor="middle">Follow-up time</text>
	<rect x="614.42" y="2278.31" width="3095.98" height="466.30" style="fill:#FFFFFF"/>
	<rect x="617.30" y="2281.19" width="3090.22" height="460.54" style="fill:none;stroke:#000000;stroke-width:5.76"/>
	<rect x="657.61" y="2321.50" width="374.47" height="99.99" style="fill:#8BA59D"/>
	<rect x="661.93" y="2325.82" width="365.83" height="91.35" style="fill:none;stroke:#6E8E84;stroke-width:8.64"/>
	<rect x="2232.45" y="2321.50" width="374.34" height="99.99" style="fill:#E99833"/>
	<rect x="2236.77" y="2325.82" width="365.70" height="91.35" style="fill:none;stroke:#E37E00;stroke-width:8.64"/>
	<rect x="657.61" y="2461.46" width="374.47" height="99.99" style="fill:#779159"/>
	<rect x="661.93" y="2465.78" width="365.83" height="91.35" style="fill:none;stroke:#55752F;stroke-width:8.64"/>
	<rect x="2232.45" y="2461.46" width="374.34" height="99.99" style="fill:#A65D62"/>
	<rect x="2236.77" y="2465.78" width="365.70" height="91.35" style="fill:none;stroke:#90353B;stroke-width:8.64"/>
	<rect x="657.61" y="2601.43" width="374.47" height="99.99" style="fill:#486C8C"/>
	<rect x="661.93" y="2605.75" width="365.83" height="91.35" style="fill:none;stroke:#1A476F;stroke-width:8.64"/>
	<text x="1092.09" y="2406.52" style="font-family:'Helvetica';font-size:99.99px;fill:#000000">P(Y(t) = 1 | Y(90) = 3)</text>
	<text x="2666.81" y="2406.52" style="font-family:'Helvetica';font-size:99.99px;fill:#000000">P(Y(t) = 2 | Y(90) = 3)</text>
	<text x="1092.09" y="2546.49" style="font-family:'Helvetica';font-size:99.99px;fill:#000000">P(Y(t) = 3 | Y(90) = 3)</text>
	<text x="2666.81" y="2546.49" style="font-family:'Helvetica';font-size:99.99px;fill:#000000">P(Y(t) = 4 | Y(90) = 3)</text>
	<text x="1092.09" y="2686.46" style="font-family:'Helvetica';font-size:99.99px;fill:#000000">P(Y(t) = 5 | Y(90) = 3)</text>
	<text x="2162.41" y="369.63" style="font-family:'Helvetica';font-size:110.01px;fill:#000000" text-anchor="middle">From 2nd Readmission(3), Residential (RP)</text>
	<text x="2162.41" y="215.98" style="font-family:'Helvetica';font-size:139.96px;fill:#1E2D53" text-anchor="middle">P(Y(t) = b | Y(90) = 3, at1)</text>
</svg>
