<?xml version="1.0" encoding="UTF-8" standalone="no"?>
<!-- This is a Stata 16.1 generated SVG file (http://www.stata.com) -->

<svg version="1.1" width="5.50in" height="4.00in" viewBox="0 0 3960 2880" xmlns="http://www.w3.org/2000/svg" xmlns:xlink="http://www.w3.org/1999/xlink">
	<desc>Stata Graph - gh_1_2</desc>
	<rect x="0" y="0" width="3960" height="2880" style="fill:#EAF2F3;stroke:none"/>
	<rect x="0.00" y="0.00" width="3959.88" height="2880.00" style="fill:#FFFFFF"/>
	<rect x="2.88" y="2.88" width="3954.12" height="2874.24" style="fill:none;stroke:#EAF2F3;stroke-width:5.76"/>
	<rect x="465.80" y="419.90" width="3393.22" height="1533.81" style="fill:#FFFFFF"/>
	<rect x="468.67" y="422.78" width="3387.47" height="1528.05" style="fill:none;stroke:#FFFFFF;stroke-width:5.76"/>
	<line x1="465.80" y1="1953.70" x2="3859.02" y2="1953.70" style="stroke:#EAF2F3;stroke-width:8.64"/>
	<line x1="465.80" y1="1800.37" x2="3859.02" y2="1800.37" style="stroke:#EAF2F3;stroke-width:8.64"/>
	<line x1="465.80" y1="1646.92" x2="3859.02" y2="1646.92" style="stroke:#EAF2F3;stroke-width:8.64"/>
	<line x1="465.80" y1="1493.59" x2="3859.02" y2="1493.59" style="stroke:#EAF2F3;stroke-width:8.64"/>
	<line x1="465.80" y1="1340.13" x2="3859.02" y2="1340.13" style="stroke:#EAF2F3;stroke-width:8.64"/>
	<line x1="465.80" y1="1186.80" x2="3859.02" y2="1186.80" style="stroke:#EAF2F3;stroke-width:8.64"/>
	<line x1="465.80" y1="1033.47" x2="3859.02" y2="1033.47" style="stroke:#EAF2F3;stroke-width:8.64"/>
	<line x1="465.80" y1="880.01" x2="3859.02" y2="880.01" style="stroke:#EAF2F3;stroke-width:8.64"/>
	<line x1="465.80" y1="726.68" x2="3859.02" y2="726.68" style="stroke:#EAF2F3;stroke-width:8.64"/>
	<line x1="465.80" y1="573.35" x2="3859.02" y2="573.35" style="stroke:#EAF2F3;stroke-width:8.64"/>
	<line x1="465.80" y1="419.90" x2="3859.02" y2="419.90" style="stroke:#EAF2F3;stroke-width:8.64"/>
	<defs>
		<path id="path_mpapwKRg" d="M618.38 420.02 L618.38 420.02 L634.84 420.02 L651.30 420.02 L667.75 420.02 L684.21 420.02 L700.67 420.02 L717.13 420.02 L733.59 420.02 L750.05 420.02 L766.51 420.02 L782.97 420.02 L799.42 420.02 L815.88 420.02 L832.34 420.02 L848.80 420.02 L865.26 420.02 L881.72 420.02 L898.18 420.02 L914.64 420.02 L931.10 420.02 L947.55 420.02 L964.01 420.02 L980.47 420.02 L996.93 420.02 L1013.39 420.02 L1029.72 420.02 L1046.18 420.02 L1062.64 420.02 L1079.10 420.02 L1095.56 420.02 L1112.02 420.02 L1128.48 420.02 L1144.93 420.02 L1161.39 420.02 L1177.85 420.02 L1194.31 420.02 L1210.77 420.02 L1227.23 420.02 L1243.69 420.02 L1260.15 420.02 L1276.61 420.02 L1293.06 420.02 L1309.52 420.02 L1325.98 420.02 L1342.44 420.02 L1358.90 420.02 L1375.36 420.02 L1391.82 420.02 L1408.28 420.02 L1424.73 420.02 L1441.19 420.02 L1457.65 420.02 L1474.11 420.02 L1490.57 420.02 L1507.03 420.02 L1523.36 420.02 L1539.82 420.02 L1556.28 420.02 L1572.74 420.02 L1589.20 420.02 L1605.66 420.02 L1622.12 420.02 L1638.57 420.02 L1655.03 420.02 L1671.49 420.02 L1687.95 420.02 L1704.41 420.02 L1720.87 420.02 L1737.33 420.02 L1753.79 420.02 L1770.24 420.02 L1786.70 420.02 L1803.16 420.02 L1819.62 420.02 L1836.08 420.02 L1852.54 420.02 L1869.00 420.02 L1885.45 420.02 L1901.91 420.02 L1918.37 420.02 L1934.83 420.02 L1951.29 420.02 L1967.75 420.02 L1984.21 420.02 L2000.67 420.02 L2017.00 420.02 L2033.46 420.02 L2049.92 420.02 L2066.38 420.02 L2082.84 420.02 L2099.30 420.02 L2115.75 420.02 L2132.21 420.02 L2148.67 420.02 L2165.13 420.02 L2181.59 420.02 L2198.05 420.02 L2214.51 420.02 L2230.97 420.02 L2247.42 420.02 L2263.88 420.02 L2280.34 420.02 L2296.80 420.02 L2313.26 420.02 L2329.72 420.02 L2346.18 420.02 L2362.64 420.02 L2379.09 420.02 L2395.55 420.02 L2412.01 420.02 L2428.47 420.02 L2444.93 420.02 L2461.39 420.02 L2477.85 420.02 L2494.30 420.02 L2510.76 420.02 L2527.10 420.02 L2543.56 420.02 L2560.02 420.02 L2576.47 420.02 L2592.93 420.02 L2609.39 420.02 L2625.85 420.02 L2642.31 420.02 L2658.77 420.02 L2675.23 420.02 L2691.69 420.02 L2708.14 420.02 L2724.60 420.02 L2741.06 420.02 L2757.52 420.02 L2773.98 420.02 L2790.44 420.02 L2806.90 420.02 L2823.36 420.02 L2839.82 420.02 L2856.27 420.02 L2872.73 420.02 L2889.19 420.02 L2905.65 420.02 L2922.11 420.02 L2938.57 420.02 L2955.03 420.02 L2971.49 420.02 L2987.94 420.02 L3004.40 420.02 L3020.74 420.02 L3037.20 420.02 L3053.66 420.02 L3070.11 420.02 L3086.57 420.02 L3103.03 420.02 L3119.49 420.02 L3135.95 420.02 L3152.41 420.02 L3168.87 420.02 L3185.32 420.02 L3201.78 420.02 L3218.24 420.02 L3234.70 420.02 L3251.16 420.02 L3267.62 420.02 L3284.08 420.02 L3300.54 420.02 L3316.99 420.02 L3333.45 420.02 L3349.91 420.02 L3366.37 420.02 L3382.83 420.02 L3399.29 420.02 L3415.75 420.02 L3432.21 420.02 L3448.66 420.02 L3465.12 420.02 L3481.58 420.02 L3498.04 420.02 L3514.38 420.02 L3530.84 420.02 L3547.29 420.02 L3563.75 420.02 L3563.75 1953.70 L618.38 1953.70 L618.38 420.02 Z" stroke-linejoin="round"/>
	</defs>
	<defs>
		<clipPath id="clipPath_CiUryTiP">
			<use xlink:href="#path_mpapwKRg"/>
		</clipPath>
	</defs>
	<use xlink:href="#path_mpapwKRg" style="stroke:none;fill:#486C8C"/>
	<use xlink:href="#path_mpapwKRg" style="fill:none;stroke:#1A476F;stroke-width:17.28" clip-path="url(#clipPath_CiUryTiP)"/>
	<defs>
		<path id="path_VuoXgTtC" d="M618.38 420.02 L618.38 420.02 L634.84 420.02 L651.30 420.02 L667.75 420.02 L684.21 420.02 L700.67 420.02 L717.13 420.02 L733.59 420.02 L750.05 420.02 L766.51 420.02 L782.97 420.02 L799.42 420.02 L815.88 420.02 L832.34 420.02 L848.80 420.02 L865.26 420.02 L881.72 420.02 L898.18 420.14 L914.64 420.14 L931.10 420.27 L947.55 420.27 L964.01 420.27 L980.47 420.39 L996.93 420.39 L1013.39 420.39 L1029.72 420.52 L1046.18 420.52 L1062.64 420.64 L1079.10 420.64 L1095.56 420.76 L1112.02 420.89 L1128.48 420.89 L1144.93 421.01 L1161.39 421.13 L1177.85 421.26 L1194.31 421.38 L1210.77 421.51 L1227.23 421.63 L1243.69 421.75 L1260.15 421.88 L1276.61 422.00 L1293.06 422.12 L1309.52 422.25 L1325.98 422.37 L1342.44 422.50 L1358.90 422.50 L1375.36 422.74 L1391.82 422.74 L1408.28 422.87 L1424.73 423.11 L1441.19 423.36 L1457.65 423.49 L1474.11 423.73 L1490.57 423.98 L1507.03 424.23 L1523.36 424.35 L1539.82 424.60 L1556.28 424.72 L1572.74 424.97 L1589.20 425.09 L1605.66 425.34 L1622.12 425.59 L1638.57 425.84 L1655.03 425.96 L1671.49 426.21 L1687.95 426.46 L1704.41 426.83 L1720.87 427.07 L1737.33 427.32 L1753.79 427.69 L1770.24 428.06 L1786.70 428.31 L1803.16 428.68 L1819.62 428.93 L1836.08 429.18 L1852.54 429.30 L1869.00 429.67 L1885.45 429.80 L1901.91 430.17 L1918.37 430.54 L1934.83 430.91 L1951.29 431.28 L1967.75 431.41 L1984.21 431.78 L2000.67 432.27 L2017.00 432.52 L2033.46 432.89 L2049.92 433.26 L2066.38 433.63 L2082.84 434.00 L2099.30 434.38 L2115.75 434.75 L2132.21 435.12 L2148.67 435.61 L2165.13 435.86 L2181.59 436.36 L2198.05 436.73 L2214.51 436.97 L2230.97 437.35 L2247.42 437.84 L2263.88 438.34 L2280.34 438.83 L2296.80 439.33 L2313.26 439.57 L2329.72 439.94 L2346.18 440.56 L2362.64 440.94 L2379.09 441.31 L2395.55 441.80 L2412.01 442.30 L2428.47 442.54 L2444.93 443.04 L2461.39 443.53 L2477.85 444.03 L2494.30 444.40 L2510.76 445.02 L2527.10 445.51 L2543.56 445.89 L2560.02 446.26 L2576.47 446.88 L2592.93 447.25 L2609.39 447.74 L2625.85 448.11 L2642.31 448.61 L2658.77 449.23 L2675.23 449.72 L2691.69 450.34 L2708.14 450.84 L2724.60 451.45 L2741.06 451.83 L2757.52 452.57 L2773.98 452.94 L2790.44 453.31 L2806.90 453.68 L2823.36 454.30 L2839.82 454.80 L2856.27 455.17 L2872.73 455.91 L2889.19 456.40 L2905.65 457.02 L2922.11 457.52 L2938.57 458.14 L2955.03 458.76 L2971.49 459.25 L2987.94 459.87 L3004.40 460.49 L3020.74 460.98 L3037.20 461.48 L3053.66 461.97 L3070.11 462.47 L3086.57 463.09 L3103.03 463.83 L3119.49 464.57 L3135.95 465.07 L3152.41 465.56 L3168.87 466.18 L3185.32 466.80 L3201.78 467.54 L3218.24 468.04 L3234.70 468.78 L3251.16 469.27 L3267.62 469.77 L3284.08 470.39 L3300.54 470.88 L3316.99 471.38 L3333.45 472.12 L3349.91 472.74 L3366.37 473.23 L3382.83 473.73 L3399.29 474.47 L3415.75 474.97 L3432.21 475.46 L3448.66 475.96 L3465.12 476.45 L3481.58 477.19 L3498.04 478.06 L3514.38 478.68 L3530.84 479.42 L3547.29 480.17 L3563.75 480.66 L3563.75 1953.70 L618.38 1953.70 L618.38 420.02 Z" stroke-linejoin="round"/>
	</defs>
	<defs>
		<clipPath id="clipPath_OQsYQfdw">
			<use xlink:href="#path_VuoXgTtC"/>
		</clipPath>
	</defs>
	<use xlink:href="#path_VuoXgTtC" style="stroke:none;fill:#A65D62"/>
	<use xlink:href="#path_VuoXgTtC" style="fill:none;stroke:#90353B;stroke-width:17.28" clip-path="url(#clipPath_OQsYQfdw)"/>
	<defs>
		<path id="path_tphQeBqC" d="M618.38 420.39 L618.38 420.39 L634.84 420.52 L651.30 420.64 L667.75 420.89 L684.21 421.01 L700.67 421.13 L717.13 421.51 L733.59 421.75 L750.05 422.12 L766.51 422.25 L782.97 422.62 L799.42 422.99 L815.88 423.36 L832.34 423.86 L848.80 424.23 L865.26 424.60 L881.72 425.22 L898.18 425.84 L914.64 426.33 L931.10 426.95 L947.55 427.45 L964.01 428.19 L980.47 428.81 L996.93 429.55 L1013.39 430.29 L1029.72 431.16 L1046.18 431.90 L1062.64 432.64 L1079.10 433.39 L1095.56 434.38 L1112.02 435.24 L1128.48 435.98 L1144.93 437.10 L1161.39 438.09 L1177.85 438.83 L1194.31 439.82 L1210.77 440.69 L1227.23 441.68 L1243.69 442.42 L1260.15 443.53 L1276.61 444.52 L1293.06 445.39 L1309.52 446.38 L1325.98 447.25 L1342.44 448.36 L1358.90 449.47 L1375.36 450.34 L1391.82 451.70 L1408.28 452.82 L1424.73 453.81 L1441.19 455.17 L1457.65 456.28 L1474.11 457.52 L1490.57 458.76 L1507.03 459.99 L1523.36 460.86 L1539.82 461.97 L1556.28 462.72 L1572.74 463.95 L1589.20 465.19 L1605.66 466.18 L1622.12 467.42 L1638.57 468.66 L1655.03 469.89 L1671.49 471.13 L1687.95 472.49 L1704.41 473.85 L1720.87 475.09 L1737.33 476.58 L1753.79 477.81 L1770.24 479.05 L1786.70 480.54 L1803.16 481.77 L1819.62 483.14 L1836.08 484.37 L1852.54 485.36 L1869.00 486.72 L1885.45 487.96 L1901.91 489.20 L1918.37 490.31 L1934.83 491.67 L1951.29 492.91 L1967.75 494.03 L1984.21 495.14 L2000.67 496.50 L2017.00 498.11 L2033.46 499.47 L2049.92 500.58 L2066.38 502.19 L2082.84 503.31 L2099.30 504.79 L2115.75 506.15 L2132.21 507.39 L2148.67 508.63 L2165.13 510.24 L2181.59 511.35 L2198.05 512.71 L2214.51 514.20 L2230.97 515.43 L2247.42 516.80 L2263.88 518.28 L2280.34 519.89 L2296.80 521.38 L2313.26 522.74 L2329.72 523.97 L2346.18 525.21 L2362.64 526.45 L2379.09 527.93 L2395.55 529.42 L2412.01 530.78 L2428.47 532.27 L2444.93 533.38 L2461.39 534.62 L2477.85 535.85 L2494.30 537.34 L2510.76 538.58 L2527.10 539.69 L2543.56 541.18 L2560.02 542.54 L2576.47 544.02 L2592.93 545.51 L2609.39 546.87 L2625.85 548.35 L2642.31 549.59 L2658.77 550.83 L2675.23 552.31 L2691.69 553.55 L2708.14 554.79 L2724.60 556.15 L2741.06 557.39 L2757.52 558.75 L2773.98 560.23 L2790.44 561.60 L2806.90 562.83 L2823.36 564.07 L2839.82 565.68 L2856.27 567.16 L2872.73 568.65 L2889.19 570.01 L2905.65 571.25 L2922.11 572.49 L2938.57 573.85 L2955.03 575.33 L2971.49 576.82 L2987.94 578.05 L3004.40 579.29 L3020.74 580.53 L3037.20 581.77 L3053.66 583.13 L3070.11 584.37 L3086.57 585.60 L3103.03 587.34 L3119.49 588.70 L3135.95 590.18 L3152.41 591.91 L3168.87 593.15 L3185.32 594.51 L3201.78 595.87 L3218.24 596.99 L3234.70 598.35 L3251.16 599.83 L3267.62 601.20 L3284.08 602.56 L3300.54 603.80 L3316.99 605.16 L3333.45 606.39 L3349.91 607.76 L3366.37 609.24 L3382.83 610.60 L3399.29 611.96 L3415.75 613.20 L3432.21 614.31 L3448.66 615.68 L3465.12 616.79 L3481.58 617.90 L3498.04 619.26 L3514.38 620.63 L3530.84 622.23 L3547.29 623.47 L3563.75 624.59 L3563.75 1953.70 L618.38 1953.70 L618.38 420.39 Z" stroke-linejoin="round"/>
	</defs>
	<defs>
		<clipPath id="clipPath_FFuGaZZz">
			<use xlink:href="#path_tphQeBqC"/>
		</clipPath>
	</defs>
	<use xlink:href="#path_tphQeBqC" style="stroke:none;fill:#779159"/>
	<use xlink:href="#path_tphQeBqC" style="fill:none;stroke:#55752F;stroke-width:17.28" clip-path="url(#clipPath_FFuGaZZz)"/>
	<defs>
		<path id="path_CalaQfKA" d="M618.38 455.04 L618.38 455.04 L634.84 460.86 L651.30 466.30 L667.75 471.75 L684.21 477.57 L700.67 483.38 L717.13 489.57 L733.59 494.89 L750.05 500.71 L766.51 507.02 L782.97 512.34 L799.42 517.41 L815.88 522.86 L832.34 528.80 L848.80 534.37 L865.26 539.81 L881.72 545.38 L898.18 550.95 L914.64 555.41 L931.10 560.73 L947.55 565.80 L964.01 570.75 L980.47 575.83 L996.93 580.90 L1013.39 585.97 L1029.72 590.92 L1046.18 596.00 L1062.64 600.70 L1079.10 605.40 L1095.56 609.98 L1112.02 614.44 L1128.48 619.14 L1144.93 623.72 L1161.39 628.17 L1177.85 632.63 L1194.31 637.21 L1210.77 641.05 L1227.23 645.25 L1243.69 649.46 L1260.15 654.04 L1276.61 658.25 L1293.06 662.45 L1309.52 666.79 L1325.98 671.36 L1342.44 675.45 L1358.90 679.66 L1375.36 683.62 L1391.82 687.33 L1408.28 691.41 L1424.73 695.37 L1441.19 699.46 L1457.65 702.92 L1474.11 706.63 L1490.57 710.35 L1507.03 713.94 L1523.36 718.02 L1539.82 721.61 L1556.28 724.95 L1572.74 728.17 L1589.20 731.63 L1605.66 735.22 L1622.12 738.81 L1638.57 742.15 L1655.03 745.25 L1671.49 748.71 L1687.95 751.93 L1704.41 755.39 L1720.87 758.24 L1737.33 761.58 L1753.79 764.80 L1770.24 768.02 L1786.70 770.62 L1803.16 773.46 L1819.62 776.06 L1836.08 779.28 L1852.54 782.12 L1869.00 785.09 L1885.45 787.82 L1901.91 790.79 L1918.37 794.00 L1934.83 796.73 L1951.29 799.57 L1967.75 802.92 L1984.21 805.76 L2000.67 808.48 L2017.00 811.33 L2033.46 814.42 L2049.92 817.39 L2066.38 820.24 L2082.84 822.72 L2099.30 825.19 L2115.75 828.04 L2132.21 830.88 L2148.67 833.23 L2165.13 835.83 L2181.59 838.31 L2198.05 841.16 L2214.51 843.88 L2230.97 846.23 L2247.42 849.08 L2263.88 851.43 L2280.34 854.15 L2296.80 856.62 L2313.26 858.85 L2329.72 861.45 L2346.18 863.68 L2362.64 866.03 L2379.09 868.13 L2395.55 870.11 L2412.01 872.46 L2428.47 874.20 L2444.93 876.42 L2461.39 878.78 L2477.85 881.13 L2494.30 883.36 L2510.76 885.71 L2527.10 887.81 L2543.56 890.04 L2560.02 892.02 L2576.47 894.00 L2592.93 895.73 L2609.39 898.08 L2625.85 900.19 L2642.31 902.29 L2658.77 904.27 L2675.23 906.37 L2691.69 908.35 L2708.14 910.33 L2724.60 912.44 L2741.06 914.42 L2757.52 916.52 L2773.98 918.25 L2790.44 920.23 L2806.90 921.97 L2823.36 923.70 L2839.82 925.56 L2856.27 927.54 L2872.73 929.27 L2889.19 931.25 L2905.65 933.10 L2922.11 935.33 L2938.57 937.44 L2955.03 939.42 L2971.49 941.02 L2987.94 943.00 L3004.40 944.61 L3020.74 946.59 L3037.20 948.45 L3053.66 950.18 L3070.11 951.54 L3086.57 953.28 L3103.03 954.88 L3119.49 956.86 L3135.95 958.47 L3152.41 960.33 L3168.87 962.06 L3185.32 963.67 L3201.78 965.40 L3218.24 966.77 L3234.70 968.50 L3251.16 969.98 L3267.62 971.84 L3284.08 973.45 L3300.54 975.06 L3316.99 976.79 L3333.45 978.52 L3349.91 980.25 L3366.37 981.86 L3382.83 983.47 L3399.29 985.20 L3415.75 986.94 L3432.21 988.42 L3448.66 989.78 L3465.12 991.39 L3481.58 992.75 L3498.04 994.61 L3514.38 996.34 L3530.84 998.07 L3547.29 999.81 L3563.75 1001.42 L3563.75 1953.70 L618.38 1953.70 L618.38 455.04 Z" stroke-linejoin="round"/>
	</defs>
	<defs>
		<clipPath id="clipPath_IVvIyoDl">
			<use xlink:href="#path_CalaQfKA"/>
		</clipPath>
	</defs>
	<use xlink:href="#path_CalaQfKA" style="stroke:none;fill:#E99833"/>
	<use xlink:href="#path_CalaQfKA" style="fill:none;stroke:#E37E00;stroke-width:17.28" clip-path="url(#clipPath_IVvIyoDl)"/>
	<defs>
		<path id="path_ezHFxMyW" d="M618.38 1953.70 L618.38 1953.70 L634.84 1953.70 L651.30 1953.70 L667.75 1953.70 L684.21 1953.70 L700.67 1953.70 L717.13 1953.70 L733.59 1953.70 L750.05 1953.70 L766.51 1953.70 L782.97 1953.70 L799.42 1953.70 L815.88 1953.70 L832.34 1953.70 L848.80 1953.70 L865.26 1953.70 L881.72 1953.70 L898.18 1953.70 L914.64 1953.70 L931.10 1953.70 L947.55 1953.70 L964.01 1953.70 L980.47 1953.70 L996.93 1953.70 L1013.39 1953.70 L1029.72 1953.70 L1046.18 1953.70 L1062.64 1953.70 L1079.10 1953.70 L1095.56 1953.70 L1112.02 1953.70 L1128.48 1953.70 L1144.93 1953.70 L1161.39 1953.70 L1177.85 1953.70 L1194.31 1953.70 L1210.77 1953.70 L1227.23 1953.70 L1243.69 1953.70 L1260.15 1953.70 L1276.61 1953.70 L1293.06 1953.70 L1309.52 1953.70 L1325.98 1953.70 L1342.44 1953.70 L1358.90 1953.70 L1375.36 1953.70 L1391.82 1953.70 L1408.28 1953.70 L1424.73 1953.70 L1441.19 1953.70 L1457.65 1953.70 L1474.11 1953.70 L1490.57 1953.70 L1507.03 1953.70 L1523.36 1953.70 L1539.82 1953.70 L1556.28 1953.70 L1572.74 1953.70 L1589.20 1953.70 L1605.66 1953.70 L1622.12 1953.70 L1638.57 1953.70 L1655.03 1953.70 L1671.49 1953.70 L1687.95 1953.70 L1704.41 1953.70 L1720.87 1953.70 L1737.33 1953.70 L1753.79 1953.70 L1770.24 1953.70 L1786.70 1953.70 L1803.16 1953.70 L1819.62 1953.70 L1836.08 1953.70 L1852.54 1953.70 L1869.00 1953.70 L1885.45 1953.70 L1901.91 1953.70 L1918.37 1953.70 L1934.83 1953.70 L1951.29 1953.70 L1967.75 1953.70 L1984.21 1953.70 L2000.67 1953.70 L2017.00 1953.70 L2033.46 1953.70 L2049.92 1953.70 L2066.38 1953.70 L2082.84 1953.70 L2099.30 1953.70 L2115.75 1953.70 L2132.21 1953.70 L2148.67 1953.70 L2165.13 1953.70 L2181.59 1953.70 L2198.05 1953.70 L2214.51 1953.70 L2230.97 1953.70 L2247.42 1953.70 L2263.88 1953.70 L2280.34 1953.70 L2296.80 1953.70 L2313.26 1953.70 L2329.72 1953.70 L2346.18 1953.70 L2362.64 1953.70 L2379.09 1953.70 L2395.55 1953.70 L2412.01 1953.70 L2428.47 1953.70 L2444.93 1953.70 L2461.39 1953.70 L2477.85 1953.70 L2494.30 1953.70 L2510.76 1953.70 L2527.10 1953.70 L2543.56 1953.70 L2560.02 1953.70 L2576.47 1953.70 L2592.93 1953.70 L2609.39 1953.70 L2625.85 1953.70 L2642.31 1953.70 L2658.77 1953.70 L2675.23 1953.70 L2691.69 1953.70 L2708.14 1953.70 L2724.60 1953.70 L2741.06 1953.70 L2757.52 1953.70 L2773.98 1953.70 L2790.44 1953.70 L2806.90 1953.70 L2823.36 1953.70 L2839.82 1953.70 L2856.27 1953.70 L2872.73 1953.70 L2889.19 1953.70 L2905.65 1953.70 L2922.11 1953.70 L2938.57 1953.70 L2955.03 1953.70 L2971.49 1953.70 L2987.94 1953.70 L3004.40 1953.70 L3020.74 1953.70 L3037.20 1953.70 L3053.66 1953.70 L3070.11 1953.70 L3086.57 1953.70 L3103.03 1953.70 L3119.49 1953.70 L3135.95 1953.70 L3152.41 1953.70 L3168.87 1953.70 L3185.32 1953.70 L3201.78 1953.70 L3218.24 1953.70 L3234.70 1953.70 L3251.16 1953.70 L3267.62 1953.70 L3284.08 1953.70 L3300.54 1953.70 L3316.99 1953.70 L3333.45 1953.70 L3349.91 1953.70 L3366.37 1953.70 L3382.83 1953.70 L3399.29 1953.70 L3415.75 1953.70 L3432.21 1953.70 L3448.66 1953.70 L3465.12 1953.70 L3481.58 1953.70 L3498.04 1953.70 L3514.38 1953.70 L3530.84 1953.70 L3547.29 1953.70 L3563.75 1953.70 L3563.75 1953.70 L618.38 1953.70 L618.38 1953.70 Z" stroke-linejoin="round"/>
	</defs>
	<defs>
		<clipPath id="clipPath_sdyoMivj">
			<use xlink:href="#path_ezHFxMyW"/>
		</clipPath>
	</defs>
	<use xlink:href="#path_ezHFxMyW" style="stroke:none;fill:#8BA59D"/>
	<use xlink:href="#path_ezHFxMyW" style="fill:none;stroke:#6E8E84;stroke-width:17.28" clip-path="url(#clipPath_sdyoMivj)"/>
	<line x1="465.80" y1="1953.70" x2="465.80" y2="419.90" style="stroke:#000000;stroke-width:5.76"/>
	<line x1="465.80" y1="1953.70" x2="425.82" y2="1953.70" style="stroke:#000000;stroke-width:5.76"/>
	<text x="405.78" y="1988.73" style="font-family:'Helvetica';font-size:99.99px;fill:#000000" text-anchor="end">0.0</text>
	<line x1="465.80" y1="1800.37" x2="425.82" y2="1800.37" style="stroke:#000000;stroke-width:5.76"/>
	<text x="405.78" y="1835.40" style="font-family:'Helvetica';font-size:99.99px;fill:#000000" text-anchor="end">0.1</text>
	<line x1="465.80" y1="1646.92" x2="425.82" y2="1646.92" style="stroke:#000000;stroke-width:5.76"/>
	<text x="405.78" y="1681.94" style="font-family:'Helvetica';font-size:99.99px;fill:#000000" text-anchor="end">0.2</text>
	<line x1="465.80" y1="1493.59" x2="425.82" y2="1493.59" style="stroke:#000000;stroke-width:5.76"/>
	<text x="405.78" y="1528.61" style="font-family:'Helvetica';font-size:99.99px;fill:#000000" text-anchor="end">0.3</text>
	<line x1="465.80" y1="1340.13" x2="425.82" y2="1340.13" style="stroke:#000000;stroke-width:5.76"/>
	<text x="405.78" y="1375.16" style="font-family:'Helvetica';font-size:99.99px;fill:#000000" text-anchor="end">0.4</text>
	<line x1="465.80" y1="1186.80" x2="425.82" y2="1186.80" style="stroke:#000000;stroke-width:5.76"/>
	<text x="405.78" y="1221.83" style="font-family:'Helvetica';font-size:99.99px;fill:#000000" text-anchor="end">0.5</text>
	<line x1="465.80" y1="1033.47" x2="425.82" y2="1033.47" style="stroke:#000000;stroke-width:5.76"/>
	<text x="405.78" y="1068.50" style="font-family:'Helvetica';font-size:99.99px;fill:#000000" text-anchor="end">0.6</text>
	<line x1="465.80" y1="880.01" x2="425.82" y2="880.01" style="stroke:#000000;stroke-width:5.76"/>
	<text x="405.78" y="915.04" style="font-family:'Helvetica';font-size:99.99px;fill:#000000" text-anchor="end">0.7</text>
	<line x1="465.80" y1="726.68" x2="425.82" y2="726.68" style="stroke:#000000;stroke-width:5.76"/>
	<text x="405.78" y="761.71" style="font-family:'Helvetica';font-size:99.99px;fill:#000000" text-anchor="end">0.8</text>
	<line x1="465.80" y1="573.35" x2="425.82" y2="573.35" style="stroke:#000000;stroke-width:5.76"/>
	<text x="405.78" y="608.38" style="font-family:'Helvetica';font-size:99.99px;fill:#000000" text-anchor="end">0.9</text>
	<line x1="465.80" y1="419.90" x2="425.82" y2="419.90" style="stroke:#000000;stroke-width:5.76"/>
	<text x="405.78" y="454.93" style="font-family:'Helvetica';font-size:99.99px;fill:#000000" text-anchor="end">1.0</text>
	<text x="190.71" y="1186.80" style="font-family:'Helvetica';font-size:99.99px;fill:#000000" transform="rotate(-90 190.71,1186.80)" text-anchor="middle">Transition Probability</text>
	<line x1="465.80" y1="1953.70" x2="3859.02" y2="1953.70" style="stroke:#000000;stroke-width:5.76"/>
	<line x1="465.80" y1="1953.70" x2="465.80" y2="1993.67" style="stroke:#000000;stroke-width:5.76"/>
	<text x="465.80" y="2083.66" style="font-family:'Helvetica';font-size:99.99px;fill:#000000" text-anchor="middle">0</text>
	<line x1="1314.10" y1="1953.70" x2="1314.10" y2="1993.67" style="stroke:#000000;stroke-width:5.76"/>
	<text x="1314.10" y="2083.66" style="font-family:'Helvetica';font-size:99.99px;fill:#000000" text-anchor="middle">500</text>
	<line x1="2162.41" y1="1953.70" x2="2162.41" y2="1993.67" style="stroke:#000000;stroke-width:5.76"/>
	<text x="2162.41" y="2083.66" style="font-family:'Helvetica';font-size:99.99px;fill:#000000" text-anchor="middle">1000</text>
	<line x1="3010.71" y1="1953.70" x2="3010.71" y2="1993.67" style="stroke:#000000;stroke-width:5.76"/>
	<text x="3010.71" y="2083.66" style="font-family:'Helvetica';font-size:99.99px;fill:#000000" text-anchor="middle">1500</text>
	<line x1="3859.02" y1="1953.70" x2="3859.02" y2="1993.67" style="stroke:#000000;stroke-width:5.76"/>
	<text x="3859.02" y="2083.66" style="font-family:'Helvetica';font-size:99.99px;fill:#000000" text-anchor="middle">2000</text>
	<text x="2162.41" y="2193.67" style="font-family:'Helvetica';font-size:99.99px;fill:#000000" text-anchor="middle">Follow-up time</text>
	<rect x="614.42" y="2278.31" width="3095.98" height="466.30" style="fill:#FFFFFF"/>
	<rect x="617.30" y="2281.19" width="3090.22" height="460.54" style="fill:none;stroke:#000000;stroke-width:5.76"/>
	<rect x="657.61" y="2321.50" width="374.47" height="99.99" style="fill:#8BA59D"/>
	<rect x="661.93" y="2325.82" width="365.83" height="91.35" style="fill:none;stroke:#6E8E84;stroke-width:8.64"/>
	<rect x="2232.45" y="2321.50" width="374.34" height="99.99" style="fill:#E99833"/>
	<rect x="2236.77" y="2325.82" width="365.70" height="91.35" style="fill:none;stroke:#E37E00;stroke-width:8.64"/>
	<rect x="657.61" y="2461.46" width="374.47" height="99.99" style="fill:#779159"/>
	<rect x="661.93" y="2465.78" width="365.83" height="91.35" style="fill:none;stroke:#55752F;stroke-width:8.64"/>
	<rect x="2232.45" y="2461.46" width="374.34" height="99.99" style="fill:#A65D62"/>
	<rect x="2236.77" y="2465.78" width="365.70" height="91.35" style="fill:none;stroke:#90353B;stroke-width:8.64"/>
	<rect x="657.61" y="2601.43" width="374.47" height="99.99" style="fill:#486C8C"/>
	<rect x="661.93" y="2605.75" width="365.83" height="91.35" style="fill:none;stroke:#1A476F;stroke-width:8.64"/>
	<text x="1092.09" y="2406.52" style="font-family:'Helvetica';font-size:99.99px;fill:#000000">P(Y(t) = 1 | Y(90) = 2)</text>
	<text x="2666.81" y="2406.52" style="font-family:'Helvetica';font-size:99.99px;fill:#000000">P(Y(t) = 2 | Y(90) = 2)</text>
	<text x="1092.09" y="2546.49" style="font-family:'Helvetica';font-size:99.99px;fill:#000000">P(Y(t) = 3 | Y(90) = 2)</text>
	<text x="2666.81" y="2546.49" style="font-family:'Helvetica';font-size:99.99px;fill:#000000">P(Y(t) = 4 | Y(90) = 2)</text>
	<text x="1092.09" y="2686.46" style="font-family:'Helvetica';font-size:99.99px;fill:#000000">P(Y(t) = 5 | Y(90) = 2)</text>
	<text x="2162.41" y="369.63" style="font-family:'Helvetica';font-size:110.01px;fill:#000000" text-anchor="middle">From Readmission(2), Residential (3y)</text>
	<text x="2162.41" y="215.98" style="font-family:'Helvetica';font-size:139.96px;fill:#1E2D53" text-anchor="middle">P(Y(t) = b | Y(90) = 2, at1)</text>
</svg>
