<?xml version="1.0" encoding="UTF-8" standalone="no"?>
<!-- This is a Stata 16.1 generated SVG file (http://www.stata.com) -->

<svg version="1.1" width="5.50in" height="4.00in" viewBox="0 0 3960 2880" xmlns="http://www.w3.org/2000/svg" xmlns:xlink="http://www.w3.org/1999/xlink">
	<desc>Stata Graph - gh_1_2</desc>
	<rect x="0" y="0" width="3960" height="2880" style="fill:#EAF2F3;stroke:none"/>
	<rect x="0.00" y="0.00" width="3959.88" height="2880.00" style="fill:#FFFFFF"/>
	<rect x="2.88" y="2.88" width="3954.12" height="2874.24" style="fill:none;stroke:#EAF2F3;stroke-width:5.76"/>
	<rect x="465.80" y="419.90" width="3393.22" height="1533.81" style="fill:#FFFFFF"/>
	<rect x="468.67" y="422.78" width="3387.47" height="1528.05" style="fill:none;stroke:#FFFFFF;stroke-width:5.76"/>
	<line x1="465.80" y1="1953.70" x2="3859.02" y2="1953.70" style="stroke:#EAF2F3;stroke-width:8.64"/>
	<line x1="465.80" y1="1800.37" x2="3859.02" y2="1800.37" style="stroke:#EAF2F3;stroke-width:8.64"/>
	<line x1="465.80" y1="1646.92" x2="3859.02" y2="1646.92" style="stroke:#EAF2F3;stroke-width:8.64"/>
	<line x1="465.80" y1="1493.59" x2="3859.02" y2="1493.59" style="stroke:#EAF2F3;stroke-width:8.64"/>
	<line x1="465.80" y1="1340.13" x2="3859.02" y2="1340.13" style="stroke:#EAF2F3;stroke-width:8.64"/>
	<line x1="465.80" y1="1186.80" x2="3859.02" y2="1186.80" style="stroke:#EAF2F3;stroke-width:8.64"/>
	<line x1="465.80" y1="1033.47" x2="3859.02" y2="1033.47" style="stroke:#EAF2F3;stroke-width:8.64"/>
	<line x1="465.80" y1="880.01" x2="3859.02" y2="880.01" style="stroke:#EAF2F3;stroke-width:8.64"/>
	<line x1="465.80" y1="726.68" x2="3859.02" y2="726.68" style="stroke:#EAF2F3;stroke-width:8.64"/>
	<line x1="465.80" y1="573.35" x2="3859.02" y2="573.35" style="stroke:#EAF2F3;stroke-width:8.64"/>
	<line x1="465.80" y1="419.90" x2="3859.02" y2="419.90" style="stroke:#EAF2F3;stroke-width:8.64"/>
	<defs>
		<path id="path_SylQzyaa" d="M618.38 420.02 L618.38 420.02 L634.84 420.02 L651.30 420.02 L667.75 420.02 L684.21 420.02 L700.67 420.02 L717.13 420.02 L733.59 420.02 L750.05 420.02 L766.51 420.02 L782.97 420.02 L799.42 420.02 L815.88 420.02 L832.34 420.02 L848.80 420.02 L865.26 420.02 L881.72 420.02 L898.18 420.02 L914.64 420.02 L931.10 420.02 L947.55 420.02 L964.01 420.02 L980.47 420.02 L996.93 420.02 L1013.39 420.02 L1029.72 420.02 L1046.18 420.02 L1062.64 420.02 L1079.10 420.02 L1095.56 420.02 L1112.02 420.02 L1128.48 420.02 L1144.93 420.02 L1161.39 420.02 L1177.85 420.02 L1194.31 420.02 L1210.77 420.02 L1227.23 420.02 L1243.69 420.02 L1260.15 420.02 L1276.61 420.02 L1293.06 420.02 L1309.52 420.02 L1325.98 420.02 L1342.44 420.02 L1358.90 420.02 L1375.36 420.02 L1391.82 420.02 L1408.28 420.02 L1424.73 420.02 L1441.19 420.02 L1457.65 420.02 L1474.11 420.02 L1490.57 420.02 L1507.03 420.02 L1523.36 420.02 L1539.82 420.02 L1556.28 420.02 L1572.74 420.02 L1589.20 420.02 L1605.66 420.02 L1622.12 420.02 L1638.57 420.02 L1655.03 420.02 L1671.49 420.02 L1687.95 420.02 L1704.41 420.02 L1720.87 420.02 L1737.33 420.02 L1753.79 420.02 L1770.24 420.02 L1786.70 420.02 L1803.16 420.02 L1819.62 420.02 L1836.08 420.02 L1852.54 420.02 L1869.00 420.02 L1885.45 420.02 L1901.91 420.02 L1918.37 420.02 L1934.83 420.02 L1951.29 420.02 L1967.75 420.02 L1984.21 420.02 L2000.67 420.02 L2017.00 420.02 L2033.46 420.02 L2049.92 420.02 L2066.38 420.02 L2082.84 420.02 L2099.30 420.02 L2115.75 420.02 L2132.21 420.02 L2148.67 420.02 L2165.13 420.02 L2181.59 420.02 L2198.05 420.02 L2214.51 420.02 L2230.97 420.02 L2247.42 420.02 L2263.88 420.02 L2280.34 420.02 L2296.80 420.02 L2313.26 420.02 L2329.72 420.02 L2346.18 420.02 L2362.64 420.02 L2379.09 420.02 L2395.55 420.02 L2412.01 420.02 L2428.47 420.02 L2444.93 420.02 L2461.39 420.02 L2477.85 420.02 L2494.30 420.02 L2510.76 420.02 L2527.10 420.02 L2543.56 420.02 L2560.02 420.02 L2576.47 420.02 L2592.93 420.02 L2609.39 420.02 L2625.85 420.02 L2642.31 420.02 L2658.77 420.02 L2675.23 420.02 L2691.69 420.02 L2708.14 420.02 L2724.60 420.02 L2741.06 420.02 L2757.52 420.02 L2773.98 420.02 L2790.44 420.02 L2806.90 420.02 L2823.36 420.02 L2839.82 420.02 L2856.27 420.02 L2872.73 420.02 L2889.19 420.02 L2905.65 420.02 L2922.11 420.02 L2938.57 420.02 L2955.03 420.02 L2971.49 420.02 L2987.94 420.02 L3004.40 420.02 L3020.74 420.02 L3037.20 420.02 L3053.66 420.02 L3070.11 420.02 L3086.57 420.02 L3103.03 420.02 L3119.49 420.02 L3135.95 420.02 L3152.41 420.02 L3168.87 420.02 L3185.32 420.02 L3201.78 420.02 L3218.24 420.02 L3234.70 420.02 L3251.16 420.02 L3267.62 420.02 L3284.08 420.02 L3300.54 420.02 L3316.99 420.02 L3333.45 420.02 L3349.91 420.02 L3366.37 420.02 L3382.83 420.02 L3399.29 420.02 L3415.75 420.02 L3432.21 420.02 L3448.66 420.02 L3465.12 420.02 L3481.58 420.02 L3498.04 420.02 L3514.38 420.02 L3530.84 420.02 L3547.29 420.02 L3563.75 420.02 L3563.75 1953.70 L618.38 1953.70 L618.38 420.02 Z" stroke-linejoin="round"/>
	</defs>
	<defs>
		<clipPath id="clipPath_FfNiwsiI">
			<use xlink:href="#path_SylQzyaa"/>
		</clipPath>
	</defs>
	<use xlink:href="#path_SylQzyaa" style="stroke:none;fill:#486C8C"/>
	<use xlink:href="#path_SylQzyaa" style="fill:none;stroke:#1A476F;stroke-width:17.28" clip-path="url(#clipPath_FfNiwsiI)"/>
	<defs>
		<path id="path_mhkqQkly" d="M618.38 420.02 L618.38 420.02 L634.84 420.02 L651.30 420.02 L667.75 420.02 L684.21 420.02 L700.67 420.02 L717.13 420.02 L733.59 420.02 L750.05 420.02 L766.51 420.14 L782.97 420.14 L799.42 420.14 L815.88 420.14 L832.34 420.14 L848.80 420.27 L865.26 420.27 L881.72 420.27 L898.18 420.27 L914.64 420.27 L931.10 420.27 L947.55 420.27 L964.01 420.39 L980.47 420.39 L996.93 420.52 L1013.39 420.52 L1029.72 420.64 L1046.18 420.64 L1062.64 420.76 L1079.10 420.76 L1095.56 420.89 L1112.02 421.01 L1128.48 421.13 L1144.93 421.26 L1161.39 421.26 L1177.85 421.38 L1194.31 421.51 L1210.77 421.51 L1227.23 421.63 L1243.69 421.75 L1260.15 421.88 L1276.61 422.12 L1293.06 422.37 L1309.52 422.50 L1325.98 422.62 L1342.44 422.87 L1358.90 423.11 L1375.36 423.24 L1391.82 423.49 L1408.28 423.73 L1424.73 423.98 L1441.19 424.35 L1457.65 424.60 L1474.11 424.85 L1490.57 425.09 L1507.03 425.34 L1523.36 425.59 L1539.82 425.84 L1556.28 426.08 L1572.74 426.46 L1589.20 426.83 L1605.66 427.20 L1622.12 427.69 L1638.57 427.94 L1655.03 428.31 L1671.49 428.68 L1687.95 429.18 L1704.41 429.55 L1720.87 430.04 L1737.33 430.42 L1753.79 430.91 L1770.24 431.41 L1786.70 431.90 L1803.16 432.27 L1819.62 432.64 L1836.08 433.26 L1852.54 433.76 L1869.00 434.38 L1885.45 434.87 L1901.91 435.49 L1918.37 436.11 L1934.83 436.73 L1951.29 437.35 L1967.75 438.09 L1984.21 438.58 L2000.67 439.33 L2017.00 439.94 L2033.46 440.81 L2049.92 441.43 L2066.38 442.05 L2082.84 442.79 L2099.30 443.41 L2115.75 444.28 L2132.21 444.77 L2148.67 445.51 L2165.13 446.26 L2181.59 447.12 L2198.05 447.87 L2214.51 448.48 L2230.97 449.23 L2247.42 449.97 L2263.88 450.71 L2280.34 451.33 L2296.80 451.95 L2313.26 452.82 L2329.72 453.81 L2346.18 454.67 L2362.64 455.41 L2379.09 456.28 L2395.55 456.90 L2412.01 457.64 L2428.47 458.63 L2444.93 459.50 L2461.39 460.24 L2477.85 460.98 L2494.30 461.73 L2510.76 462.47 L2527.10 463.58 L2543.56 464.32 L2560.02 465.07 L2576.47 466.06 L2592.93 466.80 L2609.39 467.91 L2625.85 469.03 L2642.31 469.89 L2658.77 470.88 L2675.23 471.63 L2691.69 472.49 L2708.14 473.36 L2724.60 474.47 L2741.06 475.46 L2757.52 476.45 L2773.98 477.44 L2790.44 478.31 L2806.90 479.17 L2823.36 479.79 L2839.82 480.66 L2856.27 481.65 L2872.73 482.52 L2889.19 483.51 L2905.65 484.37 L2922.11 485.24 L2938.57 486.23 L2955.03 487.22 L2971.49 487.96 L2987.94 489.08 L3004.40 489.82 L3020.74 490.68 L3037.20 491.43 L3053.66 492.17 L3070.11 493.16 L3086.57 494.27 L3103.03 495.14 L3119.49 496.13 L3135.95 497.00 L3152.41 497.99 L3168.87 498.85 L3185.32 499.59 L3201.78 500.58 L3218.24 501.70 L3234.70 502.56 L3251.16 503.68 L3267.62 504.54 L3284.08 505.29 L3300.54 506.28 L3316.99 507.39 L3333.45 508.26 L3349.91 509.00 L3366.37 509.87 L3382.83 510.98 L3399.29 511.97 L3415.75 512.71 L3432.21 513.45 L3448.66 514.32 L3465.12 515.31 L3481.58 516.18 L3498.04 517.17 L3514.38 518.03 L3530.84 518.90 L3547.29 520.01 L3563.75 521.00 L3563.75 1953.70 L618.38 1953.70 L618.38 420.02 Z" stroke-linejoin="round"/>
	</defs>
	<defs>
		<clipPath id="clipPath_yKtSEfHA">
			<use xlink:href="#path_mhkqQkly"/>
		</clipPath>
	</defs>
	<use xlink:href="#path_mhkqQkly" style="stroke:none;fill:#A65D62"/>
	<use xlink:href="#path_mhkqQkly" style="fill:none;stroke:#90353B;stroke-width:17.28" clip-path="url(#clipPath_yKtSEfHA)"/>
	<defs>
		<path id="path_FTjAryHH" d="M618.38 420.39 L618.38 420.39 L634.84 420.52 L651.30 420.64 L667.75 420.76 L684.21 420.89 L700.67 421.01 L717.13 421.26 L733.59 421.51 L750.05 421.63 L766.51 422.00 L782.97 422.37 L799.42 422.87 L815.88 423.24 L832.34 423.61 L848.80 424.23 L865.26 424.72 L881.72 425.34 L898.18 425.84 L914.64 426.33 L931.10 426.95 L947.55 427.69 L964.01 428.56 L980.47 429.30 L996.93 430.04 L1013.39 430.91 L1029.72 431.90 L1046.18 433.14 L1062.64 434.13 L1079.10 435.24 L1095.56 436.23 L1112.02 437.35 L1128.48 438.71 L1144.93 439.82 L1161.39 440.94 L1177.85 442.05 L1194.31 443.29 L1210.77 444.52 L1227.23 445.76 L1243.69 447.00 L1260.15 448.48 L1276.61 449.60 L1293.06 451.21 L1309.52 452.69 L1325.98 454.30 L1342.44 456.03 L1358.90 458.01 L1375.36 459.62 L1391.82 461.48 L1408.28 463.33 L1424.73 465.07 L1441.19 466.80 L1457.65 468.78 L1474.11 470.64 L1490.57 472.37 L1507.03 473.98 L1523.36 475.83 L1539.82 477.81 L1556.28 480.04 L1572.74 481.77 L1589.20 483.75 L1605.66 485.73 L1622.12 487.47 L1638.57 489.32 L1655.03 491.18 L1671.49 493.41 L1687.95 495.14 L1704.41 497.12 L1720.87 498.98 L1737.33 501.08 L1753.79 503.06 L1770.24 504.79 L1786.70 506.77 L1803.16 509.25 L1819.62 511.10 L1836.08 513.21 L1852.54 515.43 L1869.00 517.54 L1885.45 519.64 L1901.91 521.87 L1918.37 523.73 L1934.83 525.95 L1951.29 528.18 L1967.75 530.04 L1984.21 532.02 L2000.67 534.12 L2017.00 536.23 L2033.46 538.21 L2049.92 540.19 L2066.38 542.04 L2082.84 544.15 L2099.30 546.25 L2115.75 548.35 L2132.21 550.21 L2148.67 552.19 L2165.13 554.05 L2181.59 555.65 L2198.05 557.26 L2214.51 559.24 L2230.97 561.22 L2247.42 563.08 L2263.88 564.81 L2280.34 566.92 L2296.80 568.90 L2313.26 570.75 L2329.72 572.73 L2346.18 574.59 L2362.64 576.69 L2379.09 578.80 L2395.55 580.28 L2412.01 582.01 L2428.47 583.99 L2444.93 585.60 L2461.39 587.58 L2477.85 589.19 L2494.30 591.05 L2510.76 593.28 L2527.10 595.13 L2543.56 596.74 L2560.02 598.47 L2576.47 599.96 L2592.93 601.57 L2609.39 603.80 L2625.85 605.28 L2642.31 607.26 L2658.77 608.87 L2675.23 610.35 L2691.69 612.21 L2708.14 613.82 L2724.60 615.43 L2741.06 617.16 L2757.52 618.65 L2773.98 620.01 L2790.44 621.86 L2806.90 623.10 L2823.36 624.59 L2839.82 626.44 L2856.27 627.93 L2872.73 629.78 L2889.19 631.39 L2905.65 632.88 L2922.11 634.24 L2938.57 635.85 L2955.03 637.21 L2971.49 639.06 L2987.94 640.55 L3004.40 642.04 L3020.74 643.77 L3037.20 645.25 L3053.66 647.11 L3070.11 648.72 L3086.57 650.45 L3103.03 651.94 L3119.49 653.54 L3135.95 655.28 L3152.41 656.89 L3168.87 658.25 L3185.32 659.86 L3201.78 661.46 L3218.24 662.70 L3234.70 664.31 L3251.16 665.67 L3267.62 666.91 L3284.08 668.02 L3300.54 669.51 L3316.99 670.99 L3333.45 672.23 L3349.91 673.96 L3366.37 675.20 L3382.83 676.31 L3399.29 677.68 L3415.75 678.79 L3432.21 680.40 L3448.66 681.88 L3465.12 683.12 L3481.58 684.36 L3498.04 685.35 L3514.38 686.71 L3530.84 687.82 L3547.29 689.06 L3563.75 690.42 L3563.75 1953.70 L618.38 1953.70 L618.38 420.39 Z" stroke-linejoin="round"/>
	</defs>
	<defs>
		<clipPath id="clipPath_LfJxiklH">
			<use xlink:href="#path_FTjAryHH"/>
		</clipPath>
	</defs>
	<use xlink:href="#path_FTjAryHH" style="stroke:none;fill:#779159"/>
	<use xlink:href="#path_FTjAryHH" style="fill:none;stroke:#55752F;stroke-width:17.28" clip-path="url(#clipPath_LfJxiklH)"/>
	<defs>
		<path id="path_fJLhMSLt" d="M618.38 456.40 L618.38 456.40 L634.84 461.73 L651.30 466.92 L667.75 472.24 L684.21 478.06 L700.67 483.88 L717.13 490.44 L733.59 496.38 L750.05 502.69 L766.51 509.37 L782.97 515.68 L799.42 521.75 L815.88 528.68 L832.34 535.48 L848.80 542.54 L865.26 549.47 L881.72 556.03 L898.18 563.45 L914.64 570.38 L931.10 577.44 L947.55 584.98 L964.01 592.66 L980.47 600.21 L996.93 607.38 L1013.39 614.44 L1029.72 621.99 L1046.18 629.16 L1062.64 636.59 L1079.10 643.52 L1095.56 650.70 L1112.02 658.12 L1128.48 665.55 L1144.93 672.97 L1161.39 680.28 L1177.85 686.96 L1194.31 694.14 L1210.77 700.82 L1227.23 706.88 L1243.69 713.56 L1260.15 720.12 L1276.61 726.56 L1293.06 732.13 L1309.52 738.44 L1325.98 744.13 L1342.44 749.82 L1358.90 755.52 L1375.36 760.84 L1391.82 766.41 L1408.28 771.23 L1424.73 776.06 L1441.19 781.26 L1457.65 786.08 L1474.11 790.79 L1490.57 795.98 L1507.03 800.94 L1523.36 806.01 L1539.82 810.71 L1556.28 815.66 L1572.74 820.61 L1589.20 824.70 L1605.66 829.03 L1622.12 833.23 L1638.57 837.44 L1655.03 841.90 L1671.49 845.86 L1687.95 850.31 L1704.41 854.27 L1720.87 857.86 L1737.33 861.82 L1753.79 865.41 L1770.24 868.75 L1786.70 871.85 L1803.16 874.94 L1819.62 878.53 L1836.08 882.12 L1852.54 885.46 L1869.00 888.92 L1885.45 892.14 L1901.91 895.11 L1918.37 898.08 L1934.83 901.05 L1951.29 904.27 L1967.75 907.36 L1984.21 910.21 L2000.67 913.06 L2017.00 916.03 L2033.46 918.75 L2049.92 921.72 L2066.38 923.95 L2082.84 926.67 L2099.30 929.52 L2115.75 931.99 L2132.21 934.71 L2148.67 937.93 L2165.13 940.53 L2181.59 943.00 L2198.05 945.48 L2214.51 948.20 L2230.97 950.43 L2247.42 952.66 L2263.88 954.88 L2280.34 957.24 L2296.80 959.46 L2313.26 961.94 L2329.72 964.04 L2346.18 966.39 L2362.64 968.37 L2379.09 970.60 L2395.55 972.95 L2412.01 975.06 L2428.47 977.28 L2444.93 979.51 L2461.39 981.49 L2477.85 983.35 L2494.30 985.82 L2510.76 988.05 L2527.10 989.91 L2543.56 991.52 L2560.02 993.62 L2576.47 995.85 L2592.93 997.95 L2609.39 1000.30 L2625.85 1002.16 L2642.31 1004.02 L2658.77 1006.00 L2675.23 1007.85 L2691.69 1009.83 L2708.14 1011.81 L2724.60 1013.79 L2741.06 1015.65 L2757.52 1017.38 L2773.98 1018.99 L2790.44 1020.85 L2806.90 1022.83 L2823.36 1024.43 L2839.82 1026.17 L2856.27 1028.02 L2872.73 1029.63 L2889.19 1030.99 L2905.65 1032.48 L2922.11 1034.21 L2938.57 1035.57 L2955.03 1037.06 L2971.49 1038.91 L2987.94 1040.15 L3004.40 1041.39 L3020.74 1043.12 L3037.20 1044.85 L3053.66 1046.59 L3070.11 1047.70 L3086.57 1049.31 L3103.03 1050.67 L3119.49 1052.03 L3135.95 1053.39 L3152.41 1054.75 L3168.87 1056.24 L3185.32 1057.48 L3201.78 1059.09 L3218.24 1060.45 L3234.70 1061.81 L3251.16 1063.29 L3267.62 1064.78 L3284.08 1066.02 L3300.54 1067.25 L3316.99 1068.24 L3333.45 1069.85 L3349.91 1071.21 L3366.37 1072.57 L3382.83 1073.94 L3399.29 1075.42 L3415.75 1076.53 L3432.21 1078.02 L3448.66 1079.38 L3465.12 1080.62 L3481.58 1081.73 L3498.04 1082.85 L3514.38 1084.21 L3530.84 1085.45 L3547.29 1086.68 L3563.75 1087.80 L3563.75 1953.70 L618.38 1953.70 L618.38 456.40 Z" stroke-linejoin="round"/>
	</defs>
	<defs>
		<clipPath id="clipPath_QJrxvBkt">
			<use xlink:href="#path_fJLhMSLt"/>
		</clipPath>
	</defs>
	<use xlink:href="#path_fJLhMSLt" style="stroke:none;fill:#E99833"/>
	<use xlink:href="#path_fJLhMSLt" style="fill:none;stroke:#E37E00;stroke-width:17.28" clip-path="url(#clipPath_QJrxvBkt)"/>
	<defs>
		<path id="path_TPtNUDwV" d="M618.38 1953.70 L618.38 1953.70 L634.84 1953.70 L651.30 1953.70 L667.75 1953.70 L684.21 1953.70 L700.67 1953.70 L717.13 1953.70 L733.59 1953.70 L750.05 1953.70 L766.51 1953.70 L782.97 1953.70 L799.42 1953.70 L815.88 1953.70 L832.34 1953.70 L848.80 1953.70 L865.26 1953.70 L881.72 1953.70 L898.18 1953.70 L914.64 1953.70 L931.10 1953.70 L947.55 1953.70 L964.01 1953.70 L980.47 1953.70 L996.93 1953.70 L1013.39 1953.70 L1029.72 1953.70 L1046.18 1953.70 L1062.64 1953.70 L1079.10 1953.70 L1095.56 1953.70 L1112.02 1953.70 L1128.48 1953.70 L1144.93 1953.70 L1161.39 1953.70 L1177.85 1953.70 L1194.31 1953.70 L1210.77 1953.70 L1227.23 1953.70 L1243.69 1953.70 L1260.15 1953.70 L1276.61 1953.70 L1293.06 1953.70 L1309.52 1953.70 L1325.98 1953.70 L1342.44 1953.70 L1358.90 1953.70 L1375.36 1953.70 L1391.82 1953.70 L1408.28 1953.70 L1424.73 1953.70 L1441.19 1953.70 L1457.65 1953.70 L1474.11 1953.70 L1490.57 1953.70 L1507.03 1953.70 L1523.36 1953.70 L1539.82 1953.70 L1556.28 1953.70 L1572.74 1953.70 L1589.20 1953.70 L1605.66 1953.70 L1622.12 1953.70 L1638.57 1953.70 L1655.03 1953.70 L1671.49 1953.70 L1687.95 1953.70 L1704.41 1953.70 L1720.87 1953.70 L1737.33 1953.70 L1753.79 1953.70 L1770.24 1953.70 L1786.70 1953.70 L1803.16 1953.70 L1819.62 1953.70 L1836.08 1953.70 L1852.54 1953.70 L1869.00 1953.70 L1885.45 1953.70 L1901.91 1953.70 L1918.37 1953.70 L1934.83 1953.70 L1951.29 1953.70 L1967.75 1953.70 L1984.21 1953.70 L2000.67 1953.70 L2017.00 1953.70 L2033.46 1953.70 L2049.92 1953.70 L2066.38 1953.70 L2082.84 1953.70 L2099.30 1953.70 L2115.75 1953.70 L2132.21 1953.70 L2148.67 1953.70 L2165.13 1953.70 L2181.59 1953.70 L2198.05 1953.70 L2214.51 1953.70 L2230.97 1953.70 L2247.42 1953.70 L2263.88 1953.70 L2280.34 1953.70 L2296.80 1953.70 L2313.26 1953.70 L2329.72 1953.70 L2346.18 1953.70 L2362.64 1953.70 L2379.09 1953.70 L2395.55 1953.70 L2412.01 1953.70 L2428.47 1953.70 L2444.93 1953.70 L2461.39 1953.70 L2477.85 1953.70 L2494.30 1953.70 L2510.76 1953.70 L2527.10 1953.70 L2543.56 1953.70 L2560.02 1953.70 L2576.47 1953.70 L2592.93 1953.70 L2609.39 1953.70 L2625.85 1953.70 L2642.31 1953.70 L2658.77 1953.70 L2675.23 1953.70 L2691.69 1953.70 L2708.14 1953.70 L2724.60 1953.70 L2741.06 1953.70 L2757.52 1953.70 L2773.98 1953.70 L2790.44 1953.70 L2806.90 1953.70 L2823.36 1953.70 L2839.82 1953.70 L2856.27 1953.70 L2872.73 1953.70 L2889.19 1953.70 L2905.65 1953.70 L2922.11 1953.70 L2938.57 1953.70 L2955.03 1953.70 L2971.49 1953.70 L2987.94 1953.70 L3004.40 1953.70 L3020.74 1953.70 L3037.20 1953.70 L3053.66 1953.70 L3070.11 1953.70 L3086.57 1953.70 L3103.03 1953.70 L3119.49 1953.70 L3135.95 1953.70 L3152.41 1953.70 L3168.87 1953.70 L3185.32 1953.70 L3201.78 1953.70 L3218.24 1953.70 L3234.70 1953.70 L3251.16 1953.70 L3267.62 1953.70 L3284.08 1953.70 L3300.54 1953.70 L3316.99 1953.70 L3333.45 1953.70 L3349.91 1953.70 L3366.37 1953.70 L3382.83 1953.70 L3399.29 1953.70 L3415.75 1953.70 L3432.21 1953.70 L3448.66 1953.70 L3465.12 1953.70 L3481.58 1953.70 L3498.04 1953.70 L3514.38 1953.70 L3530.84 1953.70 L3547.29 1953.70 L3563.75 1953.70 L3563.75 1953.70 L618.38 1953.70 L618.38 1953.70 Z" stroke-linejoin="round"/>
	</defs>
	<defs>
		<clipPath id="clipPath_HLiijWmg">
			<use xlink:href="#path_TPtNUDwV"/>
		</clipPath>
	</defs>
	<use xlink:href="#path_TPtNUDwV" style="stroke:none;fill:#8BA59D"/>
	<use xlink:href="#path_TPtNUDwV" style="fill:none;stroke:#6E8E84;stroke-width:17.28" clip-path="url(#clipPath_HLiijWmg)"/>
	<line x1="465.80" y1="1953.70" x2="465.80" y2="419.90" style="stroke:#000000;stroke-width:5.76"/>
	<line x1="465.80" y1="1953.70" x2="425.82" y2="1953.70" style="stroke:#000000;stroke-width:5.76"/>
	<text x="405.78" y="1988.73" style="font-family:'Helvetica';font-size:99.99px;fill:#000000" text-anchor="end">0.0</text>
	<line x1="465.80" y1="1800.37" x2="425.82" y2="1800.37" style="stroke:#000000;stroke-width:5.76"/>
	<text x="405.78" y="1835.40" style="font-family:'Helvetica';font-size:99.99px;fill:#000000" text-anchor="end">0.1</text>
	<line x1="465.80" y1="1646.92" x2="425.82" y2="1646.92" style="stroke:#000000;stroke-width:5.76"/>
	<text x="405.78" y="1681.94" style="font-family:'Helvetica';font-size:99.99px;fill:#000000" text-anchor="end">0.2</text>
	<line x1="465.80" y1="1493.59" x2="425.82" y2="1493.59" style="stroke:#000000;stroke-width:5.76"/>
	<text x="405.78" y="1528.61" style="font-family:'Helvetica';font-size:99.99px;fill:#000000" text-anchor="end">0.3</text>
	<line x1="465.80" y1="1340.13" x2="425.82" y2="1340.13" style="stroke:#000000;stroke-width:5.76"/>
	<text x="405.78" y="1375.16" style="font-family:'Helvetica';font-size:99.99px;fill:#000000" text-anchor="end">0.4</text>
	<line x1="465.80" y1="1186.80" x2="425.82" y2="1186.80" style="stroke:#000000;stroke-width:5.76"/>
	<text x="405.78" y="1221.83" style="font-family:'Helvetica';font-size:99.99px;fill:#000000" text-anchor="end">0.5</text>
	<line x1="465.80" y1="1033.47" x2="425.82" y2="1033.47" style="stroke:#000000;stroke-width:5.76"/>
	<text x="405.78" y="1068.50" style="font-family:'Helvetica';font-size:99.99px;fill:#000000" text-anchor="end">0.6</text>
	<line x1="465.80" y1="880.01" x2="425.82" y2="880.01" style="stroke:#000000;stroke-width:5.76"/>
	<text x="405.78" y="915.04" style="font-family:'Helvetica';font-size:99.99px;fill:#000000" text-anchor="end">0.7</text>
	<line x1="465.80" y1="726.68" x2="425.82" y2="726.68" style="stroke:#000000;stroke-width:5.76"/>
	<text x="405.78" y="761.71" style="font-family:'Helvetica';font-size:99.99px;fill:#000000" text-anchor="end">0.8</text>
	<line x1="465.80" y1="573.35" x2="425.82" y2="573.35" style="stroke:#000000;stroke-width:5.76"/>
	<text x="405.78" y="608.38" style="font-family:'Helvetica';font-size:99.99px;fill:#000000" text-anchor="end">0.9</text>
	<line x1="465.80" y1="419.90" x2="425.82" y2="419.90" style="stroke:#000000;stroke-width:5.76"/>
	<text x="405.78" y="454.93" style="font-family:'Helvetica';font-size:99.99px;fill:#000000" text-anchor="end">1.0</text>
	<text x="190.71" y="1186.80" style="font-family:'Helvetica';font-size:99.99px;fill:#000000" transform="rotate(-90 190.71,1186.80)" text-anchor="middle">Transition Probability</text>
	<line x1="465.80" y1="1953.70" x2="3859.02" y2="1953.70" style="stroke:#000000;stroke-width:5.76"/>
	<line x1="465.80" y1="1953.70" x2="465.80" y2="1993.67" style="stroke:#000000;stroke-width:5.76"/>
	<text x="465.80" y="2083.66" style="font-family:'Helvetica';font-size:99.99px;fill:#000000" text-anchor="middle">0</text>
	<line x1="1314.10" y1="1953.70" x2="1314.10" y2="1993.67" style="stroke:#000000;stroke-width:5.76"/>
	<text x="1314.10" y="2083.66" style="font-family:'Helvetica';font-size:99.99px;fill:#000000" text-anchor="middle">500</text>
	<line x1="2162.41" y1="1953.70" x2="2162.41" y2="1993.67" style="stroke:#000000;stroke-width:5.76"/>
	<text x="2162.41" y="2083.66" style="font-family:'Helvetica';font-size:99.99px;fill:#000000" text-anchor="middle">1000</text>
	<line x1="3010.71" y1="1953.70" x2="3010.71" y2="1993.67" style="stroke:#000000;stroke-width:5.76"/>
	<text x="3010.71" y="2083.66" style="font-family:'Helvetica';font-size:99.99px;fill:#000000" text-anchor="middle">1500</text>
	<line x1="3859.02" y1="1953.70" x2="3859.02" y2="1993.67" style="stroke:#000000;stroke-width:5.76"/>
	<text x="3859.02" y="2083.66" style="font-family:'Helvetica';font-size:99.99px;fill:#000000" text-anchor="middle">2000</text>
	<text x="2162.41" y="2193.67" style="font-family:'Helvetica';font-size:99.99px;fill:#000000" text-anchor="middle">Follow-up time</text>
	<rect x="614.42" y="2278.31" width="3095.98" height="466.30" style="fill:#FFFFFF"/>
	<rect x="617.30" y="2281.19" width="3090.22" height="460.54" style="fill:none;stroke:#000000;stroke-width:5.76"/>
	<rect x="657.61" y="2321.50" width="374.47" height="99.99" style="fill:#8BA59D"/>
	<rect x="661.93" y="2325.82" width="365.83" height="91.35" style="fill:none;stroke:#6E8E84;stroke-width:8.64"/>
	<rect x="2232.45" y="2321.50" width="374.34" height="99.99" style="fill:#E99833"/>
	<rect x="2236.77" y="2325.82" width="365.70" height="91.35" style="fill:none;stroke:#E37E00;stroke-width:8.64"/>
	<rect x="657.61" y="2461.46" width="374.47" height="99.99" style="fill:#779159"/>
	<rect x="661.93" y="2465.78" width="365.83" height="91.35" style="fill:none;stroke:#55752F;stroke-width:8.64"/>
	<rect x="2232.45" y="2461.46" width="374.34" height="99.99" style="fill:#A65D62"/>
	<rect x="2236.77" y="2465.78" width="365.70" height="91.35" style="fill:none;stroke:#90353B;stroke-width:8.64"/>
	<rect x="657.61" y="2601.43" width="374.47" height="99.99" style="fill:#486C8C"/>
	<rect x="661.93" y="2605.75" width="365.83" height="91.35" style="fill:none;stroke:#1A476F;stroke-width:8.64"/>
	<text x="1092.09" y="2406.52" style="font-family:'Helvetica';font-size:99.99px;fill:#000000">P(Y(t) = 1 | Y(90) = 2)</text>
	<text x="2666.81" y="2406.52" style="font-family:'Helvetica';font-size:99.99px;fill:#000000">P(Y(t) = 2 | Y(90) = 2)</text>
	<text x="1092.09" y="2546.49" style="font-family:'Helvetica';font-size:99.99px;fill:#000000">P(Y(t) = 3 | Y(90) = 2)</text>
	<text x="2666.81" y="2546.49" style="font-family:'Helvetica';font-size:99.99px;fill:#000000">P(Y(t) = 4 | Y(90) = 2)</text>
	<text x="1092.09" y="2686.46" style="font-family:'Helvetica';font-size:99.99px;fill:#000000">P(Y(t) = 5 | Y(90) = 2)</text>
	<text x="2162.41" y="369.63" style="font-family:'Helvetica';font-size:110.01px;fill:#000000" text-anchor="middle">From Readmission(2), Outpatient (RP)</text>
	<text x="2162.41" y="215.98" style="font-family:'Helvetica';font-size:139.96px;fill:#1E2D53" text-anchor="middle">P(Y(t) = b | Y(90) = 2, at1)</text>
</svg>
