<?xml version="1.0" encoding="UTF-8" standalone="no"?>
<!-- This is a Stata 16.1 generated SVG file (http://www.stata.com) -->

<svg version="1.1" width="5.50in" height="4.00in" viewBox="0 0 3960 2880" xmlns="http://www.w3.org/2000/svg" xmlns:xlink="http://www.w3.org/1999/xlink">
	<desc>Stata Graph - gh_1_1</desc>
	<rect x="0" y="0" width="3960" height="2880" style="fill:#EAF2F3;stroke:none"/>
	<rect x="0.00" y="0.00" width="3959.88" height="2880.00" style="fill:#FFFFFF"/>
	<rect x="2.88" y="2.88" width="3954.12" height="2874.24" style="fill:none;stroke:#EAF2F3;stroke-width:5.76"/>
	<rect x="465.80" y="419.90" width="3393.22" height="1253.75" style="fill:#FFFFFF"/>
	<rect x="468.67" y="422.78" width="3387.47" height="1247.99" style="fill:none;stroke:#FFFFFF;stroke-width:5.76"/>
	<line x1="465.80" y1="1673.65" x2="3859.02" y2="1673.65" style="stroke:#EAF2F3;stroke-width:8.64"/>
	<line x1="465.80" y1="1548.28" x2="3859.02" y2="1548.28" style="stroke:#EAF2F3;stroke-width:8.64"/>
	<line x1="465.80" y1="1422.92" x2="3859.02" y2="1422.92" style="stroke:#EAF2F3;stroke-width:8.64"/>
	<line x1="465.80" y1="1297.56" x2="3859.02" y2="1297.56" style="stroke:#EAF2F3;stroke-width:8.64"/>
	<line x1="465.80" y1="1172.20" x2="3859.02" y2="1172.20" style="stroke:#EAF2F3;stroke-width:8.64"/>
	<line x1="465.80" y1="1046.83" x2="3859.02" y2="1046.83" style="stroke:#EAF2F3;stroke-width:8.64"/>
	<line x1="465.80" y1="921.47" x2="3859.02" y2="921.47" style="stroke:#EAF2F3;stroke-width:8.64"/>
	<line x1="465.80" y1="796.11" x2="3859.02" y2="796.11" style="stroke:#EAF2F3;stroke-width:8.64"/>
	<line x1="465.80" y1="670.62" x2="3859.02" y2="670.62" style="stroke:#EAF2F3;stroke-width:8.64"/>
	<line x1="465.80" y1="545.26" x2="3859.02" y2="545.26" style="stroke:#EAF2F3;stroke-width:8.64"/>
	<line x1="465.80" y1="419.90" x2="3859.02" y2="419.90" style="stroke:#EAF2F3;stroke-width:8.64"/>
	<defs>
		<path id="path_RHeSvDBG" d="M618.38 420.02 L618.38 420.02 L634.84 420.02 L651.30 420.02 L667.75 420.02 L684.21 420.02 L700.67 420.02 L717.13 420.02 L733.59 420.02 L750.05 420.02 L766.51 420.02 L782.97 420.02 L799.42 420.02 L815.88 420.02 L832.34 420.02 L848.80 420.02 L865.26 420.02 L881.72 420.02 L898.18 420.02 L914.64 420.02 L931.10 420.02 L947.55 420.02 L964.01 420.02 L980.47 420.02 L996.93 420.02 L1013.39 420.02 L1029.72 420.02 L1046.18 420.02 L1062.64 420.02 L1079.10 420.02 L1095.56 420.02 L1112.02 420.02 L1128.48 420.02 L1144.93 420.02 L1161.39 420.02 L1177.85 420.02 L1194.31 420.02 L1210.77 420.02 L1227.23 420.02 L1243.69 420.02 L1260.15 420.02 L1276.61 420.02 L1293.06 420.02 L1309.52 420.02 L1325.98 420.02 L1342.44 420.02 L1358.90 420.02 L1375.36 420.02 L1391.82 420.02 L1408.28 420.02 L1424.73 420.02 L1441.19 420.02 L1457.65 420.02 L1474.11 420.02 L1490.57 420.02 L1507.03 420.02 L1523.36 420.02 L1539.82 420.02 L1556.28 420.02 L1572.74 420.02 L1589.20 420.02 L1605.66 420.02 L1622.12 420.02 L1638.57 420.02 L1655.03 420.02 L1671.49 420.02 L1687.95 420.02 L1704.41 420.02 L1720.87 420.02 L1737.33 420.02 L1753.79 420.02 L1770.24 420.02 L1786.70 420.02 L1803.16 420.02 L1819.62 420.02 L1836.08 420.02 L1852.54 420.02 L1869.00 420.02 L1885.45 420.02 L1901.91 420.02 L1918.37 420.02 L1934.83 420.02 L1951.29 420.02 L1967.75 420.02 L1984.21 420.02 L2000.67 420.02 L2017.00 420.02 L2033.46 420.02 L2049.92 420.02 L2066.38 420.02 L2082.84 420.02 L2099.30 420.02 L2115.75 420.02 L2132.21 420.02 L2148.67 420.02 L2165.13 420.02 L2181.59 420.02 L2198.05 420.02 L2214.51 420.02 L2230.97 420.02 L2247.42 420.02 L2263.88 420.02 L2280.34 420.02 L2296.80 420.02 L2313.26 420.02 L2329.72 420.02 L2346.18 420.02 L2362.64 420.02 L2379.09 420.02 L2395.55 420.02 L2412.01 420.02 L2428.47 420.02 L2444.93 420.02 L2461.39 420.02 L2477.85 420.02 L2494.30 420.02 L2510.76 420.02 L2527.10 420.02 L2543.56 420.02 L2560.02 420.02 L2576.47 420.02 L2592.93 420.02 L2609.39 420.02 L2625.85 420.02 L2642.31 420.02 L2658.77 420.02 L2675.23 420.02 L2691.69 420.02 L2708.14 420.02 L2724.60 420.02 L2741.06 420.02 L2757.52 420.02 L2773.98 420.02 L2790.44 420.02 L2806.90 420.02 L2823.36 420.02 L2839.82 420.02 L2856.27 420.02 L2872.73 420.02 L2889.19 420.02 L2905.65 420.02 L2922.11 420.02 L2938.57 420.02 L2955.03 420.02 L2971.49 420.02 L2987.94 420.02 L3004.40 420.02 L3020.74 420.02 L3037.20 420.02 L3053.66 420.02 L3070.11 420.02 L3086.57 420.02 L3103.03 420.02 L3119.49 420.02 L3135.95 420.02 L3152.41 420.02 L3168.87 420.02 L3185.32 420.02 L3201.78 420.02 L3218.24 420.02 L3234.70 420.02 L3251.16 420.02 L3267.62 420.02 L3284.08 420.02 L3300.54 420.02 L3316.99 420.02 L3333.45 420.02 L3349.91 420.02 L3366.37 420.02 L3382.83 420.02 L3399.29 420.02 L3415.75 420.02 L3432.21 420.02 L3448.66 420.02 L3465.12 420.02 L3481.58 420.02 L3498.04 420.02 L3514.38 420.02 L3530.84 420.02 L3547.29 420.02 L3563.75 420.02 L3563.75 1673.77 L618.38 1673.77 L618.38 420.02 Z" stroke-linejoin="round"/>
	</defs>
	<defs>
		<clipPath id="clipPath_TyqwMRJt">
			<use xlink:href="#path_RHeSvDBG"/>
		</clipPath>
	</defs>
	<use xlink:href="#path_RHeSvDBG" style="stroke:none;fill:#486C8C"/>
	<use xlink:href="#path_RHeSvDBG" style="fill:none;stroke:#1A476F;stroke-width:17.28" clip-path="url(#clipPath_TyqwMRJt)"/>
	<defs>
		<path id="path_HIUXQnEi" d="M618.38 420.02 L618.38 420.02 L634.84 420.02 L651.30 420.02 L667.75 420.02 L684.21 420.02 L700.67 420.02 L717.13 420.02 L733.59 420.02 L750.05 420.02 L766.51 420.02 L782.97 420.02 L799.42 420.02 L815.88 420.02 L832.34 420.02 L848.80 420.02 L865.26 420.02 L881.72 420.02 L898.18 420.02 L914.64 420.02 L931.10 420.02 L947.55 420.02 L964.01 420.02 L980.47 420.02 L996.93 420.02 L1013.39 420.14 L1029.72 420.14 L1046.18 420.14 L1062.64 420.14 L1079.10 420.14 L1095.56 420.14 L1112.02 420.27 L1128.48 420.27 L1144.93 420.27 L1161.39 420.27 L1177.85 420.39 L1194.31 420.52 L1210.77 420.52 L1227.23 420.64 L1243.69 420.76 L1260.15 420.76 L1276.61 420.76 L1293.06 420.89 L1309.52 421.01 L1325.98 421.01 L1342.44 421.13 L1358.90 421.26 L1375.36 421.26 L1391.82 421.38 L1408.28 421.38 L1424.73 421.51 L1441.19 421.63 L1457.65 421.75 L1474.11 421.75 L1490.57 421.88 L1507.03 422.00 L1523.36 422.12 L1539.82 422.12 L1556.28 422.25 L1572.74 422.50 L1589.20 422.50 L1605.66 422.62 L1622.12 422.87 L1638.57 422.99 L1655.03 423.24 L1671.49 423.36 L1687.95 423.49 L1704.41 423.61 L1720.87 423.73 L1737.33 423.86 L1753.79 423.98 L1770.24 424.10 L1786.70 424.23 L1803.16 424.35 L1819.62 424.35 L1836.08 424.48 L1852.54 424.60 L1869.00 424.72 L1885.45 424.85 L1901.91 424.97 L1918.37 425.22 L1934.83 425.34 L1951.29 425.47 L1967.75 425.59 L1984.21 425.84 L2000.67 425.96 L2017.00 426.21 L2033.46 426.33 L2049.92 426.58 L2066.38 426.70 L2082.84 426.95 L2099.30 427.07 L2115.75 427.20 L2132.21 427.45 L2148.67 427.69 L2165.13 427.82 L2181.59 428.06 L2198.05 428.31 L2214.51 428.31 L2230.97 428.56 L2247.42 428.81 L2263.88 428.93 L2280.34 429.18 L2296.80 429.30 L2313.26 429.55 L2329.72 429.80 L2346.18 429.92 L2362.64 430.17 L2379.09 430.29 L2395.55 430.54 L2412.01 430.79 L2428.47 430.91 L2444.93 431.16 L2461.39 431.41 L2477.85 431.53 L2494.30 431.78 L2510.76 431.90 L2527.10 432.02 L2543.56 432.27 L2560.02 432.52 L2576.47 432.77 L2592.93 433.14 L2609.39 433.26 L2625.85 433.63 L2642.31 433.88 L2658.77 434.25 L2675.23 434.38 L2691.69 434.75 L2708.14 434.87 L2724.60 435.12 L2741.06 435.49 L2757.52 435.74 L2773.98 435.98 L2790.44 436.11 L2806.90 436.48 L2823.36 436.73 L2839.82 436.97 L2856.27 437.22 L2872.73 437.47 L2889.19 437.59 L2905.65 437.84 L2922.11 438.09 L2938.57 438.34 L2955.03 438.46 L2971.49 438.71 L2987.94 438.95 L3004.40 439.20 L3020.74 439.45 L3037.20 439.70 L3053.66 439.94 L3070.11 440.19 L3086.57 440.44 L3103.03 440.69 L3119.49 440.94 L3135.95 441.18 L3152.41 441.31 L3168.87 441.55 L3185.32 441.80 L3201.78 442.05 L3218.24 442.30 L3234.70 442.67 L3251.16 442.92 L3267.62 443.04 L3284.08 443.29 L3300.54 443.53 L3316.99 443.66 L3333.45 444.03 L3349.91 444.40 L3366.37 444.52 L3382.83 444.77 L3399.29 445.14 L3415.75 445.27 L3432.21 445.39 L3448.66 445.64 L3465.12 445.89 L3481.58 446.13 L3498.04 446.38 L3514.38 446.63 L3530.84 446.75 L3547.29 447.12 L3563.75 447.37 L3563.75 1673.77 L618.38 1673.77 L618.38 420.02 Z" stroke-linejoin="round"/>
	</defs>
	<defs>
		<clipPath id="clipPath_GCGdruce">
			<use xlink:href="#path_HIUXQnEi"/>
		</clipPath>
	</defs>
	<use xlink:href="#path_HIUXQnEi" style="stroke:none;fill:#A65D62"/>
	<use xlink:href="#path_HIUXQnEi" style="fill:none;stroke:#90353B;stroke-width:17.28" clip-path="url(#clipPath_GCGdruce)"/>
	<defs>
		<path id="path_YqBAfGpO" d="M618.38 420.02 L618.38 420.02 L634.84 420.02 L651.30 420.02 L667.75 420.02 L684.21 420.02 L700.67 420.02 L717.13 420.02 L733.59 420.02 L750.05 420.02 L766.51 420.02 L782.97 420.02 L799.42 420.02 L815.88 420.02 L832.34 420.14 L848.80 420.14 L865.26 420.14 L881.72 420.14 L898.18 420.14 L914.64 420.27 L931.10 420.27 L947.55 420.27 L964.01 420.27 L980.47 420.39 L996.93 420.52 L1013.39 420.64 L1029.72 420.64 L1046.18 420.76 L1062.64 420.89 L1079.10 420.89 L1095.56 421.01 L1112.02 421.01 L1128.48 421.01 L1144.93 421.13 L1161.39 421.26 L1177.85 421.51 L1194.31 421.63 L1210.77 421.75 L1227.23 421.88 L1243.69 422.12 L1260.15 422.25 L1276.61 422.25 L1293.06 422.50 L1309.52 422.62 L1325.98 422.74 L1342.44 422.99 L1358.90 423.11 L1375.36 423.24 L1391.82 423.36 L1408.28 423.49 L1424.73 423.61 L1441.19 423.98 L1457.65 423.98 L1474.11 424.23 L1490.57 424.35 L1507.03 424.48 L1523.36 424.72 L1539.82 424.85 L1556.28 425.09 L1572.74 425.47 L1589.20 425.59 L1605.66 425.71 L1622.12 425.96 L1638.57 426.21 L1655.03 426.58 L1671.49 426.70 L1687.95 426.95 L1704.41 427.20 L1720.87 427.45 L1737.33 427.57 L1753.79 427.82 L1770.24 427.94 L1786.70 428.19 L1803.16 428.44 L1819.62 428.68 L1836.08 428.81 L1852.54 429.05 L1869.00 429.30 L1885.45 429.43 L1901.91 429.55 L1918.37 429.80 L1934.83 429.92 L1951.29 430.17 L1967.75 430.42 L1984.21 430.66 L2000.67 430.91 L2017.00 431.16 L2033.46 431.41 L2049.92 431.78 L2066.38 432.02 L2082.84 432.40 L2099.30 432.52 L2115.75 432.77 L2132.21 433.01 L2148.67 433.26 L2165.13 433.39 L2181.59 433.76 L2198.05 433.88 L2214.51 434.00 L2230.97 434.25 L2247.42 434.50 L2263.88 434.75 L2280.34 435.12 L2296.80 435.37 L2313.26 435.61 L2329.72 435.98 L2346.18 436.11 L2362.64 436.36 L2379.09 436.48 L2395.55 436.85 L2412.01 437.10 L2428.47 437.22 L2444.93 437.47 L2461.39 437.84 L2477.85 437.96 L2494.30 438.21 L2510.76 438.46 L2527.10 438.58 L2543.56 438.83 L2560.02 439.08 L2576.47 439.33 L2592.93 439.57 L2609.39 439.82 L2625.85 440.07 L2642.31 440.44 L2658.77 440.69 L2675.23 441.06 L2691.69 441.31 L2708.14 441.55 L2724.60 441.80 L2741.06 442.05 L2757.52 442.42 L2773.98 442.67 L2790.44 442.92 L2806.90 443.16 L2823.36 443.53 L2839.82 443.66 L2856.27 443.91 L2872.73 444.15 L2889.19 444.28 L2905.65 444.52 L2922.11 444.77 L2938.57 445.02 L2955.03 445.27 L2971.49 445.39 L2987.94 445.64 L3004.40 445.89 L3020.74 446.13 L3037.20 446.38 L3053.66 446.63 L3070.11 446.88 L3086.57 447.00 L3103.03 447.25 L3119.49 447.62 L3135.95 447.74 L3152.41 447.99 L3168.87 448.24 L3185.32 448.36 L3201.78 448.61 L3218.24 448.86 L3234.70 449.23 L3251.16 449.47 L3267.62 449.72 L3284.08 449.97 L3300.54 450.09 L3316.99 450.22 L3333.45 450.59 L3349.91 450.96 L3366.37 451.08 L3382.83 451.33 L3399.29 451.58 L3415.75 451.83 L3432.21 451.95 L3448.66 452.20 L3465.12 452.44 L3481.58 452.69 L3498.04 452.94 L3514.38 453.06 L3530.84 453.31 L3547.29 453.56 L3563.75 453.81 L3563.75 1673.77 L618.38 1673.77 L618.38 420.02 Z" stroke-linejoin="round"/>
	</defs>
	<defs>
		<clipPath id="clipPath_RWyfjDIo">
			<use xlink:href="#path_YqBAfGpO"/>
		</clipPath>
	</defs>
	<use xlink:href="#path_YqBAfGpO" style="stroke:none;fill:#779159"/>
	<use xlink:href="#path_YqBAfGpO" style="fill:none;stroke:#55752F;stroke-width:17.28" clip-path="url(#clipPath_RWyfjDIo)"/>
	<defs>
		<path id="path_nybZYpbf" d="M618.38 420.02 L618.38 420.02 L634.84 420.02 L651.30 420.02 L667.75 420.02 L684.21 420.02 L700.67 420.02 L717.13 420.02 L733.59 420.02 L750.05 420.02 L766.51 420.02 L782.97 420.02 L799.42 420.02 L815.88 420.02 L832.34 420.14 L848.80 420.14 L865.26 420.14 L881.72 420.27 L898.18 420.27 L914.64 420.39 L931.10 420.39 L947.55 420.39 L964.01 420.52 L980.47 420.64 L996.93 420.64 L1013.39 420.76 L1029.72 420.89 L1046.18 421.01 L1062.64 421.13 L1079.10 421.26 L1095.56 421.26 L1112.02 421.38 L1128.48 421.38 L1144.93 421.63 L1161.39 421.75 L1177.85 422.00 L1194.31 422.12 L1210.77 422.37 L1227.23 422.62 L1243.69 422.87 L1260.15 423.11 L1276.61 423.11 L1293.06 423.36 L1309.52 423.61 L1325.98 423.73 L1342.44 423.98 L1358.90 424.23 L1375.36 424.35 L1391.82 424.60 L1408.28 424.97 L1424.73 425.22 L1441.19 425.59 L1457.65 425.71 L1474.11 425.96 L1490.57 426.21 L1507.03 426.33 L1523.36 426.58 L1539.82 426.95 L1556.28 427.20 L1572.74 427.57 L1589.20 427.82 L1605.66 428.19 L1622.12 428.56 L1638.57 428.81 L1655.03 429.18 L1671.49 429.55 L1687.95 429.92 L1704.41 430.17 L1720.87 430.54 L1737.33 430.79 L1753.79 431.16 L1770.24 431.41 L1786.70 431.78 L1803.16 432.02 L1819.62 432.40 L1836.08 432.77 L1852.54 433.01 L1869.00 433.26 L1885.45 433.63 L1901.91 433.88 L1918.37 434.38 L1934.83 434.50 L1951.29 434.87 L1967.75 435.24 L1984.21 435.61 L2000.67 435.98 L2017.00 436.36 L2033.46 436.85 L2049.92 437.10 L2066.38 437.59 L2082.84 437.96 L2099.30 438.34 L2115.75 438.71 L2132.21 438.95 L2148.67 439.33 L2165.13 439.82 L2181.59 440.07 L2198.05 440.44 L2214.51 440.69 L2230.97 441.06 L2247.42 441.43 L2263.88 441.80 L2280.34 442.17 L2296.80 442.54 L2313.26 443.04 L2329.72 443.41 L2346.18 443.78 L2362.64 444.28 L2379.09 444.52 L2395.55 445.02 L2412.01 445.39 L2428.47 445.64 L2444.93 446.13 L2461.39 446.50 L2477.85 446.88 L2494.30 447.25 L2510.76 447.49 L2527.10 447.87 L2543.56 448.24 L2560.02 448.61 L2576.47 448.98 L2592.93 449.35 L2609.39 449.72 L2625.85 450.09 L2642.31 450.46 L2658.77 450.96 L2675.23 451.45 L2691.69 451.95 L2708.14 452.32 L2724.60 452.69 L2741.06 453.19 L2757.52 453.43 L2773.98 453.93 L2790.44 454.30 L2806.90 454.67 L2823.36 455.04 L2839.82 455.41 L2856.27 455.79 L2872.73 456.16 L2889.19 456.40 L2905.65 456.78 L2922.11 457.02 L2938.57 457.27 L2955.03 457.64 L2971.49 457.89 L2987.94 458.26 L3004.40 458.63 L3020.74 458.88 L3037.20 459.37 L3053.66 459.75 L3070.11 460.12 L3086.57 460.24 L3103.03 460.74 L3119.49 461.11 L3135.95 461.48 L3152.41 461.85 L3168.87 462.10 L3185.32 462.34 L3201.78 462.59 L3218.24 463.09 L3234.70 463.46 L3251.16 463.83 L3267.62 464.20 L3284.08 464.57 L3300.54 464.82 L3316.99 465.19 L3333.45 465.56 L3349.91 466.06 L3366.37 466.43 L3382.83 466.68 L3399.29 467.05 L3415.75 467.29 L3432.21 467.54 L3448.66 467.91 L3465.12 468.28 L3481.58 468.66 L3498.04 469.03 L3514.38 469.27 L3530.84 469.65 L3547.29 470.02 L3563.75 470.26 L3563.75 1673.77 L618.38 1673.77 L618.38 420.02 Z" stroke-linejoin="round"/>
	</defs>
	<defs>
		<clipPath id="clipPath_PeHJHkSa">
			<use xlink:href="#path_nybZYpbf"/>
		</clipPath>
	</defs>
	<use xlink:href="#path_nybZYpbf" style="stroke:none;fill:#E99833"/>
	<use xlink:href="#path_nybZYpbf" style="fill:none;stroke:#E37E00;stroke-width:17.28" clip-path="url(#clipPath_PeHJHkSa)"/>
	<defs>
		<path id="path_AESntZFu" d="M618.38 420.02 L618.38 420.02 L634.84 420.02 L651.30 420.02 L667.75 420.02 L684.21 420.14 L700.67 420.14 L717.13 420.27 L733.59 420.39 L750.05 420.52 L766.51 420.52 L782.97 420.52 L799.42 420.64 L815.88 420.76 L832.34 420.89 L848.80 421.01 L865.26 421.13 L881.72 421.26 L898.18 421.38 L914.64 421.51 L931.10 421.75 L947.55 421.88 L964.01 422.12 L980.47 422.50 L996.93 422.74 L1013.39 422.99 L1029.72 423.24 L1046.18 423.49 L1062.64 423.73 L1079.10 423.98 L1095.56 424.35 L1112.02 424.72 L1128.48 425.09 L1144.93 425.34 L1161.39 425.84 L1177.85 426.08 L1194.31 426.33 L1210.77 426.70 L1227.23 427.07 L1243.69 427.32 L1260.15 427.69 L1276.61 428.06 L1293.06 428.44 L1309.52 428.81 L1325.98 429.43 L1342.44 429.67 L1358.90 430.04 L1375.36 430.29 L1391.82 430.79 L1408.28 431.03 L1424.73 431.28 L1441.19 431.65 L1457.65 431.90 L1474.11 432.40 L1490.57 432.89 L1507.03 433.26 L1523.36 433.63 L1539.82 434.00 L1556.28 434.38 L1572.74 434.87 L1589.20 435.24 L1605.66 435.61 L1622.12 435.98 L1638.57 436.48 L1655.03 436.97 L1671.49 437.22 L1687.95 437.59 L1704.41 437.96 L1720.87 438.34 L1737.33 438.71 L1753.79 439.20 L1770.24 439.70 L1786.70 440.07 L1803.16 440.32 L1819.62 440.81 L1836.08 441.18 L1852.54 441.55 L1869.00 442.05 L1885.45 442.42 L1901.91 442.92 L1918.37 443.16 L1934.83 443.66 L1951.29 443.91 L1967.75 444.52 L1984.21 445.02 L2000.67 445.51 L2017.00 445.89 L2033.46 446.26 L2049.92 446.63 L2066.38 447.00 L2082.84 447.37 L2099.30 447.87 L2115.75 448.24 L2132.21 448.73 L2148.67 449.10 L2165.13 449.47 L2181.59 449.97 L2198.05 450.34 L2214.51 450.71 L2230.97 451.21 L2247.42 451.58 L2263.88 451.95 L2280.34 452.32 L2296.80 452.69 L2313.26 453.31 L2329.72 453.56 L2346.18 454.18 L2362.64 454.55 L2379.09 454.92 L2395.55 455.29 L2412.01 455.54 L2428.47 456.03 L2444.93 456.65 L2461.39 457.02 L2477.85 457.52 L2494.30 457.89 L2510.76 458.26 L2527.10 458.51 L2543.56 458.88 L2560.02 459.37 L2576.47 459.75 L2592.93 460.12 L2609.39 460.86 L2625.85 461.11 L2642.31 461.48 L2658.77 461.85 L2675.23 462.10 L2691.69 462.59 L2708.14 462.96 L2724.60 463.33 L2741.06 463.71 L2757.52 464.08 L2773.98 464.32 L2790.44 464.82 L2806.90 465.19 L2823.36 465.56 L2839.82 465.93 L2856.27 466.18 L2872.73 466.68 L2889.19 466.92 L2905.65 467.17 L2922.11 467.67 L2938.57 468.04 L2955.03 468.41 L2971.49 469.03 L2987.94 469.40 L3004.40 469.89 L3020.74 470.26 L3037.20 470.51 L3053.66 471.01 L3070.11 471.38 L3086.57 471.87 L3103.03 472.24 L3119.49 472.62 L3135.95 473.11 L3152.41 473.36 L3168.87 473.61 L3185.32 473.98 L3201.78 474.47 L3218.24 474.97 L3234.70 475.46 L3251.16 475.83 L3267.62 476.08 L3284.08 476.45 L3300.54 476.82 L3316.99 477.19 L3333.45 477.44 L3349.91 477.81 L3366.37 478.18 L3382.83 478.56 L3399.29 478.93 L3415.75 479.30 L3432.21 479.67 L3448.66 480.04 L3465.12 480.54 L3481.58 480.91 L3498.04 481.28 L3514.38 481.53 L3530.84 481.90 L3547.29 482.39 L3563.75 482.76 L3563.75 1673.77 L618.38 1673.77 L618.38 420.02 Z" stroke-linejoin="round"/>
	</defs>
	<defs>
		<clipPath id="clipPath_rYKyeLXH">
			<use xlink:href="#path_AESntZFu"/>
		</clipPath>
	</defs>
	<use xlink:href="#path_AESntZFu" style="stroke:none;fill:#8BA59D"/>
	<use xlink:href="#path_AESntZFu" style="fill:none;stroke:#6E8E84;stroke-width:17.28" clip-path="url(#clipPath_rYKyeLXH)"/>
	<defs>
		<path id="path_dHQYrPJT" d="M618.38 421.26 L618.38 421.26 L634.84 421.51 L651.30 421.88 L667.75 422.25 L684.21 422.62 L700.67 422.99 L717.13 423.36 L733.59 423.73 L750.05 424.23 L766.51 424.48 L782.97 424.85 L799.42 425.47 L815.88 425.84 L832.34 426.33 L848.80 426.95 L865.26 427.45 L881.72 427.94 L898.18 428.44 L914.64 429.05 L931.10 429.55 L947.55 430.04 L964.01 430.54 L980.47 431.28 L996.93 431.90 L1013.39 432.52 L1029.72 433.14 L1046.18 433.88 L1062.64 434.50 L1079.10 435.12 L1095.56 435.61 L1112.02 436.36 L1128.48 437.10 L1144.93 437.59 L1161.39 438.34 L1177.85 438.95 L1194.31 439.57 L1210.77 440.19 L1227.23 440.94 L1243.69 441.68 L1260.15 442.54 L1276.61 443.04 L1293.06 443.78 L1309.52 444.52 L1325.98 445.27 L1342.44 446.01 L1358.90 446.63 L1375.36 447.12 L1391.82 447.74 L1408.28 448.24 L1424.73 448.98 L1441.19 449.72 L1457.65 450.22 L1474.11 450.96 L1490.57 451.83 L1507.03 452.57 L1523.36 453.31 L1539.82 453.93 L1556.28 454.55 L1572.74 455.29 L1589.20 456.16 L1605.66 456.65 L1622.12 457.27 L1638.57 457.89 L1655.03 458.76 L1671.49 459.25 L1687.95 459.75 L1704.41 460.49 L1720.87 461.23 L1737.33 461.85 L1753.79 462.72 L1770.24 463.33 L1786.70 463.95 L1803.16 464.45 L1819.62 465.19 L1836.08 465.81 L1852.54 466.43 L1869.00 467.29 L1885.45 467.91 L1901.91 468.78 L1918.37 469.15 L1934.83 469.89 L1951.29 470.51 L1967.75 471.38 L1984.21 471.87 L2000.67 472.74 L2017.00 473.36 L2033.46 473.98 L2049.92 474.60 L2066.38 475.34 L2082.84 475.96 L2099.30 476.70 L2115.75 477.44 L2132.21 478.18 L2148.67 478.80 L2165.13 479.42 L2181.59 480.04 L2198.05 480.66 L2214.51 481.28 L2230.97 481.90 L2247.42 482.52 L2263.88 483.01 L2280.34 483.75 L2296.80 484.13 L2313.26 484.74 L2329.72 485.49 L2346.18 486.23 L2362.64 486.85 L2379.09 487.34 L2395.55 487.96 L2412.01 488.33 L2428.47 489.08 L2444.93 489.82 L2461.39 490.31 L2477.85 490.93 L2494.30 491.43 L2510.76 491.92 L2527.10 492.54 L2543.56 493.04 L2560.02 493.78 L2576.47 494.27 L2592.93 495.02 L2609.39 495.88 L2625.85 496.38 L2642.31 496.87 L2658.77 497.37 L2675.23 497.86 L2691.69 498.48 L2708.14 498.98 L2724.60 499.59 L2741.06 500.21 L2757.52 500.58 L2773.98 501.08 L2790.44 501.57 L2806.90 502.07 L2823.36 502.56 L2839.82 503.06 L2856.27 503.55 L2872.73 504.05 L2889.19 504.54 L2905.65 505.04 L2922.11 505.66 L2938.57 506.15 L2955.03 506.52 L2971.49 507.27 L2987.94 507.89 L3004.40 508.50 L3020.74 508.88 L3037.20 509.49 L3053.66 509.99 L3070.11 510.61 L3086.57 511.23 L3103.03 511.60 L3119.49 512.09 L3135.95 512.59 L3152.41 512.96 L3168.87 513.45 L3185.32 513.95 L3201.78 514.44 L3218.24 514.94 L3234.70 515.56 L3251.16 515.93 L3267.62 516.42 L3284.08 516.92 L3300.54 517.41 L3316.99 517.91 L3333.45 518.40 L3349.91 518.65 L3366.37 519.27 L3382.83 519.64 L3399.29 520.01 L3415.75 520.51 L3432.21 521.00 L3448.66 521.38 L3465.12 521.87 L3481.58 522.24 L3498.04 522.74 L3514.38 523.11 L3530.84 523.60 L3547.29 524.10 L3563.75 524.59 L3563.75 1673.77 L618.38 1673.77 L618.38 421.26 Z" stroke-linejoin="round"/>
	</defs>
	<defs>
		<clipPath id="clipPath_rrMtMJNr">
			<use xlink:href="#path_dHQYrPJT"/>
		</clipPath>
	</defs>
	<use xlink:href="#path_dHQYrPJT" style="stroke:none;fill:#CD375D"/>
	<use xlink:href="#path_dHQYrPJT" style="fill:none;stroke:#C10534;stroke-width:17.28" clip-path="url(#clipPath_rrMtMJNr)"/>
	<defs>
		<path id="path_JCdILwgc" d="M618.38 421.51 L618.38 421.51 L634.84 421.75 L651.30 422.25 L667.75 422.74 L684.21 423.11 L700.67 423.61 L717.13 423.98 L733.59 424.48 L750.05 425.22 L766.51 425.59 L782.97 426.21 L799.42 426.83 L815.88 427.57 L832.34 428.19 L848.80 428.93 L865.26 429.67 L881.72 430.29 L898.18 431.03 L914.64 431.78 L931.10 432.40 L947.55 433.14 L964.01 433.88 L980.47 434.87 L996.93 435.49 L1013.39 436.48 L1029.72 437.35 L1046.18 438.34 L1062.64 439.33 L1079.10 440.07 L1095.56 440.94 L1112.02 441.80 L1128.48 442.79 L1144.93 443.53 L1161.39 444.52 L1177.85 445.27 L1194.31 446.13 L1210.77 447.12 L1227.23 447.99 L1243.69 448.98 L1260.15 450.34 L1276.61 451.33 L1293.06 452.32 L1309.52 453.31 L1325.98 454.42 L1342.44 455.41 L1358.90 456.40 L1375.36 457.27 L1391.82 458.14 L1408.28 459.00 L1424.73 460.12 L1441.19 461.11 L1457.65 461.85 L1474.11 462.96 L1490.57 464.08 L1507.03 465.19 L1523.36 466.18 L1539.82 467.05 L1556.28 468.04 L1572.74 469.03 L1589.20 470.26 L1605.66 471.13 L1622.12 472.00 L1638.57 472.99 L1655.03 473.98 L1671.49 474.97 L1687.95 475.96 L1704.41 476.82 L1720.87 477.94 L1737.33 478.93 L1753.79 480.17 L1770.24 481.03 L1786.70 482.02 L1803.16 483.01 L1819.62 484.25 L1836.08 485.36 L1852.54 486.11 L1869.00 487.22 L1885.45 488.33 L1901.91 489.57 L1918.37 490.31 L1934.83 491.30 L1951.29 492.17 L1967.75 493.41 L1984.21 494.27 L2000.67 495.39 L2017.00 496.50 L2033.46 497.49 L2049.92 498.60 L2066.38 499.59 L2082.84 500.58 L2099.30 501.57 L2115.75 502.69 L2132.21 503.68 L2148.67 504.67 L2165.13 505.78 L2181.59 506.52 L2198.05 507.39 L2214.51 508.38 L2230.97 509.37 L2247.42 510.36 L2263.88 511.35 L2280.34 512.46 L2296.80 513.08 L2313.26 513.83 L2329.72 514.82 L2346.18 515.81 L2362.64 516.67 L2379.09 517.41 L2395.55 518.40 L2412.01 519.15 L2428.47 520.14 L2444.93 521.25 L2461.39 521.99 L2477.85 522.86 L2494.30 523.73 L2510.76 524.47 L2527.10 525.46 L2543.56 526.45 L2560.02 527.19 L2576.47 528.06 L2592.93 528.92 L2609.39 530.16 L2625.85 530.90 L2642.31 531.52 L2658.77 532.39 L2675.23 533.01 L2691.69 534.00 L2708.14 534.74 L2724.60 535.61 L2741.06 536.35 L2757.52 536.97 L2773.98 537.71 L2790.44 538.45 L2806.90 539.20 L2823.36 539.94 L2839.82 540.80 L2856.27 541.67 L2872.73 542.54 L2889.19 543.40 L2905.65 544.15 L2922.11 545.01 L2938.57 545.88 L2955.03 546.62 L2971.49 547.49 L2987.94 548.35 L3004.40 549.22 L3020.74 549.84 L3037.20 550.58 L3053.66 551.32 L3070.11 552.19 L3086.57 553.06 L3103.03 553.80 L3119.49 554.54 L3135.95 555.28 L3152.41 555.90 L3168.87 556.64 L3185.32 557.26 L3201.78 558.01 L3218.24 558.75 L3234.70 559.37 L3251.16 559.99 L3267.62 560.73 L3284.08 561.47 L3300.54 562.34 L3316.99 562.96 L3333.45 563.58 L3349.91 564.07 L3366.37 564.81 L3382.83 565.43 L3399.29 566.17 L3415.75 566.92 L3432.21 567.66 L3448.66 568.40 L3465.12 568.90 L3481.58 569.52 L3498.04 570.13 L3514.38 570.75 L3530.84 571.25 L3547.29 572.11 L3563.75 572.86 L3563.75 1673.77 L618.38 1673.77 L618.38 421.51 Z" stroke-linejoin="round"/>
	</defs>
	<defs>
		<clipPath id="clipPath_YvxBKmEc">
			<use xlink:href="#path_JCdILwgc"/>
		</clipPath>
	</defs>
	<use xlink:href="#path_JCdILwgc" style="stroke:none;fill:#A9A4DB"/>
	<use xlink:href="#path_JCdILwgc" style="fill:none;stroke:#938DD2;stroke-width:17.28" clip-path="url(#clipPath_YvxBKmEc)"/>
	<defs>
		<path id="path_ELEdpRua" d="M618.38 429.80 L618.38 429.80 L634.84 431.03 L651.30 432.40 L667.75 433.88 L684.21 435.12 L700.67 436.23 L717.13 437.59 L733.59 438.83 L750.05 440.32 L766.51 441.68 L782.97 443.04 L799.42 444.52 L815.88 445.64 L832.34 447.00 L848.80 448.11 L865.26 449.47 L881.72 450.84 L898.18 452.32 L914.64 453.56 L931.10 454.92 L947.55 456.16 L964.01 457.52 L980.47 458.76 L996.93 460.36 L1013.39 461.85 L1029.72 463.21 L1046.18 464.45 L1062.64 465.93 L1079.10 467.17 L1095.56 468.53 L1112.02 469.77 L1128.48 471.01 L1144.93 472.12 L1161.39 473.11 L1177.85 474.10 L1194.31 475.21 L1210.77 476.33 L1227.23 477.81 L1243.69 478.93 L1260.15 480.41 L1276.61 481.77 L1293.06 483.01 L1309.52 484.25 L1325.98 485.49 L1342.44 486.72 L1358.90 487.84 L1375.36 488.95 L1391.82 490.19 L1408.28 491.30 L1424.73 492.54 L1441.19 493.65 L1457.65 494.89 L1474.11 496.13 L1490.57 497.37 L1507.03 498.48 L1523.36 499.59 L1539.82 500.58 L1556.28 501.70 L1572.74 502.94 L1589.20 504.05 L1605.66 505.04 L1622.12 506.15 L1638.57 507.27 L1655.03 508.38 L1671.49 509.25 L1687.95 510.24 L1704.41 511.35 L1720.87 512.71 L1737.33 513.83 L1753.79 514.57 L1770.24 515.56 L1786.70 516.67 L1803.16 517.79 L1819.62 518.78 L1836.08 519.77 L1852.54 520.63 L1869.00 521.50 L1885.45 522.37 L1901.91 523.36 L1918.37 524.59 L1934.83 525.58 L1951.29 526.45 L1967.75 527.44 L1984.21 528.31 L2000.67 529.17 L2017.00 530.16 L2033.46 531.15 L2049.92 532.02 L2066.38 532.88 L2082.84 534.00 L2099.30 534.99 L2115.75 536.10 L2132.21 536.97 L2148.67 538.08 L2165.13 538.82 L2181.59 539.69 L2198.05 540.68 L2214.51 541.55 L2230.97 542.41 L2247.42 543.28 L2263.88 544.15 L2280.34 545.01 L2296.80 545.75 L2313.26 546.50 L2329.72 547.49 L2346.18 548.23 L2362.64 548.97 L2379.09 549.59 L2395.55 550.58 L2412.01 551.45 L2428.47 552.31 L2444.93 552.93 L2461.39 553.80 L2477.85 554.42 L2494.30 555.16 L2510.76 555.90 L2527.10 556.64 L2543.56 557.26 L2560.02 558.25 L2576.47 559.00 L2592.93 559.74 L2609.39 560.48 L2625.85 561.35 L2642.31 562.09 L2658.77 562.71 L2675.23 563.58 L2691.69 564.32 L2708.14 565.18 L2724.60 565.93 L2741.06 566.79 L2757.52 567.41 L2773.98 568.15 L2790.44 568.77 L2806.90 569.39 L2823.36 570.13 L2839.82 570.75 L2856.27 571.37 L2872.73 572.24 L2889.19 572.86 L2905.65 573.48 L2922.11 574.47 L2938.57 574.96 L2955.03 575.70 L2971.49 576.57 L2987.94 577.19 L3004.40 577.81 L3020.74 578.30 L3037.20 578.92 L3053.66 579.42 L3070.11 580.03 L3086.57 580.78 L3103.03 581.40 L3119.49 582.14 L3135.95 582.76 L3152.41 583.38 L3168.87 583.99 L3185.32 584.61 L3201.78 585.11 L3218.24 585.73 L3234.70 586.22 L3251.16 586.84 L3267.62 587.46 L3284.08 587.95 L3300.54 588.57 L3316.99 589.32 L3333.45 589.81 L3349.91 590.55 L3366.37 591.17 L3382.83 591.79 L3399.29 592.41 L3415.75 593.15 L3432.21 593.77 L3448.66 594.39 L3465.12 594.88 L3481.58 595.26 L3498.04 595.87 L3514.38 596.37 L3530.84 596.99 L3547.29 597.36 L3563.75 597.85 L3563.75 1673.77 L618.38 1673.77 L618.38 429.80 Z" stroke-linejoin="round"/>
	</defs>
	<defs>
		<clipPath id="clipPath_PBkBJHhl">
			<use xlink:href="#path_ELEdpRua"/>
		</clipPath>
	</defs>
	<use xlink:href="#path_ELEdpRua" style="stroke:none;fill:#D5CE98"/>
	<use xlink:href="#path_ELEdpRua" style="fill:none;stroke:#CAC27E;stroke-width:17.28" clip-path="url(#clipPath_PBkBJHhl)"/>
	<defs>
		<path id="path_MzurCIZy" d="M618.38 804.03 L618.38 804.03 L634.84 824.82 L651.30 844.37 L667.75 863.68 L684.21 881.50 L700.67 897.71 L717.13 914.05 L733.59 929.02 L750.05 943.62 L766.51 958.60 L782.97 970.60 L799.42 983.22 L815.88 996.09 L832.34 1008.22 L848.80 1019.61 L865.26 1030.13 L881.72 1041.39 L898.18 1051.41 L914.64 1061.07 L931.10 1070.72 L947.55 1080.00 L964.01 1089.03 L980.47 1098.32 L996.93 1106.61 L1013.39 1115.39 L1029.72 1123.31 L1046.18 1131.11 L1062.64 1139.28 L1079.10 1146.58 L1095.56 1153.76 L1112.02 1160.81 L1128.48 1167.62 L1144.93 1174.30 L1161.39 1180.49 L1177.85 1186.18 L1194.31 1191.50 L1210.77 1197.19 L1227.23 1202.89 L1243.69 1208.58 L1260.15 1214.27 L1276.61 1219.47 L1293.06 1224.79 L1309.52 1229.99 L1325.98 1235.19 L1342.44 1239.77 L1358.90 1244.72 L1375.36 1249.67 L1391.82 1254.12 L1408.28 1258.70 L1424.73 1262.91 L1441.19 1267.12 L1457.65 1271.57 L1474.11 1275.53 L1490.57 1279.61 L1507.03 1283.58 L1523.36 1287.41 L1539.82 1290.75 L1556.28 1294.47 L1572.74 1298.18 L1589.20 1302.39 L1605.66 1305.73 L1622.12 1309.32 L1638.57 1312.53 L1655.03 1315.63 L1671.49 1319.09 L1687.95 1322.31 L1704.41 1325.65 L1720.87 1328.75 L1737.33 1331.34 L1753.79 1334.19 L1770.24 1337.41 L1786.70 1339.88 L1803.16 1342.48 L1819.62 1345.20 L1836.08 1348.05 L1852.54 1350.77 L1869.00 1353.37 L1885.45 1355.85 L1901.91 1358.45 L1918.37 1361.29 L1934.83 1363.64 L1951.29 1366.00 L1967.75 1368.22 L1984.21 1370.45 L2000.67 1372.55 L2017.00 1374.78 L2033.46 1377.01 L2049.92 1378.87 L2066.38 1380.85 L2082.84 1382.58 L2099.30 1384.43 L2115.75 1386.29 L2132.21 1388.39 L2148.67 1390.62 L2165.13 1392.60 L2181.59 1394.33 L2198.05 1395.94 L2214.51 1397.80 L2230.97 1399.41 L2247.42 1400.89 L2263.88 1402.38 L2280.34 1403.86 L2296.80 1405.35 L2313.26 1406.96 L2329.72 1408.44 L2346.18 1410.05 L2362.64 1411.29 L2379.09 1412.77 L2395.55 1414.51 L2412.01 1416.12 L2428.47 1417.48 L2444.93 1418.71 L2461.39 1419.95 L2477.85 1421.44 L2494.30 1422.55 L2510.76 1424.04 L2527.10 1425.15 L2543.56 1426.63 L2560.02 1427.75 L2576.47 1428.99 L2592.93 1430.10 L2609.39 1431.34 L2625.85 1432.45 L2642.31 1433.69 L2658.77 1434.68 L2675.23 1435.92 L2691.69 1437.03 L2708.14 1438.02 L2724.60 1439.01 L2741.06 1440.12 L2757.52 1440.99 L2773.98 1442.35 L2790.44 1443.09 L2806.90 1444.08 L2823.36 1445.07 L2839.82 1445.82 L2856.27 1446.56 L2872.73 1447.67 L2889.19 1448.79 L2905.65 1449.41 L2922.11 1450.40 L2938.57 1451.01 L2955.03 1452.00 L2971.49 1452.75 L2987.94 1453.74 L3004.40 1454.36 L3020.74 1455.10 L3037.20 1456.09 L3053.66 1456.83 L3070.11 1457.45 L3086.57 1458.19 L3103.03 1458.93 L3119.49 1459.80 L3135.95 1460.42 L3152.41 1461.04 L3168.87 1461.66 L3185.32 1462.28 L3201.78 1462.89 L3218.24 1463.51 L3234.70 1464.26 L3251.16 1465.00 L3267.62 1465.49 L3284.08 1466.11 L3300.54 1466.73 L3316.99 1467.35 L3333.45 1467.97 L3349.91 1468.71 L3366.37 1469.21 L3382.83 1469.82 L3399.29 1470.32 L3415.75 1470.94 L3432.21 1471.68 L3448.66 1472.30 L3465.12 1472.92 L3481.58 1473.41 L3498.04 1473.91 L3514.38 1474.40 L3530.84 1475.02 L3547.29 1475.52 L3563.75 1476.01 L3563.75 1673.77 L618.38 1673.77 L618.38 804.03 Z" stroke-linejoin="round"/>
	</defs>
	<defs>
		<clipPath id="clipPath_dLpTufKt">
			<use xlink:href="#path_MzurCIZy"/>
		</clipPath>
	</defs>
	<use xlink:href="#path_MzurCIZy" style="stroke:none;fill:#B37557"/>
	<use xlink:href="#path_MzurCIZy" style="fill:none;stroke:#A0522D;stroke-width:17.28" clip-path="url(#clipPath_dLpTufKt)"/>
	<defs>
		<path id="path_xrZUYQaA" d="M618.38 834.84 L618.38 834.84 L634.84 858.36 L651.30 880.14 L667.75 901.92 L684.21 922.21 L700.67 941.02 L717.13 959.59 L733.59 976.79 L750.05 993.62 L766.51 1010.57 L782.97 1024.56 L799.42 1039.28 L815.88 1054.01 L832.34 1067.87 L848.80 1081.11 L865.26 1093.49 L881.72 1106.98 L898.18 1118.73 L914.64 1130.12 L931.10 1141.26 L947.55 1152.52 L964.01 1163.04 L980.47 1174.05 L996.93 1184.08 L1013.39 1194.22 L1029.72 1203.38 L1046.18 1212.79 L1062.64 1222.19 L1079.10 1230.73 L1095.56 1239.39 L1112.02 1247.93 L1128.48 1256.23 L1144.93 1264.27 L1161.39 1271.57 L1177.85 1278.38 L1194.31 1284.94 L1210.77 1291.74 L1227.23 1298.55 L1243.69 1305.48 L1260.15 1312.29 L1276.61 1318.60 L1293.06 1325.03 L1309.52 1331.10 L1325.98 1337.16 L1342.44 1342.73 L1358.90 1348.67 L1375.36 1354.61 L1391.82 1360.06 L1408.28 1365.50 L1424.73 1370.33 L1441.19 1375.40 L1457.65 1380.72 L1474.11 1385.80 L1490.57 1390.87 L1507.03 1395.45 L1523.36 1400.03 L1539.82 1404.11 L1556.28 1408.94 L1572.74 1413.27 L1589.20 1418.34 L1605.66 1422.30 L1622.12 1426.51 L1638.57 1430.35 L1655.03 1434.06 L1671.49 1438.27 L1687.95 1442.35 L1704.41 1446.31 L1720.87 1450.02 L1737.33 1453.49 L1753.79 1457.08 L1770.24 1460.79 L1786.70 1464.01 L1803.16 1467.10 L1819.62 1470.32 L1836.08 1473.54 L1852.54 1476.75 L1869.00 1479.97 L1885.45 1483.07 L1901.91 1486.28 L1918.37 1489.63 L1934.83 1492.47 L1951.29 1495.44 L1967.75 1498.04 L1984.21 1500.64 L2000.67 1503.36 L2017.00 1506.08 L2033.46 1508.81 L2049.92 1511.16 L2066.38 1513.51 L2082.84 1515.61 L2099.30 1517.96 L2115.75 1520.19 L2132.21 1522.67 L2148.67 1525.51 L2165.13 1527.87 L2181.59 1530.09 L2198.05 1531.95 L2214.51 1534.05 L2230.97 1536.03 L2247.42 1537.89 L2263.88 1539.75 L2280.34 1541.73 L2296.80 1543.46 L2313.26 1545.31 L2329.72 1547.17 L2346.18 1549.03 L2362.64 1550.64 L2379.09 1552.49 L2395.55 1554.35 L2412.01 1556.08 L2428.47 1557.81 L2444.93 1559.42 L2461.39 1560.91 L2477.85 1562.52 L2494.30 1564.00 L2510.76 1565.73 L2527.10 1567.22 L2543.56 1568.95 L2560.02 1570.44 L2576.47 1571.92 L2592.93 1573.28 L2609.39 1574.77 L2625.85 1576.25 L2642.31 1577.61 L2658.77 1578.85 L2675.23 1580.34 L2691.69 1581.57 L2708.14 1582.69 L2724.60 1583.80 L2741.06 1585.29 L2757.52 1586.28 L2773.98 1587.76 L2790.44 1588.88 L2806.90 1589.99 L2823.36 1591.10 L2839.82 1592.22 L2856.27 1593.21 L2872.73 1594.57 L2889.19 1595.81 L2905.65 1596.67 L2922.11 1597.66 L2938.57 1598.53 L2955.03 1599.64 L2971.49 1600.63 L2987.94 1601.62 L3004.40 1602.49 L3020.74 1603.48 L3037.20 1604.72 L3053.66 1605.46 L3070.11 1606.33 L3086.57 1607.19 L3103.03 1608.06 L3119.49 1608.92 L3135.95 1609.79 L3152.41 1610.66 L3168.87 1611.52 L3185.32 1612.27 L3201.78 1613.01 L3218.24 1613.75 L3234.70 1614.49 L3251.16 1615.48 L3267.62 1616.10 L3284.08 1616.84 L3300.54 1617.59 L3316.99 1618.33 L3333.45 1619.07 L3349.91 1619.81 L3366.37 1620.43 L3382.83 1621.18 L3399.29 1621.92 L3415.75 1622.66 L3432.21 1623.40 L3448.66 1624.15 L3465.12 1624.89 L3481.58 1625.38 L3498.04 1626.00 L3514.38 1626.62 L3530.84 1627.24 L3547.29 1627.73 L3563.75 1628.35 L3563.75 1673.77 L618.38 1673.77 L618.38 834.84 Z" stroke-linejoin="round"/>
	</defs>
	<defs>
		<clipPath id="clipPath_nZZZPsnc">
			<use xlink:href="#path_xrZUYQaA"/>
		</clipPath>
	</defs>
	<use xlink:href="#path_xrZUYQaA" style="stroke:none;fill:#95A8B9"/>
	<use xlink:href="#path_xrZUYQaA" style="fill:none;stroke:#7B92A8;stroke-width:17.28" clip-path="url(#clipPath_nZZZPsnc)"/>
	<line x1="465.80" y1="1673.65" x2="465.80" y2="419.90" style="stroke:#000000;stroke-width:5.76"/>
	<line x1="465.80" y1="1673.65" x2="425.82" y2="1673.65" style="stroke:#000000;stroke-width:5.76"/>
	<text x="405.78" y="1708.68" style="font-family:'Helvetica';font-size:99.99px;fill:#000000" text-anchor="end">0.0</text>
	<line x1="465.80" y1="1548.28" x2="425.82" y2="1548.28" style="stroke:#000000;stroke-width:5.76"/>
	<text x="405.78" y="1583.31" style="font-family:'Helvetica';font-size:99.99px;fill:#000000" text-anchor="end">0.1</text>
	<line x1="465.80" y1="1422.92" x2="425.82" y2="1422.92" style="stroke:#000000;stroke-width:5.76"/>
	<text x="405.78" y="1457.95" style="font-family:'Helvetica';font-size:99.99px;fill:#000000" text-anchor="end">0.2</text>
	<line x1="465.80" y1="1297.56" x2="425.82" y2="1297.56" style="stroke:#000000;stroke-width:5.76"/>
	<text x="405.78" y="1332.59" style="font-family:'Helvetica';font-size:99.99px;fill:#000000" text-anchor="end">0.3</text>
	<line x1="465.80" y1="1172.20" x2="425.82" y2="1172.20" style="stroke:#000000;stroke-width:5.76"/>
	<text x="405.78" y="1207.23" style="font-family:'Helvetica';font-size:99.99px;fill:#000000" text-anchor="end">0.4</text>
	<line x1="465.80" y1="1046.83" x2="425.82" y2="1046.83" style="stroke:#000000;stroke-width:5.76"/>
	<text x="405.78" y="1081.86" style="font-family:'Helvetica';font-size:99.99px;fill:#000000" text-anchor="end">0.5</text>
	<line x1="465.80" y1="921.47" x2="425.82" y2="921.47" style="stroke:#000000;stroke-width:5.76"/>
	<text x="405.78" y="956.50" style="font-family:'Helvetica';font-size:99.99px;fill:#000000" text-anchor="end">0.6</text>
	<line x1="465.80" y1="796.11" x2="425.82" y2="796.11" style="stroke:#000000;stroke-width:5.76"/>
	<text x="405.78" y="831.14" style="font-family:'Helvetica';font-size:99.99px;fill:#000000" text-anchor="end">0.7</text>
	<line x1="465.80" y1="670.62" x2="425.82" y2="670.62" style="stroke:#000000;stroke-width:5.76"/>
	<text x="405.78" y="705.65" style="font-family:'Helvetica';font-size:99.99px;fill:#000000" text-anchor="end">0.8</text>
	<line x1="465.80" y1="545.26" x2="425.82" y2="545.26" style="stroke:#000000;stroke-width:5.76"/>
	<text x="405.78" y="580.29" style="font-family:'Helvetica';font-size:99.99px;fill:#000000" text-anchor="end">0.9</text>
	<line x1="465.80" y1="419.90" x2="425.82" y2="419.90" style="stroke:#000000;stroke-width:5.76"/>
	<text x="405.78" y="454.93" style="font-family:'Helvetica';font-size:99.99px;fill:#000000" text-anchor="end">1.0</text>
	<text x="190.71" y="1046.83" style="font-family:'Helvetica';font-size:99.99px;fill:#000000" transform="rotate(-90 190.71,1046.83)" text-anchor="middle">Transition Probability</text>
	<line x1="465.80" y1="1673.65" x2="3859.02" y2="1673.65" style="stroke:#000000;stroke-width:5.76"/>
	<line x1="465.80" y1="1673.65" x2="465.80" y2="1713.74" style="stroke:#000000;stroke-width:5.76"/>
	<text x="465.80" y="1803.60" style="font-family:'Helvetica';font-size:99.99px;fill:#000000" text-anchor="middle">0</text>
	<line x1="1314.10" y1="1673.65" x2="1314.10" y2="1713.74" style="stroke:#000000;stroke-width:5.76"/>
	<text x="1314.10" y="1803.60" style="font-family:'Helvetica';font-size:99.99px;fill:#000000" text-anchor="middle">500</text>
	<line x1="2162.41" y1="1673.65" x2="2162.41" y2="1713.74" style="stroke:#000000;stroke-width:5.76"/>
	<text x="2162.41" y="1803.60" style="font-family:'Helvetica';font-size:99.99px;fill:#000000" text-anchor="middle">1000</text>
	<line x1="3010.71" y1="1673.65" x2="3010.71" y2="1713.74" style="stroke:#000000;stroke-width:5.76"/>
	<text x="3010.71" y="1803.60" style="font-family:'Helvetica';font-size:99.99px;fill:#000000" text-anchor="middle">1500</text>
	<line x1="3859.02" y1="1673.65" x2="3859.02" y2="1713.74" style="stroke:#000000;stroke-width:5.76"/>
	<text x="3859.02" y="1803.60" style="font-family:'Helvetica';font-size:99.99px;fill:#000000" text-anchor="middle">2000</text>
	<text x="2162.41" y="1913.62" style="font-family:'Helvetica';font-size:99.99px;fill:#000000" text-anchor="middle">Follow-up time</text>
	<rect x="585.34" y="1998.25" width="3154.26" height="746.36" style="fill:#FFFFFF"/>
	<rect x="588.22" y="2001.13" width="3148.50" height="740.60" style="fill:none;stroke:#000000;stroke-width:5.76"/>
	<rect x="628.53" y="2041.44" width="374.34" height="99.99" style="fill:#95A8B9"/>
	<rect x="632.85" y="2045.76" width="365.70" height="91.35" style="fill:none;stroke:#7B92A8;stroke-width:8.64"/>
	<rect x="2203.24" y="2041.44" width="374.34" height="99.99" style="fill:#B37557"/>
	<rect x="2207.56" y="2045.76" width="365.70" height="91.35" style="fill:none;stroke:#A0522D;stroke-width:8.64"/>
	<rect x="628.53" y="2181.41" width="374.34" height="99.99" style="fill:#D5CE98"/>
	<rect x="632.85" y="2185.73" width="365.70" height="91.35" style="fill:none;stroke:#CAC27E;stroke-width:8.64"/>
	<rect x="2203.24" y="2181.41" width="374.34" height="99.99" style="fill:#A9A4DB"/>
	<rect x="2207.56" y="2185.73" width="365.70" height="91.35" style="fill:none;stroke:#938DD2;stroke-width:8.64"/>
	<rect x="628.53" y="2321.50" width="374.34" height="99.99" style="fill:#CD375D"/>
	<rect x="632.85" y="2325.82" width="365.70" height="91.35" style="fill:none;stroke:#C10534;stroke-width:8.64"/>
	<rect x="2203.24" y="2321.50" width="374.34" height="99.99" style="fill:#8BA59D"/>
	<rect x="2207.56" y="2325.82" width="365.70" height="91.35" style="fill:none;stroke:#6E8E84;stroke-width:8.64"/>
	<rect x="628.53" y="2461.46" width="374.34" height="99.99" style="fill:#E99833"/>
	<rect x="632.85" y="2465.78" width="365.70" height="91.35" style="fill:none;stroke:#E37E00;stroke-width:8.64"/>
	<rect x="2203.24" y="2461.46" width="374.34" height="99.99" style="fill:#779159"/>
	<rect x="2207.56" y="2465.78" width="365.70" height="91.35" style="fill:none;stroke:#55752F;stroke-width:8.64"/>
	<rect x="628.53" y="2601.43" width="374.34" height="99.99" style="fill:#A65D62"/>
	<rect x="632.85" y="2605.75" width="365.70" height="91.35" style="fill:none;stroke:#90353B;stroke-width:8.64"/>
	<rect x="2203.24" y="2601.43" width="374.34" height="99.99" style="fill:#486C8C"/>
	<rect x="2207.56" y="2605.75" width="365.70" height="91.35" style="fill:none;stroke:#1A476F;stroke-width:8.64"/>
	<text x="1062.89" y="2126.47" style="font-family:'Helvetica';font-size:99.99px;fill:#000000">P(Y(t) = 1 | Y(90) = 1)</text>
	<text x="2637.61" y="2126.47" style="font-family:'Helvetica';font-size:99.99px;fill:#000000">P(Y(t) = 2 | Y(90) = 1)</text>
	<text x="1062.89" y="2266.43" style="font-family:'Helvetica';font-size:99.99px;fill:#000000">P(Y(t) = 3 | Y(90) = 1)</text>
	<text x="2637.61" y="2266.43" style="font-family:'Helvetica';font-size:99.99px;fill:#000000">P(Y(t) = 4 | Y(90) = 1)</text>
	<text x="1062.89" y="2406.52" style="font-family:'Helvetica';font-size:99.99px;fill:#000000">P(Y(t) = 5 | Y(90) = 1)</text>
	<text x="2637.61" y="2406.52" style="font-family:'Helvetica';font-size:99.99px;fill:#000000">P(Y(t) = 6 | Y(90) = 1)</text>
	<text x="1062.89" y="2546.49" style="font-family:'Helvetica';font-size:99.99px;fill:#000000">P(Y(t) = 7 | Y(90) = 1)</text>
	<text x="2637.61" y="2546.49" style="font-family:'Helvetica';font-size:99.99px;fill:#000000">P(Y(t) = 8 | Y(90) = 1)</text>
	<text x="1062.89" y="2686.46" style="font-family:'Helvetica';font-size:99.99px;fill:#000000">P(Y(t) = 9 | Y(90) = 1)</text>
	<text x="2637.61" y="2686.46" style="font-family:'Helvetica';font-size:99.99px;fill:#000000">P(Y(t) = 10 | Y(90) = 1)</text>
	<text x="2162.41" y="369.63" style="font-family:'Helvetica';font-size:110.01px;fill:#000000" text-anchor="middle">From Admission(1), Outpatient</text>
	<text x="2162.41" y="215.98" style="font-family:'Helvetica';font-size:139.96px;fill:#1E2D53" text-anchor="middle">P(Y(t) = b | Y(90) = 1, at1)</text>
</svg>
