<?xml version="1.0" encoding="UTF-8" standalone="no"?>
<!-- This is a Stata 16.1 generated SVG file (http://www.stata.com) -->

<svg version="1.1" width="5.50in" height="4.00in" viewBox="0 0 3960 2880" xmlns="http://www.w3.org/2000/svg" xmlns:xlink="http://www.w3.org/1999/xlink">
	<desc>Stata Graph - gh_1_2</desc>
	<rect x="0" y="0" width="3960" height="2880" style="fill:#EAF2F3;stroke:none"/>
	<rect x="0.00" y="0.00" width="3959.88" height="2880.00" style="fill:#FFFFFF"/>
	<rect x="2.88" y="2.88" width="3954.12" height="2874.24" style="fill:none;stroke:#EAF2F3;stroke-width:5.76"/>
	<rect x="465.80" y="419.90" width="3393.22" height="1533.81" style="fill:#FFFFFF"/>
	<rect x="468.67" y="422.78" width="3387.47" height="1528.05" style="fill:none;stroke:#FFFFFF;stroke-width:5.76"/>
	<line x1="465.80" y1="1953.70" x2="3859.02" y2="1953.70" style="stroke:#EAF2F3;stroke-width:8.64"/>
	<line x1="465.80" y1="1800.37" x2="3859.02" y2="1800.37" style="stroke:#EAF2F3;stroke-width:8.64"/>
	<line x1="465.80" y1="1646.92" x2="3859.02" y2="1646.92" style="stroke:#EAF2F3;stroke-width:8.64"/>
	<line x1="465.80" y1="1493.59" x2="3859.02" y2="1493.59" style="stroke:#EAF2F3;stroke-width:8.64"/>
	<line x1="465.80" y1="1340.13" x2="3859.02" y2="1340.13" style="stroke:#EAF2F3;stroke-width:8.64"/>
	<line x1="465.80" y1="1186.80" x2="3859.02" y2="1186.80" style="stroke:#EAF2F3;stroke-width:8.64"/>
	<line x1="465.80" y1="1033.47" x2="3859.02" y2="1033.47" style="stroke:#EAF2F3;stroke-width:8.64"/>
	<line x1="465.80" y1="880.01" x2="3859.02" y2="880.01" style="stroke:#EAF2F3;stroke-width:8.64"/>
	<line x1="465.80" y1="726.68" x2="3859.02" y2="726.68" style="stroke:#EAF2F3;stroke-width:8.64"/>
	<line x1="465.80" y1="573.35" x2="3859.02" y2="573.35" style="stroke:#EAF2F3;stroke-width:8.64"/>
	<line x1="465.80" y1="419.90" x2="3859.02" y2="419.90" style="stroke:#EAF2F3;stroke-width:8.64"/>
	<defs>
		<path id="path_olZfHUbo" d="M618.38 420.02 L618.38 420.02 L634.84 420.02 L651.30 420.02 L667.75 420.02 L684.21 420.02 L700.67 420.02 L717.13 420.02 L733.59 420.02 L750.05 420.02 L766.51 420.02 L782.97 420.02 L799.42 420.02 L815.88 420.02 L832.34 420.02 L848.80 420.02 L865.26 420.02 L881.72 420.02 L898.18 420.02 L914.64 420.02 L931.10 420.02 L947.55 420.02 L964.01 420.02 L980.47 420.02 L996.93 420.02 L1013.39 420.02 L1029.72 420.02 L1046.18 420.02 L1062.64 420.02 L1079.10 420.02 L1095.56 420.02 L1112.02 420.02 L1128.48 420.02 L1144.93 420.02 L1161.39 420.02 L1177.85 420.02 L1194.31 420.02 L1210.77 420.02 L1227.23 420.02 L1243.69 420.02 L1260.15 420.02 L1276.61 420.02 L1293.06 420.02 L1309.52 420.02 L1325.98 420.02 L1342.44 420.02 L1358.90 420.02 L1375.36 420.02 L1391.82 420.02 L1408.28 420.02 L1424.73 420.02 L1441.19 420.02 L1457.65 420.02 L1474.11 420.02 L1490.57 420.02 L1507.03 420.02 L1523.36 420.02 L1539.82 420.02 L1556.28 420.02 L1572.74 420.02 L1589.20 420.02 L1605.66 420.02 L1622.12 420.02 L1638.57 420.02 L1655.03 420.02 L1671.49 420.02 L1687.95 420.02 L1704.41 420.02 L1720.87 420.02 L1737.33 420.02 L1753.79 420.02 L1770.24 420.02 L1786.70 420.02 L1803.16 420.02 L1819.62 420.02 L1836.08 420.02 L1852.54 420.02 L1869.00 420.02 L1885.45 420.02 L1901.91 420.02 L1918.37 420.02 L1934.83 420.02 L1951.29 420.02 L1967.75 420.02 L1984.21 420.02 L2000.67 420.02 L2017.00 420.02 L2033.46 420.02 L2049.92 420.02 L2066.38 420.02 L2082.84 420.02 L2099.30 420.02 L2115.75 420.02 L2132.21 420.02 L2148.67 420.02 L2165.13 420.02 L2181.59 420.02 L2198.05 420.02 L2214.51 420.02 L2230.97 420.02 L2247.42 420.02 L2263.88 420.02 L2280.34 420.02 L2296.80 420.02 L2313.26 420.02 L2329.72 420.02 L2346.18 420.02 L2362.64 420.02 L2379.09 420.02 L2395.55 420.02 L2412.01 420.02 L2428.47 420.02 L2444.93 420.02 L2461.39 420.02 L2477.85 420.02 L2494.30 420.02 L2510.76 420.02 L2527.10 420.02 L2543.56 420.02 L2560.02 420.02 L2576.47 420.02 L2592.93 420.02 L2609.39 420.02 L2625.85 420.02 L2642.31 420.02 L2658.77 420.02 L2675.23 420.02 L2691.69 420.02 L2708.14 420.02 L2724.60 420.02 L2741.06 420.02 L2757.52 420.02 L2773.98 420.02 L2790.44 420.02 L2806.90 420.02 L2823.36 420.02 L2839.82 420.02 L2856.27 420.02 L2872.73 420.02 L2889.19 420.02 L2905.65 420.02 L2922.11 420.02 L2938.57 420.02 L2955.03 420.02 L2971.49 420.02 L2987.94 420.02 L3004.40 420.02 L3020.74 420.02 L3037.20 420.02 L3053.66 420.02 L3070.11 420.02 L3086.57 420.02 L3103.03 420.02 L3119.49 420.02 L3135.95 420.02 L3152.41 420.02 L3168.87 420.02 L3185.32 420.02 L3201.78 420.02 L3218.24 420.02 L3234.70 420.02 L3251.16 420.02 L3267.62 420.02 L3284.08 420.02 L3300.54 420.02 L3316.99 420.02 L3333.45 420.02 L3349.91 420.02 L3366.37 420.02 L3382.83 420.02 L3399.29 420.02 L3415.75 420.02 L3432.21 420.02 L3448.66 420.02 L3465.12 420.02 L3481.58 420.02 L3498.04 420.02 L3514.38 420.02 L3530.84 420.02 L3547.29 420.02 L3563.75 420.02 L3563.75 1953.70 L618.38 1953.70 L618.38 420.02 Z" stroke-linejoin="round"/>
	</defs>
	<defs>
		<clipPath id="clipPath_XbyWCIdJ">
			<use xlink:href="#path_olZfHUbo"/>
		</clipPath>
	</defs>
	<use xlink:href="#path_olZfHUbo" style="stroke:none;fill:#486C8C"/>
	<use xlink:href="#path_olZfHUbo" style="fill:none;stroke:#1A476F;stroke-width:17.28" clip-path="url(#clipPath_XbyWCIdJ)"/>
	<defs>
		<path id="path_llwyDqDB" d="M618.38 420.02 L618.38 420.02 L634.84 420.02 L651.30 420.02 L667.75 420.02 L684.21 420.14 L700.67 420.14 L717.13 420.14 L733.59 420.14 L750.05 420.27 L766.51 420.27 L782.97 420.39 L799.42 420.52 L815.88 420.64 L832.34 420.76 L848.80 420.89 L865.26 421.01 L881.72 421.13 L898.18 421.38 L914.64 421.63 L931.10 421.88 L947.55 422.12 L964.01 422.50 L980.47 422.74 L996.93 423.11 L1013.39 423.61 L1029.72 423.98 L1046.18 424.48 L1062.64 424.97 L1079.10 425.59 L1095.56 426.08 L1112.02 426.83 L1128.48 427.45 L1144.93 428.19 L1161.39 429.05 L1177.85 429.80 L1194.31 430.79 L1210.77 431.65 L1227.23 432.64 L1243.69 433.76 L1260.15 434.87 L1276.61 435.98 L1293.06 437.35 L1309.52 438.58 L1325.98 439.94 L1342.44 441.31 L1358.90 442.92 L1375.36 444.40 L1391.82 446.01 L1408.28 447.74 L1424.73 449.47 L1441.19 451.33 L1457.65 453.31 L1474.11 455.29 L1490.57 457.27 L1507.03 459.50 L1523.36 461.73 L1539.82 463.95 L1556.28 466.30 L1572.74 468.90 L1589.20 471.25 L1605.66 473.85 L1622.12 476.58 L1638.57 479.30 L1655.03 482.15 L1671.49 484.99 L1687.95 487.96 L1704.41 491.06 L1720.87 494.15 L1737.33 497.24 L1753.79 500.34 L1770.24 503.55 L1786.70 507.14 L1803.16 510.48 L1819.62 513.95 L1836.08 517.54 L1852.54 521.25 L1869.00 524.96 L1885.45 528.80 L1901.91 532.64 L1918.37 536.47 L1934.83 540.43 L1951.29 544.39 L1967.75 548.48 L1984.21 552.93 L2000.67 557.02 L2017.00 561.35 L2033.46 565.68 L2049.92 569.89 L2066.38 574.22 L2082.84 578.67 L2099.30 583.00 L2115.75 587.71 L2132.21 592.29 L2148.67 596.99 L2165.13 601.44 L2181.59 606.27 L2198.05 610.97 L2214.51 615.80 L2230.97 620.63 L2247.42 625.45 L2263.88 630.15 L2280.34 634.98 L2296.80 639.81 L2313.26 644.76 L2329.72 649.71 L2346.18 654.66 L2362.64 659.61 L2379.09 664.68 L2395.55 669.88 L2412.01 675.08 L2428.47 680.15 L2444.93 685.23 L2461.39 690.18 L2477.85 695.37 L2494.30 700.57 L2510.76 705.89 L2527.10 710.97 L2543.56 716.16 L2560.02 721.36 L2576.47 726.31 L2592.93 731.39 L2609.39 736.58 L2625.85 741.66 L2642.31 747.10 L2658.77 752.30 L2675.23 757.62 L2691.69 762.82 L2708.14 768.02 L2724.60 773.21 L2741.06 778.29 L2757.52 783.61 L2773.98 788.68 L2790.44 794.00 L2806.90 799.20 L2823.36 804.28 L2839.82 809.35 L2856.27 814.30 L2872.73 819.37 L2889.19 824.45 L2905.65 829.40 L2922.11 834.47 L2938.57 839.42 L2955.03 844.25 L2971.49 849.32 L2987.94 854.27 L3004.40 859.22 L3020.74 864.30 L3037.20 869.25 L3053.66 874.07 L3070.11 878.90 L3086.57 883.73 L3103.03 888.68 L3119.49 893.50 L3135.95 898.21 L3152.41 902.91 L3168.87 907.61 L3185.32 912.31 L3201.78 917.02 L3218.24 921.72 L3234.70 926.42 L3251.16 931.12 L3267.62 935.83 L3284.08 940.41 L3300.54 945.23 L3316.99 949.81 L3333.45 954.27 L3349.91 958.84 L3366.37 963.30 L3382.83 967.88 L3399.29 972.21 L3415.75 976.79 L3432.21 981.24 L3448.66 985.82 L3465.12 990.15 L3481.58 994.61 L3498.04 998.94 L3514.38 1003.15 L3530.84 1007.23 L3547.29 1011.56 L3563.75 1015.52 L3563.75 1953.70 L618.38 1953.70 L618.38 420.02 Z" stroke-linejoin="round"/>
	</defs>
	<defs>
		<clipPath id="clipPath_yawzJyJc">
			<use xlink:href="#path_llwyDqDB"/>
		</clipPath>
	</defs>
	<use xlink:href="#path_llwyDqDB" style="stroke:none;fill:#A65D62"/>
	<use xlink:href="#path_llwyDqDB" style="fill:none;stroke:#90353B;stroke-width:17.28" clip-path="url(#clipPath_yawzJyJc)"/>
	<defs>
		<path id="path_WyLKeENa" d="M618.38 422.25 L618.38 422.25 L634.84 423.11 L651.30 423.98 L667.75 425.09 L684.21 426.33 L700.67 427.94 L717.13 429.67 L733.59 431.65 L750.05 433.88 L766.51 436.23 L782.97 438.83 L799.42 441.68 L815.88 444.90 L832.34 448.11 L848.80 451.70 L865.26 455.66 L881.72 459.62 L898.18 463.83 L914.64 468.53 L931.10 473.36 L947.55 478.43 L964.01 483.88 L980.47 489.45 L996.93 495.26 L1013.39 501.45 L1029.72 507.76 L1046.18 514.32 L1062.64 521.00 L1079.10 528.18 L1095.56 535.36 L1112.02 542.78 L1128.48 550.33 L1144.93 558.25 L1161.39 566.30 L1177.85 574.59 L1194.31 582.88 L1210.77 591.42 L1227.23 600.58 L1243.69 609.86 L1260.15 619.26 L1276.61 628.67 L1293.06 638.57 L1309.52 648.59 L1325.98 658.87 L1342.44 669.14 L1358.90 679.53 L1375.36 690.05 L1391.82 700.82 L1408.28 711.58 L1424.73 722.48 L1441.19 733.49 L1457.65 744.75 L1474.11 755.89 L1490.57 767.03 L1507.03 778.54 L1523.36 790.17 L1539.82 801.80 L1556.28 813.31 L1572.74 824.94 L1589.20 836.70 L1605.66 848.58 L1622.12 860.46 L1638.57 872.46 L1655.03 884.22 L1671.49 896.23 L1687.95 908.35 L1704.41 920.11 L1720.87 931.99 L1737.33 944.12 L1753.79 955.87 L1770.24 967.63 L1786.70 979.14 L1803.16 990.77 L1819.62 1002.16 L1836.08 1013.67 L1852.54 1025.42 L1869.00 1036.69 L1885.45 1048.20 L1901.91 1059.33 L1918.37 1070.84 L1934.83 1081.98 L1951.29 1093.24 L1967.75 1104.26 L1984.21 1115.39 L2000.67 1126.28 L2017.00 1137.17 L2033.46 1147.82 L2049.92 1158.46 L2066.38 1168.98 L2082.84 1179.37 L2099.30 1189.77 L2115.75 1199.92 L2132.21 1209.82 L2148.67 1219.97 L2165.13 1229.87 L2181.59 1239.77 L2198.05 1249.54 L2214.51 1259.20 L2230.97 1268.85 L2247.42 1278.25 L2263.88 1287.54 L2280.34 1296.57 L2296.80 1305.73 L2313.26 1314.88 L2329.72 1323.55 L2346.18 1332.46 L2362.64 1341.37 L2379.09 1350.03 L2395.55 1358.45 L2412.01 1366.99 L2428.47 1375.28 L2444.93 1383.32 L2461.39 1391.61 L2477.85 1399.53 L2494.30 1407.45 L2510.76 1415.62 L2527.10 1423.42 L2543.56 1431.21 L2560.02 1438.89 L2576.47 1446.44 L2592.93 1454.11 L2609.39 1461.41 L2625.85 1468.83 L2642.31 1476.01 L2658.77 1483.31 L2675.23 1490.37 L2691.69 1497.17 L2708.14 1504.23 L2724.60 1511.16 L2741.06 1517.96 L2757.52 1524.52 L2773.98 1531.21 L2790.44 1537.64 L2806.90 1543.95 L2823.36 1550.26 L2839.82 1556.45 L2856.27 1562.64 L2872.73 1568.83 L2889.19 1574.89 L2905.65 1580.96 L2922.11 1586.90 L2938.57 1592.71 L2955.03 1598.53 L2971.49 1604.22 L2987.94 1609.91 L3004.40 1615.61 L3020.74 1621.05 L3037.20 1626.50 L3053.66 1631.94 L3070.11 1637.14 L3086.57 1642.46 L3103.03 1647.78 L3119.49 1652.98 L3135.95 1658.05 L3152.41 1663.00 L3168.87 1667.95 L3185.32 1672.90 L3201.78 1677.61 L3218.24 1682.31 L3234.70 1687.14 L3251.16 1691.59 L3267.62 1696.29 L3284.08 1700.63 L3300.54 1705.20 L3316.99 1709.54 L3333.45 1713.87 L3349.91 1718.07 L3366.37 1722.16 L3382.83 1726.37 L3399.29 1730.33 L3415.75 1734.41 L3432.21 1738.37 L3448.66 1742.33 L3465.12 1746.29 L3481.58 1750.25 L3498.04 1753.96 L3514.38 1757.80 L3530.84 1761.39 L3547.29 1764.98 L3563.75 1768.57 L3563.75 1953.70 L618.38 1953.70 L618.38 422.25 Z" stroke-linejoin="round"/>
	</defs>
	<defs>
		<clipPath id="clipPath_NeorSWHH">
			<use xlink:href="#path_WyLKeENa"/>
		</clipPath>
	</defs>
	<use xlink:href="#path_WyLKeENa" style="stroke:none;fill:#779159"/>
	<use xlink:href="#path_WyLKeENa" style="fill:none;stroke:#55752F;stroke-width:17.28" clip-path="url(#clipPath_NeorSWHH)"/>
	<defs>
		<path id="path_GAGIHUys" d="M618.38 543.53 L618.38 543.53 L634.84 560.73 L651.30 578.18 L667.75 596.62 L684.21 615.18 L700.67 633.87 L717.13 653.17 L733.59 672.85 L750.05 692.65 L766.51 712.45 L782.97 732.62 L799.42 752.92 L815.88 773.46 L832.34 793.88 L848.80 814.80 L865.26 835.59 L881.72 856.50 L898.18 877.04 L914.64 897.71 L931.10 918.38 L947.55 939.29 L964.01 959.83 L980.47 980.38 L996.93 1000.67 L1013.39 1020.97 L1029.72 1040.89 L1046.18 1061.07 L1062.64 1080.99 L1079.10 1100.30 L1095.56 1119.72 L1112.02 1138.91 L1128.48 1157.47 L1144.93 1176.16 L1161.39 1194.47 L1177.85 1212.42 L1194.31 1229.99 L1210.77 1247.19 L1227.23 1264.52 L1243.69 1281.47 L1260.15 1297.56 L1276.61 1313.89 L1293.06 1329.74 L1309.52 1345.33 L1325.98 1360.30 L1342.44 1375.52 L1358.90 1390.13 L1375.36 1404.48 L1391.82 1418.22 L1408.28 1431.71 L1424.73 1445.07 L1441.19 1457.70 L1457.65 1470.44 L1474.11 1482.70 L1490.57 1494.82 L1507.03 1506.46 L1523.36 1517.84 L1539.82 1529.23 L1556.28 1540.24 L1572.74 1550.64 L1589.20 1561.16 L1605.66 1571.30 L1622.12 1581.08 L1638.57 1590.73 L1655.03 1600.01 L1671.49 1609.42 L1687.95 1618.08 L1704.41 1626.62 L1720.87 1634.91 L1737.33 1643.20 L1753.79 1651.25 L1770.24 1658.92 L1786.70 1666.59 L1803.16 1674.02 L1819.62 1681.32 L1836.08 1688.13 L1852.54 1695.06 L1869.00 1701.74 L1885.45 1708.30 L1901.91 1714.49 L1918.37 1720.67 L1934.83 1726.86 L1951.29 1732.68 L1967.75 1738.25 L1984.21 1743.94 L2000.67 1749.14 L2017.00 1754.09 L2033.46 1759.28 L2049.92 1764.36 L2066.38 1769.19 L2082.84 1773.89 L2099.30 1778.59 L2115.75 1783.17 L2132.21 1787.50 L2148.67 1791.58 L2165.13 1795.79 L2181.59 1799.75 L2198.05 1803.71 L2214.51 1807.67 L2230.97 1811.26 L2247.42 1814.73 L2263.88 1818.32 L2280.34 1821.66 L2296.80 1825.12 L2313.26 1828.46 L2329.72 1831.68 L2346.18 1834.77 L2362.64 1837.87 L2379.09 1840.72 L2395.55 1843.69 L2412.01 1846.41 L2428.47 1849.25 L2444.93 1851.85 L2461.39 1854.45 L2477.85 1856.93 L2494.30 1859.40 L2510.76 1861.75 L2527.10 1864.10 L2543.56 1866.46 L2560.02 1868.56 L2576.47 1870.79 L2592.93 1872.89 L2609.39 1874.99 L2625.85 1876.97 L2642.31 1878.95 L2658.77 1880.94 L2675.23 1882.67 L2691.69 1884.52 L2708.14 1886.26 L2724.60 1887.99 L2741.06 1889.60 L2757.52 1891.21 L2773.98 1892.82 L2790.44 1894.30 L2806.90 1895.79 L2823.36 1897.27 L2839.82 1898.63 L2856.27 1899.99 L2872.73 1901.35 L2889.19 1902.72 L2905.65 1903.95 L2922.11 1905.31 L2938.57 1906.43 L2955.03 1907.67 L2971.49 1908.90 L2987.94 1910.02 L3004.40 1911.01 L3020.74 1912.12 L3037.20 1913.11 L3053.66 1914.10 L3070.11 1915.09 L3086.57 1916.08 L3103.03 1916.95 L3119.49 1917.69 L3135.95 1918.56 L3152.41 1919.55 L3168.87 1920.41 L3185.32 1921.16 L3201.78 1921.90 L3218.24 1922.76 L3234.70 1923.51 L3251.16 1924.25 L3267.62 1924.99 L3284.08 1925.73 L3300.54 1926.48 L3316.99 1927.22 L3333.45 1927.84 L3349.91 1928.58 L3366.37 1929.08 L3382.83 1929.82 L3399.29 1930.31 L3415.75 1930.93 L3432.21 1931.55 L3448.66 1932.17 L3465.12 1932.66 L3481.58 1933.28 L3498.04 1933.78 L3514.38 1934.27 L3530.84 1934.77 L3547.29 1935.26 L3563.75 1935.63 L3563.75 1953.70 L618.38 1953.70 L618.38 543.53 Z" stroke-linejoin="round"/>
	</defs>
	<defs>
		<clipPath id="clipPath_hcbVoAmk">
			<use xlink:href="#path_GAGIHUys"/>
		</clipPath>
	</defs>
	<use xlink:href="#path_GAGIHUys" style="stroke:none;fill:#E99833"/>
	<use xlink:href="#path_GAGIHUys" style="fill:none;stroke:#E37E00;stroke-width:17.28" clip-path="url(#clipPath_hcbVoAmk)"/>
	<defs>
		<path id="path_xEOjmqlk" d="M618.38 1953.70 L618.38 1953.70 L634.84 1953.70 L651.30 1953.70 L667.75 1953.70 L684.21 1953.70 L700.67 1953.70 L717.13 1953.70 L733.59 1953.70 L750.05 1953.70 L766.51 1953.70 L782.97 1953.70 L799.42 1953.70 L815.88 1953.70 L832.34 1953.70 L848.80 1953.70 L865.26 1953.70 L881.72 1953.70 L898.18 1953.70 L914.64 1953.70 L931.10 1953.70 L947.55 1953.70 L964.01 1953.70 L980.47 1953.70 L996.93 1953.70 L1013.39 1953.70 L1029.72 1953.70 L1046.18 1953.70 L1062.64 1953.70 L1079.10 1953.70 L1095.56 1953.70 L1112.02 1953.70 L1128.48 1953.70 L1144.93 1953.70 L1161.39 1953.70 L1177.85 1953.70 L1194.31 1953.70 L1210.77 1953.70 L1227.23 1953.70 L1243.69 1953.70 L1260.15 1953.70 L1276.61 1953.70 L1293.06 1953.70 L1309.52 1953.70 L1325.98 1953.70 L1342.44 1953.70 L1358.90 1953.70 L1375.36 1953.70 L1391.82 1953.70 L1408.28 1953.70 L1424.73 1953.70 L1441.19 1953.70 L1457.65 1953.70 L1474.11 1953.70 L1490.57 1953.70 L1507.03 1953.70 L1523.36 1953.70 L1539.82 1953.70 L1556.28 1953.70 L1572.74 1953.70 L1589.20 1953.70 L1605.66 1953.70 L1622.12 1953.70 L1638.57 1953.70 L1655.03 1953.70 L1671.49 1953.70 L1687.95 1953.70 L1704.41 1953.70 L1720.87 1953.70 L1737.33 1953.70 L1753.79 1953.70 L1770.24 1953.70 L1786.70 1953.70 L1803.16 1953.70 L1819.62 1953.70 L1836.08 1953.70 L1852.54 1953.70 L1869.00 1953.70 L1885.45 1953.70 L1901.91 1953.70 L1918.37 1953.70 L1934.83 1953.70 L1951.29 1953.70 L1967.75 1953.70 L1984.21 1953.70 L2000.67 1953.70 L2017.00 1953.70 L2033.46 1953.70 L2049.92 1953.70 L2066.38 1953.70 L2082.84 1953.70 L2099.30 1953.70 L2115.75 1953.70 L2132.21 1953.70 L2148.67 1953.70 L2165.13 1953.70 L2181.59 1953.70 L2198.05 1953.70 L2214.51 1953.70 L2230.97 1953.70 L2247.42 1953.70 L2263.88 1953.70 L2280.34 1953.70 L2296.80 1953.70 L2313.26 1953.70 L2329.72 1953.70 L2346.18 1953.70 L2362.64 1953.70 L2379.09 1953.70 L2395.55 1953.70 L2412.01 1953.70 L2428.47 1953.70 L2444.93 1953.70 L2461.39 1953.70 L2477.85 1953.70 L2494.30 1953.70 L2510.76 1953.70 L2527.10 1953.70 L2543.56 1953.70 L2560.02 1953.70 L2576.47 1953.70 L2592.93 1953.70 L2609.39 1953.70 L2625.85 1953.70 L2642.31 1953.70 L2658.77 1953.70 L2675.23 1953.70 L2691.69 1953.70 L2708.14 1953.70 L2724.60 1953.70 L2741.06 1953.70 L2757.52 1953.70 L2773.98 1953.70 L2790.44 1953.70 L2806.90 1953.70 L2823.36 1953.70 L2839.82 1953.70 L2856.27 1953.70 L2872.73 1953.70 L2889.19 1953.70 L2905.65 1953.70 L2922.11 1953.70 L2938.57 1953.70 L2955.03 1953.70 L2971.49 1953.70 L2987.94 1953.70 L3004.40 1953.70 L3020.74 1953.70 L3037.20 1953.70 L3053.66 1953.70 L3070.11 1953.70 L3086.57 1953.70 L3103.03 1953.70 L3119.49 1953.70 L3135.95 1953.70 L3152.41 1953.70 L3168.87 1953.70 L3185.32 1953.70 L3201.78 1953.70 L3218.24 1953.70 L3234.70 1953.70 L3251.16 1953.70 L3267.62 1953.70 L3284.08 1953.70 L3300.54 1953.70 L3316.99 1953.70 L3333.45 1953.70 L3349.91 1953.70 L3366.37 1953.70 L3382.83 1953.70 L3399.29 1953.70 L3415.75 1953.70 L3432.21 1953.70 L3448.66 1953.70 L3465.12 1953.70 L3481.58 1953.70 L3498.04 1953.70 L3514.38 1953.70 L3530.84 1953.70 L3547.29 1953.70 L3563.75 1953.70 L3563.75 1953.70 L618.38 1953.70 L618.38 1953.70 Z" stroke-linejoin="round"/>
	</defs>
	<defs>
		<clipPath id="clipPath_HQywKcpY">
			<use xlink:href="#path_xEOjmqlk"/>
		</clipPath>
	</defs>
	<use xlink:href="#path_xEOjmqlk" style="stroke:none;fill:#8BA59D"/>
	<use xlink:href="#path_xEOjmqlk" style="fill:none;stroke:#6E8E84;stroke-width:17.28" clip-path="url(#clipPath_HQywKcpY)"/>
	<line x1="465.80" y1="1953.70" x2="465.80" y2="419.90" style="stroke:#000000;stroke-width:5.76"/>
	<line x1="465.80" y1="1953.70" x2="425.82" y2="1953.70" style="stroke:#000000;stroke-width:5.76"/>
	<text x="405.78" y="1988.73" style="font-family:'Helvetica';font-size:99.99px;fill:#000000" text-anchor="end">0.0</text>
	<line x1="465.80" y1="1800.37" x2="425.82" y2="1800.37" style="stroke:#000000;stroke-width:5.76"/>
	<text x="405.78" y="1835.40" style="font-family:'Helvetica';font-size:99.99px;fill:#000000" text-anchor="end">0.1</text>
	<line x1="465.80" y1="1646.92" x2="425.82" y2="1646.92" style="stroke:#000000;stroke-width:5.76"/>
	<text x="405.78" y="1681.94" style="font-family:'Helvetica';font-size:99.99px;fill:#000000" text-anchor="end">0.2</text>
	<line x1="465.80" y1="1493.59" x2="425.82" y2="1493.59" style="stroke:#000000;stroke-width:5.76"/>
	<text x="405.78" y="1528.61" style="font-family:'Helvetica';font-size:99.99px;fill:#000000" text-anchor="end">0.3</text>
	<line x1="465.80" y1="1340.13" x2="425.82" y2="1340.13" style="stroke:#000000;stroke-width:5.76"/>
	<text x="405.78" y="1375.16" style="font-family:'Helvetica';font-size:99.99px;fill:#000000" text-anchor="end">0.4</text>
	<line x1="465.80" y1="1186.80" x2="425.82" y2="1186.80" style="stroke:#000000;stroke-width:5.76"/>
	<text x="405.78" y="1221.83" style="font-family:'Helvetica';font-size:99.99px;fill:#000000" text-anchor="end">0.5</text>
	<line x1="465.80" y1="1033.47" x2="425.82" y2="1033.47" style="stroke:#000000;stroke-width:5.76"/>
	<text x="405.78" y="1068.50" style="font-family:'Helvetica';font-size:99.99px;fill:#000000" text-anchor="end">0.6</text>
	<line x1="465.80" y1="880.01" x2="425.82" y2="880.01" style="stroke:#000000;stroke-width:5.76"/>
	<text x="405.78" y="915.04" style="font-family:'Helvetica';font-size:99.99px;fill:#000000" text-anchor="end">0.7</text>
	<line x1="465.80" y1="726.68" x2="425.82" y2="726.68" style="stroke:#000000;stroke-width:5.76"/>
	<text x="405.78" y="761.71" style="font-family:'Helvetica';font-size:99.99px;fill:#000000" text-anchor="end">0.8</text>
	<line x1="465.80" y1="573.35" x2="425.82" y2="573.35" style="stroke:#000000;stroke-width:5.76"/>
	<text x="405.78" y="608.38" style="font-family:'Helvetica';font-size:99.99px;fill:#000000" text-anchor="end">0.9</text>
	<line x1="465.80" y1="419.90" x2="425.82" y2="419.90" style="stroke:#000000;stroke-width:5.76"/>
	<text x="405.78" y="454.93" style="font-family:'Helvetica';font-size:99.99px;fill:#000000" text-anchor="end">1.0</text>
	<text x="190.71" y="1186.80" style="font-family:'Helvetica';font-size:99.99px;fill:#000000" transform="rotate(-90 190.71,1186.80)" text-anchor="middle">Transition Probability</text>
	<line x1="465.80" y1="1953.70" x2="3859.02" y2="1953.70" style="stroke:#000000;stroke-width:5.76"/>
	<line x1="465.80" y1="1953.70" x2="465.80" y2="1993.67" style="stroke:#000000;stroke-width:5.76"/>
	<text x="465.80" y="2083.66" style="font-family:'Helvetica';font-size:99.99px;fill:#000000" text-anchor="middle">0</text>
	<line x1="1314.10" y1="1953.70" x2="1314.10" y2="1993.67" style="stroke:#000000;stroke-width:5.76"/>
	<text x="1314.10" y="2083.66" style="font-family:'Helvetica';font-size:99.99px;fill:#000000" text-anchor="middle">500</text>
	<line x1="2162.41" y1="1953.70" x2="2162.41" y2="1993.67" style="stroke:#000000;stroke-width:5.76"/>
	<text x="2162.41" y="2083.66" style="font-family:'Helvetica';font-size:99.99px;fill:#000000" text-anchor="middle">1000</text>
	<line x1="3010.71" y1="1953.70" x2="3010.71" y2="1993.67" style="stroke:#000000;stroke-width:5.76"/>
	<text x="3010.71" y="2083.66" style="font-family:'Helvetica';font-size:99.99px;fill:#000000" text-anchor="middle">1500</text>
	<line x1="3859.02" y1="1953.70" x2="3859.02" y2="1993.67" style="stroke:#000000;stroke-width:5.76"/>
	<text x="3859.02" y="2083.66" style="font-family:'Helvetica';font-size:99.99px;fill:#000000" text-anchor="middle">2000</text>
	<text x="2162.41" y="2193.67" style="font-family:'Helvetica';font-size:99.99px;fill:#000000" text-anchor="middle">Follow-up time</text>
	<rect x="614.42" y="2278.31" width="3095.98" height="466.30" style="fill:#FFFFFF"/>
	<rect x="617.30" y="2281.19" width="3090.22" height="460.54" style="fill:none;stroke:#000000;stroke-width:5.76"/>
	<rect x="657.61" y="2321.50" width="374.47" height="99.99" style="fill:#8BA59D"/>
	<rect x="661.93" y="2325.82" width="365.83" height="91.35" style="fill:none;stroke:#6E8E84;stroke-width:8.64"/>
	<rect x="2232.45" y="2321.50" width="374.34" height="99.99" style="fill:#E99833"/>
	<rect x="2236.77" y="2325.82" width="365.70" height="91.35" style="fill:none;stroke:#E37E00;stroke-width:8.64"/>
	<rect x="657.61" y="2461.46" width="374.47" height="99.99" style="fill:#779159"/>
	<rect x="661.93" y="2465.78" width="365.83" height="91.35" style="fill:none;stroke:#55752F;stroke-width:8.64"/>
	<rect x="2232.45" y="2461.46" width="374.34" height="99.99" style="fill:#A65D62"/>
	<rect x="2236.77" y="2465.78" width="365.70" height="91.35" style="fill:none;stroke:#90353B;stroke-width:8.64"/>
	<rect x="657.61" y="2601.43" width="374.47" height="99.99" style="fill:#486C8C"/>
	<rect x="661.93" y="2605.75" width="365.83" height="91.35" style="fill:none;stroke:#1A476F;stroke-width:8.64"/>
	<text x="1092.09" y="2406.52" style="font-family:'Helvetica';font-size:99.99px;fill:#000000">P(Y(t) = 1 | Y(90) = 2)</text>
	<text x="2666.81" y="2406.52" style="font-family:'Helvetica';font-size:99.99px;fill:#000000">P(Y(t) = 2 | Y(90) = 2)</text>
	<text x="1092.09" y="2546.49" style="font-family:'Helvetica';font-size:99.99px;fill:#000000">P(Y(t) = 3 | Y(90) = 2)</text>
	<text x="2666.81" y="2546.49" style="font-family:'Helvetica';font-size:99.99px;fill:#000000">P(Y(t) = 4 | Y(90) = 2)</text>
	<text x="1092.09" y="2686.46" style="font-family:'Helvetica';font-size:99.99px;fill:#000000">P(Y(t) = 5 | Y(90) = 2)</text>
	<text x="2162.41" y="369.63" style="font-family:'Helvetica';font-size:110.01px;fill:#000000" text-anchor="middle">From Readmission(2), Residential (RP)</text>
	<text x="2162.41" y="215.98" style="font-family:'Helvetica';font-size:139.96px;fill:#1E2D53" text-anchor="middle">P(Y(t) = b | Y(90) = 2, at1)</text>
</svg>
