<?xml version="1.0" encoding="UTF-8" standalone="no"?>
<!-- This is a Stata 16.1 generated SVG file (http://www.stata.com) -->

<svg version="1.1" width="5.50in" height="4.00in" viewBox="0 0 3960 2880" xmlns="http://www.w3.org/2000/svg" xmlns:xlink="http://www.w3.org/1999/xlink">
	<desc>Stata Graph - gh_1_3</desc>
	<rect x="0" y="0" width="3960" height="2880" style="fill:#EAF2F3;stroke:none"/>
	<rect x="0.00" y="0.00" width="3959.88" height="2880.00" style="fill:#FFFFFF"/>
	<rect x="2.88" y="2.88" width="3954.12" height="2874.24" style="fill:none;stroke:#EAF2F3;stroke-width:5.76"/>
	<rect x="465.80" y="419.90" width="3393.22" height="1533.81" style="fill:#FFFFFF"/>
	<rect x="468.67" y="422.78" width="3387.47" height="1528.05" style="fill:none;stroke:#FFFFFF;stroke-width:5.76"/>
	<line x1="465.80" y1="1953.70" x2="3859.02" y2="1953.70" style="stroke:#EAF2F3;stroke-width:8.64"/>
	<line x1="465.80" y1="1800.37" x2="3859.02" y2="1800.37" style="stroke:#EAF2F3;stroke-width:8.64"/>
	<line x1="465.80" y1="1646.92" x2="3859.02" y2="1646.92" style="stroke:#EAF2F3;stroke-width:8.64"/>
	<line x1="465.80" y1="1493.59" x2="3859.02" y2="1493.59" style="stroke:#EAF2F3;stroke-width:8.64"/>
	<line x1="465.80" y1="1340.13" x2="3859.02" y2="1340.13" style="stroke:#EAF2F3;stroke-width:8.64"/>
	<line x1="465.80" y1="1186.80" x2="3859.02" y2="1186.80" style="stroke:#EAF2F3;stroke-width:8.64"/>
	<line x1="465.80" y1="1033.47" x2="3859.02" y2="1033.47" style="stroke:#EAF2F3;stroke-width:8.64"/>
	<line x1="465.80" y1="880.01" x2="3859.02" y2="880.01" style="stroke:#EAF2F3;stroke-width:8.64"/>
	<line x1="465.80" y1="726.68" x2="3859.02" y2="726.68" style="stroke:#EAF2F3;stroke-width:8.64"/>
	<line x1="465.80" y1="573.35" x2="3859.02" y2="573.35" style="stroke:#EAF2F3;stroke-width:8.64"/>
	<line x1="465.80" y1="419.90" x2="3859.02" y2="419.90" style="stroke:#EAF2F3;stroke-width:8.64"/>
	<defs>
		<path id="path_qozyUxOa" d="M618.38 420.02 L618.38 420.02 L634.84 420.02 L651.30 420.02 L667.75 420.02 L684.21 420.02 L700.80 420.02 L717.25 420.02 L733.71 420.02 L750.17 420.02 L766.63 420.02 L783.09 420.02 L799.55 420.02 L816.01 420.02 L832.47 420.02 L848.92 420.02 L865.38 420.02 L881.84 420.02 L898.30 420.02 L914.76 420.02 L931.22 420.02 L947.68 420.02 L964.14 420.02 L980.60 420.02 L997.05 420.02 L1013.51 420.02 L1029.97 420.02 L1046.43 420.02 L1062.89 420.02 L1079.47 420.02 L1095.93 420.02 L1112.39 420.02 L1128.85 420.02 L1145.31 420.02 L1161.77 420.02 L1178.22 420.02 L1194.68 420.02 L1211.14 420.02 L1227.60 420.02 L1244.06 420.02 L1260.52 420.02 L1276.98 420.02 L1293.43 420.02 L1309.89 420.02 L1326.35 420.02 L1342.81 420.02 L1359.27 420.02 L1375.73 420.02 L1392.19 420.02 L1408.65 420.02 L1425.11 420.02 L1441.56 420.02 L1458.15 420.02 L1474.61 420.02 L1491.06 420.02 L1507.52 420.02 L1523.98 420.02 L1540.44 420.02 L1556.90 420.02 L1573.36 420.02 L1589.82 420.02 L1606.28 420.02 L1622.73 420.02 L1639.19 420.02 L1655.65 420.02 L1672.11 420.02 L1688.57 420.02 L1705.03 420.02 L1721.49 420.02 L1737.94 420.02 L1754.40 420.02 L1770.86 420.02 L1787.32 420.02 L1803.78 420.02 L1820.24 420.02 L1836.82 420.02 L1853.28 420.02 L1869.74 420.02 L1886.20 420.02 L1902.66 420.02 L1919.12 420.02 L1935.57 420.02 L1952.03 420.02 L1968.49 420.02 L1984.95 420.02 L2001.41 420.02 L2017.87 420.02 L2034.33 420.02 L2050.78 420.02 L2067.24 420.02 L2083.70 420.02 L2100.16 420.02 L2116.62 420.02 L2133.08 420.02 L2149.54 420.02 L2166.00 420.02 L2182.45 420.02 L2198.91 420.02 L2215.50 420.02 L2231.95 420.02 L2248.41 420.02 L2264.87 420.02 L2281.33 420.02 L2297.79 420.02 L2314.25 420.02 L2330.71 420.02 L2347.17 420.02 L2363.63 420.02 L2380.08 420.02 L2396.54 420.02 L2413.00 420.02 L2429.46 420.02 L2445.92 420.02 L2462.38 420.02 L2478.84 420.02 L2495.30 420.02 L2511.75 420.02 L2528.21 420.02 L2544.67 420.02 L2561.13 420.02 L2577.59 420.02 L2594.17 420.02 L2610.63 420.02 L2627.09 420.02 L2643.55 420.02 L2660.01 420.02 L2676.47 420.02 L2692.92 420.02 L2709.38 420.02 L2725.84 420.02 L2742.30 420.02 L2758.76 420.02 L2775.22 420.02 L2791.68 420.02 L2808.14 420.02 L2824.59 420.02 L2841.05 420.02 L2857.51 420.02 L2873.97 420.02 L2890.43 420.02 L2906.89 420.02 L2923.35 420.02 L2939.80 420.02 L2956.26 420.02 L2972.85 420.02 L2989.30 420.02 L3005.76 420.02 L3022.22 420.02 L3038.68 420.02 L3055.14 420.02 L3071.60 420.02 L3088.06 420.02 L3104.52 420.02 L3120.97 420.02 L3137.43 420.02 L3153.89 420.02 L3170.35 420.02 L3186.81 420.02 L3203.27 420.02 L3219.73 420.02 L3236.19 420.02 L3252.64 420.02 L3269.10 420.02 L3285.56 420.02 L3302.02 420.02 L3318.48 420.02 L3334.94 420.02 L3351.52 420.02 L3367.98 420.02 L3384.44 420.02 L3400.90 420.02 L3417.36 420.02 L3433.82 420.02 L3450.27 420.02 L3466.73 420.02 L3483.19 420.02 L3499.65 420.02 L3516.11 420.02 L3532.57 420.02 L3549.03 420.02 L3565.49 420.02 L3565.49 1953.70 L618.38 1953.70 L618.38 420.02 Z" stroke-linejoin="round"/>
	</defs>
	<defs>
		<clipPath id="clipPath_LqOfZDJL">
			<use xlink:href="#path_qozyUxOa"/>
		</clipPath>
	</defs>
	<use xlink:href="#path_qozyUxOa" style="stroke:none;fill:#486C8C"/>
	<use xlink:href="#path_qozyUxOa" style="fill:none;stroke:#1A476F;stroke-width:17.28" clip-path="url(#clipPath_LqOfZDJL)"/>
	<defs>
		<path id="path_KKsYDILH" d="M618.38 420.27 L618.38 420.27 L634.84 420.39 L651.30 420.52 L667.75 420.76 L684.21 420.89 L700.80 421.13 L717.25 421.38 L733.71 421.63 L750.17 421.75 L766.63 422.12 L783.09 422.50 L799.55 422.74 L816.01 423.11 L832.47 423.61 L848.92 424.10 L865.38 424.60 L881.84 424.97 L898.30 425.47 L914.76 426.08 L931.22 426.70 L947.68 427.32 L964.14 428.06 L980.60 428.93 L997.05 429.55 L1013.51 430.29 L1029.97 431.53 L1046.43 432.15 L1062.89 433.01 L1079.47 433.76 L1095.93 434.25 L1112.39 435.12 L1128.85 436.23 L1145.31 437.35 L1161.77 437.96 L1178.22 439.08 L1194.68 440.07 L1211.14 441.06 L1227.60 442.17 L1244.06 443.16 L1260.52 444.28 L1276.98 445.39 L1293.43 446.50 L1309.89 447.62 L1326.35 448.98 L1342.81 450.34 L1359.27 451.33 L1375.73 452.57 L1392.19 453.81 L1408.65 455.04 L1425.11 456.28 L1441.56 457.64 L1458.15 458.76 L1474.61 460.12 L1491.06 461.23 L1507.52 462.22 L1523.98 463.83 L1540.44 465.19 L1556.90 466.68 L1573.36 468.04 L1589.82 469.52 L1606.28 471.01 L1622.73 472.37 L1639.19 473.61 L1655.65 474.84 L1672.11 476.45 L1688.57 477.81 L1705.03 479.17 L1721.49 480.54 L1737.94 482.02 L1754.40 483.51 L1770.86 484.99 L1787.32 486.35 L1803.78 487.84 L1820.24 489.57 L1836.82 491.06 L1853.28 492.79 L1869.74 494.64 L1886.20 496.13 L1902.66 497.74 L1919.12 499.22 L1935.57 500.83 L1952.03 502.44 L1968.49 504.30 L1984.95 506.03 L2001.41 507.89 L2017.87 509.37 L2034.33 510.98 L2050.78 512.71 L2067.24 514.44 L2083.70 516.18 L2100.16 517.79 L2116.62 519.15 L2133.08 520.76 L2149.54 522.37 L2166.00 523.97 L2182.45 525.95 L2198.91 528.06 L2215.50 529.91 L2231.95 531.40 L2248.41 533.38 L2264.87 534.99 L2281.33 536.60 L2297.79 538.33 L2314.25 540.06 L2330.71 541.67 L2347.17 543.40 L2363.63 545.01 L2380.08 546.87 L2396.54 548.23 L2413.00 549.96 L2429.46 551.32 L2445.92 553.18 L2462.38 554.54 L2478.84 556.27 L2495.30 557.88 L2511.75 559.49 L2528.21 561.22 L2544.67 562.59 L2561.13 564.69 L2577.59 566.42 L2594.17 568.03 L2610.63 569.64 L2627.09 571.25 L2643.55 573.10 L2660.01 574.71 L2676.47 576.57 L2692.92 578.55 L2709.38 580.41 L2725.84 582.01 L2742.30 583.87 L2758.76 585.60 L2775.22 587.34 L2791.68 589.07 L2808.14 591.05 L2824.59 593.15 L2841.05 595.13 L2857.51 596.74 L2873.97 598.47 L2890.43 599.96 L2906.89 601.82 L2923.35 603.67 L2939.80 605.28 L2956.26 607.26 L2972.85 608.75 L2989.30 610.48 L3005.76 612.09 L3022.22 613.70 L3038.68 615.30 L3055.14 616.79 L3071.60 618.77 L3088.06 620.50 L3104.52 622.36 L3120.97 624.09 L3137.43 625.82 L3153.89 627.56 L3170.35 629.54 L3186.81 631.39 L3203.27 633.00 L3219.73 634.73 L3236.19 635.72 L3252.64 637.58 L3269.10 639.44 L3285.56 641.05 L3302.02 642.90 L3318.48 644.76 L3334.94 646.49 L3351.52 647.85 L3367.98 649.96 L3384.44 651.56 L3400.90 653.42 L3417.36 655.28 L3433.82 657.13 L3450.27 658.87 L3466.73 660.60 L3483.19 662.33 L3499.65 663.94 L3516.11 665.92 L3532.57 667.28 L3549.03 669.14 L3565.49 670.87 L3565.49 1953.70 L618.38 1953.70 L618.38 420.27 Z" stroke-linejoin="round"/>
	</defs>
	<defs>
		<clipPath id="clipPath_nSBBMbJr">
			<use xlink:href="#path_KKsYDILH"/>
		</clipPath>
	</defs>
	<use xlink:href="#path_KKsYDILH" style="stroke:none;fill:#A65D62"/>
	<use xlink:href="#path_KKsYDILH" style="fill:none;stroke:#90353B;stroke-width:17.28" clip-path="url(#clipPath_nSBBMbJr)"/>
	<defs>
		<path id="path_fpQwKNgh" d="M618.38 459.87 L618.38 459.87 L634.84 465.69 L651.30 471.63 L667.75 477.81 L684.21 484.13 L700.80 490.81 L717.25 497.00 L733.71 503.55 L750.17 510.11 L766.63 516.30 L783.09 522.12 L799.55 528.68 L816.01 535.24 L832.47 541.55 L848.92 547.73 L865.38 554.42 L881.84 559.86 L898.30 566.30 L914.76 572.36 L931.22 578.05 L947.68 584.49 L964.14 590.55 L980.60 596.74 L997.05 602.81 L1013.51 608.37 L1029.97 614.07 L1046.43 620.01 L1062.89 625.95 L1079.47 631.39 L1095.93 637.33 L1112.39 642.65 L1128.85 647.98 L1145.31 653.92 L1161.77 659.61 L1178.22 665.18 L1194.68 671.12 L1211.14 676.81 L1227.60 682.13 L1244.06 687.58 L1260.52 692.65 L1276.98 698.22 L1293.43 703.17 L1309.89 708.24 L1326.35 713.56 L1342.81 719.01 L1359.27 723.96 L1375.73 728.66 L1392.19 733.49 L1408.65 738.44 L1425.11 743.39 L1441.56 748.09 L1458.15 752.55 L1474.61 757.50 L1491.06 761.83 L1507.52 766.53 L1523.98 770.74 L1540.44 775.07 L1556.90 779.28 L1573.36 783.73 L1589.82 787.82 L1606.28 792.15 L1622.73 796.73 L1639.19 801.31 L1655.65 806.01 L1672.11 810.09 L1688.57 814.67 L1705.03 819.50 L1721.49 823.58 L1737.94 827.29 L1754.40 831.87 L1770.86 835.59 L1787.32 839.79 L1803.78 844.25 L1820.24 847.96 L1836.82 852.29 L1853.28 856.25 L1869.74 859.84 L1886.20 863.68 L1902.66 867.39 L1919.12 870.61 L1935.57 874.20 L1952.03 877.66 L1968.49 881.25 L1984.95 885.21 L2001.41 888.92 L2017.87 892.27 L2034.33 895.73 L2050.78 898.82 L2067.24 902.29 L2083.70 905.88 L2100.16 909.34 L2116.62 912.56 L2133.08 915.90 L2149.54 919.12 L2166.00 922.34 L2182.45 925.18 L2198.91 928.65 L2215.50 931.50 L2231.95 934.96 L2248.41 938.80 L2264.87 941.77 L2281.33 945.23 L2297.79 948.33 L2314.25 951.30 L2330.71 954.14 L2347.17 957.11 L2363.63 960.08 L2380.08 963.18 L2396.54 966.15 L2413.00 968.99 L2429.46 971.72 L2445.92 975.06 L2462.38 978.03 L2478.84 981.00 L2495.30 983.72 L2511.75 986.94 L2528.21 989.78 L2544.67 992.26 L2561.13 995.10 L2577.59 998.45 L2594.17 1001.54 L2610.63 1004.51 L2627.09 1007.23 L2643.55 1010.33 L2660.01 1013.17 L2676.47 1016.02 L2692.92 1018.62 L2709.38 1021.46 L2725.84 1024.31 L2742.30 1027.03 L2758.76 1029.88 L2775.22 1032.11 L2791.68 1034.71 L2808.14 1037.18 L2824.59 1039.90 L2841.05 1041.88 L2857.51 1044.61 L2873.97 1047.58 L2890.43 1049.68 L2906.89 1052.16 L2923.35 1054.63 L2939.80 1057.11 L2956.26 1059.58 L2972.85 1062.06 L2989.30 1064.65 L3005.76 1067.01 L3022.22 1068.86 L3038.68 1071.71 L3055.14 1074.31 L3071.60 1076.53 L3088.06 1079.26 L3104.52 1081.49 L3120.97 1083.84 L3137.43 1086.19 L3153.89 1088.42 L3170.35 1090.52 L3186.81 1092.87 L3203.27 1095.10 L3219.73 1096.83 L3236.19 1099.18 L3252.64 1101.66 L3269.10 1103.51 L3285.56 1105.74 L3302.02 1108.09 L3318.48 1110.20 L3334.94 1112.30 L3351.52 1114.65 L3367.98 1116.88 L3384.44 1118.98 L3400.90 1121.46 L3417.36 1123.44 L3433.82 1125.79 L3450.27 1127.89 L3466.73 1130.49 L3483.19 1132.47 L3499.65 1134.45 L3516.11 1136.31 L3532.57 1138.78 L3549.03 1140.89 L3565.49 1142.87 L3565.49 1953.70 L618.38 1953.70 L618.38 459.87 Z" stroke-linejoin="round"/>
	</defs>
	<defs>
		<clipPath id="clipPath_NjEEfZlL">
			<use xlink:href="#path_fpQwKNgh"/>
		</clipPath>
	</defs>
	<use xlink:href="#path_fpQwKNgh" style="stroke:none;fill:#779159"/>
	<use xlink:href="#path_fpQwKNgh" style="fill:none;stroke:#55752F;stroke-width:17.28" clip-path="url(#clipPath_NjEEfZlL)"/>
	<defs>
		<path id="path_SWgnliKM" d="M618.38 1953.70 L618.38 1953.70 L634.84 1953.70 L651.30 1953.70 L667.75 1953.70 L684.21 1953.70 L700.80 1953.70 L717.25 1953.70 L733.71 1953.70 L750.17 1953.70 L766.63 1953.70 L783.09 1953.70 L799.55 1953.70 L816.01 1953.70 L832.47 1953.70 L848.92 1953.70 L865.38 1953.70 L881.84 1953.70 L898.30 1953.70 L914.76 1953.70 L931.22 1953.70 L947.68 1953.70 L964.14 1953.70 L980.60 1953.70 L997.05 1953.70 L1013.51 1953.70 L1029.97 1953.70 L1046.43 1953.70 L1062.89 1953.70 L1079.47 1953.70 L1095.93 1953.70 L1112.39 1953.70 L1128.85 1953.70 L1145.31 1953.70 L1161.77 1953.70 L1178.22 1953.70 L1194.68 1953.70 L1211.14 1953.70 L1227.60 1953.70 L1244.06 1953.70 L1260.52 1953.70 L1276.98 1953.70 L1293.43 1953.70 L1309.89 1953.70 L1326.35 1953.70 L1342.81 1953.70 L1359.27 1953.70 L1375.73 1953.70 L1392.19 1953.70 L1408.65 1953.70 L1425.11 1953.70 L1441.56 1953.70 L1458.15 1953.70 L1474.61 1953.70 L1491.06 1953.70 L1507.52 1953.70 L1523.98 1953.70 L1540.44 1953.70 L1556.90 1953.70 L1573.36 1953.70 L1589.82 1953.70 L1606.28 1953.70 L1622.73 1953.70 L1639.19 1953.70 L1655.65 1953.70 L1672.11 1953.70 L1688.57 1953.70 L1705.03 1953.70 L1721.49 1953.70 L1737.94 1953.70 L1754.40 1953.70 L1770.86 1953.70 L1787.32 1953.70 L1803.78 1953.70 L1820.24 1953.70 L1836.82 1953.70 L1853.28 1953.70 L1869.74 1953.70 L1886.20 1953.70 L1902.66 1953.70 L1919.12 1953.70 L1935.57 1953.70 L1952.03 1953.70 L1968.49 1953.70 L1984.95 1953.70 L2001.41 1953.70 L2017.87 1953.70 L2034.33 1953.70 L2050.78 1953.70 L2067.24 1953.70 L2083.70 1953.70 L2100.16 1953.70 L2116.62 1953.70 L2133.08 1953.70 L2149.54 1953.70 L2166.00 1953.70 L2182.45 1953.70 L2198.91 1953.70 L2215.50 1953.70 L2231.95 1953.70 L2248.41 1953.70 L2264.87 1953.70 L2281.33 1953.70 L2297.79 1953.70 L2314.25 1953.70 L2330.71 1953.70 L2347.17 1953.70 L2363.63 1953.70 L2380.08 1953.70 L2396.54 1953.70 L2413.00 1953.70 L2429.46 1953.70 L2445.92 1953.70 L2462.38 1953.70 L2478.84 1953.70 L2495.30 1953.70 L2511.75 1953.70 L2528.21 1953.70 L2544.67 1953.70 L2561.13 1953.70 L2577.59 1953.70 L2594.17 1953.70 L2610.63 1953.70 L2627.09 1953.70 L2643.55 1953.70 L2660.01 1953.70 L2676.47 1953.70 L2692.92 1953.70 L2709.38 1953.70 L2725.84 1953.70 L2742.30 1953.70 L2758.76 1953.70 L2775.22 1953.70 L2791.68 1953.70 L2808.14 1953.70 L2824.59 1953.70 L2841.05 1953.70 L2857.51 1953.70 L2873.97 1953.70 L2890.43 1953.70 L2906.89 1953.70 L2923.35 1953.70 L2939.80 1953.70 L2956.26 1953.70 L2972.85 1953.70 L2989.30 1953.70 L3005.76 1953.70 L3022.22 1953.70 L3038.68 1953.70 L3055.14 1953.70 L3071.60 1953.70 L3088.06 1953.70 L3104.52 1953.70 L3120.97 1953.70 L3137.43 1953.70 L3153.89 1953.70 L3170.35 1953.70 L3186.81 1953.70 L3203.27 1953.70 L3219.73 1953.70 L3236.19 1953.70 L3252.64 1953.70 L3269.10 1953.70 L3285.56 1953.70 L3302.02 1953.70 L3318.48 1953.70 L3334.94 1953.70 L3351.52 1953.70 L3367.98 1953.70 L3384.44 1953.70 L3400.90 1953.70 L3417.36 1953.70 L3433.82 1953.70 L3450.27 1953.70 L3466.73 1953.70 L3483.19 1953.70 L3499.65 1953.70 L3516.11 1953.70 L3532.57 1953.70 L3549.03 1953.70 L3565.49 1953.70 L3565.49 1953.70 L618.38 1953.70 L618.38 1953.70 Z" stroke-linejoin="round"/>
	</defs>
	<defs>
		<clipPath id="clipPath_VlgEetnI">
			<use xlink:href="#path_SWgnliKM"/>
		</clipPath>
	</defs>
	<use xlink:href="#path_SWgnliKM" style="stroke:none;fill:#E99833"/>
	<use xlink:href="#path_SWgnliKM" style="fill:none;stroke:#E37E00;stroke-width:17.28" clip-path="url(#clipPath_VlgEetnI)"/>
	<defs>
		<path id="path_gYyulwNf" d="M618.38 1953.70 L618.38 1953.70 L634.84 1953.70 L651.30 1953.70 L667.75 1953.70 L684.21 1953.70 L700.80 1953.70 L717.25 1953.70 L733.71 1953.70 L750.17 1953.70 L766.63 1953.70 L783.09 1953.70 L799.55 1953.70 L816.01 1953.70 L832.47 1953.70 L848.92 1953.70 L865.38 1953.70 L881.84 1953.70 L898.30 1953.70 L914.76 1953.70 L931.22 1953.70 L947.68 1953.70 L964.14 1953.70 L980.60 1953.70 L997.05 1953.70 L1013.51 1953.70 L1029.97 1953.70 L1046.43 1953.70 L1062.89 1953.70 L1079.47 1953.70 L1095.93 1953.70 L1112.39 1953.70 L1128.85 1953.70 L1145.31 1953.70 L1161.77 1953.70 L1178.22 1953.70 L1194.68 1953.70 L1211.14 1953.70 L1227.60 1953.70 L1244.06 1953.70 L1260.52 1953.70 L1276.98 1953.70 L1293.43 1953.70 L1309.89 1953.70 L1326.35 1953.70 L1342.81 1953.70 L1359.27 1953.70 L1375.73 1953.70 L1392.19 1953.70 L1408.65 1953.70 L1425.11 1953.70 L1441.56 1953.70 L1458.15 1953.70 L1474.61 1953.70 L1491.06 1953.70 L1507.52 1953.70 L1523.98 1953.70 L1540.44 1953.70 L1556.90 1953.70 L1573.36 1953.70 L1589.82 1953.70 L1606.28 1953.70 L1622.73 1953.70 L1639.19 1953.70 L1655.65 1953.70 L1672.11 1953.70 L1688.57 1953.70 L1705.03 1953.70 L1721.49 1953.70 L1737.94 1953.70 L1754.40 1953.70 L1770.86 1953.70 L1787.32 1953.70 L1803.78 1953.70 L1820.24 1953.70 L1836.82 1953.70 L1853.28 1953.70 L1869.74 1953.70 L1886.20 1953.70 L1902.66 1953.70 L1919.12 1953.70 L1935.57 1953.70 L1952.03 1953.70 L1968.49 1953.70 L1984.95 1953.70 L2001.41 1953.70 L2017.87 1953.70 L2034.33 1953.70 L2050.78 1953.70 L2067.24 1953.70 L2083.70 1953.70 L2100.16 1953.70 L2116.62 1953.70 L2133.08 1953.70 L2149.54 1953.70 L2166.00 1953.70 L2182.45 1953.70 L2198.91 1953.70 L2215.50 1953.70 L2231.95 1953.70 L2248.41 1953.70 L2264.87 1953.70 L2281.33 1953.70 L2297.79 1953.70 L2314.25 1953.70 L2330.71 1953.70 L2347.17 1953.70 L2363.63 1953.70 L2380.08 1953.70 L2396.54 1953.70 L2413.00 1953.70 L2429.46 1953.70 L2445.92 1953.70 L2462.38 1953.70 L2478.84 1953.70 L2495.30 1953.70 L2511.75 1953.70 L2528.21 1953.70 L2544.67 1953.70 L2561.13 1953.70 L2577.59 1953.70 L2594.17 1953.70 L2610.63 1953.70 L2627.09 1953.70 L2643.55 1953.70 L2660.01 1953.70 L2676.47 1953.70 L2692.92 1953.70 L2709.38 1953.70 L2725.84 1953.70 L2742.30 1953.70 L2758.76 1953.70 L2775.22 1953.70 L2791.68 1953.70 L2808.14 1953.70 L2824.59 1953.70 L2841.05 1953.70 L2857.51 1953.70 L2873.97 1953.70 L2890.43 1953.70 L2906.89 1953.70 L2923.35 1953.70 L2939.80 1953.70 L2956.26 1953.70 L2972.85 1953.70 L2989.30 1953.70 L3005.76 1953.70 L3022.22 1953.70 L3038.68 1953.70 L3055.14 1953.70 L3071.60 1953.70 L3088.06 1953.70 L3104.52 1953.70 L3120.97 1953.70 L3137.43 1953.70 L3153.89 1953.70 L3170.35 1953.70 L3186.81 1953.70 L3203.27 1953.70 L3219.73 1953.70 L3236.19 1953.70 L3252.64 1953.70 L3269.10 1953.70 L3285.56 1953.70 L3302.02 1953.70 L3318.48 1953.70 L3334.94 1953.70 L3351.52 1953.70 L3367.98 1953.70 L3384.44 1953.70 L3400.90 1953.70 L3417.36 1953.70 L3433.82 1953.70 L3450.27 1953.70 L3466.73 1953.70 L3483.19 1953.70 L3499.65 1953.70 L3516.11 1953.70 L3532.57 1953.70 L3549.03 1953.70 L3565.49 1953.70 L3565.49 1953.70 L618.38 1953.70 L618.38 1953.70 Z" stroke-linejoin="round"/>
	</defs>
	<defs>
		<clipPath id="clipPath_JhyCTsGS">
			<use xlink:href="#path_gYyulwNf"/>
		</clipPath>
	</defs>
	<use xlink:href="#path_gYyulwNf" style="stroke:none;fill:#8BA59D"/>
	<use xlink:href="#path_gYyulwNf" style="fill:none;stroke:#6E8E84;stroke-width:17.28" clip-path="url(#clipPath_JhyCTsGS)"/>
	<line x1="465.80" y1="1953.70" x2="465.80" y2="419.90" style="stroke:#000000;stroke-width:5.76"/>
	<line x1="465.80" y1="1953.70" x2="425.82" y2="1953.70" style="stroke:#000000;stroke-width:5.76"/>
	<text x="405.78" y="1988.73" style="font-family:'Helvetica';font-size:99.99px;fill:#000000" text-anchor="end">0.0</text>
	<line x1="465.80" y1="1800.37" x2="425.82" y2="1800.37" style="stroke:#000000;stroke-width:5.76"/>
	<text x="405.78" y="1835.40" style="font-family:'Helvetica';font-size:99.99px;fill:#000000" text-anchor="end">0.1</text>
	<line x1="465.80" y1="1646.92" x2="425.82" y2="1646.92" style="stroke:#000000;stroke-width:5.76"/>
	<text x="405.78" y="1681.94" style="font-family:'Helvetica';font-size:99.99px;fill:#000000" text-anchor="end">0.2</text>
	<line x1="465.80" y1="1493.59" x2="425.82" y2="1493.59" style="stroke:#000000;stroke-width:5.76"/>
	<text x="405.78" y="1528.61" style="font-family:'Helvetica';font-size:99.99px;fill:#000000" text-anchor="end">0.3</text>
	<line x1="465.80" y1="1340.13" x2="425.82" y2="1340.13" style="stroke:#000000;stroke-width:5.76"/>
	<text x="405.78" y="1375.16" style="font-family:'Helvetica';font-size:99.99px;fill:#000000" text-anchor="end">0.4</text>
	<line x1="465.80" y1="1186.80" x2="425.82" y2="1186.80" style="stroke:#000000;stroke-width:5.76"/>
	<text x="405.78" y="1221.83" style="font-family:'Helvetica';font-size:99.99px;fill:#000000" text-anchor="end">0.5</text>
	<line x1="465.80" y1="1033.47" x2="425.82" y2="1033.47" style="stroke:#000000;stroke-width:5.76"/>
	<text x="405.78" y="1068.50" style="font-family:'Helvetica';font-size:99.99px;fill:#000000" text-anchor="end">0.6</text>
	<line x1="465.80" y1="880.01" x2="425.82" y2="880.01" style="stroke:#000000;stroke-width:5.76"/>
	<text x="405.78" y="915.04" style="font-family:'Helvetica';font-size:99.99px;fill:#000000" text-anchor="end">0.7</text>
	<line x1="465.80" y1="726.68" x2="425.82" y2="726.68" style="stroke:#000000;stroke-width:5.76"/>
	<text x="405.78" y="761.71" style="font-family:'Helvetica';font-size:99.99px;fill:#000000" text-anchor="end">0.8</text>
	<line x1="465.80" y1="573.35" x2="425.82" y2="573.35" style="stroke:#000000;stroke-width:5.76"/>
	<text x="405.78" y="608.38" style="font-family:'Helvetica';font-size:99.99px;fill:#000000" text-anchor="end">0.9</text>
	<line x1="465.80" y1="419.90" x2="425.82" y2="419.90" style="stroke:#000000;stroke-width:5.76"/>
	<text x="405.78" y="454.93" style="font-family:'Helvetica';font-size:99.99px;fill:#000000" text-anchor="end">1.0</text>
	<text x="190.71" y="1186.80" style="font-family:'Helvetica';font-size:99.99px;fill:#000000" transform="rotate(-90 190.71,1186.80)" text-anchor="middle">Transition Probability</text>
	<line x1="465.80" y1="1953.70" x2="3859.02" y2="1953.70" style="stroke:#000000;stroke-width:5.76"/>
	<line x1="465.80" y1="1953.70" x2="465.80" y2="1993.67" style="stroke:#000000;stroke-width:5.76"/>
	<text x="465.80" y="2083.66" style="font-family:'Helvetica';font-size:99.99px;fill:#000000" text-anchor="middle">0</text>
	<line x1="1314.10" y1="1953.70" x2="1314.10" y2="1993.67" style="stroke:#000000;stroke-width:5.76"/>
	<text x="1314.10" y="2083.66" style="font-family:'Helvetica';font-size:99.99px;fill:#000000" text-anchor="middle">500</text>
	<line x1="2162.41" y1="1953.70" x2="2162.41" y2="1993.67" style="stroke:#000000;stroke-width:5.76"/>
	<text x="2162.41" y="2083.66" style="font-family:'Helvetica';font-size:99.99px;fill:#000000" text-anchor="middle">1000</text>
	<line x1="3010.71" y1="1953.70" x2="3010.71" y2="1993.67" style="stroke:#000000;stroke-width:5.76"/>
	<text x="3010.71" y="2083.66" style="font-family:'Helvetica';font-size:99.99px;fill:#000000" text-anchor="middle">1500</text>
	<line x1="3859.02" y1="1953.70" x2="3859.02" y2="1993.67" style="stroke:#000000;stroke-width:5.76"/>
	<text x="3859.02" y="2083.66" style="font-family:'Helvetica';font-size:99.99px;fill:#000000" text-anchor="middle">2000</text>
	<text x="2162.41" y="2193.67" style="font-family:'Helvetica';font-size:99.99px;fill:#000000" text-anchor="middle">Follow-up time</text>
	<rect x="614.42" y="2278.31" width="3095.98" height="466.30" style="fill:#FFFFFF"/>
	<rect x="617.30" y="2281.19" width="3090.22" height="460.54" style="fill:none;stroke:#000000;stroke-width:5.76"/>
	<rect x="657.61" y="2321.50" width="374.47" height="99.99" style="fill:#8BA59D"/>
	<rect x="661.93" y="2325.82" width="365.83" height="91.35" style="fill:none;stroke:#6E8E84;stroke-width:8.64"/>
	<rect x="2232.45" y="2321.50" width="374.34" height="99.99" style="fill:#E99833"/>
	<rect x="2236.77" y="2325.82" width="365.70" height="91.35" style="fill:none;stroke:#E37E00;stroke-width:8.64"/>
	<rect x="657.61" y="2461.46" width="374.47" height="99.99" style="fill:#779159"/>
	<rect x="661.93" y="2465.78" width="365.83" height="91.35" style="fill:none;stroke:#55752F;stroke-width:8.64"/>
	<rect x="2232.45" y="2461.46" width="374.34" height="99.99" style="fill:#A65D62"/>
	<rect x="2236.77" y="2465.78" width="365.70" height="91.35" style="fill:none;stroke:#90353B;stroke-width:8.64"/>
	<rect x="657.61" y="2601.43" width="374.47" height="99.99" style="fill:#486C8C"/>
	<rect x="661.93" y="2605.75" width="365.83" height="91.35" style="fill:none;stroke:#1A476F;stroke-width:8.64"/>
	<text x="1092.09" y="2406.52" style="font-family:'Helvetica';font-size:99.99px;fill:#000000">P(Y(t) = 1 | Y(90) = 3)</text>
	<text x="2666.81" y="2406.52" style="font-family:'Helvetica';font-size:99.99px;fill:#000000">P(Y(t) = 2 | Y(90) = 3)</text>
	<text x="1092.09" y="2546.49" style="font-family:'Helvetica';font-size:99.99px;fill:#000000">P(Y(t) = 3 | Y(90) = 3)</text>
	<text x="2666.81" y="2546.49" style="font-family:'Helvetica';font-size:99.99px;fill:#000000">P(Y(t) = 4 | Y(90) = 3)</text>
	<text x="1092.09" y="2686.46" style="font-family:'Helvetica';font-size:99.99px;fill:#000000">P(Y(t) = 5 | Y(90) = 3)</text>
	<text x="2162.41" y="369.63" style="font-family:'Helvetica';font-size:110.01px;fill:#000000" text-anchor="middle">From 2nd Readmission(3), Outpatient (3y)</text>
	<text x="2162.41" y="215.98" style="font-family:'Helvetica';font-size:139.96px;fill:#1E2D53" text-anchor="middle">P(Y(t) = b | Y(90) = 3, at1)</text>
</svg>
