<?xml version="1.0" encoding="UTF-8" standalone="no"?>
<!-- This is a Stata 16.1 generated SVG file (http://www.stata.com) -->

<svg version="1.1" width="5.50in" height="4.00in" viewBox="0 0 3960 2880" xmlns="http://www.w3.org/2000/svg" xmlns:xlink="http://www.w3.org/1999/xlink">
	<desc>Stata Graph - gh_1_1</desc>
	<rect x="0" y="0" width="3960" height="2880" style="fill:#EAF2F3;stroke:none"/>
	<rect x="0.00" y="0.00" width="3959.88" height="2880.00" style="fill:#FFFFFF"/>
	<rect x="2.88" y="2.88" width="3954.12" height="2874.24" style="fill:none;stroke:#EAF2F3;stroke-width:5.76"/>
	<rect x="465.80" y="419.90" width="3393.22" height="1533.81" style="fill:#FFFFFF"/>
	<rect x="468.67" y="422.78" width="3387.47" height="1528.05" style="fill:none;stroke:#FFFFFF;stroke-width:5.76"/>
	<line x1="465.80" y1="1800.37" x2="3859.02" y2="1800.37" style="stroke:#EAF2F3;stroke-width:8.64"/>
	<line x1="465.80" y1="1646.92" x2="3859.02" y2="1646.92" style="stroke:#EAF2F3;stroke-width:8.64"/>
	<line x1="465.80" y1="1493.59" x2="3859.02" y2="1493.59" style="stroke:#EAF2F3;stroke-width:8.64"/>
	<line x1="465.80" y1="1340.13" x2="3859.02" y2="1340.13" style="stroke:#EAF2F3;stroke-width:8.64"/>
	<line x1="465.80" y1="1186.80" x2="3859.02" y2="1186.80" style="stroke:#EAF2F3;stroke-width:8.64"/>
	<line x1="465.80" y1="1033.47" x2="3859.02" y2="1033.47" style="stroke:#EAF2F3;stroke-width:8.64"/>
	<line x1="465.80" y1="880.01" x2="3859.02" y2="880.01" style="stroke:#EAF2F3;stroke-width:8.64"/>
	<line x1="465.80" y1="726.68" x2="3859.02" y2="726.68" style="stroke:#EAF2F3;stroke-width:8.64"/>
	<line x1="465.80" y1="573.35" x2="3859.02" y2="573.35" style="stroke:#EAF2F3;stroke-width:8.64"/>
	<line x1="465.80" y1="419.90" x2="3859.02" y2="419.90" style="stroke:#EAF2F3;stroke-width:8.64"/>
	<defs>
		<path id="path_SQEedMPn" d="M618.38 420.02 L618.38 420.02 L634.84 420.02 L651.30 420.02 L667.75 420.02 L684.21 420.02 L700.67 420.02 L717.13 420.02 L733.59 420.02 L750.05 420.02 L766.51 420.02 L782.97 420.02 L799.42 420.02 L815.88 420.02 L832.34 420.02 L848.80 420.02 L865.26 420.02 L881.72 420.02 L898.18 420.02 L914.64 420.02 L931.10 420.02 L947.55 420.02 L964.01 420.02 L980.47 420.02 L996.93 420.02 L1013.39 420.02 L1029.72 420.02 L1046.18 420.02 L1062.64 420.02 L1079.10 420.02 L1095.56 420.02 L1112.02 420.02 L1128.48 420.02 L1144.93 420.02 L1161.39 420.02 L1177.85 420.02 L1194.31 420.02 L1210.77 420.02 L1227.23 420.02 L1243.69 420.02 L1260.15 420.02 L1276.61 420.02 L1293.06 420.02 L1309.52 420.02 L1325.98 420.02 L1342.44 420.02 L1358.90 420.02 L1375.36 420.02 L1391.82 420.02 L1408.28 420.02 L1424.73 420.02 L1441.19 420.02 L1457.65 420.02 L1474.11 420.02 L1490.57 420.02 L1507.03 420.02 L1523.36 420.02 L1539.82 420.02 L1556.28 420.02 L1572.74 420.02 L1589.20 420.02 L1605.66 420.02 L1622.12 420.02 L1638.57 420.02 L1655.03 420.02 L1671.49 420.02 L1687.95 420.02 L1704.41 420.02 L1720.87 420.02 L1737.33 420.02 L1753.79 420.02 L1770.24 420.02 L1786.70 420.02 L1803.16 420.02 L1819.62 420.02 L1836.08 420.02 L1852.54 420.02 L1869.00 420.02 L1885.45 420.02 L1901.91 420.02 L1918.37 420.02 L1934.83 420.02 L1951.29 420.02 L1967.75 420.02 L1984.21 420.02 L2000.67 420.02 L2017.00 420.02 L2033.46 420.02 L2049.92 420.02 L2066.38 420.02 L2082.84 420.02 L2099.30 420.02 L2115.75 420.02 L2132.21 420.02 L2148.67 420.02 L2165.13 420.02 L2181.59 420.02 L2198.05 420.02 L2214.51 420.02 L2230.97 420.02 L2247.42 420.02 L2263.88 420.02 L2280.34 420.02 L2296.80 420.02 L2313.26 420.02 L2329.72 420.02 L2346.18 420.02 L2362.64 420.02 L2379.09 420.02 L2395.55 420.02 L2412.01 420.02 L2428.47 420.02 L2444.93 420.02 L2461.39 420.02 L2477.85 420.02 L2494.30 420.02 L2510.76 420.02 L2527.10 420.02 L2543.56 420.02 L2560.02 420.02 L2576.47 420.02 L2592.93 420.02 L2609.39 420.02 L2625.85 420.02 L2642.31 420.02 L2658.77 420.02 L2675.23 420.02 L2691.69 420.02 L2708.14 420.02 L2724.60 420.02 L2741.06 420.02 L2757.52 420.02 L2773.98 420.02 L2790.44 420.02 L2806.90 420.02 L2823.36 420.02 L2839.82 420.02 L2856.27 420.02 L2872.73 420.02 L2889.19 420.02 L2905.65 420.02 L2922.11 420.02 L2938.57 420.02 L2955.03 420.02 L2971.49 420.02 L2987.94 420.02 L3004.40 420.02 L3020.74 420.02 L3037.20 420.02 L3053.66 420.02 L3070.11 420.02 L3086.57 420.02 L3103.03 420.02 L3119.49 420.02 L3135.95 420.02 L3152.41 420.02 L3168.87 420.02 L3185.32 420.02 L3201.78 420.02 L3218.24 420.02 L3234.70 420.02 L3251.16 420.02 L3267.62 420.02 L3284.08 420.02 L3300.54 420.02 L3316.99 420.02 L3333.45 420.02 L3349.91 420.02 L3366.37 420.02 L3382.83 420.02 L3399.29 420.02 L3415.75 420.02 L3432.21 420.02 L3448.66 420.02 L3465.12 420.02 L3481.58 420.02 L3498.04 420.02 L3514.38 420.02 L3530.84 420.02 L3547.29 420.02 L3563.75 420.02 L3563.75 1953.70 L618.38 1953.70 L618.38 420.02 Z" stroke-linejoin="round"/>
	</defs>
	<defs>
		<clipPath id="clipPath_tsbNxSSF">
			<use xlink:href="#path_SQEedMPn"/>
		</clipPath>
	</defs>
	<use xlink:href="#path_SQEedMPn" style="stroke:none;fill:#486C8C"/>
	<use xlink:href="#path_SQEedMPn" style="fill:none;stroke:#1A476F;stroke-width:17.28" clip-path="url(#clipPath_tsbNxSSF)"/>
	<defs>
		<path id="path_GJAWsqlT" d="M618.38 420.02 L618.38 420.02 L634.84 420.02 L651.30 420.02 L667.75 420.02 L684.21 420.02 L700.67 420.02 L717.13 420.02 L733.59 420.02 L750.05 420.02 L766.51 420.02 L782.97 420.02 L799.42 420.02 L815.88 420.02 L832.34 420.02 L848.80 420.02 L865.26 420.02 L881.72 420.02 L898.18 420.02 L914.64 420.02 L931.10 420.02 L947.55 420.02 L964.01 420.02 L980.47 420.02 L996.93 420.02 L1013.39 420.02 L1029.72 420.02 L1046.18 420.02 L1062.64 420.02 L1079.10 420.02 L1095.56 420.02 L1112.02 420.02 L1128.48 420.02 L1144.93 420.02 L1161.39 420.02 L1177.85 420.02 L1194.31 420.02 L1210.77 420.02 L1227.23 420.02 L1243.69 420.02 L1260.15 420.02 L1276.61 420.02 L1293.06 420.02 L1309.52 420.02 L1325.98 420.02 L1342.44 420.02 L1358.90 420.02 L1375.36 420.02 L1391.82 420.02 L1408.28 420.02 L1424.73 420.02 L1441.19 420.14 L1457.65 420.14 L1474.11 420.14 L1490.57 420.14 L1507.03 420.14 L1523.36 420.14 L1539.82 420.14 L1556.28 420.14 L1572.74 420.14 L1589.20 420.14 L1605.66 420.14 L1622.12 420.14 L1638.57 420.14 L1655.03 420.14 L1671.49 420.14 L1687.95 420.27 L1704.41 420.27 L1720.87 420.27 L1737.33 420.27 L1753.79 420.27 L1770.24 420.27 L1786.70 420.27 L1803.16 420.27 L1819.62 420.27 L1836.08 420.27 L1852.54 420.27 L1869.00 420.27 L1885.45 420.27 L1901.91 420.39 L1918.37 420.39 L1934.83 420.39 L1951.29 420.39 L1967.75 420.39 L1984.21 420.39 L2000.67 420.39 L2017.00 420.39 L2033.46 420.39 L2049.92 420.52 L2066.38 420.52 L2082.84 420.52 L2099.30 420.52 L2115.75 420.64 L2132.21 420.64 L2148.67 420.64 L2165.13 420.64 L2181.59 420.64 L2198.05 420.64 L2214.51 420.64 L2230.97 420.76 L2247.42 420.76 L2263.88 420.76 L2280.34 420.76 L2296.80 420.76 L2313.26 420.89 L2329.72 420.89 L2346.18 420.89 L2362.64 421.01 L2379.09 421.01 L2395.55 421.01 L2412.01 421.01 L2428.47 421.13 L2444.93 421.13 L2461.39 421.13 L2477.85 421.13 L2494.30 421.26 L2510.76 421.26 L2527.10 421.38 L2543.56 421.38 L2560.02 421.38 L2576.47 421.38 L2592.93 421.38 L2609.39 421.51 L2625.85 421.51 L2642.31 421.51 L2658.77 421.63 L2675.23 421.63 L2691.69 421.75 L2708.14 421.75 L2724.60 421.75 L2741.06 421.88 L2757.52 421.88 L2773.98 422.00 L2790.44 422.12 L2806.90 422.12 L2823.36 422.25 L2839.82 422.37 L2856.27 422.37 L2872.73 422.37 L2889.19 422.50 L2905.65 422.50 L2922.11 422.50 L2938.57 422.62 L2955.03 422.62 L2971.49 422.74 L2987.94 422.74 L3004.40 422.87 L3020.74 422.99 L3037.20 423.11 L3053.66 423.11 L3070.11 423.24 L3086.57 423.24 L3103.03 423.36 L3119.49 423.36 L3135.95 423.49 L3152.41 423.61 L3168.87 423.73 L3185.32 423.73 L3201.78 423.73 L3218.24 423.86 L3234.70 423.86 L3251.16 423.86 L3267.62 423.98 L3284.08 424.10 L3300.54 424.10 L3316.99 424.23 L3333.45 424.35 L3349.91 424.48 L3366.37 424.48 L3382.83 424.60 L3399.29 424.60 L3415.75 424.60 L3432.21 424.72 L3448.66 424.85 L3465.12 424.85 L3481.58 424.97 L3498.04 425.09 L3514.38 425.22 L3530.84 425.34 L3547.29 425.47 L3563.75 425.71 L3563.75 1953.70 L618.38 1953.70 L618.38 420.02 Z" stroke-linejoin="round"/>
	</defs>
	<defs>
		<clipPath id="clipPath_xaWsiFUx">
			<use xlink:href="#path_GJAWsqlT"/>
		</clipPath>
	</defs>
	<use xlink:href="#path_GJAWsqlT" style="stroke:none;fill:#A65D62"/>
	<use xlink:href="#path_GJAWsqlT" style="fill:none;stroke:#90353B;stroke-width:17.28" clip-path="url(#clipPath_xaWsiFUx)"/>
	<defs>
		<path id="path_ZiPEbbqT" d="M618.38 420.02 L618.38 420.02 L634.84 420.02 L651.30 420.02 L667.75 420.02 L684.21 420.02 L700.67 420.02 L717.13 420.02 L733.59 420.02 L750.05 420.02 L766.51 420.02 L782.97 420.02 L799.42 420.02 L815.88 420.02 L832.34 420.02 L848.80 420.02 L865.26 420.02 L881.72 420.02 L898.18 420.02 L914.64 420.02 L931.10 420.02 L947.55 420.02 L964.01 420.02 L980.47 420.14 L996.93 420.14 L1013.39 420.14 L1029.72 420.14 L1046.18 420.14 L1062.64 420.14 L1079.10 420.14 L1095.56 420.14 L1112.02 420.27 L1128.48 420.27 L1144.93 420.39 L1161.39 420.39 L1177.85 420.39 L1194.31 420.39 L1210.77 420.52 L1227.23 420.52 L1243.69 420.52 L1260.15 420.64 L1276.61 420.64 L1293.06 420.64 L1309.52 420.76 L1325.98 420.76 L1342.44 420.76 L1358.90 420.89 L1375.36 420.89 L1391.82 421.01 L1408.28 421.01 L1424.73 421.01 L1441.19 421.13 L1457.65 421.13 L1474.11 421.26 L1490.57 421.26 L1507.03 421.38 L1523.36 421.38 L1539.82 421.51 L1556.28 421.63 L1572.74 421.63 L1589.20 421.63 L1605.66 421.75 L1622.12 421.88 L1638.57 421.88 L1655.03 422.00 L1671.49 422.00 L1687.95 422.12 L1704.41 422.25 L1720.87 422.25 L1737.33 422.37 L1753.79 422.50 L1770.24 422.62 L1786.70 422.74 L1803.16 422.87 L1819.62 422.99 L1836.08 423.11 L1852.54 423.24 L1869.00 423.36 L1885.45 423.49 L1901.91 423.61 L1918.37 423.61 L1934.83 423.73 L1951.29 423.86 L1967.75 423.98 L1984.21 424.23 L2000.67 424.35 L2017.00 424.48 L2033.46 424.60 L2049.92 424.72 L2066.38 424.85 L2082.84 424.97 L2099.30 425.09 L2115.75 425.22 L2132.21 425.47 L2148.67 425.71 L2165.13 425.84 L2181.59 425.96 L2198.05 426.08 L2214.51 426.33 L2230.97 426.46 L2247.42 426.58 L2263.88 426.70 L2280.34 426.83 L2296.80 427.07 L2313.26 427.32 L2329.72 427.45 L2346.18 427.69 L2362.64 427.94 L2379.09 428.06 L2395.55 428.19 L2412.01 428.44 L2428.47 428.56 L2444.93 428.81 L2461.39 428.93 L2477.85 429.05 L2494.30 429.30 L2510.76 429.55 L2527.10 429.80 L2543.56 430.04 L2560.02 430.29 L2576.47 430.42 L2592.93 430.66 L2609.39 430.91 L2625.85 431.16 L2642.31 431.41 L2658.77 431.53 L2675.23 431.78 L2691.69 431.90 L2708.14 432.15 L2724.60 432.52 L2741.06 432.64 L2757.52 432.89 L2773.98 433.14 L2790.44 433.39 L2806.90 433.63 L2823.36 433.88 L2839.82 434.13 L2856.27 434.38 L2872.73 434.62 L2889.19 434.75 L2905.65 434.99 L2922.11 435.24 L2938.57 435.37 L2955.03 435.61 L2971.49 435.98 L2987.94 436.23 L3004.40 436.48 L3020.74 436.73 L3037.20 436.97 L3053.66 437.22 L3070.11 437.47 L3086.57 437.72 L3103.03 438.09 L3119.49 438.34 L3135.95 438.71 L3152.41 438.95 L3168.87 439.20 L3185.32 439.45 L3201.78 439.82 L3218.24 440.07 L3234.70 440.32 L3251.16 440.56 L3267.62 440.81 L3284.08 441.18 L3300.54 441.43 L3316.99 441.80 L3333.45 442.17 L3349.91 442.42 L3366.37 442.67 L3382.83 443.04 L3399.29 443.41 L3415.75 443.66 L3432.21 444.03 L3448.66 444.28 L3465.12 444.65 L3481.58 445.02 L3498.04 445.27 L3514.38 445.51 L3530.84 445.89 L3547.29 446.13 L3563.75 446.50 L3563.75 1953.70 L618.38 1953.70 L618.38 420.02 Z" stroke-linejoin="round"/>
	</defs>
	<defs>
		<clipPath id="clipPath_OfSmqnOq">
			<use xlink:href="#path_ZiPEbbqT"/>
		</clipPath>
	</defs>
	<use xlink:href="#path_ZiPEbbqT" style="stroke:none;fill:#779159"/>
	<use xlink:href="#path_ZiPEbbqT" style="fill:none;stroke:#55752F;stroke-width:17.28" clip-path="url(#clipPath_OfSmqnOq)"/>
	<defs>
		<path id="path_YiqWTsvd" d="M618.38 420.02 L618.38 420.02 L634.84 420.02 L651.30 420.02 L667.75 420.14 L684.21 420.14 L700.67 420.14 L717.13 420.14 L733.59 420.27 L750.05 420.39 L766.51 420.52 L782.97 420.76 L799.42 420.89 L815.88 420.89 L832.34 421.13 L848.80 421.26 L865.26 421.38 L881.72 421.63 L898.18 421.75 L914.64 422.00 L931.10 422.12 L947.55 422.50 L964.01 422.87 L980.47 423.11 L996.93 423.49 L1013.39 423.73 L1029.72 423.98 L1046.18 424.35 L1062.64 424.72 L1079.10 424.97 L1095.56 425.34 L1112.02 425.71 L1128.48 425.96 L1144.93 426.33 L1161.39 426.70 L1177.85 427.32 L1194.31 427.82 L1210.77 428.44 L1227.23 428.81 L1243.69 429.30 L1260.15 429.92 L1276.61 430.29 L1293.06 430.79 L1309.52 431.28 L1325.98 431.78 L1342.44 432.40 L1358.90 432.89 L1375.36 433.51 L1391.82 434.13 L1408.28 434.62 L1424.73 435.24 L1441.19 435.74 L1457.65 436.36 L1474.11 436.97 L1490.57 437.59 L1507.03 438.09 L1523.36 438.71 L1539.82 439.20 L1556.28 439.94 L1572.74 440.56 L1589.20 441.43 L1605.66 442.17 L1622.12 442.79 L1638.57 443.29 L1655.03 444.03 L1671.49 444.77 L1687.95 445.39 L1704.41 446.01 L1720.87 446.63 L1737.33 447.37 L1753.79 447.99 L1770.24 448.73 L1786.70 449.47 L1803.16 449.85 L1819.62 450.59 L1836.08 451.08 L1852.54 451.70 L1869.00 452.32 L1885.45 453.06 L1901.91 453.56 L1918.37 454.30 L1934.83 455.04 L1951.29 455.79 L1967.75 456.53 L1984.21 457.15 L2000.67 457.89 L2017.00 458.51 L2033.46 459.37 L2049.92 459.99 L2066.38 460.74 L2082.84 461.48 L2099.30 462.22 L2115.75 462.96 L2132.21 463.83 L2148.67 464.45 L2165.13 465.19 L2181.59 465.93 L2198.05 466.55 L2214.51 467.42 L2230.97 468.16 L2247.42 469.15 L2263.88 469.77 L2280.34 470.51 L2296.80 471.25 L2313.26 471.75 L2329.72 472.62 L2346.18 473.36 L2362.64 474.10 L2379.09 474.84 L2395.55 475.59 L2412.01 476.45 L2428.47 477.32 L2444.93 478.06 L2461.39 479.05 L2477.85 479.67 L2494.30 480.41 L2510.76 480.91 L2527.10 481.77 L2543.56 482.64 L2560.02 483.26 L2576.47 484.13 L2592.93 484.62 L2609.39 485.36 L2625.85 486.23 L2642.31 486.97 L2658.77 487.47 L2675.23 488.33 L2691.69 489.20 L2708.14 489.94 L2724.60 490.56 L2741.06 491.43 L2757.52 492.05 L2773.98 492.66 L2790.44 493.41 L2806.90 494.03 L2823.36 494.77 L2839.82 495.51 L2856.27 496.01 L2872.73 496.75 L2889.19 497.61 L2905.65 498.23 L2922.11 499.10 L2938.57 499.72 L2955.03 500.58 L2971.49 501.33 L2987.94 501.82 L3004.40 502.56 L3020.74 503.18 L3037.20 503.80 L3053.66 504.54 L3070.11 505.16 L3086.57 506.03 L3103.03 506.77 L3119.49 507.39 L3135.95 508.13 L3152.41 508.75 L3168.87 509.49 L3185.32 510.36 L3201.78 511.10 L3218.24 511.72 L3234.70 512.34 L3251.16 513.08 L3267.62 513.83 L3284.08 514.69 L3300.54 515.31 L3316.99 516.18 L3333.45 517.04 L3349.91 517.79 L3366.37 518.53 L3382.83 519.27 L3399.29 520.26 L3415.75 521.00 L3432.21 521.75 L3448.66 522.37 L3465.12 523.11 L3481.58 524.10 L3498.04 524.96 L3514.38 525.58 L3530.84 526.45 L3547.29 527.19 L3563.75 527.93 L3563.75 1953.70 L618.38 1953.70 L618.38 420.02 Z" stroke-linejoin="round"/>
	</defs>
	<defs>
		<clipPath id="clipPath_KdlMRpSu">
			<use xlink:href="#path_YiqWTsvd"/>
		</clipPath>
	</defs>
	<use xlink:href="#path_YiqWTsvd" style="stroke:none;fill:#E99833"/>
	<use xlink:href="#path_YiqWTsvd" style="fill:none;stroke:#E37E00;stroke-width:17.28" clip-path="url(#clipPath_KdlMRpSu)"/>
	<defs>
		<path id="path_grKtRPbW" d="M618.38 433.51 L618.38 433.51 L634.84 436.36 L651.30 439.70 L667.75 443.53 L684.21 447.37 L700.67 450.84 L717.13 454.67 L733.59 458.76 L750.05 462.47 L766.51 466.06 L782.97 469.65 L799.42 473.36 L815.88 477.44 L832.34 481.40 L848.80 484.87 L865.26 489.32 L881.72 492.79 L898.18 496.50 L914.64 500.21 L931.10 504.30 L947.55 508.26 L964.01 511.60 L980.47 515.19 L996.93 518.16 L1013.39 521.75 L1029.72 525.34 L1046.18 529.54 L1062.64 533.01 L1079.10 536.35 L1095.56 539.94 L1112.02 543.28 L1128.48 546.50 L1144.93 550.33 L1161.39 553.30 L1177.85 556.15 L1194.31 559.37 L1210.77 562.71 L1227.23 565.80 L1243.69 568.77 L1260.15 572.11 L1276.61 574.96 L1293.06 577.93 L1309.52 581.15 L1325.98 584.37 L1342.44 587.21 L1358.90 590.18 L1375.36 593.40 L1391.82 596.25 L1408.28 599.22 L1424.73 601.82 L1441.19 604.54 L1457.65 607.38 L1474.11 610.11 L1490.57 612.83 L1507.03 615.30 L1523.36 618.03 L1539.82 620.63 L1556.28 623.35 L1572.74 626.07 L1589.20 628.42 L1605.66 630.90 L1622.12 633.62 L1638.57 636.34 L1655.03 638.57 L1671.49 640.80 L1687.95 643.03 L1704.41 645.38 L1720.87 647.85 L1737.33 650.33 L1753.79 652.93 L1770.24 655.28 L1786.70 657.75 L1803.16 660.10 L1819.62 662.45 L1836.08 664.93 L1852.54 667.28 L1869.00 669.88 L1885.45 671.98 L1901.91 674.33 L1918.37 676.81 L1934.83 679.04 L1951.29 681.02 L1967.75 683.25 L1984.21 685.60 L2000.67 687.33 L2017.00 689.31 L2033.46 691.54 L2049.92 694.01 L2066.38 695.99 L2082.84 698.10 L2099.30 700.32 L2115.75 701.93 L2132.21 703.91 L2148.67 705.89 L2165.13 707.87 L2181.59 709.73 L2198.05 711.58 L2214.51 713.56 L2230.97 715.67 L2247.42 717.77 L2263.88 719.50 L2280.34 721.49 L2296.80 723.22 L2313.26 725.07 L2329.72 726.56 L2346.18 728.29 L2362.64 729.90 L2379.09 731.88 L2395.55 733.74 L2412.01 735.59 L2428.47 737.33 L2444.93 739.31 L2461.39 740.91 L2477.85 742.52 L2494.30 744.01 L2510.76 745.62 L2527.10 747.47 L2543.56 749.08 L2560.02 750.69 L2576.47 752.42 L2592.93 753.91 L2609.39 755.76 L2625.85 757.50 L2642.31 758.73 L2658.77 760.34 L2675.23 762.08 L2691.69 763.69 L2708.14 765.17 L2724.60 766.78 L2741.06 768.14 L2757.52 769.38 L2773.98 770.86 L2790.44 772.10 L2806.90 773.59 L2823.36 774.82 L2839.82 776.06 L2856.27 777.67 L2872.73 779.28 L2889.19 780.52 L2905.65 781.88 L2922.11 783.36 L2938.57 784.72 L2955.03 786.08 L2971.49 787.45 L2987.94 788.93 L3004.40 790.04 L3020.74 791.65 L3037.20 793.26 L3053.66 794.50 L3070.11 795.86 L3086.57 797.22 L3103.03 798.58 L3119.49 800.07 L3135.95 801.55 L3152.41 803.04 L3168.87 804.52 L3185.32 805.76 L3201.78 807.12 L3218.24 808.24 L3234.70 809.72 L3251.16 810.84 L3267.62 812.32 L3284.08 813.81 L3300.54 815.04 L3316.99 816.40 L3333.45 817.89 L3349.91 819.25 L3366.37 820.36 L3382.83 821.60 L3399.29 822.72 L3415.75 823.83 L3432.21 824.94 L3448.66 826.18 L3465.12 827.42 L3481.58 828.90 L3498.04 830.26 L3514.38 831.25 L3530.84 832.24 L3547.29 833.36 L3563.75 834.60 L3563.75 1953.70 L618.38 1953.70 L618.38 433.51 Z" stroke-linejoin="round"/>
	</defs>
	<defs>
		<clipPath id="clipPath_yMwAxigk">
			<use xlink:href="#path_grKtRPbW"/>
		</clipPath>
	</defs>
	<use xlink:href="#path_grKtRPbW" style="stroke:none;fill:#8BA59D"/>
	<use xlink:href="#path_grKtRPbW" style="fill:none;stroke:#6E8E84;stroke-width:17.28" clip-path="url(#clipPath_yMwAxigk)"/>
	<line x1="465.80" y1="1953.70" x2="465.80" y2="419.90" style="stroke:#000000;stroke-width:5.76"/>
	<line x1="465.80" y1="1953.70" x2="425.82" y2="1953.70" style="stroke:#000000;stroke-width:5.76"/>
	<text x="405.78" y="1988.73" style="font-family:'Helvetica';font-size:99.99px;fill:#000000" text-anchor="end">0.0</text>
	<line x1="465.80" y1="1800.37" x2="425.82" y2="1800.37" style="stroke:#000000;stroke-width:5.76"/>
	<text x="405.78" y="1835.40" style="font-family:'Helvetica';font-size:99.99px;fill:#000000" text-anchor="end">0.1</text>
	<line x1="465.80" y1="1646.92" x2="425.82" y2="1646.92" style="stroke:#000000;stroke-width:5.76"/>
	<text x="405.78" y="1681.94" style="font-family:'Helvetica';font-size:99.99px;fill:#000000" text-anchor="end">0.2</text>
	<line x1="465.80" y1="1493.59" x2="425.82" y2="1493.59" style="stroke:#000000;stroke-width:5.76"/>
	<text x="405.78" y="1528.61" style="font-family:'Helvetica';font-size:99.99px;fill:#000000" text-anchor="end">0.3</text>
	<line x1="465.80" y1="1340.13" x2="425.82" y2="1340.13" style="stroke:#000000;stroke-width:5.76"/>
	<text x="405.78" y="1375.16" style="font-family:'Helvetica';font-size:99.99px;fill:#000000" text-anchor="end">0.4</text>
	<line x1="465.80" y1="1186.80" x2="425.82" y2="1186.80" style="stroke:#000000;stroke-width:5.76"/>
	<text x="405.78" y="1221.83" style="font-family:'Helvetica';font-size:99.99px;fill:#000000" text-anchor="end">0.5</text>
	<line x1="465.80" y1="1033.47" x2="425.82" y2="1033.47" style="stroke:#000000;stroke-width:5.76"/>
	<text x="405.78" y="1068.50" style="font-family:'Helvetica';font-size:99.99px;fill:#000000" text-anchor="end">0.6</text>
	<line x1="465.80" y1="880.01" x2="425.82" y2="880.01" style="stroke:#000000;stroke-width:5.76"/>
	<text x="405.78" y="915.04" style="font-family:'Helvetica';font-size:99.99px;fill:#000000" text-anchor="end">0.7</text>
	<line x1="465.80" y1="726.68" x2="425.82" y2="726.68" style="stroke:#000000;stroke-width:5.76"/>
	<text x="405.78" y="761.71" style="font-family:'Helvetica';font-size:99.99px;fill:#000000" text-anchor="end">0.8</text>
	<line x1="465.80" y1="573.35" x2="425.82" y2="573.35" style="stroke:#000000;stroke-width:5.76"/>
	<text x="405.78" y="608.38" style="font-family:'Helvetica';font-size:99.99px;fill:#000000" text-anchor="end">0.9</text>
	<line x1="465.80" y1="419.90" x2="425.82" y2="419.90" style="stroke:#000000;stroke-width:5.76"/>
	<text x="405.78" y="454.93" style="font-family:'Helvetica';font-size:99.99px;fill:#000000" text-anchor="end">1.0</text>
	<text x="190.71" y="1186.80" style="font-family:'Helvetica';font-size:99.99px;fill:#000000" transform="rotate(-90 190.71,1186.80)" text-anchor="middle">Transition Probability</text>
	<line x1="465.80" y1="1953.70" x2="3859.02" y2="1953.70" style="stroke:#000000;stroke-width:5.76"/>
	<line x1="465.80" y1="1953.70" x2="465.80" y2="1993.67" style="stroke:#000000;stroke-width:5.76"/>
	<text x="465.80" y="2083.66" style="font-family:'Helvetica';font-size:99.99px;fill:#000000" text-anchor="middle">0</text>
	<line x1="1314.10" y1="1953.70" x2="1314.10" y2="1993.67" style="stroke:#000000;stroke-width:5.76"/>
	<text x="1314.10" y="2083.66" style="font-family:'Helvetica';font-size:99.99px;fill:#000000" text-anchor="middle">500</text>
	<line x1="2162.41" y1="1953.70" x2="2162.41" y2="1993.67" style="stroke:#000000;stroke-width:5.76"/>
	<text x="2162.41" y="2083.66" style="font-family:'Helvetica';font-size:99.99px;fill:#000000" text-anchor="middle">1000</text>
	<line x1="3010.71" y1="1953.70" x2="3010.71" y2="1993.67" style="stroke:#000000;stroke-width:5.76"/>
	<text x="3010.71" y="2083.66" style="font-family:'Helvetica';font-size:99.99px;fill:#000000" text-anchor="middle">1500</text>
	<line x1="3859.02" y1="1953.70" x2="3859.02" y2="1993.67" style="stroke:#000000;stroke-width:5.76"/>
	<text x="3859.02" y="2083.66" style="font-family:'Helvetica';font-size:99.99px;fill:#000000" text-anchor="middle">2000</text>
	<text x="2162.41" y="2193.67" style="font-family:'Helvetica';font-size:99.99px;fill:#000000" text-anchor="middle">Follow-up time</text>
	<rect x="614.42" y="2278.31" width="3095.98" height="466.30" style="fill:#FFFFFF"/>
	<rect x="617.30" y="2281.19" width="3090.22" height="460.54" style="fill:none;stroke:#000000;stroke-width:5.76"/>
	<rect x="657.61" y="2321.50" width="374.47" height="99.99" style="fill:#8BA59D"/>
	<rect x="661.93" y="2325.82" width="365.83" height="91.35" style="fill:none;stroke:#6E8E84;stroke-width:8.64"/>
	<rect x="2232.45" y="2321.50" width="374.34" height="99.99" style="fill:#E99833"/>
	<rect x="2236.77" y="2325.82" width="365.70" height="91.35" style="fill:none;stroke:#E37E00;stroke-width:8.64"/>
	<rect x="657.61" y="2461.46" width="374.47" height="99.99" style="fill:#779159"/>
	<rect x="661.93" y="2465.78" width="365.83" height="91.35" style="fill:none;stroke:#55752F;stroke-width:8.64"/>
	<rect x="2232.45" y="2461.46" width="374.34" height="99.99" style="fill:#A65D62"/>
	<rect x="2236.77" y="2465.78" width="365.70" height="91.35" style="fill:none;stroke:#90353B;stroke-width:8.64"/>
	<rect x="657.61" y="2601.43" width="374.47" height="99.99" style="fill:#486C8C"/>
	<rect x="661.93" y="2605.75" width="365.83" height="91.35" style="fill:none;stroke:#1A476F;stroke-width:8.64"/>
	<text x="1092.09" y="2406.52" style="font-family:'Helvetica';font-size:99.99px;fill:#000000">P(Y(t) = 1 | Y(90) = 1)</text>
	<text x="2666.81" y="2406.52" style="font-family:'Helvetica';font-size:99.99px;fill:#000000">P(Y(t) = 2 | Y(90) = 1)</text>
	<text x="1092.09" y="2546.49" style="font-family:'Helvetica';font-size:99.99px;fill:#000000">P(Y(t) = 3 | Y(90) = 1)</text>
	<text x="2666.81" y="2546.49" style="font-family:'Helvetica';font-size:99.99px;fill:#000000">P(Y(t) = 4 | Y(90) = 1)</text>
	<text x="1092.09" y="2686.46" style="font-family:'Helvetica';font-size:99.99px;fill:#000000">P(Y(t) = 5 | Y(90) = 1)</text>
	<text x="2162.41" y="369.63" style="font-family:'Helvetica';font-size:110.01px;fill:#000000" text-anchor="middle">From Admission(1), Outpatient (3y)</text>
	<text x="2162.41" y="215.98" style="font-family:'Helvetica';font-size:139.96px;fill:#1E2D53" text-anchor="middle">P(Y(t) = b | Y(90) = 1, at1)</text>
</svg>
