<?xml version="1.0" encoding="UTF-8" standalone="no"?>
<!-- This is a Stata 16.1 generated SVG file (http://www.stata.com) -->

<svg version="1.1" width="5.50in" height="4.00in" viewBox="0 0 3960 2880" xmlns="http://www.w3.org/2000/svg" xmlns:xlink="http://www.w3.org/1999/xlink">
	<desc>Stata Graph - gh_1_2</desc>
	<rect x="0" y="0" width="3960" height="2880" style="fill:#EAF2F3;stroke:none"/>
	<rect x="0.00" y="0.00" width="3959.88" height="2880.00" style="fill:#FFFFFF"/>
	<rect x="2.88" y="2.88" width="3954.12" height="2874.24" style="fill:none;stroke:#EAF2F3;stroke-width:5.76"/>
	<rect x="465.80" y="419.90" width="3393.22" height="1533.81" style="fill:#FFFFFF"/>
	<rect x="468.67" y="422.78" width="3387.47" height="1528.05" style="fill:none;stroke:#FFFFFF;stroke-width:5.76"/>
	<line x1="465.80" y1="1953.70" x2="3859.02" y2="1953.70" style="stroke:#EAF2F3;stroke-width:8.64"/>
	<line x1="465.80" y1="1800.37" x2="3859.02" y2="1800.37" style="stroke:#EAF2F3;stroke-width:8.64"/>
	<line x1="465.80" y1="1646.92" x2="3859.02" y2="1646.92" style="stroke:#EAF2F3;stroke-width:8.64"/>
	<line x1="465.80" y1="1493.59" x2="3859.02" y2="1493.59" style="stroke:#EAF2F3;stroke-width:8.64"/>
	<line x1="465.80" y1="1340.13" x2="3859.02" y2="1340.13" style="stroke:#EAF2F3;stroke-width:8.64"/>
	<line x1="465.80" y1="1186.80" x2="3859.02" y2="1186.80" style="stroke:#EAF2F3;stroke-width:8.64"/>
	<line x1="465.80" y1="1033.47" x2="3859.02" y2="1033.47" style="stroke:#EAF2F3;stroke-width:8.64"/>
	<line x1="465.80" y1="880.01" x2="3859.02" y2="880.01" style="stroke:#EAF2F3;stroke-width:8.64"/>
	<line x1="465.80" y1="726.68" x2="3859.02" y2="726.68" style="stroke:#EAF2F3;stroke-width:8.64"/>
	<line x1="465.80" y1="573.35" x2="3859.02" y2="573.35" style="stroke:#EAF2F3;stroke-width:8.64"/>
	<line x1="465.80" y1="419.90" x2="3859.02" y2="419.90" style="stroke:#EAF2F3;stroke-width:8.64"/>
	<defs>
		<path id="path_opQSNDki" d="M618.38 420.02 L618.38 420.02 L634.84 420.02 L651.30 420.02 L667.75 420.02 L684.21 420.02 L700.67 420.02 L717.13 420.02 L733.59 420.02 L750.05 420.02 L766.51 420.02 L782.97 420.02 L799.42 420.02 L815.88 420.02 L832.34 420.02 L848.80 420.02 L865.26 420.02 L881.72 420.02 L898.18 420.02 L914.64 420.02 L931.10 420.02 L947.55 420.02 L964.01 420.02 L980.47 420.02 L996.93 420.02 L1013.39 420.02 L1029.72 420.02 L1046.18 420.02 L1062.64 420.02 L1079.10 420.02 L1095.56 420.02 L1112.02 420.02 L1128.48 420.02 L1144.93 420.02 L1161.39 420.02 L1177.85 420.02 L1194.31 420.02 L1210.77 420.02 L1227.23 420.02 L1243.69 420.02 L1260.15 420.02 L1276.61 420.02 L1293.06 420.02 L1309.52 420.02 L1325.98 420.02 L1342.44 420.02 L1358.90 420.02 L1375.36 420.02 L1391.82 420.02 L1408.28 420.02 L1424.73 420.02 L1441.19 420.02 L1457.65 420.02 L1474.11 420.02 L1490.57 420.02 L1507.03 420.02 L1523.36 420.02 L1539.82 420.02 L1556.28 420.02 L1572.74 420.02 L1589.20 420.02 L1605.66 420.02 L1622.12 420.02 L1638.57 420.02 L1655.03 420.02 L1671.49 420.02 L1687.95 420.02 L1704.41 420.02 L1720.87 420.02 L1737.33 420.02 L1753.79 420.02 L1770.24 420.02 L1786.70 420.02 L1803.16 420.02 L1819.62 420.02 L1836.08 420.02 L1852.54 420.02 L1869.00 420.02 L1885.45 420.02 L1901.91 420.02 L1918.37 420.02 L1934.83 420.02 L1951.29 420.02 L1967.75 420.02 L1984.21 420.02 L2000.67 420.02 L2017.00 420.02 L2033.46 420.02 L2049.92 420.02 L2066.38 420.02 L2082.84 420.02 L2099.30 420.02 L2115.75 420.02 L2132.21 420.02 L2148.67 420.02 L2165.13 420.02 L2181.59 420.02 L2198.05 420.02 L2214.51 420.02 L2230.97 420.02 L2247.42 420.02 L2263.88 420.02 L2280.34 420.02 L2296.80 420.02 L2313.26 420.02 L2329.72 420.02 L2346.18 420.02 L2362.64 420.02 L2379.09 420.02 L2395.55 420.02 L2412.01 420.02 L2428.47 420.02 L2444.93 420.02 L2461.39 420.02 L2477.85 420.02 L2494.30 420.02 L2510.76 420.02 L2527.10 420.02 L2543.56 420.02 L2560.02 420.02 L2576.47 420.02 L2592.93 420.02 L2609.39 420.02 L2625.85 420.02 L2642.31 420.02 L2658.77 420.02 L2675.23 420.02 L2691.69 420.02 L2708.14 420.02 L2724.60 420.02 L2741.06 420.02 L2757.52 420.02 L2773.98 420.02 L2790.44 420.02 L2806.90 420.02 L2823.36 420.02 L2839.82 420.02 L2856.27 420.02 L2872.73 420.02 L2889.19 420.02 L2905.65 420.02 L2922.11 420.02 L2938.57 420.02 L2955.03 420.02 L2971.49 420.02 L2987.94 420.02 L3004.40 420.02 L3020.74 420.02 L3037.20 420.02 L3053.66 420.02 L3070.11 420.02 L3086.57 420.02 L3103.03 420.02 L3119.49 420.02 L3135.95 420.02 L3152.41 420.02 L3168.87 420.02 L3185.32 420.02 L3201.78 420.02 L3218.24 420.02 L3234.70 420.02 L3251.16 420.02 L3267.62 420.02 L3284.08 420.02 L3300.54 420.02 L3316.99 420.02 L3333.45 420.02 L3349.91 420.02 L3366.37 420.02 L3382.83 420.02 L3399.29 420.02 L3415.75 420.02 L3432.21 420.02 L3448.66 420.02 L3465.12 420.02 L3481.58 420.02 L3498.04 420.02 L3514.38 420.02 L3530.84 420.02 L3547.29 420.02 L3563.75 420.02 L3563.75 1953.70 L618.38 1953.70 L618.38 420.02 Z" stroke-linejoin="round"/>
	</defs>
	<defs>
		<clipPath id="clipPath_aoDnYnNf">
			<use xlink:href="#path_opQSNDki"/>
		</clipPath>
	</defs>
	<use xlink:href="#path_opQSNDki" style="stroke:none;fill:#486C8C"/>
	<use xlink:href="#path_opQSNDki" style="fill:none;stroke:#1A476F;stroke-width:17.28" clip-path="url(#clipPath_aoDnYnNf)"/>
	<defs>
		<path id="path_HOPLNVYd" d="M618.38 420.02 L618.38 420.02 L634.84 420.02 L651.30 420.02 L667.75 420.02 L684.21 420.02 L700.67 420.02 L717.13 420.14 L733.59 420.14 L750.05 420.14 L766.51 420.14 L782.97 420.27 L799.42 420.27 L815.88 420.27 L832.34 420.39 L848.80 420.39 L865.26 420.52 L881.72 420.52 L898.18 420.64 L914.64 420.64 L931.10 420.64 L947.55 420.76 L964.01 420.76 L980.47 420.89 L996.93 421.01 L1013.39 421.01 L1029.72 421.26 L1046.18 421.38 L1062.64 421.51 L1079.10 421.75 L1095.56 421.75 L1112.02 421.88 L1128.48 422.12 L1144.93 422.25 L1161.39 422.37 L1177.85 422.50 L1194.31 422.74 L1210.77 422.99 L1227.23 423.11 L1243.69 423.49 L1260.15 423.73 L1276.61 423.98 L1293.06 424.23 L1309.52 424.48 L1325.98 424.85 L1342.44 425.09 L1358.90 425.34 L1375.36 425.71 L1391.82 425.96 L1408.28 426.33 L1424.73 426.58 L1441.19 426.83 L1457.65 427.20 L1474.11 427.45 L1490.57 427.69 L1507.03 428.06 L1523.36 428.44 L1539.82 428.68 L1556.28 429.05 L1572.74 429.43 L1589.20 429.67 L1605.66 430.04 L1622.12 430.29 L1638.57 430.79 L1655.03 431.16 L1671.49 431.53 L1687.95 432.02 L1704.41 432.40 L1720.87 432.89 L1737.33 433.26 L1753.79 433.63 L1770.24 433.88 L1786.70 434.38 L1803.16 434.75 L1819.62 435.37 L1836.08 435.86 L1852.54 436.48 L1869.00 437.10 L1885.45 437.59 L1901.91 438.21 L1918.37 438.83 L1934.83 439.33 L1951.29 439.70 L1967.75 440.19 L1984.21 440.69 L2000.67 441.18 L2017.00 441.80 L2033.46 442.42 L2049.92 443.04 L2066.38 443.53 L2082.84 444.28 L2099.30 444.77 L2115.75 445.27 L2132.21 445.89 L2148.67 446.50 L2165.13 447.00 L2181.59 447.87 L2198.05 448.48 L2214.51 449.23 L2230.97 449.97 L2247.42 450.59 L2263.88 451.33 L2280.34 451.95 L2296.80 452.57 L2313.26 453.31 L2329.72 453.93 L2346.18 454.67 L2362.64 455.54 L2379.09 456.03 L2395.55 456.90 L2412.01 457.77 L2428.47 458.38 L2444.93 459.13 L2461.39 459.87 L2477.85 460.49 L2494.30 461.35 L2510.76 462.10 L2527.10 462.84 L2543.56 463.33 L2560.02 464.45 L2576.47 465.31 L2592.93 465.81 L2609.39 466.55 L2625.85 467.54 L2642.31 468.41 L2658.77 469.15 L2675.23 469.89 L2691.69 470.76 L2708.14 471.50 L2724.60 472.24 L2741.06 473.11 L2757.52 473.85 L2773.98 474.60 L2790.44 475.34 L2806.90 476.33 L2823.36 477.07 L2839.82 477.69 L2856.27 478.31 L2872.73 479.05 L2889.19 479.79 L2905.65 480.41 L2922.11 481.16 L2938.57 482.15 L2955.03 482.89 L2971.49 483.75 L2987.94 484.50 L3004.40 485.36 L3020.74 486.11 L3037.20 487.10 L3053.66 487.84 L3070.11 488.58 L3086.57 489.57 L3103.03 490.44 L3119.49 491.18 L3135.95 492.17 L3152.41 493.16 L3168.87 494.15 L3185.32 495.02 L3201.78 495.88 L3218.24 496.62 L3234.70 497.37 L3251.16 498.23 L3267.62 498.98 L3284.08 499.97 L3300.54 500.71 L3316.99 501.57 L3333.45 502.32 L3349.91 503.06 L3366.37 503.80 L3382.83 504.67 L3399.29 505.66 L3415.75 506.65 L3432.21 507.39 L3448.66 508.26 L3465.12 509.00 L3481.58 509.74 L3498.04 510.73 L3514.38 511.60 L3530.84 512.46 L3547.29 513.33 L3563.75 514.32 L3563.75 1953.70 L618.38 1953.70 L618.38 420.02 Z" stroke-linejoin="round"/>
	</defs>
	<defs>
		<clipPath id="clipPath_bOnkotCd">
			<use xlink:href="#path_HOPLNVYd"/>
		</clipPath>
	</defs>
	<use xlink:href="#path_HOPLNVYd" style="stroke:none;fill:#A65D62"/>
	<use xlink:href="#path_HOPLNVYd" style="fill:none;stroke:#90353B;stroke-width:17.28" clip-path="url(#clipPath_bOnkotCd)"/>
	<defs>
		<path id="path_MYymWWoP" d="M618.38 420.52 L618.38 420.52 L634.84 420.76 L651.30 421.13 L667.75 421.38 L684.21 421.63 L700.67 422.00 L717.13 422.50 L733.59 422.87 L750.05 423.49 L766.51 424.10 L782.97 424.72 L799.42 425.47 L815.88 426.21 L832.34 426.95 L848.80 427.82 L865.26 428.68 L881.72 429.43 L898.18 430.04 L914.64 430.91 L931.10 431.90 L947.55 432.89 L964.01 433.76 L980.47 435.12 L996.93 435.98 L1013.39 437.22 L1029.72 438.09 L1046.18 439.20 L1062.64 440.32 L1079.10 441.68 L1095.56 442.92 L1112.02 444.03 L1128.48 445.51 L1144.93 446.75 L1161.39 447.87 L1177.85 449.23 L1194.31 450.46 L1210.77 451.70 L1227.23 453.19 L1243.69 454.42 L1260.15 455.41 L1276.61 456.90 L1293.06 458.14 L1309.52 459.75 L1325.98 461.11 L1342.44 462.22 L1358.90 463.71 L1375.36 465.07 L1391.82 466.68 L1408.28 468.04 L1424.73 469.52 L1441.19 470.76 L1457.65 472.24 L1474.11 473.73 L1490.57 475.34 L1507.03 476.70 L1523.36 478.18 L1539.82 479.55 L1556.28 481.03 L1572.74 482.64 L1589.20 484.25 L1605.66 485.98 L1622.12 487.47 L1638.57 489.08 L1655.03 490.93 L1671.49 492.66 L1687.95 494.15 L1704.41 495.51 L1720.87 497.12 L1737.33 498.85 L1753.79 500.83 L1770.24 502.32 L1786.70 503.80 L1803.16 505.53 L1819.62 506.77 L1836.08 508.38 L1852.54 510.11 L1869.00 511.72 L1885.45 513.33 L1901.91 514.69 L1918.37 516.55 L1934.83 518.28 L1951.29 520.26 L1967.75 522.12 L1984.21 523.60 L2000.67 524.96 L2017.00 526.45 L2033.46 527.93 L2049.92 529.54 L2066.38 531.40 L2082.84 532.88 L2099.30 534.62 L2115.75 536.35 L2132.21 537.71 L2148.67 539.20 L2165.13 541.05 L2181.59 542.78 L2198.05 544.64 L2214.51 546.37 L2230.97 548.48 L2247.42 550.33 L2263.88 552.07 L2280.34 553.67 L2296.80 555.28 L2313.26 556.77 L2329.72 558.50 L2346.18 559.99 L2362.64 561.47 L2379.09 563.33 L2395.55 564.94 L2412.01 566.42 L2428.47 568.15 L2444.93 569.89 L2461.39 571.50 L2477.85 573.35 L2494.30 574.96 L2510.76 576.82 L2527.10 578.30 L2543.56 580.03 L2560.02 581.64 L2576.47 583.38 L2592.93 585.23 L2609.39 586.96 L2625.85 588.45 L2642.31 589.93 L2658.77 591.67 L2675.23 593.03 L2691.69 594.88 L2708.14 596.49 L2724.60 598.35 L2741.06 600.08 L2757.52 601.57 L2773.98 603.42 L2790.44 604.91 L2806.90 606.52 L2823.36 607.88 L2839.82 609.61 L2856.27 611.47 L2872.73 612.95 L2889.19 614.56 L2905.65 615.92 L2922.11 617.41 L2938.57 618.89 L2955.03 620.87 L2971.49 622.36 L2987.94 624.09 L3004.40 625.58 L3020.74 626.94 L3037.20 628.67 L3053.66 630.53 L3070.11 632.01 L3086.57 633.50 L3103.03 635.10 L3119.49 636.71 L3135.95 638.32 L3152.41 640.06 L3168.87 641.66 L3185.32 643.03 L3201.78 644.51 L3218.24 646.12 L3234.70 647.48 L3251.16 649.21 L3267.62 650.70 L3284.08 651.94 L3300.54 653.42 L3316.99 655.15 L3333.45 656.76 L3349.91 658.12 L3366.37 659.86 L3382.83 661.22 L3399.29 662.83 L3415.75 664.31 L3432.21 665.67 L3448.66 667.28 L3465.12 668.64 L3481.58 670.13 L3498.04 671.74 L3514.38 673.10 L3530.84 674.71 L3547.29 676.07 L3563.75 677.55 L3563.75 1953.70 L618.38 1953.70 L618.38 420.52 Z" stroke-linejoin="round"/>
	</defs>
	<defs>
		<clipPath id="clipPath_VnkIWbwi">
			<use xlink:href="#path_MYymWWoP"/>
		</clipPath>
	</defs>
	<use xlink:href="#path_MYymWWoP" style="stroke:none;fill:#779159"/>
	<use xlink:href="#path_MYymWWoP" style="fill:none;stroke:#55752F;stroke-width:17.28" clip-path="url(#clipPath_VnkIWbwi)"/>
	<defs>
		<path id="path_BcEeQhbk" d="M618.38 472.24 L618.38 472.24 L634.84 480.17 L651.30 487.84 L667.75 495.63 L684.21 503.18 L700.67 510.98 L717.13 517.91 L733.59 525.09 L750.05 533.13 L766.51 540.31 L782.97 547.24 L799.42 554.42 L815.88 561.22 L832.34 568.03 L848.80 574.59 L865.26 581.27 L881.72 588.08 L898.18 594.76 L914.64 601.07 L931.10 607.26 L947.55 613.45 L964.01 619.39 L980.47 625.70 L996.93 631.14 L1013.39 637.46 L1029.72 642.65 L1046.18 648.35 L1062.64 654.29 L1079.10 659.86 L1095.56 665.67 L1112.02 671.49 L1128.48 677.18 L1144.93 682.50 L1161.39 687.45 L1177.85 693.15 L1194.31 698.10 L1210.77 703.05 L1227.23 708.12 L1243.69 712.82 L1260.15 718.14 L1276.61 722.97 L1293.06 727.18 L1309.52 731.76 L1325.98 736.46 L1342.44 741.29 L1358.90 745.37 L1375.36 749.82 L1391.82 754.16 L1408.28 758.36 L1424.73 762.94 L1441.19 767.03 L1457.65 770.74 L1474.11 774.33 L1490.57 778.29 L1507.03 782.25 L1523.36 786.08 L1539.82 789.80 L1556.28 794.00 L1572.74 797.72 L1589.20 801.93 L1605.66 805.76 L1622.12 809.60 L1638.57 813.43 L1655.03 817.39 L1671.49 820.98 L1687.95 824.32 L1704.41 828.04 L1720.87 831.63 L1737.33 835.09 L1753.79 838.31 L1770.24 842.27 L1786.70 845.36 L1803.16 849.08 L1819.62 852.54 L1836.08 855.63 L1852.54 858.85 L1869.00 862.19 L1885.45 865.16 L1901.91 868.13 L1918.37 870.86 L1934.83 873.58 L1951.29 876.42 L1967.75 879.52 L1984.21 882.74 L2000.67 885.71 L2017.00 888.55 L2033.46 891.15 L2049.92 894.00 L2066.38 896.60 L2082.84 899.44 L2099.30 902.29 L2115.75 904.76 L2132.21 907.86 L2148.67 910.33 L2165.13 913.30 L2181.59 915.78 L2198.05 918.25 L2214.51 920.85 L2230.97 922.96 L2247.42 925.56 L2263.88 928.15 L2280.34 930.38 L2296.80 932.98 L2313.26 935.83 L2329.72 938.67 L2346.18 941.02 L2362.64 943.50 L2379.09 945.85 L2395.55 948.45 L2412.01 950.68 L2428.47 952.66 L2444.93 954.88 L2461.39 957.36 L2477.85 959.83 L2494.30 962.06 L2510.76 964.29 L2527.10 966.27 L2543.56 968.50 L2560.02 970.48 L2576.47 972.95 L2592.93 975.06 L2609.39 977.28 L2625.85 979.64 L2642.31 981.86 L2658.77 983.97 L2675.23 986.32 L2691.69 988.42 L2708.14 990.15 L2724.60 992.26 L2741.06 994.61 L2757.52 996.84 L2773.98 999.31 L2790.44 1001.29 L2806.90 1003.40 L2823.36 1005.25 L2839.82 1007.36 L2856.27 1009.34 L2872.73 1011.81 L2889.19 1013.67 L2905.65 1015.77 L2922.11 1017.50 L2938.57 1019.48 L2955.03 1021.71 L2971.49 1023.44 L2987.94 1025.55 L3004.40 1027.53 L3020.74 1029.38 L3037.20 1030.87 L3053.66 1032.85 L3070.11 1034.33 L3086.57 1036.19 L3103.03 1038.17 L3119.49 1039.53 L3135.95 1041.14 L3152.41 1043.25 L3168.87 1045.35 L3185.32 1046.83 L3201.78 1048.57 L3218.24 1050.30 L3234.70 1052.03 L3251.16 1053.64 L3267.62 1055.50 L3284.08 1056.98 L3300.54 1058.84 L3316.99 1060.45 L3333.45 1062.18 L3349.91 1063.91 L3366.37 1065.40 L3382.83 1066.76 L3399.29 1068.49 L3415.75 1070.22 L3432.21 1071.96 L3448.66 1073.56 L3465.12 1075.05 L3481.58 1076.91 L3498.04 1078.64 L3514.38 1080.12 L3530.84 1081.49 L3547.29 1083.34 L3563.75 1084.95 L3563.75 1953.70 L618.38 1953.70 L618.38 472.24 Z" stroke-linejoin="round"/>
	</defs>
	<defs>
		<clipPath id="clipPath_glkZtzVa">
			<use xlink:href="#path_BcEeQhbk"/>
		</clipPath>
	</defs>
	<use xlink:href="#path_BcEeQhbk" style="stroke:none;fill:#E99833"/>
	<use xlink:href="#path_BcEeQhbk" style="fill:none;stroke:#E37E00;stroke-width:17.28" clip-path="url(#clipPath_glkZtzVa)"/>
	<defs>
		<path id="path_uDMRpNRO" d="M618.38 1953.70 L618.38 1953.70 L634.84 1953.70 L651.30 1953.70 L667.75 1953.70 L684.21 1953.70 L700.67 1953.70 L717.13 1953.70 L733.59 1953.70 L750.05 1953.70 L766.51 1953.70 L782.97 1953.70 L799.42 1953.70 L815.88 1953.70 L832.34 1953.70 L848.80 1953.70 L865.26 1953.70 L881.72 1953.70 L898.18 1953.70 L914.64 1953.70 L931.10 1953.70 L947.55 1953.70 L964.01 1953.70 L980.47 1953.70 L996.93 1953.70 L1013.39 1953.70 L1029.72 1953.70 L1046.18 1953.70 L1062.64 1953.70 L1079.10 1953.70 L1095.56 1953.70 L1112.02 1953.70 L1128.48 1953.70 L1144.93 1953.70 L1161.39 1953.70 L1177.85 1953.70 L1194.31 1953.70 L1210.77 1953.70 L1227.23 1953.70 L1243.69 1953.70 L1260.15 1953.70 L1276.61 1953.70 L1293.06 1953.70 L1309.52 1953.70 L1325.98 1953.70 L1342.44 1953.70 L1358.90 1953.70 L1375.36 1953.70 L1391.82 1953.70 L1408.28 1953.70 L1424.73 1953.70 L1441.19 1953.70 L1457.65 1953.70 L1474.11 1953.70 L1490.57 1953.70 L1507.03 1953.70 L1523.36 1953.70 L1539.82 1953.70 L1556.28 1953.70 L1572.74 1953.70 L1589.20 1953.70 L1605.66 1953.70 L1622.12 1953.70 L1638.57 1953.70 L1655.03 1953.70 L1671.49 1953.70 L1687.95 1953.70 L1704.41 1953.70 L1720.87 1953.70 L1737.33 1953.70 L1753.79 1953.70 L1770.24 1953.70 L1786.70 1953.70 L1803.16 1953.70 L1819.62 1953.70 L1836.08 1953.70 L1852.54 1953.70 L1869.00 1953.70 L1885.45 1953.70 L1901.91 1953.70 L1918.37 1953.70 L1934.83 1953.70 L1951.29 1953.70 L1967.75 1953.70 L1984.21 1953.70 L2000.67 1953.70 L2017.00 1953.70 L2033.46 1953.70 L2049.92 1953.70 L2066.38 1953.70 L2082.84 1953.70 L2099.30 1953.70 L2115.75 1953.70 L2132.21 1953.70 L2148.67 1953.70 L2165.13 1953.70 L2181.59 1953.70 L2198.05 1953.70 L2214.51 1953.70 L2230.97 1953.70 L2247.42 1953.70 L2263.88 1953.70 L2280.34 1953.70 L2296.80 1953.70 L2313.26 1953.70 L2329.72 1953.70 L2346.18 1953.70 L2362.64 1953.70 L2379.09 1953.70 L2395.55 1953.70 L2412.01 1953.70 L2428.47 1953.70 L2444.93 1953.70 L2461.39 1953.70 L2477.85 1953.70 L2494.30 1953.70 L2510.76 1953.70 L2527.10 1953.70 L2543.56 1953.70 L2560.02 1953.70 L2576.47 1953.70 L2592.93 1953.70 L2609.39 1953.70 L2625.85 1953.70 L2642.31 1953.70 L2658.77 1953.70 L2675.23 1953.70 L2691.69 1953.70 L2708.14 1953.70 L2724.60 1953.70 L2741.06 1953.70 L2757.52 1953.70 L2773.98 1953.70 L2790.44 1953.70 L2806.90 1953.70 L2823.36 1953.70 L2839.82 1953.70 L2856.27 1953.70 L2872.73 1953.70 L2889.19 1953.70 L2905.65 1953.70 L2922.11 1953.70 L2938.57 1953.70 L2955.03 1953.70 L2971.49 1953.70 L2987.94 1953.70 L3004.40 1953.70 L3020.74 1953.70 L3037.20 1953.70 L3053.66 1953.70 L3070.11 1953.70 L3086.57 1953.70 L3103.03 1953.70 L3119.49 1953.70 L3135.95 1953.70 L3152.41 1953.70 L3168.87 1953.70 L3185.32 1953.70 L3201.78 1953.70 L3218.24 1953.70 L3234.70 1953.70 L3251.16 1953.70 L3267.62 1953.70 L3284.08 1953.70 L3300.54 1953.70 L3316.99 1953.70 L3333.45 1953.70 L3349.91 1953.70 L3366.37 1953.70 L3382.83 1953.70 L3399.29 1953.70 L3415.75 1953.70 L3432.21 1953.70 L3448.66 1953.70 L3465.12 1953.70 L3481.58 1953.70 L3498.04 1953.70 L3514.38 1953.70 L3530.84 1953.70 L3547.29 1953.70 L3563.75 1953.70 L3563.75 1953.70 L618.38 1953.70 L618.38 1953.70 Z" stroke-linejoin="round"/>
	</defs>
	<defs>
		<clipPath id="clipPath_owrIACWA">
			<use xlink:href="#path_uDMRpNRO"/>
		</clipPath>
	</defs>
	<use xlink:href="#path_uDMRpNRO" style="stroke:none;fill:#8BA59D"/>
	<use xlink:href="#path_uDMRpNRO" style="fill:none;stroke:#6E8E84;stroke-width:17.28" clip-path="url(#clipPath_owrIACWA)"/>
	<line x1="465.80" y1="1953.70" x2="465.80" y2="419.90" style="stroke:#000000;stroke-width:5.76"/>
	<line x1="465.80" y1="1953.70" x2="425.82" y2="1953.70" style="stroke:#000000;stroke-width:5.76"/>
	<text x="405.78" y="1988.73" style="font-family:'Helvetica';font-size:99.99px;fill:#000000" text-anchor="end">0.0</text>
	<line x1="465.80" y1="1800.37" x2="425.82" y2="1800.37" style="stroke:#000000;stroke-width:5.76"/>
	<text x="405.78" y="1835.40" style="font-family:'Helvetica';font-size:99.99px;fill:#000000" text-anchor="end">0.1</text>
	<line x1="465.80" y1="1646.92" x2="425.82" y2="1646.92" style="stroke:#000000;stroke-width:5.76"/>
	<text x="405.78" y="1681.94" style="font-family:'Helvetica';font-size:99.99px;fill:#000000" text-anchor="end">0.2</text>
	<line x1="465.80" y1="1493.59" x2="425.82" y2="1493.59" style="stroke:#000000;stroke-width:5.76"/>
	<text x="405.78" y="1528.61" style="font-family:'Helvetica';font-size:99.99px;fill:#000000" text-anchor="end">0.3</text>
	<line x1="465.80" y1="1340.13" x2="425.82" y2="1340.13" style="stroke:#000000;stroke-width:5.76"/>
	<text x="405.78" y="1375.16" style="font-family:'Helvetica';font-size:99.99px;fill:#000000" text-anchor="end">0.4</text>
	<line x1="465.80" y1="1186.80" x2="425.82" y2="1186.80" style="stroke:#000000;stroke-width:5.76"/>
	<text x="405.78" y="1221.83" style="font-family:'Helvetica';font-size:99.99px;fill:#000000" text-anchor="end">0.5</text>
	<line x1="465.80" y1="1033.47" x2="425.82" y2="1033.47" style="stroke:#000000;stroke-width:5.76"/>
	<text x="405.78" y="1068.50" style="font-family:'Helvetica';font-size:99.99px;fill:#000000" text-anchor="end">0.6</text>
	<line x1="465.80" y1="880.01" x2="425.82" y2="880.01" style="stroke:#000000;stroke-width:5.76"/>
	<text x="405.78" y="915.04" style="font-family:'Helvetica';font-size:99.99px;fill:#000000" text-anchor="end">0.7</text>
	<line x1="465.80" y1="726.68" x2="425.82" y2="726.68" style="stroke:#000000;stroke-width:5.76"/>
	<text x="405.78" y="761.71" style="font-family:'Helvetica';font-size:99.99px;fill:#000000" text-anchor="end">0.8</text>
	<line x1="465.80" y1="573.35" x2="425.82" y2="573.35" style="stroke:#000000;stroke-width:5.76"/>
	<text x="405.78" y="608.38" style="font-family:'Helvetica';font-size:99.99px;fill:#000000" text-anchor="end">0.9</text>
	<line x1="465.80" y1="419.90" x2="425.82" y2="419.90" style="stroke:#000000;stroke-width:5.76"/>
	<text x="405.78" y="454.93" style="font-family:'Helvetica';font-size:99.99px;fill:#000000" text-anchor="end">1.0</text>
	<text x="190.71" y="1186.80" style="font-family:'Helvetica';font-size:99.99px;fill:#000000" transform="rotate(-90 190.71,1186.80)" text-anchor="middle">Transition Probability</text>
	<line x1="465.80" y1="1953.70" x2="3859.02" y2="1953.70" style="stroke:#000000;stroke-width:5.76"/>
	<line x1="465.80" y1="1953.70" x2="465.80" y2="1993.67" style="stroke:#000000;stroke-width:5.76"/>
	<text x="465.80" y="2083.66" style="font-family:'Helvetica';font-size:99.99px;fill:#000000" text-anchor="middle">0</text>
	<line x1="1314.10" y1="1953.70" x2="1314.10" y2="1993.67" style="stroke:#000000;stroke-width:5.76"/>
	<text x="1314.10" y="2083.66" style="font-family:'Helvetica';font-size:99.99px;fill:#000000" text-anchor="middle">500</text>
	<line x1="2162.41" y1="1953.70" x2="2162.41" y2="1993.67" style="stroke:#000000;stroke-width:5.76"/>
	<text x="2162.41" y="2083.66" style="font-family:'Helvetica';font-size:99.99px;fill:#000000" text-anchor="middle">1000</text>
	<line x1="3010.71" y1="1953.70" x2="3010.71" y2="1993.67" style="stroke:#000000;stroke-width:5.76"/>
	<text x="3010.71" y="2083.66" style="font-family:'Helvetica';font-size:99.99px;fill:#000000" text-anchor="middle">1500</text>
	<line x1="3859.02" y1="1953.70" x2="3859.02" y2="1993.67" style="stroke:#000000;stroke-width:5.76"/>
	<text x="3859.02" y="2083.66" style="font-family:'Helvetica';font-size:99.99px;fill:#000000" text-anchor="middle">2000</text>
	<text x="2162.41" y="2193.67" style="font-family:'Helvetica';font-size:99.99px;fill:#000000" text-anchor="middle">Follow-up time</text>
	<rect x="614.42" y="2278.31" width="3095.98" height="466.30" style="fill:#FFFFFF"/>
	<rect x="617.30" y="2281.19" width="3090.22" height="460.54" style="fill:none;stroke:#000000;stroke-width:5.76"/>
	<rect x="657.61" y="2321.50" width="374.47" height="99.99" style="fill:#8BA59D"/>
	<rect x="661.93" y="2325.82" width="365.83" height="91.35" style="fill:none;stroke:#6E8E84;stroke-width:8.64"/>
	<rect x="2232.45" y="2321.50" width="374.34" height="99.99" style="fill:#E99833"/>
	<rect x="2236.77" y="2325.82" width="365.70" height="91.35" style="fill:none;stroke:#E37E00;stroke-width:8.64"/>
	<rect x="657.61" y="2461.46" width="374.47" height="99.99" style="fill:#779159"/>
	<rect x="661.93" y="2465.78" width="365.83" height="91.35" style="fill:none;stroke:#55752F;stroke-width:8.64"/>
	<rect x="2232.45" y="2461.46" width="374.34" height="99.99" style="fill:#A65D62"/>
	<rect x="2236.77" y="2465.78" width="365.70" height="91.35" style="fill:none;stroke:#90353B;stroke-width:8.64"/>
	<rect x="657.61" y="2601.43" width="374.47" height="99.99" style="fill:#486C8C"/>
	<rect x="661.93" y="2605.75" width="365.83" height="91.35" style="fill:none;stroke:#1A476F;stroke-width:8.64"/>
	<text x="1092.09" y="2406.52" style="font-family:'Helvetica';font-size:99.99px;fill:#000000">P(Y(t) = 1 | Y(90) = 2)</text>
	<text x="2666.81" y="2406.52" style="font-family:'Helvetica';font-size:99.99px;fill:#000000">P(Y(t) = 2 | Y(90) = 2)</text>
	<text x="1092.09" y="2546.49" style="font-family:'Helvetica';font-size:99.99px;fill:#000000">P(Y(t) = 3 | Y(90) = 2)</text>
	<text x="2666.81" y="2546.49" style="font-family:'Helvetica';font-size:99.99px;fill:#000000">P(Y(t) = 4 | Y(90) = 2)</text>
	<text x="1092.09" y="2686.46" style="font-family:'Helvetica';font-size:99.99px;fill:#000000">P(Y(t) = 5 | Y(90) = 2)</text>
	<text x="2162.41" y="369.63" style="font-family:'Helvetica';font-size:110.01px;fill:#000000" text-anchor="middle">From Readmission(2), Outpatient</text>
	<text x="2162.41" y="215.98" style="font-family:'Helvetica';font-size:139.96px;fill:#1E2D53" text-anchor="middle">P(Y(t) = b | Y(90) = 2, at1)</text>
</svg>
