<?xml version="1.0" encoding="UTF-8" standalone="no"?>
<!-- This is a Stata 16.1 generated SVG file (http://www.stata.com) -->

<svg version="1.1" width="5.50in" height="4.00in" viewBox="0 0 3960 2880" xmlns="http://www.w3.org/2000/svg" xmlns:xlink="http://www.w3.org/1999/xlink">
	<desc>Stata Graph - gh_1_1</desc>
	<rect x="0" y="0" width="3960" height="2880" style="fill:#EAF2F3;stroke:none"/>
	<rect x="0.00" y="0.00" width="3959.88" height="2880.00" style="fill:#FFFFFF"/>
	<rect x="2.88" y="2.88" width="3954.12" height="2874.24" style="fill:none;stroke:#EAF2F3;stroke-width:5.76"/>
	<rect x="465.80" y="419.90" width="3393.22" height="1533.81" style="fill:#FFFFFF"/>
	<rect x="468.67" y="422.78" width="3387.47" height="1528.05" style="fill:none;stroke:#FFFFFF;stroke-width:5.76"/>
	<line x1="465.80" y1="1800.37" x2="3859.02" y2="1800.37" style="stroke:#EAF2F3;stroke-width:8.64"/>
	<line x1="465.80" y1="1646.92" x2="3859.02" y2="1646.92" style="stroke:#EAF2F3;stroke-width:8.64"/>
	<line x1="465.80" y1="1493.59" x2="3859.02" y2="1493.59" style="stroke:#EAF2F3;stroke-width:8.64"/>
	<line x1="465.80" y1="1340.13" x2="3859.02" y2="1340.13" style="stroke:#EAF2F3;stroke-width:8.64"/>
	<line x1="465.80" y1="1186.80" x2="3859.02" y2="1186.80" style="stroke:#EAF2F3;stroke-width:8.64"/>
	<line x1="465.80" y1="1033.47" x2="3859.02" y2="1033.47" style="stroke:#EAF2F3;stroke-width:8.64"/>
	<line x1="465.80" y1="880.01" x2="3859.02" y2="880.01" style="stroke:#EAF2F3;stroke-width:8.64"/>
	<line x1="465.80" y1="726.68" x2="3859.02" y2="726.68" style="stroke:#EAF2F3;stroke-width:8.64"/>
	<line x1="465.80" y1="573.35" x2="3859.02" y2="573.35" style="stroke:#EAF2F3;stroke-width:8.64"/>
	<line x1="465.80" y1="419.90" x2="3859.02" y2="419.90" style="stroke:#EAF2F3;stroke-width:8.64"/>
	<defs>
		<path id="path_uguUXiif" d="M618.38 420.02 L618.38 420.02 L634.84 420.02 L651.30 420.02 L667.75 420.02 L684.21 420.02 L700.67 420.02 L717.13 420.02 L733.59 420.02 L750.05 420.02 L766.51 420.02 L782.97 420.02 L799.42 420.02 L815.88 420.02 L832.34 420.02 L848.80 420.02 L865.26 420.02 L881.72 420.02 L898.18 420.02 L914.64 420.02 L931.10 420.02 L947.55 420.02 L964.01 420.02 L980.47 420.02 L996.93 420.02 L1013.39 420.02 L1029.72 420.02 L1046.18 420.02 L1062.64 420.02 L1079.10 420.02 L1095.56 420.02 L1112.02 420.02 L1128.48 420.02 L1144.93 420.02 L1161.39 420.02 L1177.85 420.02 L1194.31 420.02 L1210.77 420.02 L1227.23 420.02 L1243.69 420.02 L1260.15 420.02 L1276.61 420.02 L1293.06 420.02 L1309.52 420.02 L1325.98 420.02 L1342.44 420.02 L1358.90 420.02 L1375.36 420.02 L1391.82 420.02 L1408.28 420.02 L1424.73 420.02 L1441.19 420.02 L1457.65 420.02 L1474.11 420.02 L1490.57 420.02 L1507.03 420.02 L1523.36 420.02 L1539.82 420.02 L1556.28 420.02 L1572.74 420.02 L1589.20 420.02 L1605.66 420.02 L1622.12 420.02 L1638.57 420.02 L1655.03 420.02 L1671.49 420.02 L1687.95 420.02 L1704.41 420.02 L1720.87 420.02 L1737.33 420.02 L1753.79 420.02 L1770.24 420.02 L1786.70 420.02 L1803.16 420.02 L1819.62 420.02 L1836.08 420.02 L1852.54 420.02 L1869.00 420.02 L1885.45 420.02 L1901.91 420.02 L1918.37 420.02 L1934.83 420.02 L1951.29 420.02 L1967.75 420.02 L1984.21 420.02 L2000.67 420.02 L2017.00 420.02 L2033.46 420.02 L2049.92 420.02 L2066.38 420.02 L2082.84 420.02 L2099.30 420.02 L2115.75 420.02 L2132.21 420.02 L2148.67 420.02 L2165.13 420.02 L2181.59 420.02 L2198.05 420.02 L2214.51 420.02 L2230.97 420.02 L2247.42 420.02 L2263.88 420.02 L2280.34 420.02 L2296.80 420.02 L2313.26 420.02 L2329.72 420.02 L2346.18 420.02 L2362.64 420.02 L2379.09 420.02 L2395.55 420.02 L2412.01 420.02 L2428.47 420.02 L2444.93 420.02 L2461.39 420.02 L2477.85 420.02 L2494.30 420.02 L2510.76 420.02 L2527.10 420.02 L2543.56 420.02 L2560.02 420.02 L2576.47 420.02 L2592.93 420.02 L2609.39 420.02 L2625.85 420.02 L2642.31 420.02 L2658.77 420.02 L2675.23 420.02 L2691.69 420.02 L2708.14 420.02 L2724.60 420.02 L2741.06 420.02 L2757.52 420.02 L2773.98 420.02 L2790.44 420.02 L2806.90 420.02 L2823.36 420.02 L2839.82 420.02 L2856.27 420.02 L2872.73 420.02 L2889.19 420.02 L2905.65 420.02 L2922.11 420.02 L2938.57 420.02 L2955.03 420.02 L2971.49 420.02 L2987.94 420.02 L3004.40 420.02 L3020.74 420.02 L3037.20 420.02 L3053.66 420.02 L3070.11 420.02 L3086.57 420.02 L3103.03 420.02 L3119.49 420.02 L3135.95 420.02 L3152.41 420.02 L3168.87 420.02 L3185.32 420.02 L3201.78 420.02 L3218.24 420.02 L3234.70 420.02 L3251.16 420.02 L3267.62 420.02 L3284.08 420.02 L3300.54 420.02 L3316.99 420.02 L3333.45 420.02 L3349.91 420.02 L3366.37 420.02 L3382.83 420.02 L3399.29 420.02 L3415.75 420.02 L3432.21 420.02 L3448.66 420.02 L3465.12 420.02 L3481.58 420.02 L3498.04 420.02 L3514.38 420.02 L3530.84 420.02 L3547.29 420.02 L3563.75 420.02 L3563.75 1953.70 L618.38 1953.70 L618.38 420.02 Z" stroke-linejoin="round"/>
	</defs>
	<defs>
		<clipPath id="clipPath_mxlWXGRj">
			<use xlink:href="#path_uguUXiif"/>
		</clipPath>
	</defs>
	<use xlink:href="#path_uguUXiif" style="stroke:none;fill:#486C8C"/>
	<use xlink:href="#path_uguUXiif" style="fill:none;stroke:#1A476F;stroke-width:17.28" clip-path="url(#clipPath_mxlWXGRj)"/>
	<defs>
		<path id="path_mWtFWoEk" d="M618.38 420.02 L618.38 420.02 L634.84 420.02 L651.30 420.02 L667.75 420.02 L684.21 420.02 L700.67 420.02 L717.13 420.02 L733.59 420.02 L750.05 420.02 L766.51 420.02 L782.97 420.02 L799.42 420.02 L815.88 420.02 L832.34 420.02 L848.80 420.02 L865.26 420.02 L881.72 420.02 L898.18 420.02 L914.64 420.02 L931.10 420.02 L947.55 420.02 L964.01 420.02 L980.47 420.02 L996.93 420.02 L1013.39 420.02 L1029.72 420.02 L1046.18 420.02 L1062.64 420.02 L1079.10 420.02 L1095.56 420.02 L1112.02 420.02 L1128.48 420.02 L1144.93 420.02 L1161.39 420.02 L1177.85 420.02 L1194.31 420.02 L1210.77 420.02 L1227.23 420.02 L1243.69 420.02 L1260.15 420.14 L1276.61 420.14 L1293.06 420.14 L1309.52 420.14 L1325.98 420.14 L1342.44 420.14 L1358.90 420.14 L1375.36 420.14 L1391.82 420.14 L1408.28 420.27 L1424.73 420.27 L1441.19 420.27 L1457.65 420.27 L1474.11 420.27 L1490.57 420.27 L1507.03 420.39 L1523.36 420.39 L1539.82 420.39 L1556.28 420.39 L1572.74 420.39 L1589.20 420.39 L1605.66 420.39 L1622.12 420.39 L1638.57 420.52 L1655.03 420.52 L1671.49 420.52 L1687.95 420.52 L1704.41 420.52 L1720.87 420.64 L1737.33 420.64 L1753.79 420.64 L1770.24 420.64 L1786.70 420.64 L1803.16 420.76 L1819.62 420.76 L1836.08 420.89 L1852.54 420.89 L1869.00 420.89 L1885.45 420.89 L1901.91 421.01 L1918.37 421.01 L1934.83 421.13 L1951.29 421.26 L1967.75 421.26 L1984.21 421.38 L2000.67 421.38 L2017.00 421.51 L2033.46 421.63 L2049.92 421.63 L2066.38 421.63 L2082.84 421.75 L2099.30 421.75 L2115.75 421.88 L2132.21 422.00 L2148.67 422.12 L2165.13 422.25 L2181.59 422.25 L2198.05 422.37 L2214.51 422.50 L2230.97 422.50 L2247.42 422.62 L2263.88 422.62 L2280.34 422.74 L2296.80 422.87 L2313.26 422.99 L2329.72 423.11 L2346.18 423.11 L2362.64 423.24 L2379.09 423.36 L2395.55 423.61 L2412.01 423.73 L2428.47 423.86 L2444.93 423.86 L2461.39 424.10 L2477.85 424.10 L2494.30 424.23 L2510.76 424.35 L2527.10 424.48 L2543.56 424.48 L2560.02 424.60 L2576.47 424.60 L2592.93 424.85 L2609.39 424.97 L2625.85 424.97 L2642.31 425.22 L2658.77 425.47 L2675.23 425.59 L2691.69 425.59 L2708.14 425.71 L2724.60 425.84 L2741.06 425.96 L2757.52 426.08 L2773.98 426.21 L2790.44 426.21 L2806.90 426.46 L2823.36 426.46 L2839.82 426.70 L2856.27 426.83 L2872.73 426.95 L2889.19 427.07 L2905.65 427.32 L2922.11 427.45 L2938.57 427.69 L2955.03 427.82 L2971.49 427.94 L2987.94 428.19 L3004.40 428.31 L3020.74 428.44 L3037.20 428.68 L3053.66 428.81 L3070.11 428.93 L3086.57 429.05 L3103.03 429.30 L3119.49 429.43 L3135.95 429.55 L3152.41 429.80 L3168.87 429.92 L3185.32 430.17 L3201.78 430.42 L3218.24 430.66 L3234.70 430.79 L3251.16 430.91 L3267.62 431.16 L3284.08 431.28 L3300.54 431.53 L3316.99 431.53 L3333.45 431.65 L3349.91 431.78 L3366.37 432.02 L3382.83 432.27 L3399.29 432.52 L3415.75 432.64 L3432.21 432.89 L3448.66 433.01 L3465.12 433.26 L3481.58 433.39 L3498.04 433.51 L3514.38 433.76 L3530.84 434.00 L3547.29 434.25 L3563.75 434.50 L3563.75 1953.70 L618.38 1953.70 L618.38 420.02 Z" stroke-linejoin="round"/>
	</defs>
	<defs>
		<clipPath id="clipPath_ZZOvmfoC">
			<use xlink:href="#path_mWtFWoEk"/>
		</clipPath>
	</defs>
	<use xlink:href="#path_mWtFWoEk" style="stroke:none;fill:#A65D62"/>
	<use xlink:href="#path_mWtFWoEk" style="fill:none;stroke:#90353B;stroke-width:17.28" clip-path="url(#clipPath_ZZOvmfoC)"/>
	<defs>
		<path id="path_dMnAOnPm" d="M618.38 420.02 L618.38 420.02 L634.84 420.02 L651.30 420.02 L667.75 420.02 L684.21 420.02 L700.67 420.02 L717.13 420.02 L733.59 420.02 L750.05 420.02 L766.51 420.02 L782.97 420.02 L799.42 420.02 L815.88 420.02 L832.34 420.02 L848.80 420.02 L865.26 420.02 L881.72 420.02 L898.18 420.02 L914.64 420.02 L931.10 420.02 L947.55 420.14 L964.01 420.14 L980.47 420.14 L996.93 420.14 L1013.39 420.14 L1029.72 420.14 L1046.18 420.27 L1062.64 420.27 L1079.10 420.39 L1095.56 420.39 L1112.02 420.39 L1128.48 420.52 L1144.93 420.52 L1161.39 420.64 L1177.85 420.64 L1194.31 420.76 L1210.77 420.76 L1227.23 420.89 L1243.69 420.89 L1260.15 420.89 L1276.61 421.01 L1293.06 421.13 L1309.52 421.13 L1325.98 421.26 L1342.44 421.26 L1358.90 421.38 L1375.36 421.51 L1391.82 421.51 L1408.28 421.63 L1424.73 421.75 L1441.19 421.88 L1457.65 422.00 L1474.11 422.25 L1490.57 422.50 L1507.03 422.50 L1523.36 422.62 L1539.82 422.74 L1556.28 422.87 L1572.74 423.11 L1589.20 423.24 L1605.66 423.36 L1622.12 423.61 L1638.57 423.86 L1655.03 423.98 L1671.49 424.23 L1687.95 424.35 L1704.41 424.60 L1720.87 424.85 L1737.33 424.97 L1753.79 425.22 L1770.24 425.34 L1786.70 425.59 L1803.16 425.71 L1819.62 425.96 L1836.08 426.21 L1852.54 426.33 L1869.00 426.58 L1885.45 426.83 L1901.91 427.07 L1918.37 427.32 L1934.83 427.57 L1951.29 427.82 L1967.75 427.94 L1984.21 428.19 L2000.67 428.44 L2017.00 428.68 L2033.46 429.05 L2049.92 429.18 L2066.38 429.55 L2082.84 429.80 L2099.30 430.04 L2115.75 430.29 L2132.21 430.54 L2148.67 430.79 L2165.13 431.03 L2181.59 431.41 L2198.05 431.65 L2214.51 432.02 L2230.97 432.27 L2247.42 432.77 L2263.88 433.14 L2280.34 433.26 L2296.80 433.51 L2313.26 433.88 L2329.72 434.38 L2346.18 434.62 L2362.64 434.87 L2379.09 435.24 L2395.55 435.49 L2412.01 435.98 L2428.47 436.48 L2444.93 436.73 L2461.39 437.10 L2477.85 437.59 L2494.30 437.84 L2510.76 438.21 L2527.10 438.46 L2543.56 438.83 L2560.02 439.33 L2576.47 439.70 L2592.93 439.94 L2609.39 440.44 L2625.85 440.94 L2642.31 441.31 L2658.77 441.68 L2675.23 442.05 L2691.69 442.30 L2708.14 442.67 L2724.60 443.04 L2741.06 443.53 L2757.52 443.91 L2773.98 444.15 L2790.44 444.65 L2806.90 445.02 L2823.36 445.51 L2839.82 446.01 L2856.27 446.50 L2872.73 446.75 L2889.19 447.12 L2905.65 447.49 L2922.11 447.74 L2938.57 448.24 L2955.03 448.73 L2971.49 449.10 L2987.94 449.47 L3004.40 449.72 L3020.74 450.22 L3037.20 450.59 L3053.66 450.84 L3070.11 451.33 L3086.57 451.83 L3103.03 452.20 L3119.49 452.69 L3135.95 453.06 L3152.41 453.56 L3168.87 454.05 L3185.32 454.55 L3201.78 455.04 L3218.24 455.54 L3234.70 455.91 L3251.16 456.28 L3267.62 456.65 L3284.08 457.15 L3300.54 457.52 L3316.99 457.89 L3333.45 458.51 L3349.91 458.88 L3366.37 459.37 L3382.83 459.87 L3399.29 460.24 L3415.75 460.74 L3432.21 461.23 L3448.66 461.60 L3465.12 462.10 L3481.58 462.59 L3498.04 462.96 L3514.38 463.58 L3530.84 464.08 L3547.29 464.57 L3563.75 465.07 L3563.75 1953.70 L618.38 1953.70 L618.38 420.02 Z" stroke-linejoin="round"/>
	</defs>
	<defs>
		<clipPath id="clipPath_EyjorCMj">
			<use xlink:href="#path_dMnAOnPm"/>
		</clipPath>
	</defs>
	<use xlink:href="#path_dMnAOnPm" style="stroke:none;fill:#779159"/>
	<use xlink:href="#path_dMnAOnPm" style="fill:none;stroke:#55752F;stroke-width:17.28" clip-path="url(#clipPath_EyjorCMj)"/>
	<defs>
		<path id="path_wcZAkCSM" d="M618.38 420.02 L618.38 420.02 L634.84 420.14 L651.30 420.14 L667.75 420.27 L684.21 420.39 L700.67 420.39 L717.13 420.52 L733.59 420.64 L750.05 420.76 L766.51 421.01 L782.97 421.26 L799.42 421.38 L815.88 421.75 L832.34 422.00 L848.80 422.25 L865.26 422.62 L881.72 422.87 L898.18 423.24 L914.64 423.73 L931.10 424.23 L947.55 424.72 L964.01 425.09 L980.47 425.47 L996.93 425.96 L1013.39 426.46 L1029.72 427.07 L1046.18 427.57 L1062.64 428.19 L1079.10 428.68 L1095.56 429.43 L1112.02 430.04 L1128.48 430.54 L1144.93 431.03 L1161.39 431.53 L1177.85 432.27 L1194.31 433.14 L1210.77 433.76 L1227.23 434.50 L1243.69 435.49 L1260.15 436.36 L1276.61 437.10 L1293.06 437.72 L1309.52 438.46 L1325.98 439.20 L1342.44 439.94 L1358.90 440.69 L1375.36 441.43 L1391.82 442.30 L1408.28 443.04 L1424.73 443.91 L1441.19 444.90 L1457.65 445.89 L1474.11 446.75 L1490.57 447.49 L1507.03 448.61 L1523.36 449.47 L1539.82 450.34 L1556.28 451.33 L1572.74 452.32 L1589.20 453.19 L1605.66 454.18 L1622.12 455.17 L1638.57 456.03 L1655.03 457.02 L1671.49 458.14 L1687.95 459.13 L1704.41 460.12 L1720.87 461.11 L1737.33 462.10 L1753.79 463.09 L1770.24 464.20 L1786.70 465.19 L1803.16 466.18 L1819.62 467.54 L1836.08 468.41 L1852.54 469.52 L1869.00 470.64 L1885.45 471.63 L1901.91 472.49 L1918.37 473.48 L1934.83 474.60 L1951.29 475.59 L1967.75 476.70 L1984.21 477.81 L2000.67 478.93 L2017.00 479.79 L2033.46 480.78 L2049.92 481.90 L2066.38 482.89 L2082.84 484.13 L2099.30 485.12 L2115.75 486.11 L2132.21 487.22 L2148.67 488.33 L2165.13 489.20 L2181.59 490.44 L2198.05 491.43 L2214.51 492.54 L2230.97 493.53 L2247.42 494.52 L2263.88 495.63 L2280.34 496.75 L2296.80 497.74 L2313.26 498.98 L2329.72 500.09 L2346.18 501.20 L2362.64 502.32 L2379.09 503.43 L2395.55 504.54 L2412.01 505.41 L2428.47 506.52 L2444.93 507.89 L2461.39 508.75 L2477.85 509.87 L2494.30 511.10 L2510.76 511.97 L2527.10 512.71 L2543.56 513.70 L2560.02 514.69 L2576.47 515.81 L2592.93 516.92 L2609.39 518.03 L2625.85 519.39 L2642.31 520.39 L2658.77 521.75 L2675.23 522.74 L2691.69 523.85 L2708.14 524.72 L2724.60 525.71 L2741.06 526.82 L2757.52 527.56 L2773.98 528.92 L2790.44 529.79 L2806.90 531.03 L2823.36 532.27 L2839.82 533.26 L2856.27 534.37 L2872.73 535.36 L2889.19 536.35 L2905.65 537.34 L2922.11 538.45 L2938.57 539.57 L2955.03 540.56 L2971.49 541.55 L2987.94 542.41 L3004.40 543.53 L3020.74 544.52 L3037.20 545.63 L3053.66 546.62 L3070.11 547.61 L3086.57 548.72 L3103.03 549.59 L3119.49 550.58 L3135.95 551.69 L3152.41 552.56 L3168.87 553.30 L3185.32 554.54 L3201.78 555.53 L3218.24 556.52 L3234.70 557.39 L3251.16 558.62 L3267.62 559.61 L3284.08 560.85 L3300.54 561.84 L3316.99 562.83 L3333.45 563.82 L3349.91 564.94 L3366.37 566.17 L3382.83 567.29 L3399.29 568.15 L3415.75 569.14 L3432.21 570.13 L3448.66 571.12 L3465.12 572.24 L3481.58 573.10 L3498.04 574.09 L3514.38 574.84 L3530.84 575.70 L3547.29 576.69 L3563.75 577.81 L3563.75 1953.70 L618.38 1953.70 L618.38 420.02 Z" stroke-linejoin="round"/>
	</defs>
	<defs>
		<clipPath id="clipPath_oOaVbldQ">
			<use xlink:href="#path_wcZAkCSM"/>
		</clipPath>
	</defs>
	<use xlink:href="#path_wcZAkCSM" style="stroke:none;fill:#E99833"/>
	<use xlink:href="#path_wcZAkCSM" style="fill:none;stroke:#E37E00;stroke-width:17.28" clip-path="url(#clipPath_oOaVbldQ)"/>
	<defs>
		<path id="path_cOqLyjTp" d="M618.38 434.13 L618.38 434.13 L634.84 437.35 L651.30 441.06 L667.75 445.27 L684.21 449.10 L700.67 453.43 L717.13 457.77 L733.59 461.85 L750.05 465.93 L766.51 469.89 L782.97 473.98 L799.42 478.56 L815.88 482.89 L832.34 487.34 L848.80 491.67 L865.26 496.13 L881.72 500.21 L898.18 504.79 L914.64 509.37 L931.10 513.58 L947.55 517.29 L964.01 521.38 L980.47 525.58 L996.93 530.29 L1013.39 534.49 L1029.72 538.70 L1046.18 542.91 L1062.64 546.74 L1079.10 551.20 L1095.56 554.91 L1112.02 558.50 L1128.48 562.71 L1144.93 566.42 L1161.39 570.26 L1177.85 574.09 L1194.31 577.81 L1210.77 581.52 L1227.23 585.60 L1243.69 589.32 L1260.15 593.28 L1276.61 596.86 L1293.06 600.45 L1309.52 603.92 L1325.98 607.51 L1342.44 610.97 L1358.90 614.31 L1375.36 617.90 L1391.82 621.49 L1408.28 624.96 L1424.73 628.30 L1441.19 631.39 L1457.65 634.86 L1474.11 638.20 L1490.57 641.17 L1507.03 644.14 L1523.36 647.36 L1539.82 650.70 L1556.28 654.16 L1572.74 657.50 L1589.20 660.47 L1605.66 663.69 L1622.12 666.91 L1638.57 670.50 L1655.03 673.47 L1671.49 676.56 L1687.95 679.78 L1704.41 682.75 L1720.87 685.84 L1737.33 688.20 L1753.79 691.41 L1770.24 694.63 L1786.70 697.11 L1803.16 700.32 L1819.62 702.80 L1836.08 705.52 L1852.54 708.24 L1869.00 710.97 L1885.45 713.56 L1901.91 716.41 L1918.37 719.26 L1934.83 721.86 L1951.29 724.46 L1967.75 726.68 L1984.21 729.28 L2000.67 731.63 L2017.00 734.36 L2033.46 736.95 L2049.92 739.68 L2066.38 742.15 L2082.84 744.38 L2099.30 746.98 L2115.75 749.21 L2132.21 751.56 L2148.67 753.91 L2165.13 756.51 L2181.59 758.61 L2198.05 760.96 L2214.51 763.44 L2230.97 765.67 L2247.42 767.89 L2263.88 769.75 L2280.34 771.73 L2296.80 773.96 L2313.26 775.69 L2329.72 777.92 L2346.18 780.14 L2362.64 782.12 L2379.09 784.23 L2395.55 786.33 L2412.01 788.44 L2428.47 790.42 L2444.93 792.77 L2461.39 794.75 L2477.85 796.85 L2494.30 799.08 L2510.76 801.31 L2527.10 803.53 L2543.56 805.51 L2560.02 807.62 L2576.47 809.60 L2592.93 811.58 L2609.39 813.81 L2625.85 815.66 L2642.31 818.01 L2658.77 820.12 L2675.23 821.85 L2691.69 823.46 L2708.14 825.19 L2724.60 827.17 L2741.06 829.27 L2757.52 831.25 L2773.98 832.86 L2790.44 834.60 L2806.90 836.45 L2823.36 838.31 L2839.82 840.29 L2856.27 842.27 L2872.73 844.00 L2889.19 845.61 L2905.65 847.59 L2922.11 849.69 L2938.57 851.18 L2955.03 853.04 L2971.49 854.77 L2987.94 856.50 L3004.40 857.99 L3020.74 859.97 L3037.20 861.57 L3053.66 863.18 L3070.11 864.79 L3086.57 866.52 L3103.03 867.89 L3119.49 869.12 L3135.95 870.61 L3152.41 872.34 L3168.87 873.70 L3185.32 875.06 L3201.78 876.67 L3218.24 878.16 L3234.70 879.64 L3251.16 881.50 L3267.62 882.98 L3284.08 884.35 L3300.54 886.20 L3316.99 887.56 L3333.45 889.17 L3349.91 890.53 L3366.37 891.89 L3382.83 893.38 L3399.29 894.49 L3415.75 895.73 L3432.21 897.34 L3448.66 898.82 L3465.12 900.19 L3481.58 901.79 L3498.04 903.16 L3514.38 904.52 L3530.84 906.00 L3547.29 907.49 L3563.75 908.72 L3563.75 1953.70 L618.38 1953.70 L618.38 434.13 Z" stroke-linejoin="round"/>
	</defs>
	<defs>
		<clipPath id="clipPath_VFegXsAS">
			<use xlink:href="#path_cOqLyjTp"/>
		</clipPath>
	</defs>
	<use xlink:href="#path_cOqLyjTp" style="stroke:none;fill:#8BA59D"/>
	<use xlink:href="#path_cOqLyjTp" style="fill:none;stroke:#6E8E84;stroke-width:17.28" clip-path="url(#clipPath_VFegXsAS)"/>
	<line x1="465.80" y1="1953.70" x2="465.80" y2="419.90" style="stroke:#000000;stroke-width:5.76"/>
	<line x1="465.80" y1="1953.70" x2="425.82" y2="1953.70" style="stroke:#000000;stroke-width:5.76"/>
	<text x="405.78" y="1988.73" style="font-family:'Helvetica';font-size:99.99px;fill:#000000" text-anchor="end">0.0</text>
	<line x1="465.80" y1="1800.37" x2="425.82" y2="1800.37" style="stroke:#000000;stroke-width:5.76"/>
	<text x="405.78" y="1835.40" style="font-family:'Helvetica';font-size:99.99px;fill:#000000" text-anchor="end">0.1</text>
	<line x1="465.80" y1="1646.92" x2="425.82" y2="1646.92" style="stroke:#000000;stroke-width:5.76"/>
	<text x="405.78" y="1681.94" style="font-family:'Helvetica';font-size:99.99px;fill:#000000" text-anchor="end">0.2</text>
	<line x1="465.80" y1="1493.59" x2="425.82" y2="1493.59" style="stroke:#000000;stroke-width:5.76"/>
	<text x="405.78" y="1528.61" style="font-family:'Helvetica';font-size:99.99px;fill:#000000" text-anchor="end">0.3</text>
	<line x1="465.80" y1="1340.13" x2="425.82" y2="1340.13" style="stroke:#000000;stroke-width:5.76"/>
	<text x="405.78" y="1375.16" style="font-family:'Helvetica';font-size:99.99px;fill:#000000" text-anchor="end">0.4</text>
	<line x1="465.80" y1="1186.80" x2="425.82" y2="1186.80" style="stroke:#000000;stroke-width:5.76"/>
	<text x="405.78" y="1221.83" style="font-family:'Helvetica';font-size:99.99px;fill:#000000" text-anchor="end">0.5</text>
	<line x1="465.80" y1="1033.47" x2="425.82" y2="1033.47" style="stroke:#000000;stroke-width:5.76"/>
	<text x="405.78" y="1068.50" style="font-family:'Helvetica';font-size:99.99px;fill:#000000" text-anchor="end">0.6</text>
	<line x1="465.80" y1="880.01" x2="425.82" y2="880.01" style="stroke:#000000;stroke-width:5.76"/>
	<text x="405.78" y="915.04" style="font-family:'Helvetica';font-size:99.99px;fill:#000000" text-anchor="end">0.7</text>
	<line x1="465.80" y1="726.68" x2="425.82" y2="726.68" style="stroke:#000000;stroke-width:5.76"/>
	<text x="405.78" y="761.71" style="font-family:'Helvetica';font-size:99.99px;fill:#000000" text-anchor="end">0.8</text>
	<line x1="465.80" y1="573.35" x2="425.82" y2="573.35" style="stroke:#000000;stroke-width:5.76"/>
	<text x="405.78" y="608.38" style="font-family:'Helvetica';font-size:99.99px;fill:#000000" text-anchor="end">0.9</text>
	<line x1="465.80" y1="419.90" x2="425.82" y2="419.90" style="stroke:#000000;stroke-width:5.76"/>
	<text x="405.78" y="454.93" style="font-family:'Helvetica';font-size:99.99px;fill:#000000" text-anchor="end">1.0</text>
	<text x="190.71" y="1186.80" style="font-family:'Helvetica';font-size:99.99px;fill:#000000" transform="rotate(-90 190.71,1186.80)" text-anchor="middle">Transition Probability</text>
	<line x1="465.80" y1="1953.70" x2="3859.02" y2="1953.70" style="stroke:#000000;stroke-width:5.76"/>
	<line x1="465.80" y1="1953.70" x2="465.80" y2="1993.67" style="stroke:#000000;stroke-width:5.76"/>
	<text x="465.80" y="2083.66" style="font-family:'Helvetica';font-size:99.99px;fill:#000000" text-anchor="middle">0</text>
	<line x1="1314.10" y1="1953.70" x2="1314.10" y2="1993.67" style="stroke:#000000;stroke-width:5.76"/>
	<text x="1314.10" y="2083.66" style="font-family:'Helvetica';font-size:99.99px;fill:#000000" text-anchor="middle">500</text>
	<line x1="2162.41" y1="1953.70" x2="2162.41" y2="1993.67" style="stroke:#000000;stroke-width:5.76"/>
	<text x="2162.41" y="2083.66" style="font-family:'Helvetica';font-size:99.99px;fill:#000000" text-anchor="middle">1000</text>
	<line x1="3010.71" y1="1953.70" x2="3010.71" y2="1993.67" style="stroke:#000000;stroke-width:5.76"/>
	<text x="3010.71" y="2083.66" style="font-family:'Helvetica';font-size:99.99px;fill:#000000" text-anchor="middle">1500</text>
	<line x1="3859.02" y1="1953.70" x2="3859.02" y2="1993.67" style="stroke:#000000;stroke-width:5.76"/>
	<text x="3859.02" y="2083.66" style="font-family:'Helvetica';font-size:99.99px;fill:#000000" text-anchor="middle">2000</text>
	<text x="2162.41" y="2193.67" style="font-family:'Helvetica';font-size:99.99px;fill:#000000" text-anchor="middle">Follow-up time</text>
	<rect x="614.42" y="2278.31" width="3095.98" height="466.30" style="fill:#FFFFFF"/>
	<rect x="617.30" y="2281.19" width="3090.22" height="460.54" style="fill:none;stroke:#000000;stroke-width:5.76"/>
	<rect x="657.61" y="2321.50" width="374.47" height="99.99" style="fill:#8BA59D"/>
	<rect x="661.93" y="2325.82" width="365.83" height="91.35" style="fill:none;stroke:#6E8E84;stroke-width:8.64"/>
	<rect x="2232.45" y="2321.50" width="374.34" height="99.99" style="fill:#E99833"/>
	<rect x="2236.77" y="2325.82" width="365.70" height="91.35" style="fill:none;stroke:#E37E00;stroke-width:8.64"/>
	<rect x="657.61" y="2461.46" width="374.47" height="99.99" style="fill:#779159"/>
	<rect x="661.93" y="2465.78" width="365.83" height="91.35" style="fill:none;stroke:#55752F;stroke-width:8.64"/>
	<rect x="2232.45" y="2461.46" width="374.34" height="99.99" style="fill:#A65D62"/>
	<rect x="2236.77" y="2465.78" width="365.70" height="91.35" style="fill:none;stroke:#90353B;stroke-width:8.64"/>
	<rect x="657.61" y="2601.43" width="374.47" height="99.99" style="fill:#486C8C"/>
	<rect x="661.93" y="2605.75" width="365.83" height="91.35" style="fill:none;stroke:#1A476F;stroke-width:8.64"/>
	<text x="1092.09" y="2406.52" style="font-family:'Helvetica';font-size:99.99px;fill:#000000">P(Y(t) = 1 | Y(90) = 1)</text>
	<text x="2666.81" y="2406.52" style="font-family:'Helvetica';font-size:99.99px;fill:#000000">P(Y(t) = 2 | Y(90) = 1)</text>
	<text x="1092.09" y="2546.49" style="font-family:'Helvetica';font-size:99.99px;fill:#000000">P(Y(t) = 3 | Y(90) = 1)</text>
	<text x="2666.81" y="2546.49" style="font-family:'Helvetica';font-size:99.99px;fill:#000000">P(Y(t) = 4 | Y(90) = 1)</text>
	<text x="1092.09" y="2686.46" style="font-family:'Helvetica';font-size:99.99px;fill:#000000">P(Y(t) = 5 | Y(90) = 1)</text>
	<text x="2162.41" y="369.63" style="font-family:'Helvetica';font-size:110.01px;fill:#000000" text-anchor="middle">From Admission(1), Ambulatory</text>
	<text x="2162.41" y="215.98" style="font-family:'Helvetica';font-size:139.96px;fill:#1E2D53" text-anchor="middle">P(Y(t) = b | Y(90) = 1, at1)</text>
</svg>
