<?xml version="1.0" encoding="UTF-8" standalone="no"?>
<!-- This is a Stata 16.1 generated SVG file (http://www.stata.com) -->

<svg version="1.1" width="5.50in" height="4.00in" viewBox="0 0 3960 2880" xmlns="http://www.w3.org/2000/svg" xmlns:xlink="http://www.w3.org/1999/xlink">
	<desc>Stata Graph - gh_1_2</desc>
	<rect x="0" y="0" width="3960" height="2880" style="fill:#EAF2F3;stroke:none"/>
	<rect x="0.00" y="0.00" width="3959.88" height="2880.00" style="fill:#FFFFFF"/>
	<rect x="2.88" y="2.88" width="3954.12" height="2874.24" style="fill:none;stroke:#EAF2F3;stroke-width:5.76"/>
	<rect x="465.80" y="419.90" width="3393.22" height="1533.81" style="fill:#FFFFFF"/>
	<rect x="468.67" y="422.78" width="3387.47" height="1528.05" style="fill:none;stroke:#FFFFFF;stroke-width:5.76"/>
	<line x1="465.80" y1="1953.70" x2="3859.02" y2="1953.70" style="stroke:#EAF2F3;stroke-width:8.64"/>
	<line x1="465.80" y1="1800.37" x2="3859.02" y2="1800.37" style="stroke:#EAF2F3;stroke-width:8.64"/>
	<line x1="465.80" y1="1646.92" x2="3859.02" y2="1646.92" style="stroke:#EAF2F3;stroke-width:8.64"/>
	<line x1="465.80" y1="1493.59" x2="3859.02" y2="1493.59" style="stroke:#EAF2F3;stroke-width:8.64"/>
	<line x1="465.80" y1="1340.13" x2="3859.02" y2="1340.13" style="stroke:#EAF2F3;stroke-width:8.64"/>
	<line x1="465.80" y1="1186.80" x2="3859.02" y2="1186.80" style="stroke:#EAF2F3;stroke-width:8.64"/>
	<line x1="465.80" y1="1033.47" x2="3859.02" y2="1033.47" style="stroke:#EAF2F3;stroke-width:8.64"/>
	<line x1="465.80" y1="880.01" x2="3859.02" y2="880.01" style="stroke:#EAF2F3;stroke-width:8.64"/>
	<line x1="465.80" y1="726.68" x2="3859.02" y2="726.68" style="stroke:#EAF2F3;stroke-width:8.64"/>
	<line x1="465.80" y1="573.35" x2="3859.02" y2="573.35" style="stroke:#EAF2F3;stroke-width:8.64"/>
	<line x1="465.80" y1="419.90" x2="3859.02" y2="419.90" style="stroke:#EAF2F3;stroke-width:8.64"/>
	<defs>
		<path id="path_VSiSUDKx" d="M618.38 420.02 L618.38 420.02 L634.84 420.02 L651.30 420.02 L667.75 420.02 L684.21 420.02 L700.67 420.02 L717.13 420.02 L733.59 420.02 L750.05 420.02 L766.51 420.02 L782.97 420.02 L799.42 420.02 L815.88 420.02 L832.34 420.02 L848.80 420.02 L865.26 420.02 L881.72 420.02 L898.18 420.02 L914.64 420.02 L931.10 420.02 L947.55 420.02 L964.01 420.02 L980.47 420.02 L996.93 420.02 L1013.39 420.02 L1029.72 420.02 L1046.18 420.02 L1062.64 420.02 L1079.10 420.02 L1095.56 420.02 L1112.02 420.02 L1128.48 420.02 L1144.93 420.02 L1161.39 420.02 L1177.85 420.02 L1194.31 420.02 L1210.77 420.02 L1227.23 420.02 L1243.69 420.02 L1260.15 420.02 L1276.61 420.02 L1293.06 420.02 L1309.52 420.02 L1325.98 420.02 L1342.44 420.02 L1358.90 420.02 L1375.36 420.02 L1391.82 420.02 L1408.28 420.02 L1424.73 420.02 L1441.19 420.02 L1457.65 420.02 L1474.11 420.02 L1490.57 420.02 L1507.03 420.02 L1523.36 420.02 L1539.82 420.02 L1556.28 420.02 L1572.74 420.02 L1589.20 420.02 L1605.66 420.02 L1622.12 420.02 L1638.57 420.02 L1655.03 420.02 L1671.49 420.02 L1687.95 420.02 L1704.41 420.02 L1720.87 420.02 L1737.33 420.02 L1753.79 420.02 L1770.24 420.02 L1786.70 420.02 L1803.16 420.02 L1819.62 420.02 L1836.08 420.02 L1852.54 420.02 L1869.00 420.02 L1885.45 420.02 L1901.91 420.02 L1918.37 420.02 L1934.83 420.02 L1951.29 420.02 L1967.75 420.02 L1984.21 420.02 L2000.67 420.02 L2017.00 420.02 L2033.46 420.02 L2049.92 420.02 L2066.38 420.02 L2082.84 420.02 L2099.30 420.02 L2115.75 420.02 L2132.21 420.02 L2148.67 420.02 L2165.13 420.02 L2181.59 420.02 L2198.05 420.02 L2214.51 420.02 L2230.97 420.02 L2247.42 420.02 L2263.88 420.02 L2280.34 420.02 L2296.80 420.02 L2313.26 420.02 L2329.72 420.02 L2346.18 420.02 L2362.64 420.02 L2379.09 420.02 L2395.55 420.02 L2412.01 420.02 L2428.47 420.02 L2444.93 420.02 L2461.39 420.02 L2477.85 420.02 L2494.30 420.02 L2510.76 420.02 L2527.10 420.02 L2543.56 420.02 L2560.02 420.02 L2576.47 420.02 L2592.93 420.02 L2609.39 420.02 L2625.85 420.02 L2642.31 420.02 L2658.77 420.02 L2675.23 420.02 L2691.69 420.02 L2708.14 420.02 L2724.60 420.02 L2741.06 420.02 L2757.52 420.02 L2773.98 420.02 L2790.44 420.02 L2806.90 420.02 L2823.36 420.02 L2839.82 420.02 L2856.27 420.02 L2872.73 420.02 L2889.19 420.02 L2905.65 420.02 L2922.11 420.02 L2938.57 420.02 L2955.03 420.02 L2971.49 420.02 L2987.94 420.02 L3004.40 420.02 L3020.74 420.02 L3037.20 420.02 L3053.66 420.02 L3070.11 420.02 L3086.57 420.02 L3103.03 420.02 L3119.49 420.02 L3135.95 420.02 L3152.41 420.02 L3168.87 420.02 L3185.32 420.02 L3201.78 420.02 L3218.24 420.02 L3234.70 420.02 L3251.16 420.02 L3267.62 420.02 L3284.08 420.02 L3300.54 420.02 L3316.99 420.02 L3333.45 420.02 L3349.91 420.02 L3366.37 420.02 L3382.83 420.02 L3399.29 420.02 L3415.75 420.02 L3432.21 420.02 L3448.66 420.02 L3465.12 420.02 L3481.58 420.02 L3498.04 420.02 L3514.38 420.02 L3530.84 420.02 L3547.29 420.02 L3563.75 420.02 L3563.75 1953.70 L618.38 1953.70 L618.38 420.02 Z" stroke-linejoin="round"/>
	</defs>
	<defs>
		<clipPath id="clipPath_kcFpMIon">
			<use xlink:href="#path_VSiSUDKx"/>
		</clipPath>
	</defs>
	<use xlink:href="#path_VSiSUDKx" style="stroke:none;fill:#486C8C"/>
	<use xlink:href="#path_VSiSUDKx" style="fill:none;stroke:#1A476F;stroke-width:17.28" clip-path="url(#clipPath_kcFpMIon)"/>
	<defs>
		<path id="path_cuwjEAAx" d="M618.38 420.02 L618.38 420.02 L634.84 420.02 L651.30 420.02 L667.75 420.02 L684.21 420.02 L700.67 420.02 L717.13 420.02 L733.59 420.02 L750.05 420.02 L766.51 420.02 L782.97 420.02 L799.42 420.02 L815.88 420.02 L832.34 420.02 L848.80 420.02 L865.26 420.02 L881.72 420.02 L898.18 420.14 L914.64 420.14 L931.10 420.14 L947.55 420.14 L964.01 420.14 L980.47 420.27 L996.93 420.27 L1013.39 420.27 L1029.72 420.27 L1046.18 420.39 L1062.64 420.39 L1079.10 420.52 L1095.56 420.52 L1112.02 420.52 L1128.48 420.64 L1144.93 420.64 L1161.39 420.76 L1177.85 420.76 L1194.31 420.76 L1210.77 420.89 L1227.23 420.89 L1243.69 421.01 L1260.15 421.13 L1276.61 421.13 L1293.06 421.26 L1309.52 421.38 L1325.98 421.51 L1342.44 421.63 L1358.90 421.75 L1375.36 421.75 L1391.82 421.88 L1408.28 422.00 L1424.73 422.12 L1441.19 422.25 L1457.65 422.37 L1474.11 422.50 L1490.57 422.62 L1507.03 422.74 L1523.36 422.87 L1539.82 423.11 L1556.28 423.24 L1572.74 423.49 L1589.20 423.73 L1605.66 423.98 L1622.12 424.35 L1638.57 424.60 L1655.03 424.97 L1671.49 425.34 L1687.95 425.59 L1704.41 425.96 L1720.87 426.21 L1737.33 426.58 L1753.79 426.83 L1770.24 427.20 L1786.70 427.45 L1803.16 427.82 L1819.62 428.19 L1836.08 428.68 L1852.54 428.93 L1869.00 429.30 L1885.45 429.67 L1901.91 430.04 L1918.37 430.42 L1934.83 430.79 L1951.29 431.03 L1967.75 431.41 L1984.21 431.78 L2000.67 432.27 L2017.00 432.64 L2033.46 433.01 L2049.92 433.51 L2066.38 433.63 L2082.84 433.88 L2099.30 434.25 L2115.75 434.87 L2132.21 435.12 L2148.67 435.61 L2165.13 436.11 L2181.59 436.60 L2198.05 437.10 L2214.51 437.59 L2230.97 438.09 L2247.42 438.46 L2263.88 439.08 L2280.34 439.57 L2296.80 440.19 L2313.26 440.69 L2329.72 441.18 L2346.18 441.80 L2362.64 442.17 L2379.09 442.67 L2395.55 443.16 L2412.01 443.66 L2428.47 444.28 L2444.93 444.90 L2461.39 445.39 L2477.85 445.89 L2494.30 446.50 L2510.76 447.12 L2527.10 447.62 L2543.56 448.24 L2560.02 448.73 L2576.47 449.23 L2592.93 449.85 L2609.39 450.22 L2625.85 450.84 L2642.31 451.45 L2658.77 452.20 L2675.23 452.82 L2691.69 453.31 L2708.14 453.68 L2724.60 454.30 L2741.06 454.80 L2757.52 455.41 L2773.98 456.16 L2790.44 456.65 L2806.90 457.27 L2823.36 457.77 L2839.82 458.38 L2856.27 459.00 L2872.73 459.50 L2889.19 460.12 L2905.65 460.86 L2922.11 461.23 L2938.57 461.85 L2955.03 462.34 L2971.49 462.84 L2987.94 463.33 L3004.40 464.20 L3020.74 464.70 L3037.20 465.19 L3053.66 465.69 L3070.11 466.55 L3086.57 467.29 L3103.03 468.04 L3119.49 468.66 L3135.95 469.40 L3152.41 469.89 L3168.87 470.76 L3185.32 471.25 L3201.78 472.00 L3218.24 472.49 L3234.70 473.11 L3251.16 473.85 L3267.62 474.47 L3284.08 474.84 L3300.54 475.59 L3316.99 476.20 L3333.45 476.95 L3349.91 477.44 L3366.37 478.06 L3382.83 478.68 L3399.29 479.55 L3415.75 480.29 L3432.21 480.91 L3448.66 481.65 L3465.12 482.27 L3481.58 482.76 L3498.04 483.38 L3514.38 484.13 L3530.84 484.87 L3547.29 485.49 L3563.75 486.23 L3563.75 1953.70 L618.38 1953.70 L618.38 420.02 Z" stroke-linejoin="round"/>
	</defs>
	<defs>
		<clipPath id="clipPath_EgPcmCsP">
			<use xlink:href="#path_cuwjEAAx"/>
		</clipPath>
	</defs>
	<use xlink:href="#path_cuwjEAAx" style="stroke:none;fill:#A65D62"/>
	<use xlink:href="#path_cuwjEAAx" style="fill:none;stroke:#90353B;stroke-width:17.28" clip-path="url(#clipPath_EgPcmCsP)"/>
	<defs>
		<path id="path_IJnmzNIK" d="M618.38 420.14 L618.38 420.14 L634.84 420.27 L651.30 420.39 L667.75 420.52 L684.21 420.64 L700.67 420.76 L717.13 421.01 L733.59 421.13 L750.05 421.38 L766.51 421.51 L782.97 421.75 L799.42 422.00 L815.88 422.37 L832.34 422.62 L848.80 422.87 L865.26 423.24 L881.72 423.61 L898.18 424.10 L914.64 424.35 L931.10 424.85 L947.55 425.34 L964.01 425.84 L980.47 426.33 L996.93 426.95 L1013.39 427.69 L1029.72 428.31 L1046.18 429.05 L1062.64 429.80 L1079.10 430.54 L1095.56 431.41 L1112.02 431.90 L1128.48 432.77 L1144.93 433.63 L1161.39 434.62 L1177.85 435.74 L1194.31 436.48 L1210.77 437.84 L1227.23 438.83 L1243.69 439.94 L1260.15 440.94 L1276.61 441.93 L1293.06 443.29 L1309.52 444.52 L1325.98 445.51 L1342.44 446.75 L1358.90 447.87 L1375.36 449.10 L1391.82 450.22 L1408.28 451.45 L1424.73 452.94 L1441.19 454.30 L1457.65 455.79 L1474.11 457.15 L1490.57 458.63 L1507.03 460.12 L1523.36 461.60 L1539.82 462.72 L1556.28 464.08 L1572.74 465.56 L1589.20 467.17 L1605.66 468.66 L1622.12 470.02 L1638.57 471.63 L1655.03 473.11 L1671.49 474.60 L1687.95 475.96 L1704.41 477.32 L1720.87 478.80 L1737.33 480.04 L1753.79 481.65 L1770.24 482.89 L1786.70 484.37 L1803.16 485.73 L1819.62 487.22 L1836.08 488.70 L1852.54 490.19 L1869.00 491.55 L1885.45 493.04 L1901.91 494.64 L1918.37 496.01 L1934.83 497.61 L1951.29 498.85 L1967.75 500.46 L1984.21 501.70 L2000.67 503.43 L2017.00 504.79 L2033.46 506.52 L2049.92 508.13 L2066.38 509.37 L2082.84 510.61 L2099.30 512.34 L2115.75 513.58 L2132.21 515.06 L2148.67 516.55 L2165.13 517.91 L2181.59 519.39 L2198.05 520.88 L2214.51 522.49 L2230.97 523.97 L2247.42 525.21 L2263.88 526.70 L2280.34 528.06 L2296.80 529.91 L2313.26 531.52 L2329.72 533.01 L2346.18 534.74 L2362.64 536.35 L2379.09 537.71 L2395.55 539.07 L2412.01 540.31 L2428.47 541.67 L2444.93 543.16 L2461.39 544.52 L2477.85 546.13 L2494.30 547.61 L2510.76 548.72 L2527.10 550.21 L2543.56 551.57 L2560.02 552.93 L2576.47 554.29 L2592.93 555.78 L2609.39 557.39 L2625.85 558.75 L2642.31 560.23 L2658.77 561.47 L2675.23 562.83 L2691.69 564.32 L2708.14 565.93 L2724.60 567.16 L2741.06 568.40 L2757.52 569.64 L2773.98 570.88 L2790.44 572.24 L2806.90 573.60 L2823.36 574.84 L2839.82 576.07 L2856.27 577.31 L2872.73 578.80 L2889.19 579.91 L2905.65 581.02 L2922.11 582.26 L2938.57 583.38 L2955.03 584.49 L2971.49 585.73 L2987.94 587.21 L3004.40 588.45 L3020.74 589.81 L3037.20 591.05 L3053.66 592.16 L3070.11 593.28 L3086.57 594.51 L3103.03 595.63 L3119.49 596.99 L3135.95 598.10 L3152.41 599.22 L3168.87 600.33 L3185.32 601.44 L3201.78 602.68 L3218.24 603.67 L3234.70 605.03 L3251.16 606.02 L3267.62 607.26 L3284.08 608.37 L3300.54 609.74 L3316.99 610.73 L3333.45 611.96 L3349.91 612.95 L3366.37 614.07 L3382.83 614.81 L3399.29 616.05 L3415.75 617.28 L3432.21 618.27 L3448.66 619.26 L3465.12 620.38 L3481.58 621.24 L3498.04 622.36 L3514.38 623.35 L3530.84 624.21 L3547.29 625.33 L3563.75 626.32 L3563.75 1953.70 L618.38 1953.70 L618.38 420.14 Z" stroke-linejoin="round"/>
	</defs>
	<defs>
		<clipPath id="clipPath_cSicebFT">
			<use xlink:href="#path_IJnmzNIK"/>
		</clipPath>
	</defs>
	<use xlink:href="#path_IJnmzNIK" style="stroke:none;fill:#779159"/>
	<use xlink:href="#path_IJnmzNIK" style="fill:none;stroke:#55752F;stroke-width:17.28" clip-path="url(#clipPath_cSicebFT)"/>
	<defs>
		<path id="path_MRkzhZOx" d="M618.38 449.60 L618.38 449.60 L634.84 454.05 L651.30 458.76 L667.75 463.21 L684.21 467.67 L700.67 472.24 L717.13 477.19 L733.59 482.27 L750.05 487.47 L766.51 492.66 L782.97 498.11 L799.42 503.43 L815.88 509.25 L832.34 514.69 L848.80 519.64 L865.26 525.21 L881.72 531.40 L898.18 537.09 L914.64 543.16 L931.10 548.97 L947.55 554.91 L964.01 560.85 L980.47 566.92 L996.93 572.86 L1013.39 578.43 L1029.72 584.86 L1046.18 591.05 L1062.64 597.48 L1079.10 603.30 L1095.56 609.12 L1112.02 614.81 L1128.48 620.87 L1144.93 626.69 L1161.39 632.13 L1177.85 638.07 L1194.31 643.27 L1210.77 648.84 L1227.23 654.53 L1243.69 660.10 L1260.15 665.55 L1276.61 671.24 L1293.06 676.69 L1309.52 681.51 L1325.98 686.71 L1342.44 691.41 L1358.90 696.61 L1375.36 701.19 L1391.82 705.40 L1408.28 710.10 L1424.73 714.68 L1441.19 719.38 L1457.65 723.84 L1474.11 727.80 L1490.57 731.63 L1507.03 735.96 L1523.36 740.30 L1539.82 743.88 L1556.28 747.72 L1572.74 751.31 L1589.20 755.27 L1605.66 758.73 L1622.12 762.45 L1638.57 766.04 L1655.03 769.25 L1671.49 772.35 L1687.95 775.57 L1704.41 778.78 L1720.87 782.00 L1737.33 785.22 L1753.79 788.19 L1770.24 791.41 L1786.70 794.87 L1803.16 797.84 L1819.62 801.06 L1836.08 804.40 L1852.54 807.37 L1869.00 810.34 L1885.45 813.19 L1901.91 816.40 L1918.37 819.62 L1934.83 822.34 L1951.29 824.82 L1967.75 827.29 L1984.21 830.39 L2000.67 832.74 L2017.00 835.34 L2033.46 837.94 L2049.92 840.78 L2066.38 843.51 L2082.84 845.73 L2099.30 848.33 L2115.75 850.93 L2132.21 853.41 L2148.67 855.63 L2165.13 857.86 L2181.59 860.21 L2198.05 862.44 L2214.51 864.54 L2230.97 866.77 L2247.42 868.63 L2263.88 870.61 L2280.34 872.46 L2296.80 874.32 L2313.26 876.30 L2329.72 878.40 L2346.18 880.39 L2362.64 882.61 L2379.09 884.59 L2395.55 886.57 L2412.01 888.55 L2428.47 890.53 L2444.93 892.27 L2461.39 894.00 L2477.85 895.73 L2494.30 897.34 L2510.76 899.32 L2527.10 900.93 L2543.56 902.78 L2560.02 904.64 L2576.47 906.25 L2592.93 908.23 L2609.39 909.84 L2625.85 911.32 L2642.31 912.93 L2658.77 914.79 L2675.23 916.27 L2691.69 918.01 L2708.14 919.37 L2724.60 920.98 L2741.06 922.46 L2757.52 923.70 L2773.98 925.06 L2790.44 926.79 L2806.90 928.40 L2823.36 929.76 L2839.82 931.00 L2856.27 932.73 L2872.73 934.22 L2889.19 935.83 L2905.65 937.56 L2922.11 939.04 L2938.57 940.53 L2955.03 941.77 L2971.49 943.25 L2987.94 944.61 L3004.40 945.97 L3020.74 947.46 L3037.20 948.82 L3053.66 950.06 L3070.11 951.42 L3086.57 952.53 L3103.03 953.65 L3119.49 954.88 L3135.95 956.00 L3152.41 957.61 L3168.87 958.60 L3185.32 959.96 L3201.78 961.20 L3218.24 962.31 L3234.70 963.67 L3251.16 964.79 L3267.62 965.90 L3284.08 967.14 L3300.54 968.25 L3316.99 969.36 L3333.45 970.48 L3349.91 971.59 L3366.37 972.95 L3382.83 974.19 L3399.29 975.30 L3415.75 976.42 L3432.21 977.66 L3448.66 978.65 L3465.12 979.88 L3481.58 981.00 L3498.04 982.11 L3514.38 982.98 L3530.84 984.21 L3547.29 985.45 L3563.75 986.57 L3563.75 1953.70 L618.38 1953.70 L618.38 449.60 Z" stroke-linejoin="round"/>
	</defs>
	<defs>
		<clipPath id="clipPath_VDzVCZBT">
			<use xlink:href="#path_MRkzhZOx"/>
		</clipPath>
	</defs>
	<use xlink:href="#path_MRkzhZOx" style="stroke:none;fill:#E99833"/>
	<use xlink:href="#path_MRkzhZOx" style="fill:none;stroke:#E37E00;stroke-width:17.28" clip-path="url(#clipPath_VDzVCZBT)"/>
	<defs>
		<path id="path_HPMZUkfX" d="M618.38 1953.70 L618.38 1953.70 L634.84 1953.70 L651.30 1953.70 L667.75 1953.70 L684.21 1953.70 L700.67 1953.70 L717.13 1953.70 L733.59 1953.70 L750.05 1953.70 L766.51 1953.70 L782.97 1953.70 L799.42 1953.70 L815.88 1953.70 L832.34 1953.70 L848.80 1953.70 L865.26 1953.70 L881.72 1953.70 L898.18 1953.70 L914.64 1953.70 L931.10 1953.70 L947.55 1953.70 L964.01 1953.70 L980.47 1953.70 L996.93 1953.70 L1013.39 1953.70 L1029.72 1953.70 L1046.18 1953.70 L1062.64 1953.70 L1079.10 1953.70 L1095.56 1953.70 L1112.02 1953.70 L1128.48 1953.70 L1144.93 1953.70 L1161.39 1953.70 L1177.85 1953.70 L1194.31 1953.70 L1210.77 1953.70 L1227.23 1953.70 L1243.69 1953.70 L1260.15 1953.70 L1276.61 1953.70 L1293.06 1953.70 L1309.52 1953.70 L1325.98 1953.70 L1342.44 1953.70 L1358.90 1953.70 L1375.36 1953.70 L1391.82 1953.70 L1408.28 1953.70 L1424.73 1953.70 L1441.19 1953.70 L1457.65 1953.70 L1474.11 1953.70 L1490.57 1953.70 L1507.03 1953.70 L1523.36 1953.70 L1539.82 1953.70 L1556.28 1953.70 L1572.74 1953.70 L1589.20 1953.70 L1605.66 1953.70 L1622.12 1953.70 L1638.57 1953.70 L1655.03 1953.70 L1671.49 1953.70 L1687.95 1953.70 L1704.41 1953.70 L1720.87 1953.70 L1737.33 1953.70 L1753.79 1953.70 L1770.24 1953.70 L1786.70 1953.70 L1803.16 1953.70 L1819.62 1953.70 L1836.08 1953.70 L1852.54 1953.70 L1869.00 1953.70 L1885.45 1953.70 L1901.91 1953.70 L1918.37 1953.70 L1934.83 1953.70 L1951.29 1953.70 L1967.75 1953.70 L1984.21 1953.70 L2000.67 1953.70 L2017.00 1953.70 L2033.46 1953.70 L2049.92 1953.70 L2066.38 1953.70 L2082.84 1953.70 L2099.30 1953.70 L2115.75 1953.70 L2132.21 1953.70 L2148.67 1953.70 L2165.13 1953.70 L2181.59 1953.70 L2198.05 1953.70 L2214.51 1953.70 L2230.97 1953.70 L2247.42 1953.70 L2263.88 1953.70 L2280.34 1953.70 L2296.80 1953.70 L2313.26 1953.70 L2329.72 1953.70 L2346.18 1953.70 L2362.64 1953.70 L2379.09 1953.70 L2395.55 1953.70 L2412.01 1953.70 L2428.47 1953.70 L2444.93 1953.70 L2461.39 1953.70 L2477.85 1953.70 L2494.30 1953.70 L2510.76 1953.70 L2527.10 1953.70 L2543.56 1953.70 L2560.02 1953.70 L2576.47 1953.70 L2592.93 1953.70 L2609.39 1953.70 L2625.85 1953.70 L2642.31 1953.70 L2658.77 1953.70 L2675.23 1953.70 L2691.69 1953.70 L2708.14 1953.70 L2724.60 1953.70 L2741.06 1953.70 L2757.52 1953.70 L2773.98 1953.70 L2790.44 1953.70 L2806.90 1953.70 L2823.36 1953.70 L2839.82 1953.70 L2856.27 1953.70 L2872.73 1953.70 L2889.19 1953.70 L2905.65 1953.70 L2922.11 1953.70 L2938.57 1953.70 L2955.03 1953.70 L2971.49 1953.70 L2987.94 1953.70 L3004.40 1953.70 L3020.74 1953.70 L3037.20 1953.70 L3053.66 1953.70 L3070.11 1953.70 L3086.57 1953.70 L3103.03 1953.70 L3119.49 1953.70 L3135.95 1953.70 L3152.41 1953.70 L3168.87 1953.70 L3185.32 1953.70 L3201.78 1953.70 L3218.24 1953.70 L3234.70 1953.70 L3251.16 1953.70 L3267.62 1953.70 L3284.08 1953.70 L3300.54 1953.70 L3316.99 1953.70 L3333.45 1953.70 L3349.91 1953.70 L3366.37 1953.70 L3382.83 1953.70 L3399.29 1953.70 L3415.75 1953.70 L3432.21 1953.70 L3448.66 1953.70 L3465.12 1953.70 L3481.58 1953.70 L3498.04 1953.70 L3514.38 1953.70 L3530.84 1953.70 L3547.29 1953.70 L3563.75 1953.70 L3563.75 1953.70 L618.38 1953.70 L618.38 1953.70 Z" stroke-linejoin="round"/>
	</defs>
	<defs>
		<clipPath id="clipPath_qRXIzEVx">
			<use xlink:href="#path_HPMZUkfX"/>
		</clipPath>
	</defs>
	<use xlink:href="#path_HPMZUkfX" style="stroke:none;fill:#8BA59D"/>
	<use xlink:href="#path_HPMZUkfX" style="fill:none;stroke:#6E8E84;stroke-width:17.28" clip-path="url(#clipPath_qRXIzEVx)"/>
	<line x1="465.80" y1="1953.70" x2="465.80" y2="419.90" style="stroke:#000000;stroke-width:5.76"/>
	<line x1="465.80" y1="1953.70" x2="425.82" y2="1953.70" style="stroke:#000000;stroke-width:5.76"/>
	<text x="405.78" y="1988.73" style="font-family:'Helvetica';font-size:99.99px;fill:#000000" text-anchor="end">0.0</text>
	<line x1="465.80" y1="1800.37" x2="425.82" y2="1800.37" style="stroke:#000000;stroke-width:5.76"/>
	<text x="405.78" y="1835.40" style="font-family:'Helvetica';font-size:99.99px;fill:#000000" text-anchor="end">0.1</text>
	<line x1="465.80" y1="1646.92" x2="425.82" y2="1646.92" style="stroke:#000000;stroke-width:5.76"/>
	<text x="405.78" y="1681.94" style="font-family:'Helvetica';font-size:99.99px;fill:#000000" text-anchor="end">0.2</text>
	<line x1="465.80" y1="1493.59" x2="425.82" y2="1493.59" style="stroke:#000000;stroke-width:5.76"/>
	<text x="405.78" y="1528.61" style="font-family:'Helvetica';font-size:99.99px;fill:#000000" text-anchor="end">0.3</text>
	<line x1="465.80" y1="1340.13" x2="425.82" y2="1340.13" style="stroke:#000000;stroke-width:5.76"/>
	<text x="405.78" y="1375.16" style="font-family:'Helvetica';font-size:99.99px;fill:#000000" text-anchor="end">0.4</text>
	<line x1="465.80" y1="1186.80" x2="425.82" y2="1186.80" style="stroke:#000000;stroke-width:5.76"/>
	<text x="405.78" y="1221.83" style="font-family:'Helvetica';font-size:99.99px;fill:#000000" text-anchor="end">0.5</text>
	<line x1="465.80" y1="1033.47" x2="425.82" y2="1033.47" style="stroke:#000000;stroke-width:5.76"/>
	<text x="405.78" y="1068.50" style="font-family:'Helvetica';font-size:99.99px;fill:#000000" text-anchor="end">0.6</text>
	<line x1="465.80" y1="880.01" x2="425.82" y2="880.01" style="stroke:#000000;stroke-width:5.76"/>
	<text x="405.78" y="915.04" style="font-family:'Helvetica';font-size:99.99px;fill:#000000" text-anchor="end">0.7</text>
	<line x1="465.80" y1="726.68" x2="425.82" y2="726.68" style="stroke:#000000;stroke-width:5.76"/>
	<text x="405.78" y="761.71" style="font-family:'Helvetica';font-size:99.99px;fill:#000000" text-anchor="end">0.8</text>
	<line x1="465.80" y1="573.35" x2="425.82" y2="573.35" style="stroke:#000000;stroke-width:5.76"/>
	<text x="405.78" y="608.38" style="font-family:'Helvetica';font-size:99.99px;fill:#000000" text-anchor="end">0.9</text>
	<line x1="465.80" y1="419.90" x2="425.82" y2="419.90" style="stroke:#000000;stroke-width:5.76"/>
	<text x="405.78" y="454.93" style="font-family:'Helvetica';font-size:99.99px;fill:#000000" text-anchor="end">1.0</text>
	<text x="190.71" y="1186.80" style="font-family:'Helvetica';font-size:99.99px;fill:#000000" transform="rotate(-90 190.71,1186.80)" text-anchor="middle">Transition Probability</text>
	<line x1="465.80" y1="1953.70" x2="3859.02" y2="1953.70" style="stroke:#000000;stroke-width:5.76"/>
	<line x1="465.80" y1="1953.70" x2="465.80" y2="1993.67" style="stroke:#000000;stroke-width:5.76"/>
	<text x="465.80" y="2083.66" style="font-family:'Helvetica';font-size:99.99px;fill:#000000" text-anchor="middle">0</text>
	<line x1="1314.10" y1="1953.70" x2="1314.10" y2="1993.67" style="stroke:#000000;stroke-width:5.76"/>
	<text x="1314.10" y="2083.66" style="font-family:'Helvetica';font-size:99.99px;fill:#000000" text-anchor="middle">500</text>
	<line x1="2162.41" y1="1953.70" x2="2162.41" y2="1993.67" style="stroke:#000000;stroke-width:5.76"/>
	<text x="2162.41" y="2083.66" style="font-family:'Helvetica';font-size:99.99px;fill:#000000" text-anchor="middle">1000</text>
	<line x1="3010.71" y1="1953.70" x2="3010.71" y2="1993.67" style="stroke:#000000;stroke-width:5.76"/>
	<text x="3010.71" y="2083.66" style="font-family:'Helvetica';font-size:99.99px;fill:#000000" text-anchor="middle">1500</text>
	<line x1="3859.02" y1="1953.70" x2="3859.02" y2="1993.67" style="stroke:#000000;stroke-width:5.76"/>
	<text x="3859.02" y="2083.66" style="font-family:'Helvetica';font-size:99.99px;fill:#000000" text-anchor="middle">2000</text>
	<text x="2162.41" y="2193.67" style="font-family:'Helvetica';font-size:99.99px;fill:#000000" text-anchor="middle">Follow-up time</text>
	<rect x="614.42" y="2278.31" width="3095.98" height="466.30" style="fill:#FFFFFF"/>
	<rect x="617.30" y="2281.19" width="3090.22" height="460.54" style="fill:none;stroke:#000000;stroke-width:5.76"/>
	<rect x="657.61" y="2321.50" width="374.47" height="99.99" style="fill:#8BA59D"/>
	<rect x="661.93" y="2325.82" width="365.83" height="91.35" style="fill:none;stroke:#6E8E84;stroke-width:8.64"/>
	<rect x="2232.45" y="2321.50" width="374.34" height="99.99" style="fill:#E99833"/>
	<rect x="2236.77" y="2325.82" width="365.70" height="91.35" style="fill:none;stroke:#E37E00;stroke-width:8.64"/>
	<rect x="657.61" y="2461.46" width="374.47" height="99.99" style="fill:#779159"/>
	<rect x="661.93" y="2465.78" width="365.83" height="91.35" style="fill:none;stroke:#55752F;stroke-width:8.64"/>
	<rect x="2232.45" y="2461.46" width="374.34" height="99.99" style="fill:#A65D62"/>
	<rect x="2236.77" y="2465.78" width="365.70" height="91.35" style="fill:none;stroke:#90353B;stroke-width:8.64"/>
	<rect x="657.61" y="2601.43" width="374.47" height="99.99" style="fill:#486C8C"/>
	<rect x="661.93" y="2605.75" width="365.83" height="91.35" style="fill:none;stroke:#1A476F;stroke-width:8.64"/>
	<text x="1092.09" y="2406.52" style="font-family:'Helvetica';font-size:99.99px;fill:#000000">P(Y(t) = 1 | Y(90) = 2)</text>
	<text x="2666.81" y="2406.52" style="font-family:'Helvetica';font-size:99.99px;fill:#000000">P(Y(t) = 2 | Y(90) = 2)</text>
	<text x="1092.09" y="2546.49" style="font-family:'Helvetica';font-size:99.99px;fill:#000000">P(Y(t) = 3 | Y(90) = 2)</text>
	<text x="2666.81" y="2546.49" style="font-family:'Helvetica';font-size:99.99px;fill:#000000">P(Y(t) = 4 | Y(90) = 2)</text>
	<text x="1092.09" y="2686.46" style="font-family:'Helvetica';font-size:99.99px;fill:#000000">P(Y(t) = 5 | Y(90) = 2)</text>
	<text x="2162.41" y="369.63" style="font-family:'Helvetica';font-size:110.01px;fill:#000000" text-anchor="middle">From Readmission(2), Residential (RP) (3y)</text>
	<text x="2162.41" y="215.98" style="font-family:'Helvetica';font-size:139.96px;fill:#1E2D53" text-anchor="middle">P(Y(t) = b | Y(90) = 2, at1)</text>
</svg>
