<?xml version="1.0" encoding="UTF-8" standalone="no"?>
<!-- This is a Stata 16.1 generated SVG file (http://www.stata.com) -->

<svg version="1.1" width="5.50in" height="4.00in" viewBox="0 0 3960 2880" xmlns="http://www.w3.org/2000/svg" xmlns:xlink="http://www.w3.org/1999/xlink">
	<desc>Stata Graph - gh_1_2</desc>
	<rect x="0" y="0" width="3960" height="2880" style="fill:#EAF2F3;stroke:none"/>
	<rect x="0.00" y="0.00" width="3959.88" height="2880.00" style="fill:#FFFFFF"/>
	<rect x="2.88" y="2.88" width="3954.12" height="2874.24" style="fill:none;stroke:#EAF2F3;stroke-width:5.76"/>
	<rect x="465.80" y="419.90" width="3393.22" height="1533.81" style="fill:#FFFFFF"/>
	<rect x="468.67" y="422.78" width="3387.47" height="1528.05" style="fill:none;stroke:#FFFFFF;stroke-width:5.76"/>
	<line x1="465.80" y1="1953.70" x2="3859.02" y2="1953.70" style="stroke:#EAF2F3;stroke-width:8.64"/>
	<line x1="465.80" y1="1800.37" x2="3859.02" y2="1800.37" style="stroke:#EAF2F3;stroke-width:8.64"/>
	<line x1="465.80" y1="1646.92" x2="3859.02" y2="1646.92" style="stroke:#EAF2F3;stroke-width:8.64"/>
	<line x1="465.80" y1="1493.59" x2="3859.02" y2="1493.59" style="stroke:#EAF2F3;stroke-width:8.64"/>
	<line x1="465.80" y1="1340.13" x2="3859.02" y2="1340.13" style="stroke:#EAF2F3;stroke-width:8.64"/>
	<line x1="465.80" y1="1186.80" x2="3859.02" y2="1186.80" style="stroke:#EAF2F3;stroke-width:8.64"/>
	<line x1="465.80" y1="1033.47" x2="3859.02" y2="1033.47" style="stroke:#EAF2F3;stroke-width:8.64"/>
	<line x1="465.80" y1="880.01" x2="3859.02" y2="880.01" style="stroke:#EAF2F3;stroke-width:8.64"/>
	<line x1="465.80" y1="726.68" x2="3859.02" y2="726.68" style="stroke:#EAF2F3;stroke-width:8.64"/>
	<line x1="465.80" y1="573.35" x2="3859.02" y2="573.35" style="stroke:#EAF2F3;stroke-width:8.64"/>
	<line x1="465.80" y1="419.90" x2="3859.02" y2="419.90" style="stroke:#EAF2F3;stroke-width:8.64"/>
	<defs>
		<path id="path_nmIYUQSL" d="M618.38 420.02 L618.38 420.02 L634.84 420.02 L651.30 420.02 L667.75 420.02 L684.21 420.02 L700.67 420.02 L717.13 420.02 L733.59 420.02 L750.05 420.02 L766.51 420.02 L782.97 420.02 L799.42 420.02 L815.88 420.02 L832.34 420.02 L848.80 420.02 L865.26 420.02 L881.72 420.02 L898.18 420.02 L914.64 420.02 L931.10 420.02 L947.55 420.02 L964.01 420.02 L980.47 420.02 L996.93 420.02 L1013.39 420.02 L1029.72 420.02 L1046.18 420.02 L1062.64 420.02 L1079.10 420.02 L1095.56 420.02 L1112.02 420.02 L1128.48 420.02 L1144.93 420.02 L1161.39 420.02 L1177.85 420.02 L1194.31 420.02 L1210.77 420.02 L1227.23 420.02 L1243.69 420.02 L1260.15 420.02 L1276.61 420.02 L1293.06 420.02 L1309.52 420.02 L1325.98 420.02 L1342.44 420.02 L1358.90 420.02 L1375.36 420.02 L1391.82 420.02 L1408.28 420.02 L1424.73 420.02 L1441.19 420.02 L1457.65 420.02 L1474.11 420.02 L1490.57 420.02 L1507.03 420.02 L1523.36 420.02 L1539.82 420.02 L1556.28 420.02 L1572.74 420.02 L1589.20 420.02 L1605.66 420.02 L1622.12 420.02 L1638.57 420.02 L1655.03 420.02 L1671.49 420.02 L1687.95 420.02 L1704.41 420.02 L1720.87 420.02 L1737.33 420.02 L1753.79 420.02 L1770.24 420.02 L1786.70 420.02 L1803.16 420.02 L1819.62 420.02 L1836.08 420.02 L1852.54 420.02 L1869.00 420.02 L1885.45 420.02 L1901.91 420.02 L1918.37 420.02 L1934.83 420.02 L1951.29 420.02 L1967.75 420.02 L1984.21 420.02 L2000.67 420.02 L2017.00 420.02 L2033.46 420.02 L2049.92 420.02 L2066.38 420.02 L2082.84 420.02 L2099.30 420.02 L2115.75 420.02 L2132.21 420.02 L2148.67 420.02 L2165.13 420.02 L2181.59 420.02 L2198.05 420.02 L2214.51 420.02 L2230.97 420.02 L2247.42 420.02 L2263.88 420.02 L2280.34 420.02 L2296.80 420.02 L2313.26 420.02 L2329.72 420.02 L2346.18 420.02 L2362.64 420.02 L2379.09 420.02 L2395.55 420.02 L2412.01 420.02 L2428.47 420.02 L2444.93 420.02 L2461.39 420.02 L2477.85 420.02 L2494.30 420.02 L2510.76 420.02 L2527.10 420.02 L2543.56 420.02 L2560.02 420.02 L2576.47 420.02 L2592.93 420.02 L2609.39 420.02 L2625.85 420.02 L2642.31 420.02 L2658.77 420.02 L2675.23 420.02 L2691.69 420.02 L2708.14 420.02 L2724.60 420.02 L2741.06 420.02 L2757.52 420.02 L2773.98 420.02 L2790.44 420.02 L2806.90 420.02 L2823.36 420.02 L2839.82 420.02 L2856.27 420.02 L2872.73 420.02 L2889.19 420.02 L2905.65 420.02 L2922.11 420.02 L2938.57 420.02 L2955.03 420.02 L2971.49 420.02 L2987.94 420.02 L3004.40 420.02 L3020.74 420.02 L3037.20 420.02 L3053.66 420.02 L3070.11 420.02 L3086.57 420.02 L3103.03 420.02 L3119.49 420.02 L3135.95 420.02 L3152.41 420.02 L3168.87 420.02 L3185.32 420.02 L3201.78 420.02 L3218.24 420.02 L3234.70 420.02 L3251.16 420.02 L3267.62 420.02 L3284.08 420.02 L3300.54 420.02 L3316.99 420.02 L3333.45 420.02 L3349.91 420.02 L3366.37 420.02 L3382.83 420.02 L3399.29 420.02 L3415.75 420.02 L3432.21 420.02 L3448.66 420.02 L3465.12 420.02 L3481.58 420.02 L3498.04 420.02 L3514.38 420.02 L3530.84 420.02 L3547.29 420.02 L3563.75 420.02 L3563.75 1953.70 L618.38 1953.70 L618.38 420.02 Z" stroke-linejoin="round"/>
	</defs>
	<defs>
		<clipPath id="clipPath_YzlnbVUs">
			<use xlink:href="#path_nmIYUQSL"/>
		</clipPath>
	</defs>
	<use xlink:href="#path_nmIYUQSL" style="stroke:none;fill:#486C8C"/>
	<use xlink:href="#path_nmIYUQSL" style="fill:none;stroke:#1A476F;stroke-width:17.28" clip-path="url(#clipPath_YzlnbVUs)"/>
	<defs>
		<path id="path_nOPSMOya" d="M618.38 420.02 L618.38 420.02 L634.84 420.02 L651.30 420.02 L667.75 420.02 L684.21 420.02 L700.67 420.02 L717.13 420.02 L733.59 420.02 L750.05 420.14 L766.51 420.14 L782.97 420.14 L799.42 420.14 L815.88 420.27 L832.34 420.27 L848.80 420.27 L865.26 420.39 L881.72 420.39 L898.18 420.52 L914.64 420.52 L931.10 420.64 L947.55 420.76 L964.01 420.89 L980.47 420.89 L996.93 421.01 L1013.39 421.13 L1029.72 421.26 L1046.18 421.38 L1062.64 421.63 L1079.10 421.75 L1095.56 421.88 L1112.02 422.00 L1128.48 422.25 L1144.93 422.50 L1161.39 422.74 L1177.85 422.99 L1194.31 423.24 L1210.77 423.36 L1227.23 423.61 L1243.69 423.73 L1260.15 424.10 L1276.61 424.35 L1293.06 424.60 L1309.52 424.85 L1325.98 425.22 L1342.44 425.34 L1358.90 425.59 L1375.36 425.96 L1391.82 426.21 L1408.28 426.46 L1424.73 426.70 L1441.19 426.95 L1457.65 427.45 L1474.11 427.69 L1490.57 428.06 L1507.03 428.44 L1523.36 428.81 L1539.82 429.18 L1556.28 429.43 L1572.74 429.67 L1589.20 430.17 L1605.66 430.91 L1622.12 431.16 L1638.57 431.65 L1655.03 432.15 L1671.49 432.64 L1687.95 433.26 L1704.41 433.88 L1720.87 434.25 L1737.33 434.99 L1753.79 435.37 L1770.24 435.86 L1786.70 436.48 L1803.16 436.85 L1819.62 437.35 L1836.08 437.72 L1852.54 438.09 L1869.00 438.58 L1885.45 438.95 L1901.91 439.57 L1918.37 440.07 L1934.83 440.56 L1951.29 440.94 L1967.75 441.55 L1984.21 442.05 L2000.67 442.42 L2017.00 443.04 L2033.46 443.53 L2049.92 443.91 L2066.38 444.52 L2082.84 445.02 L2099.30 445.51 L2115.75 446.13 L2132.21 446.75 L2148.67 447.37 L2165.13 447.99 L2181.59 448.61 L2198.05 449.23 L2214.51 449.85 L2230.97 450.34 L2247.42 450.96 L2263.88 451.83 L2280.34 452.57 L2296.80 453.31 L2313.26 453.93 L2329.72 454.55 L2346.18 455.17 L2362.64 455.66 L2379.09 456.28 L2395.55 457.02 L2412.01 457.64 L2428.47 458.38 L2444.93 459.00 L2461.39 459.75 L2477.85 460.36 L2494.30 461.23 L2510.76 461.85 L2527.10 462.59 L2543.56 463.46 L2560.02 464.08 L2576.47 464.82 L2592.93 465.44 L2609.39 466.18 L2625.85 467.05 L2642.31 467.91 L2658.77 468.66 L2675.23 469.52 L2691.69 470.26 L2708.14 470.88 L2724.60 471.75 L2741.06 472.49 L2757.52 473.36 L2773.98 474.22 L2790.44 474.97 L2806.90 475.59 L2823.36 476.45 L2839.82 477.19 L2856.27 478.06 L2872.73 478.93 L2889.19 479.67 L2905.65 480.41 L2922.11 481.28 L2938.57 482.27 L2955.03 483.01 L2971.49 483.63 L2987.94 484.50 L3004.40 485.12 L3020.74 485.98 L3037.20 486.97 L3053.66 487.71 L3070.11 488.58 L3086.57 489.69 L3103.03 490.44 L3119.49 491.43 L3135.95 492.29 L3152.41 493.16 L3168.87 493.90 L3185.32 494.52 L3201.78 495.26 L3218.24 496.25 L3234.70 497.12 L3251.16 497.99 L3267.62 498.85 L3284.08 499.84 L3300.54 500.83 L3316.99 501.45 L3333.45 502.32 L3349.91 502.94 L3366.37 503.93 L3382.83 504.92 L3399.29 506.03 L3415.75 506.77 L3432.21 507.64 L3448.66 508.63 L3465.12 509.62 L3481.58 510.36 L3498.04 511.35 L3514.38 512.22 L3530.84 513.08 L3547.29 514.20 L3563.75 515.06 L3563.75 1953.70 L618.38 1953.70 L618.38 420.02 Z" stroke-linejoin="round"/>
	</defs>
	<defs>
		<clipPath id="clipPath_EXjEDwCc">
			<use xlink:href="#path_nOPSMOya"/>
		</clipPath>
	</defs>
	<use xlink:href="#path_nOPSMOya" style="stroke:none;fill:#A65D62"/>
	<use xlink:href="#path_nOPSMOya" style="fill:none;stroke:#90353B;stroke-width:17.28" clip-path="url(#clipPath_EXjEDwCc)"/>
	<defs>
		<path id="path_TJFytcUS" d="M618.38 420.64 L618.38 420.64 L634.84 421.01 L651.30 421.13 L667.75 421.38 L684.21 421.63 L700.67 422.00 L717.13 422.50 L733.59 422.99 L750.05 423.61 L766.51 424.23 L782.97 424.72 L799.42 425.34 L815.88 425.96 L832.34 426.70 L848.80 427.45 L865.26 428.44 L881.72 429.30 L898.18 430.17 L914.64 431.16 L931.10 432.27 L947.55 433.26 L964.01 434.38 L980.47 435.12 L996.93 436.23 L1013.39 437.35 L1029.72 438.58 L1046.18 439.57 L1062.64 440.81 L1079.10 441.93 L1095.56 442.92 L1112.02 444.28 L1128.48 445.64 L1144.93 447.00 L1161.39 448.11 L1177.85 449.47 L1194.31 450.84 L1210.77 452.32 L1227.23 453.43 L1243.69 454.80 L1260.15 456.03 L1276.61 457.39 L1293.06 458.88 L1309.52 460.49 L1325.98 461.97 L1342.44 463.21 L1358.90 464.57 L1375.36 465.93 L1391.82 467.67 L1408.28 469.40 L1424.73 470.76 L1441.19 472.12 L1457.65 473.61 L1474.11 475.34 L1490.57 476.58 L1507.03 478.43 L1523.36 479.92 L1539.82 481.53 L1556.28 483.01 L1572.74 484.62 L1589.20 485.98 L1605.66 487.84 L1622.12 489.45 L1638.57 491.06 L1655.03 492.66 L1671.49 494.27 L1687.95 496.01 L1704.41 497.61 L1720.87 499.35 L1737.33 500.71 L1753.79 502.69 L1770.24 504.17 L1786.70 505.91 L1803.16 507.51 L1819.62 508.88 L1836.08 510.61 L1852.54 512.22 L1869.00 513.83 L1885.45 515.81 L1901.91 517.41 L1918.37 519.15 L1934.83 520.76 L1951.29 522.49 L1967.75 523.73 L1984.21 525.46 L2000.67 527.19 L2017.00 528.68 L2033.46 530.16 L2049.92 531.65 L2066.38 533.50 L2082.84 534.99 L2099.30 536.72 L2115.75 538.33 L2132.21 539.94 L2148.67 541.67 L2165.13 543.53 L2181.59 545.51 L2198.05 547.12 L2214.51 548.97 L2230.97 550.58 L2247.42 552.31 L2263.88 554.17 L2280.34 555.65 L2296.80 557.63 L2313.26 559.24 L2329.72 560.85 L2346.18 562.71 L2362.64 564.32 L2379.09 565.93 L2395.55 567.66 L2412.01 569.39 L2428.47 571.37 L2444.93 573.23 L2461.39 574.84 L2477.85 576.69 L2494.30 578.30 L2510.76 579.91 L2527.10 581.52 L2543.56 583.13 L2560.02 584.74 L2576.47 586.47 L2592.93 587.95 L2609.39 589.44 L2625.85 591.42 L2642.31 593.15 L2658.77 594.88 L2675.23 596.62 L2691.69 598.10 L2708.14 599.83 L2724.60 601.69 L2741.06 603.05 L2757.52 604.54 L2773.98 606.02 L2790.44 607.76 L2806.90 609.12 L2823.36 610.60 L2839.82 612.09 L2856.27 613.82 L2872.73 615.18 L2889.19 616.79 L2905.65 618.15 L2922.11 619.76 L2938.57 621.49 L2955.03 622.73 L2971.49 624.34 L2987.94 626.32 L3004.40 627.80 L3020.74 629.66 L3037.20 631.02 L3053.66 632.75 L3070.11 634.11 L3086.57 635.60 L3103.03 637.21 L3119.49 638.94 L3135.95 640.43 L3152.41 642.16 L3168.87 643.52 L3185.32 645.25 L3201.78 646.99 L3218.24 648.47 L3234.70 650.08 L3251.16 651.69 L3267.62 653.30 L3284.08 655.15 L3300.54 656.51 L3316.99 658.12 L3333.45 659.48 L3349.91 661.22 L3366.37 662.58 L3382.83 664.06 L3399.29 665.42 L3415.75 666.79 L3432.21 668.39 L3448.66 669.76 L3465.12 671.24 L3481.58 672.60 L3498.04 674.09 L3514.38 675.32 L3530.84 677.06 L3547.29 678.29 L3563.75 680.03 L3563.75 1953.70 L618.38 1953.70 L618.38 420.64 Z" stroke-linejoin="round"/>
	</defs>
	<defs>
		<clipPath id="clipPath_iMvIRvdd">
			<use xlink:href="#path_TJFytcUS"/>
		</clipPath>
	</defs>
	<use xlink:href="#path_TJFytcUS" style="stroke:none;fill:#779159"/>
	<use xlink:href="#path_TJFytcUS" style="fill:none;stroke:#55752F;stroke-width:17.28" clip-path="url(#clipPath_iMvIRvdd)"/>
	<defs>
		<path id="path_OJwKcyOI" d="M618.38 472.37 L618.38 472.37 L634.84 480.04 L651.30 487.96 L667.75 495.63 L684.21 503.43 L700.67 510.98 L717.13 517.79 L733.59 525.09 L750.05 533.13 L766.51 540.43 L782.97 547.24 L799.42 554.17 L815.88 561.10 L832.34 567.54 L848.80 574.34 L865.26 581.15 L881.72 587.83 L898.18 594.64 L914.64 600.95 L931.10 607.14 L947.55 613.20 L964.01 619.64 L980.47 625.95 L996.93 631.64 L1013.39 637.33 L1029.72 642.65 L1046.18 648.59 L1062.64 654.41 L1079.10 660.23 L1095.56 665.80 L1112.02 671.49 L1128.48 677.18 L1144.93 682.38 L1161.39 687.33 L1177.85 692.90 L1194.31 698.34 L1210.77 702.92 L1227.23 707.75 L1243.69 712.82 L1260.15 717.65 L1276.61 722.48 L1293.06 726.81 L1309.52 731.63 L1325.98 736.21 L1342.44 740.79 L1358.90 745.37 L1375.36 749.58 L1391.82 754.16 L1408.28 758.24 L1424.73 762.45 L1441.19 766.78 L1457.65 770.12 L1474.11 773.83 L1490.57 778.16 L1507.03 782.12 L1523.36 785.84 L1539.82 789.67 L1556.28 793.76 L1572.74 797.59 L1589.20 801.80 L1605.66 805.76 L1622.12 809.47 L1638.57 813.56 L1655.03 817.64 L1671.49 821.11 L1687.95 824.45 L1704.41 828.28 L1720.87 831.38 L1737.33 834.84 L1753.79 838.56 L1770.24 842.02 L1786.70 845.36 L1803.16 848.83 L1819.62 852.29 L1836.08 855.39 L1852.54 858.85 L1869.00 861.95 L1885.45 865.04 L1901.91 867.89 L1918.37 870.86 L1934.83 873.58 L1951.29 876.67 L1967.75 879.64 L1984.21 882.49 L2000.67 885.71 L2017.00 888.80 L2033.46 891.40 L2049.92 893.87 L2066.38 897.09 L2082.84 899.69 L2099.30 902.41 L2115.75 905.26 L2132.21 907.86 L2148.67 910.58 L2165.13 913.30 L2181.59 916.03 L2198.05 918.62 L2214.51 920.73 L2230.97 923.20 L2247.42 925.93 L2263.88 928.15 L2280.34 930.75 L2296.80 933.60 L2313.26 936.32 L2329.72 938.80 L2346.18 941.52 L2362.64 943.87 L2379.09 946.47 L2395.55 948.70 L2412.01 950.80 L2428.47 953.03 L2444.93 955.63 L2461.39 957.85 L2477.85 960.08 L2494.30 962.31 L2510.76 964.54 L2527.10 966.64 L2543.56 968.87 L2560.02 971.22 L2576.47 973.57 L2592.93 975.80 L2609.39 978.27 L2625.85 980.38 L2642.31 982.61 L2658.77 984.96 L2675.23 987.18 L2691.69 988.92 L2708.14 990.90 L2724.60 993.12 L2741.06 995.60 L2757.52 997.83 L2773.98 999.93 L2790.44 1002.04 L2806.90 1004.02 L2823.36 1006.00 L2839.82 1007.98 L2856.27 1010.33 L2872.73 1012.31 L2889.19 1014.16 L2905.65 1015.90 L2922.11 1018.00 L2938.57 1019.98 L2955.03 1021.84 L2971.49 1023.94 L2987.94 1026.04 L3004.40 1027.90 L3020.74 1029.26 L3037.20 1031.24 L3053.66 1032.85 L3070.11 1034.58 L3086.57 1036.56 L3103.03 1037.92 L3119.49 1039.66 L3135.95 1041.76 L3152.41 1043.86 L3168.87 1045.23 L3185.32 1046.96 L3201.78 1048.69 L3218.24 1050.42 L3234.70 1052.16 L3251.16 1053.89 L3267.62 1055.37 L3284.08 1057.35 L3300.54 1059.09 L3316.99 1060.69 L3333.45 1062.55 L3349.91 1064.04 L3366.37 1065.40 L3382.83 1067.25 L3399.29 1068.86 L3415.75 1070.59 L3432.21 1072.20 L3448.66 1073.81 L3465.12 1075.67 L3481.58 1077.40 L3498.04 1078.89 L3514.38 1080.37 L3530.84 1081.98 L3547.29 1083.47 L3563.75 1085.07 L3563.75 1953.70 L618.38 1953.70 L618.38 472.37 Z" stroke-linejoin="round"/>
	</defs>
	<defs>
		<clipPath id="clipPath_GEBdrrrY">
			<use xlink:href="#path_OJwKcyOI"/>
		</clipPath>
	</defs>
	<use xlink:href="#path_OJwKcyOI" style="stroke:none;fill:#E99833"/>
	<use xlink:href="#path_OJwKcyOI" style="fill:none;stroke:#E37E00;stroke-width:17.28" clip-path="url(#clipPath_GEBdrrrY)"/>
	<defs>
		<path id="path_utDPIiwl" d="M618.38 1953.70 L618.38 1953.70 L634.84 1953.70 L651.30 1953.70 L667.75 1953.70 L684.21 1953.70 L700.67 1953.70 L717.13 1953.70 L733.59 1953.70 L750.05 1953.70 L766.51 1953.70 L782.97 1953.70 L799.42 1953.70 L815.88 1953.70 L832.34 1953.70 L848.80 1953.70 L865.26 1953.70 L881.72 1953.70 L898.18 1953.70 L914.64 1953.70 L931.10 1953.70 L947.55 1953.70 L964.01 1953.70 L980.47 1953.70 L996.93 1953.70 L1013.39 1953.70 L1029.72 1953.70 L1046.18 1953.70 L1062.64 1953.70 L1079.10 1953.70 L1095.56 1953.70 L1112.02 1953.70 L1128.48 1953.70 L1144.93 1953.70 L1161.39 1953.70 L1177.85 1953.70 L1194.31 1953.70 L1210.77 1953.70 L1227.23 1953.70 L1243.69 1953.70 L1260.15 1953.70 L1276.61 1953.70 L1293.06 1953.70 L1309.52 1953.70 L1325.98 1953.70 L1342.44 1953.70 L1358.90 1953.70 L1375.36 1953.70 L1391.82 1953.70 L1408.28 1953.70 L1424.73 1953.70 L1441.19 1953.70 L1457.65 1953.70 L1474.11 1953.70 L1490.57 1953.70 L1507.03 1953.70 L1523.36 1953.70 L1539.82 1953.70 L1556.28 1953.70 L1572.74 1953.70 L1589.20 1953.70 L1605.66 1953.70 L1622.12 1953.70 L1638.57 1953.70 L1655.03 1953.70 L1671.49 1953.70 L1687.95 1953.70 L1704.41 1953.70 L1720.87 1953.70 L1737.33 1953.70 L1753.79 1953.70 L1770.24 1953.70 L1786.70 1953.70 L1803.16 1953.70 L1819.62 1953.70 L1836.08 1953.70 L1852.54 1953.70 L1869.00 1953.70 L1885.45 1953.70 L1901.91 1953.70 L1918.37 1953.70 L1934.83 1953.70 L1951.29 1953.70 L1967.75 1953.70 L1984.21 1953.70 L2000.67 1953.70 L2017.00 1953.70 L2033.46 1953.70 L2049.92 1953.70 L2066.38 1953.70 L2082.84 1953.70 L2099.30 1953.70 L2115.75 1953.70 L2132.21 1953.70 L2148.67 1953.70 L2165.13 1953.70 L2181.59 1953.70 L2198.05 1953.70 L2214.51 1953.70 L2230.97 1953.70 L2247.42 1953.70 L2263.88 1953.70 L2280.34 1953.70 L2296.80 1953.70 L2313.26 1953.70 L2329.72 1953.70 L2346.18 1953.70 L2362.64 1953.70 L2379.09 1953.70 L2395.55 1953.70 L2412.01 1953.70 L2428.47 1953.70 L2444.93 1953.70 L2461.39 1953.70 L2477.85 1953.70 L2494.30 1953.70 L2510.76 1953.70 L2527.10 1953.70 L2543.56 1953.70 L2560.02 1953.70 L2576.47 1953.70 L2592.93 1953.70 L2609.39 1953.70 L2625.85 1953.70 L2642.31 1953.70 L2658.77 1953.70 L2675.23 1953.70 L2691.69 1953.70 L2708.14 1953.70 L2724.60 1953.70 L2741.06 1953.70 L2757.52 1953.70 L2773.98 1953.70 L2790.44 1953.70 L2806.90 1953.70 L2823.36 1953.70 L2839.82 1953.70 L2856.27 1953.70 L2872.73 1953.70 L2889.19 1953.70 L2905.65 1953.70 L2922.11 1953.70 L2938.57 1953.70 L2955.03 1953.70 L2971.49 1953.70 L2987.94 1953.70 L3004.40 1953.70 L3020.74 1953.70 L3037.20 1953.70 L3053.66 1953.70 L3070.11 1953.70 L3086.57 1953.70 L3103.03 1953.70 L3119.49 1953.70 L3135.95 1953.70 L3152.41 1953.70 L3168.87 1953.70 L3185.32 1953.70 L3201.78 1953.70 L3218.24 1953.70 L3234.70 1953.70 L3251.16 1953.70 L3267.62 1953.70 L3284.08 1953.70 L3300.54 1953.70 L3316.99 1953.70 L3333.45 1953.70 L3349.91 1953.70 L3366.37 1953.70 L3382.83 1953.70 L3399.29 1953.70 L3415.75 1953.70 L3432.21 1953.70 L3448.66 1953.70 L3465.12 1953.70 L3481.58 1953.70 L3498.04 1953.70 L3514.38 1953.70 L3530.84 1953.70 L3547.29 1953.70 L3563.75 1953.70 L3563.75 1953.70 L618.38 1953.70 L618.38 1953.70 Z" stroke-linejoin="round"/>
	</defs>
	<defs>
		<clipPath id="clipPath_iuLqJUbD">
			<use xlink:href="#path_utDPIiwl"/>
		</clipPath>
	</defs>
	<use xlink:href="#path_utDPIiwl" style="stroke:none;fill:#8BA59D"/>
	<use xlink:href="#path_utDPIiwl" style="fill:none;stroke:#6E8E84;stroke-width:17.28" clip-path="url(#clipPath_iuLqJUbD)"/>
	<line x1="465.80" y1="1953.70" x2="465.80" y2="419.90" style="stroke:#000000;stroke-width:5.76"/>
	<line x1="465.80" y1="1953.70" x2="425.82" y2="1953.70" style="stroke:#000000;stroke-width:5.76"/>
	<text x="405.78" y="1988.73" style="font-family:'Helvetica';font-size:99.99px;fill:#000000" text-anchor="end">0.0</text>
	<line x1="465.80" y1="1800.37" x2="425.82" y2="1800.37" style="stroke:#000000;stroke-width:5.76"/>
	<text x="405.78" y="1835.40" style="font-family:'Helvetica';font-size:99.99px;fill:#000000" text-anchor="end">0.1</text>
	<line x1="465.80" y1="1646.92" x2="425.82" y2="1646.92" style="stroke:#000000;stroke-width:5.76"/>
	<text x="405.78" y="1681.94" style="font-family:'Helvetica';font-size:99.99px;fill:#000000" text-anchor="end">0.2</text>
	<line x1="465.80" y1="1493.59" x2="425.82" y2="1493.59" style="stroke:#000000;stroke-width:5.76"/>
	<text x="405.78" y="1528.61" style="font-family:'Helvetica';font-size:99.99px;fill:#000000" text-anchor="end">0.3</text>
	<line x1="465.80" y1="1340.13" x2="425.82" y2="1340.13" style="stroke:#000000;stroke-width:5.76"/>
	<text x="405.78" y="1375.16" style="font-family:'Helvetica';font-size:99.99px;fill:#000000" text-anchor="end">0.4</text>
	<line x1="465.80" y1="1186.80" x2="425.82" y2="1186.80" style="stroke:#000000;stroke-width:5.76"/>
	<text x="405.78" y="1221.83" style="font-family:'Helvetica';font-size:99.99px;fill:#000000" text-anchor="end">0.5</text>
	<line x1="465.80" y1="1033.47" x2="425.82" y2="1033.47" style="stroke:#000000;stroke-width:5.76"/>
	<text x="405.78" y="1068.50" style="font-family:'Helvetica';font-size:99.99px;fill:#000000" text-anchor="end">0.6</text>
	<line x1="465.80" y1="880.01" x2="425.82" y2="880.01" style="stroke:#000000;stroke-width:5.76"/>
	<text x="405.78" y="915.04" style="font-family:'Helvetica';font-size:99.99px;fill:#000000" text-anchor="end">0.7</text>
	<line x1="465.80" y1="726.68" x2="425.82" y2="726.68" style="stroke:#000000;stroke-width:5.76"/>
	<text x="405.78" y="761.71" style="font-family:'Helvetica';font-size:99.99px;fill:#000000" text-anchor="end">0.8</text>
	<line x1="465.80" y1="573.35" x2="425.82" y2="573.35" style="stroke:#000000;stroke-width:5.76"/>
	<text x="405.78" y="608.38" style="font-family:'Helvetica';font-size:99.99px;fill:#000000" text-anchor="end">0.9</text>
	<line x1="465.80" y1="419.90" x2="425.82" y2="419.90" style="stroke:#000000;stroke-width:5.76"/>
	<text x="405.78" y="454.93" style="font-family:'Helvetica';font-size:99.99px;fill:#000000" text-anchor="end">1.0</text>
	<text x="190.71" y="1186.80" style="font-family:'Helvetica';font-size:99.99px;fill:#000000" transform="rotate(-90 190.71,1186.80)" text-anchor="middle">Transition Probability</text>
	<line x1="465.80" y1="1953.70" x2="3859.02" y2="1953.70" style="stroke:#000000;stroke-width:5.76"/>
	<line x1="465.80" y1="1953.70" x2="465.80" y2="1993.67" style="stroke:#000000;stroke-width:5.76"/>
	<text x="465.80" y="2083.66" style="font-family:'Helvetica';font-size:99.99px;fill:#000000" text-anchor="middle">0</text>
	<line x1="1314.10" y1="1953.70" x2="1314.10" y2="1993.67" style="stroke:#000000;stroke-width:5.76"/>
	<text x="1314.10" y="2083.66" style="font-family:'Helvetica';font-size:99.99px;fill:#000000" text-anchor="middle">500</text>
	<line x1="2162.41" y1="1953.70" x2="2162.41" y2="1993.67" style="stroke:#000000;stroke-width:5.76"/>
	<text x="2162.41" y="2083.66" style="font-family:'Helvetica';font-size:99.99px;fill:#000000" text-anchor="middle">1000</text>
	<line x1="3010.71" y1="1953.70" x2="3010.71" y2="1993.67" style="stroke:#000000;stroke-width:5.76"/>
	<text x="3010.71" y="2083.66" style="font-family:'Helvetica';font-size:99.99px;fill:#000000" text-anchor="middle">1500</text>
	<line x1="3859.02" y1="1953.70" x2="3859.02" y2="1993.67" style="stroke:#000000;stroke-width:5.76"/>
	<text x="3859.02" y="2083.66" style="font-family:'Helvetica';font-size:99.99px;fill:#000000" text-anchor="middle">2000</text>
	<text x="2162.41" y="2193.67" style="font-family:'Helvetica';font-size:99.99px;fill:#000000" text-anchor="middle">Follow-up time</text>
	<rect x="614.42" y="2278.31" width="3095.98" height="466.30" style="fill:#FFFFFF"/>
	<rect x="617.30" y="2281.19" width="3090.22" height="460.54" style="fill:none;stroke:#000000;stroke-width:5.76"/>
	<rect x="657.61" y="2321.50" width="374.47" height="99.99" style="fill:#8BA59D"/>
	<rect x="661.93" y="2325.82" width="365.83" height="91.35" style="fill:none;stroke:#6E8E84;stroke-width:8.64"/>
	<rect x="2232.45" y="2321.50" width="374.34" height="99.99" style="fill:#E99833"/>
	<rect x="2236.77" y="2325.82" width="365.70" height="91.35" style="fill:none;stroke:#E37E00;stroke-width:8.64"/>
	<rect x="657.61" y="2461.46" width="374.47" height="99.99" style="fill:#779159"/>
	<rect x="661.93" y="2465.78" width="365.83" height="91.35" style="fill:none;stroke:#55752F;stroke-width:8.64"/>
	<rect x="2232.45" y="2461.46" width="374.34" height="99.99" style="fill:#A65D62"/>
	<rect x="2236.77" y="2465.78" width="365.70" height="91.35" style="fill:none;stroke:#90353B;stroke-width:8.64"/>
	<rect x="657.61" y="2601.43" width="374.47" height="99.99" style="fill:#486C8C"/>
	<rect x="661.93" y="2605.75" width="365.83" height="91.35" style="fill:none;stroke:#1A476F;stroke-width:8.64"/>
	<text x="1092.09" y="2406.52" style="font-family:'Helvetica';font-size:99.99px;fill:#000000">P(Y(t) = 1 | Y(90) = 2)</text>
	<text x="2666.81" y="2406.52" style="font-family:'Helvetica';font-size:99.99px;fill:#000000">P(Y(t) = 2 | Y(90) = 2)</text>
	<text x="1092.09" y="2546.49" style="font-family:'Helvetica';font-size:99.99px;fill:#000000">P(Y(t) = 3 | Y(90) = 2)</text>
	<text x="2666.81" y="2546.49" style="font-family:'Helvetica';font-size:99.99px;fill:#000000">P(Y(t) = 4 | Y(90) = 2)</text>
	<text x="1092.09" y="2686.46" style="font-family:'Helvetica';font-size:99.99px;fill:#000000">P(Y(t) = 5 | Y(90) = 2)</text>
	<text x="2162.41" y="369.63" style="font-family:'Helvetica';font-size:110.01px;fill:#000000" text-anchor="middle">From Readmission(2), Outpatient</text>
	<text x="2162.41" y="215.98" style="font-family:'Helvetica';font-size:139.96px;fill:#1E2D53" text-anchor="middle">P(Y(t) = b | Y(90) = 2, at1)</text>
</svg>
