<?xml version="1.0" encoding="UTF-8" standalone="no"?>
<!-- This is a Stata 16.1 generated SVG file (http://www.stata.com) -->

<svg version="1.1" width="5.50in" height="4.00in" viewBox="0 0 3960 2880" xmlns="http://www.w3.org/2000/svg" xmlns:xlink="http://www.w3.org/1999/xlink">
	<desc>Stata Graph - gh_1_3</desc>
	<rect x="0" y="0" width="3960" height="2880" style="fill:#EAF2F3;stroke:none"/>
	<rect x="0.00" y="0.00" width="3959.88" height="2880.00" style="fill:#FFFFFF"/>
	<rect x="2.88" y="2.88" width="3954.12" height="2874.24" style="fill:none;stroke:#EAF2F3;stroke-width:5.76"/>
	<rect x="465.80" y="419.90" width="3393.22" height="1533.81" style="fill:#FFFFFF"/>
	<rect x="468.67" y="422.78" width="3387.47" height="1528.05" style="fill:none;stroke:#FFFFFF;stroke-width:5.76"/>
	<line x1="465.80" y1="1953.70" x2="3859.02" y2="1953.70" style="stroke:#EAF2F3;stroke-width:8.64"/>
	<line x1="465.80" y1="1800.37" x2="3859.02" y2="1800.37" style="stroke:#EAF2F3;stroke-width:8.64"/>
	<line x1="465.80" y1="1646.92" x2="3859.02" y2="1646.92" style="stroke:#EAF2F3;stroke-width:8.64"/>
	<line x1="465.80" y1="1493.59" x2="3859.02" y2="1493.59" style="stroke:#EAF2F3;stroke-width:8.64"/>
	<line x1="465.80" y1="1340.13" x2="3859.02" y2="1340.13" style="stroke:#EAF2F3;stroke-width:8.64"/>
	<line x1="465.80" y1="1186.80" x2="3859.02" y2="1186.80" style="stroke:#EAF2F3;stroke-width:8.64"/>
	<line x1="465.80" y1="1033.47" x2="3859.02" y2="1033.47" style="stroke:#EAF2F3;stroke-width:8.64"/>
	<line x1="465.80" y1="880.01" x2="3859.02" y2="880.01" style="stroke:#EAF2F3;stroke-width:8.64"/>
	<line x1="465.80" y1="726.68" x2="3859.02" y2="726.68" style="stroke:#EAF2F3;stroke-width:8.64"/>
	<line x1="465.80" y1="573.35" x2="3859.02" y2="573.35" style="stroke:#EAF2F3;stroke-width:8.64"/>
	<line x1="465.80" y1="419.90" x2="3859.02" y2="419.90" style="stroke:#EAF2F3;stroke-width:8.64"/>
	<defs>
		<path id="path_sWcVGadd" d="M618.38 420.02 L618.38 420.02 L634.84 420.02 L651.30 420.02 L667.75 420.02 L684.21 420.02 L700.67 420.02 L717.13 420.02 L733.59 420.02 L750.05 420.02 L766.51 420.02 L782.97 420.02 L799.42 420.02 L815.88 420.02 L832.34 420.02 L848.80 420.02 L865.26 420.02 L881.72 420.02 L898.18 420.02 L914.64 420.02 L931.10 420.02 L947.55 420.02 L964.01 420.02 L980.47 420.02 L996.93 420.02 L1013.39 420.02 L1029.72 420.02 L1046.18 420.02 L1062.64 420.02 L1079.10 420.02 L1095.56 420.02 L1112.02 420.02 L1128.48 420.02 L1144.93 420.02 L1161.39 420.02 L1177.85 420.02 L1194.31 420.02 L1210.77 420.02 L1227.23 420.02 L1243.69 420.02 L1260.15 420.02 L1276.61 420.02 L1293.06 420.02 L1309.52 420.02 L1325.98 420.02 L1342.44 420.02 L1358.90 420.02 L1375.36 420.02 L1391.82 420.02 L1408.28 420.02 L1424.73 420.02 L1441.19 420.02 L1457.65 420.02 L1474.11 420.02 L1490.57 420.02 L1507.03 420.02 L1523.36 420.02 L1539.82 420.02 L1556.28 420.02 L1572.74 420.02 L1589.20 420.02 L1605.66 420.02 L1622.12 420.02 L1638.57 420.02 L1655.03 420.02 L1671.49 420.02 L1687.95 420.02 L1704.41 420.02 L1720.87 420.02 L1737.33 420.02 L1753.79 420.02 L1770.24 420.02 L1786.70 420.02 L1803.16 420.02 L1819.62 420.02 L1836.08 420.02 L1852.54 420.02 L1869.00 420.02 L1885.45 420.02 L1901.91 420.02 L1918.37 420.02 L1934.83 420.02 L1951.29 420.02 L1967.75 420.02 L1984.21 420.02 L2000.67 420.02 L2017.00 420.02 L2033.46 420.02 L2049.92 420.02 L2066.38 420.02 L2082.84 420.02 L2099.30 420.02 L2115.75 420.02 L2132.21 420.02 L2148.67 420.02 L2165.13 420.02 L2181.59 420.02 L2198.05 420.02 L2214.51 420.02 L2230.97 420.02 L2247.42 420.02 L2263.88 420.02 L2280.34 420.02 L2296.80 420.02 L2313.26 420.02 L2329.72 420.02 L2346.18 420.02 L2362.64 420.02 L2379.09 420.02 L2395.55 420.02 L2412.01 420.02 L2428.47 420.02 L2444.93 420.02 L2461.39 420.02 L2477.85 420.02 L2494.30 420.02 L2510.76 420.02 L2527.10 420.02 L2543.56 420.02 L2560.02 420.02 L2576.47 420.02 L2592.93 420.02 L2609.39 420.02 L2625.85 420.02 L2642.31 420.02 L2658.77 420.02 L2675.23 420.02 L2691.69 420.02 L2708.14 420.02 L2724.60 420.02 L2741.06 420.02 L2757.52 420.02 L2773.98 420.02 L2790.44 420.02 L2806.90 420.02 L2823.36 420.02 L2839.82 420.02 L2856.27 420.02 L2872.73 420.02 L2889.19 420.02 L2905.65 420.02 L2922.11 420.02 L2938.57 420.02 L2955.03 420.02 L2971.49 420.02 L2987.94 420.02 L3004.40 420.02 L3020.74 420.02 L3037.20 420.02 L3053.66 420.02 L3070.11 420.02 L3086.57 420.02 L3103.03 420.02 L3119.49 420.02 L3135.95 420.02 L3152.41 420.02 L3168.87 420.02 L3185.32 420.02 L3201.78 420.02 L3218.24 420.02 L3234.70 420.02 L3251.16 420.02 L3267.62 420.02 L3284.08 420.02 L3300.54 420.02 L3316.99 420.02 L3333.45 420.02 L3349.91 420.02 L3366.37 420.02 L3382.83 420.02 L3399.29 420.02 L3415.75 420.02 L3432.21 420.02 L3448.66 420.02 L3465.12 420.02 L3481.58 420.02 L3498.04 420.02 L3514.38 420.02 L3530.84 420.02 L3547.29 420.02 L3563.75 420.02 L3563.75 1953.70 L618.38 1953.70 L618.38 420.02 Z" stroke-linejoin="round"/>
	</defs>
	<defs>
		<clipPath id="clipPath_JxgbuXFB">
			<use xlink:href="#path_sWcVGadd"/>
		</clipPath>
	</defs>
	<use xlink:href="#path_sWcVGadd" style="stroke:none;fill:#486C8C"/>
	<use xlink:href="#path_sWcVGadd" style="fill:none;stroke:#1A476F;stroke-width:17.28" clip-path="url(#clipPath_JxgbuXFB)"/>
	<defs>
		<path id="path_AHKhpNBX" d="M618.38 420.52 L618.38 420.52 L634.84 420.64 L651.30 420.89 L667.75 421.01 L684.21 421.26 L700.67 421.51 L717.13 421.88 L733.59 422.25 L750.05 422.50 L766.51 423.11 L782.97 423.61 L799.42 424.23 L815.88 424.85 L832.34 425.47 L848.80 426.08 L865.26 426.70 L881.72 427.57 L898.18 428.56 L914.64 429.55 L931.10 430.54 L947.55 431.41 L964.01 432.52 L980.47 433.88 L996.93 435.37 L1013.39 436.73 L1029.72 437.96 L1046.18 439.20 L1062.64 440.69 L1079.10 442.17 L1095.56 443.66 L1112.02 445.39 L1128.48 447.12 L1144.93 448.86 L1161.39 450.96 L1177.85 452.69 L1194.31 454.30 L1210.77 456.16 L1227.23 458.14 L1243.69 459.99 L1260.15 461.97 L1276.61 464.08 L1293.06 466.18 L1309.52 468.53 L1325.98 470.64 L1342.44 473.11 L1358.90 475.83 L1375.36 477.94 L1391.82 480.29 L1408.28 482.76 L1424.73 484.87 L1441.19 486.97 L1457.65 489.45 L1474.11 492.05 L1490.57 494.52 L1507.03 496.87 L1523.36 499.35 L1539.82 502.07 L1556.28 504.67 L1572.74 507.51 L1589.20 510.36 L1605.66 513.08 L1622.12 515.81 L1638.57 518.65 L1655.03 521.38 L1671.49 524.47 L1687.95 527.32 L1704.41 530.29 L1720.87 533.26 L1737.33 536.23 L1753.79 539.07 L1770.24 542.04 L1786.70 544.89 L1803.16 547.61 L1819.62 550.09 L1836.08 552.81 L1852.54 555.90 L1869.00 558.87 L1885.45 561.97 L1901.91 564.57 L1918.37 567.54 L1934.83 570.26 L1951.29 572.98 L1967.75 575.58 L1984.21 578.80 L2000.67 581.52 L2017.00 584.37 L2033.46 586.96 L2049.92 590.06 L2066.38 592.90 L2082.84 595.63 L2099.30 598.23 L2115.75 601.20 L2132.21 603.92 L2148.67 606.64 L2165.13 609.24 L2181.59 612.09 L2198.05 614.81 L2214.51 617.41 L2230.97 620.01 L2247.42 622.61 L2263.88 625.08 L2280.34 627.93 L2296.80 630.40 L2313.26 633.12 L2329.72 635.35 L2346.18 637.58 L2362.64 640.06 L2379.09 642.28 L2395.55 644.51 L2412.01 646.74 L2428.47 649.34 L2444.93 651.56 L2461.39 653.79 L2477.85 655.77 L2494.30 658.49 L2510.76 660.97 L2527.10 663.57 L2543.56 665.80 L2560.02 668.02 L2576.47 670.37 L2592.93 672.60 L2609.39 675.08 L2625.85 677.55 L2642.31 679.90 L2658.77 682.63 L2675.23 685.10 L2691.69 687.33 L2708.14 689.56 L2724.60 691.91 L2741.06 694.14 L2757.52 696.49 L2773.98 698.59 L2790.44 700.57 L2806.90 702.80 L2823.36 705.15 L2839.82 707.25 L2856.27 709.23 L2872.73 711.46 L2889.19 713.69 L2905.65 716.16 L2922.11 717.90 L2938.57 720.12 L2955.03 721.86 L2971.49 723.96 L2987.94 726.06 L3004.40 728.29 L3020.74 730.02 L3037.20 731.76 L3053.66 733.74 L3070.11 735.47 L3086.57 737.33 L3103.03 739.31 L3119.49 741.16 L3135.95 743.02 L3152.41 744.87 L3168.87 746.98 L3185.32 748.83 L3201.78 750.57 L3218.24 752.30 L3234.70 754.16 L3251.16 756.01 L3267.62 757.87 L3284.08 759.60 L3300.54 761.46 L3316.99 763.07 L3333.45 764.55 L3349.91 766.66 L3366.37 768.39 L3382.83 770.00 L3399.29 771.85 L3415.75 773.46 L3432.21 774.82 L3448.66 776.56 L3465.12 778.29 L3481.58 779.90 L3498.04 781.51 L3514.38 783.36 L3530.84 784.85 L3547.29 786.33 L3563.75 787.94 L3563.75 1953.70 L618.38 1953.70 L618.38 420.52 Z" stroke-linejoin="round"/>
	</defs>
	<defs>
		<clipPath id="clipPath_eDJjlNNc">
			<use xlink:href="#path_AHKhpNBX"/>
		</clipPath>
	</defs>
	<use xlink:href="#path_AHKhpNBX" style="stroke:none;fill:#A65D62"/>
	<use xlink:href="#path_AHKhpNBX" style="fill:none;stroke:#90353B;stroke-width:17.28" clip-path="url(#clipPath_eDJjlNNc)"/>
	<defs>
		<path id="path_NhYBfrKc" d="M618.38 461.11 L618.38 461.11 L634.84 467.54 L651.30 474.84 L667.75 482.39 L684.21 490.44 L700.67 498.48 L717.13 507.02 L733.59 514.57 L750.05 522.24 L766.51 531.28 L782.97 539.57 L799.42 548.11 L815.88 556.27 L832.34 564.81 L848.80 573.35 L865.26 582.26 L881.72 591.05 L898.18 599.59 L914.64 608.13 L931.10 616.91 L947.55 625.82 L964.01 634.36 L980.47 642.16 L996.93 651.07 L1013.39 659.86 L1029.72 669.01 L1046.18 677.55 L1062.64 685.72 L1079.10 694.38 L1095.56 702.55 L1112.02 710.59 L1128.48 718.89 L1144.93 726.68 L1161.39 734.73 L1177.85 742.40 L1194.31 750.20 L1210.77 757.99 L1227.23 765.42 L1243.69 772.10 L1260.15 779.03 L1276.61 785.96 L1293.06 793.14 L1309.52 800.44 L1325.98 807.74 L1342.44 814.80 L1358.90 821.73 L1375.36 828.41 L1391.82 834.47 L1408.28 841.28 L1424.73 847.71 L1441.19 853.65 L1457.65 859.84 L1474.11 865.41 L1490.57 870.98 L1507.03 876.42 L1523.36 881.99 L1539.82 887.93 L1556.28 892.88 L1572.74 898.21 L1589.20 903.16 L1605.66 908.35 L1622.12 913.55 L1638.57 918.50 L1655.03 922.71 L1671.49 927.54 L1687.95 931.99 L1704.41 937.19 L1720.87 941.77 L1737.33 946.35 L1753.79 950.31 L1770.24 954.64 L1786.70 958.84 L1803.16 963.05 L1819.62 966.89 L1836.08 970.97 L1852.54 975.06 L1869.00 979.14 L1885.45 983.10 L1901.91 987.31 L1918.37 990.65 L1934.83 994.49 L1951.29 998.57 L1967.75 1002.28 L1984.21 1005.62 L2000.67 1009.34 L2017.00 1012.93 L2033.46 1016.02 L2049.92 1019.61 L2066.38 1022.83 L2082.84 1026.54 L2099.30 1029.38 L2115.75 1032.48 L2132.21 1035.45 L2148.67 1038.29 L2165.13 1041.14 L2181.59 1044.73 L2198.05 1047.33 L2214.51 1050.18 L2230.97 1053.15 L2247.42 1055.87 L2263.88 1058.84 L2280.34 1061.56 L2296.80 1064.28 L2313.26 1066.63 L2329.72 1069.60 L2346.18 1072.33 L2362.64 1074.93 L2379.09 1078.02 L2395.55 1080.37 L2412.01 1082.85 L2428.47 1085.45 L2444.93 1087.80 L2461.39 1090.40 L2477.85 1092.99 L2494.30 1094.97 L2510.76 1097.45 L2527.10 1099.80 L2543.56 1101.78 L2560.02 1104.01 L2576.47 1106.36 L2592.93 1108.71 L2609.39 1110.81 L2625.85 1113.29 L2642.31 1115.52 L2658.77 1117.87 L2675.23 1120.22 L2691.69 1122.08 L2708.14 1124.43 L2724.60 1126.53 L2741.06 1128.88 L2757.52 1130.99 L2773.98 1132.84 L2790.44 1134.58 L2806.90 1136.68 L2823.36 1138.78 L2839.82 1140.76 L2856.27 1142.50 L2872.73 1143.98 L2889.19 1145.84 L2905.65 1147.45 L2922.11 1149.05 L2938.57 1150.79 L2955.03 1152.15 L2971.49 1153.51 L2987.94 1155.24 L3004.40 1157.10 L3020.74 1158.46 L3037.20 1159.94 L3053.66 1161.68 L3070.11 1163.41 L3086.57 1165.02 L3103.03 1166.38 L3119.49 1168.11 L3135.95 1169.72 L3152.41 1171.33 L3168.87 1172.94 L3185.32 1174.55 L3201.78 1176.03 L3218.24 1177.52 L3234.70 1179.13 L3251.16 1180.74 L3267.62 1182.34 L3284.08 1183.83 L3300.54 1185.44 L3316.99 1187.29 L3333.45 1188.90 L3349.91 1190.26 L3366.37 1191.50 L3382.83 1192.86 L3399.29 1194.35 L3415.75 1195.59 L3432.21 1197.19 L3448.66 1198.56 L3465.12 1199.79 L3481.58 1201.16 L3498.04 1202.76 L3514.38 1204.25 L3530.84 1205.61 L3547.29 1206.97 L3563.75 1208.70 L3563.75 1953.70 L618.38 1953.70 L618.38 461.11 Z" stroke-linejoin="round"/>
	</defs>
	<defs>
		<clipPath id="clipPath_nHeQIYkP">
			<use xlink:href="#path_NhYBfrKc"/>
		</clipPath>
	</defs>
	<use xlink:href="#path_NhYBfrKc" style="stroke:none;fill:#779159"/>
	<use xlink:href="#path_NhYBfrKc" style="fill:none;stroke:#55752F;stroke-width:17.28" clip-path="url(#clipPath_nHeQIYkP)"/>
	<defs>
		<path id="path_gVczkukM" d="M618.38 1953.70 L618.38 1953.70 L634.84 1953.70 L651.30 1953.70 L667.75 1953.70 L684.21 1953.70 L700.67 1953.70 L717.13 1953.70 L733.59 1953.70 L750.05 1953.70 L766.51 1953.70 L782.97 1953.70 L799.42 1953.70 L815.88 1953.70 L832.34 1953.70 L848.80 1953.70 L865.26 1953.70 L881.72 1953.70 L898.18 1953.70 L914.64 1953.70 L931.10 1953.70 L947.55 1953.70 L964.01 1953.70 L980.47 1953.70 L996.93 1953.70 L1013.39 1953.70 L1029.72 1953.70 L1046.18 1953.70 L1062.64 1953.70 L1079.10 1953.70 L1095.56 1953.70 L1112.02 1953.70 L1128.48 1953.70 L1144.93 1953.70 L1161.39 1953.70 L1177.85 1953.70 L1194.31 1953.70 L1210.77 1953.70 L1227.23 1953.70 L1243.69 1953.70 L1260.15 1953.70 L1276.61 1953.70 L1293.06 1953.70 L1309.52 1953.70 L1325.98 1953.70 L1342.44 1953.70 L1358.90 1953.70 L1375.36 1953.70 L1391.82 1953.70 L1408.28 1953.70 L1424.73 1953.70 L1441.19 1953.70 L1457.65 1953.70 L1474.11 1953.70 L1490.57 1953.70 L1507.03 1953.70 L1523.36 1953.70 L1539.82 1953.70 L1556.28 1953.70 L1572.74 1953.70 L1589.20 1953.70 L1605.66 1953.70 L1622.12 1953.70 L1638.57 1953.70 L1655.03 1953.70 L1671.49 1953.70 L1687.95 1953.70 L1704.41 1953.70 L1720.87 1953.70 L1737.33 1953.70 L1753.79 1953.70 L1770.24 1953.70 L1786.70 1953.70 L1803.16 1953.70 L1819.62 1953.70 L1836.08 1953.70 L1852.54 1953.70 L1869.00 1953.70 L1885.45 1953.70 L1901.91 1953.70 L1918.37 1953.70 L1934.83 1953.70 L1951.29 1953.70 L1967.75 1953.70 L1984.21 1953.70 L2000.67 1953.70 L2017.00 1953.70 L2033.46 1953.70 L2049.92 1953.70 L2066.38 1953.70 L2082.84 1953.70 L2099.30 1953.70 L2115.75 1953.70 L2132.21 1953.70 L2148.67 1953.70 L2165.13 1953.70 L2181.59 1953.70 L2198.05 1953.70 L2214.51 1953.70 L2230.97 1953.70 L2247.42 1953.70 L2263.88 1953.70 L2280.34 1953.70 L2296.80 1953.70 L2313.26 1953.70 L2329.72 1953.70 L2346.18 1953.70 L2362.64 1953.70 L2379.09 1953.70 L2395.55 1953.70 L2412.01 1953.70 L2428.47 1953.70 L2444.93 1953.70 L2461.39 1953.70 L2477.85 1953.70 L2494.30 1953.70 L2510.76 1953.70 L2527.10 1953.70 L2543.56 1953.70 L2560.02 1953.70 L2576.47 1953.70 L2592.93 1953.70 L2609.39 1953.70 L2625.85 1953.70 L2642.31 1953.70 L2658.77 1953.70 L2675.23 1953.70 L2691.69 1953.70 L2708.14 1953.70 L2724.60 1953.70 L2741.06 1953.70 L2757.52 1953.70 L2773.98 1953.70 L2790.44 1953.70 L2806.90 1953.70 L2823.36 1953.70 L2839.82 1953.70 L2856.27 1953.70 L2872.73 1953.70 L2889.19 1953.70 L2905.65 1953.70 L2922.11 1953.70 L2938.57 1953.70 L2955.03 1953.70 L2971.49 1953.70 L2987.94 1953.70 L3004.40 1953.70 L3020.74 1953.70 L3037.20 1953.70 L3053.66 1953.70 L3070.11 1953.70 L3086.57 1953.70 L3103.03 1953.70 L3119.49 1953.70 L3135.95 1953.70 L3152.41 1953.70 L3168.87 1953.70 L3185.32 1953.70 L3201.78 1953.70 L3218.24 1953.70 L3234.70 1953.70 L3251.16 1953.70 L3267.62 1953.70 L3284.08 1953.70 L3300.54 1953.70 L3316.99 1953.70 L3333.45 1953.70 L3349.91 1953.70 L3366.37 1953.70 L3382.83 1953.70 L3399.29 1953.70 L3415.75 1953.70 L3432.21 1953.70 L3448.66 1953.70 L3465.12 1953.70 L3481.58 1953.70 L3498.04 1953.70 L3514.38 1953.70 L3530.84 1953.70 L3547.29 1953.70 L3563.75 1953.70 L3563.75 1953.70 L618.38 1953.70 L618.38 1953.70 Z" stroke-linejoin="round"/>
	</defs>
	<defs>
		<clipPath id="clipPath_oZzHpyHN">
			<use xlink:href="#path_gVczkukM"/>
		</clipPath>
	</defs>
	<use xlink:href="#path_gVczkukM" style="stroke:none;fill:#E99833"/>
	<use xlink:href="#path_gVczkukM" style="fill:none;stroke:#E37E00;stroke-width:17.28" clip-path="url(#clipPath_oZzHpyHN)"/>
	<defs>
		<path id="path_iMgrMUNV" d="M618.38 1953.70 L618.38 1953.70 L634.84 1953.70 L651.30 1953.70 L667.75 1953.70 L684.21 1953.70 L700.67 1953.70 L717.13 1953.70 L733.59 1953.70 L750.05 1953.70 L766.51 1953.70 L782.97 1953.70 L799.42 1953.70 L815.88 1953.70 L832.34 1953.70 L848.80 1953.70 L865.26 1953.70 L881.72 1953.70 L898.18 1953.70 L914.64 1953.70 L931.10 1953.70 L947.55 1953.70 L964.01 1953.70 L980.47 1953.70 L996.93 1953.70 L1013.39 1953.70 L1029.72 1953.70 L1046.18 1953.70 L1062.64 1953.70 L1079.10 1953.70 L1095.56 1953.70 L1112.02 1953.70 L1128.48 1953.70 L1144.93 1953.70 L1161.39 1953.70 L1177.85 1953.70 L1194.31 1953.70 L1210.77 1953.70 L1227.23 1953.70 L1243.69 1953.70 L1260.15 1953.70 L1276.61 1953.70 L1293.06 1953.70 L1309.52 1953.70 L1325.98 1953.70 L1342.44 1953.70 L1358.90 1953.70 L1375.36 1953.70 L1391.82 1953.70 L1408.28 1953.70 L1424.73 1953.70 L1441.19 1953.70 L1457.65 1953.70 L1474.11 1953.70 L1490.57 1953.70 L1507.03 1953.70 L1523.36 1953.70 L1539.82 1953.70 L1556.28 1953.70 L1572.74 1953.70 L1589.20 1953.70 L1605.66 1953.70 L1622.12 1953.70 L1638.57 1953.70 L1655.03 1953.70 L1671.49 1953.70 L1687.95 1953.70 L1704.41 1953.70 L1720.87 1953.70 L1737.33 1953.70 L1753.79 1953.70 L1770.24 1953.70 L1786.70 1953.70 L1803.16 1953.70 L1819.62 1953.70 L1836.08 1953.70 L1852.54 1953.70 L1869.00 1953.70 L1885.45 1953.70 L1901.91 1953.70 L1918.37 1953.70 L1934.83 1953.70 L1951.29 1953.70 L1967.75 1953.70 L1984.21 1953.70 L2000.67 1953.70 L2017.00 1953.70 L2033.46 1953.70 L2049.92 1953.70 L2066.38 1953.70 L2082.84 1953.70 L2099.30 1953.70 L2115.75 1953.70 L2132.21 1953.70 L2148.67 1953.70 L2165.13 1953.70 L2181.59 1953.70 L2198.05 1953.70 L2214.51 1953.70 L2230.97 1953.70 L2247.42 1953.70 L2263.88 1953.70 L2280.34 1953.70 L2296.80 1953.70 L2313.26 1953.70 L2329.72 1953.70 L2346.18 1953.70 L2362.64 1953.70 L2379.09 1953.70 L2395.55 1953.70 L2412.01 1953.70 L2428.47 1953.70 L2444.93 1953.70 L2461.39 1953.70 L2477.85 1953.70 L2494.30 1953.70 L2510.76 1953.70 L2527.10 1953.70 L2543.56 1953.70 L2560.02 1953.70 L2576.47 1953.70 L2592.93 1953.70 L2609.39 1953.70 L2625.85 1953.70 L2642.31 1953.70 L2658.77 1953.70 L2675.23 1953.70 L2691.69 1953.70 L2708.14 1953.70 L2724.60 1953.70 L2741.06 1953.70 L2757.52 1953.70 L2773.98 1953.70 L2790.44 1953.70 L2806.90 1953.70 L2823.36 1953.70 L2839.82 1953.70 L2856.27 1953.70 L2872.73 1953.70 L2889.19 1953.70 L2905.65 1953.70 L2922.11 1953.70 L2938.57 1953.70 L2955.03 1953.70 L2971.49 1953.70 L2987.94 1953.70 L3004.40 1953.70 L3020.74 1953.70 L3037.20 1953.70 L3053.66 1953.70 L3070.11 1953.70 L3086.57 1953.70 L3103.03 1953.70 L3119.49 1953.70 L3135.95 1953.70 L3152.41 1953.70 L3168.87 1953.70 L3185.32 1953.70 L3201.78 1953.70 L3218.24 1953.70 L3234.70 1953.70 L3251.16 1953.70 L3267.62 1953.70 L3284.08 1953.70 L3300.54 1953.70 L3316.99 1953.70 L3333.45 1953.70 L3349.91 1953.70 L3366.37 1953.70 L3382.83 1953.70 L3399.29 1953.70 L3415.75 1953.70 L3432.21 1953.70 L3448.66 1953.70 L3465.12 1953.70 L3481.58 1953.70 L3498.04 1953.70 L3514.38 1953.70 L3530.84 1953.70 L3547.29 1953.70 L3563.75 1953.70 L3563.75 1953.70 L618.38 1953.70 L618.38 1953.70 Z" stroke-linejoin="round"/>
	</defs>
	<defs>
		<clipPath id="clipPath_SXWFlPLd">
			<use xlink:href="#path_iMgrMUNV"/>
		</clipPath>
	</defs>
	<use xlink:href="#path_iMgrMUNV" style="stroke:none;fill:#8BA59D"/>
	<use xlink:href="#path_iMgrMUNV" style="fill:none;stroke:#6E8E84;stroke-width:17.28" clip-path="url(#clipPath_SXWFlPLd)"/>
	<line x1="465.80" y1="1953.70" x2="465.80" y2="419.90" style="stroke:#000000;stroke-width:5.76"/>
	<line x1="465.80" y1="1953.70" x2="425.82" y2="1953.70" style="stroke:#000000;stroke-width:5.76"/>
	<text x="405.78" y="1988.73" style="font-family:'Helvetica';font-size:99.99px;fill:#000000" text-anchor="end">0.0</text>
	<line x1="465.80" y1="1800.37" x2="425.82" y2="1800.37" style="stroke:#000000;stroke-width:5.76"/>
	<text x="405.78" y="1835.40" style="font-family:'Helvetica';font-size:99.99px;fill:#000000" text-anchor="end">0.1</text>
	<line x1="465.80" y1="1646.92" x2="425.82" y2="1646.92" style="stroke:#000000;stroke-width:5.76"/>
	<text x="405.78" y="1681.94" style="font-family:'Helvetica';font-size:99.99px;fill:#000000" text-anchor="end">0.2</text>
	<line x1="465.80" y1="1493.59" x2="425.82" y2="1493.59" style="stroke:#000000;stroke-width:5.76"/>
	<text x="405.78" y="1528.61" style="font-family:'Helvetica';font-size:99.99px;fill:#000000" text-anchor="end">0.3</text>
	<line x1="465.80" y1="1340.13" x2="425.82" y2="1340.13" style="stroke:#000000;stroke-width:5.76"/>
	<text x="405.78" y="1375.16" style="font-family:'Helvetica';font-size:99.99px;fill:#000000" text-anchor="end">0.4</text>
	<line x1="465.80" y1="1186.80" x2="425.82" y2="1186.80" style="stroke:#000000;stroke-width:5.76"/>
	<text x="405.78" y="1221.83" style="font-family:'Helvetica';font-size:99.99px;fill:#000000" text-anchor="end">0.5</text>
	<line x1="465.80" y1="1033.47" x2="425.82" y2="1033.47" style="stroke:#000000;stroke-width:5.76"/>
	<text x="405.78" y="1068.50" style="font-family:'Helvetica';font-size:99.99px;fill:#000000" text-anchor="end">0.6</text>
	<line x1="465.80" y1="880.01" x2="425.82" y2="880.01" style="stroke:#000000;stroke-width:5.76"/>
	<text x="405.78" y="915.04" style="font-family:'Helvetica';font-size:99.99px;fill:#000000" text-anchor="end">0.7</text>
	<line x1="465.80" y1="726.68" x2="425.82" y2="726.68" style="stroke:#000000;stroke-width:5.76"/>
	<text x="405.78" y="761.71" style="font-family:'Helvetica';font-size:99.99px;fill:#000000" text-anchor="end">0.8</text>
	<line x1="465.80" y1="573.35" x2="425.82" y2="573.35" style="stroke:#000000;stroke-width:5.76"/>
	<text x="405.78" y="608.38" style="font-family:'Helvetica';font-size:99.99px;fill:#000000" text-anchor="end">0.9</text>
	<line x1="465.80" y1="419.90" x2="425.82" y2="419.90" style="stroke:#000000;stroke-width:5.76"/>
	<text x="405.78" y="454.93" style="font-family:'Helvetica';font-size:99.99px;fill:#000000" text-anchor="end">1.0</text>
	<text x="190.71" y="1186.80" style="font-family:'Helvetica';font-size:99.99px;fill:#000000" transform="rotate(-90 190.71,1186.80)" text-anchor="middle">Transition Probability</text>
	<line x1="465.80" y1="1953.70" x2="3859.02" y2="1953.70" style="stroke:#000000;stroke-width:5.76"/>
	<line x1="465.80" y1="1953.70" x2="465.80" y2="1993.67" style="stroke:#000000;stroke-width:5.76"/>
	<text x="465.80" y="2083.66" style="font-family:'Helvetica';font-size:99.99px;fill:#000000" text-anchor="middle">0</text>
	<line x1="1314.10" y1="1953.70" x2="1314.10" y2="1993.67" style="stroke:#000000;stroke-width:5.76"/>
	<text x="1314.10" y="2083.66" style="font-family:'Helvetica';font-size:99.99px;fill:#000000" text-anchor="middle">500</text>
	<line x1="2162.41" y1="1953.70" x2="2162.41" y2="1993.67" style="stroke:#000000;stroke-width:5.76"/>
	<text x="2162.41" y="2083.66" style="font-family:'Helvetica';font-size:99.99px;fill:#000000" text-anchor="middle">1000</text>
	<line x1="3010.71" y1="1953.70" x2="3010.71" y2="1993.67" style="stroke:#000000;stroke-width:5.76"/>
	<text x="3010.71" y="2083.66" style="font-family:'Helvetica';font-size:99.99px;fill:#000000" text-anchor="middle">1500</text>
	<line x1="3859.02" y1="1953.70" x2="3859.02" y2="1993.67" style="stroke:#000000;stroke-width:5.76"/>
	<text x="3859.02" y="2083.66" style="font-family:'Helvetica';font-size:99.99px;fill:#000000" text-anchor="middle">2000</text>
	<text x="2162.41" y="2193.67" style="font-family:'Helvetica';font-size:99.99px;fill:#000000" text-anchor="middle">Follow-up time</text>
	<rect x="614.42" y="2278.31" width="3095.98" height="466.30" style="fill:#FFFFFF"/>
	<rect x="617.30" y="2281.19" width="3090.22" height="460.54" style="fill:none;stroke:#000000;stroke-width:5.76"/>
	<rect x="657.61" y="2321.50" width="374.47" height="99.99" style="fill:#8BA59D"/>
	<rect x="661.93" y="2325.82" width="365.83" height="91.35" style="fill:none;stroke:#6E8E84;stroke-width:8.64"/>
	<rect x="2232.45" y="2321.50" width="374.34" height="99.99" style="fill:#E99833"/>
	<rect x="2236.77" y="2325.82" width="365.70" height="91.35" style="fill:none;stroke:#E37E00;stroke-width:8.64"/>
	<rect x="657.61" y="2461.46" width="374.47" height="99.99" style="fill:#779159"/>
	<rect x="661.93" y="2465.78" width="365.83" height="91.35" style="fill:none;stroke:#55752F;stroke-width:8.64"/>
	<rect x="2232.45" y="2461.46" width="374.34" height="99.99" style="fill:#A65D62"/>
	<rect x="2236.77" y="2465.78" width="365.70" height="91.35" style="fill:none;stroke:#90353B;stroke-width:8.64"/>
	<rect x="657.61" y="2601.43" width="374.47" height="99.99" style="fill:#486C8C"/>
	<rect x="661.93" y="2605.75" width="365.83" height="91.35" style="fill:none;stroke:#1A476F;stroke-width:8.64"/>
	<text x="1092.09" y="2406.52" style="font-family:'Helvetica';font-size:99.99px;fill:#000000">P(Y(t) = 1 | Y(90) = 3)</text>
	<text x="2666.81" y="2406.52" style="font-family:'Helvetica';font-size:99.99px;fill:#000000">P(Y(t) = 2 | Y(90) = 3)</text>
	<text x="1092.09" y="2546.49" style="font-family:'Helvetica';font-size:99.99px;fill:#000000">P(Y(t) = 3 | Y(90) = 3)</text>
	<text x="2666.81" y="2546.49" style="font-family:'Helvetica';font-size:99.99px;fill:#000000">P(Y(t) = 4 | Y(90) = 3)</text>
	<text x="1092.09" y="2686.46" style="font-family:'Helvetica';font-size:99.99px;fill:#000000">P(Y(t) = 5 | Y(90) = 3)</text>
	<text x="2162.41" y="369.63" style="font-family:'Helvetica';font-size:110.01px;fill:#000000" text-anchor="middle">From 2nd Readmission(3), Outpatient (RP)</text>
	<text x="2162.41" y="215.98" style="font-family:'Helvetica';font-size:139.96px;fill:#1E2D53" text-anchor="middle">P(Y(t) = b | Y(90) = 3, at1)</text>
</svg>
