<?xml version="1.0" encoding="UTF-8" standalone="no"?>
<!-- This is a Stata 16.1 generated SVG file (http://www.stata.com) -->

<svg version="1.1" width="5.50in" height="4.00in" viewBox="0 0 3960 2880" xmlns="http://www.w3.org/2000/svg" xmlns:xlink="http://www.w3.org/1999/xlink">
	<desc>Stata Graph - gh_1_2</desc>
	<rect x="0" y="0" width="3960" height="2880" style="fill:#EAF2F3;stroke:none"/>
	<rect x="0.00" y="0.00" width="3959.88" height="2880.00" style="fill:#FFFFFF"/>
	<rect x="2.88" y="2.88" width="3954.12" height="2874.24" style="fill:none;stroke:#EAF2F3;stroke-width:5.76"/>
	<rect x="465.80" y="419.90" width="3393.22" height="1533.81" style="fill:#FFFFFF"/>
	<rect x="468.67" y="422.78" width="3387.47" height="1528.05" style="fill:none;stroke:#FFFFFF;stroke-width:5.76"/>
	<line x1="465.80" y1="1953.70" x2="3859.02" y2="1953.70" style="stroke:#EAF2F3;stroke-width:8.64"/>
	<line x1="465.80" y1="1800.37" x2="3859.02" y2="1800.37" style="stroke:#EAF2F3;stroke-width:8.64"/>
	<line x1="465.80" y1="1646.92" x2="3859.02" y2="1646.92" style="stroke:#EAF2F3;stroke-width:8.64"/>
	<line x1="465.80" y1="1493.59" x2="3859.02" y2="1493.59" style="stroke:#EAF2F3;stroke-width:8.64"/>
	<line x1="465.80" y1="1340.13" x2="3859.02" y2="1340.13" style="stroke:#EAF2F3;stroke-width:8.64"/>
	<line x1="465.80" y1="1186.80" x2="3859.02" y2="1186.80" style="stroke:#EAF2F3;stroke-width:8.64"/>
	<line x1="465.80" y1="1033.47" x2="3859.02" y2="1033.47" style="stroke:#EAF2F3;stroke-width:8.64"/>
	<line x1="465.80" y1="880.01" x2="3859.02" y2="880.01" style="stroke:#EAF2F3;stroke-width:8.64"/>
	<line x1="465.80" y1="726.68" x2="3859.02" y2="726.68" style="stroke:#EAF2F3;stroke-width:8.64"/>
	<line x1="465.80" y1="573.35" x2="3859.02" y2="573.35" style="stroke:#EAF2F3;stroke-width:8.64"/>
	<line x1="465.80" y1="419.90" x2="3859.02" y2="419.90" style="stroke:#EAF2F3;stroke-width:8.64"/>
	<defs>
		<path id="path_osNcmVhQ" d="M618.38 420.02 L618.38 420.02 L634.84 420.02 L651.30 420.02 L667.75 420.02 L684.21 420.02 L700.67 420.02 L717.13 420.02 L733.59 420.02 L750.05 420.02 L766.51 420.02 L782.97 420.02 L799.42 420.02 L815.88 420.02 L832.34 420.02 L848.80 420.02 L865.26 420.02 L881.72 420.02 L898.18 420.02 L914.64 420.02 L931.10 420.02 L947.55 420.02 L964.01 420.02 L980.47 420.02 L996.93 420.02 L1013.39 420.02 L1029.72 420.02 L1046.18 420.02 L1062.64 420.02 L1079.10 420.02 L1095.56 420.02 L1112.02 420.02 L1128.48 420.02 L1144.93 420.02 L1161.39 420.02 L1177.85 420.02 L1194.31 420.02 L1210.77 420.02 L1227.23 420.02 L1243.69 420.02 L1260.15 420.02 L1276.61 420.02 L1293.06 420.02 L1309.52 420.02 L1325.98 420.02 L1342.44 420.02 L1358.90 420.02 L1375.36 420.02 L1391.82 420.02 L1408.28 420.02 L1424.73 420.02 L1441.19 420.02 L1457.65 420.02 L1474.11 420.02 L1490.57 420.02 L1507.03 420.02 L1523.36 420.02 L1539.82 420.02 L1556.28 420.02 L1572.74 420.02 L1589.20 420.02 L1605.66 420.02 L1622.12 420.02 L1638.57 420.02 L1655.03 420.02 L1671.49 420.02 L1687.95 420.02 L1704.41 420.02 L1720.87 420.02 L1737.33 420.02 L1753.79 420.02 L1770.24 420.02 L1786.70 420.02 L1803.16 420.02 L1819.62 420.02 L1836.08 420.02 L1852.54 420.02 L1869.00 420.02 L1885.45 420.02 L1901.91 420.02 L1918.37 420.02 L1934.83 420.02 L1951.29 420.02 L1967.75 420.02 L1984.21 420.02 L2000.67 420.02 L2017.00 420.02 L2033.46 420.02 L2049.92 420.02 L2066.38 420.02 L2082.84 420.02 L2099.30 420.02 L2115.75 420.02 L2132.21 420.02 L2148.67 420.02 L2165.13 420.02 L2181.59 420.02 L2198.05 420.02 L2214.51 420.02 L2230.97 420.02 L2247.42 420.02 L2263.88 420.02 L2280.34 420.02 L2296.80 420.02 L2313.26 420.02 L2329.72 420.02 L2346.18 420.02 L2362.64 420.02 L2379.09 420.02 L2395.55 420.02 L2412.01 420.02 L2428.47 420.02 L2444.93 420.02 L2461.39 420.02 L2477.85 420.02 L2494.30 420.02 L2510.76 420.02 L2527.10 420.02 L2543.56 420.02 L2560.02 420.02 L2576.47 420.02 L2592.93 420.02 L2609.39 420.02 L2625.85 420.02 L2642.31 420.02 L2658.77 420.02 L2675.23 420.02 L2691.69 420.02 L2708.14 420.02 L2724.60 420.02 L2741.06 420.02 L2757.52 420.02 L2773.98 420.02 L2790.44 420.02 L2806.90 420.02 L2823.36 420.02 L2839.82 420.02 L2856.27 420.02 L2872.73 420.02 L2889.19 420.02 L2905.65 420.02 L2922.11 420.02 L2938.57 420.02 L2955.03 420.02 L2971.49 420.02 L2987.94 420.02 L3004.40 420.02 L3020.74 420.02 L3037.20 420.02 L3053.66 420.02 L3070.11 420.02 L3086.57 420.02 L3103.03 420.02 L3119.49 420.02 L3135.95 420.02 L3152.41 420.02 L3168.87 420.02 L3185.32 420.02 L3201.78 420.02 L3218.24 420.02 L3234.70 420.02 L3251.16 420.02 L3267.62 420.02 L3284.08 420.02 L3300.54 420.02 L3316.99 420.02 L3333.45 420.02 L3349.91 420.02 L3366.37 420.02 L3382.83 420.02 L3399.29 420.02 L3415.75 420.02 L3432.21 420.02 L3448.66 420.02 L3465.12 420.02 L3481.58 420.02 L3498.04 420.02 L3514.38 420.02 L3530.84 420.02 L3547.29 420.02 L3563.75 420.02 L3563.75 1953.70 L618.38 1953.70 L618.38 420.02 Z" stroke-linejoin="round"/>
	</defs>
	<defs>
		<clipPath id="clipPath_KQKEJDJZ">
			<use xlink:href="#path_osNcmVhQ"/>
		</clipPath>
	</defs>
	<use xlink:href="#path_osNcmVhQ" style="stroke:none;fill:#486C8C"/>
	<use xlink:href="#path_osNcmVhQ" style="fill:none;stroke:#1A476F;stroke-width:17.28" clip-path="url(#clipPath_KQKEJDJZ)"/>
	<defs>
		<path id="path_ujzItavy" d="M618.38 420.02 L618.38 420.02 L634.84 420.02 L651.30 420.02 L667.75 420.02 L684.21 420.02 L700.67 420.02 L717.13 420.02 L733.59 420.02 L750.05 420.02 L766.51 420.02 L782.97 420.02 L799.42 420.02 L815.88 420.02 L832.34 420.02 L848.80 420.14 L865.26 420.14 L881.72 420.14 L898.18 420.14 L914.64 420.27 L931.10 420.27 L947.55 420.27 L964.01 420.39 L980.47 420.39 L996.93 420.52 L1013.39 420.52 L1029.72 420.64 L1046.18 420.64 L1062.64 420.76 L1079.10 420.76 L1095.56 420.89 L1112.02 420.89 L1128.48 421.13 L1144.93 421.13 L1161.39 421.26 L1177.85 421.26 L1194.31 421.51 L1210.77 421.75 L1227.23 421.88 L1243.69 422.12 L1260.15 422.25 L1276.61 422.37 L1293.06 422.50 L1309.52 422.74 L1325.98 422.99 L1342.44 423.11 L1358.90 423.24 L1375.36 423.49 L1391.82 423.61 L1408.28 423.86 L1424.73 423.98 L1441.19 424.23 L1457.65 424.60 L1474.11 424.85 L1490.57 425.09 L1507.03 425.47 L1523.36 425.71 L1539.82 426.21 L1556.28 426.46 L1572.74 426.95 L1589.20 427.32 L1605.66 427.82 L1622.12 428.31 L1638.57 428.81 L1655.03 429.18 L1671.49 429.67 L1687.95 430.17 L1704.41 430.66 L1720.87 431.16 L1737.33 431.65 L1753.79 432.27 L1770.24 432.64 L1786.70 433.14 L1803.16 433.63 L1819.62 434.13 L1836.08 434.75 L1852.54 435.12 L1869.00 435.61 L1885.45 436.36 L1901.91 436.97 L1918.37 437.72 L1934.83 438.34 L1951.29 439.08 L1967.75 439.82 L1984.21 440.69 L2000.67 441.43 L2017.00 442.30 L2033.46 443.04 L2049.92 443.91 L2066.38 444.77 L2082.84 445.51 L2099.30 446.26 L2115.75 447.12 L2132.21 447.62 L2148.67 448.36 L2165.13 448.98 L2181.59 449.60 L2198.05 450.34 L2214.51 451.08 L2230.97 451.95 L2247.42 452.69 L2263.88 453.68 L2280.34 454.67 L2296.80 455.54 L2313.26 456.53 L2329.72 457.27 L2346.18 458.26 L2362.64 459.25 L2379.09 460.24 L2395.55 460.98 L2412.01 461.85 L2428.47 463.09 L2444.93 464.20 L2461.39 465.19 L2477.85 465.93 L2494.30 466.92 L2510.76 468.16 L2527.10 469.15 L2543.56 470.14 L2560.02 471.13 L2576.47 471.87 L2592.93 472.99 L2609.39 473.98 L2625.85 474.97 L2642.31 475.83 L2658.77 476.82 L2675.23 477.81 L2691.69 478.80 L2708.14 479.79 L2724.60 480.78 L2741.06 481.65 L2757.52 482.64 L2773.98 483.75 L2790.44 484.62 L2806.90 485.61 L2823.36 486.60 L2839.82 487.84 L2856.27 489.20 L2872.73 490.19 L2889.19 491.30 L2905.65 492.29 L2922.11 493.41 L2938.57 494.40 L2955.03 495.39 L2971.49 496.38 L2987.94 497.49 L3004.40 498.48 L3020.74 499.47 L3037.20 500.58 L3053.66 501.57 L3070.11 502.69 L3086.57 503.80 L3103.03 504.92 L3119.49 506.03 L3135.95 507.02 L3152.41 508.26 L3168.87 509.25 L3185.32 510.24 L3201.78 511.35 L3218.24 512.34 L3234.70 513.45 L3251.16 514.69 L3267.62 515.81 L3284.08 516.80 L3300.54 517.91 L3316.99 519.15 L3333.45 520.14 L3349.91 521.38 L3366.37 522.37 L3382.83 523.23 L3399.29 524.35 L3415.75 525.21 L3432.21 526.45 L3448.66 527.19 L3465.12 528.31 L3481.58 529.30 L3498.04 530.16 L3514.38 531.28 L3530.84 532.39 L3547.29 533.26 L3563.75 534.25 L3563.75 1953.70 L618.38 1953.70 L618.38 420.02 Z" stroke-linejoin="round"/>
	</defs>
	<defs>
		<clipPath id="clipPath_dqceDXGm">
			<use xlink:href="#path_ujzItavy"/>
		</clipPath>
	</defs>
	<use xlink:href="#path_ujzItavy" style="stroke:none;fill:#A65D62"/>
	<use xlink:href="#path_ujzItavy" style="fill:none;stroke:#90353B;stroke-width:17.28" clip-path="url(#clipPath_dqceDXGm)"/>
	<defs>
		<path id="path_saGHJTwz" d="M618.38 420.27 L618.38 420.27 L634.84 420.27 L651.30 420.39 L667.75 420.64 L684.21 420.76 L700.67 421.01 L717.13 421.13 L733.59 421.51 L750.05 421.88 L766.51 422.25 L782.97 422.74 L799.42 423.24 L815.88 423.49 L832.34 424.23 L848.80 424.85 L865.26 425.22 L881.72 425.96 L898.18 426.58 L914.64 427.07 L931.10 427.69 L947.55 428.44 L964.01 429.43 L980.47 430.17 L996.93 431.28 L1013.39 432.15 L1029.72 433.14 L1046.18 433.76 L1062.64 434.87 L1079.10 435.98 L1095.56 436.85 L1112.02 438.09 L1128.48 439.45 L1144.93 440.81 L1161.39 442.17 L1177.85 443.29 L1194.31 444.40 L1210.77 445.76 L1227.23 447.25 L1243.69 448.86 L1260.15 450.22 L1276.61 451.70 L1293.06 453.06 L1309.52 454.55 L1325.98 455.79 L1342.44 457.52 L1358.90 459.37 L1375.36 461.48 L1391.82 462.96 L1408.28 464.82 L1424.73 466.68 L1441.19 468.41 L1457.65 470.14 L1474.11 472.24 L1490.57 473.98 L1507.03 475.83 L1523.36 477.69 L1539.82 479.42 L1556.28 481.28 L1572.74 483.38 L1589.20 485.24 L1605.66 486.85 L1622.12 488.83 L1638.57 490.68 L1655.03 492.66 L1671.49 494.40 L1687.95 496.38 L1704.41 498.23 L1720.87 500.34 L1737.33 502.56 L1753.79 504.79 L1770.24 506.90 L1786.70 508.88 L1803.16 510.98 L1819.62 513.08 L1836.08 515.06 L1852.54 517.29 L1869.00 519.52 L1885.45 521.50 L1901.91 523.60 L1918.37 525.95 L1934.83 527.93 L1951.29 530.04 L1967.75 532.14 L1984.21 534.37 L2000.67 536.47 L2017.00 538.82 L2033.46 541.05 L2049.92 543.28 L2066.38 545.51 L2082.84 547.61 L2099.30 549.59 L2115.75 551.82 L2132.21 553.92 L2148.67 555.90 L2165.13 557.63 L2181.59 559.61 L2198.05 561.72 L2214.51 563.82 L2230.97 565.80 L2247.42 567.91 L2263.88 570.01 L2280.34 571.99 L2296.80 574.22 L2313.26 575.95 L2329.72 577.68 L2346.18 579.66 L2362.64 581.40 L2379.09 583.38 L2395.55 585.23 L2412.01 587.46 L2428.47 589.32 L2444.93 591.30 L2461.39 593.28 L2477.85 595.26 L2494.30 597.36 L2510.76 599.34 L2527.10 601.20 L2543.56 603.05 L2560.02 604.79 L2576.47 606.77 L2592.93 608.37 L2609.39 609.98 L2625.85 611.72 L2642.31 613.57 L2658.77 615.30 L2675.23 617.16 L2691.69 618.65 L2708.14 620.50 L2724.60 622.36 L2741.06 623.97 L2757.52 625.95 L2773.98 627.80 L2790.44 629.54 L2806.90 631.27 L2823.36 633.12 L2839.82 634.86 L2856.27 636.59 L2872.73 638.20 L2889.19 639.81 L2905.65 641.66 L2922.11 643.15 L2938.57 644.88 L2955.03 646.49 L2971.49 647.85 L2987.94 649.58 L3004.40 651.19 L3020.74 652.80 L3037.20 654.04 L3053.66 655.77 L3070.11 657.38 L3086.57 659.11 L3103.03 660.97 L3119.49 662.70 L3135.95 664.19 L3152.41 665.42 L3168.87 667.16 L3185.32 668.39 L3201.78 669.76 L3218.24 671.36 L3234.70 673.10 L3251.16 674.46 L3267.62 675.82 L3284.08 677.06 L3300.54 678.54 L3316.99 680.15 L3333.45 681.51 L3349.91 682.75 L3366.37 684.11 L3382.83 685.72 L3399.29 686.83 L3415.75 688.57 L3432.21 690.05 L3448.66 691.41 L3465.12 692.77 L3481.58 694.26 L3498.04 695.25 L3514.38 696.73 L3530.84 698.10 L3547.29 699.58 L3563.75 700.82 L3563.75 1953.70 L618.38 1953.70 L618.38 420.27 Z" stroke-linejoin="round"/>
	</defs>
	<defs>
		<clipPath id="clipPath_lYMIJrsC">
			<use xlink:href="#path_saGHJTwz"/>
		</clipPath>
	</defs>
	<use xlink:href="#path_saGHJTwz" style="stroke:none;fill:#779159"/>
	<use xlink:href="#path_saGHJTwz" style="fill:none;stroke:#55752F;stroke-width:17.28" clip-path="url(#clipPath_lYMIJrsC)"/>
	<defs>
		<path id="path_nnFvrRpO" d="M618.38 457.15 L618.38 457.15 L634.84 462.47 L651.30 467.42 L667.75 472.99 L684.21 478.80 L700.67 484.74 L717.13 491.18 L733.59 497.61 L750.05 504.05 L766.51 510.61 L782.97 516.55 L799.42 522.86 L815.88 530.41 L832.34 537.09 L848.80 544.15 L865.26 551.20 L881.72 557.76 L898.18 564.94 L914.64 572.11 L931.10 579.54 L947.55 586.84 L964.01 594.64 L980.47 601.82 L996.93 609.12 L1013.39 616.67 L1029.72 624.46 L1046.18 631.64 L1062.64 638.69 L1079.10 645.87 L1095.56 653.42 L1112.02 660.85 L1128.48 668.64 L1144.93 675.94 L1161.39 683.12 L1177.85 690.05 L1194.31 697.11 L1210.77 703.66 L1227.23 710.22 L1243.69 717.28 L1260.15 723.47 L1276.61 729.41 L1293.06 735.96 L1309.52 742.15 L1325.98 748.09 L1342.44 754.16 L1358.90 759.48 L1375.36 765.29 L1391.82 770.00 L1408.28 774.82 L1424.73 780.39 L1441.19 785.47 L1457.65 790.79 L1474.11 795.74 L1490.57 801.06 L1507.03 806.13 L1523.36 810.96 L1539.82 816.16 L1556.28 820.86 L1572.74 825.07 L1589.20 829.65 L1605.66 833.85 L1622.12 838.31 L1638.57 842.64 L1655.03 846.85 L1671.49 851.18 L1687.95 855.14 L1704.41 859.10 L1720.87 862.81 L1737.33 866.28 L1753.79 869.74 L1770.24 873.08 L1786.70 876.80 L1803.16 880.51 L1819.62 884.10 L1836.08 887.81 L1852.54 891.03 L1869.00 894.00 L1885.45 897.46 L1901.91 900.68 L1918.37 903.65 L1934.83 906.99 L1951.29 910.09 L1967.75 913.30 L1984.21 916.27 L2000.67 919.12 L2017.00 921.60 L2033.46 924.44 L2049.92 927.41 L2066.38 930.13 L2082.84 932.86 L2099.30 936.20 L2115.75 938.92 L2132.21 941.77 L2148.67 944.37 L2165.13 947.09 L2181.59 949.56 L2198.05 951.79 L2214.51 954.27 L2230.97 956.86 L2247.42 959.34 L2263.88 961.94 L2280.34 964.04 L2296.80 966.39 L2313.26 968.62 L2329.72 971.10 L2346.18 973.45 L2362.64 975.80 L2379.09 978.15 L2395.55 980.50 L2412.01 982.61 L2428.47 985.08 L2444.93 987.43 L2461.39 989.16 L2477.85 991.27 L2494.30 993.37 L2510.76 995.85 L2527.10 997.95 L2543.56 1000.06 L2560.02 1002.16 L2576.47 1004.14 L2592.93 1006.00 L2609.39 1008.10 L2625.85 1010.33 L2642.31 1012.31 L2658.77 1014.04 L2675.23 1015.77 L2691.69 1017.75 L2708.14 1019.61 L2724.60 1021.46 L2741.06 1023.32 L2757.52 1025.30 L2773.98 1027.28 L2790.44 1028.89 L2806.90 1030.25 L2823.36 1032.11 L2839.82 1033.59 L2856.27 1035.20 L2872.73 1037.06 L2889.19 1038.29 L2905.65 1039.66 L2922.11 1041.39 L2938.57 1043.37 L2955.03 1045.10 L2971.49 1046.46 L2987.94 1047.95 L3004.40 1049.43 L3020.74 1051.04 L3037.20 1052.65 L3053.66 1054.14 L3070.11 1055.62 L3086.57 1057.11 L3103.03 1058.71 L3119.49 1060.08 L3135.95 1061.56 L3152.41 1063.17 L3168.87 1064.53 L3185.32 1065.77 L3201.78 1067.01 L3218.24 1068.61 L3234.70 1070.10 L3251.16 1071.58 L3267.62 1072.95 L3284.08 1074.18 L3300.54 1075.79 L3316.99 1077.52 L3333.45 1078.76 L3349.91 1079.88 L3366.37 1081.11 L3382.83 1082.60 L3399.29 1083.84 L3415.75 1085.20 L3432.21 1086.56 L3448.66 1087.67 L3465.12 1089.16 L3481.58 1090.40 L3498.04 1092.00 L3514.38 1092.99 L3530.84 1094.11 L3547.29 1095.10 L3563.75 1096.21 L3563.75 1953.70 L618.38 1953.70 L618.38 457.15 Z" stroke-linejoin="round"/>
	</defs>
	<defs>
		<clipPath id="clipPath_mcUqjSal">
			<use xlink:href="#path_nnFvrRpO"/>
		</clipPath>
	</defs>
	<use xlink:href="#path_nnFvrRpO" style="stroke:none;fill:#E99833"/>
	<use xlink:href="#path_nnFvrRpO" style="fill:none;stroke:#E37E00;stroke-width:17.28" clip-path="url(#clipPath_mcUqjSal)"/>
	<defs>
		<path id="path_sRvVlyUJ" d="M618.38 1953.70 L618.38 1953.70 L634.84 1953.70 L651.30 1953.70 L667.75 1953.70 L684.21 1953.70 L700.67 1953.70 L717.13 1953.70 L733.59 1953.70 L750.05 1953.70 L766.51 1953.70 L782.97 1953.70 L799.42 1953.70 L815.88 1953.70 L832.34 1953.70 L848.80 1953.70 L865.26 1953.70 L881.72 1953.70 L898.18 1953.70 L914.64 1953.70 L931.10 1953.70 L947.55 1953.70 L964.01 1953.70 L980.47 1953.70 L996.93 1953.70 L1013.39 1953.70 L1029.72 1953.70 L1046.18 1953.70 L1062.64 1953.70 L1079.10 1953.70 L1095.56 1953.70 L1112.02 1953.70 L1128.48 1953.70 L1144.93 1953.70 L1161.39 1953.70 L1177.85 1953.70 L1194.31 1953.70 L1210.77 1953.70 L1227.23 1953.70 L1243.69 1953.70 L1260.15 1953.70 L1276.61 1953.70 L1293.06 1953.70 L1309.52 1953.70 L1325.98 1953.70 L1342.44 1953.70 L1358.90 1953.70 L1375.36 1953.70 L1391.82 1953.70 L1408.28 1953.70 L1424.73 1953.70 L1441.19 1953.70 L1457.65 1953.70 L1474.11 1953.70 L1490.57 1953.70 L1507.03 1953.70 L1523.36 1953.70 L1539.82 1953.70 L1556.28 1953.70 L1572.74 1953.70 L1589.20 1953.70 L1605.66 1953.70 L1622.12 1953.70 L1638.57 1953.70 L1655.03 1953.70 L1671.49 1953.70 L1687.95 1953.70 L1704.41 1953.70 L1720.87 1953.70 L1737.33 1953.70 L1753.79 1953.70 L1770.24 1953.70 L1786.70 1953.70 L1803.16 1953.70 L1819.62 1953.70 L1836.08 1953.70 L1852.54 1953.70 L1869.00 1953.70 L1885.45 1953.70 L1901.91 1953.70 L1918.37 1953.70 L1934.83 1953.70 L1951.29 1953.70 L1967.75 1953.70 L1984.21 1953.70 L2000.67 1953.70 L2017.00 1953.70 L2033.46 1953.70 L2049.92 1953.70 L2066.38 1953.70 L2082.84 1953.70 L2099.30 1953.70 L2115.75 1953.70 L2132.21 1953.70 L2148.67 1953.70 L2165.13 1953.70 L2181.59 1953.70 L2198.05 1953.70 L2214.51 1953.70 L2230.97 1953.70 L2247.42 1953.70 L2263.88 1953.70 L2280.34 1953.70 L2296.80 1953.70 L2313.26 1953.70 L2329.72 1953.70 L2346.18 1953.70 L2362.64 1953.70 L2379.09 1953.70 L2395.55 1953.70 L2412.01 1953.70 L2428.47 1953.70 L2444.93 1953.70 L2461.39 1953.70 L2477.85 1953.70 L2494.30 1953.70 L2510.76 1953.70 L2527.10 1953.70 L2543.56 1953.70 L2560.02 1953.70 L2576.47 1953.70 L2592.93 1953.70 L2609.39 1953.70 L2625.85 1953.70 L2642.31 1953.70 L2658.77 1953.70 L2675.23 1953.70 L2691.69 1953.70 L2708.14 1953.70 L2724.60 1953.70 L2741.06 1953.70 L2757.52 1953.70 L2773.98 1953.70 L2790.44 1953.70 L2806.90 1953.70 L2823.36 1953.70 L2839.82 1953.70 L2856.27 1953.70 L2872.73 1953.70 L2889.19 1953.70 L2905.65 1953.70 L2922.11 1953.70 L2938.57 1953.70 L2955.03 1953.70 L2971.49 1953.70 L2987.94 1953.70 L3004.40 1953.70 L3020.74 1953.70 L3037.20 1953.70 L3053.66 1953.70 L3070.11 1953.70 L3086.57 1953.70 L3103.03 1953.70 L3119.49 1953.70 L3135.95 1953.70 L3152.41 1953.70 L3168.87 1953.70 L3185.32 1953.70 L3201.78 1953.70 L3218.24 1953.70 L3234.70 1953.70 L3251.16 1953.70 L3267.62 1953.70 L3284.08 1953.70 L3300.54 1953.70 L3316.99 1953.70 L3333.45 1953.70 L3349.91 1953.70 L3366.37 1953.70 L3382.83 1953.70 L3399.29 1953.70 L3415.75 1953.70 L3432.21 1953.70 L3448.66 1953.70 L3465.12 1953.70 L3481.58 1953.70 L3498.04 1953.70 L3514.38 1953.70 L3530.84 1953.70 L3547.29 1953.70 L3563.75 1953.70 L3563.75 1953.70 L618.38 1953.70 L618.38 1953.70 Z" stroke-linejoin="round"/>
	</defs>
	<defs>
		<clipPath id="clipPath_rrdfHbXt">
			<use xlink:href="#path_sRvVlyUJ"/>
		</clipPath>
	</defs>
	<use xlink:href="#path_sRvVlyUJ" style="stroke:none;fill:#8BA59D"/>
	<use xlink:href="#path_sRvVlyUJ" style="fill:none;stroke:#6E8E84;stroke-width:17.28" clip-path="url(#clipPath_rrdfHbXt)"/>
	<line x1="465.80" y1="1953.70" x2="465.80" y2="419.90" style="stroke:#000000;stroke-width:5.76"/>
	<line x1="465.80" y1="1953.70" x2="425.82" y2="1953.70" style="stroke:#000000;stroke-width:5.76"/>
	<text x="405.78" y="1988.73" style="font-family:'Helvetica';font-size:99.99px;fill:#000000" text-anchor="end">0.0</text>
	<line x1="465.80" y1="1800.37" x2="425.82" y2="1800.37" style="stroke:#000000;stroke-width:5.76"/>
	<text x="405.78" y="1835.40" style="font-family:'Helvetica';font-size:99.99px;fill:#000000" text-anchor="end">0.1</text>
	<line x1="465.80" y1="1646.92" x2="425.82" y2="1646.92" style="stroke:#000000;stroke-width:5.76"/>
	<text x="405.78" y="1681.94" style="font-family:'Helvetica';font-size:99.99px;fill:#000000" text-anchor="end">0.2</text>
	<line x1="465.80" y1="1493.59" x2="425.82" y2="1493.59" style="stroke:#000000;stroke-width:5.76"/>
	<text x="405.78" y="1528.61" style="font-family:'Helvetica';font-size:99.99px;fill:#000000" text-anchor="end">0.3</text>
	<line x1="465.80" y1="1340.13" x2="425.82" y2="1340.13" style="stroke:#000000;stroke-width:5.76"/>
	<text x="405.78" y="1375.16" style="font-family:'Helvetica';font-size:99.99px;fill:#000000" text-anchor="end">0.4</text>
	<line x1="465.80" y1="1186.80" x2="425.82" y2="1186.80" style="stroke:#000000;stroke-width:5.76"/>
	<text x="405.78" y="1221.83" style="font-family:'Helvetica';font-size:99.99px;fill:#000000" text-anchor="end">0.5</text>
	<line x1="465.80" y1="1033.47" x2="425.82" y2="1033.47" style="stroke:#000000;stroke-width:5.76"/>
	<text x="405.78" y="1068.50" style="font-family:'Helvetica';font-size:99.99px;fill:#000000" text-anchor="end">0.6</text>
	<line x1="465.80" y1="880.01" x2="425.82" y2="880.01" style="stroke:#000000;stroke-width:5.76"/>
	<text x="405.78" y="915.04" style="font-family:'Helvetica';font-size:99.99px;fill:#000000" text-anchor="end">0.7</text>
	<line x1="465.80" y1="726.68" x2="425.82" y2="726.68" style="stroke:#000000;stroke-width:5.76"/>
	<text x="405.78" y="761.71" style="font-family:'Helvetica';font-size:99.99px;fill:#000000" text-anchor="end">0.8</text>
	<line x1="465.80" y1="573.35" x2="425.82" y2="573.35" style="stroke:#000000;stroke-width:5.76"/>
	<text x="405.78" y="608.38" style="font-family:'Helvetica';font-size:99.99px;fill:#000000" text-anchor="end">0.9</text>
	<line x1="465.80" y1="419.90" x2="425.82" y2="419.90" style="stroke:#000000;stroke-width:5.76"/>
	<text x="405.78" y="454.93" style="font-family:'Helvetica';font-size:99.99px;fill:#000000" text-anchor="end">1.0</text>
	<text x="190.71" y="1186.80" style="font-family:'Helvetica';font-size:99.99px;fill:#000000" transform="rotate(-90 190.71,1186.80)" text-anchor="middle">Transition Probability</text>
	<line x1="465.80" y1="1953.70" x2="3859.02" y2="1953.70" style="stroke:#000000;stroke-width:5.76"/>
	<line x1="465.80" y1="1953.70" x2="465.80" y2="1993.67" style="stroke:#000000;stroke-width:5.76"/>
	<text x="465.80" y="2083.66" style="font-family:'Helvetica';font-size:99.99px;fill:#000000" text-anchor="middle">0</text>
	<line x1="1314.10" y1="1953.70" x2="1314.10" y2="1993.67" style="stroke:#000000;stroke-width:5.76"/>
	<text x="1314.10" y="2083.66" style="font-family:'Helvetica';font-size:99.99px;fill:#000000" text-anchor="middle">500</text>
	<line x1="2162.41" y1="1953.70" x2="2162.41" y2="1993.67" style="stroke:#000000;stroke-width:5.76"/>
	<text x="2162.41" y="2083.66" style="font-family:'Helvetica';font-size:99.99px;fill:#000000" text-anchor="middle">1000</text>
	<line x1="3010.71" y1="1953.70" x2="3010.71" y2="1993.67" style="stroke:#000000;stroke-width:5.76"/>
	<text x="3010.71" y="2083.66" style="font-family:'Helvetica';font-size:99.99px;fill:#000000" text-anchor="middle">1500</text>
	<line x1="3859.02" y1="1953.70" x2="3859.02" y2="1993.67" style="stroke:#000000;stroke-width:5.76"/>
	<text x="3859.02" y="2083.66" style="font-family:'Helvetica';font-size:99.99px;fill:#000000" text-anchor="middle">2000</text>
	<text x="2162.41" y="2193.67" style="font-family:'Helvetica';font-size:99.99px;fill:#000000" text-anchor="middle">Follow-up time</text>
	<rect x="614.42" y="2278.31" width="3095.98" height="466.30" style="fill:#FFFFFF"/>
	<rect x="617.30" y="2281.19" width="3090.22" height="460.54" style="fill:none;stroke:#000000;stroke-width:5.76"/>
	<rect x="657.61" y="2321.50" width="374.47" height="99.99" style="fill:#8BA59D"/>
	<rect x="661.93" y="2325.82" width="365.83" height="91.35" style="fill:none;stroke:#6E8E84;stroke-width:8.64"/>
	<rect x="2232.45" y="2321.50" width="374.34" height="99.99" style="fill:#E99833"/>
	<rect x="2236.77" y="2325.82" width="365.70" height="91.35" style="fill:none;stroke:#E37E00;stroke-width:8.64"/>
	<rect x="657.61" y="2461.46" width="374.47" height="99.99" style="fill:#779159"/>
	<rect x="661.93" y="2465.78" width="365.83" height="91.35" style="fill:none;stroke:#55752F;stroke-width:8.64"/>
	<rect x="2232.45" y="2461.46" width="374.34" height="99.99" style="fill:#A65D62"/>
	<rect x="2236.77" y="2465.78" width="365.70" height="91.35" style="fill:none;stroke:#90353B;stroke-width:8.64"/>
	<rect x="657.61" y="2601.43" width="374.47" height="99.99" style="fill:#486C8C"/>
	<rect x="661.93" y="2605.75" width="365.83" height="91.35" style="fill:none;stroke:#1A476F;stroke-width:8.64"/>
	<text x="1092.09" y="2406.52" style="font-family:'Helvetica';font-size:99.99px;fill:#000000">P(Y(t) = 1 | Y(90) = 2)</text>
	<text x="2666.81" y="2406.52" style="font-family:'Helvetica';font-size:99.99px;fill:#000000">P(Y(t) = 2 | Y(90) = 2)</text>
	<text x="1092.09" y="2546.49" style="font-family:'Helvetica';font-size:99.99px;fill:#000000">P(Y(t) = 3 | Y(90) = 2)</text>
	<text x="2666.81" y="2546.49" style="font-family:'Helvetica';font-size:99.99px;fill:#000000">P(Y(t) = 4 | Y(90) = 2)</text>
	<text x="1092.09" y="2686.46" style="font-family:'Helvetica';font-size:99.99px;fill:#000000">P(Y(t) = 5 | Y(90) = 2)</text>
	<text x="2162.41" y="369.63" style="font-family:'Helvetica';font-size:110.01px;fill:#000000" text-anchor="middle">From Readmission(2), Residential (RP)</text>
	<text x="2162.41" y="215.98" style="font-family:'Helvetica';font-size:139.96px;fill:#1E2D53" text-anchor="middle">P(Y(t) = b | Y(90) = 2, at1)</text>
</svg>
