<?xml version="1.0" encoding="UTF-8" standalone="no"?>
<!-- This is a Stata 16.1 generated SVG file (http://www.stata.com) -->

<svg version="1.1" width="5.50in" height="4.00in" viewBox="0 0 3960 2880" xmlns="http://www.w3.org/2000/svg" xmlns:xlink="http://www.w3.org/1999/xlink">
	<desc>Stata Graph - diff_mod45</desc>
	<rect x="0" y="0" width="3960" height="2880" style="fill:#EAF2F3;stroke:none"/>
	<rect x="0.00" y="0.00" width="3959.88" height="2880.00" style="fill:#FFFFFF"/>
	<rect x="2.88" y="2.88" width="3954.12" height="2874.24" style="fill:none;stroke:#FFFFFF;stroke-width:5.76"/>
	<rect x="559.10" y="419.90" width="3299.92" height="2089.34" style="fill:#FFFFFF"/>
	<rect x="561.98" y="422.78" width="3294.16" height="2083.58" style="fill:none;stroke:#FFFFFF;stroke-width:5.76"/>
	<line x1="559.10" y1="2200.59" x2="3859.02" y2="2200.59" style="stroke:#EAF2F3;stroke-width:8.64"/>
	<line x1="559.10" y1="1955.19" x2="3859.02" y2="1955.19" style="stroke:#EAF2F3;stroke-width:8.64"/>
	<line x1="559.10" y1="1709.91" x2="3859.02" y2="1709.91" style="stroke:#EAF2F3;stroke-width:8.64"/>
	<line x1="559.10" y1="1464.63" x2="3859.02" y2="1464.63" style="stroke:#EAF2F3;stroke-width:8.64"/>
	<line x1="559.10" y1="1219.22" x2="3859.02" y2="1219.22" style="stroke:#EAF2F3;stroke-width:8.64"/>
	<line x1="559.10" y1="973.94" x2="3859.02" y2="973.94" style="stroke:#EAF2F3;stroke-width:8.64"/>
	<line x1="559.10" y1="728.66" x2="3859.02" y2="728.66" style="stroke:#EAF2F3;stroke-width:8.64"/>
	<line x1="559.10" y1="1464.63" x2="3859.02" y2="1464.63" style="stroke:#1A476F;stroke-width:8.64"/>
	<defs>
		<path id="path_qGAzjRXx" d="M778.88 1479.48 L778.88 1479.48 L795.71 1479.48 L795.71 1481.58 L812.54 1481.58 L812.54 1483.31 L829.37 1483.31 L829.37 1484.80 L846.20 1484.80 L846.20 1486.28 L863.16 1486.28 L863.16 1487.40 L879.99 1487.40 L879.99 1488.26 L896.82 1488.26 L896.82 1489.87 L913.65 1489.87 L913.65 1490.86 L930.48 1490.86 L930.48 1491.98 L947.31 1491.98 L947.31 1492.84 L964.26 1492.84 L964.26 1494.33 L981.09 1494.33 L981.09 1495.32 L997.92 1495.32 L997.92 1496.43 L1014.75 1496.43 L1014.75 1498.04 L1031.58 1498.04 L1031.58 1499.03 L1048.53 1499.03 L1048.53 1499.90 L1065.36 1499.90 L1065.36 1500.76 L1082.19 1500.76 L1082.19 1501.88 L1099.02 1501.88 L1099.02 1502.87 L1115.85 1502.87 L1115.85 1503.61 L1132.68 1503.61 L1132.68 1504.72 L1149.64 1504.72 L1149.64 1505.59 L1166.47 1505.59 L1166.47 1506.33 L1183.30 1506.33 L1183.30 1507.20 L1200.13 1507.20 L1200.13 1508.06 L1216.96 1508.06 L1216.96 1508.93 L1233.79 1508.93 L1233.79 1509.92 L1250.74 1509.92 L1250.74 1510.79 L1267.57 1510.79 L1267.57 1511.90 L1284.40 1511.90 L1284.40 1512.27 L1301.23 1512.27 L1301.23 1513.01 L1318.06 1513.01 L1318.06 1513.88 L1334.89 1513.88 L1334.89 1514.62 L1351.85 1514.62 L1351.85 1515.24 L1368.67 1515.24 L1368.67 1515.61 L1385.51 1515.61 L1385.51 1516.23 L1402.34 1516.23 L1402.34 1516.73 L1419.16 1516.73 L1419.16 1516.97 L1436.12 1516.97 L1436.12 1517.59 L1452.95 1517.59 L1452.95 1518.09 L1469.78 1518.09 L1469.78 1518.34 L1486.61 1518.34 L1486.61 1518.21 L1503.44 1518.21 L1503.44 1518.71 L1520.27 1518.71 L1520.27 1519.20 L1537.22 1519.20 L1537.22 1519.33 L1554.05 1519.33 L1554.05 1519.94 L1570.88 1519.94 L1570.88 1520.32 L1587.71 1520.32 L1587.71 1521.18 L1604.54 1521.18 L1604.54 1521.80 L1621.37 1521.80 L1621.37 1522.67 L1638.33 1522.67 L1638.33 1523.16 L1655.16 1523.16 L1655.16 1523.29 L1671.99 1523.29 L1671.99 1523.78 L1688.82 1523.78 L1688.82 1524.03 L1705.65 1524.03 L1705.65 1524.40 L1722.48 1524.40 L1722.48 1524.65 L1739.43 1524.65 L1739.43 1525.02 L1756.26 1525.02 L1756.26 1525.39 L1773.09 1525.39 L1773.09 1525.64 L1789.92 1525.64 L1789.92 1525.76 L1806.75 1525.76 L1806.75 1525.64 L1823.70 1525.64 L1823.70 1525.39 L1840.53 1525.39 L1840.53 1525.76 L1857.36 1525.76 L1857.36 1526.13 L1874.19 1526.13 L1874.19 1526.26 L1891.02 1526.26 L1891.02 1526.38 L1907.85 1526.38 L1907.85 1526.38 L1924.81 1526.38 L1924.81 1526.63 L1941.64 1526.63 L1941.64 1526.75 L1958.47 1526.75 L1958.47 1527.25 L1975.30 1527.25 L1975.30 1527.49 L1992.13 1527.49 L1992.13 1527.62 L2008.96 1527.62 L2008.96 1527.62 L2025.91 1527.62 L2025.91 1527.62 L2042.74 1527.62 L2042.74 1527.62 L2059.57 1527.62 L2059.57 1527.87 L2076.40 1527.87 L2076.40 1528.11 L2093.23 1528.11 L2093.23 1528.11 L2110.18 1528.11 L2110.18 1528.24 L2127.01 1528.24 L2127.01 1528.61 L2143.84 1528.61 L2143.84 1528.36 L2160.68 1528.36 L2160.68 1528.48 L2177.51 1528.48 L2177.51 1528.73 L2194.34 1528.73 L2194.34 1528.98 L2211.29 1528.98 L2211.29 1529.10 L2228.12 1529.10 L2228.12 1528.86 L2244.95 1528.86 L2244.95 1528.98 L2261.78 1528.98 L2261.78 1529.10 L2278.61 1529.10 L2278.61 1529.35 L2295.44 1529.35 L2295.44 1529.35 L2312.39 1529.35 L2312.39 1529.72 L2329.22 1529.72 L2329.22 1529.47 L2346.05 1529.47 L2346.05 1529.85 L2362.88 1529.85 L2362.88 1530.34 L2379.71 1530.34 L2379.71 1530.46 L2396.54 1530.46 L2396.54 1530.59 L2413.50 1530.59 L2413.50 1530.59 L2430.33 1530.59 L2430.33 1531.08 L2447.16 1531.08 L2447.16 1531.08 L2463.99 1531.08 L2463.99 1531.08 L2480.82 1531.08 L2480.82 1531.21 L2497.77 1531.21 L2497.77 1531.45 L2514.60 1531.45 L2514.60 1531.33 L2531.43 1531.33 L2531.43 1531.08 L2548.26 1531.08 L2548.26 1530.84 L2565.09 1530.84 L2565.09 1530.84 L2581.92 1530.84 L2581.92 1530.34 L2598.87 1530.34 L2598.87 1530.71 L2615.70 1530.71 L2615.70 1530.59 L2632.53 1530.59 L2632.53 1530.59 L2649.36 1530.59 L2649.36 1530.84 L2666.19 1530.84 L2666.19 1530.96 L2683.02 1530.96 L2683.02 1530.96 L2699.98 1530.96 L2699.98 1531.08 L2716.81 1531.08 L2716.81 1530.96 L2733.64 1530.96 L2733.64 1530.59 L2750.47 1530.59 L2750.47 1530.71 L2767.30 1530.71 L2767.30 1530.71 L2784.25 1530.71 L2784.25 1530.71 L2801.08 1530.71 L2801.08 1530.96 L2817.91 1530.96 L2817.91 1530.96 L2834.74 1530.96 L2834.74 1531.21 L2851.57 1531.21 L2851.57 1531.21 L2868.40 1531.21 L2868.40 1531.45 L2885.36 1531.45 L2885.36 1531.70 L2902.18 1531.70 L2902.18 1531.58 L2919.01 1531.58 L2919.01 1531.58 L2935.84 1531.58 L2935.84 1531.58 L2952.68 1531.58 L2952.68 1531.70 L2969.51 1531.70 L2969.51 1531.58 L2986.46 1531.58 L2986.46 1531.70 L3003.29 1531.70 L3003.29 1531.45 L3020.12 1531.45 L3020.12 1531.70 L3036.95 1531.70 L3036.95 1531.70 L3053.78 1531.70 L3053.78 1531.95 L3070.61 1531.95 L3070.61 1532.07 L3087.56 1532.07 L3087.56 1532.44 L3104.39 1532.44 L3104.39 1532.57 L3121.22 1532.57 L3121.22 1532.57 L3138.05 1532.57 L3138.05 1532.57 L3154.88 1532.57 L3154.88 1532.44 L3171.84 1532.44 L3171.84 1532.32 L3188.67 1532.32 L3188.67 1532.44 L3205.50 1532.44 L3205.50 1532.44 L3222.33 1532.44 L3222.33 1532.32 L3239.16 1532.32 L3239.16 1532.07 L3255.99 1532.07 L3255.99 1531.95 L3272.94 1531.95 L3272.94 1531.70 L3289.77 1531.70 L3289.77 1531.33 L3306.60 1531.33 L3306.60 1531.33 L3323.43 1531.33 L3323.43 1531.08 L3340.26 1531.08 L3340.26 1530.71 L3357.09 1530.71 L3357.09 1530.96 L3374.04 1530.96 L3374.04 1530.96 L3390.87 1530.96 L3390.87 1530.71 L3407.70 1530.71 L3407.70 1530.71 L3424.53 1530.71 L3424.53 1530.84 L3441.36 1530.84 L3441.36 1530.71 L3458.19 1530.71 L3458.19 1530.71 L3475.15 1530.71 L3475.15 1530.71 L3491.98 1530.71 L3491.98 1530.59 L3508.81 1530.59 L3508.81 1530.59 L3525.64 1530.59 L3525.64 1530.71 L3542.47 1530.71 L3542.47 1530.71 L3559.42 1530.71 L3559.42 1530.96 L3576.25 1530.96 L3576.25 1530.96 L3593.08 1530.96 L3593.08 1530.71 L3609.91 1530.71 L3609.91 1531.08 L3626.74 1531.08 L3626.74 1531.08 L3643.57 1531.08 L3643.57 1530.96 L3660.53 1530.96 L3660.53 1530.71 L3677.36 1530.71 L3677.36 1530.96 L3694.18 1530.96 L3694.18 1530.84 L3711.01 1530.84 L3711.01 1531.21 L3727.84 1531.21 L3727.84 1531.33 L3744.68 1531.33 L3744.68 1531.08 L3761.63 1531.08 L3761.63 1530.96 L3778.46 1530.96 L3778.46 1531.08 L3795.29 1531.08 L3795.29 1531.21 L3795.29 1370.08 L3795.29 1369.96 L3778.46 1369.96 L3778.46 1369.83 L3761.63 1369.83 L3761.63 1369.83 L3744.68 1369.83 L3744.68 1370.08 L3727.84 1370.08 L3727.84 1369.83 L3711.01 1369.83 L3711.01 1369.46 L3694.18 1369.46 L3694.18 1369.71 L3677.36 1369.71 L3677.36 1369.46 L3660.53 1369.46 L3660.53 1369.58 L3643.57 1369.58 L3643.57 1369.71 L3626.74 1369.71 L3626.74 1369.58 L3609.91 1369.58 L3609.91 1369.34 L3593.08 1369.34 L3593.08 1369.46 L3576.25 1369.46 L3576.25 1369.46 L3559.42 1369.46 L3559.42 1369.21 L3542.47 1369.21 L3542.47 1369.21 L3525.64 1369.21 L3525.64 1368.97 L3508.81 1368.97 L3508.81 1368.97 L3491.98 1368.97 L3491.98 1369.09 L3475.15 1369.09 L3475.15 1369.21 L3458.19 1369.21 L3458.19 1369.21 L3441.36 1369.21 L3441.36 1369.34 L3424.53 1369.34 L3424.53 1369.21 L3407.70 1369.21 L3407.70 1369.34 L3390.87 1369.34 L3390.87 1369.46 L3374.04 1369.46 L3374.04 1369.46 L3357.09 1369.46 L3357.09 1369.21 L3340.26 1369.21 L3340.26 1369.71 L3323.43 1369.71 L3323.43 1369.96 L3306.60 1369.96 L3306.60 1369.96 L3289.77 1369.96 L3289.77 1370.33 L3272.94 1370.33 L3272.94 1370.57 L3255.99 1370.57 L3255.99 1370.82 L3239.16 1370.82 L3239.16 1371.07 L3222.33 1371.07 L3222.33 1371.32 L3205.50 1371.32 L3205.50 1371.32 L3188.67 1371.32 L3188.67 1371.19 L3171.84 1371.19 L3171.84 1371.32 L3154.88 1371.32 L3154.88 1371.56 L3138.05 1371.56 L3138.05 1371.69 L3121.22 1371.69 L3121.22 1371.69 L3104.39 1371.69 L3104.39 1371.56 L3087.56 1371.56 L3087.56 1371.32 L3070.61 1371.32 L3070.61 1371.32 L3053.78 1371.32 L3053.78 1371.19 L3036.95 1371.19 L3036.95 1371.07 L3020.12 1371.07 L3020.12 1371.07 L3003.29 1371.07 L3003.29 1371.32 L2986.46 1371.32 L2986.46 1371.32 L2969.51 1371.32 L2969.51 1371.44 L2952.68 1371.44 L2952.68 1371.44 L2935.84 1371.44 L2935.84 1371.44 L2919.01 1371.44 L2919.01 1371.56 L2902.18 1371.56 L2902.18 1371.69 L2885.36 1371.69 L2885.36 1371.69 L2868.40 1371.69 L2868.40 1371.56 L2851.57 1371.56 L2851.57 1371.56 L2834.74 1371.56 L2834.74 1371.44 L2817.91 1371.44 L2817.91 1371.56 L2801.08 1371.56 L2801.08 1371.44 L2784.25 1371.44 L2784.25 1371.69 L2767.30 1371.69 L2767.30 1371.81 L2750.47 1371.81 L2750.47 1371.81 L2733.64 1371.81 L2733.64 1372.31 L2716.81 1372.31 L2716.81 1372.68 L2699.98 1372.68 L2699.98 1372.68 L2683.02 1372.68 L2683.02 1372.80 L2666.19 1372.80 L2666.19 1372.80 L2649.36 1372.80 L2649.36 1372.80 L2632.53 1372.80 L2632.53 1372.93 L2615.70 1372.93 L2615.70 1373.17 L2598.87 1373.17 L2598.87 1373.17 L2581.92 1373.17 L2581.92 1373.67 L2565.09 1373.67 L2565.09 1374.04 L2548.26 1374.04 L2548.26 1374.41 L2531.43 1374.41 L2531.43 1374.91 L2514.60 1374.91 L2514.60 1375.15 L2497.77 1375.15 L2497.77 1375.28 L2480.82 1375.28 L2480.82 1375.28 L2463.99 1375.28 L2463.99 1375.65 L2447.16 1375.65 L2447.16 1375.90 L2430.33 1375.90 L2430.33 1375.65 L2413.50 1375.65 L2413.50 1375.77 L2396.54 1375.77 L2396.54 1376.02 L2379.71 1376.02 L2379.71 1376.14 L2362.88 1376.14 L2362.88 1375.90 L2346.05 1375.90 L2346.05 1375.90 L2329.22 1375.90 L2329.22 1376.39 L2312.39 1376.39 L2312.39 1376.27 L2295.44 1376.27 L2295.44 1376.39 L2278.61 1376.39 L2278.61 1376.51 L2261.78 1376.51 L2261.78 1376.76 L2244.95 1376.76 L2244.95 1377.01 L2228.12 1377.01 L2228.12 1377.50 L2211.29 1377.50 L2211.29 1377.75 L2194.34 1377.75 L2194.34 1377.88 L2177.51 1377.88 L2177.51 1378.00 L2160.68 1378.00 L2160.68 1378.12 L2143.84 1378.12 L2143.84 1378.87 L2127.01 1378.87 L2127.01 1378.87 L2110.18 1378.87 L2110.18 1379.11 L2093.23 1379.11 L2093.23 1379.48 L2076.40 1379.48 L2076.40 1379.73 L2059.57 1379.73 L2059.57 1379.98 L2042.74 1379.98 L2042.74 1380.35 L2025.91 1380.35 L2025.91 1380.85 L2008.96 1380.85 L2008.96 1381.22 L1992.13 1381.22 L1992.13 1381.59 L1975.30 1381.59 L1975.30 1381.84 L1958.47 1381.84 L1958.47 1381.96 L1941.64 1381.96 L1941.64 1382.33 L1924.81 1382.33 L1924.81 1382.58 L1907.85 1382.58 L1907.85 1383.20 L1891.02 1383.20 L1891.02 1383.69 L1874.19 1383.69 L1874.19 1384.19 L1857.36 1384.19 L1857.36 1384.43 L1840.53 1384.43 L1840.53 1384.56 L1823.70 1384.56 L1823.70 1385.55 L1806.75 1385.55 L1806.75 1386.29 L1789.92 1386.29 L1789.92 1386.79 L1773.09 1386.79 L1773.09 1387.16 L1756.26 1387.16 L1756.26 1387.40 L1739.43 1387.40 L1739.43 1387.78 L1722.48 1387.78 L1722.48 1388.39 L1705.65 1388.39 L1705.65 1388.64 L1688.82 1388.64 L1688.82 1389.26 L1671.99 1389.26 L1671.99 1389.63 L1655.16 1389.63 L1655.16 1390.25 L1638.33 1390.25 L1638.33 1390.62 L1621.37 1390.62 L1621.37 1390.75 L1604.54 1390.75 L1604.54 1390.99 L1587.71 1390.99 L1587.71 1391.12 L1570.88 1391.12 L1570.88 1391.61 L1554.05 1391.61 L1554.05 1391.86 L1537.22 1391.86 L1537.22 1392.73 L1520.27 1392.73 L1520.27 1393.22 L1503.44 1393.22 L1503.44 1393.84 L1486.61 1393.84 L1486.61 1395.08 L1469.78 1395.08 L1469.78 1395.82 L1452.95 1395.82 L1452.95 1396.56 L1436.12 1396.56 L1436.12 1397.06 L1419.16 1397.06 L1419.16 1398.05 L1402.34 1398.05 L1402.34 1398.67 L1385.51 1398.67 L1385.51 1399.41 L1368.67 1399.41 L1368.67 1400.40 L1351.85 1400.40 L1351.85 1401.14 L1334.89 1401.14 L1334.89 1401.64 L1318.06 1401.64 L1318.06 1402.26 L1301.23 1402.26 L1301.23 1403.00 L1284.40 1403.00 L1284.40 1404.11 L1267.57 1404.11 L1267.57 1404.61 L1250.74 1404.61 L1250.74 1405.35 L1233.79 1405.35 L1233.79 1405.97 L1216.96 1405.97 L1216.96 1406.83 L1200.13 1406.83 L1200.13 1407.70 L1183.30 1407.70 L1183.30 1408.69 L1166.47 1408.69 L1166.47 1409.68 L1149.64 1409.68 L1149.64 1410.79 L1132.68 1410.79 L1132.68 1411.54 L1115.85 1411.54 L1115.85 1412.90 L1099.02 1412.90 L1099.02 1414.01 L1082.19 1414.01 L1082.19 1415.13 L1065.36 1415.13 L1065.36 1416.61 L1048.53 1416.61 L1048.53 1418.10 L1031.58 1418.10 L1031.58 1419.33 L1014.75 1419.33 L1014.75 1420.20 L997.92 1420.20 L997.92 1421.68 L981.09 1421.68 L981.09 1423.29 L964.26 1423.29 L964.26 1424.65 L947.31 1424.65 L947.31 1426.63 L930.48 1426.63 L930.48 1428.49 L913.65 1428.49 L913.65 1430.59 L896.82 1430.59 L896.82 1432.08 L879.99 1432.08 L879.99 1434.43 L863.16 1434.43 L863.16 1436.78 L846.20 1436.78 L846.20 1438.76 L829.37 1438.76 L829.37 1440.87 L812.54 1440.87 L812.54 1442.85 L795.71 1442.85 L795.71 1444.58 L778.88 1444.58 L778.88 1479.48 Z" stroke-linejoin="round"/>
	</defs>
	<defs>
		<clipPath id="clipPath_DXIQSGvR">
			<use xlink:href="#path_qGAzjRXx"/>
		</clipPath>
	</defs>
	<use xlink:href="#path_qGAzjRXx" style="stroke:none;fill:#999999;fill-opacity:0.65"/>
	<use xlink:href="#path_qGAzjRXx" style="fill:none;stroke:#808080;stroke-opacity:0.65;stroke-width:17.28" clip-path="url(#clipPath_DXIQSGvR)"/>
	<path d=" M778.76 1462.15 L795.59 1462.15 L795.59 1462.28 L812.54 1462.28 L812.54 1462.15 L829.37 1462.15 L829.37 1461.90 L846.20 1461.90 L846.20 1461.66 L863.03 1461.66 L863.03 1461.04 L879.86 1461.04 L879.86 1460.30 L896.69 1460.30 L896.69 1460.30 L913.65 1460.30 L913.65 1459.80 L930.48 1459.80 L930.48 1459.31 L947.31 1459.31 L947.31 1458.81 L964.14 1458.81 L964.14 1458.93 L980.97 1458.93 L980.97 1458.56 L997.80 1458.56 L997.80 1458.32 L1014.75 1458.32 L1014.75 1458.69 L1031.58 1458.69 L1031.58 1458.56 L1048.41 1458.56 L1048.41 1458.32 L1065.24 1458.32 L1065.24 1457.94 L1082.07 1457.94 L1082.07 1458.07 L1099.02 1458.07 L1099.02 1457.94 L1115.85 1457.94 L1115.85 1457.57 L1132.68 1457.57 L1132.68 1457.82 L1149.51 1457.82 L1149.51 1457.70 L1166.34 1457.70 L1166.34 1457.57 L1183.17 1457.57 L1183.17 1457.57 L1200.13 1457.57 L1200.13 1457.57 L1216.96 1457.57 L1216.96 1457.57 L1233.79 1457.57 L1233.79 1457.70 L1250.62 1457.70 L1250.62 1457.70 L1267.45 1457.70 L1267.45 1458.07 L1284.28 1458.07 L1284.28 1457.70 L1301.23 1457.70 L1301.23 1457.70 L1318.06 1457.70 L1318.06 1457.82 L1334.89 1457.82 L1334.89 1457.94 L1351.72 1457.94 L1351.72 1457.82 L1368.55 1457.82 L1368.55 1457.57 L1385.51 1457.57 L1385.51 1457.45 L1402.34 1457.45 L1402.34 1457.45 L1419.16 1457.45 L1419.16 1457.08 L1435.99 1457.08 L1435.99 1457.08 L1452.83 1457.08 L1452.83 1456.95 L1469.65 1456.95 L1469.65 1456.71 L1486.61 1456.71 L1486.61 1456.09 L1503.44 1456.09 L1503.44 1455.96 L1520.27 1455.96 L1520.27 1455.96 L1537.10 1455.96 L1537.10 1455.59 L1553.93 1455.59 L1553.93 1455.84 L1570.76 1455.84 L1570.76 1455.72 L1587.71 1455.72 L1587.71 1456.21 L1604.54 1456.21 L1604.54 1456.34 L1621.37 1456.34 L1621.37 1456.58 L1638.20 1456.58 L1638.20 1456.83 L1655.03 1456.83 L1655.03 1456.46 L1671.86 1456.46 L1671.86 1456.58 L1688.82 1456.58 L1688.82 1456.34 L1705.65 1456.34 L1705.65 1456.34 L1722.48 1456.34 L1722.48 1456.21 L1739.31 1456.21 L1739.31 1456.21 L1756.14 1456.21 L1756.14 1456.21 L1773.09 1456.21 L1773.09 1456.21 L1789.92 1456.21 L1789.92 1456.09 L1806.75 1456.09 L1806.75 1455.59 L1823.58 1455.59 L1823.58 1454.97 L1840.41 1454.97 L1840.41 1455.10 L1857.24 1455.10 L1857.24 1455.22 L1874.19 1455.22 L1874.19 1454.97 L1891.02 1454.97 L1891.02 1454.73 L1907.85 1454.73 L1907.85 1454.48 L1924.68 1454.48 L1924.68 1454.48 L1941.51 1454.48 L1941.51 1454.36 L1958.34 1454.36 L1958.34 1454.48 L1975.30 1454.48 L1975.30 1454.60 L1992.13 1454.60 L1992.13 1454.48 L2008.96 1454.48 L2008.96 1454.23 L2025.79 1454.23 L2025.79 1453.98 L2042.62 1453.98 L2042.62 1453.74 L2059.45 1453.74 L2059.45 1453.86 L2076.40 1453.86 L2076.40 1453.86 L2093.23 1453.86 L2093.23 1453.61 L2110.06 1453.61 L2110.06 1453.49 L2126.89 1453.49 L2126.89 1453.74 L2143.72 1453.74 L2143.72 1453.24 L2160.68 1453.24 L2160.68 1453.24 L2177.51 1453.24 L2177.51 1453.24 L2194.34 1453.24 L2194.34 1453.37 L2211.16 1453.37 L2211.16 1453.24 L2227.99 1453.24 L2227.99 1452.99 L2244.82 1452.99 L2244.82 1452.87 L2261.78 1452.87 L2261.78 1452.87 L2278.61 1452.87 L2278.61 1452.87 L2295.44 1452.87 L2295.44 1452.75 L2312.27 1452.75 L2312.27 1452.99 L2329.10 1452.99 L2329.10 1452.62 L2345.93 1452.62 L2345.93 1452.87 L2362.88 1452.87 L2362.88 1453.24 L2379.71 1453.24 L2379.71 1453.24 L2396.54 1453.24 L2396.54 1453.24 L2413.37 1453.24 L2413.37 1453.12 L2430.20 1453.12 L2430.20 1453.49 L2447.16 1453.49 L2447.16 1453.37 L2463.99 1453.37 L2463.99 1453.24 L2480.82 1453.24 L2480.82 1453.24 L2497.65 1453.24 L2497.65 1453.24 L2514.48 1453.24 L2514.48 1453.12 L2531.31 1453.12 L2531.31 1452.75 L2548.26 1452.75 L2548.26 1452.38 L2565.09 1452.38 L2565.09 1452.25 L2581.92 1452.25 L2581.92 1451.76 L2598.75 1451.76 L2598.75 1451.88 L2615.58 1451.88 L2615.58 1451.76 L2632.41 1451.76 L2632.41 1451.76 L2649.36 1451.76 L2649.36 1451.76 L2666.19 1451.76 L2666.19 1451.88 L2683.02 1451.88 L2683.02 1451.76 L2699.85 1451.76 L2699.85 1451.88 L2716.68 1451.88 L2716.68 1451.63 L2733.51 1451.63 L2733.51 1451.14 L2750.47 1451.14 L2750.47 1451.26 L2767.30 1451.26 L2767.30 1451.14 L2784.13 1451.14 L2784.13 1451.01 L2800.96 1451.01 L2800.96 1451.26 L2817.79 1451.26 L2817.79 1451.26 L2834.74 1451.26 L2834.74 1451.39 L2851.57 1451.39 L2851.57 1451.39 L2868.40 1451.39 L2868.40 1451.51 L2885.23 1451.51 L2885.23 1451.63 L2902.06 1451.63 L2902.06 1451.51 L2918.89 1451.51 L2918.89 1451.51 L2935.84 1451.51 L2935.84 1451.51 L2952.68 1451.51 L2952.68 1451.51 L2969.51 1451.51 L2969.51 1451.39 L2986.34 1451.39 L2986.34 1451.51 L3003.16 1451.51 L3003.16 1451.26 L3019.99 1451.26 L3019.99 1451.39 L3036.95 1451.39 L3036.95 1451.39 L3053.78 1451.39 L3053.78 1451.63 L3070.61 1451.63 L3070.61 1451.63 L3087.44 1451.63 L3087.44 1452.00 L3104.27 1452.00 L3104.27 1452.13 L3121.10 1452.13 L3121.10 1452.13 L3138.05 1452.13 L3138.05 1452.00 L3154.88 1452.00 L3154.88 1451.88 L3171.71 1451.88 L3171.71 1451.76 L3188.54 1451.76 L3188.54 1451.88 L3205.37 1451.88 L3205.37 1451.88 L3222.33 1451.88 L3222.33 1451.76 L3239.16 1451.76 L3239.16 1451.39 L3255.99 1451.39 L3255.99 1451.26 L3272.82 1451.26 L3272.82 1451.01 L3289.65 1451.01 L3289.65 1450.64 L3306.48 1450.64 L3306.48 1450.64 L3323.43 1450.64 L3323.43 1450.40 L3340.26 1450.40 L3340.26 1449.90 L3357.09 1449.90 L3357.09 1450.15 L3373.92 1450.15 L3373.92 1450.15 L3390.75 1450.15 L3390.75 1450.02 L3407.58 1450.02 L3407.58 1449.90 L3424.53 1449.90 L3424.53 1450.02 L3441.36 1450.02 L3441.36 1449.90 L3458.19 1449.90 L3458.19 1449.90 L3475.02 1449.90 L3475.02 1449.90 L3491.85 1449.90 L3491.85 1449.78 L3508.81 1449.78 L3508.81 1449.78 L3525.64 1449.78 L3525.64 1449.90 L3542.47 1449.90 L3542.47 1449.90 L3559.30 1449.90 L3559.30 1450.15 L3576.13 1450.15 L3576.13 1450.15 L3592.96 1450.15 L3592.96 1450.02 L3609.91 1450.02 L3609.91 1450.27 L3626.74 1450.27 L3626.74 1450.27 L3643.57 1450.27 L3643.57 1450.27 L3660.40 1450.27 L3660.40 1450.02 L3677.23 1450.02 L3677.23 1450.27 L3694.06 1450.27 L3694.06 1450.15 L3711.01 1450.15 L3711.01 1450.52 L3727.84 1450.52 L3727.84 1450.77 L3744.68 1450.77 L3744.68 1450.40 L3761.51 1450.40 L3761.51 1450.40 L3778.34 1450.40 L3778.34 1450.52 L3795.16 1450.52 L3795.16 1450.64" stroke-linejoin="round" style="fill:none;stroke:#000000;stroke-width:8.64"/>
	<line x1="559.10" y1="2509.23" x2="559.10" y2="419.90" style="stroke:#000000;stroke-width:5.76"/>
	<line x1="559.10" y1="2445.87" x2="519.13" y2="2445.87" style="stroke:#000000;stroke-width:5.76"/>
	<text x="499.08" y="2480.90" style="font-family:'Helvetica';font-size:99.99px;fill:#000000" text-anchor="end">-1.00</text>
	<line x1="559.10" y1="2200.59" x2="519.13" y2="2200.59" style="stroke:#000000;stroke-width:5.76"/>
	<text x="499.08" y="2235.62" style="font-family:'Helvetica';font-size:99.99px;fill:#000000" text-anchor="end">-0.75</text>
	<line x1="559.10" y1="1955.19" x2="519.13" y2="1955.19" style="stroke:#000000;stroke-width:5.76"/>
	<text x="499.08" y="1990.22" style="font-family:'Helvetica';font-size:99.99px;fill:#000000" text-anchor="end">-0.50</text>
	<line x1="559.10" y1="1709.91" x2="519.13" y2="1709.91" style="stroke:#000000;stroke-width:5.76"/>
	<text x="499.08" y="1744.94" style="font-family:'Helvetica';font-size:99.99px;fill:#000000" text-anchor="end">-0.25</text>
	<line x1="559.10" y1="1464.63" x2="519.13" y2="1464.63" style="stroke:#000000;stroke-width:5.76"/>
	<text x="499.08" y="1499.66" style="font-family:'Helvetica';font-size:99.99px;fill:#000000" text-anchor="end">0.00</text>
	<line x1="559.10" y1="1219.22" x2="519.13" y2="1219.22" style="stroke:#000000;stroke-width:5.76"/>
	<text x="499.08" y="1254.25" style="font-family:'Helvetica';font-size:99.99px;fill:#000000" text-anchor="end">0.25</text>
	<line x1="559.10" y1="973.94" x2="519.13" y2="973.94" style="stroke:#000000;stroke-width:5.76"/>
	<text x="499.08" y="1008.97" style="font-family:'Helvetica';font-size:99.99px;fill:#000000" text-anchor="end">0.50</text>
	<line x1="559.10" y1="728.66" x2="519.13" y2="728.66" style="stroke:#000000;stroke-width:5.76"/>
	<text x="499.08" y="763.69" style="font-family:'Helvetica';font-size:99.99px;fill:#000000" text-anchor="end">0.75</text>
	<line x1="559.10" y1="483.26" x2="519.13" y2="483.26" style="stroke:#000000;stroke-width:5.76"/>
	<text x="499.08" y="518.29" style="font-family:'Helvetica';font-size:99.99px;fill:#000000" text-anchor="end">1.00</text>
	<text x="190.71" y="1464.63" style="font-family:'Helvetica';font-size:99.99px;fill:#000000" transform="rotate(-90 190.71,1464.63)" text-anchor="middle">Difference in Probabilities</text>
	<line x1="559.10" y1="2509.23" x2="3859.02" y2="2509.23" style="stroke:#000000;stroke-width:5.76"/>
	<line x1="622.46" y1="2509.23" x2="622.46" y2="2549.21" style="stroke:#000000;stroke-width:5.76"/>
	<text x="622.46" y="2625.15" style="font-family:'Helvetica';font-size:79.94px;fill:#000000" text-anchor="middle">0</text>
	<line x1="812.91" y1="2509.23" x2="812.91" y2="2549.21" style="stroke:#000000;stroke-width:5.76"/>
	<text x="812.91" y="2625.15" style="font-family:'Helvetica';font-size:79.94px;fill:#000000" text-anchor="middle">.3</text>
	<line x1="1003.24" y1="2509.23" x2="1003.24" y2="2549.21" style="stroke:#000000;stroke-width:5.76"/>
	<text x="1003.24" y="2625.15" style="font-family:'Helvetica';font-size:79.94px;fill:#000000" text-anchor="middle">.6</text>
	<line x1="1193.69" y1="2509.23" x2="1193.69" y2="2549.21" style="stroke:#000000;stroke-width:5.76"/>
	<text x="1193.69" y="2625.15" style="font-family:'Helvetica';font-size:79.94px;fill:#000000" text-anchor="middle">.9</text>
	<line x1="1384.02" y1="2509.23" x2="1384.02" y2="2549.21" style="stroke:#000000;stroke-width:5.76"/>
	<text x="1384.02" y="2625.15" style="font-family:'Helvetica';font-size:79.94px;fill:#000000" text-anchor="middle">1.2</text>
	<line x1="1574.47" y1="2509.23" x2="1574.47" y2="2549.21" style="stroke:#000000;stroke-width:5.76"/>
	<text x="1574.47" y="2625.15" style="font-family:'Helvetica';font-size:79.94px;fill:#000000" text-anchor="middle">1.5</text>
	<line x1="1764.80" y1="2509.23" x2="1764.80" y2="2549.21" style="stroke:#000000;stroke-width:5.76"/>
	<text x="1764.80" y="2625.15" style="font-family:'Helvetica';font-size:79.94px;fill:#000000" text-anchor="middle">1.8</text>
	<line x1="1955.25" y1="2509.23" x2="1955.25" y2="2549.21" style="stroke:#000000;stroke-width:5.76"/>
	<text x="1955.25" y="2625.15" style="font-family:'Helvetica';font-size:79.94px;fill:#000000" text-anchor="middle">2.1</text>
	<line x1="2145.58" y1="2509.23" x2="2145.58" y2="2549.21" style="stroke:#000000;stroke-width:5.76"/>
	<text x="2145.58" y="2625.15" style="font-family:'Helvetica';font-size:79.94px;fill:#000000" text-anchor="middle">2.4</text>
	<line x1="2336.03" y1="2509.23" x2="2336.03" y2="2549.21" style="stroke:#000000;stroke-width:5.76"/>
	<text x="2336.03" y="2625.15" style="font-family:'Helvetica';font-size:79.94px;fill:#000000" text-anchor="middle">2.7</text>
	<line x1="2526.48" y1="2509.23" x2="2526.48" y2="2549.21" style="stroke:#000000;stroke-width:5.76"/>
	<text x="2526.48" y="2625.15" style="font-family:'Helvetica';font-size:79.94px;fill:#000000" text-anchor="middle">3</text>
	<line x1="2716.81" y1="2509.23" x2="2716.81" y2="2549.21" style="stroke:#000000;stroke-width:5.76"/>
	<text x="2716.81" y="2625.15" style="font-family:'Helvetica';font-size:79.94px;fill:#000000" text-anchor="middle">3.3</text>
	<line x1="2907.26" y1="2509.23" x2="2907.26" y2="2549.21" style="stroke:#000000;stroke-width:5.76"/>
	<text x="2907.26" y="2625.15" style="font-family:'Helvetica';font-size:79.94px;fill:#000000" text-anchor="middle">3.6</text>
	<line x1="3097.59" y1="2509.23" x2="3097.59" y2="2549.21" style="stroke:#000000;stroke-width:5.76"/>
	<text x="3097.59" y="2625.15" style="font-family:'Helvetica';font-size:79.94px;fill:#000000" text-anchor="middle">3.9</text>
	<line x1="3288.04" y1="2509.23" x2="3288.04" y2="2549.21" style="stroke:#000000;stroke-width:5.76"/>
	<text x="3288.04" y="2625.15" style="font-family:'Helvetica';font-size:79.94px;fill:#000000" text-anchor="middle">4.2</text>
	<line x1="3478.36" y1="2509.23" x2="3478.36" y2="2549.21" style="stroke:#000000;stroke-width:5.76"/>
	<text x="3478.36" y="2625.15" style="font-family:'Helvetica';font-size:79.94px;fill:#000000" text-anchor="middle">4.5</text>
	<line x1="3668.82" y1="2509.23" x2="3668.82" y2="2549.21" style="stroke:#000000;stroke-width:5.76"/>
	<text x="3668.82" y="2625.15" style="font-family:'Helvetica';font-size:79.94px;fill:#000000" text-anchor="middle">4.8</text>
	<line x1="3859.14" y1="2509.23" x2="3859.14" y2="2549.21" style="stroke:#000000;stroke-width:5.76"/>
	<text x="3859.14" y="2625.15" style="font-family:'Helvetica';font-size:79.94px;fill:#000000" text-anchor="middle">5.1</text>
	<text x="2209.06" y="2729.16" style="font-family:'Helvetica';font-size:99.99px;fill:#000000" text-anchor="middle">Time (years)</text>
	<rect x="593.63" y="454.42" width="993.34" height="326.46" style="fill:#FFFFFF"/>
	<rect x="596.51" y="457.30" width="987.58" height="320.70" style="fill:none;stroke:#000000;stroke-width:5.76"/>
	<rect x="636.82" y="497.74" width="374.47" height="99.99" style="fill:#999999;fill-opacity:0.65"/>
	<rect x="641.14" y="502.06" width="365.83" height="91.35" style="fill:none;stroke:#808080;stroke-opacity:0.65;stroke-width:8.64"/>
	<line x1="636.82" y1="687.70" x2="1011.28" y2="687.70" style="stroke:#000000;stroke-width:8.64"/>
	<text x="1071.30" y="582.76" style="font-family:'Helvetica';font-size:99.99px;fill:#000000">CI95%</text>
	<text x="1071.30" y="722.73" style="font-family:'Helvetica';font-size:99.99px;fill:#000000">Difference</text>
	<text x="2209.06" y="369.63" style="font-family:'Helvetica';font-size:110.01px;fill:#000000" text-anchor="middle">from 3rd Readmission to 4th Readmission</text>
	<text x="2209.06" y="215.98" style="font-family:'Helvetica';font-size:139.96px;fill:#1E2D53" text-anchor="middle">Difference in Probabilities at 3 years</text>
</svg>
