<?xml version="1.0" encoding="UTF-8" standalone="no"?>
<!-- This is a Stata 16.1 generated SVG file (http://www.stata.com) -->

<svg version="1.1" width="5.50in" height="4.00in" viewBox="0 0 3960 2880" xmlns="http://www.w3.org/2000/svg" xmlns:xlink="http://www.w3.org/1999/xlink">
	<desc>Stata Graph - ratio_models12rp</desc>
	<rect x="0" y="0" width="3960" height="2880" style="fill:#EAF2F3;stroke:none"/>
	<rect x="0.00" y="0.00" width="3959.88" height="2880.00" style="fill:#FFFFFF"/>
	<rect x="2.88" y="2.88" width="3954.12" height="2874.24" style="fill:none;stroke:#FFFFFF;stroke-width:5.76"/>
	<rect x="524.08" y="419.90" width="3334.94" height="2089.34" style="fill:#FFFFFF"/>
	<rect x="526.96" y="422.78" width="3329.18" height="2083.58" style="fill:none;stroke:#FFFFFF;stroke-width:5.76"/>
	<line x1="524.08" y1="1955.19" x2="3859.02" y2="1955.19" style="stroke:#EAF2F3;stroke-width:8.64"/>
	<line x1="524.08" y1="1464.63" x2="3859.02" y2="1464.63" style="stroke:#EAF2F3;stroke-width:8.64"/>
	<line x1="524.08" y1="973.94" x2="3859.02" y2="973.94" style="stroke:#EAF2F3;stroke-width:8.64"/>
	<line x1="524.08" y1="1464.63" x2="3859.02" y2="1464.63" style="stroke:#1A476F;stroke-width:8.64"/>
	<path d=" M745.47 1217.49 L762.55 1217.49 L762.55 1203.38 L779.63 1203.38 L779.63 1243.85 L796.58 1243.85 L796.58 1259.94 L813.66 1259.94 L813.66 1265.38 L830.73 1265.38 L830.73 1259.94 L847.69 1259.94 L847.69 1245.71 L864.76 1245.71 L864.76 1226.65 L881.84 1226.65 L881.84 1226.40 L898.80 1226.40 L898.80 1257.22 L915.87 1257.22 L915.87 1274.91 L932.95 1274.91 L932.95 1276.77 L949.90 1276.77 L949.90 1263.90 L966.98 1263.90 L966.98 1262.66 L984.06 1262.66 L984.06 1247.93 L1001.01 1247.93 L1001.01 1242.98 L1018.09 1242.98 L1018.09 1262.17 L1035.17 1262.17 L1035.17 1264.27 L1052.25 1264.27 L1052.25 1261.92 L1069.20 1261.92 L1069.20 1259.94 L1086.28 1259.94 L1086.28 1259.69 L1103.36 1259.69 L1103.36 1272.68 L1120.31 1272.68 L1120.31 1268.85 L1137.39 1268.85 L1137.39 1264.76 L1154.46 1264.76 L1154.46 1267.49 L1171.42 1267.49 L1171.42 1271.82 L1188.49 1271.82 L1188.49 1273.67 L1205.57 1273.67 L1205.57 1270.95 L1222.53 1270.95 L1222.53 1264.39 L1239.60 1264.39 L1239.60 1267.36 L1256.68 1267.36 L1256.68 1267.61 L1273.63 1267.61 L1273.63 1275.53 L1290.71 1275.53 L1290.71 1278.13 L1307.79 1278.13 L1307.79 1281.60 L1324.74 1281.60 L1324.74 1282.09 L1341.82 1282.09 L1341.82 1286.17 L1358.90 1286.17 L1358.90 1288.90 L1375.85 1288.90 L1375.85 1291.87 L1392.93 1291.87 L1392.93 1296.45 L1410.01 1296.45 L1410.01 1295.46 L1426.96 1295.46 L1426.96 1293.85 L1444.04 1293.85 L1444.04 1296.07 L1461.12 1296.07 L1461.12 1299.66 L1478.07 1299.66 L1478.07 1304.61 L1495.15 1304.61 L1495.15 1307.46 L1512.22 1307.46 L1512.22 1310.80 L1529.18 1310.80 L1529.18 1313.52 L1546.26 1313.52 L1546.26 1316.25 L1563.33 1316.25 L1563.33 1317.24 L1580.29 1317.24 L1580.29 1316.62 L1597.37 1316.62 L1597.37 1317.48 L1614.44 1317.48 L1614.44 1319.34 L1631.52 1319.34 L1631.52 1319.09 L1648.47 1319.09 L1648.47 1321.07 L1665.55 1321.07 L1665.55 1324.41 L1682.63 1324.41 L1682.63 1326.77 L1699.58 1326.77 L1699.58 1328.62 L1716.66 1328.62 L1716.66 1328.62 L1733.74 1328.62 L1733.74 1330.73 L1750.69 1330.73 L1750.69 1332.58 L1767.77 1332.58 L1767.77 1334.81 L1784.85 1334.81 L1784.85 1335.68 L1801.80 1335.68 L1801.80 1336.67 L1818.88 1336.67 L1818.88 1338.52 L1835.95 1338.52 L1835.95 1340.50 L1852.91 1340.50 L1852.91 1341.49 L1869.99 1341.49 L1869.99 1341.12 L1887.06 1341.12 L1887.06 1341.49 L1904.02 1341.49 L1904.02 1341.12 L1921.10 1341.12 L1921.10 1340.50 L1938.17 1340.50 L1938.17 1341.86 L1955.13 1341.86 L1955.13 1343.22 L1972.20 1343.22 L1972.20 1345.20 L1989.28 1345.20 L1989.28 1346.07 L2006.23 1346.07 L2006.23 1348.30 L2023.31 1348.30 L2023.31 1349.54 L2040.39 1349.54 L2040.39 1350.40 L2057.34 1350.40 L2057.34 1350.90 L2074.42 1350.90 L2074.42 1351.02 L2091.50 1351.02 L2091.50 1353.12 L2108.45 1353.12 L2108.45 1354.98 L2125.53 1354.98 L2125.53 1354.98 L2142.61 1354.98 L2142.61 1355.48 L2159.56 1355.48 L2159.56 1356.22 L2176.64 1356.22 L2176.64 1356.96 L2193.72 1356.96 L2193.72 1358.20 L2210.79 1358.20 L2210.79 1359.44 L2227.75 1359.44 L2227.75 1360.80 L2244.82 1360.80 L2244.82 1361.91 L2261.90 1361.91 L2261.90 1363.03 L2278.86 1363.03 L2278.86 1362.78 L2295.93 1362.78 L2295.93 1362.53 L2313.01 1362.53 L2313.01 1363.64 L2329.97 1363.64 L2329.97 1364.76 L2347.04 1364.76 L2347.04 1365.38 L2364.12 1365.38 L2364.12 1365.50 L2381.07 1365.50 L2381.07 1365.25 L2398.15 1365.25 L2398.15 1365.75 L2415.23 1365.75 L2415.23 1365.75 L2432.18 1365.75 L2432.18 1366.00 L2449.26 1366.00 L2449.26 1366.12 L2466.34 1366.12 L2466.34 1366.99 L2483.29 1366.99 L2483.29 1366.86 L2500.37 1366.86 L2500.37 1367.60 L2517.45 1367.60 L2517.45 1368.10 L2534.40 1368.10 L2534.40 1368.35 L2551.48 1368.35 L2551.48 1368.59 L2568.55 1368.59 L2568.55 1369.58 L2585.51 1369.58 L2585.51 1369.96 L2602.59 1369.96 L2602.59 1369.58 L2619.66 1369.58 L2619.66 1369.46 L2636.62 1369.46 L2636.62 1370.45 L2653.70 1370.45 L2653.70 1371.07 L2670.77 1371.07 L2670.77 1370.82 L2687.73 1370.82 L2687.73 1371.44 L2704.80 1371.44 L2704.80 1371.56 L2721.88 1371.56 L2721.88 1371.69 L2738.84 1371.69 L2738.84 1373.30 L2755.91 1373.30 L2755.91 1373.05 L2772.99 1373.05 L2772.99 1373.79 L2790.07 1373.79 L2790.07 1374.53 L2807.02 1374.53 L2807.02 1375.03 L2824.10 1375.03 L2824.10 1375.40 L2841.18 1375.40 L2841.18 1375.65 L2858.13 1375.65 L2858.13 1376.14 L2875.21 1376.14 L2875.21 1376.39 L2892.28 1376.39 L2892.28 1376.89 L2909.24 1376.89 L2909.24 1377.26 L2926.32 1377.26 L2926.32 1377.63 L2943.39 1377.63 L2943.39 1378.00 L2960.35 1378.00 L2960.35 1378.62 L2977.43 1378.62 L2977.43 1377.63 L2994.50 1377.63 L2994.50 1378.12 L3011.46 1378.12 L3011.46 1378.74 L3028.53 1378.74 L3028.53 1378.49 L3045.61 1378.49 L3045.61 1378.87 L3062.57 1378.87 L3062.57 1379.24 L3079.64 1379.24 L3079.64 1379.61 L3096.72 1379.61 L3096.72 1380.10 L3113.67 1380.10 L3113.67 1380.72 L3130.75 1380.72 L3130.75 1379.73 L3147.83 1379.73 L3147.83 1380.10 L3164.78 1380.10 L3164.78 1380.97 L3181.86 1380.97 L3181.86 1379.98 L3198.94 1379.98 L3198.94 1381.34 L3215.89 1381.34 L3215.89 1381.84 L3232.97 1381.84 L3232.97 1382.95 L3250.05 1382.95 L3250.05 1383.20 L3267.00 1383.20 L3267.00 1383.82 L3284.08 1383.82 L3284.08 1383.94 L3301.16 1383.94 L3301.16 1383.94 L3318.23 1383.94 L3318.23 1384.43 L3335.19 1384.43 L3335.19 1383.69 L3352.26 1383.69 L3352.26 1384.43 L3369.34 1384.43 L3369.34 1385.18 L3386.30 1385.18 L3386.30 1385.30 L3403.37 1385.30 L3403.37 1385.92 L3420.45 1385.92 L3420.45 1385.18 L3437.40 1385.18 L3437.40 1385.55 L3454.48 1385.55 L3454.48 1385.80 L3471.56 1385.80 L3471.56 1385.92 L3488.51 1385.92 L3488.51 1386.29 L3505.59 1386.29 L3505.59 1386.79 L3522.67 1386.79 L3522.67 1386.79 L3539.62 1386.79 L3539.62 1387.03 L3556.70 1387.03 L3556.70 1387.16 L3573.78 1387.16 L3573.78 1386.54 L3590.73 1386.54 L3590.73 1386.79 L3607.81 1386.79 L3607.81 1387.03 L3624.89 1387.03 L3624.89 1387.53 L3641.84 1387.53 L3641.84 1387.40 L3658.92 1387.40 L3658.92 1387.65 L3675.99 1387.65 L3675.99 1388.27 L3692.95 1388.27 L3692.95 1388.89 L3710.03 1388.89 L3710.03 1389.38 L3727.10 1389.38 L3727.10 1389.14 L3744.06 1389.14 L3744.06 1389.63 L3761.13 1389.63 L3761.13 1390.00 L3778.21 1390.00 L3778.21 1390.75 L3795.16 1390.75 L3795.16 1390.75" stroke-linejoin="round" style="fill:none;stroke:#000000;stroke-width:8.64"/>
	<line x1="524.08" y1="2509.23" x2="524.08" y2="419.90" style="stroke:#000000;stroke-width:5.76"/>
	<line x1="524.08" y1="2445.87" x2="484.11" y2="2445.87" style="stroke:#000000;stroke-width:5.76"/>
	<text x="464.06" y="2480.90" style="font-family:'Helvetica';font-size:99.99px;fill:#000000" text-anchor="end">0.00</text>
	<line x1="524.08" y1="1955.19" x2="484.11" y2="1955.19" style="stroke:#000000;stroke-width:5.76"/>
	<text x="464.06" y="1990.22" style="font-family:'Helvetica';font-size:99.99px;fill:#000000" text-anchor="end">0.50</text>
	<line x1="524.08" y1="1464.63" x2="484.11" y2="1464.63" style="stroke:#000000;stroke-width:5.76"/>
	<text x="464.06" y="1499.66" style="font-family:'Helvetica';font-size:99.99px;fill:#000000" text-anchor="end">1.00</text>
	<line x1="524.08" y1="973.94" x2="484.11" y2="973.94" style="stroke:#000000;stroke-width:5.76"/>
	<text x="464.06" y="1008.97" style="font-family:'Helvetica';font-size:99.99px;fill:#000000" text-anchor="end">1.50</text>
	<line x1="524.08" y1="483.26" x2="484.11" y2="483.26" style="stroke:#000000;stroke-width:5.76"/>
	<text x="464.06" y="518.29" style="font-family:'Helvetica';font-size:99.99px;fill:#000000" text-anchor="end">2.00</text>
	<text x="190.71" y="1464.63" style="font-family:'Helvetica';font-size:99.99px;fill:#000000" transform="rotate(-90 190.71,1464.63)" text-anchor="middle">Ratio in Probabilities</text>
	<line x1="524.08" y1="2509.23" x2="3859.02" y2="2509.23" style="stroke:#000000;stroke-width:5.76"/>
	<line x1="587.44" y1="2509.23" x2="587.44" y2="2549.21" style="stroke:#000000;stroke-width:5.76"/>
	<text x="587.44" y="2625.15" style="font-family:'Helvetica';font-size:79.94px;fill:#000000" text-anchor="middle">0</text>
	<line x1="780.00" y1="2509.23" x2="780.00" y2="2549.21" style="stroke:#000000;stroke-width:5.76"/>
	<text x="780.00" y="2625.15" style="font-family:'Helvetica';font-size:79.94px;fill:#000000" text-anchor="middle">.3</text>
	<line x1="972.43" y1="2509.23" x2="972.43" y2="2549.21" style="stroke:#000000;stroke-width:5.76"/>
	<text x="972.43" y="2625.15" style="font-family:'Helvetica';font-size:79.94px;fill:#000000" text-anchor="middle">.6</text>
	<line x1="1164.98" y1="2509.23" x2="1164.98" y2="2549.21" style="stroke:#000000;stroke-width:5.76"/>
	<text x="1164.98" y="2625.15" style="font-family:'Helvetica';font-size:79.94px;fill:#000000" text-anchor="middle">.9</text>
	<line x1="1357.41" y1="2509.23" x2="1357.41" y2="2549.21" style="stroke:#000000;stroke-width:5.76"/>
	<text x="1357.41" y="2625.15" style="font-family:'Helvetica';font-size:79.94px;fill:#000000" text-anchor="middle">1.2</text>
	<line x1="1549.97" y1="2509.23" x2="1549.97" y2="2549.21" style="stroke:#000000;stroke-width:5.76"/>
	<text x="1549.97" y="2625.15" style="font-family:'Helvetica';font-size:79.94px;fill:#000000" text-anchor="middle">1.5</text>
	<line x1="1742.40" y1="2509.23" x2="1742.40" y2="2549.21" style="stroke:#000000;stroke-width:5.76"/>
	<text x="1742.40" y="2625.15" style="font-family:'Helvetica';font-size:79.94px;fill:#000000" text-anchor="middle">1.8</text>
	<line x1="1934.95" y1="2509.23" x2="1934.95" y2="2549.21" style="stroke:#000000;stroke-width:5.76"/>
	<text x="1934.95" y="2625.15" style="font-family:'Helvetica';font-size:79.94px;fill:#000000" text-anchor="middle">2.1</text>
	<line x1="2127.39" y1="2509.23" x2="2127.39" y2="2549.21" style="stroke:#000000;stroke-width:5.76"/>
	<text x="2127.39" y="2625.15" style="font-family:'Helvetica';font-size:79.94px;fill:#000000" text-anchor="middle">2.4</text>
	<line x1="2319.94" y1="2509.23" x2="2319.94" y2="2549.21" style="stroke:#000000;stroke-width:5.76"/>
	<text x="2319.94" y="2625.15" style="font-family:'Helvetica';font-size:79.94px;fill:#000000" text-anchor="middle">2.7</text>
	<line x1="2512.37" y1="2509.23" x2="2512.37" y2="2549.21" style="stroke:#000000;stroke-width:5.76"/>
	<text x="2512.37" y="2625.15" style="font-family:'Helvetica';font-size:79.94px;fill:#000000" text-anchor="middle">3</text>
	<line x1="2704.93" y1="2509.23" x2="2704.93" y2="2549.21" style="stroke:#000000;stroke-width:5.76"/>
	<text x="2704.93" y="2625.15" style="font-family:'Helvetica';font-size:79.94px;fill:#000000" text-anchor="middle">3.3</text>
	<line x1="2897.36" y1="2509.23" x2="2897.36" y2="2549.21" style="stroke:#000000;stroke-width:5.76"/>
	<text x="2897.36" y="2625.15" style="font-family:'Helvetica';font-size:79.94px;fill:#000000" text-anchor="middle">3.6</text>
	<line x1="3089.91" y1="2509.23" x2="3089.91" y2="2549.21" style="stroke:#000000;stroke-width:5.76"/>
	<text x="3089.91" y="2625.15" style="font-family:'Helvetica';font-size:79.94px;fill:#000000" text-anchor="middle">3.9</text>
	<line x1="3282.34" y1="2509.23" x2="3282.34" y2="2549.21" style="stroke:#000000;stroke-width:5.76"/>
	<text x="3282.34" y="2625.15" style="font-family:'Helvetica';font-size:79.94px;fill:#000000" text-anchor="middle">4.2</text>
	<line x1="3474.90" y1="2509.23" x2="3474.90" y2="2549.21" style="stroke:#000000;stroke-width:5.76"/>
	<text x="3474.90" y="2625.15" style="font-family:'Helvetica';font-size:79.94px;fill:#000000" text-anchor="middle">4.5</text>
	<line x1="3667.33" y1="2509.23" x2="3667.33" y2="2549.21" style="stroke:#000000;stroke-width:5.76"/>
	<text x="3667.33" y="2625.15" style="font-family:'Helvetica';font-size:79.94px;fill:#000000" text-anchor="middle">4.8</text>
	<line x1="3859.89" y1="2509.23" x2="3859.89" y2="2549.21" style="stroke:#000000;stroke-width:5.76"/>
	<text x="3859.89" y="2625.15" style="font-family:'Helvetica';font-size:79.94px;fill:#000000" text-anchor="middle">5.1</text>
	<text x="2191.61" y="2729.16" style="font-family:'Helvetica';font-size:99.99px;fill:#000000" text-anchor="middle">Time (years)</text>
	<text x="2191.61" y="369.63" style="font-family:'Helvetica';font-size:110.01px;fill:#000000" text-anchor="middle">from Admission to Treatment Completion (0bs) (RP)</text>
	<text x="2191.61" y="215.98" style="font-family:'Helvetica';font-size:139.96px;fill:#1E2D53" text-anchor="middle">Ratio in Probabilities</text>
</svg>
