<?xml version="1.0" encoding="UTF-8" standalone="no"?>
<!-- This is a Stata 16.1 generated SVG file (http://www.stata.com) -->

<svg version="1.1" width="5.50in" height="4.00in" viewBox="0 0 3960 2880" xmlns="http://www.w3.org/2000/svg" xmlns:xlink="http://www.w3.org/1999/xlink">
	<desc>Stata Graph - ratio_models34_3y_rp_tc</desc>
	<rect x="0" y="0" width="3960" height="2880" style="fill:#EAF2F3;stroke:none"/>
	<rect x="0.00" y="0.00" width="3959.88" height="2880.00" style="fill:#FFFFFF"/>
	<rect x="2.88" y="2.88" width="3954.12" height="2874.24" style="fill:none;stroke:#FFFFFF;stroke-width:5.76"/>
	<rect x="524.08" y="419.90" width="3334.94" height="2089.34" style="fill:#FFFFFF"/>
	<rect x="526.96" y="422.78" width="3329.18" height="2083.58" style="fill:none;stroke:#FFFFFF;stroke-width:5.76"/>
	<line x1="524.08" y1="1955.19" x2="3859.02" y2="1955.19" style="stroke:#EAF2F3;stroke-width:8.64"/>
	<line x1="524.08" y1="1464.63" x2="3859.02" y2="1464.63" style="stroke:#EAF2F3;stroke-width:8.64"/>
	<line x1="524.08" y1="973.94" x2="3859.02" y2="973.94" style="stroke:#EAF2F3;stroke-width:8.64"/>
	<line x1="524.08" y1="1464.63" x2="3859.02" y2="1464.63" style="stroke:#1A476F;stroke-width:8.64"/>
	<defs>
		<path id="path_YiOIzwKr" d="M745.47 1623.28 L745.47 1623.28 L762.55 1623.28 L762.55 1612.27 L779.63 1612.27 L779.63 1624.27 L796.58 1624.27 L796.58 1611.40 L813.66 1611.40 L813.66 1596.92 L830.73 1596.92 L830.73 1590.36 L847.81 1590.36 L847.81 1591.35 L864.76 1591.35 L864.76 1592.96 L881.84 1592.96 L881.84 1588.88 L898.92 1588.88 L898.92 1591.10 L915.87 1591.10 L915.87 1583.68 L932.95 1583.68 L932.95 1582.81 L950.03 1582.81 L950.03 1571.67 L966.98 1571.67 L966.98 1569.20 L984.06 1569.20 L984.06 1572.91 L1001.14 1572.91 L1001.14 1570.81 L1018.22 1570.81 L1018.22 1575.26 L1035.17 1575.26 L1035.17 1571.18 L1052.25 1571.18 L1052.25 1577.24 L1069.32 1577.24 L1069.32 1576.62 L1086.28 1576.62 L1086.28 1576.13 L1103.36 1576.13 L1103.36 1575.76 L1120.43 1575.76 L1120.43 1574.27 L1137.39 1574.27 L1137.39 1576.38 L1154.46 1576.38 L1154.46 1578.85 L1171.54 1578.85 L1171.54 1578.36 L1188.49 1578.36 L1188.49 1579.22 L1205.57 1579.22 L1205.57 1579.97 L1222.65 1579.97 L1222.65 1577.99 L1239.73 1577.99 L1239.73 1578.85 L1256.68 1578.85 L1256.68 1579.84 L1273.76 1579.84 L1273.76 1579.47 L1290.84 1579.47 L1290.84 1579.84 L1307.79 1579.84 L1307.79 1576.25 L1324.87 1576.25 L1324.87 1574.77 L1341.94 1574.77 L1341.94 1576.01 L1358.90 1576.01 L1358.90 1577.99 L1375.98 1577.99 L1375.98 1581.33 L1393.05 1581.33 L1393.05 1581.33 L1410.13 1581.33 L1410.13 1582.94 L1427.09 1582.94 L1427.09 1584.42 L1444.16 1584.42 L1444.16 1583.31 L1461.24 1583.31 L1461.24 1583.31 L1478.19 1583.31 L1478.19 1583.55 L1495.27 1583.55 L1495.27 1583.31 L1512.35 1583.31 L1512.35 1582.44 L1529.30 1582.44 L1529.30 1584.05 L1546.38 1584.05 L1546.38 1584.42 L1563.46 1584.42 L1563.46 1585.78 L1580.54 1585.78 L1580.54 1584.92 L1597.49 1584.92 L1597.49 1585.53 L1614.57 1585.53 L1614.57 1586.40 L1631.64 1586.40 L1631.64 1586.40 L1648.60 1586.40 L1648.60 1586.77 L1665.67 1586.77 L1665.67 1585.78 L1682.75 1585.78 L1682.75 1585.41 L1699.71 1585.41 L1699.71 1585.78 L1716.78 1585.78 L1716.78 1585.29 L1733.86 1585.29 L1733.86 1583.31 L1750.94 1583.31 L1750.94 1582.81 L1767.89 1582.81 L1767.89 1582.07 L1784.97 1582.07 L1784.97 1582.56 L1802.05 1582.56 L1802.05 1582.32 L1819.00 1582.32 L1819.00 1581.82 L1836.08 1581.82 L1836.08 1583.06 L1853.16 1583.06 L1853.16 1583.06 L1870.11 1583.06 L1870.11 1585.16 L1887.19 1585.16 L1887.19 1583.55 L1904.27 1583.55 L1904.27 1584.17 L1921.34 1584.17 L1921.34 1584.92 L1938.30 1584.92 L1938.30 1585.78 L1955.37 1585.78 L1955.37 1588.13 L1972.45 1588.13 L1972.45 1590.11 L1989.40 1590.11 L1989.40 1590.86 L2006.48 1590.86 L2006.48 1592.34 L2023.56 1592.34 L2023.56 1593.33 L2040.51 1593.33 L2040.51 1594.20 L2057.59 1594.20 L2057.59 1596.55 L2074.67 1596.55 L2074.67 1596.92 L2091.75 1596.92 L2091.75 1595.19 L2108.70 1595.19 L2108.70 1596.30 L2125.78 1596.30 L2125.78 1595.68 L2142.86 1595.68 L2142.86 1594.82 L2159.81 1594.82 L2159.81 1595.81 L2176.89 1595.81 L2176.89 1596.30 L2193.96 1596.30 L2193.96 1594.82 L2210.92 1594.82 L2210.92 1593.95 L2227.99 1593.95 L2227.99 1593.70 L2245.07 1593.70 L2245.07 1593.45 L2262.15 1593.45 L2262.15 1592.46 L2279.10 1592.46 L2279.10 1592.22 L2296.18 1592.22 L2296.18 1592.09 L2313.26 1592.09 L2313.26 1593.45 L2330.21 1593.45 L2330.21 1592.84 L2347.29 1592.84 L2347.29 1593.70 L2364.37 1593.70 L2364.37 1594.07 L2381.32 1594.07 L2381.32 1594.94 L2398.40 1594.94 L2398.40 1596.42 L2415.48 1596.42 L2415.48 1595.06 L2432.55 1595.06 L2432.55 1595.31 L2449.51 1595.31 L2449.51 1595.93 L2466.59 1595.93 L2466.59 1595.56 L2483.66 1595.56 L2483.66 1595.19 L2500.62 1595.19 L2500.62 1597.04 L2517.69 1597.04 L2517.69 1596.67 L2534.77 1596.67 L2534.77 1596.55 L2551.72 1596.55 L2551.72 1596.67 L2568.80 1596.67 L2568.80 1596.30 L2585.88 1596.30 L2585.88 1596.42 L2602.96 1596.42 L2602.96 1596.80 L2619.91 1596.80 L2619.91 1596.42 L2636.99 1596.42 L2636.99 1595.93 L2654.07 1595.93 L2654.07 1594.69 L2671.02 1594.69 L2671.02 1594.07 L2688.10 1594.07 L2688.10 1594.44 L2705.18 1594.44 L2705.18 1593.33 L2722.13 1593.33 L2722.13 1593.33 L2739.21 1593.33 L2739.21 1594.94 L2756.28 1594.94 L2756.28 1595.19 L2773.36 1595.19 L2773.36 1595.93 L2790.32 1595.93 L2790.32 1594.32 L2807.39 1594.32 L2807.39 1595.56 L2824.47 1595.56 L2824.47 1594.82 L2841.42 1594.82 L2841.42 1595.93 L2858.50 1595.93 L2858.50 1596.18 L2875.58 1596.18 L2875.58 1596.67 L2892.53 1596.67 L2892.53 1596.67 L2909.61 1596.67 L2909.61 1596.80 L2926.69 1596.80 L2926.69 1597.17 L2943.76 1597.17 L2943.76 1597.17 L2960.72 1597.17 L2960.72 1597.17 L2977.80 1597.17 L2977.80 1597.79 L2994.87 1597.79 L2994.87 1598.53 L3011.83 1598.53 L3011.83 1599.77 L3028.91 1599.77 L3028.91 1600.63 L3045.98 1600.63 L3045.98 1601.25 L3062.94 1601.25 L3062.94 1602.74 L3080.01 1602.74 L3080.01 1603.73 L3097.09 1603.73 L3097.09 1603.36 L3114.17 1603.36 L3114.17 1603.48 L3131.12 1603.48 L3131.12 1602.61 L3148.20 1602.61 L3148.20 1603.48 L3165.28 1603.48 L3165.28 1602.86 L3182.23 1602.86 L3182.23 1603.23 L3199.31 1603.23 L3199.31 1604.47 L3216.39 1604.47 L3216.39 1603.60 L3233.34 1603.60 L3233.34 1602.98 L3250.42 1602.98 L3250.42 1603.73 L3267.49 1603.73 L3267.49 1604.35 L3284.57 1604.35 L3284.57 1604.59 L3301.53 1604.59 L3301.53 1605.46 L3318.60 1605.46 L3318.60 1605.34 L3335.68 1605.34 L3335.68 1604.96 L3352.64 1604.96 L3352.64 1605.71 L3369.71 1605.71 L3369.71 1605.71 L3386.79 1605.71 L3386.79 1606.45 L3403.74 1606.45 L3403.74 1607.56 L3420.82 1607.56 L3420.82 1607.93 L3437.90 1607.93 L3437.90 1608.55 L3454.98 1608.55 L3454.98 1608.18 L3471.93 1608.18 L3471.93 1609.05 L3489.01 1609.05 L3489.01 1610.04 L3506.09 1610.04 L3506.09 1610.04 L3523.04 1610.04 L3523.04 1609.67 L3540.12 1609.67 L3540.12 1610.29 L3557.19 1610.29 L3557.19 1611.15 L3574.15 1611.15 L3574.15 1611.40 L3591.22 1611.40 L3591.22 1610.66 L3608.30 1610.66 L3608.30 1610.41 L3625.38 1610.41 L3625.38 1609.54 L3642.33 1609.54 L3642.33 1609.67 L3659.41 1609.67 L3659.41 1610.29 L3676.49 1610.29 L3676.49 1609.67 L3693.44 1609.67 L3693.44 1610.66 L3710.52 1610.66 L3710.52 1610.78 L3727.60 1610.78 L3727.60 1610.78 L3744.55 1610.78 L3744.55 1611.03 L3761.63 1611.03 L3761.63 1611.03 L3778.71 1611.03 L3778.71 1611.52 L3795.66 1611.52 L3795.66 1611.77 L3795.66 1283.20 L3795.66 1283.33 L3778.71 1283.33 L3778.71 1283.20 L3761.63 1283.20 L3761.63 1283.95 L3744.55 1283.95 L3744.55 1284.07 L3727.60 1284.07 L3727.60 1284.57 L3710.52 1284.57 L3710.52 1285.06 L3693.44 1285.06 L3693.44 1284.07 L3676.49 1284.07 L3676.49 1285.56 L3659.41 1285.56 L3659.41 1285.31 L3642.33 1285.31 L3642.33 1285.80 L3625.38 1285.80 L3625.38 1287.66 L3608.30 1287.66 L3608.30 1288.65 L3591.22 1288.65 L3591.22 1290.38 L3574.15 1290.38 L3574.15 1290.51 L3557.19 1290.51 L3557.19 1289.89 L3540.12 1289.89 L3540.12 1289.64 L3523.04 1289.64 L3523.04 1290.88 L3506.09 1290.88 L3506.09 1291.62 L3489.01 1291.62 L3489.01 1290.88 L3471.93 1290.88 L3471.93 1290.38 L3454.98 1290.38 L3454.98 1291.74 L3437.90 1291.74 L3437.90 1291.62 L3420.82 1291.62 L3420.82 1291.62 L3403.74 1291.62 L3403.74 1290.75 L3386.79 1290.75 L3386.79 1290.38 L3369.71 1290.38 L3369.71 1290.75 L3352.64 1290.75 L3352.64 1290.51 L3335.68 1290.51 L3335.68 1291.50 L3318.60 1291.50 L3318.60 1292.11 L3301.53 1292.11 L3301.53 1291.50 L3284.57 1291.50 L3284.57 1291.87 L3267.49 1291.87 L3267.49 1291.74 L3250.42 1291.74 L3250.42 1291.25 L3233.34 1291.25 L3233.34 1292.61 L3216.39 1292.61 L3216.39 1294.47 L3199.31 1294.47 L3199.31 1293.48 L3182.23 1293.48 L3182.23 1293.60 L3165.28 1293.60 L3165.28 1295.08 L3148.20 1295.08 L3148.20 1294.34 L3131.12 1294.34 L3131.12 1296.20 L3114.17 1296.20 L3114.17 1296.57 L3097.09 1296.57 L3097.09 1297.81 L3080.01 1297.81 L3080.01 1297.06 L3062.94 1297.06 L3062.94 1295.83 L3045.98 1295.83 L3045.98 1295.46 L3028.91 1295.46 L3028.91 1295.21 L3011.83 1295.21 L3011.83 1294.22 L2994.87 1294.22 L2994.87 1293.72 L2977.80 1293.72 L2977.80 1293.35 L2960.72 1293.35 L2960.72 1293.97 L2943.76 1293.97 L2943.76 1294.71 L2926.69 1294.71 L2926.69 1294.84 L2909.61 1294.84 L2909.61 1295.46 L2892.53 1295.46 L2892.53 1295.83 L2875.58 1295.83 L2875.58 1295.70 L2858.50 1295.70 L2858.50 1295.70 L2841.42 1295.70 L2841.42 1294.84 L2824.47 1294.84 L2824.47 1296.45 L2807.39 1296.45 L2807.39 1295.33 L2790.32 1295.33 L2790.32 1298.18 L2773.36 1298.18 L2773.36 1297.68 L2756.28 1297.68 L2756.28 1298.05 L2739.21 1298.05 L2739.21 1296.20 L2722.13 1296.20 L2722.13 1296.82 L2705.18 1296.82 L2705.18 1298.80 L2688.10 1298.80 L2688.10 1298.67 L2671.02 1298.67 L2671.02 1300.16 L2654.07 1300.16 L2654.07 1302.26 L2636.99 1302.26 L2636.99 1303.38 L2619.91 1303.38 L2619.91 1304.37 L2602.96 1304.37 L2602.96 1304.61 L2585.88 1304.61 L2585.88 1304.74 L2568.80 1304.74 L2568.80 1305.73 L2551.72 1305.73 L2551.72 1305.85 L2534.77 1305.85 L2534.77 1306.72 L2517.69 1306.72 L2517.69 1307.58 L2500.62 1307.58 L2500.62 1305.73 L2483.66 1305.73 L2483.66 1306.72 L2466.59 1306.72 L2466.59 1307.71 L2449.51 1307.71 L2449.51 1307.21 L2432.55 1307.21 L2432.55 1307.21 L2415.48 1307.21 L2415.48 1309.32 L2398.40 1309.32 L2398.40 1307.71 L2381.32 1307.71 L2381.32 1307.09 L2364.37 1307.09 L2364.37 1307.09 L2347.29 1307.09 L2347.29 1306.47 L2330.21 1306.47 L2330.21 1307.58 L2313.26 1307.58 L2313.26 1305.97 L2296.18 1305.97 L2296.18 1306.72 L2279.10 1306.72 L2279.10 1307.34 L2262.15 1307.34 L2262.15 1309.19 L2245.07 1309.19 L2245.07 1310.06 L2227.99 1310.06 L2227.99 1310.80 L2210.92 1310.80 L2210.92 1312.04 L2193.96 1312.04 L2193.96 1314.39 L2176.89 1314.39 L2176.89 1314.02 L2159.81 1314.02 L2159.81 1312.90 L2142.86 1312.90 L2142.86 1314.51 L2125.78 1314.51 L2125.78 1315.63 L2108.70 1315.63 L2108.70 1314.27 L2091.75 1314.27 L2091.75 1316.74 L2074.67 1316.74 L2074.67 1316.25 L2057.59 1316.25 L2057.59 1313.40 L2040.51 1313.40 L2040.51 1312.53 L2023.56 1312.53 L2023.56 1311.17 L2006.48 1311.17 L2006.48 1309.81 L1989.40 1309.81 L1989.40 1308.94 L1972.45 1308.94 L1972.45 1306.47 L1955.37 1306.47 L1955.37 1303.38 L1938.30 1303.38 L1938.30 1302.01 L1921.34 1302.01 L1921.34 1301.02 L1904.27 1301.02 L1904.27 1300.28 L1887.19 1300.28 L1887.19 1302.51 L1870.11 1302.51 L1870.11 1299.66 L1853.16 1299.66 L1853.16 1299.54 L1836.08 1299.54 L1836.08 1297.93 L1819.00 1297.93 L1819.00 1298.30 L1802.05 1298.30 L1802.05 1298.43 L1784.97 1298.43 L1784.97 1297.81 L1767.89 1297.81 L1767.89 1298.55 L1750.94 1298.55 L1750.94 1299.17 L1733.86 1299.17 L1733.86 1301.40 L1716.78 1301.40 L1716.78 1301.77 L1699.71 1301.77 L1699.71 1301.52 L1682.75 1301.52 L1682.75 1301.89 L1665.67 1301.89 L1665.67 1302.88 L1648.60 1302.88 L1648.60 1302.26 L1631.64 1302.26 L1631.64 1301.52 L1614.57 1301.52 L1614.57 1300.16 L1597.49 1300.16 L1597.49 1299.04 L1580.54 1299.04 L1580.54 1299.79 L1563.46 1299.79 L1563.46 1297.31 L1546.38 1297.31 L1546.38 1296.82 L1529.30 1296.82 L1529.30 1294.22 L1512.35 1294.22 L1512.35 1294.84 L1495.27 1294.84 L1495.27 1294.96 L1478.19 1294.96 L1478.19 1293.85 L1461.24 1293.85 L1461.24 1293.35 L1444.16 1293.35 L1444.16 1294.34 L1427.09 1294.34 L1427.09 1292.11 L1410.13 1292.11 L1410.13 1289.14 L1393.05 1289.14 L1393.05 1288.53 L1375.98 1288.53 L1375.98 1283.45 L1358.90 1283.45 L1358.90 1280.61 L1341.94 1280.61 L1341.94 1278.38 L1324.87 1278.38 L1324.87 1279.74 L1307.79 1279.74 L1307.79 1284.57 L1290.84 1284.57 L1290.84 1283.33 L1273.76 1283.33 L1273.76 1283.20 L1256.68 1283.20 L1256.68 1281.60 L1239.73 1281.60 L1239.73 1279.99 L1222.65 1279.99 L1222.65 1281.84 L1205.57 1281.84 L1205.57 1280.85 L1188.49 1280.85 L1188.49 1278.62 L1171.54 1278.62 L1171.54 1278.50 L1154.46 1278.50 L1154.46 1273.92 L1137.39 1273.92 L1137.39 1270.09 L1120.43 1270.09 L1120.43 1271.69 L1103.36 1271.69 L1103.36 1271.45 L1086.28 1271.45 L1086.28 1270.95 L1069.32 1270.95 L1069.32 1270.58 L1052.25 1270.58 L1052.25 1261.18 L1035.17 1261.18 L1035.17 1266.13 L1018.22 1266.13 L1018.22 1259.57 L1001.14 1259.57 L1001.14 1261.30 L984.06 1261.30 L984.06 1254.74 L966.98 1254.74 L966.98 1257.09 L950.03 1257.09 L950.03 1270.09 L932.95 1270.09 L932.95 1270.21 L915.87 1270.21 L915.87 1277.63 L898.92 1277.63 L898.92 1275.53 L881.84 1275.53 L881.84 1279.00 L864.76 1279.00 L864.76 1275.28 L847.81 1275.28 L847.81 1272.68 L830.73 1272.68 L830.73 1279.49 L813.66 1279.49 L813.66 1297.68 L796.58 1297.68 L796.58 1311.91 L779.63 1311.91 L779.63 1289.64 L762.55 1289.64 L762.55 1299.29 L745.47 1299.29 L745.47 1623.28 Z" stroke-linejoin="round"/>
	</defs>
	<defs>
		<clipPath id="clipPath_xzLMgJgM">
			<use xlink:href="#path_YiOIzwKr"/>
		</clipPath>
	</defs>
	<use xlink:href="#path_YiOIzwKr" style="stroke:none;fill:#999999;fill-opacity:0.65"/>
	<use xlink:href="#path_YiOIzwKr" style="fill:none;stroke:#808080;stroke-opacity:0.65;stroke-width:17.28" clip-path="url(#clipPath_xzLMgJgM)"/>
	<path d=" M745.47 1474.77 L762.55 1474.77 L762.55 1464.13 L779.50 1464.13 L779.50 1480.72 L796.58 1480.72 L796.58 1467.10 L813.66 1467.10 L813.66 1450.89 L830.61 1450.89 L830.61 1444.08 L847.69 1444.08 L847.69 1445.82 L864.76 1445.82 L864.76 1448.29 L881.72 1448.29 L881.72 1444.46 L898.80 1444.46 L898.80 1446.68 L915.87 1446.68 L915.87 1439.13 L932.95 1439.13 L932.95 1438.51 L949.90 1438.51 L949.90 1426.51 L966.98 1426.51 L966.98 1424.04 L984.06 1424.04 L984.06 1429.11 L1001.01 1429.11 L1001.01 1427.13 L1018.09 1427.13 L1018.09 1432.45 L1035.17 1432.45 L1035.17 1428.00 L1052.12 1428.00 L1052.12 1435.54 L1069.20 1435.54 L1069.20 1435.30 L1086.28 1435.30 L1086.28 1435.17 L1103.36 1435.17 L1103.36 1435.17 L1120.31 1435.17 L1120.31 1433.56 L1137.39 1433.56 L1137.39 1436.53 L1154.46 1436.53 L1154.46 1439.88 L1171.42 1439.88 L1171.42 1439.63 L1188.49 1439.63 L1188.49 1441.11 L1205.57 1441.11 L1205.57 1441.98 L1222.53 1441.98 L1222.53 1440.00 L1239.60 1440.00 L1239.60 1441.24 L1256.68 1441.24 L1256.68 1442.48 L1273.63 1442.48 L1273.63 1442.35 L1290.71 1442.35 L1290.71 1443.09 L1307.79 1443.09 L1307.79 1438.89 L1324.87 1438.89 L1324.87 1437.52 L1341.82 1437.52 L1341.82 1439.13 L1358.90 1439.13 L1358.90 1441.49 L1375.98 1441.49 L1375.98 1445.57 L1392.93 1445.57 L1392.93 1445.94 L1410.01 1445.94 L1410.01 1448.17 L1427.09 1448.17 L1427.09 1449.90 L1444.04 1449.90 L1444.04 1448.91 L1461.12 1448.91 L1461.12 1449.16 L1478.19 1449.16 L1478.19 1449.78 L1495.27 1449.78 L1495.27 1449.53 L1512.22 1449.53 L1512.22 1448.79 L1529.30 1448.79 L1529.30 1450.77 L1546.38 1450.77 L1546.38 1451.26 L1563.33 1451.26 L1563.33 1453.12 L1580.41 1453.12 L1580.41 1452.25 L1597.49 1452.25 L1597.49 1453.12 L1614.44 1453.12 L1614.44 1454.11 L1631.52 1454.11 L1631.52 1454.48 L1648.60 1454.48 L1648.60 1454.97 L1665.67 1454.97 L1665.67 1453.98 L1682.63 1453.98 L1682.63 1453.74 L1699.71 1453.74 L1699.71 1453.98 L1716.78 1453.98 L1716.78 1453.49 L1733.74 1453.49 L1733.74 1451.39 L1750.82 1451.39 L1750.82 1450.77 L1767.89 1450.77 L1767.89 1450.15 L1784.85 1450.15 L1784.85 1450.64 L1801.92 1450.64 L1801.92 1450.52 L1819.00 1450.52 L1819.00 1450.02 L1836.08 1450.02 L1836.08 1451.39 L1853.03 1451.39 L1853.03 1451.51 L1870.11 1451.51 L1870.11 1453.86 L1887.19 1453.86 L1887.19 1452.00 L1904.14 1452.00 L1904.14 1452.62 L1921.22 1452.62 L1921.22 1453.61 L1938.30 1453.61 L1938.30 1454.73 L1955.25 1454.73 L1955.25 1457.33 L1972.33 1457.33 L1972.33 1459.55 L1989.40 1459.55 L1989.40 1460.30 L2006.48 1460.30 L2006.48 1461.78 L2023.44 1461.78 L2023.44 1462.89 L2040.51 1462.89 L2040.51 1463.76 L2057.59 1463.76 L2057.59 1466.36 L2074.55 1466.36 L2074.55 1466.85 L2091.62 1466.85 L2091.62 1464.75 L2108.70 1464.75 L2108.70 1465.99 L2125.65 1465.99 L2125.65 1465.12 L2142.73 1465.12 L2142.73 1464.01 L2159.81 1464.01 L2159.81 1465.00 L2176.89 1465.00 L2176.89 1465.49 L2193.84 1465.49 L2193.84 1463.64 L2210.92 1463.64 L2210.92 1462.65 L2227.99 1462.65 L2227.99 1462.15 L2244.95 1462.15 L2244.95 1461.53 L2262.03 1461.53 L2262.03 1460.17 L2279.10 1460.17 L2279.10 1459.80 L2296.06 1459.80 L2296.06 1459.43 L2313.14 1459.43 L2313.14 1460.91 L2330.21 1460.91 L2330.21 1460.05 L2347.29 1460.05 L2347.29 1460.79 L2364.24 1460.79 L2364.24 1461.04 L2381.32 1461.04 L2381.32 1461.78 L2398.40 1461.78 L2398.40 1463.39 L2415.35 1463.39 L2415.35 1461.66 L2432.43 1461.66 L2432.43 1461.78 L2449.51 1461.78 L2449.51 1462.40 L2466.46 1462.40 L2466.46 1461.78 L2483.54 1461.78 L2483.54 1461.04 L2500.62 1461.04 L2500.62 1463.02 L2517.69 1463.02 L2517.69 1462.40 L2534.65 1462.40 L2534.65 1461.90 L2551.72 1461.90 L2551.72 1462.03 L2568.80 1462.03 L2568.80 1461.29 L2585.76 1461.29 L2585.76 1461.29 L2602.83 1461.29 L2602.83 1461.41 L2619.91 1461.41 L2619.91 1460.79 L2636.86 1460.79 L2636.86 1460.05 L2653.94 1460.05 L2653.94 1458.44 L2671.02 1458.44 L2671.02 1457.45 L2688.10 1457.45 L2688.10 1457.70 L2705.05 1457.70 L2705.05 1456.21 L2722.13 1456.21 L2722.13 1455.96 L2739.21 1455.96 L2739.21 1457.70 L2756.16 1457.70 L2756.16 1457.57 L2773.24 1457.57 L2773.24 1458.32 L2790.32 1458.32 L2790.32 1456.09 L2807.27 1456.09 L2807.27 1457.20 L2824.35 1457.20 L2824.35 1456.21 L2841.42 1456.21 L2841.42 1457.20 L2858.50 1457.20 L2858.50 1457.33 L2875.45 1457.33 L2875.45 1457.70 L2892.53 1457.70 L2892.53 1457.57 L2909.61 1457.57 L2909.61 1457.33 L2926.56 1457.33 L2926.56 1457.57 L2943.64 1457.57 L2943.64 1457.20 L2960.72 1457.20 L2960.72 1456.95 L2977.67 1456.95 L2977.67 1457.45 L2994.75 1457.45 L2994.75 1458.07 L3011.83 1458.07 L3011.83 1459.31 L3028.91 1459.31 L3028.91 1459.80 L3045.86 1459.80 L3045.86 1460.42 L3062.94 1460.42 L3062.94 1461.78 L3080.01 1461.78 L3080.01 1462.65 L3096.97 1462.65 L3096.97 1461.90 L3114.05 1461.90 L3114.05 1461.78 L3131.12 1461.78 L3131.12 1460.54 L3148.08 1460.54 L3148.08 1461.29 L3165.15 1461.29 L3165.15 1460.30 L3182.23 1460.30 L3182.23 1460.54 L3199.31 1460.54 L3199.31 1461.66 L3216.26 1461.66 L3216.26 1460.42 L3233.34 1460.42 L3233.34 1459.43 L3250.42 1459.43 L3250.42 1460.05 L3267.37 1460.05 L3267.37 1460.42 L3284.45 1460.42 L3284.45 1460.42 L3301.53 1460.42 L3301.53 1461.29 L3318.48 1461.29 L3318.48 1460.91 L3335.56 1460.91 L3335.56 1460.30 L3352.64 1460.30 L3352.64 1460.79 L3369.71 1460.79 L3369.71 1460.67 L3386.67 1460.67 L3386.67 1461.16 L3403.74 1461.16 L3403.74 1462.28 L3420.82 1462.28 L3420.82 1462.40 L3437.78 1462.40 L3437.78 1462.89 L3454.85 1462.89 L3454.85 1462.03 L3471.93 1462.03 L3471.93 1462.77 L3488.88 1462.77 L3488.88 1463.76 L3505.96 1463.76 L3505.96 1463.39 L3523.04 1463.39 L3523.04 1462.65 L3540.12 1462.65 L3540.12 1463.14 L3557.07 1463.14 L3557.07 1463.88 L3574.15 1463.88 L3574.15 1464.01 L3591.22 1464.01 L3591.22 1462.77 L3608.18 1462.77 L3608.18 1462.15 L3625.26 1462.15 L3625.26 1461.04 L3642.33 1461.04 L3642.33 1460.79 L3659.29 1460.79 L3659.29 1461.29 L3676.36 1461.29 L3676.36 1460.30 L3693.44 1460.30 L3693.44 1461.29 L3710.40 1461.29 L3710.40 1461.16 L3727.47 1461.16 L3727.47 1460.91 L3744.55 1460.91 L3744.55 1461.04 L3761.63 1461.04 L3761.63 1460.67 L3778.58 1460.67 L3778.58 1461.04 L3795.66 1461.04 L3795.66 1461.16" stroke-linejoin="round" style="fill:none;stroke:#000000;stroke-width:8.64"/>
	<line x1="524.08" y1="2509.23" x2="524.08" y2="419.90" style="stroke:#000000;stroke-width:5.76"/>
	<line x1="524.08" y1="2445.87" x2="484.11" y2="2445.87" style="stroke:#000000;stroke-width:5.76"/>
	<text x="464.06" y="2480.90" style="font-family:'Helvetica';font-size:99.99px;fill:#000000" text-anchor="end">0.00</text>
	<line x1="524.08" y1="1955.19" x2="484.11" y2="1955.19" style="stroke:#000000;stroke-width:5.76"/>
	<text x="464.06" y="1990.22" style="font-family:'Helvetica';font-size:99.99px;fill:#000000" text-anchor="end">0.50</text>
	<line x1="524.08" y1="1464.63" x2="484.11" y2="1464.63" style="stroke:#000000;stroke-width:5.76"/>
	<text x="464.06" y="1499.66" style="font-family:'Helvetica';font-size:99.99px;fill:#000000" text-anchor="end">1.00</text>
	<line x1="524.08" y1="973.94" x2="484.11" y2="973.94" style="stroke:#000000;stroke-width:5.76"/>
	<text x="464.06" y="1008.97" style="font-family:'Helvetica';font-size:99.99px;fill:#000000" text-anchor="end">1.50</text>
	<line x1="524.08" y1="483.26" x2="484.11" y2="483.26" style="stroke:#000000;stroke-width:5.76"/>
	<text x="464.06" y="518.29" style="font-family:'Helvetica';font-size:99.99px;fill:#000000" text-anchor="end">2.00</text>
	<text x="190.71" y="1464.63" style="font-family:'Helvetica';font-size:99.99px;fill:#000000" transform="rotate(-90 190.71,1464.63)" text-anchor="middle">Ratio in Probabilities</text>
	<line x1="524.08" y1="2509.23" x2="3859.02" y2="2509.23" style="stroke:#000000;stroke-width:5.76"/>
	<line x1="587.44" y1="2509.23" x2="587.44" y2="2549.21" style="stroke:#000000;stroke-width:5.76"/>
	<text x="587.44" y="2625.15" style="font-family:'Helvetica';font-size:79.94px;fill:#000000" text-anchor="middle">0</text>
	<line x1="779.87" y1="2509.23" x2="779.87" y2="2549.21" style="stroke:#000000;stroke-width:5.76"/>
	<text x="779.87" y="2625.15" style="font-family:'Helvetica';font-size:79.94px;fill:#000000" text-anchor="middle">.3</text>
	<line x1="972.30" y1="2509.23" x2="972.30" y2="2549.21" style="stroke:#000000;stroke-width:5.76"/>
	<text x="972.30" y="2625.15" style="font-family:'Helvetica';font-size:79.94px;fill:#000000" text-anchor="middle">.6</text>
	<line x1="1164.73" y1="2509.23" x2="1164.73" y2="2549.21" style="stroke:#000000;stroke-width:5.76"/>
	<text x="1164.73" y="2625.15" style="font-family:'Helvetica';font-size:79.94px;fill:#000000" text-anchor="middle">.9</text>
	<line x1="1357.17" y1="2509.23" x2="1357.17" y2="2549.21" style="stroke:#000000;stroke-width:5.76"/>
	<text x="1357.17" y="2625.15" style="font-family:'Helvetica';font-size:79.94px;fill:#000000" text-anchor="middle">1.2</text>
	<line x1="1549.60" y1="2509.23" x2="1549.60" y2="2549.21" style="stroke:#000000;stroke-width:5.76"/>
	<text x="1549.60" y="2625.15" style="font-family:'Helvetica';font-size:79.94px;fill:#000000" text-anchor="middle">1.5</text>
	<line x1="1741.90" y1="2509.23" x2="1741.90" y2="2549.21" style="stroke:#000000;stroke-width:5.76"/>
	<text x="1741.90" y="2625.15" style="font-family:'Helvetica';font-size:79.94px;fill:#000000" text-anchor="middle">1.8</text>
	<line x1="1934.34" y1="2509.23" x2="1934.34" y2="2549.21" style="stroke:#000000;stroke-width:5.76"/>
	<text x="1934.34" y="2625.15" style="font-family:'Helvetica';font-size:79.94px;fill:#000000" text-anchor="middle">2.1</text>
	<line x1="2126.77" y1="2509.23" x2="2126.77" y2="2549.21" style="stroke:#000000;stroke-width:5.76"/>
	<text x="2126.77" y="2625.15" style="font-family:'Helvetica';font-size:79.94px;fill:#000000" text-anchor="middle">2.4</text>
	<line x1="2319.20" y1="2509.23" x2="2319.20" y2="2549.21" style="stroke:#000000;stroke-width:5.76"/>
	<text x="2319.20" y="2625.15" style="font-family:'Helvetica';font-size:79.94px;fill:#000000" text-anchor="middle">2.7</text>
	<line x1="2511.63" y1="2509.23" x2="2511.63" y2="2549.21" style="stroke:#000000;stroke-width:5.76"/>
	<text x="2511.63" y="2625.15" style="font-family:'Helvetica';font-size:79.94px;fill:#000000" text-anchor="middle">3</text>
	<line x1="2704.06" y1="2509.23" x2="2704.06" y2="2549.21" style="stroke:#000000;stroke-width:5.76"/>
	<text x="2704.06" y="2625.15" style="font-family:'Helvetica';font-size:79.94px;fill:#000000" text-anchor="middle">3.3</text>
	<line x1="2896.49" y1="2509.23" x2="2896.49" y2="2549.21" style="stroke:#000000;stroke-width:5.76"/>
	<text x="2896.49" y="2625.15" style="font-family:'Helvetica';font-size:79.94px;fill:#000000" text-anchor="middle">3.6</text>
	<line x1="3088.92" y1="2509.23" x2="3088.92" y2="2549.21" style="stroke:#000000;stroke-width:5.76"/>
	<text x="3088.92" y="2625.15" style="font-family:'Helvetica';font-size:79.94px;fill:#000000" text-anchor="middle">3.9</text>
	<line x1="3281.36" y1="2509.23" x2="3281.36" y2="2549.21" style="stroke:#000000;stroke-width:5.76"/>
	<text x="3281.36" y="2625.15" style="font-family:'Helvetica';font-size:79.94px;fill:#000000" text-anchor="middle">4.2</text>
	<line x1="3473.66" y1="2509.23" x2="3473.66" y2="2549.21" style="stroke:#000000;stroke-width:5.76"/>
	<text x="3473.66" y="2625.15" style="font-family:'Helvetica';font-size:79.94px;fill:#000000" text-anchor="middle">4.5</text>
	<line x1="3666.09" y1="2509.23" x2="3666.09" y2="2549.21" style="stroke:#000000;stroke-width:5.76"/>
	<text x="3666.09" y="2625.15" style="font-family:'Helvetica';font-size:79.94px;fill:#000000" text-anchor="middle">4.8</text>
	<line x1="3858.53" y1="2509.23" x2="3858.53" y2="2549.21" style="stroke:#000000;stroke-width:5.76"/>
	<text x="3858.53" y="2625.15" style="font-family:'Helvetica';font-size:79.94px;fill:#000000" text-anchor="middle">5.1</text>
	<text x="2191.61" y="2729.16" style="font-family:'Helvetica';font-size:99.99px;fill:#000000" text-anchor="middle">Time (years)</text>
	<rect x="558.61" y="454.42" width="993.34" height="326.46" style="fill:#FFFFFF"/>
	<rect x="561.49" y="457.30" width="987.58" height="320.70" style="fill:none;stroke:#000000;stroke-width:5.76"/>
	<rect x="601.92" y="497.74" width="374.34" height="99.99" style="fill:#999999;fill-opacity:0.65"/>
	<rect x="606.24" y="502.06" width="365.70" height="91.35" style="fill:none;stroke:#808080;stroke-opacity:0.65;stroke-width:8.64"/>
	<line x1="601.92" y1="687.70" x2="976.26" y2="687.70" style="stroke:#000000;stroke-width:8.64"/>
	<text x="1036.28" y="582.76" style="font-family:'Helvetica';font-size:99.99px;fill:#000000">CI95%</text>
	<text x="1036.28" y="722.73" style="font-family:'Helvetica';font-size:99.99px;fill:#000000">Difference</text>
	<text x="2191.61" y="369.63" style="font-family:'Helvetica';font-size:110.01px;fill:#000000" text-anchor="middle">from 2nd Readmission to 3rd Readmission</text>
	<text x="2191.61" y="215.98" style="font-family:'Helvetica';font-size:139.96px;fill:#1E2D53" text-anchor="middle">Ratio in Probabilities (RP)</text>
</svg>
