<?xml version="1.0" encoding="UTF-8" standalone="no"?>
<!-- This is a Stata 16.1 generated SVG file (http://www.stata.com) -->

<svg version="1.1" width="5.50in" height="4.00in" viewBox="0 0 3960 2880" xmlns="http://www.w3.org/2000/svg" xmlns:xlink="http://www.w3.org/1999/xlink">
	<desc>Stata Graph - ratio_models45_3y</desc>
	<rect x="0" y="0" width="3960" height="2880" style="fill:#EAF2F3;stroke:none"/>
	<rect x="0.00" y="0.00" width="3959.88" height="2880.00" style="fill:#FFFFFF"/>
	<rect x="2.88" y="2.88" width="3954.12" height="2874.24" style="fill:none;stroke:#FFFFFF;stroke-width:5.76"/>
	<rect x="524.08" y="419.90" width="3334.94" height="2089.34" style="fill:#FFFFFF"/>
	<rect x="526.96" y="422.78" width="3329.18" height="2083.58" style="fill:none;stroke:#FFFFFF;stroke-width:5.76"/>
	<line x1="524.08" y1="1955.19" x2="3859.02" y2="1955.19" style="stroke:#EAF2F3;stroke-width:8.64"/>
	<line x1="524.08" y1="1464.63" x2="3859.02" y2="1464.63" style="stroke:#EAF2F3;stroke-width:8.64"/>
	<line x1="524.08" y1="973.94" x2="3859.02" y2="973.94" style="stroke:#EAF2F3;stroke-width:8.64"/>
	<line x1="524.08" y1="1464.63" x2="3859.02" y2="1464.63" style="stroke:#1A476F;stroke-width:8.64"/>
	<defs>
		<path id="path_irDarqAe" d="M745.59 1786.88 L745.59 1786.88 L762.67 1786.88 L762.67 1787.75 L779.63 1787.75 L779.63 1782.06 L796.70 1782.06 L796.70 1777.23 L813.78 1777.23 L813.78 1771.91 L830.73 1771.91 L830.73 1760.52 L847.81 1760.52 L847.81 1752.11 L864.89 1752.11 L864.89 1749.76 L881.84 1749.76 L881.84 1744.19 L898.92 1744.19 L898.92 1738.87 L916.00 1738.87 L916.00 1732.68 L932.95 1732.68 L932.95 1732.55 L950.03 1732.55 L950.03 1727.48 L967.11 1727.48 L967.11 1724.88 L984.06 1724.88 L984.06 1723.89 L1001.14 1723.89 L1001.14 1723.15 L1018.22 1723.15 L1018.22 1720.06 L1035.17 1720.06 L1035.17 1717.58 L1052.25 1717.58 L1052.25 1714.86 L1069.32 1714.86 L1069.32 1712.63 L1086.28 1712.63 L1086.28 1709.16 L1103.36 1709.16 L1103.36 1707.80 L1120.43 1707.80 L1120.43 1707.43 L1137.39 1707.43 L1137.39 1705.08 L1154.46 1705.08 L1154.46 1703.35 L1171.54 1703.35 L1171.54 1703.22 L1188.49 1703.22 L1188.49 1701.00 L1205.57 1701.00 L1205.57 1699.88 L1222.65 1699.88 L1222.65 1699.02 L1239.60 1699.02 L1239.60 1698.89 L1256.68 1698.89 L1256.68 1696.42 L1273.76 1696.42 L1273.76 1695.06 L1290.71 1695.06 L1290.71 1693.94 L1307.79 1693.94 L1307.79 1693.45 L1324.87 1693.45 L1324.87 1691.59 L1341.94 1691.59 L1341.94 1689.36 L1358.90 1689.36 L1358.90 1688.25 L1375.98 1688.25 L1375.98 1687.01 L1393.05 1687.01 L1393.05 1684.66 L1410.01 1684.66 L1410.01 1682.81 L1427.09 1682.81 L1427.09 1681.32 L1444.16 1681.32 L1444.16 1678.84 L1461.12 1678.84 L1461.12 1675.38 L1478.19 1675.38 L1478.19 1674.27 L1495.27 1674.27 L1495.27 1673.40 L1512.22 1673.40 L1512.22 1670.92 L1529.30 1670.92 L1529.30 1670.80 L1546.38 1670.80 L1546.38 1670.43 L1563.33 1670.43 L1563.33 1670.43 L1580.41 1670.43 L1580.41 1670.18 L1597.49 1670.18 L1597.49 1670.80 L1614.44 1670.80 L1614.44 1669.19 L1631.52 1669.19 L1631.52 1667.95 L1648.60 1667.95 L1648.60 1666.35 L1665.55 1666.35 L1665.55 1665.36 L1682.63 1665.36 L1682.63 1664.49 L1699.71 1664.49 L1699.71 1663.50 L1716.66 1663.50 L1716.66 1662.88 L1733.74 1662.88 L1733.74 1661.15 L1750.82 1661.15 L1750.82 1659.54 L1767.77 1659.54 L1767.77 1658.43 L1784.85 1658.43 L1784.85 1656.45 L1801.92 1656.45 L1801.92 1654.34 L1818.88 1654.34 L1818.88 1653.48 L1835.95 1653.48 L1835.95 1652.61 L1853.03 1652.61 L1853.03 1652.11 L1869.99 1652.11 L1869.99 1650.63 L1887.06 1650.63 L1887.06 1649.39 L1904.14 1649.39 L1904.14 1648.65 L1921.22 1648.65 L1921.22 1647.66 L1938.17 1647.66 L1938.17 1646.55 L1955.25 1646.55 L1955.25 1646.30 L1972.33 1646.30 L1972.33 1645.06 L1989.28 1645.06 L1989.28 1643.58 L2006.36 1643.58 L2006.36 1642.83 L2023.44 1642.83 L2023.44 1641.10 L2040.39 1641.10 L2040.39 1640.98 L2057.47 1640.98 L2057.47 1640.85 L2074.55 1640.85 L2074.55 1639.49 L2091.50 1639.49 L2091.50 1638.25 L2108.58 1638.25 L2108.58 1637.88 L2125.65 1637.88 L2125.65 1636.15 L2142.61 1636.15 L2142.61 1635.65 L2159.68 1635.65 L2159.68 1635.28 L2176.76 1635.28 L2176.76 1634.42 L2193.72 1634.42 L2193.72 1633.18 L2210.79 1633.18 L2210.79 1632.56 L2227.87 1632.56 L2227.87 1631.69 L2244.82 1631.69 L2244.82 1631.20 L2261.90 1631.20 L2261.90 1630.46 L2278.98 1630.46 L2278.98 1629.71 L2295.93 1629.71 L2295.93 1628.85 L2313.01 1628.85 L2313.01 1628.23 L2330.09 1628.23 L2330.09 1628.48 L2347.04 1628.48 L2347.04 1628.48 L2364.12 1628.48 L2364.12 1628.11 L2381.20 1628.11 L2381.20 1626.99 L2398.15 1626.99 L2398.15 1626.87 L2415.23 1626.87 L2415.23 1626.37 L2432.31 1626.37 L2432.31 1625.75 L2449.26 1625.75 L2449.26 1625.51 L2466.34 1625.51 L2466.34 1624.64 L2483.41 1624.64 L2483.41 1624.27 L2500.49 1624.27 L2500.49 1623.03 L2517.45 1623.03 L2517.45 1622.04 L2534.52 1622.04 L2534.52 1621.42 L2551.60 1621.42 L2551.60 1619.57 L2568.55 1619.57 L2568.55 1618.95 L2585.63 1618.95 L2585.63 1618.33 L2602.71 1618.33 L2602.71 1617.22 L2619.66 1617.22 L2619.66 1616.84 L2636.74 1616.84 L2636.74 1616.60 L2653.82 1616.60 L2653.82 1616.10 L2670.77 1616.10 L2670.77 1615.85 L2687.85 1615.85 L2687.85 1615.24 L2704.93 1615.24 L2704.93 1613.87 L2721.88 1613.87 L2721.88 1613.50 L2738.96 1613.50 L2738.96 1612.76 L2756.04 1612.76 L2756.04 1612.14 L2772.99 1612.14 L2772.99 1611.89 L2790.07 1611.89 L2790.07 1611.15 L2807.14 1611.15 L2807.14 1611.28 L2824.10 1611.28 L2824.10 1610.78 L2841.18 1610.78 L2841.18 1610.16 L2858.25 1610.16 L2858.25 1610.41 L2875.21 1610.41 L2875.21 1609.42 L2892.28 1609.42 L2892.28 1609.42 L2909.36 1609.42 L2909.36 1608.80 L2926.32 1608.80 L2926.32 1608.31 L2943.39 1608.31 L2943.39 1607.69 L2960.47 1607.69 L2960.47 1607.56 L2977.43 1607.56 L2977.43 1607.07 L2994.50 1607.07 L2994.50 1606.57 L3011.58 1606.57 L3011.58 1606.20 L3028.66 1606.20 L3028.66 1606.45 L3045.61 1606.45 L3045.61 1605.71 L3062.69 1605.71 L3062.69 1605.83 L3079.77 1605.83 L3079.77 1605.58 L3096.72 1605.58 L3096.72 1605.83 L3113.80 1605.83 L3113.80 1604.96 L3130.88 1604.96 L3130.88 1604.47 L3147.83 1604.47 L3147.83 1604.22 L3164.91 1604.22 L3164.91 1603.36 L3181.98 1603.36 L3181.98 1602.86 L3198.94 1602.86 L3198.94 1602.37 L3216.01 1602.37 L3216.01 1601.75 L3233.09 1601.75 L3233.09 1600.63 L3250.05 1600.63 L3250.05 1599.89 L3267.12 1599.89 L3267.12 1599.39 L3284.20 1599.39 L3284.20 1598.65 L3301.16 1598.65 L3301.16 1597.79 L3318.23 1597.79 L3318.23 1596.80 L3335.31 1596.80 L3335.31 1596.55 L3352.26 1596.55 L3352.26 1596.18 L3369.34 1596.18 L3369.34 1595.56 L3386.42 1595.56 L3386.42 1595.19 L3403.37 1595.19 L3403.37 1594.82 L3420.45 1594.82 L3420.45 1594.82 L3437.53 1594.82 L3437.53 1594.07 L3454.48 1594.07 L3454.48 1593.70 L3471.56 1593.70 L3471.56 1593.58 L3488.64 1593.58 L3488.64 1592.84 L3505.59 1592.84 L3505.59 1592.59 L3522.67 1592.59 L3522.67 1592.71 L3539.74 1592.71 L3539.74 1592.46 L3556.70 1592.46 L3556.70 1591.97 L3573.78 1591.97 L3573.78 1591.72 L3590.85 1591.72 L3590.85 1591.35 L3607.93 1591.35 L3607.93 1591.10 L3624.89 1591.10 L3624.89 1590.73 L3641.96 1590.73 L3641.96 1590.61 L3659.04 1590.61 L3659.04 1590.36 L3675.99 1590.36 L3675.99 1589.99 L3693.07 1589.99 L3693.07 1590.11 L3710.15 1590.11 L3710.15 1589.87 L3727.10 1589.87 L3727.10 1589.37 L3744.18 1589.37 L3744.18 1589.12 L3761.26 1589.12 L3761.26 1589.00 L3778.21 1589.00 L3778.21 1588.75 L3795.29 1588.75 L3795.29 1588.75 L3795.29 1272.07 L3795.29 1271.20 L3778.21 1271.20 L3778.21 1270.46 L3761.26 1270.46 L3761.26 1269.59 L3744.18 1269.59 L3744.18 1268.97 L3727.10 1268.97 L3727.10 1268.60 L3710.15 1268.60 L3710.15 1268.11 L3693.07 1268.11 L3693.07 1266.99 L3675.99 1266.99 L3675.99 1266.37 L3659.04 1266.37 L3659.04 1265.51 L3641.96 1265.51 L3641.96 1264.76 L3624.89 1264.76 L3624.89 1264.15 L3607.93 1264.15 L3607.93 1263.40 L3590.85 1263.40 L3590.85 1262.91 L3573.78 1262.91 L3573.78 1262.04 L3556.70 1262.04 L3556.70 1261.67 L3539.74 1261.67 L3539.74 1260.93 L3522.67 1260.93 L3522.67 1259.57 L3505.59 1259.57 L3505.59 1258.95 L3488.64 1258.95 L3488.64 1258.82 L3471.56 1258.82 L3471.56 1257.71 L3454.48 1257.71 L3454.48 1257.22 L3437.53 1257.22 L3437.53 1257.09 L3420.45 1257.09 L3420.45 1255.85 L3403.37 1255.85 L3403.37 1255.36 L3386.42 1255.36 L3386.42 1254.74 L3369.34 1254.74 L3369.34 1254.37 L3352.26 1254.37 L3352.26 1253.75 L3335.31 1253.75 L3335.31 1252.88 L3318.23 1252.88 L3318.23 1253.01 L3301.16 1253.01 L3301.16 1253.01 L3284.20 1253.01 L3284.20 1252.88 L3267.12 1252.88 L3267.12 1252.39 L3250.05 1252.39 L3250.05 1252.14 L3233.09 1252.14 L3233.09 1252.39 L3216.01 1252.39 L3216.01 1252.14 L3198.94 1252.14 L3198.94 1251.52 L3181.98 1251.52 L3181.98 1251.15 L3164.91 1251.15 L3164.91 1250.90 L3147.83 1250.90 L3147.83 1249.91 L3130.88 1249.91 L3130.88 1249.42 L3113.80 1249.42 L3113.80 1249.42 L3096.72 1249.42 L3096.72 1247.69 L3079.77 1247.69 L3079.77 1246.70 L3062.69 1246.70 L3062.69 1245.21 L3045.61 1245.21 L3045.61 1244.72 L3028.66 1244.72 L3028.66 1243.11 L3011.58 1243.11 L3011.58 1242.37 L2994.50 1242.37 L2994.50 1241.50 L2977.43 1241.50 L2977.43 1240.76 L2960.47 1240.76 L2960.47 1239.52 L2943.39 1239.52 L2943.39 1239.02 L2926.32 1239.02 L2926.32 1238.28 L2909.36 1238.28 L2909.36 1237.41 L2892.28 1237.41 L2892.28 1235.81 L2875.21 1235.81 L2875.21 1235.68 L2858.25 1235.68 L2858.25 1233.95 L2841.18 1233.95 L2841.18 1233.21 L2824.10 1233.21 L2824.10 1232.46 L2807.14 1232.46 L2807.14 1230.61 L2790.07 1230.61 L2790.07 1230.24 L2772.99 1230.24 L2772.99 1229.12 L2756.04 1229.12 L2756.04 1228.50 L2738.96 1228.50 L2738.96 1227.89 L2721.88 1227.89 L2721.88 1226.90 L2704.93 1226.90 L2704.93 1227.14 L2687.85 1227.14 L2687.85 1226.65 L2670.77 1226.65 L2670.77 1225.29 L2653.82 1225.29 L2653.82 1224.17 L2636.74 1224.17 L2636.74 1222.81 L2619.66 1222.81 L2619.66 1221.70 L2602.71 1221.70 L2602.71 1221.57 L2585.63 1221.57 L2585.63 1220.58 L2568.55 1220.58 L2568.55 1219.72 L2551.60 1219.72 L2551.60 1220.58 L2534.52 1220.58 L2534.52 1219.72 L2517.45 1219.72 L2517.45 1219.35 L2500.49 1219.35 L2500.49 1219.35 L2483.41 1219.35 L2483.41 1217.86 L2466.34 1217.86 L2466.34 1217.24 L2449.26 1217.24 L2449.26 1215.76 L2432.31 1215.76 L2432.31 1214.77 L2415.23 1214.77 L2415.23 1213.53 L2398.15 1213.53 L2398.15 1211.67 L2381.20 1211.67 L2381.20 1211.30 L2364.12 1211.30 L2364.12 1209.82 L2347.04 1209.82 L2347.04 1207.59 L2330.09 1207.59 L2330.09 1205.24 L2313.01 1205.24 L2313.01 1203.88 L2295.93 1203.88 L2295.93 1203.14 L2278.98 1203.14 L2278.98 1201.90 L2261.90 1201.90 L2261.90 1200.66 L2244.82 1200.66 L2244.82 1199.05 L2227.87 1199.05 L2227.87 1198.18 L2210.79 1198.18 L2210.79 1196.82 L2193.72 1196.82 L2193.72 1196.33 L2176.76 1196.33 L2176.76 1195.46 L2159.68 1195.46 L2159.68 1193.36 L2142.61 1193.36 L2142.61 1191.63 L2125.65 1191.63 L2125.65 1191.87 L2108.58 1191.87 L2108.58 1189.77 L2091.50 1189.77 L2091.50 1189.03 L2074.55 1189.03 L2074.55 1188.53 L2057.47 1188.53 L2057.47 1185.93 L2040.39 1185.93 L2040.39 1183.46 L2023.44 1183.46 L2023.44 1183.21 L2006.36 1183.21 L2006.36 1181.97 L1989.28 1181.97 L1989.28 1181.48 L1972.33 1181.48 L1972.33 1180.49 L1955.25 1180.49 L1955.25 1177.89 L1938.17 1177.89 L1938.17 1176.78 L1921.22 1176.78 L1921.22 1175.54 L1904.14 1175.54 L1904.14 1173.56 L1887.06 1173.56 L1887.06 1172.57 L1869.99 1172.57 L1869.99 1171.70 L1853.03 1171.70 L1853.03 1169.47 L1835.95 1169.47 L1835.95 1167.74 L1818.88 1167.74 L1818.88 1165.64 L1801.92 1165.64 L1801.92 1165.76 L1784.85 1165.76 L1784.85 1165.14 L1767.77 1165.14 L1767.77 1163.66 L1750.82 1163.66 L1750.82 1162.54 L1733.74 1162.54 L1733.74 1161.55 L1716.66 1161.55 L1716.66 1159.08 L1699.71 1159.08 L1699.71 1157.10 L1682.63 1157.10 L1682.63 1154.50 L1665.55 1154.50 L1665.55 1152.27 L1648.60 1152.27 L1648.60 1151.16 L1631.52 1151.16 L1631.52 1149.05 L1614.44 1149.05 L1614.44 1147.57 L1597.49 1147.57 L1597.49 1142.62 L1580.41 1142.62 L1580.41 1138.78 L1563.33 1138.78 L1563.33 1134.58 L1546.38 1134.58 L1546.38 1130.49 L1529.30 1130.49 L1529.30 1125.91 L1512.22 1125.91 L1512.22 1125.42 L1495.27 1125.42 L1495.27 1122.08 L1478.19 1122.08 L1478.19 1119.23 L1461.12 1119.23 L1461.12 1119.85 L1444.16 1119.85 L1444.16 1118.98 L1427.09 1118.98 L1427.09 1116.01 L1410.01 1116.01 L1410.01 1113.91 L1393.05 1113.91 L1393.05 1112.42 L1375.98 1112.42 L1375.98 1108.83 L1358.90 1108.83 L1358.90 1105.25 L1341.94 1105.25 L1341.94 1103.27 L1324.87 1103.27 L1324.87 1100.05 L1307.79 1100.05 L1307.79 1094.73 L1290.71 1094.73 L1290.71 1089.90 L1273.76 1089.90 L1273.76 1085.45 L1256.68 1085.45 L1256.68 1082.85 L1239.60 1082.85 L1239.60 1076.41 L1222.65 1076.41 L1222.65 1070.59 L1205.57 1070.59 L1205.57 1064.90 L1188.49 1064.90 L1188.49 1060.94 L1171.54 1060.94 L1171.54 1053.27 L1154.46 1053.27 L1154.46 1047.95 L1137.39 1047.95 L1137.39 1043.00 L1120.43 1043.00 L1120.43 1034.33 L1103.36 1034.33 L1103.36 1026.79 L1086.28 1026.79 L1086.28 1023.57 L1069.32 1023.57 L1069.32 1017.26 L1052.25 1017.26 L1052.25 1011.19 L1035.17 1011.19 L1035.17 1004.76 L1018.22 1004.76 L1018.22 999.68 L1001.14 999.68 L1001.14 988.05 L984.06 988.05 L984.06 975.80 L967.11 975.80 L967.11 966.89 L950.03 966.89 L950.03 961.94 L932.95 961.94 L932.95 946.35 L916.00 946.35 L916.00 941.89 L898.92 941.89 L898.92 935.95 L881.84 935.95 L881.84 928.65 L864.89 928.65 L864.89 913.55 L847.81 913.55 L847.81 907.86 L830.73 907.86 L830.73 910.70 L813.78 910.70 L813.78 895.24 L796.70 895.24 L796.70 875.06 L779.63 875.06 L779.63 855.26 L762.67 855.26 L762.67 815.29 L745.59 815.29 L745.59 1786.88 Z" stroke-linejoin="round"/>
	</defs>
	<defs>
		<clipPath id="clipPath_VYXoXIqI">
			<use xlink:href="#path_irDarqAe"/>
		</clipPath>
	</defs>
	<use xlink:href="#path_irDarqAe" style="stroke:none;fill:#999999;fill-opacity:0.65"/>
	<use xlink:href="#path_irDarqAe" style="fill:none;stroke:#808080;stroke-opacity:0.65;stroke-width:17.28" clip-path="url(#clipPath_VYXoXIqI)"/>
	<path d=" M745.47 1409.43 L762.55 1409.43 L762.55 1422.80 L779.63 1422.80 L779.63 1424.78 L796.58 1424.78 L796.58 1427.62 L813.66 1427.62 L813.66 1428.74 L830.73 1428.74 L830.73 1419.21 L847.69 1419.21 L847.69 1414.88 L864.76 1414.88 L864.76 1418.22 L881.84 1418.22 L881.84 1416.61 L898.80 1416.61 L898.80 1414.75 L915.87 1414.75 L915.87 1411.78 L932.95 1411.78 L932.95 1417.11 L949.90 1417.11 L949.90 1415.13 L966.98 1415.13 L966.98 1416.36 L984.06 1416.36 L984.06 1420.08 L1001.01 1420.08 L1001.01 1423.54 L1018.09 1423.54 L1018.09 1423.17 L1035.17 1423.17 L1035.17 1423.79 L1052.25 1423.79 L1052.25 1424.04 L1069.20 1424.04 L1069.20 1424.78 L1086.28 1424.78 L1086.28 1423.54 L1103.36 1423.54 L1103.36 1425.27 L1120.31 1425.27 L1120.31 1428.12 L1137.39 1428.12 L1137.39 1428.37 L1154.46 1428.37 L1154.46 1429.11 L1171.42 1429.11 L1171.42 1431.83 L1188.49 1431.83 L1188.49 1431.71 L1205.57 1431.71 L1205.57 1433.07 L1222.53 1433.07 L1222.53 1434.68 L1239.60 1434.68 L1239.60 1436.91 L1256.68 1436.91 L1256.68 1436.16 L1273.63 1436.16 L1273.63 1436.91 L1290.71 1436.91 L1290.71 1438.02 L1307.79 1438.02 L1307.79 1439.63 L1324.74 1439.63 L1324.74 1439.63 L1341.82 1439.63 L1341.82 1438.89 L1358.90 1438.89 L1358.90 1439.50 L1375.85 1439.50 L1375.85 1440.00 L1392.93 1440.00 L1392.93 1439.01 L1410.01 1439.01 L1410.01 1438.51 L1426.96 1438.51 L1426.96 1438.76 L1444.04 1438.76 L1444.04 1437.40 L1461.12 1437.40 L1461.12 1434.93 L1478.07 1434.93 L1478.07 1435.30 L1495.15 1435.30 L1495.15 1435.92 L1512.22 1435.92 L1512.22 1434.55 L1529.18 1434.55 L1529.18 1436.29 L1546.26 1436.29 L1546.26 1437.52 L1563.33 1437.52 L1563.33 1439.13 L1580.29 1439.13 L1580.29 1440.50 L1597.37 1440.50 L1597.37 1442.85 L1614.44 1442.85 L1614.44 1442.35 L1631.52 1442.35 L1631.52 1442.35 L1648.47 1442.35 L1648.47 1441.73 L1665.55 1441.73 L1665.55 1441.98 L1682.63 1441.98 L1682.63 1442.35 L1699.58 1442.35 L1699.58 1442.48 L1716.66 1442.48 L1716.66 1443.22 L1733.74 1443.22 L1733.74 1442.48 L1750.69 1442.48 L1750.69 1441.86 L1767.77 1441.86 L1767.77 1441.61 L1784.85 1441.61 L1784.85 1440.74 L1801.80 1440.74 L1801.80 1439.26 L1818.88 1439.26 L1818.88 1439.63 L1835.95 1439.63 L1835.95 1439.75 L1852.91 1439.75 L1852.91 1440.25 L1869.99 1440.25 L1869.99 1439.63 L1887.06 1439.63 L1887.06 1439.26 L1904.02 1439.26 L1904.02 1439.63 L1921.10 1439.63 L1921.10 1439.50 L1938.17 1439.50 L1938.17 1439.13 L1955.13 1439.13 L1955.13 1440.00 L1972.20 1440.00 L1972.20 1439.75 L1989.28 1439.75 L1989.28 1438.89 L2006.23 1438.89 L2006.23 1439.01 L2023.31 1439.01 L2023.31 1438.02 L2040.39 1438.02 L2040.39 1439.01 L2057.34 1439.01 L2057.34 1439.88 L2074.42 1439.88 L2074.42 1439.26 L2091.50 1439.26 L2091.50 1438.76 L2108.45 1438.76 L2108.45 1439.38 L2125.53 1439.38 L2125.53 1438.14 L2142.61 1438.14 L2142.61 1438.51 L2159.56 1438.51 L2159.56 1439.13 L2176.64 1439.13 L2176.64 1439.01 L2193.72 1439.01 L2193.72 1438.39 L2210.79 1438.39 L2210.79 1438.51 L2227.75 1438.51 L2227.75 1438.39 L2244.82 1438.39 L2244.82 1438.76 L2261.90 1438.76 L2261.90 1438.76 L2278.86 1438.76 L2278.86 1438.89 L2295.93 1438.89 L2295.93 1438.64 L2313.01 1438.64 L2313.01 1438.76 L2329.97 1438.76 L2329.97 1439.88 L2347.04 1439.88 L2347.04 1440.74 L2364.12 1440.74 L2364.12 1441.11 L2381.07 1441.11 L2381.07 1440.62 L2398.15 1440.62 L2398.15 1441.24 L2415.23 1441.24 L2415.23 1441.49 L2432.18 1441.49 L2432.18 1441.61 L2449.26 1441.61 L2449.26 1441.98 L2466.34 1441.98 L2466.34 1441.73 L2483.29 1441.73 L2483.29 1442.10 L2500.37 1442.10 L2500.37 1441.36 L2517.45 1441.36 L2517.45 1440.87 L2534.40 1440.87 L2534.40 1440.87 L2551.48 1440.87 L2551.48 1439.38 L2568.55 1439.38 L2568.55 1439.38 L2585.51 1439.38 L2585.51 1439.38 L2602.59 1439.38 L2602.59 1438.76 L2619.66 1438.76 L2619.66 1439.01 L2636.62 1439.01 L2636.62 1439.38 L2653.70 1439.38 L2653.70 1439.63 L2670.77 1439.63 L2670.77 1440.00 L2687.73 1440.00 L2687.73 1439.75 L2704.80 1439.75 L2704.80 1438.89 L2721.88 1438.89 L2721.88 1439.01 L2738.84 1439.01 L2738.84 1438.89 L2755.91 1438.89 L2755.91 1438.76 L2772.99 1438.76 L2772.99 1439.01 L2790.07 1439.01 L2790.07 1438.76 L2807.02 1438.76 L2807.02 1439.63 L2824.10 1439.63 L2824.10 1439.63 L2841.18 1439.63 L2841.18 1439.63 L2858.13 1439.63 L2858.13 1440.37 L2875.21 1440.37 L2875.21 1439.88 L2892.28 1439.88 L2892.28 1440.50 L2909.24 1440.50 L2909.24 1440.62 L2926.32 1440.62 L2926.32 1440.62 L2943.39 1440.62 L2943.39 1440.37 L2960.35 1440.37 L2960.35 1440.74 L2977.43 1440.74 L2977.43 1440.87 L2994.50 1440.87 L2994.50 1440.87 L3011.46 1440.87 L3011.46 1440.87 L3028.53 1440.87 L3028.53 1441.86 L3045.61 1441.86 L3045.61 1441.61 L3062.57 1441.61 L3062.57 1442.23 L3079.64 1442.23 L3079.64 1442.60 L3096.72 1442.60 L3096.72 1443.47 L3113.67 1443.47 L3113.67 1442.85 L3130.75 1442.85 L3130.75 1442.85 L3147.83 1442.85 L3147.83 1443.09 L3164.78 1443.09 L3164.78 1442.72 L3181.86 1442.72 L3181.86 1442.48 L3198.94 1442.48 L3198.94 1442.48 L3215.89 1442.48 L3215.89 1442.23 L3232.97 1442.23 L3232.97 1441.49 L3250.05 1441.49 L3250.05 1441.11 L3267.00 1441.11 L3267.00 1440.99 L3284.08 1440.99 L3284.08 1440.62 L3301.16 1440.62 L3301.16 1440.12 L3318.23 1440.12 L3318.23 1439.50 L3335.19 1439.50 L3335.19 1439.63 L3352.26 1439.63 L3352.26 1439.75 L3369.34 1439.75 L3369.34 1439.50 L3386.30 1439.50 L3386.30 1439.63 L3403.37 1439.63 L3403.37 1439.50 L3420.45 1439.50 L3420.45 1440.12 L3437.40 1440.12 L3437.40 1439.75 L3454.48 1439.75 L3454.48 1439.63 L3471.56 1439.63 L3471.56 1440.12 L3488.51 1440.12 L3488.51 1439.75 L3505.59 1439.75 L3505.59 1439.88 L3522.67 1439.88 L3522.67 1440.50 L3539.62 1440.50 L3539.62 1440.62 L3556.70 1440.62 L3556.70 1440.50 L3573.78 1440.50 L3573.78 1440.74 L3590.73 1440.74 L3590.73 1440.74 L3607.81 1440.74 L3607.81 1440.87 L3624.89 1440.87 L3624.89 1440.99 L3641.84 1440.99 L3641.84 1441.11 L3658.92 1441.11 L3658.92 1441.36 L3675.99 1441.36 L3675.99 1441.49 L3692.95 1441.49 L3692.95 1441.98 L3710.03 1441.98 L3710.03 1441.98 L3727.10 1441.98 L3727.10 1441.98 L3744.06 1441.98 L3744.06 1441.98 L3761.13 1441.98 L3761.13 1442.35 L3778.21 1442.35 L3778.21 1442.60 L3795.16 1442.60 L3795.16 1442.85" stroke-linejoin="round" style="fill:none;stroke:#000000;stroke-width:8.64"/>
	<line x1="524.08" y1="2509.23" x2="524.08" y2="419.90" style="stroke:#000000;stroke-width:5.76"/>
	<line x1="524.08" y1="2445.87" x2="484.11" y2="2445.87" style="stroke:#000000;stroke-width:5.76"/>
	<text x="464.06" y="2480.90" style="font-family:'Helvetica';font-size:99.99px;fill:#000000" text-anchor="end">0.00</text>
	<line x1="524.08" y1="1955.19" x2="484.11" y2="1955.19" style="stroke:#000000;stroke-width:5.76"/>
	<text x="464.06" y="1990.22" style="font-family:'Helvetica';font-size:99.99px;fill:#000000" text-anchor="end">0.50</text>
	<line x1="524.08" y1="1464.63" x2="484.11" y2="1464.63" style="stroke:#000000;stroke-width:5.76"/>
	<text x="464.06" y="1499.66" style="font-family:'Helvetica';font-size:99.99px;fill:#000000" text-anchor="end">1.00</text>
	<line x1="524.08" y1="973.94" x2="484.11" y2="973.94" style="stroke:#000000;stroke-width:5.76"/>
	<text x="464.06" y="1008.97" style="font-family:'Helvetica';font-size:99.99px;fill:#000000" text-anchor="end">1.50</text>
	<line x1="524.08" y1="483.26" x2="484.11" y2="483.26" style="stroke:#000000;stroke-width:5.76"/>
	<text x="464.06" y="518.29" style="font-family:'Helvetica';font-size:99.99px;fill:#000000" text-anchor="end">2.00</text>
	<text x="190.71" y="1464.63" style="font-family:'Helvetica';font-size:99.99px;fill:#000000" transform="rotate(-90 190.71,1464.63)" text-anchor="middle">Ratio in Probabilities</text>
	<line x1="524.08" y1="2509.23" x2="3859.02" y2="2509.23" style="stroke:#000000;stroke-width:5.76"/>
	<line x1="587.44" y1="2509.23" x2="587.44" y2="2549.21" style="stroke:#000000;stroke-width:5.76"/>
	<text x="587.44" y="2625.15" style="font-family:'Helvetica';font-size:79.94px;fill:#000000" text-anchor="middle">0</text>
	<line x1="780.00" y1="2509.23" x2="780.00" y2="2549.21" style="stroke:#000000;stroke-width:5.76"/>
	<text x="780.00" y="2625.15" style="font-family:'Helvetica';font-size:79.94px;fill:#000000" text-anchor="middle">.3</text>
	<line x1="972.43" y1="2509.23" x2="972.43" y2="2549.21" style="stroke:#000000;stroke-width:5.76"/>
	<text x="972.43" y="2625.15" style="font-family:'Helvetica';font-size:79.94px;fill:#000000" text-anchor="middle">.6</text>
	<line x1="1164.98" y1="2509.23" x2="1164.98" y2="2549.21" style="stroke:#000000;stroke-width:5.76"/>
	<text x="1164.98" y="2625.15" style="font-family:'Helvetica';font-size:79.94px;fill:#000000" text-anchor="middle">.9</text>
	<line x1="1357.41" y1="2509.23" x2="1357.41" y2="2549.21" style="stroke:#000000;stroke-width:5.76"/>
	<text x="1357.41" y="2625.15" style="font-family:'Helvetica';font-size:79.94px;fill:#000000" text-anchor="middle">1.2</text>
	<line x1="1549.97" y1="2509.23" x2="1549.97" y2="2549.21" style="stroke:#000000;stroke-width:5.76"/>
	<text x="1549.97" y="2625.15" style="font-family:'Helvetica';font-size:79.94px;fill:#000000" text-anchor="middle">1.5</text>
	<line x1="1742.40" y1="2509.23" x2="1742.40" y2="2549.21" style="stroke:#000000;stroke-width:5.76"/>
	<text x="1742.40" y="2625.15" style="font-family:'Helvetica';font-size:79.94px;fill:#000000" text-anchor="middle">1.8</text>
	<line x1="1934.95" y1="2509.23" x2="1934.95" y2="2549.21" style="stroke:#000000;stroke-width:5.76"/>
	<text x="1934.95" y="2625.15" style="font-family:'Helvetica';font-size:79.94px;fill:#000000" text-anchor="middle">2.1</text>
	<line x1="2127.39" y1="2509.23" x2="2127.39" y2="2549.21" style="stroke:#000000;stroke-width:5.76"/>
	<text x="2127.39" y="2625.15" style="font-family:'Helvetica';font-size:79.94px;fill:#000000" text-anchor="middle">2.4</text>
	<line x1="2319.94" y1="2509.23" x2="2319.94" y2="2549.21" style="stroke:#000000;stroke-width:5.76"/>
	<text x="2319.94" y="2625.15" style="font-family:'Helvetica';font-size:79.94px;fill:#000000" text-anchor="middle">2.7</text>
	<line x1="2512.37" y1="2509.23" x2="2512.37" y2="2549.21" style="stroke:#000000;stroke-width:5.76"/>
	<text x="2512.37" y="2625.15" style="font-family:'Helvetica';font-size:79.94px;fill:#000000" text-anchor="middle">3</text>
	<line x1="2704.93" y1="2509.23" x2="2704.93" y2="2549.21" style="stroke:#000000;stroke-width:5.76"/>
	<text x="2704.93" y="2625.15" style="font-family:'Helvetica';font-size:79.94px;fill:#000000" text-anchor="middle">3.3</text>
	<line x1="2897.36" y1="2509.23" x2="2897.36" y2="2549.21" style="stroke:#000000;stroke-width:5.76"/>
	<text x="2897.36" y="2625.15" style="font-family:'Helvetica';font-size:79.94px;fill:#000000" text-anchor="middle">3.6</text>
	<line x1="3089.91" y1="2509.23" x2="3089.91" y2="2549.21" style="stroke:#000000;stroke-width:5.76"/>
	<text x="3089.91" y="2625.15" style="font-family:'Helvetica';font-size:79.94px;fill:#000000" text-anchor="middle">3.9</text>
	<line x1="3282.34" y1="2509.23" x2="3282.34" y2="2549.21" style="stroke:#000000;stroke-width:5.76"/>
	<text x="3282.34" y="2625.15" style="font-family:'Helvetica';font-size:79.94px;fill:#000000" text-anchor="middle">4.2</text>
	<line x1="3474.90" y1="2509.23" x2="3474.90" y2="2549.21" style="stroke:#000000;stroke-width:5.76"/>
	<text x="3474.90" y="2625.15" style="font-family:'Helvetica';font-size:79.94px;fill:#000000" text-anchor="middle">4.5</text>
	<line x1="3667.33" y1="2509.23" x2="3667.33" y2="2549.21" style="stroke:#000000;stroke-width:5.76"/>
	<text x="3667.33" y="2625.15" style="font-family:'Helvetica';font-size:79.94px;fill:#000000" text-anchor="middle">4.8</text>
	<line x1="3859.89" y1="2509.23" x2="3859.89" y2="2549.21" style="stroke:#000000;stroke-width:5.76"/>
	<text x="3859.89" y="2625.15" style="font-family:'Helvetica';font-size:79.94px;fill:#000000" text-anchor="middle">5.1</text>
	<text x="2191.61" y="2729.16" style="font-family:'Helvetica';font-size:99.99px;fill:#000000" text-anchor="middle">Time (years)</text>
	<rect x="558.61" y="454.42" width="993.34" height="326.46" style="fill:#FFFFFF"/>
	<rect x="561.49" y="457.30" width="987.58" height="320.70" style="fill:none;stroke:#000000;stroke-width:5.76"/>
	<rect x="601.92" y="497.74" width="374.34" height="99.99" style="fill:#999999;fill-opacity:0.65"/>
	<rect x="606.24" y="502.06" width="365.70" height="91.35" style="fill:none;stroke:#808080;stroke-opacity:0.65;stroke-width:8.64"/>
	<line x1="601.92" y1="687.70" x2="976.26" y2="687.70" style="stroke:#000000;stroke-width:8.64"/>
	<text x="1036.28" y="582.76" style="font-family:'Helvetica';font-size:99.99px;fill:#000000">CI95%</text>
	<text x="1036.28" y="722.73" style="font-family:'Helvetica';font-size:99.99px;fill:#000000">Difference</text>
	<text x="2191.61" y="369.63" style="font-family:'Helvetica';font-size:110.01px;fill:#000000" text-anchor="middle">from 3rd Readmission to 4th Readmission</text>
	<text x="2191.61" y="215.98" style="font-family:'Helvetica';font-size:139.96px;fill:#1E2D53" text-anchor="middle">Ratio in Probabilities</text>
</svg>
