<?xml version="1.0" encoding="UTF-8" standalone="no"?>
<!-- This is a Stata 16.1 generated SVG file (http://www.stata.com) -->

<svg version="1.1" width="5.50in" height="4.00in" viewBox="0 0 3960 2880" xmlns="http://www.w3.org/2000/svg" xmlns:xlink="http://www.w3.org/1999/xlink">
	<desc>Stata Graph - ratio_models12_3y_rp_tc</desc>
	<rect x="0" y="0" width="3960" height="2880" style="fill:#EAF2F3;stroke:none"/>
	<rect x="0.00" y="0.00" width="3959.88" height="2880.00" style="fill:#FFFFFF"/>
	<rect x="2.88" y="2.88" width="3954.12" height="2874.24" style="fill:none;stroke:#FFFFFF;stroke-width:5.76"/>
	<rect x="524.08" y="419.90" width="3334.94" height="2089.34" style="fill:#FFFFFF"/>
	<rect x="526.96" y="422.78" width="3329.18" height="2083.58" style="fill:none;stroke:#FFFFFF;stroke-width:5.76"/>
	<line x1="524.08" y1="1955.19" x2="3859.02" y2="1955.19" style="stroke:#EAF2F3;stroke-width:8.64"/>
	<line x1="524.08" y1="1464.63" x2="3859.02" y2="1464.63" style="stroke:#EAF2F3;stroke-width:8.64"/>
	<line x1="524.08" y1="973.94" x2="3859.02" y2="973.94" style="stroke:#EAF2F3;stroke-width:8.64"/>
	<line x1="524.08" y1="1464.63" x2="3859.02" y2="1464.63" style="stroke:#1A476F;stroke-width:8.64"/>
	<defs>
		<path id="path_VbfqsuIX" d="M745.59 1194.60 L745.59 1194.60 L762.67 1194.60 L762.67 1135.69 L779.63 1135.69 L779.63 1110.44 L796.70 1110.44 L796.70 1120.22 L813.78 1120.22 L813.78 1135.44 L830.73 1135.44 L830.73 1112.79 L847.81 1112.79 L847.81 1089.90 L864.89 1089.90 L864.89 1084.83 L881.84 1084.83 L881.84 1080.12 L898.92 1080.12 L898.92 1093.49 L916.00 1093.49 L916.00 1090.15 L932.95 1090.15 L932.95 1083.71 L950.03 1083.71 L950.03 1078.27 L967.11 1078.27 L967.11 1074.68 L984.06 1074.68 L984.06 1069.98 L1001.14 1069.98 L1001.14 1064.41 L1018.22 1064.41 L1018.22 1067.01 L1035.17 1067.01 L1035.17 1068.61 L1052.25 1068.61 L1052.25 1070.72 L1069.32 1070.72 L1069.32 1073.56 L1086.28 1073.56 L1086.28 1059.33 L1103.36 1059.33 L1103.36 1059.09 L1120.43 1059.09 L1120.43 1054.88 L1137.39 1054.88 L1137.39 1057.85 L1154.46 1057.85 L1154.46 1066.14 L1171.54 1066.14 L1171.54 1055.62 L1188.49 1055.62 L1188.49 1057.60 L1205.57 1057.60 L1205.57 1047.08 L1222.65 1047.08 L1222.65 1038.05 L1239.60 1038.05 L1239.60 1039.04 L1256.68 1039.04 L1256.68 1042.01 L1273.76 1042.01 L1273.76 1051.54 L1290.71 1051.54 L1290.71 1044.61 L1307.79 1044.61 L1307.79 1044.98 L1324.87 1044.98 L1324.87 1045.60 L1341.94 1045.60 L1341.94 1047.08 L1358.90 1047.08 L1358.90 1050.05 L1375.98 1050.05 L1375.98 1050.79 L1393.05 1050.79 L1393.05 1052.03 L1410.01 1052.03 L1410.01 1052.03 L1427.09 1052.03 L1427.09 1047.82 L1444.16 1047.82 L1444.16 1053.39 L1461.12 1053.39 L1461.12 1058.34 L1478.19 1058.34 L1478.19 1054.38 L1495.27 1054.38 L1495.27 1056.49 L1512.22 1056.49 L1512.22 1056.61 L1529.30 1056.61 L1529.30 1055.99 L1546.38 1055.99 L1546.38 1051.54 L1563.33 1051.54 L1563.33 1045.84 L1580.41 1045.84 L1580.41 1047.70 L1597.49 1047.70 L1597.49 1050.30 L1614.44 1050.30 L1614.44 1052.03 L1631.52 1052.03 L1631.52 1050.92 L1648.60 1050.92 L1648.60 1052.16 L1665.55 1052.16 L1665.55 1050.55 L1682.63 1050.55 L1682.63 1049.93 L1699.71 1049.93 L1699.71 1050.42 L1716.66 1050.42 L1716.66 1049.43 L1733.74 1049.43 L1733.74 1051.17 L1750.82 1051.17 L1750.82 1054.38 L1767.77 1054.38 L1767.77 1053.15 L1784.85 1053.15 L1784.85 1052.16 L1801.92 1052.16 L1801.92 1052.28 L1818.88 1052.28 L1818.88 1054.14 L1835.95 1054.14 L1835.95 1054.14 L1853.03 1054.14 L1853.03 1058.59 L1869.99 1058.59 L1869.99 1060.45 L1887.06 1060.45 L1887.06 1062.18 L1904.14 1062.18 L1904.14 1065.15 L1921.22 1065.15 L1921.22 1065.64 L1938.17 1065.64 L1938.17 1065.77 L1955.25 1065.77 L1955.25 1066.14 L1972.33 1066.14 L1972.33 1067.38 L1989.28 1067.38 L1989.28 1066.39 L2006.36 1066.39 L2006.36 1066.51 L2023.44 1066.51 L2023.44 1066.26 L2040.39 1066.26 L2040.39 1069.60 L2057.47 1069.60 L2057.47 1069.73 L2074.55 1069.73 L2074.55 1070.72 L2091.50 1070.72 L2091.50 1069.36 L2108.58 1069.36 L2108.58 1068.00 L2125.65 1068.00 L2125.65 1068.12 L2142.61 1068.12 L2142.61 1066.76 L2159.68 1066.76 L2159.68 1070.22 L2176.76 1070.22 L2176.76 1072.82 L2193.72 1072.82 L2193.72 1072.95 L2210.79 1072.95 L2210.79 1072.33 L2227.87 1072.33 L2227.87 1073.07 L2244.82 1073.07 L2244.82 1073.69 L2261.90 1073.69 L2261.90 1075.79 L2278.98 1075.79 L2278.98 1077.77 L2295.93 1077.77 L2295.93 1076.41 L2313.01 1076.41 L2313.01 1078.27 L2330.09 1078.27 L2330.09 1080.37 L2347.04 1080.37 L2347.04 1081.98 L2364.12 1081.98 L2364.12 1084.33 L2381.20 1084.33 L2381.20 1087.67 L2398.15 1087.67 L2398.15 1090.27 L2415.23 1090.27 L2415.23 1091.88 L2432.31 1091.88 L2432.31 1094.23 L2449.26 1094.23 L2449.26 1093.49 L2466.34 1093.49 L2466.34 1093.98 L2483.41 1093.98 L2483.41 1095.84 L2500.49 1095.84 L2500.49 1096.34 L2517.45 1096.34 L2517.45 1100.42 L2534.52 1100.42 L2534.52 1100.54 L2551.60 1100.54 L2551.60 1101.53 L2568.55 1101.53 L2568.55 1104.75 L2585.63 1104.75 L2585.63 1105.74 L2602.71 1105.74 L2602.71 1108.96 L2619.66 1108.96 L2619.66 1108.34 L2636.74 1108.34 L2636.74 1109.08 L2653.82 1109.08 L2653.82 1108.22 L2670.77 1108.22 L2670.77 1110.20 L2687.85 1110.20 L2687.85 1113.78 L2704.93 1113.78 L2704.93 1116.26 L2721.88 1116.26 L2721.88 1116.38 L2738.96 1116.38 L2738.96 1115.89 L2756.04 1115.89 L2756.04 1113.29 L2772.99 1113.29 L2772.99 1113.29 L2790.07 1113.29 L2790.07 1113.66 L2807.14 1113.66 L2807.14 1115.64 L2824.10 1115.64 L2824.10 1114.77 L2841.18 1114.77 L2841.18 1112.79 L2858.25 1112.79 L2858.25 1113.54 L2875.21 1113.54 L2875.21 1113.91 L2892.28 1113.91 L2892.28 1114.53 L2909.36 1114.53 L2909.36 1114.90 L2926.32 1114.90 L2926.32 1114.77 L2943.39 1114.77 L2943.39 1114.53 L2960.47 1114.53 L2960.47 1114.40 L2977.43 1114.40 L2977.43 1114.65 L2994.50 1114.65 L2994.50 1114.90 L3011.58 1114.90 L3011.58 1116.63 L3028.66 1116.63 L3028.66 1117.37 L3045.61 1117.37 L3045.61 1117.99 L3062.69 1117.99 L3062.69 1120.10 L3079.77 1120.10 L3079.77 1121.33 L3096.72 1121.33 L3096.72 1122.20 L3113.80 1122.20 L3113.80 1123.93 L3130.88 1123.93 L3130.88 1122.45 L3147.83 1122.45 L3147.83 1122.94 L3164.91 1122.94 L3164.91 1123.56 L3181.98 1123.56 L3181.98 1124.18 L3198.94 1124.18 L3198.94 1125.29 L3216.01 1125.29 L3216.01 1125.67 L3233.09 1125.67 L3233.09 1126.41 L3250.05 1126.41 L3250.05 1125.79 L3267.12 1125.79 L3267.12 1125.54 L3284.20 1125.54 L3284.20 1125.29 L3301.16 1125.29 L3301.16 1124.18 L3318.23 1124.18 L3318.23 1122.08 L3335.31 1122.08 L3335.31 1123.44 L3352.26 1123.44 L3352.26 1123.56 L3369.34 1123.56 L3369.34 1123.93 L3386.42 1123.93 L3386.42 1123.81 L3403.37 1123.81 L3403.37 1122.82 L3420.45 1122.82 L3420.45 1124.18 L3437.53 1124.18 L3437.53 1122.82 L3454.48 1122.82 L3454.48 1124.80 L3471.56 1124.80 L3471.56 1124.80 L3488.64 1124.80 L3488.64 1125.79 L3505.59 1125.79 L3505.59 1126.66 L3522.67 1126.66 L3522.67 1128.39 L3539.74 1128.39 L3539.74 1127.77 L3556.70 1127.77 L3556.70 1128.51 L3573.78 1128.51 L3573.78 1127.77 L3590.85 1127.77 L3590.85 1128.64 L3607.93 1128.64 L3607.93 1127.52 L3624.89 1127.52 L3624.89 1128.76 L3641.96 1128.76 L3641.96 1129.01 L3659.04 1129.01 L3659.04 1130.62 L3675.99 1130.62 L3675.99 1132.10 L3693.07 1132.10 L3693.07 1131.11 L3710.15 1131.11 L3710.15 1131.73 L3727.10 1131.73 L3727.10 1130.00 L3744.18 1130.00 L3744.18 1130.74 L3761.26 1130.74 L3761.26 1132.97 L3778.21 1132.97 L3778.21 1134.70 L3795.29 1134.70 L3795.29 1134.45 L3795.29 982.48 L3795.29 982.98 L3778.21 982.98 L3778.21 981.24 L3761.26 981.24 L3761.26 978.52 L3744.18 978.52 L3744.18 977.90 L3727.10 977.90 L3727.10 980.01 L3710.15 980.01 L3710.15 979.39 L3693.07 979.39 L3693.07 980.63 L3675.99 980.63 L3675.99 979.02 L3659.04 979.02 L3659.04 977.16 L3641.96 977.16 L3641.96 977.04 L3624.89 977.04 L3624.89 975.80 L3607.93 975.80 L3607.93 977.04 L3590.85 977.04 L3590.85 976.29 L3573.78 976.29 L3573.78 977.28 L3556.70 977.28 L3556.70 976.79 L3539.74 976.79 L3539.74 977.66 L3522.67 977.66 L3522.67 975.92 L3505.59 975.92 L3505.59 975.30 L3488.64 975.30 L3488.64 973.94 L3471.56 973.94 L3471.56 974.31 L3454.48 974.31 L3454.48 972.09 L3437.53 972.09 L3437.53 973.57 L3420.45 973.57 L3420.45 972.09 L3403.37 972.09 L3403.37 973.57 L3386.42 973.57 L3386.42 973.57 L3369.34 973.57 L3369.34 973.32 L3352.26 973.32 L3352.26 973.08 L3335.31 973.08 L3335.31 971.84 L3318.23 971.84 L3318.23 973.94 L3301.16 973.94 L3301.16 975.18 L3284.20 975.18 L3284.20 975.30 L3267.12 975.30 L3267.12 975.68 L3250.05 975.68 L3250.05 976.42 L3233.09 976.42 L3233.09 975.55 L3216.01 975.55 L3216.01 975.18 L3198.94 975.18 L3198.94 974.19 L3181.98 974.19 L3181.98 973.57 L3164.91 973.57 L3164.91 972.71 L3147.83 972.71 L3147.83 972.46 L3130.88 972.46 L3130.88 974.31 L3113.80 974.31 L3113.80 972.58 L3096.72 972.58 L3096.72 971.84 L3079.77 971.84 L3079.77 970.73 L3062.69 970.73 L3062.69 968.75 L3045.61 968.75 L3045.61 968.13 L3028.66 968.13 L3028.66 967.38 L3011.58 967.38 L3011.58 965.40 L2994.50 965.40 L2994.50 964.91 L2977.43 964.91 L2977.43 964.41 L2960.47 964.41 L2960.47 964.79 L2943.39 964.79 L2943.39 965.40 L2926.32 965.40 L2926.32 965.53 L2909.36 965.53 L2909.36 965.16 L2892.28 965.16 L2892.28 964.41 L2875.21 964.41 L2875.21 964.17 L2858.25 964.17 L2858.25 963.42 L2841.18 963.42 L2841.18 965.90 L2824.10 965.90 L2824.10 966.89 L2807.14 966.89 L2807.14 964.91 L2790.07 964.91 L2790.07 964.41 L2772.99 964.41 L2772.99 964.54 L2756.04 964.54 L2756.04 967.63 L2738.96 967.63 L2738.96 968.37 L2721.88 968.37 L2721.88 967.88 L2704.93 967.88 L2704.93 965.40 L2687.85 965.40 L2687.85 961.57 L2670.77 961.57 L2670.77 959.59 L2653.82 959.59 L2653.82 960.70 L2636.74 960.70 L2636.74 959.96 L2619.66 959.96 L2619.66 960.70 L2602.71 960.70 L2602.71 956.99 L2585.63 956.99 L2585.63 956.25 L2568.55 956.25 L2568.55 952.66 L2551.60 952.66 L2551.60 951.79 L2534.52 951.79 L2534.52 951.42 L2517.45 951.42 L2517.45 947.21 L2500.49 947.21 L2500.49 946.59 L2483.41 946.59 L2483.41 944.37 L2466.34 944.37 L2466.34 943.50 L2449.26 943.50 L2449.26 944.37 L2432.31 944.37 L2432.31 941.77 L2415.23 941.77 L2415.23 940.03 L2398.15 940.03 L2398.15 937.06 L2381.20 937.06 L2381.20 933.23 L2364.12 933.23 L2364.12 930.38 L2347.04 930.38 L2347.04 928.77 L2330.09 928.77 L2330.09 926.55 L2313.01 926.55 L2313.01 924.57 L2295.93 924.57 L2295.93 926.30 L2278.98 926.30 L2278.98 924.57 L2261.90 924.57 L2261.90 922.34 L2244.82 922.34 L2244.82 921.47 L2227.87 921.47 L2227.87 920.85 L2210.79 920.85 L2210.79 921.22 L2193.72 921.22 L2193.72 921.22 L2176.76 921.22 L2176.76 918.50 L2159.68 918.50 L2159.68 915.16 L2142.61 915.16 L2142.61 916.27 L2125.65 916.27 L2125.65 916.15 L2108.58 916.15 L2108.58 917.39 L2091.50 917.39 L2091.50 919.12 L2074.55 919.12 L2074.55 917.88 L2057.47 917.88 L2057.47 917.76 L2040.39 917.76 L2040.39 914.17 L2023.44 914.17 L2023.44 914.42 L2006.36 914.42 L2006.36 913.80 L1989.28 913.80 L1989.28 915.28 L1972.33 915.28 L1972.33 913.80 L1955.25 913.80 L1955.25 913.30 L1938.17 913.30 L1938.17 913.30 L1921.22 913.30 L1921.22 912.56 L1904.14 912.56 L1904.14 909.59 L1887.06 909.59 L1887.06 907.61 L1869.99 907.61 L1869.99 905.51 L1853.03 905.51 L1853.03 900.19 L1835.95 900.19 L1835.95 900.19 L1818.88 900.19 L1818.88 897.96 L1801.92 897.96 L1801.92 897.83 L1784.85 897.83 L1784.85 898.70 L1767.77 898.70 L1767.77 900.43 L1750.82 900.43 L1750.82 896.72 L1733.74 896.72 L1733.74 894.86 L1716.66 894.86 L1716.66 896.35 L1699.71 896.35 L1699.71 895.36 L1682.63 895.36 L1682.63 895.98 L1665.55 895.98 L1665.55 897.34 L1648.60 897.34 L1648.60 895.73 L1631.52 895.73 L1631.52 896.72 L1614.44 896.72 L1614.44 894.12 L1597.49 894.12 L1597.49 890.78 L1580.41 890.78 L1580.41 888.43 L1563.33 888.43 L1563.33 893.87 L1546.38 893.87 L1546.38 898.21 L1529.30 898.21 L1529.30 898.33 L1512.22 898.33 L1512.22 898.21 L1495.27 898.21 L1495.27 895.61 L1478.19 895.61 L1478.19 900.31 L1461.12 900.31 L1461.12 894.25 L1444.16 894.25 L1444.16 887.56 L1427.09 887.56 L1427.09 891.28 L1410.01 891.28 L1410.01 890.78 L1393.05 890.78 L1393.05 888.43 L1375.98 888.43 L1375.98 886.70 L1358.90 886.70 L1358.90 882.61 L1341.94 882.61 L1341.94 881.50 L1324.87 881.50 L1324.87 880.63 L1307.79 880.63 L1307.79 879.27 L1290.71 879.27 L1290.71 885.46 L1273.76 885.46 L1273.76 873.70 L1256.68 873.70 L1256.68 869.37 L1239.60 869.37 L1239.60 866.77 L1222.65 866.77 L1222.65 875.56 L1205.57 875.56 L1205.57 885.46 L1188.49 885.46 L1188.49 882.98 L1171.54 882.98 L1171.54 892.88 L1154.46 892.88 L1154.46 882.98 L1137.39 882.98 L1137.39 878.65 L1120.43 878.65 L1120.43 881.13 L1103.36 881.13 L1103.36 879.64 L1086.28 879.64 L1086.28 894.25 L1069.32 894.25 L1069.32 890.16 L1052.25 890.16 L1052.25 885.46 L1035.17 885.46 L1035.17 881.99 L1018.22 881.99 L1018.22 875.43 L1001.14 875.43 L1001.14 877.91 L984.06 877.91 L984.06 880.26 L967.11 880.26 L967.11 878.65 L950.03 878.65 L950.03 881.50 L932.95 881.50 L932.95 885.09 L916.00 885.09 L916.00 885.21 L898.92 885.21 L898.92 866.52 L881.84 866.52 L881.84 863.68 L864.89 863.68 L864.89 863.80 L847.81 863.80 L847.81 880.01 L830.73 880.01 L830.73 895.48 L813.78 895.48 L813.78 863.80 L796.70 863.80 L796.70 837.32 L779.63 837.32 L779.63 853.04 L762.67 853.04 L762.67 907.86 L745.59 907.86 L745.59 1194.60 Z" stroke-linejoin="round"/>
	</defs>
	<defs>
		<clipPath id="clipPath_itNiJtNh">
			<use xlink:href="#path_VbfqsuIX"/>
		</clipPath>
	</defs>
	<use xlink:href="#path_VbfqsuIX" style="stroke:none;fill:#999999;fill-opacity:0.65"/>
	<use xlink:href="#path_VbfqsuIX" style="fill:none;stroke:#808080;stroke-opacity:0.65;stroke-width:17.28" clip-path="url(#clipPath_itNiJtNh)"/>
	<path d=" M745.47 1058.71 L762.55 1058.71 L762.55 1001.29 L779.63 1001.29 L779.63 980.25 L796.58 980.25 L796.58 997.70 L813.66 997.70 L813.66 1020.60 L830.73 1020.60 L830.73 1001.17 L847.69 1001.17 L847.69 981.37 L864.76 981.37 L864.76 978.52 L881.84 978.52 L881.84 977.28 L898.80 977.28 L898.80 993.12 L915.87 993.12 L915.87 991.27 L932.95 991.27 L932.95 986.07 L949.90 986.07 L949.90 981.99 L966.98 981.99 L966.98 980.75 L984.06 980.75 L984.06 977.16 L1001.01 977.16 L1001.01 973.08 L1018.09 973.08 L1018.09 977.41 L1035.17 977.41 L1035.17 980.01 L1052.25 980.01 L1052.25 983.22 L1069.20 983.22 L1069.20 986.81 L1086.28 986.81 L1086.28 972.33 L1103.36 972.33 L1103.36 972.83 L1120.31 972.83 L1120.31 969.49 L1137.39 969.49 L1137.39 973.08 L1154.46 973.08 L1154.46 982.11 L1171.42 982.11 L1171.42 971.96 L1188.49 971.96 L1188.49 974.07 L1205.57 974.07 L1205.57 963.92 L1222.53 963.92 L1222.53 954.88 L1239.60 954.88 L1239.60 956.62 L1256.68 956.62 L1256.68 960.21 L1273.63 960.21 L1273.63 970.85 L1290.71 970.85 L1290.71 964.29 L1307.79 964.29 L1307.79 965.16 L1324.74 965.16 L1324.74 965.90 L1341.82 965.90 L1341.82 967.14 L1358.90 967.14 L1358.90 970.73 L1375.85 970.73 L1375.85 971.84 L1392.93 971.84 L1392.93 973.70 L1410.01 973.70 L1410.01 973.82 L1426.96 973.82 L1426.96 969.86 L1444.04 969.86 L1444.04 976.05 L1461.12 976.05 L1461.12 981.49 L1478.07 981.49 L1478.07 977.16 L1495.15 977.16 L1495.15 979.64 L1512.22 979.64 L1512.22 979.64 L1529.18 979.64 L1529.18 979.26 L1546.26 979.26 L1546.26 974.93 L1563.33 974.93 L1563.33 969.24 L1580.29 969.24 L1580.29 971.47 L1597.37 971.47 L1597.37 974.31 L1614.44 974.31 L1614.44 976.54 L1631.52 976.54 L1631.52 975.43 L1648.47 975.43 L1648.47 976.79 L1665.55 976.79 L1665.55 975.30 L1682.63 975.30 L1682.63 974.69 L1699.58 974.69 L1699.58 975.43 L1716.66 975.43 L1716.66 974.19 L1733.74 974.19 L1733.74 976.05 L1750.69 976.05 L1750.69 979.51 L1767.77 979.51 L1767.77 978.03 L1784.85 978.03 L1784.85 977.04 L1801.80 977.04 L1801.80 977.28 L1818.88 977.28 L1818.88 979.26 L1835.95 979.26 L1835.95 979.26 L1852.91 979.26 L1852.91 984.09 L1869.99 984.09 L1869.99 986.07 L1887.06 986.07 L1887.06 987.93 L1904.02 987.93 L1904.02 990.90 L1921.10 990.90 L1921.10 991.52 L1938.17 991.52 L1938.17 991.64 L1955.13 991.64 L1955.13 992.01 L1972.20 992.01 L1972.20 993.37 L1989.28 993.37 L1989.28 992.13 L2006.23 992.13 L2006.23 992.51 L2023.31 992.51 L2023.31 992.26 L2040.39 992.26 L2040.39 995.72 L2057.34 995.72 L2057.34 995.85 L2074.42 995.85 L2074.42 996.96 L2091.50 996.96 L2091.50 995.35 L2108.45 995.35 L2108.45 994.11 L2125.53 994.11 L2125.53 994.24 L2142.61 994.24 L2142.61 993.00 L2159.56 993.00 L2159.56 996.34 L2176.64 996.34 L2176.64 999.06 L2193.72 999.06 L2193.72 999.06 L2210.79 999.06 L2210.79 998.57 L2227.75 998.57 L2227.75 999.31 L2244.82 999.31 L2244.82 1000.06 L2261.90 1000.06 L2261.90 1002.16 L2278.86 1002.16 L2278.86 1004.02 L2295.93 1004.02 L2295.93 1002.53 L2313.01 1002.53 L2313.01 1004.51 L2329.97 1004.51 L2329.97 1006.61 L2347.04 1006.61 L2347.04 1008.22 L2364.12 1008.22 L2364.12 1010.82 L2381.07 1010.82 L2381.07 1014.41 L2398.15 1014.41 L2398.15 1017.26 L2415.23 1017.26 L2415.23 1018.87 L2432.18 1018.87 L2432.18 1021.34 L2449.26 1021.34 L2449.26 1020.60 L2466.34 1020.60 L2466.34 1021.22 L2483.29 1021.22 L2483.29 1023.20 L2500.37 1023.20 L2500.37 1023.82 L2517.45 1023.82 L2517.45 1027.90 L2534.40 1027.90 L2534.40 1028.15 L2551.48 1028.15 L2551.48 1029.14 L2568.55 1029.14 L2568.55 1032.48 L2585.51 1032.48 L2585.51 1033.47 L2602.59 1033.47 L2602.59 1036.81 L2619.66 1036.81 L2619.66 1036.19 L2636.62 1036.19 L2636.62 1036.93 L2653.70 1036.93 L2653.70 1035.94 L2670.77 1035.94 L2670.77 1037.92 L2687.73 1037.92 L2687.73 1041.64 L2704.80 1041.64 L2704.80 1044.11 L2721.88 1044.11 L2721.88 1044.36 L2738.84 1044.36 L2738.84 1043.74 L2755.91 1043.74 L2755.91 1041.02 L2772.99 1041.02 L2772.99 1040.89 L2790.07 1040.89 L2790.07 1041.39 L2807.02 1041.39 L2807.02 1043.25 L2824.10 1043.25 L2824.10 1042.38 L2841.18 1042.38 L2841.18 1040.15 L2858.13 1040.15 L2858.13 1040.89 L2875.21 1040.89 L2875.21 1041.27 L2892.28 1041.27 L2892.28 1041.88 L2909.24 1041.88 L2909.24 1042.26 L2926.32 1042.26 L2926.32 1042.13 L2943.39 1042.13 L2943.39 1041.76 L2960.35 1041.76 L2960.35 1041.39 L2977.43 1041.39 L2977.43 1041.76 L2994.50 1041.76 L2994.50 1042.26 L3011.46 1042.26 L3011.46 1044.11 L3028.53 1044.11 L3028.53 1044.73 L3045.61 1044.73 L3045.61 1045.35 L3062.57 1045.35 L3062.57 1047.45 L3079.64 1047.45 L3079.64 1048.57 L3096.72 1048.57 L3096.72 1049.43 L3113.67 1049.43 L3113.67 1051.17 L3130.75 1051.17 L3130.75 1049.56 L3147.83 1049.56 L3147.83 1049.93 L3164.78 1049.93 L3164.78 1050.67 L3181.86 1050.67 L3181.86 1051.29 L3198.94 1051.29 L3198.94 1052.28 L3215.89 1052.28 L3215.89 1052.77 L3232.97 1052.77 L3232.97 1053.52 L3250.05 1053.52 L3250.05 1052.77 L3267.00 1052.77 L3267.00 1052.53 L3284.08 1052.53 L3284.08 1052.28 L3301.16 1052.28 L3301.16 1051.17 L3318.23 1051.17 L3318.23 1049.06 L3335.19 1049.06 L3335.19 1050.30 L3352.26 1050.30 L3352.26 1050.55 L3369.34 1050.55 L3369.34 1050.92 L3386.30 1050.92 L3386.30 1050.79 L3403.37 1050.79 L3403.37 1049.56 L3420.45 1049.56 L3420.45 1050.92 L3437.40 1050.92 L3437.40 1049.56 L3454.48 1049.56 L3454.48 1051.66 L3471.56 1051.66 L3471.56 1051.41 L3488.51 1051.41 L3488.51 1052.65 L3505.59 1052.65 L3505.59 1053.39 L3522.67 1053.39 L3522.67 1055.13 L3539.62 1055.13 L3539.62 1054.38 L3556.70 1054.38 L3556.70 1055.00 L3573.78 1055.00 L3573.78 1054.26 L3590.73 1054.26 L3590.73 1055.00 L3607.81 1055.00 L3607.81 1053.76 L3624.89 1053.76 L3624.89 1055.00 L3641.84 1055.00 L3641.84 1055.25 L3658.92 1055.25 L3658.92 1056.98 L3675.99 1056.98 L3675.99 1058.47 L3692.95 1058.47 L3692.95 1057.48 L3710.03 1057.48 L3710.03 1057.97 L3727.10 1057.97 L3727.10 1056.12 L3744.06 1056.12 L3744.06 1056.73 L3761.13 1056.73 L3761.13 1059.21 L3778.21 1059.21 L3778.21 1060.94 L3795.16 1060.94 L3795.16 1060.69" stroke-linejoin="round" style="fill:none;stroke:#000000;stroke-width:8.64"/>
	<line x1="524.08" y1="2509.23" x2="524.08" y2="419.90" style="stroke:#000000;stroke-width:5.76"/>
	<line x1="524.08" y1="2445.87" x2="484.11" y2="2445.87" style="stroke:#000000;stroke-width:5.76"/>
	<text x="464.06" y="2480.90" style="font-family:'Helvetica';font-size:99.99px;fill:#000000" text-anchor="end">0.00</text>
	<line x1="524.08" y1="1955.19" x2="484.11" y2="1955.19" style="stroke:#000000;stroke-width:5.76"/>
	<text x="464.06" y="1990.22" style="font-family:'Helvetica';font-size:99.99px;fill:#000000" text-anchor="end">0.50</text>
	<line x1="524.08" y1="1464.63" x2="484.11" y2="1464.63" style="stroke:#000000;stroke-width:5.76"/>
	<text x="464.06" y="1499.66" style="font-family:'Helvetica';font-size:99.99px;fill:#000000" text-anchor="end">1.00</text>
	<line x1="524.08" y1="973.94" x2="484.11" y2="973.94" style="stroke:#000000;stroke-width:5.76"/>
	<text x="464.06" y="1008.97" style="font-family:'Helvetica';font-size:99.99px;fill:#000000" text-anchor="end">1.50</text>
	<line x1="524.08" y1="483.26" x2="484.11" y2="483.26" style="stroke:#000000;stroke-width:5.76"/>
	<text x="464.06" y="518.29" style="font-family:'Helvetica';font-size:99.99px;fill:#000000" text-anchor="end">2.00</text>
	<text x="190.71" y="1464.63" style="font-family:'Helvetica';font-size:99.99px;fill:#000000" transform="rotate(-90 190.71,1464.63)" text-anchor="middle">Ratio in Probabilities</text>
	<line x1="524.08" y1="2509.23" x2="3859.02" y2="2509.23" style="stroke:#000000;stroke-width:5.76"/>
	<line x1="587.44" y1="2509.23" x2="587.44" y2="2549.21" style="stroke:#000000;stroke-width:5.76"/>
	<text x="587.44" y="2625.15" style="font-family:'Helvetica';font-size:79.94px;fill:#000000" text-anchor="middle">0</text>
	<line x1="780.00" y1="2509.23" x2="780.00" y2="2549.21" style="stroke:#000000;stroke-width:5.76"/>
	<text x="780.00" y="2625.15" style="font-family:'Helvetica';font-size:79.94px;fill:#000000" text-anchor="middle">.3</text>
	<line x1="972.43" y1="2509.23" x2="972.43" y2="2549.21" style="stroke:#000000;stroke-width:5.76"/>
	<text x="972.43" y="2625.15" style="font-family:'Helvetica';font-size:79.94px;fill:#000000" text-anchor="middle">.6</text>
	<line x1="1164.98" y1="2509.23" x2="1164.98" y2="2549.21" style="stroke:#000000;stroke-width:5.76"/>
	<text x="1164.98" y="2625.15" style="font-family:'Helvetica';font-size:79.94px;fill:#000000" text-anchor="middle">.9</text>
	<line x1="1357.41" y1="2509.23" x2="1357.41" y2="2549.21" style="stroke:#000000;stroke-width:5.76"/>
	<text x="1357.41" y="2625.15" style="font-family:'Helvetica';font-size:79.94px;fill:#000000" text-anchor="middle">1.2</text>
	<line x1="1549.97" y1="2509.23" x2="1549.97" y2="2549.21" style="stroke:#000000;stroke-width:5.76"/>
	<text x="1549.97" y="2625.15" style="font-family:'Helvetica';font-size:79.94px;fill:#000000" text-anchor="middle">1.5</text>
	<line x1="1742.40" y1="2509.23" x2="1742.40" y2="2549.21" style="stroke:#000000;stroke-width:5.76"/>
	<text x="1742.40" y="2625.15" style="font-family:'Helvetica';font-size:79.94px;fill:#000000" text-anchor="middle">1.8</text>
	<line x1="1934.95" y1="2509.23" x2="1934.95" y2="2549.21" style="stroke:#000000;stroke-width:5.76"/>
	<text x="1934.95" y="2625.15" style="font-family:'Helvetica';font-size:79.94px;fill:#000000" text-anchor="middle">2.1</text>
	<line x1="2127.39" y1="2509.23" x2="2127.39" y2="2549.21" style="stroke:#000000;stroke-width:5.76"/>
	<text x="2127.39" y="2625.15" style="font-family:'Helvetica';font-size:79.94px;fill:#000000" text-anchor="middle">2.4</text>
	<line x1="2319.94" y1="2509.23" x2="2319.94" y2="2549.21" style="stroke:#000000;stroke-width:5.76"/>
	<text x="2319.94" y="2625.15" style="font-family:'Helvetica';font-size:79.94px;fill:#000000" text-anchor="middle">2.7</text>
	<line x1="2512.37" y1="2509.23" x2="2512.37" y2="2549.21" style="stroke:#000000;stroke-width:5.76"/>
	<text x="2512.37" y="2625.15" style="font-family:'Helvetica';font-size:79.94px;fill:#000000" text-anchor="middle">3</text>
	<line x1="2704.93" y1="2509.23" x2="2704.93" y2="2549.21" style="stroke:#000000;stroke-width:5.76"/>
	<text x="2704.93" y="2625.15" style="font-family:'Helvetica';font-size:79.94px;fill:#000000" text-anchor="middle">3.3</text>
	<line x1="2897.36" y1="2509.23" x2="2897.36" y2="2549.21" style="stroke:#000000;stroke-width:5.76"/>
	<text x="2897.36" y="2625.15" style="font-family:'Helvetica';font-size:79.94px;fill:#000000" text-anchor="middle">3.6</text>
	<line x1="3089.91" y1="2509.23" x2="3089.91" y2="2549.21" style="stroke:#000000;stroke-width:5.76"/>
	<text x="3089.91" y="2625.15" style="font-family:'Helvetica';font-size:79.94px;fill:#000000" text-anchor="middle">3.9</text>
	<line x1="3282.34" y1="2509.23" x2="3282.34" y2="2549.21" style="stroke:#000000;stroke-width:5.76"/>
	<text x="3282.34" y="2625.15" style="font-family:'Helvetica';font-size:79.94px;fill:#000000" text-anchor="middle">4.2</text>
	<line x1="3474.90" y1="2509.23" x2="3474.90" y2="2549.21" style="stroke:#000000;stroke-width:5.76"/>
	<text x="3474.90" y="2625.15" style="font-family:'Helvetica';font-size:79.94px;fill:#000000" text-anchor="middle">4.5</text>
	<line x1="3667.33" y1="2509.23" x2="3667.33" y2="2549.21" style="stroke:#000000;stroke-width:5.76"/>
	<text x="3667.33" y="2625.15" style="font-family:'Helvetica';font-size:79.94px;fill:#000000" text-anchor="middle">4.8</text>
	<line x1="3859.89" y1="2509.23" x2="3859.89" y2="2549.21" style="stroke:#000000;stroke-width:5.76"/>
	<text x="3859.89" y="2625.15" style="font-family:'Helvetica';font-size:79.94px;fill:#000000" text-anchor="middle">5.1</text>
	<text x="2191.61" y="2729.16" style="font-family:'Helvetica';font-size:99.99px;fill:#000000" text-anchor="middle">Time (years)</text>
	<rect x="558.61" y="454.42" width="993.34" height="326.46" style="fill:#FFFFFF"/>
	<rect x="561.49" y="457.30" width="987.58" height="320.70" style="fill:none;stroke:#000000;stroke-width:5.76"/>
	<rect x="601.92" y="497.74" width="374.34" height="99.99" style="fill:#999999;fill-opacity:0.65"/>
	<rect x="606.24" y="502.06" width="365.70" height="91.35" style="fill:none;stroke:#808080;stroke-opacity:0.65;stroke-width:8.64"/>
	<line x1="601.92" y1="687.70" x2="976.26" y2="687.70" style="stroke:#000000;stroke-width:8.64"/>
	<text x="1036.28" y="582.76" style="font-family:'Helvetica';font-size:99.99px;fill:#000000">CI95%</text>
	<text x="1036.28" y="722.73" style="font-family:'Helvetica';font-size:99.99px;fill:#000000">Difference</text>
	<text x="2191.61" y="369.63" style="font-family:'Helvetica';font-size:110.01px;fill:#000000" text-anchor="middle">from Admission to Readmission</text>
	<text x="2191.61" y="215.98" style="font-family:'Helvetica';font-size:139.96px;fill:#1E2D53" text-anchor="middle">Ratio in Probabilities (RP)</text>
</svg>
