<?xml version="1.0" encoding="UTF-8" standalone="no"?>
<!-- This is a Stata 16.1 generated SVG file (http://www.stata.com) -->

<svg version="1.1" width="5.50in" height="4.00in" viewBox="0 0 3960 2880" xmlns="http://www.w3.org/2000/svg" xmlns:xlink="http://www.w3.org/1999/xlink">
	<desc>Stata Graph - ratio_models34_tc</desc>
	<rect x="0" y="0" width="3960" height="2880" style="fill:#EAF2F3;stroke:none"/>
	<rect x="0.00" y="0.00" width="3959.88" height="2880.00" style="fill:#FFFFFF"/>
	<rect x="2.88" y="2.88" width="3954.12" height="2874.24" style="fill:none;stroke:#FFFFFF;stroke-width:5.76"/>
	<rect x="524.08" y="419.90" width="3334.94" height="2089.34" style="fill:#FFFFFF"/>
	<rect x="526.96" y="422.78" width="3329.18" height="2083.58" style="fill:none;stroke:#FFFFFF;stroke-width:5.76"/>
	<line x1="524.08" y1="1955.19" x2="3859.02" y2="1955.19" style="stroke:#EAF2F3;stroke-width:8.64"/>
	<line x1="524.08" y1="1464.63" x2="3859.02" y2="1464.63" style="stroke:#EAF2F3;stroke-width:8.64"/>
	<line x1="524.08" y1="973.94" x2="3859.02" y2="973.94" style="stroke:#EAF2F3;stroke-width:8.64"/>
	<line x1="524.08" y1="1464.63" x2="3859.02" y2="1464.63" style="stroke:#1A476F;stroke-width:8.64"/>
	<defs>
		<path id="path_GopWkIer" d="M745.59 1587.51 L745.59 1587.51 L762.67 1587.51 L762.67 1582.94 L779.63 1582.94 L779.63 1576.50 L796.70 1576.50 L796.70 1571.06 L813.78 1571.06 L813.78 1572.29 L830.73 1572.29 L830.73 1574.03 L847.81 1574.03 L847.81 1560.91 L864.89 1560.91 L864.89 1554.35 L881.84 1554.35 L881.84 1553.61 L898.92 1553.61 L898.92 1550.39 L916.00 1550.39 L916.00 1548.90 L932.95 1548.90 L932.95 1546.68 L950.03 1546.68 L950.03 1544.08 L967.11 1544.08 L967.11 1542.72 L984.06 1542.72 L984.06 1541.11 L1001.14 1541.11 L1001.14 1541.35 L1018.22 1541.35 L1018.22 1544.20 L1035.17 1544.20 L1035.17 1542.34 L1052.25 1542.34 L1052.25 1540.61 L1069.32 1540.61 L1069.32 1540.86 L1086.28 1540.86 L1086.28 1539.00 L1103.36 1539.00 L1103.36 1541.73 L1120.43 1541.73 L1120.43 1545.44 L1137.39 1545.44 L1137.39 1542.10 L1154.46 1542.10 L1154.46 1543.46 L1171.54 1543.46 L1171.54 1539.99 L1188.49 1539.99 L1188.49 1542.59 L1205.57 1542.59 L1205.57 1544.57 L1222.65 1544.57 L1222.65 1547.42 L1239.60 1547.42 L1239.60 1547.67 L1256.68 1547.67 L1256.68 1548.78 L1273.76 1548.78 L1273.76 1548.41 L1290.71 1548.41 L1290.71 1548.41 L1307.79 1548.41 L1307.79 1552.49 L1324.87 1552.49 L1324.87 1548.90 L1341.94 1548.90 L1341.94 1550.26 L1358.90 1550.26 L1358.90 1550.39 L1375.98 1550.39 L1375.98 1551.75 L1393.05 1551.75 L1393.05 1552.00 L1410.01 1552.00 L1410.01 1550.39 L1427.09 1550.39 L1427.09 1551.63 L1444.16 1551.63 L1444.16 1551.38 L1461.12 1551.38 L1461.12 1551.01 L1478.19 1551.01 L1478.19 1551.01 L1495.27 1551.01 L1495.27 1550.64 L1512.22 1550.64 L1512.22 1549.27 L1529.30 1549.27 L1529.30 1548.90 L1546.38 1548.90 L1546.38 1546.68 L1563.33 1546.68 L1563.33 1546.55 L1580.41 1546.55 L1580.41 1547.54 L1597.49 1547.54 L1597.49 1546.92 L1614.44 1546.92 L1614.44 1545.44 L1631.52 1545.44 L1631.52 1545.81 L1648.60 1545.81 L1648.60 1547.79 L1665.55 1547.79 L1665.55 1548.90 L1682.63 1548.90 L1682.63 1548.66 L1699.71 1548.66 L1699.71 1550.39 L1716.66 1550.39 L1716.66 1550.88 L1733.74 1550.88 L1733.74 1549.65 L1750.82 1549.65 L1750.82 1552.49 L1767.77 1552.49 L1767.77 1551.63 L1784.85 1551.63 L1784.85 1550.88 L1801.92 1550.88 L1801.92 1551.50 L1818.88 1551.50 L1818.88 1551.25 L1835.95 1551.25 L1835.95 1552.62 L1853.03 1552.62 L1853.03 1553.73 L1869.99 1553.73 L1869.99 1555.34 L1887.06 1555.34 L1887.06 1555.46 L1904.14 1555.46 L1904.14 1554.72 L1921.22 1554.72 L1921.22 1554.60 L1938.17 1554.60 L1938.17 1553.48 L1955.25 1553.48 L1955.25 1553.85 L1972.33 1553.85 L1972.33 1552.86 L1989.28 1552.86 L1989.28 1553.48 L2006.36 1553.48 L2006.36 1553.98 L2023.44 1553.98 L2023.44 1551.63 L2040.39 1551.63 L2040.39 1552.62 L2057.47 1552.62 L2057.47 1554.10 L2074.55 1554.10 L2074.55 1554.35 L2091.50 1554.35 L2091.50 1556.20 L2108.58 1556.20 L2108.58 1556.70 L2125.65 1556.70 L2125.65 1557.44 L2142.61 1557.44 L2142.61 1557.57 L2159.68 1557.57 L2159.68 1557.69 L2176.76 1557.69 L2176.76 1558.56 L2193.72 1558.56 L2193.72 1558.68 L2210.79 1558.68 L2210.79 1558.56 L2227.87 1558.56 L2227.87 1560.29 L2244.82 1560.29 L2244.82 1561.40 L2261.90 1561.40 L2261.90 1561.16 L2278.98 1561.16 L2278.98 1561.90 L2295.93 1561.90 L2295.93 1561.65 L2313.01 1561.65 L2313.01 1563.88 L2330.09 1563.88 L2330.09 1563.88 L2347.04 1563.88 L2347.04 1563.88 L2364.12 1563.88 L2364.12 1562.76 L2381.20 1562.76 L2381.20 1563.01 L2398.15 1563.01 L2398.15 1562.76 L2415.23 1562.76 L2415.23 1563.01 L2432.31 1563.01 L2432.31 1562.89 L2449.26 1562.89 L2449.26 1563.88 L2466.34 1563.88 L2466.34 1564.87 L2483.41 1564.87 L2483.41 1564.87 L2500.49 1564.87 L2500.49 1565.73 L2517.45 1565.73 L2517.45 1565.36 L2534.52 1565.36 L2534.52 1566.48 L2551.60 1566.48 L2551.60 1567.71 L2568.55 1567.71 L2568.55 1568.58 L2585.63 1568.58 L2585.63 1569.32 L2602.71 1569.32 L2602.71 1569.32 L2619.66 1569.32 L2619.66 1570.07 L2636.74 1570.07 L2636.74 1569.82 L2653.82 1569.82 L2653.82 1571.92 L2670.77 1571.92 L2670.77 1571.55 L2687.85 1571.55 L2687.85 1572.54 L2704.93 1572.54 L2704.93 1572.79 L2721.88 1572.79 L2721.88 1571.67 L2738.96 1571.67 L2738.96 1572.05 L2756.04 1572.05 L2756.04 1573.78 L2772.99 1573.78 L2772.99 1572.91 L2790.07 1572.91 L2790.07 1573.90 L2807.14 1573.90 L2807.14 1574.15 L2824.10 1574.15 L2824.10 1574.64 L2841.18 1574.64 L2841.18 1574.89 L2858.25 1574.89 L2858.25 1574.77 L2875.21 1574.77 L2875.21 1575.39 L2892.28 1575.39 L2892.28 1575.26 L2909.36 1575.26 L2909.36 1575.26 L2926.32 1575.26 L2926.32 1575.39 L2943.39 1575.39 L2943.39 1574.64 L2960.47 1574.64 L2960.47 1575.88 L2977.43 1575.88 L2977.43 1577.24 L2994.50 1577.24 L2994.50 1578.36 L3011.58 1578.36 L3011.58 1579.10 L3028.66 1579.10 L3028.66 1579.84 L3045.61 1579.84 L3045.61 1579.59 L3062.69 1579.59 L3062.69 1581.33 L3079.77 1581.33 L3079.77 1580.71 L3096.72 1580.71 L3096.72 1580.21 L3113.80 1580.21 L3113.80 1580.21 L3130.88 1580.21 L3130.88 1580.71 L3147.83 1580.71 L3147.83 1580.58 L3164.91 1580.58 L3164.91 1581.33 L3181.98 1581.33 L3181.98 1580.34 L3198.94 1580.34 L3198.94 1581.20 L3216.01 1581.20 L3216.01 1580.83 L3233.09 1580.83 L3233.09 1581.70 L3250.05 1581.70 L3250.05 1582.81 L3267.12 1582.81 L3267.12 1584.42 L3284.20 1584.42 L3284.20 1586.15 L3301.16 1586.15 L3301.16 1585.91 L3318.23 1585.91 L3318.23 1587.51 L3335.31 1587.51 L3335.31 1588.38 L3352.26 1588.38 L3352.26 1588.63 L3369.34 1588.63 L3369.34 1590.36 L3386.42 1590.36 L3386.42 1590.36 L3403.37 1590.36 L3403.37 1589.62 L3420.45 1589.62 L3420.45 1590.36 L3437.53 1590.36 L3437.53 1591.85 L3454.48 1591.85 L3454.48 1592.59 L3471.56 1592.59 L3471.56 1593.33 L3488.64 1593.33 L3488.64 1592.22 L3505.59 1592.22 L3505.59 1592.96 L3522.67 1592.96 L3522.67 1592.96 L3539.74 1592.96 L3539.74 1593.21 L3556.70 1593.21 L3556.70 1592.96 L3573.78 1592.96 L3573.78 1592.34 L3590.85 1592.34 L3590.85 1592.46 L3607.93 1592.46 L3607.93 1592.09 L3624.89 1592.09 L3624.89 1591.35 L3641.96 1591.35 L3641.96 1591.72 L3659.04 1591.72 L3659.04 1592.34 L3675.99 1592.34 L3675.99 1592.09 L3693.07 1592.09 L3693.07 1593.21 L3710.15 1593.21 L3710.15 1593.33 L3727.10 1593.33 L3727.10 1594.57 L3744.18 1594.57 L3744.18 1594.69 L3761.26 1594.69 L3761.26 1594.44 L3778.21 1594.44 L3778.21 1594.20 L3795.29 1594.20 L3795.29 1594.69 L3795.29 1288.28 L3795.29 1287.91 L3778.21 1287.91 L3778.21 1288.90 L3761.26 1288.90 L3761.26 1289.89 L3744.18 1289.89 L3744.18 1290.26 L3727.10 1290.26 L3727.10 1288.90 L3710.15 1288.90 L3710.15 1289.02 L3693.07 1289.02 L3693.07 1288.03 L3675.99 1288.03 L3675.99 1289.02 L3659.04 1289.02 L3659.04 1288.53 L3641.96 1288.53 L3641.96 1288.28 L3624.89 1288.28 L3624.89 1290.01 L3607.93 1290.01 L3607.93 1290.88 L3590.85 1290.88 L3590.85 1291.37 L3573.78 1291.37 L3573.78 1292.73 L3556.70 1292.73 L3556.70 1293.60 L3539.74 1293.60 L3539.74 1293.72 L3522.67 1293.72 L3522.67 1294.34 L3505.59 1294.34 L3505.59 1293.85 L3488.64 1293.85 L3488.64 1295.95 L3471.56 1295.95 L3471.56 1295.58 L3454.48 1295.58 L3454.48 1295.21 L3437.53 1295.21 L3437.53 1293.72 L3420.45 1293.72 L3420.45 1292.98 L3403.37 1292.98 L3403.37 1294.34 L3386.42 1294.34 L3386.42 1294.71 L3369.34 1294.71 L3369.34 1292.73 L3352.26 1292.73 L3352.26 1292.73 L3335.31 1292.73 L3335.31 1291.87 L3318.23 1291.87 L3318.23 1290.26 L3301.16 1290.26 L3301.16 1291.00 L3284.20 1291.00 L3284.20 1289.14 L3267.12 1289.14 L3267.12 1287.41 L3250.05 1287.41 L3250.05 1286.30 L3233.09 1286.30 L3233.09 1285.56 L3216.01 1285.56 L3216.01 1286.55 L3198.94 1286.55 L3198.94 1286.05 L3181.98 1286.05 L3181.98 1287.54 L3164.91 1287.54 L3164.91 1286.92 L3147.83 1286.92 L3147.83 1287.41 L3130.88 1287.41 L3130.88 1287.16 L3113.80 1287.16 L3113.80 1287.91 L3096.72 1287.91 L3096.72 1288.90 L3079.77 1288.90 L3079.77 1290.01 L3062.69 1290.01 L3062.69 1288.03 L3045.61 1288.03 L3045.61 1288.65 L3028.66 1288.65 L3028.66 1288.03 L3011.58 1288.03 L3011.58 1287.41 L2994.50 1287.41 L2994.50 1286.05 L2977.43 1286.05 L2977.43 1284.69 L2960.47 1284.69 L2960.47 1283.58 L2943.39 1283.58 L2943.39 1284.94 L2926.32 1284.94 L2926.32 1285.06 L2909.36 1285.06 L2909.36 1285.56 L2892.28 1285.56 L2892.28 1285.80 L2875.21 1285.80 L2875.21 1285.43 L2858.25 1285.43 L2858.25 1285.93 L2841.18 1285.93 L2841.18 1285.68 L2824.10 1285.68 L2824.10 1285.43 L2807.14 1285.43 L2807.14 1285.31 L2790.07 1285.31 L2790.07 1284.07 L2772.99 1284.07 L2772.99 1285.18 L2756.04 1285.18 L2756.04 1283.45 L2738.96 1283.45 L2738.96 1283.08 L2721.88 1283.08 L2721.88 1284.57 L2704.93 1284.57 L2704.93 1284.19 L2687.85 1284.19 L2687.85 1283.33 L2670.77 1283.33 L2670.77 1283.95 L2653.82 1283.95 L2653.82 1281.35 L2636.74 1281.35 L2636.74 1281.72 L2619.66 1281.72 L2619.66 1280.98 L2602.71 1280.98 L2602.71 1280.85 L2585.63 1280.85 L2585.63 1279.99 L2568.55 1279.99 L2568.55 1278.75 L2551.60 1278.75 L2551.60 1277.26 L2534.52 1277.26 L2534.52 1276.15 L2517.45 1276.15 L2517.45 1276.52 L2500.49 1276.52 L2500.49 1275.41 L2483.41 1275.41 L2483.41 1275.28 L2466.34 1275.28 L2466.34 1274.05 L2449.26 1274.05 L2449.26 1272.68 L2432.31 1272.68 L2432.31 1273.06 L2415.23 1273.06 L2415.23 1272.93 L2398.15 1272.93 L2398.15 1273.06 L2381.20 1273.06 L2381.20 1272.68 L2364.12 1272.68 L2364.12 1274.17 L2347.04 1274.17 L2347.04 1274.17 L2330.09 1274.17 L2330.09 1274.05 L2313.01 1274.05 L2313.01 1271.20 L2295.93 1271.20 L2295.93 1271.57 L2278.98 1271.57 L2278.98 1270.21 L2261.90 1270.21 L2261.90 1270.46 L2244.82 1270.46 L2244.82 1268.85 L2227.87 1268.85 L2227.87 1266.00 L2210.79 1266.00 L2210.79 1265.63 L2193.72 1265.63 L2193.72 1265.26 L2176.76 1265.26 L2176.76 1263.65 L2159.68 1263.65 L2159.68 1263.40 L2142.61 1263.40 L2142.61 1263.03 L2125.65 1263.03 L2125.65 1261.55 L2108.58 1261.55 L2108.58 1260.43 L2091.50 1260.43 L2091.50 1257.71 L2074.55 1257.71 L2074.55 1257.09 L2057.47 1257.09 L2057.47 1254.99 L2040.39 1254.99 L2040.39 1253.38 L2023.44 1253.38 L2023.44 1256.10 L2006.36 1256.10 L2006.36 1254.99 L1989.28 1254.99 L1989.28 1253.63 L1972.33 1253.63 L1972.33 1254.49 L1955.25 1254.49 L1955.25 1253.38 L1938.17 1253.38 L1938.17 1254.25 L1921.22 1254.25 L1921.22 1253.63 L1904.14 1253.63 L1904.14 1254.00 L1887.06 1254.00 L1887.06 1253.26 L1869.99 1253.26 L1869.99 1250.04 L1853.03 1250.04 L1853.03 1248.06 L1835.95 1248.06 L1835.95 1245.58 L1818.88 1245.58 L1818.88 1244.84 L1801.92 1244.84 L1801.92 1243.23 L1784.85 1243.23 L1784.85 1243.36 L1767.77 1243.36 L1767.77 1243.60 L1750.82 1243.60 L1750.82 1238.28 L1733.74 1238.28 L1733.74 1239.02 L1716.66 1239.02 L1716.66 1237.04 L1699.71 1237.04 L1699.71 1233.70 L1682.63 1233.70 L1682.63 1232.84 L1665.55 1232.84 L1665.55 1229.99 L1648.60 1229.99 L1648.60 1226.15 L1631.52 1226.15 L1631.52 1224.17 L1614.44 1224.17 L1614.44 1224.42 L1597.49 1224.42 L1597.49 1223.93 L1580.41 1223.93 L1580.41 1221.33 L1563.33 1221.33 L1563.33 1219.84 L1546.38 1219.84 L1546.38 1221.45 L1529.30 1221.45 L1529.30 1219.59 L1512.22 1219.59 L1512.22 1219.84 L1495.27 1219.84 L1495.27 1218.23 L1478.19 1218.23 L1478.19 1216.87 L1461.12 1216.87 L1461.12 1215.39 L1444.16 1215.39 L1444.16 1213.53 L1427.09 1213.53 L1427.09 1210.19 L1410.01 1210.19 L1410.01 1210.07 L1393.05 1210.07 L1393.05 1207.34 L1375.98 1207.34 L1375.98 1203.14 L1358.90 1203.14 L1358.90 1200.54 L1341.94 1200.54 L1341.94 1196.33 L1324.87 1196.33 L1324.87 1198.43 L1307.79 1198.43 L1307.79 1190.39 L1290.71 1190.39 L1290.71 1187.29 L1273.76 1187.29 L1273.76 1185.07 L1256.68 1185.07 L1256.68 1180.49 L1239.60 1180.49 L1239.60 1176.65 L1222.65 1176.65 L1222.65 1168.98 L1205.57 1168.98 L1205.57 1162.30 L1188.49 1162.30 L1188.49 1154.87 L1171.54 1154.87 L1171.54 1156.11 L1154.46 1156.11 L1154.46 1150.79 L1137.39 1150.79 L1137.39 1151.41 L1120.43 1151.41 L1120.43 1141.63 L1103.36 1141.63 L1103.36 1132.97 L1086.28 1132.97 L1086.28 1130.62 L1069.32 1130.62 L1069.32 1125.05 L1052.25 1125.05 L1052.25 1122.08 L1035.17 1122.08 L1035.17 1118.49 L1018.22 1118.49 L1018.22 1108.34 L1001.14 1108.34 L1001.14 1102.77 L984.06 1102.77 L984.06 1098.44 L967.11 1098.44 L967.11 1091.88 L950.03 1091.88 L950.03 1088.91 L932.95 1088.91 L932.95 1085.57 L916.00 1085.57 L916.00 1079.63 L898.92 1079.63 L898.92 1073.69 L881.84 1073.69 L881.84 1065.89 L864.89 1065.89 L864.89 1064.65 L847.81 1064.65 L847.81 1072.45 L830.73 1072.45 L830.73 1058.84 L813.78 1058.84 L813.78 1041.76 L796.70 1041.76 L796.70 1033.34 L779.63 1033.34 L779.63 1028.27 L762.67 1028.27 L762.67 1018.12 L745.59 1018.12 L745.59 1587.51 Z" stroke-linejoin="round"/>
	</defs>
	<defs>
		<clipPath id="clipPath_vGZambSA">
			<use xlink:href="#path_GopWkIer"/>
		</clipPath>
	</defs>
	<use xlink:href="#path_GopWkIer" style="stroke:none;fill:#999999;fill-opacity:0.65"/>
	<use xlink:href="#path_GopWkIer" style="fill:none;stroke:#808080;stroke-opacity:0.65;stroke-width:17.28" clip-path="url(#clipPath_vGZambSA)"/>
	<path d=" M745.47 1338.89 L762.55 1338.89 L762.55 1339.88 L779.63 1339.88 L779.63 1337.78 L796.58 1337.78 L796.58 1337.66 L813.66 1337.66 L813.66 1345.20 L830.73 1345.20 L830.73 1351.64 L847.69 1351.64 L847.69 1340.25 L864.76 1340.25 L864.76 1336.79 L881.84 1336.79 L881.84 1339.39 L898.80 1339.39 L898.80 1339.88 L915.87 1339.88 L915.87 1341.37 L932.95 1341.37 L932.95 1341.37 L949.90 1341.37 L949.90 1341.00 L966.98 1341.00 L966.98 1342.85 L984.06 1342.85 L984.06 1343.60 L1001.01 1343.60 L1001.01 1345.95 L1018.09 1345.95 L1018.09 1352.01 L1035.17 1352.01 L1035.17 1352.26 L1052.25 1352.26 L1052.25 1352.51 L1069.20 1352.51 L1069.20 1354.86 L1086.28 1354.86 L1086.28 1354.73 L1103.36 1354.73 L1103.36 1359.93 L1120.31 1359.93 L1120.31 1366.37 L1137.39 1366.37 L1137.39 1364.02 L1154.46 1364.02 L1154.46 1367.11 L1171.42 1367.11 L1171.42 1364.51 L1188.49 1364.51 L1188.49 1369.09 L1205.57 1369.09 L1205.57 1373.17 L1222.53 1373.17 L1222.53 1378.00 L1239.60 1378.00 L1239.60 1379.86 L1256.68 1379.86 L1256.68 1382.45 L1273.63 1382.45 L1273.63 1383.07 L1290.71 1383.07 L1290.71 1384.43 L1307.79 1384.43 L1307.79 1390.25 L1324.74 1390.25 L1324.74 1387.28 L1341.82 1387.28 L1341.82 1389.76 L1358.90 1389.76 L1358.90 1390.99 L1375.85 1390.99 L1375.85 1393.59 L1392.93 1393.59 L1392.93 1394.95 L1410.01 1394.95 L1410.01 1394.09 L1426.96 1394.09 L1426.96 1396.19 L1444.04 1396.19 L1444.04 1396.81 L1461.12 1396.81 L1461.12 1397.18 L1478.07 1397.18 L1478.07 1397.80 L1495.15 1397.80 L1495.15 1398.29 L1512.22 1398.29 L1512.22 1397.43 L1529.18 1397.43 L1529.18 1397.92 L1546.26 1397.92 L1546.26 1395.94 L1563.33 1395.94 L1563.33 1396.56 L1580.29 1396.56 L1580.29 1398.17 L1597.37 1398.17 L1597.37 1398.05 L1614.44 1398.05 L1614.44 1397.18 L1631.52 1397.18 L1631.52 1398.17 L1648.47 1398.17 L1648.47 1401.02 L1665.55 1401.02 L1665.55 1402.87 L1682.63 1402.87 L1682.63 1403.12 L1699.58 1403.12 L1699.58 1405.47 L1716.66 1405.47 L1716.66 1406.59 L1733.74 1406.59 L1733.74 1405.60 L1750.69 1405.60 L1750.69 1409.56 L1767.77 1409.56 L1767.77 1408.94 L1784.85 1408.94 L1784.85 1408.44 L1801.80 1408.44 L1801.80 1409.56 L1818.88 1409.56 L1818.88 1409.80 L1835.95 1409.80 L1835.95 1411.54 L1852.91 1411.54 L1852.91 1413.02 L1869.99 1413.02 L1869.99 1415.37 L1887.06 1415.37 L1887.06 1415.74 L1904.02 1415.74 L1904.02 1415.13 L1921.10 1415.13 L1921.10 1415.37 L1938.17 1415.37 L1938.17 1414.38 L1955.13 1414.38 L1955.13 1415.13 L1972.20 1415.13 L1972.20 1414.14 L1989.28 1414.14 L1989.28 1415.00 L2006.23 1415.00 L2006.23 1415.74 L2023.31 1415.74 L2023.31 1413.27 L2040.39 1413.27 L2040.39 1414.51 L2057.34 1414.51 L2057.34 1416.24 L2074.42 1416.24 L2074.42 1416.73 L2091.50 1416.73 L2091.50 1418.96 L2108.45 1418.96 L2108.45 1419.83 L2125.53 1419.83 L2125.53 1420.82 L2142.61 1420.82 L2142.61 1421.07 L2159.56 1421.07 L2159.56 1421.19 L2176.64 1421.19 L2176.64 1422.43 L2193.72 1422.43 L2193.72 1422.67 L2210.79 1422.67 L2210.79 1422.67 L2227.75 1422.67 L2227.75 1425.03 L2244.82 1425.03 L2244.82 1426.39 L2261.90 1426.39 L2261.90 1426.02 L2278.86 1426.02 L2278.86 1427.13 L2295.93 1427.13 L2295.93 1426.76 L2313.01 1426.76 L2313.01 1429.36 L2329.97 1429.36 L2329.97 1429.36 L2347.04 1429.36 L2347.04 1429.36 L2364.12 1429.36 L2364.12 1428.00 L2381.07 1428.00 L2381.07 1428.37 L2398.15 1428.37 L2398.15 1428.24 L2415.23 1428.24 L2415.23 1428.37 L2432.18 1428.37 L2432.18 1428.12 L2449.26 1428.12 L2449.26 1429.23 L2466.34 1429.23 L2466.34 1430.47 L2483.29 1430.47 L2483.29 1430.47 L2500.37 1430.47 L2500.37 1431.46 L2517.45 1431.46 L2517.45 1431.09 L2534.40 1431.09 L2534.40 1432.20 L2551.48 1432.20 L2551.48 1433.56 L2568.55 1433.56 L2568.55 1434.55 L2585.51 1434.55 L2585.51 1435.42 L2602.59 1435.42 L2602.59 1435.42 L2619.66 1435.42 L2619.66 1436.16 L2636.62 1436.16 L2636.62 1435.92 L2653.70 1435.92 L2653.70 1438.14 L2670.77 1438.14 L2670.77 1437.77 L2687.73 1437.77 L2687.73 1438.64 L2704.80 1438.64 L2704.80 1439.01 L2721.88 1439.01 L2721.88 1437.65 L2738.84 1437.65 L2738.84 1438.14 L2755.91 1438.14 L2755.91 1439.88 L2772.99 1439.88 L2772.99 1438.89 L2790.07 1438.89 L2790.07 1440.00 L2807.02 1440.00 L2807.02 1440.12 L2824.10 1440.12 L2824.10 1440.50 L2841.18 1440.50 L2841.18 1440.74 L2858.13 1440.74 L2858.13 1440.50 L2875.21 1440.50 L2875.21 1440.99 L2892.28 1440.99 L2892.28 1440.87 L2909.24 1440.87 L2909.24 1440.62 L2926.32 1440.62 L2926.32 1440.62 L2943.39 1440.62 L2943.39 1439.63 L2960.35 1439.63 L2960.35 1440.87 L2977.43 1440.87 L2977.43 1442.23 L2994.50 1442.23 L2994.50 1443.47 L3011.46 1443.47 L3011.46 1444.08 L3028.53 1444.08 L3028.53 1444.95 L3045.61 1444.95 L3045.61 1444.46 L3062.57 1444.46 L3062.57 1446.19 L3079.64 1446.19 L3079.64 1445.45 L3096.72 1445.45 L3096.72 1444.70 L3113.67 1444.70 L3113.67 1444.33 L3130.75 1444.33 L3130.75 1444.83 L3147.83 1444.83 L3147.83 1444.58 L3164.78 1444.58 L3164.78 1445.20 L3181.86 1445.20 L3181.86 1443.96 L3198.94 1443.96 L3198.94 1444.70 L3215.89 1444.70 L3215.89 1444.08 L3232.97 1444.08 L3232.97 1444.95 L3250.05 1444.95 L3250.05 1446.06 L3267.00 1446.06 L3267.00 1447.67 L3284.08 1447.67 L3284.08 1449.53 L3301.16 1449.53 L3301.16 1449.03 L3318.23 1449.03 L3318.23 1450.64 L3335.19 1450.64 L3335.19 1451.63 L3352.26 1451.63 L3352.26 1451.76 L3369.34 1451.76 L3369.34 1453.49 L3386.30 1453.49 L3386.30 1453.37 L3403.37 1453.37 L3403.37 1452.38 L3420.45 1452.38 L3420.45 1453.12 L3437.40 1453.12 L3437.40 1454.60 L3454.48 1454.60 L3454.48 1455.22 L3471.56 1455.22 L3471.56 1455.72 L3488.51 1455.72 L3488.51 1454.23 L3505.59 1454.23 L3505.59 1454.85 L3522.67 1454.85 L3522.67 1454.73 L3539.62 1454.73 L3539.62 1454.73 L3556.70 1454.73 L3556.70 1454.11 L3573.78 1454.11 L3573.78 1453.24 L3590.73 1453.24 L3590.73 1453.12 L3607.81 1453.12 L3607.81 1452.50 L3624.89 1452.50 L3624.89 1451.39 L3641.84 1451.39 L3641.84 1451.63 L3658.92 1451.63 L3658.92 1452.25 L3675.99 1452.25 L3675.99 1451.76 L3692.95 1451.76 L3692.95 1452.75 L3710.03 1452.75 L3710.03 1452.75 L3727.10 1452.75 L3727.10 1454.11 L3744.06 1454.11 L3744.06 1453.98 L3761.13 1453.98 L3761.13 1453.49 L3778.21 1453.49 L3778.21 1452.87 L3795.16 1452.87 L3795.16 1453.37" stroke-linejoin="round" style="fill:none;stroke:#000000;stroke-width:8.64"/>
	<line x1="524.08" y1="2509.23" x2="524.08" y2="419.90" style="stroke:#000000;stroke-width:5.76"/>
	<line x1="524.08" y1="2445.87" x2="484.11" y2="2445.87" style="stroke:#000000;stroke-width:5.76"/>
	<text x="464.06" y="2480.90" style="font-family:'Helvetica';font-size:99.99px;fill:#000000" text-anchor="end">0.00</text>
	<line x1="524.08" y1="1955.19" x2="484.11" y2="1955.19" style="stroke:#000000;stroke-width:5.76"/>
	<text x="464.06" y="1990.22" style="font-family:'Helvetica';font-size:99.99px;fill:#000000" text-anchor="end">0.50</text>
	<line x1="524.08" y1="1464.63" x2="484.11" y2="1464.63" style="stroke:#000000;stroke-width:5.76"/>
	<text x="464.06" y="1499.66" style="font-family:'Helvetica';font-size:99.99px;fill:#000000" text-anchor="end">1.00</text>
	<line x1="524.08" y1="973.94" x2="484.11" y2="973.94" style="stroke:#000000;stroke-width:5.76"/>
	<text x="464.06" y="1008.97" style="font-family:'Helvetica';font-size:99.99px;fill:#000000" text-anchor="end">1.50</text>
	<line x1="524.08" y1="483.26" x2="484.11" y2="483.26" style="stroke:#000000;stroke-width:5.76"/>
	<text x="464.06" y="518.29" style="font-family:'Helvetica';font-size:99.99px;fill:#000000" text-anchor="end">2.00</text>
	<text x="190.71" y="1464.63" style="font-family:'Helvetica';font-size:99.99px;fill:#000000" transform="rotate(-90 190.71,1464.63)" text-anchor="middle">Ratio in Probabilities</text>
	<line x1="524.08" y1="2509.23" x2="3859.02" y2="2509.23" style="stroke:#000000;stroke-width:5.76"/>
	<line x1="587.44" y1="2509.23" x2="587.44" y2="2549.21" style="stroke:#000000;stroke-width:5.76"/>
	<text x="587.44" y="2625.15" style="font-family:'Helvetica';font-size:79.94px;fill:#000000" text-anchor="middle">0</text>
	<line x1="780.00" y1="2509.23" x2="780.00" y2="2549.21" style="stroke:#000000;stroke-width:5.76"/>
	<text x="780.00" y="2625.15" style="font-family:'Helvetica';font-size:79.94px;fill:#000000" text-anchor="middle">.3</text>
	<line x1="972.43" y1="2509.23" x2="972.43" y2="2549.21" style="stroke:#000000;stroke-width:5.76"/>
	<text x="972.43" y="2625.15" style="font-family:'Helvetica';font-size:79.94px;fill:#000000" text-anchor="middle">.6</text>
	<line x1="1164.98" y1="2509.23" x2="1164.98" y2="2549.21" style="stroke:#000000;stroke-width:5.76"/>
	<text x="1164.98" y="2625.15" style="font-family:'Helvetica';font-size:79.94px;fill:#000000" text-anchor="middle">.9</text>
	<line x1="1357.41" y1="2509.23" x2="1357.41" y2="2549.21" style="stroke:#000000;stroke-width:5.76"/>
	<text x="1357.41" y="2625.15" style="font-family:'Helvetica';font-size:79.94px;fill:#000000" text-anchor="middle">1.2</text>
	<line x1="1549.97" y1="2509.23" x2="1549.97" y2="2549.21" style="stroke:#000000;stroke-width:5.76"/>
	<text x="1549.97" y="2625.15" style="font-family:'Helvetica';font-size:79.94px;fill:#000000" text-anchor="middle">1.5</text>
	<line x1="1742.40" y1="2509.23" x2="1742.40" y2="2549.21" style="stroke:#000000;stroke-width:5.76"/>
	<text x="1742.40" y="2625.15" style="font-family:'Helvetica';font-size:79.94px;fill:#000000" text-anchor="middle">1.8</text>
	<line x1="1934.95" y1="2509.23" x2="1934.95" y2="2549.21" style="stroke:#000000;stroke-width:5.76"/>
	<text x="1934.95" y="2625.15" style="font-family:'Helvetica';font-size:79.94px;fill:#000000" text-anchor="middle">2.1</text>
	<line x1="2127.39" y1="2509.23" x2="2127.39" y2="2549.21" style="stroke:#000000;stroke-width:5.76"/>
	<text x="2127.39" y="2625.15" style="font-family:'Helvetica';font-size:79.94px;fill:#000000" text-anchor="middle">2.4</text>
	<line x1="2319.94" y1="2509.23" x2="2319.94" y2="2549.21" style="stroke:#000000;stroke-width:5.76"/>
	<text x="2319.94" y="2625.15" style="font-family:'Helvetica';font-size:79.94px;fill:#000000" text-anchor="middle">2.7</text>
	<line x1="2512.37" y1="2509.23" x2="2512.37" y2="2549.21" style="stroke:#000000;stroke-width:5.76"/>
	<text x="2512.37" y="2625.15" style="font-family:'Helvetica';font-size:79.94px;fill:#000000" text-anchor="middle">3</text>
	<line x1="2704.93" y1="2509.23" x2="2704.93" y2="2549.21" style="stroke:#000000;stroke-width:5.76"/>
	<text x="2704.93" y="2625.15" style="font-family:'Helvetica';font-size:79.94px;fill:#000000" text-anchor="middle">3.3</text>
	<line x1="2897.36" y1="2509.23" x2="2897.36" y2="2549.21" style="stroke:#000000;stroke-width:5.76"/>
	<text x="2897.36" y="2625.15" style="font-family:'Helvetica';font-size:79.94px;fill:#000000" text-anchor="middle">3.6</text>
	<line x1="3089.91" y1="2509.23" x2="3089.91" y2="2549.21" style="stroke:#000000;stroke-width:5.76"/>
	<text x="3089.91" y="2625.15" style="font-family:'Helvetica';font-size:79.94px;fill:#000000" text-anchor="middle">3.9</text>
	<line x1="3282.34" y1="2509.23" x2="3282.34" y2="2549.21" style="stroke:#000000;stroke-width:5.76"/>
	<text x="3282.34" y="2625.15" style="font-family:'Helvetica';font-size:79.94px;fill:#000000" text-anchor="middle">4.2</text>
	<line x1="3474.90" y1="2509.23" x2="3474.90" y2="2549.21" style="stroke:#000000;stroke-width:5.76"/>
	<text x="3474.90" y="2625.15" style="font-family:'Helvetica';font-size:79.94px;fill:#000000" text-anchor="middle">4.5</text>
	<line x1="3667.33" y1="2509.23" x2="3667.33" y2="2549.21" style="stroke:#000000;stroke-width:5.76"/>
	<text x="3667.33" y="2625.15" style="font-family:'Helvetica';font-size:79.94px;fill:#000000" text-anchor="middle">4.8</text>
	<line x1="3859.89" y1="2509.23" x2="3859.89" y2="2549.21" style="stroke:#000000;stroke-width:5.76"/>
	<text x="3859.89" y="2625.15" style="font-family:'Helvetica';font-size:79.94px;fill:#000000" text-anchor="middle">5.1</text>
	<text x="2191.61" y="2729.16" style="font-family:'Helvetica';font-size:99.99px;fill:#000000" text-anchor="middle">Time (years)</text>
	<rect x="558.61" y="454.42" width="993.34" height="326.46" style="fill:#FFFFFF"/>
	<rect x="561.49" y="457.30" width="987.58" height="320.70" style="fill:none;stroke:#000000;stroke-width:5.76"/>
	<rect x="601.92" y="497.74" width="374.34" height="99.99" style="fill:#999999;fill-opacity:0.65"/>
	<rect x="606.24" y="502.06" width="365.70" height="91.35" style="fill:none;stroke:#808080;stroke-opacity:0.65;stroke-width:8.64"/>
	<line x1="601.92" y1="687.70" x2="976.26" y2="687.70" style="stroke:#000000;stroke-width:8.64"/>
	<text x="1036.28" y="582.76" style="font-family:'Helvetica';font-size:99.99px;fill:#000000">CI95%</text>
	<text x="1036.28" y="722.73" style="font-family:'Helvetica';font-size:99.99px;fill:#000000">Difference</text>
	<text x="2191.61" y="369.63" style="font-family:'Helvetica';font-size:110.01px;fill:#000000" text-anchor="middle">from 2nd Readmission to 3rd Readmission</text>
	<text x="2191.61" y="215.98" style="font-family:'Helvetica';font-size:139.96px;fill:#1E2D53" text-anchor="middle">Ratio in Probabilities</text>
</svg>
