<?xml version="1.0" encoding="UTF-8" standalone="no"?>
<!-- This is a Stata 16.1 generated SVG file (http://www.stata.com) -->

<svg version="1.1" width="5.50in" height="4.00in" viewBox="0 0 3960 2880" xmlns="http://www.w3.org/2000/svg" xmlns:xlink="http://www.w3.org/1999/xlink">
	<desc>Stata Graph - ratio_models12</desc>
	<rect x="0" y="0" width="3960" height="2880" style="fill:#EAF2F3;stroke:none"/>
	<rect x="0.00" y="0.00" width="3959.88" height="2880.00" style="fill:#FFFFFF"/>
	<rect x="2.88" y="2.88" width="3954.12" height="2874.24" style="fill:none;stroke:#FFFFFF;stroke-width:5.76"/>
	<rect x="524.08" y="419.90" width="3334.94" height="2089.34" style="fill:#FFFFFF"/>
	<rect x="526.96" y="422.78" width="3329.18" height="2083.58" style="fill:none;stroke:#FFFFFF;stroke-width:5.76"/>
	<line x1="524.08" y1="1955.19" x2="3859.02" y2="1955.19" style="stroke:#EAF2F3;stroke-width:8.64"/>
	<line x1="524.08" y1="1464.63" x2="3859.02" y2="1464.63" style="stroke:#EAF2F3;stroke-width:8.64"/>
	<line x1="524.08" y1="973.94" x2="3859.02" y2="973.94" style="stroke:#EAF2F3;stroke-width:8.64"/>
	<line x1="524.08" y1="1464.63" x2="3859.02" y2="1464.63" style="stroke:#1A476F;stroke-width:8.64"/>
	<defs>
		<path id="path_WsuWSYlV" d="M745.59 1500.14 L745.59 1500.14 L762.67 1500.14 L762.67 1504.97 L779.63 1504.97 L779.63 1502.25 L796.70 1502.25 L796.70 1497.42 L813.78 1497.42 L813.78 1486.90 L830.73 1486.90 L830.73 1482.57 L847.81 1482.57 L847.81 1482.08 L864.89 1482.08 L864.89 1485.67 L881.84 1485.67 L881.84 1484.55 L898.92 1484.55 L898.92 1481.58 L916.00 1481.58 L916.00 1481.33 L932.95 1481.33 L932.95 1475.89 L950.03 1475.89 L950.03 1485.17 L967.11 1485.17 L967.11 1488.88 L984.06 1488.88 L984.06 1490.74 L1001.14 1490.74 L1001.14 1492.22 L1018.22 1492.22 L1018.22 1493.34 L1035.17 1493.34 L1035.17 1499.53 L1052.25 1499.53 L1052.25 1503.98 L1069.32 1503.98 L1069.32 1507.45 L1086.28 1507.45 L1086.28 1509.92 L1103.36 1509.92 L1103.36 1508.31 L1120.43 1508.31 L1120.43 1506.83 L1137.39 1506.83 L1137.39 1508.19 L1154.46 1508.19 L1154.46 1503.98 L1171.54 1503.98 L1171.54 1503.49 L1188.49 1503.49 L1188.49 1505.22 L1205.57 1505.22 L1205.57 1508.44 L1222.65 1508.44 L1222.65 1508.19 L1239.60 1508.19 L1239.60 1510.54 L1256.68 1510.54 L1256.68 1511.78 L1273.76 1511.78 L1273.76 1511.28 L1290.71 1511.28 L1290.71 1512.40 L1307.79 1512.40 L1307.79 1514.50 L1324.87 1514.50 L1324.87 1514.87 L1341.94 1514.87 L1341.94 1514.13 L1358.90 1514.13 L1358.90 1517.22 L1375.98 1517.22 L1375.98 1517.35 L1393.05 1517.35 L1393.05 1519.20 L1410.01 1519.20 L1410.01 1520.69 L1427.09 1520.69 L1427.09 1522.17 L1444.16 1522.17 L1444.16 1522.17 L1461.12 1522.17 L1461.12 1522.67 L1478.19 1522.67 L1478.19 1524.40 L1495.27 1524.40 L1495.27 1526.38 L1512.22 1526.38 L1512.22 1526.50 L1529.30 1526.50 L1529.30 1528.61 L1546.38 1528.61 L1546.38 1530.96 L1563.33 1530.96 L1563.33 1530.22 L1580.41 1530.22 L1580.41 1530.46 L1597.49 1530.46 L1597.49 1530.59 L1614.44 1530.59 L1614.44 1532.07 L1631.52 1532.07 L1631.52 1533.06 L1648.60 1533.06 L1648.60 1535.17 L1665.55 1535.17 L1665.55 1537.15 L1682.63 1537.15 L1682.63 1537.15 L1699.71 1537.15 L1699.71 1535.79 L1716.66 1535.79 L1716.66 1537.39 L1733.74 1537.39 L1733.74 1537.77 L1750.82 1537.77 L1750.82 1537.27 L1767.77 1537.27 L1767.77 1538.14 L1784.85 1538.14 L1784.85 1538.01 L1801.92 1538.01 L1801.92 1538.14 L1818.88 1538.14 L1818.88 1539.13 L1835.95 1539.13 L1835.95 1539.37 L1853.03 1539.37 L1853.03 1539.99 L1869.99 1539.99 L1869.99 1540.74 L1887.06 1540.74 L1887.06 1542.22 L1904.14 1542.22 L1904.14 1542.47 L1921.22 1542.47 L1921.22 1541.85 L1938.17 1541.85 L1938.17 1541.35 L1955.25 1541.35 L1955.25 1541.60 L1972.33 1541.60 L1972.33 1543.09 L1989.28 1543.09 L1989.28 1543.95 L2006.36 1543.95 L2006.36 1542.47 L2023.44 1542.47 L2023.44 1543.95 L2040.39 1543.95 L2040.39 1544.82 L2057.47 1544.82 L2057.47 1544.20 L2074.55 1544.20 L2074.55 1543.58 L2091.50 1543.58 L2091.50 1544.82 L2108.58 1544.82 L2108.58 1544.94 L2125.65 1544.94 L2125.65 1544.32 L2142.61 1544.32 L2142.61 1545.31 L2159.68 1545.31 L2159.68 1544.57 L2176.76 1544.57 L2176.76 1544.70 L2193.72 1544.70 L2193.72 1545.44 L2210.79 1545.44 L2210.79 1545.81 L2227.87 1545.81 L2227.87 1545.07 L2244.82 1545.07 L2244.82 1544.45 L2261.90 1544.45 L2261.90 1546.06 L2278.98 1546.06 L2278.98 1544.70 L2295.93 1544.70 L2295.93 1546.06 L2313.01 1546.06 L2313.01 1546.18 L2330.09 1546.18 L2330.09 1547.54 L2347.04 1547.54 L2347.04 1548.16 L2364.12 1548.16 L2364.12 1548.53 L2381.20 1548.53 L2381.20 1547.54 L2398.15 1547.54 L2398.15 1548.28 L2415.23 1548.28 L2415.23 1548.53 L2432.31 1548.53 L2432.31 1549.40 L2449.26 1549.40 L2449.26 1549.40 L2466.34 1549.40 L2466.34 1550.26 L2483.41 1550.26 L2483.41 1549.89 L2500.49 1549.89 L2500.49 1550.51 L2517.45 1550.51 L2517.45 1551.63 L2534.52 1551.63 L2534.52 1551.87 L2551.60 1551.87 L2551.60 1552.12 L2568.55 1552.12 L2568.55 1552.49 L2585.63 1552.49 L2585.63 1552.74 L2602.71 1552.74 L2602.71 1553.73 L2619.66 1553.73 L2619.66 1553.61 L2636.74 1553.61 L2636.74 1553.85 L2653.82 1553.85 L2653.82 1554.47 L2670.77 1554.47 L2670.77 1554.47 L2687.85 1554.47 L2687.85 1555.34 L2704.93 1555.34 L2704.93 1555.71 L2721.88 1555.71 L2721.88 1555.46 L2738.96 1555.46 L2738.96 1555.46 L2756.04 1555.46 L2756.04 1556.20 L2772.99 1556.20 L2772.99 1555.71 L2790.07 1555.71 L2790.07 1555.83 L2807.14 1555.83 L2807.14 1556.20 L2824.10 1556.20 L2824.10 1554.72 L2841.18 1554.72 L2841.18 1554.97 L2858.25 1554.97 L2858.25 1556.08 L2875.21 1556.08 L2875.21 1556.70 L2892.28 1556.70 L2892.28 1557.44 L2909.36 1557.44 L2909.36 1558.06 L2926.32 1558.06 L2926.32 1558.68 L2943.39 1558.68 L2943.39 1559.17 L2960.47 1559.17 L2960.47 1559.17 L2977.43 1559.17 L2977.43 1559.79 L2994.50 1559.79 L2994.50 1560.41 L3011.58 1560.41 L3011.58 1560.91 L3028.66 1560.91 L3028.66 1560.91 L3045.61 1560.91 L3045.61 1561.28 L3062.69 1561.28 L3062.69 1561.28 L3079.77 1561.28 L3079.77 1561.90 L3096.72 1561.90 L3096.72 1562.27 L3113.80 1562.27 L3113.80 1561.77 L3130.88 1561.77 L3130.88 1562.15 L3147.83 1562.15 L3147.83 1562.02 L3164.91 1562.02 L3164.91 1561.65 L3181.98 1561.65 L3181.98 1562.15 L3198.94 1562.15 L3198.94 1562.76 L3216.01 1562.76 L3216.01 1563.26 L3233.09 1563.26 L3233.09 1563.75 L3250.05 1563.75 L3250.05 1563.88 L3267.12 1563.88 L3267.12 1563.75 L3284.20 1563.75 L3284.20 1564.13 L3301.16 1564.13 L3301.16 1564.13 L3318.23 1564.13 L3318.23 1564.99 L3335.31 1564.99 L3335.31 1565.36 L3352.26 1565.36 L3352.26 1565.98 L3369.34 1565.98 L3369.34 1566.35 L3386.42 1566.35 L3386.42 1566.85 L3403.37 1566.85 L3403.37 1565.86 L3420.45 1565.86 L3420.45 1565.98 L3437.53 1565.98 L3437.53 1566.72 L3454.48 1566.72 L3454.48 1567.59 L3471.56 1567.59 L3471.56 1567.84 L3488.64 1567.84 L3488.64 1567.96 L3505.59 1567.96 L3505.59 1568.46 L3522.67 1568.46 L3522.67 1570.31 L3539.74 1570.31 L3539.74 1569.94 L3556.70 1569.94 L3556.70 1570.44 L3573.78 1570.44 L3573.78 1570.81 L3590.85 1570.81 L3590.85 1571.06 L3607.93 1571.06 L3607.93 1572.17 L3624.89 1572.17 L3624.89 1572.54 L3641.96 1572.54 L3641.96 1572.66 L3659.04 1572.66 L3659.04 1573.78 L3675.99 1573.78 L3675.99 1574.77 L3693.07 1574.77 L3693.07 1574.40 L3710.15 1574.40 L3710.15 1575.02 L3727.10 1575.02 L3727.10 1574.27 L3744.18 1574.27 L3744.18 1574.52 L3761.26 1574.52 L3761.26 1574.77 L3778.21 1574.77 L3778.21 1574.64 L3795.29 1574.64 L3795.29 1574.40 L3795.29 1421.19 L3795.29 1422.06 L3778.21 1422.06 L3778.21 1422.43 L3761.26 1422.43 L3761.26 1422.30 L3744.18 1422.30 L3744.18 1422.30 L3727.10 1422.30 L3727.10 1423.42 L3710.15 1423.42 L3710.15 1422.80 L3693.07 1422.80 L3693.07 1423.42 L3675.99 1423.42 L3675.99 1422.30 L3659.04 1422.30 L3659.04 1421.19 L3641.96 1421.19 L3641.96 1421.07 L3624.89 1421.07 L3624.89 1420.94 L3607.93 1420.94 L3607.93 1420.20 L3590.85 1420.20 L3590.85 1419.83 L3573.78 1419.83 L3573.78 1419.70 L3556.70 1419.70 L3556.70 1419.21 L3539.74 1419.21 L3539.74 1419.83 L3522.67 1419.83 L3522.67 1418.22 L3505.59 1418.22 L3505.59 1417.85 L3488.64 1417.85 L3488.64 1417.72 L3471.56 1417.72 L3471.56 1418.10 L3454.48 1418.10 L3454.48 1417.48 L3437.53 1417.48 L3437.53 1416.98 L3420.45 1416.98 L3420.45 1416.98 L3403.37 1416.98 L3403.37 1418.22 L3386.42 1418.22 L3386.42 1417.85 L3369.34 1417.85 L3369.34 1417.85 L3352.26 1417.85 L3352.26 1417.48 L3335.31 1417.48 L3335.31 1417.11 L3318.23 1417.11 L3318.23 1416.36 L3301.16 1416.36 L3301.16 1416.73 L3284.20 1416.73 L3284.20 1416.49 L3267.12 1416.49 L3267.12 1416.86 L3250.05 1416.86 L3250.05 1417.23 L3233.09 1417.23 L3233.09 1417.11 L3216.01 1417.11 L3216.01 1416.73 L3198.94 1416.73 L3198.94 1416.24 L3181.98 1416.24 L3181.98 1415.74 L3164.91 1415.74 L3164.91 1416.24 L3147.83 1416.24 L3147.83 1416.86 L3130.88 1416.86 L3130.88 1416.49 L3113.80 1416.49 L3113.80 1417.48 L3096.72 1417.48 L3096.72 1417.11 L3079.77 1417.11 L3079.77 1416.61 L3062.69 1416.61 L3062.69 1417.23 L3045.61 1417.23 L3045.61 1416.86 L3028.66 1416.86 L3028.66 1417.23 L3011.58 1417.23 L3011.58 1416.98 L2994.50 1416.98 L2994.50 1416.61 L2977.43 1416.61 L2977.43 1416.49 L2960.47 1416.49 L2960.47 1416.98 L2943.39 1416.98 L2943.39 1416.36 L2926.32 1416.36 L2926.32 1415.87 L2909.36 1415.87 L2909.36 1415.37 L2892.28 1415.37 L2892.28 1414.88 L2875.21 1414.88 L2875.21 1414.51 L2858.25 1414.51 L2858.25 1413.64 L2841.18 1413.64 L2841.18 1413.64 L2824.10 1413.64 L2824.10 1415.50 L2807.14 1415.50 L2807.14 1415.13 L2790.07 1415.13 L2790.07 1415.25 L2772.99 1415.25 L2772.99 1416.24 L2756.04 1416.24 L2756.04 1415.62 L2738.96 1415.62 L2738.96 1416.12 L2721.88 1416.12 L2721.88 1416.61 L2704.93 1416.61 L2704.93 1416.24 L2687.85 1416.24 L2687.85 1415.50 L2670.77 1415.50 L2670.77 1415.50 L2653.82 1415.50 L2653.82 1414.75 L2636.74 1414.75 L2636.74 1414.63 L2619.66 1414.63 L2619.66 1415.13 L2602.71 1415.13 L2602.71 1414.26 L2585.63 1414.26 L2585.63 1414.14 L2568.55 1414.14 L2568.55 1413.76 L2551.60 1413.76 L2551.60 1413.76 L2534.52 1413.76 L2534.52 1414.01 L2517.45 1414.01 L2517.45 1413.02 L2500.49 1413.02 L2500.49 1412.40 L2483.41 1412.40 L2483.41 1413.02 L2466.34 1413.02 L2466.34 1412.40 L2449.26 1412.40 L2449.26 1412.77 L2432.31 1412.77 L2432.31 1411.91 L2415.23 1411.91 L2415.23 1412.03 L2398.15 1412.03 L2398.15 1411.29 L2381.20 1411.29 L2381.20 1412.65 L2364.12 1412.65 L2364.12 1412.53 L2347.04 1412.53 L2347.04 1412.28 L2330.09 1412.28 L2330.09 1410.92 L2313.01 1410.92 L2313.01 1410.92 L2295.93 1410.92 L2295.93 1409.93 L2278.98 1409.93 L2278.98 1411.54 L2261.90 1411.54 L2261.90 1410.05 L2244.82 1410.05 L2244.82 1411.04 L2227.87 1411.04 L2227.87 1411.78 L2210.79 1411.78 L2210.79 1411.78 L2193.72 1411.78 L2193.72 1410.79 L2176.76 1410.79 L2176.76 1411.04 L2159.68 1411.04 L2159.68 1411.78 L2142.61 1411.78 L2142.61 1410.79 L2125.65 1410.79 L2125.65 1411.78 L2108.58 1411.78 L2108.58 1411.91 L2091.50 1411.91 L2091.50 1410.92 L2074.55 1410.92 L2074.55 1411.66 L2057.47 1411.66 L2057.47 1412.40 L2040.39 1412.40 L2040.39 1411.91 L2023.44 1411.91 L2023.44 1410.30 L2006.36 1410.30 L2006.36 1411.91 L1989.28 1411.91 L1989.28 1410.92 L1972.33 1410.92 L1972.33 1409.43 L1955.25 1409.43 L1955.25 1409.19 L1938.17 1409.19 L1938.17 1409.93 L1921.22 1409.93 L1921.22 1410.42 L1904.14 1410.42 L1904.14 1410.18 L1887.06 1410.18 L1887.06 1408.81 L1869.99 1408.81 L1869.99 1407.95 L1853.03 1407.95 L1853.03 1407.21 L1835.95 1407.21 L1835.95 1406.59 L1818.88 1406.59 L1818.88 1405.72 L1801.92 1405.72 L1801.92 1405.72 L1784.85 1405.72 L1784.85 1405.60 L1767.77 1405.60 L1767.77 1404.98 L1750.82 1404.98 L1750.82 1405.23 L1733.74 1405.23 L1733.74 1404.61 L1716.66 1404.61 L1716.66 1403.12 L1699.71 1403.12 L1699.71 1404.48 L1682.63 1404.48 L1682.63 1404.24 L1665.55 1404.24 L1665.55 1402.01 L1648.60 1402.01 L1648.60 1399.41 L1631.52 1399.41 L1631.52 1397.80 L1614.44 1397.80 L1614.44 1395.94 L1597.49 1395.94 L1597.49 1395.45 L1580.41 1395.45 L1580.41 1394.46 L1563.33 1394.46 L1563.33 1395.70 L1546.38 1395.70 L1546.38 1392.23 L1529.30 1392.23 L1529.30 1389.63 L1512.22 1389.63 L1512.22 1389.51 L1495.27 1389.51 L1495.27 1386.66 L1478.19 1386.66 L1478.19 1384.68 L1461.12 1384.68 L1461.12 1382.95 L1444.16 1382.95 L1444.16 1382.58 L1427.09 1382.58 L1427.09 1381.34 L1410.01 1381.34 L1410.01 1378.87 L1393.05 1378.87 L1393.05 1376.02 L1375.98 1376.02 L1375.98 1375.40 L1358.90 1375.40 L1358.90 1371.44 L1341.94 1371.44 L1341.94 1371.56 L1324.87 1371.56 L1324.87 1370.57 L1307.79 1370.57 L1307.79 1367.60 L1290.71 1367.60 L1290.71 1365.50 L1273.76 1365.50 L1273.76 1366.00 L1256.68 1366.00 L1256.68 1363.40 L1239.60 1363.40 L1239.60 1359.93 L1222.65 1359.93 L1222.65 1358.94 L1205.57 1358.94 L1205.57 1353.87 L1188.49 1353.87 L1188.49 1350.65 L1171.54 1350.65 L1171.54 1349.41 L1154.46 1349.41 L1154.46 1353.62 L1137.39 1353.62 L1137.39 1349.29 L1120.43 1349.29 L1120.43 1349.29 L1103.36 1349.29 L1103.36 1348.55 L1086.28 1348.55 L1086.28 1343.35 L1069.32 1343.35 L1069.32 1335.92 L1052.25 1335.92 L1052.25 1328.13 L1035.17 1328.13 L1035.17 1318.84 L1018.22 1318.84 L1018.22 1314.51 L1001.14 1314.51 L1001.14 1310.18 L984.06 1310.18 L984.06 1304.37 L967.11 1304.37 L967.11 1296.82 L950.03 1296.82 L950.03 1282.71 L932.95 1282.71 L932.95 1283.58 L916.00 1283.58 L916.00 1281.10 L898.92 1281.10 L898.92 1278.75 L881.84 1278.75 L881.84 1274.17 L864.89 1274.17 L864.89 1265.01 L847.81 1265.01 L847.81 1259.44 L830.73 1259.44 L830.73 1258.45 L813.78 1258.45 L813.78 1263.03 L796.70 1263.03 L796.70 1259.94 L779.63 1259.94 L779.63 1258.08 L762.67 1258.08 L762.67 1231.97 L745.59 1231.97 L745.59 1500.14 Z" stroke-linejoin="round"/>
	</defs>
	<defs>
		<clipPath id="clipPath_QCzpLfNK">
			<use xlink:href="#path_WsuWSYlV"/>
		</clipPath>
	</defs>
	<use xlink:href="#path_WsuWSYlV" style="stroke:none;fill:#999999;fill-opacity:0.65"/>
	<use xlink:href="#path_WsuWSYlV" style="fill:none;stroke:#808080;stroke-opacity:0.65;stroke-width:17.28" clip-path="url(#clipPath_QCzpLfNK)"/>
	<path d=" M745.47 1374.53 L762.55 1374.53 L762.55 1388.77 L779.63 1388.77 L779.63 1388.15 L796.58 1388.15 L796.58 1386.66 L813.66 1386.66 L813.66 1378.87 L830.73 1378.87 L830.73 1376.89 L847.69 1376.89 L847.69 1379.11 L864.76 1379.11 L864.76 1385.30 L881.84 1385.30 L881.84 1386.66 L898.80 1386.66 L898.80 1386.17 L915.87 1386.17 L915.87 1387.16 L932.95 1387.16 L932.95 1383.69 L949.90 1383.69 L949.90 1395.32 L966.98 1395.32 L966.98 1400.77 L984.06 1400.77 L984.06 1404.48 L1001.01 1404.48 L1001.01 1407.21 L1018.09 1407.21 L1018.09 1409.80 L1035.17 1409.80 L1035.17 1417.48 L1052.25 1417.48 L1052.25 1423.42 L1069.20 1423.42 L1069.20 1428.74 L1086.28 1428.74 L1086.28 1432.45 L1103.36 1432.45 L1103.36 1431.96 L1120.31 1431.96 L1120.31 1431.21 L1137.39 1431.21 L1137.39 1433.94 L1154.46 1433.94 L1154.46 1429.73 L1171.42 1429.73 L1171.42 1429.98 L1188.49 1429.98 L1188.49 1432.45 L1205.57 1432.45 L1205.57 1436.53 L1222.53 1436.53 L1222.53 1436.91 L1239.60 1436.91 L1239.60 1439.75 L1256.68 1439.75 L1256.68 1441.61 L1273.63 1441.61 L1273.63 1441.11 L1290.71 1441.11 L1290.71 1442.60 L1307.79 1442.60 L1307.79 1445.20 L1324.74 1445.20 L1324.74 1445.94 L1341.82 1445.94 L1341.82 1445.32 L1358.90 1445.32 L1358.90 1448.91 L1375.85 1448.91 L1375.85 1449.28 L1392.93 1449.28 L1392.93 1451.51 L1410.01 1451.51 L1410.01 1453.49 L1426.96 1453.49 L1426.96 1454.85 L1444.04 1454.85 L1444.04 1455.10 L1461.12 1455.10 L1461.12 1456.09 L1478.07 1456.09 L1478.07 1457.94 L1495.15 1457.94 L1495.15 1460.42 L1512.22 1460.42 L1512.22 1460.54 L1529.18 1460.54 L1529.18 1462.89 L1546.26 1462.89 L1546.26 1465.74 L1563.33 1465.74 L1563.33 1464.75 L1580.29 1464.75 L1580.29 1465.37 L1597.37 1465.37 L1597.37 1465.62 L1614.44 1465.62 L1614.44 1467.35 L1631.52 1467.35 L1631.52 1468.59 L1648.47 1468.59 L1648.47 1470.94 L1665.55 1470.94 L1665.55 1473.04 L1682.63 1473.04 L1682.63 1473.17 L1699.58 1473.17 L1699.58 1471.80 L1716.66 1471.80 L1716.66 1473.29 L1733.74 1473.29 L1733.74 1473.78 L1750.69 1473.78 L1750.69 1473.41 L1767.77 1473.41 L1767.77 1474.16 L1784.85 1474.16 L1784.85 1474.16 L1801.80 1474.16 L1801.80 1474.28 L1818.88 1474.28 L1818.88 1475.15 L1835.95 1475.15 L1835.95 1475.52 L1852.91 1475.52 L1852.91 1476.26 L1869.99 1476.26 L1869.99 1477.00 L1887.06 1477.00 L1887.06 1478.49 L1904.02 1478.49 L1904.02 1478.73 L1921.10 1478.73 L1921.10 1478.24 L1938.17 1478.24 L1938.17 1477.62 L1955.13 1477.62 L1955.13 1477.87 L1972.20 1477.87 L1972.20 1479.35 L1989.28 1479.35 L1989.28 1480.22 L2006.23 1480.22 L2006.23 1478.73 L2023.31 1478.73 L2023.31 1480.22 L2040.39 1480.22 L2040.39 1480.96 L2057.34 1480.96 L2057.34 1480.22 L2074.42 1480.22 L2074.42 1479.60 L2091.50 1479.60 L2091.50 1480.72 L2108.45 1480.72 L2108.45 1480.72 L2125.53 1480.72 L2125.53 1479.97 L2142.61 1479.97 L2142.61 1480.84 L2159.56 1480.84 L2159.56 1480.22 L2176.64 1480.22 L2176.64 1480.10 L2193.72 1480.10 L2193.72 1480.96 L2210.79 1480.96 L2210.79 1481.21 L2227.75 1481.21 L2227.75 1480.47 L2244.82 1480.47 L2244.82 1479.60 L2261.90 1479.60 L2261.90 1481.21 L2278.86 1481.21 L2278.86 1479.72 L2295.93 1479.72 L2295.93 1480.84 L2313.01 1480.84 L2313.01 1480.96 L2329.97 1480.96 L2329.97 1482.32 L2347.04 1482.32 L2347.04 1482.82 L2364.12 1482.82 L2364.12 1483.07 L2381.07 1483.07 L2381.07 1481.83 L2398.15 1481.83 L2398.15 1482.57 L2415.23 1482.57 L2415.23 1482.70 L2432.18 1482.70 L2432.18 1483.56 L2449.26 1483.56 L2449.26 1483.44 L2466.34 1483.44 L2466.34 1484.18 L2483.29 1484.18 L2483.29 1483.69 L2500.37 1483.69 L2500.37 1484.30 L2517.45 1484.30 L2517.45 1485.29 L2534.40 1485.29 L2534.40 1485.29 L2551.48 1485.29 L2551.48 1485.54 L2568.55 1485.54 L2568.55 1485.91 L2585.51 1485.91 L2585.51 1486.04 L2602.59 1486.04 L2602.59 1487.03 L2619.66 1487.03 L2619.66 1486.78 L2636.62 1486.78 L2636.62 1486.90 L2653.70 1486.90 L2653.70 1487.65 L2670.77 1487.65 L2670.77 1487.52 L2687.73 1487.52 L2687.73 1488.39 L2704.80 1488.39 L2704.80 1488.64 L2721.88 1488.64 L2721.88 1488.39 L2738.84 1488.39 L2738.84 1488.14 L2755.91 1488.14 L2755.91 1488.88 L2772.99 1488.88 L2772.99 1488.14 L2790.07 1488.14 L2790.07 1488.14 L2807.02 1488.14 L2807.02 1488.51 L2824.10 1488.51 L2824.10 1486.90 L2841.18 1486.90 L2841.18 1486.90 L2858.13 1486.90 L2858.13 1487.89 L2875.21 1487.89 L2875.21 1488.51 L2892.28 1488.51 L2892.28 1489.01 L2909.24 1489.01 L2909.24 1489.63 L2926.32 1489.63 L2926.32 1490.24 L2943.39 1490.24 L2943.39 1490.86 L2960.35 1490.86 L2960.35 1490.62 L2977.43 1490.62 L2977.43 1490.86 L2994.50 1490.86 L2994.50 1491.48 L3011.46 1491.48 L3011.46 1491.85 L3028.53 1491.85 L3028.53 1491.61 L3045.61 1491.61 L3045.61 1491.98 L3062.57 1491.98 L3062.57 1491.73 L3079.64 1491.73 L3079.64 1492.35 L3096.72 1492.35 L3096.72 1492.72 L3113.67 1492.72 L3113.67 1491.98 L3130.75 1491.98 L3130.75 1492.35 L3147.83 1492.35 L3147.83 1491.98 L3164.78 1491.98 L3164.78 1491.48 L3181.86 1491.48 L3181.86 1492.10 L3198.94 1492.10 L3198.94 1492.60 L3215.89 1492.60 L3215.89 1493.09 L3232.97 1493.09 L3232.97 1493.34 L3250.05 1493.34 L3250.05 1493.21 L3267.00 1493.21 L3267.00 1492.97 L3284.08 1492.97 L3284.08 1493.34 L3301.16 1493.34 L3301.16 1493.09 L3318.23 1493.09 L3318.23 1493.96 L3335.19 1493.96 L3335.19 1494.33 L3352.26 1494.33 L3352.26 1494.82 L3369.34 1494.82 L3369.34 1495.07 L3386.30 1495.07 L3386.30 1495.57 L3403.37 1495.57 L3403.37 1494.45 L3420.45 1494.45 L3420.45 1494.45 L3437.40 1494.45 L3437.40 1495.07 L3454.48 1495.07 L3454.48 1495.81 L3471.56 1495.81 L3471.56 1495.81 L3488.51 1495.81 L3488.51 1495.94 L3505.59 1495.94 L3505.59 1496.43 L3522.67 1496.43 L3522.67 1498.04 L3539.62 1498.04 L3539.62 1497.67 L3556.70 1497.67 L3556.70 1498.04 L3573.78 1498.04 L3573.78 1498.41 L3590.73 1498.41 L3590.73 1498.66 L3607.81 1498.66 L3607.81 1499.65 L3624.89 1499.65 L3624.89 1499.90 L3641.84 1499.90 L3641.84 1500.02 L3658.92 1500.02 L3658.92 1501.13 L3675.99 1501.13 L3675.99 1502.12 L3692.95 1502.12 L3692.95 1501.75 L3710.03 1501.75 L3710.03 1502.25 L3727.10 1502.25 L3727.10 1501.38 L3744.06 1501.38 L3744.06 1501.51 L3761.13 1501.51 L3761.13 1501.75 L3778.21 1501.75 L3778.21 1501.51 L3795.16 1501.51 L3795.16 1500.89" stroke-linejoin="round" style="fill:none;stroke:#000000;stroke-width:8.64"/>
	<line x1="524.08" y1="2509.23" x2="524.08" y2="419.90" style="stroke:#000000;stroke-width:5.76"/>
	<line x1="524.08" y1="2445.87" x2="484.11" y2="2445.87" style="stroke:#000000;stroke-width:5.76"/>
	<text x="464.06" y="2480.90" style="font-family:'Helvetica';font-size:99.99px;fill:#000000" text-anchor="end">0.00</text>
	<line x1="524.08" y1="1955.19" x2="484.11" y2="1955.19" style="stroke:#000000;stroke-width:5.76"/>
	<text x="464.06" y="1990.22" style="font-family:'Helvetica';font-size:99.99px;fill:#000000" text-anchor="end">0.50</text>
	<line x1="524.08" y1="1464.63" x2="484.11" y2="1464.63" style="stroke:#000000;stroke-width:5.76"/>
	<text x="464.06" y="1499.66" style="font-family:'Helvetica';font-size:99.99px;fill:#000000" text-anchor="end">1.00</text>
	<line x1="524.08" y1="973.94" x2="484.11" y2="973.94" style="stroke:#000000;stroke-width:5.76"/>
	<text x="464.06" y="1008.97" style="font-family:'Helvetica';font-size:99.99px;fill:#000000" text-anchor="end">1.50</text>
	<line x1="524.08" y1="483.26" x2="484.11" y2="483.26" style="stroke:#000000;stroke-width:5.76"/>
	<text x="464.06" y="518.29" style="font-family:'Helvetica';font-size:99.99px;fill:#000000" text-anchor="end">2.00</text>
	<text x="190.71" y="1464.63" style="font-family:'Helvetica';font-size:99.99px;fill:#000000" transform="rotate(-90 190.71,1464.63)" text-anchor="middle">Ratio in Probabilities</text>
	<line x1="524.08" y1="2509.23" x2="3859.02" y2="2509.23" style="stroke:#000000;stroke-width:5.76"/>
	<line x1="587.44" y1="2509.23" x2="587.44" y2="2549.21" style="stroke:#000000;stroke-width:5.76"/>
	<text x="587.44" y="2625.15" style="font-family:'Helvetica';font-size:79.94px;fill:#000000" text-anchor="middle">0</text>
	<line x1="780.00" y1="2509.23" x2="780.00" y2="2549.21" style="stroke:#000000;stroke-width:5.76"/>
	<text x="780.00" y="2625.15" style="font-family:'Helvetica';font-size:79.94px;fill:#000000" text-anchor="middle">.3</text>
	<line x1="972.43" y1="2509.23" x2="972.43" y2="2549.21" style="stroke:#000000;stroke-width:5.76"/>
	<text x="972.43" y="2625.15" style="font-family:'Helvetica';font-size:79.94px;fill:#000000" text-anchor="middle">.6</text>
	<line x1="1164.98" y1="2509.23" x2="1164.98" y2="2549.21" style="stroke:#000000;stroke-width:5.76"/>
	<text x="1164.98" y="2625.15" style="font-family:'Helvetica';font-size:79.94px;fill:#000000" text-anchor="middle">.9</text>
	<line x1="1357.41" y1="2509.23" x2="1357.41" y2="2549.21" style="stroke:#000000;stroke-width:5.76"/>
	<text x="1357.41" y="2625.15" style="font-family:'Helvetica';font-size:79.94px;fill:#000000" text-anchor="middle">1.2</text>
	<line x1="1549.97" y1="2509.23" x2="1549.97" y2="2549.21" style="stroke:#000000;stroke-width:5.76"/>
	<text x="1549.97" y="2625.15" style="font-family:'Helvetica';font-size:79.94px;fill:#000000" text-anchor="middle">1.5</text>
	<line x1="1742.40" y1="2509.23" x2="1742.40" y2="2549.21" style="stroke:#000000;stroke-width:5.76"/>
	<text x="1742.40" y="2625.15" style="font-family:'Helvetica';font-size:79.94px;fill:#000000" text-anchor="middle">1.8</text>
	<line x1="1934.95" y1="2509.23" x2="1934.95" y2="2549.21" style="stroke:#000000;stroke-width:5.76"/>
	<text x="1934.95" y="2625.15" style="font-family:'Helvetica';font-size:79.94px;fill:#000000" text-anchor="middle">2.1</text>
	<line x1="2127.39" y1="2509.23" x2="2127.39" y2="2549.21" style="stroke:#000000;stroke-width:5.76"/>
	<text x="2127.39" y="2625.15" style="font-family:'Helvetica';font-size:79.94px;fill:#000000" text-anchor="middle">2.4</text>
	<line x1="2319.94" y1="2509.23" x2="2319.94" y2="2549.21" style="stroke:#000000;stroke-width:5.76"/>
	<text x="2319.94" y="2625.15" style="font-family:'Helvetica';font-size:79.94px;fill:#000000" text-anchor="middle">2.7</text>
	<line x1="2512.37" y1="2509.23" x2="2512.37" y2="2549.21" style="stroke:#000000;stroke-width:5.76"/>
	<text x="2512.37" y="2625.15" style="font-family:'Helvetica';font-size:79.94px;fill:#000000" text-anchor="middle">3</text>
	<line x1="2704.93" y1="2509.23" x2="2704.93" y2="2549.21" style="stroke:#000000;stroke-width:5.76"/>
	<text x="2704.93" y="2625.15" style="font-family:'Helvetica';font-size:79.94px;fill:#000000" text-anchor="middle">3.3</text>
	<line x1="2897.36" y1="2509.23" x2="2897.36" y2="2549.21" style="stroke:#000000;stroke-width:5.76"/>
	<text x="2897.36" y="2625.15" style="font-family:'Helvetica';font-size:79.94px;fill:#000000" text-anchor="middle">3.6</text>
	<line x1="3089.91" y1="2509.23" x2="3089.91" y2="2549.21" style="stroke:#000000;stroke-width:5.76"/>
	<text x="3089.91" y="2625.15" style="font-family:'Helvetica';font-size:79.94px;fill:#000000" text-anchor="middle">3.9</text>
	<line x1="3282.34" y1="2509.23" x2="3282.34" y2="2549.21" style="stroke:#000000;stroke-width:5.76"/>
	<text x="3282.34" y="2625.15" style="font-family:'Helvetica';font-size:79.94px;fill:#000000" text-anchor="middle">4.2</text>
	<line x1="3474.90" y1="2509.23" x2="3474.90" y2="2549.21" style="stroke:#000000;stroke-width:5.76"/>
	<text x="3474.90" y="2625.15" style="font-family:'Helvetica';font-size:79.94px;fill:#000000" text-anchor="middle">4.5</text>
	<line x1="3667.33" y1="2509.23" x2="3667.33" y2="2549.21" style="stroke:#000000;stroke-width:5.76"/>
	<text x="3667.33" y="2625.15" style="font-family:'Helvetica';font-size:79.94px;fill:#000000" text-anchor="middle">4.8</text>
	<line x1="3859.89" y1="2509.23" x2="3859.89" y2="2549.21" style="stroke:#000000;stroke-width:5.76"/>
	<text x="3859.89" y="2625.15" style="font-family:'Helvetica';font-size:79.94px;fill:#000000" text-anchor="middle">5.1</text>
	<text x="2191.61" y="2729.16" style="font-family:'Helvetica';font-size:99.99px;fill:#000000" text-anchor="middle">Time (years)</text>
	<rect x="558.61" y="454.42" width="993.34" height="326.46" style="fill:#FFFFFF"/>
	<rect x="561.49" y="457.30" width="987.58" height="320.70" style="fill:none;stroke:#000000;stroke-width:5.76"/>
	<rect x="601.92" y="497.74" width="374.34" height="99.99" style="fill:#999999;fill-opacity:0.65"/>
	<rect x="606.24" y="502.06" width="365.70" height="91.35" style="fill:none;stroke:#808080;stroke-opacity:0.65;stroke-width:8.64"/>
	<line x1="601.92" y1="687.70" x2="976.26" y2="687.70" style="stroke:#000000;stroke-width:8.64"/>
	<text x="1036.28" y="582.76" style="font-family:'Helvetica';font-size:99.99px;fill:#000000">CI95%</text>
	<text x="1036.28" y="722.73" style="font-family:'Helvetica';font-size:99.99px;fill:#000000">Difference</text>
	<text x="2191.61" y="369.63" style="font-family:'Helvetica';font-size:110.01px;fill:#000000" text-anchor="middle">from Admission to Treatment Completion</text>
	<text x="2191.61" y="215.98" style="font-family:'Helvetica';font-size:139.96px;fill:#1E2D53" text-anchor="middle">Ratio in Probabilities</text>
</svg>
