<?xml version="1.0" encoding="UTF-8" standalone="no"?>
<!-- This is a Stata 16.1 generated SVG file (http://www.stata.com) -->

<svg version="1.1" width="5.50in" height="4.00in" viewBox="0 0 3960 2880" xmlns="http://www.w3.org/2000/svg" xmlns:xlink="http://www.w3.org/1999/xlink">
	<desc>Stata Graph - ratio_models23_tc</desc>
	<rect x="0" y="0" width="3960" height="2880" style="fill:#EAF2F3;stroke:none"/>
	<rect x="0.00" y="0.00" width="3959.88" height="2880.00" style="fill:#FFFFFF"/>
	<rect x="2.88" y="2.88" width="3954.12" height="2874.24" style="fill:none;stroke:#FFFFFF;stroke-width:5.76"/>
	<rect x="524.08" y="419.90" width="3334.94" height="2089.34" style="fill:#FFFFFF"/>
	<rect x="526.96" y="422.78" width="3329.18" height="2083.58" style="fill:none;stroke:#FFFFFF;stroke-width:5.76"/>
	<line x1="524.08" y1="2200.59" x2="3859.02" y2="2200.59" style="stroke:#EAF2F3;stroke-width:8.64"/>
	<line x1="524.08" y1="1955.19" x2="3859.02" y2="1955.19" style="stroke:#EAF2F3;stroke-width:8.64"/>
	<line x1="524.08" y1="1709.91" x2="3859.02" y2="1709.91" style="stroke:#EAF2F3;stroke-width:8.64"/>
	<line x1="524.08" y1="1464.63" x2="3859.02" y2="1464.63" style="stroke:#EAF2F3;stroke-width:8.64"/>
	<line x1="524.08" y1="1219.22" x2="3859.02" y2="1219.22" style="stroke:#EAF2F3;stroke-width:8.64"/>
	<line x1="524.08" y1="973.94" x2="3859.02" y2="973.94" style="stroke:#EAF2F3;stroke-width:8.64"/>
	<line x1="524.08" y1="728.66" x2="3859.02" y2="728.66" style="stroke:#EAF2F3;stroke-width:8.64"/>
	<line x1="524.08" y1="1464.63" x2="3859.02" y2="1464.63" style="stroke:#1A476F;stroke-width:8.64"/>
	<defs>
		<path id="path_YoVDAeYj" d="M745.59 1563.63 L745.59 1563.63 L762.67 1563.63 L762.67 1554.84 L779.63 1554.84 L779.63 1552.24 L796.70 1552.24 L796.70 1548.78 L813.78 1548.78 L813.78 1551.63 L830.73 1551.63 L830.73 1549.77 L847.81 1549.77 L847.81 1543.95 L864.89 1543.95 L864.89 1552.99 L881.84 1552.99 L881.84 1547.79 L898.92 1547.79 L898.92 1547.67 L916.00 1547.67 L916.00 1548.66 L932.95 1548.66 L932.95 1542.84 L950.03 1542.84 L950.03 1540.61 L967.11 1540.61 L967.11 1537.64 L984.06 1537.64 L984.06 1538.14 L1001.14 1538.14 L1001.14 1535.66 L1018.22 1535.66 L1018.22 1533.31 L1035.17 1533.31 L1035.17 1536.65 L1052.25 1536.65 L1052.25 1537.39 L1069.32 1537.39 L1069.32 1534.18 L1086.28 1534.18 L1086.28 1536.16 L1103.36 1536.16 L1103.36 1537.27 L1120.43 1537.27 L1120.43 1536.16 L1137.39 1536.16 L1137.39 1533.06 L1154.46 1533.06 L1154.46 1536.28 L1171.54 1536.28 L1171.54 1541.35 L1188.49 1541.35 L1188.49 1541.48 L1205.57 1541.48 L1205.57 1542.72 L1222.65 1542.72 L1222.65 1542.84 L1239.60 1542.84 L1239.60 1541.97 L1256.68 1541.97 L1256.68 1540.74 L1273.76 1540.74 L1273.76 1541.35 L1290.71 1541.35 L1290.71 1542.59 L1307.79 1542.59 L1307.79 1545.19 L1324.87 1545.19 L1324.87 1543.95 L1341.94 1543.95 L1341.94 1544.08 L1358.90 1544.08 L1358.90 1542.84 L1375.98 1542.84 L1375.98 1544.20 L1393.05 1544.20 L1393.05 1543.71 L1410.01 1543.71 L1410.01 1542.72 L1427.09 1542.72 L1427.09 1544.45 L1444.16 1544.45 L1444.16 1544.94 L1461.12 1544.94 L1461.12 1543.71 L1478.19 1543.71 L1478.19 1543.21 L1495.27 1543.21 L1495.27 1542.59 L1512.22 1542.59 L1512.22 1540.36 L1529.30 1540.36 L1529.30 1541.23 L1546.38 1541.23 L1546.38 1540.36 L1563.33 1540.36 L1563.33 1537.52 L1580.41 1537.52 L1580.41 1535.41 L1597.49 1535.41 L1597.49 1535.17 L1614.44 1535.17 L1614.44 1536.53 L1631.52 1536.53 L1631.52 1534.30 L1648.60 1534.30 L1648.60 1534.30 L1665.55 1534.30 L1665.55 1532.32 L1682.63 1532.32 L1682.63 1531.58 L1699.71 1531.58 L1699.71 1533.43 L1716.66 1533.43 L1716.66 1533.56 L1733.74 1533.56 L1733.74 1534.18 L1750.82 1534.18 L1750.82 1534.92 L1767.77 1534.92 L1767.77 1536.16 L1784.85 1536.16 L1784.85 1534.30 L1801.92 1534.30 L1801.92 1534.05 L1818.88 1534.05 L1818.88 1535.79 L1835.95 1535.79 L1835.95 1535.91 L1853.03 1535.91 L1853.03 1535.79 L1869.99 1535.79 L1869.99 1537.15 L1887.06 1537.15 L1887.06 1536.03 L1904.14 1536.03 L1904.14 1538.01 L1921.22 1538.01 L1921.22 1540.12 L1938.17 1540.12 L1938.17 1539.62 L1955.25 1539.62 L1955.25 1540.12 L1972.33 1540.12 L1972.33 1539.75 L1989.28 1539.75 L1989.28 1539.99 L2006.36 1539.99 L2006.36 1540.12 L2023.44 1540.12 L2023.44 1541.35 L2040.39 1541.35 L2040.39 1540.61 L2057.47 1540.61 L2057.47 1540.86 L2074.55 1540.86 L2074.55 1541.35 L2091.50 1541.35 L2091.50 1541.23 L2108.58 1541.23 L2108.58 1539.75 L2125.65 1539.75 L2125.65 1539.13 L2142.61 1539.13 L2142.61 1540.12 L2159.68 1540.12 L2159.68 1540.74 L2176.76 1540.74 L2176.76 1540.86 L2193.72 1540.86 L2193.72 1541.11 L2210.79 1541.11 L2210.79 1540.74 L2227.87 1540.74 L2227.87 1540.49 L2244.82 1540.49 L2244.82 1539.75 L2261.90 1539.75 L2261.90 1540.61 L2278.98 1540.61 L2278.98 1540.98 L2295.93 1540.98 L2295.93 1540.24 L2313.01 1540.24 L2313.01 1539.62 L2330.09 1539.62 L2330.09 1539.62 L2347.04 1539.62 L2347.04 1540.36 L2364.12 1540.36 L2364.12 1540.12 L2381.20 1540.12 L2381.20 1540.12 L2398.15 1540.12 L2398.15 1540.98 L2415.23 1540.98 L2415.23 1540.12 L2432.31 1540.12 L2432.31 1541.48 L2449.26 1541.48 L2449.26 1542.34 L2466.34 1542.34 L2466.34 1541.60 L2483.41 1541.60 L2483.41 1542.34 L2500.49 1542.34 L2500.49 1542.47 L2517.45 1542.47 L2517.45 1541.23 L2534.52 1541.23 L2534.52 1541.60 L2551.60 1541.60 L2551.60 1541.85 L2568.55 1541.85 L2568.55 1542.10 L2585.63 1542.10 L2585.63 1542.47 L2602.71 1542.47 L2602.71 1542.47 L2619.66 1542.47 L2619.66 1541.73 L2636.74 1541.73 L2636.74 1541.85 L2653.82 1541.85 L2653.82 1541.60 L2670.77 1541.60 L2670.77 1541.23 L2687.85 1541.23 L2687.85 1542.22 L2704.93 1542.22 L2704.93 1541.73 L2721.88 1541.73 L2721.88 1542.10 L2738.96 1542.10 L2738.96 1540.74 L2756.04 1540.74 L2756.04 1541.48 L2772.99 1541.48 L2772.99 1542.34 L2790.07 1542.34 L2790.07 1541.97 L2807.14 1541.97 L2807.14 1542.22 L2824.10 1542.22 L2824.10 1543.33 L2841.18 1543.33 L2841.18 1544.70 L2858.25 1544.70 L2858.25 1546.06 L2875.21 1546.06 L2875.21 1544.82 L2892.28 1544.82 L2892.28 1545.07 L2909.36 1545.07 L2909.36 1544.70 L2926.32 1544.70 L2926.32 1544.20 L2943.39 1544.20 L2943.39 1544.82 L2960.47 1544.82 L2960.47 1545.44 L2977.43 1545.44 L2977.43 1545.56 L2994.50 1545.56 L2994.50 1545.56 L3011.58 1545.56 L3011.58 1545.56 L3028.66 1545.56 L3028.66 1546.55 L3045.61 1546.55 L3045.61 1547.17 L3062.69 1547.17 L3062.69 1548.53 L3079.77 1548.53 L3079.77 1549.52 L3096.72 1549.52 L3096.72 1549.89 L3113.80 1549.89 L3113.80 1549.15 L3130.88 1549.15 L3130.88 1549.65 L3147.83 1549.65 L3147.83 1549.15 L3164.91 1549.15 L3164.91 1548.78 L3181.98 1548.78 L3181.98 1551.01 L3198.94 1551.01 L3198.94 1551.01 L3216.01 1551.01 L3216.01 1550.88 L3233.09 1550.88 L3233.09 1552.49 L3250.05 1552.49 L3250.05 1554.35 L3267.12 1554.35 L3267.12 1553.61 L3284.20 1553.61 L3284.20 1553.73 L3301.16 1553.73 L3301.16 1553.48 L3318.23 1553.48 L3318.23 1554.97 L3335.31 1554.97 L3335.31 1554.72 L3352.26 1554.72 L3352.26 1554.47 L3369.34 1554.47 L3369.34 1555.09 L3386.42 1555.09 L3386.42 1555.34 L3403.37 1555.34 L3403.37 1555.83 L3420.45 1555.83 L3420.45 1555.71 L3437.53 1555.71 L3437.53 1554.97 L3454.48 1554.97 L3454.48 1554.35 L3471.56 1554.35 L3471.56 1554.10 L3488.64 1554.10 L3488.64 1554.97 L3505.59 1554.97 L3505.59 1555.83 L3522.67 1555.83 L3522.67 1555.83 L3539.74 1555.83 L3539.74 1556.95 L3556.70 1556.95 L3556.70 1557.69 L3573.78 1557.69 L3573.78 1558.31 L3590.85 1558.31 L3590.85 1557.81 L3607.93 1557.81 L3607.93 1558.06 L3624.89 1558.06 L3624.89 1558.68 L3641.96 1558.68 L3641.96 1559.05 L3659.04 1559.05 L3659.04 1559.30 L3675.99 1559.30 L3675.99 1558.80 L3693.07 1558.80 L3693.07 1559.42 L3710.15 1559.42 L3710.15 1559.55 L3727.10 1559.55 L3727.10 1558.68 L3744.18 1558.68 L3744.18 1559.05 L3761.26 1559.05 L3761.26 1558.18 L3778.21 1558.18 L3778.21 1558.18 L3795.29 1558.18 L3795.29 1559.05 L3795.29 1413.27 L3795.29 1412.40 L3778.21 1412.40 L3778.21 1412.40 L3761.26 1412.40 L3761.26 1413.52 L3744.18 1413.52 L3744.18 1413.52 L3727.10 1413.52 L3727.10 1414.75 L3710.15 1414.75 L3710.15 1414.75 L3693.07 1414.75 L3693.07 1414.14 L3675.99 1414.14 L3675.99 1414.63 L3659.04 1414.63 L3659.04 1414.63 L3641.96 1414.63 L3641.96 1414.38 L3624.89 1414.38 L3624.89 1413.76 L3607.93 1413.76 L3607.93 1413.64 L3590.85 1413.64 L3590.85 1414.38 L3573.78 1414.38 L3573.78 1413.76 L3556.70 1413.76 L3556.70 1413.02 L3539.74 1413.02 L3539.74 1412.03 L3522.67 1412.03 L3522.67 1412.28 L3505.59 1412.28 L3505.59 1411.54 L3488.64 1411.54 L3488.64 1410.67 L3471.56 1410.67 L3471.56 1411.04 L3454.48 1411.04 L3454.48 1411.91 L3437.53 1411.91 L3437.53 1412.90 L3420.45 1412.90 L3420.45 1413.27 L3403.37 1413.27 L3403.37 1412.90 L3386.42 1412.90 L3386.42 1412.53 L3369.34 1412.53 L3369.34 1411.91 L3352.26 1411.91 L3352.26 1412.28 L3335.31 1412.28 L3335.31 1412.65 L3318.23 1412.65 L3318.23 1411.29 L3301.16 1411.29 L3301.16 1411.78 L3284.20 1411.78 L3284.20 1411.91 L3267.12 1411.91 L3267.12 1412.90 L3250.05 1412.90 L3250.05 1410.79 L3233.09 1410.79 L3233.09 1409.06 L3216.01 1409.06 L3216.01 1409.56 L3198.94 1409.56 L3198.94 1409.56 L3181.98 1409.56 L3181.98 1407.21 L3164.91 1407.21 L3164.91 1407.82 L3147.83 1407.82 L3147.83 1408.44 L3130.88 1408.44 L3130.88 1407.95 L3113.80 1407.95 L3113.80 1408.94 L3096.72 1408.94 L3096.72 1408.57 L3079.77 1408.57 L3079.77 1407.58 L3062.69 1407.58 L3062.69 1405.97 L3045.61 1405.97 L3045.61 1405.35 L3028.66 1405.35 L3028.66 1404.24 L3011.58 1404.24 L3011.58 1404.24 L2994.50 1404.24 L2994.50 1404.36 L2977.43 1404.36 L2977.43 1404.11 L2960.47 1404.11 L2960.47 1403.49 L2943.39 1403.49 L2943.39 1402.87 L2926.32 1402.87 L2926.32 1403.62 L2909.36 1403.62 L2909.36 1404.11 L2892.28 1404.11 L2892.28 1403.74 L2875.21 1403.74 L2875.21 1405.23 L2858.25 1405.23 L2858.25 1403.49 L2841.18 1403.49 L2841.18 1401.88 L2824.10 1401.88 L2824.10 1400.40 L2807.14 1400.40 L2807.14 1400.15 L2790.07 1400.15 L2790.07 1400.65 L2772.99 1400.65 L2772.99 1399.41 L2756.04 1399.41 L2756.04 1398.67 L2738.96 1398.67 L2738.96 1400.15 L2721.88 1400.15 L2721.88 1399.78 L2704.93 1399.78 L2704.93 1400.52 L2687.85 1400.52 L2687.85 1399.28 L2670.77 1399.28 L2670.77 1399.78 L2653.82 1399.78 L2653.82 1400.28 L2636.74 1400.28 L2636.74 1400.15 L2619.66 1400.15 L2619.66 1400.89 L2602.71 1400.89 L2602.71 1400.89 L2585.63 1400.89 L2585.63 1400.40 L2568.55 1400.40 L2568.55 1400.03 L2551.60 1400.03 L2551.60 1399.66 L2534.52 1399.66 L2534.52 1399.41 L2517.45 1399.41 L2517.45 1400.65 L2500.49 1400.65 L2500.49 1400.40 L2483.41 1400.40 L2483.41 1399.53 L2466.34 1399.53 L2466.34 1400.15 L2449.26 1400.15 L2449.26 1399.04 L2432.31 1399.04 L2432.31 1397.68 L2415.23 1397.68 L2415.23 1398.42 L2398.15 1398.42 L2398.15 1397.18 L2381.20 1397.18 L2381.20 1396.81 L2364.12 1396.81 L2364.12 1396.56 L2347.04 1396.56 L2347.04 1395.32 L2330.09 1395.32 L2330.09 1394.83 L2313.01 1394.83 L2313.01 1395.45 L2295.93 1395.45 L2295.93 1395.82 L2278.98 1395.82 L2278.98 1395.32 L2261.90 1395.32 L2261.90 1394.21 L2244.82 1394.21 L2244.82 1394.83 L2227.87 1394.83 L2227.87 1394.83 L2210.79 1394.83 L2210.79 1395.08 L2193.72 1395.08 L2193.72 1394.46 L2176.76 1394.46 L2176.76 1393.96 L2159.68 1393.96 L2159.68 1393.10 L2142.61 1393.10 L2142.61 1391.61 L2125.65 1391.61 L2125.65 1391.98 L2108.58 1391.98 L2108.58 1393.47 L2091.50 1393.47 L2091.50 1393.34 L2074.55 1393.34 L2074.55 1392.48 L2057.47 1392.48 L2057.47 1391.61 L2040.39 1391.61 L2040.39 1392.11 L2023.44 1392.11 L2023.44 1390.37 L2006.36 1390.37 L2006.36 1389.76 L1989.28 1389.76 L1989.28 1389.01 L1972.33 1389.01 L1972.33 1389.01 L1955.25 1389.01 L1955.25 1388.15 L1938.17 1388.15 L1938.17 1388.52 L1921.22 1388.52 L1921.22 1385.55 L1904.14 1385.55 L1904.14 1382.70 L1887.06 1382.70 L1887.06 1383.57 L1869.99 1383.57 L1869.99 1381.59 L1853.03 1381.59 L1853.03 1380.97 L1835.95 1380.97 L1835.95 1380.10 L1818.88 1380.10 L1818.88 1377.26 L1801.92 1377.26 L1801.92 1377.01 L1784.85 1377.01 L1784.85 1378.37 L1767.77 1378.37 L1767.77 1376.14 L1750.82 1376.14 L1750.82 1374.91 L1733.74 1374.91 L1733.74 1373.67 L1716.66 1373.67 L1716.66 1372.55 L1699.71 1372.55 L1699.71 1369.96 L1682.63 1369.96 L1682.63 1369.58 L1665.55 1369.58 L1665.55 1370.82 L1648.60 1370.82 L1648.60 1370.08 L1631.52 1370.08 L1631.52 1371.56 L1614.44 1371.56 L1614.44 1369.21 L1597.49 1369.21 L1597.49 1368.10 L1580.41 1368.10 L1580.41 1369.71 L1563.33 1369.71 L1563.33 1372.18 L1546.38 1372.18 L1546.38 1372.43 L1529.30 1372.43 L1529.30 1370.20 L1512.22 1370.20 L1512.22 1371.81 L1495.27 1371.81 L1495.27 1371.07 L1478.19 1371.07 L1478.19 1370.45 L1461.12 1370.45 L1461.12 1370.82 L1444.16 1370.82 L1444.16 1368.84 L1427.09 1368.84 L1427.09 1365.13 L1410.01 1365.13 L1410.01 1364.63 L1393.05 1364.63 L1393.05 1363.77 L1375.98 1363.77 L1375.98 1360.67 L1358.90 1360.67 L1358.90 1360.67 L1341.94 1360.67 L1341.94 1359.44 L1324.87 1359.44 L1324.87 1359.31 L1307.79 1359.31 L1307.79 1354.49 L1290.71 1354.49 L1290.71 1351.27 L1273.76 1351.27 L1273.76 1348.79 L1256.68 1348.79 L1256.68 1347.93 L1239.60 1347.93 L1239.60 1346.94 L1222.65 1346.94 L1222.65 1344.96 L1205.57 1344.96 L1205.57 1341.49 L1188.49 1341.49 L1188.49 1339.26 L1171.54 1339.26 L1171.54 1330.97 L1154.46 1330.97 L1154.46 1324.54 L1137.39 1324.54 L1137.39 1325.78 L1120.43 1325.78 L1120.43 1324.04 L1103.36 1324.04 L1103.36 1319.83 L1086.28 1319.83 L1086.28 1314.39 L1069.32 1314.39 L1069.32 1314.88 L1052.25 1314.88 L1052.25 1310.55 L1035.17 1310.55 L1035.17 1302.76 L1018.22 1302.76 L1018.22 1301.27 L1001.14 1301.27 L1001.14 1299.91 L984.06 1299.91 L984.06 1293.97 L967.11 1293.97 L967.11 1292.98 L950.03 1292.98 L950.03 1290.13 L932.95 1290.13 L932.95 1292.49 L916.00 1292.49 L916.00 1286.05 L898.92 1286.05 L898.92 1279.86 L881.84 1279.86 L881.84 1279.61 L864.89 1279.61 L864.89 1261.05 L847.81 1261.05 L847.81 1262.54 L830.73 1262.54 L830.73 1255.73 L813.78 1255.73 L813.78 1241.38 L796.70 1241.38 L796.70 1237.17 L779.63 1237.17 L779.63 1227.39 L762.67 1227.39 L762.67 1225.16 L745.59 1225.16 L745.59 1563.63 Z" stroke-linejoin="round"/>
	</defs>
	<defs>
		<clipPath id="clipPath_lWfPZxkm">
			<use xlink:href="#path_YoVDAeYj"/>
		</clipPath>
	</defs>
	<use xlink:href="#path_YoVDAeYj" style="stroke:none;fill:#999999;fill-opacity:0.65"/>
	<use xlink:href="#path_YoVDAeYj" style="fill:none;stroke:#808080;stroke-opacity:0.65;stroke-width:17.28" clip-path="url(#clipPath_lWfPZxkm)"/>
	<path d=" M745.47 1408.20 L762.55 1408.20 L762.55 1403.99 L779.63 1403.99 L779.63 1406.71 L796.58 1406.71 L796.58 1406.46 L813.66 1406.46 L813.66 1414.26 L830.73 1414.26 L830.73 1416.24 L847.69 1416.24 L847.69 1412.16 L864.76 1412.16 L864.76 1425.52 L881.84 1425.52 L881.84 1422.55 L898.80 1422.55 L898.80 1425.27 L915.87 1425.27 L915.87 1428.61 L932.95 1428.61 L932.95 1424.28 L949.90 1424.28 L949.90 1424.41 L966.98 1424.41 L966.98 1423.17 L984.06 1423.17 L984.06 1426.02 L1001.01 1426.02 L1001.01 1425.27 L1018.09 1425.27 L1018.09 1424.65 L1035.17 1424.65 L1035.17 1429.98 L1052.25 1429.98 L1052.25 1432.33 L1069.20 1432.33 L1069.20 1430.22 L1086.28 1430.22 L1086.28 1433.81 L1103.36 1433.81 L1103.36 1436.29 L1120.31 1436.29 L1120.31 1436.53 L1137.39 1436.53 L1137.39 1434.31 L1154.46 1434.31 L1154.46 1438.89 L1171.42 1438.89 L1171.42 1445.57 L1188.49 1445.57 L1188.49 1446.44 L1205.57 1446.44 L1205.57 1448.79 L1222.53 1448.79 L1222.53 1449.78 L1239.60 1449.78 L1239.60 1449.78 L1256.68 1449.78 L1256.68 1449.41 L1273.63 1449.41 L1273.63 1450.89 L1290.71 1450.89 L1290.71 1452.99 L1307.79 1452.99 L1307.79 1456.58 L1324.74 1456.58 L1324.74 1455.96 L1341.82 1455.96 L1341.82 1456.71 L1358.90 1456.71 L1358.90 1455.96 L1375.85 1455.96 L1375.85 1458.19 L1392.93 1458.19 L1392.93 1458.32 L1410.01 1458.32 L1410.01 1457.94 L1426.96 1457.94 L1426.96 1460.54 L1444.04 1460.54 L1444.04 1461.78 L1461.12 1461.78 L1461.12 1460.91 L1478.07 1460.91 L1478.07 1460.91 L1495.15 1460.91 L1495.15 1460.91 L1512.22 1460.91 L1512.22 1459.06 L1529.18 1459.06 L1529.18 1460.54 L1546.26 1460.54 L1546.26 1459.92 L1563.33 1459.92 L1563.33 1457.20 L1580.29 1457.20 L1580.29 1455.35 L1597.37 1455.35 L1597.37 1455.72 L1614.44 1455.72 L1614.44 1457.57 L1631.52 1457.57 L1631.52 1455.72 L1648.47 1455.72 L1648.47 1455.96 L1665.55 1455.96 L1665.55 1454.36 L1682.63 1454.36 L1682.63 1454.11 L1699.58 1454.11 L1699.58 1456.34 L1716.66 1456.34 L1716.66 1456.83 L1733.74 1456.83 L1733.74 1457.82 L1750.69 1457.82 L1750.69 1458.81 L1767.77 1458.81 L1767.77 1460.42 L1784.85 1460.42 L1784.85 1458.81 L1801.80 1458.81 L1801.80 1458.81 L1818.88 1458.81 L1818.88 1461.04 L1835.95 1461.04 L1835.95 1461.53 L1852.91 1461.53 L1852.91 1461.78 L1869.99 1461.78 L1869.99 1463.39 L1887.06 1463.39 L1887.06 1462.40 L1904.02 1462.40 L1904.02 1464.75 L1921.10 1464.75 L1921.10 1467.35 L1938.17 1467.35 L1938.17 1466.85 L1955.13 1466.85 L1955.13 1467.47 L1972.20 1467.47 L1972.20 1467.35 L1989.28 1467.35 L1989.28 1467.84 L2006.23 1467.84 L2006.23 1468.22 L2023.31 1468.22 L2023.31 1469.70 L2040.39 1469.70 L2040.39 1468.96 L2057.34 1468.96 L2057.34 1469.58 L2074.42 1469.58 L2074.42 1470.20 L2091.50 1470.20 L2091.50 1470.20 L2108.45 1470.20 L2108.45 1468.71 L2125.53 1468.71 L2125.53 1468.22 L2142.61 1468.22 L2142.61 1469.45 L2159.56 1469.45 L2159.56 1470.20 L2176.64 1470.20 L2176.64 1470.44 L2193.72 1470.44 L2193.72 1470.81 L2210.79 1470.81 L2210.79 1470.57 L2227.75 1470.57 L2227.75 1470.44 L2244.82 1470.44 L2244.82 1469.70 L2261.90 1469.70 L2261.90 1470.69 L2278.86 1470.69 L2278.86 1471.19 L2295.93 1471.19 L2295.93 1470.57 L2313.01 1470.57 L2313.01 1469.95 L2329.97 1469.95 L2329.97 1470.20 L2347.04 1470.20 L2347.04 1471.06 L2364.12 1471.06 L2364.12 1471.19 L2381.07 1471.19 L2381.07 1471.31 L2398.15 1471.31 L2398.15 1472.42 L2415.23 1472.42 L2415.23 1471.56 L2432.18 1471.56 L2432.18 1472.92 L2449.26 1472.92 L2449.26 1473.91 L2466.34 1473.91 L2466.34 1473.17 L2483.29 1473.17 L2483.29 1474.03 L2500.37 1474.03 L2500.37 1474.16 L2517.45 1474.16 L2517.45 1472.92 L2534.40 1472.92 L2534.40 1473.29 L2551.48 1473.29 L2551.48 1473.54 L2568.55 1473.54 L2568.55 1473.91 L2585.51 1473.91 L2585.51 1474.28 L2602.59 1474.28 L2602.59 1474.28 L2619.66 1474.28 L2619.66 1473.54 L2636.62 1473.54 L2636.62 1473.66 L2653.70 1473.66 L2653.70 1473.29 L2670.77 1473.29 L2670.77 1472.92 L2687.73 1472.92 L2687.73 1474.03 L2704.80 1474.03 L2704.80 1473.41 L2721.88 1473.41 L2721.88 1473.78 L2738.84 1473.78 L2738.84 1472.30 L2755.91 1472.30 L2755.91 1473.17 L2772.99 1473.17 L2772.99 1474.16 L2790.07 1474.16 L2790.07 1473.66 L2807.02 1473.66 L2807.02 1473.91 L2824.10 1473.91 L2824.10 1475.27 L2841.18 1475.27 L2841.18 1476.75 L2858.13 1476.75 L2858.13 1478.24 L2875.21 1478.24 L2875.21 1476.88 L2892.28 1476.88 L2892.28 1477.25 L2909.24 1477.25 L2909.24 1476.75 L2926.32 1476.75 L2926.32 1476.14 L2943.39 1476.14 L2943.39 1476.75 L2960.35 1476.75 L2960.35 1477.37 L2977.43 1477.37 L2977.43 1477.62 L2994.50 1477.62 L2994.50 1477.50 L3011.46 1477.50 L3011.46 1477.50 L3028.53 1477.50 L3028.53 1478.61 L3045.61 1478.61 L3045.61 1479.23 L3062.57 1479.23 L3062.57 1480.72 L3079.64 1480.72 L3079.64 1481.71 L3096.72 1481.71 L3096.72 1482.08 L3113.67 1482.08 L3113.67 1481.21 L3130.75 1481.21 L3130.75 1481.71 L3147.83 1481.71 L3147.83 1481.21 L3164.78 1481.21 L3164.78 1480.72 L3181.86 1480.72 L3181.86 1482.94 L3198.94 1482.94 L3198.94 1482.94 L3215.89 1482.94 L3215.89 1482.57 L3232.97 1482.57 L3232.97 1484.30 L3250.05 1484.30 L3250.05 1486.28 L3267.00 1486.28 L3267.00 1485.42 L3284.08 1485.42 L3284.08 1485.42 L3301.16 1485.42 L3301.16 1485.05 L3318.23 1485.05 L3318.23 1486.53 L3335.19 1486.53 L3335.19 1486.16 L3352.26 1486.16 L3352.26 1485.91 L3369.34 1485.91 L3369.34 1486.53 L3386.30 1486.53 L3386.30 1486.90 L3403.37 1486.90 L3403.37 1487.27 L3420.45 1487.27 L3420.45 1487.03 L3437.40 1487.03 L3437.40 1486.16 L3454.48 1486.16 L3454.48 1485.42 L3471.56 1485.42 L3471.56 1485.17 L3488.51 1485.17 L3488.51 1486.04 L3505.59 1486.04 L3505.59 1486.78 L3522.67 1486.78 L3522.67 1486.66 L3539.62 1486.66 L3539.62 1487.77 L3556.70 1487.77 L3556.70 1488.51 L3573.78 1488.51 L3573.78 1489.01 L3590.73 1489.01 L3590.73 1488.51 L3607.81 1488.51 L3607.81 1488.64 L3624.89 1488.64 L3624.89 1489.25 L3641.84 1489.25 L3641.84 1489.63 L3658.92 1489.63 L3658.92 1489.75 L3675.99 1489.75 L3675.99 1489.25 L3692.95 1489.25 L3692.95 1489.87 L3710.03 1489.87 L3710.03 1489.87 L3727.10 1489.87 L3727.10 1488.88 L3744.06 1488.88 L3744.06 1489.13 L3761.13 1489.13 L3761.13 1488.14 L3778.21 1488.14 L3778.21 1488.14 L3795.16 1488.14 L3795.16 1489.01" stroke-linejoin="round" style="fill:none;stroke:#000000;stroke-width:8.64"/>
	<line x1="524.08" y1="2509.23" x2="524.08" y2="419.90" style="stroke:#000000;stroke-width:5.76"/>
	<line x1="524.08" y1="2445.87" x2="484.11" y2="2445.87" style="stroke:#000000;stroke-width:5.76"/>
	<text x="464.06" y="2480.90" style="font-family:'Helvetica';font-size:99.99px;fill:#000000" text-anchor="end">0.00</text>
	<line x1="524.08" y1="2200.59" x2="484.11" y2="2200.59" style="stroke:#000000;stroke-width:5.76"/>
	<text x="464.06" y="2235.62" style="font-family:'Helvetica';font-size:99.99px;fill:#000000" text-anchor="end">0.25</text>
	<line x1="524.08" y1="1955.19" x2="484.11" y2="1955.19" style="stroke:#000000;stroke-width:5.76"/>
	<text x="464.06" y="1990.22" style="font-family:'Helvetica';font-size:99.99px;fill:#000000" text-anchor="end">0.50</text>
	<line x1="524.08" y1="1709.91" x2="484.11" y2="1709.91" style="stroke:#000000;stroke-width:5.76"/>
	<text x="464.06" y="1744.94" style="font-family:'Helvetica';font-size:99.99px;fill:#000000" text-anchor="end">0.75</text>
	<line x1="524.08" y1="1464.63" x2="484.11" y2="1464.63" style="stroke:#000000;stroke-width:5.76"/>
	<text x="464.06" y="1499.66" style="font-family:'Helvetica';font-size:99.99px;fill:#000000" text-anchor="end">1.00</text>
	<line x1="524.08" y1="1219.22" x2="484.11" y2="1219.22" style="stroke:#000000;stroke-width:5.76"/>
	<text x="464.06" y="1254.25" style="font-family:'Helvetica';font-size:99.99px;fill:#000000" text-anchor="end">1.25</text>
	<line x1="524.08" y1="973.94" x2="484.11" y2="973.94" style="stroke:#000000;stroke-width:5.76"/>
	<text x="464.06" y="1008.97" style="font-family:'Helvetica';font-size:99.99px;fill:#000000" text-anchor="end">1.50</text>
	<line x1="524.08" y1="728.66" x2="484.11" y2="728.66" style="stroke:#000000;stroke-width:5.76"/>
	<text x="464.06" y="763.69" style="font-family:'Helvetica';font-size:99.99px;fill:#000000" text-anchor="end">1.75</text>
	<line x1="524.08" y1="483.26" x2="484.11" y2="483.26" style="stroke:#000000;stroke-width:5.76"/>
	<text x="464.06" y="518.29" style="font-family:'Helvetica';font-size:99.99px;fill:#000000" text-anchor="end">2.00</text>
	<text x="190.71" y="1464.63" style="font-family:'Helvetica';font-size:99.99px;fill:#000000" transform="rotate(-90 190.71,1464.63)" text-anchor="middle">Ratio in Probabilities</text>
	<line x1="524.08" y1="2509.23" x2="3859.02" y2="2509.23" style="stroke:#000000;stroke-width:5.76"/>
	<line x1="587.44" y1="2509.23" x2="587.44" y2="2549.21" style="stroke:#000000;stroke-width:5.76"/>
	<text x="587.44" y="2625.15" style="font-family:'Helvetica';font-size:79.94px;fill:#000000" text-anchor="middle">0</text>
	<line x1="780.00" y1="2509.23" x2="780.00" y2="2549.21" style="stroke:#000000;stroke-width:5.76"/>
	<text x="780.00" y="2625.15" style="font-family:'Helvetica';font-size:79.94px;fill:#000000" text-anchor="middle">.3</text>
	<line x1="972.43" y1="2509.23" x2="972.43" y2="2549.21" style="stroke:#000000;stroke-width:5.76"/>
	<text x="972.43" y="2625.15" style="font-family:'Helvetica';font-size:79.94px;fill:#000000" text-anchor="middle">.6</text>
	<line x1="1164.98" y1="2509.23" x2="1164.98" y2="2549.21" style="stroke:#000000;stroke-width:5.76"/>
	<text x="1164.98" y="2625.15" style="font-family:'Helvetica';font-size:79.94px;fill:#000000" text-anchor="middle">.9</text>
	<line x1="1357.41" y1="2509.23" x2="1357.41" y2="2549.21" style="stroke:#000000;stroke-width:5.76"/>
	<text x="1357.41" y="2625.15" style="font-family:'Helvetica';font-size:79.94px;fill:#000000" text-anchor="middle">1.2</text>
	<line x1="1549.97" y1="2509.23" x2="1549.97" y2="2549.21" style="stroke:#000000;stroke-width:5.76"/>
	<text x="1549.97" y="2625.15" style="font-family:'Helvetica';font-size:79.94px;fill:#000000" text-anchor="middle">1.5</text>
	<line x1="1742.40" y1="2509.23" x2="1742.40" y2="2549.21" style="stroke:#000000;stroke-width:5.76"/>
	<text x="1742.40" y="2625.15" style="font-family:'Helvetica';font-size:79.94px;fill:#000000" text-anchor="middle">1.8</text>
	<line x1="1934.95" y1="2509.23" x2="1934.95" y2="2549.21" style="stroke:#000000;stroke-width:5.76"/>
	<text x="1934.95" y="2625.15" style="font-family:'Helvetica';font-size:79.94px;fill:#000000" text-anchor="middle">2.1</text>
	<line x1="2127.39" y1="2509.23" x2="2127.39" y2="2549.21" style="stroke:#000000;stroke-width:5.76"/>
	<text x="2127.39" y="2625.15" style="font-family:'Helvetica';font-size:79.94px;fill:#000000" text-anchor="middle">2.4</text>
	<line x1="2319.94" y1="2509.23" x2="2319.94" y2="2549.21" style="stroke:#000000;stroke-width:5.76"/>
	<text x="2319.94" y="2625.15" style="font-family:'Helvetica';font-size:79.94px;fill:#000000" text-anchor="middle">2.7</text>
	<line x1="2512.37" y1="2509.23" x2="2512.37" y2="2549.21" style="stroke:#000000;stroke-width:5.76"/>
	<text x="2512.37" y="2625.15" style="font-family:'Helvetica';font-size:79.94px;fill:#000000" text-anchor="middle">3</text>
	<line x1="2704.93" y1="2509.23" x2="2704.93" y2="2549.21" style="stroke:#000000;stroke-width:5.76"/>
	<text x="2704.93" y="2625.15" style="font-family:'Helvetica';font-size:79.94px;fill:#000000" text-anchor="middle">3.3</text>
	<line x1="2897.36" y1="2509.23" x2="2897.36" y2="2549.21" style="stroke:#000000;stroke-width:5.76"/>
	<text x="2897.36" y="2625.15" style="font-family:'Helvetica';font-size:79.94px;fill:#000000" text-anchor="middle">3.6</text>
	<line x1="3089.91" y1="2509.23" x2="3089.91" y2="2549.21" style="stroke:#000000;stroke-width:5.76"/>
	<text x="3089.91" y="2625.15" style="font-family:'Helvetica';font-size:79.94px;fill:#000000" text-anchor="middle">3.9</text>
	<line x1="3282.34" y1="2509.23" x2="3282.34" y2="2549.21" style="stroke:#000000;stroke-width:5.76"/>
	<text x="3282.34" y="2625.15" style="font-family:'Helvetica';font-size:79.94px;fill:#000000" text-anchor="middle">4.2</text>
	<line x1="3474.90" y1="2509.23" x2="3474.90" y2="2549.21" style="stroke:#000000;stroke-width:5.76"/>
	<text x="3474.90" y="2625.15" style="font-family:'Helvetica';font-size:79.94px;fill:#000000" text-anchor="middle">4.5</text>
	<line x1="3667.33" y1="2509.23" x2="3667.33" y2="2549.21" style="stroke:#000000;stroke-width:5.76"/>
	<text x="3667.33" y="2625.15" style="font-family:'Helvetica';font-size:79.94px;fill:#000000" text-anchor="middle">4.8</text>
	<line x1="3859.89" y1="2509.23" x2="3859.89" y2="2549.21" style="stroke:#000000;stroke-width:5.76"/>
	<text x="3859.89" y="2625.15" style="font-family:'Helvetica';font-size:79.94px;fill:#000000" text-anchor="middle">5.1</text>
	<text x="2191.61" y="2729.16" style="font-family:'Helvetica';font-size:99.99px;fill:#000000" text-anchor="middle">Time (years)</text>
	<rect x="558.61" y="454.42" width="993.34" height="326.46" style="fill:#FFFFFF"/>
	<rect x="561.49" y="457.30" width="987.58" height="320.70" style="fill:none;stroke:#000000;stroke-width:5.76"/>
	<rect x="601.92" y="497.74" width="374.34" height="99.99" style="fill:#999999;fill-opacity:0.65"/>
	<rect x="606.24" y="502.06" width="365.70" height="91.35" style="fill:none;stroke:#808080;stroke-opacity:0.65;stroke-width:8.64"/>
	<line x1="601.92" y1="687.70" x2="976.26" y2="687.70" style="stroke:#000000;stroke-width:8.64"/>
	<text x="1036.28" y="582.76" style="font-family:'Helvetica';font-size:99.99px;fill:#000000">CI95%</text>
	<text x="1036.28" y="722.73" style="font-family:'Helvetica';font-size:99.99px;fill:#000000">Difference</text>
	<text x="2191.61" y="369.63" style="font-family:'Helvetica';font-size:110.01px;fill:#000000" text-anchor="middle">from Readmission to 2nd Readmission</text>
	<text x="2191.61" y="215.98" style="font-family:'Helvetica';font-size:139.96px;fill:#1E2D53" text-anchor="middle">Ratio in Probabilities</text>
</svg>
