<?xml version="1.0" encoding="UTF-8" standalone="no"?>
<!-- This is a Stata 16.1 generated SVG file (http://www.stata.com) -->

<svg version="1.1" width="5.50in" height="4.00in" viewBox="0 0 3960 2880" xmlns="http://www.w3.org/2000/svg" xmlns:xlink="http://www.w3.org/1999/xlink">
	<desc>Stata Graph - ratio_models14rp</desc>
	<rect x="0" y="0" width="3960" height="2880" style="fill:#EAF2F3;stroke:none"/>
	<rect x="0.00" y="0.00" width="3959.88" height="2880.00" style="fill:#FFFFFF"/>
	<rect x="2.88" y="2.88" width="3954.12" height="2874.24" style="fill:none;stroke:#FFFFFF;stroke-width:5.76"/>
	<rect x="524.08" y="419.90" width="3334.94" height="2089.34" style="fill:#FFFFFF"/>
	<rect x="526.96" y="422.78" width="3329.18" height="2083.58" style="fill:none;stroke:#FFFFFF;stroke-width:5.76"/>
	<line x1="524.08" y1="1955.19" x2="3859.02" y2="1955.19" style="stroke:#EAF2F3;stroke-width:8.64"/>
	<line x1="524.08" y1="1464.63" x2="3859.02" y2="1464.63" style="stroke:#EAF2F3;stroke-width:8.64"/>
	<line x1="524.08" y1="973.94" x2="3859.02" y2="973.94" style="stroke:#EAF2F3;stroke-width:8.64"/>
	<line x1="524.08" y1="1464.63" x2="3859.02" y2="1464.63" style="stroke:#1A476F;stroke-width:8.64"/>
	<path d=" M745.47 1348.30 L762.55 1348.30 L762.55 1360.55 L779.63 1360.55 L779.63 1380.85 L796.58 1380.85 L796.58 1369.21 L813.66 1369.21 L813.66 1344.34 L830.73 1344.34 L830.73 1330.73 L847.69 1330.73 L847.69 1336.54 L864.76 1336.54 L864.76 1325.03 L881.84 1325.03 L881.84 1331.34 L898.80 1331.34 L898.80 1329.49 L915.87 1329.49 L915.87 1317.73 L932.95 1317.73 L932.95 1322.31 L949.90 1322.31 L949.90 1329.61 L966.98 1329.61 L966.98 1330.23 L984.06 1330.23 L984.06 1326.89 L1001.01 1326.89 L1001.01 1326.27 L1018.09 1326.27 L1018.09 1321.07 L1035.17 1321.07 L1035.17 1319.34 L1052.25 1319.34 L1052.25 1319.96 L1069.20 1319.96 L1069.20 1320.33 L1086.28 1320.33 L1086.28 1323.92 L1103.36 1323.92 L1103.36 1323.92 L1120.31 1323.92 L1120.31 1326.77 L1137.39 1326.77 L1137.39 1330.85 L1154.46 1330.85 L1154.46 1330.23 L1171.42 1330.23 L1171.42 1325.40 L1188.49 1325.40 L1188.49 1326.77 L1205.57 1326.77 L1205.57 1331.84 L1222.53 1331.84 L1222.53 1334.07 L1239.60 1334.07 L1239.60 1334.81 L1256.68 1334.81 L1256.68 1335.80 L1273.63 1335.80 L1273.63 1335.43 L1290.71 1335.43 L1290.71 1337.16 L1307.79 1337.16 L1307.79 1334.81 L1324.74 1334.81 L1324.74 1336.67 L1341.82 1336.67 L1341.82 1335.43 L1358.90 1335.43 L1358.90 1334.56 L1375.85 1334.56 L1375.85 1334.44 L1392.93 1334.44 L1392.93 1331.10 L1410.01 1331.10 L1410.01 1334.81 L1426.96 1334.81 L1426.96 1340.87 L1444.04 1340.87 L1444.04 1340.50 L1461.12 1340.50 L1461.12 1341.00 L1478.07 1341.00 L1478.07 1339.64 L1495.15 1339.64 L1495.15 1341.62 L1512.22 1341.62 L1512.22 1341.24 L1529.18 1341.24 L1529.18 1341.74 L1546.26 1341.74 L1546.26 1340.38 L1563.33 1340.38 L1563.33 1341.86 L1580.29 1341.86 L1580.29 1345.58 L1597.37 1345.58 L1597.37 1346.19 L1614.44 1346.19 L1614.44 1346.94 L1631.52 1346.94 L1631.52 1351.02 L1648.47 1351.02 L1648.47 1349.41 L1665.55 1349.41 L1665.55 1345.70 L1682.63 1345.70 L1682.63 1344.21 L1699.58 1344.21 L1699.58 1345.45 L1716.66 1345.45 L1716.66 1344.59 L1733.74 1344.59 L1733.74 1345.82 L1750.69 1345.82 L1750.69 1345.58 L1767.77 1345.58 L1767.77 1346.32 L1784.85 1346.32 L1784.85 1346.94 L1801.80 1346.94 L1801.80 1347.18 L1818.88 1347.18 L1818.88 1348.17 L1835.95 1348.17 L1835.95 1347.68 L1852.91 1347.68 L1852.91 1347.80 L1869.99 1347.80 L1869.99 1348.55 L1887.06 1348.55 L1887.06 1346.69 L1904.02 1346.69 L1904.02 1347.06 L1921.10 1347.06 L1921.10 1346.44 L1938.17 1346.44 L1938.17 1347.06 L1955.13 1347.06 L1955.13 1346.57 L1972.20 1346.57 L1972.20 1347.06 L1989.28 1347.06 L1989.28 1346.19 L2006.23 1346.19 L2006.23 1345.82 L2023.31 1345.82 L2023.31 1346.69 L2040.39 1346.69 L2040.39 1346.81 L2057.34 1346.81 L2057.34 1346.57 L2074.42 1346.57 L2074.42 1347.06 L2091.50 1347.06 L2091.50 1347.06 L2108.45 1347.06 L2108.45 1346.94 L2125.53 1346.94 L2125.53 1348.05 L2142.61 1348.05 L2142.61 1348.67 L2159.56 1348.67 L2159.56 1349.29 L2176.64 1349.29 L2176.64 1350.90 L2193.72 1350.90 L2193.72 1350.65 L2210.79 1350.65 L2210.79 1349.41 L2227.75 1349.41 L2227.75 1349.29 L2244.82 1349.29 L2244.82 1349.16 L2261.90 1349.16 L2261.90 1349.66 L2278.86 1349.66 L2278.86 1349.78 L2295.93 1349.78 L2295.93 1349.78 L2313.01 1349.78 L2313.01 1350.28 L2329.97 1350.28 L2329.97 1350.40 L2347.04 1350.40 L2347.04 1350.65 L2364.12 1350.65 L2364.12 1351.02 L2381.07 1351.02 L2381.07 1352.51 L2398.15 1352.51 L2398.15 1352.75 L2415.23 1352.75 L2415.23 1353.50 L2432.18 1353.50 L2432.18 1353.62 L2449.26 1353.62 L2449.26 1353.99 L2466.34 1353.99 L2466.34 1354.49 L2483.29 1354.49 L2483.29 1354.11 L2500.37 1354.11 L2500.37 1354.73 L2517.45 1354.73 L2517.45 1355.10 L2534.40 1355.10 L2534.40 1355.23 L2551.48 1355.23 L2551.48 1355.48 L2568.55 1355.48 L2568.55 1355.48 L2585.51 1355.48 L2585.51 1356.09 L2602.59 1356.09 L2602.59 1356.71 L2619.66 1356.71 L2619.66 1357.46 L2636.62 1357.46 L2636.62 1357.83 L2653.70 1357.83 L2653.70 1357.95 L2670.77 1357.95 L2670.77 1359.06 L2687.73 1359.06 L2687.73 1358.32 L2704.80 1358.32 L2704.80 1358.20 L2721.88 1358.20 L2721.88 1358.32 L2738.84 1358.32 L2738.84 1357.33 L2755.91 1357.33 L2755.91 1357.70 L2772.99 1357.70 L2772.99 1357.46 L2790.07 1357.46 L2790.07 1356.59 L2807.02 1356.59 L2807.02 1356.22 L2824.10 1356.22 L2824.10 1356.47 L2841.18 1356.47 L2841.18 1355.60 L2858.13 1355.60 L2858.13 1355.97 L2875.21 1355.97 L2875.21 1355.97 L2892.28 1355.97 L2892.28 1356.84 L2909.24 1356.84 L2909.24 1356.47 L2926.32 1356.47 L2926.32 1355.97 L2943.39 1355.97 L2943.39 1356.22 L2960.35 1356.22 L2960.35 1356.22 L2977.43 1356.22 L2977.43 1357.95 L2994.50 1357.95 L2994.50 1357.83 L3011.46 1357.83 L3011.46 1357.70 L3028.53 1357.70 L3028.53 1357.70 L3045.61 1357.70 L3045.61 1357.83 L3062.57 1357.83 L3062.57 1357.33 L3079.64 1357.33 L3079.64 1357.21 L3096.72 1357.21 L3096.72 1356.96 L3113.67 1356.96 L3113.67 1356.96 L3130.75 1356.96 L3130.75 1357.83 L3147.83 1357.83 L3147.83 1358.69 L3164.78 1358.69 L3164.78 1358.45 L3181.86 1358.45 L3181.86 1359.44 L3198.94 1359.44 L3198.94 1358.94 L3215.89 1358.94 L3215.89 1358.45 L3232.97 1358.45 L3232.97 1358.07 L3250.05 1358.07 L3250.05 1357.95 L3267.00 1357.95 L3267.00 1357.70 L3284.08 1357.70 L3284.08 1357.58 L3301.16 1357.58 L3301.16 1357.83 L3318.23 1357.83 L3318.23 1357.33 L3335.19 1357.33 L3335.19 1357.83 L3352.26 1357.83 L3352.26 1358.07 L3369.34 1358.07 L3369.34 1357.33 L3386.30 1357.33 L3386.30 1357.70 L3403.37 1357.70 L3403.37 1357.95 L3420.45 1357.95 L3420.45 1358.69 L3437.40 1358.69 L3437.40 1358.57 L3454.48 1358.57 L3454.48 1358.82 L3471.56 1358.82 L3471.56 1358.57 L3488.51 1358.57 L3488.51 1358.69 L3505.59 1358.69 L3505.59 1358.69 L3522.67 1358.69 L3522.67 1358.69 L3539.62 1358.69 L3539.62 1358.69 L3556.70 1358.69 L3556.70 1358.57 L3573.78 1358.57 L3573.78 1359.44 L3590.73 1359.44 L3590.73 1359.44 L3607.81 1359.44 L3607.81 1358.94 L3624.89 1358.94 L3624.89 1358.57 L3641.84 1358.57 L3641.84 1358.32 L3658.92 1358.32 L3658.92 1358.82 L3675.99 1358.82 L3675.99 1358.57 L3692.95 1358.57 L3692.95 1357.83 L3710.03 1357.83 L3710.03 1358.07 L3727.10 1358.07 L3727.10 1358.20 L3744.06 1358.20 L3744.06 1358.07 L3761.13 1358.07 L3761.13 1357.83 L3778.21 1357.83 L3778.21 1357.95 L3795.16 1357.95 L3795.16 1357.58" stroke-linejoin="round" style="fill:none;stroke:#000000;stroke-width:8.64"/>
	<line x1="524.08" y1="2509.23" x2="524.08" y2="419.90" style="stroke:#000000;stroke-width:5.76"/>
	<line x1="524.08" y1="2445.87" x2="484.11" y2="2445.87" style="stroke:#000000;stroke-width:5.76"/>
	<text x="464.06" y="2480.90" style="font-family:'Helvetica';font-size:99.99px;fill:#000000" text-anchor="end">0.00</text>
	<line x1="524.08" y1="1955.19" x2="484.11" y2="1955.19" style="stroke:#000000;stroke-width:5.76"/>
	<text x="464.06" y="1990.22" style="font-family:'Helvetica';font-size:99.99px;fill:#000000" text-anchor="end">0.50</text>
	<line x1="524.08" y1="1464.63" x2="484.11" y2="1464.63" style="stroke:#000000;stroke-width:5.76"/>
	<text x="464.06" y="1499.66" style="font-family:'Helvetica';font-size:99.99px;fill:#000000" text-anchor="end">1.00</text>
	<line x1="524.08" y1="973.94" x2="484.11" y2="973.94" style="stroke:#000000;stroke-width:5.76"/>
	<text x="464.06" y="1008.97" style="font-family:'Helvetica';font-size:99.99px;fill:#000000" text-anchor="end">1.50</text>
	<line x1="524.08" y1="483.26" x2="484.11" y2="483.26" style="stroke:#000000;stroke-width:5.76"/>
	<text x="464.06" y="518.29" style="font-family:'Helvetica';font-size:99.99px;fill:#000000" text-anchor="end">2.00</text>
	<text x="190.71" y="1464.63" style="font-family:'Helvetica';font-size:99.99px;fill:#000000" transform="rotate(-90 190.71,1464.63)" text-anchor="middle">Ratio in Probabilities</text>
	<line x1="524.08" y1="2509.23" x2="3859.02" y2="2509.23" style="stroke:#000000;stroke-width:5.76"/>
	<line x1="587.44" y1="2509.23" x2="587.44" y2="2549.21" style="stroke:#000000;stroke-width:5.76"/>
	<text x="587.44" y="2625.15" style="font-family:'Helvetica';font-size:79.94px;fill:#000000" text-anchor="middle">0</text>
	<line x1="780.00" y1="2509.23" x2="780.00" y2="2549.21" style="stroke:#000000;stroke-width:5.76"/>
	<text x="780.00" y="2625.15" style="font-family:'Helvetica';font-size:79.94px;fill:#000000" text-anchor="middle">.3</text>
	<line x1="972.43" y1="2509.23" x2="972.43" y2="2549.21" style="stroke:#000000;stroke-width:5.76"/>
	<text x="972.43" y="2625.15" style="font-family:'Helvetica';font-size:79.94px;fill:#000000" text-anchor="middle">.6</text>
	<line x1="1164.98" y1="2509.23" x2="1164.98" y2="2549.21" style="stroke:#000000;stroke-width:5.76"/>
	<text x="1164.98" y="2625.15" style="font-family:'Helvetica';font-size:79.94px;fill:#000000" text-anchor="middle">.9</text>
	<line x1="1357.41" y1="2509.23" x2="1357.41" y2="2549.21" style="stroke:#000000;stroke-width:5.76"/>
	<text x="1357.41" y="2625.15" style="font-family:'Helvetica';font-size:79.94px;fill:#000000" text-anchor="middle">1.2</text>
	<line x1="1549.97" y1="2509.23" x2="1549.97" y2="2549.21" style="stroke:#000000;stroke-width:5.76"/>
	<text x="1549.97" y="2625.15" style="font-family:'Helvetica';font-size:79.94px;fill:#000000" text-anchor="middle">1.5</text>
	<line x1="1742.40" y1="2509.23" x2="1742.40" y2="2549.21" style="stroke:#000000;stroke-width:5.76"/>
	<text x="1742.40" y="2625.15" style="font-family:'Helvetica';font-size:79.94px;fill:#000000" text-anchor="middle">1.8</text>
	<line x1="1934.95" y1="2509.23" x2="1934.95" y2="2549.21" style="stroke:#000000;stroke-width:5.76"/>
	<text x="1934.95" y="2625.15" style="font-family:'Helvetica';font-size:79.94px;fill:#000000" text-anchor="middle">2.1</text>
	<line x1="2127.39" y1="2509.23" x2="2127.39" y2="2549.21" style="stroke:#000000;stroke-width:5.76"/>
	<text x="2127.39" y="2625.15" style="font-family:'Helvetica';font-size:79.94px;fill:#000000" text-anchor="middle">2.4</text>
	<line x1="2319.94" y1="2509.23" x2="2319.94" y2="2549.21" style="stroke:#000000;stroke-width:5.76"/>
	<text x="2319.94" y="2625.15" style="font-family:'Helvetica';font-size:79.94px;fill:#000000" text-anchor="middle">2.7</text>
	<line x1="2512.37" y1="2509.23" x2="2512.37" y2="2549.21" style="stroke:#000000;stroke-width:5.76"/>
	<text x="2512.37" y="2625.15" style="font-family:'Helvetica';font-size:79.94px;fill:#000000" text-anchor="middle">3</text>
	<line x1="2704.93" y1="2509.23" x2="2704.93" y2="2549.21" style="stroke:#000000;stroke-width:5.76"/>
	<text x="2704.93" y="2625.15" style="font-family:'Helvetica';font-size:79.94px;fill:#000000" text-anchor="middle">3.3</text>
	<line x1="2897.36" y1="2509.23" x2="2897.36" y2="2549.21" style="stroke:#000000;stroke-width:5.76"/>
	<text x="2897.36" y="2625.15" style="font-family:'Helvetica';font-size:79.94px;fill:#000000" text-anchor="middle">3.6</text>
	<line x1="3089.91" y1="2509.23" x2="3089.91" y2="2549.21" style="stroke:#000000;stroke-width:5.76"/>
	<text x="3089.91" y="2625.15" style="font-family:'Helvetica';font-size:79.94px;fill:#000000" text-anchor="middle">3.9</text>
	<line x1="3282.34" y1="2509.23" x2="3282.34" y2="2549.21" style="stroke:#000000;stroke-width:5.76"/>
	<text x="3282.34" y="2625.15" style="font-family:'Helvetica';font-size:79.94px;fill:#000000" text-anchor="middle">4.2</text>
	<line x1="3474.90" y1="2509.23" x2="3474.90" y2="2549.21" style="stroke:#000000;stroke-width:5.76"/>
	<text x="3474.90" y="2625.15" style="font-family:'Helvetica';font-size:79.94px;fill:#000000" text-anchor="middle">4.5</text>
	<line x1="3667.33" y1="2509.23" x2="3667.33" y2="2549.21" style="stroke:#000000;stroke-width:5.76"/>
	<text x="3667.33" y="2625.15" style="font-family:'Helvetica';font-size:79.94px;fill:#000000" text-anchor="middle">4.8</text>
	<line x1="3859.89" y1="2509.23" x2="3859.89" y2="2549.21" style="stroke:#000000;stroke-width:5.76"/>
	<text x="3859.89" y="2625.15" style="font-family:'Helvetica';font-size:79.94px;fill:#000000" text-anchor="middle">5.1</text>
	<text x="2191.61" y="2729.16" style="font-family:'Helvetica';font-size:99.99px;fill:#000000" text-anchor="middle">Time (years)</text>
	<text x="2191.61" y="369.63" style="font-family:'Helvetica';font-size:110.01px;fill:#000000" text-anchor="middle">from Admission to Readmission (0bs) (RP)</text>
	<text x="2191.61" y="215.98" style="font-family:'Helvetica';font-size:139.96px;fill:#1E2D53" text-anchor="middle">Ratio in Probabilities</text>
</svg>
