<?xml version="1.0" encoding="UTF-8" standalone="no"?>
<!-- This is a Stata 16.1 generated SVG file (http://www.stata.com) -->

<svg version="1.1" width="5.50in" height="4.00in" viewBox="0 0 3960 2880" xmlns="http://www.w3.org/2000/svg" xmlns:xlink="http://www.w3.org/1999/xlink">
	<desc>Stata Graph - ratio_models45_3y_tc</desc>
	<rect x="0" y="0" width="3960" height="2880" style="fill:#EAF2F3;stroke:none"/>
	<rect x="0.00" y="0.00" width="3959.88" height="2880.00" style="fill:#FFFFFF"/>
	<rect x="2.88" y="2.88" width="3954.12" height="2874.24" style="fill:none;stroke:#FFFFFF;stroke-width:5.76"/>
	<rect x="524.08" y="419.90" width="3334.94" height="2089.34" style="fill:#FFFFFF"/>
	<rect x="526.96" y="422.78" width="3329.18" height="2083.58" style="fill:none;stroke:#FFFFFF;stroke-width:5.76"/>
	<line x1="524.08" y1="1955.19" x2="3859.02" y2="1955.19" style="stroke:#EAF2F3;stroke-width:8.64"/>
	<line x1="524.08" y1="1464.63" x2="3859.02" y2="1464.63" style="stroke:#EAF2F3;stroke-width:8.64"/>
	<line x1="524.08" y1="973.94" x2="3859.02" y2="973.94" style="stroke:#EAF2F3;stroke-width:8.64"/>
	<line x1="524.08" y1="483.26" x2="3859.02" y2="483.26" style="stroke:#EAF2F3;stroke-width:8.64"/>
	<line x1="524.08" y1="1464.63" x2="3859.02" y2="1464.63" style="stroke:#1A476F;stroke-width:8.64"/>
	<defs>
		<path id="path_TEPRCwXt" d="M745.59 1787.13 L745.59 1787.13 L762.67 1787.13 L762.67 1781.31 L779.63 1781.31 L779.63 1780.32 L796.70 1780.32 L796.70 1774.88 L813.78 1774.88 L813.78 1771.41 L830.73 1771.41 L830.73 1768.32 L847.81 1768.32 L847.81 1759.90 L864.89 1759.90 L864.89 1750.37 L881.84 1750.37 L881.84 1742.33 L898.92 1742.33 L898.92 1741.09 L916.00 1741.09 L916.00 1736.51 L932.95 1736.51 L932.95 1731.69 L950.03 1731.69 L950.03 1726.12 L967.11 1726.12 L967.11 1726.12 L984.06 1726.12 L984.06 1722.04 L1001.14 1722.04 L1001.14 1718.07 L1018.22 1718.07 L1018.22 1717.95 L1035.17 1717.95 L1035.17 1717.21 L1052.25 1717.21 L1052.25 1714.98 L1069.32 1714.98 L1069.32 1712.38 L1086.28 1712.38 L1086.28 1709.91 L1103.36 1709.91 L1103.36 1708.92 L1120.43 1708.92 L1120.43 1706.94 L1137.39 1706.94 L1137.39 1703.60 L1154.46 1703.60 L1154.46 1703.60 L1171.54 1703.60 L1171.54 1701.49 L1188.49 1701.49 L1188.49 1699.88 L1205.57 1699.88 L1205.57 1698.27 L1222.65 1698.27 L1222.65 1696.91 L1239.60 1696.91 L1239.60 1696.05 L1256.68 1696.05 L1256.68 1694.56 L1273.76 1694.56 L1273.76 1693.94 L1290.71 1693.94 L1290.71 1693.82 L1307.79 1693.82 L1307.79 1693.57 L1324.87 1693.57 L1324.87 1692.33 L1341.94 1692.33 L1341.94 1690.60 L1358.90 1690.60 L1358.90 1688.87 L1375.98 1688.87 L1375.98 1688.25 L1393.05 1688.25 L1393.05 1687.63 L1410.01 1687.63 L1410.01 1687.14 L1427.09 1687.14 L1427.09 1684.17 L1444.16 1684.17 L1444.16 1682.43 L1461.12 1682.43 L1461.12 1682.31 L1478.19 1682.31 L1478.19 1680.95 L1495.27 1680.95 L1495.27 1678.84 L1512.22 1678.84 L1512.22 1677.85 L1529.30 1677.85 L1529.30 1676.12 L1546.38 1676.12 L1546.38 1674.27 L1563.33 1674.27 L1563.33 1670.68 L1580.41 1670.68 L1580.41 1668.70 L1597.49 1668.70 L1597.49 1667.71 L1614.44 1667.71 L1614.44 1667.34 L1631.52 1667.34 L1631.52 1665.85 L1648.60 1665.85 L1648.60 1665.73 L1665.55 1665.73 L1665.55 1664.74 L1682.63 1664.74 L1682.63 1665.23 L1699.71 1665.23 L1699.71 1664.98 L1716.66 1664.98 L1716.66 1665.11 L1733.74 1665.11 L1733.74 1664.86 L1750.82 1664.86 L1750.82 1662.76 L1767.77 1662.76 L1767.77 1662.26 L1784.85 1662.26 L1784.85 1661.27 L1801.92 1661.27 L1801.92 1659.79 L1818.88 1659.79 L1818.88 1659.04 L1835.95 1659.04 L1835.95 1657.93 L1853.03 1657.93 L1853.03 1657.31 L1869.99 1657.31 L1869.99 1656.32 L1887.06 1656.32 L1887.06 1655.33 L1904.14 1655.33 L1904.14 1654.71 L1921.22 1654.71 L1921.22 1653.23 L1938.17 1653.23 L1938.17 1651.37 L1955.25 1651.37 L1955.25 1649.89 L1972.33 1649.89 L1972.33 1648.77 L1989.28 1648.77 L1989.28 1648.77 L2006.36 1648.77 L2006.36 1647.91 L2023.44 1647.91 L2023.44 1646.67 L2040.39 1646.67 L2040.39 1645.56 L2057.47 1645.56 L2057.47 1644.57 L2074.55 1644.57 L2074.55 1644.44 L2091.50 1644.44 L2091.50 1642.96 L2108.58 1642.96 L2108.58 1642.46 L2125.65 1642.46 L2125.65 1642.09 L2142.61 1642.09 L2142.61 1640.98 L2159.68 1640.98 L2159.68 1640.11 L2176.76 1640.11 L2176.76 1638.87 L2193.72 1638.87 L2193.72 1638.13 L2210.79 1638.13 L2210.79 1637.02 L2227.87 1637.02 L2227.87 1636.52 L2244.82 1636.52 L2244.82 1636.27 L2261.90 1636.27 L2261.90 1635.04 L2278.98 1635.04 L2278.98 1634.54 L2295.93 1634.54 L2295.93 1633.92 L2313.01 1633.92 L2313.01 1632.68 L2330.09 1632.68 L2330.09 1631.94 L2347.04 1631.94 L2347.04 1631.82 L2364.12 1631.82 L2364.12 1631.20 L2381.20 1631.20 L2381.20 1630.46 L2398.15 1630.46 L2398.15 1629.22 L2415.23 1629.22 L2415.23 1628.35 L2432.31 1628.35 L2432.31 1627.86 L2449.26 1627.86 L2449.26 1627.24 L2466.34 1627.24 L2466.34 1626.87 L2483.41 1626.87 L2483.41 1626.37 L2500.49 1626.37 L2500.49 1626.00 L2517.45 1626.00 L2517.45 1624.89 L2534.52 1624.89 L2534.52 1624.64 L2551.60 1624.64 L2551.60 1625.01 L2568.55 1625.01 L2568.55 1624.89 L2585.63 1624.89 L2585.63 1624.15 L2602.71 1624.15 L2602.71 1623.53 L2619.66 1623.53 L2619.66 1622.91 L2636.74 1622.91 L2636.74 1623.40 L2653.82 1623.40 L2653.82 1622.54 L2670.77 1622.54 L2670.77 1621.79 L2687.85 1621.79 L2687.85 1621.42 L2704.93 1621.42 L2704.93 1620.80 L2721.88 1620.80 L2721.88 1620.68 L2738.96 1620.68 L2738.96 1619.57 L2756.04 1619.57 L2756.04 1618.33 L2772.99 1618.33 L2772.99 1617.34 L2790.07 1617.34 L2790.07 1616.60 L2807.14 1616.60 L2807.14 1615.11 L2824.10 1615.11 L2824.10 1614.86 L2841.18 1614.86 L2841.18 1614.37 L2858.25 1614.37 L2858.25 1613.75 L2875.21 1613.75 L2875.21 1613.38 L2892.28 1613.38 L2892.28 1613.13 L2909.36 1613.13 L2909.36 1612.64 L2926.32 1612.64 L2926.32 1612.27 L2943.39 1612.27 L2943.39 1611.77 L2960.47 1611.77 L2960.47 1611.28 L2977.43 1611.28 L2977.43 1609.91 L2994.50 1609.91 L2994.50 1609.17 L3011.58 1609.17 L3011.58 1608.92 L3028.66 1608.92 L3028.66 1608.18 L3045.61 1608.18 L3045.61 1608.43 L3062.69 1608.43 L3062.69 1607.69 L3079.77 1607.69 L3079.77 1607.81 L3096.72 1607.81 L3096.72 1607.44 L3113.80 1607.44 L3113.80 1607.07 L3130.88 1607.07 L3130.88 1607.07 L3147.83 1607.07 L3147.83 1606.82 L3164.91 1606.82 L3164.91 1606.33 L3181.98 1606.33 L3181.98 1605.83 L3198.94 1605.83 L3198.94 1605.95 L3216.01 1605.95 L3216.01 1604.96 L3233.09 1604.96 L3233.09 1604.96 L3250.05 1604.96 L3250.05 1604.47 L3267.12 1604.47 L3267.12 1604.10 L3284.20 1604.10 L3284.20 1603.23 L3301.16 1603.23 L3301.16 1603.23 L3318.23 1603.23 L3318.23 1603.11 L3335.31 1603.11 L3335.31 1602.74 L3352.26 1602.74 L3352.26 1602.61 L3369.34 1602.61 L3369.34 1602.61 L3386.42 1602.61 L3386.42 1602.61 L3403.37 1602.61 L3403.37 1602.61 L3420.45 1602.61 L3420.45 1602.12 L3437.53 1602.12 L3437.53 1601.75 L3454.48 1601.75 L3454.48 1601.00 L3471.56 1601.00 L3471.56 1600.26 L3488.64 1600.26 L3488.64 1600.39 L3505.59 1600.39 L3505.59 1600.14 L3522.67 1600.14 L3522.67 1599.64 L3539.74 1599.64 L3539.74 1599.02 L3556.70 1599.02 L3556.70 1598.16 L3573.78 1598.16 L3573.78 1597.54 L3590.85 1597.54 L3590.85 1596.92 L3607.93 1596.92 L3607.93 1595.81 L3624.89 1595.81 L3624.89 1595.43 L3641.96 1595.43 L3641.96 1594.82 L3659.04 1594.82 L3659.04 1594.07 L3675.99 1594.07 L3675.99 1593.33 L3693.07 1593.33 L3693.07 1593.33 L3710.15 1593.33 L3710.15 1592.96 L3727.10 1592.96 L3727.10 1592.34 L3744.18 1592.34 L3744.18 1592.09 L3761.26 1592.09 L3761.26 1591.97 L3778.21 1591.97 L3778.21 1591.60 L3795.29 1591.60 L3795.29 1591.10 L3795.29 1249.42 L3795.29 1249.17 L3778.21 1249.17 L3778.21 1248.68 L3761.26 1248.68 L3761.26 1247.81 L3744.18 1247.81 L3744.18 1247.19 L3727.10 1247.19 L3727.10 1246.94 L3710.15 1246.94 L3710.15 1246.33 L3693.07 1246.33 L3693.07 1245.21 L3675.99 1245.21 L3675.99 1245.34 L3659.04 1245.34 L3659.04 1245.34 L3641.96 1245.34 L3641.96 1245.09 L3624.89 1245.09 L3624.89 1244.47 L3607.93 1244.47 L3607.93 1244.84 L3590.85 1244.84 L3590.85 1244.72 L3573.78 1244.72 L3573.78 1244.59 L3556.70 1244.59 L3556.70 1244.47 L3539.74 1244.47 L3539.74 1244.35 L3522.67 1244.35 L3522.67 1243.73 L3505.59 1243.73 L3505.59 1243.11 L3488.64 1243.11 L3488.64 1241.87 L3471.56 1241.87 L3471.56 1241.62 L3454.48 1241.62 L3454.48 1241.62 L3437.53 1241.62 L3437.53 1241.13 L3420.45 1241.13 L3420.45 1240.51 L3403.37 1240.51 L3403.37 1239.27 L3386.42 1239.27 L3386.42 1238.16 L3369.34 1238.16 L3369.34 1236.80 L3352.26 1236.80 L3352.26 1235.68 L3335.31 1235.68 L3335.31 1235.06 L3318.23 1235.06 L3318.23 1233.95 L3301.16 1233.95 L3301.16 1232.84 L3284.20 1232.84 L3284.20 1232.71 L3267.12 1232.71 L3267.12 1231.97 L3250.05 1231.97 L3250.05 1231.47 L3233.09 1231.47 L3233.09 1230.24 L3216.01 1230.24 L3216.01 1230.48 L3198.94 1230.48 L3198.94 1229.00 L3181.98 1229.00 L3181.98 1228.38 L3164.91 1228.38 L3164.91 1227.76 L3147.83 1227.76 L3147.83 1226.77 L3130.88 1226.77 L3130.88 1225.41 L3113.80 1225.41 L3113.80 1224.67 L3096.72 1224.67 L3096.72 1223.68 L3079.77 1223.68 L3079.77 1222.19 L3062.69 1222.19 L3062.69 1221.82 L3045.61 1221.82 L3045.61 1219.97 L3028.66 1219.97 L3028.66 1219.59 L3011.58 1219.59 L3011.58 1218.60 L2994.50 1218.60 L2994.50 1217.99 L2977.43 1217.99 L2977.43 1218.60 L2960.47 1218.60 L2960.47 1217.74 L2943.39 1217.74 L2943.39 1217.00 L2926.32 1217.00 L2926.32 1216.01 L2909.36 1216.01 L2909.36 1215.26 L2892.28 1215.26 L2892.28 1214.15 L2875.21 1214.15 L2875.21 1212.91 L2858.25 1212.91 L2858.25 1212.42 L2841.18 1212.42 L2841.18 1211.43 L2824.10 1211.43 L2824.10 1210.19 L2807.14 1210.19 L2807.14 1210.81 L2790.07 1210.81 L2790.07 1210.31 L2772.99 1210.31 L2772.99 1209.94 L2756.04 1209.94 L2756.04 1210.07 L2738.96 1210.07 L2738.96 1209.82 L2721.88 1209.82 L2721.88 1208.33 L2704.93 1208.33 L2704.93 1207.59 L2687.85 1207.59 L2687.85 1206.35 L2670.77 1206.35 L2670.77 1205.73 L2653.82 1205.73 L2653.82 1205.24 L2636.74 1205.24 L2636.74 1202.89 L2619.66 1202.89 L2619.66 1201.77 L2602.71 1201.77 L2602.71 1200.91 L2585.63 1200.91 L2585.63 1200.17 L2568.55 1200.17 L2568.55 1198.43 L2551.60 1198.43 L2551.60 1195.96 L2534.52 1195.96 L2534.52 1194.60 L2517.45 1194.60 L2517.45 1194.22 L2500.49 1194.22 L2500.49 1192.74 L2483.41 1192.74 L2483.41 1191.75 L2466.34 1191.75 L2466.34 1190.02 L2449.26 1190.02 L2449.26 1188.66 L2432.31 1188.66 L2432.31 1187.54 L2415.23 1187.54 L2415.23 1186.80 L2398.15 1186.80 L2398.15 1186.30 L2381.20 1186.30 L2381.20 1185.19 L2364.12 1185.19 L2364.12 1184.20 L2347.04 1184.20 L2347.04 1182.34 L2330.09 1182.34 L2330.09 1181.35 L2313.01 1181.35 L2313.01 1180.86 L2295.93 1180.86 L2295.93 1179.62 L2278.98 1179.62 L2278.98 1178.01 L2261.90 1178.01 L2261.90 1177.64 L2244.82 1177.64 L2244.82 1175.91 L2227.87 1175.91 L2227.87 1174.18 L2210.79 1174.18 L2210.79 1173.68 L2193.72 1173.68 L2193.72 1172.32 L2176.76 1172.32 L2176.76 1171.95 L2159.68 1171.95 L2159.68 1170.96 L2142.61 1170.96 L2142.61 1169.97 L2125.65 1169.97 L2125.65 1168.11 L2108.58 1168.11 L2108.58 1166.26 L2091.50 1166.26 L2091.50 1165.76 L2074.55 1165.76 L2074.55 1163.66 L2057.47 1163.66 L2057.47 1162.30 L2040.39 1162.30 L2040.39 1161.31 L2023.44 1161.31 L2023.44 1160.44 L2006.36 1160.44 L2006.36 1158.95 L1989.28 1158.95 L1989.28 1155.86 L1972.33 1155.86 L1972.33 1154.87 L1955.25 1154.87 L1955.25 1154.38 L1938.17 1154.38 L1938.17 1154.50 L1921.22 1154.50 L1921.22 1153.88 L1904.14 1153.88 L1904.14 1151.90 L1887.06 1151.90 L1887.06 1150.42 L1869.99 1150.42 L1869.99 1149.05 L1853.03 1149.05 L1853.03 1146.83 L1835.95 1146.83 L1835.95 1145.34 L1818.88 1145.34 L1818.88 1143.36 L1801.92 1143.36 L1801.92 1142.12 L1784.85 1142.12 L1784.85 1140.27 L1767.77 1140.27 L1767.77 1137.79 L1750.82 1137.79 L1750.82 1137.42 L1733.74 1137.42 L1733.74 1133.83 L1716.66 1133.83 L1716.66 1129.75 L1699.71 1129.75 L1699.71 1126.66 L1682.63 1126.66 L1682.63 1121.95 L1665.55 1121.95 L1665.55 1119.35 L1648.60 1119.35 L1648.60 1115.64 L1631.52 1115.64 L1631.52 1113.78 L1614.44 1113.78 L1614.44 1110.44 L1597.49 1110.44 L1597.49 1107.72 L1580.41 1107.72 L1580.41 1106.61 L1563.33 1106.61 L1563.33 1108.22 L1546.38 1108.22 L1546.38 1106.48 L1529.30 1106.48 L1529.30 1104.50 L1512.22 1104.50 L1512.22 1101.29 L1495.27 1101.29 L1495.27 1099.80 L1478.19 1099.80 L1478.19 1097.57 L1461.12 1097.57 L1461.12 1092.13 L1444.16 1092.13 L1444.16 1089.53 L1427.09 1089.53 L1427.09 1089.65 L1410.01 1089.65 L1410.01 1084.83 L1393.05 1084.83 L1393.05 1080.62 L1375.98 1080.62 L1375.98 1075.67 L1358.90 1075.67 L1358.90 1073.19 L1341.94 1073.19 L1341.94 1070.47 L1324.87 1070.47 L1324.87 1066.02 L1307.79 1066.02 L1307.79 1059.95 L1290.71 1059.95 L1290.71 1053.89 L1273.76 1053.89 L1273.76 1047.95 L1256.68 1047.95 L1256.68 1043.49 L1239.60 1043.49 L1239.60 1038.05 L1222.65 1038.05 L1222.65 1033.22 L1205.57 1033.22 L1205.57 1028.27 L1188.49 1028.27 L1188.49 1023.32 L1171.54 1023.32 L1171.54 1018.49 L1154.46 1018.49 L1154.46 1009.58 L1137.39 1009.58 L1137.39 1006.61 L1120.43 1006.61 L1120.43 1001.17 L1103.36 1001.17 L1103.36 993.25 L1086.28 993.25 L1086.28 988.55 L1069.32 988.55 L1069.32 982.36 L1052.25 982.36 L1052.25 975.06 L1035.17 975.06 L1035.17 965.40 L1018.22 965.40 L1018.22 953.89 L1001.14 953.89 L1001.14 948.20 L984.06 948.20 L984.06 942.26 L967.11 942.26 L967.11 927.54 L950.03 927.54 L950.03 923.95 L932.95 923.95 L932.95 917.88 L916.00 917.88 L916.00 910.83 L898.92 910.83 L898.92 894.74 L881.84 894.74 L881.84 892.76 L864.89 892.76 L864.89 890.78 L847.81 890.78 L847.81 887.56 L830.73 887.56 L830.73 867.39 L813.78 867.39 L813.78 847.47 L796.70 847.47 L796.70 828.53 L779.63 828.53 L779.63 794.62 L762.67 794.62 L762.67 771.73 L745.59 771.73 L745.59 1787.13 Z" stroke-linejoin="round"/>
	</defs>
	<defs>
		<clipPath id="clipPath_XfrUoTHE">
			<use xlink:href="#path_TEPRCwXt"/>
		</clipPath>
	</defs>
	<use xlink:href="#path_TEPRCwXt" style="stroke:none;fill:#999999;fill-opacity:0.65"/>
	<use xlink:href="#path_TEPRCwXt" style="fill:none;stroke:#808080;stroke-opacity:0.65;stroke-width:17.28" clip-path="url(#clipPath_XfrUoTHE)"/>
	<path d=" M745.47 1395.82 L762.55 1395.82 L762.55 1398.29 L779.63 1398.29 L779.63 1408.44 L796.58 1408.44 L796.58 1410.30 L813.66 1410.30 L813.66 1414.14 L830.73 1414.14 L830.73 1418.34 L847.69 1418.34 L847.69 1413.15 L864.76 1413.15 L864.76 1406.59 L881.84 1406.59 L881.84 1401.27 L898.80 1401.27 L898.80 1405.72 L915.87 1405.72 L915.87 1404.85 L932.95 1404.85 L932.95 1403.37 L949.90 1403.37 L949.90 1400.52 L966.98 1400.52 L966.98 1405.60 L984.06 1405.60 L984.06 1404.73 L1001.01 1404.73 L1001.01 1403.86 L1018.09 1403.86 L1018.09 1407.82 L1035.17 1407.82 L1035.17 1410.67 L1052.25 1410.67 L1052.25 1411.66 L1069.20 1411.66 L1069.20 1412.03 L1086.28 1412.03 L1086.28 1411.91 L1103.36 1411.91 L1103.36 1414.14 L1120.31 1414.14 L1120.31 1414.75 L1137.39 1414.75 L1137.39 1413.39 L1154.46 1413.39 L1154.46 1416.61 L1171.42 1416.61 L1171.42 1416.98 L1188.49 1416.98 L1188.49 1417.60 L1205.57 1417.60 L1205.57 1418.22 L1222.53 1418.22 L1222.53 1419.09 L1239.60 1419.09 L1239.60 1420.45 L1256.68 1420.45 L1256.68 1421.07 L1273.63 1421.07 L1273.63 1422.92 L1290.71 1422.92 L1290.71 1425.03 L1307.79 1425.03 L1307.79 1427.01 L1324.74 1427.01 L1324.74 1428.00 L1341.82 1428.00 L1341.82 1427.75 L1358.90 1427.75 L1358.90 1427.50 L1375.85 1427.50 L1375.85 1428.99 L1392.93 1428.99 L1392.93 1430.10 L1410.01 1430.10 L1410.01 1431.58 L1426.96 1431.58 L1426.96 1429.48 L1444.04 1429.48 L1444.04 1429.23 L1461.12 1429.23 L1461.12 1431.34 L1478.07 1431.34 L1478.07 1431.21 L1495.15 1431.21 L1495.15 1430.35 L1512.22 1430.35 L1512.22 1430.97 L1529.18 1430.97 L1529.18 1430.59 L1546.26 1430.59 L1546.26 1429.98 L1563.33 1429.98 L1563.33 1427.01 L1580.29 1427.01 L1580.29 1426.14 L1597.37 1426.14 L1597.37 1426.51 L1614.44 1426.51 L1614.44 1427.50 L1631.52 1427.50 L1631.52 1427.38 L1648.47 1427.38 L1648.47 1428.61 L1665.55 1428.61 L1665.55 1428.99 L1682.63 1428.99 L1682.63 1431.09 L1699.58 1431.09 L1699.58 1432.20 L1716.66 1432.20 L1716.66 1433.81 L1733.74 1433.81 L1733.74 1435.05 L1750.69 1435.05 L1750.69 1433.81 L1767.77 1433.81 L1767.77 1434.43 L1784.85 1434.43 L1784.85 1434.55 L1801.80 1434.55 L1801.80 1434.06 L1818.88 1434.06 L1818.88 1434.43 L1835.95 1434.43 L1835.95 1434.18 L1852.91 1434.18 L1852.91 1434.68 L1869.99 1434.68 L1869.99 1434.55 L1887.06 1434.55 L1887.06 1434.43 L1904.02 1434.43 L1904.02 1434.93 L1921.10 1434.93 L1921.10 1434.31 L1938.17 1434.31 L1938.17 1432.95 L1955.13 1432.95 L1955.13 1432.20 L1972.20 1432.20 L1972.20 1431.96 L1989.28 1431.96 L1989.28 1433.07 L2006.23 1433.07 L2006.23 1433.19 L2023.31 1433.19 L2023.31 1432.70 L2040.39 1432.70 L2040.39 1432.45 L2057.34 1432.45 L2057.34 1432.33 L2074.42 1432.33 L2074.42 1433.07 L2091.50 1433.07 L2091.50 1432.33 L2108.45 1432.33 L2108.45 1432.70 L2125.53 1432.70 L2125.53 1433.19 L2142.61 1433.19 L2142.61 1432.95 L2159.56 1432.95 L2159.56 1432.82 L2176.64 1432.82 L2176.64 1432.08 L2193.72 1432.08 L2193.72 1432.20 L2210.79 1432.20 L2210.79 1431.71 L2227.75 1431.71 L2227.75 1432.08 L2244.82 1432.08 L2244.82 1432.70 L2261.90 1432.70 L2261.90 1432.08 L2278.86 1432.08 L2278.86 1432.45 L2295.93 1432.45 L2295.93 1432.45 L2313.01 1432.45 L2313.01 1431.83 L2329.97 1431.83 L2329.97 1431.83 L2347.04 1431.83 L2347.04 1432.57 L2364.12 1432.57 L2364.12 1432.45 L2381.07 1432.45 L2381.07 1432.45 L2398.15 1432.45 L2398.15 1431.96 L2415.23 1431.96 L2415.23 1431.71 L2432.18 1431.71 L2432.18 1431.83 L2449.26 1431.83 L2449.26 1432.08 L2466.34 1432.08 L2466.34 1432.45 L2483.29 1432.45 L2483.29 1432.45 L2500.37 1432.45 L2500.37 1432.95 L2517.45 1432.95 L2517.45 1432.33 L2534.40 1432.33 L2534.40 1432.82 L2551.48 1432.82 L2551.48 1433.94 L2568.55 1433.94 L2568.55 1434.68 L2585.51 1434.68 L2585.51 1434.55 L2602.59 1434.55 L2602.59 1434.43 L2619.66 1434.43 L2619.66 1434.55 L2636.62 1434.55 L2636.62 1435.79 L2653.70 1435.79 L2653.70 1435.42 L2670.77 1435.42 L2670.77 1435.30 L2687.73 1435.30 L2687.73 1435.54 L2704.80 1435.54 L2704.80 1435.42 L2721.88 1435.42 L2721.88 1435.92 L2738.84 1435.92 L2738.84 1435.42 L2755.91 1435.42 L2755.91 1434.55 L2772.99 1434.55 L2772.99 1434.18 L2790.07 1434.18 L2790.07 1433.94 L2807.02 1433.94 L2807.02 1432.70 L2824.10 1432.70 L2824.10 1433.07 L2841.18 1433.07 L2841.18 1433.19 L2858.13 1433.19 L2858.13 1433.07 L2875.21 1433.07 L2875.21 1433.32 L2892.28 1433.32 L2892.28 1433.69 L2909.24 1433.69 L2909.24 1433.69 L2926.32 1433.69 L2926.32 1433.81 L2943.39 1433.81 L2943.39 1433.81 L2960.35 1433.81 L2960.35 1433.81 L2977.43 1433.81 L2977.43 1432.82 L2994.50 1432.82 L2994.50 1432.57 L3011.46 1432.57 L3011.46 1432.82 L3028.53 1432.82 L3028.53 1432.57 L3045.61 1432.57 L3045.61 1433.44 L3062.57 1433.44 L3062.57 1433.19 L3079.64 1433.19 L3079.64 1433.81 L3096.72 1433.81 L3096.72 1434.06 L3113.67 1434.06 L3113.67 1434.18 L3130.75 1434.18 L3130.75 1434.68 L3147.83 1434.68 L3147.83 1434.93 L3164.78 1434.93 L3164.78 1434.93 L3181.86 1434.93 L3181.86 1434.93 L3198.94 1434.93 L3198.94 1435.54 L3215.89 1435.54 L3215.89 1434.80 L3232.97 1434.80 L3232.97 1435.30 L3250.05 1435.30 L3250.05 1435.30 L3267.00 1435.30 L3267.00 1435.30 L3284.08 1435.30 L3284.08 1434.93 L3301.16 1434.93 L3301.16 1435.42 L3318.23 1435.42 L3318.23 1435.79 L3335.19 1435.79 L3335.19 1435.79 L3352.26 1435.79 L3352.26 1436.16 L3369.34 1436.16 L3369.34 1436.78 L3386.30 1436.78 L3386.30 1437.28 L3403.37 1437.28 L3403.37 1437.77 L3420.45 1437.77 L3420.45 1437.77 L3437.40 1437.77 L3437.40 1437.77 L3454.48 1437.77 L3454.48 1437.28 L3471.56 1437.28 L3471.56 1436.91 L3488.51 1436.91 L3488.51 1437.52 L3505.59 1437.52 L3505.59 1437.52 L3522.67 1437.52 L3522.67 1437.52 L3539.62 1437.52 L3539.62 1437.28 L3556.70 1437.28 L3556.70 1436.78 L3573.78 1436.78 L3573.78 1436.41 L3590.73 1436.41 L3590.73 1436.16 L3607.81 1436.16 L3607.81 1435.42 L3624.89 1435.42 L3624.89 1435.42 L3641.84 1435.42 L3641.84 1435.17 L3658.92 1435.17 L3658.92 1434.68 L3675.99 1434.68 L3675.99 1434.18 L3692.95 1434.18 L3692.95 1434.68 L3710.03 1434.68 L3710.03 1434.68 L3727.10 1434.68 L3727.10 1434.43 L3744.06 1434.43 L3744.06 1434.55 L3761.13 1434.55 L3761.13 1434.93 L3778.21 1434.93 L3778.21 1434.80 L3795.16 1434.80 L3795.16 1434.68" stroke-linejoin="round" style="fill:none;stroke:#000000;stroke-width:8.64"/>
	<line x1="524.08" y1="2509.23" x2="524.08" y2="419.90" style="stroke:#000000;stroke-width:5.76"/>
	<line x1="524.08" y1="2445.87" x2="484.11" y2="2445.87" style="stroke:#000000;stroke-width:5.76"/>
	<text x="464.06" y="2480.90" style="font-family:'Helvetica';font-size:99.99px;fill:#000000" text-anchor="end">0.00</text>
	<line x1="524.08" y1="1955.19" x2="484.11" y2="1955.19" style="stroke:#000000;stroke-width:5.76"/>
	<text x="464.06" y="1990.22" style="font-family:'Helvetica';font-size:99.99px;fill:#000000" text-anchor="end">0.50</text>
	<line x1="524.08" y1="1464.63" x2="484.11" y2="1464.63" style="stroke:#000000;stroke-width:5.76"/>
	<text x="464.06" y="1499.66" style="font-family:'Helvetica';font-size:99.99px;fill:#000000" text-anchor="end">1.00</text>
	<line x1="524.08" y1="973.94" x2="484.11" y2="973.94" style="stroke:#000000;stroke-width:5.76"/>
	<text x="464.06" y="1008.97" style="font-family:'Helvetica';font-size:99.99px;fill:#000000" text-anchor="end">1.50</text>
	<line x1="524.08" y1="483.26" x2="484.11" y2="483.26" style="stroke:#000000;stroke-width:5.76"/>
	<text x="464.06" y="518.29" style="font-family:'Helvetica';font-size:99.99px;fill:#000000" text-anchor="end">2.00</text>
	<text x="190.71" y="1464.63" style="font-family:'Helvetica';font-size:99.99px;fill:#000000" transform="rotate(-90 190.71,1464.63)" text-anchor="middle">Ratio in Probabilities</text>
	<line x1="524.08" y1="2509.23" x2="3859.02" y2="2509.23" style="stroke:#000000;stroke-width:5.76"/>
	<line x1="587.44" y1="2509.23" x2="587.44" y2="2549.21" style="stroke:#000000;stroke-width:5.76"/>
	<text x="587.44" y="2625.15" style="font-family:'Helvetica';font-size:79.94px;fill:#000000" text-anchor="middle">0</text>
	<line x1="780.00" y1="2509.23" x2="780.00" y2="2549.21" style="stroke:#000000;stroke-width:5.76"/>
	<text x="780.00" y="2625.15" style="font-family:'Helvetica';font-size:79.94px;fill:#000000" text-anchor="middle">.3</text>
	<line x1="972.43" y1="2509.23" x2="972.43" y2="2549.21" style="stroke:#000000;stroke-width:5.76"/>
	<text x="972.43" y="2625.15" style="font-family:'Helvetica';font-size:79.94px;fill:#000000" text-anchor="middle">.6</text>
	<line x1="1164.98" y1="2509.23" x2="1164.98" y2="2549.21" style="stroke:#000000;stroke-width:5.76"/>
	<text x="1164.98" y="2625.15" style="font-family:'Helvetica';font-size:79.94px;fill:#000000" text-anchor="middle">.9</text>
	<line x1="1357.41" y1="2509.23" x2="1357.41" y2="2549.21" style="stroke:#000000;stroke-width:5.76"/>
	<text x="1357.41" y="2625.15" style="font-family:'Helvetica';font-size:79.94px;fill:#000000" text-anchor="middle">1.2</text>
	<line x1="1549.97" y1="2509.23" x2="1549.97" y2="2549.21" style="stroke:#000000;stroke-width:5.76"/>
	<text x="1549.97" y="2625.15" style="font-family:'Helvetica';font-size:79.94px;fill:#000000" text-anchor="middle">1.5</text>
	<line x1="1742.40" y1="2509.23" x2="1742.40" y2="2549.21" style="stroke:#000000;stroke-width:5.76"/>
	<text x="1742.40" y="2625.15" style="font-family:'Helvetica';font-size:79.94px;fill:#000000" text-anchor="middle">1.8</text>
	<line x1="1934.95" y1="2509.23" x2="1934.95" y2="2549.21" style="stroke:#000000;stroke-width:5.76"/>
	<text x="1934.95" y="2625.15" style="font-family:'Helvetica';font-size:79.94px;fill:#000000" text-anchor="middle">2.1</text>
	<line x1="2127.39" y1="2509.23" x2="2127.39" y2="2549.21" style="stroke:#000000;stroke-width:5.76"/>
	<text x="2127.39" y="2625.15" style="font-family:'Helvetica';font-size:79.94px;fill:#000000" text-anchor="middle">2.4</text>
	<line x1="2319.94" y1="2509.23" x2="2319.94" y2="2549.21" style="stroke:#000000;stroke-width:5.76"/>
	<text x="2319.94" y="2625.15" style="font-family:'Helvetica';font-size:79.94px;fill:#000000" text-anchor="middle">2.7</text>
	<line x1="2512.37" y1="2509.23" x2="2512.37" y2="2549.21" style="stroke:#000000;stroke-width:5.76"/>
	<text x="2512.37" y="2625.15" style="font-family:'Helvetica';font-size:79.94px;fill:#000000" text-anchor="middle">3</text>
	<line x1="2704.93" y1="2509.23" x2="2704.93" y2="2549.21" style="stroke:#000000;stroke-width:5.76"/>
	<text x="2704.93" y="2625.15" style="font-family:'Helvetica';font-size:79.94px;fill:#000000" text-anchor="middle">3.3</text>
	<line x1="2897.36" y1="2509.23" x2="2897.36" y2="2549.21" style="stroke:#000000;stroke-width:5.76"/>
	<text x="2897.36" y="2625.15" style="font-family:'Helvetica';font-size:79.94px;fill:#000000" text-anchor="middle">3.6</text>
	<line x1="3089.91" y1="2509.23" x2="3089.91" y2="2549.21" style="stroke:#000000;stroke-width:5.76"/>
	<text x="3089.91" y="2625.15" style="font-family:'Helvetica';font-size:79.94px;fill:#000000" text-anchor="middle">3.9</text>
	<line x1="3282.34" y1="2509.23" x2="3282.34" y2="2549.21" style="stroke:#000000;stroke-width:5.76"/>
	<text x="3282.34" y="2625.15" style="font-family:'Helvetica';font-size:79.94px;fill:#000000" text-anchor="middle">4.2</text>
	<line x1="3474.90" y1="2509.23" x2="3474.90" y2="2549.21" style="stroke:#000000;stroke-width:5.76"/>
	<text x="3474.90" y="2625.15" style="font-family:'Helvetica';font-size:79.94px;fill:#000000" text-anchor="middle">4.5</text>
	<line x1="3667.33" y1="2509.23" x2="3667.33" y2="2549.21" style="stroke:#000000;stroke-width:5.76"/>
	<text x="3667.33" y="2625.15" style="font-family:'Helvetica';font-size:79.94px;fill:#000000" text-anchor="middle">4.8</text>
	<line x1="3859.89" y1="2509.23" x2="3859.89" y2="2549.21" style="stroke:#000000;stroke-width:5.76"/>
	<text x="3859.89" y="2625.15" style="font-family:'Helvetica';font-size:79.94px;fill:#000000" text-anchor="middle">5.1</text>
	<text x="2191.61" y="2729.16" style="font-family:'Helvetica';font-size:99.99px;fill:#000000" text-anchor="middle">Time (years)</text>
	<rect x="558.61" y="454.42" width="993.34" height="326.46" style="fill:#FFFFFF"/>
	<rect x="561.49" y="457.30" width="987.58" height="320.70" style="fill:none;stroke:#000000;stroke-width:5.76"/>
	<rect x="601.92" y="497.74" width="374.34" height="99.99" style="fill:#999999;fill-opacity:0.65"/>
	<rect x="606.24" y="502.06" width="365.70" height="91.35" style="fill:none;stroke:#808080;stroke-opacity:0.65;stroke-width:8.64"/>
	<line x1="601.92" y1="687.70" x2="976.26" y2="687.70" style="stroke:#000000;stroke-width:8.64"/>
	<text x="1036.28" y="582.76" style="font-family:'Helvetica';font-size:99.99px;fill:#000000">CI95%</text>
	<text x="1036.28" y="722.73" style="font-family:'Helvetica';font-size:99.99px;fill:#000000">Difference</text>
	<text x="2191.61" y="369.63" style="font-family:'Helvetica';font-size:110.01px;fill:#000000" text-anchor="middle">from 3rd Readmission to 4th Readmission</text>
	<text x="2191.61" y="215.98" style="font-family:'Helvetica';font-size:139.96px;fill:#1E2D53" text-anchor="middle">Ratio in Probabilities</text>
</svg>
