<?xml version="1.0" encoding="UTF-8" standalone="no"?>
<!-- This is a Stata 16.1 generated SVG file (http://www.stata.com) -->

<svg version="1.1" width="5.50in" height="4.00in" viewBox="0 0 3960 2880" xmlns="http://www.w3.org/2000/svg" xmlns:xlink="http://www.w3.org/1999/xlink">
	<desc>Stata Graph - ratio_models23_3y_tc</desc>
	<rect x="0" y="0" width="3960" height="2880" style="fill:#EAF2F3;stroke:none"/>
	<rect x="0.00" y="0.00" width="3959.88" height="2880.00" style="fill:#FFFFFF"/>
	<rect x="2.88" y="2.88" width="3954.12" height="2874.24" style="fill:none;stroke:#FFFFFF;stroke-width:5.76"/>
	<rect x="524.08" y="419.90" width="3334.94" height="2089.34" style="fill:#FFFFFF"/>
	<rect x="526.96" y="422.78" width="3329.18" height="2083.58" style="fill:none;stroke:#FFFFFF;stroke-width:5.76"/>
	<line x1="524.08" y1="1955.19" x2="3859.02" y2="1955.19" style="stroke:#EAF2F3;stroke-width:8.64"/>
	<line x1="524.08" y1="1464.63" x2="3859.02" y2="1464.63" style="stroke:#EAF2F3;stroke-width:8.64"/>
	<line x1="524.08" y1="973.94" x2="3859.02" y2="973.94" style="stroke:#EAF2F3;stroke-width:8.64"/>
	<line x1="524.08" y1="1464.63" x2="3859.02" y2="1464.63" style="stroke:#1A476F;stroke-width:8.64"/>
	<defs>
		<path id="path_pDvvmIVq" d="M745.59 1616.84 L745.59 1616.84 L762.67 1616.84 L762.67 1611.40 L779.63 1611.40 L779.63 1598.28 L796.70 1598.28 L796.70 1579.47 L813.78 1579.47 L813.78 1574.27 L830.73 1574.27 L830.73 1565.36 L847.81 1565.36 L847.81 1574.03 L864.89 1574.03 L864.89 1566.85 L881.84 1566.85 L881.84 1566.23 L898.92 1566.23 L898.92 1570.56 L916.00 1570.56 L916.00 1564.74 L932.95 1564.74 L932.95 1556.20 L950.03 1556.20 L950.03 1560.04 L967.11 1560.04 L967.11 1558.68 L984.06 1558.68 L984.06 1556.82 L1001.14 1556.82 L1001.14 1553.23 L1018.22 1553.23 L1018.22 1554.22 L1035.17 1554.22 L1035.17 1553.48 L1052.25 1553.48 L1052.25 1548.78 L1069.32 1548.78 L1069.32 1549.52 L1086.28 1549.52 L1086.28 1545.07 L1103.36 1545.07 L1103.36 1544.82 L1120.43 1544.82 L1120.43 1548.53 L1137.39 1548.53 L1137.39 1552.12 L1154.46 1552.12 L1154.46 1549.27 L1171.54 1549.27 L1171.54 1551.38 L1188.49 1551.38 L1188.49 1549.15 L1205.57 1549.15 L1205.57 1547.91 L1222.65 1547.91 L1222.65 1549.27 L1239.60 1549.27 L1239.60 1548.66 L1256.68 1548.66 L1256.68 1544.45 L1273.76 1544.45 L1273.76 1541.11 L1290.71 1541.11 L1290.71 1542.10 L1307.79 1542.10 L1307.79 1539.75 L1324.87 1539.75 L1324.87 1541.35 L1341.94 1541.35 L1341.94 1537.89 L1358.90 1537.89 L1358.90 1538.01 L1375.98 1538.01 L1375.98 1539.50 L1393.05 1539.50 L1393.05 1541.60 L1410.01 1541.60 L1410.01 1541.48 L1427.09 1541.48 L1427.09 1542.22 L1444.16 1542.22 L1444.16 1540.98 L1461.12 1540.98 L1461.12 1542.47 L1478.19 1542.47 L1478.19 1542.22 L1495.27 1542.22 L1495.27 1542.10 L1512.22 1542.10 L1512.22 1541.60 L1529.30 1541.60 L1529.30 1539.50 L1546.38 1539.50 L1546.38 1539.87 L1563.33 1539.87 L1563.33 1540.98 L1580.41 1540.98 L1580.41 1542.84 L1597.49 1542.84 L1597.49 1540.12 L1614.44 1540.12 L1614.44 1541.85 L1631.52 1541.85 L1631.52 1541.35 L1648.60 1541.35 L1648.60 1539.37 L1665.55 1539.37 L1665.55 1540.74 L1682.63 1540.74 L1682.63 1541.97 L1699.71 1541.97 L1699.71 1542.72 L1716.66 1542.72 L1716.66 1541.73 L1733.74 1541.73 L1733.74 1541.97 L1750.82 1541.97 L1750.82 1542.84 L1767.77 1542.84 L1767.77 1542.59 L1784.85 1542.59 L1784.85 1542.22 L1801.92 1542.22 L1801.92 1544.20 L1818.88 1544.20 L1818.88 1544.57 L1835.95 1544.57 L1835.95 1546.06 L1853.03 1546.06 L1853.03 1545.44 L1869.99 1545.44 L1869.99 1544.94 L1887.06 1544.94 L1887.06 1544.57 L1904.14 1544.57 L1904.14 1545.07 L1921.22 1545.07 L1921.22 1543.21 L1938.17 1543.21 L1938.17 1543.71 L1955.25 1543.71 L1955.25 1541.97 L1972.33 1541.97 L1972.33 1541.35 L1989.28 1541.35 L1989.28 1540.24 L2006.36 1540.24 L2006.36 1539.25 L2023.44 1539.25 L2023.44 1537.02 L2040.39 1537.02 L2040.39 1537.64 L2057.47 1537.64 L2057.47 1538.51 L2074.55 1538.51 L2074.55 1538.38 L2091.50 1538.38 L2091.50 1539.75 L2108.58 1539.75 L2108.58 1540.98 L2125.65 1540.98 L2125.65 1541.11 L2142.61 1541.11 L2142.61 1540.98 L2159.68 1540.98 L2159.68 1540.98 L2176.76 1540.98 L2176.76 1541.97 L2193.72 1541.97 L2193.72 1541.11 L2210.79 1541.11 L2210.79 1542.59 L2227.87 1542.59 L2227.87 1541.23 L2244.82 1541.23 L2244.82 1540.49 L2261.90 1540.49 L2261.90 1540.49 L2278.98 1540.49 L2278.98 1540.86 L2295.93 1540.86 L2295.93 1540.98 L2313.01 1540.98 L2313.01 1540.49 L2330.09 1540.49 L2330.09 1540.74 L2347.04 1540.74 L2347.04 1541.23 L2364.12 1541.23 L2364.12 1541.97 L2381.20 1541.97 L2381.20 1541.11 L2398.15 1541.11 L2398.15 1543.33 L2415.23 1543.33 L2415.23 1542.10 L2432.31 1542.10 L2432.31 1542.96 L2449.26 1542.96 L2449.26 1543.46 L2466.34 1543.46 L2466.34 1542.96 L2483.41 1542.96 L2483.41 1543.95 L2500.49 1543.95 L2500.49 1544.45 L2517.45 1544.45 L2517.45 1544.20 L2534.52 1544.20 L2534.52 1543.21 L2551.60 1543.21 L2551.60 1542.10 L2568.55 1542.10 L2568.55 1542.10 L2585.63 1542.10 L2585.63 1541.23 L2602.71 1541.23 L2602.71 1539.99 L2619.66 1539.99 L2619.66 1538.14 L2636.74 1538.14 L2636.74 1537.64 L2653.82 1537.64 L2653.82 1535.91 L2670.77 1535.91 L2670.77 1537.02 L2687.85 1537.02 L2687.85 1536.40 L2704.93 1536.40 L2704.93 1534.05 L2721.88 1534.05 L2721.88 1534.30 L2738.96 1534.30 L2738.96 1533.56 L2756.04 1533.56 L2756.04 1534.30 L2772.99 1534.30 L2772.99 1534.92 L2790.07 1534.92 L2790.07 1534.30 L2807.14 1534.30 L2807.14 1534.55 L2824.10 1534.55 L2824.10 1533.93 L2841.18 1533.93 L2841.18 1534.67 L2858.25 1534.67 L2858.25 1536.16 L2875.21 1536.16 L2875.21 1536.28 L2892.28 1536.28 L2892.28 1536.16 L2909.36 1536.16 L2909.36 1535.54 L2926.32 1535.54 L2926.32 1535.04 L2943.39 1535.04 L2943.39 1534.92 L2960.47 1534.92 L2960.47 1534.80 L2977.43 1534.80 L2977.43 1534.30 L2994.50 1534.30 L2994.50 1535.17 L3011.58 1535.17 L3011.58 1535.79 L3028.66 1535.79 L3028.66 1535.79 L3045.61 1535.79 L3045.61 1536.65 L3062.69 1536.65 L3062.69 1537.15 L3079.77 1537.15 L3079.77 1537.89 L3096.72 1537.89 L3096.72 1538.76 L3113.80 1538.76 L3113.80 1538.51 L3130.88 1538.51 L3130.88 1538.51 L3147.83 1538.51 L3147.83 1538.01 L3164.91 1538.01 L3164.91 1536.90 L3181.98 1536.90 L3181.98 1537.15 L3198.94 1537.15 L3198.94 1537.27 L3216.01 1537.27 L3216.01 1537.52 L3233.09 1537.52 L3233.09 1537.02 L3250.05 1537.02 L3250.05 1537.15 L3267.12 1537.15 L3267.12 1537.27 L3284.20 1537.27 L3284.20 1539.25 L3301.16 1539.25 L3301.16 1539.25 L3318.23 1539.25 L3318.23 1540.49 L3335.31 1540.49 L3335.31 1541.60 L3352.26 1541.60 L3352.26 1542.10 L3369.34 1542.10 L3369.34 1542.84 L3386.42 1542.84 L3386.42 1541.85 L3403.37 1541.85 L3403.37 1542.34 L3420.45 1542.34 L3420.45 1542.10 L3437.53 1542.10 L3437.53 1542.10 L3454.48 1542.10 L3454.48 1542.72 L3471.56 1542.72 L3471.56 1542.47 L3488.64 1542.47 L3488.64 1541.97 L3505.59 1541.97 L3505.59 1543.46 L3522.67 1543.46 L3522.67 1543.83 L3539.74 1543.83 L3539.74 1542.72 L3556.70 1542.72 L3556.70 1542.84 L3573.78 1542.84 L3573.78 1542.96 L3590.85 1542.96 L3590.85 1543.21 L3607.93 1543.21 L3607.93 1542.72 L3624.89 1542.72 L3624.89 1543.33 L3641.96 1543.33 L3641.96 1543.46 L3659.04 1543.46 L3659.04 1543.58 L3675.99 1543.58 L3675.99 1544.70 L3693.07 1544.70 L3693.07 1545.07 L3710.15 1545.07 L3710.15 1546.43 L3727.10 1546.43 L3727.10 1545.81 L3744.18 1545.81 L3744.18 1546.68 L3761.26 1546.68 L3761.26 1547.67 L3778.21 1547.67 L3778.21 1548.16 L3795.29 1548.16 L3795.29 1547.67 L3795.29 1401.51 L3795.29 1402.26 L3778.21 1402.26 L3778.21 1401.51 L3761.26 1401.51 L3761.26 1400.40 L3744.18 1400.40 L3744.18 1399.28 L3727.10 1399.28 L3727.10 1400.15 L3710.15 1400.15 L3710.15 1398.67 L3693.07 1398.67 L3693.07 1398.17 L3675.99 1398.17 L3675.99 1396.81 L3659.04 1396.81 L3659.04 1396.69 L3641.96 1396.69 L3641.96 1396.56 L3624.89 1396.56 L3624.89 1395.94 L3607.93 1395.94 L3607.93 1396.44 L3590.85 1396.44 L3590.85 1396.07 L3573.78 1396.07 L3573.78 1395.94 L3556.70 1395.94 L3556.70 1396.07 L3539.74 1396.07 L3539.74 1397.30 L3522.67 1397.30 L3522.67 1396.93 L3505.59 1396.93 L3505.59 1395.45 L3488.64 1395.45 L3488.64 1396.07 L3471.56 1396.07 L3471.56 1396.44 L3454.48 1396.44 L3454.48 1395.57 L3437.53 1395.57 L3437.53 1395.57 L3420.45 1395.57 L3420.45 1396.07 L3403.37 1396.07 L3403.37 1395.57 L3386.42 1395.57 L3386.42 1396.81 L3369.34 1396.81 L3369.34 1395.94 L3352.26 1395.94 L3352.26 1395.45 L3335.31 1395.45 L3335.31 1394.09 L3318.23 1394.09 L3318.23 1392.60 L3301.16 1392.60 L3301.16 1392.73 L3284.20 1392.73 L3284.20 1390.50 L3267.12 1390.50 L3267.12 1390.37 L3250.05 1390.37 L3250.05 1390.13 L3233.09 1390.13 L3233.09 1390.62 L3216.01 1390.62 L3216.01 1390.25 L3198.94 1390.25 L3198.94 1390.25 L3181.98 1390.25 L3181.98 1390.00 L3164.91 1390.00 L3164.91 1391.12 L3147.83 1391.12 L3147.83 1391.74 L3130.88 1391.74 L3130.88 1391.74 L3113.80 1391.74 L3113.80 1391.98 L3096.72 1391.98 L3096.72 1391.24 L3079.77 1391.24 L3079.77 1390.50 L3062.69 1390.50 L3062.69 1389.76 L3045.61 1389.76 L3045.61 1388.64 L3028.66 1388.64 L3028.66 1388.39 L3011.58 1388.39 L3011.58 1387.40 L2994.50 1387.40 L2994.50 1386.29 L2977.43 1386.29 L2977.43 1386.66 L2960.47 1386.66 L2960.47 1386.66 L2943.39 1386.66 L2943.39 1386.79 L2926.32 1386.79 L2926.32 1387.40 L2909.36 1387.40 L2909.36 1388.39 L2892.28 1388.39 L2892.28 1388.27 L2875.21 1388.27 L2875.21 1387.90 L2858.25 1387.90 L2858.25 1385.92 L2841.18 1385.92 L2841.18 1385.18 L2824.10 1385.18 L2824.10 1385.80 L2807.14 1385.80 L2807.14 1385.42 L2790.07 1385.42 L2790.07 1386.04 L2772.99 1386.04 L2772.99 1385.05 L2756.04 1385.05 L2756.04 1383.94 L2738.96 1383.94 L2738.96 1384.68 L2721.88 1384.68 L2721.88 1384.19 L2704.93 1384.19 L2704.93 1386.66 L2687.85 1386.66 L2687.85 1387.03 L2670.77 1387.03 L2670.77 1385.55 L2653.82 1385.55 L2653.82 1387.16 L2636.74 1387.16 L2636.74 1387.65 L2619.66 1387.65 L2619.66 1389.63 L2602.71 1389.63 L2602.71 1390.87 L2585.63 1390.87 L2585.63 1391.74 L2568.55 1391.74 L2568.55 1391.61 L2551.60 1391.61 L2551.60 1392.60 L2534.52 1392.60 L2534.52 1393.72 L2517.45 1393.72 L2517.45 1393.72 L2500.49 1393.72 L2500.49 1393.10 L2483.41 1393.10 L2483.41 1391.98 L2466.34 1391.98 L2466.34 1392.23 L2449.26 1392.23 L2449.26 1391.24 L2432.31 1391.24 L2432.31 1390.00 L2415.23 1390.00 L2415.23 1390.99 L2398.15 1390.99 L2398.15 1388.15 L2381.20 1388.15 L2381.20 1388.64 L2364.12 1388.64 L2364.12 1387.53 L2347.04 1387.53 L2347.04 1386.66 L2330.09 1386.66 L2330.09 1386.04 L2313.01 1386.04 L2313.01 1386.29 L2295.93 1386.29 L2295.93 1385.67 L2278.98 1385.67 L2278.98 1384.43 L2261.90 1384.43 L2261.90 1383.94 L2244.82 1383.94 L2244.82 1384.56 L2227.87 1384.56 L2227.87 1385.67 L2210.79 1385.67 L2210.79 1383.69 L2193.72 1383.69 L2193.72 1384.06 L2176.76 1384.06 L2176.76 1382.08 L2159.68 1382.08 L2159.68 1381.59 L2142.61 1381.59 L2142.61 1381.09 L2125.65 1381.09 L2125.65 1380.35 L2108.58 1380.35 L2108.58 1378.25 L2091.50 1378.25 L2091.50 1376.02 L2074.55 1376.02 L2074.55 1375.52 L2057.47 1375.52 L2057.47 1373.92 L2040.39 1373.92 L2040.39 1372.80 L2023.44 1372.80 L2023.44 1374.78 L2006.36 1374.78 L2006.36 1375.28 L1989.28 1375.28 L1989.28 1375.65 L1972.33 1375.65 L1972.33 1376.02 L1955.25 1376.02 L1955.25 1377.13 L1938.17 1377.13 L1938.17 1376.14 L1921.22 1376.14 L1921.22 1377.50 L1904.14 1377.50 L1904.14 1376.27 L1887.06 1376.27 L1887.06 1376.02 L1869.99 1376.02 L1869.99 1375.77 L1853.03 1375.77 L1853.03 1375.90 L1835.95 1375.90 L1835.95 1373.54 L1818.88 1373.54 L1818.88 1372.31 L1801.92 1372.31 L1801.92 1368.97 L1784.85 1368.97 L1784.85 1368.47 L1767.77 1368.47 L1767.77 1368.10 L1750.82 1368.10 L1750.82 1366.00 L1733.74 1366.00 L1733.74 1364.76 L1716.66 1364.76 L1716.66 1364.88 L1699.71 1364.88 L1699.71 1362.78 L1682.63 1362.78 L1682.63 1360.18 L1665.55 1360.18 L1665.55 1357.21 L1648.60 1357.21 L1648.60 1358.45 L1631.52 1358.45 L1631.52 1357.70 L1614.44 1357.70 L1614.44 1354.36 L1597.49 1354.36 L1597.49 1356.47 L1580.41 1356.47 L1580.41 1353.12 L1563.33 1353.12 L1563.33 1350.77 L1546.38 1350.77 L1546.38 1348.79 L1529.30 1348.79 L1529.30 1349.54 L1512.22 1349.54 L1512.22 1348.67 L1495.27 1348.67 L1495.27 1347.43 L1478.19 1347.43 L1478.19 1346.19 L1461.12 1346.19 L1461.12 1342.48 L1444.16 1342.48 L1444.16 1342.23 L1427.09 1342.23 L1427.09 1340.01 L1410.01 1340.01 L1410.01 1338.27 L1393.05 1338.27 L1393.05 1334.31 L1375.98 1334.31 L1375.98 1331.10 L1358.90 1331.10 L1358.90 1329.24 L1341.94 1329.24 L1341.94 1331.96 L1324.87 1331.96 L1324.87 1327.88 L1307.79 1327.88 L1307.79 1328.50 L1290.71 1328.50 L1290.71 1325.65 L1273.76 1325.65 L1273.76 1327.38 L1256.68 1327.38 L1256.68 1330.60 L1239.60 1330.60 L1239.60 1328.99 L1222.65 1328.99 L1222.65 1325.03 L1205.57 1325.03 L1205.57 1323.80 L1188.49 1323.80 L1188.49 1323.92 L1171.54 1323.92 L1171.54 1318.35 L1154.46 1318.35 L1154.46 1318.84 L1137.39 1318.84 L1137.39 1310.80 L1120.43 1310.80 L1120.43 1303.13 L1103.36 1303.13 L1103.36 1300.03 L1086.28 1300.03 L1086.28 1302.01 L1069.32 1302.01 L1069.32 1297.31 L1052.25 1297.31 L1052.25 1299.42 L1035.17 1299.42 L1035.17 1295.83 L1018.22 1295.83 L1018.22 1290.38 L1001.14 1290.38 L1001.14 1289.14 L984.06 1289.14 L984.06 1286.17 L967.11 1286.17 L967.11 1282.46 L950.03 1282.46 L950.03 1272.93 L932.95 1272.93 L932.95 1277.63 L916.00 1277.63 L916.00 1278.13 L898.92 1278.13 L898.92 1264.27 L881.84 1264.27 L881.84 1258.70 L864.89 1258.70 L864.89 1260.31 L847.81 1260.31 L847.81 1238.53 L830.73 1238.53 L830.73 1241.50 L813.78 1241.50 L813.78 1236.42 L796.70 1236.42 L796.70 1248.92 L779.63 1248.92 L779.63 1254.25 L762.67 1254.25 L762.67 1247.32 L745.59 1247.32 L745.59 1616.84 Z" stroke-linejoin="round"/>
	</defs>
	<defs>
		<clipPath id="clipPath_renVKMJc">
			<use xlink:href="#path_pDvvmIVq"/>
		</clipPath>
	</defs>
	<use xlink:href="#path_pDvvmIVq" style="stroke:none;fill:#999999;fill-opacity:0.65"/>
	<use xlink:href="#path_pDvvmIVq" style="fill:none;stroke:#808080;stroke-opacity:0.65;stroke-width:17.28" clip-path="url(#clipPath_renVKMJc)"/>
	<path d=" M745.47 1449.16 L762.55 1449.16 L762.55 1448.79 L779.63 1448.79 L779.63 1438.76 L796.58 1438.76 L796.58 1422.30 L813.66 1422.30 L813.66 1421.31 L830.73 1421.31 L830.73 1414.88 L847.69 1414.88 L847.69 1429.23 L864.76 1429.23 L864.76 1424.41 L881.84 1424.41 L881.84 1426.39 L898.80 1426.39 L898.80 1434.93 L915.87 1434.93 L915.87 1431.34 L932.95 1431.34 L932.95 1424.41 L949.90 1424.41 L949.90 1430.72 L966.98 1430.72 L966.98 1431.58 L984.06 1431.58 L984.06 1431.83 L1001.01 1431.83 L1001.01 1430.35 L1018.09 1430.35 L1018.09 1433.32 L1035.17 1433.32 L1035.17 1434.43 L1052.25 1434.43 L1052.25 1430.84 L1069.20 1430.84 L1069.20 1433.32 L1086.28 1433.32 L1086.28 1429.98 L1103.36 1429.98 L1103.36 1431.21 L1120.31 1431.21 L1120.31 1436.66 L1137.39 1436.66 L1137.39 1442.35 L1154.46 1442.35 L1154.46 1440.50 L1171.42 1440.50 L1171.42 1444.08 L1188.49 1444.08 L1188.49 1442.85 L1205.57 1442.85 L1205.57 1442.72 L1222.53 1442.72 L1222.53 1445.20 L1239.60 1445.20 L1239.60 1445.57 L1256.68 1445.57 L1256.68 1441.73 L1273.63 1441.73 L1273.63 1439.26 L1290.71 1439.26 L1290.71 1441.11 L1307.79 1441.11 L1307.79 1439.38 L1324.74 1439.38 L1324.74 1442.23 L1341.82 1442.23 L1341.82 1439.01 L1358.90 1439.01 L1358.90 1440.00 L1375.85 1440.00 L1375.85 1442.23 L1392.93 1442.23 L1392.93 1445.07 L1410.01 1445.07 L1410.01 1445.82 L1426.96 1445.82 L1426.96 1447.30 L1444.04 1447.30 L1444.04 1446.68 L1461.12 1446.68 L1461.12 1449.16 L1478.07 1449.16 L1478.07 1449.65 L1495.15 1449.65 L1495.15 1450.15 L1512.22 1450.15 L1512.22 1450.27 L1529.18 1450.27 L1529.18 1448.79 L1546.26 1448.79 L1546.26 1449.90 L1563.33 1449.90 L1563.33 1451.51 L1580.29 1451.51 L1580.29 1454.11 L1597.37 1454.11 L1597.37 1451.63 L1614.44 1451.63 L1614.44 1454.11 L1631.52 1454.11 L1631.52 1454.11 L1648.47 1454.11 L1648.47 1452.50 L1665.55 1452.50 L1665.55 1454.60 L1682.63 1454.60 L1682.63 1456.46 L1699.58 1456.46 L1699.58 1457.82 L1716.66 1457.82 L1716.66 1457.20 L1733.74 1457.20 L1733.74 1457.94 L1750.69 1457.94 L1750.69 1459.43 L1767.77 1459.43 L1767.77 1459.43 L1784.85 1459.43 L1784.85 1459.43 L1801.80 1459.43 L1801.80 1462.03 L1818.88 1462.03 L1818.88 1462.89 L1835.95 1462.89 L1835.95 1464.75 L1852.91 1464.75 L1852.91 1464.38 L1869.99 1464.38 L1869.99 1464.13 L1887.06 1464.13 L1887.06 1464.13 L1904.02 1464.13 L1904.02 1465.00 L1921.10 1465.00 L1921.10 1463.27 L1938.17 1463.27 L1938.17 1464.01 L1955.13 1464.01 L1955.13 1462.52 L1972.20 1462.52 L1972.20 1462.03 L1989.28 1462.03 L1989.28 1461.29 L2006.23 1461.29 L2006.23 1460.54 L2023.31 1460.54 L2023.31 1458.44 L2040.39 1458.44 L2040.39 1459.31 L2057.34 1459.31 L2057.34 1460.54 L2074.42 1460.54 L2074.42 1460.67 L2091.50 1460.67 L2091.50 1462.40 L2108.45 1462.40 L2108.45 1464.01 L2125.53 1464.01 L2125.53 1464.38 L2142.61 1464.38 L2142.61 1464.50 L2159.56 1464.50 L2159.56 1464.87 L2176.64 1464.87 L2176.64 1466.24 L2193.72 1466.24 L2193.72 1465.62 L2210.79 1465.62 L2210.79 1467.35 L2227.75 1467.35 L2227.75 1466.11 L2244.82 1466.11 L2244.82 1465.37 L2261.90 1465.37 L2261.90 1465.62 L2278.86 1465.62 L2278.86 1466.36 L2295.93 1466.36 L2295.93 1466.85 L2313.01 1466.85 L2313.01 1466.36 L2329.97 1466.36 L2329.97 1466.73 L2347.04 1466.73 L2347.04 1467.47 L2364.12 1467.47 L2364.12 1468.34 L2381.07 1468.34 L2381.07 1467.72 L2398.15 1467.72 L2398.15 1470.20 L2415.23 1470.20 L2415.23 1469.08 L2432.18 1469.08 L2432.18 1470.20 L2449.26 1470.20 L2449.26 1470.81 L2466.34 1470.81 L2466.34 1470.44 L2483.29 1470.44 L2483.29 1471.56 L2500.37 1471.56 L2500.37 1472.05 L2517.45 1472.05 L2517.45 1471.93 L2534.40 1471.93 L2534.40 1470.94 L2551.48 1470.94 L2551.48 1469.82 L2568.55 1469.82 L2568.55 1469.82 L2585.51 1469.82 L2585.51 1468.96 L2602.59 1468.96 L2602.59 1467.84 L2619.66 1467.84 L2619.66 1465.86 L2636.62 1465.86 L2636.62 1465.37 L2653.70 1465.37 L2653.70 1463.64 L2670.77 1463.64 L2670.77 1464.87 L2687.73 1464.87 L2687.73 1464.38 L2704.80 1464.38 L2704.80 1462.03 L2721.88 1462.03 L2721.88 1462.40 L2738.84 1462.40 L2738.84 1461.66 L2755.91 1461.66 L2755.91 1462.52 L2772.99 1462.52 L2772.99 1463.39 L2790.07 1463.39 L2790.07 1462.77 L2807.02 1462.77 L2807.02 1463.02 L2824.10 1463.02 L2824.10 1462.40 L2841.18 1462.40 L2841.18 1463.14 L2858.13 1463.14 L2858.13 1464.87 L2875.21 1464.87 L2875.21 1465.12 L2892.28 1465.12 L2892.28 1465.12 L2909.24 1465.12 L2909.24 1464.26 L2926.32 1464.26 L2926.32 1463.76 L2943.39 1463.76 L2943.39 1463.64 L2960.35 1463.64 L2960.35 1463.51 L2977.43 1463.51 L2977.43 1463.14 L2994.50 1463.14 L2994.50 1464.13 L3011.46 1464.13 L3011.46 1465.00 L3028.53 1465.00 L3028.53 1465.00 L3045.61 1465.00 L3045.61 1465.99 L3062.57 1465.99 L3062.57 1466.61 L3079.64 1466.61 L3079.64 1467.35 L3096.72 1467.35 L3096.72 1468.22 L3113.67 1468.22 L3113.67 1467.97 L3130.75 1467.97 L3130.75 1467.84 L3147.83 1467.84 L3147.83 1467.35 L3164.78 1467.35 L3164.78 1466.24 L3181.86 1466.24 L3181.86 1466.48 L3198.94 1466.48 L3198.94 1466.61 L3215.89 1466.61 L3215.89 1466.85 L3232.97 1466.85 L3232.97 1466.36 L3250.05 1466.36 L3250.05 1466.61 L3267.00 1466.61 L3267.00 1466.73 L3284.08 1466.73 L3284.08 1468.71 L3301.16 1468.71 L3301.16 1468.71 L3318.23 1468.71 L3318.23 1470.07 L3335.19 1470.07 L3335.19 1471.31 L3352.26 1471.31 L3352.26 1471.80 L3369.34 1471.80 L3369.34 1472.67 L3386.30 1472.67 L3386.30 1471.56 L3403.37 1471.56 L3403.37 1471.93 L3420.45 1471.93 L3420.45 1471.68 L3437.40 1471.68 L3437.40 1471.56 L3454.48 1471.56 L3454.48 1472.42 L3471.56 1472.42 L3471.56 1472.05 L3488.51 1472.05 L3488.51 1471.56 L3505.59 1471.56 L3505.59 1473.04 L3522.67 1473.04 L3522.67 1473.41 L3539.62 1473.41 L3539.62 1472.18 L3556.70 1472.18 L3556.70 1472.18 L3573.78 1472.18 L3573.78 1472.30 L3590.73 1472.30 L3590.73 1472.67 L3607.81 1472.67 L3607.81 1472.18 L3624.89 1472.18 L3624.89 1472.79 L3641.84 1472.79 L3641.84 1472.92 L3658.92 1472.92 L3658.92 1473.04 L3675.99 1473.04 L3675.99 1474.16 L3692.95 1474.16 L3692.95 1474.65 L3710.03 1474.65 L3710.03 1476.14 L3727.10 1476.14 L3727.10 1475.39 L3744.06 1475.39 L3744.06 1476.38 L3761.13 1476.38 L3761.13 1477.37 L3778.21 1477.37 L3778.21 1477.99 L3795.16 1477.99 L3795.16 1477.37" stroke-linejoin="round" style="fill:none;stroke:#000000;stroke-width:8.64"/>
	<line x1="524.08" y1="2509.23" x2="524.08" y2="419.90" style="stroke:#000000;stroke-width:5.76"/>
	<line x1="524.08" y1="2445.87" x2="484.11" y2="2445.87" style="stroke:#000000;stroke-width:5.76"/>
	<text x="464.06" y="2480.90" style="font-family:'Helvetica';font-size:99.99px;fill:#000000" text-anchor="end">0.00</text>
	<line x1="524.08" y1="1955.19" x2="484.11" y2="1955.19" style="stroke:#000000;stroke-width:5.76"/>
	<text x="464.06" y="1990.22" style="font-family:'Helvetica';font-size:99.99px;fill:#000000" text-anchor="end">0.50</text>
	<line x1="524.08" y1="1464.63" x2="484.11" y2="1464.63" style="stroke:#000000;stroke-width:5.76"/>
	<text x="464.06" y="1499.66" style="font-family:'Helvetica';font-size:99.99px;fill:#000000" text-anchor="end">1.00</text>
	<line x1="524.08" y1="973.94" x2="484.11" y2="973.94" style="stroke:#000000;stroke-width:5.76"/>
	<text x="464.06" y="1008.97" style="font-family:'Helvetica';font-size:99.99px;fill:#000000" text-anchor="end">1.50</text>
	<line x1="524.08" y1="483.26" x2="484.11" y2="483.26" style="stroke:#000000;stroke-width:5.76"/>
	<text x="464.06" y="518.29" style="font-family:'Helvetica';font-size:99.99px;fill:#000000" text-anchor="end">2.00</text>
	<text x="190.71" y="1464.63" style="font-family:'Helvetica';font-size:99.99px;fill:#000000" transform="rotate(-90 190.71,1464.63)" text-anchor="middle">Ratio in Probabilities</text>
	<line x1="524.08" y1="2509.23" x2="3859.02" y2="2509.23" style="stroke:#000000;stroke-width:5.76"/>
	<line x1="587.44" y1="2509.23" x2="587.44" y2="2549.21" style="stroke:#000000;stroke-width:5.76"/>
	<text x="587.44" y="2625.15" style="font-family:'Helvetica';font-size:79.94px;fill:#000000" text-anchor="middle">0</text>
	<line x1="780.00" y1="2509.23" x2="780.00" y2="2549.21" style="stroke:#000000;stroke-width:5.76"/>
	<text x="780.00" y="2625.15" style="font-family:'Helvetica';font-size:79.94px;fill:#000000" text-anchor="middle">.3</text>
	<line x1="972.43" y1="2509.23" x2="972.43" y2="2549.21" style="stroke:#000000;stroke-width:5.76"/>
	<text x="972.43" y="2625.15" style="font-family:'Helvetica';font-size:79.94px;fill:#000000" text-anchor="middle">.6</text>
	<line x1="1164.98" y1="2509.23" x2="1164.98" y2="2549.21" style="stroke:#000000;stroke-width:5.76"/>
	<text x="1164.98" y="2625.15" style="font-family:'Helvetica';font-size:79.94px;fill:#000000" text-anchor="middle">.9</text>
	<line x1="1357.41" y1="2509.23" x2="1357.41" y2="2549.21" style="stroke:#000000;stroke-width:5.76"/>
	<text x="1357.41" y="2625.15" style="font-family:'Helvetica';font-size:79.94px;fill:#000000" text-anchor="middle">1.2</text>
	<line x1="1549.97" y1="2509.23" x2="1549.97" y2="2549.21" style="stroke:#000000;stroke-width:5.76"/>
	<text x="1549.97" y="2625.15" style="font-family:'Helvetica';font-size:79.94px;fill:#000000" text-anchor="middle">1.5</text>
	<line x1="1742.40" y1="2509.23" x2="1742.40" y2="2549.21" style="stroke:#000000;stroke-width:5.76"/>
	<text x="1742.40" y="2625.15" style="font-family:'Helvetica';font-size:79.94px;fill:#000000" text-anchor="middle">1.8</text>
	<line x1="1934.95" y1="2509.23" x2="1934.95" y2="2549.21" style="stroke:#000000;stroke-width:5.76"/>
	<text x="1934.95" y="2625.15" style="font-family:'Helvetica';font-size:79.94px;fill:#000000" text-anchor="middle">2.1</text>
	<line x1="2127.39" y1="2509.23" x2="2127.39" y2="2549.21" style="stroke:#000000;stroke-width:5.76"/>
	<text x="2127.39" y="2625.15" style="font-family:'Helvetica';font-size:79.94px;fill:#000000" text-anchor="middle">2.4</text>
	<line x1="2319.94" y1="2509.23" x2="2319.94" y2="2549.21" style="stroke:#000000;stroke-width:5.76"/>
	<text x="2319.94" y="2625.15" style="font-family:'Helvetica';font-size:79.94px;fill:#000000" text-anchor="middle">2.7</text>
	<line x1="2512.37" y1="2509.23" x2="2512.37" y2="2549.21" style="stroke:#000000;stroke-width:5.76"/>
	<text x="2512.37" y="2625.15" style="font-family:'Helvetica';font-size:79.94px;fill:#000000" text-anchor="middle">3</text>
	<line x1="2704.93" y1="2509.23" x2="2704.93" y2="2549.21" style="stroke:#000000;stroke-width:5.76"/>
	<text x="2704.93" y="2625.15" style="font-family:'Helvetica';font-size:79.94px;fill:#000000" text-anchor="middle">3.3</text>
	<line x1="2897.36" y1="2509.23" x2="2897.36" y2="2549.21" style="stroke:#000000;stroke-width:5.76"/>
	<text x="2897.36" y="2625.15" style="font-family:'Helvetica';font-size:79.94px;fill:#000000" text-anchor="middle">3.6</text>
	<line x1="3089.91" y1="2509.23" x2="3089.91" y2="2549.21" style="stroke:#000000;stroke-width:5.76"/>
	<text x="3089.91" y="2625.15" style="font-family:'Helvetica';font-size:79.94px;fill:#000000" text-anchor="middle">3.9</text>
	<line x1="3282.34" y1="2509.23" x2="3282.34" y2="2549.21" style="stroke:#000000;stroke-width:5.76"/>
	<text x="3282.34" y="2625.15" style="font-family:'Helvetica';font-size:79.94px;fill:#000000" text-anchor="middle">4.2</text>
	<line x1="3474.90" y1="2509.23" x2="3474.90" y2="2549.21" style="stroke:#000000;stroke-width:5.76"/>
	<text x="3474.90" y="2625.15" style="font-family:'Helvetica';font-size:79.94px;fill:#000000" text-anchor="middle">4.5</text>
	<line x1="3667.33" y1="2509.23" x2="3667.33" y2="2549.21" style="stroke:#000000;stroke-width:5.76"/>
	<text x="3667.33" y="2625.15" style="font-family:'Helvetica';font-size:79.94px;fill:#000000" text-anchor="middle">4.8</text>
	<line x1="3859.89" y1="2509.23" x2="3859.89" y2="2549.21" style="stroke:#000000;stroke-width:5.76"/>
	<text x="3859.89" y="2625.15" style="font-family:'Helvetica';font-size:79.94px;fill:#000000" text-anchor="middle">5.1</text>
	<text x="2191.61" y="2729.16" style="font-family:'Helvetica';font-size:99.99px;fill:#000000" text-anchor="middle">Time (years)</text>
	<rect x="558.61" y="454.42" width="993.34" height="326.46" style="fill:#FFFFFF"/>
	<rect x="561.49" y="457.30" width="987.58" height="320.70" style="fill:none;stroke:#000000;stroke-width:5.76"/>
	<rect x="601.92" y="497.74" width="374.34" height="99.99" style="fill:#999999;fill-opacity:0.65"/>
	<rect x="606.24" y="502.06" width="365.70" height="91.35" style="fill:none;stroke:#808080;stroke-opacity:0.65;stroke-width:8.64"/>
	<line x1="601.92" y1="687.70" x2="976.26" y2="687.70" style="stroke:#000000;stroke-width:8.64"/>
	<text x="1036.28" y="582.76" style="font-family:'Helvetica';font-size:99.99px;fill:#000000">CI95%</text>
	<text x="1036.28" y="722.73" style="font-family:'Helvetica';font-size:99.99px;fill:#000000">Difference</text>
	<text x="2191.61" y="369.63" style="font-family:'Helvetica';font-size:110.01px;fill:#000000" text-anchor="middle">from Readmission to 2nd Readmission</text>
	<text x="2191.61" y="215.98" style="font-family:'Helvetica';font-size:139.96px;fill:#1E2D53" text-anchor="middle">Ratio in Probabilities</text>
</svg>
