<?xml version="1.0" encoding="UTF-8" standalone="no"?>
<!-- This is a Stata 16.1 generated SVG file (http://www.stata.com) -->

<svg version="1.1" width="5.50in" height="4.00in" viewBox="0 0 3960 2880" xmlns="http://www.w3.org/2000/svg" xmlns:xlink="http://www.w3.org/1999/xlink">
	<desc>Stata Graph - ratio_models12_tc</desc>
	<rect x="0" y="0" width="3960" height="2880" style="fill:#EAF2F3;stroke:none"/>
	<rect x="0.00" y="0.00" width="3959.88" height="2880.00" style="fill:#FFFFFF"/>
	<rect x="2.88" y="2.88" width="3954.12" height="2874.24" style="fill:none;stroke:#FFFFFF;stroke-width:5.76"/>
	<rect x="524.08" y="419.90" width="3334.94" height="2089.34" style="fill:#FFFFFF"/>
	<rect x="526.96" y="422.78" width="3329.18" height="2083.58" style="fill:none;stroke:#FFFFFF;stroke-width:5.76"/>
	<line x1="524.08" y1="2336.84" x2="3859.02" y2="2336.84" style="stroke:#EAF2F3;stroke-width:8.64"/>
	<line x1="524.08" y1="2227.82" x2="3859.02" y2="2227.82" style="stroke:#EAF2F3;stroke-width:8.64"/>
	<line x1="524.08" y1="2118.79" x2="3859.02" y2="2118.79" style="stroke:#EAF2F3;stroke-width:8.64"/>
	<line x1="524.08" y1="2009.76" x2="3859.02" y2="2009.76" style="stroke:#EAF2F3;stroke-width:8.64"/>
	<line x1="524.08" y1="1900.74" x2="3859.02" y2="1900.74" style="stroke:#EAF2F3;stroke-width:8.64"/>
	<line x1="524.08" y1="1791.71" x2="3859.02" y2="1791.71" style="stroke:#EAF2F3;stroke-width:8.64"/>
	<line x1="524.08" y1="1682.68" x2="3859.02" y2="1682.68" style="stroke:#EAF2F3;stroke-width:8.64"/>
	<line x1="524.08" y1="1573.65" x2="3859.02" y2="1573.65" style="stroke:#EAF2F3;stroke-width:8.64"/>
	<line x1="524.08" y1="1464.63" x2="3859.02" y2="1464.63" style="stroke:#EAF2F3;stroke-width:8.64"/>
	<line x1="524.08" y1="1355.60" x2="3859.02" y2="1355.60" style="stroke:#EAF2F3;stroke-width:8.64"/>
	<line x1="524.08" y1="1246.45" x2="3859.02" y2="1246.45" style="stroke:#EAF2F3;stroke-width:8.64"/>
	<line x1="524.08" y1="1137.42" x2="3859.02" y2="1137.42" style="stroke:#EAF2F3;stroke-width:8.64"/>
	<line x1="524.08" y1="1028.39" x2="3859.02" y2="1028.39" style="stroke:#EAF2F3;stroke-width:8.64"/>
	<line x1="524.08" y1="919.37" x2="3859.02" y2="919.37" style="stroke:#EAF2F3;stroke-width:8.64"/>
	<line x1="524.08" y1="810.34" x2="3859.02" y2="810.34" style="stroke:#EAF2F3;stroke-width:8.64"/>
	<line x1="524.08" y1="701.31" x2="3859.02" y2="701.31" style="stroke:#EAF2F3;stroke-width:8.64"/>
	<line x1="524.08" y1="592.29" x2="3859.02" y2="592.29" style="stroke:#EAF2F3;stroke-width:8.64"/>
	<line x1="524.08" y1="2227.82" x2="3859.02" y2="2227.82" style="stroke:#1A476F;stroke-width:8.64"/>
	<defs>
		<path id="path_azbxcPla" d="M745.59 1483.69 L745.59 1483.69 L762.67 1483.69 L762.67 1512.89 L779.63 1512.89 L779.63 1557.81 L796.70 1557.81 L796.70 1620.93 L813.78 1620.93 L813.78 1686.64 L830.73 1686.64 L830.73 1735.65 L847.81 1735.65 L847.81 1758.17 L864.89 1758.17 L864.89 1791.58 L881.84 1791.58 L881.84 1823.64 L898.92 1823.64 L898.92 1829.70 L916.00 1829.70 L916.00 1849.38 L932.95 1849.38 L932.95 1858.04 L950.03 1858.04 L950.03 1872.27 L967.11 1872.27 L967.11 1892.44 L984.06 1892.44 L984.06 1907.42 L1001.14 1907.42 L1001.14 1920.91 L1018.22 1920.91 L1018.22 1926.11 L1035.17 1926.11 L1035.17 1930.31 L1052.25 1930.31 L1052.25 1940.46 L1069.32 1940.46 L1069.32 1946.77 L1086.28 1946.77 L1086.28 1956.42 L1103.36 1956.42 L1103.36 1964.72 L1120.43 1964.72 L1120.43 1968.68 L1137.39 1968.68 L1137.39 1970.90 L1154.46 1970.90 L1154.46 1974.49 L1171.54 1974.49 L1171.54 1976.97 L1188.49 1976.97 L1188.49 1977.96 L1205.57 1977.96 L1205.57 1979.20 L1222.65 1979.20 L1222.65 1984.76 L1239.60 1984.76 L1239.60 1986.62 L1256.68 1986.62 L1256.68 1992.93 L1273.76 1992.93 L1273.76 1996.03 L1290.71 1996.03 L1290.71 1999.86 L1307.79 1999.86 L1307.79 2006.79 L1324.87 2006.79 L1324.87 2007.66 L1341.94 2007.66 L1341.94 2013.60 L1358.90 2013.60 L1358.90 2016.57 L1375.98 2016.57 L1375.98 2019.79 L1393.05 2019.79 L1393.05 2021.64 L1410.01 2021.64 L1410.01 2025.97 L1427.09 2025.97 L1427.09 2027.09 L1444.16 2027.09 L1444.16 2031.17 L1461.12 2031.17 L1461.12 2032.78 L1478.19 2032.78 L1478.19 2035.26 L1495.27 2035.26 L1495.27 2039.09 L1512.22 2039.09 L1512.22 2042.81 L1529.30 2042.81 L1529.30 2044.29 L1546.38 2044.29 L1546.38 2045.78 L1563.33 2045.78 L1563.33 2048.25 L1580.41 2048.25 L1580.41 2050.85 L1597.49 2050.85 L1597.49 2052.58 L1614.44 2052.58 L1614.44 2052.09 L1631.52 2052.09 L1631.52 2053.20 L1648.60 2053.20 L1648.60 2055.92 L1665.55 2055.92 L1665.55 2057.53 L1682.63 2057.53 L1682.63 2059.88 L1699.71 2059.88 L1699.71 2060.87 L1716.66 2060.87 L1716.66 2064.46 L1733.74 2064.46 L1733.74 2065.58 L1750.82 2065.58 L1750.82 2068.17 L1767.77 2068.17 L1767.77 2070.15 L1784.85 2070.15 L1784.85 2072.01 L1801.92 2072.01 L1801.92 2073.25 L1818.88 2073.25 L1818.88 2074.73 L1835.95 2074.73 L1835.95 2075.97 L1853.03 2075.97 L1853.03 2076.59 L1869.99 2076.59 L1869.99 2078.07 L1887.06 2078.07 L1887.06 2079.06 L1904.14 2079.06 L1904.14 2081.05 L1921.22 2081.05 L1921.22 2084.02 L1938.17 2084.02 L1938.17 2084.63 L1955.25 2084.63 L1955.25 2085.87 L1972.33 2085.87 L1972.33 2086.37 L1989.28 2086.37 L1989.28 2087.85 L2006.36 2087.85 L2006.36 2089.09 L2023.44 2089.09 L2023.44 2091.44 L2040.39 2091.44 L2040.39 2092.68 L2057.47 2092.68 L2057.47 2093.17 L2074.55 2093.17 L2074.55 2094.04 L2091.50 2094.04 L2091.50 2095.03 L2108.58 2095.03 L2108.58 2095.90 L2125.65 2095.90 L2125.65 2096.89 L2142.61 2096.89 L2142.61 2097.88 L2159.68 2097.88 L2159.68 2097.75 L2176.76 2097.75 L2176.76 2098.37 L2193.72 2098.37 L2193.72 2099.24 L2210.79 2099.24 L2210.79 2100.35 L2227.87 2100.35 L2227.87 2101.22 L2244.82 2101.22 L2244.82 2102.58 L2261.90 2102.58 L2261.90 2103.82 L2278.98 2103.82 L2278.98 2104.81 L2295.93 2104.81 L2295.93 2105.42 L2313.01 2105.42 L2313.01 2106.66 L2330.09 2106.66 L2330.09 2107.53 L2347.04 2107.53 L2347.04 2109.14 L2364.12 2109.14 L2364.12 2109.88 L2381.20 2109.88 L2381.20 2110.75 L2398.15 2110.75 L2398.15 2110.99 L2415.23 2110.99 L2415.23 2112.35 L2432.31 2112.35 L2432.31 2112.73 L2449.26 2112.73 L2449.26 2112.97 L2466.34 2112.97 L2466.34 2112.60 L2483.41 2112.60 L2483.41 2113.10 L2500.49 2113.10 L2500.49 2114.21 L2517.45 2114.21 L2517.45 2115.20 L2534.52 2115.20 L2534.52 2115.70 L2551.60 2115.70 L2551.60 2116.69 L2568.55 2116.69 L2568.55 2117.18 L2585.63 2117.18 L2585.63 2118.79 L2602.71 2118.79 L2602.71 2118.79 L2619.66 2118.79 L2619.66 2120.03 L2636.74 2120.03 L2636.74 2120.89 L2653.82 2120.89 L2653.82 2121.64 L2670.77 2121.64 L2670.77 2121.51 L2687.85 2121.51 L2687.85 2122.50 L2704.93 2122.50 L2704.93 2122.87 L2721.88 2122.87 L2721.88 2123.86 L2738.96 2123.86 L2738.96 2124.61 L2756.04 2124.61 L2756.04 2124.98 L2772.99 2124.98 L2772.99 2125.35 L2790.07 2125.35 L2790.07 2126.09 L2807.14 2126.09 L2807.14 2126.34 L2824.10 2126.34 L2824.10 2126.83 L2841.18 2126.83 L2841.18 2127.58 L2858.25 2127.58 L2858.25 2128.07 L2875.21 2128.07 L2875.21 2129.31 L2892.28 2129.31 L2892.28 2129.93 L2909.36 2129.93 L2909.36 2129.93 L2926.32 2129.93 L2926.32 2130.42 L2943.39 2130.42 L2943.39 2130.55 L2960.47 2130.55 L2960.47 2131.04 L2977.43 2131.04 L2977.43 2130.92 L2994.50 2130.92 L2994.50 2131.29 L3011.58 2131.29 L3011.58 2131.41 L3028.66 2131.41 L3028.66 2132.03 L3045.61 2132.03 L3045.61 2133.15 L3062.69 2133.15 L3062.69 2134.01 L3079.77 2134.01 L3079.77 2134.38 L3096.72 2134.38 L3096.72 2134.38 L3113.80 2134.38 L3113.80 2134.88 L3130.88 2134.88 L3130.88 2135.00 L3147.83 2135.00 L3147.83 2135.87 L3164.91 2135.87 L3164.91 2136.24 L3181.98 2136.24 L3181.98 2136.98 L3198.94 2136.98 L3198.94 2137.35 L3216.01 2137.35 L3216.01 2137.85 L3233.09 2137.85 L3233.09 2138.22 L3250.05 2138.22 L3250.05 2138.84 L3267.12 2138.84 L3267.12 2139.70 L3284.20 2139.70 L3284.20 2139.70 L3301.16 2139.70 L3301.16 2140.45 L3318.23 2140.45 L3318.23 2140.82 L3335.31 2140.82 L3335.31 2141.19 L3352.26 2141.19 L3352.26 2141.31 L3369.34 2141.31 L3369.34 2141.81 L3386.42 2141.81 L3386.42 2142.30 L3403.37 2142.30 L3403.37 2142.92 L3420.45 2142.92 L3420.45 2143.79 L3437.53 2143.79 L3437.53 2144.04 L3454.48 2144.04 L3454.48 2144.28 L3471.56 2144.28 L3471.56 2144.41 L3488.64 2144.41 L3488.64 2144.53 L3505.59 2144.53 L3505.59 2145.40 L3522.67 2145.40 L3522.67 2145.89 L3539.74 2145.89 L3539.74 2146.02 L3556.70 2146.02 L3556.70 2146.14 L3573.78 2146.14 L3573.78 2146.26 L3590.85 2146.26 L3590.85 2146.39 L3607.93 2146.39 L3607.93 2147.13 L3624.89 2147.13 L3624.89 2147.62 L3641.96 2147.62 L3641.96 2147.50 L3659.04 2147.50 L3659.04 2148.24 L3675.99 2148.24 L3675.99 2148.99 L3693.07 2148.99 L3693.07 2148.86 L3710.15 2148.86 L3710.15 2148.99 L3727.10 2148.99 L3727.10 2149.48 L3744.18 2149.48 L3744.18 2149.73 L3761.26 2149.73 L3761.26 2150.72 L3778.21 2150.72 L3778.21 2150.72 L3795.29 2150.72 L3795.29 2150.59 L3795.29 2117.68 L3795.29 2117.80 L3778.21 2117.80 L3778.21 2117.68 L3761.26 2117.68 L3761.26 2116.56 L3744.18 2116.56 L3744.18 2116.19 L3727.10 2116.19 L3727.10 2115.70 L3710.15 2115.70 L3710.15 2115.57 L3693.07 2115.57 L3693.07 2115.70 L3675.99 2115.70 L3675.99 2114.71 L3659.04 2114.71 L3659.04 2113.84 L3641.96 2113.84 L3641.96 2114.09 L3624.89 2114.09 L3624.89 2113.47 L3607.93 2113.47 L3607.93 2112.60 L3590.85 2112.60 L3590.85 2112.35 L3573.78 2112.35 L3573.78 2112.23 L3556.70 2112.23 L3556.70 2112.11 L3539.74 2112.11 L3539.74 2111.98 L3522.67 2111.98 L3522.67 2111.36 L3505.59 2111.36 L3505.59 2110.37 L3488.64 2110.37 L3488.64 2110.13 L3471.56 2110.13 L3471.56 2110.00 L3454.48 2110.00 L3454.48 2109.76 L3437.53 2109.76 L3437.53 2109.38 L3420.45 2109.38 L3420.45 2108.27 L3403.37 2108.27 L3403.37 2107.65 L3386.42 2107.65 L3386.42 2107.03 L3369.34 2107.03 L3369.34 2106.41 L3352.26 2106.41 L3352.26 2106.17 L3335.31 2106.17 L3335.31 2105.80 L3318.23 2105.80 L3318.23 2105.30 L3301.16 2105.30 L3301.16 2104.43 L3284.20 2104.43 L3284.20 2104.31 L3267.12 2104.31 L3267.12 2103.32 L3250.05 2103.32 L3250.05 2102.58 L3233.09 2102.58 L3233.09 2101.96 L3216.01 2101.96 L3216.01 2101.34 L3198.94 2101.34 L3198.94 2100.97 L3181.98 2100.97 L3181.98 2100.10 L3164.91 2100.10 L3164.91 2099.61 L3147.83 2099.61 L3147.83 2098.62 L3130.88 2098.62 L3130.88 2098.37 L3113.80 2098.37 L3113.80 2097.63 L3096.72 2097.63 L3096.72 2097.63 L3079.77 2097.63 L3079.77 2097.01 L3062.69 2097.01 L3062.69 2096.02 L3045.61 2096.02 L3045.61 2094.78 L3028.66 2094.78 L3028.66 2093.92 L3011.58 2093.92 L3011.58 2093.92 L2994.50 2093.92 L2994.50 2093.42 L2977.43 2093.42 L2977.43 2093.42 L2960.47 2093.42 L2960.47 2092.80 L2943.39 2092.80 L2943.39 2092.68 L2926.32 2092.68 L2926.32 2092.06 L2909.36 2092.06 L2909.36 2091.81 L2892.28 2091.81 L2892.28 2091.07 L2875.21 2091.07 L2875.21 2089.46 L2858.25 2089.46 L2858.25 2088.72 L2841.18 2088.72 L2841.18 2087.98 L2824.10 2087.98 L2824.10 2087.23 L2807.14 2087.23 L2807.14 2086.74 L2790.07 2086.74 L2790.07 2085.87 L2772.99 2085.87 L2772.99 2085.25 L2756.04 2085.25 L2756.04 2084.76 L2738.96 2084.76 L2738.96 2083.77 L2721.88 2083.77 L2721.88 2082.53 L2704.93 2082.53 L2704.93 2081.79 L2687.85 2081.79 L2687.85 2080.43 L2670.77 2080.43 L2670.77 2080.55 L2653.82 2080.55 L2653.82 2079.56 L2636.74 2079.56 L2636.74 2078.32 L2619.66 2078.32 L2619.66 2076.96 L2602.71 2076.96 L2602.71 2076.71 L2585.63 2076.71 L2585.63 2074.86 L2568.55 2074.86 L2568.55 2074.24 L2551.60 2074.24 L2551.60 2073.00 L2534.52 2073.00 L2534.52 2072.38 L2517.45 2072.38 L2517.45 2071.14 L2500.49 2071.14 L2500.49 2069.66 L2483.41 2069.66 L2483.41 2069.04 L2466.34 2069.04 L2466.34 2069.29 L2449.26 2069.29 L2449.26 2069.04 L2432.31 2069.04 L2432.31 2068.30 L2415.23 2068.30 L2415.23 2066.57 L2398.15 2066.57 L2398.15 2066.19 L2381.20 2066.19 L2381.20 2064.96 L2364.12 2064.96 L2364.12 2063.97 L2347.04 2063.97 L2347.04 2061.86 L2330.09 2061.86 L2330.09 2060.63 L2313.01 2060.63 L2313.01 2059.14 L2295.93 2059.14 L2295.93 2058.03 L2278.98 2058.03 L2278.98 2056.79 L2261.90 2056.79 L2261.90 2055.06 L2244.82 2055.06 L2244.82 2053.45 L2227.87 2053.45 L2227.87 2052.09 L2210.79 2052.09 L2210.79 2050.73 L2193.72 2050.73 L2193.72 2049.49 L2176.76 2049.49 L2176.76 2048.50 L2159.68 2048.50 L2159.68 2048.37 L2142.61 2048.37 L2142.61 2047.14 L2125.65 2047.14 L2125.65 2045.65 L2108.58 2045.65 L2108.58 2044.54 L2091.50 2044.54 L2091.50 2042.93 L2074.55 2042.93 L2074.55 2041.69 L2057.47 2041.69 L2057.47 2040.83 L2040.39 2040.83 L2040.39 2038.97 L2023.44 2038.97 L2023.44 2036.00 L2006.36 2036.00 L2006.36 2034.27 L1989.28 2034.27 L1989.28 2032.04 L1972.33 2032.04 L1972.33 2031.05 L1955.25 2031.05 L1955.25 2029.07 L1938.17 2029.07 L1938.17 2028.08 L1921.22 2028.08 L1921.22 2024.12 L1904.14 2024.12 L1904.14 2021.52 L1887.06 2021.52 L1887.06 2019.79 L1869.99 2019.79 L1869.99 2017.44 L1853.03 2017.44 L1853.03 2016.07 L1835.95 2016.07 L1835.95 2014.47 L1818.88 2014.47 L1818.88 2012.11 L1801.92 2012.11 L1801.92 2010.38 L1784.85 2010.38 L1784.85 2007.78 L1767.77 2007.78 L1767.77 2005.06 L1750.82 2005.06 L1750.82 2001.35 L1733.74 2001.35 L1733.74 1999.49 L1716.66 1999.49 L1716.66 1994.54 L1699.71 1994.54 L1699.71 1992.93 L1682.63 1992.93 L1682.63 1989.71 L1665.55 1989.71 L1665.55 1987.36 L1648.60 1987.36 L1648.60 1983.53 L1631.52 1983.53 L1631.52 1981.79 L1614.44 1981.79 L1614.44 1981.79 L1597.49 1981.79 L1597.49 1979.44 L1580.41 1979.44 L1580.41 1975.61 L1563.33 1975.61 L1563.33 1972.14 L1546.38 1972.14 L1546.38 1969.17 L1529.30 1969.17 L1529.30 1966.45 L1512.22 1966.45 L1512.22 1961.00 L1495.27 1961.00 L1495.27 1955.56 L1478.19 1955.56 L1478.19 1951.97 L1461.12 1951.97 L1461.12 1949.25 L1444.16 1949.25 L1444.16 1943.06 L1427.09 1943.06 L1427.09 1940.58 L1410.01 1940.58 L1410.01 1934.40 L1393.05 1934.40 L1393.05 1931.06 L1375.98 1931.06 L1375.98 1925.86 L1358.90 1925.86 L1358.90 1921.16 L1341.94 1921.16 L1341.94 1912.62 L1324.87 1912.62 L1324.87 1910.02 L1307.79 1910.02 L1307.79 1900.61 L1290.71 1900.61 L1290.71 1894.30 L1273.76 1894.30 L1273.76 1888.98 L1256.68 1888.98 L1256.68 1879.20 L1239.60 1879.20 L1239.60 1874.75 L1222.65 1874.75 L1222.65 1865.71 L1205.57 1865.71 L1205.57 1862.00 L1188.49 1862.00 L1188.49 1858.54 L1171.54 1858.54 L1171.54 1853.09 L1154.46 1853.09 L1154.46 1846.28 L1137.39 1846.28 L1137.39 1840.47 L1120.43 1840.47 L1120.43 1832.30 L1103.36 1832.30 L1103.36 1819.18 L1086.28 1819.18 L1086.28 1802.85 L1069.32 1802.85 L1069.32 1790.97 L1052.25 1790.97 L1052.25 1773.52 L1035.17 1773.52 L1035.17 1764.11 L1018.22 1764.11 L1018.22 1752.73 L1001.14 1752.73 L1001.14 1729.09 L984.06 1729.09 L984.06 1702.73 L967.11 1702.73 L967.11 1668.45 L950.03 1668.45 L950.03 1642.09 L932.95 1642.09 L932.95 1620.68 L916.00 1620.68 L916.00 1584.17 L898.92 1584.17 L898.92 1564.13 L881.84 1564.13 L881.84 1504.35 L864.89 1504.35 L864.89 1435.79 L847.81 1435.79 L847.81 1381.96 L830.73 1381.96 L830.73 1276.64 L813.78 1276.64 L813.78 1145.59 L796.70 1145.59 L796.70 994.24 L779.63 994.24 L779.63 854.15 L762.67 854.15 L762.67 727.30 L745.59 727.30 L745.59 1483.69 Z" stroke-linejoin="round"/>
	</defs>
	<defs>
		<clipPath id="clipPath_xqQIdQmu">
			<use xlink:href="#path_azbxcPla"/>
		</clipPath>
	</defs>
	<use xlink:href="#path_azbxcPla" style="stroke:none;fill:#999999;fill-opacity:0.65"/>
	<use xlink:href="#path_azbxcPla" style="fill:none;stroke:#808080;stroke-opacity:0.65;stroke-width:17.28" clip-path="url(#clipPath_xqQIdQmu)"/>
	<path d=" M745.47 1160.07 L762.55 1160.07 L762.55 1227.27 L779.63 1227.27 L779.63 1310.43 L796.58 1310.43 L796.58 1410.30 L813.66 1410.30 L813.66 1503.73 L830.73 1503.73 L830.73 1576.62 L847.69 1576.62 L847.69 1612.51 L864.76 1612.51 L864.76 1661.02 L881.84 1661.02 L881.84 1705.20 L898.80 1705.20 L898.80 1717.33 L915.87 1717.33 L915.87 1744.31 L932.95 1744.31 L932.95 1758.54 L949.90 1758.54 L949.90 1778.22 L966.98 1778.22 L966.98 1804.70 L984.06 1804.70 L984.06 1824.63 L1001.01 1824.63 L1001.01 1842.82 L1018.09 1842.82 L1018.09 1850.62 L1035.17 1850.62 L1035.17 1857.17 L1052.25 1857.17 L1052.25 1870.54 L1069.20 1870.54 L1069.20 1879.45 L1086.28 1879.45 L1086.28 1892.07 L1103.36 1892.07 L1103.36 1902.59 L1120.31 1902.59 L1120.31 1908.41 L1137.39 1908.41 L1137.39 1912.24 L1154.46 1912.24 L1154.46 1917.32 L1171.42 1917.32 L1171.42 1921.16 L1188.49 1921.16 L1188.49 1923.26 L1205.57 1923.26 L1205.57 1925.61 L1222.53 1925.61 L1222.53 1932.66 L1239.60 1932.66 L1239.60 1935.76 L1256.68 1935.76 L1256.68 1943.68 L1273.63 1943.68 L1273.63 1947.76 L1290.71 1947.76 L1290.71 1952.84 L1307.79 1952.84 L1307.79 1960.88 L1324.74 1960.88 L1324.74 1962.49 L1341.82 1962.49 L1341.82 1969.67 L1358.90 1969.67 L1358.90 1973.38 L1375.85 1973.38 L1375.85 1977.59 L1392.93 1977.59 L1392.93 1980.06 L1410.01 1980.06 L1410.01 1985.26 L1426.96 1985.26 L1426.96 1987.12 L1444.04 1987.12 L1444.04 1992.07 L1461.12 1992.07 L1461.12 1994.29 L1478.07 1994.29 L1478.07 1997.26 L1495.15 1997.26 L1495.15 2001.84 L1512.22 2001.84 L1512.22 2006.42 L1529.18 2006.42 L1529.18 2008.40 L1546.26 2008.40 L1546.26 2010.63 L1563.33 2010.63 L1563.33 2013.48 L1580.29 2013.48 L1580.29 2016.69 L1597.37 2016.69 L1597.37 2018.67 L1614.44 2018.67 L1614.44 2018.43 L1631.52 2018.43 L1631.52 2019.91 L1648.47 2019.91 L1648.47 2023.13 L1665.55 2023.13 L1665.55 2024.98 L1682.63 2024.98 L1682.63 2027.83 L1699.58 2027.83 L1699.58 2029.07 L1716.66 2029.07 L1716.66 2033.28 L1733.74 2033.28 L1733.74 2034.76 L1750.69 2034.76 L1750.69 2037.85 L1767.77 2037.85 L1767.77 2040.33 L1784.85 2040.33 L1784.85 2042.43 L1801.80 2042.43 L1801.80 2043.92 L1818.88 2043.92 L1818.88 2045.78 L1835.95 2045.78 L1835.95 2047.26 L1852.91 2047.26 L1852.91 2048.13 L1869.99 2048.13 L1869.99 2050.11 L1887.06 2050.11 L1887.06 2051.47 L1904.02 2051.47 L1904.02 2053.70 L1921.10 2053.70 L1921.10 2057.16 L1938.17 2057.16 L1938.17 2057.90 L1955.13 2057.90 L1955.13 2059.51 L1972.20 2059.51 L1972.20 2060.13 L1989.28 2060.13 L1989.28 2062.11 L2006.23 2062.11 L2006.23 2063.60 L2023.31 2063.60 L2023.31 2066.19 L2040.39 2066.19 L2040.39 2067.68 L2057.34 2067.68 L2057.34 2068.42 L2074.42 2068.42 L2074.42 2069.41 L2091.50 2069.41 L2091.50 2070.65 L2108.45 2070.65 L2108.45 2071.64 L2125.53 2071.64 L2125.53 2072.88 L2142.61 2072.88 L2142.61 2073.99 L2159.56 2073.99 L2159.56 2073.99 L2176.64 2073.99 L2176.64 2074.86 L2193.72 2074.86 L2193.72 2075.85 L2210.79 2075.85 L2210.79 2077.08 L2227.75 2077.08 L2227.75 2078.20 L2244.82 2078.20 L2244.82 2079.68 L2261.90 2079.68 L2261.90 2081.17 L2278.86 2081.17 L2278.86 2082.28 L2295.93 2082.28 L2295.93 2083.15 L2313.01 2083.15 L2313.01 2084.39 L2329.97 2084.39 L2329.97 2085.50 L2347.04 2085.50 L2347.04 2087.36 L2364.12 2087.36 L2364.12 2088.22 L2381.07 2088.22 L2381.07 2089.21 L2398.15 2089.21 L2398.15 2089.58 L2415.23 2089.58 L2415.23 2091.07 L2432.18 2091.07 L2432.18 2091.56 L2449.26 2091.56 L2449.26 2091.81 L2466.34 2091.81 L2466.34 2091.56 L2483.29 2091.56 L2483.29 2092.18 L2500.37 2092.18 L2500.37 2093.42 L2517.45 2093.42 L2517.45 2094.53 L2534.40 2094.53 L2534.40 2095.15 L2551.48 2095.15 L2551.48 2096.14 L2568.55 2096.14 L2568.55 2096.76 L2585.51 2096.76 L2585.51 2098.49 L2602.59 2098.49 L2602.59 2098.62 L2619.66 2098.62 L2619.66 2099.86 L2636.62 2099.86 L2636.62 2100.85 L2653.70 2100.85 L2653.70 2101.71 L2670.77 2101.71 L2670.77 2101.59 L2687.73 2101.59 L2687.73 2102.83 L2704.80 2102.83 L2704.80 2103.32 L2721.88 2103.32 L2721.88 2104.56 L2738.84 2104.56 L2738.84 2105.30 L2755.91 2105.30 L2755.91 2105.80 L2772.99 2105.80 L2772.99 2106.29 L2790.07 2106.29 L2790.07 2107.03 L2807.02 2107.03 L2807.02 2107.40 L2824.10 2107.40 L2824.10 2108.02 L2841.18 2108.02 L2841.18 2108.77 L2858.13 2108.77 L2858.13 2109.38 L2875.21 2109.38 L2875.21 2110.75 L2892.28 2110.75 L2892.28 2111.49 L2909.24 2111.49 L2909.24 2111.61 L2926.32 2111.61 L2926.32 2112.23 L2943.39 2112.23 L2943.39 2112.23 L2960.35 2112.23 L2960.35 2112.85 L2977.43 2112.85 L2977.43 2112.85 L2994.50 2112.85 L2994.50 2113.22 L3011.46 2113.22 L3011.46 2113.22 L3028.53 2113.22 L3028.53 2113.96 L3045.61 2113.96 L3045.61 2115.20 L3062.57 2115.20 L3062.57 2116.07 L3079.64 2116.07 L3079.64 2116.56 L3096.72 2116.56 L3096.72 2116.56 L3113.67 2116.56 L3113.67 2117.18 L3130.75 2117.18 L3130.75 2117.43 L3147.83 2117.43 L3147.83 2118.29 L3164.78 2118.29 L3164.78 2118.79 L3181.86 2118.79 L3181.86 2119.53 L3198.94 2119.53 L3198.94 2119.90 L3215.89 2119.90 L3215.89 2120.40 L3232.97 2120.40 L3232.97 2120.89 L3250.05 2120.89 L3250.05 2121.64 L3267.00 2121.64 L3267.00 2122.50 L3284.08 2122.50 L3284.08 2122.63 L3301.16 2122.63 L3301.16 2123.37 L3318.23 2123.37 L3318.23 2123.86 L3335.19 2123.86 L3335.19 2124.24 L3352.26 2124.24 L3352.26 2124.36 L3369.34 2124.36 L3369.34 2124.85 L3386.30 2124.85 L3386.30 2125.47 L3403.37 2125.47 L3403.37 2126.09 L3420.45 2126.09 L3420.45 2127.08 L3437.40 2127.08 L3437.40 2127.45 L3454.48 2127.45 L3454.48 2127.70 L3471.56 2127.70 L3471.56 2127.70 L3488.51 2127.70 L3488.51 2127.95 L3505.59 2127.95 L3505.59 2128.94 L3522.67 2128.94 L3522.67 2129.43 L3539.62 2129.43 L3539.62 2129.56 L3556.70 2129.56 L3556.70 2129.68 L3573.78 2129.68 L3573.78 2129.80 L3590.73 2129.80 L3590.73 2130.05 L3607.81 2130.05 L3607.81 2130.79 L3624.89 2130.79 L3624.89 2131.41 L3641.84 2131.41 L3641.84 2131.17 L3658.92 2131.17 L3658.92 2132.03 L3675.99 2132.03 L3675.99 2132.77 L3692.95 2132.77 L3692.95 2132.65 L3710.03 2132.65 L3710.03 2132.90 L3727.10 2132.90 L3727.10 2133.27 L3744.06 2133.27 L3744.06 2133.64 L3761.13 2133.64 L3761.13 2134.63 L3778.21 2134.63 L3778.21 2134.75 L3795.16 2134.75 L3795.16 2134.63" stroke-linejoin="round" style="fill:none;stroke:#000000;stroke-width:8.64"/>
	<line x1="524.08" y1="2509.23" x2="524.08" y2="419.90" style="stroke:#000000;stroke-width:5.76"/>
	<line x1="524.08" y1="2445.87" x2="484.11" y2="2445.87" style="stroke:#000000;stroke-width:5.76"/>
	<text x="464.06" y="2480.90" style="font-family:'Helvetica';font-size:99.99px;fill:#000000" text-anchor="end">0.00</text>
	<line x1="524.08" y1="2336.84" x2="484.11" y2="2336.84" style="stroke:#000000;stroke-width:5.76"/>
	<text x="464.06" y="2371.87" style="font-family:'Helvetica';font-size:99.99px;fill:#000000" text-anchor="end">0.50</text>
	<line x1="524.08" y1="2227.82" x2="484.11" y2="2227.82" style="stroke:#000000;stroke-width:5.76"/>
	<text x="464.06" y="2262.85" style="font-family:'Helvetica';font-size:99.99px;fill:#000000" text-anchor="end">1.00</text>
	<line x1="524.08" y1="2118.79" x2="484.11" y2="2118.79" style="stroke:#000000;stroke-width:5.76"/>
	<text x="464.06" y="2153.82" style="font-family:'Helvetica';font-size:99.99px;fill:#000000" text-anchor="end">1.50</text>
	<line x1="524.08" y1="2009.76" x2="484.11" y2="2009.76" style="stroke:#000000;stroke-width:5.76"/>
	<text x="464.06" y="2044.79" style="font-family:'Helvetica';font-size:99.99px;fill:#000000" text-anchor="end">2.00</text>
	<line x1="524.08" y1="1900.74" x2="484.11" y2="1900.74" style="stroke:#000000;stroke-width:5.76"/>
	<text x="464.06" y="1935.76" style="font-family:'Helvetica';font-size:99.99px;fill:#000000" text-anchor="end">2.50</text>
	<line x1="524.08" y1="1791.71" x2="484.11" y2="1791.71" style="stroke:#000000;stroke-width:5.76"/>
	<text x="464.06" y="1826.74" style="font-family:'Helvetica';font-size:99.99px;fill:#000000" text-anchor="end">3.00</text>
	<line x1="524.08" y1="1682.68" x2="484.11" y2="1682.68" style="stroke:#000000;stroke-width:5.76"/>
	<text x="464.06" y="1717.71" style="font-family:'Helvetica';font-size:99.99px;fill:#000000" text-anchor="end">3.50</text>
	<line x1="524.08" y1="1573.65" x2="484.11" y2="1573.65" style="stroke:#000000;stroke-width:5.76"/>
	<text x="464.06" y="1608.68" style="font-family:'Helvetica';font-size:99.99px;fill:#000000" text-anchor="end">4.00</text>
	<line x1="524.08" y1="1464.63" x2="484.11" y2="1464.63" style="stroke:#000000;stroke-width:5.76"/>
	<text x="464.06" y="1499.66" style="font-family:'Helvetica';font-size:99.99px;fill:#000000" text-anchor="end">4.50</text>
	<line x1="524.08" y1="1355.60" x2="484.11" y2="1355.60" style="stroke:#000000;stroke-width:5.76"/>
	<text x="464.06" y="1390.63" style="font-family:'Helvetica';font-size:99.99px;fill:#000000" text-anchor="end">5.00</text>
	<line x1="524.08" y1="1246.45" x2="484.11" y2="1246.45" style="stroke:#000000;stroke-width:5.76"/>
	<text x="464.06" y="1281.48" style="font-family:'Helvetica';font-size:99.99px;fill:#000000" text-anchor="end">5.50</text>
	<line x1="524.08" y1="1137.42" x2="484.11" y2="1137.42" style="stroke:#000000;stroke-width:5.76"/>
	<text x="464.06" y="1172.45" style="font-family:'Helvetica';font-size:99.99px;fill:#000000" text-anchor="end">6.00</text>
	<line x1="524.08" y1="1028.39" x2="484.11" y2="1028.39" style="stroke:#000000;stroke-width:5.76"/>
	<text x="464.06" y="1063.42" style="font-family:'Helvetica';font-size:99.99px;fill:#000000" text-anchor="end">6.50</text>
	<line x1="524.08" y1="919.37" x2="484.11" y2="919.37" style="stroke:#000000;stroke-width:5.76"/>
	<text x="464.06" y="954.40" style="font-family:'Helvetica';font-size:99.99px;fill:#000000" text-anchor="end">7.00</text>
	<line x1="524.08" y1="810.34" x2="484.11" y2="810.34" style="stroke:#000000;stroke-width:5.76"/>
	<text x="464.06" y="845.37" style="font-family:'Helvetica';font-size:99.99px;fill:#000000" text-anchor="end">7.50</text>
	<line x1="524.08" y1="701.31" x2="484.11" y2="701.31" style="stroke:#000000;stroke-width:5.76"/>
	<text x="464.06" y="736.34" style="font-family:'Helvetica';font-size:99.99px;fill:#000000" text-anchor="end">8.00</text>
	<line x1="524.08" y1="592.29" x2="484.11" y2="592.29" style="stroke:#000000;stroke-width:5.76"/>
	<text x="464.06" y="627.31" style="font-family:'Helvetica';font-size:99.99px;fill:#000000" text-anchor="end">8.50</text>
	<line x1="524.08" y1="483.26" x2="484.11" y2="483.26" style="stroke:#000000;stroke-width:5.76"/>
	<text x="464.06" y="518.29" style="font-family:'Helvetica';font-size:99.99px;fill:#000000" text-anchor="end">9.00</text>
	<text x="190.71" y="1464.63" style="font-family:'Helvetica';font-size:99.99px;fill:#000000" transform="rotate(-90 190.71,1464.63)" text-anchor="middle">Ratio in Probabilities</text>
	<line x1="524.08" y1="2509.23" x2="3859.02" y2="2509.23" style="stroke:#000000;stroke-width:5.76"/>
	<line x1="587.44" y1="2509.23" x2="587.44" y2="2549.21" style="stroke:#000000;stroke-width:5.76"/>
	<text x="587.44" y="2625.15" style="font-family:'Helvetica';font-size:79.94px;fill:#000000" text-anchor="middle">0</text>
	<line x1="780.00" y1="2509.23" x2="780.00" y2="2549.21" style="stroke:#000000;stroke-width:5.76"/>
	<text x="780.00" y="2625.15" style="font-family:'Helvetica';font-size:79.94px;fill:#000000" text-anchor="middle">.3</text>
	<line x1="972.43" y1="2509.23" x2="972.43" y2="2549.21" style="stroke:#000000;stroke-width:5.76"/>
	<text x="972.43" y="2625.15" style="font-family:'Helvetica';font-size:79.94px;fill:#000000" text-anchor="middle">.6</text>
	<line x1="1164.98" y1="2509.23" x2="1164.98" y2="2549.21" style="stroke:#000000;stroke-width:5.76"/>
	<text x="1164.98" y="2625.15" style="font-family:'Helvetica';font-size:79.94px;fill:#000000" text-anchor="middle">.9</text>
	<line x1="1357.41" y1="2509.23" x2="1357.41" y2="2549.21" style="stroke:#000000;stroke-width:5.76"/>
	<text x="1357.41" y="2625.15" style="font-family:'Helvetica';font-size:79.94px;fill:#000000" text-anchor="middle">1.2</text>
	<line x1="1549.97" y1="2509.23" x2="1549.97" y2="2549.21" style="stroke:#000000;stroke-width:5.76"/>
	<text x="1549.97" y="2625.15" style="font-family:'Helvetica';font-size:79.94px;fill:#000000" text-anchor="middle">1.5</text>
	<line x1="1742.40" y1="2509.23" x2="1742.40" y2="2549.21" style="stroke:#000000;stroke-width:5.76"/>
	<text x="1742.40" y="2625.15" style="font-family:'Helvetica';font-size:79.94px;fill:#000000" text-anchor="middle">1.8</text>
	<line x1="1934.95" y1="2509.23" x2="1934.95" y2="2549.21" style="stroke:#000000;stroke-width:5.76"/>
	<text x="1934.95" y="2625.15" style="font-family:'Helvetica';font-size:79.94px;fill:#000000" text-anchor="middle">2.1</text>
	<line x1="2127.39" y1="2509.23" x2="2127.39" y2="2549.21" style="stroke:#000000;stroke-width:5.76"/>
	<text x="2127.39" y="2625.15" style="font-family:'Helvetica';font-size:79.94px;fill:#000000" text-anchor="middle">2.4</text>
	<line x1="2319.94" y1="2509.23" x2="2319.94" y2="2549.21" style="stroke:#000000;stroke-width:5.76"/>
	<text x="2319.94" y="2625.15" style="font-family:'Helvetica';font-size:79.94px;fill:#000000" text-anchor="middle">2.7</text>
	<line x1="2512.37" y1="2509.23" x2="2512.37" y2="2549.21" style="stroke:#000000;stroke-width:5.76"/>
	<text x="2512.37" y="2625.15" style="font-family:'Helvetica';font-size:79.94px;fill:#000000" text-anchor="middle">3</text>
	<line x1="2704.93" y1="2509.23" x2="2704.93" y2="2549.21" style="stroke:#000000;stroke-width:5.76"/>
	<text x="2704.93" y="2625.15" style="font-family:'Helvetica';font-size:79.94px;fill:#000000" text-anchor="middle">3.3</text>
	<line x1="2897.36" y1="2509.23" x2="2897.36" y2="2549.21" style="stroke:#000000;stroke-width:5.76"/>
	<text x="2897.36" y="2625.15" style="font-family:'Helvetica';font-size:79.94px;fill:#000000" text-anchor="middle">3.6</text>
	<line x1="3089.91" y1="2509.23" x2="3089.91" y2="2549.21" style="stroke:#000000;stroke-width:5.76"/>
	<text x="3089.91" y="2625.15" style="font-family:'Helvetica';font-size:79.94px;fill:#000000" text-anchor="middle">3.9</text>
	<line x1="3282.34" y1="2509.23" x2="3282.34" y2="2549.21" style="stroke:#000000;stroke-width:5.76"/>
	<text x="3282.34" y="2625.15" style="font-family:'Helvetica';font-size:79.94px;fill:#000000" text-anchor="middle">4.2</text>
	<line x1="3474.90" y1="2509.23" x2="3474.90" y2="2549.21" style="stroke:#000000;stroke-width:5.76"/>
	<text x="3474.90" y="2625.15" style="font-family:'Helvetica';font-size:79.94px;fill:#000000" text-anchor="middle">4.5</text>
	<line x1="3667.33" y1="2509.23" x2="3667.33" y2="2549.21" style="stroke:#000000;stroke-width:5.76"/>
	<text x="3667.33" y="2625.15" style="font-family:'Helvetica';font-size:79.94px;fill:#000000" text-anchor="middle">4.8</text>
	<line x1="3859.89" y1="2509.23" x2="3859.89" y2="2549.21" style="stroke:#000000;stroke-width:5.76"/>
	<text x="3859.89" y="2625.15" style="font-family:'Helvetica';font-size:79.94px;fill:#000000" text-anchor="middle">5.1</text>
	<text x="2191.61" y="2729.16" style="font-family:'Helvetica';font-size:99.99px;fill:#000000" text-anchor="middle">Time (years)</text>
	<rect x="558.61" y="454.42" width="993.34" height="326.46" style="fill:#FFFFFF"/>
	<rect x="561.49" y="457.30" width="987.58" height="320.70" style="fill:none;stroke:#000000;stroke-width:5.76"/>
	<rect x="601.92" y="497.74" width="374.34" height="99.99" style="fill:#999999;fill-opacity:0.65"/>
	<rect x="606.24" y="502.06" width="365.70" height="91.35" style="fill:none;stroke:#808080;stroke-opacity:0.65;stroke-width:8.64"/>
	<line x1="601.92" y1="687.70" x2="976.26" y2="687.70" style="stroke:#000000;stroke-width:8.64"/>
	<text x="1036.28" y="582.76" style="font-family:'Helvetica';font-size:99.99px;fill:#000000">CI95%</text>
	<text x="1036.28" y="722.73" style="font-family:'Helvetica';font-size:99.99px;fill:#000000">Difference</text>
	<text x="2191.61" y="369.63" style="font-family:'Helvetica';font-size:110.01px;fill:#000000" text-anchor="middle">from Admission to Readmission</text>
	<text x="2191.61" y="215.98" style="font-family:'Helvetica';font-size:139.96px;fill:#1E2D53" text-anchor="middle">Ratio in Probabilities</text>
</svg>
