<?xml version="1.0" encoding="UTF-8" standalone="no"?>
<!-- This is a Stata 16.1 generated SVG file (http://www.stata.com) -->

<svg version="1.1" width="5.50in" height="4.00in" viewBox="0 0 3960 2880" xmlns="http://www.w3.org/2000/svg" xmlns:xlink="http://www.w3.org/1999/xlink">
	<desc>Stata Graph - ratio_models23_3y_tc</desc>
	<rect x="0" y="0" width="3960" height="2880" style="fill:#EAF2F3;stroke:none"/>
	<rect x="0.00" y="0.00" width="3959.88" height="2880.00" style="fill:#FFFFFF"/>
	<rect x="2.88" y="2.88" width="3954.12" height="2874.24" style="fill:none;stroke:#FFFFFF;stroke-width:5.76"/>
	<rect x="524.08" y="419.90" width="3334.94" height="2089.34" style="fill:#FFFFFF"/>
	<rect x="526.96" y="422.78" width="3329.18" height="2083.58" style="fill:none;stroke:#FFFFFF;stroke-width:5.76"/>
	<line x1="524.08" y1="1955.19" x2="3859.02" y2="1955.19" style="stroke:#EAF2F3;stroke-width:8.64"/>
	<line x1="524.08" y1="1464.63" x2="3859.02" y2="1464.63" style="stroke:#EAF2F3;stroke-width:8.64"/>
	<line x1="524.08" y1="973.94" x2="3859.02" y2="973.94" style="stroke:#EAF2F3;stroke-width:8.64"/>
	<line x1="524.08" y1="1464.63" x2="3859.02" y2="1464.63" style="stroke:#1A476F;stroke-width:8.64"/>
	<defs>
		<path id="path_ywVfqkvX" d="M745.47 1836.26 L745.47 1836.26 L762.55 1836.26 L762.55 1824.38 L779.63 1824.38 L779.63 1807.30 L796.58 1807.30 L796.58 1778.96 L813.66 1778.96 L813.66 1779.58 L830.73 1779.58 L830.73 1767.08 L847.81 1767.08 L847.81 1764.48 L864.76 1764.48 L864.76 1750.50 L881.84 1750.50 L881.84 1742.58 L898.92 1742.58 L898.92 1739.98 L915.87 1739.98 L915.87 1731.19 L932.95 1731.19 L932.95 1728.10 L950.03 1728.10 L950.03 1717.95 L966.98 1717.95 L966.98 1710.28 L984.06 1710.28 L984.06 1706.44 L1001.14 1706.44 L1001.14 1700.38 L1018.22 1700.38 L1018.22 1694.44 L1035.17 1694.44 L1035.17 1683.80 L1052.25 1683.80 L1052.25 1679.09 L1069.32 1679.09 L1069.32 1679.34 L1086.28 1679.34 L1086.28 1673.77 L1103.36 1673.77 L1103.36 1670.80 L1120.43 1670.80 L1120.43 1670.55 L1137.39 1670.55 L1137.39 1669.07 L1154.46 1669.07 L1154.46 1665.85 L1171.54 1665.85 L1171.54 1664.37 L1188.49 1664.37 L1188.49 1664.49 L1205.57 1664.49 L1205.57 1663.38 L1222.65 1663.38 L1222.65 1657.68 L1239.73 1657.68 L1239.73 1656.32 L1256.68 1656.32 L1256.68 1656.57 L1273.76 1656.57 L1273.76 1654.59 L1290.84 1654.59 L1290.84 1654.09 L1307.79 1654.09 L1307.79 1652.73 L1324.87 1652.73 L1324.87 1650.01 L1341.94 1650.01 L1341.94 1648.90 L1358.90 1648.90 L1358.90 1646.92 L1375.98 1646.92 L1375.98 1643.95 L1393.05 1643.95 L1393.05 1641.72 L1410.13 1641.72 L1410.13 1639.61 L1427.09 1639.61 L1427.09 1637.39 L1444.16 1637.39 L1444.16 1637.88 L1461.24 1637.88 L1461.24 1637.14 L1478.19 1637.14 L1478.19 1633.55 L1495.27 1633.55 L1495.27 1630.95 L1512.35 1630.95 L1512.35 1630.70 L1529.30 1630.70 L1529.30 1632.68 L1546.38 1632.68 L1546.38 1632.68 L1563.46 1632.68 L1563.46 1633.18 L1580.54 1633.18 L1580.54 1634.29 L1597.49 1634.29 L1597.49 1634.05 L1614.57 1634.05 L1614.57 1632.68 L1631.64 1632.68 L1631.64 1632.07 L1648.60 1632.07 L1648.60 1629.84 L1665.67 1629.84 L1665.67 1629.59 L1682.75 1629.59 L1682.75 1627.36 L1699.71 1627.36 L1699.71 1626.74 L1716.78 1626.74 L1716.78 1627.61 L1733.86 1627.61 L1733.86 1626.99 L1750.94 1626.99 L1750.94 1623.65 L1767.89 1623.65 L1767.89 1621.67 L1784.97 1621.67 L1784.97 1621.18 L1802.05 1621.18 L1802.05 1620.43 L1819.00 1620.43 L1819.00 1620.56 L1836.08 1620.56 L1836.08 1620.80 L1853.16 1620.80 L1853.16 1619.57 L1870.11 1619.57 L1870.11 1619.69 L1887.19 1619.69 L1887.19 1619.07 L1904.27 1619.07 L1904.27 1616.97 L1921.34 1616.97 L1921.34 1615.24 L1938.30 1615.24 L1938.30 1614.99 L1955.37 1614.99 L1955.37 1615.48 L1972.45 1615.48 L1972.45 1613.63 L1989.40 1613.63 L1989.40 1614.74 L2006.48 1614.74 L2006.48 1613.63 L2023.56 1613.63 L2023.56 1613.50 L2040.51 1613.50 L2040.51 1613.38 L2057.59 1613.38 L2057.59 1611.15 L2074.67 1611.15 L2074.67 1611.40 L2091.75 1611.40 L2091.75 1611.52 L2108.70 1611.52 L2108.70 1610.53 L2125.78 1610.53 L2125.78 1610.29 L2142.86 1610.29 L2142.86 1609.54 L2159.81 1609.54 L2159.81 1608.43 L2176.89 1608.43 L2176.89 1608.92 L2193.96 1608.92 L2193.96 1609.30 L2210.92 1609.30 L2210.92 1609.17 L2227.99 1609.17 L2227.99 1606.70 L2245.07 1606.70 L2245.07 1604.72 L2262.15 1604.72 L2262.15 1602.86 L2279.10 1602.86 L2279.10 1603.11 L2296.18 1603.11 L2296.18 1603.11 L2313.26 1603.11 L2313.26 1602.98 L2330.21 1602.98 L2330.21 1604.59 L2347.29 1604.59 L2347.29 1605.95 L2364.37 1605.95 L2364.37 1606.08 L2381.32 1606.08 L2381.32 1605.83 L2398.40 1605.83 L2398.40 1606.82 L2415.48 1606.82 L2415.48 1607.44 L2432.55 1607.44 L2432.55 1608.92 L2449.51 1608.92 L2449.51 1609.54 L2466.59 1609.54 L2466.59 1607.69 L2483.66 1607.69 L2483.66 1607.69 L2500.62 1607.69 L2500.62 1607.44 L2517.69 1607.44 L2517.69 1607.56 L2534.77 1607.56 L2534.77 1607.44 L2551.72 1607.44 L2551.72 1606.70 L2568.80 1606.70 L2568.80 1606.57 L2585.88 1606.57 L2585.88 1607.32 L2602.96 1607.32 L2602.96 1607.69 L2619.91 1607.69 L2619.91 1607.93 L2636.99 1607.93 L2636.99 1607.56 L2654.07 1607.56 L2654.07 1607.07 L2671.02 1607.07 L2671.02 1607.44 L2688.10 1607.44 L2688.10 1607.19 L2705.18 1607.19 L2705.18 1607.44 L2722.13 1607.44 L2722.13 1607.69 L2739.21 1607.69 L2739.21 1607.07 L2756.28 1607.07 L2756.28 1607.07 L2773.36 1607.07 L2773.36 1607.56 L2790.32 1607.56 L2790.32 1608.06 L2807.39 1608.06 L2807.39 1607.19 L2824.47 1607.19 L2824.47 1606.70 L2841.42 1606.70 L2841.42 1605.95 L2858.50 1605.95 L2858.50 1605.21 L2875.58 1605.21 L2875.58 1604.59 L2892.53 1604.59 L2892.53 1603.11 L2909.61 1603.11 L2909.61 1602.24 L2926.69 1602.24 L2926.69 1601.62 L2943.76 1601.62 L2943.76 1601.38 L2960.72 1601.38 L2960.72 1601.50 L2977.80 1601.50 L2977.80 1601.13 L2994.87 1601.13 L2994.87 1601.99 L3011.83 1601.99 L3011.83 1602.12 L3028.91 1602.12 L3028.91 1602.12 L3045.98 1602.12 L3045.98 1603.36 L3062.94 1603.36 L3062.94 1602.24 L3080.01 1602.24 L3080.01 1601.62 L3097.09 1601.62 L3097.09 1600.14 L3114.17 1600.14 L3114.17 1599.89 L3131.12 1599.89 L3131.12 1600.01 L3148.20 1600.01 L3148.20 1600.88 L3165.28 1600.88 L3165.28 1601.13 L3182.23 1601.13 L3182.23 1600.51 L3199.31 1600.51 L3199.31 1601.13 L3216.39 1601.13 L3216.39 1600.88 L3233.34 1600.88 L3233.34 1601.25 L3250.42 1601.25 L3250.42 1602.12 L3267.49 1602.12 L3267.49 1603.23 L3284.57 1603.23 L3284.57 1601.99 L3301.53 1601.99 L3301.53 1601.87 L3318.60 1601.87 L3318.60 1601.13 L3335.68 1601.13 L3335.68 1600.14 L3352.64 1600.14 L3352.64 1600.14 L3369.71 1600.14 L3369.71 1599.15 L3386.79 1599.15 L3386.79 1598.78 L3403.74 1598.78 L3403.74 1599.02 L3420.82 1599.02 L3420.82 1599.27 L3437.90 1599.27 L3437.90 1599.39 L3454.98 1599.39 L3454.98 1599.39 L3471.93 1599.39 L3471.93 1599.52 L3489.01 1599.52 L3489.01 1600.14 L3506.09 1600.14 L3506.09 1601.13 L3523.04 1601.13 L3523.04 1601.38 L3540.12 1601.38 L3540.12 1601.13 L3557.19 1601.13 L3557.19 1601.25 L3574.15 1601.25 L3574.15 1601.99 L3591.22 1601.99 L3591.22 1602.49 L3608.30 1602.49 L3608.30 1601.87 L3625.38 1601.87 L3625.38 1602.12 L3642.33 1602.12 L3642.33 1601.62 L3659.41 1601.62 L3659.41 1601.99 L3676.49 1601.99 L3676.49 1601.50 L3693.44 1601.50 L3693.44 1600.76 L3710.52 1600.76 L3710.52 1600.63 L3727.60 1600.63 L3727.60 1600.14 L3744.55 1600.14 L3744.55 1600.01 L3761.63 1600.01 L3761.63 1600.14 L3778.71 1600.14 L3778.71 1600.63 L3795.66 1600.63 L3795.66 1601.00 L3795.66 1449.65 L3795.66 1449.41 L3778.71 1449.41 L3778.71 1448.91 L3761.63 1448.91 L3761.63 1448.79 L3744.55 1448.79 L3744.55 1448.91 L3727.60 1448.91 L3727.60 1449.65 L3710.52 1449.65 L3710.52 1449.65 L3693.44 1449.65 L3693.44 1450.52 L3676.49 1450.52 L3676.49 1451.26 L3659.41 1451.26 L3659.41 1451.01 L3642.33 1451.01 L3642.33 1451.76 L3625.38 1451.76 L3625.38 1451.51 L3608.30 1451.51 L3608.30 1452.38 L3591.22 1452.38 L3591.22 1451.76 L3574.15 1451.76 L3574.15 1451.01 L3557.19 1451.01 L3557.19 1451.26 L3540.12 1451.26 L3540.12 1451.76 L3523.04 1451.76 L3523.04 1451.51 L3506.09 1451.51 L3506.09 1450.27 L3489.01 1450.27 L3489.01 1449.65 L3471.93 1449.65 L3471.93 1449.65 L3454.98 1449.65 L3454.98 1449.65 L3437.90 1449.65 L3437.90 1449.65 L3420.82 1449.65 L3420.82 1449.28 L3403.74 1449.28 L3403.74 1449.16 L3386.79 1449.16 L3386.79 1449.41 L3369.71 1449.41 L3369.71 1450.64 L3352.64 1450.64 L3352.64 1450.77 L3335.68 1450.77 L3335.68 1451.63 L3318.60 1451.63 L3318.60 1452.62 L3301.53 1452.62 L3301.53 1452.62 L3284.57 1452.62 L3284.57 1454.11 L3267.49 1454.11 L3267.49 1452.87 L3250.42 1452.87 L3250.42 1452.13 L3233.34 1452.13 L3233.34 1451.88 L3216.39 1451.88 L3216.39 1452.13 L3199.31 1452.13 L3199.31 1451.26 L3182.23 1451.26 L3182.23 1451.88 L3165.28 1451.88 L3165.28 1451.63 L3148.20 1451.63 L3148.20 1450.64 L3131.12 1450.64 L3131.12 1450.40 L3114.17 1450.40 L3114.17 1450.64 L3097.09 1450.64 L3097.09 1452.13 L3080.01 1452.13 L3080.01 1452.99 L3062.94 1452.99 L3062.94 1454.11 L3045.98 1454.11 L3045.98 1452.75 L3028.91 1452.75 L3028.91 1452.50 L3011.83 1452.50 L3011.83 1452.25 L2994.87 1452.25 L2994.87 1451.14 L2977.80 1451.14 L2977.80 1451.51 L2960.72 1451.51 L2960.72 1451.26 L2943.76 1451.26 L2943.76 1451.51 L2926.69 1451.51 L2926.69 1452.25 L2909.61 1452.25 L2909.61 1453.24 L2892.53 1453.24 L2892.53 1454.85 L2875.58 1454.85 L2875.58 1455.35 L2858.50 1455.35 L2858.50 1456.09 L2841.42 1456.09 L2841.42 1456.95 L2824.47 1456.95 L2824.47 1457.20 L2807.39 1457.20 L2807.39 1458.07 L2790.32 1458.07 L2790.32 1457.57 L2773.36 1457.57 L2773.36 1456.83 L2756.28 1456.83 L2756.28 1456.71 L2739.21 1456.71 L2739.21 1457.08 L2722.13 1457.08 L2722.13 1456.58 L2705.18 1456.58 L2705.18 1456.09 L2688.10 1456.09 L2688.10 1456.09 L2671.02 1456.09 L2671.02 1455.47 L2654.07 1455.47 L2654.07 1456.09 L2636.99 1456.09 L2636.99 1456.09 L2619.91 1456.09 L2619.91 1455.47 L2602.96 1455.47 L2602.96 1454.60 L2585.88 1454.60 L2585.88 1453.49 L2568.80 1453.49 L2568.80 1453.24 L2551.72 1453.24 L2551.72 1454.11 L2534.77 1454.11 L2534.77 1453.86 L2517.69 1453.86 L2517.69 1453.49 L2500.62 1453.49 L2500.62 1453.37 L2483.66 1453.37 L2483.66 1453.12 L2466.59 1453.12 L2466.59 1454.97 L2449.51 1454.97 L2449.51 1453.86 L2432.55 1453.86 L2432.55 1452.00 L2415.48 1452.00 L2415.48 1450.89 L2398.40 1450.89 L2398.40 1449.16 L2381.32 1449.16 L2381.32 1448.79 L2364.37 1448.79 L2364.37 1448.17 L2347.29 1448.17 L2347.29 1446.44 L2330.21 1446.44 L2330.21 1443.96 L2313.26 1443.96 L2313.26 1443.59 L2296.18 1443.59 L2296.18 1443.09 L2279.10 1443.09 L2279.10 1442.35 L2262.15 1442.35 L2262.15 1443.84 L2245.07 1443.84 L2245.07 1445.69 L2227.99 1445.69 L2227.99 1448.04 L2210.92 1448.04 L2210.92 1447.55 L2193.96 1447.55 L2193.96 1446.56 L2176.89 1446.56 L2176.89 1445.45 L2159.81 1445.45 L2159.81 1445.94 L2142.86 1445.94 L2142.86 1446.44 L2125.78 1446.44 L2125.78 1446.06 L2108.70 1446.06 L2108.70 1446.81 L2091.75 1446.81 L2091.75 1445.82 L2074.67 1445.82 L2074.67 1445.07 L2057.59 1445.07 L2057.59 1446.81 L2040.51 1446.81 L2040.51 1446.44 L2023.56 1446.44 L2023.56 1445.82 L2006.48 1445.82 L2006.48 1446.31 L1989.40 1446.31 L1989.40 1443.96 L1972.45 1443.96 L1972.45 1445.45 L1955.37 1445.45 L1955.37 1444.33 L1938.30 1444.33 L1938.30 1443.47 L1921.34 1443.47 L1921.34 1444.46 L1904.27 1444.46 L1904.27 1446.44 L1887.19 1446.44 L1887.19 1446.31 L1870.11 1446.31 L1870.11 1445.20 L1853.16 1445.20 L1853.16 1445.94 L1836.08 1445.94 L1836.08 1444.33 L1819.00 1444.33 L1819.00 1443.22 L1802.05 1443.22 L1802.05 1442.97 L1784.97 1442.97 L1784.97 1442.85 L1767.89 1442.85 L1767.89 1444.08 L1750.94 1444.08 L1750.94 1446.81 L1733.86 1446.81 L1733.86 1446.56 L1716.78 1446.56 L1716.78 1444.21 L1699.71 1444.21 L1699.71 1443.84 L1682.75 1443.84 L1682.75 1445.07 L1665.67 1445.07 L1665.67 1443.84 L1648.60 1443.84 L1648.60 1445.07 L1631.64 1445.07 L1631.64 1444.58 L1614.57 1444.58 L1614.57 1444.46 L1597.49 1444.46 L1597.49 1442.72 L1580.54 1442.72 L1580.54 1440.25 L1563.46 1440.25 L1563.46 1437.90 L1546.38 1437.90 L1546.38 1436.41 L1529.30 1436.41 L1529.30 1432.08 L1512.35 1432.08 L1512.35 1430.59 L1495.27 1430.59 L1495.27 1431.58 L1478.19 1431.58 L1478.19 1433.69 L1461.24 1433.69 L1461.24 1432.20 L1444.16 1432.20 L1444.16 1429.36 L1427.09 1429.36 L1427.09 1429.73 L1410.13 1429.73 L1410.13 1429.98 L1393.05 1429.98 L1393.05 1430.22 L1375.98 1430.22 L1375.98 1430.72 L1358.90 1430.72 L1358.90 1430.47 L1341.94 1430.47 L1341.94 1428.99 L1324.87 1428.99 L1324.87 1429.23 L1307.79 1429.23 L1307.79 1428.24 L1290.84 1428.24 L1290.84 1425.64 L1273.76 1425.64 L1273.76 1425.40 L1256.68 1425.40 L1256.68 1421.68 L1239.73 1421.68 L1239.73 1419.83 L1222.65 1419.83 L1222.65 1423.17 L1205.57 1423.17 L1205.57 1420.69 L1188.49 1420.69 L1188.49 1416.24 L1171.54 1416.24 L1171.54 1412.77 L1154.46 1412.77 L1154.46 1412.16 L1137.39 1412.16 L1137.39 1409.80 L1120.43 1409.80 L1120.43 1404.48 L1103.36 1404.48 L1103.36 1403.25 L1086.28 1403.25 L1086.28 1405.72 L1069.32 1405.72 L1069.32 1398.67 L1052.25 1398.67 L1052.25 1397.30 L1035.17 1397.30 L1035.17 1404.73 L1018.22 1404.73 L1018.22 1405.47 L1001.14 1405.47 L1001.14 1406.59 L984.06 1406.59 L984.06 1403.12 L966.98 1403.12 L966.98 1404.73 L950.03 1404.73 L950.03 1408.07 L932.95 1408.07 L932.95 1402.50 L915.87 1402.50 L915.87 1403.86 L898.92 1403.86 L898.92 1396.07 L881.84 1396.07 L881.84 1393.84 L864.76 1393.84 L864.76 1399.16 L847.81 1399.16 L847.81 1388.39 L830.73 1388.39 L830.73 1388.02 L813.66 1388.02 L813.66 1363.52 L796.58 1363.52 L796.58 1386.66 L779.63 1386.66 L779.63 1384.81 L762.55 1384.81 L762.55 1371.44 L745.47 1371.44 L745.47 1836.26 Z" stroke-linejoin="round"/>
	</defs>
	<defs>
		<clipPath id="clipPath_EvMVNiyn">
			<use xlink:href="#path_ywVfqkvX"/>
		</clipPath>
	</defs>
	<use xlink:href="#path_ywVfqkvX" style="stroke:none;fill:#999999;fill-opacity:0.65"/>
	<use xlink:href="#path_ywVfqkvX" style="fill:none;stroke:#808080;stroke-opacity:0.65;stroke-width:17.28" clip-path="url(#clipPath_EvMVNiyn)"/>
	<path d=" M745.47 1636.64 L762.55 1636.64 L762.55 1633.80 L779.50 1633.80 L779.50 1623.53 L796.58 1623.53 L796.58 1596.30 L813.66 1596.30 L813.66 1606.45 L830.61 1606.45 L830.61 1598.78 L847.69 1598.78 L847.69 1601.38 L864.76 1601.38 L864.76 1590.61 L881.72 1590.61 L881.72 1586.65 L898.80 1586.65 L898.80 1588.26 L915.87 1588.26 L915.87 1582.44 L932.95 1582.44 L932.95 1582.81 L949.90 1582.81 L949.90 1575.39 L966.98 1575.39 L966.98 1570.07 L984.06 1570.07 L984.06 1569.32 L1001.01 1569.32 L1001.01 1565.24 L1018.09 1565.24 L1018.09 1561.40 L1035.17 1561.40 L1035.17 1552.00 L1052.12 1552.00 L1052.12 1549.89 L1069.20 1549.89 L1069.20 1552.99 L1086.28 1552.99 L1086.28 1548.66 L1103.36 1548.66 L1103.36 1547.54 L1120.31 1547.54 L1120.31 1549.65 L1137.39 1549.65 L1137.39 1549.77 L1154.46 1549.77 L1154.46 1548.28 L1171.42 1548.28 L1171.42 1548.90 L1188.49 1548.90 L1188.49 1550.88 L1205.57 1550.88 L1205.57 1551.38 L1222.53 1551.38 L1222.53 1546.68 L1239.60 1546.68 L1239.60 1546.68 L1256.68 1546.68 L1256.68 1548.41 L1273.63 1548.41 L1273.63 1547.42 L1290.71 1547.42 L1290.71 1548.28 L1307.79 1548.28 L1307.79 1547.91 L1324.87 1547.91 L1324.87 1546.30 L1341.82 1546.30 L1341.82 1546.43 L1358.90 1546.43 L1358.90 1545.31 L1375.98 1545.31 L1375.98 1543.46 L1392.93 1543.46 L1392.93 1542.10 L1410.01 1542.10 L1410.01 1540.74 L1427.09 1540.74 L1427.09 1539.37 L1444.04 1539.37 L1444.04 1540.98 L1461.12 1540.98 L1461.12 1541.23 L1478.19 1541.23 L1478.19 1538.26 L1495.27 1538.26 L1495.27 1536.40 L1512.22 1536.40 L1512.22 1536.90 L1529.30 1536.90 L1529.30 1539.87 L1546.38 1539.87 L1546.38 1540.61 L1563.33 1540.61 L1563.33 1541.97 L1580.41 1541.97 L1580.41 1543.58 L1597.49 1543.58 L1597.49 1544.20 L1614.44 1544.20 L1614.44 1543.58 L1631.52 1543.58 L1631.52 1543.46 L1648.60 1543.46 L1648.60 1541.60 L1665.67 1541.60 L1665.67 1542.10 L1682.63 1542.10 L1682.63 1540.36 L1699.71 1540.36 L1699.71 1540.12 L1716.78 1540.12 L1716.78 1541.60 L1733.74 1541.60 L1733.74 1541.48 L1750.82 1541.48 L1750.82 1538.38 L1767.89 1538.38 L1767.89 1536.78 L1784.85 1536.78 L1784.85 1536.53 L1801.92 1536.53 L1801.92 1536.28 L1819.00 1536.28 L1819.00 1536.78 L1836.08 1536.78 L1836.08 1537.64 L1853.03 1537.64 L1853.03 1536.53 L1870.11 1536.53 L1870.11 1537.15 L1887.19 1537.15 L1887.19 1536.90 L1904.14 1536.90 L1904.14 1534.80 L1921.22 1534.80 L1921.22 1533.43 L1938.30 1533.43 L1938.30 1533.68 L1955.25 1533.68 L1955.25 1534.42 L1972.33 1534.42 L1972.33 1532.82 L1989.40 1532.82 L1989.40 1534.42 L2006.48 1534.42 L2006.48 1533.68 L2023.44 1533.68 L2023.44 1533.81 L2040.51 1533.81 L2040.51 1533.93 L2057.59 1533.93 L2057.59 1531.95 L2074.55 1531.95 L2074.55 1532.44 L2091.62 1532.44 L2091.62 1532.94 L2108.70 1532.94 L2108.70 1532.07 L2125.65 1532.07 L2125.65 1532.07 L2142.73 1532.07 L2142.73 1531.45 L2159.81 1531.45 L2159.81 1530.59 L2176.89 1530.59 L2176.89 1531.33 L2193.84 1531.33 L2193.84 1532.07 L2210.92 1532.07 L2210.92 1532.20 L2227.99 1532.20 L2227.99 1529.85 L2244.95 1529.85 L2244.95 1527.87 L2262.03 1527.87 L2262.03 1526.26 L2279.10 1526.26 L2279.10 1526.63 L2296.06 1526.63 L2296.06 1526.88 L2313.14 1526.88 L2313.14 1527.00 L2330.21 1527.00 L2330.21 1528.98 L2347.29 1528.98 L2347.29 1530.46 L2364.24 1530.46 L2364.24 1530.84 L2381.32 1530.84 L2381.32 1530.84 L2398.40 1530.84 L2398.40 1532.32 L2415.35 1532.32 L2415.35 1533.06 L2432.43 1533.06 L2432.43 1534.67 L2449.51 1534.67 L2449.51 1535.54 L2466.46 1535.54 L2466.46 1533.68 L2483.54 1533.68 L2483.54 1533.81 L2500.62 1533.81 L2500.62 1533.68 L2517.69 1533.68 L2517.69 1533.93 L2534.65 1533.93 L2534.65 1534.05 L2551.72 1534.05 L2551.72 1533.31 L2568.80 1533.31 L2568.80 1533.31 L2585.76 1533.31 L2585.76 1534.18 L2602.83 1534.18 L2602.83 1534.80 L2619.91 1534.80 L2619.91 1535.17 L2636.86 1535.17 L2636.86 1535.04 L2653.94 1535.04 L2653.94 1534.55 L2671.02 1534.55 L2671.02 1534.92 L2688.10 1534.92 L2688.10 1534.92 L2705.05 1534.92 L2705.05 1535.17 L2722.13 1535.17 L2722.13 1535.54 L2739.21 1535.54 L2739.21 1535.04 L2756.16 1535.04 L2756.16 1535.04 L2773.24 1535.04 L2773.24 1535.66 L2790.32 1535.66 L2790.32 1536.16 L2807.27 1536.16 L2807.27 1535.29 L2824.35 1535.29 L2824.35 1534.92 L2841.42 1534.92 L2841.42 1534.18 L2858.50 1534.18 L2858.50 1533.31 L2875.45 1533.31 L2875.45 1532.82 L2892.53 1532.82 L2892.53 1531.33 L2909.61 1531.33 L2909.61 1530.34 L2926.56 1530.34 L2926.56 1529.72 L2943.64 1529.72 L2943.64 1529.47 L2960.72 1529.47 L2960.72 1529.60 L2977.67 1529.60 L2977.67 1529.23 L2994.75 1529.23 L2994.75 1530.22 L3011.83 1530.22 L3011.83 1530.34 L3028.91 1530.34 L3028.91 1530.59 L3045.86 1530.59 L3045.86 1531.83 L3062.94 1531.83 L3062.94 1530.71 L3080.01 1530.71 L3080.01 1529.97 L3096.97 1529.97 L3096.97 1528.48 L3114.05 1528.48 L3114.05 1528.24 L3131.12 1528.24 L3131.12 1528.48 L3148.08 1528.48 L3148.08 1529.35 L3165.15 1529.35 L3165.15 1529.60 L3182.23 1529.60 L3182.23 1528.98 L3199.31 1528.98 L3199.31 1529.72 L3216.26 1529.72 L3216.26 1529.47 L3233.34 1529.47 L3233.34 1529.72 L3250.42 1529.72 L3250.42 1530.59 L3267.37 1530.59 L3267.37 1531.70 L3284.45 1531.70 L3284.45 1530.46 L3301.53 1530.46 L3301.53 1530.34 L3318.48 1530.34 L3318.48 1529.47 L3335.56 1529.47 L3335.56 1528.61 L3352.64 1528.61 L3352.64 1528.48 L3369.71 1528.48 L3369.71 1527.37 L3386.67 1527.37 L3386.67 1527.12 L3403.74 1527.12 L3403.74 1527.25 L3420.82 1527.25 L3420.82 1527.62 L3437.78 1527.62 L3437.78 1527.62 L3454.85 1527.62 L3454.85 1527.74 L3471.93 1527.74 L3471.93 1527.74 L3488.88 1527.74 L3488.88 1528.36 L3505.96 1528.36 L3505.96 1529.35 L3523.04 1529.35 L3523.04 1529.72 L3540.12 1529.72 L3540.12 1529.35 L3557.07 1529.35 L3557.07 1529.23 L3574.15 1529.23 L3574.15 1529.97 L3591.22 1529.97 L3591.22 1530.59 L3608.18 1530.59 L3608.18 1529.85 L3625.26 1529.85 L3625.26 1530.09 L3642.33 1530.09 L3642.33 1529.47 L3659.29 1529.47 L3659.29 1529.72 L3676.36 1529.72 L3676.36 1529.10 L3693.44 1529.10 L3693.44 1528.36 L3710.40 1528.36 L3710.40 1528.36 L3727.47 1528.36 L3727.47 1527.74 L3744.55 1527.74 L3744.55 1527.49 L3761.63 1527.49 L3761.63 1527.74 L3778.58 1527.74 L3778.58 1528.11 L3795.66 1528.11 L3795.66 1528.48" stroke-linejoin="round" style="fill:none;stroke:#000000;stroke-width:8.64"/>
	<line x1="524.08" y1="2509.23" x2="524.08" y2="419.90" style="stroke:#000000;stroke-width:5.76"/>
	<line x1="524.08" y1="2445.87" x2="484.11" y2="2445.87" style="stroke:#000000;stroke-width:5.76"/>
	<text x="464.06" y="2480.90" style="font-family:'Helvetica';font-size:99.99px;fill:#000000" text-anchor="end">0.00</text>
	<line x1="524.08" y1="1955.19" x2="484.11" y2="1955.19" style="stroke:#000000;stroke-width:5.76"/>
	<text x="464.06" y="1990.22" style="font-family:'Helvetica';font-size:99.99px;fill:#000000" text-anchor="end">0.50</text>
	<line x1="524.08" y1="1464.63" x2="484.11" y2="1464.63" style="stroke:#000000;stroke-width:5.76"/>
	<text x="464.06" y="1499.66" style="font-family:'Helvetica';font-size:99.99px;fill:#000000" text-anchor="end">1.00</text>
	<line x1="524.08" y1="973.94" x2="484.11" y2="973.94" style="stroke:#000000;stroke-width:5.76"/>
	<text x="464.06" y="1008.97" style="font-family:'Helvetica';font-size:99.99px;fill:#000000" text-anchor="end">1.50</text>
	<line x1="524.08" y1="483.26" x2="484.11" y2="483.26" style="stroke:#000000;stroke-width:5.76"/>
	<text x="464.06" y="518.29" style="font-family:'Helvetica';font-size:99.99px;fill:#000000" text-anchor="end">2.00</text>
	<text x="190.71" y="1464.63" style="font-family:'Helvetica';font-size:99.99px;fill:#000000" transform="rotate(-90 190.71,1464.63)" text-anchor="middle">Ratio in Probabilities</text>
	<line x1="524.08" y1="2509.23" x2="3859.02" y2="2509.23" style="stroke:#000000;stroke-width:5.76"/>
	<line x1="587.44" y1="2509.23" x2="587.44" y2="2549.21" style="stroke:#000000;stroke-width:5.76"/>
	<text x="587.44" y="2625.15" style="font-family:'Helvetica';font-size:79.94px;fill:#000000" text-anchor="middle">0</text>
	<line x1="779.87" y1="2509.23" x2="779.87" y2="2549.21" style="stroke:#000000;stroke-width:5.76"/>
	<text x="779.87" y="2625.15" style="font-family:'Helvetica';font-size:79.94px;fill:#000000" text-anchor="middle">.3</text>
	<line x1="972.30" y1="2509.23" x2="972.30" y2="2549.21" style="stroke:#000000;stroke-width:5.76"/>
	<text x="972.30" y="2625.15" style="font-family:'Helvetica';font-size:79.94px;fill:#000000" text-anchor="middle">.6</text>
	<line x1="1164.73" y1="2509.23" x2="1164.73" y2="2549.21" style="stroke:#000000;stroke-width:5.76"/>
	<text x="1164.73" y="2625.15" style="font-family:'Helvetica';font-size:79.94px;fill:#000000" text-anchor="middle">.9</text>
	<line x1="1357.17" y1="2509.23" x2="1357.17" y2="2549.21" style="stroke:#000000;stroke-width:5.76"/>
	<text x="1357.17" y="2625.15" style="font-family:'Helvetica';font-size:79.94px;fill:#000000" text-anchor="middle">1.2</text>
	<line x1="1549.60" y1="2509.23" x2="1549.60" y2="2549.21" style="stroke:#000000;stroke-width:5.76"/>
	<text x="1549.60" y="2625.15" style="font-family:'Helvetica';font-size:79.94px;fill:#000000" text-anchor="middle">1.5</text>
	<line x1="1741.90" y1="2509.23" x2="1741.90" y2="2549.21" style="stroke:#000000;stroke-width:5.76"/>
	<text x="1741.90" y="2625.15" style="font-family:'Helvetica';font-size:79.94px;fill:#000000" text-anchor="middle">1.8</text>
	<line x1="1934.34" y1="2509.23" x2="1934.34" y2="2549.21" style="stroke:#000000;stroke-width:5.76"/>
	<text x="1934.34" y="2625.15" style="font-family:'Helvetica';font-size:79.94px;fill:#000000" text-anchor="middle">2.1</text>
	<line x1="2126.77" y1="2509.23" x2="2126.77" y2="2549.21" style="stroke:#000000;stroke-width:5.76"/>
	<text x="2126.77" y="2625.15" style="font-family:'Helvetica';font-size:79.94px;fill:#000000" text-anchor="middle">2.4</text>
	<line x1="2319.20" y1="2509.23" x2="2319.20" y2="2549.21" style="stroke:#000000;stroke-width:5.76"/>
	<text x="2319.20" y="2625.15" style="font-family:'Helvetica';font-size:79.94px;fill:#000000" text-anchor="middle">2.7</text>
	<line x1="2511.63" y1="2509.23" x2="2511.63" y2="2549.21" style="stroke:#000000;stroke-width:5.76"/>
	<text x="2511.63" y="2625.15" style="font-family:'Helvetica';font-size:79.94px;fill:#000000" text-anchor="middle">3</text>
	<line x1="2704.06" y1="2509.23" x2="2704.06" y2="2549.21" style="stroke:#000000;stroke-width:5.76"/>
	<text x="2704.06" y="2625.15" style="font-family:'Helvetica';font-size:79.94px;fill:#000000" text-anchor="middle">3.3</text>
	<line x1="2896.49" y1="2509.23" x2="2896.49" y2="2549.21" style="stroke:#000000;stroke-width:5.76"/>
	<text x="2896.49" y="2625.15" style="font-family:'Helvetica';font-size:79.94px;fill:#000000" text-anchor="middle">3.6</text>
	<line x1="3088.92" y1="2509.23" x2="3088.92" y2="2549.21" style="stroke:#000000;stroke-width:5.76"/>
	<text x="3088.92" y="2625.15" style="font-family:'Helvetica';font-size:79.94px;fill:#000000" text-anchor="middle">3.9</text>
	<line x1="3281.36" y1="2509.23" x2="3281.36" y2="2549.21" style="stroke:#000000;stroke-width:5.76"/>
	<text x="3281.36" y="2625.15" style="font-family:'Helvetica';font-size:79.94px;fill:#000000" text-anchor="middle">4.2</text>
	<line x1="3473.66" y1="2509.23" x2="3473.66" y2="2549.21" style="stroke:#000000;stroke-width:5.76"/>
	<text x="3473.66" y="2625.15" style="font-family:'Helvetica';font-size:79.94px;fill:#000000" text-anchor="middle">4.5</text>
	<line x1="3666.09" y1="2509.23" x2="3666.09" y2="2549.21" style="stroke:#000000;stroke-width:5.76"/>
	<text x="3666.09" y="2625.15" style="font-family:'Helvetica';font-size:79.94px;fill:#000000" text-anchor="middle">4.8</text>
	<line x1="3858.53" y1="2509.23" x2="3858.53" y2="2549.21" style="stroke:#000000;stroke-width:5.76"/>
	<text x="3858.53" y="2625.15" style="font-family:'Helvetica';font-size:79.94px;fill:#000000" text-anchor="middle">5.1</text>
	<text x="2191.61" y="2729.16" style="font-family:'Helvetica';font-size:99.99px;fill:#000000" text-anchor="middle">Time (years)</text>
	<rect x="558.61" y="454.42" width="993.34" height="326.46" style="fill:#FFFFFF"/>
	<rect x="561.49" y="457.30" width="987.58" height="320.70" style="fill:none;stroke:#000000;stroke-width:5.76"/>
	<rect x="601.92" y="497.74" width="374.34" height="99.99" style="fill:#999999;fill-opacity:0.65"/>
	<rect x="606.24" y="502.06" width="365.70" height="91.35" style="fill:none;stroke:#808080;stroke-opacity:0.65;stroke-width:8.64"/>
	<line x1="601.92" y1="687.70" x2="976.26" y2="687.70" style="stroke:#000000;stroke-width:8.64"/>
	<text x="1036.28" y="582.76" style="font-family:'Helvetica';font-size:99.99px;fill:#000000">CI95%</text>
	<text x="1036.28" y="722.73" style="font-family:'Helvetica';font-size:99.99px;fill:#000000">Difference</text>
	<text x="2191.61" y="369.63" style="font-family:'Helvetica';font-size:110.01px;fill:#000000" text-anchor="middle">from Readmission to 2nd Readmission</text>
	<text x="2191.61" y="215.98" style="font-family:'Helvetica';font-size:139.96px;fill:#1E2D53" text-anchor="middle">Ratio in Probabilities</text>
</svg>
