<?xml version="1.0" encoding="UTF-8" standalone="no"?>
<!-- This is a Stata 16.1 generated SVG file (http://www.stata.com) -->

<svg version="1.1" width="5.50in" height="4.00in" viewBox="0 0 3960 2880" xmlns="http://www.w3.org/2000/svg" xmlns:xlink="http://www.w3.org/1999/xlink">
	<desc>Stata Graph - ratio_models45_3y</desc>
	<rect x="0" y="0" width="3960" height="2880" style="fill:#EAF2F3;stroke:none"/>
	<rect x="0.00" y="0.00" width="3959.88" height="2880.00" style="fill:#FFFFFF"/>
	<rect x="2.88" y="2.88" width="3954.12" height="2874.24" style="fill:none;stroke:#FFFFFF;stroke-width:5.76"/>
	<rect x="524.08" y="419.90" width="3334.94" height="2089.34" style="fill:#FFFFFF"/>
	<rect x="526.96" y="422.78" width="3329.18" height="2083.58" style="fill:none;stroke:#FFFFFF;stroke-width:5.76"/>
	<line x1="524.08" y1="1955.19" x2="3859.02" y2="1955.19" style="stroke:#EAF2F3;stroke-width:8.64"/>
	<line x1="524.08" y1="1464.63" x2="3859.02" y2="1464.63" style="stroke:#EAF2F3;stroke-width:8.64"/>
	<line x1="524.08" y1="973.94" x2="3859.02" y2="973.94" style="stroke:#EAF2F3;stroke-width:8.64"/>
	<line x1="524.08" y1="1464.63" x2="3859.02" y2="1464.63" style="stroke:#1A476F;stroke-width:8.64"/>
	<defs>
		<path id="path_piFmImtw" d="M745.47 1899.00 L745.47 1899.00 L762.55 1899.00 L762.55 1879.33 L779.63 1879.33 L779.63 1870.91 L796.58 1870.91 L796.58 1870.17 L813.66 1870.17 L813.66 1861.63 L830.73 1861.63 L830.73 1857.17 L847.81 1857.17 L847.81 1848.39 L864.76 1848.39 L864.76 1844.92 L881.84 1844.92 L881.84 1838.24 L898.92 1838.24 L898.92 1831.43 L915.87 1831.43 L915.87 1828.46 L932.95 1828.46 L932.95 1822.03 L950.03 1822.03 L950.03 1817.70 L966.98 1817.70 L966.98 1814.97 L984.06 1814.97 L984.06 1805.32 L1001.14 1805.32 L1001.14 1800.12 L1018.22 1800.12 L1018.22 1796.78 L1035.17 1796.78 L1035.17 1793.44 L1052.25 1793.44 L1052.25 1792.45 L1069.32 1792.45 L1069.32 1788.99 L1086.28 1788.99 L1086.28 1787.87 L1103.36 1787.87 L1103.36 1785.64 L1120.43 1785.64 L1120.43 1783.54 L1137.39 1783.54 L1137.39 1780.82 L1154.46 1780.82 L1154.46 1779.58 L1171.54 1779.58 L1171.54 1775.99 L1188.49 1775.99 L1188.49 1775.37 L1205.57 1775.37 L1205.57 1771.91 L1222.65 1771.91 L1222.65 1768.81 L1239.73 1768.81 L1239.73 1768.32 L1256.68 1768.32 L1256.68 1768.32 L1273.76 1768.32 L1273.76 1768.20 L1290.84 1768.20 L1290.84 1767.45 L1307.79 1767.45 L1307.79 1766.22 L1324.87 1766.22 L1324.87 1763.62 L1341.94 1763.62 L1341.94 1761.14 L1358.90 1761.14 L1358.90 1759.41 L1375.98 1759.41 L1375.98 1756.31 L1393.05 1756.31 L1393.05 1754.95 L1410.13 1754.95 L1410.13 1754.58 L1427.09 1754.58 L1427.09 1754.71 L1444.16 1754.71 L1444.16 1751.61 L1461.24 1751.61 L1461.24 1748.77 L1478.19 1748.77 L1478.19 1749.14 L1495.27 1749.14 L1495.27 1747.40 L1512.35 1747.40 L1512.35 1745.80 L1529.30 1745.80 L1529.30 1744.68 L1546.38 1744.68 L1546.38 1741.71 L1563.46 1741.71 L1563.46 1740.10 L1580.54 1740.10 L1580.54 1738.37 L1597.49 1738.37 L1597.49 1736.27 L1614.57 1736.27 L1614.57 1733.42 L1631.64 1733.42 L1631.64 1731.81 L1648.60 1731.81 L1648.60 1729.21 L1665.67 1729.21 L1665.67 1727.73 L1682.75 1727.73 L1682.75 1726.12 L1699.71 1726.12 L1699.71 1726.00 L1716.78 1726.00 L1716.78 1725.50 L1733.86 1725.50 L1733.86 1724.26 L1750.94 1724.26 L1750.94 1724.14 L1767.89 1724.14 L1767.89 1722.78 L1784.97 1722.78 L1784.97 1721.29 L1802.05 1721.29 L1802.05 1720.18 L1819.00 1720.18 L1819.00 1719.68 L1836.08 1719.68 L1836.08 1719.93 L1853.16 1719.93 L1853.16 1718.69 L1870.11 1718.69 L1870.11 1718.07 L1887.19 1718.07 L1887.19 1716.84 L1904.27 1716.84 L1904.27 1714.98 L1921.34 1714.98 L1921.34 1713.50 L1938.30 1713.50 L1938.30 1711.76 L1955.37 1711.76 L1955.37 1709.41 L1972.45 1709.41 L1972.45 1707.68 L1989.40 1707.68 L1989.40 1706.94 L2006.48 1706.94 L2006.48 1705.58 L2023.56 1705.58 L2023.56 1704.59 L2040.51 1704.59 L2040.51 1703.35 L2057.59 1703.35 L2057.59 1701.12 L2074.67 1701.12 L2074.67 1700.25 L2091.75 1700.25 L2091.75 1699.14 L2108.70 1699.14 L2108.70 1698.15 L2125.78 1698.15 L2125.78 1696.54 L2142.86 1696.54 L2142.86 1695.92 L2159.81 1695.92 L2159.81 1694.44 L2176.89 1694.44 L2176.89 1692.58 L2193.96 1692.58 L2193.96 1691.59 L2210.92 1691.59 L2210.92 1690.23 L2227.99 1690.23 L2227.99 1690.11 L2245.07 1690.11 L2245.07 1689.74 L2262.15 1689.74 L2262.15 1688.75 L2279.10 1688.75 L2279.10 1688.13 L2296.18 1688.13 L2296.18 1687.14 L2313.26 1687.14 L2313.26 1685.65 L2330.21 1685.65 L2330.21 1684.54 L2347.29 1684.54 L2347.29 1683.92 L2364.37 1683.92 L2364.37 1683.30 L2381.32 1683.30 L2381.32 1682.68 L2398.40 1682.68 L2398.40 1681.69 L2415.48 1681.69 L2415.48 1680.21 L2432.55 1680.21 L2432.55 1678.84 L2449.51 1678.84 L2449.51 1678.47 L2466.59 1678.47 L2466.59 1677.36 L2483.66 1677.36 L2483.66 1676.74 L2500.62 1676.74 L2500.62 1676.00 L2517.69 1676.00 L2517.69 1675.13 L2534.77 1675.13 L2534.77 1675.01 L2551.72 1675.01 L2551.72 1674.88 L2568.80 1674.88 L2568.80 1674.14 L2585.88 1674.14 L2585.88 1673.28 L2602.96 1673.28 L2602.96 1672.41 L2619.91 1672.41 L2619.91 1672.16 L2636.99 1672.16 L2636.99 1671.67 L2654.07 1671.67 L2654.07 1670.43 L2671.02 1670.43 L2671.02 1670.31 L2688.10 1670.31 L2688.10 1669.44 L2705.18 1669.44 L2705.18 1669.44 L2722.13 1669.44 L2722.13 1668.33 L2739.21 1668.33 L2739.21 1667.71 L2756.28 1667.71 L2756.28 1667.34 L2773.36 1667.34 L2773.36 1665.60 L2790.32 1665.60 L2790.32 1665.11 L2807.39 1665.11 L2807.39 1664.86 L2824.47 1664.86 L2824.47 1663.99 L2841.42 1663.99 L2841.42 1663.25 L2858.50 1663.25 L2858.50 1662.51 L2875.58 1662.51 L2875.58 1661.64 L2892.53 1661.64 L2892.53 1660.90 L2909.61 1660.90 L2909.61 1660.53 L2926.69 1660.53 L2926.69 1659.54 L2943.76 1659.54 L2943.76 1658.18 L2960.72 1658.18 L2960.72 1657.68 L2977.80 1657.68 L2977.80 1657.06 L2994.87 1657.06 L2994.87 1656.32 L3011.83 1656.32 L3011.83 1655.58 L3028.91 1655.58 L3028.91 1654.47 L3045.98 1654.47 L3045.98 1654.22 L3062.94 1654.22 L3062.94 1653.35 L3080.01 1653.35 L3080.01 1653.23 L3097.09 1653.23 L3097.09 1652.49 L3114.17 1652.49 L3114.17 1651.50 L3131.12 1651.50 L3131.12 1651.12 L3148.20 1651.12 L3148.20 1650.51 L3165.28 1650.51 L3165.28 1649.64 L3182.23 1649.64 L3182.23 1648.40 L3199.31 1648.40 L3199.31 1648.03 L3216.39 1648.03 L3216.39 1647.16 L3233.34 1647.16 L3233.34 1647.16 L3250.42 1647.16 L3250.42 1646.55 L3267.49 1646.55 L3267.49 1646.42 L3284.57 1646.42 L3284.57 1646.05 L3301.53 1646.05 L3301.53 1645.80 L3318.60 1645.80 L3318.60 1645.68 L3335.68 1645.68 L3335.68 1645.68 L3352.64 1645.68 L3352.64 1645.68 L3369.71 1645.68 L3369.71 1644.94 L3386.79 1644.94 L3386.79 1644.44 L3403.74 1644.44 L3403.74 1644.19 L3420.82 1644.19 L3420.82 1643.70 L3437.90 1643.70 L3437.90 1643.58 L3454.98 1643.58 L3454.98 1642.71 L3471.93 1642.71 L3471.93 1641.72 L3489.01 1641.72 L3489.01 1640.85 L3506.09 1640.85 L3506.09 1640.23 L3523.04 1640.23 L3523.04 1639.37 L3540.12 1639.37 L3540.12 1639.12 L3557.19 1639.12 L3557.19 1638.38 L3574.15 1638.38 L3574.15 1637.51 L3591.22 1637.51 L3591.22 1637.26 L3608.30 1637.26 L3608.30 1636.77 L3625.38 1636.77 L3625.38 1635.53 L3642.33 1635.53 L3642.33 1635.53 L3659.41 1635.53 L3659.41 1635.04 L3676.49 1635.04 L3676.49 1634.05 L3693.44 1634.05 L3693.44 1633.80 L3710.52 1633.80 L3710.52 1633.80 L3727.60 1633.80 L3727.60 1633.30 L3744.55 1633.30 L3744.55 1632.68 L3761.63 1632.68 L3761.63 1632.19 L3778.71 1632.19 L3778.71 1631.94 L3795.66 1631.94 L3795.66 1631.57 L3795.66 1314.14 L3795.66 1313.77 L3778.71 1313.77 L3778.71 1313.15 L3761.63 1313.15 L3761.63 1312.78 L3744.55 1312.78 L3744.55 1312.53 L3727.60 1312.53 L3727.60 1312.04 L3710.52 1312.04 L3710.52 1311.05 L3693.44 1311.05 L3693.44 1310.31 L3676.49 1310.31 L3676.49 1310.68 L3659.41 1310.68 L3659.41 1310.18 L3642.33 1310.18 L3642.33 1309.19 L3625.38 1309.19 L3625.38 1309.81 L3608.30 1309.81 L3608.30 1309.44 L3591.22 1309.44 L3591.22 1308.45 L3574.15 1308.45 L3574.15 1308.82 L3557.19 1308.82 L3557.19 1308.45 L3540.12 1308.45 L3540.12 1307.83 L3523.04 1307.83 L3523.04 1307.71 L3506.09 1307.71 L3506.09 1307.46 L3489.01 1307.46 L3489.01 1307.58 L3471.93 1307.58 L3471.93 1307.71 L3454.98 1307.71 L3454.98 1307.95 L3437.90 1307.95 L3437.90 1307.09 L3420.82 1307.09 L3420.82 1306.59 L3403.74 1306.59 L3403.74 1305.73 L3386.79 1305.73 L3386.79 1305.11 L3369.71 1305.11 L3369.71 1304.98 L3352.64 1304.98 L3352.64 1303.75 L3335.68 1303.75 L3335.68 1302.39 L3318.60 1302.39 L3318.60 1301.27 L3301.53 1301.27 L3301.53 1300.41 L3284.57 1300.41 L3284.57 1299.66 L3267.49 1299.66 L3267.49 1298.67 L3250.42 1298.67 L3250.42 1298.05 L3233.34 1298.05 L3233.34 1296.94 L3216.39 1296.94 L3216.39 1296.69 L3199.31 1296.69 L3199.31 1295.95 L3182.23 1295.95 L3182.23 1296.32 L3165.28 1296.32 L3165.28 1296.45 L3148.20 1296.45 L3148.20 1295.95 L3131.12 1295.95 L3131.12 1295.08 L3114.17 1295.08 L3114.17 1295.21 L3097.09 1295.21 L3097.09 1294.96 L3080.01 1294.96 L3080.01 1293.85 L3062.94 1293.85 L3062.94 1293.72 L3045.98 1293.72 L3045.98 1292.73 L3028.91 1292.73 L3028.91 1292.86 L3011.83 1292.86 L3011.83 1292.61 L2994.87 1292.61 L2994.87 1291.99 L2977.80 1291.99 L2977.80 1291.62 L2960.72 1291.62 L2960.72 1291.00 L2943.76 1291.00 L2943.76 1291.37 L2926.69 1291.37 L2926.69 1291.62 L2909.61 1291.62 L2909.61 1290.51 L2892.53 1290.51 L2892.53 1290.13 L2875.58 1290.13 L2875.58 1289.76 L2858.50 1289.76 L2858.50 1289.39 L2841.42 1289.39 L2841.42 1289.14 L2824.47 1289.14 L2824.47 1288.77 L2807.39 1288.77 L2807.39 1287.54 L2790.32 1287.54 L2790.32 1286.67 L2773.36 1286.67 L2773.36 1287.66 L2756.28 1287.66 L2756.28 1286.55 L2739.21 1286.55 L2739.21 1285.68 L2722.13 1285.68 L2722.13 1285.56 L2705.18 1285.56 L2705.18 1283.95 L2688.10 1283.95 L2688.10 1283.33 L2671.02 1283.33 L2671.02 1281.84 L2654.07 1281.84 L2654.07 1281.97 L2636.99 1281.97 L2636.99 1280.85 L2619.91 1280.85 L2619.91 1279.61 L2602.96 1279.61 L2602.96 1279.00 L2585.88 1279.00 L2585.88 1278.62 L2568.80 1278.62 L2568.80 1277.88 L2551.72 1277.88 L2551.72 1276.40 L2534.77 1276.40 L2534.77 1274.66 L2517.69 1274.66 L2517.69 1274.05 L2500.62 1274.05 L2500.62 1273.30 L2483.66 1273.30 L2483.66 1272.07 L2466.59 1272.07 L2466.59 1271.82 L2449.51 1271.82 L2449.51 1270.33 L2432.55 1270.33 L2432.55 1270.46 L2415.48 1270.46 L2415.48 1270.70 L2398.40 1270.70 L2398.40 1269.96 L2381.32 1269.96 L2381.32 1268.85 L2364.37 1268.85 L2364.37 1267.49 L2347.29 1267.49 L2347.29 1266.25 L2330.21 1266.25 L2330.21 1265.75 L2313.26 1265.75 L2313.26 1265.88 L2296.18 1265.88 L2296.18 1265.26 L2279.10 1265.26 L2279.10 1263.90 L2262.15 1263.90 L2262.15 1263.03 L2245.07 1263.03 L2245.07 1261.42 L2227.99 1261.42 L2227.99 1259.44 L2210.92 1259.44 L2210.92 1258.95 L2193.96 1258.95 L2193.96 1257.96 L2176.89 1257.96 L2176.89 1258.45 L2159.81 1258.45 L2159.81 1258.33 L2142.86 1258.33 L2142.86 1257.22 L2125.78 1257.22 L2125.78 1256.97 L2108.70 1256.97 L2108.70 1256.10 L2091.75 1256.10 L2091.75 1255.11 L2074.67 1255.11 L2074.67 1253.87 L2057.59 1253.87 L2057.59 1254.62 L2040.51 1254.62 L2040.51 1253.63 L2023.56 1253.63 L2023.56 1252.76 L2006.48 1252.76 L2006.48 1252.27 L1989.40 1252.27 L1989.40 1250.53 L1972.45 1250.53 L1972.45 1250.29 L1955.37 1250.29 L1955.37 1250.90 L1938.30 1250.90 L1938.30 1250.66 L1921.34 1250.66 L1921.34 1250.04 L1904.27 1250.04 L1904.27 1249.91 L1887.19 1249.91 L1887.19 1248.92 L1870.11 1248.92 L1870.11 1246.82 L1853.16 1246.82 L1853.16 1245.46 L1836.08 1245.46 L1836.08 1241.75 L1819.00 1241.75 L1819.00 1239.15 L1802.05 1239.15 L1802.05 1237.54 L1784.97 1237.54 L1784.97 1236.42 L1767.89 1236.42 L1767.89 1235.31 L1750.94 1235.31 L1750.94 1231.85 L1733.86 1231.85 L1733.86 1230.11 L1716.78 1230.11 L1716.78 1227.39 L1699.71 1227.39 L1699.71 1223.43 L1682.75 1223.43 L1682.75 1222.19 L1665.67 1222.19 L1665.67 1220.58 L1648.60 1220.58 L1648.60 1221.08 L1631.64 1221.08 L1631.64 1219.47 L1614.57 1219.47 L1614.57 1220.34 L1597.49 1220.34 L1597.49 1219.47 L1580.54 1219.47 L1580.54 1217.99 L1563.46 1217.99 L1563.46 1216.75 L1546.38 1216.75 L1546.38 1217.99 L1529.30 1217.99 L1529.30 1215.51 L1512.35 1215.51 L1512.35 1213.78 L1495.27 1213.78 L1495.27 1212.17 L1478.19 1212.17 L1478.19 1206.72 L1461.24 1206.72 L1461.24 1206.35 L1444.16 1206.35 L1444.16 1206.60 L1427.09 1206.60 L1427.09 1201.53 L1410.13 1201.53 L1410.13 1196.82 L1393.05 1196.82 L1393.05 1193.61 L1375.98 1193.61 L1375.98 1193.23 L1358.90 1193.23 L1358.90 1190.51 L1341.94 1190.51 L1341.94 1188.66 L1324.87 1188.66 L1324.87 1186.80 L1307.79 1186.80 L1307.79 1182.72 L1290.84 1182.72 L1290.84 1178.14 L1273.76 1178.14 L1273.76 1171.45 L1256.68 1171.45 L1256.68 1165.02 L1239.73 1165.02 L1239.73 1159.08 L1222.65 1159.08 L1222.65 1157.22 L1205.57 1157.22 L1205.57 1156.23 L1188.49 1156.23 L1188.49 1149.55 L1171.54 1149.55 L1171.54 1147.94 L1154.46 1147.94 L1154.46 1141.63 L1137.39 1141.63 L1137.39 1137.79 L1120.43 1137.79 L1120.43 1132.72 L1103.36 1132.72 L1103.36 1127.65 L1086.28 1127.65 L1086.28 1119.11 L1069.32 1119.11 L1069.32 1115.64 L1052.25 1115.64 L1052.25 1106.61 L1035.17 1106.61 L1035.17 1101.78 L1018.22 1101.78 L1018.22 1096.34 L1001.14 1096.34 L1001.14 1094.11 L984.06 1094.11 L984.06 1100.42 L966.98 1100.42 L966.98 1093.24 L950.03 1093.24 L950.03 1087.55 L932.95 1087.55 L932.95 1086.31 L915.87 1086.31 L915.87 1076.04 L898.92 1076.04 L898.92 1073.56 L881.84 1073.56 L881.84 1071.58 L864.76 1071.58 L864.76 1059.21 L847.81 1059.21 L847.81 1055.25 L830.73 1055.25 L830.73 1040.52 L813.66 1040.52 L813.66 1035.94 L796.58 1035.94 L796.58 1006.99 L779.63 1006.99 L779.63 996.71 L762.55 996.71 L762.55 1014.16 L745.47 1014.16 L745.47 1899.00 Z" stroke-linejoin="round"/>
	</defs>
	<defs>
		<clipPath id="clipPath_sJWSCCrS">
			<use xlink:href="#path_piFmImtw"/>
		</clipPath>
	</defs>
	<use xlink:href="#path_piFmImtw" style="stroke:none;fill:#999999;fill-opacity:0.65"/>
	<use xlink:href="#path_piFmImtw" style="fill:none;stroke:#808080;stroke-opacity:0.65;stroke-width:17.28" clip-path="url(#clipPath_sJWSCCrS)"/>
	<path d=" M745.47 1561.03 L762.55 1561.03 L762.55 1539.87 L779.50 1539.87 L779.50 1536.40 L796.58 1536.40 L796.58 1545.07 L813.66 1545.07 L813.66 1539.87 L830.61 1539.87 L830.61 1541.11 L847.69 1541.11 L847.69 1535.79 L864.76 1535.79 L864.76 1537.15 L881.72 1537.15 L881.72 1532.82 L898.80 1532.82 L898.80 1528.48 L915.87 1528.48 L915.87 1529.72 L932.95 1529.72 L932.95 1525.39 L949.90 1525.39 L949.90 1524.15 L966.98 1524.15 L966.98 1524.65 L984.06 1524.65 L984.06 1515.37 L1001.01 1515.37 L1001.01 1512.40 L1018.09 1512.40 L1018.09 1511.90 L1035.17 1511.90 L1035.17 1511.16 L1052.12 1511.16 L1052.12 1513.63 L1069.20 1513.63 L1069.20 1512.40 L1086.28 1512.40 L1086.28 1514.62 L1103.36 1514.62 L1103.36 1514.75 L1120.31 1514.75 L1120.31 1515.12 L1137.39 1515.12 L1137.39 1514.62 L1154.46 1514.62 L1154.46 1515.98 L1171.42 1515.98 L1171.42 1514.13 L1188.49 1514.13 L1188.49 1515.98 L1205.57 1515.98 L1205.57 1514.00 L1222.53 1514.00 L1222.53 1512.52 L1239.60 1512.52 L1239.60 1514.38 L1256.68 1514.38 L1256.68 1516.73 L1273.63 1516.73 L1273.63 1519.08 L1290.71 1519.08 L1290.71 1520.19 L1307.79 1520.19 L1307.79 1520.81 L1324.87 1520.81 L1324.87 1519.82 L1341.82 1519.82 L1341.82 1518.71 L1358.90 1518.71 L1358.90 1518.71 L1375.98 1518.71 L1375.98 1516.73 L1392.93 1516.73 L1392.93 1516.97 L1410.01 1516.97 L1410.01 1518.46 L1427.09 1518.46 L1427.09 1520.44 L1444.04 1520.44 L1444.04 1518.21 L1461.12 1518.21 L1461.12 1516.48 L1478.19 1516.48 L1478.19 1518.83 L1495.27 1518.83 L1495.27 1518.21 L1512.22 1518.21 L1512.22 1517.84 L1529.30 1517.84 L1529.30 1518.09 L1546.38 1518.09 L1546.38 1515.61 L1563.33 1515.61 L1563.33 1514.99 L1580.41 1514.99 L1580.41 1514.38 L1597.49 1514.38 L1597.49 1513.39 L1614.44 1513.39 L1614.44 1511.16 L1631.52 1511.16 L1631.52 1510.79 L1648.60 1510.79 L1648.60 1508.93 L1665.67 1508.93 L1665.67 1508.44 L1682.63 1508.44 L1682.63 1507.94 L1699.71 1507.94 L1699.71 1509.30 L1716.78 1509.30 L1716.78 1510.04 L1733.74 1510.04 L1733.74 1509.92 L1750.82 1509.92 L1750.82 1511.16 L1767.89 1511.16 L1767.89 1510.79 L1784.85 1510.79 L1784.85 1510.17 L1801.92 1510.17 L1801.92 1510.17 L1819.00 1510.17 L1819.00 1510.79 L1836.08 1510.79 L1836.08 1512.40 L1853.03 1512.40 L1853.03 1512.15 L1870.11 1512.15 L1870.11 1512.64 L1887.19 1512.64 L1887.19 1512.15 L1904.14 1512.15 L1904.14 1511.03 L1921.22 1511.03 L1921.22 1510.29 L1938.30 1510.29 L1938.30 1509.30 L1955.25 1509.30 L1955.25 1507.57 L1972.33 1507.57 L1972.33 1506.58 L1989.40 1506.58 L1989.40 1506.70 L2006.48 1506.70 L2006.48 1506.21 L2023.44 1506.21 L2023.44 1505.84 L2040.51 1505.84 L2040.51 1505.47 L2057.59 1505.47 L2057.59 1503.73 L2074.55 1503.73 L2074.55 1503.73 L2091.62 1503.73 L2091.62 1503.36 L2108.70 1503.36 L2108.70 1503.11 L2125.65 1503.11 L2125.65 1502.25 L2142.73 1502.25 L2142.73 1502.12 L2159.81 1502.12 L2159.81 1501.38 L2176.89 1501.38 L2176.89 1500.02 L2193.84 1500.02 L2193.84 1499.77 L2210.92 1499.77 L2210.92 1499.03 L2227.99 1499.03 L2227.99 1499.77 L2244.95 1499.77 L2244.95 1500.27 L2262.03 1500.27 L2262.03 1499.90 L2279.10 1499.90 L2279.10 1500.14 L2296.06 1500.14 L2296.06 1499.77 L2313.14 1499.77 L2313.14 1498.78 L2330.21 1498.78 L2330.21 1498.29 L2347.29 1498.29 L2347.29 1498.29 L2364.24 1498.29 L2364.24 1498.54 L2381.32 1498.54 L2381.32 1498.54 L2398.40 1498.54 L2398.40 1498.29 L2415.35 1498.29 L2415.35 1497.30 L2432.43 1497.30 L2432.43 1496.31 L2449.51 1496.31 L2449.51 1496.80 L2466.46 1496.80 L2466.46 1496.06 L2483.54 1496.06 L2483.54 1496.31 L2500.62 1496.31 L2500.62 1496.06 L2517.69 1496.06 L2517.69 1495.81 L2534.65 1495.81 L2534.65 1496.56 L2551.72 1496.56 L2551.72 1497.05 L2568.80 1497.05 L2568.80 1496.80 L2585.76 1496.80 L2585.76 1496.43 L2602.83 1496.43 L2602.83 1496.18 L2619.91 1496.18 L2619.91 1496.56 L2636.86 1496.56 L2636.86 1496.68 L2653.94 1496.68 L2653.94 1495.94 L2671.02 1495.94 L2671.02 1496.43 L2688.10 1496.43 L2688.10 1496.18 L2705.05 1496.18 L2705.05 1496.68 L2722.13 1496.68 L2722.13 1496.06 L2739.21 1496.06 L2739.21 1496.18 L2756.16 1496.18 L2756.16 1496.31 L2773.24 1496.31 L2773.24 1494.82 L2790.32 1494.82 L2790.32 1494.95 L2807.27 1494.95 L2807.27 1495.32 L2824.35 1495.32 L2824.35 1494.95 L2841.42 1494.95 L2841.42 1494.58 L2858.50 1494.58 L2858.50 1494.20 L2875.45 1494.20 L2875.45 1493.96 L2892.53 1493.96 L2892.53 1493.59 L2909.61 1493.59 L2909.61 1493.83 L2926.56 1493.83 L2926.56 1493.09 L2943.64 1493.09 L2943.64 1492.22 L2960.72 1492.22 L2960.72 1492.10 L2977.67 1492.10 L2977.67 1491.85 L2994.75 1491.85 L2994.75 1491.73 L3011.83 1491.73 L3011.83 1491.36 L3028.91 1491.36 L3028.91 1490.62 L3045.86 1490.62 L3045.86 1490.86 L3062.94 1490.86 L3062.94 1490.49 L3080.01 1490.49 L3080.01 1490.86 L3096.97 1490.86 L3096.97 1490.49 L3114.05 1490.49 L3114.05 1489.75 L3131.12 1489.75 L3131.12 1490.00 L3148.08 1490.00 L3148.08 1489.87 L3165.15 1489.87 L3165.15 1489.25 L3182.23 1489.25 L3182.23 1488.39 L3199.31 1488.39 L3199.31 1488.39 L3216.26 1488.39 L3216.26 1488.02 L3233.34 1488.02 L3233.34 1488.39 L3250.42 1488.39 L3250.42 1488.39 L3267.37 1488.39 L3267.37 1488.64 L3284.45 1488.64 L3284.45 1488.76 L3301.53 1488.76 L3301.53 1489.01 L3318.48 1489.01 L3318.48 1489.38 L3335.56 1489.38 L3335.56 1490.00 L3352.64 1490.00 L3352.64 1490.49 L3369.71 1490.49 L3369.71 1490.00 L3386.67 1490.00 L3386.67 1490.12 L3403.74 1490.12 L3403.74 1490.24 L3420.82 1490.24 L3420.82 1490.12 L3437.78 1490.12 L3437.78 1490.49 L3454.85 1490.49 L3454.85 1489.87 L3471.93 1489.87 L3471.93 1489.13 L3488.88 1489.13 L3488.88 1488.64 L3505.96 1488.64 L3505.96 1488.39 L3523.04 1488.39 L3523.04 1487.89 L3540.12 1487.89 L3540.12 1488.02 L3557.07 1488.02 L3557.07 1487.77 L3574.15 1487.77 L3574.15 1487.03 L3591.22 1487.03 L3591.22 1487.40 L3608.18 1487.40 L3608.18 1487.15 L3625.26 1487.15 L3625.26 1486.16 L3642.33 1486.16 L3642.33 1486.53 L3659.29 1486.53 L3659.29 1486.53 L3676.36 1486.53 L3676.36 1485.79 L3693.44 1485.79 L3693.44 1485.91 L3710.40 1485.91 L3710.40 1486.41 L3727.47 1486.41 L3727.47 1486.28 L3744.55 1486.28 L3744.55 1486.04 L3761.63 1486.04 L3761.63 1485.79 L3778.58 1485.79 L3778.58 1486.04 L3795.66 1486.04 L3795.66 1485.91" stroke-linejoin="round" style="fill:none;stroke:#000000;stroke-width:8.64"/>
	<line x1="524.08" y1="2509.23" x2="524.08" y2="419.90" style="stroke:#000000;stroke-width:5.76"/>
	<line x1="524.08" y1="2445.87" x2="484.11" y2="2445.87" style="stroke:#000000;stroke-width:5.76"/>
	<text x="464.06" y="2480.90" style="font-family:'Helvetica';font-size:99.99px;fill:#000000" text-anchor="end">0.00</text>
	<line x1="524.08" y1="1955.19" x2="484.11" y2="1955.19" style="stroke:#000000;stroke-width:5.76"/>
	<text x="464.06" y="1990.22" style="font-family:'Helvetica';font-size:99.99px;fill:#000000" text-anchor="end">0.50</text>
	<line x1="524.08" y1="1464.63" x2="484.11" y2="1464.63" style="stroke:#000000;stroke-width:5.76"/>
	<text x="464.06" y="1499.66" style="font-family:'Helvetica';font-size:99.99px;fill:#000000" text-anchor="end">1.00</text>
	<line x1="524.08" y1="973.94" x2="484.11" y2="973.94" style="stroke:#000000;stroke-width:5.76"/>
	<text x="464.06" y="1008.97" style="font-family:'Helvetica';font-size:99.99px;fill:#000000" text-anchor="end">1.50</text>
	<line x1="524.08" y1="483.26" x2="484.11" y2="483.26" style="stroke:#000000;stroke-width:5.76"/>
	<text x="464.06" y="518.29" style="font-family:'Helvetica';font-size:99.99px;fill:#000000" text-anchor="end">2.00</text>
	<text x="190.71" y="1464.63" style="font-family:'Helvetica';font-size:99.99px;fill:#000000" transform="rotate(-90 190.71,1464.63)" text-anchor="middle">Ratio in Probabilities</text>
	<line x1="524.08" y1="2509.23" x2="3859.02" y2="2509.23" style="stroke:#000000;stroke-width:5.76"/>
	<line x1="587.44" y1="2509.23" x2="587.44" y2="2549.21" style="stroke:#000000;stroke-width:5.76"/>
	<text x="587.44" y="2625.15" style="font-family:'Helvetica';font-size:79.94px;fill:#000000" text-anchor="middle">0</text>
	<line x1="779.87" y1="2509.23" x2="779.87" y2="2549.21" style="stroke:#000000;stroke-width:5.76"/>
	<text x="779.87" y="2625.15" style="font-family:'Helvetica';font-size:79.94px;fill:#000000" text-anchor="middle">.3</text>
	<line x1="972.30" y1="2509.23" x2="972.30" y2="2549.21" style="stroke:#000000;stroke-width:5.76"/>
	<text x="972.30" y="2625.15" style="font-family:'Helvetica';font-size:79.94px;fill:#000000" text-anchor="middle">.6</text>
	<line x1="1164.73" y1="2509.23" x2="1164.73" y2="2549.21" style="stroke:#000000;stroke-width:5.76"/>
	<text x="1164.73" y="2625.15" style="font-family:'Helvetica';font-size:79.94px;fill:#000000" text-anchor="middle">.9</text>
	<line x1="1357.17" y1="2509.23" x2="1357.17" y2="2549.21" style="stroke:#000000;stroke-width:5.76"/>
	<text x="1357.17" y="2625.15" style="font-family:'Helvetica';font-size:79.94px;fill:#000000" text-anchor="middle">1.2</text>
	<line x1="1549.60" y1="2509.23" x2="1549.60" y2="2549.21" style="stroke:#000000;stroke-width:5.76"/>
	<text x="1549.60" y="2625.15" style="font-family:'Helvetica';font-size:79.94px;fill:#000000" text-anchor="middle">1.5</text>
	<line x1="1741.90" y1="2509.23" x2="1741.90" y2="2549.21" style="stroke:#000000;stroke-width:5.76"/>
	<text x="1741.90" y="2625.15" style="font-family:'Helvetica';font-size:79.94px;fill:#000000" text-anchor="middle">1.8</text>
	<line x1="1934.34" y1="2509.23" x2="1934.34" y2="2549.21" style="stroke:#000000;stroke-width:5.76"/>
	<text x="1934.34" y="2625.15" style="font-family:'Helvetica';font-size:79.94px;fill:#000000" text-anchor="middle">2.1</text>
	<line x1="2126.77" y1="2509.23" x2="2126.77" y2="2549.21" style="stroke:#000000;stroke-width:5.76"/>
	<text x="2126.77" y="2625.15" style="font-family:'Helvetica';font-size:79.94px;fill:#000000" text-anchor="middle">2.4</text>
	<line x1="2319.20" y1="2509.23" x2="2319.20" y2="2549.21" style="stroke:#000000;stroke-width:5.76"/>
	<text x="2319.20" y="2625.15" style="font-family:'Helvetica';font-size:79.94px;fill:#000000" text-anchor="middle">2.7</text>
	<line x1="2511.63" y1="2509.23" x2="2511.63" y2="2549.21" style="stroke:#000000;stroke-width:5.76"/>
	<text x="2511.63" y="2625.15" style="font-family:'Helvetica';font-size:79.94px;fill:#000000" text-anchor="middle">3</text>
	<line x1="2704.06" y1="2509.23" x2="2704.06" y2="2549.21" style="stroke:#000000;stroke-width:5.76"/>
	<text x="2704.06" y="2625.15" style="font-family:'Helvetica';font-size:79.94px;fill:#000000" text-anchor="middle">3.3</text>
	<line x1="2896.49" y1="2509.23" x2="2896.49" y2="2549.21" style="stroke:#000000;stroke-width:5.76"/>
	<text x="2896.49" y="2625.15" style="font-family:'Helvetica';font-size:79.94px;fill:#000000" text-anchor="middle">3.6</text>
	<line x1="3088.92" y1="2509.23" x2="3088.92" y2="2549.21" style="stroke:#000000;stroke-width:5.76"/>
	<text x="3088.92" y="2625.15" style="font-family:'Helvetica';font-size:79.94px;fill:#000000" text-anchor="middle">3.9</text>
	<line x1="3281.36" y1="2509.23" x2="3281.36" y2="2549.21" style="stroke:#000000;stroke-width:5.76"/>
	<text x="3281.36" y="2625.15" style="font-family:'Helvetica';font-size:79.94px;fill:#000000" text-anchor="middle">4.2</text>
	<line x1="3473.66" y1="2509.23" x2="3473.66" y2="2549.21" style="stroke:#000000;stroke-width:5.76"/>
	<text x="3473.66" y="2625.15" style="font-family:'Helvetica';font-size:79.94px;fill:#000000" text-anchor="middle">4.5</text>
	<line x1="3666.09" y1="2509.23" x2="3666.09" y2="2549.21" style="stroke:#000000;stroke-width:5.76"/>
	<text x="3666.09" y="2625.15" style="font-family:'Helvetica';font-size:79.94px;fill:#000000" text-anchor="middle">4.8</text>
	<line x1="3858.53" y1="2509.23" x2="3858.53" y2="2549.21" style="stroke:#000000;stroke-width:5.76"/>
	<text x="3858.53" y="2625.15" style="font-family:'Helvetica';font-size:79.94px;fill:#000000" text-anchor="middle">5.1</text>
	<text x="2191.61" y="2729.16" style="font-family:'Helvetica';font-size:99.99px;fill:#000000" text-anchor="middle">Time (years)</text>
	<rect x="558.61" y="454.42" width="993.34" height="326.46" style="fill:#FFFFFF"/>
	<rect x="561.49" y="457.30" width="987.58" height="320.70" style="fill:none;stroke:#000000;stroke-width:5.76"/>
	<rect x="601.92" y="497.74" width="374.34" height="99.99" style="fill:#999999;fill-opacity:0.65"/>
	<rect x="606.24" y="502.06" width="365.70" height="91.35" style="fill:none;stroke:#808080;stroke-opacity:0.65;stroke-width:8.64"/>
	<line x1="601.92" y1="687.70" x2="976.26" y2="687.70" style="stroke:#000000;stroke-width:8.64"/>
	<text x="1036.28" y="582.76" style="font-family:'Helvetica';font-size:99.99px;fill:#000000">CI95%</text>
	<text x="1036.28" y="722.73" style="font-family:'Helvetica';font-size:99.99px;fill:#000000">Difference</text>
	<text x="2191.61" y="369.63" style="font-family:'Helvetica';font-size:110.01px;fill:#000000" text-anchor="middle">from 3rd Readmission to 4th Readmission</text>
	<text x="2191.61" y="215.98" style="font-family:'Helvetica';font-size:139.96px;fill:#1E2D53" text-anchor="middle">Ratio in Probabilities</text>
</svg>
