<?xml version="1.0" encoding="UTF-8" standalone="no"?>
<!-- This is a Stata 16.1 generated SVG file (http://www.stata.com) -->

<svg version="1.1" width="5.50in" height="4.00in" viewBox="0 0 3960 2880" xmlns="http://www.w3.org/2000/svg" xmlns:xlink="http://www.w3.org/1999/xlink">
	<desc>Stata Graph - ratio_models45rp_3y</desc>
	<rect x="0" y="0" width="3960" height="2880" style="fill:#EAF2F3;stroke:none"/>
	<rect x="0.00" y="0.00" width="3959.88" height="2880.00" style="fill:#FFFFFF"/>
	<rect x="2.88" y="2.88" width="3954.12" height="2874.24" style="fill:none;stroke:#FFFFFF;stroke-width:5.76"/>
	<rect x="524.08" y="419.90" width="3334.94" height="2089.34" style="fill:#FFFFFF"/>
	<rect x="526.96" y="422.78" width="3329.18" height="2083.58" style="fill:none;stroke:#FFFFFF;stroke-width:5.76"/>
	<line x1="524.08" y1="1955.19" x2="3859.02" y2="1955.19" style="stroke:#EAF2F3;stroke-width:8.64"/>
	<line x1="524.08" y1="1464.63" x2="3859.02" y2="1464.63" style="stroke:#EAF2F3;stroke-width:8.64"/>
	<line x1="524.08" y1="973.94" x2="3859.02" y2="973.94" style="stroke:#EAF2F3;stroke-width:8.64"/>
	<line x1="524.08" y1="1464.63" x2="3859.02" y2="1464.63" style="stroke:#1A476F;stroke-width:8.64"/>
	<defs>
		<path id="path_uLOimcij" d="M745.47 1717.08 L745.47 1717.08 L762.55 1717.08 L762.55 1702.48 L779.63 1702.48 L779.63 1687.63 L796.58 1687.63 L796.58 1681.82 L813.66 1681.82 L813.66 1683.80 L830.73 1683.80 L830.73 1688.99 L847.81 1688.99 L847.81 1693.57 L864.76 1693.57 L864.76 1687.01 L881.84 1687.01 L881.84 1690.23 L898.92 1690.23 L898.92 1690.35 L915.87 1690.35 L915.87 1687.76 L932.95 1687.76 L932.95 1683.18 L950.03 1683.18 L950.03 1683.05 L966.98 1683.05 L966.98 1680.45 L984.06 1680.45 L984.06 1680.21 L1001.14 1680.21 L1001.14 1676.74 L1018.22 1676.74 L1018.22 1675.13 L1035.17 1675.13 L1035.17 1674.76 L1052.25 1674.76 L1052.25 1676.37 L1069.32 1676.37 L1069.32 1673.77 L1086.28 1673.77 L1086.28 1673.52 L1103.36 1673.52 L1103.36 1674.27 L1120.43 1674.27 L1120.43 1676.49 L1137.39 1676.49 L1137.39 1675.01 L1154.46 1675.01 L1154.46 1675.50 L1171.54 1675.50 L1171.54 1674.76 L1188.49 1674.76 L1188.49 1675.75 L1205.57 1675.75 L1205.57 1675.87 L1222.65 1675.87 L1222.65 1675.63 L1239.73 1675.63 L1239.73 1676.49 L1256.68 1676.49 L1256.68 1678.47 L1273.76 1678.47 L1273.76 1677.73 L1290.84 1677.73 L1290.84 1678.60 L1307.79 1678.60 L1307.79 1679.34 L1324.87 1679.34 L1324.87 1677.36 L1341.94 1677.36 L1341.94 1676.99 L1358.90 1676.99 L1358.90 1677.24 L1375.98 1677.24 L1375.98 1675.63 L1393.05 1675.63 L1393.05 1675.13 L1410.13 1675.13 L1410.13 1676.37 L1427.09 1676.37 L1427.09 1676.12 L1444.16 1676.12 L1444.16 1676.49 L1461.24 1676.49 L1461.24 1675.50 L1478.19 1675.50 L1478.19 1673.65 L1495.27 1673.65 L1495.27 1673.52 L1512.35 1673.52 L1512.35 1670.68 L1529.30 1670.68 L1529.30 1669.81 L1546.38 1669.81 L1546.38 1668.20 L1563.46 1668.20 L1563.46 1665.23 L1580.54 1665.23 L1580.54 1664.37 L1597.49 1664.37 L1597.49 1664.12 L1614.57 1664.12 L1614.57 1664.12 L1631.64 1664.12 L1631.64 1663.75 L1648.60 1663.75 L1648.60 1664.74 L1665.67 1664.74 L1665.67 1664.12 L1682.75 1664.12 L1682.75 1665.73 L1699.71 1665.73 L1699.71 1666.10 L1716.78 1666.10 L1716.78 1665.73 L1733.86 1665.73 L1733.86 1665.73 L1750.94 1665.73 L1750.94 1664.74 L1767.89 1664.74 L1767.89 1664.86 L1784.97 1664.86 L1784.97 1664.12 L1802.05 1664.12 L1802.05 1663.99 L1819.00 1663.99 L1819.00 1663.13 L1836.08 1663.13 L1836.08 1661.89 L1853.16 1661.89 L1853.16 1661.40 L1870.11 1661.40 L1870.11 1660.41 L1887.19 1660.41 L1887.19 1659.66 L1904.27 1659.66 L1904.27 1658.30 L1921.34 1658.30 L1921.34 1657.68 L1938.30 1657.68 L1938.30 1657.19 L1955.37 1657.19 L1955.37 1657.19 L1972.45 1657.19 L1972.45 1656.69 L1989.40 1656.69 L1989.40 1656.20 L2006.48 1656.20 L2006.48 1654.96 L2023.56 1654.96 L2023.56 1654.47 L2040.51 1654.47 L2040.51 1654.34 L2057.59 1654.34 L2057.59 1654.09 L2074.67 1654.09 L2074.67 1653.72 L2091.75 1653.72 L2091.75 1652.73 L2108.70 1652.73 L2108.70 1652.24 L2125.78 1652.24 L2125.78 1652.11 L2142.86 1652.11 L2142.86 1650.63 L2159.81 1650.63 L2159.81 1650.51 L2176.89 1650.51 L2176.89 1650.01 L2193.96 1650.01 L2193.96 1649.89 L2210.92 1649.89 L2210.92 1650.38 L2227.99 1650.38 L2227.99 1651.00 L2245.07 1651.00 L2245.07 1650.51 L2262.15 1650.51 L2262.15 1650.26 L2279.10 1650.26 L2279.10 1650.13 L2296.18 1650.13 L2296.18 1648.90 L2313.26 1648.90 L2313.26 1648.53 L2330.21 1648.53 L2330.21 1648.28 L2347.29 1648.28 L2347.29 1647.41 L2364.37 1647.41 L2364.37 1647.16 L2381.32 1647.16 L2381.32 1647.16 L2398.40 1647.16 L2398.40 1647.41 L2415.48 1647.41 L2415.48 1646.79 L2432.55 1646.79 L2432.55 1646.55 L2449.51 1646.55 L2449.51 1646.42 L2466.59 1646.42 L2466.59 1646.17 L2483.66 1646.17 L2483.66 1645.80 L2500.62 1645.80 L2500.62 1645.43 L2517.69 1645.43 L2517.69 1644.94 L2534.77 1644.94 L2534.77 1644.32 L2551.72 1644.32 L2551.72 1644.07 L2568.80 1644.07 L2568.80 1643.70 L2585.88 1643.70 L2585.88 1642.71 L2602.96 1642.71 L2602.96 1642.59 L2619.91 1642.59 L2619.91 1642.96 L2636.99 1642.96 L2636.99 1642.71 L2654.07 1642.71 L2654.07 1643.45 L2671.02 1643.45 L2671.02 1643.45 L2688.10 1643.45 L2688.10 1643.33 L2705.18 1643.33 L2705.18 1643.08 L2722.13 1643.08 L2722.13 1643.20 L2739.21 1643.20 L2739.21 1642.96 L2756.28 1642.96 L2756.28 1642.96 L2773.36 1642.96 L2773.36 1642.59 L2790.32 1642.59 L2790.32 1642.71 L2807.39 1642.71 L2807.39 1642.34 L2824.47 1642.34 L2824.47 1642.46 L2841.42 1642.46 L2841.42 1642.59 L2858.50 1642.59 L2858.50 1642.09 L2875.58 1642.09 L2875.58 1642.09 L2892.53 1642.09 L2892.53 1641.97 L2909.61 1641.97 L2909.61 1641.47 L2926.69 1641.47 L2926.69 1640.98 L2943.76 1640.98 L2943.76 1640.23 L2960.72 1640.23 L2960.72 1640.11 L2977.80 1640.11 L2977.80 1639.61 L2994.87 1639.61 L2994.87 1639.49 L3011.83 1639.49 L3011.83 1639.12 L3028.91 1639.12 L3028.91 1638.13 L3045.98 1638.13 L3045.98 1638.01 L3062.94 1638.01 L3062.94 1637.51 L3080.01 1637.51 L3080.01 1637.39 L3097.09 1637.39 L3097.09 1637.14 L3114.17 1637.14 L3114.17 1636.52 L3131.12 1636.52 L3131.12 1636.27 L3148.20 1636.27 L3148.20 1636.03 L3165.28 1636.03 L3165.28 1635.78 L3182.23 1635.78 L3182.23 1635.28 L3199.31 1635.28 L3199.31 1635.04 L3216.39 1635.04 L3216.39 1634.91 L3233.34 1634.91 L3233.34 1634.42 L3250.42 1634.42 L3250.42 1634.79 L3267.49 1634.79 L3267.49 1634.29 L3284.57 1634.29 L3284.57 1634.42 L3301.53 1634.42 L3301.53 1634.54 L3318.60 1634.54 L3318.60 1634.29 L3335.68 1634.29 L3335.68 1634.42 L3352.64 1634.42 L3352.64 1634.05 L3369.71 1634.05 L3369.71 1633.55 L3386.79 1633.55 L3386.79 1633.67 L3403.74 1633.67 L3403.74 1633.55 L3420.82 1633.55 L3420.82 1633.30 L3437.90 1633.30 L3437.90 1633.30 L3454.98 1633.30 L3454.98 1633.06 L3471.93 1633.06 L3471.93 1632.68 L3489.01 1632.68 L3489.01 1632.44 L3506.09 1632.44 L3506.09 1632.44 L3523.04 1632.44 L3523.04 1632.31 L3540.12 1632.31 L3540.12 1631.82 L3557.19 1631.82 L3557.19 1631.69 L3574.15 1631.69 L3574.15 1631.69 L3591.22 1631.69 L3591.22 1631.57 L3608.30 1631.57 L3608.30 1631.69 L3625.38 1631.69 L3625.38 1631.57 L3642.33 1631.57 L3642.33 1631.20 L3659.41 1631.20 L3659.41 1631.32 L3676.49 1631.32 L3676.49 1631.20 L3693.44 1631.20 L3693.44 1631.20 L3710.52 1631.20 L3710.52 1631.08 L3727.60 1631.08 L3727.60 1630.83 L3744.55 1630.83 L3744.55 1630.70 L3761.63 1630.70 L3761.63 1630.46 L3778.71 1630.46 L3778.71 1630.33 L3795.66 1630.33 L3795.66 1630.33 L3795.66 1222.81 L3795.66 1222.32 L3778.71 1222.32 L3778.71 1222.32 L3761.63 1222.32 L3761.63 1222.19 L3744.55 1222.19 L3744.55 1221.95 L3727.60 1221.95 L3727.60 1222.07 L3710.52 1222.07 L3710.52 1221.82 L3693.44 1221.82 L3693.44 1221.45 L3676.49 1221.45 L3676.49 1221.33 L3659.41 1221.33 L3659.41 1220.83 L3642.33 1220.83 L3642.33 1220.96 L3625.38 1220.96 L3625.38 1220.83 L3608.30 1220.83 L3608.30 1220.34 L3591.22 1220.34 L3591.22 1220.21 L3574.15 1220.21 L3574.15 1219.72 L3557.19 1219.72 L3557.19 1219.59 L3540.12 1219.59 L3540.12 1219.84 L3523.04 1219.84 L3523.04 1219.59 L3506.09 1219.59 L3506.09 1219.22 L3489.01 1219.22 L3489.01 1219.22 L3471.93 1219.22 L3471.93 1219.35 L3454.98 1219.35 L3454.98 1219.35 L3437.90 1219.35 L3437.90 1218.98 L3420.82 1218.98 L3420.82 1218.85 L3403.74 1218.85 L3403.74 1218.48 L3386.79 1218.48 L3386.79 1217.74 L3369.71 1217.74 L3369.71 1218.11 L3352.64 1218.11 L3352.64 1218.36 L3335.68 1218.36 L3335.68 1217.74 L3318.60 1217.74 L3318.60 1217.61 L3301.53 1217.61 L3301.53 1217.00 L3284.57 1217.00 L3284.57 1216.62 L3267.49 1216.62 L3267.49 1216.62 L3250.42 1216.62 L3250.42 1215.76 L3233.34 1215.76 L3233.34 1216.01 L3216.39 1216.01 L3216.39 1215.63 L3199.31 1215.63 L3199.31 1215.63 L3182.23 1215.63 L3182.23 1215.88 L3165.28 1215.88 L3165.28 1215.76 L3148.20 1215.76 L3148.20 1215.76 L3131.12 1215.76 L3131.12 1215.63 L3114.17 1215.63 L3114.17 1216.01 L3097.09 1216.01 L3097.09 1216.01 L3080.01 1216.01 L3080.01 1215.63 L3062.94 1215.63 L3062.94 1216.01 L3045.98 1216.01 L3045.98 1215.76 L3028.91 1215.76 L3028.91 1216.75 L3011.83 1216.75 L3011.83 1216.62 L2994.87 1216.62 L2994.87 1216.38 L2977.80 1216.38 L2977.80 1216.75 L2960.72 1216.75 L2960.72 1216.50 L2943.76 1216.50 L2943.76 1217.00 L2926.69 1217.00 L2926.69 1217.37 L2909.61 1217.37 L2909.61 1217.49 L2892.53 1217.49 L2892.53 1217.00 L2875.58 1217.00 L2875.58 1216.38 L2858.50 1216.38 L2858.50 1216.75 L2841.42 1216.75 L2841.42 1216.13 L2824.47 1216.13 L2824.47 1215.26 L2807.39 1215.26 L2807.39 1215.51 L2790.32 1215.51 L2790.32 1214.64 L2773.36 1214.64 L2773.36 1214.77 L2756.28 1214.77 L2756.28 1214.15 L2739.21 1214.15 L2739.21 1214.03 L2722.13 1214.03 L2722.13 1213.16 L2705.18 1213.16 L2705.18 1212.91 L2688.10 1212.91 L2688.10 1212.42 L2671.02 1212.42 L2671.02 1211.67 L2654.07 1211.67 L2654.07 1210.19 L2636.99 1210.19 L2636.99 1209.69 L2619.91 1209.69 L2619.91 1208.58 L2602.96 1208.58 L2602.96 1208.21 L2585.88 1208.21 L2585.88 1209.08 L2568.80 1209.08 L2568.80 1208.95 L2551.72 1208.95 L2551.72 1208.58 L2534.77 1208.58 L2534.77 1208.83 L2517.69 1208.83 L2517.69 1208.83 L2500.62 1208.83 L2500.62 1208.70 L2483.66 1208.70 L2483.66 1208.46 L2466.59 1208.46 L2466.59 1208.09 L2449.51 1208.09 L2449.51 1207.59 L2432.55 1207.59 L2432.55 1207.34 L2415.48 1207.34 L2415.48 1207.47 L2398.40 1207.47 L2398.40 1206.35 L2381.32 1206.35 L2381.32 1205.61 L2364.37 1205.61 L2364.37 1204.87 L2347.29 1204.87 L2347.29 1205.49 L2330.21 1205.49 L2330.21 1205.24 L2313.26 1205.24 L2313.26 1204.99 L2296.18 1204.99 L2296.18 1205.98 L2279.10 1205.98 L2279.10 1205.49 L2262.15 1205.49 L2262.15 1204.74 L2245.07 1204.74 L2245.07 1204.87 L2227.99 1204.87 L2227.99 1203.14 L2210.92 1203.14 L2210.92 1201.28 L2193.96 1201.28 L2193.96 1200.54 L2176.89 1200.54 L2176.89 1200.41 L2159.81 1200.41 L2159.81 1199.92 L2142.86 1199.92 L2142.86 1201.16 L2125.78 1201.16 L2125.78 1200.41 L2108.70 1200.41 L2108.70 1200.17 L2091.75 1200.17 L2091.75 1200.78 L2074.67 1200.78 L2074.67 1200.29 L2057.59 1200.29 L2057.59 1199.42 L2040.51 1199.42 L2040.51 1198.68 L2023.56 1198.68 L2023.56 1198.56 L2006.48 1198.56 L2006.48 1199.30 L1989.40 1199.30 L1989.40 1199.05 L1972.45 1199.05 L1972.45 1198.56 L1955.37 1198.56 L1955.37 1197.19 L1938.30 1197.19 L1938.30 1196.95 L1921.34 1196.95 L1921.34 1196.70 L1904.27 1196.70 L1904.27 1197.81 L1887.19 1197.81 L1887.19 1197.81 L1870.11 1197.81 L1870.11 1198.18 L1853.16 1198.18 L1853.16 1197.32 L1836.08 1197.32 L1836.08 1198.18 L1819.00 1198.18 L1819.00 1198.43 L1802.05 1198.43 L1802.05 1197.44 L1784.97 1197.44 L1784.97 1197.07 L1767.89 1197.07 L1767.89 1195.46 L1750.94 1195.46 L1750.94 1195.34 L1733.86 1195.34 L1733.86 1194.10 L1716.78 1194.10 L1716.78 1193.36 L1699.71 1193.36 L1699.71 1191.63 L1682.75 1191.63 L1682.75 1187.79 L1665.67 1187.79 L1665.67 1186.92 L1648.60 1186.92 L1648.60 1183.83 L1631.64 1183.83 L1631.64 1182.96 L1614.57 1182.96 L1614.57 1181.35 L1597.49 1181.35 L1597.49 1180.49 L1580.54 1180.49 L1580.54 1179.99 L1563.46 1179.99 L1563.46 1182.96 L1546.38 1182.96 L1546.38 1183.83 L1529.30 1183.83 L1529.30 1183.33 L1512.35 1183.33 L1512.35 1186.43 L1495.27 1186.43 L1495.27 1184.94 L1478.19 1184.94 L1478.19 1186.55 L1461.24 1186.55 L1461.24 1186.55 L1444.16 1186.55 L1444.16 1183.83 L1427.09 1183.83 L1427.09 1182.10 L1410.13 1182.10 L1410.13 1178.26 L1393.05 1178.26 L1393.05 1177.89 L1375.98 1177.89 L1375.98 1178.38 L1358.90 1178.38 L1358.90 1176.16 L1341.94 1176.16 L1341.94 1174.92 L1324.87 1174.92 L1324.87 1175.66 L1307.79 1175.66 L1307.79 1172.44 L1290.84 1172.44 L1290.84 1169.60 L1273.76 1169.60 L1273.76 1168.98 L1256.68 1168.98 L1256.68 1163.66 L1239.73 1163.66 L1239.73 1160.56 L1222.65 1160.56 L1222.65 1158.58 L1205.57 1158.58 L1205.57 1156.97 L1188.49 1156.97 L1188.49 1153.39 L1171.54 1153.39 L1171.54 1152.64 L1154.46 1152.64 L1154.46 1149.55 L1137.39 1149.55 L1137.39 1149.67 L1120.43 1149.67 L1120.43 1143.98 L1103.36 1143.98 L1103.36 1141.26 L1086.28 1141.26 L1086.28 1139.90 L1069.32 1139.90 L1069.32 1142.62 L1052.25 1142.62 L1052.25 1138.16 L1035.17 1138.16 L1035.17 1136.80 L1018.22 1136.80 L1018.22 1138.16 L1001.14 1138.16 L1001.14 1142.12 L984.06 1142.12 L984.06 1140.64 L966.98 1140.64 L966.98 1143.86 L950.03 1143.86 L950.03 1141.63 L932.95 1141.63 L932.95 1146.83 L915.87 1146.83 L915.87 1150.17 L898.92 1150.17 L898.92 1148.44 L881.84 1148.44 L881.84 1142.00 L864.76 1142.00 L864.76 1149.80 L847.81 1149.80 L847.81 1139.53 L830.73 1139.53 L830.73 1128.88 L813.66 1128.88 L813.66 1124.18 L796.58 1124.18 L796.58 1130.74 L779.63 1130.74 L779.63 1155.12 L762.55 1155.12 L762.55 1175.41 L745.47 1175.41 L745.47 1717.08 Z" stroke-linejoin="round"/>
	</defs>
	<defs>
		<clipPath id="clipPath_UfqRXRER">
			<use xlink:href="#path_uLOimcij"/>
		</clipPath>
	</defs>
	<use xlink:href="#path_uLOimcij" style="stroke:none;fill:#999999;fill-opacity:0.65"/>
	<use xlink:href="#path_uLOimcij" style="fill:none;stroke:#808080;stroke-opacity:0.65;stroke-width:17.28" clip-path="url(#clipPath_UfqRXRER)"/>
	<path d=" M745.47 1483.69 L762.55 1483.69 L762.55 1466.36 L779.50 1466.36 L779.50 1447.30 L796.58 1447.30 L796.58 1441.11 L813.66 1441.11 L813.66 1444.21 L830.61 1444.21 L830.61 1451.63 L847.69 1451.63 L847.69 1458.44 L864.76 1458.44 L864.76 1451.26 L881.72 1451.26 L881.72 1455.72 L898.80 1455.72 L898.80 1456.58 L915.87 1456.58 L915.87 1453.61 L932.95 1453.61 L932.95 1448.54 L949.90 1448.54 L949.90 1449.28 L966.98 1449.28 L966.98 1446.44 L984.06 1446.44 L984.06 1446.81 L1001.01 1446.81 L1001.01 1442.97 L1018.09 1442.97 L1018.09 1441.49 L1035.17 1441.49 L1035.17 1441.73 L1052.12 1441.73 L1052.12 1444.58 L1069.20 1444.58 L1069.20 1441.86 L1086.28 1441.86 L1086.28 1442.23 L1103.36 1442.23 L1103.36 1443.71 L1120.31 1443.71 L1120.31 1447.30 L1137.39 1447.30 L1137.39 1446.31 L1154.46 1446.31 L1154.46 1447.80 L1171.42 1447.80 L1171.42 1447.67 L1188.49 1447.67 L1188.49 1449.65 L1205.57 1449.65 L1205.57 1450.40 L1222.53 1450.40 L1222.53 1451.01 L1239.60 1451.01 L1239.60 1452.75 L1256.68 1452.75 L1256.68 1456.09 L1273.63 1456.09 L1273.63 1455.84 L1290.71 1455.84 L1290.71 1457.45 L1307.79 1457.45 L1307.79 1459.18 L1324.87 1459.18 L1324.87 1457.70 L1341.82 1457.70 L1341.82 1457.82 L1358.90 1457.82 L1358.90 1458.93 L1375.98 1458.93 L1375.98 1457.70 L1392.93 1457.70 L1392.93 1457.45 L1410.01 1457.45 L1410.01 1459.80 L1427.09 1459.80 L1427.09 1460.30 L1444.04 1460.30 L1444.04 1461.66 L1461.12 1461.66 L1461.12 1461.04 L1478.19 1461.04 L1478.19 1459.18 L1495.27 1459.18 L1495.27 1459.68 L1512.22 1459.68 L1512.22 1456.58 L1529.30 1456.58 L1529.30 1456.21 L1546.38 1456.21 L1546.38 1454.97 L1563.33 1454.97 L1563.33 1451.88 L1580.41 1451.88 L1580.41 1451.51 L1597.49 1451.51 L1597.49 1451.63 L1614.44 1451.63 L1614.44 1452.38 L1631.52 1452.38 L1631.52 1452.38 L1648.60 1452.38 L1648.60 1454.23 L1665.67 1454.23 L1665.67 1454.23 L1682.63 1454.23 L1682.63 1456.71 L1699.71 1456.71 L1699.71 1457.57 L1716.78 1457.57 L1716.78 1457.70 L1733.74 1457.70 L1733.74 1458.19 L1750.82 1458.19 L1750.82 1457.70 L1767.89 1457.70 L1767.89 1458.32 L1784.85 1458.32 L1784.85 1457.94 L1801.92 1457.94 L1801.92 1458.32 L1819.00 1458.32 L1819.00 1457.70 L1836.08 1457.70 L1836.08 1456.58 L1853.03 1456.58 L1853.03 1456.71 L1870.11 1456.71 L1870.11 1455.84 L1887.19 1455.84 L1887.19 1455.35 L1904.14 1455.35 L1904.14 1454.11 L1921.22 1454.11 L1921.22 1453.86 L1938.30 1453.86 L1938.30 1453.61 L1955.25 1453.61 L1955.25 1454.11 L1972.33 1454.11 L1972.33 1453.98 L1989.40 1453.98 L1989.40 1453.74 L2006.48 1453.74 L2006.48 1452.75 L2023.44 1452.75 L2023.44 1452.50 L2040.51 1452.50 L2040.51 1452.62 L2057.59 1452.62 L2057.59 1452.87 L2074.55 1452.87 L2074.55 1452.87 L2091.62 1452.87 L2091.62 1452.00 L2108.70 1452.00 L2108.70 1451.76 L2125.65 1451.76 L2125.65 1451.88 L2142.73 1451.88 L2142.73 1450.52 L2159.81 1450.52 L2159.81 1450.64 L2176.89 1450.64 L2176.89 1450.40 L2193.84 1450.40 L2193.84 1450.64 L2210.92 1450.64 L2210.92 1451.63 L2227.99 1451.63 L2227.99 1452.75 L2244.95 1452.75 L2244.95 1452.38 L2262.03 1452.38 L2262.03 1452.50 L2279.10 1452.50 L2279.10 1452.62 L2296.06 1452.62 L2296.06 1451.51 L2313.14 1451.51 L2313.14 1451.26 L2330.21 1451.26 L2330.21 1451.26 L2347.29 1451.26 L2347.29 1450.40 L2364.24 1450.40 L2364.24 1450.64 L2381.32 1450.64 L2381.32 1450.89 L2398.40 1450.89 L2398.40 1451.51 L2415.35 1451.51 L2415.35 1451.14 L2432.43 1451.14 L2432.43 1451.01 L2449.51 1451.01 L2449.51 1451.14 L2466.46 1451.14 L2466.46 1451.14 L2483.54 1451.14 L2483.54 1451.01 L2500.62 1451.01 L2500.62 1450.89 L2517.69 1450.89 L2517.69 1450.52 L2534.65 1450.52 L2534.65 1450.15 L2551.72 1450.15 L2551.72 1450.02 L2568.80 1450.02 L2568.80 1449.90 L2585.76 1449.90 L2585.76 1448.91 L2602.83 1448.91 L2602.83 1449.03 L2619.91 1449.03 L2619.91 1449.65 L2636.86 1449.65 L2636.86 1449.65 L2653.94 1449.65 L2653.94 1450.77 L2671.02 1450.77 L2671.02 1451.01 L2688.10 1451.01 L2688.10 1451.26 L2705.05 1451.26 L2705.05 1451.14 L2722.13 1451.14 L2722.13 1451.51 L2739.21 1451.51 L2739.21 1451.51 L2756.16 1451.51 L2756.16 1451.63 L2773.24 1451.63 L2773.24 1451.51 L2790.32 1451.51 L2790.32 1451.88 L2807.27 1451.88 L2807.27 1451.51 L2824.35 1451.51 L2824.35 1452.00 L2841.42 1452.00 L2841.42 1452.38 L2858.50 1452.38 L2858.50 1451.88 L2875.45 1451.88 L2875.45 1452.00 L2892.53 1452.00 L2892.53 1452.25 L2909.61 1452.25 L2909.61 1451.88 L2926.56 1451.88 L2926.56 1451.39 L2943.64 1451.39 L2943.64 1450.77 L2960.72 1450.77 L2960.72 1450.77 L2977.67 1450.77 L2977.67 1450.27 L2994.75 1450.27 L2994.75 1450.27 L3011.83 1450.27 L3011.83 1450.15 L3028.91 1450.15 L3028.91 1449.16 L3045.86 1449.16 L3045.86 1449.16 L3062.94 1449.16 L3062.94 1448.66 L3080.01 1448.66 L3080.01 1448.79 L3096.97 1448.79 L3096.97 1448.54 L3114.05 1448.54 L3114.05 1448.17 L3131.12 1448.17 L3131.12 1448.04 L3148.08 1448.04 L3148.08 1447.92 L3165.15 1447.92 L3165.15 1447.80 L3182.23 1447.80 L3182.23 1447.30 L3199.31 1447.30 L3199.31 1447.18 L3216.26 1447.18 L3216.26 1447.30 L3233.34 1447.30 L3233.34 1446.93 L3250.42 1446.93 L3250.42 1447.43 L3267.37 1447.43 L3267.37 1447.18 L3284.45 1447.18 L3284.45 1447.30 L3301.53 1447.30 L3301.53 1447.67 L3318.48 1447.67 L3318.48 1447.55 L3335.56 1447.55 L3335.56 1447.92 L3352.64 1447.92 L3352.64 1447.55 L3369.71 1447.55 L3369.71 1447.05 L3386.67 1447.05 L3386.67 1447.55 L3403.74 1447.55 L3403.74 1447.55 L3420.82 1447.55 L3420.82 1447.55 L3437.78 1447.55 L3437.78 1447.67 L3454.85 1447.67 L3454.85 1447.43 L3471.93 1447.43 L3471.93 1447.18 L3488.88 1447.18 L3488.88 1447.05 L3505.96 1447.05 L3505.96 1447.18 L3523.04 1447.18 L3523.04 1447.18 L3540.12 1447.18 L3540.12 1446.81 L3557.07 1446.81 L3557.07 1446.81 L3574.15 1446.81 L3574.15 1446.93 L3591.22 1446.93 L3591.22 1446.93 L3608.18 1446.93 L3608.18 1447.18 L3625.26 1447.18 L3625.26 1447.18 L3642.33 1447.18 L3642.33 1446.93 L3659.29 1446.93 L3659.29 1447.18 L3676.36 1447.18 L3676.36 1447.18 L3693.44 1447.18 L3693.44 1447.30 L3710.40 1447.30 L3710.40 1447.43 L3727.47 1447.43 L3727.47 1447.18 L3744.55 1447.18 L3744.55 1447.18 L3761.63 1447.18 L3761.63 1447.05 L3778.58 1447.05 L3778.58 1447.05 L3795.66 1447.05 L3795.66 1447.30" stroke-linejoin="round" style="fill:none;stroke:#000000;stroke-width:8.64"/>
	<line x1="524.08" y1="2509.23" x2="524.08" y2="419.90" style="stroke:#000000;stroke-width:5.76"/>
	<line x1="524.08" y1="2445.87" x2="484.11" y2="2445.87" style="stroke:#000000;stroke-width:5.76"/>
	<text x="464.06" y="2480.90" style="font-family:'Helvetica';font-size:99.99px;fill:#000000" text-anchor="end">0.00</text>
	<line x1="524.08" y1="1955.19" x2="484.11" y2="1955.19" style="stroke:#000000;stroke-width:5.76"/>
	<text x="464.06" y="1990.22" style="font-family:'Helvetica';font-size:99.99px;fill:#000000" text-anchor="end">0.50</text>
	<line x1="524.08" y1="1464.63" x2="484.11" y2="1464.63" style="stroke:#000000;stroke-width:5.76"/>
	<text x="464.06" y="1499.66" style="font-family:'Helvetica';font-size:99.99px;fill:#000000" text-anchor="end">1.00</text>
	<line x1="524.08" y1="973.94" x2="484.11" y2="973.94" style="stroke:#000000;stroke-width:5.76"/>
	<text x="464.06" y="1008.97" style="font-family:'Helvetica';font-size:99.99px;fill:#000000" text-anchor="end">1.50</text>
	<line x1="524.08" y1="483.26" x2="484.11" y2="483.26" style="stroke:#000000;stroke-width:5.76"/>
	<text x="464.06" y="518.29" style="font-family:'Helvetica';font-size:99.99px;fill:#000000" text-anchor="end">2.00</text>
	<text x="190.71" y="1464.63" style="font-family:'Helvetica';font-size:99.99px;fill:#000000" transform="rotate(-90 190.71,1464.63)" text-anchor="middle">Ratio in Probabilities</text>
	<line x1="524.08" y1="2509.23" x2="3859.02" y2="2509.23" style="stroke:#000000;stroke-width:5.76"/>
	<line x1="587.44" y1="2509.23" x2="587.44" y2="2549.21" style="stroke:#000000;stroke-width:5.76"/>
	<text x="587.44" y="2625.15" style="font-family:'Helvetica';font-size:79.94px;fill:#000000" text-anchor="middle">0</text>
	<line x1="779.87" y1="2509.23" x2="779.87" y2="2549.21" style="stroke:#000000;stroke-width:5.76"/>
	<text x="779.87" y="2625.15" style="font-family:'Helvetica';font-size:79.94px;fill:#000000" text-anchor="middle">.3</text>
	<line x1="972.30" y1="2509.23" x2="972.30" y2="2549.21" style="stroke:#000000;stroke-width:5.76"/>
	<text x="972.30" y="2625.15" style="font-family:'Helvetica';font-size:79.94px;fill:#000000" text-anchor="middle">.6</text>
	<line x1="1164.73" y1="2509.23" x2="1164.73" y2="2549.21" style="stroke:#000000;stroke-width:5.76"/>
	<text x="1164.73" y="2625.15" style="font-family:'Helvetica';font-size:79.94px;fill:#000000" text-anchor="middle">.9</text>
	<line x1="1357.17" y1="2509.23" x2="1357.17" y2="2549.21" style="stroke:#000000;stroke-width:5.76"/>
	<text x="1357.17" y="2625.15" style="font-family:'Helvetica';font-size:79.94px;fill:#000000" text-anchor="middle">1.2</text>
	<line x1="1549.60" y1="2509.23" x2="1549.60" y2="2549.21" style="stroke:#000000;stroke-width:5.76"/>
	<text x="1549.60" y="2625.15" style="font-family:'Helvetica';font-size:79.94px;fill:#000000" text-anchor="middle">1.5</text>
	<line x1="1741.90" y1="2509.23" x2="1741.90" y2="2549.21" style="stroke:#000000;stroke-width:5.76"/>
	<text x="1741.90" y="2625.15" style="font-family:'Helvetica';font-size:79.94px;fill:#000000" text-anchor="middle">1.8</text>
	<line x1="1934.34" y1="2509.23" x2="1934.34" y2="2549.21" style="stroke:#000000;stroke-width:5.76"/>
	<text x="1934.34" y="2625.15" style="font-family:'Helvetica';font-size:79.94px;fill:#000000" text-anchor="middle">2.1</text>
	<line x1="2126.77" y1="2509.23" x2="2126.77" y2="2549.21" style="stroke:#000000;stroke-width:5.76"/>
	<text x="2126.77" y="2625.15" style="font-family:'Helvetica';font-size:79.94px;fill:#000000" text-anchor="middle">2.4</text>
	<line x1="2319.20" y1="2509.23" x2="2319.20" y2="2549.21" style="stroke:#000000;stroke-width:5.76"/>
	<text x="2319.20" y="2625.15" style="font-family:'Helvetica';font-size:79.94px;fill:#000000" text-anchor="middle">2.7</text>
	<line x1="2511.63" y1="2509.23" x2="2511.63" y2="2549.21" style="stroke:#000000;stroke-width:5.76"/>
	<text x="2511.63" y="2625.15" style="font-family:'Helvetica';font-size:79.94px;fill:#000000" text-anchor="middle">3</text>
	<line x1="2704.06" y1="2509.23" x2="2704.06" y2="2549.21" style="stroke:#000000;stroke-width:5.76"/>
	<text x="2704.06" y="2625.15" style="font-family:'Helvetica';font-size:79.94px;fill:#000000" text-anchor="middle">3.3</text>
	<line x1="2896.49" y1="2509.23" x2="2896.49" y2="2549.21" style="stroke:#000000;stroke-width:5.76"/>
	<text x="2896.49" y="2625.15" style="font-family:'Helvetica';font-size:79.94px;fill:#000000" text-anchor="middle">3.6</text>
	<line x1="3088.92" y1="2509.23" x2="3088.92" y2="2549.21" style="stroke:#000000;stroke-width:5.76"/>
	<text x="3088.92" y="2625.15" style="font-family:'Helvetica';font-size:79.94px;fill:#000000" text-anchor="middle">3.9</text>
	<line x1="3281.36" y1="2509.23" x2="3281.36" y2="2549.21" style="stroke:#000000;stroke-width:5.76"/>
	<text x="3281.36" y="2625.15" style="font-family:'Helvetica';font-size:79.94px;fill:#000000" text-anchor="middle">4.2</text>
	<line x1="3473.66" y1="2509.23" x2="3473.66" y2="2549.21" style="stroke:#000000;stroke-width:5.76"/>
	<text x="3473.66" y="2625.15" style="font-family:'Helvetica';font-size:79.94px;fill:#000000" text-anchor="middle">4.5</text>
	<line x1="3666.09" y1="2509.23" x2="3666.09" y2="2549.21" style="stroke:#000000;stroke-width:5.76"/>
	<text x="3666.09" y="2625.15" style="font-family:'Helvetica';font-size:79.94px;fill:#000000" text-anchor="middle">4.8</text>
	<line x1="3858.53" y1="2509.23" x2="3858.53" y2="2549.21" style="stroke:#000000;stroke-width:5.76"/>
	<text x="3858.53" y="2625.15" style="font-family:'Helvetica';font-size:79.94px;fill:#000000" text-anchor="middle">5.1</text>
	<text x="2191.61" y="2729.16" style="font-family:'Helvetica';font-size:99.99px;fill:#000000" text-anchor="middle">Time (years)</text>
	<rect x="558.61" y="454.42" width="993.34" height="326.46" style="fill:#FFFFFF"/>
	<rect x="561.49" y="457.30" width="987.58" height="320.70" style="fill:none;stroke:#000000;stroke-width:5.76"/>
	<rect x="601.92" y="497.74" width="374.34" height="99.99" style="fill:#999999;fill-opacity:0.65"/>
	<rect x="606.24" y="502.06" width="365.70" height="91.35" style="fill:none;stroke:#808080;stroke-opacity:0.65;stroke-width:8.64"/>
	<line x1="601.92" y1="687.70" x2="976.26" y2="687.70" style="stroke:#000000;stroke-width:8.64"/>
	<text x="1036.28" y="582.76" style="font-family:'Helvetica';font-size:99.99px;fill:#000000">CI95%</text>
	<text x="1036.28" y="722.73" style="font-family:'Helvetica';font-size:99.99px;fill:#000000">Difference</text>
	<text x="2191.61" y="369.63" style="font-family:'Helvetica';font-size:110.01px;fill:#000000" text-anchor="middle">from 3rd Readmission to 4th Readmission (RP)</text>
	<text x="2191.61" y="215.98" style="font-family:'Helvetica';font-size:139.96px;fill:#1E2D53" text-anchor="middle">Ratio in Probabilities</text>
</svg>
