<?xml version="1.0" encoding="UTF-8" standalone="no"?>
<!-- This is a Stata 16.1 generated SVG file (http://www.stata.com) -->

<svg version="1.1" width="5.50in" height="4.00in" viewBox="0 0 3960 2880" xmlns="http://www.w3.org/2000/svg" xmlns:xlink="http://www.w3.org/1999/xlink">
	<desc>Stata Graph - ratio_models45_3y_rp_tc</desc>
	<rect x="0" y="0" width="3960" height="2880" style="fill:#EAF2F3;stroke:none"/>
	<rect x="0.00" y="0.00" width="3959.88" height="2880.00" style="fill:#FFFFFF"/>
	<rect x="2.88" y="2.88" width="3954.12" height="2874.24" style="fill:none;stroke:#FFFFFF;stroke-width:5.76"/>
	<rect x="524.08" y="419.90" width="3334.94" height="2089.34" style="fill:#FFFFFF"/>
	<rect x="526.96" y="422.78" width="3329.18" height="2083.58" style="fill:none;stroke:#FFFFFF;stroke-width:5.76"/>
	<line x1="524.08" y1="1955.19" x2="3859.02" y2="1955.19" style="stroke:#EAF2F3;stroke-width:8.64"/>
	<line x1="524.08" y1="1464.63" x2="3859.02" y2="1464.63" style="stroke:#EAF2F3;stroke-width:8.64"/>
	<line x1="524.08" y1="973.94" x2="3859.02" y2="973.94" style="stroke:#EAF2F3;stroke-width:8.64"/>
	<line x1="524.08" y1="1464.63" x2="3859.02" y2="1464.63" style="stroke:#1A476F;stroke-width:8.64"/>
	<defs>
		<path id="path_ZDyNixGT" d="M745.59 1647.66 L745.59 1647.66 L762.67 1647.66 L762.67 1629.47 L779.63 1629.47 L779.63 1625.88 L796.70 1625.88 L796.70 1621.18 L813.78 1621.18 L813.78 1633.18 L830.73 1633.18 L830.73 1631.69 L847.81 1631.69 L847.81 1625.38 L864.89 1625.38 L864.89 1622.41 L881.84 1622.41 L881.84 1631.45 L898.92 1631.45 L898.92 1627.73 L916.00 1627.73 L916.00 1615.73 L932.95 1615.73 L932.95 1613.13 L950.03 1613.13 L950.03 1615.36 L967.11 1615.36 L967.11 1610.53 L984.06 1610.53 L984.06 1607.07 L1001.14 1607.07 L1001.14 1608.31 L1018.22 1608.31 L1018.22 1606.70 L1035.17 1606.70 L1035.17 1605.71 L1052.25 1605.71 L1052.25 1606.45 L1069.32 1606.45 L1069.32 1606.82 L1086.28 1606.82 L1086.28 1608.92 L1103.36 1608.92 L1103.36 1610.78 L1120.43 1610.78 L1120.43 1609.67 L1137.39 1609.67 L1137.39 1608.31 L1154.46 1608.31 L1154.46 1608.31 L1171.54 1608.31 L1171.54 1608.68 L1188.49 1608.68 L1188.49 1610.29 L1205.57 1610.29 L1205.57 1610.29 L1222.65 1610.29 L1222.65 1607.56 L1239.60 1607.56 L1239.60 1607.32 L1256.68 1607.32 L1256.68 1607.07 L1273.76 1607.07 L1273.76 1607.56 L1290.71 1607.56 L1290.71 1609.67 L1307.79 1609.67 L1307.79 1610.53 L1324.87 1610.53 L1324.87 1609.05 L1341.94 1609.05 L1341.94 1610.16 L1358.90 1610.16 L1358.90 1609.42 L1375.98 1609.42 L1375.98 1609.30 L1393.05 1609.30 L1393.05 1608.68 L1410.01 1608.68 L1410.01 1608.80 L1427.09 1608.80 L1427.09 1606.70 L1444.16 1606.70 L1444.16 1606.82 L1461.12 1606.82 L1461.12 1605.34 L1478.19 1605.34 L1478.19 1603.97 L1495.27 1603.97 L1495.27 1604.47 L1512.22 1604.47 L1512.22 1603.11 L1529.30 1603.11 L1529.30 1602.49 L1546.38 1602.49 L1546.38 1601.38 L1563.33 1601.38 L1563.33 1600.26 L1580.41 1600.26 L1580.41 1600.26 L1597.49 1600.26 L1597.49 1600.14 L1614.44 1600.14 L1614.44 1601.00 L1631.52 1601.00 L1631.52 1601.13 L1648.60 1601.13 L1648.60 1600.76 L1665.55 1600.76 L1665.55 1600.51 L1682.63 1600.51 L1682.63 1601.00 L1699.71 1601.00 L1699.71 1600.39 L1716.66 1600.39 L1716.66 1599.27 L1733.74 1599.27 L1733.74 1598.65 L1750.82 1598.65 L1750.82 1598.78 L1767.77 1598.78 L1767.77 1599.15 L1784.85 1599.15 L1784.85 1598.53 L1801.92 1598.53 L1801.92 1598.78 L1818.88 1598.78 L1818.88 1598.16 L1835.95 1598.16 L1835.95 1598.16 L1853.03 1598.16 L1853.03 1597.29 L1869.99 1597.29 L1869.99 1596.18 L1887.06 1596.18 L1887.06 1595.56 L1904.14 1595.56 L1904.14 1595.43 L1921.22 1595.43 L1921.22 1594.32 L1938.17 1594.32 L1938.17 1594.57 L1955.25 1594.57 L1955.25 1594.82 L1972.33 1594.82 L1972.33 1593.95 L1989.28 1593.95 L1989.28 1593.08 L2006.36 1593.08 L2006.36 1593.08 L2023.44 1593.08 L2023.44 1592.84 L2040.39 1592.84 L2040.39 1592.84 L2057.47 1592.84 L2057.47 1592.71 L2074.55 1592.71 L2074.55 1591.47 L2091.50 1591.47 L2091.50 1590.98 L2108.58 1590.98 L2108.58 1590.73 L2125.65 1590.73 L2125.65 1590.11 L2142.61 1590.11 L2142.61 1589.00 L2159.68 1589.00 L2159.68 1589.74 L2176.76 1589.74 L2176.76 1588.75 L2193.72 1588.75 L2193.72 1588.75 L2210.79 1588.75 L2210.79 1589.25 L2227.87 1589.25 L2227.87 1589.25 L2244.82 1589.25 L2244.82 1588.63 L2261.90 1588.63 L2261.90 1588.01 L2278.98 1588.01 L2278.98 1587.89 L2295.93 1587.89 L2295.93 1587.64 L2313.01 1587.64 L2313.01 1586.40 L2330.09 1586.40 L2330.09 1586.15 L2347.04 1586.15 L2347.04 1586.15 L2364.12 1586.15 L2364.12 1586.40 L2381.20 1586.40 L2381.20 1586.65 L2398.15 1586.65 L2398.15 1586.15 L2415.23 1586.15 L2415.23 1585.66 L2432.31 1585.66 L2432.31 1585.78 L2449.26 1585.78 L2449.26 1584.92 L2466.34 1584.92 L2466.34 1584.79 L2483.41 1584.79 L2483.41 1584.79 L2500.49 1584.79 L2500.49 1584.92 L2517.45 1584.92 L2517.45 1584.92 L2534.52 1584.92 L2534.52 1584.05 L2551.60 1584.05 L2551.60 1584.54 L2568.55 1584.54 L2568.55 1584.67 L2585.63 1584.67 L2585.63 1583.68 L2602.71 1583.68 L2602.71 1583.18 L2619.66 1583.18 L2619.66 1583.18 L2636.74 1583.18 L2636.74 1583.31 L2653.82 1583.31 L2653.82 1583.31 L2670.77 1583.31 L2670.77 1583.55 L2687.85 1583.55 L2687.85 1582.94 L2704.93 1582.94 L2704.93 1582.56 L2721.88 1582.56 L2721.88 1582.32 L2738.96 1582.32 L2738.96 1581.95 L2756.04 1581.95 L2756.04 1581.57 L2772.99 1581.57 L2772.99 1581.57 L2790.07 1581.57 L2790.07 1581.70 L2807.14 1581.70 L2807.14 1581.57 L2824.10 1581.57 L2824.10 1581.45 L2841.18 1581.45 L2841.18 1581.70 L2858.25 1581.70 L2858.25 1582.19 L2875.21 1582.19 L2875.21 1581.82 L2892.28 1581.82 L2892.28 1581.95 L2909.36 1581.95 L2909.36 1581.82 L2926.32 1581.82 L2926.32 1582.07 L2943.39 1582.07 L2943.39 1581.57 L2960.47 1581.57 L2960.47 1581.08 L2977.43 1581.08 L2977.43 1580.34 L2994.50 1580.34 L2994.50 1580.21 L3011.58 1580.21 L3011.58 1579.47 L3028.66 1579.47 L3028.66 1579.72 L3045.61 1579.72 L3045.61 1579.59 L3062.69 1579.59 L3062.69 1578.85 L3079.77 1578.85 L3079.77 1578.36 L3096.72 1578.36 L3096.72 1578.36 L3113.80 1578.36 L3113.80 1578.85 L3130.88 1578.85 L3130.88 1578.98 L3147.83 1578.98 L3147.83 1578.85 L3164.91 1578.85 L3164.91 1578.48 L3181.98 1578.48 L3181.98 1578.36 L3198.94 1578.36 L3198.94 1578.36 L3216.01 1578.36 L3216.01 1578.60 L3233.09 1578.60 L3233.09 1578.48 L3250.05 1578.48 L3250.05 1578.48 L3267.12 1578.48 L3267.12 1578.23 L3284.20 1578.23 L3284.20 1578.23 L3301.16 1578.23 L3301.16 1578.48 L3318.23 1578.48 L3318.23 1578.23 L3335.31 1578.23 L3335.31 1578.23 L3352.26 1578.23 L3352.26 1578.11 L3369.34 1578.11 L3369.34 1578.48 L3386.42 1578.48 L3386.42 1578.11 L3403.37 1578.11 L3403.37 1577.86 L3420.45 1577.86 L3420.45 1577.61 L3437.53 1577.61 L3437.53 1577.74 L3454.48 1577.74 L3454.48 1577.74 L3471.56 1577.74 L3471.56 1577.86 L3488.64 1577.86 L3488.64 1577.74 L3505.59 1577.74 L3505.59 1577.61 L3522.67 1577.61 L3522.67 1577.37 L3539.74 1577.37 L3539.74 1577.12 L3556.70 1577.12 L3556.70 1577.37 L3573.78 1577.37 L3573.78 1577.37 L3590.85 1577.37 L3590.85 1577.61 L3607.93 1577.61 L3607.93 1577.12 L3624.89 1577.12 L3624.89 1576.87 L3641.96 1576.87 L3641.96 1577.12 L3659.04 1577.12 L3659.04 1577.12 L3675.99 1577.12 L3675.99 1577.12 L3693.07 1577.12 L3693.07 1577.00 L3710.15 1577.00 L3710.15 1576.62 L3727.10 1576.62 L3727.10 1576.75 L3744.18 1576.75 L3744.18 1576.75 L3761.26 1576.75 L3761.26 1576.75 L3778.21 1576.75 L3778.21 1576.62 L3795.29 1576.62 L3795.29 1576.50 L3795.29 1145.96 L3795.29 1145.71 L3778.21 1145.71 L3778.21 1145.59 L3761.26 1145.59 L3761.26 1145.22 L3744.18 1145.22 L3744.18 1144.85 L3727.10 1144.85 L3727.10 1144.48 L3710.15 1144.48 L3710.15 1144.72 L3693.07 1144.72 L3693.07 1144.48 L3675.99 1144.48 L3675.99 1143.98 L3659.04 1143.98 L3659.04 1143.61 L3641.96 1143.61 L3641.96 1142.99 L3624.89 1142.99 L3624.89 1142.99 L3607.93 1142.99 L3607.93 1143.36 L3590.85 1143.36 L3590.85 1142.74 L3573.78 1142.74 L3573.78 1142.37 L3556.70 1142.37 L3556.70 1141.75 L3539.74 1141.75 L3539.74 1141.51 L3522.67 1141.51 L3522.67 1141.63 L3505.59 1141.63 L3505.59 1141.26 L3488.64 1141.26 L3488.64 1140.89 L3471.56 1140.89 L3471.56 1140.52 L3454.48 1140.52 L3454.48 1139.90 L3437.53 1139.90 L3437.53 1139.40 L3420.45 1139.40 L3420.45 1139.40 L3403.37 1139.40 L3403.37 1139.40 L3386.42 1139.40 L3386.42 1139.40 L3369.34 1139.40 L3369.34 1138.41 L3352.26 1138.41 L3352.26 1138.16 L3335.31 1138.16 L3335.31 1137.79 L3318.23 1137.79 L3318.23 1137.79 L3301.16 1137.79 L3301.16 1136.93 L3284.20 1136.93 L3284.20 1136.43 L3267.12 1136.43 L3267.12 1136.31 L3250.05 1136.31 L3250.05 1135.81 L3233.09 1135.81 L3233.09 1135.44 L3216.01 1135.44 L3216.01 1134.70 L3198.94 1134.70 L3198.94 1134.33 L3181.98 1134.33 L3181.98 1134.08 L3164.91 1134.08 L3164.91 1133.96 L3147.83 1133.96 L3147.83 1133.71 L3130.88 1133.71 L3130.88 1133.09 L3113.80 1133.09 L3113.80 1131.85 L3096.72 1131.85 L3096.72 1131.23 L3079.77 1131.23 L3079.77 1131.61 L3062.69 1131.61 L3062.69 1132.10 L3045.61 1132.10 L3045.61 1131.85 L3028.66 1131.85 L3028.66 1130.99 L3011.58 1130.99 L3011.58 1131.48 L2994.50 1131.48 L2994.50 1131.11 L2977.43 1131.11 L2977.43 1131.85 L2960.47 1131.85 L2960.47 1132.22 L2943.39 1132.22 L2943.39 1132.47 L2926.32 1132.47 L2926.32 1131.48 L2909.36 1131.48 L2909.36 1131.36 L2892.28 1131.36 L2892.28 1130.74 L2875.21 1130.74 L2875.21 1130.62 L2858.25 1130.62 L2858.25 1129.38 L2841.18 1129.38 L2841.18 1128.51 L2824.10 1128.51 L2824.10 1128.14 L2807.14 1128.14 L2807.14 1127.77 L2790.07 1127.77 L2790.07 1126.90 L2772.99 1126.90 L2772.99 1126.53 L2756.04 1126.53 L2756.04 1126.53 L2738.96 1126.53 L2738.96 1126.41 L2721.88 1126.41 L2721.88 1126.28 L2704.93 1126.28 L2704.93 1126.04 L2687.85 1126.04 L2687.85 1126.41 L2670.77 1126.41 L2670.77 1125.79 L2653.82 1125.79 L2653.82 1124.92 L2636.74 1124.92 L2636.74 1124.06 L2619.66 1124.06 L2619.66 1123.44 L2602.71 1123.44 L2602.71 1123.31 L2585.63 1123.31 L2585.63 1124.30 L2568.55 1124.30 L2568.55 1123.56 L2551.60 1123.56 L2551.60 1122.20 L2534.52 1122.20 L2534.52 1122.82 L2517.45 1122.82 L2517.45 1122.08 L2500.49 1122.08 L2500.49 1121.09 L2483.41 1121.09 L2483.41 1120.72 L2466.34 1120.72 L2466.34 1120.10 L2449.26 1120.10 L2449.26 1120.84 L2432.31 1120.84 L2432.31 1119.85 L2415.23 1119.85 L2415.23 1119.72 L2398.15 1119.72 L2398.15 1119.72 L2381.20 1119.72 L2381.20 1118.61 L2364.12 1118.61 L2364.12 1117.74 L2347.04 1117.74 L2347.04 1116.75 L2330.09 1116.75 L2330.09 1116.38 L2313.01 1116.38 L2313.01 1117.62 L2295.93 1117.62 L2295.93 1117.25 L2278.98 1117.25 L2278.98 1116.51 L2261.90 1116.51 L2261.90 1116.51 L2244.82 1116.51 L2244.82 1116.63 L2227.87 1116.63 L2227.87 1115.64 L2210.79 1115.64 L2210.79 1113.78 L2193.72 1113.78 L2193.72 1113.04 L2176.76 1113.04 L2176.76 1113.54 L2159.68 1113.54 L2159.68 1111.19 L2142.61 1111.19 L2142.61 1111.93 L2125.65 1111.93 L2125.65 1111.68 L2108.58 1111.68 L2108.58 1110.94 L2091.50 1110.94 L2091.50 1110.69 L2074.55 1110.69 L2074.55 1111.31 L2057.47 1111.31 L2057.47 1110.57 L2040.39 1110.57 L2040.39 1109.58 L2023.44 1109.58 L2023.44 1108.71 L2006.36 1108.71 L2006.36 1107.84 L1989.28 1107.84 L1989.28 1107.97 L1972.33 1107.97 L1972.33 1108.09 L1955.25 1108.09 L1955.25 1106.61 L1938.17 1106.61 L1938.17 1105.12 L1921.22 1105.12 L1921.22 1105.49 L1904.14 1105.49 L1904.14 1104.63 L1887.06 1104.63 L1887.06 1104.50 L1869.99 1104.50 L1869.99 1104.87 L1853.03 1104.87 L1853.03 1105.12 L1835.95 1105.12 L1835.95 1103.64 L1818.88 1103.64 L1818.88 1103.39 L1801.92 1103.39 L1801.92 1101.78 L1784.85 1101.78 L1784.85 1101.53 L1767.77 1101.53 L1767.77 1099.55 L1750.82 1099.55 L1750.82 1097.70 L1733.74 1097.70 L1733.74 1097.08 L1716.66 1097.08 L1716.66 1097.20 L1699.71 1097.20 L1699.71 1096.95 L1682.63 1096.95 L1682.63 1094.85 L1665.55 1094.85 L1665.55 1093.49 L1648.60 1093.49 L1648.60 1092.25 L1631.52 1092.25 L1631.52 1090.27 L1614.44 1090.27 L1614.44 1087.43 L1597.49 1087.43 L1597.49 1085.94 L1580.41 1085.94 L1580.41 1083.96 L1563.33 1083.96 L1563.33 1084.21 L1546.38 1084.21 L1546.38 1084.46 L1529.30 1084.46 L1529.30 1083.47 L1512.22 1083.47 L1512.22 1084.08 L1495.27 1084.08 L1495.27 1081.36 L1478.19 1081.36 L1478.19 1081.86 L1461.12 1081.86 L1461.12 1082.48 L1444.16 1082.48 L1444.16 1080.37 L1427.09 1080.37 L1427.09 1081.73 L1410.01 1081.73 L1410.01 1079.50 L1393.05 1079.50 L1393.05 1078.76 L1375.98 1078.76 L1375.98 1076.78 L1358.90 1076.78 L1358.90 1075.92 L1341.94 1075.92 L1341.94 1071.83 L1324.87 1071.83 L1324.87 1072.57 L1307.79 1072.57 L1307.79 1069.48 L1290.71 1069.48 L1290.71 1063.79 L1273.76 1063.79 L1273.76 1060.94 L1256.68 1060.94 L1256.68 1059.21 L1239.60 1059.21 L1239.60 1057.48 L1222.65 1057.48 L1222.65 1060.08 L1205.57 1060.08 L1205.57 1057.85 L1188.49 1057.85 L1188.49 1052.53 L1171.54 1052.53 L1171.54 1050.05 L1154.46 1050.05 L1154.46 1048.07 L1137.39 1048.07 L1137.39 1047.95 L1120.43 1047.95 L1120.43 1047.45 L1103.36 1047.45 L1103.36 1042.26 L1086.28 1042.26 L1086.28 1036.44 L1069.32 1036.44 L1069.32 1033.59 L1052.25 1033.59 L1052.25 1030.62 L1035.17 1030.62 L1035.17 1030.13 L1018.22 1030.13 L1018.22 1030.87 L1001.14 1030.87 L1001.14 1025.67 L984.06 1025.67 L984.06 1029.63 L967.11 1029.63 L967.11 1034.58 L950.03 1034.58 L950.03 1027.53 L932.95 1027.53 L932.95 1030.50 L916.00 1030.50 L916.00 1049.19 L898.92 1049.19 L898.92 1053.64 L881.84 1053.64 L881.84 1037.18 L864.89 1037.18 L864.89 1038.54 L847.81 1038.54 L847.81 1048.07 L830.73 1048.07 L830.73 1048.94 L813.78 1048.94 L813.78 1027.65 L796.70 1027.65 L796.70 1033.22 L779.63 1033.22 L779.63 1035.70 L762.67 1035.70 L762.67 1065.89 L745.59 1065.89 L745.59 1647.66 Z" stroke-linejoin="round"/>
	</defs>
	<defs>
		<clipPath id="clipPath_NknRPEzp">
			<use xlink:href="#path_ZDyNixGT"/>
		</clipPath>
	</defs>
	<use xlink:href="#path_ZDyNixGT" style="stroke:none;fill:#999999;fill-opacity:0.65"/>
	<use xlink:href="#path_ZDyNixGT" style="fill:none;stroke:#808080;stroke-opacity:0.65;stroke-width:17.28" clip-path="url(#clipPath_NknRPEzp)"/>
	<path d=" M745.47 1396.31 L762.55 1396.31 L762.55 1372.93 L779.63 1372.93 L779.63 1369.71 L796.58 1369.71 L796.58 1364.51 L813.66 1364.51 L813.66 1380.47 L830.73 1380.47 L830.73 1379.11 L847.69 1379.11 L847.69 1371.44 L864.76 1371.44 L864.76 1368.97 L881.84 1368.97 L881.84 1381.09 L898.80 1381.09 L898.80 1376.89 L915.87 1376.89 L915.87 1362.04 L932.95 1362.04 L932.95 1359.19 L949.90 1359.19 L949.90 1363.27 L966.98 1363.27 L966.98 1358.20 L984.06 1358.20 L984.06 1354.49 L1001.01 1354.49 L1001.01 1357.33 L1018.09 1357.33 L1018.09 1355.97 L1035.17 1355.97 L1035.17 1355.60 L1052.25 1355.60 L1052.25 1357.08 L1069.20 1357.08 L1069.20 1358.45 L1086.28 1358.45 L1086.28 1362.16 L1103.36 1362.16 L1103.36 1365.25 L1120.31 1365.25 L1120.31 1364.76 L1137.39 1364.76 L1137.39 1363.89 L1154.46 1363.89 L1154.46 1364.63 L1171.42 1364.63 L1171.42 1365.87 L1188.49 1365.87 L1188.49 1368.97 L1205.57 1368.97 L1205.57 1369.83 L1222.53 1369.83 L1222.53 1367.11 L1239.60 1367.11 L1239.60 1367.60 L1256.68 1367.60 L1256.68 1368.10 L1273.63 1368.10 L1273.63 1369.58 L1290.71 1369.58 L1290.71 1373.17 L1307.79 1373.17 L1307.79 1374.91 L1324.74 1374.91 L1324.74 1373.67 L1341.82 1373.67 L1341.82 1375.90 L1358.90 1375.90 L1358.90 1375.77 L1375.85 1375.77 L1375.85 1376.51 L1392.93 1376.51 L1392.93 1376.39 L1410.01 1376.39 L1410.01 1377.26 L1426.96 1377.26 L1426.96 1375.40 L1444.04 1375.40 L1444.04 1376.39 L1461.12 1376.39 L1461.12 1375.28 L1478.07 1375.28 L1478.07 1374.16 L1495.15 1374.16 L1495.15 1375.52 L1512.22 1375.52 L1512.22 1374.41 L1529.18 1374.41 L1529.18 1374.41 L1546.26 1374.41 L1546.26 1373.54 L1563.33 1373.54 L1563.33 1372.80 L1580.29 1372.80 L1580.29 1373.54 L1597.37 1373.54 L1597.37 1374.04 L1614.44 1374.04 L1614.44 1375.77 L1631.52 1375.77 L1631.52 1376.64 L1648.47 1376.64 L1648.47 1376.89 L1665.55 1376.89 L1665.55 1377.26 L1682.63 1377.26 L1682.63 1378.37 L1699.58 1378.37 L1699.58 1378.12 L1716.66 1378.12 L1716.66 1377.38 L1733.74 1377.38 L1733.74 1377.13 L1750.69 1377.13 L1750.69 1378.00 L1767.77 1378.00 L1767.77 1379.11 L1784.85 1379.11 L1784.85 1378.74 L1801.80 1378.74 L1801.80 1379.48 L1818.88 1379.48 L1818.88 1379.24 L1835.95 1379.24 L1835.95 1379.86 L1852.91 1379.86 L1852.91 1379.24 L1869.99 1379.24 L1869.99 1378.37 L1887.06 1378.37 L1887.06 1378.00 L1904.02 1378.00 L1904.02 1378.25 L1921.10 1378.25 L1921.10 1377.38 L1938.17 1377.38 L1938.17 1378.12 L1955.13 1378.12 L1955.13 1378.99 L1972.20 1378.99 L1972.20 1378.37 L1989.28 1378.37 L1989.28 1377.75 L2006.23 1377.75 L2006.23 1378.12 L2023.31 1378.12 L2023.31 1378.37 L2040.39 1378.37 L2040.39 1378.62 L2057.34 1378.62 L2057.34 1378.87 L2074.42 1378.87 L2074.42 1377.88 L2091.50 1377.88 L2091.50 1377.63 L2108.45 1377.63 L2108.45 1377.88 L2125.53 1377.88 L2125.53 1377.50 L2142.61 1377.50 L2142.61 1376.51 L2159.56 1376.51 L2159.56 1378.00 L2176.64 1378.00 L2176.64 1377.13 L2193.72 1377.13 L2193.72 1377.38 L2210.79 1377.38 L2210.79 1378.37 L2227.75 1378.37 L2227.75 1378.87 L2244.82 1378.87 L2244.82 1378.37 L2261.90 1378.37 L2261.90 1378.00 L2278.86 1378.00 L2278.86 1378.25 L2295.93 1378.25 L2295.93 1378.25 L2313.01 1378.25 L2313.01 1377.01 L2329.97 1377.01 L2329.97 1377.01 L2347.04 1377.01 L2347.04 1377.38 L2364.12 1377.38 L2364.12 1377.88 L2381.07 1377.88 L2381.07 1378.49 L2398.15 1378.49 L2398.15 1378.12 L2415.23 1378.12 L2415.23 1377.88 L2432.18 1377.88 L2432.18 1378.37 L2449.26 1378.37 L2449.26 1377.50 L2466.34 1377.50 L2466.34 1377.75 L2483.29 1377.75 L2483.29 1377.88 L2500.37 1377.88 L2500.37 1378.37 L2517.45 1378.37 L2517.45 1378.74 L2534.40 1378.74 L2534.40 1377.88 L2551.48 1377.88 L2551.48 1378.74 L2568.55 1378.74 L2568.55 1378.99 L2585.51 1378.99 L2585.51 1378.00 L2602.59 1378.00 L2602.59 1377.88 L2619.66 1377.88 L2619.66 1378.12 L2636.62 1378.12 L2636.62 1378.49 L2653.70 1378.49 L2653.70 1378.87 L2670.77 1378.87 L2670.77 1379.24 L2687.73 1379.24 L2687.73 1378.74 L2704.80 1378.74 L2704.80 1378.62 L2721.88 1378.62 L2721.88 1378.49 L2738.84 1378.49 L2738.84 1378.37 L2755.91 1378.37 L2755.91 1378.12 L2772.99 1378.12 L2772.99 1378.25 L2790.07 1378.25 L2790.07 1378.74 L2807.02 1378.74 L2807.02 1378.74 L2824.10 1378.74 L2824.10 1378.87 L2841.18 1378.87 L2841.18 1379.24 L2858.13 1379.24 L2858.13 1380.10 L2875.21 1380.10 L2875.21 1379.98 L2892.28 1379.98 L2892.28 1380.35 L2909.24 1380.35 L2909.24 1380.23 L2926.32 1380.23 L2926.32 1380.85 L2943.39 1380.85 L2943.39 1380.35 L2960.35 1380.35 L2960.35 1379.98 L2977.43 1379.98 L2977.43 1379.11 L2994.50 1379.11 L2994.50 1379.24 L3011.46 1379.24 L3011.46 1378.62 L3028.53 1378.62 L3028.53 1379.11 L3045.61 1379.11 L3045.61 1379.11 L3062.57 1379.11 L3062.57 1378.49 L3079.64 1378.49 L3079.64 1378.00 L3096.72 1378.00 L3096.72 1378.25 L3113.67 1378.25 L3113.67 1379.11 L3130.75 1379.11 L3130.75 1379.36 L3147.83 1379.36 L3147.83 1379.36 L3164.78 1379.36 L3164.78 1379.24 L3181.86 1379.24 L3181.86 1379.24 L3198.94 1379.24 L3198.94 1379.36 L3215.89 1379.36 L3215.89 1379.86 L3232.97 1379.86 L3232.97 1379.98 L3250.05 1379.98 L3250.05 1380.10 L3267.00 1380.10 L3267.00 1380.10 L3284.08 1380.10 L3284.08 1380.23 L3301.16 1380.23 L3301.16 1380.72 L3318.23 1380.72 L3318.23 1380.60 L3335.19 1380.60 L3335.19 1380.72 L3352.26 1380.72 L3352.26 1380.72 L3369.34 1380.72 L3369.34 1381.34 L3386.30 1381.34 L3386.30 1381.22 L3403.37 1381.22 L3403.37 1380.97 L3420.45 1380.97 L3420.45 1380.97 L3437.40 1380.97 L3437.40 1381.09 L3454.48 1381.09 L3454.48 1381.46 L3471.56 1381.46 L3471.56 1381.59 L3488.51 1381.59 L3488.51 1381.71 L3505.59 1381.71 L3505.59 1381.84 L3522.67 1381.84 L3522.67 1381.59 L3539.62 1381.59 L3539.62 1381.59 L3556.70 1381.59 L3556.70 1381.84 L3573.78 1381.84 L3573.78 1382.08 L3590.73 1382.08 L3590.73 1382.45 L3607.81 1382.45 L3607.81 1382.08 L3624.89 1382.08 L3624.89 1381.84 L3641.84 1381.84 L3641.84 1382.33 L3658.92 1382.33 L3658.92 1382.45 L3675.99 1382.45 L3675.99 1382.58 L3692.95 1382.58 L3692.95 1382.70 L3710.03 1382.70 L3710.03 1382.33 L3727.10 1382.33 L3727.10 1382.58 L3744.06 1382.58 L3744.06 1382.70 L3761.13 1382.70 L3761.13 1382.83 L3778.21 1382.83 L3778.21 1382.83 L3795.16 1382.83 L3795.16 1382.83" stroke-linejoin="round" style="fill:none;stroke:#000000;stroke-width:8.64"/>
	<line x1="524.08" y1="2509.23" x2="524.08" y2="419.90" style="stroke:#000000;stroke-width:5.76"/>
	<line x1="524.08" y1="2445.87" x2="484.11" y2="2445.87" style="stroke:#000000;stroke-width:5.76"/>
	<text x="464.06" y="2480.90" style="font-family:'Helvetica';font-size:99.99px;fill:#000000" text-anchor="end">0.00</text>
	<line x1="524.08" y1="1955.19" x2="484.11" y2="1955.19" style="stroke:#000000;stroke-width:5.76"/>
	<text x="464.06" y="1990.22" style="font-family:'Helvetica';font-size:99.99px;fill:#000000" text-anchor="end">0.50</text>
	<line x1="524.08" y1="1464.63" x2="484.11" y2="1464.63" style="stroke:#000000;stroke-width:5.76"/>
	<text x="464.06" y="1499.66" style="font-family:'Helvetica';font-size:99.99px;fill:#000000" text-anchor="end">1.00</text>
	<line x1="524.08" y1="973.94" x2="484.11" y2="973.94" style="stroke:#000000;stroke-width:5.76"/>
	<text x="464.06" y="1008.97" style="font-family:'Helvetica';font-size:99.99px;fill:#000000" text-anchor="end">1.50</text>
	<line x1="524.08" y1="483.26" x2="484.11" y2="483.26" style="stroke:#000000;stroke-width:5.76"/>
	<text x="464.06" y="518.29" style="font-family:'Helvetica';font-size:99.99px;fill:#000000" text-anchor="end">2.00</text>
	<text x="190.71" y="1464.63" style="font-family:'Helvetica';font-size:99.99px;fill:#000000" transform="rotate(-90 190.71,1464.63)" text-anchor="middle">Ratio in Probabilities</text>
	<line x1="524.08" y1="2509.23" x2="3859.02" y2="2509.23" style="stroke:#000000;stroke-width:5.76"/>
	<line x1="587.44" y1="2509.23" x2="587.44" y2="2549.21" style="stroke:#000000;stroke-width:5.76"/>
	<text x="587.44" y="2625.15" style="font-family:'Helvetica';font-size:79.94px;fill:#000000" text-anchor="middle">0</text>
	<line x1="780.00" y1="2509.23" x2="780.00" y2="2549.21" style="stroke:#000000;stroke-width:5.76"/>
	<text x="780.00" y="2625.15" style="font-family:'Helvetica';font-size:79.94px;fill:#000000" text-anchor="middle">.3</text>
	<line x1="972.43" y1="2509.23" x2="972.43" y2="2549.21" style="stroke:#000000;stroke-width:5.76"/>
	<text x="972.43" y="2625.15" style="font-family:'Helvetica';font-size:79.94px;fill:#000000" text-anchor="middle">.6</text>
	<line x1="1164.98" y1="2509.23" x2="1164.98" y2="2549.21" style="stroke:#000000;stroke-width:5.76"/>
	<text x="1164.98" y="2625.15" style="font-family:'Helvetica';font-size:79.94px;fill:#000000" text-anchor="middle">.9</text>
	<line x1="1357.41" y1="2509.23" x2="1357.41" y2="2549.21" style="stroke:#000000;stroke-width:5.76"/>
	<text x="1357.41" y="2625.15" style="font-family:'Helvetica';font-size:79.94px;fill:#000000" text-anchor="middle">1.2</text>
	<line x1="1549.97" y1="2509.23" x2="1549.97" y2="2549.21" style="stroke:#000000;stroke-width:5.76"/>
	<text x="1549.97" y="2625.15" style="font-family:'Helvetica';font-size:79.94px;fill:#000000" text-anchor="middle">1.5</text>
	<line x1="1742.40" y1="2509.23" x2="1742.40" y2="2549.21" style="stroke:#000000;stroke-width:5.76"/>
	<text x="1742.40" y="2625.15" style="font-family:'Helvetica';font-size:79.94px;fill:#000000" text-anchor="middle">1.8</text>
	<line x1="1934.95" y1="2509.23" x2="1934.95" y2="2549.21" style="stroke:#000000;stroke-width:5.76"/>
	<text x="1934.95" y="2625.15" style="font-family:'Helvetica';font-size:79.94px;fill:#000000" text-anchor="middle">2.1</text>
	<line x1="2127.39" y1="2509.23" x2="2127.39" y2="2549.21" style="stroke:#000000;stroke-width:5.76"/>
	<text x="2127.39" y="2625.15" style="font-family:'Helvetica';font-size:79.94px;fill:#000000" text-anchor="middle">2.4</text>
	<line x1="2319.94" y1="2509.23" x2="2319.94" y2="2549.21" style="stroke:#000000;stroke-width:5.76"/>
	<text x="2319.94" y="2625.15" style="font-family:'Helvetica';font-size:79.94px;fill:#000000" text-anchor="middle">2.7</text>
	<line x1="2512.37" y1="2509.23" x2="2512.37" y2="2549.21" style="stroke:#000000;stroke-width:5.76"/>
	<text x="2512.37" y="2625.15" style="font-family:'Helvetica';font-size:79.94px;fill:#000000" text-anchor="middle">3</text>
	<line x1="2704.93" y1="2509.23" x2="2704.93" y2="2549.21" style="stroke:#000000;stroke-width:5.76"/>
	<text x="2704.93" y="2625.15" style="font-family:'Helvetica';font-size:79.94px;fill:#000000" text-anchor="middle">3.3</text>
	<line x1="2897.36" y1="2509.23" x2="2897.36" y2="2549.21" style="stroke:#000000;stroke-width:5.76"/>
	<text x="2897.36" y="2625.15" style="font-family:'Helvetica';font-size:79.94px;fill:#000000" text-anchor="middle">3.6</text>
	<line x1="3089.91" y1="2509.23" x2="3089.91" y2="2549.21" style="stroke:#000000;stroke-width:5.76"/>
	<text x="3089.91" y="2625.15" style="font-family:'Helvetica';font-size:79.94px;fill:#000000" text-anchor="middle">3.9</text>
	<line x1="3282.34" y1="2509.23" x2="3282.34" y2="2549.21" style="stroke:#000000;stroke-width:5.76"/>
	<text x="3282.34" y="2625.15" style="font-family:'Helvetica';font-size:79.94px;fill:#000000" text-anchor="middle">4.2</text>
	<line x1="3474.90" y1="2509.23" x2="3474.90" y2="2549.21" style="stroke:#000000;stroke-width:5.76"/>
	<text x="3474.90" y="2625.15" style="font-family:'Helvetica';font-size:79.94px;fill:#000000" text-anchor="middle">4.5</text>
	<line x1="3667.33" y1="2509.23" x2="3667.33" y2="2549.21" style="stroke:#000000;stroke-width:5.76"/>
	<text x="3667.33" y="2625.15" style="font-family:'Helvetica';font-size:79.94px;fill:#000000" text-anchor="middle">4.8</text>
	<line x1="3859.89" y1="2509.23" x2="3859.89" y2="2549.21" style="stroke:#000000;stroke-width:5.76"/>
	<text x="3859.89" y="2625.15" style="font-family:'Helvetica';font-size:79.94px;fill:#000000" text-anchor="middle">5.1</text>
	<text x="2191.61" y="2729.16" style="font-family:'Helvetica';font-size:99.99px;fill:#000000" text-anchor="middle">Time (years)</text>
	<rect x="558.61" y="454.42" width="993.34" height="326.46" style="fill:#FFFFFF"/>
	<rect x="561.49" y="457.30" width="987.58" height="320.70" style="fill:none;stroke:#000000;stroke-width:5.76"/>
	<rect x="601.92" y="497.74" width="374.34" height="99.99" style="fill:#999999;fill-opacity:0.65"/>
	<rect x="606.24" y="502.06" width="365.70" height="91.35" style="fill:none;stroke:#808080;stroke-opacity:0.65;stroke-width:8.64"/>
	<line x1="601.92" y1="687.70" x2="976.26" y2="687.70" style="stroke:#000000;stroke-width:8.64"/>
	<text x="1036.28" y="582.76" style="font-family:'Helvetica';font-size:99.99px;fill:#000000">CI95%</text>
	<text x="1036.28" y="722.73" style="font-family:'Helvetica';font-size:99.99px;fill:#000000">Difference</text>
	<text x="2191.61" y="369.63" style="font-family:'Helvetica';font-size:110.01px;fill:#000000" text-anchor="middle">from 3rd Readmission to 4th Readmission</text>
	<text x="2191.61" y="215.98" style="font-family:'Helvetica';font-size:139.96px;fill:#1E2D53" text-anchor="middle">Ratio in Probabilities (RP)</text>
</svg>
