<?xml version="1.0" encoding="UTF-8" standalone="no"?>
<!-- This is a Stata 16.1 generated SVG file (http://www.stata.com) -->

<svg version="1.1" width="5.50in" height="4.00in" viewBox="0 0 3960 2880" xmlns="http://www.w3.org/2000/svg" xmlns:xlink="http://www.w3.org/1999/xlink">
	<desc>Stata Graph - ratio_models23_3y_rp_tc</desc>
	<rect x="0" y="0" width="3960" height="2880" style="fill:#EAF2F3;stroke:none"/>
	<rect x="0.00" y="0.00" width="3959.88" height="2880.00" style="fill:#FFFFFF"/>
	<rect x="2.88" y="2.88" width="3954.12" height="2874.24" style="fill:none;stroke:#FFFFFF;stroke-width:5.76"/>
	<rect x="524.08" y="419.90" width="3334.94" height="2089.34" style="fill:#FFFFFF"/>
	<rect x="526.96" y="422.78" width="3329.18" height="2083.58" style="fill:none;stroke:#FFFFFF;stroke-width:5.76"/>
	<line x1="524.08" y1="1955.19" x2="3859.02" y2="1955.19" style="stroke:#EAF2F3;stroke-width:8.64"/>
	<line x1="524.08" y1="1464.63" x2="3859.02" y2="1464.63" style="stroke:#EAF2F3;stroke-width:8.64"/>
	<line x1="524.08" y1="973.94" x2="3859.02" y2="973.94" style="stroke:#EAF2F3;stroke-width:8.64"/>
	<line x1="524.08" y1="1464.63" x2="3859.02" y2="1464.63" style="stroke:#1A476F;stroke-width:8.64"/>
	<defs>
		<path id="path_HiAkYaZw" d="M745.59 1561.03 L745.59 1561.03 L762.67 1561.03 L762.67 1554.84 L779.63 1554.84 L779.63 1554.84 L796.70 1554.84 L796.70 1548.78 L813.78 1548.78 L813.78 1536.28 L830.73 1536.28 L830.73 1534.30 L847.81 1534.30 L847.81 1531.33 L864.89 1531.33 L864.89 1540.24 L881.84 1540.24 L881.84 1542.96 L898.92 1542.96 L898.92 1547.05 L916.00 1547.05 L916.00 1551.01 L932.95 1551.01 L932.95 1545.07 L950.03 1545.07 L950.03 1544.70 L967.11 1544.70 L967.11 1542.59 L984.06 1542.59 L984.06 1538.63 L1001.14 1538.63 L1001.14 1532.32 L1018.22 1532.32 L1018.22 1539.62 L1035.17 1539.62 L1035.17 1533.43 L1052.25 1533.43 L1052.25 1533.19 L1069.32 1533.19 L1069.32 1535.41 L1086.28 1535.41 L1086.28 1531.33 L1103.36 1531.33 L1103.36 1528.36 L1120.43 1528.36 L1120.43 1527.00 L1137.39 1527.00 L1137.39 1524.77 L1154.46 1524.77 L1154.46 1520.94 L1171.54 1520.94 L1171.54 1521.18 L1188.49 1521.18 L1188.49 1524.28 L1205.57 1524.28 L1205.57 1524.52 L1222.65 1524.52 L1222.65 1524.28 L1239.60 1524.28 L1239.60 1525.51 L1256.68 1525.51 L1256.68 1527.12 L1273.76 1527.12 L1273.76 1526.63 L1290.71 1526.63 L1290.71 1526.01 L1307.79 1526.01 L1307.79 1527.37 L1324.87 1527.37 L1324.87 1525.39 L1341.94 1525.39 L1341.94 1522.79 L1358.90 1522.79 L1358.90 1524.65 L1375.98 1524.65 L1375.98 1525.76 L1393.05 1525.76 L1393.05 1527.25 L1410.01 1527.25 L1410.01 1529.60 L1427.09 1529.60 L1427.09 1530.84 L1444.16 1530.84 L1444.16 1532.44 L1461.12 1532.44 L1461.12 1533.19 L1478.19 1533.19 L1478.19 1535.29 L1495.27 1535.29 L1495.27 1535.79 L1512.22 1535.79 L1512.22 1536.78 L1529.30 1536.78 L1529.30 1535.54 L1546.38 1535.54 L1546.38 1535.17 L1563.33 1535.17 L1563.33 1536.28 L1580.41 1536.28 L1580.41 1536.90 L1597.49 1536.90 L1597.49 1536.28 L1614.44 1536.28 L1614.44 1536.16 L1631.52 1536.16 L1631.52 1535.29 L1648.60 1535.29 L1648.60 1535.54 L1665.55 1535.54 L1665.55 1537.15 L1682.63 1537.15 L1682.63 1536.90 L1699.71 1536.90 L1699.71 1535.91 L1716.66 1535.91 L1716.66 1535.66 L1733.74 1535.66 L1733.74 1535.54 L1750.82 1535.54 L1750.82 1535.91 L1767.77 1535.91 L1767.77 1535.29 L1784.85 1535.29 L1784.85 1536.28 L1801.92 1536.28 L1801.92 1535.79 L1818.88 1535.79 L1818.88 1533.43 L1835.95 1533.43 L1835.95 1532.20 L1853.03 1532.20 L1853.03 1529.97 L1869.99 1529.97 L1869.99 1531.33 L1887.06 1531.33 L1887.06 1530.59 L1904.14 1530.59 L1904.14 1529.35 L1921.22 1529.35 L1921.22 1529.97 L1938.17 1529.97 L1938.17 1530.71 L1955.25 1530.71 L1955.25 1529.97 L1972.33 1529.97 L1972.33 1530.22 L1989.28 1530.22 L1989.28 1531.08 L2006.36 1531.08 L2006.36 1532.57 L2023.44 1532.57 L2023.44 1533.06 L2040.39 1533.06 L2040.39 1532.82 L2057.47 1532.82 L2057.47 1534.42 L2074.55 1534.42 L2074.55 1534.30 L2091.50 1534.30 L2091.50 1534.80 L2108.58 1534.80 L2108.58 1534.92 L2125.65 1534.92 L2125.65 1535.17 L2142.61 1535.17 L2142.61 1535.66 L2159.68 1535.66 L2159.68 1535.54 L2176.76 1535.54 L2176.76 1534.30 L2193.72 1534.30 L2193.72 1533.43 L2210.79 1533.43 L2210.79 1532.82 L2227.87 1532.82 L2227.87 1532.44 L2244.82 1532.44 L2244.82 1532.44 L2261.90 1532.44 L2261.90 1532.69 L2278.98 1532.69 L2278.98 1534.42 L2295.93 1534.42 L2295.93 1534.18 L2313.01 1534.18 L2313.01 1534.42 L2330.09 1534.42 L2330.09 1533.93 L2347.04 1533.93 L2347.04 1533.81 L2364.12 1533.81 L2364.12 1533.81 L2381.20 1533.81 L2381.20 1533.56 L2398.15 1533.56 L2398.15 1534.18 L2415.23 1534.18 L2415.23 1532.44 L2432.31 1532.44 L2432.31 1531.70 L2449.26 1531.70 L2449.26 1531.70 L2466.34 1531.70 L2466.34 1531.70 L2483.41 1531.70 L2483.41 1531.08 L2500.49 1531.08 L2500.49 1530.22 L2517.45 1530.22 L2517.45 1530.96 L2534.52 1530.96 L2534.52 1531.58 L2551.60 1531.58 L2551.60 1532.69 L2568.55 1532.69 L2568.55 1532.82 L2585.63 1532.82 L2585.63 1532.94 L2602.71 1532.94 L2602.71 1532.20 L2619.66 1532.20 L2619.66 1530.22 L2636.74 1530.22 L2636.74 1529.23 L2653.82 1529.23 L2653.82 1528.11 L2670.77 1528.11 L2670.77 1527.25 L2687.85 1527.25 L2687.85 1528.24 L2704.93 1528.24 L2704.93 1528.24 L2721.88 1528.24 L2721.88 1529.47 L2738.96 1529.47 L2738.96 1529.47 L2756.04 1529.47 L2756.04 1529.10 L2772.99 1529.10 L2772.99 1529.60 L2790.07 1529.60 L2790.07 1528.98 L2807.14 1528.98 L2807.14 1528.61 L2824.10 1528.61 L2824.10 1529.35 L2841.18 1529.35 L2841.18 1530.09 L2858.25 1530.09 L2858.25 1529.10 L2875.21 1529.10 L2875.21 1529.23 L2892.28 1529.23 L2892.28 1529.60 L2909.36 1529.60 L2909.36 1529.47 L2926.32 1529.47 L2926.32 1528.86 L2943.39 1528.86 L2943.39 1528.24 L2960.47 1528.24 L2960.47 1529.60 L2977.43 1529.60 L2977.43 1529.85 L2994.50 1529.85 L2994.50 1528.98 L3011.58 1528.98 L3011.58 1529.60 L3028.66 1529.60 L3028.66 1529.35 L3045.61 1529.35 L3045.61 1527.99 L3062.69 1527.99 L3062.69 1528.48 L3079.77 1528.48 L3079.77 1530.71 L3096.72 1530.71 L3096.72 1532.32 L3113.80 1532.32 L3113.80 1533.19 L3130.88 1533.19 L3130.88 1533.68 L3147.83 1533.68 L3147.83 1533.19 L3164.91 1533.19 L3164.91 1534.30 L3181.98 1534.30 L3181.98 1534.80 L3198.94 1534.80 L3198.94 1535.41 L3216.01 1535.41 L3216.01 1536.78 L3233.09 1536.78 L3233.09 1538.26 L3250.05 1538.26 L3250.05 1537.39 L3267.12 1537.39 L3267.12 1538.63 L3284.20 1538.63 L3284.20 1538.38 L3301.16 1538.38 L3301.16 1538.51 L3318.23 1538.51 L3318.23 1538.14 L3335.31 1538.14 L3335.31 1538.63 L3352.26 1538.63 L3352.26 1538.88 L3369.34 1538.88 L3369.34 1539.25 L3386.42 1539.25 L3386.42 1540.12 L3403.37 1540.12 L3403.37 1540.86 L3420.45 1540.86 L3420.45 1541.11 L3437.53 1541.11 L3437.53 1541.48 L3454.48 1541.48 L3454.48 1542.22 L3471.56 1542.22 L3471.56 1541.85 L3488.64 1541.85 L3488.64 1541.73 L3505.59 1541.73 L3505.59 1541.11 L3522.67 1541.11 L3522.67 1540.36 L3539.74 1540.36 L3539.74 1540.24 L3556.70 1540.24 L3556.70 1540.74 L3573.78 1540.74 L3573.78 1540.86 L3590.85 1540.86 L3590.85 1540.86 L3607.93 1540.86 L3607.93 1540.49 L3624.89 1540.49 L3624.89 1541.60 L3641.96 1541.60 L3641.96 1541.85 L3659.04 1541.85 L3659.04 1542.96 L3675.99 1542.96 L3675.99 1543.21 L3693.07 1543.21 L3693.07 1543.21 L3710.15 1543.21 L3710.15 1542.47 L3727.10 1542.47 L3727.10 1542.96 L3744.18 1542.96 L3744.18 1544.20 L3761.26 1544.20 L3761.26 1543.21 L3778.21 1543.21 L3778.21 1543.21 L3795.29 1543.21 L3795.29 1543.21 L3795.29 1358.20 L3795.29 1358.32 L3778.21 1358.32 L3778.21 1358.82 L3761.26 1358.82 L3761.26 1360.06 L3744.18 1360.06 L3744.18 1358.82 L3727.10 1358.82 L3727.10 1358.57 L3710.15 1358.57 L3710.15 1359.68 L3693.07 1359.68 L3693.07 1359.93 L3675.99 1359.93 L3675.99 1359.81 L3659.04 1359.81 L3659.04 1358.82 L3641.96 1358.82 L3641.96 1358.94 L3624.89 1358.94 L3624.89 1357.83 L3607.93 1357.83 L3607.93 1358.45 L3590.85 1358.45 L3590.85 1358.57 L3573.78 1358.57 L3573.78 1358.82 L3556.70 1358.82 L3556.70 1358.45 L3539.74 1358.45 L3539.74 1358.94 L3522.67 1358.94 L3522.67 1360.06 L3505.59 1360.06 L3505.59 1361.05 L3488.64 1361.05 L3488.64 1361.54 L3471.56 1361.54 L3471.56 1362.16 L3454.48 1362.16 L3454.48 1361.66 L3437.53 1361.66 L3437.53 1361.42 L3420.45 1361.42 L3420.45 1361.54 L3403.37 1361.54 L3403.37 1360.92 L3386.42 1360.92 L3386.42 1360.06 L3369.34 1360.06 L3369.34 1359.81 L3352.26 1359.81 L3352.26 1359.81 L3335.31 1359.81 L3335.31 1359.68 L3318.23 1359.68 L3318.23 1360.43 L3301.16 1360.43 L3301.16 1360.67 L3284.20 1360.67 L3284.20 1361.17 L3267.12 1361.17 L3267.12 1359.93 L3250.05 1359.93 L3250.05 1361.29 L3233.09 1361.29 L3233.09 1359.68 L3216.01 1359.68 L3216.01 1358.45 L3198.94 1358.45 L3198.94 1358.07 L3181.98 1358.07 L3181.98 1357.58 L3164.91 1357.58 L3164.91 1356.59 L3147.83 1356.59 L3147.83 1357.46 L3130.88 1357.46 L3130.88 1357.33 L3113.80 1357.33 L3113.80 1356.59 L3096.72 1356.59 L3096.72 1354.98 L3079.77 1354.98 L3079.77 1352.51 L3062.69 1352.51 L3062.69 1352.26 L3045.61 1352.26 L3045.61 1354.11 L3028.66 1354.11 L3028.66 1354.61 L3011.58 1354.61 L3011.58 1353.99 L2994.50 1353.99 L2994.50 1355.23 L2977.43 1355.23 L2977.43 1355.35 L2960.47 1355.35 L2960.47 1353.99 L2943.39 1353.99 L2943.39 1355.10 L2926.32 1355.10 L2926.32 1355.97 L2909.36 1355.97 L2909.36 1356.34 L2892.28 1356.34 L2892.28 1355.85 L2875.21 1355.85 L2875.21 1356.09 L2858.25 1356.09 L2858.25 1357.33 L2841.18 1357.33 L2841.18 1356.84 L2824.10 1356.84 L2824.10 1356.22 L2807.14 1356.22 L2807.14 1356.84 L2790.07 1356.84 L2790.07 1357.58 L2772.99 1357.58 L2772.99 1357.33 L2756.04 1357.33 L2756.04 1358.07 L2738.96 1358.07 L2738.96 1358.32 L2721.88 1358.32 L2721.88 1356.96 L2704.93 1356.96 L2704.93 1357.33 L2687.85 1357.33 L2687.85 1356.47 L2670.77 1356.47 L2670.77 1357.58 L2653.82 1357.58 L2653.82 1359.19 L2636.74 1359.19 L2636.74 1360.80 L2619.66 1360.80 L2619.66 1363.27 L2602.71 1363.27 L2602.71 1364.26 L2585.63 1364.26 L2585.63 1364.39 L2568.55 1364.39 L2568.55 1364.26 L2551.60 1364.26 L2551.60 1363.27 L2534.52 1363.27 L2534.52 1362.53 L2517.45 1362.53 L2517.45 1361.66 L2500.49 1361.66 L2500.49 1362.90 L2483.41 1362.90 L2483.41 1363.77 L2466.34 1363.77 L2466.34 1363.89 L2449.26 1363.89 L2449.26 1364.02 L2432.31 1364.02 L2432.31 1365.01 L2415.23 1365.01 L2415.23 1367.11 L2398.15 1367.11 L2398.15 1366.61 L2381.20 1366.61 L2381.20 1367.11 L2364.12 1367.11 L2364.12 1366.99 L2347.04 1366.99 L2347.04 1367.23 L2330.09 1367.23 L2330.09 1368.10 L2313.01 1368.10 L2313.01 1368.22 L2295.93 1368.22 L2295.93 1368.72 L2278.98 1368.72 L2278.98 1366.74 L2261.90 1366.74 L2261.90 1366.37 L2244.82 1366.37 L2244.82 1366.49 L2227.87 1366.49 L2227.87 1367.11 L2210.79 1367.11 L2210.79 1367.73 L2193.72 1367.73 L2193.72 1368.84 L2176.76 1368.84 L2176.76 1370.33 L2159.68 1370.33 L2159.68 1370.57 L2142.61 1370.57 L2142.61 1370.33 L2125.65 1370.33 L2125.65 1370.33 L2108.58 1370.33 L2108.58 1369.96 L2091.50 1369.96 L2091.50 1369.58 L2074.55 1369.58 L2074.55 1369.58 L2057.47 1369.58 L2057.47 1367.60 L2040.39 1367.60 L2040.39 1367.85 L2023.44 1367.85 L2023.44 1367.23 L2006.36 1367.23 L2006.36 1365.25 L1989.28 1365.25 L1989.28 1364.02 L1972.33 1364.02 L1972.33 1363.77 L1955.25 1363.77 L1955.25 1364.39 L1938.17 1364.39 L1938.17 1363.27 L1921.22 1363.27 L1921.22 1362.65 L1904.14 1362.65 L1904.14 1364.14 L1887.06 1364.14 L1887.06 1365.01 L1869.99 1365.01 L1869.99 1363.64 L1853.03 1363.64 L1853.03 1366.00 L1835.95 1366.00 L1835.95 1367.73 L1818.88 1367.73 L1818.88 1370.45 L1801.92 1370.45 L1801.92 1371.32 L1784.85 1371.32 L1784.85 1370.08 L1767.77 1370.08 L1767.77 1371.07 L1750.82 1371.07 L1750.82 1370.33 L1733.74 1370.33 L1733.74 1369.71 L1716.66 1369.71 L1716.66 1370.20 L1699.71 1370.20 L1699.71 1371.19 L1682.63 1371.19 L1682.63 1371.69 L1665.55 1371.69 L1665.55 1369.58 L1648.60 1369.58 L1648.60 1368.59 L1631.52 1368.59 L1631.52 1369.58 L1614.44 1369.58 L1614.44 1369.34 L1597.49 1369.34 L1597.49 1369.58 L1580.41 1369.58 L1580.41 1368.35 L1563.33 1368.35 L1563.33 1366.74 L1546.38 1366.74 L1546.38 1366.86 L1529.30 1366.86 L1529.30 1368.10 L1512.22 1368.10 L1512.22 1366.49 L1495.27 1366.49 L1495.27 1365.75 L1478.19 1365.75 L1478.19 1362.78 L1461.12 1362.78 L1461.12 1361.17 L1444.16 1361.17 L1444.16 1359.06 L1427.09 1359.06 L1427.09 1356.96 L1410.01 1356.96 L1410.01 1353.87 L1393.05 1353.87 L1393.05 1351.52 L1375.98 1351.52 L1375.98 1350.03 L1358.90 1350.03 L1358.90 1347.68 L1341.94 1347.68 L1341.94 1350.28 L1324.87 1350.28 L1324.87 1352.01 L1307.79 1352.01 L1307.79 1350.15 L1290.71 1350.15 L1290.71 1350.53 L1273.76 1350.53 L1273.76 1350.53 L1256.68 1350.53 L1256.68 1347.68 L1239.60 1347.68 L1239.60 1345.95 L1222.65 1345.95 L1222.65 1346.07 L1205.57 1346.07 L1205.57 1345.95 L1188.49 1345.95 L1188.49 1341.62 L1171.54 1341.62 L1171.54 1340.75 L1154.46 1340.75 L1154.46 1344.34 L1137.39 1344.34 L1137.39 1346.07 L1120.43 1346.07 L1120.43 1347.06 L1103.36 1347.06 L1103.36 1350.15 L1086.28 1350.15 L1086.28 1353.99 L1069.32 1353.99 L1069.32 1350.40 L1052.25 1350.40 L1052.25 1349.78 L1035.17 1349.78 L1035.17 1355.85 L1018.22 1355.85 L1018.22 1346.32 L1001.14 1346.32 L1001.14 1353.74 L984.06 1353.74 L984.06 1358.20 L967.11 1358.20 L967.11 1359.19 L950.03 1359.19 L950.03 1358.07 L932.95 1358.07 L932.95 1363.40 L916.00 1363.40 L916.00 1356.96 L898.92 1356.96 L898.92 1350.15 L881.84 1350.15 L881.84 1343.97 L864.89 1343.97 L864.89 1330.73 L847.81 1330.73 L847.81 1332.83 L830.73 1332.83 L830.73 1331.84 L813.78 1331.84 L813.78 1342.98 L796.70 1342.98 L796.70 1346.94 L779.63 1346.94 L779.63 1340.50 L762.67 1340.50 L762.67 1339.51 L745.59 1339.51 L745.59 1561.03 Z" stroke-linejoin="round"/>
	</defs>
	<defs>
		<clipPath id="clipPath_UBsRsnxJ">
			<use xlink:href="#path_HiAkYaZw"/>
		</clipPath>
	</defs>
	<use xlink:href="#path_HiAkYaZw" style="stroke:none;fill:#999999;fill-opacity:0.65"/>
	<use xlink:href="#path_HiAkYaZw" style="fill:none;stroke:#808080;stroke-opacity:0.65;stroke-width:17.28" clip-path="url(#clipPath_UBsRsnxJ)"/>
	<path d=" M745.47 1456.46 L762.55 1456.46 L762.55 1453.49 L779.63 1453.49 L779.63 1456.46 L796.58 1456.46 L796.58 1451.26 L813.66 1451.26 L813.66 1439.26 L830.73 1439.26 L830.73 1438.64 L847.69 1438.64 L847.69 1436.04 L864.76 1436.04 L864.76 1446.93 L881.84 1446.93 L881.84 1451.26 L898.80 1451.26 L898.80 1456.58 L915.87 1456.58 L915.87 1461.66 L932.95 1461.66 L932.95 1455.96 L949.90 1455.96 L949.90 1456.34 L966.98 1456.34 L966.98 1454.73 L984.06 1454.73 L984.06 1450.52 L1001.01 1450.52 L1001.01 1443.71 L1018.09 1443.71 L1018.09 1452.00 L1035.17 1452.00 L1035.17 1445.94 L1052.25 1445.94 L1052.25 1445.94 L1069.20 1445.94 L1069.20 1448.91 L1086.28 1448.91 L1086.28 1444.95 L1103.36 1444.95 L1103.36 1441.86 L1120.31 1441.86 L1120.31 1440.62 L1137.39 1440.62 L1137.39 1438.64 L1154.46 1438.64 L1154.46 1434.93 L1171.42 1434.93 L1171.42 1435.42 L1188.49 1435.42 L1188.49 1439.13 L1205.57 1439.13 L1205.57 1439.38 L1222.53 1439.38 L1222.53 1439.13 L1239.60 1439.13 L1239.60 1440.62 L1256.68 1440.62 L1256.68 1442.72 L1273.63 1442.72 L1273.63 1442.48 L1290.71 1442.48 L1290.71 1441.98 L1307.79 1441.98 L1307.79 1443.59 L1324.74 1443.59 L1324.74 1441.73 L1341.82 1441.73 L1341.82 1439.13 L1358.90 1439.13 L1358.90 1441.24 L1375.85 1441.24 L1375.85 1442.48 L1392.93 1442.48 L1392.93 1444.33 L1410.01 1444.33 L1410.01 1447.05 L1426.96 1447.05 L1426.96 1448.66 L1444.04 1448.66 L1444.04 1450.52 L1461.12 1450.52 L1461.12 1451.63 L1478.07 1451.63 L1478.07 1454.23 L1495.15 1454.23 L1495.15 1454.73 L1512.22 1454.73 L1512.22 1456.09 L1529.18 1456.09 L1529.18 1454.85 L1546.26 1454.85 L1546.26 1454.60 L1563.33 1454.60 L1563.33 1455.96 L1580.29 1455.96 L1580.29 1456.83 L1597.37 1456.83 L1597.37 1456.34 L1614.44 1456.34 L1614.44 1456.46 L1631.52 1456.46 L1631.52 1455.47 L1648.47 1455.47 L1648.47 1456.09 L1665.55 1456.09 L1665.55 1457.94 L1682.63 1457.94 L1682.63 1457.57 L1699.58 1457.57 L1699.58 1456.58 L1716.66 1456.58 L1716.66 1456.21 L1733.74 1456.21 L1733.74 1456.46 L1750.69 1456.46 L1750.69 1456.95 L1767.77 1456.95 L1767.77 1456.09 L1784.85 1456.09 L1784.85 1457.33 L1801.80 1457.33 L1801.80 1456.58 L1818.88 1456.58 L1818.88 1454.11 L1835.95 1454.11 L1835.95 1452.62 L1852.91 1452.62 L1852.91 1450.40 L1869.99 1450.40 L1869.99 1451.63 L1887.06 1451.63 L1887.06 1450.89 L1904.02 1450.89 L1904.02 1449.53 L1921.10 1449.53 L1921.10 1450.15 L1938.17 1450.15 L1938.17 1451.14 L1955.13 1451.14 L1955.13 1450.40 L1972.20 1450.40 L1972.20 1450.64 L1989.28 1450.64 L1989.28 1451.76 L2006.23 1451.76 L2006.23 1453.37 L2023.31 1453.37 L2023.31 1453.86 L2040.39 1453.86 L2040.39 1453.74 L2057.34 1453.74 L2057.34 1455.47 L2074.42 1455.47 L2074.42 1455.47 L2091.50 1455.47 L2091.50 1455.84 L2108.45 1455.84 L2108.45 1456.09 L2125.53 1456.09 L2125.53 1456.21 L2142.61 1456.21 L2142.61 1456.71 L2159.56 1456.71 L2159.56 1456.46 L2176.64 1456.46 L2176.64 1455.10 L2193.72 1455.10 L2193.72 1454.11 L2210.79 1454.11 L2210.79 1453.49 L2227.75 1453.49 L2227.75 1452.99 L2244.82 1452.99 L2244.82 1452.87 L2261.90 1452.87 L2261.90 1453.24 L2278.86 1453.24 L2278.86 1455.10 L2295.93 1455.10 L2295.93 1454.73 L2313.01 1454.73 L2313.01 1454.73 L2329.97 1454.73 L2329.97 1454.11 L2347.04 1454.11 L2347.04 1453.98 L2364.12 1453.98 L2364.12 1453.98 L2381.07 1453.98 L2381.07 1453.61 L2398.15 1453.61 L2398.15 1454.23 L2415.23 1454.23 L2415.23 1452.38 L2432.18 1452.38 L2432.18 1451.39 L2449.26 1451.39 L2449.26 1451.39 L2466.34 1451.39 L2466.34 1451.39 L2483.29 1451.39 L2483.29 1450.64 L2500.37 1450.64 L2500.37 1449.53 L2517.45 1449.53 L2517.45 1450.40 L2534.40 1450.40 L2534.40 1451.01 L2551.48 1451.01 L2551.48 1452.13 L2568.55 1452.13 L2568.55 1452.25 L2585.51 1452.25 L2585.51 1452.25 L2602.59 1452.25 L2602.59 1451.39 L2619.66 1451.39 L2619.66 1449.16 L2636.62 1449.16 L2636.62 1447.92 L2653.70 1447.92 L2653.70 1446.56 L2670.77 1446.56 L2670.77 1445.57 L2687.73 1445.57 L2687.73 1446.44 L2704.80 1446.44 L2704.80 1446.31 L2721.88 1446.31 L2721.88 1447.67 L2738.84 1447.67 L2738.84 1447.43 L2755.91 1447.43 L2755.91 1447.05 L2772.99 1447.05 L2772.99 1447.30 L2790.07 1447.30 L2790.07 1446.68 L2807.02 1446.68 L2807.02 1446.19 L2824.10 1446.19 L2824.10 1446.93 L2841.18 1446.93 L2841.18 1447.55 L2858.13 1447.55 L2858.13 1446.44 L2875.21 1446.44 L2875.21 1446.31 L2892.28 1446.31 L2892.28 1446.81 L2909.24 1446.81 L2909.24 1446.56 L2926.32 1446.56 L2926.32 1445.82 L2943.39 1445.82 L2943.39 1444.95 L2960.35 1444.95 L2960.35 1446.31 L2977.43 1446.31 L2977.43 1446.44 L2994.50 1446.44 L2994.50 1445.45 L3011.46 1445.45 L3011.46 1446.06 L3028.53 1446.06 L3028.53 1445.57 L3045.61 1445.57 L3045.61 1444.08 L3062.57 1444.08 L3062.57 1444.46 L3079.64 1444.46 L3079.64 1446.81 L3096.72 1446.81 L3096.72 1448.42 L3113.67 1448.42 L3113.67 1449.28 L3130.75 1449.28 L3130.75 1449.53 L3147.83 1449.53 L3147.83 1448.91 L3164.78 1448.91 L3164.78 1449.90 L3181.86 1449.90 L3181.86 1450.40 L3198.94 1450.40 L3198.94 1450.89 L3215.89 1450.89 L3215.89 1452.25 L3232.97 1452.25 L3232.97 1453.74 L3250.05 1453.74 L3250.05 1452.62 L3267.00 1452.62 L3267.00 1453.98 L3284.08 1453.98 L3284.08 1453.61 L3301.16 1453.61 L3301.16 1453.49 L3318.23 1453.49 L3318.23 1452.99 L3335.19 1452.99 L3335.19 1453.24 L3352.26 1453.24 L3352.26 1453.49 L3369.34 1453.49 L3369.34 1453.74 L3386.30 1453.74 L3386.30 1454.73 L3403.37 1454.73 L3403.37 1455.35 L3420.45 1455.35 L3420.45 1455.35 L3437.40 1455.35 L3437.40 1455.72 L3454.48 1455.72 L3454.48 1456.34 L3471.56 1456.34 L3471.56 1455.84 L3488.51 1455.84 L3488.51 1455.47 L3505.59 1455.47 L3505.59 1454.73 L3522.67 1454.73 L3522.67 1453.86 L3539.62 1453.86 L3539.62 1453.49 L3556.70 1453.49 L3556.70 1453.98 L3573.78 1453.98 L3573.78 1453.98 L3590.73 1453.98 L3590.73 1453.86 L3607.81 1453.86 L3607.81 1453.49 L3624.89 1453.49 L3624.89 1454.48 L3641.84 1454.48 L3641.84 1454.60 L3658.92 1454.60 L3658.92 1455.72 L3675.99 1455.72 L3675.99 1455.84 L3692.95 1455.84 L3692.95 1455.72 L3710.03 1455.72 L3710.03 1454.85 L3727.10 1454.85 L3727.10 1455.22 L3744.06 1455.22 L3744.06 1456.46 L3761.13 1456.46 L3761.13 1455.35 L3778.21 1455.35 L3778.21 1455.10 L3795.16 1455.10 L3795.16 1455.10" stroke-linejoin="round" style="fill:none;stroke:#000000;stroke-width:8.64"/>
	<line x1="524.08" y1="2509.23" x2="524.08" y2="419.90" style="stroke:#000000;stroke-width:5.76"/>
	<line x1="524.08" y1="2445.87" x2="484.11" y2="2445.87" style="stroke:#000000;stroke-width:5.76"/>
	<text x="464.06" y="2480.90" style="font-family:'Helvetica';font-size:99.99px;fill:#000000" text-anchor="end">0.00</text>
	<line x1="524.08" y1="1955.19" x2="484.11" y2="1955.19" style="stroke:#000000;stroke-width:5.76"/>
	<text x="464.06" y="1990.22" style="font-family:'Helvetica';font-size:99.99px;fill:#000000" text-anchor="end">0.50</text>
	<line x1="524.08" y1="1464.63" x2="484.11" y2="1464.63" style="stroke:#000000;stroke-width:5.76"/>
	<text x="464.06" y="1499.66" style="font-family:'Helvetica';font-size:99.99px;fill:#000000" text-anchor="end">1.00</text>
	<line x1="524.08" y1="973.94" x2="484.11" y2="973.94" style="stroke:#000000;stroke-width:5.76"/>
	<text x="464.06" y="1008.97" style="font-family:'Helvetica';font-size:99.99px;fill:#000000" text-anchor="end">1.50</text>
	<line x1="524.08" y1="483.26" x2="484.11" y2="483.26" style="stroke:#000000;stroke-width:5.76"/>
	<text x="464.06" y="518.29" style="font-family:'Helvetica';font-size:99.99px;fill:#000000" text-anchor="end">2.00</text>
	<text x="190.71" y="1464.63" style="font-family:'Helvetica';font-size:99.99px;fill:#000000" transform="rotate(-90 190.71,1464.63)" text-anchor="middle">Ratio in Probabilities</text>
	<line x1="524.08" y1="2509.23" x2="3859.02" y2="2509.23" style="stroke:#000000;stroke-width:5.76"/>
	<line x1="587.44" y1="2509.23" x2="587.44" y2="2549.21" style="stroke:#000000;stroke-width:5.76"/>
	<text x="587.44" y="2625.15" style="font-family:'Helvetica';font-size:79.94px;fill:#000000" text-anchor="middle">0</text>
	<line x1="780.00" y1="2509.23" x2="780.00" y2="2549.21" style="stroke:#000000;stroke-width:5.76"/>
	<text x="780.00" y="2625.15" style="font-family:'Helvetica';font-size:79.94px;fill:#000000" text-anchor="middle">.3</text>
	<line x1="972.43" y1="2509.23" x2="972.43" y2="2549.21" style="stroke:#000000;stroke-width:5.76"/>
	<text x="972.43" y="2625.15" style="font-family:'Helvetica';font-size:79.94px;fill:#000000" text-anchor="middle">.6</text>
	<line x1="1164.98" y1="2509.23" x2="1164.98" y2="2549.21" style="stroke:#000000;stroke-width:5.76"/>
	<text x="1164.98" y="2625.15" style="font-family:'Helvetica';font-size:79.94px;fill:#000000" text-anchor="middle">.9</text>
	<line x1="1357.41" y1="2509.23" x2="1357.41" y2="2549.21" style="stroke:#000000;stroke-width:5.76"/>
	<text x="1357.41" y="2625.15" style="font-family:'Helvetica';font-size:79.94px;fill:#000000" text-anchor="middle">1.2</text>
	<line x1="1549.97" y1="2509.23" x2="1549.97" y2="2549.21" style="stroke:#000000;stroke-width:5.76"/>
	<text x="1549.97" y="2625.15" style="font-family:'Helvetica';font-size:79.94px;fill:#000000" text-anchor="middle">1.5</text>
	<line x1="1742.40" y1="2509.23" x2="1742.40" y2="2549.21" style="stroke:#000000;stroke-width:5.76"/>
	<text x="1742.40" y="2625.15" style="font-family:'Helvetica';font-size:79.94px;fill:#000000" text-anchor="middle">1.8</text>
	<line x1="1934.95" y1="2509.23" x2="1934.95" y2="2549.21" style="stroke:#000000;stroke-width:5.76"/>
	<text x="1934.95" y="2625.15" style="font-family:'Helvetica';font-size:79.94px;fill:#000000" text-anchor="middle">2.1</text>
	<line x1="2127.39" y1="2509.23" x2="2127.39" y2="2549.21" style="stroke:#000000;stroke-width:5.76"/>
	<text x="2127.39" y="2625.15" style="font-family:'Helvetica';font-size:79.94px;fill:#000000" text-anchor="middle">2.4</text>
	<line x1="2319.94" y1="2509.23" x2="2319.94" y2="2549.21" style="stroke:#000000;stroke-width:5.76"/>
	<text x="2319.94" y="2625.15" style="font-family:'Helvetica';font-size:79.94px;fill:#000000" text-anchor="middle">2.7</text>
	<line x1="2512.37" y1="2509.23" x2="2512.37" y2="2549.21" style="stroke:#000000;stroke-width:5.76"/>
	<text x="2512.37" y="2625.15" style="font-family:'Helvetica';font-size:79.94px;fill:#000000" text-anchor="middle">3</text>
	<line x1="2704.93" y1="2509.23" x2="2704.93" y2="2549.21" style="stroke:#000000;stroke-width:5.76"/>
	<text x="2704.93" y="2625.15" style="font-family:'Helvetica';font-size:79.94px;fill:#000000" text-anchor="middle">3.3</text>
	<line x1="2897.36" y1="2509.23" x2="2897.36" y2="2549.21" style="stroke:#000000;stroke-width:5.76"/>
	<text x="2897.36" y="2625.15" style="font-family:'Helvetica';font-size:79.94px;fill:#000000" text-anchor="middle">3.6</text>
	<line x1="3089.91" y1="2509.23" x2="3089.91" y2="2549.21" style="stroke:#000000;stroke-width:5.76"/>
	<text x="3089.91" y="2625.15" style="font-family:'Helvetica';font-size:79.94px;fill:#000000" text-anchor="middle">3.9</text>
	<line x1="3282.34" y1="2509.23" x2="3282.34" y2="2549.21" style="stroke:#000000;stroke-width:5.76"/>
	<text x="3282.34" y="2625.15" style="font-family:'Helvetica';font-size:79.94px;fill:#000000" text-anchor="middle">4.2</text>
	<line x1="3474.90" y1="2509.23" x2="3474.90" y2="2549.21" style="stroke:#000000;stroke-width:5.76"/>
	<text x="3474.90" y="2625.15" style="font-family:'Helvetica';font-size:79.94px;fill:#000000" text-anchor="middle">4.5</text>
	<line x1="3667.33" y1="2509.23" x2="3667.33" y2="2549.21" style="stroke:#000000;stroke-width:5.76"/>
	<text x="3667.33" y="2625.15" style="font-family:'Helvetica';font-size:79.94px;fill:#000000" text-anchor="middle">4.8</text>
	<line x1="3859.89" y1="2509.23" x2="3859.89" y2="2549.21" style="stroke:#000000;stroke-width:5.76"/>
	<text x="3859.89" y="2625.15" style="font-family:'Helvetica';font-size:79.94px;fill:#000000" text-anchor="middle">5.1</text>
	<text x="2191.61" y="2729.16" style="font-family:'Helvetica';font-size:99.99px;fill:#000000" text-anchor="middle">Time (years)</text>
	<rect x="558.61" y="454.42" width="993.34" height="326.46" style="fill:#FFFFFF"/>
	<rect x="561.49" y="457.30" width="987.58" height="320.70" style="fill:none;stroke:#000000;stroke-width:5.76"/>
	<rect x="601.92" y="497.74" width="374.34" height="99.99" style="fill:#999999;fill-opacity:0.65"/>
	<rect x="606.24" y="502.06" width="365.70" height="91.35" style="fill:none;stroke:#808080;stroke-opacity:0.65;stroke-width:8.64"/>
	<line x1="601.92" y1="687.70" x2="976.26" y2="687.70" style="stroke:#000000;stroke-width:8.64"/>
	<text x="1036.28" y="582.76" style="font-family:'Helvetica';font-size:99.99px;fill:#000000">CI95%</text>
	<text x="1036.28" y="722.73" style="font-family:'Helvetica';font-size:99.99px;fill:#000000">Difference</text>
	<text x="2191.61" y="369.63" style="font-family:'Helvetica';font-size:110.01px;fill:#000000" text-anchor="middle">from Readmission to 2nd Readmission</text>
	<text x="2191.61" y="215.98" style="font-family:'Helvetica';font-size:139.96px;fill:#1E2D53" text-anchor="middle">Ratio in Probabilities (RP)</text>
</svg>
